<?xml version="1.0"?>
<!DOCTYPE svg PUBLIC "-//W3C//DTD SVG 1.1//EN" "http://www.w3.org/Graphics/SVG/1.1/DTD/svg11.dtd">
<svg width="3.2640000000000002mm" height="1.864mm" viewBox="0 0 3.2640000000000002 1.864" xmlns="http://www.w3.org/2000/svg" version="1.1">
<g id="Shape2DView" transform="translate(1.632000,1.032000) scale(1,-1)">
<path id="Shape2DView_nwe0000"  d="M 1.55 0.8 A 0.05 0.05 0 0 0 1.6 0.75" stroke="#191919" stroke-width="0.35 px" style="stroke-width:0.35;stroke-miterlimit:4;stroke-dasharray:none;fill:none;fill-opacity:1;fill-rule: evenodd"/>
<path id="Shape2DView_nwe0001"  d="M 1.6 0.25 L 1.6 0.75 " stroke="#191919" stroke-width="0.35 px" style="stroke-width:0.35;stroke-miterlimit:4;stroke-dasharray:none;fill:none;fill-opacity:1;fill-rule: evenodd"/>
<path id="Shape2DView_nwe0002"  d="M 1.55 0.8 L 1.27 0.8 " stroke="#191919" stroke-width="0.35 px" style="stroke-width:0.35;stroke-miterlimit:4;stroke-dasharray:none;fill:none;fill-opacity:1;fill-rule: evenodd"/>
<path id="Shape2DView_nwe0003"  d="M 1.6 -0.25 L 1.6 0.25 " stroke="#191919" stroke-width="0.35 px" style="stroke-width:0.35;stroke-miterlimit:4;stroke-dasharray:none;fill:none;fill-opacity:1;fill-rule: evenodd"/>
<path id="Shape2DView_nwe0004"  d="M 1.27 0.8 L 0.71 0.8 " stroke="#191919" stroke-width="0.35 px" style="stroke-width:0.35;stroke-miterlimit:4;stroke-dasharray:none;fill:none;fill-opacity:1;fill-rule: evenodd"/>
<path id="Shape2DView_nwe0005"  d="M 1.6 -0.75 L 1.6 -0.25 " stroke="#191919" stroke-width="0.35 px" style="stroke-width:0.35;stroke-miterlimit:4;stroke-dasharray:none;fill:none;fill-opacity:1;fill-rule: evenodd"/>
<path id="Shape2DView_nwe0006"  d="M 0.71 0.8 L 0.28 0.8 " stroke="#191919" stroke-width="0.35 px" style="stroke-width:0.35;stroke-miterlimit:4;stroke-dasharray:none;fill:none;fill-opacity:1;fill-rule: evenodd"/>
<path id="Shape2DView_nwe0007"  d="M 1.27 -0.8 L 1.55 -0.8 " stroke="#191919" stroke-width="0.35 px" style="stroke-width:0.35;stroke-miterlimit:4;stroke-dasharray:none;fill:none;fill-opacity:1;fill-rule: evenodd"/>
<path id="Shape2DView_nwe0008"  d="M -0.28 0.8 L -0.71 0.8 " stroke="#191919" stroke-width="0.35 px" style="stroke-width:0.35;stroke-miterlimit:4;stroke-dasharray:none;fill:none;fill-opacity:1;fill-rule: evenodd"/>
<path id="Shape2DView_nwe0009"  d="M 0.28 -0.8 L 0.71 -0.8 " stroke="#191919" stroke-width="0.35 px" style="stroke-width:0.35;stroke-miterlimit:4;stroke-dasharray:none;fill:none;fill-opacity:1;fill-rule: evenodd"/>
<path id="Shape2DView_nwe0010"  d="M -1.27 0.8 L -1.55 0.8 " stroke="#191919" stroke-width="0.35 px" style="stroke-width:0.35;stroke-miterlimit:4;stroke-dasharray:none;fill:none;fill-opacity:1;fill-rule: evenodd"/>
<path id="Shape2DView_nwe0011"  d="M -1.6 0.75 L -1.6 0.25 " stroke="#191919" stroke-width="0.35 px" style="stroke-width:0.35;stroke-miterlimit:4;stroke-dasharray:none;fill:none;fill-opacity:1;fill-rule: evenodd"/>
<path id="Shape2DView_nwe0012"  d="M -0.71 -0.8 L -0.28 -0.8 " stroke="#191919" stroke-width="0.35 px" style="stroke-width:0.35;stroke-miterlimit:4;stroke-dasharray:none;fill:none;fill-opacity:1;fill-rule: evenodd"/>
<path id="Shape2DView_nwe0013"  d="M -1.6 -0.25 L -1.6 -0.75 " stroke="#191919" stroke-width="0.35 px" style="stroke-width:0.35;stroke-miterlimit:4;stroke-dasharray:none;fill:none;fill-opacity:1;fill-rule: evenodd"/>
<path id="Shape2DView_nwe0014"  d="M -1.55 -0.8 L -1.27 -0.8 " stroke="#191919" stroke-width="0.35 px" style="stroke-width:0.35;stroke-miterlimit:4;stroke-dasharray:none;fill:none;fill-opacity:1;fill-rule: evenodd"/>
<path id="Shape2DView_nwe0015"  d="M 1.6 -0.75 A 0.05 0.05 0 0 0 1.55 -0.8" stroke="#191919" stroke-width="0.35 px" style="stroke-width:0.35;stroke-miterlimit:4;stroke-dasharray:none;fill:none;fill-opacity:1;fill-rule: evenodd"/>
<path id="Shape2DView_nwe0016"  d="M 0.28 0.8 L -0.28 0.8 " stroke="#191919" stroke-width="0.35 px" style="stroke-width:0.35;stroke-miterlimit:4;stroke-dasharray:none;fill:none;fill-opacity:1;fill-rule: evenodd"/>
<path id="Shape2DView_nwe0017"  d="M 0.71 -0.8 L 1.27 -0.8 " stroke="#191919" stroke-width="0.35 px" style="stroke-width:0.35;stroke-miterlimit:4;stroke-dasharray:none;fill:none;fill-opacity:1;fill-rule: evenodd"/>
<path id="Shape2DView_nwe0018"  d="M -0.71 0.8 L -1.27 0.8 " stroke="#191919" stroke-width="0.35 px" style="stroke-width:0.35;stroke-miterlimit:4;stroke-dasharray:none;fill:none;fill-opacity:1;fill-rule: evenodd"/>
<path id="Shape2DView_nwe0019"  d="M -0.28 -0.8 L 0.28 -0.8 " stroke="#191919" stroke-width="0.35 px" style="stroke-width:0.35;stroke-miterlimit:4;stroke-dasharray:none;fill:none;fill-opacity:1;fill-rule: evenodd"/>
<path id="Shape2DView_nwe0020"  d="M -1.6 0.75 A 0.05 0.05 0 0 0 -1.55 0.8" stroke="#191919" stroke-width="0.35 px" style="stroke-width:0.35;stroke-miterlimit:4;stroke-dasharray:none;fill:none;fill-opacity:1;fill-rule: evenodd"/>
<path id="Shape2DView_nwe0021"  d="M -1.6 0.25 L -1.6 -0.25 " stroke="#191919" stroke-width="0.35 px" style="stroke-width:0.35;stroke-miterlimit:4;stroke-dasharray:none;fill:none;fill-opacity:1;fill-rule: evenodd"/>
<path id="Shape2DView_nwe0022"  d="M -1.27 -0.8 L -0.71 -0.8 " stroke="#191919" stroke-width="0.35 px" style="stroke-width:0.35;stroke-miterlimit:4;stroke-dasharray:none;fill:none;fill-opacity:1;fill-rule: evenodd"/>
<path id="Shape2DView_nwe0023"  d="M -1.55 -0.8 A 0.05 0.05 0 0 0 -1.6 -0.75" stroke="#191919" stroke-width="0.35 px" style="stroke-width:0.35;stroke-miterlimit:4;stroke-dasharray:none;fill:none;fill-opacity:1;fill-rule: evenodd"/>
<path id="Shape2DView_nwe0024"  d="M 1.55 0.75 L 1.55 0.7555982238051654 L 1.55 0.7611260466978157 L 1.55 0.7665139530977584 L 1.55 0.7716941869558779 L 1.55 0.7766016038257668 L 1.55 0.7811744900929367 L 1.55 0.7853553390593274 L 1.55 0.7890915741234015 L 1.55 0.7923362099614142 L 1.55 0.7950484433951209 L 1.55 0.7971941665154184 L 1.55 0.7987463956090912 L 1.55 0.7996856104946621 L 1.55 0.8 " stroke="#191919" stroke-width="0.35 px" style="stroke-width:0.35;stroke-miterlimit:4;stroke-dasharray:none;fill:none;fill-opacity:1;fill-rule: evenodd"/>
<path id="Shape2DView_nwe0025"  d="M 1.55 0.75 L 1.5555982238051655 0.75 L 1.5611260466978159 0.75 L 1.5665139530977583 0.75 L 1.571694186955878 0.75 L 1.5766016038257669 0.75 L 1.5811744900929368 0.75 L 1.5853553390593274 0.75 L 1.5890915741234015 0.75 L 1.5923362099614142 0.75 L 1.595048443395121 0.75 L 1.5971941665154183 0.75 L 1.5987463956090913 0.75 L 1.5996856104946622 0.75 L 1.6 0.75 " stroke="#191919" stroke-width="0.35 px" style="stroke-width:0.35;stroke-miterlimit:4;stroke-dasharray:none;fill:none;fill-opacity:1;fill-rule: evenodd"/>
<path id="Shape2DView_nwe0026"  d="M 1.55 0.25 L 1.55 0.75 " stroke="#191919" stroke-width="0.35 px" style="stroke-width:0.35;stroke-miterlimit:4;stroke-dasharray:none;fill:none;fill-opacity:1;fill-rule: evenodd"/>
<path id="Shape2DView_nwe0027"  d="M 1.55 0.75 L 1.27 0.75 " stroke="#191919" stroke-width="0.35 px" style="stroke-width:0.35;stroke-miterlimit:4;stroke-dasharray:none;fill:none;fill-opacity:1;fill-rule: evenodd"/>
<path id="Shape2DView_nwe0028"  d="M 1.55 -0.25 L 1.55 0.25 " stroke="#191919" stroke-width="0.35 px" style="stroke-width:0.35;stroke-miterlimit:4;stroke-dasharray:none;fill:none;fill-opacity:1;fill-rule: evenodd"/>
<path id="Shape2DView_nwe0029"  d="M 0.71 0.75 L 0.28 0.75 " stroke="#191919" stroke-width="0.35 px" style="stroke-width:0.35;stroke-miterlimit:4;stroke-dasharray:none;fill:none;fill-opacity:1;fill-rule: evenodd"/>
<path id="Shape2DView_nwe0030"  d="M -0.28 0.75 L -0.71 0.75 " stroke="#191919" stroke-width="0.35 px" style="stroke-width:0.35;stroke-miterlimit:4;stroke-dasharray:none;fill:none;fill-opacity:1;fill-rule: evenodd"/>
<path id="Shape2DView_nwe0031"  d="M -1.27 0.75 L -1.55 0.75 " stroke="#191919" stroke-width="0.35 px" style="stroke-width:0.35;stroke-miterlimit:4;stroke-dasharray:none;fill:none;fill-opacity:1;fill-rule: evenodd"/>
<path id="Shape2DView_nwe0032"  d="M -1.55 0.75 L -1.55 0.25 " stroke="#191919" stroke-width="0.35 px" style="stroke-width:0.35;stroke-miterlimit:4;stroke-dasharray:none;fill:none;fill-opacity:1;fill-rule: evenodd"/>
<path id="Shape2DView_nwe0033"  d="M -1.55 -0.25 L -1.55 -0.75 " stroke="#191919" stroke-width="0.35 px" style="stroke-width:0.35;stroke-miterlimit:4;stroke-dasharray:none;fill:none;fill-opacity:1;fill-rule: evenodd"/>
<path id="Shape2DView_nwe0034"  d="M -1.55 -0.75 L -1.27 -0.75 " stroke="#191919" stroke-width="0.35 px" style="stroke-width:0.35;stroke-miterlimit:4;stroke-dasharray:none;fill:none;fill-opacity:1;fill-rule: evenodd"/>
<path id="Shape2DView_nwe0035"  d="M -0.71 -0.75 L -0.28 -0.75 " stroke="#191919" stroke-width="0.35 px" style="stroke-width:0.35;stroke-miterlimit:4;stroke-dasharray:none;fill:none;fill-opacity:1;fill-rule: evenodd"/>
<path id="Shape2DView_nwe0036"  d="M 0.28 -0.75 L 0.71 -0.75 " stroke="#191919" stroke-width="0.35 px" style="stroke-width:0.35;stroke-miterlimit:4;stroke-dasharray:none;fill:none;fill-opacity:1;fill-rule: evenodd"/>
<path id="Shape2DView_nwe0037"  d="M 1.27 -0.75 L 1.55 -0.75 " stroke="#191919" stroke-width="0.35 px" style="stroke-width:0.35;stroke-miterlimit:4;stroke-dasharray:none;fill:none;fill-opacity:1;fill-rule: evenodd"/>
<path id="Shape2DView_nwe0038"  d="M 1.55 -0.75 L 1.55 -0.25 " stroke="#191919" stroke-width="0.35 px" style="stroke-width:0.35;stroke-miterlimit:4;stroke-dasharray:none;fill:none;fill-opacity:1;fill-rule: evenodd"/>
<path id="Shape2DView_nwe0039"  d="M 1.27 0.75 L 0.71 0.75 " stroke="#191919" stroke-width="0.35 px" style="stroke-width:0.35;stroke-miterlimit:4;stroke-dasharray:none;fill:none;fill-opacity:1;fill-rule: evenodd"/>
<path id="Shape2DView_nwe0040"  d="M 1.6 -0.75 L 1.5996856104946622 -0.75 L 1.5987463956090913 -0.75 L 1.5971941665154183 -0.75 L 1.595048443395121 -0.75 L 1.5923362099614142 -0.75 L 1.5890915741234015 -0.75 L 1.5853553390593274 -0.75 L 1.5811744900929368 -0.75 L 1.5766016038257669 -0.75 L 1.571694186955878 -0.75 L 1.5665139530977583 -0.75 L 1.5611260466978159 -0.75 L 1.5555982238051655 -0.75 L 1.55 -0.75 " stroke="#191919" stroke-width="0.35 px" style="stroke-width:0.35;stroke-miterlimit:4;stroke-dasharray:none;fill:none;fill-opacity:1;fill-rule: evenodd"/>
<path id="Shape2DView_nwe0041"  d="M 0.28 0.75 L -0.28 0.75 " stroke="#191919" stroke-width="0.35 px" style="stroke-width:0.35;stroke-miterlimit:4;stroke-dasharray:none;fill:none;fill-opacity:1;fill-rule: evenodd"/>
<path id="Shape2DView_nwe0042"  d="M 1.55 -0.8 L 1.55 -0.7996856104946621 L 1.55 -0.7987463956090912 L 1.55 -0.7971941665154184 L 1.55 -0.7950484433951209 L 1.55 -0.7923362099614142 L 1.55 -0.7890915741234015 L 1.55 -0.7853553390593274 L 1.55 -0.7811744900929367 L 1.55 -0.7766016038257668 L 1.55 -0.7716941869558779 L 1.55 -0.7665139530977584 L 1.55 -0.7611260466978157 L 1.55 -0.7555982238051654 L 1.55 -0.75 " stroke="#191919" stroke-width="0.35 px" style="stroke-width:0.35;stroke-miterlimit:4;stroke-dasharray:none;fill:none;fill-opacity:1;fill-rule: evenodd"/>
<path id="Shape2DView_nwe0043"  d="M 0.71 -0.75 L 1.27 -0.75 " stroke="#191919" stroke-width="0.35 px" style="stroke-width:0.35;stroke-miterlimit:4;stroke-dasharray:none;fill:none;fill-opacity:1;fill-rule: evenodd"/>
<path id="Shape2DView_nwe0044"  d="M -0.71 0.75 L -1.27 0.75 " stroke="#191919" stroke-width="0.35 px" style="stroke-width:0.35;stroke-miterlimit:4;stroke-dasharray:none;fill:none;fill-opacity:1;fill-rule: evenodd"/>
<path id="Shape2DView_nwe0045"  d="M -0.28 -0.75 L 0.28 -0.75 " stroke="#191919" stroke-width="0.35 px" style="stroke-width:0.35;stroke-miterlimit:4;stroke-dasharray:none;fill:none;fill-opacity:1;fill-rule: evenodd"/>
<path id="Shape2DView_nwe0046"  d="M -1.55 0.8 L -1.55 0.7996856104946621 L -1.55 0.7987463956090912 L -1.55 0.7971941665154184 L -1.55 0.7950484433951209 L -1.55 0.7923362099614142 L -1.55 0.7890915741234015 L -1.55 0.7853553390593274 L -1.55 0.7811744900929367 L -1.55 0.7766016038257668 L -1.55 0.7716941869558779 L -1.55 0.7665139530977584 L -1.55 0.7611260466978157 L -1.55 0.7555982238051654 L -1.55 0.75 " stroke="#191919" stroke-width="0.35 px" style="stroke-width:0.35;stroke-miterlimit:4;stroke-dasharray:none;fill:none;fill-opacity:1;fill-rule: evenodd"/>
<path id="Shape2DView_nwe0047"  d="M -1.6 0.75 L -1.5996856104946622 0.75 L -1.5987463956090913 0.75 L -1.5971941665154183 0.75 L -1.595048443395121 0.75 L -1.5923362099614142 0.75 L -1.5890915741234015 0.75 L -1.5853553390593274 0.75 L -1.5811744900929368 0.75 L -1.5766016038257669 0.75 L -1.571694186955878 0.75 L -1.5665139530977583 0.75 L -1.5611260466978159 0.75 L -1.5555982238051655 0.75 L -1.55 0.75 " stroke="#191919" stroke-width="0.35 px" style="stroke-width:0.35;stroke-miterlimit:4;stroke-dasharray:none;fill:none;fill-opacity:1;fill-rule: evenodd"/>
<path id="Shape2DView_nwe0048"  d="M -1.55 0.25 L -1.55 -0.25 " stroke="#191919" stroke-width="0.35 px" style="stroke-width:0.35;stroke-miterlimit:4;stroke-dasharray:none;fill:none;fill-opacity:1;fill-rule: evenodd"/>
<path id="Shape2DView_nwe0049"  d="M -1.27 -0.75 L -0.71 -0.75 " stroke="#191919" stroke-width="0.35 px" style="stroke-width:0.35;stroke-miterlimit:4;stroke-dasharray:none;fill:none;fill-opacity:1;fill-rule: evenodd"/>
<path id="Shape2DView_nwe0050"  d="M -1.55 -0.75 L -1.5555982238051655 -0.75 L -1.5611260466978159 -0.75 L -1.5665139530977583 -0.75 L -1.571694186955878 -0.75 L -1.5766016038257669 -0.75 L -1.5811744900929368 -0.75 L -1.5853553390593274 -0.75 L -1.5890915741234015 -0.75 L -1.5923362099614142 -0.75 L -1.595048443395121 -0.75 L -1.5971941665154183 -0.75 L -1.5987463956090913 -0.75 L -1.5996856104946622 -0.75 L -1.6 -0.75 " stroke="#191919" stroke-width="0.35 px" style="stroke-width:0.35;stroke-miterlimit:4;stroke-dasharray:none;fill:none;fill-opacity:1;fill-rule: evenodd"/>
<path id="Shape2DView_nwe0051"  d="M -1.55 -0.75 L -1.55 -0.7555982238051654 L -1.55 -0.7611260466978157 L -1.55 -0.7665139530977584 L -1.55 -0.7716941869558779 L -1.55 -0.7766016038257668 L -1.55 -0.7811744900929367 L -1.55 -0.7853553390593274 L -1.55 -0.7890915741234015 L -1.55 -0.7923362099614142 L -1.55 -0.7950484433951209 L -1.55 -0.7971941665154184 L -1.55 -0.7987463956090912 L -1.55 -0.7996856104946621 L -1.55 -0.8 " stroke="#191919" stroke-width="0.35 px" style="stroke-width:0.35;stroke-miterlimit:4;stroke-dasharray:none;fill:none;fill-opacity:1;fill-rule: evenodd"/>
<path id="Shape2DView_nwe0055"  d="M 1.6 0.25 L 1.5996856104946622 0.25 L 1.5987463956090913 0.25 L 1.5971941665154183 0.25 L 1.595048443395121 0.25 L 1.5923362099614142 0.25 L 1.5890915741234015 0.25 L 1.5853553390593274 0.25 L 1.5811744900929368 0.25 L 1.5766016038257669 0.25 L 1.571694186955878 0.25 L 1.5665139530977583 0.25 L 1.5611260466978159 0.25 L 1.5555982238051655 0.25 L 1.55 0.25 " stroke="#191919" stroke-width="0.35 px" style="stroke-width:0.35;stroke-miterlimit:4;stroke-dasharray:none;fill:none;fill-opacity:1;fill-rule: evenodd"/>
<path id="Shape2DView_nwe0056"  d="M 1.27 0.8 L 1.27 0.7996856104946621 L 1.27 0.7987463956090912 L 1.27 0.7971941665154184 L 1.27 0.7950484433951209 L 1.27 0.7923362099614142 L 1.27 0.7890915741234015 L 1.27 0.7853553390593274 L 1.27 0.7811744900929367 L 1.27 0.7766016038257668 L 1.27 0.7716941869558779 L 1.27 0.7665139530977584 L 1.27 0.7611260466978157 L 1.27 0.7555982238051654 L 1.27 0.75 " stroke="#191919" stroke-width="0.35 px" style="stroke-width:0.35;stroke-miterlimit:4;stroke-dasharray:none;fill:none;fill-opacity:1;fill-rule: evenodd"/>
<path id="Shape2DView_nwe0057"  d="M 1.6 -0.25 L 1.5996856104946622 -0.25 L 1.5987463956090913 -0.25 L 1.5971941665154183 -0.25 L 1.595048443395121 -0.25 L 1.5923362099614142 -0.25 L 1.5890915741234015 -0.25 L 1.5853553390593274 -0.25 L 1.5811744900929368 -0.25 L 1.5766016038257669 -0.25 L 1.571694186955878 -0.25 L 1.5665139530977583 -0.25 L 1.5611260466978159 -0.25 L 1.5555982238051655 -0.25 L 1.55 -0.25 " stroke="#191919" stroke-width="0.35 px" style="stroke-width:0.35;stroke-miterlimit:4;stroke-dasharray:none;fill:none;fill-opacity:1;fill-rule: evenodd"/>
<path id="Shape2DView_nwe0058"  d="M 1.27 0.5 L 1.27 0.75 " stroke="#191919" stroke-width="0.35 px" style="stroke-width:0.35;stroke-miterlimit:4;stroke-dasharray:none;fill:none;fill-opacity:1;fill-rule: evenodd"/>
<path id="Shape2DView_nwe0059"  d="M 0.71 0.5 L 1.27 0.5 " stroke="#191919" stroke-width="0.35 px" style="stroke-width:0.35;stroke-miterlimit:4;stroke-dasharray:none;fill:none;fill-opacity:1;fill-rule: evenodd"/>
<path id="Shape2DView_nwe0060"  d="M 0.71 0.75 L 0.71 0.5 " stroke="#191919" stroke-width="0.35 px" style="stroke-width:0.35;stroke-miterlimit:4;stroke-dasharray:none;fill:none;fill-opacity:1;fill-rule: evenodd"/>
<path id="Shape2DView_nwe0061"  d="M 0.28 0.5 L 0.28 0.75 " stroke="#191919" stroke-width="0.35 px" style="stroke-width:0.35;stroke-miterlimit:4;stroke-dasharray:none;fill:none;fill-opacity:1;fill-rule: evenodd"/>
<path id="Shape2DView_nwe0062"  d="M -0.28 0.5 L 0.28 0.5 " stroke="#191919" stroke-width="0.35 px" style="stroke-width:0.35;stroke-miterlimit:4;stroke-dasharray:none;fill:none;fill-opacity:1;fill-rule: evenodd"/>
<path id="Shape2DView_nwe0063"  d="M -0.28 0.75 L -0.28 0.5 " stroke="#191919" stroke-width="0.35 px" style="stroke-width:0.35;stroke-miterlimit:4;stroke-dasharray:none;fill:none;fill-opacity:1;fill-rule: evenodd"/>
<path id="Shape2DView_nwe0064"  d="M -0.71 0.5 L -0.71 0.75 " stroke="#191919" stroke-width="0.35 px" style="stroke-width:0.35;stroke-miterlimit:4;stroke-dasharray:none;fill:none;fill-opacity:1;fill-rule: evenodd"/>
<path id="Shape2DView_nwe0065"  d="M -1.27 0.5 L -0.71 0.5 " stroke="#191919" stroke-width="0.35 px" style="stroke-width:0.35;stroke-miterlimit:4;stroke-dasharray:none;fill:none;fill-opacity:1;fill-rule: evenodd"/>
<path id="Shape2DView_nwe0066"  d="M -1.27 0.75 L -1.27 0.5 " stroke="#191919" stroke-width="0.35 px" style="stroke-width:0.35;stroke-miterlimit:4;stroke-dasharray:none;fill:none;fill-opacity:1;fill-rule: evenodd"/>
<path id="Shape2DView_nwe0067"  d="M -1.3 0.25 L -1.55 0.25 " stroke="#191919" stroke-width="0.35 px" style="stroke-width:0.35;stroke-miterlimit:4;stroke-dasharray:none;fill:none;fill-opacity:1;fill-rule: evenodd"/>
<path id="Shape2DView_nwe0068"  d="M -1.3 -0.25 L -1.3 0.25 " stroke="#191919" stroke-width="0.35 px" style="stroke-width:0.35;stroke-miterlimit:4;stroke-dasharray:none;fill:none;fill-opacity:1;fill-rule: evenodd"/>
<path id="Shape2DView_nwe0069"  d="M -1.55 -0.25 L -1.3 -0.25 " stroke="#191919" stroke-width="0.35 px" style="stroke-width:0.35;stroke-miterlimit:4;stroke-dasharray:none;fill:none;fill-opacity:1;fill-rule: evenodd"/>
<path id="Shape2DView_nwe0070"  d="M -1.27 -0.5 L -1.27 -0.75 " stroke="#191919" stroke-width="0.35 px" style="stroke-width:0.35;stroke-miterlimit:4;stroke-dasharray:none;fill:none;fill-opacity:1;fill-rule: evenodd"/>
<path id="Shape2DView_nwe0071"  d="M -0.71 -0.5 L -1.27 -0.5 " stroke="#191919" stroke-width="0.35 px" style="stroke-width:0.35;stroke-miterlimit:4;stroke-dasharray:none;fill:none;fill-opacity:1;fill-rule: evenodd"/>
<path id="Shape2DView_nwe0072"  d="M -0.71 -0.75 L -0.71 -0.5 " stroke="#191919" stroke-width="0.35 px" style="stroke-width:0.35;stroke-miterlimit:4;stroke-dasharray:none;fill:none;fill-opacity:1;fill-rule: evenodd"/>
<path id="Shape2DView_nwe0073"  d="M -0.28 -0.5 L -0.28 -0.75 " stroke="#191919" stroke-width="0.35 px" style="stroke-width:0.35;stroke-miterlimit:4;stroke-dasharray:none;fill:none;fill-opacity:1;fill-rule: evenodd"/>
<path id="Shape2DView_nwe0074"  d="M 0.28 -0.5 L -0.28 -0.5 " stroke="#191919" stroke-width="0.35 px" style="stroke-width:0.35;stroke-miterlimit:4;stroke-dasharray:none;fill:none;fill-opacity:1;fill-rule: evenodd"/>
<path id="Shape2DView_nwe0075"  d="M 0.28 -0.75 L 0.28 -0.5 " stroke="#191919" stroke-width="0.35 px" style="stroke-width:0.35;stroke-miterlimit:4;stroke-dasharray:none;fill:none;fill-opacity:1;fill-rule: evenodd"/>
<path id="Shape2DView_nwe0076"  d="M 0.71 -0.5 L 0.71 -0.75 " stroke="#191919" stroke-width="0.35 px" style="stroke-width:0.35;stroke-miterlimit:4;stroke-dasharray:none;fill:none;fill-opacity:1;fill-rule: evenodd"/>
<path id="Shape2DView_nwe0077"  d="M 1.27 -0.5 L 0.71 -0.5 " stroke="#191919" stroke-width="0.35 px" style="stroke-width:0.35;stroke-miterlimit:4;stroke-dasharray:none;fill:none;fill-opacity:1;fill-rule: evenodd"/>
<path id="Shape2DView_nwe0078"  d="M 1.27 -0.75 L 1.27 -0.5 " stroke="#191919" stroke-width="0.35 px" style="stroke-width:0.35;stroke-miterlimit:4;stroke-dasharray:none;fill:none;fill-opacity:1;fill-rule: evenodd"/>
<path id="Shape2DView_nwe0079"  d="M 1.3 -0.25 L 1.55 -0.25 " stroke="#191919" stroke-width="0.35 px" style="stroke-width:0.35;stroke-miterlimit:4;stroke-dasharray:none;fill:none;fill-opacity:1;fill-rule: evenodd"/>
<path id="Shape2DView_nwe0080"  d="M 1.3 0.25 L 1.3 -0.25 " stroke="#191919" stroke-width="0.35 px" style="stroke-width:0.35;stroke-miterlimit:4;stroke-dasharray:none;fill:none;fill-opacity:1;fill-rule: evenodd"/>
<path id="Shape2DView_nwe0081"  d="M 1.55 0.25 L 1.3 0.25 " stroke="#191919" stroke-width="0.35 px" style="stroke-width:0.35;stroke-miterlimit:4;stroke-dasharray:none;fill:none;fill-opacity:1;fill-rule: evenodd"/>
<path id="Shape2DView_nwe0082"  d="M -0.67 0.2 L -1.27 0.2 " stroke="#191919" stroke-width="0.35 px" style="stroke-width:0.35;stroke-miterlimit:4;stroke-dasharray:none;fill:none;fill-opacity:1;fill-rule: evenodd"/>
<path id="Shape2DView_nwe0083"  d="M -0.67 -0.2 L -0.67 0.2 " stroke="#191919" stroke-width="0.35 px" style="stroke-width:0.35;stroke-miterlimit:4;stroke-dasharray:none;fill:none;fill-opacity:1;fill-rule: evenodd"/>
<path id="Shape2DView_nwe0084"  d="M -1.27 -0.2 L -0.67 -0.2 " stroke="#191919" stroke-width="0.35 px" style="stroke-width:0.35;stroke-miterlimit:4;stroke-dasharray:none;fill:none;fill-opacity:1;fill-rule: evenodd"/>
<path id="Shape2DView_nwe0085"  d="M -1.27 0.2 L -1.27 -0.2 " stroke="#191919" stroke-width="0.35 px" style="stroke-width:0.35;stroke-miterlimit:4;stroke-dasharray:none;fill:none;fill-opacity:1;fill-rule: evenodd"/>
<path id="Shape2DView_nwe0086"  d="M 0.71 0.8 L 0.71 0.7996856104946621 L 0.71 0.7987463956090912 L 0.71 0.7971941665154184 L 0.71 0.7950484433951209 L 0.71 0.7923362099614142 L 0.71 0.7890915741234015 L 0.71 0.7853553390593274 L 0.71 0.7811744900929367 L 0.71 0.7766016038257668 L 0.71 0.7716941869558779 L 0.71 0.7665139530977584 L 0.71 0.7611260466978157 L 0.71 0.7555982238051654 L 0.71 0.75 " stroke="#191919" stroke-width="0.35 px" style="stroke-width:0.35;stroke-miterlimit:4;stroke-dasharray:none;fill:none;fill-opacity:1;fill-rule: evenodd"/>
<path id="Shape2DView_nwe0087"  d="M 0.28 0.8 L 0.28 0.7996856104946621 L 0.28 0.7987463956090912 L 0.28 0.7971941665154184 L 0.28 0.7950484433951209 L 0.28 0.7923362099614142 L 0.28 0.7890915741234015 L 0.28 0.7853553390593274 L 0.28 0.7811744900929367 L 0.28 0.7766016038257668 L 0.28 0.7716941869558779 L 0.28 0.7665139530977584 L 0.28 0.7611260466978157 L 0.28 0.7555982238051654 L 0.28 0.75 " stroke="#191919" stroke-width="0.35 px" style="stroke-width:0.35;stroke-miterlimit:4;stroke-dasharray:none;fill:none;fill-opacity:1;fill-rule: evenodd"/>
<path id="Shape2DView_nwe0088"  d="M 1.27 -0.8 L 1.27 -0.7996856104946621 L 1.27 -0.7987463956090912 L 1.27 -0.7971941665154184 L 1.27 -0.7950484433951209 L 1.27 -0.7923362099614142 L 1.27 -0.7890915741234015 L 1.27 -0.7853553390593274 L 1.27 -0.7811744900929367 L 1.27 -0.7766016038257668 L 1.27 -0.7716941869558779 L 1.27 -0.7665139530977584 L 1.27 -0.7611260466978157 L 1.27 -0.7555982238051654 L 1.27 -0.75 " stroke="#191919" stroke-width="0.35 px" style="stroke-width:0.35;stroke-miterlimit:4;stroke-dasharray:none;fill:none;fill-opacity:1;fill-rule: evenodd"/>
<path id="Shape2DView_nwe0089"  d="M -0.28 0.8 L -0.28 0.7996856104946621 L -0.28 0.7987463956090912 L -0.28 0.7971941665154184 L -0.28 0.7950484433951209 L -0.28 0.7923362099614142 L -0.28 0.7890915741234015 L -0.28 0.7853553390593274 L -0.28 0.7811744900929367 L -0.28 0.7766016038257668 L -0.28 0.7716941869558779 L -0.28 0.7665139530977584 L -0.28 0.7611260466978157 L -0.28 0.7555982238051654 L -0.28 0.75 " stroke="#191919" stroke-width="0.35 px" style="stroke-width:0.35;stroke-miterlimit:4;stroke-dasharray:none;fill:none;fill-opacity:1;fill-rule: evenodd"/>
<path id="Shape2DView_nwe0090"  d="M -0.71 0.8 L -0.71 0.7996856104946621 L -0.71 0.7987463956090912 L -0.71 0.7971941665154184 L -0.71 0.7950484433951209 L -0.71 0.7923362099614142 L -0.71 0.7890915741234015 L -0.71 0.7853553390593274 L -0.71 0.7811744900929367 L -0.71 0.7766016038257668 L -0.71 0.7716941869558779 L -0.71 0.7665139530977584 L -0.71 0.7611260466978157 L -0.71 0.7555982238051654 L -0.71 0.75 " stroke="#191919" stroke-width="0.35 px" style="stroke-width:0.35;stroke-miterlimit:4;stroke-dasharray:none;fill:none;fill-opacity:1;fill-rule: evenodd"/>
<path id="Shape2DView_nwe0091"  d="M 0.28 -0.8 L 0.28 -0.7996856104946621 L 0.28 -0.7987463956090912 L 0.28 -0.7971941665154184 L 0.28 -0.7950484433951209 L 0.28 -0.7923362099614142 L 0.28 -0.7890915741234015 L 0.28 -0.7853553390593274 L 0.28 -0.7811744900929367 L 0.28 -0.7766016038257668 L 0.28 -0.7716941869558779 L 0.28 -0.7665139530977584 L 0.28 -0.7611260466978157 L 0.28 -0.7555982238051654 L 0.28 -0.75 " stroke="#191919" stroke-width="0.35 px" style="stroke-width:0.35;stroke-miterlimit:4;stroke-dasharray:none;fill:none;fill-opacity:1;fill-rule: evenodd"/>
<path id="Shape2DView_nwe0092"  d="M 0.71 -0.8 L 0.71 -0.7996856104946621 L 0.71 -0.7987463956090912 L 0.71 -0.7971941665154184 L 0.71 -0.7950484433951209 L 0.71 -0.7923362099614142 L 0.71 -0.7890915741234015 L 0.71 -0.7853553390593274 L 0.71 -0.7811744900929367 L 0.71 -0.7766016038257668 L 0.71 -0.7716941869558779 L 0.71 -0.7665139530977584 L 0.71 -0.7611260466978157 L 0.71 -0.7555982238051654 L 0.71 -0.75 " stroke="#191919" stroke-width="0.35 px" style="stroke-width:0.35;stroke-miterlimit:4;stroke-dasharray:none;fill:none;fill-opacity:1;fill-rule: evenodd"/>
<path id="Shape2DView_nwe0093"  d="M -1.27 0.8 L -1.27 0.7996856104946621 L -1.27 0.7987463956090912 L -1.27 0.7971941665154184 L -1.27 0.7950484433951209 L -1.27 0.7923362099614142 L -1.27 0.7890915741234015 L -1.27 0.7853553390593274 L -1.27 0.7811744900929367 L -1.27 0.7766016038257668 L -1.27 0.7716941869558779 L -1.27 0.7665139530977584 L -1.27 0.7611260466978157 L -1.27 0.7555982238051654 L -1.27 0.75 " stroke="#191919" stroke-width="0.35 px" style="stroke-width:0.35;stroke-miterlimit:4;stroke-dasharray:none;fill:none;fill-opacity:1;fill-rule: evenodd"/>
<path id="Shape2DView_nwe0094"  d="M -1.6 0.25 L -1.5996856104946622 0.25 L -1.5987463956090913 0.25 L -1.5971941665154183 0.25 L -1.595048443395121 0.25 L -1.5923362099614142 0.25 L -1.5890915741234015 0.25 L -1.5853553390593274 0.25 L -1.5811744900929368 0.25 L -1.5766016038257669 0.25 L -1.571694186955878 0.25 L -1.5665139530977583 0.25 L -1.5611260466978159 0.25 L -1.5555982238051655 0.25 L -1.55 0.25 " stroke="#191919" stroke-width="0.35 px" style="stroke-width:0.35;stroke-miterlimit:4;stroke-dasharray:none;fill:none;fill-opacity:1;fill-rule: evenodd"/>
<path id="Shape2DView_nwe0095"  d="M -0.71 -0.8 L -0.71 -0.7996856104946621 L -0.71 -0.7987463956090912 L -0.71 -0.7971941665154184 L -0.71 -0.7950484433951209 L -0.71 -0.7923362099614142 L -0.71 -0.7890915741234015 L -0.71 -0.7853553390593274 L -0.71 -0.7811744900929367 L -0.71 -0.7766016038257668 L -0.71 -0.7716941869558779 L -0.71 -0.7665139530977584 L -0.71 -0.7611260466978157 L -0.71 -0.7555982238051654 L -0.71 -0.75 " stroke="#191919" stroke-width="0.35 px" style="stroke-width:0.35;stroke-miterlimit:4;stroke-dasharray:none;fill:none;fill-opacity:1;fill-rule: evenodd"/>
<path id="Shape2DView_nwe0096"  d="M -0.28 -0.8 L -0.28 -0.7996856104946621 L -0.28 -0.7987463956090912 L -0.28 -0.7971941665154184 L -0.28 -0.7950484433951209 L -0.28 -0.7923362099614142 L -0.28 -0.7890915741234015 L -0.28 -0.7853553390593274 L -0.28 -0.7811744900929367 L -0.28 -0.7766016038257668 L -0.28 -0.7716941869558779 L -0.28 -0.7665139530977584 L -0.28 -0.7611260466978157 L -0.28 -0.7555982238051654 L -0.28 -0.75 " stroke="#191919" stroke-width="0.35 px" style="stroke-width:0.35;stroke-miterlimit:4;stroke-dasharray:none;fill:none;fill-opacity:1;fill-rule: evenodd"/>
<path id="Shape2DView_nwe0097"  d="M -1.6 -0.25 L -1.5996856104946622 -0.25 L -1.5987463956090913 -0.25 L -1.5971941665154183 -0.25 L -1.595048443395121 -0.25 L -1.5923362099614142 -0.25 L -1.5890915741234015 -0.25 L -1.5853553390593274 -0.25 L -1.5811744900929368 -0.25 L -1.5766016038257669 -0.25 L -1.571694186955878 -0.25 L -1.5665139530977583 -0.25 L -1.5611260466978159 -0.25 L -1.5555982238051655 -0.25 L -1.55 -0.25 " stroke="#191919" stroke-width="0.35 px" style="stroke-width:0.35;stroke-miterlimit:4;stroke-dasharray:none;fill:none;fill-opacity:1;fill-rule: evenodd"/>
<path id="Shape2DView_nwe0098"  d="M -1.27 -0.8 L -1.27 -0.7996856104946621 L -1.27 -0.7987463956090912 L -1.27 -0.7971941665154184 L -1.27 -0.7950484433951209 L -1.27 -0.7923362099614142 L -1.27 -0.7890915741234015 L -1.27 -0.7853553390593274 L -1.27 -0.7811744900929367 L -1.27 -0.7766016038257668 L -1.27 -0.7716941869558779 L -1.27 -0.7665139530977584 L -1.27 -0.7611260466978157 L -1.27 -0.7555982238051654 L -1.27 -0.75 " stroke="#191919" stroke-width="0.35 px" style="stroke-width:0.35;stroke-miterlimit:4;stroke-dasharray:none;fill:none;fill-opacity:1;fill-rule: evenodd"/>
<title>b'Shape2DView'</title>
</g>
<g id="Rectangle" transform="translate(1.632000,1.032000) scale(1,-1)">
<rect fill="#ff0000" id="origin" width="1" height="1" x="0" y="0" />
<title>b'Rectangle'</title>
</g>
</svg>