<?xml version="1.0"?>
<!DOCTYPE svg PUBLIC "-//W3C//DTD SVG 1.1//EN" "http://www.w3.org/Graphics/SVG/1.1/DTD/svg11.dtd">
<svg width="19.380000000000003mm" height="15.58mm" viewBox="0 0 19.380000000000003 15.58" xmlns="http://www.w3.org/2000/svg" version="1.1">
<g id="Shape2DView" transform="translate(1.590000,7.790000) scale(1,-1)">
<path id="Shape2DView_nwe0000"  d="M -1.15 7.6 L 17.35 7.6 " stroke="#191919" stroke-width="0.35 px" style="stroke-width:0.35;stroke-miterlimit:4;stroke-dasharray:none;fill:none;fill-opacity:1;fill-rule: evenodd"/>
<path id="Shape2DView_nwe0001"  d="M 17.6 7.35 L 17.6 -7.35 " stroke="#191919" stroke-width="0.35 px" style="stroke-width:0.35;stroke-miterlimit:4;stroke-dasharray:none;fill:none;fill-opacity:1;fill-rule: evenodd"/>
<path id="Shape2DView_nwe0002"  d="M -1.4 -7.35 L -1.4 7.35 " stroke="#191919" stroke-width="0.35 px" style="stroke-width:0.35;stroke-miterlimit:4;stroke-dasharray:none;fill:none;fill-opacity:1;fill-rule: evenodd"/>
<path id="Shape2DView_nwe0003"  d="M 17.35 -7.6 L -1.1499999999999986 -7.6 " stroke="#191919" stroke-width="0.35 px" style="stroke-width:0.35;stroke-miterlimit:4;stroke-dasharray:none;fill:none;fill-opacity:1;fill-rule: evenodd"/>
<path id="Shape2DView_nwe0004"  d="M 17.35 7.6 A 0.25 0.25 0 0 0 17.6 7.35" stroke="#191919" stroke-width="0.35 px" style="stroke-width:0.35;stroke-miterlimit:4;stroke-dasharray:none;fill:none;fill-opacity:1;fill-rule: evenodd"/>
<path id="Shape2DView_nwe0005"  d="M -1.4 7.35 A 0.25 0.25 0 0 0 -1.15 7.6" stroke="#191919" stroke-width="0.35 px" style="stroke-width:0.35;stroke-miterlimit:4;stroke-dasharray:none;fill:none;fill-opacity:1;fill-rule: evenodd"/>
<path id="Shape2DView_nwe0006"  d="M 17.6 -7.35 A 0.25 0.25 0 0 0 17.35 -7.6" stroke="#191919" stroke-width="0.35 px" style="stroke-width:0.35;stroke-miterlimit:4;stroke-dasharray:none;fill:none;fill-opacity:1;fill-rule: evenodd"/>
<path id="Shape2DView_nwe0007"  d="M -1.1500000000000004 -7.6 A 0.25 0.25 0 0 0 -1.4 -7.35" stroke="#191919" stroke-width="0.35 px" style="stroke-width:0.35;stroke-miterlimit:4;stroke-dasharray:none;fill:none;fill-opacity:1;fill-rule: evenodd"/>
<path id="Shape2DView_nwe0009"  d="M -1.15 7.35 L 17.35 7.35 " stroke="#191919" stroke-width="0.35 px" style="stroke-width:0.35;stroke-miterlimit:4;stroke-dasharray:none;fill:none;fill-opacity:1;fill-rule: evenodd"/>
<path id="Shape2DView_nwe0010"  d="M 17.35 7.35 L 17.35 7.377991119025826 L 17.35 7.405630233489078 L 17.35 7.4325697654887914 L 17.35 7.458470934779389 L 17.35 7.4830080191288335 L 17.35 7.505872450464683 L 17.35 7.526776695296636 L 17.35 7.545457870617007 L 17.35 7.561681049807071 L 17.35 7.575242216975605 L 17.35 7.585970832577091 L 17.35 7.593731978045455 L 17.35 7.59842805247331 L 17.35 7.6 " stroke="#191919" stroke-width="0.35 px" style="stroke-width:0.35;stroke-miterlimit:4;stroke-dasharray:none;fill:none;fill-opacity:1;fill-rule: evenodd"/>
<path id="Shape2DView_nwe0011"  d="M -1.15 7.35 L -1.15 7.377991119025826 L -1.15 7.405630233489078 L -1.15 7.4325697654887914 L -1.15 7.458470934779389 L -1.15 7.4830080191288335 L -1.15 7.505872450464683 L -1.15 7.526776695296636 L -1.15 7.545457870617007 L -1.15 7.561681049807071 L -1.15 7.575242216975605 L -1.15 7.585970832577091 L -1.15 7.593731978045455 L -1.15 7.59842805247331 L -1.15 7.6 " stroke="#191919" stroke-width="0.35 px" style="stroke-width:0.35;stroke-miterlimit:4;stroke-dasharray:none;fill:none;fill-opacity:1;fill-rule: evenodd"/>
<path id="Shape2DView_nwe0013"  d="M 17.35 7.35 L 17.35 -7.35 " stroke="#191919" stroke-width="0.35 px" style="stroke-width:0.35;stroke-miterlimit:4;stroke-dasharray:none;fill:none;fill-opacity:1;fill-rule: evenodd"/>
<path id="Shape2DView_nwe0014"  d="M 17.35 -7.35 L 17.37799111902583 -7.35 L 17.40563023348908 -7.35 L 17.432569765488793 -7.35 L 17.458470934779392 -7.35 L 17.483008019128835 -7.35 L 17.505872450464686 -7.35 L 17.52677669529664 -7.35 L 17.54545787061701 -7.35 L 17.561681049807074 -7.35 L 17.575242216975607 -7.35 L 17.585970832577093 -7.35 L 17.593731978045458 -7.35 L 17.598428052473313 -7.35 L 17.6 -7.35 " stroke="#191919" stroke-width="0.35 px" style="stroke-width:0.35;stroke-miterlimit:4;stroke-dasharray:none;fill:none;fill-opacity:1;fill-rule: evenodd"/>
<path id="Shape2DView_nwe0015"  d="M 17.35 7.35 L 17.37799111902583 7.35 L 17.40563023348908 7.35 L 17.432569765488793 7.35 L 17.458470934779392 7.35 L 17.483008019128835 7.35 L 17.505872450464686 7.35 L 17.52677669529664 7.35 L 17.54545787061701 7.35 L 17.561681049807074 7.35 L 17.575242216975607 7.35 L 17.585970832577093 7.35 L 17.593731978045458 7.35 L 17.598428052473313 7.35 L 17.6 7.35 " stroke="#191919" stroke-width="0.35 px" style="stroke-width:0.35;stroke-miterlimit:4;stroke-dasharray:none;fill:none;fill-opacity:1;fill-rule: evenodd"/>
<path id="Shape2DView_nwe0017"  d="M -1.15 -7.35 L -1.15 7.35 " stroke="#191919" stroke-width="0.35 px" style="stroke-width:0.35;stroke-miterlimit:4;stroke-dasharray:none;fill:none;fill-opacity:1;fill-rule: evenodd"/>
<path id="Shape2DView_nwe0018"  d="M -1.15 7.35 L -1.177991119025827 7.35 L -1.2056302334890785 7.35 L -1.2325697654887917 7.35 L -1.2584709347793894 7.35 L -1.283008019128834 7.35 L -1.3058724504646833 7.35 L -1.3267766952966369 7.35 L -1.3454578706170073 7.35 L -1.3616810498070708 7.35 L -1.3752422169756047 7.35 L -1.3859708325770919 7.35 L -1.3937319780454558 7.35 L -1.3984280524733106 7.35 L -1.4 7.35 " stroke="#191919" stroke-width="0.35 px" style="stroke-width:0.35;stroke-miterlimit:4;stroke-dasharray:none;fill:none;fill-opacity:1;fill-rule: evenodd"/>
<path id="Shape2DView_nwe0019"  d="M -1.15 -7.35 L -1.1779911190258268 -7.35 L -1.2056302334890785 -7.35 L -1.2325697654887917 -7.35 L -1.2584709347793894 -7.35 L -1.283008019128834 -7.35 L -1.3058724504646833 -7.35 L -1.3267766952966367 -7.349999999999999 L -1.3454578706170073 -7.349999999999999 L -1.3616810498070708 -7.349999999999999 L -1.3752422169756047 -7.349999999999999 L -1.3859708325770919 -7.349999999999999 L -1.3937319780454558 -7.349999999999999 L -1.3984280524733106 -7.349999999999999 L -1.4 -7.349999999999999 " stroke="#191919" stroke-width="0.35 px" style="stroke-width:0.35;stroke-miterlimit:4;stroke-dasharray:none;fill:none;fill-opacity:1;fill-rule: evenodd"/>
<path id="Shape2DView_nwe0021"  d="M 17.35 -7.35 L -1.1499999999999986 -7.35 " stroke="#191919" stroke-width="0.35 px" style="stroke-width:0.35;stroke-miterlimit:4;stroke-dasharray:none;fill:none;fill-opacity:1;fill-rule: evenodd"/>
<path id="Shape2DView_nwe0022"  d="M -1.15 -7.35 L -1.15 -7.377991119025826 L -1.15 -7.405630233489078 L -1.15 -7.4325697654887914 L -1.15 -7.458470934779389 L -1.15 -7.4830080191288335 L -1.15 -7.505872450464683 L -1.15 -7.526776695296636 L -1.15 -7.545457870617007 L -1.15 -7.561681049807071 L -1.15 -7.575242216975605 L -1.15 -7.585970832577091 L -1.15 -7.593731978045455 L -1.15 -7.59842805247331 L -1.15 -7.6 " stroke="#191919" stroke-width="0.35 px" style="stroke-width:0.35;stroke-miterlimit:4;stroke-dasharray:none;fill:none;fill-opacity:1;fill-rule: evenodd"/>
<path id="Shape2DView_nwe0023"  d="M 17.35 -7.35 L 17.35 -7.377991119025826 L 17.35 -7.405630233489078 L 17.35 -7.4325697654887914 L 17.35 -7.458470934779389 L 17.35 -7.4830080191288335 L 17.35 -7.5058724504646825 L 17.35 -7.526776695296636 L 17.35 -7.545457870617007 L 17.35 -7.561681049807071 L 17.35 -7.575242216975605 L 17.35 -7.585970832577091 L 17.35 -7.593731978045455 L 17.35 -7.59842805247331 L 17.35 -7.6 " stroke="#191919" stroke-width="0.35 px" style="stroke-width:0.35;stroke-miterlimit:4;stroke-dasharray:none;fill:none;fill-opacity:1;fill-rule: evenodd"/>
<title>b'Shape2DView'</title>
</g>
<g id="Rectangle" transform="translate(1.590000,7.790000) scale(1,-1)">
<rect fill="#ff0000" id="origin" width="1" height="1" x="0" y="0" />
<title>b'Rectangle'</title>
</g>
</svg>