<?xml version="1.0"?>
<!DOCTYPE svg PUBLIC "-//W3C//DTD SVG 1.1//EN" "http://www.w3.org/Graphics/SVG/1.1/DTD/svg11.dtd">
<svg width="28.560000000000002mm" height="16.41mm" viewBox="0 0 28.560000000000002 16.41" xmlns="http://www.w3.org/2000/svg" version="1.1">
<g id="Shape2DView" transform="translate(5.130000,15.880000) scale(1,-1)">
<path id="Shape2DView_nwe0000"  d="M -3.5 -0.25 L -3.5 -0.24874244197864853 L -3.5 -0.24498558243636476 L -3.5 -0.23877666606167353 L -3.5 -0.23019377358048382 L -3.5 -0.21934483984565684 L -3.5 -0.206366296493606 L -3.5 -0.19142135623730955 L -3.5 -0.17469796037174673 L -3.5 -0.15640641530306734 L -3.5 -0.13677674782351165 L -3.5 -0.11605581239103345 L -3.5 -0.0945041867912629 L -3.5 -0.0723928952206616 L -3.5 -0.05000000000000003 " stroke="#191919" stroke-width="0.35 px" style="stroke-width:0.35;stroke-miterlimit:4;stroke-dasharray:none;fill:none;fill-opacity:1;fill-rule: evenodd"/>
<path id="Shape2DView_nwe0001"  d="M -4.0 -0.25 L -4.0 -0.24874244197864853 L -4.0 -0.24498558243636476 L -4.0 -0.23877666606167353 L -4.0 -0.23019377358048382 L -4.0 -0.21934483984565684 L -4.0 -0.206366296493606 L -4.0 -0.19142135623730955 L -4.0 -0.17469796037174673 L -4.0 -0.15640641530306734 L -4.0 -0.13677674782351165 L -4.0 -0.11605581239103345 L -4.0 -0.0945041867912629 L -4.0 -0.0723928952206616 L -4.0 -0.05000000000000003 " stroke="#191919" stroke-width="0.35 px" style="stroke-width:0.35;stroke-miterlimit:4;stroke-dasharray:none;fill:none;fill-opacity:1;fill-rule: evenodd"/>
<path id="Shape2DView_nwe0002"  d="M -3.5 -0.25 L -4.0 -0.25 " stroke="#191919" stroke-width="0.35 px" style="stroke-width:0.35;stroke-miterlimit:4;stroke-dasharray:none;fill:none;fill-opacity:1;fill-rule: evenodd"/>
<path id="Shape2DView_nwe0003"  d="M -3.5 -2.220446049250313e-16 L -3.5 -0.04999999999999999 " stroke="#191919" stroke-width="0.35 px" style="stroke-width:0.35;stroke-miterlimit:4;stroke-dasharray:none;fill:none;fill-opacity:1;fill-rule: evenodd"/>
<path id="Shape2DView_nwe0004"  d="M -4.0 -0.04999999999999999 L -4.0 -2.220446049250313e-16 " stroke="#191919" stroke-width="0.35 px" style="stroke-width:0.35;stroke-miterlimit:4;stroke-dasharray:none;fill:none;fill-opacity:1;fill-rule: evenodd"/>
<path id="Shape2DView_nwe0005"  d="M -3.5 0.25 L -3.5 -2.220446049250313e-16 " stroke="#191919" stroke-width="0.35 px" style="stroke-width:0.35;stroke-miterlimit:4;stroke-dasharray:none;fill:none;fill-opacity:1;fill-rule: evenodd"/>
<path id="Shape2DView_nwe0006"  d="M -4.0 0.25 L -4.0 -2.220446049250313e-16 " stroke="#191919" stroke-width="0.35 px" style="stroke-width:0.35;stroke-miterlimit:4;stroke-dasharray:none;fill:none;fill-opacity:1;fill-rule: evenodd"/>
<path id="Shape2DView_nwe0007"  d="M -3.5 0.6 L -3.5 0.25 " stroke="#191919" stroke-width="0.35 px" style="stroke-width:0.35;stroke-miterlimit:4;stroke-dasharray:none;fill:none;fill-opacity:1;fill-rule: evenodd"/>
<path id="Shape2DView_nwe0008"  d="M -4.0 0.6 L -4.0 0.25 " stroke="#191919" stroke-width="0.35 px" style="stroke-width:0.35;stroke-miterlimit:4;stroke-dasharray:none;fill:none;fill-opacity:1;fill-rule: evenodd"/>
<path id="Shape2DView_nwe0009"  d="M 23.15 0.6 L -4.850000000000001 0.6 " stroke="#191919" stroke-width="0.35 px" style="stroke-width:0.35;stroke-miterlimit:4;stroke-dasharray:none;fill:none;fill-opacity:1;fill-rule: evenodd"/>
<path id="Shape2DView_nwe0010"  d="M 23.15 0.6 L 23.15 14.6 " stroke="#191919" stroke-width="0.35 px" style="stroke-width:0.35;stroke-miterlimit:4;stroke-dasharray:none;fill:none;fill-opacity:1;fill-rule: evenodd"/>
<path id="Shape2DView_nwe0011"  d="M -4.85 0.6 L -4.85 14.6 " stroke="#191919" stroke-width="0.35 px" style="stroke-width:0.35;stroke-miterlimit:4;stroke-dasharray:none;fill:none;fill-opacity:1;fill-rule: evenodd"/>
<path id="Shape2DView_nwe0012"  d="M 22.15 15.6 A 1 1 0 0 0 23.15 14.6" stroke="#191919" stroke-width="0.35 px" style="stroke-width:0.35;stroke-miterlimit:4;stroke-dasharray:none;fill:none;fill-opacity:1;fill-rule: evenodd"/>
<path id="Shape2DView_nwe0013"  d="M 22.15 15.6 L 17.35 15.6 " stroke="#191919" stroke-width="0.35 px" style="stroke-width:0.35;stroke-miterlimit:4;stroke-dasharray:none;fill:none;fill-opacity:1;fill-rule: evenodd"/>
<path id="Shape2DView_nwe0014"  d="M 17.35 15.6 L 17.35 13.6 " stroke="#191919" stroke-width="0.35 px" style="stroke-width:0.35;stroke-miterlimit:4;stroke-dasharray:none;fill:none;fill-opacity:1;fill-rule: evenodd"/>
<path id="Shape2DView_nwe0015"  d="M 16.35 13.6 L 17.35 13.6 " stroke="#191919" stroke-width="0.35 px" style="stroke-width:0.35;stroke-miterlimit:4;stroke-dasharray:none;fill:none;fill-opacity:1;fill-rule: evenodd"/>
<path id="Shape2DView_nwe0016"  d="M 16.35 15.6 L 16.35 13.6 " stroke="#191919" stroke-width="0.35 px" style="stroke-width:0.35;stroke-miterlimit:4;stroke-dasharray:none;fill:none;fill-opacity:1;fill-rule: evenodd"/>
<path id="Shape2DView_nwe0017"  d="M 16.35 15.6 L 15.35 15.6 " stroke="#191919" stroke-width="0.35 px" style="stroke-width:0.35;stroke-miterlimit:4;stroke-dasharray:none;fill:none;fill-opacity:1;fill-rule: evenodd"/>
<path id="Shape2DView_nwe0018"  d="M 15.35 15.6 L 15.35 13.6 " stroke="#191919" stroke-width="0.35 px" style="stroke-width:0.35;stroke-miterlimit:4;stroke-dasharray:none;fill:none;fill-opacity:1;fill-rule: evenodd"/>
<path id="Shape2DView_nwe0019"  d="M 14.35 13.6 L 15.35 13.6 " stroke="#191919" stroke-width="0.35 px" style="stroke-width:0.35;stroke-miterlimit:4;stroke-dasharray:none;fill:none;fill-opacity:1;fill-rule: evenodd"/>
<path id="Shape2DView_nwe0020"  d="M 14.35 15.6 L 14.35 13.6 " stroke="#191919" stroke-width="0.35 px" style="stroke-width:0.35;stroke-miterlimit:4;stroke-dasharray:none;fill:none;fill-opacity:1;fill-rule: evenodd"/>
<path id="Shape2DView_nwe0021"  d="M 14.35 15.6 L -3.8500000000000014 15.6 " stroke="#191919" stroke-width="0.35 px" style="stroke-width:0.35;stroke-miterlimit:4;stroke-dasharray:none;fill:none;fill-opacity:1;fill-rule: evenodd"/>
<path id="Shape2DView_nwe0022"  d="M -3.85 15.6 A 1 1 0 0 1 -4.85 14.6" stroke="#191919" stroke-width="0.35 px" style="stroke-width:0.35;stroke-miterlimit:4;stroke-dasharray:none;fill:none;fill-opacity:1;fill-rule: evenodd"/>
<path id="Shape2DView_nwe0023"  d="M -0.25 0.6 L -0.25 0.25 " stroke="#191919" stroke-width="0.35 px" style="stroke-width:0.35;stroke-miterlimit:4;stroke-dasharray:none;fill:none;fill-opacity:1;fill-rule: evenodd"/>
<path id="Shape2DView_nwe0024"  d="M 0.25 0.6 L 0.25 0.25 " stroke="#191919" stroke-width="0.35 px" style="stroke-width:0.35;stroke-miterlimit:4;stroke-dasharray:none;fill:none;fill-opacity:1;fill-rule: evenodd"/>
<path id="Shape2DView_nwe0025"  d="M 15.75 0.6 L 15.75 0.19999999999999996 " stroke="#191919" stroke-width="0.35 px" style="stroke-width:0.35;stroke-miterlimit:4;stroke-dasharray:none;fill:none;fill-opacity:1;fill-rule: evenodd"/>
<path id="Shape2DView_nwe0026"  d="M 16.75 0.6 L 16.75 0.19999999999999996 " stroke="#191919" stroke-width="0.35 px" style="stroke-width:0.35;stroke-miterlimit:4;stroke-dasharray:none;fill:none;fill-opacity:1;fill-rule: evenodd"/>
<path id="Shape2DView_nwe0027"  d="M 10.75 0.6 L 10.75 0.19999999999999996 " stroke="#191919" stroke-width="0.35 px" style="stroke-width:0.35;stroke-miterlimit:4;stroke-dasharray:none;fill:none;fill-opacity:1;fill-rule: evenodd"/>
<path id="Shape2DView_nwe0028"  d="M 11.75 0.6 L 11.75 0.19999999999999996 " stroke="#191919" stroke-width="0.35 px" style="stroke-width:0.35;stroke-miterlimit:4;stroke-dasharray:none;fill:none;fill-opacity:1;fill-rule: evenodd"/>
<path id="Shape2DView_nwe0029"  d="M 20.75 0.6 L 20.75 0.19999999999999996 " stroke="#191919" stroke-width="0.35 px" style="stroke-width:0.35;stroke-miterlimit:4;stroke-dasharray:none;fill:none;fill-opacity:1;fill-rule: evenodd"/>
<path id="Shape2DView_nwe0030"  d="M 21.75 0.6 L 21.75 0.19999999999999996 " stroke="#191919" stroke-width="0.35 px" style="stroke-width:0.35;stroke-miterlimit:4;stroke-dasharray:none;fill:none;fill-opacity:1;fill-rule: evenodd"/>
<path id="Shape2DView_nwe0031"  d="M 15.35 15.6 L 14.35 15.6 " stroke="#191919" stroke-width="0.35 px" style="stroke-width:0.35;stroke-miterlimit:4;stroke-dasharray:none;fill:none;fill-opacity:1;fill-rule: evenodd"/>
<path id="Shape2DView_nwe0032"  d="M 17.35 15.6 L 16.35 15.6 " stroke="#191919" stroke-width="0.35 px" style="stroke-width:0.35;stroke-miterlimit:4;stroke-dasharray:none;fill:none;fill-opacity:1;fill-rule: evenodd"/>
<path id="Shape2DView_nwe0033"  d="M -0.25 0.25 L -0.25 -2.220446049250313e-16 " stroke="#191919" stroke-width="0.35 px" style="stroke-width:0.35;stroke-miterlimit:4;stroke-dasharray:none;fill:none;fill-opacity:1;fill-rule: evenodd"/>
<path id="Shape2DView_nwe0034"  d="M 0.25 0.25 L 0.25 -2.220446049250313e-16 " stroke="#191919" stroke-width="0.35 px" style="stroke-width:0.35;stroke-miterlimit:4;stroke-dasharray:none;fill:none;fill-opacity:1;fill-rule: evenodd"/>
<path id="Shape2DView_nwe0035"  d="M 15.75 0.19999999999999996 L 15.75 -2.220446049250313e-16 " stroke="#191919" stroke-width="0.35 px" style="stroke-width:0.35;stroke-miterlimit:4;stroke-dasharray:none;fill:none;fill-opacity:1;fill-rule: evenodd"/>
<path id="Shape2DView_nwe0036"  d="M 16.75 0.19999999999999996 L 16.75 -2.220446049250313e-16 " stroke="#191919" stroke-width="0.35 px" style="stroke-width:0.35;stroke-miterlimit:4;stroke-dasharray:none;fill:none;fill-opacity:1;fill-rule: evenodd"/>
<path id="Shape2DView_nwe0037"  d="M 10.75 0.19999999999999996 L 10.75 -2.220446049250313e-16 " stroke="#191919" stroke-width="0.35 px" style="stroke-width:0.35;stroke-miterlimit:4;stroke-dasharray:none;fill:none;fill-opacity:1;fill-rule: evenodd"/>
<path id="Shape2DView_nwe0038"  d="M 11.75 0.19999999999999996 L 11.75 -2.220446049250313e-16 " stroke="#191919" stroke-width="0.35 px" style="stroke-width:0.35;stroke-miterlimit:4;stroke-dasharray:none;fill:none;fill-opacity:1;fill-rule: evenodd"/>
<path id="Shape2DView_nwe0039"  d="M 20.75 0.19999999999999996 L 20.75 -2.220446049250313e-16 " stroke="#191919" stroke-width="0.35 px" style="stroke-width:0.35;stroke-miterlimit:4;stroke-dasharray:none;fill:none;fill-opacity:1;fill-rule: evenodd"/>
<path id="Shape2DView_nwe0040"  d="M 21.75 0.19999999999999996 L 21.75 -2.220446049250313e-16 " stroke="#191919" stroke-width="0.35 px" style="stroke-width:0.35;stroke-miterlimit:4;stroke-dasharray:none;fill:none;fill-opacity:1;fill-rule: evenodd"/>
<path id="Shape2DView_nwe0041"  d="M 15.35 15.59 L 14.35 15.59 " stroke="#191919" stroke-width="0.35 px" style="stroke-width:0.35;stroke-miterlimit:4;stroke-dasharray:none;fill:none;fill-opacity:1;fill-rule: evenodd"/>
<path id="Shape2DView_nwe0042"  d="M 17.35 15.59 L 16.35 15.59 " stroke="#191919" stroke-width="0.35 px" style="stroke-width:0.35;stroke-miterlimit:4;stroke-dasharray:none;fill:none;fill-opacity:1;fill-rule: evenodd"/>
<path id="Shape2DView_nwe0043"  d="M 0.25 -0.25 L 0.25 -0.24874244197864853 L 0.25 -0.24498558243636476 L 0.25 -0.23877666606167353 L 0.25 -0.23019377358048382 L 0.25 -0.21934483984565684 L 0.25 -0.206366296493606 L 0.25 -0.19142135623730955 L 0.25 -0.17469796037174673 L 0.25 -0.15640641530306734 L 0.25 -0.13677674782351165 L 0.25 -0.11605581239103345 L 0.25 -0.0945041867912629 L 0.25 -0.0723928952206616 L 0.25 -0.05000000000000003 " stroke="#191919" stroke-width="0.35 px" style="stroke-width:0.35;stroke-miterlimit:4;stroke-dasharray:none;fill:none;fill-opacity:1;fill-rule: evenodd"/>
<path id="Shape2DView_nwe0044"  d="M 0.25 -2.220446049250313e-16 L 0.25 -0.04999999999999999 " stroke="#191919" stroke-width="0.35 px" style="stroke-width:0.35;stroke-miterlimit:4;stroke-dasharray:none;fill:none;fill-opacity:1;fill-rule: evenodd"/>
<path id="Shape2DView_nwe0045"  d="M -0.25 -0.25 L -0.25 -0.24874244197864853 L -0.25 -0.24498558243636476 L -0.25 -0.23877666606167353 L -0.25 -0.23019377358048382 L -0.25 -0.21934483984565684 L -0.25 -0.206366296493606 L -0.25 -0.19142135623730955 L -0.25 -0.17469796037174673 L -0.25 -0.15640641530306734 L -0.25 -0.13677674782351165 L -0.25 -0.11605581239103345 L -0.25 -0.0945041867912629 L -0.25 -0.0723928952206616 L -0.25 -0.05000000000000003 " stroke="#191919" stroke-width="0.35 px" style="stroke-width:0.35;stroke-miterlimit:4;stroke-dasharray:none;fill:none;fill-opacity:1;fill-rule: evenodd"/>
<path id="Shape2DView_nwe0046"  d="M -0.25 -0.04999999999999999 L -0.25 -2.220446049250313e-16 " stroke="#191919" stroke-width="0.35 px" style="stroke-width:0.35;stroke-miterlimit:4;stroke-dasharray:none;fill:none;fill-opacity:1;fill-rule: evenodd"/>
<path id="Shape2DView_nwe0047"  d="M 15.75 -0.20000000000000004 L 15.75 -0.19874244197864857 L 15.75 -0.19498558243636477 L 15.75 -0.18877666606167356 L 15.75 -0.18019377358048386 L 15.75 -0.16934483984565687 L 15.75 -0.15636629649360603 L 15.75 -0.14142135623730956 L 15.75 -0.12469796037174675 L 15.75 -0.10640641530306737 L 15.75 -0.08677674782351168 L 15.75 -0.06605581239103347 L 15.75 -0.04450418679126293 L 15.75 -0.022392895220661624 L 15.75 -5.2248511598577064e-17 " stroke="#191919" stroke-width="0.35 px" style="stroke-width:0.35;stroke-miterlimit:4;stroke-dasharray:none;fill:none;fill-opacity:1;fill-rule: evenodd"/>
<path id="Shape2DView_nwe0048"  d="M 16.75 -0.20000000000000004 L 16.75 -0.19874244197864857 L 16.75 -0.19498558243636477 L 16.75 -0.18877666606167356 L 16.75 -0.18019377358048386 L 16.75 -0.16934483984565687 L 16.75 -0.15636629649360603 L 16.75 -0.14142135623730956 L 16.75 -0.12469796037174675 L 16.75 -0.10640641530306737 L 16.75 -0.08677674782351168 L 16.75 -0.06605581239103347 L 16.75 -0.04450418679126293 L 16.75 -0.022392895220661624 L 16.75 -5.2248511598577064e-17 " stroke="#191919" stroke-width="0.35 px" style="stroke-width:0.35;stroke-miterlimit:4;stroke-dasharray:none;fill:none;fill-opacity:1;fill-rule: evenodd"/>
<path id="Shape2DView_nwe0049"  d="M 16.75 -0.2 L 15.75 -0.2 " stroke="#191919" stroke-width="0.35 px" style="stroke-width:0.35;stroke-miterlimit:4;stroke-dasharray:none;fill:none;fill-opacity:1;fill-rule: evenodd"/>
<path id="Shape2DView_nwe0050"  d="M 10.75 -0.20000000000000004 L 10.75 -0.19874244197864857 L 10.75 -0.19498558243636477 L 10.75 -0.18877666606167356 L 10.75 -0.18019377358048386 L 10.75 -0.16934483984565687 L 10.75 -0.15636629649360603 L 10.75 -0.14142135623730956 L 10.75 -0.12469796037174675 L 10.75 -0.10640641530306737 L 10.75 -0.08677674782351168 L 10.75 -0.06605581239103347 L 10.75 -0.04450418679126293 L 10.75 -0.022392895220661624 L 10.75 -5.2248511598577064e-17 " stroke="#191919" stroke-width="0.35 px" style="stroke-width:0.35;stroke-miterlimit:4;stroke-dasharray:none;fill:none;fill-opacity:1;fill-rule: evenodd"/>
<path id="Shape2DView_nwe0051"  d="M 11.75 -0.20000000000000004 L 11.75 -0.19874244197864857 L 11.75 -0.19498558243636477 L 11.75 -0.18877666606167356 L 11.75 -0.18019377358048386 L 11.75 -0.16934483984565687 L 11.75 -0.15636629649360603 L 11.75 -0.14142135623730956 L 11.75 -0.12469796037174675 L 11.75 -0.10640641530306737 L 11.75 -0.08677674782351168 L 11.75 -0.06605581239103347 L 11.75 -0.04450418679126293 L 11.75 -0.022392895220661624 L 11.75 -5.2248511598577064e-17 " stroke="#191919" stroke-width="0.35 px" style="stroke-width:0.35;stroke-miterlimit:4;stroke-dasharray:none;fill:none;fill-opacity:1;fill-rule: evenodd"/>
<path id="Shape2DView_nwe0052"  d="M 11.75 -0.2 L 10.75 -0.2 " stroke="#191919" stroke-width="0.35 px" style="stroke-width:0.35;stroke-miterlimit:4;stroke-dasharray:none;fill:none;fill-opacity:1;fill-rule: evenodd"/>
<path id="Shape2DView_nwe0053"  d="M 20.75 -0.20000000000000004 L 20.75 -0.19874244197864857 L 20.75 -0.19498558243636477 L 20.75 -0.18877666606167356 L 20.75 -0.18019377358048386 L 20.75 -0.16934483984565687 L 20.75 -0.15636629649360603 L 20.75 -0.14142135623730956 L 20.75 -0.12469796037174675 L 20.75 -0.10640641530306737 L 20.75 -0.08677674782351168 L 20.75 -0.06605581239103347 L 20.75 -0.04450418679126293 L 20.75 -0.022392895220661624 L 20.75 -5.2248511598577064e-17 " stroke="#191919" stroke-width="0.35 px" style="stroke-width:0.35;stroke-miterlimit:4;stroke-dasharray:none;fill:none;fill-opacity:1;fill-rule: evenodd"/>
<path id="Shape2DView_nwe0054"  d="M 21.75 -0.20000000000000004 L 21.75 -0.19874244197864857 L 21.75 -0.19498558243636477 L 21.75 -0.18877666606167356 L 21.75 -0.18019377358048386 L 21.75 -0.16934483984565687 L 21.75 -0.15636629649360603 L 21.75 -0.14142135623730956 L 21.75 -0.12469796037174675 L 21.75 -0.10640641530306737 L 21.75 -0.08677674782351168 L 21.75 -0.06605581239103347 L 21.75 -0.04450418679126293 L 21.75 -0.022392895220661624 L 21.75 -5.2248511598577064e-17 " stroke="#191919" stroke-width="0.35 px" style="stroke-width:0.35;stroke-miterlimit:4;stroke-dasharray:none;fill:none;fill-opacity:1;fill-rule: evenodd"/>
<path id="Shape2DView_nwe0055"  d="M 21.75 -0.2 L 20.75 -0.2 " stroke="#191919" stroke-width="0.35 px" style="stroke-width:0.35;stroke-miterlimit:4;stroke-dasharray:none;fill:none;fill-opacity:1;fill-rule: evenodd"/>
<path id="Shape2DView_nwe0056"  d="M 0.25 -0.25 L -0.25 -0.25 " stroke="#191919" stroke-width="0.35 px" style="stroke-width:0.35;stroke-miterlimit:4;stroke-dasharray:none;fill:none;fill-opacity:1;fill-rule: evenodd"/>
<path id="Shape2DView_nwe0057"  d="M -3.5 -0.05 L -4.0 -0.05 " stroke="#191919" stroke-width="0.35 px" style="stroke-width:0.35;stroke-miterlimit:4;stroke-dasharray:none;fill:none;fill-opacity:1;fill-rule: evenodd"/>
<path id="Shape2DView_nwe0058"  d="M 15.75 -1.110223024625e-16 L 16.75 -1.110223024625e-16 " stroke="#191919" stroke-width="0.35 px" style="stroke-width:0.35;stroke-miterlimit:4;stroke-dasharray:none;fill:none;fill-opacity:1;fill-rule: evenodd"/>
<path id="Shape2DView_nwe0059"  d="M 10.75 -1.110223024625e-16 L 11.75 -1.110223024625e-16 " stroke="#191919" stroke-width="0.35 px" style="stroke-width:0.35;stroke-miterlimit:4;stroke-dasharray:none;fill:none;fill-opacity:1;fill-rule: evenodd"/>
<path id="Shape2DView_nwe0060"  d="M 20.75 -1.110223024625e-16 L 21.75 -1.110223024625e-16 " stroke="#191919" stroke-width="0.35 px" style="stroke-width:0.35;stroke-miterlimit:4;stroke-dasharray:none;fill:none;fill-opacity:1;fill-rule: evenodd"/>
<path id="Shape2DView_nwe0061"  d="M 0.25 -0.05 L -0.25 -0.05 " stroke="#191919" stroke-width="0.35 px" style="stroke-width:0.35;stroke-miterlimit:4;stroke-dasharray:none;fill:none;fill-opacity:1;fill-rule: evenodd"/>
<path id="Shape2DView_nwe0062"  d="M -4.0 -1.110223024625e-16 L -3.5 -1.110223024625e-16 " stroke="#191919" stroke-width="0.35 px" style="stroke-width:0.35;stroke-miterlimit:4;stroke-dasharray:none;fill:none;fill-opacity:1;fill-rule: evenodd"/>
<path id="Shape2DView_nwe0063"  d="M -4.0 0.25 L -3.5 0.25 " stroke="#191919" stroke-width="0.35 px" style="stroke-width:0.35;stroke-miterlimit:4;stroke-dasharray:none;fill:none;fill-opacity:1;fill-rule: evenodd"/>
<path id="Shape2DView_nwe0064"  d="M -0.25 0.25 L 0.25 0.25 " stroke="#191919" stroke-width="0.35 px" style="stroke-width:0.35;stroke-miterlimit:4;stroke-dasharray:none;fill:none;fill-opacity:1;fill-rule: evenodd"/>
<path id="Shape2DView_nwe0065"  d="M 15.75 0.2 L 16.75 0.2 " stroke="#191919" stroke-width="0.35 px" style="stroke-width:0.35;stroke-miterlimit:4;stroke-dasharray:none;fill:none;fill-opacity:1;fill-rule: evenodd"/>
<path id="Shape2DView_nwe0066"  d="M 10.75 0.2 L 11.75 0.2 " stroke="#191919" stroke-width="0.35 px" style="stroke-width:0.35;stroke-miterlimit:4;stroke-dasharray:none;fill:none;fill-opacity:1;fill-rule: evenodd"/>
<path id="Shape2DView_nwe0067"  d="M 20.75 0.2 L 21.75 0.2 " stroke="#191919" stroke-width="0.35 px" style="stroke-width:0.35;stroke-miterlimit:4;stroke-dasharray:none;fill:none;fill-opacity:1;fill-rule: evenodd"/>
<path id="Shape2DView_nwe0068"  d="M -0.25 -1.110223024625e-16 L 0.25 -1.110223024625e-16 " stroke="#191919" stroke-width="0.35 px" style="stroke-width:0.35;stroke-miterlimit:4;stroke-dasharray:none;fill:none;fill-opacity:1;fill-rule: evenodd"/>
<title>b'Shape2DView'</title>
</g>
<g id="Rectangle" transform="translate(5.130000,15.880000) scale(1,-1)">
<rect fill="#ff0000" id="origin" width="1" height="1" x="0" y="0" />
<title>b'Rectangle'</title>
</g>
</svg>