<?xml version="1.0"?>
<!DOCTYPE svg PUBLIC "-//W3C//DTD SVG 1.1//EN" "http://www.w3.org/Graphics/SVG/1.1/DTD/svg11.dtd">
<svg width="12.546mm" height="7.846mm" viewBox="0 0 12.546 7.846" xmlns="http://www.w3.org/2000/svg" version="1.1">
<g id="Shape2DView" transform="translate(1.193000,1.383000) scale(1,-1)">
<path id="Shape2DView_nwe0000"  d="M -0.82 1.26 L 10.98 1.26 " stroke="#191919" stroke-width="0.35 px" style="stroke-width:0.35;stroke-miterlimit:4;stroke-dasharray:none;fill:none;fill-opacity:1;fill-rule: evenodd"/>
<path id="Shape2DView_nwe0001"  d="M -1.07 -6.09 L -1.07 1.0099999999999998 " stroke="#191919" stroke-width="0.35 px" style="stroke-width:0.35;stroke-miterlimit:4;stroke-dasharray:none;fill:none;fill-opacity:1;fill-rule: evenodd"/>
<path id="Shape2DView_nwe0002"  d="M 11.23 1.01 L 11.23 -6.09 " stroke="#191919" stroke-width="0.35 px" style="stroke-width:0.35;stroke-miterlimit:4;stroke-dasharray:none;fill:none;fill-opacity:1;fill-rule: evenodd"/>
<path id="Shape2DView_nwe0003"  d="M 10.98 -6.34 L -0.8200000000000003 -6.34 " stroke="#191919" stroke-width="0.35 px" style="stroke-width:0.35;stroke-miterlimit:4;stroke-dasharray:none;fill:none;fill-opacity:1;fill-rule: evenodd"/>
<path id="Shape2DView_nwe0004"  d="M -0.82 1.26 A 0.25 0.25 0 0 1 -1.07 1.01" stroke="#191919" stroke-width="0.35 px" style="stroke-width:0.35;stroke-miterlimit:4;stroke-dasharray:none;fill:none;fill-opacity:1;fill-rule: evenodd"/>
<path id="Shape2DView_nwe0005"  d="M 10.98 1.26 A 0.25 0.25 0 0 0 11.23 1.01" stroke="#191919" stroke-width="0.35 px" style="stroke-width:0.35;stroke-miterlimit:4;stroke-dasharray:none;fill:none;fill-opacity:1;fill-rule: evenodd"/>
<circle cx="0.0" cy="0.0" r="0.5" stroke="#191919" stroke-width="0.35 px" style="stroke-width:0.35;stroke-miterlimit:4;stroke-dasharray:none;fill:none"/>
<path id="Shape2DView_nwe0007"  d="M -0.82 -6.34 A 0.25 0.25 0 0 0 -1.07 -6.09" stroke="#191919" stroke-width="0.35 px" style="stroke-width:0.35;stroke-miterlimit:4;stroke-dasharray:none;fill:none;fill-opacity:1;fill-rule: evenodd"/>
<path id="Shape2DView_nwe0008"  d="M 11.23 -6.09 A 0.25 0.25 0 0 0 10.98 -6.34" stroke="#191919" stroke-width="0.35 px" style="stroke-width:0.35;stroke-miterlimit:4;stroke-dasharray:none;fill:none;fill-opacity:1;fill-rule: evenodd"/>
<path id="Shape2DView_nwe0011"  d="M -0.82 1.01 L -0.82 1.0379911190258269 L -0.82 1.0656302334890786 L -0.82 1.0925697654887918 L -0.82 1.1184709347793895 L -0.82 1.143008019128834 L -0.82 1.1658724504646834 L -0.82 1.1867766952966368 L -0.82 1.2054578706170074 L -0.82 1.221681049807071 L -0.82 1.2352422169756048 L -0.82 1.245970832577092 L -0.82 1.2537319780454559 L -0.82 1.2584280524733107 L -0.82 1.26 " stroke="#191919" stroke-width="0.35 px" style="stroke-width:0.35;stroke-miterlimit:4;stroke-dasharray:none;fill:none;fill-opacity:1;fill-rule: evenodd"/>
<path id="Shape2DView_nwe0012"  d="M -0.82 1.01 L 10.98 1.01 " stroke="#191919" stroke-width="0.35 px" style="stroke-width:0.35;stroke-miterlimit:4;stroke-dasharray:none;fill:none;fill-opacity:1;fill-rule: evenodd"/>
<path id="Shape2DView_nwe0013"  d="M 10.98 1.01 L 10.98 1.0379911190258269 L 10.98 1.0656302334890786 L 10.98 1.0925697654887918 L 10.98 1.1184709347793895 L 10.98 1.143008019128834 L 10.98 1.1658724504646834 L 10.98 1.1867766952966368 L 10.98 1.2054578706170074 L 10.98 1.221681049807071 L 10.98 1.2352422169756048 L 10.98 1.245970832577092 L 10.98 1.2537319780454559 L 10.98 1.2584280524733107 L 10.98 1.26 " stroke="#191919" stroke-width="0.35 px" style="stroke-width:0.35;stroke-miterlimit:4;stroke-dasharray:none;fill:none;fill-opacity:1;fill-rule: evenodd"/>
<path id="Shape2DView_nwe0016"  d="M -0.82 1.01 L -0.8479911190258269 1.01 L -0.8756302334890785 1.01 L -0.9025697654887916 1.01 L -0.9284709347793895 1.01 L -0.953008019128834 1.01 L -0.9758724504646833 1.01 L -0.9967766952966368 1.01 L -1.0154578706170074 1.01 L -1.031681049807071 1.01 L -1.0452422169756046 1.01 L -1.0559708325770918 1.01 L -1.063731978045456 1.01 L -1.0684280524733105 1.01 L -1.0699999999999998 1.01 " stroke="#191919" stroke-width="0.35 px" style="stroke-width:0.35;stroke-miterlimit:4;stroke-dasharray:none;fill:none;fill-opacity:1;fill-rule: evenodd"/>
<path id="Shape2DView_nwe0017"  d="M 10.98 1.01 L 11.007991119025828 1.01 L 11.035630233489078 1.01 L 11.062569765488792 1.01 L 11.088470934779389 1.01 L 11.113008019128834 1.01 L 11.135872450464683 1.01 L 11.156776695296637 1.01 L 11.175457870617008 1.01 L 11.191681049807071 1.01 L 11.205242216975606 1.01 L 11.215970832577092 1.01 L 11.223731978045457 1.01 L 11.22842805247331 1.01 L 11.23 1.01 " stroke="#191919" stroke-width="0.35 px" style="stroke-width:0.35;stroke-miterlimit:4;stroke-dasharray:none;fill:none;fill-opacity:1;fill-rule: evenodd"/>
<path id="Shape2DView_nwe0018"  d="M 10.98 1.01 L 10.98 -6.09 " stroke="#191919" stroke-width="0.35 px" style="stroke-width:0.35;stroke-miterlimit:4;stroke-dasharray:none;fill:none;fill-opacity:1;fill-rule: evenodd"/>
<path id="Shape2DView_nwe0019"  d="M 10.98 -6.09 L -0.8200000000000003 -6.09 " stroke="#191919" stroke-width="0.35 px" style="stroke-width:0.35;stroke-miterlimit:4;stroke-dasharray:none;fill:none;fill-opacity:1;fill-rule: evenodd"/>
<path id="Shape2DView_nwe0020"  d="M -0.82 -6.09 L -0.82 1.0099999999999998 " stroke="#191919" stroke-width="0.35 px" style="stroke-width:0.35;stroke-miterlimit:4;stroke-dasharray:none;fill:none;fill-opacity:1;fill-rule: evenodd"/>
<path id="Shape2DView_nwe0021"  d="M -0.82 -6.09 L -0.8479911190258269 -6.09 L -0.8756302334890785 -6.09 L -0.9025697654887916 -6.09 L -0.9284709347793895 -6.09 L -0.953008019128834 -6.09 L -0.9758724504646833 -6.09 L -0.9967766952966368 -6.09 L -1.0154578706170074 -6.09 L -1.031681049807071 -6.09 L -1.0452422169756046 -6.09 L -1.0559708325770918 -6.09 L -1.063731978045456 -6.09 L -1.0684280524733105 -6.09 L -1.0699999999999998 -6.09 " stroke="#191919" stroke-width="0.35 px" style="stroke-width:0.35;stroke-miterlimit:4;stroke-dasharray:none;fill:none;fill-opacity:1;fill-rule: evenodd"/>
<path id="Shape2DView_nwe0022"  d="M 10.98 -6.09 L 11.007991119025828 -6.09 L 11.035630233489078 -6.09 L 11.062569765488792 -6.09 L 11.088470934779389 -6.09 L 11.113008019128834 -6.09 L 11.135872450464683 -6.09 L 11.156776695296637 -6.09 L 11.175457870617008 -6.09 L 11.191681049807071 -6.09 L 11.205242216975606 -6.09 L 11.215970832577092 -6.09 L 11.223731978045457 -6.09 L 11.22842805247331 -6.09 L 11.23 -6.09 " stroke="#191919" stroke-width="0.35 px" style="stroke-width:0.35;stroke-miterlimit:4;stroke-dasharray:none;fill:none;fill-opacity:1;fill-rule: evenodd"/>
<path id="Shape2DView_nwe0023"  d="M -0.82 -6.09 L -0.82 -6.1179911190258265 L -0.82 -6.145630233489078 L -0.82 -6.172569765488792 L -0.82 -6.198470934779389 L -0.82 -6.223008019128834 L -0.82 -6.245872450464683 L -0.82 -6.266776695296636 L -0.82 -6.285457870617007 L -0.82 -6.301681049807071 L -0.82 -6.315242216975605 L -0.82 -6.325970832577092 L -0.82 -6.3337319780454555 L -0.82 -6.3384280524733105 L -0.82 -6.34 " stroke="#191919" stroke-width="0.35 px" style="stroke-width:0.35;stroke-miterlimit:4;stroke-dasharray:none;fill:none;fill-opacity:1;fill-rule: evenodd"/>
<path id="Shape2DView_nwe0024"  d="M 10.98 -6.09 L 10.98 -6.1179911190258265 L 10.98 -6.145630233489078 L 10.98 -6.172569765488792 L 10.98 -6.198470934779389 L 10.98 -6.223008019128834 L 10.98 -6.245872450464683 L 10.98 -6.266776695296636 L 10.98 -6.285457870617007 L 10.98 -6.301681049807071 L 10.98 -6.315242216975605 L 10.98 -6.325970832577092 L 10.98 -6.3337319780454555 L 10.98 -6.3384280524733105 L 10.98 -6.34 " stroke="#191919" stroke-width="0.35 px" style="stroke-width:0.35;stroke-miterlimit:4;stroke-dasharray:none;fill:none;fill-opacity:1;fill-rule: evenodd"/>
<path id="Shape2DView_nwe0025"  d="M -9.184850993605148e-17 2.2043642384652356e-32 L 0.05598223805165384 -1.343573713239692e-17 L 0.11126046697815711 -2.670251207475771e-17 L 0.16513953097758344 -3.9633487434620025e-17 L 0.21694186955877898 -5.206604869410695e-17 L 0.2660160382576682 -6.384384918184036e-17 L 0.3117449009293667 -7.481877622304801e-17 L 0.3535533905932737 -8.485281374238568e-17 L 0.39091574123401485 -9.381977789616356e-17 L 0.423362099614142 -1.0160690390739409e-16 L 0.4504844339512095 -1.0811626414829029e-16 L 0.47194166515418373 -1.132659996370041e-16 L 0.48746395609091175 -1.1699134946181883e-16 L 0.4968561049466213 -1.1924546518718912e-16 L 0.5 -1.2e-16 " stroke="#191919" stroke-width="0.35 px" style="stroke-width:0.35;stroke-miterlimit:4;stroke-dasharray:none;fill:none;fill-opacity:1;fill-rule: evenodd"/>
<title>b'Shape2DView'</title>
</g>
<g id="Rectangle" transform="translate(1.193000,1.383000) scale(1,-1)">
<rect fill="#ff0000" id="origin" width="1" height="1" x="0" y="0" />
<title>b'Rectangle'</title>
</g>
</svg>