<?xml version="1.0"?>
<!DOCTYPE svg PUBLIC "-//W3C//DTD SVG 1.1//EN" "http://www.w3.org/Graphics/SVG/1.1/DTD/svg11.dtd">
<svg width="29.07mm" height="10.67mm" viewBox="0 0 29.07 10.67" xmlns="http://www.w3.org/2000/svg" version="1.1">
<g id="Shape2DView" transform="translate(3.535000,9.145000) scale(1,-1)">
<path id="Shape2DView_nwe0000"  d="M -3.25 -1.24 L 25.25 -1.24 " stroke="#191919" stroke-width="0.35 px" style="stroke-width:0.35;stroke-miterlimit:4;stroke-dasharray:none;fill:none;fill-opacity:1;fill-rule: evenodd"/>
<path id="Shape2DView_nwe0001"  d="M -3.25 1.81 L -3.25 -1.2399999999999998 " stroke="#191919" stroke-width="0.35 px" style="stroke-width:0.35;stroke-miterlimit:4;stroke-dasharray:none;fill:none;fill-opacity:1;fill-rule: evenodd"/>
<path id="Shape2DView_nwe0002"  d="M -3.25 8.86 L -3.25 5.81 " stroke="#191919" stroke-width="0.35 px" style="stroke-width:0.35;stroke-miterlimit:4;stroke-dasharray:none;fill:none;fill-opacity:1;fill-rule: evenodd"/>
<path id="Shape2DView_nwe0003"  d="M -3.25 1.81 L -3.25 5.81 " stroke="#191919" stroke-width="0.35 px" style="stroke-width:0.35;stroke-miterlimit:4;stroke-dasharray:none;fill:none;fill-opacity:1;fill-rule: evenodd"/>
<path id="Shape2DView_nwe0004"  d="M 25.25 -1.24 L 25.25 8.86 " stroke="#191919" stroke-width="0.35 px" style="stroke-width:0.35;stroke-miterlimit:4;stroke-dasharray:none;fill:none;fill-opacity:1;fill-rule: evenodd"/>
<path id="Shape2DView_nwe0005"  d="M 25.249999999999808 -1.2399999999998064 L 25.24842805247312 -1.2384280524731184 L 25.24373197804527 -1.2337319780452671 L 25.23597083257691 -1.2259708325769092 L 25.22524221697543 -1.2152422169754304 L 25.211681049806906 -1.2016810498069073 L 25.195457870616856 -1.1854578706168561 L 25.1767766952965 -1.1667766952965 L 25.155872450464564 -1.1458724504645628 L 25.13300801912873 -1.123008019128731 L 25.108470934779305 -1.0984709347793056 L 25.082569765488728 -1.0725697654887278 L 25.055630233489037 -1.0456302334890355 L 25.027991119025806 -1.0179911190258053 L 25.0 -0.99 " stroke="#191919" stroke-width="0.35 px" style="stroke-width:0.35;stroke-miterlimit:4;stroke-dasharray:none;fill:none;fill-opacity:1;fill-rule: evenodd"/>
<path id="Shape2DView_nwe0006"  d="M -3.2499999999998064 -1.2399999999998064 L -3.2484280524731184 -1.2384280524731184 L -3.2437319780452674 -1.2337319780452671 L -3.235970832576909 -1.2259708325769092 L -3.2252422169754302 -1.2152422169754304 L -3.211681049806907 -1.2016810498069073 L -3.195457870616856 -1.1854578706168561 L -3.1767766952965 -1.1667766952965 L -3.1558724504645626 -1.1458724504645628 L -3.1330080191287313 -1.1230080191287313 L -3.1084709347793056 -1.0984709347793056 L -3.082569765488728 -1.0725697654887278 L -3.0556302334890355 -1.0456302334890355 L -3.0279911190258053 -1.0179911190258053 L -3.0 -0.99 " stroke="#191919" stroke-width="0.35 px" style="stroke-width:0.35;stroke-miterlimit:4;stroke-dasharray:none;fill:none;fill-opacity:1;fill-rule: evenodd"/>
<path id="Shape2DView_nwe0007"  d="M -3.0 1.56 L -3.0279911190258053 1.5879911190258054 L -3.0556302334890355 1.6156302334890356 L -3.082569765488728 1.642569765488728 L -3.1084709347793056 1.6684709347793056 L -3.1330080191287313 1.6930080191287311 L -3.1558724504645626 1.7158724504645626 L -3.1767766952964998 1.7367766952965 L -3.195457870616856 1.7554578706168562 L -3.211681049806907 1.771681049806907 L -3.2252422169754302 1.7852422169754305 L -3.235970832576909 1.7959708325769093 L -3.2437319780452674 1.8037319780452672 L -3.2484280524731184 1.8084280524731184 L -3.2499999999998064 1.8099999999998064 " stroke="#191919" stroke-width="0.35 px" style="stroke-width:0.35;stroke-miterlimit:4;stroke-dasharray:none;fill:none;fill-opacity:1;fill-rule: evenodd"/>
<path id="Shape2DView_nwe0008"  d="M -2.25 1.81 L -3.25 1.81 " stroke="#191919" stroke-width="0.35 px" style="stroke-width:0.35;stroke-miterlimit:4;stroke-dasharray:none;fill:none;fill-opacity:1;fill-rule: evenodd"/>
<path id="Shape2DView_nwe0009"  d="M -3.25 5.81 L -2.25 5.81 " stroke="#191919" stroke-width="0.35 px" style="stroke-width:0.35;stroke-miterlimit:4;stroke-dasharray:none;fill:none;fill-opacity:1;fill-rule: evenodd"/>
<path id="Shape2DView_nwe0010"  d="M -3.2499999999998064 5.810000000000193 L -3.2484280524731184 5.811571947526882 L -3.2437319780452674 5.816268021954732 L -3.235970832576909 5.82402916742309 L -3.2252422169754302 5.834757783024569 L -3.211681049806907 5.848318950193092 L -3.195457870616856 5.8645421293831435 L -3.1767766952965 5.8832233047035 L -3.1558724504645626 5.904127549535437 L -3.1330080191287313 5.926991980871269 L -3.1084709347793056 5.9515290652206945 L -3.082569765488728 5.977430234511272 L -3.0556302334890355 6.004369766510964 L -3.0279911190258053 6.032008880974194 L -3.0 6.06 " stroke="#191919" stroke-width="0.35 px" style="stroke-width:0.35;stroke-miterlimit:4;stroke-dasharray:none;fill:none;fill-opacity:1;fill-rule: evenodd"/>
<path id="Shape2DView_nwe0011"  d="M -3.0 8.61 L -3.0279911190258053 8.637991119025804 L -3.0556302334890355 8.665630233489034 L -3.082569765488728 8.692569765488727 L -3.1084709347793056 8.718470934779305 L -3.1330080191287313 8.74300801912873 L -3.1558724504645626 8.765872450464562 L -3.1767766952964998 8.7867766952965 L -3.195457870616856 8.805457870616856 L -3.211681049806907 8.821681049806907 L -3.2252422169754302 8.83524221697543 L -3.235970832576909 8.845970832576908 L -3.2437319780452674 8.853731978045266 L -3.2484280524731184 8.858428052473117 L -3.2499999999998064 8.859999999999806 " stroke="#191919" stroke-width="0.35 px" style="stroke-width:0.35;stroke-miterlimit:4;stroke-dasharray:none;fill:none;fill-opacity:1;fill-rule: evenodd"/>
<path id="Shape2DView_nwe0012"  d="M 25.25 8.86 L -3.25 8.86 " stroke="#191919" stroke-width="0.35 px" style="stroke-width:0.35;stroke-miterlimit:4;stroke-dasharray:none;fill:none;fill-opacity:1;fill-rule: evenodd"/>
<path id="Shape2DView_nwe0013"  d="M 25.249999999999808 8.859999999999806 L 25.24842805247312 8.858428052473117 L 25.24373197804527 8.853731978045266 L 25.23597083257691 8.845970832576908 L 25.22524221697543 8.83524221697543 L 25.211681049806906 8.821681049806907 L 25.195457870616856 8.805457870616856 L 25.1767766952965 8.7867766952965 L 25.155872450464564 8.765872450464562 L 25.13300801912873 8.74300801912873 L 25.108470934779305 8.718470934779305 L 25.082569765488728 8.692569765488727 L 25.055630233489037 8.665630233489034 L 25.027991119025806 8.637991119025804 L 25.0 8.61 " stroke="#191919" stroke-width="0.35 px" style="stroke-width:0.35;stroke-miterlimit:4;stroke-dasharray:none;fill:none;fill-opacity:1;fill-rule: evenodd"/>
<path id="Shape2DView_nwe0014"  d="M -1.75 5.31 L -1.75 2.31 " stroke="#191919" stroke-width="0.35 px" style="stroke-width:0.35;stroke-miterlimit:4;stroke-dasharray:none;fill:none;fill-opacity:1;fill-rule: evenodd"/>
<path id="Shape2DView_nwe0015"  d="M -1.75 2.31 A 0.5 0.5 0 0 0 -2.25 1.81" stroke="#191919" stroke-width="0.35 px" style="stroke-width:0.35;stroke-miterlimit:4;stroke-dasharray:none;fill:none;fill-opacity:1;fill-rule: evenodd"/>
<path id="Shape2DView_nwe0016"  d="M -2.25 5.81 A 0.5 0.5 0 0 0 -1.75 5.31" stroke="#191919" stroke-width="0.35 px" style="stroke-width:0.35;stroke-miterlimit:4;stroke-dasharray:none;fill:none;fill-opacity:1;fill-rule: evenodd"/>
<path id="Shape2DView_nwe0017"  d="M -3.0 -0.99 L 25.0 -0.99 " stroke="#191919" stroke-width="0.35 px" style="stroke-width:0.35;stroke-miterlimit:4;stroke-dasharray:none;fill:none;fill-opacity:1;fill-rule: evenodd"/>
<path id="Shape2DView_nwe0018"  d="M -3.0 1.56 L -3.0 -0.9899999999999998 " stroke="#191919" stroke-width="0.35 px" style="stroke-width:0.35;stroke-miterlimit:4;stroke-dasharray:none;fill:none;fill-opacity:1;fill-rule: evenodd"/>
<path id="Shape2DView_nwe0019"  d="M -3.0 8.61 L -3.0 6.06 " stroke="#191919" stroke-width="0.35 px" style="stroke-width:0.35;stroke-miterlimit:4;stroke-dasharray:none;fill:none;fill-opacity:1;fill-rule: evenodd"/>
<path id="Shape2DView_nwe0020"  d="M 25.0 -0.99 L 25.0 8.61 " stroke="#191919" stroke-width="0.35 px" style="stroke-width:0.35;stroke-miterlimit:4;stroke-dasharray:none;fill:none;fill-opacity:1;fill-rule: evenodd"/>
<path id="Shape2DView_nwe0021"  d="M -2.25 1.56 L -3.0 1.56 " stroke="#191919" stroke-width="0.35 px" style="stroke-width:0.35;stroke-miterlimit:4;stroke-dasharray:none;fill:none;fill-opacity:1;fill-rule: evenodd"/>
<path id="Shape2DView_nwe0022"  d="M -1.5 2.31 A 0.75 0.75 0 0 0 -2.25 1.56" stroke="#191919" stroke-width="0.35 px" style="stroke-width:0.35;stroke-miterlimit:4;stroke-dasharray:none;fill:none;fill-opacity:1;fill-rule: evenodd"/>
<path id="Shape2DView_nwe0023"  d="M -1.5 5.31 L -1.5 2.31 " stroke="#191919" stroke-width="0.35 px" style="stroke-width:0.35;stroke-miterlimit:4;stroke-dasharray:none;fill:none;fill-opacity:1;fill-rule: evenodd"/>
<path id="Shape2DView_nwe0024"  d="M -2.25 6.06 A 0.75 0.75 0 0 0 -1.5 5.31" stroke="#191919" stroke-width="0.35 px" style="stroke-width:0.35;stroke-miterlimit:4;stroke-dasharray:none;fill:none;fill-opacity:1;fill-rule: evenodd"/>
<path id="Shape2DView_nwe0025"  d="M -3.0 6.06 L -2.25 6.06 " stroke="#191919" stroke-width="0.35 px" style="stroke-width:0.35;stroke-miterlimit:4;stroke-dasharray:none;fill:none;fill-opacity:1;fill-rule: evenodd"/>
<path id="Shape2DView_nwe0026"  d="M 25.0 8.61 L -3.0 8.61 " stroke="#191919" stroke-width="0.35 px" style="stroke-width:0.35;stroke-miterlimit:4;stroke-dasharray:none;fill:none;fill-opacity:1;fill-rule: evenodd"/>
<path id="Shape2DView_nwe0027"  d="M -2.25 1.56 L -2.25 1.587991119025827 L -2.25 1.6156302334890786 L -2.25 1.6425697654887919 L -2.25 1.6684709347793896 L -2.25 1.6930080191288341 L -2.25 1.7158724504646834 L -2.25 1.736776695296637 L -2.25 1.7554578706170074 L -2.25 1.771681049807071 L -2.25 1.7852422169756048 L -2.25 1.795970832577092 L -2.25 1.803731978045456 L -2.25 1.8084280524733107 L -2.25 1.81 " stroke="#191919" stroke-width="0.35 px" style="stroke-width:0.35;stroke-miterlimit:4;stroke-dasharray:none;fill:none;fill-opacity:1;fill-rule: evenodd"/>
<path id="Shape2DView_nwe0030"  d="M -2.25 6.06 L -2.25 6.032008880974173 L -2.25 6.004369766510921 L -2.25 5.977430234511208 L -2.25 5.95152906522061 L -2.25 5.926991980871166 L -2.25 5.904127549535316 L -2.25 5.883223304703363 L -2.25 5.8645421293829925 L -2.25 5.848318950192929 L -2.25 5.834757783024394 L -2.25 5.824029167422908 L -2.25 5.816268021954544 L -2.25 5.811571947526689 L -2.25 5.81 " stroke="#191919" stroke-width="0.35 px" style="stroke-width:0.35;stroke-miterlimit:4;stroke-dasharray:none;fill:none;fill-opacity:1;fill-rule: evenodd"/>
<path id="Shape2DView_nwe0031"  d="M -1.5 2.31 L -1.527991119025827 2.31 L -1.5556302334890786 2.31 L -1.5825697654887918 2.31 L -1.6084709347793895 2.31 L -1.633008019128834 2.31 L -1.6558724504646833 2.31 L -1.676776695296637 2.31 L -1.6954578706170074 2.31 L -1.711681049807071 2.31 L -1.7252422169756048 2.31 L -1.735970832577092 2.31 L -1.7437319780454559 2.31 L -1.7484280524733107 2.31 L -1.75 2.31 " stroke="#191919" stroke-width="0.35 px" style="stroke-width:0.35;stroke-miterlimit:4;stroke-dasharray:none;fill:none;fill-opacity:1;fill-rule: evenodd"/>
<path id="Shape2DView_nwe0032"  d="M -1.5 5.31 L -1.5279911190258268 5.31 L -1.5556302334890786 5.31 L -1.5825697654887918 5.31 L -1.6084709347793895 5.31 L -1.633008019128834 5.31 L -1.6558724504646833 5.31 L -1.676776695296637 5.31 L -1.6954578706170074 5.31 L -1.711681049807071 5.31 L -1.7252422169756048 5.31 L -1.735970832577092 5.31 L -1.7437319780454559 5.31 L -1.7484280524733107 5.31 L -1.75 5.31 " stroke="#191919" stroke-width="0.35 px" style="stroke-width:0.35;stroke-miterlimit:4;stroke-dasharray:none;fill:none;fill-opacity:1;fill-rule: evenodd"/>
<title>b'Shape2DView'</title>
</g>
<g id="Rectangle" transform="translate(3.535000,9.145000) scale(1,-1)">
<rect fill="#ff0000" id="origin" width="1" height="1" x="0" y="0" />
<title>b'Rectangle'</title>
</g>
</svg>