<?xml version="1.0"?>
<!DOCTYPE svg PUBLIC "-//W3C//DTD SVG 1.1//EN" "http://www.w3.org/Graphics/SVG/1.1/DTD/svg11.dtd">
<svg width="6.63000000000055mm" height="10.130000000000548mm" viewBox="0 0 6.63000000000055 10.130000000000548" xmlns="http://www.w3.org/2000/svg" version="1.1">
<g id="Shape2DView" transform="translate(0.775000,1.255000) scale(1,-1)">
<path id="Shape2DView_nwe0000"  d="M -2.706477768174e-16 -0.4 L 3.9999999999999996 -0.40000000000000224 " stroke="#191919" stroke-width="0.35 px" style="stroke-width:0.35;stroke-miterlimit:4;stroke-dasharray:none;fill:none;fill-opacity:1;fill-rule: evenodd"/>
<path id="Shape2DView_nwe0001"  d="M 4.0 -0.4 A 0.2 0.2 0 0 1 4 0" stroke="#191919" stroke-width="0.35 px" style="stroke-width:0.35;stroke-miterlimit:4;stroke-dasharray:none;fill:none;fill-opacity:1;fill-rule: evenodd"/>
<path id="Shape2DView_nwe0002"  d="M 4.0 -2.22044604925e-15 L 0.0 3.99952478947053e-28 " stroke="#191919" stroke-width="0.35 px" style="stroke-width:0.35;stroke-miterlimit:4;stroke-dasharray:none;fill:none;fill-opacity:1;fill-rule: evenodd"/>
<path id="Shape2DView_nwe0003"  d="M 2.4492935982967052e-17 0.0 A 0.2 0.2 0 0 1 -2.7103e-16 -0.4" stroke="#191919" stroke-width="0.35 px" style="stroke-width:0.35;stroke-miterlimit:4;stroke-dasharray:none;fill:none;fill-opacity:1;fill-rule: evenodd"/>
<path id="Shape2DView_nwe0004"  d="M -0.71 1.19 L -0.7099999999999933 -8.81 " stroke="#191919" stroke-width="0.35 px" style="stroke-width:0.35;stroke-miterlimit:4;stroke-dasharray:none;fill:none;fill-opacity:1;fill-rule: evenodd"/>
<path id="Shape2DView_nwe0005"  d="M -0.7100000000002694 -8.810000000000269 L -0.7087424419789162 -8.808742441978916 L -0.7049855824366273 -8.804985582436627 L -0.6987766660619278 -8.798776666061928 L -0.6901937735807265 -8.790193773580725 L -0.679344839845885 -8.779344839845884 L -0.6663662964938166 -8.766366296493816 L -0.6514213562375 -8.751421356237499 L -0.6346979603719147 -8.734697960371914 L -0.6164064153032106 -8.71640641530321 L -0.5967767478236286 -8.696776747823629 L -0.5760558123911224 -8.676055812391121 L -0.5545041867913229 -8.654504186791323 L -0.5323928952206918 -8.632392895220692 L -0.51 -8.61 " stroke="#191919" stroke-width="0.35 px" style="stroke-width:0.35;stroke-miterlimit:4;stroke-dasharray:none;fill:none;fill-opacity:1;fill-rule: evenodd"/>
<path id="Shape2DView_nwe0006"  d="M -0.7100000000002694 1.1900000000002695 L -0.7087424419789162 1.188742441978916 L -0.7049855824366273 1.1849855824366273 L -0.6987766660619278 1.1787766660619279 L -0.6901937735807265 1.1701937735807266 L -0.679344839845885 1.159344839845885 L -0.6663662964938166 1.1463662964938166 L -0.6514213562375001 1.1314213562375 L -0.6346979603719147 1.1146979603719147 L -0.6164064153032107 1.0964064153032107 L -0.5967767478236286 1.0767767478236285 L -0.5760558123911225 1.0560558123911223 L -0.5545041867913229 1.034504186791323 L -0.5323928952206918 1.0123928952206918 L -0.51 0.99 " stroke="#191919" stroke-width="0.35 px" style="stroke-width:0.35;stroke-miterlimit:4;stroke-dasharray:none;fill:none;fill-opacity:1;fill-rule: evenodd"/>
<path id="Shape2DView_nwe0007"  d="M 5.79 1.19 L -0.71 1.1899999999999955 " stroke="#191919" stroke-width="0.35 px" style="stroke-width:0.35;stroke-miterlimit:4;stroke-dasharray:none;fill:none;fill-opacity:1;fill-rule: evenodd"/>
<path id="Shape2DView_nwe0008"  d="M 5.790000000000269 1.1900000000002695 L 5.788742441978916 1.188742441978916 L 5.784985582436628 1.1849855824366273 L 5.778776666061928 1.1787766660619279 L 5.7701937735807265 1.1701937735807266 L 5.759344839845885 1.159344839845885 L 5.746366296493816 1.1463662964938166 L 5.7314213562375 1.1314213562375 L 5.714697960371915 1.1146979603719147 L 5.69640641530321 1.0964064153032107 L 5.676776747823628 1.0767767478236285 L 5.656055812391123 1.0560558123911223 L 5.634504186791323 1.0345041867913227 L 5.612392895220691 1.0123928952206918 L 5.59 0.99 " stroke="#191919" stroke-width="0.35 px" style="stroke-width:0.35;stroke-miterlimit:4;stroke-dasharray:none;fill:none;fill-opacity:1;fill-rule: evenodd"/>
<path id="Shape2DView_nwe0009"  d="M -0.71 -8.81 L 5.79 -8.809999999999997 " stroke="#191919" stroke-width="0.35 px" style="stroke-width:0.35;stroke-miterlimit:4;stroke-dasharray:none;fill:none;fill-opacity:1;fill-rule: evenodd"/>
<path id="Shape2DView_nwe0010"  d="M 5.790000000000269 -8.810000000000269 L 5.788742441978916 -8.808742441978916 L 5.784985582436628 -8.804985582436627 L 5.778776666061928 -8.798776666061928 L 5.7701937735807265 -8.790193773580725 L 5.759344839845885 -8.779344839845884 L 5.746366296493816 -8.766366296493816 L 5.7314213562375 -8.751421356237499 L 5.714697960371915 -8.734697960371914 L 5.69640641530321 -8.71640641530321 L 5.676776747823628 -8.696776747823629 L 5.656055812391123 -8.676055812391121 L 5.634504186791323 -8.654504186791323 L 5.612392895220691 -8.632392895220692 L 5.59 -8.61 " stroke="#191919" stroke-width="0.35 px" style="stroke-width:0.35;stroke-miterlimit:4;stroke-dasharray:none;fill:none;fill-opacity:1;fill-rule: evenodd"/>
<path id="Shape2DView_nwe0011"  d="M 5.79 -8.81 L 5.789999999999993 1.1899999999999995 " stroke="#191919" stroke-width="0.35 px" style="stroke-width:0.35;stroke-miterlimit:4;stroke-dasharray:none;fill:none;fill-opacity:1;fill-rule: evenodd"/>
<path id="Shape2DView_nwe0012"  d="M -0.5099999999999999 0.99 L -0.5099999999999935 -8.61 " stroke="#191919" stroke-width="0.35 px" style="stroke-width:0.35;stroke-miterlimit:4;stroke-dasharray:none;fill:none;fill-opacity:1;fill-rule: evenodd"/>
<path id="Shape2DView_nwe0013"  d="M 5.59 0.9899999999999999 L -0.5099999999999998 0.9899999999999958 " stroke="#191919" stroke-width="0.35 px" style="stroke-width:0.35;stroke-miterlimit:4;stroke-dasharray:none;fill:none;fill-opacity:1;fill-rule: evenodd"/>
<path id="Shape2DView_nwe0014"  d="M 5.59 -8.61 L 5.589999999999994 0.9900000000000002 " stroke="#191919" stroke-width="0.35 px" style="stroke-width:0.35;stroke-miterlimit:4;stroke-dasharray:none;fill:none;fill-opacity:1;fill-rule: evenodd"/>
<path id="Shape2DView_nwe0015"  d="M -0.51 -8.61 L 5.59 -8.609999999999996 " stroke="#191919" stroke-width="0.35 px" style="stroke-width:0.35;stroke-miterlimit:4;stroke-dasharray:none;fill:none;fill-opacity:1;fill-rule: evenodd"/>
<title>b'Shape2DView'</title>
</g>
<g id="Rectangle" transform="translate(0.775000,1.255000) scale(1,-1)">
<rect fill="#ff0000" id="origin" width="1" height="1" x="0" y="0" />
<title>b'Rectangle'</title>
</g>
</svg>