<?xml version="1.0"?>
<!DOCTYPE svg PUBLIC "-//W3C//DTD SVG 1.1//EN" "http://www.w3.org/Graphics/SVG/1.1/DTD/svg11.dtd">
<svg width="28.556281525790006mm" height="10.05992708874098mm" viewBox="0 0 28.556281525790006 10.05992708874098" xmlns="http://www.w3.org/2000/svg" version="1.1">
<g id="Shape2DView" transform="translate(0.528141,5.029964) scale(1,-1)">
<path id="Shape2DView_nwe0000"  d="M 2.75 4.75 L 2.75 4.630907582863662 L 2.75 4.279602122536491 L 2.75 3.7136995417231415 L 2.75 2.9615765588289844 L 2.75 2.0609477608084013 L 2.75 1.0569744362924935 L 2.75 2.9085361479749637e-16 L 2.75 -1.056974436292493 L 2.75 -2.060947760808401 L 2.75 -2.961576558828984 L 2.75 -3.7136995417231415 L 2.75 -4.27960212253649 L 2.75 -4.630907582863662 L 2.75 -4.75 " stroke="#191919" stroke-width="0.35 px" style="stroke-width:0.35;stroke-miterlimit:4;stroke-dasharray:none;fill:none;fill-opacity:1;fill-rule: evenodd"/>
<path id="Shape2DView_nwe0001"  d="M 2.75 4.75 L 24.75 4.75 " stroke="#191919" stroke-width="0.35 px" style="stroke-width:0.35;stroke-miterlimit:4;stroke-dasharray:none;fill:none;fill-opacity:1;fill-rule: evenodd"/>
<path id="Shape2DView_nwe0002"  d="M 24.75 4.75 L 24.75 4.630907582863662 L 24.75 4.279602122536491 L 24.75 3.7136995417231415 L 24.75 2.9615765588289844 L 24.75 2.0609477608084013 L 24.75 1.0569744362924935 L 24.75 2.9085361479749637e-16 L 24.75 -1.056974436292493 L 24.75 -2.060947760808401 L 24.75 -2.961576558828984 L 24.75 -3.7136995417231415 L 24.75 -4.27960212253649 L 24.75 -4.630907582863662 L 24.75 -4.75 " stroke="#191919" stroke-width="0.35 px" style="stroke-width:0.35;stroke-miterlimit:4;stroke-dasharray:none;fill:none;fill-opacity:1;fill-rule: evenodd"/>
<path id="Shape2DView_nwe0003"  d="M 0.5 0.25 L 2.75 0.25 " stroke="#191919" stroke-width="0.35 px" style="stroke-width:0.35;stroke-miterlimit:4;stroke-dasharray:none;fill:none;fill-opacity:1;fill-rule: evenodd"/>
<path id="Shape2DView_nwe0004"  d="M 24.75 0.25 L 27.0 0.25 " stroke="#191919" stroke-width="0.35 px" style="stroke-width:0.35;stroke-miterlimit:4;stroke-dasharray:none;fill:none;fill-opacity:1;fill-rule: evenodd"/>
<path id="Shape2DView_nwe0005"  d="M 0.0 -0.25000000000000006 L 0.003143895053378698 -0.25000000000000006 L 0.01253604390908819 -0.25000000000000006 L 0.028058334845816213 -0.25000000000000006 L 0.04951556604879043 -0.25000000000000006 L 0.07663790038585794 -0.25000000000000006 L 0.1090842587659851 -0.25000000000000006 L 0.1464466094067262 -0.25000000000000006 L 0.1882550990706332 -0.25000000000000006 L 0.23398396174233171 -0.25000000000000006 L 0.2830581304412209 -0.25 L 0.3348604690224164 -0.25 L 0.3887395330218428 -0.25 L 0.444017761948346 -0.25 L 0.49999999999999994 -0.25 " stroke="#191919" stroke-width="0.35 px" style="stroke-width:0.35;stroke-miterlimit:4;stroke-dasharray:none;fill:none;fill-opacity:1;fill-rule: evenodd"/>
<circle cx="2.498001805407e-16" cy="0.0" r="0.25" stroke="#191919" stroke-width="0.35 px" style="stroke-width:0.35;stroke-miterlimit:4;stroke-dasharray:none;fill:none"/>
<path id="Shape2DView_nwe0007"  d="M 27.5 0.25 L 27.49685610494662 0.25 L 27.487463956090913 0.25 L 27.471941665154183 0.25 L 27.45048443395121 0.25 L 27.423362099614142 0.25 L 27.390915741234014 0.25 L 27.353553390593273 0.25 L 27.311744900929366 0.25 L 27.266016038257668 0.25 L 27.21694186955878 0.25 L 27.165139530977584 0.25 L 27.11126046697816 0.25 L 27.055982238051655 0.25 L 27.0 0.25 " stroke="#191919" stroke-width="0.35 px" style="stroke-width:0.35;stroke-miterlimit:4;stroke-dasharray:none;fill:none;fill-opacity:1;fill-rule: evenodd"/>
<path id="Shape2DView_nwe0008"  d="M 27.5 -0.25 A 0.25 0.25 0 0 1 27.5 0.25" stroke="#191919" stroke-width="0.35 px" style="stroke-width:0.35;stroke-miterlimit:4;stroke-dasharray:none;fill:none;fill-opacity:1;fill-rule: evenodd"/>
<path id="Shape2DView_nwe0009"  d="M 0.5 0.25 L 0.5 0.2437319780454559 L 0.5 0.2252422169756048 L 0.5 0.19545787061700745 L 0.5 0.1558724504646834 L 0.5 0.10847093477938954 L 0.5 0.05563023348907861 L 0.5 1.5308084989341915e-17 L 0.5 -0.055630233489078584 L 0.5 -0.10847093477938952 L 0.5 -0.15587245046468337 L 0.5 -0.19545787061700745 L 0.5 -0.22524221697560476 L 0.5 -0.2437319780454559 L 0.5 -0.25 " stroke="#191919" stroke-width="0.35 px" style="stroke-width:0.35;stroke-miterlimit:4;stroke-dasharray:none;fill:none;fill-opacity:1;fill-rule: evenodd"/>
<path id="Shape2DView_nwe0010"  d="M 27.0 0.25 L 27.0 0.2437319780454559 L 27.0 0.2252422169756048 L 27.0 0.19545787061700745 L 27.0 0.1558724504646834 L 27.0 0.10847093477938954 L 27.0 0.05563023348907861 L 27.0 1.5308084989341915e-17 L 27.0 -0.055630233489078584 L 27.0 -0.10847093477938952 L 27.0 -0.15587245046468337 L 27.0 -0.19545787061700745 L 27.0 -0.22524221697560476 L 27.0 -0.2437319780454559 L 27.0 -0.25 " stroke="#191919" stroke-width="0.35 px" style="stroke-width:0.35;stroke-miterlimit:4;stroke-dasharray:none;fill:none;fill-opacity:1;fill-rule: evenodd"/>
<path id="Shape2DView_nwe0011"  d="M 24.75 -4.75 L 2.75 -4.75 " stroke="#191919" stroke-width="0.35 px" style="stroke-width:0.35;stroke-miterlimit:4;stroke-dasharray:none;fill:none;fill-opacity:1;fill-rule: evenodd"/>
<path id="Shape2DView_nwe0012"  d="M 2.75 -0.25 L 0.5 -0.25 " stroke="#191919" stroke-width="0.35 px" style="stroke-width:0.35;stroke-miterlimit:4;stroke-dasharray:none;fill:none;fill-opacity:1;fill-rule: evenodd"/>
<path id="Shape2DView_nwe0013"  d="M 27.0 -0.25 L 24.75 -0.25 " stroke="#191919" stroke-width="0.35 px" style="stroke-width:0.35;stroke-miterlimit:4;stroke-dasharray:none;fill:none;fill-opacity:1;fill-rule: evenodd"/>
<path id="Shape2DView_nwe0014"  d="M 27.0 -0.24999999999999964 Q 27.455503749621116 -0.2499999999999999 27.5 -0.25 " stroke="#191919" stroke-width="0.35 px" style="stroke-width:0.35;stroke-miterlimit:4;stroke-dasharray:none;fill:none;fill-opacity:1;fill-rule: evenodd"/>
<title>b'Shape2DView'</title>
</g>
<g id="Rectangle" transform="translate(0.528141,5.029964) scale(1,-1)">
<rect fill="#ff0000" id="origin" width="1" height="1" x="0" y="0" />
<title>b'Rectangle'</title>
</g>
</svg>