<?xml version="1.0"?>
<!DOCTYPE svg PUBLIC "-//W3C//DTD SVG 1.1//EN" "http://www.w3.org/Graphics/SVG/1.1/DTD/svg11.dtd">
<svg width="20.906281525790007mm" height="7.9099270887409805mm" viewBox="0 0 20.906281525790007 7.9099270887409805" xmlns="http://www.w3.org/2000/svg" version="1.1">
<g id="Shape2DView" transform="translate(0.453141,3.954964) scale(1,-1)">
<path id="Shape2DView_nwe0000"  d="M 4.0 3.75 L 4.0 3.6559796706818384 L 4.0 3.378633254634072 L 4.0 2.9318680592551116 L 4.0 2.338086756970251 L 4.0 1.6270640216908432 L 4.0 0.8344535023361792 L 4.0 2.2962127484012875e-16 L 4.0 -0.8344535023361788 L 4.0 -1.6270640216908427 L 4.0 -2.3380867569702506 L 4.0 -2.9318680592551116 L 4.0 -3.3786332546340714 L 4.0 -3.6559796706818384 L 4.0 -3.75 " stroke="#191919" stroke-width="0.35 px" style="stroke-width:0.35;stroke-miterlimit:4;stroke-dasharray:none;fill:none;fill-opacity:1;fill-rule: evenodd"/>
<path id="Shape2DView_nwe0001"  d="M 4.0 3.75 L 16.0 3.75 " stroke="#191919" stroke-width="0.35 px" style="stroke-width:0.35;stroke-miterlimit:4;stroke-dasharray:none;fill:none;fill-opacity:1;fill-rule: evenodd"/>
<path id="Shape2DView_nwe0002"  d="M 16.0 3.75 L 16.0 3.6559796706818384 L 16.0 3.378633254634072 L 16.0 2.9318680592551116 L 16.0 2.338086756970251 L 16.0 1.6270640216908432 L 16.0 0.8344535023361792 L 16.0 2.2962127484012875e-16 L 16.0 -0.8344535023361788 L 16.0 -1.6270640216908427 L 16.0 -2.3380867569702506 L 16.0 -2.9318680592551116 L 16.0 -3.3786332546340714 L 16.0 -3.6559796706818384 L 16.0 -3.75 " stroke="#191919" stroke-width="0.35 px" style="stroke-width:0.35;stroke-miterlimit:4;stroke-dasharray:none;fill:none;fill-opacity:1;fill-rule: evenodd"/>
<path id="Shape2DView_nwe0003"  d="M 0.5 0.25 L 4.0 0.25 " stroke="#191919" stroke-width="0.35 px" style="stroke-width:0.35;stroke-miterlimit:4;stroke-dasharray:none;fill:none;fill-opacity:1;fill-rule: evenodd"/>
<path id="Shape2DView_nwe0004"  d="M 16.0 0.25 L 19.5 0.25 " stroke="#191919" stroke-width="0.35 px" style="stroke-width:0.35;stroke-miterlimit:4;stroke-dasharray:none;fill:none;fill-opacity:1;fill-rule: evenodd"/>
<path id="Shape2DView_nwe0005"  d="M 0.0 -0.25000000000000006 L 0.003143895053378698 -0.25000000000000006 L 0.01253604390908819 -0.25000000000000006 L 0.028058334845816213 -0.25000000000000006 L 0.04951556604879043 -0.25000000000000006 L 0.07663790038585794 -0.25000000000000006 L 0.1090842587659851 -0.25000000000000006 L 0.1464466094067262 -0.25000000000000006 L 0.1882550990706332 -0.25000000000000006 L 0.23398396174233171 -0.25000000000000006 L 0.2830581304412209 -0.25 L 0.3348604690224164 -0.25 L 0.3887395330218428 -0.25 L 0.444017761948346 -0.25 L 0.49999999999999994 -0.25 " stroke="#191919" stroke-width="0.35 px" style="stroke-width:0.35;stroke-miterlimit:4;stroke-dasharray:none;fill:none;fill-opacity:1;fill-rule: evenodd"/>
<circle cx="6.661338147751e-16" cy="0.0" r="0.25" stroke="#191919" stroke-width="0.35 px" style="stroke-width:0.35;stroke-miterlimit:4;stroke-dasharray:none;fill:none"/>
<path id="Shape2DView_nwe0007"  d="M 20.0 0.25 L 19.99685610494662 0.25 L 19.987463956090913 0.25 L 19.971941665154183 0.25 L 19.95048443395121 0.25 L 19.923362099614142 0.25 L 19.890915741234014 0.25 L 19.853553390593273 0.25 L 19.811744900929366 0.25 L 19.766016038257668 0.25 L 19.71694186955878 0.25 L 19.665139530977584 0.25 L 19.61126046697816 0.25 L 19.555982238051655 0.25 L 19.5 0.25 " stroke="#191919" stroke-width="0.35 px" style="stroke-width:0.35;stroke-miterlimit:4;stroke-dasharray:none;fill:none;fill-opacity:1;fill-rule: evenodd"/>
<path id="Shape2DView_nwe0008"  d="M 20.0 -0.25 A 0.25 0.25 0 0 1 20 0.25" stroke="#191919" stroke-width="0.35 px" style="stroke-width:0.35;stroke-miterlimit:4;stroke-dasharray:none;fill:none;fill-opacity:1;fill-rule: evenodd"/>
<path id="Shape2DView_nwe0009"  d="M 0.5 0.25 L 0.5 0.2437319780454559 L 0.5 0.2252422169756048 L 0.5 0.19545787061700745 L 0.5 0.1558724504646834 L 0.5 0.10847093477938954 L 0.5 0.05563023348907861 L 0.5 1.5308084989341915e-17 L 0.5 -0.055630233489078584 L 0.5 -0.10847093477938952 L 0.5 -0.15587245046468337 L 0.5 -0.19545787061700745 L 0.5 -0.22524221697560476 L 0.5 -0.2437319780454559 L 0.5 -0.25 " stroke="#191919" stroke-width="0.35 px" style="stroke-width:0.35;stroke-miterlimit:4;stroke-dasharray:none;fill:none;fill-opacity:1;fill-rule: evenodd"/>
<path id="Shape2DView_nwe0010"  d="M 19.5 0.25 L 19.5 0.2437319780454559 L 19.5 0.2252422169756048 L 19.5 0.19545787061700745 L 19.5 0.1558724504646834 L 19.5 0.10847093477938954 L 19.5 0.05563023348907861 L 19.5 1.5308084989341915e-17 L 19.5 -0.055630233489078584 L 19.5 -0.10847093477938952 L 19.5 -0.15587245046468337 L 19.5 -0.19545787061700745 L 19.5 -0.22524221697560476 L 19.5 -0.2437319780454559 L 19.5 -0.25 " stroke="#191919" stroke-width="0.35 px" style="stroke-width:0.35;stroke-miterlimit:4;stroke-dasharray:none;fill:none;fill-opacity:1;fill-rule: evenodd"/>
<path id="Shape2DView_nwe0011"  d="M 16.0 -3.75 L 4.0 -3.75 " stroke="#191919" stroke-width="0.35 px" style="stroke-width:0.35;stroke-miterlimit:4;stroke-dasharray:none;fill:none;fill-opacity:1;fill-rule: evenodd"/>
<path id="Shape2DView_nwe0012"  d="M 4.0 -0.25 L 0.5 -0.25 " stroke="#191919" stroke-width="0.35 px" style="stroke-width:0.35;stroke-miterlimit:4;stroke-dasharray:none;fill:none;fill-opacity:1;fill-rule: evenodd"/>
<path id="Shape2DView_nwe0013"  d="M 19.5 -0.25 L 16.0 -0.25 " stroke="#191919" stroke-width="0.35 px" style="stroke-width:0.35;stroke-miterlimit:4;stroke-dasharray:none;fill:none;fill-opacity:1;fill-rule: evenodd"/>
<path id="Shape2DView_nwe0014"  d="M 19.500000000000004 -0.24999999999999975 Q 19.95555054428614 -0.2499999999999999 19.999999999999996 -0.25 " stroke="#191919" stroke-width="0.35 px" style="stroke-width:0.35;stroke-miterlimit:4;stroke-dasharray:none;fill:none;fill-opacity:1;fill-rule: evenodd"/>
<title>b'Shape2DView'</title>
</g>
<g id="Rectangle" transform="translate(0.453141,3.954964) scale(1,-1)">
<rect fill="#ff0000" id="origin" width="1" height="1" x="0" y="0" />
<title>b'Rectangle'</title>
</g>
</svg>