<?xml version="1.0"?>
<!DOCTYPE svg PUBLIC "-//W3C//DTD SVG 1.1//EN" "http://www.w3.org/Graphics/SVG/1.1/DTD/svg11.dtd">
<svg width="13.256281525790008mm" height="2.8599270887409807mm" viewBox="0 0 13.256281525790008 2.8599270887409807" xmlns="http://www.w3.org/2000/svg" version="1.1">
<g id="Shape2DView" transform="translate(0.378141,1.429964) scale(1,-1)">
<path id="Shape2DView_nwe0000"  d="M 4.35 1.3 L 4.35 1.2674062858363708 L 4.35 1.1712595282731448 L 4.35 1.0163809272084388 L 4.35 0.8105367424163537 L 4.35 0.5640488608528257 L 4.35 0.2892772141432088 L 4.35 7.960204194457797e-17 L 4.35 -0.28927721414320867 L 4.35 -0.5640488608528255 L 4.35 -0.8105367424163535 L 4.35 -1.0163809272084388 L 4.35 -1.1712595282731448 L 4.35 -1.2674062858363708 L 4.35 -1.3 " stroke="#191919" stroke-width="0.35 px" style="stroke-width:0.35;stroke-miterlimit:4;stroke-dasharray:none;fill:none;fill-opacity:1;fill-rule: evenodd"/>
<path id="Shape2DView_nwe0001"  d="M 4.35 1.3 L 8.15 1.3 " stroke="#191919" stroke-width="0.35 px" style="stroke-width:0.35;stroke-miterlimit:4;stroke-dasharray:none;fill:none;fill-opacity:1;fill-rule: evenodd"/>
<path id="Shape2DView_nwe0002"  d="M 8.15 1.3 L 8.15 1.2674062858363708 L 8.15 1.1712595282731448 L 8.15 1.0163809272084388 L 8.15 0.8105367424163537 L 8.15 0.5640488608528257 L 8.15 0.2892772141432088 L 8.15 7.960204194457797e-17 L 8.15 -0.28927721414320867 L 8.15 -0.5640488608528255 L 8.15 -0.8105367424163535 L 8.15 -1.0163809272084388 L 8.15 -1.1712595282731448 L 8.15 -1.2674062858363708 L 8.15 -1.3 " stroke="#191919" stroke-width="0.35 px" style="stroke-width:0.35;stroke-miterlimit:4;stroke-dasharray:none;fill:none;fill-opacity:1;fill-rule: evenodd"/>
<path id="Shape2DView_nwe0003"  d="M 0.5 0.25 L 4.35 0.25 " stroke="#191919" stroke-width="0.35 px" style="stroke-width:0.35;stroke-miterlimit:4;stroke-dasharray:none;fill:none;fill-opacity:1;fill-rule: evenodd"/>
<path id="Shape2DView_nwe0004"  d="M 8.15 0.25 L 12.0 0.25 " stroke="#191919" stroke-width="0.35 px" style="stroke-width:0.35;stroke-miterlimit:4;stroke-dasharray:none;fill:none;fill-opacity:1;fill-rule: evenodd"/>
<path id="Shape2DView_nwe0005"  d="M 0.0 -0.25000000000000006 L 0.003143895053378698 -0.25000000000000006 L 0.01253604390908819 -0.25000000000000006 L 0.028058334845816213 -0.25000000000000006 L 0.04951556604879043 -0.25000000000000006 L 0.07663790038585794 -0.25000000000000006 L 0.1090842587659851 -0.25000000000000006 L 0.1464466094067262 -0.25000000000000006 L 0.1882550990706332 -0.25000000000000006 L 0.23398396174233171 -0.25000000000000006 L 0.2830581304412209 -0.25 L 0.3348604690224164 -0.25 L 0.3887395330218428 -0.25 L 0.444017761948346 -0.25 L 0.49999999999999994 -0.25 " stroke="#191919" stroke-width="0.35 px" style="stroke-width:0.35;stroke-miterlimit:4;stroke-dasharray:none;fill:none;fill-opacity:1;fill-rule: evenodd"/>
<circle cx="1.942890293094e-16" cy="0.0" r="0.25" stroke="#191919" stroke-width="0.35 px" style="stroke-width:0.35;stroke-miterlimit:4;stroke-dasharray:none;fill:none"/>
<path id="Shape2DView_nwe0007"  d="M 12.5 0.25 L 12.496856104946621 0.25 L 12.487463956090911 0.25 L 12.471941665154183 0.25 L 12.45048443395121 0.25 L 12.423362099614142 0.25 L 12.390915741234014 0.25 L 12.353553390593273 0.25 L 12.311744900929368 0.25 L 12.266016038257668 0.25 L 12.216941869558779 0.25 L 12.165139530977584 0.25 L 12.111260466978157 0.25 L 12.055982238051653 0.25 L 12.0 0.25 " stroke="#191919" stroke-width="0.35 px" style="stroke-width:0.35;stroke-miterlimit:4;stroke-dasharray:none;fill:none;fill-opacity:1;fill-rule: evenodd"/>
<path id="Shape2DView_nwe0008"  d="M 12.5 -0.25 A 0.25 0.25 0 0 1 12.5 0.25" stroke="#191919" stroke-width="0.35 px" style="stroke-width:0.35;stroke-miterlimit:4;stroke-dasharray:none;fill:none;fill-opacity:1;fill-rule: evenodd"/>
<path id="Shape2DView_nwe0009"  d="M 0.5 0.25 L 0.5 0.2437319780454559 L 0.5 0.2252422169756048 L 0.5 0.19545787061700745 L 0.5 0.1558724504646834 L 0.5 0.10847093477938954 L 0.5 0.05563023348907861 L 0.5 1.5308084989341915e-17 L 0.5 -0.055630233489078584 L 0.5 -0.10847093477938952 L 0.5 -0.15587245046468337 L 0.5 -0.19545787061700745 L 0.5 -0.22524221697560476 L 0.5 -0.2437319780454559 L 0.5 -0.25 " stroke="#191919" stroke-width="0.35 px" style="stroke-width:0.35;stroke-miterlimit:4;stroke-dasharray:none;fill:none;fill-opacity:1;fill-rule: evenodd"/>
<path id="Shape2DView_nwe0010"  d="M 12.0 0.25 L 12.0 0.2437319780454559 L 12.0 0.2252422169756048 L 12.0 0.19545787061700745 L 12.0 0.1558724504646834 L 12.0 0.10847093477938954 L 12.0 0.05563023348907861 L 12.0 1.5308084989341915e-17 L 12.0 -0.055630233489078584 L 12.0 -0.10847093477938952 L 12.0 -0.15587245046468337 L 12.0 -0.19545787061700745 L 12.0 -0.22524221697560476 L 12.0 -0.2437319780454559 L 12.0 -0.25 " stroke="#191919" stroke-width="0.35 px" style="stroke-width:0.35;stroke-miterlimit:4;stroke-dasharray:none;fill:none;fill-opacity:1;fill-rule: evenodd"/>
<path id="Shape2DView_nwe0011"  d="M 8.15 -1.3 L 4.35 -1.3 " stroke="#191919" stroke-width="0.35 px" style="stroke-width:0.35;stroke-miterlimit:4;stroke-dasharray:none;fill:none;fill-opacity:1;fill-rule: evenodd"/>
<path id="Shape2DView_nwe0012"  d="M 4.35 -0.25 L 0.5 -0.25 " stroke="#191919" stroke-width="0.35 px" style="stroke-width:0.35;stroke-miterlimit:4;stroke-dasharray:none;fill:none;fill-opacity:1;fill-rule: evenodd"/>
<path id="Shape2DView_nwe0013"  d="M 12.0 -0.25 L 8.15 -0.25 " stroke="#191919" stroke-width="0.35 px" style="stroke-width:0.35;stroke-miterlimit:4;stroke-dasharray:none;fill:none;fill-opacity:1;fill-rule: evenodd"/>
<path id="Shape2DView_nwe0014"  d="M 12.0 -0.24999999999999986 Q 12.45555060894321 -0.24999999999999994 12.5 -0.25 " stroke="#191919" stroke-width="0.35 px" style="stroke-width:0.35;stroke-miterlimit:4;stroke-dasharray:none;fill:none;fill-opacity:1;fill-rule: evenodd"/>
<title>b'Shape2DView'</title>
</g>
<g id="Rectangle" transform="translate(0.378141,1.429964) scale(1,-1)">
<rect fill="#ff0000" id="origin" width="1" height="1" x="0" y="0" />
<title>b'Rectangle'</title>
</g>
</svg>