<?xml version="1.0"?>
<!DOCTYPE svg PUBLIC "-//W3C//DTD SVG 1.1//EN" "http://www.w3.org/Graphics/SVG/1.1/DTD/svg11.dtd">
<svg width="26.00628152579001mm" height="8.50992708874098mm" viewBox="0 0 26.00628152579001 8.50992708874098" xmlns="http://www.w3.org/2000/svg" version="1.1">
<g id="Shape2DView" transform="translate(0.503141,4.254964) scale(1,-1)">
<path id="Shape2DView_nwe0000"  d="M 3.0 4.0 L 3.0 3.8997116487272945 L 3.0 3.6038754716096766 L 3.0 3.127325929872119 L 3.0 2.4939592074349344 L 3.0 1.7355349564702327 L 3.0 0.8900837358252578 L 3.0 2.4492935982947064e-16 L 3.0 -0.8900837358252573 L 3.0 -1.7355349564702323 L 3.0 -2.493959207434934 L 3.0 -3.127325929872119 L 3.0 -3.603875471609676 L 3.0 -3.8997116487272945 L 3.0 -4.0 " stroke="#191919" stroke-width="0.35 px" style="stroke-width:0.35;stroke-miterlimit:4;stroke-dasharray:none;fill:none;fill-opacity:1;fill-rule: evenodd"/>
<path id="Shape2DView_nwe0001"  d="M 3.0 4.0 L 22.0 4.0 " stroke="#191919" stroke-width="0.35 px" style="stroke-width:0.35;stroke-miterlimit:4;stroke-dasharray:none;fill:none;fill-opacity:1;fill-rule: evenodd"/>
<path id="Shape2DView_nwe0002"  d="M 22.0 4.0 L 22.0 3.8997116487272945 L 22.0 3.6038754716096766 L 22.0 3.127325929872119 L 22.0 2.4939592074349344 L 22.0 1.7355349564702327 L 22.0 0.8900837358252578 L 22.0 2.4492935982947064e-16 L 22.0 -0.8900837358252573 L 22.0 -1.7355349564702323 L 22.0 -2.493959207434934 L 22.0 -3.127325929872119 L 22.0 -3.603875471609676 L 22.0 -3.8997116487272945 L 22.0 -4.0 " stroke="#191919" stroke-width="0.35 px" style="stroke-width:0.35;stroke-miterlimit:4;stroke-dasharray:none;fill:none;fill-opacity:1;fill-rule: evenodd"/>
<path id="Shape2DView_nwe0003"  d="M 0.5 0.25 L 3.0 0.25 " stroke="#191919" stroke-width="0.35 px" style="stroke-width:0.35;stroke-miterlimit:4;stroke-dasharray:none;fill:none;fill-opacity:1;fill-rule: evenodd"/>
<path id="Shape2DView_nwe0004"  d="M 22.0 0.25 L 24.5 0.25 " stroke="#191919" stroke-width="0.35 px" style="stroke-width:0.35;stroke-miterlimit:4;stroke-dasharray:none;fill:none;fill-opacity:1;fill-rule: evenodd"/>
<path id="Shape2DView_nwe0005"  d="M 0.0 -0.25000000000000006 L 0.0031438950533786425 -0.25000000000000006 L 0.01253604390908808 -0.25000000000000006 L 0.028058334845816102 -0.25000000000000006 L 0.049515566048790316 -0.25000000000000006 L 0.07663790038585777 -0.25000000000000006 L 0.10908425876598493 -0.25000000000000006 L 0.1464466094067261 -0.25000000000000006 L 0.18825509907063315 -0.25000000000000006 L 0.2339839617423316 -0.25000000000000006 L 0.28305813044122086 -0.25 L 0.33486046902241634 -0.25 L 0.38873953302184266 -0.25 L 0.4440177619483459 -0.25 L 0.49999999999999994 -0.25 " stroke="#191919" stroke-width="0.35 px" style="stroke-width:0.35;stroke-miterlimit:4;stroke-dasharray:none;fill:none;fill-opacity:1;fill-rule: evenodd"/>
<circle cx="3.885780586188e-16" cy="0.0" r="0.25" stroke="#191919" stroke-width="0.35 px" style="stroke-width:0.35;stroke-miterlimit:4;stroke-dasharray:none;fill:none"/>
<path id="Shape2DView_nwe0007"  d="M 25.0 0.25 L 24.996856104946623 0.25 L 24.987463956090913 0.25 L 24.971941665154183 0.25 L 24.95048443395121 0.25 L 24.923362099614142 0.25 L 24.890915741234014 0.25 L 24.853553390593273 0.25 L 24.811744900929366 0.25 L 24.766016038257668 0.25 L 24.71694186955878 0.25 L 24.665139530977584 0.25 L 24.61126046697816 0.25 L 24.555982238051655 0.25 L 24.5 0.25 " stroke="#191919" stroke-width="0.35 px" style="stroke-width:0.35;stroke-miterlimit:4;stroke-dasharray:none;fill:none;fill-opacity:1;fill-rule: evenodd"/>
<path id="Shape2DView_nwe0008"  d="M 25.0 -0.25 A 0.25 0.25 0 0 1 25 0.25" stroke="#191919" stroke-width="0.35 px" style="stroke-width:0.35;stroke-miterlimit:4;stroke-dasharray:none;fill:none;fill-opacity:1;fill-rule: evenodd"/>
<path id="Shape2DView_nwe0009"  d="M 0.5 0.25 L 0.5 0.2437319780454559 L 0.5 0.2252422169756048 L 0.5 0.19545787061700745 L 0.5 0.1558724504646834 L 0.5 0.10847093477938954 L 0.5 0.05563023348907861 L 0.5 1.5308084989341915e-17 L 0.5 -0.055630233489078584 L 0.5 -0.10847093477938952 L 0.5 -0.15587245046468337 L 0.5 -0.19545787061700745 L 0.5 -0.22524221697560476 L 0.5 -0.2437319780454559 L 0.5 -0.25 " stroke="#191919" stroke-width="0.35 px" style="stroke-width:0.35;stroke-miterlimit:4;stroke-dasharray:none;fill:none;fill-opacity:1;fill-rule: evenodd"/>
<path id="Shape2DView_nwe0010"  d="M 24.5 0.25 L 24.5 0.2437319780454559 L 24.5 0.2252422169756048 L 24.5 0.19545787061700745 L 24.5 0.1558724504646834 L 24.5 0.10847093477938954 L 24.5 0.05563023348907861 L 24.5 1.5308084989341915e-17 L 24.5 -0.055630233489078584 L 24.5 -0.10847093477938952 L 24.5 -0.15587245046468337 L 24.5 -0.19545787061700745 L 24.5 -0.22524221697560476 L 24.5 -0.2437319780454559 L 24.5 -0.25 " stroke="#191919" stroke-width="0.35 px" style="stroke-width:0.35;stroke-miterlimit:4;stroke-dasharray:none;fill:none;fill-opacity:1;fill-rule: evenodd"/>
<path id="Shape2DView_nwe0011"  d="M 22.0 -4.0 L 3.0 -4.0 " stroke="#191919" stroke-width="0.35 px" style="stroke-width:0.35;stroke-miterlimit:4;stroke-dasharray:none;fill:none;fill-opacity:1;fill-rule: evenodd"/>
<path id="Shape2DView_nwe0012"  d="M 3.0 -0.25 L 0.5 -0.25 " stroke="#191919" stroke-width="0.35 px" style="stroke-width:0.35;stroke-miterlimit:4;stroke-dasharray:none;fill:none;fill-opacity:1;fill-rule: evenodd"/>
<path id="Shape2DView_nwe0013"  d="M 24.5 -0.25 L 22.0 -0.25 " stroke="#191919" stroke-width="0.35 px" style="stroke-width:0.35;stroke-miterlimit:4;stroke-dasharray:none;fill:none;fill-opacity:1;fill-rule: evenodd"/>
<path id="Shape2DView_nwe0014"  d="M 24.5 -0.2499999999999997 Q 24.955507761809045 -0.24999999999999994 25.0 -0.24999999999999997 " stroke="#191919" stroke-width="0.35 px" style="stroke-width:0.35;stroke-miterlimit:4;stroke-dasharray:none;fill:none;fill-opacity:1;fill-rule: evenodd"/>
<title>b'Shape2DView'</title>
</g>
<g id="Rectangle" transform="translate(0.503141,4.254964) scale(1,-1)">
<rect fill="#ff0000" id="origin" width="1" height="1" x="0" y="0" />
<title>b'Rectangle'</title>
</g>
</svg>