<?xml version="1.0"?>
<!DOCTYPE svg PUBLIC "-//W3C//DTD SVG 1.1//EN" "http://www.w3.org/Graphics/SVG/1.1/DTD/svg11.dtd">
<svg width="3.060000000000245mm" height="2.0600000000000054mm" viewBox="0 0 3.060000000000245 2.0600000000000054" xmlns="http://www.w3.org/2000/svg" version="1.1">
<g id="Shape2DView" transform="translate(0.280000,1.030000) scale(1,-1)">
<path id="Shape2DView_nwe0000"  d="M 2.6500000000002917 -0.1999999999997814 A 0.25 0.25 0 0 1 2.65 0.2" stroke="#191919" stroke-width="0.35 px" style="stroke-width:0.35;stroke-miterlimit:4;stroke-dasharray:none;fill:none;fill-opacity:1;fill-rule: evenodd"/>
<path id="Shape2DView_nwe0001"  d="M -0.2500000000002405 5.768718835952313e-13 A 1.625 1.625 0 0 1 1.25 -1" stroke="#191919" stroke-width="0.35 px" style="stroke-width:0.35;stroke-miterlimit:4;stroke-dasharray:none;fill:none;fill-opacity:1;fill-rule: evenodd"/>
<path id="Shape2DView_nwe0002"  d="M 2.75 2.22044604925e-16 L 2.7123918682727357 2.22044604925e-16 L 2.6014533018536286 2.22044604925e-16 L 2.4227472237020446 2.22044604925e-16 L 2.1852347027881005 2.22044604925e-16 L 1.9008256086763375 2.22044604925e-16 L 1.583781400934472 2.22044604925e-16 L 1.2500000000000002 2.22044604925e-16 L 0.9162185990655287 2.22044604925e-16 L 0.5991743913236631 2.22044604925e-16 L 0.31476529721189994 2.22044604925e-16 L 0.07725277629795535 2.22044604925e-16 L -0.10145330185362855 2.22044604925e-16 L -0.21239186827273526 2.22044604925e-16 L -0.25 2.22044604925e-16 " stroke="#191919" stroke-width="0.35 px" style="stroke-width:0.35;stroke-miterlimit:4;stroke-dasharray:none;fill:none;fill-opacity:1;fill-rule: evenodd"/>
<path id="Shape2DView_nwe0003"  d="M 1.2499999999999996 1.0 A 1.625 1.625 0 0 1 -0.25 1.11022e-16" stroke="#191919" stroke-width="0.35 px" style="stroke-width:0.35;stroke-miterlimit:4;stroke-dasharray:none;fill:none;fill-opacity:1;fill-rule: evenodd"/>
<path id="Shape2DView_nwe0004"  d="M -0.15000000000029132 0.19999999999978146 A 0.25 0.25 0 0 1 -0.15 -0.2" stroke="#191919" stroke-width="0.35 px" style="stroke-width:0.35;stroke-miterlimit:4;stroke-dasharray:none;fill:none;fill-opacity:1;fill-rule: evenodd"/>
<path id="Shape2DView_nwe0006"  d="M 1.25 -1.0 A 1.625 1.625 0 0 1 2.75 2.22045e-16" stroke="#191919" stroke-width="0.35 px" style="stroke-width:0.35;stroke-miterlimit:4;stroke-dasharray:none;fill:none;fill-opacity:1;fill-rule: evenodd"/>
<path id="Shape2DView_nwe0007"  d="M 2.75 3.3306690738754696e-16 A 1.625 1.625 0 0 1 1.25 1" stroke="#191919" stroke-width="0.35 px" style="stroke-width:0.35;stroke-miterlimit:4;stroke-dasharray:none;fill:none;fill-opacity:1;fill-rule: evenodd"/>
<title>b'Shape2DView'</title>
</g>
<g id="Rectangle" transform="translate(0.280000,1.030000) scale(1,-1)">
<rect fill="#ff0000" id="origin" width="1" height="1" x="0" y="0" />
<title>b'Rectangle'</title>
</g>
</svg>