<?xml version="1.0"?>
<!DOCTYPE svg PUBLIC "-//W3C//DTD SVG 1.1//EN" "http://www.w3.org/Graphics/SVG/1.1/DTD/svg11.dtd">
<svg width="12.239999999999998mm" height="4.640000000000001mm" viewBox="0 0 12.239999999999998 4.640000000000001" xmlns="http://www.w3.org/2000/svg" version="1.1">
<g id="Shape2DView" transform="translate(2.245000,2.320000) scale(1,-1)">
<path id="Shape2DView_nwe0000"  d="M 3.8750000000000058 2.2 A 9.28182 9.28182 0 0 1 -2.125 -3.19744e-14" stroke="#191919" stroke-width="0.35 px" style="stroke-width:0.35;stroke-miterlimit:4;stroke-dasharray:none;fill:none;fill-opacity:1;fill-rule: evenodd"/>
<path id="Shape2DView_nwe0001"  d="M 9.875 1.33226762955e-15 L 9.724567473090941 1.33226762955e-15 L 9.280813207414514 1.33226762955e-15 L 8.565988894808179 1.33226762955e-15 L 7.615938811152402 1.33226762955e-15 L 6.47830243470535 1.33226762955e-15 L 5.210125603737888 1.33226762955e-15 L 3.875000000000001 1.33226762955e-15 L 2.539874396262115 1.33226762955e-15 L 1.2716975652946525 1.33226762955e-15 L 0.13406118884759977 1.33226762955e-15 L -0.8159888948081786 1.33226762955e-15 L -1.5308132074145142 1.33226762955e-15 L -1.974567473090941 1.33226762955e-15 L -2.125 1.33226762955e-15 " stroke="#191919" stroke-width="0.35 px" style="stroke-width:0.35;stroke-miterlimit:4;stroke-dasharray:none;fill:none;fill-opacity:1;fill-rule: evenodd"/>
<path id="Shape2DView_nwe0002"  d="M -2.124999999996019 -3.3164582191602676e-12 A 9.28182 9.28182 0 0 1 3.875 -2.2" stroke="#191919" stroke-width="0.35 px" style="stroke-width:0.35;stroke-miterlimit:4;stroke-dasharray:none;fill:none;fill-opacity:1;fill-rule: evenodd"/>
<path id="Shape2DView_nwe0003"  d="M 9.874999999999972 -3.108624468950438e-14 A 9.28182 9.28182 0 0 1 3.875 2.2" stroke="#191919" stroke-width="0.35 px" style="stroke-width:0.35;stroke-miterlimit:4;stroke-dasharray:none;fill:none;fill-opacity:1;fill-rule: evenodd"/>
<path id="Shape2DView_nwe0004"  d="M 3.875 -2.2 A 9.28182 9.28182 0 0 1 9.875 3.19744e-14" stroke="#191919" stroke-width="0.35 px" style="stroke-width:0.35;stroke-miterlimit:4;stroke-dasharray:none;fill:none;fill-opacity:1;fill-rule: evenodd"/>
<title>b'Shape2DView'</title>
</g>
<g id="Rectangle" transform="translate(2.245000,2.320000) scale(1,-1)">
<rect fill="#ff0000" id="origin" width="1" height="1" x="0" y="0" />
<title>b'Rectangle'</title>
</g>
</svg>