<?xml version="1.0"?>
<!DOCTYPE svg PUBLIC "-//W3C//DTD SVG 1.1//EN" "http://www.w3.org/Graphics/SVG/1.1/DTD/svg11.dtd">
<svg width="10.710000000000852mm" height="5.210000000000018mm" viewBox="0 0 10.710000000000852 5.210000000000018" xmlns="http://www.w3.org/2000/svg" version="1.1">
<g id="Shape2DView" transform="translate(1.605000,2.605000) scale(1,-1)">
<path id="Shape2DView_nwe0000"  d="M -1.5000000000008358 1.028510610012745e-12 A 6.7625 6.7625 0 0 1 3.75 -2.5" stroke="#191919" stroke-width="0.35 px" style="stroke-width:0.35;stroke-miterlimit:4;stroke-dasharray:none;fill:none;fill-opacity:1;fill-rule: evenodd"/>
<path id="Shape2DView_nwe0001"  d="M 9.0 -4.440892080918e-16 L 8.868371538954573 -4.440892080918e-16 L 8.4800865564877 -4.440892080918e-16 L 7.854615282957157 -4.440892080918e-16 L 7.0233214597583515 -4.440892080918e-16 L 6.027889630367181 -4.440892080918e-16 L 4.918234903270651 -4.440892080918e-16 L 3.750000000000001 -4.440892080918e-16 L 2.5817650967293506 -4.440892080918e-16 L 1.4721103696328206 -4.440892080918e-16 L 0.4766785402416498 -4.440892080918e-16 L -0.3546152829571563 -4.440892080918e-16 L -0.9800865564877004 -4.440892080918e-16 L -1.3683715389545732 -4.440892080918e-16 L -1.5 -4.440892080918e-16 " stroke="#191919" stroke-width="0.35 px" style="stroke-width:0.35;stroke-miterlimit:4;stroke-dasharray:none;fill:none;fill-opacity:1;fill-rule: evenodd"/>
<path id="Shape2DView_nwe0002"  d="M 3.749999999999994 2.5 A 6.7625 6.7625 0 0 1 -1.5 0" stroke="#191919" stroke-width="0.35 px" style="stroke-width:0.35;stroke-miterlimit:4;stroke-dasharray:none;fill:none;fill-opacity:1;fill-rule: evenodd"/>
<path id="Shape2DView_nwe0003"  d="M 3.75 -2.5 A 6.7625 6.7625 0 0 1 9 0" stroke="#191919" stroke-width="0.35 px" style="stroke-width:0.35;stroke-miterlimit:4;stroke-dasharray:none;fill:none;fill-opacity:1;fill-rule: evenodd"/>
<path id="Shape2DView_nwe0004"  d="M 9.0 0.0 A 6.7625 6.7625 0 0 1 3.75 2.5" stroke="#191919" stroke-width="0.35 px" style="stroke-width:0.35;stroke-miterlimit:4;stroke-dasharray:none;fill:none;fill-opacity:1;fill-rule: evenodd"/>
<title>b'Shape2DView'</title>
</g>
<g id="Rectangle" transform="translate(1.605000,2.605000) scale(1,-1)">
<rect fill="#ff0000" id="origin" width="1" height="1" x="0" y="0" />
<title>b'Rectangle'</title>
</g>
</svg>