<?xml version="1.0"?>
<!DOCTYPE svg PUBLIC "-//W3C//DTD SVG 1.1//EN" "http://www.w3.org/Graphics/SVG/1.1/DTD/svg11.dtd">
<svg width="16.320000000000594mm" height="5.320000000000012mm" viewBox="0 0 16.320000000000594 5.320000000000012" xmlns="http://www.w3.org/2000/svg" version="1.1">
<g id="Shape2DView" transform="translate(3.160000,2.660000) scale(1,-1)">
<path id="Shape2DView_nwe0000"  d="M -3.0000000000005773 3.9968028886505635e-13 A 14.05 14.05 0 0 1 5 -2.5" stroke="#191919" stroke-width="0.35 px" style="stroke-width:0.35;stroke-miterlimit:4;stroke-dasharray:none;fill:none;fill-opacity:1;fill-rule: evenodd"/>
<path id="Shape2DView_nwe0001"  d="M 13.0 -8.881784161837e-16 L 12.799423297454588 -8.881784161837e-16 L 12.207750943219352 -8.881784161837e-16 L 11.254651859744236 -8.881784161837e-16 L 9.98791841486987 -8.881784161837e-16 L 8.471069912940466 -8.881784161837e-16 L 6.7801674716505165 -8.881784161837e-16 L 5.000000000000002 -8.881784161837e-16 L 3.219832528349486 -8.881784161837e-16 L 1.5289300870595364 -8.881784161837e-16 L 0.012081585130133021 -8.881784161837e-16 L -1.2546518597442375 -8.881784161837e-16 L -2.2077509432193523 -8.881784161837e-16 L -2.799423297454588 -8.881784161837e-16 L -3.0 -8.881784161837e-16 " stroke="#191919" stroke-width="0.35 px" style="stroke-width:0.35;stroke-miterlimit:4;stroke-dasharray:none;fill:none;fill-opacity:1;fill-rule: evenodd"/>
<path id="Shape2DView_nwe0002"  d="M 4.999999999999988 2.5 A 14.05 14.05 0 0 1 -3 0" stroke="#191919" stroke-width="0.35 px" style="stroke-width:0.35;stroke-miterlimit:4;stroke-dasharray:none;fill:none;fill-opacity:1;fill-rule: evenodd"/>
<path id="Shape2DView_nwe0003"  d="M 5.0 -2.5 A 14.05 14.05 0 0 1 13 -1.77636e-15" stroke="#191919" stroke-width="0.35 px" style="stroke-width:0.35;stroke-miterlimit:4;stroke-dasharray:none;fill:none;fill-opacity:1;fill-rule: evenodd"/>
<path id="Shape2DView_nwe0004"  d="M 13.000000000000004 -1.7763568394002505e-15 A 14.05 14.05 0 0 1 5 2.5" stroke="#191919" stroke-width="0.35 px" style="stroke-width:0.35;stroke-miterlimit:4;stroke-dasharray:none;fill:none;fill-opacity:1;fill-rule: evenodd"/>
<title>b'Shape2DView'</title>
</g>
<g id="Rectangle" transform="translate(3.160000,2.660000) scale(1,-1)">
<rect fill="#ff0000" id="origin" width="1" height="1" x="0" y="0" />
<title>b'Rectangle'</title>
</g>
</svg>