<?xml version="1.0"?>
<!DOCTYPE svg PUBLIC "-//W3C//DTD SVG 1.1//EN" "http://www.w3.org/Graphics/SVG/1.1/DTD/svg11.dtd">
<svg width="5.606281525790007mm" height="2.609927088740981mm" viewBox="0 0 5.606281525790007 2.609927088740981" xmlns="http://www.w3.org/2000/svg" version="1.1">
<g id="Shape2DView" transform="translate(0.303141,1.304964) scale(1,-1)">
<path id="Shape2DView_nwe0000"  d="M 0.0 -0.25000000000000006 L 0.00034964760580069587 -0.25000000000000006 L 0.0013981014094099353 -0.25000000000000006 L 0.003143895053378698 -0.25000000000000006 L 0.0055845868874357385 -0.25000000000000006 L 0.008716763383355863 -0.25000000000000006 L 0.012536043909088135 -0.25000000000000006 L 0.017037086855465733 -0.25000000000000006 L 0.022213597106929495 -0.25000000000000006 L 0.028058334845816102 -0.25000000000000006 L 0.03456312567789771 -0.25000000000000006 L 0.041718872065011736 -0.25000000000000006 L 0.049515566048790205 -0.25000000000000006 L 0.05794230324769484 -0.25000000000000006 L 0.06698729810778042 -0.25000000000000006 " stroke="#191919" stroke-width="0.35 px" style="stroke-width:0.35;stroke-miterlimit:4;stroke-dasharray:none;fill:none;fill-opacity:1;fill-rule: evenodd"/>
<path id="Shape2DView_nwe0001"  d="M 1.6939404805685882e-16 0.25 A 0.25 0.25 0 0 1 1.33057e-16 -0.25" stroke="#191919" stroke-width="0.35 px" style="stroke-width:0.35;stroke-miterlimit:4;stroke-dasharray:none;fill:none;fill-opacity:1;fill-rule: evenodd"/>
<path id="Shape2DView_nwe0002"  d="M 0.06698729810778 -0.25 L 0.339444515870976 -0.24999999999999997 " stroke="#191919" stroke-width="0.35 px" style="stroke-width:0.35;stroke-miterlimit:4;stroke-dasharray:none;fill:none;fill-opacity:1;fill-rule: evenodd"/>
<path id="Shape2DView_nwe0003"  d="M 0.14999999999990443 1.4055423491754482e-13 A 2.834 2.834 0 0 1 2.5 -1.25" stroke="#191919" stroke-width="0.35 px" style="stroke-width:0.35;stroke-miterlimit:4;stroke-dasharray:none;fill:none;fill-opacity:1;fill-rule: evenodd"/>
<path id="Shape2DView_nwe0004"  d="M 4.85 -2.22044604925e-16 L 4.791080593627285 -2.22044604925e-16 L 4.617276839570685 -2.22044604925e-16 L 4.33730398379987 -2.22044604925e-16 L 3.9652010343680244 -2.22044604925e-16 L 3.519626786926262 -2.22044604925e-16 L 3.0229241947973393 -2.22044604925e-16 L 2.5000000000000004 -2.22044604925e-16 L 1.9770758052026616 -2.22044604925e-16 L 1.4803732130737388 -2.22044604925e-16 L 1.0347989656319765 -2.22044604925e-16 L 0.6626960162001301 -2.22044604925e-16 L 0.3827231604293151 -2.22044604925e-16 L 0.2089194063727149 -2.22044604925e-16 L 0.1499999999999999 -2.22044604925e-16 " stroke="#191919" stroke-width="0.35 px" style="stroke-width:0.35;stroke-miterlimit:4;stroke-dasharray:none;fill:none;fill-opacity:1;fill-rule: evenodd"/>
<path id="Shape2DView_nwe0005"  d="M 2.499999999999999 1.25 A 2.834 2.834 0 0 1 0.15 -2.22045e-16" stroke="#191919" stroke-width="0.35 px" style="stroke-width:0.35;stroke-miterlimit:4;stroke-dasharray:none;fill:none;fill-opacity:1;fill-rule: evenodd"/>
<path id="Shape2DView_nwe0006"  d="M 4.933012701892 0.25 L 4.6605554841290235 0.25 " stroke="#191919" stroke-width="0.35 px" style="stroke-width:0.35;stroke-miterlimit:4;stroke-dasharray:none;fill:none;fill-opacity:1;fill-rule: evenodd"/>
<path id="Shape2DView_nwe0007"  d="M 5.0 0.25 L 4.999650352394199 0.25 L 4.998601898590589 0.25 L 4.996856104946619 0.25 L 4.994415413112559 0.25 L 4.991283236616637 0.25 L 4.9874639560909015 0.25 L 4.98296291314452 0.25 L 4.977786402893052 0.25 L 4.97194166515416 0.25 L 4.965436874322074 0.25 L 4.958281127934954 0.25 L 4.950484433951169 0.25 L 4.942057696752258 0.25 L 4.933012701892165 0.25 " stroke="#191919" stroke-width="0.35 px" style="stroke-width:0.35;stroke-miterlimit:4;stroke-dasharray:none;fill:none;fill-opacity:1;fill-rule: evenodd"/>
<path id="Shape2DView_nwe0008"  d="M 5.0 -0.25 A 0.25 0.25 0 0 1 5 0.25" stroke="#191919" stroke-width="0.35 px" style="stroke-width:0.35;stroke-miterlimit:4;stroke-dasharray:none;fill:none;fill-opacity:1;fill-rule: evenodd"/>
<path id="Shape2DView_nwe0010"  d="M 0.06698729810778 0.25 A 0.25 0.216506 -90 0 1 0.0669873 -0.25" stroke="#191919" stroke-width="0.35 px" style="stroke-width:0.35;stroke-miterlimit:4;stroke-dasharray:none;fill:none;fill-opacity:1;fill-rule: evenodd"/>
<path id="Shape2DView_nwe0011"  d="M 4.933012701892 -0.25 A 0.25 0.216506 90 0 1 4.93301 0.25" stroke="#191919" stroke-width="0.35 px" style="stroke-width:0.35;stroke-miterlimit:4;stroke-dasharray:none;fill:none;fill-opacity:1;fill-rule: evenodd"/>
<path id="Shape2DView_nwe0012"  d="M 0.06698729810778059 0.25000000000000006 L 1.6653345369377348e-16 0.24999999999999997 " stroke="#191919" stroke-width="0.35 px" style="stroke-width:0.35;stroke-miterlimit:4;stroke-dasharray:none;fill:none;fill-opacity:1;fill-rule: evenodd"/>
<path id="Shape2DView_nwe0013"  d="M 0.33944451587097557 0.25000000000000006 L 0.06698729810777995 0.25 " stroke="#191919" stroke-width="0.35 px" style="stroke-width:0.35;stroke-miterlimit:4;stroke-dasharray:none;fill:none;fill-opacity:1;fill-rule: evenodd"/>
<path id="Shape2DView_nwe0014"  d="M 2.5 -1.25 A 2.834 2.834 0 0 1 4.85 -4.44089e-16" stroke="#191919" stroke-width="0.35 px" style="stroke-width:0.35;stroke-miterlimit:4;stroke-dasharray:none;fill:none;fill-opacity:1;fill-rule: evenodd"/>
<path id="Shape2DView_nwe0015"  d="M 4.8500000000000005 -6.661338147750939e-16 A 2.834 2.834 0 0 1 2.5 1.25" stroke="#191919" stroke-width="0.35 px" style="stroke-width:0.35;stroke-miterlimit:4;stroke-dasharray:none;fill:none;fill-opacity:1;fill-rule: evenodd"/>
<path id="Shape2DView_nwe0016"  d="M 4.6605554841290235 -0.25 L 4.933012701892 -0.25 " stroke="#191919" stroke-width="0.35 px" style="stroke-width:0.35;stroke-miterlimit:4;stroke-dasharray:none;fill:none;fill-opacity:1;fill-rule: evenodd"/>
<path id="Shape2DView_nwe0017"  d="M 4.933012701892165 -0.25 L 5.0 -0.25 " stroke="#191919" stroke-width="0.35 px" style="stroke-width:0.35;stroke-miterlimit:4;stroke-dasharray:none;fill:none;fill-opacity:1;fill-rule: evenodd"/>
<title>b'Shape2DView'</title>
</g>
<g id="Rectangle" transform="translate(0.303141,1.304964) scale(1,-1)">
<rect fill="#ff0000" id="origin" width="1" height="1" x="0" y="0" />
<title>b'Rectangle'</title>
</g>
</svg>