<?xml version="1.0"?>
<!DOCTYPE svg PUBLIC "-//W3C//DTD SVG 1.1//EN" "http://www.w3.org/Graphics/SVG/1.1/DTD/svg11.dtd">
<svg width="8.358794136106011mm" height="5.163897924237373mm" viewBox="0 0 8.358794136106011 5.163897924237373" xmlns="http://www.w3.org/2000/svg" version="1.1">
<g id="Shape2DView" transform="translate(0.429397,2.581949) scale(1,-1)">
<path id="Shape2DView_nwe0000"  d="M 7.5 0.35 L 7.499510493351878 0.35 L 7.498042658026826 0.35 L 7.495598546925268 0.35 L 7.492181578357587 0.35 L 7.487796531263298 0.35 L 7.482449538527272 0.35 L 7.476148078402341 0.35 L 7.468900964050289 0.35 L 7.460718331215846 0.35 L 7.451611624050929 0.35 L 7.441593579108966 0.35 L 7.430678207531673 0.35 L 7.418880775453204 0.35 L 7.40621778264908 0.35 " stroke="#191919" stroke-width="0.35 px" style="stroke-width:0.35;stroke-miterlimit:4;stroke-dasharray:none;fill:none;fill-opacity:1;fill-rule: evenodd"/>
<path id="Shape2DView_nwe0001"  d="M 7.5 -0.35 A 0.35 0.35 0 0 1 7.5 0.35" stroke="#191919" stroke-width="0.35 px" style="stroke-width:0.35;stroke-miterlimit:4;stroke-dasharray:none;fill:none;fill-opacity:1;fill-rule: evenodd"/>
<path id="Shape2DView_nwe0002"  d="M 7.406217782649 0.35 L 7.33416656978997 0.35 " stroke="#191919" stroke-width="0.35 px" style="stroke-width:0.35;stroke-miterlimit:4;stroke-dasharray:none;fill:none;fill-opacity:1;fill-rule: evenodd"/>
<path id="Shape2DView_nwe0003"  d="M 3.7499999999999982 2.5 A 4.0625 4.0625 0 0 1 0 -4.44089e-16" stroke="#191919" stroke-width="0.35 px" style="stroke-width:0.35;stroke-miterlimit:4;stroke-dasharray:none;fill:none;fill-opacity:1;fill-rule: evenodd"/>
<path id="Shape2DView_nwe0004"  d="M 7.5 1.110223040926e-16 L 7.405979670681839 1.110223040926e-16 L 7.128633254634073 1.110223040926e-16 L 6.6818680592551125 1.110223040926e-16 L 6.0880867569702515 1.110223040926e-16 L 5.377064021690844 1.110223040926e-16 L 4.58445350233618 1.110223040926e-16 L 3.750000000000001 1.110223040926e-16 L 2.9155464976638217 1.110223040926e-16 L 2.1229359783091577 1.110223040926e-16 L 1.4119132430297499 1.110223040926e-16 L 0.8181319407448888 1.110223040926e-16 L 0.3713667453659286 1.110223040926e-16 L 0.09402032931816162 1.110223040926e-16 L 0.0 1.110223040926e-16 " stroke="#191919" stroke-width="0.35 px" style="stroke-width:0.35;stroke-miterlimit:4;stroke-dasharray:none;fill:none;fill-opacity:1;fill-rule: evenodd"/>
<path id="Shape2DView_nwe0005"  d="M -6.012967901369848e-13 1.4421797089880783e-12 A 4.0625 4.0625 0 0 1 3.75 -2.5" stroke="#191919" stroke-width="0.35 px" style="stroke-width:0.35;stroke-miterlimit:4;stroke-dasharray:none;fill:none;fill-opacity:1;fill-rule: evenodd"/>
<path id="Shape2DView_nwe0006"  d="M 0.09378221735089 -0.35 L 0.16583343021002994 -0.35 " stroke="#191919" stroke-width="0.35 px" style="stroke-width:0.35;stroke-miterlimit:4;stroke-dasharray:none;fill:none;fill-opacity:1;fill-rule: evenodd"/>
<path id="Shape2DView_nwe0007"  d="M 0.0 -0.35000000000000003 L 0.0004895066481209742 -0.35000000000000003 L 0.001957341973173876 -0.35000000000000003 L 0.004401453074730166 -0.35000000000000003 L 0.007818421642409978 -0.35000000000000003 L 0.012203468736698087 -0.35000000000000003 L 0.017550461472723322 -0.35000000000000003 L 0.023851921597652037 -0.35000000000000003 L 0.031099035949701315 -0.35000000000000003 L 0.03928166878414241 -0.35000000000000003 L 0.04838837594905665 -0.35000000000000003 L 0.05840642089101622 -0.35000000000000003 L 0.06932179246830616 -0.35000000000000003 L 0.08111922454677256 -0.35000000000000003 L 0.09378221735089232 -0.35000000000000003 " stroke="#191919" stroke-width="0.35 px" style="stroke-width:0.35;stroke-miterlimit:4;stroke-dasharray:none;fill:none;fill-opacity:1;fill-rule: evenodd"/>
<path id="Shape2DView_nwe0008"  d="M 3.176040772391236e-17 0.35 A 0.35 0.35 0 0 1 -1.91119e-17 -0.35" stroke="#191919" stroke-width="0.35 px" style="stroke-width:0.35;stroke-miterlimit:4;stroke-dasharray:none;fill:none;fill-opacity:1;fill-rule: evenodd"/>
<path id="Shape2DView_nwe0010"  d="M 7.406217782649 -0.35 A 0.35 0.303109 90 0 1 7.40622 0.35" stroke="#191919" stroke-width="0.35 px" style="stroke-width:0.35;stroke-miterlimit:4;stroke-dasharray:none;fill:none;fill-opacity:1;fill-rule: evenodd"/>
<path id="Shape2DView_nwe0011"  d="M 0.09378221735089 0.35 A 0.35 0.303109 -90 0 1 0.0937822 -0.35" stroke="#191919" stroke-width="0.35 px" style="stroke-width:0.35;stroke-miterlimit:4;stroke-dasharray:none;fill:none;fill-opacity:1;fill-rule: evenodd"/>
<path id="Shape2DView_nwe0012"  d="M 7.4062177826490805 -0.35 L 7.5 -0.35 " stroke="#191919" stroke-width="0.35 px" style="stroke-width:0.35;stroke-miterlimit:4;stroke-dasharray:none;fill:none;fill-opacity:1;fill-rule: evenodd"/>
<path id="Shape2DView_nwe0013"  d="M 7.3341665697899705 -0.35 L 7.406217782649 -0.35 " stroke="#191919" stroke-width="0.35 px" style="stroke-width:0.35;stroke-miterlimit:4;stroke-dasharray:none;fill:none;fill-opacity:1;fill-rule: evenodd"/>
<path id="Shape2DView_nwe0014"  d="M 7.5 6.661338147750939e-16 A 4.0625 4.0625 0 0 1 3.75 2.5" stroke="#191919" stroke-width="0.35 px" style="stroke-width:0.35;stroke-miterlimit:4;stroke-dasharray:none;fill:none;fill-opacity:1;fill-rule: evenodd"/>
<path id="Shape2DView_nwe0015"  d="M 3.75 -2.5 A 4.0625 4.0625 0 0 1 7.5 2.22045e-15" stroke="#191919" stroke-width="0.35 px" style="stroke-width:0.35;stroke-miterlimit:4;stroke-dasharray:none;fill:none;fill-opacity:1;fill-rule: evenodd"/>
<path id="Shape2DView_nwe0016"  d="M 0.16583343021002994 0.35 L 0.09378221735088994 0.35 " stroke="#191919" stroke-width="0.35 px" style="stroke-width:0.35;stroke-miterlimit:4;stroke-dasharray:none;fill:none;fill-opacity:1;fill-rule: evenodd"/>
<path id="Shape2DView_nwe0017"  d="M 0.0937822173508922 0.35000000000000003 L 3.469446951953614e-17 0.35 " stroke="#191919" stroke-width="0.35 px" style="stroke-width:0.35;stroke-miterlimit:4;stroke-dasharray:none;fill:none;fill-opacity:1;fill-rule: evenodd"/>
<title>b'Shape2DView'</title>
</g>
<g id="Rectangle" transform="translate(0.429397,2.581949) scale(1,-1)">
<rect fill="#ff0000" id="origin" width="1" height="1" x="0" y="0" />
<title>b'Rectangle'</title>
</g>
</svg>