<?xml version="1.0"?>
<!DOCTYPE svg PUBLIC "-//W3C//DTD SVG 1.1//EN" "http://www.w3.org/Graphics/SVG/1.1/DTD/svg11.dtd">
<svg width="10.90879413610601mm" height="5.213897924237374mm" viewBox="0 0 10.90879413610601 5.213897924237374" xmlns="http://www.w3.org/2000/svg" version="1.1">
<g id="Shape2DView" transform="translate(0.454397,2.606949) scale(1,-1)">
<path id="Shape2DView_nwe0000"  d="M 0.0 -0.35000000000000003 L 0.0004895066481209742 -0.35000000000000003 L 0.001957341973173876 -0.35000000000000003 L 0.004401453074730166 -0.35000000000000003 L 0.007818421642409978 -0.35000000000000003 L 0.012203468736698087 -0.35000000000000003 L 0.017550461472723433 -0.35000000000000003 L 0.023851921597651926 -0.35000000000000003 L 0.031099035949701204 -0.35000000000000003 L 0.0392816687841423 -0.35000000000000003 L 0.04838837594905665 -0.35000000000000003 L 0.05840642089101611 -0.35000000000000003 L 0.06932179246830605 -0.35000000000000003 L 0.08111922454677245 -0.35000000000000003 L 0.0937822173508922 -0.35000000000000003 " stroke="#191919" stroke-width="0.35 px" style="stroke-width:0.35;stroke-miterlimit:4;stroke-dasharray:none;fill:none;fill-opacity:1;fill-rule: evenodd"/>
<path id="Shape2DView_nwe0001"  d="M 3.3707173949578235e-16 0.35 A 0.35 0.35 0 0 1 2.86199e-16 -0.35" stroke="#191919" stroke-width="0.35 px" style="stroke-width:0.35;stroke-miterlimit:4;stroke-dasharray:none;fill:none;fill-opacity:1;fill-rule: evenodd"/>
<path id="Shape2DView_nwe0002"  d="M 0.09378221735089 -0.35 L 1.4164394905536914 -0.3499999999999998 " stroke="#191919" stroke-width="0.35 px" style="stroke-width:0.35;stroke-miterlimit:4;stroke-dasharray:none;fill:none;fill-opacity:1;fill-rule: evenodd"/>
<path id="Shape2DView_nwe0003"  d="M 1.290128602871 2.22044604925e-16 Q 1.4555430770107216 -0.3454548180360038 1.416439490553 -0.35 " stroke="#191919" stroke-width="0.35 px" style="stroke-width:0.35;stroke-miterlimit:4;stroke-dasharray:none;fill:none;fill-opacity:1;fill-rule: evenodd"/>
<path id="Shape2DView_nwe0004"  d="M 1.4164394935789963 0.35000000014145566 Q 1.4652039913818358 0.37395899586848763 1.290128602871 0.0 " stroke="#191919" stroke-width="0.35 px" style="stroke-width:0.35;stroke-miterlimit:4;stroke-dasharray:none;fill:none;fill-opacity:1;fill-rule: evenodd"/>
<path id="Shape2DView_nwe0005"  d="M 8.583560507967542 -0.35000000510741297 Q 8.578248243983005 -0.23636640984801732 8.709871397129 1.6653345369377348e-16 " stroke="#191919" stroke-width="0.35 px" style="stroke-width:0.35;stroke-miterlimit:4;stroke-dasharray:none;fill:none;fill-opacity:1;fill-rule: evenodd"/>
<path id="Shape2DView_nwe0006"  d="M 8.70987139712866 1.110223040926e-16 L 8.522768034021896 1.110223040926e-16 L 8.190307798051665 1.110223040926e-16 L 7.726208702946197 1.110223040926e-16 L 7.149620460668299 1.110223040926e-16 L 6.484334323726772 1.110223040926e-16 L 5.757801407690767 1.110223040926e-16 L 5.000000000000004 1.110223040926e-16 L 4.242198592309241 1.110223040926e-16 L 3.515665676273235 1.110223040926e-16 L 2.8503795393317084 1.110223040926e-16 L 2.273791297053809 1.110223040926e-16 L 1.8096922019483408 1.110223040926e-16 L 1.4772319659781084 1.110223040926e-16 L 1.2901286028713406 1.110223040926e-16 " stroke="#191919" stroke-width="0.35 px" style="stroke-width:0.35;stroke-miterlimit:4;stroke-dasharray:none;fill:none;fill-opacity:1;fill-rule: evenodd"/>
<path id="Shape2DView_nwe0007"  d="M 1.41583343021003 -0.35000000000000053 A 4.0625 4.0625 0 0 1 5 -2.5" stroke="#191919" stroke-width="0.35 px" style="stroke-width:0.35;stroke-miterlimit:4;stroke-dasharray:none;fill:none;fill-opacity:1;fill-rule: evenodd"/>
<path id="Shape2DView_nwe0008"  d="M 4.999999999999998 2.5 A 4.0625 4.0625 0 0 1 1.41583 0.35" stroke="#191919" stroke-width="0.35 px" style="stroke-width:0.35;stroke-miterlimit:4;stroke-dasharray:none;fill:none;fill-opacity:1;fill-rule: evenodd"/>
<path id="Shape2DView_nwe0009"  d="M 8.709871397129 0.0 Q 8.54448003042213 0.34540311201608903 8.583560509447 0.35 " stroke="#191919" stroke-width="0.35 px" style="stroke-width:0.35;stroke-miterlimit:4;stroke-dasharray:none;fill:none;fill-opacity:1;fill-rule: evenodd"/>
<path id="Shape2DView_nwe0010"  d="M 9.906217782649 0.35 L 8.583560509446226 0.35 " stroke="#191919" stroke-width="0.35 px" style="stroke-width:0.35;stroke-miterlimit:4;stroke-dasharray:none;fill:none;fill-opacity:1;fill-rule: evenodd"/>
<path id="Shape2DView_nwe0011"  d="M 10.0 0.35 L 9.99951049335188 0.35 L 9.998042658026826 0.35 L 9.995598546925269 0.35 L 9.992181578357588 0.35 L 9.9877965312633 0.35 L 9.982449538527272 0.35 L 9.97614807840234 0.35 L 9.96890096405029 0.35 L 9.960718331215846 0.35 L 9.95161162405093 0.35 L 9.941593579108968 0.35 L 9.930678207531674 0.35 L 9.918880775453204 0.35 L 9.906217782649081 0.35 " stroke="#191919" stroke-width="0.35 px" style="stroke-width:0.35;stroke-miterlimit:4;stroke-dasharray:none;fill:none;fill-opacity:1;fill-rule: evenodd"/>
<path id="Shape2DView_nwe0012"  d="M 10.0 -0.35 A 0.35 0.35 0 0 1 10 0.35" stroke="#191919" stroke-width="0.35 px" style="stroke-width:0.35;stroke-miterlimit:4;stroke-dasharray:none;fill:none;fill-opacity:1;fill-rule: evenodd"/>
<path id="Shape2DView_nwe0014"  d="M 0.09378221735089 0.35 A 0.35 0.303109 -90 0 1 0.0937822 -0.35" stroke="#191919" stroke-width="0.35 px" style="stroke-width:0.35;stroke-miterlimit:4;stroke-dasharray:none;fill:none;fill-opacity:1;fill-rule: evenodd"/>
<path id="Shape2DView_nwe0015"  d="M 9.906217782649 -0.35 A 0.35 0.303109 90 0 1 9.90622 0.35" stroke="#191919" stroke-width="0.35 px" style="stroke-width:0.35;stroke-miterlimit:4;stroke-dasharray:none;fill:none;fill-opacity:1;fill-rule: evenodd"/>
<path id="Shape2DView_nwe0016"  d="M 0.09378221735089254 0.35000000000000003 L 3.400058012914542e-16 0.35 " stroke="#191919" stroke-width="0.35 px" style="stroke-width:0.35;stroke-miterlimit:4;stroke-dasharray:none;fill:none;fill-opacity:1;fill-rule: evenodd"/>
<path id="Shape2DView_nwe0017"  d="M 1.4164394901133943 0.35000000000000014 L 0.09378221735088994 0.35 " stroke="#191919" stroke-width="0.35 px" style="stroke-width:0.35;stroke-miterlimit:4;stroke-dasharray:none;fill:none;fill-opacity:1;fill-rule: evenodd"/>
<path id="Shape2DView_nwe0018"  d="M 5.0 -2.5 A 4.0625 4.0625 0 0 1 8.58417 -0.35" stroke="#191919" stroke-width="0.35 px" style="stroke-width:0.35;stroke-miterlimit:4;stroke-dasharray:none;fill:none;fill-opacity:1;fill-rule: evenodd"/>
<path id="Shape2DView_nwe0019"  d="M 8.58416656978997 0.34999999999999964 A 4.0625 4.0625 0 0 1 5 2.5" stroke="#191919" stroke-width="0.35 px" style="stroke-width:0.35;stroke-miterlimit:4;stroke-dasharray:none;fill:none;fill-opacity:1;fill-rule: evenodd"/>
<path id="Shape2DView_nwe0020"  d="M 8.583560506069531 -0.35 L 9.906217782649 -0.35 " stroke="#191919" stroke-width="0.35 px" style="stroke-width:0.35;stroke-miterlimit:4;stroke-dasharray:none;fill:none;fill-opacity:1;fill-rule: evenodd"/>
<path id="Shape2DView_nwe0021"  d="M 9.90621778264908 -0.35 L 10.0 -0.35 " stroke="#191919" stroke-width="0.35 px" style="stroke-width:0.35;stroke-miterlimit:4;stroke-dasharray:none;fill:none;fill-opacity:1;fill-rule: evenodd"/>
<title>b'Shape2DView'</title>
</g>
<g id="Rectangle" transform="translate(0.454397,2.606949) scale(1,-1)">
<rect fill="#ff0000" id="origin" width="1" height="1" x="0" y="0" />
<title>b'Rectangle'</title>
</g>
</svg>