<?xml version="1.0"?>
<!DOCTYPE svg PUBLIC "-//W3C//DTD SVG 1.1//EN" "http://www.w3.org/Graphics/SVG/1.1/DTD/svg11.dtd">
<svg width="13.77mm" height="5.27mm" viewBox="0 0 13.77 5.27" xmlns="http://www.w3.org/2000/svg" version="1.1">
<g id="Shape2DView" transform="translate(1.885000,2.635000) scale(1,-1)">
<path id="Shape2DView_nwe0000"  d="M -1.75 -2.0 L -1.75 2.0 " stroke="#191919" stroke-width="0.35 px" style="stroke-width:0.35;stroke-miterlimit:4;stroke-dasharray:none;fill:none;fill-opacity:1;fill-rule: evenodd"/>
<path id="Shape2DView_nwe0001"  d="M -1.25 -2.5 A 0.5 0.5 0 0 0 -1.75 -2" stroke="#191919" stroke-width="0.35 px" style="stroke-width:0.35;stroke-miterlimit:4;stroke-dasharray:none;fill:none;fill-opacity:1;fill-rule: evenodd"/>
<path id="Shape2DView_nwe0002"  d="M 11.25 -2.5 L -1.25 -2.5 " stroke="#191919" stroke-width="0.35 px" style="stroke-width:0.35;stroke-miterlimit:4;stroke-dasharray:none;fill:none;fill-opacity:1;fill-rule: evenodd"/>
<path id="Shape2DView_nwe0003"  d="M -1.75 2.0 A 0.5 0.5 0 0 0 -1.25 2.5" stroke="#191919" stroke-width="0.35 px" style="stroke-width:0.35;stroke-miterlimit:4;stroke-dasharray:none;fill:none;fill-opacity:1;fill-rule: evenodd"/>
<path id="Shape2DView_nwe0004"  d="M -1.25 2.5 L 11.25 2.5 " stroke="#191919" stroke-width="0.35 px" style="stroke-width:0.35;stroke-miterlimit:4;stroke-dasharray:none;fill:none;fill-opacity:1;fill-rule: evenodd"/>
<path id="Shape2DView_nwe0005"  d="M 11.75 2.0 L 11.75 -2.0 " stroke="#191919" stroke-width="0.35 px" style="stroke-width:0.35;stroke-miterlimit:4;stroke-dasharray:none;fill:none;fill-opacity:1;fill-rule: evenodd"/>
<path id="Shape2DView_nwe0006"  d="M 11.75 -2.0 A 0.5 0.5 0 0 0 11.25 -2.5" stroke="#191919" stroke-width="0.35 px" style="stroke-width:0.35;stroke-miterlimit:4;stroke-dasharray:none;fill:none;fill-opacity:1;fill-rule: evenodd"/>
<path id="Shape2DView_nwe0007"  d="M 11.25 2.5 A 0.5 0.5 0 0 0 11.75 2" stroke="#191919" stroke-width="0.35 px" style="stroke-width:0.35;stroke-miterlimit:4;stroke-dasharray:none;fill:none;fill-opacity:1;fill-rule: evenodd"/>
<path id="Shape2DView_nwe0009"  d="M -1.25 -2.0 L -1.25 2.0 " stroke="#191919" stroke-width="0.35 px" style="stroke-width:0.35;stroke-miterlimit:4;stroke-dasharray:none;fill:none;fill-opacity:1;fill-rule: evenodd"/>
<path id="Shape2DView_nwe0010"  d="M -1.25 2.0 L -1.305982238051654 2.0 L -1.3612604669781572 2.0 L -1.4151395309775834 2.0 L -1.466941869558779 2.0 L -1.5160160382576682 2.0 L -1.5617449009293667 2.0 L -1.6035533905932737 2.0 L -1.6409157412340147 2.0 L -1.673362099614142 2.0 L -1.7004844339512095 2.0 L -1.7219416651541837 2.0 L -1.7374639560909118 2.0 L -1.7468561049466214 2.0 L -1.75 2.0 " stroke="#191919" stroke-width="0.35 px" style="stroke-width:0.35;stroke-miterlimit:4;stroke-dasharray:none;fill:none;fill-opacity:1;fill-rule: evenodd"/>
<path id="Shape2DView_nwe0011"  d="M -1.25 -2.0 L -1.305982238051654 -2.0 L -1.3612604669781572 -2.0 L -1.4151395309775834 -2.0 L -1.466941869558779 -2.0 L -1.5160160382576682 -2.0 L -1.5617449009293667 -2.0 L -1.6035533905932737 -2.0 L -1.6409157412340147 -2.0 L -1.673362099614142 -2.0 L -1.7004844339512095 -2.0 L -1.7219416651541837 -2.0 L -1.7374639560909118 -2.0 L -1.7468561049466214 -2.0 L -1.75 -2.0 " stroke="#191919" stroke-width="0.35 px" style="stroke-width:0.35;stroke-miterlimit:4;stroke-dasharray:none;fill:none;fill-opacity:1;fill-rule: evenodd"/>
<path id="Shape2DView_nwe0013"  d="M -1.25 -2.0 L -1.25 -2.055982238051654 L -1.25 -2.111260466978157 L -1.25 -2.1651395309775836 L -1.25 -2.216941869558779 L -1.25 -2.266016038257668 L -1.25 -2.3117449009293667 L -1.25 -2.353553390593274 L -1.25 -2.3909157412340147 L -1.25 -2.423362099614142 L -1.25 -2.4504844339512095 L -1.25 -2.471941665154184 L -1.25 -2.4874639560909118 L -1.25 -2.4968561049466214 L -1.25 -2.5 " stroke="#191919" stroke-width="0.35 px" style="stroke-width:0.35;stroke-miterlimit:4;stroke-dasharray:none;fill:none;fill-opacity:1;fill-rule: evenodd"/>
<path id="Shape2DView_nwe0014"  d="M -1.25 2.0 L 11.25 2.0 " stroke="#191919" stroke-width="0.35 px" style="stroke-width:0.35;stroke-miterlimit:4;stroke-dasharray:none;fill:none;fill-opacity:1;fill-rule: evenodd"/>
<path id="Shape2DView_nwe0015"  d="M 11.25 -2.0 L -1.25 -2.0 " stroke="#191919" stroke-width="0.35 px" style="stroke-width:0.35;stroke-miterlimit:4;stroke-dasharray:none;fill:none;fill-opacity:1;fill-rule: evenodd"/>
<path id="Shape2DView_nwe0016"  d="M 11.25 2.0 L 11.25 -2.0 " stroke="#191919" stroke-width="0.35 px" style="stroke-width:0.35;stroke-miterlimit:4;stroke-dasharray:none;fill:none;fill-opacity:1;fill-rule: evenodd"/>
<path id="Shape2DView_nwe0017"  d="M -1.25 2.0 L -1.25 2.0559822380516537 L -1.25 2.111260466978157 L -1.25 2.1651395309775836 L -1.25 2.216941869558779 L -1.25 2.266016038257668 L -1.25 2.3117449009293667 L -1.25 2.3535533905932735 L -1.25 2.3909157412340147 L -1.25 2.423362099614142 L -1.25 2.4504844339512095 L -1.25 2.471941665154184 L -1.25 2.4874639560909118 L -1.25 2.4968561049466214 L -1.25 2.5 " stroke="#191919" stroke-width="0.35 px" style="stroke-width:0.35;stroke-miterlimit:4;stroke-dasharray:none;fill:none;fill-opacity:1;fill-rule: evenodd"/>
<path id="Shape2DView_nwe0020"  d="M 11.25 -2.0 L 11.25 -2.0559822380516537 L 11.25 -2.111260466978157 L 11.25 -2.1651395309775836 L 11.25 -2.216941869558779 L 11.25 -2.266016038257668 L 11.25 -2.3117449009293667 L 11.25 -2.3535533905932735 L 11.25 -2.3909157412340147 L 11.25 -2.423362099614142 L 11.25 -2.4504844339512095 L 11.25 -2.471941665154184 L 11.25 -2.4874639560909118 L 11.25 -2.4968561049466214 L 11.25 -2.5 " stroke="#191919" stroke-width="0.35 px" style="stroke-width:0.35;stroke-miterlimit:4;stroke-dasharray:none;fill:none;fill-opacity:1;fill-rule: evenodd"/>
<path id="Shape2DView_nwe0021"  d="M 11.25 2.0 L 11.25 2.055982238051654 L 11.25 2.111260466978157 L 11.25 2.1651395309775836 L 11.25 2.216941869558779 L 11.25 2.266016038257668 L 11.25 2.3117449009293667 L 11.25 2.353553390593274 L 11.25 2.3909157412340147 L 11.25 2.423362099614142 L 11.25 2.4504844339512095 L 11.25 2.471941665154184 L 11.25 2.4874639560909118 L 11.25 2.4968561049466214 L 11.25 2.5 " stroke="#191919" stroke-width="0.35 px" style="stroke-width:0.35;stroke-miterlimit:4;stroke-dasharray:none;fill:none;fill-opacity:1;fill-rule: evenodd"/>
<path id="Shape2DView_nwe0022"  d="M 11.25 -2.0 L 11.305982238051653 -2.0 L 11.361260466978157 -2.0 L 11.415139530977584 -2.0 L 11.466941869558779 -2.0 L 11.516016038257668 -2.0 L 11.561744900929368 -2.0 L 11.603553390593273 -2.0 L 11.640915741234014 -2.0 L 11.673362099614142 -2.0 L 11.70048443395121 -2.0 L 11.721941665154183 -2.0 L 11.737463956090911 -2.0 L 11.746856104946621 -2.0 L 11.75 -2.0 " stroke="#191919" stroke-width="0.35 px" style="stroke-width:0.35;stroke-miterlimit:4;stroke-dasharray:none;fill:none;fill-opacity:1;fill-rule: evenodd"/>
<path id="Shape2DView_nwe0023"  d="M 11.25 2.0 L 11.305982238051653 2.0 L 11.361260466978157 2.0 L 11.415139530977584 2.0 L 11.466941869558779 2.0 L 11.516016038257668 2.0 L 11.561744900929366 2.0 L 11.603553390593273 2.0 L 11.640915741234014 2.0 L 11.673362099614142 2.0 L 11.70048443395121 2.0 L 11.721941665154183 2.0 L 11.737463956090911 2.0 L 11.746856104946621 2.0 L 11.75 2.0 " stroke="#191919" stroke-width="0.35 px" style="stroke-width:0.35;stroke-miterlimit:4;stroke-dasharray:none;fill:none;fill-opacity:1;fill-rule: evenodd"/>
<title>b'Shape2DView'</title>
</g>
<g id="Rectangle" transform="translate(1.885000,2.635000) scale(1,-1)">
<rect fill="#ff0000" id="origin" width="1" height="1" x="0" y="0" />
<title>b'Rectangle'</title>
</g>
</svg>