<?xml version="1.0"?>
<!DOCTYPE svg PUBLIC "-//W3C//DTD SVG 1.1//EN" "http://www.w3.org/Graphics/SVG/1.1/DTD/svg11.dtd">
<svg width="18.36mm" height="11.36mm" viewBox="0 0 18.36 11.36" xmlns="http://www.w3.org/2000/svg" version="1.1">
<g id="Shape2DView" transform="translate(1.680000,5.680000) scale(1,-1)">
<path id="Shape2DView_nwe0000"  d="M -1.5 4.4 L -1.5 -4.4 " stroke="#191919" stroke-width="0.35 px" style="stroke-width:0.35;stroke-miterlimit:4;stroke-dasharray:none;fill:none;fill-opacity:1;fill-rule: evenodd"/>
<path id="Shape2DView_nwe0001"  d="M -1.5 -4.4 A 1.1 1.1 0 0 1 -0.4 -5.5" stroke="#191919" stroke-width="0.35 px" style="stroke-width:0.35;stroke-miterlimit:4;stroke-dasharray:none;fill:none;fill-opacity:1;fill-rule: evenodd"/>
<path id="Shape2DView_nwe0002"  d="M -0.4 -5.5 L 15.4 -5.5 " stroke="#191919" stroke-width="0.35 px" style="stroke-width:0.35;stroke-miterlimit:4;stroke-dasharray:none;fill:none;fill-opacity:1;fill-rule: evenodd"/>
<path id="Shape2DView_nwe0003"  d="M -0.4 5.5 A 1.1 1.1 0 0 1 -1.5 4.4" stroke="#191919" stroke-width="0.35 px" style="stroke-width:0.35;stroke-miterlimit:4;stroke-dasharray:none;fill:none;fill-opacity:1;fill-rule: evenodd"/>
<path id="Shape2DView_nwe0004"  d="M 15.4 5.5 L -0.40000000000000036 5.5 " stroke="#191919" stroke-width="0.35 px" style="stroke-width:0.35;stroke-miterlimit:4;stroke-dasharray:none;fill:none;fill-opacity:1;fill-rule: evenodd"/>
<path id="Shape2DView_nwe0005"  d="M 16.5 -4.4 L 16.5 4.4 " stroke="#191919" stroke-width="0.35 px" style="stroke-width:0.35;stroke-miterlimit:4;stroke-dasharray:none;fill:none;fill-opacity:1;fill-rule: evenodd"/>
<path id="Shape2DView_nwe0006"  d="M 15.4 -5.5 A 1.1 1.1 0 0 1 16.5 -4.4" stroke="#191919" stroke-width="0.35 px" style="stroke-width:0.35;stroke-miterlimit:4;stroke-dasharray:none;fill:none;fill-opacity:1;fill-rule: evenodd"/>
<path id="Shape2DView_nwe0007"  d="M 16.5 4.4 A 1.1 1.1 0 0 1 15.4 5.5" stroke="#191919" stroke-width="0.35 px" style="stroke-width:0.35;stroke-miterlimit:4;stroke-dasharray:none;fill:none;fill-opacity:1;fill-rule: evenodd"/>
<path id="Shape2DView_nwe0009"  d="M -0.3999999999999998 4.4 L -0.5231609237136385 4.4 L -0.6447730273519456 4.4 L -0.7633069681506837 4.4 L -0.8772721130293137 4.4 L -0.98523528416687 4.4 L -1.0858387820446067 4.4 L -1.1778174593052022 4.4 L -1.2600146307148328 4.4 L -1.3313966191511124 4.4 L -1.391065754692661 4.4 L -1.4382716633392043 4.4 L -1.4724207034000059 4.4 L -1.493083430882567 4.4 L -1.5 4.4 " stroke="#191919" stroke-width="0.35 px" style="stroke-width:0.35;stroke-miterlimit:4;stroke-dasharray:none;fill:none;fill-opacity:1;fill-rule: evenodd"/>
<path id="Shape2DView_nwe0010"  d="M -0.3999999999999998 -4.4 L -0.5231609237136385 -4.4 L -0.6447730273519456 -4.4 L -0.7633069681506837 -4.4 L -0.8772721130293137 -4.4 L -0.98523528416687 -4.4 L -1.0858387820446067 -4.4 L -1.1778174593052022 -4.4 L -1.2600146307148328 -4.4 L -1.3313966191511124 -4.4 L -1.391065754692661 -4.4 L -1.4382716633392043 -4.4 L -1.4724207034000059 -4.4 L -1.493083430882567 -4.4 L -1.5 -4.4 " stroke="#191919" stroke-width="0.35 px" style="stroke-width:0.35;stroke-miterlimit:4;stroke-dasharray:none;fill:none;fill-opacity:1;fill-rule: evenodd"/>
<path id="Shape2DView_nwe0011"  d="M -0.4 4.4 L -0.4 -4.4 " stroke="#191919" stroke-width="0.35 px" style="stroke-width:0.35;stroke-miterlimit:4;stroke-dasharray:none;fill:none;fill-opacity:1;fill-rule: evenodd"/>
<path id="Shape2DView_nwe0013"  d="M -0.4 -4.4 L -0.4 -4.523160923713639 L -0.4 -4.644773027351946 L -0.4 -4.763306968150684 L -0.4000000000000001 -4.877272113029314 L -0.4000000000000001 -4.985235284166871 L -0.4000000000000001 -5.085838782044608 L -0.4000000000000001 -5.177817459305203 L -0.4000000000000001 -5.260014630714833 L -0.4000000000000001 -5.331396619151112 L -0.4000000000000001 -5.3910657546926615 L -0.4000000000000001 -5.438271663339204 L -0.4000000000000001 -5.472420703400006 L -0.4000000000000001 -5.493083430882567 L -0.4000000000000001 -5.5 " stroke="#191919" stroke-width="0.35 px" style="stroke-width:0.35;stroke-miterlimit:4;stroke-dasharray:none;fill:none;fill-opacity:1;fill-rule: evenodd"/>
<path id="Shape2DView_nwe0014"  d="M -0.4 4.4 L -0.4 4.523160923713639 L -0.4 4.644773027351946 L -0.4 4.763306968150684 L -0.4 4.877272113029314 L -0.4 4.985235284166871 L -0.4 5.085838782044608 L -0.4 5.177817459305203 L -0.4 5.260014630714833 L -0.4 5.331396619151113 L -0.4 5.3910657546926615 L -0.4 5.438271663339204 L -0.4 5.472420703400006 L -0.4 5.493083430882567 L -0.4 5.5 " stroke="#191919" stroke-width="0.35 px" style="stroke-width:0.35;stroke-miterlimit:4;stroke-dasharray:none;fill:none;fill-opacity:1;fill-rule: evenodd"/>
<path id="Shape2DView_nwe0015"  d="M -0.4 -4.4 L 15.4 -4.4 " stroke="#191919" stroke-width="0.35 px" style="stroke-width:0.35;stroke-miterlimit:4;stroke-dasharray:none;fill:none;fill-opacity:1;fill-rule: evenodd"/>
<path id="Shape2DView_nwe0016"  d="M 15.4 -4.4 L 15.4 4.4 " stroke="#191919" stroke-width="0.35 px" style="stroke-width:0.35;stroke-miterlimit:4;stroke-dasharray:none;fill:none;fill-opacity:1;fill-rule: evenodd"/>
<path id="Shape2DView_nwe0017"  d="M 15.4 4.4 L -0.40000000000000036 4.4 " stroke="#191919" stroke-width="0.35 px" style="stroke-width:0.35;stroke-miterlimit:4;stroke-dasharray:none;fill:none;fill-opacity:1;fill-rule: evenodd"/>
<path id="Shape2DView_nwe0020"  d="M 15.4 -4.4 L 15.4 -4.523160923713639 L 15.4 -4.644773027351946 L 15.4 -4.763306968150684 L 15.4 -4.877272113029314 L 15.4 -4.985235284166871 L 15.4 -5.085838782044608 L 15.4 -5.177817459305203 L 15.4 -5.260014630714833 L 15.4 -5.331396619151113 L 15.4 -5.3910657546926615 L 15.4 -5.438271663339204 L 15.4 -5.472420703400006 L 15.4 -5.493083430882567 L 15.4 -5.5 " stroke="#191919" stroke-width="0.35 px" style="stroke-width:0.35;stroke-miterlimit:4;stroke-dasharray:none;fill:none;fill-opacity:1;fill-rule: evenodd"/>
<path id="Shape2DView_nwe0021"  d="M 15.4 4.4 L 15.4 4.523160923713639 L 15.4 4.644773027351946 L 15.4 4.763306968150684 L 15.4 4.877272113029314 L 15.4 4.985235284166871 L 15.4 5.085838782044608 L 15.4 5.177817459305203 L 15.4 5.260014630714833 L 15.4 5.331396619151112 L 15.4 5.3910657546926615 L 15.4 5.438271663339204 L 15.4 5.472420703400006 L 15.4 5.493083430882567 L 15.4 5.5 " stroke="#191919" stroke-width="0.35 px" style="stroke-width:0.35;stroke-miterlimit:4;stroke-dasharray:none;fill:none;fill-opacity:1;fill-rule: evenodd"/>
<path id="Shape2DView_nwe0022"  d="M 15.4 -4.4 L 15.52316092371364 -4.4 L 15.644773027351945 -4.4 L 15.763306968150683 -4.3999999999999995 L 15.877272113029314 -4.3999999999999995 L 15.98523528416687 -4.3999999999999995 L 16.085838782044608 -4.3999999999999995 L 16.177817459305203 -4.3999999999999995 L 16.26001463071483 -4.399999999999999 L 16.331396619151114 -4.399999999999999 L 16.39106575469266 -4.399999999999999 L 16.438271663339204 -4.399999999999999 L 16.472420703400005 -4.399999999999999 L 16.493083430882567 -4.399999999999999 L 16.5 -4.399999999999999 " stroke="#191919" stroke-width="0.35 px" style="stroke-width:0.35;stroke-miterlimit:4;stroke-dasharray:none;fill:none;fill-opacity:1;fill-rule: evenodd"/>
<path id="Shape2DView_nwe0023"  d="M 15.4 4.4 L 15.52316092371364 4.4 L 15.644773027351945 4.4 L 15.763306968150685 4.4 L 15.877272113029314 4.4 L 15.98523528416687 4.4 L 16.085838782044608 4.4 L 16.177817459305203 4.4 L 16.260014630714835 4.4 L 16.331396619151114 4.4 L 16.39106575469266 4.4 L 16.438271663339204 4.4 L 16.472420703400008 4.4 L 16.493083430882567 4.4 L 16.5 4.4 " stroke="#191919" stroke-width="0.35 px" style="stroke-width:0.35;stroke-miterlimit:4;stroke-dasharray:none;fill:none;fill-opacity:1;fill-rule: evenodd"/>
<title>b'Shape2DView'</title>
</g>
<g id="Rectangle" transform="translate(1.680000,5.680000) scale(1,-1)">
<rect fill="#ff0000" id="origin" width="1" height="1" x="0" y="0" />
<title>b'Rectangle'</title>
</g>
</svg>