<?xml version="1.0"?>
<!DOCTYPE svg PUBLIC "-//W3C//DTD SVG 1.1//EN" "http://www.w3.org/Graphics/SVG/1.1/DTD/svg11.dtd">
<svg width="7.65mm" height="6.65mm" viewBox="0 0 7.65 6.65" xmlns="http://www.w3.org/2000/svg" version="1.1">
<g id="Shape2DView" transform="translate(1.325000,3.325000) scale(1,-1)">
<path id="Shape2DView_nwe0000"  d="M -1.25 2.6 L -1.25 -2.6 " stroke="#191919" stroke-width="0.35 px" style="stroke-width:0.35;stroke-miterlimit:4;stroke-dasharray:none;fill:none;fill-opacity:1;fill-rule: evenodd"/>
<path id="Shape2DView_nwe0001"  d="M -1.25 -2.6 A 0.65 0.65 0 0 1 -0.6 -3.25" stroke="#191919" stroke-width="0.35 px" style="stroke-width:0.35;stroke-miterlimit:4;stroke-dasharray:none;fill:none;fill-opacity:1;fill-rule: evenodd"/>
<path id="Shape2DView_nwe0002"  d="M -0.6 -3.25 L 5.6 -3.25 " stroke="#191919" stroke-width="0.35 px" style="stroke-width:0.35;stroke-miterlimit:4;stroke-dasharray:none;fill:none;fill-opacity:1;fill-rule: evenodd"/>
<path id="Shape2DView_nwe0003"  d="M -0.6 3.25 A 0.65 0.65 0 0 1 -1.25 2.6" stroke="#191919" stroke-width="0.35 px" style="stroke-width:0.35;stroke-miterlimit:4;stroke-dasharray:none;fill:none;fill-opacity:1;fill-rule: evenodd"/>
<path id="Shape2DView_nwe0004"  d="M 5.6 3.25 L -0.5999999999999996 3.25 " stroke="#191919" stroke-width="0.35 px" style="stroke-width:0.35;stroke-miterlimit:4;stroke-dasharray:none;fill:none;fill-opacity:1;fill-rule: evenodd"/>
<path id="Shape2DView_nwe0005"  d="M 6.25 -2.6 L 6.25 2.6 " stroke="#191919" stroke-width="0.35 px" style="stroke-width:0.35;stroke-miterlimit:4;stroke-dasharray:none;fill:none;fill-opacity:1;fill-rule: evenodd"/>
<path id="Shape2DView_nwe0006"  d="M 5.6 -3.25 A 0.65 0.65 0 0 1 6.25 -2.6" stroke="#191919" stroke-width="0.35 px" style="stroke-width:0.35;stroke-miterlimit:4;stroke-dasharray:none;fill:none;fill-opacity:1;fill-rule: evenodd"/>
<path id="Shape2DView_nwe0007"  d="M 6.25 2.600000000000001 A 0.65 0.65 0 0 1 5.6 3.25" stroke="#191919" stroke-width="0.35 px" style="stroke-width:0.35;stroke-miterlimit:4;stroke-dasharray:none;fill:none;fill-opacity:1;fill-rule: evenodd"/>
<path id="Shape2DView_nwe0009"  d="M -0.5999999999999999 2.6 L -0.67277690946715 2.6 L -0.7446386070716042 2.6 L -0.8146813902708585 2.6 L -0.8820244304264127 2.6 L -0.9458208497349686 2.6 L -1.0052683712081767 2.6 L -1.0596194077712557 2.6 L -1.1081904636042192 2.6 L -1.1503707294983845 2.6 L -1.1856297641365723 2.6 L -1.213524164700439 2.6 L -1.2337031429181853 2.6 L -1.2459129364306079 2.6 L -1.25 2.6 " stroke="#191919" stroke-width="0.35 px" style="stroke-width:0.35;stroke-miterlimit:4;stroke-dasharray:none;fill:none;fill-opacity:1;fill-rule: evenodd"/>
<path id="Shape2DView_nwe0010"  d="M -0.5999999999999999 -2.6 L -0.67277690946715 -2.6 L -0.7446386070716042 -2.6 L -0.8146813902708585 -2.6 L -0.8820244304264127 -2.6 L -0.9458208497349686 -2.6 L -1.0052683712081767 -2.6 L -1.0596194077712557 -2.6 L -1.1081904636042192 -2.6 L -1.1503707294983845 -2.6 L -1.1856297641365723 -2.6 L -1.213524164700439 -2.6 L -1.2337031429181853 -2.6 L -1.2459129364306079 -2.6 L -1.25 -2.6 " stroke="#191919" stroke-width="0.35 px" style="stroke-width:0.35;stroke-miterlimit:4;stroke-dasharray:none;fill:none;fill-opacity:1;fill-rule: evenodd"/>
<path id="Shape2DView_nwe0011"  d="M -0.6 2.6 L -0.6 -2.6 " stroke="#191919" stroke-width="0.35 px" style="stroke-width:0.35;stroke-miterlimit:4;stroke-dasharray:none;fill:none;fill-opacity:1;fill-rule: evenodd"/>
<path id="Shape2DView_nwe0013"  d="M -0.6 -2.6 L -0.6 -2.6727769094671503 L -0.6 -2.7446386070716042 L -0.6 -2.8146813902708585 L -0.6 -2.8820244304264127 L -0.6 -2.945820849734969 L -0.6 -3.0052683712081767 L -0.6 -3.059619407771256 L -0.6 -3.1081904636042195 L -0.6 -3.150370729498385 L -0.6 -3.1856297641365723 L -0.6 -3.213524164700439 L -0.6 -3.2337031429181855 L -0.6 -3.245912936430608 L -0.6 -3.25 " stroke="#191919" stroke-width="0.35 px" style="stroke-width:0.35;stroke-miterlimit:4;stroke-dasharray:none;fill:none;fill-opacity:1;fill-rule: evenodd"/>
<path id="Shape2DView_nwe0014"  d="M -0.6 2.6 L -0.6 2.6727769094671503 L -0.6 2.7446386070716047 L -0.6 2.8146813902708585 L -0.6 2.882024430426413 L -0.6 2.945820849734969 L -0.6 3.0052683712081767 L -0.6 3.059619407771256 L -0.6 3.1081904636042195 L -0.6 3.150370729498385 L -0.6 3.1856297641365723 L -0.6 3.213524164700439 L -0.6 3.2337031429181855 L -0.6 3.245912936430608 L -0.6 3.25 " stroke="#191919" stroke-width="0.35 px" style="stroke-width:0.35;stroke-miterlimit:4;stroke-dasharray:none;fill:none;fill-opacity:1;fill-rule: evenodd"/>
<path id="Shape2DView_nwe0015"  d="M -0.6 -2.6 L 5.6 -2.6 " stroke="#191919" stroke-width="0.35 px" style="stroke-width:0.35;stroke-miterlimit:4;stroke-dasharray:none;fill:none;fill-opacity:1;fill-rule: evenodd"/>
<path id="Shape2DView_nwe0016"  d="M 5.6 -2.6 L 5.6 2.6 " stroke="#191919" stroke-width="0.35 px" style="stroke-width:0.35;stroke-miterlimit:4;stroke-dasharray:none;fill:none;fill-opacity:1;fill-rule: evenodd"/>
<path id="Shape2DView_nwe0017"  d="M 5.6 2.6 L -0.5999999999999996 2.6 " stroke="#191919" stroke-width="0.35 px" style="stroke-width:0.35;stroke-miterlimit:4;stroke-dasharray:none;fill:none;fill-opacity:1;fill-rule: evenodd"/>
<path id="Shape2DView_nwe0020"  d="M 5.6 -2.6 L 5.6 -2.6727769094671503 L 5.6 -2.7446386070716047 L 5.6 -2.8146813902708585 L 5.6 -2.882024430426413 L 5.6 -2.945820849734969 L 5.6 -3.0052683712081767 L 5.6 -3.059619407771256 L 5.6 -3.1081904636042195 L 5.6 -3.150370729498385 L 5.6 -3.1856297641365723 L 5.6 -3.213524164700439 L 5.6 -3.2337031429181855 L 5.6 -3.245912936430608 L 5.6 -3.25 " stroke="#191919" stroke-width="0.35 px" style="stroke-width:0.35;stroke-miterlimit:4;stroke-dasharray:none;fill:none;fill-opacity:1;fill-rule: evenodd"/>
<path id="Shape2DView_nwe0021"  d="M 5.6 2.6 L 5.6 2.6727769094671503 L 5.6 2.7446386070716042 L 5.6 2.8146813902708585 L 5.6 2.8820244304264127 L 5.6 2.945820849734969 L 5.6 3.0052683712081767 L 5.6 3.059619407771256 L 5.6 3.1081904636042195 L 5.6 3.150370729498385 L 5.6 3.1856297641365723 L 5.6 3.213524164700439 L 5.6 3.2337031429181855 L 5.6 3.245912936430608 L 5.6 3.25 " stroke="#191919" stroke-width="0.35 px" style="stroke-width:0.35;stroke-miterlimit:4;stroke-dasharray:none;fill:none;fill-opacity:1;fill-rule: evenodd"/>
<path id="Shape2DView_nwe0022"  d="M 5.6 -2.6 L 5.672776909467149 -2.6 L 5.744638607071604 -2.6 L 5.8146813902708585 -2.6 L 5.882024430426412 -2.6 L 5.945820849734968 -2.6 L 6.005268371208176 -2.5999999999999996 L 6.0596194077712555 -2.5999999999999996 L 6.108190463604219 -2.5999999999999996 L 6.150370729498384 -2.5999999999999996 L 6.185629764136572 -2.5999999999999996 L 6.213524164700439 -2.5999999999999996 L 6.233703142918185 -2.5999999999999996 L 6.245912936430607 -2.5999999999999996 L 6.25 -2.5999999999999996 " stroke="#191919" stroke-width="0.35 px" style="stroke-width:0.35;stroke-miterlimit:4;stroke-dasharray:none;fill:none;fill-opacity:1;fill-rule: evenodd"/>
<path id="Shape2DView_nwe0023"  d="M 5.6 2.6 L 5.672776909467149 2.6 L 5.744638607071604 2.6 L 5.8146813902708585 2.6 L 5.882024430426412 2.6 L 5.945820849734968 2.6 L 6.005268371208176 2.6 L 6.0596194077712555 2.6 L 6.108190463604219 2.6 L 6.150370729498384 2.6 L 6.185629764136572 2.6 L 6.213524164700439 2.6 L 6.233703142918185 2.6 L 6.245912936430607 2.6 L 6.25 2.6 " stroke="#191919" stroke-width="0.35 px" style="stroke-width:0.35;stroke-miterlimit:4;stroke-dasharray:none;fill:none;fill-opacity:1;fill-rule: evenodd"/>
<title>b'Shape2DView'</title>
</g>
<g id="Rectangle" transform="translate(1.325000,3.325000) scale(1,-1)">
<rect fill="#ff0000" id="origin" width="1" height="1" x="0" y="0" />
<title>b'Rectangle'</title>
</g>
</svg>