<?xml version="1.0"?>
<!DOCTYPE svg PUBLIC "-//W3C//DTD SVG 1.1//EN" "http://www.w3.org/Graphics/SVG/1.1/DTD/svg11.dtd">
<svg width="32.13mm" height="15.63mm" viewBox="0 0 32.13 15.63" xmlns="http://www.w3.org/2000/svg" version="1.1">
<g id="Shape2DView" transform="translate(2.315000,7.815000) scale(1,-1)">
<path id="Shape2DView_nwe0000"  d="M -2.0 6.0 L -2.0 -6.0 " stroke="#191919" stroke-width="0.35 px" style="stroke-width:0.35;stroke-miterlimit:4;stroke-dasharray:none;fill:none;fill-opacity:1;fill-rule: evenodd"/>
<path id="Shape2DView_nwe0001"  d="M -2.0 -6.0 A 1.5 1.5 0 0 1 -0.5 -7.5" stroke="#191919" stroke-width="0.35 px" style="stroke-width:0.35;stroke-miterlimit:4;stroke-dasharray:none;fill:none;fill-opacity:1;fill-rule: evenodd"/>
<path id="Shape2DView_nwe0002"  d="M -0.5 -7.5 L 28.0 -7.5 " stroke="#191919" stroke-width="0.35 px" style="stroke-width:0.35;stroke-miterlimit:4;stroke-dasharray:none;fill:none;fill-opacity:1;fill-rule: evenodd"/>
<path id="Shape2DView_nwe0003"  d="M -0.5 7.5 A 1.5 1.5 0 0 1 -2 6" stroke="#191919" stroke-width="0.35 px" style="stroke-width:0.35;stroke-miterlimit:4;stroke-dasharray:none;fill:none;fill-opacity:1;fill-rule: evenodd"/>
<path id="Shape2DView_nwe0004"  d="M 28.0 7.5 L -0.5 7.5 " stroke="#191919" stroke-width="0.35 px" style="stroke-width:0.35;stroke-miterlimit:4;stroke-dasharray:none;fill:none;fill-opacity:1;fill-rule: evenodd"/>
<path id="Shape2DView_nwe0005"  d="M 29.5 -6.0 L 29.5 6.0 " stroke="#191919" stroke-width="0.35 px" style="stroke-width:0.35;stroke-miterlimit:4;stroke-dasharray:none;fill:none;fill-opacity:1;fill-rule: evenodd"/>
<path id="Shape2DView_nwe0006"  d="M 28.0 -7.5 A 1.5 1.5 0 0 1 29.5 -6" stroke="#191919" stroke-width="0.35 px" style="stroke-width:0.35;stroke-miterlimit:4;stroke-dasharray:none;fill:none;fill-opacity:1;fill-rule: evenodd"/>
<path id="Shape2DView_nwe0007"  d="M 29.5 6.0 A 1.5 1.5 0 0 1 28 7.5" stroke="#191919" stroke-width="0.35 px" style="stroke-width:0.35;stroke-miterlimit:4;stroke-dasharray:none;fill:none;fill-opacity:1;fill-rule: evenodd"/>
<path id="Shape2DView_nwe0009"  d="M -0.4999999999999997 6.0 L -0.6679467141549615 6.0 L -0.8337814009344713 6.0 L -0.9954185929327504 6.0 L -1.1508256086763369 6.0 L -1.2980481147730045 6.0 L -1.4352347027881 6.0 L -1.560660171779821 6.0 L -1.6727472237020446 6.0 L -1.770086298842426 6.0 L -1.8514533018536286 6.0 L -1.9158249954625513 6.0 L -1.9623918682727353 6.0 L -1.9905683148398639 6.0 L -2.0 6.0 " stroke="#191919" stroke-width="0.35 px" style="stroke-width:0.35;stroke-miterlimit:4;stroke-dasharray:none;fill:none;fill-opacity:1;fill-rule: evenodd"/>
<path id="Shape2DView_nwe0010"  d="M -0.4999999999999997 -6.0 L -0.6679467141549615 -6.0 L -0.8337814009344713 -6.0 L -0.9954185929327504 -6.0 L -1.1508256086763369 -6.0 L -1.2980481147730045 -6.0 L -1.4352347027881 -6.0 L -1.560660171779821 -6.0 L -1.6727472237020446 -6.0 L -1.770086298842426 -6.0 L -1.8514533018536286 -6.0 L -1.9158249954625513 -6.0 L -1.9623918682727353 -6.0 L -1.9905683148398639 -6.0 L -2.0 -6.0 " stroke="#191919" stroke-width="0.35 px" style="stroke-width:0.35;stroke-miterlimit:4;stroke-dasharray:none;fill:none;fill-opacity:1;fill-rule: evenodd"/>
<path id="Shape2DView_nwe0011"  d="M -0.5 6.0 L -0.5 -6.0 " stroke="#191919" stroke-width="0.35 px" style="stroke-width:0.35;stroke-miterlimit:4;stroke-dasharray:none;fill:none;fill-opacity:1;fill-rule: evenodd"/>
<path id="Shape2DView_nwe0013"  d="M -0.5 -6.0 L -0.5 -6.1679467141549615 L -0.5 -6.3337814009344715 L -0.5 -6.49541859293275 L -0.5 -6.650825608676337 L -0.5 -6.798048114773005 L -0.5000000000000001 -6.9352347027881 L -0.5000000000000001 -7.060660171779821 L -0.5000000000000001 -7.172747223702045 L -0.5000000000000001 -7.2700862988424255 L -0.5000000000000001 -7.3514533018536286 L -0.5000000000000001 -7.415824995462551 L -0.5000000000000001 -7.462391868272736 L -0.5000000000000001 -7.490568314839864 L -0.5000000000000001 -7.5 " stroke="#191919" stroke-width="0.35 px" style="stroke-width:0.35;stroke-miterlimit:4;stroke-dasharray:none;fill:none;fill-opacity:1;fill-rule: evenodd"/>
<path id="Shape2DView_nwe0014"  d="M -0.5 6.0 L -0.5 6.1679467141549615 L -0.5 6.3337814009344715 L -0.5 6.495418592932751 L -0.5 6.650825608676337 L -0.5 6.798048114773005 L -0.5 6.9352347027881 L -0.5 7.060660171779821 L -0.5 7.172747223702045 L -0.5 7.270086298842426 L -0.5 7.3514533018536286 L -0.5 7.415824995462551 L -0.5 7.462391868272736 L -0.5 7.490568314839864 L -0.5 7.5 " stroke="#191919" stroke-width="0.35 px" style="stroke-width:0.35;stroke-miterlimit:4;stroke-dasharray:none;fill:none;fill-opacity:1;fill-rule: evenodd"/>
<path id="Shape2DView_nwe0015"  d="M -0.5 -6.0 L 28.0 -6.0 " stroke="#191919" stroke-width="0.35 px" style="stroke-width:0.35;stroke-miterlimit:4;stroke-dasharray:none;fill:none;fill-opacity:1;fill-rule: evenodd"/>
<path id="Shape2DView_nwe0016"  d="M 28.0 -6.0 L 28.0 6.0 " stroke="#191919" stroke-width="0.35 px" style="stroke-width:0.35;stroke-miterlimit:4;stroke-dasharray:none;fill:none;fill-opacity:1;fill-rule: evenodd"/>
<path id="Shape2DView_nwe0017"  d="M 28.0 6.0 L -0.5 6.0 " stroke="#191919" stroke-width="0.35 px" style="stroke-width:0.35;stroke-miterlimit:4;stroke-dasharray:none;fill:none;fill-opacity:1;fill-rule: evenodd"/>
<path id="Shape2DView_nwe0020"  d="M 28.0 -6.0 L 28.0 -6.1679467141549615 L 28.0 -6.3337814009344715 L 28.0 -6.495418592932751 L 28.0 -6.650825608676337 L 28.0 -6.798048114773005 L 28.0 -6.9352347027881 L 28.0 -7.060660171779821 L 28.0 -7.172747223702045 L 28.0 -7.270086298842426 L 28.0 -7.3514533018536286 L 28.0 -7.415824995462551 L 28.0 -7.462391868272736 L 28.0 -7.490568314839864 L 28.0 -7.5 " stroke="#191919" stroke-width="0.35 px" style="stroke-width:0.35;stroke-miterlimit:4;stroke-dasharray:none;fill:none;fill-opacity:1;fill-rule: evenodd"/>
<path id="Shape2DView_nwe0021"  d="M 28.0 6.0 L 28.0 6.1679467141549615 L 28.0 6.3337814009344715 L 28.0 6.49541859293275 L 28.0 6.650825608676337 L 28.0 6.798048114773005 L 28.0 6.9352347027881 L 28.0 7.060660171779821 L 28.0 7.172747223702045 L 28.0 7.2700862988424255 L 28.0 7.3514533018536286 L 28.0 7.415824995462551 L 28.0 7.462391868272736 L 28.0 7.490568314839864 L 28.0 7.5 " stroke="#191919" stroke-width="0.35 px" style="stroke-width:0.35;stroke-miterlimit:4;stroke-dasharray:none;fill:none;fill-opacity:1;fill-rule: evenodd"/>
<path id="Shape2DView_nwe0022"  d="M 28.0 -6.0 L 28.16794671415496 -6.0 L 28.33378140093447 -6.0 L 28.49541859293275 -6.0 L 28.650825608676335 -6.0 L 28.798048114773003 -6.0 L 28.9352347027881 -6.0 L 29.060660171779823 -6.0 L 29.172747223702046 -6.0 L 29.270086298842426 -6.0 L 29.351453301853628 -6.0 L 29.41582499546255 -6.0 L 29.462391868272736 -6.0 L 29.490568314839862 -6.0 L 29.5 -6.0 " stroke="#191919" stroke-width="0.35 px" style="stroke-width:0.35;stroke-miterlimit:4;stroke-dasharray:none;fill:none;fill-opacity:1;fill-rule: evenodd"/>
<path id="Shape2DView_nwe0023"  d="M 28.0 6.0 L 28.16794671415496 6.0 L 28.333781400934473 6.0 L 28.49541859293275 6.0 L 28.65082560867634 6.0 L 28.798048114773003 6.0 L 28.9352347027881 6.0 L 29.060660171779823 6.0 L 29.172747223702046 6.0 L 29.270086298842426 6.0 L 29.351453301853628 6.0 L 29.41582499546255 6.0 L 29.462391868272736 6.0 L 29.490568314839862 6.0 L 29.5 6.0 " stroke="#191919" stroke-width="0.35 px" style="stroke-width:0.35;stroke-miterlimit:4;stroke-dasharray:none;fill:none;fill-opacity:1;fill-rule: evenodd"/>
<title>b'Shape2DView'</title>
</g>
<g id="Rectangle" transform="translate(2.315000,7.815000) scale(1,-1)">
<rect fill="#ff0000" id="origin" width="1" height="1" x="0" y="0" />
<title>b'Rectangle'</title>
</g>
</svg>