<?xml version="1.0"?>
<!DOCTYPE svg PUBLIC "-//W3C//DTD SVG 1.1//EN" "http://www.w3.org/Graphics/SVG/1.1/DTD/svg11.dtd">
<svg width="27.54mm" height="11.54mm" viewBox="0 0 27.54 11.54" xmlns="http://www.w3.org/2000/svg" version="1.1">
<g id="Shape2DView" transform="translate(2.770000,5.770000) scale(1,-1)">
<path id="Shape2DView_nwe0000"  d="M -2.5 4.4 L -2.5 -4.4 " stroke="#191919" stroke-width="0.35 px" style="stroke-width:0.35;stroke-miterlimit:4;stroke-dasharray:none;fill:none;fill-opacity:1;fill-rule: evenodd"/>
<path id="Shape2DView_nwe0001"  d="M -2.5 -4.4 A 1.1 1.1 0 0 1 -1.4 -5.5" stroke="#191919" stroke-width="0.35 px" style="stroke-width:0.35;stroke-miterlimit:4;stroke-dasharray:none;fill:none;fill-opacity:1;fill-rule: evenodd"/>
<path id="Shape2DView_nwe0002"  d="M -1.4 -5.5 L 23.4 -5.5 " stroke="#191919" stroke-width="0.35 px" style="stroke-width:0.35;stroke-miterlimit:4;stroke-dasharray:none;fill:none;fill-opacity:1;fill-rule: evenodd"/>
<path id="Shape2DView_nwe0003"  d="M -1.4 5.5 A 1.1 1.1 0 0 1 -2.5 4.4" stroke="#191919" stroke-width="0.35 px" style="stroke-width:0.35;stroke-miterlimit:4;stroke-dasharray:none;fill:none;fill-opacity:1;fill-rule: evenodd"/>
<path id="Shape2DView_nwe0004"  d="M 23.4 5.5 L -1.3999999999999986 5.5 " stroke="#191919" stroke-width="0.35 px" style="stroke-width:0.35;stroke-miterlimit:4;stroke-dasharray:none;fill:none;fill-opacity:1;fill-rule: evenodd"/>
<path id="Shape2DView_nwe0005"  d="M 24.5 -4.4 L 24.5 4.4 " stroke="#191919" stroke-width="0.35 px" style="stroke-width:0.35;stroke-miterlimit:4;stroke-dasharray:none;fill:none;fill-opacity:1;fill-rule: evenodd"/>
<path id="Shape2DView_nwe0006"  d="M 23.4 -5.5 A 1.1 1.1 0 0 1 24.5 -4.4" stroke="#191919" stroke-width="0.35 px" style="stroke-width:0.35;stroke-miterlimit:4;stroke-dasharray:none;fill:none;fill-opacity:1;fill-rule: evenodd"/>
<path id="Shape2DView_nwe0007"  d="M 24.5 4.4 A 1.1 1.1 0 0 1 23.4 5.5" stroke="#191919" stroke-width="0.35 px" style="stroke-width:0.35;stroke-miterlimit:4;stroke-dasharray:none;fill:none;fill-opacity:1;fill-rule: evenodd"/>
<path id="Shape2DView_nwe0009"  d="M -1.3999999999999997 4.4 L -1.5231609237136383 4.4 L -1.6447730273519456 4.4 L -1.7633069681506834 4.4 L -1.8772721130293137 4.4 L -1.98523528416687 4.4 L -2.0858387820446067 4.4 L -2.177817459305202 4.4 L -2.2600146307148328 4.4 L -2.3313966191511124 4.4 L -2.391065754692661 4.4 L -2.4382716633392043 4.4 L -2.472420703400006 4.4 L -2.493083430882567 4.4 L -2.5 4.4 " stroke="#191919" stroke-width="0.35 px" style="stroke-width:0.35;stroke-miterlimit:4;stroke-dasharray:none;fill:none;fill-opacity:1;fill-rule: evenodd"/>
<path id="Shape2DView_nwe0010"  d="M -1.3999999999999997 -4.4 L -1.5231609237136383 -4.4 L -1.6447730273519456 -4.4 L -1.7633069681506834 -4.4 L -1.8772721130293137 -4.4 L -1.98523528416687 -4.4 L -2.0858387820446067 -4.4 L -2.177817459305202 -4.4 L -2.2600146307148328 -4.4 L -2.3313966191511124 -4.4 L -2.391065754692661 -4.4 L -2.4382716633392043 -4.4 L -2.472420703400006 -4.4 L -2.493083430882567 -4.4 L -2.5 -4.4 " stroke="#191919" stroke-width="0.35 px" style="stroke-width:0.35;stroke-miterlimit:4;stroke-dasharray:none;fill:none;fill-opacity:1;fill-rule: evenodd"/>
<path id="Shape2DView_nwe0011"  d="M -1.4 4.4 L -1.4 -4.4 " stroke="#191919" stroke-width="0.35 px" style="stroke-width:0.35;stroke-miterlimit:4;stroke-dasharray:none;fill:none;fill-opacity:1;fill-rule: evenodd"/>
<path id="Shape2DView_nwe0013"  d="M -1.4 -4.4 L -1.4 -4.523160923713639 L -1.4 -4.644773027351946 L -1.4 -4.763306968150684 L -1.4 -4.877272113029314 L -1.4 -4.985235284166871 L -1.4 -5.085838782044608 L -1.4 -5.177817459305203 L -1.4 -5.260014630714833 L -1.4 -5.331396619151112 L -1.4 -5.3910657546926615 L -1.4 -5.438271663339204 L -1.4 -5.472420703400006 L -1.4 -5.493083430882567 L -1.4 -5.5 " stroke="#191919" stroke-width="0.35 px" style="stroke-width:0.35;stroke-miterlimit:4;stroke-dasharray:none;fill:none;fill-opacity:1;fill-rule: evenodd"/>
<path id="Shape2DView_nwe0014"  d="M -1.4 4.4 L -1.4 4.523160923713639 L -1.4 4.644773027351946 L -1.4 4.763306968150684 L -1.4 4.877272113029314 L -1.4 4.985235284166871 L -1.4 5.085838782044608 L -1.4 5.177817459305203 L -1.4 5.260014630714833 L -1.4 5.331396619151113 L -1.4 5.3910657546926615 L -1.4 5.438271663339204 L -1.4 5.472420703400006 L -1.4 5.493083430882567 L -1.4 5.5 " stroke="#191919" stroke-width="0.35 px" style="stroke-width:0.35;stroke-miterlimit:4;stroke-dasharray:none;fill:none;fill-opacity:1;fill-rule: evenodd"/>
<path id="Shape2DView_nwe0015"  d="M -1.4 -4.4 L 23.4 -4.4 " stroke="#191919" stroke-width="0.35 px" style="stroke-width:0.35;stroke-miterlimit:4;stroke-dasharray:none;fill:none;fill-opacity:1;fill-rule: evenodd"/>
<path id="Shape2DView_nwe0016"  d="M 23.4 -4.4 L 23.4 4.4 " stroke="#191919" stroke-width="0.35 px" style="stroke-width:0.35;stroke-miterlimit:4;stroke-dasharray:none;fill:none;fill-opacity:1;fill-rule: evenodd"/>
<path id="Shape2DView_nwe0017"  d="M 23.4 4.4 L -1.3999999999999986 4.4 " stroke="#191919" stroke-width="0.35 px" style="stroke-width:0.35;stroke-miterlimit:4;stroke-dasharray:none;fill:none;fill-opacity:1;fill-rule: evenodd"/>
<path id="Shape2DView_nwe0020"  d="M 23.4 -4.4 L 23.4 -4.523160923713639 L 23.4 -4.644773027351946 L 23.4 -4.763306968150684 L 23.4 -4.877272113029314 L 23.4 -4.985235284166871 L 23.4 -5.085838782044608 L 23.4 -5.177817459305203 L 23.4 -5.260014630714833 L 23.4 -5.331396619151113 L 23.4 -5.3910657546926615 L 23.4 -5.438271663339204 L 23.4 -5.472420703400006 L 23.4 -5.493083430882567 L 23.4 -5.5 " stroke="#191919" stroke-width="0.35 px" style="stroke-width:0.35;stroke-miterlimit:4;stroke-dasharray:none;fill:none;fill-opacity:1;fill-rule: evenodd"/>
<path id="Shape2DView_nwe0021"  d="M 23.4 4.4 L 23.4 4.523160923713639 L 23.4 4.644773027351946 L 23.4 4.763306968150684 L 23.4 4.877272113029314 L 23.4 4.985235284166871 L 23.4 5.085838782044608 L 23.4 5.177817459305203 L 23.4 5.260014630714833 L 23.4 5.331396619151112 L 23.4 5.3910657546926615 L 23.4 5.438271663339204 L 23.4 5.472420703400006 L 23.4 5.493083430882567 L 23.4 5.5 " stroke="#191919" stroke-width="0.35 px" style="stroke-width:0.35;stroke-miterlimit:4;stroke-dasharray:none;fill:none;fill-opacity:1;fill-rule: evenodd"/>
<path id="Shape2DView_nwe0022"  d="M 23.4 -4.4 L 23.523160923713636 -4.4 L 23.644773027351945 -4.4 L 23.763306968150683 -4.3999999999999995 L 23.877272113029314 -4.3999999999999995 L 23.98523528416687 -4.3999999999999995 L 24.085838782044604 -4.3999999999999995 L 24.1778174593052 -4.399999999999999 L 24.26001463071483 -4.399999999999999 L 24.33139661915111 -4.399999999999999 L 24.391065754692658 -4.399999999999999 L 24.438271663339204 -4.399999999999999 L 24.472420703400005 -4.399999999999999 L 24.493083430882564 -4.399999999999999 L 24.5 -4.399999999999999 " stroke="#191919" stroke-width="0.35 px" style="stroke-width:0.35;stroke-miterlimit:4;stroke-dasharray:none;fill:none;fill-opacity:1;fill-rule: evenodd"/>
<path id="Shape2DView_nwe0023"  d="M 23.4 4.4 L 23.523160923713636 4.4 L 23.644773027351945 4.4 L 23.763306968150683 4.4 L 23.877272113029314 4.4 L 23.98523528416687 4.4 L 24.085838782044604 4.4 L 24.1778174593052 4.4 L 24.26001463071483 4.4 L 24.33139661915111 4.4 L 24.39106575469266 4.4 L 24.438271663339204 4.4 L 24.472420703400005 4.4 L 24.493083430882564 4.4 L 24.5 4.4 " stroke="#191919" stroke-width="0.35 px" style="stroke-width:0.35;stroke-miterlimit:4;stroke-dasharray:none;fill:none;fill-opacity:1;fill-rule: evenodd"/>
<title>b'Shape2DView'</title>
</g>
<g id="Rectangle" transform="translate(2.770000,5.770000) scale(1,-1)">
<rect fill="#ff0000" id="origin" width="1" height="1" x="0" y="0" />
<title>b'Rectangle'</title>
</g>
</svg>