<?xml version="1.0"?>
<!DOCTYPE svg PUBLIC "-//W3C//DTD SVG 1.1//EN" "http://www.w3.org/Graphics/SVG/1.1/DTD/svg11.dtd">
<svg width="27.03mm" height="9.03mm" viewBox="0 0 27.03 9.03" xmlns="http://www.w3.org/2000/svg" version="1.1">
<g id="Shape2DView" transform="translate(2.265000,4.515000) scale(1,-1)">
<path id="Shape2DView_nwe0000"  d="M -2.0 3.4 L -2.0 -3.4 " stroke="#191919" stroke-width="0.35 px" style="stroke-width:0.35;stroke-miterlimit:4;stroke-dasharray:none;fill:none;fill-opacity:1;fill-rule: evenodd"/>
<path id="Shape2DView_nwe0001"  d="M -2.0 -3.4 A 0.85 0.85 0 0 1 -1.15 -4.25" stroke="#191919" stroke-width="0.35 px" style="stroke-width:0.35;stroke-miterlimit:4;stroke-dasharray:none;fill:none;fill-opacity:1;fill-rule: evenodd"/>
<path id="Shape2DView_nwe0002"  d="M -1.15 -4.25 L 23.65 -4.25 " stroke="#191919" stroke-width="0.35 px" style="stroke-width:0.35;stroke-miterlimit:4;stroke-dasharray:none;fill:none;fill-opacity:1;fill-rule: evenodd"/>
<path id="Shape2DView_nwe0003"  d="M -1.15 4.25 A 0.85 0.85 0 0 1 -2 3.4" stroke="#191919" stroke-width="0.35 px" style="stroke-width:0.35;stroke-miterlimit:4;stroke-dasharray:none;fill:none;fill-opacity:1;fill-rule: evenodd"/>
<path id="Shape2DView_nwe0004"  d="M 23.65 4.25 L -1.1499999999999986 4.25 " stroke="#191919" stroke-width="0.35 px" style="stroke-width:0.35;stroke-miterlimit:4;stroke-dasharray:none;fill:none;fill-opacity:1;fill-rule: evenodd"/>
<path id="Shape2DView_nwe0005"  d="M 24.5 -3.4 L 24.5 3.4 " stroke="#191919" stroke-width="0.35 px" style="stroke-width:0.35;stroke-miterlimit:4;stroke-dasharray:none;fill:none;fill-opacity:1;fill-rule: evenodd"/>
<path id="Shape2DView_nwe0006"  d="M 23.65 -4.25 A 0.85 0.85 0 0 1 24.5 -3.4" stroke="#191919" stroke-width="0.35 px" style="stroke-width:0.35;stroke-miterlimit:4;stroke-dasharray:none;fill:none;fill-opacity:1;fill-rule: evenodd"/>
<path id="Shape2DView_nwe0007"  d="M 24.5 3.4 A 0.85 0.85 0 0 1 23.65 4.25" stroke="#191919" stroke-width="0.35 px" style="stroke-width:0.35;stroke-miterlimit:4;stroke-dasharray:none;fill:none;fill-opacity:1;fill-rule: evenodd"/>
<path id="Shape2DView_nwe0009"  d="M -1.1499999999999997 3.4 L -1.2451698046878115 3.4 L -1.339142793862867 3.4 L -1.4307372026618919 3.4 L -1.5188011782499242 3.4 L -1.6022272650380358 3.4 L -1.6799663315799234 3.4 L -1.751040764008565 3.4 L -1.8145567600978252 3.4 L -1.8697155693440413 3.4 L -1.915823537717056 3.4 L -1.9523008307621121 3.4 L -1.9786887253545498 3.4 L -1.9946553784092562 3.4 L -2.0 3.4 " stroke="#191919" stroke-width="0.35 px" style="stroke-width:0.35;stroke-miterlimit:4;stroke-dasharray:none;fill:none;fill-opacity:1;fill-rule: evenodd"/>
<path id="Shape2DView_nwe0010"  d="M -1.15 -3.4 L -1.2451698046878117 -3.4 L -1.339142793862867 -3.4 L -1.4307372026618919 -3.4 L -1.5188011782499242 -3.4 L -1.602227265038036 -3.4 L -1.6799663315799234 -3.4 L -1.7510407640085652 -3.4 L -1.8145567600978252 -3.4 L -1.8697155693440415 -3.4 L -1.9158235377170563 -3.4 L -1.9523008307621124 -3.4 L -1.97868872535455 -3.4 L -1.9946553784092562 -3.4 L -2.0 -3.4 " stroke="#191919" stroke-width="0.35 px" style="stroke-width:0.35;stroke-miterlimit:4;stroke-dasharray:none;fill:none;fill-opacity:1;fill-rule: evenodd"/>
<path id="Shape2DView_nwe0011"  d="M -1.15 3.4 L -1.15 -3.4 " stroke="#191919" stroke-width="0.35 px" style="stroke-width:0.35;stroke-miterlimit:4;stroke-dasharray:none;fill:none;fill-opacity:1;fill-rule: evenodd"/>
<path id="Shape2DView_nwe0013"  d="M -1.15 -3.4 L -1.15 -3.4951698046878112 L -1.15 -3.589142793862867 L -1.15 -3.680737202661892 L -1.15 -3.768801178249924 L -1.15 -3.852227265038036 L -1.15 -3.9299663315799234 L -1.15 -4.0010407640085655 L -1.15 -4.064556760097825 L -1.15 -4.1197155693440415 L -1.15 -4.165823537717056 L -1.15 -4.202300830762113 L -1.15 -4.22868872535455 L -1.15 -4.244655378409256 L -1.15 -4.25 " stroke="#191919" stroke-width="0.35 px" style="stroke-width:0.35;stroke-miterlimit:4;stroke-dasharray:none;fill:none;fill-opacity:1;fill-rule: evenodd"/>
<path id="Shape2DView_nwe0014"  d="M -1.15 3.4 L -1.15 3.4951698046878117 L -1.15 3.5891427938628673 L -1.15 3.680737202661892 L -1.15 3.7688011782499244 L -1.15 3.852227265038036 L -1.15 3.9299663315799234 L -1.15 4.0010407640085655 L -1.15 4.064556760097825 L -1.15 4.1197155693440415 L -1.15 4.165823537717056 L -1.15 4.202300830762113 L -1.15 4.22868872535455 L -1.15 4.244655378409256 L -1.15 4.25 " stroke="#191919" stroke-width="0.35 px" style="stroke-width:0.35;stroke-miterlimit:4;stroke-dasharray:none;fill:none;fill-opacity:1;fill-rule: evenodd"/>
<path id="Shape2DView_nwe0015"  d="M 23.65 3.4 L -1.1499999999999986 3.4 " stroke="#191919" stroke-width="0.35 px" style="stroke-width:0.35;stroke-miterlimit:4;stroke-dasharray:none;fill:none;fill-opacity:1;fill-rule: evenodd"/>
<path id="Shape2DView_nwe0016"  d="M -1.15 -3.4 L 23.65 -3.4 " stroke="#191919" stroke-width="0.35 px" style="stroke-width:0.35;stroke-miterlimit:4;stroke-dasharray:none;fill:none;fill-opacity:1;fill-rule: evenodd"/>
<path id="Shape2DView_nwe0017"  d="M 23.65 -3.4 L 23.65 3.4 " stroke="#191919" stroke-width="0.35 px" style="stroke-width:0.35;stroke-miterlimit:4;stroke-dasharray:none;fill:none;fill-opacity:1;fill-rule: evenodd"/>
<path id="Shape2DView_nwe0020"  d="M 23.65 -3.4 L 23.65 -3.4951698046878117 L 23.65 -3.5891427938628673 L 23.65 -3.680737202661892 L 23.65 -3.7688011782499244 L 23.65 -3.852227265038036 L 23.65 -3.9299663315799234 L 23.65 -4.0010407640085655 L 23.65 -4.064556760097825 L 23.65 -4.1197155693440415 L 23.65 -4.165823537717056 L 23.65 -4.202300830762113 L 23.65 -4.22868872535455 L 23.65 -4.244655378409256 L 23.65 -4.25 " stroke="#191919" stroke-width="0.35 px" style="stroke-width:0.35;stroke-miterlimit:4;stroke-dasharray:none;fill:none;fill-opacity:1;fill-rule: evenodd"/>
<path id="Shape2DView_nwe0021"  d="M 23.65 3.4 L 23.65 3.4951698046878112 L 23.65 3.589142793862867 L 23.65 3.680737202661892 L 23.65 3.768801178249924 L 23.65 3.852227265038036 L 23.65 3.9299663315799234 L 23.65 4.0010407640085655 L 23.65 4.064556760097825 L 23.65 4.1197155693440415 L 23.65 4.165823537717056 L 23.65 4.202300830762113 L 23.65 4.22868872535455 L 23.65 4.244655378409256 L 23.65 4.25 " stroke="#191919" stroke-width="0.35 px" style="stroke-width:0.35;stroke-miterlimit:4;stroke-dasharray:none;fill:none;fill-opacity:1;fill-rule: evenodd"/>
<path id="Shape2DView_nwe0022"  d="M 23.65 -3.4 L 23.74516980468781 -3.4 L 23.839142793862866 -3.3999999999999995 L 23.93073720266189 -3.3999999999999995 L 24.018801178249923 -3.3999999999999995 L 24.102227265038035 -3.399999999999999 L 24.179966331579923 -3.399999999999999 L 24.251040764008565 -3.399999999999999 L 24.314556760097823 -3.3999999999999986 L 24.36971556934404 -3.3999999999999986 L 24.415823537717056 -3.3999999999999986 L 24.452300830762113 -3.3999999999999986 L 24.478688725354548 -3.3999999999999986 L 24.494655378409256 -3.3999999999999986 L 24.5 -3.3999999999999986 " stroke="#191919" stroke-width="0.35 px" style="stroke-width:0.35;stroke-miterlimit:4;stroke-dasharray:none;fill:none;fill-opacity:1;fill-rule: evenodd"/>
<path id="Shape2DView_nwe0023"  d="M 23.65 3.4 L 23.74516980468781 3.4 L 23.839142793862866 3.4 L 23.93073720266189 3.4 L 24.018801178249923 3.4 L 24.102227265038035 3.4 L 24.179966331579923 3.4 L 24.251040764008565 3.4 L 24.314556760097823 3.4 L 24.36971556934404 3.4 L 24.415823537717056 3.4 L 24.452300830762113 3.4 L 24.478688725354548 3.4 L 24.494655378409256 3.4 L 24.5 3.4 " stroke="#191919" stroke-width="0.35 px" style="stroke-width:0.35;stroke-miterlimit:4;stroke-dasharray:none;fill:none;fill-opacity:1;fill-rule: evenodd"/>
<title>b'Shape2DView'</title>
</g>
<g id="Rectangle" transform="translate(2.265000,4.515000) scale(1,-1)">
<rect fill="#ff0000" id="origin" width="1" height="1" x="0" y="0" />
<title>b'Rectangle'</title>
</g>
</svg>