<?xml version="1.0"?>
<!DOCTYPE svg PUBLIC "-//W3C//DTD SVG 1.1//EN" "http://www.w3.org/Graphics/SVG/1.1/DTD/svg11.dtd">
<svg width="33.66mm" height="13.66mm" viewBox="0 0 33.66 13.66" xmlns="http://www.w3.org/2000/svg" version="1.1">
<g id="Shape2DView" transform="translate(3.080000,6.830000) scale(1,-1)">
<path id="Shape2DView_nwe0000"  d="M -2.75 -5.2 L -2.75 5.2 " stroke="#191919" stroke-width="0.35 px" style="stroke-width:0.35;stroke-miterlimit:4;stroke-dasharray:none;fill:none;fill-opacity:1;fill-rule: evenodd"/>
<path id="Shape2DView_nwe0001"  d="M -1.45 -6.5 A 1.3 1.3 0 0 0 -2.75 -5.2" stroke="#191919" stroke-width="0.35 px" style="stroke-width:0.35;stroke-miterlimit:4;stroke-dasharray:none;fill:none;fill-opacity:1;fill-rule: evenodd"/>
<path id="Shape2DView_nwe0002"  d="M 28.95 -6.5 L -1.4499999999999993 -6.5 " stroke="#191919" stroke-width="0.35 px" style="stroke-width:0.35;stroke-miterlimit:4;stroke-dasharray:none;fill:none;fill-opacity:1;fill-rule: evenodd"/>
<path id="Shape2DView_nwe0003"  d="M -2.75 5.200000000000002 A 1.3 1.3 0 0 0 -1.45 6.5" stroke="#191919" stroke-width="0.35 px" style="stroke-width:0.35;stroke-miterlimit:4;stroke-dasharray:none;fill:none;fill-opacity:1;fill-rule: evenodd"/>
<path id="Shape2DView_nwe0004"  d="M -1.45 6.5 L 28.95 6.5 " stroke="#191919" stroke-width="0.35 px" style="stroke-width:0.35;stroke-miterlimit:4;stroke-dasharray:none;fill:none;fill-opacity:1;fill-rule: evenodd"/>
<path id="Shape2DView_nwe0005"  d="M 30.25 5.2 L 30.25 -5.2 " stroke="#191919" stroke-width="0.35 px" style="stroke-width:0.35;stroke-miterlimit:4;stroke-dasharray:none;fill:none;fill-opacity:1;fill-rule: evenodd"/>
<path id="Shape2DView_nwe0006"  d="M 30.25 -5.2 A 1.3 1.3 0 0 0 28.95 -6.5" stroke="#191919" stroke-width="0.35 px" style="stroke-width:0.35;stroke-miterlimit:4;stroke-dasharray:none;fill:none;fill-opacity:1;fill-rule: evenodd"/>
<path id="Shape2DView_nwe0007"  d="M 28.95 6.5 A 1.3 1.3 0 0 0 30.25 5.2" stroke="#191919" stroke-width="0.35 px" style="stroke-width:0.35;stroke-miterlimit:4;stroke-dasharray:none;fill:none;fill-opacity:1;fill-rule: evenodd"/>
<path id="Shape2DView_nwe0009"  d="M -1.45 -5.2 L -1.45 5.2 " stroke="#191919" stroke-width="0.35 px" style="stroke-width:0.35;stroke-miterlimit:4;stroke-dasharray:none;fill:none;fill-opacity:1;fill-rule: evenodd"/>
<path id="Shape2DView_nwe0010"  d="M -1.45 5.2 L -1.5955538189343001 5.2 L -1.7392772141432087 5.2 L -1.8793627805417172 5.2 L -2.0140488608528253 5.2 L -2.1416416994699374 5.2 L -2.2605367424163534 5.2 L -2.369238815542512 5.2 L -2.466380927208439 5.2 L -2.5507414589967694 5.2 L -2.6212595282731446 5.2 L -2.677048329400878 5.2 L -2.717406285836371 5.2 L -2.7418258728612157 5.2 L -2.75 5.2 " stroke="#191919" stroke-width="0.35 px" style="stroke-width:0.35;stroke-miterlimit:4;stroke-dasharray:none;fill:none;fill-opacity:1;fill-rule: evenodd"/>
<path id="Shape2DView_nwe0011"  d="M -1.4499999999999997 -5.2 L -1.5955538189343 -5.2 L -1.7392772141432085 -5.2 L -1.879362780541717 -5.2 L -2.0140488608528253 -5.2 L -2.141641699469937 -5.2 L -2.2605367424163534 -5.2 L -2.3692388155425115 -5.2 L -2.4663809272084385 -5.2 L -2.550741458996769 -5.2 L -2.6212595282731446 -5.2 L -2.677048329400878 -5.2 L -2.7174062858363706 -5.2 L -2.7418258728612157 -5.2 L -2.75 -5.2 " stroke="#191919" stroke-width="0.35 px" style="stroke-width:0.35;stroke-miterlimit:4;stroke-dasharray:none;fill:none;fill-opacity:1;fill-rule: evenodd"/>
<path id="Shape2DView_nwe0013"  d="M -1.45 -5.2 L -1.45 -5.345553818934301 L -1.45 -5.489277214143209 L -1.45 -5.629362780541717 L -1.45 -5.764048860852826 L -1.45 -5.891641699469938 L -1.45 -6.010536742416353 L -1.45 -6.119238815542512 L -1.45 -6.216380927208439 L -1.45 -6.30074145899677 L -1.45 -6.371259528273145 L -1.45 -6.427048329400878 L -1.45 -6.467406285836371 L -1.45 -6.491825872861216 L -1.45 -6.5 " stroke="#191919" stroke-width="0.35 px" style="stroke-width:0.35;stroke-miterlimit:4;stroke-dasharray:none;fill:none;fill-opacity:1;fill-rule: evenodd"/>
<path id="Shape2DView_nwe0014"  d="M 28.95 -5.2 L -1.4499999999999993 -5.2 " stroke="#191919" stroke-width="0.35 px" style="stroke-width:0.35;stroke-miterlimit:4;stroke-dasharray:none;fill:none;fill-opacity:1;fill-rule: evenodd"/>
<path id="Shape2DView_nwe0015"  d="M 28.95 5.2 L 28.95 -5.2 " stroke="#191919" stroke-width="0.35 px" style="stroke-width:0.35;stroke-miterlimit:4;stroke-dasharray:none;fill:none;fill-opacity:1;fill-rule: evenodd"/>
<path id="Shape2DView_nwe0016"  d="M -1.45 5.2 L 28.95 5.2 " stroke="#191919" stroke-width="0.35 px" style="stroke-width:0.35;stroke-miterlimit:4;stroke-dasharray:none;fill:none;fill-opacity:1;fill-rule: evenodd"/>
<path id="Shape2DView_nwe0017"  d="M -1.45 5.2 L -1.45 5.345553818934301 L -1.4499999999999997 5.4892772141432085 L -1.4499999999999997 5.629362780541717 L -1.4499999999999995 5.764048860852825 L -1.4499999999999995 5.891641699469938 L -1.4499999999999995 6.010536742416353 L -1.4499999999999993 6.119238815542512 L -1.4499999999999993 6.216380927208439 L -1.4499999999999993 6.30074145899677 L -1.4499999999999993 6.371259528273145 L -1.449999999999999 6.427048329400878 L -1.449999999999999 6.467406285836371 L -1.449999999999999 6.491825872861216 L -1.449999999999999 6.5 " stroke="#191919" stroke-width="0.35 px" style="stroke-width:0.35;stroke-miterlimit:4;stroke-dasharray:none;fill:none;fill-opacity:1;fill-rule: evenodd"/>
<path id="Shape2DView_nwe0020"  d="M 28.95 -5.2 L 28.95 -5.345553818934301 L 28.95 -5.4892772141432085 L 28.95 -5.629362780541717 L 28.95 -5.764048860852825 L 28.95 -5.891641699469938 L 28.95 -6.010536742416353 L 28.95 -6.119238815542512 L 28.95 -6.216380927208439 L 28.95 -6.30074145899677 L 28.95 -6.371259528273145 L 28.95 -6.427048329400878 L 28.95 -6.467406285836371 L 28.95 -6.491825872861216 L 28.95 -6.5 " stroke="#191919" stroke-width="0.35 px" style="stroke-width:0.35;stroke-miterlimit:4;stroke-dasharray:none;fill:none;fill-opacity:1;fill-rule: evenodd"/>
<path id="Shape2DView_nwe0021"  d="M 28.95 -5.2 L 29.0955538189343 -5.2 L 29.239277214143208 -5.2 L 29.379362780541715 -5.2 L 29.514048860852824 -5.2 L 29.641641699469936 -5.2 L 29.760536742416352 -5.2 L 29.86923881554251 -5.2 L 29.966380927208437 -5.2 L 30.050741458996768 -5.2 L 30.121259528273143 -5.2 L 30.177048329400876 -5.2 L 30.21740628583637 -5.2 L 30.241825872861213 -5.2 L 30.25 -5.2 " stroke="#191919" stroke-width="0.35 px" style="stroke-width:0.35;stroke-miterlimit:4;stroke-dasharray:none;fill:none;fill-opacity:1;fill-rule: evenodd"/>
<path id="Shape2DView_nwe0022"  d="M 28.95 5.2 L 29.0955538189343 5.2 L 29.239277214143208 5.2 L 29.379362780541715 5.2 L 29.514048860852824 5.2 L 29.641641699469936 5.2 L 29.760536742416352 5.2 L 29.86923881554251 5.2 L 29.966380927208437 5.2 L 30.050741458996768 5.2 L 30.121259528273143 5.2 L 30.177048329400876 5.2 L 30.21740628583637 5.2 L 30.241825872861213 5.2 L 30.25 5.2 " stroke="#191919" stroke-width="0.35 px" style="stroke-width:0.35;stroke-miterlimit:4;stroke-dasharray:none;fill:none;fill-opacity:1;fill-rule: evenodd"/>
<path id="Shape2DView_nwe0023"  d="M 28.95 5.2 L 28.95 5.345553818934301 L 28.95 5.489277214143209 L 28.95 5.629362780541717 L 28.95 5.764048860852826 L 28.95 5.891641699469938 L 28.95 6.010536742416353 L 28.95 6.119238815542512 L 28.95 6.216380927208439 L 28.95 6.30074145899677 L 28.95 6.371259528273145 L 28.95 6.427048329400878 L 28.95 6.467406285836371 L 28.95 6.491825872861216 L 28.95 6.5 " stroke="#191919" stroke-width="0.35 px" style="stroke-width:0.35;stroke-miterlimit:4;stroke-dasharray:none;fill:none;fill-opacity:1;fill-rule: evenodd"/>
<title>b'Shape2DView'</title>
</g>
<g id="Rectangle" transform="translate(3.080000,6.830000) scale(1,-1)">
<rect fill="#ff0000" id="origin" width="1" height="1" x="0" y="0" />
<title>b'Rectangle'</title>
</g>
</svg>