<?xml version="1.0"?>
<!DOCTYPE svg PUBLIC "-//W3C//DTD SVG 1.1//EN" "http://www.w3.org/Graphics/SVG/1.1/DTD/svg11.dtd">
<svg width="7.343999999999999mm" height="11.144mm" viewBox="0 0 7.343999999999999 11.144" xmlns="http://www.w3.org/2000/svg" version="1.1">
<g id="Shape2DView" transform="translate(1.172000,5.572000) scale(1,-1)">
<path id="Shape2DView_nwe0000"  d="M -1.1 4.4 L -1.1 -4.4 " stroke="#191919" stroke-width="0.35 px" style="stroke-width:0.35;stroke-miterlimit:4;stroke-dasharray:none;fill:none;fill-opacity:1;fill-rule: evenodd"/>
<path id="Shape2DView_nwe0001"  d="M -1.1 -4.4 A 1.1 1.1 0 0 1 -6.73556e-17 -5.5" stroke="#191919" stroke-width="0.35 px" style="stroke-width:0.35;stroke-miterlimit:4;stroke-dasharray:none;fill:none;fill-opacity:1;fill-rule: evenodd"/>
<path id="Shape2DView_nwe0002"  d="M 0.0 -5.5 L 5.0 -5.5 " stroke="#191919" stroke-width="0.35 px" style="stroke-width:0.35;stroke-miterlimit:4;stroke-dasharray:none;fill:none;fill-opacity:1;fill-rule: evenodd"/>
<path id="Shape2DView_nwe0003"  d="M 0.0 5.5 A 1.1 1.1 0 0 1 -1.1 4.4" stroke="#191919" stroke-width="0.35 px" style="stroke-width:0.35;stroke-miterlimit:4;stroke-dasharray:none;fill:none;fill-opacity:1;fill-rule: evenodd"/>
<path id="Shape2DView_nwe0004"  d="M 5.0 5.5 L -8.881784197001252e-16 5.5 " stroke="#191919" stroke-width="0.35 px" style="stroke-width:0.35;stroke-miterlimit:4;stroke-dasharray:none;fill:none;fill-opacity:1;fill-rule: evenodd"/>
<path id="Shape2DView_nwe0005"  d="M 6.1 -4.4 L 6.1 4.4 " stroke="#191919" stroke-width="0.35 px" style="stroke-width:0.35;stroke-miterlimit:4;stroke-dasharray:none;fill:none;fill-opacity:1;fill-rule: evenodd"/>
<path id="Shape2DView_nwe0006"  d="M 5.000000000000001 -5.5 A 1.1 1.1 0 0 1 6.1 -4.4" stroke="#191919" stroke-width="0.35 px" style="stroke-width:0.35;stroke-miterlimit:4;stroke-dasharray:none;fill:none;fill-opacity:1;fill-rule: evenodd"/>
<path id="Shape2DView_nwe0007"  d="M 6.1 4.4 A 1.1 1.1 0 0 1 5 5.5" stroke="#191919" stroke-width="0.35 px" style="stroke-width:0.35;stroke-miterlimit:4;stroke-dasharray:none;fill:none;fill-opacity:1;fill-rule: evenodd"/>
<path id="Shape2DView_nwe0009"  d="M 2.0206672185931328e-16 4.4 L -0.12316092371363846 4.4 L -0.24477302735194567 4.4 L -0.3633069681506836 4.4 L -0.47727211302931377 4.4 L -0.58523528416687 4.4 L -0.6858387820446068 4.4 L -0.7778174593052022 4.4 L -0.8600146307148328 4.4 L -0.9313966191511125 4.4 L -0.991065754692661 4.4 L -1.0382716633392044 4.4 L -1.072420703400006 4.4 L -1.093083430882567 4.4 L -1.1 4.4 " stroke="#191919" stroke-width="0.35 px" style="stroke-width:0.35;stroke-miterlimit:4;stroke-dasharray:none;fill:none;fill-opacity:1;fill-rule: evenodd"/>
<path id="Shape2DView_nwe0010"  d="M 0.0 -4.4 L -0.12316092371363865 -4.4 L -0.24477302735194587 -4.4 L -0.36330696815068386 -4.4 L -0.477272113029314 -4.4 L -0.5852352841668703 -4.4 L -0.6858387820446069 -4.4 L -0.7778174593052023 -4.4 L -0.8600146307148329 -4.4 L -0.9313966191511126 -4.4 L -0.9910657546926611 -4.4 L -1.0382716633392044 -4.4 L -1.0724207034000062 -4.4 L -1.093083430882567 -4.4 L -1.1 -4.4 " stroke="#191919" stroke-width="0.35 px" style="stroke-width:0.35;stroke-miterlimit:4;stroke-dasharray:none;fill:none;fill-opacity:1;fill-rule: evenodd"/>
<path id="Shape2DView_nwe0011"  d="M 0.0 4.4 L 0.0 -4.4 " stroke="#191919" stroke-width="0.35 px" style="stroke-width:0.35;stroke-miterlimit:4;stroke-dasharray:none;fill:none;fill-opacity:1;fill-rule: evenodd"/>
<path id="Shape2DView_nwe0013"  d="M 1.23730182069608e-32 -4.4 L -7.541431550297223e-18 -4.523160923713639 L -1.4988025223208963e-17 -4.644773027351946 L -2.2246135782684054e-17 -4.763306968150684 L -2.9224488277183264e-17 -4.877272113029314 L -3.583532587515382e-17 -4.985235284166871 L -4.1995513458103955e-17 -5.085838782044608 L -4.762758309295395e-17 -5.177817459305203 L -5.266070823624266e-17 -5.260014630714833 L -5.7031594419006e-17 -5.331396619151112 L -6.068527521144848e-17 -5.3910657546926615 L -6.357580345769019e-17 -5.438271663339204 L -6.566682908791103e-17 -5.472420703400006 L -6.69320562415697e-17 -5.493083430882567 L -6.735557395310701e-17 -5.5 " stroke="#191919" stroke-width="0.35 px" style="stroke-width:0.35;stroke-miterlimit:4;stroke-dasharray:none;fill:none;fill-opacity:1;fill-rule: evenodd"/>
<path id="Shape2DView_nwe0014"  d="M -4.440892098501e-16 4.4 L -4.440892098501e-16 4.523160923713639 L -4.440892098501e-16 4.644773027351946 L -4.440892098501e-16 4.763306968150684 L -4.440892098501e-16 4.877272113029314 L -4.440892098501e-16 4.985235284166871 L -4.440892098501e-16 5.085838782044608 L -4.440892098501e-16 5.177817459305203 L -4.440892098501e-16 5.260014630714833 L -4.440892098501e-16 5.331396619151113 L -4.440892098501e-16 5.3910657546926615 L -4.440892098501e-16 5.438271663339204 L -4.440892098501e-16 5.472420703400006 L -4.440892098501e-16 5.493083430882567 L -4.440892098501e-16 5.5 " stroke="#191919" stroke-width="0.35 px" style="stroke-width:0.35;stroke-miterlimit:4;stroke-dasharray:none;fill:none;fill-opacity:1;fill-rule: evenodd"/>
<path id="Shape2DView_nwe0015"  d="M 5.0 4.4 L -8.881784197001252e-16 4.4 " stroke="#191919" stroke-width="0.35 px" style="stroke-width:0.35;stroke-miterlimit:4;stroke-dasharray:none;fill:none;fill-opacity:1;fill-rule: evenodd"/>
<path id="Shape2DView_nwe0016"  d="M 0.0 -4.4 L 5.0 -4.4 " stroke="#191919" stroke-width="0.35 px" style="stroke-width:0.35;stroke-miterlimit:4;stroke-dasharray:none;fill:none;fill-opacity:1;fill-rule: evenodd"/>
<path id="Shape2DView_nwe0017"  d="M 5.0 -4.4 L 5.0 4.4 " stroke="#191919" stroke-width="0.35 px" style="stroke-width:0.35;stroke-miterlimit:4;stroke-dasharray:none;fill:none;fill-opacity:1;fill-rule: evenodd"/>
<path id="Shape2DView_nwe0020"  d="M 5.0 -4.4 L 5.0 -4.523160923713639 L 5.0 -4.644773027351946 L 5.0 -4.763306968150684 L 5.0 -4.877272113029314 L 5.0 -4.985235284166871 L 5.0 -5.085838782044608 L 5.0 -5.177817459305203 L 5.0 -5.260014630714833 L 5.0 -5.331396619151113 L 5.0 -5.3910657546926615 L 5.0 -5.438271663339204 L 5.0 -5.472420703400006 L 5.0 -5.493083430882567 L 5.0 -5.5 " stroke="#191919" stroke-width="0.35 px" style="stroke-width:0.35;stroke-miterlimit:4;stroke-dasharray:none;fill:none;fill-opacity:1;fill-rule: evenodd"/>
<path id="Shape2DView_nwe0021"  d="M 5.0 4.4 L 5.0 4.523160923713639 L 5.0 4.644773027351946 L 5.0 4.763306968150684 L 5.0 4.877272113029314 L 5.0 4.985235284166871 L 5.0 5.085838782044608 L 5.0 5.177817459305203 L 5.0 5.260014630714833 L 5.0 5.331396619151112 L 5.0 5.3910657546926615 L 5.0 5.438271663339204 L 5.0 5.472420703400006 L 5.0 5.493083430882567 L 5.0 5.5 " stroke="#191919" stroke-width="0.35 px" style="stroke-width:0.35;stroke-miterlimit:4;stroke-dasharray:none;fill:none;fill-opacity:1;fill-rule: evenodd"/>
<path id="Shape2DView_nwe0022"  d="M 5.0 -4.4 L 5.123160923713638 -4.4 L 5.244773027351946 -4.4 L 5.363306968150684 -4.4 L 5.477272113029314 -4.4 L 5.58523528416687 -4.4 L 5.685838782044607 -4.4 L 5.7778174593052025 -4.4 L 5.860014630714833 -4.4 L 5.931396619151112 -4.4 L 5.991065754692661 -4.4 L 6.038271663339204 -4.4 L 6.072420703400006 -4.4 L 6.093083430882567 -4.4 L 6.1 -4.4 " stroke="#191919" stroke-width="0.35 px" style="stroke-width:0.35;stroke-miterlimit:4;stroke-dasharray:none;fill:none;fill-opacity:1;fill-rule: evenodd"/>
<path id="Shape2DView_nwe0023"  d="M 5.0 4.4 L 5.123160923713638 4.4 L 5.244773027351946 4.4 L 5.363306968150684 4.4 L 5.477272113029314 4.4 L 5.58523528416687 4.4 L 5.685838782044607 4.4 L 5.7778174593052025 4.4 L 5.860014630714833 4.4 L 5.931396619151112 4.4 L 5.991065754692661 4.4 L 6.038271663339204 4.4 L 6.072420703400006 4.4 L 6.093083430882567 4.4 L 6.1 4.4 " stroke="#191919" stroke-width="0.35 px" style="stroke-width:0.35;stroke-miterlimit:4;stroke-dasharray:none;fill:none;fill-opacity:1;fill-rule: evenodd"/>
<title>b'Shape2DView'</title>
</g>
<g id="Rectangle" transform="translate(1.172000,5.572000) scale(1,-1)">
<rect fill="#ff0000" id="origin" width="1" height="1" x="0" y="0" />
<title>b'Rectangle'</title>
</g>
</svg>