<?xml version="1.0"?>
<!DOCTYPE svg PUBLIC "-//W3C//DTD SVG 1.1//EN" "http://www.w3.org/Graphics/SVG/1.1/DTD/svg11.dtd">
<svg width="28.560000000000002mm" height="12.56mm" viewBox="0 0 28.560000000000002 12.56" xmlns="http://www.w3.org/2000/svg" version="1.1">
<g id="Shape2DView" transform="translate(3.030000,6.280000) scale(1,-1)">
<path id="Shape2DView_nwe0000"  d="M -2.75 -4.8 L -2.75 4.8 " stroke="#191919" stroke-width="0.35 px" style="stroke-width:0.35;stroke-miterlimit:4;stroke-dasharray:none;fill:none;fill-opacity:1;fill-rule: evenodd"/>
<path id="Shape2DView_nwe0001"  d="M -1.55 -6.0 A 1.2 1.2 0 0 0 -2.75 -4.8" stroke="#191919" stroke-width="0.35 px" style="stroke-width:0.35;stroke-miterlimit:4;stroke-dasharray:none;fill:none;fill-opacity:1;fill-rule: evenodd"/>
<path id="Shape2DView_nwe0002"  d="M 24.05 -6.0 L -1.5500000000000007 -6.0 " stroke="#191919" stroke-width="0.35 px" style="stroke-width:0.35;stroke-miterlimit:4;stroke-dasharray:none;fill:none;fill-opacity:1;fill-rule: evenodd"/>
<path id="Shape2DView_nwe0003"  d="M -2.75 4.8 A 1.2 1.2 0 0 0 -1.55 6" stroke="#191919" stroke-width="0.35 px" style="stroke-width:0.35;stroke-miterlimit:4;stroke-dasharray:none;fill:none;fill-opacity:1;fill-rule: evenodd"/>
<path id="Shape2DView_nwe0004"  d="M -1.55 6.0 L 24.05 6.0 " stroke="#191919" stroke-width="0.35 px" style="stroke-width:0.35;stroke-miterlimit:4;stroke-dasharray:none;fill:none;fill-opacity:1;fill-rule: evenodd"/>
<path id="Shape2DView_nwe0005"  d="M 25.25 4.8 L 25.25 -4.8 " stroke="#191919" stroke-width="0.35 px" style="stroke-width:0.35;stroke-miterlimit:4;stroke-dasharray:none;fill:none;fill-opacity:1;fill-rule: evenodd"/>
<path id="Shape2DView_nwe0006"  d="M 25.25 -4.8 A 1.2 1.2 0 0 0 24.05 -6" stroke="#191919" stroke-width="0.35 px" style="stroke-width:0.35;stroke-miterlimit:4;stroke-dasharray:none;fill:none;fill-opacity:1;fill-rule: evenodd"/>
<path id="Shape2DView_nwe0007"  d="M 24.05 6.0 A 1.2 1.2 0 0 0 25.25 4.8" stroke="#191919" stroke-width="0.35 px" style="stroke-width:0.35;stroke-miterlimit:4;stroke-dasharray:none;fill:none;fill-opacity:1;fill-rule: evenodd"/>
<path id="Shape2DView_nwe0009"  d="M -1.55 -4.8 L -1.55 4.8 " stroke="#191919" stroke-width="0.35 px" style="stroke-width:0.35;stroke-miterlimit:4;stroke-dasharray:none;fill:none;fill-opacity:1;fill-rule: evenodd"/>
<path id="Shape2DView_nwe0010"  d="M -1.55 4.8 L -1.6843573713239695 4.8 L -1.8170251207475774 4.8 L -1.9463348743462006 4.8 L -2.07066048694107 4.8 L -2.188438491818404 4.8 L -2.29818776223048 4.8 L -2.398528137423857 4.8 L -2.4881977789616356 4.8 L -2.566069039073941 4.8 L -2.631162641482903 4.8 L -2.682659996370041 4.8 L -2.719913494618188 4.8 L -2.742454651871891 4.8 L -2.75 4.8 " stroke="#191919" stroke-width="0.35 px" style="stroke-width:0.35;stroke-miterlimit:4;stroke-dasharray:none;fill:none;fill-opacity:1;fill-rule: evenodd"/>
<path id="Shape2DView_nwe0011"  d="M -1.5499999999999998 -4.8 L -1.6843573713239692 -4.8 L -1.8170251207475772 -4.8 L -1.9463348743462003 -4.8 L -2.0706604869410694 -4.8 L -2.1884384918184034 -4.8 L -2.29818776223048 -4.8 L -2.398528137423857 -4.8 L -2.4881977789616356 -4.8 L -2.566069039073941 -4.8 L -2.631162641482903 -4.8 L -2.682659996370041 -4.8 L -2.719913494618188 -4.8 L -2.742454651871891 -4.8 L -2.75 -4.8 " stroke="#191919" stroke-width="0.35 px" style="stroke-width:0.35;stroke-miterlimit:4;stroke-dasharray:none;fill:none;fill-opacity:1;fill-rule: evenodd"/>
<path id="Shape2DView_nwe0013"  d="M -1.55 -4.8 L -1.55 -4.934357371323969 L -1.55 -5.067025120747577 L -1.55 -5.1963348743462 L -1.55 -5.32066048694107 L -1.55 -5.438438491818403 L -1.55 -5.54818776223048 L -1.55 -5.648528137423857 L -1.55 -5.738197778961635 L -1.55 -5.816069039073941 L -1.55 -5.881162641482903 L -1.55 -5.932659996370041 L -1.55 -5.969913494618188 L -1.55 -5.992454651871891 L -1.55 -6.0 " stroke="#191919" stroke-width="0.35 px" style="stroke-width:0.35;stroke-miterlimit:4;stroke-dasharray:none;fill:none;fill-opacity:1;fill-rule: evenodd"/>
<path id="Shape2DView_nwe0014"  d="M -1.55 4.8 L 24.05 4.8 " stroke="#191919" stroke-width="0.35 px" style="stroke-width:0.35;stroke-miterlimit:4;stroke-dasharray:none;fill:none;fill-opacity:1;fill-rule: evenodd"/>
<path id="Shape2DView_nwe0015"  d="M 24.05 -4.8 L -1.5500000000000007 -4.8 " stroke="#191919" stroke-width="0.35 px" style="stroke-width:0.35;stroke-miterlimit:4;stroke-dasharray:none;fill:none;fill-opacity:1;fill-rule: evenodd"/>
<path id="Shape2DView_nwe0016"  d="M 24.05 4.8 L 24.05 -4.8 " stroke="#191919" stroke-width="0.35 px" style="stroke-width:0.35;stroke-miterlimit:4;stroke-dasharray:none;fill:none;fill-opacity:1;fill-rule: evenodd"/>
<path id="Shape2DView_nwe0017"  d="M -1.55 4.8 L -1.55 4.934357371323969 L -1.55 5.067025120747577 L -1.55 5.1963348743462 L -1.55 5.32066048694107 L -1.55 5.438438491818403 L -1.55 5.54818776223048 L -1.55 5.648528137423857 L -1.55 5.738197778961635 L -1.55 5.816069039073941 L -1.55 5.881162641482903 L -1.55 5.932659996370041 L -1.55 5.969913494618188 L -1.55 5.992454651871891 L -1.55 6.0 " stroke="#191919" stroke-width="0.35 px" style="stroke-width:0.35;stroke-miterlimit:4;stroke-dasharray:none;fill:none;fill-opacity:1;fill-rule: evenodd"/>
<path id="Shape2DView_nwe0020"  d="M 24.05 -4.8 L 24.05 -4.934357371323969 L 24.05 -5.0670251207475765 L 24.05 -5.1963348743462 L 24.05 -5.320660486941069 L 24.05 -5.438438491818403 L 24.05 -5.54818776223048 L 24.05 -5.648528137423857 L 24.05 -5.738197778961635 L 24.05 -5.816069039073941 L 24.05 -5.881162641482902 L 24.05 -5.932659996370041 L 24.05 -5.969913494618188 L 24.05 -5.992454651871891 L 24.05 -6.0 " stroke="#191919" stroke-width="0.35 px" style="stroke-width:0.35;stroke-miterlimit:4;stroke-dasharray:none;fill:none;fill-opacity:1;fill-rule: evenodd"/>
<path id="Shape2DView_nwe0021"  d="M 24.05 4.8 L 24.05 4.934357371323969 L 24.05 5.067025120747577 L 24.05 5.1963348743462 L 24.05 5.32066048694107 L 24.05 5.438438491818403 L 24.05 5.54818776223048 L 24.05 5.648528137423857 L 24.05 5.738197778961635 L 24.05 5.816069039073941 L 24.05 5.881162641482903 L 24.05 5.932659996370041 L 24.05 5.969913494618188 L 24.05 5.992454651871891 L 24.05 6.0 " stroke="#191919" stroke-width="0.35 px" style="stroke-width:0.35;stroke-miterlimit:4;stroke-dasharray:none;fill:none;fill-opacity:1;fill-rule: evenodd"/>
<path id="Shape2DView_nwe0022"  d="M 24.05 -4.8 L 24.18435737132397 -4.8 L 24.317025120747576 -4.8 L 24.446334874346203 -4.8 L 24.57066048694107 -4.8 L 24.688438491818406 -4.8 L 24.79818776223048 -4.8 L 24.898528137423856 -4.8 L 24.988197778961638 -4.8 L 25.06606903907394 -4.8 L 25.131162641482902 -4.8 L 25.18265999637004 -4.8 L 25.21991349461819 -4.8 L 25.242454651871892 -4.8 L 25.25 -4.8 " stroke="#191919" stroke-width="0.35 px" style="stroke-width:0.35;stroke-miterlimit:4;stroke-dasharray:none;fill:none;fill-opacity:1;fill-rule: evenodd"/>
<path id="Shape2DView_nwe0023"  d="M 24.05 4.8 L 24.18435737132397 4.8 L 24.317025120747576 4.8 L 24.4463348743462 4.8 L 24.57066048694107 4.8 L 24.688438491818403 4.8 L 24.79818776223048 4.8 L 24.898528137423856 4.8 L 24.988197778961638 4.8 L 25.06606903907394 4.8 L 25.131162641482902 4.8 L 25.18265999637004 4.8 L 25.21991349461819 4.8 L 25.242454651871892 4.8 L 25.25 4.8 " stroke="#191919" stroke-width="0.35 px" style="stroke-width:0.35;stroke-miterlimit:4;stroke-dasharray:none;fill:none;fill-opacity:1;fill-rule: evenodd"/>
<title>b'Shape2DView'</title>
</g>
<g id="Rectangle" transform="translate(3.030000,6.280000) scale(1,-1)">
<rect fill="#ff0000" id="origin" width="1" height="1" x="0" y="0" />
<title>b'Rectangle'</title>
</g>
</svg>