<?xml version="1.0"?>
<!DOCTYPE svg PUBLIC "-//W3C//DTD SVG 1.1//EN" "http://www.w3.org/Graphics/SVG/1.1/DTD/svg11.dtd">
<svg width="42.33mm" height="17.83mm" viewBox="0 0 42.33 17.83" xmlns="http://www.w3.org/2000/svg" version="1.1">
<g id="Shape2DView" transform="translate(2.415000,8.915000) scale(1,-1)">
<path id="Shape2DView_nwe0000"  d="M -2.0 -6.8 L -2.0 6.8 " stroke="#191919" stroke-width="0.35 px" style="stroke-width:0.35;stroke-miterlimit:4;stroke-dasharray:none;fill:none;fill-opacity:1;fill-rule: evenodd"/>
<path id="Shape2DView_nwe0001"  d="M -0.3 -8.5 A 1.7 1.7 0 0 0 -2 -6.8" stroke="#191919" stroke-width="0.35 px" style="stroke-width:0.35;stroke-miterlimit:4;stroke-dasharray:none;fill:none;fill-opacity:1;fill-rule: evenodd"/>
<path id="Shape2DView_nwe0002"  d="M 37.8 -8.5 L -0.29999999999999716 -8.5 " stroke="#191919" stroke-width="0.35 px" style="stroke-width:0.35;stroke-miterlimit:4;stroke-dasharray:none;fill:none;fill-opacity:1;fill-rule: evenodd"/>
<path id="Shape2DView_nwe0003"  d="M -2.0 6.8 A 1.7 1.7 0 0 0 -0.3 8.5" stroke="#191919" stroke-width="0.35 px" style="stroke-width:0.35;stroke-miterlimit:4;stroke-dasharray:none;fill:none;fill-opacity:1;fill-rule: evenodd"/>
<path id="Shape2DView_nwe0004"  d="M -0.3 8.5 L 37.8 8.5 " stroke="#191919" stroke-width="0.35 px" style="stroke-width:0.35;stroke-miterlimit:4;stroke-dasharray:none;fill:none;fill-opacity:1;fill-rule: evenodd"/>
<path id="Shape2DView_nwe0005"  d="M 39.5 6.8 L 39.5 -6.8 " stroke="#191919" stroke-width="0.35 px" style="stroke-width:0.35;stroke-miterlimit:4;stroke-dasharray:none;fill:none;fill-opacity:1;fill-rule: evenodd"/>
<path id="Shape2DView_nwe0006"  d="M 39.5 -6.8 A 1.7 1.7 0 0 0 37.8 -8.5" stroke="#191919" stroke-width="0.35 px" style="stroke-width:0.35;stroke-miterlimit:4;stroke-dasharray:none;fill:none;fill-opacity:1;fill-rule: evenodd"/>
<path id="Shape2DView_nwe0007"  d="M 37.8 8.5 A 1.7 1.7 0 0 0 39.5 6.8" stroke="#191919" stroke-width="0.35 px" style="stroke-width:0.35;stroke-miterlimit:4;stroke-dasharray:none;fill:none;fill-opacity:1;fill-rule: evenodd"/>
<path id="Shape2DView_nwe0009"  d="M -0.3 -6.8 L -0.3 6.8 " stroke="#191919" stroke-width="0.35 px" style="stroke-width:0.35;stroke-miterlimit:4;stroke-dasharray:none;fill:none;fill-opacity:1;fill-rule: evenodd"/>
<path id="Shape2DView_nwe0010"  d="M -0.29999999999999966 6.8 L -0.49033960937562304 6.8 L -0.6782855877257341 6.8 L -0.8614744053237837 6.8 L -1.0376023564998484 6.8 L -1.2044545300760718 6.8 L -1.3599326631598467 6.8 L -1.5020815280171305 6.8 L -1.6291135201956506 6.8 L -1.7394311386880827 6.8 L -1.8316470754341123 6.8 L -1.9046016615242247 6.8 L -1.9573774507091 6.8 L -1.9893107568185124 6.8 L -2.0 6.8 " stroke="#191919" stroke-width="0.35 px" style="stroke-width:0.35;stroke-miterlimit:4;stroke-dasharray:none;fill:none;fill-opacity:1;fill-rule: evenodd"/>
<path id="Shape2DView_nwe0011"  d="M -0.29999999999999966 -6.8 L -0.49033960937562304 -6.8 L -0.6782855877257341 -6.8 L -0.8614744053237837 -6.8 L -1.0376023564998484 -6.8 L -1.2044545300760718 -6.8 L -1.3599326631598467 -6.8 L -1.5020815280171305 -6.8 L -1.6291135201956506 -6.8 L -1.7394311386880827 -6.8 L -1.8316470754341123 -6.8 L -1.9046016615242247 -6.8 L -1.9573774507091 -6.8 L -1.9893107568185124 -6.8 L -2.0 -6.8 " stroke="#191919" stroke-width="0.35 px" style="stroke-width:0.35;stroke-miterlimit:4;stroke-dasharray:none;fill:none;fill-opacity:1;fill-rule: evenodd"/>
<path id="Shape2DView_nwe0013"  d="M -0.3 -6.8 L -0.3 -6.990339609375623 L -0.3 -7.1782855877257346 L -0.3 -7.361474405323784 L -0.3 -7.537602356499849 L -0.3 -7.704454530076072 L -0.3 -7.859932663159847 L -0.3 -8.002081528017131 L -0.3 -8.12911352019565 L -0.3 -8.239431138688083 L -0.3 -8.331647075434113 L -0.3 -8.404601661524225 L -0.3 -8.4573774507091 L -0.3 -8.489310756818512 L -0.3 -8.5 " stroke="#191919" stroke-width="0.35 px" style="stroke-width:0.35;stroke-miterlimit:4;stroke-dasharray:none;fill:none;fill-opacity:1;fill-rule: evenodd"/>
<path id="Shape2DView_nwe0014"  d="M -0.3 6.8 L 37.8 6.8 " stroke="#191919" stroke-width="0.35 px" style="stroke-width:0.35;stroke-miterlimit:4;stroke-dasharray:none;fill:none;fill-opacity:1;fill-rule: evenodd"/>
<path id="Shape2DView_nwe0015"  d="M 37.8 -6.8 L -0.29999999999999716 -6.8 " stroke="#191919" stroke-width="0.35 px" style="stroke-width:0.35;stroke-miterlimit:4;stroke-dasharray:none;fill:none;fill-opacity:1;fill-rule: evenodd"/>
<path id="Shape2DView_nwe0016"  d="M 37.8 6.8 L 37.8 -6.8 " stroke="#191919" stroke-width="0.35 px" style="stroke-width:0.35;stroke-miterlimit:4;stroke-dasharray:none;fill:none;fill-opacity:1;fill-rule: evenodd"/>
<path id="Shape2DView_nwe0017"  d="M -0.3 6.8 L -0.3 6.9903396093756225 L -0.3 7.178285587725734 L -0.30000000000000004 7.361474405323784 L -0.30000000000000004 7.537602356499848 L -0.30000000000000004 7.704454530076072 L -0.30000000000000004 7.859932663159847 L -0.30000000000000004 8.002081528017131 L -0.30000000000000004 8.12911352019565 L -0.3000000000000001 8.239431138688083 L -0.3000000000000001 8.331647075434113 L -0.3000000000000001 8.404601661524225 L -0.3000000000000001 8.4573774507091 L -0.3000000000000001 8.489310756818512 L -0.3000000000000001 8.5 " stroke="#191919" stroke-width="0.35 px" style="stroke-width:0.35;stroke-miterlimit:4;stroke-dasharray:none;fill:none;fill-opacity:1;fill-rule: evenodd"/>
<path id="Shape2DView_nwe0020"  d="M 37.8 -6.8 L 37.8 -6.9903396093756225 L 37.8 -7.178285587725734 L 37.8 -7.361474405323784 L 37.8 -7.537602356499848 L 37.8 -7.704454530076072 L 37.8 -7.859932663159847 L 37.8 -8.002081528017131 L 37.8 -8.12911352019565 L 37.8 -8.239431138688083 L 37.8 -8.331647075434113 L 37.8 -8.404601661524225 L 37.8 -8.4573774507091 L 37.8 -8.489310756818512 L 37.8 -8.5 " stroke="#191919" stroke-width="0.35 px" style="stroke-width:0.35;stroke-miterlimit:4;stroke-dasharray:none;fill:none;fill-opacity:1;fill-rule: evenodd"/>
<path id="Shape2DView_nwe0021"  d="M 37.8 6.8 L 37.8 6.990339609375623 L 37.8 7.1782855877257346 L 37.8 7.361474405323784 L 37.8 7.537602356499849 L 37.8 7.704454530076072 L 37.8 7.859932663159847 L 37.8 8.002081528017131 L 37.8 8.12911352019565 L 37.8 8.239431138688083 L 37.8 8.331647075434113 L 37.8 8.404601661524225 L 37.8 8.4573774507091 L 37.8 8.489310756818512 L 37.8 8.5 " stroke="#191919" stroke-width="0.35 px" style="stroke-width:0.35;stroke-miterlimit:4;stroke-dasharray:none;fill:none;fill-opacity:1;fill-rule: evenodd"/>
<path id="Shape2DView_nwe0022"  d="M 37.8 -6.8 L 37.99033960937562 -6.8 L 38.17828558772573 -6.8 L 38.36147440532378 -6.8 L 38.537602356499846 -6.8 L 38.70445453007607 -6.8 L 38.859932663159846 -6.8 L 39.00208152801713 -6.8 L 39.129113520195645 -6.8 L 39.23943113868808 -6.8 L 39.33164707543411 -6.8 L 39.404601661524225 -6.8 L 39.457377450709096 -6.8 L 39.48931075681851 -6.8 L 39.5 -6.8 " stroke="#191919" stroke-width="0.35 px" style="stroke-width:0.35;stroke-miterlimit:4;stroke-dasharray:none;fill:none;fill-opacity:1;fill-rule: evenodd"/>
<path id="Shape2DView_nwe0023"  d="M 37.8 6.8 L 37.99033960937562 6.8 L 38.17828558772573 6.799999999999999 L 38.36147440532378 6.799999999999999 L 38.537602356499846 6.799999999999998 L 38.70445453007607 6.799999999999998 L 38.859932663159846 6.799999999999997 L 39.00208152801713 6.799999999999997 L 39.129113520195645 6.799999999999997 L 39.23943113868808 6.799999999999997 L 39.33164707543411 6.799999999999996 L 39.404601661524225 6.799999999999996 L 39.457377450709096 6.799999999999996 L 39.48931075681851 6.799999999999996 L 39.5 6.799999999999996 " stroke="#191919" stroke-width="0.35 px" style="stroke-width:0.35;stroke-miterlimit:4;stroke-dasharray:none;fill:none;fill-opacity:1;fill-rule: evenodd"/>
<title>b'Shape2DView'</title>
</g>
<g id="Rectangle" transform="translate(2.415000,8.915000) scale(1,-1)">
<rect fill="#ff0000" id="origin" width="1" height="1" x="0" y="0" />
<title>b'Rectangle'</title>
</g>
</svg>