<?xml version="1.0"?>
<!DOCTYPE svg PUBLIC "-//W3C//DTD SVG 1.1//EN" "http://www.w3.org/Graphics/SVG/1.1/DTD/svg11.dtd">
<svg width="13.260000000000002mm" height="3.26mm" viewBox="0 0 13.260000000000002 3.26" xmlns="http://www.w3.org/2000/svg" version="1.1">
<g id="Shape2DView" transform="translate(1.630000,1.630000) scale(1,-1)">
<path id="Shape2DView_nwe0000"  d="M -1.5 -1.2 L -1.5 1.2 " stroke="#191919" stroke-width="0.35 px" style="stroke-width:0.35;stroke-miterlimit:4;stroke-dasharray:none;fill:none;fill-opacity:1;fill-rule: evenodd"/>
<path id="Shape2DView_nwe0001"  d="M -1.2 -1.5 A 0.3 0.3 0 0 0 -1.5 -1.2" stroke="#191919" stroke-width="0.35 px" style="stroke-width:0.35;stroke-miterlimit:4;stroke-dasharray:none;fill:none;fill-opacity:1;fill-rule: evenodd"/>
<path id="Shape2DView_nwe0002"  d="M 11.2 -1.5 L -1.1999999999999993 -1.5 " stroke="#191919" stroke-width="0.35 px" style="stroke-width:0.35;stroke-miterlimit:4;stroke-dasharray:none;fill:none;fill-opacity:1;fill-rule: evenodd"/>
<path id="Shape2DView_nwe0003"  d="M -1.5 1.2 A 0.3 0.3 0 0 0 -1.2 1.5" stroke="#191919" stroke-width="0.35 px" style="stroke-width:0.35;stroke-miterlimit:4;stroke-dasharray:none;fill:none;fill-opacity:1;fill-rule: evenodd"/>
<path id="Shape2DView_nwe0004"  d="M -1.2 1.5 L 11.2 1.5 " stroke="#191919" stroke-width="0.35 px" style="stroke-width:0.35;stroke-miterlimit:4;stroke-dasharray:none;fill:none;fill-opacity:1;fill-rule: evenodd"/>
<path id="Shape2DView_nwe0005"  d="M 11.5 1.2 L 11.5 -1.2 " stroke="#191919" stroke-width="0.35 px" style="stroke-width:0.35;stroke-miterlimit:4;stroke-dasharray:none;fill:none;fill-opacity:1;fill-rule: evenodd"/>
<path id="Shape2DView_nwe0006"  d="M 11.5 -1.2 A 0.3 0.3 0 0 0 11.2 -1.5" stroke="#191919" stroke-width="0.35 px" style="stroke-width:0.35;stroke-miterlimit:4;stroke-dasharray:none;fill:none;fill-opacity:1;fill-rule: evenodd"/>
<path id="Shape2DView_nwe0007"  d="M 11.2 1.5 A 0.3 0.3 0 0 0 11.5 1.2" stroke="#191919" stroke-width="0.35 px" style="stroke-width:0.35;stroke-miterlimit:4;stroke-dasharray:none;fill:none;fill-opacity:1;fill-rule: evenodd"/>
<path id="Shape2DView_nwe0009"  d="M -1.2 -1.2 L -1.2 1.2 " stroke="#191919" stroke-width="0.35 px" style="stroke-width:0.35;stroke-miterlimit:4;stroke-dasharray:none;fill:none;fill-opacity:1;fill-rule: evenodd"/>
<path id="Shape2DView_nwe0010"  d="M -1.2 1.2 L -1.2335893428309923 1.2 L -1.2667562801868943 1.2 L -1.29908371858655 1.2 L -1.3301651217352675 1.2 L -1.3596096229546009 1.2 L -1.38704694055762 1.2 L -1.4121320343559642 1.2 L -1.4345494447404088 1.2 L -1.4540172597684853 1.2 L -1.4702906603707258 1.2 L -1.4831649990925102 1.2 L -1.492478373654547 1.2 L -1.4981136629679728 1.2 L -1.5 1.2 " stroke="#191919" stroke-width="0.35 px" style="stroke-width:0.35;stroke-miterlimit:4;stroke-dasharray:none;fill:none;fill-opacity:1;fill-rule: evenodd"/>
<path id="Shape2DView_nwe0011"  d="M -1.2 -1.2 L -1.2335893428309923 -1.2 L -1.2667562801868941 -1.2 L -1.29908371858655 -1.2 L -1.3301651217352672 -1.2 L -1.3596096229546009 -1.2 L -1.38704694055762 -1.2 L -1.4121320343559642 -1.2 L -1.4345494447404088 -1.2 L -1.4540172597684853 -1.2 L -1.4702906603707255 -1.2 L -1.4831649990925102 -1.2 L -1.492478373654547 -1.2 L -1.4981136629679728 -1.2 L -1.5 -1.2 " stroke="#191919" stroke-width="0.35 px" style="stroke-width:0.35;stroke-miterlimit:4;stroke-dasharray:none;fill:none;fill-opacity:1;fill-rule: evenodd"/>
<path id="Shape2DView_nwe0013"  d="M -1.2 -1.2 L -1.2 -1.2335893428309923 L -1.2 -1.2667562801868943 L -1.2 -1.29908371858655 L -1.2 -1.3301651217352675 L -1.2 -1.3596096229546009 L -1.2 -1.38704694055762 L -1.2 -1.4121320343559642 L -1.2 -1.4345494447404088 L -1.2 -1.4540172597684853 L -1.2 -1.4702906603707258 L -1.2 -1.4831649990925102 L -1.2 -1.492478373654547 L -1.2 -1.4981136629679728 L -1.2 -1.5 " stroke="#191919" stroke-width="0.35 px" style="stroke-width:0.35;stroke-miterlimit:4;stroke-dasharray:none;fill:none;fill-opacity:1;fill-rule: evenodd"/>
<path id="Shape2DView_nwe0014"  d="M 11.2 -1.2 L -1.1999999999999993 -1.2 " stroke="#191919" stroke-width="0.35 px" style="stroke-width:0.35;stroke-miterlimit:4;stroke-dasharray:none;fill:none;fill-opacity:1;fill-rule: evenodd"/>
<path id="Shape2DView_nwe0015"  d="M 11.2 1.2 L 11.2 -1.2 " stroke="#191919" stroke-width="0.35 px" style="stroke-width:0.35;stroke-miterlimit:4;stroke-dasharray:none;fill:none;fill-opacity:1;fill-rule: evenodd"/>
<path id="Shape2DView_nwe0016"  d="M -1.2 1.2 L 11.2 1.2 " stroke="#191919" stroke-width="0.35 px" style="stroke-width:0.35;stroke-miterlimit:4;stroke-dasharray:none;fill:none;fill-opacity:1;fill-rule: evenodd"/>
<path id="Shape2DView_nwe0017"  d="M -1.2 1.2 L -1.2 1.2335893428309923 L -1.2 1.2667562801868941 L -1.2 1.29908371858655 L -1.2 1.3301651217352672 L -1.2 1.3596096229546009 L -1.2 1.38704694055762 L -1.2 1.4121320343559642 L -1.2 1.4345494447404088 L -1.2 1.4540172597684853 L -1.2 1.4702906603707255 L -1.2 1.4831649990925102 L -1.2 1.492478373654547 L -1.2 1.4981136629679728 L -1.2 1.5 " stroke="#191919" stroke-width="0.35 px" style="stroke-width:0.35;stroke-miterlimit:4;stroke-dasharray:none;fill:none;fill-opacity:1;fill-rule: evenodd"/>
<path id="Shape2DView_nwe0020"  d="M 11.2 -1.2 L 11.2 -1.2335893428309923 L 11.2 -1.2667562801868941 L 11.2 -1.29908371858655 L 11.2 -1.3301651217352672 L 11.2 -1.3596096229546009 L 11.2 -1.38704694055762 L 11.2 -1.4121320343559642 L 11.2 -1.4345494447404088 L 11.2 -1.4540172597684853 L 11.2 -1.4702906603707255 L 11.2 -1.4831649990925102 L 11.2 -1.492478373654547 L 11.2 -1.4981136629679728 L 11.2 -1.5 " stroke="#191919" stroke-width="0.35 px" style="stroke-width:0.35;stroke-miterlimit:4;stroke-dasharray:none;fill:none;fill-opacity:1;fill-rule: evenodd"/>
<path id="Shape2DView_nwe0021"  d="M 11.2 -1.2 L 11.233589342830992 -1.2 L 11.266756280186893 -1.2 L 11.29908371858655 -1.2 L 11.330165121735266 -1.2 L 11.3596096229546 -1.2 L 11.38704694055762 -1.2 L 11.412132034355963 -1.2 L 11.434549444740409 -1.2 L 11.454017259768484 -1.2 L 11.470290660370726 -1.2 L 11.483164999092509 -1.2 L 11.492478373654546 -1.2 L 11.498113662967972 -1.2 L 11.5 -1.2 " stroke="#191919" stroke-width="0.35 px" style="stroke-width:0.35;stroke-miterlimit:4;stroke-dasharray:none;fill:none;fill-opacity:1;fill-rule: evenodd"/>
<path id="Shape2DView_nwe0022"  d="M 11.2 1.2 L 11.233589342830992 1.2 L 11.266756280186893 1.1999999999999997 L 11.29908371858655 1.1999999999999997 L 11.330165121735266 1.1999999999999995 L 11.3596096229546 1.1999999999999995 L 11.38704694055762 1.1999999999999993 L 11.412132034355963 1.1999999999999993 L 11.434549444740409 1.1999999999999993 L 11.454017259768484 1.1999999999999993 L 11.470290660370726 1.199999999999999 L 11.483164999092509 1.199999999999999 L 11.492478373654546 1.199999999999999 L 11.498113662967972 1.199999999999999 L 11.5 1.199999999999999 " stroke="#191919" stroke-width="0.35 px" style="stroke-width:0.35;stroke-miterlimit:4;stroke-dasharray:none;fill:none;fill-opacity:1;fill-rule: evenodd"/>
<path id="Shape2DView_nwe0023"  d="M 11.2 1.2 L 11.2 1.2335893428309923 L 11.2 1.2667562801868943 L 11.2 1.29908371858655 L 11.2 1.3301651217352675 L 11.2 1.3596096229546009 L 11.2 1.38704694055762 L 11.2 1.4121320343559642 L 11.2 1.4345494447404088 L 11.2 1.4540172597684853 L 11.2 1.4702906603707258 L 11.2 1.4831649990925102 L 11.2 1.492478373654547 L 11.2 1.4981136629679728 L 11.2 1.5 " stroke="#191919" stroke-width="0.35 px" style="stroke-width:0.35;stroke-miterlimit:4;stroke-dasharray:none;fill:none;fill-opacity:1;fill-rule: evenodd"/>
<title>b'Shape2DView'</title>
</g>
<g id="Rectangle" transform="translate(1.630000,1.630000) scale(1,-1)">
<rect fill="#ff0000" id="origin" width="1" height="1" x="0" y="0" />
<title>b'Rectangle'</title>
</g>
</svg>