<?xml version="1.0"?>
<!DOCTYPE svg PUBLIC "-//W3C//DTD SVG 1.1//EN" "http://www.w3.org/Graphics/SVG/1.1/DTD/svg11.dtd">
<svg width="42.33mm" height="9.83mm" viewBox="0 0 42.33 9.83" xmlns="http://www.w3.org/2000/svg" version="1.1">
<g id="Shape2DView" transform="translate(2.415000,4.915000) scale(1,-1)">
<path id="Shape2DView_nwe0000"  d="M -2.0 -3.6 L -2.0 3.6 " stroke="#191919" stroke-width="0.35 px" style="stroke-width:0.35;stroke-miterlimit:4;stroke-dasharray:none;fill:none;fill-opacity:1;fill-rule: evenodd"/>
<path id="Shape2DView_nwe0001"  d="M -1.1 -4.5 A 0.9 0.9 0 0 0 -2 -3.6" stroke="#191919" stroke-width="0.35 px" style="stroke-width:0.35;stroke-miterlimit:4;stroke-dasharray:none;fill:none;fill-opacity:1;fill-rule: evenodd"/>
<path id="Shape2DView_nwe0002"  d="M 38.6 -4.5 L -1.1000000000000014 -4.5 " stroke="#191919" stroke-width="0.35 px" style="stroke-width:0.35;stroke-miterlimit:4;stroke-dasharray:none;fill:none;fill-opacity:1;fill-rule: evenodd"/>
<path id="Shape2DView_nwe0003"  d="M -2.0 3.6000000000000005 A 0.9 0.9 0 0 0 -1.1 4.5" stroke="#191919" stroke-width="0.35 px" style="stroke-width:0.35;stroke-miterlimit:4;stroke-dasharray:none;fill:none;fill-opacity:1;fill-rule: evenodd"/>
<path id="Shape2DView_nwe0004"  d="M -1.1 4.5 L 38.6 4.5 " stroke="#191919" stroke-width="0.35 px" style="stroke-width:0.35;stroke-miterlimit:4;stroke-dasharray:none;fill:none;fill-opacity:1;fill-rule: evenodd"/>
<path id="Shape2DView_nwe0005"  d="M 39.5 3.6 L 39.5 -3.6 " stroke="#191919" stroke-width="0.35 px" style="stroke-width:0.35;stroke-miterlimit:4;stroke-dasharray:none;fill:none;fill-opacity:1;fill-rule: evenodd"/>
<path id="Shape2DView_nwe0006"  d="M 39.5 -3.6 A 0.9 0.9 0 0 0 38.6 -4.5" stroke="#191919" stroke-width="0.35 px" style="stroke-width:0.35;stroke-miterlimit:4;stroke-dasharray:none;fill:none;fill-opacity:1;fill-rule: evenodd"/>
<path id="Shape2DView_nwe0007"  d="M 38.6 4.5 A 0.9 0.9 0 0 0 39.5 3.6" stroke="#191919" stroke-width="0.35 px" style="stroke-width:0.35;stroke-miterlimit:4;stroke-dasharray:none;fill:none;fill-opacity:1;fill-rule: evenodd"/>
<path id="Shape2DView_nwe0009"  d="M -1.1 -3.6 L -1.1 3.6 " stroke="#191919" stroke-width="0.35 px" style="stroke-width:0.35;stroke-miterlimit:4;stroke-dasharray:none;fill:none;fill-opacity:1;fill-rule: evenodd"/>
<path id="Shape2DView_nwe0010"  d="M -1.1 3.6 L -1.2007680284929771 3.6 L -1.300268840560683 3.6 L -1.3972511557596505 3.6 L -1.4904953652058024 3.6 L -1.578828868863803 3.6 L -1.6611408216728603 3.6 L -1.736396103067893 3.6 L -1.803648334221227 3.6 L -1.8620517793054558 3.6 L -1.9108719811121775 3.6 L -1.9494949972775308 3.6 L -1.9774351209636414 3.6 L -1.9943409889039185 3.6 L -2.0 3.6 " stroke="#191919" stroke-width="0.35 px" style="stroke-width:0.35;stroke-miterlimit:4;stroke-dasharray:none;fill:none;fill-opacity:1;fill-rule: evenodd"/>
<path id="Shape2DView_nwe0011"  d="M -1.0999999999999999 -3.6 L -1.200768028492977 -3.6 L -1.3002688405606828 -3.6 L -1.3972511557596503 -3.6 L -1.4904953652058022 -3.6 L -1.5788288688638028 -3.6 L -1.66114082167286 -3.6 L -1.7363961030678927 -3.6 L -1.8036483342212268 -3.6 L -1.8620517793054558 -3.6 L -1.9108719811121773 -3.6 L -1.9494949972775308 -3.6 L -1.9774351209636412 -3.6 L -1.9943409889039185 -3.6 L -2.0 -3.6 " stroke="#191919" stroke-width="0.35 px" style="stroke-width:0.35;stroke-miterlimit:4;stroke-dasharray:none;fill:none;fill-opacity:1;fill-rule: evenodd"/>
<path id="Shape2DView_nwe0013"  d="M -1.1 -3.6 L -1.1 -3.7007680284929774 L -1.1 -3.8002688405606833 L -1.1 -3.8972511557596503 L -1.1 -3.9904953652058026 L -1.1 -4.078828868863803 L -1.1 -4.16114082167286 L -1.1 -4.236396103067893 L -1.1 -4.303648334221227 L -1.1 -4.362051779305456 L -1.1 -4.4108719811121775 L -1.1 -4.449494997277531 L -1.1 -4.477435120963642 L -1.1 -4.494340988903918 L -1.1 -4.5 " stroke="#191919" stroke-width="0.35 px" style="stroke-width:0.35;stroke-miterlimit:4;stroke-dasharray:none;fill:none;fill-opacity:1;fill-rule: evenodd"/>
<path id="Shape2DView_nwe0014"  d="M 38.6 -3.6 L -1.1000000000000014 -3.6 " stroke="#191919" stroke-width="0.35 px" style="stroke-width:0.35;stroke-miterlimit:4;stroke-dasharray:none;fill:none;fill-opacity:1;fill-rule: evenodd"/>
<path id="Shape2DView_nwe0015"  d="M 38.6 3.6 L 38.6 -3.6 " stroke="#191919" stroke-width="0.35 px" style="stroke-width:0.35;stroke-miterlimit:4;stroke-dasharray:none;fill:none;fill-opacity:1;fill-rule: evenodd"/>
<path id="Shape2DView_nwe0016"  d="M -1.1 3.6 L 38.6 3.6 " stroke="#191919" stroke-width="0.35 px" style="stroke-width:0.35;stroke-miterlimit:4;stroke-dasharray:none;fill:none;fill-opacity:1;fill-rule: evenodd"/>
<path id="Shape2DView_nwe0017"  d="M -1.1 3.6 L -1.1 3.700768028492977 L -1.1 3.800268840560683 L -1.0999999999999999 3.8972511557596503 L -1.0999999999999999 3.990495365205802 L -1.0999999999999999 4.078828868863803 L -1.0999999999999999 4.16114082167286 L -1.0999999999999999 4.236396103067893 L -1.0999999999999999 4.303648334221227 L -1.0999999999999999 4.362051779305456 L -1.0999999999999996 4.4108719811121775 L -1.0999999999999996 4.449494997277531 L -1.0999999999999996 4.477435120963642 L -1.0999999999999996 4.494340988903918 L -1.0999999999999996 4.5 " stroke="#191919" stroke-width="0.35 px" style="stroke-width:0.35;stroke-miterlimit:4;stroke-dasharray:none;fill:none;fill-opacity:1;fill-rule: evenodd"/>
<path id="Shape2DView_nwe0020"  d="M 38.6 -3.6 L 38.6 -3.700768028492977 L 38.6 -3.800268840560683 L 38.6 -3.8972511557596503 L 38.6 -3.990495365205802 L 38.6 -4.078828868863803 L 38.6 -4.16114082167286 L 38.6 -4.236396103067893 L 38.6 -4.303648334221227 L 38.6 -4.362051779305456 L 38.6 -4.4108719811121775 L 38.6 -4.449494997277531 L 38.6 -4.477435120963642 L 38.6 -4.494340988903918 L 38.6 -4.5 " stroke="#191919" stroke-width="0.35 px" style="stroke-width:0.35;stroke-miterlimit:4;stroke-dasharray:none;fill:none;fill-opacity:1;fill-rule: evenodd"/>
<path id="Shape2DView_nwe0021"  d="M 38.6 -3.6 L 38.70076802849298 -3.6 L 38.80026884056068 -3.6 L 38.897251155759655 -3.6 L 38.9904953652058 -3.6 L 39.0788288688638 -3.6 L 39.16114082167286 -3.6 L 39.2363961030679 -3.6 L 39.30364833422123 -3.6 L 39.36205177930546 -3.6 L 39.41087198111218 -3.6 L 39.44949499727753 -3.6 L 39.47743512096364 -3.6 L 39.49434098890392 -3.6 L 39.5 -3.6 " stroke="#191919" stroke-width="0.35 px" style="stroke-width:0.35;stroke-miterlimit:4;stroke-dasharray:none;fill:none;fill-opacity:1;fill-rule: evenodd"/>
<path id="Shape2DView_nwe0022"  d="M 38.6 3.6 L 38.70076802849298 3.6 L 38.80026884056068 3.6 L 38.897251155759655 3.6 L 38.9904953652058 3.6 L 39.0788288688638 3.6 L 39.16114082167286 3.6 L 39.2363961030679 3.6 L 39.30364833422123 3.6 L 39.36205177930546 3.6 L 39.41087198111218 3.6 L 39.44949499727753 3.6 L 39.47743512096364 3.6 L 39.49434098890392 3.6 L 39.5 3.6 " stroke="#191919" stroke-width="0.35 px" style="stroke-width:0.35;stroke-miterlimit:4;stroke-dasharray:none;fill:none;fill-opacity:1;fill-rule: evenodd"/>
<path id="Shape2DView_nwe0023"  d="M 38.6 3.6 L 38.6 3.7007680284929774 L 38.6 3.8002688405606833 L 38.6 3.8972511557596503 L 38.6 3.9904953652058026 L 38.6 4.078828868863803 L 38.6 4.16114082167286 L 38.6 4.236396103067893 L 38.6 4.303648334221227 L 38.6 4.362051779305456 L 38.6 4.4108719811121775 L 38.6 4.449494997277531 L 38.6 4.477435120963642 L 38.6 4.494340988903918 L 38.6 4.5 " stroke="#191919" stroke-width="0.35 px" style="stroke-width:0.35;stroke-miterlimit:4;stroke-dasharray:none;fill:none;fill-opacity:1;fill-rule: evenodd"/>
<title>b'Shape2DView'</title>
</g>
<g id="Rectangle" transform="translate(2.415000,4.915000) scale(1,-1)">
<rect fill="#ff0000" id="origin" width="1" height="1" x="0" y="0" />
<title>b'Rectangle'</title>
</g>
</svg>