<?xml version="1.0"?>
<!DOCTYPE svg PUBLIC "-//W3C//DTD SVG 1.1//EN" "http://www.w3.org/Graphics/SVG/1.1/DTD/svg11.dtd">
<svg width="42.33mm" height="31.83mm" viewBox="0 0 42.33 31.83" xmlns="http://www.w3.org/2000/svg" version="1.1">
<g id="Shape2DView" transform="translate(2.415000,15.915000) scale(1,-1)">
<path id="Shape2DView_nwe0000"  d="M -2.0 -12.4 L -2.0 12.4 " stroke="#191919" stroke-width="0.35 px" style="stroke-width:0.35;stroke-miterlimit:4;stroke-dasharray:none;fill:none;fill-opacity:1;fill-rule: evenodd"/>
<path id="Shape2DView_nwe0001"  d="M 1.1 -15.5 A 3.1 3.1 0 0 0 -2 -12.4" stroke="#191919" stroke-width="0.35 px" style="stroke-width:0.35;stroke-miterlimit:4;stroke-dasharray:none;fill:none;fill-opacity:1;fill-rule: evenodd"/>
<path id="Shape2DView_nwe0002"  d="M 36.4 -15.5 L 1.1000000000000014 -15.5 " stroke="#191919" stroke-width="0.35 px" style="stroke-width:0.35;stroke-miterlimit:4;stroke-dasharray:none;fill:none;fill-opacity:1;fill-rule: evenodd"/>
<path id="Shape2DView_nwe0003"  d="M -2.0 12.400000000000002 A 3.1 3.1 0 0 0 1.1 15.5" stroke="#191919" stroke-width="0.35 px" style="stroke-width:0.35;stroke-miterlimit:4;stroke-dasharray:none;fill:none;fill-opacity:1;fill-rule: evenodd"/>
<path id="Shape2DView_nwe0004"  d="M 1.1 15.5 L 36.4 15.5 " stroke="#191919" stroke-width="0.35 px" style="stroke-width:0.35;stroke-miterlimit:4;stroke-dasharray:none;fill:none;fill-opacity:1;fill-rule: evenodd"/>
<path id="Shape2DView_nwe0005"  d="M 39.5 12.4 L 39.5 -12.4 " stroke="#191919" stroke-width="0.35 px" style="stroke-width:0.35;stroke-miterlimit:4;stroke-dasharray:none;fill:none;fill-opacity:1;fill-rule: evenodd"/>
<path id="Shape2DView_nwe0006"  d="M 39.5 -12.4 A 3.1 3.1 0 0 0 36.4 -15.5" stroke="#191919" stroke-width="0.35 px" style="stroke-width:0.35;stroke-miterlimit:4;stroke-dasharray:none;fill:none;fill-opacity:1;fill-rule: evenodd"/>
<path id="Shape2DView_nwe0007"  d="M 36.4 15.5 A 3.1 3.1 0 0 0 39.5 12.4" stroke="#191919" stroke-width="0.35 px" style="stroke-width:0.35;stroke-miterlimit:4;stroke-dasharray:none;fill:none;fill-opacity:1;fill-rule: evenodd"/>
<path id="Shape2DView_nwe0009"  d="M 1.1 -12.4 L 1.1 12.4 " stroke="#191919" stroke-width="0.35 px" style="stroke-width:0.35;stroke-miterlimit:4;stroke-dasharray:none;fill:none;fill-opacity:1;fill-rule: evenodd"/>
<path id="Shape2DView_nwe0010"  d="M 1.1000000000000008 12.4 L 0.7529101240797462 12.4 L 0.410185104735426 12.4 L 0.07613490793898281 12.4 L -0.24503959126442965 12.4 L -0.5492994371975426 12.400000000000002 L -0.8328183857620735 12.400000000000002 L -1.092031021678297 12.400000000000002 L -1.3236775956508922 12.400000000000002 L -1.5248450176076802 12.400000000000002 L -1.693003490497499 12.400000000000002 L -1.826038323955939 12.400000000000002 L -1.9222765277636529 12.400000000000002 L -1.9805078506690519 12.400000000000002 L -2.0 12.400000000000002 " stroke="#191919" stroke-width="0.35 px" style="stroke-width:0.35;stroke-miterlimit:4;stroke-dasharray:none;fill:none;fill-opacity:1;fill-rule: evenodd"/>
<path id="Shape2DView_nwe0011"  d="M 1.1000000000000008 -12.4 L 0.7529101240797462 -12.4 L 0.410185104735426 -12.4 L 0.07613490793898281 -12.4 L -0.24503959126442965 -12.4 L -0.5492994371975426 -12.4 L -0.8328183857620735 -12.4 L -1.092031021678297 -12.4 L -1.3236775956508922 -12.4 L -1.5248450176076802 -12.4 L -1.693003490497499 -12.4 L -1.826038323955939 -12.4 L -1.9222765277636529 -12.4 L -1.9805078506690519 -12.4 L -2.0 -12.4 " stroke="#191919" stroke-width="0.35 px" style="stroke-width:0.35;stroke-miterlimit:4;stroke-dasharray:none;fill:none;fill-opacity:1;fill-rule: evenodd"/>
<path id="Shape2DView_nwe0013"  d="M 1.1 -12.4 L 1.1 -12.747089875920254 L 1.1 -13.089814895264574 L 1.1 -13.423865092061018 L 1.1 -13.74503959126443 L 1.1 -14.049299437197543 L 1.1 -14.332818385762074 L 1.1 -14.592031021678297 L 1.1 -14.823677595650892 L 1.1 -15.024845017607682 L 1.1 -15.1930034904975 L 1.1 -15.32603832395594 L 1.1 -15.422276527763653 L 1.1 -15.480507850669053 L 1.1 -15.5 " stroke="#191919" stroke-width="0.35 px" style="stroke-width:0.35;stroke-miterlimit:4;stroke-dasharray:none;fill:none;fill-opacity:1;fill-rule: evenodd"/>
<path id="Shape2DView_nwe0014"  d="M 1.1 12.4 L 36.4 12.4 " stroke="#191919" stroke-width="0.35 px" style="stroke-width:0.35;stroke-miterlimit:4;stroke-dasharray:none;fill:none;fill-opacity:1;fill-rule: evenodd"/>
<path id="Shape2DView_nwe0015"  d="M 36.4 -12.4 L 1.1000000000000014 -12.4 " stroke="#191919" stroke-width="0.35 px" style="stroke-width:0.35;stroke-miterlimit:4;stroke-dasharray:none;fill:none;fill-opacity:1;fill-rule: evenodd"/>
<path id="Shape2DView_nwe0016"  d="M 36.4 12.4 L 36.4 -12.4 " stroke="#191919" stroke-width="0.35 px" style="stroke-width:0.35;stroke-miterlimit:4;stroke-dasharray:none;fill:none;fill-opacity:1;fill-rule: evenodd"/>
<path id="Shape2DView_nwe0017"  d="M 1.1 12.4 L 1.1000000000000003 12.747089875920254 L 1.1000000000000005 13.089814895264574 L 1.1000000000000005 13.423865092061018 L 1.1000000000000008 13.74503959126443 L 1.100000000000001 14.049299437197543 L 1.100000000000001 14.332818385762074 L 1.1000000000000012 14.592031021678297 L 1.1000000000000014 14.823677595650892 L 1.1000000000000014 15.024845017607682 L 1.1000000000000014 15.1930034904975 L 1.1000000000000016 15.32603832395594 L 1.1000000000000016 15.422276527763653 L 1.1000000000000016 15.480507850669053 L 1.1000000000000016 15.5 " stroke="#191919" stroke-width="0.35 px" style="stroke-width:0.35;stroke-miterlimit:4;stroke-dasharray:none;fill:none;fill-opacity:1;fill-rule: evenodd"/>
<path id="Shape2DView_nwe0020"  d="M 36.4 -12.4 L 36.4 -12.747089875920254 L 36.4 -13.089814895264574 L 36.4 -13.423865092061018 L 36.4 -13.74503959126443 L 36.4 -14.049299437197543 L 36.4 -14.332818385762074 L 36.4 -14.592031021678297 L 36.4 -14.823677595650892 L 36.4 -15.024845017607682 L 36.4 -15.1930034904975 L 36.4 -15.32603832395594 L 36.4 -15.422276527763653 L 36.4 -15.480507850669053 L 36.4 -15.5 " stroke="#191919" stroke-width="0.35 px" style="stroke-width:0.35;stroke-miterlimit:4;stroke-dasharray:none;fill:none;fill-opacity:1;fill-rule: evenodd"/>
<path id="Shape2DView_nwe0021"  d="M 36.4 12.4 L 36.4 12.747089875920254 L 36.4 13.089814895264574 L 36.4 13.423865092061018 L 36.4 13.74503959126443 L 36.4 14.049299437197543 L 36.4 14.332818385762074 L 36.4 14.592031021678297 L 36.4 14.823677595650892 L 36.4 15.024845017607682 L 36.4 15.1930034904975 L 36.4 15.32603832395594 L 36.4 15.422276527763653 L 36.4 15.480507850669053 L 36.4 15.5 " stroke="#191919" stroke-width="0.35 px" style="stroke-width:0.35;stroke-miterlimit:4;stroke-dasharray:none;fill:none;fill-opacity:1;fill-rule: evenodd"/>
<path id="Shape2DView_nwe0022"  d="M 36.4 -12.4 L 36.74708987592025 -12.4 L 37.089814895264574 -12.4 L 37.423865092061014 -12.4 L 37.74503959126443 -12.4 L 38.04929943719754 -12.4 L 38.332818385762074 -12.4 L 38.592031021678295 -12.4 L 38.82367759565089 -12.4 L 39.02484501760768 -12.4 L 39.193003490497496 -12.4 L 39.32603832395594 -12.4 L 39.42227652776365 -12.4 L 39.48050785066905 -12.4 L 39.5 -12.4 " stroke="#191919" stroke-width="0.35 px" style="stroke-width:0.35;stroke-miterlimit:4;stroke-dasharray:none;fill:none;fill-opacity:1;fill-rule: evenodd"/>
<path id="Shape2DView_nwe0023"  d="M 36.4 12.4 L 36.74708987592025 12.4 L 37.089814895264574 12.4 L 37.423865092061014 12.4 L 37.74503959126443 12.4 L 38.04929943719754 12.4 L 38.332818385762074 12.4 L 38.592031021678295 12.4 L 38.82367759565089 12.4 L 39.02484501760768 12.4 L 39.193003490497496 12.4 L 39.326038323955935 12.4 L 39.42227652776365 12.4 L 39.48050785066905 12.4 L 39.5 12.4 " stroke="#191919" stroke-width="0.35 px" style="stroke-width:0.35;stroke-miterlimit:4;stroke-dasharray:none;fill:none;fill-opacity:1;fill-rule: evenodd"/>
<title>b'Shape2DView'</title>
</g>
<g id="Rectangle" transform="translate(2.415000,15.915000) scale(1,-1)">
<rect fill="#ff0000" id="origin" width="1" height="1" x="0" y="0" />
<title>b'Rectangle'</title>
</g>
</svg>