<?xml version="1.0"?>
<!DOCTYPE svg PUBLIC "-//W3C//DTD SVG 1.1//EN" "http://www.w3.org/Graphics/SVG/1.1/DTD/svg11.dtd">
<svg width="7.344000000000001mm" height="4.644mm" viewBox="0 0 7.344000000000001 4.644" xmlns="http://www.w3.org/2000/svg" version="1.1">
<g id="Shape2DView" transform="translate(1.172000,2.322000) scale(1,-1)">
<path id="Shape2DView_nwe0000"  d="M -1.1 1.8 L -1.1 -1.8 " stroke="#191919" stroke-width="0.35 px" style="stroke-width:0.35;stroke-miterlimit:4;stroke-dasharray:none;fill:none;fill-opacity:1;fill-rule: evenodd"/>
<path id="Shape2DView_nwe0001"  d="M -1.1 -1.8 A 0.45 0.45 0 0 1 -0.65 -2.25" stroke="#191919" stroke-width="0.35 px" style="stroke-width:0.35;stroke-miterlimit:4;stroke-dasharray:none;fill:none;fill-opacity:1;fill-rule: evenodd"/>
<path id="Shape2DView_nwe0002"  d="M -0.65 -2.25 L 5.65 -2.25 " stroke="#191919" stroke-width="0.35 px" style="stroke-width:0.35;stroke-miterlimit:4;stroke-dasharray:none;fill:none;fill-opacity:1;fill-rule: evenodd"/>
<path id="Shape2DView_nwe0003"  d="M -0.65 2.25 A 0.45 0.45 0 0 1 -1.1 1.8" stroke="#191919" stroke-width="0.35 px" style="stroke-width:0.35;stroke-miterlimit:4;stroke-dasharray:none;fill:none;fill-opacity:1;fill-rule: evenodd"/>
<path id="Shape2DView_nwe0004"  d="M 5.65 2.25 L -0.6500000000000004 2.25 " stroke="#191919" stroke-width="0.35 px" style="stroke-width:0.35;stroke-miterlimit:4;stroke-dasharray:none;fill:none;fill-opacity:1;fill-rule: evenodd"/>
<path id="Shape2DView_nwe0005"  d="M 6.1 -1.8 L 6.1 1.8 " stroke="#191919" stroke-width="0.35 px" style="stroke-width:0.35;stroke-miterlimit:4;stroke-dasharray:none;fill:none;fill-opacity:1;fill-rule: evenodd"/>
<path id="Shape2DView_nwe0006"  d="M 5.65 -2.25 A 0.45 0.45 0 0 1 6.1 -1.8" stroke="#191919" stroke-width="0.35 px" style="stroke-width:0.35;stroke-miterlimit:4;stroke-dasharray:none;fill:none;fill-opacity:1;fill-rule: evenodd"/>
<path id="Shape2DView_nwe0007"  d="M 6.1000000000000005 1.8000000000000007 A 0.45 0.45 0 0 1 5.65 2.25" stroke="#191919" stroke-width="0.35 px" style="stroke-width:0.35;stroke-miterlimit:4;stroke-dasharray:none;fill:none;fill-opacity:1;fill-rule: evenodd"/>
<path id="Shape2DView_nwe0009"  d="M -0.6499999999999999 1.8 L -0.7003840142464884 1.8 L -0.7501344202803414 1.8 L -0.7986255778798251 1.8 L -0.8452476826029012 1.8 L -0.8894144344319014 1.8 L -0.9305704108364301 1.8 L -0.9681980515339463 1.8 L -1.0018241671106134 1.8 L -1.0310258896527278 1.8 L -1.0554359905560886 1.8 L -1.0747474986387653 1.8 L -1.0887175604818207 1.8 L -1.0971704944519591 1.8 L -1.1 1.8 " stroke="#191919" stroke-width="0.35 px" style="stroke-width:0.35;stroke-miterlimit:4;stroke-dasharray:none;fill:none;fill-opacity:1;fill-rule: evenodd"/>
<path id="Shape2DView_nwe0010"  d="M -0.6499999999999999 -1.8 L -0.7003840142464884 -1.8 L -0.7501344202803414 -1.8 L -0.7986255778798251 -1.8 L -0.8452476826029012 -1.8 L -0.8894144344319014 -1.8 L -0.9305704108364301 -1.8 L -0.9681980515339463 -1.8 L -1.0018241671106134 -1.8 L -1.0310258896527278 -1.8 L -1.0554359905560886 -1.8 L -1.0747474986387653 -1.8 L -1.0887175604818207 -1.8 L -1.0971704944519591 -1.8 L -1.1 -1.8 " stroke="#191919" stroke-width="0.35 px" style="stroke-width:0.35;stroke-miterlimit:4;stroke-dasharray:none;fill:none;fill-opacity:1;fill-rule: evenodd"/>
<path id="Shape2DView_nwe0011"  d="M -0.65 1.8 L -0.65 -1.8 " stroke="#191919" stroke-width="0.35 px" style="stroke-width:0.35;stroke-miterlimit:4;stroke-dasharray:none;fill:none;fill-opacity:1;fill-rule: evenodd"/>
<path id="Shape2DView_nwe0013"  d="M -0.65 -1.8 L -0.65 -1.8503840142464885 L -0.65 -1.9001344202803414 L -0.65 -1.9486255778798252 L -0.65 -1.995247682602901 L -0.65 -2.0394144344319014 L -0.65 -2.08057041083643 L -0.65 -2.1181980515339465 L -0.65 -2.1518241671106133 L -0.65 -2.181025889652728 L -0.65 -2.2054359905560887 L -0.65 -2.2247474986387656 L -0.65 -2.238717560481821 L -0.65 -2.247170494451959 L -0.65 -2.25 " stroke="#191919" stroke-width="0.35 px" style="stroke-width:0.35;stroke-miterlimit:4;stroke-dasharray:none;fill:none;fill-opacity:1;fill-rule: evenodd"/>
<path id="Shape2DView_nwe0014"  d="M -0.65 1.8 L -0.65 1.8503840142464887 L -0.65 1.9001344202803416 L -0.65 1.9486255778798252 L -0.65 1.9952476826029013 L -0.65 2.0394144344319014 L -0.65 2.08057041083643 L -0.65 2.1181980515339465 L -0.65 2.1518241671106133 L -0.65 2.181025889652728 L -0.65 2.2054359905560887 L -0.65 2.2247474986387656 L -0.65 2.238717560481821 L -0.65 2.247170494451959 L -0.65 2.25 " stroke="#191919" stroke-width="0.35 px" style="stroke-width:0.35;stroke-miterlimit:4;stroke-dasharray:none;fill:none;fill-opacity:1;fill-rule: evenodd"/>
<path id="Shape2DView_nwe0015"  d="M -0.65 -1.8 L 5.65 -1.8 " stroke="#191919" stroke-width="0.35 px" style="stroke-width:0.35;stroke-miterlimit:4;stroke-dasharray:none;fill:none;fill-opacity:1;fill-rule: evenodd"/>
<path id="Shape2DView_nwe0016"  d="M 5.65 -1.8 L 5.65 1.8 " stroke="#191919" stroke-width="0.35 px" style="stroke-width:0.35;stroke-miterlimit:4;stroke-dasharray:none;fill:none;fill-opacity:1;fill-rule: evenodd"/>
<path id="Shape2DView_nwe0017"  d="M 5.65 1.8 L -0.6500000000000004 1.8 " stroke="#191919" stroke-width="0.35 px" style="stroke-width:0.35;stroke-miterlimit:4;stroke-dasharray:none;fill:none;fill-opacity:1;fill-rule: evenodd"/>
<path id="Shape2DView_nwe0020"  d="M 5.65 -1.8 L 5.65 -1.8503840142464887 L 5.65 -1.9001344202803416 L 5.65 -1.9486255778798252 L 5.65 -1.9952476826029013 L 5.65 -2.0394144344319014 L 5.65 -2.08057041083643 L 5.65 -2.1181980515339465 L 5.65 -2.1518241671106133 L 5.65 -2.181025889652728 L 5.65 -2.2054359905560887 L 5.65 -2.2247474986387656 L 5.65 -2.238717560481821 L 5.65 -2.247170494451959 L 5.65 -2.25 " stroke="#191919" stroke-width="0.35 px" style="stroke-width:0.35;stroke-miterlimit:4;stroke-dasharray:none;fill:none;fill-opacity:1;fill-rule: evenodd"/>
<path id="Shape2DView_nwe0021"  d="M 5.65 1.8 L 5.65 1.8503840142464885 L 5.65 1.9001344202803414 L 5.65 1.9486255778798252 L 5.65 1.995247682602901 L 5.65 2.0394144344319014 L 5.65 2.08057041083643 L 5.65 2.1181980515339465 L 5.65 2.1518241671106133 L 5.65 2.181025889652728 L 5.65 2.2054359905560887 L 5.65 2.2247474986387656 L 5.65 2.238717560481821 L 5.65 2.247170494451959 L 5.65 2.25 " stroke="#191919" stroke-width="0.35 px" style="stroke-width:0.35;stroke-miterlimit:4;stroke-dasharray:none;fill:none;fill-opacity:1;fill-rule: evenodd"/>
<path id="Shape2DView_nwe0022"  d="M 5.65 -1.8 L 5.700384014246489 -1.8 L 5.750134420280342 -1.8 L 5.798625577879825 -1.7999999999999998 L 5.845247682602902 -1.7999999999999998 L 5.8894144344319015 -1.7999999999999998 L 5.93057041083643 -1.7999999999999998 L 5.968198051533947 -1.7999999999999998 L 6.001824167110613 -1.7999999999999998 L 6.031025889652728 -1.7999999999999996 L 6.055435990556089 -1.7999999999999996 L 6.074747498638766 -1.7999999999999996 L 6.088717560481821 -1.7999999999999996 L 6.09717049445196 -1.7999999999999996 L 6.1000000000000005 -1.7999999999999996 " stroke="#191919" stroke-width="0.35 px" style="stroke-width:0.35;stroke-miterlimit:4;stroke-dasharray:none;fill:none;fill-opacity:1;fill-rule: evenodd"/>
<path id="Shape2DView_nwe0023"  d="M 5.65 1.8 L 5.700384014246489 1.8 L 5.750134420280342 1.8 L 5.798625577879825 1.8 L 5.845247682602902 1.8 L 5.8894144344319015 1.8 L 5.93057041083643 1.8 L 5.968198051533947 1.8 L 6.001824167110613 1.8 L 6.031025889652728 1.8 L 6.055435990556089 1.8 L 6.074747498638766 1.8 L 6.088717560481821 1.8 L 6.09717049445196 1.8 L 6.1000000000000005 1.8 " stroke="#191919" stroke-width="0.35 px" style="stroke-width:0.35;stroke-miterlimit:4;stroke-dasharray:none;fill:none;fill-opacity:1;fill-rule: evenodd"/>
<title>b'Shape2DView'</title>
</g>
<g id="Rectangle" transform="translate(1.172000,2.322000) scale(1,-1)">
<rect fill="#ff0000" id="origin" width="1" height="1" x="0" y="0" />
<title>b'Rectangle'</title>
</g>
</svg>