<?xml version="1.0"?>
<!DOCTYPE svg PUBLIC "-//W3C//DTD SVG 1.1//EN" "http://www.w3.org/Graphics/SVG/1.1/DTD/svg11.dtd">
<svg width="19.380000000000003mm" height="7.38mm" viewBox="0 0 19.380000000000003 7.38" xmlns="http://www.w3.org/2000/svg" version="1.1">
<g id="Shape2DView" transform="translate(2.190000,3.690000) scale(1,-1)">
<path id="Shape2DView_nwe0000"  d="M -2.0 -2.8 L -2.0 2.8 " stroke="#191919" stroke-width="0.35 px" style="stroke-width:0.35;stroke-miterlimit:4;stroke-dasharray:none;fill:none;fill-opacity:1;fill-rule: evenodd"/>
<path id="Shape2DView_nwe0001"  d="M -1.3 -3.5 A 0.7 0.7 0 0 0 -2 -2.8" stroke="#191919" stroke-width="0.35 px" style="stroke-width:0.35;stroke-miterlimit:4;stroke-dasharray:none;fill:none;fill-opacity:1;fill-rule: evenodd"/>
<path id="Shape2DView_nwe0002"  d="M 16.3 -3.5 L -1.3000000000000007 -3.5 " stroke="#191919" stroke-width="0.35 px" style="stroke-width:0.35;stroke-miterlimit:4;stroke-dasharray:none;fill:none;fill-opacity:1;fill-rule: evenodd"/>
<path id="Shape2DView_nwe0003"  d="M -2.0 2.8 A 0.7 0.7 0 0 0 -1.3 3.5" stroke="#191919" stroke-width="0.35 px" style="stroke-width:0.35;stroke-miterlimit:4;stroke-dasharray:none;fill:none;fill-opacity:1;fill-rule: evenodd"/>
<path id="Shape2DView_nwe0004"  d="M -1.3 3.5 L 16.3 3.5 " stroke="#191919" stroke-width="0.35 px" style="stroke-width:0.35;stroke-miterlimit:4;stroke-dasharray:none;fill:none;fill-opacity:1;fill-rule: evenodd"/>
<path id="Shape2DView_nwe0005"  d="M 17.0 2.8 L 17.0 -2.8 " stroke="#191919" stroke-width="0.35 px" style="stroke-width:0.35;stroke-miterlimit:4;stroke-dasharray:none;fill:none;fill-opacity:1;fill-rule: evenodd"/>
<path id="Shape2DView_nwe0006"  d="M 17.0 -2.8 A 0.7 0.7 0 0 0 16.3 -3.5" stroke="#191919" stroke-width="0.35 px" style="stroke-width:0.35;stroke-miterlimit:4;stroke-dasharray:none;fill:none;fill-opacity:1;fill-rule: evenodd"/>
<path id="Shape2DView_nwe0007"  d="M 16.3 3.5 A 0.7 0.7 0 0 0 17 2.8" stroke="#191919" stroke-width="0.35 px" style="stroke-width:0.35;stroke-miterlimit:4;stroke-dasharray:none;fill:none;fill-opacity:1;fill-rule: evenodd"/>
<path id="Shape2DView_nwe0009"  d="M -1.3 -2.8 L -1.3 2.8 " stroke="#191919" stroke-width="0.35 px" style="stroke-width:0.35;stroke-miterlimit:4;stroke-dasharray:none;fill:none;fill-opacity:1;fill-rule: evenodd"/>
<path id="Shape2DView_nwe0010"  d="M -1.2999999999999998 2.8 L -1.3783751332723153 2.8 L -1.45576465376942 2.8 L -1.531195343368617 2.8 L -1.6037186173822906 2.8 L -1.6724224535607355 2.7999999999999994 L -1.7364428613011134 2.7999999999999994 L -1.7949747468305832 2.7999999999999994 L -1.847282037727621 2.7999999999999994 L -1.8927069394597988 2.7999999999999994 L -1.9306782075316933 2.7999999999999994 L -1.9607183312158574 2.7999999999999994 L -1.9824495385272765 2.7999999999999994 L -1.9955985469252697 2.7999999999999994 L -2.0 2.7999999999999994 " stroke="#191919" stroke-width="0.35 px" style="stroke-width:0.35;stroke-miterlimit:4;stroke-dasharray:none;fill:none;fill-opacity:1;fill-rule: evenodd"/>
<path id="Shape2DView_nwe0011"  d="M -1.2999999999999998 -2.8 L -1.3783751332723153 -2.8 L -1.45576465376942 -2.8 L -1.531195343368617 -2.8 L -1.6037186173822906 -2.8 L -1.6724224535607355 -2.8 L -1.7364428613011134 -2.8 L -1.7949747468305832 -2.8 L -1.847282037727621 -2.8 L -1.8927069394597988 -2.8 L -1.9306782075316933 -2.8 L -1.9607183312158574 -2.8 L -1.9824495385272765 -2.8 L -1.9955985469252697 -2.8 L -2.0 -2.8 " stroke="#191919" stroke-width="0.35 px" style="stroke-width:0.35;stroke-miterlimit:4;stroke-dasharray:none;fill:none;fill-opacity:1;fill-rule: evenodd"/>
<path id="Shape2DView_nwe0013"  d="M -1.3 -2.8 L -1.3 -2.878375133272315 L -1.3 -2.9557646537694198 L -1.3 -3.031195343368617 L -1.3 -3.1037186173822904 L -1.3 -3.1724224535607353 L -1.3 -3.2364428613011134 L -1.3 -3.294974746830583 L -1.3 -3.347282037727621 L -1.3 -3.3927069394597984 L -1.3 -3.430678207531693 L -1.3 -3.460718331215857 L -1.3 -3.4824495385272765 L -1.3 -3.4955985469252697 L -1.3 -3.5 " stroke="#191919" stroke-width="0.35 px" style="stroke-width:0.35;stroke-miterlimit:4;stroke-dasharray:none;fill:none;fill-opacity:1;fill-rule: evenodd"/>
<path id="Shape2DView_nwe0014"  d="M -1.3 2.8 L 16.3 2.8 " stroke="#191919" stroke-width="0.35 px" style="stroke-width:0.35;stroke-miterlimit:4;stroke-dasharray:none;fill:none;fill-opacity:1;fill-rule: evenodd"/>
<path id="Shape2DView_nwe0015"  d="M 16.3 -2.8 L -1.3000000000000007 -2.8 " stroke="#191919" stroke-width="0.35 px" style="stroke-width:0.35;stroke-miterlimit:4;stroke-dasharray:none;fill:none;fill-opacity:1;fill-rule: evenodd"/>
<path id="Shape2DView_nwe0016"  d="M 16.3 2.8 L 16.3 -2.8 " stroke="#191919" stroke-width="0.35 px" style="stroke-width:0.35;stroke-miterlimit:4;stroke-dasharray:none;fill:none;fill-opacity:1;fill-rule: evenodd"/>
<path id="Shape2DView_nwe0017"  d="M -1.3 2.8 L -1.3 2.878375133272315 L -1.3000000000000003 2.9557646537694198 L -1.3000000000000003 3.0311953433686165 L -1.3000000000000003 3.1037186173822904 L -1.3000000000000003 3.1724224535607353 L -1.3000000000000003 3.2364428613011134 L -1.3000000000000005 3.294974746830583 L -1.3000000000000005 3.3472820377276205 L -1.3000000000000005 3.3927069394597984 L -1.3000000000000005 3.430678207531693 L -1.3000000000000005 3.460718331215857 L -1.3000000000000005 3.482449538527276 L -1.3000000000000005 3.4955985469252697 L -1.3000000000000005 3.5 " stroke="#191919" stroke-width="0.35 px" style="stroke-width:0.35;stroke-miterlimit:4;stroke-dasharray:none;fill:none;fill-opacity:1;fill-rule: evenodd"/>
<path id="Shape2DView_nwe0020"  d="M 16.3 -2.8 L 16.3 -2.878375133272315 L 16.3 -2.9557646537694198 L 16.3 -3.0311953433686165 L 16.3 -3.1037186173822904 L 16.3 -3.1724224535607353 L 16.3 -3.2364428613011134 L 16.3 -3.294974746830583 L 16.3 -3.3472820377276205 L 16.3 -3.3927069394597984 L 16.3 -3.430678207531693 L 16.3 -3.460718331215857 L 16.3 -3.482449538527276 L 16.3 -3.4955985469252697 L 16.3 -3.5 " stroke="#191919" stroke-width="0.35 px" style="stroke-width:0.35;stroke-miterlimit:4;stroke-dasharray:none;fill:none;fill-opacity:1;fill-rule: evenodd"/>
<path id="Shape2DView_nwe0021"  d="M 16.3 2.8 L 16.3 2.878375133272315 L 16.3 2.9557646537694198 L 16.3 3.031195343368617 L 16.3 3.1037186173822904 L 16.3 3.1724224535607353 L 16.3 3.2364428613011134 L 16.3 3.294974746830583 L 16.3 3.347282037727621 L 16.3 3.3927069394597984 L 16.3 3.430678207531693 L 16.3 3.460718331215857 L 16.3 3.4824495385272765 L 16.3 3.4955985469252697 L 16.3 3.5 " stroke="#191919" stroke-width="0.35 px" style="stroke-width:0.35;stroke-miterlimit:4;stroke-dasharray:none;fill:none;fill-opacity:1;fill-rule: evenodd"/>
<path id="Shape2DView_nwe0022"  d="M 16.3 -2.8 L 16.378375133272318 -2.8 L 16.45576465376942 -2.8 L 16.53119534336862 -2.8 L 16.60371861738229 -2.8 L 16.672422453560735 -2.8 L 16.736442861301114 -2.8 L 16.794974746830583 -2.8 L 16.84728203772762 -2.8 L 16.8927069394598 -2.8 L 16.930678207531695 -2.8 L 16.96071833121586 -2.8 L 16.982449538527277 -2.8 L 16.99559854692527 -2.8 L 17.0 -2.8 " stroke="#191919" stroke-width="0.35 px" style="stroke-width:0.35;stroke-miterlimit:4;stroke-dasharray:none;fill:none;fill-opacity:1;fill-rule: evenodd"/>
<path id="Shape2DView_nwe0023"  d="M 16.3 2.8 L 16.378375133272318 2.8 L 16.45576465376942 2.8 L 16.53119534336862 2.8 L 16.60371861738229 2.8 L 16.672422453560735 2.8 L 16.736442861301114 2.8 L 16.794974746830583 2.8 L 16.84728203772762 2.8 L 16.8927069394598 2.8 L 16.930678207531695 2.8 L 16.96071833121586 2.8 L 16.982449538527277 2.8 L 16.99559854692527 2.8 L 17.0 2.8 " stroke="#191919" stroke-width="0.35 px" style="stroke-width:0.35;stroke-miterlimit:4;stroke-dasharray:none;fill:none;fill-opacity:1;fill-rule: evenodd"/>
<title>b'Shape2DView'</title>
</g>
<g id="Rectangle" transform="translate(2.190000,3.690000) scale(1,-1)">
<rect fill="#ff0000" id="origin" width="1" height="1" x="0" y="0" />
<title>b'Rectangle'</title>
</g>
</svg>