<?xml version="1.0"?>
<!DOCTYPE svg PUBLIC "-//W3C//DTD SVG 1.1//EN" "http://www.w3.org/Graphics/SVG/1.1/DTD/svg11.dtd">
<svg width="32.13mm" height="11.63mm" viewBox="0 0 32.13 11.63" xmlns="http://www.w3.org/2000/svg" version="1.1">
<g id="Shape2DView" transform="translate(2.315000,5.815000) scale(1,-1)">
<path id="Shape2DView_nwe0000"  d="M -2.0 -4.4 L -2.0 4.4 " stroke="#191919" stroke-width="0.35 px" style="stroke-width:0.35;stroke-miterlimit:4;stroke-dasharray:none;fill:none;fill-opacity:1;fill-rule: evenodd"/>
<path id="Shape2DView_nwe0001"  d="M -0.9 -5.5 A 1.1 1.1 0 0 0 -2 -4.4" stroke="#191919" stroke-width="0.35 px" style="stroke-width:0.35;stroke-miterlimit:4;stroke-dasharray:none;fill:none;fill-opacity:1;fill-rule: evenodd"/>
<path id="Shape2DView_nwe0002"  d="M 28.4 -5.5 L -0.8999999999999986 -5.5 " stroke="#191919" stroke-width="0.35 px" style="stroke-width:0.35;stroke-miterlimit:4;stroke-dasharray:none;fill:none;fill-opacity:1;fill-rule: evenodd"/>
<path id="Shape2DView_nwe0003"  d="M -2.0 4.4 A 1.1 1.1 0 0 0 -0.9 5.5" stroke="#191919" stroke-width="0.35 px" style="stroke-width:0.35;stroke-miterlimit:4;stroke-dasharray:none;fill:none;fill-opacity:1;fill-rule: evenodd"/>
<path id="Shape2DView_nwe0004"  d="M -0.9 5.5 L 28.4 5.5 " stroke="#191919" stroke-width="0.35 px" style="stroke-width:0.35;stroke-miterlimit:4;stroke-dasharray:none;fill:none;fill-opacity:1;fill-rule: evenodd"/>
<path id="Shape2DView_nwe0005"  d="M 29.5 4.4 L 29.5 -4.4 " stroke="#191919" stroke-width="0.35 px" style="stroke-width:0.35;stroke-miterlimit:4;stroke-dasharray:none;fill:none;fill-opacity:1;fill-rule: evenodd"/>
<path id="Shape2DView_nwe0006"  d="M 29.5 -4.4 A 1.1 1.1 0 0 0 28.4 -5.5" stroke="#191919" stroke-width="0.35 px" style="stroke-width:0.35;stroke-miterlimit:4;stroke-dasharray:none;fill:none;fill-opacity:1;fill-rule: evenodd"/>
<path id="Shape2DView_nwe0007"  d="M 28.4 5.5 A 1.1 1.1 0 0 0 29.5 4.4" stroke="#191919" stroke-width="0.35 px" style="stroke-width:0.35;stroke-miterlimit:4;stroke-dasharray:none;fill:none;fill-opacity:1;fill-rule: evenodd"/>
<path id="Shape2DView_nwe0009"  d="M -0.9 -4.4 L -0.9 4.4 " stroke="#191919" stroke-width="0.35 px" style="stroke-width:0.35;stroke-miterlimit:4;stroke-dasharray:none;fill:none;fill-opacity:1;fill-rule: evenodd"/>
<path id="Shape2DView_nwe0010"  d="M -0.8999999999999998 4.4 L -1.0231609237136385 4.4 L -1.1447730273519456 4.4 L -1.2633069681506837 4.4 L -1.3772721130293137 4.4 L -1.48523528416687 4.4 L -1.5858387820446067 4.4 L -1.6778174593052022 4.4 L -1.7600146307148328 4.4 L -1.8313966191511124 4.4 L -1.891065754692661 4.4 L -1.9382716633392043 4.4 L -1.9724207034000059 4.4 L -1.993083430882567 4.4 L -2.0 4.4 " stroke="#191919" stroke-width="0.35 px" style="stroke-width:0.35;stroke-miterlimit:4;stroke-dasharray:none;fill:none;fill-opacity:1;fill-rule: evenodd"/>
<path id="Shape2DView_nwe0011"  d="M -0.8999999999999998 -4.4 L -1.0231609237136385 -4.4 L -1.1447730273519456 -4.4 L -1.2633069681506837 -4.4 L -1.3772721130293137 -4.4 L -1.48523528416687 -4.4 L -1.5858387820446067 -4.4 L -1.6778174593052022 -4.4 L -1.7600146307148328 -4.4 L -1.8313966191511124 -4.4 L -1.891065754692661 -4.4 L -1.9382716633392043 -4.4 L -1.9724207034000059 -4.4 L -1.993083430882567 -4.4 L -2.0 -4.4 " stroke="#191919" stroke-width="0.35 px" style="stroke-width:0.35;stroke-miterlimit:4;stroke-dasharray:none;fill:none;fill-opacity:1;fill-rule: evenodd"/>
<path id="Shape2DView_nwe0013"  d="M -0.9 -4.4 L -0.9 -4.523160923713639 L -0.9 -4.644773027351946 L -0.9 -4.763306968150684 L -0.9 -4.877272113029314 L -0.9 -4.985235284166871 L -0.9 -5.085838782044608 L -0.9 -5.177817459305203 L -0.9 -5.260014630714833 L -0.9 -5.331396619151113 L -0.9 -5.3910657546926615 L -0.9 -5.438271663339204 L -0.9 -5.472420703400006 L -0.9 -5.493083430882567 L -0.9 -5.5 " stroke="#191919" stroke-width="0.35 px" style="stroke-width:0.35;stroke-miterlimit:4;stroke-dasharray:none;fill:none;fill-opacity:1;fill-rule: evenodd"/>
<path id="Shape2DView_nwe0014"  d="M -0.9 4.4 L 28.4 4.4 " stroke="#191919" stroke-width="0.35 px" style="stroke-width:0.35;stroke-miterlimit:4;stroke-dasharray:none;fill:none;fill-opacity:1;fill-rule: evenodd"/>
<path id="Shape2DView_nwe0015"  d="M 28.4 -4.4 L -0.8999999999999986 -4.4 " stroke="#191919" stroke-width="0.35 px" style="stroke-width:0.35;stroke-miterlimit:4;stroke-dasharray:none;fill:none;fill-opacity:1;fill-rule: evenodd"/>
<path id="Shape2DView_nwe0016"  d="M 28.4 4.4 L 28.4 -4.4 " stroke="#191919" stroke-width="0.35 px" style="stroke-width:0.35;stroke-miterlimit:4;stroke-dasharray:none;fill:none;fill-opacity:1;fill-rule: evenodd"/>
<path id="Shape2DView_nwe0017"  d="M -0.9 4.4 L -0.9 4.523160923713639 L -0.9 4.644773027351946 L -0.9 4.763306968150684 L -0.9 4.877272113029314 L -0.9 4.985235284166871 L -0.9 5.085838782044608 L -0.9 5.177817459305203 L -0.9 5.260014630714833 L -0.9000000000000001 5.331396619151112 L -0.9000000000000001 5.3910657546926615 L -0.9000000000000001 5.438271663339204 L -0.9000000000000001 5.472420703400006 L -0.9000000000000001 5.493083430882567 L -0.9000000000000001 5.5 " stroke="#191919" stroke-width="0.35 px" style="stroke-width:0.35;stroke-miterlimit:4;stroke-dasharray:none;fill:none;fill-opacity:1;fill-rule: evenodd"/>
<path id="Shape2DView_nwe0020"  d="M 28.4 -4.4 L 28.4 -4.523160923713639 L 28.4 -4.644773027351946 L 28.4 -4.763306968150684 L 28.4 -4.877272113029314 L 28.4 -4.985235284166871 L 28.4 -5.085838782044608 L 28.4 -5.177817459305203 L 28.4 -5.260014630714833 L 28.4 -5.331396619151112 L 28.4 -5.3910657546926615 L 28.4 -5.438271663339204 L 28.4 -5.472420703400006 L 28.4 -5.493083430882567 L 28.4 -5.5 " stroke="#191919" stroke-width="0.35 px" style="stroke-width:0.35;stroke-miterlimit:4;stroke-dasharray:none;fill:none;fill-opacity:1;fill-rule: evenodd"/>
<path id="Shape2DView_nwe0021"  d="M 28.4 4.4 L 28.4 4.523160923713639 L 28.4 4.644773027351946 L 28.4 4.763306968150684 L 28.4 4.877272113029314 L 28.4 4.985235284166871 L 28.4 5.085838782044608 L 28.4 5.177817459305203 L 28.4 5.260014630714833 L 28.4 5.331396619151113 L 28.4 5.3910657546926615 L 28.4 5.438271663339204 L 28.4 5.472420703400006 L 28.4 5.493083430882567 L 28.4 5.5 " stroke="#191919" stroke-width="0.35 px" style="stroke-width:0.35;stroke-miterlimit:4;stroke-dasharray:none;fill:none;fill-opacity:1;fill-rule: evenodd"/>
<path id="Shape2DView_nwe0022"  d="M 28.4 -4.4 L 28.523160923713636 -4.4 L 28.644773027351945 -4.4 L 28.763306968150683 -4.4 L 28.877272113029314 -4.4 L 28.98523528416687 -4.4 L 29.085838782044604 -4.4 L 29.1778174593052 -4.4 L 29.26001463071483 -4.4 L 29.33139661915111 -4.4 L 29.39106575469266 -4.4 L 29.438271663339204 -4.4 L 29.472420703400005 -4.4 L 29.493083430882564 -4.4 L 29.5 -4.4 " stroke="#191919" stroke-width="0.35 px" style="stroke-width:0.35;stroke-miterlimit:4;stroke-dasharray:none;fill:none;fill-opacity:1;fill-rule: evenodd"/>
<path id="Shape2DView_nwe0023"  d="M 28.4 4.4 L 28.523160923713636 4.4 L 28.644773027351945 4.4 L 28.763306968150683 4.3999999999999995 L 28.877272113029314 4.3999999999999995 L 28.98523528416687 4.3999999999999995 L 29.085838782044604 4.3999999999999995 L 29.1778174593052 4.399999999999999 L 29.26001463071483 4.399999999999999 L 29.33139661915111 4.399999999999999 L 29.391065754692658 4.399999999999999 L 29.438271663339204 4.399999999999999 L 29.472420703400005 4.399999999999999 L 29.493083430882564 4.399999999999999 L 29.5 4.399999999999999 " stroke="#191919" stroke-width="0.35 px" style="stroke-width:0.35;stroke-miterlimit:4;stroke-dasharray:none;fill:none;fill-opacity:1;fill-rule: evenodd"/>
<title>b'Shape2DView'</title>
</g>
<g id="Rectangle" transform="translate(2.315000,5.815000) scale(1,-1)">
<rect fill="#ff0000" id="origin" width="1" height="1" x="0" y="0" />
<title>b'Rectangle'</title>
</g>
</svg>