<?xml version="1.0"?>
<!DOCTYPE svg PUBLIC "-//W3C//DTD SVG 1.1//EN" "http://www.w3.org/Graphics/SVG/1.1/DTD/svg11.dtd">
<svg width="18.36mm" height="6.36mm" viewBox="0 0 18.36 6.36" xmlns="http://www.w3.org/2000/svg" version="1.1">
<g id="Shape2DView" transform="translate(1.680000,3.180000) scale(1,-1)">
<path id="Shape2DView_nwe0000"  d="M -1.5 -2.4 L -1.5 2.4 " stroke="#191919" stroke-width="0.35 px" style="stroke-width:0.35;stroke-miterlimit:4;stroke-dasharray:none;fill:none;fill-opacity:1;fill-rule: evenodd"/>
<path id="Shape2DView_nwe0001"  d="M -0.9 -3.0 A 0.6 0.6 0 0 0 -1.5 -2.4" stroke="#191919" stroke-width="0.35 px" style="stroke-width:0.35;stroke-miterlimit:4;stroke-dasharray:none;fill:none;fill-opacity:1;fill-rule: evenodd"/>
<path id="Shape2DView_nwe0002"  d="M 15.9 -3.0 L -0.9000000000000004 -3.0 " stroke="#191919" stroke-width="0.35 px" style="stroke-width:0.35;stroke-miterlimit:4;stroke-dasharray:none;fill:none;fill-opacity:1;fill-rule: evenodd"/>
<path id="Shape2DView_nwe0003"  d="M -1.5 2.4 A 0.6 0.6 0 0 0 -0.9 3" stroke="#191919" stroke-width="0.35 px" style="stroke-width:0.35;stroke-miterlimit:4;stroke-dasharray:none;fill:none;fill-opacity:1;fill-rule: evenodd"/>
<path id="Shape2DView_nwe0004"  d="M -0.9 3.0 L 15.9 3.0 " stroke="#191919" stroke-width="0.35 px" style="stroke-width:0.35;stroke-miterlimit:4;stroke-dasharray:none;fill:none;fill-opacity:1;fill-rule: evenodd"/>
<path id="Shape2DView_nwe0005"  d="M 16.5 2.4 L 16.5 -2.4 " stroke="#191919" stroke-width="0.35 px" style="stroke-width:0.35;stroke-miterlimit:4;stroke-dasharray:none;fill:none;fill-opacity:1;fill-rule: evenodd"/>
<path id="Shape2DView_nwe0006"  d="M 16.5 -2.4 A 0.6 0.6 0 0 0 15.9 -3" stroke="#191919" stroke-width="0.35 px" style="stroke-width:0.35;stroke-miterlimit:4;stroke-dasharray:none;fill:none;fill-opacity:1;fill-rule: evenodd"/>
<path id="Shape2DView_nwe0007"  d="M 15.9 3.0 A 0.6 0.6 0 0 0 16.5 2.4" stroke="#191919" stroke-width="0.35 px" style="stroke-width:0.35;stroke-miterlimit:4;stroke-dasharray:none;fill:none;fill-opacity:1;fill-rule: evenodd"/>
<path id="Shape2DView_nwe0009"  d="M -1.5 -2.4 L -1.4962273259359455 -2.4 L -1.484956747309094 -2.4 L -1.4663299981850204 -2.4 L -1.4405813207414515 -2.4 L -1.4080345195369706 -2.4 L -1.3690988894808178 -2.4 L -1.3242640687119285 -2.4 L -1.2740938811152402 -2.4 L -1.219219245909202 -2.4 L -1.160330243470535 -2.4 L -1.0981674371731003 -2.4 L -1.0335125603737887 -2.4 L -0.9671786856619847 -2.4 L -0.9 -2.4 " stroke="#191919" stroke-width="0.35 px" style="stroke-width:0.35;stroke-miterlimit:4;stroke-dasharray:none;fill:none;fill-opacity:1;fill-rule: evenodd"/>
<path id="Shape2DView_nwe0010"  d="M -0.9 -2.4 L -0.9 2.4 " stroke="#191919" stroke-width="0.35 px" style="stroke-width:0.35;stroke-miterlimit:4;stroke-dasharray:none;fill:none;fill-opacity:1;fill-rule: evenodd"/>
<path id="Shape2DView_nwe0011"  d="M -1.5 2.4 L -1.4962273259359455 2.4 L -1.484956747309094 2.4 L -1.4663299981850204 2.4 L -1.4405813207414515 2.4 L -1.4080345195369706 2.4 L -1.3690988894808178 2.4 L -1.3242640687119285 2.4 L -1.2740938811152402 2.4 L -1.219219245909202 2.4 L -1.160330243470535 2.4 L -1.0981674371731003 2.4 L -1.0335125603737887 2.4 L -0.9671786856619847 2.4 L -0.9 2.4 " stroke="#191919" stroke-width="0.35 px" style="stroke-width:0.35;stroke-miterlimit:4;stroke-dasharray:none;fill:none;fill-opacity:1;fill-rule: evenodd"/>
<path id="Shape2DView_nwe0013"  d="M -0.9 -3.0 L -0.9 -2.9962273259359455 L -0.9 -2.984956747309094 L -0.9 -2.9663299981850204 L -0.9 -2.9405813207414515 L -0.9 -2.9080345195369706 L -0.9 -2.8690988894808176 L -0.9 -2.8242640687119285 L -0.9 -2.77409388111524 L -0.9 -2.7192192459092017 L -0.9 -2.660330243470535 L -0.9 -2.5981674371731 L -0.9 -2.5335125603737887 L -0.9 -2.4671786856619846 L -0.9 -2.4 " stroke="#191919" stroke-width="0.35 px" style="stroke-width:0.35;stroke-miterlimit:4;stroke-dasharray:none;fill:none;fill-opacity:1;fill-rule: evenodd"/>
<path id="Shape2DView_nwe0014"  d="M 15.9 -2.4 L -0.9000000000000004 -2.4 " stroke="#191919" stroke-width="0.35 px" style="stroke-width:0.35;stroke-miterlimit:4;stroke-dasharray:none;fill:none;fill-opacity:1;fill-rule: evenodd"/>
<path id="Shape2DView_nwe0015"  d="M 15.9 2.4 L 15.9 -2.4 " stroke="#191919" stroke-width="0.35 px" style="stroke-width:0.35;stroke-miterlimit:4;stroke-dasharray:none;fill:none;fill-opacity:1;fill-rule: evenodd"/>
<path id="Shape2DView_nwe0016"  d="M -0.9 2.4 L 15.9 2.4 " stroke="#191919" stroke-width="0.35 px" style="stroke-width:0.35;stroke-miterlimit:4;stroke-dasharray:none;fill:none;fill-opacity:1;fill-rule: evenodd"/>
<path id="Shape2DView_nwe0017"  d="M -0.9 3.0 L -0.9 2.9962273259359455 L -0.9 2.984956747309094 L -0.9 2.9663299981850204 L -0.9 2.9405813207414515 L -0.9 2.9080345195369706 L -0.9 2.8690988894808176 L -0.9 2.8242640687119285 L -0.9 2.77409388111524 L -0.9 2.7192192459092017 L -0.9 2.660330243470535 L -0.9 2.5981674371731 L -0.9 2.5335125603737887 L -0.9 2.4671786856619846 L -0.9 2.4 " stroke="#191919" stroke-width="0.35 px" style="stroke-width:0.35;stroke-miterlimit:4;stroke-dasharray:none;fill:none;fill-opacity:1;fill-rule: evenodd"/>
<path id="Shape2DView_nwe0020"  d="M 15.9 -3.0 L 15.9 -2.9962273259359455 L 15.9 -2.984956747309094 L 15.9 -2.9663299981850204 L 15.9 -2.9405813207414515 L 15.9 -2.9080345195369706 L 15.9 -2.8690988894808176 L 15.9 -2.8242640687119285 L 15.9 -2.77409388111524 L 15.9 -2.7192192459092017 L 15.9 -2.660330243470535 L 15.9 -2.5981674371731 L 15.9 -2.5335125603737887 L 15.9 -2.4671786856619846 L 15.9 -2.4 " stroke="#191919" stroke-width="0.35 px" style="stroke-width:0.35;stroke-miterlimit:4;stroke-dasharray:none;fill:none;fill-opacity:1;fill-rule: evenodd"/>
<path id="Shape2DView_nwe0021"  d="M 15.9 3.0 L 15.9 2.9962273259359455 L 15.9 2.984956747309094 L 15.9 2.9663299981850204 L 15.9 2.9405813207414515 L 15.9 2.9080345195369706 L 15.9 2.8690988894808176 L 15.9 2.8242640687119285 L 15.9 2.77409388111524 L 15.9 2.7192192459092017 L 15.9 2.660330243470535 L 15.9 2.5981674371731 L 15.9 2.5335125603737887 L 15.9 2.4671786856619846 L 15.9 2.4 " stroke="#191919" stroke-width="0.35 px" style="stroke-width:0.35;stroke-miterlimit:4;stroke-dasharray:none;fill:none;fill-opacity:1;fill-rule: evenodd"/>
<path id="Shape2DView_nwe0022"  d="M 16.5 2.399999999999998 L 16.496227325935944 2.399999999999998 L 16.484956747309095 2.399999999999998 L 16.46632999818502 2.399999999999998 L 16.44058132074145 2.399999999999998 L 16.408034519536972 2.3999999999999986 L 16.369098889480817 2.3999999999999986 L 16.32426406871193 2.3999999999999986 L 16.274093881115242 2.3999999999999986 L 16.2192192459092 2.399999999999999 L 16.160330243470536 2.399999999999999 L 16.0981674371731 2.3999999999999995 L 16.03351256037379 2.3999999999999995 L 15.967178685661985 2.4 L 15.9 2.4 " stroke="#191919" stroke-width="0.35 px" style="stroke-width:0.35;stroke-miterlimit:4;stroke-dasharray:none;fill:none;fill-opacity:1;fill-rule: evenodd"/>
<path id="Shape2DView_nwe0023"  d="M 16.5 -2.4 L 16.496227325935944 -2.4 L 16.484956747309095 -2.4 L 16.46632999818502 -2.4 L 16.44058132074145 -2.4 L 16.408034519536972 -2.4 L 16.369098889480817 -2.4 L 16.32426406871193 -2.4 L 16.274093881115242 -2.4 L 16.2192192459092 -2.4 L 16.160330243470536 -2.4 L 16.0981674371731 -2.4 L 16.03351256037379 -2.4 L 15.967178685661985 -2.4 L 15.9 -2.4 " stroke="#191919" stroke-width="0.35 px" style="stroke-width:0.35;stroke-miterlimit:4;stroke-dasharray:none;fill:none;fill-opacity:1;fill-rule: evenodd"/>
<title>b'Shape2DView'</title>
</g>
<g id="Rectangle" transform="translate(1.680000,3.180000) scale(1,-1)">
<rect fill="#ff0000" id="origin" width="1" height="1" x="0" y="0" />
<title>b'Rectangle'</title>
</g>
</svg>