<?xml version="1.0"?>
<!DOCTYPE svg PUBLIC "-//W3C//DTD SVG 1.1//EN" "http://www.w3.org/Graphics/SVG/1.1/DTD/svg11.dtd">
<svg width="7.140000000000001mm" height="2.64mm" viewBox="0 0 7.140000000000001 2.64" xmlns="http://www.w3.org/2000/svg" version="1.1">
<g id="Shape2DView" transform="translate(1.070000,1.320000) scale(1,-1)">
<path id="Shape2DView_nwe0000"  d="M -1.0 1.0 L -1.0 -1.0 " stroke="#191919" stroke-width="0.35 px" style="stroke-width:0.35;stroke-miterlimit:4;stroke-dasharray:none;fill:none;fill-opacity:1;fill-rule: evenodd"/>
<path id="Shape2DView_nwe0001"  d="M -1.0 -1.0 A 0.25 0.25 0 0 1 -0.75 -1.25" stroke="#191919" stroke-width="0.35 px" style="stroke-width:0.35;stroke-miterlimit:4;stroke-dasharray:none;fill:none;fill-opacity:1;fill-rule: evenodd"/>
<path id="Shape2DView_nwe0002"  d="M -0.75 -1.25 L 5.75 -1.25 " stroke="#191919" stroke-width="0.35 px" style="stroke-width:0.35;stroke-miterlimit:4;stroke-dasharray:none;fill:none;fill-opacity:1;fill-rule: evenodd"/>
<path id="Shape2DView_nwe0003"  d="M -0.75 1.25 A 0.25 0.25 0 0 1 -1 1" stroke="#191919" stroke-width="0.35 px" style="stroke-width:0.35;stroke-miterlimit:4;stroke-dasharray:none;fill:none;fill-opacity:1;fill-rule: evenodd"/>
<path id="Shape2DView_nwe0004"  d="M 5.75 1.25 L -0.75 1.25 " stroke="#191919" stroke-width="0.35 px" style="stroke-width:0.35;stroke-miterlimit:4;stroke-dasharray:none;fill:none;fill-opacity:1;fill-rule: evenodd"/>
<path id="Shape2DView_nwe0005"  d="M 6.0 -1.0 L 6.0 1.0 " stroke="#191919" stroke-width="0.35 px" style="stroke-width:0.35;stroke-miterlimit:4;stroke-dasharray:none;fill:none;fill-opacity:1;fill-rule: evenodd"/>
<path id="Shape2DView_nwe0006"  d="M 5.75 -1.25 A 0.25 0.25 0 0 1 6 -1" stroke="#191919" stroke-width="0.35 px" style="stroke-width:0.35;stroke-miterlimit:4;stroke-dasharray:none;fill:none;fill-opacity:1;fill-rule: evenodd"/>
<path id="Shape2DView_nwe0007"  d="M 6.0 1.0 A 0.25 0.25 0 0 1 5.75 1.25" stroke="#191919" stroke-width="0.35 px" style="stroke-width:0.35;stroke-miterlimit:4;stroke-dasharray:none;fill:none;fill-opacity:1;fill-rule: evenodd"/>
<path id="Shape2DView_nwe0009"  d="M -0.75 1.0 L -0.777991119025827 1.0 L -0.8056302334890786 1.0 L -0.8325697654887917 1.0 L -0.8584709347793895 1.0 L -0.8830080191288341 1.0 L -0.9058724504646833 1.0 L -0.9267766952966369 1.0 L -0.9454578706170074 1.0 L -0.961681049807071 1.0 L -0.9752422169756048 1.0 L -0.9859708325770918 1.0 L -0.9937319780454559 1.0 L -0.9984280524733107 1.0 L -1.0 1.0 " stroke="#191919" stroke-width="0.35 px" style="stroke-width:0.35;stroke-miterlimit:4;stroke-dasharray:none;fill:none;fill-opacity:1;fill-rule: evenodd"/>
<path id="Shape2DView_nwe0010"  d="M -0.75 -1.0 L -0.777991119025827 -1.0 L -0.8056302334890786 -1.0 L -0.8325697654887918 -1.0 L -0.8584709347793895 -1.0 L -0.8830080191288341 -1.0 L -0.9058724504646833 -1.0 L -0.9267766952966369 -1.0 L -0.9454578706170075 -1.0 L -0.961681049807071 -1.0 L -0.9752422169756048 -1.0 L -0.985970832577092 -1.0 L -0.9937319780454559 -1.0 L -0.9984280524733107 -1.0 L -1.0 -1.0 " stroke="#191919" stroke-width="0.35 px" style="stroke-width:0.35;stroke-miterlimit:4;stroke-dasharray:none;fill:none;fill-opacity:1;fill-rule: evenodd"/>
<path id="Shape2DView_nwe0011"  d="M -0.75 1.0 L -0.75 -1.0 " stroke="#191919" stroke-width="0.35 px" style="stroke-width:0.35;stroke-miterlimit:4;stroke-dasharray:none;fill:none;fill-opacity:1;fill-rule: evenodd"/>
<path id="Shape2DView_nwe0013"  d="M -0.75 -1.0 L -0.75 -1.0279911190258268 L -0.75 -1.0556302334890786 L -0.75 -1.0825697654887918 L -0.75 -1.1084709347793895 L -0.75 -1.133008019128834 L -0.75 -1.1558724504646833 L -0.75 -1.1767766952966368 L -0.75 -1.1954578706170074 L -0.75 -1.211681049807071 L -0.75 -1.2252422169756048 L -0.75 -1.235970832577092 L -0.75 -1.2437319780454559 L -0.75 -1.2484280524733107 L -0.75 -1.25 " stroke="#191919" stroke-width="0.35 px" style="stroke-width:0.35;stroke-miterlimit:4;stroke-dasharray:none;fill:none;fill-opacity:1;fill-rule: evenodd"/>
<path id="Shape2DView_nwe0014"  d="M -0.75 1.0 L -0.75 1.027991119025827 L -0.75 1.0556302334890786 L -0.75 1.0825697654887918 L -0.75 1.1084709347793895 L -0.75 1.133008019128834 L -0.75 1.1558724504646833 L -0.75 1.176776695296637 L -0.75 1.1954578706170074 L -0.75 1.211681049807071 L -0.75 1.2252422169756048 L -0.75 1.235970832577092 L -0.75 1.2437319780454559 L -0.75 1.2484280524733107 L -0.75 1.25 " stroke="#191919" stroke-width="0.35 px" style="stroke-width:0.35;stroke-miterlimit:4;stroke-dasharray:none;fill:none;fill-opacity:1;fill-rule: evenodd"/>
<path id="Shape2DView_nwe0015"  d="M 5.75 1.0 L -0.75 1.0 " stroke="#191919" stroke-width="0.35 px" style="stroke-width:0.35;stroke-miterlimit:4;stroke-dasharray:none;fill:none;fill-opacity:1;fill-rule: evenodd"/>
<path id="Shape2DView_nwe0016"  d="M -0.75 -1.0 L 5.75 -1.0 " stroke="#191919" stroke-width="0.35 px" style="stroke-width:0.35;stroke-miterlimit:4;stroke-dasharray:none;fill:none;fill-opacity:1;fill-rule: evenodd"/>
<path id="Shape2DView_nwe0017"  d="M 5.75 -1.0 L 5.75 1.0 " stroke="#191919" stroke-width="0.35 px" style="stroke-width:0.35;stroke-miterlimit:4;stroke-dasharray:none;fill:none;fill-opacity:1;fill-rule: evenodd"/>
<path id="Shape2DView_nwe0020"  d="M 5.75 -1.0 L 5.75 -1.027991119025827 L 5.75 -1.0556302334890786 L 5.75 -1.0825697654887918 L 5.75 -1.1084709347793895 L 5.75 -1.133008019128834 L 5.75 -1.1558724504646833 L 5.75 -1.176776695296637 L 5.75 -1.1954578706170074 L 5.75 -1.211681049807071 L 5.75 -1.2252422169756048 L 5.75 -1.235970832577092 L 5.75 -1.2437319780454559 L 5.75 -1.2484280524733107 L 5.75 -1.25 " stroke="#191919" stroke-width="0.35 px" style="stroke-width:0.35;stroke-miterlimit:4;stroke-dasharray:none;fill:none;fill-opacity:1;fill-rule: evenodd"/>
<path id="Shape2DView_nwe0021"  d="M 5.75 1.0 L 5.75 1.0279911190258268 L 5.75 1.0556302334890786 L 5.75 1.0825697654887918 L 5.75 1.1084709347793895 L 5.75 1.133008019128834 L 5.75 1.1558724504646833 L 5.75 1.1767766952966368 L 5.75 1.1954578706170074 L 5.75 1.211681049807071 L 5.75 1.2252422169756048 L 5.75 1.235970832577092 L 5.75 1.2437319780454559 L 5.75 1.2484280524733107 L 5.75 1.25 " stroke="#191919" stroke-width="0.35 px" style="stroke-width:0.35;stroke-miterlimit:4;stroke-dasharray:none;fill:none;fill-opacity:1;fill-rule: evenodd"/>
<path id="Shape2DView_nwe0022"  d="M 5.75 -1.0 L 5.777991119025827 -1.0 L 5.805630233489079 -1.0 L 5.832569765488792 -1.0 L 5.8584709347793895 -1.0 L 5.883008019128834 -1.0 L 5.905872450464683 -1.0 L 5.9267766952966365 -1.0 L 5.945457870617007 -1.0 L 5.961681049807071 -1.0 L 5.975242216975605 -1.0 L 5.985970832577092 -1.0 L 5.993731978045456 -1.0 L 5.998428052473311 -1.0 L 6.0 -1.0 " stroke="#191919" stroke-width="0.35 px" style="stroke-width:0.35;stroke-miterlimit:4;stroke-dasharray:none;fill:none;fill-opacity:1;fill-rule: evenodd"/>
<path id="Shape2DView_nwe0023"  d="M 5.75 1.0 L 5.777991119025827 1.0 L 5.805630233489079 1.0 L 5.832569765488792 1.0 L 5.8584709347793895 1.0 L 5.883008019128834 1.0 L 5.905872450464683 1.0 L 5.9267766952966365 1.0 L 5.945457870617007 1.0 L 5.961681049807071 1.0 L 5.975242216975605 1.0 L 5.985970832577092 1.0 L 5.993731978045456 1.0 L 5.998428052473311 1.0 L 6.0 1.0 " stroke="#191919" stroke-width="0.35 px" style="stroke-width:0.35;stroke-miterlimit:4;stroke-dasharray:none;fill:none;fill-opacity:1;fill-rule: evenodd"/>
<title>b'Shape2DView'</title>
</g>
<g id="Rectangle" transform="translate(1.070000,1.320000) scale(1,-1)">
<rect fill="#ff0000" id="origin" width="1" height="1" x="0" y="0" />
<title>b'Rectangle'</title>
</g>
</svg>