<?xml version="1.0"?>
<!DOCTYPE svg PUBLIC "-//W3C//DTD SVG 1.1//EN" "http://www.w3.org/Graphics/SVG/1.1/DTD/svg11.dtd">
<svg width="46.81130674642201mm" height="23.917868759734983mm" viewBox="0 0 46.81130674642201 23.917868759734983" xmlns="http://www.w3.org/2000/svg" version="1.1">
<g id="Shape2DView" transform="translate(0.905653,11.958934) scale(1,-1)">
<path id="Shape2DView_nwe0000"  d="M 1.7 4.404686306522 L 2.564979142851 4.404686306522 " stroke="#191919" stroke-width="0.35 px" style="stroke-width:0.35;stroke-miterlimit:4;stroke-dasharray:none;fill:none;fill-opacity:1;fill-rule: evenodd"/>
<path id="Shape2DView_nwe0001"  d="M 1.7 -4.404686306522 L 2.564979142851 -4.404686306522 " stroke="#191919" stroke-width="0.35 px" style="stroke-width:0.35;stroke-miterlimit:4;stroke-dasharray:none;fill:none;fill-opacity:1;fill-rule: evenodd"/>
<path id="Shape2DView_nwe0002"  d="M 2.564979142851 -4.404686306522 L 2.769338405373 -4.373929999791 " stroke="#191919" stroke-width="0.35 px" style="stroke-width:0.35;stroke-miterlimit:4;stroke-dasharray:none;fill:none;fill-opacity:1;fill-rule: evenodd"/>
<path id="Shape2DView_nwe0003"  d="M 2.769338405373073 -4.3739299997908585 A 0.485412 0.185759 -180 0 0 3.43066 -4.37393" stroke="#191919" stroke-width="0.35 px" style="stroke-width:0.35;stroke-miterlimit:4;stroke-dasharray:none;fill:none;fill-opacity:1;fill-rule: evenodd"/>
<path id="Shape2DView_nwe0004"  d="M 3.430661594627 -4.373929999791 L 3.6350208571490006 -4.404686306522 " stroke="#191919" stroke-width="0.35 px" style="stroke-width:0.35;stroke-miterlimit:4;stroke-dasharray:none;fill:none;fill-opacity:1;fill-rule: evenodd"/>
<path id="Shape2DView_nwe0005"  d="M 3.635020857149 -4.404686306522 L 43.3 -4.404686306522 " stroke="#191919" stroke-width="0.35 px" style="stroke-width:0.35;stroke-miterlimit:4;stroke-dasharray:none;fill:none;fill-opacity:1;fill-rule: evenodd"/>
<path id="Shape2DView_nwe0006"  d="M 43.3 -4.404686306522675 A 0.21 0.0803635 5.26972e-15 0 1 43.51 -4.32432" stroke="#191919" stroke-width="0.35 px" style="stroke-width:0.35;stroke-miterlimit:4;stroke-dasharray:none;fill:none;fill-opacity:1;fill-rule: evenodd"/>
<path id="Shape2DView_nwe0007"  d="M 1.49 -4.324322785726 A 0.21 0.0803635 5.26972e-15 0 1 1.7 -4.40469" stroke="#191919" stroke-width="0.35 px" style="stroke-width:0.35;stroke-miterlimit:4;stroke-dasharray:none;fill:none;fill-opacity:1;fill-rule: evenodd"/>
<path id="Shape2DView_nwe0008"  d="M 2.564979142851 4.404686306522 L 2.769338405373 4.373929999791 " stroke="#191919" stroke-width="0.35 px" style="stroke-width:0.35;stroke-miterlimit:4;stroke-dasharray:none;fill:none;fill-opacity:1;fill-rule: evenodd"/>
<path id="Shape2DView_nwe0009"  d="M 1.4899999999999978 -4.324322785725794 L 1.4899999999999975 -3.732153400093636 L 1.4899999999999975 -3.12824127910101 L 1.4899999999999975 -2.5144865537065275 L 1.4899999999999975 -1.8928203233436571 L 1.4899999999999975 -1.2651985799674743 L 1.4899999999999975 -0.6335960537803222 L 1.4899999999999975 -1.3766765505351941e-14 L 1.4899999999999975 0.6335960537802947 L 1.4899999999999975 1.2651985799674468 L 1.4899999999999975 1.8928203233436292 L 1.4899999999999975 2.5144865537065 L 1.4899999999999975 3.1282412791009837 L 1.4899999999999975 3.7321534000936087 L 1.4899999999999978 4.324322785725769 " stroke="#191919" stroke-width="0.35 px" style="stroke-width:0.35;stroke-miterlimit:4;stroke-dasharray:none;fill:none;fill-opacity:1;fill-rule: evenodd"/>
<path id="Shape2DView_nwe0010"  d="M 1.49 4.324322785726 A 0.21 0.0803635 -5.26972e-15 0 0 1.7 4.40469" stroke="#191919" stroke-width="0.35 px" style="stroke-width:0.35;stroke-miterlimit:4;stroke-dasharray:none;fill:none;fill-opacity:1;fill-rule: evenodd"/>
<path id="Shape2DView_nwe0011"  d="M 2.769338405373073 4.3739299997908585 A 0.485412 0.185759 180 0 1 3.43066 4.37393" stroke="#191919" stroke-width="0.35 px" style="stroke-width:0.35;stroke-miterlimit:4;stroke-dasharray:none;fill:none;fill-opacity:1;fill-rule: evenodd"/>
<path id="Shape2DView_nwe0012"  d="M 3.430661594627 4.373929999791 L 3.6350208571490006 4.404686306522 " stroke="#191919" stroke-width="0.35 px" style="stroke-width:0.35;stroke-miterlimit:4;stroke-dasharray:none;fill:none;fill-opacity:1;fill-rule: evenodd"/>
<path id="Shape2DView_nwe0013"  d="M 3.635020857149 4.404686306522 L 43.3 4.404686306522 " stroke="#191919" stroke-width="0.35 px" style="stroke-width:0.35;stroke-miterlimit:4;stroke-dasharray:none;fill:none;fill-opacity:1;fill-rule: evenodd"/>
<path id="Shape2DView_nwe0014"  d="M 43.3 4.404686306522675 A 0.21 0.0803635 -5.26972e-15 0 0 43.51 4.32432" stroke="#191919" stroke-width="0.35 px" style="stroke-width:0.35;stroke-miterlimit:4;stroke-dasharray:none;fill:none;fill-opacity:1;fill-rule: evenodd"/>
<path id="Shape2DView_nwe0015"  d="M 1.4999999999999976 4.348826481336408 L 1.4999999999999976 5.208374148510354 L 1.4999999999999978 6.031208801331741 L 1.4999999999999978 6.8115304070921905 L 1.499999999999998 7.543838600899505 L 1.499999999999998 8.222971456889079 L 1.4999999999999982 8.844141873831562 L 1.4999999999999984 9.402971318660333 L 1.4999999999999987 9.895520690065917 L 1.499999999999999 10.318318084604714 L 1.4999999999999991 10.668383269603089 L 1.4999999999999993 10.943248690351117 L 1.4999999999999996 11.140976863509628 L 1.4999999999999998 11.26017403412705 L 1.5 11.3 " stroke="#191919" stroke-width="0.35 px" style="stroke-width:0.35;stroke-miterlimit:4;stroke-dasharray:none;fill:none;fill-opacity:1;fill-rule: evenodd"/>
<path id="Shape2DView_nwe0016"  d="M 1.5 11.3 L 1.5 11.282560768369343 L 1.5000000000000002 11.230296901229522 L 1.5000000000000004 11.143369715692916 L 1.5000000000000004 11.022047520312377 L 1.5000000000000007 10.866704786922798 L 1.5000000000000009 10.677820994800237 L 1.5000000000000009 10.455979150706135 L 1.500000000000001 10.201863989384652 L 1.500000000000001 9.916259860067496 L 1.5000000000000013 9.600048305509686 L 1.5000000000000016 9.254205341028785 L 1.5000000000000016 8.879798441946102 L 1.5000000000000018 8.477983248728405 L 1.5000000000000018 8.05 " stroke="#191919" stroke-width="0.35 px" style="stroke-width:0.35;stroke-miterlimit:4;stroke-dasharray:none;fill:none;fill-opacity:1;fill-rule: evenodd"/>
<path id="Shape2DView_nwe0017"  d="M 1.500000000000002 -8.049999999999999 L 1.5000000000000018 -8.47798324872842 L 1.5000000000000018 -8.879798441946118 L 1.5000000000000016 -9.2542053410288 L 1.5000000000000016 -9.600048305509706 L 1.5000000000000013 -9.916259860067518 L 1.5000000000000013 -10.201863989384671 L 1.500000000000001 -10.455979150706154 L 1.5000000000000009 -10.677820994800257 L 1.5000000000000009 -10.866704786922817 L 1.5000000000000007 -11.022047520312391 L 1.5000000000000004 -11.143369715692927 L 1.5000000000000004 -11.23029690122953 L 1.5000000000000002 -11.282560768369349 L 1.5 -11.3 " stroke="#191919" stroke-width="0.35 px" style="stroke-width:0.35;stroke-miterlimit:4;stroke-dasharray:none;fill:none;fill-opacity:1;fill-rule: evenodd"/>
<path id="Shape2DView_nwe0018"  d="M 1.5 -11.3 L 1.4999999999999998 -11.260174034127044 L 1.4999999999999996 -11.14097686350961 L 1.4999999999999993 -10.943248690351094 L 1.4999999999999991 -10.668383269603058 L 1.499999999999999 -10.31831808460468 L 1.499999999999999 -9.89552069006588 L 1.4999999999999987 -9.40297131866029 L 1.4999999999999984 -8.844141873831514 L 1.4999999999999982 -8.222971456889029 L 1.499999999999998 -7.543838600899452 L 1.499999999999998 -6.811530407092135 L 1.4999999999999978 -6.031208801331685 L 1.4999999999999976 -5.208374148510298 L 1.4999999999999976 -4.348826481336407 " stroke="#191919" stroke-width="0.35 px" style="stroke-width:0.35;stroke-miterlimit:4;stroke-dasharray:none;fill:none;fill-opacity:1;fill-rule: evenodd"/>
<path id="Shape2DView_nwe0019"  d="M 43.5 4.348826481336406 L 43.5 5.208374148510401 L 43.5 6.031208801331829 L 43.5 6.811530407092317 L 43.5 7.543838600899662 L 43.5 8.22297145688926 L 43.5 8.84414187383176 L 43.5 9.402971318660537 L 43.5 9.89552069006612 L 43.5 10.31831808460491 L 43.5 10.668383269603261 L 43.5 10.943248690351261 L 43.5 11.140976863509731 L 43.5 11.26017403412711 L 43.5 11.3 " stroke="#191919" stroke-width="0.35 px" style="stroke-width:0.35;stroke-miterlimit:4;stroke-dasharray:none;fill:none;fill-opacity:1;fill-rule: evenodd"/>
<path id="Shape2DView_nwe0020"  d="M 43.5 11.3 L 43.5 11.282560768369306 L 43.5 11.230296901229451 L 43.5 11.14336971569282 L 43.5 11.02204752031226 L 43.5 10.866704786922668 L 43.5 10.677820994800102 L 43.5 10.455979150706 L 43.5 10.20186398938452 L 43.5 9.916259860067377 L 43.5 9.600048305509585 L 43.5 9.254205341028705 L 43.5 8.87979844194605 L 43.5 8.477983248728387 L 43.5 8.05 " stroke="#191919" stroke-width="0.35 px" style="stroke-width:0.35;stroke-miterlimit:4;stroke-dasharray:none;fill:none;fill-opacity:1;fill-rule: evenodd"/>
<path id="Shape2DView_nwe0021"  d="M 43.5 -8.049999999999999 L 43.5 -8.477983248728378 L 43.5 -8.879798441946043 L 43.5 -9.254205341028698 L 43.5 -9.60004830550958 L 43.5 -9.916259860067372 L 43.5 -10.201863989384517 L 43.5 -10.455979150705996 L 43.5 -10.677820994800099 L 43.5 -10.866704786922664 L 43.5 -11.022047520312256 L 43.5 -11.143369715692817 L 43.5 -11.230296901229451 L 43.5 -11.282560768369304 L 43.5 -11.300000000000002 " stroke="#191919" stroke-width="0.35 px" style="stroke-width:0.35;stroke-miterlimit:4;stroke-dasharray:none;fill:none;fill-opacity:1;fill-rule: evenodd"/>
<path id="Shape2DView_nwe0022"  d="M 43.5 -11.300000000000002 L 43.5 -11.260174034127107 L 43.5 -11.140976863509733 L 43.5 -10.943248690351263 L 43.5 -10.668383269603261 L 43.5 -10.318318084604906 L 43.5 -9.895520690066114 L 43.5 -9.402971318660528 L 43.5 -8.844141873831745 L 43.5 -8.222971456889242 L 43.5 -7.5438386008996385 L 43.5 -6.811530407092288 L 43.5 -6.031208801331795 L 43.5 -5.20837414851036 L 43.5 -4.348826481336407 " stroke="#191919" stroke-width="0.35 px" style="stroke-width:0.35;stroke-miterlimit:4;stroke-dasharray:none;fill:none;fill-opacity:1;fill-rule: evenodd"/>
<path id="Shape2DView_nwe0023"  d="M 43.5 4.348826481336406 L 43.5 4.821240823267442 L 43.5 5.2690630489942 L 43.5 5.690008913315574 L 43.5 6.081931261590137 L 43.5 6.442830981911822 L 43.5 6.770867202151319 L 43.5 7.064366679850293 L 43.5 7.3218323370725775 L 43.5 7.541950896677883 L 43.5 7.723599581067048 L 43.5 7.865851839229947 L 43.5 7.967982072883628 L 43.5 8.02946933759365 L 43.5 8.05 " stroke="#191919" stroke-width="0.35 px" style="stroke-width:0.35;stroke-miterlimit:4;stroke-dasharray:none;fill:none;fill-opacity:1;fill-rule: evenodd"/>
<path id="Shape2DView_nwe0024"  d="M 43.5 -8.05 L 43.5 -8.02946933759365 L 43.5 -7.967982072883627 L 43.5 -7.865851839229945 L 43.5 -7.723599581067046 L 43.5 -7.541950896677879 L 43.5 -7.321832337072574 L 43.5 -7.06436667985029 L 43.5 -6.770867202151314 L 43.5 -6.4428309819118175 L 43.5 -6.081931261590133 L 43.5 -5.690008913315569 L 43.5 -5.269063048994196 L 43.5 -4.821240823267437 L 43.5 -4.348826481336406 " stroke="#191919" stroke-width="0.35 px" style="stroke-width:0.35;stroke-miterlimit:4;stroke-dasharray:none;fill:none;fill-opacity:1;fill-rule: evenodd"/>
<path id="Shape2DView_nwe0025"  d="M 43.51 -4.324322785725794 L 43.51 -3.732153400093636 L 43.51 -3.12824127910101 L 43.51 -2.5144865537065275 L 43.51 -1.8928203233436571 L 43.51 -1.2651985799674743 L 43.51 -0.6335960537803222 L 43.51 -1.3766765505351941e-14 L 43.51 0.6335960537802947 L 43.51 1.2651985799674468 L 43.51 1.8928203233436292 L 43.51 2.5144865537065 L 43.51 3.1282412791009837 L 43.51 3.7321534000936087 L 43.51 4.324322785725769 " stroke="#191919" stroke-width="0.35 px" style="stroke-width:0.35;stroke-miterlimit:4;stroke-dasharray:none;fill:none;fill-opacity:1;fill-rule: evenodd"/>
<path id="Shape2DView_nwe0026"  d="M 9.84 1.15 L 16.76 1.15 " stroke="#191919" stroke-width="0.35 px" style="stroke-width:0.35;stroke-miterlimit:4;stroke-dasharray:none;fill:none;fill-opacity:1;fill-rule: evenodd"/>
<path id="Shape2DView_nwe0027"  d="M 28.24 1.15 L 35.16 1.15 " stroke="#191919" stroke-width="0.35 px" style="stroke-width:0.35;stroke-miterlimit:4;stroke-dasharray:none;fill:none;fill-opacity:1;fill-rule: evenodd"/>
<path id="Shape2DView_nwe0028"  d="M 0.933333333333 2.875 L 0.9333333333329998 2.8029177475227427 L 0.9333333333329997 2.590285495219455 L 0.9333333333329995 2.247765512095586 L 0.9333333333329995 1.7925331803438591 L 0.9333333333329994 1.2474157499629799 L 0.9333333333329993 0.6397476851244042 L 0.9333333333329993 3.5208595475486404e-16 L 0.9333333333329993 -0.6397476851244036 L 0.9333333333329994 -1.2474157499629792 L 0.9333333333329995 -1.7925331803438584 L 0.9333333333329995 -2.2477655120955853 L 0.9333333333329997 -2.5902854952194545 L 0.9333333333329998 -2.8029177475227427 L 0.933333333333 -2.875 " stroke="#191919" stroke-width="0.35 px" style="stroke-width:0.35;stroke-miterlimit:4;stroke-dasharray:none;fill:none;fill-opacity:1;fill-rule: evenodd"/>
<path id="Shape2DView_nwe0029"  d="M 9.84 -1.15 Q 8.920595819443609 -1.1722328006822118 8.7 -0.010000000000000009 " stroke="#191919" stroke-width="0.35 px" style="stroke-width:0.35;stroke-miterlimit:4;stroke-dasharray:none;fill:none;fill-opacity:1;fill-rule: evenodd"/>
<path id="Shape2DView_nwe0030"  d="M 8.699999999999998 0.00999999999999801 L 8.699999999999998 0.008571428857515606 L 8.699999999999998 0.007142857582993933 L 8.699999999999998 0.005714286198439389 L 8.699999999999998 0.004285714725857481 L 8.699999999999998 0.002857143187254607 L 8.699999999999998 0.0014285716046389396 L 8.699999999999998 1.509903313490213e-14 L 8.699999999999998 -0.0014285716046069652 L 8.699999999999998 -0.0028571431872217445 L 8.699999999999998 -0.004285714725824619 L 8.699999999999998 -0.0057142861984074145 L 8.699999999999998 -0.007142857582962847 L 8.699999999999998 -0.00857142885748452 L 8.699999999999998 -0.009999999999995346 " stroke="#191919" stroke-width="0.35 px" style="stroke-width:0.35;stroke-miterlimit:4;stroke-dasharray:none;fill:none;fill-opacity:1;fill-rule: evenodd"/>
<path id="Shape2DView_nwe0031"  d="M 9.84 1.15 Q 8.920595837265868 1.1722328211652264 8.7 0.009999999999998899 " stroke="#191919" stroke-width="0.35 px" style="stroke-width:0.35;stroke-miterlimit:4;stroke-dasharray:none;fill:none;fill-opacity:1;fill-rule: evenodd"/>
<path id="Shape2DView_nwe0033"  d="M 16.76 1.15 Q 17.67940416273383 1.1722328211659274 17.899999999999995 0.00999999999999912 " stroke="#191919" stroke-width="0.35 px" style="stroke-width:0.35;stroke-miterlimit:4;stroke-dasharray:none;fill:none;fill-opacity:1;fill-rule: evenodd"/>
<path id="Shape2DView_nwe0034"  d="M 17.899999999999995 0.00999999999999801 L 17.899999999999995 0.008571428857515606 L 17.899999999999995 0.007142857582993933 L 17.899999999999995 0.005714286198439389 L 17.899999999999995 0.004285714725857481 L 17.899999999999995 0.002857143187254607 L 17.899999999999995 0.0014285716046389396 L 17.899999999999995 1.509903313490213e-14 L 17.899999999999995 -0.0014285716046069652 L 17.899999999999995 -0.0028571431872217445 L 17.899999999999995 -0.004285714725824619 L 17.899999999999995 -0.0057142861984074145 L 17.899999999999995 -0.007142857582962847 L 17.899999999999995 -0.00857142885748452 L 17.899999999999995 -0.009999999999995346 " stroke="#191919" stroke-width="0.35 px" style="stroke-width:0.35;stroke-miterlimit:4;stroke-dasharray:none;fill:none;fill-opacity:1;fill-rule: evenodd"/>
<path id="Shape2DView_nwe0035"  d="M 16.76 -1.15 Q 17.679404180558638 -1.1722328006797058 17.9 -0.010000000000000009 " stroke="#191919" stroke-width="0.35 px" style="stroke-width:0.35;stroke-miterlimit:4;stroke-dasharray:none;fill:none;fill-opacity:1;fill-rule: evenodd"/>
<path id="Shape2DView_nwe0036"  d="M 9.84 -1.15 L 16.76 -1.15 " stroke="#191919" stroke-width="0.35 px" style="stroke-width:0.35;stroke-miterlimit:4;stroke-dasharray:none;fill:none;fill-opacity:1;fill-rule: evenodd"/>
<path id="Shape2DView_nwe0037"  d="M 28.24 -1.15 Q 27.320595837265238 -1.1722328211644957 27.100000000000005 -0.010000000000000009 " stroke="#191919" stroke-width="0.35 px" style="stroke-width:0.35;stroke-miterlimit:4;stroke-dasharray:none;fill:none;fill-opacity:1;fill-rule: evenodd"/>
<path id="Shape2DView_nwe0038"  d="M 27.099999999999998 0.00999999999999801 L 27.099999999999998 0.008571428857515606 L 27.099999999999998 0.007142857582993933 L 27.099999999999998 0.005714286198439389 L 27.099999999999998 0.004285714725857481 L 27.099999999999998 0.002857143187254607 L 27.099999999999998 0.0014285716046389396 L 27.099999999999998 1.509903313490213e-14 L 27.099999999999998 -0.0014285716046069652 L 27.099999999999998 -0.0028571431872217445 L 27.099999999999998 -0.004285714725824619 L 27.099999999999998 -0.0057142861984074145 L 27.099999999999998 -0.007142857582962847 L 27.099999999999998 -0.00857142885748452 L 27.099999999999998 -0.009999999999995346 " stroke="#191919" stroke-width="0.35 px" style="stroke-width:0.35;stroke-miterlimit:4;stroke-dasharray:none;fill:none;fill-opacity:1;fill-rule: evenodd"/>
<path id="Shape2DView_nwe0039"  d="M 28.24 1.15 Q 27.320595819443607 1.172232800682211 27.1 0.00999999999999912 " stroke="#191919" stroke-width="0.35 px" style="stroke-width:0.35;stroke-miterlimit:4;stroke-dasharray:none;fill:none;fill-opacity:1;fill-rule: evenodd"/>
<path id="Shape2DView_nwe0041"  d="M 35.16 1.15 Q 36.079404180556345 1.172232800682106 36.3 0.00999999999999901 " stroke="#191919" stroke-width="0.35 px" style="stroke-width:0.35;stroke-miterlimit:4;stroke-dasharray:none;fill:none;fill-opacity:1;fill-rule: evenodd"/>
<path id="Shape2DView_nwe0042"  d="M 36.3 0.00999999999999801 L 36.3 0.008571428857515606 L 36.3 0.007142857582993933 L 36.3 0.005714286198439389 L 36.3 0.004285714725857481 L 36.3 0.002857143187254607 L 36.3 0.0014285716046389396 L 36.3 1.509903313490213e-14 L 36.3 -0.0014285716046069652 L 36.3 -0.0028571431872217445 L 36.3 -0.004285714725824619 L 36.3 -0.0057142861984074145 L 36.3 -0.007142857582962847 L 36.3 -0.00857142885748452 L 36.3 -0.009999999999995346 " stroke="#191919" stroke-width="0.35 px" style="stroke-width:0.35;stroke-miterlimit:4;stroke-dasharray:none;fill:none;fill-opacity:1;fill-rule: evenodd"/>
<path id="Shape2DView_nwe0043"  d="M 35.16 -1.15 Q 36.07940416273613 -1.1722328211635769 36.3 -0.010000000000000009 " stroke="#191919" stroke-width="0.35 px" style="stroke-width:0.35;stroke-miterlimit:4;stroke-dasharray:none;fill:none;fill-opacity:1;fill-rule: evenodd"/>
<path id="Shape2DView_nwe0044"  d="M 28.24 -1.15 L 35.16 -1.15 " stroke="#191919" stroke-width="0.35 px" style="stroke-width:0.35;stroke-miterlimit:4;stroke-dasharray:none;fill:none;fill-opacity:1;fill-rule: evenodd"/>
<path id="Shape2DView_nwe0045"  d="M 44.166666666667 2.875 L 44.166666666667 2.8029177475227427 L 44.166666666667 2.590285495219455 L 44.166666666667 2.247765512095586 L 44.166666666667 1.7925331803438591 L 44.166666666667 1.2474157499629799 L 44.166666666667 0.6397476851244042 L 44.166666666667 3.5208595475486404e-16 L 44.166666666667 -0.6397476851244036 L 44.166666666667 -1.2474157499629792 L 44.166666666667 -1.7925331803438584 L 44.166666666667 -2.2477655120955853 L 44.166666666667 -2.5902854952194545 L 44.166666666667 -2.8029177475227427 L 44.166666666667 -2.875 " stroke="#191919" stroke-width="0.35 px" style="stroke-width:0.35;stroke-miterlimit:4;stroke-dasharray:none;fill:none;fill-opacity:1;fill-rule: evenodd"/>
<path id="Shape2DView_nwe0046"  d="M 0.9 0.45 L 0.933333333333 0.45 " stroke="#191919" stroke-width="0.35 px" style="stroke-width:0.35;stroke-miterlimit:4;stroke-dasharray:none;fill:none;fill-opacity:1;fill-rule: evenodd"/>
<path id="Shape2DView_nwe0047"  d="M 0.0 -0.4500000000000001 L 0.00565901109608169 -0.4500000000000001 L 0.02256487903635873 -0.4500000000000001 L 0.05050500272246916 -0.4500000000000001 L 0.08912801888782274 -0.4500000000000001 L 0.13794822069454427 -0.4500000000000001 L 0.19635166577877317 -0.45000000000000007 L 0.2636038969321072 -0.45000000000000007 L 0.33885917832713974 -0.45000000000000007 L 0.4211711311361971 -0.45000000000000007 L 0.5095046347941976 -0.45000000000000007 L 0.6027488442403496 -0.45000000000000007 L 0.699731159439317 -0.45 L 0.7992319715070229 -0.45 L 0.9 -0.45 " stroke="#191919" stroke-width="0.35 px" style="stroke-width:0.35;stroke-miterlimit:4;stroke-dasharray:none;fill:none;fill-opacity:1;fill-rule: evenodd"/>
<circle cx="1.054711873394e-15" cy="0.0" r="0.45" stroke="#191919" stroke-width="0.35 px" style="stroke-width:0.35;stroke-miterlimit:4;stroke-dasharray:none;fill:none"/>
<path id="Shape2DView_nwe0049"  d="M 45.0 -0.45 A 0.45 0.45 0 0 1 45 0.45" stroke="#191919" stroke-width="0.35 px" style="stroke-width:0.35;stroke-miterlimit:4;stroke-dasharray:none;fill:none;fill-opacity:1;fill-rule: evenodd"/>
<path id="Shape2DView_nwe0050"  d="M 45.0 0.45 L 44.994862098010664 0.45 L 44.979507054346776 0.45 L 44.954110186140305 0.45 L 44.918961463657205 0.45 L 44.87446219954452 0.45 L 44.82112046681916 0.45 L 44.75954529791375 0.45 L 44.69043973101233 0.45 L 44.61459278306968 0.45 L 44.53287044116296 0.45 L 44.446205775032304 0.45 L 44.35558828370107 0.45 L 44.26205259781144 0.45 L 44.16666666666698 0.45 " stroke="#191919" stroke-width="0.35 px" style="stroke-width:0.35;stroke-miterlimit:4;stroke-dasharray:none;fill:none;fill-opacity:1;fill-rule: evenodd"/>
<path id="Shape2DView_nwe0051"  d="M 2.564979142851 -4.404686308513158 L 2.564979142851 4.4046863085133845 " stroke="#191919" stroke-width="0.35 px" style="stroke-width:0.35;stroke-miterlimit:4;stroke-dasharray:none;fill:none;fill-opacity:1;fill-rule: evenodd"/>
<path id="Shape2DView_nwe0052"  d="M 1.6999999999999975 -4.404686306522469 L 1.6999999999999975 -3.8015120031042566 L 1.6999999999999975 -3.186376736500298 L 1.6999999999999975 -2.561215949837458 L 1.6999999999999975 -1.9279966302377907 L 1.6999999999999975 -1.2887111199493422 L 1.6999999999999975 -0.6453708477003395 L 1.6999999999999973 -2.5579538487363607e-13 L 1.6999999999999975 0.6453708476998306 L 1.6999999999999975 1.2887111199488337 L 1.6999999999999975 1.9279966302372862 L 1.6999999999999975 2.561215949836959 L 1.6999999999999975 3.186376736499808 L 1.6999999999999975 3.801512003103774 L 1.6999999999999975 4.404686306521997 " stroke="#191919" stroke-width="0.35 px" style="stroke-width:0.35;stroke-miterlimit:4;stroke-dasharray:none;fill:none;fill-opacity:1;fill-rule: evenodd"/>
<path id="Shape2DView_nwe0053"  d="M 2.769338405373 -4.373929997813643 L 2.7693384053729995 4.373929997813721 " stroke="#191919" stroke-width="0.35 px" style="stroke-width:0.35;stroke-miterlimit:4;stroke-dasharray:none;fill:none;fill-opacity:1;fill-rule: evenodd"/>
<path id="Shape2DView_nwe0054"  d="M 1.6999999999999975 4.404686306522675 L 1.6999999999999975 5.281708601797432 L 1.6999999999999975 6.121375023862333 L 1.6999999999999977 6.917746874700118 L 1.699999999999998 7.665191665256459 L 1.699999999999998 8.358422952273598 L 1.6999999999999982 8.992537727650314 L 1.6999999999999984 9.563051095884909 L 1.6999999999999986 10.065927994338551 L 1.6999999999999988 10.497611731971455 L 1.699999999999999 10.855049144706319 L 1.6999999999999993 11.135712189503048 L 1.6999999999999995 11.337615824416586 L 1.6999999999999997 11.459332048177826 L 1.7 11.5 " stroke="#191919" stroke-width="0.35 px" style="stroke-width:0.35;stroke-miterlimit:4;stroke-dasharray:none;fill:none;fill-opacity:1;fill-rule: evenodd"/>
<path id="Shape2DView_nwe0055"  d="M 1.7 -11.5 L 1.6999999999999997 -11.45933204817782 L 1.6999999999999995 -11.337615824416579 L 1.6999999999999993 -11.135712189503035 L 1.699999999999999 -10.855049144706307 L 1.6999999999999988 -10.497611731971439 L 1.6999999999999986 -10.065927994338534 L 1.6999999999999986 -9.563051095884887 L 1.6999999999999984 -8.99253772765029 L 1.6999999999999982 -8.358422952273576 L 1.699999999999998 -7.665191665256436 L 1.6999999999999977 -6.917746874700098 L 1.6999999999999977 -6.1213750238623135 L 1.6999999999999975 -5.281708601797414 L 1.6999999999999975 -4.404686306522676 " stroke="#191919" stroke-width="0.35 px" style="stroke-width:0.35;stroke-miterlimit:4;stroke-dasharray:none;fill:none;fill-opacity:1;fill-rule: evenodd"/>
<path id="Shape2DView_nwe0056"  d="M 2.564979142851008 4.404686306521998 C 2.5649791401846738 8.603291540056365 2.5649791264657047 11.562534760274911 2.564979141133611 11.499976592194432 " stroke="#191919" stroke-width="0.35 px" style="stroke-width:0.35;stroke-miterlimit:4;stroke-dasharray:none;fill:none;fill-opacity:1;fill-rule: evenodd"/>
<path id="Shape2DView_nwe0057"  d="M 2.5649791411335157 -11.499976592190945 C 2.5649791264655435 -11.562534760271136 2.5649791401846826 -8.603291540054988 2.564979142851012 -4.40468630652146 " stroke="#191919" stroke-width="0.35 px" style="stroke-width:0.35;stroke-miterlimit:4;stroke-dasharray:none;fill:none;fill-opacity:1;fill-rule: evenodd"/>
<path id="Shape2DView_nwe0058"  d="M 2.7693384053729955 4.373929999790994 C 2.7693384058294175 8.543206504762136 2.769338408177869 11.48173597567817 2.769338405666823 11.419607057719132 " stroke="#191919" stroke-width="0.35 px" style="stroke-width:0.35;stroke-miterlimit:4;stroke-dasharray:none;fill:none;fill-opacity:1;fill-rule: evenodd"/>
<path id="Shape2DView_nwe0059"  d="M 2.769338405666665 -11.4196070577148 C 2.769338408177711 -11.481735975674605 2.769338405829431 -8.543206504761487 2.7693384053729995 -4.3739299997915495 " stroke="#191919" stroke-width="0.35 px" style="stroke-width:0.35;stroke-miterlimit:4;stroke-dasharray:none;fill:none;fill-opacity:1;fill-rule: evenodd"/>
<path id="Shape2DView_nwe0060"  d="M 3.430661594627001 4.373929999791 C 3.430661594170445 8.543206504761987 3.430661591822002 11.481735975677848 3.430661594333106 11.419607057718892 " stroke="#191919" stroke-width="0.35 px" style="stroke-width:0.35;stroke-miterlimit:4;stroke-dasharray:none;fill:none;fill-opacity:1;fill-rule: evenodd"/>
<path id="Shape2DView_nwe0061"  d="M 3.430661594333371 -11.41960705771628 C 3.430661591822288 -11.481735975675054 3.4306615941705694 -8.543206504761006 3.430661594627001 -4.373929999790916 " stroke="#191919" stroke-width="0.35 px" style="stroke-width:0.35;stroke-miterlimit:4;stroke-dasharray:none;fill:none;fill-opacity:1;fill-rule: evenodd"/>
<path id="Shape2DView_nwe0062"  d="M 3.63502085714899 4.404686306521998 C 3.6350208598151883 8.603291540056308 3.6350208735341685 11.562534760274849 3.6350208588663167 11.499976592194479 " stroke="#191919" stroke-width="0.35 px" style="stroke-width:0.35;stroke-miterlimit:4;stroke-dasharray:none;fill:none;fill-opacity:1;fill-rule: evenodd"/>
<path id="Shape2DView_nwe0063"  d="M 3.6350208588665227 -11.499976592190901 C 3.6350208735344633 -11.562534760271271 3.6350208598153078 -8.603291540054745 3.6350208571489917 -4.404686306520767 " stroke="#191919" stroke-width="0.35 px" style="stroke-width:0.35;stroke-miterlimit:4;stroke-dasharray:none;fill:none;fill-opacity:1;fill-rule: evenodd"/>
<path id="Shape2DView_nwe0064"  d="M 43.3 4.404686306522675 L 43.3 5.281708601797431 L 43.3 6.121375023862329 L 43.3 6.917746874700114 L 43.3 7.665191665256453 L 43.3 8.358422952273592 L 43.3 8.992537727650305 L 43.3 9.5630510958849 L 43.3 10.065927994338544 L 43.3 10.497611731971448 L 43.3 10.855049144706314 L 43.3 11.135712189503042 L 43.3 11.337615824416583 L 43.3 11.459332048177824 L 43.3 11.5 " stroke="#191919" stroke-width="0.35 px" style="stroke-width:0.35;stroke-miterlimit:4;stroke-dasharray:none;fill:none;fill-opacity:1;fill-rule: evenodd"/>
<path id="Shape2DView_nwe0065"  d="M 43.3 -11.5 L 43.3 -11.459332048177824 L 43.3 -11.337615824416583 L 43.3 -11.135712189503042 L 43.3 -10.855049144706316 L 43.3 -10.497611731971453 L 43.3 -10.065927994338548 L 43.3 -9.563051095884903 L 43.3 -8.992537727650312 L 43.3 -8.358422952273598 L 43.3 -7.665191665256461 L 43.3 -6.917746874700122 L 43.3 -6.121375023862338 L 43.3 -5.28170860179744 L 43.3 -4.404686306522676 " stroke="#191919" stroke-width="0.35 px" style="stroke-width:0.35;stroke-miterlimit:4;stroke-dasharray:none;fill:none;fill-opacity:1;fill-rule: evenodd"/>
<path id="Shape2DView_nwe0066"  d="M 43.3 -4.404686306522469 L 43.3 -3.8015120031042566 L 43.3 -3.186376736500298 L 43.3 -2.561215949837458 L 43.3 -1.9279966302377907 L 43.3 -1.2887111199493422 L 43.3 -0.6453708477003395 L 43.3 -2.5579538487363607e-13 L 43.3 0.6453708476998306 L 43.3 1.2887111199488337 L 43.3 1.9279966302372862 L 43.3 2.561215949836959 L 43.3 3.186376736499808 L 43.3 3.801512003103774 L 43.3 4.404686306521997 " stroke="#191919" stroke-width="0.35 px" style="stroke-width:0.35;stroke-miterlimit:4;stroke-dasharray:none;fill:none;fill-opacity:1;fill-rule: evenodd"/>
<path id="Shape2DView_nwe0067"  d="M 3.635020857149 -4.404686308513158 L 3.6350208571489997 4.4046863085133845 " stroke="#191919" stroke-width="0.35 px" style="stroke-width:0.35;stroke-miterlimit:4;stroke-dasharray:none;fill:none;fill-opacity:1;fill-rule: evenodd"/>
<path id="Shape2DView_nwe0068"  d="M 3.430661594627 -4.373929997813643 L 3.430661594627 4.373929997813721 " stroke="#191919" stroke-width="0.35 px" style="stroke-width:0.35;stroke-miterlimit:4;stroke-dasharray:none;fill:none;fill-opacity:1;fill-rule: evenodd"/>
<path id="Shape2DView_nwe0069"  d="M 0.9 0.45 L 0.8999999999999999 0.43871756048182065 L 0.8999999999999999 0.40543599055608864 L 0.8999999999999999 0.3518241671106135 L 0.8999999999999999 0.2805704108364302 L 0.8999999999999999 0.19524768260290123 L 0.8999999999999999 0.10013442028034157 L 0.9 8.266365894244634e-17 L 0.9 -0.1001344202803414 L 0.9 -0.1952476826029011 L 0.9 -0.28057041083643003 L 0.9 -0.3518241671106134 L 0.9 -0.4054359905560886 L 0.9 -0.4387175604818206 L 0.9 -0.45 " stroke="#191919" stroke-width="0.35 px" style="stroke-width:0.35;stroke-miterlimit:4;stroke-dasharray:none;fill:none;fill-opacity:1;fill-rule: evenodd"/>
<path id="Shape2DView_nwe0070"  d="M 1.6999999999999997 11.50000000000061 Q 1.519455656295286 11.483885221205647 1.5000000000000024 11.300000000000608 " stroke="#191919" stroke-width="0.35 px" style="stroke-width:0.35;stroke-miterlimit:4;stroke-dasharray:none;fill:none;fill-opacity:1;fill-rule: evenodd"/>
<path id="Shape2DView_nwe0071"  d="M 1.7000000000000002 -11.50000000000061 Q 1.5194556562952863 -11.483885221205647 1.5000000000000027 -11.30000000000061 " stroke="#191919" stroke-width="0.35 px" style="stroke-width:0.35;stroke-miterlimit:4;stroke-dasharray:none;fill:none;fill-opacity:1;fill-rule: evenodd"/>
<path id="Shape2DView_nwe0072"  d="M 1.7000000000000002 -11.5 L 2.5649791411216953 -11.5 " stroke="#191919" stroke-width="0.35 px" style="stroke-width:0.35;stroke-miterlimit:4;stroke-dasharray:none;fill:none;fill-opacity:1;fill-rule: evenodd"/>
<path id="Shape2DView_nwe0073"  d="M 1.7 11.5 L 2.564979141121791 11.5 " stroke="#191919" stroke-width="0.35 px" style="stroke-width:0.35;stroke-miterlimit:4;stroke-dasharray:none;fill:none;fill-opacity:1;fill-rule: evenodd"/>
<path id="Shape2DView_nwe0074"  d="M 2.7693384056668218 11.419607057732481 L 2.5649791411336333 11.499976592207776 " stroke="#191919" stroke-width="0.35 px" style="stroke-width:0.35;stroke-miterlimit:4;stroke-dasharray:none;fill:none;fill-opacity:1;fill-rule: evenodd"/>
<path id="Shape2DView_nwe0075"  d="M 2.769338405666663 -11.41960705772831 L 2.5649791411335374 -11.499976592204451 " stroke="#191919" stroke-width="0.35 px" style="stroke-width:0.35;stroke-miterlimit:4;stroke-dasharray:none;fill:none;fill-opacity:1;fill-rule: evenodd"/>
<path id="Shape2DView_nwe0076"  d="M 2.769349667847167 11.419619418302343 Q 3.0945625321159107 11.16134787553243 3.4306503321526796 11.419619418302194 " stroke="#191919" stroke-width="0.35 px" style="stroke-width:0.35;stroke-miterlimit:4;stroke-dasharray:none;fill:none;fill-opacity:1;fill-rule: evenodd"/>
<path id="Shape2DView_nwe0077"  d="M 2.769349667849238 -11.419619418300416 Q 3.0945625321200225 -11.161347875533867 3.4306503321515223 -11.419619418301115 " stroke="#191919" stroke-width="0.35 px" style="stroke-width:0.35;stroke-miterlimit:4;stroke-dasharray:none;fill:none;fill-opacity:1;fill-rule: evenodd"/>
<path id="Shape2DView_nwe0078"  d="M 3.635020858866294 11.499976592207828 L 3.4306615943331127 11.419607057732247 " stroke="#191919" stroke-width="0.35 px" style="stroke-width:0.35;stroke-miterlimit:4;stroke-dasharray:none;fill:none;fill-opacity:1;fill-rule: evenodd"/>
<path id="Shape2DView_nwe0079"  d="M 3.635020858866498 -11.499976592204384 L 3.430661594333375 -11.419607057729781 " stroke="#191919" stroke-width="0.35 px" style="stroke-width:0.35;stroke-miterlimit:4;stroke-dasharray:none;fill:none;fill-opacity:1;fill-rule: evenodd"/>
<path id="Shape2DView_nwe0080"  d="M 3.6350208588783417 -11.5 L 43.300000000000004 -11.5 " stroke="#191919" stroke-width="0.35 px" style="stroke-width:0.35;stroke-miterlimit:4;stroke-dasharray:none;fill:none;fill-opacity:1;fill-rule: evenodd"/>
<path id="Shape2DView_nwe0081"  d="M 3.635020858878138 11.5 L 43.300000000000004 11.5 " stroke="#191919" stroke-width="0.35 px" style="stroke-width:0.35;stroke-miterlimit:4;stroke-dasharray:none;fill:none;fill-opacity:1;fill-rule: evenodd"/>
<path id="Shape2DView_nwe0082"  d="M 43.3 11.499999999999998 Q 43.48054434370471 11.483885221205043 43.5 11.299999999999999 " stroke="#191919" stroke-width="0.35 px" style="stroke-width:0.35;stroke-miterlimit:4;stroke-dasharray:none;fill:none;fill-opacity:1;fill-rule: evenodd"/>
<path id="Shape2DView_nwe0083"  d="M 43.3 -11.5 Q 43.48054434370471 -11.48388522120504 43.5 -11.3 " stroke="#191919" stroke-width="0.35 px" style="stroke-width:0.35;stroke-miterlimit:4;stroke-dasharray:none;fill:none;fill-opacity:1;fill-rule: evenodd"/>
<path id="Shape2DView_nwe0084"  d="M 0.9333333333330001 -2.875 L 1.4899999999999975 -2.875 " stroke="#191919" stroke-width="0.35 px" style="stroke-width:0.35;stroke-miterlimit:4;stroke-dasharray:none;fill:none;fill-opacity:1;fill-rule: evenodd"/>
<path id="Shape2DView_nwe0085"  d="M 0.9333333333330001 2.875 L 1.4899999999999975 2.875 " stroke="#191919" stroke-width="0.35 px" style="stroke-width:0.35;stroke-miterlimit:4;stroke-dasharray:none;fill:none;fill-opacity:1;fill-rule: evenodd"/>
<path id="Shape2DView_nwe0086"  d="M 44.166666666667 2.875 L 43.51 2.875 " stroke="#191919" stroke-width="0.35 px" style="stroke-width:0.35;stroke-miterlimit:4;stroke-dasharray:none;fill:none;fill-opacity:1;fill-rule: evenodd"/>
<path id="Shape2DView_nwe0087"  d="M 44.166666666667 -2.875 L 43.51 -2.875 " stroke="#191919" stroke-width="0.35 px" style="stroke-width:0.35;stroke-miterlimit:4;stroke-dasharray:none;fill:none;fill-opacity:1;fill-rule: evenodd"/>
<path id="Shape2DView_nwe0088"  d="M 0.933333333333 -0.45 L 0.9 -0.45 " stroke="#191919" stroke-width="0.35 px" style="stroke-width:0.35;stroke-miterlimit:4;stroke-dasharray:none;fill:none;fill-opacity:1;fill-rule: evenodd"/>
<path id="Shape2DView_nwe0089"  d="M 44.16666666665738 -0.4499999999999994 Q 44.93335535942833 -0.4499999999999998 45.0 -0.45000000000000007 " stroke="#191919" stroke-width="0.35 px" style="stroke-width:0.35;stroke-miterlimit:4;stroke-dasharray:none;fill:none;fill-opacity:1;fill-rule: evenodd"/>
<title>b'Shape2DView'</title>
</g>
<g id="Rectangle" transform="translate(0.905653,11.958934) scale(1,-1)">
<rect fill="#ff0000" id="origin" width="1" height="1" x="0" y="0" />
<title>b'Rectangle'</title>
</g>
</svg>