<?xml version="1.0"?>
<!DOCTYPE svg PUBLIC "-//W3C//DTD SVG 1.1//EN" "http://www.w3.org/Graphics/SVG/1.1/DTD/svg11.dtd">
<svg width="102.91130674642201mm" height="28.01786875973377mm" viewBox="0 0 102.91130674642201 28.01786875973377" xmlns="http://www.w3.org/2000/svg" version="1.1">
<g id="Shape2DView" transform="translate(1.455653,14.008934) scale(1,-1)">
<path id="Shape2DView_nwe0000"  d="M 3.7 4.97871145507 L 4.564979142851 4.97871145507 " stroke="#191919" stroke-width="0.35 px" style="stroke-width:0.35;stroke-miterlimit:4;stroke-dasharray:none;fill:none;fill-opacity:1;fill-rule: evenodd"/>
<path id="Shape2DView_nwe0001"  d="M 3.7 -4.97871145507 L 4.564979142851 -4.97871145507 " stroke="#191919" stroke-width="0.35 px" style="stroke-width:0.35;stroke-miterlimit:4;stroke-dasharray:none;fill:none;fill-opacity:1;fill-rule: evenodd"/>
<path id="Shape2DView_nwe0002"  d="M 4.564979142851 -4.97871145507 L 4.769338405373 -4.947955148338 " stroke="#191919" stroke-width="0.35 px" style="stroke-width:0.35;stroke-miterlimit:4;stroke-dasharray:none;fill:none;fill-opacity:1;fill-rule: evenodd"/>
<path id="Shape2DView_nwe0003"  d="M 4.769338405372611 -4.947955148338022 A 0.485412 0.185759 -180 0 0 5.43066 -4.94796" stroke="#191919" stroke-width="0.35 px" style="stroke-width:0.35;stroke-miterlimit:4;stroke-dasharray:none;fill:none;fill-opacity:1;fill-rule: evenodd"/>
<path id="Shape2DView_nwe0004"  d="M 5.430661594627 -4.947955148338 L 5.635020857149 -4.97871145507 " stroke="#191919" stroke-width="0.35 px" style="stroke-width:0.35;stroke-miterlimit:4;stroke-dasharray:none;fill:none;fill-opacity:1;fill-rule: evenodd"/>
<path id="Shape2DView_nwe0005"  d="M 5.635020857149 -4.97871145507 L 96.3 -4.97871145507 " stroke="#191919" stroke-width="0.35 px" style="stroke-width:0.35;stroke-miterlimit:4;stroke-dasharray:none;fill:none;fill-opacity:1;fill-rule: evenodd"/>
<path id="Shape2DView_nwe0006"  d="M 96.3 -4.978711455069674 A 0.21 0.0803635 5.26972e-15 0 1 96.51 -4.89835" stroke="#191919" stroke-width="0.35 px" style="stroke-width:0.35;stroke-miterlimit:4;stroke-dasharray:none;fill:none;fill-opacity:1;fill-rule: evenodd"/>
<path id="Shape2DView_nwe0007"  d="M 3.49 -4.898347934273 A 0.21 0.0803635 5.26972e-15 0 1 3.7 -4.97871" stroke="#191919" stroke-width="0.35 px" style="stroke-width:0.35;stroke-miterlimit:4;stroke-dasharray:none;fill:none;fill-opacity:1;fill-rule: evenodd"/>
<path id="Shape2DView_nwe0008"  d="M 4.564979142851 4.97871145507 L 4.769338405373 4.947955148338 " stroke="#191919" stroke-width="0.35 px" style="stroke-width:0.35;stroke-miterlimit:4;stroke-dasharray:none;fill:none;fill-opacity:1;fill-rule: evenodd"/>
<path id="Shape2DView_nwe0009"  d="M 3.4899999999999975 -4.898347934273467 L 3.4899999999999975 -4.227571993026437 L 3.4899999999999975 -3.5434945462383496 L 3.4899999999999975 -2.848267954641078 L 3.4899999999999975 -2.144079658300856 L 3.4899999999999975 -1.4331452941225455 L 3.4899999999999975 -0.7177017246362327 L 3.4899999999999975 -1.5010215292932116e-13 L 3.4899999999999975 0.7177017246359316 L 3.4899999999999975 1.4331452941222445 L 3.4899999999999975 2.1440796583005577 L 3.4899999999999975 2.848267954640784 L 3.4899999999999975 3.543494546238058 L 3.4899999999999975 4.227571993026149 L 3.4899999999999975 4.898347934273186 " stroke="#191919" stroke-width="0.35 px" style="stroke-width:0.35;stroke-miterlimit:4;stroke-dasharray:none;fill:none;fill-opacity:1;fill-rule: evenodd"/>
<path id="Shape2DView_nwe0010"  d="M 3.49 4.898347934273 A 0.21 0.0803635 -5.26972e-15 0 0 3.7 4.97871" stroke="#191919" stroke-width="0.35 px" style="stroke-width:0.35;stroke-miterlimit:4;stroke-dasharray:none;fill:none;fill-opacity:1;fill-rule: evenodd"/>
<path id="Shape2DView_nwe0011"  d="M 4.769338405372611 4.947955148338022 A 0.485412 0.185759 180 0 1 5.43066 4.94796" stroke="#191919" stroke-width="0.35 px" style="stroke-width:0.35;stroke-miterlimit:4;stroke-dasharray:none;fill:none;fill-opacity:1;fill-rule: evenodd"/>
<path id="Shape2DView_nwe0012"  d="M 5.430661594627 4.947955148338 L 5.635020857149 4.97871145507 " stroke="#191919" stroke-width="0.35 px" style="stroke-width:0.35;stroke-miterlimit:4;stroke-dasharray:none;fill:none;fill-opacity:1;fill-rule: evenodd"/>
<path id="Shape2DView_nwe0013"  d="M 5.635020857149 4.97871145507 L 96.3 4.97871145507 " stroke="#191919" stroke-width="0.35 px" style="stroke-width:0.35;stroke-miterlimit:4;stroke-dasharray:none;fill:none;fill-opacity:1;fill-rule: evenodd"/>
<path id="Shape2DView_nwe0014"  d="M 96.3 4.978711455069674 A 0.21 0.0803635 -5.26972e-15 0 0 96.51 4.89835" stroke="#191919" stroke-width="0.35 px" style="stroke-width:0.35;stroke-miterlimit:4;stroke-dasharray:none;fill:none;fill-opacity:1;fill-rule: evenodd"/>
<path id="Shape2DView_nwe0015"  d="M 3.4999999999999973 4.922851629883406 L 3.4999999999999973 5.896847142057697 L 3.4999999999999973 6.829257244902337 L 3.4999999999999973 7.7135064490319305 L 3.499999999999998 8.543358902606112 L 3.499999999999998 9.31296236744849 L 3.4999999999999982 10.01688948986717 L 3.4999999999999982 10.650176075129131 L 3.4999999999999982 11.208356095671398 L 3.4999999999999987 11.687493186166076 L 3.499999999999999 12.084208403331571 L 3.499999999999999 12.395704054723819 L 3.4999999999999996 12.619783428463492 L 3.4999999999999996 12.754866284762308 L 3.5 12.8 " stroke="#191919" stroke-width="0.35 px" style="stroke-width:0.35;stroke-miterlimit:4;stroke-dasharray:none;fill:none;fill-opacity:1;fill-rule: evenodd"/>
<path id="Shape2DView_nwe0016"  d="M 3.5 -12.8 L 3.5 -12.75486628476226 L 3.4999999999999996 -12.619783428463407 L 3.4999999999999996 -12.395704054723701 L 3.499999999999999 -12.08420840333143 L 3.4999999999999987 -11.687493186165922 L 3.4999999999999987 -11.20835609567124 L 3.4999999999999982 -10.650176075128975 L 3.4999999999999982 -10.016889489867022 L 3.499999999999998 -9.31296236744836 L 3.499999999999998 -8.543358902606006 L 3.499999999999998 -7.713506449031852 L 3.4999999999999973 -6.829257244902294 L 3.4999999999999973 -5.896847142057696 L 3.4999999999999973 -4.9228516298834055 " stroke="#191919" stroke-width="0.35 px" style="stroke-width:0.35;stroke-miterlimit:4;stroke-dasharray:none;fill:none;fill-opacity:1;fill-rule: evenodd"/>
<path id="Shape2DView_nwe0017"  d="M 96.5 4.922851629883406 L 96.5 5.896847142057734 L 96.5 6.829257244902406 L 96.5 7.713506449032027 L 96.5 8.543358902606231 L 96.5 9.312962367448629 L 96.5 10.01688948986732 L 96.5 10.650176075129291 L 96.5 11.208356095671556 L 96.5 11.687493186166224 L 96.5 12.084208403331704 L 96.5 12.395704054723929 L 96.5 12.619783428463574 L 96.5 12.75486628476235 L 96.5 12.8 " stroke="#191919" stroke-width="0.35 px" style="stroke-width:0.35;stroke-miterlimit:4;stroke-dasharray:none;fill:none;fill-opacity:1;fill-rule: evenodd"/>
<path id="Shape2DView_nwe0018"  d="M 96.5 -12.8 L 96.5 -12.754866284762352 L 96.5 -12.619783428463577 L 96.5 -12.395704054723932 L 96.5 -12.084208403331708 L 96.5 -11.687493186166227 L 96.5 -11.208356095671556 L 96.5 -10.65017607512929 L 96.5 -10.01688948986732 L 96.5 -9.312962367448625 L 96.5 -8.543358902606226 L 96.5 -7.713506449032015 L 96.5 -6.829257244902391 L 96.5 -5.896847142057713 L 96.5 -4.922851629883405 " stroke="#191919" stroke-width="0.35 px" style="stroke-width:0.35;stroke-miterlimit:4;stroke-dasharray:none;fill:none;fill-opacity:1;fill-rule: evenodd"/>
<path id="Shape2DView_nwe0019"  d="M 96.51 -4.898347934273467 L 96.51 -4.227571993026437 L 96.51 -3.5434945462383496 L 96.51 -2.848267954641078 L 96.51 -2.144079658300856 L 96.51 -1.4331452941225455 L 96.51 -0.7177017246362327 L 96.51 -1.5010215292932116e-13 L 96.51 0.7177017246359316 L 96.51 1.4331452941222445 L 96.51 2.1440796583005577 L 96.51 2.848267954640784 L 96.51 3.543494546238058 L 96.51 4.227571993026149 L 96.51 4.898347934273186 " stroke="#191919" stroke-width="0.35 px" style="stroke-width:0.35;stroke-miterlimit:4;stroke-dasharray:none;fill:none;fill-opacity:1;fill-rule: evenodd"/>
<path id="Shape2DView_nwe0020"  d="M 2.833333333333 3.25 L 2.833333333333 3.1685157145909266 L 2.8333333333329995 2.9281488206828623 L 2.8333333333329995 2.5409523180210973 L 2.8333333333329995 2.0263418560408843 L 2.8333333333329995 1.4101221521320642 L 2.833333333332999 0.7231930353580222 L 2.833333333332999 3.9801020972288977e-16 L 2.833333333332999 -0.7231930353580214 L 2.8333333333329995 -1.4101221521320635 L 2.8333333333329995 -2.0263418560408835 L 2.8333333333329995 -2.5409523180210964 L 2.8333333333329995 -2.928148820682862 L 2.833333333333 -3.1685157145909266 L 2.833333333333 -3.25 " stroke="#191919" stroke-width="0.35 px" style="stroke-width:0.35;stroke-miterlimit:4;stroke-dasharray:none;fill:none;fill-opacity:1;fill-rule: evenodd"/>
<path id="Shape2DView_nwe0021"  d="M 35.69 -1.3 Q 34.65586728391739 -1.3315625821917292 34.400000000000006 -0.00999999999999901 " stroke="#191919" stroke-width="0.35 px" style="stroke-width:0.35;stroke-miterlimit:4;stroke-dasharray:none;fill:none;fill-opacity:1;fill-rule: evenodd"/>
<path id="Shape2DView_nwe0022"  d="M 34.4 0.009999999999999787 L 34.4 0.008571428795354663 L 34.4 0.00714285748736021 L 34.4 0.0057142860932417605 L 34.4 0.0042857146302255344 L 34.4 0.002857143115535088 L 34.4 0.001428571566394865 L 34.4 2.930988785010413e-14 L 34.4 -0.001428571566334469 L 34.4 -0.00285714311547558 L 34.4 -0.0042857146301660265 L 34.4 -0.0057142860931822526 L 34.4 -0.007142857487300702 L 34.4 -0.008571428795295155 L 34.4 -0.009999999999998899 " stroke="#191919" stroke-width="0.35 px" style="stroke-width:0.35;stroke-miterlimit:4;stroke-dasharray:none;fill:none;fill-opacity:1;fill-rule: evenodd"/>
<path id="Shape2DView_nwe0023"  d="M 35.69 1.3 Q 34.65586728391726 1.331562582191605 34.4 0.010000000000000009 " stroke="#191919" stroke-width="0.35 px" style="stroke-width:0.35;stroke-miterlimit:4;stroke-dasharray:none;fill:none;fill-opacity:1;fill-rule: evenodd"/>
<path id="Shape2DView_nwe0024"  d="M 35.69 1.3 L 43.51 1.3 " stroke="#191919" stroke-width="0.35 px" style="stroke-width:0.35;stroke-miterlimit:4;stroke-dasharray:none;fill:none;fill-opacity:1;fill-rule: evenodd"/>
<path id="Shape2DView_nwe0025"  d="M 43.51 1.3 Q 44.544132695286805 1.3315626061057366 44.800000000000004 0.010000000000000009 " stroke="#191919" stroke-width="0.35 px" style="stroke-width:0.35;stroke-miterlimit:4;stroke-dasharray:none;fill:none;fill-opacity:1;fill-rule: evenodd"/>
<path id="Shape2DView_nwe0026"  d="M 44.8 0.009999999999999787 L 44.8 0.008571428795354663 L 44.8 0.00714285748736021 L 44.8 0.0057142860932417605 L 44.8 0.0042857146302255344 L 44.8 0.002857143115535088 L 44.8 0.001428571566394865 L 44.8 2.930988785010413e-14 L 44.8 -0.001428571566334469 L 44.8 -0.00285714311547558 L 44.8 -0.0042857146301660265 L 44.8 -0.0057142860931822526 L 44.8 -0.007142857487300702 L 44.8 -0.008571428795295155 L 44.8 -0.009999999999998899 " stroke="#191919" stroke-width="0.35 px" style="stroke-width:0.35;stroke-miterlimit:4;stroke-dasharray:none;fill:none;fill-opacity:1;fill-rule: evenodd"/>
<path id="Shape2DView_nwe0027"  d="M 43.51 -1.3 Q 44.544132695286805 -1.3315626061058703 44.800000000000004 -0.009999999999998899 " stroke="#191919" stroke-width="0.35 px" style="stroke-width:0.35;stroke-miterlimit:4;stroke-dasharray:none;fill:none;fill-opacity:1;fill-rule: evenodd"/>
<path id="Shape2DView_nwe0028"  d="M 35.69 -1.3 L 43.51 -1.3 " stroke="#191919" stroke-width="0.35 px" style="stroke-width:0.35;stroke-miterlimit:4;stroke-dasharray:none;fill:none;fill-opacity:1;fill-rule: evenodd"/>
<path id="Shape2DView_nwe0029"  d="M 56.49 -1.3 Q 55.4558673113359 -1.3315626119638244 55.2 -0.00999999999999912 " stroke="#191919" stroke-width="0.35 px" style="stroke-width:0.35;stroke-miterlimit:4;stroke-dasharray:none;fill:none;fill-opacity:1;fill-rule: evenodd"/>
<path id="Shape2DView_nwe0030"  d="M 55.2 0.009999999999999787 L 55.2 0.008571428795354663 L 55.2 0.00714285748736021 L 55.2 0.0057142860932417605 L 55.2 0.0042857146302255344 L 55.2 0.002857143115535088 L 55.2 0.001428571566394865 L 55.2 2.930988785010413e-14 L 55.2 -0.001428571566334469 L 55.2 -0.00285714311547558 L 55.2 -0.0042857146301660265 L 55.2 -0.0057142860931822526 L 55.2 -0.007142857487300702 L 55.2 -0.008571428795295155 L 55.2 -0.009999999999998899 " stroke="#191919" stroke-width="0.35 px" style="stroke-width:0.35;stroke-miterlimit:4;stroke-dasharray:none;fill:none;fill-opacity:1;fill-rule: evenodd"/>
<path id="Shape2DView_nwe0031"  d="M 56.49 1.3 Q 55.4558673047133 1.3315626061057366 55.2 0.010000000000000009 " stroke="#191919" stroke-width="0.35 px" style="stroke-width:0.35;stroke-miterlimit:4;stroke-dasharray:none;fill:none;fill-opacity:1;fill-rule: evenodd"/>
<path id="Shape2DView_nwe0032"  d="M 56.49 1.3 L 64.31 1.3 " stroke="#191919" stroke-width="0.35 px" style="stroke-width:0.35;stroke-miterlimit:4;stroke-dasharray:none;fill:none;fill-opacity:1;fill-rule: evenodd"/>
<path id="Shape2DView_nwe0033"  d="M 64.31 1.3 Q 65.3441326952868 1.3315626061057366 65.6 0.010000000000000009 " stroke="#191919" stroke-width="0.35 px" style="stroke-width:0.35;stroke-miterlimit:4;stroke-dasharray:none;fill:none;fill-opacity:1;fill-rule: evenodd"/>
<path id="Shape2DView_nwe0034"  d="M 65.6 0.009999999999999787 L 65.6 0.008571428795354663 L 65.6 0.00714285748736021 L 65.6 0.0057142860932417605 L 65.6 0.0042857146302255344 L 65.6 0.002857143115535088 L 65.6 0.001428571566394865 L 65.6 2.930988785010413e-14 L 65.6 -0.001428571566334469 L 65.6 -0.00285714311547558 L 65.6 -0.0042857146301660265 L 65.6 -0.0057142860931822526 L 65.6 -0.007142857487300702 L 65.6 -0.008571428795295155 L 65.6 -0.009999999999998899 " stroke="#191919" stroke-width="0.35 px" style="stroke-width:0.35;stroke-miterlimit:4;stroke-dasharray:none;fill:none;fill-opacity:1;fill-rule: evenodd"/>
<path id="Shape2DView_nwe0035"  d="M 64.31 -1.3 Q 65.3441326952868 -1.3315626061058703 65.6 -0.009999999999998899 " stroke="#191919" stroke-width="0.35 px" style="stroke-width:0.35;stroke-miterlimit:4;stroke-dasharray:none;fill:none;fill-opacity:1;fill-rule: evenodd"/>
<path id="Shape2DView_nwe0036"  d="M 56.49 -1.3 L 64.31 -1.3 " stroke="#191919" stroke-width="0.35 px" style="stroke-width:0.35;stroke-miterlimit:4;stroke-dasharray:none;fill:none;fill-opacity:1;fill-rule: evenodd"/>
<path id="Shape2DView_nwe0037"  d="M 77.29 -1.3 Q 76.25586730471329 -1.3315626061058703 76.0 -0.009999999999998899 " stroke="#191919" stroke-width="0.35 px" style="stroke-width:0.35;stroke-miterlimit:4;stroke-dasharray:none;fill:none;fill-opacity:1;fill-rule: evenodd"/>
<path id="Shape2DView_nwe0038"  d="M 76.0 0.009999999999999787 L 76.0 0.008571428795354663 L 76.0 0.00714285748736021 L 76.0 0.0057142860932417605 L 76.0 0.0042857146302255344 L 76.0 0.002857143115535088 L 76.0 0.001428571566394865 L 76.0 2.930988785010413e-14 L 76.0 -0.001428571566334469 L 76.0 -0.00285714311547558 L 76.0 -0.0042857146301660265 L 76.0 -0.0057142860931822526 L 76.0 -0.007142857487300702 L 76.0 -0.008571428795295155 L 76.0 -0.009999999999998899 " stroke="#191919" stroke-width="0.35 px" style="stroke-width:0.35;stroke-miterlimit:4;stroke-dasharray:none;fill:none;fill-opacity:1;fill-rule: evenodd"/>
<path id="Shape2DView_nwe0039"  d="M 77.29 1.3 Q 76.25586730471318 1.3315626061056123 76.00000000000001 0.010000000000000009 " stroke="#191919" stroke-width="0.35 px" style="stroke-width:0.35;stroke-miterlimit:4;stroke-dasharray:none;fill:none;fill-opacity:1;fill-rule: evenodd"/>
<path id="Shape2DView_nwe0040"  d="M 77.29 1.3 L 85.11 1.3 " stroke="#191919" stroke-width="0.35 px" style="stroke-width:0.35;stroke-miterlimit:4;stroke-dasharray:none;fill:none;fill-opacity:1;fill-rule: evenodd"/>
<path id="Shape2DView_nwe0041"  d="M 85.11 1.3 Q 86.14413269528694 1.3315626061056123 86.39999999999999 0.010000000000000009 " stroke="#191919" stroke-width="0.35 px" style="stroke-width:0.35;stroke-miterlimit:4;stroke-dasharray:none;fill:none;fill-opacity:1;fill-rule: evenodd"/>
<path id="Shape2DView_nwe0042"  d="M 86.4 0.009999999999999787 L 86.4 0.008571428795354663 L 86.4 0.00714285748736021 L 86.4 0.0057142860932417605 L 86.4 0.0042857146302255344 L 86.4 0.002857143115535088 L 86.4 0.001428571566394865 L 86.4 2.930988785010413e-14 L 86.4 -0.001428571566334469 L 86.4 -0.00285714311547558 L 86.4 -0.0042857146301660265 L 86.4 -0.0057142860931822526 L 86.4 -0.007142857487300702 L 86.4 -0.008571428795295155 L 86.4 -0.009999999999998899 " stroke="#191919" stroke-width="0.35 px" style="stroke-width:0.35;stroke-miterlimit:4;stroke-dasharray:none;fill:none;fill-opacity:1;fill-rule: evenodd"/>
<path id="Shape2DView_nwe0043"  d="M 85.11 -1.3 Q 86.14413269528681 -1.3315626061058383 86.4 -0.00999999999999901 " stroke="#191919" stroke-width="0.35 px" style="stroke-width:0.35;stroke-miterlimit:4;stroke-dasharray:none;fill:none;fill-opacity:1;fill-rule: evenodd"/>
<path id="Shape2DView_nwe0044"  d="M 77.29 -1.3 L 85.11 -1.3 " stroke="#191919" stroke-width="0.35 px" style="stroke-width:0.35;stroke-miterlimit:4;stroke-dasharray:none;fill:none;fill-opacity:1;fill-rule: evenodd"/>
<path id="Shape2DView_nwe0045"  d="M 14.89 -1.3 Q 13.85586728391841 -1.3315625821933064 13.600000000000001 -0.009999999999998899 " stroke="#191919" stroke-width="0.35 px" style="stroke-width:0.35;stroke-miterlimit:4;stroke-dasharray:none;fill:none;fill-opacity:1;fill-rule: evenodd"/>
<path id="Shape2DView_nwe0046"  d="M 13.599999999999996 0.009999999999999787 L 13.599999999999996 0.008571428795354663 L 13.599999999999996 0.00714285748736021 L 13.599999999999996 0.0057142860932417605 L 13.599999999999996 0.0042857146302255344 L 13.599999999999996 0.002857143115535088 L 13.599999999999996 0.001428571566394865 L 13.599999999999996 2.930988785010413e-14 L 13.599999999999996 -0.001428571566334469 L 13.599999999999996 -0.00285714311547558 L 13.599999999999996 -0.0042857146301660265 L 13.599999999999996 -0.0057142860931822526 L 13.599999999999996 -0.007142857487300702 L 13.599999999999996 -0.008571428795295155 L 13.599999999999996 -0.009999999999998899 " stroke="#191919" stroke-width="0.35 px" style="stroke-width:0.35;stroke-miterlimit:4;stroke-dasharray:none;fill:none;fill-opacity:1;fill-rule: evenodd"/>
<path id="Shape2DView_nwe0047"  d="M 14.89 1.3 Q 13.85586728391727 1.3315625821917862 13.600000000000001 0.010000000000000009 " stroke="#191919" stroke-width="0.35 px" style="stroke-width:0.35;stroke-miterlimit:4;stroke-dasharray:none;fill:none;fill-opacity:1;fill-rule: evenodd"/>
<path id="Shape2DView_nwe0048"  d="M 14.89 1.3 L 22.71 1.3 " stroke="#191919" stroke-width="0.35 px" style="stroke-width:0.35;stroke-miterlimit:4;stroke-dasharray:none;fill:none;fill-opacity:1;fill-rule: evenodd"/>
<path id="Shape2DView_nwe0049"  d="M 22.71 1.3 Q 23.74413271608273 1.331562582191605 24.0 0.010000000000000009 " stroke="#191919" stroke-width="0.35 px" style="stroke-width:0.35;stroke-miterlimit:4;stroke-dasharray:none;fill:none;fill-opacity:1;fill-rule: evenodd"/>
<path id="Shape2DView_nwe0050"  d="M 23.999999999999996 0.009999999999999787 L 23.999999999999996 0.008571428795354663 L 23.999999999999996 0.00714285748736021 L 23.999999999999996 0.0057142860932417605 L 23.999999999999996 0.0042857146302255344 L 23.999999999999996 0.002857143115535088 L 23.999999999999996 0.001428571566394865 L 23.999999999999996 2.930988785010413e-14 L 23.999999999999996 -0.001428571566334469 L 23.999999999999996 -0.00285714311547558 L 23.999999999999996 -0.0042857146301660265 L 23.999999999999996 -0.0057142860931822526 L 23.999999999999996 -0.007142857487300702 L 23.999999999999996 -0.008571428795295155 L 23.999999999999996 -0.009999999999998899 " stroke="#191919" stroke-width="0.35 px" style="stroke-width:0.35;stroke-miterlimit:4;stroke-dasharray:none;fill:none;fill-opacity:1;fill-rule: evenodd"/>
<path id="Shape2DView_nwe0051"  d="M 22.71 -1.3 Q 23.744132695286694 -1.3315626061057966 24.0 -0.00999999999999912 " stroke="#191919" stroke-width="0.35 px" style="stroke-width:0.35;stroke-miterlimit:4;stroke-dasharray:none;fill:none;fill-opacity:1;fill-rule: evenodd"/>
<path id="Shape2DView_nwe0052"  d="M 14.89 -1.3 L 22.71 -1.3 " stroke="#191919" stroke-width="0.35 px" style="stroke-width:0.35;stroke-miterlimit:4;stroke-dasharray:none;fill:none;fill-opacity:1;fill-rule: evenodd"/>
<path id="Shape2DView_nwe0053"  d="M 97.266666666667 3.25 L 97.266666666667 3.1685157145909266 L 97.266666666667 2.9281488206828623 L 97.266666666667 2.5409523180210973 L 97.266666666667 2.0263418560408843 L 97.266666666667 1.4101221521320642 L 97.266666666667 0.7231930353580222 L 97.266666666667 3.9801020972288977e-16 L 97.266666666667 -0.7231930353580214 L 97.266666666667 -1.4101221521320635 L 97.266666666667 -2.0263418560408835 L 97.266666666667 -2.5409523180210964 L 97.266666666667 -2.928148820682862 L 97.266666666667 -3.1685157145909266 L 97.266666666667 -3.25 " stroke="#191919" stroke-width="0.35 px" style="stroke-width:0.35;stroke-miterlimit:4;stroke-dasharray:none;fill:none;fill-opacity:1;fill-rule: evenodd"/>
<path id="Shape2DView_nwe0054"  d="M 0.9 0.45 L 2.833333333333 0.45 " stroke="#191919" stroke-width="0.35 px" style="stroke-width:0.35;stroke-miterlimit:4;stroke-dasharray:none;fill:none;fill-opacity:1;fill-rule: evenodd"/>
<path id="Shape2DView_nwe0055"  d="M 0.0 -0.4500000000000001 L 0.00565901109608169 -0.4500000000000001 L 0.02256487903635873 -0.4500000000000001 L 0.05050500272246916 -0.4500000000000001 L 0.08912801888782274 -0.4500000000000001 L 0.13794822069454427 -0.4500000000000001 L 0.19635166577877317 -0.45000000000000007 L 0.2636038969321072 -0.45000000000000007 L 0.33885917832713974 -0.45000000000000007 L 0.4211711311361971 -0.45000000000000007 L 0.5095046347941976 -0.45000000000000007 L 0.6027488442403496 -0.45000000000000007 L 0.699731159439317 -0.45 L 0.7992319715070229 -0.45 L 0.9 -0.45 " stroke="#191919" stroke-width="0.35 px" style="stroke-width:0.35;stroke-miterlimit:4;stroke-dasharray:none;fill:none;fill-opacity:1;fill-rule: evenodd"/>
<circle cx="1.554312234475e-15" cy="0.0" r="0.45" stroke="#191919" stroke-width="0.35 px" style="stroke-width:0.35;stroke-miterlimit:4;stroke-dasharray:none;fill:none"/>
<path id="Shape2DView_nwe0057"  d="M 97.266666666667 0.45 L 99.1 0.45 " stroke="#191919" stroke-width="0.35 px" style="stroke-width:0.35;stroke-miterlimit:4;stroke-dasharray:none;fill:none;fill-opacity:1;fill-rule: evenodd"/>
<path id="Shape2DView_nwe0058"  d="M 100.0 0.45 L 99.99434098890391 0.45 L 99.97743512096363 0.45 L 99.94949499727753 0.45 L 99.91087198111217 0.45 L 99.86205177930545 0.45 L 99.80364833422122 0.45 L 99.73639610306789 0.45 L 99.66114082167286 0.45 L 99.5788288688638 0.45 L 99.4904953652058 0.45 L 99.39725115575965 0.45 L 99.30026884056068 0.45 L 99.20076802849297 0.45 L 99.1 0.45 " stroke="#191919" stroke-width="0.35 px" style="stroke-width:0.35;stroke-miterlimit:4;stroke-dasharray:none;fill:none;fill-opacity:1;fill-rule: evenodd"/>
<path id="Shape2DView_nwe0059"  d="M 100.0 -0.45 A 0.45 0.45 0 0 1 100 0.45" stroke="#191919" stroke-width="0.35 px" style="stroke-width:0.35;stroke-miterlimit:4;stroke-dasharray:none;fill:none;fill-opacity:1;fill-rule: evenodd"/>
<path id="Shape2DView_nwe0060"  d="M 4.564979142851 -4.9787114570588615 C 4.564979142850999 -1.832867649882781 4.564979142850999 1.832860736140481 4.564979142851 4.978711457058972 " stroke="#191919" stroke-width="0.35 px" style="stroke-width:0.35;stroke-miterlimit:4;stroke-dasharray:none;fill:none;fill-opacity:1;fill-rule: evenodd"/>
<path id="Shape2DView_nwe0061"  d="M 3.6999999999999975 -4.97871145507014 L 3.6999999999999975 -4.296930596037022 L 3.6999999999999975 -3.6016300036375632 L 3.6999999999999975 -2.894997350771896 L 3.6999999999999975 -2.179255965194837 L 3.6999999999999975 -1.4566578341042193 L 3.6999999999999975 -0.729476518556019 L 3.699999999999997 -1.2079226507921703e-13 L 3.6999999999999975 0.729476518555777 L 3.6999999999999975 1.4566578341039786 L 3.6999999999999975 2.1792559651945957 L 3.6999999999999975 2.894997350771657 L 3.6999999999999975 3.6016300036373274 L 3.6999999999999975 4.296930596036789 L 3.6999999999999975 4.9787114550699165 " stroke="#191919" stroke-width="0.35 px" style="stroke-width:0.35;stroke-miterlimit:4;stroke-dasharray:none;fill:none;fill-opacity:1;fill-rule: evenodd"/>
<path id="Shape2DView_nwe0062"  d="M 4.769338405373 -4.947955146361325 L 4.769338405373 4.947955146361346 " stroke="#191919" stroke-width="0.35 px" style="stroke-width:0.35;stroke-miterlimit:4;stroke-dasharray:none;fill:none;fill-opacity:1;fill-rule: evenodd"/>
<path id="Shape2DView_nwe0063"  d="M 3.6999999999999975 4.97871145507 L 3.6999999999999975 5.970181403148523 L 3.6999999999999975 6.919423146402508 L 3.6999999999999975 7.8197225212152555 L 3.699999999999998 8.664711542456036 L 3.699999999999998 9.44841344542477 L 3.699999999999998 10.165284960621719 L 3.6999999999999984 10.810255522324939 L 3.6999999999999984 11.378763133645853 L 3.699999999999999 11.866786634382777 L 3.699999999999999 12.270874143435847 L 3.6999999999999993 12.588167474604834 L 3.6999999999999997 12.81642235307239 L 3.6999999999999997 12.954024289577772 L 3.7 13.000000000000002 " stroke="#191919" stroke-width="0.35 px" style="stroke-width:0.35;stroke-miterlimit:4;stroke-dasharray:none;fill:none;fill-opacity:1;fill-rule: evenodd"/>
<path id="Shape2DView_nwe0064"  d="M 3.7 -13.000000000000002 L 3.7 -12.954024289577722 L 3.6999999999999997 -12.816422353072305 L 3.6999999999999993 -12.588167474604713 L 3.6999999999999993 -12.270874143435702 L 3.699999999999999 -11.866786634382615 L 3.699999999999999 -11.378763133645682 L 3.6999999999999984 -10.810255522324766 L 3.6999999999999984 -10.165284960621552 L 3.699999999999998 -9.448413445424615 L 3.699999999999998 -8.664711542455901 L 3.699999999999998 -7.819722521215144 L 3.6999999999999975 -6.919423146402426 L 3.6999999999999975 -5.970181403148474 L 3.6999999999999975 -4.978711455070002 " stroke="#191919" stroke-width="0.35 px" style="stroke-width:0.35;stroke-miterlimit:4;stroke-dasharray:none;fill:none;fill-opacity:1;fill-rule: evenodd"/>
<path id="Shape2DView_nwe0065"  d="M 4.564979142851006 4.978711455069993 C 4.564979140188586 9.725209828311494 4.564979126477834 13.070700969807987 4.564979141134851 12.99997353900228 " stroke="#191919" stroke-width="0.35 px" style="stroke-width:0.35;stroke-miterlimit:4;stroke-dasharray:none;fill:none;fill-opacity:1;fill-rule: evenodd"/>
<path id="Shape2DView_nwe0066"  d="M 4.564979141134853 -12.99997353899812 C 4.564979126477834 -13.070700969803935 4.564979140188596 -9.725209828311462 4.564979142851005 -4.978711455071779 " stroke="#191919" stroke-width="0.35 px" style="stroke-width:0.35;stroke-miterlimit:4;stroke-dasharray:none;fill:none;fill-opacity:1;fill-rule: evenodd"/>
<path id="Shape2DView_nwe0067"  d="M 4.769338405373 4.947955148338008 C 4.769338405827079 9.665124788806732 4.769338408165527 12.989902188620352 4.76933840566568 12.919604004530008 " stroke="#191919" stroke-width="0.35 px" style="stroke-width:0.35;stroke-miterlimit:4;stroke-dasharray:none;fill:none;fill-opacity:1;fill-rule: evenodd"/>
<path id="Shape2DView_nwe0068"  d="M 4.769338405665676 -12.919604004526661 C 4.769338408165519 -12.989902188616337 4.7693384058270825 -9.665124788801355 4.769338405373 -4.947955148337858 " stroke="#191919" stroke-width="0.35 px" style="stroke-width:0.35;stroke-miterlimit:4;stroke-dasharray:none;fill:none;fill-opacity:1;fill-rule: evenodd"/>
<path id="Shape2DView_nwe0069"  d="M 5.430661594627003 4.947955148337994 C 5.430661594172923 9.665124788806773 5.430661591834706 12.989902188620311 5.430661594334455 12.919604004529921 " stroke="#191919" stroke-width="0.35 px" style="stroke-width:0.35;stroke-miterlimit:4;stroke-dasharray:none;fill:none;fill-opacity:1;fill-rule: evenodd"/>
<path id="Shape2DView_nwe0070"  d="M 5.430661594334457 -12.919604004526757 C 5.430661591834706 -12.989902188616417 5.430661594172927 -9.66512478880118 5.430661594627 -4.947955148337417 " stroke="#191919" stroke-width="0.35 px" style="stroke-width:0.35;stroke-miterlimit:4;stroke-dasharray:none;fill:none;fill-opacity:1;fill-rule: evenodd"/>
<path id="Shape2DView_nwe0071"  d="M 5.635020857148993 4.978711455069993 C 5.635020859811282 9.725209828311513 5.635020873522011 13.070700969807959 5.635020858864921 12.999973539002161 " stroke="#191919" stroke-width="0.35 px" style="stroke-width:0.35;stroke-miterlimit:4;stroke-dasharray:none;fill:none;fill-opacity:1;fill-rule: evenodd"/>
<path id="Shape2DView_nwe0072"  d="M 5.635020858865069 -12.999973538998079 C 5.635020873522061 -13.07070096980402 5.635020859811261 -9.725209828310243 5.635020857148996 -4.978711455069264 " stroke="#191919" stroke-width="0.35 px" style="stroke-width:0.35;stroke-miterlimit:4;stroke-dasharray:none;fill:none;fill-opacity:1;fill-rule: evenodd"/>
<path id="Shape2DView_nwe0073"  d="M 96.3 4.97871145507 L 96.3 5.970181403148503 L 96.3 6.919423146402472 L 96.3 7.819722521215204 L 96.3 8.664711542455972 L 96.3 9.448413445424695 L 96.3 10.165284960621637 L 96.3 10.810255522324855 L 96.3 11.37876313364577 L 96.3 11.866786634382699 L 96.3 12.270874143435776 L 96.3 12.588167474604774 L 96.3 12.81642235307235 L 96.3 12.954024289577749 L 96.3 13.0 " stroke="#191919" stroke-width="0.35 px" style="stroke-width:0.35;stroke-miterlimit:4;stroke-dasharray:none;fill:none;fill-opacity:1;fill-rule: evenodd"/>
<path id="Shape2DView_nwe0074"  d="M 96.3 -13.0 L 96.3 -12.954024289577747 L 96.3 -12.816422353072348 L 96.3 -12.588167474604774 L 96.3 -12.270874143435774 L 96.3 -11.866786634382695 L 96.3 -11.378763133645764 L 96.3 -10.810255522324852 L 96.3 -10.165284960621632 L 96.3 -9.448413445424686 L 96.3 -8.664711542455962 L 96.3 -7.81972252121519 L 96.3 -6.9194231464024565 L 96.3 -5.970181403148483 L 96.3 -4.978711455070001 " stroke="#191919" stroke-width="0.35 px" style="stroke-width:0.35;stroke-miterlimit:4;stroke-dasharray:none;fill:none;fill-opacity:1;fill-rule: evenodd"/>
<path id="Shape2DView_nwe0075"  d="M 96.3 -4.97871145507014 L 96.3 -4.296930596037022 L 96.3 -3.6016300036375632 L 96.3 -2.894997350771896 L 96.3 -2.179255965194837 L 96.3 -1.4566578341042193 L 96.3 -0.729476518556019 L 96.3 -1.2079226507921703e-13 L 96.3 0.729476518555777 L 96.3 1.4566578341039786 L 96.3 2.1792559651945957 L 96.3 2.894997350771657 L 96.3 3.6016300036373274 L 96.3 4.296930596036789 L 96.3 4.9787114550699165 " stroke="#191919" stroke-width="0.35 px" style="stroke-width:0.35;stroke-miterlimit:4;stroke-dasharray:none;fill:none;fill-opacity:1;fill-rule: evenodd"/>
<path id="Shape2DView_nwe0076"  d="M 5.635020857149 -4.9787114570588615 C 5.635020857148997 -1.832867649882781 5.635020857149 1.832860736140481 5.635020857149 4.978711457058972 " stroke="#191919" stroke-width="0.35 px" style="stroke-width:0.35;stroke-miterlimit:4;stroke-dasharray:none;fill:none;fill-opacity:1;fill-rule: evenodd"/>
<path id="Shape2DView_nwe0077"  d="M 5.430661594627 -4.947955146361325 L 5.430661594627 4.947955146361346 " stroke="#191919" stroke-width="0.35 px" style="stroke-width:0.35;stroke-miterlimit:4;stroke-dasharray:none;fill:none;fill-opacity:1;fill-rule: evenodd"/>
<path id="Shape2DView_nwe0078"  d="M 0.9 0.45 L 0.8999999999999999 0.43871756048182065 L 0.8999999999999999 0.40543599055608864 L 0.8999999999999999 0.3518241671106135 L 0.8999999999999999 0.2805704108364302 L 0.8999999999999999 0.19524768260290123 L 0.8999999999999999 0.10013442028034157 L 0.9 8.266365894244634e-17 L 0.9 -0.1001344202803414 L 0.9 -0.1952476826029011 L 0.9 -0.28057041083643003 L 0.9 -0.3518241671106134 L 0.9 -0.4054359905560886 L 0.9 -0.4387175604818206 L 0.9 -0.45 " stroke="#191919" stroke-width="0.35 px" style="stroke-width:0.35;stroke-miterlimit:4;stroke-dasharray:none;fill:none;fill-opacity:1;fill-rule: evenodd"/>
<path id="Shape2DView_nwe0079"  d="M 99.1 -0.45 L 99.1 -0.43871756048182065 L 99.1 -0.40543599055608864 L 99.1 -0.3518241671106135 L 99.1 -0.2805704108364302 L 99.1 -0.19524768260290123 L 99.1 -0.10013442028034157 L 99.1 -8.266365894244634e-17 L 99.1 0.1001344202803414 L 99.1 0.1952476826029011 L 99.1 0.28057041083643003 L 99.1 0.3518241671106134 L 99.1 0.4054359905560886 L 99.1 0.4387175604818206 L 99.1 0.45 " stroke="#191919" stroke-width="0.35 px" style="stroke-width:0.35;stroke-miterlimit:4;stroke-dasharray:none;fill:none;fill-opacity:1;fill-rule: evenodd"/>
<path id="Shape2DView_nwe0080"  d="M 3.7 12.999999999999508 Q 3.519455656295286 12.983885221204549 3.5000000000000027 12.799999999999507 " stroke="#191919" stroke-width="0.35 px" style="stroke-width:0.35;stroke-miterlimit:4;stroke-dasharray:none;fill:none;fill-opacity:1;fill-rule: evenodd"/>
<path id="Shape2DView_nwe0081"  d="M 3.7000000000000006 -12.99999999999951 Q 3.5194556562952863 -12.983885221204545 3.500000000000003 -12.799999999999505 " stroke="#191919" stroke-width="0.35 px" style="stroke-width:0.35;stroke-miterlimit:4;stroke-dasharray:none;fill:none;fill-opacity:1;fill-rule: evenodd"/>
<path id="Shape2DView_nwe0082"  d="M 3.7 -13.0 L 4.564979141123037 -13.0 " stroke="#191919" stroke-width="0.35 px" style="stroke-width:0.35;stroke-miterlimit:4;stroke-dasharray:none;fill:none;fill-opacity:1;fill-rule: evenodd"/>
<path id="Shape2DView_nwe0083"  d="M 3.6999999999999997 13.0 L 4.56497914112304 13.0 " stroke="#191919" stroke-width="0.35 px" style="stroke-width:0.35;stroke-miterlimit:4;stroke-dasharray:none;fill:none;fill-opacity:1;fill-rule: evenodd"/>
<path id="Shape2DView_nwe0084"  d="M 4.769338405665674 12.91960400454511 L 4.564979141134873 12.999973539017372 " stroke="#191919" stroke-width="0.35 px" style="stroke-width:0.35;stroke-miterlimit:4;stroke-dasharray:none;fill:none;fill-opacity:1;fill-rule: evenodd"/>
<path id="Shape2DView_nwe0085"  d="M 4.769338405665676 -12.919604004541908 L 4.564979141134873 -12.99997353901335 " stroke="#191919" stroke-width="0.35 px" style="stroke-width:0.35;stroke-miterlimit:4;stroke-dasharray:none;fill:none;fill-opacity:1;fill-rule: evenodd"/>
<path id="Shape2DView_nwe0086"  d="M 4.769351173432938 12.919618017493534 Q 5.094569431809811 12.661349199447056 5.43064882656709 12.919618017493555 " stroke="#191919" stroke-width="0.35 px" style="stroke-width:0.35;stroke-miterlimit:4;stroke-dasharray:none;fill:none;fill-opacity:1;fill-rule: evenodd"/>
<path id="Shape2DView_nwe0087"  d="M 4.769351173434607 -12.919618017491983 Q 5.094569431813232 -12.661349199448507 5.430648826565506 -12.91961801749208 " stroke="#191919" stroke-width="0.35 px" style="stroke-width:0.35;stroke-miterlimit:4;stroke-dasharray:none;fill:none;fill-opacity:1;fill-rule: evenodd"/>
<path id="Shape2DView_nwe0088"  d="M 5.635020858864898 12.999973539017253 L 5.430661594334465 12.919604004545022 " stroke="#191919" stroke-width="0.35 px" style="stroke-width:0.35;stroke-miterlimit:4;stroke-dasharray:none;fill:none;fill-opacity:1;fill-rule: evenodd"/>
<path id="Shape2DView_nwe0089"  d="M 5.63502085886505 -12.999973539013258 L 5.430661594334461 -12.919604004541931 " stroke="#191919" stroke-width="0.35 px" style="stroke-width:0.35;stroke-miterlimit:4;stroke-dasharray:none;fill:none;fill-opacity:1;fill-rule: evenodd"/>
<path id="Shape2DView_nwe0090"  d="M 5.6350208588768815 -13.0 L 96.3 -13.0 " stroke="#191919" stroke-width="0.35 px" style="stroke-width:0.35;stroke-miterlimit:4;stroke-dasharray:none;fill:none;fill-opacity:1;fill-rule: evenodd"/>
<path id="Shape2DView_nwe0091"  d="M 5.635020858876734 13.0 L 96.3 13.0 " stroke="#191919" stroke-width="0.35 px" style="stroke-width:0.35;stroke-miterlimit:4;stroke-dasharray:none;fill:none;fill-opacity:1;fill-rule: evenodd"/>
<path id="Shape2DView_nwe0092"  d="M 96.3 13.0 Q 96.48054434370536 12.98388522120485 96.50000000000001 12.799999999999066 " stroke="#191919" stroke-width="0.35 px" style="stroke-width:0.35;stroke-miterlimit:4;stroke-dasharray:none;fill:none;fill-opacity:1;fill-rule: evenodd"/>
<path id="Shape2DView_nwe0093"  d="M 96.3 -13.0 Q 96.48054434370536 -12.983885221204853 96.5 -12.799999999999063 " stroke="#191919" stroke-width="0.35 px" style="stroke-width:0.35;stroke-miterlimit:4;stroke-dasharray:none;fill:none;fill-opacity:1;fill-rule: evenodd"/>
<path id="Shape2DView_nwe0094"  d="M 2.8333333333330004 -3.25 L 3.4899999999999975 -3.25 " stroke="#191919" stroke-width="0.35 px" style="stroke-width:0.35;stroke-miterlimit:4;stroke-dasharray:none;fill:none;fill-opacity:1;fill-rule: evenodd"/>
<path id="Shape2DView_nwe0095"  d="M 2.8333333333330004 3.25 L 3.4899999999999975 3.25 " stroke="#191919" stroke-width="0.35 px" style="stroke-width:0.35;stroke-miterlimit:4;stroke-dasharray:none;fill:none;fill-opacity:1;fill-rule: evenodd"/>
<path id="Shape2DView_nwe0096"  d="M 97.266666666667 3.25 L 96.51 3.25 " stroke="#191919" stroke-width="0.35 px" style="stroke-width:0.35;stroke-miterlimit:4;stroke-dasharray:none;fill:none;fill-opacity:1;fill-rule: evenodd"/>
<path id="Shape2DView_nwe0097"  d="M 97.266666666667 -3.25 L 96.51 -3.25 " stroke="#191919" stroke-width="0.35 px" style="stroke-width:0.35;stroke-miterlimit:4;stroke-dasharray:none;fill:none;fill-opacity:1;fill-rule: evenodd"/>
<path id="Shape2DView_nwe0098"  d="M 2.833333333333 -0.45 L 0.9 -0.45 " stroke="#191919" stroke-width="0.35 px" style="stroke-width:0.35;stroke-miterlimit:4;stroke-dasharray:none;fill:none;fill-opacity:1;fill-rule: evenodd"/>
<path id="Shape2DView_nwe0099"  d="M 99.1 -0.45 L 97.266666666667 -0.45 " stroke="#191919" stroke-width="0.35 px" style="stroke-width:0.35;stroke-miterlimit:4;stroke-dasharray:none;fill:none;fill-opacity:1;fill-rule: evenodd"/>
<path id="Shape2DView_nwe0100"  d="M 99.1 -0.44999999999999873 Q 99.91990904782017 -0.4499999999999998 100.0 -0.45000000000000007 " stroke="#191919" stroke-width="0.35 px" style="stroke-width:0.35;stroke-miterlimit:4;stroke-dasharray:none;fill:none;fill-opacity:1;fill-rule: evenodd"/>
<title>b'Shape2DView'</title>
</g>
<g id="Rectangle" transform="translate(1.455653,14.008934) scale(1,-1)">
<rect fill="#ff0000" id="origin" width="1" height="1" x="0" y="0" />
<title>b'Rectangle'</title>
</g>
</svg>