<?xml version="1.0"?>
<!DOCTYPE svg PUBLIC "-//W3C//DTD SVG 1.1//EN" "http://www.w3.org/Graphics/SVG/1.1/DTD/svg11.dtd">
<svg width="36.61130674642202mm" height="16.71786875973393mm" viewBox="0 0 36.61130674642202 16.71786875973393" xmlns="http://www.w3.org/2000/svg" version="1.1">
<g id="Shape2DView" transform="translate(0.805653,8.358934) scale(1,-1)">
<path id="Shape2DView_nwe0000"  d="M 3.2 3.065294293244 L 4.064979142851 3.065294293244 " stroke="#191919" stroke-width="0.35 px" style="stroke-width:0.35;stroke-miterlimit:4;stroke-dasharray:none;fill:none;fill-opacity:1;fill-rule: evenodd"/>
<path id="Shape2DView_nwe0001"  d="M 3.2 -3.065294293244 L 4.064979142851 -3.065294293244 " stroke="#191919" stroke-width="0.35 px" style="stroke-width:0.35;stroke-miterlimit:4;stroke-dasharray:none;fill:none;fill-opacity:1;fill-rule: evenodd"/>
<path id="Shape2DView_nwe0002"  d="M 4.064979142851 -3.065294293244 L 4.269338405373 -3.034537986513 " stroke="#191919" stroke-width="0.35 px" style="stroke-width:0.35;stroke-miterlimit:4;stroke-dasharray:none;fill:none;fill-opacity:1;fill-rule: evenodd"/>
<path id="Shape2DView_nwe0003"  d="M 4.269338405372612 -3.034537986513022 A 0.485412 0.185759 -180 0 0 4.93066 -3.03454" stroke="#191919" stroke-width="0.35 px" style="stroke-width:0.35;stroke-miterlimit:4;stroke-dasharray:none;fill:none;fill-opacity:1;fill-rule: evenodd"/>
<path id="Shape2DView_nwe0004"  d="M 4.930661594627 -3.034537986513 L 5.135020857149 -3.065294293244 " stroke="#191919" stroke-width="0.35 px" style="stroke-width:0.35;stroke-miterlimit:4;stroke-dasharray:none;fill:none;fill-opacity:1;fill-rule: evenodd"/>
<path id="Shape2DView_nwe0005"  d="M 5.135020857149 -3.065294293244 L 31.8 -3.065294293244 " stroke="#191919" stroke-width="0.35 px" style="stroke-width:0.35;stroke-miterlimit:4;stroke-dasharray:none;fill:none;fill-opacity:1;fill-rule: evenodd"/>
<path id="Shape2DView_nwe0006"  d="M 31.800000000000004 -3.065294293244674 A 0.21 0.0803635 5.26972e-15 0 1 32.01 -2.98493" stroke="#191919" stroke-width="0.35 px" style="stroke-width:0.35;stroke-miterlimit:4;stroke-dasharray:none;fill:none;fill-opacity:1;fill-rule: evenodd"/>
<path id="Shape2DView_nwe0007"  d="M 4.269338405372612 -3.030711152189022 A 0.485412 0.185759 -180 0 0 4.93066 -3.03071" stroke="#191919" stroke-width="0.35 px" style="stroke-width:0.35;stroke-miterlimit:4;stroke-dasharray:none;fill:none;fill-opacity:1;fill-rule: evenodd"/>
<path id="Shape2DView_nwe0008"  d="M 2.99 -2.9849307724479996 A 0.21 0.0803635 5.26972e-15 0 1 3.2 -3.06529" stroke="#191919" stroke-width="0.35 px" style="stroke-width:0.35;stroke-miterlimit:4;stroke-dasharray:none;fill:none;fill-opacity:1;fill-rule: evenodd"/>
<path id="Shape2DView_nwe0009"  d="M 4.064979142851 3.065294293244 L 4.269338405373 3.034537986513 " stroke="#191919" stroke-width="0.35 px" style="stroke-width:0.35;stroke-miterlimit:4;stroke-dasharray:none;fill:none;fill-opacity:1;fill-rule: evenodd"/>
<path id="Shape2DView_nwe0010"  d="M 2.9899999999999984 -2.9849307724478935 L 2.9899999999999984 -2.5761766832504662 L 2.9899999999999984 -2.1593169891139574 L 2.9899999999999984 -1.7356632848593514 L 2.9899999999999984 -1.3065485417770089 L 2.9899999999999984 -0.8733229136058311 L 2.9899999999999984 -0.4373494884500908 L 2.9899999999999984 4.1300296516055823e-14 L 2.9899999999999984 0.4373494884501734 L 2.9899999999999984 0.8733229136059135 L 2.9899999999999984 1.3065485417770897 L 2.9899999999999984 1.7356632848594322 L 2.9899999999999984 2.1593169891140356 L 2.9899999999999984 2.5761766832505444 L 2.9899999999999984 2.9849307724479686 " stroke="#191919" stroke-width="0.35 px" style="stroke-width:0.35;stroke-miterlimit:4;stroke-dasharray:none;fill:none;fill-opacity:1;fill-rule: evenodd"/>
<path id="Shape2DView_nwe0011"  d="M 2.99 2.9849307724479996 A 0.21 0.0803635 -5.26972e-15 0 0 3.2 3.06529" stroke="#191919" stroke-width="0.35 px" style="stroke-width:0.35;stroke-miterlimit:4;stroke-dasharray:none;fill:none;fill-opacity:1;fill-rule: evenodd"/>
<path id="Shape2DView_nwe0012"  d="M 4.269338405372612 3.034537986513022 A 0.485412 0.185759 180 0 1 4.93066 3.03454" stroke="#191919" stroke-width="0.35 px" style="stroke-width:0.35;stroke-miterlimit:4;stroke-dasharray:none;fill:none;fill-opacity:1;fill-rule: evenodd"/>
<path id="Shape2DView_nwe0013"  d="M 4.930661594627 3.034537986513 L 5.135020857149 3.065294293244 " stroke="#191919" stroke-width="0.35 px" style="stroke-width:0.35;stroke-miterlimit:4;stroke-dasharray:none;fill:none;fill-opacity:1;fill-rule: evenodd"/>
<path id="Shape2DView_nwe0014"  d="M 5.135020857149 3.065294293244 L 31.8 3.065294293244 " stroke="#191919" stroke-width="0.35 px" style="stroke-width:0.35;stroke-miterlimit:4;stroke-dasharray:none;fill:none;fill-opacity:1;fill-rule: evenodd"/>
<path id="Shape2DView_nwe0015"  d="M 31.800000000000004 3.065294293244674 A 0.21 0.0803635 -5.26972e-15 0 0 32.01 2.98493" stroke="#191919" stroke-width="0.35 px" style="stroke-width:0.35;stroke-miterlimit:4;stroke-dasharray:none;fill:none;fill-opacity:1;fill-rule: evenodd"/>
<path id="Shape2DView_nwe0016"  d="M 4.269338405372612 3.030711152189022 A 0.485412 0.185759 180 0 1 4.93066 3.03071" stroke="#191919" stroke-width="0.35 px" style="stroke-width:0.35;stroke-miterlimit:4;stroke-dasharray:none;fill:none;fill-opacity:1;fill-rule: evenodd"/>
<path id="Shape2DView_nwe0017"  d="M 2.9999999999999982 3.009434468058408 L 2.9999999999999982 3.601936869423102 L 2.9999999999999982 4.169095275036023 L 2.9999999999999987 4.706919037436228 L 2.9999999999999987 5.211623913966612 L 2.9999999999999987 5.679658693512048 L 2.9999999999999987 6.107730183577914 L 2.999999999999999 6.492826381894602 L 2.999999999999999 6.832237669507652 L 2.999999999999999 7.123575876234407 L 2.999999999999999 7.364791084338579 L 2.9999999999999996 7.554186052188495 L 2.9999999999999996 7.690428156411061 L 3.0 7.772558768513939 L 3.0 7.800000000000001 " stroke="#191919" stroke-width="0.35 px" style="stroke-width:0.35;stroke-miterlimit:4;stroke-dasharray:none;fill:none;fill-opacity:1;fill-rule: evenodd"/>
<path id="Shape2DView_nwe0018"  d="M 3.0 -7.800000000000001 L 3.0 -7.772558768513934 L 2.9999999999999996 -7.690428156411052 L 2.9999999999999996 -7.554186052188483 L 2.9999999999999996 -7.364791084338565 L 2.999999999999999 -7.12357587623439 L 2.999999999999999 -6.832237669507633 L 2.999999999999999 -6.492826381894579 L 2.999999999999999 -6.10773018357789 L 2.9999999999999987 -5.679658693512022 L 2.9999999999999987 -5.211623913966585 L 2.9999999999999987 -4.706919037436199 L 2.9999999999999987 -4.169095275035993 L 2.9999999999999982 -3.6019368694230707 L 2.9999999999999982 -3.0094344680584086 " stroke="#191919" stroke-width="0.35 px" style="stroke-width:0.35;stroke-miterlimit:4;stroke-dasharray:none;fill:none;fill-opacity:1;fill-rule: evenodd"/>
<path id="Shape2DView_nwe0019"  d="M 32.0 3.0094344680584117 L 32.0 3.6019368694231444 L 32.0 4.169095275036099 L 32.0 4.706919037436335 L 32.0 5.211623913966744 L 32.0 5.679658693512199 L 32.0 6.107730183578077 L 32.0 6.492826381894773 L 32.0 6.832237669507821 L 32.0 7.123575876234566 L 32.0 7.364791084338722 L 32.0 7.554186052188614 L 32.0 7.690428156411147 L 32.0 7.772558768513986 L 32.0 7.8 " stroke="#191919" stroke-width="0.35 px" style="stroke-width:0.35;stroke-miterlimit:4;stroke-dasharray:none;fill:none;fill-opacity:1;fill-rule: evenodd"/>
<path id="Shape2DView_nwe0020"  d="M 32.0 -7.800000000000001 L 32.0 -7.772558768513986 L 32.0 -7.690428156411147 L 32.0 -7.554186052188614 L 32.0 -7.364791084338723 L 32.0 -7.1235758762345665 L 32.0 -6.832237669507823 L 32.0 -6.492826381894775 L 32.0 -6.1077301835780835 L 32.0 -5.6796586935122075 L 32.0 -5.211623913966756 L 32.0 -4.706919037436348 L 32.0 -4.169095275036115 L 32.0 -3.6019368694231635 L 32.0 -3.0094344680584144 " stroke="#191919" stroke-width="0.35 px" style="stroke-width:0.35;stroke-miterlimit:4;stroke-dasharray:none;fill:none;fill-opacity:1;fill-rule: evenodd"/>
<path id="Shape2DView_nwe0021"  d="M 32.0 3.0094344680584113 L 32.0 3.339911731822171 L 32.0 3.6532383137365874 L 32.0 3.9478052597475304 L 32.0 4.2220999478517784 L 32.0 4.474713855517489 L 32.0 4.704349792546546 L 32.0 4.90982856223754 L 32.0 5.090095016643839 L 32.0 5.244223474832568 L 32.0 5.371422476321364 L 32.0 5.471038845283658 L 32.0 5.542561044652536 L 32.0 5.585621802899574 L 32.0 5.6 " stroke="#191919" stroke-width="0.35 px" style="stroke-width:0.35;stroke-miterlimit:4;stroke-dasharray:none;fill:none;fill-opacity:1;fill-rule: evenodd"/>
<path id="Shape2DView_nwe0022"  d="M 32.01 -2.9849307724478935 L 32.01 -2.5761766832504662 L 32.01 -2.1593169891139574 L 32.01 -1.7356632848593514 L 32.01 -1.3065485417770089 L 32.01 -0.8733229136058311 L 32.01 -0.4373494884500908 L 32.01 4.1300296516055823e-14 L 32.01 0.4373494884501734 L 32.01 0.8733229136059135 L 32.01 1.3065485417770897 L 32.01 1.7356632848594322 L 32.01 2.1593169891140356 L 32.01 2.5761766832505444 L 32.01 2.9849307724479686 " stroke="#191919" stroke-width="0.35 px" style="stroke-width:0.35;stroke-miterlimit:4;stroke-dasharray:none;fill:none;fill-opacity:1;fill-rule: evenodd"/>
<path id="Shape2DView_nwe0023"  d="M 2.666666666667 2.0 L 2.666666666667 1.9498558243636472 L 2.666666666667 1.8019377358048383 L 2.6666666666669996 1.5636629649360598 L 2.6666666666669996 1.2469796037174672 L 2.6666666666669996 0.8677674782351165 L 2.6666666666669996 0.445041867912629 L 2.6666666666669996 2.4492935982947064e-16 L 2.6666666666669996 -0.44504186791262856 L 2.6666666666669996 -0.867767478235116 L 2.6666666666669996 -1.2469796037174667 L 2.6666666666669996 -1.5636629649360594 L 2.666666666667 -1.801937735804838 L 2.666666666667 -1.9498558243636472 L 2.666666666667 -2.0 " stroke="#191919" stroke-width="0.35 px" style="stroke-width:0.35;stroke-miterlimit:4;stroke-dasharray:none;fill:none;fill-opacity:1;fill-rule: evenodd"/>
<path id="Shape2DView_nwe0024"  d="M 21.49 -0.8 Q 20.840699694495584 -0.8027171215158255 20.7 -0.010000000000000009 " stroke="#191919" stroke-width="0.35 px" style="stroke-width:0.35;stroke-miterlimit:4;stroke-dasharray:none;fill:none;fill-opacity:1;fill-rule: evenodd"/>
<path id="Shape2DView_nwe0025"  d="M 20.699999999999996 0.010000000000005116 L 20.699999999999996 0.008571429162155031 L 20.699999999999996 0.007142858051663037 L 20.699999999999996 0.005714286713970562 L 20.699999999999996 0.004285715194516815 L 20.699999999999996 0.0028571435387414468 L 20.699999999999996 0.0014285717920854424 L 20.699999999999996 -9.769962616701378e-15 L 20.699999999999996 -0.0014285717921058705 L 20.699999999999996 -0.002857143538761431 L 20.699999999999996 -0.004285715194536355 L 20.699999999999996 -0.005714286713990546 L 20.699999999999996 -0.007142858051683465 L 20.699999999999996 -0.008571429162175015 L 20.699999999999996 -0.009999999999996234 " stroke="#191919" stroke-width="0.35 px" style="stroke-width:0.35;stroke-miterlimit:4;stroke-dasharray:none;fill:none;fill-opacity:1;fill-rule: evenodd"/>
<path id="Shape2DView_nwe0026"  d="M 21.49 0.8 Q 20.84069969449593 0.8027171215158231 20.7 0.00999999999999901 " stroke="#191919" stroke-width="0.35 px" style="stroke-width:0.35;stroke-miterlimit:4;stroke-dasharray:none;fill:none;fill-opacity:1;fill-rule: evenodd"/>
<path id="Shape2DView_nwe0027"  d="M 21.49 0.8 L 26.31 0.8 " stroke="#191919" stroke-width="0.35 px" style="stroke-width:0.35;stroke-miterlimit:4;stroke-dasharray:none;fill:none;fill-opacity:1;fill-rule: evenodd"/>
<path id="Shape2DView_nwe0028"  d="M 26.31 0.8 Q 26.959300305504076 0.8027171215157063 27.1 0.00999999999999901 " stroke="#191919" stroke-width="0.35 px" style="stroke-width:0.35;stroke-miterlimit:4;stroke-dasharray:none;fill:none;fill-opacity:1;fill-rule: evenodd"/>
<path id="Shape2DView_nwe0029"  d="M 27.099999999999998 0.010000000000005116 L 27.099999999999998 0.008571429162155031 L 27.099999999999998 0.007142858051663037 L 27.099999999999998 0.005714286713970562 L 27.099999999999998 0.004285715194516815 L 27.099999999999998 0.0028571435387414468 L 27.099999999999998 0.0014285717920854424 L 27.099999999999998 -9.769962616701378e-15 L 27.099999999999998 -0.0014285717921058705 L 27.099999999999998 -0.002857143538761431 L 27.099999999999998 -0.004285715194536355 L 27.099999999999998 -0.005714286713990546 L 27.099999999999998 -0.007142858051683465 L 27.099999999999998 -0.008571429162175015 L 27.099999999999998 -0.009999999999996234 " stroke="#191919" stroke-width="0.35 px" style="stroke-width:0.35;stroke-miterlimit:4;stroke-dasharray:none;fill:none;fill-opacity:1;fill-rule: evenodd"/>
<path id="Shape2DView_nwe0030"  d="M 26.31 -0.8 Q 26.95930030550573 -0.8027171215146096 27.1 -0.010000000000000009 " stroke="#191919" stroke-width="0.35 px" style="stroke-width:0.35;stroke-miterlimit:4;stroke-dasharray:none;fill:none;fill-opacity:1;fill-rule: evenodd"/>
<path id="Shape2DView_nwe0031"  d="M 21.49 -0.8 L 26.31 -0.8 " stroke="#191919" stroke-width="0.35 px" style="stroke-width:0.35;stroke-miterlimit:4;stroke-dasharray:none;fill:none;fill-opacity:1;fill-rule: evenodd"/>
<path id="Shape2DView_nwe0032"  d="M 8.69 -0.8 Q 8.040699694497164 -0.8027171215170614 7.8999999999999995 -0.010000000000000009 " stroke="#191919" stroke-width="0.35 px" style="stroke-width:0.35;stroke-miterlimit:4;stroke-dasharray:none;fill:none;fill-opacity:1;fill-rule: evenodd"/>
<path id="Shape2DView_nwe0033"  d="M 7.899999999999999 0.010000000000005116 L 7.899999999999999 0.008571429162155031 L 7.899999999999999 0.007142858051663037 L 7.899999999999999 0.005714286713970562 L 7.899999999999999 0.004285715194516815 L 7.899999999999999 0.0028571435387414468 L 7.899999999999999 0.0014285717920854424 L 7.899999999999999 -9.769962616701378e-15 L 7.899999999999999 -0.0014285717921058705 L 7.899999999999999 -0.002857143538761431 L 7.899999999999999 -0.004285715194536355 L 7.899999999999999 -0.005714286713990546 L 7.899999999999999 -0.007142858051683465 L 7.899999999999999 -0.008571429162175015 L 7.899999999999999 -0.009999999999996234 " stroke="#191919" stroke-width="0.35 px" style="stroke-width:0.35;stroke-miterlimit:4;stroke-dasharray:none;fill:none;fill-opacity:1;fill-rule: evenodd"/>
<path id="Shape2DView_nwe0034"  d="M 8.69 0.8 Q 8.040699694495505 0.8027171215157018 7.9 0.00999999999999901 " stroke="#191919" stroke-width="0.35 px" style="stroke-width:0.35;stroke-miterlimit:4;stroke-dasharray:none;fill:none;fill-opacity:1;fill-rule: evenodd"/>
<path id="Shape2DView_nwe0035"  d="M 8.69 0.8 L 13.51 0.8 " stroke="#191919" stroke-width="0.35 px" style="stroke-width:0.35;stroke-miterlimit:4;stroke-dasharray:none;fill:none;fill-opacity:1;fill-rule: evenodd"/>
<path id="Shape2DView_nwe0036"  d="M 13.51 0.8 Q 14.159300305504072 0.8027171215158226 14.300000000000002 0.00999999999999901 " stroke="#191919" stroke-width="0.35 px" style="stroke-width:0.35;stroke-miterlimit:4;stroke-dasharray:none;fill:none;fill-opacity:1;fill-rule: evenodd"/>
<path id="Shape2DView_nwe0037"  d="M 14.299999999999999 0.010000000000005116 L 14.299999999999999 0.008571429162155031 L 14.299999999999999 0.007142858051663037 L 14.299999999999999 0.005714286713970562 L 14.299999999999999 0.004285715194516815 L 14.299999999999999 0.0028571435387414468 L 14.299999999999999 0.0014285717920854424 L 14.299999999999999 -9.769962616701378e-15 L 14.299999999999999 -0.0014285717921058705 L 14.299999999999999 -0.002857143538761431 L 14.299999999999999 -0.004285715194536355 L 14.299999999999999 -0.005714286713990546 L 14.299999999999999 -0.007142858051683465 L 14.299999999999999 -0.008571429162175015 L 14.299999999999999 -0.009999999999996234 " stroke="#191919" stroke-width="0.35 px" style="stroke-width:0.35;stroke-miterlimit:4;stroke-dasharray:none;fill:none;fill-opacity:1;fill-rule: evenodd"/>
<path id="Shape2DView_nwe0038"  d="M 13.51 -0.8 Q 14.159300305504072 -0.8027171215159514 14.300000000000002 -0.010000000000000009 " stroke="#191919" stroke-width="0.35 px" style="stroke-width:0.35;stroke-miterlimit:4;stroke-dasharray:none;fill:none;fill-opacity:1;fill-rule: evenodd"/>
<path id="Shape2DView_nwe0039"  d="M 8.69 -0.8 L 13.51 -0.8 " stroke="#191919" stroke-width="0.35 px" style="stroke-width:0.35;stroke-miterlimit:4;stroke-dasharray:none;fill:none;fill-opacity:1;fill-rule: evenodd"/>
<path id="Shape2DView_nwe0040"  d="M 32.433333333333 2.0 L 32.433333333333 1.9498558243636472 L 32.433333333333 1.8019377358048383 L 32.433333333333 1.5636629649360598 L 32.433333333333 1.2469796037174672 L 32.433333333333 0.8677674782351165 L 32.433333333333 0.445041867912629 L 32.433333333333 2.4492935982947064e-16 L 32.433333333333 -0.44504186791262856 L 32.433333333333 -0.867767478235116 L 32.433333333333 -1.2469796037174667 L 32.433333333333 -1.5636629649360594 L 32.433333333333 -1.801937735804838 L 32.433333333333 -1.9498558243636472 L 32.433333333333 -2.0 " stroke="#191919" stroke-width="0.35 px" style="stroke-width:0.35;stroke-miterlimit:4;stroke-dasharray:none;fill:none;fill-opacity:1;fill-rule: evenodd"/>
<path id="Shape2DView_nwe0041"  d="M 0.9 0.45 L 2.666666666667 0.45 " stroke="#191919" stroke-width="0.35 px" style="stroke-width:0.35;stroke-miterlimit:4;stroke-dasharray:none;fill:none;fill-opacity:1;fill-rule: evenodd"/>
<path id="Shape2DView_nwe0042"  d="M 0.0 -0.4500000000000001 L 0.00565901109608169 -0.4500000000000001 L 0.02256487903635873 -0.4500000000000001 L 0.05050500272246916 -0.4500000000000001 L 0.08912801888782274 -0.4500000000000001 L 0.13794822069454427 -0.4500000000000001 L 0.19635166577877317 -0.45000000000000007 L 0.2636038969321072 -0.45000000000000007 L 0.33885917832713974 -0.45000000000000007 L 0.4211711311361971 -0.45000000000000007 L 0.5095046347941976 -0.45000000000000007 L 0.6027488442403496 -0.45000000000000007 L 0.699731159439317 -0.45 L 0.7992319715070229 -0.45 L 0.9 -0.45 " stroke="#191919" stroke-width="0.35 px" style="stroke-width:0.35;stroke-miterlimit:4;stroke-dasharray:none;fill:none;fill-opacity:1;fill-rule: evenodd"/>
<circle cx="1.609823385706e-15" cy="0.0" r="0.45" stroke="#191919" stroke-width="0.35 px" style="stroke-width:0.35;stroke-miterlimit:4;stroke-dasharray:none;fill:none"/>
<path id="Shape2DView_nwe0044"  d="M 32.433333333333 0.45 L 34.1 0.45 " stroke="#191919" stroke-width="0.35 px" style="stroke-width:0.35;stroke-miterlimit:4;stroke-dasharray:none;fill:none;fill-opacity:1;fill-rule: evenodd"/>
<path id="Shape2DView_nwe0045"  d="M 35.0 0.45 L 34.99434098890392 0.45 L 34.97743512096364 0.45 L 34.94949499727753 0.45 L 34.91087198111218 0.45 L 34.86205177930546 0.45 L 34.80364833422123 0.45 L 34.7363961030679 0.45 L 34.66114082167286 0.45 L 34.5788288688638 0.45 L 34.4904953652058 0.45 L 34.397251155759655 0.45 L 34.30026884056068 0.45 L 34.20076802849298 0.45 L 34.1 0.45 " stroke="#191919" stroke-width="0.35 px" style="stroke-width:0.35;stroke-miterlimit:4;stroke-dasharray:none;fill:none;fill-opacity:1;fill-rule: evenodd"/>
<path id="Shape2DView_nwe0046"  d="M 35.0 -0.45 A 0.45 0.45 0 0 1 35 0.45" stroke="#191919" stroke-width="0.35 px" style="stroke-width:0.35;stroke-miterlimit:4;stroke-dasharray:none;fill:none;fill-opacity:1;fill-rule: evenodd"/>
<path id="Shape2DView_nwe0047"  d="M 4.064979142851 -3.0652942952411393 L 4.064979142851 3.065294295241285 " stroke="#191919" stroke-width="0.35 px" style="stroke-width:0.35;stroke-miterlimit:4;stroke-dasharray:none;fill:none;fill-opacity:1;fill-rule: evenodd"/>
<path id="Shape2DView_nwe0048"  d="M 3.1999999999999984 -3.0652942932445675 L 3.1999999999999984 -2.645535286261089 L 3.1999999999999984 -2.2174524465132457 L 3.1999999999999984 -1.782392680990282 L 3.1999999999999984 -1.3417248486711422 L 3.1999999999999984 -0.8968354535876997 L 3.1999999999999984 -0.44912428237010804 L 3.1999999999999984 -1.9984014443252818e-13 L 3.1999999999999984 0.4491242823697088 L 3.1999999999999984 0.8968354535873009 L 3.1999999999999984 1.3417248486707471 L 3.1999999999999984 1.7823926809898896 L 3.1999999999999984 2.21745244651286 L 3.1999999999999984 2.6455352862607096 L 3.1999999999999984 3.065294293244197 " stroke="#191919" stroke-width="0.35 px" style="stroke-width:0.35;stroke-miterlimit:4;stroke-dasharray:none;fill:none;fill-opacity:1;fill-rule: evenodd"/>
<path id="Shape2DView_nwe0049"  d="M 4.269338405373 -3.0345379845355405 L 4.269338405373 3.0345379845356533 " stroke="#191919" stroke-width="0.35 px" style="stroke-width:0.35;stroke-miterlimit:4;stroke-dasharray:none;fill:none;fill-opacity:1;fill-rule: evenodd"/>
<path id="Shape2DView_nwe0050"  d="M 3.1999999999999984 3.065294293244674 L 3.1999999999999984 3.6752720585304743 L 3.1999999999999984 4.259262726608922 L 3.199999999999999 4.813137018880271 L 3.199999999999999 5.332978603479917 L 3.199999999999999 5.815111786860205 L 3.199999999999999 6.256127503867903 L 3.1999999999999993 6.6529074225468054 L 3.1999999999999993 7.002645993225375 L 3.1999999999999993 7.302870285984779 L 3.1999999999999993 7.551457476240689 L 3.1999999999999997 7.746649854801838 L 3.1999999999999997 7.8870672562722985 L 3.1999999999999997 7.971716817918781 L 3.2 8.0 " stroke="#191919" stroke-width="0.35 px" style="stroke-width:0.35;stroke-miterlimit:4;stroke-dasharray:none;fill:none;fill-opacity:1;fill-rule: evenodd"/>
<path id="Shape2DView_nwe0051"  d="M 3.2 -8.0 L 3.2 -7.971716817918795 L 3.1999999999999997 -7.887067256272323 L 3.1999999999999997 -7.746649854801873 L 3.1999999999999997 -7.551457476240731 L 3.1999999999999993 -7.302870285984828 L 3.1999999999999993 -7.002645993225428 L 3.1999999999999993 -6.652907422546861 L 3.199999999999999 -6.256127503867958 L 3.199999999999999 -5.81511178686026 L 3.199999999999999 -5.33297860347997 L 3.199999999999999 -4.813137018880321 L 3.1999999999999984 -4.259262726608966 L 3.1999999999999984 -3.6752720585305125 L 3.1999999999999984 -3.0652942932446723 " stroke="#191919" stroke-width="0.35 px" style="stroke-width:0.35;stroke-miterlimit:4;stroke-dasharray:none;fill:none;fill-opacity:1;fill-rule: evenodd"/>
<path id="Shape2DView_nwe0052"  d="M 4.064979142851025 3.0652942932440004 C 4.064979140169794 5.985482161107271 4.064979126419184 8.043480275345047 4.064979141128391 7.999983716308813 " stroke="#191919" stroke-width="0.35 px" style="stroke-width:0.35;stroke-miterlimit:4;stroke-dasharray:none;fill:none;fill-opacity:1;fill-rule: evenodd"/>
<path id="Shape2DView_nwe0053"  d="M 4.064979141128542 -7.999983716307242 C 4.064979126419231 -8.043480275343823 4.064979140169773 -5.9854821611068045 4.064979142851022 -3.0652942932429976 " stroke="#191919" stroke-width="0.35 px" style="stroke-width:0.35;stroke-miterlimit:4;stroke-dasharray:none;fill:none;fill-opacity:1;fill-rule: evenodd"/>
<path id="Shape2DView_nwe0054"  d="M 4.269338405372999 3.034537986513001 C 4.269338405838567 5.9253971414105475 4.269338408226048 7.962681477819999 4.26933840567198 7.919614181821529 " stroke="#191919" stroke-width="0.35 px" style="stroke-width:0.35;stroke-miterlimit:4;stroke-dasharray:none;fill:none;fill-opacity:1;fill-rule: evenodd"/>
<path id="Shape2DView_nwe0055"  d="M 4.2693384056721335 -7.919614181819348 C 4.269338408226096 -7.962681477818354 4.269338405838549 -5.92539714141074 4.269338405373 -3.034537986512629 " stroke="#191919" stroke-width="0.35 px" style="stroke-width:0.35;stroke-miterlimit:4;stroke-dasharray:none;fill:none;fill-opacity:1;fill-rule: evenodd"/>
<path id="Shape2DView_nwe0056"  d="M 4.930661594627008 3.0345379865129987 C 4.930661594161309 5.925397141410282 4.930661591773902 7.962681477819937 4.930661594327905 7.919614181821259 " stroke="#191919" stroke-width="0.35 px" style="stroke-width:0.35;stroke-miterlimit:4;stroke-dasharray:none;fill:none;fill-opacity:1;fill-rule: evenodd"/>
<path id="Shape2DView_nwe0057"  d="M 4.930661594328084 -7.919614181820141 C 4.930661591774147 -7.962681477819008 4.930661594161448 -5.925397141409948 4.930661594627009 -3.0345379865118502 " stroke="#191919" stroke-width="0.35 px" style="stroke-width:0.35;stroke-miterlimit:4;stroke-dasharray:none;fill:none;fill-opacity:1;fill-rule: evenodd"/>
<path id="Shape2DView_nwe0058"  d="M 5.135020857148978 3.065294293244002 C 5.135020859830082 5.985482161107873 5.135020873580773 8.043480275345424 5.135020858871495 7.999983716309284 " stroke="#191919" stroke-width="0.35 px" style="stroke-width:0.35;stroke-miterlimit:4;stroke-dasharray:none;fill:none;fill-opacity:1;fill-rule: evenodd"/>
<path id="Shape2DView_nwe0059"  d="M 5.135020858871676 -7.999983716307727 C 5.135020873581012 -8.043480275344395 5.135020859830223 -5.985482161107243 5.135020857148983 -3.0652942932436282 " stroke="#191919" stroke-width="0.35 px" style="stroke-width:0.35;stroke-miterlimit:4;stroke-dasharray:none;fill:none;fill-opacity:1;fill-rule: evenodd"/>
<path id="Shape2DView_nwe0060"  d="M 31.8 3.065294293244 L 31.8 3.675272058529878 L 31.8 4.259262726608403 L 31.8 4.813137018879828 L 31.8 5.332978603479546 L 31.8 5.815111786859905 L 31.8 6.256127503867665 L 31.8 6.652907422546628 L 31.8 7.002645993225249 L 31.8 7.302870285984695 L 31.8 7.551457476240641 L 31.8 7.746649854801817 L 31.8 7.887067256272294 L 31.8 7.971716817918783 L 31.8 8.0 " stroke="#191919" stroke-width="0.35 px" style="stroke-width:0.35;stroke-miterlimit:4;stroke-dasharray:none;fill:none;fill-opacity:1;fill-rule: evenodd"/>
<path id="Shape2DView_nwe0061"  d="M 31.8 -8.0 L 31.8 -7.971716817918784 L 31.8 -7.887067256272294 L 31.8 -7.746649854801816 L 31.8 -7.55145747624064 L 31.8 -7.302870285984695 L 31.8 -7.002645993225246 L 31.8 -6.652907422546624 L 31.8 -6.2561275038676625 L 31.8 -5.8151117868599 L 31.8 -5.332978603479541 L 31.8 -4.813137018879821 L 31.8 -4.259262726608396 L 31.8 -3.675272058529868 L 31.8 -3.065294293244002 " stroke="#191919" stroke-width="0.35 px" style="stroke-width:0.35;stroke-miterlimit:4;stroke-dasharray:none;fill:none;fill-opacity:1;fill-rule: evenodd"/>
<path id="Shape2DView_nwe0062"  d="M 31.8 -3.0652942932445675 L 31.8 -2.645535286261089 L 31.8 -2.2174524465132457 L 31.8 -1.782392680990282 L 31.8 -1.3417248486711422 L 31.8 -0.8968354535876997 L 31.8 -0.44912428237010804 L 31.799999999999997 -1.9984014443252818e-13 L 31.8 0.4491242823697088 L 31.8 0.8968354535873009 L 31.8 1.3417248486707471 L 31.8 1.7823926809898896 L 31.8 2.21745244651286 L 31.8 2.6455352862607096 L 31.8 3.065294293244197 " stroke="#191919" stroke-width="0.35 px" style="stroke-width:0.35;stroke-miterlimit:4;stroke-dasharray:none;fill:none;fill-opacity:1;fill-rule: evenodd"/>
<path id="Shape2DView_nwe0063"  d="M 5.135020857149 -3.0652942952411393 L 5.135020857149 3.065294295241285 " stroke="#191919" stroke-width="0.35 px" style="stroke-width:0.35;stroke-miterlimit:4;stroke-dasharray:none;fill:none;fill-opacity:1;fill-rule: evenodd"/>
<path id="Shape2DView_nwe0064"  d="M 4.930661594627 -3.0345379845355405 L 4.930661594627 3.0345379845356533 " stroke="#191919" stroke-width="0.35 px" style="stroke-width:0.35;stroke-miterlimit:4;stroke-dasharray:none;fill:none;fill-opacity:1;fill-rule: evenodd"/>
<path id="Shape2DView_nwe0065"  d="M 0.9 0.45 L 0.8999999999999999 0.43871756048182065 L 0.8999999999999999 0.40543599055608864 L 0.8999999999999999 0.3518241671106135 L 0.8999999999999999 0.2805704108364302 L 0.8999999999999999 0.19524768260290123 L 0.8999999999999999 0.10013442028034157 L 0.9 8.266365894244634e-17 L 0.9 -0.1001344202803414 L 0.9 -0.1952476826029011 L 0.9 -0.28057041083643003 L 0.9 -0.3518241671106134 L 0.9 -0.4054359905560886 L 0.9 -0.4387175604818206 L 0.9 -0.45 " stroke="#191919" stroke-width="0.35 px" style="stroke-width:0.35;stroke-miterlimit:4;stroke-dasharray:none;fill:none;fill-opacity:1;fill-rule: evenodd"/>
<path id="Shape2DView_nwe0066"  d="M 34.1 -0.45 L 34.1 -0.43871756048182065 L 34.1 -0.40543599055608864 L 34.1 -0.3518241671106135 L 34.1 -0.2805704108364302 L 34.1 -0.19524768260290123 L 34.1 -0.10013442028034157 L 34.1 -8.266365894244634e-17 L 34.1 0.1001344202803414 L 34.1 0.1952476826029011 L 34.1 0.28057041083643003 L 34.1 0.3518241671106134 L 34.1 0.4054359905560886 L 34.1 0.4387175604818206 L 34.1 0.45 " stroke="#191919" stroke-width="0.35 px" style="stroke-width:0.35;stroke-miterlimit:4;stroke-dasharray:none;fill:none;fill-opacity:1;fill-rule: evenodd"/>
<path id="Shape2DView_nwe0067"  d="M 3.2 8.000000000000082 Q 3.0194556562952863 7.983885221205119 3.0000000000000018 7.800000000000082 " stroke="#191919" stroke-width="0.35 px" style="stroke-width:0.35;stroke-miterlimit:4;stroke-dasharray:none;fill:none;fill-opacity:1;fill-rule: evenodd"/>
<path id="Shape2DView_nwe0068"  d="M 3.2 -8.000000000000082 Q 3.0194556562952863 -7.983885221205119 3.0000000000000018 -7.800000000000082 " stroke="#191919" stroke-width="0.35 px" style="stroke-width:0.35;stroke-miterlimit:4;stroke-dasharray:none;fill:none;fill-opacity:1;fill-rule: evenodd"/>
<path id="Shape2DView_nwe0069"  d="M 3.2 -8.0 L 4.064979141116683 -8.0 " stroke="#191919" stroke-width="0.35 px" style="stroke-width:0.35;stroke-miterlimit:4;stroke-dasharray:none;fill:none;fill-opacity:1;fill-rule: evenodd"/>
<path id="Shape2DView_nwe0070"  d="M 3.2 8.0 L 4.064979141116533 8.0 " stroke="#191919" stroke-width="0.35 px" style="stroke-width:0.35;stroke-miterlimit:4;stroke-dasharray:none;fill:none;fill-opacity:1;fill-rule: evenodd"/>
<path id="Shape2DView_nwe0071"  d="M 4.2693384056719745 7.91961418183082 L 4.06497914112841 7.9999837163181 " stroke="#191919" stroke-width="0.35 px" style="stroke-width:0.35;stroke-miterlimit:4;stroke-dasharray:none;fill:none;fill-opacity:1;fill-rule: evenodd"/>
<path id="Shape2DView_nwe0072"  d="M 4.269338405672127 -7.919614181828758 L 4.0649791411285605 -7.999983716316651 " stroke="#191919" stroke-width="0.35 px" style="stroke-width:0.35;stroke-miterlimit:4;stroke-dasharray:none;fill:none;fill-opacity:1;fill-rule: evenodd"/>
<path id="Shape2DView_nwe0073"  d="M 4.269346154801374 7.919622686914839 Q 4.594546432869935 7.6613447865283835 4.930653845198433 7.919622686914656 " stroke="#191919" stroke-width="0.35 px" style="stroke-width:0.35;stroke-miterlimit:4;stroke-dasharray:none;fill:none;fill-opacity:1;fill-rule: evenodd"/>
<path id="Shape2DView_nwe0074"  d="M 4.269346154802541 -7.919622686913752 Q 4.594546432872226 -7.661344786529112 4.930653845197966 -7.919622686914221 " stroke="#191919" stroke-width="0.35 px" style="stroke-width:0.35;stroke-miterlimit:4;stroke-dasharray:none;fill:none;fill-opacity:1;fill-rule: evenodd"/>
<path id="Shape2DView_nwe0075"  d="M 5.135020858871474 7.999983716318573 L 4.930661594327919 7.919614181830559 " stroke="#191919" stroke-width="0.35 px" style="stroke-width:0.35;stroke-miterlimit:4;stroke-dasharray:none;fill:none;fill-opacity:1;fill-rule: evenodd"/>
<path id="Shape2DView_nwe0076"  d="M 5.13502085887165 -7.9999837163169225 L 4.93066159432809 -7.919614181829342 " stroke="#191919" stroke-width="0.35 px" style="stroke-width:0.35;stroke-miterlimit:4;stroke-dasharray:none;fill:none;fill-opacity:1;fill-rule: evenodd"/>
<path id="Shape2DView_nwe0077"  d="M 5.135020858883528 -8.0 L 31.800000000000004 -8.0 " stroke="#191919" stroke-width="0.35 px" style="stroke-width:0.35;stroke-miterlimit:4;stroke-dasharray:none;fill:none;fill-opacity:1;fill-rule: evenodd"/>
<path id="Shape2DView_nwe0078"  d="M 5.135020858883353 8.0 L 31.799999999999997 8.0 " stroke="#191919" stroke-width="0.35 px" style="stroke-width:0.35;stroke-miterlimit:4;stroke-dasharray:none;fill:none;fill-opacity:1;fill-rule: evenodd"/>
<path id="Shape2DView_nwe0079"  d="M 31.8 8.0 Q 31.98054434370472 7.983885221205041 32.0 7.800000000000001 " stroke="#191919" stroke-width="0.35 px" style="stroke-width:0.35;stroke-miterlimit:4;stroke-dasharray:none;fill:none;fill-opacity:1;fill-rule: evenodd"/>
<path id="Shape2DView_nwe0080"  d="M 31.8 -8.0 Q 31.98054434370472 -7.983885221205043 32.0 -7.800000000000001 " stroke="#191919" stroke-width="0.35 px" style="stroke-width:0.35;stroke-miterlimit:4;stroke-dasharray:none;fill:none;fill-opacity:1;fill-rule: evenodd"/>
<path id="Shape2DView_nwe0081"  d="M 2.666666666667 -2.0 L 2.9899999999999984 -2.0 " stroke="#191919" stroke-width="0.35 px" style="stroke-width:0.35;stroke-miterlimit:4;stroke-dasharray:none;fill:none;fill-opacity:1;fill-rule: evenodd"/>
<path id="Shape2DView_nwe0082"  d="M 2.666666666667 2.0 L 2.9899999999999984 2.0 " stroke="#191919" stroke-width="0.35 px" style="stroke-width:0.35;stroke-miterlimit:4;stroke-dasharray:none;fill:none;fill-opacity:1;fill-rule: evenodd"/>
<path id="Shape2DView_nwe0083"  d="M 32.433333333333 2.0 L 32.01 2.0 " stroke="#191919" stroke-width="0.35 px" style="stroke-width:0.35;stroke-miterlimit:4;stroke-dasharray:none;fill:none;fill-opacity:1;fill-rule: evenodd"/>
<path id="Shape2DView_nwe0084"  d="M 32.433333333333 -2.0 L 32.01 -2.0 " stroke="#191919" stroke-width="0.35 px" style="stroke-width:0.35;stroke-miterlimit:4;stroke-dasharray:none;fill:none;fill-opacity:1;fill-rule: evenodd"/>
<path id="Shape2DView_nwe0085"  d="M 2.666666666667 -0.45 L 0.9 -0.45 " stroke="#191919" stroke-width="0.35 px" style="stroke-width:0.35;stroke-miterlimit:4;stroke-dasharray:none;fill:none;fill-opacity:1;fill-rule: evenodd"/>
<path id="Shape2DView_nwe0086"  d="M 34.1 -0.45 L 32.433333333333 -0.45 " stroke="#191919" stroke-width="0.35 px" style="stroke-width:0.35;stroke-miterlimit:4;stroke-dasharray:none;fill:none;fill-opacity:1;fill-rule: evenodd"/>
<path id="Shape2DView_nwe0087"  d="M 34.1 -0.4499999999999996 Q 34.91998547654016 -0.4499999999999998 34.99999999999999 -0.45000000000000007 " stroke="#191919" stroke-width="0.35 px" style="stroke-width:0.35;stroke-miterlimit:4;stroke-dasharray:none;fill:none;fill-opacity:1;fill-rule: evenodd"/>
<title>b'Shape2DView'</title>
</g>
<g id="Rectangle" transform="translate(0.805653,8.358934) scale(1,-1)">
<rect fill="#ff0000" id="origin" width="1" height="1" x="0" y="0" />
<title>b'Rectangle'</title>
</g>
</svg>