<?xml version="1.0"?>
<!DOCTYPE svg PUBLIC "-//W3C//DTD SVG 1.1//EN" "http://www.w3.org/Graphics/SVG/1.1/DTD/svg11.dtd">
<svg width="26.411306746422014mm" height="7.017868759733766mm" viewBox="0 0 26.411306746422014 7.017868759733766" xmlns="http://www.w3.org/2000/svg" version="1.1">
<g id="Shape2DView" transform="translate(0.705653,3.508934) scale(1,-1)">
<path id="Shape2DView_nwe0000"  d="M 3.7 1.24754798951 L 4.564979142851 1.24754798951 " stroke="#191919" stroke-width="0.35 px" style="stroke-width:0.35;stroke-miterlimit:4;stroke-dasharray:none;fill:none;fill-opacity:1;fill-rule: evenodd"/>
<path id="Shape2DView_nwe0001"  d="M 3.7 -1.24754798951 L 4.564979142851 -1.24754798951 " stroke="#191919" stroke-width="0.35 px" style="stroke-width:0.35;stroke-miterlimit:4;stroke-dasharray:none;fill:none;fill-opacity:1;fill-rule: evenodd"/>
<path id="Shape2DView_nwe0002"  d="M 4.564979142851 -1.24754798951 L 4.769338405373 -1.216791682779 " stroke="#191919" stroke-width="0.35 px" style="stroke-width:0.35;stroke-miterlimit:4;stroke-dasharray:none;fill:none;fill-opacity:1;fill-rule: evenodd"/>
<path id="Shape2DView_nwe0003"  d="M 4.769338405372611 -1.2167916827790224 A 0.485412 0.185759 -180 0 0 5.43066 -1.21679" stroke="#191919" stroke-width="0.35 px" style="stroke-width:0.35;stroke-miterlimit:4;stroke-dasharray:none;fill:none;fill-opacity:1;fill-rule: evenodd"/>
<path id="Shape2DView_nwe0004"  d="M 5.430661594627 -1.216791682779 L 5.635020857149 -1.24754798951 " stroke="#191919" stroke-width="0.35 px" style="stroke-width:0.35;stroke-miterlimit:4;stroke-dasharray:none;fill:none;fill-opacity:1;fill-rule: evenodd"/>
<path id="Shape2DView_nwe0005"  d="M 5.635020857149 -1.24754798951 L 21.3 -1.24754798951 " stroke="#191919" stroke-width="0.35 px" style="stroke-width:0.35;stroke-miterlimit:4;stroke-dasharray:none;fill:none;fill-opacity:1;fill-rule: evenodd"/>
<path id="Shape2DView_nwe0006"  d="M 21.300000000000004 -1.247547989510674 A 0.21 0.0803635 5.26972e-15 0 1 21.51 -1.16718" stroke="#191919" stroke-width="0.35 px" style="stroke-width:0.35;stroke-miterlimit:4;stroke-dasharray:none;fill:none;fill-opacity:1;fill-rule: evenodd"/>
<path id="Shape2DView_nwe0007"  d="M 3.49 -1.167184468714 A 0.21 0.0803635 5.26972e-15 0 1 3.7 -1.24755" stroke="#191919" stroke-width="0.35 px" style="stroke-width:0.35;stroke-miterlimit:4;stroke-dasharray:none;fill:none;fill-opacity:1;fill-rule: evenodd"/>
<path id="Shape2DView_nwe0008"  d="M 4.564979142851 1.24754798951 L 4.769338405373 1.216791682779 " stroke="#191919" stroke-width="0.35 px" style="stroke-width:0.35;stroke-miterlimit:4;stroke-dasharray:none;fill:none;fill-opacity:1;fill-rule: evenodd"/>
<path id="Shape2DView_nwe0009"  d="M 3.4899999999999998 -1.1671844687135993 L 3.4899999999999998 -1.0073511389632905 L 3.4899999999999998 -0.8443483098457751 L 3.4899999999999998 -0.6786888485666958 L 3.4899999999999993 -0.5108939810793337 L 3.4899999999999993 -0.3414916521149274 L 3.4899999999999993 -0.17101486407322375 L 3.4899999999999993 2.604583215770617e-13 L 3.4899999999999993 0.1710148640737439 L 3.4899999999999993 0.3414916521154452 L 3.4899999999999993 0.5108939810798474 L 3.4899999999999998 0.6786888485672034 L 3.4899999999999998 0.8443483098462756 L 3.4899999999999998 1.0073511389637821 L 3.4899999999999998 1.1671844687140802 " stroke="#191919" stroke-width="0.35 px" style="stroke-width:0.35;stroke-miterlimit:4;stroke-dasharray:none;fill:none;fill-opacity:1;fill-rule: evenodd"/>
<path id="Shape2DView_nwe0010"  d="M 3.49 1.167184468714 A 0.21 0.0803635 -5.26972e-15 0 0 3.7 1.24755" stroke="#191919" stroke-width="0.35 px" style="stroke-width:0.35;stroke-miterlimit:4;stroke-dasharray:none;fill:none;fill-opacity:1;fill-rule: evenodd"/>
<path id="Shape2DView_nwe0011"  d="M 4.769338405372611 1.2167916827790224 A 0.485412 0.185759 180 0 1 5.43066 1.21679" stroke="#191919" stroke-width="0.35 px" style="stroke-width:0.35;stroke-miterlimit:4;stroke-dasharray:none;fill:none;fill-opacity:1;fill-rule: evenodd"/>
<path id="Shape2DView_nwe0012"  d="M 5.430661594627 1.216791682779 L 5.635020857149 1.24754798951 " stroke="#191919" stroke-width="0.35 px" style="stroke-width:0.35;stroke-miterlimit:4;stroke-dasharray:none;fill:none;fill-opacity:1;fill-rule: evenodd"/>
<path id="Shape2DView_nwe0013"  d="M 5.635020857149 1.24754798951 L 21.3 1.24754798951 " stroke="#191919" stroke-width="0.35 px" style="stroke-width:0.35;stroke-miterlimit:4;stroke-dasharray:none;fill:none;fill-opacity:1;fill-rule: evenodd"/>
<path id="Shape2DView_nwe0014"  d="M 21.300000000000004 1.247547989510674 A 0.21 0.0803635 -5.26972e-15 0 0 21.51 1.16718" stroke="#191919" stroke-width="0.35 px" style="stroke-width:0.35;stroke-miterlimit:4;stroke-dasharray:none;fill:none;fill-opacity:1;fill-rule: evenodd"/>
<path id="Shape2DView_nwe0015"  d="M 3.499999999999999 1.1916881643244095 L 3.4999999999999996 1.4217692316463126 L 3.4999999999999996 1.6419365956401795 L 3.4999999999999996 1.8506550747304296 L 3.4999999999999996 2.046469318052293 L 3.4999999999999996 2.228013953312934 L 3.4999999999999996 2.3940231072505664 L 3.4999999999999996 2.5433392323073707 L 3.4999999999999996 2.6749211779696367 L 3.4999999999999996 2.787851450495352 L 3.4999999999999996 2.881342610408648 L 3.5 2.954742763152698 L 3.5 3.007540104615876 L 3.5 3.039366489836172 L 3.5 3.05 " stroke="#191919" stroke-width="0.35 px" style="stroke-width:0.35;stroke-miterlimit:4;stroke-dasharray:none;fill:none;fill-opacity:1;fill-rule: evenodd"/>
<path id="Shape2DView_nwe0016"  d="M 3.5 3.05 L 3.5 3.04586703179161 L 3.5 3.0334793281015964 L 3.5 3.0128704613794848 L 3.5 2.984096284602962 L 3.5 2.9472347799083183 L 3.5 2.9023858472476953 L 3.5000000000000004 2.849671033645926 L 3.5000000000000004 2.7892332037906997 L 3.5000000000000004 2.7212361528488227 L 3.5000000000000004 2.645864162557875 L 3.5000000000000004 2.5633215017963327 L 3.5000000000000004 2.473831872985683 L 3.5000000000000004 2.3776378058248477 L 3.5000000000000004 2.275 " stroke="#191919" stroke-width="0.35 px" style="stroke-width:0.35;stroke-miterlimit:4;stroke-dasharray:none;fill:none;fill-opacity:1;fill-rule: evenodd"/>
<path id="Shape2DView_nwe0017"  d="M 3.5000000000000004 -2.2749999999999995 L 3.5000000000000004 -2.377637805824802 L 3.5000000000000004 -2.4738318729855995 L 3.5000000000000004 -2.563321501796218 L 3.5000000000000004 -2.645864162557735 L 3.5000000000000004 -2.7212361528486646 L 3.5000000000000004 -2.7892332037905305 L 3.5000000000000004 -2.849671033645752 L 3.5000000000000004 -2.9023858472475244 L 3.5 -2.9472347799081575 L 3.5 -2.984096284602819 L 3.5 -3.0128704613793666 L 3.5 -3.0334793281015107 L 3.5 -3.0458670317915635 L 3.5 -3.0500000000000003 " stroke="#191919" stroke-width="0.35 px" style="stroke-width:0.35;stroke-miterlimit:4;stroke-dasharray:none;fill:none;fill-opacity:1;fill-rule: evenodd"/>
<path id="Shape2DView_nwe0018"  d="M 3.5 -3.0500000000000003 L 3.5 -3.0393664898362465 L 3.5 -3.0075401046160133 L 3.5 -2.9547427631528858 L 3.5 -2.881342610408874 L 3.4999999999999996 -2.787851450495604 L 3.4999999999999996 -2.674921177969902 L 3.4999999999999996 -2.5433392323076367 L 3.4999999999999996 -2.3940231072508227 L 3.4999999999999996 -2.228013953313169 L 3.4999999999999996 -2.0464693180524973 L 3.4999999999999996 -1.8506550747305934 L 3.4999999999999996 -1.6419365956402945 L 3.4999999999999996 -1.4217692316463726 L 3.4999999999999996 -1.1916881643244106 " stroke="#191919" stroke-width="0.35 px" style="stroke-width:0.35;stroke-miterlimit:4;stroke-dasharray:none;fill:none;fill-opacity:1;fill-rule: evenodd"/>
<path id="Shape2DView_nwe0019"  d="M 21.5 1.1916881643244115 L 21.5 1.4217692316463655 L 21.5 1.6419365956402785 L 21.5 1.8506550747305688 L 21.5 2.0464693180524653 L 21.5 2.2280139533131322 L 21.5 2.394023107250782 L 21.5 2.543339232307594 L 21.5 2.674921177969859 L 21.5 2.7878514504955634 L 21.5 2.8813426104088373 L 21.5 2.9547427631528547 L 21.5 3.007540104615991 L 21.5 3.0393664898362345 L 21.5 3.05 " stroke="#191919" stroke-width="0.35 px" style="stroke-width:0.35;stroke-miterlimit:4;stroke-dasharray:none;fill:none;fill-opacity:1;fill-rule: evenodd"/>
<path id="Shape2DView_nwe0020"  d="M 21.5 -3.05 L 21.5 -3.0393664898362287 L 21.5 -3.0075401046159804 L 21.5 -2.9547427631528405 L 21.5 -2.881342610408819 L 21.5 -2.787851450495542 L 21.5 -2.6749211779698365 L 21.5 -2.543339232307571 L 21.5 -2.394023107250759 L 21.5 -2.22801395331311 L 21.5 -2.046469318052445 L 21.5 -1.8506550747305501 L 21.5 -1.6419365956402625 L 21.5 -1.4217692316463535 L 21.5 -1.1916881643244104 " stroke="#191919" stroke-width="0.35 px" style="stroke-width:0.35;stroke-miterlimit:4;stroke-dasharray:none;fill:none;fill-opacity:1;fill-rule: evenodd"/>
<path id="Shape2DView_nwe0021"  d="M 21.5 1.1916881643244115 L 21.5 1.3295224907257297 L 21.5 1.4603099655891658 L 21.5 1.583357377686774 L 21.5 1.6980125403491144 L 21.5 1.8036677482421517 L 21.5 1.899762998380288 L 21.5 1.9857889583032278 L 21.5 2.06128966568449 L 21.5 2.12586494506286 L 21.5 2.1791725288874164 L 21.5 2.2209298716339756 L 21.5 2.2509156473776257 L 21.5 2.268970922883775 L 21.5 2.275 " stroke="#191919" stroke-width="0.35 px" style="stroke-width:0.35;stroke-miterlimit:4;stroke-dasharray:none;fill:none;fill-opacity:1;fill-rule: evenodd"/>
<path id="Shape2DView_nwe0022"  d="M 21.51 -1.1671844687135993 L 21.51 -1.0073511389632905 L 21.51 -0.8443483098457751 L 21.51 -0.6786888485666958 L 21.51 -0.5108939810793337 L 21.51 -0.3414916521149274 L 21.51 -0.17101486407322375 L 21.51 2.604583215770617e-13 L 21.51 0.1710148640737439 L 21.51 0.3414916521154452 L 21.51 0.5108939810798474 L 21.51 0.6786888485672034 L 21.51 0.8443483098462756 L 21.51 1.0073511389637821 L 21.51 1.1671844687140802 " stroke="#191919" stroke-width="0.35 px" style="stroke-width:0.35;stroke-miterlimit:4;stroke-dasharray:none;fill:none;fill-opacity:1;fill-rule: evenodd"/>
<path id="Shape2DView_nwe0023"  d="M 16.715 0.325 Q 16.44186188515606 0.31130314783631147 16.4 0.00999999999999901 " stroke="#191919" stroke-width="0.35 px" style="stroke-width:0.35;stroke-miterlimit:4;stroke-dasharray:none;fill:none;fill-opacity:1;fill-rule: evenodd"/>
<path id="Shape2DView_nwe0024"  d="M 18.685 0.325 Q 18.958138114844623 0.31130314783653096 19.000000000000004 0.00999999999999901 " stroke="#191919" stroke-width="0.35 px" style="stroke-width:0.35;stroke-miterlimit:4;stroke-dasharray:none;fill:none;fill-opacity:1;fill-rule: evenodd"/>
<path id="Shape2DView_nwe0025"  d="M 18.685 -0.325 Q 18.95813811484429 -0.3113031478363939 19.000000000000004 -0.010000000000000009 " stroke="#191919" stroke-width="0.35 px" style="stroke-width:0.35;stroke-miterlimit:4;stroke-dasharray:none;fill:none;fill-opacity:1;fill-rule: evenodd"/>
<path id="Shape2DView_nwe0026"  d="M 16.715 -0.325 Q 16.44186188515535 -0.3113031478362006 16.4 -0.010000000000000009 " stroke="#191919" stroke-width="0.35 px" style="stroke-width:0.35;stroke-miterlimit:4;stroke-dasharray:none;fill:none;fill-opacity:1;fill-rule: evenodd"/>
<path id="Shape2DView_nwe0027"  d="M 11.515 0.325 Q 11.241861885155954 0.31130314783698426 11.2 0.00999999999999901 " stroke="#191919" stroke-width="0.35 px" style="stroke-width:0.35;stroke-miterlimit:4;stroke-dasharray:none;fill:none;fill-opacity:1;fill-rule: evenodd"/>
<path id="Shape2DView_nwe0028"  d="M 13.485 0.325 Q 13.758138114844622 0.31130314783653096 13.8 0.00999999999999901 " stroke="#191919" stroke-width="0.35 px" style="stroke-width:0.35;stroke-miterlimit:4;stroke-dasharray:none;fill:none;fill-opacity:1;fill-rule: evenodd"/>
<path id="Shape2DView_nwe0029"  d="M 13.485 -0.325 Q 13.758138114844316 -0.31130314783631274 13.8 -0.010000000000000009 " stroke="#191919" stroke-width="0.35 px" style="stroke-width:0.35;stroke-miterlimit:4;stroke-dasharray:none;fill:none;fill-opacity:1;fill-rule: evenodd"/>
<path id="Shape2DView_nwe0030"  d="M 11.515 -0.325 Q 11.241861885155332 -0.3113031478363757 11.2 -0.010000000000000009 " stroke="#191919" stroke-width="0.35 px" style="stroke-width:0.35;stroke-miterlimit:4;stroke-dasharray:none;fill:none;fill-opacity:1;fill-rule: evenodd"/>
<path id="Shape2DView_nwe0031"  d="M 6.315 0.325 Q 6.041861885155333 0.31130314783705154 6.000000000000001 0.00999999999999901 " stroke="#191919" stroke-width="0.35 px" style="stroke-width:0.35;stroke-miterlimit:4;stroke-dasharray:none;fill:none;fill-opacity:1;fill-rule: evenodd"/>
<path id="Shape2DView_nwe0032"  d="M 8.285 0.325 Q 8.55813811484432 0.3113031478361837 8.599999999999998 0.00999999999999901 " stroke="#191919" stroke-width="0.35 px" style="stroke-width:0.35;stroke-miterlimit:4;stroke-dasharray:none;fill:none;fill-opacity:1;fill-rule: evenodd"/>
<path id="Shape2DView_nwe0033"  d="M 8.285 -0.325 Q 8.55813811484467 -0.3113031478368291 8.6 -0.010000000000000009 " stroke="#191919" stroke-width="0.35 px" style="stroke-width:0.35;stroke-miterlimit:4;stroke-dasharray:none;fill:none;fill-opacity:1;fill-rule: evenodd"/>
<path id="Shape2DView_nwe0034"  d="M 6.315 -0.325 Q 6.041861885155333 -0.3113031478364515 6.000000000000001 -0.010000000000000009 " stroke="#191919" stroke-width="0.35 px" style="stroke-width:0.35;stroke-miterlimit:4;stroke-dasharray:none;fill:none;fill-opacity:1;fill-rule: evenodd"/>
<path id="Shape2DView_nwe0035"  d="M 3.483333333333 0.8125 L 3.483333333333 0.7921289286477317 L 3.483333333333 0.7320372051707156 L 3.483333333333 0.6352380795052743 L 3.483333333333 0.5065854640102211 L 3.483333333333 0.35253053803301604 L 3.483333333333 0.18079825883950554 L 3.483333333333 9.950255243072244e-17 L 3.483333333333 -0.18079825883950534 L 3.483333333333 -0.35253053803301587 L 3.483333333333 -0.5065854640102209 L 3.483333333333 -0.6352380795052741 L 3.483333333333 -0.7320372051707155 L 3.483333333333 -0.7921289286477317 L 3.483333333333 -0.8125 " stroke="#191919" stroke-width="0.35 px" style="stroke-width:0.35;stroke-miterlimit:4;stroke-dasharray:none;fill:none;fill-opacity:1;fill-rule: evenodd"/>
<path id="Shape2DView_nwe0037"  d="M 16.4 0.010000000000001119 L 16.4 0.008571432137712387 L 16.4 0.007142862629447189 L 16.4 0.005714291749535194 L 16.4 0.004285719772305185 L 16.4 0.0028571469720868325 L 16.4 0.0014285736232091395 L 16.4 1.7763568394002505e-15 L 16.4 -0.0014285736232055868 L 16.4 -0.002857146972083502 L 16.4 -0.004285719772302077 L 16.4 -0.0057142917495318635 L 16.4 -0.00714286262944408 L 16.4 -0.008571432137708834 L 16.4 -0.009999999999997788 " stroke="#191919" stroke-width="0.35 px" style="stroke-width:0.35;stroke-miterlimit:4;stroke-dasharray:none;fill:none;fill-opacity:1;fill-rule: evenodd"/>
<path id="Shape2DView_nwe0039"  d="M 16.715 0.325 L 18.685 0.325 " stroke="#191919" stroke-width="0.35 px" style="stroke-width:0.35;stroke-miterlimit:4;stroke-dasharray:none;fill:none;fill-opacity:1;fill-rule: evenodd"/>
<path id="Shape2DView_nwe0041"  d="M 19.0 0.010000000000001119 L 19.0 0.008571432137712387 L 19.0 0.007142862629447189 L 19.0 0.005714291749535194 L 19.0 0.004285719772305185 L 19.0 0.0028571469720868325 L 19.0 0.0014285736232091395 L 19.0 1.7763568394002505e-15 L 19.0 -0.0014285736232055868 L 19.0 -0.002857146972083502 L 19.0 -0.004285719772302077 L 19.0 -0.0057142917495318635 L 19.0 -0.00714286262944408 L 19.0 -0.008571432137708834 L 19.0 -0.009999999999997788 " stroke="#191919" stroke-width="0.35 px" style="stroke-width:0.35;stroke-miterlimit:4;stroke-dasharray:none;fill:none;fill-opacity:1;fill-rule: evenodd"/>
<path id="Shape2DView_nwe0043"  d="M 16.715 -0.325 L 18.685 -0.325 " stroke="#191919" stroke-width="0.35 px" style="stroke-width:0.35;stroke-miterlimit:4;stroke-dasharray:none;fill:none;fill-opacity:1;fill-rule: evenodd"/>
<path id="Shape2DView_nwe0045"  d="M 11.2 0.010000000000001119 L 11.2 0.008571432137712387 L 11.2 0.007142862629447189 L 11.2 0.005714291749535194 L 11.2 0.004285719772305185 L 11.2 0.0028571469720868325 L 11.2 0.0014285736232091395 L 11.2 1.7763568394002505e-15 L 11.2 -0.0014285736232055868 L 11.2 -0.002857146972083502 L 11.2 -0.004285719772302077 L 11.2 -0.0057142917495318635 L 11.2 -0.00714286262944408 L 11.2 -0.008571432137708834 L 11.2 -0.009999999999997788 " stroke="#191919" stroke-width="0.35 px" style="stroke-width:0.35;stroke-miterlimit:4;stroke-dasharray:none;fill:none;fill-opacity:1;fill-rule: evenodd"/>
<path id="Shape2DView_nwe0047"  d="M 11.515 0.325 L 13.485 0.325 " stroke="#191919" stroke-width="0.35 px" style="stroke-width:0.35;stroke-miterlimit:4;stroke-dasharray:none;fill:none;fill-opacity:1;fill-rule: evenodd"/>
<path id="Shape2DView_nwe0049"  d="M 13.8 0.010000000000001119 L 13.8 0.008571432137712387 L 13.8 0.007142862629447189 L 13.8 0.005714291749535194 L 13.8 0.004285719772305185 L 13.8 0.0028571469720868325 L 13.8 0.0014285736232091395 L 13.8 1.7763568394002505e-15 L 13.8 -0.0014285736232055868 L 13.8 -0.002857146972083502 L 13.8 -0.004285719772302077 L 13.8 -0.0057142917495318635 L 13.8 -0.00714286262944408 L 13.8 -0.008571432137708834 L 13.8 -0.009999999999997788 " stroke="#191919" stroke-width="0.35 px" style="stroke-width:0.35;stroke-miterlimit:4;stroke-dasharray:none;fill:none;fill-opacity:1;fill-rule: evenodd"/>
<path id="Shape2DView_nwe0051"  d="M 11.515 -0.325 L 13.485 -0.325 " stroke="#191919" stroke-width="0.35 px" style="stroke-width:0.35;stroke-miterlimit:4;stroke-dasharray:none;fill:none;fill-opacity:1;fill-rule: evenodd"/>
<path id="Shape2DView_nwe0053"  d="M 5.999999999999999 0.010000000000001119 L 5.999999999999999 0.008571432137712387 L 5.999999999999999 0.007142862629447189 L 5.999999999999999 0.005714291749535194 L 5.999999999999999 0.004285719772305185 L 5.999999999999999 0.0028571469720868325 L 5.999999999999999 0.0014285736232091395 L 5.999999999999999 1.7763568394002505e-15 L 5.999999999999999 -0.0014285736232055868 L 5.999999999999999 -0.002857146972083502 L 5.999999999999999 -0.004285719772302077 L 5.999999999999999 -0.0057142917495318635 L 5.999999999999999 -0.00714286262944408 L 5.999999999999999 -0.008571432137708834 L 5.999999999999999 -0.009999999999997788 " stroke="#191919" stroke-width="0.35 px" style="stroke-width:0.35;stroke-miterlimit:4;stroke-dasharray:none;fill:none;fill-opacity:1;fill-rule: evenodd"/>
<path id="Shape2DView_nwe0055"  d="M 6.315 0.325 L 8.285 0.325 " stroke="#191919" stroke-width="0.35 px" style="stroke-width:0.35;stroke-miterlimit:4;stroke-dasharray:none;fill:none;fill-opacity:1;fill-rule: evenodd"/>
<path id="Shape2DView_nwe0057"  d="M 8.6 0.010000000000001119 L 8.6 0.008571432137712387 L 8.6 0.007142862629447189 L 8.6 0.005714291749535194 L 8.6 0.004285719772305185 L 8.6 0.0028571469720868325 L 8.6 0.0014285736232091395 L 8.6 1.7763568394002505e-15 L 8.6 -0.0014285736232055868 L 8.6 -0.002857146972083502 L 8.6 -0.004285719772302077 L 8.6 -0.0057142917495318635 L 8.6 -0.00714286262944408 L 8.6 -0.008571432137708834 L 8.6 -0.009999999999997788 " stroke="#191919" stroke-width="0.35 px" style="stroke-width:0.35;stroke-miterlimit:4;stroke-dasharray:none;fill:none;fill-opacity:1;fill-rule: evenodd"/>
<path id="Shape2DView_nwe0059"  d="M 6.315 -0.325 L 8.285 -0.325 " stroke="#191919" stroke-width="0.35 px" style="stroke-width:0.35;stroke-miterlimit:4;stroke-dasharray:none;fill:none;fill-opacity:1;fill-rule: evenodd"/>
<path id="Shape2DView_nwe0060"  d="M 21.616666666667 0.8125 L 21.616666666667 0.7921289286477317 L 21.616666666667 0.7320372051707156 L 21.616666666667 0.6352380795052743 L 21.616666666667 0.5065854640102211 L 21.616666666667 0.35253053803301604 L 21.616666666667 0.18079825883950554 L 21.616666666667 9.950255243072244e-17 L 21.616666666667 -0.18079825883950534 L 21.616666666667 -0.35253053803301587 L 21.616666666667 -0.5065854640102209 L 21.616666666667 -0.6352380795052741 L 21.616666666667 -0.7320372051707155 L 21.616666666667 -0.7921289286477317 L 21.616666666667 -0.8125 " stroke="#191919" stroke-width="0.35 px" style="stroke-width:0.35;stroke-miterlimit:4;stroke-dasharray:none;fill:none;fill-opacity:1;fill-rule: evenodd"/>
<path id="Shape2DView_nwe0061"  d="M 0.9 0.45 L 3.483333333333 0.45 " stroke="#191919" stroke-width="0.35 px" style="stroke-width:0.35;stroke-miterlimit:4;stroke-dasharray:none;fill:none;fill-opacity:1;fill-rule: evenodd"/>
<path id="Shape2DView_nwe0062"  d="M 0.0 -0.4500000000000001 L 0.00565901109608169 -0.4500000000000001 L 0.02256487903635873 -0.4500000000000001 L 0.05050500272246916 -0.4500000000000001 L 0.08912801888782274 -0.4500000000000001 L 0.13794822069454427 -0.4500000000000001 L 0.19635166577877317 -0.45000000000000007 L 0.2636038969321072 -0.45000000000000007 L 0.33885917832713974 -0.45000000000000007 L 0.4211711311361971 -0.45000000000000007 L 0.5095046347941976 -0.45000000000000007 L 0.6027488442403496 -0.45000000000000007 L 0.699731159439317 -0.45 L 0.7992319715070229 -0.45 L 0.9 -0.45 " stroke="#191919" stroke-width="0.35 px" style="stroke-width:0.35;stroke-miterlimit:4;stroke-dasharray:none;fill:none;fill-opacity:1;fill-rule: evenodd"/>
<circle cx="3.885780586188e-16" cy="0.0" r="0.45" stroke="#191919" stroke-width="0.35 px" style="stroke-width:0.35;stroke-miterlimit:4;stroke-dasharray:none;fill:none"/>
<path id="Shape2DView_nwe0064"  d="M 21.616666666667 0.45 L 24.1 0.45 " stroke="#191919" stroke-width="0.35 px" style="stroke-width:0.35;stroke-miterlimit:4;stroke-dasharray:none;fill:none;fill-opacity:1;fill-rule: evenodd"/>
<path id="Shape2DView_nwe0065"  d="M 25.0 0.45 L 24.994340988903918 0.45 L 24.977435120963644 0.45 L 24.949494997277533 0.45 L 24.91087198111218 0.45 L 24.862051779305457 0.45 L 24.80364833422123 0.45 L 24.736396103067893 0.45 L 24.661140821672863 0.45 L 24.578828868863805 0.45 L 24.490495365205803 0.45 L 24.39725115575965 0.45 L 24.300268840560683 0.45 L 24.200768028492977 0.45 L 24.1 0.45 " stroke="#191919" stroke-width="0.35 px" style="stroke-width:0.35;stroke-miterlimit:4;stroke-dasharray:none;fill:none;fill-opacity:1;fill-rule: evenodd"/>
<path id="Shape2DView_nwe0066"  d="M 25.0 -0.45 A 0.45 0.45 0 0 1 25 0.45" stroke="#191919" stroke-width="0.35 px" style="stroke-width:0.35;stroke-miterlimit:4;stroke-dasharray:none;fill:none;fill-opacity:1;fill-rule: evenodd"/>
<path id="Shape2DView_nwe0067"  d="M 4.564979142851 -1.2475479915372965 L 4.564979142851 1.2475479915371246 " stroke="#191919" stroke-width="0.35 px" style="stroke-width:0.35;stroke-miterlimit:4;stroke-dasharray:none;fill:none;fill-opacity:1;fill-rule: evenodd"/>
<path id="Shape2DView_nwe0068"  d="M 3.6999999999999993 -1.2475479895102732 L 3.6999999999999993 -1.0767097419739384 L 3.6999999999999993 -0.9024837672451163 L 3.6999999999999993 -0.7254182446977053 L 3.6999999999999993 -0.5460702879735746 L 3.6999999999999993 -0.3650041920969308 L 3.6999999999999993 -0.18278965799340496 L 3.6999999999999993 -1.7208456881689926e-13 L 3.6999999999999993 0.18278965799306124 L 3.6999999999999993 0.3650041920965885 L 3.6999999999999993 0.5460702879732355 L 3.6999999999999993 0.7254182446973703 L 3.6999999999999993 0.902483767244786 L 3.6999999999999993 1.0767097419736142 L 3.6999999999999993 1.2475479895099557 " stroke="#191919" stroke-width="0.35 px" style="stroke-width:0.35;stroke-miterlimit:4;stroke-dasharray:none;fill:none;fill-opacity:1;fill-rule: evenodd"/>
<path id="Shape2DView_nwe0069"  d="M 4.769338405373 -1.216791680801585 L 4.769338405373 1.2167916808013777 " stroke="#191919" stroke-width="0.35 px" style="stroke-width:0.35;stroke-miterlimit:4;stroke-dasharray:none;fill:none;fill-opacity:1;fill-rule: evenodd"/>
<path id="Shape2DView_nwe0070"  d="M 3.6999999999999993 1.247547989510674 L 3.6999999999999993 1.4951081176673129 L 3.6999999999999997 1.7321102217768534 L 3.6999999999999997 1.9568806610605232 L 3.6999999999999997 2.167832171242923 L 3.6999999999999997 2.3634750733563843 L 3.6999999999999997 2.5424277934259236 L 3.6999999999999997 2.703426618747782 L 3.6999999999999997 2.845334621865532 L 3.6999999999999997 2.9671496892251863 L 3.6999999999999997 3.068011597813248 L 3.7 3.1472080898045305 L 3.7 3.2041799023223163 L 3.7 3.238524716792142 L 3.7 3.2500000000000004 " stroke="#191919" stroke-width="0.35 px" style="stroke-width:0.35;stroke-miterlimit:4;stroke-dasharray:none;fill:none;fill-opacity:1;fill-rule: evenodd"/>
<path id="Shape2DView_nwe0071"  d="M 3.7 -3.25 L 3.7 -3.2385247167922233 L 3.7 -3.204179902322466 L 3.7 -3.1472080898047348 L 3.6999999999999997 -3.068011597813494 L 3.6999999999999997 -2.9671496892254603 L 3.6999999999999997 -2.8453346218658218 L 3.6999999999999997 -2.703426618748073 L 3.6999999999999997 -2.5424277934262047 L 3.6999999999999997 -2.3634750733566436 L 3.6999999999999997 -2.167832171243149 L 3.6999999999999997 -1.9568806610607068 L 3.6999999999999997 -1.7321102217769853 L 3.6999999999999993 -1.4951081176673855 L 3.6999999999999993 -1.2475479895106738 " stroke="#191919" stroke-width="0.35 px" style="stroke-width:0.35;stroke-miterlimit:4;stroke-dasharray:none;fill:none;fill-opacity:1;fill-rule: evenodd"/>
<path id="Shape2DView_nwe0072"  d="M 4.56497914285113 1.2475479895100001 Q 4.564979128726872 3.1508855254026016 4.564979141102429 3.249993384750735 " stroke="#191919" stroke-width="0.35 px" style="stroke-width:0.35;stroke-miterlimit:4;stroke-dasharray:none;fill:none;fill-opacity:1;fill-rule: evenodd"/>
<path id="Shape2DView_nwe0073"  d="M 4.564979141102432 -3.249993384750653 Q 4.564979128726872 -3.1508855254026273 4.5649791428511275 -1.2475479895103612 " stroke="#191919" stroke-width="0.35 px" style="stroke-width:0.35;stroke-miterlimit:4;stroke-dasharray:none;fill:none;fill-opacity:1;fill-rule: evenodd"/>
<path id="Shape2DView_nwe0074"  d="M 4.769338405372975 1.2167916827790066 Q 4.769338407993773 3.0730041262203813 4.769338405697348 3.1696238502021883 " stroke="#191919" stroke-width="0.35 px" style="stroke-width:0.35;stroke-miterlimit:4;stroke-dasharray:none;fill:none;fill-opacity:1;fill-rule: evenodd"/>
<path id="Shape2DView_nwe0075"  d="M 4.769338405697349 -3.1696238502022305 Q 4.769338407993771 -3.073004126220199 4.7693384053729755 -1.2167916827789598 " stroke="#191919" stroke-width="0.35 px" style="stroke-width:0.35;stroke-miterlimit:4;stroke-dasharray:none;fill:none;fill-opacity:1;fill-rule: evenodd"/>
<path id="Shape2DView_nwe0076"  d="M 5.430661594627026 1.2167916827790066 Q 5.430661592006365 3.0730041262203556 5.4306615943029115 3.1696238502023357 " stroke="#191919" stroke-width="0.35 px" style="stroke-width:0.35;stroke-miterlimit:4;stroke-dasharray:none;fill:none;fill-opacity:1;fill-rule: evenodd"/>
<path id="Shape2DView_nwe0077"  d="M 5.430661594302849 -3.16962385020224 Q 5.430661592006385 -3.073004126220472 5.430661594627024 -1.216791682778858 " stroke="#191919" stroke-width="0.35 px" style="stroke-width:0.35;stroke-miterlimit:4;stroke-dasharray:none;fill:none;fill-opacity:1;fill-rule: evenodd"/>
<path id="Shape2DView_nwe0078"  d="M 5.6350208571488665 1.2475479895100001 Q 5.635020871272929 3.1508855254027712 5.635020858897581 3.249993384750761 " stroke="#191919" stroke-width="0.35 px" style="stroke-width:0.35;stroke-miterlimit:4;stroke-dasharray:none;fill:none;fill-opacity:1;fill-rule: evenodd"/>
<path id="Shape2DView_nwe0079"  d="M 5.635020858897518 -3.2499933847503786 Q 5.635020871272943 -3.1508855254017862 5.635020857148869 -1.2475479895099169 " stroke="#191919" stroke-width="0.35 px" style="stroke-width:0.35;stroke-miterlimit:4;stroke-dasharray:none;fill:none;fill-opacity:1;fill-rule: evenodd"/>
<path id="Shape2DView_nwe0080"  d="M 21.3 1.24754798951 L 21.3 1.4951081176667442 L 21.3 1.732110221776387 L 21.3 1.9568806610601548 L 21.3 2.167832171242645 L 21.3 2.3634750733561907 L 21.3 2.5424277934258024 L 21.3 2.7034266187477236 L 21.3 2.8453346218655247 L 21.3 2.9671496892252165 L 21.3 3.0680115978133022 L 21.3 3.147208089804594 L 21.3 3.2041799023223736 L 21.3 3.2385247167921785 L 21.3 3.25 " stroke="#191919" stroke-width="0.35 px" style="stroke-width:0.35;stroke-miterlimit:4;stroke-dasharray:none;fill:none;fill-opacity:1;fill-rule: evenodd"/>
<path id="Shape2DView_nwe0081"  d="M 21.3 -3.25 L 21.3 -3.2385247167921785 L 21.3 -3.204179902322375 L 21.3 -3.147208089804595 L 21.3 -3.068011597813304 L 21.3 -2.9671496892252196 L 21.3 -2.8453346218655287 L 21.3 -2.7034266187477285 L 21.3 -2.542427793425809 L 21.3 -2.3634750733561978 L 21.3 -2.1678321712426545 L 21.3 -1.9568806610601648 L 21.3 -1.7321102217763988 L 21.3 -1.4951081176667576 L 21.3 -1.247547989509999 " stroke="#191919" stroke-width="0.35 px" style="stroke-width:0.35;stroke-miterlimit:4;stroke-dasharray:none;fill:none;fill-opacity:1;fill-rule: evenodd"/>
<path id="Shape2DView_nwe0082"  d="M 21.3 -1.2475479895102732 L 21.3 -1.0767097419739384 L 21.3 -0.9024837672451163 L 21.3 -0.7254182446977053 L 21.3 -0.5460702879735746 L 21.3 -0.3650041920969308 L 21.3 -0.18278965799340496 L 21.3 -1.7208456881689926e-13 L 21.3 0.18278965799306124 L 21.3 0.3650041920965885 L 21.3 0.5460702879732355 L 21.3 0.7254182446973703 L 21.3 0.902483767244786 L 21.3 1.0767097419736142 L 21.3 1.2475479895099557 " stroke="#191919" stroke-width="0.35 px" style="stroke-width:0.35;stroke-miterlimit:4;stroke-dasharray:none;fill:none;fill-opacity:1;fill-rule: evenodd"/>
<path id="Shape2DView_nwe0083"  d="M 5.635020857149 -1.2475479915372965 L 5.635020857149 1.2475479915371246 " stroke="#191919" stroke-width="0.35 px" style="stroke-width:0.35;stroke-miterlimit:4;stroke-dasharray:none;fill:none;fill-opacity:1;fill-rule: evenodd"/>
<path id="Shape2DView_nwe0084"  d="M 5.430661594627 -1.216791680801585 L 5.430661594627 1.2167916808013777 " stroke="#191919" stroke-width="0.35 px" style="stroke-width:0.35;stroke-miterlimit:4;stroke-dasharray:none;fill:none;fill-opacity:1;fill-rule: evenodd"/>
<path id="Shape2DView_nwe0085"  d="M 0.9 0.45 L 0.8999999999999999 0.43871756048182065 L 0.8999999999999999 0.40543599055608864 L 0.8999999999999999 0.3518241671106135 L 0.8999999999999999 0.2805704108364302 L 0.8999999999999999 0.19524768260290123 L 0.8999999999999999 0.10013442028034157 L 0.9 8.266365894244634e-17 L 0.9 -0.1001344202803414 L 0.9 -0.1952476826029011 L 0.9 -0.28057041083643003 L 0.9 -0.3518241671106134 L 0.9 -0.4054359905560886 L 0.9 -0.4387175604818206 L 0.9 -0.45 " stroke="#191919" stroke-width="0.35 px" style="stroke-width:0.35;stroke-miterlimit:4;stroke-dasharray:none;fill:none;fill-opacity:1;fill-rule: evenodd"/>
<path id="Shape2DView_nwe0086"  d="M 24.1 -0.45 L 24.1 -0.43871756048182065 L 24.1 -0.40543599055608864 L 24.1 -0.3518241671106135 L 24.1 -0.2805704108364302 L 24.1 -0.19524768260290123 L 24.1 -0.10013442028034157 L 24.1 -8.266365894244634e-17 L 24.1 0.1001344202803414 L 24.1 0.1952476826029011 L 24.1 0.28057041083643003 L 24.1 0.3518241671106134 L 24.1 0.4054359905560886 L 24.1 0.4387175604818206 L 24.1 0.45 " stroke="#191919" stroke-width="0.35 px" style="stroke-width:0.35;stroke-miterlimit:4;stroke-dasharray:none;fill:none;fill-opacity:1;fill-rule: evenodd"/>
<path id="Shape2DView_nwe0087"  d="M 3.7 3.2499999999997904 Q 3.519455656295287 3.2338852212048312 3.500000000000001 3.0499999999997893 " stroke="#191919" stroke-width="0.35 px" style="stroke-width:0.35;stroke-miterlimit:4;stroke-dasharray:none;fill:none;fill-opacity:1;fill-rule: evenodd"/>
<path id="Shape2DView_nwe0088"  d="M 3.7 -3.24999999999979 Q 3.519455656295287 -3.2338852212048312 3.500000000000001 -3.0499999999997898 " stroke="#191919" stroke-width="0.35 px" style="stroke-width:0.35;stroke-miterlimit:4;stroke-dasharray:none;fill:none;fill-opacity:1;fill-rule: evenodd"/>
<path id="Shape2DView_nwe0089"  d="M 3.6999999999999997 -3.25 L 4.5649791410903955 -3.25 " stroke="#191919" stroke-width="0.35 px" style="stroke-width:0.35;stroke-miterlimit:4;stroke-dasharray:none;fill:none;fill-opacity:1;fill-rule: evenodd"/>
<path id="Shape2DView_nwe0090"  d="M 3.6999999999999997 3.25 L 4.564979141090392 3.25 " stroke="#191919" stroke-width="0.35 px" style="stroke-width:0.35;stroke-miterlimit:4;stroke-dasharray:none;fill:none;fill-opacity:1;fill-rule: evenodd"/>
<path id="Shape2DView_nwe0091"  d="M 4.769338405697301 3.1696238502060066 L 4.564979141102448 3.249993384754509 " stroke="#191919" stroke-width="0.35 px" style="stroke-width:0.35;stroke-miterlimit:4;stroke-dasharray:none;fill:none;fill-opacity:1;fill-rule: evenodd"/>
<path id="Shape2DView_nwe0092"  d="M 4.7693384056971855 -3.1696238502061367 L 4.564979141102448 -3.2499933847544034 " stroke="#191919" stroke-width="0.35 px" style="stroke-width:0.35;stroke-miterlimit:4;stroke-dasharray:none;fill:none;fill-opacity:1;fill-rule: evenodd"/>
<path id="Shape2DView_nwe0093"  d="M 4.769341387090041 3.1696271229976403 Q 5.094524583893501 2.9113405946169633 5.4306586129101735 3.1696271229978388 " stroke="#191919" stroke-width="0.35 px" style="stroke-width:0.35;stroke-miterlimit:4;stroke-dasharray:none;fill:none;fill-opacity:1;fill-rule: evenodd"/>
<path id="Shape2DView_nwe0094"  d="M 4.769341387090021 -3.16962712299766 Q 5.094524583893477 -2.9113405946169886 5.430658612910095 -3.1696271229977664 " stroke="#191919" stroke-width="0.35 px" style="stroke-width:0.35;stroke-miterlimit:4;stroke-dasharray:none;fill:none;fill-opacity:1;fill-rule: evenodd"/>
<path id="Shape2DView_nwe0095"  d="M 5.63502085889756 3.249993384754536 L 5.430661594302917 3.169623850206115 " stroke="#191919" stroke-width="0.35 px" style="stroke-width:0.35;stroke-miterlimit:4;stroke-dasharray:none;fill:none;fill-opacity:1;fill-rule: evenodd"/>
<path id="Shape2DView_nwe0096"  d="M 5.635020858897499 -3.2499933847541524 L 5.4306615943028556 -3.169623850206018 " stroke="#191919" stroke-width="0.35 px" style="stroke-width:0.35;stroke-miterlimit:4;stroke-dasharray:none;fill:none;fill-opacity:1;fill-rule: evenodd"/>
<path id="Shape2DView_nwe0097"  d="M 5.635020858909559 -3.25 L 21.3 -3.25 " stroke="#191919" stroke-width="0.35 px" style="stroke-width:0.35;stroke-miterlimit:4;stroke-dasharray:none;fill:none;fill-opacity:1;fill-rule: evenodd"/>
<path id="Shape2DView_nwe0098"  d="M 5.635020858909618 3.25 L 21.3 3.25 " stroke="#191919" stroke-width="0.35 px" style="stroke-width:0.35;stroke-miterlimit:4;stroke-dasharray:none;fill:none;fill-opacity:1;fill-rule: evenodd"/>
<path id="Shape2DView_nwe0099"  d="M 21.3 3.25 Q 21.480544343704715 3.2338852212050426 21.499999999999996 3.0499999999999994 " stroke="#191919" stroke-width="0.35 px" style="stroke-width:0.35;stroke-miterlimit:4;stroke-dasharray:none;fill:none;fill-opacity:1;fill-rule: evenodd"/>
<path id="Shape2DView_nwe0100"  d="M 21.3 -3.25 Q 21.48054434370472 -3.2338852212050426 21.5 -3.049999999999999 " stroke="#191919" stroke-width="0.35 px" style="stroke-width:0.35;stroke-miterlimit:4;stroke-dasharray:none;fill:none;fill-opacity:1;fill-rule: evenodd"/>
<path id="Shape2DView_nwe0101"  d="M 3.4833333333329994 -0.8125 L 3.4899999999999998 -0.8125 " stroke="#191919" stroke-width="0.35 px" style="stroke-width:0.35;stroke-miterlimit:4;stroke-dasharray:none;fill:none;fill-opacity:1;fill-rule: evenodd"/>
<path id="Shape2DView_nwe0102"  d="M 3.4833333333329994 0.8125 L 3.4899999999999998 0.8125 " stroke="#191919" stroke-width="0.35 px" style="stroke-width:0.35;stroke-miterlimit:4;stroke-dasharray:none;fill:none;fill-opacity:1;fill-rule: evenodd"/>
<path id="Shape2DView_nwe0103"  d="M 21.616666666667 0.8125 L 21.51 0.8125 " stroke="#191919" stroke-width="0.35 px" style="stroke-width:0.35;stroke-miterlimit:4;stroke-dasharray:none;fill:none;fill-opacity:1;fill-rule: evenodd"/>
<path id="Shape2DView_nwe0104"  d="M 21.616666666667 -0.8125 L 21.51 -0.8125 " stroke="#191919" stroke-width="0.35 px" style="stroke-width:0.35;stroke-miterlimit:4;stroke-dasharray:none;fill:none;fill-opacity:1;fill-rule: evenodd"/>
<path id="Shape2DView_nwe0105"  d="M 3.483333333333 -0.45 L 0.9 -0.45 " stroke="#191919" stroke-width="0.35 px" style="stroke-width:0.35;stroke-miterlimit:4;stroke-dasharray:none;fill:none;fill-opacity:1;fill-rule: evenodd"/>
<path id="Shape2DView_nwe0106"  d="M 24.1 -0.45 L 21.616666666667 -0.45 " stroke="#191919" stroke-width="0.35 px" style="stroke-width:0.35;stroke-miterlimit:4;stroke-dasharray:none;fill:none;fill-opacity:1;fill-rule: evenodd"/>
<path id="Shape2DView_nwe0107"  d="M 24.099999999999998 -0.44999999999999973 Q 24.919985556374435 -0.45000000000000007 25.0 -0.45 " stroke="#191919" stroke-width="0.35 px" style="stroke-width:0.35;stroke-miterlimit:4;stroke-dasharray:none;fill:none;fill-opacity:1;fill-rule: evenodd"/>
<title>b'Shape2DView'</title>
</g>
<g id="Rectangle" transform="translate(0.705653,3.508934) scale(1,-1)">
<rect fill="#ff0000" id="origin" width="1" height="1" x="0" y="0" />
<title>b'Rectangle'</title>
</g>
</svg>