<?xml version="1.0"?>
<!DOCTYPE svg PUBLIC "-//W3C//DTD SVG 1.1//EN" "http://www.w3.org/Graphics/SVG/1.1/DTD/svg11.dtd">
<svg width="45.791306746422016mm" height="18.89786875973377mm" viewBox="0 0 45.791306746422016 18.89786875973377" xmlns="http://www.w3.org/2000/svg" version="1.1">
<g id="Shape2DView" transform="translate(0.895653,9.448934) scale(1,-1)">
<path id="Shape2DView_nwe0000"  d="M 3.2 3.447977725609 L 4.064979142851 3.447977725609 " stroke="#191919" stroke-width="0.35 px" style="stroke-width:0.35;stroke-miterlimit:4;stroke-dasharray:none;fill:none;fill-opacity:1;fill-rule: evenodd"/>
<path id="Shape2DView_nwe0001"  d="M 3.2 -3.447977725609 L 4.064979142851 -3.447977725609 " stroke="#191919" stroke-width="0.35 px" style="stroke-width:0.35;stroke-miterlimit:4;stroke-dasharray:none;fill:none;fill-opacity:1;fill-rule: evenodd"/>
<path id="Shape2DView_nwe0002"  d="M 4.064979142851 -3.447977725609 L 4.269338405373 -3.417221418878 " stroke="#191919" stroke-width="0.35 px" style="stroke-width:0.35;stroke-miterlimit:4;stroke-dasharray:none;fill:none;fill-opacity:1;fill-rule: evenodd"/>
<path id="Shape2DView_nwe0003"  d="M 4.269338405372611 -3.4172214188780226 A 0.485412 0.185759 -180 0 0 4.93066 -3.41722" stroke="#191919" stroke-width="0.35 px" style="stroke-width:0.35;stroke-miterlimit:4;stroke-dasharray:none;fill:none;fill-opacity:1;fill-rule: evenodd"/>
<path id="Shape2DView_nwe0004"  d="M 4.930661594627 -3.417221418878 L 5.135020857149 -3.447977725609 " stroke="#191919" stroke-width="0.35 px" style="stroke-width:0.35;stroke-miterlimit:4;stroke-dasharray:none;fill:none;fill-opacity:1;fill-rule: evenodd"/>
<path id="Shape2DView_nwe0005"  d="M 5.135020857149 -3.447977725609 L 40.8 -3.447977725609 " stroke="#191919" stroke-width="0.35 px" style="stroke-width:0.35;stroke-miterlimit:4;stroke-dasharray:none;fill:none;fill-opacity:1;fill-rule: evenodd"/>
<path id="Shape2DView_nwe0006"  d="M 40.8 -3.447977725609674 A 0.21 0.0803635 5.26972e-15 0 1 41.01 -3.36761" stroke="#191919" stroke-width="0.35 px" style="stroke-width:0.35;stroke-miterlimit:4;stroke-dasharray:none;fill:none;fill-opacity:1;fill-rule: evenodd"/>
<path id="Shape2DView_nwe0007"  d="M 4.269338405372611 -3.4133945845540223 A 0.485412 0.185759 -180 0 0 4.93066 -3.41339" stroke="#191919" stroke-width="0.35 px" style="stroke-width:0.35;stroke-miterlimit:4;stroke-dasharray:none;fill:none;fill-opacity:1;fill-rule: evenodd"/>
<path id="Shape2DView_nwe0008"  d="M 2.99 -3.367614204813 A 0.21 0.0803635 5.26972e-15 0 1 3.2 -3.44798" stroke="#191919" stroke-width="0.35 px" style="stroke-width:0.35;stroke-miterlimit:4;stroke-dasharray:none;fill:none;fill-opacity:1;fill-rule: evenodd"/>
<path id="Shape2DView_nwe0009"  d="M 4.064979142851 3.447977725609 L 4.269338405373 3.417221418878 " stroke="#191919" stroke-width="0.35 px" style="stroke-width:0.35;stroke-miterlimit:4;stroke-dasharray:none;fill:none;fill-opacity:1;fill-rule: evenodd"/>
<path id="Shape2DView_nwe0010"  d="M 2.9899999999999984 -3.3676142048130084 L 2.9899999999999984 -2.906455745205656 L 2.9899999999999984 -2.4361525005388254 L 2.9899999999999984 -1.9581842188156815 L 2.9899999999999984 -1.474054765081757 L 2.9899999999999984 -0.9852873897091468 L 2.9899999999999984 -0.49341993568728704 L 2.9899999999999984 4.04121180963557e-14 L 2.9899999999999984 0.49341993568736875 L 2.9899999999999984 0.9852873897092289 L 2.9899999999999984 1.4740547650818367 L 2.9899999999999984 1.9581842188157603 L 2.9899999999999984 2.436152500538903 L 2.9899999999999984 2.906455745205731 L 2.9899999999999984 3.367614204813084 " stroke="#191919" stroke-width="0.35 px" style="stroke-width:0.35;stroke-miterlimit:4;stroke-dasharray:none;fill:none;fill-opacity:1;fill-rule: evenodd"/>
<path id="Shape2DView_nwe0011"  d="M 2.99 3.367614204813 A 0.21 0.0803635 -5.26972e-15 0 0 3.2 3.44798" stroke="#191919" stroke-width="0.35 px" style="stroke-width:0.35;stroke-miterlimit:4;stroke-dasharray:none;fill:none;fill-opacity:1;fill-rule: evenodd"/>
<path id="Shape2DView_nwe0012"  d="M 4.269338405372611 3.4172214188780226 A 0.485412 0.185759 180 0 1 4.93066 3.41722" stroke="#191919" stroke-width="0.35 px" style="stroke-width:0.35;stroke-miterlimit:4;stroke-dasharray:none;fill:none;fill-opacity:1;fill-rule: evenodd"/>
<path id="Shape2DView_nwe0013"  d="M 4.930661594627 3.417221418878 L 5.135020857149 3.447977725609 " stroke="#191919" stroke-width="0.35 px" style="stroke-width:0.35;stroke-miterlimit:4;stroke-dasharray:none;fill:none;fill-opacity:1;fill-rule: evenodd"/>
<path id="Shape2DView_nwe0014"  d="M 5.135020857149 3.447977725609 L 40.8 3.447977725609 " stroke="#191919" stroke-width="0.35 px" style="stroke-width:0.35;stroke-miterlimit:4;stroke-dasharray:none;fill:none;fill-opacity:1;fill-rule: evenodd"/>
<path id="Shape2DView_nwe0015"  d="M 40.8 3.447977725609674 A 0.21 0.0803635 -5.26972e-15 0 0 41.01 3.36761" stroke="#191919" stroke-width="0.35 px" style="stroke-width:0.35;stroke-miterlimit:4;stroke-dasharray:none;fill:none;fill-opacity:1;fill-rule: evenodd"/>
<path id="Shape2DView_nwe0016"  d="M 4.269338405372611 3.4133945845540223 A 0.485412 0.185759 180 0 1 4.93066 3.41339" stroke="#191919" stroke-width="0.35 px" style="stroke-width:0.35;stroke-miterlimit:4;stroke-dasharray:none;fill:none;fill-opacity:1;fill-rule: evenodd"/>
<path id="Shape2DView_nwe0017"  d="M 2.9999999999999982 3.392117900423408 L 2.9999999999999982 4.0609190102661215 L 2.9999999999999982 4.7011278131794745 L 2.9999999999999982 5.308236697328434 L 2.9999999999999982 5.877971102321315 L 2.9999999999999987 6.406319615732851 L 2.9999999999999987 6.889562216842872 L 2.9999999999999987 7.324296468730731 L 2.999999999999999 7.707461474310999 L 2.999999999999999 8.036359427639642 L 2.999999999999999 8.308674608751243 L 2.9999999999999996 8.522489688287548 L 2.9999999999999996 8.676299227118951 L 2.9999999999999996 8.769020275910137 L 3.0 8.8 " stroke="#191919" stroke-width="0.35 px" style="stroke-width:0.35;stroke-miterlimit:4;stroke-dasharray:none;fill:none;fill-opacity:1;fill-rule: evenodd"/>
<path id="Shape2DView_nwe0018"  d="M 3.0 -8.8 L 3.0 -8.769020275910133 L 2.9999999999999996 -8.676299227118943 L 2.9999999999999996 -8.522489688287536 L 2.9999999999999996 -8.308674608751229 L 2.999999999999999 -8.036359427639624 L 2.999999999999999 -7.707461474310985 L 2.999999999999999 -7.324296468730717 L 2.9999999999999987 -6.88956221684286 L 2.9999999999999987 -6.4063196157328415 L 2.9999999999999987 -5.8779711023213075 L 2.9999999999999982 -5.308236697328432 L 2.9999999999999982 -4.701127813179476 L 2.9999999999999982 -4.060919010266131 L 2.9999999999999982 -3.3921179004234068 " stroke="#191919" stroke-width="0.35 px" style="stroke-width:0.35;stroke-miterlimit:4;stroke-dasharray:none;fill:none;fill-opacity:1;fill-rule: evenodd"/>
<path id="Shape2DView_nwe0019"  d="M 41.0 3.392117900423407 L 41.0 4.060919010266178 L 41.0 4.701127813179583 L 41.0 5.3082366973285895 L 41.0 5.877971102321507 L 41.0 6.406319615733074 L 41.0 6.889562216843116 L 41.0 7.3242964687309815 L 41.0 7.70746147431125 L 41.0 8.03635942763988 L 41.0 8.308674608751456 L 41.0 8.522489688287727 L 41.0 8.676299227119083 L 41.0 8.76902027591021 L 41.0 8.800000000000002 " stroke="#191919" stroke-width="0.35 px" style="stroke-width:0.35;stroke-miterlimit:4;stroke-dasharray:none;fill:none;fill-opacity:1;fill-rule: evenodd"/>
<path id="Shape2DView_nwe0020"  d="M 41.0 -8.8 L 41.0 -8.769020275910192 L 41.0 -8.67629922711905 L 41.0 -8.522489688287685 L 41.0 -8.308674608751407 L 41.0 -8.036359427639823 L 41.0 -7.707461474311191 L 41.0 -7.324296468730925 L 41.0 -6.889562216843059 L 41.0 -6.4063196157330236 L 41.0 -5.8779711023214665 L 41.0 -5.308236697328557 L 41.0 -4.701127813179562 L 41.0 -4.060919010266172 L 41.0 -3.3921179004234063 " stroke="#191919" stroke-width="0.35 px" style="stroke-width:0.35;stroke-miterlimit:4;stroke-dasharray:none;fill:none;fill-opacity:1;fill-rule: evenodd"/>
<path id="Shape2DView_nwe0021"  d="M 41.0 3.392117900423407 L 41.0 3.7631489373537126 L 41.0 4.114903059479927 L 41.0 4.445578389077543 L 41.0 4.7534810255695215 L 41.0 5.037033722614988 L 41.0 5.294783967630888 L 41.0 5.525411422358857 L 41.0 5.727734686362643 L 41.0 5.900717348809717 L 41.0 6.04347329753655 L 41.0 6.155271258201569 L 41.0 6.235538540273817 L 41.0 6.283863970668248 L 41.0 6.3 " stroke="#191919" stroke-width="0.35 px" style="stroke-width:0.35;stroke-miterlimit:4;stroke-dasharray:none;fill:none;fill-opacity:1;fill-rule: evenodd"/>
<path id="Shape2DView_nwe0022"  d="M 41.0 -6.3 L 41.0 -6.283863970668248 L 41.0 -6.235538540273817 L 41.0 -6.155271258201568 L 41.0 -6.043473297536547 L 41.0 -5.900717348809715 L 41.0 -5.727734686362638 L 41.0 -5.525411422358849 L 41.0 -5.294783967630878 L 41.0 -5.037033722614976 L 41.0 -4.753481025569507 L 41.0 -4.445578389077525 L 41.0 -4.114903059479907 L 41.0 -3.7631489373536895 L 41.0 -3.3921179004234046 " stroke="#191919" stroke-width="0.35 px" style="stroke-width:0.35;stroke-miterlimit:4;stroke-dasharray:none;fill:none;fill-opacity:1;fill-rule: evenodd"/>
<path id="Shape2DView_nwe0023"  d="M 41.01 -3.3676142048130084 L 41.01 -2.906455745205656 L 41.01 -2.4361525005388254 L 41.01 -1.9581842188156815 L 41.01 -1.474054765081757 L 41.01 -0.9852873897091468 L 41.01 -0.49341993568728704 L 41.01 4.04121180963557e-14 L 41.01 0.49341993568736875 L 41.01 0.9852873897092289 L 41.01 1.4740547650818367 L 41.01 1.9581842188157603 L 41.01 2.436152500538903 L 41.01 2.906455745205731 L 41.01 3.367614204813084 " stroke="#191919" stroke-width="0.35 px" style="stroke-width:0.35;stroke-miterlimit:4;stroke-dasharray:none;fill:none;fill-opacity:1;fill-rule: evenodd"/>
<path id="Shape2DView_nwe0024"  d="M 2.6 2.25 L 2.6 2.193587802409103 L 2.6 2.0271799527804433 L 2.5999999999999996 1.7591208355530674 L 2.5999999999999996 1.4028520541821505 L 2.5999999999999996 0.976238413014506 L 2.5999999999999996 0.5006721014017076 L 2.5999999999999996 2.755455298081545e-16 L 2.5999999999999996 -0.5006721014017071 L 2.5999999999999996 -0.9762384130145055 L 2.5999999999999996 -1.40285205418215 L 2.5999999999999996 -1.7591208355530668 L 2.6 -2.027179952780443 L 2.6 -2.193587802409103 L 2.6 -2.25 " stroke="#191919" stroke-width="0.35 px" style="stroke-width:0.35;stroke-miterlimit:4;stroke-dasharray:none;fill:none;fill-opacity:1;fill-rule: evenodd"/>
<path id="Shape2DView_nwe0025"  d="M 26.49 -0.9 Q 25.763015655018755 -0.9077269746935365 25.600000000000005 -0.010000000000000009 " stroke="#191919" stroke-width="0.35 px" style="stroke-width:0.35;stroke-miterlimit:4;stroke-dasharray:none;fill:none;fill-opacity:1;fill-rule: evenodd"/>
<path id="Shape2DView_nwe0026"  d="M 25.599999999999998 0.010000000000001563 L 25.599999999999998 0.00857142903830077 L 25.599999999999998 0.007142857861118568 L 25.599999999999998 0.005714286504369337 L 25.599999999999998 0.004285715003966573 L 25.599999999999998 0.0028571433958246573 L 25.599999999999998 0.0014285717158561972 L 25.599999999999998 -2.708944180085382e-14 L 25.599999999999998 -0.001428571715909932 L 25.599999999999998 -0.002857143395878836 L 25.599999999999998 -0.0042857150040211955 L 25.599999999999998 -0.005714286504424404 L 25.599999999999998 -0.007142857861173191 L 25.599999999999998 -0.00857142903835495 L 25.599999999999998 -0.009999999999999787 " stroke="#191919" stroke-width="0.35 px" style="stroke-width:0.35;stroke-miterlimit:4;stroke-dasharray:none;fill:none;fill-opacity:1;fill-rule: evenodd"/>
<path id="Shape2DView_nwe0027"  d="M 26.49 0.9 Q 25.763015655018755 0.9077269746936308 25.600000000000005 0.010000000000000009 " stroke="#191919" stroke-width="0.35 px" style="stroke-width:0.35;stroke-miterlimit:4;stroke-dasharray:none;fill:none;fill-opacity:1;fill-rule: evenodd"/>
<path id="Shape2DView_nwe0028"  d="M 26.49 0.9 L 31.91 0.9 " stroke="#191919" stroke-width="0.35 px" style="stroke-width:0.35;stroke-miterlimit:4;stroke-dasharray:none;fill:none;fill-opacity:1;fill-rule: evenodd"/>
<path id="Shape2DView_nwe0029"  d="M 31.91 0.9 Q 32.6369843449826 0.9077269746925102 32.8 0.010000000000000009 " stroke="#191919" stroke-width="0.35 px" style="stroke-width:0.35;stroke-miterlimit:4;stroke-dasharray:none;fill:none;fill-opacity:1;fill-rule: evenodd"/>
<path id="Shape2DView_nwe0030"  d="M 32.8 0.010000000000001563 L 32.8 0.00857142903830077 L 32.8 0.007142857861118568 L 32.8 0.005714286504369337 L 32.8 0.004285715003966573 L 32.8 0.0028571433958246573 L 32.8 0.0014285717158561972 L 32.8 -2.708944180085382e-14 L 32.8 -0.001428571715909932 L 32.8 -0.002857143395878836 L 32.8 -0.0042857150040211955 L 32.8 -0.005714286504424404 L 32.8 -0.007142857861173191 L 32.8 -0.00857142903835495 L 32.8 -0.009999999999999787 " stroke="#191919" stroke-width="0.35 px" style="stroke-width:0.35;stroke-miterlimit:4;stroke-dasharray:none;fill:none;fill-opacity:1;fill-rule: evenodd"/>
<path id="Shape2DView_nwe0031"  d="M 31.91 -0.9 Q 32.63698434498125 -0.9077269746936308 32.8 -0.010000000000000009 " stroke="#191919" stroke-width="0.35 px" style="stroke-width:0.35;stroke-miterlimit:4;stroke-dasharray:none;fill:none;fill-opacity:1;fill-rule: evenodd"/>
<path id="Shape2DView_nwe0032"  d="M 26.49 -0.9 L 31.91 -0.9 " stroke="#191919" stroke-width="0.35 px" style="stroke-width:0.35;stroke-miterlimit:4;stroke-dasharray:none;fill:none;fill-opacity:1;fill-rule: evenodd"/>
<path id="Shape2DView_nwe0033"  d="M 12.09 -0.9 Q 11.363015655018382 -0.9077269746935365 11.2 -0.010000000000000009 " stroke="#191919" stroke-width="0.35 px" style="stroke-width:0.35;stroke-miterlimit:4;stroke-dasharray:none;fill:none;fill-opacity:1;fill-rule: evenodd"/>
<path id="Shape2DView_nwe0034"  d="M 11.199999999999998 0.010000000000001563 L 11.199999999999998 0.00857142903830077 L 11.199999999999998 0.007142857861118568 L 11.199999999999998 0.005714286504369337 L 11.199999999999998 0.004285715003966573 L 11.199999999999998 0.0028571433958246573 L 11.199999999999998 0.0014285717158561972 L 11.199999999999998 -2.708944180085382e-14 L 11.199999999999998 -0.001428571715909932 L 11.199999999999998 -0.002857143395878836 L 11.199999999999998 -0.0042857150040211955 L 11.199999999999998 -0.005714286504424404 L 11.199999999999998 -0.007142857861173191 L 11.199999999999998 -0.00857142903835495 L 11.199999999999998 -0.009999999999999787 " stroke="#191919" stroke-width="0.35 px" style="stroke-width:0.35;stroke-miterlimit:4;stroke-dasharray:none;fill:none;fill-opacity:1;fill-rule: evenodd"/>
<path id="Shape2DView_nwe0035"  d="M 12.09 0.9 Q 11.363015655018481 0.9077269746936308 11.2 0.010000000000000009 " stroke="#191919" stroke-width="0.35 px" style="stroke-width:0.35;stroke-miterlimit:4;stroke-dasharray:none;fill:none;fill-opacity:1;fill-rule: evenodd"/>
<path id="Shape2DView_nwe0036"  d="M 12.09 0.9 L 17.51 0.9 " stroke="#191919" stroke-width="0.35 px" style="stroke-width:0.35;stroke-miterlimit:4;stroke-dasharray:none;fill:none;fill-opacity:1;fill-rule: evenodd"/>
<path id="Shape2DView_nwe0037"  d="M 17.51 0.9 Q 18.23698434498259 0.907726974692122 18.4 0.010000000000000009 " stroke="#191919" stroke-width="0.35 px" style="stroke-width:0.35;stroke-miterlimit:4;stroke-dasharray:none;fill:none;fill-opacity:1;fill-rule: evenodd"/>
<path id="Shape2DView_nwe0038"  d="M 18.399999999999995 0.010000000000001563 L 18.399999999999995 0.00857142903830077 L 18.399999999999995 0.007142857861118568 L 18.399999999999995 0.005714286504369337 L 18.399999999999995 0.004285715003966573 L 18.399999999999995 0.0028571433958246573 L 18.399999999999995 0.0014285717158561972 L 18.399999999999995 -2.708944180085382e-14 L 18.399999999999995 -0.001428571715909932 L 18.399999999999995 -0.002857143395878836 L 18.399999999999995 -0.0042857150040211955 L 18.399999999999995 -0.005714286504424404 L 18.399999999999995 -0.007142857861173191 L 18.399999999999995 -0.00857142903835495 L 18.399999999999995 -0.009999999999999787 " stroke="#191919" stroke-width="0.35 px" style="stroke-width:0.35;stroke-miterlimit:4;stroke-dasharray:none;fill:none;fill-opacity:1;fill-rule: evenodd"/>
<path id="Shape2DView_nwe0039"  d="M 17.51 -0.9 Q 18.236984344982623 -0.9077269746920479 18.399999999999995 -0.010000000000000009 " stroke="#191919" stroke-width="0.35 px" style="stroke-width:0.35;stroke-miterlimit:4;stroke-dasharray:none;fill:none;fill-opacity:1;fill-rule: evenodd"/>
<path id="Shape2DView_nwe0040"  d="M 12.09 -0.9 L 17.51 -0.9 " stroke="#191919" stroke-width="0.35 px" style="stroke-width:0.35;stroke-miterlimit:4;stroke-dasharray:none;fill:none;fill-opacity:1;fill-rule: evenodd"/>
<path id="Shape2DView_nwe0041"  d="M 41.5 2.25 L 41.5 2.193587802409103 L 41.5 2.0271799527804433 L 41.5 1.7591208355530674 L 41.5 1.4028520541821505 L 41.5 0.976238413014506 L 41.5 0.5006721014017076 L 41.5 2.755455298081545e-16 L 41.5 -0.5006721014017071 L 41.5 -0.9762384130145055 L 41.5 -1.40285205418215 L 41.5 -1.7591208355530668 L 41.5 -2.027179952780443 L 41.5 -2.193587802409103 L 41.5 -2.25 " stroke="#191919" stroke-width="0.35 px" style="stroke-width:0.35;stroke-miterlimit:4;stroke-dasharray:none;fill:none;fill-opacity:1;fill-rule: evenodd"/>
<path id="Shape2DView_nwe0042"  d="M 0.9 0.45 L 2.6 0.45 " stroke="#191919" stroke-width="0.35 px" style="stroke-width:0.35;stroke-miterlimit:4;stroke-dasharray:none;fill:none;fill-opacity:1;fill-rule: evenodd"/>
<path id="Shape2DView_nwe0043"  d="M 0.0 -0.4500000000000001 L 0.00565901109608169 -0.4500000000000001 L 0.02256487903635873 -0.4500000000000001 L 0.05050500272246916 -0.4500000000000001 L 0.08912801888782274 -0.4500000000000001 L 0.13794822069454427 -0.4500000000000001 L 0.19635166577877317 -0.45000000000000007 L 0.2636038969321072 -0.45000000000000007 L 0.33885917832713974 -0.45000000000000007 L 0.4211711311361971 -0.45000000000000007 L 0.5095046347941976 -0.45000000000000007 L 0.6027488442403496 -0.45000000000000007 L 0.699731159439317 -0.45 L 0.7992319715070229 -0.45 L 0.9 -0.45 " stroke="#191919" stroke-width="0.35 px" style="stroke-width:0.35;stroke-miterlimit:4;stroke-dasharray:none;fill:none;fill-opacity:1;fill-rule: evenodd"/>
<circle cx="1.110223024625e-15" cy="0.0" r="0.45" stroke="#191919" stroke-width="0.35 px" style="stroke-width:0.35;stroke-miterlimit:4;stroke-dasharray:none;fill:none"/>
<path id="Shape2DView_nwe0045"  d="M 41.5 0.45 L 43.1 0.45 " stroke="#191919" stroke-width="0.35 px" style="stroke-width:0.35;stroke-miterlimit:4;stroke-dasharray:none;fill:none;fill-opacity:1;fill-rule: evenodd"/>
<path id="Shape2DView_nwe0046"  d="M 44.0 0.45 L 43.99434098890392 0.45 L 43.97743512096364 0.45 L 43.94949499727753 0.45 L 43.91087198111218 0.45 L 43.86205177930546 0.45 L 43.80364833422123 0.45 L 43.7363961030679 0.45 L 43.66114082167286 0.45 L 43.5788288688638 0.45 L 43.4904953652058 0.45 L 43.397251155759655 0.45 L 43.30026884056068 0.45 L 43.20076802849298 0.45 L 43.1 0.45 " stroke="#191919" stroke-width="0.35 px" style="stroke-width:0.35;stroke-miterlimit:4;stroke-dasharray:none;fill:none;fill-opacity:1;fill-rule: evenodd"/>
<path id="Shape2DView_nwe0047"  d="M 44.0 -0.45 A 0.45 0.45 0 0 1 44 0.45" stroke="#191919" stroke-width="0.35 px" style="stroke-width:0.35;stroke-miterlimit:4;stroke-dasharray:none;fill:none;fill-opacity:1;fill-rule: evenodd"/>
<path id="Shape2DView_nwe0048"  d="M 4.064979142851 -3.4479777276038344 L 4.064979142851 3.4479777276040458 " stroke="#191919" stroke-width="0.35 px" style="stroke-width:0.35;stroke-miterlimit:4;stroke-dasharray:none;fill:none;fill-opacity:1;fill-rule: evenodd"/>
<path id="Shape2DView_nwe0049"  d="M 3.1999999999999984 -3.447977725609682 L 3.1999999999999984 -2.9758143482163035 L 3.1999999999999984 -2.494287957938166 L 3.1999999999999984 -2.0049136149466915 L 3.1999999999999984 -1.5092310719759978 L 3.1999999999999984 -1.0087999296911505 L 3.1999999999999984 -0.5051947296074673 L 3.199999999999998 -3.921307722976053e-13 L 3.1999999999999984 0.5051947296066861 L 3.1999999999999984 1.0087999296903716 L 3.1999999999999984 1.509231071975226 L 3.1999999999999984 2.0049136149459277 L 3.1999999999999984 2.494287957937414 L 3.1999999999999984 2.975814348215566 L 3.1999999999999984 3.447977725608958 " stroke="#191919" stroke-width="0.35 px" style="stroke-width:0.35;stroke-miterlimit:4;stroke-dasharray:none;fill:none;fill-opacity:1;fill-rule: evenodd"/>
<path id="Shape2DView_nwe0050"  d="M 4.269338405373 -3.4172214169012305 L 4.269338405373 3.4172214169013513 " stroke="#191919" stroke-width="0.35 px" style="stroke-width:0.35;stroke-miterlimit:4;stroke-dasharray:none;fill:none;fill-opacity:1;fill-rule: evenodd"/>
<path id="Shape2DView_nwe0051"  d="M 3.1999999999999984 3.447977725609674 L 3.1999999999999984 4.1342539294342435 L 3.1999999999999984 4.7912948138753 L 3.1999999999999984 5.414454123421567 L 3.1999999999999984 5.999325195649218 L 3.199999999999999 6.541772122874156 L 3.199999999999999 7.037958999165899 L 3.199999999999999 7.484377045903232 L 3.1999999999999993 7.877869424053596 L 3.1999999999999993 8.215653557716585 L 3.1999999999999993 8.495340811070873 L 3.1999999999999997 8.714953379579319 L 3.1999999999999997 8.872938276006364 L 3.1999999999999997 8.968178312345746 L 3.2 9.0 " stroke="#191919" stroke-width="0.35 px" style="stroke-width:0.35;stroke-miterlimit:4;stroke-dasharray:none;fill:none;fill-opacity:1;fill-rule: evenodd"/>
<path id="Shape2DView_nwe0052"  d="M 3.2 -9.000000000000002 L 3.2 -8.968178312345758 L 3.1999999999999997 -8.872938276006389 L 3.1999999999999997 -8.714953379579352 L 3.1999999999999997 -8.495340811070909 L 3.1999999999999993 -8.215653557716625 L 3.1999999999999993 -7.877869424053635 L 3.199999999999999 -7.484377045903268 L 3.199999999999999 -7.037958999165932 L 3.199999999999999 -6.541772122874179 L 3.199999999999999 -5.999325195649233 L 3.1999999999999984 -5.414454123421572 L 3.1999999999999984 -4.791294813875292 L 3.1999999999999984 -4.134253929434221 L 3.1999999999999984 -3.447977725609675 " stroke="#191919" stroke-width="0.35 px" style="stroke-width:0.35;stroke-miterlimit:4;stroke-dasharray:none;fill:none;fill-opacity:1;fill-rule: evenodd"/>
<path id="Shape2DView_nwe0053"  d="M 4.064979142851017 3.447977725608998 C 4.064979140175062 6.733427706138972 4.064979126435877 9.048924413075056 4.064979141130194 8.999981680847776 " stroke="#191919" stroke-width="0.35 px" style="stroke-width:0.35;stroke-miterlimit:4;stroke-dasharray:none;fill:none;fill-opacity:1;fill-rule: evenodd"/>
<path id="Shape2DView_nwe0054"  d="M 4.064979141130306 -8.999981680843534 C 4.064979126436116 -9.04892441307058 4.064979140175202 -6.733427706138256 4.064979142851012 -3.447977725609709 " stroke="#191919" stroke-width="0.35 px" style="stroke-width:0.35;stroke-miterlimit:4;stroke-dasharray:none;fill:none;fill-opacity:1;fill-rule: evenodd"/>
<path id="Shape2DView_nwe0055"  d="M 4.269338405373 3.417221418878 C 4.269338405835058 6.6733426808148115 4.2693384082084025 8.968125620269984 4.269338405670254 8.919612146364633 " stroke="#191919" stroke-width="0.35 px" style="stroke-width:0.35;stroke-miterlimit:4;stroke-dasharray:none;fill:none;fill-opacity:1;fill-rule: evenodd"/>
<path id="Shape2DView_nwe0056"  d="M 4.269338405669852 -8.919612146361073 C 4.269338408208031 -8.968125620266141 4.269338405835104 -6.673342680814951 4.269338405372992 -3.4172214188792656 " stroke="#191919" stroke-width="0.35 px" style="stroke-width:0.35;stroke-miterlimit:4;stroke-dasharray:none;fill:none;fill-opacity:1;fill-rule: evenodd"/>
<path id="Shape2DView_nwe0057"  d="M 4.9306615946270504 3.4172214188780146 C 4.930661594165266 6.673342680815061 4.930661591791572 8.968125620270119 4.930661594329955 8.91961214636465 " stroke="#191919" stroke-width="0.35 px" style="stroke-width:0.35;stroke-miterlimit:4;stroke-dasharray:none;fill:none;fill-opacity:1;fill-rule: evenodd"/>
<path id="Shape2DView_nwe0058"  d="M 4.930661594329978 -8.919612146363121 C 4.930661591791636 -8.968125620268102 4.930661594164644 -6.673342680814466 4.930661594627006 -3.4172214188785937 " stroke="#191919" stroke-width="0.35 px" style="stroke-width:0.35;stroke-miterlimit:4;stroke-dasharray:none;fill:none;fill-opacity:1;fill-rule: evenodd"/>
<path id="Shape2DView_nwe0059"  d="M 5.1350208571489855 3.447977725608998 C 5.135020859824519 6.7334277061389605 5.135020873563869 9.048924413074857 5.135020858869832 8.999981680847593 " stroke="#191919" stroke-width="0.35 px" style="stroke-width:0.35;stroke-miterlimit:4;stroke-dasharray:none;fill:none;fill-opacity:1;fill-rule: evenodd"/>
<path id="Shape2DView_nwe0060"  d="M 5.13502085886979 -8.999981680845796 C 5.1350208735639535 -9.0489244130726 5.135020859824673 -6.733427706137524 5.135020857148981 -3.447977725608755 " stroke="#191919" stroke-width="0.35 px" style="stroke-width:0.35;stroke-miterlimit:4;stroke-dasharray:none;fill:none;fill-opacity:1;fill-rule: evenodd"/>
<path id="Shape2DView_nwe0061"  d="M 40.8 3.447977725609674 L 40.8 4.134253929434247 L 40.8 4.791294813875309 L 40.8 5.4144541234215815 L 40.8 5.999325195649235 L 40.8 6.541772122874175 L 40.8 7.037958999165921 L 40.8 7.484377045903255 L 40.8 7.8778694240536185 L 40.8 8.215653557716607 L 40.8 8.495340811070893 L 40.8 8.714953379579335 L 40.8 8.872938276006376 L 40.8 8.968178312345751 L 40.8 9.0 " stroke="#191919" stroke-width="0.35 px" style="stroke-width:0.35;stroke-miterlimit:4;stroke-dasharray:none;fill:none;fill-opacity:1;fill-rule: evenodd"/>
<path id="Shape2DView_nwe0062"  d="M 40.8 -8.999999999999998 L 40.8 -8.968178312345751 L 40.8 -8.872938276006376 L 40.8 -8.714953379579336 L 40.8 -8.495340811070893 L 40.8 -8.215653557716609 L 40.8 -7.877869424053619 L 40.8 -7.484377045903254 L 40.8 -7.03795899916592 L 40.8 -6.541772122874173 L 40.8 -5.999325195649233 L 40.8 -5.414454123421579 L 40.8 -4.7912948138753055 L 40.8 -4.134253929434243 L 40.8 -3.4479777256096744 " stroke="#191919" stroke-width="0.35 px" style="stroke-width:0.35;stroke-miterlimit:4;stroke-dasharray:none;fill:none;fill-opacity:1;fill-rule: evenodd"/>
<path id="Shape2DView_nwe0063"  d="M 40.8 -3.447977725609682 L 40.8 -2.9758143482163035 L 40.8 -2.494287957938166 L 40.8 -2.0049136149466915 L 40.8 -1.5092310719759978 L 40.8 -1.0087999296911505 L 40.8 -0.5051947296074673 L 40.8 -3.921307722976053e-13 L 40.8 0.5051947296066861 L 40.8 1.0087999296903716 L 40.8 1.509231071975226 L 40.8 2.0049136149459277 L 40.8 2.494287957937414 L 40.8 2.975814348215566 L 40.8 3.447977725608958 " stroke="#191919" stroke-width="0.35 px" style="stroke-width:0.35;stroke-miterlimit:4;stroke-dasharray:none;fill:none;fill-opacity:1;fill-rule: evenodd"/>
<path id="Shape2DView_nwe0064"  d="M 5.135020857149 -3.4479777276038344 L 5.135020857149 3.4479777276040458 " stroke="#191919" stroke-width="0.35 px" style="stroke-width:0.35;stroke-miterlimit:4;stroke-dasharray:none;fill:none;fill-opacity:1;fill-rule: evenodd"/>
<path id="Shape2DView_nwe0065"  d="M 4.930661594627 -3.4172214169012305 L 4.930661594627 3.4172214169013513 " stroke="#191919" stroke-width="0.35 px" style="stroke-width:0.35;stroke-miterlimit:4;stroke-dasharray:none;fill:none;fill-opacity:1;fill-rule: evenodd"/>
<path id="Shape2DView_nwe0066"  d="M 0.9 0.45 L 0.8999999999999999 0.43871756048182065 L 0.8999999999999999 0.40543599055608864 L 0.8999999999999999 0.3518241671106135 L 0.8999999999999999 0.2805704108364302 L 0.8999999999999999 0.19524768260290123 L 0.8999999999999999 0.10013442028034157 L 0.9 8.266365894244634e-17 L 0.9 -0.1001344202803414 L 0.9 -0.1952476826029011 L 0.9 -0.28057041083643003 L 0.9 -0.3518241671106134 L 0.9 -0.4054359905560886 L 0.9 -0.4387175604818206 L 0.9 -0.45 " stroke="#191919" stroke-width="0.35 px" style="stroke-width:0.35;stroke-miterlimit:4;stroke-dasharray:none;fill:none;fill-opacity:1;fill-rule: evenodd"/>
<path id="Shape2DView_nwe0067"  d="M 43.1 -0.45 L 43.1 -0.43871756048182065 L 43.1 -0.40543599055608864 L 43.1 -0.3518241671106135 L 43.1 -0.2805704108364302 L 43.1 -0.19524768260290123 L 43.1 -0.10013442028034157 L 43.1 -8.266365894244634e-17 L 43.1 0.1001344202803414 L 43.1 0.1952476826029011 L 43.1 0.28057041083643003 L 43.1 0.3518241671106134 L 43.1 0.4054359905560886 L 43.1 0.4387175604818206 L 43.1 0.45 " stroke="#191919" stroke-width="0.35 px" style="stroke-width:0.35;stroke-miterlimit:4;stroke-dasharray:none;fill:none;fill-opacity:1;fill-rule: evenodd"/>
<path id="Shape2DView_nwe0068"  d="M 3.1999999999999997 8.99999999999978 Q 3.0194556562952863 8.983885221204822 3.0000000000000013 8.799999999999779 " stroke="#191919" stroke-width="0.35 px" style="stroke-width:0.35;stroke-miterlimit:4;stroke-dasharray:none;fill:none;fill-opacity:1;fill-rule: evenodd"/>
<path id="Shape2DView_nwe0069"  d="M 3.2 -8.99999999999978 Q 3.0194556562952863 -8.983885221204826 3.0000000000000018 -8.799999999999779 " stroke="#191919" stroke-width="0.35 px" style="stroke-width:0.35;stroke-miterlimit:4;stroke-dasharray:none;fill:none;fill-opacity:1;fill-rule: evenodd"/>
<path id="Shape2DView_nwe0070"  d="M 3.2 -9.0 L 4.064979141118463 -9.0 " stroke="#191919" stroke-width="0.35 px" style="stroke-width:0.35;stroke-miterlimit:4;stroke-dasharray:none;fill:none;fill-opacity:1;fill-rule: evenodd"/>
<path id="Shape2DView_nwe0071"  d="M 3.1999999999999997 9.0 L 4.064979141118348 9.0 " stroke="#191919" stroke-width="0.35 px" style="stroke-width:0.35;stroke-miterlimit:4;stroke-dasharray:none;fill:none;fill-opacity:1;fill-rule: evenodd"/>
<path id="Shape2DView_nwe0072"  d="M 4.269338405670252 8.919612146375092 L 4.064979141130214 8.99998168085823 " stroke="#191919" stroke-width="0.35 px" style="stroke-width:0.35;stroke-miterlimit:4;stroke-dasharray:none;fill:none;fill-opacity:1;fill-rule: evenodd"/>
<path id="Shape2DView_nwe0073"  d="M 4.269338405669847 -8.9196121463715 L 4.064979141130328 -8.999981680854004 " stroke="#191919" stroke-width="0.35 px" style="stroke-width:0.35;stroke-miterlimit:4;stroke-dasharray:none;fill:none;fill-opacity:1;fill-rule: evenodd"/>
<path id="Shape2DView_nwe0074"  d="M 4.269347158530456 8.91962175301716 Q 4.594551032650076 8.66134566908212 4.930652841469664 8.919621753017267 " stroke="#191919" stroke-width="0.35 px" style="stroke-width:0.35;stroke-miterlimit:4;stroke-dasharray:none;fill:none;fill-opacity:1;fill-rule: evenodd"/>
<path id="Shape2DView_nwe0075"  d="M 4.2693471585320175 -8.919621753015711 Q 4.594551032653154 -8.66134566908314 4.930652841468913 -8.919621753016573 " stroke="#191919" stroke-width="0.35 px" style="stroke-width:0.35;stroke-miterlimit:4;stroke-dasharray:none;fill:none;fill-opacity:1;fill-rule: evenodd"/>
<path id="Shape2DView_nwe0076"  d="M 5.135020858869812 8.999981680858038 L 4.930661594329864 8.919612146375016 " stroke="#191919" stroke-width="0.35 px" style="stroke-width:0.35;stroke-miterlimit:4;stroke-dasharray:none;fill:none;fill-opacity:1;fill-rule: evenodd"/>
<path id="Shape2DView_nwe0077"  d="M 5.135020858869768 -8.99998168085626 L 4.930661594329618 -8.91961214637325 " stroke="#191919" stroke-width="0.35 px" style="stroke-width:0.35;stroke-miterlimit:4;stroke-dasharray:none;fill:none;fill-opacity:1;fill-rule: evenodd"/>
<path id="Shape2DView_nwe0078"  d="M 5.135020858881632 -9.0 L 40.800000000000004 -9.0 " stroke="#191919" stroke-width="0.35 px" style="stroke-width:0.35;stroke-miterlimit:4;stroke-dasharray:none;fill:none;fill-opacity:1;fill-rule: evenodd"/>
<path id="Shape2DView_nwe0079"  d="M 5.135020858881677 9.0 L 40.800000000000004 9.0 " stroke="#191919" stroke-width="0.35 px" style="stroke-width:0.35;stroke-miterlimit:4;stroke-dasharray:none;fill:none;fill-opacity:1;fill-rule: evenodd"/>
<path id="Shape2DView_nwe0080"  d="M 40.8 9.0 Q 40.980544343704715 8.983885221205044 41.0 8.8 " stroke="#191919" stroke-width="0.35 px" style="stroke-width:0.35;stroke-miterlimit:4;stroke-dasharray:none;fill:none;fill-opacity:1;fill-rule: evenodd"/>
<path id="Shape2DView_nwe0081"  d="M 40.8 -9.0 Q 40.980544343704715 -8.983885221205044 41.0 -8.8 " stroke="#191919" stroke-width="0.35 px" style="stroke-width:0.35;stroke-miterlimit:4;stroke-dasharray:none;fill:none;fill-opacity:1;fill-rule: evenodd"/>
<path id="Shape2DView_nwe0082"  d="M 2.6 -2.25 L 2.9899999999999984 -2.25 " stroke="#191919" stroke-width="0.35 px" style="stroke-width:0.35;stroke-miterlimit:4;stroke-dasharray:none;fill:none;fill-opacity:1;fill-rule: evenodd"/>
<path id="Shape2DView_nwe0083"  d="M 2.6 2.25 L 2.9899999999999984 2.25 " stroke="#191919" stroke-width="0.35 px" style="stroke-width:0.35;stroke-miterlimit:4;stroke-dasharray:none;fill:none;fill-opacity:1;fill-rule: evenodd"/>
<path id="Shape2DView_nwe0084"  d="M 41.5 2.25 L 41.01 2.25 " stroke="#191919" stroke-width="0.35 px" style="stroke-width:0.35;stroke-miterlimit:4;stroke-dasharray:none;fill:none;fill-opacity:1;fill-rule: evenodd"/>
<path id="Shape2DView_nwe0085"  d="M 41.5 -2.25 L 41.01 -2.25 " stroke="#191919" stroke-width="0.35 px" style="stroke-width:0.35;stroke-miterlimit:4;stroke-dasharray:none;fill:none;fill-opacity:1;fill-rule: evenodd"/>
<path id="Shape2DView_nwe0086"  d="M 2.6 -0.45 L 0.9 -0.45 " stroke="#191919" stroke-width="0.35 px" style="stroke-width:0.35;stroke-miterlimit:4;stroke-dasharray:none;fill:none;fill-opacity:1;fill-rule: evenodd"/>
<path id="Shape2DView_nwe0087"  d="M 43.1 -0.45 L 41.5 -0.45 " stroke="#191919" stroke-width="0.35 px" style="stroke-width:0.35;stroke-miterlimit:4;stroke-dasharray:none;fill:none;fill-opacity:1;fill-rule: evenodd"/>
<path id="Shape2DView_nwe0088"  d="M 43.10000000000001 -0.44999999999999934 Q 43.91998593797689 -0.44999999999999996 44.0 -0.45 " stroke="#191919" stroke-width="0.35 px" style="stroke-width:0.35;stroke-miterlimit:4;stroke-dasharray:none;fill:none;fill-opacity:1;fill-rule: evenodd"/>
<title>b'Shape2DView'</title>
</g>
<g id="Rectangle" transform="translate(0.895653,9.448934) scale(1,-1)">
<rect fill="#ff0000" id="origin" width="1" height="1" x="0" y="0" />
<title>b'Rectangle'</title>
</g>
</svg>