<?xml version="1.0"?>
<!DOCTYPE svg PUBLIC "-//W3C//DTD SVG 1.1//EN" "http://www.w3.org/Graphics/SVG/1.1/DTD/svg11.dtd">
<svg width="44.77130674642201mm" height="13.877868759733765mm" viewBox="0 0 44.77130674642201 13.877868759733765" xmlns="http://www.w3.org/2000/svg" version="1.1">
<g id="Shape2DView" transform="translate(0.885653,6.938934) scale(1,-1)">
<path id="Shape2DView_nwe0000"  d="M 3.2 2.491269144697 L 4.064979142851 2.491269144697 " stroke="#191919" stroke-width="0.35 px" style="stroke-width:0.35;stroke-miterlimit:4;stroke-dasharray:none;fill:none;fill-opacity:1;fill-rule: evenodd"/>
<path id="Shape2DView_nwe0001"  d="M 3.2 -2.491269144697 L 4.064979142851 -2.491269144697 " stroke="#191919" stroke-width="0.35 px" style="stroke-width:0.35;stroke-miterlimit:4;stroke-dasharray:none;fill:none;fill-opacity:1;fill-rule: evenodd"/>
<path id="Shape2DView_nwe0002"  d="M 4.064979142851 -2.491269144697 L 4.269338405373 -2.460512837965 " stroke="#191919" stroke-width="0.35 px" style="stroke-width:0.35;stroke-miterlimit:4;stroke-dasharray:none;fill:none;fill-opacity:1;fill-rule: evenodd"/>
<path id="Shape2DView_nwe0003"  d="M 4.269338405372611 -2.4605128379650223 A 0.485412 0.185759 -180 0 0 4.93066 -2.46051" stroke="#191919" stroke-width="0.35 px" style="stroke-width:0.35;stroke-miterlimit:4;stroke-dasharray:none;fill:none;fill-opacity:1;fill-rule: evenodd"/>
<path id="Shape2DView_nwe0004"  d="M 4.930661594627 -2.460512837965 L 5.135020857149 -2.491269144697 " stroke="#191919" stroke-width="0.35 px" style="stroke-width:0.35;stroke-miterlimit:4;stroke-dasharray:none;fill:none;fill-opacity:1;fill-rule: evenodd"/>
<path id="Shape2DView_nwe0005"  d="M 5.135020857149 -2.491269144697 L 39.8 -2.491269144697 " stroke="#191919" stroke-width="0.35 px" style="stroke-width:0.35;stroke-miterlimit:4;stroke-dasharray:none;fill:none;fill-opacity:1;fill-rule: evenodd"/>
<path id="Shape2DView_nwe0006"  d="M 39.8 -2.491269144696674 A 0.21 0.0803635 5.26972e-15 0 1 40.01 -2.41091" stroke="#191919" stroke-width="0.35 px" style="stroke-width:0.35;stroke-miterlimit:4;stroke-dasharray:none;fill:none;fill-opacity:1;fill-rule: evenodd"/>
<path id="Shape2DView_nwe0007"  d="M 4.26933840537242 -2.4566860036410905 A 0.485412 0.185759 -180 0 0 4.93066 -2.45669" stroke="#191919" stroke-width="0.35 px" style="stroke-width:0.35;stroke-miterlimit:4;stroke-dasharray:none;fill:none;fill-opacity:1;fill-rule: evenodd"/>
<path id="Shape2DView_nwe0008"  d="M 2.99 -2.4109056238999997 A 0.21 0.0803635 5.26972e-15 0 1 3.2 -2.49127" stroke="#191919" stroke-width="0.35 px" style="stroke-width:0.35;stroke-miterlimit:4;stroke-dasharray:none;fill:none;fill-opacity:1;fill-rule: evenodd"/>
<path id="Shape2DView_nwe0009"  d="M 4.064979142851 2.491269144697 L 4.269338405373 2.460512837965 " stroke="#191919" stroke-width="0.35 px" style="stroke-width:0.35;stroke-miterlimit:4;stroke-dasharray:none;fill:none;fill-opacity:1;fill-rule: evenodd"/>
<path id="Shape2DView_nwe0010"  d="M 2.989999999999999 -2.4109056239002213 L 2.989999999999999 -2.080758090317702 L 2.989999999999999 -1.7440637219766928 L 2.989999999999999 -1.4018818839249145 L 2.989999999999999 -1.0552892068199635 L 2.989999999999999 -0.7053761994509544 L 2.989999999999999 -0.3532438175944135 L 2.989999999999999 -9.50350909079134e-14 L 2.989999999999999 0.3532438175942243 L 2.989999999999999 0.7053761994507668 L 2.989999999999999 1.0552892068197774 L 2.989999999999999 1.4018818839247293 L 2.989999999999999 1.7440637219765105 L 2.989999999999999 2.0807580903175227 L 2.989999999999999 2.410905623900047 " stroke="#191919" stroke-width="0.35 px" style="stroke-width:0.35;stroke-miterlimit:4;stroke-dasharray:none;fill:none;fill-opacity:1;fill-rule: evenodd"/>
<path id="Shape2DView_nwe0011"  d="M 2.99 2.4109056238999997 A 0.21 0.0803635 -5.26972e-15 0 0 3.2 2.49127" stroke="#191919" stroke-width="0.35 px" style="stroke-width:0.35;stroke-miterlimit:4;stroke-dasharray:none;fill:none;fill-opacity:1;fill-rule: evenodd"/>
<path id="Shape2DView_nwe0012"  d="M 4.269338405372611 2.4605128379650223 A 0.485412 0.185759 180 0 1 4.93066 2.46051" stroke="#191919" stroke-width="0.35 px" style="stroke-width:0.35;stroke-miterlimit:4;stroke-dasharray:none;fill:none;fill-opacity:1;fill-rule: evenodd"/>
<path id="Shape2DView_nwe0013"  d="M 4.930661594627 2.460512837965 L 5.135020857149 2.491269144697 " stroke="#191919" stroke-width="0.35 px" style="stroke-width:0.35;stroke-miterlimit:4;stroke-dasharray:none;fill:none;fill-opacity:1;fill-rule: evenodd"/>
<path id="Shape2DView_nwe0014"  d="M 5.135020857149 2.491269144697 L 39.8 2.491269144697 " stroke="#191919" stroke-width="0.35 px" style="stroke-width:0.35;stroke-miterlimit:4;stroke-dasharray:none;fill:none;fill-opacity:1;fill-rule: evenodd"/>
<path id="Shape2DView_nwe0015"  d="M 39.8 2.491269144696674 A 0.21 0.0803635 -5.26972e-15 0 0 40.01 2.41091" stroke="#191919" stroke-width="0.35 px" style="stroke-width:0.35;stroke-miterlimit:4;stroke-dasharray:none;fill:none;fill-opacity:1;fill-rule: evenodd"/>
<path id="Shape2DView_nwe0016"  d="M 4.26933840537242 2.4566860036410905 A 0.485412 0.185759 180 0 1 4.93066 2.45669" stroke="#191919" stroke-width="0.35 px" style="stroke-width:0.35;stroke-miterlimit:4;stroke-dasharray:none;fill:none;fill-opacity:1;fill-rule: evenodd"/>
<path id="Shape2DView_nwe0017"  d="M 2.9999999999999987 2.4354093195104087 L 2.9999999999999987 2.913463493847082 L 2.9999999999999987 3.371046193384437 L 2.9999999999999987 3.8049422095839187 L 2.9999999999999987 4.2121027685789905 L 2.999999999999999 4.589666953409356 L 2.999999999999999 4.934981806277125 L 2.999999999999999 5.245620969576221 L 2.999999999999999 5.519401734713733 L 2.9999999999999996 5.7544003789294855 L 2.9999999999999996 5.9489656823495745 L 2.9999999999999996 6.101730530296159 L 2.9999999999999996 6.2116215193298085 L 3.0 6.277866499527438 L 3.0 6.3 " stroke="#191919" stroke-width="0.35 px" style="stroke-width:0.35;stroke-miterlimit:4;stroke-dasharray:none;fill:none;fill-opacity:1;fill-rule: evenodd"/>
<path id="Shape2DView_nwe0018"  d="M 3.0 6.3 L 3.0 6.2906267389433586 L 3.0 6.2625348472092535 L 3.0 6.215807916110321 L 3.0000000000000004 6.150584988098487 L 3.0000000000000004 6.067060143024903 L 3.0000000000000004 5.965481920628489 L 3.0000000000000004 5.846152580971525 L 3.0000000000000004 5.709427205023004 L 3.0000000000000004 5.555712638066046 L 3.000000000000001 5.385466279073446 L 3.000000000000001 5.199194719653703 L 3.000000000000001 4.997452236617571 L 3.000000000000001 4.780839142650671 L 3.000000000000001 4.55 " stroke="#191919" stroke-width="0.35 px" style="stroke-width:0.35;stroke-miterlimit:4;stroke-dasharray:none;fill:none;fill-opacity:1;fill-rule: evenodd"/>
<path id="Shape2DView_nwe0019"  d="M 3.000000000000001 -4.549999999999999 L 3.000000000000001 -4.780839142650686 L 3.000000000000001 -4.997452236617602 L 3.000000000000001 -5.199194719653748 L 3.000000000000001 -5.3854662790735 L 3.000000000000001 -5.55571263806611 L 3.000000000000001 -5.709427205023072 L 3.0000000000000004 -5.846152580971596 L 3.0000000000000004 -5.965481920628559 L 3.0000000000000004 -6.067060143024969 L 3.0000000000000004 -6.150584988098547 L 3.0000000000000004 -6.215807916110373 L 3.0 -6.262534847209292 L 3.0 -6.290626738943379 L 3.0 -6.300000000000001 " stroke="#191919" stroke-width="0.35 px" style="stroke-width:0.35;stroke-miterlimit:4;stroke-dasharray:none;fill:none;fill-opacity:1;fill-rule: evenodd"/>
<path id="Shape2DView_nwe0020"  d="M 3.0 -6.300000000000001 L 3.0 -6.277866499527407 L 3.0 -6.211621519329752 L 2.9999999999999996 -6.101730530296081 L 2.9999999999999996 -5.948965682349479 L 2.9999999999999996 -5.754400378929378 L 2.999999999999999 -5.51940173471362 L 2.999999999999999 -5.245620969576105 L 2.999999999999999 -4.934981806277011 L 2.999999999999999 -4.58966695340925 L 2.999999999999999 -4.212102768578894 L 2.9999999999999987 -3.804942209583837 L 2.9999999999999987 -3.371046193384373 L 2.9999999999999987 -2.913463493847039 L 2.9999999999999987 -2.4354093195104083 " stroke="#191919" stroke-width="0.35 px" style="stroke-width:0.35;stroke-miterlimit:4;stroke-dasharray:none;fill:none;fill-opacity:1;fill-rule: evenodd"/>
<path id="Shape2DView_nwe0021"  d="M 40.0 2.4354093195104074 L 40.0 2.9134634938470945 L 40.0 3.3710461933844615 L 40.0 3.8049422095839547 L 40.0 4.212102768579033 L 40.0 4.589666953409408 L 40.0 4.934981806277181 L 40.0 5.245620969576279 L 40.0 5.519401734713791 L 40.0 5.7544003789295415 L 40.0 5.948965682349624 L 40.0 6.1017305302962015 L 40.0 6.211621519329839 L 40.0 6.2778664995274545 L 40.0 6.3 " stroke="#191919" stroke-width="0.35 px" style="stroke-width:0.35;stroke-miterlimit:4;stroke-dasharray:none;fill:none;fill-opacity:1;fill-rule: evenodd"/>
<path id="Shape2DView_nwe0022"  d="M 40.0 6.3 L 40.0 6.290626738943347 L 40.0 6.262534847209234 L 40.0 6.215807916110294 L 40.0 6.150584988098454 L 40.0 6.067060143024865 L 40.0 5.965481920628449 L 40.0 5.846152580971484 L 40.0 5.709427205022965 L 40.0 5.5557126380660105 L 40.0 5.385466279073413 L 40.0 5.199194719653677 L 40.0 4.997452236617551 L 40.0 4.780839142650661 L 40.0 4.55 " stroke="#191919" stroke-width="0.35 px" style="stroke-width:0.35;stroke-miterlimit:4;stroke-dasharray:none;fill:none;fill-opacity:1;fill-rule: evenodd"/>
<path id="Shape2DView_nwe0023"  d="M 40.0 -4.549999999999999 L 40.0 -4.780839142650658 L 40.0 -4.997452236617547 L 40.0 -5.199194719653672 L 40.0 -5.385466279073408 L 40.0 -5.555712638066003 L 40.0 -5.709427205022958 L 40.0 -5.846152580971479 L 40.0 -5.965481920628443 L 40.0 -6.067060143024861 L 40.0 -6.1505849880984504 L 40.0 -6.215807916110292 L 40.0 -6.262534847209232 L 40.0 -6.290626738943346 L 40.0 -6.3 " stroke="#191919" stroke-width="0.35 px" style="stroke-width:0.35;stroke-miterlimit:4;stroke-dasharray:none;fill:none;fill-opacity:1;fill-rule: evenodd"/>
<path id="Shape2DView_nwe0024"  d="M 40.0 -6.3 L 40.0 -6.277866499527456 L 40.0 -6.2116215193298405 L 40.0 -6.1017305302962015 L 40.0 -5.948965682349624 L 40.0 -5.75440037892954 L 40.0 -5.519401734713789 L 40.0 -5.245620969576276 L 40.0 -4.934981806277174 L 40.0 -4.589666953409399 L 40.0 -4.212102768579022 L 40.0 -3.8049422095839387 L 40.0 -3.371046193384443 L 40.0 -2.9134634938470723 L 40.0 -2.435409319510408 " stroke="#191919" stroke-width="0.35 px" style="stroke-width:0.35;stroke-miterlimit:4;stroke-dasharray:none;fill:none;fill-opacity:1;fill-rule: evenodd"/>
<path id="Shape2DView_nwe0025"  d="M 40.01 -2.4109056239002213 L 40.01 -2.080758090317702 L 40.01 -1.7440637219766928 L 40.01 -1.4018818839249145 L 40.01 -1.0552892068199635 L 40.01 -0.7053761994509544 L 40.01 -0.3532438175944135 L 40.01 -9.50350909079134e-14 L 40.01 0.3532438175942243 L 40.01 0.7053761994507668 L 40.01 1.0552892068197774 L 40.01 1.4018818839247293 L 40.01 1.7440637219765105 L 40.01 2.0807580903175227 L 40.01 2.410905623900047 " stroke="#191919" stroke-width="0.35 px" style="stroke-width:0.35;stroke-miterlimit:4;stroke-dasharray:none;fill:none;fill-opacity:1;fill-rule: evenodd"/>
<path id="Shape2DView_nwe0026"  d="M 2.766666666667 1.625 L 2.766666666667 1.5842578572954633 L 2.766666666667 1.4640744103414312 L 2.7666666666669997 1.2704761590105487 L 2.7666666666669997 1.0131709280204422 L 2.7666666666669997 0.7050610760660321 L 2.7666666666669997 0.3615965176790111 L 2.7666666666669997 1.9900510486144489e-16 L 2.7666666666669997 -0.3615965176790107 L 2.7666666666669997 -0.7050610760660317 L 2.7666666666669997 -1.0131709280204417 L 2.7666666666669997 -1.2704761590105482 L 2.766666666667 -1.464074410341431 L 2.766666666667 -1.5842578572954633 L 2.766666666667 -1.625 " stroke="#191919" stroke-width="0.35 px" style="stroke-width:0.35;stroke-miterlimit:4;stroke-dasharray:none;fill:none;fill-opacity:1;fill-rule: evenodd"/>
<path id="Shape2DView_nwe0027"  d="M 9.14 -0.65 Q 8.60797543396237 -0.6459572156703178 8.5 -0.010000000000000009 " stroke="#191919" stroke-width="0.35 px" style="stroke-width:0.35;stroke-miterlimit:4;stroke-dasharray:none;fill:none;fill-opacity:1;fill-rule: evenodd"/>
<path id="Shape2DView_nwe0028"  d="M 8.499999999999998 0.009999999999998899 L 8.499999999999998 0.00857142946573397 L 8.499999999999998 0.007142858518710771 L 8.499999999999998 0.005714287227723158 L 8.499999999999998 0.004285715661563216 L 8.499999999999998 0.0028571438890239165 L 8.499999999999998 0.001428571978898674 L 8.499999999999998 -1.9984014443252818e-14 L 8.499999999999998 -0.0014285719789381979 L 8.499999999999998 -0.0028571438890629963 L 8.499999999999998 -0.004285715661602296 L 8.499999999999998 -0.005714287227762238 L 8.499999999999998 -0.007142858518750295 L 8.499999999999998 -0.008571429465773495 L 8.499999999999998 -0.00999999999999801 " stroke="#191919" stroke-width="0.35 px" style="stroke-width:0.35;stroke-miterlimit:4;stroke-dasharray:none;fill:none;fill-opacity:1;fill-rule: evenodd"/>
<path id="Shape2DView_nwe0029"  d="M 9.14 0.65 Q 8.607975433953602 0.6459572156616126 8.5 0.010000000000000009 " stroke="#191919" stroke-width="0.35 px" style="stroke-width:0.35;stroke-miterlimit:4;stroke-dasharray:none;fill:none;fill-opacity:1;fill-rule: evenodd"/>
<path id="Shape2DView_nwe0030"  d="M 9.14 0.65 L 13.06 0.65 " stroke="#191919" stroke-width="0.35 px" style="stroke-width:0.35;stroke-miterlimit:4;stroke-dasharray:none;fill:none;fill-opacity:1;fill-rule: evenodd"/>
<path id="Shape2DView_nwe0031"  d="M 13.06 0.65 Q 13.592024566050679 0.6459572156573078 13.699999999999998 0.010000000000000009 " stroke="#191919" stroke-width="0.35 px" style="stroke-width:0.35;stroke-miterlimit:4;stroke-dasharray:none;fill:none;fill-opacity:1;fill-rule: evenodd"/>
<path id="Shape2DView_nwe0032"  d="M 13.699999999999998 0.009999999999998899 L 13.699999999999998 0.00857142946573397 L 13.699999999999998 0.007142858518710771 L 13.699999999999998 0.005714287227723158 L 13.699999999999998 0.004285715661563216 L 13.699999999999998 0.0028571438890239165 L 13.699999999999998 0.001428571978898674 L 13.699999999999998 -1.9984014443252818e-14 L 13.699999999999998 -0.0014285719789381979 L 13.699999999999998 -0.0028571438890629963 L 13.699999999999998 -0.004285715661602296 L 13.699999999999998 -0.005714287227762238 L 13.699999999999998 -0.007142858518750295 L 13.699999999999998 -0.008571429465773495 L 13.699999999999998 -0.00999999999999801 " stroke="#191919" stroke-width="0.35 px" style="stroke-width:0.35;stroke-miterlimit:4;stroke-dasharray:none;fill:none;fill-opacity:1;fill-rule: evenodd"/>
<path id="Shape2DView_nwe0033"  d="M 13.06 -0.65 Q 13.592024566033272 -0.6459572156747263 13.7 -0.010000000000000009 " stroke="#191919" stroke-width="0.35 px" style="stroke-width:0.35;stroke-miterlimit:4;stroke-dasharray:none;fill:none;fill-opacity:1;fill-rule: evenodd"/>
<path id="Shape2DView_nwe0034"  d="M 9.14 -0.65 L 13.06 -0.65 " stroke="#191919" stroke-width="0.35 px" style="stroke-width:0.35;stroke-miterlimit:4;stroke-dasharray:none;fill:none;fill-opacity:1;fill-rule: evenodd"/>
<path id="Shape2DView_nwe0035"  d="M 19.54 -0.65 Q 19.007975433953803 -0.6459572156617318 18.9 -0.010000000000000009 " stroke="#191919" stroke-width="0.35 px" style="stroke-width:0.35;stroke-miterlimit:4;stroke-dasharray:none;fill:none;fill-opacity:1;fill-rule: evenodd"/>
<path id="Shape2DView_nwe0036"  d="M 18.9 0.009999999999998899 L 18.9 0.00857142946573397 L 18.9 0.007142858518710771 L 18.9 0.005714287227723158 L 18.9 0.004285715661563216 L 18.9 0.0028571438890239165 L 18.9 0.001428571978898674 L 18.9 -1.9984014443252818e-14 L 18.9 -0.0014285719789381979 L 18.9 -0.0028571438890629963 L 18.9 -0.004285715661602296 L 18.9 -0.005714287227762238 L 18.9 -0.007142858518750295 L 18.9 -0.008571429465773495 L 18.9 -0.00999999999999801 " stroke="#191919" stroke-width="0.35 px" style="stroke-width:0.35;stroke-miterlimit:4;stroke-dasharray:none;fill:none;fill-opacity:1;fill-rule: evenodd"/>
<path id="Shape2DView_nwe0037"  d="M 19.54 0.65 Q 19.00797543396073 0.6459572156693144 18.9 0.010000000000000009 " stroke="#191919" stroke-width="0.35 px" style="stroke-width:0.35;stroke-miterlimit:4;stroke-dasharray:none;fill:none;fill-opacity:1;fill-rule: evenodd"/>
<path id="Shape2DView_nwe0038"  d="M 19.54 0.65 L 23.46 0.65 " stroke="#191919" stroke-width="0.35 px" style="stroke-width:0.35;stroke-miterlimit:4;stroke-dasharray:none;fill:none;fill-opacity:1;fill-rule: evenodd"/>
<path id="Shape2DView_nwe0039"  d="M 23.46 0.65 Q 23.99202456603994 0.6459572156681136 24.1 0.010000000000000009 " stroke="#191919" stroke-width="0.35 px" style="stroke-width:0.35;stroke-miterlimit:4;stroke-dasharray:none;fill:none;fill-opacity:1;fill-rule: evenodd"/>
<path id="Shape2DView_nwe0040"  d="M 24.1 0.009999999999998899 L 24.1 0.00857142946573397 L 24.1 0.007142858518710771 L 24.1 0.005714287227723158 L 24.1 0.004285715661563216 L 24.1 0.0028571438890239165 L 24.1 0.001428571978898674 L 24.1 -1.9984014443252818e-14 L 24.1 -0.0014285719789381979 L 24.1 -0.0028571438890629963 L 24.1 -0.004285715661602296 L 24.1 -0.005714287227762238 L 24.1 -0.007142858518750295 L 24.1 -0.008571429465773495 L 24.1 -0.00999999999999801 " stroke="#191919" stroke-width="0.35 px" style="stroke-width:0.35;stroke-miterlimit:4;stroke-dasharray:none;fill:none;fill-opacity:1;fill-rule: evenodd"/>
<path id="Shape2DView_nwe0041"  d="M 23.46 -0.65 Q 23.992024566046606 -0.6459572156617491 24.1 -0.010000000000000009 " stroke="#191919" stroke-width="0.35 px" style="stroke-width:0.35;stroke-miterlimit:4;stroke-dasharray:none;fill:none;fill-opacity:1;fill-rule: evenodd"/>
<path id="Shape2DView_nwe0042"  d="M 19.54 -0.65 L 23.46 -0.65 " stroke="#191919" stroke-width="0.35 px" style="stroke-width:0.35;stroke-miterlimit:4;stroke-dasharray:none;fill:none;fill-opacity:1;fill-rule: evenodd"/>
<path id="Shape2DView_nwe0043"  d="M 29.94 -0.65 Q 29.40797543395461 -0.6459572156626164 29.3 -0.010000000000000009 " stroke="#191919" stroke-width="0.35 px" style="stroke-width:0.35;stroke-miterlimit:4;stroke-dasharray:none;fill:none;fill-opacity:1;fill-rule: evenodd"/>
<path id="Shape2DView_nwe0044"  d="M 29.3 0.009999999999998899 L 29.3 0.00857142946573397 L 29.3 0.007142858518710771 L 29.3 0.005714287227723158 L 29.3 0.004285715661563216 L 29.3 0.0028571438890239165 L 29.3 0.001428571978898674 L 29.3 -1.9984014443252818e-14 L 29.3 -0.0014285719789381979 L 29.3 -0.0028571438890629963 L 29.3 -0.004285715661602296 L 29.3 -0.005714287227762238 L 29.3 -0.007142858518750295 L 29.3 -0.008571429465773495 L 29.3 -0.00999999999999801 " stroke="#191919" stroke-width="0.35 px" style="stroke-width:0.35;stroke-miterlimit:4;stroke-dasharray:none;fill:none;fill-opacity:1;fill-rule: evenodd"/>
<path id="Shape2DView_nwe0045"  d="M 29.94 0.65 Q 29.407975433963124 0.6459572156710688 29.3 0.010000000000000009 " stroke="#191919" stroke-width="0.35 px" style="stroke-width:0.35;stroke-miterlimit:4;stroke-dasharray:none;fill:none;fill-opacity:1;fill-rule: evenodd"/>
<path id="Shape2DView_nwe0046"  d="M 29.94 0.65 L 33.86 0.65 " stroke="#191919" stroke-width="0.35 px" style="stroke-width:0.35;stroke-miterlimit:4;stroke-dasharray:none;fill:none;fill-opacity:1;fill-rule: evenodd"/>
<path id="Shape2DView_nwe0047"  d="M 33.86 0.65 Q 34.39202456603994 0.6459572156681136 34.5 0.010000000000000009 " stroke="#191919" stroke-width="0.35 px" style="stroke-width:0.35;stroke-miterlimit:4;stroke-dasharray:none;fill:none;fill-opacity:1;fill-rule: evenodd"/>
<path id="Shape2DView_nwe0048"  d="M 34.5 0.009999999999998899 L 34.5 0.00857142946573397 L 34.5 0.007142858518710771 L 34.5 0.005714287227723158 L 34.5 0.004285715661563216 L 34.5 0.0028571438890239165 L 34.5 0.001428571978898674 L 34.5 -1.9984014443252818e-14 L 34.5 -0.0014285719789381979 L 34.5 -0.0028571438890629963 L 34.5 -0.004285715661602296 L 34.5 -0.005714287227762238 L 34.5 -0.007142858518750295 L 34.5 -0.008571429465773495 L 34.5 -0.00999999999999801 " stroke="#191919" stroke-width="0.35 px" style="stroke-width:0.35;stroke-miterlimit:4;stroke-dasharray:none;fill:none;fill-opacity:1;fill-rule: evenodd"/>
<path id="Shape2DView_nwe0049"  d="M 33.86 -0.65 Q 34.39202456604661 -0.6459572156617491 34.5 -0.010000000000000009 " stroke="#191919" stroke-width="0.35 px" style="stroke-width:0.35;stroke-miterlimit:4;stroke-dasharray:none;fill:none;fill-opacity:1;fill-rule: evenodd"/>
<path id="Shape2DView_nwe0050"  d="M 29.94 -0.65 L 33.86 -0.65 " stroke="#191919" stroke-width="0.35 px" style="stroke-width:0.35;stroke-miterlimit:4;stroke-dasharray:none;fill:none;fill-opacity:1;fill-rule: evenodd"/>
<path id="Shape2DView_nwe0051"  d="M 40.333333333333 1.625 L 40.333333333333 1.5842578572954633 L 40.333333333333 1.4640744103414312 L 40.333333333333 1.2704761590105487 L 40.333333333333 1.0131709280204422 L 40.333333333333 0.7050610760660321 L 40.333333333333 0.3615965176790111 L 40.333333333333 1.9900510486144489e-16 L 40.333333333333 -0.3615965176790107 L 40.333333333333 -0.7050610760660317 L 40.333333333333 -1.0131709280204417 L 40.333333333333 -1.2704761590105482 L 40.333333333333 -1.464074410341431 L 40.333333333333 -1.5842578572954633 L 40.333333333333 -1.625 " stroke="#191919" stroke-width="0.35 px" style="stroke-width:0.35;stroke-miterlimit:4;stroke-dasharray:none;fill:none;fill-opacity:1;fill-rule: evenodd"/>
<path id="Shape2DView_nwe0052"  d="M 0.9 0.45 L 2.766666666667 0.45 " stroke="#191919" stroke-width="0.35 px" style="stroke-width:0.35;stroke-miterlimit:4;stroke-dasharray:none;fill:none;fill-opacity:1;fill-rule: evenodd"/>
<path id="Shape2DView_nwe0053"  d="M 0.0 -0.4500000000000001 L 0.00565901109608169 -0.4500000000000001 L 0.02256487903635873 -0.4500000000000001 L 0.05050500272246916 -0.4500000000000001 L 0.08912801888782274 -0.4500000000000001 L 0.13794822069454427 -0.4500000000000001 L 0.19635166577877317 -0.45000000000000007 L 0.2636038969321072 -0.45000000000000007 L 0.33885917832713974 -0.45000000000000007 L 0.4211711311361971 -0.45000000000000007 L 0.5095046347941976 -0.45000000000000007 L 0.6027488442403496 -0.45000000000000007 L 0.699731159439317 -0.45 L 0.7992319715070229 -0.45 L 0.9 -0.45 " stroke="#191919" stroke-width="0.35 px" style="stroke-width:0.35;stroke-miterlimit:4;stroke-dasharray:none;fill:none;fill-opacity:1;fill-rule: evenodd"/>
<circle cx="1.165734175856e-15" cy="0.0" r="0.45" stroke="#191919" stroke-width="0.35 px" style="stroke-width:0.35;stroke-miterlimit:4;stroke-dasharray:none;fill:none"/>
<path id="Shape2DView_nwe0055"  d="M 40.333333333333 0.45 L 42.1 0.45 " stroke="#191919" stroke-width="0.35 px" style="stroke-width:0.35;stroke-miterlimit:4;stroke-dasharray:none;fill:none;fill-opacity:1;fill-rule: evenodd"/>
<path id="Shape2DView_nwe0056"  d="M 43.0 0.45 L 42.99434098890392 0.45 L 42.97743512096364 0.45 L 42.94949499727753 0.45 L 42.91087198111218 0.45 L 42.86205177930546 0.45 L 42.80364833422123 0.45 L 42.7363961030679 0.45 L 42.66114082167286 0.45 L 42.5788288688638 0.45 L 42.4904953652058 0.45 L 42.397251155759655 0.45 L 42.30026884056068 0.45 L 42.20076802849298 0.45 L 42.1 0.45 " stroke="#191919" stroke-width="0.35 px" style="stroke-width:0.35;stroke-miterlimit:4;stroke-dasharray:none;fill:none;fill-opacity:1;fill-rule: evenodd"/>
<path id="Shape2DView_nwe0057"  d="M 43.0 -0.45 A 0.45 0.45 0 0 1 43 0.45" stroke="#191919" stroke-width="0.35 px" style="stroke-width:0.35;stroke-miterlimit:4;stroke-dasharray:none;fill:none;fill-opacity:1;fill-rule: evenodd"/>
<path id="Shape2DView_nwe0058"  d="M 4.064979142851 -2.491269146698508 L 4.064979142851 2.4912691466987176 " stroke="#191919" stroke-width="0.35 px" style="stroke-width:0.35;stroke-miterlimit:4;stroke-dasharray:none;fill:none;fill-opacity:1;fill-rule: evenodd"/>
<path id="Shape2DView_nwe0059"  d="M 3.199999999999999 -2.4912691446968958 L 3.199999999999999 -2.150116693328262 L 3.199999999999999 -1.802199179375854 L 3.199999999999999 -1.448611280055651 L 3.199999999999999 -1.0904655137138364 L 3.199999999999999 -0.7288887394324934 L 3.199999999999999 -0.36501861151403503 L 3.199999999999999 1.2656542480726785e-13 L 3.199999999999999 0.3650186115142877 L 3.199999999999999 0.7288887394327457 L 3.199999999999999 1.0904655137140864 L 3.199999999999999 1.4486112800558986 L 3.199999999999999 1.8021991793760987 L 3.199999999999999 2.1501166933285027 L 3.199999999999999 2.4912691446971307 " stroke="#191919" stroke-width="0.35 px" style="stroke-width:0.35;stroke-miterlimit:4;stroke-dasharray:none;fill:none;fill-opacity:1;fill-rule: evenodd"/>
<path id="Shape2DView_nwe0060"  d="M 4.269338405373 -2.4605128359879163 L 4.269338405373 2.460512835988035 " stroke="#191919" stroke-width="0.35 px" style="stroke-width:0.35;stroke-miterlimit:4;stroke-dasharray:none;fill:none;fill-opacity:1;fill-rule: evenodd"/>
<path id="Shape2DView_nwe0061"  d="M 3.199999999999999 2.491269144697 L 3.199999999999999 2.9867992484621047 L 3.199999999999999 3.4612145895078603 L 3.199999999999999 3.9111613544295807 L 3.199999999999999 4.333458707025249 L 3.1999999999999993 4.725121274775554 L 3.1999999999999993 5.083380253520536 L 3.1999999999999993 5.405702981136294 L 3.1999999999999993 5.6898108418383355 L 3.1999999999999993 5.93369537453959 L 3.1999999999999997 6.135632471387291 L 3.1999999999999997 6.2941945661041405 L 3.1999999999999997 6.408260725969949 L 3.2 6.477024576099927 L 3.2 6.5 " stroke="#191919" stroke-width="0.35 px" style="stroke-width:0.35;stroke-miterlimit:4;stroke-dasharray:none;fill:none;fill-opacity:1;fill-rule: evenodd"/>
<path id="Shape2DView_nwe0062"  d="M 3.2 -6.5 L 3.2 -6.477024576099897 L 3.2 -6.408260725969895 L 3.1999999999999997 -6.294194566104068 L 3.1999999999999997 -6.135632471387205 L 3.1999999999999997 -5.933695374539495 L 3.1999999999999993 -5.689810841838236 L 3.1999999999999993 -5.405702981136196 L 3.1999999999999993 -5.083380253520443 L 3.1999999999999993 -4.725121274775471 L 3.199999999999999 -4.333458707025182 L 3.199999999999999 -3.911161354429531 L 3.199999999999999 -3.461214589507832 L 3.199999999999999 -2.9867992484620998 L 3.199999999999999 -2.4912691446969992 " stroke="#191919" stroke-width="0.35 px" style="stroke-width:0.35;stroke-miterlimit:4;stroke-dasharray:none;fill:none;fill-opacity:1;fill-rule: evenodd"/>
<path id="Shape2DView_nwe0063"  d="M 4.064979142851033 2.491269144696998 C 4.064979140158296 4.863563821830476 4.064979126383463 6.535314070930416 4.064979141124331 6.499986769500947 " stroke="#191919" stroke-width="0.35 px" style="stroke-width:0.35;stroke-miterlimit:4;stroke-dasharray:none;fill:none;fill-opacity:1;fill-rule: evenodd"/>
<path id="Shape2DView_nwe0064"  d="M 4.064979141124332 -6.499986769501187 C 4.064979126383462 -6.535314070930758 4.064979140158304 -4.863563821830715 4.064979142851031 -2.491269144696934 " stroke="#191919" stroke-width="0.35 px" style="stroke-width:0.35;stroke-miterlimit:4;stroke-dasharray:none;fill:none;fill-opacity:1;fill-rule: evenodd"/>
<path id="Shape2DView_nwe0065"  d="M 4.2693384053729915 2.460512837965 C 4.269338405845514 4.803478813571507 4.269338408262735 6.454515263600502 4.269338405675839 6.419617235004145 " stroke="#191919" stroke-width="0.35 px" style="stroke-width:0.35;stroke-miterlimit:4;stroke-dasharray:none;fill:none;fill-opacity:1;fill-rule: evenodd"/>
<path id="Shape2DView_nwe0066"  d="M 4.269338405675837 -6.419617235004196 C 4.269338408262737 -6.454515263600545 4.269338405845513 -4.8034788135713855 4.269338405373 -2.460512837965903 " stroke="#191919" stroke-width="0.35 px" style="stroke-width:0.35;stroke-miterlimit:4;stroke-dasharray:none;fill:none;fill-opacity:1;fill-rule: evenodd"/>
<path id="Shape2DView_nwe0067"  d="M 4.930661594627004 2.460512837965 C 4.930661594154345 4.803478813571336 4.9306615917372625 6.454515263600218 4.9306615943241425 6.4196172350038925 " stroke="#191919" stroke-width="0.35 px" style="stroke-width:0.35;stroke-miterlimit:4;stroke-dasharray:none;fill:none;fill-opacity:1;fill-rule: evenodd"/>
<path id="Shape2DView_nwe0068"  d="M 4.930661594323986 -6.4196172350043 C 4.930661591737107 -6.454515263600641 4.9306615941543495 -4.803478813571234 4.930661594627008 -2.4605128379654664 " stroke="#191919" stroke-width="0.35 px" style="stroke-width:0.35;stroke-miterlimit:4;stroke-dasharray:none;fill:none;fill-opacity:1;fill-rule: evenodd"/>
<path id="Shape2DView_nwe0069"  d="M 5.13502085714897 2.4912691446969992 C 5.1350208598415605 4.863563821831066 5.1350208736165355 6.535314070930339 5.135020858875674 6.499986769500964 " stroke="#191919" stroke-width="0.35 px" style="stroke-width:0.35;stroke-miterlimit:4;stroke-dasharray:none;fill:none;fill-opacity:1;fill-rule: evenodd"/>
<path id="Shape2DView_nwe0070"  d="M 5.135020858875517 -6.499986769501151 C 5.135020873616373 -6.535314070930671 5.135020859841576 -4.863563821830346 5.135020857148963 -2.4912691446963473 " stroke="#191919" stroke-width="0.35 px" style="stroke-width:0.35;stroke-miterlimit:4;stroke-dasharray:none;fill:none;fill-opacity:1;fill-rule: evenodd"/>
<path id="Shape2DView_nwe0071"  d="M 39.8 2.491269144697 L 39.8 2.9867992484620927 L 39.8 3.4612145895078377 L 39.8 3.9111613544295483 L 39.8 4.333458707025209 L 39.8 4.725121274775507 L 39.8 5.083380253520485 L 39.8 5.405702981136241 L 39.8 5.689810841838284 L 39.8 5.93369537453954 L 39.8 6.135632471387247 L 39.8 6.294194566104103 L 39.8 6.408260725969922 L 39.8 6.477024576099912 L 39.8 6.5 " stroke="#191919" stroke-width="0.35 px" style="stroke-width:0.35;stroke-miterlimit:4;stroke-dasharray:none;fill:none;fill-opacity:1;fill-rule: evenodd"/>
<path id="Shape2DView_nwe0072"  d="M 39.8 -6.5 L 39.8 -6.477024576099913 L 39.8 -6.408260725969922 L 39.8 -6.294194566104102 L 39.8 -6.135632471387245 L 39.8 -5.933695374539536 L 39.8 -5.689810841838277 L 39.8 -5.405702981136234 L 39.8 -5.083380253520476 L 39.8 -4.725121274775495 L 39.8 -4.333458707025196 L 39.8 -3.9111613544295305 L 39.8 -3.4612145895078164 L 39.8 -2.9867992484620687 L 39.8 -2.491269144696999 " stroke="#191919" stroke-width="0.35 px" style="stroke-width:0.35;stroke-miterlimit:4;stroke-dasharray:none;fill:none;fill-opacity:1;fill-rule: evenodd"/>
<path id="Shape2DView_nwe0073"  d="M 39.8 -2.4912691446968958 L 39.8 -2.150116693328262 L 39.8 -1.802199179375854 L 39.8 -1.448611280055651 L 39.8 -1.0904655137138364 L 39.8 -0.7288887394324934 L 39.8 -0.36501861151403503 L 39.8 1.2656542480726785e-13 L 39.8 0.3650186115142877 L 39.8 0.7288887394327457 L 39.8 1.0904655137140864 L 39.8 1.4486112800558986 L 39.8 1.8021991793760987 L 39.8 2.1501166933285027 L 39.8 2.4912691446971307 " stroke="#191919" stroke-width="0.35 px" style="stroke-width:0.35;stroke-miterlimit:4;stroke-dasharray:none;fill:none;fill-opacity:1;fill-rule: evenodd"/>
<path id="Shape2DView_nwe0074"  d="M 5.135020857149 -2.491269146698508 L 5.135020857149 2.4912691466987176 " stroke="#191919" stroke-width="0.35 px" style="stroke-width:0.35;stroke-miterlimit:4;stroke-dasharray:none;fill:none;fill-opacity:1;fill-rule: evenodd"/>
<path id="Shape2DView_nwe0075"  d="M 4.930661594627 -2.4605128359879163 L 4.930661594627 2.460512835988035 " stroke="#191919" stroke-width="0.35 px" style="stroke-width:0.35;stroke-miterlimit:4;stroke-dasharray:none;fill:none;fill-opacity:1;fill-rule: evenodd"/>
<path id="Shape2DView_nwe0076"  d="M 0.9 0.45 L 0.8999999999999999 0.43871756048182065 L 0.8999999999999999 0.40543599055608864 L 0.8999999999999999 0.3518241671106135 L 0.8999999999999999 0.2805704108364302 L 0.8999999999999999 0.19524768260290123 L 0.8999999999999999 0.10013442028034157 L 0.9 8.266365894244634e-17 L 0.9 -0.1001344202803414 L 0.9 -0.1952476826029011 L 0.9 -0.28057041083643003 L 0.9 -0.3518241671106134 L 0.9 -0.4054359905560886 L 0.9 -0.4387175604818206 L 0.9 -0.45 " stroke="#191919" stroke-width="0.35 px" style="stroke-width:0.35;stroke-miterlimit:4;stroke-dasharray:none;fill:none;fill-opacity:1;fill-rule: evenodd"/>
<path id="Shape2DView_nwe0077"  d="M 42.1 -0.45 L 42.1 -0.43871756048182065 L 42.1 -0.40543599055608864 L 42.1 -0.3518241671106135 L 42.1 -0.2805704108364302 L 42.1 -0.19524768260290123 L 42.1 -0.10013442028034157 L 42.1 -8.266365894244634e-17 L 42.1 0.1001344202803414 L 42.1 0.1952476826029011 L 42.1 0.28057041083643003 L 42.1 0.3518241671106134 L 42.1 0.4054359905560886 L 42.1 0.4387175604818206 L 42.1 0.45 " stroke="#191919" stroke-width="0.35 px" style="stroke-width:0.35;stroke-miterlimit:4;stroke-dasharray:none;fill:none;fill-opacity:1;fill-rule: evenodd"/>
<path id="Shape2DView_nwe0078"  d="M 3.2 6.499999999999876 Q 3.019455656295286 6.48388522120492 3.000000000000001 6.2999999999998755 " stroke="#191919" stroke-width="0.35 px" style="stroke-width:0.35;stroke-miterlimit:4;stroke-dasharray:none;fill:none;fill-opacity:1;fill-rule: evenodd"/>
<path id="Shape2DView_nwe0079"  d="M 3.2 -6.499999999999876 Q 3.019455656295286 -6.4838852212049165 3.000000000000001 -6.299999999999876 " stroke="#191919" stroke-width="0.35 px" style="stroke-width:0.35;stroke-miterlimit:4;stroke-dasharray:none;fill:none;fill-opacity:1;fill-rule: evenodd"/>
<path id="Shape2DView_nwe0080"  d="M 3.2000000000000006 -6.5 L 4.064979141112449 -6.5 " stroke="#191919" stroke-width="0.35 px" style="stroke-width:0.35;stroke-miterlimit:4;stroke-dasharray:none;fill:none;fill-opacity:1;fill-rule: evenodd"/>
<path id="Shape2DView_nwe0081"  d="M 3.2000000000000006 6.5 L 4.064979141112445 6.5 " stroke="#191919" stroke-width="0.35 px" style="stroke-width:0.35;stroke-miterlimit:4;stroke-dasharray:none;fill:none;fill-opacity:1;fill-rule: evenodd"/>
<path id="Shape2DView_nwe0082"  d="M 4.269338405675795 6.41961723501173 L 4.064979141124352 6.499986769508494 " stroke="#191919" stroke-width="0.35 px" style="stroke-width:0.35;stroke-miterlimit:4;stroke-dasharray:none;fill:none;fill-opacity:1;fill-rule: evenodd"/>
<path id="Shape2DView_nwe0083"  d="M 4.269338405675691 -6.4196172350118434 L 4.064979141124352 -6.4999867695086895 " stroke="#191919" stroke-width="0.35 px" style="stroke-width:0.35;stroke-miterlimit:4;stroke-dasharray:none;fill:none;fill-opacity:1;fill-rule: evenodd"/>
<path id="Shape2DView_nwe0084"  d="M 4.26934464920585 6.419624087772388 Q 4.594539533204657 6.161343462725302 4.930655350794015 6.419624087772259 " stroke="#191919" stroke-width="0.35 px" style="stroke-width:0.35;stroke-miterlimit:4;stroke-dasharray:none;fill:none;fill-opacity:1;fill-rule: evenodd"/>
<path id="Shape2DView_nwe0085"  d="M 4.269344649205824 -6.419624087772412 Q 4.594539533204584 -6.161343462725235 4.930655350794137 -6.419624087772372 " stroke="#191919" stroke-width="0.35 px" style="stroke-width:0.35;stroke-miterlimit:4;stroke-dasharray:none;fill:none;fill-opacity:1;fill-rule: evenodd"/>
<path id="Shape2DView_nwe0086"  d="M 5.1350208588756505 6.499986769508512 L 4.930661594324148 6.4196172350114455 " stroke="#191919" stroke-width="0.35 px" style="stroke-width:0.35;stroke-miterlimit:4;stroke-dasharray:none;fill:none;fill-opacity:1;fill-rule: evenodd"/>
<path id="Shape2DView_nwe0087"  d="M 5.135020858875494 -6.499986769508681 L 4.9306615943239915 -6.419617235011835 " stroke="#191919" stroke-width="0.35 px" style="stroke-width:0.35;stroke-miterlimit:4;stroke-dasharray:none;fill:none;fill-opacity:1;fill-rule: evenodd"/>
<path id="Shape2DView_nwe0088"  d="M 5.135020858887403 -6.5 L 39.8 -6.5 " stroke="#191919" stroke-width="0.35 px" style="stroke-width:0.35;stroke-miterlimit:4;stroke-dasharray:none;fill:none;fill-opacity:1;fill-rule: evenodd"/>
<path id="Shape2DView_nwe0089"  d="M 5.135020858887559 6.5 L 39.8 6.5 " stroke="#191919" stroke-width="0.35 px" style="stroke-width:0.35;stroke-miterlimit:4;stroke-dasharray:none;fill:none;fill-opacity:1;fill-rule: evenodd"/>
<path id="Shape2DView_nwe0090"  d="M 39.8 6.5 Q 39.980544343704715 6.483885221205041 40.0 6.300000000000001 " stroke="#191919" stroke-width="0.35 px" style="stroke-width:0.35;stroke-miterlimit:4;stroke-dasharray:none;fill:none;fill-opacity:1;fill-rule: evenodd"/>
<path id="Shape2DView_nwe0091"  d="M 39.8 -6.5 Q 39.980544343704715 -6.483885221205042 40.0 -6.299999999999999 " stroke="#191919" stroke-width="0.35 px" style="stroke-width:0.35;stroke-miterlimit:4;stroke-dasharray:none;fill:none;fill-opacity:1;fill-rule: evenodd"/>
<path id="Shape2DView_nwe0092"  d="M 2.766666666667 -1.625 L 2.989999999999999 -1.625 " stroke="#191919" stroke-width="0.35 px" style="stroke-width:0.35;stroke-miterlimit:4;stroke-dasharray:none;fill:none;fill-opacity:1;fill-rule: evenodd"/>
<path id="Shape2DView_nwe0093"  d="M 2.766666666667 1.625 L 2.989999999999999 1.625 " stroke="#191919" stroke-width="0.35 px" style="stroke-width:0.35;stroke-miterlimit:4;stroke-dasharray:none;fill:none;fill-opacity:1;fill-rule: evenodd"/>
<path id="Shape2DView_nwe0094"  d="M 40.333333333333 1.625 L 40.01 1.625 " stroke="#191919" stroke-width="0.35 px" style="stroke-width:0.35;stroke-miterlimit:4;stroke-dasharray:none;fill:none;fill-opacity:1;fill-rule: evenodd"/>
<path id="Shape2DView_nwe0095"  d="M 40.333333333333 -1.625 L 40.01 -1.625 " stroke="#191919" stroke-width="0.35 px" style="stroke-width:0.35;stroke-miterlimit:4;stroke-dasharray:none;fill:none;fill-opacity:1;fill-rule: evenodd"/>
<path id="Shape2DView_nwe0096"  d="M 2.766666666667 -0.45 L 0.9 -0.45 " stroke="#191919" stroke-width="0.35 px" style="stroke-width:0.35;stroke-miterlimit:4;stroke-dasharray:none;fill:none;fill-opacity:1;fill-rule: evenodd"/>
<path id="Shape2DView_nwe0097"  d="M 42.1 -0.45 L 40.333333333333 -0.45 " stroke="#191919" stroke-width="0.35 px" style="stroke-width:0.35;stroke-miterlimit:4;stroke-dasharray:none;fill:none;fill-opacity:1;fill-rule: evenodd"/>
<path id="Shape2DView_nwe0098"  d="M 42.1 -0.4499999999999994 Q 42.91998499833049 -0.44999999999999984 42.99999999999999 -0.45 " stroke="#191919" stroke-width="0.35 px" style="stroke-width:0.35;stroke-miterlimit:4;stroke-dasharray:none;fill:none;fill-opacity:1;fill-rule: evenodd"/>
<title>b'Shape2DView'</title>
</g>
<g id="Rectangle" transform="translate(0.885653,6.938934) scale(1,-1)">
<rect fill="#ff0000" id="origin" width="1" height="1" x="0" y="0" />
<title>b'Rectangle'</title>
</g>
</svg>