<?xml version="1.0"?>
<!DOCTYPE svg PUBLIC "-//W3C//DTD SVG 1.1//EN" "http://www.w3.org/Graphics/SVG/1.1/DTD/svg11.dtd">
<svg width="87.611306746422mm" height="33.71786953705875mm" viewBox="0 0 87.611306746422 33.71786953705875" xmlns="http://www.w3.org/2000/svg" version="1.1">
<g id="Shape2DView" transform="translate(1.305653,16.858935) scale(1,-1)">
<path id="Shape2DView_nwe0000"  d="M 2.7 6.126761752165 L 3.564979142851 6.126761752165 " stroke="#191919" stroke-width="0.35 px" style="stroke-width:0.35;stroke-miterlimit:4;stroke-dasharray:none;fill:none;fill-opacity:1;fill-rule: evenodd"/>
<path id="Shape2DView_nwe0001"  d="M 2.7 -6.126761752165 L 3.564979142851 -6.126761752165 " stroke="#191919" stroke-width="0.35 px" style="stroke-width:0.35;stroke-miterlimit:4;stroke-dasharray:none;fill:none;fill-opacity:1;fill-rule: evenodd"/>
<path id="Shape2DView_nwe0002"  d="M 3.564979142851 -6.126761752165 L 3.769338405373 -6.096005445434 " stroke="#191919" stroke-width="0.35 px" style="stroke-width:0.35;stroke-miterlimit:4;stroke-dasharray:none;fill:none;fill-opacity:1;fill-rule: evenodd"/>
<path id="Shape2DView_nwe0003"  d="M 3.769338405372421 -6.09600544543309 A 0.485412 0.185759 -180 0 0 4.43066 -6.09601" stroke="#191919" stroke-width="0.35 px" style="stroke-width:0.35;stroke-miterlimit:4;stroke-dasharray:none;fill:none;fill-opacity:1;fill-rule: evenodd"/>
<path id="Shape2DView_nwe0004"  d="M 4.430661594627 -6.096005445434 L 4.635020857149 -6.126761752165 " stroke="#191919" stroke-width="0.35 px" style="stroke-width:0.35;stroke-miterlimit:4;stroke-dasharray:none;fill:none;fill-opacity:1;fill-rule: evenodd"/>
<path id="Shape2DView_nwe0005"  d="M 4.635020857149 -6.126761752165 L 82.3 -6.126761752165 " stroke="#191919" stroke-width="0.35 px" style="stroke-width:0.35;stroke-miterlimit:4;stroke-dasharray:none;fill:none;fill-opacity:1;fill-rule: evenodd"/>
<path id="Shape2DView_nwe0006"  d="M 82.3 -6.126761752164675 A 0.21 0.0803635 5.26972e-15 0 1 82.51 -6.0464" stroke="#191919" stroke-width="0.35 px" style="stroke-width:0.35;stroke-miterlimit:4;stroke-dasharray:none;fill:none;fill-opacity:1;fill-rule: evenodd"/>
<path id="Shape2DView_nwe0007"  d="M 2.49 -6.046398231368 A 0.21 0.0803635 5.26972e-15 0 1 2.7 -6.12676" stroke="#191919" stroke-width="0.35 px" style="stroke-width:0.35;stroke-miterlimit:4;stroke-dasharray:none;fill:none;fill-opacity:1;fill-rule: evenodd"/>
<path id="Shape2DView_nwe0008"  d="M 3.564979142851 6.126761752165 L 3.769338405373 6.096005445434 " stroke="#191919" stroke-width="0.35 px" style="stroke-width:0.35;stroke-miterlimit:4;stroke-dasharray:none;fill:none;fill-opacity:1;fill-rule: evenodd"/>
<path id="Shape2DView_nwe0009"  d="M 2.489999999999997 -6.04639823136881 L 2.489999999999997 -5.218409178892029 L 2.4899999999999967 -4.374001080513005 L 2.4899999999999967 -3.515830756510147 L 2.4899999999999967 -2.6465983282152075 L 2.4899999999999967 -1.7690387224326276 L 2.4899999999999967 -0.8859130663479844 L 2.4899999999999967 -3.4283687000424834e-13 L 2.4899999999999967 0.8859130663472996 L 2.4899999999999967 1.7690387224319464 L 2.4899999999999967 2.646598328214533 L 2.4899999999999967 3.5158307565094775 L 2.4899999999999967 4.3740010805123495 L 2.489999999999997 5.218409178891385 L 2.489999999999997 6.046398231368176 " stroke="#191919" stroke-width="0.35 px" style="stroke-width:0.35;stroke-miterlimit:4;stroke-dasharray:none;fill:none;fill-opacity:1;fill-rule: evenodd"/>
<path id="Shape2DView_nwe0010"  d="M 2.49 6.046398231368 A 0.21 0.0803635 -5.26972e-15 0 0 2.7 6.12676" stroke="#191919" stroke-width="0.35 px" style="stroke-width:0.35;stroke-miterlimit:4;stroke-dasharray:none;fill:none;fill-opacity:1;fill-rule: evenodd"/>
<path id="Shape2DView_nwe0011"  d="M 3.769338405372421 6.09600544543309 A 0.485412 0.185759 180 0 1 4.43066 6.09601" stroke="#191919" stroke-width="0.35 px" style="stroke-width:0.35;stroke-miterlimit:4;stroke-dasharray:none;fill:none;fill-opacity:1;fill-rule: evenodd"/>
<path id="Shape2DView_nwe0012"  d="M 4.430661594627 6.096005445434 L 4.635020857149 6.126761752165 " stroke="#191919" stroke-width="0.35 px" style="stroke-width:0.35;stroke-miterlimit:4;stroke-dasharray:none;fill:none;fill-opacity:1;fill-rule: evenodd"/>
<path id="Shape2DView_nwe0013"  d="M 4.635020857149 6.126761752165 L 82.3 6.126761752165 " stroke="#191919" stroke-width="0.35 px" style="stroke-width:0.35;stroke-miterlimit:4;stroke-dasharray:none;fill:none;fill-opacity:1;fill-rule: evenodd"/>
<path id="Shape2DView_nwe0014"  d="M 82.3 6.126761752164675 A 0.21 0.0803635 -5.26972e-15 0 0 82.51 6.0464" stroke="#191919" stroke-width="0.35 px" style="stroke-width:0.35;stroke-miterlimit:4;stroke-dasharray:none;fill:none;fill-opacity:1;fill-rule: evenodd"/>
<path id="Shape2DView_nwe0015"  d="M 2.4999999999999964 6.070901926978406 L 2.4999999999999964 7.273793017079396 L 2.499999999999997 8.425353944847497 L 2.499999999999997 9.517458302338497 L 2.4999999999999973 10.54239925849151 L 2.4999999999999973 11.492943945181555 L 2.499999999999998 12.362384498580518 L 2.499999999999998 13.144585395634603 L 2.4999999999999982 13.834026751611269 L 2.4999999999999982 14.425843273170685 L 2.4999999999999987 14.91585859207531 L 2.499999999999999 15.300614737249273 L 2.499999999999999 15.577396537207216 L 2.4999999999999996 15.744250780648066 L 2.5 15.800000000000002 " stroke="#191919" stroke-width="0.35 px" style="stroke-width:0.35;stroke-miterlimit:4;stroke-dasharray:none;fill:none;fill-opacity:1;fill-rule: evenodd"/>
<path id="Shape2DView_nwe0016"  d="M 2.5 15.800000000000002 L 2.5 15.775300589183145 L 2.5000000000000004 15.701279579630661 L 2.5000000000000004 15.57816839859875 L 2.500000000000001 15.406351954142659 L 2.500000000000001 15.186367431698685 L 2.5000000000000013 14.91890261456976 L 2.5000000000000013 14.604793733565671 L 2.5000000000000013 14.245022852520993 L 2.5000000000000018 13.840714797864951 L 2.5000000000000018 13.393133641842926 L 2.500000000000002 12.903678750384849 L 2.500000000000002 12.373880407976852 L 2.500000000000002 11.805395033215035 L 2.5000000000000027 11.2 " stroke="#191919" stroke-width="0.35 px" style="stroke-width:0.35;stroke-miterlimit:4;stroke-dasharray:none;fill:none;fill-opacity:1;fill-rule: evenodd"/>
<path id="Shape2DView_nwe0017"  d="M 2.5000000000000027 -11.199999999999996 L 2.5000000000000027 -11.805395033215106 L 2.500000000000002 -12.373880407976976 L 2.500000000000002 -12.90367875038502 L 2.500000000000002 -13.393133641843134 L 2.5000000000000018 -13.840714797865186 L 2.5000000000000018 -14.245022852521245 L 2.5000000000000013 -14.604793733565927 L 2.5000000000000013 -14.918902614570012 L 2.5000000000000013 -15.186367431698924 L 2.500000000000001 -15.406351954142874 L 2.500000000000001 -15.57816839859893 L 2.5000000000000004 -15.701279579630793 L 2.5000000000000004 -15.775300589183217 L 2.5 -15.800000000000002 " stroke="#191919" stroke-width="0.35 px" style="stroke-width:0.35;stroke-miterlimit:4;stroke-dasharray:none;fill:none;fill-opacity:1;fill-rule: evenodd"/>
<path id="Shape2DView_nwe0018"  d="M 2.5 -15.800000000000002 L 2.5 -15.74425078064796 L 2.4999999999999996 -15.577396537207022 L 2.499999999999999 -15.300614737249008 L 2.4999999999999987 -14.915858592074992 L 2.4999999999999987 -14.425843273170331 L 2.4999999999999982 -13.8340267516109 L 2.4999999999999982 -13.144585395634236 L 2.499999999999998 -12.362384498580163 L 2.4999999999999973 -11.492943945181237 L 2.4999999999999973 -10.542399258491239 L 2.499999999999997 -9.517458302338284 L 2.499999999999997 -8.425353944847355 L 2.499999999999997 -7.273793017079339 L 2.4999999999999964 -6.070901926978412 " stroke="#191919" stroke-width="0.35 px" style="stroke-width:0.35;stroke-miterlimit:4;stroke-dasharray:none;fill:none;fill-opacity:1;fill-rule: evenodd"/>
<path id="Shape2DView_nwe0019"  d="M 82.5 6.070901926978407 L 82.5 7.27379301707942 L 82.5 8.425353944847542 L 82.5 9.51745830233856 L 82.5 10.542399258491589 L 82.5 11.492943945181647 L 82.5 12.362384498580614 L 82.5 13.144585395634708 L 82.5 13.834026751611372 L 82.5 14.42584327317078 L 82.5 14.915858592075395 L 82.5 15.300614737249344 L 82.5 15.577396537207271 L 82.5 15.744250780648096 L 82.5 15.8 " stroke="#191919" stroke-width="0.35 px" style="stroke-width:0.35;stroke-miterlimit:4;stroke-dasharray:none;fill:none;fill-opacity:1;fill-rule: evenodd"/>
<path id="Shape2DView_nwe0020"  d="M 82.5 15.8 L 82.5 15.775300589183129 L 82.5 15.701279579630624 L 82.5 15.5781683985987 L 82.5 15.406351954142602 L 82.5 15.18636743169862 L 82.5 14.91890261456969 L 82.5 14.604793733565604 L 82.5 14.245022852520927 L 82.5 13.840714797864893 L 82.5 13.393133641842876 L 82.5 12.90367875038481 L 82.5 12.373880407976827 L 82.5 11.805395033215028 L 82.5 11.2 " stroke="#191919" stroke-width="0.35 px" style="stroke-width:0.35;stroke-miterlimit:4;stroke-dasharray:none;fill:none;fill-opacity:1;fill-rule: evenodd"/>
<path id="Shape2DView_nwe0021"  d="M 82.5 -15.8 L 82.5 -15.744250780648095 L 82.5 -15.577396537207267 L 82.5 -15.300614737249342 L 82.5 -14.915858592075393 L 82.5 -14.425843273170777 L 82.5 -13.834026751611368 L 82.5 -13.144585395634703 L 82.5 -12.36238449858061 L 82.5 -11.492943945181638 L 82.5 -10.542399258491583 L 82.5 -9.517458302338554 L 82.5 -8.425353944847537 L 82.5 -7.27379301707941 L 82.5 -6.0709019269784115 " stroke="#191919" stroke-width="0.35 px" style="stroke-width:0.35;stroke-miterlimit:4;stroke-dasharray:none;fill:none;fill-opacity:1;fill-rule: evenodd"/>
<path id="Shape2DView_nwe0022"  d="M 82.51 -6.04639823136881 L 82.51 -5.218409178892029 L 82.51 -4.374001080513005 L 82.51 -3.515830756510147 L 82.51 -2.6465983282152075 L 82.51 -1.7690387224326276 L 82.51 -0.8859130663479844 L 82.51 -3.4283687000424834e-13 L 82.51 0.8859130663472996 L 82.51 1.7690387224319464 L 82.51 2.646598328214533 L 82.51 3.5158307565094775 L 82.51 4.3740010805123495 L 82.51 5.218409178891385 L 82.51 6.046398231368176 " stroke="#191919" stroke-width="0.35 px" style="stroke-width:0.35;stroke-miterlimit:4;stroke-dasharray:none;fill:none;fill-opacity:1;fill-rule: evenodd"/>
<path id="Shape2DView_nwe0023"  d="M 37.69 1.6 L 47.31 1.6 " stroke="#191919" stroke-width="0.35 px" style="stroke-width:0.35;stroke-miterlimit:4;stroke-dasharray:none;fill:none;fill-opacity:1;fill-rule: evenodd"/>
<path id="Shape2DView_nwe0024"  d="M 1.633333333333 4.0 L 1.6333333333329998 3.8997116487272945 L 1.6333333333329996 3.6038754716096766 L 1.6333333333329996 3.1273259298721197 L 1.6333333333329993 2.4939592074349344 L 1.6333333333329991 1.735534956470233 L 1.6333333333329991 0.890083735825258 L 1.6333333333329991 4.898587196589413e-16 L 1.6333333333329991 -0.8900837358252571 L 1.6333333333329991 -1.735534956470232 L 1.6333333333329993 -2.4939592074349335 L 1.6333333333329996 -3.1273259298721188 L 1.6333333333329996 -3.603875471609676 L 1.6333333333329998 -3.8997116487272945 L 1.633333333333 -4.0 " stroke="#191919" stroke-width="0.35 px" style="stroke-width:0.35;stroke-miterlimit:4;stroke-dasharray:none;fill:none;fill-opacity:1;fill-rule: evenodd"/>
<path id="Shape2DView_nwe0025"  d="M 37.69 -1.6 C 37.00203748884642 -1.5895071039183932 36.16448084260753 -1.1487378774793662 36.1 -0.010000000000000009 " stroke="#191919" stroke-width="0.35 px" style="stroke-width:0.35;stroke-miterlimit:4;stroke-dasharray:none;fill:none;fill-opacity:1;fill-rule: evenodd"/>
<path id="Shape2DView_nwe0026"  d="M 36.099999999999994 0.010000000000009557 L 36.099999999999994 0.008571428719303498 L 36.099999999999994 0.007142857370351585 L 36.099999999999994 0.00571428596452872 L 36.099999999999994 0.004285714513208028 L 36.099999999999994 0.0028571430277644083 L 36.099999999999994 0.0014285715195736515 L 36.099999999999994 7.993605777301127e-15 L 36.099999999999994 -0.0014285715195576643 L 36.099999999999994 -0.0028571430277493093 L 36.099999999999994 -0.004285714513191152 L 36.099999999999994 -0.005714285964511845 L 36.099999999999994 -0.00714285737033471 L 36.099999999999994 -0.008571428719285734 L 36.099999999999994 -0.009999999999990905 " stroke="#191919" stroke-width="0.35 px" style="stroke-width:0.35;stroke-miterlimit:4;stroke-dasharray:none;fill:none;fill-opacity:1;fill-rule: evenodd"/>
<path id="Shape2DView_nwe0027"  d="M 37.69 1.6 C 37.00203747934153 1.589507124735004 36.16448081669408 1.14873781582388 36.099999999999994 0.009999999999998899 " stroke="#191919" stroke-width="0.35 px" style="stroke-width:0.35;stroke-miterlimit:4;stroke-dasharray:none;fill:none;fill-opacity:1;fill-rule: evenodd"/>
<path id="Shape2DView_nwe0029"  d="M 47.31 1.6 C 47.99796251115444 1.5895071039188673 48.83551915739218 1.1487378774790968 48.900000000000006 0.009999999999998899 " stroke="#191919" stroke-width="0.35 px" style="stroke-width:0.35;stroke-miterlimit:4;stroke-dasharray:none;fill:none;fill-opacity:1;fill-rule: evenodd"/>
<path id="Shape2DView_nwe0030"  d="M 48.89999999999999 0.010000000000009557 L 48.89999999999999 0.008571428719303498 L 48.89999999999999 0.007142857370351585 L 48.89999999999999 0.00571428596452872 L 48.89999999999999 0.004285714513208028 L 48.89999999999999 0.0028571430277644083 L 48.89999999999999 0.0014285715195736515 L 48.89999999999999 7.993605777301127e-15 L 48.89999999999999 -0.0014285715195576643 L 48.89999999999999 -0.0028571430277493093 L 48.89999999999999 -0.004285714513191152 L 48.89999999999999 -0.005714285964511845 L 48.89999999999999 -0.00714285737033471 L 48.89999999999999 -0.008571428719285734 L 48.89999999999999 -0.009999999999990905 " stroke="#191919" stroke-width="0.35 px" style="stroke-width:0.35;stroke-miterlimit:4;stroke-dasharray:none;fill:none;fill-opacity:1;fill-rule: evenodd"/>
<path id="Shape2DView_nwe0031"  d="M 47.31 -1.6 C 47.997962520660494 -1.589507124732148 48.83551918330271 -1.1487378158294272 48.900000000000006 -0.010000000000000009 " stroke="#191919" stroke-width="0.35 px" style="stroke-width:0.35;stroke-miterlimit:4;stroke-dasharray:none;fill:none;fill-opacity:1;fill-rule: evenodd"/>
<path id="Shape2DView_nwe0032"  d="M 37.69 -1.6 L 47.31 -1.6 " stroke="#191919" stroke-width="0.35 px" style="stroke-width:0.35;stroke-miterlimit:4;stroke-dasharray:none;fill:none;fill-opacity:1;fill-rule: evenodd"/>
<path id="Shape2DView_nwe0033"  d="M 12.09 -1.6 C 11.40203748884504 -1.5895071039183932 10.564480842608077 -1.1487378774793662 10.5 -0.010000000000000009 " stroke="#191919" stroke-width="0.35 px" style="stroke-width:0.35;stroke-miterlimit:4;stroke-dasharray:none;fill:none;fill-opacity:1;fill-rule: evenodd"/>
<path id="Shape2DView_nwe0034"  d="M 10.499999999999996 0.010000000000009557 L 10.499999999999996 0.008571428719303498 L 10.499999999999996 0.007142857370351585 L 10.499999999999996 0.00571428596452872 L 10.499999999999996 0.004285714513208028 L 10.499999999999996 0.0028571430277644083 L 10.499999999999996 0.0014285715195736515 L 10.499999999999996 7.993605777301127e-15 L 10.499999999999996 -0.0014285715195576643 L 10.499999999999996 -0.0028571430277493093 L 10.499999999999996 -0.004285714513191152 L 10.499999999999996 -0.005714285964511845 L 10.499999999999996 -0.00714285737033471 L 10.499999999999996 -0.008571428719285734 L 10.499999999999996 -0.009999999999990905 " stroke="#191919" stroke-width="0.35 px" style="stroke-width:0.35;stroke-miterlimit:4;stroke-dasharray:none;fill:none;fill-opacity:1;fill-rule: evenodd"/>
<path id="Shape2DView_nwe0035"  d="M 12.09 1.6 C 11.402037488845513 1.5895071039188673 10.564480842607843 1.1487378774790968 10.5 0.009999999999998899 " stroke="#191919" stroke-width="0.35 px" style="stroke-width:0.35;stroke-miterlimit:4;stroke-dasharray:none;fill:none;fill-opacity:1;fill-rule: evenodd"/>
<path id="Shape2DView_nwe0036"  d="M 12.09 1.6 L 21.71 1.6 " stroke="#191919" stroke-width="0.35 px" style="stroke-width:0.35;stroke-miterlimit:4;stroke-dasharray:none;fill:none;fill-opacity:1;fill-rule: evenodd"/>
<path id="Shape2DView_nwe0037"  d="M 21.71 1.6 C 22.39796252066052 1.589507124732251 23.235519183302692 1.148737815829277 23.300000000000004 0.009999999999998899 " stroke="#191919" stroke-width="0.35 px" style="stroke-width:0.35;stroke-miterlimit:4;stroke-dasharray:none;fill:none;fill-opacity:1;fill-rule: evenodd"/>
<path id="Shape2DView_nwe0038"  d="M 23.299999999999997 0.010000000000009557 L 23.299999999999997 0.008571428719303498 L 23.299999999999997 0.007142857370351585 L 23.299999999999997 0.00571428596452872 L 23.299999999999997 0.004285714513208028 L 23.299999999999997 0.0028571430277644083 L 23.299999999999997 0.0014285715195736515 L 23.299999999999997 7.993605777301127e-15 L 23.299999999999997 -0.0014285715195576643 L 23.299999999999997 -0.0028571430277493093 L 23.299999999999997 -0.004285714513191152 L 23.299999999999997 -0.005714285964511845 L 23.299999999999997 -0.00714285737033471 L 23.299999999999997 -0.008571428719285734 L 23.299999999999997 -0.009999999999990905 " stroke="#191919" stroke-width="0.35 px" style="stroke-width:0.35;stroke-miterlimit:4;stroke-dasharray:none;fill:none;fill-opacity:1;fill-rule: evenodd"/>
<path id="Shape2DView_nwe0039"  d="M 21.71 -1.6 C 22.397962520659597 -1.5895071247330135 23.235519183304497 -1.1487378158270927 23.300000000000004 -0.010000000000000231 " stroke="#191919" stroke-width="0.35 px" style="stroke-width:0.35;stroke-miterlimit:4;stroke-dasharray:none;fill:none;fill-opacity:1;fill-rule: evenodd"/>
<path id="Shape2DView_nwe0040"  d="M 12.09 -1.6 L 21.71 -1.6 " stroke="#191919" stroke-width="0.35 px" style="stroke-width:0.35;stroke-miterlimit:4;stroke-dasharray:none;fill:none;fill-opacity:1;fill-rule: evenodd"/>
<path id="Shape2DView_nwe0041"  d="M 63.29 -1.6 C 62.60203748884835 -1.5895071039170692 61.76448084260981 -1.1487378774850832 61.70000000000001 -0.010000000000000009 " stroke="#191919" stroke-width="0.35 px" style="stroke-width:0.35;stroke-miterlimit:4;stroke-dasharray:none;fill:none;fill-opacity:1;fill-rule: evenodd"/>
<path id="Shape2DView_nwe0042"  d="M 61.699999999999996 0.010000000000009557 L 61.699999999999996 0.008571428719303498 L 61.699999999999996 0.007142857370351585 L 61.699999999999996 0.00571428596452872 L 61.699999999999996 0.004285714513208028 L 61.699999999999996 0.0028571430277644083 L 61.699999999999996 0.0014285715195736515 L 61.699999999999996 7.993605777301127e-15 L 61.699999999999996 -0.0014285715195576643 L 61.699999999999996 -0.0028571430277493093 L 61.699999999999996 -0.004285714513191152 L 61.699999999999996 -0.005714285964511845 L 61.699999999999996 -0.00714285737033471 L 61.699999999999996 -0.008571428719285734 L 61.699999999999996 -0.009999999999990905 " stroke="#191919" stroke-width="0.35 px" style="stroke-width:0.35;stroke-miterlimit:4;stroke-dasharray:none;fill:none;fill-opacity:1;fill-rule: evenodd"/>
<path id="Shape2DView_nwe0043"  d="M 63.29 1.6 C 62.602037479340616 1.5895071247349002 61.76448081669454 1.1487378158240316 61.70000000000001 0.00999999999999912 " stroke="#191919" stroke-width="0.35 px" style="stroke-width:0.35;stroke-miterlimit:4;stroke-dasharray:none;fill:none;fill-opacity:1;fill-rule: evenodd"/>
<path id="Shape2DView_nwe0044"  d="M 63.29 1.6 L 72.91 1.6 " stroke="#191919" stroke-width="0.35 px" style="stroke-width:0.35;stroke-miterlimit:4;stroke-dasharray:none;fill:none;fill-opacity:1;fill-rule: evenodd"/>
<path id="Shape2DView_nwe0045"  d="M 72.91 1.6 C 73.59796252065932 1.5895071247349735 74.43551918330544 1.148737815823928 74.5 0.00999999999999912 " stroke="#191919" stroke-width="0.35 px" style="stroke-width:0.35;stroke-miterlimit:4;stroke-dasharray:none;fill:none;fill-opacity:1;fill-rule: evenodd"/>
<path id="Shape2DView_nwe0046"  d="M 74.5 0.010000000000009557 L 74.5 0.008571428719303498 L 74.5 0.007142857370351585 L 74.5 0.00571428596452872 L 74.5 0.004285714513208028 L 74.5 0.0028571430277644083 L 74.5 0.0014285715195736515 L 74.5 7.993605777301127e-15 L 74.5 -0.0014285715195576643 L 74.5 -0.0028571430277493093 L 74.5 -0.004285714513191152 L 74.5 -0.005714285964511845 L 74.5 -0.00714285737033471 L 74.5 -0.008571428719285734 L 74.5 -0.009999999999990905 " stroke="#191919" stroke-width="0.35 px" style="stroke-width:0.35;stroke-miterlimit:4;stroke-dasharray:none;fill:none;fill-opacity:1;fill-rule: evenodd"/>
<path id="Shape2DView_nwe0047"  d="M 72.91 -1.6 C 73.59796252066005 -1.589507124733044 74.43551918330425 -1.1487378158270447 74.5 -0.009999999999999787 " stroke="#191919" stroke-width="0.35 px" style="stroke-width:0.35;stroke-miterlimit:4;stroke-dasharray:none;fill:none;fill-opacity:1;fill-rule: evenodd"/>
<path id="Shape2DView_nwe0048"  d="M 63.29 -1.6 L 72.91 -1.6 " stroke="#191919" stroke-width="0.35 px" style="stroke-width:0.35;stroke-miterlimit:4;stroke-dasharray:none;fill:none;fill-opacity:1;fill-rule: evenodd"/>
<path id="Shape2DView_nwe0049"  d="M 83.466666666667 4.0 L 83.466666666667 3.8997116487272945 L 83.466666666667 3.6038754716096766 L 83.466666666667 3.1273259298721197 L 83.466666666667 2.4939592074349344 L 83.466666666667 1.735534956470233 L 83.466666666667 0.890083735825258 L 83.466666666667 4.898587196589413e-16 L 83.466666666667 -0.8900837358252571 L 83.466666666667 -1.735534956470232 L 83.466666666667 -2.4939592074349335 L 83.466666666667 -3.1273259298721188 L 83.466666666667 -3.603875471609676 L 83.466666666667 -3.8997116487272945 L 83.466666666667 -4.0 " stroke="#191919" stroke-width="0.35 px" style="stroke-width:0.35;stroke-miterlimit:4;stroke-dasharray:none;fill:none;fill-opacity:1;fill-rule: evenodd"/>
<path id="Shape2DView_nwe0050"  d="M 0.9 0.45 L 1.633333333333 0.45 " stroke="#191919" stroke-width="0.35 px" style="stroke-width:0.35;stroke-miterlimit:4;stroke-dasharray:none;fill:none;fill-opacity:1;fill-rule: evenodd"/>
<path id="Shape2DView_nwe0051"  d="M 0.0 -0.4500000000000001 L 0.00565901109608169 -0.4500000000000001 L 0.02256487903635873 -0.4500000000000001 L 0.05050500272246916 -0.4500000000000001 L 0.08912801888782274 -0.4500000000000001 L 0.13794822069454427 -0.4500000000000001 L 0.19635166577877317 -0.45000000000000007 L 0.2636038969321072 -0.45000000000000007 L 0.33885917832713974 -0.45000000000000007 L 0.4211711311361971 -0.45000000000000007 L 0.5095046347941976 -0.45000000000000007 L 0.6027488442403496 -0.45000000000000007 L 0.699731159439317 -0.45 L 0.7992319715070229 -0.45 L 0.9 -0.45 " stroke="#191919" stroke-width="0.35 px" style="stroke-width:0.35;stroke-miterlimit:4;stroke-dasharray:none;fill:none;fill-opacity:1;fill-rule: evenodd"/>
<circle cx="2.386979502944e-15" cy="0.0" r="0.45" stroke="#191919" stroke-width="0.35 px" style="stroke-width:0.35;stroke-miterlimit:4;stroke-dasharray:none;fill:none"/>
<path id="Shape2DView_nwe0053"  d="M 83.466666666667 0.45 L 84.1 0.45 " stroke="#191919" stroke-width="0.35 px" style="stroke-width:0.35;stroke-miterlimit:4;stroke-dasharray:none;fill:none;fill-opacity:1;fill-rule: evenodd"/>
<path id="Shape2DView_nwe0054"  d="M 85.0 0.45 L 84.99434098890391 0.45 L 84.97743512096363 0.45 L 84.94949499727753 0.45 L 84.91087198111217 0.45 L 84.86205177930545 0.45 L 84.80364833422122 0.45 L 84.73639610306789 0.45 L 84.66114082167286 0.45 L 84.5788288688638 0.45 L 84.4904953652058 0.45 L 84.39725115575965 0.45 L 84.30026884056068 0.45 L 84.20076802849297 0.45 L 84.1 0.45 " stroke="#191919" stroke-width="0.35 px" style="stroke-width:0.35;stroke-miterlimit:4;stroke-dasharray:none;fill:none;fill-opacity:1;fill-rule: evenodd"/>
<path id="Shape2DView_nwe0055"  d="M 85.0 -0.45 A 0.45 0.45 0 0 1 85 0.45" stroke="#191919" stroke-width="0.35 px" style="stroke-width:0.35;stroke-miterlimit:4;stroke-dasharray:none;fill:none;fill-opacity:1;fill-rule: evenodd"/>
<path id="Shape2DView_nwe0056"  d="M 3.564979142851 -6.126761754152062 C 3.5649791428509983 -2.2555119963081403 3.5649791428509996 2.255503488313055 3.564979142851 6.126761754152352 " stroke="#191919" stroke-width="0.35 px" style="stroke-width:0.35;stroke-miterlimit:4;stroke-dasharray:none;fill:none;fill-opacity:1;fill-rule: evenodd"/>
<path id="Shape2DView_nwe0057"  d="M 2.699999999999997 -6.126761752165485 L 2.6999999999999966 -5.287767781902615 L 2.6999999999999966 -4.43213653791222 L 2.6999999999999966 -3.562560152640963 L 2.6999999999999966 -2.6817746351091882 L 2.6999999999999966 -1.7925512624143023 L 2.6999999999999966 -0.8976878602677685 L 2.6999999999999966 -3.1175062531474396e-13 L 2.6999999999999966 0.8976878602671468 L 2.6999999999999966 1.7925512624136832 L 2.6999999999999966 2.681774635108571 L 2.6999999999999966 3.562560152640353 L 2.6999999999999966 4.432136537911618 L 2.6999999999999966 5.287767781902023 L 2.699999999999997 6.126761752164906 " stroke="#191919" stroke-width="0.35 px" style="stroke-width:0.35;stroke-miterlimit:4;stroke-dasharray:none;fill:none;fill-opacity:1;fill-rule: evenodd"/>
<path id="Shape2DView_nwe0058"  d="M 3.769338405373 -6.096005443456522 C 3.769338405372998 -2.2441893647688707 3.7693384053729995 2.2441809212977226 3.7693384053730004 6.096005443456778 " stroke="#191919" stroke-width="0.35 px" style="stroke-width:0.35;stroke-miterlimit:4;stroke-dasharray:none;fill:none;fill-opacity:1;fill-rule: evenodd"/>
<path id="Shape2DView_nwe0059"  d="M 2.6999999999999966 6.126761752165 L 2.6999999999999966 7.347127003235547 L 2.699999999999997 8.515519387114296 L 2.699999999999997 9.623673808864334 L 2.699999999999997 10.663751291078 L 2.6999999999999975 11.62839442604634 L 2.6999999999999975 12.510779421351021 L 2.699999999999998 13.304664370713192 L 2.6999999999999984 14.004433408635961 L 2.6999999999999984 14.605136436494803 L 2.699999999999999 15.102524139057405 L 2.6999999999999993 15.49307804372941 L 2.6999999999999993 15.77403540988992 L 2.6999999999999997 15.943408772251946 L 2.7 16.0 " stroke="#191919" stroke-width="0.35 px" style="stroke-width:0.35;stroke-miterlimit:4;stroke-dasharray:none;fill:none;fill-opacity:1;fill-rule: evenodd"/>
<path id="Shape2DView_nwe0060"  d="M 2.7 -16.0 L 2.7 -15.943408772251837 L 2.6999999999999997 -15.77403540988972 L 2.6999999999999993 -15.493078043729138 L 2.699999999999999 -15.102524139057074 L 2.699999999999999 -14.605136436494433 L 2.6999999999999984 -14.004433408635565 L 2.699999999999998 -13.304664370712793 L 2.699999999999998 -12.51077942135063 L 2.6999999999999975 -11.628394426045976 L 2.6999999999999975 -10.663751291077675 L 2.699999999999997 -9.623673808864059 L 2.699999999999997 -8.515519387114082 L 2.699999999999997 -7.347127003235407 L 2.6999999999999966 -6.126761752165006 " stroke="#191919" stroke-width="0.35 px" style="stroke-width:0.35;stroke-miterlimit:4;stroke-dasharray:none;fill:none;fill-opacity:1;fill-rule: evenodd"/>
<path id="Shape2DView_nwe0061"  d="M 3.5649791428510036 6.126761752164997 C 3.564979140194374 11.969131966700127 3.56497912649558 16.086922868245242 3.5649791411370266 16.000000388662183 " stroke="#191919" stroke-width="0.35 px" style="stroke-width:0.35;stroke-miterlimit:4;stroke-dasharray:none;fill:none;fill-opacity:1;fill-rule: evenodd"/>
<path id="Shape2DView_nwe0062"  d="M 3.5649791411371177 -16.000000388658968 C 3.5649791264957367 -16.08692286824154 3.5649791401942306 -11.969131966698201 3.5649791428510027 -6.12676175216523 " stroke="#191919" stroke-width="0.35 px" style="stroke-width:0.35;stroke-miterlimit:4;stroke-dasharray:none;fill:none;fill-opacity:1;fill-rule: evenodd"/>
<path id="Shape2DView_nwe0063"  d="M 3.7693384053729972 6.096005445434003 C 3.769338405823719 11.909045485371806 3.7693384081474717 16.00612594598622 3.7693384056637895 15.919630301296829 " stroke="#191919" stroke-width="0.35 px" style="stroke-width:0.35;stroke-miterlimit:4;stroke-dasharray:none;fill:none;fill-opacity:1;fill-rule: evenodd"/>
<path id="Shape2DView_nwe0064"  d="M 3.7693384056636807 -15.919630301292774 C 3.7693384081472603 -16.006125945981594 3.769338405823589 -11.90904548536176 3.769338405373003 -6.096005445430205 " stroke="#191919" stroke-width="0.35 px" style="stroke-width:0.35;stroke-miterlimit:4;stroke-dasharray:none;fill:none;fill-opacity:1;fill-rule: evenodd"/>
<path id="Shape2DView_nwe0065"  d="M 4.430661594627 6.0960054454340025 C 4.430661594176403 11.90904548537169 4.430661591852607 16.0061259459861 4.4306615943363195 15.919630301296857 " stroke="#191919" stroke-width="0.35 px" style="stroke-width:0.35;stroke-miterlimit:4;stroke-dasharray:none;fill:none;fill-opacity:1;fill-rule: evenodd"/>
<path id="Shape2DView_nwe0066"  d="M 4.4306615943364225 -15.919630301293829 C 4.43066159185271 -16.00612594598415 4.430661594176272 -11.90904548537163 4.430661594627 -6.09600544543416 " stroke="#191919" stroke-width="0.35 px" style="stroke-width:0.35;stroke-miterlimit:4;stroke-dasharray:none;fill:none;fill-opacity:1;fill-rule: evenodd"/>
<path id="Shape2DView_nwe0067"  d="M 4.635020857148998 6.126761752164997 C 4.6350208598057705 11.969131966699928 4.6350208735042635 16.086922868245033 4.6350208588628234 16.000000388662144 " stroke="#191919" stroke-width="0.35 px" style="stroke-width:0.35;stroke-miterlimit:4;stroke-dasharray:none;fill:none;fill-opacity:1;fill-rule: evenodd"/>
<path id="Shape2DView_nwe0068"  d="M 4.635020858863033 -16.000000388657114 C 4.635020873504424 -16.0869228682409 4.635020859805621 -11.96913196669984 4.635020857148994 -6.126761752167965 " stroke="#191919" stroke-width="0.35 px" style="stroke-width:0.35;stroke-miterlimit:4;stroke-dasharray:none;fill:none;fill-opacity:1;fill-rule: evenodd"/>
<path id="Shape2DView_nwe0069"  d="M 82.3 6.126761752165 L 82.3 7.347127003235504 L 82.3 8.515519387114212 L 82.3 9.623673808864218 L 82.3 10.663751291077856 L 82.3 11.628394426046173 L 82.3 12.51077942135084 L 82.3 13.304664370713002 L 82.3 14.004433408635771 L 82.3 14.605136436494622 L 82.3 15.102524139057243 L 82.3 15.493078043729277 L 82.3 15.774035409889821 L 82.3 15.943408772251892 L 82.3 16.0 " stroke="#191919" stroke-width="0.35 px" style="stroke-width:0.35;stroke-miterlimit:4;stroke-dasharray:none;fill:none;fill-opacity:1;fill-rule: evenodd"/>
<path id="Shape2DView_nwe0070"  d="M 82.3 -16.0 L 82.3 -15.943408772251892 L 82.3 -15.774035409889825 L 82.3 -15.49307804372928 L 82.3 -15.102524139057248 L 82.3 -14.60513643649463 L 82.3 -14.004433408635778 L 82.3 -13.304664370713013 L 82.3 -12.510779421350854 L 82.3 -11.62839442604619 L 82.3 -10.663751291077874 L 82.3 -9.62367380886424 L 82.3 -8.515519387114239 L 82.3 -7.347127003235533 L 82.3 -6.126761752165005 " stroke="#191919" stroke-width="0.35 px" style="stroke-width:0.35;stroke-miterlimit:4;stroke-dasharray:none;fill:none;fill-opacity:1;fill-rule: evenodd"/>
<path id="Shape2DView_nwe0071"  d="M 82.3 -6.126761752165485 L 82.3 -5.287767781902615 L 82.3 -4.43213653791222 L 82.3 -3.562560152640963 L 82.3 -2.6817746351091882 L 82.3 -1.7925512624143023 L 82.3 -0.8976878602677685 L 82.3 -3.1175062531474396e-13 L 82.3 0.8976878602671468 L 82.3 1.7925512624136832 L 82.3 2.681774635108571 L 82.3 3.562560152640353 L 82.3 4.432136537911618 L 82.3 5.287767781902023 L 82.3 6.126761752164906 " stroke="#191919" stroke-width="0.35 px" style="stroke-width:0.35;stroke-miterlimit:4;stroke-dasharray:none;fill:none;fill-opacity:1;fill-rule: evenodd"/>
<path id="Shape2DView_nwe0072"  d="M 4.635020857149 -6.126761754152062 C 4.635020857148997 -2.2555119963081394 4.6350208571490015 2.255503488313054 4.635020857149 6.126761754152352 " stroke="#191919" stroke-width="0.35 px" style="stroke-width:0.35;stroke-miterlimit:4;stroke-dasharray:none;fill:none;fill-opacity:1;fill-rule: evenodd"/>
<path id="Shape2DView_nwe0073"  d="M 4.430661594627 -6.096005443456522 C 4.430661594626998 -2.2441893647688707 4.430661594627001 2.2441809212977226 4.430661594627 6.096005443456778 " stroke="#191919" stroke-width="0.35 px" style="stroke-width:0.35;stroke-miterlimit:4;stroke-dasharray:none;fill:none;fill-opacity:1;fill-rule: evenodd"/>
<path id="Shape2DView_nwe0074"  d="M 0.9 0.45 L 0.8999999999999999 0.43871756048182065 L 0.8999999999999999 0.40543599055608864 L 0.8999999999999999 0.3518241671106135 L 0.8999999999999999 0.2805704108364302 L 0.8999999999999999 0.19524768260290123 L 0.8999999999999999 0.10013442028034157 L 0.9 8.266365894244634e-17 L 0.9 -0.1001344202803414 L 0.9 -0.1952476826029011 L 0.9 -0.28057041083643003 L 0.9 -0.3518241671106134 L 0.9 -0.4054359905560886 L 0.9 -0.4387175604818206 L 0.9 -0.45 " stroke="#191919" stroke-width="0.35 px" style="stroke-width:0.35;stroke-miterlimit:4;stroke-dasharray:none;fill:none;fill-opacity:1;fill-rule: evenodd"/>
<path id="Shape2DView_nwe0075"  d="M 84.1 -0.45 L 84.1 -0.43871756048182065 L 84.1 -0.40543599055608864 L 84.1 -0.3518241671106135 L 84.1 -0.2805704108364302 L 84.1 -0.19524768260290123 L 84.1 -0.10013442028034157 L 84.1 -8.266365894244634e-17 L 84.1 0.1001344202803414 L 84.1 0.1952476826029011 L 84.1 0.28057041083643003 L 84.1 0.3518241671106134 L 84.1 0.4054359905560886 L 84.1 0.4387175604818206 L 84.1 0.45 " stroke="#191919" stroke-width="0.35 px" style="stroke-width:0.35;stroke-miterlimit:4;stroke-dasharray:none;fill:none;fill-opacity:1;fill-rule: evenodd"/>
<path id="Shape2DView_nwe0076"  d="M 2.7 15.999999999999536 Q 2.519455656295287 15.98388522120457 2.5000000000000036 15.799999999999534 " stroke="#191919" stroke-width="0.35 px" style="stroke-width:0.35;stroke-miterlimit:4;stroke-dasharray:none;fill:none;fill-opacity:1;fill-rule: evenodd"/>
<path id="Shape2DView_nwe0077"  d="M 2.7 -15.999999999999535 Q 2.519455656295287 -15.983885221204575 2.5000000000000036 -15.799999999999532 " stroke="#191919" stroke-width="0.35 px" style="stroke-width:0.35;stroke-miterlimit:4;stroke-dasharray:none;fill:none;fill-opacity:1;fill-rule: evenodd"/>
<path id="Shape2DView_nwe0078"  d="M 2.6999999999999997 -16.0 L 3.5649791411253204 -16.0 " stroke="#191919" stroke-width="0.35 px" style="stroke-width:0.35;stroke-miterlimit:4;stroke-dasharray:none;fill:none;fill-opacity:1;fill-rule: evenodd"/>
<path id="Shape2DView_nwe0079"  d="M 2.6999999999999997 16.0 L 3.564979141125228 16.0 " stroke="#191919" stroke-width="0.35 px" style="stroke-width:0.35;stroke-miterlimit:4;stroke-dasharray:none;fill:none;fill-opacity:1;fill-rule: evenodd"/>
<path id="Shape2DView_nwe0080"  d="M 3.7693384056638806 15.919630301298866 L 3.5649791411370337 16.00000038866419 " stroke="#191919" stroke-width="0.35 px" style="stroke-width:0.35;stroke-miterlimit:4;stroke-dasharray:none;fill:none;fill-opacity:1;fill-rule: evenodd"/>
<path id="Shape2DView_nwe0081"  d="M 3.769338405664025 -15.919630301294408 L 3.5649791411371248 -16.0000003886608 " stroke="#191919" stroke-width="0.35 px" style="stroke-width:0.35;stroke-miterlimit:4;stroke-dasharray:none;fill:none;fill-opacity:1;fill-rule: evenodd"/>
<path id="Shape2DView_nwe0082"  d="M 3.7693382231107506 15.919630066965667 Q 4.094517385764827 15.661337773201854 4.430661776889325 15.919630066965729 " stroke="#191919" stroke-width="0.35 px" style="stroke-width:0.35;stroke-miterlimit:4;stroke-dasharray:none;fill:none;fill-opacity:1;fill-rule: evenodd"/>
<path id="Shape2DView_nwe0083"  d="M 3.769338223112712 -15.919630066963844 Q 4.0945173857687855 -15.661337773203376 4.4306617768878676 -15.919630066964377 " stroke="#191919" stroke-width="0.35 px" style="stroke-width:0.35;stroke-miterlimit:4;stroke-dasharray:none;fill:none;fill-opacity:1;fill-rule: evenodd"/>
<path id="Shape2DView_nwe0084"  d="M 4.635020858862814 16.00000038866417 L 4.430661594336321 15.919630301299005 " stroke="#191919" stroke-width="0.35 px" style="stroke-width:0.35;stroke-miterlimit:4;stroke-dasharray:none;fill:none;fill-opacity:1;fill-rule: evenodd"/>
<path id="Shape2DView_nwe0085"  d="M 4.635020858863026 -16.0000003886591 L 4.430661594336424 -15.919630301295921 " stroke="#191919" stroke-width="0.35 px" style="stroke-width:0.35;stroke-miterlimit:4;stroke-dasharray:none;fill:none;fill-opacity:1;fill-rule: evenodd"/>
<path id="Shape2DView_nwe0086"  d="M 4.635020858874833 -16.0 L 82.30000000000001 -16.0 " stroke="#191919" stroke-width="0.35 px" style="stroke-width:0.35;stroke-miterlimit:4;stroke-dasharray:none;fill:none;fill-opacity:1;fill-rule: evenodd"/>
<path id="Shape2DView_nwe0087"  d="M 4.63502085887462 16.0 L 82.30000000000001 16.0 " stroke="#191919" stroke-width="0.35 px" style="stroke-width:0.35;stroke-miterlimit:4;stroke-dasharray:none;fill:none;fill-opacity:1;fill-rule: evenodd"/>
<path id="Shape2DView_nwe0088"  d="M 82.3 16.0 Q 82.48054434370471 15.98388522120504 82.5 15.799999999999986 " stroke="#191919" stroke-width="0.35 px" style="stroke-width:0.35;stroke-miterlimit:4;stroke-dasharray:none;fill:none;fill-opacity:1;fill-rule: evenodd"/>
<path id="Shape2DView_nwe0089"  d="M 82.3 -16.0 Q 82.48054434370471 -15.983885221205039 82.5 -15.79999999999999 " stroke="#191919" stroke-width="0.35 px" style="stroke-width:0.35;stroke-miterlimit:4;stroke-dasharray:none;fill:none;fill-opacity:1;fill-rule: evenodd"/>
<path id="Shape2DView_nwe0090"  d="M 1.633333333333 -4.0 L 2.4899999999999967 -4.0 " stroke="#191919" stroke-width="0.35 px" style="stroke-width:0.35;stroke-miterlimit:4;stroke-dasharray:none;fill:none;fill-opacity:1;fill-rule: evenodd"/>
<path id="Shape2DView_nwe0091"  d="M 1.633333333333 4.0 L 2.4899999999999967 4.0 " stroke="#191919" stroke-width="0.35 px" style="stroke-width:0.35;stroke-miterlimit:4;stroke-dasharray:none;fill:none;fill-opacity:1;fill-rule: evenodd"/>
<path id="Shape2DView_nwe0092"  d="M 83.466666666667 4.0 L 82.51 4.0 " stroke="#191919" stroke-width="0.35 px" style="stroke-width:0.35;stroke-miterlimit:4;stroke-dasharray:none;fill:none;fill-opacity:1;fill-rule: evenodd"/>
<path id="Shape2DView_nwe0093"  d="M 83.466666666667 -4.0 L 82.51 -4.0 " stroke="#191919" stroke-width="0.35 px" style="stroke-width:0.35;stroke-miterlimit:4;stroke-dasharray:none;fill:none;fill-opacity:1;fill-rule: evenodd"/>
<path id="Shape2DView_nwe0094"  d="M 1.633333333333 -0.45 L 0.9 -0.45 " stroke="#191919" stroke-width="0.35 px" style="stroke-width:0.35;stroke-miterlimit:4;stroke-dasharray:none;fill:none;fill-opacity:1;fill-rule: evenodd"/>
<path id="Shape2DView_nwe0095"  d="M 84.1 -0.45 L 83.466666666667 -0.45 " stroke="#191919" stroke-width="0.35 px" style="stroke-width:0.35;stroke-miterlimit:4;stroke-dasharray:none;fill:none;fill-opacity:1;fill-rule: evenodd"/>
<path id="Shape2DView_nwe0096"  d="M 84.1 -0.44999999999999885 Q 84.9199090478201 -0.44999999999999984 85.0 -0.44999999999999996 " stroke="#191919" stroke-width="0.35 px" style="stroke-width:0.35;stroke-miterlimit:4;stroke-dasharray:none;fill:none;fill-opacity:1;fill-rule: evenodd"/>
<title>b'Shape2DView'</title>
</g>
<g id="Rectangle" transform="translate(1.305653,16.858935) scale(1,-1)">
<rect fill="#ff0000" id="origin" width="1" height="1" x="0" y="0" />
<title>b'Rectangle'</title>
</g>
</svg>