<?xml version="1.0"?>
<!DOCTYPE svg PUBLIC "-//W3C//DTD SVG 1.1//EN" "http://www.w3.org/Graphics/SVG/1.1/DTD/svg11.dtd">
<svg width="77.41130674642201mm" height="36.51786960993259mm" viewBox="0 0 77.41130674642201 36.51786960993259" xmlns="http://www.w3.org/2000/svg" version="1.1">
<g id="Shape2DView" transform="translate(1.205653,18.258935) scale(1,-1)">
<path id="Shape2DView_nwe0000"  d="M 4.2 6.700786900713 L 5.064979142851 6.700786900713 " stroke="#191919" stroke-width="0.35 px" style="stroke-width:0.35;stroke-miterlimit:4;stroke-dasharray:none;fill:none;fill-opacity:1;fill-rule: evenodd"/>
<path id="Shape2DView_nwe0001"  d="M 4.2 -6.700786900713 L 5.064979142851 -6.700786900713 " stroke="#191919" stroke-width="0.35 px" style="stroke-width:0.35;stroke-miterlimit:4;stroke-dasharray:none;fill:none;fill-opacity:1;fill-rule: evenodd"/>
<path id="Shape2DView_nwe0002"  d="M 5.064979142851 -6.700786900713 L 5.269338405373 -6.670030593981 " stroke="#191919" stroke-width="0.35 px" style="stroke-width:0.35;stroke-miterlimit:4;stroke-dasharray:none;fill:none;fill-opacity:1;fill-rule: evenodd"/>
<path id="Shape2DView_nwe0003"  d="M 5.269338405372611 -6.670030593981022 A 0.485412 0.185759 -180 0 0 5.93066 -6.67003" stroke="#191919" stroke-width="0.35 px" style="stroke-width:0.35;stroke-miterlimit:4;stroke-dasharray:none;fill:none;fill-opacity:1;fill-rule: evenodd"/>
<path id="Shape2DView_nwe0004"  d="M 5.930661594627 -6.670030593981 L 6.135020857149 -6.700786900713 " stroke="#191919" stroke-width="0.35 px" style="stroke-width:0.35;stroke-miterlimit:4;stroke-dasharray:none;fill:none;fill-opacity:1;fill-rule: evenodd"/>
<path id="Shape2DView_nwe0005"  d="M 6.135020857149 -6.700786900713 L 70.8 -6.700786900713 " stroke="#191919" stroke-width="0.35 px" style="stroke-width:0.35;stroke-miterlimit:4;stroke-dasharray:none;fill:none;fill-opacity:1;fill-rule: evenodd"/>
<path id="Shape2DView_nwe0006"  d="M 70.8 -6.700786900712674 A 0.21 0.0803635 5.26972e-15 0 1 71.01 -6.62042" stroke="#191919" stroke-width="0.35 px" style="stroke-width:0.35;stroke-miterlimit:4;stroke-dasharray:none;fill:none;fill-opacity:1;fill-rule: evenodd"/>
<path id="Shape2DView_nwe0007"  d="M 3.99 -6.6204233799160015 A 0.21 0.0803635 5.26972e-15 0 1 4.2 -6.70079" stroke="#191919" stroke-width="0.35 px" style="stroke-width:0.35;stroke-miterlimit:4;stroke-dasharray:none;fill:none;fill-opacity:1;fill-rule: evenodd"/>
<path id="Shape2DView_nwe0008"  d="M 5.064979142851 6.700786900713 L 5.269338405373 6.670030593981 " stroke="#191919" stroke-width="0.35 px" style="stroke-width:0.35;stroke-miterlimit:4;stroke-dasharray:none;fill:none;fill-opacity:1;fill-rule: evenodd"/>
<path id="Shape2DView_nwe0009"  d="M 3.9899999999999967 -6.620423379916482 L 3.9899999999999967 -5.713827771824794 L 3.9899999999999967 -4.78925434765027 L 3.9899999999999967 -3.8496121574445845 L 3.989999999999996 -2.8978576631722537 L 3.989999999999996 -1.9369854365875039 L 3.989999999999996 -0.9700187372036613 L 3.989999999999996 -2.0694557179012918e-13 L 3.989999999999996 0.9700187372032474 L 3.989999999999996 1.9369854365870944 L 3.989999999999996 2.897857663171844 L 3.9899999999999967 3.849612157444179 L 3.9899999999999967 4.789254347649871 L 3.9899999999999967 5.713827771824403 L 3.9899999999999967 6.620423379916098 " stroke="#191919" stroke-width="0.35 px" style="stroke-width:0.35;stroke-miterlimit:4;stroke-dasharray:none;fill:none;fill-opacity:1;fill-rule: evenodd"/>
<path id="Shape2DView_nwe0010"  d="M 3.99 6.6204233799160015 A 0.21 0.0803635 -5.26972e-15 0 0 4.2 6.70079" stroke="#191919" stroke-width="0.35 px" style="stroke-width:0.35;stroke-miterlimit:4;stroke-dasharray:none;fill:none;fill-opacity:1;fill-rule: evenodd"/>
<path id="Shape2DView_nwe0011"  d="M 5.269338405372611 6.670030593981022 A 0.485412 0.185759 180 0 1 5.93066 6.67003" stroke="#191919" stroke-width="0.35 px" style="stroke-width:0.35;stroke-miterlimit:4;stroke-dasharray:none;fill:none;fill-opacity:1;fill-rule: evenodd"/>
<path id="Shape2DView_nwe0012"  d="M 5.930661594627 6.670030593981 L 6.135020857149 6.700786900713 " stroke="#191919" stroke-width="0.35 px" style="stroke-width:0.35;stroke-miterlimit:4;stroke-dasharray:none;fill:none;fill-opacity:1;fill-rule: evenodd"/>
<path id="Shape2DView_nwe0013"  d="M 6.135020857149 6.700786900713 L 70.8 6.700786900713 " stroke="#191919" stroke-width="0.35 px" style="stroke-width:0.35;stroke-miterlimit:4;stroke-dasharray:none;fill:none;fill-opacity:1;fill-rule: evenodd"/>
<path id="Shape2DView_nwe0014"  d="M 70.8 6.700786900712674 A 0.21 0.0803635 -5.26972e-15 0 0 71.01 6.62042" stroke="#191919" stroke-width="0.35 px" style="stroke-width:0.35;stroke-miterlimit:4;stroke-dasharray:none;fill:none;fill-opacity:1;fill-rule: evenodd"/>
<path id="Shape2DView_nwe0015"  d="M 3.999999999999996 6.644927075526406 L 3.9999999999999964 7.962265917979965 L 3.9999999999999964 9.223402233669127 L 3.9999999999999964 10.419434153670373 L 3.999999999999997 11.541919355573551 L 3.999999999999997 12.582934654540017 L 3.9999999999999973 13.535131929971312 L 3.999999999999998 14.39178999302387 L 3.999999999999998 15.146862028857221 L 3.9999999999999982 15.795018278739349 L 3.9999999999999987 16.331683660732928 L 3.9999999999999987 16.753070063412682 L 3.999999999999999 17.056203084665103 L 3.9999999999999996 17.238943026831805 L 4.0 17.3 " stroke="#191919" stroke-width="0.35 px" style="stroke-width:0.35;stroke-miterlimit:4;stroke-dasharray:none;fill:none;fill-opacity:1;fill-rule: evenodd"/>
<path id="Shape2DView_nwe0016"  d="M 4.0 -17.3 L 4.0 -17.23894302683173 L 3.9999999999999996 -17.05620308466497 L 3.999999999999999 -16.7530700634125 L 3.9999999999999987 -16.33168366073271 L 3.9999999999999987 -15.795018278739107 L 3.9999999999999982 -15.146862028856976 L 3.999999999999998 -14.391789993023627 L 3.9999999999999973 -13.535131929971081 L 3.9999999999999973 -12.582934654539816 L 3.999999999999997 -11.541919355573388 L 3.999999999999997 -10.419434153670256 L 3.9999999999999964 -9.223402233669065 L 3.9999999999999964 -7.962265917979966 L 3.9999999999999964 -6.644927075526401 " stroke="#191919" stroke-width="0.35 px" style="stroke-width:0.35;stroke-miterlimit:4;stroke-dasharray:none;fill:none;fill-opacity:1;fill-rule: evenodd"/>
<path id="Shape2DView_nwe0017"  d="M 71.0 6.644927075526407 L 71.0 7.962265917980043 L 71.0 9.223402233669276 L 71.0 10.419434153670583 L 71.0 11.54191935557381 L 71.0 12.582934654540313 L 71.0 13.535131929971634 L 71.0 14.391789993024208 L 71.0 15.146862028857555 L 71.0 15.795018278739665 L 71.0 16.331683660733216 L 71.0 16.75307006341292 L 71.0 17.056203084665274 L 71.0 17.238943026831897 L 71.0 17.3 " stroke="#191919" stroke-width="0.35 px" style="stroke-width:0.35;stroke-miterlimit:4;stroke-dasharray:none;fill:none;fill-opacity:1;fill-rule: evenodd"/>
<path id="Shape2DView_nwe0018"  d="M 71.0 17.3 L 71.0 17.272880467416552 L 71.0 17.19160689498974 L 71.0 17.056434092117897 L 71.0 16.867785853394302 L 71.0 16.6262536299238 L 71.0 16.33259467500168 L 71.0 15.98772966996858 L 71.0 15.59273983768471 L 71.0 15.148863552673397 L 71.0 14.657492458561727 L 71.0 14.120167104991008 L 71.0 13.538572117676162 L 71.0 12.914530916756933 L 71.0 12.250000000000002 " stroke="#191919" stroke-width="0.35 px" style="stroke-width:0.35;stroke-miterlimit:4;stroke-dasharray:none;fill:none;fill-opacity:1;fill-rule: evenodd"/>
<path id="Shape2DView_nwe0019"  d="M 71.0 -12.249999999999998 L 71.0 -12.91453091675696 L 71.0 -13.538572117676207 L 71.0 -14.120167104991072 L 71.0 -14.657492458561803 L 71.0 -15.148863552673483 L 71.0 -15.592739837684803 L 71.0 -15.987729669968676 L 71.0 -16.332594675001776 L 71.0 -16.626253629923884 L 71.0 -16.86778585339438 L 71.0 -17.05643409211796 L 71.0 -17.19160689498979 L 71.0 -17.27288046741658 L 71.0 -17.3 " stroke="#191919" stroke-width="0.35 px" style="stroke-width:0.35;stroke-miterlimit:4;stroke-dasharray:none;fill:none;fill-opacity:1;fill-rule: evenodd"/>
<path id="Shape2DView_nwe0020"  d="M 71.0 -17.3 L 71.0 -17.238943026831866 L 71.0 -17.05620308466521 L 71.0 -16.75307006341283 L 71.0 -16.331683660733106 L 71.0 -15.795018278739548 L 71.0 -15.14686202885743 L 71.0 -14.391789993024085 L 71.0 -13.535131929971522 L 71.0 -12.582934654540216 L 71.0 -11.541919355573732 L 71.0 -10.419434153670524 L 71.0 -9.223402233669248 L 71.0 -7.962265917980046 L 71.0 -6.6449270755264 " stroke="#191919" stroke-width="0.35 px" style="stroke-width:0.35;stroke-miterlimit:4;stroke-dasharray:none;fill:none;fill-opacity:1;fill-rule: evenodd"/>
<path id="Shape2DView_nwe0021"  d="M 71.01 -6.620423379916482 L 71.01 -5.713827771824794 L 71.01 -4.78925434765027 L 71.01 -3.8496121574445845 L 71.01 -2.8978576631722537 L 71.01 -1.9369854365875039 L 71.01 -0.9700187372036613 L 71.01 -2.0694557179012918e-13 L 71.01 0.9700187372032474 L 71.01 1.9369854365870944 L 71.01 2.897857663171844 L 71.01 3.849612157444179 L 71.01 4.789254347649871 L 71.01 5.713827771824403 L 71.01 6.620423379916098 " stroke="#191919" stroke-width="0.35 px" style="stroke-width:0.35;stroke-miterlimit:4;stroke-dasharray:none;fill:none;fill-opacity:1;fill-rule: evenodd"/>
<path id="Shape2DView_nwe0022"  d="M 46.24 1.75 L 56.76 1.75 " stroke="#191919" stroke-width="0.35 px" style="stroke-width:0.35;stroke-miterlimit:4;stroke-dasharray:none;fill:none;fill-opacity:1;fill-rule: evenodd"/>
<path id="Shape2DView_nwe0023"  d="M 18.24 1.75 L 28.76 1.75 " stroke="#191919" stroke-width="0.35 px" style="stroke-width:0.35;stroke-miterlimit:4;stroke-dasharray:none;fill:none;fill-opacity:1;fill-rule: evenodd"/>
<path id="Shape2DView_nwe0024"  d="M 3.033333333333 4.375 L 3.033333333333 4.265309615795478 L 3.0333333333329997 3.941738797073084 L 3.0333333333329997 3.420512735797631 L 3.0333333333329993 2.7277678831319596 L 3.0333333333329993 1.8982413586393172 L 3.0333333333329993 0.973529086058876 L 3.0333333333329993 5.357829746269671e-16 L 3.0333333333329993 -0.973529086058875 L 3.0333333333329993 -1.8982413586393163 L 3.0333333333329993 -2.7277678831319587 L 3.0333333333329997 -3.42051273579763 L 3.0333333333329997 -3.941738797073083 L 3.033333333333 -4.265309615795478 L 3.033333333333 -4.375 " stroke="#191919" stroke-width="0.35 px" style="stroke-width:0.35;stroke-miterlimit:4;stroke-dasharray:none;fill:none;fill-opacity:1;fill-rule: evenodd"/>
<path id="Shape2DView_nwe0025"  d="M 46.24 -1.75 C 45.490707071048 -1.7365192451534484 44.573988722197626 -1.2652911530298532 44.5 -0.010000000000010001 " stroke="#191919" stroke-width="0.35 px" style="stroke-width:0.35;stroke-miterlimit:4;stroke-dasharray:none;fill:none;fill-opacity:1;fill-rule: evenodd"/>
<path id="Shape2DView_nwe0026"  d="M 44.49999999999999 0.009999999999998899 L 44.49999999999999 0.008571428695050898 L 44.49999999999999 0.007142857333046315 L 44.49999999999999 0.005714285923499318 L 44.49999999999999 0.00428571447591608 L 44.49999999999999 0.002857142999806328 L 44.49999999999999 0.0014285715046780112 L 44.49999999999999 3.907985046680551e-14 L 44.49999999999999 -0.001428571504597187 L 44.49999999999999 -0.0028571429997246156 L 44.49999999999999 -0.004285714475836144 L 44.49999999999999 -0.005714285923419382 L 44.49999999999999 -0.007142857332967267 L 44.49999999999999 -0.008571428694969185 L 44.49999999999999 -0.009999999999997122 " stroke="#191919" stroke-width="0.35 px" style="stroke-width:0.35;stroke-miterlimit:4;stroke-dasharray:none;fill:none;fill-opacity:1;fill-rule: evenodd"/>
<path id="Shape2DView_nwe0027"  d="M 46.24 1.75 C 45.49070707104962 1.7365192451511091 44.57398872220023 1.2652911530364739 44.50000000000001 0.010000000000000231 " stroke="#191919" stroke-width="0.35 px" style="stroke-width:0.35;stroke-miterlimit:4;stroke-dasharray:none;fill:none;fill-opacity:1;fill-rule: evenodd"/>
<path id="Shape2DView_nwe0029"  d="M 56.76 1.75 C 57.509292928951965 1.7365192451535154 58.42601127780243 1.265291153029763 58.5 0.009999999999999787 " stroke="#191919" stroke-width="0.35 px" style="stroke-width:0.35;stroke-miterlimit:4;stroke-dasharray:none;fill:none;fill-opacity:1;fill-rule: evenodd"/>
<path id="Shape2DView_nwe0030"  d="M 58.49999999999999 0.009999999999998899 L 58.49999999999999 0.008571428695050898 L 58.49999999999999 0.007142857333046315 L 58.49999999999999 0.005714285923499318 L 58.49999999999999 0.00428571447591608 L 58.49999999999999 0.002857142999806328 L 58.49999999999999 0.0014285715046780112 L 58.49999999999999 3.907985046680551e-14 L 58.49999999999999 -0.001428571504597187 L 58.49999999999999 -0.0028571429997246156 L 58.49999999999999 -0.004285714475836144 L 58.49999999999999 -0.005714285923419382 L 58.49999999999999 -0.007142857332967267 L 58.49999999999999 -0.008571428694969185 L 58.49999999999999 -0.009999999999997122 " stroke="#191919" stroke-width="0.35 px" style="stroke-width:0.35;stroke-miterlimit:4;stroke-dasharray:none;fill:none;fill-opacity:1;fill-rule: evenodd"/>
<path id="Shape2DView_nwe0031"  d="M 56.76 -1.75 C 57.509292940354726 -1.7365192708486128 58.42601130974096 -1.2652910774584352 58.49999999999999 -0.010000000000010001 " stroke="#191919" stroke-width="0.35 px" style="stroke-width:0.35;stroke-miterlimit:4;stroke-dasharray:none;fill:none;fill-opacity:1;fill-rule: evenodd"/>
<path id="Shape2DView_nwe0032"  d="M 46.24 -1.75 L 56.76 -1.75 " stroke="#191919" stroke-width="0.35 px" style="stroke-width:0.35;stroke-miterlimit:4;stroke-dasharray:none;fill:none;fill-opacity:1;fill-rule: evenodd"/>
<path id="Shape2DView_nwe0033"  d="M 18.24 -1.75 C 17.490707059645707 -1.7365192708481416 16.57398869025868 -1.2652910774586945 16.499999999999996 -0.010000000000010001 " stroke="#191919" stroke-width="0.35 px" style="stroke-width:0.35;stroke-miterlimit:4;stroke-dasharray:none;fill:none;fill-opacity:1;fill-rule: evenodd"/>
<path id="Shape2DView_nwe0034"  d="M 16.499999999999996 0.009999999999998899 L 16.499999999999996 0.008571428695050898 L 16.499999999999996 0.007142857333046315 L 16.499999999999996 0.005714285923499318 L 16.499999999999996 0.00428571447591608 L 16.499999999999996 0.002857142999806328 L 16.499999999999996 0.0014285715046780112 L 16.499999999999996 3.907985046680551e-14 L 16.499999999999996 -0.001428571504597187 L 16.499999999999996 -0.0028571429997246156 L 16.499999999999996 -0.004285714475836144 L 16.499999999999996 -0.005714285923419382 L 16.499999999999996 -0.007142857332967267 L 16.499999999999996 -0.008571428694969185 L 16.499999999999996 -0.009999999999997122 " stroke="#191919" stroke-width="0.35 px" style="stroke-width:0.35;stroke-miterlimit:4;stroke-dasharray:none;fill:none;fill-opacity:1;fill-rule: evenodd"/>
<path id="Shape2DView_nwe0035"  d="M 18.24 1.75 C 17.49070707105013 1.7365192451515428 16.57398872220002 1.2652911530363122 16.499999999999996 0.010000000000000009 " stroke="#191919" stroke-width="0.35 px" style="stroke-width:0.35;stroke-miterlimit:4;stroke-dasharray:none;fill:none;fill-opacity:1;fill-rule: evenodd"/>
<path id="Shape2DView_nwe0037"  d="M 28.76 1.75 C 29.509292928949844 1.7365192451515428 30.426011277799986 1.2652911530363122 30.500000000000004 0.010000000000000009 " stroke="#191919" stroke-width="0.35 px" style="stroke-width:0.35;stroke-miterlimit:4;stroke-dasharray:none;fill:none;fill-opacity:1;fill-rule: evenodd"/>
<path id="Shape2DView_nwe0038"  d="M 30.499999999999996 0.009999999999998899 L 30.499999999999996 0.008571428695050898 L 30.499999999999996 0.007142857333046315 L 30.499999999999996 0.005714285923499318 L 30.499999999999996 0.00428571447591608 L 30.499999999999996 0.002857142999806328 L 30.499999999999996 0.0014285715046780112 L 30.499999999999996 3.907985046680551e-14 L 30.499999999999996 -0.001428571504597187 L 30.499999999999996 -0.0028571429997246156 L 30.499999999999996 -0.004285714475836144 L 30.499999999999996 -0.005714285923419382 L 30.499999999999996 -0.007142857332967267 L 30.499999999999996 -0.008571428694969185 L 30.499999999999996 -0.009999999999997122 " stroke="#191919" stroke-width="0.35 px" style="stroke-width:0.35;stroke-miterlimit:4;stroke-dasharray:none;fill:none;fill-opacity:1;fill-rule: evenodd"/>
<path id="Shape2DView_nwe0039"  d="M 28.76 -1.75 C 29.50929292895034 -1.736519245151747 30.426011277799446 -1.2652911530364572 30.5 -0.010000000000010001 " stroke="#191919" stroke-width="0.35 px" style="stroke-width:0.35;stroke-miterlimit:4;stroke-dasharray:none;fill:none;fill-opacity:1;fill-rule: evenodd"/>
<path id="Shape2DView_nwe0040"  d="M 18.24 -1.75 L 28.76 -1.75 " stroke="#191919" stroke-width="0.35 px" style="stroke-width:0.35;stroke-miterlimit:4;stroke-dasharray:none;fill:none;fill-opacity:1;fill-rule: evenodd"/>
<path id="Shape2DView_nwe0041"  d="M 72.066666666667 4.375 L 72.066666666667 4.265309615795478 L 72.066666666667 3.941738797073084 L 72.066666666667 3.420512735797631 L 72.066666666667 2.7277678831319596 L 72.066666666667 1.8982413586393172 L 72.066666666667 0.973529086058876 L 72.066666666667 5.357829746269671e-16 L 72.066666666667 -0.973529086058875 L 72.066666666667 -1.8982413586393163 L 72.066666666667 -2.7277678831319587 L 72.066666666667 -3.42051273579763 L 72.066666666667 -3.941738797073083 L 72.066666666667 -4.265309615795478 L 72.066666666667 -4.375 " stroke="#191919" stroke-width="0.35 px" style="stroke-width:0.35;stroke-miterlimit:4;stroke-dasharray:none;fill:none;fill-opacity:1;fill-rule: evenodd"/>
<path id="Shape2DView_nwe0042"  d="M 0.9 0.45 L 3.033333333333 0.45 " stroke="#191919" stroke-width="0.35 px" style="stroke-width:0.35;stroke-miterlimit:4;stroke-dasharray:none;fill:none;fill-opacity:1;fill-rule: evenodd"/>
<path id="Shape2DView_nwe0043"  d="M 0.0 -0.4500000000000001 L 0.00565901109608169 -0.4500000000000001 L 0.02256487903635873 -0.4500000000000001 L 0.05050500272246916 -0.4500000000000001 L 0.08912801888782274 -0.4500000000000001 L 0.13794822069454427 -0.4500000000000001 L 0.19635166577877317 -0.45000000000000007 L 0.2636038969321072 -0.45000000000000007 L 0.33885917832713974 -0.45000000000000007 L 0.4211711311361971 -0.45000000000000007 L 0.5095046347941976 -0.45000000000000007 L 0.6027488442403496 -0.45000000000000007 L 0.699731159439317 -0.45 L 0.7992319715070229 -0.45 L 0.9 -0.45 " stroke="#191919" stroke-width="0.35 px" style="stroke-width:0.35;stroke-miterlimit:4;stroke-dasharray:none;fill:none;fill-opacity:1;fill-rule: evenodd"/>
<circle cx="2.942091015257e-15" cy="0.0" r="0.45" stroke="#191919" stroke-width="0.35 px" style="stroke-width:0.35;stroke-miterlimit:4;stroke-dasharray:none;fill:none"/>
<path id="Shape2DView_nwe0045"  d="M 72.066666666667 0.45 L 74.1 0.45 " stroke="#191919" stroke-width="0.35 px" style="stroke-width:0.35;stroke-miterlimit:4;stroke-dasharray:none;fill:none;fill-opacity:1;fill-rule: evenodd"/>
<path id="Shape2DView_nwe0046"  d="M 75.0 0.45 L 74.99434098890391 0.45 L 74.97743512096363 0.45 L 74.94949499727753 0.45 L 74.91087198111217 0.45 L 74.86205177930545 0.45 L 74.80364833422122 0.45 L 74.73639610306789 0.45 L 74.66114082167286 0.45 L 74.5788288688638 0.45 L 74.4904953652058 0.45 L 74.39725115575965 0.45 L 74.30026884056068 0.45 L 74.20076802849297 0.45 L 74.1 0.45 " stroke="#191919" stroke-width="0.35 px" style="stroke-width:0.35;stroke-miterlimit:4;stroke-dasharray:none;fill:none;fill-opacity:1;fill-rule: evenodd"/>
<path id="Shape2DView_nwe0047"  d="M 75.0 -0.45 A 0.45 0.45 0 0 1 75 0.45" stroke="#191919" stroke-width="0.35 px" style="stroke-width:0.35;stroke-miterlimit:4;stroke-dasharray:none;fill:none;fill-opacity:1;fill-rule: evenodd"/>
<path id="Shape2DView_nwe0048"  d="M 5.064979142851 -6.700786902698751 C 5.064979142850998 -2.4668341695214737 5.064979142851 2.466824864399606 5.0649791428510005 6.700786902699016 " stroke="#191919" stroke-width="0.35 px" style="stroke-width:0.35;stroke-miterlimit:4;stroke-dasharray:none;fill:none;fill-opacity:1;fill-rule: evenodd"/>
<path id="Shape2DView_nwe0049"  d="M 4.199999999999997 -6.700786900713156 L 4.199999999999997 -5.783186374835379 L 4.199999999999997 -4.847389805049485 L 4.199999999999997 -3.896341553575401 L 4.199999999999997 -2.9330339700662327 L 4.199999999999997 -1.9604979765691786 L 4.199999999999997 -0.9817935311234463 L 4.199999999999997 -1.7674750552032492e-13 L 4.199999999999997 0.9817935311230936 L 4.199999999999997 1.9604979765688286 L 4.199999999999997 2.9330339700658854 L 4.199999999999997 3.8963415535750583 L 4.199999999999997 4.847389805049149 L 4.199999999999997 5.783186374835051 L 4.199999999999997 6.700786900712829 " stroke="#191919" stroke-width="0.35 px" style="stroke-width:0.35;stroke-miterlimit:4;stroke-dasharray:none;fill:none;fill-opacity:1;fill-rule: evenodd"/>
<path id="Shape2DView_nwe0050"  d="M 5.269338405373 -6.670030592004232 C 5.269338405372998 -2.4555115379825034 5.269338405373002 2.455502297384711 5.269338405373 6.670030592004403 " stroke="#191919" stroke-width="0.35 px" style="stroke-width:0.35;stroke-miterlimit:4;stroke-dasharray:none;fill:none;fill-opacity:1;fill-rule: evenodd"/>
<path id="Shape2DView_nwe0051"  d="M 4.199999999999997 6.700786900713 L 4.199999999999997 8.035599802420084 L 4.199999999999997 9.313567506035005 L 4.199999999999997 10.525649450920895 L 4.199999999999997 11.663271163490828 L 4.1999999999999975 12.7183849144906 L 4.1999999999999975 13.683526650002634 L 4.1999999999999975 14.551868793431382 L 4.199999999999998 15.317268544940033 L 4.199999999999998 15.974311336660103 L 4.199999999999998 16.518349136264355 L 4.199999999999999 16.945533327937103 L 4.199999999999999 17.25284193813629 L 4.199999999999999 17.438101013547694 L 4.2 17.5 " stroke="#191919" stroke-width="0.35 px" style="stroke-width:0.35;stroke-miterlimit:4;stroke-dasharray:none;fill:none;fill-opacity:1;fill-rule: evenodd"/>
<path id="Shape2DView_nwe0052"  d="M 4.2 -17.5 L 4.2 -17.43810101354763 L 4.199999999999999 -17.252841938136168 L 4.199999999999999 -16.945533327936943 L 4.199999999999999 -16.518349136264163 L 4.199999999999998 -15.974311336659895 L 4.199999999999998 -15.31726854493982 L 4.199999999999998 -14.55186879343117 L 4.1999999999999975 -13.683526650002435 L 4.1999999999999975 -12.718384914490423 L 4.1999999999999975 -11.663271163490684 L 4.199999999999997 -10.525649450920792 L 4.199999999999997 -9.313567506034948 L 4.199999999999997 -8.03559980242008 L 4.199999999999997 -6.700786900712997 " stroke="#191919" stroke-width="0.35 px" style="stroke-width:0.35;stroke-miterlimit:4;stroke-dasharray:none;fill:none;fill-opacity:1;fill-rule: evenodd"/>
<path id="Shape2DView_nwe0053"  d="M 5.064979142851001 6.700786900713002 C 5.064979140196517 13.091058270003538 5.064979126502434 17.595078715342723 5.064979141138018 17.50000042509927 " stroke="#191919" stroke-width="0.35 px" style="stroke-width:0.35;stroke-miterlimit:4;stroke-dasharray:none;fill:none;fill-opacity:1;fill-rule: evenodd"/>
<path id="Shape2DView_nwe0054"  d="M 5.064979141137695 -17.500000425093074 C 5.0649791265021715 -17.595078715336623 5.064979140196412 -13.091058270003936 5.0649791428510005 -6.70078690071573 " stroke="#191919" stroke-width="0.35 px" style="stroke-width:0.35;stroke-miterlimit:4;stroke-dasharray:none;fill:none;fill-opacity:1;fill-rule: evenodd"/>
<path id="Shape2DView_nwe0055"  d="M 5.269338405373 6.670030593981004 C 5.2693384058224995 13.030971786324772 5.269338408140754 17.51428179493034 5.269338405662958 17.41963033773457 " stroke="#191919" stroke-width="0.35 px" style="stroke-width:0.35;stroke-miterlimit:4;stroke-dasharray:none;fill:none;fill-opacity:1;fill-rule: evenodd"/>
<path id="Shape2DView_nwe0056"  d="M 5.269338405662825 -17.419630337730656 C 5.269338408140547 -17.514281794927122 5.269338405822365 -13.030971786316195 5.269338405373006 -6.670030593976956 " stroke="#191919" stroke-width="0.35 px" style="stroke-width:0.35;stroke-miterlimit:4;stroke-dasharray:none;fill:none;fill-opacity:1;fill-rule: evenodd"/>
<path id="Shape2DView_nwe0057"  d="M 5.930661594627 6.670030593981 C 5.930661594177771 13.030971786324654 5.930661591859749 17.51428179493062 5.930661594337362 17.41963033773453 " stroke="#191919" stroke-width="0.35 px" style="stroke-width:0.35;stroke-miterlimit:4;stroke-dasharray:none;fill:none;fill-opacity:1;fill-rule: evenodd"/>
<path id="Shape2DView_nwe0058"  d="M 5.930661594337102 -17.419630337728748 C 5.9306615918593035 -17.514281794925214 5.930661594177481 -13.030971786316886 5.930661594627011 -6.67003059397807 " stroke="#191919" stroke-width="0.35 px" style="stroke-width:0.35;stroke-miterlimit:4;stroke-dasharray:none;fill:none;fill-opacity:1;fill-rule: evenodd"/>
<path id="Shape2DView_nwe0059"  d="M 6.135020857148995 6.700786900713002 C 6.135020859803757 13.091058270003682 6.135020873498058 17.595078715342755 6.135020858862393 17.500000425099323 " stroke="#191919" stroke-width="0.35 px" style="stroke-width:0.35;stroke-miterlimit:4;stroke-dasharray:none;fill:none;fill-opacity:1;fill-rule: evenodd"/>
<path id="Shape2DView_nwe0060"  d="M 6.135020858862181 -17.500000425095223 C 6.135020873497833 -17.59507871533952 6.135020859803635 -13.091058269996367 6.135020857148999 -6.700786900713021 " stroke="#191919" stroke-width="0.35 px" style="stroke-width:0.35;stroke-miterlimit:4;stroke-dasharray:none;fill:none;fill-opacity:1;fill-rule: evenodd"/>
<path id="Shape2DView_nwe0061"  d="M 70.8 6.700786900713 L 70.8 8.035599802420057 L 70.8 9.313567506034955 L 70.8 10.525649450920824 L 70.8 11.66327116349074 L 70.8 12.718384914490498 L 70.8 13.683526650002523 L 70.8 14.551868793431268 L 70.8 15.317268544939918 L 70.8 15.974311336659992 L 70.8 16.518349136264256 L 70.8 16.945533327937017 L 70.8 17.25284193813623 L 70.8 17.438101013547662 L 70.8 17.5 " stroke="#191919" stroke-width="0.35 px" style="stroke-width:0.35;stroke-miterlimit:4;stroke-dasharray:none;fill:none;fill-opacity:1;fill-rule: evenodd"/>
<path id="Shape2DView_nwe0062"  d="M 70.8 -17.5 L 70.8 -17.438101013547662 L 70.8 -17.252841938136232 L 70.8 -16.945533327937028 L 70.8 -16.518349136264263 L 70.8 -15.974311336660003 L 70.8 -15.317268544939934 L 70.8 -14.55186879343128 L 70.8 -13.683526650002541 L 70.8 -12.71838491449052 L 70.8 -11.663271163490764 L 70.8 -10.525649450920854 L 70.8 -9.313567506034989 L 70.8 -8.035599802420094 L 70.8 -6.7007869007129965 " stroke="#191919" stroke-width="0.35 px" style="stroke-width:0.35;stroke-miterlimit:4;stroke-dasharray:none;fill:none;fill-opacity:1;fill-rule: evenodd"/>
<path id="Shape2DView_nwe0063"  d="M 70.8 -6.700786900713156 L 70.8 -5.783186374835379 L 70.8 -4.847389805049485 L 70.8 -3.896341553575401 L 70.8 -2.9330339700662327 L 70.8 -1.9604979765691786 L 70.8 -0.9817935311234463 L 70.8 -1.7674750552032492e-13 L 70.8 0.9817935311230936 L 70.8 1.9604979765688286 L 70.8 2.9330339700658854 L 70.8 3.8963415535750583 L 70.8 4.847389805049149 L 70.8 5.783186374835051 L 70.8 6.700786900712829 " stroke="#191919" stroke-width="0.35 px" style="stroke-width:0.35;stroke-miterlimit:4;stroke-dasharray:none;fill:none;fill-opacity:1;fill-rule: evenodd"/>
<path id="Shape2DView_nwe0064"  d="M 6.135020857149 -6.700786902698751 C 6.135020857148999 -2.4668341695214737 6.135020857149 2.466824864399606 6.135020857149001 6.700786902699016 " stroke="#191919" stroke-width="0.35 px" style="stroke-width:0.35;stroke-miterlimit:4;stroke-dasharray:none;fill:none;fill-opacity:1;fill-rule: evenodd"/>
<path id="Shape2DView_nwe0065"  d="M 5.930661594627 -6.670030592004232 C 5.930661594626995 -2.4555115379825034 5.930661594627002 2.4555022973847107 5.930661594627 6.6700305920044025 " stroke="#191919" stroke-width="0.35 px" style="stroke-width:0.35;stroke-miterlimit:4;stroke-dasharray:none;fill:none;fill-opacity:1;fill-rule: evenodd"/>
<path id="Shape2DView_nwe0066"  d="M 0.9 0.45 L 0.8999999999999999 0.43871756048182065 L 0.8999999999999999 0.40543599055608864 L 0.8999999999999999 0.3518241671106135 L 0.8999999999999999 0.2805704108364302 L 0.8999999999999999 0.19524768260290123 L 0.8999999999999999 0.10013442028034157 L 0.9 8.266365894244634e-17 L 0.9 -0.1001344202803414 L 0.9 -0.1952476826029011 L 0.9 -0.28057041083643003 L 0.9 -0.3518241671106134 L 0.9 -0.4054359905560886 L 0.9 -0.4387175604818206 L 0.9 -0.45 " stroke="#191919" stroke-width="0.35 px" style="stroke-width:0.35;stroke-miterlimit:4;stroke-dasharray:none;fill:none;fill-opacity:1;fill-rule: evenodd"/>
<path id="Shape2DView_nwe0067"  d="M 74.1 -0.45 L 74.1 -0.43871756048182065 L 74.1 -0.40543599055608864 L 74.1 -0.3518241671106135 L 74.1 -0.2805704108364302 L 74.1 -0.19524768260290123 L 74.1 -0.10013442028034157 L 74.1 -8.266365894244634e-17 L 74.1 0.1001344202803414 L 74.1 0.1952476826029011 L 74.1 0.28057041083643003 L 74.1 0.3518241671106134 L 74.1 0.4054359905560886 L 74.1 0.4387175604818206 L 74.1 0.45 " stroke="#191919" stroke-width="0.35 px" style="stroke-width:0.35;stroke-miterlimit:4;stroke-dasharray:none;fill:none;fill-opacity:1;fill-rule: evenodd"/>
<path id="Shape2DView_nwe0068"  d="M 4.2 17.499999999999737 Q 4.019455656295287 17.483885221204783 4.000000000000003 17.29999999999974 " stroke="#191919" stroke-width="0.35 px" style="stroke-width:0.35;stroke-miterlimit:4;stroke-dasharray:none;fill:none;fill-opacity:1;fill-rule: evenodd"/>
<path id="Shape2DView_nwe0069"  d="M 4.199999999999999 -17.499999999999737 Q 4.019455656295287 -17.483885221204787 4.0000000000000036 -17.299999999999738 " stroke="#191919" stroke-width="0.35 px" style="stroke-width:0.35;stroke-miterlimit:4;stroke-dasharray:none;fill:none;fill-opacity:1;fill-rule: evenodd"/>
<path id="Shape2DView_nwe0070"  d="M 4.2 -17.5 L 5.064979141125901 -17.5 " stroke="#191919" stroke-width="0.35 px" style="stroke-width:0.35;stroke-miterlimit:4;stroke-dasharray:none;fill:none;fill-opacity:1;fill-rule: evenodd"/>
<path id="Shape2DView_nwe0071"  d="M 4.2 17.5 L 5.064979141126225 17.5 " stroke="#191919" stroke-width="0.35 px" style="stroke-width:0.35;stroke-miterlimit:4;stroke-dasharray:none;fill:none;fill-opacity:1;fill-rule: evenodd"/>
<path id="Shape2DView_nwe0072"  d="M 5.269338405662949 17.419630337736898 L 5.064979141138024 17.50000042510147 " stroke="#191919" stroke-width="0.35 px" style="stroke-width:0.35;stroke-miterlimit:4;stroke-dasharray:none;fill:none;fill-opacity:1;fill-rule: evenodd"/>
<path id="Shape2DView_nwe0073"  d="M 5.269338405662821 -17.419630337733317 L 5.064979141137701 -17.5000004250956 " stroke="#191919" stroke-width="0.35 px" style="stroke-width:0.35;stroke-miterlimit:4;stroke-dasharray:none;fill:none;fill-opacity:1;fill-rule: evenodd"/>
<path id="Shape2DView_nwe0074"  d="M 5.269338206787404 17.41963008215391 Q 5.59451800494713 17.161337755074868 5.930661793212749 17.419630082154047 " stroke="#191919" stroke-width="0.35 px" style="stroke-width:0.35;stroke-miterlimit:4;stroke-dasharray:none;fill:none;fill-opacity:1;fill-rule: evenodd"/>
<path id="Shape2DView_nwe0075"  d="M 5.269338206789284 -17.419630082152164 Q 5.594518004951191 -17.161337755077064 5.930661793209731 -17.41963008215124 " stroke="#191919" stroke-width="0.35 px" style="stroke-width:0.35;stroke-miterlimit:4;stroke-dasharray:none;fill:none;fill-opacity:1;fill-rule: evenodd"/>
<path id="Shape2DView_nwe0076"  d="M 6.135020858862383 17.500000425101533 L 5.930661594337314 17.419630337736805 " stroke="#191919" stroke-width="0.35 px" style="stroke-width:0.35;stroke-miterlimit:4;stroke-dasharray:none;fill:none;fill-opacity:1;fill-rule: evenodd"/>
<path id="Shape2DView_nwe0077"  d="M 6.135020858862178 -17.500000425097294 L 5.930661594336917 -17.41963033773086 " stroke="#191919" stroke-width="0.35 px" style="stroke-width:0.35;stroke-miterlimit:4;stroke-dasharray:none;fill:none;fill-opacity:1;fill-rule: evenodd"/>
<path id="Shape2DView_nwe0078"  d="M 6.135020858873979 -17.5 L 70.80000000000001 -17.5 " stroke="#191919" stroke-width="0.35 px" style="stroke-width:0.35;stroke-miterlimit:4;stroke-dasharray:none;fill:none;fill-opacity:1;fill-rule: evenodd"/>
<path id="Shape2DView_nwe0079"  d="M 6.135020858874184 17.5 L 70.80000000000001 17.5 " stroke="#191919" stroke-width="0.35 px" style="stroke-width:0.35;stroke-miterlimit:4;stroke-dasharray:none;fill:none;fill-opacity:1;fill-rule: evenodd"/>
<path id="Shape2DView_nwe0080"  d="M 70.8 17.5 Q 70.98054434370471 17.483885221205043 71.0 17.299999999999986 " stroke="#191919" stroke-width="0.35 px" style="stroke-width:0.35;stroke-miterlimit:4;stroke-dasharray:none;fill:none;fill-opacity:1;fill-rule: evenodd"/>
<path id="Shape2DView_nwe0081"  d="M 70.8 -17.5 Q 70.98054434370471 -17.483885221205043 71.0 -17.299999999999986 " stroke="#191919" stroke-width="0.35 px" style="stroke-width:0.35;stroke-miterlimit:4;stroke-dasharray:none;fill:none;fill-opacity:1;fill-rule: evenodd"/>
<path id="Shape2DView_nwe0082"  d="M 3.0333333333330006 -4.375 L 3.9899999999999967 -4.375 " stroke="#191919" stroke-width="0.35 px" style="stroke-width:0.35;stroke-miterlimit:4;stroke-dasharray:none;fill:none;fill-opacity:1;fill-rule: evenodd"/>
<path id="Shape2DView_nwe0083"  d="M 3.0333333333330006 4.375 L 3.9899999999999967 4.375 " stroke="#191919" stroke-width="0.35 px" style="stroke-width:0.35;stroke-miterlimit:4;stroke-dasharray:none;fill:none;fill-opacity:1;fill-rule: evenodd"/>
<path id="Shape2DView_nwe0084"  d="M 72.066666666667 4.375 L 71.01 4.375 " stroke="#191919" stroke-width="0.35 px" style="stroke-width:0.35;stroke-miterlimit:4;stroke-dasharray:none;fill:none;fill-opacity:1;fill-rule: evenodd"/>
<path id="Shape2DView_nwe0085"  d="M 72.066666666667 -4.375 L 71.01 -4.375 " stroke="#191919" stroke-width="0.35 px" style="stroke-width:0.35;stroke-miterlimit:4;stroke-dasharray:none;fill:none;fill-opacity:1;fill-rule: evenodd"/>
<path id="Shape2DView_nwe0086"  d="M 3.033333333333 -0.45 L 0.9 -0.45 " stroke="#191919" stroke-width="0.35 px" style="stroke-width:0.35;stroke-miterlimit:4;stroke-dasharray:none;fill:none;fill-opacity:1;fill-rule: evenodd"/>
<path id="Shape2DView_nwe0087"  d="M 74.1 -0.45 L 72.066666666667 -0.45 " stroke="#191919" stroke-width="0.35 px" style="stroke-width:0.35;stroke-miterlimit:4;stroke-dasharray:none;fill:none;fill-opacity:1;fill-rule: evenodd"/>
<path id="Shape2DView_nwe0088"  d="M 74.1 -0.449999999999999 Q 74.91991585817904 -0.44999999999999973 75.0 -0.45 " stroke="#191919" stroke-width="0.35 px" style="stroke-width:0.35;stroke-miterlimit:4;stroke-dasharray:none;fill:none;fill-opacity:1;fill-rule: evenodd"/>
<title>b'Shape2DView'</title>
</g>
<g id="Rectangle" transform="translate(1.205653,18.258935) scale(1,-1)">
<rect fill="#ff0000" id="origin" width="1" height="1" x="0" y="0" />
<title>b'Rectangle'</title>
</g>
</svg>