<?xml version="1.0"?>
<!DOCTYPE svg PUBLIC "-//W3C//DTD SVG 1.1//EN" "http://www.w3.org/Graphics/SVG/1.1/DTD/svg11.dtd">
<svg width="49.871306746422015mm" height="16.97786875973393mm" viewBox="0 0 49.871306746422015 16.97786875973393" xmlns="http://www.w3.org/2000/svg" version="1.1">
<g id="Shape2DView" transform="translate(0.935653,8.488934) scale(1,-1)">
<path id="Shape2DView_nwe0000"  d="M 4.2 3.065294293244 L 5.064979142851 3.065294293244 " stroke="#191919" stroke-width="0.35 px" style="stroke-width:0.35;stroke-miterlimit:4;stroke-dasharray:none;fill:none;fill-opacity:1;fill-rule: evenodd"/>
<path id="Shape2DView_nwe0001"  d="M 4.2 -3.065294293244 L 5.064979142851 -3.065294293244 " stroke="#191919" stroke-width="0.35 px" style="stroke-width:0.35;stroke-miterlimit:4;stroke-dasharray:none;fill:none;fill-opacity:1;fill-rule: evenodd"/>
<path id="Shape2DView_nwe0002"  d="M 5.064979142851 -3.065294293244 L 5.269338405373 -3.034537986513 " stroke="#191919" stroke-width="0.35 px" style="stroke-width:0.35;stroke-miterlimit:4;stroke-dasharray:none;fill:none;fill-opacity:1;fill-rule: evenodd"/>
<path id="Shape2DView_nwe0003"  d="M 5.269338405372612 -3.034537986513022 A 0.485412 0.185759 -180 0 0 5.93066 -3.03454" stroke="#191919" stroke-width="0.35 px" style="stroke-width:0.35;stroke-miterlimit:4;stroke-dasharray:none;fill:none;fill-opacity:1;fill-rule: evenodd"/>
<path id="Shape2DView_nwe0004"  d="M 5.930661594627 -3.034537986513 L 6.135020857149 -3.065294293244 " stroke="#191919" stroke-width="0.35 px" style="stroke-width:0.35;stroke-miterlimit:4;stroke-dasharray:none;fill:none;fill-opacity:1;fill-rule: evenodd"/>
<path id="Shape2DView_nwe0005"  d="M 6.135020857149 -3.065294293244 L 43.8 -3.065294293244 " stroke="#191919" stroke-width="0.35 px" style="stroke-width:0.35;stroke-miterlimit:4;stroke-dasharray:none;fill:none;fill-opacity:1;fill-rule: evenodd"/>
<path id="Shape2DView_nwe0006"  d="M 43.8 -3.065294293244674 A 0.21 0.0803635 5.26972e-15 0 1 44.01 -2.98493" stroke="#191919" stroke-width="0.35 px" style="stroke-width:0.35;stroke-miterlimit:4;stroke-dasharray:none;fill:none;fill-opacity:1;fill-rule: evenodd"/>
<path id="Shape2DView_nwe0007"  d="M 5.269338405372612 -3.030711152189022 A 0.485412 0.185759 -180 0 0 5.93066 -3.03071" stroke="#191919" stroke-width="0.35 px" style="stroke-width:0.35;stroke-miterlimit:4;stroke-dasharray:none;fill:none;fill-opacity:1;fill-rule: evenodd"/>
<path id="Shape2DView_nwe0008"  d="M 3.99 -2.9849307724479996 A 0.21 0.0803635 5.26972e-15 0 1 4.2 -3.06529" stroke="#191919" stroke-width="0.35 px" style="stroke-width:0.35;stroke-miterlimit:4;stroke-dasharray:none;fill:none;fill-opacity:1;fill-rule: evenodd"/>
<path id="Shape2DView_nwe0009"  d="M 5.064979142851 3.065294293244 L 5.269338405373 3.034537986513 " stroke="#191919" stroke-width="0.35 px" style="stroke-width:0.35;stroke-miterlimit:4;stroke-dasharray:none;fill:none;fill-opacity:1;fill-rule: evenodd"/>
<path id="Shape2DView_nwe0010"  d="M 3.9899999999999984 -2.9849307724478935 L 3.9899999999999984 -2.5761766832504662 L 3.9899999999999984 -2.1593169891139574 L 3.9899999999999984 -1.7356632848593514 L 3.9899999999999984 -1.3065485417770089 L 3.9899999999999984 -0.8733229136058311 L 3.9899999999999984 -0.4373494884500908 L 3.9899999999999984 4.1300296516055823e-14 L 3.9899999999999984 0.4373494884501734 L 3.9899999999999984 0.8733229136059135 L 3.9899999999999984 1.3065485417770897 L 3.9899999999999984 1.7356632848594322 L 3.9899999999999984 2.1593169891140356 L 3.9899999999999984 2.5761766832505444 L 3.9899999999999984 2.9849307724479686 " stroke="#191919" stroke-width="0.35 px" style="stroke-width:0.35;stroke-miterlimit:4;stroke-dasharray:none;fill:none;fill-opacity:1;fill-rule: evenodd"/>
<path id="Shape2DView_nwe0011"  d="M 3.99 2.9849307724479996 A 0.21 0.0803635 -5.26972e-15 0 0 4.2 3.06529" stroke="#191919" stroke-width="0.35 px" style="stroke-width:0.35;stroke-miterlimit:4;stroke-dasharray:none;fill:none;fill-opacity:1;fill-rule: evenodd"/>
<path id="Shape2DView_nwe0012"  d="M 5.269338405372612 3.034537986513022 A 0.485412 0.185759 180 0 1 5.93066 3.03454" stroke="#191919" stroke-width="0.35 px" style="stroke-width:0.35;stroke-miterlimit:4;stroke-dasharray:none;fill:none;fill-opacity:1;fill-rule: evenodd"/>
<path id="Shape2DView_nwe0013"  d="M 5.930661594627 3.034537986513 L 6.135020857149 3.065294293244 " stroke="#191919" stroke-width="0.35 px" style="stroke-width:0.35;stroke-miterlimit:4;stroke-dasharray:none;fill:none;fill-opacity:1;fill-rule: evenodd"/>
<path id="Shape2DView_nwe0014"  d="M 6.135020857149 3.065294293244 L 43.8 3.065294293244 " stroke="#191919" stroke-width="0.35 px" style="stroke-width:0.35;stroke-miterlimit:4;stroke-dasharray:none;fill:none;fill-opacity:1;fill-rule: evenodd"/>
<path id="Shape2DView_nwe0015"  d="M 43.8 3.065294293244674 A 0.21 0.0803635 -5.26972e-15 0 0 44.01 2.98493" stroke="#191919" stroke-width="0.35 px" style="stroke-width:0.35;stroke-miterlimit:4;stroke-dasharray:none;fill:none;fill-opacity:1;fill-rule: evenodd"/>
<path id="Shape2DView_nwe0016"  d="M 5.269338405372612 3.030711152189022 A 0.485412 0.185759 180 0 1 5.93066 3.03071" stroke="#191919" stroke-width="0.35 px" style="stroke-width:0.35;stroke-miterlimit:4;stroke-dasharray:none;fill:none;fill-opacity:1;fill-rule: evenodd"/>
<path id="Shape2DView_nwe0017"  d="M 3.9999999999999982 3.0094344680584078 L 3.9999999999999982 3.6019368694231018 L 3.9999999999999982 4.169095275036022 L 3.9999999999999987 4.7069190374362275 L 3.9999999999999987 5.211623913966612 L 3.9999999999999987 5.679658693512048 L 3.9999999999999987 6.107730183577913 L 3.999999999999999 6.492826381894601 L 3.999999999999999 6.832237669507652 L 3.999999999999999 7.123575876234407 L 3.999999999999999 7.364791084338578 L 3.9999999999999996 7.554186052188495 L 3.9999999999999996 7.69042815641106 L 4.0 7.772558768513938 L 4.0 7.800000000000001 " stroke="#191919" stroke-width="0.35 px" style="stroke-width:0.35;stroke-miterlimit:4;stroke-dasharray:none;fill:none;fill-opacity:1;fill-rule: evenodd"/>
<path id="Shape2DView_nwe0018"  d="M 4.0 -7.800000000000001 L 4.0 -7.772558768513934 L 3.9999999999999996 -7.690428156411052 L 3.9999999999999996 -7.554186052188483 L 3.9999999999999996 -7.364791084338565 L 3.999999999999999 -7.12357587623439 L 3.999999999999999 -6.832237669507633 L 3.999999999999999 -6.492826381894579 L 3.999999999999999 -6.10773018357789 L 3.9999999999999987 -5.679658693512022 L 3.9999999999999987 -5.211623913966585 L 3.9999999999999987 -4.706919037436199 L 3.9999999999999987 -4.169095275035993 L 3.9999999999999982 -3.6019368694230707 L 3.9999999999999982 -3.0094344680584086 " stroke="#191919" stroke-width="0.35 px" style="stroke-width:0.35;stroke-miterlimit:4;stroke-dasharray:none;fill:none;fill-opacity:1;fill-rule: evenodd"/>
<path id="Shape2DView_nwe0019"  d="M 44.0 3.0094344680584073 L 44.0 3.60193686942314 L 44.0 4.169095275036096 L 44.0 4.7069190374363306 L 44.0 5.211623913966742 L 44.0 5.679658693512197 L 44.0 6.1077301835780755 L 44.0 6.49282638189477 L 44.0 6.832237669507819 L 44.0 7.123575876234565 L 44.0 7.364791084338721 L 44.0 7.554186052188613 L 44.0 7.690428156411147 L 44.0 7.772558768513986 L 44.0 7.8 " stroke="#191919" stroke-width="0.35 px" style="stroke-width:0.35;stroke-miterlimit:4;stroke-dasharray:none;fill:none;fill-opacity:1;fill-rule: evenodd"/>
<path id="Shape2DView_nwe0020"  d="M 44.0 -7.800000000000001 L 44.0 -7.772558768513986 L 44.0 -7.690428156411147 L 44.0 -7.554186052188614 L 44.0 -7.364791084338723 L 44.0 -7.1235758762345665 L 44.0 -6.832237669507823 L 44.0 -6.492826381894775 L 44.0 -6.1077301835780835 L 44.0 -5.6796586935122075 L 44.0 -5.211623913966756 L 44.0 -4.706919037436348 L 44.0 -4.169095275036115 L 44.0 -3.6019368694231635 L 44.0 -3.009434468058408 " stroke="#191919" stroke-width="0.35 px" style="stroke-width:0.35;stroke-miterlimit:4;stroke-dasharray:none;fill:none;fill-opacity:1;fill-rule: evenodd"/>
<path id="Shape2DView_nwe0021"  d="M 44.0 3.0094344680584073 L 44.0 3.339911731822167 L 44.0 3.6532383137365843 L 44.0 3.9478052597475277 L 44.0 4.222099947851777 L 44.0 4.4747138555174875 L 44.0 4.7043497925465445 L 44.0 4.909828562237539 L 44.0 5.090095016643838 L 44.0 5.244223474832568 L 44.0 5.371422476321364 L 44.0 5.471038845283658 L 44.0 5.542561044652537 L 44.0 5.585621802899575 L 44.0 5.6 " stroke="#191919" stroke-width="0.35 px" style="stroke-width:0.35;stroke-miterlimit:4;stroke-dasharray:none;fill:none;fill-opacity:1;fill-rule: evenodd"/>
<path id="Shape2DView_nwe0022"  d="M 44.0 -5.6 L 44.0 -5.585621802899575 L 44.0 -5.542561044652536 L 44.0 -5.471038845283657 L 44.0 -5.371422476321363 L 44.0 -5.244223474832566 L 44.0 -5.090095016643836 L 44.0 -4.9098285622375375 L 44.0 -4.704349792546542 L 44.0 -4.474713855517484 L 44.0 -4.222099947851774 L 44.0 -3.9478052597475237 L 44.0 -3.65323831373658 L 44.0 -3.3399117318221623 L 44.0 -3.0094344680584064 " stroke="#191919" stroke-width="0.35 px" style="stroke-width:0.35;stroke-miterlimit:4;stroke-dasharray:none;fill:none;fill-opacity:1;fill-rule: evenodd"/>
<path id="Shape2DView_nwe0023"  d="M 44.01 -2.9849307724478935 L 44.01 -2.5761766832504662 L 44.01 -2.1593169891139574 L 44.01 -1.7356632848593514 L 44.01 -1.3065485417770089 L 44.01 -0.8733229136058311 L 44.01 -0.4373494884500908 L 44.01 4.1300296516055823e-14 L 44.01 0.4373494884501734 L 44.01 0.8733229136059135 L 44.01 1.3065485417770897 L 44.01 1.7356632848594322 L 44.01 2.1593169891140356 L 44.01 2.5761766832505444 L 44.01 2.9849307724479686 " stroke="#191919" stroke-width="0.35 px" style="stroke-width:0.35;stroke-miterlimit:4;stroke-dasharray:none;fill:none;fill-opacity:1;fill-rule: evenodd"/>
<path id="Shape2DView_nwe0024"  d="M 3.666666666667 2.0 L 3.666666666667 1.9498558243636472 L 3.666666666667 1.8019377358048383 L 3.6666666666669996 1.5636629649360598 L 3.6666666666669996 1.2469796037174672 L 3.6666666666669996 0.8677674782351165 L 3.6666666666669996 0.445041867912629 L 3.6666666666669996 2.4492935982947064e-16 L 3.6666666666669996 -0.44504186791262856 L 3.6666666666669996 -0.867767478235116 L 3.6666666666669996 -1.2469796037174667 L 3.6666666666669996 -1.5636629649360594 L 3.666666666667 -1.801937735804838 L 3.666666666667 -1.9498558243636472 L 3.666666666667 -2.0 " stroke="#191919" stroke-width="0.35 px" style="stroke-width:0.35;stroke-miterlimit:4;stroke-dasharray:none;fill:none;fill-opacity:1;fill-rule: evenodd"/>
<path id="Shape2DView_nwe0025"  d="M 21.59 -0.8 Q 20.9406996944954 -0.8027171215158255 20.8 -0.010000000000000009 " stroke="#191919" stroke-width="0.35 px" style="stroke-width:0.35;stroke-miterlimit:4;stroke-dasharray:none;fill:none;fill-opacity:1;fill-rule: evenodd"/>
<path id="Shape2DView_nwe0026"  d="M 20.799999999999997 0.010000000000005116 L 20.799999999999997 0.008571429162155031 L 20.799999999999997 0.007142858051663037 L 20.799999999999997 0.005714286713970562 L 20.799999999999997 0.004285715194516815 L 20.799999999999997 0.0028571435387414468 L 20.799999999999997 0.0014285717920854424 L 20.799999999999997 -9.769962616701378e-15 L 20.799999999999997 -0.0014285717921058705 L 20.799999999999997 -0.002857143538761431 L 20.799999999999997 -0.004285715194536355 L 20.799999999999997 -0.005714286713990546 L 20.799999999999997 -0.007142858051683465 L 20.799999999999997 -0.008571429162175015 L 20.799999999999997 -0.009999999999996234 " stroke="#191919" stroke-width="0.35 px" style="stroke-width:0.35;stroke-miterlimit:4;stroke-dasharray:none;fill:none;fill-opacity:1;fill-rule: evenodd"/>
<path id="Shape2DView_nwe0027"  d="M 21.59 0.8 Q 20.940699694495926 0.8027171215158231 20.8 0.00999999999999901 " stroke="#191919" stroke-width="0.35 px" style="stroke-width:0.35;stroke-miterlimit:4;stroke-dasharray:none;fill:none;fill-opacity:1;fill-rule: evenodd"/>
<path id="Shape2DView_nwe0028"  d="M 21.59 0.8 L 26.41 0.8 " stroke="#191919" stroke-width="0.35 px" style="stroke-width:0.35;stroke-miterlimit:4;stroke-dasharray:none;fill:none;fill-opacity:1;fill-rule: evenodd"/>
<path id="Shape2DView_nwe0029"  d="M 26.41 0.8 Q 27.059300305504074 0.8027171215157063 27.2 0.00999999999999901 " stroke="#191919" stroke-width="0.35 px" style="stroke-width:0.35;stroke-miterlimit:4;stroke-dasharray:none;fill:none;fill-opacity:1;fill-rule: evenodd"/>
<path id="Shape2DView_nwe0030"  d="M 27.199999999999996 0.010000000000005116 L 27.199999999999996 0.008571429162155031 L 27.199999999999996 0.007142858051663037 L 27.199999999999996 0.005714286713970562 L 27.199999999999996 0.004285715194516815 L 27.199999999999996 0.0028571435387414468 L 27.199999999999996 0.0014285717920854424 L 27.199999999999996 -9.769962616701378e-15 L 27.199999999999996 -0.0014285717921058705 L 27.199999999999996 -0.002857143538761431 L 27.199999999999996 -0.004285715194536355 L 27.199999999999996 -0.005714286713990546 L 27.199999999999996 -0.007142858051683465 L 27.199999999999996 -0.008571429162175015 L 27.199999999999996 -0.009999999999996234 " stroke="#191919" stroke-width="0.35 px" style="stroke-width:0.35;stroke-miterlimit:4;stroke-dasharray:none;fill:none;fill-opacity:1;fill-rule: evenodd"/>
<path id="Shape2DView_nwe0031"  d="M 26.41 -0.8 Q 27.05930030550573 -0.8027171215146096 27.2 -0.010000000000000009 " stroke="#191919" stroke-width="0.35 px" style="stroke-width:0.35;stroke-miterlimit:4;stroke-dasharray:none;fill:none;fill-opacity:1;fill-rule: evenodd"/>
<path id="Shape2DView_nwe0032"  d="M 21.59 -0.8 L 26.41 -0.8 " stroke="#191919" stroke-width="0.35 px" style="stroke-width:0.35;stroke-miterlimit:4;stroke-dasharray:none;fill:none;fill-opacity:1;fill-rule: evenodd"/>
<path id="Shape2DView_nwe0033"  d="M 34.39 -0.8 Q 33.740699694495675 -0.8027171215157061 33.6 -0.010000000000000009 " stroke="#191919" stroke-width="0.35 px" style="stroke-width:0.35;stroke-miterlimit:4;stroke-dasharray:none;fill:none;fill-opacity:1;fill-rule: evenodd"/>
<path id="Shape2DView_nwe0034"  d="M 33.6 0.010000000000005116 L 33.6 0.008571429162155031 L 33.6 0.007142858051663037 L 33.6 0.005714286713970562 L 33.6 0.004285715194516815 L 33.6 0.0028571435387414468 L 33.6 0.0014285717920854424 L 33.6 -9.769962616701378e-15 L 33.6 -0.0014285717921058705 L 33.6 -0.002857143538761431 L 33.6 -0.004285715194536355 L 33.6 -0.005714286713990546 L 33.6 -0.007142858051683465 L 33.6 -0.008571429162175015 L 33.6 -0.009999999999996234 " stroke="#191919" stroke-width="0.35 px" style="stroke-width:0.35;stroke-miterlimit:4;stroke-dasharray:none;fill:none;fill-opacity:1;fill-rule: evenodd"/>
<path id="Shape2DView_nwe0035"  d="M 34.39 0.8 Q 33.74069969449549 0.8027171215157041 33.6 0.00999999999999901 " stroke="#191919" stroke-width="0.35 px" style="stroke-width:0.35;stroke-miterlimit:4;stroke-dasharray:none;fill:none;fill-opacity:1;fill-rule: evenodd"/>
<path id="Shape2DView_nwe0036"  d="M 34.39 0.8 L 39.21 0.8 " stroke="#191919" stroke-width="0.35 px" style="stroke-width:0.35;stroke-miterlimit:4;stroke-dasharray:none;fill:none;fill-opacity:1;fill-rule: evenodd"/>
<path id="Shape2DView_nwe0037"  d="M 39.21 0.8 Q 39.85930030550416 0.8027171215158182 40.00000000000001 0.00999999999999901 " stroke="#191919" stroke-width="0.35 px" style="stroke-width:0.35;stroke-miterlimit:4;stroke-dasharray:none;fill:none;fill-opacity:1;fill-rule: evenodd"/>
<path id="Shape2DView_nwe0038"  d="M 40.0 0.010000000000005116 L 40.0 0.008571429162155031 L 40.0 0.007142858051663037 L 40.0 0.005714286713970562 L 40.0 0.004285715194516815 L 40.0 0.0028571435387414468 L 40.0 0.0014285717920854424 L 40.0 -9.769962616701378e-15 L 40.0 -0.0014285717921058705 L 40.0 -0.002857143538761431 L 40.0 -0.004285715194536355 L 40.0 -0.005714286713990546 L 40.0 -0.007142858051683465 L 40.0 -0.008571429162175015 L 40.0 -0.009999999999996234 " stroke="#191919" stroke-width="0.35 px" style="stroke-width:0.35;stroke-miterlimit:4;stroke-dasharray:none;fill:none;fill-opacity:1;fill-rule: evenodd"/>
<path id="Shape2DView_nwe0039"  d="M 39.21 -0.8 Q 39.859300305504064 -0.8027171215158486 40.0 -0.010000000000000009 " stroke="#191919" stroke-width="0.35 px" style="stroke-width:0.35;stroke-miterlimit:4;stroke-dasharray:none;fill:none;fill-opacity:1;fill-rule: evenodd"/>
<path id="Shape2DView_nwe0040"  d="M 34.39 -0.8 L 39.21 -0.8 " stroke="#191919" stroke-width="0.35 px" style="stroke-width:0.35;stroke-miterlimit:4;stroke-dasharray:none;fill:none;fill-opacity:1;fill-rule: evenodd"/>
<path id="Shape2DView_nwe0041"  d="M 8.79 -0.8 Q 8.140699694496739 -0.8027171215170636 8.0 -0.010000000000000009 " stroke="#191919" stroke-width="0.35 px" style="stroke-width:0.35;stroke-miterlimit:4;stroke-dasharray:none;fill:none;fill-opacity:1;fill-rule: evenodd"/>
<path id="Shape2DView_nwe0042"  d="M 7.999999999999998 0.010000000000005116 L 7.999999999999998 0.008571429162155031 L 7.999999999999998 0.007142858051663037 L 7.999999999999998 0.005714286713970562 L 7.999999999999998 0.004285715194516815 L 7.999999999999998 0.0028571435387414468 L 7.999999999999998 0.0014285717920854424 L 7.999999999999998 -9.769962616701378e-15 L 7.999999999999998 -0.0014285717921058705 L 7.999999999999998 -0.002857143538761431 L 7.999999999999998 -0.004285715194536355 L 7.999999999999998 -0.005714286713990546 L 7.999999999999998 -0.007142858051683465 L 7.999999999999998 -0.008571429162175015 L 7.999999999999998 -0.009999999999996234 " stroke="#191919" stroke-width="0.35 px" style="stroke-width:0.35;stroke-miterlimit:4;stroke-dasharray:none;fill:none;fill-opacity:1;fill-rule: evenodd"/>
<path id="Shape2DView_nwe0043"  d="M 8.79 0.8 Q 8.140699694496636 0.8027171215170363 7.999999999999999 0.00999999999999901 " stroke="#191919" stroke-width="0.35 px" style="stroke-width:0.35;stroke-miterlimit:4;stroke-dasharray:none;fill:none;fill-opacity:1;fill-rule: evenodd"/>
<path id="Shape2DView_nwe0044"  d="M 8.79 0.8 L 13.61 0.8 " stroke="#191919" stroke-width="0.35 px" style="stroke-width:0.35;stroke-miterlimit:4;stroke-dasharray:none;fill:none;fill-opacity:1;fill-rule: evenodd"/>
<path id="Shape2DView_nwe0045"  d="M 13.61 0.8 Q 14.259300305504173 0.8027171215158189 14.399999999999999 0.00999999999999912 " stroke="#191919" stroke-width="0.35 px" style="stroke-width:0.35;stroke-miterlimit:4;stroke-dasharray:none;fill:none;fill-opacity:1;fill-rule: evenodd"/>
<path id="Shape2DView_nwe0046"  d="M 14.399999999999999 0.010000000000005116 L 14.399999999999999 0.008571429162155031 L 14.399999999999999 0.007142858051663037 L 14.399999999999999 0.005714286713970562 L 14.399999999999999 0.004285715194516815 L 14.399999999999999 0.0028571435387414468 L 14.399999999999999 0.0014285717920854424 L 14.399999999999999 -9.769962616701378e-15 L 14.399999999999999 -0.0014285717921058705 L 14.399999999999999 -0.002857143538761431 L 14.399999999999999 -0.004285715194536355 L 14.399999999999999 -0.005714286713990546 L 14.399999999999999 -0.007142858051683465 L 14.399999999999999 -0.008571429162175015 L 14.399999999999999 -0.009999999999996234 " stroke="#191919" stroke-width="0.35 px" style="stroke-width:0.35;stroke-miterlimit:4;stroke-dasharray:none;fill:none;fill-opacity:1;fill-rule: evenodd"/>
<path id="Shape2DView_nwe0047"  d="M 13.61 -0.8 Q 14.259300305504421 -0.8027171215155586 14.399999999999999 -0.010000000000000009 " stroke="#191919" stroke-width="0.35 px" style="stroke-width:0.35;stroke-miterlimit:4;stroke-dasharray:none;fill:none;fill-opacity:1;fill-rule: evenodd"/>
<path id="Shape2DView_nwe0048"  d="M 8.79 -0.8 L 13.61 -0.8 " stroke="#191919" stroke-width="0.35 px" style="stroke-width:0.35;stroke-miterlimit:4;stroke-dasharray:none;fill:none;fill-opacity:1;fill-rule: evenodd"/>
<path id="Shape2DView_nwe0049"  d="M 44.433333333333 2.0 L 44.433333333333 1.9498558243636472 L 44.433333333333 1.8019377358048383 L 44.433333333333 1.5636629649360598 L 44.433333333333 1.2469796037174672 L 44.433333333333 0.8677674782351165 L 44.433333333333 0.445041867912629 L 44.433333333333 2.4492935982947064e-16 L 44.433333333333 -0.44504186791262856 L 44.433333333333 -0.867767478235116 L 44.433333333333 -1.2469796037174667 L 44.433333333333 -1.5636629649360594 L 44.433333333333 -1.801937735804838 L 44.433333333333 -1.9498558243636472 L 44.433333333333 -2.0 " stroke="#191919" stroke-width="0.35 px" style="stroke-width:0.35;stroke-miterlimit:4;stroke-dasharray:none;fill:none;fill-opacity:1;fill-rule: evenodd"/>
<path id="Shape2DView_nwe0050"  d="M 0.9 0.45 L 3.666666666667 0.45 " stroke="#191919" stroke-width="0.35 px" style="stroke-width:0.35;stroke-miterlimit:4;stroke-dasharray:none;fill:none;fill-opacity:1;fill-rule: evenodd"/>
<path id="Shape2DView_nwe0051"  d="M 0.0 -0.4500000000000001 L 0.005659011096081801 -0.4500000000000001 L 0.022564879036358954 -0.4500000000000001 L 0.05050500272246938 -0.4500000000000001 L 0.08912801888782296 -0.4500000000000001 L 0.1379482206945445 -0.4500000000000001 L 0.1963516657787734 -0.45000000000000007 L 0.2636038969321075 -0.45000000000000007 L 0.3388591783271401 -0.45000000000000007 L 0.42117113113619736 -0.45000000000000007 L 0.5095046347941978 -0.45000000000000007 L 0.6027488442403499 -0.45000000000000007 L 0.6997311594393173 -0.45 L 0.7992319715070232 -0.45 L 0.9 -0.45 " stroke="#191919" stroke-width="0.35 px" style="stroke-width:0.35;stroke-miterlimit:4;stroke-dasharray:none;fill:none;fill-opacity:1;fill-rule: evenodd"/>
<circle cx="8.881784197001e-16" cy="0.0" r="0.45" stroke="#191919" stroke-width="0.35 px" style="stroke-width:0.35;stroke-miterlimit:4;stroke-dasharray:none;fill:none"/>
<path id="Shape2DView_nwe0053"  d="M 44.433333333333 0.45 L 47.1 0.45 " stroke="#191919" stroke-width="0.35 px" style="stroke-width:0.35;stroke-miterlimit:4;stroke-dasharray:none;fill:none;fill-opacity:1;fill-rule: evenodd"/>
<path id="Shape2DView_nwe0054"  d="M 48.0 0.45 L 47.99434098890392 0.45 L 47.97743512096364 0.45 L 47.94949499727753 0.45 L 47.91087198111218 0.45 L 47.86205177930546 0.45 L 47.80364833422123 0.45 L 47.7363961030679 0.45 L 47.66114082167286 0.45 L 47.5788288688638 0.45 L 47.4904953652058 0.45 L 47.397251155759655 0.45 L 47.30026884056068 0.45 L 47.20076802849298 0.45 L 47.1 0.45 " stroke="#191919" stroke-width="0.35 px" style="stroke-width:0.35;stroke-miterlimit:4;stroke-dasharray:none;fill:none;fill-opacity:1;fill-rule: evenodd"/>
<path id="Shape2DView_nwe0055"  d="M 48.0 -0.45 A 0.45 0.45 0 0 1 48 0.45" stroke="#191919" stroke-width="0.35 px" style="stroke-width:0.35;stroke-miterlimit:4;stroke-dasharray:none;fill:none;fill-opacity:1;fill-rule: evenodd"/>
<path id="Shape2DView_nwe0056"  d="M 5.064979142851 -3.0652942952411393 L 5.064979142851 3.065294295241285 " stroke="#191919" stroke-width="0.35 px" style="stroke-width:0.35;stroke-miterlimit:4;stroke-dasharray:none;fill:none;fill-opacity:1;fill-rule: evenodd"/>
<path id="Shape2DView_nwe0057"  d="M 4.199999999999998 -3.0652942932445675 L 4.199999999999998 -2.645535286261089 L 4.199999999999998 -2.2174524465132457 L 4.199999999999998 -1.782392680990282 L 4.199999999999998 -1.3417248486711422 L 4.199999999999998 -0.8968354535876997 L 4.199999999999998 -0.44912428237010804 L 4.199999999999998 -1.9984014443252818e-13 L 4.199999999999998 0.4491242823697088 L 4.199999999999998 0.8968354535873009 L 4.199999999999998 1.3417248486707471 L 4.199999999999998 1.7823926809898896 L 4.199999999999998 2.21745244651286 L 4.199999999999998 2.6455352862607096 L 4.199999999999998 3.065294293244197 " stroke="#191919" stroke-width="0.35 px" style="stroke-width:0.35;stroke-miterlimit:4;stroke-dasharray:none;fill:none;fill-opacity:1;fill-rule: evenodd"/>
<path id="Shape2DView_nwe0058"  d="M 5.269338405373 -3.0345379845355405 L 5.269338405373 3.0345379845356533 " stroke="#191919" stroke-width="0.35 px" style="stroke-width:0.35;stroke-miterlimit:4;stroke-dasharray:none;fill:none;fill-opacity:1;fill-rule: evenodd"/>
<path id="Shape2DView_nwe0059"  d="M 4.199999999999998 3.065294293244674 L 4.199999999999998 3.6752720585304743 L 4.199999999999998 4.259262726608922 L 4.199999999999998 4.813137018880271 L 4.199999999999998 5.332978603479917 L 4.199999999999998 5.815111786860205 L 4.199999999999999 6.256127503867903 L 4.199999999999999 6.6529074225468054 L 4.199999999999999 7.002645993225375 L 4.199999999999999 7.302870285984779 L 4.199999999999999 7.551457476240689 L 4.199999999999999 7.746649854801838 L 4.2 7.8870672562722985 L 4.2 7.971716817918781 L 4.2 8.0 " stroke="#191919" stroke-width="0.35 px" style="stroke-width:0.35;stroke-miterlimit:4;stroke-dasharray:none;fill:none;fill-opacity:1;fill-rule: evenodd"/>
<path id="Shape2DView_nwe0060"  d="M 4.2 -8.0 L 4.2 -7.971716817918795 L 4.2 -7.887067256272323 L 4.2 -7.746649854801873 L 4.199999999999999 -7.551457476240731 L 4.199999999999999 -7.302870285984828 L 4.199999999999999 -7.002645993225428 L 4.199999999999999 -6.652907422546861 L 4.199999999999999 -6.256127503867958 L 4.199999999999999 -5.81511178686026 L 4.199999999999998 -5.33297860347997 L 4.199999999999998 -4.813137018880321 L 4.199999999999998 -4.259262726608966 L 4.199999999999998 -3.6752720585305125 L 4.199999999999998 -3.0652942932446723 " stroke="#191919" stroke-width="0.35 px" style="stroke-width:0.35;stroke-miterlimit:4;stroke-dasharray:none;fill:none;fill-opacity:1;fill-rule: evenodd"/>
<path id="Shape2DView_nwe0061"  d="M 5.064979142851021 3.0652942932440004 C 5.06497914016979 5.985482161107271 5.064979126419185 8.043480275345047 5.064979141128392 7.999983716308813 " stroke="#191919" stroke-width="0.35 px" style="stroke-width:0.35;stroke-miterlimit:4;stroke-dasharray:none;fill:none;fill-opacity:1;fill-rule: evenodd"/>
<path id="Shape2DView_nwe0062"  d="M 5.064979141128543 -7.999983716307242 C 5.064979126419228 -8.043480275343823 5.064979140169772 -5.9854821611068045 5.06497914285102 -3.0652942932429976 " stroke="#191919" stroke-width="0.35 px" style="stroke-width:0.35;stroke-miterlimit:4;stroke-dasharray:none;fill:none;fill-opacity:1;fill-rule: evenodd"/>
<path id="Shape2DView_nwe0063"  d="M 5.269338405372995 3.034537986513001 C 5.2693384058385675 5.925397141410547 5.2693384082260515 7.96268147782 5.269338405671979 7.919614181821528 " stroke="#191919" stroke-width="0.35 px" style="stroke-width:0.35;stroke-miterlimit:4;stroke-dasharray:none;fill:none;fill-opacity:1;fill-rule: evenodd"/>
<path id="Shape2DView_nwe0064"  d="M 5.2693384056721335 -7.919614181819349 C 5.2693384082260994 -7.962681477818368 5.269338405838542 -5.925397141410521 5.269338405372999 -3.034537986512183 " stroke="#191919" stroke-width="0.35 px" style="stroke-width:0.35;stroke-miterlimit:4;stroke-dasharray:none;fill:none;fill-opacity:1;fill-rule: evenodd"/>
<path id="Shape2DView_nwe0065"  d="M 5.930661594627006 3.0345379865129987 C 5.930661594161308 5.925397141410285 5.930661591773906 7.962681477819943 5.930661594327906 7.919614181821259 " stroke="#191919" stroke-width="0.35 px" style="stroke-width:0.35;stroke-miterlimit:4;stroke-dasharray:none;fill:none;fill-opacity:1;fill-rule: evenodd"/>
<path id="Shape2DView_nwe0066"  d="M 5.930661594328084 -7.919614181820141 C 5.930661591774147 -7.962681477819008 5.930661594161453 -5.925397141409948 5.930661594627009 -3.0345379865118502 " stroke="#191919" stroke-width="0.35 px" style="stroke-width:0.35;stroke-miterlimit:4;stroke-dasharray:none;fill:none;fill-opacity:1;fill-rule: evenodd"/>
<path id="Shape2DView_nwe0067"  d="M 6.135020857148982 3.065294293244002 C 6.135020859830082 5.985482161107873 6.135020873580773 8.043480275345424 6.135020858871497 7.999983716309284 " stroke="#191919" stroke-width="0.35 px" style="stroke-width:0.35;stroke-miterlimit:4;stroke-dasharray:none;fill:none;fill-opacity:1;fill-rule: evenodd"/>
<path id="Shape2DView_nwe0068"  d="M 6.1350208588716715 -7.99998371630772 C 6.135020873581016 -8.0434802753444 6.135020859830214 -5.985482161107062 6.135020857148983 -3.065294293243299 " stroke="#191919" stroke-width="0.35 px" style="stroke-width:0.35;stroke-miterlimit:4;stroke-dasharray:none;fill:none;fill-opacity:1;fill-rule: evenodd"/>
<path id="Shape2DView_nwe0069"  d="M 43.8 3.065294293244674 L 43.8 3.6752720585304792 L 43.8 4.259262726608933 L 43.8 4.813137018880286 L 43.8 5.332978603479935 L 43.8 5.815111786860227 L 43.8 6.2561275038679245 L 43.8 6.6529074225468285 L 43.8 7.002645993225398 L 43.8 7.3028702859848025 L 43.8 7.551457476240709 L 43.8 7.746649854801855 L 43.8 7.887067256272311 L 43.8 7.971716817918788 L 43.8 8.0 " stroke="#191919" stroke-width="0.35 px" style="stroke-width:0.35;stroke-miterlimit:4;stroke-dasharray:none;fill:none;fill-opacity:1;fill-rule: evenodd"/>
<path id="Shape2DView_nwe0070"  d="M 43.8 -8.0 L 43.8 -7.971716817918788 L 43.8 -7.887067256272311 L 43.8 -7.746649854801853 L 43.8 -7.5514574762407065 L 43.8 -7.302870285984796 L 43.8 -7.002645993225391 L 43.8 -6.652907422546818 L 43.8 -6.25612750386791 L 43.8 -5.815111786860208 L 43.8 -5.332978603479911 L 43.8 -4.8131370188802585 L 43.8 -4.259262726608901 L 43.8 -3.675272058530442 L 43.8 -3.065294293244672 " stroke="#191919" stroke-width="0.35 px" style="stroke-width:0.35;stroke-miterlimit:4;stroke-dasharray:none;fill:none;fill-opacity:1;fill-rule: evenodd"/>
<path id="Shape2DView_nwe0071"  d="M 43.8 -3.0652942932445675 L 43.8 -2.645535286261089 L 43.8 -2.2174524465132457 L 43.8 -1.782392680990282 L 43.8 -1.3417248486711422 L 43.8 -0.8968354535876997 L 43.8 -0.44912428237010804 L 43.8 -1.9984014443252818e-13 L 43.8 0.4491242823697088 L 43.8 0.8968354535873009 L 43.8 1.3417248486707471 L 43.8 1.7823926809898896 L 43.8 2.21745244651286 L 43.8 2.6455352862607096 L 43.8 3.065294293244197 " stroke="#191919" stroke-width="0.35 px" style="stroke-width:0.35;stroke-miterlimit:4;stroke-dasharray:none;fill:none;fill-opacity:1;fill-rule: evenodd"/>
<path id="Shape2DView_nwe0072"  d="M 6.135020857149 -3.0652942952411393 L 6.135020857149 3.065294295241285 " stroke="#191919" stroke-width="0.35 px" style="stroke-width:0.35;stroke-miterlimit:4;stroke-dasharray:none;fill:none;fill-opacity:1;fill-rule: evenodd"/>
<path id="Shape2DView_nwe0073"  d="M 5.930661594627 -3.0345379845355405 L 5.930661594627001 3.0345379845356533 " stroke="#191919" stroke-width="0.35 px" style="stroke-width:0.35;stroke-miterlimit:4;stroke-dasharray:none;fill:none;fill-opacity:1;fill-rule: evenodd"/>
<path id="Shape2DView_nwe0074"  d="M 0.9 0.45 L 0.8999999999999999 0.43871756048182065 L 0.8999999999999999 0.40543599055608864 L 0.8999999999999999 0.3518241671106135 L 0.8999999999999999 0.2805704108364302 L 0.8999999999999999 0.19524768260290123 L 0.8999999999999999 0.10013442028034157 L 0.9 8.266365894244644e-17 L 0.9 -0.1001344202803414 L 0.9 -0.1952476826029011 L 0.9 -0.28057041083643003 L 0.9 -0.3518241671106134 L 0.9 -0.4054359905560886 L 0.9 -0.4387175604818206 L 0.9 -0.45 " stroke="#191919" stroke-width="0.35 px" style="stroke-width:0.35;stroke-miterlimit:4;stroke-dasharray:none;fill:none;fill-opacity:1;fill-rule: evenodd"/>
<path id="Shape2DView_nwe0075"  d="M 47.1 -0.45 L 47.1 -0.43871756048182065 L 47.1 -0.40543599055608864 L 47.1 -0.3518241671106135 L 47.1 -0.2805704108364302 L 47.1 -0.19524768260290123 L 47.1 -0.10013442028034157 L 47.1 -8.266365894244633e-17 L 47.1 0.1001344202803414 L 47.1 0.1952476826029011 L 47.1 0.28057041083643003 L 47.1 0.3518241671106134 L 47.1 0.4054359905560886 L 47.1 0.4387175604818206 L 47.1 0.45 " stroke="#191919" stroke-width="0.35 px" style="stroke-width:0.35;stroke-miterlimit:4;stroke-dasharray:none;fill:none;fill-opacity:1;fill-rule: evenodd"/>
<path id="Shape2DView_nwe0076"  d="M 4.2 8.000000000000082 Q 4.0194556562952855 7.983885221205119 4.000000000000003 7.8000000000000815 " stroke="#191919" stroke-width="0.35 px" style="stroke-width:0.35;stroke-miterlimit:4;stroke-dasharray:none;fill:none;fill-opacity:1;fill-rule: evenodd"/>
<path id="Shape2DView_nwe0077"  d="M 4.200000000000001 -8.000000000000082 Q 4.0194556562952855 -7.983885221205123 4.000000000000002 -7.800000000000082 " stroke="#191919" stroke-width="0.35 px" style="stroke-width:0.35;stroke-miterlimit:4;stroke-dasharray:none;fill:none;fill-opacity:1;fill-rule: evenodd"/>
<path id="Shape2DView_nwe0078"  d="M 4.2 -8.0 L 5.064979141116682 -8.0 " stroke="#191919" stroke-width="0.35 px" style="stroke-width:0.35;stroke-miterlimit:4;stroke-dasharray:none;fill:none;fill-opacity:1;fill-rule: evenodd"/>
<path id="Shape2DView_nwe0079"  d="M 4.2 8.0 L 5.064979141116533 8.0 " stroke="#191919" stroke-width="0.35 px" style="stroke-width:0.35;stroke-miterlimit:4;stroke-dasharray:none;fill:none;fill-opacity:1;fill-rule: evenodd"/>
<path id="Shape2DView_nwe0080"  d="M 5.269338405671975 7.91961418183082 L 5.064979141128413 7.9999837163181 " stroke="#191919" stroke-width="0.35 px" style="stroke-width:0.35;stroke-miterlimit:4;stroke-dasharray:none;fill:none;fill-opacity:1;fill-rule: evenodd"/>
<path id="Shape2DView_nwe0081"  d="M 5.269338405672127 -7.919614181828759 L 5.064979141128561 -7.9999837163166525 " stroke="#191919" stroke-width="0.35 px" style="stroke-width:0.35;stroke-miterlimit:4;stroke-dasharray:none;fill:none;fill-opacity:1;fill-rule: evenodd"/>
<path id="Shape2DView_nwe0082"  d="M 5.269346154801374 7.919622686914839 Q 5.594546432869934 7.6613447865283835 5.930653845198433 7.919622686914658 " stroke="#191919" stroke-width="0.35 px" style="stroke-width:0.35;stroke-miterlimit:4;stroke-dasharray:none;fill:none;fill-opacity:1;fill-rule: evenodd"/>
<path id="Shape2DView_nwe0083"  d="M 5.269346154802542 -7.919622686913752 Q 5.594546432872226 -7.661344786529108 5.930653845197965 -7.919622686914223 " stroke="#191919" stroke-width="0.35 px" style="stroke-width:0.35;stroke-miterlimit:4;stroke-dasharray:none;fill:none;fill-opacity:1;fill-rule: evenodd"/>
<path id="Shape2DView_nwe0084"  d="M 6.135020858871474 7.9999837163185745 L 5.930661594327917 7.919614181830557 " stroke="#191919" stroke-width="0.35 px" style="stroke-width:0.35;stroke-miterlimit:4;stroke-dasharray:none;fill:none;fill-opacity:1;fill-rule: evenodd"/>
<path id="Shape2DView_nwe0085"  d="M 6.135020858871648 -7.999983716316922 L 5.930661594328086 -7.919614181829341 " stroke="#191919" stroke-width="0.35 px" style="stroke-width:0.35;stroke-miterlimit:4;stroke-dasharray:none;fill:none;fill-opacity:1;fill-rule: evenodd"/>
<path id="Shape2DView_nwe0086"  d="M 6.135020858883528 -8.0 L 43.800000000000004 -8.0 " stroke="#191919" stroke-width="0.35 px" style="stroke-width:0.35;stroke-miterlimit:4;stroke-dasharray:none;fill:none;fill-opacity:1;fill-rule: evenodd"/>
<path id="Shape2DView_nwe0087"  d="M 6.135020858883354 8.0 L 43.800000000000004 8.0 " stroke="#191919" stroke-width="0.35 px" style="stroke-width:0.35;stroke-miterlimit:4;stroke-dasharray:none;fill:none;fill-opacity:1;fill-rule: evenodd"/>
<path id="Shape2DView_nwe0088"  d="M 43.8 8.0 Q 43.98054434370471 7.983885221205041 44.0 7.800000000000001 " stroke="#191919" stroke-width="0.35 px" style="stroke-width:0.35;stroke-miterlimit:4;stroke-dasharray:none;fill:none;fill-opacity:1;fill-rule: evenodd"/>
<path id="Shape2DView_nwe0089"  d="M 43.8 -8.0 Q 43.98054434370471 -7.983885221205043 44.0 -7.800000000000001 " stroke="#191919" stroke-width="0.35 px" style="stroke-width:0.35;stroke-miterlimit:4;stroke-dasharray:none;fill:none;fill-opacity:1;fill-rule: evenodd"/>
<path id="Shape2DView_nwe0090"  d="M 3.666666666667 -2.0 L 3.9899999999999984 -2.0 " stroke="#191919" stroke-width="0.35 px" style="stroke-width:0.35;stroke-miterlimit:4;stroke-dasharray:none;fill:none;fill-opacity:1;fill-rule: evenodd"/>
<path id="Shape2DView_nwe0091"  d="M 3.666666666667 2.0 L 3.9899999999999984 2.0 " stroke="#191919" stroke-width="0.35 px" style="stroke-width:0.35;stroke-miterlimit:4;stroke-dasharray:none;fill:none;fill-opacity:1;fill-rule: evenodd"/>
<path id="Shape2DView_nwe0092"  d="M 44.433333333333 2.0 L 44.01 2.0 " stroke="#191919" stroke-width="0.35 px" style="stroke-width:0.35;stroke-miterlimit:4;stroke-dasharray:none;fill:none;fill-opacity:1;fill-rule: evenodd"/>
<path id="Shape2DView_nwe0093"  d="M 44.433333333333 -2.0 L 44.01 -2.0 " stroke="#191919" stroke-width="0.35 px" style="stroke-width:0.35;stroke-miterlimit:4;stroke-dasharray:none;fill:none;fill-opacity:1;fill-rule: evenodd"/>
<path id="Shape2DView_nwe0094"  d="M 3.666666666667 -0.45 L 0.9 -0.45 " stroke="#191919" stroke-width="0.35 px" style="stroke-width:0.35;stroke-miterlimit:4;stroke-dasharray:none;fill:none;fill-opacity:1;fill-rule: evenodd"/>
<path id="Shape2DView_nwe0095"  d="M 47.1 -0.45 L 44.433333333333 -0.45 " stroke="#191919" stroke-width="0.35 px" style="stroke-width:0.35;stroke-miterlimit:4;stroke-dasharray:none;fill:none;fill-opacity:1;fill-rule: evenodd"/>
<path id="Shape2DView_nwe0096"  d="M 47.10000000000001 -0.44999999999999934 Q 47.919985886922575 -0.44999999999999996 48.0 -0.45 " stroke="#191919" stroke-width="0.35 px" style="stroke-width:0.35;stroke-miterlimit:4;stroke-dasharray:none;fill:none;fill-opacity:1;fill-rule: evenodd"/>
<title>b'Shape2DView'</title>
</g>
<g id="Rectangle" transform="translate(0.935653,8.488934) scale(1,-1)">
<rect fill="#ff0000" id="origin" width="1" height="1" x="0" y="0" />
<title>b'Rectangle'</title>
</g>
</svg>