<?xml version="1.0"?>
<!DOCTYPE svg PUBLIC "-//W3C//DTD SVG 1.1//EN" "http://www.w3.org/Graphics/SVG/1.1/DTD/svg11.dtd">
<svg width="77.41130674642201mm" height="24.517868759734988mm" viewBox="0 0 77.41130674642201 24.517868759734988" xmlns="http://www.w3.org/2000/svg" version="1.1">
<g id="Shape2DView" transform="translate(1.205653,12.258934) scale(1,-1)">
<path id="Shape2DView_nwe0000"  d="M 4.2 4.404686306522 L 5.064979142851 4.404686306522 " stroke="#191919" stroke-width="0.35 px" style="stroke-width:0.35;stroke-miterlimit:4;stroke-dasharray:none;fill:none;fill-opacity:1;fill-rule: evenodd"/>
<path id="Shape2DView_nwe0001"  d="M 4.2 -4.404686306522 L 5.064979142851 -4.404686306522 " stroke="#191919" stroke-width="0.35 px" style="stroke-width:0.35;stroke-miterlimit:4;stroke-dasharray:none;fill:none;fill-opacity:1;fill-rule: evenodd"/>
<path id="Shape2DView_nwe0002"  d="M 5.064979142851 -4.404686306522 L 5.269338405373 -4.373929999791 " stroke="#191919" stroke-width="0.35 px" style="stroke-width:0.35;stroke-miterlimit:4;stroke-dasharray:none;fill:none;fill-opacity:1;fill-rule: evenodd"/>
<path id="Shape2DView_nwe0003"  d="M 5.269338405373073 -4.3739299997908585 A 0.485412 0.185759 -180 0 0 5.93066 -4.37393" stroke="#191919" stroke-width="0.35 px" style="stroke-width:0.35;stroke-miterlimit:4;stroke-dasharray:none;fill:none;fill-opacity:1;fill-rule: evenodd"/>
<path id="Shape2DView_nwe0004"  d="M 5.930661594627 -4.373929999791 L 6.135020857149 -4.404686306522 " stroke="#191919" stroke-width="0.35 px" style="stroke-width:0.35;stroke-miterlimit:4;stroke-dasharray:none;fill:none;fill-opacity:1;fill-rule: evenodd"/>
<path id="Shape2DView_nwe0005"  d="M 6.135020857149 -4.404686306522 L 70.8 -4.404686306522 " stroke="#191919" stroke-width="0.35 px" style="stroke-width:0.35;stroke-miterlimit:4;stroke-dasharray:none;fill:none;fill-opacity:1;fill-rule: evenodd"/>
<path id="Shape2DView_nwe0006"  d="M 70.8 -4.404686306522675 A 0.21 0.0803635 5.26972e-15 0 1 71.01 -4.32432" stroke="#191919" stroke-width="0.35 px" style="stroke-width:0.35;stroke-miterlimit:4;stroke-dasharray:none;fill:none;fill-opacity:1;fill-rule: evenodd"/>
<path id="Shape2DView_nwe0007"  d="M 3.99 -4.324322785726 A 0.21 0.0803635 5.26972e-15 0 1 4.2 -4.40469" stroke="#191919" stroke-width="0.35 px" style="stroke-width:0.35;stroke-miterlimit:4;stroke-dasharray:none;fill:none;fill-opacity:1;fill-rule: evenodd"/>
<path id="Shape2DView_nwe0008"  d="M 5.064979142851 4.404686306522 L 5.269338405373 4.373929999791 " stroke="#191919" stroke-width="0.35 px" style="stroke-width:0.35;stroke-miterlimit:4;stroke-dasharray:none;fill:none;fill-opacity:1;fill-rule: evenodd"/>
<path id="Shape2DView_nwe0009"  d="M 3.989999999999998 -4.324322785725794 L 3.989999999999998 -3.732153400093636 L 3.989999999999998 -3.12824127910101 L 3.9899999999999975 -2.5144865537065275 L 3.9899999999999975 -1.8928203233436571 L 3.9899999999999975 -1.2651985799674743 L 3.9899999999999975 -0.6335960537803222 L 3.9899999999999975 -1.3766765505351941e-14 L 3.9899999999999975 0.6335960537802947 L 3.9899999999999975 1.2651985799674468 L 3.9899999999999975 1.8928203233436292 L 3.9899999999999975 2.5144865537065 L 3.989999999999998 3.1282412791009837 L 3.989999999999998 3.7321534000936087 L 3.989999999999998 4.324322785725769 " stroke="#191919" stroke-width="0.35 px" style="stroke-width:0.35;stroke-miterlimit:4;stroke-dasharray:none;fill:none;fill-opacity:1;fill-rule: evenodd"/>
<path id="Shape2DView_nwe0010"  d="M 3.99 4.324322785726 A 0.21 0.0803635 -5.26972e-15 0 0 4.2 4.40469" stroke="#191919" stroke-width="0.35 px" style="stroke-width:0.35;stroke-miterlimit:4;stroke-dasharray:none;fill:none;fill-opacity:1;fill-rule: evenodd"/>
<path id="Shape2DView_nwe0011"  d="M 5.269338405373073 4.3739299997908585 A 0.485412 0.185759 180 0 1 5.93066 4.37393" stroke="#191919" stroke-width="0.35 px" style="stroke-width:0.35;stroke-miterlimit:4;stroke-dasharray:none;fill:none;fill-opacity:1;fill-rule: evenodd"/>
<path id="Shape2DView_nwe0012"  d="M 5.930661594627 4.373929999791 L 6.135020857149 4.404686306522 " stroke="#191919" stroke-width="0.35 px" style="stroke-width:0.35;stroke-miterlimit:4;stroke-dasharray:none;fill:none;fill-opacity:1;fill-rule: evenodd"/>
<path id="Shape2DView_nwe0013"  d="M 6.135020857149 4.404686306522 L 70.8 4.404686306522 " stroke="#191919" stroke-width="0.35 px" style="stroke-width:0.35;stroke-miterlimit:4;stroke-dasharray:none;fill:none;fill-opacity:1;fill-rule: evenodd"/>
<path id="Shape2DView_nwe0014"  d="M 70.8 4.404686306522675 A 0.21 0.0803635 -5.26972e-15 0 0 71.01 4.32432" stroke="#191919" stroke-width="0.35 px" style="stroke-width:0.35;stroke-miterlimit:4;stroke-dasharray:none;fill:none;fill-opacity:1;fill-rule: evenodd"/>
<path id="Shape2DView_nwe0015"  d="M 3.9999999999999973 4.348826481336407 L 3.999999999999998 5.208374148510354 L 3.999999999999998 6.03120880133174 L 3.999999999999998 6.811530407092189 L 3.999999999999998 7.5438386008995035 L 3.9999999999999982 8.222971456889077 L 3.9999999999999982 8.84414187383156 L 3.9999999999999982 9.402971318660333 L 3.9999999999999987 9.895520690065915 L 3.9999999999999987 10.318318084604714 L 3.999999999999999 10.668383269603087 L 3.999999999999999 10.943248690351119 L 3.9999999999999996 11.140976863509627 L 3.9999999999999996 11.26017403412705 L 4.0 11.3 " stroke="#191919" stroke-width="0.35 px" style="stroke-width:0.35;stroke-miterlimit:4;stroke-dasharray:none;fill:none;fill-opacity:1;fill-rule: evenodd"/>
<path id="Shape2DView_nwe0016"  d="M 4.0 11.3 L 4.0 11.282560768369343 L 4.0 11.230296901229522 L 4.0 11.143369715692916 L 4.000000000000001 11.022047520312377 L 4.000000000000001 10.866704786922798 L 4.000000000000001 10.677820994800237 L 4.000000000000001 10.455979150706135 L 4.000000000000001 10.201863989384652 L 4.000000000000001 9.916259860067496 L 4.000000000000002 9.600048305509686 L 4.000000000000002 9.254205341028785 L 4.000000000000002 8.879798441946102 L 4.000000000000002 8.477983248728405 L 4.000000000000002 8.05 " stroke="#191919" stroke-width="0.35 px" style="stroke-width:0.35;stroke-miterlimit:4;stroke-dasharray:none;fill:none;fill-opacity:1;fill-rule: evenodd"/>
<path id="Shape2DView_nwe0017"  d="M 4.000000000000002 -8.049999999999999 L 4.000000000000002 -8.47798324872842 L 4.000000000000002 -8.879798441946118 L 4.000000000000002 -9.2542053410288 L 4.000000000000002 -9.600048305509706 L 4.000000000000002 -9.916259860067518 L 4.000000000000001 -10.201863989384671 L 4.000000000000001 -10.455979150706154 L 4.000000000000001 -10.677820994800257 L 4.000000000000001 -10.866704786922817 L 4.000000000000001 -11.022047520312391 L 4.000000000000001 -11.143369715692927 L 4.0 -11.23029690122953 L 4.0 -11.282560768369349 L 4.0 -11.3 " stroke="#191919" stroke-width="0.35 px" style="stroke-width:0.35;stroke-miterlimit:4;stroke-dasharray:none;fill:none;fill-opacity:1;fill-rule: evenodd"/>
<path id="Shape2DView_nwe0018"  d="M 4.0 -11.3 L 4.0 -11.260174034127044 L 3.9999999999999996 -11.14097686350961 L 3.9999999999999996 -10.943248690351094 L 3.999999999999999 -10.668383269603058 L 3.999999999999999 -10.31831808460468 L 3.9999999999999987 -9.89552069006588 L 3.9999999999999987 -9.40297131866029 L 3.9999999999999982 -8.844141873831514 L 3.9999999999999982 -8.222971456889029 L 3.9999999999999982 -7.543838600899452 L 3.999999999999998 -6.811530407092135 L 3.999999999999998 -6.031208801331685 L 3.999999999999998 -5.208374148510298 L 3.999999999999998 -4.348826481336407 " stroke="#191919" stroke-width="0.35 px" style="stroke-width:0.35;stroke-miterlimit:4;stroke-dasharray:none;fill:none;fill-opacity:1;fill-rule: evenodd"/>
<path id="Shape2DView_nwe0019"  d="M 71.0 4.348826481336407 L 71.0 5.208374148510421 L 71.0 6.031208801331866 L 71.0 6.811530407092369 L 71.0 7.5438386008997265 L 71.0 8.222971456889333 L 71.0 8.844141873831838 L 71.0 9.40297131866062 L 71.0 9.895520690066203 L 71.0 10.318318084604986 L 71.0 10.668383269603334 L 71.0 10.943248690351322 L 71.0 11.140976863509774 L 71.0 11.260174034127132 L 71.0 11.3 " stroke="#191919" stroke-width="0.35 px" style="stroke-width:0.35;stroke-miterlimit:4;stroke-dasharray:none;fill:none;fill-opacity:1;fill-rule: evenodd"/>
<path id="Shape2DView_nwe0020"  d="M 71.0 11.3 L 71.0 11.28256076836929 L 71.0 11.230296901229423 L 71.0 11.143369715692781 L 71.0 11.022047520312212 L 71.0 10.866704786922613 L 71.0 10.677820994800044 L 71.0 10.45597915070594 L 71.0 10.20186398938446 L 71.0 9.916259860067319 L 71.0 9.600048305509532 L 71.0 9.254205341028658 L 71.0 8.879798441946011 L 71.0 8.47798324872836 L 71.0 8.05 " stroke="#191919" stroke-width="0.35 px" style="stroke-width:0.35;stroke-miterlimit:4;stroke-dasharray:none;fill:none;fill-opacity:1;fill-rule: evenodd"/>
<path id="Shape2DView_nwe0021"  d="M 71.0 -8.049999999999999 L 71.0 -8.477983248728378 L 71.0 -8.879798441946043 L 71.0 -9.254205341028698 L 71.0 -9.60004830550958 L 71.0 -9.916259860067372 L 71.0 -10.201863989384517 L 71.0 -10.455979150705996 L 71.0 -10.677820994800099 L 71.0 -10.866704786922664 L 71.0 -11.022047520312256 L 71.0 -11.143369715692817 L 71.0 -11.230296901229451 L 71.0 -11.282560768369304 L 71.0 -11.300000000000002 " stroke="#191919" stroke-width="0.35 px" style="stroke-width:0.35;stroke-miterlimit:4;stroke-dasharray:none;fill:none;fill-opacity:1;fill-rule: evenodd"/>
<path id="Shape2DView_nwe0022"  d="M 71.0 -11.300000000000002 L 71.0 -11.260174034127107 L 71.0 -11.140976863509733 L 71.0 -10.943248690351263 L 71.0 -10.668383269603261 L 71.0 -10.318318084604906 L 71.0 -9.895520690066114 L 71.0 -9.402971318660528 L 71.0 -8.844141873831745 L 71.0 -8.222971456889242 L 71.0 -7.543838600899638 L 71.0 -6.811530407092287 L 71.0 -6.031208801331794 L 71.0 -5.208374148510359 L 71.0 -4.348826481336406 " stroke="#191919" stroke-width="0.35 px" style="stroke-width:0.35;stroke-miterlimit:4;stroke-dasharray:none;fill:none;fill-opacity:1;fill-rule: evenodd"/>
<path id="Shape2DView_nwe0023"  d="M 71.0 4.348826481336407 L 71.0 4.821240823267443 L 71.0 5.269063048994201 L 71.0 5.690008913315575 L 71.0 6.081931261590138 L 71.0 6.442830981911823 L 71.0 6.77086720215132 L 71.0 7.064366679850294 L 71.0 7.321832337072578 L 71.0 7.541950896677884 L 71.0 7.723599581067049 L 71.0 7.865851839229948 L 71.0 7.967982072883629 L 71.0 8.02946933759365 L 71.0 8.05 " stroke="#191919" stroke-width="0.35 px" style="stroke-width:0.35;stroke-miterlimit:4;stroke-dasharray:none;fill:none;fill-opacity:1;fill-rule: evenodd"/>
<path id="Shape2DView_nwe0024"  d="M 71.01 -4.324322785725794 L 71.01 -3.732153400093636 L 71.01 -3.12824127910101 L 71.01 -2.5144865537065275 L 71.01 -1.8928203233436571 L 71.01 -1.2651985799674743 L 71.01 -0.6335960537803222 L 71.01 -1.3766765505351941e-14 L 71.01 0.6335960537802947 L 71.01 1.2651985799674468 L 71.01 1.8928203233436292 L 71.01 2.5144865537065 L 71.01 3.1282412791009837 L 71.01 3.7321534000936087 L 71.01 4.324322785725769 " stroke="#191919" stroke-width="0.35 px" style="stroke-width:0.35;stroke-miterlimit:4;stroke-dasharray:none;fill:none;fill-opacity:1;fill-rule: evenodd"/>
<path id="Shape2DView_nwe0025"  d="M 52.44 1.15 L 59.36 1.15 " stroke="#191919" stroke-width="0.35 px" style="stroke-width:0.35;stroke-miterlimit:4;stroke-dasharray:none;fill:none;fill-opacity:1;fill-rule: evenodd"/>
<path id="Shape2DView_nwe0026"  d="M 15.64 1.15 L 22.56 1.15 " stroke="#191919" stroke-width="0.35 px" style="stroke-width:0.35;stroke-miterlimit:4;stroke-dasharray:none;fill:none;fill-opacity:1;fill-rule: evenodd"/>
<path id="Shape2DView_nwe0027"  d="M 34.04 1.15 L 40.96 1.15 " stroke="#191919" stroke-width="0.35 px" style="stroke-width:0.35;stroke-miterlimit:4;stroke-dasharray:none;fill:none;fill-opacity:1;fill-rule: evenodd"/>
<path id="Shape2DView_nwe0028"  d="M 3.433333333333 2.875 L 3.433333333333 2.8029177475227427 L 3.4333333333329996 2.590285495219455 L 3.4333333333329996 2.247765512095586 L 3.4333333333329996 1.7925331803438591 L 3.4333333333329996 1.2474157499629799 L 3.4333333333329996 0.6397476851244042 L 3.4333333333329996 3.5208595475486404e-16 L 3.4333333333329996 -0.6397476851244036 L 3.4333333333329996 -1.2474157499629792 L 3.4333333333329996 -1.7925331803438584 L 3.4333333333329996 -2.2477655120955853 L 3.4333333333329996 -2.5902854952194545 L 3.433333333333 -2.8029177475227427 L 3.433333333333 -2.875 " stroke="#191919" stroke-width="0.35 px" style="stroke-width:0.35;stroke-miterlimit:4;stroke-dasharray:none;fill:none;fill-opacity:1;fill-rule: evenodd"/>
<path id="Shape2DView_nwe0029"  d="M 52.44 -1.15 Q 51.520595819443606 -1.1722328006822105 51.3 -0.010000000000000009 " stroke="#191919" stroke-width="0.35 px" style="stroke-width:0.35;stroke-miterlimit:4;stroke-dasharray:none;fill:none;fill-opacity:1;fill-rule: evenodd"/>
<path id="Shape2DView_nwe0030"  d="M 51.3 0.00999999999999801 L 51.3 0.008571428857515606 L 51.3 0.007142857582993933 L 51.3 0.005714286198439389 L 51.3 0.004285714725857481 L 51.3 0.002857143187254607 L 51.3 0.0014285716046389396 L 51.3 1.509903313490213e-14 L 51.3 -0.0014285716046069652 L 51.3 -0.0028571431872217445 L 51.3 -0.004285714725824619 L 51.3 -0.0057142861984074145 L 51.3 -0.007142857582962847 L 51.3 -0.00857142885748452 L 51.3 -0.009999999999995346 " stroke="#191919" stroke-width="0.35 px" style="stroke-width:0.35;stroke-miterlimit:4;stroke-dasharray:none;fill:none;fill-opacity:1;fill-rule: evenodd"/>
<path id="Shape2DView_nwe0031"  d="M 52.44 1.15 Q 51.520595819443606 1.1722328006822111 51.3 0.009999999999998899 " stroke="#191919" stroke-width="0.35 px" style="stroke-width:0.35;stroke-miterlimit:4;stroke-dasharray:none;fill:none;fill-opacity:1;fill-rule: evenodd"/>
<path id="Shape2DView_nwe0033"  d="M 59.36 1.15 Q 60.27940418055633 1.172232800682106 60.5 0.00999999999999901 " stroke="#191919" stroke-width="0.35 px" style="stroke-width:0.35;stroke-miterlimit:4;stroke-dasharray:none;fill:none;fill-opacity:1;fill-rule: evenodd"/>
<path id="Shape2DView_nwe0034"  d="M 60.5 0.00999999999999801 L 60.5 0.008571428857515606 L 60.5 0.007142857582993933 L 60.5 0.005714286198439389 L 60.5 0.004285714725857481 L 60.5 0.002857143187254607 L 60.5 0.0014285716046389396 L 60.5 1.509903313490213e-14 L 60.5 -0.0014285716046069652 L 60.5 -0.0028571431872217445 L 60.5 -0.004285714725824619 L 60.5 -0.0057142861984074145 L 60.5 -0.007142857582962847 L 60.5 -0.00857142885748452 L 60.5 -0.009999999999995346 " stroke="#191919" stroke-width="0.35 px" style="stroke-width:0.35;stroke-miterlimit:4;stroke-dasharray:none;fill:none;fill-opacity:1;fill-rule: evenodd"/>
<path id="Shape2DView_nwe0035"  d="M 59.36 -1.15 Q 60.27940416273614 -1.1722328211635769 60.5 -0.010000000000000009 " stroke="#191919" stroke-width="0.35 px" style="stroke-width:0.35;stroke-miterlimit:4;stroke-dasharray:none;fill:none;fill-opacity:1;fill-rule: evenodd"/>
<path id="Shape2DView_nwe0036"  d="M 52.44 -1.15 L 59.36 -1.15 " stroke="#191919" stroke-width="0.35 px" style="stroke-width:0.35;stroke-miterlimit:4;stroke-dasharray:none;fill:none;fill-opacity:1;fill-rule: evenodd"/>
<path id="Shape2DView_nwe0037"  d="M 15.64 -1.15 Q 14.720595837265247 -1.1722328211644406 14.5 -0.010000000000000009 " stroke="#191919" stroke-width="0.35 px" style="stroke-width:0.35;stroke-miterlimit:4;stroke-dasharray:none;fill:none;fill-opacity:1;fill-rule: evenodd"/>
<path id="Shape2DView_nwe0038"  d="M 14.499999999999998 0.00999999999999801 L 14.499999999999998 0.008571428857515606 L 14.499999999999998 0.007142857582993933 L 14.499999999999998 0.005714286198439389 L 14.499999999999998 0.004285714725857481 L 14.499999999999998 0.002857143187254607 L 14.499999999999998 0.0014285716046389396 L 14.499999999999998 1.509903313490213e-14 L 14.499999999999998 -0.0014285716046069652 L 14.499999999999998 -0.0028571431872217445 L 14.499999999999998 -0.004285714725824619 L 14.499999999999998 -0.0057142861984074145 L 14.499999999999998 -0.007142857582962847 L 14.499999999999998 -0.00857142885748452 L 14.499999999999998 -0.009999999999995346 " stroke="#191919" stroke-width="0.35 px" style="stroke-width:0.35;stroke-miterlimit:4;stroke-dasharray:none;fill:none;fill-opacity:1;fill-rule: evenodd"/>
<path id="Shape2DView_nwe0039"  d="M 15.64 1.15 Q 14.720595837265247 1.1722328211644433 14.5 0.00999999999999901 " stroke="#191919" stroke-width="0.35 px" style="stroke-width:0.35;stroke-miterlimit:4;stroke-dasharray:none;fill:none;fill-opacity:1;fill-rule: evenodd"/>
<path id="Shape2DView_nwe0041"  d="M 22.56 1.15 Q 23.47940416273383 1.1722328211659279 23.7 0.00999999999999901 " stroke="#191919" stroke-width="0.35 px" style="stroke-width:0.35;stroke-miterlimit:4;stroke-dasharray:none;fill:none;fill-opacity:1;fill-rule: evenodd"/>
<path id="Shape2DView_nwe0042"  d="M 23.699999999999996 0.00999999999999801 L 23.699999999999996 0.008571428857515606 L 23.699999999999996 0.007142857582993933 L 23.699999999999996 0.005714286198439389 L 23.699999999999996 0.004285714725857481 L 23.699999999999996 0.002857143187254607 L 23.699999999999996 0.0014285716046389396 L 23.699999999999996 1.509903313490213e-14 L 23.699999999999996 -0.0014285716046069652 L 23.699999999999996 -0.0028571431872217445 L 23.699999999999996 -0.004285714725824619 L 23.699999999999996 -0.0057142861984074145 L 23.699999999999996 -0.007142857582962847 L 23.699999999999996 -0.00857142885748452 L 23.699999999999996 -0.009999999999995346 " stroke="#191919" stroke-width="0.35 px" style="stroke-width:0.35;stroke-miterlimit:4;stroke-dasharray:none;fill:none;fill-opacity:1;fill-rule: evenodd"/>
<path id="Shape2DView_nwe0043"  d="M 22.56 -1.15 Q 23.47940416273643 -1.17223282116292 23.7 -0.010000000000000009 " stroke="#191919" stroke-width="0.35 px" style="stroke-width:0.35;stroke-miterlimit:4;stroke-dasharray:none;fill:none;fill-opacity:1;fill-rule: evenodd"/>
<path id="Shape2DView_nwe0044"  d="M 15.64 -1.15 L 22.56 -1.15 " stroke="#191919" stroke-width="0.35 px" style="stroke-width:0.35;stroke-miterlimit:4;stroke-dasharray:none;fill:none;fill-opacity:1;fill-rule: evenodd"/>
<path id="Shape2DView_nwe0045"  d="M 34.04 -1.15 Q 33.12059583726388 -1.1722328211636142 32.9 -0.010000000000000009 " stroke="#191919" stroke-width="0.35 px" style="stroke-width:0.35;stroke-miterlimit:4;stroke-dasharray:none;fill:none;fill-opacity:1;fill-rule: evenodd"/>
<path id="Shape2DView_nwe0046"  d="M 32.9 0.00999999999999801 L 32.9 0.008571428857515606 L 32.9 0.007142857582993933 L 32.9 0.005714286198439389 L 32.9 0.004285714725857481 L 32.9 0.002857143187254607 L 32.9 0.0014285716046389396 L 32.9 1.509903313490213e-14 L 32.9 -0.0014285716046069652 L 32.9 -0.0028571431872217445 L 32.9 -0.004285714725824619 L 32.9 -0.0057142861984074145 L 32.9 -0.007142857582962847 L 32.9 -0.00857142885748452 L 32.9 -0.009999999999995346 " stroke="#191919" stroke-width="0.35 px" style="stroke-width:0.35;stroke-miterlimit:4;stroke-dasharray:none;fill:none;fill-opacity:1;fill-rule: evenodd"/>
<path id="Shape2DView_nwe0047"  d="M 34.04 1.15 Q 33.12059581944352 1.172232800682211 32.9 0.00999999999999912 " stroke="#191919" stroke-width="0.35 px" style="stroke-width:0.35;stroke-miterlimit:4;stroke-dasharray:none;fill:none;fill-opacity:1;fill-rule: evenodd"/>
<path id="Shape2DView_nwe0049"  d="M 40.96 1.15 Q 41.879404180556335 1.172232800682106 42.1 0.00999999999999901 " stroke="#191919" stroke-width="0.35 px" style="stroke-width:0.35;stroke-miterlimit:4;stroke-dasharray:none;fill:none;fill-opacity:1;fill-rule: evenodd"/>
<path id="Shape2DView_nwe0050"  d="M 42.1 0.00999999999999801 L 42.1 0.008571428857515606 L 42.1 0.007142857582993933 L 42.1 0.005714286198439389 L 42.1 0.004285714725857481 L 42.1 0.002857143187254607 L 42.1 0.0014285716046389396 L 42.1 1.509903313490213e-14 L 42.1 -0.0014285716046069652 L 42.1 -0.0028571431872217445 L 42.1 -0.004285714725824619 L 42.1 -0.0057142861984074145 L 42.1 -0.007142857582962847 L 42.1 -0.00857142885748452 L 42.1 -0.009999999999995346 " stroke="#191919" stroke-width="0.35 px" style="stroke-width:0.35;stroke-miterlimit:4;stroke-dasharray:none;fill:none;fill-opacity:1;fill-rule: evenodd"/>
<path id="Shape2DView_nwe0051"  d="M 40.96 -1.15 Q 41.879404162736435 -1.1722328211628734 42.1 -0.010000000000000009 " stroke="#191919" stroke-width="0.35 px" style="stroke-width:0.35;stroke-miterlimit:4;stroke-dasharray:none;fill:none;fill-opacity:1;fill-rule: evenodd"/>
<path id="Shape2DView_nwe0052"  d="M 34.04 -1.15 L 40.96 -1.15 " stroke="#191919" stroke-width="0.35 px" style="stroke-width:0.35;stroke-miterlimit:4;stroke-dasharray:none;fill:none;fill-opacity:1;fill-rule: evenodd"/>
<path id="Shape2DView_nwe0053"  d="M 71.666666666667 2.875 L 71.666666666667 2.8029177475227427 L 71.666666666667 2.590285495219455 L 71.666666666667 2.247765512095586 L 71.666666666667 1.7925331803438591 L 71.666666666667 1.2474157499629799 L 71.666666666667 0.6397476851244042 L 71.666666666667 3.5208595475486404e-16 L 71.666666666667 -0.6397476851244036 L 71.666666666667 -1.2474157499629792 L 71.666666666667 -1.7925331803438584 L 71.666666666667 -2.2477655120955853 L 71.666666666667 -2.5902854952194545 L 71.666666666667 -2.8029177475227427 L 71.666666666667 -2.875 " stroke="#191919" stroke-width="0.35 px" style="stroke-width:0.35;stroke-miterlimit:4;stroke-dasharray:none;fill:none;fill-opacity:1;fill-rule: evenodd"/>
<path id="Shape2DView_nwe0054"  d="M 0.9 0.45 L 3.433333333333 0.45 " stroke="#191919" stroke-width="0.35 px" style="stroke-width:0.35;stroke-miterlimit:4;stroke-dasharray:none;fill:none;fill-opacity:1;fill-rule: evenodd"/>
<path id="Shape2DView_nwe0055"  d="M 0.0 -0.4500000000000001 L 0.00565901109608169 -0.4500000000000001 L 0.02256487903635873 -0.4500000000000001 L 0.05050500272246916 -0.4500000000000001 L 0.08912801888782274 -0.4500000000000001 L 0.13794822069454427 -0.4500000000000001 L 0.19635166577877317 -0.45000000000000007 L 0.2636038969321072 -0.45000000000000007 L 0.33885917832713974 -0.45000000000000007 L 0.4211711311361971 -0.45000000000000007 L 0.5095046347941976 -0.45000000000000007 L 0.6027488442403496 -0.45000000000000007 L 0.699731159439317 -0.45 L 0.7992319715070229 -0.45 L 0.9 -0.45 " stroke="#191919" stroke-width="0.35 px" style="stroke-width:0.35;stroke-miterlimit:4;stroke-dasharray:none;fill:none;fill-opacity:1;fill-rule: evenodd"/>
<circle cx="2.942091015257e-15" cy="0.0" r="0.45" stroke="#191919" stroke-width="0.35 px" style="stroke-width:0.35;stroke-miterlimit:4;stroke-dasharray:none;fill:none"/>
<path id="Shape2DView_nwe0057"  d="M 71.666666666667 0.45 L 74.1 0.45 " stroke="#191919" stroke-width="0.35 px" style="stroke-width:0.35;stroke-miterlimit:4;stroke-dasharray:none;fill:none;fill-opacity:1;fill-rule: evenodd"/>
<path id="Shape2DView_nwe0058"  d="M 75.0 0.45 L 74.99434098890391 0.45 L 74.97743512096363 0.45 L 74.94949499727753 0.45 L 74.91087198111217 0.45 L 74.86205177930545 0.45 L 74.80364833422122 0.45 L 74.73639610306789 0.45 L 74.66114082167286 0.45 L 74.5788288688638 0.45 L 74.4904953652058 0.45 L 74.39725115575965 0.45 L 74.30026884056068 0.45 L 74.20076802849297 0.45 L 74.1 0.45 " stroke="#191919" stroke-width="0.35 px" style="stroke-width:0.35;stroke-miterlimit:4;stroke-dasharray:none;fill:none;fill-opacity:1;fill-rule: evenodd"/>
<path id="Shape2DView_nwe0059"  d="M 75.0 -0.45 A 0.45 0.45 0 0 1 75 0.45" stroke="#191919" stroke-width="0.35 px" style="stroke-width:0.35;stroke-miterlimit:4;stroke-dasharray:none;fill:none;fill-opacity:1;fill-rule: evenodd"/>
<path id="Shape2DView_nwe0060"  d="M 5.064979142851 -4.404686308513158 L 5.064979142851 4.4046863085133845 " stroke="#191919" stroke-width="0.35 px" style="stroke-width:0.35;stroke-miterlimit:4;stroke-dasharray:none;fill:none;fill-opacity:1;fill-rule: evenodd"/>
<path id="Shape2DView_nwe0061"  d="M 4.1999999999999975 -4.404686306522469 L 4.1999999999999975 -3.8015120031042566 L 4.1999999999999975 -3.186376736500298 L 4.1999999999999975 -2.561215949837458 L 4.1999999999999975 -1.9279966302377907 L 4.1999999999999975 -1.2887111199493422 L 4.1999999999999975 -0.6453708477003395 L 4.1999999999999975 -2.5579538487363607e-13 L 4.1999999999999975 0.6453708476998306 L 4.1999999999999975 1.2887111199488337 L 4.1999999999999975 1.9279966302372862 L 4.1999999999999975 2.561215949836959 L 4.1999999999999975 3.186376736499808 L 4.1999999999999975 3.801512003103774 L 4.1999999999999975 4.404686306521997 " stroke="#191919" stroke-width="0.35 px" style="stroke-width:0.35;stroke-miterlimit:4;stroke-dasharray:none;fill:none;fill-opacity:1;fill-rule: evenodd"/>
<path id="Shape2DView_nwe0062"  d="M 5.269338405373 -4.373929997813643 L 5.269338405373 4.373929997813721 " stroke="#191919" stroke-width="0.35 px" style="stroke-width:0.35;stroke-miterlimit:4;stroke-dasharray:none;fill:none;fill-opacity:1;fill-rule: evenodd"/>
<path id="Shape2DView_nwe0063"  d="M 4.1999999999999975 4.404686306522675 L 4.1999999999999975 5.281708601797432 L 4.1999999999999975 6.121375023862333 L 4.1999999999999975 6.917746874700118 L 4.199999999999998 7.665191665256459 L 4.199999999999998 8.358422952273598 L 4.199999999999998 8.992537727650314 L 4.199999999999998 9.563051095884909 L 4.199999999999998 10.065927994338551 L 4.199999999999999 10.497611731971455 L 4.199999999999999 10.855049144706319 L 4.199999999999999 11.135712189503048 L 4.199999999999999 11.337615824416586 L 4.2 11.459332048177826 L 4.2 11.5 " stroke="#191919" stroke-width="0.35 px" style="stroke-width:0.35;stroke-miterlimit:4;stroke-dasharray:none;fill:none;fill-opacity:1;fill-rule: evenodd"/>
<path id="Shape2DView_nwe0064"  d="M 4.2 -11.5 L 4.2 -11.45933204817782 L 4.2 -11.337615824416579 L 4.199999999999999 -11.135712189503035 L 4.199999999999999 -10.855049144706307 L 4.199999999999999 -10.497611731971439 L 4.199999999999999 -10.065927994338534 L 4.199999999999998 -9.563051095884887 L 4.199999999999998 -8.99253772765029 L 4.199999999999998 -8.358422952273576 L 4.199999999999998 -7.665191665256436 L 4.199999999999998 -6.917746874700098 L 4.1999999999999975 -6.1213750238623135 L 4.1999999999999975 -5.281708601797414 L 4.1999999999999975 -4.404686306522676 " stroke="#191919" stroke-width="0.35 px" style="stroke-width:0.35;stroke-miterlimit:4;stroke-dasharray:none;fill:none;fill-opacity:1;fill-rule: evenodd"/>
<path id="Shape2DView_nwe0065"  d="M 5.064979142851005 4.404686306521998 C 5.064979140184672 8.60329154005636 5.064979126465704 11.562534760274925 5.0649791411336125 11.499976592194429 " stroke="#191919" stroke-width="0.35 px" style="stroke-width:0.35;stroke-miterlimit:4;stroke-dasharray:none;fill:none;fill-opacity:1;fill-rule: evenodd"/>
<path id="Shape2DView_nwe0066"  d="M 5.064979141133515 -11.499976592190945 C 5.064979126465543 -11.562534760271136 5.064979140184682 -8.603291540054988 5.064979142851011 -4.40468630652146 " stroke="#191919" stroke-width="0.35 px" style="stroke-width:0.35;stroke-miterlimit:4;stroke-dasharray:none;fill:none;fill-opacity:1;fill-rule: evenodd"/>
<path id="Shape2DView_nwe0067"  d="M 5.269338405373 4.373929999790994 C 5.269338405829416 8.543206504762134 5.269338408177868 11.481735975678166 5.269338405666822 11.41960705771913 " stroke="#191919" stroke-width="0.35 px" style="stroke-width:0.35;stroke-miterlimit:4;stroke-dasharray:none;fill:none;fill-opacity:1;fill-rule: evenodd"/>
<path id="Shape2DView_nwe0068"  d="M 5.269338405666666 -11.4196070577148 C 5.269338408177713 -11.481735975674612 5.269338405829431 -8.54320650476136 5.269338405373 -4.373929999791283 " stroke="#191919" stroke-width="0.35 px" style="stroke-width:0.35;stroke-miterlimit:4;stroke-dasharray:none;fill:none;fill-opacity:1;fill-rule: evenodd"/>
<path id="Shape2DView_nwe0069"  d="M 5.930661594627008 4.373929999791 C 5.930661594170441 8.543206504761985 5.930661591822005 11.481735975677848 5.930661594333106 11.419607057718892 " stroke="#191919" stroke-width="0.35 px" style="stroke-width:0.35;stroke-miterlimit:4;stroke-dasharray:none;fill:none;fill-opacity:1;fill-rule: evenodd"/>
<path id="Shape2DView_nwe0070"  d="M 5.930661594333372 -11.41960705771628 C 5.93066159182229 -11.481735975675054 5.930661594170569 -8.543206504761006 5.930661594627 -4.373929999790916 " stroke="#191919" stroke-width="0.35 px" style="stroke-width:0.35;stroke-miterlimit:4;stroke-dasharray:none;fill:none;fill-opacity:1;fill-rule: evenodd"/>
<path id="Shape2DView_nwe0071"  d="M 6.135020857148992 4.404686306521998 C 6.135020859815186 8.603291540056308 6.135020873534165 11.562534760274849 6.135020858866319 11.499976592194479 " stroke="#191919" stroke-width="0.35 px" style="stroke-width:0.35;stroke-miterlimit:4;stroke-dasharray:none;fill:none;fill-opacity:1;fill-rule: evenodd"/>
<path id="Shape2DView_nwe0072"  d="M 6.135020858866526 -11.499976592190901 C 6.135020873534462 -11.562534760271271 6.1350208598153095 -8.603291540054745 6.13502085714899 -4.404686306520767 " stroke="#191919" stroke-width="0.35 px" style="stroke-width:0.35;stroke-miterlimit:4;stroke-dasharray:none;fill:none;fill-opacity:1;fill-rule: evenodd"/>
<path id="Shape2DView_nwe0073"  d="M 70.8 4.404686306522675 L 70.8 5.281708601797431 L 70.8 6.1213750238623295 L 70.8 6.917746874700115 L 70.8 7.665191665256454 L 70.8 8.35842295227359 L 70.8 8.992537727650305 L 70.8 9.5630510958849 L 70.8 10.065927994338544 L 70.8 10.497611731971448 L 70.8 10.855049144706314 L 70.8 11.135712189503042 L 70.8 11.337615824416583 L 70.8 11.459332048177824 L 70.8 11.5 " stroke="#191919" stroke-width="0.35 px" style="stroke-width:0.35;stroke-miterlimit:4;stroke-dasharray:none;fill:none;fill-opacity:1;fill-rule: evenodd"/>
<path id="Shape2DView_nwe0074"  d="M 70.8 -11.5 L 70.8 -11.459332048177824 L 70.8 -11.337615824416583 L 70.8 -11.135712189503042 L 70.8 -10.855049144706316 L 70.8 -10.497611731971453 L 70.8 -10.065927994338548 L 70.8 -9.563051095884903 L 70.8 -8.992537727650312 L 70.8 -8.358422952273598 L 70.8 -7.66519166525646 L 70.8 -6.917746874700121 L 70.8 -6.1213750238623374 L 70.8 -5.2817086017974395 L 70.8 -4.404686306522675 " stroke="#191919" stroke-width="0.35 px" style="stroke-width:0.35;stroke-miterlimit:4;stroke-dasharray:none;fill:none;fill-opacity:1;fill-rule: evenodd"/>
<path id="Shape2DView_nwe0075"  d="M 70.8 -4.404686306522469 L 70.8 -3.8015120031042566 L 70.8 -3.186376736500298 L 70.8 -2.561215949837458 L 70.8 -1.9279966302377907 L 70.8 -1.2887111199493422 L 70.8 -0.6453708477003395 L 70.8 -2.5579538487363607e-13 L 70.8 0.6453708476998306 L 70.8 1.2887111199488337 L 70.8 1.9279966302372862 L 70.8 2.561215949836959 L 70.8 3.186376736499808 L 70.8 3.801512003103774 L 70.8 4.404686306521997 " stroke="#191919" stroke-width="0.35 px" style="stroke-width:0.35;stroke-miterlimit:4;stroke-dasharray:none;fill:none;fill-opacity:1;fill-rule: evenodd"/>
<path id="Shape2DView_nwe0076"  d="M 6.135020857149 -4.404686308513158 L 6.135020857149 4.4046863085133845 " stroke="#191919" stroke-width="0.35 px" style="stroke-width:0.35;stroke-miterlimit:4;stroke-dasharray:none;fill:none;fill-opacity:1;fill-rule: evenodd"/>
<path id="Shape2DView_nwe0077"  d="M 5.930661594626999 -4.373929997813643 L 5.930661594626999 4.373929997813721 " stroke="#191919" stroke-width="0.35 px" style="stroke-width:0.35;stroke-miterlimit:4;stroke-dasharray:none;fill:none;fill-opacity:1;fill-rule: evenodd"/>
<path id="Shape2DView_nwe0078"  d="M 0.9 0.45 L 0.8999999999999999 0.43871756048182065 L 0.8999999999999999 0.40543599055608864 L 0.8999999999999999 0.3518241671106135 L 0.8999999999999999 0.2805704108364302 L 0.8999999999999999 0.19524768260290123 L 0.8999999999999999 0.10013442028034157 L 0.9 8.266365894244634e-17 L 0.9 -0.1001344202803414 L 0.9 -0.1952476826029011 L 0.9 -0.28057041083643003 L 0.9 -0.3518241671106134 L 0.9 -0.4054359905560886 L 0.9 -0.4387175604818206 L 0.9 -0.45 " stroke="#191919" stroke-width="0.35 px" style="stroke-width:0.35;stroke-miterlimit:4;stroke-dasharray:none;fill:none;fill-opacity:1;fill-rule: evenodd"/>
<path id="Shape2DView_nwe0079"  d="M 74.1 -0.45 L 74.1 -0.43871756048182065 L 74.1 -0.40543599055608864 L 74.1 -0.3518241671106135 L 74.1 -0.2805704108364302 L 74.1 -0.19524768260290123 L 74.1 -0.10013442028034157 L 74.1 -8.266365894244634e-17 L 74.1 0.1001344202803414 L 74.1 0.1952476826029011 L 74.1 0.28057041083643003 L 74.1 0.3518241671106134 L 74.1 0.4054359905560886 L 74.1 0.4387175604818206 L 74.1 0.45 " stroke="#191919" stroke-width="0.35 px" style="stroke-width:0.35;stroke-miterlimit:4;stroke-dasharray:none;fill:none;fill-opacity:1;fill-rule: evenodd"/>
<path id="Shape2DView_nwe0080"  d="M 4.199999999999999 11.50000000000061 Q 4.019455656295286 11.483885221205647 4.000000000000002 11.30000000000061 " stroke="#191919" stroke-width="0.35 px" style="stroke-width:0.35;stroke-miterlimit:4;stroke-dasharray:none;fill:none;fill-opacity:1;fill-rule: evenodd"/>
<path id="Shape2DView_nwe0081"  d="M 4.2 -11.500000000000611 Q 4.019455656295287 -11.48388522120565 4.000000000000003 -11.300000000000608 " stroke="#191919" stroke-width="0.35 px" style="stroke-width:0.35;stroke-miterlimit:4;stroke-dasharray:none;fill:none;fill-opacity:1;fill-rule: evenodd"/>
<path id="Shape2DView_nwe0082"  d="M 4.2 -11.5 L 5.064979141121696 -11.5 " stroke="#191919" stroke-width="0.35 px" style="stroke-width:0.35;stroke-miterlimit:4;stroke-dasharray:none;fill:none;fill-opacity:1;fill-rule: evenodd"/>
<path id="Shape2DView_nwe0083"  d="M 4.2 11.5 L 5.06497914112179 11.5 " stroke="#191919" stroke-width="0.35 px" style="stroke-width:0.35;stroke-miterlimit:4;stroke-dasharray:none;fill:none;fill-opacity:1;fill-rule: evenodd"/>
<path id="Shape2DView_nwe0084"  d="M 5.269338405666822 11.419607057732478 L 5.064979141133632 11.49997659220778 " stroke="#191919" stroke-width="0.35 px" style="stroke-width:0.35;stroke-miterlimit:4;stroke-dasharray:none;fill:none;fill-opacity:1;fill-rule: evenodd"/>
<path id="Shape2DView_nwe0085"  d="M 5.269338405666664 -11.419607057728308 L 5.064979141133538 -11.499976592204453 " stroke="#191919" stroke-width="0.35 px" style="stroke-width:0.35;stroke-miterlimit:4;stroke-dasharray:none;fill:none;fill-opacity:1;fill-rule: evenodd"/>
<path id="Shape2DView_nwe0086"  d="M 5.269349667847167 11.41961941830234 Q 5.594562532115904 11.161347875532435 5.930650332152679 11.41961941830219 " stroke="#191919" stroke-width="0.35 px" style="stroke-width:0.35;stroke-miterlimit:4;stroke-dasharray:none;fill:none;fill-opacity:1;fill-rule: evenodd"/>
<path id="Shape2DView_nwe0087"  d="M 5.269349667849238 -11.419619418300414 Q 5.594562532120021 -11.161347875533874 5.930650332151522 -11.419619418301117 " stroke="#191919" stroke-width="0.35 px" style="stroke-width:0.35;stroke-miterlimit:4;stroke-dasharray:none;fill:none;fill-opacity:1;fill-rule: evenodd"/>
<path id="Shape2DView_nwe0088"  d="M 6.1350208588662944 11.499976592207826 L 5.930661594333113 11.419607057732247 " stroke="#191919" stroke-width="0.35 px" style="stroke-width:0.35;stroke-miterlimit:4;stroke-dasharray:none;fill:none;fill-opacity:1;fill-rule: evenodd"/>
<path id="Shape2DView_nwe0089"  d="M 6.135020858866499 -11.499976592204385 L 5.930661594333378 -11.41960705772978 " stroke="#191919" stroke-width="0.35 px" style="stroke-width:0.35;stroke-miterlimit:4;stroke-dasharray:none;fill:none;fill-opacity:1;fill-rule: evenodd"/>
<path id="Shape2DView_nwe0090"  d="M 6.1350208588783435 -11.5 L 70.8 -11.5 " stroke="#191919" stroke-width="0.35 px" style="stroke-width:0.35;stroke-miterlimit:4;stroke-dasharray:none;fill:none;fill-opacity:1;fill-rule: evenodd"/>
<path id="Shape2DView_nwe0091"  d="M 6.135020858878139 11.5 L 70.8 11.5 " stroke="#191919" stroke-width="0.35 px" style="stroke-width:0.35;stroke-miterlimit:4;stroke-dasharray:none;fill:none;fill-opacity:1;fill-rule: evenodd"/>
<path id="Shape2DView_nwe0092"  d="M 70.8 11.499999999999998 Q 70.98054434370471 11.483885221205043 71.0 11.299999999999985 " stroke="#191919" stroke-width="0.35 px" style="stroke-width:0.35;stroke-miterlimit:4;stroke-dasharray:none;fill:none;fill-opacity:1;fill-rule: evenodd"/>
<path id="Shape2DView_nwe0093"  d="M 70.8 -11.5 Q 70.98054434370471 -11.48388522120504 71.0 -11.299999999999986 " stroke="#191919" stroke-width="0.35 px" style="stroke-width:0.35;stroke-miterlimit:4;stroke-dasharray:none;fill:none;fill-opacity:1;fill-rule: evenodd"/>
<path id="Shape2DView_nwe0094"  d="M 3.4333333333329996 -2.875 L 3.989999999999998 -2.875 " stroke="#191919" stroke-width="0.35 px" style="stroke-width:0.35;stroke-miterlimit:4;stroke-dasharray:none;fill:none;fill-opacity:1;fill-rule: evenodd"/>
<path id="Shape2DView_nwe0095"  d="M 3.4333333333329996 2.875 L 3.989999999999998 2.875 " stroke="#191919" stroke-width="0.35 px" style="stroke-width:0.35;stroke-miterlimit:4;stroke-dasharray:none;fill:none;fill-opacity:1;fill-rule: evenodd"/>
<path id="Shape2DView_nwe0096"  d="M 71.666666666667 2.875 L 71.01 2.875 " stroke="#191919" stroke-width="0.35 px" style="stroke-width:0.35;stroke-miterlimit:4;stroke-dasharray:none;fill:none;fill-opacity:1;fill-rule: evenodd"/>
<path id="Shape2DView_nwe0097"  d="M 71.666666666667 -2.875 L 71.01 -2.875 " stroke="#191919" stroke-width="0.35 px" style="stroke-width:0.35;stroke-miterlimit:4;stroke-dasharray:none;fill:none;fill-opacity:1;fill-rule: evenodd"/>
<path id="Shape2DView_nwe0098"  d="M 3.433333333333 -0.45 L 0.9 -0.45 " stroke="#191919" stroke-width="0.35 px" style="stroke-width:0.35;stroke-miterlimit:4;stroke-dasharray:none;fill:none;fill-opacity:1;fill-rule: evenodd"/>
<path id="Shape2DView_nwe0099"  d="M 74.1 -0.45 L 71.666666666667 -0.45 " stroke="#191919" stroke-width="0.35 px" style="stroke-width:0.35;stroke-miterlimit:4;stroke-dasharray:none;fill:none;fill-opacity:1;fill-rule: evenodd"/>
<path id="Shape2DView_nwe0100"  d="M 74.10000000000001 -0.4499999999999992 Q 74.91998567994904 -0.4499999999999997 75.0 -0.45000000000000007 " stroke="#191919" stroke-width="0.35 px" style="stroke-width:0.35;stroke-miterlimit:4;stroke-dasharray:none;fill:none;fill-opacity:1;fill-rule: evenodd"/>
<title>b'Shape2DView'</title>
</g>
<g id="Rectangle" transform="translate(1.205653,12.258934) scale(1,-1)">
<rect fill="#ff0000" id="origin" width="1" height="1" x="0" y="0" />
<title>b'Rectangle'</title>
</g>
</svg>