<?xml version="1.0"?>
<!DOCTYPE svg PUBLIC "-//W3C//DTD SVG 1.1//EN" "http://www.w3.org/Graphics/SVG/1.1/DTD/svg11.dtd">
<svg width="102.91130674642201mm" height="34.01786953705876mm" viewBox="0 0 102.91130674642201 34.01786953705876" xmlns="http://www.w3.org/2000/svg" version="1.1">
<g id="Shape2DView" transform="translate(1.455653,17.008935) scale(1,-1)">
<path id="Shape2DView_nwe0000"  d="M 3.7 6.126761752165 L 4.564979142851 6.126761752165 " stroke="#191919" stroke-width="0.35 px" style="stroke-width:0.35;stroke-miterlimit:4;stroke-dasharray:none;fill:none;fill-opacity:1;fill-rule: evenodd"/>
<path id="Shape2DView_nwe0001"  d="M 3.7 -6.126761752165 L 4.564979142851 -6.126761752165 " stroke="#191919" stroke-width="0.35 px" style="stroke-width:0.35;stroke-miterlimit:4;stroke-dasharray:none;fill:none;fill-opacity:1;fill-rule: evenodd"/>
<path id="Shape2DView_nwe0002"  d="M 4.564979142851 -6.126761752165 L 4.769338405373 -6.096005445434 " stroke="#191919" stroke-width="0.35 px" style="stroke-width:0.35;stroke-miterlimit:4;stroke-dasharray:none;fill:none;fill-opacity:1;fill-rule: evenodd"/>
<path id="Shape2DView_nwe0003"  d="M 4.769338405372421 -6.09600544543309 A 0.485412 0.185759 -180 0 0 5.43066 -6.09601" stroke="#191919" stroke-width="0.35 px" style="stroke-width:0.35;stroke-miterlimit:4;stroke-dasharray:none;fill:none;fill-opacity:1;fill-rule: evenodd"/>
<path id="Shape2DView_nwe0004"  d="M 5.430661594627 -6.096005445434 L 5.635020857149 -6.126761752165 " stroke="#191919" stroke-width="0.35 px" style="stroke-width:0.35;stroke-miterlimit:4;stroke-dasharray:none;fill:none;fill-opacity:1;fill-rule: evenodd"/>
<path id="Shape2DView_nwe0005"  d="M 5.635020857149 -6.126761752165 L 96.3 -6.126761752165 " stroke="#191919" stroke-width="0.35 px" style="stroke-width:0.35;stroke-miterlimit:4;stroke-dasharray:none;fill:none;fill-opacity:1;fill-rule: evenodd"/>
<path id="Shape2DView_nwe0006"  d="M 96.3 -6.126761752164675 A 0.21 0.0803635 5.26972e-15 0 1 96.51 -6.0464" stroke="#191919" stroke-width="0.35 px" style="stroke-width:0.35;stroke-miterlimit:4;stroke-dasharray:none;fill:none;fill-opacity:1;fill-rule: evenodd"/>
<path id="Shape2DView_nwe0007"  d="M 3.49 -6.046398231368 A 0.21 0.0803635 5.26972e-15 0 1 3.7 -6.12676" stroke="#191919" stroke-width="0.35 px" style="stroke-width:0.35;stroke-miterlimit:4;stroke-dasharray:none;fill:none;fill-opacity:1;fill-rule: evenodd"/>
<path id="Shape2DView_nwe0008"  d="M 4.564979142851 6.126761752165 L 4.769338405373 6.096005445434 " stroke="#191919" stroke-width="0.35 px" style="stroke-width:0.35;stroke-miterlimit:4;stroke-dasharray:none;fill:none;fill-opacity:1;fill-rule: evenodd"/>
<path id="Shape2DView_nwe0009"  d="M 3.489999999999997 -6.04639823136881 L 3.489999999999997 -5.218409178892029 L 3.4899999999999967 -4.374001080513005 L 3.4899999999999967 -3.515830756510147 L 3.4899999999999967 -2.6465983282152075 L 3.4899999999999967 -1.7690387224326276 L 3.4899999999999967 -0.8859130663479844 L 3.4899999999999967 -3.4283687000424834e-13 L 3.4899999999999967 0.8859130663472996 L 3.4899999999999967 1.7690387224319464 L 3.4899999999999967 2.646598328214533 L 3.4899999999999967 3.5158307565094775 L 3.4899999999999967 4.3740010805123495 L 3.489999999999997 5.218409178891385 L 3.489999999999997 6.046398231368176 " stroke="#191919" stroke-width="0.35 px" style="stroke-width:0.35;stroke-miterlimit:4;stroke-dasharray:none;fill:none;fill-opacity:1;fill-rule: evenodd"/>
<path id="Shape2DView_nwe0010"  d="M 3.49 6.046398231368 A 0.21 0.0803635 -5.26972e-15 0 0 3.7 6.12676" stroke="#191919" stroke-width="0.35 px" style="stroke-width:0.35;stroke-miterlimit:4;stroke-dasharray:none;fill:none;fill-opacity:1;fill-rule: evenodd"/>
<path id="Shape2DView_nwe0011"  d="M 4.769338405372421 6.09600544543309 A 0.485412 0.185759 180 0 1 5.43066 6.09601" stroke="#191919" stroke-width="0.35 px" style="stroke-width:0.35;stroke-miterlimit:4;stroke-dasharray:none;fill:none;fill-opacity:1;fill-rule: evenodd"/>
<path id="Shape2DView_nwe0012"  d="M 5.430661594627 6.096005445434 L 5.635020857149 6.126761752165 " stroke="#191919" stroke-width="0.35 px" style="stroke-width:0.35;stroke-miterlimit:4;stroke-dasharray:none;fill:none;fill-opacity:1;fill-rule: evenodd"/>
<path id="Shape2DView_nwe0013"  d="M 5.635020857149 6.126761752165 L 96.3 6.126761752165 " stroke="#191919" stroke-width="0.35 px" style="stroke-width:0.35;stroke-miterlimit:4;stroke-dasharray:none;fill:none;fill-opacity:1;fill-rule: evenodd"/>
<path id="Shape2DView_nwe0014"  d="M 96.3 6.126761752164675 A 0.21 0.0803635 -5.26972e-15 0 0 96.51 6.0464" stroke="#191919" stroke-width="0.35 px" style="stroke-width:0.35;stroke-miterlimit:4;stroke-dasharray:none;fill:none;fill-opacity:1;fill-rule: evenodd"/>
<path id="Shape2DView_nwe0015"  d="M 3.4999999999999964 6.070901926978406 L 3.4999999999999964 7.273793017079396 L 3.499999999999997 8.425353944847497 L 3.499999999999997 9.517458302338497 L 3.4999999999999973 10.54239925849151 L 3.4999999999999973 11.492943945181555 L 3.499999999999998 12.362384498580518 L 3.499999999999998 13.144585395634603 L 3.4999999999999982 13.834026751611269 L 3.4999999999999982 14.425843273170685 L 3.4999999999999987 14.91585859207531 L 3.499999999999999 15.300614737249273 L 3.499999999999999 15.577396537207216 L 3.4999999999999996 15.744250780648066 L 3.5 15.800000000000002 " stroke="#191919" stroke-width="0.35 px" style="stroke-width:0.35;stroke-miterlimit:4;stroke-dasharray:none;fill:none;fill-opacity:1;fill-rule: evenodd"/>
<path id="Shape2DView_nwe0016"  d="M 3.5 15.800000000000002 L 3.5 15.775300589183145 L 3.5000000000000004 15.701279579630661 L 3.5000000000000004 15.57816839859875 L 3.500000000000001 15.406351954142659 L 3.500000000000001 15.186367431698685 L 3.5000000000000013 14.91890261456976 L 3.5000000000000013 14.604793733565671 L 3.5000000000000013 14.245022852520993 L 3.5000000000000018 13.840714797864951 L 3.5000000000000018 13.393133641842926 L 3.500000000000002 12.903678750384849 L 3.500000000000002 12.373880407976852 L 3.500000000000002 11.805395033215035 L 3.5000000000000027 11.2 " stroke="#191919" stroke-width="0.35 px" style="stroke-width:0.35;stroke-miterlimit:4;stroke-dasharray:none;fill:none;fill-opacity:1;fill-rule: evenodd"/>
<path id="Shape2DView_nwe0017"  d="M 3.5000000000000027 -11.199999999999996 L 3.5000000000000027 -11.805395033215106 L 3.500000000000002 -12.373880407976976 L 3.500000000000002 -12.90367875038502 L 3.500000000000002 -13.393133641843134 L 3.5000000000000018 -13.840714797865186 L 3.5000000000000018 -14.245022852521245 L 3.5000000000000013 -14.604793733565927 L 3.5000000000000013 -14.918902614570012 L 3.5000000000000013 -15.186367431698924 L 3.500000000000001 -15.406351954142874 L 3.500000000000001 -15.57816839859893 L 3.5000000000000004 -15.701279579630793 L 3.5000000000000004 -15.775300589183217 L 3.5 -15.800000000000002 " stroke="#191919" stroke-width="0.35 px" style="stroke-width:0.35;stroke-miterlimit:4;stroke-dasharray:none;fill:none;fill-opacity:1;fill-rule: evenodd"/>
<path id="Shape2DView_nwe0018"  d="M 3.5 -15.800000000000002 L 3.5 -15.74425078064796 L 3.4999999999999996 -15.577396537207022 L 3.499999999999999 -15.300614737249008 L 3.4999999999999987 -14.915858592074992 L 3.4999999999999987 -14.425843273170331 L 3.4999999999999982 -13.8340267516109 L 3.4999999999999982 -13.144585395634236 L 3.499999999999998 -12.362384498580163 L 3.4999999999999973 -11.492943945181237 L 3.4999999999999973 -10.542399258491239 L 3.499999999999997 -9.517458302338284 L 3.499999999999997 -8.425353944847355 L 3.499999999999997 -7.273793017079339 L 3.4999999999999964 -6.070901926978412 " stroke="#191919" stroke-width="0.35 px" style="stroke-width:0.35;stroke-miterlimit:4;stroke-dasharray:none;fill:none;fill-opacity:1;fill-rule: evenodd"/>
<path id="Shape2DView_nwe0019"  d="M 96.5 6.070901926978407 L 96.5 7.27379301707942 L 96.5 8.425353944847542 L 96.5 9.51745830233856 L 96.5 10.542399258491589 L 96.5 11.492943945181647 L 96.5 12.362384498580614 L 96.5 13.144585395634708 L 96.5 13.834026751611372 L 96.5 14.42584327317078 L 96.5 14.915858592075395 L 96.5 15.300614737249344 L 96.5 15.577396537207271 L 96.5 15.744250780648096 L 96.5 15.8 " stroke="#191919" stroke-width="0.35 px" style="stroke-width:0.35;stroke-miterlimit:4;stroke-dasharray:none;fill:none;fill-opacity:1;fill-rule: evenodd"/>
<path id="Shape2DView_nwe0020"  d="M 96.5 15.8 L 96.5 15.775300589183129 L 96.5 15.701279579630624 L 96.5 15.5781683985987 L 96.5 15.406351954142602 L 96.5 15.18636743169862 L 96.5 14.91890261456969 L 96.5 14.604793733565604 L 96.5 14.245022852520927 L 96.5 13.840714797864893 L 96.5 13.393133641842876 L 96.5 12.90367875038481 L 96.5 12.373880407976827 L 96.5 11.805395033215028 L 96.5 11.2 " stroke="#191919" stroke-width="0.35 px" style="stroke-width:0.35;stroke-miterlimit:4;stroke-dasharray:none;fill:none;fill-opacity:1;fill-rule: evenodd"/>
<path id="Shape2DView_nwe0021"  d="M 96.5 -15.8 L 96.5 -15.744250780648095 L 96.5 -15.577396537207267 L 96.5 -15.300614737249342 L 96.5 -14.915858592075393 L 96.5 -14.425843273170777 L 96.5 -13.834026751611368 L 96.5 -13.144585395634703 L 96.5 -12.36238449858061 L 96.5 -11.492943945181638 L 96.5 -10.542399258491583 L 96.5 -9.517458302338554 L 96.5 -8.425353944847537 L 96.5 -7.27379301707941 L 96.5 -6.0709019269784115 " stroke="#191919" stroke-width="0.35 px" style="stroke-width:0.35;stroke-miterlimit:4;stroke-dasharray:none;fill:none;fill-opacity:1;fill-rule: evenodd"/>
<path id="Shape2DView_nwe0022"  d="M 96.51 -6.04639823136881 L 96.51 -5.218409178892029 L 96.51 -4.374001080513005 L 96.51 -3.515830756510147 L 96.51 -2.6465983282152075 L 96.51 -1.7690387224326276 L 96.51 -0.8859130663479844 L 96.51 -3.4283687000424834e-13 L 96.51 0.8859130663472996 L 96.51 1.7690387224319464 L 96.51 2.646598328214533 L 96.51 3.5158307565094775 L 96.51 4.3740010805123495 L 96.51 5.218409178891385 L 96.51 6.046398231368176 " stroke="#191919" stroke-width="0.35 px" style="stroke-width:0.35;stroke-miterlimit:4;stroke-dasharray:none;fill:none;fill-opacity:1;fill-rule: evenodd"/>
<path id="Shape2DView_nwe0023"  d="M 19.59 1.6 L 29.21 1.6 " stroke="#191919" stroke-width="0.35 px" style="stroke-width:0.35;stroke-miterlimit:4;stroke-dasharray:none;fill:none;fill-opacity:1;fill-rule: evenodd"/>
<path id="Shape2DView_nwe0024"  d="M 45.19 1.6 L 54.81 1.6 " stroke="#191919" stroke-width="0.35 px" style="stroke-width:0.35;stroke-miterlimit:4;stroke-dasharray:none;fill:none;fill-opacity:1;fill-rule: evenodd"/>
<path id="Shape2DView_nwe0025"  d="M 2.633333333333 4.0 L 2.633333333333 3.8997116487272945 L 2.6333333333329993 3.6038754716096766 L 2.6333333333329993 3.1273259298721197 L 2.633333333332999 2.4939592074349344 L 2.633333333332999 1.735534956470233 L 2.633333333332999 0.890083735825258 L 2.633333333332999 4.898587196589413e-16 L 2.633333333332999 -0.8900837358252571 L 2.633333333332999 -1.735534956470232 L 2.633333333332999 -2.4939592074349335 L 2.6333333333329993 -3.1273259298721188 L 2.6333333333329993 -3.603875471609676 L 2.633333333333 -3.8997116487272945 L 2.633333333333 -4.0 " stroke="#191919" stroke-width="0.35 px" style="stroke-width:0.35;stroke-miterlimit:4;stroke-dasharray:none;fill:none;fill-opacity:1;fill-rule: evenodd"/>
<path id="Shape2DView_nwe0026"  d="M 70.79 -1.6 C 70.10203748884545 -1.5895071039183932 69.26448084260781 -1.1487378774793662 69.2 -0.010000000000000009 " stroke="#191919" stroke-width="0.35 px" style="stroke-width:0.35;stroke-miterlimit:4;stroke-dasharray:none;fill:none;fill-opacity:1;fill-rule: evenodd"/>
<path id="Shape2DView_nwe0027"  d="M 69.2 0.010000000000009557 L 69.2 0.008571428719303498 L 69.2 0.007142857370351585 L 69.2 0.00571428596452872 L 69.2 0.004285714513208028 L 69.2 0.0028571430277644083 L 69.2 0.0014285715195736515 L 69.2 7.993605777301127e-15 L 69.2 -0.0014285715195576643 L 69.2 -0.0028571430277493093 L 69.2 -0.004285714513191152 L 69.2 -0.005714285964511845 L 69.2 -0.00714285737033471 L 69.2 -0.008571428719285734 L 69.2 -0.009999999999990905 " stroke="#191919" stroke-width="0.35 px" style="stroke-width:0.35;stroke-miterlimit:4;stroke-dasharray:none;fill:none;fill-opacity:1;fill-rule: evenodd"/>
<path id="Shape2DView_nwe0028"  d="M 70.79 1.6 C 70.10203748884551 1.589507103918393 69.26448084260781 1.1487378774793668 69.2 0.009999999999998899 " stroke="#191919" stroke-width="0.35 px" style="stroke-width:0.35;stroke-miterlimit:4;stroke-dasharray:none;fill:none;fill-opacity:1;fill-rule: evenodd"/>
<path id="Shape2DView_nwe0029"  d="M 70.79 1.6 L 80.41 1.6 " stroke="#191919" stroke-width="0.35 px" style="stroke-width:0.35;stroke-miterlimit:4;stroke-dasharray:none;fill:none;fill-opacity:1;fill-rule: evenodd"/>
<path id="Shape2DView_nwe0030"  d="M 80.41 1.6 C 81.09796252065885 1.5895071247349735 81.93551918330571 1.148737815823928 82.0 0.00999999999999912 " stroke="#191919" stroke-width="0.35 px" style="stroke-width:0.35;stroke-miterlimit:4;stroke-dasharray:none;fill:none;fill-opacity:1;fill-rule: evenodd"/>
<path id="Shape2DView_nwe0031"  d="M 82.0 0.010000000000009557 L 82.0 0.008571428719303498 L 82.0 0.007142857370351585 L 82.0 0.00571428596452872 L 82.0 0.004285714513208028 L 82.0 0.0028571430277644083 L 82.0 0.0014285715195736515 L 82.0 7.993605777301127e-15 L 82.0 -0.0014285715195576643 L 82.0 -0.0028571430277493093 L 82.0 -0.004285714513191152 L 82.0 -0.005714285964511845 L 82.0 -0.00714285737033471 L 82.0 -0.008571428719285734 L 82.0 -0.009999999999990905 " stroke="#191919" stroke-width="0.35 px" style="stroke-width:0.35;stroke-miterlimit:4;stroke-dasharray:none;fill:none;fill-opacity:1;fill-rule: evenodd"/>
<path id="Shape2DView_nwe0032"  d="M 80.41 -1.6 C 81.09796252065959 -1.589507124733044 81.93551918330448 -1.1487378158270447 82.0 -0.009999999999999787 " stroke="#191919" stroke-width="0.35 px" style="stroke-width:0.35;stroke-miterlimit:4;stroke-dasharray:none;fill:none;fill-opacity:1;fill-rule: evenodd"/>
<path id="Shape2DView_nwe0033"  d="M 70.79 -1.6 L 80.41 -1.6 " stroke="#191919" stroke-width="0.35 px" style="stroke-width:0.35;stroke-miterlimit:4;stroke-dasharray:none;fill:none;fill-opacity:1;fill-rule: evenodd"/>
<path id="Shape2DView_nwe0034"  d="M 19.59 -1.6 C 18.90203747934039 -1.5895071247329928 18.0644808166955 -1.1487378158271229 18.0 -0.010000000000000231 " stroke="#191919" stroke-width="0.35 px" style="stroke-width:0.35;stroke-miterlimit:4;stroke-dasharray:none;fill:none;fill-opacity:1;fill-rule: evenodd"/>
<path id="Shape2DView_nwe0035"  d="M 17.999999999999996 0.010000000000009557 L 17.999999999999996 0.008571428719303498 L 17.999999999999996 0.007142857370351585 L 17.999999999999996 0.00571428596452872 L 17.999999999999996 0.004285714513208028 L 17.999999999999996 0.0028571430277644083 L 17.999999999999996 0.0014285715195736515 L 17.999999999999996 7.993605777301127e-15 L 17.999999999999996 -0.0014285715195576643 L 17.999999999999996 -0.0028571430277493093 L 17.999999999999996 -0.004285714513191152 L 17.999999999999996 -0.005714285964511845 L 17.999999999999996 -0.00714285737033471 L 17.999999999999996 -0.008571428719285734 L 17.999999999999996 -0.009999999999990905 " stroke="#191919" stroke-width="0.35 px" style="stroke-width:0.35;stroke-miterlimit:4;stroke-dasharray:none;fill:none;fill-opacity:1;fill-rule: evenodd"/>
<path id="Shape2DView_nwe0036"  d="M 19.59 1.6 C 18.902037488845036 1.589507103918393 18.064480842608113 1.1487378774793668 18.0 0.009999999999998899 " stroke="#191919" stroke-width="0.35 px" style="stroke-width:0.35;stroke-miterlimit:4;stroke-dasharray:none;fill:none;fill-opacity:1;fill-rule: evenodd"/>
<path id="Shape2DView_nwe0038"  d="M 29.21 1.6 C 29.897962520660084 1.5895071247322208 30.735519183302962 1.148737815829325 30.8 0.00999999999999912 " stroke="#191919" stroke-width="0.35 px" style="stroke-width:0.35;stroke-miterlimit:4;stroke-dasharray:none;fill:none;fill-opacity:1;fill-rule: evenodd"/>
<path id="Shape2DView_nwe0039"  d="M 30.799999999999997 0.010000000000009557 L 30.799999999999997 0.008571428719303498 L 30.799999999999997 0.007142857370351585 L 30.799999999999997 0.00571428596452872 L 30.799999999999997 0.004285714513208028 L 30.799999999999997 0.0028571430277644083 L 30.799999999999997 0.0014285715195736515 L 30.799999999999997 7.993605777301127e-15 L 30.799999999999997 -0.0014285715195576643 L 30.799999999999997 -0.0028571430277493093 L 30.799999999999997 -0.004285714513191152 L 30.799999999999997 -0.005714285964511845 L 30.799999999999997 -0.00714285737033471 L 30.799999999999997 -0.008571428719285734 L 30.799999999999997 -0.009999999999990905 " stroke="#191919" stroke-width="0.35 px" style="stroke-width:0.35;stroke-miterlimit:4;stroke-dasharray:none;fill:none;fill-opacity:1;fill-rule: evenodd"/>
<path id="Shape2DView_nwe0040"  d="M 29.21 -1.6 C 29.89796252065893 -1.5895071247349746 30.735519183305694 -1.148737815823927 30.800000000000004 -0.010000000000000009 " stroke="#191919" stroke-width="0.35 px" style="stroke-width:0.35;stroke-miterlimit:4;stroke-dasharray:none;fill:none;fill-opacity:1;fill-rule: evenodd"/>
<path id="Shape2DView_nwe0041"  d="M 19.59 -1.6 L 29.21 -1.6 " stroke="#191919" stroke-width="0.35 px" style="stroke-width:0.35;stroke-miterlimit:4;stroke-dasharray:none;fill:none;fill-opacity:1;fill-rule: evenodd"/>
<path id="Shape2DView_nwe0042"  d="M 45.19 -1.6 C 44.50203748884836 -1.5895071039170692 43.66448084260982 -1.1487378774850832 43.599999999999994 -0.010000000000000009 " stroke="#191919" stroke-width="0.35 px" style="stroke-width:0.35;stroke-miterlimit:4;stroke-dasharray:none;fill:none;fill-opacity:1;fill-rule: evenodd"/>
<path id="Shape2DView_nwe0043"  d="M 43.599999999999994 0.010000000000009557 L 43.599999999999994 0.008571428719303498 L 43.599999999999994 0.007142857370351585 L 43.599999999999994 0.00571428596452872 L 43.599999999999994 0.004285714513208028 L 43.599999999999994 0.0028571430277644083 L 43.599999999999994 0.0014285715195736515 L 43.599999999999994 7.993605777301127e-15 L 43.599999999999994 -0.0014285715195576643 L 43.599999999999994 -0.0028571430277493093 L 43.599999999999994 -0.004285714513191152 L 43.599999999999994 -0.005714285964511845 L 43.599999999999994 -0.00714285737033471 L 43.599999999999994 -0.008571428719285734 L 43.599999999999994 -0.009999999999990905 " stroke="#191919" stroke-width="0.35 px" style="stroke-width:0.35;stroke-miterlimit:4;stroke-dasharray:none;fill:none;fill-opacity:1;fill-rule: evenodd"/>
<path id="Shape2DView_nwe0044"  d="M 45.19 1.6 C 44.50203747934041 1.5895071247329389 43.664480816695495 1.1487378158271973 43.6 0.009999999999998899 " stroke="#191919" stroke-width="0.35 px" style="stroke-width:0.35;stroke-miterlimit:4;stroke-dasharray:none;fill:none;fill-opacity:1;fill-rule: evenodd"/>
<path id="Shape2DView_nwe0046"  d="M 54.81 1.6 C 55.497962511154455 1.5895071039188673 56.335519157392156 1.1487378774790968 56.400000000000006 0.009999999999998899 " stroke="#191919" stroke-width="0.35 px" style="stroke-width:0.35;stroke-miterlimit:4;stroke-dasharray:none;fill:none;fill-opacity:1;fill-rule: evenodd"/>
<path id="Shape2DView_nwe0047"  d="M 56.39999999999999 0.010000000000009557 L 56.39999999999999 0.008571428719303498 L 56.39999999999999 0.007142857370351585 L 56.39999999999999 0.00571428596452872 L 56.39999999999999 0.004285714513208028 L 56.39999999999999 0.0028571430277644083 L 56.39999999999999 0.0014285715195736515 L 56.39999999999999 7.993605777301127e-15 L 56.39999999999999 -0.0014285715195576643 L 56.39999999999999 -0.0028571430277493093 L 56.39999999999999 -0.004285714513191152 L 56.39999999999999 -0.005714285964511845 L 56.39999999999999 -0.00714285737033471 L 56.39999999999999 -0.008571428719285734 L 56.39999999999999 -0.009999999999990905 " stroke="#191919" stroke-width="0.35 px" style="stroke-width:0.35;stroke-miterlimit:4;stroke-dasharray:none;fill:none;fill-opacity:1;fill-rule: evenodd"/>
<path id="Shape2DView_nwe0048"  d="M 54.81 -1.6 C 55.4979625206605 -1.589507124732148 56.335519183302694 -1.1487378158294272 56.400000000000006 -0.010000000000000009 " stroke="#191919" stroke-width="0.35 px" style="stroke-width:0.35;stroke-miterlimit:4;stroke-dasharray:none;fill:none;fill-opacity:1;fill-rule: evenodd"/>
<path id="Shape2DView_nwe0049"  d="M 45.19 -1.6 L 54.81 -1.6 " stroke="#191919" stroke-width="0.35 px" style="stroke-width:0.35;stroke-miterlimit:4;stroke-dasharray:none;fill:none;fill-opacity:1;fill-rule: evenodd"/>
<path id="Shape2DView_nwe0050"  d="M 97.466666666667 4.0 L 97.466666666667 3.8997116487272945 L 97.466666666667 3.6038754716096766 L 97.466666666667 3.1273259298721197 L 97.466666666667 2.4939592074349344 L 97.466666666667 1.735534956470233 L 97.466666666667 0.890083735825258 L 97.466666666667 4.898587196589413e-16 L 97.466666666667 -0.8900837358252571 L 97.466666666667 -1.735534956470232 L 97.466666666667 -2.4939592074349335 L 97.466666666667 -3.1273259298721188 L 97.466666666667 -3.603875471609676 L 97.466666666667 -3.8997116487272945 L 97.466666666667 -4.0 " stroke="#191919" stroke-width="0.35 px" style="stroke-width:0.35;stroke-miterlimit:4;stroke-dasharray:none;fill:none;fill-opacity:1;fill-rule: evenodd"/>
<path id="Shape2DView_nwe0051"  d="M 0.9 0.45 L 2.633333333333 0.45 " stroke="#191919" stroke-width="0.35 px" style="stroke-width:0.35;stroke-miterlimit:4;stroke-dasharray:none;fill:none;fill-opacity:1;fill-rule: evenodd"/>
<path id="Shape2DView_nwe0052"  d="M 0.0 -0.4500000000000001 L 0.00565901109608169 -0.4500000000000001 L 0.02256487903635873 -0.4500000000000001 L 0.05050500272246916 -0.4500000000000001 L 0.08912801888782274 -0.4500000000000001 L 0.13794822069454427 -0.4500000000000001 L 0.19635166577877317 -0.45000000000000007 L 0.2636038969321072 -0.45000000000000007 L 0.33885917832713974 -0.45000000000000007 L 0.4211711311361971 -0.45000000000000007 L 0.5095046347941976 -0.45000000000000007 L 0.6027488442403496 -0.45000000000000007 L 0.699731159439317 -0.45 L 0.7992319715070229 -0.45 L 0.9 -0.45 " stroke="#191919" stroke-width="0.35 px" style="stroke-width:0.35;stroke-miterlimit:4;stroke-dasharray:none;fill:none;fill-opacity:1;fill-rule: evenodd"/>
<circle cx="1.554312234475e-15" cy="0.0" r="0.45" stroke="#191919" stroke-width="0.35 px" style="stroke-width:0.35;stroke-miterlimit:4;stroke-dasharray:none;fill:none"/>
<path id="Shape2DView_nwe0054"  d="M 97.466666666667 0.45 L 99.1 0.45 " stroke="#191919" stroke-width="0.35 px" style="stroke-width:0.35;stroke-miterlimit:4;stroke-dasharray:none;fill:none;fill-opacity:1;fill-rule: evenodd"/>
<path id="Shape2DView_nwe0055"  d="M 100.0 0.45 L 99.99434098890391 0.45 L 99.97743512096363 0.45 L 99.94949499727753 0.45 L 99.91087198111217 0.45 L 99.86205177930545 0.45 L 99.80364833422122 0.45 L 99.73639610306789 0.45 L 99.66114082167286 0.45 L 99.5788288688638 0.45 L 99.4904953652058 0.45 L 99.39725115575965 0.45 L 99.30026884056068 0.45 L 99.20076802849297 0.45 L 99.1 0.45 " stroke="#191919" stroke-width="0.35 px" style="stroke-width:0.35;stroke-miterlimit:4;stroke-dasharray:none;fill:none;fill-opacity:1;fill-rule: evenodd"/>
<path id="Shape2DView_nwe0056"  d="M 100.0 -0.45 A 0.45 0.45 0 0 1 100 0.45" stroke="#191919" stroke-width="0.35 px" style="stroke-width:0.35;stroke-miterlimit:4;stroke-dasharray:none;fill:none;fill-opacity:1;fill-rule: evenodd"/>
<path id="Shape2DView_nwe0057"  d="M 4.564979142851 -6.126761754152062 C 4.564979142850999 -2.2555119963081403 4.564979142850999 2.255503488313055 4.564979142851 6.126761754152352 " stroke="#191919" stroke-width="0.35 px" style="stroke-width:0.35;stroke-miterlimit:4;stroke-dasharray:none;fill:none;fill-opacity:1;fill-rule: evenodd"/>
<path id="Shape2DView_nwe0058"  d="M 3.699999999999997 -6.126761752165485 L 3.6999999999999966 -5.287767781902615 L 3.6999999999999966 -4.43213653791222 L 3.6999999999999966 -3.562560152640963 L 3.6999999999999966 -2.6817746351091882 L 3.6999999999999966 -1.7925512624143023 L 3.6999999999999966 -0.8976878602677685 L 3.6999999999999966 -3.1175062531474396e-13 L 3.6999999999999966 0.8976878602671468 L 3.6999999999999966 1.7925512624136832 L 3.6999999999999966 2.681774635108571 L 3.6999999999999966 3.562560152640353 L 3.6999999999999966 4.432136537911618 L 3.6999999999999966 5.287767781902023 L 3.699999999999997 6.126761752164906 " stroke="#191919" stroke-width="0.35 px" style="stroke-width:0.35;stroke-miterlimit:4;stroke-dasharray:none;fill:none;fill-opacity:1;fill-rule: evenodd"/>
<path id="Shape2DView_nwe0059"  d="M 4.769338405373 -6.096005443456522 C 4.7693384053729995 -2.2441893647688707 4.7693384053729995 2.2441809212977226 4.769338405373001 6.096005443456778 " stroke="#191919" stroke-width="0.35 px" style="stroke-width:0.35;stroke-miterlimit:4;stroke-dasharray:none;fill:none;fill-opacity:1;fill-rule: evenodd"/>
<path id="Shape2DView_nwe0060"  d="M 3.6999999999999966 6.126761752165 L 3.6999999999999966 7.347127003235547 L 3.699999999999997 8.515519387114296 L 3.699999999999997 9.623673808864334 L 3.699999999999997 10.663751291078 L 3.6999999999999975 11.62839442604634 L 3.6999999999999975 12.510779421351021 L 3.699999999999998 13.304664370713192 L 3.6999999999999984 14.004433408635961 L 3.6999999999999984 14.605136436494803 L 3.699999999999999 15.102524139057405 L 3.6999999999999993 15.49307804372941 L 3.6999999999999993 15.77403540988992 L 3.6999999999999997 15.943408772251946 L 3.7 16.0 " stroke="#191919" stroke-width="0.35 px" style="stroke-width:0.35;stroke-miterlimit:4;stroke-dasharray:none;fill:none;fill-opacity:1;fill-rule: evenodd"/>
<path id="Shape2DView_nwe0061"  d="M 3.7 -16.0 L 3.7 -15.943408772251837 L 3.6999999999999997 -15.77403540988972 L 3.6999999999999993 -15.493078043729138 L 3.699999999999999 -15.102524139057074 L 3.699999999999999 -14.605136436494433 L 3.6999999999999984 -14.004433408635565 L 3.699999999999998 -13.304664370712793 L 3.699999999999998 -12.51077942135063 L 3.6999999999999975 -11.628394426045976 L 3.6999999999999975 -10.663751291077675 L 3.699999999999997 -9.623673808864059 L 3.699999999999997 -8.515519387114082 L 3.699999999999997 -7.347127003235407 L 3.6999999999999966 -6.126761752165006 " stroke="#191919" stroke-width="0.35 px" style="stroke-width:0.35;stroke-miterlimit:4;stroke-dasharray:none;fill:none;fill-opacity:1;fill-rule: evenodd"/>
<path id="Shape2DView_nwe0062"  d="M 4.56497914285101 6.126761752164997 C 4.564979140194369 11.969131966700127 4.564979126495581 16.086922868245242 4.564979141137027 16.000000388662183 " stroke="#191919" stroke-width="0.35 px" style="stroke-width:0.35;stroke-miterlimit:4;stroke-dasharray:none;fill:none;fill-opacity:1;fill-rule: evenodd"/>
<path id="Shape2DView_nwe0063"  d="M 4.564979141137117 -16.000000388658968 C 4.564979126495733 -16.08692286824154 4.5649791401942315 -11.969131966698201 4.564979142851 -6.12676175216523 " stroke="#191919" stroke-width="0.35 px" style="stroke-width:0.35;stroke-miterlimit:4;stroke-dasharray:none;fill:none;fill-opacity:1;fill-rule: evenodd"/>
<path id="Shape2DView_nwe0064"  d="M 4.769338405373 6.096005445434003 C 4.769338405823719 11.90904548537181 4.769338408147471 16.00612594598622 4.769338405663789 15.919630301296829 " stroke="#191919" stroke-width="0.35 px" style="stroke-width:0.35;stroke-miterlimit:4;stroke-dasharray:none;fill:none;fill-opacity:1;fill-rule: evenodd"/>
<path id="Shape2DView_nwe0065"  d="M 4.76933840566368 -15.919630301292774 C 4.769338408147258 -16.006125945981594 4.7693384058235955 -11.90904548536176 4.769338405373 -6.096005445430205 " stroke="#191919" stroke-width="0.35 px" style="stroke-width:0.35;stroke-miterlimit:4;stroke-dasharray:none;fill:none;fill-opacity:1;fill-rule: evenodd"/>
<path id="Shape2DView_nwe0066"  d="M 5.430661594627 6.0960054454340025 C 5.430661594176403 11.90904548537169 5.430661591852606 16.0061259459861 5.43066159433632 15.919630301296857 " stroke="#191919" stroke-width="0.35 px" style="stroke-width:0.35;stroke-miterlimit:4;stroke-dasharray:none;fill:none;fill-opacity:1;fill-rule: evenodd"/>
<path id="Shape2DView_nwe0067"  d="M 5.430661594336424 -15.919630301293829 C 5.430661591852712 -16.00612594598415 5.430661594176275 -11.90904548537163 5.430661594627001 -6.09600544543416 " stroke="#191919" stroke-width="0.35 px" style="stroke-width:0.35;stroke-miterlimit:4;stroke-dasharray:none;fill:none;fill-opacity:1;fill-rule: evenodd"/>
<path id="Shape2DView_nwe0068"  d="M 5.635020857148999 6.126761752164997 C 5.635020859805769 11.969131966699928 5.635020873504265 16.086922868245033 5.6350208588628234 16.000000388662144 " stroke="#191919" stroke-width="0.35 px" style="stroke-width:0.35;stroke-miterlimit:4;stroke-dasharray:none;fill:none;fill-opacity:1;fill-rule: evenodd"/>
<path id="Shape2DView_nwe0069"  d="M 5.635020858863032 -16.000000388657114 C 5.635020873504427 -16.0869228682409 5.635020859805617 -11.96913196669984 5.635020857148996 -6.126761752167965 " stroke="#191919" stroke-width="0.35 px" style="stroke-width:0.35;stroke-miterlimit:4;stroke-dasharray:none;fill:none;fill-opacity:1;fill-rule: evenodd"/>
<path id="Shape2DView_nwe0070"  d="M 96.3 6.126761752165 L 96.3 7.347127003235504 L 96.3 8.515519387114212 L 96.3 9.623673808864218 L 96.3 10.663751291077856 L 96.3 11.628394426046173 L 96.3 12.51077942135084 L 96.3 13.304664370713002 L 96.3 14.004433408635771 L 96.3 14.605136436494622 L 96.3 15.102524139057243 L 96.3 15.493078043729277 L 96.3 15.774035409889821 L 96.3 15.943408772251892 L 96.3 16.0 " stroke="#191919" stroke-width="0.35 px" style="stroke-width:0.35;stroke-miterlimit:4;stroke-dasharray:none;fill:none;fill-opacity:1;fill-rule: evenodd"/>
<path id="Shape2DView_nwe0071"  d="M 96.3 -16.0 L 96.3 -15.943408772251892 L 96.3 -15.774035409889825 L 96.3 -15.49307804372928 L 96.3 -15.102524139057248 L 96.3 -14.60513643649463 L 96.3 -14.004433408635778 L 96.3 -13.304664370713013 L 96.3 -12.510779421350854 L 96.3 -11.62839442604619 L 96.3 -10.663751291077874 L 96.3 -9.62367380886424 L 96.3 -8.515519387114239 L 96.3 -7.347127003235533 L 96.3 -6.126761752165005 " stroke="#191919" stroke-width="0.35 px" style="stroke-width:0.35;stroke-miterlimit:4;stroke-dasharray:none;fill:none;fill-opacity:1;fill-rule: evenodd"/>
<path id="Shape2DView_nwe0072"  d="M 96.3 -6.126761752165485 L 96.3 -5.287767781902615 L 96.3 -4.43213653791222 L 96.3 -3.562560152640963 L 96.3 -2.6817746351091882 L 96.3 -1.7925512624143023 L 96.3 -0.8976878602677685 L 96.3 -3.1175062531474396e-13 L 96.3 0.8976878602671468 L 96.3 1.7925512624136832 L 96.3 2.681774635108571 L 96.3 3.562560152640353 L 96.3 4.432136537911618 L 96.3 5.287767781902023 L 96.3 6.126761752164906 " stroke="#191919" stroke-width="0.35 px" style="stroke-width:0.35;stroke-miterlimit:4;stroke-dasharray:none;fill:none;fill-opacity:1;fill-rule: evenodd"/>
<path id="Shape2DView_nwe0073"  d="M 5.635020857149 -6.126761754152062 C 5.635020857148997 -2.2555119963081394 5.635020857149 2.255503488313054 5.635020857149 6.126761754152352 " stroke="#191919" stroke-width="0.35 px" style="stroke-width:0.35;stroke-miterlimit:4;stroke-dasharray:none;fill:none;fill-opacity:1;fill-rule: evenodd"/>
<path id="Shape2DView_nwe0074"  d="M 5.430661594627 -6.096005443456522 C 5.430661594626997 -2.2441893647688707 5.430661594627 2.2441809212977226 5.430661594627 6.096005443456778 " stroke="#191919" stroke-width="0.35 px" style="stroke-width:0.35;stroke-miterlimit:4;stroke-dasharray:none;fill:none;fill-opacity:1;fill-rule: evenodd"/>
<path id="Shape2DView_nwe0075"  d="M 0.9 0.45 L 0.8999999999999999 0.43871756048182065 L 0.8999999999999999 0.40543599055608864 L 0.8999999999999999 0.3518241671106135 L 0.8999999999999999 0.2805704108364302 L 0.8999999999999999 0.19524768260290123 L 0.8999999999999999 0.10013442028034157 L 0.9 8.266365894244634e-17 L 0.9 -0.1001344202803414 L 0.9 -0.1952476826029011 L 0.9 -0.28057041083643003 L 0.9 -0.3518241671106134 L 0.9 -0.4054359905560886 L 0.9 -0.4387175604818206 L 0.9 -0.45 " stroke="#191919" stroke-width="0.35 px" style="stroke-width:0.35;stroke-miterlimit:4;stroke-dasharray:none;fill:none;fill-opacity:1;fill-rule: evenodd"/>
<path id="Shape2DView_nwe0076"  d="M 99.1 -0.45 L 99.1 -0.43871756048182065 L 99.1 -0.40543599055608864 L 99.1 -0.3518241671106135 L 99.1 -0.2805704108364302 L 99.1 -0.19524768260290123 L 99.1 -0.10013442028034157 L 99.1 -8.266365894244634e-17 L 99.1 0.1001344202803414 L 99.1 0.1952476826029011 L 99.1 0.28057041083643003 L 99.1 0.3518241671106134 L 99.1 0.4054359905560886 L 99.1 0.4387175604818206 L 99.1 0.45 " stroke="#191919" stroke-width="0.35 px" style="stroke-width:0.35;stroke-miterlimit:4;stroke-dasharray:none;fill:none;fill-opacity:1;fill-rule: evenodd"/>
<path id="Shape2DView_nwe0077"  d="M 3.7 15.999999999999536 Q 3.5194556562952872 15.98388522120457 3.5000000000000036 15.799999999999534 " stroke="#191919" stroke-width="0.35 px" style="stroke-width:0.35;stroke-miterlimit:4;stroke-dasharray:none;fill:none;fill-opacity:1;fill-rule: evenodd"/>
<path id="Shape2DView_nwe0078"  d="M 3.7 -15.999999999999535 Q 3.5194556562952872 -15.98388522120457 3.5000000000000036 -15.799999999999534 " stroke="#191919" stroke-width="0.35 px" style="stroke-width:0.35;stroke-miterlimit:4;stroke-dasharray:none;fill:none;fill-opacity:1;fill-rule: evenodd"/>
<path id="Shape2DView_nwe0079"  d="M 3.6999999999999997 -16.0 L 4.56497914112532 -16.0 " stroke="#191919" stroke-width="0.35 px" style="stroke-width:0.35;stroke-miterlimit:4;stroke-dasharray:none;fill:none;fill-opacity:1;fill-rule: evenodd"/>
<path id="Shape2DView_nwe0080"  d="M 3.6999999999999997 16.0 L 4.564979141125226 16.0 " stroke="#191919" stroke-width="0.35 px" style="stroke-width:0.35;stroke-miterlimit:4;stroke-dasharray:none;fill:none;fill-opacity:1;fill-rule: evenodd"/>
<path id="Shape2DView_nwe0081"  d="M 4.769338405663881 15.919630301298865 L 4.564979141137034 16.000000388664187 " stroke="#191919" stroke-width="0.35 px" style="stroke-width:0.35;stroke-miterlimit:4;stroke-dasharray:none;fill:none;fill-opacity:1;fill-rule: evenodd"/>
<path id="Shape2DView_nwe0082"  d="M 4.769338405664027 -15.919630301294408 L 4.564979141137125 -16.0000003886608 " stroke="#191919" stroke-width="0.35 px" style="stroke-width:0.35;stroke-miterlimit:4;stroke-dasharray:none;fill:none;fill-opacity:1;fill-rule: evenodd"/>
<path id="Shape2DView_nwe0083"  d="M 4.769338223110752 15.919630066965667 Q 5.0945173857648305 15.661337773201854 5.430661776889323 15.919630066965729 " stroke="#191919" stroke-width="0.35 px" style="stroke-width:0.35;stroke-miterlimit:4;stroke-dasharray:none;fill:none;fill-opacity:1;fill-rule: evenodd"/>
<path id="Shape2DView_nwe0084"  d="M 4.769338223112713 -15.919630066963844 Q 5.094517385768784 -15.661337773203378 5.430661776887869 -15.919630066964375 " stroke="#191919" stroke-width="0.35 px" style="stroke-width:0.35;stroke-miterlimit:4;stroke-dasharray:none;fill:none;fill-opacity:1;fill-rule: evenodd"/>
<path id="Shape2DView_nwe0085"  d="M 5.6350208588628155 16.00000038866417 L 5.4306615943363195 15.919630301299001 " stroke="#191919" stroke-width="0.35 px" style="stroke-width:0.35;stroke-miterlimit:4;stroke-dasharray:none;fill:none;fill-opacity:1;fill-rule: evenodd"/>
<path id="Shape2DView_nwe0086"  d="M 5.635020858863028 -16.000000388658933 L 5.4306615943364225 -15.919630301295918 " stroke="#191919" stroke-width="0.35 px" style="stroke-width:0.35;stroke-miterlimit:4;stroke-dasharray:none;fill:none;fill-opacity:1;fill-rule: evenodd"/>
<path id="Shape2DView_nwe0087"  d="M 5.635020858874834 -16.0 L 96.30000000000001 -16.0 " stroke="#191919" stroke-width="0.35 px" style="stroke-width:0.35;stroke-miterlimit:4;stroke-dasharray:none;fill:none;fill-opacity:1;fill-rule: evenodd"/>
<path id="Shape2DView_nwe0088"  d="M 5.635020858874621 16.0 L 96.30000000000001 16.0 " stroke="#191919" stroke-width="0.35 px" style="stroke-width:0.35;stroke-miterlimit:4;stroke-dasharray:none;fill:none;fill-opacity:1;fill-rule: evenodd"/>
<path id="Shape2DView_nwe0089"  d="M 96.3 16.0 Q 96.48054434370471 15.98388522120504 96.5 15.799999999999986 " stroke="#191919" stroke-width="0.35 px" style="stroke-width:0.35;stroke-miterlimit:4;stroke-dasharray:none;fill:none;fill-opacity:1;fill-rule: evenodd"/>
<path id="Shape2DView_nwe0090"  d="M 96.3 -16.0 Q 96.48054434370471 -15.983885221205039 96.5 -15.79999999999999 " stroke="#191919" stroke-width="0.35 px" style="stroke-width:0.35;stroke-miterlimit:4;stroke-dasharray:none;fill:none;fill-opacity:1;fill-rule: evenodd"/>
<path id="Shape2DView_nwe0091"  d="M 2.633333333333 -4.0 L 3.4899999999999967 -4.0 " stroke="#191919" stroke-width="0.35 px" style="stroke-width:0.35;stroke-miterlimit:4;stroke-dasharray:none;fill:none;fill-opacity:1;fill-rule: evenodd"/>
<path id="Shape2DView_nwe0092"  d="M 2.633333333333 4.0 L 3.4899999999999967 4.0 " stroke="#191919" stroke-width="0.35 px" style="stroke-width:0.35;stroke-miterlimit:4;stroke-dasharray:none;fill:none;fill-opacity:1;fill-rule: evenodd"/>
<path id="Shape2DView_nwe0093"  d="M 97.466666666667 4.0 L 96.51 4.0 " stroke="#191919" stroke-width="0.35 px" style="stroke-width:0.35;stroke-miterlimit:4;stroke-dasharray:none;fill:none;fill-opacity:1;fill-rule: evenodd"/>
<path id="Shape2DView_nwe0094"  d="M 97.466666666667 -4.0 L 96.51 -4.0 " stroke="#191919" stroke-width="0.35 px" style="stroke-width:0.35;stroke-miterlimit:4;stroke-dasharray:none;fill:none;fill-opacity:1;fill-rule: evenodd"/>
<path id="Shape2DView_nwe0095"  d="M 2.633333333333 -0.45 L 0.9 -0.45 " stroke="#191919" stroke-width="0.35 px" style="stroke-width:0.35;stroke-miterlimit:4;stroke-dasharray:none;fill:none;fill-opacity:1;fill-rule: evenodd"/>
<path id="Shape2DView_nwe0096"  d="M 99.1 -0.45 L 97.466666666667 -0.45 " stroke="#191919" stroke-width="0.35 px" style="stroke-width:0.35;stroke-miterlimit:4;stroke-dasharray:none;fill:none;fill-opacity:1;fill-rule: evenodd"/>
<path id="Shape2DView_nwe0097"  d="M 99.1 -0.4499999999999987 Q 99.9199090035903 -0.44999999999999996 100.0 -0.45 " stroke="#191919" stroke-width="0.35 px" style="stroke-width:0.35;stroke-miterlimit:4;stroke-dasharray:none;fill:none;fill-opacity:1;fill-rule: evenodd"/>
<title>b'Shape2DView'</title>
</g>
<g id="Rectangle" transform="translate(1.455653,17.008935) scale(1,-1)">
<rect fill="#ff0000" id="origin" width="1" height="1" x="0" y="0" />
<title>b'Rectangle'</title>
</g>
</svg>