<?xml version="1.0"?>
<!DOCTYPE svg PUBLIC "-//W3C//DTD SVG 1.1//EN" "http://www.w3.org/Graphics/SVG/1.1/DTD/svg11.dtd">
<svg width="16.00879413610601mm" height="4.813897924237373mm" viewBox="0 0 16.00879413610601 4.813897924237373" xmlns="http://www.w3.org/2000/svg" version="1.1">
<g id="Shape2DView" transform="translate(0.504397,2.406949) scale(1,-1)">
<path id="Shape2DView_nwe0000"  d="M 2.7 0.864864557145 L 3.564979142851 0.864864557145 " stroke="#191919" stroke-width="0.35 px" style="stroke-width:0.35;stroke-miterlimit:4;stroke-dasharray:none;fill:none;fill-opacity:1;fill-rule: evenodd"/>
<path id="Shape2DView_nwe0001"  d="M 2.7 -0.864864557145 L 3.564979142851 -0.864864557145 " stroke="#191919" stroke-width="0.35 px" style="stroke-width:0.35;stroke-miterlimit:4;stroke-dasharray:none;fill:none;fill-opacity:1;fill-rule: evenodd"/>
<path id="Shape2DView_nwe0002"  d="M 3.564979142851 -0.864864557145 L 3.769338405373 -0.834108250414 " stroke="#191919" stroke-width="0.35 px" style="stroke-width:0.35;stroke-miterlimit:4;stroke-dasharray:none;fill:none;fill-opacity:1;fill-rule: evenodd"/>
<path id="Shape2DView_nwe0003"  d="M 3.7693384053726113 -0.8341082504140225 A 0.485412 0.185759 -180 0 0 4.43066 -0.834108" stroke="#191919" stroke-width="0.35 px" style="stroke-width:0.35;stroke-miterlimit:4;stroke-dasharray:none;fill:none;fill-opacity:1;fill-rule: evenodd"/>
<path id="Shape2DView_nwe0004"  d="M 4.430661594627 -0.834108250414 L 4.635020857149 -0.864864557145 " stroke="#191919" stroke-width="0.35 px" style="stroke-width:0.35;stroke-miterlimit:4;stroke-dasharray:none;fill:none;fill-opacity:1;fill-rule: evenodd"/>
<path id="Shape2DView_nwe0005"  d="M 4.635020857149 -0.864864557145 L 12.3 -0.864864557145 " stroke="#191919" stroke-width="0.35 px" style="stroke-width:0.35;stroke-miterlimit:4;stroke-dasharray:none;fill:none;fill-opacity:1;fill-rule: evenodd"/>
<path id="Shape2DView_nwe0006"  d="M 12.3 -0.864864557144674 A 0.21 0.0803635 5.26972e-15 0 1 12.51 -0.784501" stroke="#191919" stroke-width="0.35 px" style="stroke-width:0.35;stroke-miterlimit:4;stroke-dasharray:none;fill:none;fill-opacity:1;fill-rule: evenodd"/>
<path id="Shape2DView_nwe0007"  d="M 2.49 -0.784501036348 A 0.21 0.0803635 5.26972e-15 0 1 2.7 -0.864865" stroke="#191919" stroke-width="0.35 px" style="stroke-width:0.35;stroke-miterlimit:4;stroke-dasharray:none;fill:none;fill-opacity:1;fill-rule: evenodd"/>
<path id="Shape2DView_nwe0008"  d="M 3.564979142851 0.864864557145 L 3.769338405373 0.834108250414 " stroke="#191919" stroke-width="0.35 px" style="stroke-width:0.35;stroke-miterlimit:4;stroke-dasharray:none;fill:none;fill-opacity:1;fill-rule: evenodd"/>
<path id="Shape2DView_nwe0009"  d="M 2.4899999999999998 -0.7845010363484848 L 2.4899999999999998 -0.6770720770081642 L 2.4899999999999998 -0.5675127984210342 L 2.4899999999999998 -0.4561679146105592 L 2.4899999999999998 -0.3433877577748463 L 2.4899999999999998 -0.22952717601193973 L 2.4899999999999998 -0.11494441683642331 L 2.4899999999999998 -2.0128343436454088e-13 L 2.4899999999999998 0.11494441683602108 L 2.4899999999999998 0.2295271760115395 L 2.4899999999999998 0.3433877577744493 L 2.4899999999999998 0.4561679146101665 L 2.4899999999999998 0.5675127984206473 L 2.4899999999999998 0.6770720770077839 L 2.4899999999999998 0.7845010363481125 " stroke="#191919" stroke-width="0.35 px" style="stroke-width:0.35;stroke-miterlimit:4;stroke-dasharray:none;fill:none;fill-opacity:1;fill-rule: evenodd"/>
<path id="Shape2DView_nwe0010"  d="M 2.49 0.784501036348 A 0.21 0.0803635 -5.26972e-15 0 0 2.7 0.864865" stroke="#191919" stroke-width="0.35 px" style="stroke-width:0.35;stroke-miterlimit:4;stroke-dasharray:none;fill:none;fill-opacity:1;fill-rule: evenodd"/>
<path id="Shape2DView_nwe0011"  d="M 3.7693384053726113 0.8341082504140225 A 0.485412 0.185759 180 0 1 4.43066 0.834108" stroke="#191919" stroke-width="0.35 px" style="stroke-width:0.35;stroke-miterlimit:4;stroke-dasharray:none;fill:none;fill-opacity:1;fill-rule: evenodd"/>
<path id="Shape2DView_nwe0012"  d="M 4.430661594627 0.834108250414 L 4.635020857149 0.864864557145 " stroke="#191919" stroke-width="0.35 px" style="stroke-width:0.35;stroke-miterlimit:4;stroke-dasharray:none;fill:none;fill-opacity:1;fill-rule: evenodd"/>
<path id="Shape2DView_nwe0013"  d="M 4.635020857149 0.864864557145 L 12.3 0.864864557145 " stroke="#191919" stroke-width="0.35 px" style="stroke-width:0.35;stroke-miterlimit:4;stroke-dasharray:none;fill:none;fill-opacity:1;fill-rule: evenodd"/>
<path id="Shape2DView_nwe0014"  d="M 12.3 0.864864557144674 A 0.21 0.0803635 -5.26972e-15 0 0 12.51 0.784501" stroke="#191919" stroke-width="0.35 px" style="stroke-width:0.35;stroke-miterlimit:4;stroke-dasharray:none;fill:none;fill-opacity:1;fill-rule: evenodd"/>
<path id="Shape2DView_nwe0015"  d="M 2.4999999999999996 0.8090047319584098 L 2.4999999999999996 0.9627843462843624 L 2.4999999999999996 1.1098994741139379 L 2.4999999999999996 1.2493317702833235 L 2.4999999999999996 1.3801160709335871 L 2.4999999999999996 1.501347074468389 L 2.4999999999999996 1.6121856081393169 L 2.4999999999999996 1.7118644368809286 L 2.4999999999999996 1.7996935741861864 L 2.5 1.8750650582598882 L 2.5 1.9374571603890995 L 2.5 1.986437996399835 L 2.5 2.0216685162011427 L 2.5 2.042904850722672 L 2.5 2.05 " stroke="#191919" stroke-width="0.35 px" style="stroke-width:0.35;stroke-miterlimit:4;stroke-dasharray:none;fill:none;fill-opacity:1;fill-rule: evenodd"/>
<path id="Shape2DView_nwe0016"  d="M 2.5 2.05 L 2.5 2.047477206608355 L 2.5 2.039915035688571 L 2.5 2.0273320997233997 L 2.5 2.0097593686130386 L 2.5 1.9872400934500893 L 2.5 1.9598297000672995 L 2.5 1.9275956526200715 L 2.5 1.890617287539513 L 2.5 1.848985618264706 L 2.5 1.8028031112348004 L 2.5000000000000004 1.7521834336922775 L 2.5000000000000004 1.6972511739181049 L 2.5000000000000004 1.638141534587351 L 2.5000000000000004 1.575 " stroke="#191919" stroke-width="0.35 px" style="stroke-width:0.35;stroke-miterlimit:4;stroke-dasharray:none;fill:none;fill-opacity:1;fill-rule: evenodd"/>
<path id="Shape2DView_nwe0017"  d="M 2.5000000000000004 -1.575 L 2.5000000000000004 -1.6381415345873838 L 2.5000000000000004 -1.6972511739181666 L 2.5000000000000004 -1.752183433692363 L 2.5000000000000004 -1.8028031112349048 L 2.5000000000000004 -1.8489856182648248 L 2.5 -1.8906172875396408 L 2.5 -1.9275956526202025 L 2.5 -1.9598297000674287 L 2.5 -1.987240093450211 L 2.5 -2.009759368613147 L 2.5 -2.0273320997234894 L 2.5 -2.0399150356886357 L 2.5 -2.0474772066083906 L 2.5 -2.05 " stroke="#191919" stroke-width="0.35 px" style="stroke-width:0.35;stroke-miterlimit:4;stroke-dasharray:none;fill:none;fill-opacity:1;fill-rule: evenodd"/>
<path id="Shape2DView_nwe0018"  d="M 2.5 -2.05 L 2.5 -2.0429048507226124 L 2.5 -2.021668516201033 L 2.5 -1.9864379963996852 L 2.5 -1.93745716038892 L 2.5 -1.8750650582596888 L 2.5 -1.7996935741859768 L 2.4999999999999996 -1.7118644368807188 L 2.4999999999999996 -1.612185608139116 L 2.4999999999999996 -1.5013470744682058 L 2.4999999999999996 -1.3801160709334297 L 2.4999999999999996 -1.2493317702831996 L 2.4999999999999996 -1.1098994741138537 L 2.4999999999999996 -0.9627843462843233 L 2.4999999999999996 -0.8090047319584094 " stroke="#191919" stroke-width="0.35 px" style="stroke-width:0.35;stroke-miterlimit:4;stroke-dasharray:none;fill:none;fill-opacity:1;fill-rule: evenodd"/>
<path id="Shape2DView_nwe0019"  d="M 12.5 0.8090047319584114 L 12.5 0.9627843462843523 L 12.5 1.1098994741139168 L 12.5 1.2493317702832933 L 12.5 1.3801160709335492 L 12.5 1.5013470744683453 L 12.5 1.612185608139269 L 12.5 1.7118644368808782 L 12.5 1.7996935741861364 L 12.5 1.8750650582598407 L 12.5 1.937457160389057 L 12.5 1.9864379963997993 L 12.5 2.0216685162011165 L 12.5 2.042904850722658 L 12.5 2.05 " stroke="#191919" stroke-width="0.35 px" style="stroke-width:0.35;stroke-miterlimit:4;stroke-dasharray:none;fill:none;fill-opacity:1;fill-rule: evenodd"/>
<path id="Shape2DView_nwe0020"  d="M 12.5 -1.575 L 12.5 -1.6381415345873604 L 12.5 -1.6972511739181235 L 12.5 -1.7521834336923034 L 12.5 -1.802803111234832 L 12.5 -1.8489856182647422 L 12.5 -1.890617287539552 L 12.5 -1.9275956526201115 L 12.5 -1.9598297000673386 L 12.5 -1.9872400934501264 L 12.5 -2.0097593686130715 L 12.5 -2.027332099723427 L 12.5 -2.0399150356885905 L 12.5 -2.0474772066083657 L 12.5 -2.05 " stroke="#191919" stroke-width="0.35 px" style="stroke-width:0.35;stroke-miterlimit:4;stroke-dasharray:none;fill:none;fill-opacity:1;fill-rule: evenodd"/>
<path id="Shape2DView_nwe0021"  d="M 12.5 -2.05 L 12.5 -2.0429048507226537 L 12.5 -2.0216685162011085 L 12.5 -1.9864379963997894 L 12.5 -1.9374571603890447 L 12.5 -1.8750650582598278 L 12.5 -1.799693574186123 L 12.5 -1.7118644368808655 L 12.5 -1.6121856081392578 L 12.5 -1.501347074468336 L 12.5 -1.3801160709335427 L 12.5 -1.2493317702832902 L 12.5 -1.1098994741139177 L 12.5 -0.962784346284357 L 12.5 -0.8090047319584106 " stroke="#191919" stroke-width="0.35 px" style="stroke-width:0.35;stroke-miterlimit:4;stroke-dasharray:none;fill:none;fill-opacity:1;fill-rule: evenodd"/>
<path id="Shape2DView_nwe0022"  d="M 12.5 0.8090047319584114 L 12.5 0.9062720385560467 L 12.5 0.9986231928774434 L 12.5 1.0855572279742516 L 12.5 1.166602562537172 L 12.5 1.24131955903019 L 12.5 1.3093029085430046 L 12.5 1.3701838294248143 L 12.5 1.4236320677727747 L 12.5 1.4693576889233007 L 12.5 1.507112650228116 L 12.5 1.5366921465833876 L 12.5 1.557935721412999 L 12.5 1.570728137079341 L 12.5 1.575 " stroke="#191919" stroke-width="0.35 px" style="stroke-width:0.35;stroke-miterlimit:4;stroke-dasharray:none;fill:none;fill-opacity:1;fill-rule: evenodd"/>
<path id="Shape2DView_nwe0023"  d="M 12.51 -0.7845010363484848 L 12.51 -0.6770720770081642 L 12.51 -0.5675127984210342 L 12.51 -0.4561679146105592 L 12.51 -0.3433877577748463 L 12.51 -0.22952717601193973 L 12.51 -0.11494441683642331 L 12.51 -2.0128343436454088e-13 L 12.51 0.11494441683602108 L 12.51 0.2295271760115395 L 12.51 0.3433877577744493 L 12.51 0.4561679146101665 L 12.51 0.5675127984206473 L 12.51 0.6770720770077839 L 12.51 0.7845010363481125 " stroke="#191919" stroke-width="0.35 px" style="stroke-width:0.35;stroke-miterlimit:4;stroke-dasharray:none;fill:none;fill-opacity:1;fill-rule: evenodd"/>
<path id="Shape2DView_nwe0024"  d="M 8.615 0.225 Q 8.42502732794112 0.21196751908577988 8.4 0.010000000000000009 " stroke="#191919" stroke-width="0.35 px" style="stroke-width:0.35;stroke-miterlimit:4;stroke-dasharray:none;fill:none;fill-opacity:1;fill-rule: evenodd"/>
<path id="Shape2DView_nwe0025"  d="M 9.985 0.225 Q 10.174972672058834 0.21196751908605044 10.2 0.009999999999999981 " stroke="#191919" stroke-width="0.35 px" style="stroke-width:0.35;stroke-miterlimit:4;stroke-dasharray:none;fill:none;fill-opacity:1;fill-rule: evenodd"/>
<path id="Shape2DView_nwe0026"  d="M 9.985 -0.225 Q 10.174972672058866 -0.21196751908581685 10.2 -0.010000000000000009 " stroke="#191919" stroke-width="0.35 px" style="stroke-width:0.35;stroke-miterlimit:4;stroke-dasharray:none;fill:none;fill-opacity:1;fill-rule: evenodd"/>
<path id="Shape2DView_nwe0027"  d="M 8.615 -0.225 Q 8.425027327940803 -0.2119675190857656 8.4 -0.010000000000000009 " stroke="#191919" stroke-width="0.35 px" style="stroke-width:0.35;stroke-miterlimit:4;stroke-dasharray:none;fill:none;fill-opacity:1;fill-rule: evenodd"/>
<path id="Shape2DView_nwe0028"  d="M 5.015 0.225 Q 4.825027327941408 0.2119675190859559 4.8 0.009999999999999981 " stroke="#191919" stroke-width="0.35 px" style="stroke-width:0.35;stroke-miterlimit:4;stroke-dasharray:none;fill:none;fill-opacity:1;fill-rule: evenodd"/>
<path id="Shape2DView_nwe0029"  d="M 6.385 0.225 Q 6.574972672059197 0.2119675190860688 6.6 0.009999999999999981 " stroke="#191919" stroke-width="0.35 px" style="stroke-width:0.35;stroke-miterlimit:4;stroke-dasharray:none;fill:none;fill-opacity:1;fill-rule: evenodd"/>
<path id="Shape2DView_nwe0030"  d="M 6.385 -0.225 Q 6.574972672059197 -0.21196751908573847 6.6 -0.009999999999999981 " stroke="#191919" stroke-width="0.35 px" style="stroke-width:0.35;stroke-miterlimit:4;stroke-dasharray:none;fill:none;fill-opacity:1;fill-rule: evenodd"/>
<path id="Shape2DView_nwe0031"  d="M 5.015 -0.225 Q 4.825027327940816 -0.21196751908611366 4.8 -0.009999999999999981 " stroke="#191919" stroke-width="0.35 px" style="stroke-width:0.35;stroke-miterlimit:4;stroke-dasharray:none;fill:none;fill-opacity:1;fill-rule: evenodd"/>
<path id="Shape2DView_nwe0033"  d="M 8.4 0.010000000000000009 L 8.4 0.008571435991973742 L 8.4 0.007142868559082416 L 8.4 0.005714298272135099 L 8.4 0.004285725701941301 L 8.4 0.0028571514193120873 L 8.4 0.001428575995058634 L 8.4 -6.772360450213455e-15 L 8.4 -0.0014285759950722898 L 8.4 -0.002857151419325632 L 8.4 -0.004285725701954957 L 8.4 -0.0057142982721488655 L 8.4 -0.007142868559096294 L 8.4 -0.008571435991987286 L 8.4 -0.009999999999999454 " stroke="#191919" stroke-width="0.35 px" style="stroke-width:0.35;stroke-miterlimit:4;stroke-dasharray:none;fill:none;fill-opacity:1;fill-rule: evenodd"/>
<path id="Shape2DView_nwe0035"  d="M 8.615 0.225 L 9.985 0.225 " stroke="#191919" stroke-width="0.35 px" style="stroke-width:0.35;stroke-miterlimit:4;stroke-dasharray:none;fill:none;fill-opacity:1;fill-rule: evenodd"/>
<path id="Shape2DView_nwe0037"  d="M 10.2 0.010000000000000009 L 10.2 0.008571435991973742 L 10.2 0.007142868559082416 L 10.2 0.005714298272135099 L 10.2 0.004285725701941301 L 10.2 0.0028571514193120873 L 10.2 0.001428575995058634 L 10.2 -6.772360450213455e-15 L 10.2 -0.0014285759950722898 L 10.2 -0.002857151419325632 L 10.2 -0.004285725701954957 L 10.2 -0.0057142982721488655 L 10.2 -0.007142868559096294 L 10.2 -0.008571435991987286 L 10.2 -0.009999999999999454 " stroke="#191919" stroke-width="0.35 px" style="stroke-width:0.35;stroke-miterlimit:4;stroke-dasharray:none;fill:none;fill-opacity:1;fill-rule: evenodd"/>
<path id="Shape2DView_nwe0039"  d="M 8.615 -0.225 L 9.985 -0.225 " stroke="#191919" stroke-width="0.35 px" style="stroke-width:0.35;stroke-miterlimit:4;stroke-dasharray:none;fill:none;fill-opacity:1;fill-rule: evenodd"/>
<path id="Shape2DView_nwe0041"  d="M 4.799999999999999 0.010000000000000009 L 4.799999999999999 0.008571435991973742 L 4.799999999999999 0.007142868559082416 L 4.799999999999999 0.005714298272135099 L 4.799999999999999 0.004285725701941301 L 4.799999999999999 0.0028571514193120873 L 4.799999999999999 0.001428575995058634 L 4.799999999999999 -6.772360450213455e-15 L 4.799999999999999 -0.0014285759950722898 L 4.799999999999999 -0.002857151419325632 L 4.799999999999999 -0.004285725701954957 L 4.799999999999999 -0.0057142982721488655 L 4.799999999999999 -0.007142868559096294 L 4.799999999999999 -0.008571435991987286 L 4.799999999999999 -0.009999999999999454 " stroke="#191919" stroke-width="0.35 px" style="stroke-width:0.35;stroke-miterlimit:4;stroke-dasharray:none;fill:none;fill-opacity:1;fill-rule: evenodd"/>
<path id="Shape2DView_nwe0043"  d="M 5.015 0.225 L 6.385 0.225 " stroke="#191919" stroke-width="0.35 px" style="stroke-width:0.35;stroke-miterlimit:4;stroke-dasharray:none;fill:none;fill-opacity:1;fill-rule: evenodd"/>
<path id="Shape2DView_nwe0045"  d="M 6.599999999999999 0.010000000000000009 L 6.599999999999999 0.008571435991973742 L 6.599999999999999 0.007142868559082416 L 6.599999999999999 0.005714298272135099 L 6.599999999999999 0.004285725701941301 L 6.599999999999999 0.0028571514193120873 L 6.599999999999999 0.001428575995058634 L 6.599999999999999 -6.772360450213455e-15 L 6.599999999999999 -0.0014285759950722898 L 6.599999999999999 -0.002857151419325632 L 6.599999999999999 -0.004285725701954957 L 6.599999999999999 -0.0057142982721488655 L 6.599999999999999 -0.007142868559096294 L 6.599999999999999 -0.008571435991987286 L 6.599999999999999 -0.009999999999999454 " stroke="#191919" stroke-width="0.35 px" style="stroke-width:0.35;stroke-miterlimit:4;stroke-dasharray:none;fill:none;fill-opacity:1;fill-rule: evenodd"/>
<path id="Shape2DView_nwe0047"  d="M 5.015 -0.225 L 6.385 -0.225 " stroke="#191919" stroke-width="0.35 px" style="stroke-width:0.35;stroke-miterlimit:4;stroke-dasharray:none;fill:none;fill-opacity:1;fill-rule: evenodd"/>
<path id="Shape2DView_nwe0048"  d="M 12.55 0.5625 L 12.55 0.5483969506022758 L 12.55 0.5067949881951108 L 12.55 0.43978020888826685 L 12.55 0.35071301354553763 L 12.55 0.2440596032536265 L 12.55 0.1251680253504269 L 12.55 6.888638245203862e-17 L 12.55 -0.1251680253504268 L 12.55 -0.24405960325362638 L 12.55 -0.3507130135455375 L 12.55 -0.4397802088882667 L 12.55 -0.5067949881951107 L 12.55 -0.5483969506022758 L 12.55 -0.5625 " stroke="#191919" stroke-width="0.35 px" style="stroke-width:0.35;stroke-miterlimit:4;stroke-dasharray:none;fill:none;fill-opacity:1;fill-rule: evenodd"/>
<path id="Shape2DView_nwe0049"  d="M 0.7 0.35 L 2.4899999999999998 0.35 " stroke="#191919" stroke-width="0.35 px" style="stroke-width:0.35;stroke-miterlimit:4;stroke-dasharray:none;fill:none;fill-opacity:1;fill-rule: evenodd"/>
<path id="Shape2DView_nwe0050"  d="M 0.0 -0.35000000000000003 L 0.004401453074730166 -0.35000000000000003 L 0.017550461472723433 -0.35000000000000003 L 0.03928166878414274 -0.35000000000000003 L 0.06932179246830661 -0.35000000000000003 L 0.10729306054020116 -0.35000000000000003 L 0.1527179622723791 -0.35000000000000003 L 0.20502525316941667 -0.35000000000000003 L 0.2635571386988865 -0.35000000000000003 L 0.3275775464392644 -0.35000000000000003 L 0.39628138261770923 -0.35000000000000003 L 0.46880465663138293 -0.35 L 0.5442353462305798 -0.35 L 0.6216248667276845 -0.35 L 0.7 -0.35 " stroke="#191919" stroke-width="0.35 px" style="stroke-width:0.35;stroke-miterlimit:4;stroke-dasharray:none;fill:none;fill-opacity:1;fill-rule: evenodd"/>
<circle cx="5.551115123126e-17" cy="0.0" r="0.35" stroke="#191919" stroke-width="0.35 px" style="stroke-width:0.35;stroke-miterlimit:4;stroke-dasharray:none;fill:none"/>
<path id="Shape2DView_nwe0052"  d="M 12.55 0.35 L 14.3 0.35 " stroke="#191919" stroke-width="0.35 px" style="stroke-width:0.35;stroke-miterlimit:4;stroke-dasharray:none;fill:none;fill-opacity:1;fill-rule: evenodd"/>
<path id="Shape2DView_nwe0053"  d="M 15.0 0.35 L 14.99559854692527 0.35 L 14.982449538527277 0.35 L 14.960718331215858 0.35 L 14.930678207531694 0.35 L 14.8927069394598 0.35 L 14.847282037727622 0.35 L 14.794974746830585 0.35 L 14.736442861301114 0.35 L 14.672422453560737 0.35 L 14.603718617382292 0.35 L 14.531195343368617 0.35 L 14.455764653769421 0.35 L 14.378375133272316 0.35 L 14.3 0.35 " stroke="#191919" stroke-width="0.35 px" style="stroke-width:0.35;stroke-miterlimit:4;stroke-dasharray:none;fill:none;fill-opacity:1;fill-rule: evenodd"/>
<path id="Shape2DView_nwe0054"  d="M 15.0 -0.35 A 0.35 0.35 0 0 1 15 0.35" stroke="#191919" stroke-width="0.35 px" style="stroke-width:0.35;stroke-miterlimit:4;stroke-dasharray:none;fill:none;fill-opacity:1;fill-rule: evenodd"/>
<path id="Shape2DView_nwe0055"  d="M 3.564979142851 -0.8648645591946311 L 3.564979142851 0.8648645591954425 " stroke="#191919" stroke-width="0.35 px" style="stroke-width:0.35;stroke-miterlimit:4;stroke-dasharray:none;fill:none;fill-opacity:1;fill-rule: evenodd"/>
<path id="Shape2DView_nwe0056"  d="M 2.6999999999999997 -0.8648645571451588 L 2.6999999999999997 -0.7464306800187497 L 2.6999999999999997 -0.6256482558202483 L 2.6999999999999997 -0.5028973107413761 L 2.6999999999999997 -0.3785640646688267 L 2.6999999999999997 -0.25303971599361497 L 2.6999999999999997 -0.1267192107562093 L 2.6999999999999997 -1.7197354651443675e-13 L 2.6999999999999997 0.12671921075586579 L 2.6999999999999997 0.25303971599327324 L 2.6999999999999997 0.3785640646684878 L 2.6999999999999997 0.5028973107410409 L 2.6999999999999997 0.6256482558199179 L 2.6999999999999997 0.7464306800184255 L 2.6999999999999997 0.864864557144841 " stroke="#191919" stroke-width="0.35 px" style="stroke-width:0.35;stroke-miterlimit:4;stroke-dasharray:none;fill:none;fill-opacity:1;fill-rule: evenodd"/>
<path id="Shape2DView_nwe0057"  d="M 3.769338405373 -0.834108248436797 L 3.769338405373 0.8341082484366272 " stroke="#191919" stroke-width="0.35 px" style="stroke-width:0.35;stroke-miterlimit:4;stroke-dasharray:none;fill:none;fill-opacity:1;fill-rule: evenodd"/>
<path id="Shape2DView_nwe0058"  d="M 2.6999999999999997 0.864864557145 L 2.6999999999999997 1.0361261898652194 L 2.6999999999999997 1.200078039471178 L 2.6999999999999997 1.3555634394549505 L 2.6999999999999997 1.5014854533985282 L 2.6999999999999997 1.6368146137679784 L 2.6999999999999997 1.7605961847203009 L 2.6999999999999997 1.871956897684491 L 2.6999999999999997 1.9701111121978523 L 2.6999999999999997 2.0543663585333753 L 2.7 2.124128223015414 L 2.7 2.1789045415581665 L 2.7 2.2183088718419017 L 2.7 2.24206321963102 L 2.7 2.25 " stroke="#191919" stroke-width="0.35 px" style="stroke-width:0.35;stroke-miterlimit:4;stroke-dasharray:none;fill:none;fill-opacity:1;fill-rule: evenodd"/>
<path id="Shape2DView_nwe0059"  d="M 2.7 -2.25 L 2.7 -2.242063219630957 L 2.7 -2.218308871841786 L 2.7 -2.178904541558008 L 2.7 -2.1241282230152234 L 2.7 -2.054366358533163 L 2.6999999999999997 -1.970111112197628 L 2.6999999999999997 -1.8719568976842653 L 2.6999999999999997 -1.760596184720083 L 2.6999999999999997 -1.636814613767777 L 2.6999999999999997 -1.5014854533983522 L 2.6999999999999997 -1.3555634394548075 L 2.6999999999999997 -1.2000780394710748 L 2.6999999999999997 -1.0361261898651617 L 2.6999999999999997 -0.8648645571450002 " stroke="#191919" stroke-width="0.35 px" style="stroke-width:0.35;stroke-miterlimit:4;stroke-dasharray:none;fill:none;fill-opacity:1;fill-rule: evenodd"/>
<path id="Shape2DView_nwe0060"  d="M 3.5649791428505 0.8648645571450003 Q 3.564979129576006 2.1815152774634234 3.5649791398656974 2.2499954202145327 " stroke="#191919" stroke-width="0.35 px" style="stroke-width:0.35;stroke-miterlimit:4;stroke-dasharray:none;fill:none;fill-opacity:1;fill-rule: evenodd"/>
<path id="Shape2DView_nwe0061"  d="M 3.5649791398658386 -2.2499954202143644 Q 3.564979129576177 -2.1815152774633235 3.564979142850501 -0.8648645571451314 " stroke="#191919" stroke-width="0.35 px" style="stroke-width:0.35;stroke-miterlimit:4;stroke-dasharray:none;fill:none;fill-opacity:1;fill-rule: evenodd"/>
<path id="Shape2DView_nwe0062"  d="M 3.769338405373105 0.8341082504140013 Q 3.7693384079576857 2.1036338409265527 3.7693384059541266 2.169625885619323 " stroke="#191919" stroke-width="0.35 px" style="stroke-width:0.35;stroke-miterlimit:4;stroke-dasharray:none;fill:none;fill-opacity:1;fill-rule: evenodd"/>
<path id="Shape2DView_nwe0063"  d="M 3.7693384059541253 -2.169625885619156 Q 3.7693384079578007 -2.10363384092644 3.769338405373104 -0.8341082504142381 " stroke="#191919" stroke-width="0.35 px" style="stroke-width:0.35;stroke-miterlimit:4;stroke-dasharray:none;fill:none;fill-opacity:1;fill-rule: evenodd"/>
<path id="Shape2DView_nwe0064"  d="M 4.430661594626897 0.8341082504140013 Q 4.430661592041975 2.103633840926432 4.43066159404564 2.1696258856191672 " stroke="#191919" stroke-width="0.35 px" style="stroke-width:0.35;stroke-miterlimit:4;stroke-dasharray:none;fill:none;fill-opacity:1;fill-rule: evenodd"/>
<path id="Shape2DView_nwe0065"  d="M 4.430661594045927 -2.1696258856191677 Q 4.430661592042325 -2.1036338409264834 4.430661594626897 -0.8341082504142008 " stroke="#191919" stroke-width="0.35 px" style="stroke-width:0.35;stroke-miterlimit:4;stroke-dasharray:none;fill:none;fill-opacity:1;fill-rule: evenodd"/>
<path id="Shape2DView_nwe0066"  d="M 4.635020857149501 0.8648645571450003 Q 4.6350208704236255 2.1815152774634057 4.63502086013421 2.249995420214522 " stroke="#191919" stroke-width="0.35 px" style="stroke-width:0.35;stroke-miterlimit:4;stroke-dasharray:none;fill:none;fill-opacity:1;fill-rule: evenodd"/>
<path id="Shape2DView_nwe0067"  d="M 4.6350208601342615 -2.2499954202145225 Q 4.635020870423924 -2.181515277463454 4.6350208571495 -0.8648645571452993 " stroke="#191919" stroke-width="0.35 px" style="stroke-width:0.35;stroke-miterlimit:4;stroke-dasharray:none;fill:none;fill-opacity:1;fill-rule: evenodd"/>
<path id="Shape2DView_nwe0068"  d="M 12.3 0.864864557145 L 12.3 1.036126189865194 L 12.3 1.200078039471129 L 12.3 1.3555634394548812 L 12.3 1.501485453398442 L 12.3 1.6368146137678794 L 12.3 1.7605961847201932 L 12.3 1.8719568976843792 L 12.3 1.9701111121977413 L 12.3 2.0543663585332697 L 12.3 2.1241282230153193 L 12.3 2.1789045415580874 L 12.3 2.218308871841844 L 12.3 2.2420632196309884 L 12.3 2.25 " stroke="#191919" stroke-width="0.35 px" style="stroke-width:0.35;stroke-miterlimit:4;stroke-dasharray:none;fill:none;fill-opacity:1;fill-rule: evenodd"/>
<path id="Shape2DView_nwe0069"  d="M 12.3 -2.2499999999999996 L 12.3 -2.2420632196309884 L 12.3 -2.218308871841844 L 12.3 -2.178904541558088 L 12.3 -2.12412822301532 L 12.3 -2.0543663585332705 L 12.3 -1.9701111121977422 L 12.3 -1.8719568976843806 L 12.3 -1.7605961847201947 L 12.3 -1.6368146137678818 L 12.3 -1.5014854533984447 L 12.3 -1.3555634394548841 L 12.3 -1.2000780394711321 L 12.3 -1.0361261898651974 L 12.3 -0.8648645571450001 " stroke="#191919" stroke-width="0.35 px" style="stroke-width:0.35;stroke-miterlimit:4;stroke-dasharray:none;fill:none;fill-opacity:1;fill-rule: evenodd"/>
<path id="Shape2DView_nwe0070"  d="M 12.3 -0.8648645571451588 L 12.3 -0.7464306800187497 L 12.3 -0.6256482558202483 L 12.3 -0.5028973107413761 L 12.3 -0.3785640646688267 L 12.3 -0.25303971599361497 L 12.3 -0.1267192107562093 L 12.3 -1.7197354651443675e-13 L 12.3 0.12671921075586579 L 12.3 0.25303971599327324 L 12.3 0.3785640646684878 L 12.3 0.5028973107410409 L 12.3 0.6256482558199179 L 12.3 0.7464306800184255 L 12.3 0.864864557144841 " stroke="#191919" stroke-width="0.35 px" style="stroke-width:0.35;stroke-miterlimit:4;stroke-dasharray:none;fill:none;fill-opacity:1;fill-rule: evenodd"/>
<path id="Shape2DView_nwe0071"  d="M 4.635020857149 -0.8648645591946311 L 4.635020857149 0.8648645591954425 " stroke="#191919" stroke-width="0.35 px" style="stroke-width:0.35;stroke-miterlimit:4;stroke-dasharray:none;fill:none;fill-opacity:1;fill-rule: evenodd"/>
<path id="Shape2DView_nwe0072"  d="M 4.430661594627 -0.834108248436797 L 4.430661594627 0.8341082484366272 " stroke="#191919" stroke-width="0.35 px" style="stroke-width:0.35;stroke-miterlimit:4;stroke-dasharray:none;fill:none;fill-opacity:1;fill-rule: evenodd"/>
<path id="Shape2DView_nwe0073"  d="M 0.7 0.35 L 0.7 0.34122476926363826 L 0.7 0.3153391037658467 L 0.7 0.2736410188638104 L 0.7 0.2182214306505568 L 0.7 0.1518593086911454 L 0.7 0.0778823268847101 L 0.7 6.429395695523604e-17 L 0.7 -0.07788232688470997 L 0.7 -0.15185930869114528 L 0.7 -0.21822143065055666 L 0.7 -0.27364101886381037 L 0.7 -0.3153391037658466 L 0.7 -0.3412247692636382 L 0.7 -0.35 " stroke="#191919" stroke-width="0.35 px" style="stroke-width:0.35;stroke-miterlimit:4;stroke-dasharray:none;fill:none;fill-opacity:1;fill-rule: evenodd"/>
<path id="Shape2DView_nwe0074"  d="M 14.3 -0.35 L 14.3 -0.34122476926363826 L 14.3 -0.3153391037658467 L 14.3 -0.2736410188638104 L 14.3 -0.2182214306505568 L 14.3 -0.1518593086911454 L 14.3 -0.0778823268847101 L 14.3 -6.429395695523604e-17 L 14.3 0.07788232688470997 L 14.3 0.15185930869114528 L 14.3 0.21822143065055666 L 14.3 0.27364101886381037 L 14.3 0.3153391037658466 L 14.3 0.3412247692636382 L 14.3 0.35 " stroke="#191919" stroke-width="0.35 px" style="stroke-width:0.35;stroke-miterlimit:4;stroke-dasharray:none;fill:none;fill-opacity:1;fill-rule: evenodd"/>
<path id="Shape2DView_nwe0075"  d="M 2.6999999999999997 2.249999999999707 Q 2.5194556562952863 2.2338852212047478 2.5 2.049999999999707 " stroke="#191919" stroke-width="0.35 px" style="stroke-width:0.35;stroke-miterlimit:4;stroke-dasharray:none;fill:none;fill-opacity:1;fill-rule: evenodd"/>
<path id="Shape2DView_nwe0076"  d="M 2.6999999999999997 -2.249999999999707 Q 2.5194556562952863 -2.233885221204749 2.5000000000000004 -2.0499999999997067 " stroke="#191919" stroke-width="0.35 px" style="stroke-width:0.35;stroke-miterlimit:4;stroke-dasharray:none;fill:none;fill-opacity:1;fill-rule: evenodd"/>
<path id="Shape2DView_nwe0077"  d="M 2.7 -2.25 L 3.5649791398607618 -2.25 " stroke="#191919" stroke-width="0.35 px" style="stroke-width:0.35;stroke-miterlimit:4;stroke-dasharray:none;fill:none;fill-opacity:1;fill-rule: evenodd"/>
<path id="Shape2DView_nwe0078"  d="M 2.7 2.25 L 3.564979139860619 2.25 " stroke="#191919" stroke-width="0.35 px" style="stroke-width:0.35;stroke-miterlimit:4;stroke-dasharray:none;fill:none;fill-opacity:1;fill-rule: evenodd"/>
<path id="Shape2DView_nwe0079"  d="M 3.7693384059541257 2.169625885619326 L 3.564979139865697 2.2499954202145336 " stroke="#191919" stroke-width="0.35 px" style="stroke-width:0.35;stroke-miterlimit:4;stroke-dasharray:none;fill:none;fill-opacity:1;fill-rule: evenodd"/>
<path id="Shape2DView_nwe0080"  d="M 3.7693384059541244 -2.169625885619161 L 3.5649791398658413 -2.2499954202143693 " stroke="#191919" stroke-width="0.35 px" style="stroke-width:0.35;stroke-miterlimit:4;stroke-dasharray:none;fill:none;fill-opacity:1;fill-rule: evenodd"/>
<path id="Shape2DView_nwe0081"  d="M 3.769340432276011 2.1696280114122026 Q 4.094546679052328 1.9113396115581434 4.4306595677237866 2.1696280114120152 " stroke="#191919" stroke-width="0.35 px" style="stroke-width:0.35;stroke-miterlimit:4;stroke-dasharray:none;fill:none;fill-opacity:1;fill-rule: evenodd"/>
<path id="Shape2DView_nwe0082"  d="M 3.769340432276093 -2.169628011412128 Q 4.094546679052456 -1.911339611558109 4.4306595677239375 -2.169628011412156 " stroke="#191919" stroke-width="0.35 px" style="stroke-width:0.35;stroke-miterlimit:4;stroke-dasharray:none;fill:none;fill-opacity:1;fill-rule: evenodd"/>
<path id="Shape2DView_nwe0083"  d="M 4.635020860134209 2.2499954202145225 L 4.430661594045641 2.169625885619167 " stroke="#191919" stroke-width="0.35 px" style="stroke-width:0.35;stroke-miterlimit:4;stroke-dasharray:none;fill:none;fill-opacity:1;fill-rule: evenodd"/>
<path id="Shape2DView_nwe0084"  d="M 4.635020860134261 -2.2499954202144967 L 4.430661594045926 -2.1696258856191397 " stroke="#191919" stroke-width="0.35 px" style="stroke-width:0.35;stroke-miterlimit:4;stroke-dasharray:none;fill:none;fill-opacity:1;fill-rule: evenodd"/>
<path id="Shape2DView_nwe0085"  d="M 4.6350208601393375 -2.25 L 12.3 -2.25 " stroke="#191919" stroke-width="0.35 px" style="stroke-width:0.35;stroke-miterlimit:4;stroke-dasharray:none;fill:none;fill-opacity:1;fill-rule: evenodd"/>
<path id="Shape2DView_nwe0086"  d="M 4.635020860139289 2.25 L 12.3 2.25 " stroke="#191919" stroke-width="0.35 px" style="stroke-width:0.35;stroke-miterlimit:4;stroke-dasharray:none;fill:none;fill-opacity:1;fill-rule: evenodd"/>
<path id="Shape2DView_nwe0087"  d="M 12.3 2.25 Q 12.480544343704715 2.2338852212050426 12.5 2.0499999999999994 " stroke="#191919" stroke-width="0.35 px" style="stroke-width:0.35;stroke-miterlimit:4;stroke-dasharray:none;fill:none;fill-opacity:1;fill-rule: evenodd"/>
<path id="Shape2DView_nwe0088"  d="M 12.3 -2.25 Q 12.480544343704715 -2.2338852212050426 12.5 -2.0499999999999994 " stroke="#191919" stroke-width="0.35 px" style="stroke-width:0.35;stroke-miterlimit:4;stroke-dasharray:none;fill:none;fill-opacity:1;fill-rule: evenodd"/>
<path id="Shape2DView_nwe0089"  d="M 12.55 0.5625 L 12.51 0.5625 " stroke="#191919" stroke-width="0.35 px" style="stroke-width:0.35;stroke-miterlimit:4;stroke-dasharray:none;fill:none;fill-opacity:1;fill-rule: evenodd"/>
<path id="Shape2DView_nwe0090"  d="M 12.55 -0.5625 L 12.51 -0.5625 " stroke="#191919" stroke-width="0.35 px" style="stroke-width:0.35;stroke-miterlimit:4;stroke-dasharray:none;fill:none;fill-opacity:1;fill-rule: evenodd"/>
<path id="Shape2DView_nwe0091"  d="M 2.4899999999999998 -0.35 L 0.7 -0.35 " stroke="#191919" stroke-width="0.35 px" style="stroke-width:0.35;stroke-miterlimit:4;stroke-dasharray:none;fill:none;fill-opacity:1;fill-rule: evenodd"/>
<path id="Shape2DView_nwe0092"  d="M 14.3 -0.35 L 12.55 -0.35 " stroke="#191919" stroke-width="0.35 px" style="stroke-width:0.35;stroke-miterlimit:4;stroke-dasharray:none;fill:none;fill-opacity:1;fill-rule: evenodd"/>
<path id="Shape2DView_nwe0093"  d="M 14.299999999999999 -0.34999999999999976 Q 14.93776616850775 -0.3499999999999999 14.999999999999998 -0.35 " stroke="#191919" stroke-width="0.35 px" style="stroke-width:0.35;stroke-miterlimit:4;stroke-dasharray:none;fill:none;fill-opacity:1;fill-rule: evenodd"/>
<title>b'Shape2DView'</title>
</g>
<g id="Rectangle" transform="translate(0.504397,2.406949) scale(1,-1)">
<rect fill="#ff0000" id="origin" width="1" height="1" x="0" y="0" />
<title>b'Rectangle'</title>
</g>
</svg>