<?xml version="1.0"?>
<!DOCTYPE svg PUBLIC "-//W3C//DTD SVG 1.1//EN" "http://www.w3.org/Graphics/SVG/1.1/DTD/svg11.dtd">
<svg width="44.97381935673802mm" height="20.881839595230964mm" viewBox="0 0 44.97381935673802 20.881839595230964" xmlns="http://www.w3.org/2000/svg" version="1.1">
<g id="Shape2DView" transform="translate(0.986910,10.440920) scale(1,-1)">
<path id="Shape2DView_nwe0000"  d="M 3.2 3.830661157975 L 4.064979142851 3.830661157975 " stroke="#191919" stroke-width="0.35 px" style="stroke-width:0.35;stroke-miterlimit:4;stroke-dasharray:none;fill:none;fill-opacity:1;fill-rule: evenodd"/>
<path id="Shape2DView_nwe0001"  d="M 3.2 -3.830661157975 L 4.064979142851 -3.830661157975 " stroke="#191919" stroke-width="0.35 px" style="stroke-width:0.35;stroke-miterlimit:4;stroke-dasharray:none;fill:none;fill-opacity:1;fill-rule: evenodd"/>
<path id="Shape2DView_nwe0002"  d="M 4.064979142851 -3.830661157975 L 4.269338405373 -3.799904851243 " stroke="#191919" stroke-width="0.35 px" style="stroke-width:0.35;stroke-miterlimit:4;stroke-dasharray:none;fill:none;fill-opacity:1;fill-rule: evenodd"/>
<path id="Shape2DView_nwe0003"  d="M 4.269338405373073 -3.799904851242858 A 0.485412 0.185759 -180 0 0 4.93066 -3.7999" stroke="#191919" stroke-width="0.35 px" style="stroke-width:0.35;stroke-miterlimit:4;stroke-dasharray:none;fill:none;fill-opacity:1;fill-rule: evenodd"/>
<path id="Shape2DView_nwe0004"  d="M 4.930661594627 -3.799904851243 L 5.135020857149 -3.830661157975 " stroke="#191919" stroke-width="0.35 px" style="stroke-width:0.35;stroke-miterlimit:4;stroke-dasharray:none;fill:none;fill-opacity:1;fill-rule: evenodd"/>
<path id="Shape2DView_nwe0005"  d="M 5.135020857149 -3.830661157975 L 39.8 -3.830661157975 " stroke="#191919" stroke-width="0.35 px" style="stroke-width:0.35;stroke-miterlimit:4;stroke-dasharray:none;fill:none;fill-opacity:1;fill-rule: evenodd"/>
<path id="Shape2DView_nwe0006"  d="M 39.8 -3.830661157974674 A 0.21 0.0803635 5.26972e-15 0 1 40.01 -3.7503" stroke="#191919" stroke-width="0.35 px" style="stroke-width:0.35;stroke-miterlimit:4;stroke-dasharray:none;fill:none;fill-opacity:1;fill-rule: evenodd"/>
<path id="Shape2DView_nwe0007"  d="M 4.269338405372611 -3.7960780169190222 A 0.485412 0.185759 -180 0 0 4.93066 -3.79608" stroke="#191919" stroke-width="0.35 px" style="stroke-width:0.35;stroke-miterlimit:4;stroke-dasharray:none;fill:none;fill-opacity:1;fill-rule: evenodd"/>
<path id="Shape2DView_nwe0008"  d="M 2.99 -3.750297637178 A 0.21 0.0803635 5.26972e-15 0 1 3.2 -3.83066" stroke="#191919" stroke-width="0.35 px" style="stroke-width:0.35;stroke-miterlimit:4;stroke-dasharray:none;fill:none;fill-opacity:1;fill-rule: evenodd"/>
<path id="Shape2DView_nwe0009"  d="M 4.064979142851 3.830661157975 L 4.269338405373 3.799904851243 " stroke="#191919" stroke-width="0.35 px" style="stroke-width:0.35;stroke-miterlimit:4;stroke-dasharray:none;fill:none;fill-opacity:1;fill-rule: evenodd"/>
<path id="Shape2DView_nwe0010"  d="M 2.989999999999998 -3.750297637178123 L 2.989999999999998 -3.236734807160871 L 2.989999999999998 -2.712988011963745 L 2.989999999999998 -2.1807051527720898 L 2.989999999999998 -1.6415609883866127 L 2.989999999999998 -1.0972518658125971 L 2.989999999999998 -0.5494903829246445 L 2.989999999999998 -1.4876988529977098e-13 L 2.989999999999998 0.5494903829243474 L 2.989999999999998 1.097251865812301 L 2.989999999999998 1.6415609883863183 L 2.989999999999998 2.1807051527717998 L 2.989999999999998 2.712988011963458 L 2.989999999999998 3.2367348071605893 L 2.989999999999998 3.7502976371778454 " stroke="#191919" stroke-width="0.35 px" style="stroke-width:0.35;stroke-miterlimit:4;stroke-dasharray:none;fill:none;fill-opacity:1;fill-rule: evenodd"/>
<path id="Shape2DView_nwe0011"  d="M 2.99 3.750297637178 A 0.21 0.0803635 -5.26972e-15 0 0 3.2 3.83066" stroke="#191919" stroke-width="0.35 px" style="stroke-width:0.35;stroke-miterlimit:4;stroke-dasharray:none;fill:none;fill-opacity:1;fill-rule: evenodd"/>
<path id="Shape2DView_nwe0012"  d="M 4.269338405373073 3.799904851242858 A 0.485412 0.185759 180 0 1 4.93066 3.7999" stroke="#191919" stroke-width="0.35 px" style="stroke-width:0.35;stroke-miterlimit:4;stroke-dasharray:none;fill:none;fill-opacity:1;fill-rule: evenodd"/>
<path id="Shape2DView_nwe0013"  d="M 4.930661594627 3.799904851243 L 5.135020857149 3.830661157975 " stroke="#191919" stroke-width="0.35 px" style="stroke-width:0.35;stroke-miterlimit:4;stroke-dasharray:none;fill:none;fill-opacity:1;fill-rule: evenodd"/>
<path id="Shape2DView_nwe0014"  d="M 5.135020857149 3.830661157975 L 39.8 3.830661157975 " stroke="#191919" stroke-width="0.35 px" style="stroke-width:0.35;stroke-miterlimit:4;stroke-dasharray:none;fill:none;fill-opacity:1;fill-rule: evenodd"/>
<path id="Shape2DView_nwe0015"  d="M 39.8 3.830661157974674 A 0.21 0.0803635 -5.26972e-15 0 0 40.01 3.7503" stroke="#191919" stroke-width="0.35 px" style="stroke-width:0.35;stroke-miterlimit:4;stroke-dasharray:none;fill:none;fill-opacity:1;fill-rule: evenodd"/>
<path id="Shape2DView_nwe0016"  d="M 4.269338405372611 3.7960780169190222 A 0.485412 0.185759 180 0 1 4.93066 3.79608" stroke="#191919" stroke-width="0.35 px" style="stroke-width:0.35;stroke-miterlimit:4;stroke-dasharray:none;fill:none;fill-opacity:1;fill-rule: evenodd"/>
<path id="Shape2DView_nwe0017"  d="M 2.999999999999998 3.7748013327884076 L 2.999999999999998 4.519901094749701 L 2.999999999999998 5.233160257188702 L 2.9999999999999982 5.90955424127708 L 2.9999999999999982 6.5443181662098855 L 2.9999999999999982 7.132980415573108 L 2.9999999999999987 7.671394137800096 L 2.9999999999999987 8.155766458810787 L 2.9999999999999987 8.582685201044281 L 2.999999999999999 8.949142920661638 L 2.999999999999999 9.252558093587977 L 2.9999999999999996 9.490793301148061 L 2.9999999999999996 9.662170287186054 L 2.9999999999999996 9.765481780599034 L 3.0 9.8 " stroke="#191919" stroke-width="0.35 px" style="stroke-width:0.35;stroke-miterlimit:4;stroke-dasharray:none;fill:none;fill-opacity:1;fill-rule: evenodd"/>
<path id="Shape2DView_nwe0018"  d="M 3.0 -9.800000000000002 L 3.0 -9.765481780598966 L 2.9999999999999996 -9.662170287185932 L 2.9999999999999996 -9.490793301147892 L 2.999999999999999 -9.252558093587774 L 2.999999999999999 -8.949142920661414 L 2.999999999999999 -8.582685201044043 L 2.9999999999999987 -8.155766458810549 L 2.9999999999999987 -7.671394137799865 L 2.9999999999999987 -7.132980415572897 L 2.9999999999999982 -6.5443181662097025 L 2.9999999999999982 -5.909554241276931 L 2.9999999999999982 -5.233160257188596 L 2.999999999999998 -4.519901094749644 L 2.999999999999998 -3.774801332788411 " stroke="#191919" stroke-width="0.35 px" style="stroke-width:0.35;stroke-miterlimit:4;stroke-dasharray:none;fill:none;fill-opacity:1;fill-rule: evenodd"/>
<path id="Shape2DView_nwe0019"  d="M 40.0 3.774801332788407 L 40.0 4.51990109474974 L 40.0 5.233160257188777 L 40.0 5.909554241277187 L 40.0 6.544318166210017 L 40.0 7.132980415573259 L 40.0 7.671394137800262 L 40.0 8.15576645881096 L 40.0 8.582685201044452 L 40.0 8.949142920661803 L 40.0 9.252558093588124 L 40.0 9.490793301148184 L 40.0 9.662170287186143 L 40.0 9.765481780599082 L 40.0 9.8 " stroke="#191919" stroke-width="0.35 px" style="stroke-width:0.35;stroke-miterlimit:4;stroke-dasharray:none;fill:none;fill-opacity:1;fill-rule: evenodd"/>
<path id="Shape2DView_nwe0020"  d="M 40.0 -9.8 L 40.0 -9.765481780599064 L 40.0 -9.66217028718611 L 40.0 -9.490793301148136 L 40.0 -9.252558093588068 L 40.0 -8.949142920661739 L 40.0 -8.582685201044388 L 40.0 -8.155766458810897 L 40.0 -7.671394137800203 L 40.0 -7.132980415573206 L 40.0 -6.544318166209974 L 40.0 -5.909554241277155 L 40.0 -5.233160257188757 L 40.0 -4.519901094749736 L 40.0 -3.7748013327884107 " stroke="#191919" stroke-width="0.35 px" style="stroke-width:0.35;stroke-miterlimit:4;stroke-dasharray:none;fill:none;fill-opacity:1;fill-rule: evenodd"/>
<path id="Shape2DView_nwe0021"  d="M 40.0 3.774801332788407 L 40.0 4.1863858463250025 L 40.0 4.576567312269868 L 40.0 4.943350913902429 L 40.0 5.2848614569214964 L 40.0 5.599352956443299 L 40.0 5.885217563411743 L 40.0 6.1409937847843015 L 40.0 6.365373955467545 L 40.0 6.557210923801767 L 40.0 6.715523916414943 L 40.0 6.839503552461714 L 40.0 6.928515981611957 L 40.0 6.982106124633301 L 40.0 7.0 " stroke="#191919" stroke-width="0.35 px" style="stroke-width:0.35;stroke-miterlimit:4;stroke-dasharray:none;fill:none;fill-opacity:1;fill-rule: evenodd"/>
<path id="Shape2DView_nwe0022"  d="M 40.0 -7.000000000000001 L 40.0 -6.982106124633301 L 40.0 -6.928515981611958 L 40.0 -6.839503552461715 L 40.0 -6.715523916414944 L 40.0 -6.55721092380177 L 40.0 -6.365373955467549 L 40.0 -6.140993784784307 L 40.0 -5.885217563411749 L 40.0 -5.599352956443306 L 40.0 -5.284861456921504 L 40.0 -4.9433509139024405 L 40.0 -4.576567312269882 L 40.0 -4.1863858463250185 L 40.0 -3.7748013327884085 " stroke="#191919" stroke-width="0.35 px" style="stroke-width:0.35;stroke-miterlimit:4;stroke-dasharray:none;fill:none;fill-opacity:1;fill-rule: evenodd"/>
<path id="Shape2DView_nwe0023"  d="M 40.01 -3.750297637178123 L 40.01 -3.236734807160871 L 40.01 -2.712988011963745 L 40.01 -2.1807051527720898 L 40.01 -1.6415609883866127 L 40.01 -1.0972518658125971 L 40.01 -0.5494903829246445 L 40.01 -1.4876988529977098e-13 L 40.01 0.5494903829243474 L 40.01 1.097251865812301 L 40.01 1.6415609883863183 L 40.01 2.1807051527717998 L 40.01 2.712988011963458 L 40.01 3.2367348071605893 L 40.01 3.7502976371778454 " stroke="#191919" stroke-width="0.35 px" style="stroke-width:0.35;stroke-miterlimit:4;stroke-dasharray:none;fill:none;fill-opacity:1;fill-rule: evenodd"/>
<path id="Shape2DView_nwe0024"  d="M 26.49 1.0 Q 25.685265793564675 1.0127834964736864 25.499999999999996 0.00999999999999801 " stroke="#191919" stroke-width="0.35 px" style="stroke-width:0.35;stroke-miterlimit:4;stroke-dasharray:none;fill:none;fill-opacity:1;fill-rule: evenodd"/>
<path id="Shape2DView_nwe0025"  d="M 26.49 1.0 L 32.51 1.0 " stroke="#191919" stroke-width="0.35 px" style="stroke-width:0.35;stroke-miterlimit:4;stroke-dasharray:none;fill:none;fill-opacity:1;fill-rule: evenodd"/>
<path id="Shape2DView_nwe0026"  d="M 32.51 1.0 Q 33.31473420643533 1.012783496473458 33.49999999999999 0.00999999999999801 " stroke="#191919" stroke-width="0.35 px" style="stroke-width:0.35;stroke-miterlimit:4;stroke-dasharray:none;fill:none;fill-opacity:1;fill-rule: evenodd"/>
<path id="Shape2DView_nwe0027"  d="M 32.51 -1.0 Q 33.31473420643502 -1.0127834964736855 33.49999999999999 -0.010000000000000009 " stroke="#191919" stroke-width="0.35 px" style="stroke-width:0.35;stroke-miterlimit:4;stroke-dasharray:none;fill:none;fill-opacity:1;fill-rule: evenodd"/>
<path id="Shape2DView_nwe0028"  d="M 26.49 -1.0 Q 25.685265793564902 -1.0127834964736842 25.499999999999996 -0.010000000000000009 " stroke="#191919" stroke-width="0.35 px" style="stroke-width:0.35;stroke-miterlimit:4;stroke-dasharray:none;fill:none;fill-opacity:1;fill-rule: evenodd"/>
<path id="Shape2DView_nwe0029"  d="M 10.49 1.0 Q 9.685265793566312 1.0127834964748974 9.5 0.00999999999999801 " stroke="#191919" stroke-width="0.35 px" style="stroke-width:0.35;stroke-miterlimit:4;stroke-dasharray:none;fill:none;fill-opacity:1;fill-rule: evenodd"/>
<path id="Shape2DView_nwe0030"  d="M 10.49 1.0 L 16.51 1.0 " stroke="#191919" stroke-width="0.35 px" style="stroke-width:0.35;stroke-miterlimit:4;stroke-dasharray:none;fill:none;fill-opacity:1;fill-rule: evenodd"/>
<path id="Shape2DView_nwe0031"  d="M 16.51 1.0 Q 17.31473420643505 1.0127834964736866 17.500000000000004 0.00999999999999801 " stroke="#191919" stroke-width="0.35 px" style="stroke-width:0.35;stroke-miterlimit:4;stroke-dasharray:none;fill:none;fill-opacity:1;fill-rule: evenodd"/>
<path id="Shape2DView_nwe0032"  d="M 16.51 -1.0 Q 17.314734206435325 -1.0127834964734563 17.500000000000004 -0.010000000000000009 " stroke="#191919" stroke-width="0.35 px" style="stroke-width:0.35;stroke-miterlimit:4;stroke-dasharray:none;fill:none;fill-opacity:1;fill-rule: evenodd"/>
<path id="Shape2DView_nwe0033"  d="M 10.49 -1.0 Q 9.68526579356493 -1.0127834964737152 9.5 -0.010000000000000009 " stroke="#191919" stroke-width="0.35 px" style="stroke-width:0.35;stroke-miterlimit:4;stroke-dasharray:none;fill:none;fill-opacity:1;fill-rule: evenodd"/>
<path id="Shape2DView_nwe0034"  d="M 2.533333333333 2.5 L 2.533333333333 2.437319780454559 L 2.5333333333329997 2.252422169756048 L 2.5333333333329997 1.9545787061700748 L 2.5333333333329997 1.5587245046468339 L 2.5333333333329997 1.0847093477938956 L 2.5333333333329997 0.5563023348907863 L 2.5333333333329997 3.061616997868383e-16 L 2.5333333333329997 -0.5563023348907857 L 2.5333333333329997 -1.084709347793895 L 2.5333333333329997 -1.5587245046468334 L 2.5333333333329997 -1.9545787061700741 L 2.5333333333329997 -2.2524221697560476 L 2.533333333333 -2.437319780454559 L 2.533333333333 -2.5 " stroke="#191919" stroke-width="0.35 px" style="stroke-width:0.35;stroke-miterlimit:4;stroke-dasharray:none;fill:none;fill-opacity:1;fill-rule: evenodd"/>
<path id="Shape2DView_nwe0036"  d="M 25.499999999999996 0.01000000000000334 L 25.499999999999996 0.008571428949683213 L 25.499999999999996 0.007142857724784957 L 25.499999999999996 0.005714286354405296 L 25.499999999999996 0.004285714867639623 L 25.499999999999996 0.0028571432935864394 L 25.499999999999996 0.0014285716613393618 L 25.499999999999996 -3.1086244689504383e-15 L 25.499999999999996 -0.0014285716613469113 L 25.499999999999996 -0.002857143293593545 L 25.499999999999996 -0.004285714867647172 L 25.499999999999996 -0.005714286354413289 L 25.499999999999996 -0.007142857724792506 L 25.499999999999996 -0.008571428949690763 L 25.499999999999996 -0.010000000000002451 " stroke="#191919" stroke-width="0.35 px" style="stroke-width:0.35;stroke-miterlimit:4;stroke-dasharray:none;fill:none;fill-opacity:1;fill-rule: evenodd"/>
<path id="Shape2DView_nwe0040"  d="M 33.5 0.01000000000000334 L 33.5 0.008571428949683213 L 33.5 0.007142857724784957 L 33.5 0.005714286354405296 L 33.5 0.004285714867639623 L 33.5 0.0028571432935864394 L 33.5 0.0014285716613393618 L 33.5 -3.1086244689504383e-15 L 33.5 -0.0014285716613469113 L 33.5 -0.002857143293593545 L 33.5 -0.004285714867647172 L 33.5 -0.005714286354413289 L 33.5 -0.007142857724792506 L 33.5 -0.008571428949690763 L 33.5 -0.010000000000002451 " stroke="#191919" stroke-width="0.35 px" style="stroke-width:0.35;stroke-miterlimit:4;stroke-dasharray:none;fill:none;fill-opacity:1;fill-rule: evenodd"/>
<path id="Shape2DView_nwe0042"  d="M 26.49 -1.0 L 32.51 -1.0 " stroke="#191919" stroke-width="0.35 px" style="stroke-width:0.35;stroke-miterlimit:4;stroke-dasharray:none;fill:none;fill-opacity:1;fill-rule: evenodd"/>
<path id="Shape2DView_nwe0044"  d="M 9.499999999999998 0.01000000000000334 L 9.499999999999998 0.008571428949683213 L 9.499999999999998 0.007142857724784957 L 9.499999999999998 0.005714286354405296 L 9.499999999999998 0.004285714867639623 L 9.499999999999998 0.0028571432935864394 L 9.499999999999998 0.0014285716613393618 L 9.499999999999998 -3.1086244689504383e-15 L 9.499999999999998 -0.0014285716613469113 L 9.499999999999998 -0.002857143293593545 L 9.499999999999998 -0.004285714867647172 L 9.499999999999998 -0.005714286354413289 L 9.499999999999998 -0.007142857724792506 L 9.499999999999998 -0.008571428949690763 L 9.499999999999998 -0.010000000000002451 " stroke="#191919" stroke-width="0.35 px" style="stroke-width:0.35;stroke-miterlimit:4;stroke-dasharray:none;fill:none;fill-opacity:1;fill-rule: evenodd"/>
<path id="Shape2DView_nwe0048"  d="M 17.499999999999996 0.01000000000000334 L 17.499999999999996 0.008571428949683213 L 17.499999999999996 0.007142857724784957 L 17.499999999999996 0.005714286354405296 L 17.499999999999996 0.004285714867639623 L 17.499999999999996 0.0028571432935864394 L 17.499999999999996 0.0014285716613393618 L 17.499999999999996 -3.1086244689504383e-15 L 17.499999999999996 -0.0014285716613469113 L 17.499999999999996 -0.002857143293593545 L 17.499999999999996 -0.004285714867647172 L 17.499999999999996 -0.005714286354413289 L 17.499999999999996 -0.007142857724792506 L 17.499999999999996 -0.008571428949690763 L 17.499999999999996 -0.010000000000002451 " stroke="#191919" stroke-width="0.35 px" style="stroke-width:0.35;stroke-miterlimit:4;stroke-dasharray:none;fill:none;fill-opacity:1;fill-rule: evenodd"/>
<path id="Shape2DView_nwe0050"  d="M 10.49 -1.0 L 16.51 -1.0 " stroke="#191919" stroke-width="0.35 px" style="stroke-width:0.35;stroke-miterlimit:4;stroke-dasharray:none;fill:none;fill-opacity:1;fill-rule: evenodd"/>
<path id="Shape2DView_nwe0051"  d="M 40.566666666667 2.5 L 40.566666666667 2.437319780454559 L 40.566666666667 2.252422169756048 L 40.566666666667 1.9545787061700748 L 40.566666666667 1.5587245046468339 L 40.566666666667 1.0847093477938956 L 40.566666666667 0.5563023348907863 L 40.566666666667 3.061616997868383e-16 L 40.566666666667 -0.5563023348907857 L 40.566666666667 -1.084709347793895 L 40.566666666667 -1.5587245046468334 L 40.566666666667 -1.9545787061700741 L 40.566666666667 -2.2524221697560476 L 40.566666666667 -2.437319780454559 L 40.566666666667 -2.5 " stroke="#191919" stroke-width="0.35 px" style="stroke-width:0.35;stroke-miterlimit:4;stroke-dasharray:none;fill:none;fill-opacity:1;fill-rule: evenodd"/>
<path id="Shape2DView_nwe0052"  d="M 1.1 0.55 L 2.533333333333 0.55 " stroke="#191919" stroke-width="0.35 px" style="stroke-width:0.35;stroke-miterlimit:4;stroke-dasharray:none;fill:none;fill-opacity:1;fill-rule: evenodd"/>
<path id="Shape2DView_nwe0053"  d="M 0.0 -0.5500000000000002 L 0.006916569117433102 -0.5500000000000002 L 0.02757929659999392 -0.5500000000000002 L 0.06172833666079569 -0.5500000000000002 L 0.10893424530733897 -0.5500000000000002 L 0.16860338084888749 -0.5500000000000002 L 0.23998536928516723 -0.5500000000000002 L 0.3221825406947977 -0.5500000000000002 L 0.41416121795539307 -0.5500000000000002 L 0.5147647158331298 -0.5500000000000002 L 0.622727886970686 -0.55 L 0.7366930318493161 -0.55 L 0.8552269726480541 -0.55 L 0.9768390762863614 -0.55 L 1.1 -0.55 " stroke="#191919" stroke-width="0.35 px" style="stroke-width:0.35;stroke-miterlimit:4;stroke-dasharray:none;fill:none;fill-opacity:1;fill-rule: evenodd"/>
<circle cx="1.165734175856e-15" cy="0.0" r="0.55" stroke="#191919" stroke-width="0.35 px" style="stroke-width:0.35;stroke-miterlimit:4;stroke-dasharray:none;fill:none"/>
<path id="Shape2DView_nwe0055"  d="M 40.566666666667 0.55 L 41.9 0.55 " stroke="#191919" stroke-width="0.35 px" style="stroke-width:0.35;stroke-miterlimit:4;stroke-dasharray:none;fill:none;fill-opacity:1;fill-rule: evenodd"/>
<path id="Shape2DView_nwe0056"  d="M 43.0 0.55 L 42.993083430882564 0.55 L 42.972420703400005 0.55 L 42.9382716633392 0.55 L 42.89106575469266 0.55 L 42.831396619151114 0.55 L 42.760014630714835 0.55 L 42.6778174593052 0.55 L 42.585838782044604 0.55 L 42.48523528416687 0.55 L 42.37727211302931 0.55 L 42.26330696815068 0.55 L 42.144773027351945 0.55 L 42.02316092371364 0.55 L 41.9 0.55 " stroke="#191919" stroke-width="0.35 px" style="stroke-width:0.35;stroke-miterlimit:4;stroke-dasharray:none;fill:none;fill-opacity:1;fill-rule: evenodd"/>
<path id="Shape2DView_nwe0057"  d="M 43.0 -0.55 A 0.55 0.55 0 0 1 43 0.55" stroke="#191919" stroke-width="0.35 px" style="stroke-width:0.35;stroke-miterlimit:4;stroke-dasharray:none;fill:none;fill-opacity:1;fill-rule: evenodd"/>
<path id="Shape2DView_nwe0058"  d="M 4.064979142851 -3.830661159967561 L 4.064979142851 3.830661159967755 " stroke="#191919" stroke-width="0.35 px" style="stroke-width:0.35;stroke-miterlimit:4;stroke-dasharray:none;fill:none;fill-opacity:1;fill-rule: evenodd"/>
<path id="Shape2DView_nwe0059"  d="M 3.199999999999998 -3.8306611579747964 L 3.199999999999998 -3.30609341017143 L 3.199999999999998 -2.771123469362907 L 3.199999999999998 -2.2274345489028278 L 3.199999999999998 -1.676737295280485 L 3.199999999999998 -1.1207644057941382 L 3.199999999999998 -0.5612651768442682 L 3.199999999999998 6.972200594645983e-14 L 3.199999999999998 0.5612651768444086 L 3.199999999999998 1.120764405794278 L 3.199999999999998 1.676737295280624 L 3.199999999999998 2.227434548902965 L 3.199999999999998 2.7711234693630447 L 3.199999999999998 3.3060934101715653 L 3.199999999999998 3.8306611579749257 " stroke="#191919" stroke-width="0.35 px" style="stroke-width:0.35;stroke-miterlimit:4;stroke-dasharray:none;fill:none;fill-opacity:1;fill-rule: evenodd"/>
<path id="Shape2DView_nwe0060"  d="M 4.269338405373 -3.799904849265998 L 4.269338405373 3.799904849266101 " stroke="#191919" stroke-width="0.35 px" style="stroke-width:0.35;stroke-miterlimit:4;stroke-dasharray:none;fill:none;fill-opacity:1;fill-rule: evenodd"/>
<path id="Shape2DView_nwe0061"  d="M 3.199999999999998 3.830661157975 L 3.199999999999998 4.593235799051219 L 3.199999999999998 5.323326898992023 L 3.1999999999999984 6.0157712253148965 L 3.1999999999999984 6.665671784975688 L 3.1999999999999984 7.268432456092734 L 3.199999999999999 7.819790491898473 L 3.199999999999999 8.315846667049385 L 3.199999999999999 8.753092853098348 L 3.1999999999999993 9.128436828114634 L 3.1999999999999993 9.439224144996945 L 3.1999999999999993 9.683256903825926 L 3.1999999999999997 9.858809295497363 L 3.1999999999999997 9.964639806710881 L 3.2 10.0 " stroke="#191919" stroke-width="0.35 px" style="stroke-width:0.35;stroke-miterlimit:4;stroke-dasharray:none;fill:none;fill-opacity:1;fill-rule: evenodd"/>
<path id="Shape2DView_nwe0062"  d="M 3.2 -10.0 L 3.2 -9.964639806710835 L 3.1999999999999997 -9.858809295497279 L 3.1999999999999997 -9.68325690382581 L 3.1999999999999993 -9.439224144996809 L 3.1999999999999993 -9.128436828114484 L 3.1999999999999993 -8.753092853098194 L 3.199999999999999 -8.315846667049232 L 3.199999999999999 -7.819790491898331 L 3.1999999999999984 -7.268432456092607 L 3.1999999999999984 -6.665671784975585 L 3.1999999999999984 -6.015771225314824 L 3.1999999999999984 -5.323326898991983 L 3.199999999999998 -4.593235799051218 L 3.199999999999998 -3.8306611579750007 " stroke="#191919" stroke-width="0.35 px" style="stroke-width:0.35;stroke-miterlimit:4;stroke-dasharray:none;fill:none;fill-opacity:1;fill-rule: evenodd"/>
<path id="Shape2DView_nwe0063"  d="M 4.064979142851011 3.830661157974997 C 4.064979140179724 7.48137324363748 4.0649791264498 10.05436855156095 4.064979141131777 9.999979645386562 " stroke="#191919" stroke-width="0.35 px" style="stroke-width:0.35;stroke-miterlimit:4;stroke-dasharray:none;fill:none;fill-opacity:1;fill-rule: evenodd"/>
<path id="Shape2DView_nwe0064"  d="M 4.064979141131774 -9.999979645384856 C 4.064979126449796 -10.054368551559989 4.064979140179719 -7.48137324363701 4.064979142851016 -3.8306611579751486 " stroke="#191919" stroke-width="0.35 px" style="stroke-width:0.35;stroke-miterlimit:4;stroke-dasharray:none;fill:none;fill-opacity:1;fill-rule: evenodd"/>
<path id="Shape2DView_nwe0065"  d="M 4.269338405372991 3.7999048512429985 C 4.269338405832699 7.421288213755133 4.269338408194507 9.973569762531497 4.269338405668688 9.91961011090658 " stroke="#191919" stroke-width="0.35 px" style="stroke-width:0.35;stroke-miterlimit:4;stroke-dasharray:none;fill:none;fill-opacity:1;fill-rule: evenodd"/>
<path id="Shape2DView_nwe0066"  d="M 4.269338405668689 -9.919610110902898 C 4.269338408194506 -9.973569762527973 4.269338405832711 -7.421288213755451 4.269338405372994 -3.7999048512443934 " stroke="#191919" stroke-width="0.35 px" style="stroke-width:0.35;stroke-miterlimit:4;stroke-dasharray:none;fill:none;fill-opacity:1;fill-rule: evenodd"/>
<path id="Shape2DView_nwe0067"  d="M 4.930661594627006 3.799904851242996 C 4.9306615941675656 7.421288213755631 4.930661591805659 9.973569762531532 4.9306615943313865 9.919610110906692 " stroke="#191919" stroke-width="0.35 px" style="stroke-width:0.35;stroke-miterlimit:4;stroke-dasharray:none;fill:none;fill-opacity:1;fill-rule: evenodd"/>
<path id="Shape2DView_nwe0068"  d="M 4.930661594331484 -9.91961011090263 C 4.930661591805822 -9.973569762528035 4.930661594167559 -7.421288213754769 4.930661594626999 -3.7999048512429368 " stroke="#191919" stroke-width="0.35 px" style="stroke-width:0.35;stroke-miterlimit:4;stroke-dasharray:none;fill:none;fill-opacity:1;fill-rule: evenodd"/>
<path id="Shape2DView_nwe0069"  d="M 5.135020857148989 3.830661157974997 C 5.1350208598205365 7.481373243637188 5.135020873550378 10.054368551560293 5.135020858868272 9.999979645386087 " stroke="#191919" stroke-width="0.35 px" style="stroke-width:0.35;stroke-miterlimit:4;stroke-dasharray:none;fill:none;fill-opacity:1;fill-rule: evenodd"/>
<path id="Shape2DView_nwe0070"  d="M 5.135020858868273 -9.999979645383391 C 5.135020873550373 -10.054368551558134 5.135020859820539 -7.481373243636491 5.13502085714898 -3.830661157975278 " stroke="#191919" stroke-width="0.35 px" style="stroke-width:0.35;stroke-miterlimit:4;stroke-dasharray:none;fill:none;fill-opacity:1;fill-rule: evenodd"/>
<path id="Shape2DView_nwe0071"  d="M 39.8 3.830661157975 L 39.8 4.5932357990511985 L 39.8 5.3233268989919855 L 39.8 6.015771225314843 L 39.8 6.665671784975624 L 39.8 7.268432456092659 L 39.8 7.819790491898393 L 39.8 8.315846667049303 L 39.8 8.753092853098265 L 39.8 9.128436828114555 L 39.8 9.439224144996873 L 39.8 9.683256903825868 L 39.8 9.85880929549732 L 39.8 9.964639806710858 L 39.8 10.0 " stroke="#191919" stroke-width="0.35 px" style="stroke-width:0.35;stroke-miterlimit:4;stroke-dasharray:none;fill:none;fill-opacity:1;fill-rule: evenodd"/>
<path id="Shape2DView_nwe0072"  d="M 39.8 -10.0 L 39.8 -9.96463980671086 L 39.8 -9.85880929549732 L 39.8 -9.68325690382587 L 39.8 -9.439224144996874 L 39.8 -9.128436828114554 L 39.8 -8.753092853098261 L 39.8 -8.315846667049296 L 39.8 -7.819790491898386 L 39.8 -7.2684324560926505 L 39.8 -6.665671784975611 L 39.8 -6.015771225314829 L 39.8 -5.3233268989919695 L 39.8 -4.593235799051178 L 39.8 -3.8306611579750003 " stroke="#191919" stroke-width="0.35 px" style="stroke-width:0.35;stroke-miterlimit:4;stroke-dasharray:none;fill:none;fill-opacity:1;fill-rule: evenodd"/>
<path id="Shape2DView_nwe0073"  d="M 39.8 -3.8306611579747964 L 39.8 -3.30609341017143 L 39.8 -2.771123469362907 L 39.8 -2.2274345489028278 L 39.8 -1.676737295280485 L 39.8 -1.1207644057941382 L 39.8 -0.5612651768442682 L 39.8 6.972200594645983e-14 L 39.8 0.5612651768444086 L 39.8 1.120764405794278 L 39.8 1.676737295280624 L 39.8 2.227434548902965 L 39.8 2.7711234693630447 L 39.8 3.3060934101715653 L 39.8 3.8306611579749257 " stroke="#191919" stroke-width="0.35 px" style="stroke-width:0.35;stroke-miterlimit:4;stroke-dasharray:none;fill:none;fill-opacity:1;fill-rule: evenodd"/>
<path id="Shape2DView_nwe0074"  d="M 5.135020857149 -3.830661159967561 L 5.135020857149 3.830661159967755 " stroke="#191919" stroke-width="0.35 px" style="stroke-width:0.35;stroke-miterlimit:4;stroke-dasharray:none;fill:none;fill-opacity:1;fill-rule: evenodd"/>
<path id="Shape2DView_nwe0075"  d="M 4.930661594627 -3.799904849265998 L 4.930661594627 3.799904849266101 " stroke="#191919" stroke-width="0.35 px" style="stroke-width:0.35;stroke-miterlimit:4;stroke-dasharray:none;fill:none;fill-opacity:1;fill-rule: evenodd"/>
<path id="Shape2DView_nwe0076"  d="M 1.1 0.55 L 1.1 0.5362103517000031 L 1.1 0.49553287734633056 L 1.1 0.4300073153574165 L 1.1 0.34291939102230357 L 1.1 0.23863605651465708 L 1.1 0.12238651367597303 L 1.1 1.0103336092965663e-16 L 1.1 -0.12238651367597284 L 1.1 -0.23863605651465689 L 1.1 -0.3429193910223034 L 1.1 -0.4300073153574164 L 1.1 -0.4955328773463305 L 1.1 -0.536210351700003 L 1.1 -0.55 " stroke="#191919" stroke-width="0.35 px" style="stroke-width:0.35;stroke-miterlimit:4;stroke-dasharray:none;fill:none;fill-opacity:1;fill-rule: evenodd"/>
<path id="Shape2DView_nwe0077"  d="M 41.9 -0.55 L 41.9 -0.5362103517000031 L 41.9 -0.49553287734633056 L 41.9 -0.4300073153574165 L 41.9 -0.34291939102230357 L 41.9 -0.23863605651465708 L 41.9 -0.12238651367597303 L 41.9 -1.0103336092965664e-16 L 41.9 0.12238651367597284 L 41.9 0.23863605651465689 L 41.9 0.3429193910223034 L 41.9 0.4300073153574164 L 41.9 0.4955328773463305 L 41.9 0.536210351700003 L 41.9 0.55 " stroke="#191919" stroke-width="0.35 px" style="stroke-width:0.35;stroke-miterlimit:4;stroke-dasharray:none;fill:none;fill-opacity:1;fill-rule: evenodd"/>
<path id="Shape2DView_nwe0078"  d="M 3.2 10.000000000000403 Q 3.019455656295286 9.983885221205442 3.0000000000000027 9.800000000000406 " stroke="#191919" stroke-width="0.35 px" style="stroke-width:0.35;stroke-miterlimit:4;stroke-dasharray:none;fill:none;fill-opacity:1;fill-rule: evenodd"/>
<path id="Shape2DView_nwe0079"  d="M 3.2 -10.000000000000405 Q 3.0194556562952863 -9.983885221205442 3.0000000000000018 -9.800000000000406 " stroke="#191919" stroke-width="0.35 px" style="stroke-width:0.35;stroke-miterlimit:4;stroke-dasharray:none;fill:none;fill-opacity:1;fill-rule: evenodd"/>
<path id="Shape2DView_nwe0080"  d="M 3.2 -10.0 L 4.064979141119941 -10.0 " stroke="#191919" stroke-width="0.35 px" style="stroke-width:0.35;stroke-miterlimit:4;stroke-dasharray:none;fill:none;fill-opacity:1;fill-rule: evenodd"/>
<path id="Shape2DView_nwe0081"  d="M 3.2 10.0 L 4.064979141119943 10.0 " stroke="#191919" stroke-width="0.35 px" style="stroke-width:0.35;stroke-miterlimit:4;stroke-dasharray:none;fill:none;fill-opacity:1;fill-rule: evenodd"/>
<path id="Shape2DView_nwe0082"  d="M 4.269338405668643 9.919610110918232 L 4.064979141131799 9.999979645398174 " stroke="#191919" stroke-width="0.35 px" style="stroke-width:0.35;stroke-miterlimit:4;stroke-dasharray:none;fill:none;fill-opacity:1;fill-rule: evenodd"/>
<path id="Shape2DView_nwe0083"  d="M 4.269338405668543 -9.919610110914562 L 4.064979141131798 -9.999979645396397 " stroke="#191919" stroke-width="0.35 px" style="stroke-width:0.35;stroke-miterlimit:4;stroke-dasharray:none;fill:none;fill-opacity:1;fill-rule: evenodd"/>
<path id="Shape2DView_nwe0084"  d="M 4.269348162258279 9.919620819125944 Q 4.594555632433401 9.661346551650922 4.930651837741824 9.919620819126033 " stroke="#191919" stroke-width="0.35 px" style="stroke-width:0.35;stroke-miterlimit:4;stroke-dasharray:none;fill:none;fill-opacity:1;fill-rule: evenodd"/>
<path id="Shape2DView_nwe0085"  d="M 4.269348162260114 -9.919620819124237 Q 4.5945556324372046 -9.661346551652628 4.930651837739839 -9.919620819124187 " stroke="#191919" stroke-width="0.35 px" style="stroke-width:0.35;stroke-miterlimit:4;stroke-dasharray:none;fill:none;fill-opacity:1;fill-rule: evenodd"/>
<path id="Shape2DView_nwe0086"  d="M 5.13502085886825 9.999979645397694 L 4.930661594331388 9.919610110918303 " stroke="#191919" stroke-width="0.35 px" style="stroke-width:0.35;stroke-miterlimit:4;stroke-dasharray:none;fill:none;fill-opacity:1;fill-rule: evenodd"/>
<path id="Shape2DView_nwe0087"  d="M 5.135020858868253 -9.999979645395099 L 4.930661594331482 -9.919610110914327 " stroke="#191919" stroke-width="0.35 px" style="stroke-width:0.35;stroke-miterlimit:4;stroke-dasharray:none;fill:none;fill-opacity:1;fill-rule: evenodd"/>
<path id="Shape2DView_nwe0088"  d="M 5.135020858880102 -10.0 L 39.800000000000004 -10.0 " stroke="#191919" stroke-width="0.35 px" style="stroke-width:0.35;stroke-miterlimit:4;stroke-dasharray:none;fill:none;fill-opacity:1;fill-rule: evenodd"/>
<path id="Shape2DView_nwe0089"  d="M 5.135020858880106 10.0 L 39.800000000000004 10.0 " stroke="#191919" stroke-width="0.35 px" style="stroke-width:0.35;stroke-miterlimit:4;stroke-dasharray:none;fill:none;fill-opacity:1;fill-rule: evenodd"/>
<path id="Shape2DView_nwe0090"  d="M 39.8 10.0 Q 39.980544343704715 9.98388522120504 40.0 9.8 " stroke="#191919" stroke-width="0.35 px" style="stroke-width:0.35;stroke-miterlimit:4;stroke-dasharray:none;fill:none;fill-opacity:1;fill-rule: evenodd"/>
<path id="Shape2DView_nwe0091"  d="M 39.8 -10.0 Q 39.980544343704715 -9.983885221205043 40.0 -9.799999999999997 " stroke="#191919" stroke-width="0.35 px" style="stroke-width:0.35;stroke-miterlimit:4;stroke-dasharray:none;fill:none;fill-opacity:1;fill-rule: evenodd"/>
<path id="Shape2DView_nwe0092"  d="M 2.533333333333 -2.5 L 2.989999999999998 -2.5 " stroke="#191919" stroke-width="0.35 px" style="stroke-width:0.35;stroke-miterlimit:4;stroke-dasharray:none;fill:none;fill-opacity:1;fill-rule: evenodd"/>
<path id="Shape2DView_nwe0093"  d="M 2.533333333333 2.5 L 2.989999999999998 2.5 " stroke="#191919" stroke-width="0.35 px" style="stroke-width:0.35;stroke-miterlimit:4;stroke-dasharray:none;fill:none;fill-opacity:1;fill-rule: evenodd"/>
<path id="Shape2DView_nwe0094"  d="M 40.566666666667 2.5 L 40.01 2.5 " stroke="#191919" stroke-width="0.35 px" style="stroke-width:0.35;stroke-miterlimit:4;stroke-dasharray:none;fill:none;fill-opacity:1;fill-rule: evenodd"/>
<path id="Shape2DView_nwe0095"  d="M 40.566666666667 -2.5 L 40.01 -2.5 " stroke="#191919" stroke-width="0.35 px" style="stroke-width:0.35;stroke-miterlimit:4;stroke-dasharray:none;fill:none;fill-opacity:1;fill-rule: evenodd"/>
<path id="Shape2DView_nwe0096"  d="M 2.533333333333 -0.55 L 1.1 -0.55 " stroke="#191919" stroke-width="0.35 px" style="stroke-width:0.35;stroke-miterlimit:4;stroke-dasharray:none;fill:none;fill-opacity:1;fill-rule: evenodd"/>
<path id="Shape2DView_nwe0097"  d="M 41.9 -0.55 L 40.566666666667 -0.55 " stroke="#191919" stroke-width="0.35 px" style="stroke-width:0.35;stroke-miterlimit:4;stroke-dasharray:none;fill:none;fill-opacity:1;fill-rule: evenodd"/>
<path id="Shape2DView_nwe0098"  d="M 41.900000000000006 -0.5499999999999995 Q 42.9022045462515 -0.5499999999999998 43.0 -0.5500000000000002 " stroke="#191919" stroke-width="0.35 px" style="stroke-width:0.35;stroke-miterlimit:4;stroke-dasharray:none;fill:none;fill-opacity:1;fill-rule: evenodd"/>
<title>b'Shape2DView'</title>
</g>
<g id="Rectangle" transform="translate(0.986910,10.440920) scale(1,-1)">
<rect fill="#ff0000" id="origin" width="1" height="1" x="0" y="0" />
<title>b'Rectangle'</title>
</g>
</svg>