<?xml version="1.0"?>
<!DOCTYPE svg PUBLIC "-//W3C//DTD SVG 1.1//EN" "http://www.w3.org/Graphics/SVG/1.1/DTD/svg11.dtd">
<svg width="46.81130674642201mm" height="35.91786960993271mm" viewBox="0 0 46.81130674642201 35.91786960993271" xmlns="http://www.w3.org/2000/svg" version="1.1">
<g id="Shape2DView" transform="translate(0.905653,17.958935) scale(1,-1)">
<path id="Shape2DView_nwe0000"  d="M 27.76 -1.75 C 28.509292928950345 -1.736519245151747 29.426011277799446 -1.2652911530364572 29.5 -0.010000000000010001 " stroke="#191919" stroke-width="0.35 px" style="stroke-width:0.35;stroke-miterlimit:4;stroke-dasharray:none;fill:none;fill-opacity:1;fill-rule: evenodd"/>
<path id="Shape2DView_nwe0001"  d="M 29.499999999999996 0.009999999999998899 L 29.499999999999996 0.008571428695050898 L 29.499999999999996 0.007142857333046315 L 29.499999999999996 0.005714285923499318 L 29.499999999999996 0.00428571447591608 L 29.499999999999996 0.002857142999806328 L 29.499999999999996 0.0014285715046780112 L 29.499999999999996 3.907985046680551e-14 L 29.499999999999996 -0.001428571504597187 L 29.499999999999996 -0.0028571429997246156 L 29.499999999999996 -0.004285714475836144 L 29.499999999999996 -0.005714285923419382 L 29.499999999999996 -0.007142857332967267 L 29.499999999999996 -0.008571428694969185 L 29.499999999999996 -0.009999999999997122 " stroke="#191919" stroke-width="0.35 px" style="stroke-width:0.35;stroke-miterlimit:4;stroke-dasharray:none;fill:none;fill-opacity:1;fill-rule: evenodd"/>
<path id="Shape2DView_nwe0002"  d="M 27.76 1.75 C 28.509292928949854 1.7365192451515428 29.426011277799986 1.2652911530363122 29.500000000000004 0.010000000000000009 " stroke="#191919" stroke-width="0.35 px" style="stroke-width:0.35;stroke-miterlimit:4;stroke-dasharray:none;fill:none;fill-opacity:1;fill-rule: evenodd"/>
<path id="Shape2DView_nwe0003"  d="M 17.24 1.75 L 27.76 1.75 " stroke="#191919" stroke-width="0.35 px" style="stroke-width:0.35;stroke-miterlimit:4;stroke-dasharray:none;fill:none;fill-opacity:1;fill-rule: evenodd"/>
<path id="Shape2DView_nwe0004"  d="M 17.24 1.75 C 16.490707071050128 1.7365192451515428 15.57398872220002 1.2652911530363122 15.499999999999996 0.010000000000000009 " stroke="#191919" stroke-width="0.35 px" style="stroke-width:0.35;stroke-miterlimit:4;stroke-dasharray:none;fill:none;fill-opacity:1;fill-rule: evenodd"/>
<path id="Shape2DView_nwe0005"  d="M 15.499999999999996 0.009999999999998899 L 15.499999999999996 0.008571428695050898 L 15.499999999999996 0.007142857333046315 L 15.499999999999996 0.005714285923499318 L 15.499999999999996 0.00428571447591608 L 15.499999999999996 0.002857142999806328 L 15.499999999999996 0.0014285715046780112 L 15.499999999999996 3.907985046680551e-14 L 15.499999999999996 -0.001428571504597187 L 15.499999999999996 -0.0028571429997246156 L 15.499999999999996 -0.004285714475836144 L 15.499999999999996 -0.005714285923419382 L 15.499999999999996 -0.007142857332967267 L 15.499999999999996 -0.008571428694969185 L 15.499999999999996 -0.009999999999997122 " stroke="#191919" stroke-width="0.35 px" style="stroke-width:0.35;stroke-miterlimit:4;stroke-dasharray:none;fill:none;fill-opacity:1;fill-rule: evenodd"/>
<path id="Shape2DView_nwe0006"  d="M 17.24 -1.75 C 16.490707059645704 -1.7365192708481416 15.573988690258679 -1.2652910774586945 15.499999999999998 -0.010000000000010001 " stroke="#191919" stroke-width="0.35 px" style="stroke-width:0.35;stroke-miterlimit:4;stroke-dasharray:none;fill:none;fill-opacity:1;fill-rule: evenodd"/>
<path id="Shape2DView_nwe0007"  d="M 17.24 -1.75 L 27.76 -1.75 " stroke="#191919" stroke-width="0.35 px" style="stroke-width:0.35;stroke-miterlimit:4;stroke-dasharray:none;fill:none;fill-opacity:1;fill-rule: evenodd"/>
<path id="Shape2DView_nwe0009"  d="M 3.635020857149 6.700786900713 L 43.3 6.700786900713 " stroke="#191919" stroke-width="0.35 px" style="stroke-width:0.35;stroke-miterlimit:4;stroke-dasharray:none;fill:none;fill-opacity:1;fill-rule: evenodd"/>
<path id="Shape2DView_nwe0010"  d="M 3.635020857149 -6.700786900713 L 43.3 -6.700786900713 " stroke="#191919" stroke-width="0.35 px" style="stroke-width:0.35;stroke-miterlimit:4;stroke-dasharray:none;fill:none;fill-opacity:1;fill-rule: evenodd"/>
<path id="Shape2DView_nwe0011"  d="M 43.3 -6.700786900712674 A 0.21 0.0803635 5.26972e-15 0 1 43.51 -6.62042" stroke="#191919" stroke-width="0.35 px" style="stroke-width:0.35;stroke-miterlimit:4;stroke-dasharray:none;fill:none;fill-opacity:1;fill-rule: evenodd"/>
<path id="Shape2DView_nwe0012"  d="M 43.51 -6.620423379916482 L 43.50999999999999 -5.713827771824794 L 43.50999999999999 -4.78925434765027 L 43.50999999999999 -3.8496121574445845 L 43.50999999999999 -2.8978576631722537 L 43.50999999999999 -1.9369854365875039 L 43.50999999999999 -0.9700187372036613 L 43.50999999999999 -2.0694557179012918e-13 L 43.50999999999999 0.9700187372032474 L 43.50999999999999 1.9369854365870944 L 43.50999999999999 2.897857663171844 L 43.50999999999999 3.849612157444179 L 43.50999999999999 4.789254347649871 L 43.50999999999999 5.713827771824403 L 43.51 6.620423379916098 " stroke="#191919" stroke-width="0.35 px" style="stroke-width:0.35;stroke-miterlimit:4;stroke-dasharray:none;fill:none;fill-opacity:1;fill-rule: evenodd"/>
<path id="Shape2DView_nwe0013"  d="M 43.3 6.700786900712674 A 0.21 0.0803635 -5.26972e-15 0 0 43.51 6.62042" stroke="#191919" stroke-width="0.35 px" style="stroke-width:0.35;stroke-miterlimit:4;stroke-dasharray:none;fill:none;fill-opacity:1;fill-rule: evenodd"/>
<path id="Shape2DView_nwe0014"  d="M 1.7 -6.700786900713 L 2.564979142851 -6.700786900713 " stroke="#191919" stroke-width="0.35 px" style="stroke-width:0.35;stroke-miterlimit:4;stroke-dasharray:none;fill:none;fill-opacity:1;fill-rule: evenodd"/>
<path id="Shape2DView_nwe0015"  d="M 2.564979142851 -6.700786900713 L 2.769338405373 -6.670030593981 " stroke="#191919" stroke-width="0.35 px" style="stroke-width:0.35;stroke-miterlimit:4;stroke-dasharray:none;fill:none;fill-opacity:1;fill-rule: evenodd"/>
<path id="Shape2DView_nwe0016"  d="M 2.769338405372611 -6.670030593981022 A 0.485412 0.185759 -180 0 0 3.43066 -6.67003" stroke="#191919" stroke-width="0.35 px" style="stroke-width:0.35;stroke-miterlimit:4;stroke-dasharray:none;fill:none;fill-opacity:1;fill-rule: evenodd"/>
<path id="Shape2DView_nwe0017"  d="M 3.430661594627 -6.670030593981 L 3.6350208571490006 -6.700786900713 " stroke="#191919" stroke-width="0.35 px" style="stroke-width:0.35;stroke-miterlimit:4;stroke-dasharray:none;fill:none;fill-opacity:1;fill-rule: evenodd"/>
<path id="Shape2DView_nwe0018"  d="M 1.49 -6.6204233799160015 A 0.21 0.0803635 5.26972e-15 0 1 1.7 -6.70079" stroke="#191919" stroke-width="0.35 px" style="stroke-width:0.35;stroke-miterlimit:4;stroke-dasharray:none;fill:none;fill-opacity:1;fill-rule: evenodd"/>
<path id="Shape2DView_nwe0019"  d="M 1.7 6.700786900713 L 2.564979142851 6.700786900713 " stroke="#191919" stroke-width="0.35 px" style="stroke-width:0.35;stroke-miterlimit:4;stroke-dasharray:none;fill:none;fill-opacity:1;fill-rule: evenodd"/>
<path id="Shape2DView_nwe0020"  d="M 2.564979142851 6.700786900713 L 2.769338405373 6.670030593981 " stroke="#191919" stroke-width="0.35 px" style="stroke-width:0.35;stroke-miterlimit:4;stroke-dasharray:none;fill:none;fill-opacity:1;fill-rule: evenodd"/>
<path id="Shape2DView_nwe0021"  d="M 2.769338405372611 6.670030593981022 A 0.485412 0.185759 180 0 1 3.43066 6.67003" stroke="#191919" stroke-width="0.35 px" style="stroke-width:0.35;stroke-miterlimit:4;stroke-dasharray:none;fill:none;fill-opacity:1;fill-rule: evenodd"/>
<path id="Shape2DView_nwe0022"  d="M 3.430661594627 6.670030593981 L 3.6350208571490006 6.700786900713 " stroke="#191919" stroke-width="0.35 px" style="stroke-width:0.35;stroke-miterlimit:4;stroke-dasharray:none;fill:none;fill-opacity:1;fill-rule: evenodd"/>
<path id="Shape2DView_nwe0023"  d="M 1.49 6.6204233799160015 A 0.21 0.0803635 -5.26972e-15 0 0 1.7 6.70079" stroke="#191919" stroke-width="0.35 px" style="stroke-width:0.35;stroke-miterlimit:4;stroke-dasharray:none;fill:none;fill-opacity:1;fill-rule: evenodd"/>
<path id="Shape2DView_nwe0024"  d="M 1.4899999999999964 -6.620423379916482 L 1.4899999999999964 -5.713827771824794 L 1.4899999999999962 -4.78925434765027 L 1.4899999999999962 -3.8496121574445845 L 1.4899999999999962 -2.8978576631722537 L 1.4899999999999962 -1.9369854365875039 L 1.4899999999999962 -0.9700187372036613 L 1.4899999999999962 -2.0694557179012918e-13 L 1.4899999999999962 0.9700187372032474 L 1.4899999999999962 1.9369854365870944 L 1.4899999999999962 2.897857663171844 L 1.4899999999999962 3.849612157444179 L 1.4899999999999962 4.789254347649871 L 1.4899999999999964 5.713827771824403 L 1.4899999999999964 6.620423379916098 " stroke="#191919" stroke-width="0.35 px" style="stroke-width:0.35;stroke-miterlimit:4;stroke-dasharray:none;fill:none;fill-opacity:1;fill-rule: evenodd"/>
<path id="Shape2DView_nwe0025"  d="M 1.4999999999999962 6.644927075526406 L 1.4999999999999962 7.962265917979965 L 1.4999999999999964 9.223402233669127 L 1.4999999999999967 10.419434153670373 L 1.499999999999997 11.541919355573551 L 1.4999999999999971 12.582934654540017 L 1.4999999999999973 13.535131929971312 L 1.4999999999999976 14.39178999302387 L 1.499999999999998 15.146862028857221 L 1.4999999999999982 15.795018278739349 L 1.4999999999999984 16.331683660732928 L 1.499999999999999 16.753070063412682 L 1.4999999999999991 17.056203084665103 L 1.4999999999999996 17.238943026831805 L 1.4999999999999998 17.3 " stroke="#191919" stroke-width="0.35 px" style="stroke-width:0.35;stroke-miterlimit:4;stroke-dasharray:none;fill:none;fill-opacity:1;fill-rule: evenodd"/>
<path id="Shape2DView_nwe0026"  d="M 1.5000000000000002 -17.3 L 1.4999999999999998 -17.23894302683173 L 1.4999999999999996 -17.05620308466497 L 1.4999999999999991 -16.7530700634125 L 1.499999999999999 -16.33168366073271 L 1.4999999999999984 -15.795018278739107 L 1.4999999999999982 -15.146862028856976 L 1.4999999999999978 -14.391789993023627 L 1.4999999999999976 -13.535131929971081 L 1.4999999999999973 -12.582934654539816 L 1.4999999999999971 -11.541919355573388 L 1.499999999999997 -10.419434153670256 L 1.4999999999999967 -9.223402233669065 L 1.4999999999999964 -7.962265917979966 L 1.4999999999999962 -6.644927075526401 " stroke="#191919" stroke-width="0.35 px" style="stroke-width:0.35;stroke-miterlimit:4;stroke-dasharray:none;fill:none;fill-opacity:1;fill-rule: evenodd"/>
<path id="Shape2DView_nwe0027"  d="M 43.49999999999999 6.6449270755264145 L 43.49999999999999 7.96226591798002 L 43.5 9.223402233669226 L 43.5 10.419434153670508 L 43.5 11.541919355573718 L 43.5 12.582934654540207 L 43.5 13.535131929971516 L 43.5 14.391789993024084 L 43.5 15.14686202885743 L 43.5 15.795018278739548 L 43.5 16.33168366073311 L 43.5 16.75307006341283 L 43.5 17.056203084665214 L 43.5 17.238943026831862 L 43.5 17.3 " stroke="#191919" stroke-width="0.35 px" style="stroke-width:0.35;stroke-miterlimit:4;stroke-dasharray:none;fill:none;fill-opacity:1;fill-rule: evenodd"/>
<path id="Shape2DView_nwe0028"  d="M 43.5 17.3 L 43.5 17.272880467416577 L 43.5 17.191606894989786 L 43.5 17.056434092117957 L 43.5 16.867785853394377 L 43.5 16.62625362992388 L 43.5 16.332594675001772 L 43.5 15.987729669968674 L 43.5 15.592739837684805 L 43.5 15.148863552673486 L 43.5 14.657492458561808 L 43.5 14.12016710499108 L 43.5 13.53857211767622 L 43.5 12.914530916756974 L 43.5 12.250000000000002 " stroke="#191919" stroke-width="0.35 px" style="stroke-width:0.35;stroke-miterlimit:4;stroke-dasharray:none;fill:none;fill-opacity:1;fill-rule: evenodd"/>
<path id="Shape2DView_nwe0029"  d="M 43.5 -12.249999999999998 L 43.5 -12.91453091675696 L 43.5 -13.538572117676207 L 43.5 -14.120167104991072 L 43.5 -14.657492458561803 L 43.5 -15.148863552673483 L 43.5 -15.592739837684803 L 43.5 -15.987729669968676 L 43.5 -16.332594675001776 L 43.5 -16.626253629923884 L 43.5 -16.86778585339438 L 43.5 -17.05643409211796 L 43.5 -17.19160689498979 L 43.5 -17.27288046741658 L 43.5 -17.3 " stroke="#191919" stroke-width="0.35 px" style="stroke-width:0.35;stroke-miterlimit:4;stroke-dasharray:none;fill:none;fill-opacity:1;fill-rule: evenodd"/>
<path id="Shape2DView_nwe0030"  d="M 43.5 -17.3 L 43.5 -17.238943026831866 L 43.5 -17.05620308466521 L 43.5 -16.75307006341283 L 43.5 -16.331683660733106 L 43.5 -15.795018278739548 L 43.5 -15.14686202885743 L 43.5 -14.391789993024085 L 43.5 -13.535131929971522 L 43.5 -12.582934654540216 L 43.5 -11.541919355573732 L 43.5 -10.419434153670524 L 43.5 -9.223402233669248 L 43.49999999999999 -7.962265917980047 L 43.49999999999999 -6.644927075526417 " stroke="#191919" stroke-width="0.35 px" style="stroke-width:0.35;stroke-miterlimit:4;stroke-dasharray:none;fill:none;fill-opacity:1;fill-rule: evenodd"/>
<path id="Shape2DView_nwe0031"  d="M 0.533333333333 4.375 L 0.5333333333329998 4.265309615795478 L 0.5333333333329996 3.941738797073084 L 0.5333333333329995 3.420512735797631 L 0.5333333333329993 2.7277678831319596 L 0.5333333333329991 1.8982413586393172 L 0.533333333332999 0.973529086058876 L 0.533333333332999 5.357829746269671e-16 L 0.533333333332999 -0.973529086058875 L 0.5333333333329991 -1.8982413586393163 L 0.5333333333329993 -2.7277678831319587 L 0.5333333333329995 -3.42051273579763 L 0.5333333333329996 -3.941738797073083 L 0.5333333333329998 -4.265309615795478 L 0.533333333333 -4.375 " stroke="#191919" stroke-width="0.35 px" style="stroke-width:0.35;stroke-miterlimit:4;stroke-dasharray:none;fill:none;fill-opacity:1;fill-rule: evenodd"/>
<path id="Shape2DView_nwe0032"  d="M 44.566666666667 4.375 L 44.566666666667 4.265309615795478 L 44.566666666667 3.941738797073084 L 44.566666666667 3.420512735797631 L 44.566666666667 2.7277678831319596 L 44.566666666667 1.8982413586393172 L 44.566666666667 0.973529086058876 L 44.566666666667 5.357829746269671e-16 L 44.566666666667 -0.973529086058875 L 44.566666666667 -1.8982413586393163 L 44.566666666667 -2.7277678831319587 L 44.566666666667 -3.42051273579763 L 44.566666666667 -3.941738797073083 L 44.566666666667 -4.265309615795478 L 44.566666666667 -4.375 " stroke="#191919" stroke-width="0.35 px" style="stroke-width:0.35;stroke-miterlimit:4;stroke-dasharray:none;fill:none;fill-opacity:1;fill-rule: evenodd"/>
<path id="Shape2DView_nwe0033"  d="M 1.059860943247506e-15 0.45 A 0.45 0.45 0 0 1 9.94454e-16 -0.45" stroke="#191919" stroke-width="0.35 px" style="stroke-width:0.35;stroke-miterlimit:4;stroke-dasharray:none;fill:none;fill-opacity:1;fill-rule: evenodd"/>
<path id="Shape2DView_nwe0034"  d="M 0.0 -0.4500000000000001 L 0.003040887966198169 -0.4500000000000001 L 0.012143002976741646 -0.4500000000000001 L 0.027244837227180407 -0.4500000000000001 L 0.04824433963742625 -0.4500000000000001 L 0.07499960546486695 -0.4500000000000001 L 0.1073298352297537 -0.4500000000000001 L 0.1450165564728939 -0.4500000000000001 L 0.18780510008959084 -0.45000000000000007 L 0.23540632126345495 -0.45000000000000007 L 0.2874985533708331 -0.45000000000000007 L 0.34372978165228607 -0.45000000000000007 L 0.4037200219624678 -0.45000000000000007 L 0.46706388852393727 -0.45000000000000007 L 0.5333333333332291 -0.45000000000000007 " stroke="#191919" stroke-width="0.35 px" style="stroke-width:0.35;stroke-miterlimit:4;stroke-dasharray:none;fill:none;fill-opacity:1;fill-rule: evenodd"/>
<path id="Shape2DView_nwe0035"  d="M 45.0 0.45 L 44.99758573462383 0.45 L 44.99035589111157 0.45 L 44.978349257820696 0.45 L 44.96163025074907 0.45 L 44.9402885679409 0.45 L 44.91443870825369 0.45 L 44.884219357067934 0.45 L 44.849792642235315 0.45 L 44.811343264257246 0.45 L 44.769077505360364 0.45 L 44.72322212278534 0.45 L 44.67402313222653 0.45 L 44.621744487949385 0.45 L 44.56666666666677 0.45 " stroke="#191919" stroke-width="0.35 px" style="stroke-width:0.35;stroke-miterlimit:4;stroke-dasharray:none;fill:none;fill-opacity:1;fill-rule: evenodd"/>
<path id="Shape2DView_nwe0036"  d="M 45.0 -0.45 A 0.45 0.45 0 0 1 45 0.45" stroke="#191919" stroke-width="0.35 px" style="stroke-width:0.35;stroke-miterlimit:4;stroke-dasharray:none;fill:none;fill-opacity:1;fill-rule: evenodd"/>
<path id="Shape2DView_nwe0037"  d="M 3.635020857149 -6.700786902698751 C 3.635020857148999 -2.4668341695214737 3.6350208571489993 2.466824864399606 3.635020857149 6.700786902699016 " stroke="#191919" stroke-width="0.35 px" style="stroke-width:0.35;stroke-miterlimit:4;stroke-dasharray:none;fill:none;fill-opacity:1;fill-rule: evenodd"/>
<path id="Shape2DView_nwe0038"  d="M 43.29999999999999 -6.700786900713156 L 43.29999999999999 -5.783186374835379 L 43.29999999999999 -4.847389805049485 L 43.29999999999999 -3.896341553575401 L 43.29999999999999 -2.9330339700662327 L 43.29999999999999 -1.9604979765691786 L 43.29999999999999 -0.9817935311234463 L 43.29999999999999 -1.7674750552032492e-13 L 43.29999999999999 0.9817935311230936 L 43.29999999999999 1.9604979765688286 L 43.29999999999999 2.9330339700658854 L 43.29999999999999 3.8963415535750583 L 43.29999999999999 4.847389805049149 L 43.29999999999999 5.783186374835051 L 43.29999999999999 6.700786900712829 " stroke="#191919" stroke-width="0.35 px" style="stroke-width:0.35;stroke-miterlimit:4;stroke-dasharray:none;fill:none;fill-opacity:1;fill-rule: evenodd"/>
<path id="Shape2DView_nwe0039"  d="M 3.430661594627 -6.670030592004232 C 3.430661594626998 -2.4555115379825034 3.4306615946270007 2.4555022973847107 3.430661594627 6.6700305920044025 " stroke="#191919" stroke-width="0.35 px" style="stroke-width:0.35;stroke-miterlimit:4;stroke-dasharray:none;fill:none;fill-opacity:1;fill-rule: evenodd"/>
<path id="Shape2DView_nwe0040"  d="M 2.564979142851 -6.700786902698751 C 2.5649791428509983 -2.4668341695214737 2.5649791428510005 2.466824864399606 2.564979142851 6.700786902699016 " stroke="#191919" stroke-width="0.35 px" style="stroke-width:0.35;stroke-miterlimit:4;stroke-dasharray:none;fill:none;fill-opacity:1;fill-rule: evenodd"/>
<path id="Shape2DView_nwe0041"  d="M 1.6999999999999964 -6.700786900713156 L 1.6999999999999962 -5.783186374835379 L 1.6999999999999962 -4.847389805049485 L 1.6999999999999962 -3.896341553575401 L 1.6999999999999962 -2.9330339700662327 L 1.6999999999999962 -1.9604979765691786 L 1.6999999999999962 -0.9817935311234463 L 1.699999999999996 -1.7674750552032492e-13 L 1.6999999999999962 0.9817935311230936 L 1.6999999999999962 1.9604979765688286 L 1.6999999999999962 2.9330339700658854 L 1.6999999999999962 3.8963415535750583 L 1.6999999999999962 4.847389805049149 L 1.6999999999999962 5.783186374835051 L 1.6999999999999964 6.700786900712829 " stroke="#191919" stroke-width="0.35 px" style="stroke-width:0.35;stroke-miterlimit:4;stroke-dasharray:none;fill:none;fill-opacity:1;fill-rule: evenodd"/>
<path id="Shape2DView_nwe0042"  d="M 1.6999999999999962 6.700786900713 L 1.6999999999999962 8.035599802420084 L 1.6999999999999964 9.313567506035005 L 1.6999999999999966 10.525649450920895 L 1.6999999999999968 11.663271163490828 L 1.699999999999997 12.7183849144906 L 1.6999999999999973 13.683526650002634 L 1.6999999999999975 14.551868793431382 L 1.6999999999999977 15.317268544940033 L 1.6999999999999982 15.974311336660103 L 1.6999999999999984 16.518349136264355 L 1.6999999999999988 16.945533327937103 L 1.699999999999999 17.25284193813629 L 1.6999999999999995 17.438101013547694 L 1.6999999999999997 17.5 " stroke="#191919" stroke-width="0.35 px" style="stroke-width:0.35;stroke-miterlimit:4;stroke-dasharray:none;fill:none;fill-opacity:1;fill-rule: evenodd"/>
<path id="Shape2DView_nwe0043"  d="M 1.7000000000000002 -17.5 L 1.6999999999999997 -17.43810101354763 L 1.6999999999999993 -17.252841938136168 L 1.699999999999999 -16.945533327936943 L 1.6999999999999986 -16.518349136264163 L 1.6999999999999984 -15.974311336659895 L 1.6999999999999982 -15.31726854493982 L 1.6999999999999977 -14.55186879343117 L 1.6999999999999975 -13.683526650002435 L 1.6999999999999973 -12.718384914490423 L 1.6999999999999968 -11.663271163490684 L 1.6999999999999966 -10.525649450920792 L 1.6999999999999966 -9.313567506034948 L 1.6999999999999964 -8.03559980242008 L 1.6999999999999962 -6.700786900712997 " stroke="#191919" stroke-width="0.35 px" style="stroke-width:0.35;stroke-miterlimit:4;stroke-dasharray:none;fill:none;fill-opacity:1;fill-rule: evenodd"/>
<path id="Shape2DView_nwe0044"  d="M 2.5649791428510063 6.700786900713002 C 2.5649791401965154 13.091058270003538 2.5649791265024358 17.595078715342723 2.5649791411380183 17.50000042509927 " stroke="#191919" stroke-width="0.35 px" style="stroke-width:0.35;stroke-miterlimit:4;stroke-dasharray:none;fill:none;fill-opacity:1;fill-rule: evenodd"/>
<path id="Shape2DView_nwe0045"  d="M 2.564979141137694 -17.500000425093074 C 2.5649791265021724 -17.595078715336623 2.5649791401964044 -13.091058270003936 2.564979142851005 -6.70078690071573 " stroke="#191919" stroke-width="0.35 px" style="stroke-width:0.35;stroke-miterlimit:4;stroke-dasharray:none;fill:none;fill-opacity:1;fill-rule: evenodd"/>
<path id="Shape2DView_nwe0046"  d="M 2.769338405373 6.670030593981004 C 2.7693384058225 13.030971786324757 2.769338408140751 17.51428179493035 2.7693384056629573 17.419630337734574 " stroke="#191919" stroke-width="0.35 px" style="stroke-width:0.35;stroke-miterlimit:4;stroke-dasharray:none;fill:none;fill-opacity:1;fill-rule: evenodd"/>
<path id="Shape2DView_nwe0047"  d="M 2.7693384056628263 -17.419630337730656 C 2.7693384081405483 -17.514281794927122 2.7693384058223662 -13.030971786316195 2.769338405373 -6.670030593976956 " stroke="#191919" stroke-width="0.35 px" style="stroke-width:0.35;stroke-miterlimit:4;stroke-dasharray:none;fill:none;fill-opacity:1;fill-rule: evenodd"/>
<path id="Shape2DView_nwe0048"  d="M 3.4306615946270007 6.670030593981 C 3.430661594177782 13.030971786324654 3.4306615918597485 17.51428179493063 3.4306615943373613 17.41963033773453 " stroke="#191919" stroke-width="0.35 px" style="stroke-width:0.35;stroke-miterlimit:4;stroke-dasharray:none;fill:none;fill-opacity:1;fill-rule: evenodd"/>
<path id="Shape2DView_nwe0049"  d="M 3.430661594337105 -17.419630337728755 C 3.4306615918593044 -17.514281794925214 3.4306615941774847 -13.030971786317318 3.430661594627006 -6.670030593978941 " stroke="#191919" stroke-width="0.35 px" style="stroke-width:0.35;stroke-miterlimit:4;stroke-dasharray:none;fill:none;fill-opacity:1;fill-rule: evenodd"/>
<path id="Shape2DView_nwe0050"  d="M 3.635020857148993 6.700786900713002 C 3.635020859803761 13.091058270003682 3.635020873498056 17.595078715342755 3.6350208588623913 17.500000425099323 " stroke="#191919" stroke-width="0.35 px" style="stroke-width:0.35;stroke-miterlimit:4;stroke-dasharray:none;fill:none;fill-opacity:1;fill-rule: evenodd"/>
<path id="Shape2DView_nwe0051"  d="M 3.635020858862183 -17.500000425095223 C 3.6350208734978335 -17.59507871533952 3.635020859803641 -13.091058269996367 3.6350208571489953 -6.700786900713021 " stroke="#191919" stroke-width="0.35 px" style="stroke-width:0.35;stroke-miterlimit:4;stroke-dasharray:none;fill:none;fill-opacity:1;fill-rule: evenodd"/>
<path id="Shape2DView_nwe0052"  d="M 43.29999999999999 6.700786900713 L 43.29999999999999 8.035599802420059 L 43.29999999999999 9.313567506034957 L 43.3 10.525649450920824 L 43.3 11.663271163490741 L 43.3 12.718384914490498 L 43.3 13.683526650002523 L 43.3 14.551868793431268 L 43.3 15.317268544939918 L 43.3 15.974311336659992 L 43.3 16.518349136264256 L 43.3 16.945533327937017 L 43.3 17.25284193813623 L 43.3 17.438101013547662 L 43.3 17.5 " stroke="#191919" stroke-width="0.35 px" style="stroke-width:0.35;stroke-miterlimit:4;stroke-dasharray:none;fill:none;fill-opacity:1;fill-rule: evenodd"/>
<path id="Shape2DView_nwe0053"  d="M 43.3 -17.5 L 43.3 -17.438101013547662 L 43.3 -17.252841938136232 L 43.3 -16.945533327937028 L 43.3 -16.518349136264263 L 43.3 -15.974311336660003 L 43.3 -15.317268544939934 L 43.3 -14.55186879343128 L 43.3 -13.683526650002541 L 43.3 -12.71838491449052 L 43.3 -11.663271163490764 L 43.3 -10.525649450920854 L 43.3 -9.313567506034989 L 43.29999999999999 -8.035599802420094 L 43.29999999999999 -6.700786900712997 " stroke="#191919" stroke-width="0.35 px" style="stroke-width:0.35;stroke-miterlimit:4;stroke-dasharray:none;fill:none;fill-opacity:1;fill-rule: evenodd"/>
<path id="Shape2DView_nwe0054"  d="M 2.769338405373 -6.670030592004232 C 2.769338405372999 -2.4555115379825034 2.769338405373 2.455502297384711 2.769338405373 6.670030592004403 " stroke="#191919" stroke-width="0.35 px" style="stroke-width:0.35;stroke-miterlimit:4;stroke-dasharray:none;fill:none;fill-opacity:1;fill-rule: evenodd"/>
<path id="Shape2DView_nwe0056"  d="M 1.6999999999999997 17.499999999999737 Q 1.5194556562952863 17.483885221204783 1.5000000000000038 17.29999999999974 " stroke="#191919" stroke-width="0.35 px" style="stroke-width:0.35;stroke-miterlimit:4;stroke-dasharray:none;fill:none;fill-opacity:1;fill-rule: evenodd"/>
<path id="Shape2DView_nwe0057"  d="M 1.7000000000000004 -17.499999999999737 Q 1.5194556562952868 -17.483885221204787 1.5000000000000042 -17.299999999999738 " stroke="#191919" stroke-width="0.35 px" style="stroke-width:0.35;stroke-miterlimit:4;stroke-dasharray:none;fill:none;fill-opacity:1;fill-rule: evenodd"/>
<path id="Shape2DView_nwe0058"  d="M 1.7 -17.5 L 2.564979141125902 -17.5 " stroke="#191919" stroke-width="0.35 px" style="stroke-width:0.35;stroke-miterlimit:4;stroke-dasharray:none;fill:none;fill-opacity:1;fill-rule: evenodd"/>
<path id="Shape2DView_nwe0059"  d="M 1.6999999999999997 17.5 L 2.5649791411262255 17.5 " stroke="#191919" stroke-width="0.35 px" style="stroke-width:0.35;stroke-miterlimit:4;stroke-dasharray:none;fill:none;fill-opacity:1;fill-rule: evenodd"/>
<path id="Shape2DView_nwe0060"  d="M 2.769338405662952 17.419630337736898 L 2.5649791411380236 17.50000042510147 " stroke="#191919" stroke-width="0.35 px" style="stroke-width:0.35;stroke-miterlimit:4;stroke-dasharray:none;fill:none;fill-opacity:1;fill-rule: evenodd"/>
<path id="Shape2DView_nwe0061"  d="M 2.7693384056628205 -17.419630337733317 L 2.5649791411377 -17.5000004250956 " stroke="#191919" stroke-width="0.35 px" style="stroke-width:0.35;stroke-miterlimit:4;stroke-dasharray:none;fill:none;fill-opacity:1;fill-rule: evenodd"/>
<path id="Shape2DView_nwe0062"  d="M 2.7693382067874035 17.41963008215391 Q 3.0945180049471235 17.16133775507487 3.4306617932127477 17.41963008215405 " stroke="#191919" stroke-width="0.35 px" style="stroke-width:0.35;stroke-miterlimit:4;stroke-dasharray:none;fill:none;fill-opacity:1;fill-rule: evenodd"/>
<path id="Shape2DView_nwe0063"  d="M 2.7693382067892824 -17.419630082152164 Q 3.094518004951184 -17.161337755077064 3.4306617932097323 -17.41963008215124 " stroke="#191919" stroke-width="0.35 px" style="stroke-width:0.35;stroke-miterlimit:4;stroke-dasharray:none;fill:none;fill-opacity:1;fill-rule: evenodd"/>
<path id="Shape2DView_nwe0064"  d="M 3.6350208588623834 17.500000425101536 L 3.430661594337307 17.419630337736805 " stroke="#191919" stroke-width="0.35 px" style="stroke-width:0.35;stroke-miterlimit:4;stroke-dasharray:none;fill:none;fill-opacity:1;fill-rule: evenodd"/>
<path id="Shape2DView_nwe0065"  d="M 3.6350208588621786 -17.500000425097404 L 3.4306615943369154 -17.419630337730858 " stroke="#191919" stroke-width="0.35 px" style="stroke-width:0.35;stroke-miterlimit:4;stroke-dasharray:none;fill:none;fill-opacity:1;fill-rule: evenodd"/>
<path id="Shape2DView_nwe0066"  d="M 3.6350208588739785 -17.5 L 43.29999999999999 -17.5 " stroke="#191919" stroke-width="0.35 px" style="stroke-width:0.35;stroke-miterlimit:4;stroke-dasharray:none;fill:none;fill-opacity:1;fill-rule: evenodd"/>
<path id="Shape2DView_nwe0067"  d="M 3.635020858874184 17.5 L 43.29999999999999 17.5 " stroke="#191919" stroke-width="0.35 px" style="stroke-width:0.35;stroke-miterlimit:4;stroke-dasharray:none;fill:none;fill-opacity:1;fill-rule: evenodd"/>
<path id="Shape2DView_nwe0068"  d="M 43.3 17.5 Q 43.48054434370471 17.483885221205043 43.5 17.299999999999997 " stroke="#191919" stroke-width="0.35 px" style="stroke-width:0.35;stroke-miterlimit:4;stroke-dasharray:none;fill:none;fill-opacity:1;fill-rule: evenodd"/>
<path id="Shape2DView_nwe0069"  d="M 43.3 -17.5 Q 43.48054434370471 -17.483885221205043 43.5 -17.299999999999997 " stroke="#191919" stroke-width="0.35 px" style="stroke-width:0.35;stroke-miterlimit:4;stroke-dasharray:none;fill:none;fill-opacity:1;fill-rule: evenodd"/>
<path id="Shape2DView_nwe0070"  d="M 0.5333333333330001 -4.375 L 1.4899999999999962 -4.375 " stroke="#191919" stroke-width="0.35 px" style="stroke-width:0.35;stroke-miterlimit:4;stroke-dasharray:none;fill:none;fill-opacity:1;fill-rule: evenodd"/>
<path id="Shape2DView_nwe0071"  d="M 0.5333333333330001 4.375 L 1.4899999999999962 4.375 " stroke="#191919" stroke-width="0.35 px" style="stroke-width:0.35;stroke-miterlimit:4;stroke-dasharray:none;fill:none;fill-opacity:1;fill-rule: evenodd"/>
<path id="Shape2DView_nwe0072"  d="M 44.56666666666699 4.375 L 43.50999999999999 4.375 " stroke="#191919" stroke-width="0.35 px" style="stroke-width:0.35;stroke-miterlimit:4;stroke-dasharray:none;fill:none;fill-opacity:1;fill-rule: evenodd"/>
<path id="Shape2DView_nwe0073"  d="M 44.56666666666699 -4.375 L 43.50999999999999 -4.375 " stroke="#191919" stroke-width="0.35 px" style="stroke-width:0.35;stroke-miterlimit:4;stroke-dasharray:none;fill:none;fill-opacity:1;fill-rule: evenodd"/>
<path id="Shape2DView_nwe0074"  d="M 0.5333333332973265 0.4500000000000017 Q 0.02433858660562674 0.4500000000000013 1.0547118733938987e-15 0.45 " stroke="#191919" stroke-width="0.35 px" style="stroke-width:0.35;stroke-miterlimit:4;stroke-dasharray:none;fill:none;fill-opacity:1;fill-rule: evenodd"/>
<path id="Shape2DView_nwe0075"  d="M 44.56666666678559 -0.4499999999999996 Q 44.98446708236756 -0.44999999999999984 45.0 -0.45 " stroke="#191919" stroke-width="0.35 px" style="stroke-width:0.35;stroke-miterlimit:4;stroke-dasharray:none;fill:none;fill-opacity:1;fill-rule: evenodd"/>
<title>b'Shape2DView'</title>
</g>
<g id="Rectangle" transform="translate(0.905653,17.958935) scale(1,-1)">
<rect fill="#ff0000" id="origin" width="1" height="1" x="0" y="0" />
<title>b'Rectangle'</title>
</g>
</svg>