<?xml version="1.0"?>
<!DOCTYPE svg PUBLIC "-//W3C//DTD SVG 1.1//EN" "http://www.w3.org/Graphics/SVG/1.1/DTD/svg11.dtd">
<svg width="45.791306746422016mm" height="21.89786875973377mm" viewBox="0 0 45.791306746422016 21.89786875973377" xmlns="http://www.w3.org/2000/svg" version="1.1">
<g id="Shape2DView" transform="translate(0.895653,10.948934) scale(1,-1)">
<path id="Shape2DView_nwe0000"  d="M 3.2 4.022002874157 L 4.064979142851 4.022002874157 " stroke="#191919" stroke-width="0.35 px" style="stroke-width:0.35;stroke-miterlimit:4;stroke-dasharray:none;fill:none;fill-opacity:1;fill-rule: evenodd"/>
<path id="Shape2DView_nwe0001"  d="M 3.2 -4.022002874157 L 4.064979142851 -4.022002874157 " stroke="#191919" stroke-width="0.35 px" style="stroke-width:0.35;stroke-miterlimit:4;stroke-dasharray:none;fill:none;fill-opacity:1;fill-rule: evenodd"/>
<path id="Shape2DView_nwe0002"  d="M 4.064979142851 -4.022002874157 L 4.269338405373 -3.991246567426 " stroke="#191919" stroke-width="0.35 px" style="stroke-width:0.35;stroke-miterlimit:4;stroke-dasharray:none;fill:none;fill-opacity:1;fill-rule: evenodd"/>
<path id="Shape2DView_nwe0003"  d="M 4.269338405372421 -3.9912465674250903 A 0.485412 0.185759 -180 0 0 4.93066 -3.99125" stroke="#191919" stroke-width="0.35 px" style="stroke-width:0.35;stroke-miterlimit:4;stroke-dasharray:none;fill:none;fill-opacity:1;fill-rule: evenodd"/>
<path id="Shape2DView_nwe0004"  d="M 4.930661594627 -3.991246567426 L 5.135020857149 -4.022002874157 " stroke="#191919" stroke-width="0.35 px" style="stroke-width:0.35;stroke-miterlimit:4;stroke-dasharray:none;fill:none;fill-opacity:1;fill-rule: evenodd"/>
<path id="Shape2DView_nwe0005"  d="M 5.135020857149 -4.022002874157 L 40.8 -4.022002874157 " stroke="#191919" stroke-width="0.35 px" style="stroke-width:0.35;stroke-miterlimit:4;stroke-dasharray:none;fill:none;fill-opacity:1;fill-rule: evenodd"/>
<path id="Shape2DView_nwe0006"  d="M 40.8 -4.022002874156674 A 0.21 0.0803635 5.26972e-15 0 1 41.01 -3.94164" stroke="#191919" stroke-width="0.35 px" style="stroke-width:0.35;stroke-miterlimit:4;stroke-dasharray:none;fill:none;fill-opacity:1;fill-rule: evenodd"/>
<path id="Shape2DView_nwe0007"  d="M 4.269338405372611 -3.9874197331020227 A 0.485412 0.185759 -180 0 0 4.93066 -3.98742" stroke="#191919" stroke-width="0.35 px" style="stroke-width:0.35;stroke-miterlimit:4;stroke-dasharray:none;fill:none;fill-opacity:1;fill-rule: evenodd"/>
<path id="Shape2DView_nwe0008"  d="M 2.99 -3.94163935336 A 0.21 0.0803635 5.26972e-15 0 1 3.2 -4.022" stroke="#191919" stroke-width="0.35 px" style="stroke-width:0.35;stroke-miterlimit:4;stroke-dasharray:none;fill:none;fill-opacity:1;fill-rule: evenodd"/>
<path id="Shape2DView_nwe0009"  d="M 4.064979142851 4.022002874157 L 4.269338405373 3.991246567426 " stroke="#191919" stroke-width="0.35 px" style="stroke-width:0.35;stroke-miterlimit:4;stroke-dasharray:none;fill:none;fill-opacity:1;fill-rule: evenodd"/>
<path id="Shape2DView_nwe0010"  d="M 2.989999999999998 -3.94163935336068 L 2.989999999999998 -3.4018743381384833 L 2.989999999999998 -2.851405767676217 L 2.989999999999998 -2.291965619750311 L 2.989999999999998 -1.7253141000390624 L 2.989999999999998 -1.1532341038643517 L 2.989999999999998 -0.5775256065433592 L 2.989999999999998 -2.851052727237402e-13 L 2.989999999999998 0.5775256065427898 L 2.989999999999998 1.1532341038637846 L 2.989999999999998 1.7253141000385002 L 2.989999999999998 2.2919656197497558 L 2.989999999999998 2.8514057676756694 L 2.989999999999998 3.401874338137945 L 2.989999999999998 3.941639353360153 " stroke="#191919" stroke-width="0.35 px" style="stroke-width:0.35;stroke-miterlimit:4;stroke-dasharray:none;fill:none;fill-opacity:1;fill-rule: evenodd"/>
<path id="Shape2DView_nwe0011"  d="M 2.99 3.94163935336 A 0.21 0.0803635 -5.26972e-15 0 0 3.2 4.022" stroke="#191919" stroke-width="0.35 px" style="stroke-width:0.35;stroke-miterlimit:4;stroke-dasharray:none;fill:none;fill-opacity:1;fill-rule: evenodd"/>
<path id="Shape2DView_nwe0012"  d="M 4.269338405372421 3.9912465674250903 A 0.485412 0.185759 180 0 1 4.93066 3.99125" stroke="#191919" stroke-width="0.35 px" style="stroke-width:0.35;stroke-miterlimit:4;stroke-dasharray:none;fill:none;fill-opacity:1;fill-rule: evenodd"/>
<path id="Shape2DView_nwe0013"  d="M 4.930661594627 3.991246567426 L 5.135020857149 4.022002874157 " stroke="#191919" stroke-width="0.35 px" style="stroke-width:0.35;stroke-miterlimit:4;stroke-dasharray:none;fill:none;fill-opacity:1;fill-rule: evenodd"/>
<path id="Shape2DView_nwe0014"  d="M 5.135020857149 4.022002874157 L 40.8 4.022002874157 " stroke="#191919" stroke-width="0.35 px" style="stroke-width:0.35;stroke-miterlimit:4;stroke-dasharray:none;fill:none;fill-opacity:1;fill-rule: evenodd"/>
<path id="Shape2DView_nwe0015"  d="M 40.8 4.022002874156674 A 0.21 0.0803635 -5.26972e-15 0 0 41.01 3.94164" stroke="#191919" stroke-width="0.35 px" style="stroke-width:0.35;stroke-miterlimit:4;stroke-dasharray:none;fill:none;fill-opacity:1;fill-rule: evenodd"/>
<path id="Shape2DView_nwe0016"  d="M 4.269338405372611 3.9874197331020227 A 0.485412 0.185759 180 0 1 4.93066 3.98742" stroke="#191919" stroke-width="0.35 px" style="stroke-width:0.35;stroke-miterlimit:4;stroke-dasharray:none;fill:none;fill-opacity:1;fill-rule: evenodd"/>
<path id="Shape2DView_nwe0017"  d="M 2.999999999999998 3.9661430489704075 L 2.999999999999998 4.749392120982273 L 2.999999999999998 5.4991764524540905 L 2.9999999999999982 6.2102129803170385 L 2.9999999999999982 6.87749166279876 L 2.9999999999999982 7.496310780730077 L 2.9999999999999982 8.062310066376664 L 2.9999999999999987 8.571501426366247 L 2.9999999999999987 9.020297042234224 L 2.999999999999999 9.405534650588155 L 2.999999999999999 9.72449982476428 L 2.999999999999999 9.974945100977088 L 2.9999999999999996 10.155105814196935 L 2.9999999999999996 10.263712532174429 L 3.0 10.3 " stroke="#191919" stroke-width="0.35 px" style="stroke-width:0.35;stroke-miterlimit:4;stroke-dasharray:none;fill:none;fill-opacity:1;fill-rule: evenodd"/>
<path id="Shape2DView_nwe0018"  d="M 3.0 -10.299999999999999 L 3.0 -10.263712532174319 L 2.9999999999999996 -10.155105814196734 L 2.9999999999999996 -9.97494510097681 L 2.999999999999999 -9.724499824763948 L 2.999999999999999 -9.405534650587782 L 2.999999999999999 -9.020297042233832 L 2.9999999999999987 -8.57150142636585 L 2.9999999999999987 -8.06231006637628 L 2.9999999999999982 -7.496310780729723 L 2.9999999999999982 -6.877491662798449 L 2.9999999999999982 -6.210212980316784 L 2.999999999999998 -5.499176452453902 L 2.999999999999998 -4.749392120982164 L 2.999999999999998 -3.9661430489704093 " stroke="#191919" stroke-width="0.35 px" style="stroke-width:0.35;stroke-miterlimit:4;stroke-dasharray:none;fill:none;fill-opacity:1;fill-rule: evenodd"/>
<path id="Shape2DView_nwe0019"  d="M 41.0 3.966143048970407 L 41.0 4.749392120982281 L 41.0 5.499176452454106 L 41.0 6.21021298031706 L 41.0 6.877491662798787 L 41.0 7.496310780730111 L 41.0 8.0623100663767 L 41.0 8.571501426366284 L 41.0 9.020297042234262 L 41.0 9.40553465058819 L 41.0 9.724499824764312 L 41.0 9.974945100977113 L 41.0 10.155105814196956 L 41.0 10.26371253217444 L 41.0 10.3 " stroke="#191919" stroke-width="0.35 px" style="stroke-width:0.35;stroke-miterlimit:4;stroke-dasharray:none;fill:none;fill-opacity:1;fill-rule: evenodd"/>
<path id="Shape2DView_nwe0020"  d="M 41.0 -10.300000000000002 L 41.0 -10.263712532174441 L 41.0 -10.155105814196958 L 41.0 -9.974945100977116 L 41.0 -9.724499824764315 L 41.0 -9.405534650588194 L 41.0 -9.020297042234265 L 41.0 -8.571501426366288 L 41.0 -8.062310066376703 L 41.0 -7.496310780730113 L 41.0 -6.877491662798787 L 41.0 -6.210212980317058 L 41.0 -5.499176452454104 L 41.0 -4.749392120982278 L 41.0 -3.966143048970409 " stroke="#191919" stroke-width="0.35 px" style="stroke-width:0.35;stroke-miterlimit:4;stroke-dasharray:none;fill:none;fill-opacity:1;fill-rule: evenodd"/>
<path id="Shape2DView_nwe0021"  d="M 41.0 3.966143048970407 L 41.0 4.398004216130603 L 41.0 4.807399297910052 L 41.0 5.192237003711993 L 41.0 5.550551488045744 L 41.0 5.880512392548146 L 41.0 6.180434195903493 L 41.0 6.448784823900255 L 41.0 6.684193475642326 L 41.0 6.8854576259365725 L 41.0 7.051549168086779 L 41.0 7.181619665715078 L 41.0 7.275004686783296 L 41.0 7.33122719767493 L 41.0 7.35 " stroke="#191919" stroke-width="0.35 px" style="stroke-width:0.35;stroke-miterlimit:4;stroke-dasharray:none;fill:none;fill-opacity:1;fill-rule: evenodd"/>
<path id="Shape2DView_nwe0022"  d="M 41.0 -7.35 L 41.0 -7.331227197674931 L 41.0 -7.275004686783295 L 41.0 -7.181619665715079 L 41.0 -7.05154916808678 L 41.0 -6.885457625936576 L 41.0 -6.6841934756423305 L 41.0 -6.44878482390026 L 41.0 -6.1804341959035005 L 41.0 -5.880512392548155 L 41.0 -5.550551488045755 L 41.0 -5.192237003712007 L 41.0 -4.807399297910069 L 41.0 -4.398004216130622 L 41.0 -3.966143048970406 " stroke="#191919" stroke-width="0.35 px" style="stroke-width:0.35;stroke-miterlimit:4;stroke-dasharray:none;fill:none;fill-opacity:1;fill-rule: evenodd"/>
<path id="Shape2DView_nwe0023"  d="M 41.01 -3.94163935336068 L 41.01 -3.4018743381384833 L 41.01 -2.851405767676217 L 41.01 -2.291965619750311 L 41.01 -1.7253141000390624 L 41.01 -1.1532341038643517 L 41.01 -0.5775256065433592 L 41.01 -2.851052727237402e-13 L 41.01 0.5775256065427898 L 41.01 1.1532341038637846 L 41.01 1.7253141000385002 L 41.01 2.2919656197497558 L 41.01 2.8514057676756694 L 41.01 3.401874338137945 L 41.01 3.941639353360153 " stroke="#191919" stroke-width="0.35 px" style="stroke-width:0.35;stroke-miterlimit:4;stroke-dasharray:none;fill:none;fill-opacity:1;fill-rule: evenodd"/>
<path id="Shape2DView_nwe0024"  d="M 2.5 2.625 L 2.5 2.559185769477287 L 2.4999999999999996 2.36504327824385 L 2.4999999999999996 2.0523076414785786 L 2.4999999999999996 1.6366607298791758 L 2.4999999999999996 1.1389448151835904 L 2.4999999999999996 0.5841174516353256 L 2.4999999999999996 3.214697847761802e-16 L 2.4999999999999996 -0.584117451635325 L 2.4999999999999996 -1.1389448151835897 L 2.4999999999999996 -1.636660729879175 L 2.4999999999999996 -2.052307641478578 L 2.4999999999999996 -2.36504327824385 L 2.5 -2.559185769477287 L 2.5 -2.625 " stroke="#191919" stroke-width="0.35 px" style="stroke-width:0.35;stroke-miterlimit:4;stroke-dasharray:none;fill:none;fill-opacity:1;fill-rule: evenodd"/>
<path id="Shape2DView_nwe0025"  d="M 10.44 -1.05 Q 9.596726414133325 -1.0655897352781944 9.4 -0.010000000000000009 " stroke="#191919" stroke-width="0.35 px" style="stroke-width:0.35;stroke-miterlimit:4;stroke-dasharray:none;fill:none;fill-opacity:1;fill-rule: evenodd"/>
<path id="Shape2DView_nwe0026"  d="M 9.399999999999999 0.010000000000002007 L 9.399999999999999 0.008571428914549983 L 9.399999999999999 0.007142857670734415 L 9.399999999999999 0.005714286294951076 L 9.399999999999999 0.004285714813593078 L 9.399999999999999 0.002857143253053529 L 9.399999999999999 0.001428571639726428 L 9.399999999999999 5.773159728050814e-15 L 9.399999999999999 -0.0014285716397153259 L 9.399999999999999 -0.002857143253042871 L 9.399999999999999 -0.0042857148135815315 L 9.399999999999999 -0.005714286294940862 L 9.399999999999999 -0.007142857670723757 L 9.399999999999999 -0.008571428914538881 L 9.399999999999999 -0.010000000000000675 " stroke="#191919" stroke-width="0.35 px" style="stroke-width:0.35;stroke-miterlimit:4;stroke-dasharray:none;fill:none;fill-opacity:1;fill-rule: evenodd"/>
<path id="Shape2DView_nwe0027"  d="M 10.44 1.05 Q 9.596726399056003 1.0655897179015215 9.4 0.00999999999999801 " stroke="#191919" stroke-width="0.35 px" style="stroke-width:0.35;stroke-miterlimit:4;stroke-dasharray:none;fill:none;fill-opacity:1;fill-rule: evenodd"/>
<path id="Shape2DView_nwe0028"  d="M 10.44 1.05 L 16.76 1.05 " stroke="#191919" stroke-width="0.35 px" style="stroke-width:0.35;stroke-miterlimit:4;stroke-dasharray:none;fill:none;fill-opacity:1;fill-rule: evenodd"/>
<path id="Shape2DView_nwe0029"  d="M 16.76 1.05 Q 17.603273585866738 1.0655897352781634 17.8 0.00999999999999801 " stroke="#191919" stroke-width="0.35 px" style="stroke-width:0.35;stroke-miterlimit:4;stroke-dasharray:none;fill:none;fill-opacity:1;fill-rule: evenodd"/>
<path id="Shape2DView_nwe0030"  d="M 17.799999999999997 0.010000000000002007 L 17.799999999999997 0.008571428914549983 L 17.799999999999997 0.007142857670734415 L 17.799999999999997 0.005714286294951076 L 17.799999999999997 0.004285714813593078 L 17.799999999999997 0.002857143253053529 L 17.799999999999997 0.001428571639726428 L 17.799999999999997 5.773159728050814e-15 L 17.799999999999997 -0.0014285716397153259 L 17.799999999999997 -0.002857143253042871 L 17.799999999999997 -0.0042857148135815315 L 17.799999999999997 -0.005714286294940862 L 17.799999999999997 -0.007142857670723757 L 17.799999999999997 -0.008571428914538881 L 17.799999999999997 -0.010000000000000675 " stroke="#191919" stroke-width="0.35 px" style="stroke-width:0.35;stroke-miterlimit:4;stroke-dasharray:none;fill:none;fill-opacity:1;fill-rule: evenodd"/>
<path id="Shape2DView_nwe0031"  d="M 16.76 -1.05 Q 17.603273600945585 -1.06558971790027 17.8 -0.010000000000000009 " stroke="#191919" stroke-width="0.35 px" style="stroke-width:0.35;stroke-miterlimit:4;stroke-dasharray:none;fill:none;fill-opacity:1;fill-rule: evenodd"/>
<path id="Shape2DView_nwe0032"  d="M 10.44 -1.05 L 16.76 -1.05 " stroke="#191919" stroke-width="0.35 px" style="stroke-width:0.35;stroke-miterlimit:4;stroke-dasharray:none;fill:none;fill-opacity:1;fill-rule: evenodd"/>
<path id="Shape2DView_nwe0033"  d="M 27.24 -1.05 Q 26.396726399055872 -1.0655897179015232 26.2 -0.010000000000000009 " stroke="#191919" stroke-width="0.35 px" style="stroke-width:0.35;stroke-miterlimit:4;stroke-dasharray:none;fill:none;fill-opacity:1;fill-rule: evenodd"/>
<path id="Shape2DView_nwe0034"  d="M 26.199999999999996 0.010000000000002007 L 26.199999999999996 0.008571428914549983 L 26.199999999999996 0.007142857670734415 L 26.199999999999996 0.005714286294951076 L 26.199999999999996 0.004285714813593078 L 26.199999999999996 0.002857143253053529 L 26.199999999999996 0.001428571639726428 L 26.199999999999996 5.773159728050814e-15 L 26.199999999999996 -0.0014285716397153259 L 26.199999999999996 -0.002857143253042871 L 26.199999999999996 -0.0042857148135815315 L 26.199999999999996 -0.005714286294940862 L 26.199999999999996 -0.007142857670723757 L 26.199999999999996 -0.008571428914538881 L 26.199999999999996 -0.010000000000000675 " stroke="#191919" stroke-width="0.35 px" style="stroke-width:0.35;stroke-miterlimit:4;stroke-dasharray:none;fill:none;fill-opacity:1;fill-rule: evenodd"/>
<path id="Shape2DView_nwe0035"  d="M 27.24 1.05 Q 26.396726414133262 1.0655897352782175 26.2 0.00999999999999801 " stroke="#191919" stroke-width="0.35 px" style="stroke-width:0.35;stroke-miterlimit:4;stroke-dasharray:none;fill:none;fill-opacity:1;fill-rule: evenodd"/>
<path id="Shape2DView_nwe0036"  d="M 27.24 1.05 L 33.56 1.05 " stroke="#191919" stroke-width="0.35 px" style="stroke-width:0.35;stroke-miterlimit:4;stroke-dasharray:none;fill:none;fill-opacity:1;fill-rule: evenodd"/>
<path id="Shape2DView_nwe0037"  d="M 33.56 1.05 Q 34.40327358586629 1.065589735278163 34.6 0.00999999999999801 " stroke="#191919" stroke-width="0.35 px" style="stroke-width:0.35;stroke-miterlimit:4;stroke-dasharray:none;fill:none;fill-opacity:1;fill-rule: evenodd"/>
<path id="Shape2DView_nwe0038"  d="M 34.6 0.010000000000002007 L 34.6 0.008571428914549983 L 34.6 0.007142857670734415 L 34.6 0.005714286294951076 L 34.6 0.004285714813593078 L 34.6 0.002857143253053529 L 34.6 0.001428571639726428 L 34.6 5.773159728050814e-15 L 34.6 -0.0014285716397153259 L 34.6 -0.002857143253042871 L 34.6 -0.0042857148135815315 L 34.6 -0.005714286294940862 L 34.6 -0.007142857670723757 L 34.6 -0.008571428914538881 L 34.6 -0.010000000000000675 " stroke="#191919" stroke-width="0.35 px" style="stroke-width:0.35;stroke-miterlimit:4;stroke-dasharray:none;fill:none;fill-opacity:1;fill-rule: evenodd"/>
<path id="Shape2DView_nwe0039"  d="M 33.56 -1.05 Q 34.403273585866216 -1.0655897352781967 34.599999999999994 -0.010000000000000009 " stroke="#191919" stroke-width="0.35 px" style="stroke-width:0.35;stroke-miterlimit:4;stroke-dasharray:none;fill:none;fill-opacity:1;fill-rule: evenodd"/>
<path id="Shape2DView_nwe0040"  d="M 27.24 -1.05 L 33.56 -1.05 " stroke="#191919" stroke-width="0.35 px" style="stroke-width:0.35;stroke-miterlimit:4;stroke-dasharray:none;fill:none;fill-opacity:1;fill-rule: evenodd"/>
<path id="Shape2DView_nwe0041"  d="M 41.6 2.625 L 41.6 2.559185769477287 L 41.6 2.36504327824385 L 41.6 2.0523076414785786 L 41.6 1.6366607298791758 L 41.6 1.1389448151835904 L 41.6 0.5841174516353256 L 41.6 3.214697847761802e-16 L 41.6 -0.584117451635325 L 41.6 -1.1389448151835897 L 41.6 -1.636660729879175 L 41.6 -2.052307641478578 L 41.6 -2.36504327824385 L 41.6 -2.559185769477287 L 41.6 -2.625 " stroke="#191919" stroke-width="0.35 px" style="stroke-width:0.35;stroke-miterlimit:4;stroke-dasharray:none;fill:none;fill-opacity:1;fill-rule: evenodd"/>
<path id="Shape2DView_nwe0042"  d="M 0.9 0.45 L 2.5 0.45 " stroke="#191919" stroke-width="0.35 px" style="stroke-width:0.35;stroke-miterlimit:4;stroke-dasharray:none;fill:none;fill-opacity:1;fill-rule: evenodd"/>
<path id="Shape2DView_nwe0043"  d="M 0.0 -0.4500000000000001 L 0.00565901109608169 -0.4500000000000001 L 0.02256487903635873 -0.4500000000000001 L 0.05050500272246916 -0.4500000000000001 L 0.08912801888782274 -0.4500000000000001 L 0.13794822069454427 -0.4500000000000001 L 0.19635166577877317 -0.45000000000000007 L 0.2636038969321072 -0.45000000000000007 L 0.33885917832713974 -0.45000000000000007 L 0.4211711311361971 -0.45000000000000007 L 0.5095046347941976 -0.45000000000000007 L 0.6027488442403496 -0.45000000000000007 L 0.699731159439317 -0.45 L 0.7992319715070229 -0.45 L 0.9 -0.45 " stroke="#191919" stroke-width="0.35 px" style="stroke-width:0.35;stroke-miterlimit:4;stroke-dasharray:none;fill:none;fill-opacity:1;fill-rule: evenodd"/>
<circle cx="1.110223024625e-15" cy="0.0" r="0.45" stroke="#191919" stroke-width="0.35 px" style="stroke-width:0.35;stroke-miterlimit:4;stroke-dasharray:none;fill:none"/>
<path id="Shape2DView_nwe0045"  d="M 41.6 0.45 L 43.1 0.45 " stroke="#191919" stroke-width="0.35 px" style="stroke-width:0.35;stroke-miterlimit:4;stroke-dasharray:none;fill:none;fill-opacity:1;fill-rule: evenodd"/>
<path id="Shape2DView_nwe0046"  d="M 44.0 0.45 L 43.99434098890392 0.45 L 43.97743512096364 0.45 L 43.94949499727753 0.45 L 43.91087198111218 0.45 L 43.86205177930546 0.45 L 43.80364833422123 0.45 L 43.7363961030679 0.45 L 43.66114082167286 0.45 L 43.5788288688638 0.45 L 43.4904953652058 0.45 L 43.397251155759655 0.45 L 43.30026884056068 0.45 L 43.20076802849298 0.45 L 43.1 0.45 " stroke="#191919" stroke-width="0.35 px" style="stroke-width:0.35;stroke-miterlimit:4;stroke-dasharray:none;fill:none;fill-opacity:1;fill-rule: evenodd"/>
<path id="Shape2DView_nwe0047"  d="M 44.0 -0.45 A 0.45 0.45 0 0 1 44 0.45" stroke="#191919" stroke-width="0.35 px" style="stroke-width:0.35;stroke-miterlimit:4;stroke-dasharray:none;fill:none;fill-opacity:1;fill-rule: evenodd"/>
<path id="Shape2DView_nwe0048"  d="M 4.064979142851 -4.022002876149452 L 4.064979142851 4.022002876149612 " stroke="#191919" stroke-width="0.35 px" style="stroke-width:0.35;stroke-miterlimit:4;stroke-dasharray:none;fill:none;fill-opacity:1;fill-rule: evenodd"/>
<path id="Shape2DView_nwe0049"  d="M 3.199999999999998 -4.022002874157354 L 3.199999999999998 -3.4712329411490686 L 3.199999999999998 -2.9095412250754307 L 3.199999999999998 -2.338695015881128 L 3.199999999999998 -1.7604904069330436 L 3.199999999999998 -1.1767466438460281 L 3.199999999999998 -0.5893004004631455 L 3.199999999999998 -2.5712765250318625e-13 L 3.199999999999998 0.589300400462633 L 3.199999999999998 1.1767466438455179 L 3.199999999999998 1.7604904069325369 L 3.199999999999998 2.338695015880628 L 3.199999999999998 2.9095412250749373 L 3.199999999999998 3.471232941148584 L 3.199999999999998 4.022002874156881 " stroke="#191919" stroke-width="0.35 px" style="stroke-width:0.35;stroke-miterlimit:4;stroke-dasharray:none;fill:none;fill-opacity:1;fill-rule: evenodd"/>
<path id="Shape2DView_nwe0050"  d="M 4.269338405373 -3.991246565448906 L 4.269338405373 3.991246565448976 " stroke="#191919" stroke-width="0.35 px" style="stroke-width:0.35;stroke-miterlimit:4;stroke-dasharray:none;fill:none;fill-opacity:1;fill-rule: evenodd"/>
<path id="Shape2DView_nwe0051"  d="M 3.199999999999998 4.022002874157 L 3.199999999999998 4.8227267334913595 L 3.199999999999998 5.589342940935577 L 3.199999999999998 6.316429775504451 L 3.1999999999999984 6.998845078826212 L 3.1999999999999984 7.631762621902944 L 3.1999999999999984 8.210706237531454 L 3.199999999999999 8.731581476990694 L 3.199999999999999 9.190704567110963 L 3.1999999999999993 9.584828462932439 L 3.1999999999999993 9.911165811701567 L 3.1999999999999993 10.167408665797495 L 3.1999999999999997 10.351744805173388 L 3.1999999999999997 10.462870553875774 L 3.2 10.499999999999998 " stroke="#191919" stroke-width="0.35 px" style="stroke-width:0.35;stroke-miterlimit:4;stroke-dasharray:none;fill:none;fill-opacity:1;fill-rule: evenodd"/>
<path id="Shape2DView_nwe0052"  d="M 3.2 -10.5 L 3.2 -10.462870553875687 L 3.1999999999999997 -10.351744805173224 L 3.1999999999999997 -10.167408665797273 L 3.1999999999999993 -9.911165811701302 L 3.1999999999999993 -9.584828462932144 L 3.199999999999999 -9.190704567110652 L 3.199999999999999 -8.731581476990383 L 3.199999999999999 -8.210706237531156 L 3.1999999999999984 -7.631762621902675 L 3.1999999999999984 -6.9988450788259815 L 3.1999999999999984 -6.31642977550427 L 3.199999999999998 -5.589342940935455 L 3.199999999999998 -4.822726733491306 L 3.199999999999998 -4.022002874157004 " stroke="#191919" stroke-width="0.35 px" style="stroke-width:0.35;stroke-miterlimit:4;stroke-dasharray:none;fill:none;fill-opacity:1;fill-rule: evenodd"/>
<path id="Shape2DView_nwe0053"  d="M 4.0649791428510085 4.022002874157002 C 4.064979140181466 7.85534601023301 4.064979126455617 10.557090621019265 4.064979141132549 10.499978627655484 " stroke="#191919" stroke-width="0.35 px" style="stroke-width:0.35;stroke-miterlimit:4;stroke-dasharray:none;fill:none;fill-opacity:1;fill-rule: evenodd"/>
<path id="Shape2DView_nwe0054"  d="M 4.064979141132302 -10.499978627651766 C 4.064979126455409 -10.557090621016084 4.064979140181494 -7.855346010232902 4.064979142851015 -4.022002874157542 " stroke="#191919" stroke-width="0.35 px" style="stroke-width:0.35;stroke-miterlimit:4;stroke-dasharray:none;fill:none;fill-opacity:1;fill-rule: evenodd"/>
<path id="Shape2DView_nwe0055"  d="M 4.269338405373 3.9912465674260003 C 4.269338405831481 7.7952609783836655 4.269338408188385 10.47629183360864 4.269338405667968 10.41960909317763 " stroke="#191919" stroke-width="0.35 px" style="stroke-width:0.35;stroke-miterlimit:4;stroke-dasharray:none;fill:none;fill-opacity:1;fill-rule: evenodd"/>
<path id="Shape2DView_nwe0056"  d="M 4.269338405667965 -10.419609093174975 C 4.2693384081883865 -10.476291833605439 4.269338405831475 -7.795260978383221 4.269338405373 -3.9912465674258604 " stroke="#191919" stroke-width="0.35 px" style="stroke-width:0.35;stroke-miterlimit:4;stroke-dasharray:none;fill:none;fill-opacity:1;fill-rule: evenodd"/>
<path id="Shape2DView_nwe0057"  d="M 4.930661594627004 3.9912465674260003 C 4.930661594168652 7.795260978383912 4.930661591811781 10.476291833608899 4.93066159433209 10.41960909317782 " stroke="#191919" stroke-width="0.35 px" style="stroke-width:0.35;stroke-miterlimit:4;stroke-dasharray:none;fill:none;fill-opacity:1;fill-rule: evenodd"/>
<path id="Shape2DView_nwe0058"  d="M 4.930661594332092 -10.419609093173884 C 4.930661591811783 -10.476291833604904 4.930661594168659 -7.795260978383034 4.930661594626999 -3.9912465674253816 " stroke="#191919" stroke-width="0.35 px" style="stroke-width:0.35;stroke-miterlimit:4;stroke-dasharray:none;fill:none;fill-opacity:1;fill-rule: evenodd"/>
<path id="Shape2DView_nwe0059"  d="M 5.135020857148987 4.022002874157002 C 5.135020859818533 7.855346010233202 5.135020873544146 10.557090621019393 5.135020858867239 10.49997862765563 " stroke="#191919" stroke-width="0.35 px" style="stroke-width:0.35;stroke-miterlimit:4;stroke-dasharray:none;fill:none;fill-opacity:1;fill-rule: evenodd"/>
<path id="Shape2DView_nwe0060"  d="M 5.1350208588676605 -10.499978627651995 C 5.1350208735445895 -10.557090621015986 5.135020859818645 -7.855346010232506 5.135020857148988 -4.022002874156908 " stroke="#191919" stroke-width="0.35 px" style="stroke-width:0.35;stroke-miterlimit:4;stroke-dasharray:none;fill:none;fill-opacity:1;fill-rule: evenodd"/>
<path id="Shape2DView_nwe0061"  d="M 40.8 4.022002874157 L 40.8 4.822726733491323 L 40.8 5.5893429409355075 L 40.8 6.3164297755043535 L 40.8 6.99884507882609 L 40.8 7.631762621902804 L 40.8 8.2107062375313 L 40.8 8.731581476990536 L 40.8 9.190704567110805 L 40.8 9.58482846293229 L 40.8 9.911165811701432 L 40.8 10.167408665797383 L 40.8 10.351744805173306 L 40.8 10.462870553875732 L 40.8 10.500000000000002 " stroke="#191919" stroke-width="0.35 px" style="stroke-width:0.35;stroke-miterlimit:4;stroke-dasharray:none;fill:none;fill-opacity:1;fill-rule: evenodd"/>
<path id="Shape2DView_nwe0062"  d="M 40.8 -10.5 L 40.8 -10.462870553875733 L 40.8 -10.351744805173306 L 40.8 -10.16740866579738 L 40.8 -9.91116581170143 L 40.8 -9.584828462932286 L 40.8 -9.190704567110796 L 40.8 -8.731581476990524 L 40.8 -8.210706237531285 L 40.8 -7.631762621902784 L 40.8 -6.998845078826065 L 40.8 -6.3164297755043215 L 40.8 -5.589342940935471 L 40.8 -4.822726733491281 L 40.8 -4.022002874157004 " stroke="#191919" stroke-width="0.35 px" style="stroke-width:0.35;stroke-miterlimit:4;stroke-dasharray:none;fill:none;fill-opacity:1;fill-rule: evenodd"/>
<path id="Shape2DView_nwe0063"  d="M 40.8 -4.022002874157354 L 40.8 -3.4712329411490686 L 40.8 -2.9095412250754307 L 40.8 -2.338695015881128 L 40.8 -1.7604904069330436 L 40.8 -1.1767466438460281 L 40.8 -0.5893004004631455 L 40.8 -2.5712765250318625e-13 L 40.8 0.589300400462633 L 40.8 1.1767466438455179 L 40.8 1.7604904069325369 L 40.8 2.338695015880628 L 40.8 2.9095412250749373 L 40.8 3.471232941148584 L 40.8 4.022002874156881 " stroke="#191919" stroke-width="0.35 px" style="stroke-width:0.35;stroke-miterlimit:4;stroke-dasharray:none;fill:none;fill-opacity:1;fill-rule: evenodd"/>
<path id="Shape2DView_nwe0064"  d="M 5.135020857149 -4.022002876149452 L 5.135020857149 4.022002876149612 " stroke="#191919" stroke-width="0.35 px" style="stroke-width:0.35;stroke-miterlimit:4;stroke-dasharray:none;fill:none;fill-opacity:1;fill-rule: evenodd"/>
<path id="Shape2DView_nwe0065"  d="M 4.930661594627 -3.991246565448906 L 4.930661594627001 3.991246565448976 " stroke="#191919" stroke-width="0.35 px" style="stroke-width:0.35;stroke-miterlimit:4;stroke-dasharray:none;fill:none;fill-opacity:1;fill-rule: evenodd"/>
<path id="Shape2DView_nwe0066"  d="M 0.9 0.45 L 0.8999999999999999 0.43871756048182065 L 0.8999999999999999 0.40543599055608864 L 0.8999999999999999 0.3518241671106135 L 0.8999999999999999 0.2805704108364302 L 0.8999999999999999 0.19524768260290123 L 0.8999999999999999 0.10013442028034157 L 0.9 8.266365894244634e-17 L 0.9 -0.1001344202803414 L 0.9 -0.1952476826029011 L 0.9 -0.28057041083643003 L 0.9 -0.3518241671106134 L 0.9 -0.4054359905560886 L 0.9 -0.4387175604818206 L 0.9 -0.45 " stroke="#191919" stroke-width="0.35 px" style="stroke-width:0.35;stroke-miterlimit:4;stroke-dasharray:none;fill:none;fill-opacity:1;fill-rule: evenodd"/>
<path id="Shape2DView_nwe0067"  d="M 43.1 -0.45 L 43.1 -0.43871756048182065 L 43.1 -0.40543599055608864 L 43.1 -0.3518241671106135 L 43.1 -0.2805704108364302 L 43.1 -0.19524768260290123 L 43.1 -0.10013442028034157 L 43.1 -8.266365894244634e-17 L 43.1 0.1001344202803414 L 43.1 0.1952476826029011 L 43.1 0.28057041083643003 L 43.1 0.3518241671106134 L 43.1 0.4054359905560886 L 43.1 0.4387175604818206 L 43.1 0.45 " stroke="#191919" stroke-width="0.35 px" style="stroke-width:0.35;stroke-miterlimit:4;stroke-dasharray:none;fill:none;fill-opacity:1;fill-rule: evenodd"/>
<path id="Shape2DView_nwe0068"  d="M 3.2 10.499999999999602 Q 3.019455656295286 10.483885221204645 3.0000000000000027 10.2999999999996 " stroke="#191919" stroke-width="0.35 px" style="stroke-width:0.35;stroke-miterlimit:4;stroke-dasharray:none;fill:none;fill-opacity:1;fill-rule: evenodd"/>
<path id="Shape2DView_nwe0069"  d="M 3.2 -10.499999999999604 Q 3.019455656295286 -10.483885221204638 3.0000000000000027 -10.299999999999605 " stroke="#191919" stroke-width="0.35 px" style="stroke-width:0.35;stroke-miterlimit:4;stroke-dasharray:none;fill:none;fill-opacity:1;fill-rule: evenodd"/>
<path id="Shape2DView_nwe0070"  d="M 3.2 -10.5 L 4.064979141120475 -10.5 " stroke="#191919" stroke-width="0.35 px" style="stroke-width:0.35;stroke-miterlimit:4;stroke-dasharray:none;fill:none;fill-opacity:1;fill-rule: evenodd"/>
<path id="Shape2DView_nwe0071"  d="M 3.2 10.5 L 4.06497914112072 10.5 " stroke="#191919" stroke-width="0.35 px" style="stroke-width:0.35;stroke-miterlimit:4;stroke-dasharray:none;fill:none;fill-opacity:1;fill-rule: evenodd"/>
<path id="Shape2DView_nwe0072"  d="M 4.269338405667966 10.419609093189822 L 4.0649791411325715 10.499978627667677 " stroke="#191919" stroke-width="0.35 px" style="stroke-width:0.35;stroke-miterlimit:4;stroke-dasharray:none;fill:none;fill-opacity:1;fill-rule: evenodd"/>
<path id="Shape2DView_nwe0073"  d="M 4.2693384056679635 -10.419609093187299 L 4.0649791411323255 -10.499978627664085 " stroke="#191919" stroke-width="0.35 px" style="stroke-width:0.35;stroke-miterlimit:4;stroke-dasharray:none;fill:none;fill-opacity:1;fill-rule: evenodd"/>
<path id="Shape2DView_nwe0074"  d="M 4.269348664121788 10.41962035218335 Q 4.5945579323266665 10.161346992941624 4.930651335878341 10.419620352183463 " stroke="#191919" stroke-width="0.35 px" style="stroke-width:0.35;stroke-miterlimit:4;stroke-dasharray:none;fill:none;fill-opacity:1;fill-rule: evenodd"/>
<path id="Shape2DView_nwe0075"  d="M 4.26934866412311 -10.41962035218212 Q 4.594557932329495 -10.161346992943095 4.930651335876381 -10.41962035218164 " stroke="#191919" stroke-width="0.35 px" style="stroke-width:0.35;stroke-miterlimit:4;stroke-dasharray:none;fill:none;fill-opacity:1;fill-rule: evenodd"/>
<path id="Shape2DView_nwe0076"  d="M 5.135020858867218 10.499978627667819 L 4.9306615943318235 10.41960909318976 " stroke="#191919" stroke-width="0.35 px" style="stroke-width:0.35;stroke-miterlimit:4;stroke-dasharray:none;fill:none;fill-opacity:1;fill-rule: evenodd"/>
<path id="Shape2DView_nwe0077"  d="M 5.135020858867637 -10.499978627664238 L 4.930661594331111 -10.419609093185219 " stroke="#191919" stroke-width="0.35 px" style="stroke-width:0.35;stroke-miterlimit:4;stroke-dasharray:none;fill:none;fill-opacity:1;fill-rule: evenodd"/>
<path id="Shape2DView_nwe0078"  d="M 5.13502085887949 -10.5 L 40.800000000000004 -10.5 " stroke="#191919" stroke-width="0.35 px" style="stroke-width:0.35;stroke-miterlimit:4;stroke-dasharray:none;fill:none;fill-opacity:1;fill-rule: evenodd"/>
<path id="Shape2DView_nwe0079"  d="M 5.1350208588790665 10.5 L 40.800000000000004 10.5 " stroke="#191919" stroke-width="0.35 px" style="stroke-width:0.35;stroke-miterlimit:4;stroke-dasharray:none;fill:none;fill-opacity:1;fill-rule: evenodd"/>
<path id="Shape2DView_nwe0080"  d="M 40.8 10.5 Q 40.980544343704715 10.483885221205043 41.0 10.299999999999997 " stroke="#191919" stroke-width="0.35 px" style="stroke-width:0.35;stroke-miterlimit:4;stroke-dasharray:none;fill:none;fill-opacity:1;fill-rule: evenodd"/>
<path id="Shape2DView_nwe0081"  d="M 40.8 -10.5 Q 40.980544343704715 -10.483885221205043 41.0 -10.299999999999997 " stroke="#191919" stroke-width="0.35 px" style="stroke-width:0.35;stroke-miterlimit:4;stroke-dasharray:none;fill:none;fill-opacity:1;fill-rule: evenodd"/>
<path id="Shape2DView_nwe0082"  d="M 2.5 -2.625 L 2.989999999999998 -2.625 " stroke="#191919" stroke-width="0.35 px" style="stroke-width:0.35;stroke-miterlimit:4;stroke-dasharray:none;fill:none;fill-opacity:1;fill-rule: evenodd"/>
<path id="Shape2DView_nwe0083"  d="M 2.5 2.625 L 2.989999999999998 2.625 " stroke="#191919" stroke-width="0.35 px" style="stroke-width:0.35;stroke-miterlimit:4;stroke-dasharray:none;fill:none;fill-opacity:1;fill-rule: evenodd"/>
<path id="Shape2DView_nwe0084"  d="M 41.6 2.625 L 41.01 2.625 " stroke="#191919" stroke-width="0.35 px" style="stroke-width:0.35;stroke-miterlimit:4;stroke-dasharray:none;fill:none;fill-opacity:1;fill-rule: evenodd"/>
<path id="Shape2DView_nwe0085"  d="M 41.6 -2.625 L 41.01 -2.625 " stroke="#191919" stroke-width="0.35 px" style="stroke-width:0.35;stroke-miterlimit:4;stroke-dasharray:none;fill:none;fill-opacity:1;fill-rule: evenodd"/>
<path id="Shape2DView_nwe0086"  d="M 2.5 -0.45 L 0.9 -0.45 " stroke="#191919" stroke-width="0.35 px" style="stroke-width:0.35;stroke-miterlimit:4;stroke-dasharray:none;fill:none;fill-opacity:1;fill-rule: evenodd"/>
<path id="Shape2DView_nwe0087"  d="M 43.1 -0.45 L 41.6 -0.45 " stroke="#191919" stroke-width="0.35 px" style="stroke-width:0.35;stroke-miterlimit:4;stroke-dasharray:none;fill:none;fill-opacity:1;fill-rule: evenodd"/>
<path id="Shape2DView_nwe0088"  d="M 43.100000000000016 -0.44999999999999934 Q 43.91998569570619 -0.44999999999999984 44.00000000000001 -0.45 " stroke="#191919" stroke-width="0.35 px" style="stroke-width:0.35;stroke-miterlimit:4;stroke-dasharray:none;fill:none;fill-opacity:1;fill-rule: evenodd"/>
<title>b'Shape2DView'</title>
</g>
<g id="Rectangle" transform="translate(0.895653,10.948934) scale(1,-1)">
<rect fill="#ff0000" id="origin" width="1" height="1" x="0" y="0" />
<title>b'Rectangle'</title>
</g>
</svg>