<?xml version="1.0"?>
<!DOCTYPE svg PUBLIC "-//W3C//DTD SVG 1.1//EN" "http://www.w3.org/Graphics/SVG/1.1/DTD/svg11.dtd">
<svg width="27.43130674642201mm" height="10.537868759733765mm" viewBox="0 0 27.43130674642201 10.537868759733765" xmlns="http://www.w3.org/2000/svg" version="1.1">
<g id="Shape2DView" transform="translate(0.715653,5.268934) scale(1,-1)">
<path id="Shape2DView_nwe0000"  d="M 3.2 1.917243996149 L 4.064979142851 1.917243996149 " stroke="#191919" stroke-width="0.35 px" style="stroke-width:0.35;stroke-miterlimit:4;stroke-dasharray:none;fill:none;fill-opacity:1;fill-rule: evenodd"/>
<path id="Shape2DView_nwe0001"  d="M 3.2 -1.917243996149 L 4.064979142851 -1.917243996149 " stroke="#191919" stroke-width="0.35 px" style="stroke-width:0.35;stroke-miterlimit:4;stroke-dasharray:none;fill:none;fill-opacity:1;fill-rule: evenodd"/>
<path id="Shape2DView_nwe0002"  d="M 4.064979142851 -1.917243996149 L 4.269338405373 -1.886487689418 " stroke="#191919" stroke-width="0.35 px" style="stroke-width:0.35;stroke-miterlimit:4;stroke-dasharray:none;fill:none;fill-opacity:1;fill-rule: evenodd"/>
<path id="Shape2DView_nwe0003"  d="M 4.26933840537242 -1.8864876894170903 A 0.485412 0.185759 -180 0 0 4.93066 -1.88649" stroke="#191919" stroke-width="0.35 px" style="stroke-width:0.35;stroke-miterlimit:4;stroke-dasharray:none;fill:none;fill-opacity:1;fill-rule: evenodd"/>
<path id="Shape2DView_nwe0004"  d="M 4.930661594627 -1.886487689418 L 5.135020857149 -1.917243996149 " stroke="#191919" stroke-width="0.35 px" style="stroke-width:0.35;stroke-miterlimit:4;stroke-dasharray:none;fill:none;fill-opacity:1;fill-rule: evenodd"/>
<path id="Shape2DView_nwe0005"  d="M 5.135020857149 -1.917243996149 L 22.8 -1.917243996149 " stroke="#191919" stroke-width="0.35 px" style="stroke-width:0.35;stroke-miterlimit:4;stroke-dasharray:none;fill:none;fill-opacity:1;fill-rule: evenodd"/>
<path id="Shape2DView_nwe0006"  d="M 22.800000000000004 -1.917243996148674 A 0.21 0.0803635 5.26972e-15 0 1 23.01 -1.83688" stroke="#191919" stroke-width="0.35 px" style="stroke-width:0.35;stroke-miterlimit:4;stroke-dasharray:none;fill:none;fill-opacity:1;fill-rule: evenodd"/>
<path id="Shape2DView_nwe0007"  d="M 4.269338405372611 -1.8826608550940223 A 0.485412 0.185759 -180 0 0 4.93066 -1.88266" stroke="#191919" stroke-width="0.35 px" style="stroke-width:0.35;stroke-miterlimit:4;stroke-dasharray:none;fill:none;fill-opacity:1;fill-rule: evenodd"/>
<path id="Shape2DView_nwe0008"  d="M 2.99 -1.8368804753519996 A 0.21 0.0803635 5.26972e-15 0 1 3.2 -1.91724" stroke="#191919" stroke-width="0.35 px" style="stroke-width:0.35;stroke-miterlimit:4;stroke-dasharray:none;fill:none;fill-opacity:1;fill-rule: evenodd"/>
<path id="Shape2DView_nwe0009"  d="M 4.064979142851 1.917243996149 L 4.269338405373 1.886487689418 " stroke="#191919" stroke-width="0.35 px" style="stroke-width:0.35;stroke-miterlimit:4;stroke-dasharray:none;fill:none;fill-opacity:1;fill-rule: evenodd"/>
<path id="Shape2DView_nwe0010"  d="M 2.9899999999999993 -1.8368804753525496 L 2.9899999999999993 -1.5853394973849368 L 2.9899999999999993 -1.3288104548394286 L 2.9899999999999993 -1.068100482990477 L 2.9899999999999993 -0.8040298718629185 L 2.9899999999999993 -0.5374294852960775 L 2.9899999999999993 -0.2691381467387357 L 2.9899999999999993 -2.298161660974074e-13 L 2.9899999999999993 0.26913814673827674 L 2.9899999999999993 0.5374294852956205 L 2.9899999999999993 0.8040298718624652 L 2.9899999999999993 1.0681004829900285 L 2.9899999999999993 1.3288104548389867 L 2.9899999999999993 1.5853394973845034 L 2.9899999999999993 1.8368804753521253 " stroke="#191919" stroke-width="0.35 px" style="stroke-width:0.35;stroke-miterlimit:4;stroke-dasharray:none;fill:none;fill-opacity:1;fill-rule: evenodd"/>
<path id="Shape2DView_nwe0011"  d="M 2.99 1.8368804753519996 A 0.21 0.0803635 -5.26972e-15 0 0 3.2 1.91724" stroke="#191919" stroke-width="0.35 px" style="stroke-width:0.35;stroke-miterlimit:4;stroke-dasharray:none;fill:none;fill-opacity:1;fill-rule: evenodd"/>
<path id="Shape2DView_nwe0012"  d="M 4.269338405372612 1.8864876894180223 A 0.485412 0.185759 180 0 1 4.93066 1.88649" stroke="#191919" stroke-width="0.35 px" style="stroke-width:0.35;stroke-miterlimit:4;stroke-dasharray:none;fill:none;fill-opacity:1;fill-rule: evenodd"/>
<path id="Shape2DView_nwe0013"  d="M 4.930661594627 1.886487689418 L 5.135020857149 1.917243996149 " stroke="#191919" stroke-width="0.35 px" style="stroke-width:0.35;stroke-miterlimit:4;stroke-dasharray:none;fill:none;fill-opacity:1;fill-rule: evenodd"/>
<path id="Shape2DView_nwe0014"  d="M 5.135020857149 1.917243996149 L 22.8 1.917243996149 " stroke="#191919" stroke-width="0.35 px" style="stroke-width:0.35;stroke-miterlimit:4;stroke-dasharray:none;fill:none;fill-opacity:1;fill-rule: evenodd"/>
<path id="Shape2DView_nwe0015"  d="M 22.800000000000004 1.917243996148674 A 0.21 0.0803635 -5.26972e-15 0 0 23.01 1.83688" stroke="#191919" stroke-width="0.35 px" style="stroke-width:0.35;stroke-miterlimit:4;stroke-dasharray:none;fill:none;fill-opacity:1;fill-rule: evenodd"/>
<path id="Shape2DView_nwe0016"  d="M 4.269338405372611 1.8826608550940223 A 0.485412 0.185759 180 0 1 4.93066 1.88266" stroke="#191919" stroke-width="0.35 px" style="stroke-width:0.35;stroke-miterlimit:4;stroke-dasharray:none;fill:none;fill-opacity:1;fill-rule: evenodd"/>
<path id="Shape2DView_nwe0017"  d="M 2.999999999999999 1.8613841709624093 L 2.999999999999999 2.2249897570463033 L 2.999999999999999 2.5729965084222584 L 2.999999999999999 2.902964638671138 L 2.999999999999999 3.2125808255377093 L 2.999999999999999 3.499674429041928 L 2.999999999999999 3.7622327092812458 L 2.9999999999999996 3.998414937235817 L 2.9999999999999996 4.206565299649356 L 2.9999999999999996 4.385224507512823 L 2.9999999999999996 4.533140026766819 L 2.9999999999999996 4.649274859497858 L 2.9999999999999996 4.732814814065793 L 3.0 4.783174213193372 L 3.0 4.8 " stroke="#191919" stroke-width="0.35 px" style="stroke-width:0.35;stroke-miterlimit:4;stroke-dasharray:none;fill:none;fill-opacity:1;fill-rule: evenodd"/>
<path id="Shape2DView_nwe0018"  d="M 3.0 4.8 L 3.0 4.793045929053241 L 3.0 4.772203865839138 L 3.0 4.737534200851968 L 3.0 4.689137390470906 L 3.0000000000000004 4.6271536658846975 L 3.0000000000000004 4.55176262676764 L 3.0000000000000004 4.46318272088422 L 3.0000000000000004 4.361670611130259 L 3.0000000000000004 4.247520431844582 L 3.0000000000000004 4.12106293654608 L 3.0000000000000004 3.982664539565607 L 3.0000000000000004 3.8327262543496303 L 3.000000000000001 3.6716825315119084 L 3.000000000000001 3.5 " stroke="#191919" stroke-width="0.35 px" style="stroke-width:0.35;stroke-miterlimit:4;stroke-dasharray:none;fill:none;fill-opacity:1;fill-rule: evenodd"/>
<path id="Shape2DView_nwe0019"  d="M 3.000000000000001 -3.5 L 3.000000000000001 -3.671682531511957 L 3.000000000000001 -3.832726254349722 L 3.000000000000001 -3.9826645395657345 L 3.0000000000000004 -4.121062936546236 L 3.0000000000000004 -4.247520431844761 L 3.0000000000000004 -4.3616706111304495 L 3.0000000000000004 -4.463182720884417 L 3.0000000000000004 -4.551762626767834 L 3.0000000000000004 -4.62715366588488 L 3.0000000000000004 -4.689137390471069 L 3.0 -4.737534200852103 L 3.0 -4.772203865839236 L 3.0 -4.793045929053294 L 3.0 -4.800000000000001 " stroke="#191919" stroke-width="0.35 px" style="stroke-width:0.35;stroke-miterlimit:4;stroke-dasharray:none;fill:none;fill-opacity:1;fill-rule: evenodd"/>
<path id="Shape2DView_nwe0020"  d="M 3.0 -4.800000000000001 L 3.0 -4.783174213193289 L 3.0 -4.732814814065638 L 2.9999999999999996 -4.649274859497648 L 2.9999999999999996 -4.533140026766567 L 2.9999999999999996 -4.385224507512543 L 2.9999999999999996 -4.206565299649061 L 2.9999999999999996 -3.9984149372355198 L 2.999999999999999 -3.7622327092809598 L 2.999999999999999 -3.499674429041665 L 2.999999999999999 -3.212580825537481 L 2.999999999999999 -2.902964638670954 L 2.999999999999999 -2.572996508422128 L 2.999999999999999 -2.224989757046234 L 2.999999999999999 -1.861384170962408 " stroke="#191919" stroke-width="0.35 px" style="stroke-width:0.35;stroke-miterlimit:4;stroke-dasharray:none;fill:none;fill-opacity:1;fill-rule: evenodd"/>
<path id="Shape2DView_nwe0021"  d="M 23.0 1.8613841709624113 L 23.0 2.2249897570462944 L 23.0 2.5729965084222397 L 23.0 2.902964638671111 L 23.0 3.212580825537675 L 23.0 3.499674429041888 L 23.0 3.7622327092812022 L 23.0 3.998414937235771 L 23.0 4.206565299649311 L 23.0 4.38522450751278 L 23.0 4.53314002676678 L 23.0 4.649274859497826 L 23.0 4.732814814065769 L 23.0 4.783174213193359 L 23.0 4.8 " stroke="#191919" stroke-width="0.35 px" style="stroke-width:0.35;stroke-miterlimit:4;stroke-dasharray:none;fill:none;fill-opacity:1;fill-rule: evenodd"/>
<path id="Shape2DView_nwe0022"  d="M 23.0 4.8 L 23.0 4.79304592905325 L 23.0 4.772203865839153 L 23.0 4.737534200851988 L 23.0 4.68913739047093 L 23.0 4.627153665884726 L 23.0 4.551762626767671 L 23.0 4.463182720884251 L 23.0 4.361670611130288 L 23.0 4.24752043184461 L 23.0 4.121062936546104 L 23.0 3.982664539565627 L 23.0 3.832726254349645 L 23.0 3.671682531511917 L 23.0 3.5 " stroke="#191919" stroke-width="0.35 px" style="stroke-width:0.35;stroke-miterlimit:4;stroke-dasharray:none;fill:none;fill-opacity:1;fill-rule: evenodd"/>
<path id="Shape2DView_nwe0023"  d="M 23.0 -3.5 L 23.0 -3.671682531511909 L 23.0 -3.832726254349632 L 23.0 -3.9826645395656097 L 23.0 -4.121062936546084 L 23.0 -4.2475204318445865 L 23.0 -4.361670611130264 L 23.0 -4.463182720884225 L 23.0 -4.551762626767644 L 23.0 -4.627153665884702 L 23.0 -4.68913739047091 L 23.0 -4.73753420085197 L 23.0 -4.77220386583914 L 23.0 -4.793045929053243 L 23.0 -4.799999999999999 " stroke="#191919" stroke-width="0.35 px" style="stroke-width:0.35;stroke-miterlimit:4;stroke-dasharray:none;fill:none;fill-opacity:1;fill-rule: evenodd"/>
<path id="Shape2DView_nwe0024"  d="M 23.0 -4.799999999999999 L 23.0 -4.783174213193369 L 23.0 -4.7328148140657875 L 23.0 -4.6492748594978535 L 23.0 -4.533140026766812 L 23.0 -4.385224507512818 L 23.0 -4.206565299649353 L 23.0 -3.998414937235815 L 23.0 -3.7622327092812453 L 23.0 -3.4996744290419306 L 23.0 -3.2125808255377155 L 23.0 -2.9029646386711474 L 23.0 -2.5729965084222717 L 23.0 -2.2249897570463206 L 23.0 -1.8613841709624117 " stroke="#191919" stroke-width="0.35 px" style="stroke-width:0.35;stroke-miterlimit:4;stroke-dasharray:none;fill:none;fill-opacity:1;fill-rule: evenodd"/>
<path id="Shape2DView_nwe0025"  d="M 23.0 1.8613841709624113 L 23.0 2.0701965491577146 L 23.0 2.2682381484069003 L 23.0 2.454478601671381 L 23.0 2.6279489406888175 L 23.0 2.7877466373026327 L 23.0 2.933040299118213 L 23.0 3.06307399505533 L 23.0 3.1771711882918856 L 23.0 3.2747382561367298 L 23.0 3.355267578518422 L 23.0 3.4183401790212162 L 23.0 3.4636279047275327 L 23.0 3.4908951335256666 L 23.0 3.5 " stroke="#191919" stroke-width="0.35 px" style="stroke-width:0.35;stroke-miterlimit:4;stroke-dasharray:none;fill:none;fill-opacity:1;fill-rule: evenodd"/>
<path id="Shape2DView_nwe0026"  d="M 23.01 -1.8368804753525496 L 23.01 -1.5853394973849368 L 23.01 -1.3288104548394286 L 23.01 -1.068100482990477 L 23.01 -0.8040298718629185 L 23.01 -0.5374294852960775 L 23.01 -0.2691381467387357 L 23.01 -2.298161660974074e-13 L 23.01 0.26913814673827674 L 23.01 0.5374294852956205 L 23.01 0.8040298718624652 L 23.01 1.0681004829900285 L 23.01 1.3288104548389867 L 23.01 1.5853394973845034 L 23.01 1.8368804753521253 " stroke="#191919" stroke-width="0.35 px" style="stroke-width:0.35;stroke-miterlimit:4;stroke-dasharray:none;fill:none;fill-opacity:1;fill-rule: evenodd"/>
<path id="Shape2DView_nwe0027"  d="M 7.49 0.5 Q 7.076526649594651 0.49050322342079117 7.0 0.00999999999999901 " stroke="#191919" stroke-width="0.35 px" style="stroke-width:0.35;stroke-miterlimit:4;stroke-dasharray:none;fill:none;fill-opacity:1;fill-rule: evenodd"/>
<path id="Shape2DView_nwe0028"  d="M 10.51 0.5 Q 10.923473350407356 0.4905032234194939 10.999999999999998 0.00999999999999901 " stroke="#191919" stroke-width="0.35 px" style="stroke-width:0.35;stroke-miterlimit:4;stroke-dasharray:none;fill:none;fill-opacity:1;fill-rule: evenodd"/>
<path id="Shape2DView_nwe0029"  d="M 10.51 -0.5 Q 10.923473350405352 -0.490503223420793 11.0 -0.010000000000000009 " stroke="#191919" stroke-width="0.35 px" style="stroke-width:0.35;stroke-miterlimit:4;stroke-dasharray:none;fill:none;fill-opacity:1;fill-rule: evenodd"/>
<path id="Shape2DView_nwe0030"  d="M 7.49 -0.5 Q 7.076526666796397 -0.49050324059197903 7.0 -0.010000000000000009 " stroke="#191919" stroke-width="0.35 px" style="stroke-width:0.35;stroke-miterlimit:4;stroke-dasharray:none;fill:none;fill-opacity:1;fill-rule: evenodd"/>
<path id="Shape2DView_nwe0031"  d="M 15.49 0.5 Q 15.076526649589706 0.49050322341597635 15.000000000000002 0.00999999999999901 " stroke="#191919" stroke-width="0.35 px" style="stroke-width:0.35;stroke-miterlimit:4;stroke-dasharray:none;fill:none;fill-opacity:1;fill-rule: evenodd"/>
<path id="Shape2DView_nwe0032"  d="M 18.51 0.5 Q 18.92347333319848 0.49050324059675027 19.000000000000004 0.00999999999999901 " stroke="#191919" stroke-width="0.35 px" style="stroke-width:0.35;stroke-miterlimit:4;stroke-dasharray:none;fill:none;fill-opacity:1;fill-rule: evenodd"/>
<path id="Shape2DView_nwe0033"  d="M 18.51 -0.5 Q 18.92347335040951 -0.4905032234167864 19.0 -0.010000000000000009 " stroke="#191919" stroke-width="0.35 px" style="stroke-width:0.35;stroke-miterlimit:4;stroke-dasharray:none;fill:none;fill-opacity:1;fill-rule: evenodd"/>
<path id="Shape2DView_nwe0034"  d="M 15.49 -0.5 Q 15.076526666799936 -0.49050324059621575 15.000000000000002 -0.010000000000000009 " stroke="#191919" stroke-width="0.35 px" style="stroke-width:0.35;stroke-miterlimit:4;stroke-dasharray:none;fill:none;fill-opacity:1;fill-rule: evenodd"/>
<path id="Shape2DView_nwe0035"  d="M 2.866666666667 1.25 L 2.866666666667 1.2186598902272796 L 2.866666666667 1.126211084878024 L 2.866666666667 0.9772893530850374 L 2.866666666667 0.7793622523234169 L 2.8666666666669998 0.5423546738969478 L 2.8666666666669998 0.27815116744539314 L 2.8666666666669998 1.5308084989341916e-16 L 2.8666666666669998 -0.27815116744539287 L 2.8666666666669998 -0.5423546738969475 L 2.866666666667 -0.7793622523234167 L 2.866666666667 -0.9772893530850371 L 2.866666666667 -1.1262110848780238 L 2.866666666667 -1.2186598902272796 L 2.866666666667 -1.25 " stroke="#191919" stroke-width="0.35 px" style="stroke-width:0.35;stroke-miterlimit:4;stroke-dasharray:none;fill:none;fill-opacity:1;fill-rule: evenodd"/>
<path id="Shape2DView_nwe0037"  d="M 6.999999999999999 0.010000000000003118 L 6.999999999999999 0.008571430081424358 L 6.999999999999999 0.007142859465926188 L 6.999999999999999 0.00571428826966236 L 6.999999999999999 0.004285716608786405 L 6.999999999999999 0.0028571445994496347 L 6.999999999999999 0.0014285723578073561 L 6.999999999999999 1.1102230246251565e-14 L 6.999999999999999 -0.0014285723577842635 L 6.999999999999999 -0.002857144599426986 L 6.999999999999999 -0.0042857166087630905 L 6.999999999999999 -0.005714288269639933 L 6.999999999999999 -0.007142859465903317 L 6.999999999999999 -0.008571430081400822 L 6.999999999999999 -0.009999999999997344 " stroke="#191919" stroke-width="0.35 px" style="stroke-width:0.35;stroke-miterlimit:4;stroke-dasharray:none;fill:none;fill-opacity:1;fill-rule: evenodd"/>
<path id="Shape2DView_nwe0039"  d="M 7.49 0.5 L 10.51 0.5 " stroke="#191919" stroke-width="0.35 px" style="stroke-width:0.35;stroke-miterlimit:4;stroke-dasharray:none;fill:none;fill-opacity:1;fill-rule: evenodd"/>
<path id="Shape2DView_nwe0041"  d="M 10.999999999999998 0.010000000000003118 L 10.999999999999998 0.008571430081424358 L 10.999999999999998 0.007142859465926188 L 10.999999999999998 0.00571428826966236 L 10.999999999999998 0.004285716608786405 L 10.999999999999998 0.0028571445994496347 L 10.999999999999998 0.0014285723578073561 L 10.999999999999998 1.1102230246251565e-14 L 10.999999999999998 -0.0014285723577842635 L 10.999999999999998 -0.002857144599426986 L 10.999999999999998 -0.0042857166087630905 L 10.999999999999998 -0.005714288269639933 L 10.999999999999998 -0.007142859465903317 L 10.999999999999998 -0.008571430081400822 L 10.999999999999998 -0.009999999999997344 " stroke="#191919" stroke-width="0.35 px" style="stroke-width:0.35;stroke-miterlimit:4;stroke-dasharray:none;fill:none;fill-opacity:1;fill-rule: evenodd"/>
<path id="Shape2DView_nwe0043"  d="M 7.49 -0.5 L 10.51 -0.5 " stroke="#191919" stroke-width="0.35 px" style="stroke-width:0.35;stroke-miterlimit:4;stroke-dasharray:none;fill:none;fill-opacity:1;fill-rule: evenodd"/>
<path id="Shape2DView_nwe0045"  d="M 14.999999999999998 0.010000000000003118 L 14.999999999999998 0.008571430081424358 L 14.999999999999998 0.007142859465926188 L 14.999999999999998 0.00571428826966236 L 14.999999999999998 0.004285716608786405 L 14.999999999999998 0.0028571445994496347 L 14.999999999999998 0.0014285723578073561 L 14.999999999999998 1.1102230246251565e-14 L 14.999999999999998 -0.0014285723577842635 L 14.999999999999998 -0.002857144599426986 L 14.999999999999998 -0.0042857166087630905 L 14.999999999999998 -0.005714288269639933 L 14.999999999999998 -0.007142859465903317 L 14.999999999999998 -0.008571430081400822 L 14.999999999999998 -0.009999999999997344 " stroke="#191919" stroke-width="0.35 px" style="stroke-width:0.35;stroke-miterlimit:4;stroke-dasharray:none;fill:none;fill-opacity:1;fill-rule: evenodd"/>
<path id="Shape2DView_nwe0047"  d="M 15.49 0.5 L 18.51 0.5 " stroke="#191919" stroke-width="0.35 px" style="stroke-width:0.35;stroke-miterlimit:4;stroke-dasharray:none;fill:none;fill-opacity:1;fill-rule: evenodd"/>
<path id="Shape2DView_nwe0049"  d="M 19.0 0.010000000000003118 L 19.0 0.008571430081424358 L 19.0 0.007142859465926188 L 19.0 0.00571428826966236 L 19.0 0.004285716608786405 L 19.0 0.0028571445994496347 L 19.0 0.0014285723578073561 L 19.0 1.1102230246251565e-14 L 19.0 -0.0014285723577842635 L 19.0 -0.002857144599426986 L 19.0 -0.0042857166087630905 L 19.0 -0.005714288269639933 L 19.0 -0.007142859465903317 L 19.0 -0.008571430081400822 L 19.0 -0.009999999999997344 " stroke="#191919" stroke-width="0.35 px" style="stroke-width:0.35;stroke-miterlimit:4;stroke-dasharray:none;fill:none;fill-opacity:1;fill-rule: evenodd"/>
<path id="Shape2DView_nwe0051"  d="M 15.49 -0.5 L 18.51 -0.5 " stroke="#191919" stroke-width="0.35 px" style="stroke-width:0.35;stroke-miterlimit:4;stroke-dasharray:none;fill:none;fill-opacity:1;fill-rule: evenodd"/>
<path id="Shape2DView_nwe0052"  d="M 23.233333333333 1.25 L 23.233333333333 1.2186598902272796 L 23.233333333333 1.126211084878024 L 23.233333333333 0.9772893530850374 L 23.233333333333 0.7793622523234169 L 23.233333333333 0.5423546738969478 L 23.233333333333 0.27815116744539314 L 23.233333333333 1.5308084989341916e-16 L 23.233333333333 -0.27815116744539287 L 23.233333333333 -0.5423546738969475 L 23.233333333333 -0.7793622523234167 L 23.233333333333 -0.9772893530850371 L 23.233333333333 -1.1262110848780238 L 23.233333333333 -1.2186598902272796 L 23.233333333333 -1.25 " stroke="#191919" stroke-width="0.35 px" style="stroke-width:0.35;stroke-miterlimit:4;stroke-dasharray:none;fill:none;fill-opacity:1;fill-rule: evenodd"/>
<path id="Shape2DView_nwe0053"  d="M 0.9 0.45 L 2.866666666667 0.45 " stroke="#191919" stroke-width="0.35 px" style="stroke-width:0.35;stroke-miterlimit:4;stroke-dasharray:none;fill:none;fill-opacity:1;fill-rule: evenodd"/>
<path id="Shape2DView_nwe0054"  d="M 0.0 -0.4500000000000001 L 0.00565901109608169 -0.4500000000000001 L 0.02256487903635873 -0.4500000000000001 L 0.05050500272246916 -0.4500000000000001 L 0.08912801888782274 -0.4500000000000001 L 0.13794822069454427 -0.4500000000000001 L 0.19635166577877317 -0.45000000000000007 L 0.2636038969321072 -0.45000000000000007 L 0.33885917832713974 -0.45000000000000007 L 0.4211711311361971 -0.45000000000000007 L 0.5095046347941976 -0.45000000000000007 L 0.6027488442403496 -0.45000000000000007 L 0.699731159439317 -0.45 L 0.7992319715070229 -0.45 L 0.9 -0.45 " stroke="#191919" stroke-width="0.35 px" style="stroke-width:0.35;stroke-miterlimit:4;stroke-dasharray:none;fill:none;fill-opacity:1;fill-rule: evenodd"/>
<circle cx="3.330669073875e-16" cy="0.0" r="0.45" stroke="#191919" stroke-width="0.35 px" style="stroke-width:0.35;stroke-miterlimit:4;stroke-dasharray:none;fill:none"/>
<path id="Shape2DView_nwe0056"  d="M 23.233333333333 0.45 L 25.1 0.45 " stroke="#191919" stroke-width="0.35 px" style="stroke-width:0.35;stroke-miterlimit:4;stroke-dasharray:none;fill:none;fill-opacity:1;fill-rule: evenodd"/>
<path id="Shape2DView_nwe0057"  d="M 26.0 0.45 L 25.994340988903918 0.45 L 25.977435120963644 0.45 L 25.949494997277533 0.45 L 25.91087198111218 0.45 L 25.862051779305457 0.45 L 25.80364833422123 0.45 L 25.736396103067893 0.45 L 25.661140821672863 0.45 L 25.578828868863805 0.45 L 25.490495365205803 0.45 L 25.39725115575965 0.45 L 25.300268840560683 0.45 L 25.200768028492977 0.45 L 25.1 0.45 " stroke="#191919" stroke-width="0.35 px" style="stroke-width:0.35;stroke-miterlimit:4;stroke-dasharray:none;fill:none;fill-opacity:1;fill-rule: evenodd"/>
<path id="Shape2DView_nwe0058"  d="M 26.0 -0.45 A 0.45 0.45 0 0 1 26 0.45" stroke="#191919" stroke-width="0.35 px" style="stroke-width:0.35;stroke-miterlimit:4;stroke-dasharray:none;fill:none;fill-opacity:1;fill-rule: evenodd"/>
<path id="Shape2DView_nwe0059"  d="M 4.064979142851 -1.9172439981588305 L 4.064979142851 1.9172439981579723 " stroke="#191919" stroke-width="0.35 px" style="stroke-width:0.35;stroke-miterlimit:4;stroke-dasharray:none;fill:none;fill-opacity:1;fill-rule: evenodd"/>
<path id="Shape2DView_nwe0060"  d="M 3.1999999999999993 -1.9172439961492238 L 3.1999999999999993 -1.6546981003955226 L 3.1999999999999993 -1.3869459122386423 L 3.1999999999999993 -1.1148298791212934 L 3.1999999999999993 -0.8392061787568987 L 3.1999999999999993 -0.5609420252777524 L 3.199999999999999 -0.2809129406585209 L 3.199999999999999 -1.9984014443252818e-13 L 3.199999999999999 0.2809129406581219 L 3.1999999999999993 0.5609420252773549 L 3.1999999999999993 0.8392061787565046 L 3.1999999999999993 1.1148298791209033 L 3.1999999999999993 1.386945912238258 L 3.1999999999999993 1.6546981003951446 L 3.1999999999999993 1.9172439961488545 " stroke="#191919" stroke-width="0.35 px" style="stroke-width:0.35;stroke-miterlimit:4;stroke-dasharray:none;fill:none;fill-opacity:1;fill-rule: evenodd"/>
<path id="Shape2DView_nwe0061"  d="M 4.269338405373 -1.8864876874402956 L 4.269338405373 1.8864876874402352 " stroke="#191919" stroke-width="0.35 px" style="stroke-width:0.35;stroke-miterlimit:4;stroke-dasharray:none;fill:none;fill-opacity:1;fill-rule: evenodd"/>
<path id="Shape2DView_nwe0062"  d="M 3.1999999999999993 1.917243996149 L 3.1999999999999993 2.2983264303751216 L 3.1999999999999993 2.6631664390129997 L 3.1999999999999993 3.0091856734809883 L 3.1999999999999993 3.3339387928589863 L 3.1999999999999993 3.63513074527519 L 3.1999999999999993 3.9106329871901613 L 3.1999999999999993 4.158498525955439 L 3.1999999999999997 4.376975679339957 L 3.1999999999999997 4.564520454784744 L 3.1999999999999997 4.719807460900934 L 3.1999999999999997 4.841739274098767 L 3.1999999999999997 4.929454194153012 L 3.2 4.982332333895716 L 3.2 5.0 " stroke="#191919" stroke-width="0.35 px" style="stroke-width:0.35;stroke-miterlimit:4;stroke-dasharray:none;fill:none;fill-opacity:1;fill-rule: evenodd"/>
<path id="Shape2DView_nwe0063"  d="M 3.2 -5.0 L 3.2 -4.982332333895643 L 3.2 -4.929454194152878 L 3.1999999999999997 -4.841739274098585 L 3.1999999999999997 -4.719807460900715 L 3.1999999999999997 -4.5645204547845 L 3.1999999999999997 -4.376975679339699 L 3.1999999999999997 -4.158498525955179 L 3.1999999999999993 -3.9106329871899086 L 3.1999999999999993 -3.6351307452749566 L 3.1999999999999993 -3.3339387928587803 L 3.1999999999999993 -3.0091856734808182 L 3.1999999999999993 -2.6631664390128744 L 3.1999999999999993 -2.2983264303750466 L 3.1999999999999993 -1.9172439961490018 " stroke="#191919" stroke-width="0.35 px" style="stroke-width:0.35;stroke-miterlimit:4;stroke-dasharray:none;fill:none;fill-opacity:1;fill-rule: evenodd"/>
<path id="Shape2DView_nwe0064"  d="M 4.064979142851056 1.9172439961489993 Q 4.064979128857451 4.847286525424631 4.064979141117808 4.999989822693031 " stroke="#191919" stroke-width="0.35 px" style="stroke-width:0.35;stroke-miterlimit:4;stroke-dasharray:none;fill:none;fill-opacity:1;fill-rule: evenodd"/>
<path id="Shape2DView_nwe0065"  d="M 4.064979141117959 -4.999989822693038 Q 4.064979128857434 -4.847286525424449 4.064979142851058 -1.917243996149148 " stroke="#191919" stroke-width="0.35 px" style="stroke-width:0.35;stroke-miterlimit:4;stroke-dasharray:none;fill:none;fill-opacity:1;fill-rule: evenodd"/>
<path id="Shape2DView_nwe0066"  d="M 4.269338405372993 1.8864876894180052 Q 4.269338407870576 4.769405125473178 4.269338405682242 4.919620288181116 " stroke="#191919" stroke-width="0.35 px" style="stroke-width:0.35;stroke-miterlimit:4;stroke-dasharray:none;fill:none;fill-opacity:1;fill-rule: evenodd"/>
<path id="Shape2DView_nwe0067"  d="M 4.269338405682148 -4.919620288180902 Q 4.269338407870484 -4.769405125473277 4.2693384053729915 -1.8864876894185443 " stroke="#191919" stroke-width="0.35 px" style="stroke-width:0.35;stroke-miterlimit:4;stroke-dasharray:none;fill:none;fill-opacity:1;fill-rule: evenodd"/>
<path id="Shape2DView_nwe0068"  d="M 4.930661594627008 1.8864876894180052 Q 4.930661592129467 4.769405125472973 4.930661594317707 4.919620288180926 " stroke="#191919" stroke-width="0.35 px" style="stroke-width:0.35;stroke-miterlimit:4;stroke-dasharray:none;fill:none;fill-opacity:1;fill-rule: evenodd"/>
<path id="Shape2DView_nwe0069"  d="M 4.930661594317552 -4.91962028818115 Q 4.930661592129399 -4.769405125473637 4.930661594627004 -1.8864876894191145 " stroke="#191919" stroke-width="0.35 px" style="stroke-width:0.35;stroke-miterlimit:4;stroke-dasharray:none;fill:none;fill-opacity:1;fill-rule: evenodd"/>
<path id="Shape2DView_nwe0070"  d="M 5.1350208571489455 1.9172439961489993 Q 5.135020871142484 4.84728652542469 5.135020858881988 4.999989822693189 " stroke="#191919" stroke-width="0.35 px" style="stroke-width:0.35;stroke-miterlimit:4;stroke-dasharray:none;fill:none;fill-opacity:1;fill-rule: evenodd"/>
<path id="Shape2DView_nwe0071"  d="M 5.135020858882249 -4.999989822693185 Q 5.135020871142721 -4.84728652542458 5.135020857148947 -1.9172439961494323 " stroke="#191919" stroke-width="0.35 px" style="stroke-width:0.35;stroke-miterlimit:4;stroke-dasharray:none;fill:none;fill-opacity:1;fill-rule: evenodd"/>
<path id="Shape2DView_nwe0072"  d="M 22.8 1.917243996149 L 22.8 2.2983264303750923 L 22.8 2.6631664390129437 L 22.8 3.009185673480909 L 22.8 3.3339387928588877 L 22.8 3.6351307452750774 L 22.8 3.910632987190038 L 22.8 4.158498525955311 L 22.8 4.376975679339829 L 22.8 4.564520454784622 L 22.8 4.7198074609008245 L 22.8 4.841739274098675 L 22.8 4.929454194152945 L 22.8 4.9823323338956795 L 22.8 5.0 " stroke="#191919" stroke-width="0.35 px" style="stroke-width:0.35;stroke-miterlimit:4;stroke-dasharray:none;fill:none;fill-opacity:1;fill-rule: evenodd"/>
<path id="Shape2DView_nwe0073"  d="M 22.8 -5.0 L 22.8 -4.9823323338956795 L 22.8 -4.929454194152946 L 22.8 -4.8417392740986775 L 22.8 -4.719807460900826 L 22.8 -4.564520454784625 L 22.8 -4.376975679339831 L 22.8 -4.158498525955314 L 22.8 -3.910632987190041 L 22.8 -3.635130745275081 L 22.8 -3.333938792858893 L 22.8 -3.009185673480914 L 22.8 -2.663166439012949 L 22.8 -2.298326430375098 L 22.8 -1.9172439961490015 " stroke="#191919" stroke-width="0.35 px" style="stroke-width:0.35;stroke-miterlimit:4;stroke-dasharray:none;fill:none;fill-opacity:1;fill-rule: evenodd"/>
<path id="Shape2DView_nwe0074"  d="M 22.8 -1.9172439961492238 L 22.8 -1.6546981003955226 L 22.8 -1.3869459122386423 L 22.8 -1.1148298791212934 L 22.8 -0.8392061787568987 L 22.8 -0.5609420252777524 L 22.8 -0.2809129406585209 L 22.8 -1.9984014443252818e-13 L 22.8 0.2809129406581219 L 22.8 0.5609420252773549 L 22.8 0.8392061787565046 L 22.8 1.1148298791209033 L 22.8 1.386945912238258 L 22.8 1.6546981003951446 L 22.8 1.9172439961488545 " stroke="#191919" stroke-width="0.35 px" style="stroke-width:0.35;stroke-miterlimit:4;stroke-dasharray:none;fill:none;fill-opacity:1;fill-rule: evenodd"/>
<path id="Shape2DView_nwe0075"  d="M 5.135020857149 -1.9172439981588305 L 5.135020857149 1.9172439981579723 " stroke="#191919" stroke-width="0.35 px" style="stroke-width:0.35;stroke-miterlimit:4;stroke-dasharray:none;fill:none;fill-opacity:1;fill-rule: evenodd"/>
<path id="Shape2DView_nwe0076"  d="M 4.930661594627 -1.8864876874402956 L 4.930661594627 1.8864876874402352 " stroke="#191919" stroke-width="0.35 px" style="stroke-width:0.35;stroke-miterlimit:4;stroke-dasharray:none;fill:none;fill-opacity:1;fill-rule: evenodd"/>
<path id="Shape2DView_nwe0077"  d="M 0.9 0.45 L 0.8999999999999999 0.43871756048182065 L 0.8999999999999999 0.40543599055608864 L 0.8999999999999999 0.3518241671106135 L 0.8999999999999999 0.2805704108364302 L 0.8999999999999999 0.19524768260290123 L 0.8999999999999999 0.10013442028034157 L 0.9 8.266365894244634e-17 L 0.9 -0.1001344202803414 L 0.9 -0.1952476826029011 L 0.9 -0.28057041083643003 L 0.9 -0.3518241671106134 L 0.9 -0.4054359905560886 L 0.9 -0.4387175604818206 L 0.9 -0.45 " stroke="#191919" stroke-width="0.35 px" style="stroke-width:0.35;stroke-miterlimit:4;stroke-dasharray:none;fill:none;fill-opacity:1;fill-rule: evenodd"/>
<path id="Shape2DView_nwe0078"  d="M 25.1 -0.45 L 25.1 -0.43871756048182065 L 25.1 -0.40543599055608864 L 25.1 -0.3518241671106135 L 25.1 -0.2805704108364302 L 25.1 -0.19524768260290123 L 25.1 -0.10013442028034157 L 25.1 -8.266365894244634e-17 L 25.1 0.1001344202803414 L 25.1 0.1952476826029011 L 25.1 0.28057041083643003 L 25.1 0.3518241671106134 L 25.1 0.4054359905560886 L 25.1 0.4387175604818206 L 25.1 0.45 " stroke="#191919" stroke-width="0.35 px" style="stroke-width:0.35;stroke-miterlimit:4;stroke-dasharray:none;fill:none;fill-opacity:1;fill-rule: evenodd"/>
<path id="Shape2DView_nwe0079"  d="M 3.1999999999999997 4.9999999999996705 Q 3.019455656295285 4.983885221204712 3.000000000000001 4.799999999999673 " stroke="#191919" stroke-width="0.35 px" style="stroke-width:0.35;stroke-miterlimit:4;stroke-dasharray:none;fill:none;fill-opacity:1;fill-rule: evenodd"/>
<path id="Shape2DView_nwe0080"  d="M 3.1999999999999997 -4.999999999999672 Q 3.0194556562952846 -4.983885221204714 3.0000000000000013 -4.799999999999671 " stroke="#191919" stroke-width="0.35 px" style="stroke-width:0.35;stroke-miterlimit:4;stroke-dasharray:none;fill:none;fill-opacity:1;fill-rule: evenodd"/>
<path id="Shape2DView_nwe0081"  d="M 3.2 -5.0 L 4.0649791411060265 -5.0 " stroke="#191919" stroke-width="0.35 px" style="stroke-width:0.35;stroke-miterlimit:4;stroke-dasharray:none;fill:none;fill-opacity:1;fill-rule: evenodd"/>
<path id="Shape2DView_nwe0082"  d="M 3.1999999999999997 5.0 L 4.064979141105877 5.0 " stroke="#191919" stroke-width="0.35 px" style="stroke-width:0.35;stroke-miterlimit:4;stroke-dasharray:none;fill:none;fill-opacity:1;fill-rule: evenodd"/>
<path id="Shape2DView_nwe0083"  d="M 4.269338405682241 4.919620288186928 L 4.0649791411178295 4.999989822698838 " stroke="#191919" stroke-width="0.35 px" style="stroke-width:0.35;stroke-miterlimit:4;stroke-dasharray:none;fill:none;fill-opacity:1;fill-rule: evenodd"/>
<path id="Shape2DView_nwe0084"  d="M 4.269338405682143 -4.919620288186786 L 4.064979141117982 -4.999989822698921 " stroke="#191919" stroke-width="0.35 px" style="stroke-width:0.35;stroke-miterlimit:4;stroke-dasharray:none;fill:none;fill-opacity:1;fill-rule: evenodd"/>
<path id="Shape2DView_nwe0085"  d="M 4.269343143610366 4.919625488642179 Q 4.594532633537215 4.66134213895886 4.930656856389511 4.919625488642065 " stroke="#191919" stroke-width="0.35 px" style="stroke-width:0.35;stroke-miterlimit:4;stroke-dasharray:none;fill:none;fill-opacity:1;fill-rule: evenodd"/>
<path id="Shape2DView_nwe0086"  d="M 4.269343143610425 -4.919625488642126 Q 4.594532633537321 -4.661342138958876 4.930656856389535 -4.919625488642087 " stroke="#191919" stroke-width="0.35 px" style="stroke-width:0.35;stroke-miterlimit:4;stroke-dasharray:none;fill:none;fill-opacity:1;fill-rule: evenodd"/>
<path id="Shape2DView_nwe0087"  d="M 5.135020858881965 4.999989822698994 L 4.930661594317722 4.919620288186746 " stroke="#191919" stroke-width="0.35 px" style="stroke-width:0.35;stroke-miterlimit:4;stroke-dasharray:none;fill:none;fill-opacity:1;fill-rule: evenodd"/>
<path id="Shape2DView_nwe0088"  d="M 5.135020858882231 -4.999989822699038 L 4.930661594317556 -4.919620288187005 " stroke="#191919" stroke-width="0.35 px" style="stroke-width:0.35;stroke-miterlimit:4;stroke-dasharray:none;fill:none;fill-opacity:1;fill-rule: evenodd"/>
<path id="Shape2DView_nwe0089"  d="M 5.135020858894179 -5.0 L 22.800000000000004 -5.0 " stroke="#191919" stroke-width="0.35 px" style="stroke-width:0.35;stroke-miterlimit:4;stroke-dasharray:none;fill:none;fill-opacity:1;fill-rule: evenodd"/>
<path id="Shape2DView_nwe0090"  d="M 5.135020858893917 5.0 L 22.800000000000004 5.0 " stroke="#191919" stroke-width="0.35 px" style="stroke-width:0.35;stroke-miterlimit:4;stroke-dasharray:none;fill:none;fill-opacity:1;fill-rule: evenodd"/>
<path id="Shape2DView_nwe0091"  d="M 22.8 5.0 Q 22.98054434370472 4.983885221205041 23.0 4.8 " stroke="#191919" stroke-width="0.35 px" style="stroke-width:0.35;stroke-miterlimit:4;stroke-dasharray:none;fill:none;fill-opacity:1;fill-rule: evenodd"/>
<path id="Shape2DView_nwe0092"  d="M 22.8 -5.0 Q 22.980544343704715 -4.983885221205041 22.999999999999996 -4.800000000000001 " stroke="#191919" stroke-width="0.35 px" style="stroke-width:0.35;stroke-miterlimit:4;stroke-dasharray:none;fill:none;fill-opacity:1;fill-rule: evenodd"/>
<path id="Shape2DView_nwe0093"  d="M 2.8666666666670007 -1.25 L 2.9899999999999993 -1.25 " stroke="#191919" stroke-width="0.35 px" style="stroke-width:0.35;stroke-miterlimit:4;stroke-dasharray:none;fill:none;fill-opacity:1;fill-rule: evenodd"/>
<path id="Shape2DView_nwe0094"  d="M 2.8666666666670007 1.25 L 2.9899999999999993 1.25 " stroke="#191919" stroke-width="0.35 px" style="stroke-width:0.35;stroke-miterlimit:4;stroke-dasharray:none;fill:none;fill-opacity:1;fill-rule: evenodd"/>
<path id="Shape2DView_nwe0095"  d="M 23.233333333333 1.25 L 23.01 1.25 " stroke="#191919" stroke-width="0.35 px" style="stroke-width:0.35;stroke-miterlimit:4;stroke-dasharray:none;fill:none;fill-opacity:1;fill-rule: evenodd"/>
<path id="Shape2DView_nwe0096"  d="M 23.233333333333 -1.25 L 23.01 -1.25 " stroke="#191919" stroke-width="0.35 px" style="stroke-width:0.35;stroke-miterlimit:4;stroke-dasharray:none;fill:none;fill-opacity:1;fill-rule: evenodd"/>
<path id="Shape2DView_nwe0097"  d="M 2.866666666667 -0.45 L 0.9 -0.45 " stroke="#191919" stroke-width="0.35 px" style="stroke-width:0.35;stroke-miterlimit:4;stroke-dasharray:none;fill:none;fill-opacity:1;fill-rule: evenodd"/>
<path id="Shape2DView_nwe0098"  d="M 25.1 -0.45 L 23.233333333333 -0.45 " stroke="#191919" stroke-width="0.35 px" style="stroke-width:0.35;stroke-miterlimit:4;stroke-dasharray:none;fill:none;fill-opacity:1;fill-rule: evenodd"/>
<path id="Shape2DView_nwe0099"  d="M 25.099999999999998 -0.4499999999999997 Q 25.91998677052178 -0.4499999999999999 26.0 -0.45000000000000007 " stroke="#191919" stroke-width="0.35 px" style="stroke-width:0.35;stroke-miterlimit:4;stroke-dasharray:none;fill:none;fill-opacity:1;fill-rule: evenodd"/>
<title>b'Shape2DView'</title>
</g>
<g id="Rectangle" transform="translate(0.715653,5.268934) scale(1,-1)">
<rect fill="#ff0000" id="origin" width="1" height="1" x="0" y="0" />
<title>b'Rectangle'</title>
</g>
</svg>