<?xml version="1.0"?>
<!DOCTYPE svg PUBLIC "-//W3C//DTD SVG 1.1//EN" "http://www.w3.org/Graphics/SVG/1.1/DTD/svg11.dtd">
<svg width="10.702743335065136mm" height="10.709633433389378mm" viewBox="0 0 10.702743335065136 10.709633433389378" xmlns="http://www.w3.org/2000/svg" version="1.1">
<g id="Shape2DView" transform="translate(2.847814,5.354929) scale(1,-1)">
<path id="Shape2DView_nwe0000"  d="M -1.8749999999999893 2.91204669156099 A 5.25 5.25 0 0 0 1.625 5.18657" stroke="#191919" stroke-width="0.35 px" style="stroke-width:0.35;stroke-miterlimit:4;stroke-dasharray:none;fill:none;fill-opacity:1;fill-rule: evenodd"/>
<path id="Shape2DView_nwe0001"  d="M 1.625 5.186569810211996 L 1.625 5.186563101504013 L 1.625 5.186542975397454 L 1.625 5.186509431944482 L 1.625 5.186462471232044 L 1.625 5.186402093381857 L 1.625 5.186328298550419 L 1.625 5.186241086929001 L 1.625 5.186140458743652 L 1.625 5.1860264142551955 L 1.625 5.18589895375923 L 1.625 5.185758077586126 L 1.625 5.185603786101027 L 1.625 5.18543607970385 L 1.625 5.185254958829281 " stroke="#191919" stroke-width="0.35 px" style="stroke-width:0.35;stroke-miterlimit:4;stroke-dasharray:none;fill:none;fill-opacity:1;fill-rule: evenodd"/>
<path id="Shape2DView_nwe0002"  d="M -1.875 2.90970065504854 L -1.875 2.9100237959963446 L -1.875 2.910323011275615 L -1.875 2.910598298417776 L -1.875 2.910849655151664 L -1.875 2.9110770794035443 L -1.875 2.9112805692971304 L -1.875 2.9114601231535975 L -1.875 2.911615739491597 L -1.875 2.911747417027269 L -1.875 2.9118551546742517 L -1.875 2.911938951543693 L -1.875 2.911998806944254 L -1.875 2.9120347203821186 L -1.875 2.912046691560995 " stroke="#191919" stroke-width="0.35 px" style="stroke-width:0.35;stroke-miterlimit:4;stroke-dasharray:none;fill:none;fill-opacity:1;fill-rule: evenodd"/>
<path id="Shape2DView_nwe0003"  d="M -1.408333333333 3.466465358973 Q -1.7733013106029154 3.0384961434594673 -1.875 2.909700655049 " stroke="#191919" stroke-width="0.35 px" style="stroke-width:0.35;stroke-miterlimit:4;stroke-dasharray:none;fill:none;fill-opacity:1;fill-rule: evenodd"/>
<path id="Shape2DView_nwe0004"  d="M -1.40833333333337 3.466465358973322 A 5.21749 5.21749 0 0 0 -0.708333 4.12446" stroke="#191919" stroke-width="0.35 px" style="stroke-width:0.35;stroke-miterlimit:4;stroke-dasharray:none;fill:none;fill-opacity:1;fill-rule: evenodd"/>
<path id="Shape2DView_nwe0005"  d="M -0.708333333333 3.962486910513503 L -0.708333333333 3.9780531216105515 L -0.708333333333 3.993012624240229 L -0.708333333333 4.007363131120426 L -0.708333333333 4.0211024480834325 L -0.708333333333 4.034228474411418 L -0.708333333333 4.046739203157635 L -0.708333333333 4.058632721453268 L -0.708333333333 4.069907210799919 L -0.708333333333 4.080560947347641 L -0.708333333333 4.090592302158522 L -0.708333333333 4.099999741455741 L -0.708333333333 4.10878182685808 L -0.708333333333 4.116937215599854 L -0.708333333333 4.124464660736214 " stroke="#191919" stroke-width="0.35 px" style="stroke-width:0.35;stroke-miterlimit:4;stroke-dasharray:none;fill:none;fill-opacity:1;fill-rule: evenodd"/>
<path id="Shape2DView_nwe0006"  d="M -0.708333333333 3.962486910513 Q -0.5358173756041532 3.907545391190374 -0.24166666666700004 4.131075574275 " stroke="#191919" stroke-width="0.35 px" style="stroke-width:0.35;stroke-miterlimit:4;stroke-dasharray:none;fill:none;fill-opacity:1;fill-rule: evenodd"/>
<path id="Shape2DView_nwe0007"  d="M -0.24166666666714853 4.131075574275223 A 4.94975 4.94975 0 0 0 -0.00833333 4.27711" stroke="#191919" stroke-width="0.35 px" style="stroke-width:0.35;stroke-miterlimit:4;stroke-dasharray:none;fill:none;fill-opacity:1;fill-rule: evenodd"/>
<path id="Shape2DView_nwe0008"  d="M -0.008333333333334 4.277114234338 Q 0.39728660304849034 4.518605049164556 0.4583333333330001 4.67338426229 " stroke="#191919" stroke-width="0.35 px" style="stroke-width:0.35;stroke-miterlimit:4;stroke-dasharray:none;fill:none;fill-opacity:1;fill-rule: evenodd"/>
<path id="Shape2DView_nwe0009"  d="M 0.458333333333 4.81143930967009 L 0.458333333333 4.805020439284318 L 0.458333333333 4.798068256764622 L 0.458333333333 4.790583535347183 L 0.458333333333 4.7825671074982665 L 0.458333333333 4.7740198648216285 L 0.458333333333 4.764942757959355 L 0.458333333333 4.755336796486128 L 0.458333333333 4.745203048796936 L 0.458333333333 4.734542641988248 L 0.458333333333 4.723356761732654 L 0.458333333333 4.711646652146993 L 0.458333333333 4.699413615653977 L 0.458333333333 4.686659012837339 L 0.458333333333 4.673384262290493 " stroke="#191919" stroke-width="0.35 px" style="stroke-width:0.35;stroke-miterlimit:4;stroke-dasharray:none;fill:none;fill-opacity:1;fill-rule: evenodd"/>
<path id="Shape2DView_nwe0010"  d="M 0.45833333333285564 4.811439309670338 A 5.21749 5.21749 0 0 0 1.15833 5.05204" stroke="#191919" stroke-width="0.35 px" style="stroke-width:0.35;stroke-miterlimit:4;stroke-dasharray:none;fill:none;fill-opacity:1;fill-rule: evenodd"/>
<path id="Shape2DView_nwe0011"  d="M 1.158333333333 5.052038553777 Q 1.5281217127870907 5.149597460817963 1.6250000000000002 5.185254958829 " stroke="#191919" stroke-width="0.35 px" style="stroke-width:0.35;stroke-miterlimit:4;stroke-dasharray:none;fill:none;fill-opacity:1;fill-rule: evenodd"/>
<path id="Shape2DView_nwe0012"  d="M -1.875 2.909700655049 L -1.875 2.899700655049 " stroke="#191919" stroke-width="0.35 px" style="stroke-width:0.35;stroke-miterlimit:4;stroke-dasharray:none;fill:none;fill-opacity:1;fill-rule: evenodd"/>
<path id="Shape2DView_nwe0013"  d="M 1.625 5.185254958829 L 1.625 5.175254958829 " stroke="#191919" stroke-width="0.35 px" style="stroke-width:0.35;stroke-miterlimit:4;stroke-dasharray:none;fill:none;fill-opacity:1;fill-rule: evenodd"/>
<path id="Shape2DView_nwe0014"  d="M 1.158333333333 5.042038553777 Q 1.5281217127876912 5.1395974608182176 1.625 5.175254958829 " stroke="#191919" stroke-width="0.35 px" style="stroke-width:0.35;stroke-miterlimit:4;stroke-dasharray:none;fill:none;fill-opacity:1;fill-rule: evenodd"/>
<path id="Shape2DView_nwe0015"  d="M 0.45833333333285564 4.801439309670338 A 5.21749 5.21749 0 0 0 1.15833 5.04204" stroke="#191919" stroke-width="0.35 px" style="stroke-width:0.35;stroke-miterlimit:4;stroke-dasharray:none;fill:none;fill-opacity:1;fill-rule: evenodd"/>
<path id="Shape2DView_nwe0016"  d="M -1.408333333333 3.456465358973 Q -1.773301310603502 3.0284961434588413 -1.8750000000000002 2.899700655049 " stroke="#191919" stroke-width="0.35 px" style="stroke-width:0.35;stroke-miterlimit:4;stroke-dasharray:none;fill:none;fill-opacity:1;fill-rule: evenodd"/>
<path id="Shape2DView_nwe0017"  d="M 0.458333333333 4.67338426229 L 0.458333333333 4.66338426229 " stroke="#191919" stroke-width="0.35 px" style="stroke-width:0.35;stroke-miterlimit:4;stroke-dasharray:none;fill:none;fill-opacity:1;fill-rule: evenodd"/>
<path id="Shape2DView_nwe0018"  d="M -1.40833333333337 3.4564653589733223 A 5.21749 5.21749 0 0 0 -0.708333 4.11446" stroke="#191919" stroke-width="0.35 px" style="stroke-width:0.35;stroke-miterlimit:4;stroke-dasharray:none;fill:none;fill-opacity:1;fill-rule: evenodd"/>
<path id="Shape2DView_nwe0019"  d="M -0.008333333333334 4.267114234338 Q 0.39728660304874297 4.508605049164692 0.458333333333 4.66338426229 " stroke="#191919" stroke-width="0.35 px" style="stroke-width:0.35;stroke-miterlimit:4;stroke-dasharray:none;fill:none;fill-opacity:1;fill-rule: evenodd"/>
<path id="Shape2DView_nwe0020"  d="M -0.708333333333 3.962486910513 L -0.708333333333 3.952486910513 " stroke="#191919" stroke-width="0.35 px" style="stroke-width:0.35;stroke-miterlimit:4;stroke-dasharray:none;fill:none;fill-opacity:1;fill-rule: evenodd"/>
<path id="Shape2DView_nwe0021"  d="M -0.24166666666714853 4.121075574275222 A 4.94975 4.94975 0 0 0 -0.00833333 4.26711" stroke="#191919" stroke-width="0.35 px" style="stroke-width:0.35;stroke-miterlimit:4;stroke-dasharray:none;fill:none;fill-opacity:1;fill-rule: evenodd"/>
<path id="Shape2DView_nwe0022"  d="M -0.708333333333 3.952486910513 Q -0.5358173756111589 3.8975453911884355 -0.24166666666699999 4.121075574275 " stroke="#191919" stroke-width="0.35 px" style="stroke-width:0.35;stroke-miterlimit:4;stroke-dasharray:none;fill:none;fill-opacity:1;fill-rule: evenodd"/>
<path id="Shape2DView_nwe0023"  d="M 1.6249999999999738 5.176569810212159 A 5.25 5.25 0 0 0 2.5 5.25" stroke="#191919" stroke-width="0.35 px" style="stroke-width:0.35;stroke-miterlimit:4;stroke-dasharray:none;fill:none;fill-opacity:1;fill-rule: evenodd"/>
<path id="Shape2DView_nwe0024"  d="M -2.686086241236519 0.816706494682924 A 5.25 5.25 0 0 0 -1.875 2.90205" stroke="#191919" stroke-width="0.35 px" style="stroke-width:0.35;stroke-miterlimit:4;stroke-dasharray:none;fill:none;fill-opacity:1;fill-rule: evenodd"/>
<path id="Shape2DView_nwe0025"  d="M -2.686086241236519 -0.8167064946829259 A 5.25 5.25 0 0 0 -2.68609 0.816706" stroke="#191919" stroke-width="0.35 px" style="stroke-width:0.35;stroke-miterlimit:4;stroke-dasharray:none;fill:none;fill-opacity:1;fill-rule: evenodd"/>
<path id="Shape2DView_nwe0026"  d="M -1.8749999999999893 -2.9020466915609915 A 5.25 5.25 0 0 0 -2.68609 -0.816706" stroke="#191919" stroke-width="0.35 px" style="stroke-width:0.35;stroke-miterlimit:4;stroke-dasharray:none;fill:none;fill-opacity:1;fill-rule: evenodd"/>
<path id="Shape2DView_nwe0027"  d="M -1.408333333333 -3.456465358973 Q -1.7733013106037805 -3.02849614345832 -1.875 -2.899700655049 " stroke="#191919" stroke-width="0.35 px" style="stroke-width:0.35;stroke-miterlimit:4;stroke-dasharray:none;fill:none;fill-opacity:1;fill-rule: evenodd"/>
<path id="Shape2DView_nwe0028"  d="M -0.7083333333333743 -4.114464660736479 A 5.21749 5.21749 0 0 0 -1.40833 -3.45647" stroke="#191919" stroke-width="0.35 px" style="stroke-width:0.35;stroke-miterlimit:4;stroke-dasharray:none;fill:none;fill-opacity:1;fill-rule: evenodd"/>
<path id="Shape2DView_nwe0029"  d="M -0.708333333333 -3.952486910513 Q -0.5358173755875427 -3.8975453911962346 -0.24166666666699999 -4.121075574275 " stroke="#191919" stroke-width="0.35 px" style="stroke-width:0.35;stroke-miterlimit:4;stroke-dasharray:none;fill:none;fill-opacity:1;fill-rule: evenodd"/>
<path id="Shape2DView_nwe0030"  d="M -0.008333333333365278 -4.267114234338052 A 4.94975 4.94975 0 0 0 -0.241667 -4.12108" stroke="#191919" stroke-width="0.35 px" style="stroke-width:0.35;stroke-miterlimit:4;stroke-dasharray:none;fill:none;fill-opacity:1;fill-rule: evenodd"/>
<path id="Shape2DView_nwe0031"  d="M -0.008333333333334 -4.267114234338 Q 0.3972866030490192 -4.508605049165135 0.458333333333 -4.663384262290001 " stroke="#191919" stroke-width="0.35 px" style="stroke-width:0.35;stroke-miterlimit:4;stroke-dasharray:none;fill:none;fill-opacity:1;fill-rule: evenodd"/>
<path id="Shape2DView_nwe0032"  d="M 1.158333333332794 -5.042038553777778 A 5.21749 5.21749 0 0 0 0.458333 -4.80144" stroke="#191919" stroke-width="0.35 px" style="stroke-width:0.35;stroke-miterlimit:4;stroke-dasharray:none;fill:none;fill-opacity:1;fill-rule: evenodd"/>
<path id="Shape2DView_nwe0033"  d="M 1.158333333333 -5.042038553777 Q 1.5281217127874376 -5.139597460817951 1.6250000000000002 -5.175254958829 " stroke="#191919" stroke-width="0.35 px" style="stroke-width:0.35;stroke-miterlimit:4;stroke-dasharray:none;fill:none;fill-opacity:1;fill-rule: evenodd"/>
<path id="Shape2DView_nwe0034"  d="M 7.686086241236519 -0.8167064946829248 A 5.25 5.25 0 0 0 1.625 -5.17657" stroke="#191919" stroke-width="0.35 px" style="stroke-width:0.35;stroke-miterlimit:4;stroke-dasharray:none;fill:none;fill-opacity:1;fill-rule: evenodd"/>
<path id="Shape2DView_nwe0035"  d="M 7.75 3.214697847761802e-16 A 5.25 5.25 0 0 0 7.68609 -0.816706" stroke="#191919" stroke-width="0.35 px" style="stroke-width:0.35;stroke-miterlimit:4;stroke-dasharray:none;fill:none;fill-opacity:1;fill-rule: evenodd"/>
<path id="Shape2DView_nwe0036"  d="M 7.686086241236519 0.8167064946829242 A 5.25 5.25 0 0 0 7.75 3.2147e-16" stroke="#191919" stroke-width="0.35 px" style="stroke-width:0.35;stroke-miterlimit:4;stroke-dasharray:none;fill:none;fill-opacity:1;fill-rule: evenodd"/>
<path id="Shape2DView_nwe0037"  d="M 2.5 5.25 A 5.25 5.25 0 0 0 7.68609 0.816706" stroke="#191919" stroke-width="0.35 px" style="stroke-width:0.35;stroke-miterlimit:4;stroke-dasharray:none;fill:none;fill-opacity:1;fill-rule: evenodd"/>
<path id="Shape2DView_nwe0038"  d="M 1.625 -5.175254958829001 L 1.625 -5.185254958828999 " stroke="#191919" stroke-width="0.35 px" style="stroke-width:0.35;stroke-miterlimit:4;stroke-dasharray:none;fill:none;fill-opacity:1;fill-rule: evenodd"/>
<path id="Shape2DView_nwe0039"  d="M 1.625 -5.185254958829286 L 1.625 -5.185436079703854 L 1.625 -5.185603786101031 L 1.625 -5.185758077586129 L 1.625 -5.185898953759234 L 1.625 -5.1860264142552 L 1.625 -5.186140458743656 L 1.625 -5.186241086929005 L 1.625 -5.186328298550423 L 1.625 -5.1864020933818615 L 1.625 -5.186462471232049 L 1.625 -5.186509431944486 L 1.625 -5.186542975397458 L 1.625 -5.186563101504017 L 1.625 -5.186569810212 " stroke="#191919" stroke-width="0.35 px" style="stroke-width:0.35;stroke-miterlimit:4;stroke-dasharray:none;fill:none;fill-opacity:1;fill-rule: evenodd"/>
<path id="Shape2DView_nwe0040"  d="M 1.158333333333 -5.052038553777 Q 1.528121712787451 -5.14959746081793 1.6250000000000002 -5.185254958829 " stroke="#191919" stroke-width="0.35 px" style="stroke-width:0.35;stroke-miterlimit:4;stroke-dasharray:none;fill:none;fill-opacity:1;fill-rule: evenodd"/>
<path id="Shape2DView_nwe0041"  d="M 1.158333333332794 -5.052038553777773 A 5.21749 5.21749 0 0 0 0.458333 -4.81144" stroke="#191919" stroke-width="0.35 px" style="stroke-width:0.35;stroke-miterlimit:4;stroke-dasharray:none;fill:none;fill-opacity:1;fill-rule: evenodd"/>
<path id="Shape2DView_nwe0042"  d="M 0.458333333333 -4.66338426229 L 0.458333333333 -4.67338426229 " stroke="#191919" stroke-width="0.35 px" style="stroke-width:0.35;stroke-miterlimit:4;stroke-dasharray:none;fill:none;fill-opacity:1;fill-rule: evenodd"/>
<path id="Shape2DView_nwe0043"  d="M 0.458333333333 -4.673384262290497 L 0.458333333333 -4.68665901283734 L 0.458333333333 -4.699413615653979 L 0.458333333333 -4.711646652146995 L 0.458333333333 -4.723356761732656 L 0.458333333333 -4.73454264198825 L 0.458333333333 -4.745203048796939 L 0.458333333333 -4.755336796486131 L 0.458333333333 -4.764942757959359 L 0.458333333333 -4.774019864821632 L 0.458333333333 -4.78256710749827 L 0.458333333333 -4.790583535347188 L 0.458333333333 -4.798068256764626 L 0.458333333333 -4.8050204392843225 L 0.458333333333 -4.811439309670093 " stroke="#191919" stroke-width="0.35 px" style="stroke-width:0.35;stroke-miterlimit:4;stroke-dasharray:none;fill:none;fill-opacity:1;fill-rule: evenodd"/>
<path id="Shape2DView_nwe0044"  d="M -0.008333333333334 -4.277114234338 Q 0.39728660304815433 -4.5186050491647 0.458333333333 -4.67338426229 " stroke="#191919" stroke-width="0.35 px" style="stroke-width:0.35;stroke-miterlimit:4;stroke-dasharray:none;fill:none;fill-opacity:1;fill-rule: evenodd"/>
<path id="Shape2DView_nwe0045"  d="M -0.008333333333363946 -4.277114234338049 A 4.94975 4.94975 0 0 0 -0.241667 -4.13108" stroke="#191919" stroke-width="0.35 px" style="stroke-width:0.35;stroke-miterlimit:4;stroke-dasharray:none;fill:none;fill-opacity:1;fill-rule: evenodd"/>
<path id="Shape2DView_nwe0046"  d="M -0.708333333333 -3.962486910513 Q -0.5358173756386652 -3.907545391178596 -0.24166666666699993 -4.131075574275 " stroke="#191919" stroke-width="0.35 px" style="stroke-width:0.35;stroke-miterlimit:4;stroke-dasharray:none;fill:none;fill-opacity:1;fill-rule: evenodd"/>
<path id="Shape2DView_nwe0047"  d="M -0.708333333333 -3.9524869105130005 L -0.708333333333 -3.9624869105130003 " stroke="#191919" stroke-width="0.35 px" style="stroke-width:0.35;stroke-miterlimit:4;stroke-dasharray:none;fill:none;fill-opacity:1;fill-rule: evenodd"/>
<path id="Shape2DView_nwe0048"  d="M -0.708333333333 -4.124464660736218 L -0.708333333333 -4.116937215599862 L -0.708333333333 -4.108781826858087 L -0.708333333333 -4.099999741455748 L -0.708333333333 -4.090592302158529 L -0.708333333333 -4.0805609473476485 L -0.708333333333 -4.069907210799926 L -0.708333333333 -4.058632721453276 L -0.708333333333 -4.046739203157642 L -0.708333333333 -4.034228474411426 L -0.708333333333 -4.02110244808344 L -0.708333333333 -4.007363131120434 L -0.708333333333 -3.9930126242402357 L -0.708333333333 -3.978053121610558 L -0.708333333333 -3.9624869105135083 " stroke="#191919" stroke-width="0.35 px" style="stroke-width:0.35;stroke-miterlimit:4;stroke-dasharray:none;fill:none;fill-opacity:1;fill-rule: evenodd"/>
<path id="Shape2DView_nwe0049"  d="M -0.7083333333333708 -4.124464660736476 A 5.21749 5.21749 0 0 0 -1.40833 -3.46647" stroke="#191919" stroke-width="0.35 px" style="stroke-width:0.35;stroke-miterlimit:4;stroke-dasharray:none;fill:none;fill-opacity:1;fill-rule: evenodd"/>
<path id="Shape2DView_nwe0050"  d="M -1.875 -2.899700655048999 L -1.875 -2.9097006550490008 " stroke="#191919" stroke-width="0.35 px" style="stroke-width:0.35;stroke-miterlimit:4;stroke-dasharray:none;fill:none;fill-opacity:1;fill-rule: evenodd"/>
<path id="Shape2DView_nwe0051"  d="M -1.408333333333 -3.466465358973 Q -1.773301310603768 -3.038496143458405 -1.875 -2.909700655049 " stroke="#191919" stroke-width="0.35 px" style="stroke-width:0.35;stroke-miterlimit:4;stroke-dasharray:none;fill:none;fill-opacity:1;fill-rule: evenodd"/>
<path id="Shape2DView_nwe0052"  d="M -1.875 -2.9120466915609997 L -1.875 -2.9120347203821235 L -1.875 -2.911998806944259 L -1.875 -2.9119389515436978 L -1.875 -2.911855154674257 L -1.875 -2.9117474170272737 L -1.875 -2.911615739491602 L -1.875 -2.911460123153603 L -1.875 -2.9112805692971353 L -1.875 -2.911077079403549 L -1.875 -2.9108496551516687 L -1.875 -2.910598298417781 L -1.875 -2.91032301127562 L -1.875 -2.9100237959963495 L -1.875 -2.9097006550485447 " stroke="#191919" stroke-width="0.35 px" style="stroke-width:0.35;stroke-miterlimit:4;stroke-dasharray:none;fill:none;fill-opacity:1;fill-rule: evenodd"/>
<path id="Shape2DView_nwe0053"  d="M 1.6249999999999734 -5.186569810212159 A 5.25 5.25 0 0 0 -1.875 -2.91205" stroke="#191919" stroke-width="0.35 px" style="stroke-width:0.35;stroke-miterlimit:4;stroke-dasharray:none;fill:none;fill-opacity:1;fill-rule: evenodd"/>
<path id="Shape2DView_nwe0054"  d="M 1.158333333333 5.052038553777 L 1.158333333333 5.042038553777 " stroke="#191919" stroke-width="0.35 px" style="stroke-width:0.35;stroke-miterlimit:4;stroke-dasharray:none;fill:none;fill-opacity:1;fill-rule: evenodd"/>
<path id="Shape2DView_nwe0055"  d="M -1.408333333333 3.466465358973 L -1.408333333333 3.456465358973 " stroke="#191919" stroke-width="0.35 px" style="stroke-width:0.35;stroke-miterlimit:4;stroke-dasharray:none;fill:none;fill-opacity:1;fill-rule: evenodd"/>
<path id="Shape2DView_nwe0056"  d="M -0.008333333333334 4.277114234338 L -0.008333333333334 4.267114234338 " stroke="#191919" stroke-width="0.35 px" style="stroke-width:0.35;stroke-miterlimit:4;stroke-dasharray:none;fill:none;fill-opacity:1;fill-rule: evenodd"/>
<path id="Shape2DView_nwe0057"  d="M -0.241666666667 4.131075574275 L -0.241666666667 4.121075574275 " stroke="#191919" stroke-width="0.35 px" style="stroke-width:0.35;stroke-miterlimit:4;stroke-dasharray:none;fill:none;fill-opacity:1;fill-rule: evenodd"/>
<path id="Shape2DView_nwe0058"  d="M 1.158333333333 -5.042038553777001 L 1.158333333333 -5.052038553776999 " stroke="#191919" stroke-width="0.35 px" style="stroke-width:0.35;stroke-miterlimit:4;stroke-dasharray:none;fill:none;fill-opacity:1;fill-rule: evenodd"/>
<path id="Shape2DView_nwe0059"  d="M -0.008333333333334 -4.267114234337999 L -0.008333333333334 -4.277114234338001 " stroke="#191919" stroke-width="0.35 px" style="stroke-width:0.35;stroke-miterlimit:4;stroke-dasharray:none;fill:none;fill-opacity:1;fill-rule: evenodd"/>
<path id="Shape2DView_nwe0060"  d="M -0.241666666667 -4.121075574275 L -0.241666666667 -4.131075574275 " stroke="#191919" stroke-width="0.35 px" style="stroke-width:0.35;stroke-miterlimit:4;stroke-dasharray:none;fill:none;fill-opacity:1;fill-rule: evenodd"/>
<path id="Shape2DView_nwe0061"  d="M -1.408333333333 -3.4564653589730003 L -1.408333333333 -3.466465358973 " stroke="#191919" stroke-width="0.35 px" style="stroke-width:0.35;stroke-miterlimit:4;stroke-dasharray:none;fill:none;fill-opacity:1;fill-rule: evenodd"/>
<path id="Shape2DView_nwe0062"  d="M 2.5 2.5006890695506074e-28 L 2.5 0.5878134995423658 L 2.5 1.1682349032706498 L 2.5 1.7339650752646258 L 2.5 2.277889630367178 L 2.5 2.7931684017055147 L 2.5 3.273321459758348 L 2.5 3.712310601229371 L 2.5 4.104615282957153 L 2.5 4.4453020459484875 L 2.5 4.730086556487695 L 2.5 4.955387484118925 L 2.5 5.118371538954569 L 2.5 5.216989101939519 L 2.5 5.249999999999995 " stroke="#191919" stroke-width="0.35 px" style="stroke-width:0.35;stroke-miterlimit:4;stroke-dasharray:none;fill:none;fill-opacity:1;fill-rule: evenodd"/>
<title>b'Shape2DView'</title>
</g>
<g id="Rectangle" transform="translate(2.847814,5.354929) scale(1,-1)">
<rect fill="#ff0000" id="origin" width="1" height="1" x="0" y="0" />
<title>b'Rectangle'</title>
</g>
</svg>