<?xml version="1.0"?>
<!DOCTYPE svg PUBLIC "-//W3C//DTD SVG 1.1//EN" "http://www.w3.org/Graphics/SVG/1.1/DTD/svg11.dtd">
<svg width="5.0926195227213675mm" height="5.099511328098874mm" viewBox="0 0 5.0926195227213675 5.099511328098874" xmlns="http://www.w3.org/2000/svg" version="1.1">
<g id="Shape2DView" transform="translate(1.292692,2.549928) scale(1,-1)">
<path id="Shape2DView_nwe0000"  d="M -0.8333333333334241 1.3919269959812797 A 2.5 2.5 0 0 0 0.833333 2.47503" stroke="#191919" stroke-width="0.35 px" style="stroke-width:0.35;stroke-miterlimit:4;stroke-dasharray:none;fill:none;fill-opacity:1;fill-rule: evenodd"/>
<path id="Shape2DView_nwe0001"  d="M 0.833333333333 2.4750332429579998 L 0.833333333333 2.475030048335151 L 0.833333333333 2.475020464474884 L 0.833333333333 2.4750044914020406 L 0.833333333333 2.4749821291580223 L 0.833333333333 2.47495337780079 L 0.833333333333 2.474918237404866 L 0.833333333333 2.4748767080613336 L 0.833333333333 2.474828789877834 L 0.833333333333 2.4747744829785683 L 0.833333333333 2.474713787504298 L 0.833333333333 2.474646703612343 L 0.833333333333 2.474573231476581 L 0.833333333333 2.474493371287448 L 0.833333333333 2.4744071232519387 " stroke="#191919" stroke-width="0.35 px" style="stroke-width:0.35;stroke-miterlimit:4;stroke-dasharray:none;fill:none;fill-opacity:1;fill-rule: evenodd"/>
<path id="Shape2DView_nwe0002"  d="M -0.833333333333 1.3908098357369618 L -0.833333333333 1.3909637123787753 L -0.833333333333 1.391106195845096 L -0.833333333333 1.3912372849604122 L -0.833333333333 1.3913569786432172 L -0.833333333333 1.3914652759060187 L -0.833333333333 1.3915621758553463 L -0.833333333333 1.3916476776917603 L -0.833333333333 1.391721780709856 L -0.833333333333 1.3917844842982718 L -0.833333333333 1.391835787939693 L -0.833333333333 1.3918756912108559 L -0.833333333333 1.3919041937825518 L -0.833333333333 1.3919212954196305 L -0.833333333333 1.3919269959810001 " stroke="#191919" stroke-width="0.35 px" style="stroke-width:0.35;stroke-miterlimit:4;stroke-dasharray:none;fill:none;fill-opacity:1;fill-rule: evenodd"/>
<path id="Shape2DView_nwe0003"  d="M -0.611111111111 1.655935885225 Q -0.7849053864947824 1.4521410200960567 -0.833333333333 1.390809835737 " stroke="#191919" stroke-width="0.35 px" style="stroke-width:0.35;stroke-miterlimit:4;stroke-dasharray:none;fill:none;fill-opacity:1;fill-rule: evenodd"/>
<path id="Shape2DView_nwe0004"  d="M -0.6111111111112688 1.6559358852252353 A 2.48452 2.48452 0 0 0 -0.277778 1.96927" stroke="#191919" stroke-width="0.35 px" style="stroke-width:0.35;stroke-miterlimit:4;stroke-dasharray:none;fill:none;fill-opacity:1;fill-rule: evenodd"/>
<path id="Shape2DView_nwe0005"  d="M -0.277777777778 1.8921366240540554 L -0.277777777778 1.8995491055288332 L -0.277777777778 1.906672678209625 L -0.277777777778 1.9135062529144746 L -0.277777777778 1.9200487848016146 L -0.277777777778 1.926299273529222 L -0.277777777778 1.9322567634083678 L -0.277777777778 1.9379203435491419 L -0.277777777778 1.9432891479999241 L -0.277777777778 1.9483623558797893 L -0.277777777778 1.9531391915040164 L -0.277777777778 1.9576189245026903 L -0.277777777778 1.961800869932375 L -0.277777777778 1.9656843883808381 L -0.277777777778 1.9692688860648175 " stroke="#191919" stroke-width="0.35 px" style="stroke-width:0.35;stroke-miterlimit:4;stroke-dasharray:none;fill:none;fill-opacity:1;fill-rule: evenodd"/>
<path id="Shape2DView_nwe0006"  d="M -0.277777777778 1.892136624054 Q -0.1962093182260693 1.8657437337643714 -0.05555555555556002 1.972416940131 " stroke="#191919" stroke-width="0.35 px" style="stroke-width:0.35;stroke-miterlimit:4;stroke-dasharray:none;fill:none;fill-opacity:1;fill-rule: evenodd"/>
<path id="Shape2DView_nwe0007"  d="M -0.05555555555552605 1.9724169401309475 A 2.35702 2.35702 0 0 0 0.0555556 2.04196" stroke="#191919" stroke-width="0.35 px" style="stroke-width:0.35;stroke-miterlimit:4;stroke-dasharray:none;fill:none;fill-opacity:1;fill-rule: evenodd"/>
<path id="Shape2DView_nwe0008"  d="M 0.05555555555556 2.041959159209 L 0.277777777778 2.230659172519 " stroke="#191919" stroke-width="0.35 px" style="stroke-width:0.35;stroke-miterlimit:4;stroke-dasharray:none;fill:none;fill-opacity:1;fill-rule: evenodd"/>
<path id="Shape2DView_nwe0009"  d="M 0.277777777778 2.296399671271374 L 0.277777777778 2.2933430663257672 L 0.277777777778 2.29003250322115 L 0.277777777778 2.2864683501652268 L 0.277777777778 2.282651003570505 L 0.277777777778 2.2785808880102025 L 0.277777777778 2.274258456171027 L 0.277777777778 2.2696841888028256 L 0.277777777778 2.2648585946651183 L 0.277777777778 2.2597822104705085 L 0.277777777778 2.2544556008249916 L 0.277777777778 2.248879358165158 L 0.277777777778 2.2430541026922985 L 0.277777777778 2.2369804823034287 L 0.277777777778 2.2306591725192226 " stroke="#191919" stroke-width="0.35 px" style="stroke-width:0.35;stroke-miterlimit:4;stroke-dasharray:none;fill:none;fill-opacity:1;fill-rule: evenodd"/>
<path id="Shape2DView_nwe0010"  d="M 0.27777777777771684 2.2963996712716623 A 2.48452 2.48452 0 0 0 0.611111 2.41097" stroke="#191919" stroke-width="0.35 px" style="stroke-width:0.35;stroke-miterlimit:4;stroke-dasharray:none;fill:none;fill-opacity:1;fill-rule: evenodd"/>
<path id="Shape2DView_nwe0011"  d="M 0.611111111111 2.410970739894 L 0.833333333333 2.474407123252 " stroke="#191919" stroke-width="0.35 px" style="stroke-width:0.35;stroke-miterlimit:4;stroke-dasharray:none;fill:none;fill-opacity:1;fill-rule: evenodd"/>
<path id="Shape2DView_nwe0012"  d="M -0.833333333333 1.390809835737 L -0.833333333333 1.3808098357369998 " stroke="#191919" stroke-width="0.35 px" style="stroke-width:0.35;stroke-miterlimit:4;stroke-dasharray:none;fill:none;fill-opacity:1;fill-rule: evenodd"/>
<path id="Shape2DView_nwe0013"  d="M 0.833333333333 2.474407123252 L 0.833333333333 2.464407123252 " stroke="#191919" stroke-width="0.35 px" style="stroke-width:0.35;stroke-miterlimit:4;stroke-dasharray:none;fill:none;fill-opacity:1;fill-rule: evenodd"/>
<path id="Shape2DView_nwe0014"  d="M 0.611111111111 2.400970739894 L 0.833333333333 2.464407123252 " stroke="#191919" stroke-width="0.35 px" style="stroke-width:0.35;stroke-miterlimit:4;stroke-dasharray:none;fill:none;fill-opacity:1;fill-rule: evenodd"/>
<path id="Shape2DView_nwe0015"  d="M 0.27777777777771684 2.286399671271662 A 2.48452 2.48452 0 0 0 0.611111 2.40097" stroke="#191919" stroke-width="0.35 px" style="stroke-width:0.35;stroke-miterlimit:4;stroke-dasharray:none;fill:none;fill-opacity:1;fill-rule: evenodd"/>
<path id="Shape2DView_nwe0016"  d="M -0.611111111111 1.645935885225 Q -0.7849053864943805 1.442141020096154 -0.833333333333 1.380809835737 " stroke="#191919" stroke-width="0.35 px" style="stroke-width:0.35;stroke-miterlimit:4;stroke-dasharray:none;fill:none;fill-opacity:1;fill-rule: evenodd"/>
<path id="Shape2DView_nwe0017"  d="M 0.277777777778 2.230659172519 L 0.277777777778 2.220659172519 " stroke="#191919" stroke-width="0.35 px" style="stroke-width:0.35;stroke-miterlimit:4;stroke-dasharray:none;fill:none;fill-opacity:1;fill-rule: evenodd"/>
<path id="Shape2DView_nwe0018"  d="M 0.277777777778 2.230659172519 L 0.277777777778 2.229965937523451 L 0.277777777778 2.2292694598528766 L 0.277777777778 2.2285697405200513 L 0.277777777778 2.227866780542463 L 0.277777777778 2.2271605809423103 L 0.277777777778 2.226451142746505 L 0.277777777778 2.225738466986666 L 0.277777777778 2.2250225546991222 L 0.277777777778 2.2243034069249075 L 0.277777777778 2.2235810247097607 L 0.277777777778 2.2228554091041244 L 0.277777777778 2.222126561163143 L 0.277777777778 2.221394481946661 L 0.277777777778 2.2206591725192224 " stroke="#191919" stroke-width="0.35 px" style="stroke-width:0.35;stroke-miterlimit:4;stroke-dasharray:none;fill:none;fill-opacity:1;fill-rule: evenodd"/>
<path id="Shape2DView_nwe0019"  d="M -0.6111111111112688 1.645935885225235 A 2.48452 2.48452 0 0 0 -0.277778 1.95927" stroke="#191919" stroke-width="0.35 px" style="stroke-width:0.35;stroke-miterlimit:4;stroke-dasharray:none;fill:none;fill-opacity:1;fill-rule: evenodd"/>
<path id="Shape2DView_nwe0020"  d="M 0.05555555555556 2.031959159209 L 0.277777777778 2.220659172519 " stroke="#191919" stroke-width="0.35 px" style="stroke-width:0.35;stroke-miterlimit:4;stroke-dasharray:none;fill:none;fill-opacity:1;fill-rule: evenodd"/>
<path id="Shape2DView_nwe0021"  d="M -0.277777777778 1.892136624054 L -0.277777777778 1.882136624054 " stroke="#191919" stroke-width="0.35 px" style="stroke-width:0.35;stroke-miterlimit:4;stroke-dasharray:none;fill:none;fill-opacity:1;fill-rule: evenodd"/>
<path id="Shape2DView_nwe0022"  d="M -0.277777777778 1.8821366240540551 L -0.277777777778 1.8828685583248823 L -0.277777777778 1.8835977815899998 L -0.277777777778 1.884324292799452 L -0.277777777778 1.8850480909071878 L -0.277777777778 1.8857691748710632 L -0.277777777778 1.8864875436528419 L -0.277777777778 1.887203196218197 L -0.277777777778 1.8879161315367117 L -0.277777777778 1.8886263485818826 L -0.277777777778 1.8893338463311196 L -0.277777777778 1.8900386237657483 L -0.277777777778 1.8907406798710107 L -0.277777777778 1.8914400136360674 L -0.277777777778 1.892136624054 " stroke="#191919" stroke-width="0.35 px" style="stroke-width:0.35;stroke-miterlimit:4;stroke-dasharray:none;fill:none;fill-opacity:1;fill-rule: evenodd"/>
<path id="Shape2DView_nwe0023"  d="M -0.05555555555552605 1.9624169401309473 A 2.35702 2.35702 0 0 0 0.0555556 2.03196" stroke="#191919" stroke-width="0.35 px" style="stroke-width:0.35;stroke-miterlimit:4;stroke-dasharray:none;fill:none;fill-opacity:1;fill-rule: evenodd"/>
<path id="Shape2DView_nwe0024"  d="M -0.277777777778 1.882136624054 Q -0.19620931821873117 1.855743733766822 -0.05555555555556002 1.962416940131 " stroke="#191919" stroke-width="0.35 px" style="stroke-width:0.35;stroke-miterlimit:4;stroke-dasharray:none;fill:none;fill-opacity:1;fill-rule: evenodd"/>
<path id="Shape2DView_nwe0025"  d="M 0.8333333333329793 2.465033242958113 A 2.5 2.5 0 0 0 1.25 2.5" stroke="#191919" stroke-width="0.35 px" style="stroke-width:0.35;stroke-miterlimit:4;stroke-dasharray:none;fill:none;fill-opacity:1;fill-rule: evenodd"/>
<path id="Shape2DView_nwe0026"  d="M -1.0711917272132174 0.9284766908850857 A 2.5 2.5 0 0 0 -0.833333 1.38193" stroke="#191919" stroke-width="0.35 px" style="stroke-width:0.35;stroke-miterlimit:4;stroke-dasharray:none;fill:none;fill-opacity:1;fill-rule: evenodd"/>
<path id="Shape2DView_nwe0027"  d="M -1.0711917272132174 -0.9284766908850867 A 2.5 2.5 0 0 0 -1.07119 0.928477" stroke="#191919" stroke-width="0.35 px" style="stroke-width:0.35;stroke-miterlimit:4;stroke-dasharray:none;fill:none;fill-opacity:1;fill-rule: evenodd"/>
<path id="Shape2DView_nwe0028"  d="M -0.8333333333334236 -1.38192699598128 A 2.5 2.5 0 0 0 -1.07119 -0.928477" stroke="#191919" stroke-width="0.35 px" style="stroke-width:0.35;stroke-miterlimit:4;stroke-dasharray:none;fill:none;fill-opacity:1;fill-rule: evenodd"/>
<path id="Shape2DView_nwe0029"  d="M -0.611111111111 -1.645935885225 Q -0.7849053864943081 -1.4421410200963107 -0.8333333333330001 -1.380809835737 " stroke="#191919" stroke-width="0.35 px" style="stroke-width:0.35;stroke-miterlimit:4;stroke-dasharray:none;fill:none;fill-opacity:1;fill-rule: evenodd"/>
<path id="Shape2DView_nwe0030"  d="M -0.27777777777791646 -1.9592688860648946 A 2.48452 2.48452 0 0 0 -0.611111 -1.64594" stroke="#191919" stroke-width="0.35 px" style="stroke-width:0.35;stroke-miterlimit:4;stroke-dasharray:none;fill:none;fill-opacity:1;fill-rule: evenodd"/>
<path id="Shape2DView_nwe0031"  d="M -0.277777777778 -1.892136624054 L -0.277777777778 -1.8914400136360692 L -0.277777777778 -1.8907406798710125 L -0.277777777778 -1.8900386237657498 L -0.277777777778 -1.8893338463311211 L -0.277777777778 -1.888626348581884 L -0.277777777778 -1.887916131536713 L -0.277777777778 -1.887203196218198 L -0.277777777778 -1.886487543652843 L -0.277777777778 -1.885769174871064 L -0.277777777778 -1.8850480909071885 L -0.277777777778 -1.8843242927994523 L -0.277777777778 -1.8835977815900002 L -0.277777777778 -1.8828685583248828 L -0.277777777778 -1.8821366240540556 " stroke="#191919" stroke-width="0.35 px" style="stroke-width:0.35;stroke-miterlimit:4;stroke-dasharray:none;fill:none;fill-opacity:1;fill-rule: evenodd"/>
<path id="Shape2DView_nwe0032"  d="M -0.277777777778 -1.882136624054 Q -0.19620931824038468 -1.855743733758745 -0.05555555555555999 -1.9624169401310003 " stroke="#191919" stroke-width="0.35 px" style="stroke-width:0.35;stroke-miterlimit:4;stroke-dasharray:none;fill:none;fill-opacity:1;fill-rule: evenodd"/>
<path id="Shape2DView_nwe0033"  d="M 0.0555555555558529 -2.0319591592085025 A 2.35702 2.35702 0 0 0 -0.0555556 -1.96242" stroke="#191919" stroke-width="0.35 px" style="stroke-width:0.35;stroke-miterlimit:4;stroke-dasharray:none;fill:none;fill-opacity:1;fill-rule: evenodd"/>
<path id="Shape2DView_nwe0034"  d="M 0.05555555555556 -2.031959159209 L 0.277777777778 -2.220659172519 " stroke="#191919" stroke-width="0.35 px" style="stroke-width:0.35;stroke-miterlimit:4;stroke-dasharray:none;fill:none;fill-opacity:1;fill-rule: evenodd"/>
<path id="Shape2DView_nwe0035"  d="M 0.277777777778 -2.2206591725192233 L 0.277777777778 -2.221394481946663 L 0.277777777778 -2.222126561163145 L 0.277777777778 -2.2228554091041266 L 0.277777777778 -2.2235810247097625 L 0.277777777778 -2.224303406924909 L 0.277777777778 -2.225022554699123 L 0.277777777778 -2.225738466986667 L 0.277777777778 -2.2264511427465052 L 0.277777777778 -2.2271605809423107 L 0.277777777778 -2.227866780542463 L 0.277777777778 -2.2285697405200513 L 0.277777777778 -2.229269459852876 L 0.277777777778 -2.22996593752345 L 0.277777777778 -2.2306591725189997 " stroke="#191919" stroke-width="0.35 px" style="stroke-width:0.35;stroke-miterlimit:4;stroke-dasharray:none;fill:none;fill-opacity:1;fill-rule: evenodd"/>
<path id="Shape2DView_nwe0036"  d="M 0.6111111111109461 -2.4009707398942024 A 2.48452 2.48452 0 0 0 0.277778 -2.2864" stroke="#191919" stroke-width="0.35 px" style="stroke-width:0.35;stroke-miterlimit:4;stroke-dasharray:none;fill:none;fill-opacity:1;fill-rule: evenodd"/>
<path id="Shape2DView_nwe0037"  d="M 0.611111111111 -2.400970739894 L 0.833333333333 -2.464407123252 " stroke="#191919" stroke-width="0.35 px" style="stroke-width:0.35;stroke-miterlimit:4;stroke-dasharray:none;fill:none;fill-opacity:1;fill-rule: evenodd"/>
<path id="Shape2DView_nwe0038"  d="M 3.571191727213217 -0.9284766908850871 A 2.5 2.5 0 0 0 0.833333 -2.46503" stroke="#191919" stroke-width="0.35 px" style="stroke-width:0.35;stroke-miterlimit:4;stroke-dasharray:none;fill:none;fill-opacity:1;fill-rule: evenodd"/>
<path id="Shape2DView_nwe0039"  d="M 3.75 1.5308084989341916e-16 A 2.5 2.5 0 0 0 3.57119 -0.928477" stroke="#191919" stroke-width="0.35 px" style="stroke-width:0.35;stroke-miterlimit:4;stroke-dasharray:none;fill:none;fill-opacity:1;fill-rule: evenodd"/>
<path id="Shape2DView_nwe0040"  d="M 3.5711917272132174 0.9284766908850868 A 2.5 2.5 0 0 0 3.75 1.53081e-16" stroke="#191919" stroke-width="0.35 px" style="stroke-width:0.35;stroke-miterlimit:4;stroke-dasharray:none;fill:none;fill-opacity:1;fill-rule: evenodd"/>
<path id="Shape2DView_nwe0041"  d="M 1.25 2.5 A 2.5 2.5 0 0 0 3.57119 0.928477" stroke="#191919" stroke-width="0.35 px" style="stroke-width:0.35;stroke-miterlimit:4;stroke-dasharray:none;fill:none;fill-opacity:1;fill-rule: evenodd"/>
<path id="Shape2DView_nwe0042"  d="M 0.833333333333 -2.464407123252 L 0.833333333333 -2.474407123252 " stroke="#191919" stroke-width="0.35 px" style="stroke-width:0.35;stroke-miterlimit:4;stroke-dasharray:none;fill:none;fill-opacity:1;fill-rule: evenodd"/>
<path id="Shape2DView_nwe0043"  d="M 0.833333333333 -2.4744071232519387 L 0.833333333333 -2.4744933712874486 L 0.833333333333 -2.4745732314765814 L 0.833333333333 -2.4746467036123434 L 0.833333333333 -2.4747137875042986 L 0.833333333333 -2.4747744829785687 L 0.833333333333 -2.474828789877834 L 0.833333333333 -2.4748767080613336 L 0.833333333333 -2.4749182374048666 L 0.833333333333 -2.47495337780079 L 0.833333333333 -2.4749821291580223 L 0.833333333333 -2.4750044914020406 L 0.833333333333 -2.475020464474884 L 0.833333333333 -2.475030048335151 L 0.833333333333 -2.4750332429579998 " stroke="#191919" stroke-width="0.35 px" style="stroke-width:0.35;stroke-miterlimit:4;stroke-dasharray:none;fill:none;fill-opacity:1;fill-rule: evenodd"/>
<path id="Shape2DView_nwe0044"  d="M 0.611111111111 -2.410970739894 L 0.833333333333 -2.474407123252 " stroke="#191919" stroke-width="0.35 px" style="stroke-width:0.35;stroke-miterlimit:4;stroke-dasharray:none;fill:none;fill-opacity:1;fill-rule: evenodd"/>
<path id="Shape2DView_nwe0045"  d="M 0.6111111111109472 -2.4109707398942017 A 2.48452 2.48452 0 0 0 0.277778 -2.2964" stroke="#191919" stroke-width="0.35 px" style="stroke-width:0.35;stroke-miterlimit:4;stroke-dasharray:none;fill:none;fill-opacity:1;fill-rule: evenodd"/>
<path id="Shape2DView_nwe0046"  d="M 0.277777777778 -2.2206591725189995 L 0.277777777778 -2.230659172519 " stroke="#191919" stroke-width="0.35 px" style="stroke-width:0.35;stroke-miterlimit:4;stroke-dasharray:none;fill:none;fill-opacity:1;fill-rule: evenodd"/>
<path id="Shape2DView_nwe0047"  d="M 0.277777777778 -2.2306591725192226 L 0.277777777778 -2.2369804823034274 L 0.277777777778 -2.243054102692297 L 0.277777777778 -2.2488793581651567 L 0.277777777778 -2.2544556008249907 L 0.277777777778 -2.2597822104705076 L 0.277777777778 -2.264858594665118 L 0.277777777778 -2.269684188802825 L 0.277777777778 -2.2742584561710264 L 0.277777777778 -2.2785808880102025 L 0.277777777778 -2.282651003570505 L 0.277777777778 -2.2864683501652268 L 0.277777777778 -2.2900325032211497 L 0.277777777778 -2.2933430663257672 L 0.277777777778 -2.2963996712713737 " stroke="#191919" stroke-width="0.35 px" style="stroke-width:0.35;stroke-miterlimit:4;stroke-dasharray:none;fill:none;fill-opacity:1;fill-rule: evenodd"/>
<path id="Shape2DView_nwe0048"  d="M 0.05555555555556 -2.041959159209 L 0.277777777778 -2.230659172519 " stroke="#191919" stroke-width="0.35 px" style="stroke-width:0.35;stroke-miterlimit:4;stroke-dasharray:none;fill:none;fill-opacity:1;fill-rule: evenodd"/>
<path id="Shape2DView_nwe0049"  d="M 0.0555555555558529 -2.041959159208502 A 2.35702 2.35702 0 0 0 -0.0555556 -1.97242" stroke="#191919" stroke-width="0.35 px" style="stroke-width:0.35;stroke-miterlimit:4;stroke-dasharray:none;fill:none;fill-opacity:1;fill-rule: evenodd"/>
<path id="Shape2DView_nwe0050"  d="M -0.277777777778 -1.892136624054 Q -0.19620931823403454 -1.8657437337618867 -0.05555555555555999 -1.972416940131 " stroke="#191919" stroke-width="0.35 px" style="stroke-width:0.35;stroke-miterlimit:4;stroke-dasharray:none;fill:none;fill-opacity:1;fill-rule: evenodd"/>
<path id="Shape2DView_nwe0051"  d="M -0.277777777778 -1.8821366240540005 L -0.277777777778 -1.8921366240540003 " stroke="#191919" stroke-width="0.35 px" style="stroke-width:0.35;stroke-miterlimit:4;stroke-dasharray:none;fill:none;fill-opacity:1;fill-rule: evenodd"/>
<path id="Shape2DView_nwe0052"  d="M -0.277777777778 -1.9692688860648175 L -0.277777777778 -1.9656843883808375 L -0.277777777778 -1.9618008699323741 L -0.277777777778 -1.9576189245026896 L -0.277777777778 -1.9531391915040157 L -0.277777777778 -1.9483623558797887 L -0.277777777778 -1.9432891479999237 L -0.277777777778 -1.9379203435491414 L -0.277777777778 -1.9322567634083674 L -0.277777777778 -1.9262992735292215 L -0.277777777778 -1.9200487848016143 L -0.277777777778 -1.9135062529144746 L -0.277777777778 -1.906672678209625 L -0.277777777778 -1.8995491055288334 L -0.277777777778 -1.8921366240540554 " stroke="#191919" stroke-width="0.35 px" style="stroke-width:0.35;stroke-miterlimit:4;stroke-dasharray:none;fill:none;fill-opacity:1;fill-rule: evenodd"/>
<path id="Shape2DView_nwe0053"  d="M -0.27777777777791646 -1.9692688860648944 A 2.48452 2.48452 0 0 0 -0.611111 -1.65594" stroke="#191919" stroke-width="0.35 px" style="stroke-width:0.35;stroke-miterlimit:4;stroke-dasharray:none;fill:none;fill-opacity:1;fill-rule: evenodd"/>
<path id="Shape2DView_nwe0054"  d="M -0.833333333333 -1.3808098357369998 L -0.833333333333 -1.3908098357370005 " stroke="#191919" stroke-width="0.35 px" style="stroke-width:0.35;stroke-miterlimit:4;stroke-dasharray:none;fill:none;fill-opacity:1;fill-rule: evenodd"/>
<path id="Shape2DView_nwe0055"  d="M -0.611111111111 -1.655935885225 Q -0.7849053864942681 -1.4521410200961775 -0.833333333333 -1.390809835737 " stroke="#191919" stroke-width="0.35 px" style="stroke-width:0.35;stroke-miterlimit:4;stroke-dasharray:none;fill:none;fill-opacity:1;fill-rule: evenodd"/>
<path id="Shape2DView_nwe0056"  d="M -0.833333333333 -1.3919269959810001 L -0.833333333333 -1.3919212954196305 L -0.833333333333 -1.3919041937825518 L -0.833333333333 -1.3918756912108559 L -0.833333333333 -1.391835787939693 L -0.833333333333 -1.391784484298272 L -0.833333333333 -1.3917217807098563 L -0.833333333333 -1.3916476776917603 L -0.833333333333 -1.3915621758553465 L -0.833333333333 -1.3914652759060187 L -0.833333333333 -1.3913569786432172 L -0.833333333333 -1.3912372849604124 L -0.833333333333 -1.3911061958450963 L -0.833333333333 -1.3909637123787753 L -0.833333333333 -1.3908098357369618 " stroke="#191919" stroke-width="0.35 px" style="stroke-width:0.35;stroke-miterlimit:4;stroke-dasharray:none;fill:none;fill-opacity:1;fill-rule: evenodd"/>
<path id="Shape2DView_nwe0057"  d="M 0.8333333333329812 -2.4750332429581134 A 2.5 2.5 0 0 0 -0.833333 -1.39193" stroke="#191919" stroke-width="0.35 px" style="stroke-width:0.35;stroke-miterlimit:4;stroke-dasharray:none;fill:none;fill-opacity:1;fill-rule: evenodd"/>
<path id="Shape2DView_nwe0058"  d="M 0.611111111111 2.410970739894 L 0.611111111111 2.400970739894 " stroke="#191919" stroke-width="0.35 px" style="stroke-width:0.35;stroke-miterlimit:4;stroke-dasharray:none;fill:none;fill-opacity:1;fill-rule: evenodd"/>
<path id="Shape2DView_nwe0059"  d="M -0.611111111111 1.655935885225 L -0.611111111111 1.645935885225 " stroke="#191919" stroke-width="0.35 px" style="stroke-width:0.35;stroke-miterlimit:4;stroke-dasharray:none;fill:none;fill-opacity:1;fill-rule: evenodd"/>
<path id="Shape2DView_nwe0060"  d="M 0.05555555555556 2.041959159209 L 0.05555555555556 2.031959159209 " stroke="#191919" stroke-width="0.35 px" style="stroke-width:0.35;stroke-miterlimit:4;stroke-dasharray:none;fill:none;fill-opacity:1;fill-rule: evenodd"/>
<path id="Shape2DView_nwe0061"  d="M -0.05555555555556 1.972416940131 L -0.05555555555556 1.962416940131 " stroke="#191919" stroke-width="0.35 px" style="stroke-width:0.35;stroke-miterlimit:4;stroke-dasharray:none;fill:none;fill-opacity:1;fill-rule: evenodd"/>
<path id="Shape2DView_nwe0062"  d="M 0.611111111111 -2.4009707398939995 L 0.611111111111 -2.410970739894 " stroke="#191919" stroke-width="0.35 px" style="stroke-width:0.35;stroke-miterlimit:4;stroke-dasharray:none;fill:none;fill-opacity:1;fill-rule: evenodd"/>
<path id="Shape2DView_nwe0063"  d="M 0.05555555555556 -2.0319591592090003 L 0.05555555555556 -2.041959159209 " stroke="#191919" stroke-width="0.35 px" style="stroke-width:0.35;stroke-miterlimit:4;stroke-dasharray:none;fill:none;fill-opacity:1;fill-rule: evenodd"/>
<path id="Shape2DView_nwe0064"  d="M -0.05555555555556 -1.9624169401309999 L -0.05555555555556 -1.9724169401309997 " stroke="#191919" stroke-width="0.35 px" style="stroke-width:0.35;stroke-miterlimit:4;stroke-dasharray:none;fill:none;fill-opacity:1;fill-rule: evenodd"/>
<path id="Shape2DView_nwe0065"  d="M -0.611111111111 -1.6459358852249997 L -0.611111111111 -1.6559358852250003 " stroke="#191919" stroke-width="0.35 px" style="stroke-width:0.35;stroke-miterlimit:4;stroke-dasharray:none;fill:none;fill-opacity:1;fill-rule: evenodd"/>
<path id="Shape2DView_nwe0066"  d="M 1.25 -4.9994059868381623e-29 L 1.25 0.27991119025826966 L 1.25 0.5563023348907858 L 1.25 0.8256976548879177 L 1.25 1.0847093477938954 L 1.25 1.3300801912883413 L 1.25 1.5587245046468337 L 1.25 1.7677669529663687 L 1.25 1.9545787061700746 L 1.25 2.1168104980707096 L 1.25 2.2524221697560476 L 1.25 2.3597083257709186 L 1.25 2.4373197804545588 L 1.25 2.484280524733106 L 1.25 2.4999999999999996 " stroke="#191919" stroke-width="0.35 px" style="stroke-width:0.35;stroke-miterlimit:4;stroke-dasharray:none;fill:none;fill-opacity:1;fill-rule: evenodd"/>
<title>b'Shape2DView'</title>
</g>
<g id="Rectangle" transform="translate(1.292692,2.549928) scale(1,-1)">
<rect fill="#ff0000" id="origin" width="1" height="1" x="0" y="0" />
<title>b'Rectangle'</title>
</g>
</svg>