<?xml version="1.0"?>
<!DOCTYPE svg PUBLIC "-//W3C//DTD SVG 1.1//EN" "http://www.w3.org/Graphics/SVG/1.1/DTD/svg11.dtd">
<svg width="5.606281525790007mm" height="4.609903421363738mm" viewBox="0 0 5.606281525790007 4.609903421363738" xmlns="http://www.w3.org/2000/svg" version="1.1">
<g id="Shape2DView" transform="translate(0.303141,2.304964) scale(1,-1)">
<path id="Shape2DView_nwe0000"  d="M 0.6249999999998728 1.2537342963830833 A 2.25 2.25 0 0 0 2.125 2.22853" stroke="#191919" stroke-width="0.35 px" style="stroke-width:0.35;stroke-miterlimit:4;stroke-dasharray:none;fill:none;fill-opacity:1;fill-rule: evenodd"/>
<path id="Shape2DView_nwe0001"  d="M 2.125 2.228529918662 L 2.125 2.228527043501436 L 2.125 2.228518418027196 L 2.125 2.2285040422616373 L 2.125 2.2284839162420207 L 2.125 2.228458040020512 L 2.125 2.2284264136641814 L 2.125 2.2283890372550026 L 2.125 2.228345910889854 L 2.125 2.2282970346805153 L 2.125 2.2282424087536734 L 2.125 2.2281820332509144 L 2.125 2.22811590832873 L 2.125 2.2280440341585117 L 2.125 2.227966410926554 " stroke="#191919" stroke-width="0.35 px" style="stroke-width:0.35;stroke-miterlimit:4;stroke-dasharray:none;fill:none;fill-opacity:1;fill-rule: evenodd"/>
<path id="Shape2DView_nwe0002"  d="M 0.625 1.2527288521633826 L 0.625 1.2528673411410125 L 0.625 1.252995576260699 L 0.625 1.2531135564644815 L 0.625 1.2532212807790042 L 0.625 1.253318748315524 L 0.625 1.2534059582699175 L 0.625 1.2534829099226885 L 0.625 1.2535496026389736 L 0.625 1.253606035868547 L 0.625 1.2536522091458249 L 0.625 1.253688122089871 L 0.625 1.253713774404397 L 0.625 1.2537291658777674 L 0.625 1.253734296383 " stroke="#191919" stroke-width="0.35 px" style="stroke-width:0.35;stroke-miterlimit:4;stroke-dasharray:none;fill:none;fill-opacity:1;fill-rule: evenodd"/>
<path id="Shape2DView_nwe0003"  d="M 0.825 1.491342296703 Q 0.6685851521253986 1.3079269180490287 0.625 1.252728852164 " stroke="#191919" stroke-width="0.35 px" style="stroke-width:0.35;stroke-miterlimit:4;stroke-dasharray:none;fill:none;fill-opacity:1;fill-rule: evenodd"/>
<path id="Shape2DView_nwe0004"  d="M 0.8250000000000635 1.4913422967029437 A 2.23607 2.23607 0 0 0 1.125 1.77334" stroke="#191919" stroke-width="0.35 px" style="stroke-width:0.35;stroke-miterlimit:4;stroke-dasharray:none;fill:none;fill-opacity:1;fill-rule: evenodd"/>
<path id="Shape2DView_nwe0005"  d="M 1.125 1.703922961648563 L 1.125 1.7105941949758747 L 1.125 1.7170054103885983 L 1.125 1.7231556276229736 L 1.125 1.7290439063214094 L 1.125 1.734669346176265 L 1.125 1.7400310870675049 L 1.125 1.7451283091942091 L 1.125 1.7499602331999202 L 1.125 1.7545261202918052 L 1.125 1.7588252723536153 L 1.125 1.7628570320524268 L 1.125 1.7666207829391474 L 1.125 1.7701159495427679 L 1.125 1.7733419974583537 " stroke="#191919" stroke-width="0.35 px" style="stroke-width:0.35;stroke-miterlimit:4;stroke-dasharray:none;fill:none;fill-opacity:1;fill-rule: evenodd"/>
<path id="Shape2DView_nwe0006"  d="M 1.125 1.703922961648 L 1.3250000000000002 1.776175246118 " stroke="#191919" stroke-width="0.35 px" style="stroke-width:0.35;stroke-miterlimit:4;stroke-dasharray:none;fill:none;fill-opacity:1;fill-rule: evenodd"/>
<path id="Shape2DView_nwe0007"  d="M 1.3249999999997981 1.7761752461183011 A 2.12132 2.12132 0 0 0 1.425 1.83876" stroke="#191919" stroke-width="0.35 px" style="stroke-width:0.35;stroke-miterlimit:4;stroke-dasharray:none;fill:none;fill-opacity:1;fill-rule: evenodd"/>
<path id="Shape2DView_nwe0008"  d="M 1.425 1.838763243288 L 1.625 2.008593255267 " stroke="#191919" stroke-width="0.35 px" style="stroke-width:0.35;stroke-miterlimit:4;stroke-dasharray:none;fill:none;fill-opacity:1;fill-rule: evenodd"/>
<path id="Shape2DView_nwe0009"  d="M 1.625 2.0677597041441627 L 1.625 2.065008759693116 L 1.625 2.062029252898959 L 1.625 2.0588215151486264 L 1.625 2.0553859032133746 L 1.625 2.0517227992090996 L 1.625 2.0478326105538383 L 1.625 2.0437157699224535 L 1.625 2.0393727351985125 L 1.625 2.034803989423359 L 1.625 2.030010040742389 L 1.625 2.0249914223485326 L 1.625 2.019748692422953 L 1.625 2.0142824340729635 L 1.625 2.0085932552671713 " stroke="#191919" stroke-width="0.35 px" style="stroke-width:0.35;stroke-miterlimit:4;stroke-dasharray:none;fill:none;fill-opacity:1;fill-rule: evenodd"/>
<path id="Shape2DView_nwe0010"  d="M 1.6249999999998117 2.0677597041444393 A 2.23607 2.23607 0 0 0 1.925 2.17087" stroke="#191919" stroke-width="0.35 px" style="stroke-width:0.35;stroke-miterlimit:4;stroke-dasharray:none;fill:none;fill-opacity:1;fill-rule: evenodd"/>
<path id="Shape2DView_nwe0011"  d="M 1.925 2.170873665905 L 2.125 2.2279664109270003 " stroke="#191919" stroke-width="0.35 px" style="stroke-width:0.35;stroke-miterlimit:4;stroke-dasharray:none;fill:none;fill-opacity:1;fill-rule: evenodd"/>
<path id="Shape2DView_nwe0012"  d="M 0.625 1.252728852164 L 0.625 1.2427288521640003 " stroke="#191919" stroke-width="0.35 px" style="stroke-width:0.35;stroke-miterlimit:4;stroke-dasharray:none;fill:none;fill-opacity:1;fill-rule: evenodd"/>
<path id="Shape2DView_nwe0013"  d="M 2.125 2.227966410927 L 2.125 2.217966410927 " stroke="#191919" stroke-width="0.35 px" style="stroke-width:0.35;stroke-miterlimit:4;stroke-dasharray:none;fill:none;fill-opacity:1;fill-rule: evenodd"/>
<path id="Shape2DView_nwe0014"  d="M 1.925 2.160873665905 L 2.125 2.2179664109270005 " stroke="#191919" stroke-width="0.35 px" style="stroke-width:0.35;stroke-miterlimit:4;stroke-dasharray:none;fill:none;fill-opacity:1;fill-rule: evenodd"/>
<path id="Shape2DView_nwe0015"  d="M 1.6249999999998117 2.05775970414444 A 2.23607 2.23607 0 0 0 1.925 2.16087" stroke="#191919" stroke-width="0.35 px" style="stroke-width:0.35;stroke-miterlimit:4;stroke-dasharray:none;fill:none;fill-opacity:1;fill-rule: evenodd"/>
<path id="Shape2DView_nwe0016"  d="M 0.825 1.481342296703 Q 0.6685851521252261 1.297926918048631 0.625 1.2427288521639999 " stroke="#191919" stroke-width="0.35 px" style="stroke-width:0.35;stroke-miterlimit:4;stroke-dasharray:none;fill:none;fill-opacity:1;fill-rule: evenodd"/>
<path id="Shape2DView_nwe0017"  d="M 1.625 2.008593255267 L 1.625 1.998593255267 " stroke="#191919" stroke-width="0.35 px" style="stroke-width:0.35;stroke-miterlimit:4;stroke-dasharray:none;fill:none;fill-opacity:1;fill-rule: evenodd"/>
<path id="Shape2DView_nwe0018"  d="M 0.8250000000000635 1.4813422967029444 A 2.23607 2.23607 0 0 0 1.125 1.76334" stroke="#191919" stroke-width="0.35 px" style="stroke-width:0.35;stroke-miterlimit:4;stroke-dasharray:none;fill:none;fill-opacity:1;fill-rule: evenodd"/>
<path id="Shape2DView_nwe0019"  d="M 1.425 1.828763243288 L 1.625 1.998593255267 " stroke="#191919" stroke-width="0.35 px" style="stroke-width:0.35;stroke-miterlimit:4;stroke-dasharray:none;fill:none;fill-opacity:1;fill-rule: evenodd"/>
<path id="Shape2DView_nwe0020"  d="M 1.125 1.703922961648 L 1.125 1.693922961648 " stroke="#191919" stroke-width="0.35 px" style="stroke-width:0.35;stroke-miterlimit:4;stroke-dasharray:none;fill:none;fill-opacity:1;fill-rule: evenodd"/>
<path id="Shape2DView_nwe0021"  d="M 1.3249999999997981 1.7661752461183018 A 2.12132 2.12132 0 0 0 1.425 1.82876" stroke="#191919" stroke-width="0.35 px" style="stroke-width:0.35;stroke-miterlimit:4;stroke-dasharray:none;fill:none;fill-opacity:1;fill-rule: evenodd"/>
<path id="Shape2DView_nwe0022"  d="M 1.125 1.693922961648 L 1.3250000000000002 1.7661752461180003 " stroke="#191919" stroke-width="0.35 px" style="stroke-width:0.35;stroke-miterlimit:4;stroke-dasharray:none;fill:none;fill-opacity:1;fill-rule: evenodd"/>
<path id="Shape2DView_nwe0023"  d="M 2.1249999999999414 2.218529918662346 A 2.25 2.25 0 0 0 2.5 2.25" stroke="#191919" stroke-width="0.35 px" style="stroke-width:0.35;stroke-miterlimit:4;stroke-dasharray:none;fill:none;fill-opacity:1;fill-rule: evenodd"/>
<path id="Shape2DView_nwe0024"  d="M 0.459877498250858 0.9488941868600643 A 2.25 2.25 0 0 0 0.625 1.24373" stroke="#191919" stroke-width="0.35 px" style="stroke-width:0.35;stroke-miterlimit:4;stroke-dasharray:none;fill:none;fill-opacity:1;fill-rule: evenodd"/>
<path id="Shape2DView_nwe0025"  d="M 0.45987749825085844 -0.9488941868600651 A 2.25 2.25 0 0 0 0.459877 0.948894" stroke="#191919" stroke-width="0.35 px" style="stroke-width:0.35;stroke-miterlimit:4;stroke-dasharray:none;fill:none;fill-opacity:1;fill-rule: evenodd"/>
<path id="Shape2DView_nwe0026"  d="M 0.6249999999998745 -1.2437342963830857 A 2.25 2.25 0 0 0 0.459877 -0.948894" stroke="#191919" stroke-width="0.35 px" style="stroke-width:0.35;stroke-miterlimit:4;stroke-dasharray:none;fill:none;fill-opacity:1;fill-rule: evenodd"/>
<path id="Shape2DView_nwe0027"  d="M 0.825 -1.481342296703 Q 0.6685851521253253 -1.2979269180485493 0.625 -1.2427288521639999 " stroke="#191919" stroke-width="0.35 px" style="stroke-width:0.35;stroke-miterlimit:4;stroke-dasharray:none;fill:none;fill-opacity:1;fill-rule: evenodd"/>
<path id="Shape2DView_nwe0028"  d="M 1.1249999999997569 -1.7633419974583118 A 2.23607 2.23607 0 0 0 0.825 -1.48134" stroke="#191919" stroke-width="0.35 px" style="stroke-width:0.35;stroke-miterlimit:4;stroke-dasharray:none;fill:none;fill-opacity:1;fill-rule: evenodd"/>
<path id="Shape2DView_nwe0029"  d="M 1.125 -1.693922961648 L 1.3250000000000002 -1.7661752461180003 " stroke="#191919" stroke-width="0.35 px" style="stroke-width:0.35;stroke-miterlimit:4;stroke-dasharray:none;fill:none;fill-opacity:1;fill-rule: evenodd"/>
<path id="Shape2DView_nwe0030"  d="M 1.424999999999968 -1.8287632432880547 A 2.12132 2.12132 0 0 0 1.325 -1.76618" stroke="#191919" stroke-width="0.35 px" style="stroke-width:0.35;stroke-miterlimit:4;stroke-dasharray:none;fill:none;fill-opacity:1;fill-rule: evenodd"/>
<path id="Shape2DView_nwe0031"  d="M 1.425 -1.828763243288 L 1.625 -1.998593255267 " stroke="#191919" stroke-width="0.35 px" style="stroke-width:0.35;stroke-miterlimit:4;stroke-dasharray:none;fill:none;fill-opacity:1;fill-rule: evenodd"/>
<path id="Shape2DView_nwe0032"  d="M 1.9250000000000453 -2.1608736659048327 A 2.23607 2.23607 0 0 0 1.625 -2.05776" stroke="#191919" stroke-width="0.35 px" style="stroke-width:0.35;stroke-miterlimit:4;stroke-dasharray:none;fill:none;fill-opacity:1;fill-rule: evenodd"/>
<path id="Shape2DView_nwe0033"  d="M 1.925 -2.160873665905 L 2.125 -2.2179664109270005 " stroke="#191919" stroke-width="0.35 px" style="stroke-width:0.35;stroke-miterlimit:4;stroke-dasharray:none;fill:none;fill-opacity:1;fill-rule: evenodd"/>
<path id="Shape2DView_nwe0034"  d="M 4.540122501749141 -0.9488941868600655 A 2.25 2.25 0 0 0 2.125 -2.21853" stroke="#191919" stroke-width="0.35 px" style="stroke-width:0.35;stroke-miterlimit:4;stroke-dasharray:none;fill:none;fill-opacity:1;fill-rule: evenodd"/>
<path id="Shape2DView_nwe0035"  d="M 4.75 1.3777276490407724e-16 A 2.25 2.25 0 0 0 4.54012 -0.948894" stroke="#191919" stroke-width="0.35 px" style="stroke-width:0.35;stroke-miterlimit:4;stroke-dasharray:none;fill:none;fill-opacity:1;fill-rule: evenodd"/>
<path id="Shape2DView_nwe0036"  d="M 4.540122501749141 0.9488941868600658 A 2.25 2.25 0 0 0 4.75 1.37773e-16" stroke="#191919" stroke-width="0.35 px" style="stroke-width:0.35;stroke-miterlimit:4;stroke-dasharray:none;fill:none;fill-opacity:1;fill-rule: evenodd"/>
<path id="Shape2DView_nwe0037"  d="M 2.5 2.25 A 2.25 2.25 0 0 0 4.54012 0.948894" stroke="#191919" stroke-width="0.35 px" style="stroke-width:0.35;stroke-miterlimit:4;stroke-dasharray:none;fill:none;fill-opacity:1;fill-rule: evenodd"/>
<path id="Shape2DView_nwe0038"  d="M 2.125 -2.2179664109269996 L 2.125 -2.2279664109269994 " stroke="#191919" stroke-width="0.35 px" style="stroke-width:0.35;stroke-miterlimit:4;stroke-dasharray:none;fill:none;fill-opacity:1;fill-rule: evenodd"/>
<path id="Shape2DView_nwe0039"  d="M 2.125 -2.227966410926553 L 2.125 -2.228044034158511 L 2.125 -2.228115908328729 L 2.125 -2.2281820332509135 L 2.125 -2.2282424087536725 L 2.125 -2.2282970346805144 L 2.125 -2.228345910889853 L 2.125 -2.2283890372550017 L 2.125 -2.2284264136641805 L 2.125 -2.228458040020511 L 2.125 -2.22848391624202 L 2.125 -2.2285040422616365 L 2.125 -2.2285184180271953 L 2.125 -2.228527043501435 L 2.125 -2.228529918661999 " stroke="#191919" stroke-width="0.35 px" style="stroke-width:0.35;stroke-miterlimit:4;stroke-dasharray:none;fill:none;fill-opacity:1;fill-rule: evenodd"/>
<path id="Shape2DView_nwe0040"  d="M 1.925 -2.170873665905 L 2.125 -2.2279664109270003 " stroke="#191919" stroke-width="0.35 px" style="stroke-width:0.35;stroke-miterlimit:4;stroke-dasharray:none;fill:none;fill-opacity:1;fill-rule: evenodd"/>
<path id="Shape2DView_nwe0041"  d="M 1.9250000000000453 -2.170873665904832 A 2.23607 2.23607 0 0 0 1.625 -2.06776" stroke="#191919" stroke-width="0.35 px" style="stroke-width:0.35;stroke-miterlimit:4;stroke-dasharray:none;fill:none;fill-opacity:1;fill-rule: evenodd"/>
<path id="Shape2DView_nwe0042"  d="M 1.625 -1.998593255267 L 1.625 -2.008593255267 " stroke="#191919" stroke-width="0.35 px" style="stroke-width:0.35;stroke-miterlimit:4;stroke-dasharray:none;fill:none;fill-opacity:1;fill-rule: evenodd"/>
<path id="Shape2DView_nwe0043"  d="M 1.625 -2.0085932552671704 L 1.625 -2.0142824340729613 L 1.625 -2.0197486924229513 L 1.625 -2.024991422348531 L 1.625 -2.030010040742387 L 1.625 -2.0348039894233576 L 1.625 -2.039372735198511 L 1.625 -2.043715769922452 L 1.625 -2.047832610553837 L 1.625 -2.0517227992090987 L 1.625 -2.0553859032133737 L 1.625 -2.0588215151486255 L 1.625 -2.062029252898958 L 1.625 -2.0650087596931153 L 1.625 -2.0677597041441613 " stroke="#191919" stroke-width="0.35 px" style="stroke-width:0.35;stroke-miterlimit:4;stroke-dasharray:none;fill:none;fill-opacity:1;fill-rule: evenodd"/>
<path id="Shape2DView_nwe0044"  d="M 1.425 -1.838763243288 L 1.625 -2.008593255267 " stroke="#191919" stroke-width="0.35 px" style="stroke-width:0.35;stroke-miterlimit:4;stroke-dasharray:none;fill:none;fill-opacity:1;fill-rule: evenodd"/>
<path id="Shape2DView_nwe0045"  d="M 1.424999999999968 -1.8387632432880543 A 2.12132 2.12132 0 0 0 1.325 -1.77618" stroke="#191919" stroke-width="0.35 px" style="stroke-width:0.35;stroke-miterlimit:4;stroke-dasharray:none;fill:none;fill-opacity:1;fill-rule: evenodd"/>
<path id="Shape2DView_nwe0046"  d="M 1.125 -1.703922961648 L 1.3250000000000002 -1.776175246118 " stroke="#191919" stroke-width="0.35 px" style="stroke-width:0.35;stroke-miterlimit:4;stroke-dasharray:none;fill:none;fill-opacity:1;fill-rule: evenodd"/>
<path id="Shape2DView_nwe0047"  d="M 1.125 -1.693922961648 L 1.125 -1.7039229616479998 " stroke="#191919" stroke-width="0.35 px" style="stroke-width:0.35;stroke-miterlimit:4;stroke-dasharray:none;fill:none;fill-opacity:1;fill-rule: evenodd"/>
<path id="Shape2DView_nwe0048"  d="M 1.125 -1.7733419974583526 L 1.125 -1.7701159495427679 L 1.125 -1.7666207829391471 L 1.125 -1.7628570320524266 L 1.125 -1.758825272353615 L 1.125 -1.7545261202918052 L 1.125 -1.7499602331999202 L 1.125 -1.745128309194209 L 1.125 -1.7400310870675046 L 1.125 -1.7346693461762646 L 1.125 -1.729043906321409 L 1.125 -1.7231556276229731 L 1.125 -1.7170054103885979 L 1.125 -1.7105941949758738 L 1.125 -1.7039229616485623 " stroke="#191919" stroke-width="0.35 px" style="stroke-width:0.35;stroke-miterlimit:4;stroke-dasharray:none;fill:none;fill-opacity:1;fill-rule: evenodd"/>
<path id="Shape2DView_nwe0049"  d="M 1.1249999999997569 -1.7733419974583113 A 2.23607 2.23607 0 0 0 0.825 -1.49134" stroke="#191919" stroke-width="0.35 px" style="stroke-width:0.35;stroke-miterlimit:4;stroke-dasharray:none;fill:none;fill-opacity:1;fill-rule: evenodd"/>
<path id="Shape2DView_nwe0050"  d="M 0.625 -1.2427288521640003 L 0.625 -1.252728852164 " stroke="#191919" stroke-width="0.35 px" style="stroke-width:0.35;stroke-miterlimit:4;stroke-dasharray:none;fill:none;fill-opacity:1;fill-rule: evenodd"/>
<path id="Shape2DView_nwe0051"  d="M 0.825 -1.491342296703 Q 0.6685851521251084 -1.3079269180490496 0.625 -1.252728852164 " stroke="#191919" stroke-width="0.35 px" style="stroke-width:0.35;stroke-miterlimit:4;stroke-dasharray:none;fill:none;fill-opacity:1;fill-rule: evenodd"/>
<path id="Shape2DView_nwe0052"  d="M 0.625 -1.253734296382999 L 0.625 -1.2537291658777663 L 0.625 -1.2537137744043958 L 0.625 -1.25368812208987 L 0.625 -1.2536522091458238 L 0.625 -1.253606035868546 L 0.625 -1.2535496026389725 L 0.625 -1.2534829099226874 L 0.625 -1.2534059582699164 L 0.625 -1.2533187483155228 L 0.625 -1.253221280779003 L 0.625 -1.2531135564644806 L 0.625 -1.252995576260698 L 0.625 -1.2528673411410114 L 0.625 -1.2527288521633817 " stroke="#191919" stroke-width="0.35 px" style="stroke-width:0.35;stroke-miterlimit:4;stroke-dasharray:none;fill:none;fill-opacity:1;fill-rule: evenodd"/>
<path id="Shape2DView_nwe0053"  d="M 4.933012701892 0.25 L 4.73606797749979 0.25 " stroke="#191919" stroke-width="0.35 px" style="stroke-width:0.35;stroke-miterlimit:4;stroke-dasharray:none;fill:none;fill-opacity:1;fill-rule: evenodd"/>
<path id="Shape2DView_nwe0054"  d="M 2.1249999999999423 -2.228529918662346 A 2.25 2.25 0 0 0 0.625 -1.25373" stroke="#191919" stroke-width="0.35 px" style="stroke-width:0.35;stroke-miterlimit:4;stroke-dasharray:none;fill:none;fill-opacity:1;fill-rule: evenodd"/>
<path id="Shape2DView_nwe0055"  d="M 0.06698729810778 -0.25 L 0.2639320225002102 -0.24999999999999997 " stroke="#191919" stroke-width="0.35 px" style="stroke-width:0.35;stroke-miterlimit:4;stroke-dasharray:none;fill:none;fill-opacity:1;fill-rule: evenodd"/>
<path id="Shape2DView_nwe0056"  d="M 5.0 0.25 L 4.999650352394199 0.25 L 4.998601898590589 0.25 L 4.996856104946619 0.25 L 4.994415413112559 0.25 L 4.991283236616637 0.25 L 4.9874639560909015 0.25 L 4.98296291314452 0.25 L 4.977786402893052 0.25 L 4.97194166515416 0.25 L 4.965436874322074 0.25 L 4.958281127934954 0.25 L 4.950484433951169 0.25 L 4.942057696752258 0.25 L 4.933012701892165 0.25 " stroke="#191919" stroke-width="0.35 px" style="stroke-width:0.35;stroke-miterlimit:4;stroke-dasharray:none;fill:none;fill-opacity:1;fill-rule: evenodd"/>
<path id="Shape2DView_nwe0057"  d="M 5.0 -0.25 A 0.25 0.25 0 0 1 5 0.25" stroke="#191919" stroke-width="0.35 px" style="stroke-width:0.35;stroke-miterlimit:4;stroke-dasharray:none;fill:none;fill-opacity:1;fill-rule: evenodd"/>
<path id="Shape2DView_nwe0058"  d="M 0.0 -0.25000000000000006 L 0.00034964760580069587 -0.25000000000000006 L 0.0013981014094099353 -0.25000000000000006 L 0.003143895053378698 -0.25000000000000006 L 0.0055845868874357385 -0.25000000000000006 L 0.008716763383355863 -0.25000000000000006 L 0.01253604390908819 -0.25000000000000006 L 0.017037086855465844 -0.25000000000000006 L 0.022213597106929606 -0.25000000000000006 L 0.028058334845816157 -0.25000000000000006 L 0.03456312567789782 -0.25000000000000006 L 0.04171887206501185 -0.25000000000000006 L 0.04951556604879037 -0.25000000000000006 L 0.057942303247695004 -0.25000000000000006 L 0.06698729810778054 -0.25000000000000006 " stroke="#191919" stroke-width="0.35 px" style="stroke-width:0.35;stroke-miterlimit:4;stroke-dasharray:none;fill:none;fill-opacity:1;fill-rule: evenodd"/>
<path id="Shape2DView_nwe0059"  d="M 1.6939404805685882e-16 0.25 A 0.25 0.25 0 0 1 1.33057e-16 -0.25" stroke="#191919" stroke-width="0.35 px" style="stroke-width:0.35;stroke-miterlimit:4;stroke-dasharray:none;fill:none;fill-opacity:1;fill-rule: evenodd"/>
<path id="Shape2DView_nwe0060"  d="M 1.925 2.170873665905 L 1.925 2.160873665905 " stroke="#191919" stroke-width="0.35 px" style="stroke-width:0.35;stroke-miterlimit:4;stroke-dasharray:none;fill:none;fill-opacity:1;fill-rule: evenodd"/>
<path id="Shape2DView_nwe0061"  d="M 0.825 1.491342296703 L 0.825 1.481342296703 " stroke="#191919" stroke-width="0.35 px" style="stroke-width:0.35;stroke-miterlimit:4;stroke-dasharray:none;fill:none;fill-opacity:1;fill-rule: evenodd"/>
<path id="Shape2DView_nwe0062"  d="M 1.425 1.838763243288 L 1.425 1.828763243288 " stroke="#191919" stroke-width="0.35 px" style="stroke-width:0.35;stroke-miterlimit:4;stroke-dasharray:none;fill:none;fill-opacity:1;fill-rule: evenodd"/>
<path id="Shape2DView_nwe0063"  d="M 1.325 1.776175246118 L 1.325 1.766175246118 " stroke="#191919" stroke-width="0.35 px" style="stroke-width:0.35;stroke-miterlimit:4;stroke-dasharray:none;fill:none;fill-opacity:1;fill-rule: evenodd"/>
<path id="Shape2DView_nwe0064"  d="M 1.925 -2.160873665905 L 1.925 -2.170873665905 " stroke="#191919" stroke-width="0.35 px" style="stroke-width:0.35;stroke-miterlimit:4;stroke-dasharray:none;fill:none;fill-opacity:1;fill-rule: evenodd"/>
<path id="Shape2DView_nwe0065"  d="M 1.425 -1.8287632432879999 L 1.425 -1.8387632432879997 " stroke="#191919" stroke-width="0.35 px" style="stroke-width:0.35;stroke-miterlimit:4;stroke-dasharray:none;fill:none;fill-opacity:1;fill-rule: evenodd"/>
<path id="Shape2DView_nwe0066"  d="M 1.325 -1.7661752461180003 L 1.325 -1.776175246118 " stroke="#191919" stroke-width="0.35 px" style="stroke-width:0.35;stroke-miterlimit:4;stroke-dasharray:none;fill:none;fill-opacity:1;fill-rule: evenodd"/>
<path id="Shape2DView_nwe0067"  d="M 0.825 -1.4813422967029997 L 0.825 -1.4913422967029994 " stroke="#191919" stroke-width="0.35 px" style="stroke-width:0.35;stroke-miterlimit:4;stroke-dasharray:none;fill:none;fill-opacity:1;fill-rule: evenodd"/>
<path id="Shape2DView_nwe0068"  d="M 4.933012701892 -0.25 A 0.25 0.216506 90 0 1 4.93301 0.25" stroke="#191919" stroke-width="0.35 px" style="stroke-width:0.35;stroke-miterlimit:4;stroke-dasharray:none;fill:none;fill-opacity:1;fill-rule: evenodd"/>
<path id="Shape2DView_nwe0069"  d="M 0.06698729810778 0.25 A 0.25 0.216506 -90 0 1 0.0669873 -0.25" stroke="#191919" stroke-width="0.35 px" style="stroke-width:0.35;stroke-miterlimit:4;stroke-dasharray:none;fill:none;fill-opacity:1;fill-rule: evenodd"/>
<path id="Shape2DView_nwe0070"  d="M 2.5 2.4947726127614498e-29 L 2.5 0.2519200712324427 L 2.5 0.5006721014017075 L 2.5 0.743127889399126 L 2.5 0.9762384130145059 L 2.5 1.1970721721595077 L 2.5 1.4028520541821508 L 2.5 1.5909902576697323 L 2.5 1.7591208355530672 L 2.5 1.90512944826364 L 2.5 2.0271799527804433 L 2.5 2.1237374931938273 L 2.5 2.1935878024091036 L 2.5 2.235852472259796 L 2.5 2.2500000000000004 " stroke="#191919" stroke-width="0.35 px" style="stroke-width:0.35;stroke-miterlimit:4;stroke-dasharray:none;fill:none;fill-opacity:1;fill-rule: evenodd"/>
<path id="Shape2DView_nwe0071"  d="M 4.73606797749979 -0.25 L 4.933012701892 -0.25 " stroke="#191919" stroke-width="0.35 px" style="stroke-width:0.35;stroke-miterlimit:4;stroke-dasharray:none;fill:none;fill-opacity:1;fill-rule: evenodd"/>
<path id="Shape2DView_nwe0072"  d="M 0.2639320225002102 0.25 L 0.06698729810777995 0.25 " stroke="#191919" stroke-width="0.35 px" style="stroke-width:0.35;stroke-miterlimit:4;stroke-dasharray:none;fill:none;fill-opacity:1;fill-rule: evenodd"/>
<path id="Shape2DView_nwe0073"  d="M 4.933012701892165 -0.25 L 5.0 -0.25 " stroke="#191919" stroke-width="0.35 px" style="stroke-width:0.35;stroke-miterlimit:4;stroke-dasharray:none;fill:none;fill-opacity:1;fill-rule: evenodd"/>
<path id="Shape2DView_nwe0074"  d="M 0.06698729810778065 0.25000000000000006 L 1.6653345369377348e-16 0.24999999999999997 " stroke="#191919" stroke-width="0.35 px" style="stroke-width:0.35;stroke-miterlimit:4;stroke-dasharray:none;fill:none;fill-opacity:1;fill-rule: evenodd"/>
<title>b'Shape2DView'</title>
</g>
<g id="Rectangle" transform="translate(0.303141,2.304964) scale(1,-1)">
<rect fill="#ff0000" id="origin" width="1" height="1" x="0" y="0" />
<title>b'Rectangle'</title>
</g>
</svg>