<?xml version="1.0"?>
<!DOCTYPE svg PUBLIC "-//W3C//DTD SVG 1.1//EN" "http://www.w3.org/Graphics/SVG/1.1/DTD/svg11.dtd">
<svg width="5.606281525790007mm" height="5.109583132080612mm" viewBox="0 0 5.606281525790007 5.109583132080612" xmlns="http://www.w3.org/2000/svg" version="1.1">
<g id="Shape2DView" transform="translate(0.303141,2.554964) scale(1,-1)">
<path id="Shape2DView_nwe0000"  d="M 0.4166666666665759 1.3919269959812797 A 2.5 2.5 0 0 0 2.08333 2.47503" stroke="#191919" stroke-width="0.35 px" style="stroke-width:0.35;stroke-miterlimit:4;stroke-dasharray:none;fill:none;fill-opacity:1;fill-rule: evenodd"/>
<path id="Shape2DView_nwe0001"  d="M 2.083333333333 2.4750332429579998 L 2.083333333333 2.475030048335151 L 2.083333333333 2.475020464474884 L 2.083333333333 2.4750044914020406 L 2.083333333333 2.4749821291580223 L 2.083333333333 2.47495337780079 L 2.083333333333 2.474918237404866 L 2.083333333333 2.4748767080613336 L 2.083333333333 2.474828789877834 L 2.083333333333 2.4747744829785683 L 2.083333333333 2.474713787504298 L 2.083333333333 2.474646703612343 L 2.083333333333 2.474573231476581 L 2.083333333333 2.474493371287448 L 2.083333333333 2.4744071232519387 " stroke="#191919" stroke-width="0.35 px" style="stroke-width:0.35;stroke-miterlimit:4;stroke-dasharray:none;fill:none;fill-opacity:1;fill-rule: evenodd"/>
<path id="Shape2DView_nwe0002"  d="M 0.416666666667 1.3908098357369618 L 0.416666666667 1.3909637123787753 L 0.416666666667 1.391106195845096 L 0.416666666667 1.3912372849604122 L 0.416666666667 1.3913569786432172 L 0.416666666667 1.3914652759060187 L 0.416666666667 1.3915621758553463 L 0.416666666667 1.3916476776917603 L 0.416666666667 1.391721780709856 L 0.416666666667 1.3917844842982718 L 0.416666666667 1.391835787939693 L 0.416666666667 1.3918756912108559 L 0.416666666667 1.3919041937825518 L 0.416666666667 1.3919212954196305 L 0.416666666667 1.3919269959810001 " stroke="#191919" stroke-width="0.35 px" style="stroke-width:0.35;stroke-miterlimit:4;stroke-dasharray:none;fill:none;fill-opacity:1;fill-rule: evenodd"/>
<path id="Shape2DView_nwe0003"  d="M 0.638888888889 1.655935885225 Q 0.4650946135052176 1.4521410200960567 0.4166666666669999 1.390809835737 " stroke="#191919" stroke-width="0.35 px" style="stroke-width:0.35;stroke-miterlimit:4;stroke-dasharray:none;fill:none;fill-opacity:1;fill-rule: evenodd"/>
<path id="Shape2DView_nwe0004"  d="M 0.6388888888887312 1.6559358852252353 A 2.48452 2.48452 0 0 0 0.972222 1.96927" stroke="#191919" stroke-width="0.35 px" style="stroke-width:0.35;stroke-miterlimit:4;stroke-dasharray:none;fill:none;fill-opacity:1;fill-rule: evenodd"/>
<path id="Shape2DView_nwe0005"  d="M 0.972222222222 1.8921366240540554 L 0.972222222222 1.8995491055288332 L 0.972222222222 1.906672678209625 L 0.972222222222 1.9135062529144746 L 0.972222222222 1.9200487848016146 L 0.972222222222 1.926299273529222 L 0.972222222222 1.9322567634083678 L 0.972222222222 1.9379203435491419 L 0.972222222222 1.9432891479999241 L 0.972222222222 1.9483623558797893 L 0.972222222222 1.9531391915040164 L 0.972222222222 1.9576189245026903 L 0.972222222222 1.961800869932375 L 0.972222222222 1.9656843883808381 L 0.972222222222 1.9692688860648175 " stroke="#191919" stroke-width="0.35 px" style="stroke-width:0.35;stroke-miterlimit:4;stroke-dasharray:none;fill:none;fill-opacity:1;fill-rule: evenodd"/>
<path id="Shape2DView_nwe0006"  d="M 0.972222222222 1.892136624054 Q 1.0537906817742237 1.8657437337643714 1.194444444444 1.972416940131 " stroke="#191919" stroke-width="0.35 px" style="stroke-width:0.35;stroke-miterlimit:4;stroke-dasharray:none;fill:none;fill-opacity:1;fill-rule: evenodd"/>
<path id="Shape2DView_nwe0007"  d="M 1.1944444444441689 1.9724169401307443 A 2.35702 2.35702 0 0 0 1.30556 2.04196" stroke="#191919" stroke-width="0.35 px" style="stroke-width:0.35;stroke-miterlimit:4;stroke-dasharray:none;fill:none;fill-opacity:1;fill-rule: evenodd"/>
<path id="Shape2DView_nwe0008"  d="M 1.305555555556 2.041959159209 L 1.5277777777780002 2.230659172519 " stroke="#191919" stroke-width="0.35 px" style="stroke-width:0.35;stroke-miterlimit:4;stroke-dasharray:none;fill:none;fill-opacity:1;fill-rule: evenodd"/>
<path id="Shape2DView_nwe0009"  d="M 1.527777777778 2.296399671271374 L 1.527777777778 2.2933430663257672 L 1.527777777778 2.29003250322115 L 1.527777777778 2.2864683501652268 L 1.527777777778 2.282651003570505 L 1.527777777778 2.2785808880102025 L 1.527777777778 2.274258456171027 L 1.527777777778 2.2696841888028256 L 1.527777777778 2.2648585946651183 L 1.527777777778 2.2597822104705085 L 1.527777777778 2.2544556008249916 L 1.527777777778 2.248879358165158 L 1.527777777778 2.2430541026922985 L 1.527777777778 2.2369804823034287 L 1.527777777778 2.2306591725192226 " stroke="#191919" stroke-width="0.35 px" style="stroke-width:0.35;stroke-miterlimit:4;stroke-dasharray:none;fill:none;fill-opacity:1;fill-rule: evenodd"/>
<path id="Shape2DView_nwe0010"  d="M 1.5277777777777168 2.2963996712716623 A 2.48452 2.48452 0 0 0 1.86111 2.41097" stroke="#191919" stroke-width="0.35 px" style="stroke-width:0.35;stroke-miterlimit:4;stroke-dasharray:none;fill:none;fill-opacity:1;fill-rule: evenodd"/>
<path id="Shape2DView_nwe0011"  d="M 1.861111111111 2.410970739894 L 2.083333333333 2.474407123252 " stroke="#191919" stroke-width="0.35 px" style="stroke-width:0.35;stroke-miterlimit:4;stroke-dasharray:none;fill:none;fill-opacity:1;fill-rule: evenodd"/>
<path id="Shape2DView_nwe0012"  d="M 0.416666666667 1.390809835737 L 0.416666666667 1.3808098357369998 " stroke="#191919" stroke-width="0.35 px" style="stroke-width:0.35;stroke-miterlimit:4;stroke-dasharray:none;fill:none;fill-opacity:1;fill-rule: evenodd"/>
<path id="Shape2DView_nwe0013"  d="M 2.083333333333 2.474407123252 L 2.083333333333 2.464407123252 " stroke="#191919" stroke-width="0.35 px" style="stroke-width:0.35;stroke-miterlimit:4;stroke-dasharray:none;fill:none;fill-opacity:1;fill-rule: evenodd"/>
<path id="Shape2DView_nwe0014"  d="M 1.861111111111 2.400970739894 L 2.083333333333 2.464407123252 " stroke="#191919" stroke-width="0.35 px" style="stroke-width:0.35;stroke-miterlimit:4;stroke-dasharray:none;fill:none;fill-opacity:1;fill-rule: evenodd"/>
<path id="Shape2DView_nwe0015"  d="M 1.5277777777777168 2.286399671271662 A 2.48452 2.48452 0 0 0 1.86111 2.40097" stroke="#191919" stroke-width="0.35 px" style="stroke-width:0.35;stroke-miterlimit:4;stroke-dasharray:none;fill:none;fill-opacity:1;fill-rule: evenodd"/>
<path id="Shape2DView_nwe0016"  d="M 0.638888888889 1.645935885225 Q 0.4650946135056196 1.442141020096154 0.4166666666669999 1.380809835737 " stroke="#191919" stroke-width="0.35 px" style="stroke-width:0.35;stroke-miterlimit:4;stroke-dasharray:none;fill:none;fill-opacity:1;fill-rule: evenodd"/>
<path id="Shape2DView_nwe0017"  d="M 1.527777777778 2.230659172519 L 1.527777777778 2.220659172519 " stroke="#191919" stroke-width="0.35 px" style="stroke-width:0.35;stroke-miterlimit:4;stroke-dasharray:none;fill:none;fill-opacity:1;fill-rule: evenodd"/>
<path id="Shape2DView_nwe0018"  d="M 0.6388888888887312 1.645935885225235 A 2.48452 2.48452 0 0 0 0.972222 1.95927" stroke="#191919" stroke-width="0.35 px" style="stroke-width:0.35;stroke-miterlimit:4;stroke-dasharray:none;fill:none;fill-opacity:1;fill-rule: evenodd"/>
<path id="Shape2DView_nwe0019"  d="M 1.305555555556 2.031959159209 L 1.5277777777780002 2.220659172519 " stroke="#191919" stroke-width="0.35 px" style="stroke-width:0.35;stroke-miterlimit:4;stroke-dasharray:none;fill:none;fill-opacity:1;fill-rule: evenodd"/>
<path id="Shape2DView_nwe0020"  d="M 0.972222222222 1.892136624054 L 0.972222222222 1.882136624054 " stroke="#191919" stroke-width="0.35 px" style="stroke-width:0.35;stroke-miterlimit:4;stroke-dasharray:none;fill:none;fill-opacity:1;fill-rule: evenodd"/>
<path id="Shape2DView_nwe0021"  d="M 1.1944444444441689 1.962416940130744 A 2.35702 2.35702 0 0 0 1.30556 2.03196" stroke="#191919" stroke-width="0.35 px" style="stroke-width:0.35;stroke-miterlimit:4;stroke-dasharray:none;fill:none;fill-opacity:1;fill-rule: evenodd"/>
<path id="Shape2DView_nwe0022"  d="M 0.972222222222 1.882136624054 Q 1.053790681781594 1.855743733766822 1.1944444444439999 1.962416940131 " stroke="#191919" stroke-width="0.35 px" style="stroke-width:0.35;stroke-miterlimit:4;stroke-dasharray:none;fill:none;fill-opacity:1;fill-rule: evenodd"/>
<path id="Shape2DView_nwe0023"  d="M 2.083333333332979 2.465033242958113 A 2.5 2.5 0 0 0 2.5 2.5" stroke="#191919" stroke-width="0.35 px" style="stroke-width:0.35;stroke-miterlimit:4;stroke-dasharray:none;fill:none;fill-opacity:1;fill-rule: evenodd"/>
<path id="Shape2DView_nwe0024"  d="M 0.17880827278678257 0.9284766908850857 A 2.5 2.5 0 0 0 0.416667 1.38193" stroke="#191919" stroke-width="0.35 px" style="stroke-width:0.35;stroke-miterlimit:4;stroke-dasharray:none;fill:none;fill-opacity:1;fill-rule: evenodd"/>
<path id="Shape2DView_nwe0025"  d="M 0.17880827278678257 -0.9284766908850867 A 2.5 2.5 0 0 0 0.178808 0.928477" stroke="#191919" stroke-width="0.35 px" style="stroke-width:0.35;stroke-miterlimit:4;stroke-dasharray:none;fill:none;fill-opacity:1;fill-rule: evenodd"/>
<path id="Shape2DView_nwe0026"  d="M 0.41666666666657637 -1.38192699598128 A 2.5 2.5 0 0 0 0.178808 -0.928477" stroke="#191919" stroke-width="0.35 px" style="stroke-width:0.35;stroke-miterlimit:4;stroke-dasharray:none;fill:none;fill-opacity:1;fill-rule: evenodd"/>
<path id="Shape2DView_nwe0027"  d="M 0.638888888889 -1.645935885225 Q 0.465094613505692 -1.4421410200963107 0.4166666666669999 -1.380809835737 " stroke="#191919" stroke-width="0.35 px" style="stroke-width:0.35;stroke-miterlimit:4;stroke-dasharray:none;fill:none;fill-opacity:1;fill-rule: evenodd"/>
<path id="Shape2DView_nwe0028"  d="M 0.9722222222220835 -1.9592688860648946 A 2.48452 2.48452 0 0 0 0.638889 -1.64594" stroke="#191919" stroke-width="0.35 px" style="stroke-width:0.35;stroke-miterlimit:4;stroke-dasharray:none;fill:none;fill-opacity:1;fill-rule: evenodd"/>
<path id="Shape2DView_nwe0029"  d="M 0.972222222222 -1.882136624054 Q 1.053790681759857 -1.855743733758745 1.194444444444 -1.9624169401310003 " stroke="#191919" stroke-width="0.35 px" style="stroke-width:0.35;stroke-miterlimit:4;stroke-dasharray:none;fill:none;fill-opacity:1;fill-rule: evenodd"/>
<path id="Shape2DView_nwe0030"  d="M 1.3055555555561797 -2.0319591592086943 A 2.35702 2.35702 0 0 0 1.19444 -1.96242" stroke="#191919" stroke-width="0.35 px" style="stroke-width:0.35;stroke-miterlimit:4;stroke-dasharray:none;fill:none;fill-opacity:1;fill-rule: evenodd"/>
<path id="Shape2DView_nwe0031"  d="M 1.305555555556 -2.031959159209 L 1.5277777777780002 -2.220659172519 " stroke="#191919" stroke-width="0.35 px" style="stroke-width:0.35;stroke-miterlimit:4;stroke-dasharray:none;fill:none;fill-opacity:1;fill-rule: evenodd"/>
<path id="Shape2DView_nwe0032"  d="M 1.861111111110946 -2.4009707398942024 A 2.48452 2.48452 0 0 0 1.52778 -2.2864" stroke="#191919" stroke-width="0.35 px" style="stroke-width:0.35;stroke-miterlimit:4;stroke-dasharray:none;fill:none;fill-opacity:1;fill-rule: evenodd"/>
<path id="Shape2DView_nwe0033"  d="M 1.861111111111 -2.400970739894 L 2.083333333333 -2.464407123252 " stroke="#191919" stroke-width="0.35 px" style="stroke-width:0.35;stroke-miterlimit:4;stroke-dasharray:none;fill:none;fill-opacity:1;fill-rule: evenodd"/>
<path id="Shape2DView_nwe0034"  d="M 4.8211917272132165 -0.9284766908850871 A 2.5 2.5 0 0 0 2.08333 -2.46503" stroke="#191919" stroke-width="0.35 px" style="stroke-width:0.35;stroke-miterlimit:4;stroke-dasharray:none;fill:none;fill-opacity:1;fill-rule: evenodd"/>
<path id="Shape2DView_nwe0035"  d="M 5.0 1.5308084989341916e-16 A 2.5 2.5 0 0 0 4.82119 -0.928477" stroke="#191919" stroke-width="0.35 px" style="stroke-width:0.35;stroke-miterlimit:4;stroke-dasharray:none;fill:none;fill-opacity:1;fill-rule: evenodd"/>
<path id="Shape2DView_nwe0036"  d="M 4.821191727213217 0.9284766908850868 A 2.5 2.5 0 0 0 5 1.53081e-16" stroke="#191919" stroke-width="0.35 px" style="stroke-width:0.35;stroke-miterlimit:4;stroke-dasharray:none;fill:none;fill-opacity:1;fill-rule: evenodd"/>
<path id="Shape2DView_nwe0037"  d="M 2.5 2.5 A 2.5 2.5 0 0 0 4.82119 0.928477" stroke="#191919" stroke-width="0.35 px" style="stroke-width:0.35;stroke-miterlimit:4;stroke-dasharray:none;fill:none;fill-opacity:1;fill-rule: evenodd"/>
<path id="Shape2DView_nwe0038"  d="M 2.083333333333 -2.464407123252 L 2.083333333333 -2.474407123252 " stroke="#191919" stroke-width="0.35 px" style="stroke-width:0.35;stroke-miterlimit:4;stroke-dasharray:none;fill:none;fill-opacity:1;fill-rule: evenodd"/>
<path id="Shape2DView_nwe0039"  d="M 2.083333333333 -2.4744071232519387 L 2.083333333333 -2.4744933712874486 L 2.083333333333 -2.4745732314765814 L 2.083333333333 -2.4746467036123434 L 2.083333333333 -2.4747137875042986 L 2.083333333333 -2.4747744829785687 L 2.083333333333 -2.474828789877834 L 2.083333333333 -2.4748767080613336 L 2.083333333333 -2.4749182374048666 L 2.083333333333 -2.47495337780079 L 2.083333333333 -2.4749821291580223 L 2.083333333333 -2.4750044914020406 L 2.083333333333 -2.475020464474884 L 2.083333333333 -2.475030048335151 L 2.083333333333 -2.4750332429579998 " stroke="#191919" stroke-width="0.35 px" style="stroke-width:0.35;stroke-miterlimit:4;stroke-dasharray:none;fill:none;fill-opacity:1;fill-rule: evenodd"/>
<path id="Shape2DView_nwe0040"  d="M 1.861111111111 -2.410970739894 L 2.083333333333 -2.474407123252 " stroke="#191919" stroke-width="0.35 px" style="stroke-width:0.35;stroke-miterlimit:4;stroke-dasharray:none;fill:none;fill-opacity:1;fill-rule: evenodd"/>
<path id="Shape2DView_nwe0041"  d="M 1.861111111110946 -2.4109707398942017 A 2.48452 2.48452 0 0 0 1.52778 -2.2964" stroke="#191919" stroke-width="0.35 px" style="stroke-width:0.35;stroke-miterlimit:4;stroke-dasharray:none;fill:none;fill-opacity:1;fill-rule: evenodd"/>
<path id="Shape2DView_nwe0042"  d="M 1.527777777778 -2.2206591725189995 L 1.527777777778 -2.230659172519 " stroke="#191919" stroke-width="0.35 px" style="stroke-width:0.35;stroke-miterlimit:4;stroke-dasharray:none;fill:none;fill-opacity:1;fill-rule: evenodd"/>
<path id="Shape2DView_nwe0043"  d="M 1.527777777778 -2.2306591725192226 L 1.527777777778 -2.2369804823034274 L 1.527777777778 -2.243054102692297 L 1.527777777778 -2.2488793581651567 L 1.527777777778 -2.2544556008249907 L 1.527777777778 -2.2597822104705076 L 1.527777777778 -2.264858594665118 L 1.527777777778 -2.269684188802825 L 1.527777777778 -2.2742584561710264 L 1.527777777778 -2.2785808880102025 L 1.527777777778 -2.282651003570505 L 1.527777777778 -2.2864683501652268 L 1.527777777778 -2.2900325032211497 L 1.527777777778 -2.2933430663257672 L 1.527777777778 -2.2963996712713737 " stroke="#191919" stroke-width="0.35 px" style="stroke-width:0.35;stroke-miterlimit:4;stroke-dasharray:none;fill:none;fill-opacity:1;fill-rule: evenodd"/>
<path id="Shape2DView_nwe0044"  d="M 1.305555555556 -2.041959159209 L 1.5277777777780002 -2.230659172519 " stroke="#191919" stroke-width="0.35 px" style="stroke-width:0.35;stroke-miterlimit:4;stroke-dasharray:none;fill:none;fill-opacity:1;fill-rule: evenodd"/>
<path id="Shape2DView_nwe0045"  d="M 1.3055555555561797 -2.0419591592086936 A 2.35702 2.35702 0 0 0 1.19444 -1.97242" stroke="#191919" stroke-width="0.35 px" style="stroke-width:0.35;stroke-miterlimit:4;stroke-dasharray:none;fill:none;fill-opacity:1;fill-rule: evenodd"/>
<path id="Shape2DView_nwe0046"  d="M 0.972222222222 -1.892136624054 Q 1.0537906817662606 -1.8657437337618867 1.1944444444439999 -1.972416940131 " stroke="#191919" stroke-width="0.35 px" style="stroke-width:0.35;stroke-miterlimit:4;stroke-dasharray:none;fill:none;fill-opacity:1;fill-rule: evenodd"/>
<path id="Shape2DView_nwe0047"  d="M 0.972222222222 -1.8821366240540005 L 0.972222222222 -1.8921366240540003 " stroke="#191919" stroke-width="0.35 px" style="stroke-width:0.35;stroke-miterlimit:4;stroke-dasharray:none;fill:none;fill-opacity:1;fill-rule: evenodd"/>
<path id="Shape2DView_nwe0048"  d="M 0.972222222222 -1.9692688860648175 L 0.972222222222 -1.9656843883808375 L 0.972222222222 -1.9618008699323741 L 0.972222222222 -1.9576189245026896 L 0.972222222222 -1.9531391915040157 L 0.972222222222 -1.9483623558797887 L 0.972222222222 -1.9432891479999237 L 0.972222222222 -1.9379203435491414 L 0.972222222222 -1.9322567634083674 L 0.972222222222 -1.9262992735292215 L 0.972222222222 -1.9200487848016143 L 0.972222222222 -1.9135062529144746 L 0.972222222222 -1.906672678209625 L 0.972222222222 -1.8995491055288334 L 0.972222222222 -1.8921366240540554 " stroke="#191919" stroke-width="0.35 px" style="stroke-width:0.35;stroke-miterlimit:4;stroke-dasharray:none;fill:none;fill-opacity:1;fill-rule: evenodd"/>
<path id="Shape2DView_nwe0049"  d="M 0.9722222222220835 -1.9692688860648944 A 2.48452 2.48452 0 0 0 0.638889 -1.65594" stroke="#191919" stroke-width="0.35 px" style="stroke-width:0.35;stroke-miterlimit:4;stroke-dasharray:none;fill:none;fill-opacity:1;fill-rule: evenodd"/>
<path id="Shape2DView_nwe0050"  d="M 0.416666666667 -1.3808098357369998 L 0.416666666667 -1.3908098357370005 " stroke="#191919" stroke-width="0.35 px" style="stroke-width:0.35;stroke-miterlimit:4;stroke-dasharray:none;fill:none;fill-opacity:1;fill-rule: evenodd"/>
<path id="Shape2DView_nwe0051"  d="M 0.638888888889 -1.655935885225 Q 0.46509461350573195 -1.4521410200961775 0.4166666666669999 -1.390809835737 " stroke="#191919" stroke-width="0.35 px" style="stroke-width:0.35;stroke-miterlimit:4;stroke-dasharray:none;fill:none;fill-opacity:1;fill-rule: evenodd"/>
<path id="Shape2DView_nwe0052"  d="M 0.416666666667 -1.3919269959810001 L 0.416666666667 -1.3919212954196305 L 0.416666666667 -1.3919041937825518 L 0.416666666667 -1.3918756912108559 L 0.416666666667 -1.391835787939693 L 0.416666666667 -1.391784484298272 L 0.416666666667 -1.3917217807098563 L 0.416666666667 -1.3916476776917603 L 0.416666666667 -1.3915621758553465 L 0.416666666667 -1.3914652759060187 L 0.416666666667 -1.3913569786432172 L 0.416666666667 -1.3912372849604124 L 0.416666666667 -1.3911061958450963 L 0.416666666667 -1.3909637123787753 L 0.416666666667 -1.3908098357369618 " stroke="#191919" stroke-width="0.35 px" style="stroke-width:0.35;stroke-miterlimit:4;stroke-dasharray:none;fill:none;fill-opacity:1;fill-rule: evenodd"/>
<path id="Shape2DView_nwe0053"  d="M 2.0833333333329813 -2.4750332429581134 A 2.5 2.5 0 0 0 0.416667 -1.39193" stroke="#191919" stroke-width="0.35 px" style="stroke-width:0.35;stroke-miterlimit:4;stroke-dasharray:none;fill:none;fill-opacity:1;fill-rule: evenodd"/>
<path id="Shape2DView_nwe0054"  d="M 5.0 0.25 L 4.999935796755126 0.25 L 4.9997432035087295 0.25 L 4.999422269721256 0.25 L 4.9989730778126695 0.25 L 4.9983957431412795 0.25 L 4.997690413974126 0.25 L 4.996857271448892 0.25 L 4.995896529527392 0.25 L 4.994808434940622 0.25 L 4.993593267125394 0.25 L 4.992251338152577 0.25 L 4.990782992646946 0.25 L 4.989188607698688 0.25 L 4.98746859276655 0.25 " stroke="#191919" stroke-width="0.35 px" style="stroke-width:0.35;stroke-miterlimit:4;stroke-dasharray:none;fill:none;fill-opacity:1;fill-rule: evenodd"/>
<path id="Shape2DView_nwe0055"  d="M 5.0 -0.25 A 0.25 0.25 0 0 1 5 0.25" stroke="#191919" stroke-width="0.35 px" style="stroke-width:0.35;stroke-miterlimit:4;stroke-dasharray:none;fill:none;fill-opacity:1;fill-rule: evenodd"/>
<path id="Shape2DView_nwe0056"  d="M 0.0 -0.25000000000000006 L 6.420324487432794e-05 -0.25000000000000006 L 0.00025679649127063886 -0.25000000000000006 L 0.0005777302787435823 -0.25000000000000006 L 0.0010269221873309142 -0.25000000000000006 L 0.0016042568587202322 -0.25000000000000006 L 0.0023095860258743883 -0.25000000000000006 L 0.0031427285511085312 -0.25000000000000006 L 0.004103470472608284 -0.25000000000000006 L 0.005191565059378345 -0.25000000000000006 L 0.006406732874605914 -0.25000000000000006 L 0.007748661847423732 -0.25000000000000006 L 0.009217007353053974 -0.25000000000000006 L 0.010811392301312506 -0.25000000000000006 L 0.012531407233450254 -0.25000000000000006 " stroke="#191919" stroke-width="0.35 px" style="stroke-width:0.35;stroke-miterlimit:4;stroke-dasharray:none;fill:none;fill-opacity:1;fill-rule: evenodd"/>
<path id="Shape2DView_nwe0057"  d="M 1.6939404805685882e-16 0.25 A 0.25 0.25 0 0 1 1.33057e-16 -0.25" stroke="#191919" stroke-width="0.35 px" style="stroke-width:0.35;stroke-miterlimit:4;stroke-dasharray:none;fill:none;fill-opacity:1;fill-rule: evenodd"/>
<path id="Shape2DView_nwe0058"  d="M 1.861111111111 2.410970739894 L 1.861111111111 2.400970739894 " stroke="#191919" stroke-width="0.35 px" style="stroke-width:0.35;stroke-miterlimit:4;stroke-dasharray:none;fill:none;fill-opacity:1;fill-rule: evenodd"/>
<path id="Shape2DView_nwe0059"  d="M 0.638888888889 1.655935885225 L 0.638888888889 1.645935885225 " stroke="#191919" stroke-width="0.35 px" style="stroke-width:0.35;stroke-miterlimit:4;stroke-dasharray:none;fill:none;fill-opacity:1;fill-rule: evenodd"/>
<path id="Shape2DView_nwe0060"  d="M 1.305555555556 2.041959159209 L 1.305555555556 2.031959159209 " stroke="#191919" stroke-width="0.35 px" style="stroke-width:0.35;stroke-miterlimit:4;stroke-dasharray:none;fill:none;fill-opacity:1;fill-rule: evenodd"/>
<path id="Shape2DView_nwe0061"  d="M 1.194444444444 1.972416940131 L 1.194444444444 1.962416940131 " stroke="#191919" stroke-width="0.35 px" style="stroke-width:0.35;stroke-miterlimit:4;stroke-dasharray:none;fill:none;fill-opacity:1;fill-rule: evenodd"/>
<path id="Shape2DView_nwe0062"  d="M 1.861111111111 -2.4009707398939995 L 1.861111111111 -2.410970739894 " stroke="#191919" stroke-width="0.35 px" style="stroke-width:0.35;stroke-miterlimit:4;stroke-dasharray:none;fill:none;fill-opacity:1;fill-rule: evenodd"/>
<path id="Shape2DView_nwe0063"  d="M 1.305555555556 -2.0319591592090003 L 1.305555555556 -2.041959159209 " stroke="#191919" stroke-width="0.35 px" style="stroke-width:0.35;stroke-miterlimit:4;stroke-dasharray:none;fill:none;fill-opacity:1;fill-rule: evenodd"/>
<path id="Shape2DView_nwe0064"  d="M 1.194444444444 -1.9624169401309999 L 1.194444444444 -1.9724169401309997 " stroke="#191919" stroke-width="0.35 px" style="stroke-width:0.35;stroke-miterlimit:4;stroke-dasharray:none;fill:none;fill-opacity:1;fill-rule: evenodd"/>
<path id="Shape2DView_nwe0065"  d="M 0.638888888889 -1.6459358852249997 L 0.638888888889 -1.6559358852250003 " stroke="#191919" stroke-width="0.35 px" style="stroke-width:0.35;stroke-miterlimit:4;stroke-dasharray:none;fill:none;fill-opacity:1;fill-rule: evenodd"/>
<path id="Shape2DView_nwe0066"  d="M 4.988287304332012 -0.24171531002427318 A 0.25 0.216506 90 0 1 4.98829 0.241715" stroke="#191919" stroke-width="0.35 px" style="stroke-width:0.35;stroke-miterlimit:4;stroke-dasharray:none;fill:none;fill-opacity:1;fill-rule: evenodd"/>
<path id="Shape2DView_nwe0067"  d="M 0.01171269566799503 0.24171531002434232 A 0.25 0.216506 -90 0 1 0.0117127 -0.241715" stroke="#191919" stroke-width="0.35 px" style="stroke-width:0.35;stroke-miterlimit:4;stroke-dasharray:none;fill:none;fill-opacity:1;fill-rule: evenodd"/>
<path id="Shape2DView_nwe0068"  d="M 2.5 -4.9994059868381623e-29 L 2.5 0.27991119025826966 L 2.5 0.5563023348907858 L 2.5 0.8256976548879177 L 2.5 1.0847093477938954 L 2.5 1.3300801912883413 L 2.5 1.5587245046468337 L 2.5 1.7677669529663687 L 2.5 1.9545787061700746 L 2.5 2.1168104980707096 L 2.5 2.2524221697560476 L 2.5 2.3597083257709186 L 2.5 2.4373197804545588 L 2.5 2.484280524733106 L 2.5 2.4999999999999996 " stroke="#191919" stroke-width="0.35 px" style="stroke-width:0.35;stroke-miterlimit:4;stroke-dasharray:none;fill:none;fill-opacity:1;fill-rule: evenodd"/>
<path id="Shape2DView_nwe0069"  d="M 4.987468592766549 -0.25 L 5.0 -0.25 " stroke="#191919" stroke-width="0.35 px" style="stroke-width:0.35;stroke-miterlimit:4;stroke-dasharray:none;fill:none;fill-opacity:1;fill-rule: evenodd"/>
<path id="Shape2DView_nwe0070"  d="M 0.012531407233450248 0.24999999999999994 L 1.691355389077387e-16 0.25 " stroke="#191919" stroke-width="0.35 px" style="stroke-width:0.35;stroke-miterlimit:4;stroke-dasharray:none;fill:none;fill-opacity:1;fill-rule: evenodd"/>
<title>b'Shape2DView'</title>
</g>
<g id="Rectangle" transform="translate(0.303141,2.554964) scale(1,-1)">
<rect fill="#ff0000" id="origin" width="1" height="1" x="0" y="0" />
<title>b'Rectangle'</title>
</g>
</svg>