<?xml version="1.0"?>
<!DOCTYPE svg PUBLIC "-//W3C//DTD SVG 1.1//EN" "http://www.w3.org/Graphics/SVG/1.1/DTD/svg11.dtd">
<svg width="42.77054154023478mm" height="42.8045759926223mm" viewBox="0 0 42.77054154023478 42.8045759926223" xmlns="http://www.w3.org/2000/svg" version="1.1">
<g id="Shape2DView" transform="translate(8.651223,21.402288) scale(1,-1)">
<circle cx="12.7" cy="2.015073453002e-35" r="21.0" stroke="#191919" stroke-width="0.35 px" style="stroke-width:0.35;stroke-miterlimit:4;stroke-dasharray:none;fill:none"/>
<path id="Shape2DView_nwe0001"  d="M -4.8 0.25 L -4.8 -0.25 " stroke="#191919" stroke-width="0.35 px" style="stroke-width:0.35;stroke-miterlimit:4;stroke-dasharray:none;fill:none;fill-opacity:1;fill-rule: evenodd"/>
<path id="Shape2DView_nwe0002"  d="M -4.8 -0.25 L -5.55 -0.25 " stroke="#191919" stroke-width="0.35 px" style="stroke-width:0.35;stroke-miterlimit:4;stroke-dasharray:none;fill:none;fill-opacity:1;fill-rule: evenodd"/>
<path id="Shape2DView_nwe0003"  d="M -5.55 -0.25 L -5.55 -1.0 " stroke="#191919" stroke-width="0.35 px" style="stroke-width:0.35;stroke-miterlimit:4;stroke-dasharray:none;fill:none;fill-opacity:1;fill-rule: evenodd"/>
<path id="Shape2DView_nwe0004"  d="M -5.55 -1.0 L -6.05 -1.0 " stroke="#191919" stroke-width="0.35 px" style="stroke-width:0.35;stroke-miterlimit:4;stroke-dasharray:none;fill:none;fill-opacity:1;fill-rule: evenodd"/>
<path id="Shape2DView_nwe0005"  d="M -6.05 -1.0 L -6.05 -0.25 " stroke="#191919" stroke-width="0.35 px" style="stroke-width:0.35;stroke-miterlimit:4;stroke-dasharray:none;fill:none;fill-opacity:1;fill-rule: evenodd"/>
<path id="Shape2DView_nwe0006"  d="M -6.05 -0.25 L -6.8 -0.25 " stroke="#191919" stroke-width="0.35 px" style="stroke-width:0.35;stroke-miterlimit:4;stroke-dasharray:none;fill:none;fill-opacity:1;fill-rule: evenodd"/>
<path id="Shape2DView_nwe0007"  d="M -6.8 -0.25 L -6.8 0.25 " stroke="#191919" stroke-width="0.35 px" style="stroke-width:0.35;stroke-miterlimit:4;stroke-dasharray:none;fill:none;fill-opacity:1;fill-rule: evenodd"/>
<path id="Shape2DView_nwe0008"  d="M -6.8 0.25 L -6.05 0.25 " stroke="#191919" stroke-width="0.35 px" style="stroke-width:0.35;stroke-miterlimit:4;stroke-dasharray:none;fill:none;fill-opacity:1;fill-rule: evenodd"/>
<path id="Shape2DView_nwe0009"  d="M -6.05 0.25 L -6.05 1.0 " stroke="#191919" stroke-width="0.35 px" style="stroke-width:0.35;stroke-miterlimit:4;stroke-dasharray:none;fill:none;fill-opacity:1;fill-rule: evenodd"/>
<path id="Shape2DView_nwe0010"  d="M -6.05 1.0 L -5.55 1.0 " stroke="#191919" stroke-width="0.35 px" style="stroke-width:0.35;stroke-miterlimit:4;stroke-dasharray:none;fill:none;fill-opacity:1;fill-rule: evenodd"/>
<path id="Shape2DView_nwe0011"  d="M -5.55 1.0 L -5.55 0.25 " stroke="#191919" stroke-width="0.35 px" style="stroke-width:0.35;stroke-miterlimit:4;stroke-dasharray:none;fill:none;fill-opacity:1;fill-rule: evenodd"/>
<path id="Shape2DView_nwe0012"  d="M -5.55 0.25 L -4.8 0.25 " stroke="#191919" stroke-width="0.35 px" style="stroke-width:0.35;stroke-miterlimit:4;stroke-dasharray:none;fill:none;fill-opacity:1;fill-rule: evenodd"/>
<circle cx="12.7" cy="2.015073453002e-35" r="16.0" stroke="#191919" stroke-width="0.35 px" style="stroke-width:0.35;stroke-miterlimit:4;stroke-dasharray:none;fill:none"/>
<circle cx="12.7" cy="-1.251917481505e-35" r="14.0" stroke="#191919" stroke-width="0.35 px" style="stroke-width:0.35;stroke-miterlimit:4;stroke-dasharray:none;fill:none"/>
<circle cx="12.7" cy="-1.251917481505e-35" r="13.0" stroke="#191919" stroke-width="0.35 px" style="stroke-width:0.35;stroke-miterlimit:4;stroke-dasharray:none;fill:none"/>
<circle cx="12.7" cy="-1.03002354049e-35" r="11.0" stroke="#191919" stroke-width="0.35 px" style="stroke-width:0.35;stroke-miterlimit:4;stroke-dasharray:none;fill:none"/>
<circle cx="12.7" cy="-1.03002354049e-35" r="10.0" stroke="#191919" stroke-width="0.35 px" style="stroke-width:0.35;stroke-miterlimit:4;stroke-dasharray:none;fill:none"/>
<circle cx="12.7" cy="9.793118081663e-34" r="8.0" stroke="#191919" stroke-width="0.35 px" style="stroke-width:0.35;stroke-miterlimit:4;stroke-dasharray:none;fill:none"/>
<circle cx="12.7" cy="0.0" r="3.5" stroke="#191919" stroke-width="0.35 px" style="stroke-width:0.35;stroke-miterlimit:4;stroke-dasharray:none;fill:none"/>
<circle cx="12.7" cy="2.015073453002e-35" r="21.0" stroke="#191919" stroke-width="0.35 px" style="stroke-width:0.35;stroke-miterlimit:4;stroke-dasharray:none;fill:none"/>
<circle cx="12.7" cy="0.0" r="20.02" stroke="#191919" stroke-width="0.35 px" style="stroke-width:0.35;stroke-miterlimit:4;stroke-dasharray:none;fill:none"/>
<circle cx="12.7" cy="0.0" r="16.98" stroke="#191919" stroke-width="0.35 px" style="stroke-width:0.35;stroke-miterlimit:4;stroke-dasharray:none;fill:none"/>
<circle cx="12.7" cy="-1.251917481505e-35" r="14.0" stroke="#191919" stroke-width="0.35 px" style="stroke-width:0.35;stroke-miterlimit:4;stroke-dasharray:none;fill:none"/>
<circle cx="12.7" cy="0.0" r="13.52" stroke="#191919" stroke-width="0.35 px" style="stroke-width:0.35;stroke-miterlimit:4;stroke-dasharray:none;fill:none"/>
<circle cx="12.7" cy="0.0" r="13.48" stroke="#191919" stroke-width="0.35 px" style="stroke-width:0.35;stroke-miterlimit:4;stroke-dasharray:none;fill:none"/>
<circle cx="12.7" cy="-1.03002354049e-35" r="11.0" stroke="#191919" stroke-width="0.35 px" style="stroke-width:0.35;stroke-miterlimit:4;stroke-dasharray:none;fill:none"/>
<circle cx="12.7" cy="0.0" r="10.52" stroke="#191919" stroke-width="0.35 px" style="stroke-width:0.35;stroke-miterlimit:4;stroke-dasharray:none;fill:none"/>
<circle cx="12.7" cy="0.0" r="10.48" stroke="#191919" stroke-width="0.35 px" style="stroke-width:0.35;stroke-miterlimit:4;stroke-dasharray:none;fill:none"/>
<circle cx="12.7" cy="9.793118081663e-34" r="8.0" stroke="#191919" stroke-width="0.35 px" style="stroke-width:0.35;stroke-miterlimit:4;stroke-dasharray:none;fill:none"/>
<circle cx="12.7" cy="0.0" r="7.52" stroke="#191919" stroke-width="0.35 px" style="stroke-width:0.35;stroke-miterlimit:4;stroke-dasharray:none;fill:none"/>
<path id="Shape2DView_nwe0031"  d="M 33.699999999999996 -2.405488239082976e-50 L 33.69383796569538 -2.2502536005863746e-36 L 33.675429353938185 -4.4603832881904366e-36 L 33.6450056637022 -6.602595399643475e-36 L 33.60294949054437 -8.649950374703551e-36 L 33.54978971524372 -1.0576701536656256e-35 L 33.48619485281867 -1.235861887171297e-35 L 33.412964645562816 -1.3973293735492831e-35 L 33.33102000582156 -1.5400420654727645e-35 L 33.241391434985026 -1.6622052680369692e-35 L 33.145206064335206 -1.762282708088912e-35 L 33.043673480716066 -1.8390158537536558e-35 L 32.93807051527719 -1.891439741202859e-35 L 32.82972518658124 -1.9188951096347992e-35 L 32.72 -1.9210366918614698e-35 " stroke="#191919" stroke-width="0.35 px" style="stroke-width:0.35;stroke-miterlimit:4;stroke-dasharray:none;fill:none;fill-opacity:1;fill-rule: evenodd"/>
<path id="Shape2DView_nwe0032"  d="M 29.68 -4.158900529904e-15 L 29.57027481341876 -4.1320256101974844e-15 L 29.461929484722813 -4.105488658199469e-15 L 29.356326519283936 -4.079623391478429e-15 L 29.254793935664793 -4.054755080770756e-15 L 29.15860856501497 -4.0311964595125324e-15 L 29.06897999417844 -4.009243791035108e-15 L 28.987035354437182 -3.989173142881823e-15 L 28.913805147181332 -3.9712369150984656e-15 L 28.85021028475628 -3.955660666156253e-15 L 28.79705050945563 -3.9426402764231844e-15 L 28.7549943362978 -3.9323394848547585e-15 L 28.724570646061814 -3.924887829881607e-15 L 28.706162034304622 -3.920379020388569e-15 L 28.7 -3.91886975727109e-15 " stroke="#191919" stroke-width="0.35 px" style="stroke-width:0.35;stroke-miterlimit:4;stroke-dasharray:none;fill:none;fill-opacity:1;fill-rule: evenodd"/>
<path id="Shape2DView_nwe0033"  d="M 26.7 -1.251917481505e-35 L 26.696981860748757 -1.1117471965637246e-35 L 26.687965397847275 -9.733396342842794e-36 L 26.673063998548017 -8.384353500682666e-36 L 26.65246505659316 -7.087308435629916e-36 L 26.626427615629574 -5.858572241940657e-36 L 26.595279111584652 -4.7135969901798784e-36 L 26.559411254969543 -3.6667814084685865e-36 L 26.51927510489219 -2.7312898101233496e-36 L 26.47537539672736 -1.9188865447782253e-36 L 26.42826419477643 -1.239788054862284e-36 L 26.37853394973848 -7.025343979083409e-37 L 26.32681004829903 -3.138818503744251e-37 L 26.273742948529588 -7.871794354723495e-38 L 26.22 -4.0091470651382935e-49 " stroke="#191919" stroke-width="0.35 px" style="stroke-width:0.35;stroke-miterlimit:4;stroke-dasharray:none;fill:none;fill-opacity:1;fill-rule: evenodd"/>
<path id="Shape2DView_nwe0034"  d="M 26.18 -3.301647770501e-15 L 26.12625705147041 -3.2884845445222983e-15 L 26.073189951700968 -3.2754868537477603e-15 L 26.02146605026152 -3.262818151680312e-15 L 25.97173580522357 -3.2506377545990034e-15 L 25.924624603272637 -3.239098838064363e-15 L 25.880724895107807 -3.228346510646849e-15 L 25.840588745030455 -3.218515989102383e-15 L 25.804720888415346 -3.2097308979431872e-15 L 25.773572384370425 -3.202101714787818e-15 L 25.747534943406837 -3.1957243810410086e-15 L 25.726936001451982 -3.190679095374841e-15 L 25.712034602152723 -3.1870293051839097e-15 L 25.703018139251242 -3.1848209086975234e-15 L 25.7 -3.18408167778284e-15 " stroke="#191919" stroke-width="0.35 px" style="stroke-width:0.35;stroke-miterlimit:4;stroke-dasharray:none;fill:none;fill-opacity:1;fill-rule: evenodd"/>
<path id="Shape2DView_nwe0035"  d="M 23.7 -1.03002354049e-35 L 23.696981860748757 -9.14697494404954e-36 L 23.687965397847275 -8.008217402631579e-36 L 23.673063998548017 -6.898283317451964e-36 L 23.65246505659316 -5.831130753630587e-36 L 23.626427615629574 -4.82017977383384e-36 L 23.595279111584652 -3.878143673200089e-36 L 23.559411254969543 -3.0168691022768804e-36 L 23.51927510489219 -2.2471870885167212e-36 L 23.47537539672736 -1.5787768298225493e-36 L 23.42826419477643 -1.0200439730181095e-36 L 23.37853394973848 -5.7801490796207526e-37 L 23.32681004829903 -2.5824840661876236e-37 L 23.273742948529588 -6.476571827540742e-38 L 23.22 8.004930306726126e-49 " stroke="#191919" stroke-width="0.35 px" style="stroke-width:0.35;stroke-miterlimit:4;stroke-dasharray:none;fill:none;fill-opacity:1;fill-rule: evenodd"/>
<path id="Shape2DView_nwe0036"  d="M 23.18 -2.566859691013e-15 L 23.12625705147041 -2.5536964650342984e-15 L 23.073189951700968 -2.5406987742597604e-15 L 23.02146605026152 -2.528030072192312e-15 L 22.97173580522357 -2.5158496751110035e-15 L 22.924624603272637 -2.504310758576363e-15 L 22.880724895107807 -2.493558431158849e-15 L 22.840588745030455 -2.483727909614383e-15 L 22.804720888415346 -2.4749428184551873e-15 L 22.773572384370425 -2.467313635299818e-15 L 22.747534943406837 -2.4609363015530088e-15 L 22.726936001451982 -2.455891015886841e-15 L 22.712034602152723 -2.4522412256959098e-15 L 22.703018139251242 -2.4500328292095235e-15 L 22.7 -2.4492935982948402e-15 " stroke="#191919" stroke-width="0.35 px" style="stroke-width:0.35;stroke-miterlimit:4;stroke-dasharray:none;fill:none;fill-opacity:1;fill-rule: evenodd"/>
<path id="Shape2DView_nwe0037"  d="M 20.7 -3.9984560062979247e-48 L 20.696981860748757 -1.0927867111720892e-34 L 20.687965397847275 -2.164441746882948e-34 L 20.673063998548017 -3.2014884232698177e-34 L 20.65246505659316 -4.190885276668636e-34 L 20.626427615629574 -5.120190067586486e-34 L 20.595279111584652 -5.977716249082377e-34 L 20.559411254969543 -6.752679931875719e-34 L 20.51927510489219 -7.435335498010984e-34 L 20.47537539672736 -8.017098157658034e-34 L 20.42826419477643 -8.490651907825253e-34 L 20.37853394973848 -8.850041535342e-34 L 20.32681004829903 -9.090747507119529e-34 L 20.273742948529588 -9.209742805901886e-34 L 20.22 -9.2055309967642e-34 " stroke="#191919" stroke-width="0.35 px" style="stroke-width:0.35;stroke-miterlimit:4;stroke-dasharray:none;fill:none;fill-opacity:1;fill-rule: evenodd"/>
<title>b'Shape2DView'</title>
</g>
<g id="Rectangle" transform="translate(8.651223,21.402288) scale(1,-1)">
<rect fill="#ff0000" id="origin" width="1" height="1" x="0" y="0" />
<title>b'Rectangle'</title>
</g>
</svg>