<?xml version="1.0"?>
<!DOCTYPE svg PUBLIC "-//W3C//DTD SVG 1.1//EN" "http://www.w3.org/Graphics/SVG/1.1/DTD/svg11.dtd">
<svg width="8.70924718370772mm" height="8.70924718370772mm" viewBox="0 0 8.70924718370772 8.70924718370772" xmlns="http://www.w3.org/2000/svg" version="1.1">
<g id="Shape2DView" transform="translate(4.354624,4.354624) scale(1,-1)">
<path id="Shape2DView_nwe0000"  d="M 4.15 3.1 L 3.0999999999999996 4.15 " stroke="#191919" stroke-width="0.35 px" style="stroke-width:0.35;stroke-miterlimit:4;stroke-dasharray:none;fill:none;fill-opacity:1;fill-rule: evenodd"/>
<path id="Shape2DView_nwe0001"  d="M -3.1 4.15 L -4.15 3.0999999999999996 " stroke="#191919" stroke-width="0.35 px" style="stroke-width:0.35;stroke-miterlimit:4;stroke-dasharray:none;fill:none;fill-opacity:1;fill-rule: evenodd"/>
<path id="Shape2DView_nwe0002"  d="M -4.15 -3.1 L -3.0999999999999996 -4.15 " stroke="#191919" stroke-width="0.35 px" style="stroke-width:0.35;stroke-miterlimit:4;stroke-dasharray:none;fill:none;fill-opacity:1;fill-rule: evenodd"/>
<path id="Shape2DView_nwe0003"  d="M 3.1 -4.15 L 4.15 -3.0999999999999996 " stroke="#191919" stroke-width="0.35 px" style="stroke-width:0.35;stroke-miterlimit:4;stroke-dasharray:none;fill:none;fill-opacity:1;fill-rule: evenodd"/>
<circle cx="-2.25" cy="2.25" r="0.4" stroke="#191919" stroke-width="0.35 px" style="stroke-width:0.35;stroke-miterlimit:4;stroke-dasharray:none;fill:none"/>
<path id="Shape2DView_nwe0005"  d="M 4.15 3.1 L 4.1611964476103065 3.088803552389694 L 4.172252093395583 3.0777479066044173 L 4.183027906195445 3.0669720938045555 L 4.193388373911661 3.056611626088339 L 4.203203207651417 3.046796792348583 L 4.2123489801857374 3.037651019814263 L 4.2207106781185 3.0292893218815 L 4.228183148246632 3.021816851753368 L 4.234672419922643 3.015327580077357 L 4.240096886790045 3.009903113209955 L 4.2443883330306305 3.00561166696937 L 4.24749279121797 3.0025072087820313 L 4.249371220989107 3.0006287790108934 L 4.2499999999997815 3.000000000000219 " stroke="#191919" stroke-width="0.35 px" style="stroke-width:0.35;stroke-miterlimit:4;stroke-dasharray:none;fill:none;fill-opacity:1;fill-rule: evenodd"/>
<path id="Shape2DView_nwe0006"  d="M 3.1 4.15 L 3.088803552389694 4.1611964476103065 L 3.0777479066044173 4.172252093395583 L 3.0669720938045555 4.183027906195445 L 3.056611626088339 4.193388373911661 L 3.046796792348583 4.203203207651417 L 3.037651019814263 4.2123489801857374 L 3.0292893218815 4.2207106781185 L 3.021816851753368 4.228183148246632 L 3.015327580077357 4.234672419922643 L 3.009903113209955 4.240096886790045 L 3.00561166696937 4.2443883330306305 L 3.0025072087820313 4.24749279121797 L 3.0006287790108934 4.249371220989107 L 3.000000000000219 4.2499999999997815 " stroke="#191919" stroke-width="0.35 px" style="stroke-width:0.35;stroke-miterlimit:4;stroke-dasharray:none;fill:none;fill-opacity:1;fill-rule: evenodd"/>
<path id="Shape2DView_nwe0007"  d="M 4.15 -3.1 L 4.1611964476103065 -3.088803552389694 L 4.172252093395583 -3.0777479066044173 L 4.183027906195445 -3.0669720938045555 L 4.193388373911661 -3.056611626088339 L 4.203203207651417 -3.046796792348583 L 4.2123489801857374 -3.037651019814263 L 4.2207106781185 -3.0292893218815 L 4.228183148246632 -3.021816851753368 L 4.234672419922643 -3.015327580077357 L 4.240096886790045 -3.009903113209955 L 4.2443883330306305 -3.00561166696937 L 4.24749279121797 -3.0025072087820313 L 4.249371220989107 -3.0006287790108934 L 4.2499999999997815 -3.000000000000219 " stroke="#191919" stroke-width="0.35 px" style="stroke-width:0.35;stroke-miterlimit:4;stroke-dasharray:none;fill:none;fill-opacity:1;fill-rule: evenodd"/>
<path id="Shape2DView_nwe0008"  d="M 4.25 -3.0 L 4.25 3.0 " stroke="#191919" stroke-width="0.35 px" style="stroke-width:0.35;stroke-miterlimit:4;stroke-dasharray:none;fill:none;fill-opacity:1;fill-rule: evenodd"/>
<path id="Shape2DView_nwe0009"  d="M 3.0 4.25 L -3.0 4.25 " stroke="#191919" stroke-width="0.35 px" style="stroke-width:0.35;stroke-miterlimit:4;stroke-dasharray:none;fill:none;fill-opacity:1;fill-rule: evenodd"/>
<path id="Shape2DView_nwe0010"  d="M -3.1 4.15 L -3.088803552389694 4.1611964476103065 L -3.0777479066044173 4.172252093395583 L -3.0669720938045555 4.183027906195445 L -3.056611626088339 4.193388373911661 L -3.046796792348583 4.203203207651417 L -3.037651019814263 4.2123489801857374 L -3.0292893218815 4.2207106781185 L -3.021816851753368 4.228183148246632 L -3.015327580077357 4.234672419922643 L -3.009903113209955 4.240096886790045 L -3.00561166696937 4.2443883330306305 L -3.0025072087820313 4.24749279121797 L -3.0006287790108934 4.249371220989107 L -3.000000000000219 4.2499999999997815 " stroke="#191919" stroke-width="0.35 px" style="stroke-width:0.35;stroke-miterlimit:4;stroke-dasharray:none;fill:none;fill-opacity:1;fill-rule: evenodd"/>
<path id="Shape2DView_nwe0011"  d="M 3.000000000000219 -4.2499999999997815 L 3.0006287790108934 -4.249371220989107 L 3.0025072087820313 -4.24749279121797 L 3.00561166696937 -4.2443883330306305 L 3.009903113209955 -4.240096886790045 L 3.015327580077357 -4.234672419922643 L 3.021816851753368 -4.228183148246632 L 3.0292893218815 -4.2207106781185 L 3.037651019814263 -4.2123489801857374 L 3.046796792348583 -4.203203207651417 L 3.056611626088339 -4.193388373911661 L 3.0669720938045555 -4.183027906195445 L 3.0777479066044173 -4.172252093395583 L 3.088803552389694 -4.1611964476103065 L 3.1 -4.15 " stroke="#191919" stroke-width="0.35 px" style="stroke-width:0.35;stroke-miterlimit:4;stroke-dasharray:none;fill:none;fill-opacity:1;fill-rule: evenodd"/>
<path id="Shape2DView_nwe0012"  d="M -4.15 3.1 L -4.1611964476103065 3.088803552389694 L -4.172252093395583 3.0777479066044173 L -4.183027906195445 3.0669720938045555 L -4.193388373911661 3.056611626088339 L -4.203203207651417 3.046796792348583 L -4.2123489801857374 3.037651019814263 L -4.2207106781185 3.0292893218815 L -4.228183148246632 3.021816851753368 L -4.234672419922643 3.015327580077357 L -4.240096886790045 3.009903113209955 L -4.2443883330306305 3.00561166696937 L -4.24749279121797 3.0025072087820313 L -4.249371220989107 3.0006287790108934 L -4.2499999999997815 3.000000000000219 " stroke="#191919" stroke-width="0.35 px" style="stroke-width:0.35;stroke-miterlimit:4;stroke-dasharray:none;fill:none;fill-opacity:1;fill-rule: evenodd"/>
<path id="Shape2DView_nwe0013"  d="M -3.0 -4.25 L 3.0 -4.25 " stroke="#191919" stroke-width="0.35 px" style="stroke-width:0.35;stroke-miterlimit:4;stroke-dasharray:none;fill:none;fill-opacity:1;fill-rule: evenodd"/>
<path id="Shape2DView_nwe0014"  d="M -3.000000000000219 -4.2499999999997815 L -3.0006287790108934 -4.249371220989107 L -3.0025072087820313 -4.24749279121797 L -3.00561166696937 -4.2443883330306305 L -3.009903113209955 -4.240096886790045 L -3.015327580077357 -4.234672419922643 L -3.021816851753368 -4.228183148246632 L -3.0292893218815 -4.2207106781185 L -3.037651019814263 -4.2123489801857374 L -3.046796792348583 -4.203203207651417 L -3.056611626088339 -4.193388373911661 L -3.0669720938045555 -4.183027906195445 L -3.0777479066044173 -4.172252093395583 L -3.088803552389694 -4.1611964476103065 L -3.1 -4.15 " stroke="#191919" stroke-width="0.35 px" style="stroke-width:0.35;stroke-miterlimit:4;stroke-dasharray:none;fill:none;fill-opacity:1;fill-rule: evenodd"/>
<path id="Shape2DView_nwe0015"  d="M -4.25 3.0 L -4.25 -3.0 " stroke="#191919" stroke-width="0.35 px" style="stroke-width:0.35;stroke-miterlimit:4;stroke-dasharray:none;fill:none;fill-opacity:1;fill-rule: evenodd"/>
<path id="Shape2DView_nwe0016"  d="M -4.15 -3.1 L -4.1611964476103065 -3.088803552389694 L -4.172252093395583 -3.0777479066044173 L -4.183027906195445 -3.0669720938045555 L -4.193388373911661 -3.056611626088339 L -4.203203207651417 -3.046796792348583 L -4.2123489801857374 -3.037651019814263 L -4.2207106781185 -3.0292893218815 L -4.228183148246632 -3.021816851753368 L -4.234672419922643 -3.015327580077357 L -4.240096886790045 -3.009903113209955 L -4.2443883330306305 -3.00561166696937 L -4.24749279121797 -3.0025072087820313 L -4.249371220989107 -3.0006287790108934 L -4.2499999999997815 -3.000000000000219 " stroke="#191919" stroke-width="0.35 px" style="stroke-width:0.35;stroke-miterlimit:4;stroke-dasharray:none;fill:none;fill-opacity:1;fill-rule: evenodd"/>
<path id="Shape2DView_nwe0017"  d="M 4.190685424949 3.059314575051 L 4.240452018978 3.10908116908 " stroke="#191919" stroke-width="0.35 px" style="stroke-width:0.35;stroke-miterlimit:4;stroke-dasharray:none;fill:none;fill-opacity:1;fill-rule: evenodd"/>
<path id="Shape2DView_nwe0018"  d="M 3.10908116908 4.240452018978 L 3.059314575051 4.190685424949 " stroke="#191919" stroke-width="0.35 px" style="stroke-width:0.35;stroke-miterlimit:4;stroke-dasharray:none;fill:none;fill-opacity:1;fill-rule: evenodd"/>
<path id="Shape2DView_nwe0019"  d="M 4.240452018978 3.10908116908 L 3.1090811690799995 4.240452018978 " stroke="#191919" stroke-width="0.35 px" style="stroke-width:0.35;stroke-miterlimit:4;stroke-dasharray:none;fill:none;fill-opacity:1;fill-rule: evenodd"/>
<path id="Shape2DView_nwe0020"  d="M 3.137867965644 -4.269238815543 L 3.0593145750504998 -4.1906854249495 " stroke="#191919" stroke-width="0.35 px" style="stroke-width:0.35;stroke-miterlimit:4;stroke-dasharray:none;fill:none;fill-opacity:1;fill-rule: evenodd"/>
<path id="Shape2DView_nwe0021"  d="M 4.1906854249495 -3.0593145750504998 L 4.269238815543 -3.137867965644 " stroke="#191919" stroke-width="0.35 px" style="stroke-width:0.35;stroke-miterlimit:4;stroke-dasharray:none;fill:none;fill-opacity:1;fill-rule: evenodd"/>
<path id="Shape2DView_nwe0022"  d="M 4.269238815543 -3.137867965644 L 4.2055992052361635 -4.20559920523601 " stroke="#191919" stroke-width="0.35 px" style="stroke-width:0.35;stroke-miterlimit:4;stroke-dasharray:none;fill:none;fill-opacity:1;fill-rule: evenodd"/>
<path id="Shape2DView_nwe0023"  d="M 4.205599205236 -4.205599205236 L 3.1378679656439896 -4.2692388155428365 " stroke="#191919" stroke-width="0.35 px" style="stroke-width:0.35;stroke-miterlimit:4;stroke-dasharray:none;fill:none;fill-opacity:1;fill-rule: evenodd"/>
<path id="Shape2DView_nwe0024"  d="M -3.137867965644 4.269238815543 L -3.0593145750504998 4.1906854249495 " stroke="#191919" stroke-width="0.35 px" style="stroke-width:0.35;stroke-miterlimit:4;stroke-dasharray:none;fill:none;fill-opacity:1;fill-rule: evenodd"/>
<path id="Shape2DView_nwe0025"  d="M -4.1906854249495 3.0593145750504998 L -4.269238815543 3.137867965644 " stroke="#191919" stroke-width="0.35 px" style="stroke-width:0.35;stroke-miterlimit:4;stroke-dasharray:none;fill:none;fill-opacity:1;fill-rule: evenodd"/>
<path id="Shape2DView_nwe0026"  d="M -4.269238815543 3.137867965644 L -4.2055992052361635 4.20559920523601 " stroke="#191919" stroke-width="0.35 px" style="stroke-width:0.35;stroke-miterlimit:4;stroke-dasharray:none;fill:none;fill-opacity:1;fill-rule: evenodd"/>
<path id="Shape2DView_nwe0027"  d="M -4.205599205236 4.205599205236 L -3.1378679656439896 4.2692388155428365 " stroke="#191919" stroke-width="0.35 px" style="stroke-width:0.35;stroke-miterlimit:4;stroke-dasharray:none;fill:none;fill-opacity:1;fill-rule: evenodd"/>
<path id="Shape2DView_nwe0028"  d="M -4.269238815543 -3.137867965644 L -4.1906854249495 -3.0593145750504998 " stroke="#191919" stroke-width="0.35 px" style="stroke-width:0.35;stroke-miterlimit:4;stroke-dasharray:none;fill:none;fill-opacity:1;fill-rule: evenodd"/>
<path id="Shape2DView_nwe0029"  d="M -3.0593145750504998 -4.1906854249495 L -3.137867965644 -4.269238815543 " stroke="#191919" stroke-width="0.35 px" style="stroke-width:0.35;stroke-miterlimit:4;stroke-dasharray:none;fill:none;fill-opacity:1;fill-rule: evenodd"/>
<path id="Shape2DView_nwe0030"  d="M -3.137867965644 -4.269238815543 L -4.20559920523601 -4.2055992052361635 " stroke="#191919" stroke-width="0.35 px" style="stroke-width:0.35;stroke-miterlimit:4;stroke-dasharray:none;fill:none;fill-opacity:1;fill-rule: evenodd"/>
<path id="Shape2DView_nwe0031"  d="M -4.205599205236 -4.205599205236 L -4.2692388155428365 -3.1378679656439896 " stroke="#191919" stroke-width="0.35 px" style="stroke-width:0.35;stroke-miterlimit:4;stroke-dasharray:none;fill:none;fill-opacity:1;fill-rule: evenodd"/>
<path id="Shape2DView_nwe0032"  d="M 3.1 4.15 L -3.0999999999999996 4.15 " stroke="#191919" stroke-width="0.35 px" style="stroke-width:0.35;stroke-miterlimit:4;stroke-dasharray:none;fill:none;fill-opacity:1;fill-rule: evenodd"/>
<path id="Shape2DView_nwe0033"  d="M -4.15 3.1 L -4.15 -3.0999999999999996 " stroke="#191919" stroke-width="0.35 px" style="stroke-width:0.35;stroke-miterlimit:4;stroke-dasharray:none;fill:none;fill-opacity:1;fill-rule: evenodd"/>
<path id="Shape2DView_nwe0034"  d="M -3.1 -4.15 L 3.0999999999999996 -4.15 " stroke="#191919" stroke-width="0.35 px" style="stroke-width:0.35;stroke-miterlimit:4;stroke-dasharray:none;fill:none;fill-opacity:1;fill-rule: evenodd"/>
<path id="Shape2DView_nwe0035"  d="M 4.15 -3.1 L 4.15 3.0999999999999996 " stroke="#191919" stroke-width="0.35 px" style="stroke-width:0.35;stroke-miterlimit:4;stroke-dasharray:none;fill:none;fill-opacity:1;fill-rule: evenodd"/>
<title>b'Shape2DView'</title>
</g>
<g id="Rectangle" transform="translate(4.354624,4.354624) scale(1,-1)">
<rect fill="#ff0000" id="origin" width="1" height="1" x="0" y="0" />
<title>b'Rectangle'</title>
</g>
</svg>