<?xml version="1.0"?>
<!DOCTYPE svg PUBLIC "-//W3C//DTD SVG 1.1//EN" "http://www.w3.org/Graphics/SVG/1.1/DTD/svg11.dtd">
<svg width="12.220154725781367mm" height="12.229878855034942mm" viewBox="0 0 12.220154725781367 12.229878855034942" xmlns="http://www.w3.org/2000/svg" version="1.1">
<g id="Shape2DView" transform="translate(2.300349,6.114939) scale(1,-1)">
<circle cx="3.8" cy="-1.804356723968e-35" r="6.0" stroke="#191919" stroke-width="0.35 px" style="stroke-width:0.35;stroke-miterlimit:4;stroke-dasharray:none;fill:none"/>
<circle cx="3.8" cy="0.0" r="1.3" stroke="#191919" stroke-width="0.35 px" style="stroke-width:0.35;stroke-miterlimit:4;stroke-dasharray:none;fill:none"/>
<circle cx="3.8" cy="-1.804356723968e-35" r="6.0" stroke="#191919" stroke-width="0.35 px" style="stroke-width:0.35;stroke-miterlimit:4;stroke-dasharray:none;fill:none"/>
<circle cx="3.8" cy="0.0" r="5.7" stroke="#191919" stroke-width="0.35 px" style="stroke-width:0.35;stroke-miterlimit:4;stroke-dasharray:none;fill:none"/>
<path id="Shape2DView_nwe0004"  d="M 9.8 -1.8043567239680001e-35 L 9.798113662967973 -1.6023328686654647e-35 L 9.792478373654546 -1.4028495805603294e-35 L 9.78316499909251 -1.2084154777434166e-35 L 9.770290660370726 -1.0214756818709433e-35 L 9.754017259768485 -8.443810693410015e-36 L 9.73454944474041 -6.79358707658843e-36 L 9.712132034355964 -5.2848384877082555e-36 L 9.68704694055762 -3.936538315670975e-36 L 9.659609622954601 -2.7656422174419446e-36 L 9.630165121735267 -1.7868748908261325e-36 L 9.59908371858655 -1.0125449028497708e-36 L 9.566756280186894 -4.523899023883755e-37 L 9.533589342830993 -1.1345416358225958e-37 L 9.5 -1.9992280031489623e-48 " stroke="#191919" stroke-width="0.35 px" style="stroke-width:0.35;stroke-miterlimit:4;stroke-dasharray:none;fill:none;fill-opacity:1;fill-rule: evenodd"/>
<title>b'Shape2DView'</title>
</g>
<g id="Rectangle" transform="translate(2.300349,6.114939) scale(1,-1)">
<rect fill="#ff0000" id="origin" width="1" height="1" x="0" y="0" />
<title>b'Rectangle'</title>
</g>
</svg>