<?xml version="1.0"?>
<!DOCTYPE svg PUBLIC "-//W3C//DTD SVG 1.1//EN" "http://www.w3.org/Graphics/SVG/1.1/DTD/svg11.dtd">
<svg width="7.4715mm" height="14.946500000000158mm" viewBox="0 0 7.4715 14.946500000000158" xmlns="http://www.w3.org/2000/svg" version="1.1">
<g id="Shape2DView" transform="translate(3.735750,7.473250) scale(1,-1)">
<path id="Shape2DView_nwe0000"  d="M -3.6625 -1.02 L -3.6625 -1.52 " stroke="#191919" stroke-width="0.35 px" style="stroke-width:0.35;stroke-miterlimit:4;stroke-dasharray:none;fill:none;fill-opacity:1;fill-rule: evenodd"/>
<path id="Shape2DView_nwe0001"  d="M -3.6625 -1.02 L -3.65 -1.02 " stroke="#191919" stroke-width="0.35 px" style="stroke-width:0.35;stroke-miterlimit:4;stroke-dasharray:none;fill:none;fill-opacity:1;fill-rule: evenodd"/>
<path id="Shape2DView_nwe0002"  d="M -3.6625 -1.52 L -3.65 -1.52 " stroke="#191919" stroke-width="0.35 px" style="stroke-width:0.35;stroke-miterlimit:4;stroke-dasharray:none;fill:none;fill-opacity:1;fill-rule: evenodd"/>
<path id="Shape2DView_nwe0003"  d="M -3.65 -7.4 L -3.65 7.4 " stroke="#191919" stroke-width="0.35 px" style="stroke-width:0.35;stroke-miterlimit:4;stroke-dasharray:none;fill:none;fill-opacity:1;fill-rule: evenodd"/>
<path id="Shape2DView_nwe0004"  d="M 3.65 -7.4 L -3.65 -7.4 " stroke="#191919" stroke-width="0.35 px" style="stroke-width:0.35;stroke-miterlimit:4;stroke-dasharray:none;fill:none;fill-opacity:1;fill-rule: evenodd"/>
<path id="Shape2DView_nwe0005"  d="M -3.6625 -6.6 L -3.65 -6.6 " stroke="#191919" stroke-width="0.35 px" style="stroke-width:0.35;stroke-miterlimit:4;stroke-dasharray:none;fill:none;fill-opacity:1;fill-rule: evenodd"/>
<path id="Shape2DView_nwe0006"  d="M -3.6625 -6.1 L -3.65 -6.1 " stroke="#191919" stroke-width="0.35 px" style="stroke-width:0.35;stroke-miterlimit:4;stroke-dasharray:none;fill:none;fill-opacity:1;fill-rule: evenodd"/>
<path id="Shape2DView_nwe0007"  d="M -3.6625 -6.1 L -3.6625 -6.6 " stroke="#191919" stroke-width="0.35 px" style="stroke-width:0.35;stroke-miterlimit:4;stroke-dasharray:none;fill:none;fill-opacity:1;fill-rule: evenodd"/>
<path id="Shape2DView_nwe0008"  d="M -3.6625 -4.06 L -3.65 -4.06 " stroke="#191919" stroke-width="0.35 px" style="stroke-width:0.35;stroke-miterlimit:4;stroke-dasharray:none;fill:none;fill-opacity:1;fill-rule: evenodd"/>
<path id="Shape2DView_nwe0009"  d="M -3.6625 -3.56 L -3.65 -3.56 " stroke="#191919" stroke-width="0.35 px" style="stroke-width:0.35;stroke-miterlimit:4;stroke-dasharray:none;fill:none;fill-opacity:1;fill-rule: evenodd"/>
<path id="Shape2DView_nwe0010"  d="M -3.6625 -3.56 L -3.6625 -4.06 " stroke="#191919" stroke-width="0.35 px" style="stroke-width:0.35;stroke-miterlimit:4;stroke-dasharray:none;fill:none;fill-opacity:1;fill-rule: evenodd"/>
<path id="Shape2DView_nwe0011"  d="M -3.6625 1.02 L -3.65 1.02 " stroke="#191919" stroke-width="0.35 px" style="stroke-width:0.35;stroke-miterlimit:4;stroke-dasharray:none;fill:none;fill-opacity:1;fill-rule: evenodd"/>
<path id="Shape2DView_nwe0012"  d="M -3.6625 1.52 L -3.65 1.52 " stroke="#191919" stroke-width="0.35 px" style="stroke-width:0.35;stroke-miterlimit:4;stroke-dasharray:none;fill:none;fill-opacity:1;fill-rule: evenodd"/>
<path id="Shape2DView_nwe0013"  d="M -3.6625 1.52 L -3.6625 1.02 " stroke="#191919" stroke-width="0.35 px" style="stroke-width:0.35;stroke-miterlimit:4;stroke-dasharray:none;fill:none;fill-opacity:1;fill-rule: evenodd"/>
<path id="Shape2DView_nwe0014"  d="M -3.6625 6.1 L -3.65 6.1 " stroke="#191919" stroke-width="0.35 px" style="stroke-width:0.35;stroke-miterlimit:4;stroke-dasharray:none;fill:none;fill-opacity:1;fill-rule: evenodd"/>
<path id="Shape2DView_nwe0015"  d="M -3.6625 6.6 L -3.65 6.6 " stroke="#191919" stroke-width="0.35 px" style="stroke-width:0.35;stroke-miterlimit:4;stroke-dasharray:none;fill:none;fill-opacity:1;fill-rule: evenodd"/>
<path id="Shape2DView_nwe0016"  d="M -3.6625 6.6 L -3.6625 6.1 " stroke="#191919" stroke-width="0.35 px" style="stroke-width:0.35;stroke-miterlimit:4;stroke-dasharray:none;fill:none;fill-opacity:1;fill-rule: evenodd"/>
<path id="Shape2DView_nwe0017"  d="M 3.65 7.4 L 2.2 7.4 " stroke="#191919" stroke-width="0.35 px" style="stroke-width:0.35;stroke-miterlimit:4;stroke-dasharray:none;fill:none;fill-opacity:1;fill-rule: evenodd"/>
<path id="Shape2DView_nwe0018"  d="M -3.65 7.4 L 2.1999999999999997 7.4 " stroke="#191919" stroke-width="0.35 px" style="stroke-width:0.35;stroke-miterlimit:4;stroke-dasharray:none;fill:none;fill-opacity:1;fill-rule: evenodd"/>
<path id="Shape2DView_nwe0019"  d="M -3.650000000000079 7.400000000000079 L -3.648805319879795 7.398805319879795 L -3.645236303314624 7.395236303314624 L -3.6393378327586645 7.389337832758665 L -3.631184084901531 7.381184084901531 L -3.620877597853441 7.370877597853441 L -3.6085479816689876 7.358547981668988 L -3.5943502884255 7.3443502884255 L -3.5784630623532085 7.328463062353209 L -3.561086094537956 7.311086094537956 L -3.5424379104323704 7.29243791043237 L -3.522753021771508 7.272753021771508 L -3.5022789774517173 7.252278977451717 L -3.4812732504596373 7.231273250459638 L -3.46 7.21 " stroke="#191919" stroke-width="0.35 px" style="stroke-width:0.35;stroke-miterlimit:4;stroke-dasharray:none;fill:none;fill-opacity:1;fill-rule: evenodd"/>
<path id="Shape2DView_nwe0020"  d="M -3.46 -7.21 L -3.4812732504596373 -7.231273250459637 L -3.5022789774517173 -7.252278977451717 L -3.522753021771508 -7.272753021771508 L -3.5424379104323704 -7.29243791043237 L -3.561086094537956 -7.311086094537956 L -3.5784630623532085 -7.328463062353209 L -3.5943502884255 -7.3443502884255 L -3.6085479816689876 -7.358547981668988 L -3.620877597853441 -7.370877597853441 L -3.631184084901531 -7.381184084901531 L -3.6393378327586645 -7.389337832758665 L -3.645236303314624 -7.395236303314624 L -3.648805319879795 -7.398805319879795 L -3.650000000000079 -7.400000000000079 " stroke="#191919" stroke-width="0.35 px" style="stroke-width:0.35;stroke-miterlimit:4;stroke-dasharray:none;fill:none;fill-opacity:1;fill-rule: evenodd"/>
<path id="Shape2DView_nwe0021"  d="M 3.65 5.45 L 3.65 -7.400000000000001 " stroke="#191919" stroke-width="0.35 px" style="stroke-width:0.35;stroke-miterlimit:4;stroke-dasharray:none;fill:none;fill-opacity:1;fill-rule: evenodd"/>
<path id="Shape2DView_nwe0022"  d="M 3.65 5.45 L 3.65 7.4 " stroke="#191919" stroke-width="0.35 px" style="stroke-width:0.35;stroke-miterlimit:4;stroke-dasharray:none;fill:none;fill-opacity:1;fill-rule: evenodd"/>
<path id="Shape2DView_nwe0023"  d="M 3.65 6.6 L 3.6625 6.6 " stroke="#191919" stroke-width="0.35 px" style="stroke-width:0.35;stroke-miterlimit:4;stroke-dasharray:none;fill:none;fill-opacity:1;fill-rule: evenodd"/>
<path id="Shape2DView_nwe0024"  d="M 3.65 6.1 L 3.6625 6.1 " stroke="#191919" stroke-width="0.35 px" style="stroke-width:0.35;stroke-miterlimit:4;stroke-dasharray:none;fill:none;fill-opacity:1;fill-rule: evenodd"/>
<path id="Shape2DView_nwe0025"  d="M 3.65 1.52 L 3.6625 1.52 " stroke="#191919" stroke-width="0.35 px" style="stroke-width:0.35;stroke-miterlimit:4;stroke-dasharray:none;fill:none;fill-opacity:1;fill-rule: evenodd"/>
<path id="Shape2DView_nwe0026"  d="M 3.65 1.02 L 3.6625 1.02 " stroke="#191919" stroke-width="0.35 px" style="stroke-width:0.35;stroke-miterlimit:4;stroke-dasharray:none;fill:none;fill-opacity:1;fill-rule: evenodd"/>
<path id="Shape2DView_nwe0027"  d="M 3.65 -1.02 L 3.6625 -1.02 " stroke="#191919" stroke-width="0.35 px" style="stroke-width:0.35;stroke-miterlimit:4;stroke-dasharray:none;fill:none;fill-opacity:1;fill-rule: evenodd"/>
<path id="Shape2DView_nwe0028"  d="M 3.65 -1.52 L 3.6625 -1.52 " stroke="#191919" stroke-width="0.35 px" style="stroke-width:0.35;stroke-miterlimit:4;stroke-dasharray:none;fill:none;fill-opacity:1;fill-rule: evenodd"/>
<path id="Shape2DView_nwe0029"  d="M 3.65 -3.56 L 3.6625 -3.56 " stroke="#191919" stroke-width="0.35 px" style="stroke-width:0.35;stroke-miterlimit:4;stroke-dasharray:none;fill:none;fill-opacity:1;fill-rule: evenodd"/>
<path id="Shape2DView_nwe0030"  d="M 3.65 -4.06 L 3.6625 -4.06 " stroke="#191919" stroke-width="0.35 px" style="stroke-width:0.35;stroke-miterlimit:4;stroke-dasharray:none;fill:none;fill-opacity:1;fill-rule: evenodd"/>
<path id="Shape2DView_nwe0031"  d="M 3.65 -6.1 L 3.6625 -6.1 " stroke="#191919" stroke-width="0.35 px" style="stroke-width:0.35;stroke-miterlimit:4;stroke-dasharray:none;fill:none;fill-opacity:1;fill-rule: evenodd"/>
<path id="Shape2DView_nwe0032"  d="M 3.65 -6.6 L 3.6625 -6.6 " stroke="#191919" stroke-width="0.35 px" style="stroke-width:0.35;stroke-miterlimit:4;stroke-dasharray:none;fill:none;fill-opacity:1;fill-rule: evenodd"/>
<path id="Shape2DView_nwe0033"  d="M 3.650000000000079 -7.400000000000079 L 3.648805319879795 -7.398805319879795 L 3.645236303314624 -7.395236303314624 L 3.6393378327586645 -7.389337832758665 L 3.631184084901531 -7.381184084901531 L 3.620877597853441 -7.370877597853441 L 3.6085479816689876 -7.358547981668988 L 3.5943502884255 -7.3443502884255 L 3.5784630623532085 -7.328463062353209 L 3.561086094537956 -7.311086094537956 L 3.5424379104323704 -7.29243791043237 L 3.522753021771508 -7.272753021771508 L 3.5022789774517173 -7.252278977451717 L 3.4812732504596373 -7.231273250459638 L 3.46 -7.21 " stroke="#191919" stroke-width="0.35 px" style="stroke-width:0.35;stroke-miterlimit:4;stroke-dasharray:none;fill:none;fill-opacity:1;fill-rule: evenodd"/>
<path id="Shape2DView_nwe0034"  d="M 2.2 6.45 L 2.2 7.4 " stroke="#191919" stroke-width="0.35 px" style="stroke-width:0.35;stroke-miterlimit:4;stroke-dasharray:none;fill:none;fill-opacity:1;fill-rule: evenodd"/>
<path id="Shape2DView_nwe0035"  d="M 2.200000000000079 7.400000000000079 L 2.1988053198797948 7.398805319879795 L 2.1952363033146236 7.395236303314624 L 2.1893378327586643 7.389337832758665 L 2.1811840849015307 7.381184084901531 L 2.170877597853441 7.370877597853441 L 2.1585479816689874 7.358547981668988 L 2.1443502884254997 7.3443502884255 L 2.1284630623532084 7.328463062353209 L 2.111086094537956 7.311086094537956 L 2.0924379104323703 7.29243791043237 L 2.0727530217715078 7.272753021771508 L 2.052278977451717 7.252278977451717 L 2.031273250459637 7.231273250459638 L 2.01 7.21 " stroke="#191919" stroke-width="0.35 px" style="stroke-width:0.35;stroke-miterlimit:4;stroke-dasharray:none;fill:none;fill-opacity:1;fill-rule: evenodd"/>
<path id="Shape2DView_nwe0036"  d="M 3.46 5.26 L 3.4812732504596373 5.281273250459637 L 3.5022789774517173 5.302278977451717 L 3.522753021771508 5.322753021771508 L 3.5424379104323704 5.34243791043237 L 3.561086094537956 5.3610860945379555 L 3.5784630623532085 5.378463062353209 L 3.5943502884255 5.3943502884255 L 3.6085479816689876 5.408547981668987 L 3.620877597853441 5.4208775978534405 L 3.631184084901531 5.431184084901531 L 3.6393378327586645 5.439337832758665 L 3.645236303314624 5.445236303314624 L 3.648805319879795 5.448805319879795 L 3.650000000000079 5.450000000000079 " stroke="#191919" stroke-width="0.35 px" style="stroke-width:0.35;stroke-miterlimit:4;stroke-dasharray:none;fill:none;fill-opacity:1;fill-rule: evenodd"/>
<path id="Shape2DView_nwe0037"  d="M 3.65 5.45 L 3.2 5.45 " stroke="#191919" stroke-width="0.35 px" style="stroke-width:0.35;stroke-miterlimit:4;stroke-dasharray:none;fill:none;fill-opacity:1;fill-rule: evenodd"/>
<path id="Shape2DView_nwe0038"  d="M 3.6625 6.6 L 3.6625 6.1 " stroke="#191919" stroke-width="0.35 px" style="stroke-width:0.35;stroke-miterlimit:4;stroke-dasharray:none;fill:none;fill-opacity:1;fill-rule: evenodd"/>
<path id="Shape2DView_nwe0039"  d="M 3.6625 1.52 L 3.6625 1.02 " stroke="#191919" stroke-width="0.35 px" style="stroke-width:0.35;stroke-miterlimit:4;stroke-dasharray:none;fill:none;fill-opacity:1;fill-rule: evenodd"/>
<path id="Shape2DView_nwe0040"  d="M 3.6625 -1.02 L 3.6625 -1.52 " stroke="#191919" stroke-width="0.35 px" style="stroke-width:0.35;stroke-miterlimit:4;stroke-dasharray:none;fill:none;fill-opacity:1;fill-rule: evenodd"/>
<path id="Shape2DView_nwe0041"  d="M 3.6625 -3.56 L 3.6625 -4.06 " stroke="#191919" stroke-width="0.35 px" style="stroke-width:0.35;stroke-miterlimit:4;stroke-dasharray:none;fill:none;fill-opacity:1;fill-rule: evenodd"/>
<path id="Shape2DView_nwe0042"  d="M 3.6625 -6.1 L 3.6625 -6.6 " stroke="#191919" stroke-width="0.35 px" style="stroke-width:0.35;stroke-miterlimit:4;stroke-dasharray:none;fill:none;fill-opacity:1;fill-rule: evenodd"/>
<path id="Shape2DView_nwe0043"  d="M 3.2 5.45 A 1 1 0 0 0 2.2 6.45" stroke="#191919" stroke-width="0.35 px" style="stroke-width:0.35;stroke-miterlimit:4;stroke-dasharray:none;fill:none;fill-opacity:1;fill-rule: evenodd"/>
<path id="Shape2DView_nwe0044"  d="M -1.5 6.1 L 1.5 6.099999999999998 " stroke="#191919" stroke-width="0.35 px" style="stroke-width:0.35;stroke-miterlimit:4;stroke-dasharray:none;fill:none;fill-opacity:1;fill-rule: evenodd"/>
<path id="Shape2DView_nwe0045"  d="M 1.5 6.1 A 0.125 0.125 0 0 1 1.5 6.35" stroke="#191919" stroke-width="0.35 px" style="stroke-width:0.35;stroke-miterlimit:4;stroke-dasharray:none;fill:none;fill-opacity:1;fill-rule: evenodd"/>
<path id="Shape2DView_nwe0046"  d="M 1.5 6.35 L -1.5 6.350000000000001 " stroke="#191919" stroke-width="0.35 px" style="stroke-width:0.35;stroke-miterlimit:4;stroke-dasharray:none;fill:none;fill-opacity:1;fill-rule: evenodd"/>
<path id="Shape2DView_nwe0047"  d="M -1.5 6.35 A 0.125 0.125 0 0 1 -1.5 6.1" stroke="#191919" stroke-width="0.35 px" style="stroke-width:0.35;stroke-miterlimit:4;stroke-dasharray:none;fill:none;fill-opacity:1;fill-rule: evenodd"/>
<path id="Shape2DView_nwe0048"  d="M -3.46 -7.21 L -3.46 7.209999999999999 " stroke="#191919" stroke-width="0.35 px" style="stroke-width:0.35;stroke-miterlimit:4;stroke-dasharray:none;fill:none;fill-opacity:1;fill-rule: evenodd"/>
<path id="Shape2DView_nwe0049"  d="M 3.46 -7.21 L -3.4599999999999995 -7.21 " stroke="#191919" stroke-width="0.35 px" style="stroke-width:0.35;stroke-miterlimit:4;stroke-dasharray:none;fill:none;fill-opacity:1;fill-rule: evenodd"/>
<path id="Shape2DView_nwe0050"  d="M -3.46 7.21 L 2.0100000000000002 7.21 " stroke="#191919" stroke-width="0.35 px" style="stroke-width:0.35;stroke-miterlimit:4;stroke-dasharray:none;fill:none;fill-opacity:1;fill-rule: evenodd"/>
<path id="Shape2DView_nwe0051"  d="M 3.46 5.26 L 3.46 -7.21 " stroke="#191919" stroke-width="0.35 px" style="stroke-width:0.35;stroke-miterlimit:4;stroke-dasharray:none;fill:none;fill-opacity:1;fill-rule: evenodd"/>
<path id="Shape2DView_nwe0052"  d="M 3.46 5.26 L 3.2 5.26 " stroke="#191919" stroke-width="0.35 px" style="stroke-width:0.35;stroke-miterlimit:4;stroke-dasharray:none;fill:none;fill-opacity:1;fill-rule: evenodd"/>
<path id="Shape2DView_nwe0053"  d="M 3.2 5.26 A 1.19 1.19 0 0 0 2.01 6.45" stroke="#191919" stroke-width="0.35 px" style="stroke-width:0.35;stroke-miterlimit:4;stroke-dasharray:none;fill:none;fill-opacity:1;fill-rule: evenodd"/>
<path id="Shape2DView_nwe0054"  d="M 2.01 6.45 L 2.01 7.21 " stroke="#191919" stroke-width="0.35 px" style="stroke-width:0.35;stroke-miterlimit:4;stroke-dasharray:none;fill:none;fill-opacity:1;fill-rule: evenodd"/>
<path id="Shape2DView_nwe0055"  d="M 2.01 6.45 L 2.0312732504596283 6.45 L 2.0522789774516994 6.45 L 2.0727530217714816 6.45 L 2.0924379104323356 6.45 L 2.1110860945379137 6.45 L 2.128463062353159 6.45 L 2.1443502884254437 6.45 L 2.1585479816689253 6.45 L 2.170877597853374 6.45 L 2.181184084901459 6.45 L 2.1893378327585897 6.45 L 2.1952363033145463 6.45 L 2.1988053198797157 6.45 L 2.1999999999999997 6.45 " stroke="#191919" stroke-width="0.35 px" style="stroke-width:0.35;stroke-miterlimit:4;stroke-dasharray:none;fill:none;fill-opacity:1;fill-rule: evenodd"/>
<path id="Shape2DView_nwe0057"  d="M 3.2 5.26 L 3.2 5.281273250459629 L 3.2 5.302278977451699 L 3.2 5.322753021771481 L 3.2 5.342437910432336 L 3.2 5.361086094537914 L 3.2 5.378463062353159 L 3.2 5.394350288425444 L 3.2 5.408547981668925 L 3.2 5.420877597853374 L 3.2 5.431184084901459 L 3.2 5.439337832758589 L 3.2 5.445236303314546 L 3.2 5.448805319879716 L 3.2 5.45 " stroke="#191919" stroke-width="0.35 px" style="stroke-width:0.35;stroke-miterlimit:4;stroke-dasharray:none;fill:none;fill-opacity:1;fill-rule: evenodd"/>
<title>b'Shape2DView'</title>
</g>
<g id="Rectangle" transform="translate(3.735750,7.473250) scale(1,-1)">
<rect fill="#ff0000" id="origin" width="1" height="1" x="0" y="0" />
<title>b'Rectangle'</title>
</g>
</svg>