<?xml version="1.0"?>
<!DOCTYPE svg PUBLIC "-//W3C//DTD SVG 1.1//EN" "http://www.w3.org/Graphics/SVG/1.1/DTD/svg11.dtd">
<svg width="7.9559999999999995mm" height="10.156000000000539mm" viewBox="0 0 7.9559999999999995 10.156000000000539" xmlns="http://www.w3.org/2000/svg" version="1.1">
<g id="Shape2DView" transform="translate(3.978000,5.078000) scale(1,-1)">
<path id="Shape2DView_nwe0000"  d="M -3.25 5.0 L -3.2500000000000058 -5.0 " stroke="#191919" stroke-width="0.35 px" style="stroke-width:0.35;stroke-miterlimit:4;stroke-dasharray:none;fill:none;fill-opacity:1;fill-rule: evenodd"/>
<path id="Shape2DView_nwe0001"  d="M -3.549998292576 4.05 L -3.9 4.05 " stroke="#191919" stroke-width="0.35 px" style="stroke-width:0.35;stroke-miterlimit:4;stroke-dasharray:none;fill:none;fill-opacity:1;fill-rule: evenodd"/>
<path id="Shape2DView_nwe0002"  d="M -3.549998292576 4.05 L -3.5220073647210066 4.05 L -3.4943684390245044 4.05 L -3.467429091013605 4.05 L -3.4415280986201195 4.05 L -3.416991181851502 4.05 L -3.394126906672768 4.05 L -3.3732228046104518 4.05 L -3.3545417568768294 4.05 L -3.338318688486148 4.05 L -3.3247576139362636 4.05 L -3.3140290716079592 4.05 L -3.3062679791458596 4.05 L -3.3015719367907654 4.05 L -3.3 4.05 " stroke="#191919" stroke-width="0.35 px" style="stroke-width:0.35;stroke-miterlimit:4;stroke-dasharray:none;fill:none;fill-opacity:1;fill-rule: evenodd"/>
<path id="Shape2DView_nwe0003"  d="M -3.3 4.05 L -3.25 4.05 " stroke="#191919" stroke-width="0.35 px" style="stroke-width:0.35;stroke-miterlimit:4;stroke-dasharray:none;fill:none;fill-opacity:1;fill-rule: evenodd"/>
<path id="Shape2DView_nwe0004"  d="M -3.549998292576 3.55 L -3.9 3.55 " stroke="#191919" stroke-width="0.35 px" style="stroke-width:0.35;stroke-miterlimit:4;stroke-dasharray:none;fill:none;fill-opacity:1;fill-rule: evenodd"/>
<path id="Shape2DView_nwe0005"  d="M -3.549998292576 3.55 L -3.5220073647210066 3.55 L -3.4943684390245044 3.55 L -3.467429091013605 3.55 L -3.4415280986201195 3.55 L -3.416991181851502 3.55 L -3.394126906672768 3.55 L -3.3732228046104518 3.55 L -3.3545417568768294 3.55 L -3.338318688486148 3.55 L -3.3247576139362636 3.55 L -3.3140290716079592 3.55 L -3.3062679791458596 3.55 L -3.3015719367907654 3.55 L -3.3 3.55 " stroke="#191919" stroke-width="0.35 px" style="stroke-width:0.35;stroke-miterlimit:4;stroke-dasharray:none;fill:none;fill-opacity:1;fill-rule: evenodd"/>
<path id="Shape2DView_nwe0006"  d="M -3.3 3.55 L -3.25 3.55 " stroke="#191919" stroke-width="0.35 px" style="stroke-width:0.35;stroke-miterlimit:4;stroke-dasharray:none;fill:none;fill-opacity:1;fill-rule: evenodd"/>
<path id="Shape2DView_nwe0007"  d="M -3.549998292576 0.86 L -3.9 0.86 " stroke="#191919" stroke-width="0.35 px" style="stroke-width:0.35;stroke-miterlimit:4;stroke-dasharray:none;fill:none;fill-opacity:1;fill-rule: evenodd"/>
<path id="Shape2DView_nwe0008"  d="M -3.549998292576 0.8600000000000001 L -3.5220073647210066 0.8600000000000001 L -3.4943684390245044 0.8600000000000001 L -3.467429091013605 0.8600000000000001 L -3.4415280986201195 0.8600000000000001 L -3.416991181851502 0.8600000000000001 L -3.394126906672768 0.8600000000000001 L -3.3732228046104518 0.8600000000000001 L -3.3545417568768294 0.8600000000000001 L -3.338318688486148 0.8600000000000001 L -3.3247576139362636 0.8600000000000001 L -3.3140290716079592 0.86 L -3.3062679791458596 0.86 L -3.3015719367907654 0.86 L -3.3 0.86 " stroke="#191919" stroke-width="0.35 px" style="stroke-width:0.35;stroke-miterlimit:4;stroke-dasharray:none;fill:none;fill-opacity:1;fill-rule: evenodd"/>
<path id="Shape2DView_nwe0009"  d="M -3.3 0.86 L -3.25 0.86 " stroke="#191919" stroke-width="0.35 px" style="stroke-width:0.35;stroke-miterlimit:4;stroke-dasharray:none;fill:none;fill-opacity:1;fill-rule: evenodd"/>
<path id="Shape2DView_nwe0010"  d="M -3.549998292576 0.36 L -3.9 0.36 " stroke="#191919" stroke-width="0.35 px" style="stroke-width:0.35;stroke-miterlimit:4;stroke-dasharray:none;fill:none;fill-opacity:1;fill-rule: evenodd"/>
<path id="Shape2DView_nwe0011"  d="M -3.549998292576 0.3600000000000001 L -3.5220073647210066 0.3600000000000001 L -3.4943684390245044 0.3600000000000001 L -3.467429091013605 0.3600000000000001 L -3.4415280986201195 0.3600000000000001 L -3.416991181851502 0.3600000000000001 L -3.394126906672768 0.3600000000000001 L -3.3732228046104518 0.3600000000000001 L -3.3545417568768294 0.3600000000000001 L -3.338318688486148 0.36000000000000004 L -3.3247576139362636 0.36000000000000004 L -3.3140290716079592 0.36000000000000004 L -3.3062679791458596 0.36000000000000004 L -3.3015719367907654 0.36 L -3.3 0.36 " stroke="#191919" stroke-width="0.35 px" style="stroke-width:0.35;stroke-miterlimit:4;stroke-dasharray:none;fill:none;fill-opacity:1;fill-rule: evenodd"/>
<path id="Shape2DView_nwe0012"  d="M -3.3 0.36 L -3.25 0.36 " stroke="#191919" stroke-width="0.35 px" style="stroke-width:0.35;stroke-miterlimit:4;stroke-dasharray:none;fill:none;fill-opacity:1;fill-rule: evenodd"/>
<path id="Shape2DView_nwe0013"  d="M -3.549998292576 -1.34 L -3.9 -1.34 " stroke="#191919" stroke-width="0.35 px" style="stroke-width:0.35;stroke-miterlimit:4;stroke-dasharray:none;fill:none;fill-opacity:1;fill-rule: evenodd"/>
<path id="Shape2DView_nwe0014"  d="M -3.549998292576 -1.3399999999999999 L -3.5220073647210066 -1.3399999999999999 L -3.4943684390245044 -1.3399999999999999 L -3.467429091013605 -1.3399999999999999 L -3.4415280986201195 -1.3399999999999999 L -3.416991181851502 -1.3399999999999999 L -3.394126906672768 -1.34 L -3.3732228046104518 -1.34 L -3.3545417568768294 -1.34 L -3.338318688486148 -1.34 L -3.3247576139362636 -1.34 L -3.3140290716079592 -1.34 L -3.3062679791458596 -1.34 L -3.3015719367907654 -1.34 L -3.3 -1.34 " stroke="#191919" stroke-width="0.35 px" style="stroke-width:0.35;stroke-miterlimit:4;stroke-dasharray:none;fill:none;fill-opacity:1;fill-rule: evenodd"/>
<path id="Shape2DView_nwe0015"  d="M -3.3 -1.34 L -3.25 -1.34 " stroke="#191919" stroke-width="0.35 px" style="stroke-width:0.35;stroke-miterlimit:4;stroke-dasharray:none;fill:none;fill-opacity:1;fill-rule: evenodd"/>
<path id="Shape2DView_nwe0016"  d="M -3.549998292576 -1.84 L -3.9 -1.84 " stroke="#191919" stroke-width="0.35 px" style="stroke-width:0.35;stroke-miterlimit:4;stroke-dasharray:none;fill:none;fill-opacity:1;fill-rule: evenodd"/>
<path id="Shape2DView_nwe0017"  d="M -3.549998292576 -1.8399999999999999 L -3.5220073647210066 -1.8399999999999999 L -3.4943684390245044 -1.8399999999999999 L -3.467429091013605 -1.8399999999999999 L -3.4415280986201195 -1.8399999999999999 L -3.416991181851502 -1.8399999999999999 L -3.394126906672768 -1.84 L -3.3732228046104518 -1.84 L -3.3545417568768294 -1.84 L -3.338318688486148 -1.84 L -3.3247576139362636 -1.84 L -3.3140290716079592 -1.84 L -3.3062679791458596 -1.84 L -3.3015719367907654 -1.84 L -3.3 -1.84 " stroke="#191919" stroke-width="0.35 px" style="stroke-width:0.35;stroke-miterlimit:4;stroke-dasharray:none;fill:none;fill-opacity:1;fill-rule: evenodd"/>
<path id="Shape2DView_nwe0018"  d="M -3.3 -1.84 L -3.25 -1.84 " stroke="#191919" stroke-width="0.35 px" style="stroke-width:0.35;stroke-miterlimit:4;stroke-dasharray:none;fill:none;fill-opacity:1;fill-rule: evenodd"/>
<path id="Shape2DView_nwe0019"  d="M -3.549998292576 -3.55 L -3.9 -3.55 " stroke="#191919" stroke-width="0.35 px" style="stroke-width:0.35;stroke-miterlimit:4;stroke-dasharray:none;fill:none;fill-opacity:1;fill-rule: evenodd"/>
<path id="Shape2DView_nwe0020"  d="M -3.549998292576 -3.55 L -3.5220073647210066 -3.55 L -3.4943684390245044 -3.55 L -3.467429091013605 -3.55 L -3.4415280986201195 -3.55 L -3.416991181851502 -3.55 L -3.394126906672768 -3.55 L -3.3732228046104518 -3.55 L -3.3545417568768294 -3.55 L -3.338318688486148 -3.55 L -3.3247576139362636 -3.55 L -3.3140290716079592 -3.55 L -3.3062679791458596 -3.55 L -3.3015719367907654 -3.55 L -3.3 -3.55 " stroke="#191919" stroke-width="0.35 px" style="stroke-width:0.35;stroke-miterlimit:4;stroke-dasharray:none;fill:none;fill-opacity:1;fill-rule: evenodd"/>
<path id="Shape2DView_nwe0021"  d="M -3.3 -3.55 L -3.25 -3.55 " stroke="#191919" stroke-width="0.35 px" style="stroke-width:0.35;stroke-miterlimit:4;stroke-dasharray:none;fill:none;fill-opacity:1;fill-rule: evenodd"/>
<path id="Shape2DView_nwe0022"  d="M -3.549998292576 -4.05 L -3.9 -4.05 " stroke="#191919" stroke-width="0.35 px" style="stroke-width:0.35;stroke-miterlimit:4;stroke-dasharray:none;fill:none;fill-opacity:1;fill-rule: evenodd"/>
<path id="Shape2DView_nwe0023"  d="M -3.549998292576 -4.05 L -3.5220073647210066 -4.05 L -3.4943684390245044 -4.05 L -3.467429091013605 -4.05 L -3.4415280986201195 -4.05 L -3.416991181851502 -4.05 L -3.394126906672768 -4.05 L -3.3732228046104518 -4.05 L -3.3545417568768294 -4.05 L -3.338318688486148 -4.05 L -3.3247576139362636 -4.05 L -3.3140290716079592 -4.05 L -3.3062679791458596 -4.05 L -3.3015719367907654 -4.05 L -3.3 -4.05 " stroke="#191919" stroke-width="0.35 px" style="stroke-width:0.35;stroke-miterlimit:4;stroke-dasharray:none;fill:none;fill-opacity:1;fill-rule: evenodd"/>
<path id="Shape2DView_nwe0024"  d="M -3.3 -4.05 L -3.25 -4.05 " stroke="#191919" stroke-width="0.35 px" style="stroke-width:0.35;stroke-miterlimit:4;stroke-dasharray:none;fill:none;fill-opacity:1;fill-rule: evenodd"/>
<path id="Shape2DView_nwe0025"  d="M -3.25 -5.0 L 3.25 -5.0000000000000036 " stroke="#191919" stroke-width="0.35 px" style="stroke-width:0.35;stroke-miterlimit:4;stroke-dasharray:none;fill:none;fill-opacity:1;fill-rule: evenodd"/>
<path id="Shape2DView_nwe0026"  d="M 3.25 -5.0 L 3.2500000000000058 5.0 " stroke="#191919" stroke-width="0.35 px" style="stroke-width:0.35;stroke-miterlimit:4;stroke-dasharray:none;fill:none;fill-opacity:1;fill-rule: evenodd"/>
<path id="Shape2DView_nwe0027"  d="M 3.3 -4.05 L 3.3015719367907654 -4.05 L 3.3062679791458596 -4.05 L 3.3140290716079592 -4.05 L 3.3247576139362636 -4.05 L 3.3383186884861478 -4.05 L 3.3545417568768294 -4.05 L 3.3732228046104518 -4.05 L 3.394126906672768 -4.05 L 3.4169911818515017 -4.05 L 3.4415280986201195 -4.05 L 3.467429091013605 -4.05 L 3.4943684390245044 -4.05 L 3.5220073647210066 -4.05 L 3.549998292576 -4.05 " stroke="#191919" stroke-width="0.35 px" style="stroke-width:0.35;stroke-miterlimit:4;stroke-dasharray:none;fill:none;fill-opacity:1;fill-rule: evenodd"/>
<path id="Shape2DView_nwe0028"  d="M 3.549998292576 -4.05 L 3.9 -4.05 " stroke="#191919" stroke-width="0.35 px" style="stroke-width:0.35;stroke-miterlimit:4;stroke-dasharray:none;fill:none;fill-opacity:1;fill-rule: evenodd"/>
<path id="Shape2DView_nwe0029"  d="M 3.3 -4.05 L 3.25 -4.05 " stroke="#191919" stroke-width="0.35 px" style="stroke-width:0.35;stroke-miterlimit:4;stroke-dasharray:none;fill:none;fill-opacity:1;fill-rule: evenodd"/>
<path id="Shape2DView_nwe0030"  d="M 3.3 -3.55 L 3.3015719367907654 -3.55 L 3.3062679791458596 -3.55 L 3.3140290716079592 -3.55 L 3.3247576139362636 -3.55 L 3.3383186884861478 -3.55 L 3.3545417568768294 -3.55 L 3.3732228046104518 -3.55 L 3.394126906672768 -3.55 L 3.4169911818515017 -3.55 L 3.4415280986201195 -3.55 L 3.467429091013605 -3.55 L 3.4943684390245044 -3.55 L 3.5220073647210066 -3.55 L 3.549998292576 -3.55 " stroke="#191919" stroke-width="0.35 px" style="stroke-width:0.35;stroke-miterlimit:4;stroke-dasharray:none;fill:none;fill-opacity:1;fill-rule: evenodd"/>
<path id="Shape2DView_nwe0031"  d="M 3.549998292576 -3.55 L 3.9 -3.55 " stroke="#191919" stroke-width="0.35 px" style="stroke-width:0.35;stroke-miterlimit:4;stroke-dasharray:none;fill:none;fill-opacity:1;fill-rule: evenodd"/>
<path id="Shape2DView_nwe0032"  d="M 3.3 -3.55 L 3.25 -3.55 " stroke="#191919" stroke-width="0.35 px" style="stroke-width:0.35;stroke-miterlimit:4;stroke-dasharray:none;fill:none;fill-opacity:1;fill-rule: evenodd"/>
<path id="Shape2DView_nwe0033"  d="M 3.3 -1.84 L 3.3015719367907654 -1.84 L 3.3062679791458596 -1.84 L 3.3140290716079592 -1.84 L 3.3247576139362636 -1.84 L 3.3383186884861478 -1.84 L 3.3545417568768294 -1.84 L 3.3732228046104518 -1.84 L 3.394126906672768 -1.84 L 3.4169911818515017 -1.8399999999999999 L 3.4415280986201195 -1.8399999999999999 L 3.467429091013605 -1.8399999999999999 L 3.4943684390245044 -1.8399999999999999 L 3.5220073647210066 -1.8399999999999999 L 3.549998292576 -1.8399999999999999 " stroke="#191919" stroke-width="0.35 px" style="stroke-width:0.35;stroke-miterlimit:4;stroke-dasharray:none;fill:none;fill-opacity:1;fill-rule: evenodd"/>
<path id="Shape2DView_nwe0034"  d="M 3.549998292576 -1.84 L 3.9 -1.84 " stroke="#191919" stroke-width="0.35 px" style="stroke-width:0.35;stroke-miterlimit:4;stroke-dasharray:none;fill:none;fill-opacity:1;fill-rule: evenodd"/>
<path id="Shape2DView_nwe0035"  d="M 3.3 -1.84 L 3.25 -1.84 " stroke="#191919" stroke-width="0.35 px" style="stroke-width:0.35;stroke-miterlimit:4;stroke-dasharray:none;fill:none;fill-opacity:1;fill-rule: evenodd"/>
<path id="Shape2DView_nwe0036"  d="M 3.3 -1.34 L 3.3015719367907654 -1.34 L 3.3062679791458596 -1.34 L 3.3140290716079592 -1.34 L 3.3247576139362636 -1.34 L 3.3383186884861478 -1.34 L 3.3545417568768294 -1.34 L 3.3732228046104518 -1.34 L 3.394126906672768 -1.34 L 3.4169911818515017 -1.3399999999999999 L 3.4415280986201195 -1.3399999999999999 L 3.467429091013605 -1.3399999999999999 L 3.4943684390245044 -1.3399999999999999 L 3.5220073647210066 -1.3399999999999999 L 3.549998292576 -1.3399999999999999 " stroke="#191919" stroke-width="0.35 px" style="stroke-width:0.35;stroke-miterlimit:4;stroke-dasharray:none;fill:none;fill-opacity:1;fill-rule: evenodd"/>
<path id="Shape2DView_nwe0037"  d="M 3.549998292576 -1.34 L 3.9 -1.34 " stroke="#191919" stroke-width="0.35 px" style="stroke-width:0.35;stroke-miterlimit:4;stroke-dasharray:none;fill:none;fill-opacity:1;fill-rule: evenodd"/>
<path id="Shape2DView_nwe0038"  d="M 3.3 -1.34 L 3.25 -1.34 " stroke="#191919" stroke-width="0.35 px" style="stroke-width:0.35;stroke-miterlimit:4;stroke-dasharray:none;fill:none;fill-opacity:1;fill-rule: evenodd"/>
<path id="Shape2DView_nwe0039"  d="M 3.3 0.36 L 3.3015719367907654 0.36 L 3.3062679791458596 0.36000000000000004 L 3.3140290716079592 0.36000000000000004 L 3.3247576139362636 0.36000000000000004 L 3.3383186884861478 0.36000000000000004 L 3.3545417568768294 0.3600000000000001 L 3.3732228046104518 0.3600000000000001 L 3.394126906672768 0.3600000000000001 L 3.4169911818515017 0.3600000000000001 L 3.4415280986201195 0.3600000000000001 L 3.467429091013605 0.3600000000000001 L 3.4943684390245044 0.3600000000000001 L 3.5220073647210066 0.3600000000000001 L 3.549998292576 0.3600000000000001 " stroke="#191919" stroke-width="0.35 px" style="stroke-width:0.35;stroke-miterlimit:4;stroke-dasharray:none;fill:none;fill-opacity:1;fill-rule: evenodd"/>
<path id="Shape2DView_nwe0040"  d="M 3.549998292576 0.36 L 3.9 0.36 " stroke="#191919" stroke-width="0.35 px" style="stroke-width:0.35;stroke-miterlimit:4;stroke-dasharray:none;fill:none;fill-opacity:1;fill-rule: evenodd"/>
<path id="Shape2DView_nwe0041"  d="M 3.3 0.36 L 3.25 0.36 " stroke="#191919" stroke-width="0.35 px" style="stroke-width:0.35;stroke-miterlimit:4;stroke-dasharray:none;fill:none;fill-opacity:1;fill-rule: evenodd"/>
<path id="Shape2DView_nwe0042"  d="M 3.3 0.86 L 3.3015719367907654 0.86 L 3.3062679791458596 0.86 L 3.3140290716079592 0.86 L 3.3247576139362636 0.8600000000000001 L 3.3383186884861478 0.8600000000000001 L 3.3545417568768294 0.8600000000000001 L 3.3732228046104518 0.8600000000000001 L 3.394126906672768 0.8600000000000001 L 3.4169911818515017 0.8600000000000001 L 3.4415280986201195 0.8600000000000001 L 3.467429091013605 0.8600000000000001 L 3.4943684390245044 0.8600000000000001 L 3.5220073647210066 0.8600000000000001 L 3.549998292576 0.8600000000000001 " stroke="#191919" stroke-width="0.35 px" style="stroke-width:0.35;stroke-miterlimit:4;stroke-dasharray:none;fill:none;fill-opacity:1;fill-rule: evenodd"/>
<path id="Shape2DView_nwe0043"  d="M 3.549998292576 0.86 L 3.9 0.86 " stroke="#191919" stroke-width="0.35 px" style="stroke-width:0.35;stroke-miterlimit:4;stroke-dasharray:none;fill:none;fill-opacity:1;fill-rule: evenodd"/>
<path id="Shape2DView_nwe0044"  d="M 3.3 0.86 L 3.25 0.86 " stroke="#191919" stroke-width="0.35 px" style="stroke-width:0.35;stroke-miterlimit:4;stroke-dasharray:none;fill:none;fill-opacity:1;fill-rule: evenodd"/>
<path id="Shape2DView_nwe0045"  d="M 3.3 3.55 L 3.3015719367907654 3.55 L 3.3062679791458596 3.55 L 3.3140290716079592 3.55 L 3.3247576139362636 3.55 L 3.3383186884861478 3.55 L 3.3545417568768294 3.55 L 3.3732228046104518 3.55 L 3.394126906672768 3.55 L 3.4169911818515017 3.55 L 3.4415280986201195 3.55 L 3.467429091013605 3.55 L 3.4943684390245044 3.55 L 3.5220073647210066 3.55 L 3.549998292576 3.55 " stroke="#191919" stroke-width="0.35 px" style="stroke-width:0.35;stroke-miterlimit:4;stroke-dasharray:none;fill:none;fill-opacity:1;fill-rule: evenodd"/>
<path id="Shape2DView_nwe0046"  d="M 3.549998292576 3.55 L 3.9 3.55 " stroke="#191919" stroke-width="0.35 px" style="stroke-width:0.35;stroke-miterlimit:4;stroke-dasharray:none;fill:none;fill-opacity:1;fill-rule: evenodd"/>
<path id="Shape2DView_nwe0047"  d="M 3.3 3.55 L 3.25 3.55 " stroke="#191919" stroke-width="0.35 px" style="stroke-width:0.35;stroke-miterlimit:4;stroke-dasharray:none;fill:none;fill-opacity:1;fill-rule: evenodd"/>
<path id="Shape2DView_nwe0048"  d="M 3.3 4.05 L 3.3015719367907654 4.05 L 3.3062679791458596 4.05 L 3.3140290716079592 4.05 L 3.3247576139362636 4.05 L 3.3383186884861478 4.05 L 3.3545417568768294 4.05 L 3.3732228046104518 4.05 L 3.394126906672768 4.05 L 3.4169911818515017 4.05 L 3.4415280986201195 4.05 L 3.467429091013605 4.05 L 3.4943684390245044 4.05 L 3.5220073647210066 4.05 L 3.549998292576 4.05 " stroke="#191919" stroke-width="0.35 px" style="stroke-width:0.35;stroke-miterlimit:4;stroke-dasharray:none;fill:none;fill-opacity:1;fill-rule: evenodd"/>
<path id="Shape2DView_nwe0049"  d="M 3.549998292576 4.05 L 3.9 4.05 " stroke="#191919" stroke-width="0.35 px" style="stroke-width:0.35;stroke-miterlimit:4;stroke-dasharray:none;fill:none;fill-opacity:1;fill-rule: evenodd"/>
<path id="Shape2DView_nwe0050"  d="M 3.3 4.05 L 3.25 4.05 " stroke="#191919" stroke-width="0.35 px" style="stroke-width:0.35;stroke-miterlimit:4;stroke-dasharray:none;fill:none;fill-opacity:1;fill-rule: evenodd"/>
<path id="Shape2DView_nwe0051"  d="M 3.25 5.0 L -3.25 5.0000000000000036 " stroke="#191919" stroke-width="0.35 px" style="stroke-width:0.35;stroke-miterlimit:4;stroke-dasharray:none;fill:none;fill-opacity:1;fill-rule: evenodd"/>
<path id="Shape2DView_nwe0052"  d="M -3.3 4.05 L -3.3 3.55 " stroke="#191919" stroke-width="0.35 px" style="stroke-width:0.35;stroke-miterlimit:4;stroke-dasharray:none;fill:none;fill-opacity:1;fill-rule: evenodd"/>
<path id="Shape2DView_nwe0053"  d="M -3.3 0.86 L -3.3 0.36 " stroke="#191919" stroke-width="0.35 px" style="stroke-width:0.35;stroke-miterlimit:4;stroke-dasharray:none;fill:none;fill-opacity:1;fill-rule: evenodd"/>
<path id="Shape2DView_nwe0054"  d="M -3.3 -1.34 L -3.3 -1.84 " stroke="#191919" stroke-width="0.35 px" style="stroke-width:0.35;stroke-miterlimit:4;stroke-dasharray:none;fill:none;fill-opacity:1;fill-rule: evenodd"/>
<path id="Shape2DView_nwe0055"  d="M -3.3 -3.55 L -3.3 -4.05 " stroke="#191919" stroke-width="0.35 px" style="stroke-width:0.35;stroke-miterlimit:4;stroke-dasharray:none;fill:none;fill-opacity:1;fill-rule: evenodd"/>
<path id="Shape2DView_nwe0056"  d="M -3.250000000000269 -5.000000000000269 L -3.248742441978916 -4.998742441978916 L -3.244985582436627 -4.994985582436628 L -3.2387766660619275 -4.988776666061928 L -3.2301937735807265 -4.9801937735807265 L -3.219344839845885 -4.969344839845885 L -3.206366296493816 -4.956366296493816 L -3.1914213562375 -4.9414213562375 L -3.1746979603719145 -4.9246979603719145 L -3.1564064153032105 -4.90640641530321 L -3.136776747823628 -4.886776747823628 L -3.116055812391122 -4.866055812391123 L -3.0945041867913226 -4.8445041867913226 L -3.0723928952206916 -4.822392895220691 L -3.05 -4.8 " stroke="#191919" stroke-width="0.35 px" style="stroke-width:0.35;stroke-miterlimit:4;stroke-dasharray:none;fill:none;fill-opacity:1;fill-rule: evenodd"/>
<path id="Shape2DView_nwe0057"  d="M -3.250000000000269 5.000000000000269 L -3.248742441978916 4.998742441978916 L -3.244985582436627 4.994985582436628 L -3.2387766660619275 4.988776666061928 L -3.2301937735807265 4.9801937735807265 L -3.219344839845885 4.969344839845885 L -3.206366296493816 4.956366296493816 L -3.1914213562375 4.9414213562375 L -3.1746979603719145 4.9246979603719145 L -3.1564064153032105 4.90640641530321 L -3.136776747823628 4.886776747823628 L -3.116055812391122 4.866055812391123 L -3.0945041867913226 4.8445041867913226 L -3.0723928952206916 4.822392895220692 L -3.05 4.8 " stroke="#191919" stroke-width="0.35 px" style="stroke-width:0.35;stroke-miterlimit:4;stroke-dasharray:none;fill:none;fill-opacity:1;fill-rule: evenodd"/>
<path id="Shape2DView_nwe0058"  d="M -3.9 4.05 L -3.9 3.55 " stroke="#191919" stroke-width="0.35 px" style="stroke-width:0.35;stroke-miterlimit:4;stroke-dasharray:none;fill:none;fill-opacity:1;fill-rule: evenodd"/>
<path id="Shape2DView_nwe0059"  d="M -3.9 0.86 L -3.9 0.36 " stroke="#191919" stroke-width="0.35 px" style="stroke-width:0.35;stroke-miterlimit:4;stroke-dasharray:none;fill:none;fill-opacity:1;fill-rule: evenodd"/>
<path id="Shape2DView_nwe0060"  d="M -3.9 -1.34 L -3.9 -1.84 " stroke="#191919" stroke-width="0.35 px" style="stroke-width:0.35;stroke-miterlimit:4;stroke-dasharray:none;fill:none;fill-opacity:1;fill-rule: evenodd"/>
<path id="Shape2DView_nwe0061"  d="M -3.9 -3.55 L -3.9 -4.05 " stroke="#191919" stroke-width="0.35 px" style="stroke-width:0.35;stroke-miterlimit:4;stroke-dasharray:none;fill:none;fill-opacity:1;fill-rule: evenodd"/>
<path id="Shape2DView_nwe0062"  d="M 3.250000000000269 -5.000000000000269 L 3.248742441978916 -4.998742441978916 L 3.244985582436627 -4.994985582436628 L 3.2387766660619275 -4.988776666061928 L 3.2301937735807265 -4.9801937735807265 L 3.219344839845885 -4.969344839845885 L 3.206366296493816 -4.956366296493816 L 3.1914213562375 -4.9414213562375 L 3.1746979603719145 -4.9246979603719145 L 3.1564064153032105 -4.90640641530321 L 3.136776747823628 -4.886776747823628 L 3.116055812391122 -4.866055812391123 L 3.0945041867913226 -4.8445041867913226 L 3.0723928952206916 -4.822392895220691 L 3.05 -4.8 " stroke="#191919" stroke-width="0.35 px" style="stroke-width:0.35;stroke-miterlimit:4;stroke-dasharray:none;fill:none;fill-opacity:1;fill-rule: evenodd"/>
<path id="Shape2DView_nwe0063"  d="M 3.3 -3.55 L 3.3 -4.05 " stroke="#191919" stroke-width="0.35 px" style="stroke-width:0.35;stroke-miterlimit:4;stroke-dasharray:none;fill:none;fill-opacity:1;fill-rule: evenodd"/>
<path id="Shape2DView_nwe0064"  d="M 3.3 -1.34 L 3.3 -1.84 " stroke="#191919" stroke-width="0.35 px" style="stroke-width:0.35;stroke-miterlimit:4;stroke-dasharray:none;fill:none;fill-opacity:1;fill-rule: evenodd"/>
<path id="Shape2DView_nwe0065"  d="M 3.3 0.86 L 3.3 0.36 " stroke="#191919" stroke-width="0.35 px" style="stroke-width:0.35;stroke-miterlimit:4;stroke-dasharray:none;fill:none;fill-opacity:1;fill-rule: evenodd"/>
<path id="Shape2DView_nwe0066"  d="M 3.3 4.05 L 3.3 3.55 " stroke="#191919" stroke-width="0.35 px" style="stroke-width:0.35;stroke-miterlimit:4;stroke-dasharray:none;fill:none;fill-opacity:1;fill-rule: evenodd"/>
<path id="Shape2DView_nwe0067"  d="M 3.250000000000269 5.000000000000269 L 3.248742441978916 4.998742441978916 L 3.244985582436627 4.994985582436628 L 3.2387766660619275 4.988776666061928 L 3.2301937735807265 4.9801937735807265 L 3.219344839845885 4.969344839845885 L 3.206366296493816 4.956366296493816 L 3.1914213562375 4.9414213562375 L 3.1746979603719145 4.9246979603719145 L 3.1564064153032105 4.90640641530321 L 3.136776747823628 4.886776747823628 L 3.116055812391122 4.866055812391123 L 3.0945041867913226 4.8445041867913226 L 3.0723928952206916 4.822392895220691 L 3.05 4.8 " stroke="#191919" stroke-width="0.35 px" style="stroke-width:0.35;stroke-miterlimit:4;stroke-dasharray:none;fill:none;fill-opacity:1;fill-rule: evenodd"/>
<path id="Shape2DView_nwe0068"  d="M 3.9 -3.55 L 3.9 -4.05 " stroke="#191919" stroke-width="0.35 px" style="stroke-width:0.35;stroke-miterlimit:4;stroke-dasharray:none;fill:none;fill-opacity:1;fill-rule: evenodd"/>
<path id="Shape2DView_nwe0069"  d="M 3.9 -1.34 L 3.9 -1.84 " stroke="#191919" stroke-width="0.35 px" style="stroke-width:0.35;stroke-miterlimit:4;stroke-dasharray:none;fill:none;fill-opacity:1;fill-rule: evenodd"/>
<path id="Shape2DView_nwe0070"  d="M 3.9 0.86 L 3.9 0.36 " stroke="#191919" stroke-width="0.35 px" style="stroke-width:0.35;stroke-miterlimit:4;stroke-dasharray:none;fill:none;fill-opacity:1;fill-rule: evenodd"/>
<path id="Shape2DView_nwe0071"  d="M 3.9 4.05 L 3.9 3.55 " stroke="#191919" stroke-width="0.35 px" style="stroke-width:0.35;stroke-miterlimit:4;stroke-dasharray:none;fill:none;fill-opacity:1;fill-rule: evenodd"/>
<path id="Shape2DView_nwe0072"  d="M -1.7999999999999998 4.2 A 0.2 0.2 0 0 1 -1.8 3.8" stroke="#191919" stroke-width="0.35 px" style="stroke-width:0.35;stroke-miterlimit:4;stroke-dasharray:none;fill:none;fill-opacity:1;fill-rule: evenodd"/>
<path id="Shape2DView_nwe0073"  d="M 2.2 4.2 L -1.7999999999999998 4.200000000000003 " stroke="#191919" stroke-width="0.35 px" style="stroke-width:0.35;stroke-miterlimit:4;stroke-dasharray:none;fill:none;fill-opacity:1;fill-rule: evenodd"/>
<path id="Shape2DView_nwe0074"  d="M 2.2 3.8 A 0.2 0.2 0 0 1 2.2 4.2" stroke="#191919" stroke-width="0.35 px" style="stroke-width:0.35;stroke-miterlimit:4;stroke-dasharray:none;fill:none;fill-opacity:1;fill-rule: evenodd"/>
<path id="Shape2DView_nwe0075"  d="M -1.8 3.8 L 2.2 3.7999999999999976 " stroke="#191919" stroke-width="0.35 px" style="stroke-width:0.35;stroke-miterlimit:4;stroke-dasharray:none;fill:none;fill-opacity:1;fill-rule: evenodd"/>
<path id="Shape2DView_nwe0076"  d="M -3.05 4.8 L -3.050000000000005 -4.800000000000001 " stroke="#191919" stroke-width="0.35 px" style="stroke-width:0.35;stroke-miterlimit:4;stroke-dasharray:none;fill:none;fill-opacity:1;fill-rule: evenodd"/>
<path id="Shape2DView_nwe0077"  d="M -3.549998292576 4.05 L -3.549998292576 3.55 " stroke="#191919" stroke-width="0.35 px" style="stroke-width:0.35;stroke-miterlimit:4;stroke-dasharray:none;fill:none;fill-opacity:1;fill-rule: evenodd"/>
<path id="Shape2DView_nwe0078"  d="M -3.549998292576 0.86 L -3.549998292576 0.36 " stroke="#191919" stroke-width="0.35 px" style="stroke-width:0.35;stroke-miterlimit:4;stroke-dasharray:none;fill:none;fill-opacity:1;fill-rule: evenodd"/>
<path id="Shape2DView_nwe0079"  d="M -3.549998292576 -1.34 L -3.549998292576 -1.84 " stroke="#191919" stroke-width="0.35 px" style="stroke-width:0.35;stroke-miterlimit:4;stroke-dasharray:none;fill:none;fill-opacity:1;fill-rule: evenodd"/>
<path id="Shape2DView_nwe0080"  d="M -3.549998292576 -3.55 L -3.549998292576 -4.05 " stroke="#191919" stroke-width="0.35 px" style="stroke-width:0.35;stroke-miterlimit:4;stroke-dasharray:none;fill:none;fill-opacity:1;fill-rule: evenodd"/>
<path id="Shape2DView_nwe0081"  d="M -3.05 -4.8 L 3.05 -4.800000000000003 " stroke="#191919" stroke-width="0.35 px" style="stroke-width:0.35;stroke-miterlimit:4;stroke-dasharray:none;fill:none;fill-opacity:1;fill-rule: evenodd"/>
<path id="Shape2DView_nwe0082"  d="M 3.05 -4.8 L 3.050000000000005 4.800000000000001 " stroke="#191919" stroke-width="0.35 px" style="stroke-width:0.35;stroke-miterlimit:4;stroke-dasharray:none;fill:none;fill-opacity:1;fill-rule: evenodd"/>
<path id="Shape2DView_nwe0083"  d="M 3.549998292576 -3.55 L 3.549998292576 -4.05 " stroke="#191919" stroke-width="0.35 px" style="stroke-width:0.35;stroke-miterlimit:4;stroke-dasharray:none;fill:none;fill-opacity:1;fill-rule: evenodd"/>
<path id="Shape2DView_nwe0084"  d="M 3.549998292576 -1.34 L 3.549998292576 -1.84 " stroke="#191919" stroke-width="0.35 px" style="stroke-width:0.35;stroke-miterlimit:4;stroke-dasharray:none;fill:none;fill-opacity:1;fill-rule: evenodd"/>
<path id="Shape2DView_nwe0085"  d="M 3.549998292576 0.86 L 3.549998292576 0.36 " stroke="#191919" stroke-width="0.35 px" style="stroke-width:0.35;stroke-miterlimit:4;stroke-dasharray:none;fill:none;fill-opacity:1;fill-rule: evenodd"/>
<path id="Shape2DView_nwe0086"  d="M 3.549998292576 4.05 L 3.549998292576 3.55 " stroke="#191919" stroke-width="0.35 px" style="stroke-width:0.35;stroke-miterlimit:4;stroke-dasharray:none;fill:none;fill-opacity:1;fill-rule: evenodd"/>
<path id="Shape2DView_nwe0087"  d="M 3.05 4.8 L -3.05 4.800000000000003 " stroke="#191919" stroke-width="0.35 px" style="stroke-width:0.35;stroke-miterlimit:4;stroke-dasharray:none;fill:none;fill-opacity:1;fill-rule: evenodd"/>
<title>b'Shape2DView'</title>
</g>
<g id="Rectangle" transform="translate(3.978000,5.078000) scale(1,-1)">
<rect fill="#ff0000" id="origin" width="1" height="1" x="0" y="0" />
<title>b'Rectangle'</title>
</g>
</svg>