<?xml version="1.0"?>
<!DOCTYPE svg PUBLIC "-//W3C//DTD SVG 1.1//EN" "http://www.w3.org/Graphics/SVG/1.1/DTD/svg11.dtd">
<svg width="6.630000000000549mm" height="10.13000000000055mm" viewBox="0 0 6.630000000000549 10.13000000000055" xmlns="http://www.w3.org/2000/svg" version="1.1">
<g id="Shape2DView" transform="translate(3.065000,5.065000) scale(1,-1)">
<path id="Shape2DView_nwe0000"  d="M -1.8 3.8 L 2.2 3.7999999999999976 " stroke="#191919" stroke-width="0.35 px" style="stroke-width:0.35;stroke-miterlimit:4;stroke-dasharray:none;fill:none;fill-opacity:1;fill-rule: evenodd"/>
<path id="Shape2DView_nwe0001"  d="M 2.2 3.8 A 0.2 0.2 0 0 1 2.2 4.2" stroke="#191919" stroke-width="0.35 px" style="stroke-width:0.35;stroke-miterlimit:4;stroke-dasharray:none;fill:none;fill-opacity:1;fill-rule: evenodd"/>
<path id="Shape2DView_nwe0002"  d="M 2.2 4.2 L -1.7999999999999998 4.200000000000003 " stroke="#191919" stroke-width="0.35 px" style="stroke-width:0.35;stroke-miterlimit:4;stroke-dasharray:none;fill:none;fill-opacity:1;fill-rule: evenodd"/>
<path id="Shape2DView_nwe0003"  d="M -1.7999999999999998 4.2 A 0.2 0.2 0 0 1 -1.8 3.8" stroke="#191919" stroke-width="0.35 px" style="stroke-width:0.35;stroke-miterlimit:4;stroke-dasharray:none;fill:none;fill-opacity:1;fill-rule: evenodd"/>
<path id="Shape2DView_nwe0004"  d="M -3.0 5.0 L -3.0000000000000058 -5.0 " stroke="#191919" stroke-width="0.35 px" style="stroke-width:0.35;stroke-miterlimit:4;stroke-dasharray:none;fill:none;fill-opacity:1;fill-rule: evenodd"/>
<path id="Shape2DView_nwe0005"  d="M -3.000000000000269 -5.000000000000269 L -2.998742441978916 -4.998742441978916 L -2.994985582436627 -4.994985582436628 L -2.9887766660619275 -4.988776666061928 L -2.9801937735807265 -4.9801937735807265 L -2.969344839845885 -4.969344839845885 L -2.956366296493816 -4.956366296493816 L -2.9414213562375 -4.9414213562375 L -2.9246979603719145 -4.9246979603719145 L -2.9064064153032105 -4.90640641530321 L -2.886776747823628 -4.886776747823628 L -2.866055812391122 -4.866055812391123 L -2.8445041867913226 -4.8445041867913226 L -2.8223928952206916 -4.822392895220691 L -2.8 -4.8 " stroke="#191919" stroke-width="0.35 px" style="stroke-width:0.35;stroke-miterlimit:4;stroke-dasharray:none;fill:none;fill-opacity:1;fill-rule: evenodd"/>
<path id="Shape2DView_nwe0006"  d="M -3.000000000000269 5.000000000000269 L -2.998742441978916 4.998742441978916 L -2.994985582436627 4.994985582436628 L -2.9887766660619275 4.988776666061928 L -2.9801937735807265 4.9801937735807265 L -2.969344839845885 4.969344839845885 L -2.956366296493816 4.956366296493816 L -2.9414213562375 4.9414213562375 L -2.9246979603719145 4.9246979603719145 L -2.9064064153032105 4.90640641530321 L -2.886776747823628 4.886776747823628 L -2.866055812391122 4.866055812391123 L -2.8445041867913226 4.8445041867913226 L -2.8223928952206916 4.822392895220692 L -2.8 4.8 " stroke="#191919" stroke-width="0.35 px" style="stroke-width:0.35;stroke-miterlimit:4;stroke-dasharray:none;fill:none;fill-opacity:1;fill-rule: evenodd"/>
<path id="Shape2DView_nwe0007"  d="M 3.5 5.0 L -3.0 5.0000000000000036 " stroke="#191919" stroke-width="0.35 px" style="stroke-width:0.35;stroke-miterlimit:4;stroke-dasharray:none;fill:none;fill-opacity:1;fill-rule: evenodd"/>
<path id="Shape2DView_nwe0008"  d="M 3.500000000000269 5.000000000000269 L 3.498742441978916 4.998742441978916 L 3.494985582436627 4.994985582436628 L 3.4887766660619275 4.988776666061928 L 3.4801937735807265 4.9801937735807265 L 3.469344839845885 4.969344839845885 L 3.456366296493816 4.956366296493816 L 3.4414213562375 4.9414213562375 L 3.4246979603719145 4.9246979603719145 L 3.4064064153032105 4.90640641530321 L 3.386776747823628 4.886776747823628 L 3.366055812391122 4.866055812391123 L 3.3445041867913226 4.8445041867913226 L 3.3223928952206916 4.822392895220691 L 3.3 4.8 " stroke="#191919" stroke-width="0.35 px" style="stroke-width:0.35;stroke-miterlimit:4;stroke-dasharray:none;fill:none;fill-opacity:1;fill-rule: evenodd"/>
<path id="Shape2DView_nwe0009"  d="M -3.0 -5.0 L 3.5 -5.0000000000000036 " stroke="#191919" stroke-width="0.35 px" style="stroke-width:0.35;stroke-miterlimit:4;stroke-dasharray:none;fill:none;fill-opacity:1;fill-rule: evenodd"/>
<path id="Shape2DView_nwe0010"  d="M 3.500000000000269 -5.000000000000269 L 3.498742441978916 -4.998742441978916 L 3.494985582436627 -4.994985582436628 L 3.4887766660619275 -4.988776666061928 L 3.4801937735807265 -4.9801937735807265 L 3.469344839845885 -4.969344839845885 L 3.456366296493816 -4.956366296493816 L 3.4414213562375 -4.9414213562375 L 3.4246979603719145 -4.9246979603719145 L 3.4064064153032105 -4.90640641530321 L 3.386776747823628 -4.886776747823628 L 3.366055812391122 -4.866055812391123 L 3.3445041867913226 -4.8445041867913226 L 3.3223928952206916 -4.822392895220691 L 3.3 -4.8 " stroke="#191919" stroke-width="0.35 px" style="stroke-width:0.35;stroke-miterlimit:4;stroke-dasharray:none;fill:none;fill-opacity:1;fill-rule: evenodd"/>
<path id="Shape2DView_nwe0011"  d="M 3.5 -5.0 L 3.5000000000000058 5.0 " stroke="#191919" stroke-width="0.35 px" style="stroke-width:0.35;stroke-miterlimit:4;stroke-dasharray:none;fill:none;fill-opacity:1;fill-rule: evenodd"/>
<path id="Shape2DView_nwe0012"  d="M -2.8 4.8 L -2.800000000000005 -4.800000000000001 " stroke="#191919" stroke-width="0.35 px" style="stroke-width:0.35;stroke-miterlimit:4;stroke-dasharray:none;fill:none;fill-opacity:1;fill-rule: evenodd"/>
<path id="Shape2DView_nwe0013"  d="M 3.3 4.8 L -2.8 4.800000000000003 " stroke="#191919" stroke-width="0.35 px" style="stroke-width:0.35;stroke-miterlimit:4;stroke-dasharray:none;fill:none;fill-opacity:1;fill-rule: evenodd"/>
<path id="Shape2DView_nwe0014"  d="M 3.3 -4.8 L 3.300000000000005 4.800000000000001 " stroke="#191919" stroke-width="0.35 px" style="stroke-width:0.35;stroke-miterlimit:4;stroke-dasharray:none;fill:none;fill-opacity:1;fill-rule: evenodd"/>
<path id="Shape2DView_nwe0015"  d="M -2.8 -4.8 L 3.3 -4.800000000000003 " stroke="#191919" stroke-width="0.35 px" style="stroke-width:0.35;stroke-miterlimit:4;stroke-dasharray:none;fill:none;fill-opacity:1;fill-rule: evenodd"/>
<title>b'Shape2DView'</title>
</g>
<g id="Rectangle" transform="translate(3.065000,5.065000) scale(1,-1)">
<rect fill="#ff0000" id="origin" width="1" height="1" x="0" y="0" />
<title>b'Rectangle'</title>
</g>
</svg>