<?xml version="1.0"?>
<!DOCTYPE svg PUBLIC "-//W3C//DTD SVG 1.1//EN" "http://www.w3.org/Graphics/SVG/1.1/DTD/svg11.dtd">
<svg width="30.028799999999997mm" height="9.7888mm" viewBox="0 0 30.028799999999997 9.7888" xmlns="http://www.w3.org/2000/svg" version="1.1">
<g id="Shape2DView" transform="translate(7.394400,1.494400) scale(1,-1)">
<path id="Shape2DView_nwe0000"  d="M 22.34 1.2 L 22.33685610494662 1.2 L 22.327463956090913 1.2 L 22.311941665154183 1.2 L 22.29048443395121 1.2 L 22.26336209961414 1.2 L 22.230915741234014 1.2 L 22.193553390593273 1.2 L 22.151744900929366 1.2 L 22.106016038257668 1.2 L 22.05694186955878 1.2 L 22.005139530977583 1.2 L 21.95126046697816 1.2 L 21.895982238051655 1.2 L 21.84 1.2 " stroke="#191919" stroke-width="0.35 px" style="stroke-width:0.35;stroke-miterlimit:4;stroke-dasharray:none;fill:none;fill-opacity:1;fill-rule: evenodd"/>
<path id="Shape2DView_nwe0001"  d="M 21.84 1.2 L 18.04 1.2 " stroke="#191919" stroke-width="0.35 px" style="stroke-width:0.35;stroke-miterlimit:4;stroke-dasharray:none;fill:none;fill-opacity:1;fill-rule: evenodd"/>
<path id="Shape2DView_nwe0002"  d="M 18.04 1.2 L 17.984017761948344 1.2 L 17.92873953302184 1.2 L 17.874860469022416 1.2 L 17.82305813044122 1.2 L 17.77398396174233 1.2 L 17.728255099070633 1.2 L 17.686446609406726 1.2 L 17.649084258765985 1.2 L 17.616637900385857 1.2 L 17.58951556604879 1.2 L 17.568058334845816 1.2 L 17.552536043909086 1.2 L 17.54314389505338 1.2 L 17.54 1.2 " stroke="#191919" stroke-width="0.35 px" style="stroke-width:0.35;stroke-miterlimit:4;stroke-dasharray:none;fill:none;fill-opacity:1;fill-rule: evenodd"/>
<path id="Shape2DView_nwe0003"  d="M 17.54 1.2 L -2.3000000000000007 1.2 " stroke="#191919" stroke-width="0.35 px" style="stroke-width:0.35;stroke-miterlimit:4;stroke-dasharray:none;fill:none;fill-opacity:1;fill-rule: evenodd"/>
<path id="Shape2DView_nwe0004"  d="M -2.3 1.2 L -2.3031438950533785 1.2 L -2.312536043909088 1.2 L -2.328058334845816 1.2 L -2.3495155660487903 1.2 L -2.3766379003858575 1.2 L -2.4090842587659846 1.2 L -2.446446609406726 1.2 L -2.488255099070633 1.2 L -2.533983961742331 1.2 L -2.583058130441221 1.2 L -2.634860469022416 1.2 L -2.6887395330218427 1.2 L -2.7440177619483457 1.2 L -2.8 1.2 " stroke="#191919" stroke-width="0.35 px" style="stroke-width:0.35;stroke-miterlimit:4;stroke-dasharray:none;fill:none;fill-opacity:1;fill-rule: evenodd"/>
<path id="Shape2DView_nwe0005"  d="M -2.8 1.2 L -6.6 1.2 " stroke="#191919" stroke-width="0.35 px" style="stroke-width:0.35;stroke-miterlimit:4;stroke-dasharray:none;fill:none;fill-opacity:1;fill-rule: evenodd"/>
<path id="Shape2DView_nwe0006"  d="M -6.6 1.2 L -6.655982238051654 1.2 L -6.711260466978157 1.2 L -6.765139530977583 1.2 L -6.816941869558779 1.2 L -6.866016038257668 1.2 L -6.911744900929366 1.2 L -6.953553390593274 1.2 L -6.990915741234015 1.2 L -7.0233620996141415 1.2 L -7.050484433951209 1.2 L -7.071941665154183 1.2 L -7.087463956090912 1.2 L -7.096856104946621 1.2 L -7.1 1.2 " stroke="#191919" stroke-width="0.35 px" style="stroke-width:0.35;stroke-miterlimit:4;stroke-dasharray:none;fill:none;fill-opacity:1;fill-rule: evenodd"/>
<path id="Shape2DView_nwe0007"  d="M -7.1 1.2 L -7.1 -7.999999999999999 " stroke="#191919" stroke-width="0.35 px" style="stroke-width:0.35;stroke-miterlimit:4;stroke-dasharray:none;fill:none;fill-opacity:1;fill-rule: evenodd"/>
<path id="Shape2DView_nwe0008"  d="M 22.34 1.2 L 22.34 -7.999999999999999 " stroke="#191919" stroke-width="0.35 px" style="stroke-width:0.35;stroke-miterlimit:4;stroke-dasharray:none;fill:none;fill-opacity:1;fill-rule: evenodd"/>
<path id="Shape2DView_nwe0009"  d="M -6.6 -8.0 L -6.655982238051654 -8.0 L -6.711260466978157 -8.0 L -6.765139530977583 -8.0 L -6.816941869558779 -8.0 L -6.866016038257668 -8.0 L -6.911744900929366 -8.0 L -6.953553390593274 -8.0 L -6.990915741234015 -8.0 L -7.0233620996141415 -8.0 L -7.050484433951209 -8.0 L -7.071941665154183 -8.0 L -7.087463956090912 -8.0 L -7.096856104946621 -8.0 L -7.1 -8.0 " stroke="#191919" stroke-width="0.35 px" style="stroke-width:0.35;stroke-miterlimit:4;stroke-dasharray:none;fill:none;fill-opacity:1;fill-rule: evenodd"/>
<path id="Shape2DView_nwe0010"  d="M 22.34 -8.0 L 22.33685610494662 -8.0 L 22.327463956090913 -8.0 L 22.311941665154183 -8.0 L 22.29048443395121 -8.0 L 22.26336209961414 -8.0 L 22.230915741234014 -8.0 L 22.193553390593273 -8.0 L 22.151744900929366 -8.0 L 22.106016038257668 -8.0 L 22.05694186955878 -8.0 L 22.005139530977583 -8.0 L 21.95126046697816 -8.0 L 21.895982238051655 -8.0 L 21.84 -8.0 " stroke="#191919" stroke-width="0.35 px" style="stroke-width:0.35;stroke-miterlimit:4;stroke-dasharray:none;fill:none;fill-opacity:1;fill-rule: evenodd"/>
<path id="Shape2DView_nwe0011"  d="M -2.8 -8.0 L -6.6 -8.0 " stroke="#191919" stroke-width="0.35 px" style="stroke-width:0.35;stroke-miterlimit:4;stroke-dasharray:none;fill:none;fill-opacity:1;fill-rule: evenodd"/>
<path id="Shape2DView_nwe0012"  d="M 21.84 -8.0 L 18.04 -8.0 " stroke="#191919" stroke-width="0.35 px" style="stroke-width:0.35;stroke-miterlimit:4;stroke-dasharray:none;fill:none;fill-opacity:1;fill-rule: evenodd"/>
<path id="Shape2DView_nwe0013"  d="M -2.3 -8.0 L -2.3031438950533785 -8.0 L -2.312536043909088 -8.0 L -2.328058334845816 -8.0 L -2.3495155660487903 -8.0 L -2.3766379003858575 -8.0 L -2.4090842587659846 -8.0 L -2.446446609406726 -8.0 L -2.488255099070633 -8.0 L -2.533983961742331 -8.0 L -2.583058130441221 -8.0 L -2.634860469022416 -8.0 L -2.6887395330218427 -8.0 L -2.7440177619483457 -8.0 L -2.8 -8.0 " stroke="#191919" stroke-width="0.35 px" style="stroke-width:0.35;stroke-miterlimit:4;stroke-dasharray:none;fill:none;fill-opacity:1;fill-rule: evenodd"/>
<path id="Shape2DView_nwe0014"  d="M 18.04 -8.0 L 17.984017761948344 -8.0 L 17.92873953302184 -8.0 L 17.874860469022416 -8.0 L 17.82305813044122 -8.0 L 17.77398396174233 -8.0 L 17.728255099070633 -8.0 L 17.686446609406726 -8.0 L 17.649084258765985 -8.0 L 17.616637900385857 -8.0 L 17.58951556604879 -8.0 L 17.568058334845816 -8.0 L 17.552536043909086 -8.0 L 17.54314389505338 -8.0 L 17.54 -8.0 " stroke="#191919" stroke-width="0.35 px" style="stroke-width:0.35;stroke-miterlimit:4;stroke-dasharray:none;fill:none;fill-opacity:1;fill-rule: evenodd"/>
<path id="Shape2DView_nwe0015"  d="M -2.3 -5.1 L -2.3 -7.999999999999999 " stroke="#191919" stroke-width="0.35 px" style="stroke-width:0.35;stroke-miterlimit:4;stroke-dasharray:none;fill:none;fill-opacity:1;fill-rule: evenodd"/>
<path id="Shape2DView_nwe0016"  d="M -2.3 -4.5 L -2.3 -5.1 " stroke="#191919" stroke-width="0.35 px" style="stroke-width:0.35;stroke-miterlimit:4;stroke-dasharray:none;fill:none;fill-opacity:1;fill-rule: evenodd"/>
<path id="Shape2DView_nwe0017"  d="M -2.3 1.2 L -2.3 -4.5 " stroke="#191919" stroke-width="0.35 px" style="stroke-width:0.35;stroke-miterlimit:4;stroke-dasharray:none;fill:none;fill-opacity:1;fill-rule: evenodd"/>
<path id="Shape2DView_nwe0018"  d="M 17.54 1.2 L 17.54 -4.5 " stroke="#191919" stroke-width="0.35 px" style="stroke-width:0.35;stroke-miterlimit:4;stroke-dasharray:none;fill:none;fill-opacity:1;fill-rule: evenodd"/>
<path id="Shape2DView_nwe0019"  d="M 17.54 -4.5 L 17.54 -5.1 " stroke="#191919" stroke-width="0.35 px" style="stroke-width:0.35;stroke-miterlimit:4;stroke-dasharray:none;fill:none;fill-opacity:1;fill-rule: evenodd"/>
<path id="Shape2DView_nwe0020"  d="M 17.54 -5.1 L 17.54 -7.999999999999999 " stroke="#191919" stroke-width="0.35 px" style="stroke-width:0.35;stroke-miterlimit:4;stroke-dasharray:none;fill:none;fill-opacity:1;fill-rule: evenodd"/>
<path id="Shape2DView_nwe0021"  d="M 17.54 -8.0 L -2.3000000000000007 -8.0 " stroke="#191919" stroke-width="0.35 px" style="stroke-width:0.35;stroke-miterlimit:4;stroke-dasharray:none;fill:none;fill-opacity:1;fill-rule: evenodd"/>
<path id="Shape2DView_nwe0022"  d="M -2.3 -5.1 L 17.54 -5.1 " stroke="#191919" stroke-width="0.35 px" style="stroke-width:0.35;stroke-miterlimit:4;stroke-dasharray:none;fill:none;fill-opacity:1;fill-rule: evenodd"/>
<path id="Shape2DView_nwe0023"  d="M -2.3 -4.5 L 17.54 -4.5 " stroke="#191919" stroke-width="0.35 px" style="stroke-width:0.35;stroke-miterlimit:4;stroke-dasharray:none;fill:none;fill-opacity:1;fill-rule: evenodd"/>
<path id="Shape2DView_nwe0024"  d="M -6.6 1.2 L -6.6 -7.999999999999999 " stroke="#191919" stroke-width="0.35 px" style="stroke-width:0.35;stroke-miterlimit:4;stroke-dasharray:none;fill:none;fill-opacity:1;fill-rule: evenodd"/>
<path id="Shape2DView_nwe0025"  d="M 21.84 1.2 L 21.84 -7.999999999999999 " stroke="#191919" stroke-width="0.35 px" style="stroke-width:0.35;stroke-miterlimit:4;stroke-dasharray:none;fill:none;fill-opacity:1;fill-rule: evenodd"/>
<path id="Shape2DView_nwe0026"  d="M -2.8 1.2 L -2.8 -7.999999999999999 " stroke="#191919" stroke-width="0.35 px" style="stroke-width:0.35;stroke-miterlimit:4;stroke-dasharray:none;fill:none;fill-opacity:1;fill-rule: evenodd"/>
<path id="Shape2DView_nwe0027"  d="M 18.04 1.2 L 18.04 -7.999999999999999 " stroke="#191919" stroke-width="0.35 px" style="stroke-width:0.35;stroke-miterlimit:4;stroke-dasharray:none;fill:none;fill-opacity:1;fill-rule: evenodd"/>
<title>b'Shape2DView'</title>
</g>
<g id="Rectangle" transform="translate(7.394400,1.494400) scale(1,-1)">
<rect fill="#ff0000" id="origin" width="1" height="1" x="0" y="0" />
<title>b'Rectangle'</title>
</g>
</svg>