<?xml version="1.0"?>
<!DOCTYPE svg PUBLIC "-//W3C//DTD SVG 1.1//EN" "http://www.w3.org/Graphics/SVG/1.1/DTD/svg11.dtd">
<svg width="35.2104mm" height="9.8904mm" viewBox="0 0 35.2104 9.8904" xmlns="http://www.w3.org/2000/svg" version="1.1">
<g id="Shape2DView" transform="translate(7.445200,1.545200) scale(1,-1)">
<path id="Shape2DView_nwe0000"  d="M 27.42 1.2 L 27.41685610494662 1.2 L 27.407463956090915 1.2 L 27.391941665154185 1.2 L 27.370484433951212 1.2 L 27.343362099614144 1.2 L 27.310915741234016 1.2 L 27.273553390593275 1.2 L 27.231744900929368 1.2 L 27.18601603825767 1.2 L 27.136941869558783 1.2 L 27.085139530977585 1.2 L 27.03126046697816 1.2 L 26.975982238051657 1.2 L 26.92 1.2 " stroke="#191919" stroke-width="0.35 px" style="stroke-width:0.35;stroke-miterlimit:4;stroke-dasharray:none;fill:none;fill-opacity:1;fill-rule: evenodd"/>
<path id="Shape2DView_nwe0001"  d="M 26.92 1.2 L 23.12 1.2 " stroke="#191919" stroke-width="0.35 px" style="stroke-width:0.35;stroke-miterlimit:4;stroke-dasharray:none;fill:none;fill-opacity:1;fill-rule: evenodd"/>
<path id="Shape2DView_nwe0002"  d="M 23.12 1.2 L 23.064017761948346 1.2 L 23.008739533021842 1.2 L 22.954860469022417 1.2 L 22.90305813044122 1.2 L 22.853983961742333 1.2 L 22.808255099070635 1.2 L 22.766446609406728 1.2 L 22.729084258765987 1.2 L 22.69663790038586 1.2 L 22.66951556604879 1.2 L 22.648058334845818 1.2 L 22.632536043909088 1.2 L 22.62314389505338 1.2 L 22.62 1.2 " stroke="#191919" stroke-width="0.35 px" style="stroke-width:0.35;stroke-miterlimit:4;stroke-dasharray:none;fill:none;fill-opacity:1;fill-rule: evenodd"/>
<path id="Shape2DView_nwe0003"  d="M 22.62 1.2 L -2.3000000000000007 1.2 " stroke="#191919" stroke-width="0.35 px" style="stroke-width:0.35;stroke-miterlimit:4;stroke-dasharray:none;fill:none;fill-opacity:1;fill-rule: evenodd"/>
<path id="Shape2DView_nwe0004"  d="M -2.3 1.2 L -2.3031438950533785 1.2 L -2.312536043909088 1.2 L -2.328058334845816 1.2 L -2.3495155660487903 1.2 L -2.3766379003858575 1.2 L -2.4090842587659846 1.2 L -2.446446609406726 1.2 L -2.488255099070633 1.2 L -2.533983961742331 1.2 L -2.583058130441221 1.2 L -2.634860469022416 1.2 L -2.6887395330218427 1.2 L -2.7440177619483457 1.2 L -2.8 1.2 " stroke="#191919" stroke-width="0.35 px" style="stroke-width:0.35;stroke-miterlimit:4;stroke-dasharray:none;fill:none;fill-opacity:1;fill-rule: evenodd"/>
<path id="Shape2DView_nwe0005"  d="M -2.8 1.2 L -6.6 1.2 " stroke="#191919" stroke-width="0.35 px" style="stroke-width:0.35;stroke-miterlimit:4;stroke-dasharray:none;fill:none;fill-opacity:1;fill-rule: evenodd"/>
<path id="Shape2DView_nwe0006"  d="M -6.6 1.2 L -6.655982238051654 1.2 L -6.711260466978157 1.2 L -6.765139530977583 1.2 L -6.816941869558779 1.2 L -6.866016038257668 1.2 L -6.911744900929366 1.2 L -6.953553390593274 1.2 L -6.990915741234015 1.2 L -7.0233620996141415 1.2 L -7.050484433951209 1.2 L -7.071941665154183 1.2 L -7.087463956090912 1.2 L -7.096856104946621 1.2 L -7.1 1.2 " stroke="#191919" stroke-width="0.35 px" style="stroke-width:0.35;stroke-miterlimit:4;stroke-dasharray:none;fill:none;fill-opacity:1;fill-rule: evenodd"/>
<path id="Shape2DView_nwe0007"  d="M -7.1 1.2 L -7.1 -7.999999999999999 " stroke="#191919" stroke-width="0.35 px" style="stroke-width:0.35;stroke-miterlimit:4;stroke-dasharray:none;fill:none;fill-opacity:1;fill-rule: evenodd"/>
<path id="Shape2DView_nwe0008"  d="M 27.42 1.2 L 27.42 -7.999999999999999 " stroke="#191919" stroke-width="0.35 px" style="stroke-width:0.35;stroke-miterlimit:4;stroke-dasharray:none;fill:none;fill-opacity:1;fill-rule: evenodd"/>
<path id="Shape2DView_nwe0009"  d="M -6.6 -8.0 L -6.655982238051654 -8.0 L -6.711260466978157 -8.0 L -6.765139530977583 -8.0 L -6.816941869558779 -8.0 L -6.866016038257668 -8.0 L -6.911744900929366 -8.0 L -6.953553390593274 -8.0 L -6.990915741234015 -8.0 L -7.0233620996141415 -8.0 L -7.050484433951209 -8.0 L -7.071941665154183 -8.0 L -7.087463956090912 -8.0 L -7.096856104946621 -8.0 L -7.1 -8.0 " stroke="#191919" stroke-width="0.35 px" style="stroke-width:0.35;stroke-miterlimit:4;stroke-dasharray:none;fill:none;fill-opacity:1;fill-rule: evenodd"/>
<path id="Shape2DView_nwe0010"  d="M 27.42 -8.0 L 27.41685610494662 -8.0 L 27.407463956090915 -8.0 L 27.391941665154185 -8.0 L 27.370484433951212 -8.0 L 27.343362099614144 -8.0 L 27.310915741234016 -8.0 L 27.273553390593275 -8.0 L 27.231744900929368 -8.0 L 27.18601603825767 -8.0 L 27.136941869558783 -8.0 L 27.085139530977585 -8.0 L 27.03126046697816 -8.0 L 26.975982238051657 -8.0 L 26.92 -8.0 " stroke="#191919" stroke-width="0.35 px" style="stroke-width:0.35;stroke-miterlimit:4;stroke-dasharray:none;fill:none;fill-opacity:1;fill-rule: evenodd"/>
<path id="Shape2DView_nwe0011"  d="M -2.8 -8.0 L -6.6 -8.0 " stroke="#191919" stroke-width="0.35 px" style="stroke-width:0.35;stroke-miterlimit:4;stroke-dasharray:none;fill:none;fill-opacity:1;fill-rule: evenodd"/>
<path id="Shape2DView_nwe0012"  d="M 26.92 -8.0 L 23.12 -8.0 " stroke="#191919" stroke-width="0.35 px" style="stroke-width:0.35;stroke-miterlimit:4;stroke-dasharray:none;fill:none;fill-opacity:1;fill-rule: evenodd"/>
<path id="Shape2DView_nwe0013"  d="M -2.3 -8.0 L -2.3031438950533785 -8.0 L -2.312536043909088 -8.0 L -2.328058334845816 -8.0 L -2.3495155660487903 -8.0 L -2.3766379003858575 -8.0 L -2.4090842587659846 -8.0 L -2.446446609406726 -8.0 L -2.488255099070633 -8.0 L -2.533983961742331 -8.0 L -2.583058130441221 -8.0 L -2.634860469022416 -8.0 L -2.6887395330218427 -8.0 L -2.7440177619483457 -8.0 L -2.8 -8.0 " stroke="#191919" stroke-width="0.35 px" style="stroke-width:0.35;stroke-miterlimit:4;stroke-dasharray:none;fill:none;fill-opacity:1;fill-rule: evenodd"/>
<path id="Shape2DView_nwe0014"  d="M 23.12 -8.0 L 23.064017761948346 -8.0 L 23.008739533021842 -8.0 L 22.954860469022417 -8.0 L 22.90305813044122 -8.0 L 22.853983961742333 -8.0 L 22.808255099070635 -8.0 L 22.766446609406728 -8.0 L 22.729084258765987 -8.0 L 22.69663790038586 -8.0 L 22.66951556604879 -8.0 L 22.648058334845818 -8.0 L 22.632536043909088 -8.0 L 22.62314389505338 -8.0 L 22.62 -8.0 " stroke="#191919" stroke-width="0.35 px" style="stroke-width:0.35;stroke-miterlimit:4;stroke-dasharray:none;fill:none;fill-opacity:1;fill-rule: evenodd"/>
<path id="Shape2DView_nwe0015"  d="M -2.3 -5.1 L -2.3 -7.999999999999999 " stroke="#191919" stroke-width="0.35 px" style="stroke-width:0.35;stroke-miterlimit:4;stroke-dasharray:none;fill:none;fill-opacity:1;fill-rule: evenodd"/>
<path id="Shape2DView_nwe0016"  d="M -2.3 -4.5 L -2.3 -5.1 " stroke="#191919" stroke-width="0.35 px" style="stroke-width:0.35;stroke-miterlimit:4;stroke-dasharray:none;fill:none;fill-opacity:1;fill-rule: evenodd"/>
<path id="Shape2DView_nwe0017"  d="M -2.3 1.2 L -2.3 -4.5 " stroke="#191919" stroke-width="0.35 px" style="stroke-width:0.35;stroke-miterlimit:4;stroke-dasharray:none;fill:none;fill-opacity:1;fill-rule: evenodd"/>
<path id="Shape2DView_nwe0018"  d="M 22.62 1.2 L 22.62 -4.5 " stroke="#191919" stroke-width="0.35 px" style="stroke-width:0.35;stroke-miterlimit:4;stroke-dasharray:none;fill:none;fill-opacity:1;fill-rule: evenodd"/>
<path id="Shape2DView_nwe0019"  d="M 22.62 -4.5 L 22.62 -5.1 " stroke="#191919" stroke-width="0.35 px" style="stroke-width:0.35;stroke-miterlimit:4;stroke-dasharray:none;fill:none;fill-opacity:1;fill-rule: evenodd"/>
<path id="Shape2DView_nwe0020"  d="M 22.62 -5.1 L 22.62 -7.999999999999999 " stroke="#191919" stroke-width="0.35 px" style="stroke-width:0.35;stroke-miterlimit:4;stroke-dasharray:none;fill:none;fill-opacity:1;fill-rule: evenodd"/>
<path id="Shape2DView_nwe0021"  d="M 22.62 -8.0 L -2.3000000000000007 -8.0 " stroke="#191919" stroke-width="0.35 px" style="stroke-width:0.35;stroke-miterlimit:4;stroke-dasharray:none;fill:none;fill-opacity:1;fill-rule: evenodd"/>
<path id="Shape2DView_nwe0022"  d="M -2.3 -5.1 L 22.62 -5.1 " stroke="#191919" stroke-width="0.35 px" style="stroke-width:0.35;stroke-miterlimit:4;stroke-dasharray:none;fill:none;fill-opacity:1;fill-rule: evenodd"/>
<path id="Shape2DView_nwe0023"  d="M -2.3 -4.5 L 22.62 -4.5 " stroke="#191919" stroke-width="0.35 px" style="stroke-width:0.35;stroke-miterlimit:4;stroke-dasharray:none;fill:none;fill-opacity:1;fill-rule: evenodd"/>
<path id="Shape2DView_nwe0024"  d="M -6.6 1.2 L -6.6 -7.999999999999999 " stroke="#191919" stroke-width="0.35 px" style="stroke-width:0.35;stroke-miterlimit:4;stroke-dasharray:none;fill:none;fill-opacity:1;fill-rule: evenodd"/>
<path id="Shape2DView_nwe0025"  d="M 26.92 1.2 L 26.92 -7.999999999999999 " stroke="#191919" stroke-width="0.35 px" style="stroke-width:0.35;stroke-miterlimit:4;stroke-dasharray:none;fill:none;fill-opacity:1;fill-rule: evenodd"/>
<path id="Shape2DView_nwe0026"  d="M -2.8 1.2 L -2.8 -7.999999999999999 " stroke="#191919" stroke-width="0.35 px" style="stroke-width:0.35;stroke-miterlimit:4;stroke-dasharray:none;fill:none;fill-opacity:1;fill-rule: evenodd"/>
<path id="Shape2DView_nwe0027"  d="M 23.12 1.2 L 23.12 -7.999999999999999 " stroke="#191919" stroke-width="0.35 px" style="stroke-width:0.35;stroke-miterlimit:4;stroke-dasharray:none;fill:none;fill-opacity:1;fill-rule: evenodd"/>
<title>b'Shape2DView'</title>
</g>
<g id="Rectangle" transform="translate(7.445200,1.545200) scale(1,-1)">
<rect fill="#ff0000" id="origin" width="1" height="1" x="0" y="0" />
<title>b'Rectangle'</title>
</g>
</svg>