<?xml version="1.0"?>
<!DOCTYPE svg PUBLIC "-//W3C//DTD SVG 1.1//EN" "http://www.w3.org/Graphics/SVG/1.1/DTD/svg11.dtd">
<svg width="7.140000000000357mm" height="5.220000000000008mm" viewBox="0 0 7.140000000000357 5.220000000000008" xmlns="http://www.w3.org/2000/svg" version="1.1">
<g id="Shape2DView" transform="translate(3.570000,2.610000) scale(1,-1)">
<path id="Shape2DView_nwe0000"  d="M -3.5 2.24 L -3.5000000000000004 1.94 " stroke="#191919" stroke-width="0.35 px" style="stroke-width:0.35;stroke-miterlimit:4;stroke-dasharray:none;fill:none;fill-opacity:1;fill-rule: evenodd"/>
<path id="Shape2DView_nwe0001"  d="M -3.5 1.94 L -3.252512626585 1.692512626585 " stroke="#191919" stroke-width="0.35 px" style="stroke-width:0.35;stroke-miterlimit:4;stroke-dasharray:none;fill:none;fill-opacity:1;fill-rule: evenodd"/>
<path id="Shape2DView_nwe0002"  d="M -3.252512626585 1.692512626585 L -3.252512626585 1.187487373415 " stroke="#191919" stroke-width="0.35 px" style="stroke-width:0.35;stroke-miterlimit:4;stroke-dasharray:none;fill:none;fill-opacity:1;fill-rule: evenodd"/>
<path id="Shape2DView_nwe0003"  d="M -3.252512626585 1.187487373415 L -3.500000000000175 0.940000000000175 " stroke="#191919" stroke-width="0.35 px" style="stroke-width:0.35;stroke-miterlimit:4;stroke-dasharray:none;fill:none;fill-opacity:1;fill-rule: evenodd"/>
<path id="Shape2DView_nwe0004"  d="M -3.5 0.94 L -3.5 -0.94 " stroke="#191919" stroke-width="0.35 px" style="stroke-width:0.35;stroke-miterlimit:4;stroke-dasharray:none;fill:none;fill-opacity:1;fill-rule: evenodd"/>
<path id="Shape2DView_nwe0005"  d="M -3.5 -0.94 L -3.252512626584825 -1.1874873734148248 " stroke="#191919" stroke-width="0.35 px" style="stroke-width:0.35;stroke-miterlimit:4;stroke-dasharray:none;fill:none;fill-opacity:1;fill-rule: evenodd"/>
<path id="Shape2DView_nwe0006"  d="M -3.252512626585 -1.187487373415 L -3.252512626585 -1.692512626585 " stroke="#191919" stroke-width="0.35 px" style="stroke-width:0.35;stroke-miterlimit:4;stroke-dasharray:none;fill:none;fill-opacity:1;fill-rule: evenodd"/>
<path id="Shape2DView_nwe0007"  d="M -3.252512626585 -1.692512626585 L -3.5 -1.94 " stroke="#191919" stroke-width="0.35 px" style="stroke-width:0.35;stroke-miterlimit:4;stroke-dasharray:none;fill:none;fill-opacity:1;fill-rule: evenodd"/>
<path id="Shape2DView_nwe0008"  d="M -3.5 -1.94 L -3.5 -2.24 " stroke="#191919" stroke-width="0.35 px" style="stroke-width:0.35;stroke-miterlimit:4;stroke-dasharray:none;fill:none;fill-opacity:1;fill-rule: evenodd"/>
<path id="Shape2DView_nwe0009"  d="M -2.24 -2.54 L 2.24 -2.54 " stroke="#191919" stroke-width="0.35 px" style="stroke-width:0.35;stroke-miterlimit:4;stroke-dasharray:none;fill:none;fill-opacity:1;fill-rule: evenodd"/>
<path id="Shape2DView_nwe0010"  d="M 3.5 -1.94 L 3.4999999999999996 -2.24 " stroke="#191919" stroke-width="0.35 px" style="stroke-width:0.35;stroke-miterlimit:4;stroke-dasharray:none;fill:none;fill-opacity:1;fill-rule: evenodd"/>
<path id="Shape2DView_nwe0011"  d="M 3.252512626585 -1.692512626585 L 3.5 -1.94 " stroke="#191919" stroke-width="0.35 px" style="stroke-width:0.35;stroke-miterlimit:4;stroke-dasharray:none;fill:none;fill-opacity:1;fill-rule: evenodd"/>
<path id="Shape2DView_nwe0012"  d="M 3.252512626585 -1.187487373415 L 3.252512626585 -1.692512626585 " stroke="#191919" stroke-width="0.35 px" style="stroke-width:0.35;stroke-miterlimit:4;stroke-dasharray:none;fill:none;fill-opacity:1;fill-rule: evenodd"/>
<path id="Shape2DView_nwe0013"  d="M 3.5 -0.94 L 3.252512626584825 -1.1874873734148248 " stroke="#191919" stroke-width="0.35 px" style="stroke-width:0.35;stroke-miterlimit:4;stroke-dasharray:none;fill:none;fill-opacity:1;fill-rule: evenodd"/>
<path id="Shape2DView_nwe0014"  d="M 3.5 0.94 L 3.5 -0.94 " stroke="#191919" stroke-width="0.35 px" style="stroke-width:0.35;stroke-miterlimit:4;stroke-dasharray:none;fill:none;fill-opacity:1;fill-rule: evenodd"/>
<path id="Shape2DView_nwe0015"  d="M 3.252512626585 1.187487373415 L 3.500000000000175 0.940000000000175 " stroke="#191919" stroke-width="0.35 px" style="stroke-width:0.35;stroke-miterlimit:4;stroke-dasharray:none;fill:none;fill-opacity:1;fill-rule: evenodd"/>
<path id="Shape2DView_nwe0016"  d="M 3.252512626585 1.692512626585 L 3.252512626585 1.187487373415 " stroke="#191919" stroke-width="0.35 px" style="stroke-width:0.35;stroke-miterlimit:4;stroke-dasharray:none;fill:none;fill-opacity:1;fill-rule: evenodd"/>
<path id="Shape2DView_nwe0017"  d="M 3.5 1.94 L 3.252512626585 1.692512626585 " stroke="#191919" stroke-width="0.35 px" style="stroke-width:0.35;stroke-miterlimit:4;stroke-dasharray:none;fill:none;fill-opacity:1;fill-rule: evenodd"/>
<path id="Shape2DView_nwe0018"  d="M 3.5 2.24 L 3.5 1.94 " stroke="#191919" stroke-width="0.35 px" style="stroke-width:0.35;stroke-miterlimit:4;stroke-dasharray:none;fill:none;fill-opacity:1;fill-rule: evenodd"/>
<path id="Shape2DView_nwe0019"  d="M -2.24 2.54 L 2.24 2.54 " stroke="#191919" stroke-width="0.35 px" style="stroke-width:0.35;stroke-miterlimit:4;stroke-dasharray:none;fill:none;fill-opacity:1;fill-rule: evenodd"/>
<path id="Shape2DView_nwe0020"  d="M 2.84 2.54 L 3.2 2.54 " stroke="#191919" stroke-width="0.35 px" style="stroke-width:0.35;stroke-miterlimit:4;stroke-dasharray:none;fill:none;fill-opacity:1;fill-rule: evenodd"/>
<path id="Shape2DView_nwe0021"  d="M -3.5 2.24 L -3.399999999976 2.152701665385 " stroke="#191919" stroke-width="0.35 px" style="stroke-width:0.35;stroke-miterlimit:4;stroke-dasharray:none;fill:none;fill-opacity:1;fill-rule: evenodd"/>
<path id="Shape2DView_nwe0022"  d="M -3.4 1.981421356237 L -3.4111964476103056 1.976783635786411 L -3.422252093395582 1.9722042373613564 L -3.433027906195443 1.96774074955406 L -3.443388373911659 1.9634493033134743 L -3.4532032076514154 1.95938386606603 L -3.462348980185735 1.9555955630439352 L -3.4707106781184973 1.9521320343557176 L -3.478183148246629 1.9490368358842174 L -3.48467241992264 1.9463488915460898 L -3.4900968867900417 1.9441020038009686 L -3.494388333030627 1.942324428565923 L -3.4974927912179656 1.941038519880907 L -3.4993712209891035 1.9402604487937363 L -3.4999999999997775 1.9399999999997795 " stroke="#191919" stroke-width="0.35 px" style="stroke-width:0.35;stroke-miterlimit:4;stroke-dasharray:none;fill:none;fill-opacity:1;fill-rule: evenodd"/>
<path id="Shape2DView_nwe0023"  d="M -3.152512626585 1.733933982822 L -3.163709074195306 1.729296262371411 L -3.174764719980582 1.7247168639463564 L -3.1855405327804434 1.72025337613906 L -3.1959010004966593 1.7159619298984743 L -3.2057158342364156 1.71189649265103 L -3.214861606770735 1.7081081896289352 L -3.2232233047034975 1.7046446609407175 L -3.2306957748316294 1.7015494624692173 L -3.23718504650764 1.69886151813109 L -3.242609513375042 1.6966146303859686 L -3.246900959615627 1.6948370551509229 L -3.250005417802966 1.693551146465907 L -3.2518838475741036 1.6927730753787362 L -3.2525126265847777 1.6925126265847794 " stroke="#191919" stroke-width="0.35 px" style="stroke-width:0.35;stroke-miterlimit:4;stroke-dasharray:none;fill:none;fill-opacity:1;fill-rule: evenodd"/>
<path id="Shape2DView_nwe0024"  d="M -3.152512626585 1.146066017178 L -3.163709074195306 1.150703737628589 L -3.174764719980582 1.1552831360536435 L -3.1855405327804434 1.15974662386094 L -3.1959010004966593 1.1640380701015256 L -3.2057158342364156 1.1681035073489698 L -3.214861606770735 1.1718918103710647 L -3.2232233047034975 1.1753553390592824 L -3.2306957748316294 1.1784505375307825 L -3.23718504650764 1.18113848186891 L -3.242609513375042 1.1833853696140313 L -3.246900959615627 1.185162944849077 L -3.250005417802966 1.186448853534093 L -3.2518838475741036 1.1872269246212637 L -3.2525126265847777 1.1874873734152205 " stroke="#191919" stroke-width="0.35 px" style="stroke-width:0.35;stroke-miterlimit:4;stroke-dasharray:none;fill:none;fill-opacity:1;fill-rule: evenodd"/>
<path id="Shape2DView_nwe0025"  d="M -3.4 0.898578643763 L -3.4111964476103056 0.9032163642135889 L -3.422252093395582 0.9077957626386436 L -3.433027906195443 0.91225925044594 L -3.443388373911659 0.9165506966865257 L -3.4532032076514154 0.9206161339339699 L -3.462348980185735 0.9244044369560647 L -3.4707106781184973 0.9278679656442823 L -3.478183148246629 0.9309631641157825 L -3.48467241992264 0.9336511084539101 L -3.4900968867900417 0.9358979961990315 L -3.494388333030627 0.937675571434077 L -3.4974927912179656 0.938961480119093 L -3.4993712209891035 0.9397395512062637 L -3.4999999999997775 0.9400000000002205 " stroke="#191919" stroke-width="0.35 px" style="stroke-width:0.35;stroke-miterlimit:4;stroke-dasharray:none;fill:none;fill-opacity:1;fill-rule: evenodd"/>
<path id="Shape2DView_nwe0026"  d="M -3.4 -0.898578643763 L -3.4111964476103056 -0.9032163642135889 L -3.422252093395582 -0.9077957626386436 L -3.433027906195443 -0.91225925044594 L -3.443388373911659 -0.9165506966865257 L -3.4532032076514154 -0.9206161339339699 L -3.462348980185735 -0.9244044369560647 L -3.4707106781184973 -0.9278679656442823 L -3.478183148246629 -0.9309631641157825 L -3.48467241992264 -0.9336511084539101 L -3.4900968867900417 -0.9358979961990315 L -3.494388333030627 -0.937675571434077 L -3.4974927912179656 -0.938961480119093 L -3.4993712209891035 -0.9397395512062637 L -3.4999999999997775 -0.9400000000002205 " stroke="#191919" stroke-width="0.35 px" style="stroke-width:0.35;stroke-miterlimit:4;stroke-dasharray:none;fill:none;fill-opacity:1;fill-rule: evenodd"/>
<path id="Shape2DView_nwe0027"  d="M -3.152512626585 -1.146066017178 L -3.163709074195306 -1.150703737628589 L -3.174764719980582 -1.1552831360536435 L -3.1855405327804434 -1.15974662386094 L -3.1959010004966593 -1.1640380701015256 L -3.2057158342364156 -1.1681035073489698 L -3.214861606770735 -1.1718918103710647 L -3.2232233047034975 -1.1753553390592824 L -3.2306957748316294 -1.1784505375307825 L -3.23718504650764 -1.18113848186891 L -3.242609513375042 -1.1833853696140313 L -3.246900959615627 -1.185162944849077 L -3.250005417802966 -1.186448853534093 L -3.2518838475741036 -1.1872269246212637 L -3.2525126265847777 -1.1874873734152205 " stroke="#191919" stroke-width="0.35 px" style="stroke-width:0.35;stroke-miterlimit:4;stroke-dasharray:none;fill:none;fill-opacity:1;fill-rule: evenodd"/>
<path id="Shape2DView_nwe0028"  d="M -3.152512626585 -1.733933982822 L -3.163709074195306 -1.729296262371411 L -3.174764719980582 -1.7247168639463564 L -3.1855405327804434 -1.72025337613906 L -3.1959010004966593 -1.7159619298984743 L -3.2057158342364156 -1.71189649265103 L -3.214861606770735 -1.7081081896289352 L -3.2232233047034975 -1.7046446609407175 L -3.2306957748316294 -1.7015494624692173 L -3.23718504650764 -1.69886151813109 L -3.242609513375042 -1.6966146303859686 L -3.246900959615627 -1.6948370551509229 L -3.250005417802966 -1.693551146465907 L -3.2518838475741036 -1.6927730753787362 L -3.2525126265847777 -1.6925126265847794 " stroke="#191919" stroke-width="0.35 px" style="stroke-width:0.35;stroke-miterlimit:4;stroke-dasharray:none;fill:none;fill-opacity:1;fill-rule: evenodd"/>
<path id="Shape2DView_nwe0029"  d="M -3.4 -1.981421356237 L -3.4111964476103056 -1.976783635786411 L -3.422252093395582 -1.9722042373613564 L -3.433027906195443 -1.96774074955406 L -3.443388373911659 -1.9634493033134743 L -3.4532032076514154 -1.95938386606603 L -3.462348980185735 -1.9555955630439352 L -3.4707106781184973 -1.9521320343557176 L -3.478183148246629 -1.9490368358842174 L -3.48467241992264 -1.9463488915460898 L -3.4900968867900417 -1.9441020038009686 L -3.494388333030627 -1.942324428565923 L -3.4974927912179656 -1.941038519880907 L -3.4993712209891035 -1.9402604487937363 L -3.4999999999997775 -1.9399999999997795 " stroke="#191919" stroke-width="0.35 px" style="stroke-width:0.35;stroke-miterlimit:4;stroke-dasharray:none;fill:none;fill-opacity:1;fill-rule: evenodd"/>
<path id="Shape2DView_nwe0030"  d="M -3.399999999975 -2.152701665386 L -3.5 -2.24 " stroke="#191919" stroke-width="0.35 px" style="stroke-width:0.35;stroke-miterlimit:4;stroke-dasharray:none;fill:none;fill-opacity:1;fill-rule: evenodd"/>
<path id="Shape2DView_nwe0031"  d="M -3.112701665373 -2.440000000024 L -3.2 -2.54 " stroke="#191919" stroke-width="0.35 px" style="stroke-width:0.35;stroke-miterlimit:4;stroke-dasharray:none;fill:none;fill-opacity:1;fill-rule: evenodd"/>
<path id="Shape2DView_nwe0032"  d="M -3.2 -2.54 A 0.3 0.3 0 0 1 -3.5 -2.24" stroke="#191919" stroke-width="0.35 px" style="stroke-width:0.35;stroke-miterlimit:4;stroke-dasharray:none;fill:none;fill-opacity:1;fill-rule: evenodd"/>
<path id="Shape2DView_nwe0033"  d="M -2.84 -2.54 L -3.2 -2.54 " stroke="#191919" stroke-width="0.35 px" style="stroke-width:0.35;stroke-miterlimit:4;stroke-dasharray:none;fill:none;fill-opacity:1;fill-rule: evenodd"/>
<path id="Shape2DView_nwe0034"  d="M -2.152701665375 -2.440000000017 L -2.24 -2.54 " stroke="#191919" stroke-width="0.35 px" style="stroke-width:0.35;stroke-miterlimit:4;stroke-dasharray:none;fill:none;fill-opacity:1;fill-rule: evenodd"/>
<path id="Shape2DView_nwe0035"  d="M 2.152701665386 -2.439999999974 L 2.24 -2.54 " stroke="#191919" stroke-width="0.35 px" style="stroke-width:0.35;stroke-miterlimit:4;stroke-dasharray:none;fill:none;fill-opacity:1;fill-rule: evenodd"/>
<path id="Shape2DView_nwe0036"  d="M 3.2 -2.54 L 2.84 -2.54 " stroke="#191919" stroke-width="0.35 px" style="stroke-width:0.35;stroke-miterlimit:4;stroke-dasharray:none;fill:none;fill-opacity:1;fill-rule: evenodd"/>
<path id="Shape2DView_nwe0037"  d="M 3.400000000024 -2.152701665373 L 3.5 -2.24 " stroke="#191919" stroke-width="0.35 px" style="stroke-width:0.35;stroke-miterlimit:4;stroke-dasharray:none;fill:none;fill-opacity:1;fill-rule: evenodd"/>
<path id="Shape2DView_nwe0038"  d="M 3.112701665386 -2.439999999975 L 3.2 -2.54 " stroke="#191919" stroke-width="0.35 px" style="stroke-width:0.35;stroke-miterlimit:4;stroke-dasharray:none;fill:none;fill-opacity:1;fill-rule: evenodd"/>
<path id="Shape2DView_nwe0039"  d="M 3.5 -2.24 A 0.3 0.3 0 0 1 3.2 -2.54" stroke="#191919" stroke-width="0.35 px" style="stroke-width:0.35;stroke-miterlimit:4;stroke-dasharray:none;fill:none;fill-opacity:1;fill-rule: evenodd"/>
<path id="Shape2DView_nwe0040"  d="M 3.4 -1.981421356237 L 3.4111964476103056 -1.976783635786411 L 3.422252093395582 -1.9722042373613564 L 3.433027906195443 -1.96774074955406 L 3.443388373911659 -1.9634493033134743 L 3.4532032076514154 -1.95938386606603 L 3.462348980185735 -1.9555955630439352 L 3.4707106781184973 -1.9521320343557176 L 3.478183148246629 -1.9490368358842174 L 3.48467241992264 -1.94634889154609 L 3.4900968867900417 -1.9441020038009686 L 3.494388333030627 -1.942324428565923 L 3.4974927912179656 -1.941038519880907 L 3.4993712209891035 -1.9402604487937363 L 3.4999999999997775 -1.9399999999997795 " stroke="#191919" stroke-width="0.35 px" style="stroke-width:0.35;stroke-miterlimit:4;stroke-dasharray:none;fill:none;fill-opacity:1;fill-rule: evenodd"/>
<path id="Shape2DView_nwe0041"  d="M 3.152512626585 -1.733933982822 L 3.163709074195306 -1.729296262371411 L 3.174764719980582 -1.7247168639463564 L 3.1855405327804434 -1.72025337613906 L 3.1959010004966593 -1.7159619298984743 L 3.2057158342364156 -1.71189649265103 L 3.214861606770735 -1.7081081896289352 L 3.2232233047034975 -1.7046446609407175 L 3.2306957748316294 -1.7015494624692173 L 3.23718504650764 -1.69886151813109 L 3.242609513375042 -1.6966146303859686 L 3.246900959615627 -1.6948370551509229 L 3.250005417802966 -1.693551146465907 L 3.2518838475741036 -1.6927730753787362 L 3.2525126265847777 -1.6925126265847794 " stroke="#191919" stroke-width="0.35 px" style="stroke-width:0.35;stroke-miterlimit:4;stroke-dasharray:none;fill:none;fill-opacity:1;fill-rule: evenodd"/>
<path id="Shape2DView_nwe0042"  d="M 3.152512626585 -1.146066017178 L 3.163709074195306 -1.150703737628589 L 3.174764719980582 -1.1552831360536435 L 3.1855405327804434 -1.15974662386094 L 3.1959010004966593 -1.1640380701015256 L 3.2057158342364156 -1.1681035073489698 L 3.214861606770735 -1.1718918103710647 L 3.2232233047034975 -1.1753553390592824 L 3.2306957748316294 -1.1784505375307825 L 3.23718504650764 -1.18113848186891 L 3.242609513375042 -1.1833853696140313 L 3.246900959615627 -1.185162944849077 L 3.250005417802966 -1.186448853534093 L 3.2518838475741036 -1.1872269246212637 L 3.2525126265847777 -1.1874873734152205 " stroke="#191919" stroke-width="0.35 px" style="stroke-width:0.35;stroke-miterlimit:4;stroke-dasharray:none;fill:none;fill-opacity:1;fill-rule: evenodd"/>
<path id="Shape2DView_nwe0043"  d="M 3.4 -0.898578643763 L 3.4111964476103056 -0.9032163642135889 L 3.422252093395582 -0.9077957626386435 L 3.433027906195443 -0.91225925044594 L 3.443388373911659 -0.9165506966865257 L 3.4532032076514154 -0.9206161339339699 L 3.462348980185735 -0.9244044369560647 L 3.4707106781184973 -0.9278679656442823 L 3.478183148246629 -0.9309631641157825 L 3.48467241992264 -0.9336511084539101 L 3.4900968867900417 -0.9358979961990315 L 3.494388333030627 -0.937675571434077 L 3.4974927912179656 -0.938961480119093 L 3.4993712209891035 -0.9397395512062637 L 3.4999999999997775 -0.9400000000002205 " stroke="#191919" stroke-width="0.35 px" style="stroke-width:0.35;stroke-miterlimit:4;stroke-dasharray:none;fill:none;fill-opacity:1;fill-rule: evenodd"/>
<path id="Shape2DView_nwe0044"  d="M 3.4 0.898578643763 L 3.4111964476103056 0.9032163642135889 L 3.422252093395582 0.9077957626386435 L 3.433027906195443 0.91225925044594 L 3.443388373911659 0.9165506966865257 L 3.4532032076514154 0.9206161339339699 L 3.462348980185735 0.9244044369560647 L 3.4707106781184973 0.9278679656442823 L 3.478183148246629 0.9309631641157825 L 3.48467241992264 0.9336511084539101 L 3.4900968867900417 0.9358979961990315 L 3.494388333030627 0.937675571434077 L 3.4974927912179656 0.938961480119093 L 3.4993712209891035 0.9397395512062637 L 3.4999999999997775 0.9400000000002205 " stroke="#191919" stroke-width="0.35 px" style="stroke-width:0.35;stroke-miterlimit:4;stroke-dasharray:none;fill:none;fill-opacity:1;fill-rule: evenodd"/>
<path id="Shape2DView_nwe0045"  d="M 3.152512626585 1.146066017178 L 3.163709074195306 1.150703737628589 L 3.174764719980582 1.1552831360536435 L 3.1855405327804434 1.15974662386094 L 3.1959010004966593 1.1640380701015256 L 3.2057158342364156 1.1681035073489698 L 3.214861606770735 1.1718918103710647 L 3.2232233047034975 1.1753553390592824 L 3.2306957748316294 1.1784505375307825 L 3.23718504650764 1.18113848186891 L 3.242609513375042 1.1833853696140313 L 3.246900959615627 1.185162944849077 L 3.250005417802966 1.186448853534093 L 3.2518838475741036 1.1872269246212637 L 3.2525126265847777 1.1874873734152205 " stroke="#191919" stroke-width="0.35 px" style="stroke-width:0.35;stroke-miterlimit:4;stroke-dasharray:none;fill:none;fill-opacity:1;fill-rule: evenodd"/>
<path id="Shape2DView_nwe0046"  d="M 3.152512626585 1.733933982822 L 3.163709074195306 1.729296262371411 L 3.174764719980582 1.7247168639463564 L 3.1855405327804434 1.72025337613906 L 3.1959010004966593 1.7159619298984743 L 3.2057158342364156 1.71189649265103 L 3.214861606770735 1.7081081896289352 L 3.2232233047034975 1.7046446609407175 L 3.2306957748316294 1.7015494624692173 L 3.23718504650764 1.69886151813109 L 3.242609513375042 1.6966146303859686 L 3.246900959615627 1.6948370551509229 L 3.250005417802966 1.693551146465907 L 3.2518838475741036 1.6927730753787362 L 3.2525126265847777 1.6925126265847794 " stroke="#191919" stroke-width="0.35 px" style="stroke-width:0.35;stroke-miterlimit:4;stroke-dasharray:none;fill:none;fill-opacity:1;fill-rule: evenodd"/>
<path id="Shape2DView_nwe0047"  d="M 3.4 1.981421356237 L 3.4111964476103056 1.976783635786411 L 3.422252093395582 1.9722042373613564 L 3.433027906195443 1.96774074955406 L 3.443388373911659 1.9634493033134743 L 3.4532032076514154 1.95938386606603 L 3.462348980185735 1.9555955630439352 L 3.4707106781184973 1.9521320343557176 L 3.478183148246629 1.9490368358842174 L 3.48467241992264 1.94634889154609 L 3.4900968867900417 1.9441020038009686 L 3.494388333030627 1.942324428565923 L 3.4974927912179656 1.941038519880907 L 3.4993712209891035 1.9402604487937363 L 3.4999999999997775 1.9399999999997795 " stroke="#191919" stroke-width="0.35 px" style="stroke-width:0.35;stroke-miterlimit:4;stroke-dasharray:none;fill:none;fill-opacity:1;fill-rule: evenodd"/>
<path id="Shape2DView_nwe0048"  d="M 3.399999999975 2.152701665386 L 3.5 2.24 " stroke="#191919" stroke-width="0.35 px" style="stroke-width:0.35;stroke-miterlimit:4;stroke-dasharray:none;fill:none;fill-opacity:1;fill-rule: evenodd"/>
<path id="Shape2DView_nwe0049"  d="M 3.112701665373 2.440000000024 L 3.2 2.54 " stroke="#191919" stroke-width="0.35 px" style="stroke-width:0.35;stroke-miterlimit:4;stroke-dasharray:none;fill:none;fill-opacity:1;fill-rule: evenodd"/>
<path id="Shape2DView_nwe0050"  d="M 3.2 2.54 A 0.3 0.3 0 0 1 3.5 2.24" stroke="#191919" stroke-width="0.35 px" style="stroke-width:0.35;stroke-miterlimit:4;stroke-dasharray:none;fill:none;fill-opacity:1;fill-rule: evenodd"/>
<path id="Shape2DView_nwe0051"  d="M 2.152701665375 2.440000000017 L 2.24 2.54 " stroke="#191919" stroke-width="0.35 px" style="stroke-width:0.35;stroke-miterlimit:4;stroke-dasharray:none;fill:none;fill-opacity:1;fill-rule: evenodd"/>
<path id="Shape2DView_nwe0052"  d="M -2.152701665379 2.44 L -2.24 2.54 " stroke="#191919" stroke-width="0.35 px" style="stroke-width:0.35;stroke-miterlimit:4;stroke-dasharray:none;fill:none;fill-opacity:1;fill-rule: evenodd"/>
<path id="Shape2DView_nwe0053"  d="M -3.2 2.54 L -2.84 2.54 " stroke="#191919" stroke-width="0.35 px" style="stroke-width:0.35;stroke-miterlimit:4;stroke-dasharray:none;fill:none;fill-opacity:1;fill-rule: evenodd"/>
<path id="Shape2DView_nwe0054"  d="M -3.2 2.54 L -3.1127016653729997 2.440000000025 " stroke="#191919" stroke-width="0.35 px" style="stroke-width:0.35;stroke-miterlimit:4;stroke-dasharray:none;fill:none;fill-opacity:1;fill-rule: evenodd"/>
<path id="Shape2DView_nwe0055"  d="M -3.5 2.24 A 0.3 0.3 0 0 1 -3.2 2.54" stroke="#191919" stroke-width="0.35 px" style="stroke-width:0.35;stroke-miterlimit:4;stroke-dasharray:none;fill:none;fill-opacity:1;fill-rule: evenodd"/>
<path id="Shape2DView_nwe0056"  d="M 2.927298334621 2.44 L 2.84 2.54 " stroke="#191919" stroke-width="0.35 px" style="stroke-width:0.35;stroke-miterlimit:4;stroke-dasharray:none;fill:none;fill-opacity:1;fill-rule: evenodd"/>
<path id="Shape2DView_nwe0057"  d="M 2.24 2.5399999999999996 A 0.3 0.3 0 0 1 2.36 2.3" stroke="#191919" stroke-width="0.35 px" style="stroke-width:0.35;stroke-miterlimit:4;stroke-dasharray:none;fill:none;fill-opacity:1;fill-rule: evenodd"/>
<path id="Shape2DView_nwe0058"  d="M 2.7199999999999998 2.3 A 0.3 0.3 0 0 1 2.84 2.54" stroke="#191919" stroke-width="0.35 px" style="stroke-width:0.35;stroke-miterlimit:4;stroke-dasharray:none;fill:none;fill-opacity:1;fill-rule: evenodd"/>
<path id="Shape2DView_nwe0059"  d="M -2.927298334614 -2.439999999974 L -2.84 -2.54 " stroke="#191919" stroke-width="0.35 px" style="stroke-width:0.35;stroke-miterlimit:4;stroke-dasharray:none;fill:none;fill-opacity:1;fill-rule: evenodd"/>
<path id="Shape2DView_nwe0060"  d="M 2.927298334625 -2.440000000017 L 2.84 -2.54 " stroke="#191919" stroke-width="0.35 px" style="stroke-width:0.35;stroke-miterlimit:4;stroke-dasharray:none;fill:none;fill-opacity:1;fill-rule: evenodd"/>
<path id="Shape2DView_nwe0061"  d="M 2.84 -2.54 A 0.3 0.3 0 0 1 2.72 -2.3" stroke="#191919" stroke-width="0.35 px" style="stroke-width:0.35;stroke-miterlimit:4;stroke-dasharray:none;fill:none;fill-opacity:1;fill-rule: evenodd"/>
<path id="Shape2DView_nwe0062"  d="M 2.3600000000000003 -2.3 A 0.3 0.3 0 0 1 2.24 -2.54" stroke="#191919" stroke-width="0.35 px" style="stroke-width:0.35;stroke-miterlimit:4;stroke-dasharray:none;fill:none;fill-opacity:1;fill-rule: evenodd"/>
<path id="Shape2DView_nwe0063"  d="M -2.24 -2.54 A 0.3 0.3 0 0 1 -2.36 -2.3" stroke="#191919" stroke-width="0.35 px" style="stroke-width:0.35;stroke-miterlimit:4;stroke-dasharray:none;fill:none;fill-opacity:1;fill-rule: evenodd"/>
<path id="Shape2DView_nwe0064"  d="M -2.7199999999999998 -2.3 A 0.3 0.3 0 0 1 -2.84 -2.54" stroke="#191919" stroke-width="0.35 px" style="stroke-width:0.35;stroke-miterlimit:4;stroke-dasharray:none;fill:none;fill-opacity:1;fill-rule: evenodd"/>
<path id="Shape2DView_nwe0065"  d="M -2.84 2.54 L -2.927298334625 2.440000000017 " stroke="#191919" stroke-width="0.35 px" style="stroke-width:0.35;stroke-miterlimit:4;stroke-dasharray:none;fill:none;fill-opacity:1;fill-rule: evenodd"/>
<path id="Shape2DView_nwe0066"  d="M -2.84 2.5399999999999996 A 0.3 0.3 0 0 1 -2.72 2.3" stroke="#191919" stroke-width="0.35 px" style="stroke-width:0.35;stroke-miterlimit:4;stroke-dasharray:none;fill:none;fill-opacity:1;fill-rule: evenodd"/>
<path id="Shape2DView_nwe0067"  d="M -2.3600000000000003 2.3 A 0.3 0.3 0 0 1 -2.24 2.54" stroke="#191919" stroke-width="0.35 px" style="stroke-width:0.35;stroke-miterlimit:4;stroke-dasharray:none;fill:none;fill-opacity:1;fill-rule: evenodd"/>
<path id="Shape2DView_nwe0068"  d="M -3.05 -2.0 A 0.3 0.3 0 0 1 -2.75 -2.3" stroke="#191919" stroke-width="0.35 px" style="stroke-width:0.35;stroke-miterlimit:4;stroke-dasharray:none;fill:none;fill-opacity:1;fill-rule: evenodd"/>
<path id="Shape2DView_nwe0069"  d="M -3.05 -2.0 L -3.05 2.0 " stroke="#191919" stroke-width="0.35 px" style="stroke-width:0.35;stroke-miterlimit:4;stroke-dasharray:none;fill:none;fill-opacity:1;fill-rule: evenodd"/>
<path id="Shape2DView_nwe0070"  d="M -2.75 2.3 A 0.3 0.3 0 0 1 -3.05 2" stroke="#191919" stroke-width="0.35 px" style="stroke-width:0.35;stroke-miterlimit:4;stroke-dasharray:none;fill:none;fill-opacity:1;fill-rule: evenodd"/>
<path id="Shape2DView_nwe0071"  d="M 2.36 -2.3 L -2.3599999999999994 -2.3 " stroke="#191919" stroke-width="0.35 px" style="stroke-width:0.35;stroke-miterlimit:4;stroke-dasharray:none;fill:none;fill-opacity:1;fill-rule: evenodd"/>
<path id="Shape2DView_nwe0072"  d="M 3.05 2.0 A 0.3 0.3 0 0 1 2.75 2.3" stroke="#191919" stroke-width="0.35 px" style="stroke-width:0.35;stroke-miterlimit:4;stroke-dasharray:none;fill:none;fill-opacity:1;fill-rule: evenodd"/>
<path id="Shape2DView_nwe0073"  d="M 3.05 2.0 L 3.05 -2.0 " stroke="#191919" stroke-width="0.35 px" style="stroke-width:0.35;stroke-miterlimit:4;stroke-dasharray:none;fill:none;fill-opacity:1;fill-rule: evenodd"/>
<path id="Shape2DView_nwe0074"  d="M 2.75 -2.3 A 0.3 0.3 0 0 1 3.05 -2" stroke="#191919" stroke-width="0.35 px" style="stroke-width:0.35;stroke-miterlimit:4;stroke-dasharray:none;fill:none;fill-opacity:1;fill-rule: evenodd"/>
<path id="Shape2DView_nwe0075"  d="M -2.36 2.3 L 2.3599999999999994 2.3 " stroke="#191919" stroke-width="0.35 px" style="stroke-width:0.35;stroke-miterlimit:4;stroke-dasharray:none;fill:none;fill-opacity:1;fill-rule: evenodd"/>
<path id="Shape2DView_nwe0076"  d="M 2.7200000000000006 2.3 L 2.75 2.3 " stroke="#191919" stroke-width="0.35 px" style="stroke-width:0.35;stroke-miterlimit:4;stroke-dasharray:none;fill:none;fill-opacity:1;fill-rule: evenodd"/>
<path id="Shape2DView_nwe0077"  d="M 2.36 2.3000000000000003 A 0.3 0.3 0 0 1 2.36687 2.295" stroke="#191919" stroke-width="0.35 px" style="stroke-width:0.35;stroke-miterlimit:4;stroke-dasharray:none;fill:none;fill-opacity:1;fill-rule: evenodd"/>
<path id="Shape2DView_nwe0078"  d="M 2.7131328969319357 2.2950000000000905 A 0.3 0.3 0 0 1 2.72 2.3" stroke="#191919" stroke-width="0.35 px" style="stroke-width:0.35;stroke-miterlimit:4;stroke-dasharray:none;fill:none;fill-opacity:1;fill-rule: evenodd"/>
<path id="Shape2DView_nwe0079"  d="M 2.366867103068 2.295 Q 2.5402573605100693 2.190190717321107 2.713132896932 2.295 " stroke="#191919" stroke-width="0.35 px" style="stroke-width:0.35;stroke-miterlimit:4;stroke-dasharray:none;fill:none;fill-opacity:1;fill-rule: evenodd"/>
<path id="Shape2DView_nwe0080"  d="M -2.7200000000000006 -2.3 L -2.75 -2.3 " stroke="#191919" stroke-width="0.35 px" style="stroke-width:0.35;stroke-miterlimit:4;stroke-dasharray:none;fill:none;fill-opacity:1;fill-rule: evenodd"/>
<path id="Shape2DView_nwe0081"  d="M -2.72 2.3000000000000003 A 0.3 0.3 0 0 1 -2.71313 2.295" stroke="#191919" stroke-width="0.35 px" style="stroke-width:0.35;stroke-miterlimit:4;stroke-dasharray:none;fill:none;fill-opacity:1;fill-rule: evenodd"/>
<path id="Shape2DView_nwe0082"  d="M -2.713132896931936 -2.2950000000000905 A 0.3 0.3 0 0 1 -2.72 -2.3" stroke="#191919" stroke-width="0.35 px" style="stroke-width:0.35;stroke-miterlimit:4;stroke-dasharray:none;fill:none;fill-opacity:1;fill-rule: evenodd"/>
<path id="Shape2DView_nwe0083"  d="M -2.75 2.3 L -2.72 2.3 " stroke="#191919" stroke-width="0.35 px" style="stroke-width:0.35;stroke-miterlimit:4;stroke-dasharray:none;fill:none;fill-opacity:1;fill-rule: evenodd"/>
<path id="Shape2DView_nwe0084"  d="M 2.72 -2.3 A 0.3 0.3 0 0 1 2.71313 -2.295" stroke="#191919" stroke-width="0.35 px" style="stroke-width:0.35;stroke-miterlimit:4;stroke-dasharray:none;fill:none;fill-opacity:1;fill-rule: evenodd"/>
<path id="Shape2DView_nwe0085"  d="M 2.366867103068064 -2.2950000000000905 A 0.3 0.3 0 0 1 2.36 -2.3" stroke="#191919" stroke-width="0.35 px" style="stroke-width:0.35;stroke-miterlimit:4;stroke-dasharray:none;fill:none;fill-opacity:1;fill-rule: evenodd"/>
<path id="Shape2DView_nwe0086"  d="M 2.713132896932 -2.295 Q 2.5397429641234535 -2.190190717129447 2.366867103068 -2.295 " stroke="#191919" stroke-width="0.35 px" style="stroke-width:0.35;stroke-miterlimit:4;stroke-dasharray:none;fill:none;fill-opacity:1;fill-rule: evenodd"/>
<path id="Shape2DView_nwe0087"  d="M 2.75 -2.3 L 2.72 -2.3 " stroke="#191919" stroke-width="0.35 px" style="stroke-width:0.35;stroke-miterlimit:4;stroke-dasharray:none;fill:none;fill-opacity:1;fill-rule: evenodd"/>
<path id="Shape2DView_nwe0088"  d="M -2.36 -2.3 A 0.3 0.3 0 0 1 -2.36687 -2.295" stroke="#191919" stroke-width="0.35 px" style="stroke-width:0.35;stroke-miterlimit:4;stroke-dasharray:none;fill:none;fill-opacity:1;fill-rule: evenodd"/>
<path id="Shape2DView_nwe0089"  d="M -2.366867103068 -2.295 Q -2.5402570356032736 -2.1901907107353935 -2.713132896932 -2.295 " stroke="#191919" stroke-width="0.35 px" style="stroke-width:0.35;stroke-miterlimit:4;stroke-dasharray:none;fill:none;fill-opacity:1;fill-rule: evenodd"/>
<path id="Shape2DView_nwe0090"  d="M -2.3668671030680644 2.2950000000000905 A 0.3 0.3 0 0 1 -2.36 2.3" stroke="#191919" stroke-width="0.35 px" style="stroke-width:0.35;stroke-miterlimit:4;stroke-dasharray:none;fill:none;fill-opacity:1;fill-rule: evenodd"/>
<path id="Shape2DView_nwe0091"  d="M -2.713132896932 2.295 Q -2.53974318098658 2.1901907161250156 -2.366867103068 2.295 " stroke="#191919" stroke-width="0.35 px" style="stroke-width:0.35;stroke-miterlimit:4;stroke-dasharray:none;fill:none;fill-opacity:1;fill-rule: evenodd"/>
<path id="Shape2DView_nwe0092"  d="M -2.75 2.15 L 2.75 2.15 " stroke="#191919" stroke-width="0.35 px" style="stroke-width:0.35;stroke-miterlimit:4;stroke-dasharray:none;fill:none;fill-opacity:1;fill-rule: evenodd"/>
<path id="Shape2DView_nwe0093"  d="M 2.75 -2.15 L -2.75 -2.15 " stroke="#191919" stroke-width="0.35 px" style="stroke-width:0.35;stroke-miterlimit:4;stroke-dasharray:none;fill:none;fill-opacity:1;fill-rule: evenodd"/>
<path id="Shape2DView_nwe0094"  d="M -2.9 -2.0 L -2.9 2.0 " stroke="#191919" stroke-width="0.35 px" style="stroke-width:0.35;stroke-miterlimit:4;stroke-dasharray:none;fill:none;fill-opacity:1;fill-rule: evenodd"/>
<path id="Shape2DView_nwe0095"  d="M 2.9 2.0 L 2.9 -2.0 " stroke="#191919" stroke-width="0.35 px" style="stroke-width:0.35;stroke-miterlimit:4;stroke-dasharray:none;fill:none;fill-opacity:1;fill-rule: evenodd"/>
<path id="Shape2DView_nwe0096"  d="M -2.75 -2.15 A 0.15 0.15 0 0 0 -2.9 -2" stroke="#191919" stroke-width="0.35 px" style="stroke-width:0.35;stroke-miterlimit:4;stroke-dasharray:none;fill:none;fill-opacity:1;fill-rule: evenodd"/>
<path id="Shape2DView_nwe0097"  d="M -2.9 2.0 A 0.15 0.15 0 0 0 -2.75 2.15" stroke="#191919" stroke-width="0.35 px" style="stroke-width:0.35;stroke-miterlimit:4;stroke-dasharray:none;fill:none;fill-opacity:1;fill-rule: evenodd"/>
<path id="Shape2DView_nwe0098"  d="M 2.9 -2.0 A 0.15 0.15 0 0 0 2.75 -2.15" stroke="#191919" stroke-width="0.35 px" style="stroke-width:0.35;stroke-miterlimit:4;stroke-dasharray:none;fill:none;fill-opacity:1;fill-rule: evenodd"/>
<path id="Shape2DView_nwe0099"  d="M 2.75 2.15 A 0.15 0.15 0 0 0 2.9 2" stroke="#191919" stroke-width="0.35 px" style="stroke-width:0.35;stroke-miterlimit:4;stroke-dasharray:none;fill:none;fill-opacity:1;fill-rule: evenodd"/>
<path id="Shape2DView_nwe0100"  d="M -2.720710678119 1.869289321881 L -2.579289321881 2.010710678119 " stroke="#191919" stroke-width="0.35 px" style="stroke-width:0.35;stroke-miterlimit:4;stroke-dasharray:none;fill:none;fill-opacity:1;fill-rule: evenodd"/>
<path id="Shape2DView_nwe0101"  d="M -2.579289321881 -2.010710678119 L -2.720710678119 -1.8692893218809998 " stroke="#191919" stroke-width="0.35 px" style="stroke-width:0.35;stroke-miterlimit:4;stroke-dasharray:none;fill:none;fill-opacity:1;fill-rule: evenodd"/>
<path id="Shape2DView_nwe0102"  d="M 2.720710678119 -1.869289321881 L 2.579289321881 -2.010710678119 " stroke="#191919" stroke-width="0.35 px" style="stroke-width:0.35;stroke-miterlimit:4;stroke-dasharray:none;fill:none;fill-opacity:1;fill-rule: evenodd"/>
<path id="Shape2DView_nwe0103"  d="M 2.579289321881 2.010710678119 L 2.720710678119 1.8692893218809998 " stroke="#191919" stroke-width="0.35 px" style="stroke-width:0.35;stroke-miterlimit:4;stroke-dasharray:none;fill:none;fill-opacity:1;fill-rule: evenodd"/>
<path id="Shape2DView_nwe0105"  d="M -2.508578643763 2.04 L 2.508578643763 2.04 " stroke="#191919" stroke-width="0.35 px" style="stroke-width:0.35;stroke-miterlimit:4;stroke-dasharray:none;fill:none;fill-opacity:1;fill-rule: evenodd"/>
<path id="Shape2DView_nwe0107"  d="M 2.75 1.798578643763 L 2.75 -1.798578643763 " stroke="#191919" stroke-width="0.35 px" style="stroke-width:0.35;stroke-miterlimit:4;stroke-dasharray:none;fill:none;fill-opacity:1;fill-rule: evenodd"/>
<path id="Shape2DView_nwe0109"  d="M 2.508578643763 -2.04 L -2.508578643763 -2.04 " stroke="#191919" stroke-width="0.35 px" style="stroke-width:0.35;stroke-miterlimit:4;stroke-dasharray:none;fill:none;fill-opacity:1;fill-rule: evenodd"/>
<path id="Shape2DView_nwe0111"  d="M -2.75 -1.798578643763 L -2.75 1.798578643763 " stroke="#191919" stroke-width="0.35 px" style="stroke-width:0.35;stroke-miterlimit:4;stroke-dasharray:none;fill:none;fill-opacity:1;fill-rule: evenodd"/>
<path id="Shape2DView_nwe0112"  d="M -2.508578643763 2.04 A 0.1 0.1 0 0 1 -2.57929 2.01071" stroke="#191919" stroke-width="0.35 px" style="stroke-width:0.35;stroke-miterlimit:4;stroke-dasharray:none;fill:none;fill-opacity:1;fill-rule: evenodd"/>
<path id="Shape2DView_nwe0113"  d="M 2.579289321881655 2.0107106781186546 A 0.1 0.1 0 0 1 2.50858 2.04" stroke="#191919" stroke-width="0.35 px" style="stroke-width:0.35;stroke-miterlimit:4;stroke-dasharray:none;fill:none;fill-opacity:1;fill-rule: evenodd"/>
<path id="Shape2DView_nwe0114"  d="M 2.75 1.798578643763 A 0.1 0.1 0 0 1 2.72071 1.86929" stroke="#191919" stroke-width="0.35 px" style="stroke-width:0.35;stroke-miterlimit:4;stroke-dasharray:none;fill:none;fill-opacity:1;fill-rule: evenodd"/>
<path id="Shape2DView_nwe0115"  d="M 2.7207106781186545 -1.8692893218816549 A 0.1 0.1 0 0 1 2.75 -1.79858" stroke="#191919" stroke-width="0.35 px" style="stroke-width:0.35;stroke-miterlimit:4;stroke-dasharray:none;fill:none;fill-opacity:1;fill-rule: evenodd"/>
<path id="Shape2DView_nwe0116"  d="M 2.508578643763 -2.04 A 0.1 0.1 0 0 1 2.57929 -2.01071" stroke="#191919" stroke-width="0.35 px" style="stroke-width:0.35;stroke-miterlimit:4;stroke-dasharray:none;fill:none;fill-opacity:1;fill-rule: evenodd"/>
<path id="Shape2DView_nwe0117"  d="M -2.579289321881655 -2.0107106781186546 A 0.1 0.1 0 0 1 -2.50858 -2.04" stroke="#191919" stroke-width="0.35 px" style="stroke-width:0.35;stroke-miterlimit:4;stroke-dasharray:none;fill:none;fill-opacity:1;fill-rule: evenodd"/>
<path id="Shape2DView_nwe0118"  d="M -2.7207106781186545 -1.8692893218816549 A 0.1 0.1 0 0 0 -2.75 -1.79858" stroke="#191919" stroke-width="0.35 px" style="stroke-width:0.35;stroke-miterlimit:4;stroke-dasharray:none;fill:none;fill-opacity:1;fill-rule: evenodd"/>
<path id="Shape2DView_nwe0119"  d="M -2.75 1.798578643763 A 0.1 0.1 0 0 0 -2.72071 1.86929" stroke="#191919" stroke-width="0.35 px" style="stroke-width:0.35;stroke-miterlimit:4;stroke-dasharray:none;fill:none;fill-opacity:1;fill-rule: evenodd"/>
<circle cx="-2.097255" cy="-1.445698" r="0.3" stroke="#191919" stroke-width="0.35 px" style="stroke-width:0.35;stroke-miterlimit:4;stroke-dasharray:none;fill:none"/>
<path id="Shape2DView_nwe0127"  d="M -3.4 2.152701665379 L -3.4000000000000004 1.981421356237 " stroke="#191919" stroke-width="0.35 px" style="stroke-width:0.35;stroke-miterlimit:4;stroke-dasharray:none;fill:none;fill-opacity:1;fill-rule: evenodd"/>
<path id="Shape2DView_nwe0128"  d="M -3.3999999999995 1.9814213562375 L -3.1525126265845 1.7339339828225 " stroke="#191919" stroke-width="0.35 px" style="stroke-width:0.35;stroke-miterlimit:4;stroke-dasharray:none;fill:none;fill-opacity:1;fill-rule: evenodd"/>
<path id="Shape2DView_nwe0129"  d="M -3.152512626585 1.733933982822 L -3.152512626585 1.146066017178 " stroke="#191919" stroke-width="0.35 px" style="stroke-width:0.35;stroke-miterlimit:4;stroke-dasharray:none;fill:none;fill-opacity:1;fill-rule: evenodd"/>
<path id="Shape2DView_nwe0130"  d="M -3.152512626584979 1.1460660171779793 L -3.400000000000154 0.8985786437631543 " stroke="#191919" stroke-width="0.35 px" style="stroke-width:0.35;stroke-miterlimit:4;stroke-dasharray:none;fill:none;fill-opacity:1;fill-rule: evenodd"/>
<path id="Shape2DView_nwe0131"  d="M -3.4 0.898578643763 L -3.4 -0.8985786437629999 " stroke="#191919" stroke-width="0.35 px" style="stroke-width:0.35;stroke-miterlimit:4;stroke-dasharray:none;fill:none;fill-opacity:1;fill-rule: evenodd"/>
<path id="Shape2DView_nwe0132"  d="M -3.399999999999479 -0.8985786437624793 L -3.152512626584304 -1.1460660171773043 " stroke="#191919" stroke-width="0.35 px" style="stroke-width:0.35;stroke-miterlimit:4;stroke-dasharray:none;fill:none;fill-opacity:1;fill-rule: evenodd"/>
<path id="Shape2DView_nwe0133"  d="M -3.152512626585 -1.146066017178 L -3.152512626585 -1.733933982822 " stroke="#191919" stroke-width="0.35 px" style="stroke-width:0.35;stroke-miterlimit:4;stroke-dasharray:none;fill:none;fill-opacity:1;fill-rule: evenodd"/>
<path id="Shape2DView_nwe0134"  d="M -3.152512626585 -1.733933982822 L -3.4 -1.981421356237 " stroke="#191919" stroke-width="0.35 px" style="stroke-width:0.35;stroke-miterlimit:4;stroke-dasharray:none;fill:none;fill-opacity:1;fill-rule: evenodd"/>
<path id="Shape2DView_nwe0135"  d="M -3.4 -1.981421356237 L -3.4 -2.152701665379 " stroke="#191919" stroke-width="0.35 px" style="stroke-width:0.35;stroke-miterlimit:4;stroke-dasharray:none;fill:none;fill-opacity:1;fill-rule: evenodd"/>
<path id="Shape2DView_nwe0136"  d="M -3.1127016653792423 -2.4400000000000626 A 0.4 0.4 0 0 1 -3.4 -2.1527" stroke="#191919" stroke-width="0.35 px" style="stroke-width:0.35;stroke-miterlimit:4;stroke-dasharray:none;fill:none;fill-opacity:1;fill-rule: evenodd"/>
<path id="Shape2DView_nwe0139"  d="M -2.152701665379 -2.44 L 2.1527016653790003 -2.44 " stroke="#191919" stroke-width="0.35 px" style="stroke-width:0.35;stroke-miterlimit:4;stroke-dasharray:none;fill:none;fill-opacity:1;fill-rule: evenodd"/>
<path id="Shape2DView_nwe0142"  d="M 3.4000000000000625 -2.1527016653792423 A 0.4 0.4 0 0 1 3.1127 -2.44" stroke="#191919" stroke-width="0.35 px" style="stroke-width:0.35;stroke-miterlimit:4;stroke-dasharray:none;fill:none;fill-opacity:1;fill-rule: evenodd"/>
<path id="Shape2DView_nwe0143"  d="M 3.4 -1.981421356237 L 3.3999999999999995 -2.152701665379 " stroke="#191919" stroke-width="0.35 px" style="stroke-width:0.35;stroke-miterlimit:4;stroke-dasharray:none;fill:none;fill-opacity:1;fill-rule: evenodd"/>
<path id="Shape2DView_nwe0144"  d="M 3.152512626585 -1.733933982822 L 3.4 -1.981421356237 " stroke="#191919" stroke-width="0.35 px" style="stroke-width:0.35;stroke-miterlimit:4;stroke-dasharray:none;fill:none;fill-opacity:1;fill-rule: evenodd"/>
<path id="Shape2DView_nwe0145"  d="M 3.152512626585 -1.146066017178 L 3.152512626585 -1.733933982822 " stroke="#191919" stroke-width="0.35 px" style="stroke-width:0.35;stroke-miterlimit:4;stroke-dasharray:none;fill:none;fill-opacity:1;fill-rule: evenodd"/>
<path id="Shape2DView_nwe0146"  d="M 3.399999999999479 -0.8985786437624793 L 3.152512626584304 -1.1460660171773043 " stroke="#191919" stroke-width="0.35 px" style="stroke-width:0.35;stroke-miterlimit:4;stroke-dasharray:none;fill:none;fill-opacity:1;fill-rule: evenodd"/>
<path id="Shape2DView_nwe0147"  d="M 3.4 0.898578643763 L 3.4 -0.8985786437629999 " stroke="#191919" stroke-width="0.35 px" style="stroke-width:0.35;stroke-miterlimit:4;stroke-dasharray:none;fill:none;fill-opacity:1;fill-rule: evenodd"/>
<path id="Shape2DView_nwe0148"  d="M 3.152512626584979 1.1460660171779793 L 3.400000000000154 0.8985786437631543 " stroke="#191919" stroke-width="0.35 px" style="stroke-width:0.35;stroke-miterlimit:4;stroke-dasharray:none;fill:none;fill-opacity:1;fill-rule: evenodd"/>
<path id="Shape2DView_nwe0149"  d="M 3.152512626585 1.733933982822 L 3.152512626585 1.146066017178 " stroke="#191919" stroke-width="0.35 px" style="stroke-width:0.35;stroke-miterlimit:4;stroke-dasharray:none;fill:none;fill-opacity:1;fill-rule: evenodd"/>
<path id="Shape2DView_nwe0150"  d="M 3.3999999999995 1.9814213562375 L 3.1525126265845 1.7339339828225 " stroke="#191919" stroke-width="0.35 px" style="stroke-width:0.35;stroke-miterlimit:4;stroke-dasharray:none;fill:none;fill-opacity:1;fill-rule: evenodd"/>
<path id="Shape2DView_nwe0151"  d="M 3.4 2.152701665379 L 3.4 1.981421356237 " stroke="#191919" stroke-width="0.35 px" style="stroke-width:0.35;stroke-miterlimit:4;stroke-dasharray:none;fill:none;fill-opacity:1;fill-rule: evenodd"/>
<path id="Shape2DView_nwe0152"  d="M 3.1127016653792423 2.4400000000000626 A 0.4 0.4 0 0 1 3.4 2.1527" stroke="#191919" stroke-width="0.35 px" style="stroke-width:0.35;stroke-miterlimit:4;stroke-dasharray:none;fill:none;fill-opacity:1;fill-rule: evenodd"/>
<path id="Shape2DView_nwe0153"  d="M -2.152701665379 2.44 L 2.1527016653790003 2.44 " stroke="#191919" stroke-width="0.35 px" style="stroke-width:0.35;stroke-miterlimit:4;stroke-dasharray:none;fill:none;fill-opacity:1;fill-rule: evenodd"/>
<path id="Shape2DView_nwe0156"  d="M -3.4000000000000625 2.1527016653792423 A 0.4 0.4 0 0 1 -3.1127 2.44" stroke="#191919" stroke-width="0.35 px" style="stroke-width:0.35;stroke-miterlimit:4;stroke-dasharray:none;fill:none;fill-opacity:1;fill-rule: evenodd"/>
<path id="Shape2DView_nwe0157"  d="M 2.1527016653792423 2.4400000000000626 A 0.4 0.4 0 0 1 2.22 2.3" stroke="#191919" stroke-width="0.35 px" style="stroke-width:0.35;stroke-miterlimit:4;stroke-dasharray:none;fill:none;fill-opacity:1;fill-rule: evenodd"/>
<path id="Shape2DView_nwe0158"  d="M 2.847198093550019 2.283817777120984 A 0.4 0.4 0 0 1 2.9273 2.44" stroke="#191919" stroke-width="0.35 px" style="stroke-width:0.35;stroke-miterlimit:4;stroke-dasharray:none;fill:none;fill-opacity:1;fill-rule: evenodd"/>
<path id="Shape2DView_nwe0159"  d="M 2.927298334621 2.44 L 3.112701665379 2.44 " stroke="#191919" stroke-width="0.35 px" style="stroke-width:0.35;stroke-miterlimit:4;stroke-dasharray:none;fill:none;fill-opacity:1;fill-rule: evenodd"/>
<path id="Shape2DView_nwe0160"  d="M -3.112701665379 2.44 L -2.927298334621 2.44 " stroke="#191919" stroke-width="0.35 px" style="stroke-width:0.35;stroke-miterlimit:4;stroke-dasharray:none;fill:none;fill-opacity:1;fill-rule: evenodd"/>
<path id="Shape2DView_nwe0161"  d="M -2.9272983346207577 2.4400000000000626 A 0.4 0.4 0 0 1 -2.8472 2.28382" stroke="#191919" stroke-width="0.35 px" style="stroke-width:0.35;stroke-miterlimit:4;stroke-dasharray:none;fill:none;fill-opacity:1;fill-rule: evenodd"/>
<path id="Shape2DView_nwe0162"  d="M -2.847198093550019 -2.283817777120984 A 0.4 0.4 0 0 1 -2.9273 -2.44" stroke="#191919" stroke-width="0.35 px" style="stroke-width:0.35;stroke-miterlimit:4;stroke-dasharray:none;fill:none;fill-opacity:1;fill-rule: evenodd"/>
<path id="Shape2DView_nwe0163"  d="M -2.927298334621 -2.44 L -3.112701665379 -2.44 " stroke="#191919" stroke-width="0.35 px" style="stroke-width:0.35;stroke-miterlimit:4;stroke-dasharray:none;fill:none;fill-opacity:1;fill-rule: evenodd"/>
<path id="Shape2DView_nwe0164"  d="M 2.9272983346207577 -2.4400000000000626 A 0.4 0.4 0 0 1 2.8472 -2.28382" stroke="#191919" stroke-width="0.35 px" style="stroke-width:0.35;stroke-miterlimit:4;stroke-dasharray:none;fill:none;fill-opacity:1;fill-rule: evenodd"/>
<path id="Shape2DView_nwe0165"  d="M 2.22 -2.3 A 0.4 0.4 0 0 1 2.1527 -2.44" stroke="#191919" stroke-width="0.35 px" style="stroke-width:0.35;stroke-miterlimit:4;stroke-dasharray:none;fill:none;fill-opacity:1;fill-rule: evenodd"/>
<path id="Shape2DView_nwe0166"  d="M -2.1527016653792423 -2.4400000000000626 A 0.4 0.4 0 0 1 -2.22 -2.3" stroke="#191919" stroke-width="0.35 px" style="stroke-width:0.35;stroke-miterlimit:4;stroke-dasharray:none;fill:none;fill-opacity:1;fill-rule: evenodd"/>
<path id="Shape2DView_nwe0167"  d="M 3.112701665379 -2.44 L 2.927298334621 -2.44 " stroke="#191919" stroke-width="0.35 px" style="stroke-width:0.35;stroke-miterlimit:4;stroke-dasharray:none;fill:none;fill-opacity:1;fill-rule: evenodd"/>
<path id="Shape2DView_nwe0168"  d="M -2.22 2.3 A 0.4 0.4 0 0 1 -2.1527 2.44" stroke="#191919" stroke-width="0.35 px" style="stroke-width:0.35;stroke-miterlimit:4;stroke-dasharray:none;fill:none;fill-opacity:1;fill-rule: evenodd"/>
<path id="Shape2DView_nwe0169"  d="M -2.75 2.295 L -2.713132896932 2.295 " stroke="#191919" stroke-width="0.35 px" style="stroke-width:0.35;stroke-miterlimit:4;stroke-dasharray:none;fill:none;fill-opacity:1;fill-rule: evenodd"/>
<path id="Shape2DView_nwe0170"  d="M -3.045 2.0 A 0.295 0.295 0 0 0 -2.75 2.295" stroke="#191919" stroke-width="0.35 px" style="stroke-width:0.35;stroke-miterlimit:4;stroke-dasharray:none;fill:none;fill-opacity:1;fill-rule: evenodd"/>
<path id="Shape2DView_nwe0171"  d="M -3.045 -2.0 L -3.045 2.0 " stroke="#191919" stroke-width="0.35 px" style="stroke-width:0.35;stroke-miterlimit:4;stroke-dasharray:none;fill:none;fill-opacity:1;fill-rule: evenodd"/>
<path id="Shape2DView_nwe0172"  d="M -2.75 -2.295 A 0.295 0.295 0 0 0 -3.045 -2" stroke="#191919" stroke-width="0.35 px" style="stroke-width:0.35;stroke-miterlimit:4;stroke-dasharray:none;fill:none;fill-opacity:1;fill-rule: evenodd"/>
<path id="Shape2DView_nwe0173"  d="M -2.7131328969320005 -2.295 L -2.75 -2.295 " stroke="#191919" stroke-width="0.35 px" style="stroke-width:0.35;stroke-miterlimit:4;stroke-dasharray:none;fill:none;fill-opacity:1;fill-rule: evenodd"/>
<path id="Shape2DView_nwe0174"  d="M 2.366867103068 -2.295 L -2.3668671030679995 -2.295 " stroke="#191919" stroke-width="0.35 px" style="stroke-width:0.35;stroke-miterlimit:4;stroke-dasharray:none;fill:none;fill-opacity:1;fill-rule: evenodd"/>
<path id="Shape2DView_nwe0175"  d="M 3.045 2.0 L 3.045 -2.0 " stroke="#191919" stroke-width="0.35 px" style="stroke-width:0.35;stroke-miterlimit:4;stroke-dasharray:none;fill:none;fill-opacity:1;fill-rule: evenodd"/>
<path id="Shape2DView_nwe0176"  d="M 2.75 2.295 A 0.295 0.295 0 0 0 3.045 2" stroke="#191919" stroke-width="0.35 px" style="stroke-width:0.35;stroke-miterlimit:4;stroke-dasharray:none;fill:none;fill-opacity:1;fill-rule: evenodd"/>
<path id="Shape2DView_nwe0177"  d="M 2.7131328969320005 2.295 L 2.75 2.295 " stroke="#191919" stroke-width="0.35 px" style="stroke-width:0.35;stroke-miterlimit:4;stroke-dasharray:none;fill:none;fill-opacity:1;fill-rule: evenodd"/>
<path id="Shape2DView_nwe0178"  d="M 2.75 -2.295 L 2.713132896932 -2.295 " stroke="#191919" stroke-width="0.35 px" style="stroke-width:0.35;stroke-miterlimit:4;stroke-dasharray:none;fill:none;fill-opacity:1;fill-rule: evenodd"/>
<path id="Shape2DView_nwe0179"  d="M 3.045 -2.0 A 0.295 0.295 0 0 0 2.75 -2.295" stroke="#191919" stroke-width="0.35 px" style="stroke-width:0.35;stroke-miterlimit:4;stroke-dasharray:none;fill:none;fill-opacity:1;fill-rule: evenodd"/>
<path id="Shape2DView_nwe0180"  d="M -2.366867103068 2.295 L 2.3668671030679995 2.295 " stroke="#191919" stroke-width="0.35 px" style="stroke-width:0.35;stroke-miterlimit:4;stroke-dasharray:none;fill:none;fill-opacity:1;fill-rule: evenodd"/>
<path id="Shape2DView_nwe0181"  d="M 2.75 2.295 L 2.75 2.2787651509650204 L 2.75 2.2627344645763343 L 2.75 2.2471095360165005 L 2.75 2.232086857827954 L 2.75 2.2178553489052764 L 2.75 2.204593978730484 L 2.75 2.1924695167279507 L 2.75 2.1816344350421355 L 2.75 2.1722249911118987 L 2.75 2.164359514154149 L 2.75 2.1581369171052867 L 2.75 2.1536354527336354 L 2.75 2.15091172956548 L 2.75 2.15 " stroke="#191919" stroke-width="0.35 px" style="stroke-width:0.35;stroke-miterlimit:4;stroke-dasharray:none;fill:none;fill-opacity:1;fill-rule: evenodd"/>
<path id="Shape2DView_nwe0182"  d="M -2.75 2.295 L -2.75 2.2787651509650204 L -2.75 2.2627344645763343 L -2.75 2.2471095360165005 L -2.75 2.2320868578279542 L -2.75 2.2178553489052764 L -2.75 2.204593978730484 L -2.75 2.1924695167279507 L -2.75 2.1816344350421355 L -2.75 2.1722249911118987 L -2.75 2.164359514154149 L -2.75 2.1581369171052867 L -2.75 2.1536354527336354 L -2.75 2.15091172956548 L -2.75 2.15 " stroke="#191919" stroke-width="0.35 px" style="stroke-width:0.35;stroke-miterlimit:4;stroke-dasharray:none;fill:none;fill-opacity:1;fill-rule: evenodd"/>
<path id="Shape2DView_nwe0183"  d="M -2.75 -2.295 L -2.75 -2.2787651509650204 L -2.75 -2.2627344645763343 L -2.75 -2.2471095360165005 L -2.75 -2.232086857827954 L -2.75 -2.2178553489052764 L -2.75 -2.204593978730484 L -2.75 -2.1924695167279507 L -2.75 -2.1816344350421355 L -2.75 -2.1722249911118987 L -2.75 -2.164359514154149 L -2.75 -2.1581369171052867 L -2.75 -2.1536354527336354 L -2.75 -2.15091172956548 L -2.75 -2.15 " stroke="#191919" stroke-width="0.35 px" style="stroke-width:0.35;stroke-miterlimit:4;stroke-dasharray:none;fill:none;fill-opacity:1;fill-rule: evenodd"/>
<path id="Shape2DView_nwe0184"  d="M 2.75 -2.295 L 2.75 -2.2787651509650204 L 2.75 -2.2627344645763343 L 2.75 -2.2471095360165005 L 2.75 -2.2320868578279542 L 2.75 -2.2178553489052764 L 2.75 -2.204593978730484 L 2.75 -2.1924695167279507 L 2.75 -2.1816344350421355 L 2.75 -2.1722249911118987 L 2.75 -2.164359514154149 L 2.75 -2.1581369171052867 L 2.75 -2.1536354527336354 L 2.75 -2.15091172956548 L 2.75 -2.15 " stroke="#191919" stroke-width="0.35 px" style="stroke-width:0.35;stroke-miterlimit:4;stroke-dasharray:none;fill:none;fill-opacity:1;fill-rule: evenodd"/>
<path id="Shape2DView_nwe0185"  d="M -3.045 -2.0 L -3.0287651509650204 -2.0 L -3.0127344645763343 -2.0 L -2.9971095360165005 -2.0 L -2.9820868578279542 -2.0 L -2.9678553489052764 -2.0 L -2.954593978730484 -2.0 L -2.9424695167279507 -2.0 L -2.9316344350421355 -2.0 L -2.9222249911118987 -2.0 L -2.914359514154149 -2.0 L -2.9081369171052867 -2.0 L -2.9036354527336354 -2.0 L -2.90091172956548 -2.0 L -2.9 -2.0 " stroke="#191919" stroke-width="0.35 px" style="stroke-width:0.35;stroke-miterlimit:4;stroke-dasharray:none;fill:none;fill-opacity:1;fill-rule: evenodd"/>
<path id="Shape2DView_nwe0186"  d="M -3.045 2.0 L -3.0287651509650204 2.0 L -3.0127344645763343 2.0 L -2.9971095360165005 2.0 L -2.982086857827954 2.0 L -2.9678553489052764 2.0 L -2.954593978730484 2.0 L -2.9424695167279507 2.0 L -2.9316344350421355 2.0 L -2.9222249911118987 2.0 L -2.914359514154149 2.0 L -2.9081369171052867 2.0 L -2.9036354527336354 2.0 L -2.90091172956548 2.0 L -2.9 2.0 " stroke="#191919" stroke-width="0.35 px" style="stroke-width:0.35;stroke-miterlimit:4;stroke-dasharray:none;fill:none;fill-opacity:1;fill-rule: evenodd"/>
<path id="Shape2DView_nwe0187"  d="M 3.045 -2.0 L 3.0287651509650204 -2.0 L 3.0127344645763343 -2.0 L 2.9971095360165005 -2.0 L 2.982086857827954 -2.0 L 2.9678553489052764 -2.0 L 2.954593978730484 -2.0 L 2.9424695167279507 -2.0 L 2.9316344350421355 -2.0 L 2.9222249911118987 -2.0 L 2.914359514154149 -2.0 L 2.9081369171052867 -2.0 L 2.9036354527336354 -2.0 L 2.90091172956548 -2.0 L 2.9 -2.0 " stroke="#191919" stroke-width="0.35 px" style="stroke-width:0.35;stroke-miterlimit:4;stroke-dasharray:none;fill:none;fill-opacity:1;fill-rule: evenodd"/>
<path id="Shape2DView_nwe0188"  d="M 3.045 2.0 L 3.0287651509650204 2.0 L 3.0127344645763343 2.0 L 2.9971095360165005 2.0 L 2.982086857827954 2.0 L 2.9678553489052764 2.0 L 2.954593978730484 2.0 L 2.9424695167279507 2.0 L 2.9316344350421355 2.0 L 2.9222249911118987 2.0 L 2.914359514154149 2.0 L 2.9081369171052867 2.0 L 2.9036354527336354 2.0 L 2.90091172956548 2.0 L 2.9 2.0 " stroke="#191919" stroke-width="0.35 px" style="stroke-width:0.35;stroke-miterlimit:4;stroke-dasharray:none;fill:none;fill-opacity:1;fill-rule: evenodd"/>
<path id="Shape2DView_nwe0193"  d="M -2.75 2.13 L 2.75 2.13 " stroke="#191919" stroke-width="0.35 px" style="stroke-width:0.35;stroke-miterlimit:4;stroke-dasharray:none;fill:none;fill-opacity:1;fill-rule: evenodd"/>
<path id="Shape2DView_nwe0194"  d="M 2.75 2.13 L 2.75 2.132239289522066 L 2.75 2.134450418679126 L 2.75 2.1366055812391034 L 2.75 2.1386776747823513 L 2.75 2.1406406415303065 L 2.75 2.1424697960371746 L 2.75 2.144142135623731 L 2.75 2.1456366296493603 L 2.75 2.1469344839845657 L 2.75 2.1480193773580485 L 2.75 2.1488776666061673 L 2.75 2.1494985582436366 L 2.75 2.1498742441978647 L 2.75 2.15 " stroke="#191919" stroke-width="0.35 px" style="stroke-width:0.35;stroke-miterlimit:4;stroke-dasharray:none;fill:none;fill-opacity:1;fill-rule: evenodd"/>
<path id="Shape2DView_nwe0195"  d="M -2.75 2.13 L -2.75 2.132239289522066 L -2.75 2.134450418679126 L -2.75 2.1366055812391034 L -2.75 2.1386776747823513 L -2.75 2.1406406415303065 L -2.75 2.1424697960371746 L -2.75 2.144142135623731 L -2.75 2.1456366296493603 L -2.75 2.1469344839845657 L -2.75 2.1480193773580485 L -2.75 2.1488776666061673 L -2.75 2.1494985582436366 L -2.75 2.1498742441978647 L -2.75 2.15 " stroke="#191919" stroke-width="0.35 px" style="stroke-width:0.35;stroke-miterlimit:4;stroke-dasharray:none;fill:none;fill-opacity:1;fill-rule: evenodd"/>
<path id="Shape2DView_nwe0196"  d="M 2.75 -2.13 L -2.75 -2.13 " stroke="#191919" stroke-width="0.35 px" style="stroke-width:0.35;stroke-miterlimit:4;stroke-dasharray:none;fill:none;fill-opacity:1;fill-rule: evenodd"/>
<path id="Shape2DView_nwe0197"  d="M -2.75 -2.13 L -2.75 -2.132239289522066 L -2.75 -2.134450418679126 L -2.75 -2.1366055812391034 L -2.75 -2.1386776747823513 L -2.75 -2.1406406415303065 L -2.75 -2.1424697960371746 L -2.75 -2.144142135623731 L -2.75 -2.1456366296493603 L -2.75 -2.1469344839845657 L -2.75 -2.1480193773580485 L -2.75 -2.1488776666061673 L -2.75 -2.1494985582436366 L -2.75 -2.1498742441978647 L -2.75 -2.15 " stroke="#191919" stroke-width="0.35 px" style="stroke-width:0.35;stroke-miterlimit:4;stroke-dasharray:none;fill:none;fill-opacity:1;fill-rule: evenodd"/>
<path id="Shape2DView_nwe0198"  d="M 2.75 -2.13 L 2.75 -2.132239289522066 L 2.75 -2.134450418679126 L 2.75 -2.1366055812391034 L 2.75 -2.1386776747823513 L 2.75 -2.1406406415303065 L 2.75 -2.1424697960371746 L 2.75 -2.144142135623731 L 2.75 -2.1456366296493603 L 2.75 -2.1469344839845657 L 2.75 -2.1480193773580485 L 2.75 -2.1488776666061673 L 2.75 -2.1494985582436366 L 2.75 -2.1498742441978647 L 2.75 -2.15 " stroke="#191919" stroke-width="0.35 px" style="stroke-width:0.35;stroke-miterlimit:4;stroke-dasharray:none;fill:none;fill-opacity:1;fill-rule: evenodd"/>
<path id="Shape2DView_nwe0199"  d="M -2.75 -2.13 A 0.13 0.13 0 0 0 -2.88 -2" stroke="#191919" stroke-width="0.35 px" style="stroke-width:0.35;stroke-miterlimit:4;stroke-dasharray:none;fill:none;fill-opacity:1;fill-rule: evenodd"/>
<path id="Shape2DView_nwe0200"  d="M -2.88 -2.0 L -2.882239289522066 -2.0 L -2.884450418679126 -2.0 L -2.8866055812391034 -2.0 L -2.8886776747823513 -2.0 L -2.8906406415303065 -2.0 L -2.8924697960371746 -2.0 L -2.894142135623731 -2.0 L -2.8956366296493603 -2.0 L -2.8969344839845657 -2.0 L -2.8980193773580485 -2.0 L -2.8988776666061673 -2.0 L -2.8994985582436366 -2.0 L -2.8998742441978647 -2.0 L -2.9 -2.0 " stroke="#191919" stroke-width="0.35 px" style="stroke-width:0.35;stroke-miterlimit:4;stroke-dasharray:none;fill:none;fill-opacity:1;fill-rule: evenodd"/>
<path id="Shape2DView_nwe0201"  d="M -2.88 -2.0 L -2.88 2.0 " stroke="#191919" stroke-width="0.35 px" style="stroke-width:0.35;stroke-miterlimit:4;stroke-dasharray:none;fill:none;fill-opacity:1;fill-rule: evenodd"/>
<path id="Shape2DView_nwe0202"  d="M -2.88 2.0 L -2.882239289522066 2.0 L -2.884450418679126 2.0 L -2.8866055812391034 2.0 L -2.8886776747823513 2.0 L -2.8906406415303065 2.0 L -2.8924697960371746 2.0 L -2.894142135623731 2.0 L -2.8956366296493603 2.0 L -2.8969344839845657 2.0 L -2.8980193773580485 2.0 L -2.8988776666061673 2.0 L -2.8994985582436366 2.0 L -2.8998742441978647 2.0 L -2.9 2.0 " stroke="#191919" stroke-width="0.35 px" style="stroke-width:0.35;stroke-miterlimit:4;stroke-dasharray:none;fill:none;fill-opacity:1;fill-rule: evenodd"/>
<path id="Shape2DView_nwe0203"  d="M -2.88 2.0 A 0.13 0.13 0 0 0 -2.75 2.13" stroke="#191919" stroke-width="0.35 px" style="stroke-width:0.35;stroke-miterlimit:4;stroke-dasharray:none;fill:none;fill-opacity:1;fill-rule: evenodd"/>
<path id="Shape2DView_nwe0204"  d="M 2.88 2.0 L 2.88 -2.0 " stroke="#191919" stroke-width="0.35 px" style="stroke-width:0.35;stroke-miterlimit:4;stroke-dasharray:none;fill:none;fill-opacity:1;fill-rule: evenodd"/>
<path id="Shape2DView_nwe0205"  d="M 2.88 -2.0 L 2.882239289522066 -2.0 L 2.884450418679126 -2.0 L 2.8866055812391034 -2.0 L 2.8886776747823513 -2.0 L 2.8906406415303065 -2.0 L 2.8924697960371746 -2.0 L 2.894142135623731 -2.0 L 2.8956366296493603 -2.0 L 2.8969344839845657 -2.0 L 2.8980193773580485 -2.0 L 2.8988776666061673 -2.0 L 2.8994985582436366 -2.0 L 2.8998742441978647 -2.0 L 2.9 -2.0 " stroke="#191919" stroke-width="0.35 px" style="stroke-width:0.35;stroke-miterlimit:4;stroke-dasharray:none;fill:none;fill-opacity:1;fill-rule: evenodd"/>
<path id="Shape2DView_nwe0206"  d="M 2.88 2.0 L 2.882239289522066 2.0 L 2.884450418679126 2.0 L 2.8866055812391034 2.0 L 2.8886776747823513 2.0 L 2.8906406415303065 2.0 L 2.8924697960371746 2.0 L 2.894142135623731 2.0 L 2.8956366296493603 2.0 L 2.8969344839845657 2.0 L 2.8980193773580485 2.0 L 2.8988776666061673 2.0 L 2.8994985582436366 2.0 L 2.8998742441978647 2.0 L 2.9 2.0 " stroke="#191919" stroke-width="0.35 px" style="stroke-width:0.35;stroke-miterlimit:4;stroke-dasharray:none;fill:none;fill-opacity:1;fill-rule: evenodd"/>
<path id="Shape2DView_nwe0207"  d="M 2.88 -2.0 A 0.13 0.13 0 0 0 2.75 -2.13" stroke="#191919" stroke-width="0.35 px" style="stroke-width:0.35;stroke-miterlimit:4;stroke-dasharray:none;fill:none;fill-opacity:1;fill-rule: evenodd"/>
<path id="Shape2DView_nwe0208"  d="M 2.75 2.13 A 0.13 0.13 0 0 0 2.88 2" stroke="#191919" stroke-width="0.35 px" style="stroke-width:0.35;stroke-miterlimit:4;stroke-dasharray:none;fill:none;fill-opacity:1;fill-rule: evenodd"/>
<path id="Shape2DView_nwe0217"  d="M -2.65 1.798578643763 L -2.6579170840304647 1.8064957277934648 L -2.6657346061356475 1.8143132498986474 L -2.673354256439243 1.821932900202243 L -2.6806802134176597 1.82925885718066 L -2.6876203489112753 1.8361989926742754 L -2.6940873866894965 1.8426660304524967 L -2.6999999999999997 1.848578643763 L -2.7052838342998276 1.8538624780628274 L -2.709872442306907 1.8584510860699068 L -2.7137081196131767 1.8622867633761768 L -2.716742630350999 1.8653212741139988 L -2.718937813787181 1.867516457550181 L -2.720266064216338 1.8688447079793382 L -2.7207106781186545 1.8692893218816549 " stroke="#191919" stroke-width="0.35 px" style="stroke-width:0.35;stroke-miterlimit:4;stroke-dasharray:none;fill:none;fill-opacity:1;fill-rule: evenodd"/>
<path id="Shape2DView_nwe0218"  d="M -2.6499999999995 1.7985786437625 L -2.5085786437625 1.9399999999995 " stroke="#191919" stroke-width="0.35 px" style="stroke-width:0.35;stroke-miterlimit:4;stroke-dasharray:none;fill:none;fill-opacity:1;fill-rule: evenodd"/>
<path id="Shape2DView_nwe0219"  d="M -2.508578643763 1.94 L -2.516495727793465 1.9479170840304647 L -2.524313249898648 1.9557346061356473 L -2.5319329002022433 1.963354256439243 L -2.53925885718066 1.97068021341766 L -2.5461989926742756 1.9776203489112754 L -2.552666030452497 1.9840873866894966 L -2.558578643763 1.99 L -2.563862478062828 1.9952838342998274 L -2.5684510860699072 1.9998724423069068 L -2.572286763376177 2.0037081196131767 L -2.5753212741139992 2.006742630350999 L -2.5775164575501814 2.008937813787181 L -2.5788447079793384 2.010266064216338 L -2.579289321881655 2.0107106781186546 " stroke="#191919" stroke-width="0.35 px" style="stroke-width:0.35;stroke-miterlimit:4;stroke-dasharray:none;fill:none;fill-opacity:1;fill-rule: evenodd"/>
<path id="Shape2DView_nwe0220"  d="M -2.508578643763 1.94 L -2.508578643763 1.9511964476103307 L -2.508578643763 1.9622520933956313 L -2.508578643763 1.9730279061955167 L -2.508578643763 1.9833883739117557 L -2.508578643763 1.9932032076515336 L -2.508578643763 2.0023489801858734 L -2.508578643763 2.0107106781186546 L -2.508578643763 2.018183148246803 L -2.508578643763 2.0246724199228283 L -2.508578643763 2.030096886790242 L -2.508578643763 2.0343883330308365 L -2.508578643763 2.0374927912181824 L -2.508578643763 2.039371220989324 L -2.508578643763 2.04 " stroke="#191919" stroke-width="0.35 px" style="stroke-width:0.35;stroke-miterlimit:4;stroke-dasharray:none;fill:none;fill-opacity:1;fill-rule: evenodd"/>
<path id="Shape2DView_nwe0221"  d="M -2.508578643763 1.94 L 2.508578643763 1.94 " stroke="#191919" stroke-width="0.35 px" style="stroke-width:0.35;stroke-miterlimit:4;stroke-dasharray:none;fill:none;fill-opacity:1;fill-rule: evenodd"/>
<path id="Shape2DView_nwe0222"  d="M 2.508578643763 1.94 L 2.508578643763 1.9511964476103307 L 2.508578643763 1.9622520933956313 L 2.508578643763 1.9730279061955167 L 2.508578643763 1.9833883739117557 L 2.508578643763 1.9932032076515336 L 2.508578643763 2.0023489801858734 L 2.5085786437630007 2.0107106781186546 L 2.5085786437630007 2.018183148246803 L 2.5085786437630007 2.0246724199228283 L 2.5085786437630007 2.030096886790242 L 2.5085786437630007 2.0343883330308365 L 2.5085786437630007 2.0374927912181824 L 2.5085786437630007 2.039371220989324 L 2.5085786437630007 2.04 " stroke="#191919" stroke-width="0.35 px" style="stroke-width:0.35;stroke-miterlimit:4;stroke-dasharray:none;fill:none;fill-opacity:1;fill-rule: evenodd"/>
<path id="Shape2DView_nwe0223"  d="M 2.508578643763 1.94 L 2.516495727793465 1.9479170840304647 L 2.524313249898648 1.9557346061356473 L 2.5319329002022433 1.963354256439243 L 2.53925885718066 1.97068021341766 L 2.5461989926742756 1.9776203489112754 L 2.552666030452497 1.9840873866894966 L 2.558578643763 1.99 L 2.563862478062828 1.9952838342998274 L 2.5684510860699072 1.9998724423069068 L 2.572286763376177 2.0037081196131767 L 2.5753212741139992 2.006742630350999 L 2.5775164575501814 2.008937813787181 L 2.5788447079793384 2.010266064216338 L 2.579289321881655 2.0107106781186546 " stroke="#191919" stroke-width="0.35 px" style="stroke-width:0.35;stroke-miterlimit:4;stroke-dasharray:none;fill:none;fill-opacity:1;fill-rule: evenodd"/>
<path id="Shape2DView_nwe0224"  d="M 2.5085786437625 1.9399999999995 L 2.6499999999995 1.7985786437625 " stroke="#191919" stroke-width="0.35 px" style="stroke-width:0.35;stroke-miterlimit:4;stroke-dasharray:none;fill:none;fill-opacity:1;fill-rule: evenodd"/>
<path id="Shape2DView_nwe0225"  d="M 2.65 1.798578643763 L 2.6579170840304647 1.8064957277934648 L 2.6657346061356475 1.8143132498986474 L 2.673354256439243 1.821932900202243 L 2.6806802134176597 1.82925885718066 L 2.6876203489112753 1.8361989926742754 L 2.6940873866894965 1.8426660304524967 L 2.6999999999999997 1.848578643763 L 2.7052838342998276 1.8538624780628274 L 2.709872442306907 1.8584510860699068 L 2.7137081196131767 1.8622867633761768 L 2.716742630350999 1.8653212741139988 L 2.718937813787181 1.867516457550181 L 2.720266064216338 1.8688447079793382 L 2.7207106781186545 1.8692893218816549 " stroke="#191919" stroke-width="0.35 px" style="stroke-width:0.35;stroke-miterlimit:4;stroke-dasharray:none;fill:none;fill-opacity:1;fill-rule: evenodd"/>
<path id="Shape2DView_nwe0226"  d="M 2.65 1.798578643763 L 2.6611964476103305 1.798578643763 L 2.6722520933956315 1.798578643763 L 2.6830279061955165 1.798578643763 L 2.693388373911756 1.798578643763 L 2.7032032076515335 1.798578643763 L 2.7123489801858733 1.798578643763 L 2.7207106781186545 1.798578643763 L 2.728183148246803 1.798578643763 L 2.7346724199228283 1.798578643763 L 2.740096886790242 1.798578643763 L 2.7443883330308365 1.798578643763 L 2.7474927912181824 1.798578643763 L 2.749371220989324 1.798578643763 L 2.75 1.798578643763 " stroke="#191919" stroke-width="0.35 px" style="stroke-width:0.35;stroke-miterlimit:4;stroke-dasharray:none;fill:none;fill-opacity:1;fill-rule: evenodd"/>
<path id="Shape2DView_nwe0227"  d="M 2.65 1.798578643763 L 2.65 -1.798578643763 " stroke="#191919" stroke-width="0.35 px" style="stroke-width:0.35;stroke-miterlimit:4;stroke-dasharray:none;fill:none;fill-opacity:1;fill-rule: evenodd"/>
<path id="Shape2DView_nwe0228"  d="M 2.65 -1.798578643763 L 2.6611964476103305 -1.798578643763 L 2.6722520933956315 -1.798578643763 L 2.6830279061955165 -1.798578643763 L 2.693388373911756 -1.798578643763 L 2.7032032076515335 -1.798578643763 L 2.7123489801858733 -1.798578643763 L 2.7207106781186545 -1.798578643763 L 2.728183148246803 -1.798578643763 L 2.7346724199228283 -1.798578643763 L 2.740096886790242 -1.798578643763 L 2.7443883330308365 -1.798578643763 L 2.7474927912181824 -1.798578643763 L 2.749371220989324 -1.798578643763 L 2.75 -1.798578643763 " stroke="#191919" stroke-width="0.35 px" style="stroke-width:0.35;stroke-miterlimit:4;stroke-dasharray:none;fill:none;fill-opacity:1;fill-rule: evenodd"/>
<path id="Shape2DView_nwe0229"  d="M 2.65 -1.798578643763 L 2.6579170840304647 -1.8064957277934648 L 2.6657346061356475 -1.8143132498986474 L 2.673354256439243 -1.821932900202243 L 2.6806802134176597 -1.82925885718066 L 2.6876203489112753 -1.8361989926742754 L 2.6940873866894965 -1.8426660304524967 L 2.6999999999999997 -1.848578643763 L 2.7052838342998276 -1.8538624780628274 L 2.709872442306907 -1.8584510860699068 L 2.7137081196131767 -1.8622867633761768 L 2.716742630350999 -1.8653212741139988 L 2.718937813787181 -1.867516457550181 L 2.720266064216338 -1.8688447079793382 L 2.7207106781186545 -1.8692893218816549 " stroke="#191919" stroke-width="0.35 px" style="stroke-width:0.35;stroke-miterlimit:4;stroke-dasharray:none;fill:none;fill-opacity:1;fill-rule: evenodd"/>
<path id="Shape2DView_nwe0230"  d="M 2.6499999999995 -1.7985786437625 L 2.5085786437625 -1.9399999999995 " stroke="#191919" stroke-width="0.35 px" style="stroke-width:0.35;stroke-miterlimit:4;stroke-dasharray:none;fill:none;fill-opacity:1;fill-rule: evenodd"/>
<path id="Shape2DView_nwe0231"  d="M 2.508578643763 -1.94 L 2.516495727793465 -1.9479170840304647 L 2.524313249898648 -1.9557346061356473 L 2.5319329002022433 -1.963354256439243 L 2.53925885718066 -1.97068021341766 L 2.5461989926742756 -1.9776203489112754 L 2.552666030452497 -1.9840873866894966 L 2.558578643763 -1.99 L 2.563862478062828 -1.9952838342998274 L 2.5684510860699072 -1.9998724423069068 L 2.572286763376177 -2.0037081196131767 L 2.5753212741139992 -2.006742630350999 L 2.5775164575501814 -2.008937813787181 L 2.5788447079793384 -2.010266064216338 L 2.579289321881655 -2.0107106781186546 " stroke="#191919" stroke-width="0.35 px" style="stroke-width:0.35;stroke-miterlimit:4;stroke-dasharray:none;fill:none;fill-opacity:1;fill-rule: evenodd"/>
<path id="Shape2DView_nwe0232"  d="M 2.508578643763 -1.94 L 2.508578643763 -1.9511964476103307 L 2.508578643763 -1.9622520933956313 L 2.508578643763 -1.9730279061955167 L 2.508578643763 -1.9833883739117557 L 2.508578643763 -1.9932032076515336 L 2.508578643763 -2.0023489801858734 L 2.508578643763 -2.0107106781186546 L 2.508578643763 -2.018183148246803 L 2.508578643763 -2.0246724199228283 L 2.508578643763 -2.030096886790242 L 2.508578643763 -2.0343883330308365 L 2.508578643763 -2.0374927912181824 L 2.508578643763 -2.039371220989324 L 2.508578643763 -2.04 " stroke="#191919" stroke-width="0.35 px" style="stroke-width:0.35;stroke-miterlimit:4;stroke-dasharray:none;fill:none;fill-opacity:1;fill-rule: evenodd"/>
<path id="Shape2DView_nwe0233"  d="M 2.508578643763 -1.94 L -2.508578643763 -1.94 " stroke="#191919" stroke-width="0.35 px" style="stroke-width:0.35;stroke-miterlimit:4;stroke-dasharray:none;fill:none;fill-opacity:1;fill-rule: evenodd"/>
<path id="Shape2DView_nwe0234"  d="M -2.508578643763 -1.94 L -2.508578643763 -1.9511964476103307 L -2.508578643763 -1.9622520933956313 L -2.508578643763 -1.9730279061955167 L -2.508578643763 -1.9833883739117557 L -2.508578643763 -1.9932032076515336 L -2.508578643763 -2.0023489801858734 L -2.5085786437630007 -2.0107106781186546 L -2.5085786437630007 -2.018183148246803 L -2.5085786437630007 -2.0246724199228283 L -2.5085786437630007 -2.030096886790242 L -2.5085786437630007 -2.0343883330308365 L -2.5085786437630007 -2.0374927912181824 L -2.5085786437630007 -2.039371220989324 L -2.5085786437630007 -2.04 " stroke="#191919" stroke-width="0.35 px" style="stroke-width:0.35;stroke-miterlimit:4;stroke-dasharray:none;fill:none;fill-opacity:1;fill-rule: evenodd"/>
<path id="Shape2DView_nwe0235"  d="M -2.508578643763 -1.94 L -2.516495727793465 -1.9479170840304647 L -2.524313249898648 -1.9557346061356473 L -2.5319329002022433 -1.963354256439243 L -2.53925885718066 -1.97068021341766 L -2.5461989926742756 -1.9776203489112754 L -2.552666030452497 -1.9840873866894966 L -2.558578643763 -1.99 L -2.563862478062828 -1.9952838342998274 L -2.5684510860699072 -1.9998724423069068 L -2.572286763376177 -2.0037081196131767 L -2.5753212741139992 -2.006742630350999 L -2.5775164575501814 -2.008937813787181 L -2.5788447079793384 -2.010266064216338 L -2.579289321881655 -2.0107106781186546 " stroke="#191919" stroke-width="0.35 px" style="stroke-width:0.35;stroke-miterlimit:4;stroke-dasharray:none;fill:none;fill-opacity:1;fill-rule: evenodd"/>
<path id="Shape2DView_nwe0236"  d="M -2.5085786437625 -1.9399999999995 L -2.6499999999995 -1.7985786437625 " stroke="#191919" stroke-width="0.35 px" style="stroke-width:0.35;stroke-miterlimit:4;stroke-dasharray:none;fill:none;fill-opacity:1;fill-rule: evenodd"/>
<path id="Shape2DView_nwe0237"  d="M -2.65 -1.798578643763 L -2.6579170840304647 -1.8064957277934648 L -2.6657346061356475 -1.8143132498986474 L -2.673354256439243 -1.821932900202243 L -2.6806802134176597 -1.82925885718066 L -2.6876203489112753 -1.8361989926742754 L -2.6940873866894965 -1.8426660304524967 L -2.6999999999999997 -1.848578643763 L -2.7052838342998276 -1.8538624780628274 L -2.709872442306907 -1.8584510860699068 L -2.7137081196131767 -1.8622867633761768 L -2.716742630350999 -1.8653212741139988 L -2.718937813787181 -1.867516457550181 L -2.720266064216338 -1.8688447079793382 L -2.7207106781186545 -1.8692893218816549 " stroke="#191919" stroke-width="0.35 px" style="stroke-width:0.35;stroke-miterlimit:4;stroke-dasharray:none;fill:none;fill-opacity:1;fill-rule: evenodd"/>
<path id="Shape2DView_nwe0238"  d="M -2.65 -1.798578643763 L -2.6611964476103305 -1.798578643763 L -2.6722520933956315 -1.798578643763 L -2.6830279061955165 -1.798578643763 L -2.693388373911756 -1.798578643763 L -2.7032032076515335 -1.798578643763 L -2.7123489801858733 -1.798578643763 L -2.7207106781186545 -1.7985786437630003 L -2.728183148246803 -1.7985786437630003 L -2.7346724199228283 -1.7985786437630003 L -2.740096886790242 -1.7985786437630003 L -2.7443883330308365 -1.7985786437630003 L -2.7474927912181824 -1.7985786437630003 L -2.749371220989324 -1.7985786437630003 L -2.75 -1.7985786437630003 " stroke="#191919" stroke-width="0.35 px" style="stroke-width:0.35;stroke-miterlimit:4;stroke-dasharray:none;fill:none;fill-opacity:1;fill-rule: evenodd"/>
<path id="Shape2DView_nwe0239"  d="M -2.65 -1.798578643763 L -2.65 1.798578643763 " stroke="#191919" stroke-width="0.35 px" style="stroke-width:0.35;stroke-miterlimit:4;stroke-dasharray:none;fill:none;fill-opacity:1;fill-rule: evenodd"/>
<path id="Shape2DView_nwe0240"  d="M -2.65 1.798578643763 L -2.6611964476103305 1.798578643763 L -2.6722520933956315 1.798578643763 L -2.6830279061955165 1.798578643763 L -2.693388373911756 1.798578643763 L -2.7032032076515335 1.798578643763 L -2.7123489801858733 1.798578643763 L -2.7207106781186545 1.798578643763 L -2.728183148246803 1.798578643763 L -2.7346724199228283 1.798578643763 L -2.740096886790242 1.798578643763 L -2.7443883330308365 1.798578643763 L -2.7474927912181824 1.798578643763 L -2.749371220989324 1.798578643763 L -2.75 1.798578643763 " stroke="#191919" stroke-width="0.35 px" style="stroke-width:0.35;stroke-miterlimit:4;stroke-dasharray:none;fill:none;fill-opacity:1;fill-rule: evenodd"/>
<title>b'Shape2DView'</title>
</g>
<g id="Rectangle" transform="translate(3.570000,2.610000) scale(1,-1)">
<rect fill="#ff0000" id="origin" width="1" height="1" x="0" y="0" />
<title>b'Rectangle'</title>
</g>
</svg>