<?xml version="1.0"?>
<!DOCTYPE svg PUBLIC "-//W3C//DTD SVG 1.1//EN" "http://www.w3.org/Graphics/SVG/1.1/DTD/svg11.dtd">
<svg width="12.954mm" height="12.954mm" viewBox="0 0 12.954 12.954" xmlns="http://www.w3.org/2000/svg" version="1.1">
<g id="Shape2DView" transform="translate(2.772000,10.287000) scale(1,-1)">
<path id="Shape2DView_nwe0000"  d="M -2.645 -2.54 L 9.055 -2.54 " stroke="#191919" stroke-width="0.35 px" style="stroke-width:0.35;stroke-miterlimit:4;stroke-dasharray:none;fill:none;fill-opacity:1;fill-rule: evenodd"/>
<path id="Shape2DView_nwe0001"  d="M -2.645 9.16 L -2.645 -2.539999999999999 " stroke="#191919" stroke-width="0.35 px" style="stroke-width:0.35;stroke-miterlimit:4;stroke-dasharray:none;fill:none;fill-opacity:1;fill-rule: evenodd"/>
<path id="Shape2DView_nwe0002"  d="M 9.055 -2.54 A 1 1 0 0 1 10.055 -1.54" stroke="#191919" stroke-width="0.35 px" style="stroke-width:0.35;stroke-miterlimit:4;stroke-dasharray:none;fill:none;fill-opacity:1;fill-rule: evenodd"/>
<path id="Shape2DView_nwe0003"  d="M -1.645 10.16 A 1 1 0 0 1 -2.645 9.16" stroke="#191919" stroke-width="0.35 px" style="stroke-width:0.35;stroke-miterlimit:4;stroke-dasharray:none;fill:none;fill-opacity:1;fill-rule: evenodd"/>
<path id="Shape2DView_nwe0004"  d="M 9.055 10.16 L -1.6449999999999996 10.16 " stroke="#191919" stroke-width="0.35 px" style="stroke-width:0.35;stroke-miterlimit:4;stroke-dasharray:none;fill:none;fill-opacity:1;fill-rule: evenodd"/>
<path id="Shape2DView_nwe0005"  d="M 10.055 9.16 A 1 1 0 0 1 9.055 10.16" stroke="#191919" stroke-width="0.35 px" style="stroke-width:0.35;stroke-miterlimit:4;stroke-dasharray:none;fill:none;fill-opacity:1;fill-rule: evenodd"/>
<path id="Shape2DView_nwe0006"  d="M 10.055 -1.54 L 10.055 9.16 " stroke="#191919" stroke-width="0.35 px" style="stroke-width:0.35;stroke-miterlimit:4;stroke-dasharray:none;fill:none;fill-opacity:1;fill-rule: evenodd"/>
<path id="Shape2DView_nwe0007"  d="M -1.54 -2.04 L 9.16 -2.04 " stroke="#191919" stroke-width="0.35 px" style="stroke-width:0.35;stroke-miterlimit:4;stroke-dasharray:none;fill:none;fill-opacity:1;fill-rule: evenodd"/>
<path id="Shape2DView_nwe0008"  d="M -2.04 9.16 L -2.04 -1.5399999999999991 " stroke="#191919" stroke-width="0.35 px" style="stroke-width:0.35;stroke-miterlimit:4;stroke-dasharray:none;fill:none;fill-opacity:1;fill-rule: evenodd"/>
<path id="Shape2DView_nwe0009"  d="M 9.16 9.66 L -1.5399999999999991 9.66 " stroke="#191919" stroke-width="0.35 px" style="stroke-width:0.35;stroke-miterlimit:4;stroke-dasharray:none;fill:none;fill-opacity:1;fill-rule: evenodd"/>
<path id="Shape2DView_nwe0010"  d="M 9.66 -1.54 L 9.66 9.16 " stroke="#191919" stroke-width="0.35 px" style="stroke-width:0.35;stroke-miterlimit:4;stroke-dasharray:none;fill:none;fill-opacity:1;fill-rule: evenodd"/>
<path id="Shape2DView_nwe0011"  d="M -2.04 -1.54 A 0.5 0.5 0 0 1 -1.54 -2.04" stroke="#191919" stroke-width="0.35 px" style="stroke-width:0.35;stroke-miterlimit:4;stroke-dasharray:none;fill:none;fill-opacity:1;fill-rule: evenodd"/>
<path id="Shape2DView_nwe0012"  d="M -1.54 9.66 A 0.5 0.5 0 0 1 -2.04 9.16" stroke="#191919" stroke-width="0.35 px" style="stroke-width:0.35;stroke-miterlimit:4;stroke-dasharray:none;fill:none;fill-opacity:1;fill-rule: evenodd"/>
<path id="Shape2DView_nwe0013"  d="M 9.66 9.16 A 0.5 0.5 0 0 1 9.16 9.66" stroke="#191919" stroke-width="0.35 px" style="stroke-width:0.35;stroke-miterlimit:4;stroke-dasharray:none;fill:none;fill-opacity:1;fill-rule: evenodd"/>
<path id="Shape2DView_nwe0014"  d="M 9.16 -2.04 A 0.5 0.5 0 0 1 9.66 -1.54" stroke="#191919" stroke-width="0.35 px" style="stroke-width:0.35;stroke-miterlimit:4;stroke-dasharray:none;fill:none;fill-opacity:1;fill-rule: evenodd"/>
<path id="Shape2DView_nwe0019"  d="M 9.16 -2.04 L 9.16 -2.0368561049466214 L 9.16 -2.027463956090912 L 9.16 -2.011941665154184 L 9.16 -1.9904844339512096 L 9.16 -1.963362099614142 L 9.16 -1.930915741234015 L 9.16 -1.8935533905932738 L 9.16 -1.8517449009293667 L 9.16 -1.8060160382576682 L 9.16 -1.756941869558779 L 9.16 -1.7051395309775836 L 9.16 -1.6512604669781572 L 9.16 -1.595982238051654 L 9.16 -1.54 " stroke="#191919" stroke-width="0.35 px" style="stroke-width:0.35;stroke-miterlimit:4;stroke-dasharray:none;fill:none;fill-opacity:1;fill-rule: evenodd"/>
<path id="Shape2DView_nwe0020"  d="M -1.54 -1.54 L 9.16 -1.54 " stroke="#191919" stroke-width="0.35 px" style="stroke-width:0.35;stroke-miterlimit:4;stroke-dasharray:none;fill:none;fill-opacity:1;fill-rule: evenodd"/>
<path id="Shape2DView_nwe0021"  d="M -1.54 -2.04 L -1.54 -2.0368561049466214 L -1.54 -2.027463956090912 L -1.54 -2.011941665154184 L -1.54 -1.9904844339512096 L -1.54 -1.963362099614142 L -1.54 -1.930915741234015 L -1.54 -1.8935533905932738 L -1.54 -1.8517449009293667 L -1.54 -1.8060160382576682 L -1.54 -1.756941869558779 L -1.54 -1.7051395309775836 L -1.54 -1.6512604669781572 L -1.54 -1.595982238051654 L -1.54 -1.54 " stroke="#191919" stroke-width="0.35 px" style="stroke-width:0.35;stroke-miterlimit:4;stroke-dasharray:none;fill:none;fill-opacity:1;fill-rule: evenodd"/>
<path id="Shape2DView_nwe0022"  d="M -2.04 -1.54 L -2.0368561049466214 -1.54 L -2.027463956090912 -1.54 L -2.011941665154184 -1.54 L -1.9904844339512096 -1.54 L -1.963362099614142 -1.54 L -1.930915741234015 -1.54 L -1.8935533905932738 -1.54 L -1.8517449009293667 -1.54 L -1.8060160382576682 -1.54 L -1.756941869558779 -1.54 L -1.7051395309775836 -1.54 L -1.6512604669781572 -1.54 L -1.595982238051654 -1.54 L -1.54 -1.54 " stroke="#191919" stroke-width="0.35 px" style="stroke-width:0.35;stroke-miterlimit:4;stroke-dasharray:none;fill:none;fill-opacity:1;fill-rule: evenodd"/>
<path id="Shape2DView_nwe0023"  d="M -1.54 9.16 L -1.54 -1.5399999999999991 " stroke="#191919" stroke-width="0.35 px" style="stroke-width:0.35;stroke-miterlimit:4;stroke-dasharray:none;fill:none;fill-opacity:1;fill-rule: evenodd"/>
<path id="Shape2DView_nwe0024"  d="M -2.04 9.16 L -2.0368561049466214 9.16 L -2.027463956090912 9.16 L -2.011941665154184 9.16 L -1.9904844339512096 9.16 L -1.963362099614142 9.16 L -1.930915741234015 9.16 L -1.8935533905932738 9.16 L -1.8517449009293667 9.16 L -1.8060160382576682 9.16 L -1.756941869558779 9.16 L -1.7051395309775836 9.16 L -1.6512604669781572 9.16 L -1.595982238051654 9.16 L -1.54 9.16 " stroke="#191919" stroke-width="0.35 px" style="stroke-width:0.35;stroke-miterlimit:4;stroke-dasharray:none;fill:none;fill-opacity:1;fill-rule: evenodd"/>
<path id="Shape2DView_nwe0025"  d="M -1.54 9.66 L -1.54 9.656856104946621 L -1.54 9.647463956090911 L -1.54 9.631941665154184 L -1.54 9.61048443395121 L -1.54 9.583362099614142 L -1.54 9.550915741234014 L -1.54 9.513553390593273 L -1.54 9.471744900929368 L -1.54 9.426016038257668 L -1.54 9.37694186955878 L -1.54 9.325139530977584 L -1.54 9.271260466978157 L -1.54 9.215982238051653 L -1.54 9.16 " stroke="#191919" stroke-width="0.35 px" style="stroke-width:0.35;stroke-miterlimit:4;stroke-dasharray:none;fill:none;fill-opacity:1;fill-rule: evenodd"/>
<path id="Shape2DView_nwe0026"  d="M 9.16 9.16 L -1.5399999999999991 9.16 " stroke="#191919" stroke-width="0.35 px" style="stroke-width:0.35;stroke-miterlimit:4;stroke-dasharray:none;fill:none;fill-opacity:1;fill-rule: evenodd"/>
<path id="Shape2DView_nwe0027"  d="M 9.16 9.66 L 9.16 9.656856104946621 L 9.16 9.647463956090911 L 9.16 9.631941665154184 L 9.16 9.61048443395121 L 9.16 9.583362099614142 L 9.16 9.550915741234014 L 9.16 9.513553390593273 L 9.16 9.471744900929368 L 9.16 9.426016038257668 L 9.16 9.37694186955878 L 9.16 9.325139530977584 L 9.16 9.271260466978157 L 9.16 9.215982238051653 L 9.16 9.16 " stroke="#191919" stroke-width="0.35 px" style="stroke-width:0.35;stroke-miterlimit:4;stroke-dasharray:none;fill:none;fill-opacity:1;fill-rule: evenodd"/>
<path id="Shape2DView_nwe0028"  d="M 9.66 9.16 L 9.656856104946621 9.16 L 9.647463956090911 9.16 L 9.631941665154184 9.16 L 9.61048443395121 9.16 L 9.583362099614142 9.16 L 9.550915741234014 9.16 L 9.513553390593273 9.16 L 9.471744900929368 9.16 L 9.426016038257668 9.16 L 9.37694186955878 9.16 L 9.325139530977584 9.16 L 9.271260466978157 9.16 L 9.215982238051653 9.16 L 9.16 9.16 " stroke="#191919" stroke-width="0.35 px" style="stroke-width:0.35;stroke-miterlimit:4;stroke-dasharray:none;fill:none;fill-opacity:1;fill-rule: evenodd"/>
<path id="Shape2DView_nwe0029"  d="M 9.16 -1.54 L 9.16 9.16 " stroke="#191919" stroke-width="0.35 px" style="stroke-width:0.35;stroke-miterlimit:4;stroke-dasharray:none;fill:none;fill-opacity:1;fill-rule: evenodd"/>
<path id="Shape2DView_nwe0030"  d="M 9.66 -1.54 L 9.656856104946621 -1.54 L 9.647463956090911 -1.54 L 9.631941665154184 -1.54 L 9.61048443395121 -1.54 L 9.583362099614142 -1.54 L 9.550915741234014 -1.54 L 9.513553390593273 -1.54 L 9.471744900929368 -1.54 L 9.426016038257668 -1.54 L 9.37694186955878 -1.54 L 9.325139530977584 -1.54 L 9.271260466978157 -1.54 L 9.215982238051653 -1.54 L 9.16 -1.54 " stroke="#191919" stroke-width="0.35 px" style="stroke-width:0.35;stroke-miterlimit:4;stroke-dasharray:none;fill:none;fill-opacity:1;fill-rule: evenodd"/>
<title>b'Shape2DView'</title>
</g>
<g id="Rectangle" transform="translate(2.772000,10.287000) scale(1,-1)">
<rect fill="#ff0000" id="origin" width="1" height="1" x="0" y="0" />
<title>b'Rectangle'</title>
</g>
</svg>