<?xml version="1.0"?>
<!DOCTYPE svg PUBLIC "-//W3C//DTD SVG 1.1//EN" "http://www.w3.org/Graphics/SVG/1.1/DTD/svg11.dtd">
<svg width="28.4988mm" height="3.0688000000000004mm" viewBox="0 0 28.4988 3.0688000000000004" xmlns="http://www.w3.org/2000/svg" version="1.1">
<g id="Shape2DView" transform="translate(1.549400,1.529400) scale(1,-1)">
<path id="Shape2DView_nwe0000"  d="M 1.23 -1.26 L 1.2174639560909117 -1.26 L 1.1804844339512095 -1.26 L 1.120915741234015 -1.26 L 1.0417449009293667 -1.26 L 0.946941869558779 -1.26 L 0.8412604669781572 -1.26 L 0.73 -1.26 L 0.6187395330218428 -1.26 L 0.513058130441221 -1.26 L 0.41825509907063324 -1.26 L 0.3390842587659851 -1.26 L 0.27951556604879046 -1.26 L 0.24253604390908817 -1.26 L 0.22999999999999998 -1.26 " stroke="#191919" stroke-width="0.35 px" style="stroke-width:0.35;stroke-miterlimit:4;stroke-dasharray:none;fill:none;fill-opacity:1;fill-rule: evenodd"/>
<path id="Shape2DView_nwe0001"  d="M 1.23 -1.25 L 1.23 -1.26 " stroke="#191919" stroke-width="0.35 px" style="stroke-width:0.35;stroke-miterlimit:4;stroke-dasharray:none;fill:none;fill-opacity:1;fill-rule: evenodd"/>
<path id="Shape2DView_nwe0002"  d="M -0.43666666666700005 -1.25 L 25.836666666667 -1.25 " stroke="#191919" stroke-width="0.35 px" style="stroke-width:0.35;stroke-miterlimit:4;stroke-dasharray:none;fill:none;fill-opacity:1;fill-rule: evenodd"/>
<path id="Shape2DView_nwe0003"  d="M 25.836666666667 -1.25 A 0.833333 0.833333 0 0 1 26.67 -0.416667" stroke="#191919" stroke-width="0.35 px" style="stroke-width:0.35;stroke-miterlimit:4;stroke-dasharray:none;fill:none;fill-opacity:1;fill-rule: evenodd"/>
<path id="Shape2DView_nwe0004"  d="M -1.27 -0.41666666666700003 A 0.833333 0.833333 0 0 1 -0.436667 -1.25" stroke="#191919" stroke-width="0.35 px" style="stroke-width:0.35;stroke-miterlimit:4;stroke-dasharray:none;fill:none;fill-opacity:1;fill-rule: evenodd"/>
<path id="Shape2DView_nwe0005"  d="M -1.27 0.41666666666700003 L -1.27 -0.41666666666700003 " stroke="#191919" stroke-width="0.35 px" style="stroke-width:0.35;stroke-miterlimit:4;stroke-dasharray:none;fill:none;fill-opacity:1;fill-rule: evenodd"/>
<path id="Shape2DView_nwe0007"  d="M 26.67 -0.41666666666700003 L 26.67 0.41666666666700003 " stroke="#191919" stroke-width="0.35 px" style="stroke-width:0.35;stroke-miterlimit:4;stroke-dasharray:none;fill:none;fill-opacity:1;fill-rule: evenodd"/>
<path id="Shape2DView_nwe0008"  d="M 26.67 0.41666666666700003 L 26.67 -0.41666666666700003 " stroke="#191919" stroke-width="0.35 px" style="stroke-width:0.35;stroke-miterlimit:4;stroke-dasharray:none;fill:none;fill-opacity:1;fill-rule: evenodd"/>
<path id="Shape2DView_nwe0009"  d="M -0.43666666666700005 1.25 L 25.836666666667 1.25 " stroke="#191919" stroke-width="0.35 px" style="stroke-width:0.35;stroke-miterlimit:4;stroke-dasharray:none;fill:none;fill-opacity:1;fill-rule: evenodd"/>
<path id="Shape2DView_nwe0010"  d="M 25.836666666667 1.25 A 0.833333 0.833333 0 0 0 26.67 0.416667" stroke="#191919" stroke-width="0.35 px" style="stroke-width:0.35;stroke-miterlimit:4;stroke-dasharray:none;fill:none;fill-opacity:1;fill-rule: evenodd"/>
<path id="Shape2DView_nwe0011"  d="M -0.436666666667 1.25 A 0.833333 0.833333 0 0 1 -1.27 0.416667" stroke="#191919" stroke-width="0.35 px" style="stroke-width:0.35;stroke-miterlimit:4;stroke-dasharray:none;fill:none;fill-opacity:1;fill-rule: evenodd"/>
<path id="Shape2DView_nwe0012"  d="M 26.67 0.41666666666700003 A 0.833333 0.833333 0 0 1 25.8367 1.25" stroke="#191919" stroke-width="0.35 px" style="stroke-width:0.35;stroke-miterlimit:4;stroke-dasharray:none;fill:none;fill-opacity:1;fill-rule: evenodd"/>
<path id="Shape2DView_nwe0016"  d="M -0.436666666667 -0.4166666666669998 L -0.436666666667 -0.5099703967530523 L -0.43666666666700005 -0.6021007782971877 L -0.43666666666700005 -0.6918992182961956 L -0.43666666666700005 -0.7782364492648203 L -0.4366666666670001 -0.860026730429603 L -0.4366666666670001 -0.9362415015490699 L -0.4366666666670001 -1.0059223176555536 L -0.43666666666700016 -1.068192902056764 L -0.43666666666700016 -1.122270166023621 L -0.43666666666700016 -1.167474056585382 L -0.43666666666700016 -1.203236108590325 L -0.43666666666700016 -1.2291065934848613 L -0.43666666666700016 -1.2447601749110375 L -0.43666666666700016 -1.25 " stroke="#191919" stroke-width="0.35 px" style="stroke-width:0.35;stroke-miterlimit:4;stroke-dasharray:none;fill:none;fill-opacity:1;fill-rule: evenodd"/>
<path id="Shape2DView_nwe0017"  d="M 25.836666666667 -1.25 L 25.836666666667 -1.2447601749110375 L 25.836666666667 -1.2291065934848613 L 25.836666666667 -1.203236108590325 L 25.836666666667 -1.1674740565853823 L 25.836666666667 -1.1222701660236212 L 25.836666666667 -1.0681929020567642 L 25.836666666667 -1.005922317655554 L 25.836666666667 -0.9362415015490702 L 25.836666666667 -0.8600267304296032 L 25.836666666667 -0.7782364492648206 L 25.836666666667 -0.691899218296196 L 25.836666666667 -0.602100778297188 L 25.836666666667 -0.5099703967530527 L 25.836666666667 -0.4166666666670002 " stroke="#191919" stroke-width="0.35 px" style="stroke-width:0.35;stroke-miterlimit:4;stroke-dasharray:none;fill:none;fill-opacity:1;fill-rule: evenodd"/>
<path id="Shape2DView_nwe0018"  d="M -0.43666666666700005 -0.416666666667 L 25.836666666667 -0.416666666667 " stroke="#191919" stroke-width="0.35 px" style="stroke-width:0.35;stroke-miterlimit:4;stroke-dasharray:none;fill:none;fill-opacity:1;fill-rule: evenodd"/>
<path id="Shape2DView_nwe0019"  d="M -0.4366666666669998 -0.416666666667 L -0.5299703967530524 -0.416666666667 L -0.6221007782971877 -0.416666666667 L -0.7118992182961956 -0.416666666667 L -0.7982364492648203 -0.416666666667 L -0.880026730429603 -0.41666666666700003 L -0.95624150154907 -0.41666666666700003 L -1.0259223176555536 -0.41666666666700003 L -1.088192902056764 -0.41666666666700003 L -1.142270166023621 -0.41666666666700003 L -1.187474056585382 -0.41666666666700003 L -1.223236108590325 -0.41666666666700003 L -1.2491065934848613 -0.41666666666700003 L -1.2647601749110375 -0.41666666666700003 L -1.27 -0.41666666666700003 " stroke="#191919" stroke-width="0.35 px" style="stroke-width:0.35;stroke-miterlimit:4;stroke-dasharray:none;fill:none;fill-opacity:1;fill-rule: evenodd"/>
<path id="Shape2DView_nwe0020"  d="M 26.67 -0.416666666667 L 26.664760174911038 -0.416666666667 L 26.649106593484863 -0.416666666667 L 26.623236108590326 -0.416666666667 L 26.587474056585382 -0.416666666667 L 26.54227016602362 -0.416666666667 L 26.488192902056763 -0.416666666667 L 26.425922317655555 -0.416666666667 L 26.35624150154907 -0.416666666667 L 26.280026730429604 -0.416666666667 L 26.19823644926482 -0.416666666667 L 26.111899218296195 -0.416666666667 L 26.022100778297187 -0.416666666667 L 25.929970396753053 -0.416666666667 L 25.836666666667 -0.416666666667 " stroke="#191919" stroke-width="0.35 px" style="stroke-width:0.35;stroke-miterlimit:4;stroke-dasharray:none;fill:none;fill-opacity:1;fill-rule: evenodd"/>
<path id="Shape2DView_nwe0021"  d="M 25.836666666667 0.41666666666700003 L 25.836666666667 -0.41666666666700003 " stroke="#191919" stroke-width="0.35 px" style="stroke-width:0.35;stroke-miterlimit:4;stroke-dasharray:none;fill:none;fill-opacity:1;fill-rule: evenodd"/>
<path id="Shape2DView_nwe0022"  d="M -0.436666666667 0.41666666666700003 L -0.436666666667 -0.41666666666700003 " stroke="#191919" stroke-width="0.35 px" style="stroke-width:0.35;stroke-miterlimit:4;stroke-dasharray:none;fill:none;fill-opacity:1;fill-rule: evenodd"/>
<path id="Shape2DView_nwe0023"  d="M -0.43666666666700005 0.416666666667 L 25.836666666667 0.416666666667 " stroke="#191919" stroke-width="0.35 px" style="stroke-width:0.35;stroke-miterlimit:4;stroke-dasharray:none;fill:none;fill-opacity:1;fill-rule: evenodd"/>
<path id="Shape2DView_nwe0024"  d="M -0.4366666666669998 0.416666666667 L -0.5299703967530524 0.416666666667 L -0.6221007782971877 0.41666666666700003 L -0.7118992182961956 0.41666666666700003 L -0.7982364492648203 0.4166666666670001 L -0.880026730429603 0.4166666666670001 L -0.95624150154907 0.41666666666700014 L -1.0259223176555536 0.41666666666700014 L -1.088192902056764 0.41666666666700014 L -1.142270166023621 0.4166666666670002 L -1.187474056585382 0.4166666666670002 L -1.223236108590325 0.4166666666670002 L -1.2491065934848613 0.4166666666670002 L -1.2647601749110375 0.4166666666670002 L -1.27 0.4166666666670002 " stroke="#191919" stroke-width="0.35 px" style="stroke-width:0.35;stroke-miterlimit:4;stroke-dasharray:none;fill:none;fill-opacity:1;fill-rule: evenodd"/>
<path id="Shape2DView_nwe0026"  d="M 25.836666666667 0.416666666667 L 25.929970396753053 0.416666666667 L 26.022100778297187 0.416666666667 L 26.111899218296195 0.416666666667 L 26.19823644926482 0.416666666667 L 26.280026730429604 0.41666666666700003 L 26.35624150154907 0.41666666666700003 L 26.425922317655555 0.41666666666700003 L 26.488192902056763 0.41666666666700003 L 26.54227016602362 0.41666666666700003 L 26.587474056585382 0.41666666666700003 L 26.623236108590326 0.41666666666700003 L 26.649106593484863 0.41666666666700003 L 26.664760174911038 0.41666666666700003 L 26.67 0.41666666666700003 " stroke="#191919" stroke-width="0.35 px" style="stroke-width:0.35;stroke-miterlimit:4;stroke-dasharray:none;fill:none;fill-opacity:1;fill-rule: evenodd"/>
<path id="Shape2DView_nwe0029"  d="M -0.436666666667 0.4166666666669998 L -0.436666666667 0.5099703967530523 L -0.436666666667 0.6021007782971877 L -0.436666666667 0.6918992182961956 L -0.436666666667 0.7782364492648203 L -0.436666666667 0.860026730429603 L -0.436666666667 0.9362415015490699 L -0.436666666667 1.0059223176555536 L -0.436666666667 1.068192902056764 L -0.436666666667 1.122270166023621 L -0.436666666667 1.167474056585382 L -0.436666666667 1.203236108590325 L -0.436666666667 1.2291065934848613 L -0.436666666667 1.2447601749110375 L -0.436666666667 1.25 " stroke="#191919" stroke-width="0.35 px" style="stroke-width:0.35;stroke-miterlimit:4;stroke-dasharray:none;fill:none;fill-opacity:1;fill-rule: evenodd"/>
<path id="Shape2DView_nwe0030"  d="M 25.836666666667 0.4166666666669998 L 25.836666666667 0.5099703967530523 L 25.836666666667 0.6021007782971877 L 25.836666666667 0.6918992182961956 L 25.836666666667 0.7782364492648203 L 25.836666666667 0.860026730429603 L 25.836666666667 0.9362415015490699 L 25.836666666667 1.0059223176555536 L 25.836666666667 1.068192902056764 L 25.836666666667 1.122270166023621 L 25.836666666667 1.167474056585382 L 25.836666666667 1.203236108590325 L 25.836666666667 1.2291065934848613 L 25.836666666667 1.2447601749110375 L 25.836666666667 1.25 " stroke="#191919" stroke-width="0.35 px" style="stroke-width:0.35;stroke-miterlimit:4;stroke-dasharray:none;fill:none;fill-opacity:1;fill-rule: evenodd"/>
<path id="Shape2DView_nwe0031"  d="M 0.22999999999999998 -1.26 L 0.22999999999999998 -1.25 " stroke="#191919" stroke-width="0.35 px" style="stroke-width:0.35;stroke-miterlimit:4;stroke-dasharray:none;fill:none;fill-opacity:1;fill-rule: evenodd"/>
<title>b'Shape2DView'</title>
</g>
<g id="Rectangle" transform="translate(1.549400,1.529400) scale(1,-1)">
<rect fill="#ff0000" id="origin" width="1" height="1" x="0" y="0" />
<title>b'Rectangle'</title>
</g>
</svg>