<?xml version="1.0"?>
<!DOCTYPE svg PUBLIC "-//W3C//DTD SVG 1.1//EN" "http://www.w3.org/Graphics/SVG/1.1/DTD/svg11.dtd">
<svg width="12.954mm" height="2.7640000000000002mm" viewBox="0 0 12.954 2.7640000000000002" xmlns="http://www.w3.org/2000/svg" version="1.1">
<g id="Shape2DView" transform="translate(1.397000,1.377000) scale(1,-1)">
<path id="Shape2DView_nwe0000"  d="M 1.23 -1.26 L 1.2174639560909117 -1.26 L 1.1804844339512095 -1.26 L 1.120915741234015 -1.26 L 1.0417449009293667 -1.26 L 0.946941869558779 -1.26 L 0.8412604669781572 -1.26 L 0.73 -1.26 L 0.6187395330218428 -1.26 L 0.513058130441221 -1.26 L 0.41825509907063324 -1.26 L 0.3390842587659851 -1.26 L 0.27951556604879046 -1.26 L 0.24253604390908817 -1.26 L 0.22999999999999998 -1.26 " stroke="#191919" stroke-width="0.35 px" style="stroke-width:0.35;stroke-miterlimit:4;stroke-dasharray:none;fill:none;fill-opacity:1;fill-rule: evenodd"/>
<path id="Shape2DView_nwe0001"  d="M 1.23 -1.25 L 1.23 -1.26 " stroke="#191919" stroke-width="0.35 px" style="stroke-width:0.35;stroke-miterlimit:4;stroke-dasharray:none;fill:none;fill-opacity:1;fill-rule: evenodd"/>
<path id="Shape2DView_nwe0002"  d="M -0.43666666666700005 -1.25 L 10.596666666667 -1.25 " stroke="#191919" stroke-width="0.35 px" style="stroke-width:0.35;stroke-miterlimit:4;stroke-dasharray:none;fill:none;fill-opacity:1;fill-rule: evenodd"/>
<path id="Shape2DView_nwe0003"  d="M -1.27 -0.4166666666669998 A 0.833333 0.833333 0 0 1 -0.436667 -1.25" stroke="#191919" stroke-width="0.35 px" style="stroke-width:0.35;stroke-miterlimit:4;stroke-dasharray:none;fill:none;fill-opacity:1;fill-rule: evenodd"/>
<path id="Shape2DView_nwe0004"  d="M 11.43 -0.4166666666669998 A 0.833333 0.833333 0 0 0 10.5967 -1.25" stroke="#191919" stroke-width="0.35 px" style="stroke-width:0.35;stroke-miterlimit:4;stroke-dasharray:none;fill:none;fill-opacity:1;fill-rule: evenodd"/>
<path id="Shape2DView_nwe0005"  d="M -1.27 0.41666666666700003 L -1.27 -0.41666666666700003 " stroke="#191919" stroke-width="0.35 px" style="stroke-width:0.35;stroke-miterlimit:4;stroke-dasharray:none;fill:none;fill-opacity:1;fill-rule: evenodd"/>
<path id="Shape2DView_nwe0006"  d="M 11.43 0.41666666666700003 L 11.43 -0.41666666666700003 " stroke="#191919" stroke-width="0.35 px" style="stroke-width:0.35;stroke-miterlimit:4;stroke-dasharray:none;fill:none;fill-opacity:1;fill-rule: evenodd"/>
<path id="Shape2DView_nwe0007"  d="M -0.43666666666700005 1.25 L 10.596666666667 1.25 " stroke="#191919" stroke-width="0.35 px" style="stroke-width:0.35;stroke-miterlimit:4;stroke-dasharray:none;fill:none;fill-opacity:1;fill-rule: evenodd"/>
<path id="Shape2DView_nwe0008"  d="M -0.4366666666669998 1.25 A 0.833333 0.833333 0 0 1 -1.27 0.416667" stroke="#191919" stroke-width="0.35 px" style="stroke-width:0.35;stroke-miterlimit:4;stroke-dasharray:none;fill:none;fill-opacity:1;fill-rule: evenodd"/>
<path id="Shape2DView_nwe0009"  d="M 10.596666666667 1.25 A 0.833333 0.833333 0 0 0 11.43 0.416667" stroke="#191919" stroke-width="0.35 px" style="stroke-width:0.35;stroke-miterlimit:4;stroke-dasharray:none;fill:none;fill-opacity:1;fill-rule: evenodd"/>
<path id="Shape2DView_nwe0010"  d="M -0.43666666666700005 -0.416666666667 L 10.596666666667 -0.416666666667 " stroke="#191919" stroke-width="0.35 px" style="stroke-width:0.35;stroke-miterlimit:4;stroke-dasharray:none;fill:none;fill-opacity:1;fill-rule: evenodd"/>
<path id="Shape2DView_nwe0011"  d="M -0.436666666667 -0.416666666667 L -0.436666666667 -0.5099703967530526 L -0.436666666667 -0.6021007782971878 L -0.436666666667 -0.6918992182961958 L -0.436666666667 -0.7782364492648204 L -0.436666666667 -0.8600267304296031 L -0.436666666667 -0.9362415015490699 L -0.436666666667 -1.0059223176555538 L -0.436666666667 -1.0681929020567642 L -0.436666666667 -1.1222701660236212 L -0.436666666667 -1.1674740565853823 L -0.436666666667 -1.203236108590325 L -0.436666666667 -1.2291065934848613 L -0.436666666667 -1.2447601749110375 L -0.436666666667 -1.25 " stroke="#191919" stroke-width="0.35 px" style="stroke-width:0.35;stroke-miterlimit:4;stroke-dasharray:none;fill:none;fill-opacity:1;fill-rule: evenodd"/>
<path id="Shape2DView_nwe0012"  d="M 10.596666666667 -1.25 L 10.596666666667 -1.2447601749110375 L 10.596666666667 -1.2291065934848613 L 10.596666666667 -1.203236108590325 L 10.596666666667 -1.1674740565853823 L 10.596666666667 -1.1222701660236212 L 10.596666666667 -1.0681929020567642 L 10.596666666667 -1.0059223176555538 L 10.596666666667 -0.9362415015490702 L 10.596666666667 -0.8600267304296031 L 10.596666666667 -0.7782364492648205 L 10.596666666667 -0.6918992182961958 L 10.596666666667 -0.6021007782971879 L 10.596666666667 -0.5099703967530526 L 10.596666666667 -0.41666666666700003 " stroke="#191919" stroke-width="0.35 px" style="stroke-width:0.35;stroke-miterlimit:4;stroke-dasharray:none;fill:none;fill-opacity:1;fill-rule: evenodd"/>
<path id="Shape2DView_nwe0015"  d="M -0.436666666667 0.41666666666700003 L -0.436666666667 -0.41666666666700003 " stroke="#191919" stroke-width="0.35 px" style="stroke-width:0.35;stroke-miterlimit:4;stroke-dasharray:none;fill:none;fill-opacity:1;fill-rule: evenodd"/>
<path id="Shape2DView_nwe0016"  d="M -0.43666666666700005 0.416666666667 L 10.596666666667 0.416666666667 " stroke="#191919" stroke-width="0.35 px" style="stroke-width:0.35;stroke-miterlimit:4;stroke-dasharray:none;fill:none;fill-opacity:1;fill-rule: evenodd"/>
<path id="Shape2DView_nwe0017"  d="M 10.596666666667 0.41666666666700003 L 10.596666666667 -0.41666666666700003 " stroke="#191919" stroke-width="0.35 px" style="stroke-width:0.35;stroke-miterlimit:4;stroke-dasharray:none;fill:none;fill-opacity:1;fill-rule: evenodd"/>
<path id="Shape2DView_nwe0018"  d="M -1.27 -0.416666666667 L -1.2647601749110375 -0.416666666667 L -1.2491065934848613 -0.416666666667 L -1.223236108590325 -0.416666666667 L -1.1874740565853823 -0.416666666667 L -1.1422701660236212 -0.416666666667 L -1.0881929020567642 -0.416666666667 L -1.025922317655554 -0.416666666667 L -0.9562415015490702 -0.416666666667 L -0.8800267304296032 -0.416666666667 L -0.7982364492648206 -0.416666666667 L -0.7118992182961961 -0.416666666667 L -0.622100778297188 -0.416666666667 L -0.5299703967530527 -0.416666666667 L -0.4366666666670002 -0.416666666667 " stroke="#191919" stroke-width="0.35 px" style="stroke-width:0.35;stroke-miterlimit:4;stroke-dasharray:none;fill:none;fill-opacity:1;fill-rule: evenodd"/>
<path id="Shape2DView_nwe0019"  d="M 11.43 -0.416666666667 L 11.424760174911038 -0.416666666667 L 11.40910659348486 -0.416666666667 L 11.383236108590324 -0.416666666667 L 11.347474056585382 -0.416666666667 L 11.302270166023622 -0.416666666667 L 11.248192902056765 -0.41666666666700003 L 11.185922317655553 -0.41666666666700003 L 11.11624150154907 -0.41666666666700003 L 11.040026730429602 -0.41666666666700003 L 10.95823644926482 -0.41666666666700003 L 10.871899218296196 -0.41666666666700003 L 10.782100778297188 -0.41666666666700003 L 10.689970396753052 -0.41666666666700003 L 10.596666666667 -0.41666666666700003 " stroke="#191919" stroke-width="0.35 px" style="stroke-width:0.35;stroke-miterlimit:4;stroke-dasharray:none;fill:none;fill-opacity:1;fill-rule: evenodd"/>
<path id="Shape2DView_nwe0020"  d="M -1.27 0.416666666667 L -1.2647601749110375 0.416666666667 L -1.2491065934848613 0.416666666667 L -1.223236108590325 0.416666666667 L -1.1874740565853823 0.416666666667 L -1.1422701660236212 0.416666666667 L -1.0881929020567642 0.416666666667 L -1.0259223176555539 0.416666666667 L -0.9562415015490702 0.416666666667 L -0.8800267304296031 0.416666666667 L -0.7982364492648205 0.416666666667 L -0.7118992182961958 0.416666666667 L -0.6221007782971879 0.416666666667 L -0.5299703967530526 0.416666666667 L -0.43666666666700005 0.416666666667 " stroke="#191919" stroke-width="0.35 px" style="stroke-width:0.35;stroke-miterlimit:4;stroke-dasharray:none;fill:none;fill-opacity:1;fill-rule: evenodd"/>
<path id="Shape2DView_nwe0021"  d="M 10.596666666667 0.416666666667 L 10.689970396753052 0.416666666667 L 10.782100778297188 0.41666666666700003 L 10.871899218296196 0.41666666666700003 L 10.95823644926482 0.4166666666670001 L 11.040026730429602 0.4166666666670001 L 11.11624150154907 0.41666666666700014 L 11.185922317655553 0.41666666666700014 L 11.248192902056763 0.41666666666700014 L 11.302270166023622 0.4166666666670002 L 11.347474056585382 0.4166666666670002 L 11.383236108590324 0.4166666666670002 L 11.40910659348486 0.4166666666670002 L 11.424760174911038 0.4166666666670002 L 11.43 0.4166666666670002 " stroke="#191919" stroke-width="0.35 px" style="stroke-width:0.35;stroke-miterlimit:4;stroke-dasharray:none;fill:none;fill-opacity:1;fill-rule: evenodd"/>
<path id="Shape2DView_nwe0022"  d="M -0.436666666667 1.25 L -0.436666666667 1.2447601749110375 L -0.436666666667 1.2291065934848613 L -0.436666666667 1.203236108590325 L -0.436666666667 1.1674740565853823 L -0.436666666667 1.1222701660236212 L -0.43666666666700005 1.0681929020567642 L -0.43666666666700005 1.005922317655554 L -0.43666666666700005 0.9362415015490702 L -0.43666666666700005 0.8600267304296032 L -0.43666666666700005 0.7782364492648206 L -0.43666666666700005 0.691899218296196 L -0.43666666666700005 0.602100778297188 L -0.43666666666700005 0.5099703967530527 L -0.43666666666700005 0.4166666666670002 " stroke="#191919" stroke-width="0.35 px" style="stroke-width:0.35;stroke-miterlimit:4;stroke-dasharray:none;fill:none;fill-opacity:1;fill-rule: evenodd"/>
<path id="Shape2DView_nwe0023"  d="M 10.596666666667 0.4166666666669998 L 10.596666666667 0.5099703967530523 L 10.596666666667 0.6021007782971877 L 10.596666666667 0.6918992182961956 L 10.596666666667 0.7782364492648203 L 10.596666666667 0.860026730429603 L 10.596666666667 0.9362415015490699 L 10.596666666667 1.0059223176555536 L 10.596666666667 1.068192902056764 L 10.596666666667 1.122270166023621 L 10.596666666667 1.167474056585382 L 10.596666666667 1.203236108590325 L 10.596666666667 1.2291065934848613 L 10.596666666667 1.2447601749110375 L 10.596666666667 1.25 " stroke="#191919" stroke-width="0.35 px" style="stroke-width:0.35;stroke-miterlimit:4;stroke-dasharray:none;fill:none;fill-opacity:1;fill-rule: evenodd"/>
<path id="Shape2DView_nwe0026"  d="M 0.22999999999999998 -1.26 L 0.22999999999999998 -1.25 " stroke="#191919" stroke-width="0.35 px" style="stroke-width:0.35;stroke-miterlimit:4;stroke-dasharray:none;fill:none;fill-opacity:1;fill-rule: evenodd"/>
<title>b'Shape2DView'</title>
</g>
<g id="Rectangle" transform="translate(1.397000,1.377000) scale(1,-1)">
<rect fill="#ff0000" id="origin" width="1" height="1" x="0" y="0" />
<title>b'Rectangle'</title>
</g>
</svg>