<?xml version="1.0"?>
<!DOCTYPE svg PUBLIC "-//W3C//DTD SVG 1.1//EN" "http://www.w3.org/Graphics/SVG/1.1/DTD/svg11.dtd">
<svg width="31.899650441264015mm" height="5.625483341985569mm" viewBox="0 0 31.899650441264015 5.625483341985569" xmlns="http://www.w3.org/2000/svg" version="1.1">
<g id="Shape2DView" transform="translate(0.709825,2.812742) scale(1,-1)">
<path id="Shape2DView_nwe0000"  d="M 8.74 2.5 L 11.365 2.5 " stroke="#191919" stroke-width="0.35 px" style="stroke-width:0.35;stroke-miterlimit:4;stroke-dasharray:none;fill:none;fill-opacity:1;fill-rule: evenodd"/>
<path id="Shape2DView_nwe0001"  d="M 11.365 2.5 L 11.365 2.437319780454559 L 11.365 2.252422169756048 L 11.365 1.9545787061700746 L 11.365 1.5587245046468339 L 11.365 1.0847093477938954 L 11.365 0.5563023348907861 L 11.365 1.5308084989341916e-16 L 11.365 -0.5563023348907858 L 11.365 -1.0847093477938952 L 11.365 -1.5587245046468337 L 11.365 -1.9545787061700746 L 11.365 -2.2524221697560476 L 11.365 -2.437319780454559 L 11.365 -2.5 " stroke="#191919" stroke-width="0.35 px" style="stroke-width:0.35;stroke-miterlimit:4;stroke-dasharray:none;fill:none;fill-opacity:1;fill-rule: evenodd"/>
<path id="Shape2DView_nwe0002"  d="M 7.49 1.25 L 7.49 1.2186598902272796 L 7.49 1.126211084878024 L 7.49 0.9772893530850373 L 7.49 0.7793622523234169 L 7.49 0.5423546738969477 L 7.49 0.27815116744539303 L 7.49 7.654042494670958e-17 L 7.49 -0.2781511674453929 L 7.49 -0.5423546738969476 L 7.49 -0.7793622523234168 L 7.49 -0.9772893530850373 L 7.49 -1.1262110848780238 L 7.49 -1.2186598902272796 L 7.49 -1.25 " stroke="#191919" stroke-width="0.35 px" style="stroke-width:0.35;stroke-miterlimit:4;stroke-dasharray:none;fill:none;fill-opacity:1;fill-rule: evenodd"/>
<path id="Shape2DView_nwe0003"  d="M 8.74 2.5 A 1.25 1.25 0 0 1 7.49 1.25" stroke="#191919" stroke-width="0.35 px" style="stroke-width:0.35;stroke-miterlimit:4;stroke-dasharray:none;fill:none;fill-opacity:1;fill-rule: evenodd"/>
<path id="Shape2DView_nwe0004"  d="M 7.49 0.4 L 7.49 0.3899711648727295 L 7.49 0.36038754716096766 L 7.49 0.312732592987212 L 7.49 0.24939592074349345 L 7.49 0.1735534956470233 L 7.49 0.08900837358252581 L 7.49 4.898587196589413e-17 L 7.49 -0.08900837358252572 L 7.49 -0.17355349564702321 L 7.49 -0.24939592074349337 L 7.49 -0.3127325929872119 L 7.49 -0.36038754716096766 L 7.49 -0.3899711648727295 L 7.49 -0.4 " stroke="#191919" stroke-width="0.35 px" style="stroke-width:0.35;stroke-miterlimit:4;stroke-dasharray:none;fill:none;fill-opacity:1;fill-rule: evenodd"/>
<path id="Shape2DView_nwe0005"  d="M 11.365 2.25 L 19.115 2.25 " stroke="#191919" stroke-width="0.35 px" style="stroke-width:0.35;stroke-miterlimit:4;stroke-dasharray:none;fill:none;fill-opacity:1;fill-rule: evenodd"/>
<path id="Shape2DView_nwe0006"  d="M 19.115 2.5 L 19.115 2.437319780454559 L 19.115 2.252422169756048 L 19.115 1.9545787061700746 L 19.115 1.5587245046468339 L 19.115 1.0847093477938954 L 19.115 0.5563023348907861 L 19.115 1.5308084989341916e-16 L 19.115 -0.5563023348907858 L 19.115 -1.0847093477938952 L 19.115 -1.5587245046468337 L 19.115 -1.9545787061700746 L 19.115 -2.2524221697560476 L 19.115 -2.437319780454559 L 19.115 -2.5 " stroke="#191919" stroke-width="0.35 px" style="stroke-width:0.35;stroke-miterlimit:4;stroke-dasharray:none;fill:none;fill-opacity:1;fill-rule: evenodd"/>
<path id="Shape2DView_nwe0007"  d="M 2.0212861992297212e-16 0.4 A 0.4 0.4 0 1 1 -7.34788e-17 -0.4" stroke="#191919" stroke-width="0.35 px" style="stroke-width:0.35;stroke-miterlimit:4;stroke-dasharray:none;fill:none;fill-opacity:1;fill-rule: evenodd"/>
<path id="Shape2DView_nwe0008"  d="M 19.115 2.5 L 21.74 2.5 " stroke="#191919" stroke-width="0.35 px" style="stroke-width:0.35;stroke-miterlimit:4;stroke-dasharray:none;fill:none;fill-opacity:1;fill-rule: evenodd"/>
<path id="Shape2DView_nwe0009"  d="M 21.74 2.5 A 1.25 1.25 0 0 0 22.99 1.25" stroke="#191919" stroke-width="0.35 px" style="stroke-width:0.35;stroke-miterlimit:4;stroke-dasharray:none;fill:none;fill-opacity:1;fill-rule: evenodd"/>
<path id="Shape2DView_nwe0010"  d="M 22.99 1.25 L 22.99 1.2186598902272796 L 22.99 1.126211084878024 L 22.99 0.9772893530850373 L 22.99 0.7793622523234169 L 22.99 0.5423546738969477 L 22.99 0.27815116744539303 L 22.99 7.654042494670958e-17 L 22.99 -0.2781511674453929 L 22.99 -0.5423546738969476 L 22.99 -0.7793622523234168 L 22.99 -0.9772893530850373 L 22.99 -1.1262110848780238 L 22.99 -1.2186598902272796 L 22.99 -1.25 " stroke="#191919" stroke-width="0.35 px" style="stroke-width:0.35;stroke-miterlimit:4;stroke-dasharray:none;fill:none;fill-opacity:1;fill-rule: evenodd"/>
<path id="Shape2DView_nwe0011"  d="M 22.99 0.4 L 22.99 0.3899711648727295 L 22.99 0.36038754716096766 L 22.99 0.312732592987212 L 22.99 0.24939592074349345 L 22.99 0.1735534956470233 L 22.99 0.08900837358252581 L 22.99 4.898587196589413e-17 L 22.99 -0.08900837358252572 L 22.99 -0.17355349564702321 L 22.99 -0.24939592074349337 L 22.99 -0.3127325929872119 L 22.99 -0.36038754716096766 L 22.99 -0.3899711648727295 L 22.99 -0.4 " stroke="#191919" stroke-width="0.35 px" style="stroke-width:0.35;stroke-miterlimit:4;stroke-dasharray:none;fill:none;fill-opacity:1;fill-rule: evenodd"/>
<path id="Shape2DView_nwe0012"  d="M 30.48 -0.4 A 0.4 0.4 0 0 1 30.48 0.4" stroke="#191919" stroke-width="0.35 px" style="stroke-width:0.35;stroke-miterlimit:4;stroke-dasharray:none;fill:none;fill-opacity:1;fill-rule: evenodd"/>
<path id="Shape2DView_nwe0013"  d="M 8.74 2.5 L 8.74 2.437319780454559 L 8.74 2.252422169756048 L 8.74 1.9545787061700746 L 8.74 1.5587245046468339 L 8.74 1.0847093477938954 L 8.74 0.5563023348907861 L 8.74 1.5308084989341916e-16 L 8.74 -0.5563023348907858 L 8.74 -1.0847093477938952 L 8.74 -1.5587245046468337 L 8.74 -1.9545787061700746 L 8.74 -2.2524221697560476 L 8.74 -2.437319780454559 L 8.74 -2.5 " stroke="#191919" stroke-width="0.35 px" style="stroke-width:0.35;stroke-miterlimit:4;stroke-dasharray:none;fill:none;fill-opacity:1;fill-rule: evenodd"/>
<path id="Shape2DView_nwe0014"  d="M 1.2 -0.4 L 1.2 -0.3899711648727295 L 1.2 -0.3603875471609677 L 1.2 -0.312732592987212 L 1.1999999999999997 -0.24939592074349348 L 1.1999999999999997 -0.17355349564702335 L 1.1999999999999997 -0.08900837358252586 L 1.1999999999999997 -9.797174393178826e-17 L 1.1999999999999997 0.08900837358252567 L 1.1999999999999997 0.17355349564702316 L 1.1999999999999997 0.24939592074349337 L 1.2 0.31273259298721184 L 1.2 0.36038754716096766 L 1.2 0.3899711648727294 L 1.2 0.4 " stroke="#191919" stroke-width="0.35 px" style="stroke-width:0.35;stroke-miterlimit:4;stroke-dasharray:none;fill:none;fill-opacity:1;fill-rule: evenodd"/>
<path id="Shape2DView_nwe0015"  d="M 21.74 2.5 L 21.74 2.437319780454559 L 21.74 2.252422169756048 L 21.74 1.9545787061700746 L 21.74 1.5587245046468339 L 21.74 1.0847093477938954 L 21.74 0.5563023348907861 L 21.74 1.5308084989341916e-16 L 21.74 -0.5563023348907858 L 21.74 -1.0847093477938952 L 21.74 -1.5587245046468337 L 21.74 -1.9545787061700746 L 21.74 -2.2524221697560476 L 21.74 -2.437319780454559 L 21.74 -2.5 " stroke="#191919" stroke-width="0.35 px" style="stroke-width:0.35;stroke-miterlimit:4;stroke-dasharray:none;fill:none;fill-opacity:1;fill-rule: evenodd"/>
<path id="Shape2DView_nwe0016"  d="M 29.28 0.4 L 29.28 0.3899711648727295 L 29.28 0.36038754716096766 L 29.28 0.312732592987212 L 29.28 0.24939592074349345 L 29.28 0.1735534956470233 L 29.28 0.08900837358252581 L 29.28 4.898587196589413e-17 L 29.28 -0.08900837358252572 L 29.28 -0.17355349564702321 L 29.28 -0.24939592074349337 L 29.28 -0.3127325929872119 L 29.28 -0.36038754716096766 L 29.28 -0.3899711648727295 L 29.28 -0.4 " stroke="#191919" stroke-width="0.35 px" style="stroke-width:0.35;stroke-miterlimit:4;stroke-dasharray:none;fill:none;fill-opacity:1;fill-rule: evenodd"/>
<path id="Shape2DView_nwe0017"  d="M 11.365 -2.5 L 8.74 -2.5 " stroke="#191919" stroke-width="0.35 px" style="stroke-width:0.35;stroke-miterlimit:4;stroke-dasharray:none;fill:none;fill-opacity:1;fill-rule: evenodd"/>
<path id="Shape2DView_nwe0018"  d="M 8.74 -2.5 Q 7.601152685787889 -2.3888956122815443 7.49 -1.25 " stroke="#191919" stroke-width="0.35 px" style="stroke-width:0.35;stroke-miterlimit:4;stroke-dasharray:none;fill:none;fill-opacity:1;fill-rule: evenodd"/>
<path id="Shape2DView_nwe0019"  d="M 19.115 -2.25 L 11.365 -2.25 " stroke="#191919" stroke-width="0.35 px" style="stroke-width:0.35;stroke-miterlimit:4;stroke-dasharray:none;fill:none;fill-opacity:1;fill-rule: evenodd"/>
<path id="Shape2DView_nwe0020"  d="M 1.2000000000000002 -0.4 L 7.49 -0.4 " stroke="#191919" stroke-width="0.35 px" style="stroke-width:0.35;stroke-miterlimit:4;stroke-dasharray:none;fill:none;fill-opacity:1;fill-rule: evenodd"/>
<path id="Shape2DView_nwe0021"  d="M 1.2000000000000002 0.4 L 7.49 0.4 " stroke="#191919" stroke-width="0.35 px" style="stroke-width:0.35;stroke-miterlimit:4;stroke-dasharray:none;fill:none;fill-opacity:1;fill-rule: evenodd"/>
<path id="Shape2DView_nwe0022"  d="M 1.2000000000000008 -0.4 Q 0.9360364957912745 -0.4000000000000001 0.6720729915825483 -0.4 Q 0.5572248185216495 -0.4 0.44237664546075095 -0.4 Q 0.011752221021809506 -0.4000000000000001 0.0 -0.4 " stroke="#191919" stroke-width="0.35 px" style="stroke-width:0.35;stroke-miterlimit:4;stroke-dasharray:none;fill:none;fill-opacity:1;fill-rule: evenodd"/>
<path id="Shape2DView_nwe0023"  d="M 1.2000000000000008 0.4 Q 0.9360364957912745 0.4000000000000001 0.6720729915825483 0.4 Q 0.5572248185216495 0.4 0.44237664546075095 0.4 Q 0.011752221021809506 0.4000000000000001 0.0 0.4 " stroke="#191919" stroke-width="0.35 px" style="stroke-width:0.35;stroke-miterlimit:4;stroke-dasharray:none;fill:none;fill-opacity:1;fill-rule: evenodd"/>
<path id="Shape2DView_nwe0024"  d="M 21.74 -2.5 L 19.115 -2.5 " stroke="#191919" stroke-width="0.35 px" style="stroke-width:0.35;stroke-miterlimit:4;stroke-dasharray:none;fill:none;fill-opacity:1;fill-rule: evenodd"/>
<path id="Shape2DView_nwe0025"  d="M 21.74 -2.5 Q 22.01496198353313 -2.4362672396946587 22.289923967066265 -2.3725344793893175 Q 22.409557480688996 -2.2959520791773054 22.52919099431172 -2.2193696789652932 Q 22.977758105165826 -1.8383927402524947 22.99 -1.25 " stroke="#191919" stroke-width="0.35 px" style="stroke-width:0.35;stroke-miterlimit:4;stroke-dasharray:none;fill:none;fill-opacity:1;fill-rule: evenodd"/>
<path id="Shape2DView_nwe0026"  d="M 22.99 -0.4 L 29.28 -0.4 " stroke="#191919" stroke-width="0.35 px" style="stroke-width:0.35;stroke-miterlimit:4;stroke-dasharray:none;fill:none;fill-opacity:1;fill-rule: evenodd"/>
<path id="Shape2DView_nwe0027"  d="M 22.99 0.4 L 29.28 0.4 " stroke="#191919" stroke-width="0.35 px" style="stroke-width:0.35;stroke-miterlimit:4;stroke-dasharray:none;fill:none;fill-opacity:1;fill-rule: evenodd"/>
<path id="Shape2DView_nwe0028"  d="M 29.280000000000005 0.39999999999999997 Q 30.373315413075357 0.4000000000000001 30.479999999999997 0.4 " stroke="#191919" stroke-width="0.35 px" style="stroke-width:0.35;stroke-miterlimit:4;stroke-dasharray:none;fill:none;fill-opacity:1;fill-rule: evenodd"/>
<path id="Shape2DView_nwe0029"  d="M 29.280000000000005 -0.39999999999999997 Q 30.373315413075357 -0.4000000000000001 30.479999999999997 -0.4 " stroke="#191919" stroke-width="0.35 px" style="stroke-width:0.35;stroke-miterlimit:4;stroke-dasharray:none;fill:none;fill-opacity:1;fill-rule: evenodd"/>
<title>b'Shape2DView'</title>
</g>
<g id="Rectangle" transform="translate(0.709825,2.812742) scale(1,-1)">
<rect fill="#ff0000" id="origin" width="1" height="1" x="0" y="0" />
<title>b'Rectangle'</title>
</g>
</svg>