<?xml version="1.0"?>
<!DOCTYPE svg PUBLIC "-//W3C//DTD SVG 1.1//EN" "http://www.w3.org/Graphics/SVG/1.1/DTD/svg11.dtd">
<svg width="42.26285044126401mm" height="7.228683341985569mm" viewBox="0 0 42.26285044126401 7.228683341985569" xmlns="http://www.w3.org/2000/svg" version="1.1">
<g id="Shape2DView" transform="translate(0.811425,3.614342) scale(1,-1)">
<path id="Shape2DView_nwe0000"  d="M 1.32 -3.2 L 39.32 -3.2 " stroke="#191919" stroke-width="0.35 px" style="stroke-width:0.35;stroke-miterlimit:4;stroke-dasharray:none;fill:none;fill-opacity:1;fill-rule: evenodd"/>
<path id="Shape2DView_nwe0001"  d="M 1.32 3.2 L 39.32 3.2 " stroke="#191919" stroke-width="0.35 px" style="stroke-width:0.35;stroke-miterlimit:4;stroke-dasharray:none;fill:none;fill-opacity:1;fill-rule: evenodd"/>
<path id="Shape2DView_nwe0002"  d="M 1.32 3.2 L 1.32 -3.2 " stroke="#191919" stroke-width="0.35 px" style="stroke-width:0.35;stroke-miterlimit:4;stroke-dasharray:none;fill:none;fill-opacity:1;fill-rule: evenodd"/>
<path id="Shape2DView_nwe0003"  d="M 39.32 3.2 L 39.32 -3.2 " stroke="#191919" stroke-width="0.35 px" style="stroke-width:0.35;stroke-miterlimit:4;stroke-dasharray:none;fill:none;fill-opacity:1;fill-rule: evenodd"/>
<path id="Shape2DView_nwe0004"  d="M 2.4492935982947065e-17 0.4 A 0.4 0.4 0 0 1 -7.34788e-17 -0.4" stroke="#191919" stroke-width="0.35 px" style="stroke-width:0.35;stroke-miterlimit:4;stroke-dasharray:none;fill:none;fill-opacity:1;fill-rule: evenodd"/>
<path id="Shape2DView_nwe0005"  d="M 40.64 -0.4 A 0.4 0.4 0 0 1 40.64 0.4" stroke="#191919" stroke-width="0.35 px" style="stroke-width:0.35;stroke-miterlimit:4;stroke-dasharray:none;fill:none;fill-opacity:1;fill-rule: evenodd"/>
<path id="Shape2DView_nwe0006"  d="M 1.2 -0.4 L 1.2 -0.3899711648727295 L 1.2 -0.3603875471609677 L 1.1999999999999997 -0.312732592987212 L 1.1999999999999997 -0.24939592074349348 L 1.1999999999999997 -0.17355349564702335 L 1.1999999999999997 -0.08900837358252586 L 1.1999999999999997 -9.797174393178826e-17 L 1.1999999999999997 0.08900837358252567 L 1.1999999999999997 0.17355349564702316 L 1.1999999999999997 0.24939592074349337 L 1.1999999999999997 0.31273259298721184 L 1.2 0.36038754716096766 L 1.2 0.3899711648727294 L 1.2 0.4 " stroke="#191919" stroke-width="0.35 px" style="stroke-width:0.35;stroke-miterlimit:4;stroke-dasharray:none;fill:none;fill-opacity:1;fill-rule: evenodd"/>
<path id="Shape2DView_nwe0007"  d="M 39.44 0.4 L 39.44 0.3899711648727295 L 39.44 0.36038754716096766 L 39.44 0.312732592987212 L 39.44 0.24939592074349345 L 39.44 0.1735534956470233 L 39.44 0.08900837358252581 L 39.44 4.898587196589413e-17 L 39.44 -0.08900837358252572 L 39.44 -0.17355349564702321 L 39.44 -0.24939592074349337 L 39.44 -0.3127325929872119 L 39.44 -0.36038754716096766 L 39.44 -0.3899711648727295 L 39.44 -0.4 " stroke="#191919" stroke-width="0.35 px" style="stroke-width:0.35;stroke-miterlimit:4;stroke-dasharray:none;fill:none;fill-opacity:1;fill-rule: evenodd"/>
<path id="Shape2DView_nwe0008"  d="M 1.2000000000000002 -0.4 L 1.32 -0.4 " stroke="#191919" stroke-width="0.35 px" style="stroke-width:0.35;stroke-miterlimit:4;stroke-dasharray:none;fill:none;fill-opacity:1;fill-rule: evenodd"/>
<path id="Shape2DView_nwe0009"  d="M 1.2000000000000002 0.4 L 1.32 0.4 " stroke="#191919" stroke-width="0.35 px" style="stroke-width:0.35;stroke-miterlimit:4;stroke-dasharray:none;fill:none;fill-opacity:1;fill-rule: evenodd"/>
<path id="Shape2DView_nwe0010"  d="M 39.32 -0.4 L 39.44 -0.4 " stroke="#191919" stroke-width="0.35 px" style="stroke-width:0.35;stroke-miterlimit:4;stroke-dasharray:none;fill:none;fill-opacity:1;fill-rule: evenodd"/>
<path id="Shape2DView_nwe0011"  d="M 39.32 0.4 L 39.44 0.4 " stroke="#191919" stroke-width="0.35 px" style="stroke-width:0.35;stroke-miterlimit:4;stroke-dasharray:none;fill:none;fill-opacity:1;fill-rule: evenodd"/>
<path id="Shape2DView_nwe0012"  d="M 1.2 -0.39999999999999997 Q 0.10668518851679731 -0.4 0.0 -0.4000000000000001 " stroke="#191919" stroke-width="0.35 px" style="stroke-width:0.35;stroke-miterlimit:4;stroke-dasharray:none;fill:none;fill-opacity:1;fill-rule: evenodd"/>
<path id="Shape2DView_nwe0013"  d="M 1.2 0.39999999999999997 Q 0.10668518851679731 0.4 0.0 0.4000000000000001 " stroke="#191919" stroke-width="0.35 px" style="stroke-width:0.35;stroke-miterlimit:4;stroke-dasharray:none;fill:none;fill-opacity:1;fill-rule: evenodd"/>
<path id="Shape2DView_nwe0014"  d="M 39.43999999999998 0.4 Q 40.53316387195244 0.4000000000000001 40.64 0.4 " stroke="#191919" stroke-width="0.35 px" style="stroke-width:0.35;stroke-miterlimit:4;stroke-dasharray:none;fill:none;fill-opacity:1;fill-rule: evenodd"/>
<path id="Shape2DView_nwe0015"  d="M 39.43999999999998 -0.4 Q 40.53316387195244 -0.4000000000000001 40.64 -0.4 " stroke="#191919" stroke-width="0.35 px" style="stroke-width:0.35;stroke-miterlimit:4;stroke-dasharray:none;fill:none;fill-opacity:1;fill-rule: evenodd"/>
<title>b'Shape2DView'</title>
</g>
<g id="Rectangle" transform="translate(0.811425,3.614342) scale(1,-1)">
<rect fill="#ff0000" id="origin" width="1" height="1" x="0" y="0" />
<title>b'Rectangle'</title>
</g>
</svg>