<?xml version="1.0"?>
<!DOCTYPE svg PUBLIC "-//W3C//DTD SVG 1.1//EN" "http://www.w3.org/Graphics/SVG/1.1/DTD/svg11.dtd">
<svg width="26.718050441264012mm" height="6.523883341985569mm" viewBox="0 0 26.718050441264012 6.523883341985569" xmlns="http://www.w3.org/2000/svg" version="1.1">
<g id="Shape2DView" transform="translate(0.659025,3.261942) scale(1,-1)">
<path id="Shape2DView_nwe0000"  d="M 5.7 3.0 L 8.45 3.0 " stroke="#191919" stroke-width="0.35 px" style="stroke-width:0.35;stroke-miterlimit:4;stroke-dasharray:none;fill:none;fill-opacity:1;fill-rule: evenodd"/>
<path id="Shape2DView_nwe0001"  d="M 8.45 3.0 L 8.45 2.924783736545471 L 8.45 2.7029066037072575 L 8.45 2.3454944474040893 L 8.45 1.8704694055762008 L 8.45 1.3016512173526746 L 8.45 0.6675628018689433 L 8.45 1.8369701987210297e-16 L 8.45 -0.667562801868943 L 8.45 -1.3016512173526742 L 8.45 -1.8704694055762006 L 8.45 -2.3454944474040893 L 8.45 -2.702906603707257 L 8.45 -2.924783736545471 L 8.45 -3.0 " stroke="#191919" stroke-width="0.35 px" style="stroke-width:0.35;stroke-miterlimit:4;stroke-dasharray:none;fill:none;fill-opacity:1;fill-rule: evenodd"/>
<path id="Shape2DView_nwe0002"  d="M 4.2 1.5 L 4.2 1.4623918682727355 L 4.2 1.3514533018536288 L 4.2 1.1727472237020446 L 4.2 0.9352347027881004 L 4.2 0.6508256086763373 L 4.2 0.3337814009344717 L 4.2 9.184850993605148e-17 L 4.2 -0.3337814009344715 L 4.2 -0.6508256086763371 L 4.2 -0.9352347027881003 L 4.2 -1.1727472237020446 L 4.2 -1.3514533018536286 L 4.2 -1.4623918682727355 L 4.2 -1.5 " stroke="#191919" stroke-width="0.35 px" style="stroke-width:0.35;stroke-miterlimit:4;stroke-dasharray:none;fill:none;fill-opacity:1;fill-rule: evenodd"/>
<path id="Shape2DView_nwe0003"  d="M 5.7 3.0 A 1.5 1.5 0 0 1 4.2 1.5" stroke="#191919" stroke-width="0.35 px" style="stroke-width:0.35;stroke-miterlimit:4;stroke-dasharray:none;fill:none;fill-opacity:1;fill-rule: evenodd"/>
<path id="Shape2DView_nwe0004"  d="M 8.45 2.7 L 16.95 2.7 " stroke="#191919" stroke-width="0.35 px" style="stroke-width:0.35;stroke-miterlimit:4;stroke-dasharray:none;fill:none;fill-opacity:1;fill-rule: evenodd"/>
<path id="Shape2DView_nwe0005"  d="M 16.95 3.0 L 16.95 2.924783736545471 L 16.95 2.7029066037072575 L 16.95 2.3454944474040893 L 16.95 1.8704694055762008 L 16.95 1.3016512173526746 L 16.95 0.6675628018689433 L 16.95 1.8369701987210297e-16 L 16.95 -0.667562801868943 L 16.95 -1.3016512173526742 L 16.95 -1.8704694055762006 L 16.95 -2.3454944474040893 L 16.95 -2.702906603707257 L 16.95 -2.924783736545471 L 16.95 -3.0 " stroke="#191919" stroke-width="0.35 px" style="stroke-width:0.35;stroke-miterlimit:4;stroke-dasharray:none;fill:none;fill-opacity:1;fill-rule: evenodd"/>
<path id="Shape2DView_nwe0006"  d="M 2.0212861992297212e-16 0.4 A 0.4 0.4 0 1 1 -7.34788e-17 -0.4" stroke="#191919" stroke-width="0.35 px" style="stroke-width:0.35;stroke-miterlimit:4;stroke-dasharray:none;fill:none;fill-opacity:1;fill-rule: evenodd"/>
<path id="Shape2DView_nwe0007"  d="M 16.95 3.0 L 19.7 3.0 " stroke="#191919" stroke-width="0.35 px" style="stroke-width:0.35;stroke-miterlimit:4;stroke-dasharray:none;fill:none;fill-opacity:1;fill-rule: evenodd"/>
<path id="Shape2DView_nwe0008"  d="M 19.7 3.0 A 1.5 1.5 0 0 0 21.2 1.5" stroke="#191919" stroke-width="0.35 px" style="stroke-width:0.35;stroke-miterlimit:4;stroke-dasharray:none;fill:none;fill-opacity:1;fill-rule: evenodd"/>
<path id="Shape2DView_nwe0009"  d="M 21.2 1.5 L 21.2 1.4623918682727355 L 21.2 1.3514533018536288 L 21.2 1.1727472237020446 L 21.2 0.9352347027881004 L 21.2 0.6508256086763373 L 21.2 0.3337814009344717 L 21.2 9.184850993605148e-17 L 21.2 -0.3337814009344715 L 21.2 -0.6508256086763371 L 21.2 -0.9352347027881003 L 21.2 -1.1727472237020446 L 21.2 -1.3514533018536286 L 21.2 -1.4623918682727355 L 21.2 -1.5 " stroke="#191919" stroke-width="0.35 px" style="stroke-width:0.35;stroke-miterlimit:4;stroke-dasharray:none;fill:none;fill-opacity:1;fill-rule: evenodd"/>
<path id="Shape2DView_nwe0010"  d="M 25.4 -0.4 A 0.4 0.4 0 0 1 25.4 0.4" stroke="#191919" stroke-width="0.35 px" style="stroke-width:0.35;stroke-miterlimit:4;stroke-dasharray:none;fill:none;fill-opacity:1;fill-rule: evenodd"/>
<path id="Shape2DView_nwe0011"  d="M 5.7 3.0 L 5.7 2.924783736545471 L 5.7 2.7029066037072575 L 5.7 2.3454944474040893 L 5.7 1.8704694055762008 L 5.7 1.3016512173526746 L 5.7 0.6675628018689433 L 5.7 1.8369701987210297e-16 L 5.7 -0.667562801868943 L 5.7 -1.3016512173526742 L 5.7 -1.8704694055762006 L 5.7 -2.3454944474040893 L 5.7 -2.702906603707257 L 5.7 -2.924783736545471 L 5.7 -3.0 " stroke="#191919" stroke-width="0.35 px" style="stroke-width:0.35;stroke-miterlimit:4;stroke-dasharray:none;fill:none;fill-opacity:1;fill-rule: evenodd"/>
<path id="Shape2DView_nwe0012"  d="M 1.2 -0.4 L 1.2 -0.3899711648727295 L 1.2 -0.3603875471609677 L 1.2 -0.312732592987212 L 1.1999999999999997 -0.24939592074349348 L 1.1999999999999997 -0.17355349564702335 L 1.1999999999999997 -0.08900837358252586 L 1.1999999999999997 -9.797174393178826e-17 L 1.1999999999999997 0.08900837358252567 L 1.1999999999999997 0.17355349564702316 L 1.1999999999999997 0.24939592074349337 L 1.2 0.31273259298721184 L 1.2 0.36038754716096766 L 1.2 0.3899711648727294 L 1.2 0.4 " stroke="#191919" stroke-width="0.35 px" style="stroke-width:0.35;stroke-miterlimit:4;stroke-dasharray:none;fill:none;fill-opacity:1;fill-rule: evenodd"/>
<path id="Shape2DView_nwe0013"  d="M 19.7 3.0 L 19.7 2.924783736545471 L 19.7 2.7029066037072575 L 19.7 2.3454944474040893 L 19.7 1.8704694055762008 L 19.7 1.3016512173526746 L 19.7 0.6675628018689433 L 19.7 1.8369701987210297e-16 L 19.7 -0.667562801868943 L 19.7 -1.3016512173526742 L 19.7 -1.8704694055762006 L 19.7 -2.3454944474040893 L 19.7 -2.702906603707257 L 19.7 -2.924783736545471 L 19.7 -3.0 " stroke="#191919" stroke-width="0.35 px" style="stroke-width:0.35;stroke-miterlimit:4;stroke-dasharray:none;fill:none;fill-opacity:1;fill-rule: evenodd"/>
<path id="Shape2DView_nwe0014"  d="M 24.2 0.4 L 24.2 0.3899711648727295 L 24.2 0.36038754716096766 L 24.2 0.312732592987212 L 24.2 0.24939592074349345 L 24.2 0.1735534956470233 L 24.2 0.08900837358252581 L 24.2 4.898587196589413e-17 L 24.2 -0.08900837358252572 L 24.2 -0.17355349564702321 L 24.2 -0.24939592074349337 L 24.2 -0.3127325929872119 L 24.2 -0.36038754716096766 L 24.2 -0.3899711648727295 L 24.2 -0.4 " stroke="#191919" stroke-width="0.35 px" style="stroke-width:0.35;stroke-miterlimit:4;stroke-dasharray:none;fill:none;fill-opacity:1;fill-rule: evenodd"/>
<path id="Shape2DView_nwe0015"  d="M 8.45 -3.0 L 5.7 -3.0 " stroke="#191919" stroke-width="0.35 px" style="stroke-width:0.35;stroke-miterlimit:4;stroke-dasharray:none;fill:none;fill-opacity:1;fill-rule: evenodd"/>
<path id="Shape2DView_nwe0016"  d="M 5.7 -3.0 Q 4.333469283906162 -2.8667664982851635 4.199999999999999 -1.5 " stroke="#191919" stroke-width="0.35 px" style="stroke-width:0.35;stroke-miterlimit:4;stroke-dasharray:none;fill:none;fill-opacity:1;fill-rule: evenodd"/>
<path id="Shape2DView_nwe0017"  d="M 16.95 -2.7 L 8.45 -2.7 " stroke="#191919" stroke-width="0.35 px" style="stroke-width:0.35;stroke-miterlimit:4;stroke-dasharray:none;fill:none;fill-opacity:1;fill-rule: evenodd"/>
<path id="Shape2DView_nwe0018"  d="M 1.2000000000000002 -0.4 L 4.2 -0.4 " stroke="#191919" stroke-width="0.35 px" style="stroke-width:0.35;stroke-miterlimit:4;stroke-dasharray:none;fill:none;fill-opacity:1;fill-rule: evenodd"/>
<path id="Shape2DView_nwe0019"  d="M 1.2000000000000002 0.4 L 4.2 0.4 " stroke="#191919" stroke-width="0.35 px" style="stroke-width:0.35;stroke-miterlimit:4;stroke-dasharray:none;fill:none;fill-opacity:1;fill-rule: evenodd"/>
<path id="Shape2DView_nwe0020"  d="M 1.2000000000000008 -0.4 Q 0.9360364957912745 -0.4000000000000001 0.6720729915825483 -0.4 Q 0.5572248185216495 -0.4 0.44237664546075095 -0.4 Q 0.0117522210218097 -0.4000000000000001 0.0 -0.4 " stroke="#191919" stroke-width="0.35 px" style="stroke-width:0.35;stroke-miterlimit:4;stroke-dasharray:none;fill:none;fill-opacity:1;fill-rule: evenodd"/>
<path id="Shape2DView_nwe0021"  d="M 1.2000000000000008 0.4 Q 0.9360364957912745 0.4000000000000001 0.6720729915825483 0.4 Q 0.5572248185216495 0.4 0.44237664546075095 0.4 Q 0.0117522210218097 0.4000000000000001 0.0 0.4 " stroke="#191919" stroke-width="0.35 px" style="stroke-width:0.35;stroke-miterlimit:4;stroke-dasharray:none;fill:none;fill-opacity:1;fill-rule: evenodd"/>
<path id="Shape2DView_nwe0022"  d="M 19.7 -3.0 L 16.95 -3.0 " stroke="#191919" stroke-width="0.35 px" style="stroke-width:0.35;stroke-miterlimit:4;stroke-dasharray:none;fill:none;fill-opacity:1;fill-rule: evenodd"/>
<path id="Shape2DView_nwe0023"  d="M 19.7 -3.0 Q 20.008635773219922 -2.9335524669249318 20.31727154643984 -2.8671049338498635 Q 20.500185901403764 -2.7500138261388196 20.683100256367688 -2.6329227184277766 Q 21.18724970997455 -2.178562607403552 21.2 -1.5000000000000002 " stroke="#191919" stroke-width="0.35 px" style="stroke-width:0.35;stroke-miterlimit:4;stroke-dasharray:none;fill:none;fill-opacity:1;fill-rule: evenodd"/>
<path id="Shape2DView_nwe0024"  d="M 21.2 -0.4 L 24.2 -0.4 " stroke="#191919" stroke-width="0.35 px" style="stroke-width:0.35;stroke-miterlimit:4;stroke-dasharray:none;fill:none;fill-opacity:1;fill-rule: evenodd"/>
<path id="Shape2DView_nwe0025"  d="M 21.2 0.4 L 24.2 0.4 " stroke="#191919" stroke-width="0.35 px" style="stroke-width:0.35;stroke-miterlimit:4;stroke-dasharray:none;fill:none;fill-opacity:1;fill-rule: evenodd"/>
<path id="Shape2DView_nwe0026"  d="M 24.200000000000003 0.4 Q 25.29331719686657 0.4000000000000001 25.4 0.4 " stroke="#191919" stroke-width="0.35 px" style="stroke-width:0.35;stroke-miterlimit:4;stroke-dasharray:none;fill:none;fill-opacity:1;fill-rule: evenodd"/>
<path id="Shape2DView_nwe0027"  d="M 24.200000000000003 -0.4 Q 25.29331719686657 -0.4000000000000001 25.4 -0.4 " stroke="#191919" stroke-width="0.35 px" style="stroke-width:0.35;stroke-miterlimit:4;stroke-dasharray:none;fill:none;fill-opacity:1;fill-rule: evenodd"/>
<title>b'Shape2DView'</title>
</g>
<g id="Rectangle" transform="translate(0.659025,3.261942) scale(1,-1)">
<rect fill="#ff0000" id="origin" width="1" height="1" x="0" y="0" />
<title>b'Rectangle'</title>
</g>
</svg>