<?xml version="1.0"?>
<!DOCTYPE svg PUBLIC "-//W3C//DTD SVG 1.1//EN" "http://www.w3.org/Graphics/SVG/1.1/DTD/svg11.dtd">
<svg width="26.718050441264012mm" height="9.523883341985568mm" viewBox="0 0 26.718050441264012 9.523883341985568" xmlns="http://www.w3.org/2000/svg" version="1.1">
<g id="Shape2DView" transform="translate(0.659025,4.761942) scale(1,-1)">
<path id="Shape2DView_nwe0000"  d="M 5.95 4.5 L 8.2 4.5 " stroke="#191919" stroke-width="0.35 px" style="stroke-width:0.35;stroke-miterlimit:4;stroke-dasharray:none;fill:none;fill-opacity:1;fill-rule: evenodd"/>
<path id="Shape2DView_nwe0001"  d="M 8.2 4.5 L 8.2 4.387175604818206 L 8.2 4.0543599055608865 L 8.2 3.518241671106134 L 8.2 2.805704108364301 L 8.2 1.9524768260290117 L 8.2 1.001344202803415 L 8.2 2.755455298081545e-16 L 8.2 -1.0013442028034145 L 8.2 -1.9524768260290113 L 8.2 -2.8057041083643006 L 8.2 -3.518241671106134 L 8.2 -4.054359905560886 L 8.2 -4.387175604818206 L 8.2 -4.5 " stroke="#191919" stroke-width="0.35 px" style="stroke-width:0.35;stroke-miterlimit:4;stroke-dasharray:none;fill:none;fill-opacity:1;fill-rule: evenodd"/>
<path id="Shape2DView_nwe0002"  d="M 3.7 2.25 L 3.7 2.193587802409103 L 3.7 2.0271799527804433 L 3.7 1.759120835553067 L 3.7 1.4028520541821505 L 3.7 0.9762384130145059 L 3.7 0.5006721014017075 L 3.7 1.3777276490407724e-16 L 3.7 -0.5006721014017073 L 3.7 -0.9762384130145056 L 3.7 -1.4028520541821503 L 3.7 -1.759120835553067 L 3.7 -2.027179952780443 L 3.7 -2.193587802409103 L 3.7 -2.25 " stroke="#191919" stroke-width="0.35 px" style="stroke-width:0.35;stroke-miterlimit:4;stroke-dasharray:none;fill:none;fill-opacity:1;fill-rule: evenodd"/>
<path id="Shape2DView_nwe0003"  d="M 5.95 4.5 A 2.25 2.25 0 0 1 3.7 2.25" stroke="#191919" stroke-width="0.35 px" style="stroke-width:0.35;stroke-miterlimit:4;stroke-dasharray:none;fill:none;fill-opacity:1;fill-rule: evenodd"/>
<path id="Shape2DView_nwe0004"  d="M 3.7 0.4 L 3.7 0.3899711648727295 L 3.7 0.36038754716096766 L 3.7 0.312732592987212 L 3.7 0.24939592074349345 L 3.7 0.1735534956470233 L 3.7 0.08900837358252581 L 3.7 4.898587196589413e-17 L 3.7 -0.08900837358252572 L 3.7 -0.17355349564702321 L 3.7 -0.24939592074349337 L 3.7 -0.3127325929872119 L 3.7 -0.36038754716096766 L 3.7 -0.3899711648727295 L 3.7 -0.4 " stroke="#191919" stroke-width="0.35 px" style="stroke-width:0.35;stroke-miterlimit:4;stroke-dasharray:none;fill:none;fill-opacity:1;fill-rule: evenodd"/>
<path id="Shape2DView_nwe0005"  d="M 8.2 4.05 L 17.2 4.05 " stroke="#191919" stroke-width="0.35 px" style="stroke-width:0.35;stroke-miterlimit:4;stroke-dasharray:none;fill:none;fill-opacity:1;fill-rule: evenodd"/>
<path id="Shape2DView_nwe0006"  d="M 17.2 4.5 L 17.2 4.387175604818206 L 17.2 4.0543599055608865 L 17.2 3.518241671106134 L 17.2 2.805704108364301 L 17.2 1.9524768260290117 L 17.2 1.001344202803415 L 17.2 2.755455298081545e-16 L 17.2 -1.0013442028034145 L 17.2 -1.9524768260290113 L 17.2 -2.8057041083643006 L 17.2 -3.518241671106134 L 17.2 -4.054359905560886 L 17.2 -4.387175604818206 L 17.2 -4.5 " stroke="#191919" stroke-width="0.35 px" style="stroke-width:0.35;stroke-miterlimit:4;stroke-dasharray:none;fill:none;fill-opacity:1;fill-rule: evenodd"/>
<path id="Shape2DView_nwe0007"  d="M 5.573999878030222e-16 0.4 A 0.4 0.4 0 0 1 -7.84022e-16 -0.4" stroke="#191919" stroke-width="0.35 px" style="stroke-width:0.35;stroke-miterlimit:4;stroke-dasharray:none;fill:none;fill-opacity:1;fill-rule: evenodd"/>
<path id="Shape2DView_nwe0008"  d="M 17.2 4.5 L 19.45 4.5 " stroke="#191919" stroke-width="0.35 px" style="stroke-width:0.35;stroke-miterlimit:4;stroke-dasharray:none;fill:none;fill-opacity:1;fill-rule: evenodd"/>
<path id="Shape2DView_nwe0009"  d="M 19.45 4.5 A 2.25 2.25 0 0 0 21.7 2.25" stroke="#191919" stroke-width="0.35 px" style="stroke-width:0.35;stroke-miterlimit:4;stroke-dasharray:none;fill:none;fill-opacity:1;fill-rule: evenodd"/>
<path id="Shape2DView_nwe0010"  d="M 21.7 2.25 L 21.7 2.193587802409103 L 21.7 2.0271799527804433 L 21.7 1.759120835553067 L 21.7 1.4028520541821505 L 21.7 0.9762384130145059 L 21.7 0.5006721014017075 L 21.7 1.3777276490407724e-16 L 21.7 -0.5006721014017073 L 21.7 -0.9762384130145056 L 21.7 -1.4028520541821503 L 21.7 -1.759120835553067 L 21.7 -2.027179952780443 L 21.7 -2.193587802409103 L 21.7 -2.25 " stroke="#191919" stroke-width="0.35 px" style="stroke-width:0.35;stroke-miterlimit:4;stroke-dasharray:none;fill:none;fill-opacity:1;fill-rule: evenodd"/>
<path id="Shape2DView_nwe0011"  d="M 21.7 0.4 L 21.7 0.3899711648727295 L 21.7 0.36038754716096766 L 21.7 0.312732592987212 L 21.7 0.24939592074349345 L 21.7 0.1735534956470233 L 21.7 0.08900837358252581 L 21.7 4.898587196589413e-17 L 21.7 -0.08900837358252572 L 21.7 -0.17355349564702321 L 21.7 -0.24939592074349337 L 21.7 -0.3127325929872119 L 21.7 -0.36038754716096766 L 21.7 -0.3899711648727295 L 21.7 -0.4 " stroke="#191919" stroke-width="0.35 px" style="stroke-width:0.35;stroke-miterlimit:4;stroke-dasharray:none;fill:none;fill-opacity:1;fill-rule: evenodd"/>
<path id="Shape2DView_nwe0012"  d="M 25.4 -0.4 A 0.4 0.4 0 0 1 25.4 0.4" stroke="#191919" stroke-width="0.35 px" style="stroke-width:0.35;stroke-miterlimit:4;stroke-dasharray:none;fill:none;fill-opacity:1;fill-rule: evenodd"/>
<path id="Shape2DView_nwe0013"  d="M 5.95 4.5 L 5.95 4.387175604818206 L 5.95 4.0543599055608865 L 5.95 3.518241671106134 L 5.95 2.805704108364301 L 5.95 1.9524768260290117 L 5.95 1.001344202803415 L 5.95 2.755455298081545e-16 L 5.95 -1.0013442028034145 L 5.95 -1.9524768260290113 L 5.95 -2.8057041083643006 L 5.95 -3.518241671106134 L 5.95 -4.054359905560886 L 5.95 -4.387175604818206 L 5.95 -4.5 " stroke="#191919" stroke-width="0.35 px" style="stroke-width:0.35;stroke-miterlimit:4;stroke-dasharray:none;fill:none;fill-opacity:1;fill-rule: evenodd"/>
<path id="Shape2DView_nwe0014"  d="M 1.2 -0.4 L 1.2 -0.3899711648727295 L 1.2 -0.3603875471609677 L 1.2 -0.312732592987212 L 1.1999999999999997 -0.24939592074349348 L 1.1999999999999997 -0.17355349564702335 L 1.1999999999999997 -0.08900837358252586 L 1.1999999999999997 -9.797174393178826e-17 L 1.1999999999999997 0.08900837358252567 L 1.1999999999999997 0.17355349564702316 L 1.1999999999999997 0.24939592074349337 L 1.2 0.31273259298721184 L 1.2 0.36038754716096766 L 1.2 0.3899711648727294 L 1.2 0.4 " stroke="#191919" stroke-width="0.35 px" style="stroke-width:0.35;stroke-miterlimit:4;stroke-dasharray:none;fill:none;fill-opacity:1;fill-rule: evenodd"/>
<path id="Shape2DView_nwe0015"  d="M 19.45 4.5 L 19.45 4.387175604818206 L 19.45 4.0543599055608865 L 19.45 3.518241671106134 L 19.45 2.805704108364301 L 19.45 1.9524768260290117 L 19.45 1.001344202803415 L 19.45 2.755455298081545e-16 L 19.45 -1.0013442028034145 L 19.45 -1.9524768260290113 L 19.45 -2.8057041083643006 L 19.45 -3.518241671106134 L 19.45 -4.054359905560886 L 19.45 -4.387175604818206 L 19.45 -4.5 " stroke="#191919" stroke-width="0.35 px" style="stroke-width:0.35;stroke-miterlimit:4;stroke-dasharray:none;fill:none;fill-opacity:1;fill-rule: evenodd"/>
<path id="Shape2DView_nwe0016"  d="M 24.2 0.4 L 24.2 0.3899711648727295 L 24.2 0.36038754716096766 L 24.2 0.312732592987212 L 24.2 0.24939592074349345 L 24.2 0.1735534956470233 L 24.2 0.08900837358252581 L 24.2 4.898587196589413e-17 L 24.2 -0.08900837358252572 L 24.2 -0.17355349564702321 L 24.2 -0.24939592074349337 L 24.2 -0.3127325929872119 L 24.2 -0.36038754716096766 L 24.2 -0.3899711648727295 L 24.2 -0.4 " stroke="#191919" stroke-width="0.35 px" style="stroke-width:0.35;stroke-miterlimit:4;stroke-dasharray:none;fill:none;fill-opacity:1;fill-rule: evenodd"/>
<path id="Shape2DView_nwe0017"  d="M 8.2 -4.5 L 5.95 -4.5 " stroke="#191919" stroke-width="0.35 px" style="stroke-width:0.35;stroke-miterlimit:4;stroke-dasharray:none;fill:none;fill-opacity:1;fill-rule: evenodd"/>
<path id="Shape2DView_nwe0018"  d="M 5.95 -4.5 C 4.747844444542609 -4.531014551231142 3.6690449944073933 -3.4524714029426127 3.7000000000000006 -2.25 " stroke="#191919" stroke-width="0.35 px" style="stroke-width:0.35;stroke-miterlimit:4;stroke-dasharray:none;fill:none;fill-opacity:1;fill-rule: evenodd"/>
<path id="Shape2DView_nwe0019"  d="M 17.2 -4.05 L 8.2 -4.05 " stroke="#191919" stroke-width="0.35 px" style="stroke-width:0.35;stroke-miterlimit:4;stroke-dasharray:none;fill:none;fill-opacity:1;fill-rule: evenodd"/>
<path id="Shape2DView_nwe0020"  d="M 1.2000000000000002 -0.4 L 3.7 -0.4 " stroke="#191919" stroke-width="0.35 px" style="stroke-width:0.35;stroke-miterlimit:4;stroke-dasharray:none;fill:none;fill-opacity:1;fill-rule: evenodd"/>
<path id="Shape2DView_nwe0021"  d="M 1.2000000000000002 0.4 L 3.7 0.4 " stroke="#191919" stroke-width="0.35 px" style="stroke-width:0.35;stroke-miterlimit:4;stroke-dasharray:none;fill:none;fill-opacity:1;fill-rule: evenodd"/>
<path id="Shape2DView_nwe0022"  d="M 1.2000000000000008 -0.4 Q 0.9360364957912731 -0.4000000000000001 0.6720729915825456 -0.4 Q 0.5572248185216483 -0.4 0.44237664546075095 -0.4 Q 0.011752221021809978 -0.4000000000000001 0.0 -0.4 " stroke="#191919" stroke-width="0.35 px" style="stroke-width:0.35;stroke-miterlimit:4;stroke-dasharray:none;fill:none;fill-opacity:1;fill-rule: evenodd"/>
<path id="Shape2DView_nwe0023"  d="M 1.2000000000000008 0.4 Q 0.9360364957912731 0.4000000000000001 0.6720729915825456 0.4 Q 0.5572248185216483 0.4 0.44237664546075095 0.4 Q 0.011752221021809978 0.4000000000000001 0.0 0.4 " stroke="#191919" stroke-width="0.35 px" style="stroke-width:0.35;stroke-miterlimit:4;stroke-dasharray:none;fill:none;fill-opacity:1;fill-rule: evenodd"/>
<path id="Shape2DView_nwe0024"  d="M 19.45 -4.5 L 17.2 -4.5 " stroke="#191919" stroke-width="0.35 px" style="stroke-width:0.35;stroke-miterlimit:4;stroke-dasharray:none;fill:none;fill-opacity:1;fill-rule: evenodd"/>
<path id="Shape2DView_nwe0025"  d="M 19.45 -4.5 C 20.652097530894 -4.531032653291171 21.730951669391633 -3.452512528256503 21.7 -2.25 " stroke="#191919" stroke-width="0.35 px" style="stroke-width:0.35;stroke-miterlimit:4;stroke-dasharray:none;fill:none;fill-opacity:1;fill-rule: evenodd"/>
<path id="Shape2DView_nwe0026"  d="M 21.7 -0.4 L 24.2 -0.4 " stroke="#191919" stroke-width="0.35 px" style="stroke-width:0.35;stroke-miterlimit:4;stroke-dasharray:none;fill:none;fill-opacity:1;fill-rule: evenodd"/>
<path id="Shape2DView_nwe0027"  d="M 21.7 0.4 L 24.2 0.4 " stroke="#191919" stroke-width="0.35 px" style="stroke-width:0.35;stroke-miterlimit:4;stroke-dasharray:none;fill:none;fill-opacity:1;fill-rule: evenodd"/>
<path id="Shape2DView_nwe0028"  d="M 24.200000000000003 0.39999999999999997 Q 25.29331702662692 0.4000000000000001 25.4 0.4 " stroke="#191919" stroke-width="0.35 px" style="stroke-width:0.35;stroke-miterlimit:4;stroke-dasharray:none;fill:none;fill-opacity:1;fill-rule: evenodd"/>
<path id="Shape2DView_nwe0029"  d="M 24.200000000000003 -0.39999999999999997 Q 25.29331702662692 -0.4000000000000001 25.4 -0.4 " stroke="#191919" stroke-width="0.35 px" style="stroke-width:0.35;stroke-miterlimit:4;stroke-dasharray:none;fill:none;fill-opacity:1;fill-rule: evenodd"/>
<title>b'Shape2DView'</title>
</g>
<g id="Rectangle" transform="translate(0.659025,4.761942) scale(1,-1)">
<rect fill="#ff0000" id="origin" width="1" height="1" x="0" y="0" />
<title>b'Rectangle'</title>
</g>
</svg>