<?xml version="1.0"?>
<!DOCTYPE svg PUBLIC "-//W3C//DTD SVG 1.1//EN" "http://www.w3.org/Graphics/SVG/1.1/DTD/svg11.dtd">
<svg width="21.435194136106013mm" height="3.6202979242373727mm" viewBox="0 0 21.435194136106013 3.6202979242373727" xmlns="http://www.w3.org/2000/svg" version="1.1">
<g id="Shape2DView" transform="translate(0.557597,1.810149) scale(1,-1)">
<path id="Shape2DView_nwe0000"  d="M 6.46 1.6 L 7.91 1.6 " stroke="#191919" stroke-width="0.35 px" style="stroke-width:0.35;stroke-miterlimit:4;stroke-dasharray:none;fill:none;fill-opacity:1;fill-rule: evenodd"/>
<path id="Shape2DView_nwe0001"  d="M 7.91 1.6 L 7.91 1.559884659490918 L 7.91 1.4415501886438706 L 7.91 1.2509303719488478 L 7.91 0.9975836829739738 L 7.91 0.6942139825880931 L 7.91 0.3560334943301031 L 7.91 9.797174393178826e-17 L 7.91 -0.35603349433010295 L 7.91 -0.694213982588093 L 7.91 -0.9975836829739736 L 7.91 -1.2509303719488478 L 7.91 -1.4415501886438706 L 7.91 -1.559884659490918 L 7.91 -1.6 " stroke="#191919" stroke-width="0.35 px" style="stroke-width:0.35;stroke-miterlimit:4;stroke-dasharray:none;fill:none;fill-opacity:1;fill-rule: evenodd"/>
<path id="Shape2DView_nwe0002"  d="M 5.66 0.8 L 5.66 0.779942329745459 L 5.66 0.7207750943219353 L 5.66 0.6254651859744239 L 5.66 0.4987918414869869 L 5.66 0.34710699129404654 L 5.66 0.17801674716505156 L 5.66 4.898587196589413e-17 L 5.66 -0.17801674716505148 L 5.66 -0.3471069912940465 L 5.66 -0.4987918414869868 L 5.66 -0.6254651859744239 L 5.66 -0.7207750943219353 L 5.66 -0.779942329745459 L 5.66 -0.8 " stroke="#191919" stroke-width="0.35 px" style="stroke-width:0.35;stroke-miterlimit:4;stroke-dasharray:none;fill:none;fill-opacity:1;fill-rule: evenodd"/>
<path id="Shape2DView_nwe0003"  d="M 5.66 -0.8 L 5.66 -0.797450582401717 L 5.66 -0.7898185784320936 L 5.66 -0.7771526310042057 L 5.66 -0.7595334670912326 L 5.66 -0.7370733832095407 L 5.66 -0.7099155296918978 L 5.66 -0.6782329983125271 L 5.66 -0.6422277190790707 L 5.66 -0.6021291732228008 L 5.66 -0.558192930589896 L 5.66 -0.5106990207557833 L 5.66 -0.4599501482443185 L 5.66 -0.40626976322718616 L 5.66 -0.3500000000000002 " stroke="#191919" stroke-width="0.35 px" style="stroke-width:0.35;stroke-miterlimit:4;stroke-dasharray:none;fill:none;fill-opacity:1;fill-rule: evenodd"/>
<path id="Shape2DView_nwe0004"  d="M 5.66 0.3499999999999999 L 5.66 0.40626976322718655 L 5.66 0.4599501482443189 L 5.66 0.5106990207557836 L 5.66 0.5581929305898964 L 5.66 0.6021291732228012 L 5.66 0.6422277190790715 L 5.66 0.6782329983125279 L 5.66 0.7099155296918985 L 5.66 0.7370733832095415 L 5.66 0.7595334670912334 L 5.66 0.7771526310042064 L 5.66 0.789818578432094 L 5.66 0.7974505824017172 L 5.66 0.8 " stroke="#191919" stroke-width="0.35 px" style="stroke-width:0.35;stroke-miterlimit:4;stroke-dasharray:none;fill:none;fill-opacity:1;fill-rule: evenodd"/>
<path id="Shape2DView_nwe0005"  d="M 6.46 1.6 A 0.8 0.8 0 0 1 5.66 0.8" stroke="#191919" stroke-width="0.35 px" style="stroke-width:0.35;stroke-miterlimit:4;stroke-dasharray:none;fill:none;fill-opacity:1;fill-rule: evenodd"/>
<path id="Shape2DView_nwe0006"  d="M 7.91 1.44 L 12.41 1.44 " stroke="#191919" stroke-width="0.35 px" style="stroke-width:0.35;stroke-miterlimit:4;stroke-dasharray:none;fill:none;fill-opacity:1;fill-rule: evenodd"/>
<path id="Shape2DView_nwe0007"  d="M 12.41 1.6 L 12.41 1.559884659490918 L 12.41 1.4415501886438706 L 12.41 1.2509303719488478 L 12.41 0.9975836829739738 L 12.41 0.6942139825880931 L 12.41 0.3560334943301031 L 12.41 9.797174393178826e-17 L 12.41 -0.35603349433010295 L 12.41 -0.694213982588093 L 12.41 -0.9975836829739736 L 12.41 -1.2509303719488478 L 12.41 -1.4415501886438706 L 12.41 -1.559884659490918 L 12.41 -1.6 " stroke="#191919" stroke-width="0.35 px" style="stroke-width:0.35;stroke-miterlimit:4;stroke-dasharray:none;fill:none;fill-opacity:1;fill-rule: evenodd"/>
<path id="Shape2DView_nwe0008"  d="M 2.143131898507868e-17 0.35 A 0.35 0.35 0 0 1 -6.4294e-17 -0.35" stroke="#191919" stroke-width="0.35 px" style="stroke-width:0.35;stroke-miterlimit:4;stroke-dasharray:none;fill:none;fill-opacity:1;fill-rule: evenodd"/>
<path id="Shape2DView_nwe0009"  d="M 12.41 1.6 L 13.86 1.6 " stroke="#191919" stroke-width="0.35 px" style="stroke-width:0.35;stroke-miterlimit:4;stroke-dasharray:none;fill:none;fill-opacity:1;fill-rule: evenodd"/>
<path id="Shape2DView_nwe0010"  d="M 13.86 1.6 A 0.8 0.8 0 0 0 14.66 0.8" stroke="#191919" stroke-width="0.35 px" style="stroke-width:0.35;stroke-miterlimit:4;stroke-dasharray:none;fill:none;fill-opacity:1;fill-rule: evenodd"/>
<path id="Shape2DView_nwe0011"  d="M 14.66 0.8 L 14.66 0.779942329745459 L 14.66 0.7207750943219353 L 14.66 0.6254651859744239 L 14.66 0.4987918414869869 L 14.66 0.34710699129404654 L 14.66 0.17801674716505156 L 14.66 4.898587196589413e-17 L 14.66 -0.17801674716505148 L 14.66 -0.3471069912940465 L 14.66 -0.4987918414869868 L 14.66 -0.6254651859744239 L 14.66 -0.7207750943219353 L 14.66 -0.779942329745459 L 14.66 -0.8 " stroke="#191919" stroke-width="0.35 px" style="stroke-width:0.35;stroke-miterlimit:4;stroke-dasharray:none;fill:none;fill-opacity:1;fill-rule: evenodd"/>
<path id="Shape2DView_nwe0012"  d="M 14.66 -0.8 L 14.66 -0.797450582401717 L 14.66 -0.7898185784320936 L 14.66 -0.7771526310042057 L 14.66 -0.7595334670912326 L 14.66 -0.7370733832095407 L 14.66 -0.7099155296918978 L 14.66 -0.6782329983125271 L 14.66 -0.6422277190790707 L 14.66 -0.6021291732228008 L 14.66 -0.558192930589896 L 14.66 -0.5106990207557833 L 14.66 -0.4599501482443185 L 14.66 -0.40626976322718616 L 14.66 -0.3500000000000002 " stroke="#191919" stroke-width="0.35 px" style="stroke-width:0.35;stroke-miterlimit:4;stroke-dasharray:none;fill:none;fill-opacity:1;fill-rule: evenodd"/>
<path id="Shape2DView_nwe0013"  d="M 14.66 0.3499999999999999 L 14.66 0.40626976322718655 L 14.66 0.4599501482443189 L 14.66 0.5106990207557836 L 14.66 0.5581929305898964 L 14.66 0.6021291732228012 L 14.66 0.6422277190790715 L 14.66 0.6782329983125279 L 14.66 0.7099155296918985 L 14.66 0.7370733832095415 L 14.66 0.7595334670912334 L 14.66 0.7771526310042064 L 14.66 0.789818578432094 L 14.66 0.7974505824017172 L 14.66 0.8 " stroke="#191919" stroke-width="0.35 px" style="stroke-width:0.35;stroke-miterlimit:4;stroke-dasharray:none;fill:none;fill-opacity:1;fill-rule: evenodd"/>
<path id="Shape2DView_nwe0014"  d="M 14.66 0.35 L 14.66 0.34122476926363826 L 14.66 0.3153391037658467 L 14.66 0.2736410188638104 L 14.66 0.21822143065055674 L 14.66 0.15185930869114536 L 14.66 0.07788232688471007 L 14.66 4.286263797015736e-17 L 14.66 -0.07788232688470999 L 14.66 -0.1518593086911453 L 14.66 -0.21822143065055666 L 14.66 -0.27364101886381037 L 14.66 -0.3153391037658466 L 14.66 -0.34122476926363826 L 14.66 -0.35 " stroke="#191919" stroke-width="0.35 px" style="stroke-width:0.35;stroke-miterlimit:4;stroke-dasharray:none;fill:none;fill-opacity:1;fill-rule: evenodd"/>
<path id="Shape2DView_nwe0015"  d="M 20.32 -0.35 A 0.35 0.35 0 0 1 20.32 0.35" stroke="#191919" stroke-width="0.35 px" style="stroke-width:0.35;stroke-miterlimit:4;stroke-dasharray:none;fill:none;fill-opacity:1;fill-rule: evenodd"/>
<path id="Shape2DView_nwe0016"  d="M 6.46 1.6 L 6.46 1.559884659490918 L 6.46 1.4415501886438706 L 6.46 1.2509303719488478 L 6.46 0.9975836829739738 L 6.46 0.6942139825880931 L 6.46 0.3560334943301031 L 6.46 9.797174393178826e-17 L 6.46 -0.35603349433010295 L 6.46 -0.694213982588093 L 6.46 -0.9975836829739736 L 6.46 -1.2509303719488478 L 6.46 -1.4415501886438706 L 6.46 -1.559884659490918 L 6.46 -1.6 " stroke="#191919" stroke-width="0.35 px" style="stroke-width:0.35;stroke-miterlimit:4;stroke-dasharray:none;fill:none;fill-opacity:1;fill-rule: evenodd"/>
<path id="Shape2DView_nwe0017"  d="M 1.05 -0.35 L 1.05 -0.34122476926363826 L 1.05 -0.31533910376584673 L 1.0500000000000003 -0.2736410188638104 L 1.0500000000000003 -0.2182214306505568 L 1.0500000000000003 -0.15185930869114542 L 1.0500000000000003 -0.07788232688471013 L 1.0500000000000003 -8.572527594031472e-17 L 1.0500000000000003 0.07788232688470996 L 1.0500000000000003 0.15185930869114525 L 1.0500000000000003 0.21822143065055666 L 1.0500000000000003 0.2736410188638103 L 1.05 0.3153391037658466 L 1.05 0.3412247692636382 L 1.05 0.35 " stroke="#191919" stroke-width="0.35 px" style="stroke-width:0.35;stroke-miterlimit:4;stroke-dasharray:none;fill:none;fill-opacity:1;fill-rule: evenodd"/>
<path id="Shape2DView_nwe0018"  d="M 13.86 1.6 L 13.86 1.559884659490918 L 13.86 1.4415501886438706 L 13.86 1.2509303719488478 L 13.86 0.9975836829739738 L 13.86 0.6942139825880931 L 13.86 0.3560334943301031 L 13.86 9.797174393178826e-17 L 13.86 -0.35603349433010295 L 13.86 -0.694213982588093 L 13.86 -0.9975836829739736 L 13.86 -1.2509303719488478 L 13.86 -1.4415501886438706 L 13.86 -1.559884659490918 L 13.86 -1.6 " stroke="#191919" stroke-width="0.35 px" style="stroke-width:0.35;stroke-miterlimit:4;stroke-dasharray:none;fill:none;fill-opacity:1;fill-rule: evenodd"/>
<path id="Shape2DView_nwe0019"  d="M 19.27 0.35 L 19.27 0.34122476926363826 L 19.27 0.3153391037658467 L 19.27 0.2736410188638104 L 19.27 0.21822143065055674 L 19.27 0.15185930869114536 L 19.27 0.07788232688471007 L 19.27 4.286263797015736e-17 L 19.27 -0.07788232688470999 L 19.27 -0.1518593086911453 L 19.27 -0.21822143065055666 L 19.27 -0.27364101886381037 L 19.27 -0.3153391037658466 L 19.27 -0.34122476926363826 L 19.27 -0.35 " stroke="#191919" stroke-width="0.35 px" style="stroke-width:0.35;stroke-miterlimit:4;stroke-dasharray:none;fill:none;fill-opacity:1;fill-rule: evenodd"/>
<path id="Shape2DView_nwe0020"  d="M 7.91 -1.6 L 6.46 -1.6 " stroke="#191919" stroke-width="0.35 px" style="stroke-width:0.35;stroke-miterlimit:4;stroke-dasharray:none;fill:none;fill-opacity:1;fill-rule: evenodd"/>
<path id="Shape2DView_nwe0021"  d="M 6.46 -1.6 Q 5.731215511770541 -1.5289722431721993 5.66 -0.8 " stroke="#191919" stroke-width="0.35 px" style="stroke-width:0.35;stroke-miterlimit:4;stroke-dasharray:none;fill:none;fill-opacity:1;fill-rule: evenodd"/>
<path id="Shape2DView_nwe0022"  d="M 12.41 -1.44 L 7.91 -1.44 " stroke="#191919" stroke-width="0.35 px" style="stroke-width:0.35;stroke-miterlimit:4;stroke-dasharray:none;fill:none;fill-opacity:1;fill-rule: evenodd"/>
<path id="Shape2DView_nwe0023"  d="M 1.0499999999999998 -0.35 L 5.66 -0.35 " stroke="#191919" stroke-width="0.35 px" style="stroke-width:0.35;stroke-miterlimit:4;stroke-dasharray:none;fill:none;fill-opacity:1;fill-rule: evenodd"/>
<path id="Shape2DView_nwe0024"  d="M 1.0499999999999998 0.35 L 5.66 0.35 " stroke="#191919" stroke-width="0.35 px" style="stroke-width:0.35;stroke-miterlimit:4;stroke-dasharray:none;fill:none;fill-opacity:1;fill-rule: evenodd"/>
<path id="Shape2DView_nwe0025"  d="M 1.05 -0.35 Q 0.8190319337676449 -0.3499999999999999 0.5880638675352896 -0.35 Q 0.487571716156723 -0.35 0.3870795647781563 -0.35 Q 0.01028319921338336 -0.3499999999999999 0.0 -0.35 " stroke="#191919" stroke-width="0.35 px" style="stroke-width:0.35;stroke-miterlimit:4;stroke-dasharray:none;fill:none;fill-opacity:1;fill-rule: evenodd"/>
<path id="Shape2DView_nwe0026"  d="M 1.05 0.35 Q 0.8190319337676449 0.3499999999999999 0.5880638675352896 0.35 Q 0.487571716156723 0.35 0.3870795647781563 0.35 Q 0.01028319921338336 0.3499999999999999 0.0 0.35 " stroke="#191919" stroke-width="0.35 px" style="stroke-width:0.35;stroke-miterlimit:4;stroke-dasharray:none;fill:none;fill-opacity:1;fill-rule: evenodd"/>
<path id="Shape2DView_nwe0027"  d="M 13.86 -1.6 L 12.41 -1.6 " stroke="#191919" stroke-width="0.35 px" style="stroke-width:0.35;stroke-miterlimit:4;stroke-dasharray:none;fill:none;fill-opacity:1;fill-rule: evenodd"/>
<path id="Shape2DView_nwe0028"  d="M 13.86 -1.6 Q 14.588801331711354 -1.5289580845504103 14.66 -0.8000000000000003 " stroke="#191919" stroke-width="0.35 px" style="stroke-width:0.35;stroke-miterlimit:4;stroke-dasharray:none;fill:none;fill-opacity:1;fill-rule: evenodd"/>
<path id="Shape2DView_nwe0029"  d="M 14.66 -0.35 L 19.27 -0.35 " stroke="#191919" stroke-width="0.35 px" style="stroke-width:0.35;stroke-miterlimit:4;stroke-dasharray:none;fill:none;fill-opacity:1;fill-rule: evenodd"/>
<path id="Shape2DView_nwe0030"  d="M 14.66 0.35 L 19.27 0.35 " stroke="#191919" stroke-width="0.35 px" style="stroke-width:0.35;stroke-miterlimit:4;stroke-dasharray:none;fill:none;fill-opacity:1;fill-rule: evenodd"/>
<path id="Shape2DView_nwe0031"  d="M 19.27 0.35 Q 19.478502643663003 0.3499999999999999 19.687005287325995 0.35 Q 19.79041620168657 0.3499999999999999 19.89382711604714 0.35 Q 20.307402622523938 0.3499999999999999 20.32 0.35 " stroke="#191919" stroke-width="0.35 px" style="stroke-width:0.35;stroke-miterlimit:4;stroke-dasharray:none;fill:none;fill-opacity:1;fill-rule: evenodd"/>
<path id="Shape2DView_nwe0032"  d="M 19.27 -0.35 Q 19.478502643663003 -0.3499999999999999 19.687005287325995 -0.35 Q 19.79041620168657 -0.3499999999999999 19.89382711604714 -0.35 Q 20.307402622523938 -0.3499999999999999 20.32 -0.35 " stroke="#191919" stroke-width="0.35 px" style="stroke-width:0.35;stroke-miterlimit:4;stroke-dasharray:none;fill:none;fill-opacity:1;fill-rule: evenodd"/>
<title>b'Shape2DView'</title>
</g>
<g id="Rectangle" transform="translate(0.557597,1.810149) scale(1,-1)">
<rect fill="#ff0000" id="origin" width="1" height="1" x="0" y="0" />
<title>b'Rectangle'</title>
</g>
</svg>