<?xml version="1.0"?>
<!DOCTYPE svg PUBLIC "-//W3C//DTD SVG 1.1//EN" "http://www.w3.org/Graphics/SVG/1.1/DTD/svg11.dtd">
<svg width="24.127250441264014mm" height="9.47308334198557mm" viewBox="0 0 24.127250441264014 9.47308334198557" xmlns="http://www.w3.org/2000/svg" version="1.1">
<g id="Shape2DView" transform="translate(0.633625,4.736542) scale(1,-1)">
<path id="Shape2DView_nwe0000"  d="M 4.68 4.5 L 6.93 4.5 " stroke="#191919" stroke-width="0.35 px" style="stroke-width:0.35;stroke-miterlimit:4;stroke-dasharray:none;fill:none;fill-opacity:1;fill-rule: evenodd"/>
<path id="Shape2DView_nwe0001"  d="M 6.93 4.5 L 6.93 4.387175604818206 L 6.93 4.0543599055608865 L 6.93 3.518241671106134 L 6.93 2.805704108364301 L 6.93 1.9524768260290117 L 6.93 1.001344202803415 L 6.93 2.755455298081545e-16 L 6.93 -1.0013442028034145 L 6.93 -1.9524768260290113 L 6.93 -2.8057041083643006 L 6.93 -3.518241671106134 L 6.93 -4.054359905560886 L 6.93 -4.387175604818206 L 6.93 -4.5 " stroke="#191919" stroke-width="0.35 px" style="stroke-width:0.35;stroke-miterlimit:4;stroke-dasharray:none;fill:none;fill-opacity:1;fill-rule: evenodd"/>
<path id="Shape2DView_nwe0002"  d="M 2.43 2.25 L 2.43 2.193587802409103 L 2.43 2.0271799527804433 L 2.43 1.759120835553067 L 2.43 1.4028520541821505 L 2.43 0.9762384130145059 L 2.43 0.5006721014017075 L 2.43 1.3777276490407724e-16 L 2.43 -0.5006721014017073 L 2.43 -0.9762384130145056 L 2.43 -1.4028520541821503 L 2.43 -1.759120835553067 L 2.43 -2.027179952780443 L 2.43 -2.193587802409103 L 2.43 -2.25 " stroke="#191919" stroke-width="0.35 px" style="stroke-width:0.35;stroke-miterlimit:4;stroke-dasharray:none;fill:none;fill-opacity:1;fill-rule: evenodd"/>
<path id="Shape2DView_nwe0003"  d="M 2.43 -2.25 L 2.43 -2.238886270269484 L 2.43 -2.2056548721788447 L 2.43 -2.150634094418702 L 2.43 -2.0743674801478007 L 2.43 -1.9776084574003359 L 2.43 -1.8613128960676883 L 2.43 -1.7266296649832003 L 2.43 -1.5748892823953213 L 2.43 -1.4075907719496394 L 2.43 -1.2263868540278537 L 2.43 -1.0330676187365362 L 2.43 -0.8295428418381199 L 2.43 -0.6178231183227498 L 2.43 -0.4000000000000006 " stroke="#191919" stroke-width="0.35 px" style="stroke-width:0.35;stroke-miterlimit:4;stroke-dasharray:none;fill:none;fill-opacity:1;fill-rule: evenodd"/>
<path id="Shape2DView_nwe0004"  d="M 2.43 0.39999999999999974 L 2.43 0.6178231183227509 L 2.43 0.829542841838121 L 2.43 1.033067618736537 L 2.43 1.2263868540278546 L 2.43 1.4075907719496406 L 2.43 1.5748892823953222 L 2.43 1.726629664983201 L 2.43 1.861312896067689 L 2.43 1.9776084574003363 L 2.43 2.074367480147801 L 2.43 2.150634094418702 L 2.43 2.205654872178845 L 2.43 2.238886270269484 L 2.43 2.25 " stroke="#191919" stroke-width="0.35 px" style="stroke-width:0.35;stroke-miterlimit:4;stroke-dasharray:none;fill:none;fill-opacity:1;fill-rule: evenodd"/>
<path id="Shape2DView_nwe0005"  d="M 4.68 4.5 A 2.25 2.25 0 0 1 2.43 2.25" stroke="#191919" stroke-width="0.35 px" style="stroke-width:0.35;stroke-miterlimit:4;stroke-dasharray:none;fill:none;fill-opacity:1;fill-rule: evenodd"/>
<path id="Shape2DView_nwe0006"  d="M 6.93 4.05 L 15.93 4.05 " stroke="#191919" stroke-width="0.35 px" style="stroke-width:0.35;stroke-miterlimit:4;stroke-dasharray:none;fill:none;fill-opacity:1;fill-rule: evenodd"/>
<path id="Shape2DView_nwe0007"  d="M 15.93 4.5 L 15.93 4.387175604818206 L 15.93 4.0543599055608865 L 15.93 3.518241671106134 L 15.93 2.805704108364301 L 15.93 1.9524768260290117 L 15.93 1.001344202803415 L 15.93 2.755455298081545e-16 L 15.93 -1.0013442028034145 L 15.93 -1.9524768260290113 L 15.93 -2.8057041083643006 L 15.93 -3.518241671106134 L 15.93 -4.054359905560886 L 15.93 -4.387175604818206 L 15.93 -4.5 " stroke="#191919" stroke-width="0.35 px" style="stroke-width:0.35;stroke-miterlimit:4;stroke-dasharray:none;fill:none;fill-opacity:1;fill-rule: evenodd"/>
<path id="Shape2DView_nwe0008"  d="M 5.573999878030222e-16 0.4 A 0.4 0.4 0 0 1 -7.84022e-16 -0.4" stroke="#191919" stroke-width="0.35 px" style="stroke-width:0.35;stroke-miterlimit:4;stroke-dasharray:none;fill:none;fill-opacity:1;fill-rule: evenodd"/>
<path id="Shape2DView_nwe0009"  d="M 15.93 4.5 L 18.18 4.5 " stroke="#191919" stroke-width="0.35 px" style="stroke-width:0.35;stroke-miterlimit:4;stroke-dasharray:none;fill:none;fill-opacity:1;fill-rule: evenodd"/>
<path id="Shape2DView_nwe0010"  d="M 18.18 4.5 A 2.25 2.25 0 0 0 20.43 2.25" stroke="#191919" stroke-width="0.35 px" style="stroke-width:0.35;stroke-miterlimit:4;stroke-dasharray:none;fill:none;fill-opacity:1;fill-rule: evenodd"/>
<path id="Shape2DView_nwe0011"  d="M 20.43 2.25 L 20.43 2.193587802409103 L 20.43 2.0271799527804433 L 20.43 1.759120835553067 L 20.43 1.4028520541821505 L 20.43 0.9762384130145059 L 20.43 0.5006721014017075 L 20.43 1.3777276490407724e-16 L 20.43 -0.5006721014017073 L 20.43 -0.9762384130145056 L 20.43 -1.4028520541821503 L 20.43 -1.759120835553067 L 20.43 -2.027179952780443 L 20.43 -2.193587802409103 L 20.43 -2.25 " stroke="#191919" stroke-width="0.35 px" style="stroke-width:0.35;stroke-miterlimit:4;stroke-dasharray:none;fill:none;fill-opacity:1;fill-rule: evenodd"/>
<path id="Shape2DView_nwe0012"  d="M 20.43 0.4 L 20.43 0.3899711648727295 L 20.43 0.36038754716096766 L 20.43 0.312732592987212 L 20.43 0.24939592074349345 L 20.43 0.1735534956470233 L 20.43 0.08900837358252581 L 20.43 4.898587196589413e-17 L 20.43 -0.08900837358252572 L 20.43 -0.17355349564702321 L 20.43 -0.24939592074349337 L 20.43 -0.3127325929872119 L 20.43 -0.36038754716096766 L 20.43 -0.3899711648727295 L 20.43 -0.4 " stroke="#191919" stroke-width="0.35 px" style="stroke-width:0.35;stroke-miterlimit:4;stroke-dasharray:none;fill:none;fill-opacity:1;fill-rule: evenodd"/>
<path id="Shape2DView_nwe0013"  d="M 22.86 -0.4 A 0.4 0.4 0 0 1 22.86 0.4" stroke="#191919" stroke-width="0.35 px" style="stroke-width:0.35;stroke-miterlimit:4;stroke-dasharray:none;fill:none;fill-opacity:1;fill-rule: evenodd"/>
<path id="Shape2DView_nwe0014"  d="M 4.68 4.5 L 4.68 4.387175604818206 L 4.68 4.0543599055608865 L 4.68 3.518241671106134 L 4.68 2.805704108364301 L 4.68 1.9524768260290117 L 4.68 1.001344202803415 L 4.68 2.755455298081545e-16 L 4.68 -1.0013442028034145 L 4.68 -1.9524768260290113 L 4.68 -2.8057041083643006 L 4.68 -3.518241671106134 L 4.68 -4.054359905560886 L 4.68 -4.387175604818206 L 4.68 -4.5 " stroke="#191919" stroke-width="0.35 px" style="stroke-width:0.35;stroke-miterlimit:4;stroke-dasharray:none;fill:none;fill-opacity:1;fill-rule: evenodd"/>
<path id="Shape2DView_nwe0015"  d="M 1.2 -0.4 L 1.2 -0.3899711648727295 L 1.2 -0.3603875471609677 L 1.2 -0.312732592987212 L 1.1999999999999997 -0.24939592074349348 L 1.1999999999999997 -0.17355349564702335 L 1.1999999999999997 -0.08900837358252586 L 1.1999999999999997 -9.797174393178826e-17 L 1.1999999999999997 0.08900837358252567 L 1.1999999999999997 0.17355349564702316 L 1.1999999999999997 0.24939592074349337 L 1.2 0.31273259298721184 L 1.2 0.36038754716096766 L 1.2 0.3899711648727294 L 1.2 0.4 " stroke="#191919" stroke-width="0.35 px" style="stroke-width:0.35;stroke-miterlimit:4;stroke-dasharray:none;fill:none;fill-opacity:1;fill-rule: evenodd"/>
<path id="Shape2DView_nwe0016"  d="M 18.18 4.5 L 18.18 4.387175604818206 L 18.18 4.0543599055608865 L 18.18 3.518241671106134 L 18.18 2.805704108364301 L 18.18 1.9524768260290117 L 18.18 1.001344202803415 L 18.18 2.755455298081545e-16 L 18.18 -1.0013442028034145 L 18.18 -1.9524768260290113 L 18.18 -2.8057041083643006 L 18.18 -3.518241671106134 L 18.18 -4.054359905560886 L 18.18 -4.387175604818206 L 18.18 -4.5 " stroke="#191919" stroke-width="0.35 px" style="stroke-width:0.35;stroke-miterlimit:4;stroke-dasharray:none;fill:none;fill-opacity:1;fill-rule: evenodd"/>
<path id="Shape2DView_nwe0017"  d="M 21.66 0.4 L 21.66 0.3899711648727295 L 21.66 0.36038754716096766 L 21.66 0.312732592987212 L 21.66 0.24939592074349345 L 21.66 0.1735534956470233 L 21.66 0.08900837358252581 L 21.66 4.898587196589413e-17 L 21.66 -0.08900837358252572 L 21.66 -0.17355349564702321 L 21.66 -0.24939592074349337 L 21.66 -0.3127325929872119 L 21.66 -0.36038754716096766 L 21.66 -0.3899711648727295 L 21.66 -0.4 " stroke="#191919" stroke-width="0.35 px" style="stroke-width:0.35;stroke-miterlimit:4;stroke-dasharray:none;fill:none;fill-opacity:1;fill-rule: evenodd"/>
<path id="Shape2DView_nwe0018"  d="M 6.93 -4.5 L 4.68 -4.5 " stroke="#191919" stroke-width="0.35 px" style="stroke-width:0.35;stroke-miterlimit:4;stroke-dasharray:none;fill:none;fill-opacity:1;fill-rule: evenodd"/>
<path id="Shape2DView_nwe0019"  d="M 4.68 -4.5 C 3.477844444542475 -4.531014551231112 2.3990449944074137 -3.4524714029425527 2.4299999999999997 -2.25 " stroke="#191919" stroke-width="0.35 px" style="stroke-width:0.35;stroke-miterlimit:4;stroke-dasharray:none;fill:none;fill-opacity:1;fill-rule: evenodd"/>
<path id="Shape2DView_nwe0020"  d="M 15.93 -4.05 L 6.93 -4.05 " stroke="#191919" stroke-width="0.35 px" style="stroke-width:0.35;stroke-miterlimit:4;stroke-dasharray:none;fill:none;fill-opacity:1;fill-rule: evenodd"/>
<path id="Shape2DView_nwe0021"  d="M 1.2000000000000002 -0.4 L 2.43 -0.4 " stroke="#191919" stroke-width="0.35 px" style="stroke-width:0.35;stroke-miterlimit:4;stroke-dasharray:none;fill:none;fill-opacity:1;fill-rule: evenodd"/>
<path id="Shape2DView_nwe0022"  d="M 1.2000000000000002 0.4 L 2.43 0.4 " stroke="#191919" stroke-width="0.35 px" style="stroke-width:0.35;stroke-miterlimit:4;stroke-dasharray:none;fill:none;fill-opacity:1;fill-rule: evenodd"/>
<path id="Shape2DView_nwe0023"  d="M 1.2000000000000008 -0.4 Q 0.9360364957912731 -0.4000000000000001 0.6720729915825456 -0.4 Q 0.5572248185216483 -0.4 0.44237664546075095 -0.4 Q 0.011752221021809978 -0.4000000000000001 0.0 -0.4 " stroke="#191919" stroke-width="0.35 px" style="stroke-width:0.35;stroke-miterlimit:4;stroke-dasharray:none;fill:none;fill-opacity:1;fill-rule: evenodd"/>
<path id="Shape2DView_nwe0024"  d="M 1.2000000000000008 0.4 Q 0.9360364957912731 0.4000000000000001 0.6720729915825456 0.4 Q 0.5572248185216483 0.4 0.44237664546075095 0.4 Q 0.011752221021809978 0.4000000000000001 0.0 0.4 " stroke="#191919" stroke-width="0.35 px" style="stroke-width:0.35;stroke-miterlimit:4;stroke-dasharray:none;fill:none;fill-opacity:1;fill-rule: evenodd"/>
<path id="Shape2DView_nwe0025"  d="M 18.18 -4.5 L 15.93 -4.5 " stroke="#191919" stroke-width="0.35 px" style="stroke-width:0.35;stroke-miterlimit:4;stroke-dasharray:none;fill:none;fill-opacity:1;fill-rule: evenodd"/>
<path id="Shape2DView_nwe0026"  d="M 18.18 -4.5 C 19.382097530893866 -4.5310326532911915 20.460951669391626 -3.452512528256619 20.43 -2.25 " stroke="#191919" stroke-width="0.35 px" style="stroke-width:0.35;stroke-miterlimit:4;stroke-dasharray:none;fill:none;fill-opacity:1;fill-rule: evenodd"/>
<path id="Shape2DView_nwe0027"  d="M 20.43 -0.4 L 21.66 -0.4 " stroke="#191919" stroke-width="0.35 px" style="stroke-width:0.35;stroke-miterlimit:4;stroke-dasharray:none;fill:none;fill-opacity:1;fill-rule: evenodd"/>
<path id="Shape2DView_nwe0028"  d="M 20.43 0.4 L 21.66 0.4 " stroke="#191919" stroke-width="0.35 px" style="stroke-width:0.35;stroke-miterlimit:4;stroke-dasharray:none;fill:none;fill-opacity:1;fill-rule: evenodd"/>
<path id="Shape2DView_nwe0029"  d="M 21.66 0.39999999999999997 Q 22.753317026626952 0.4000000000000001 22.859999999999996 0.4 " stroke="#191919" stroke-width="0.35 px" style="stroke-width:0.35;stroke-miterlimit:4;stroke-dasharray:none;fill:none;fill-opacity:1;fill-rule: evenodd"/>
<path id="Shape2DView_nwe0030"  d="M 21.66 -0.39999999999999997 Q 22.753317026626952 -0.4000000000000001 22.859999999999996 -0.4 " stroke="#191919" stroke-width="0.35 px" style="stroke-width:0.35;stroke-miterlimit:4;stroke-dasharray:none;fill:none;fill-opacity:1;fill-rule: evenodd"/>
<title>b'Shape2DView'</title>
</g>
<g id="Rectangle" transform="translate(0.633625,4.736542) scale(1,-1)">
<rect fill="#ff0000" id="origin" width="1" height="1" x="0" y="0" />
<title>b'Rectangle'</title>
</g>
</svg>