<?xml version="1.0"?>
<!DOCTYPE svg PUBLIC "-//W3C//DTD SVG 1.1//EN" "http://www.w3.org/Graphics/SVG/1.1/DTD/svg11.dtd">
<svg width="21.536450441264016mm" height="6.422283341985569mm" viewBox="0 0 21.536450441264016 6.422283341985569" xmlns="http://www.w3.org/2000/svg" version="1.1">
<g id="Shape2DView" transform="translate(0.608225,3.211142) scale(1,-1)">
<path id="Shape2DView_nwe0000"  d="M 3.16 3.0 L 5.91 3.0 " stroke="#191919" stroke-width="0.35 px" style="stroke-width:0.35;stroke-miterlimit:4;stroke-dasharray:none;fill:none;fill-opacity:1;fill-rule: evenodd"/>
<path id="Shape2DView_nwe0001"  d="M 5.91 3.0 L 5.91 2.924783736545471 L 5.91 2.7029066037072575 L 5.91 2.3454944474040893 L 5.91 1.8704694055762008 L 5.91 1.3016512173526746 L 5.91 0.6675628018689433 L 5.91 1.8369701987210297e-16 L 5.91 -0.667562801868943 L 5.91 -1.3016512173526742 L 5.91 -1.8704694055762006 L 5.91 -2.3454944474040893 L 5.91 -2.702906603707257 L 5.91 -2.924783736545471 L 5.91 -3.0 " stroke="#191919" stroke-width="0.35 px" style="stroke-width:0.35;stroke-miterlimit:4;stroke-dasharray:none;fill:none;fill-opacity:1;fill-rule: evenodd"/>
<path id="Shape2DView_nwe0002"  d="M 1.66 1.5 L 1.66 1.4623918682727355 L 1.66 1.3514533018536288 L 1.66 1.1727472237020446 L 1.66 0.9352347027881004 L 1.66 0.6508256086763373 L 1.66 0.3337814009344717 L 1.66 9.184850993605148e-17 L 1.66 -0.3337814009344715 L 1.66 -0.6508256086763371 L 1.66 -0.9352347027881003 L 1.66 -1.1727472237020446 L 1.66 -1.3514533018536286 L 1.66 -1.4623918682727355 L 1.66 -1.5 " stroke="#191919" stroke-width="0.35 px" style="stroke-width:0.35;stroke-miterlimit:4;stroke-dasharray:none;fill:none;fill-opacity:1;fill-rule: evenodd"/>
<path id="Shape2DView_nwe0003"  d="M 1.66 -1.5 L 1.66 -1.4935292268420874 L 1.66 -1.474172735242032 L 1.66 -1.4420975271548693 L 1.66 -1.3975803377746323 L 1.66 -1.3410052479467978 L 1.66 -1.2728603704349184 L 1.66 -1.1937336386313313 L 1.66 -1.1043077340456737 L 1.66 -1.0053541963352992 L 1.66 -0.8977267666944702 L 1.66 -0.7823540220335534 L 1.66 -0.6602313634982908 L 1.66 -0.5324124284497794 L 1.66 -0.40000000000000036 " stroke="#191919" stroke-width="0.35 px" style="stroke-width:0.35;stroke-miterlimit:4;stroke-dasharray:none;fill:none;fill-opacity:1;fill-rule: evenodd"/>
<path id="Shape2DView_nwe0004"  d="M 1.66 0.39999999999999974 L 1.66 0.5324124284497802 L 1.66 0.6602313634982915 L 1.66 0.7823540220335541 L 1.66 0.8977267666944708 L 1.66 1.0053541963352994 L 1.66 1.1043077340456733 L 1.66 1.1937336386313304 L 1.66 1.2728603704349173 L 1.66 1.3410052479467967 L 1.66 1.397580337774631 L 1.66 1.4420975271548682 L 1.66 1.474172735242031 L 1.66 1.4935292268420872 L 1.66 1.5 " stroke="#191919" stroke-width="0.35 px" style="stroke-width:0.35;stroke-miterlimit:4;stroke-dasharray:none;fill:none;fill-opacity:1;fill-rule: evenodd"/>
<path id="Shape2DView_nwe0005"  d="M 3.16 3.0 A 1.5 1.5 0 0 1 1.66 1.5" stroke="#191919" stroke-width="0.35 px" style="stroke-width:0.35;stroke-miterlimit:4;stroke-dasharray:none;fill:none;fill-opacity:1;fill-rule: evenodd"/>
<path id="Shape2DView_nwe0006"  d="M 5.91 2.7 L 14.41 2.7 " stroke="#191919" stroke-width="0.35 px" style="stroke-width:0.35;stroke-miterlimit:4;stroke-dasharray:none;fill:none;fill-opacity:1;fill-rule: evenodd"/>
<path id="Shape2DView_nwe0007"  d="M 14.41 3.0 L 14.41 2.924783736545471 L 14.41 2.7029066037072575 L 14.41 2.3454944474040893 L 14.41 1.8704694055762008 L 14.41 1.3016512173526746 L 14.41 0.6675628018689433 L 14.41 1.8369701987210297e-16 L 14.41 -0.667562801868943 L 14.41 -1.3016512173526742 L 14.41 -1.8704694055762006 L 14.41 -2.3454944474040893 L 14.41 -2.702906603707257 L 14.41 -2.924783736545471 L 14.41 -3.0 " stroke="#191919" stroke-width="0.35 px" style="stroke-width:0.35;stroke-miterlimit:4;stroke-dasharray:none;fill:none;fill-opacity:1;fill-rule: evenodd"/>
<path id="Shape2DView_nwe0008"  d="M 2.0212861992297212e-16 0.4 A 0.4 0.4 0 1 1 -7.34788e-17 -0.4" stroke="#191919" stroke-width="0.35 px" style="stroke-width:0.35;stroke-miterlimit:4;stroke-dasharray:none;fill:none;fill-opacity:1;fill-rule: evenodd"/>
<path id="Shape2DView_nwe0009"  d="M 14.41 3.0 L 17.16 3.0 " stroke="#191919" stroke-width="0.35 px" style="stroke-width:0.35;stroke-miterlimit:4;stroke-dasharray:none;fill:none;fill-opacity:1;fill-rule: evenodd"/>
<path id="Shape2DView_nwe0010"  d="M 17.16 3.0 A 1.5 1.5 0 0 0 18.66 1.5" stroke="#191919" stroke-width="0.35 px" style="stroke-width:0.35;stroke-miterlimit:4;stroke-dasharray:none;fill:none;fill-opacity:1;fill-rule: evenodd"/>
<path id="Shape2DView_nwe0011"  d="M 18.66 1.5 L 18.66 1.4623918682727355 L 18.66 1.3514533018536288 L 18.66 1.1727472237020446 L 18.66 0.9352347027881004 L 18.66 0.6508256086763373 L 18.66 0.3337814009344717 L 18.66 9.184850993605148e-17 L 18.66 -0.3337814009344715 L 18.66 -0.6508256086763371 L 18.66 -0.9352347027881003 L 18.66 -1.1727472237020446 L 18.66 -1.3514533018536286 L 18.66 -1.4623918682727355 L 18.66 -1.5 " stroke="#191919" stroke-width="0.35 px" style="stroke-width:0.35;stroke-miterlimit:4;stroke-dasharray:none;fill:none;fill-opacity:1;fill-rule: evenodd"/>
<path id="Shape2DView_nwe0012"  d="M 20.32 -0.4 A 0.4 0.4 0 0 1 20.32 0.4" stroke="#191919" stroke-width="0.35 px" style="stroke-width:0.35;stroke-miterlimit:4;stroke-dasharray:none;fill:none;fill-opacity:1;fill-rule: evenodd"/>
<path id="Shape2DView_nwe0013"  d="M 3.16 3.0 L 3.16 2.924783736545471 L 3.16 2.7029066037072575 L 3.16 2.3454944474040893 L 3.16 1.8704694055762008 L 3.16 1.3016512173526746 L 3.16 0.6675628018689433 L 3.16 1.8369701987210297e-16 L 3.16 -0.667562801868943 L 3.16 -1.3016512173526742 L 3.16 -1.8704694055762006 L 3.16 -2.3454944474040893 L 3.16 -2.702906603707257 L 3.16 -2.924783736545471 L 3.16 -3.0 " stroke="#191919" stroke-width="0.35 px" style="stroke-width:0.35;stroke-miterlimit:4;stroke-dasharray:none;fill:none;fill-opacity:1;fill-rule: evenodd"/>
<path id="Shape2DView_nwe0014"  d="M 1.2 -0.4 L 1.2 -0.3899711648727295 L 1.2 -0.3603875471609677 L 1.2 -0.312732592987212 L 1.1999999999999997 -0.24939592074349348 L 1.1999999999999997 -0.17355349564702335 L 1.1999999999999997 -0.08900837358252586 L 1.1999999999999997 -9.797174393178826e-17 L 1.1999999999999997 0.08900837358252567 L 1.1999999999999997 0.17355349564702316 L 1.1999999999999997 0.24939592074349337 L 1.2 0.31273259298721184 L 1.2 0.36038754716096766 L 1.2 0.3899711648727294 L 1.2 0.4 " stroke="#191919" stroke-width="0.35 px" style="stroke-width:0.35;stroke-miterlimit:4;stroke-dasharray:none;fill:none;fill-opacity:1;fill-rule: evenodd"/>
<path id="Shape2DView_nwe0015"  d="M 17.16 3.0 L 17.16 2.924783736545471 L 17.16 2.7029066037072575 L 17.16 2.3454944474040893 L 17.16 1.8704694055762008 L 17.16 1.3016512173526746 L 17.16 0.6675628018689433 L 17.16 1.8369701987210297e-16 L 17.16 -0.667562801868943 L 17.16 -1.3016512173526742 L 17.16 -1.8704694055762006 L 17.16 -2.3454944474040893 L 17.16 -2.702906603707257 L 17.16 -2.924783736545471 L 17.16 -3.0 " stroke="#191919" stroke-width="0.35 px" style="stroke-width:0.35;stroke-miterlimit:4;stroke-dasharray:none;fill:none;fill-opacity:1;fill-rule: evenodd"/>
<path id="Shape2DView_nwe0016"  d="M 19.12 0.4 L 19.12 0.3899711648727295 L 19.12 0.36038754716096766 L 19.12 0.312732592987212 L 19.12 0.24939592074349345 L 19.12 0.1735534956470233 L 19.12 0.08900837358252581 L 19.12 4.898587196589413e-17 L 19.12 -0.08900837358252572 L 19.12 -0.17355349564702321 L 19.12 -0.24939592074349337 L 19.12 -0.3127325929872119 L 19.12 -0.36038754716096766 L 19.12 -0.3899711648727295 L 19.12 -0.4 " stroke="#191919" stroke-width="0.35 px" style="stroke-width:0.35;stroke-miterlimit:4;stroke-dasharray:none;fill:none;fill-opacity:1;fill-rule: evenodd"/>
<path id="Shape2DView_nwe0017"  d="M 5.91 -3.0 L 3.16 -3.0 " stroke="#191919" stroke-width="0.35 px" style="stroke-width:0.35;stroke-miterlimit:4;stroke-dasharray:none;fill:none;fill-opacity:1;fill-rule: evenodd"/>
<path id="Shape2DView_nwe0018"  d="M 3.16 -3.0 Q 1.7934922615065325 -2.866787777347197 1.6600000000000001 -1.5 " stroke="#191919" stroke-width="0.35 px" style="stroke-width:0.35;stroke-miterlimit:4;stroke-dasharray:none;fill:none;fill-opacity:1;fill-rule: evenodd"/>
<path id="Shape2DView_nwe0019"  d="M 14.41 -2.7 L 5.91 -2.7 " stroke="#191919" stroke-width="0.35 px" style="stroke-width:0.35;stroke-miterlimit:4;stroke-dasharray:none;fill:none;fill-opacity:1;fill-rule: evenodd"/>
<path id="Shape2DView_nwe0020"  d="M 1.2000000000000002 -0.4 L 1.66 -0.4 " stroke="#191919" stroke-width="0.35 px" style="stroke-width:0.35;stroke-miterlimit:4;stroke-dasharray:none;fill:none;fill-opacity:1;fill-rule: evenodd"/>
<path id="Shape2DView_nwe0021"  d="M 1.2000000000000002 0.4 L 1.66 0.4 " stroke="#191919" stroke-width="0.35 px" style="stroke-width:0.35;stroke-miterlimit:4;stroke-dasharray:none;fill:none;fill-opacity:1;fill-rule: evenodd"/>
<path id="Shape2DView_nwe0022"  d="M 1.2000000000000008 -0.4 Q 0.9360364957912745 -0.4000000000000001 0.6720729915825483 -0.4 Q 0.5572248185216495 -0.4 0.44237664546075095 -0.4 Q 0.0117522210218097 -0.4000000000000001 0.0 -0.4 " stroke="#191919" stroke-width="0.35 px" style="stroke-width:0.35;stroke-miterlimit:4;stroke-dasharray:none;fill:none;fill-opacity:1;fill-rule: evenodd"/>
<path id="Shape2DView_nwe0023"  d="M 1.2000000000000008 0.4 Q 0.9360364957912745 0.4000000000000001 0.6720729915825483 0.4 Q 0.5572248185216495 0.4 0.44237664546075095 0.4 Q 0.0117522210218097 0.4000000000000001 0.0 0.4 " stroke="#191919" stroke-width="0.35 px" style="stroke-width:0.35;stroke-miterlimit:4;stroke-dasharray:none;fill:none;fill-opacity:1;fill-rule: evenodd"/>
<path id="Shape2DView_nwe0024"  d="M 17.16 -3.0 L 14.41 -3.0 " stroke="#191919" stroke-width="0.35 px" style="stroke-width:0.35;stroke-miterlimit:4;stroke-dasharray:none;fill:none;fill-opacity:1;fill-rule: evenodd"/>
<path id="Shape2DView_nwe0025"  d="M 17.16 -3.0 Q 17.468635773219923 -2.9335524669249318 17.77727154643984 -2.8671049338498635 Q 17.960185901403765 -2.7500138261388196 18.14310025636769 -2.6329227184277766 Q 18.647249709974552 -2.178562607403552 18.66 -1.5000000000000002 " stroke="#191919" stroke-width="0.35 px" style="stroke-width:0.35;stroke-miterlimit:4;stroke-dasharray:none;fill:none;fill-opacity:1;fill-rule: evenodd"/>
<path id="Shape2DView_nwe0026"  d="M 18.66 -0.4 L 19.12 -0.4 " stroke="#191919" stroke-width="0.35 px" style="stroke-width:0.35;stroke-miterlimit:4;stroke-dasharray:none;fill:none;fill-opacity:1;fill-rule: evenodd"/>
<path id="Shape2DView_nwe0027"  d="M 18.66 0.4 L 19.12 0.4 " stroke="#191919" stroke-width="0.35 px" style="stroke-width:0.35;stroke-miterlimit:4;stroke-dasharray:none;fill:none;fill-opacity:1;fill-rule: evenodd"/>
<path id="Shape2DView_nwe0028"  d="M 19.120000000000005 0.4 Q 20.21331719686258 0.4000000000000001 20.32 0.4 " stroke="#191919" stroke-width="0.35 px" style="stroke-width:0.35;stroke-miterlimit:4;stroke-dasharray:none;fill:none;fill-opacity:1;fill-rule: evenodd"/>
<path id="Shape2DView_nwe0029"  d="M 19.120000000000005 -0.4 Q 20.21331719686258 -0.4000000000000001 20.32 -0.4 " stroke="#191919" stroke-width="0.35 px" style="stroke-width:0.35;stroke-miterlimit:4;stroke-dasharray:none;fill:none;fill-opacity:1;fill-rule: evenodd"/>
<title>b'Shape2DView'</title>
</g>
<g id="Rectangle" transform="translate(0.608225,3.211142) scale(1,-1)">
<rect fill="#ff0000" id="origin" width="1" height="1" x="0" y="0" />
<title>b'Rectangle'</title>
</g>
</svg>