<?xml version="1.0"?>
<!DOCTYPE svg PUBLIC "-//W3C//DTD SVG 1.1//EN" "http://www.w3.org/Graphics/SVG/1.1/DTD/svg11.dtd">
<svg width="5.687881525790008mm" height="1.9115270887409805mm" viewBox="0 0 5.687881525790008 1.9115270887409805" xmlns="http://www.w3.org/2000/svg" version="1.1">
<g id="Shape2DView" transform="translate(0.303941,1.055764) scale(1,-1)">
<path id="Shape2DView_nwe0000"  d="M 1.14 0.8 L 1.64 0.8 " stroke="#191919" stroke-width="0.35 px" style="stroke-width:0.35;stroke-miterlimit:4;stroke-dasharray:none;fill:none;fill-opacity:1;fill-rule: evenodd"/>
<path id="Shape2DView_nwe0001"  d="M 1.64 0.8 L 1.64 0.779942329745459 L 1.64 0.7207750943219353 L 1.64 0.6254651859744239 L 1.64 0.4987918414869869 L 1.64 0.34710699129404654 L 1.64 0.17801674716505156 L 1.64 4.898587196589413e-17 L 1.64 -0.17801674716505148 L 1.64 -0.3471069912940465 L 1.64 -0.4987918414869868 L 1.64 -0.6254651859744239 L 1.64 -0.7207750943219353 L 1.64 -0.779942329745459 L 1.64 -0.8 " stroke="#191919" stroke-width="0.35 px" style="stroke-width:0.35;stroke-miterlimit:4;stroke-dasharray:none;fill:none;fill-opacity:1;fill-rule: evenodd"/>
<path id="Shape2DView_nwe0002"  d="M 0.74 0.4 L 0.74 0.3899711648727295 L 0.74 0.36038754716096766 L 0.74 0.31273259298721195 L 0.74 0.24939592074349345 L 0.74 0.17355349564702327 L 0.74 0.08900837358252578 L 0.74 2.4492935982947065e-17 L 0.74 -0.08900837358252574 L 0.74 -0.17355349564702324 L 0.74 -0.2493959207434934 L 0.74 -0.31273259298721195 L 0.74 -0.36038754716096766 L 0.74 -0.3899711648727295 L 0.74 -0.4 " stroke="#191919" stroke-width="0.35 px" style="stroke-width:0.35;stroke-miterlimit:4;stroke-dasharray:none;fill:none;fill-opacity:1;fill-rule: evenodd"/>
<path id="Shape2DView_nwe0003"  d="M 0.74 -0.4 L 0.74 -0.3991816919976908 L 0.74 -0.39673011613069653 L 0.74 -0.3926553031197682 L 0.74 -0.38697392522537966 L 0.74 -0.3797092280325065 L 0.74 -0.3708909353403852 L 0.74 -0.36055512754639896 L 0.74 -0.34874409402168866 L 0.74 -0.33550616008249823 L 0.74 -0.32089548926521017 L 0.74 -0.30497186171406887 L 0.74 -0.2878004295883289 L 0.74 -0.26945145048958813 L 0.74 -0.2500000000000001 " stroke="#191919" stroke-width="0.35 px" style="stroke-width:0.35;stroke-miterlimit:4;stroke-dasharray:none;fill:none;fill-opacity:1;fill-rule: evenodd"/>
<path id="Shape2DView_nwe0004"  d="M 0.74 0.25 L 0.74 0.26945145048958796 L 0.74 0.28780042958832874 L 0.74 0.3049718617140688 L 0.74 0.32089548926521005 L 0.74 0.3355061600824982 L 0.74 0.3487440940216886 L 0.74 0.36055512754639896 L 0.74 0.37089093534038514 L 0.74 0.3797092280325065 L 0.74 0.38697392522537966 L 0.74 0.39265530311976815 L 0.74 0.3967301161306965 L 0.74 0.3991816919976908 L 0.74 0.4 " stroke="#191919" stroke-width="0.35 px" style="stroke-width:0.35;stroke-miterlimit:4;stroke-dasharray:none;fill:none;fill-opacity:1;fill-rule: evenodd"/>
<path id="Shape2DView_nwe0005"  d="M 1.14 0.8 A 0.4 0.4 0 0 1 0.74 0.4" stroke="#191919" stroke-width="0.35 px" style="stroke-width:0.35;stroke-miterlimit:4;stroke-dasharray:none;fill:none;fill-opacity:1;fill-rule: evenodd"/>
<path id="Shape2DView_nwe0006"  d="M 1.64 0.72 L 3.4400000000000004 0.72 " stroke="#191919" stroke-width="0.35 px" style="stroke-width:0.35;stroke-miterlimit:4;stroke-dasharray:none;fill:none;fill-opacity:1;fill-rule: evenodd"/>
<path id="Shape2DView_nwe0007"  d="M 1.5308084989341915e-17 0.25 A 0.25 0.25 0 0 1 -4.59243e-17 -0.25" stroke="#191919" stroke-width="0.35 px" style="stroke-width:0.35;stroke-miterlimit:4;stroke-dasharray:none;fill:none;fill-opacity:1;fill-rule: evenodd"/>
<path id="Shape2DView_nwe0008"  d="M 3.44 0.8 L 3.44 0.779942329745459 L 3.44 0.7207750943219353 L 3.44 0.6254651859744239 L 3.44 0.4987918414869869 L 3.44 0.34710699129404654 L 3.44 0.17801674716505156 L 3.44 4.898587196589413e-17 L 3.44 -0.17801674716505148 L 3.44 -0.3471069912940465 L 3.44 -0.4987918414869868 L 3.44 -0.6254651859744239 L 3.44 -0.7207750943219353 L 3.44 -0.779942329745459 L 3.44 -0.8 " stroke="#191919" stroke-width="0.35 px" style="stroke-width:0.35;stroke-miterlimit:4;stroke-dasharray:none;fill:none;fill-opacity:1;fill-rule: evenodd"/>
<path id="Shape2DView_nwe0009"  d="M 3.44 0.8 L 3.94 0.8 " stroke="#191919" stroke-width="0.35 px" style="stroke-width:0.35;stroke-miterlimit:4;stroke-dasharray:none;fill:none;fill-opacity:1;fill-rule: evenodd"/>
<path id="Shape2DView_nwe0010"  d="M 3.94 0.8 A 0.4 0.4 0 0 0 4.34 0.4" stroke="#191919" stroke-width="0.35 px" style="stroke-width:0.35;stroke-miterlimit:4;stroke-dasharray:none;fill:none;fill-opacity:1;fill-rule: evenodd"/>
<path id="Shape2DView_nwe0011"  d="M 4.34 0.4 L 4.34 0.3899711648727295 L 4.34 0.36038754716096766 L 4.34 0.31273259298721195 L 4.34 0.24939592074349345 L 4.34 0.17355349564702327 L 4.34 0.08900837358252578 L 4.34 2.4492935982947065e-17 L 4.34 -0.08900837358252574 L 4.34 -0.17355349564702324 L 4.34 -0.2493959207434934 L 4.34 -0.31273259298721195 L 4.34 -0.36038754716096766 L 4.34 -0.3899711648727295 L 4.34 -0.4 " stroke="#191919" stroke-width="0.35 px" style="stroke-width:0.35;stroke-miterlimit:4;stroke-dasharray:none;fill:none;fill-opacity:1;fill-rule: evenodd"/>
<path id="Shape2DView_nwe0012"  d="M 4.34 -0.4 L 4.34 -0.3991816919976908 L 4.34 -0.39673011613069653 L 4.34 -0.3926553031197682 L 4.34 -0.38697392522537966 L 4.34 -0.3797092280325065 L 4.34 -0.3708909353403852 L 4.34 -0.36055512754639896 L 4.34 -0.34874409402168866 L 4.34 -0.33550616008249823 L 4.34 -0.32089548926521017 L 4.34 -0.30497186171406887 L 4.34 -0.2878004295883289 L 4.34 -0.26945145048958813 L 4.34 -0.2500000000000001 " stroke="#191919" stroke-width="0.35 px" style="stroke-width:0.35;stroke-miterlimit:4;stroke-dasharray:none;fill:none;fill-opacity:1;fill-rule: evenodd"/>
<path id="Shape2DView_nwe0013"  d="M 4.34 0.25 L 4.34 0.26945145048958796 L 4.34 0.28780042958832874 L 4.34 0.3049718617140688 L 4.34 0.32089548926521005 L 4.34 0.3355061600824982 L 4.34 0.3487440940216886 L 4.34 0.36055512754639896 L 4.34 0.37089093534038514 L 4.34 0.3797092280325065 L 4.34 0.38697392522537966 L 4.34 0.39265530311976815 L 4.34 0.3967301161306965 L 4.34 0.3991816919976908 L 4.34 0.4 " stroke="#191919" stroke-width="0.35 px" style="stroke-width:0.35;stroke-miterlimit:4;stroke-dasharray:none;fill:none;fill-opacity:1;fill-rule: evenodd"/>
<path id="Shape2DView_nwe0014"  d="M 5.08 -0.25 A 0.25 0.25 0 0 1 5.08 0.25" stroke="#191919" stroke-width="0.35 px" style="stroke-width:0.35;stroke-miterlimit:4;stroke-dasharray:none;fill:none;fill-opacity:1;fill-rule: evenodd"/>
<path id="Shape2DView_nwe0015"  d="M 1.14 0.8 L 1.14 0.779942329745459 L 1.14 0.7207750943219353 L 1.14 0.6254651859744239 L 1.14 0.4987918414869869 L 1.14 0.34710699129404654 L 1.14 0.17801674716505156 L 1.14 4.898587196589413e-17 L 1.14 -0.17801674716505148 L 1.14 -0.3471069912940465 L 1.14 -0.4987918414869868 L 1.14 -0.6254651859744239 L 1.14 -0.7207750943219353 L 1.14 -0.779942329745459 L 1.14 -0.8 " stroke="#191919" stroke-width="0.35 px" style="stroke-width:0.35;stroke-miterlimit:4;stroke-dasharray:none;fill:none;fill-opacity:1;fill-rule: evenodd"/>
<path id="Shape2DView_nwe0016"  d="M 3.94 0.8 L 3.94 0.779942329745459 L 3.94 0.7207750943219353 L 3.94 0.6254651859744239 L 3.94 0.4987918414869869 L 3.94 0.34710699129404654 L 3.94 0.17801674716505156 L 3.94 4.898587196589413e-17 L 3.94 -0.17801674716505148 L 3.94 -0.3471069912940465 L 3.94 -0.4987918414869868 L 3.94 -0.6254651859744239 L 3.94 -0.7207750943219353 L 3.94 -0.779942329745459 L 3.94 -0.8 " stroke="#191919" stroke-width="0.35 px" style="stroke-width:0.35;stroke-miterlimit:4;stroke-dasharray:none;fill:none;fill-opacity:1;fill-rule: evenodd"/>
<path id="Shape2DView_nwe0017"  d="M 1.64 -0.8 L 1.14 -0.8 " stroke="#191919" stroke-width="0.35 px" style="stroke-width:0.35;stroke-miterlimit:4;stroke-dasharray:none;fill:none;fill-opacity:1;fill-rule: evenodd"/>
<path id="Shape2DView_nwe0018"  d="M 1.14 -0.8 Q 0.7789113252456427 -0.767770429764584 0.74 -0.4 " stroke="#191919" stroke-width="0.35 px" style="stroke-width:0.35;stroke-miterlimit:4;stroke-dasharray:none;fill:none;fill-opacity:1;fill-rule: evenodd"/>
<path id="Shape2DView_nwe0019"  d="M 3.4400000000000004 -0.72 L 1.64 -0.72 " stroke="#191919" stroke-width="0.35 px" style="stroke-width:0.35;stroke-miterlimit:4;stroke-dasharray:none;fill:none;fill-opacity:1;fill-rule: evenodd"/>
<path id="Shape2DView_nwe0020"  d="M 0.7399999999984925 -0.25 Q 0.06456727647399152 -0.25 0.0 -0.25 " stroke="#191919" stroke-width="0.35 px" style="stroke-width:0.35;stroke-miterlimit:4;stroke-dasharray:none;fill:none;fill-opacity:1;fill-rule: evenodd"/>
<path id="Shape2DView_nwe0021"  d="M 0.7399999999985258 0.25 Q 0.06456727647346533 0.25 0.0 0.25 " stroke="#191919" stroke-width="0.35 px" style="stroke-width:0.35;stroke-miterlimit:4;stroke-dasharray:none;fill:none;fill-opacity:1;fill-rule: evenodd"/>
<path id="Shape2DView_nwe0022"  d="M 3.94 -0.8 L 3.44 -0.8 " stroke="#191919" stroke-width="0.35 px" style="stroke-width:0.35;stroke-miterlimit:4;stroke-dasharray:none;fill:none;fill-opacity:1;fill-rule: evenodd"/>
<path id="Shape2DView_nwe0023"  d="M 3.94 -0.8 Q 4.301088674754357 -0.7677704297645842 4.34 -0.4000000000000001 " stroke="#191919" stroke-width="0.35 px" style="stroke-width:0.35;stroke-miterlimit:4;stroke-dasharray:none;fill:none;fill-opacity:1;fill-rule: evenodd"/>
<path id="Shape2DView_nwe0024"  d="M 4.340000000001507 -0.25 Q 5.01543272352678 -0.25 5.080000000000001 -0.25 " stroke="#191919" stroke-width="0.35 px" style="stroke-width:0.35;stroke-miterlimit:4;stroke-dasharray:none;fill:none;fill-opacity:1;fill-rule: evenodd"/>
<path id="Shape2DView_nwe0025"  d="M 4.340000000001474 0.25 Q 5.015432723527531 0.25 5.08 0.25 " stroke="#191919" stroke-width="0.35 px" style="stroke-width:0.35;stroke-miterlimit:4;stroke-dasharray:none;fill:none;fill-opacity:1;fill-rule: evenodd"/>
<title>b'Shape2DView'</title>
</g>
<g id="Rectangle" transform="translate(0.303941,1.055764) scale(1,-1)">
<rect fill="#ff0000" id="origin" width="1" height="1" x="0" y="0" />
<title>b'Rectangle'</title>
</g>
</svg>