<?xml version="1.0"?>
<!DOCTYPE svg PUBLIC "-//W3C//DTD SVG 1.1//EN" "http://www.w3.org/Graphics/SVG/1.1/DTD/svg11.dtd">
<svg width="31.899650441264015mm" height="9.62548334198557mm" viewBox="0 0 31.899650441264015 9.62548334198557" xmlns="http://www.w3.org/2000/svg" version="1.1">
<g id="Shape2DView" transform="translate(0.709825,4.812742) scale(1,-1)">
<path id="Shape2DView_nwe0000"  d="M 7.49 4.5 L 10.24 4.5 " stroke="#191919" stroke-width="0.35 px" style="stroke-width:0.35;stroke-miterlimit:4;stroke-dasharray:none;fill:none;fill-opacity:1;fill-rule: evenodd"/>
<path id="Shape2DView_nwe0001"  d="M 10.24 4.5 L 10.24 4.387175604818206 L 10.24 4.0543599055608865 L 10.24 3.518241671106134 L 10.24 2.805704108364301 L 10.24 1.9524768260290117 L 10.24 1.001344202803415 L 10.24 2.755455298081545e-16 L 10.24 -1.0013442028034145 L 10.24 -1.9524768260290113 L 10.24 -2.8057041083643006 L 10.24 -3.518241671106134 L 10.24 -4.054359905560886 L 10.24 -4.387175604818206 L 10.24 -4.5 " stroke="#191919" stroke-width="0.35 px" style="stroke-width:0.35;stroke-miterlimit:4;stroke-dasharray:none;fill:none;fill-opacity:1;fill-rule: evenodd"/>
<path id="Shape2DView_nwe0002"  d="M 5.24 2.25 L 5.24 2.193587802409103 L 5.24 2.0271799527804433 L 5.24 1.759120835553067 L 5.24 1.4028520541821505 L 5.24 0.9762384130145059 L 5.24 0.5006721014017075 L 5.24 1.3777276490407724e-16 L 5.24 -0.5006721014017073 L 5.24 -0.9762384130145056 L 5.24 -1.4028520541821503 L 5.24 -1.759120835553067 L 5.24 -2.027179952780443 L 5.24 -2.193587802409103 L 5.24 -2.25 " stroke="#191919" stroke-width="0.35 px" style="stroke-width:0.35;stroke-miterlimit:4;stroke-dasharray:none;fill:none;fill-opacity:1;fill-rule: evenodd"/>
<path id="Shape2DView_nwe0003"  d="M 7.49 4.5 A 2.25 2.25 0 0 1 5.24 2.25" stroke="#191919" stroke-width="0.35 px" style="stroke-width:0.35;stroke-miterlimit:4;stroke-dasharray:none;fill:none;fill-opacity:1;fill-rule: evenodd"/>
<path id="Shape2DView_nwe0004"  d="M 5.24 0.4 L 5.24 0.3899711648727295 L 5.24 0.36038754716096766 L 5.24 0.312732592987212 L 5.24 0.24939592074349345 L 5.24 0.1735534956470233 L 5.24 0.08900837358252581 L 5.24 4.898587196589413e-17 L 5.24 -0.08900837358252572 L 5.24 -0.17355349564702321 L 5.24 -0.24939592074349337 L 5.24 -0.3127325929872119 L 5.24 -0.36038754716096766 L 5.24 -0.3899711648727295 L 5.24 -0.4 " stroke="#191919" stroke-width="0.35 px" style="stroke-width:0.35;stroke-miterlimit:4;stroke-dasharray:none;fill:none;fill-opacity:1;fill-rule: evenodd"/>
<path id="Shape2DView_nwe0005"  d="M 10.24 4.05 L 20.24 4.05 " stroke="#191919" stroke-width="0.35 px" style="stroke-width:0.35;stroke-miterlimit:4;stroke-dasharray:none;fill:none;fill-opacity:1;fill-rule: evenodd"/>
<path id="Shape2DView_nwe0006"  d="M 20.24 4.5 L 20.24 4.387175604818206 L 20.24 4.0543599055608865 L 20.24 3.518241671106134 L 20.24 2.805704108364301 L 20.24 1.9524768260290117 L 20.24 1.001344202803415 L 20.24 2.755455298081545e-16 L 20.24 -1.0013442028034145 L 20.24 -1.9524768260290113 L 20.24 -2.8057041083643006 L 20.24 -3.518241671106134 L 20.24 -4.054359905560886 L 20.24 -4.387175604818206 L 20.24 -4.5 " stroke="#191919" stroke-width="0.35 px" style="stroke-width:0.35;stroke-miterlimit:4;stroke-dasharray:none;fill:none;fill-opacity:1;fill-rule: evenodd"/>
<path id="Shape2DView_nwe0007"  d="M 5.573999878030222e-16 0.4 A 0.4 0.4 0 0 1 -7.84022e-16 -0.4" stroke="#191919" stroke-width="0.35 px" style="stroke-width:0.35;stroke-miterlimit:4;stroke-dasharray:none;fill:none;fill-opacity:1;fill-rule: evenodd"/>
<path id="Shape2DView_nwe0008"  d="M 20.24 4.5 L 22.99 4.5 " stroke="#191919" stroke-width="0.35 px" style="stroke-width:0.35;stroke-miterlimit:4;stroke-dasharray:none;fill:none;fill-opacity:1;fill-rule: evenodd"/>
<path id="Shape2DView_nwe0009"  d="M 22.99 4.5 A 2.25 2.25 0 0 0 25.24 2.25" stroke="#191919" stroke-width="0.35 px" style="stroke-width:0.35;stroke-miterlimit:4;stroke-dasharray:none;fill:none;fill-opacity:1;fill-rule: evenodd"/>
<path id="Shape2DView_nwe0010"  d="M 25.24 2.25 L 25.24 2.193587802409103 L 25.24 2.0271799527804433 L 25.24 1.759120835553067 L 25.24 1.4028520541821505 L 25.24 0.9762384130145059 L 25.24 0.5006721014017075 L 25.24 1.3777276490407724e-16 L 25.24 -0.5006721014017073 L 25.24 -0.9762384130145056 L 25.24 -1.4028520541821503 L 25.24 -1.759120835553067 L 25.24 -2.027179952780443 L 25.24 -2.193587802409103 L 25.24 -2.25 " stroke="#191919" stroke-width="0.35 px" style="stroke-width:0.35;stroke-miterlimit:4;stroke-dasharray:none;fill:none;fill-opacity:1;fill-rule: evenodd"/>
<path id="Shape2DView_nwe0011"  d="M 25.24 0.4 L 25.24 0.3899711648727295 L 25.24 0.36038754716096766 L 25.24 0.312732592987212 L 25.24 0.24939592074349345 L 25.24 0.1735534956470233 L 25.24 0.08900837358252581 L 25.24 4.898587196589413e-17 L 25.24 -0.08900837358252572 L 25.24 -0.17355349564702321 L 25.24 -0.24939592074349337 L 25.24 -0.3127325929872119 L 25.24 -0.36038754716096766 L 25.24 -0.3899711648727295 L 25.24 -0.4 " stroke="#191919" stroke-width="0.35 px" style="stroke-width:0.35;stroke-miterlimit:4;stroke-dasharray:none;fill:none;fill-opacity:1;fill-rule: evenodd"/>
<path id="Shape2DView_nwe0012"  d="M 30.48 -0.4 A 0.4 0.4 0 0 1 30.48 0.4" stroke="#191919" stroke-width="0.35 px" style="stroke-width:0.35;stroke-miterlimit:4;stroke-dasharray:none;fill:none;fill-opacity:1;fill-rule: evenodd"/>
<path id="Shape2DView_nwe0013"  d="M 7.49 4.5 L 7.49 4.387175604818206 L 7.49 4.0543599055608865 L 7.49 3.518241671106134 L 7.49 2.805704108364301 L 7.49 1.9524768260290117 L 7.49 1.001344202803415 L 7.49 2.755455298081545e-16 L 7.49 -1.0013442028034145 L 7.49 -1.9524768260290113 L 7.49 -2.8057041083643006 L 7.49 -3.518241671106134 L 7.49 -4.054359905560886 L 7.49 -4.387175604818206 L 7.49 -4.5 " stroke="#191919" stroke-width="0.35 px" style="stroke-width:0.35;stroke-miterlimit:4;stroke-dasharray:none;fill:none;fill-opacity:1;fill-rule: evenodd"/>
<path id="Shape2DView_nwe0014"  d="M 1.2 -0.4 L 1.2 -0.3899711648727295 L 1.2 -0.3603875471609677 L 1.2 -0.312732592987212 L 1.1999999999999997 -0.24939592074349348 L 1.1999999999999997 -0.17355349564702335 L 1.1999999999999997 -0.08900837358252586 L 1.1999999999999997 -9.797174393178826e-17 L 1.1999999999999997 0.08900837358252567 L 1.1999999999999997 0.17355349564702316 L 1.1999999999999997 0.24939592074349337 L 1.2 0.31273259298721184 L 1.2 0.36038754716096766 L 1.2 0.3899711648727294 L 1.2 0.4 " stroke="#191919" stroke-width="0.35 px" style="stroke-width:0.35;stroke-miterlimit:4;stroke-dasharray:none;fill:none;fill-opacity:1;fill-rule: evenodd"/>
<path id="Shape2DView_nwe0015"  d="M 22.99 4.5 L 22.99 4.387175604818206 L 22.99 4.0543599055608865 L 22.99 3.518241671106134 L 22.99 2.805704108364301 L 22.99 1.9524768260290117 L 22.99 1.001344202803415 L 22.99 2.755455298081545e-16 L 22.99 -1.0013442028034145 L 22.99 -1.9524768260290113 L 22.99 -2.8057041083643006 L 22.99 -3.518241671106134 L 22.99 -4.054359905560886 L 22.99 -4.387175604818206 L 22.99 -4.5 " stroke="#191919" stroke-width="0.35 px" style="stroke-width:0.35;stroke-miterlimit:4;stroke-dasharray:none;fill:none;fill-opacity:1;fill-rule: evenodd"/>
<path id="Shape2DView_nwe0016"  d="M 29.28 0.4 L 29.28 0.3899711648727295 L 29.28 0.36038754716096766 L 29.28 0.312732592987212 L 29.28 0.24939592074349345 L 29.28 0.1735534956470233 L 29.28 0.08900837358252581 L 29.28 4.898587196589413e-17 L 29.28 -0.08900837358252572 L 29.28 -0.17355349564702321 L 29.28 -0.24939592074349337 L 29.28 -0.3127325929872119 L 29.28 -0.36038754716096766 L 29.28 -0.3899711648727295 L 29.28 -0.4 " stroke="#191919" stroke-width="0.35 px" style="stroke-width:0.35;stroke-miterlimit:4;stroke-dasharray:none;fill:none;fill-opacity:1;fill-rule: evenodd"/>
<path id="Shape2DView_nwe0017"  d="M 10.24 -4.5 L 7.49 -4.5 " stroke="#191919" stroke-width="0.35 px" style="stroke-width:0.35;stroke-miterlimit:4;stroke-dasharray:none;fill:none;fill-opacity:1;fill-rule: evenodd"/>
<path id="Shape2DView_nwe0018"  d="M 7.49 -4.5 C 6.287844361536746 -4.5310145078526 5.209045065296202 -3.4524712513927467 5.24 -2.25 " stroke="#191919" stroke-width="0.35 px" style="stroke-width:0.35;stroke-miterlimit:4;stroke-dasharray:none;fill:none;fill-opacity:1;fill-rule: evenodd"/>
<path id="Shape2DView_nwe0019"  d="M 20.24 -4.05 L 10.24 -4.05 " stroke="#191919" stroke-width="0.35 px" style="stroke-width:0.35;stroke-miterlimit:4;stroke-dasharray:none;fill:none;fill-opacity:1;fill-rule: evenodd"/>
<path id="Shape2DView_nwe0020"  d="M 1.2000000000000002 -0.4 L 5.24 -0.4 " stroke="#191919" stroke-width="0.35 px" style="stroke-width:0.35;stroke-miterlimit:4;stroke-dasharray:none;fill:none;fill-opacity:1;fill-rule: evenodd"/>
<path id="Shape2DView_nwe0021"  d="M 1.2000000000000002 0.4 L 5.24 0.4 " stroke="#191919" stroke-width="0.35 px" style="stroke-width:0.35;stroke-miterlimit:4;stroke-dasharray:none;fill:none;fill-opacity:1;fill-rule: evenodd"/>
<path id="Shape2DView_nwe0022"  d="M 1.2000000000000008 -0.4 Q 0.9360364957912731 -0.4000000000000001 0.6720729915825456 -0.4 Q 0.5572248185216483 -0.4 0.44237664546075095 -0.4 Q 0.011752221021809978 -0.4000000000000001 0.0 -0.4 " stroke="#191919" stroke-width="0.35 px" style="stroke-width:0.35;stroke-miterlimit:4;stroke-dasharray:none;fill:none;fill-opacity:1;fill-rule: evenodd"/>
<path id="Shape2DView_nwe0023"  d="M 1.2000000000000008 0.4 Q 0.9360364957912731 0.4000000000000001 0.6720729915825456 0.4 Q 0.5572248185216483 0.4 0.44237664546075095 0.4 Q 0.011752221021809978 0.4000000000000001 0.0 0.4 " stroke="#191919" stroke-width="0.35 px" style="stroke-width:0.35;stroke-miterlimit:4;stroke-dasharray:none;fill:none;fill-opacity:1;fill-rule: evenodd"/>
<path id="Shape2DView_nwe0024"  d="M 22.99 -4.5 L 20.24 -4.5 " stroke="#191919" stroke-width="0.35 px" style="stroke-width:0.35;stroke-miterlimit:4;stroke-dasharray:none;fill:none;fill-opacity:1;fill-rule: evenodd"/>
<path id="Shape2DView_nwe0025"  d="M 22.99 -4.5 C 24.192097530894003 -4.531032653291171 25.270951669391636 -3.452512528256503 25.24 -2.25 " stroke="#191919" stroke-width="0.35 px" style="stroke-width:0.35;stroke-miterlimit:4;stroke-dasharray:none;fill:none;fill-opacity:1;fill-rule: evenodd"/>
<path id="Shape2DView_nwe0026"  d="M 25.24 -0.4 L 29.28 -0.4 " stroke="#191919" stroke-width="0.35 px" style="stroke-width:0.35;stroke-miterlimit:4;stroke-dasharray:none;fill:none;fill-opacity:1;fill-rule: evenodd"/>
<path id="Shape2DView_nwe0027"  d="M 25.24 0.4 L 29.28 0.4 " stroke="#191919" stroke-width="0.35 px" style="stroke-width:0.35;stroke-miterlimit:4;stroke-dasharray:none;fill:none;fill-opacity:1;fill-rule: evenodd"/>
<path id="Shape2DView_nwe0028"  d="M 29.280000000000005 0.4 Q 30.37331832776801 0.39999999999999997 30.48 0.4 " stroke="#191919" stroke-width="0.35 px" style="stroke-width:0.35;stroke-miterlimit:4;stroke-dasharray:none;fill:none;fill-opacity:1;fill-rule: evenodd"/>
<path id="Shape2DView_nwe0029"  d="M 29.280000000000005 -0.4 Q 30.37331832776801 -0.39999999999999997 30.48 -0.4 " stroke="#191919" stroke-width="0.35 px" style="stroke-width:0.35;stroke-miterlimit:4;stroke-dasharray:none;fill:none;fill-opacity:1;fill-rule: evenodd"/>
<title>b'Shape2DView'</title>
</g>
<g id="Rectangle" transform="translate(0.709825,4.812742) scale(1,-1)">
<rect fill="#ff0000" id="origin" width="1" height="1" x="0" y="0" />
<title>b'Rectangle'</title>
</g>
</svg>