<?xml version="1.0"?>
<!DOCTYPE svg PUBLIC "-//W3C//DTD SVG 1.1//EN" "http://www.w3.org/Graphics/SVG/1.1/DTD/svg11.dtd">
<svg width="36.72mm" height="56.72mm" viewBox="0 0 36.72 56.72" xmlns="http://www.w3.org/2000/svg" version="1.1">
<g id="Shape2DView" transform="translate(12.360000,4.360000) scale(1,-1)">
<path id="Shape2DView_nwe0000"  d="M -11.0 4.0 L 23.0 4.0 " stroke="#191919" stroke-width="0.35 px" style="stroke-width:0.35;stroke-miterlimit:4;stroke-dasharray:none;fill:none;fill-opacity:1;fill-rule: evenodd"/>
<path id="Shape2DView_nwe0001"  d="M -12.0 -51.0 L -12.0 3.0 " stroke="#191919" stroke-width="0.35 px" style="stroke-width:0.35;stroke-miterlimit:4;stroke-dasharray:none;fill:none;fill-opacity:1;fill-rule: evenodd"/>
<path id="Shape2DView_nwe0002"  d="M 24.0 3.0 L 24.0 -51.0 " stroke="#191919" stroke-width="0.35 px" style="stroke-width:0.35;stroke-miterlimit:4;stroke-dasharray:none;fill:none;fill-opacity:1;fill-rule: evenodd"/>
<path id="Shape2DView_nwe0003"  d="M 23.0 -52.0 L -11.0 -52.0 " stroke="#191919" stroke-width="0.35 px" style="stroke-width:0.35;stroke-miterlimit:4;stroke-dasharray:none;fill:none;fill-opacity:1;fill-rule: evenodd"/>
<path id="Shape2DView_nwe0004"  d="M -12.0 3.0 A 1 1 0 0 0 -11 4" stroke="#191919" stroke-width="0.35 px" style="stroke-width:0.35;stroke-miterlimit:4;stroke-dasharray:none;fill:none;fill-opacity:1;fill-rule: evenodd"/>
<path id="Shape2DView_nwe0005"  d="M 23.0 4.0 A 1 1 0 0 0 24 3" stroke="#191919" stroke-width="0.35 px" style="stroke-width:0.35;stroke-miterlimit:4;stroke-dasharray:none;fill:none;fill-opacity:1;fill-rule: evenodd"/>
<path id="Shape2DView_nwe0006"  d="M -11.0 -52.0 A 1 1 0 0 0 -12 -51" stroke="#191919" stroke-width="0.35 px" style="stroke-width:0.35;stroke-miterlimit:4;stroke-dasharray:none;fill:none;fill-opacity:1;fill-rule: evenodd"/>
<path id="Shape2DView_nwe0007"  d="M 24.0 -51.0 A 1 1 0 0 0 23 -52" stroke="#191919" stroke-width="0.35 px" style="stroke-width:0.35;stroke-miterlimit:4;stroke-dasharray:none;fill:none;fill-opacity:1;fill-rule: evenodd"/>
<path id="Shape2DView_nwe0012"  d="M -11.0 4.0 L -11.0 3.9968561049466214 L -11.0 3.9874639560909118 L -11.0 3.971941665154184 L -11.0 3.9504844339512095 L -11.0 3.923362099614142 L -11.0 3.8909157412340147 L -11.0 3.853553390593274 L -11.0 3.8117449009293667 L -11.0 3.766016038257668 L -11.0 3.716941869558779 L -11.0 3.6651395309775836 L -11.0 3.611260466978157 L -11.0 3.555982238051654 L -11.0 3.5 " stroke="#191919" stroke-width="0.35 px" style="stroke-width:0.35;stroke-miterlimit:4;stroke-dasharray:none;fill:none;fill-opacity:1;fill-rule: evenodd"/>
<path id="Shape2DView_nwe0013"  d="M -11.0 3.5 L 23.0 3.5 " stroke="#191919" stroke-width="0.35 px" style="stroke-width:0.35;stroke-miterlimit:4;stroke-dasharray:none;fill:none;fill-opacity:1;fill-rule: evenodd"/>
<path id="Shape2DView_nwe0014"  d="M 23.0 4.0 L 23.0 3.9968561049466214 L 23.0 3.9874639560909118 L 23.0 3.971941665154184 L 23.0 3.9504844339512095 L 23.0 3.923362099614142 L 23.0 3.8909157412340147 L 23.0 3.853553390593274 L 23.0 3.8117449009293667 L 23.0 3.766016038257668 L 23.0 3.716941869558779 L 23.0 3.6651395309775836 L 23.0 3.611260466978157 L 23.0 3.555982238051654 L 23.0 3.5 " stroke="#191919" stroke-width="0.35 px" style="stroke-width:0.35;stroke-miterlimit:4;stroke-dasharray:none;fill:none;fill-opacity:1;fill-rule: evenodd"/>
<path id="Shape2DView_nwe0015"  d="M -11.5 3.0 A 0.5 0.5 0 0 0 -11 3.5" stroke="#191919" stroke-width="0.35 px" style="stroke-width:0.35;stroke-miterlimit:4;stroke-dasharray:none;fill:none;fill-opacity:1;fill-rule: evenodd"/>
<path id="Shape2DView_nwe0016"  d="M -12.0 3.0 L -11.996856104946621 3.0 L -11.987463956090911 3.0 L -11.971941665154183 3.0 L -11.95048443395121 3.0 L -11.923362099614142 3.0 L -11.890915741234014 3.0 L -11.853553390593273 3.0 L -11.811744900929368 3.0 L -11.766016038257668 3.0 L -11.716941869558779 3.0 L -11.665139530977584 3.0 L -11.611260466978157 3.0 L -11.555982238051653 3.0 L -11.5 3.0 " stroke="#191919" stroke-width="0.35 px" style="stroke-width:0.35;stroke-miterlimit:4;stroke-dasharray:none;fill:none;fill-opacity:1;fill-rule: evenodd"/>
<path id="Shape2DView_nwe0017"  d="M 23.0 3.5 A 0.5 0.5 0 0 0 23.5 3" stroke="#191919" stroke-width="0.35 px" style="stroke-width:0.35;stroke-miterlimit:4;stroke-dasharray:none;fill:none;fill-opacity:1;fill-rule: evenodd"/>
<path id="Shape2DView_nwe0018"  d="M 24.0 3.0 L 23.99685610494662 3.0 L 23.987463956090913 3.0 L 23.971941665154183 3.0 L 23.95048443395121 3.0 L 23.923362099614142 3.0 L 23.890915741234014 3.0 L 23.853553390593273 3.0 L 23.811744900929366 3.0 L 23.766016038257668 3.0 L 23.71694186955878 3.0 L 23.665139530977584 3.0 L 23.61126046697816 3.0 L 23.555982238051655 3.0 L 23.5 3.0 " stroke="#191919" stroke-width="0.35 px" style="stroke-width:0.35;stroke-miterlimit:4;stroke-dasharray:none;fill:none;fill-opacity:1;fill-rule: evenodd"/>
<path id="Shape2DView_nwe0019"  d="M -12.0 -51.0 L -11.996856104946621 -51.0 L -11.987463956090911 -51.0 L -11.971941665154183 -51.0 L -11.95048443395121 -51.0 L -11.923362099614142 -51.0 L -11.890915741234014 -51.0 L -11.853553390593273 -51.0 L -11.811744900929368 -51.0 L -11.766016038257668 -51.0 L -11.716941869558779 -51.0 L -11.665139530977584 -51.0 L -11.611260466978157 -51.0 L -11.555982238051653 -51.0 L -11.5 -51.0 " stroke="#191919" stroke-width="0.35 px" style="stroke-width:0.35;stroke-miterlimit:4;stroke-dasharray:none;fill:none;fill-opacity:1;fill-rule: evenodd"/>
<path id="Shape2DView_nwe0020"  d="M -11.5 -51.0 L -11.5 3.0 " stroke="#191919" stroke-width="0.35 px" style="stroke-width:0.35;stroke-miterlimit:4;stroke-dasharray:none;fill:none;fill-opacity:1;fill-rule: evenodd"/>
<path id="Shape2DView_nwe0021"  d="M 23.5 3.0 L 23.5 -51.0 " stroke="#191919" stroke-width="0.35 px" style="stroke-width:0.35;stroke-miterlimit:4;stroke-dasharray:none;fill:none;fill-opacity:1;fill-rule: evenodd"/>
<path id="Shape2DView_nwe0022"  d="M 24.0 -51.0 L 23.99685610494662 -51.0 L 23.987463956090913 -51.0 L 23.971941665154183 -51.0 L 23.95048443395121 -51.0 L 23.923362099614142 -51.0 L 23.890915741234014 -51.0 L 23.853553390593273 -51.0 L 23.811744900929366 -51.0 L 23.766016038257668 -51.0 L 23.71694186955878 -51.0 L 23.665139530977584 -51.0 L 23.61126046697816 -51.0 L 23.555982238051655 -51.0 L 23.5 -51.0 " stroke="#191919" stroke-width="0.35 px" style="stroke-width:0.35;stroke-miterlimit:4;stroke-dasharray:none;fill:none;fill-opacity:1;fill-rule: evenodd"/>
<path id="Shape2DView_nwe0023"  d="M -11.0 -51.5 A 0.5 0.5 0 0 0 -11.5 -51" stroke="#191919" stroke-width="0.35 px" style="stroke-width:0.35;stroke-miterlimit:4;stroke-dasharray:none;fill:none;fill-opacity:1;fill-rule: evenodd"/>
<path id="Shape2DView_nwe0024"  d="M -11.0 -52.0 L -11.0 -51.99685610494662 L -11.0 -51.98746395609091 L -11.0 -51.97194166515418 L -11.0 -51.95048443395121 L -11.0 -51.923362099614145 L -11.0 -51.89091574123402 L -11.0 -51.85355339059328 L -11.0 -51.81174490092937 L -11.0 -51.76601603825767 L -11.0 -51.71694186955878 L -11.0 -51.665139530977584 L -11.0 -51.61126046697816 L -11.0 -51.555982238051655 L -11.0 -51.5 " stroke="#191919" stroke-width="0.35 px" style="stroke-width:0.35;stroke-miterlimit:4;stroke-dasharray:none;fill:none;fill-opacity:1;fill-rule: evenodd"/>
<path id="Shape2DView_nwe0025"  d="M 23.5 -51.0 A 0.5 0.5 0 0 0 23 -51.5" stroke="#191919" stroke-width="0.35 px" style="stroke-width:0.35;stroke-miterlimit:4;stroke-dasharray:none;fill:none;fill-opacity:1;fill-rule: evenodd"/>
<path id="Shape2DView_nwe0026"  d="M 23.0 -52.0 L 23.0 -51.99685610494662 L 23.0 -51.98746395609091 L 23.0 -51.97194166515418 L 23.0 -51.95048443395121 L 23.0 -51.923362099614145 L 23.0 -51.89091574123402 L 23.0 -51.85355339059328 L 23.0 -51.81174490092937 L 23.0 -51.76601603825767 L 23.0 -51.71694186955878 L 23.0 -51.665139530977584 L 23.0 -51.61126046697816 L 23.0 -51.555982238051655 L 23.0 -51.5 " stroke="#191919" stroke-width="0.35 px" style="stroke-width:0.35;stroke-miterlimit:4;stroke-dasharray:none;fill:none;fill-opacity:1;fill-rule: evenodd"/>
<path id="Shape2DView_nwe0027"  d="M 23.0 -51.5 L -11.0 -51.5 " stroke="#191919" stroke-width="0.35 px" style="stroke-width:0.35;stroke-miterlimit:4;stroke-dasharray:none;fill:none;fill-opacity:1;fill-rule: evenodd"/>
<title>b'Shape2DView'</title>
</g>
<g id="Rectangle" transform="translate(12.360000,4.360000) scale(1,-1)">
<rect fill="#ff0000" id="origin" width="1" height="1" x="0" y="0" />
<title>b'Rectangle'</title>
</g>
</svg>