<?xml version="1.0"?>
<!DOCTYPE svg PUBLIC "-//W3C//DTD SVG 1.1//EN" "http://www.w3.org/Graphics/SVG/1.1/DTD/svg11.dtd">
<svg width="56.099999999999994mm" height="46.099999999999994mm" viewBox="0 0 56.099999999999994 46.099999999999994" xmlns="http://www.w3.org/2000/svg" version="1.1">
<g id="Shape2DView" transform="translate(4.550000,4.550000) scale(1,-1)">
<path id="Shape2DView_nwe0000"  d="M -3.0 4.0 L 50.0 4.0 " stroke="#191919" stroke-width="0.35 px" style="stroke-width:0.35;stroke-miterlimit:4;stroke-dasharray:none;fill:none;fill-opacity:1;fill-rule: evenodd"/>
<path id="Shape2DView_nwe0001"  d="M -4.0 -40.0 L -4.0 3.0 " stroke="#191919" stroke-width="0.35 px" style="stroke-width:0.35;stroke-miterlimit:4;stroke-dasharray:none;fill:none;fill-opacity:1;fill-rule: evenodd"/>
<path id="Shape2DView_nwe0002"  d="M 51.0 3.0 L 51.0 -40.0 " stroke="#191919" stroke-width="0.35 px" style="stroke-width:0.35;stroke-miterlimit:4;stroke-dasharray:none;fill:none;fill-opacity:1;fill-rule: evenodd"/>
<path id="Shape2DView_nwe0003"  d="M 50.0 -41.0 L -3.0 -41.0 " stroke="#191919" stroke-width="0.35 px" style="stroke-width:0.35;stroke-miterlimit:4;stroke-dasharray:none;fill:none;fill-opacity:1;fill-rule: evenodd"/>
<path id="Shape2DView_nwe0004"  d="M -4.0 3.0 A 1 1 0 0 0 -3 4" stroke="#191919" stroke-width="0.35 px" style="stroke-width:0.35;stroke-miterlimit:4;stroke-dasharray:none;fill:none;fill-opacity:1;fill-rule: evenodd"/>
<path id="Shape2DView_nwe0005"  d="M 50.0 4.0 A 1 1 0 0 0 51 3" stroke="#191919" stroke-width="0.35 px" style="stroke-width:0.35;stroke-miterlimit:4;stroke-dasharray:none;fill:none;fill-opacity:1;fill-rule: evenodd"/>
<path id="Shape2DView_nwe0006"  d="M -3.0 -41.0 A 1 1 0 0 0 -4 -40" stroke="#191919" stroke-width="0.35 px" style="stroke-width:0.35;stroke-miterlimit:4;stroke-dasharray:none;fill:none;fill-opacity:1;fill-rule: evenodd"/>
<path id="Shape2DView_nwe0007"  d="M 51.0 -40.0 A 1 1 0 0 0 50 -41" stroke="#191919" stroke-width="0.35 px" style="stroke-width:0.35;stroke-miterlimit:4;stroke-dasharray:none;fill:none;fill-opacity:1;fill-rule: evenodd"/>
<path id="Shape2DView_nwe0012"  d="M -3.0 4.0 L -3.0 3.9968561049466214 L -3.0 3.9874639560909118 L -3.0 3.971941665154184 L -3.0 3.9504844339512095 L -3.0 3.923362099614142 L -3.0 3.8909157412340147 L -3.0 3.853553390593274 L -3.0 3.8117449009293667 L -3.0 3.766016038257668 L -3.0 3.716941869558779 L -3.0 3.6651395309775836 L -3.0 3.611260466978157 L -3.0 3.555982238051654 L -3.0 3.5 " stroke="#191919" stroke-width="0.35 px" style="stroke-width:0.35;stroke-miterlimit:4;stroke-dasharray:none;fill:none;fill-opacity:1;fill-rule: evenodd"/>
<path id="Shape2DView_nwe0013"  d="M -3.0 3.5 L 50.0 3.5 " stroke="#191919" stroke-width="0.35 px" style="stroke-width:0.35;stroke-miterlimit:4;stroke-dasharray:none;fill:none;fill-opacity:1;fill-rule: evenodd"/>
<path id="Shape2DView_nwe0014"  d="M 50.0 4.0 L 50.0 3.9968561049466214 L 50.0 3.9874639560909118 L 50.0 3.971941665154184 L 50.0 3.9504844339512095 L 50.0 3.923362099614142 L 50.0 3.8909157412340147 L 50.0 3.853553390593274 L 50.0 3.8117449009293667 L 50.0 3.766016038257668 L 50.0 3.716941869558779 L 50.0 3.6651395309775836 L 50.0 3.611260466978157 L 50.0 3.555982238051654 L 50.0 3.5 " stroke="#191919" stroke-width="0.35 px" style="stroke-width:0.35;stroke-miterlimit:4;stroke-dasharray:none;fill:none;fill-opacity:1;fill-rule: evenodd"/>
<path id="Shape2DView_nwe0015"  d="M -3.5 3.0 A 0.5 0.5 0 0 0 -3 3.5" stroke="#191919" stroke-width="0.35 px" style="stroke-width:0.35;stroke-miterlimit:4;stroke-dasharray:none;fill:none;fill-opacity:1;fill-rule: evenodd"/>
<path id="Shape2DView_nwe0016"  d="M -4.0 3.0 L -3.9968561049466214 3.0 L -3.9874639560909118 3.0 L -3.971941665154184 3.0 L -3.9504844339512095 3.0 L -3.923362099614142 3.0 L -3.8909157412340147 3.0 L -3.853553390593274 3.0 L -3.8117449009293667 3.0 L -3.766016038257668 3.0 L -3.716941869558779 3.0 L -3.6651395309775836 3.0 L -3.611260466978157 3.0 L -3.555982238051654 3.0 L -3.5 3.0 " stroke="#191919" stroke-width="0.35 px" style="stroke-width:0.35;stroke-miterlimit:4;stroke-dasharray:none;fill:none;fill-opacity:1;fill-rule: evenodd"/>
<path id="Shape2DView_nwe0017"  d="M 50.0 3.5 A 0.5 0.5 0 0 0 50.5 3" stroke="#191919" stroke-width="0.35 px" style="stroke-width:0.35;stroke-miterlimit:4;stroke-dasharray:none;fill:none;fill-opacity:1;fill-rule: evenodd"/>
<path id="Shape2DView_nwe0018"  d="M 51.0 3.0 L 50.99685610494662 3.0 L 50.98746395609091 3.0 L 50.97194166515418 3.0 L 50.95048443395121 3.0 L 50.923362099614145 3.0 L 50.89091574123402 3.0 L 50.85355339059328 3.0 L 50.81174490092937 3.0 L 50.76601603825767 3.0 L 50.71694186955878 3.0 L 50.665139530977584 3.0 L 50.61126046697816 3.0 L 50.555982238051655 3.0 L 50.5 3.0 " stroke="#191919" stroke-width="0.35 px" style="stroke-width:0.35;stroke-miterlimit:4;stroke-dasharray:none;fill:none;fill-opacity:1;fill-rule: evenodd"/>
<path id="Shape2DView_nwe0019"  d="M -4.0 -40.0 L -3.9968561049466214 -40.0 L -3.9874639560909118 -40.0 L -3.971941665154184 -40.0 L -3.9504844339512095 -40.0 L -3.923362099614142 -40.0 L -3.8909157412340147 -40.0 L -3.853553390593274 -40.0 L -3.8117449009293667 -40.0 L -3.766016038257668 -40.0 L -3.716941869558779 -40.0 L -3.6651395309775836 -40.0 L -3.611260466978157 -40.0 L -3.555982238051654 -40.0 L -3.5 -40.0 " stroke="#191919" stroke-width="0.35 px" style="stroke-width:0.35;stroke-miterlimit:4;stroke-dasharray:none;fill:none;fill-opacity:1;fill-rule: evenodd"/>
<path id="Shape2DView_nwe0020"  d="M -3.5 -40.0 L -3.5 3.0 " stroke="#191919" stroke-width="0.35 px" style="stroke-width:0.35;stroke-miterlimit:4;stroke-dasharray:none;fill:none;fill-opacity:1;fill-rule: evenodd"/>
<path id="Shape2DView_nwe0021"  d="M 50.5 3.0 L 50.5 -40.0 " stroke="#191919" stroke-width="0.35 px" style="stroke-width:0.35;stroke-miterlimit:4;stroke-dasharray:none;fill:none;fill-opacity:1;fill-rule: evenodd"/>
<path id="Shape2DView_nwe0022"  d="M 51.0 -40.0 L 50.99685610494662 -40.0 L 50.98746395609091 -40.0 L 50.97194166515418 -40.0 L 50.95048443395121 -40.0 L 50.923362099614145 -40.0 L 50.89091574123402 -40.0 L 50.85355339059328 -40.0 L 50.81174490092937 -40.0 L 50.76601603825767 -40.0 L 50.71694186955878 -40.0 L 50.665139530977584 -40.0 L 50.61126046697816 -40.0 L 50.555982238051655 -40.0 L 50.5 -40.0 " stroke="#191919" stroke-width="0.35 px" style="stroke-width:0.35;stroke-miterlimit:4;stroke-dasharray:none;fill:none;fill-opacity:1;fill-rule: evenodd"/>
<path id="Shape2DView_nwe0023"  d="M -3.0 -40.5 A 0.5 0.5 0 0 0 -3.5 -40" stroke="#191919" stroke-width="0.35 px" style="stroke-width:0.35;stroke-miterlimit:4;stroke-dasharray:none;fill:none;fill-opacity:1;fill-rule: evenodd"/>
<path id="Shape2DView_nwe0024"  d="M -3.0 -41.0 L -3.0 -40.99685610494662 L -3.0 -40.98746395609091 L -3.0 -40.97194166515418 L -3.0 -40.95048443395121 L -3.0 -40.923362099614145 L -3.0 -40.89091574123402 L -3.0 -40.85355339059328 L -3.0 -40.81174490092937 L -3.0 -40.76601603825767 L -3.0 -40.71694186955878 L -3.0 -40.665139530977584 L -3.0 -40.61126046697816 L -3.0 -40.555982238051655 L -3.0 -40.5 " stroke="#191919" stroke-width="0.35 px" style="stroke-width:0.35;stroke-miterlimit:4;stroke-dasharray:none;fill:none;fill-opacity:1;fill-rule: evenodd"/>
<path id="Shape2DView_nwe0025"  d="M 50.5 -40.0 A 0.5 0.5 0 0 0 50 -40.5" stroke="#191919" stroke-width="0.35 px" style="stroke-width:0.35;stroke-miterlimit:4;stroke-dasharray:none;fill:none;fill-opacity:1;fill-rule: evenodd"/>
<path id="Shape2DView_nwe0026"  d="M 50.0 -41.0 L 50.0 -40.99685610494662 L 50.0 -40.98746395609091 L 50.0 -40.97194166515418 L 50.0 -40.95048443395121 L 50.0 -40.923362099614145 L 50.0 -40.89091574123402 L 50.0 -40.85355339059328 L 50.0 -40.81174490092937 L 50.0 -40.76601603825767 L 50.0 -40.71694186955878 L 50.0 -40.665139530977584 L 50.0 -40.61126046697816 L 50.0 -40.555982238051655 L 50.0 -40.5 " stroke="#191919" stroke-width="0.35 px" style="stroke-width:0.35;stroke-miterlimit:4;stroke-dasharray:none;fill:none;fill-opacity:1;fill-rule: evenodd"/>
<path id="Shape2DView_nwe0027"  d="M 50.0 -40.5 L -3.0 -40.5 " stroke="#191919" stroke-width="0.35 px" style="stroke-width:0.35;stroke-miterlimit:4;stroke-dasharray:none;fill:none;fill-opacity:1;fill-rule: evenodd"/>
<title>b'Shape2DView'</title>
</g>
<g id="Rectangle" transform="translate(4.550000,4.550000) scale(1,-1)">
<rect fill="#ff0000" id="origin" width="1" height="1" x="0" y="0" />
<title>b'Rectangle'</title>
</g>
</svg>