<?xml version="1.0"?>
<!DOCTYPE svg PUBLIC "-//W3C//DTD SVG 1.1//EN" "http://www.w3.org/Graphics/SVG/1.1/DTD/svg11.dtd">
<svg width="53.448mm" height="28.247999999999998mm" viewBox="0 0 53.448 28.247999999999998" xmlns="http://www.w3.org/2000/svg" version="1.1">
<g id="Shape2DView" transform="translate(3.064000,12.784000) scale(1,-1)">
<path id="Shape2DView_nwe0000"  d="M 49.86 11.26 L 49.86 -13.94 " stroke="#191919" stroke-width="0.35 px" style="stroke-width:0.35;stroke-miterlimit:4;stroke-dasharray:none;fill:none;fill-opacity:1;fill-rule: evenodd"/>
<path id="Shape2DView_nwe0001"  d="M -1.54 12.26 L 48.86 12.26 " stroke="#191919" stroke-width="0.35 px" style="stroke-width:0.35;stroke-miterlimit:4;stroke-dasharray:none;fill:none;fill-opacity:1;fill-rule: evenodd"/>
<path id="Shape2DView_nwe0002"  d="M 48.86 -14.94 L -1.5399999999999991 -14.94 " stroke="#191919" stroke-width="0.35 px" style="stroke-width:0.35;stroke-miterlimit:4;stroke-dasharray:none;fill:none;fill-opacity:1;fill-rule: evenodd"/>
<path id="Shape2DView_nwe0003"  d="M -2.54 -13.94 L -2.54 11.26 " stroke="#191919" stroke-width="0.35 px" style="stroke-width:0.35;stroke-miterlimit:4;stroke-dasharray:none;fill:none;fill-opacity:1;fill-rule: evenodd"/>
<path id="Shape2DView_nwe0004"  d="M 48.86 12.26 A 1 1 0 0 0 49.86 11.26" stroke="#191919" stroke-width="0.35 px" style="stroke-width:0.35;stroke-miterlimit:4;stroke-dasharray:none;fill:none;fill-opacity:1;fill-rule: evenodd"/>
<path id="Shape2DView_nwe0005"  d="M 49.86 -13.94 A 1 1 0 0 0 48.86 -14.94" stroke="#191919" stroke-width="0.35 px" style="stroke-width:0.35;stroke-miterlimit:4;stroke-dasharray:none;fill:none;fill-opacity:1;fill-rule: evenodd"/>
<path id="Shape2DView_nwe0006"  d="M -2.54 11.26 A 1 1 0 0 0 -1.54 12.26" stroke="#191919" stroke-width="0.35 px" style="stroke-width:0.35;stroke-miterlimit:4;stroke-dasharray:none;fill:none;fill-opacity:1;fill-rule: evenodd"/>
<path id="Shape2DView_nwe0007"  d="M -1.5400000000000007 -14.94 A 1 1 0 0 0 -2.54 -13.94" stroke="#191919" stroke-width="0.35 px" style="stroke-width:0.35;stroke-miterlimit:4;stroke-dasharray:none;fill:none;fill-opacity:1;fill-rule: evenodd"/>
<path id="Shape2DView_nwe0008"  d="M 47.86 -13.94 L -0.5399999999999991 -13.94 " stroke="#191919" stroke-width="0.35 px" style="stroke-width:0.35;stroke-miterlimit:4;stroke-dasharray:none;fill:none;fill-opacity:1;fill-rule: evenodd"/>
<path id="Shape2DView_nwe0009"  d="M -0.54 -13.94 A 1 1 0 0 0 -1.54 -12.94" stroke="#191919" stroke-width="0.35 px" style="stroke-width:0.35;stroke-miterlimit:4;stroke-dasharray:none;fill:none;fill-opacity:1;fill-rule: evenodd"/>
<path id="Shape2DView_nwe0010"  d="M -1.54 -12.94 L -1.54 10.26 " stroke="#191919" stroke-width="0.35 px" style="stroke-width:0.35;stroke-miterlimit:4;stroke-dasharray:none;fill:none;fill-opacity:1;fill-rule: evenodd"/>
<path id="Shape2DView_nwe0011"  d="M -1.54 10.26 A 1 1 0 0 0 -0.54 11.26" stroke="#191919" stroke-width="0.35 px" style="stroke-width:0.35;stroke-miterlimit:4;stroke-dasharray:none;fill:none;fill-opacity:1;fill-rule: evenodd"/>
<path id="Shape2DView_nwe0012"  d="M -0.54 11.26 L 47.86 11.26 " stroke="#191919" stroke-width="0.35 px" style="stroke-width:0.35;stroke-miterlimit:4;stroke-dasharray:none;fill:none;fill-opacity:1;fill-rule: evenodd"/>
<path id="Shape2DView_nwe0013"  d="M 48.86 10.26 A 1 1 0 0 1 47.86 11.26" stroke="#191919" stroke-width="0.35 px" style="stroke-width:0.35;stroke-miterlimit:4;stroke-dasharray:none;fill:none;fill-opacity:1;fill-rule: evenodd"/>
<path id="Shape2DView_nwe0014"  d="M 48.86 10.26 L 48.86 -12.94 " stroke="#191919" stroke-width="0.35 px" style="stroke-width:0.35;stroke-miterlimit:4;stroke-dasharray:none;fill:none;fill-opacity:1;fill-rule: evenodd"/>
<path id="Shape2DView_nwe0015"  d="M 47.86 -13.94 A 1 1 0 0 1 48.86 -12.94" stroke="#191919" stroke-width="0.35 px" style="stroke-width:0.35;stroke-miterlimit:4;stroke-dasharray:none;fill:none;fill-opacity:1;fill-rule: evenodd"/>
<path id="Shape2DView_nwe0020"  d="M 49.86 11.26 L 49.85685610494662 11.26 L 49.84746395609091 11.26 L 49.83194166515418 11.26 L 49.81048443395121 11.26 L 49.783362099614145 11.26 L 49.75091574123402 11.26 L 49.713553390593276 11.26 L 49.67174490092937 11.26 L 49.62601603825767 11.26 L 49.57694186955878 11.26 L 49.52513953097758 11.26 L 49.47126046697816 11.26 L 49.415982238051654 11.26 L 49.36 11.26 " stroke="#191919" stroke-width="0.35 px" style="stroke-width:0.35;stroke-miterlimit:4;stroke-dasharray:none;fill:none;fill-opacity:1;fill-rule: evenodd"/>
<path id="Shape2DView_nwe0021"  d="M 49.36 11.26 L 49.36 -13.94 " stroke="#191919" stroke-width="0.35 px" style="stroke-width:0.35;stroke-miterlimit:4;stroke-dasharray:none;fill:none;fill-opacity:1;fill-rule: evenodd"/>
<path id="Shape2DView_nwe0022"  d="M 49.86 -13.94 L 49.85685610494662 -13.94 L 49.84746395609091 -13.94 L 49.83194166515418 -13.94 L 49.81048443395121 -13.94 L 49.783362099614145 -13.94 L 49.75091574123402 -13.94 L 49.713553390593276 -13.94 L 49.67174490092937 -13.94 L 49.62601603825767 -13.94 L 49.57694186955878 -13.94 L 49.52513953097758 -13.94 L 49.47126046697816 -13.94 L 49.415982238051654 -13.94 L 49.36 -13.94 " stroke="#191919" stroke-width="0.35 px" style="stroke-width:0.35;stroke-miterlimit:4;stroke-dasharray:none;fill:none;fill-opacity:1;fill-rule: evenodd"/>
<path id="Shape2DView_nwe0023"  d="M 48.86 11.76 A 0.5 0.5 0 0 0 49.36 11.26" stroke="#191919" stroke-width="0.35 px" style="stroke-width:0.35;stroke-miterlimit:4;stroke-dasharray:none;fill:none;fill-opacity:1;fill-rule: evenodd"/>
<path id="Shape2DView_nwe0024"  d="M 48.86 12.26 L 48.86 12.256856104946621 L 48.86 12.247463956090911 L 48.86 12.231941665154183 L 48.86 12.21048443395121 L 48.86 12.183362099614142 L 48.86 12.150915741234014 L 48.86 12.113553390593273 L 48.86 12.071744900929367 L 48.86 12.026016038257668 L 48.86 11.976941869558779 L 48.86 11.925139530977583 L 48.86 11.871260466978157 L 48.86 11.815982238051653 L 48.86 11.76 " stroke="#191919" stroke-width="0.35 px" style="stroke-width:0.35;stroke-miterlimit:4;stroke-dasharray:none;fill:none;fill-opacity:1;fill-rule: evenodd"/>
<path id="Shape2DView_nwe0025"  d="M 49.36 -13.94 A 0.5 0.5 0 0 0 48.86 -14.44" stroke="#191919" stroke-width="0.35 px" style="stroke-width:0.35;stroke-miterlimit:4;stroke-dasharray:none;fill:none;fill-opacity:1;fill-rule: evenodd"/>
<path id="Shape2DView_nwe0026"  d="M 48.86 -14.94 L 48.86 -14.93685610494662 L 48.86 -14.92746395609091 L 48.86 -14.911941665154183 L 48.86 -14.89048443395121 L 48.86 -14.863362099614141 L 48.86 -14.830915741234014 L 48.86 -14.793553390593273 L 48.86 -14.751744900929367 L 48.86 -14.706016038257667 L 48.86 -14.656941869558779 L 48.86 -14.605139530977583 L 48.86 -14.551260466978157 L 48.86 -14.495982238051653 L 48.86 -14.44 " stroke="#191919" stroke-width="0.35 px" style="stroke-width:0.35;stroke-miterlimit:4;stroke-dasharray:none;fill:none;fill-opacity:1;fill-rule: evenodd"/>
<path id="Shape2DView_nwe0027"  d="M -1.54 12.26 L -1.54 12.256856104946621 L -1.54 12.247463956090911 L -1.54 12.231941665154183 L -1.54 12.21048443395121 L -1.54 12.183362099614142 L -1.54 12.150915741234014 L -1.54 12.113553390593273 L -1.54 12.071744900929367 L -1.54 12.026016038257668 L -1.54 11.976941869558779 L -1.54 11.925139530977583 L -1.54 11.871260466978157 L -1.54 11.815982238051653 L -1.54 11.76 " stroke="#191919" stroke-width="0.35 px" style="stroke-width:0.35;stroke-miterlimit:4;stroke-dasharray:none;fill:none;fill-opacity:1;fill-rule: evenodd"/>
<path id="Shape2DView_nwe0028"  d="M -1.54 11.76 L 48.86 11.76 " stroke="#191919" stroke-width="0.35 px" style="stroke-width:0.35;stroke-miterlimit:4;stroke-dasharray:none;fill:none;fill-opacity:1;fill-rule: evenodd"/>
<path id="Shape2DView_nwe0029"  d="M 48.86 -14.44 L -1.5399999999999991 -14.44 " stroke="#191919" stroke-width="0.35 px" style="stroke-width:0.35;stroke-miterlimit:4;stroke-dasharray:none;fill:none;fill-opacity:1;fill-rule: evenodd"/>
<path id="Shape2DView_nwe0030"  d="M -1.54 -14.94 L -1.54 -14.93685610494662 L -1.54 -14.92746395609091 L -1.54 -14.911941665154183 L -1.54 -14.89048443395121 L -1.54 -14.863362099614141 L -1.54 -14.830915741234014 L -1.54 -14.793553390593273 L -1.54 -14.751744900929367 L -1.54 -14.706016038257667 L -1.54 -14.656941869558779 L -1.54 -14.605139530977583 L -1.54 -14.551260466978157 L -1.54 -14.495982238051653 L -1.54 -14.44 " stroke="#191919" stroke-width="0.35 px" style="stroke-width:0.35;stroke-miterlimit:4;stroke-dasharray:none;fill:none;fill-opacity:1;fill-rule: evenodd"/>
<path id="Shape2DView_nwe0031"  d="M -2.04 11.26 A 0.5 0.5 0 0 0 -1.54 11.76" stroke="#191919" stroke-width="0.35 px" style="stroke-width:0.35;stroke-miterlimit:4;stroke-dasharray:none;fill:none;fill-opacity:1;fill-rule: evenodd"/>
<path id="Shape2DView_nwe0032"  d="M -2.54 11.26 L -2.5368561049466214 11.26 L -2.527463956090912 11.26 L -2.511941665154184 11.26 L -2.4904844339512096 11.26 L -2.463362099614142 11.26 L -2.4309157412340148 11.26 L -2.393553390593274 11.26 L -2.3517449009293667 11.26 L -2.306016038257668 11.26 L -2.256941869558779 11.26 L -2.2051395309775836 11.26 L -2.151260466978157 11.26 L -2.095982238051654 11.26 L -2.04 11.26 " stroke="#191919" stroke-width="0.35 px" style="stroke-width:0.35;stroke-miterlimit:4;stroke-dasharray:none;fill:none;fill-opacity:1;fill-rule: evenodd"/>
<path id="Shape2DView_nwe0033"  d="M -1.5400000000000005 -14.44 A 0.5 0.5 0 0 0 -2.04 -13.94" stroke="#191919" stroke-width="0.35 px" style="stroke-width:0.35;stroke-miterlimit:4;stroke-dasharray:none;fill:none;fill-opacity:1;fill-rule: evenodd"/>
<path id="Shape2DView_nwe0034"  d="M -2.54 -13.94 L -2.5368561049466214 -13.94 L -2.527463956090912 -13.94 L -2.511941665154184 -13.94 L -2.4904844339512096 -13.94 L -2.463362099614142 -13.94 L -2.4309157412340148 -13.94 L -2.393553390593274 -13.94 L -2.3517449009293667 -13.94 L -2.306016038257668 -13.94 L -2.256941869558779 -13.94 L -2.2051395309775836 -13.94 L -2.151260466978157 -13.94 L -2.095982238051654 -13.94 L -2.04 -13.94 " stroke="#191919" stroke-width="0.35 px" style="stroke-width:0.35;stroke-miterlimit:4;stroke-dasharray:none;fill:none;fill-opacity:1;fill-rule: evenodd"/>
<path id="Shape2DView_nwe0035"  d="M -2.04 -13.94 L -2.04 11.26 " stroke="#191919" stroke-width="0.35 px" style="stroke-width:0.35;stroke-miterlimit:4;stroke-dasharray:none;fill:none;fill-opacity:1;fill-rule: evenodd"/>
<title>b'Shape2DView'</title>
</g>
<g id="Rectangle" transform="translate(3.064000,12.784000) scale(1,-1)">
<rect fill="#ff0000" id="origin" width="1" height="1" x="0" y="0" />
<title>b'Rectangle'</title>
</g>
</svg>