<?xml version="1.0"?>
<!DOCTYPE svg PUBLIC "-//W3C//DTD SVG 1.1//EN" "http://www.w3.org/Graphics/SVG/1.1/DTD/svg11.dtd">
<svg width="1.836mm" height="1.436mm" viewBox="0 0 1.836 1.436" xmlns="http://www.w3.org/2000/svg" version="1.1">
<g id="Shape2DView" transform="translate(0.818000,1.018000) scale(1,-1)">
<path id="Shape2DView_nwe0000"  d="M -0.8 0.4 L -0.8 0.39981136629679725 L -0.8 0.3992478373654547 L -0.8 0.398316499909251 L -0.8 0.39702906603707255 L -0.8 0.39540172597684853 L -0.8 0.3934549444740409 L -0.8 0.3912132034355964 L -0.8 0.388704694055762 L -0.8 0.3859609622954601 L -0.8 0.3830165121735267 L -0.8 0.379908371858655 L -0.8 0.3766756280186894 L -0.8 0.37335893428309924 L -0.8 0.37 " stroke="#191919" stroke-width="0.35 px" style="stroke-width:0.35;stroke-miterlimit:4;stroke-dasharray:none;fill:none;fill-opacity:1;fill-rule: evenodd"/>
<path id="Shape2DView_nwe0001"  d="M -0.8 -0.37 L -0.8 0.37 " stroke="#191919" stroke-width="0.35 px" style="stroke-width:0.35;stroke-miterlimit:4;stroke-dasharray:none;fill:none;fill-opacity:1;fill-rule: evenodd"/>
<path id="Shape2DView_nwe0002"  d="M -0.8 -0.4 L -0.8 -0.39981136629679725 L -0.8 -0.3992478373654547 L -0.8 -0.398316499909251 L -0.8 -0.39702906603707255 L -0.8 -0.39540172597684853 L -0.8 -0.3934549444740409 L -0.8 -0.3912132034355964 L -0.8 -0.388704694055762 L -0.8 -0.3859609622954601 L -0.8 -0.3830165121735267 L -0.8 -0.379908371858655 L -0.8 -0.3766756280186894 L -0.8 -0.37335893428309924 L -0.8 -0.37 " stroke="#191919" stroke-width="0.35 px" style="stroke-width:0.35;stroke-miterlimit:4;stroke-dasharray:none;fill:none;fill-opacity:1;fill-rule: evenodd"/>
<path id="Shape2DView_nwe0003"  d="M -0.8 -0.4 L -0.5 -0.4 " stroke="#191919" stroke-width="0.35 px" style="stroke-width:0.35;stroke-miterlimit:4;stroke-dasharray:none;fill:none;fill-opacity:1;fill-rule: evenodd"/>
<path id="Shape2DView_nwe0004"  d="M -0.5 -0.4 L -0.5 -0.39981136629679725 L -0.5 -0.3992478373654547 L -0.5 -0.398316499909251 L -0.5 -0.39702906603707255 L -0.5 -0.39540172597684853 L -0.5 -0.3934549444740409 L -0.5 -0.3912132034355964 L -0.5 -0.388704694055762 L -0.5 -0.3859609622954601 L -0.5 -0.3830165121735267 L -0.5 -0.379908371858655 L -0.5 -0.3766756280186894 L -0.5 -0.37335893428309924 L -0.5 -0.37 " stroke="#191919" stroke-width="0.35 px" style="stroke-width:0.35;stroke-miterlimit:4;stroke-dasharray:none;fill:none;fill-opacity:1;fill-rule: evenodd"/>
<path id="Shape2DView_nwe0005"  d="M -0.5 -0.37 L -0.5 0.37 " stroke="#191919" stroke-width="0.35 px" style="stroke-width:0.35;stroke-miterlimit:4;stroke-dasharray:none;fill:none;fill-opacity:1;fill-rule: evenodd"/>
<path id="Shape2DView_nwe0006"  d="M -0.5 0.4 L -0.5 0.39981136629679725 L -0.5 0.3992478373654547 L -0.5 0.398316499909251 L -0.5 0.39702906603707255 L -0.5 0.39540172597684853 L -0.5 0.3934549444740409 L -0.5 0.3912132034355964 L -0.5 0.388704694055762 L -0.5 0.3859609622954601 L -0.5 0.3830165121735267 L -0.5 0.379908371858655 L -0.5 0.3766756280186894 L -0.5 0.37335893428309924 L -0.5 0.37 " stroke="#191919" stroke-width="0.35 px" style="stroke-width:0.35;stroke-miterlimit:4;stroke-dasharray:none;fill:none;fill-opacity:1;fill-rule: evenodd"/>
<path id="Shape2DView_nwe0007"  d="M -0.8 0.4 L -0.5 0.4 " stroke="#191919" stroke-width="0.35 px" style="stroke-width:0.35;stroke-miterlimit:4;stroke-dasharray:none;fill:none;fill-opacity:1;fill-rule: evenodd"/>
<path id="Shape2DView_nwe0008"  d="M -0.5 0.37 L 0.5 0.37 " stroke="#191919" stroke-width="0.35 px" style="stroke-width:0.35;stroke-miterlimit:4;stroke-dasharray:none;fill:none;fill-opacity:1;fill-rule: evenodd"/>
<path id="Shape2DView_nwe0009"  d="M -0.5 -0.37 L 0.5 -0.37 " stroke="#191919" stroke-width="0.35 px" style="stroke-width:0.35;stroke-miterlimit:4;stroke-dasharray:none;fill:none;fill-opacity:1;fill-rule: evenodd"/>
<path id="Shape2DView_nwe0010"  d="M 0.5 0.4 L 0.5 0.39981136629679725 L 0.5 0.3992478373654547 L 0.5 0.398316499909251 L 0.5 0.39702906603707255 L 0.5 0.39540172597684853 L 0.5 0.3934549444740409 L 0.5 0.3912132034355964 L 0.5 0.388704694055762 L 0.5 0.3859609622954601 L 0.5 0.3830165121735267 L 0.5 0.379908371858655 L 0.5 0.3766756280186894 L 0.5 0.37335893428309924 L 0.5 0.37 " stroke="#191919" stroke-width="0.35 px" style="stroke-width:0.35;stroke-miterlimit:4;stroke-dasharray:none;fill:none;fill-opacity:1;fill-rule: evenodd"/>
<path id="Shape2DView_nwe0011"  d="M 0.5 -0.37 L 0.5 0.37 " stroke="#191919" stroke-width="0.35 px" style="stroke-width:0.35;stroke-miterlimit:4;stroke-dasharray:none;fill:none;fill-opacity:1;fill-rule: evenodd"/>
<path id="Shape2DView_nwe0012"  d="M 0.5 -0.4 L 0.5 -0.39981136629679725 L 0.5 -0.3992478373654547 L 0.5 -0.398316499909251 L 0.5 -0.39702906603707255 L 0.5 -0.39540172597684853 L 0.5 -0.3934549444740409 L 0.5 -0.3912132034355964 L 0.5 -0.388704694055762 L 0.5 -0.3859609622954601 L 0.5 -0.3830165121735267 L 0.5 -0.379908371858655 L 0.5 -0.3766756280186894 L 0.5 -0.37335893428309924 L 0.5 -0.37 " stroke="#191919" stroke-width="0.35 px" style="stroke-width:0.35;stroke-miterlimit:4;stroke-dasharray:none;fill:none;fill-opacity:1;fill-rule: evenodd"/>
<path id="Shape2DView_nwe0013"  d="M 0.5 -0.4 L 0.8 -0.4 " stroke="#191919" stroke-width="0.35 px" style="stroke-width:0.35;stroke-miterlimit:4;stroke-dasharray:none;fill:none;fill-opacity:1;fill-rule: evenodd"/>
<path id="Shape2DView_nwe0014"  d="M 0.8 -0.4 L 0.8 -0.39981136629679725 L 0.8 -0.3992478373654547 L 0.8 -0.398316499909251 L 0.8 -0.39702906603707255 L 0.8 -0.39540172597684853 L 0.8 -0.3934549444740409 L 0.8 -0.3912132034355964 L 0.8 -0.388704694055762 L 0.8 -0.3859609622954601 L 0.8 -0.3830165121735267 L 0.8 -0.379908371858655 L 0.8 -0.3766756280186894 L 0.8 -0.37335893428309924 L 0.8 -0.37 " stroke="#191919" stroke-width="0.35 px" style="stroke-width:0.35;stroke-miterlimit:4;stroke-dasharray:none;fill:none;fill-opacity:1;fill-rule: evenodd"/>
<path id="Shape2DView_nwe0015"  d="M 0.8 -0.37 L 0.8 0.37 " stroke="#191919" stroke-width="0.35 px" style="stroke-width:0.35;stroke-miterlimit:4;stroke-dasharray:none;fill:none;fill-opacity:1;fill-rule: evenodd"/>
<path id="Shape2DView_nwe0016"  d="M 0.8 0.4 L 0.8 0.39981136629679725 L 0.8 0.3992478373654547 L 0.8 0.398316499909251 L 0.8 0.39702906603707255 L 0.8 0.39540172597684853 L 0.8 0.3934549444740409 L 0.8 0.3912132034355964 L 0.8 0.388704694055762 L 0.8 0.3859609622954601 L 0.8 0.3830165121735267 L 0.8 0.379908371858655 L 0.8 0.3766756280186894 L 0.8 0.37335893428309924 L 0.8 0.37 " stroke="#191919" stroke-width="0.35 px" style="stroke-width:0.35;stroke-miterlimit:4;stroke-dasharray:none;fill:none;fill-opacity:1;fill-rule: evenodd"/>
<path id="Shape2DView_nwe0017"  d="M 0.5 0.4 L 0.8 0.4 " stroke="#191919" stroke-width="0.35 px" style="stroke-width:0.35;stroke-miterlimit:4;stroke-dasharray:none;fill:none;fill-opacity:1;fill-rule: evenodd"/>
<path id="Shape2DView_nwe0018"  d="M -0.8 -0.37 L -0.5 -0.37 " stroke="#191919" stroke-width="0.35 px" style="stroke-width:0.35;stroke-miterlimit:4;stroke-dasharray:none;fill:none;fill-opacity:1;fill-rule: evenodd"/>
<path id="Shape2DView_nwe0019"  d="M -0.8 0.37 L -0.5 0.37 " stroke="#191919" stroke-width="0.35 px" style="stroke-width:0.35;stroke-miterlimit:4;stroke-dasharray:none;fill:none;fill-opacity:1;fill-rule: evenodd"/>
<path id="Shape2DView_nwe0020"  d="M -0.5 0.34 L 0.5 0.34 " stroke="#191919" stroke-width="0.35 px" style="stroke-width:0.35;stroke-miterlimit:4;stroke-dasharray:none;fill:none;fill-opacity:1;fill-rule: evenodd"/>
<path id="Shape2DView_nwe0021"  d="M -0.5 -0.34 L 0.5 -0.34 " stroke="#191919" stroke-width="0.35 px" style="stroke-width:0.35;stroke-miterlimit:4;stroke-dasharray:none;fill:none;fill-opacity:1;fill-rule: evenodd"/>
<path id="Shape2DView_nwe0022"  d="M 0.5 -0.37 L 0.8 -0.37 " stroke="#191919" stroke-width="0.35 px" style="stroke-width:0.35;stroke-miterlimit:4;stroke-dasharray:none;fill:none;fill-opacity:1;fill-rule: evenodd"/>
<path id="Shape2DView_nwe0023"  d="M 0.5 0.37 L 0.8 0.37 " stroke="#191919" stroke-width="0.35 px" style="stroke-width:0.35;stroke-miterlimit:4;stroke-dasharray:none;fill:none;fill-opacity:1;fill-rule: evenodd"/>
<title>b'Shape2DView'</title>
</g>
<g id="Rectangle" transform="translate(0.818000,1.018000) scale(1,-1)">
<rect fill="#ff0000" id="origin" width="1" height="1" x="0" y="0" />
<title>b'Rectangle'</title>
</g>
</svg>