<?xml version="1.0"?>
<!DOCTYPE svg PUBLIC "-//W3C//DTD SVG 1.1//EN" "http://www.w3.org/Graphics/SVG/1.1/DTD/svg11.dtd">
<svg width="2.04mm" height="1.84mm" viewBox="0 0 2.04 1.84" xmlns="http://www.w3.org/2000/svg" version="1.1">
<g id="Shape2DView" transform="translate(1.020000,1.020000) scale(1,-1)">
<path id="Shape2DView_nwe0000"  d="M -1.0 -0.72 L -1.0 0.72 " stroke="#191919" stroke-width="0.35 px" style="stroke-width:0.35;stroke-miterlimit:4;stroke-dasharray:none;fill:none;fill-opacity:1;fill-rule: evenodd"/>
<path id="Shape2DView_nwe0001"  d="M -0.92 -0.7999999999999999 A 0.08 0.08 0 0 0 -1 -0.72" stroke="#191919" stroke-width="0.35 px" style="stroke-width:0.35;stroke-miterlimit:4;stroke-dasharray:none;fill:none;fill-opacity:1;fill-rule: evenodd"/>
<path id="Shape2DView_nwe0002"  d="M -1.0 0.7200000000000002 A 0.08 0.08 0 0 0 -0.92 0.8" stroke="#191919" stroke-width="0.35 px" style="stroke-width:0.35;stroke-miterlimit:4;stroke-dasharray:none;fill:none;fill-opacity:1;fill-rule: evenodd"/>
<path id="Shape2DView_nwe0003"  d="M 0.92 -0.8 L -0.92 -0.8 " stroke="#191919" stroke-width="0.35 px" style="stroke-width:0.35;stroke-miterlimit:4;stroke-dasharray:none;fill:none;fill-opacity:1;fill-rule: evenodd"/>
<path id="Shape2DView_nwe0004"  d="M -0.92 0.8 L 0.92 0.8 " stroke="#191919" stroke-width="0.35 px" style="stroke-width:0.35;stroke-miterlimit:4;stroke-dasharray:none;fill:none;fill-opacity:1;fill-rule: evenodd"/>
<path id="Shape2DView_nwe0005"  d="M 1.0 0.72 L 1.0 -0.72 " stroke="#191919" stroke-width="0.35 px" style="stroke-width:0.35;stroke-miterlimit:4;stroke-dasharray:none;fill:none;fill-opacity:1;fill-rule: evenodd"/>
<path id="Shape2DView_nwe0006"  d="M 1.0 -0.72 A 0.08 0.08 0 0 0 0.92 -0.8" stroke="#191919" stroke-width="0.35 px" style="stroke-width:0.35;stroke-miterlimit:4;stroke-dasharray:none;fill:none;fill-opacity:1;fill-rule: evenodd"/>
<path id="Shape2DView_nwe0007"  d="M 0.92 0.7999999999999999 A 0.08 0.08 0 0 0 1 0.72" stroke="#191919" stroke-width="0.35 px" style="stroke-width:0.35;stroke-miterlimit:4;stroke-dasharray:none;fill:none;fill-opacity:1;fill-rule: evenodd"/>
<path id="Shape2DView_nwe0008"  d="M -0.92 -0.72 L -0.92 0.72 " stroke="#191919" stroke-width="0.35 px" style="stroke-width:0.35;stroke-miterlimit:4;stroke-dasharray:none;fill:none;fill-opacity:1;fill-rule: evenodd"/>
<path id="Shape2DView_nwe0009"  d="M -0.92 0.72 L -0.9289571580882646 0.72 L -0.9378016747165052 0.72 L -0.9464223249564134 0.72 L -0.9547106991294046 0.72 L -0.9625625661212269 0.72 L -0.9698791841486987 0.72 L -0.9765685424949239 0.72 L -0.9825465185974425 0.72 L -0.9877379359382628 0.72 L -0.9920775094321935 0.72 L -0.9955106664246695 0.72 L -0.9979942329745459 0.72 L -0.9994969767914594 0.72 L -1.0 0.72 " stroke="#191919" stroke-width="0.35 px" style="stroke-width:0.35;stroke-miterlimit:4;stroke-dasharray:none;fill:none;fill-opacity:1;fill-rule: evenodd"/>
<path id="Shape2DView_nwe0010"  d="M -0.92 -0.72 L -0.9289571580882646 -0.72 L -0.9378016747165052 -0.72 L -0.9464223249564134 -0.72 L -0.9547106991294046 -0.72 L -0.9625625661212269 -0.72 L -0.9698791841486987 -0.72 L -0.9765685424949239 -0.72 L -0.9825465185974425 -0.72 L -0.9877379359382628 -0.72 L -0.9920775094321935 -0.72 L -0.9955106664246695 -0.72 L -0.9979942329745459 -0.72 L -0.9994969767914594 -0.72 L -1.0 -0.72 " stroke="#191919" stroke-width="0.35 px" style="stroke-width:0.35;stroke-miterlimit:4;stroke-dasharray:none;fill:none;fill-opacity:1;fill-rule: evenodd"/>
<path id="Shape2DView_nwe0011"  d="M -0.92 -0.72 L -0.92 -0.7289571580882646 L -0.92 -0.7378016747165052 L -0.92 -0.7464223249564134 L -0.92 -0.7547106991294046 L -0.92 -0.7625625661212269 L -0.92 -0.7698791841486986 L -0.92 -0.7765685424949238 L -0.92 -0.7825465185974424 L -0.92 -0.7877379359382627 L -0.92 -0.7920775094321935 L -0.92 -0.7955106664246694 L -0.92 -0.7979942329745459 L -0.92 -0.7994969767914594 L -0.92 -0.7999999999999999 " stroke="#191919" stroke-width="0.35 px" style="stroke-width:0.35;stroke-miterlimit:4;stroke-dasharray:none;fill:none;fill-opacity:1;fill-rule: evenodd"/>
<path id="Shape2DView_nwe0012"  d="M -0.92 0.72 L 0.92 0.72 " stroke="#191919" stroke-width="0.35 px" style="stroke-width:0.35;stroke-miterlimit:4;stroke-dasharray:none;fill:none;fill-opacity:1;fill-rule: evenodd"/>
<path id="Shape2DView_nwe0013"  d="M 0.92 -0.72 L -0.92 -0.72 " stroke="#191919" stroke-width="0.35 px" style="stroke-width:0.35;stroke-miterlimit:4;stroke-dasharray:none;fill:none;fill-opacity:1;fill-rule: evenodd"/>
<path id="Shape2DView_nwe0014"  d="M 0.92 0.72 L 0.92 -0.72 " stroke="#191919" stroke-width="0.35 px" style="stroke-width:0.35;stroke-miterlimit:4;stroke-dasharray:none;fill:none;fill-opacity:1;fill-rule: evenodd"/>
<path id="Shape2DView_nwe0015"  d="M -0.92 0.72 L -0.92 0.7289571580882646 L -0.92 0.7378016747165052 L -0.92 0.7464223249564134 L -0.92 0.7547106991294046 L -0.92 0.7625625661212269 L -0.92 0.7698791841486986 L -0.92 0.7765685424949238 L -0.92 0.7825465185974424 L -0.92 0.7877379359382627 L -0.92 0.7920775094321935 L -0.92 0.7955106664246694 L -0.92 0.7979942329745459 L -0.92 0.7994969767914594 L -0.92 0.7999999999999999 " stroke="#191919" stroke-width="0.35 px" style="stroke-width:0.35;stroke-miterlimit:4;stroke-dasharray:none;fill:none;fill-opacity:1;fill-rule: evenodd"/>
<path id="Shape2DView_nwe0016"  d="M 0.92 -0.72 L 0.92 -0.7289571580882646 L 0.92 -0.7378016747165052 L 0.92 -0.7464223249564134 L 0.92 -0.7547106991294046 L 0.92 -0.7625625661212269 L 0.92 -0.7698791841486986 L 0.92 -0.7765685424949238 L 0.92 -0.7825465185974424 L 0.92 -0.7877379359382627 L 0.92 -0.7920775094321935 L 0.92 -0.7955106664246694 L 0.92 -0.7979942329745459 L 0.92 -0.7994969767914594 L 0.92 -0.7999999999999999 " stroke="#191919" stroke-width="0.35 px" style="stroke-width:0.35;stroke-miterlimit:4;stroke-dasharray:none;fill:none;fill-opacity:1;fill-rule: evenodd"/>
<path id="Shape2DView_nwe0017"  d="M 0.92 0.72 L 0.92 0.7289571580882646 L 0.92 0.7378016747165052 L 0.92 0.7464223249564134 L 0.92 0.7547106991294046 L 0.92 0.7625625661212269 L 0.92 0.7698791841486986 L 0.92 0.7765685424949238 L 0.92 0.7825465185974424 L 0.92 0.7877379359382627 L 0.92 0.7920775094321935 L 0.92 0.7955106664246694 L 0.92 0.7979942329745459 L 0.92 0.7994969767914594 L 0.92 0.7999999999999999 " stroke="#191919" stroke-width="0.35 px" style="stroke-width:0.35;stroke-miterlimit:4;stroke-dasharray:none;fill:none;fill-opacity:1;fill-rule: evenodd"/>
<path id="Shape2DView_nwe0018"  d="M 0.92 -0.72 L 0.9289571580882646 -0.72 L 0.9378016747165052 -0.72 L 0.9464223249564134 -0.72 L 0.9547106991294046 -0.72 L 0.9625625661212269 -0.72 L 0.9698791841486987 -0.72 L 0.9765685424949239 -0.72 L 0.9825465185974425 -0.72 L 0.9877379359382628 -0.72 L 0.9920775094321935 -0.72 L 0.9955106664246695 -0.72 L 0.9979942329745459 -0.72 L 0.9994969767914594 -0.72 L 1.0 -0.72 " stroke="#191919" stroke-width="0.35 px" style="stroke-width:0.35;stroke-miterlimit:4;stroke-dasharray:none;fill:none;fill-opacity:1;fill-rule: evenodd"/>
<path id="Shape2DView_nwe0019"  d="M 0.92 0.72 L 0.9289571580882646 0.72 L 0.9378016747165052 0.72 L 0.9464223249564134 0.72 L 0.9547106991294046 0.72 L 0.9625625661212269 0.7199999999999999 L 0.9698791841486987 0.7199999999999999 L 0.9765685424949239 0.7199999999999999 L 0.9825465185974425 0.7199999999999999 L 0.9877379359382628 0.7199999999999999 L 0.9920775094321935 0.7199999999999999 L 0.9955106664246695 0.7199999999999999 L 0.9979942329745459 0.7199999999999999 L 0.9994969767914594 0.7199999999999999 L 1.0 0.7199999999999999 " stroke="#191919" stroke-width="0.35 px" style="stroke-width:0.35;stroke-miterlimit:4;stroke-dasharray:none;fill:none;fill-opacity:1;fill-rule: evenodd"/>
<title>b'Shape2DView'</title>
</g>
<g id="Rectangle" transform="translate(1.020000,1.020000) scale(1,-1)">
<rect fill="#ff0000" id="origin" width="1" height="1" x="0" y="0" />
<title>b'Rectangle'</title>
</g>
</svg>