<?xml version="1.0"?>
<!DOCTYPE svg PUBLIC "-//W3C//DTD SVG 1.1//EN" "http://www.w3.org/Graphics/SVG/1.1/DTD/svg11.dtd">
<svg width="3.06mm" height="4.06mm" viewBox="0 0 3.06 4.06" xmlns="http://www.w3.org/2000/svg" version="1.1">
<g id="Shape2DView" transform="translate(1.530000,2.030000) scale(1,-1)">
<path id="Shape2DView_nwe0000"  d="M -1.5 1.85 L -1.5 -1.85 " stroke="#191919" stroke-width="0.35 px" style="stroke-width:0.35;stroke-miterlimit:4;stroke-dasharray:none;fill:none;fill-opacity:1;fill-rule: evenodd"/>
<path id="Shape2DView_nwe0001"  d="M -1.35 2.0 A 0.15 0.15 0 0 1 -1.5 1.85" stroke="#191919" stroke-width="0.35 px" style="stroke-width:0.35;stroke-miterlimit:4;stroke-dasharray:none;fill:none;fill-opacity:1;fill-rule: evenodd"/>
<path id="Shape2DView_nwe0002"  d="M -1.5 -1.85 A 0.15 0.15 0 0 1 -1.35 -2" stroke="#191919" stroke-width="0.35 px" style="stroke-width:0.35;stroke-miterlimit:4;stroke-dasharray:none;fill:none;fill-opacity:1;fill-rule: evenodd"/>
<path id="Shape2DView_nwe0003"  d="M 1.35 2.0 L -1.35 2.0 " stroke="#191919" stroke-width="0.35 px" style="stroke-width:0.35;stroke-miterlimit:4;stroke-dasharray:none;fill:none;fill-opacity:1;fill-rule: evenodd"/>
<path id="Shape2DView_nwe0004"  d="M -1.35 -2.0 L 1.35 -2.0 " stroke="#191919" stroke-width="0.35 px" style="stroke-width:0.35;stroke-miterlimit:4;stroke-dasharray:none;fill:none;fill-opacity:1;fill-rule: evenodd"/>
<path id="Shape2DView_nwe0005"  d="M 1.5 -1.85 L 1.5 1.85 " stroke="#191919" stroke-width="0.35 px" style="stroke-width:0.35;stroke-miterlimit:4;stroke-dasharray:none;fill:none;fill-opacity:1;fill-rule: evenodd"/>
<path id="Shape2DView_nwe0006"  d="M 1.5 1.85 A 0.15 0.15 0 0 1 1.35 2" stroke="#191919" stroke-width="0.35 px" style="stroke-width:0.35;stroke-miterlimit:4;stroke-dasharray:none;fill:none;fill-opacity:1;fill-rule: evenodd"/>
<path id="Shape2DView_nwe0007"  d="M 1.35 -2.0 A 0.15 0.15 0 0 1 1.5 -1.85" stroke="#191919" stroke-width="0.35 px" style="stroke-width:0.35;stroke-miterlimit:4;stroke-dasharray:none;fill:none;fill-opacity:1;fill-rule: evenodd"/>
<path id="Shape2DView_nwe0008"  d="M -1.35 1.85 L -1.3667946714154962 1.85 L -1.3833781400934473 1.85 L -1.3995418592932751 1.85 L -1.4150825608676338 1.85 L -1.4298048114773005 1.85 L -1.44352347027881 1.85 L -1.4560660171779822 1.85 L -1.4672747223702045 1.85 L -1.4770086298842426 1.85 L -1.485145330185363 1.85 L -1.4915824995462552 1.85 L -1.4962391868272735 1.85 L -1.4990568314839865 1.85 L -1.5 1.85 " stroke="#191919" stroke-width="0.35 px" style="stroke-width:0.35;stroke-miterlimit:4;stroke-dasharray:none;fill:none;fill-opacity:1;fill-rule: evenodd"/>
<path id="Shape2DView_nwe0009"  d="M -1.35 -1.85 L -1.3667946714154962 -1.85 L -1.3833781400934473 -1.85 L -1.3995418592932751 -1.85 L -1.4150825608676338 -1.85 L -1.4298048114773005 -1.85 L -1.44352347027881 -1.85 L -1.4560660171779822 -1.85 L -1.4672747223702045 -1.85 L -1.4770086298842426 -1.85 L -1.485145330185363 -1.85 L -1.4915824995462552 -1.85 L -1.4962391868272735 -1.85 L -1.4990568314839865 -1.85 L -1.5 -1.85 " stroke="#191919" stroke-width="0.35 px" style="stroke-width:0.35;stroke-miterlimit:4;stroke-dasharray:none;fill:none;fill-opacity:1;fill-rule: evenodd"/>
<path id="Shape2DView_nwe0010"  d="M -1.35 1.85 L -1.35 -1.85 " stroke="#191919" stroke-width="0.35 px" style="stroke-width:0.35;stroke-miterlimit:4;stroke-dasharray:none;fill:none;fill-opacity:1;fill-rule: evenodd"/>
<path id="Shape2DView_nwe0011"  d="M -1.35 1.85 L -1.35 1.8667946714154962 L -1.35 1.8833781400934473 L -1.35 1.8995418592932751 L -1.35 1.9150825608676338 L -1.35 1.9298048114773005 L -1.35 1.94352347027881 L -1.35 1.9560660171779822 L -1.35 1.9672747223702045 L -1.35 1.9770086298842426 L -1.35 1.985145330185363 L -1.35 1.9915824995462552 L -1.35 1.9962391868272737 L -1.35 1.9990568314839865 L -1.35 2.0 " stroke="#191919" stroke-width="0.35 px" style="stroke-width:0.35;stroke-miterlimit:4;stroke-dasharray:none;fill:none;fill-opacity:1;fill-rule: evenodd"/>
<path id="Shape2DView_nwe0012"  d="M -1.35 -1.85 L 1.35 -1.85 " stroke="#191919" stroke-width="0.35 px" style="stroke-width:0.35;stroke-miterlimit:4;stroke-dasharray:none;fill:none;fill-opacity:1;fill-rule: evenodd"/>
<path id="Shape2DView_nwe0013"  d="M 1.35 -1.85 L 1.35 1.85 " stroke="#191919" stroke-width="0.35 px" style="stroke-width:0.35;stroke-miterlimit:4;stroke-dasharray:none;fill:none;fill-opacity:1;fill-rule: evenodd"/>
<path id="Shape2DView_nwe0014"  d="M 1.35 1.85 L -1.35 1.85 " stroke="#191919" stroke-width="0.35 px" style="stroke-width:0.35;stroke-miterlimit:4;stroke-dasharray:none;fill:none;fill-opacity:1;fill-rule: evenodd"/>
<path id="Shape2DView_nwe0015"  d="M -1.35 -1.85 L -1.35 -1.8667946714154962 L -1.35 -1.8833781400934473 L -1.35 -1.8995418592932751 L -1.35 -1.9150825608676338 L -1.35 -1.9298048114773005 L -1.35 -1.94352347027881 L -1.35 -1.9560660171779822 L -1.35 -1.9672747223702045 L -1.35 -1.9770086298842426 L -1.35 -1.985145330185363 L -1.35 -1.9915824995462552 L -1.35 -1.9962391868272735 L -1.35 -1.9990568314839865 L -1.35 -2.0 " stroke="#191919" stroke-width="0.35 px" style="stroke-width:0.35;stroke-miterlimit:4;stroke-dasharray:none;fill:none;fill-opacity:1;fill-rule: evenodd"/>
<path id="Shape2DView_nwe0016"  d="M 1.35 1.85 L 1.35 1.8667946714154962 L 1.35 1.8833781400934473 L 1.35 1.8995418592932751 L 1.35 1.9150825608676338 L 1.35 1.9298048114773005 L 1.35 1.94352347027881 L 1.35 1.9560660171779822 L 1.35 1.9672747223702045 L 1.35 1.9770086298842426 L 1.35 1.985145330185363 L 1.35 1.9915824995462552 L 1.35 1.9962391868272735 L 1.35 1.9990568314839865 L 1.35 2.0 " stroke="#191919" stroke-width="0.35 px" style="stroke-width:0.35;stroke-miterlimit:4;stroke-dasharray:none;fill:none;fill-opacity:1;fill-rule: evenodd"/>
<path id="Shape2DView_nwe0017"  d="M 1.35 -1.85 L 1.35 -1.8667946714154962 L 1.35 -1.8833781400934473 L 1.35 -1.8995418592932751 L 1.35 -1.9150825608676338 L 1.35 -1.9298048114773005 L 1.35 -1.94352347027881 L 1.35 -1.9560660171779822 L 1.35 -1.9672747223702045 L 1.35 -1.9770086298842426 L 1.35 -1.985145330185363 L 1.35 -1.9915824995462552 L 1.35 -1.9962391868272737 L 1.35 -1.9990568314839865 L 1.35 -2.0 " stroke="#191919" stroke-width="0.35 px" style="stroke-width:0.35;stroke-miterlimit:4;stroke-dasharray:none;fill:none;fill-opacity:1;fill-rule: evenodd"/>
<path id="Shape2DView_nwe0018"  d="M 1.35 -1.85 L 1.3667946714154962 -1.85 L 1.3833781400934473 -1.85 L 1.3995418592932751 -1.85 L 1.4150825608676338 -1.85 L 1.4298048114773005 -1.85 L 1.44352347027881 -1.85 L 1.4560660171779822 -1.85 L 1.4672747223702045 -1.85 L 1.4770086298842426 -1.85 L 1.485145330185363 -1.85 L 1.4915824995462552 -1.85 L 1.4962391868272735 -1.85 L 1.4990568314839865 -1.85 L 1.5 -1.85 " stroke="#191919" stroke-width="0.35 px" style="stroke-width:0.35;stroke-miterlimit:4;stroke-dasharray:none;fill:none;fill-opacity:1;fill-rule: evenodd"/>
<path id="Shape2DView_nwe0019"  d="M 1.35 1.85 L 1.3667946714154962 1.85 L 1.3833781400934473 1.85 L 1.3995418592932751 1.85 L 1.4150825608676338 1.85 L 1.4298048114773005 1.85 L 1.44352347027881 1.85 L 1.4560660171779822 1.85 L 1.4672747223702045 1.85 L 1.4770086298842426 1.85 L 1.485145330185363 1.85 L 1.4915824995462552 1.85 L 1.4962391868272737 1.85 L 1.4990568314839865 1.85 L 1.5 1.85 " stroke="#191919" stroke-width="0.35 px" style="stroke-width:0.35;stroke-miterlimit:4;stroke-dasharray:none;fill:none;fill-opacity:1;fill-rule: evenodd"/>
<title>b'Shape2DView'</title>
</g>
<g id="Rectangle" transform="translate(1.530000,2.030000) scale(1,-1)">
<rect fill="#ff0000" id="origin" width="1" height="1" x="0" y="0" />
<title>b'Rectangle'</title>
</g>
</svg>