<?xml version="1.0"?>
<!DOCTYPE svg PUBLIC "-//W3C//DTD SVG 1.1//EN" "http://www.w3.org/Graphics/SVG/1.1/DTD/svg11.dtd">
<svg width="1.836mm" height="1.436mm" viewBox="0 0 1.836 1.436" xmlns="http://www.w3.org/2000/svg" version="1.1">
<g id="Shape2DView" transform="translate(0.818000,1.018000) scale(1,-1)">
<path id="Shape2DView_nwe0000"  d="M -0.5 -0.4 L -0.4499999999999844 -0.4 " stroke="#191919" stroke-width="0.35 px" style="stroke-width:0.35;stroke-miterlimit:4;stroke-dasharray:none;fill:none;fill-opacity:1;fill-rule: evenodd"/>
<path id="Shape2DView_nwe0001"  d="M -0.45 -0.4 L 0.45 -0.4 " stroke="#191919" stroke-width="0.35 px" style="stroke-width:0.35;stroke-miterlimit:4;stroke-dasharray:none;fill:none;fill-opacity:1;fill-rule: evenodd"/>
<path id="Shape2DView_nwe0002"  d="M 0.45 -0.4 L 0.5000000000000155 -0.4 " stroke="#191919" stroke-width="0.35 px" style="stroke-width:0.35;stroke-miterlimit:4;stroke-dasharray:none;fill:none;fill-opacity:1;fill-rule: evenodd"/>
<path id="Shape2DView_nwe0003"  d="M -0.5 0.4 L -0.5 0.3 " stroke="#191919" stroke-width="0.35 px" style="stroke-width:0.35;stroke-miterlimit:4;stroke-dasharray:none;fill:none;fill-opacity:1;fill-rule: evenodd"/>
<path id="Shape2DView_nwe0004"  d="M -0.5 -0.3 L -0.5 0.29999999999999993 " stroke="#191919" stroke-width="0.35 px" style="stroke-width:0.35;stroke-miterlimit:4;stroke-dasharray:none;fill:none;fill-opacity:1;fill-rule: evenodd"/>
<path id="Shape2DView_nwe0005"  d="M -0.5 -0.29999999999999993 L -0.5 -0.4 " stroke="#191919" stroke-width="0.35 px" style="stroke-width:0.35;stroke-miterlimit:4;stroke-dasharray:none;fill:none;fill-opacity:1;fill-rule: evenodd"/>
<path id="Shape2DView_nwe0006"  d="M -0.45 0.4 L -0.45 -0.4 " stroke="#191919" stroke-width="0.35 px" style="stroke-width:0.35;stroke-miterlimit:4;stroke-dasharray:none;fill:none;fill-opacity:1;fill-rule: evenodd"/>
<path id="Shape2DView_nwe0007"  d="M -0.5 0.4 L -0.4499999999999844 0.4 " stroke="#191919" stroke-width="0.35 px" style="stroke-width:0.35;stroke-miterlimit:4;stroke-dasharray:none;fill:none;fill-opacity:1;fill-rule: evenodd"/>
<path id="Shape2DView_nwe0008"  d="M -0.725 -0.4 L -0.5 -0.4 " stroke="#191919" stroke-width="0.35 px" style="stroke-width:0.35;stroke-miterlimit:4;stroke-dasharray:none;fill:none;fill-opacity:1;fill-rule: evenodd"/>
<path id="Shape2DView_nwe0009"  d="M 0.5 -0.4 L 0.7250000000000001 -0.4 " stroke="#191919" stroke-width="0.35 px" style="stroke-width:0.35;stroke-miterlimit:4;stroke-dasharray:none;fill:none;fill-opacity:1;fill-rule: evenodd"/>
<path id="Shape2DView_nwe0010"  d="M 0.45 0.4 L 0.45 -0.4 " stroke="#191919" stroke-width="0.35 px" style="stroke-width:0.35;stroke-miterlimit:4;stroke-dasharray:none;fill:none;fill-opacity:1;fill-rule: evenodd"/>
<path id="Shape2DView_nwe0011"  d="M -0.45 0.4 L 0.45 0.4 " stroke="#191919" stroke-width="0.35 px" style="stroke-width:0.35;stroke-miterlimit:4;stroke-dasharray:none;fill:none;fill-opacity:1;fill-rule: evenodd"/>
<path id="Shape2DView_nwe0012"  d="M 0.5 -0.29999999999999993 L 0.5 -0.4 " stroke="#191919" stroke-width="0.35 px" style="stroke-width:0.35;stroke-miterlimit:4;stroke-dasharray:none;fill:none;fill-opacity:1;fill-rule: evenodd"/>
<path id="Shape2DView_nwe0013"  d="M 0.5 -0.3 L 0.5 0.29999999999999993 " stroke="#191919" stroke-width="0.35 px" style="stroke-width:0.35;stroke-miterlimit:4;stroke-dasharray:none;fill:none;fill-opacity:1;fill-rule: evenodd"/>
<path id="Shape2DView_nwe0014"  d="M 0.5 0.4 L 0.5 0.3 " stroke="#191919" stroke-width="0.35 px" style="stroke-width:0.35;stroke-miterlimit:4;stroke-dasharray:none;fill:none;fill-opacity:1;fill-rule: evenodd"/>
<path id="Shape2DView_nwe0015"  d="M 0.45 0.4 L 0.5000000000000155 0.4 " stroke="#191919" stroke-width="0.35 px" style="stroke-width:0.35;stroke-miterlimit:4;stroke-dasharray:none;fill:none;fill-opacity:1;fill-rule: evenodd"/>
<path id="Shape2DView_nwe0016"  d="M -0.725 0.4 L -0.5 0.4 " stroke="#191919" stroke-width="0.35 px" style="stroke-width:0.35;stroke-miterlimit:4;stroke-dasharray:none;fill:none;fill-opacity:1;fill-rule: evenodd"/>
<path id="Shape2DView_nwe0017"  d="M -0.53 0.3 L -0.5266410657169008 0.3 L -0.5233243719813107 0.3 L -0.520091628141345 0.3 L -0.5169834878264733 0.3 L -0.51403903770454 0.3 L -0.511295305944238 0.3 L -0.5087867965644036 0.3 L -0.5065450555259592 0.3 L -0.5045982740231515 0.3 L -0.5029709339629275 0.3 L -0.501683500090749 0.3 L -0.5007521626345454 0.3 L -0.5001886337032028 0.3 L -0.5 0.3 " stroke="#191919" stroke-width="0.35 px" style="stroke-width:0.35;stroke-miterlimit:4;stroke-dasharray:none;fill:none;fill-opacity:1;fill-rule: evenodd"/>
<path id="Shape2DView_nwe0018"  d="M -0.53 -0.3 L -0.5266410657169008 -0.3 L -0.5233243719813107 -0.3 L -0.520091628141345 -0.3 L -0.5169834878264733 -0.3 L -0.51403903770454 -0.3 L -0.511295305944238 -0.3 L -0.5087867965644036 -0.3 L -0.5065450555259592 -0.3 L -0.5045982740231515 -0.3 L -0.5029709339629275 -0.3 L -0.501683500090749 -0.3 L -0.5007521626345454 -0.3 L -0.5001886337032028 -0.3 L -0.5 -0.3 " stroke="#191919" stroke-width="0.35 px" style="stroke-width:0.35;stroke-miterlimit:4;stroke-dasharray:none;fill:none;fill-opacity:1;fill-rule: evenodd"/>
<path id="Shape2DView_nwe0019"  d="M -0.8 -0.4 L -0.7998113662967973 -0.4 L -0.7992478373654547 -0.4 L -0.798316499909251 -0.4 L -0.7970290660370726 -0.4 L -0.7954017259768486 -0.4 L -0.7934549444740409 -0.4 L -0.7912132034355964 -0.4 L -0.788704694055762 -0.4 L -0.7859609622954601 -0.4 L -0.7830165121735267 -0.4 L -0.779908371858655 -0.4 L -0.7766756280186895 -0.4 L -0.7733589342830992 -0.4 L -0.77 -0.4 " stroke="#191919" stroke-width="0.35 px" style="stroke-width:0.35;stroke-miterlimit:4;stroke-dasharray:none;fill:none;fill-opacity:1;fill-rule: evenodd"/>
<path id="Shape2DView_nwe0020"  d="M -0.77 -0.4 L -0.725 -0.4 " stroke="#191919" stroke-width="0.35 px" style="stroke-width:0.35;stroke-miterlimit:4;stroke-dasharray:none;fill:none;fill-opacity:1;fill-rule: evenodd"/>
<path id="Shape2DView_nwe0021"  d="M 0.725 -0.4 L 0.77 -0.4 " stroke="#191919" stroke-width="0.35 px" style="stroke-width:0.35;stroke-miterlimit:4;stroke-dasharray:none;fill:none;fill-opacity:1;fill-rule: evenodd"/>
<path id="Shape2DView_nwe0022"  d="M 0.8 -0.4 L 0.7998113662967973 -0.4 L 0.7992478373654547 -0.4 L 0.798316499909251 -0.4 L 0.7970290660370726 -0.4 L 0.7954017259768486 -0.4 L 0.7934549444740409 -0.4 L 0.7912132034355964 -0.4 L 0.788704694055762 -0.4 L 0.7859609622954601 -0.4 L 0.7830165121735267 -0.4 L 0.779908371858655 -0.4 L 0.7766756280186895 -0.4 L 0.7733589342830992 -0.4 L 0.77 -0.4 " stroke="#191919" stroke-width="0.35 px" style="stroke-width:0.35;stroke-miterlimit:4;stroke-dasharray:none;fill:none;fill-opacity:1;fill-rule: evenodd"/>
<path id="Shape2DView_nwe0023"  d="M 0.5 0.4 L 0.7250000000000001 0.4 " stroke="#191919" stroke-width="0.35 px" style="stroke-width:0.35;stroke-miterlimit:4;stroke-dasharray:none;fill:none;fill-opacity:1;fill-rule: evenodd"/>
<path id="Shape2DView_nwe0024"  d="M 0.5 -0.3 L 0.5001886337032028 -0.3 L 0.5007521626345454 -0.3 L 0.501683500090749 -0.3 L 0.5029709339629275 -0.3 L 0.5045982740231515 -0.3 L 0.5065450555259592 -0.3 L 0.5087867965644036 -0.3 L 0.511295305944238 -0.3 L 0.51403903770454 -0.3 L 0.5169834878264733 -0.3 L 0.520091628141345 -0.3 L 0.5233243719813105 -0.3 L 0.5266410657169008 -0.3 L 0.53 -0.3 " stroke="#191919" stroke-width="0.35 px" style="stroke-width:0.35;stroke-miterlimit:4;stroke-dasharray:none;fill:none;fill-opacity:1;fill-rule: evenodd"/>
<path id="Shape2DView_nwe0025"  d="M 0.5 0.3 L 0.5001886337032028 0.3 L 0.5007521626345454 0.3 L 0.501683500090749 0.3 L 0.5029709339629275 0.3 L 0.5045982740231515 0.3 L 0.5065450555259592 0.3 L 0.5087867965644036 0.3 L 0.511295305944238 0.3 L 0.51403903770454 0.3 L 0.5169834878264733 0.3 L 0.520091628141345 0.3 L 0.5233243719813105 0.3 L 0.5266410657169008 0.3 L 0.53 0.3 " stroke="#191919" stroke-width="0.35 px" style="stroke-width:0.35;stroke-miterlimit:4;stroke-dasharray:none;fill:none;fill-opacity:1;fill-rule: evenodd"/>
<path id="Shape2DView_nwe0026"  d="M -0.725 0.3 L -0.53 0.3 " stroke="#191919" stroke-width="0.35 px" style="stroke-width:0.35;stroke-miterlimit:4;stroke-dasharray:none;fill:none;fill-opacity:1;fill-rule: evenodd"/>
<path id="Shape2DView_nwe0027"  d="M -0.725 0.4 L -0.725 0.3 " stroke="#191919" stroke-width="0.35 px" style="stroke-width:0.35;stroke-miterlimit:4;stroke-dasharray:none;fill:none;fill-opacity:1;fill-rule: evenodd"/>
<path id="Shape2DView_nwe0028"  d="M -0.53 -0.3 L -0.725 -0.3 " stroke="#191919" stroke-width="0.35 px" style="stroke-width:0.35;stroke-miterlimit:4;stroke-dasharray:none;fill:none;fill-opacity:1;fill-rule: evenodd"/>
<path id="Shape2DView_nwe0029"  d="M -0.77 0.4 L -0.725 0.4 " stroke="#191919" stroke-width="0.35 px" style="stroke-width:0.35;stroke-miterlimit:4;stroke-dasharray:none;fill:none;fill-opacity:1;fill-rule: evenodd"/>
<path id="Shape2DView_nwe0030"  d="M -0.725 -0.3 L -0.725 -0.4 " stroke="#191919" stroke-width="0.35 px" style="stroke-width:0.35;stroke-miterlimit:4;stroke-dasharray:none;fill:none;fill-opacity:1;fill-rule: evenodd"/>
<path id="Shape2DView_nwe0031"  d="M -0.8 -0.4 L -0.8 0.4 " stroke="#191919" stroke-width="0.35 px" style="stroke-width:0.35;stroke-miterlimit:4;stroke-dasharray:none;fill:none;fill-opacity:1;fill-rule: evenodd"/>
<path id="Shape2DView_nwe0032"  d="M -0.8 0.4 L -0.7998113662967973 0.4 L -0.7992478373654547 0.4 L -0.798316499909251 0.4 L -0.7970290660370726 0.4 L -0.7954017259768486 0.4 L -0.7934549444740409 0.4 L -0.7912132034355964 0.4 L -0.788704694055762 0.4 L -0.7859609622954601 0.4 L -0.7830165121735267 0.4 L -0.779908371858655 0.4 L -0.7766756280186895 0.4 L -0.7733589342830992 0.4 L -0.77 0.4 " stroke="#191919" stroke-width="0.35 px" style="stroke-width:0.35;stroke-miterlimit:4;stroke-dasharray:none;fill:none;fill-opacity:1;fill-rule: evenodd"/>
<path id="Shape2DView_nwe0033"  d="M 0.8 -0.4 L 0.8 0.4 " stroke="#191919" stroke-width="0.35 px" style="stroke-width:0.35;stroke-miterlimit:4;stroke-dasharray:none;fill:none;fill-opacity:1;fill-rule: evenodd"/>
<path id="Shape2DView_nwe0034"  d="M 0.8 0.4 L 0.7998113662967973 0.4 L 0.7992478373654547 0.4 L 0.798316499909251 0.4 L 0.7970290660370726 0.4 L 0.7954017259768486 0.4 L 0.7934549444740409 0.4 L 0.7912132034355964 0.4 L 0.788704694055762 0.4 L 0.7859609622954601 0.4 L 0.7830165121735267 0.4 L 0.779908371858655 0.4 L 0.7766756280186895 0.4 L 0.7733589342830992 0.4 L 0.77 0.4 " stroke="#191919" stroke-width="0.35 px" style="stroke-width:0.35;stroke-miterlimit:4;stroke-dasharray:none;fill:none;fill-opacity:1;fill-rule: evenodd"/>
<path id="Shape2DView_nwe0035"  d="M 0.725 0.4 L 0.77 0.4 " stroke="#191919" stroke-width="0.35 px" style="stroke-width:0.35;stroke-miterlimit:4;stroke-dasharray:none;fill:none;fill-opacity:1;fill-rule: evenodd"/>
<path id="Shape2DView_nwe0036"  d="M 0.725 0.3 L 0.725 0.4 " stroke="#191919" stroke-width="0.35 px" style="stroke-width:0.35;stroke-miterlimit:4;stroke-dasharray:none;fill:none;fill-opacity:1;fill-rule: evenodd"/>
<path id="Shape2DView_nwe0037"  d="M 0.53 0.3 L 0.725 0.3 " stroke="#191919" stroke-width="0.35 px" style="stroke-width:0.35;stroke-miterlimit:4;stroke-dasharray:none;fill:none;fill-opacity:1;fill-rule: evenodd"/>
<path id="Shape2DView_nwe0038"  d="M 0.725 -0.3 L 0.53 -0.3 " stroke="#191919" stroke-width="0.35 px" style="stroke-width:0.35;stroke-miterlimit:4;stroke-dasharray:none;fill:none;fill-opacity:1;fill-rule: evenodd"/>
<path id="Shape2DView_nwe0039"  d="M 0.725 -0.4 L 0.725 -0.3 " stroke="#191919" stroke-width="0.35 px" style="stroke-width:0.35;stroke-miterlimit:4;stroke-dasharray:none;fill:none;fill-opacity:1;fill-rule: evenodd"/>
<path id="Shape2DView_nwe0040"  d="M -0.53 -0.3 L -0.53 0.29999999999999993 " stroke="#191919" stroke-width="0.35 px" style="stroke-width:0.35;stroke-miterlimit:4;stroke-dasharray:none;fill:none;fill-opacity:1;fill-rule: evenodd"/>
<path id="Shape2DView_nwe0041"  d="M 0.53 -0.3 L 0.53 0.29999999999999993 " stroke="#191919" stroke-width="0.35 px" style="stroke-width:0.35;stroke-miterlimit:4;stroke-dasharray:none;fill:none;fill-opacity:1;fill-rule: evenodd"/>
<path id="Shape2DView_nwe0042"  d="M -0.77 -0.4 L -0.77 0.4 " stroke="#191919" stroke-width="0.35 px" style="stroke-width:0.35;stroke-miterlimit:4;stroke-dasharray:none;fill:none;fill-opacity:1;fill-rule: evenodd"/>
<path id="Shape2DView_nwe0043"  d="M 0.77 -0.4 L 0.77 0.4 " stroke="#191919" stroke-width="0.35 px" style="stroke-width:0.35;stroke-miterlimit:4;stroke-dasharray:none;fill:none;fill-opacity:1;fill-rule: evenodd"/>
<title>b'Shape2DView'</title>
</g>
<g id="Rectangle" transform="translate(0.818000,1.018000) scale(1,-1)">
<rect fill="#ff0000" id="origin" width="1" height="1" x="0" y="0" />
<title>b'Rectangle'</title>
</g>
</svg>