<?xml version="1.0"?>
<!DOCTYPE svg PUBLIC "-//W3C//DTD SVG 1.1//EN" "http://www.w3.org/Graphics/SVG/1.1/DTD/svg11.dtd">
<svg width="5.508mm" height="5.1080000000000245mm" viewBox="0 0 5.508 5.1080000000000245" xmlns="http://www.w3.org/2000/svg" version="1.1">
<g id="Shape2DView" transform="translate(2.754000,2.554000) scale(1,-1)">
<circle cx="0.0" cy="0.0" r="1.966666666667" stroke="#191919" stroke-width="0.35 px" style="stroke-width:0.35;stroke-miterlimit:4;stroke-dasharray:none;fill:none"/>
<circle cx="0.0" cy="0.0" r="1.666666666667" stroke="#191919" stroke-width="0.35 px" style="stroke-width:0.35;stroke-miterlimit:4;stroke-dasharray:none;fill:none"/>
<path id="Shape2DView_nwe0002"  d="M 1.433400076889 -2.425 L 1.4368783672269494 -2.433397335707748 L 1.440312916045748 -2.4416890700467233 L 1.443660531901228 -2.449770929646637 L 1.4468791165816741 -2.4575412804338166 L 1.4499281945172642 -2.4649024057386497 L 1.4527694217838416 -2.471761735139405 L 1.4553670683000106 -2.478033008588991 L 1.4576884671536408 -2.4836373611851017 L 1.4597044254072409 -2.4885043149421207 L 1.4613895912160857 -2.492572665092681 L 1.4627227726423728 -2.495791249773127 L 1.463687204156137 -2.498119593413636 L 1.4642707574715164 -2.4995284157419926 L 1.4644660940669845 -2.4999999999999996 " stroke="#191919" stroke-width="0.35 px" style="stroke-width:0.35;stroke-miterlimit:4;stroke-dasharray:none;fill:none;fill-opacity:1;fill-rule: evenodd"/>
<path id="Shape2DView_nwe0003"  d="M 1.464466094067 -2.5 L 2.5 -1.4644660940669998 " stroke="#191919" stroke-width="0.35 px" style="stroke-width:0.35;stroke-miterlimit:4;stroke-dasharray:none;fill:none;fill-opacity:1;fill-rule: evenodd"/>
<path id="Shape2DView_nwe0004"  d="M 2.425 -1.433400076889 L 2.4333973357077476 -1.4368783672269494 L 2.4416890700467233 -1.440312916045748 L 2.449770929646637 -1.443660531901228 L 2.4575412804338166 -1.4468791165816741 L 2.4649024057386497 -1.4499281945172642 L 2.471761735139405 -1.4527694217838416 L 2.478033008588991 -1.4553670683000106 L 2.4836373611851017 -1.4576884671536408 L 2.4885043149421207 -1.4597044254072409 L 2.492572665092681 -1.4613895912160857 L 2.495791249773127 -1.4627227726423728 L 2.498119593413636 -1.463687204156137 L 2.4995284157419926 -1.4642707574715164 L 2.4999999999999996 -1.4644660940669845 " stroke="#191919" stroke-width="0.35 px" style="stroke-width:0.35;stroke-miterlimit:4;stroke-dasharray:none;fill:none;fill-opacity:1;fill-rule: evenodd"/>
<path id="Shape2DView_nwe0005"  d="M -2.5000000000000124 -2.5000000000000124 L -2.4995284157420055 -2.4995284157420055 L -2.498119593413649 -2.498119593413649 L -2.495791249773139 -2.495791249773139 L -2.4925726650926925 -2.4925726650926925 L -2.4885043149421318 -2.4885043149421318 L -2.483637361185112 -2.483637361185112 L -2.4780330085889997 -2.4780330085889997 L -2.4717617351394128 -2.4717617351394128 L -2.464902405738657 -2.464902405738657 L -2.4575412804338224 -2.4575412804338224 L -2.4497709296466414 -2.4497709296466414 L -2.4416890700467264 -2.4416890700467264 L -2.4333973357077494 -2.4333973357077494 L -2.425 -2.425 " stroke="#191919" stroke-width="0.35 px" style="stroke-width:0.35;stroke-miterlimit:4;stroke-dasharray:none;fill:none;fill-opacity:1;fill-rule: evenodd"/>
<path id="Shape2DView_nwe0006"  d="M -2.5 -2.5 L 1.4644660940670002 -2.5000000000000004 " stroke="#191919" stroke-width="0.35 px" style="stroke-width:0.35;stroke-miterlimit:4;stroke-dasharray:none;fill:none;fill-opacity:1;fill-rule: evenodd"/>
<path id="Shape2DView_nwe0007"  d="M 2.5 -1.464466094067 L 2.5000000000000004 2.5 " stroke="#191919" stroke-width="0.35 px" style="stroke-width:0.35;stroke-miterlimit:4;stroke-dasharray:none;fill:none;fill-opacity:1;fill-rule: evenodd"/>
<path id="Shape2DView_nwe0008"  d="M 2.5000000000000124 2.5000000000000124 L 2.4995284157420055 2.4995284157420055 L 2.498119593413649 2.498119593413649 L 2.495791249773139 2.495791249773139 L 2.4925726650926925 2.4925726650926925 L 2.4885043149421318 2.4885043149421318 L 2.483637361185112 2.483637361185112 L 2.4780330085889997 2.4780330085889997 L 2.4717617351394128 2.4717617351394128 L 2.464902405738657 2.464902405738657 L 2.4575412804338224 2.4575412804338224 L 2.4497709296466414 2.4497709296466414 L 2.4416890700467264 2.4416890700467264 L 2.4333973357077494 2.4333973357077494 L 2.425 2.425 " stroke="#191919" stroke-width="0.35 px" style="stroke-width:0.35;stroke-miterlimit:4;stroke-dasharray:none;fill:none;fill-opacity:1;fill-rule: evenodd"/>
<path id="Shape2DView_nwe0009"  d="M -2.5 2.5 L -2.5000000000000004 -2.5 " stroke="#191919" stroke-width="0.35 px" style="stroke-width:0.35;stroke-miterlimit:4;stroke-dasharray:none;fill:none;fill-opacity:1;fill-rule: evenodd"/>
<path id="Shape2DView_nwe0010"  d="M -2.5000000000000124 2.5000000000000124 L -2.4995284157420055 2.4995284157420055 L -2.498119593413649 2.498119593413649 L -2.495791249773139 2.495791249773139 L -2.4925726650926925 2.4925726650926925 L -2.4885043149421318 2.4885043149421318 L -2.483637361185112 2.483637361185112 L -2.4780330085889997 2.4780330085889997 L -2.4717617351394128 2.4717617351394128 L -2.464902405738657 2.464902405738657 L -2.4575412804338224 2.4575412804338224 L -2.4497709296466414 2.4497709296466414 L -2.4416890700467264 2.4416890700467264 L -2.4333973357077494 2.4333973357077494 L -2.425 2.425 " stroke="#191919" stroke-width="0.35 px" style="stroke-width:0.35;stroke-miterlimit:4;stroke-dasharray:none;fill:none;fill-opacity:1;fill-rule: evenodd"/>
<path id="Shape2DView_nwe0011"  d="M 2.5 2.5 L -2.5 2.5000000000000004 " stroke="#191919" stroke-width="0.35 px" style="stroke-width:0.35;stroke-miterlimit:4;stroke-dasharray:none;fill:none;fill-opacity:1;fill-rule: evenodd"/>
<path id="Shape2DView_nwe0012"  d="M 1.464466094067 -2.5 L 2.5 -2.5000000000000004 " stroke="#191919" stroke-width="0.35 px" style="stroke-width:0.35;stroke-miterlimit:4;stroke-dasharray:none;fill:none;fill-opacity:1;fill-rule: evenodd"/>
<path id="Shape2DView_nwe0013"  d="M 2.5 -2.5 L 2.5 -1.464466094067 " stroke="#191919" stroke-width="0.35 px" style="stroke-width:0.35;stroke-miterlimit:4;stroke-dasharray:none;fill:none;fill-opacity:1;fill-rule: evenodd"/>
<path id="Shape2DView_nwe0014"  d="M 2.5 1.2 L 2.65 1.2 " stroke="#191919" stroke-width="0.35 px" style="stroke-width:0.35;stroke-miterlimit:4;stroke-dasharray:none;fill:none;fill-opacity:1;fill-rule: evenodd"/>
<path id="Shape2DView_nwe0015"  d="M 2.6999999999999997 1.2 L 2.699685610494662 1.2 L 2.698746395609091 1.2 L 2.6971941665154184 1.2 L 2.695048443395121 1.2 L 2.692336209961414 1.2 L 2.6890915741234016 1.2 L 2.685355339059327 1.2 L 2.6811744900929364 1.2 L 2.676601603825767 1.2 L 2.671694186955878 1.2 L 2.666513953097758 1.2 L 2.6611260466978157 1.2 L 2.6555982238051654 1.2 L 2.65 1.2 " stroke="#191919" stroke-width="0.35 px" style="stroke-width:0.35;stroke-miterlimit:4;stroke-dasharray:none;fill:none;fill-opacity:1;fill-rule: evenodd"/>
<path id="Shape2DView_nwe0016"  d="M 2.65 2.1 L 2.5 2.1 " stroke="#191919" stroke-width="0.35 px" style="stroke-width:0.35;stroke-miterlimit:4;stroke-dasharray:none;fill:none;fill-opacity:1;fill-rule: evenodd"/>
<path id="Shape2DView_nwe0017"  d="M 2.6999999999999997 2.1 L 2.699685610494662 2.1 L 2.698746395609091 2.1 L 2.6971941665154184 2.1 L 2.695048443395121 2.1 L 2.692336209961414 2.1 L 2.6890915741234016 2.1 L 2.685355339059327 2.1 L 2.6811744900929364 2.1 L 2.676601603825767 2.1 L 2.671694186955878 2.1 L 2.666513953097758 2.1 L 2.6611260466978157 2.1 L 2.6555982238051654 2.1 L 2.65 2.1 " stroke="#191919" stroke-width="0.35 px" style="stroke-width:0.35;stroke-miterlimit:4;stroke-dasharray:none;fill:none;fill-opacity:1;fill-rule: evenodd"/>
<path id="Shape2DView_nwe0018"  d="M 2.65 -1.2 L 2.5 -1.2 " stroke="#191919" stroke-width="0.35 px" style="stroke-width:0.35;stroke-miterlimit:4;stroke-dasharray:none;fill:none;fill-opacity:1;fill-rule: evenodd"/>
<path id="Shape2DView_nwe0019"  d="M 2.5 -2.1 L 2.65 -2.1 " stroke="#191919" stroke-width="0.35 px" style="stroke-width:0.35;stroke-miterlimit:4;stroke-dasharray:none;fill:none;fill-opacity:1;fill-rule: evenodd"/>
<path id="Shape2DView_nwe0020"  d="M 2.6999999999999997 -1.2 L 2.699685610494662 -1.2 L 2.698746395609091 -1.2 L 2.6971941665154184 -1.2 L 2.695048443395121 -1.2 L 2.692336209961414 -1.2 L 2.6890915741234016 -1.2 L 2.685355339059327 -1.2 L 2.6811744900929364 -1.2 L 2.676601603825767 -1.2 L 2.671694186955878 -1.2 L 2.666513953097758 -1.2 L 2.6611260466978157 -1.2 L 2.6555982238051654 -1.2 L 2.65 -1.2 " stroke="#191919" stroke-width="0.35 px" style="stroke-width:0.35;stroke-miterlimit:4;stroke-dasharray:none;fill:none;fill-opacity:1;fill-rule: evenodd"/>
<path id="Shape2DView_nwe0021"  d="M 2.6999999999999997 -2.1 L 2.699685610494662 -2.1 L 2.698746395609091 -2.1 L 2.6971941665154184 -2.1 L 2.695048443395121 -2.1 L 2.692336209961414 -2.1 L 2.6890915741234016 -2.1 L 2.685355339059327 -2.1 L 2.6811744900929364 -2.1 L 2.676601603825767 -2.1 L 2.671694186955878 -2.1 L 2.666513953097758 -2.1 L 2.6611260466978157 -2.1 L 2.6555982238051654 -2.1 L 2.65 -2.1 " stroke="#191919" stroke-width="0.35 px" style="stroke-width:0.35;stroke-miterlimit:4;stroke-dasharray:none;fill:none;fill-opacity:1;fill-rule: evenodd"/>
<path id="Shape2DView_nwe0022"  d="M -2.5 -1.2 L -2.65 -1.2 " stroke="#191919" stroke-width="0.35 px" style="stroke-width:0.35;stroke-miterlimit:4;stroke-dasharray:none;fill:none;fill-opacity:1;fill-rule: evenodd"/>
<path id="Shape2DView_nwe0023"  d="M -2.65 -2.1 L -2.5 -2.1 " stroke="#191919" stroke-width="0.35 px" style="stroke-width:0.35;stroke-miterlimit:4;stroke-dasharray:none;fill:none;fill-opacity:1;fill-rule: evenodd"/>
<path id="Shape2DView_nwe0024"  d="M -2.65 -2.1 L -2.6555982238051654 -2.1 L -2.6611260466978157 -2.1 L -2.666513953097758 -2.1 L -2.671694186955878 -2.1 L -2.676601603825767 -2.1 L -2.6811744900929364 -2.1 L -2.685355339059327 -2.1 L -2.6890915741234016 -2.1 L -2.692336209961414 -2.1 L -2.695048443395121 -2.1 L -2.6971941665154184 -2.1 L -2.698746395609091 -2.1 L -2.699685610494662 -2.1 L -2.6999999999999997 -2.1 " stroke="#191919" stroke-width="0.35 px" style="stroke-width:0.35;stroke-miterlimit:4;stroke-dasharray:none;fill:none;fill-opacity:1;fill-rule: evenodd"/>
<path id="Shape2DView_nwe0025"  d="M -2.65 -1.2 L -2.6555982238051654 -1.2 L -2.6611260466978157 -1.2 L -2.666513953097758 -1.2 L -2.671694186955878 -1.2 L -2.676601603825767 -1.2 L -2.6811744900929364 -1.2 L -2.685355339059327 -1.2 L -2.6890915741234016 -1.2 L -2.692336209961414 -1.2 L -2.695048443395121 -1.2 L -2.6971941665154184 -1.2 L -2.698746395609091 -1.2 L -2.699685610494662 -1.2 L -2.6999999999999997 -1.2 " stroke="#191919" stroke-width="0.35 px" style="stroke-width:0.35;stroke-miterlimit:4;stroke-dasharray:none;fill:none;fill-opacity:1;fill-rule: evenodd"/>
<path id="Shape2DView_nwe0026"  d="M -2.5 2.1 L -2.65 2.1 " stroke="#191919" stroke-width="0.35 px" style="stroke-width:0.35;stroke-miterlimit:4;stroke-dasharray:none;fill:none;fill-opacity:1;fill-rule: evenodd"/>
<path id="Shape2DView_nwe0027"  d="M -2.65 1.2 L -2.5 1.2 " stroke="#191919" stroke-width="0.35 px" style="stroke-width:0.35;stroke-miterlimit:4;stroke-dasharray:none;fill:none;fill-opacity:1;fill-rule: evenodd"/>
<path id="Shape2DView_nwe0028"  d="M -2.65 1.2 L -2.6555982238051654 1.2 L -2.6611260466978157 1.2 L -2.666513953097758 1.2 L -2.671694186955878 1.2 L -2.676601603825767 1.2 L -2.6811744900929364 1.2 L -2.685355339059327 1.2 L -2.6890915741234016 1.2 L -2.692336209961414 1.2 L -2.695048443395121 1.2 L -2.6971941665154184 1.2 L -2.698746395609091 1.2 L -2.699685610494662 1.2 L -2.6999999999999997 1.2 " stroke="#191919" stroke-width="0.35 px" style="stroke-width:0.35;stroke-miterlimit:4;stroke-dasharray:none;fill:none;fill-opacity:1;fill-rule: evenodd"/>
<path id="Shape2DView_nwe0029"  d="M -2.65 2.1 L -2.6555982238051654 2.1 L -2.6611260466978157 2.1 L -2.666513953097758 2.1 L -2.671694186955878 2.1 L -2.676601603825767 2.1 L -2.6811744900929364 2.1 L -2.685355339059327 2.1 L -2.6890915741234016 2.1 L -2.692336209961414 2.1 L -2.695048443395121 2.1 L -2.6971941665154184 2.1 L -2.698746395609091 2.1 L -2.699685610494662 2.1 L -2.6999999999999997 2.1 " stroke="#191919" stroke-width="0.35 px" style="stroke-width:0.35;stroke-miterlimit:4;stroke-dasharray:none;fill:none;fill-opacity:1;fill-rule: evenodd"/>
<path id="Shape2DView_nwe0030"  d="M 2.7 1.2 L 2.7 2.1 " stroke="#191919" stroke-width="0.35 px" style="stroke-width:0.35;stroke-miterlimit:4;stroke-dasharray:none;fill:none;fill-opacity:1;fill-rule: evenodd"/>
<path id="Shape2DView_nwe0032"  d="M 2.7 -2.1 L 2.7 -1.2 " stroke="#191919" stroke-width="0.35 px" style="stroke-width:0.35;stroke-miterlimit:4;stroke-dasharray:none;fill:none;fill-opacity:1;fill-rule: evenodd"/>
<path id="Shape2DView_nwe0033"  d="M -2.7 -1.2 L -2.7 -2.1 " stroke="#191919" stroke-width="0.35 px" style="stroke-width:0.35;stroke-miterlimit:4;stroke-dasharray:none;fill:none;fill-opacity:1;fill-rule: evenodd"/>
<path id="Shape2DView_nwe0035"  d="M -2.7 2.1 L -2.7 1.2 " stroke="#191919" stroke-width="0.35 px" style="stroke-width:0.35;stroke-miterlimit:4;stroke-dasharray:none;fill:none;fill-opacity:1;fill-rule: evenodd"/>
<path id="Shape2DView_nwe0036"  d="M 1.4334000768890003 -2.425 L 2.425 -1.433400076889 " stroke="#191919" stroke-width="0.35 px" style="stroke-width:0.35;stroke-miterlimit:4;stroke-dasharray:none;fill:none;fill-opacity:1;fill-rule: evenodd"/>
<path id="Shape2DView_nwe0037"  d="M 2.425 -1.433400076889 L 2.4250000000000003 2.425 " stroke="#191919" stroke-width="0.35 px" style="stroke-width:0.35;stroke-miterlimit:4;stroke-dasharray:none;fill:none;fill-opacity:1;fill-rule: evenodd"/>
<path id="Shape2DView_nwe0038"  d="M 2.425 2.425 L -2.425 2.4250000000000003 " stroke="#191919" stroke-width="0.35 px" style="stroke-width:0.35;stroke-miterlimit:4;stroke-dasharray:none;fill:none;fill-opacity:1;fill-rule: evenodd"/>
<path id="Shape2DView_nwe0039"  d="M -2.425 2.425 L -2.4250000000000003 -2.425 " stroke="#191919" stroke-width="0.35 px" style="stroke-width:0.35;stroke-miterlimit:4;stroke-dasharray:none;fill:none;fill-opacity:1;fill-rule: evenodd"/>
<path id="Shape2DView_nwe0040"  d="M -2.425 -2.425 L 1.4334000768889998 -2.4250000000000003 " stroke="#191919" stroke-width="0.35 px" style="stroke-width:0.35;stroke-miterlimit:4;stroke-dasharray:none;fill:none;fill-opacity:1;fill-rule: evenodd"/>
<path id="Shape2DView_nwe0041"  d="M 2.65 1.2 L 2.65 2.1 " stroke="#191919" stroke-width="0.35 px" style="stroke-width:0.35;stroke-miterlimit:4;stroke-dasharray:none;fill:none;fill-opacity:1;fill-rule: evenodd"/>
<path id="Shape2DView_nwe0042"  d="M 2.65 -2.1 L 2.65 -1.2 " stroke="#191919" stroke-width="0.35 px" style="stroke-width:0.35;stroke-miterlimit:4;stroke-dasharray:none;fill:none;fill-opacity:1;fill-rule: evenodd"/>
<path id="Shape2DView_nwe0043"  d="M -2.65 -1.2 L -2.65 -2.1 " stroke="#191919" stroke-width="0.35 px" style="stroke-width:0.35;stroke-miterlimit:4;stroke-dasharray:none;fill:none;fill-opacity:1;fill-rule: evenodd"/>
<path id="Shape2DView_nwe0044"  d="M -2.65 2.1 L -2.65 1.2 " stroke="#191919" stroke-width="0.35 px" style="stroke-width:0.35;stroke-miterlimit:4;stroke-dasharray:none;fill:none;fill-opacity:1;fill-rule: evenodd"/>
<path id="Shape2DView_nwe0045"  d="M -1.966666666667 2.408472038322974e-16 L -1.666666666667 2.041077998579e-16 " stroke="#191919" stroke-width="0.35 px" style="stroke-width:0.35;stroke-miterlimit:4;stroke-dasharray:none;fill:none;fill-opacity:1;fill-rule: evenodd"/>
<title>b'Shape2DView'</title>
</g>
<g id="Rectangle" transform="translate(2.754000,2.554000) scale(1,-1)">
<rect fill="#ff0000" id="origin" width="1" height="1" x="0" y="0" />
<title>b'Rectangle'</title>
</g>
</svg>