<?xml version="1.0"?>
<!DOCTYPE svg PUBLIC "-//W3C//DTD SVG 1.1//EN" "http://www.w3.org/Graphics/SVG/1.1/DTD/svg11.dtd">
<svg width="1.5299999999999998mm" height="1.2799999999999998mm" viewBox="0 0 1.5299999999999998 1.2799999999999998" xmlns="http://www.w3.org/2000/svg" version="1.1">
<g id="Shape2DView" transform="translate(0.515000,1.015000) scale(1,-1)">
<path id="Shape2DView_nwe0000"  d="M -0.35 -0.25 L -0.3149999999999652 -0.25 " stroke="#191919" stroke-width="0.35 px" style="stroke-width:0.35;stroke-miterlimit:4;stroke-dasharray:none;fill:none;fill-opacity:1;fill-rule: evenodd"/>
<path id="Shape2DView_nwe0001"  d="M -0.315 -0.25 L 0.315 -0.25 " stroke="#191919" stroke-width="0.35 px" style="stroke-width:0.35;stroke-miterlimit:4;stroke-dasharray:none;fill:none;fill-opacity:1;fill-rule: evenodd"/>
<path id="Shape2DView_nwe0002"  d="M 0.315 -0.25 L 0.3500000000000348 -0.25 " stroke="#191919" stroke-width="0.35 px" style="stroke-width:0.35;stroke-miterlimit:4;stroke-dasharray:none;fill:none;fill-opacity:1;fill-rule: evenodd"/>
<path id="Shape2DView_nwe0003"  d="M -0.35 0.25 L -0.35 0.1875 " stroke="#191919" stroke-width="0.35 px" style="stroke-width:0.35;stroke-miterlimit:4;stroke-dasharray:none;fill:none;fill-opacity:1;fill-rule: evenodd"/>
<path id="Shape2DView_nwe0004"  d="M -0.35 -0.1875 L -0.35 0.1875 " stroke="#191919" stroke-width="0.35 px" style="stroke-width:0.35;stroke-miterlimit:4;stroke-dasharray:none;fill:none;fill-opacity:1;fill-rule: evenodd"/>
<path id="Shape2DView_nwe0005"  d="M -0.35 -0.1875 L -0.35 -0.25 " stroke="#191919" stroke-width="0.35 px" style="stroke-width:0.35;stroke-miterlimit:4;stroke-dasharray:none;fill:none;fill-opacity:1;fill-rule: evenodd"/>
<path id="Shape2DView_nwe0006"  d="M -0.315 0.25 L -0.315 -0.25 " stroke="#191919" stroke-width="0.35 px" style="stroke-width:0.35;stroke-miterlimit:4;stroke-dasharray:none;fill:none;fill-opacity:1;fill-rule: evenodd"/>
<path id="Shape2DView_nwe0007"  d="M -0.35 0.25 L -0.3149999999999652 0.25 " stroke="#191919" stroke-width="0.35 px" style="stroke-width:0.35;stroke-miterlimit:4;stroke-dasharray:none;fill:none;fill-opacity:1;fill-rule: evenodd"/>
<path id="Shape2DView_nwe0008"  d="M -0.4625 -0.25 L -0.35 -0.25 " stroke="#191919" stroke-width="0.35 px" style="stroke-width:0.35;stroke-miterlimit:4;stroke-dasharray:none;fill:none;fill-opacity:1;fill-rule: evenodd"/>
<path id="Shape2DView_nwe0009"  d="M 0.35 -0.25 L 0.4625 -0.25 " stroke="#191919" stroke-width="0.35 px" style="stroke-width:0.35;stroke-miterlimit:4;stroke-dasharray:none;fill:none;fill-opacity:1;fill-rule: evenodd"/>
<path id="Shape2DView_nwe0010"  d="M 0.315 0.25 L 0.315 -0.25 " stroke="#191919" stroke-width="0.35 px" style="stroke-width:0.35;stroke-miterlimit:4;stroke-dasharray:none;fill:none;fill-opacity:1;fill-rule: evenodd"/>
<path id="Shape2DView_nwe0011"  d="M -0.315 0.25 L 0.315 0.25 " stroke="#191919" stroke-width="0.35 px" style="stroke-width:0.35;stroke-miterlimit:4;stroke-dasharray:none;fill:none;fill-opacity:1;fill-rule: evenodd"/>
<path id="Shape2DView_nwe0012"  d="M 0.35 -0.1875 L 0.35 -0.25 " stroke="#191919" stroke-width="0.35 px" style="stroke-width:0.35;stroke-miterlimit:4;stroke-dasharray:none;fill:none;fill-opacity:1;fill-rule: evenodd"/>
<path id="Shape2DView_nwe0013"  d="M 0.35 -0.1875 L 0.35 0.1875 " stroke="#191919" stroke-width="0.35 px" style="stroke-width:0.35;stroke-miterlimit:4;stroke-dasharray:none;fill:none;fill-opacity:1;fill-rule: evenodd"/>
<path id="Shape2DView_nwe0014"  d="M 0.35 0.25 L 0.35 0.1875 " stroke="#191919" stroke-width="0.35 px" style="stroke-width:0.35;stroke-miterlimit:4;stroke-dasharray:none;fill:none;fill-opacity:1;fill-rule: evenodd"/>
<path id="Shape2DView_nwe0015"  d="M 0.315 0.25 L 0.3500000000000348 0.25 " stroke="#191919" stroke-width="0.35 px" style="stroke-width:0.35;stroke-miterlimit:4;stroke-dasharray:none;fill:none;fill-opacity:1;fill-rule: evenodd"/>
<path id="Shape2DView_nwe0016"  d="M -0.4625 0.25 L -0.35 0.25 " stroke="#191919" stroke-width="0.35 px" style="stroke-width:0.35;stroke-miterlimit:4;stroke-dasharray:none;fill:none;fill-opacity:1;fill-rule: evenodd"/>
<path id="Shape2DView_nwe0017"  d="M -0.365 0.1875 L -0.3633205328584504 0.1875 L -0.3616621859906553 0.1875 L -0.3600458140706725 0.1875 L -0.3584917439132366 0.1875 L -0.35701951885226996 0.1875 L -0.355647652972119 0.1875 L -0.3543933982822018 0.1875 L -0.35327252776297957 0.1875 L -0.3522991370115757 0.1875 L -0.3514854669814637 0.1875 L -0.3508417500453745 0.1875 L -0.35037608131727266 0.1875 L -0.35009431685160136 0.1875 L -0.35 0.1875 " stroke="#191919" stroke-width="0.35 px" style="stroke-width:0.35;stroke-miterlimit:4;stroke-dasharray:none;fill:none;fill-opacity:1;fill-rule: evenodd"/>
<path id="Shape2DView_nwe0018"  d="M -0.365 -0.1875 L -0.3633205328584504 -0.1875 L -0.3616621859906553 -0.1875 L -0.3600458140706725 -0.1875 L -0.3584917439132366 -0.1875 L -0.35701951885226996 -0.1875 L -0.355647652972119 -0.1875 L -0.3543933982822018 -0.1875 L -0.35327252776297957 -0.1875 L -0.3522991370115757 -0.1875 L -0.3514854669814637 -0.1875 L -0.3508417500453745 -0.1875 L -0.35037608131727266 -0.1875 L -0.35009431685160136 -0.1875 L -0.35 -0.1875 " stroke="#191919" stroke-width="0.35 px" style="stroke-width:0.35;stroke-miterlimit:4;stroke-dasharray:none;fill:none;fill-opacity:1;fill-rule: evenodd"/>
<path id="Shape2DView_nwe0019"  d="M -0.5 -0.25 L -0.4999056831483986 -0.25 L -0.4996239186827273 -0.25 L -0.4991582499546255 -0.25 L -0.49851453301853627 -0.25 L -0.49770086298842425 -0.25 L -0.4967274722370204 -0.25 L -0.4956066017177982 -0.25 L -0.494352347027881 -0.25 L -0.49298048114773 -0.25 L -0.49150825608676335 -0.25 L -0.4899541859293275 -0.25 L -0.48833781400934473 -0.25 L -0.4866794671415496 -0.25 L -0.485 -0.25 " stroke="#191919" stroke-width="0.35 px" style="stroke-width:0.35;stroke-miterlimit:4;stroke-dasharray:none;fill:none;fill-opacity:1;fill-rule: evenodd"/>
<path id="Shape2DView_nwe0020"  d="M -0.485 -0.25 L -0.4625 -0.25 " stroke="#191919" stroke-width="0.35 px" style="stroke-width:0.35;stroke-miterlimit:4;stroke-dasharray:none;fill:none;fill-opacity:1;fill-rule: evenodd"/>
<path id="Shape2DView_nwe0021"  d="M 0.4625 -0.25 L 0.485 -0.25 " stroke="#191919" stroke-width="0.35 px" style="stroke-width:0.35;stroke-miterlimit:4;stroke-dasharray:none;fill:none;fill-opacity:1;fill-rule: evenodd"/>
<path id="Shape2DView_nwe0022"  d="M 0.5 -0.25 L 0.4999056831483986 -0.25 L 0.4996239186827273 -0.25 L 0.4991582499546255 -0.25 L 0.49851453301853627 -0.25 L 0.49770086298842425 -0.25 L 0.4967274722370204 -0.25 L 0.4956066017177982 -0.25 L 0.494352347027881 -0.25 L 0.49298048114773 -0.25 L 0.49150825608676335 -0.25 L 0.4899541859293275 -0.25 L 0.48833781400934473 -0.25 L 0.4866794671415496 -0.25 L 0.485 -0.25 " stroke="#191919" stroke-width="0.35 px" style="stroke-width:0.35;stroke-miterlimit:4;stroke-dasharray:none;fill:none;fill-opacity:1;fill-rule: evenodd"/>
<path id="Shape2DView_nwe0023"  d="M 0.35 0.25 L 0.4625 0.25 " stroke="#191919" stroke-width="0.35 px" style="stroke-width:0.35;stroke-miterlimit:4;stroke-dasharray:none;fill:none;fill-opacity:1;fill-rule: evenodd"/>
<path id="Shape2DView_nwe0024"  d="M 0.35 -0.1875 L 0.35009431685160136 -0.1875 L 0.35037608131727266 -0.1875 L 0.3508417500453745 -0.1875 L 0.3514854669814637 -0.1875 L 0.3522991370115757 -0.1875 L 0.35327252776297957 -0.1875 L 0.3543933982822018 -0.1875 L 0.355647652972119 -0.1875 L 0.35701951885226996 -0.1875 L 0.3584917439132366 -0.1875 L 0.3600458140706725 -0.1875 L 0.36166218599065525 -0.1875 L 0.3633205328584504 -0.1875 L 0.365 -0.1875 " stroke="#191919" stroke-width="0.35 px" style="stroke-width:0.35;stroke-miterlimit:4;stroke-dasharray:none;fill:none;fill-opacity:1;fill-rule: evenodd"/>
<path id="Shape2DView_nwe0025"  d="M 0.35 0.1875 L 0.35009431685160136 0.1875 L 0.35037608131727266 0.1875 L 0.3508417500453745 0.1875 L 0.3514854669814637 0.1875 L 0.3522991370115757 0.1875 L 0.35327252776297957 0.1875 L 0.3543933982822018 0.1875 L 0.355647652972119 0.1875 L 0.35701951885226996 0.1875 L 0.3584917439132366 0.1875 L 0.3600458140706725 0.1875 L 0.36166218599065525 0.1875 L 0.3633205328584504 0.1875 L 0.365 0.1875 " stroke="#191919" stroke-width="0.35 px" style="stroke-width:0.35;stroke-miterlimit:4;stroke-dasharray:none;fill:none;fill-opacity:1;fill-rule: evenodd"/>
<path id="Shape2DView_nwe0026"  d="M -0.4625 0.1875 L -0.365 0.1875 " stroke="#191919" stroke-width="0.35 px" style="stroke-width:0.35;stroke-miterlimit:4;stroke-dasharray:none;fill:none;fill-opacity:1;fill-rule: evenodd"/>
<path id="Shape2DView_nwe0027"  d="M -0.4625 0.25 L -0.4625 0.1875 " stroke="#191919" stroke-width="0.35 px" style="stroke-width:0.35;stroke-miterlimit:4;stroke-dasharray:none;fill:none;fill-opacity:1;fill-rule: evenodd"/>
<path id="Shape2DView_nwe0028"  d="M -0.365 -0.1875 L -0.4625 -0.1875 " stroke="#191919" stroke-width="0.35 px" style="stroke-width:0.35;stroke-miterlimit:4;stroke-dasharray:none;fill:none;fill-opacity:1;fill-rule: evenodd"/>
<path id="Shape2DView_nwe0029"  d="M -0.485 0.25 L -0.4625 0.25 " stroke="#191919" stroke-width="0.35 px" style="stroke-width:0.35;stroke-miterlimit:4;stroke-dasharray:none;fill:none;fill-opacity:1;fill-rule: evenodd"/>
<path id="Shape2DView_nwe0030"  d="M -0.4625 -0.1875 L -0.4625 -0.25 " stroke="#191919" stroke-width="0.35 px" style="stroke-width:0.35;stroke-miterlimit:4;stroke-dasharray:none;fill:none;fill-opacity:1;fill-rule: evenodd"/>
<path id="Shape2DView_nwe0031"  d="M -0.5 -0.25 L -0.5 0.25 " stroke="#191919" stroke-width="0.35 px" style="stroke-width:0.35;stroke-miterlimit:4;stroke-dasharray:none;fill:none;fill-opacity:1;fill-rule: evenodd"/>
<path id="Shape2DView_nwe0033"  d="M -0.5 0.25 L -0.4999056831483986 0.25 L -0.4996239186827273 0.25 L -0.4991582499546255 0.25 L -0.49851453301853627 0.25 L -0.49770086298842425 0.25 L -0.4967274722370204 0.25 L -0.4956066017177982 0.25 L -0.494352347027881 0.25 L -0.49298048114773 0.25 L -0.49150825608676335 0.25 L -0.4899541859293275 0.25 L -0.48833781400934473 0.25 L -0.4866794671415496 0.25 L -0.485 0.25 " stroke="#191919" stroke-width="0.35 px" style="stroke-width:0.35;stroke-miterlimit:4;stroke-dasharray:none;fill:none;fill-opacity:1;fill-rule: evenodd"/>
<path id="Shape2DView_nwe0034"  d="M 0.5 -0.25 L 0.5 0.25 " stroke="#191919" stroke-width="0.35 px" style="stroke-width:0.35;stroke-miterlimit:4;stroke-dasharray:none;fill:none;fill-opacity:1;fill-rule: evenodd"/>
<path id="Shape2DView_nwe0036"  d="M 0.5 0.25 L 0.4999056831483986 0.25 L 0.4996239186827273 0.25 L 0.4991582499546255 0.25 L 0.49851453301853627 0.25 L 0.49770086298842425 0.25 L 0.4967274722370204 0.25 L 0.4956066017177982 0.25 L 0.494352347027881 0.25 L 0.49298048114773 0.25 L 0.49150825608676335 0.25 L 0.4899541859293275 0.25 L 0.48833781400934473 0.25 L 0.4866794671415496 0.25 L 0.485 0.25 " stroke="#191919" stroke-width="0.35 px" style="stroke-width:0.35;stroke-miterlimit:4;stroke-dasharray:none;fill:none;fill-opacity:1;fill-rule: evenodd"/>
<path id="Shape2DView_nwe0037"  d="M 0.4625 0.25 L 0.485 0.25 " stroke="#191919" stroke-width="0.35 px" style="stroke-width:0.35;stroke-miterlimit:4;stroke-dasharray:none;fill:none;fill-opacity:1;fill-rule: evenodd"/>
<path id="Shape2DView_nwe0038"  d="M 0.4625 0.1875 L 0.4625 0.25 " stroke="#191919" stroke-width="0.35 px" style="stroke-width:0.35;stroke-miterlimit:4;stroke-dasharray:none;fill:none;fill-opacity:1;fill-rule: evenodd"/>
<path id="Shape2DView_nwe0039"  d="M 0.365 0.1875 L 0.4625 0.1875 " stroke="#191919" stroke-width="0.35 px" style="stroke-width:0.35;stroke-miterlimit:4;stroke-dasharray:none;fill:none;fill-opacity:1;fill-rule: evenodd"/>
<path id="Shape2DView_nwe0040"  d="M 0.4625 -0.1875 L 0.365 -0.1875 " stroke="#191919" stroke-width="0.35 px" style="stroke-width:0.35;stroke-miterlimit:4;stroke-dasharray:none;fill:none;fill-opacity:1;fill-rule: evenodd"/>
<path id="Shape2DView_nwe0041"  d="M 0.4625 -0.25 L 0.4625 -0.1875 " stroke="#191919" stroke-width="0.35 px" style="stroke-width:0.35;stroke-miterlimit:4;stroke-dasharray:none;fill:none;fill-opacity:1;fill-rule: evenodd"/>
<path id="Shape2DView_nwe0042"  d="M -0.365 -0.1875 L -0.365 0.1875 " stroke="#191919" stroke-width="0.35 px" style="stroke-width:0.35;stroke-miterlimit:4;stroke-dasharray:none;fill:none;fill-opacity:1;fill-rule: evenodd"/>
<path id="Shape2DView_nwe0043"  d="M 0.365 -0.1875 L 0.365 0.1875 " stroke="#191919" stroke-width="0.35 px" style="stroke-width:0.35;stroke-miterlimit:4;stroke-dasharray:none;fill:none;fill-opacity:1;fill-rule: evenodd"/>
<path id="Shape2DView_nwe0044"  d="M -0.485 -0.25 L -0.485 0.25 " stroke="#191919" stroke-width="0.35 px" style="stroke-width:0.35;stroke-miterlimit:4;stroke-dasharray:none;fill:none;fill-opacity:1;fill-rule: evenodd"/>
<path id="Shape2DView_nwe0045"  d="M 0.485 -0.25 L 0.485 0.25 " stroke="#191919" stroke-width="0.35 px" style="stroke-width:0.35;stroke-miterlimit:4;stroke-dasharray:none;fill:none;fill-opacity:1;fill-rule: evenodd"/>
<title>b'Shape2DView'</title>
</g>
<g id="Rectangle" transform="translate(0.515000,1.015000) scale(1,-1)">
<rect fill="#ff0000" id="origin" width="1" height="1" x="0" y="0" />
<title>b'Rectangle'</title>
</g>
</svg>