<?xml version="1.0"?>
<!DOCTYPE svg PUBLIC "-//W3C//DTD SVG 1.1//EN" "http://www.w3.org/Graphics/SVG/1.1/DTD/svg11.dtd">
<svg width="5.1mm" height="2.6mm" viewBox="0 0 5.1 2.6" xmlns="http://www.w3.org/2000/svg" version="1.1">
<g id="Shape2DView" transform="translate(2.550000,1.300000) scale(1,-1)">
<path id="Shape2DView_nwe0000"  d="M -1.53 1.25 L -1.53 -1.25 " stroke="#191919" stroke-width="0.35 px" style="stroke-width:0.35;stroke-miterlimit:4;stroke-dasharray:none;fill:none;fill-opacity:1;fill-rule: evenodd"/>
<path id="Shape2DView_nwe0001"  d="M -1.53 -1.25 L 1.53 -1.25 " stroke="#191919" stroke-width="0.35 px" style="stroke-width:0.35;stroke-miterlimit:4;stroke-dasharray:none;fill:none;fill-opacity:1;fill-rule: evenodd"/>
<path id="Shape2DView_nwe0002"  d="M 1.53 1.25 L 1.53 -1.25 " stroke="#191919" stroke-width="0.35 px" style="stroke-width:0.35;stroke-miterlimit:4;stroke-dasharray:none;fill:none;fill-opacity:1;fill-rule: evenodd"/>
<path id="Shape2DView_nwe0003"  d="M -1.53 1.25 L 1.53 1.25 " stroke="#191919" stroke-width="0.35 px" style="stroke-width:0.35;stroke-miterlimit:4;stroke-dasharray:none;fill:none;fill-opacity:1;fill-rule: evenodd"/>
<path id="Shape2DView_nwe0004"  d="M -1.7 -1.25 L -1.7 1.25 " stroke="#191919" stroke-width="0.35 px" style="stroke-width:0.35;stroke-miterlimit:4;stroke-dasharray:none;fill:none;fill-opacity:1;fill-rule: evenodd"/>
<path id="Shape2DView_nwe0005"  d="M -1.7 -1.25 L -1.5300000000001865 -1.25 " stroke="#191919" stroke-width="0.35 px" style="stroke-width:0.35;stroke-miterlimit:4;stroke-dasharray:none;fill:none;fill-opacity:1;fill-rule: evenodd"/>
<path id="Shape2DView_nwe0006"  d="M -1.7 1.25 L -1.5300000000001865 1.25 " stroke="#191919" stroke-width="0.35 px" style="stroke-width:0.35;stroke-miterlimit:4;stroke-dasharray:none;fill:none;fill-opacity:1;fill-rule: evenodd"/>
<path id="Shape2DView_nwe0007"  d="M 1.53 -1.25 L 1.6999999999998134 -1.25 " stroke="#191919" stroke-width="0.35 px" style="stroke-width:0.35;stroke-miterlimit:4;stroke-dasharray:none;fill:none;fill-opacity:1;fill-rule: evenodd"/>
<path id="Shape2DView_nwe0008"  d="M 1.7 -1.25 L 1.7 1.25 " stroke="#191919" stroke-width="0.35 px" style="stroke-width:0.35;stroke-miterlimit:4;stroke-dasharray:none;fill:none;fill-opacity:1;fill-rule: evenodd"/>
<path id="Shape2DView_nwe0009"  d="M 1.53 1.25 L 1.6999999999998134 1.25 " stroke="#191919" stroke-width="0.35 px" style="stroke-width:0.35;stroke-miterlimit:4;stroke-dasharray:none;fill:none;fill-opacity:1;fill-rule: evenodd"/>
<path id="Shape2DView_nwe0010"  d="M -1.7 1.25 L -1.7005030232085405 1.25 L -1.702005767025454 1.25 L -1.7044893335753306 1.25 L -1.7079224905678065 1.25 L -1.7122620640617372 1.25 L -1.7174534814025577 1.25 L -1.7234314575050762 1.25 L -1.7301208158513013 1.25 L -1.737437433878773 1.25 L -1.7452893008705954 1.25 L -1.7535776750435867 1.25 L -1.762198325283495 1.25 L -1.7710428419117354 1.25 L -1.78 1.25 " stroke="#191919" stroke-width="0.35 px" style="stroke-width:0.35;stroke-miterlimit:4;stroke-dasharray:none;fill:none;fill-opacity:1;fill-rule: evenodd"/>
<path id="Shape2DView_nwe0011"  d="M -1.7 -1.25 L -1.7005030232085405 -1.25 L -1.702005767025454 -1.25 L -1.7044893335753306 -1.25 L -1.7079224905678065 -1.25 L -1.7122620640617372 -1.25 L -1.7174534814025577 -1.25 L -1.7234314575050762 -1.25 L -1.7301208158513013 -1.25 L -1.737437433878773 -1.25 L -1.7452893008705954 -1.25 L -1.7535776750435867 -1.25 L -1.762198325283495 -1.25 L -1.7710428419117354 -1.25 L -1.78 -1.25 " stroke="#191919" stroke-width="0.35 px" style="stroke-width:0.35;stroke-miterlimit:4;stroke-dasharray:none;fill:none;fill-opacity:1;fill-rule: evenodd"/>
<path id="Shape2DView_nwe0012"  d="M 1.7 -1.25 L 1.7005030232085405 -1.25 L 1.702005767025454 -1.25 L 1.7044893335753306 -1.25 L 1.7079224905678065 -1.25 L 1.7122620640617372 -1.25 L 1.7174534814025577 -1.25 L 1.7234314575050762 -1.25 L 1.7301208158513013 -1.25 L 1.737437433878773 -1.25 L 1.7452893008705954 -1.25 L 1.7535776750435867 -1.25 L 1.762198325283495 -1.25 L 1.7710428419117354 -1.25 L 1.78 -1.25 " stroke="#191919" stroke-width="0.35 px" style="stroke-width:0.35;stroke-miterlimit:4;stroke-dasharray:none;fill:none;fill-opacity:1;fill-rule: evenodd"/>
<path id="Shape2DView_nwe0013"  d="M 1.7 1.25 L 1.7005030232085405 1.25 L 1.702005767025454 1.25 L 1.7044893335753306 1.25 L 1.7079224905678065 1.25 L 1.7122620640617372 1.25 L 1.7174534814025577 1.25 L 1.7234314575050762 1.25 L 1.7301208158513013 1.25 L 1.737437433878773 1.25 L 1.7452893008705954 1.25 L 1.7535776750435867 1.25 L 1.762198325283495 1.25 L 1.7710428419117354 1.25 L 1.78 1.25 " stroke="#191919" stroke-width="0.35 px" style="stroke-width:0.35;stroke-miterlimit:4;stroke-dasharray:none;fill:none;fill-opacity:1;fill-rule: evenodd"/>
<path id="Shape2DView_nwe0014"  d="M -2.5 -1.25 L -2.4994969767914594 -1.25 L -2.4979942329745457 -1.25 L -2.495510666424669 -1.25 L -2.4920775094321934 -1.25 L -2.4877379359382625 -1.25 L -2.4825465185974425 -1.25 L -2.4765685424949235 -1.25 L -2.4698791841486987 -1.25 L -2.462562566121227 -1.25 L -2.4547106991294045 -1.25 L -2.4464223249564134 -1.25 L -2.437801674716505 -1.25 L -2.4289571580882647 -1.25 L -2.42 -1.25 " stroke="#191919" stroke-width="0.35 px" style="stroke-width:0.35;stroke-miterlimit:4;stroke-dasharray:none;fill:none;fill-opacity:1;fill-rule: evenodd"/>
<path id="Shape2DView_nwe0015"  d="M -2.42 -1.25 L -1.78 -1.25 " stroke="#191919" stroke-width="0.35 px" style="stroke-width:0.35;stroke-miterlimit:4;stroke-dasharray:none;fill:none;fill-opacity:1;fill-rule: evenodd"/>
<path id="Shape2DView_nwe0016"  d="M -2.42 1.25 L -1.78 1.25 " stroke="#191919" stroke-width="0.35 px" style="stroke-width:0.35;stroke-miterlimit:4;stroke-dasharray:none;fill:none;fill-opacity:1;fill-rule: evenodd"/>
<path id="Shape2DView_nwe0017"  d="M -2.41999999999988 -0.5814636704041894 A 0.688281 0.688281 0 0 1 -2.42 0.581464" stroke="#191919" stroke-width="0.35 px" style="stroke-width:0.35;stroke-miterlimit:4;stroke-dasharray:none;fill:none;fill-opacity:1;fill-rule: evenodd"/>
<path id="Shape2DView_nwe0018"  d="M -2.5 1.25 L -2.4994969767914594 1.25 L -2.4979942329745457 1.25 L -2.495510666424669 1.25 L -2.4920775094321934 1.25 L -2.4877379359382625 1.25 L -2.4825465185974425 1.25 L -2.4765685424949235 1.25 L -2.4698791841486987 1.25 L -2.462562566121227 1.25 L -2.4547106991294045 1.25 L -2.4464223249564134 1.25 L -2.437801674716505 1.25 L -2.4289571580882647 1.25 L -2.42 1.25 " stroke="#191919" stroke-width="0.35 px" style="stroke-width:0.35;stroke-miterlimit:4;stroke-dasharray:none;fill:none;fill-opacity:1;fill-rule: evenodd"/>
<path id="Shape2DView_nwe0019"  d="M 1.78 -1.25 L 2.42 -1.25 " stroke="#191919" stroke-width="0.35 px" style="stroke-width:0.35;stroke-miterlimit:4;stroke-dasharray:none;fill:none;fill-opacity:1;fill-rule: evenodd"/>
<path id="Shape2DView_nwe0020"  d="M 2.5 -1.25 L 2.4994969767914594 -1.25 L 2.4979942329745457 -1.25 L 2.495510666424669 -1.25 L 2.4920775094321934 -1.25 L 2.4877379359382625 -1.25 L 2.4825465185974425 -1.25 L 2.4765685424949235 -1.25 L 2.4698791841486987 -1.25 L 2.462562566121227 -1.25 L 2.4547106991294045 -1.25 L 2.4464223249564134 -1.25 L 2.437801674716505 -1.25 L 2.4289571580882647 -1.25 L 2.42 -1.25 " stroke="#191919" stroke-width="0.35 px" style="stroke-width:0.35;stroke-miterlimit:4;stroke-dasharray:none;fill:none;fill-opacity:1;fill-rule: evenodd"/>
<path id="Shape2DView_nwe0021"  d="M 1.78 1.25 L 2.42 1.25 " stroke="#191919" stroke-width="0.35 px" style="stroke-width:0.35;stroke-miterlimit:4;stroke-dasharray:none;fill:none;fill-opacity:1;fill-rule: evenodd"/>
<path id="Shape2DView_nwe0022"  d="M 2.41999999999988 0.5814636704041896 A 0.688281 0.688281 0 0 1 2.42 -0.581464" stroke="#191919" stroke-width="0.35 px" style="stroke-width:0.35;stroke-miterlimit:4;stroke-dasharray:none;fill:none;fill-opacity:1;fill-rule: evenodd"/>
<path id="Shape2DView_nwe0023"  d="M 2.5 1.25 L 2.4994969767914594 1.25 L 2.4979942329745457 1.25 L 2.495510666424669 1.25 L 2.4920775094321934 1.25 L 2.4877379359382625 1.25 L 2.4825465185974425 1.25 L 2.4765685424949235 1.25 L 2.4698791841486987 1.25 L 2.462562566121227 1.25 L 2.4547106991294045 1.25 L 2.4464223249564134 1.25 L 2.437801674716505 1.25 L 2.4289571580882647 1.25 L 2.42 1.25 " stroke="#191919" stroke-width="0.35 px" style="stroke-width:0.35;stroke-miterlimit:4;stroke-dasharray:none;fill:none;fill-opacity:1;fill-rule: evenodd"/>
<path id="Shape2DView_nwe0024"  d="M -2.5 -1.25 L -2.5 -0.625 " stroke="#191919" stroke-width="0.35 px" style="stroke-width:0.35;stroke-miterlimit:4;stroke-dasharray:none;fill:none;fill-opacity:1;fill-rule: evenodd"/>
<path id="Shape2DView_nwe0026"  d="M -2.5 -0.625 L -2.42 -0.5814636704040002 " stroke="#191919" stroke-width="0.35 px" style="stroke-width:0.35;stroke-miterlimit:4;stroke-dasharray:none;fill:none;fill-opacity:1;fill-rule: evenodd"/>
<path id="Shape2DView_nwe0027"  d="M -2.5 0.625 L -2.42 0.5814636704040002 " stroke="#191919" stroke-width="0.35 px" style="stroke-width:0.35;stroke-miterlimit:4;stroke-dasharray:none;fill:none;fill-opacity:1;fill-rule: evenodd"/>
<path id="Shape2DView_nwe0028"  d="M -2.5 0.625 L -2.5 1.25 " stroke="#191919" stroke-width="0.35 px" style="stroke-width:0.35;stroke-miterlimit:4;stroke-dasharray:none;fill:none;fill-opacity:1;fill-rule: evenodd"/>
<path id="Shape2DView_nwe0030"  d="M 2.5 -1.25 L 2.5 -0.625 " stroke="#191919" stroke-width="0.35 px" style="stroke-width:0.35;stroke-miterlimit:4;stroke-dasharray:none;fill:none;fill-opacity:1;fill-rule: evenodd"/>
<path id="Shape2DView_nwe0032"  d="M 2.5 -0.625 L 2.42 -0.5814636704040002 " stroke="#191919" stroke-width="0.35 px" style="stroke-width:0.35;stroke-miterlimit:4;stroke-dasharray:none;fill:none;fill-opacity:1;fill-rule: evenodd"/>
<path id="Shape2DView_nwe0033"  d="M 2.5 0.625 L 2.42 0.5814636704040002 " stroke="#191919" stroke-width="0.35 px" style="stroke-width:0.35;stroke-miterlimit:4;stroke-dasharray:none;fill:none;fill-opacity:1;fill-rule: evenodd"/>
<path id="Shape2DView_nwe0034"  d="M 2.5 0.625 L 2.5 1.25 " stroke="#191919" stroke-width="0.35 px" style="stroke-width:0.35;stroke-miterlimit:4;stroke-dasharray:none;fill:none;fill-opacity:1;fill-rule: evenodd"/>
<path id="Shape2DView_nwe0036"  d="M -1.78 -1.25 L -1.78 1.25 " stroke="#191919" stroke-width="0.35 px" style="stroke-width:0.35;stroke-miterlimit:4;stroke-dasharray:none;fill:none;fill-opacity:1;fill-rule: evenodd"/>
<path id="Shape2DView_nwe0037"  d="M 1.78 -1.25 L 1.78 1.25 " stroke="#191919" stroke-width="0.35 px" style="stroke-width:0.35;stroke-miterlimit:4;stroke-dasharray:none;fill:none;fill-opacity:1;fill-rule: evenodd"/>
<path id="Shape2DView_nwe0038"  d="M -2.42 0.5814636704040002 L -2.42 1.25 " stroke="#191919" stroke-width="0.35 px" style="stroke-width:0.35;stroke-miterlimit:4;stroke-dasharray:none;fill:none;fill-opacity:1;fill-rule: evenodd"/>
<path id="Shape2DView_nwe0039"  d="M -2.42 -1.25 L -2.42 -0.581463670404 " stroke="#191919" stroke-width="0.35 px" style="stroke-width:0.35;stroke-miterlimit:4;stroke-dasharray:none;fill:none;fill-opacity:1;fill-rule: evenodd"/>
<path id="Shape2DView_nwe0040"  d="M 2.42 -1.25 L 2.42 -0.581463670404 " stroke="#191919" stroke-width="0.35 px" style="stroke-width:0.35;stroke-miterlimit:4;stroke-dasharray:none;fill:none;fill-opacity:1;fill-rule: evenodd"/>
<path id="Shape2DView_nwe0041"  d="M 2.42 0.5814636704040002 L 2.42 1.25 " stroke="#191919" stroke-width="0.35 px" style="stroke-width:0.35;stroke-miterlimit:4;stroke-dasharray:none;fill:none;fill-opacity:1;fill-rule: evenodd"/>
<title>b'Shape2DView'</title>
</g>
<g id="Rectangle" transform="translate(2.550000,1.300000) scale(1,-1)">
<rect fill="#ff0000" id="origin" width="1" height="1" x="0" y="0" />
<title>b'Rectangle'</title>
</g>
</svg>