<?xml version="1.0"?>
<!DOCTYPE svg PUBLIC "-//W3C//DTD SVG 1.1//EN" "http://www.w3.org/Graphics/SVG/1.1/DTD/svg11.dtd">
<svg width="5.508mm" height="5.108000000000005mm" viewBox="0 0 5.508 5.108000000000005" xmlns="http://www.w3.org/2000/svg" version="1.1">
<g id="Shape2DView" transform="translate(2.754000,2.554000) scale(1,-1)">
<circle cx="0.0" cy="0.0" r="1.946666666667" stroke="#191919" stroke-width="0.35 px" style="stroke-width:0.35;stroke-miterlimit:4;stroke-dasharray:none;fill:none"/>
<circle cx="0.0" cy="0.0" r="1.666666666667" stroke="#191919" stroke-width="0.35 px" style="stroke-width:0.35;stroke-miterlimit:4;stroke-dasharray:none;fill:none"/>
<path id="Shape2DView_nwe0002"  d="M 2.43 2.43 L 2.437837513327232 2.437837513327232 L 2.4455764653769427 2.4455764653769427 L 2.453119534336863 2.453119534336863 L 2.4603718617382304 2.4603718617382304 L 2.467242245356075 2.467242245356075 L 2.473644286130113 2.473644286130113 L 2.4794974746830603 2.4794974746830603 L 2.484728203772764 2.484728203772764 L 2.489270693945982 2.489270693945982 L 2.4930678207531716 2.4930678207531716 L 2.4960718331215883 2.4960718331215883 L 2.4982449538527303 2.4982449538527303 L 2.4995598546925293 2.4995598546925293 L 2.5000000000000027 2.5000000000000027 " stroke="#191919" stroke-width="0.35 px" style="stroke-width:0.35;stroke-miterlimit:4;stroke-dasharray:none;fill:none;fill-opacity:1;fill-rule: evenodd"/>
<path id="Shape2DView_nwe0003"  d="M 2.5 2.5 L -1.4644660940670002 2.5 " stroke="#191919" stroke-width="0.35 px" style="stroke-width:0.35;stroke-miterlimit:4;stroke-dasharray:none;fill:none;fill-opacity:1;fill-rule: evenodd"/>
<path id="Shape2DView_nwe0004"  d="M -1.435471144701 2.43 L -1.4387175490164195 2.437837513327232 L -1.441923127913965 2.4455764653769423 L -1.4450475693790794 2.4531195343368624 L -1.4480515817474962 2.46037186173823 L -1.4508973878207136 2.4672422453560743 L -1.4535491999361858 2.4736442861301122 L -1.4559736700179438 2.4794974746830594 L -1.4581403089479987 2.4847282037727636 L -1.460021869984692 2.4892706939459814 L -1.4615946914062805 2.4930678207531707 L -1.4628389940708153 2.4960718331215874 L -1.4637391301503286 2.4982449538527294 L -1.4642837799113493 2.4995598546925284 L -1.4644660940671195 2.5000000000000018 " stroke="#191919" stroke-width="0.35 px" style="stroke-width:0.35;stroke-miterlimit:4;stroke-dasharray:none;fill:none;fill-opacity:1;fill-rule: evenodd"/>
<path id="Shape2DView_nwe0005"  d="M 2.5 -2.5 L 2.5 2.5 " stroke="#191919" stroke-width="0.35 px" style="stroke-width:0.35;stroke-miterlimit:4;stroke-dasharray:none;fill:none;fill-opacity:1;fill-rule: evenodd"/>
<path id="Shape2DView_nwe0006"  d="M 2.5000000000000027 -2.5000000000000027 L 2.4995598546925293 -2.4995598546925293 L 2.4982449538527303 -2.4982449538527303 L 2.4960718331215883 -2.4960718331215883 L 2.4930678207531716 -2.4930678207531716 L 2.489270693945982 -2.489270693945982 L 2.484728203772764 -2.484728203772764 L 2.4794974746830603 -2.4794974746830603 L 2.473644286130113 -2.473644286130113 L 2.467242245356075 -2.467242245356075 L 2.4603718617382304 -2.4603718617382304 L 2.453119534336863 -2.453119534336863 L 2.4455764653769427 -2.4455764653769427 L 2.437837513327232 -2.437837513327232 L 2.43 -2.43 " stroke="#191919" stroke-width="0.35 px" style="stroke-width:0.35;stroke-miterlimit:4;stroke-dasharray:none;fill:none;fill-opacity:1;fill-rule: evenodd"/>
<path id="Shape2DView_nwe0007"  d="M -1.464466094067 2.5 L -2.5 1.4644660940669998 " stroke="#191919" stroke-width="0.35 px" style="stroke-width:0.35;stroke-miterlimit:4;stroke-dasharray:none;fill:none;fill-opacity:1;fill-rule: evenodd"/>
<path id="Shape2DView_nwe0008"  d="M -2.5000000000000018 1.4644660940671195 L -2.4995598546925284 1.4642837799113493 L -2.4982449538527294 1.4637391301503286 L -2.4960718331215874 1.4628389940708153 L -2.4930678207531707 1.4615946914062807 L -2.4892706939459814 1.460021869984692 L -2.4847282037727636 1.4581403089479987 L -2.4794974746830594 1.4559736700179438 L -2.4736442861301122 1.4535491999361858 L -2.4672422453560747 1.4508973878207136 L -2.46037186173823 1.4480515817474962 L -2.4531195343368624 1.4450475693790794 L -2.4455764653769423 1.441923127913965 L -2.437837513327232 1.4387175490164195 L -2.43 1.435471144701 " stroke="#191919" stroke-width="0.35 px" style="stroke-width:0.35;stroke-miterlimit:4;stroke-dasharray:none;fill:none;fill-opacity:1;fill-rule: evenodd"/>
<path id="Shape2DView_nwe0009"  d="M -2.5 -2.5 L 2.5 -2.5 " stroke="#191919" stroke-width="0.35 px" style="stroke-width:0.35;stroke-miterlimit:4;stroke-dasharray:none;fill:none;fill-opacity:1;fill-rule: evenodd"/>
<path id="Shape2DView_nwe0010"  d="M -2.5000000000000027 -2.5000000000000027 L -2.4995598546925293 -2.4995598546925293 L -2.4982449538527303 -2.4982449538527303 L -2.4960718331215883 -2.4960718331215883 L -2.4930678207531716 -2.4930678207531716 L -2.489270693945982 -2.489270693945982 L -2.484728203772764 -2.484728203772764 L -2.4794974746830603 -2.4794974746830603 L -2.473644286130113 -2.473644286130113 L -2.467242245356075 -2.467242245356075 L -2.4603718617382304 -2.4603718617382304 L -2.453119534336863 -2.453119534336863 L -2.4455764653769427 -2.4455764653769427 L -2.437837513327232 -2.437837513327232 L -2.43 -2.43 " stroke="#191919" stroke-width="0.35 px" style="stroke-width:0.35;stroke-miterlimit:4;stroke-dasharray:none;fill:none;fill-opacity:1;fill-rule: evenodd"/>
<path id="Shape2DView_nwe0011"  d="M -2.5 1.464466094067 L -2.5 -2.5 " stroke="#191919" stroke-width="0.35 px" style="stroke-width:0.35;stroke-miterlimit:4;stroke-dasharray:none;fill:none;fill-opacity:1;fill-rule: evenodd"/>
<path id="Shape2DView_nwe0012"  d="M -1.464466094067 2.5 L -2.5 2.5 " stroke="#191919" stroke-width="0.35 px" style="stroke-width:0.35;stroke-miterlimit:4;stroke-dasharray:none;fill:none;fill-opacity:1;fill-rule: evenodd"/>
<path id="Shape2DView_nwe0013"  d="M -2.5 2.5 L -2.5 1.464466094067 " stroke="#191919" stroke-width="0.35 px" style="stroke-width:0.35;stroke-miterlimit:4;stroke-dasharray:none;fill:none;fill-opacity:1;fill-rule: evenodd"/>
<path id="Shape2DView_nwe0014"  d="M 2.5 -2.2 L 2.6025 -2.2 " stroke="#191919" stroke-width="0.35 px" style="stroke-width:0.35;stroke-miterlimit:4;stroke-dasharray:none;fill:none;fill-opacity:1;fill-rule: evenodd"/>
<path id="Shape2DView_nwe0015"  d="M 2.6025 -2.2 L 2.6134165364200728 -2.2 L 2.6241957910607407 -2.2 L 2.6347022085406286 -2.2 L 2.644803664563962 -2.2 L 2.6543731274602456 -2.2 L 2.6632902556812263 -2.2 L 2.6714429111656885 -2.2 L 2.678728569540633 -2.2 L 2.685055609424758 -2.2 L 2.6903444646204857 -2.2 L 2.694528624705066 -2.2 L 2.697555471437728 -2.2 L 2.699386940464591 -2.2 L 2.7 -2.2 " stroke="#191919" stroke-width="0.35 px" style="stroke-width:0.35;stroke-miterlimit:4;stroke-dasharray:none;fill:none;fill-opacity:1;fill-rule: evenodd"/>
<path id="Shape2DView_nwe0016"  d="M 2.6025 -1.2 L 2.6134165364200728 -1.2 L 2.6241957910607407 -1.2 L 2.6347022085406286 -1.2 L 2.644803664563962 -1.2 L 2.6543731274602456 -1.2 L 2.6632902556812263 -1.2 L 2.6714429111656885 -1.2 L 2.678728569540633 -1.2 L 2.685055609424758 -1.2 L 2.6903444646204857 -1.2 L 2.694528624705066 -1.2 L 2.697555471437728 -1.2 L 2.699386940464591 -1.2 L 2.7 -1.2 " stroke="#191919" stroke-width="0.35 px" style="stroke-width:0.35;stroke-miterlimit:4;stroke-dasharray:none;fill:none;fill-opacity:1;fill-rule: evenodd"/>
<path id="Shape2DView_nwe0017"  d="M 2.6025 -1.2 L 2.5 -1.2 " stroke="#191919" stroke-width="0.35 px" style="stroke-width:0.35;stroke-miterlimit:4;stroke-dasharray:none;fill:none;fill-opacity:1;fill-rule: evenodd"/>
<path id="Shape2DView_nwe0018"  d="M 2.5 -0.5 L 2.6025 -0.5 " stroke="#191919" stroke-width="0.35 px" style="stroke-width:0.35;stroke-miterlimit:4;stroke-dasharray:none;fill:none;fill-opacity:1;fill-rule: evenodd"/>
<path id="Shape2DView_nwe0019"  d="M 2.6025 -0.5 L 2.6134165364200728 -0.5 L 2.6241957910607407 -0.5 L 2.6347022085406286 -0.5 L 2.644803664563962 -0.5 L 2.6543731274602456 -0.5 L 2.6632902556812263 -0.5 L 2.6714429111656885 -0.5 L 2.678728569540633 -0.5 L 2.685055609424758 -0.5 L 2.6903444646204857 -0.5 L 2.694528624705066 -0.5 L 2.697555471437728 -0.5 L 2.699386940464591 -0.5 L 2.7 -0.5 " stroke="#191919" stroke-width="0.35 px" style="stroke-width:0.35;stroke-miterlimit:4;stroke-dasharray:none;fill:none;fill-opacity:1;fill-rule: evenodd"/>
<path id="Shape2DView_nwe0020"  d="M 2.6025 0.5 L 2.6134165364200728 0.5 L 2.6241957910607407 0.5 L 2.6347022085406286 0.5 L 2.644803664563962 0.5 L 2.6543731274602456 0.5 L 2.6632902556812263 0.5 L 2.6714429111656885 0.5 L 2.678728569540633 0.5 L 2.685055609424758 0.5 L 2.6903444646204857 0.5 L 2.694528624705066 0.5 L 2.697555471437728 0.5 L 2.699386940464591 0.5 L 2.7 0.5 " stroke="#191919" stroke-width="0.35 px" style="stroke-width:0.35;stroke-miterlimit:4;stroke-dasharray:none;fill:none;fill-opacity:1;fill-rule: evenodd"/>
<path id="Shape2DView_nwe0021"  d="M 2.6025 0.5 L 2.5 0.5 " stroke="#191919" stroke-width="0.35 px" style="stroke-width:0.35;stroke-miterlimit:4;stroke-dasharray:none;fill:none;fill-opacity:1;fill-rule: evenodd"/>
<path id="Shape2DView_nwe0022"  d="M 2.5 1.2 L 2.6025 1.2 " stroke="#191919" stroke-width="0.35 px" style="stroke-width:0.35;stroke-miterlimit:4;stroke-dasharray:none;fill:none;fill-opacity:1;fill-rule: evenodd"/>
<path id="Shape2DView_nwe0023"  d="M 2.6025 1.2 L 2.6134165364200728 1.2 L 2.6241957910607407 1.2 L 2.6347022085406286 1.2 L 2.644803664563962 1.2 L 2.6543731274602456 1.2 L 2.6632902556812263 1.2 L 2.6714429111656885 1.2 L 2.678728569540633 1.2 L 2.685055609424758 1.2 L 2.6903444646204857 1.2 L 2.694528624705066 1.2 L 2.697555471437728 1.2 L 2.699386940464591 1.2 L 2.7 1.2 " stroke="#191919" stroke-width="0.35 px" style="stroke-width:0.35;stroke-miterlimit:4;stroke-dasharray:none;fill:none;fill-opacity:1;fill-rule: evenodd"/>
<path id="Shape2DView_nwe0024"  d="M 2.6025 2.2 L 2.6134165364200728 2.2 L 2.6241957910607407 2.2 L 2.6347022085406286 2.2 L 2.644803664563962 2.2 L 2.6543731274602456 2.2 L 2.6632902556812263 2.2 L 2.6714429111656885 2.2 L 2.678728569540633 2.2 L 2.685055609424758 2.2 L 2.6903444646204857 2.2 L 2.694528624705066 2.2 L 2.697555471437728 2.2 L 2.699386940464591 2.2 L 2.7 2.2 " stroke="#191919" stroke-width="0.35 px" style="stroke-width:0.35;stroke-miterlimit:4;stroke-dasharray:none;fill:none;fill-opacity:1;fill-rule: evenodd"/>
<path id="Shape2DView_nwe0025"  d="M 2.6025 2.2 L 2.5 2.2 " stroke="#191919" stroke-width="0.35 px" style="stroke-width:0.35;stroke-miterlimit:4;stroke-dasharray:none;fill:none;fill-opacity:1;fill-rule: evenodd"/>
<path id="Shape2DView_nwe0026"  d="M -2.5 2.2 L -2.6025 2.2 " stroke="#191919" stroke-width="0.35 px" style="stroke-width:0.35;stroke-miterlimit:4;stroke-dasharray:none;fill:none;fill-opacity:1;fill-rule: evenodd"/>
<path id="Shape2DView_nwe0027"  d="M -2.7 2.2 L -2.699386940464591 2.2 L -2.697555471437728 2.2 L -2.694528624705066 2.2 L -2.6903444646204857 2.2 L -2.685055609424758 2.2 L -2.678728569540633 2.2 L -2.6714429111656885 2.2 L -2.6632902556812263 2.2 L -2.6543731274602456 2.2 L -2.644803664563962 2.2 L -2.6347022085406286 2.2 L -2.6241957910607407 2.2 L -2.6134165364200728 2.2 L -2.6025 2.2 " stroke="#191919" stroke-width="0.35 px" style="stroke-width:0.35;stroke-miterlimit:4;stroke-dasharray:none;fill:none;fill-opacity:1;fill-rule: evenodd"/>
<path id="Shape2DView_nwe0028"  d="M -2.7 1.2 L -2.699386940464591 1.2 L -2.697555471437728 1.2 L -2.694528624705066 1.2 L -2.6903444646204857 1.2 L -2.685055609424758 1.2 L -2.678728569540633 1.2 L -2.6714429111656885 1.2 L -2.6632902556812263 1.2 L -2.6543731274602456 1.2 L -2.644803664563962 1.2 L -2.6347022085406286 1.2 L -2.6241957910607407 1.2 L -2.6134165364200728 1.2 L -2.6025 1.2 " stroke="#191919" stroke-width="0.35 px" style="stroke-width:0.35;stroke-miterlimit:4;stroke-dasharray:none;fill:none;fill-opacity:1;fill-rule: evenodd"/>
<path id="Shape2DView_nwe0029"  d="M -2.6025 1.2 L -2.5 1.2 " stroke="#191919" stroke-width="0.35 px" style="stroke-width:0.35;stroke-miterlimit:4;stroke-dasharray:none;fill:none;fill-opacity:1;fill-rule: evenodd"/>
<path id="Shape2DView_nwe0030"  d="M -2.5 0.5 L -2.6025 0.5 " stroke="#191919" stroke-width="0.35 px" style="stroke-width:0.35;stroke-miterlimit:4;stroke-dasharray:none;fill:none;fill-opacity:1;fill-rule: evenodd"/>
<path id="Shape2DView_nwe0031"  d="M -2.7 0.5 L -2.699386940464591 0.5 L -2.697555471437728 0.5 L -2.694528624705066 0.5 L -2.6903444646204857 0.5 L -2.685055609424758 0.5 L -2.678728569540633 0.5 L -2.6714429111656885 0.5 L -2.6632902556812263 0.5 L -2.6543731274602456 0.5 L -2.644803664563962 0.5 L -2.6347022085406286 0.5 L -2.6241957910607407 0.5 L -2.6134165364200728 0.5 L -2.6025 0.5 " stroke="#191919" stroke-width="0.35 px" style="stroke-width:0.35;stroke-miterlimit:4;stroke-dasharray:none;fill:none;fill-opacity:1;fill-rule: evenodd"/>
<path id="Shape2DView_nwe0032"  d="M -2.7 -0.5 L -2.699386940464591 -0.5 L -2.697555471437728 -0.5 L -2.694528624705066 -0.5 L -2.6903444646204857 -0.5 L -2.685055609424758 -0.5 L -2.678728569540633 -0.5 L -2.6714429111656885 -0.5 L -2.6632902556812263 -0.5 L -2.6543731274602456 -0.5 L -2.644803664563962 -0.5 L -2.6347022085406286 -0.5 L -2.6241957910607407 -0.5 L -2.6134165364200728 -0.5 L -2.6025 -0.5 " stroke="#191919" stroke-width="0.35 px" style="stroke-width:0.35;stroke-miterlimit:4;stroke-dasharray:none;fill:none;fill-opacity:1;fill-rule: evenodd"/>
<path id="Shape2DView_nwe0033"  d="M -2.6025 -0.5 L -2.5 -0.5 " stroke="#191919" stroke-width="0.35 px" style="stroke-width:0.35;stroke-miterlimit:4;stroke-dasharray:none;fill:none;fill-opacity:1;fill-rule: evenodd"/>
<path id="Shape2DView_nwe0034"  d="M -2.5 -1.2 L -2.6025 -1.2 " stroke="#191919" stroke-width="0.35 px" style="stroke-width:0.35;stroke-miterlimit:4;stroke-dasharray:none;fill:none;fill-opacity:1;fill-rule: evenodd"/>
<path id="Shape2DView_nwe0035"  d="M -2.7 -1.2 L -2.699386940464591 -1.2 L -2.697555471437728 -1.2 L -2.694528624705066 -1.2 L -2.6903444646204857 -1.2 L -2.685055609424758 -1.2 L -2.678728569540633 -1.2 L -2.6714429111656885 -1.2 L -2.6632902556812263 -1.2 L -2.6543731274602456 -1.2 L -2.644803664563962 -1.2 L -2.6347022085406286 -1.2 L -2.6241957910607407 -1.2 L -2.6134165364200728 -1.2 L -2.6025 -1.2 " stroke="#191919" stroke-width="0.35 px" style="stroke-width:0.35;stroke-miterlimit:4;stroke-dasharray:none;fill:none;fill-opacity:1;fill-rule: evenodd"/>
<path id="Shape2DView_nwe0036"  d="M -2.7 -2.2 L -2.699386940464591 -2.2 L -2.697555471437728 -2.2 L -2.694528624705066 -2.2 L -2.6903444646204857 -2.2 L -2.685055609424758 -2.2 L -2.678728569540633 -2.2 L -2.6714429111656885 -2.2 L -2.6632902556812263 -2.2 L -2.6543731274602456 -2.2 L -2.644803664563962 -2.2 L -2.6347022085406286 -2.2 L -2.6241957910607407 -2.2 L -2.6134165364200728 -2.2 L -2.6025 -2.2 " stroke="#191919" stroke-width="0.35 px" style="stroke-width:0.35;stroke-miterlimit:4;stroke-dasharray:none;fill:none;fill-opacity:1;fill-rule: evenodd"/>
<path id="Shape2DView_nwe0037"  d="M -2.6025 -2.2 L -2.5 -2.2 " stroke="#191919" stroke-width="0.35 px" style="stroke-width:0.35;stroke-miterlimit:4;stroke-dasharray:none;fill:none;fill-opacity:1;fill-rule: evenodd"/>
<path id="Shape2DView_nwe0038"  d="M 2.7 -2.2 L 2.7 -1.2 " stroke="#191919" stroke-width="0.35 px" style="stroke-width:0.35;stroke-miterlimit:4;stroke-dasharray:none;fill:none;fill-opacity:1;fill-rule: evenodd"/>
<path id="Shape2DView_nwe0039"  d="M 2.7 -0.5 L 2.7 0.5 " stroke="#191919" stroke-width="0.35 px" style="stroke-width:0.35;stroke-miterlimit:4;stroke-dasharray:none;fill:none;fill-opacity:1;fill-rule: evenodd"/>
<path id="Shape2DView_nwe0040"  d="M 2.7 1.2 L 2.7 2.2 " stroke="#191919" stroke-width="0.35 px" style="stroke-width:0.35;stroke-miterlimit:4;stroke-dasharray:none;fill:none;fill-opacity:1;fill-rule: evenodd"/>
<path id="Shape2DView_nwe0041"  d="M -2.7 2.2 L -2.7 1.2 " stroke="#191919" stroke-width="0.35 px" style="stroke-width:0.35;stroke-miterlimit:4;stroke-dasharray:none;fill:none;fill-opacity:1;fill-rule: evenodd"/>
<path id="Shape2DView_nwe0042"  d="M -2.7 0.5 L -2.7 -0.5 " stroke="#191919" stroke-width="0.35 px" style="stroke-width:0.35;stroke-miterlimit:4;stroke-dasharray:none;fill:none;fill-opacity:1;fill-rule: evenodd"/>
<path id="Shape2DView_nwe0043"  d="M -2.7 -1.2 L -2.7 -2.2 " stroke="#191919" stroke-width="0.35 px" style="stroke-width:0.35;stroke-miterlimit:4;stroke-dasharray:none;fill:none;fill-opacity:1;fill-rule: evenodd"/>
<path id="Shape2DView_nwe0044"  d="M 2.43 2.43 L -1.4354711447010002 2.43 " stroke="#191919" stroke-width="0.35 px" style="stroke-width:0.35;stroke-miterlimit:4;stroke-dasharray:none;fill:none;fill-opacity:1;fill-rule: evenodd"/>
<path id="Shape2DView_nwe0045"  d="M -1.435471144701 2.43 L -2.43 1.4354711447009998 " stroke="#191919" stroke-width="0.35 px" style="stroke-width:0.35;stroke-miterlimit:4;stroke-dasharray:none;fill:none;fill-opacity:1;fill-rule: evenodd"/>
<path id="Shape2DView_nwe0046"  d="M -2.43 1.435471144701 L -2.43 -2.4299999999999997 " stroke="#191919" stroke-width="0.35 px" style="stroke-width:0.35;stroke-miterlimit:4;stroke-dasharray:none;fill:none;fill-opacity:1;fill-rule: evenodd"/>
<path id="Shape2DView_nwe0047"  d="M -2.43 -2.43 L 2.4299999999999997 -2.43 " stroke="#191919" stroke-width="0.35 px" style="stroke-width:0.35;stroke-miterlimit:4;stroke-dasharray:none;fill:none;fill-opacity:1;fill-rule: evenodd"/>
<path id="Shape2DView_nwe0048"  d="M 2.43 -2.43 L 2.43 2.4299999999999997 " stroke="#191919" stroke-width="0.35 px" style="stroke-width:0.35;stroke-miterlimit:4;stroke-dasharray:none;fill:none;fill-opacity:1;fill-rule: evenodd"/>
<path id="Shape2DView_nwe0049"  d="M 2.6025 -2.2 L 2.6025 -1.2 " stroke="#191919" stroke-width="0.35 px" style="stroke-width:0.35;stroke-miterlimit:4;stroke-dasharray:none;fill:none;fill-opacity:1;fill-rule: evenodd"/>
<path id="Shape2DView_nwe0050"  d="M 2.6025 -0.5 L 2.6025 0.5 " stroke="#191919" stroke-width="0.35 px" style="stroke-width:0.35;stroke-miterlimit:4;stroke-dasharray:none;fill:none;fill-opacity:1;fill-rule: evenodd"/>
<path id="Shape2DView_nwe0051"  d="M 2.6025 1.2 L 2.6025 2.2 " stroke="#191919" stroke-width="0.35 px" style="stroke-width:0.35;stroke-miterlimit:4;stroke-dasharray:none;fill:none;fill-opacity:1;fill-rule: evenodd"/>
<path id="Shape2DView_nwe0052"  d="M -2.6025 2.2 L -2.6025 1.2 " stroke="#191919" stroke-width="0.35 px" style="stroke-width:0.35;stroke-miterlimit:4;stroke-dasharray:none;fill:none;fill-opacity:1;fill-rule: evenodd"/>
<path id="Shape2DView_nwe0053"  d="M -2.6025 0.5 L -2.6025 -0.5 " stroke="#191919" stroke-width="0.35 px" style="stroke-width:0.35;stroke-miterlimit:4;stroke-dasharray:none;fill:none;fill-opacity:1;fill-rule: evenodd"/>
<path id="Shape2DView_nwe0054"  d="M -2.6025 -1.2 L -2.6025 -2.2 " stroke="#191919" stroke-width="0.35 px" style="stroke-width:0.35;stroke-miterlimit:4;stroke-dasharray:none;fill:none;fill-opacity:1;fill-rule: evenodd"/>
<path id="Shape2DView_nwe0055"  d="M 1.946666666667 0.0 L 1.666666666667 0.0 " stroke="#191919" stroke-width="0.35 px" style="stroke-width:0.35;stroke-miterlimit:4;stroke-dasharray:none;fill:none;fill-opacity:1;fill-rule: evenodd"/>
<title>b'Shape2DView'</title>
</g>
<g id="Rectangle" transform="translate(2.754000,2.554000) scale(1,-1)">
<rect fill="#ff0000" id="origin" width="1" height="1" x="0" y="0" />
<title>b'Rectangle'</title>
</g>
</svg>