<?xml version="1.0"?>
<!DOCTYPE svg PUBLIC "-//W3C//DTD SVG 1.1//EN" "http://www.w3.org/Graphics/SVG/1.1/DTD/svg11.dtd">
<svg width="2.04mm" height="1.665mm" viewBox="0 0 2.04 1.665" xmlns="http://www.w3.org/2000/svg" version="1.1">
<g id="Shape2DView" transform="translate(1.020000,1.020000) scale(1,-1)">
<path id="Shape2DView_nwe0000"  d="M -0.65 -0.625 L -0.5849999999998707 -0.625 " stroke="#191919" stroke-width="0.35 px" style="stroke-width:0.35;stroke-miterlimit:4;stroke-dasharray:none;fill:none;fill-opacity:1;fill-rule: evenodd"/>
<path id="Shape2DView_nwe0001"  d="M -0.585 -0.625 L 0.585 -0.625 " stroke="#191919" stroke-width="0.35 px" style="stroke-width:0.35;stroke-miterlimit:4;stroke-dasharray:none;fill:none;fill-opacity:1;fill-rule: evenodd"/>
<path id="Shape2DView_nwe0002"  d="M 0.585 -0.625 L 0.6500000000001294 -0.625 " stroke="#191919" stroke-width="0.35 px" style="stroke-width:0.35;stroke-miterlimit:4;stroke-dasharray:none;fill:none;fill-opacity:1;fill-rule: evenodd"/>
<path id="Shape2DView_nwe0003"  d="M -0.65 0.625 L -0.65 0.46875 " stroke="#191919" stroke-width="0.35 px" style="stroke-width:0.35;stroke-miterlimit:4;stroke-dasharray:none;fill:none;fill-opacity:1;fill-rule: evenodd"/>
<path id="Shape2DView_nwe0004"  d="M -0.65 -0.46875 L -0.65 0.46875 " stroke="#191919" stroke-width="0.35 px" style="stroke-width:0.35;stroke-miterlimit:4;stroke-dasharray:none;fill:none;fill-opacity:1;fill-rule: evenodd"/>
<path id="Shape2DView_nwe0005"  d="M -0.65 -0.46875 L -0.65 -0.625 " stroke="#191919" stroke-width="0.35 px" style="stroke-width:0.35;stroke-miterlimit:4;stroke-dasharray:none;fill:none;fill-opacity:1;fill-rule: evenodd"/>
<path id="Shape2DView_nwe0006"  d="M -0.585 0.625 L -0.585 -0.625 " stroke="#191919" stroke-width="0.35 px" style="stroke-width:0.35;stroke-miterlimit:4;stroke-dasharray:none;fill:none;fill-opacity:1;fill-rule: evenodd"/>
<path id="Shape2DView_nwe0007"  d="M -0.65 0.625 L -0.5849999999998707 0.625 " stroke="#191919" stroke-width="0.35 px" style="stroke-width:0.35;stroke-miterlimit:4;stroke-dasharray:none;fill:none;fill-opacity:1;fill-rule: evenodd"/>
<path id="Shape2DView_nwe0008"  d="M -0.9125 -0.625 L -0.65 -0.625 " stroke="#191919" stroke-width="0.35 px" style="stroke-width:0.35;stroke-miterlimit:4;stroke-dasharray:none;fill:none;fill-opacity:1;fill-rule: evenodd"/>
<path id="Shape2DView_nwe0009"  d="M 0.65 -0.625 L 0.9125 -0.625 " stroke="#191919" stroke-width="0.35 px" style="stroke-width:0.35;stroke-miterlimit:4;stroke-dasharray:none;fill:none;fill-opacity:1;fill-rule: evenodd"/>
<path id="Shape2DView_nwe0010"  d="M 0.585 0.625 L 0.585 -0.625 " stroke="#191919" stroke-width="0.35 px" style="stroke-width:0.35;stroke-miterlimit:4;stroke-dasharray:none;fill:none;fill-opacity:1;fill-rule: evenodd"/>
<path id="Shape2DView_nwe0011"  d="M -0.585 0.625 L 0.585 0.625 " stroke="#191919" stroke-width="0.35 px" style="stroke-width:0.35;stroke-miterlimit:4;stroke-dasharray:none;fill:none;fill-opacity:1;fill-rule: evenodd"/>
<path id="Shape2DView_nwe0012"  d="M 0.65 -0.46875 L 0.65 -0.625 " stroke="#191919" stroke-width="0.35 px" style="stroke-width:0.35;stroke-miterlimit:4;stroke-dasharray:none;fill:none;fill-opacity:1;fill-rule: evenodd"/>
<path id="Shape2DView_nwe0013"  d="M 0.65 0.46875 L 0.65 -0.46875 " stroke="#191919" stroke-width="0.35 px" style="stroke-width:0.35;stroke-miterlimit:4;stroke-dasharray:none;fill:none;fill-opacity:1;fill-rule: evenodd"/>
<path id="Shape2DView_nwe0014"  d="M 0.65 0.625 L 0.65 0.46875 " stroke="#191919" stroke-width="0.35 px" style="stroke-width:0.35;stroke-miterlimit:4;stroke-dasharray:none;fill:none;fill-opacity:1;fill-rule: evenodd"/>
<path id="Shape2DView_nwe0015"  d="M 0.585 0.625 L 0.6500000000001294 0.625 " stroke="#191919" stroke-width="0.35 px" style="stroke-width:0.35;stroke-miterlimit:4;stroke-dasharray:none;fill:none;fill-opacity:1;fill-rule: evenodd"/>
<path id="Shape2DView_nwe0016"  d="M -0.9125 0.625 L -0.65 0.625 " stroke="#191919" stroke-width="0.35 px" style="stroke-width:0.35;stroke-miterlimit:4;stroke-dasharray:none;fill:none;fill-opacity:1;fill-rule: evenodd"/>
<path id="Shape2DView_nwe0017"  d="M -0.685 0.46875 L -0.6810812433363843 0.46875 L -0.6772117673115291 0.46875 L -0.6734402328315692 0.46875 L -0.6698140691308855 0.46875 L -0.6663788773219633 0.46875 L -0.6631778569349444 0.46875 L -0.6602512626584709 0.46875 L -0.657635898113619 0.46875 L -0.6553646530270101 0.46875 L -0.6534660896234153 0.46875 L -0.6519640834392072 0.46875 L -0.6508775230736362 0.46875 L -0.6502200726537366 0.46875 L -0.65 0.46875 " stroke="#191919" stroke-width="0.35 px" style="stroke-width:0.35;stroke-miterlimit:4;stroke-dasharray:none;fill:none;fill-opacity:1;fill-rule: evenodd"/>
<path id="Shape2DView_nwe0018"  d="M -0.685 -0.46875 L -0.6810812433363843 -0.46875 L -0.6772117673115291 -0.46875 L -0.6734402328315692 -0.46875 L -0.6698140691308855 -0.46875 L -0.6663788773219633 -0.46875 L -0.6631778569349444 -0.46875 L -0.6602512626584709 -0.46875 L -0.657635898113619 -0.46875 L -0.6553646530270101 -0.46875 L -0.6534660896234153 -0.46875 L -0.6519640834392072 -0.46875 L -0.6508775230736362 -0.46875 L -0.6502200726537366 -0.46875 L -0.65 -0.46875 " stroke="#191919" stroke-width="0.35 px" style="stroke-width:0.35;stroke-miterlimit:4;stroke-dasharray:none;fill:none;fill-opacity:1;fill-rule: evenodd"/>
<path id="Shape2DView_nwe0019"  d="M -1.0 -0.625 L -0.9997799273462634 -0.625 L -0.9991224769263638 -0.625 L -0.9980359165607928 -0.625 L -0.9965339103765847 -0.625 L -0.9946353469729899 -0.625 L -0.992364101886381 -0.625 L -0.9897487373415291 -0.625 L -0.9868221430650557 -0.625 L -0.9836211226780368 -0.625 L -0.9801859308691145 -0.625 L -0.9765597671684308 -0.625 L -0.972788232688471 -0.625 L -0.9689187566636157 -0.625 L -0.965 -0.625 " stroke="#191919" stroke-width="0.35 px" style="stroke-width:0.35;stroke-miterlimit:4;stroke-dasharray:none;fill:none;fill-opacity:1;fill-rule: evenodd"/>
<path id="Shape2DView_nwe0020"  d="M -0.965 -0.625 L -0.9125 -0.625 " stroke="#191919" stroke-width="0.35 px" style="stroke-width:0.35;stroke-miterlimit:4;stroke-dasharray:none;fill:none;fill-opacity:1;fill-rule: evenodd"/>
<path id="Shape2DView_nwe0021"  d="M 0.9125 -0.625 L 0.965 -0.625 " stroke="#191919" stroke-width="0.35 px" style="stroke-width:0.35;stroke-miterlimit:4;stroke-dasharray:none;fill:none;fill-opacity:1;fill-rule: evenodd"/>
<path id="Shape2DView_nwe0022"  d="M 1.0 -0.625 L 0.9997799273462634 -0.625 L 0.9991224769263638 -0.625 L 0.9980359165607928 -0.625 L 0.9965339103765847 -0.625 L 0.9946353469729899 -0.625 L 0.992364101886381 -0.625 L 0.9897487373415291 -0.625 L 0.9868221430650557 -0.625 L 0.9836211226780368 -0.625 L 0.9801859308691145 -0.625 L 0.9765597671684308 -0.625 L 0.972788232688471 -0.625 L 0.9689187566636157 -0.625 L 0.965 -0.625 " stroke="#191919" stroke-width="0.35 px" style="stroke-width:0.35;stroke-miterlimit:4;stroke-dasharray:none;fill:none;fill-opacity:1;fill-rule: evenodd"/>
<path id="Shape2DView_nwe0023"  d="M 0.65 0.625 L 0.9125 0.625 " stroke="#191919" stroke-width="0.35 px" style="stroke-width:0.35;stroke-miterlimit:4;stroke-dasharray:none;fill:none;fill-opacity:1;fill-rule: evenodd"/>
<path id="Shape2DView_nwe0024"  d="M 0.65 -0.46875 L 0.6502200726537366 -0.46875 L 0.6508775230736362 -0.46875 L 0.6519640834392072 -0.46875 L 0.6534660896234153 -0.46875 L 0.6553646530270101 -0.46875 L 0.657635898113619 -0.46875 L 0.6602512626584709 -0.46875 L 0.6631778569349444 -0.46875 L 0.6663788773219632 -0.46875 L 0.6698140691308855 -0.46875 L 0.6734402328315692 -0.46875 L 0.6772117673115291 -0.46875 L 0.6810812433363843 -0.46875 L 0.685 -0.46875 " stroke="#191919" stroke-width="0.35 px" style="stroke-width:0.35;stroke-miterlimit:4;stroke-dasharray:none;fill:none;fill-opacity:1;fill-rule: evenodd"/>
<path id="Shape2DView_nwe0025"  d="M 0.65 0.46875 L 0.6502200726537366 0.46875 L 0.6508775230736362 0.46875 L 0.6519640834392072 0.46875 L 0.6534660896234153 0.46875 L 0.6553646530270101 0.46875 L 0.657635898113619 0.46875 L 0.6602512626584709 0.46875 L 0.6631778569349444 0.46875 L 0.6663788773219632 0.46875 L 0.6698140691308855 0.46875 L 0.6734402328315692 0.46875 L 0.6772117673115291 0.46875 L 0.6810812433363843 0.46875 L 0.685 0.46875 " stroke="#191919" stroke-width="0.35 px" style="stroke-width:0.35;stroke-miterlimit:4;stroke-dasharray:none;fill:none;fill-opacity:1;fill-rule: evenodd"/>
<path id="Shape2DView_nwe0026"  d="M -0.9125 0.46875 L -0.685 0.46875 " stroke="#191919" stroke-width="0.35 px" style="stroke-width:0.35;stroke-miterlimit:4;stroke-dasharray:none;fill:none;fill-opacity:1;fill-rule: evenodd"/>
<path id="Shape2DView_nwe0027"  d="M -0.9125 0.625 L -0.9125 0.46875 " stroke="#191919" stroke-width="0.35 px" style="stroke-width:0.35;stroke-miterlimit:4;stroke-dasharray:none;fill:none;fill-opacity:1;fill-rule: evenodd"/>
<path id="Shape2DView_nwe0028"  d="M -0.685 -0.46875 L -0.9125 -0.46875 " stroke="#191919" stroke-width="0.35 px" style="stroke-width:0.35;stroke-miterlimit:4;stroke-dasharray:none;fill:none;fill-opacity:1;fill-rule: evenodd"/>
<path id="Shape2DView_nwe0029"  d="M -0.965 0.625 L -0.9125 0.625 " stroke="#191919" stroke-width="0.35 px" style="stroke-width:0.35;stroke-miterlimit:4;stroke-dasharray:none;fill:none;fill-opacity:1;fill-rule: evenodd"/>
<path id="Shape2DView_nwe0030"  d="M -0.9125 -0.46875 L -0.9125 -0.625 " stroke="#191919" stroke-width="0.35 px" style="stroke-width:0.35;stroke-miterlimit:4;stroke-dasharray:none;fill:none;fill-opacity:1;fill-rule: evenodd"/>
<path id="Shape2DView_nwe0031"  d="M -1.0 -0.625 L -1.0 0.625 " stroke="#191919" stroke-width="0.35 px" style="stroke-width:0.35;stroke-miterlimit:4;stroke-dasharray:none;fill:none;fill-opacity:1;fill-rule: evenodd"/>
<path id="Shape2DView_nwe0033"  d="M -1.0 0.625 L -0.9997799273462634 0.625 L -0.9991224769263638 0.625 L -0.9980359165607928 0.625 L -0.9965339103765847 0.625 L -0.9946353469729899 0.625 L -0.992364101886381 0.625 L -0.9897487373415291 0.625 L -0.9868221430650557 0.625 L -0.9836211226780368 0.625 L -0.9801859308691145 0.625 L -0.9765597671684308 0.625 L -0.972788232688471 0.625 L -0.9689187566636157 0.625 L -0.965 0.625 " stroke="#191919" stroke-width="0.35 px" style="stroke-width:0.35;stroke-miterlimit:4;stroke-dasharray:none;fill:none;fill-opacity:1;fill-rule: evenodd"/>
<path id="Shape2DView_nwe0034"  d="M 1.0 -0.625 L 1.0 0.625 " stroke="#191919" stroke-width="0.35 px" style="stroke-width:0.35;stroke-miterlimit:4;stroke-dasharray:none;fill:none;fill-opacity:1;fill-rule: evenodd"/>
<path id="Shape2DView_nwe0036"  d="M 1.0 0.625 L 0.9997799273462634 0.625 L 0.9991224769263638 0.625 L 0.9980359165607928 0.625 L 0.9965339103765847 0.625 L 0.9946353469729899 0.625 L 0.992364101886381 0.625 L 0.9897487373415291 0.625 L 0.9868221430650557 0.625 L 0.9836211226780368 0.625 L 0.9801859308691145 0.625 L 0.9765597671684308 0.625 L 0.972788232688471 0.625 L 0.9689187566636157 0.625 L 0.965 0.625 " stroke="#191919" stroke-width="0.35 px" style="stroke-width:0.35;stroke-miterlimit:4;stroke-dasharray:none;fill:none;fill-opacity:1;fill-rule: evenodd"/>
<path id="Shape2DView_nwe0037"  d="M 0.9125 0.625 L 0.965 0.625 " stroke="#191919" stroke-width="0.35 px" style="stroke-width:0.35;stroke-miterlimit:4;stroke-dasharray:none;fill:none;fill-opacity:1;fill-rule: evenodd"/>
<path id="Shape2DView_nwe0038"  d="M 0.9125 0.46875 L 0.9125 0.625 " stroke="#191919" stroke-width="0.35 px" style="stroke-width:0.35;stroke-miterlimit:4;stroke-dasharray:none;fill:none;fill-opacity:1;fill-rule: evenodd"/>
<path id="Shape2DView_nwe0039"  d="M 0.685 0.46875 L 0.9125 0.46875 " stroke="#191919" stroke-width="0.35 px" style="stroke-width:0.35;stroke-miterlimit:4;stroke-dasharray:none;fill:none;fill-opacity:1;fill-rule: evenodd"/>
<path id="Shape2DView_nwe0040"  d="M 0.9125 -0.46875 L 0.685 -0.46875 " stroke="#191919" stroke-width="0.35 px" style="stroke-width:0.35;stroke-miterlimit:4;stroke-dasharray:none;fill:none;fill-opacity:1;fill-rule: evenodd"/>
<path id="Shape2DView_nwe0041"  d="M 0.9125 -0.625 L 0.9125 -0.46875 " stroke="#191919" stroke-width="0.35 px" style="stroke-width:0.35;stroke-miterlimit:4;stroke-dasharray:none;fill:none;fill-opacity:1;fill-rule: evenodd"/>
<path id="Shape2DView_nwe0042"  d="M -0.685 -0.46875 L -0.685 0.46875 " stroke="#191919" stroke-width="0.35 px" style="stroke-width:0.35;stroke-miterlimit:4;stroke-dasharray:none;fill:none;fill-opacity:1;fill-rule: evenodd"/>
<path id="Shape2DView_nwe0043"  d="M 0.685 -0.46875 L 0.685 0.46875 " stroke="#191919" stroke-width="0.35 px" style="stroke-width:0.35;stroke-miterlimit:4;stroke-dasharray:none;fill:none;fill-opacity:1;fill-rule: evenodd"/>
<path id="Shape2DView_nwe0044"  d="M -0.965 -0.625 L -0.965 0.625 " stroke="#191919" stroke-width="0.35 px" style="stroke-width:0.35;stroke-miterlimit:4;stroke-dasharray:none;fill:none;fill-opacity:1;fill-rule: evenodd"/>
<path id="Shape2DView_nwe0045"  d="M 0.965 -0.625 L 0.965 0.625 " stroke="#191919" stroke-width="0.35 px" style="stroke-width:0.35;stroke-miterlimit:4;stroke-dasharray:none;fill:none;fill-opacity:1;fill-rule: evenodd"/>
<title>b'Shape2DView'</title>
</g>
<g id="Rectangle" transform="translate(1.020000,1.020000) scale(1,-1)">
<rect fill="#ff0000" id="origin" width="1" height="1" x="0" y="0" />
<title>b'Rectangle'</title>
</g>
</svg>