<?xml version="1.0"?>
<!DOCTYPE svg PUBLIC "-//W3C//DTD SVG 1.1//EN" "http://www.w3.org/Graphics/SVG/1.1/DTD/svg11.dtd">
<svg width="3.2640000000000002mm" height="1.864mm" viewBox="0 0 3.2640000000000002 1.864" xmlns="http://www.w3.org/2000/svg" version="1.1">
<g id="Shape2DView" transform="translate(1.632000,1.032000) scale(1,-1)">
<path id="Shape2DView_nwe0000"  d="M -0.9 0.8 L -0.9 -0.8 " stroke="#191919" stroke-width="0.35 px" style="stroke-width:0.35;stroke-miterlimit:4;stroke-dasharray:none;fill:none;fill-opacity:1;fill-rule: evenodd"/>
<path id="Shape2DView_nwe0001"  d="M -0.9 -0.8 L 0.9 -0.8 " stroke="#191919" stroke-width="0.35 px" style="stroke-width:0.35;stroke-miterlimit:4;stroke-dasharray:none;fill:none;fill-opacity:1;fill-rule: evenodd"/>
<path id="Shape2DView_nwe0002"  d="M 0.9 0.8 L 0.9 -0.8 " stroke="#191919" stroke-width="0.35 px" style="stroke-width:0.35;stroke-miterlimit:4;stroke-dasharray:none;fill:none;fill-opacity:1;fill-rule: evenodd"/>
<path id="Shape2DView_nwe0003"  d="M -0.9 0.8 L 0.9 0.8 " stroke="#191919" stroke-width="0.35 px" style="stroke-width:0.35;stroke-miterlimit:4;stroke-dasharray:none;fill:none;fill-opacity:1;fill-rule: evenodd"/>
<path id="Shape2DView_nwe0004"  d="M -1.0 0.8 L -1.0 -0.8 " stroke="#191919" stroke-width="0.35 px" style="stroke-width:0.35;stroke-miterlimit:4;stroke-dasharray:none;fill:none;fill-opacity:1;fill-rule: evenodd"/>
<path id="Shape2DView_nwe0005"  d="M -1.0 -0.8 L -0.9000000000000198 -0.8 " stroke="#191919" stroke-width="0.35 px" style="stroke-width:0.35;stroke-miterlimit:4;stroke-dasharray:none;fill:none;fill-opacity:1;fill-rule: evenodd"/>
<path id="Shape2DView_nwe0006"  d="M -1.0 0.8 L -0.9000000000000198 0.8 " stroke="#191919" stroke-width="0.35 px" style="stroke-width:0.35;stroke-miterlimit:4;stroke-dasharray:none;fill:none;fill-opacity:1;fill-rule: evenodd"/>
<path id="Shape2DView_nwe0007"  d="M 0.9 -0.8 L 0.9999999999999802 -0.8 " stroke="#191919" stroke-width="0.35 px" style="stroke-width:0.35;stroke-miterlimit:4;stroke-dasharray:none;fill:none;fill-opacity:1;fill-rule: evenodd"/>
<path id="Shape2DView_nwe0008"  d="M 1.0 0.8 L 1.0 -0.8 " stroke="#191919" stroke-width="0.35 px" style="stroke-width:0.35;stroke-miterlimit:4;stroke-dasharray:none;fill:none;fill-opacity:1;fill-rule: evenodd"/>
<path id="Shape2DView_nwe0009"  d="M 0.9 0.8 L 0.9999999999999802 0.8 " stroke="#191919" stroke-width="0.35 px" style="stroke-width:0.35;stroke-miterlimit:4;stroke-dasharray:none;fill:none;fill-opacity:1;fill-rule: evenodd"/>
<path id="Shape2DView_nwe0010"  d="M -1.0 0.8 L -1.0003772674064055 0.8 L -1.0015043252690907 0.8 L -1.003367000181498 0.8 L -1.005941867925855 0.8 L -1.009196548046303 0.8 L -1.0130901110519184 0.8 L -1.0175735931288072 0.8 L -1.022590611888476 0.8 L -1.02807807540908 0.8 L -1.0339669756529466 0.8 L -1.04018325628269 0.8 L -1.046648743962621 0.8 L -1.0532821314338017 0.8 L -1.06 0.8 " stroke="#191919" stroke-width="0.35 px" style="stroke-width:0.35;stroke-miterlimit:4;stroke-dasharray:none;fill:none;fill-opacity:1;fill-rule: evenodd"/>
<path id="Shape2DView_nwe0011"  d="M -1.0 -0.8 L -1.0003772674064055 -0.8 L -1.0015043252690907 -0.8 L -1.003367000181498 -0.8 L -1.005941867925855 -0.8 L -1.009196548046303 -0.8 L -1.0130901110519184 -0.8 L -1.0175735931288072 -0.8 L -1.022590611888476 -0.8 L -1.02807807540908 -0.8 L -1.0339669756529466 -0.8 L -1.04018325628269 -0.8 L -1.046648743962621 -0.8 L -1.0532821314338017 -0.8 L -1.06 -0.8 " stroke="#191919" stroke-width="0.35 px" style="stroke-width:0.35;stroke-miterlimit:4;stroke-dasharray:none;fill:none;fill-opacity:1;fill-rule: evenodd"/>
<path id="Shape2DView_nwe0012"  d="M 1.0 -0.8 L 1.0003772674064055 -0.8 L 1.0015043252690907 -0.8 L 1.003367000181498 -0.8 L 1.005941867925855 -0.8 L 1.009196548046303 -0.8 L 1.0130901110519184 -0.8 L 1.0175735931288072 -0.8 L 1.022590611888476 -0.8 L 1.02807807540908 -0.8 L 1.0339669756529466 -0.8 L 1.04018325628269 -0.8 L 1.046648743962621 -0.8 L 1.0532821314338017 -0.8 L 1.06 -0.8 " stroke="#191919" stroke-width="0.35 px" style="stroke-width:0.35;stroke-miterlimit:4;stroke-dasharray:none;fill:none;fill-opacity:1;fill-rule: evenodd"/>
<path id="Shape2DView_nwe0013"  d="M 1.0 0.8 L 1.0003772674064055 0.8 L 1.0015043252690907 0.8 L 1.003367000181498 0.8 L 1.005941867925855 0.8 L 1.009196548046303 0.8 L 1.0130901110519184 0.8 L 1.0175735931288072 0.8 L 1.022590611888476 0.8 L 1.02807807540908 0.8 L 1.0339669756529466 0.8 L 1.04018325628269 0.8 L 1.046648743962621 0.8 L 1.0532821314338017 0.8 L 1.06 0.8 " stroke="#191919" stroke-width="0.35 px" style="stroke-width:0.35;stroke-miterlimit:4;stroke-dasharray:none;fill:none;fill-opacity:1;fill-rule: evenodd"/>
<path id="Shape2DView_nwe0014"  d="M -1.6 -0.8 L -1.5996227325935946 -0.8 L -1.5984956747309094 -0.8 L -1.596632999818502 -0.8 L -1.5940581320741452 -0.8 L -1.590803451953697 -0.8 L -1.5869098889480817 -0.8 L -1.5824264068711928 -0.8 L -1.577409388111524 -0.8 L -1.5719219245909202 -0.8 L -1.5660330243470535 -0.8 L -1.55981674371731 -0.8 L -1.553351256037379 -0.8 L -1.5467178685661984 -0.8 L -1.54 -0.8 " stroke="#191919" stroke-width="0.35 px" style="stroke-width:0.35;stroke-miterlimit:4;stroke-dasharray:none;fill:none;fill-opacity:1;fill-rule: evenodd"/>
<path id="Shape2DView_nwe0015"  d="M -1.54 -0.8 L -1.06 -0.8 " stroke="#191919" stroke-width="0.35 px" style="stroke-width:0.35;stroke-miterlimit:4;stroke-dasharray:none;fill:none;fill-opacity:1;fill-rule: evenodd"/>
<path id="Shape2DView_nwe0016"  d="M -1.54 0.8 L -1.06 0.8 " stroke="#191919" stroke-width="0.35 px" style="stroke-width:0.35;stroke-miterlimit:4;stroke-dasharray:none;fill:none;fill-opacity:1;fill-rule: evenodd"/>
<path id="Shape2DView_nwe0017"  d="M -1.5399999999998173 -0.37735924528239045 A 0.416667 0.416667 0 0 1 -1.54 0.377359" stroke="#191919" stroke-width="0.35 px" style="stroke-width:0.35;stroke-miterlimit:4;stroke-dasharray:none;fill:none;fill-opacity:1;fill-rule: evenodd"/>
<path id="Shape2DView_nwe0018"  d="M -1.6 0.8 L -1.5996227325935946 0.8 L -1.5984956747309094 0.8 L -1.596632999818502 0.8 L -1.5940581320741452 0.8 L -1.590803451953697 0.8 L -1.5869098889480817 0.8 L -1.5824264068711928 0.8 L -1.577409388111524 0.8 L -1.5719219245909202 0.8 L -1.5660330243470535 0.8 L -1.55981674371731 0.8 L -1.553351256037379 0.8 L -1.5467178685661984 0.8 L -1.54 0.8 " stroke="#191919" stroke-width="0.35 px" style="stroke-width:0.35;stroke-miterlimit:4;stroke-dasharray:none;fill:none;fill-opacity:1;fill-rule: evenodd"/>
<path id="Shape2DView_nwe0019"  d="M 1.06 -0.8 L 1.54 -0.8 " stroke="#191919" stroke-width="0.35 px" style="stroke-width:0.35;stroke-miterlimit:4;stroke-dasharray:none;fill:none;fill-opacity:1;fill-rule: evenodd"/>
<path id="Shape2DView_nwe0020"  d="M 1.6 -0.8 L 1.5996227325935946 -0.8 L 1.5984956747309094 -0.8 L 1.596632999818502 -0.8 L 1.5940581320741452 -0.8 L 1.590803451953697 -0.8 L 1.5869098889480817 -0.8 L 1.5824264068711928 -0.8 L 1.577409388111524 -0.8 L 1.5719219245909202 -0.8 L 1.5660330243470535 -0.8 L 1.55981674371731 -0.8 L 1.553351256037379 -0.8 L 1.5467178685661984 -0.8 L 1.54 -0.8 " stroke="#191919" stroke-width="0.35 px" style="stroke-width:0.35;stroke-miterlimit:4;stroke-dasharray:none;fill:none;fill-opacity:1;fill-rule: evenodd"/>
<path id="Shape2DView_nwe0021"  d="M 1.06 0.8 L 1.54 0.8 " stroke="#191919" stroke-width="0.35 px" style="stroke-width:0.35;stroke-miterlimit:4;stroke-dasharray:none;fill:none;fill-opacity:1;fill-rule: evenodd"/>
<path id="Shape2DView_nwe0022"  d="M 1.5399999999998173 0.3773592452823905 A 0.416667 0.416667 0 0 1 1.54 -0.377359" stroke="#191919" stroke-width="0.35 px" style="stroke-width:0.35;stroke-miterlimit:4;stroke-dasharray:none;fill:none;fill-opacity:1;fill-rule: evenodd"/>
<path id="Shape2DView_nwe0023"  d="M 1.6 0.8 L 1.5996227325935946 0.8 L 1.5984956747309094 0.8 L 1.596632999818502 0.8 L 1.5940581320741452 0.8 L 1.590803451953697 0.8 L 1.5869098889480817 0.8 L 1.5824264068711928 0.8 L 1.577409388111524 0.8 L 1.5719219245909202 0.8 L 1.5660330243470535 0.8 L 1.55981674371731 0.8 L 1.553351256037379 0.8 L 1.5467178685661984 0.8 L 1.54 0.8 " stroke="#191919" stroke-width="0.35 px" style="stroke-width:0.35;stroke-miterlimit:4;stroke-dasharray:none;fill:none;fill-opacity:1;fill-rule: evenodd"/>
<path id="Shape2DView_nwe0024"  d="M -1.6 -0.8 L -1.6 -0.4 " stroke="#191919" stroke-width="0.35 px" style="stroke-width:0.35;stroke-miterlimit:4;stroke-dasharray:none;fill:none;fill-opacity:1;fill-rule: evenodd"/>
<path id="Shape2DView_nwe0025"  d="M -1.6 -0.4 L -1.54 -0.37735924528199993 " stroke="#191919" stroke-width="0.35 px" style="stroke-width:0.35;stroke-miterlimit:4;stroke-dasharray:none;fill:none;fill-opacity:1;fill-rule: evenodd"/>
<path id="Shape2DView_nwe0026"  d="M -1.6 0.4 L -1.54 0.37735924528199993 " stroke="#191919" stroke-width="0.35 px" style="stroke-width:0.35;stroke-miterlimit:4;stroke-dasharray:none;fill:none;fill-opacity:1;fill-rule: evenodd"/>
<path id="Shape2DView_nwe0027"  d="M -1.6 0.40000000000000013 L -1.6 0.8 " stroke="#191919" stroke-width="0.35 px" style="stroke-width:0.35;stroke-miterlimit:4;stroke-dasharray:none;fill:none;fill-opacity:1;fill-rule: evenodd"/>
<path id="Shape2DView_nwe0028"  d="M 1.6 -0.8 L 1.6 -0.4 " stroke="#191919" stroke-width="0.35 px" style="stroke-width:0.35;stroke-miterlimit:4;stroke-dasharray:none;fill:none;fill-opacity:1;fill-rule: evenodd"/>
<path id="Shape2DView_nwe0029"  d="M 1.6 -0.4 L 1.54 -0.37735924528199993 " stroke="#191919" stroke-width="0.35 px" style="stroke-width:0.35;stroke-miterlimit:4;stroke-dasharray:none;fill:none;fill-opacity:1;fill-rule: evenodd"/>
<path id="Shape2DView_nwe0030"  d="M 1.6 0.4 L 1.54 0.37735924528199993 " stroke="#191919" stroke-width="0.35 px" style="stroke-width:0.35;stroke-miterlimit:4;stroke-dasharray:none;fill:none;fill-opacity:1;fill-rule: evenodd"/>
<path id="Shape2DView_nwe0031"  d="M 1.6 0.40000000000000013 L 1.6 0.8 " stroke="#191919" stroke-width="0.35 px" style="stroke-width:0.35;stroke-miterlimit:4;stroke-dasharray:none;fill:none;fill-opacity:1;fill-rule: evenodd"/>
<path id="Shape2DView_nwe0032"  d="M -1.06 -0.8 L -1.06 0.8 " stroke="#191919" stroke-width="0.35 px" style="stroke-width:0.35;stroke-miterlimit:4;stroke-dasharray:none;fill:none;fill-opacity:1;fill-rule: evenodd"/>
<path id="Shape2DView_nwe0033"  d="M 1.06 -0.8 L 1.06 0.8 " stroke="#191919" stroke-width="0.35 px" style="stroke-width:0.35;stroke-miterlimit:4;stroke-dasharray:none;fill:none;fill-opacity:1;fill-rule: evenodd"/>
<path id="Shape2DView_nwe0034"  d="M -1.54 0.37735924528200004 L -1.54 0.8 " stroke="#191919" stroke-width="0.35 px" style="stroke-width:0.35;stroke-miterlimit:4;stroke-dasharray:none;fill:none;fill-opacity:1;fill-rule: evenodd"/>
<path id="Shape2DView_nwe0035"  d="M -1.54 -0.8 L -1.54 -0.377359245282 " stroke="#191919" stroke-width="0.35 px" style="stroke-width:0.35;stroke-miterlimit:4;stroke-dasharray:none;fill:none;fill-opacity:1;fill-rule: evenodd"/>
<path id="Shape2DView_nwe0036"  d="M 1.54 -0.8 L 1.54 -0.377359245282 " stroke="#191919" stroke-width="0.35 px" style="stroke-width:0.35;stroke-miterlimit:4;stroke-dasharray:none;fill:none;fill-opacity:1;fill-rule: evenodd"/>
<path id="Shape2DView_nwe0037"  d="M 1.54 0.37735924528200004 L 1.54 0.8 " stroke="#191919" stroke-width="0.35 px" style="stroke-width:0.35;stroke-miterlimit:4;stroke-dasharray:none;fill:none;fill-opacity:1;fill-rule: evenodd"/>
<title>b'Shape2DView'</title>
</g>
<g id="Rectangle" transform="translate(1.632000,1.032000) scale(1,-1)">
<rect fill="#ff0000" id="origin" width="1" height="1" x="0" y="0" />
<title>b'Rectangle'</title>
</g>
</svg>