<?xml version="1.0"?>
<!DOCTYPE svg PUBLIC "-//W3C//DTD SVG 1.1//EN" "http://www.w3.org/Graphics/SVG/1.1/DTD/svg11.dtd">
<svg width="3.2640000000000002mm" height="2.564mm" viewBox="0 0 3.2640000000000002 2.564" xmlns="http://www.w3.org/2000/svg" version="1.1">
<g id="Shape2DView" transform="translate(1.632000,1.282000) scale(1,-1)">
<path id="Shape2DView_nwe0000"  d="M -0.9 1.25 L -0.9 -1.25 " stroke="#191919" stroke-width="0.35 px" style="stroke-width:0.35;stroke-miterlimit:4;stroke-dasharray:none;fill:none;fill-opacity:1;fill-rule: evenodd"/>
<path id="Shape2DView_nwe0001"  d="M -0.9 -1.25 L 0.9 -1.25 " stroke="#191919" stroke-width="0.35 px" style="stroke-width:0.35;stroke-miterlimit:4;stroke-dasharray:none;fill:none;fill-opacity:1;fill-rule: evenodd"/>
<path id="Shape2DView_nwe0002"  d="M 0.9 1.25 L 0.9 -1.25 " stroke="#191919" stroke-width="0.35 px" style="stroke-width:0.35;stroke-miterlimit:4;stroke-dasharray:none;fill:none;fill-opacity:1;fill-rule: evenodd"/>
<path id="Shape2DView_nwe0003"  d="M -0.9 1.25 L 0.9 1.25 " stroke="#191919" stroke-width="0.35 px" style="stroke-width:0.35;stroke-miterlimit:4;stroke-dasharray:none;fill:none;fill-opacity:1;fill-rule: evenodd"/>
<path id="Shape2DView_nwe0004"  d="M -1.0 1.25 L -1.0 -1.25 " stroke="#191919" stroke-width="0.35 px" style="stroke-width:0.35;stroke-miterlimit:4;stroke-dasharray:none;fill:none;fill-opacity:1;fill-rule: evenodd"/>
<path id="Shape2DView_nwe0005"  d="M -1.0 -1.25 L -0.9000000000000198 -1.25 " stroke="#191919" stroke-width="0.35 px" style="stroke-width:0.35;stroke-miterlimit:4;stroke-dasharray:none;fill:none;fill-opacity:1;fill-rule: evenodd"/>
<path id="Shape2DView_nwe0006"  d="M -1.0 1.25 L -0.9000000000000198 1.25 " stroke="#191919" stroke-width="0.35 px" style="stroke-width:0.35;stroke-miterlimit:4;stroke-dasharray:none;fill:none;fill-opacity:1;fill-rule: evenodd"/>
<path id="Shape2DView_nwe0007"  d="M 0.9 -1.25 L 0.9999999999999802 -1.25 " stroke="#191919" stroke-width="0.35 px" style="stroke-width:0.35;stroke-miterlimit:4;stroke-dasharray:none;fill:none;fill-opacity:1;fill-rule: evenodd"/>
<path id="Shape2DView_nwe0008"  d="M 1.0 1.25 L 1.0 -1.25 " stroke="#191919" stroke-width="0.35 px" style="stroke-width:0.35;stroke-miterlimit:4;stroke-dasharray:none;fill:none;fill-opacity:1;fill-rule: evenodd"/>
<path id="Shape2DView_nwe0009"  d="M 0.9 1.25 L 0.9999999999999802 1.25 " stroke="#191919" stroke-width="0.35 px" style="stroke-width:0.35;stroke-miterlimit:4;stroke-dasharray:none;fill:none;fill-opacity:1;fill-rule: evenodd"/>
<path id="Shape2DView_nwe0010"  d="M -1.0 1.25 L -1.0003772674064055 1.25 L -1.0015043252690907 1.25 L -1.003367000181498 1.25 L -1.005941867925855 1.25 L -1.009196548046303 1.25 L -1.0130901110519184 1.25 L -1.0175735931288072 1.25 L -1.022590611888476 1.25 L -1.02807807540908 1.25 L -1.0339669756529466 1.25 L -1.04018325628269 1.25 L -1.046648743962621 1.25 L -1.0532821314338017 1.25 L -1.06 1.25 " stroke="#191919" stroke-width="0.35 px" style="stroke-width:0.35;stroke-miterlimit:4;stroke-dasharray:none;fill:none;fill-opacity:1;fill-rule: evenodd"/>
<path id="Shape2DView_nwe0011"  d="M -1.0 -1.25 L -1.0003772674064055 -1.25 L -1.0015043252690907 -1.25 L -1.003367000181498 -1.25 L -1.005941867925855 -1.25 L -1.009196548046303 -1.25 L -1.0130901110519184 -1.25 L -1.0175735931288072 -1.25 L -1.022590611888476 -1.25 L -1.02807807540908 -1.25 L -1.0339669756529466 -1.25 L -1.04018325628269 -1.25 L -1.046648743962621 -1.25 L -1.0532821314338017 -1.25 L -1.06 -1.25 " stroke="#191919" stroke-width="0.35 px" style="stroke-width:0.35;stroke-miterlimit:4;stroke-dasharray:none;fill:none;fill-opacity:1;fill-rule: evenodd"/>
<path id="Shape2DView_nwe0012"  d="M 1.0 -1.25 L 1.0003772674064055 -1.25 L 1.0015043252690907 -1.25 L 1.003367000181498 -1.25 L 1.005941867925855 -1.25 L 1.009196548046303 -1.25 L 1.0130901110519184 -1.25 L 1.0175735931288072 -1.25 L 1.022590611888476 -1.25 L 1.02807807540908 -1.25 L 1.0339669756529466 -1.25 L 1.04018325628269 -1.25 L 1.046648743962621 -1.25 L 1.0532821314338017 -1.25 L 1.06 -1.25 " stroke="#191919" stroke-width="0.35 px" style="stroke-width:0.35;stroke-miterlimit:4;stroke-dasharray:none;fill:none;fill-opacity:1;fill-rule: evenodd"/>
<path id="Shape2DView_nwe0013"  d="M 1.0 1.25 L 1.0003772674064055 1.25 L 1.0015043252690907 1.25 L 1.003367000181498 1.25 L 1.005941867925855 1.25 L 1.009196548046303 1.25 L 1.0130901110519184 1.25 L 1.0175735931288072 1.25 L 1.022590611888476 1.25 L 1.02807807540908 1.25 L 1.0339669756529466 1.25 L 1.04018325628269 1.25 L 1.046648743962621 1.25 L 1.0532821314338017 1.25 L 1.06 1.25 " stroke="#191919" stroke-width="0.35 px" style="stroke-width:0.35;stroke-miterlimit:4;stroke-dasharray:none;fill:none;fill-opacity:1;fill-rule: evenodd"/>
<path id="Shape2DView_nwe0014"  d="M -1.6 -1.25 L -1.5996227325935946 -1.25 L -1.5984956747309094 -1.25 L -1.596632999818502 -1.25 L -1.5940581320741452 -1.25 L -1.590803451953697 -1.25 L -1.5869098889480817 -1.25 L -1.5824264068711928 -1.25 L -1.577409388111524 -1.25 L -1.5719219245909202 -1.25 L -1.5660330243470535 -1.25 L -1.55981674371731 -1.25 L -1.553351256037379 -1.25 L -1.5467178685661984 -1.25 L -1.54 -1.25 " stroke="#191919" stroke-width="0.35 px" style="stroke-width:0.35;stroke-miterlimit:4;stroke-dasharray:none;fill:none;fill-opacity:1;fill-rule: evenodd"/>
<path id="Shape2DView_nwe0015"  d="M -1.54 -1.25 L -1.06 -1.25 " stroke="#191919" stroke-width="0.35 px" style="stroke-width:0.35;stroke-miterlimit:4;stroke-dasharray:none;fill:none;fill-opacity:1;fill-rule: evenodd"/>
<path id="Shape2DView_nwe0016"  d="M -1.54 1.25 L -1.06 1.25 " stroke="#191919" stroke-width="0.35 px" style="stroke-width:0.35;stroke-miterlimit:4;stroke-dasharray:none;fill:none;fill-opacity:1;fill-rule: evenodd"/>
<path id="Shape2DView_nwe0017"  d="M -1.5399999999999738 -0.5717516943570267 A 0.801042 0.801042 0 0 1 -1.54 0.571752" stroke="#191919" stroke-width="0.35 px" style="stroke-width:0.35;stroke-miterlimit:4;stroke-dasharray:none;fill:none;fill-opacity:1;fill-rule: evenodd"/>
<path id="Shape2DView_nwe0018"  d="M -1.6 1.25 L -1.5996227325935946 1.25 L -1.5984956747309094 1.25 L -1.596632999818502 1.25 L -1.5940581320741452 1.25 L -1.590803451953697 1.25 L -1.5869098889480817 1.25 L -1.5824264068711928 1.25 L -1.577409388111524 1.25 L -1.5719219245909202 1.25 L -1.5660330243470535 1.25 L -1.55981674371731 1.25 L -1.553351256037379 1.25 L -1.5467178685661984 1.25 L -1.54 1.25 " stroke="#191919" stroke-width="0.35 px" style="stroke-width:0.35;stroke-miterlimit:4;stroke-dasharray:none;fill:none;fill-opacity:1;fill-rule: evenodd"/>
<path id="Shape2DView_nwe0019"  d="M 1.06 -1.25 L 1.54 -1.25 " stroke="#191919" stroke-width="0.35 px" style="stroke-width:0.35;stroke-miterlimit:4;stroke-dasharray:none;fill:none;fill-opacity:1;fill-rule: evenodd"/>
<path id="Shape2DView_nwe0020"  d="M 1.6 -1.25 L 1.5996227325935946 -1.25 L 1.5984956747309094 -1.25 L 1.596632999818502 -1.25 L 1.5940581320741452 -1.25 L 1.590803451953697 -1.25 L 1.5869098889480817 -1.25 L 1.5824264068711928 -1.25 L 1.577409388111524 -1.25 L 1.5719219245909202 -1.25 L 1.5660330243470535 -1.25 L 1.55981674371731 -1.25 L 1.553351256037379 -1.25 L 1.5467178685661984 -1.25 L 1.54 -1.25 " stroke="#191919" stroke-width="0.35 px" style="stroke-width:0.35;stroke-miterlimit:4;stroke-dasharray:none;fill:none;fill-opacity:1;fill-rule: evenodd"/>
<path id="Shape2DView_nwe0021"  d="M 1.06 1.25 L 1.54 1.25 " stroke="#191919" stroke-width="0.35 px" style="stroke-width:0.35;stroke-miterlimit:4;stroke-dasharray:none;fill:none;fill-opacity:1;fill-rule: evenodd"/>
<path id="Shape2DView_nwe0022"  d="M 1.539999999999974 0.5717516943570268 A 0.801042 0.801042 0 0 1 1.54 -0.571752" stroke="#191919" stroke-width="0.35 px" style="stroke-width:0.35;stroke-miterlimit:4;stroke-dasharray:none;fill:none;fill-opacity:1;fill-rule: evenodd"/>
<path id="Shape2DView_nwe0023"  d="M 1.6 1.25 L 1.5996227325935946 1.25 L 1.5984956747309094 1.25 L 1.596632999818502 1.25 L 1.5940581320741452 1.25 L 1.590803451953697 1.25 L 1.5869098889480817 1.25 L 1.5824264068711928 1.25 L 1.577409388111524 1.25 L 1.5719219245909202 1.25 L 1.5660330243470535 1.25 L 1.55981674371731 1.25 L 1.553351256037379 1.25 L 1.5467178685661984 1.25 L 1.54 1.25 " stroke="#191919" stroke-width="0.35 px" style="stroke-width:0.35;stroke-miterlimit:4;stroke-dasharray:none;fill:none;fill-opacity:1;fill-rule: evenodd"/>
<path id="Shape2DView_nwe0024"  d="M -1.6 -1.25 L -1.6 -0.625 " stroke="#191919" stroke-width="0.35 px" style="stroke-width:0.35;stroke-miterlimit:4;stroke-dasharray:none;fill:none;fill-opacity:1;fill-rule: evenodd"/>
<path id="Shape2DView_nwe0025"  d="M -1.6 -0.625 L -1.54 -0.571751694357 " stroke="#191919" stroke-width="0.35 px" style="stroke-width:0.35;stroke-miterlimit:4;stroke-dasharray:none;fill:none;fill-opacity:1;fill-rule: evenodd"/>
<path id="Shape2DView_nwe0026"  d="M -1.6 0.625 L -1.54 0.571751694357 " stroke="#191919" stroke-width="0.35 px" style="stroke-width:0.35;stroke-miterlimit:4;stroke-dasharray:none;fill:none;fill-opacity:1;fill-rule: evenodd"/>
<path id="Shape2DView_nwe0027"  d="M -1.6 0.625 L -1.6 1.25 " stroke="#191919" stroke-width="0.35 px" style="stroke-width:0.35;stroke-miterlimit:4;stroke-dasharray:none;fill:none;fill-opacity:1;fill-rule: evenodd"/>
<path id="Shape2DView_nwe0028"  d="M 1.6 -1.25 L 1.6 -0.625 " stroke="#191919" stroke-width="0.35 px" style="stroke-width:0.35;stroke-miterlimit:4;stroke-dasharray:none;fill:none;fill-opacity:1;fill-rule: evenodd"/>
<path id="Shape2DView_nwe0029"  d="M 1.6 -0.625 L 1.54 -0.571751694357 " stroke="#191919" stroke-width="0.35 px" style="stroke-width:0.35;stroke-miterlimit:4;stroke-dasharray:none;fill:none;fill-opacity:1;fill-rule: evenodd"/>
<path id="Shape2DView_nwe0030"  d="M 1.6 0.625 L 1.54 0.571751694357 " stroke="#191919" stroke-width="0.35 px" style="stroke-width:0.35;stroke-miterlimit:4;stroke-dasharray:none;fill:none;fill-opacity:1;fill-rule: evenodd"/>
<path id="Shape2DView_nwe0031"  d="M 1.6 0.625 L 1.6 1.25 " stroke="#191919" stroke-width="0.35 px" style="stroke-width:0.35;stroke-miterlimit:4;stroke-dasharray:none;fill:none;fill-opacity:1;fill-rule: evenodd"/>
<path id="Shape2DView_nwe0032"  d="M -1.06 -1.25 L -1.06 1.25 " stroke="#191919" stroke-width="0.35 px" style="stroke-width:0.35;stroke-miterlimit:4;stroke-dasharray:none;fill:none;fill-opacity:1;fill-rule: evenodd"/>
<path id="Shape2DView_nwe0033"  d="M 1.06 -1.25 L 1.06 1.25 " stroke="#191919" stroke-width="0.35 px" style="stroke-width:0.35;stroke-miterlimit:4;stroke-dasharray:none;fill:none;fill-opacity:1;fill-rule: evenodd"/>
<path id="Shape2DView_nwe0034"  d="M -1.54 0.571751694357 L -1.54 1.25 " stroke="#191919" stroke-width="0.35 px" style="stroke-width:0.35;stroke-miterlimit:4;stroke-dasharray:none;fill:none;fill-opacity:1;fill-rule: evenodd"/>
<path id="Shape2DView_nwe0035"  d="M -1.54 -1.25 L -1.54 -0.571751694357 " stroke="#191919" stroke-width="0.35 px" style="stroke-width:0.35;stroke-miterlimit:4;stroke-dasharray:none;fill:none;fill-opacity:1;fill-rule: evenodd"/>
<path id="Shape2DView_nwe0036"  d="M 1.54 -1.25 L 1.54 -0.571751694357 " stroke="#191919" stroke-width="0.35 px" style="stroke-width:0.35;stroke-miterlimit:4;stroke-dasharray:none;fill:none;fill-opacity:1;fill-rule: evenodd"/>
<path id="Shape2DView_nwe0037"  d="M 1.54 0.571751694357 L 1.54 1.25 " stroke="#191919" stroke-width="0.35 px" style="stroke-width:0.35;stroke-miterlimit:4;stroke-dasharray:none;fill:none;fill-opacity:1;fill-rule: evenodd"/>
<title>b'Shape2DView'</title>
</g>
<g id="Rectangle" transform="translate(1.632000,1.282000) scale(1,-1)">
<rect fill="#ff0000" id="origin" width="1" height="1" x="0" y="0" />
<title>b'Rectangle'</title>
</g>
</svg>