<?xml version="1.0"?>
<!DOCTYPE svg PUBLIC "-//W3C//DTD SVG 1.1//EN" "http://www.w3.org/Graphics/SVG/1.1/DTD/svg11.dtd">
<svg width="6.956400000000004mm" height="8.296400000000002mm" viewBox="0 0 6.956400000000004 8.296400000000002" xmlns="http://www.w3.org/2000/svg" version="1.1">
<g id="Shape2DView" transform="translate(5.888200,1.068200) scale(1,-1)">
<path id="Shape2DView_nwe0000"  d="M -1.42 -7.16 L -5.82 -7.160000000000002 " stroke="#191919" stroke-width="0.35 px" style="stroke-width:0.35;stroke-miterlimit:4;stroke-dasharray:none;fill:none;fill-opacity:1;fill-rule: evenodd"/>
<path id="Shape2DView_nwe0001"  d="M -5.82 -7.16 L -5.820000000000004 0.8100000000000005 " stroke="#191919" stroke-width="0.35 px" style="stroke-width:0.35;stroke-miterlimit:4;stroke-dasharray:none;fill:none;fill-opacity:1;fill-rule: evenodd"/>
<path id="Shape2DView_nwe0002"  d="M -1.42 0.81 L -5.82 0.809999999999998 " stroke="#191919" stroke-width="0.35 px" style="stroke-width:0.35;stroke-miterlimit:4;stroke-dasharray:none;fill:none;fill-opacity:1;fill-rule: evenodd"/>
<path id="Shape2DView_nwe0003"  d="M -1.42 -7.16 L -1.4200000000000035 0.8100000000000005 " stroke="#191919" stroke-width="0.35 px" style="stroke-width:0.35;stroke-miterlimit:4;stroke-dasharray:none;fill:none;fill-opacity:1;fill-rule: evenodd"/>
<path id="Shape2DView_nwe0004"  d="M -0.15 -2.29 L -1.4200000000000021 -2.2900000000000005 " stroke="#191919" stroke-width="0.35 px" style="stroke-width:0.35;stroke-miterlimit:4;stroke-dasharray:none;fill:none;fill-opacity:1;fill-rule: evenodd"/>
<path id="Shape2DView_nwe0005"  d="M -1.420000000000002 -2.79 L -0.1499999999999999 -2.7899999999999996 " stroke="#191919" stroke-width="0.35 px" style="stroke-width:0.35;stroke-miterlimit:4;stroke-dasharray:none;fill:none;fill-opacity:1;fill-rule: evenodd"/>
<path id="Shape2DView_nwe0006"  d="M -0.15 -1.02 L -1.4200000000000026 -1.0200000000000007 " stroke="#191919" stroke-width="0.35 px" style="stroke-width:0.35;stroke-miterlimit:4;stroke-dasharray:none;fill:none;fill-opacity:1;fill-rule: evenodd"/>
<path id="Shape2DView_nwe0007"  d="M -1.4200000000000024 -1.52 L -0.1499999999999999 -1.5199999999999994 " stroke="#191919" stroke-width="0.35 px" style="stroke-width:0.35;stroke-miterlimit:4;stroke-dasharray:none;fill:none;fill-opacity:1;fill-rule: evenodd"/>
<path id="Shape2DView_nwe0008"  d="M -0.15 0.25 L -1.4200000000000033 0.24999999999999944 " stroke="#191919" stroke-width="0.35 px" style="stroke-width:0.35;stroke-miterlimit:4;stroke-dasharray:none;fill:none;fill-opacity:1;fill-rule: evenodd"/>
<path id="Shape2DView_nwe0009"  d="M -1.420000000000003 -0.24999999999999994 L -0.1499999999999999 -0.24999999999999936 " stroke="#191919" stroke-width="0.35 px" style="stroke-width:0.35;stroke-miterlimit:4;stroke-dasharray:none;fill:none;fill-opacity:1;fill-rule: evenodd"/>
<path id="Shape2DView_nwe0010"  d="M -0.15 -6.1 L -1.4200000000000004 -6.1000000000000005 " stroke="#191919" stroke-width="0.35 px" style="stroke-width:0.35;stroke-miterlimit:4;stroke-dasharray:none;fill:none;fill-opacity:1;fill-rule: evenodd"/>
<path id="Shape2DView_nwe0011"  d="M -1.4200000000000002 -6.6 L -0.1499999999999999 -6.599999999999999 " stroke="#191919" stroke-width="0.35 px" style="stroke-width:0.35;stroke-miterlimit:4;stroke-dasharray:none;fill:none;fill-opacity:1;fill-rule: evenodd"/>
<path id="Shape2DView_nwe0012"  d="M -0.15 -4.83 L -1.420000000000001 -4.830000000000001 " stroke="#191919" stroke-width="0.35 px" style="stroke-width:0.35;stroke-miterlimit:4;stroke-dasharray:none;fill:none;fill-opacity:1;fill-rule: evenodd"/>
<path id="Shape2DView_nwe0013"  d="M -1.4200000000000008 -5.33 L -0.1499999999999999 -5.329999999999999 " stroke="#191919" stroke-width="0.35 px" style="stroke-width:0.35;stroke-miterlimit:4;stroke-dasharray:none;fill:none;fill-opacity:1;fill-rule: evenodd"/>
<path id="Shape2DView_nwe0014"  d="M -0.15 -3.56 L -1.4200000000000015 -3.5600000000000005 " stroke="#191919" stroke-width="0.35 px" style="stroke-width:0.35;stroke-miterlimit:4;stroke-dasharray:none;fill:none;fill-opacity:1;fill-rule: evenodd"/>
<path id="Shape2DView_nwe0015"  d="M -1.4200000000000013 -4.06 L -0.1499999999999999 -4.059999999999999 " stroke="#191919" stroke-width="0.35 px" style="stroke-width:0.35;stroke-miterlimit:4;stroke-dasharray:none;fill:none;fill-opacity:1;fill-rule: evenodd"/>
<path id="Shape2DView_nwe0016"  d="M -0.14999999999999997 -2.29 L -0.12480799287675569 -2.29 L -0.09993278985982923 -2.29 L -0.07568721106008737 -2.29 L -0.05237615869854939 -2.29 L -0.030292782784049233 -2.29 L -0.009714794581784925 -2.29 L 0.009099025766973218 -2.29 L 0.025912083555306747 -2.29 L 0.04051294482636397 -2.29 L 0.052717995278044355 -2.29 L 0.06237374931938272 -2.29 L 0.06935878024091033 -2.29 L 0.07358524722597959 -2.29 L 0.07500000000000001 -2.29 " stroke="#191919" stroke-width="0.35 px" style="stroke-width:0.35;stroke-miterlimit:4;stroke-dasharray:none;fill:none;fill-opacity:1;fill-rule: evenodd"/>
<path id="Shape2DView_nwe0017"  d="M -0.14999999999999997 -2.79 L -0.12480799287675569 -2.79 L -0.09993278985982923 -2.79 L -0.07568721106008737 -2.79 L -0.05237615869854939 -2.79 L -0.030292782784049233 -2.79 L -0.009714794581784925 -2.79 L 0.009099025766973218 -2.79 L 0.025912083555306747 -2.79 L 0.04051294482636397 -2.79 L 0.052717995278044355 -2.79 L 0.06237374931938272 -2.79 L 0.06935878024091033 -2.79 L 0.07358524722597959 -2.79 L 0.07500000000000001 -2.79 " stroke="#191919" stroke-width="0.35 px" style="stroke-width:0.35;stroke-miterlimit:4;stroke-dasharray:none;fill:none;fill-opacity:1;fill-rule: evenodd"/>
<path id="Shape2DView_nwe0018"  d="M 0.075 -2.79 L 0.07499999999999978 -2.29 " stroke="#191919" stroke-width="0.35 px" style="stroke-width:0.35;stroke-miterlimit:4;stroke-dasharray:none;fill:none;fill-opacity:1;fill-rule: evenodd"/>
<path id="Shape2DView_nwe0019"  d="M -0.14999999999999997 -1.02 L -0.12480799287675569 -1.02 L -0.09993278985982923 -1.02 L -0.07568721106008737 -1.02 L -0.05237615869854939 -1.02 L -0.030292782784049233 -1.02 L -0.009714794581784925 -1.02 L 0.009099025766973218 -1.02 L 0.025912083555306747 -1.02 L 0.04051294482636397 -1.02 L 0.052717995278044355 -1.02 L 0.06237374931938272 -1.02 L 0.06935878024091033 -1.02 L 0.07358524722597959 -1.02 L 0.07500000000000001 -1.02 " stroke="#191919" stroke-width="0.35 px" style="stroke-width:0.35;stroke-miterlimit:4;stroke-dasharray:none;fill:none;fill-opacity:1;fill-rule: evenodd"/>
<path id="Shape2DView_nwe0020"  d="M -0.14999999999999997 -1.52 L -0.12480799287675569 -1.52 L -0.09993278985982923 -1.52 L -0.07568721106008737 -1.52 L -0.05237615869854939 -1.52 L -0.030292782784049233 -1.52 L -0.009714794581784925 -1.52 L 0.009099025766973218 -1.52 L 0.025912083555306747 -1.52 L 0.04051294482636397 -1.52 L 0.052717995278044355 -1.52 L 0.06237374931938272 -1.52 L 0.06935878024091033 -1.52 L 0.07358524722597959 -1.52 L 0.07500000000000001 -1.52 " stroke="#191919" stroke-width="0.35 px" style="stroke-width:0.35;stroke-miterlimit:4;stroke-dasharray:none;fill:none;fill-opacity:1;fill-rule: evenodd"/>
<path id="Shape2DView_nwe0021"  d="M 0.075 -1.52 L 0.07499999999999978 -1.02 " stroke="#191919" stroke-width="0.35 px" style="stroke-width:0.35;stroke-miterlimit:4;stroke-dasharray:none;fill:none;fill-opacity:1;fill-rule: evenodd"/>
<path id="Shape2DView_nwe0022"  d="M -0.14999999999999997 0.25 L -0.12480799287675569 0.25 L -0.09993278985982923 0.25 L -0.07568721106008737 0.25000000000000006 L -0.05237615869854939 0.25000000000000006 L -0.030292782784049233 0.25000000000000006 L -0.009714794581784925 0.25000000000000006 L 0.009099025766973218 0.25000000000000006 L 0.025912083555306747 0.25000000000000006 L 0.04051294482636397 0.2500000000000001 L 0.052717995278044355 0.2500000000000001 L 0.06237374931938272 0.2500000000000001 L 0.06935878024091033 0.2500000000000001 L 0.07358524722597959 0.2500000000000001 L 0.07500000000000001 0.2500000000000001 " stroke="#191919" stroke-width="0.35 px" style="stroke-width:0.35;stroke-miterlimit:4;stroke-dasharray:none;fill:none;fill-opacity:1;fill-rule: evenodd"/>
<path id="Shape2DView_nwe0023"  d="M -0.14999999999999997 -0.25 L -0.12480799287675569 -0.25 L -0.09993278985982923 -0.24999999999999997 L -0.07568721106008737 -0.24999999999999997 L -0.05237615869854939 -0.24999999999999994 L -0.030292782784049233 -0.24999999999999994 L -0.009714794581784925 -0.24999999999999994 L 0.009099025766973218 -0.24999999999999992 L 0.025912083555306747 -0.24999999999999992 L 0.04051294482636397 -0.24999999999999992 L 0.052717995278044355 -0.24999999999999992 L 0.06237374931938272 -0.24999999999999992 L 0.06935878024091033 -0.2499999999999999 L 0.07358524722597959 -0.2499999999999999 L 0.07500000000000001 -0.2499999999999999 " stroke="#191919" stroke-width="0.35 px" style="stroke-width:0.35;stroke-miterlimit:4;stroke-dasharray:none;fill:none;fill-opacity:1;fill-rule: evenodd"/>
<path id="Shape2DView_nwe0024"  d="M 0.075 -0.25 L 0.07499999999999978 0.25 " stroke="#191919" stroke-width="0.35 px" style="stroke-width:0.35;stroke-miterlimit:4;stroke-dasharray:none;fill:none;fill-opacity:1;fill-rule: evenodd"/>
<path id="Shape2DView_nwe0025"  d="M -0.14999999999999997 -6.1 L -0.12480799287675569 -6.1 L -0.09993278985982923 -6.1 L -0.07568721106008737 -6.1 L -0.05237615869854939 -6.1 L -0.030292782784049233 -6.1 L -0.009714794581784925 -6.1 L 0.009099025766973218 -6.1 L 0.025912083555306747 -6.1 L 0.04051294482636397 -6.1 L 0.052717995278044355 -6.1 L 0.06237374931938272 -6.1 L 0.06935878024091033 -6.1 L 0.07358524722597959 -6.1 L 0.07500000000000001 -6.1 " stroke="#191919" stroke-width="0.35 px" style="stroke-width:0.35;stroke-miterlimit:4;stroke-dasharray:none;fill:none;fill-opacity:1;fill-rule: evenodd"/>
<path id="Shape2DView_nwe0026"  d="M -0.14999999999999997 -6.6 L -0.12480799287675569 -6.6 L -0.09993278985982923 -6.6 L -0.07568721106008737 -6.6 L -0.05237615869854939 -6.6 L -0.030292782784049233 -6.6 L -0.009714794581784925 -6.6 L 0.009099025766973218 -6.6 L 0.025912083555306747 -6.6 L 0.04051294482636397 -6.6 L 0.052717995278044355 -6.6 L 0.06237374931938272 -6.6 L 0.06935878024091033 -6.6 L 0.07358524722597959 -6.6 L 0.07500000000000001 -6.6 " stroke="#191919" stroke-width="0.35 px" style="stroke-width:0.35;stroke-miterlimit:4;stroke-dasharray:none;fill:none;fill-opacity:1;fill-rule: evenodd"/>
<path id="Shape2DView_nwe0027"  d="M 0.075 -6.6 L 0.07499999999999978 -6.1 " stroke="#191919" stroke-width="0.35 px" style="stroke-width:0.35;stroke-miterlimit:4;stroke-dasharray:none;fill:none;fill-opacity:1;fill-rule: evenodd"/>
<path id="Shape2DView_nwe0028"  d="M -0.14999999999999997 -4.83 L -0.12480799287675569 -4.83 L -0.09993278985982923 -4.83 L -0.07568721106008737 -4.83 L -0.05237615869854939 -4.83 L -0.030292782784049233 -4.83 L -0.009714794581784925 -4.83 L 0.009099025766973218 -4.83 L 0.025912083555306747 -4.83 L 0.04051294482636397 -4.83 L 0.052717995278044355 -4.83 L 0.06237374931938272 -4.83 L 0.06935878024091033 -4.83 L 0.07358524722597959 -4.83 L 0.07500000000000001 -4.83 " stroke="#191919" stroke-width="0.35 px" style="stroke-width:0.35;stroke-miterlimit:4;stroke-dasharray:none;fill:none;fill-opacity:1;fill-rule: evenodd"/>
<path id="Shape2DView_nwe0029"  d="M -0.14999999999999997 -5.33 L -0.12480799287675569 -5.33 L -0.09993278985982923 -5.33 L -0.07568721106008737 -5.33 L -0.05237615869854939 -5.33 L -0.030292782784049233 -5.33 L -0.009714794581784925 -5.33 L 0.009099025766973218 -5.33 L 0.025912083555306747 -5.33 L 0.04051294482636397 -5.33 L 0.052717995278044355 -5.33 L 0.06237374931938272 -5.33 L 0.06935878024091033 -5.33 L 0.07358524722597959 -5.33 L 0.07500000000000001 -5.33 " stroke="#191919" stroke-width="0.35 px" style="stroke-width:0.35;stroke-miterlimit:4;stroke-dasharray:none;fill:none;fill-opacity:1;fill-rule: evenodd"/>
<path id="Shape2DView_nwe0030"  d="M 0.075 -5.33 L 0.07499999999999978 -4.83 " stroke="#191919" stroke-width="0.35 px" style="stroke-width:0.35;stroke-miterlimit:4;stroke-dasharray:none;fill:none;fill-opacity:1;fill-rule: evenodd"/>
<path id="Shape2DView_nwe0031"  d="M -0.14999999999999997 -3.56 L -0.12480799287675569 -3.56 L -0.09993278985982923 -3.56 L -0.07568721106008737 -3.56 L -0.05237615869854939 -3.56 L -0.030292782784049233 -3.56 L -0.009714794581784925 -3.56 L 0.009099025766973218 -3.56 L 0.025912083555306747 -3.56 L 0.04051294482636397 -3.56 L 0.052717995278044355 -3.56 L 0.06237374931938272 -3.56 L 0.06935878024091033 -3.56 L 0.07358524722597959 -3.56 L 0.07500000000000001 -3.56 " stroke="#191919" stroke-width="0.35 px" style="stroke-width:0.35;stroke-miterlimit:4;stroke-dasharray:none;fill:none;fill-opacity:1;fill-rule: evenodd"/>
<path id="Shape2DView_nwe0032"  d="M -0.14999999999999997 -4.06 L -0.12480799287675569 -4.06 L -0.09993278985982923 -4.06 L -0.07568721106008737 -4.06 L -0.05237615869854939 -4.06 L -0.030292782784049233 -4.06 L -0.009714794581784925 -4.06 L 0.009099025766973218 -4.06 L 0.025912083555306747 -4.06 L 0.04051294482636397 -4.06 L 0.052717995278044355 -4.06 L 0.06237374931938272 -4.06 L 0.06935878024091033 -4.06 L 0.07358524722597959 -4.06 L 0.07500000000000001 -4.06 " stroke="#191919" stroke-width="0.35 px" style="stroke-width:0.35;stroke-miterlimit:4;stroke-dasharray:none;fill:none;fill-opacity:1;fill-rule: evenodd"/>
<path id="Shape2DView_nwe0033"  d="M 0.075 -4.06 L 0.07499999999999978 -3.56 " stroke="#191919" stroke-width="0.35 px" style="stroke-width:0.35;stroke-miterlimit:4;stroke-dasharray:none;fill:none;fill-opacity:1;fill-rule: evenodd"/>
<path id="Shape2DView_nwe0034"  d="M -0.15 -2.79 L -0.15000000000000022 -2.29 " stroke="#191919" stroke-width="0.35 px" style="stroke-width:0.35;stroke-miterlimit:4;stroke-dasharray:none;fill:none;fill-opacity:1;fill-rule: evenodd"/>
<path id="Shape2DView_nwe0035"  d="M -0.15 -1.52 L -0.15000000000000022 -1.02 " stroke="#191919" stroke-width="0.35 px" style="stroke-width:0.35;stroke-miterlimit:4;stroke-dasharray:none;fill:none;fill-opacity:1;fill-rule: evenodd"/>
<path id="Shape2DView_nwe0036"  d="M -0.15 -0.25 L -0.15000000000000022 0.25 " stroke="#191919" stroke-width="0.35 px" style="stroke-width:0.35;stroke-miterlimit:4;stroke-dasharray:none;fill:none;fill-opacity:1;fill-rule: evenodd"/>
<path id="Shape2DView_nwe0037"  d="M -0.15 -6.6 L -0.15000000000000022 -6.1 " stroke="#191919" stroke-width="0.35 px" style="stroke-width:0.35;stroke-miterlimit:4;stroke-dasharray:none;fill:none;fill-opacity:1;fill-rule: evenodd"/>
<path id="Shape2DView_nwe0038"  d="M -0.15 -5.33 L -0.15000000000000022 -4.83 " stroke="#191919" stroke-width="0.35 px" style="stroke-width:0.35;stroke-miterlimit:4;stroke-dasharray:none;fill:none;fill-opacity:1;fill-rule: evenodd"/>
<path id="Shape2DView_nwe0039"  d="M -0.15 -4.06 L -0.15000000000000022 -3.56 " stroke="#191919" stroke-width="0.35 px" style="stroke-width:0.35;stroke-miterlimit:4;stroke-dasharray:none;fill:none;fill-opacity:1;fill-rule: evenodd"/>
<title>b'Shape2DView'</title>
</g>
<g id="Rectangle" transform="translate(5.888200,1.068200) scale(1,-1)">
<rect fill="#ff0000" id="origin" width="1" height="1" x="0" y="0" />
<title>b'Rectangle'</title>
</g>
</svg>