<?xml version="1.0"?>
<!DOCTYPE svg PUBLIC "-//W3C//DTD SVG 1.1//EN" "http://www.w3.org/Graphics/SVG/1.1/DTD/svg11.dtd">
<svg width="8.792400000000006mm" height="14.172400000000003mm" viewBox="0 0 8.792400000000006 14.172400000000003" xmlns="http://www.w3.org/2000/svg" version="1.1">
<g id="Shape2DView" transform="translate(7.706200,1.086200) scale(1,-1)">
<path id="Shape2DView_nwe0000"  d="M -1.27 -13.0 L -7.619999999999999 -13.000000000000004 " stroke="#191919" stroke-width="0.35 px" style="stroke-width:0.35;stroke-miterlimit:4;stroke-dasharray:none;fill:none;fill-opacity:1;fill-rule: evenodd"/>
<path id="Shape2DView_nwe0001"  d="M -7.62 -13.0 L -7.620000000000006 1.0 " stroke="#191919" stroke-width="0.35 px" style="stroke-width:0.35;stroke-miterlimit:4;stroke-dasharray:none;fill:none;fill-opacity:1;fill-rule: evenodd"/>
<path id="Shape2DView_nwe0002"  d="M -1.27 1.0 L -7.619999999999999 0.9999999999999972 " stroke="#191919" stroke-width="0.35 px" style="stroke-width:0.35;stroke-miterlimit:4;stroke-dasharray:none;fill:none;fill-opacity:1;fill-rule: evenodd"/>
<path id="Shape2DView_nwe0003"  d="M -1.27 -13.0 L -1.2700000000000062 1.0 " stroke="#191919" stroke-width="0.35 px" style="stroke-width:0.35;stroke-miterlimit:4;stroke-dasharray:none;fill:none;fill-opacity:1;fill-rule: evenodd"/>
<path id="Shape2DView_nwe0004"  d="M -0.2 0.3 L -1.270000000000006 0.2999999999999995 " stroke="#191919" stroke-width="0.35 px" style="stroke-width:0.35;stroke-miterlimit:4;stroke-dasharray:none;fill:none;fill-opacity:1;fill-rule: evenodd"/>
<path id="Shape2DView_nwe0005"  d="M -1.2700000000000056 -0.2999999999999999 L -0.19999999999999996 -0.29999999999999943 " stroke="#191919" stroke-width="0.35 px" style="stroke-width:0.35;stroke-miterlimit:4;stroke-dasharray:none;fill:none;fill-opacity:1;fill-rule: evenodd"/>
<path id="Shape2DView_nwe0006"  d="M -0.2 -1.7 L -1.2700000000000051 -1.7000000000000004 " stroke="#191919" stroke-width="0.35 px" style="stroke-width:0.35;stroke-miterlimit:4;stroke-dasharray:none;fill:none;fill-opacity:1;fill-rule: evenodd"/>
<path id="Shape2DView_nwe0007"  d="M -1.2700000000000047 -2.3 L -0.19999999999999996 -2.2999999999999994 " stroke="#191919" stroke-width="0.35 px" style="stroke-width:0.35;stroke-miterlimit:4;stroke-dasharray:none;fill:none;fill-opacity:1;fill-rule: evenodd"/>
<path id="Shape2DView_nwe0008"  d="M -0.2 -3.7 L -1.2700000000000042 -3.7000000000000006 " stroke="#191919" stroke-width="0.35 px" style="stroke-width:0.35;stroke-miterlimit:4;stroke-dasharray:none;fill:none;fill-opacity:1;fill-rule: evenodd"/>
<path id="Shape2DView_nwe0009"  d="M -1.2700000000000038 -4.3 L -0.19999999999999996 -4.299999999999999 " stroke="#191919" stroke-width="0.35 px" style="stroke-width:0.35;stroke-miterlimit:4;stroke-dasharray:none;fill:none;fill-opacity:1;fill-rule: evenodd"/>
<path id="Shape2DView_nwe0010"  d="M -0.2 -5.7 L -1.2700000000000033 -5.700000000000001 " stroke="#191919" stroke-width="0.35 px" style="stroke-width:0.35;stroke-miterlimit:4;stroke-dasharray:none;fill:none;fill-opacity:1;fill-rule: evenodd"/>
<path id="Shape2DView_nwe0011"  d="M -1.270000000000003 -6.3 L -0.19999999999999996 -6.299999999999999 " stroke="#191919" stroke-width="0.35 px" style="stroke-width:0.35;stroke-miterlimit:4;stroke-dasharray:none;fill:none;fill-opacity:1;fill-rule: evenodd"/>
<path id="Shape2DView_nwe0012"  d="M -0.2 -9.7 L -1.2700000000000016 -9.7 " stroke="#191919" stroke-width="0.35 px" style="stroke-width:0.35;stroke-miterlimit:4;stroke-dasharray:none;fill:none;fill-opacity:1;fill-rule: evenodd"/>
<path id="Shape2DView_nwe0013"  d="M -1.2700000000000011 -10.3 L -0.19999999999999996 -10.3 " stroke="#191919" stroke-width="0.35 px" style="stroke-width:0.35;stroke-miterlimit:4;stroke-dasharray:none;fill:none;fill-opacity:1;fill-rule: evenodd"/>
<path id="Shape2DView_nwe0014"  d="M -0.2 -7.7 L -1.2700000000000025 -7.700000000000001 " stroke="#191919" stroke-width="0.35 px" style="stroke-width:0.35;stroke-miterlimit:4;stroke-dasharray:none;fill:none;fill-opacity:1;fill-rule: evenodd"/>
<path id="Shape2DView_nwe0015"  d="M -1.270000000000002 -8.3 L -0.19999999999999996 -8.3 " stroke="#191919" stroke-width="0.35 px" style="stroke-width:0.35;stroke-miterlimit:4;stroke-dasharray:none;fill:none;fill-opacity:1;fill-rule: evenodd"/>
<path id="Shape2DView_nwe0016"  d="M -0.2 -11.7 L -1.2700000000000007 -11.7 " stroke="#191919" stroke-width="0.35 px" style="stroke-width:0.35;stroke-miterlimit:4;stroke-dasharray:none;fill:none;fill-opacity:1;fill-rule: evenodd"/>
<path id="Shape2DView_nwe0017"  d="M -1.2700000000000002 -12.3 L -0.19999999999999996 -12.3 " stroke="#191919" stroke-width="0.35 px" style="stroke-width:0.35;stroke-miterlimit:4;stroke-dasharray:none;fill:none;fill-opacity:1;fill-rule: evenodd"/>
<path id="Shape2DView_nwe0018"  d="M -0.19999999999999993 0.3 L -0.16641065716900758 0.3 L -0.13324371981310562 0.30000000000000004 L -0.10091628141344981 0.30000000000000004 L -0.0698348782647325 0.30000000000000004 L -0.040390377045398995 0.30000000000000004 L -0.012953059442379955 0.30000000000000004 L 0.012132034355964272 0.3000000000000001 L 0.03454944474040894 0.3000000000000001 L 0.05401725976848526 0.3000000000000001 L 0.07029066037072573 0.3000000000000001 L 0.0831649990925103 0.3000000000000001 L 0.09247837365454703 0.3000000000000001 L 0.09811366296797275 0.3000000000000001 L 0.09999999999999998 0.3000000000000001 " stroke="#191919" stroke-width="0.35 px" style="stroke-width:0.35;stroke-miterlimit:4;stroke-dasharray:none;fill:none;fill-opacity:1;fill-rule: evenodd"/>
<path id="Shape2DView_nwe0019"  d="M -0.19999999999999993 -0.3 L -0.16641065716900758 -0.3 L -0.13324371981310562 -0.29999999999999993 L -0.10091628141344981 -0.29999999999999993 L -0.0698348782647325 -0.29999999999999993 L -0.040390377045398995 -0.29999999999999993 L -0.012953059442379955 -0.29999999999999993 L 0.012132034355964272 -0.2999999999999999 L 0.03454944474040894 -0.2999999999999999 L 0.05401725976848526 -0.2999999999999999 L 0.07029066037072573 -0.2999999999999999 L 0.0831649990925103 -0.2999999999999999 L 0.09247837365454703 -0.2999999999999999 L 0.09811366296797275 -0.2999999999999999 L 0.09999999999999998 -0.2999999999999999 " stroke="#191919" stroke-width="0.35 px" style="stroke-width:0.35;stroke-miterlimit:4;stroke-dasharray:none;fill:none;fill-opacity:1;fill-rule: evenodd"/>
<path id="Shape2DView_nwe0020"  d="M 0.1 -0.3 L 0.09999999999999974 0.3 " stroke="#191919" stroke-width="0.35 px" style="stroke-width:0.35;stroke-miterlimit:4;stroke-dasharray:none;fill:none;fill-opacity:1;fill-rule: evenodd"/>
<path id="Shape2DView_nwe0021"  d="M -0.19999999999999993 -1.7 L -0.16641065716900758 -1.7 L -0.13324371981310562 -1.7 L -0.10091628141344981 -1.7 L -0.0698348782647325 -1.7 L -0.040390377045398995 -1.7 L -0.012953059442379955 -1.7 L 0.012132034355964272 -1.7 L 0.03454944474040894 -1.7 L 0.05401725976848526 -1.6999999999999997 L 0.07029066037072573 -1.6999999999999997 L 0.0831649990925103 -1.6999999999999997 L 0.09247837365454703 -1.6999999999999997 L 0.09811366296797275 -1.6999999999999997 L 0.09999999999999998 -1.6999999999999997 " stroke="#191919" stroke-width="0.35 px" style="stroke-width:0.35;stroke-miterlimit:4;stroke-dasharray:none;fill:none;fill-opacity:1;fill-rule: evenodd"/>
<path id="Shape2DView_nwe0022"  d="M -0.19999999999999993 -2.3 L -0.16641065716900758 -2.3 L -0.13324371981310562 -2.3 L -0.10091628141344981 -2.3 L -0.0698348782647325 -2.3 L -0.040390377045398995 -2.3 L -0.012953059442379955 -2.3 L 0.012132034355964272 -2.3 L 0.03454944474040894 -2.3 L 0.05401725976848526 -2.3 L 0.07029066037072573 -2.3 L 0.0831649990925103 -2.3 L 0.09247837365454703 -2.3 L 0.09811366296797275 -2.3 L 0.09999999999999998 -2.3 " stroke="#191919" stroke-width="0.35 px" style="stroke-width:0.35;stroke-miterlimit:4;stroke-dasharray:none;fill:none;fill-opacity:1;fill-rule: evenodd"/>
<path id="Shape2DView_nwe0023"  d="M 0.1 -2.3 L 0.09999999999999974 -1.7 " stroke="#191919" stroke-width="0.35 px" style="stroke-width:0.35;stroke-miterlimit:4;stroke-dasharray:none;fill:none;fill-opacity:1;fill-rule: evenodd"/>
<path id="Shape2DView_nwe0024"  d="M -0.19999999999999993 -3.7 L -0.16641065716900758 -3.7 L -0.13324371981310562 -3.7 L -0.10091628141344981 -3.7 L -0.0698348782647325 -3.7 L -0.040390377045398995 -3.7 L -0.012953059442379955 -3.7 L 0.012132034355964272 -3.7 L 0.03454944474040894 -3.7 L 0.05401725976848526 -3.7 L 0.07029066037072573 -3.7 L 0.0831649990925103 -3.7 L 0.09247837365454703 -3.7 L 0.09811366296797275 -3.7 L 0.09999999999999998 -3.7 " stroke="#191919" stroke-width="0.35 px" style="stroke-width:0.35;stroke-miterlimit:4;stroke-dasharray:none;fill:none;fill-opacity:1;fill-rule: evenodd"/>
<path id="Shape2DView_nwe0025"  d="M -0.19999999999999993 -4.3 L -0.16641065716900758 -4.3 L -0.13324371981310562 -4.3 L -0.10091628141344981 -4.3 L -0.0698348782647325 -4.3 L -0.040390377045398995 -4.3 L -0.012953059442379955 -4.3 L 0.012132034355964272 -4.3 L 0.03454944474040894 -4.3 L 0.05401725976848526 -4.3 L 0.07029066037072573 -4.3 L 0.0831649990925103 -4.3 L 0.09247837365454703 -4.3 L 0.09811366296797275 -4.3 L 0.09999999999999998 -4.3 " stroke="#191919" stroke-width="0.35 px" style="stroke-width:0.35;stroke-miterlimit:4;stroke-dasharray:none;fill:none;fill-opacity:1;fill-rule: evenodd"/>
<path id="Shape2DView_nwe0026"  d="M 0.1 -4.3 L 0.09999999999999974 -3.7 " stroke="#191919" stroke-width="0.35 px" style="stroke-width:0.35;stroke-miterlimit:4;stroke-dasharray:none;fill:none;fill-opacity:1;fill-rule: evenodd"/>
<path id="Shape2DView_nwe0027"  d="M -0.19999999999999993 -5.7 L -0.16641065716900758 -5.7 L -0.13324371981310562 -5.7 L -0.10091628141344981 -5.7 L -0.0698348782647325 -5.7 L -0.040390377045398995 -5.7 L -0.012953059442379955 -5.7 L 0.012132034355964272 -5.7 L 0.03454944474040894 -5.7 L 0.05401725976848526 -5.7 L 0.07029066037072573 -5.7 L 0.0831649990925103 -5.7 L 0.09247837365454703 -5.7 L 0.09811366296797275 -5.7 L 0.09999999999999998 -5.7 " stroke="#191919" stroke-width="0.35 px" style="stroke-width:0.35;stroke-miterlimit:4;stroke-dasharray:none;fill:none;fill-opacity:1;fill-rule: evenodd"/>
<path id="Shape2DView_nwe0028"  d="M -0.19999999999999993 -6.3 L -0.16641065716900758 -6.3 L -0.13324371981310562 -6.3 L -0.10091628141344981 -6.3 L -0.0698348782647325 -6.3 L -0.040390377045398995 -6.3 L -0.012953059442379955 -6.3 L 0.012132034355964272 -6.3 L 0.03454944474040894 -6.3 L 0.05401725976848526 -6.3 L 0.07029066037072573 -6.3 L 0.0831649990925103 -6.3 L 0.09247837365454703 -6.3 L 0.09811366296797275 -6.3 L 0.09999999999999998 -6.3 " stroke="#191919" stroke-width="0.35 px" style="stroke-width:0.35;stroke-miterlimit:4;stroke-dasharray:none;fill:none;fill-opacity:1;fill-rule: evenodd"/>
<path id="Shape2DView_nwe0029"  d="M 0.1 -6.3 L 0.09999999999999974 -5.7 " stroke="#191919" stroke-width="0.35 px" style="stroke-width:0.35;stroke-miterlimit:4;stroke-dasharray:none;fill:none;fill-opacity:1;fill-rule: evenodd"/>
<path id="Shape2DView_nwe0030"  d="M -0.19999999999999993 -9.7 L -0.16641065716900758 -9.7 L -0.13324371981310562 -9.7 L -0.10091628141344981 -9.7 L -0.0698348782647325 -9.7 L -0.040390377045398995 -9.7 L -0.012953059442379955 -9.7 L 0.012132034355964272 -9.7 L 0.03454944474040894 -9.7 L 0.05401725976848526 -9.7 L 0.07029066037072573 -9.7 L 0.0831649990925103 -9.7 L 0.09247837365454703 -9.7 L 0.09811366296797275 -9.7 L 0.09999999999999998 -9.7 " stroke="#191919" stroke-width="0.35 px" style="stroke-width:0.35;stroke-miterlimit:4;stroke-dasharray:none;fill:none;fill-opacity:1;fill-rule: evenodd"/>
<path id="Shape2DView_nwe0031"  d="M -0.19999999999999993 -10.3 L -0.16641065716900758 -10.3 L -0.13324371981310562 -10.3 L -0.10091628141344981 -10.3 L -0.0698348782647325 -10.3 L -0.040390377045398995 -10.3 L -0.012953059442379955 -10.3 L 0.012132034355964272 -10.3 L 0.03454944474040894 -10.3 L 0.05401725976848526 -10.3 L 0.07029066037072573 -10.3 L 0.0831649990925103 -10.3 L 0.09247837365454703 -10.3 L 0.09811366296797275 -10.3 L 0.09999999999999998 -10.3 " stroke="#191919" stroke-width="0.35 px" style="stroke-width:0.35;stroke-miterlimit:4;stroke-dasharray:none;fill:none;fill-opacity:1;fill-rule: evenodd"/>
<path id="Shape2DView_nwe0032"  d="M 0.1 -10.3 L 0.09999999999999974 -9.7 " stroke="#191919" stroke-width="0.35 px" style="stroke-width:0.35;stroke-miterlimit:4;stroke-dasharray:none;fill:none;fill-opacity:1;fill-rule: evenodd"/>
<path id="Shape2DView_nwe0033"  d="M -0.19999999999999993 -7.7 L -0.16641065716900758 -7.7 L -0.13324371981310562 -7.7 L -0.10091628141344981 -7.7 L -0.0698348782647325 -7.7 L -0.040390377045398995 -7.7 L -0.012953059442379955 -7.7 L 0.012132034355964272 -7.7 L 0.03454944474040894 -7.7 L 0.05401725976848526 -7.7 L 0.07029066037072573 -7.7 L 0.0831649990925103 -7.7 L 0.09247837365454703 -7.7 L 0.09811366296797275 -7.7 L 0.09999999999999998 -7.7 " stroke="#191919" stroke-width="0.35 px" style="stroke-width:0.35;stroke-miterlimit:4;stroke-dasharray:none;fill:none;fill-opacity:1;fill-rule: evenodd"/>
<path id="Shape2DView_nwe0034"  d="M -0.19999999999999993 -8.3 L -0.16641065716900758 -8.3 L -0.13324371981310562 -8.3 L -0.10091628141344981 -8.3 L -0.0698348782647325 -8.3 L -0.040390377045398995 -8.3 L -0.012953059442379955 -8.3 L 0.012132034355964272 -8.3 L 0.03454944474040894 -8.3 L 0.05401725976848526 -8.3 L 0.07029066037072573 -8.3 L 0.0831649990925103 -8.3 L 0.09247837365454703 -8.3 L 0.09811366296797275 -8.3 L 0.09999999999999998 -8.3 " stroke="#191919" stroke-width="0.35 px" style="stroke-width:0.35;stroke-miterlimit:4;stroke-dasharray:none;fill:none;fill-opacity:1;fill-rule: evenodd"/>
<path id="Shape2DView_nwe0035"  d="M 0.1 -8.3 L 0.09999999999999974 -7.7 " stroke="#191919" stroke-width="0.35 px" style="stroke-width:0.35;stroke-miterlimit:4;stroke-dasharray:none;fill:none;fill-opacity:1;fill-rule: evenodd"/>
<path id="Shape2DView_nwe0036"  d="M -0.19999999999999993 -11.7 L -0.16641065716900758 -11.7 L -0.13324371981310562 -11.7 L -0.10091628141344981 -11.7 L -0.0698348782647325 -11.7 L -0.040390377045398995 -11.7 L -0.012953059442379955 -11.7 L 0.012132034355964272 -11.7 L 0.03454944474040894 -11.7 L 0.05401725976848526 -11.7 L 0.07029066037072573 -11.7 L 0.0831649990925103 -11.7 L 0.09247837365454703 -11.7 L 0.09811366296797275 -11.7 L 0.09999999999999998 -11.7 " stroke="#191919" stroke-width="0.35 px" style="stroke-width:0.35;stroke-miterlimit:4;stroke-dasharray:none;fill:none;fill-opacity:1;fill-rule: evenodd"/>
<path id="Shape2DView_nwe0037"  d="M -0.19999999999999993 -12.3 L -0.16641065716900758 -12.3 L -0.13324371981310562 -12.3 L -0.10091628141344981 -12.3 L -0.0698348782647325 -12.3 L -0.040390377045398995 -12.3 L -0.012953059442379955 -12.3 L 0.012132034355964272 -12.3 L 0.03454944474040894 -12.3 L 0.05401725976848526 -12.3 L 0.07029066037072573 -12.3 L 0.0831649990925103 -12.3 L 0.09247837365454703 -12.3 L 0.09811366296797275 -12.3 L 0.09999999999999998 -12.3 " stroke="#191919" stroke-width="0.35 px" style="stroke-width:0.35;stroke-miterlimit:4;stroke-dasharray:none;fill:none;fill-opacity:1;fill-rule: evenodd"/>
<path id="Shape2DView_nwe0038"  d="M 0.1 -12.3 L 0.09999999999999974 -11.7 " stroke="#191919" stroke-width="0.35 px" style="stroke-width:0.35;stroke-miterlimit:4;stroke-dasharray:none;fill:none;fill-opacity:1;fill-rule: evenodd"/>
<path id="Shape2DView_nwe0039"  d="M -0.2 -0.3 L -0.2000000000000003 0.3 " stroke="#191919" stroke-width="0.35 px" style="stroke-width:0.35;stroke-miterlimit:4;stroke-dasharray:none;fill:none;fill-opacity:1;fill-rule: evenodd"/>
<path id="Shape2DView_nwe0040"  d="M -0.2 -2.3 L -0.2000000000000003 -1.7 " stroke="#191919" stroke-width="0.35 px" style="stroke-width:0.35;stroke-miterlimit:4;stroke-dasharray:none;fill:none;fill-opacity:1;fill-rule: evenodd"/>
<path id="Shape2DView_nwe0041"  d="M -0.2 -4.3 L -0.2000000000000003 -3.7 " stroke="#191919" stroke-width="0.35 px" style="stroke-width:0.35;stroke-miterlimit:4;stroke-dasharray:none;fill:none;fill-opacity:1;fill-rule: evenodd"/>
<path id="Shape2DView_nwe0042"  d="M -0.2 -6.3 L -0.2000000000000003 -5.7 " stroke="#191919" stroke-width="0.35 px" style="stroke-width:0.35;stroke-miterlimit:4;stroke-dasharray:none;fill:none;fill-opacity:1;fill-rule: evenodd"/>
<path id="Shape2DView_nwe0043"  d="M -0.2 -10.3 L -0.2000000000000003 -9.7 " stroke="#191919" stroke-width="0.35 px" style="stroke-width:0.35;stroke-miterlimit:4;stroke-dasharray:none;fill:none;fill-opacity:1;fill-rule: evenodd"/>
<path id="Shape2DView_nwe0044"  d="M -0.2 -8.3 L -0.2000000000000003 -7.7 " stroke="#191919" stroke-width="0.35 px" style="stroke-width:0.35;stroke-miterlimit:4;stroke-dasharray:none;fill:none;fill-opacity:1;fill-rule: evenodd"/>
<path id="Shape2DView_nwe0045"  d="M -0.2 -12.3 L -0.2000000000000003 -11.7 " stroke="#191919" stroke-width="0.35 px" style="stroke-width:0.35;stroke-miterlimit:4;stroke-dasharray:none;fill:none;fill-opacity:1;fill-rule: evenodd"/>
<title>b'Shape2DView'</title>
</g>
<g id="Rectangle" transform="translate(7.706200,1.086200) scale(1,-1)">
<rect fill="#ff0000" id="origin" width="1" height="1" x="0" y="0" />
<title>b'Rectangle'</title>
</g>
</svg>