<?xml version="1.0"?>
<!DOCTYPE svg PUBLIC "-//W3C//DTD SVG 1.1//EN" "http://www.w3.org/Graphics/SVG/1.1/DTD/svg11.dtd">
<svg width="8.792400000000004mm" height="8.172400000000003mm" viewBox="0 0 8.792400000000004 8.172400000000003" xmlns="http://www.w3.org/2000/svg" version="1.1">
<g id="Shape2DView" transform="translate(7.706200,1.086200) scale(1,-1)">
<path id="Shape2DView_nwe0000"  d="M -1.27 -7.0 L -7.619999999999999 -7.000000000000003 " stroke="#191919" stroke-width="0.35 px" style="stroke-width:0.35;stroke-miterlimit:4;stroke-dasharray:none;fill:none;fill-opacity:1;fill-rule: evenodd"/>
<path id="Shape2DView_nwe0001"  d="M -7.62 -7.0 L -7.620000000000004 1.0 " stroke="#191919" stroke-width="0.35 px" style="stroke-width:0.35;stroke-miterlimit:4;stroke-dasharray:none;fill:none;fill-opacity:1;fill-rule: evenodd"/>
<path id="Shape2DView_nwe0002"  d="M -1.27 1.0 L -7.619999999999999 0.9999999999999972 " stroke="#191919" stroke-width="0.35 px" style="stroke-width:0.35;stroke-miterlimit:4;stroke-dasharray:none;fill:none;fill-opacity:1;fill-rule: evenodd"/>
<path id="Shape2DView_nwe0003"  d="M -1.27 -7.0 L -1.2700000000000036 1.0 " stroke="#191919" stroke-width="0.35 px" style="stroke-width:0.35;stroke-miterlimit:4;stroke-dasharray:none;fill:none;fill-opacity:1;fill-rule: evenodd"/>
<path id="Shape2DView_nwe0004"  d="M -0.2 -3.7 L -1.2700000000000016 -3.7000000000000006 " stroke="#191919" stroke-width="0.35 px" style="stroke-width:0.35;stroke-miterlimit:4;stroke-dasharray:none;fill:none;fill-opacity:1;fill-rule: evenodd"/>
<path id="Shape2DView_nwe0005"  d="M -1.2700000000000011 -4.3 L -0.19999999999999996 -4.299999999999999 " stroke="#191919" stroke-width="0.35 px" style="stroke-width:0.35;stroke-miterlimit:4;stroke-dasharray:none;fill:none;fill-opacity:1;fill-rule: evenodd"/>
<path id="Shape2DView_nwe0006"  d="M -0.2 -1.7 L -1.2700000000000025 -1.7000000000000004 " stroke="#191919" stroke-width="0.35 px" style="stroke-width:0.35;stroke-miterlimit:4;stroke-dasharray:none;fill:none;fill-opacity:1;fill-rule: evenodd"/>
<path id="Shape2DView_nwe0007"  d="M -1.270000000000002 -2.3 L -0.19999999999999996 -2.2999999999999994 " stroke="#191919" stroke-width="0.35 px" style="stroke-width:0.35;stroke-miterlimit:4;stroke-dasharray:none;fill:none;fill-opacity:1;fill-rule: evenodd"/>
<path id="Shape2DView_nwe0008"  d="M -0.2 0.3 L -1.2700000000000033 0.2999999999999995 " stroke="#191919" stroke-width="0.35 px" style="stroke-width:0.35;stroke-miterlimit:4;stroke-dasharray:none;fill:none;fill-opacity:1;fill-rule: evenodd"/>
<path id="Shape2DView_nwe0009"  d="M -1.270000000000003 -0.2999999999999999 L -0.19999999999999996 -0.29999999999999943 " stroke="#191919" stroke-width="0.35 px" style="stroke-width:0.35;stroke-miterlimit:4;stroke-dasharray:none;fill:none;fill-opacity:1;fill-rule: evenodd"/>
<path id="Shape2DView_nwe0010"  d="M -0.2 -5.7 L -1.2700000000000007 -5.700000000000001 " stroke="#191919" stroke-width="0.35 px" style="stroke-width:0.35;stroke-miterlimit:4;stroke-dasharray:none;fill:none;fill-opacity:1;fill-rule: evenodd"/>
<path id="Shape2DView_nwe0011"  d="M -1.2700000000000002 -6.3 L -0.19999999999999996 -6.299999999999999 " stroke="#191919" stroke-width="0.35 px" style="stroke-width:0.35;stroke-miterlimit:4;stroke-dasharray:none;fill:none;fill-opacity:1;fill-rule: evenodd"/>
<path id="Shape2DView_nwe0012"  d="M -0.19999999999999993 -3.7 L -0.16641065716900758 -3.7 L -0.13324371981310562 -3.7 L -0.10091628141344981 -3.7 L -0.0698348782647325 -3.7 L -0.040390377045398995 -3.7 L -0.012953059442379955 -3.7 L 0.012132034355964272 -3.7 L 0.03454944474040894 -3.7 L 0.05401725976848526 -3.7 L 0.07029066037072573 -3.7 L 0.0831649990925103 -3.7 L 0.09247837365454703 -3.7 L 0.09811366296797275 -3.7 L 0.09999999999999998 -3.7 " stroke="#191919" stroke-width="0.35 px" style="stroke-width:0.35;stroke-miterlimit:4;stroke-dasharray:none;fill:none;fill-opacity:1;fill-rule: evenodd"/>
<path id="Shape2DView_nwe0013"  d="M -0.19999999999999993 -4.3 L -0.16641065716900758 -4.3 L -0.13324371981310562 -4.3 L -0.10091628141344981 -4.3 L -0.0698348782647325 -4.3 L -0.040390377045398995 -4.3 L -0.012953059442379955 -4.3 L 0.012132034355964272 -4.3 L 0.03454944474040894 -4.3 L 0.05401725976848526 -4.3 L 0.07029066037072573 -4.3 L 0.0831649990925103 -4.3 L 0.09247837365454703 -4.3 L 0.09811366296797275 -4.3 L 0.09999999999999998 -4.3 " stroke="#191919" stroke-width="0.35 px" style="stroke-width:0.35;stroke-miterlimit:4;stroke-dasharray:none;fill:none;fill-opacity:1;fill-rule: evenodd"/>
<path id="Shape2DView_nwe0014"  d="M 0.1 -4.3 L 0.09999999999999974 -3.7 " stroke="#191919" stroke-width="0.35 px" style="stroke-width:0.35;stroke-miterlimit:4;stroke-dasharray:none;fill:none;fill-opacity:1;fill-rule: evenodd"/>
<path id="Shape2DView_nwe0015"  d="M -0.19999999999999993 -1.7 L -0.16641065716900758 -1.7 L -0.13324371981310562 -1.7 L -0.10091628141344981 -1.7 L -0.0698348782647325 -1.7 L -0.040390377045398995 -1.7 L -0.012953059442379955 -1.7 L 0.012132034355964272 -1.7 L 0.03454944474040894 -1.7 L 0.05401725976848526 -1.6999999999999997 L 0.07029066037072573 -1.6999999999999997 L 0.0831649990925103 -1.6999999999999997 L 0.09247837365454703 -1.6999999999999997 L 0.09811366296797275 -1.6999999999999997 L 0.09999999999999998 -1.6999999999999997 " stroke="#191919" stroke-width="0.35 px" style="stroke-width:0.35;stroke-miterlimit:4;stroke-dasharray:none;fill:none;fill-opacity:1;fill-rule: evenodd"/>
<path id="Shape2DView_nwe0016"  d="M -0.19999999999999993 -2.3 L -0.16641065716900758 -2.3 L -0.13324371981310562 -2.3 L -0.10091628141344981 -2.3 L -0.0698348782647325 -2.3 L -0.040390377045398995 -2.3 L -0.012953059442379955 -2.3 L 0.012132034355964272 -2.3 L 0.03454944474040894 -2.3 L 0.05401725976848526 -2.3 L 0.07029066037072573 -2.3 L 0.0831649990925103 -2.3 L 0.09247837365454703 -2.3 L 0.09811366296797275 -2.3 L 0.09999999999999998 -2.3 " stroke="#191919" stroke-width="0.35 px" style="stroke-width:0.35;stroke-miterlimit:4;stroke-dasharray:none;fill:none;fill-opacity:1;fill-rule: evenodd"/>
<path id="Shape2DView_nwe0017"  d="M 0.1 -2.3 L 0.09999999999999974 -1.7 " stroke="#191919" stroke-width="0.35 px" style="stroke-width:0.35;stroke-miterlimit:4;stroke-dasharray:none;fill:none;fill-opacity:1;fill-rule: evenodd"/>
<path id="Shape2DView_nwe0018"  d="M -0.19999999999999993 0.3 L -0.16641065716900758 0.3 L -0.13324371981310562 0.30000000000000004 L -0.10091628141344981 0.30000000000000004 L -0.0698348782647325 0.30000000000000004 L -0.040390377045398995 0.30000000000000004 L -0.012953059442379955 0.30000000000000004 L 0.012132034355964272 0.3000000000000001 L 0.03454944474040894 0.3000000000000001 L 0.05401725976848526 0.3000000000000001 L 0.07029066037072573 0.3000000000000001 L 0.0831649990925103 0.3000000000000001 L 0.09247837365454703 0.3000000000000001 L 0.09811366296797275 0.3000000000000001 L 0.09999999999999998 0.3000000000000001 " stroke="#191919" stroke-width="0.35 px" style="stroke-width:0.35;stroke-miterlimit:4;stroke-dasharray:none;fill:none;fill-opacity:1;fill-rule: evenodd"/>
<path id="Shape2DView_nwe0019"  d="M -0.19999999999999993 -0.3 L -0.16641065716900758 -0.3 L -0.13324371981310562 -0.29999999999999993 L -0.10091628141344981 -0.29999999999999993 L -0.0698348782647325 -0.29999999999999993 L -0.040390377045398995 -0.29999999999999993 L -0.012953059442379955 -0.29999999999999993 L 0.012132034355964272 -0.2999999999999999 L 0.03454944474040894 -0.2999999999999999 L 0.05401725976848526 -0.2999999999999999 L 0.07029066037072573 -0.2999999999999999 L 0.0831649990925103 -0.2999999999999999 L 0.09247837365454703 -0.2999999999999999 L 0.09811366296797275 -0.2999999999999999 L 0.09999999999999998 -0.2999999999999999 " stroke="#191919" stroke-width="0.35 px" style="stroke-width:0.35;stroke-miterlimit:4;stroke-dasharray:none;fill:none;fill-opacity:1;fill-rule: evenodd"/>
<path id="Shape2DView_nwe0020"  d="M 0.1 -0.3 L 0.09999999999999974 0.3 " stroke="#191919" stroke-width="0.35 px" style="stroke-width:0.35;stroke-miterlimit:4;stroke-dasharray:none;fill:none;fill-opacity:1;fill-rule: evenodd"/>
<path id="Shape2DView_nwe0021"  d="M -0.19999999999999993 -5.7 L -0.16641065716900758 -5.7 L -0.13324371981310562 -5.7 L -0.10091628141344981 -5.7 L -0.0698348782647325 -5.7 L -0.040390377045398995 -5.7 L -0.012953059442379955 -5.7 L 0.012132034355964272 -5.7 L 0.03454944474040894 -5.7 L 0.05401725976848526 -5.7 L 0.07029066037072573 -5.7 L 0.0831649990925103 -5.7 L 0.09247837365454703 -5.7 L 0.09811366296797275 -5.7 L 0.09999999999999998 -5.7 " stroke="#191919" stroke-width="0.35 px" style="stroke-width:0.35;stroke-miterlimit:4;stroke-dasharray:none;fill:none;fill-opacity:1;fill-rule: evenodd"/>
<path id="Shape2DView_nwe0022"  d="M -0.19999999999999993 -6.3 L -0.16641065716900758 -6.3 L -0.13324371981310562 -6.3 L -0.10091628141344981 -6.3 L -0.0698348782647325 -6.3 L -0.040390377045398995 -6.3 L -0.012953059442379955 -6.3 L 0.012132034355964272 -6.3 L 0.03454944474040894 -6.3 L 0.05401725976848526 -6.3 L 0.07029066037072573 -6.3 L 0.0831649990925103 -6.3 L 0.09247837365454703 -6.3 L 0.09811366296797275 -6.3 L 0.09999999999999998 -6.3 " stroke="#191919" stroke-width="0.35 px" style="stroke-width:0.35;stroke-miterlimit:4;stroke-dasharray:none;fill:none;fill-opacity:1;fill-rule: evenodd"/>
<path id="Shape2DView_nwe0023"  d="M 0.1 -6.3 L 0.09999999999999974 -5.7 " stroke="#191919" stroke-width="0.35 px" style="stroke-width:0.35;stroke-miterlimit:4;stroke-dasharray:none;fill:none;fill-opacity:1;fill-rule: evenodd"/>
<path id="Shape2DView_nwe0024"  d="M -0.2 -4.3 L -0.2000000000000003 -3.7 " stroke="#191919" stroke-width="0.35 px" style="stroke-width:0.35;stroke-miterlimit:4;stroke-dasharray:none;fill:none;fill-opacity:1;fill-rule: evenodd"/>
<path id="Shape2DView_nwe0025"  d="M -0.2 -2.3 L -0.2000000000000003 -1.7 " stroke="#191919" stroke-width="0.35 px" style="stroke-width:0.35;stroke-miterlimit:4;stroke-dasharray:none;fill:none;fill-opacity:1;fill-rule: evenodd"/>
<path id="Shape2DView_nwe0026"  d="M -0.2 -0.3 L -0.2000000000000003 0.3 " stroke="#191919" stroke-width="0.35 px" style="stroke-width:0.35;stroke-miterlimit:4;stroke-dasharray:none;fill:none;fill-opacity:1;fill-rule: evenodd"/>
<path id="Shape2DView_nwe0027"  d="M -0.2 -6.3 L -0.2000000000000003 -5.7 " stroke="#191919" stroke-width="0.35 px" style="stroke-width:0.35;stroke-miterlimit:4;stroke-dasharray:none;fill:none;fill-opacity:1;fill-rule: evenodd"/>
<title>b'Shape2DView'</title>
</g>
<g id="Rectangle" transform="translate(7.706200,1.086200) scale(1,-1)">
<rect fill="#ff0000" id="origin" width="1" height="1" x="0" y="0" />
<title>b'Rectangle'</title>
</g>
</svg>