<?xml version="1.0"?>
<!DOCTYPE svg PUBLIC "-//W3C//DTD SVG 1.1//EN" "http://www.w3.org/Graphics/SVG/1.1/DTD/svg11.dtd">
<svg width="10.832400000000012mm" height="30.212400000000006mm" viewBox="0 0 10.832400000000012 30.212400000000006" xmlns="http://www.w3.org/2000/svg" version="1.1">
<g id="Shape2DView" transform="translate(9.726200,1.106200) scale(1,-1)">
<path id="Shape2DView_nwe0000"  d="M -3.27 -29.0 L -9.62 -29.000000000000004 " stroke="#191919" stroke-width="0.35 px" style="stroke-width:0.35;stroke-miterlimit:4;stroke-dasharray:none;fill:none;fill-opacity:1;fill-rule: evenodd"/>
<path id="Shape2DView_nwe0001"  d="M -9.62 -29.0 L -9.620000000000013 1.0 " stroke="#191919" stroke-width="0.35 px" style="stroke-width:0.35;stroke-miterlimit:4;stroke-dasharray:none;fill:none;fill-opacity:1;fill-rule: evenodd"/>
<path id="Shape2DView_nwe0002"  d="M -3.27 1.0 L -9.62 0.9999999999999972 " stroke="#191919" stroke-width="0.35 px" style="stroke-width:0.35;stroke-miterlimit:4;stroke-dasharray:none;fill:none;fill-opacity:1;fill-rule: evenodd"/>
<path id="Shape2DView_nwe0003"  d="M -3.27 -29.0 L -3.2700000000000133 1.0 " stroke="#191919" stroke-width="0.35 px" style="stroke-width:0.35;stroke-miterlimit:4;stroke-dasharray:none;fill:none;fill-opacity:1;fill-rule: evenodd"/>
<path id="Shape2DView_nwe0004"  d="M -0.2 -7.7 L -3.2700000000000093 -7.700000000000002 " stroke="#191919" stroke-width="0.35 px" style="stroke-width:0.35;stroke-miterlimit:4;stroke-dasharray:none;fill:none;fill-opacity:1;fill-rule: evenodd"/>
<path id="Shape2DView_nwe0005"  d="M -3.2700000000000093 -8.3 L -0.20000000000000018 -8.299999999999999 " stroke="#191919" stroke-width="0.35 px" style="stroke-width:0.35;stroke-miterlimit:4;stroke-dasharray:none;fill:none;fill-opacity:1;fill-rule: evenodd"/>
<path id="Shape2DView_nwe0006"  d="M -0.2 -5.7 L -3.2700000000000102 -5.700000000000002 " stroke="#191919" stroke-width="0.35 px" style="stroke-width:0.35;stroke-miterlimit:4;stroke-dasharray:none;fill:none;fill-opacity:1;fill-rule: evenodd"/>
<path id="Shape2DView_nwe0007"  d="M -3.2700000000000102 -6.3 L -0.20000000000000018 -6.299999999999998 " stroke="#191919" stroke-width="0.35 px" style="stroke-width:0.35;stroke-miterlimit:4;stroke-dasharray:none;fill:none;fill-opacity:1;fill-rule: evenodd"/>
<path id="Shape2DView_nwe0008"  d="M -0.2 0.3 L -3.270000000000013 0.2999999999999986 " stroke="#191919" stroke-width="0.35 px" style="stroke-width:0.35;stroke-miterlimit:4;stroke-dasharray:none;fill:none;fill-opacity:1;fill-rule: evenodd"/>
<path id="Shape2DView_nwe0009"  d="M -3.270000000000013 -0.2999999999999999 L -0.20000000000000018 -0.29999999999999855 " stroke="#191919" stroke-width="0.35 px" style="stroke-width:0.35;stroke-miterlimit:4;stroke-dasharray:none;fill:none;fill-opacity:1;fill-rule: evenodd"/>
<path id="Shape2DView_nwe0010"  d="M -0.2 -1.7 L -3.270000000000012 -1.7000000000000013 " stroke="#191919" stroke-width="0.35 px" style="stroke-width:0.35;stroke-miterlimit:4;stroke-dasharray:none;fill:none;fill-opacity:1;fill-rule: evenodd"/>
<path id="Shape2DView_nwe0011"  d="M -3.270000000000012 -2.3 L -0.20000000000000018 -2.2999999999999985 " stroke="#191919" stroke-width="0.35 px" style="stroke-width:0.35;stroke-miterlimit:4;stroke-dasharray:none;fill:none;fill-opacity:1;fill-rule: evenodd"/>
<path id="Shape2DView_nwe0012"  d="M -0.2 -3.7 L -3.270000000000011 -3.7000000000000015 " stroke="#191919" stroke-width="0.35 px" style="stroke-width:0.35;stroke-miterlimit:4;stroke-dasharray:none;fill:none;fill-opacity:1;fill-rule: evenodd"/>
<path id="Shape2DView_nwe0013"  d="M -3.270000000000011 -4.3 L -0.20000000000000018 -4.299999999999998 " stroke="#191919" stroke-width="0.35 px" style="stroke-width:0.35;stroke-miterlimit:4;stroke-dasharray:none;fill:none;fill-opacity:1;fill-rule: evenodd"/>
<path id="Shape2DView_nwe0014"  d="M -0.2 -13.7 L -3.2700000000000067 -13.700000000000001 " stroke="#191919" stroke-width="0.35 px" style="stroke-width:0.35;stroke-miterlimit:4;stroke-dasharray:none;fill:none;fill-opacity:1;fill-rule: evenodd"/>
<path id="Shape2DView_nwe0015"  d="M -3.2700000000000067 -14.3 L -0.20000000000000018 -14.299999999999999 " stroke="#191919" stroke-width="0.35 px" style="stroke-width:0.35;stroke-miterlimit:4;stroke-dasharray:none;fill:none;fill-opacity:1;fill-rule: evenodd"/>
<path id="Shape2DView_nwe0016"  d="M -0.2 -11.7 L -3.2700000000000076 -11.700000000000001 " stroke="#191919" stroke-width="0.35 px" style="stroke-width:0.35;stroke-miterlimit:4;stroke-dasharray:none;fill:none;fill-opacity:1;fill-rule: evenodd"/>
<path id="Shape2DView_nwe0017"  d="M -3.2700000000000076 -12.3 L -0.20000000000000018 -12.299999999999999 " stroke="#191919" stroke-width="0.35 px" style="stroke-width:0.35;stroke-miterlimit:4;stroke-dasharray:none;fill:none;fill-opacity:1;fill-rule: evenodd"/>
<path id="Shape2DView_nwe0018"  d="M -0.2 -9.7 L -3.2700000000000085 -9.700000000000001 " stroke="#191919" stroke-width="0.35 px" style="stroke-width:0.35;stroke-miterlimit:4;stroke-dasharray:none;fill:none;fill-opacity:1;fill-rule: evenodd"/>
<path id="Shape2DView_nwe0019"  d="M -3.2700000000000085 -10.3 L -0.20000000000000018 -10.299999999999999 " stroke="#191919" stroke-width="0.35 px" style="stroke-width:0.35;stroke-miterlimit:4;stroke-dasharray:none;fill:none;fill-opacity:1;fill-rule: evenodd"/>
<path id="Shape2DView_nwe0020"  d="M -0.2 -19.7 L -3.270000000000004 -19.7 " stroke="#191919" stroke-width="0.35 px" style="stroke-width:0.35;stroke-miterlimit:4;stroke-dasharray:none;fill:none;fill-opacity:1;fill-rule: evenodd"/>
<path id="Shape2DView_nwe0021"  d="M -3.270000000000004 -20.3 L -0.20000000000000018 -20.3 " stroke="#191919" stroke-width="0.35 px" style="stroke-width:0.35;stroke-miterlimit:4;stroke-dasharray:none;fill:none;fill-opacity:1;fill-rule: evenodd"/>
<path id="Shape2DView_nwe0022"  d="M -0.2 -17.7 L -3.270000000000005 -17.7 " stroke="#191919" stroke-width="0.35 px" style="stroke-width:0.35;stroke-miterlimit:4;stroke-dasharray:none;fill:none;fill-opacity:1;fill-rule: evenodd"/>
<path id="Shape2DView_nwe0023"  d="M -3.270000000000005 -18.3 L -0.20000000000000018 -18.3 " stroke="#191919" stroke-width="0.35 px" style="stroke-width:0.35;stroke-miterlimit:4;stroke-dasharray:none;fill:none;fill-opacity:1;fill-rule: evenodd"/>
<path id="Shape2DView_nwe0024"  d="M -0.2 -15.7 L -3.270000000000006 -15.700000000000001 " stroke="#191919" stroke-width="0.35 px" style="stroke-width:0.35;stroke-miterlimit:4;stroke-dasharray:none;fill:none;fill-opacity:1;fill-rule: evenodd"/>
<path id="Shape2DView_nwe0025"  d="M -3.270000000000006 -16.3 L -0.20000000000000018 -16.3 " stroke="#191919" stroke-width="0.35 px" style="stroke-width:0.35;stroke-miterlimit:4;stroke-dasharray:none;fill:none;fill-opacity:1;fill-rule: evenodd"/>
<path id="Shape2DView_nwe0026"  d="M -0.2 -27.7 L -3.2700000000000005 -27.7 " stroke="#191919" stroke-width="0.35 px" style="stroke-width:0.35;stroke-miterlimit:4;stroke-dasharray:none;fill:none;fill-opacity:1;fill-rule: evenodd"/>
<path id="Shape2DView_nwe0027"  d="M -3.2700000000000005 -28.3 L -0.20000000000000018 -28.3 " stroke="#191919" stroke-width="0.35 px" style="stroke-width:0.35;stroke-miterlimit:4;stroke-dasharray:none;fill:none;fill-opacity:1;fill-rule: evenodd"/>
<path id="Shape2DView_nwe0028"  d="M -0.2 -25.7 L -3.2700000000000014 -25.7 " stroke="#191919" stroke-width="0.35 px" style="stroke-width:0.35;stroke-miterlimit:4;stroke-dasharray:none;fill:none;fill-opacity:1;fill-rule: evenodd"/>
<path id="Shape2DView_nwe0029"  d="M -3.2700000000000014 -26.3 L -0.20000000000000018 -26.3 " stroke="#191919" stroke-width="0.35 px" style="stroke-width:0.35;stroke-miterlimit:4;stroke-dasharray:none;fill:none;fill-opacity:1;fill-rule: evenodd"/>
<path id="Shape2DView_nwe0030"  d="M -0.2 -23.7 L -3.2700000000000022 -23.7 " stroke="#191919" stroke-width="0.35 px" style="stroke-width:0.35;stroke-miterlimit:4;stroke-dasharray:none;fill:none;fill-opacity:1;fill-rule: evenodd"/>
<path id="Shape2DView_nwe0031"  d="M -3.2700000000000022 -24.3 L -0.20000000000000018 -24.3 " stroke="#191919" stroke-width="0.35 px" style="stroke-width:0.35;stroke-miterlimit:4;stroke-dasharray:none;fill:none;fill-opacity:1;fill-rule: evenodd"/>
<path id="Shape2DView_nwe0032"  d="M -0.2 -21.7 L -3.270000000000003 -21.7 " stroke="#191919" stroke-width="0.35 px" style="stroke-width:0.35;stroke-miterlimit:4;stroke-dasharray:none;fill:none;fill-opacity:1;fill-rule: evenodd"/>
<path id="Shape2DView_nwe0033"  d="M -3.270000000000003 -22.3 L -0.20000000000000018 -22.3 " stroke="#191919" stroke-width="0.35 px" style="stroke-width:0.35;stroke-miterlimit:4;stroke-dasharray:none;fill:none;fill-opacity:1;fill-rule: evenodd"/>
<path id="Shape2DView_nwe0034"  d="M -0.19999999999999993 -7.7 L -0.16641065716900758 -7.7 L -0.13324371981310562 -7.7 L -0.10091628141344981 -7.7 L -0.0698348782647325 -7.7 L -0.040390377045398995 -7.7 L -0.012953059442379955 -7.7 L 0.012132034355964272 -7.7 L 0.03454944474040894 -7.7 L 0.05401725976848526 -7.7 L 0.07029066037072573 -7.7 L 0.0831649990925103 -7.7 L 0.09247837365454703 -7.7 L 0.09811366296797275 -7.7 L 0.09999999999999998 -7.7 " stroke="#191919" stroke-width="0.35 px" style="stroke-width:0.35;stroke-miterlimit:4;stroke-dasharray:none;fill:none;fill-opacity:1;fill-rule: evenodd"/>
<path id="Shape2DView_nwe0035"  d="M -0.19999999999999993 -8.3 L -0.16641065716900758 -8.3 L -0.13324371981310562 -8.3 L -0.10091628141344981 -8.3 L -0.0698348782647325 -8.3 L -0.040390377045398995 -8.3 L -0.012953059442379955 -8.3 L 0.012132034355964272 -8.3 L 0.03454944474040894 -8.3 L 0.05401725976848526 -8.3 L 0.07029066037072573 -8.3 L 0.0831649990925103 -8.3 L 0.09247837365454703 -8.3 L 0.09811366296797275 -8.3 L 0.09999999999999998 -8.3 " stroke="#191919" stroke-width="0.35 px" style="stroke-width:0.35;stroke-miterlimit:4;stroke-dasharray:none;fill:none;fill-opacity:1;fill-rule: evenodd"/>
<path id="Shape2DView_nwe0036"  d="M 0.1 -8.3 L 0.09999999999999974 -7.7 " stroke="#191919" stroke-width="0.35 px" style="stroke-width:0.35;stroke-miterlimit:4;stroke-dasharray:none;fill:none;fill-opacity:1;fill-rule: evenodd"/>
<path id="Shape2DView_nwe0037"  d="M -0.19999999999999993 -5.7 L -0.16641065716900758 -5.7 L -0.13324371981310562 -5.7 L -0.10091628141344981 -5.7 L -0.0698348782647325 -5.7 L -0.040390377045398995 -5.7 L -0.012953059442379955 -5.7 L 0.012132034355964272 -5.7 L 0.03454944474040894 -5.7 L 0.05401725976848526 -5.7 L 0.07029066037072573 -5.7 L 0.0831649990925103 -5.7 L 0.09247837365454703 -5.7 L 0.09811366296797275 -5.7 L 0.09999999999999998 -5.7 " stroke="#191919" stroke-width="0.35 px" style="stroke-width:0.35;stroke-miterlimit:4;stroke-dasharray:none;fill:none;fill-opacity:1;fill-rule: evenodd"/>
<path id="Shape2DView_nwe0038"  d="M -0.19999999999999993 -6.3 L -0.16641065716900758 -6.3 L -0.13324371981310562 -6.3 L -0.10091628141344981 -6.3 L -0.0698348782647325 -6.3 L -0.040390377045398995 -6.3 L -0.012953059442379955 -6.3 L 0.012132034355964272 -6.3 L 0.03454944474040894 -6.3 L 0.05401725976848526 -6.3 L 0.07029066037072573 -6.3 L 0.0831649990925103 -6.3 L 0.09247837365454703 -6.3 L 0.09811366296797275 -6.3 L 0.09999999999999998 -6.3 " stroke="#191919" stroke-width="0.35 px" style="stroke-width:0.35;stroke-miterlimit:4;stroke-dasharray:none;fill:none;fill-opacity:1;fill-rule: evenodd"/>
<path id="Shape2DView_nwe0039"  d="M 0.1 -6.3 L 0.09999999999999974 -5.7 " stroke="#191919" stroke-width="0.35 px" style="stroke-width:0.35;stroke-miterlimit:4;stroke-dasharray:none;fill:none;fill-opacity:1;fill-rule: evenodd"/>
<path id="Shape2DView_nwe0040"  d="M -0.19999999999999993 0.3 L -0.16641065716900758 0.3 L -0.13324371981310562 0.30000000000000004 L -0.10091628141344981 0.30000000000000004 L -0.0698348782647325 0.30000000000000004 L -0.040390377045398995 0.30000000000000004 L -0.012953059442379955 0.30000000000000004 L 0.012132034355964272 0.3000000000000001 L 0.03454944474040894 0.3000000000000001 L 0.05401725976848526 0.3000000000000001 L 0.07029066037072573 0.3000000000000001 L 0.0831649990925103 0.3000000000000001 L 0.09247837365454703 0.3000000000000001 L 0.09811366296797275 0.3000000000000001 L 0.09999999999999998 0.3000000000000001 " stroke="#191919" stroke-width="0.35 px" style="stroke-width:0.35;stroke-miterlimit:4;stroke-dasharray:none;fill:none;fill-opacity:1;fill-rule: evenodd"/>
<path id="Shape2DView_nwe0041"  d="M -0.19999999999999993 -0.3 L -0.16641065716900758 -0.3 L -0.13324371981310562 -0.29999999999999993 L -0.10091628141344981 -0.29999999999999993 L -0.0698348782647325 -0.29999999999999993 L -0.040390377045398995 -0.29999999999999993 L -0.012953059442379955 -0.29999999999999993 L 0.012132034355964272 -0.2999999999999999 L 0.03454944474040894 -0.2999999999999999 L 0.05401725976848526 -0.2999999999999999 L 0.07029066037072573 -0.2999999999999999 L 0.0831649990925103 -0.2999999999999999 L 0.09247837365454703 -0.2999999999999999 L 0.09811366296797275 -0.2999999999999999 L 0.09999999999999998 -0.2999999999999999 " stroke="#191919" stroke-width="0.35 px" style="stroke-width:0.35;stroke-miterlimit:4;stroke-dasharray:none;fill:none;fill-opacity:1;fill-rule: evenodd"/>
<path id="Shape2DView_nwe0042"  d="M 0.09999999999999 -0.3 L 0.09999999999998974 0.3 " stroke="#191919" stroke-width="0.35 px" style="stroke-width:0.35;stroke-miterlimit:4;stroke-dasharray:none;fill:none;fill-opacity:1;fill-rule: evenodd"/>
<path id="Shape2DView_nwe0043"  d="M -0.19999999999999993 -1.7 L -0.16641065716900758 -1.7 L -0.13324371981310562 -1.7 L -0.10091628141344981 -1.7 L -0.0698348782647325 -1.7 L -0.040390377045398995 -1.7 L -0.012953059442379955 -1.7 L 0.012132034355964272 -1.7 L 0.03454944474040894 -1.7 L 0.05401725976848526 -1.6999999999999997 L 0.07029066037072573 -1.6999999999999997 L 0.0831649990925103 -1.6999999999999997 L 0.09247837365454703 -1.6999999999999997 L 0.09811366296797275 -1.6999999999999997 L 0.09999999999999998 -1.6999999999999997 " stroke="#191919" stroke-width="0.35 px" style="stroke-width:0.35;stroke-miterlimit:4;stroke-dasharray:none;fill:none;fill-opacity:1;fill-rule: evenodd"/>
<path id="Shape2DView_nwe0044"  d="M -0.19999999999999993 -2.3 L -0.16641065716900758 -2.3 L -0.13324371981310562 -2.3 L -0.10091628141344981 -2.3 L -0.0698348782647325 -2.3 L -0.040390377045398995 -2.3 L -0.012953059442379955 -2.3 L 0.012132034355964272 -2.3 L 0.03454944474040894 -2.3 L 0.05401725976848526 -2.3 L 0.07029066037072573 -2.3 L 0.0831649990925103 -2.3 L 0.09247837365454703 -2.3 L 0.09811366296797275 -2.3 L 0.09999999999999998 -2.3 " stroke="#191919" stroke-width="0.35 px" style="stroke-width:0.35;stroke-miterlimit:4;stroke-dasharray:none;fill:none;fill-opacity:1;fill-rule: evenodd"/>
<path id="Shape2DView_nwe0045"  d="M 0.1 -2.3 L 0.09999999999999974 -1.7 " stroke="#191919" stroke-width="0.35 px" style="stroke-width:0.35;stroke-miterlimit:4;stroke-dasharray:none;fill:none;fill-opacity:1;fill-rule: evenodd"/>
<path id="Shape2DView_nwe0046"  d="M -0.19999999999999993 -3.7 L -0.16641065716900758 -3.7 L -0.13324371981310562 -3.7 L -0.10091628141344981 -3.7 L -0.0698348782647325 -3.7 L -0.040390377045398995 -3.7 L -0.012953059442379955 -3.7 L 0.012132034355964272 -3.7 L 0.03454944474040894 -3.7 L 0.05401725976848526 -3.7 L 0.07029066037072573 -3.7 L 0.0831649990925103 -3.7 L 0.09247837365454703 -3.7 L 0.09811366296797275 -3.7 L 0.09999999999999998 -3.7 " stroke="#191919" stroke-width="0.35 px" style="stroke-width:0.35;stroke-miterlimit:4;stroke-dasharray:none;fill:none;fill-opacity:1;fill-rule: evenodd"/>
<path id="Shape2DView_nwe0047"  d="M -0.19999999999999993 -4.3 L -0.16641065716900758 -4.3 L -0.13324371981310562 -4.3 L -0.10091628141344981 -4.3 L -0.0698348782647325 -4.3 L -0.040390377045398995 -4.3 L -0.012953059442379955 -4.3 L 0.012132034355964272 -4.3 L 0.03454944474040894 -4.3 L 0.05401725976848526 -4.3 L 0.07029066037072573 -4.3 L 0.0831649990925103 -4.3 L 0.09247837365454703 -4.3 L 0.09811366296797275 -4.3 L 0.09999999999999998 -4.3 " stroke="#191919" stroke-width="0.35 px" style="stroke-width:0.35;stroke-miterlimit:4;stroke-dasharray:none;fill:none;fill-opacity:1;fill-rule: evenodd"/>
<path id="Shape2DView_nwe0048"  d="M 0.1 -4.3 L 0.09999999999999974 -3.7 " stroke="#191919" stroke-width="0.35 px" style="stroke-width:0.35;stroke-miterlimit:4;stroke-dasharray:none;fill:none;fill-opacity:1;fill-rule: evenodd"/>
<path id="Shape2DView_nwe0049"  d="M -0.19999999999999993 -13.7 L -0.16641065716900758 -13.7 L -0.13324371981310562 -13.7 L -0.10091628141344981 -13.7 L -0.0698348782647325 -13.7 L -0.040390377045398995 -13.7 L -0.012953059442379955 -13.7 L 0.012132034355964272 -13.7 L 0.03454944474040894 -13.7 L 0.05401725976848526 -13.7 L 0.07029066037072573 -13.7 L 0.0831649990925103 -13.7 L 0.09247837365454703 -13.7 L 0.09811366296797275 -13.7 L 0.09999999999999998 -13.7 " stroke="#191919" stroke-width="0.35 px" style="stroke-width:0.35;stroke-miterlimit:4;stroke-dasharray:none;fill:none;fill-opacity:1;fill-rule: evenodd"/>
<path id="Shape2DView_nwe0050"  d="M -0.19999999999999993 -14.3 L -0.16641065716900758 -14.3 L -0.13324371981310562 -14.3 L -0.10091628141344981 -14.3 L -0.0698348782647325 -14.3 L -0.040390377045398995 -14.3 L -0.012953059442379955 -14.3 L 0.012132034355964272 -14.3 L 0.03454944474040894 -14.3 L 0.05401725976848526 -14.3 L 0.07029066037072573 -14.3 L 0.0831649990925103 -14.3 L 0.09247837365454703 -14.3 L 0.09811366296797275 -14.3 L 0.09999999999999998 -14.3 " stroke="#191919" stroke-width="0.35 px" style="stroke-width:0.35;stroke-miterlimit:4;stroke-dasharray:none;fill:none;fill-opacity:1;fill-rule: evenodd"/>
<path id="Shape2DView_nwe0051"  d="M 0.1 -14.3 L 0.09999999999999974 -13.7 " stroke="#191919" stroke-width="0.35 px" style="stroke-width:0.35;stroke-miterlimit:4;stroke-dasharray:none;fill:none;fill-opacity:1;fill-rule: evenodd"/>
<path id="Shape2DView_nwe0052"  d="M -0.19999999999999993 -11.7 L -0.16641065716900758 -11.7 L -0.13324371981310562 -11.7 L -0.10091628141344981 -11.7 L -0.0698348782647325 -11.7 L -0.040390377045398995 -11.7 L -0.012953059442379955 -11.7 L 0.012132034355964272 -11.7 L 0.03454944474040894 -11.7 L 0.05401725976848526 -11.7 L 0.07029066037072573 -11.7 L 0.0831649990925103 -11.7 L 0.09247837365454703 -11.7 L 0.09811366296797275 -11.7 L 0.09999999999999998 -11.7 " stroke="#191919" stroke-width="0.35 px" style="stroke-width:0.35;stroke-miterlimit:4;stroke-dasharray:none;fill:none;fill-opacity:1;fill-rule: evenodd"/>
<path id="Shape2DView_nwe0053"  d="M -0.19999999999999993 -12.3 L -0.16641065716900758 -12.3 L -0.13324371981310562 -12.3 L -0.10091628141344981 -12.3 L -0.0698348782647325 -12.3 L -0.040390377045398995 -12.3 L -0.012953059442379955 -12.3 L 0.012132034355964272 -12.3 L 0.03454944474040894 -12.3 L 0.05401725976848526 -12.3 L 0.07029066037072573 -12.3 L 0.0831649990925103 -12.3 L 0.09247837365454703 -12.3 L 0.09811366296797275 -12.3 L 0.09999999999999998 -12.3 " stroke="#191919" stroke-width="0.35 px" style="stroke-width:0.35;stroke-miterlimit:4;stroke-dasharray:none;fill:none;fill-opacity:1;fill-rule: evenodd"/>
<path id="Shape2DView_nwe0054"  d="M 0.1 -12.3 L 0.09999999999999974 -11.7 " stroke="#191919" stroke-width="0.35 px" style="stroke-width:0.35;stroke-miterlimit:4;stroke-dasharray:none;fill:none;fill-opacity:1;fill-rule: evenodd"/>
<path id="Shape2DView_nwe0055"  d="M -0.19999999999999993 -9.7 L -0.16641065716900758 -9.7 L -0.13324371981310562 -9.7 L -0.10091628141344981 -9.7 L -0.0698348782647325 -9.7 L -0.040390377045398995 -9.7 L -0.012953059442379955 -9.7 L 0.012132034355964272 -9.7 L 0.03454944474040894 -9.7 L 0.05401725976848526 -9.7 L 0.07029066037072573 -9.7 L 0.0831649990925103 -9.7 L 0.09247837365454703 -9.7 L 0.09811366296797275 -9.7 L 0.09999999999999998 -9.7 " stroke="#191919" stroke-width="0.35 px" style="stroke-width:0.35;stroke-miterlimit:4;stroke-dasharray:none;fill:none;fill-opacity:1;fill-rule: evenodd"/>
<path id="Shape2DView_nwe0056"  d="M -0.19999999999999993 -10.3 L -0.16641065716900758 -10.3 L -0.13324371981310562 -10.3 L -0.10091628141344981 -10.3 L -0.0698348782647325 -10.3 L -0.040390377045398995 -10.3 L -0.012953059442379955 -10.3 L 0.012132034355964272 -10.3 L 0.03454944474040894 -10.3 L 0.05401725976848526 -10.3 L 0.07029066037072573 -10.3 L 0.0831649990925103 -10.3 L 0.09247837365454703 -10.3 L 0.09811366296797275 -10.3 L 0.09999999999999998 -10.3 " stroke="#191919" stroke-width="0.35 px" style="stroke-width:0.35;stroke-miterlimit:4;stroke-dasharray:none;fill:none;fill-opacity:1;fill-rule: evenodd"/>
<path id="Shape2DView_nwe0057"  d="M 0.1 -10.3 L 0.09999999999999974 -9.7 " stroke="#191919" stroke-width="0.35 px" style="stroke-width:0.35;stroke-miterlimit:4;stroke-dasharray:none;fill:none;fill-opacity:1;fill-rule: evenodd"/>
<path id="Shape2DView_nwe0058"  d="M -0.19999999999999993 -19.7 L -0.16641065716900758 -19.7 L -0.13324371981310562 -19.7 L -0.10091628141344981 -19.7 L -0.0698348782647325 -19.7 L -0.040390377045398995 -19.7 L -0.012953059442379955 -19.7 L 0.012132034355964272 -19.7 L 0.03454944474040894 -19.7 L 0.05401725976848526 -19.7 L 0.07029066037072573 -19.7 L 0.0831649990925103 -19.7 L 0.09247837365454703 -19.7 L 0.09811366296797275 -19.7 L 0.09999999999999998 -19.7 " stroke="#191919" stroke-width="0.35 px" style="stroke-width:0.35;stroke-miterlimit:4;stroke-dasharray:none;fill:none;fill-opacity:1;fill-rule: evenodd"/>
<path id="Shape2DView_nwe0059"  d="M -0.19999999999999993 -20.3 L -0.16641065716900758 -20.3 L -0.13324371981310562 -20.3 L -0.10091628141344981 -20.3 L -0.0698348782647325 -20.3 L -0.040390377045398995 -20.3 L -0.012953059442379955 -20.3 L 0.012132034355964272 -20.3 L 0.03454944474040894 -20.3 L 0.05401725976848526 -20.3 L 0.07029066037072573 -20.3 L 0.0831649990925103 -20.3 L 0.09247837365454703 -20.3 L 0.09811366296797275 -20.3 L 0.09999999999999998 -20.3 " stroke="#191919" stroke-width="0.35 px" style="stroke-width:0.35;stroke-miterlimit:4;stroke-dasharray:none;fill:none;fill-opacity:1;fill-rule: evenodd"/>
<path id="Shape2DView_nwe0060"  d="M 0.1 -20.3 L 0.09999999999999974 -19.7 " stroke="#191919" stroke-width="0.35 px" style="stroke-width:0.35;stroke-miterlimit:4;stroke-dasharray:none;fill:none;fill-opacity:1;fill-rule: evenodd"/>
<path id="Shape2DView_nwe0061"  d="M -0.19999999999999993 -17.7 L -0.16641065716900758 -17.7 L -0.13324371981310562 -17.7 L -0.10091628141344981 -17.7 L -0.0698348782647325 -17.7 L -0.040390377045398995 -17.7 L -0.012953059442379955 -17.7 L 0.012132034355964272 -17.7 L 0.03454944474040894 -17.7 L 0.05401725976848526 -17.7 L 0.07029066037072573 -17.7 L 0.0831649990925103 -17.7 L 0.09247837365454703 -17.7 L 0.09811366296797275 -17.7 L 0.09999999999999998 -17.7 " stroke="#191919" stroke-width="0.35 px" style="stroke-width:0.35;stroke-miterlimit:4;stroke-dasharray:none;fill:none;fill-opacity:1;fill-rule: evenodd"/>
<path id="Shape2DView_nwe0062"  d="M -0.19999999999999993 -18.3 L -0.16641065716900758 -18.3 L -0.13324371981310562 -18.3 L -0.10091628141344981 -18.3 L -0.0698348782647325 -18.3 L -0.040390377045398995 -18.3 L -0.012953059442379955 -18.3 L 0.012132034355964272 -18.3 L 0.03454944474040894 -18.3 L 0.05401725976848526 -18.3 L 0.07029066037072573 -18.3 L 0.0831649990925103 -18.3 L 0.09247837365454703 -18.3 L 0.09811366296797275 -18.3 L 0.09999999999999998 -18.3 " stroke="#191919" stroke-width="0.35 px" style="stroke-width:0.35;stroke-miterlimit:4;stroke-dasharray:none;fill:none;fill-opacity:1;fill-rule: evenodd"/>
<path id="Shape2DView_nwe0063"  d="M 0.1 -18.3 L 0.09999999999999974 -17.7 " stroke="#191919" stroke-width="0.35 px" style="stroke-width:0.35;stroke-miterlimit:4;stroke-dasharray:none;fill:none;fill-opacity:1;fill-rule: evenodd"/>
<path id="Shape2DView_nwe0064"  d="M -0.19999999999999993 -15.7 L -0.16641065716900758 -15.7 L -0.13324371981310562 -15.7 L -0.10091628141344981 -15.7 L -0.0698348782647325 -15.7 L -0.040390377045398995 -15.7 L -0.012953059442379955 -15.7 L 0.012132034355964272 -15.7 L 0.03454944474040894 -15.7 L 0.05401725976848526 -15.7 L 0.07029066037072573 -15.7 L 0.0831649990925103 -15.7 L 0.09247837365454703 -15.7 L 0.09811366296797275 -15.7 L 0.09999999999999998 -15.7 " stroke="#191919" stroke-width="0.35 px" style="stroke-width:0.35;stroke-miterlimit:4;stroke-dasharray:none;fill:none;fill-opacity:1;fill-rule: evenodd"/>
<path id="Shape2DView_nwe0065"  d="M -0.19999999999999993 -16.3 L -0.16641065716900758 -16.3 L -0.13324371981310562 -16.3 L -0.10091628141344981 -16.3 L -0.0698348782647325 -16.3 L -0.040390377045398995 -16.3 L -0.012953059442379955 -16.3 L 0.012132034355964272 -16.3 L 0.03454944474040894 -16.3 L 0.05401725976848526 -16.3 L 0.07029066037072573 -16.3 L 0.0831649990925103 -16.3 L 0.09247837365454703 -16.3 L 0.09811366296797275 -16.3 L 0.09999999999999998 -16.3 " stroke="#191919" stroke-width="0.35 px" style="stroke-width:0.35;stroke-miterlimit:4;stroke-dasharray:none;fill:none;fill-opacity:1;fill-rule: evenodd"/>
<path id="Shape2DView_nwe0066"  d="M 0.1 -16.3 L 0.09999999999999974 -15.7 " stroke="#191919" stroke-width="0.35 px" style="stroke-width:0.35;stroke-miterlimit:4;stroke-dasharray:none;fill:none;fill-opacity:1;fill-rule: evenodd"/>
<path id="Shape2DView_nwe0067"  d="M -0.19999999999999993 -27.7 L -0.16641065716900758 -27.7 L -0.13324371981310562 -27.7 L -0.10091628141344981 -27.7 L -0.0698348782647325 -27.7 L -0.040390377045398995 -27.7 L -0.012953059442379955 -27.7 L 0.012132034355964272 -27.7 L 0.03454944474040894 -27.7 L 0.05401725976848526 -27.7 L 0.07029066037072573 -27.7 L 0.0831649990925103 -27.7 L 0.09247837365454703 -27.7 L 0.09811366296797275 -27.7 L 0.09999999999999998 -27.7 " stroke="#191919" stroke-width="0.35 px" style="stroke-width:0.35;stroke-miterlimit:4;stroke-dasharray:none;fill:none;fill-opacity:1;fill-rule: evenodd"/>
<path id="Shape2DView_nwe0068"  d="M -0.19999999999999993 -28.3 L -0.16641065716900758 -28.3 L -0.13324371981310562 -28.3 L -0.10091628141344981 -28.3 L -0.0698348782647325 -28.3 L -0.040390377045398995 -28.3 L -0.012953059442379955 -28.3 L 0.012132034355964272 -28.3 L 0.03454944474040894 -28.3 L 0.05401725976848526 -28.3 L 0.07029066037072573 -28.3 L 0.0831649990925103 -28.3 L 0.09247837365454703 -28.3 L 0.09811366296797275 -28.3 L 0.09999999999999998 -28.3 " stroke="#191919" stroke-width="0.35 px" style="stroke-width:0.35;stroke-miterlimit:4;stroke-dasharray:none;fill:none;fill-opacity:1;fill-rule: evenodd"/>
<path id="Shape2DView_nwe0069"  d="M 0.1 -28.3 L 0.09999999999999974 -27.7 " stroke="#191919" stroke-width="0.35 px" style="stroke-width:0.35;stroke-miterlimit:4;stroke-dasharray:none;fill:none;fill-opacity:1;fill-rule: evenodd"/>
<path id="Shape2DView_nwe0070"  d="M -0.19999999999999993 -25.7 L -0.16641065716900758 -25.7 L -0.13324371981310562 -25.7 L -0.10091628141344981 -25.7 L -0.0698348782647325 -25.7 L -0.040390377045398995 -25.7 L -0.012953059442379955 -25.7 L 0.012132034355964272 -25.7 L 0.03454944474040894 -25.7 L 0.05401725976848526 -25.7 L 0.07029066037072573 -25.7 L 0.0831649990925103 -25.7 L 0.09247837365454703 -25.7 L 0.09811366296797275 -25.7 L 0.09999999999999998 -25.7 " stroke="#191919" stroke-width="0.35 px" style="stroke-width:0.35;stroke-miterlimit:4;stroke-dasharray:none;fill:none;fill-opacity:1;fill-rule: evenodd"/>
<path id="Shape2DView_nwe0071"  d="M -0.19999999999999993 -26.3 L -0.16641065716900758 -26.3 L -0.13324371981310562 -26.3 L -0.10091628141344981 -26.3 L -0.0698348782647325 -26.3 L -0.040390377045398995 -26.3 L -0.012953059442379955 -26.3 L 0.012132034355964272 -26.3 L 0.03454944474040894 -26.3 L 0.05401725976848526 -26.3 L 0.07029066037072573 -26.3 L 0.0831649990925103 -26.3 L 0.09247837365454703 -26.3 L 0.09811366296797275 -26.3 L 0.09999999999999998 -26.3 " stroke="#191919" stroke-width="0.35 px" style="stroke-width:0.35;stroke-miterlimit:4;stroke-dasharray:none;fill:none;fill-opacity:1;fill-rule: evenodd"/>
<path id="Shape2DView_nwe0072"  d="M 0.1 -26.3 L 0.09999999999999974 -25.7 " stroke="#191919" stroke-width="0.35 px" style="stroke-width:0.35;stroke-miterlimit:4;stroke-dasharray:none;fill:none;fill-opacity:1;fill-rule: evenodd"/>
<path id="Shape2DView_nwe0073"  d="M -0.19999999999999993 -23.7 L -0.16641065716900758 -23.7 L -0.13324371981310562 -23.7 L -0.10091628141344981 -23.7 L -0.0698348782647325 -23.7 L -0.040390377045398995 -23.7 L -0.012953059442379955 -23.7 L 0.012132034355964272 -23.7 L 0.03454944474040894 -23.7 L 0.05401725976848526 -23.7 L 0.07029066037072573 -23.7 L 0.0831649990925103 -23.7 L 0.09247837365454703 -23.7 L 0.09811366296797275 -23.7 L 0.09999999999999998 -23.7 " stroke="#191919" stroke-width="0.35 px" style="stroke-width:0.35;stroke-miterlimit:4;stroke-dasharray:none;fill:none;fill-opacity:1;fill-rule: evenodd"/>
<path id="Shape2DView_nwe0074"  d="M -0.19999999999999993 -24.3 L -0.16641065716900758 -24.3 L -0.13324371981310562 -24.3 L -0.10091628141344981 -24.3 L -0.0698348782647325 -24.3 L -0.040390377045398995 -24.3 L -0.012953059442379955 -24.3 L 0.012132034355964272 -24.3 L 0.03454944474040894 -24.3 L 0.05401725976848526 -24.3 L 0.07029066037072573 -24.3 L 0.0831649990925103 -24.3 L 0.09247837365454703 -24.3 L 0.09811366296797275 -24.3 L 0.09999999999999998 -24.3 " stroke="#191919" stroke-width="0.35 px" style="stroke-width:0.35;stroke-miterlimit:4;stroke-dasharray:none;fill:none;fill-opacity:1;fill-rule: evenodd"/>
<path id="Shape2DView_nwe0075"  d="M 0.1 -24.3 L 0.09999999999999974 -23.7 " stroke="#191919" stroke-width="0.35 px" style="stroke-width:0.35;stroke-miterlimit:4;stroke-dasharray:none;fill:none;fill-opacity:1;fill-rule: evenodd"/>
<path id="Shape2DView_nwe0076"  d="M -0.19999999999999993 -21.7 L -0.16641065716900758 -21.7 L -0.13324371981310562 -21.7 L -0.10091628141344981 -21.7 L -0.0698348782647325 -21.7 L -0.040390377045398995 -21.7 L -0.012953059442379955 -21.7 L 0.012132034355964272 -21.7 L 0.03454944474040894 -21.7 L 0.05401725976848526 -21.7 L 0.07029066037072573 -21.7 L 0.0831649990925103 -21.7 L 0.09247837365454703 -21.7 L 0.09811366296797275 -21.7 L 0.09999999999999998 -21.7 " stroke="#191919" stroke-width="0.35 px" style="stroke-width:0.35;stroke-miterlimit:4;stroke-dasharray:none;fill:none;fill-opacity:1;fill-rule: evenodd"/>
<path id="Shape2DView_nwe0077"  d="M -0.19999999999999993 -22.3 L -0.16641065716900758 -22.3 L -0.13324371981310562 -22.3 L -0.10091628141344981 -22.3 L -0.0698348782647325 -22.3 L -0.040390377045398995 -22.3 L -0.012953059442379955 -22.3 L 0.012132034355964272 -22.3 L 0.03454944474040894 -22.3 L 0.05401725976848526 -22.3 L 0.07029066037072573 -22.3 L 0.0831649990925103 -22.3 L 0.09247837365454703 -22.3 L 0.09811366296797275 -22.3 L 0.09999999999999998 -22.3 " stroke="#191919" stroke-width="0.35 px" style="stroke-width:0.35;stroke-miterlimit:4;stroke-dasharray:none;fill:none;fill-opacity:1;fill-rule: evenodd"/>
<path id="Shape2DView_nwe0078"  d="M 0.1 -22.3 L 0.09999999999999974 -21.7 " stroke="#191919" stroke-width="0.35 px" style="stroke-width:0.35;stroke-miterlimit:4;stroke-dasharray:none;fill:none;fill-opacity:1;fill-rule: evenodd"/>
<path id="Shape2DView_nwe0079"  d="M -0.2 -8.3 L -0.2000000000000003 -7.7 " stroke="#191919" stroke-width="0.35 px" style="stroke-width:0.35;stroke-miterlimit:4;stroke-dasharray:none;fill:none;fill-opacity:1;fill-rule: evenodd"/>
<path id="Shape2DView_nwe0080"  d="M -0.2 -6.3 L -0.2000000000000003 -5.7 " stroke="#191919" stroke-width="0.35 px" style="stroke-width:0.35;stroke-miterlimit:4;stroke-dasharray:none;fill:none;fill-opacity:1;fill-rule: evenodd"/>
<path id="Shape2DView_nwe0081"  d="M -0.2 -0.3 L -0.2000000000000003 0.3 " stroke="#191919" stroke-width="0.35 px" style="stroke-width:0.35;stroke-miterlimit:4;stroke-dasharray:none;fill:none;fill-opacity:1;fill-rule: evenodd"/>
<path id="Shape2DView_nwe0082"  d="M -0.2 -2.3 L -0.2000000000000003 -1.7 " stroke="#191919" stroke-width="0.35 px" style="stroke-width:0.35;stroke-miterlimit:4;stroke-dasharray:none;fill:none;fill-opacity:1;fill-rule: evenodd"/>
<path id="Shape2DView_nwe0083"  d="M -0.2 -4.3 L -0.2000000000000003 -3.7 " stroke="#191919" stroke-width="0.35 px" style="stroke-width:0.35;stroke-miterlimit:4;stroke-dasharray:none;fill:none;fill-opacity:1;fill-rule: evenodd"/>
<path id="Shape2DView_nwe0084"  d="M -0.2 -14.3 L -0.2000000000000003 -13.7 " stroke="#191919" stroke-width="0.35 px" style="stroke-width:0.35;stroke-miterlimit:4;stroke-dasharray:none;fill:none;fill-opacity:1;fill-rule: evenodd"/>
<path id="Shape2DView_nwe0085"  d="M -0.2 -12.3 L -0.2000000000000003 -11.7 " stroke="#191919" stroke-width="0.35 px" style="stroke-width:0.35;stroke-miterlimit:4;stroke-dasharray:none;fill:none;fill-opacity:1;fill-rule: evenodd"/>
<path id="Shape2DView_nwe0086"  d="M -0.2 -10.3 L -0.2000000000000003 -9.7 " stroke="#191919" stroke-width="0.35 px" style="stroke-width:0.35;stroke-miterlimit:4;stroke-dasharray:none;fill:none;fill-opacity:1;fill-rule: evenodd"/>
<path id="Shape2DView_nwe0087"  d="M -0.2 -20.3 L -0.2000000000000003 -19.7 " stroke="#191919" stroke-width="0.35 px" style="stroke-width:0.35;stroke-miterlimit:4;stroke-dasharray:none;fill:none;fill-opacity:1;fill-rule: evenodd"/>
<path id="Shape2DView_nwe0088"  d="M -0.2 -18.3 L -0.2000000000000003 -17.7 " stroke="#191919" stroke-width="0.35 px" style="stroke-width:0.35;stroke-miterlimit:4;stroke-dasharray:none;fill:none;fill-opacity:1;fill-rule: evenodd"/>
<path id="Shape2DView_nwe0089"  d="M -0.2 -16.3 L -0.2000000000000003 -15.7 " stroke="#191919" stroke-width="0.35 px" style="stroke-width:0.35;stroke-miterlimit:4;stroke-dasharray:none;fill:none;fill-opacity:1;fill-rule: evenodd"/>
<path id="Shape2DView_nwe0090"  d="M -0.2 -28.3 L -0.2000000000000003 -27.7 " stroke="#191919" stroke-width="0.35 px" style="stroke-width:0.35;stroke-miterlimit:4;stroke-dasharray:none;fill:none;fill-opacity:1;fill-rule: evenodd"/>
<path id="Shape2DView_nwe0091"  d="M -0.2 -26.3 L -0.2000000000000003 -25.7 " stroke="#191919" stroke-width="0.35 px" style="stroke-width:0.35;stroke-miterlimit:4;stroke-dasharray:none;fill:none;fill-opacity:1;fill-rule: evenodd"/>
<path id="Shape2DView_nwe0092"  d="M -0.2 -24.3 L -0.2000000000000003 -23.7 " stroke="#191919" stroke-width="0.35 px" style="stroke-width:0.35;stroke-miterlimit:4;stroke-dasharray:none;fill:none;fill-opacity:1;fill-rule: evenodd"/>
<path id="Shape2DView_nwe0093"  d="M -0.2 -22.3 L -0.2000000000000003 -21.7 " stroke="#191919" stroke-width="0.35 px" style="stroke-width:0.35;stroke-miterlimit:4;stroke-dasharray:none;fill:none;fill-opacity:1;fill-rule: evenodd"/>
<title>b'Shape2DView'</title>
</g>
<g id="Rectangle" transform="translate(9.726200,1.106200) scale(1,-1)">
<rect fill="#ff0000" id="origin" width="1" height="1" x="0" y="0" />
<title>b'Rectangle'</title>
</g>
</svg>