<?xml version="1.0"?>
<!DOCTYPE svg PUBLIC "-//W3C//DTD SVG 1.1//EN" "http://www.w3.org/Graphics/SVG/1.1/DTD/svg11.dtd">
<svg width="10.832400000000028mm" height="62.2124mm" viewBox="0 0 10.832400000000028 62.2124" xmlns="http://www.w3.org/2000/svg" version="1.1">
<g id="Shape2DView" transform="translate(9.726200,1.106200) scale(1,-1)">
<path id="Shape2DView_nwe0000"  d="M -3.27 -61.0 L -9.62 -61.0 " stroke="#191919" stroke-width="0.35 px" style="stroke-width:0.35;stroke-miterlimit:4;stroke-dasharray:none;fill:none;fill-opacity:1;fill-rule: evenodd"/>
<path id="Shape2DView_nwe0001"  d="M -9.62 -61.0 L -9.620000000000028 1.0 " stroke="#191919" stroke-width="0.35 px" style="stroke-width:0.35;stroke-miterlimit:4;stroke-dasharray:none;fill:none;fill-opacity:1;fill-rule: evenodd"/>
<path id="Shape2DView_nwe0002"  d="M -3.27 1.0 L -9.62 0.9999999999999972 " stroke="#191919" stroke-width="0.35 px" style="stroke-width:0.35;stroke-miterlimit:4;stroke-dasharray:none;fill:none;fill-opacity:1;fill-rule: evenodd"/>
<path id="Shape2DView_nwe0003"  d="M -3.27 -61.0 L -3.2700000000000276 1.0 " stroke="#191919" stroke-width="0.35 px" style="stroke-width:0.35;stroke-miterlimit:4;stroke-dasharray:none;fill:none;fill-opacity:1;fill-rule: evenodd"/>
<path id="Shape2DView_nwe0004"  d="M -0.2 -17.7 L -3.270000000000019 -17.7 " stroke="#191919" stroke-width="0.35 px" style="stroke-width:0.35;stroke-miterlimit:4;stroke-dasharray:none;fill:none;fill-opacity:1;fill-rule: evenodd"/>
<path id="Shape2DView_nwe0005"  d="M -3.270000000000019 -18.3 L -0.20000000000000018 -18.3 " stroke="#191919" stroke-width="0.35 px" style="stroke-width:0.35;stroke-miterlimit:4;stroke-dasharray:none;fill:none;fill-opacity:1;fill-rule: evenodd"/>
<path id="Shape2DView_nwe0006"  d="M -0.2 -19.7 L -3.2700000000000182 -19.7 " stroke="#191919" stroke-width="0.35 px" style="stroke-width:0.35;stroke-miterlimit:4;stroke-dasharray:none;fill:none;fill-opacity:1;fill-rule: evenodd"/>
<path id="Shape2DView_nwe0007"  d="M -3.2700000000000182 -20.3 L -0.20000000000000018 -20.3 " stroke="#191919" stroke-width="0.35 px" style="stroke-width:0.35;stroke-miterlimit:4;stroke-dasharray:none;fill:none;fill-opacity:1;fill-rule: evenodd"/>
<path id="Shape2DView_nwe0008"  d="M -0.2 -21.7 L -3.2700000000000173 -21.7 " stroke="#191919" stroke-width="0.35 px" style="stroke-width:0.35;stroke-miterlimit:4;stroke-dasharray:none;fill:none;fill-opacity:1;fill-rule: evenodd"/>
<path id="Shape2DView_nwe0009"  d="M -3.2700000000000173 -22.3 L -0.20000000000000018 -22.3 " stroke="#191919" stroke-width="0.35 px" style="stroke-width:0.35;stroke-miterlimit:4;stroke-dasharray:none;fill:none;fill-opacity:1;fill-rule: evenodd"/>
<path id="Shape2DView_nwe0010"  d="M -0.2 -27.7 L -3.2700000000000147 -27.7 " stroke="#191919" stroke-width="0.35 px" style="stroke-width:0.35;stroke-miterlimit:4;stroke-dasharray:none;fill:none;fill-opacity:1;fill-rule: evenodd"/>
<path id="Shape2DView_nwe0011"  d="M -3.2700000000000147 -28.3 L -0.20000000000000018 -28.3 " stroke="#191919" stroke-width="0.35 px" style="stroke-width:0.35;stroke-miterlimit:4;stroke-dasharray:none;fill:none;fill-opacity:1;fill-rule: evenodd"/>
<path id="Shape2DView_nwe0012"  d="M -0.2 -25.7 L -3.2700000000000156 -25.7 " stroke="#191919" stroke-width="0.35 px" style="stroke-width:0.35;stroke-miterlimit:4;stroke-dasharray:none;fill:none;fill-opacity:1;fill-rule: evenodd"/>
<path id="Shape2DView_nwe0013"  d="M -3.2700000000000156 -26.3 L -0.20000000000000018 -26.3 " stroke="#191919" stroke-width="0.35 px" style="stroke-width:0.35;stroke-miterlimit:4;stroke-dasharray:none;fill:none;fill-opacity:1;fill-rule: evenodd"/>
<path id="Shape2DView_nwe0014"  d="M -0.2 -23.7 L -3.2700000000000164 -23.7 " stroke="#191919" stroke-width="0.35 px" style="stroke-width:0.35;stroke-miterlimit:4;stroke-dasharray:none;fill:none;fill-opacity:1;fill-rule: evenodd"/>
<path id="Shape2DView_nwe0015"  d="M -3.2700000000000164 -24.3 L -0.20000000000000018 -24.3 " stroke="#191919" stroke-width="0.35 px" style="stroke-width:0.35;stroke-miterlimit:4;stroke-dasharray:none;fill:none;fill-opacity:1;fill-rule: evenodd"/>
<path id="Shape2DView_nwe0016"  d="M -0.2 -31.7 L -3.270000000000013 -31.7 " stroke="#191919" stroke-width="0.35 px" style="stroke-width:0.35;stroke-miterlimit:4;stroke-dasharray:none;fill:none;fill-opacity:1;fill-rule: evenodd"/>
<path id="Shape2DView_nwe0017"  d="M -3.270000000000013 -32.3 L -0.20000000000000018 -32.3 " stroke="#191919" stroke-width="0.35 px" style="stroke-width:0.35;stroke-miterlimit:4;stroke-dasharray:none;fill:none;fill-opacity:1;fill-rule: evenodd"/>
<path id="Shape2DView_nwe0018"  d="M -0.2 -29.7 L -3.270000000000014 -29.7 " stroke="#191919" stroke-width="0.35 px" style="stroke-width:0.35;stroke-miterlimit:4;stroke-dasharray:none;fill:none;fill-opacity:1;fill-rule: evenodd"/>
<path id="Shape2DView_nwe0019"  d="M -3.270000000000014 -30.3 L -0.20000000000000018 -30.3 " stroke="#191919" stroke-width="0.35 px" style="stroke-width:0.35;stroke-miterlimit:4;stroke-dasharray:none;fill:none;fill-opacity:1;fill-rule: evenodd"/>
<path id="Shape2DView_nwe0020"  d="M -0.2 -45.7 L -3.2700000000000067 -45.7 " stroke="#191919" stroke-width="0.35 px" style="stroke-width:0.35;stroke-miterlimit:4;stroke-dasharray:none;fill:none;fill-opacity:1;fill-rule: evenodd"/>
<path id="Shape2DView_nwe0021"  d="M -3.2700000000000067 -46.3 L -0.20000000000000018 -46.3 " stroke="#191919" stroke-width="0.35 px" style="stroke-width:0.35;stroke-miterlimit:4;stroke-dasharray:none;fill:none;fill-opacity:1;fill-rule: evenodd"/>
<path id="Shape2DView_nwe0022"  d="M -0.2 -43.7 L -3.2700000000000076 -43.7 " stroke="#191919" stroke-width="0.35 px" style="stroke-width:0.35;stroke-miterlimit:4;stroke-dasharray:none;fill:none;fill-opacity:1;fill-rule: evenodd"/>
<path id="Shape2DView_nwe0023"  d="M -3.2700000000000076 -44.3 L -0.20000000000000018 -44.3 " stroke="#191919" stroke-width="0.35 px" style="stroke-width:0.35;stroke-miterlimit:4;stroke-dasharray:none;fill:none;fill-opacity:1;fill-rule: evenodd"/>
<path id="Shape2DView_nwe0024"  d="M -0.2 -37.7 L -3.2700000000000102 -37.7 " stroke="#191919" stroke-width="0.35 px" style="stroke-width:0.35;stroke-miterlimit:4;stroke-dasharray:none;fill:none;fill-opacity:1;fill-rule: evenodd"/>
<path id="Shape2DView_nwe0025"  d="M -3.2700000000000102 -38.3 L -0.20000000000000018 -38.3 " stroke="#191919" stroke-width="0.35 px" style="stroke-width:0.35;stroke-miterlimit:4;stroke-dasharray:none;fill:none;fill-opacity:1;fill-rule: evenodd"/>
<path id="Shape2DView_nwe0026"  d="M -0.2 -39.7 L -3.2700000000000093 -39.7 " stroke="#191919" stroke-width="0.35 px" style="stroke-width:0.35;stroke-miterlimit:4;stroke-dasharray:none;fill:none;fill-opacity:1;fill-rule: evenodd"/>
<path id="Shape2DView_nwe0027"  d="M -3.2700000000000093 -40.3 L -0.20000000000000018 -40.3 " stroke="#191919" stroke-width="0.35 px" style="stroke-width:0.35;stroke-miterlimit:4;stroke-dasharray:none;fill:none;fill-opacity:1;fill-rule: evenodd"/>
<path id="Shape2DView_nwe0028"  d="M -0.2 -41.7 L -3.2700000000000085 -41.7 " stroke="#191919" stroke-width="0.35 px" style="stroke-width:0.35;stroke-miterlimit:4;stroke-dasharray:none;fill:none;fill-opacity:1;fill-rule: evenodd"/>
<path id="Shape2DView_nwe0029"  d="M -3.2700000000000085 -42.3 L -0.20000000000000018 -42.3 " stroke="#191919" stroke-width="0.35 px" style="stroke-width:0.35;stroke-miterlimit:4;stroke-dasharray:none;fill:none;fill-opacity:1;fill-rule: evenodd"/>
<path id="Shape2DView_nwe0030"  d="M -0.2 -35.7 L -3.270000000000011 -35.7 " stroke="#191919" stroke-width="0.35 px" style="stroke-width:0.35;stroke-miterlimit:4;stroke-dasharray:none;fill:none;fill-opacity:1;fill-rule: evenodd"/>
<path id="Shape2DView_nwe0031"  d="M -3.270000000000011 -36.3 L -0.20000000000000018 -36.3 " stroke="#191919" stroke-width="0.35 px" style="stroke-width:0.35;stroke-miterlimit:4;stroke-dasharray:none;fill:none;fill-opacity:1;fill-rule: evenodd"/>
<path id="Shape2DView_nwe0032"  d="M -0.2 -33.7 L -3.270000000000012 -33.7 " stroke="#191919" stroke-width="0.35 px" style="stroke-width:0.35;stroke-miterlimit:4;stroke-dasharray:none;fill:none;fill-opacity:1;fill-rule: evenodd"/>
<path id="Shape2DView_nwe0033"  d="M -3.270000000000012 -34.3 L -0.20000000000000018 -34.3 " stroke="#191919" stroke-width="0.35 px" style="stroke-width:0.35;stroke-miterlimit:4;stroke-dasharray:none;fill:none;fill-opacity:1;fill-rule: evenodd"/>
<path id="Shape2DView_nwe0034"  d="M -0.2 -13.7 L -3.270000000000021 -13.700000000000001 " stroke="#191919" stroke-width="0.35 px" style="stroke-width:0.35;stroke-miterlimit:4;stroke-dasharray:none;fill:none;fill-opacity:1;fill-rule: evenodd"/>
<path id="Shape2DView_nwe0035"  d="M -3.270000000000021 -14.3 L -0.20000000000000018 -14.299999999999999 " stroke="#191919" stroke-width="0.35 px" style="stroke-width:0.35;stroke-miterlimit:4;stroke-dasharray:none;fill:none;fill-opacity:1;fill-rule: evenodd"/>
<path id="Shape2DView_nwe0036"  d="M -0.2 -15.7 L -3.27000000000002 -15.700000000000001 " stroke="#191919" stroke-width="0.35 px" style="stroke-width:0.35;stroke-miterlimit:4;stroke-dasharray:none;fill:none;fill-opacity:1;fill-rule: evenodd"/>
<path id="Shape2DView_nwe0037"  d="M -3.27000000000002 -16.3 L -0.20000000000000018 -16.3 " stroke="#191919" stroke-width="0.35 px" style="stroke-width:0.35;stroke-miterlimit:4;stroke-dasharray:none;fill:none;fill-opacity:1;fill-rule: evenodd"/>
<path id="Shape2DView_nwe0038"  d="M -0.2 -55.7 L -3.2700000000000022 -55.7 " stroke="#191919" stroke-width="0.35 px" style="stroke-width:0.35;stroke-miterlimit:4;stroke-dasharray:none;fill:none;fill-opacity:1;fill-rule: evenodd"/>
<path id="Shape2DView_nwe0039"  d="M -3.2700000000000022 -56.3 L -0.20000000000000018 -56.3 " stroke="#191919" stroke-width="0.35 px" style="stroke-width:0.35;stroke-miterlimit:4;stroke-dasharray:none;fill:none;fill-opacity:1;fill-rule: evenodd"/>
<path id="Shape2DView_nwe0040"  d="M -0.2 -53.7 L -3.270000000000003 -53.7 " stroke="#191919" stroke-width="0.35 px" style="stroke-width:0.35;stroke-miterlimit:4;stroke-dasharray:none;fill:none;fill-opacity:1;fill-rule: evenodd"/>
<path id="Shape2DView_nwe0041"  d="M -3.270000000000003 -54.3 L -0.20000000000000018 -54.3 " stroke="#191919" stroke-width="0.35 px" style="stroke-width:0.35;stroke-miterlimit:4;stroke-dasharray:none;fill:none;fill-opacity:1;fill-rule: evenodd"/>
<path id="Shape2DView_nwe0042"  d="M -0.2 -51.7 L -3.270000000000004 -51.7 " stroke="#191919" stroke-width="0.35 px" style="stroke-width:0.35;stroke-miterlimit:4;stroke-dasharray:none;fill:none;fill-opacity:1;fill-rule: evenodd"/>
<path id="Shape2DView_nwe0043"  d="M -3.270000000000004 -52.3 L -0.20000000000000018 -52.3 " stroke="#191919" stroke-width="0.35 px" style="stroke-width:0.35;stroke-miterlimit:4;stroke-dasharray:none;fill:none;fill-opacity:1;fill-rule: evenodd"/>
<path id="Shape2DView_nwe0044"  d="M -0.2 -47.7 L -3.270000000000006 -47.7 " stroke="#191919" stroke-width="0.35 px" style="stroke-width:0.35;stroke-miterlimit:4;stroke-dasharray:none;fill:none;fill-opacity:1;fill-rule: evenodd"/>
<path id="Shape2DView_nwe0045"  d="M -3.270000000000006 -48.3 L -0.20000000000000018 -48.3 " stroke="#191919" stroke-width="0.35 px" style="stroke-width:0.35;stroke-miterlimit:4;stroke-dasharray:none;fill:none;fill-opacity:1;fill-rule: evenodd"/>
<path id="Shape2DView_nwe0046"  d="M -0.2 -49.7 L -3.270000000000005 -49.7 " stroke="#191919" stroke-width="0.35 px" style="stroke-width:0.35;stroke-miterlimit:4;stroke-dasharray:none;fill:none;fill-opacity:1;fill-rule: evenodd"/>
<path id="Shape2DView_nwe0047"  d="M -3.270000000000005 -50.3 L -0.20000000000000018 -50.3 " stroke="#191919" stroke-width="0.35 px" style="stroke-width:0.35;stroke-miterlimit:4;stroke-dasharray:none;fill:none;fill-opacity:1;fill-rule: evenodd"/>
<path id="Shape2DView_nwe0048"  d="M -0.2 -57.7 L -3.2700000000000014 -57.7 " stroke="#191919" stroke-width="0.35 px" style="stroke-width:0.35;stroke-miterlimit:4;stroke-dasharray:none;fill:none;fill-opacity:1;fill-rule: evenodd"/>
<path id="Shape2DView_nwe0049"  d="M -3.2700000000000014 -58.3 L -0.20000000000000018 -58.3 " stroke="#191919" stroke-width="0.35 px" style="stroke-width:0.35;stroke-miterlimit:4;stroke-dasharray:none;fill:none;fill-opacity:1;fill-rule: evenodd"/>
<path id="Shape2DView_nwe0050"  d="M -0.2 -11.7 L -3.270000000000022 -11.700000000000001 " stroke="#191919" stroke-width="0.35 px" style="stroke-width:0.35;stroke-miterlimit:4;stroke-dasharray:none;fill:none;fill-opacity:1;fill-rule: evenodd"/>
<path id="Shape2DView_nwe0051"  d="M -3.270000000000022 -12.3 L -0.20000000000000018 -12.299999999999999 " stroke="#191919" stroke-width="0.35 px" style="stroke-width:0.35;stroke-miterlimit:4;stroke-dasharray:none;fill:none;fill-opacity:1;fill-rule: evenodd"/>
<path id="Shape2DView_nwe0052"  d="M -0.2 -3.7 L -3.2700000000000253 -3.7000000000000015 " stroke="#191919" stroke-width="0.35 px" style="stroke-width:0.35;stroke-miterlimit:4;stroke-dasharray:none;fill:none;fill-opacity:1;fill-rule: evenodd"/>
<path id="Shape2DView_nwe0053"  d="M -3.2700000000000253 -4.3 L -0.20000000000000018 -4.299999999999998 " stroke="#191919" stroke-width="0.35 px" style="stroke-width:0.35;stroke-miterlimit:4;stroke-dasharray:none;fill:none;fill-opacity:1;fill-rule: evenodd"/>
<path id="Shape2DView_nwe0054"  d="M -0.2 -5.7 L -3.2700000000000244 -5.700000000000002 " stroke="#191919" stroke-width="0.35 px" style="stroke-width:0.35;stroke-miterlimit:4;stroke-dasharray:none;fill:none;fill-opacity:1;fill-rule: evenodd"/>
<path id="Shape2DView_nwe0055"  d="M -3.2700000000000244 -6.3 L -0.20000000000000018 -6.299999999999998 " stroke="#191919" stroke-width="0.35 px" style="stroke-width:0.35;stroke-miterlimit:4;stroke-dasharray:none;fill:none;fill-opacity:1;fill-rule: evenodd"/>
<path id="Shape2DView_nwe0056"  d="M -0.2 -7.7 L -3.2700000000000236 -7.700000000000002 " stroke="#191919" stroke-width="0.35 px" style="stroke-width:0.35;stroke-miterlimit:4;stroke-dasharray:none;fill:none;fill-opacity:1;fill-rule: evenodd"/>
<path id="Shape2DView_nwe0057"  d="M -3.2700000000000236 -8.3 L -0.20000000000000018 -8.299999999999999 " stroke="#191919" stroke-width="0.35 px" style="stroke-width:0.35;stroke-miterlimit:4;stroke-dasharray:none;fill:none;fill-opacity:1;fill-rule: evenodd"/>
<path id="Shape2DView_nwe0058"  d="M -0.2 -9.7 L -3.2700000000000227 -9.700000000000001 " stroke="#191919" stroke-width="0.35 px" style="stroke-width:0.35;stroke-miterlimit:4;stroke-dasharray:none;fill:none;fill-opacity:1;fill-rule: evenodd"/>
<path id="Shape2DView_nwe0059"  d="M -3.2700000000000227 -10.3 L -0.20000000000000018 -10.299999999999999 " stroke="#191919" stroke-width="0.35 px" style="stroke-width:0.35;stroke-miterlimit:4;stroke-dasharray:none;fill:none;fill-opacity:1;fill-rule: evenodd"/>
<path id="Shape2DView_nwe0060"  d="M -0.2 0.3 L -3.270000000000027 0.2999999999999986 " stroke="#191919" stroke-width="0.35 px" style="stroke-width:0.35;stroke-miterlimit:4;stroke-dasharray:none;fill:none;fill-opacity:1;fill-rule: evenodd"/>
<path id="Shape2DView_nwe0061"  d="M -3.270000000000027 -0.2999999999999999 L -0.20000000000000018 -0.29999999999999855 " stroke="#191919" stroke-width="0.35 px" style="stroke-width:0.35;stroke-miterlimit:4;stroke-dasharray:none;fill:none;fill-opacity:1;fill-rule: evenodd"/>
<path id="Shape2DView_nwe0062"  d="M -0.2 -1.7 L -3.270000000000026 -1.7000000000000013 " stroke="#191919" stroke-width="0.35 px" style="stroke-width:0.35;stroke-miterlimit:4;stroke-dasharray:none;fill:none;fill-opacity:1;fill-rule: evenodd"/>
<path id="Shape2DView_nwe0063"  d="M -3.270000000000026 -2.3 L -0.20000000000000018 -2.2999999999999985 " stroke="#191919" stroke-width="0.35 px" style="stroke-width:0.35;stroke-miterlimit:4;stroke-dasharray:none;fill:none;fill-opacity:1;fill-rule: evenodd"/>
<path id="Shape2DView_nwe0064"  d="M -0.2 -59.7 L -3.2700000000000005 -59.7 " stroke="#191919" stroke-width="0.35 px" style="stroke-width:0.35;stroke-miterlimit:4;stroke-dasharray:none;fill:none;fill-opacity:1;fill-rule: evenodd"/>
<path id="Shape2DView_nwe0065"  d="M -3.2700000000000005 -60.3 L -0.20000000000000018 -60.3 " stroke="#191919" stroke-width="0.35 px" style="stroke-width:0.35;stroke-miterlimit:4;stroke-dasharray:none;fill:none;fill-opacity:1;fill-rule: evenodd"/>
<path id="Shape2DView_nwe0066"  d="M -0.19999999999999993 -17.7 L -0.16641065716900758 -17.7 L -0.13324371981310562 -17.7 L -0.10091628141344981 -17.7 L -0.0698348782647325 -17.7 L -0.040390377045398995 -17.7 L -0.012953059442379955 -17.7 L 0.012132034355964272 -17.7 L 0.03454944474040894 -17.7 L 0.05401725976848526 -17.7 L 0.07029066037072573 -17.7 L 0.0831649990925103 -17.7 L 0.09247837365454703 -17.7 L 0.09811366296797275 -17.7 L 0.09999999999999998 -17.7 " stroke="#191919" stroke-width="0.35 px" style="stroke-width:0.35;stroke-miterlimit:4;stroke-dasharray:none;fill:none;fill-opacity:1;fill-rule: evenodd"/>
<path id="Shape2DView_nwe0067"  d="M -0.19999999999999993 -18.3 L -0.16641065716900758 -18.3 L -0.13324371981310562 -18.3 L -0.10091628141344981 -18.3 L -0.0698348782647325 -18.3 L -0.040390377045398995 -18.3 L -0.012953059442379955 -18.3 L 0.012132034355964272 -18.3 L 0.03454944474040894 -18.3 L 0.05401725976848526 -18.3 L 0.07029066037072573 -18.3 L 0.0831649990925103 -18.3 L 0.09247837365454703 -18.3 L 0.09811366296797275 -18.3 L 0.09999999999999998 -18.3 " stroke="#191919" stroke-width="0.35 px" style="stroke-width:0.35;stroke-miterlimit:4;stroke-dasharray:none;fill:none;fill-opacity:1;fill-rule: evenodd"/>
<path id="Shape2DView_nwe0068"  d="M 0.1 -18.3 L 0.09999999999999974 -17.7 " stroke="#191919" stroke-width="0.35 px" style="stroke-width:0.35;stroke-miterlimit:4;stroke-dasharray:none;fill:none;fill-opacity:1;fill-rule: evenodd"/>
<path id="Shape2DView_nwe0069"  d="M -0.19999999999999993 -19.7 L -0.16641065716900758 -19.7 L -0.13324371981310562 -19.7 L -0.10091628141344981 -19.7 L -0.0698348782647325 -19.7 L -0.040390377045398995 -19.7 L -0.012953059442379955 -19.7 L 0.012132034355964272 -19.7 L 0.03454944474040894 -19.7 L 0.05401725976848526 -19.7 L 0.07029066037072573 -19.7 L 0.0831649990925103 -19.7 L 0.09247837365454703 -19.7 L 0.09811366296797275 -19.7 L 0.09999999999999998 -19.7 " stroke="#191919" stroke-width="0.35 px" style="stroke-width:0.35;stroke-miterlimit:4;stroke-dasharray:none;fill:none;fill-opacity:1;fill-rule: evenodd"/>
<path id="Shape2DView_nwe0070"  d="M -0.19999999999999993 -20.3 L -0.16641065716900758 -20.3 L -0.13324371981310562 -20.3 L -0.10091628141344981 -20.3 L -0.0698348782647325 -20.3 L -0.040390377045398995 -20.3 L -0.012953059442379955 -20.3 L 0.012132034355964272 -20.3 L 0.03454944474040894 -20.3 L 0.05401725976848526 -20.3 L 0.07029066037072573 -20.3 L 0.0831649990925103 -20.3 L 0.09247837365454703 -20.3 L 0.09811366296797275 -20.3 L 0.09999999999999998 -20.3 " stroke="#191919" stroke-width="0.35 px" style="stroke-width:0.35;stroke-miterlimit:4;stroke-dasharray:none;fill:none;fill-opacity:1;fill-rule: evenodd"/>
<path id="Shape2DView_nwe0071"  d="M 0.1 -20.3 L 0.09999999999999974 -19.7 " stroke="#191919" stroke-width="0.35 px" style="stroke-width:0.35;stroke-miterlimit:4;stroke-dasharray:none;fill:none;fill-opacity:1;fill-rule: evenodd"/>
<path id="Shape2DView_nwe0072"  d="M -0.19999999999999993 -21.7 L -0.16641065716900758 -21.7 L -0.13324371981310562 -21.7 L -0.10091628141344981 -21.7 L -0.0698348782647325 -21.7 L -0.040390377045398995 -21.7 L -0.012953059442379955 -21.7 L 0.012132034355964272 -21.7 L 0.03454944474040894 -21.7 L 0.05401725976848526 -21.7 L 0.07029066037072573 -21.7 L 0.0831649990925103 -21.7 L 0.09247837365454703 -21.7 L 0.09811366296797275 -21.7 L 0.09999999999999998 -21.7 " stroke="#191919" stroke-width="0.35 px" style="stroke-width:0.35;stroke-miterlimit:4;stroke-dasharray:none;fill:none;fill-opacity:1;fill-rule: evenodd"/>
<path id="Shape2DView_nwe0073"  d="M -0.19999999999999993 -22.3 L -0.16641065716900758 -22.3 L -0.13324371981310562 -22.3 L -0.10091628141344981 -22.3 L -0.0698348782647325 -22.3 L -0.040390377045398995 -22.3 L -0.012953059442379955 -22.3 L 0.012132034355964272 -22.3 L 0.03454944474040894 -22.3 L 0.05401725976848526 -22.3 L 0.07029066037072573 -22.3 L 0.0831649990925103 -22.3 L 0.09247837365454703 -22.3 L 0.09811366296797275 -22.3 L 0.09999999999999998 -22.3 " stroke="#191919" stroke-width="0.35 px" style="stroke-width:0.35;stroke-miterlimit:4;stroke-dasharray:none;fill:none;fill-opacity:1;fill-rule: evenodd"/>
<path id="Shape2DView_nwe0074"  d="M 0.1 -22.3 L 0.09999999999999974 -21.7 " stroke="#191919" stroke-width="0.35 px" style="stroke-width:0.35;stroke-miterlimit:4;stroke-dasharray:none;fill:none;fill-opacity:1;fill-rule: evenodd"/>
<path id="Shape2DView_nwe0075"  d="M -0.19999999999999993 -27.7 L -0.16641065716900758 -27.7 L -0.13324371981310562 -27.7 L -0.10091628141344981 -27.7 L -0.0698348782647325 -27.7 L -0.040390377045398995 -27.7 L -0.012953059442379955 -27.7 L 0.012132034355964272 -27.7 L 0.03454944474040894 -27.7 L 0.05401725976848526 -27.7 L 0.07029066037072573 -27.7 L 0.0831649990925103 -27.7 L 0.09247837365454703 -27.7 L 0.09811366296797275 -27.7 L 0.09999999999999998 -27.7 " stroke="#191919" stroke-width="0.35 px" style="stroke-width:0.35;stroke-miterlimit:4;stroke-dasharray:none;fill:none;fill-opacity:1;fill-rule: evenodd"/>
<path id="Shape2DView_nwe0076"  d="M -0.19999999999999993 -28.3 L -0.16641065716900758 -28.3 L -0.13324371981310562 -28.3 L -0.10091628141344981 -28.3 L -0.0698348782647325 -28.3 L -0.040390377045398995 -28.3 L -0.012953059442379955 -28.3 L 0.012132034355964272 -28.3 L 0.03454944474040894 -28.3 L 0.05401725976848526 -28.3 L 0.07029066037072573 -28.3 L 0.0831649990925103 -28.3 L 0.09247837365454703 -28.3 L 0.09811366296797275 -28.3 L 0.09999999999999998 -28.3 " stroke="#191919" stroke-width="0.35 px" style="stroke-width:0.35;stroke-miterlimit:4;stroke-dasharray:none;fill:none;fill-opacity:1;fill-rule: evenodd"/>
<path id="Shape2DView_nwe0077"  d="M 0.1 -28.3 L 0.09999999999999974 -27.7 " stroke="#191919" stroke-width="0.35 px" style="stroke-width:0.35;stroke-miterlimit:4;stroke-dasharray:none;fill:none;fill-opacity:1;fill-rule: evenodd"/>
<path id="Shape2DView_nwe0078"  d="M -0.19999999999999993 -25.7 L -0.16641065716900758 -25.7 L -0.13324371981310562 -25.7 L -0.10091628141344981 -25.7 L -0.0698348782647325 -25.7 L -0.040390377045398995 -25.7 L -0.012953059442379955 -25.7 L 0.012132034355964272 -25.7 L 0.03454944474040894 -25.7 L 0.05401725976848526 -25.7 L 0.07029066037072573 -25.7 L 0.0831649990925103 -25.7 L 0.09247837365454703 -25.7 L 0.09811366296797275 -25.7 L 0.09999999999999998 -25.7 " stroke="#191919" stroke-width="0.35 px" style="stroke-width:0.35;stroke-miterlimit:4;stroke-dasharray:none;fill:none;fill-opacity:1;fill-rule: evenodd"/>
<path id="Shape2DView_nwe0079"  d="M -0.19999999999999993 -26.3 L -0.16641065716900758 -26.3 L -0.13324371981310562 -26.3 L -0.10091628141344981 -26.3 L -0.0698348782647325 -26.3 L -0.040390377045398995 -26.3 L -0.012953059442379955 -26.3 L 0.012132034355964272 -26.3 L 0.03454944474040894 -26.3 L 0.05401725976848526 -26.3 L 0.07029066037072573 -26.3 L 0.0831649990925103 -26.3 L 0.09247837365454703 -26.3 L 0.09811366296797275 -26.3 L 0.09999999999999998 -26.3 " stroke="#191919" stroke-width="0.35 px" style="stroke-width:0.35;stroke-miterlimit:4;stroke-dasharray:none;fill:none;fill-opacity:1;fill-rule: evenodd"/>
<path id="Shape2DView_nwe0080"  d="M 0.1 -26.3 L 0.09999999999999974 -25.7 " stroke="#191919" stroke-width="0.35 px" style="stroke-width:0.35;stroke-miterlimit:4;stroke-dasharray:none;fill:none;fill-opacity:1;fill-rule: evenodd"/>
<path id="Shape2DView_nwe0081"  d="M -0.19999999999999993 -23.7 L -0.16641065716900758 -23.7 L -0.13324371981310562 -23.7 L -0.10091628141344981 -23.7 L -0.0698348782647325 -23.7 L -0.040390377045398995 -23.7 L -0.012953059442379955 -23.7 L 0.012132034355964272 -23.7 L 0.03454944474040894 -23.7 L 0.05401725976848526 -23.7 L 0.07029066037072573 -23.7 L 0.0831649990925103 -23.7 L 0.09247837365454703 -23.7 L 0.09811366296797275 -23.7 L 0.09999999999999998 -23.7 " stroke="#191919" stroke-width="0.35 px" style="stroke-width:0.35;stroke-miterlimit:4;stroke-dasharray:none;fill:none;fill-opacity:1;fill-rule: evenodd"/>
<path id="Shape2DView_nwe0082"  d="M -0.19999999999999993 -24.3 L -0.16641065716900758 -24.3 L -0.13324371981310562 -24.3 L -0.10091628141344981 -24.3 L -0.0698348782647325 -24.3 L -0.040390377045398995 -24.3 L -0.012953059442379955 -24.3 L 0.012132034355964272 -24.3 L 0.03454944474040894 -24.3 L 0.05401725976848526 -24.3 L 0.07029066037072573 -24.3 L 0.0831649990925103 -24.3 L 0.09247837365454703 -24.3 L 0.09811366296797275 -24.3 L 0.09999999999999998 -24.3 " stroke="#191919" stroke-width="0.35 px" style="stroke-width:0.35;stroke-miterlimit:4;stroke-dasharray:none;fill:none;fill-opacity:1;fill-rule: evenodd"/>
<path id="Shape2DView_nwe0083"  d="M 0.1 -24.3 L 0.09999999999999974 -23.7 " stroke="#191919" stroke-width="0.35 px" style="stroke-width:0.35;stroke-miterlimit:4;stroke-dasharray:none;fill:none;fill-opacity:1;fill-rule: evenodd"/>
<path id="Shape2DView_nwe0084"  d="M -0.19999999999999993 -31.7 L -0.16641065716900758 -31.7 L -0.13324371981310562 -31.7 L -0.10091628141344981 -31.7 L -0.0698348782647325 -31.7 L -0.040390377045398995 -31.7 L -0.012953059442379955 -31.7 L 0.012132034355964272 -31.7 L 0.03454944474040894 -31.7 L 0.05401725976848526 -31.7 L 0.07029066037072573 -31.7 L 0.0831649990925103 -31.7 L 0.09247837365454703 -31.7 L 0.09811366296797275 -31.7 L 0.09999999999999998 -31.7 " stroke="#191919" stroke-width="0.35 px" style="stroke-width:0.35;stroke-miterlimit:4;stroke-dasharray:none;fill:none;fill-opacity:1;fill-rule: evenodd"/>
<path id="Shape2DView_nwe0085"  d="M -0.19999999999999993 -32.3 L -0.16641065716900758 -32.3 L -0.13324371981310562 -32.3 L -0.10091628141344981 -32.3 L -0.0698348782647325 -32.3 L -0.040390377045398995 -32.3 L -0.012953059442379955 -32.3 L 0.012132034355964272 -32.3 L 0.03454944474040894 -32.3 L 0.05401725976848526 -32.3 L 0.07029066037072573 -32.3 L 0.0831649990925103 -32.3 L 0.09247837365454703 -32.3 L 0.09811366296797275 -32.3 L 0.09999999999999998 -32.3 " stroke="#191919" stroke-width="0.35 px" style="stroke-width:0.35;stroke-miterlimit:4;stroke-dasharray:none;fill:none;fill-opacity:1;fill-rule: evenodd"/>
<path id="Shape2DView_nwe0086"  d="M 0.1 -32.3 L 0.09999999999999974 -31.7 " stroke="#191919" stroke-width="0.35 px" style="stroke-width:0.35;stroke-miterlimit:4;stroke-dasharray:none;fill:none;fill-opacity:1;fill-rule: evenodd"/>
<path id="Shape2DView_nwe0087"  d="M -0.19999999999999993 -29.7 L -0.16641065716900758 -29.7 L -0.13324371981310562 -29.7 L -0.10091628141344981 -29.7 L -0.0698348782647325 -29.7 L -0.040390377045398995 -29.7 L -0.012953059442379955 -29.7 L 0.012132034355964272 -29.7 L 0.03454944474040894 -29.7 L 0.05401725976848526 -29.7 L 0.07029066037072573 -29.7 L 0.0831649990925103 -29.7 L 0.09247837365454703 -29.7 L 0.09811366296797275 -29.7 L 0.09999999999999998 -29.7 " stroke="#191919" stroke-width="0.35 px" style="stroke-width:0.35;stroke-miterlimit:4;stroke-dasharray:none;fill:none;fill-opacity:1;fill-rule: evenodd"/>
<path id="Shape2DView_nwe0088"  d="M -0.19999999999999993 -30.3 L -0.16641065716900758 -30.3 L -0.13324371981310562 -30.3 L -0.10091628141344981 -30.3 L -0.0698348782647325 -30.3 L -0.040390377045398995 -30.3 L -0.012953059442379955 -30.3 L 0.012132034355964272 -30.3 L 0.03454944474040894 -30.3 L 0.05401725976848526 -30.3 L 0.07029066037072573 -30.3 L 0.0831649990925103 -30.3 L 0.09247837365454703 -30.3 L 0.09811366296797275 -30.3 L 0.09999999999999998 -30.3 " stroke="#191919" stroke-width="0.35 px" style="stroke-width:0.35;stroke-miterlimit:4;stroke-dasharray:none;fill:none;fill-opacity:1;fill-rule: evenodd"/>
<path id="Shape2DView_nwe0089"  d="M 0.1 -30.3 L 0.09999999999999974 -29.7 " stroke="#191919" stroke-width="0.35 px" style="stroke-width:0.35;stroke-miterlimit:4;stroke-dasharray:none;fill:none;fill-opacity:1;fill-rule: evenodd"/>
<path id="Shape2DView_nwe0090"  d="M -0.19999999999999993 -45.7 L -0.16641065716900758 -45.7 L -0.13324371981310562 -45.7 L -0.10091628141344981 -45.7 L -0.0698348782647325 -45.7 L -0.040390377045398995 -45.7 L -0.012953059442379955 -45.7 L 0.012132034355964272 -45.7 L 0.03454944474040894 -45.7 L 0.05401725976848526 -45.7 L 0.07029066037072573 -45.7 L 0.0831649990925103 -45.7 L 0.09247837365454703 -45.7 L 0.09811366296797275 -45.7 L 0.09999999999999998 -45.7 " stroke="#191919" stroke-width="0.35 px" style="stroke-width:0.35;stroke-miterlimit:4;stroke-dasharray:none;fill:none;fill-opacity:1;fill-rule: evenodd"/>
<path id="Shape2DView_nwe0091"  d="M -0.19999999999999993 -46.3 L -0.16641065716900758 -46.3 L -0.13324371981310562 -46.3 L -0.10091628141344981 -46.3 L -0.0698348782647325 -46.3 L -0.040390377045398995 -46.3 L -0.012953059442379955 -46.3 L 0.012132034355964272 -46.3 L 0.03454944474040894 -46.3 L 0.05401725976848526 -46.3 L 0.07029066037072573 -46.3 L 0.0831649990925103 -46.3 L 0.09247837365454703 -46.3 L 0.09811366296797275 -46.3 L 0.09999999999999998 -46.3 " stroke="#191919" stroke-width="0.35 px" style="stroke-width:0.35;stroke-miterlimit:4;stroke-dasharray:none;fill:none;fill-opacity:1;fill-rule: evenodd"/>
<path id="Shape2DView_nwe0092"  d="M 0.1 -46.3 L 0.09999999999999974 -45.7 " stroke="#191919" stroke-width="0.35 px" style="stroke-width:0.35;stroke-miterlimit:4;stroke-dasharray:none;fill:none;fill-opacity:1;fill-rule: evenodd"/>
<path id="Shape2DView_nwe0093"  d="M -0.19999999999999993 -43.7 L -0.16641065716900758 -43.7 L -0.13324371981310562 -43.7 L -0.10091628141344981 -43.7 L -0.0698348782647325 -43.7 L -0.040390377045398995 -43.7 L -0.012953059442379955 -43.7 L 0.012132034355964272 -43.7 L 0.03454944474040894 -43.7 L 0.05401725976848526 -43.7 L 0.07029066037072573 -43.7 L 0.0831649990925103 -43.7 L 0.09247837365454703 -43.7 L 0.09811366296797275 -43.7 L 0.09999999999999998 -43.7 " stroke="#191919" stroke-width="0.35 px" style="stroke-width:0.35;stroke-miterlimit:4;stroke-dasharray:none;fill:none;fill-opacity:1;fill-rule: evenodd"/>
<path id="Shape2DView_nwe0094"  d="M -0.19999999999999993 -44.3 L -0.16641065716900758 -44.3 L -0.13324371981310562 -44.3 L -0.10091628141344981 -44.3 L -0.0698348782647325 -44.3 L -0.040390377045398995 -44.3 L -0.012953059442379955 -44.3 L 0.012132034355964272 -44.3 L 0.03454944474040894 -44.3 L 0.05401725976848526 -44.3 L 0.07029066037072573 -44.3 L 0.0831649990925103 -44.3 L 0.09247837365454703 -44.3 L 0.09811366296797275 -44.3 L 0.09999999999999998 -44.3 " stroke="#191919" stroke-width="0.35 px" style="stroke-width:0.35;stroke-miterlimit:4;stroke-dasharray:none;fill:none;fill-opacity:1;fill-rule: evenodd"/>
<path id="Shape2DView_nwe0095"  d="M 0.1 -44.3 L 0.09999999999999974 -43.7 " stroke="#191919" stroke-width="0.35 px" style="stroke-width:0.35;stroke-miterlimit:4;stroke-dasharray:none;fill:none;fill-opacity:1;fill-rule: evenodd"/>
<path id="Shape2DView_nwe0096"  d="M -0.19999999999999993 -37.7 L -0.16641065716900758 -37.7 L -0.13324371981310562 -37.7 L -0.10091628141344981 -37.7 L -0.0698348782647325 -37.7 L -0.040390377045398995 -37.7 L -0.012953059442379955 -37.7 L 0.012132034355964272 -37.7 L 0.03454944474040894 -37.7 L 0.05401725976848526 -37.7 L 0.07029066037072573 -37.7 L 0.0831649990925103 -37.7 L 0.09247837365454703 -37.7 L 0.09811366296797275 -37.7 L 0.09999999999999998 -37.7 " stroke="#191919" stroke-width="0.35 px" style="stroke-width:0.35;stroke-miterlimit:4;stroke-dasharray:none;fill:none;fill-opacity:1;fill-rule: evenodd"/>
<path id="Shape2DView_nwe0097"  d="M -0.19999999999999993 -38.3 L -0.16641065716900758 -38.3 L -0.13324371981310562 -38.3 L -0.10091628141344981 -38.3 L -0.0698348782647325 -38.3 L -0.040390377045398995 -38.3 L -0.012953059442379955 -38.3 L 0.012132034355964272 -38.3 L 0.03454944474040894 -38.3 L 0.05401725976848526 -38.3 L 0.07029066037072573 -38.3 L 0.0831649990925103 -38.3 L 0.09247837365454703 -38.3 L 0.09811366296797275 -38.3 L 0.09999999999999998 -38.3 " stroke="#191919" stroke-width="0.35 px" style="stroke-width:0.35;stroke-miterlimit:4;stroke-dasharray:none;fill:none;fill-opacity:1;fill-rule: evenodd"/>
<path id="Shape2DView_nwe0098"  d="M 0.1 -38.3 L 0.09999999999999974 -37.7 " stroke="#191919" stroke-width="0.35 px" style="stroke-width:0.35;stroke-miterlimit:4;stroke-dasharray:none;fill:none;fill-opacity:1;fill-rule: evenodd"/>
<path id="Shape2DView_nwe0099"  d="M -0.19999999999999993 -39.7 L -0.16641065716900758 -39.7 L -0.13324371981310562 -39.7 L -0.10091628141344981 -39.7 L -0.0698348782647325 -39.7 L -0.040390377045398995 -39.7 L -0.012953059442379955 -39.7 L 0.012132034355964272 -39.7 L 0.03454944474040894 -39.7 L 0.05401725976848526 -39.7 L 0.07029066037072573 -39.7 L 0.0831649990925103 -39.7 L 0.09247837365454703 -39.7 L 0.09811366296797275 -39.7 L 0.09999999999999998 -39.7 " stroke="#191919" stroke-width="0.35 px" style="stroke-width:0.35;stroke-miterlimit:4;stroke-dasharray:none;fill:none;fill-opacity:1;fill-rule: evenodd"/>
<path id="Shape2DView_nwe0100"  d="M -0.19999999999999993 -40.3 L -0.16641065716900758 -40.3 L -0.13324371981310562 -40.3 L -0.10091628141344981 -40.3 L -0.0698348782647325 -40.3 L -0.040390377045398995 -40.3 L -0.012953059442379955 -40.3 L 0.012132034355964272 -40.3 L 0.03454944474040894 -40.3 L 0.05401725976848526 -40.3 L 0.07029066037072573 -40.3 L 0.0831649990925103 -40.3 L 0.09247837365454703 -40.3 L 0.09811366296797275 -40.3 L 0.09999999999999998 -40.3 " stroke="#191919" stroke-width="0.35 px" style="stroke-width:0.35;stroke-miterlimit:4;stroke-dasharray:none;fill:none;fill-opacity:1;fill-rule: evenodd"/>
<path id="Shape2DView_nwe0101"  d="M 0.1 -40.3 L 0.09999999999999974 -39.7 " stroke="#191919" stroke-width="0.35 px" style="stroke-width:0.35;stroke-miterlimit:4;stroke-dasharray:none;fill:none;fill-opacity:1;fill-rule: evenodd"/>
<path id="Shape2DView_nwe0102"  d="M -0.19999999999999993 -41.7 L -0.16641065716900758 -41.7 L -0.13324371981310562 -41.7 L -0.10091628141344981 -41.7 L -0.0698348782647325 -41.7 L -0.040390377045398995 -41.7 L -0.012953059442379955 -41.7 L 0.012132034355964272 -41.7 L 0.03454944474040894 -41.7 L 0.05401725976848526 -41.7 L 0.07029066037072573 -41.7 L 0.0831649990925103 -41.7 L 0.09247837365454703 -41.7 L 0.09811366296797275 -41.7 L 0.09999999999999998 -41.7 " stroke="#191919" stroke-width="0.35 px" style="stroke-width:0.35;stroke-miterlimit:4;stroke-dasharray:none;fill:none;fill-opacity:1;fill-rule: evenodd"/>
<path id="Shape2DView_nwe0103"  d="M -0.19999999999999993 -42.3 L -0.16641065716900758 -42.3 L -0.13324371981310562 -42.3 L -0.10091628141344981 -42.3 L -0.0698348782647325 -42.3 L -0.040390377045398995 -42.3 L -0.012953059442379955 -42.3 L 0.012132034355964272 -42.3 L 0.03454944474040894 -42.3 L 0.05401725976848526 -42.3 L 0.07029066037072573 -42.3 L 0.0831649990925103 -42.3 L 0.09247837365454703 -42.3 L 0.09811366296797275 -42.3 L 0.09999999999999998 -42.3 " stroke="#191919" stroke-width="0.35 px" style="stroke-width:0.35;stroke-miterlimit:4;stroke-dasharray:none;fill:none;fill-opacity:1;fill-rule: evenodd"/>
<path id="Shape2DView_nwe0104"  d="M 0.1 -42.3 L 0.09999999999999974 -41.7 " stroke="#191919" stroke-width="0.35 px" style="stroke-width:0.35;stroke-miterlimit:4;stroke-dasharray:none;fill:none;fill-opacity:1;fill-rule: evenodd"/>
<path id="Shape2DView_nwe0105"  d="M -0.19999999999999993 -35.7 L -0.16641065716900758 -35.7 L -0.13324371981310562 -35.7 L -0.10091628141344981 -35.7 L -0.0698348782647325 -35.7 L -0.040390377045398995 -35.7 L -0.012953059442379955 -35.7 L 0.012132034355964272 -35.7 L 0.03454944474040894 -35.7 L 0.05401725976848526 -35.7 L 0.07029066037072573 -35.7 L 0.0831649990925103 -35.7 L 0.09247837365454703 -35.7 L 0.09811366296797275 -35.7 L 0.09999999999999998 -35.7 " stroke="#191919" stroke-width="0.35 px" style="stroke-width:0.35;stroke-miterlimit:4;stroke-dasharray:none;fill:none;fill-opacity:1;fill-rule: evenodd"/>
<path id="Shape2DView_nwe0106"  d="M -0.19999999999999993 -36.3 L -0.16641065716900758 -36.3 L -0.13324371981310562 -36.3 L -0.10091628141344981 -36.3 L -0.0698348782647325 -36.3 L -0.040390377045398995 -36.3 L -0.012953059442379955 -36.3 L 0.012132034355964272 -36.3 L 0.03454944474040894 -36.3 L 0.05401725976848526 -36.3 L 0.07029066037072573 -36.3 L 0.0831649990925103 -36.3 L 0.09247837365454703 -36.3 L 0.09811366296797275 -36.3 L 0.09999999999999998 -36.3 " stroke="#191919" stroke-width="0.35 px" style="stroke-width:0.35;stroke-miterlimit:4;stroke-dasharray:none;fill:none;fill-opacity:1;fill-rule: evenodd"/>
<path id="Shape2DView_nwe0107"  d="M 0.1 -36.3 L 0.09999999999999974 -35.7 " stroke="#191919" stroke-width="0.35 px" style="stroke-width:0.35;stroke-miterlimit:4;stroke-dasharray:none;fill:none;fill-opacity:1;fill-rule: evenodd"/>
<path id="Shape2DView_nwe0108"  d="M -0.19999999999999993 -33.7 L -0.16641065716900758 -33.7 L -0.13324371981310562 -33.7 L -0.10091628141344981 -33.7 L -0.0698348782647325 -33.7 L -0.040390377045398995 -33.7 L -0.012953059442379955 -33.7 L 0.012132034355964272 -33.7 L 0.03454944474040894 -33.7 L 0.05401725976848526 -33.7 L 0.07029066037072573 -33.7 L 0.0831649990925103 -33.7 L 0.09247837365454703 -33.7 L 0.09811366296797275 -33.7 L 0.09999999999999998 -33.7 " stroke="#191919" stroke-width="0.35 px" style="stroke-width:0.35;stroke-miterlimit:4;stroke-dasharray:none;fill:none;fill-opacity:1;fill-rule: evenodd"/>
<path id="Shape2DView_nwe0109"  d="M -0.19999999999999993 -34.3 L -0.16641065716900758 -34.3 L -0.13324371981310562 -34.3 L -0.10091628141344981 -34.3 L -0.0698348782647325 -34.3 L -0.040390377045398995 -34.3 L -0.012953059442379955 -34.3 L 0.012132034355964272 -34.3 L 0.03454944474040894 -34.3 L 0.05401725976848526 -34.3 L 0.07029066037072573 -34.3 L 0.0831649990925103 -34.3 L 0.09247837365454703 -34.3 L 0.09811366296797275 -34.3 L 0.09999999999999998 -34.3 " stroke="#191919" stroke-width="0.35 px" style="stroke-width:0.35;stroke-miterlimit:4;stroke-dasharray:none;fill:none;fill-opacity:1;fill-rule: evenodd"/>
<path id="Shape2DView_nwe0110"  d="M 0.1 -34.3 L 0.09999999999999974 -33.7 " stroke="#191919" stroke-width="0.35 px" style="stroke-width:0.35;stroke-miterlimit:4;stroke-dasharray:none;fill:none;fill-opacity:1;fill-rule: evenodd"/>
<path id="Shape2DView_nwe0111"  d="M -0.19999999999999993 -13.7 L -0.16641065716900758 -13.7 L -0.13324371981310562 -13.7 L -0.10091628141344981 -13.7 L -0.0698348782647325 -13.7 L -0.040390377045398995 -13.7 L -0.012953059442379955 -13.7 L 0.012132034355964272 -13.7 L 0.03454944474040894 -13.7 L 0.05401725976848526 -13.7 L 0.07029066037072573 -13.7 L 0.0831649990925103 -13.7 L 0.09247837365454703 -13.7 L 0.09811366296797275 -13.7 L 0.09999999999999998 -13.7 " stroke="#191919" stroke-width="0.35 px" style="stroke-width:0.35;stroke-miterlimit:4;stroke-dasharray:none;fill:none;fill-opacity:1;fill-rule: evenodd"/>
<path id="Shape2DView_nwe0112"  d="M -0.19999999999999993 -14.3 L -0.16641065716900758 -14.3 L -0.13324371981310562 -14.3 L -0.10091628141344981 -14.3 L -0.0698348782647325 -14.3 L -0.040390377045398995 -14.3 L -0.012953059442379955 -14.3 L 0.012132034355964272 -14.3 L 0.03454944474040894 -14.3 L 0.05401725976848526 -14.3 L 0.07029066037072573 -14.3 L 0.0831649990925103 -14.3 L 0.09247837365454703 -14.3 L 0.09811366296797275 -14.3 L 0.09999999999999998 -14.3 " stroke="#191919" stroke-width="0.35 px" style="stroke-width:0.35;stroke-miterlimit:4;stroke-dasharray:none;fill:none;fill-opacity:1;fill-rule: evenodd"/>
<path id="Shape2DView_nwe0113"  d="M 0.09999999999999 -14.3 L 0.09999999999998974 -13.7 " stroke="#191919" stroke-width="0.35 px" style="stroke-width:0.35;stroke-miterlimit:4;stroke-dasharray:none;fill:none;fill-opacity:1;fill-rule: evenodd"/>
<path id="Shape2DView_nwe0114"  d="M -0.19999999999999993 -15.7 L -0.16641065716900758 -15.7 L -0.13324371981310562 -15.7 L -0.10091628141344981 -15.7 L -0.0698348782647325 -15.7 L -0.040390377045398995 -15.7 L -0.012953059442379955 -15.7 L 0.012132034355964272 -15.7 L 0.03454944474040894 -15.7 L 0.05401725976848526 -15.7 L 0.07029066037072573 -15.7 L 0.0831649990925103 -15.7 L 0.09247837365454703 -15.7 L 0.09811366296797275 -15.7 L 0.09999999999999998 -15.7 " stroke="#191919" stroke-width="0.35 px" style="stroke-width:0.35;stroke-miterlimit:4;stroke-dasharray:none;fill:none;fill-opacity:1;fill-rule: evenodd"/>
<path id="Shape2DView_nwe0115"  d="M -0.19999999999999993 -16.3 L -0.16641065716900758 -16.3 L -0.13324371981310562 -16.3 L -0.10091628141344981 -16.3 L -0.0698348782647325 -16.3 L -0.040390377045398995 -16.3 L -0.012953059442379955 -16.3 L 0.012132034355964272 -16.3 L 0.03454944474040894 -16.3 L 0.05401725976848526 -16.3 L 0.07029066037072573 -16.3 L 0.0831649990925103 -16.3 L 0.09247837365454703 -16.3 L 0.09811366296797275 -16.3 L 0.09999999999999998 -16.3 " stroke="#191919" stroke-width="0.35 px" style="stroke-width:0.35;stroke-miterlimit:4;stroke-dasharray:none;fill:none;fill-opacity:1;fill-rule: evenodd"/>
<path id="Shape2DView_nwe0116"  d="M 0.09999999999999 -16.3 L 0.09999999999998974 -15.7 " stroke="#191919" stroke-width="0.35 px" style="stroke-width:0.35;stroke-miterlimit:4;stroke-dasharray:none;fill:none;fill-opacity:1;fill-rule: evenodd"/>
<path id="Shape2DView_nwe0117"  d="M -0.19999999999999993 -55.7 L -0.16641065716900758 -55.7 L -0.13324371981310562 -55.7 L -0.10091628141344981 -55.7 L -0.0698348782647325 -55.7 L -0.040390377045398995 -55.7 L -0.012953059442379955 -55.7 L 0.012132034355964272 -55.7 L 0.03454944474040894 -55.7 L 0.05401725976848526 -55.7 L 0.07029066037072573 -55.7 L 0.0831649990925103 -55.7 L 0.09247837365454703 -55.7 L 0.09811366296797275 -55.7 L 0.09999999999999998 -55.7 " stroke="#191919" stroke-width="0.35 px" style="stroke-width:0.35;stroke-miterlimit:4;stroke-dasharray:none;fill:none;fill-opacity:1;fill-rule: evenodd"/>
<path id="Shape2DView_nwe0118"  d="M -0.19999999999999993 -56.3 L -0.16641065716900758 -56.3 L -0.13324371981310562 -56.3 L -0.10091628141344981 -56.3 L -0.0698348782647325 -56.3 L -0.040390377045398995 -56.3 L -0.012953059442379955 -56.3 L 0.012132034355964272 -56.3 L 0.03454944474040894 -56.3 L 0.05401725976848526 -56.3 L 0.07029066037072573 -56.3 L 0.0831649990925103 -56.3 L 0.09247837365454703 -56.3 L 0.09811366296797275 -56.3 L 0.09999999999999998 -56.3 " stroke="#191919" stroke-width="0.35 px" style="stroke-width:0.35;stroke-miterlimit:4;stroke-dasharray:none;fill:none;fill-opacity:1;fill-rule: evenodd"/>
<path id="Shape2DView_nwe0119"  d="M 0.1 -56.3 L 0.09999999999999974 -55.7 " stroke="#191919" stroke-width="0.35 px" style="stroke-width:0.35;stroke-miterlimit:4;stroke-dasharray:none;fill:none;fill-opacity:1;fill-rule: evenodd"/>
<path id="Shape2DView_nwe0120"  d="M -0.19999999999999993 -53.7 L -0.16641065716900758 -53.7 L -0.13324371981310562 -53.7 L -0.10091628141344981 -53.7 L -0.0698348782647325 -53.7 L -0.040390377045398995 -53.7 L -0.012953059442379955 -53.7 L 0.012132034355964272 -53.7 L 0.03454944474040894 -53.7 L 0.05401725976848526 -53.7 L 0.07029066037072573 -53.7 L 0.0831649990925103 -53.7 L 0.09247837365454703 -53.7 L 0.09811366296797275 -53.7 L 0.09999999999999998 -53.7 " stroke="#191919" stroke-width="0.35 px" style="stroke-width:0.35;stroke-miterlimit:4;stroke-dasharray:none;fill:none;fill-opacity:1;fill-rule: evenodd"/>
<path id="Shape2DView_nwe0121"  d="M -0.19999999999999993 -54.3 L -0.16641065716900758 -54.3 L -0.13324371981310562 -54.3 L -0.10091628141344981 -54.3 L -0.0698348782647325 -54.3 L -0.040390377045398995 -54.3 L -0.012953059442379955 -54.3 L 0.012132034355964272 -54.3 L 0.03454944474040894 -54.3 L 0.05401725976848526 -54.3 L 0.07029066037072573 -54.3 L 0.0831649990925103 -54.3 L 0.09247837365454703 -54.3 L 0.09811366296797275 -54.3 L 0.09999999999999998 -54.3 " stroke="#191919" stroke-width="0.35 px" style="stroke-width:0.35;stroke-miterlimit:4;stroke-dasharray:none;fill:none;fill-opacity:1;fill-rule: evenodd"/>
<path id="Shape2DView_nwe0122"  d="M 0.1 -54.3 L 0.09999999999999974 -53.7 " stroke="#191919" stroke-width="0.35 px" style="stroke-width:0.35;stroke-miterlimit:4;stroke-dasharray:none;fill:none;fill-opacity:1;fill-rule: evenodd"/>
<path id="Shape2DView_nwe0123"  d="M -0.19999999999999993 -51.7 L -0.16641065716900758 -51.7 L -0.13324371981310562 -51.7 L -0.10091628141344981 -51.7 L -0.0698348782647325 -51.7 L -0.040390377045398995 -51.7 L -0.012953059442379955 -51.7 L 0.012132034355964272 -51.7 L 0.03454944474040894 -51.7 L 0.05401725976848526 -51.7 L 0.07029066037072573 -51.7 L 0.0831649990925103 -51.7 L 0.09247837365454703 -51.7 L 0.09811366296797275 -51.7 L 0.09999999999999998 -51.7 " stroke="#191919" stroke-width="0.35 px" style="stroke-width:0.35;stroke-miterlimit:4;stroke-dasharray:none;fill:none;fill-opacity:1;fill-rule: evenodd"/>
<path id="Shape2DView_nwe0124"  d="M -0.19999999999999993 -52.3 L -0.16641065716900758 -52.3 L -0.13324371981310562 -52.3 L -0.10091628141344981 -52.3 L -0.0698348782647325 -52.3 L -0.040390377045398995 -52.3 L -0.012953059442379955 -52.3 L 0.012132034355964272 -52.3 L 0.03454944474040894 -52.3 L 0.05401725976848526 -52.3 L 0.07029066037072573 -52.3 L 0.0831649990925103 -52.3 L 0.09247837365454703 -52.3 L 0.09811366296797275 -52.3 L 0.09999999999999998 -52.3 " stroke="#191919" stroke-width="0.35 px" style="stroke-width:0.35;stroke-miterlimit:4;stroke-dasharray:none;fill:none;fill-opacity:1;fill-rule: evenodd"/>
<path id="Shape2DView_nwe0125"  d="M 0.1 -52.3 L 0.09999999999999974 -51.7 " stroke="#191919" stroke-width="0.35 px" style="stroke-width:0.35;stroke-miterlimit:4;stroke-dasharray:none;fill:none;fill-opacity:1;fill-rule: evenodd"/>
<path id="Shape2DView_nwe0126"  d="M -0.19999999999999993 -47.7 L -0.16641065716900758 -47.7 L -0.13324371981310562 -47.7 L -0.10091628141344981 -47.7 L -0.0698348782647325 -47.7 L -0.040390377045398995 -47.7 L -0.012953059442379955 -47.7 L 0.012132034355964272 -47.7 L 0.03454944474040894 -47.7 L 0.05401725976848526 -47.7 L 0.07029066037072573 -47.7 L 0.0831649990925103 -47.7 L 0.09247837365454703 -47.7 L 0.09811366296797275 -47.7 L 0.09999999999999998 -47.7 " stroke="#191919" stroke-width="0.35 px" style="stroke-width:0.35;stroke-miterlimit:4;stroke-dasharray:none;fill:none;fill-opacity:1;fill-rule: evenodd"/>
<path id="Shape2DView_nwe0127"  d="M -0.19999999999999993 -48.3 L -0.16641065716900758 -48.3 L -0.13324371981310562 -48.3 L -0.10091628141344981 -48.3 L -0.0698348782647325 -48.3 L -0.040390377045398995 -48.3 L -0.012953059442379955 -48.3 L 0.012132034355964272 -48.3 L 0.03454944474040894 -48.3 L 0.05401725976848526 -48.3 L 0.07029066037072573 -48.3 L 0.0831649990925103 -48.3 L 0.09247837365454703 -48.3 L 0.09811366296797275 -48.3 L 0.09999999999999998 -48.3 " stroke="#191919" stroke-width="0.35 px" style="stroke-width:0.35;stroke-miterlimit:4;stroke-dasharray:none;fill:none;fill-opacity:1;fill-rule: evenodd"/>
<path id="Shape2DView_nwe0128"  d="M 0.1 -48.3 L 0.09999999999999974 -47.7 " stroke="#191919" stroke-width="0.35 px" style="stroke-width:0.35;stroke-miterlimit:4;stroke-dasharray:none;fill:none;fill-opacity:1;fill-rule: evenodd"/>
<path id="Shape2DView_nwe0129"  d="M -0.19999999999999993 -49.7 L -0.16641065716900758 -49.7 L -0.13324371981310562 -49.7 L -0.10091628141344981 -49.7 L -0.0698348782647325 -49.7 L -0.040390377045398995 -49.7 L -0.012953059442379955 -49.7 L 0.012132034355964272 -49.7 L 0.03454944474040894 -49.7 L 0.05401725976848526 -49.7 L 0.07029066037072573 -49.7 L 0.0831649990925103 -49.7 L 0.09247837365454703 -49.7 L 0.09811366296797275 -49.7 L 0.09999999999999998 -49.7 " stroke="#191919" stroke-width="0.35 px" style="stroke-width:0.35;stroke-miterlimit:4;stroke-dasharray:none;fill:none;fill-opacity:1;fill-rule: evenodd"/>
<path id="Shape2DView_nwe0130"  d="M -0.19999999999999993 -50.3 L -0.16641065716900758 -50.3 L -0.13324371981310562 -50.3 L -0.10091628141344981 -50.3 L -0.0698348782647325 -50.3 L -0.040390377045398995 -50.3 L -0.012953059442379955 -50.3 L 0.012132034355964272 -50.3 L 0.03454944474040894 -50.3 L 0.05401725976848526 -50.3 L 0.07029066037072573 -50.3 L 0.0831649990925103 -50.3 L 0.09247837365454703 -50.3 L 0.09811366296797275 -50.3 L 0.09999999999999998 -50.3 " stroke="#191919" stroke-width="0.35 px" style="stroke-width:0.35;stroke-miterlimit:4;stroke-dasharray:none;fill:none;fill-opacity:1;fill-rule: evenodd"/>
<path id="Shape2DView_nwe0131"  d="M 0.1 -50.3 L 0.09999999999999974 -49.7 " stroke="#191919" stroke-width="0.35 px" style="stroke-width:0.35;stroke-miterlimit:4;stroke-dasharray:none;fill:none;fill-opacity:1;fill-rule: evenodd"/>
<path id="Shape2DView_nwe0132"  d="M -0.19999999999999993 -57.7 L -0.16641065716900758 -57.7 L -0.13324371981310562 -57.7 L -0.10091628141344981 -57.7 L -0.0698348782647325 -57.7 L -0.040390377045398995 -57.7 L -0.012953059442379955 -57.7 L 0.012132034355964272 -57.7 L 0.03454944474040894 -57.7 L 0.05401725976848526 -57.7 L 0.07029066037072573 -57.7 L 0.0831649990925103 -57.7 L 0.09247837365454703 -57.7 L 0.09811366296797275 -57.7 L 0.09999999999999998 -57.7 " stroke="#191919" stroke-width="0.35 px" style="stroke-width:0.35;stroke-miterlimit:4;stroke-dasharray:none;fill:none;fill-opacity:1;fill-rule: evenodd"/>
<path id="Shape2DView_nwe0133"  d="M -0.19999999999999993 -58.3 L -0.16641065716900758 -58.3 L -0.13324371981310562 -58.3 L -0.10091628141344981 -58.3 L -0.0698348782647325 -58.3 L -0.040390377045398995 -58.3 L -0.012953059442379955 -58.3 L 0.012132034355964272 -58.3 L 0.03454944474040894 -58.3 L 0.05401725976848526 -58.3 L 0.07029066037072573 -58.3 L 0.0831649990925103 -58.3 L 0.09247837365454703 -58.3 L 0.09811366296797275 -58.3 L 0.09999999999999998 -58.3 " stroke="#191919" stroke-width="0.35 px" style="stroke-width:0.35;stroke-miterlimit:4;stroke-dasharray:none;fill:none;fill-opacity:1;fill-rule: evenodd"/>
<path id="Shape2DView_nwe0134"  d="M 0.1 -58.3 L 0.09999999999999974 -57.7 " stroke="#191919" stroke-width="0.35 px" style="stroke-width:0.35;stroke-miterlimit:4;stroke-dasharray:none;fill:none;fill-opacity:1;fill-rule: evenodd"/>
<path id="Shape2DView_nwe0135"  d="M -0.19999999999999993 -11.7 L -0.16641065716900758 -11.7 L -0.13324371981310562 -11.7 L -0.10091628141344981 -11.7 L -0.0698348782647325 -11.7 L -0.040390377045398995 -11.7 L -0.012953059442379955 -11.7 L 0.012132034355964272 -11.7 L 0.03454944474040894 -11.7 L 0.05401725976848526 -11.7 L 0.07029066037072573 -11.7 L 0.0831649990925103 -11.7 L 0.09247837365454703 -11.7 L 0.09811366296797275 -11.7 L 0.09999999999999998 -11.7 " stroke="#191919" stroke-width="0.35 px" style="stroke-width:0.35;stroke-miterlimit:4;stroke-dasharray:none;fill:none;fill-opacity:1;fill-rule: evenodd"/>
<path id="Shape2DView_nwe0136"  d="M -0.19999999999999993 -12.3 L -0.16641065716900758 -12.3 L -0.13324371981310562 -12.3 L -0.10091628141344981 -12.3 L -0.0698348782647325 -12.3 L -0.040390377045398995 -12.3 L -0.012953059442379955 -12.3 L 0.012132034355964272 -12.3 L 0.03454944474040894 -12.3 L 0.05401725976848526 -12.3 L 0.07029066037072573 -12.3 L 0.0831649990925103 -12.3 L 0.09247837365454703 -12.3 L 0.09811366296797275 -12.3 L 0.09999999999999998 -12.3 " stroke="#191919" stroke-width="0.35 px" style="stroke-width:0.35;stroke-miterlimit:4;stroke-dasharray:none;fill:none;fill-opacity:1;fill-rule: evenodd"/>
<path id="Shape2DView_nwe0137"  d="M 0.09999999999999 -12.3 L 0.09999999999998974 -11.7 " stroke="#191919" stroke-width="0.35 px" style="stroke-width:0.35;stroke-miterlimit:4;stroke-dasharray:none;fill:none;fill-opacity:1;fill-rule: evenodd"/>
<path id="Shape2DView_nwe0138"  d="M -0.19999999999999993 -3.7 L -0.16641065716900758 -3.7 L -0.13324371981310562 -3.7 L -0.10091628141344981 -3.7 L -0.0698348782647325 -3.7 L -0.040390377045398995 -3.7 L -0.012953059442379955 -3.7 L 0.012132034355964272 -3.7 L 0.03454944474040894 -3.7 L 0.05401725976848526 -3.7 L 0.07029066037072573 -3.7 L 0.0831649990925103 -3.7 L 0.09247837365454703 -3.7 L 0.09811366296797275 -3.7 L 0.09999999999999998 -3.7 " stroke="#191919" stroke-width="0.35 px" style="stroke-width:0.35;stroke-miterlimit:4;stroke-dasharray:none;fill:none;fill-opacity:1;fill-rule: evenodd"/>
<path id="Shape2DView_nwe0139"  d="M -0.19999999999999993 -4.3 L -0.16641065716900758 -4.3 L -0.13324371981310562 -4.3 L -0.10091628141344981 -4.3 L -0.0698348782647325 -4.3 L -0.040390377045398995 -4.3 L -0.012953059442379955 -4.3 L 0.012132034355964272 -4.3 L 0.03454944474040894 -4.3 L 0.05401725976848526 -4.3 L 0.07029066037072573 -4.3 L 0.0831649990925103 -4.3 L 0.09247837365454703 -4.3 L 0.09811366296797275 -4.3 L 0.09999999999999998 -4.3 " stroke="#191919" stroke-width="0.35 px" style="stroke-width:0.35;stroke-miterlimit:4;stroke-dasharray:none;fill:none;fill-opacity:1;fill-rule: evenodd"/>
<path id="Shape2DView_nwe0140"  d="M 0.09999999999999 -4.3 L 0.09999999999998974 -3.7 " stroke="#191919" stroke-width="0.35 px" style="stroke-width:0.35;stroke-miterlimit:4;stroke-dasharray:none;fill:none;fill-opacity:1;fill-rule: evenodd"/>
<path id="Shape2DView_nwe0141"  d="M -0.19999999999999993 -5.7 L -0.16641065716900758 -5.7 L -0.13324371981310562 -5.7 L -0.10091628141344981 -5.7 L -0.0698348782647325 -5.7 L -0.040390377045398995 -5.7 L -0.012953059442379955 -5.7 L 0.012132034355964272 -5.7 L 0.03454944474040894 -5.7 L 0.05401725976848526 -5.7 L 0.07029066037072573 -5.7 L 0.0831649990925103 -5.7 L 0.09247837365454703 -5.7 L 0.09811366296797275 -5.7 L 0.09999999999999998 -5.7 " stroke="#191919" stroke-width="0.35 px" style="stroke-width:0.35;stroke-miterlimit:4;stroke-dasharray:none;fill:none;fill-opacity:1;fill-rule: evenodd"/>
<path id="Shape2DView_nwe0142"  d="M -0.19999999999999993 -6.3 L -0.16641065716900758 -6.3 L -0.13324371981310562 -6.3 L -0.10091628141344981 -6.3 L -0.0698348782647325 -6.3 L -0.040390377045398995 -6.3 L -0.012953059442379955 -6.3 L 0.012132034355964272 -6.3 L 0.03454944474040894 -6.3 L 0.05401725976848526 -6.3 L 0.07029066037072573 -6.3 L 0.0831649990925103 -6.3 L 0.09247837365454703 -6.3 L 0.09811366296797275 -6.3 L 0.09999999999999998 -6.3 " stroke="#191919" stroke-width="0.35 px" style="stroke-width:0.35;stroke-miterlimit:4;stroke-dasharray:none;fill:none;fill-opacity:1;fill-rule: evenodd"/>
<path id="Shape2DView_nwe0143"  d="M 0.09999999999999 -6.3 L 0.09999999999998974 -5.7 " stroke="#191919" stroke-width="0.35 px" style="stroke-width:0.35;stroke-miterlimit:4;stroke-dasharray:none;fill:none;fill-opacity:1;fill-rule: evenodd"/>
<path id="Shape2DView_nwe0144"  d="M -0.19999999999999993 -7.7 L -0.16641065716900758 -7.7 L -0.13324371981310562 -7.7 L -0.10091628141344981 -7.7 L -0.0698348782647325 -7.7 L -0.040390377045398995 -7.7 L -0.012953059442379955 -7.7 L 0.012132034355964272 -7.7 L 0.03454944474040894 -7.7 L 0.05401725976848526 -7.7 L 0.07029066037072573 -7.7 L 0.0831649990925103 -7.7 L 0.09247837365454703 -7.7 L 0.09811366296797275 -7.7 L 0.09999999999999998 -7.7 " stroke="#191919" stroke-width="0.35 px" style="stroke-width:0.35;stroke-miterlimit:4;stroke-dasharray:none;fill:none;fill-opacity:1;fill-rule: evenodd"/>
<path id="Shape2DView_nwe0145"  d="M -0.19999999999999993 -8.3 L -0.16641065716900758 -8.3 L -0.13324371981310562 -8.3 L -0.10091628141344981 -8.3 L -0.0698348782647325 -8.3 L -0.040390377045398995 -8.3 L -0.012953059442379955 -8.3 L 0.012132034355964272 -8.3 L 0.03454944474040894 -8.3 L 0.05401725976848526 -8.3 L 0.07029066037072573 -8.3 L 0.0831649990925103 -8.3 L 0.09247837365454703 -8.3 L 0.09811366296797275 -8.3 L 0.09999999999999998 -8.3 " stroke="#191919" stroke-width="0.35 px" style="stroke-width:0.35;stroke-miterlimit:4;stroke-dasharray:none;fill:none;fill-opacity:1;fill-rule: evenodd"/>
<path id="Shape2DView_nwe0146"  d="M 0.09999999999999 -8.3 L 0.09999999999998974 -7.7 " stroke="#191919" stroke-width="0.35 px" style="stroke-width:0.35;stroke-miterlimit:4;stroke-dasharray:none;fill:none;fill-opacity:1;fill-rule: evenodd"/>
<path id="Shape2DView_nwe0147"  d="M -0.19999999999999993 -9.7 L -0.16641065716900758 -9.7 L -0.13324371981310562 -9.7 L -0.10091628141344981 -9.7 L -0.0698348782647325 -9.7 L -0.040390377045398995 -9.7 L -0.012953059442379955 -9.7 L 0.012132034355964272 -9.7 L 0.03454944474040894 -9.7 L 0.05401725976848526 -9.7 L 0.07029066037072573 -9.7 L 0.0831649990925103 -9.7 L 0.09247837365454703 -9.7 L 0.09811366296797275 -9.7 L 0.09999999999999998 -9.7 " stroke="#191919" stroke-width="0.35 px" style="stroke-width:0.35;stroke-miterlimit:4;stroke-dasharray:none;fill:none;fill-opacity:1;fill-rule: evenodd"/>
<path id="Shape2DView_nwe0148"  d="M -0.19999999999999993 -10.3 L -0.16641065716900758 -10.3 L -0.13324371981310562 -10.3 L -0.10091628141344981 -10.3 L -0.0698348782647325 -10.3 L -0.040390377045398995 -10.3 L -0.012953059442379955 -10.3 L 0.012132034355964272 -10.3 L 0.03454944474040894 -10.3 L 0.05401725976848526 -10.3 L 0.07029066037072573 -10.3 L 0.0831649990925103 -10.3 L 0.09247837365454703 -10.3 L 0.09811366296797275 -10.3 L 0.09999999999999998 -10.3 " stroke="#191919" stroke-width="0.35 px" style="stroke-width:0.35;stroke-miterlimit:4;stroke-dasharray:none;fill:none;fill-opacity:1;fill-rule: evenodd"/>
<path id="Shape2DView_nwe0149"  d="M 0.09999999999999 -10.3 L 0.09999999999998974 -9.7 " stroke="#191919" stroke-width="0.35 px" style="stroke-width:0.35;stroke-miterlimit:4;stroke-dasharray:none;fill:none;fill-opacity:1;fill-rule: evenodd"/>
<path id="Shape2DView_nwe0150"  d="M -0.19999999999999993 0.3 L -0.16641065716900758 0.3 L -0.13324371981310562 0.30000000000000004 L -0.10091628141344981 0.30000000000000004 L -0.0698348782647325 0.30000000000000004 L -0.040390377045398995 0.30000000000000004 L -0.012953059442379955 0.30000000000000004 L 0.012132034355964272 0.3000000000000001 L 0.03454944474040894 0.3000000000000001 L 0.05401725976848526 0.3000000000000001 L 0.07029066037072573 0.3000000000000001 L 0.0831649990925103 0.3000000000000001 L 0.09247837365454703 0.3000000000000001 L 0.09811366296797275 0.3000000000000001 L 0.09999999999999998 0.3000000000000001 " stroke="#191919" stroke-width="0.35 px" style="stroke-width:0.35;stroke-miterlimit:4;stroke-dasharray:none;fill:none;fill-opacity:1;fill-rule: evenodd"/>
<path id="Shape2DView_nwe0151"  d="M -0.19999999999999993 -0.3 L -0.16641065716900758 -0.3 L -0.13324371981310562 -0.29999999999999993 L -0.10091628141344981 -0.29999999999999993 L -0.0698348782647325 -0.29999999999999993 L -0.040390377045398995 -0.29999999999999993 L -0.012953059442379955 -0.29999999999999993 L 0.012132034355964272 -0.2999999999999999 L 0.03454944474040894 -0.2999999999999999 L 0.05401725976848526 -0.2999999999999999 L 0.07029066037072573 -0.2999999999999999 L 0.0831649990925103 -0.2999999999999999 L 0.09247837365454703 -0.2999999999999999 L 0.09811366296797275 -0.2999999999999999 L 0.09999999999999998 -0.2999999999999999 " stroke="#191919" stroke-width="0.35 px" style="stroke-width:0.35;stroke-miterlimit:4;stroke-dasharray:none;fill:none;fill-opacity:1;fill-rule: evenodd"/>
<path id="Shape2DView_nwe0152"  d="M 0.09999999999999 -0.3 L 0.09999999999998974 0.3 " stroke="#191919" stroke-width="0.35 px" style="stroke-width:0.35;stroke-miterlimit:4;stroke-dasharray:none;fill:none;fill-opacity:1;fill-rule: evenodd"/>
<path id="Shape2DView_nwe0153"  d="M -0.19999999999999993 -1.7 L -0.16641065716900758 -1.7 L -0.13324371981310562 -1.7 L -0.10091628141344981 -1.7 L -0.0698348782647325 -1.7 L -0.040390377045398995 -1.7 L -0.012953059442379955 -1.7 L 0.012132034355964272 -1.7 L 0.03454944474040894 -1.7 L 0.05401725976848526 -1.6999999999999997 L 0.07029066037072573 -1.6999999999999997 L 0.0831649990925103 -1.6999999999999997 L 0.09247837365454703 -1.6999999999999997 L 0.09811366296797275 -1.6999999999999997 L 0.09999999999999998 -1.6999999999999997 " stroke="#191919" stroke-width="0.35 px" style="stroke-width:0.35;stroke-miterlimit:4;stroke-dasharray:none;fill:none;fill-opacity:1;fill-rule: evenodd"/>
<path id="Shape2DView_nwe0154"  d="M -0.19999999999999993 -2.3 L -0.16641065716900758 -2.3 L -0.13324371981310562 -2.3 L -0.10091628141344981 -2.3 L -0.0698348782647325 -2.3 L -0.040390377045398995 -2.3 L -0.012953059442379955 -2.3 L 0.012132034355964272 -2.3 L 0.03454944474040894 -2.3 L 0.05401725976848526 -2.3 L 0.07029066037072573 -2.3 L 0.0831649990925103 -2.3 L 0.09247837365454703 -2.3 L 0.09811366296797275 -2.3 L 0.09999999999999998 -2.3 " stroke="#191919" stroke-width="0.35 px" style="stroke-width:0.35;stroke-miterlimit:4;stroke-dasharray:none;fill:none;fill-opacity:1;fill-rule: evenodd"/>
<path id="Shape2DView_nwe0155"  d="M 0.09999999999999 -2.3 L 0.09999999999998974 -1.7 " stroke="#191919" stroke-width="0.35 px" style="stroke-width:0.35;stroke-miterlimit:4;stroke-dasharray:none;fill:none;fill-opacity:1;fill-rule: evenodd"/>
<path id="Shape2DView_nwe0156"  d="M -0.19999999999999993 -59.7 L -0.16641065716900758 -59.7 L -0.13324371981310562 -59.7 L -0.10091628141344981 -59.7 L -0.0698348782647325 -59.7 L -0.040390377045398995 -59.7 L -0.012953059442379955 -59.7 L 0.012132034355964272 -59.7 L 0.03454944474040894 -59.7 L 0.05401725976848526 -59.7 L 0.07029066037072573 -59.7 L 0.0831649990925103 -59.7 L 0.09247837365454703 -59.7 L 0.09811366296797275 -59.7 L 0.09999999999999998 -59.7 " stroke="#191919" stroke-width="0.35 px" style="stroke-width:0.35;stroke-miterlimit:4;stroke-dasharray:none;fill:none;fill-opacity:1;fill-rule: evenodd"/>
<path id="Shape2DView_nwe0157"  d="M -0.19999999999999993 -60.3 L -0.16641065716900758 -60.3 L -0.13324371981310562 -60.3 L -0.10091628141344981 -60.3 L -0.0698348782647325 -60.3 L -0.040390377045398995 -60.3 L -0.012953059442379955 -60.3 L 0.012132034355964272 -60.3 L 0.03454944474040894 -60.3 L 0.05401725976848526 -60.3 L 0.07029066037072573 -60.3 L 0.0831649990925103 -60.3 L 0.09247837365454703 -60.3 L 0.09811366296797275 -60.3 L 0.09999999999999998 -60.3 " stroke="#191919" stroke-width="0.35 px" style="stroke-width:0.35;stroke-miterlimit:4;stroke-dasharray:none;fill:none;fill-opacity:1;fill-rule: evenodd"/>
<path id="Shape2DView_nwe0158"  d="M 0.1 -60.3 L 0.09999999999999974 -59.7 " stroke="#191919" stroke-width="0.35 px" style="stroke-width:0.35;stroke-miterlimit:4;stroke-dasharray:none;fill:none;fill-opacity:1;fill-rule: evenodd"/>
<path id="Shape2DView_nwe0159"  d="M -0.2 -18.3 L -0.2000000000000003 -17.7 " stroke="#191919" stroke-width="0.35 px" style="stroke-width:0.35;stroke-miterlimit:4;stroke-dasharray:none;fill:none;fill-opacity:1;fill-rule: evenodd"/>
<path id="Shape2DView_nwe0160"  d="M -0.2 -20.3 L -0.2000000000000003 -19.7 " stroke="#191919" stroke-width="0.35 px" style="stroke-width:0.35;stroke-miterlimit:4;stroke-dasharray:none;fill:none;fill-opacity:1;fill-rule: evenodd"/>
<path id="Shape2DView_nwe0161"  d="M -0.2 -22.3 L -0.2000000000000003 -21.7 " stroke="#191919" stroke-width="0.35 px" style="stroke-width:0.35;stroke-miterlimit:4;stroke-dasharray:none;fill:none;fill-opacity:1;fill-rule: evenodd"/>
<path id="Shape2DView_nwe0162"  d="M -0.2 -28.3 L -0.2000000000000003 -27.7 " stroke="#191919" stroke-width="0.35 px" style="stroke-width:0.35;stroke-miterlimit:4;stroke-dasharray:none;fill:none;fill-opacity:1;fill-rule: evenodd"/>
<path id="Shape2DView_nwe0163"  d="M -0.2 -26.3 L -0.2000000000000003 -25.7 " stroke="#191919" stroke-width="0.35 px" style="stroke-width:0.35;stroke-miterlimit:4;stroke-dasharray:none;fill:none;fill-opacity:1;fill-rule: evenodd"/>
<path id="Shape2DView_nwe0164"  d="M -0.2 -24.3 L -0.2000000000000003 -23.7 " stroke="#191919" stroke-width="0.35 px" style="stroke-width:0.35;stroke-miterlimit:4;stroke-dasharray:none;fill:none;fill-opacity:1;fill-rule: evenodd"/>
<path id="Shape2DView_nwe0165"  d="M -0.2 -32.3 L -0.2000000000000003 -31.7 " stroke="#191919" stroke-width="0.35 px" style="stroke-width:0.35;stroke-miterlimit:4;stroke-dasharray:none;fill:none;fill-opacity:1;fill-rule: evenodd"/>
<path id="Shape2DView_nwe0166"  d="M -0.2 -30.3 L -0.2000000000000003 -29.7 " stroke="#191919" stroke-width="0.35 px" style="stroke-width:0.35;stroke-miterlimit:4;stroke-dasharray:none;fill:none;fill-opacity:1;fill-rule: evenodd"/>
<path id="Shape2DView_nwe0167"  d="M -0.2 -46.3 L -0.2000000000000003 -45.7 " stroke="#191919" stroke-width="0.35 px" style="stroke-width:0.35;stroke-miterlimit:4;stroke-dasharray:none;fill:none;fill-opacity:1;fill-rule: evenodd"/>
<path id="Shape2DView_nwe0168"  d="M -0.2 -44.3 L -0.2000000000000003 -43.7 " stroke="#191919" stroke-width="0.35 px" style="stroke-width:0.35;stroke-miterlimit:4;stroke-dasharray:none;fill:none;fill-opacity:1;fill-rule: evenodd"/>
<path id="Shape2DView_nwe0169"  d="M -0.2 -38.3 L -0.2000000000000003 -37.7 " stroke="#191919" stroke-width="0.35 px" style="stroke-width:0.35;stroke-miterlimit:4;stroke-dasharray:none;fill:none;fill-opacity:1;fill-rule: evenodd"/>
<path id="Shape2DView_nwe0170"  d="M -0.2 -40.3 L -0.2000000000000003 -39.7 " stroke="#191919" stroke-width="0.35 px" style="stroke-width:0.35;stroke-miterlimit:4;stroke-dasharray:none;fill:none;fill-opacity:1;fill-rule: evenodd"/>
<path id="Shape2DView_nwe0171"  d="M -0.2 -42.3 L -0.2000000000000003 -41.7 " stroke="#191919" stroke-width="0.35 px" style="stroke-width:0.35;stroke-miterlimit:4;stroke-dasharray:none;fill:none;fill-opacity:1;fill-rule: evenodd"/>
<path id="Shape2DView_nwe0172"  d="M -0.2 -36.3 L -0.2000000000000003 -35.7 " stroke="#191919" stroke-width="0.35 px" style="stroke-width:0.35;stroke-miterlimit:4;stroke-dasharray:none;fill:none;fill-opacity:1;fill-rule: evenodd"/>
<path id="Shape2DView_nwe0173"  d="M -0.2 -34.3 L -0.2000000000000003 -33.7 " stroke="#191919" stroke-width="0.35 px" style="stroke-width:0.35;stroke-miterlimit:4;stroke-dasharray:none;fill:none;fill-opacity:1;fill-rule: evenodd"/>
<path id="Shape2DView_nwe0174"  d="M -0.2 -14.3 L -0.2000000000000003 -13.7 " stroke="#191919" stroke-width="0.35 px" style="stroke-width:0.35;stroke-miterlimit:4;stroke-dasharray:none;fill:none;fill-opacity:1;fill-rule: evenodd"/>
<path id="Shape2DView_nwe0175"  d="M -0.2 -16.3 L -0.2000000000000003 -15.7 " stroke="#191919" stroke-width="0.35 px" style="stroke-width:0.35;stroke-miterlimit:4;stroke-dasharray:none;fill:none;fill-opacity:1;fill-rule: evenodd"/>
<path id="Shape2DView_nwe0176"  d="M -0.2 -56.3 L -0.2000000000000003 -55.7 " stroke="#191919" stroke-width="0.35 px" style="stroke-width:0.35;stroke-miterlimit:4;stroke-dasharray:none;fill:none;fill-opacity:1;fill-rule: evenodd"/>
<path id="Shape2DView_nwe0177"  d="M -0.2 -54.3 L -0.2000000000000003 -53.7 " stroke="#191919" stroke-width="0.35 px" style="stroke-width:0.35;stroke-miterlimit:4;stroke-dasharray:none;fill:none;fill-opacity:1;fill-rule: evenodd"/>
<path id="Shape2DView_nwe0178"  d="M -0.2 -52.3 L -0.2000000000000003 -51.7 " stroke="#191919" stroke-width="0.35 px" style="stroke-width:0.35;stroke-miterlimit:4;stroke-dasharray:none;fill:none;fill-opacity:1;fill-rule: evenodd"/>
<path id="Shape2DView_nwe0179"  d="M -0.2 -48.3 L -0.2000000000000003 -47.7 " stroke="#191919" stroke-width="0.35 px" style="stroke-width:0.35;stroke-miterlimit:4;stroke-dasharray:none;fill:none;fill-opacity:1;fill-rule: evenodd"/>
<path id="Shape2DView_nwe0180"  d="M -0.2 -50.3 L -0.2000000000000003 -49.7 " stroke="#191919" stroke-width="0.35 px" style="stroke-width:0.35;stroke-miterlimit:4;stroke-dasharray:none;fill:none;fill-opacity:1;fill-rule: evenodd"/>
<path id="Shape2DView_nwe0181"  d="M -0.2 -58.3 L -0.2000000000000003 -57.7 " stroke="#191919" stroke-width="0.35 px" style="stroke-width:0.35;stroke-miterlimit:4;stroke-dasharray:none;fill:none;fill-opacity:1;fill-rule: evenodd"/>
<path id="Shape2DView_nwe0182"  d="M -0.2 -12.3 L -0.2000000000000003 -11.7 " stroke="#191919" stroke-width="0.35 px" style="stroke-width:0.35;stroke-miterlimit:4;stroke-dasharray:none;fill:none;fill-opacity:1;fill-rule: evenodd"/>
<path id="Shape2DView_nwe0183"  d="M -0.2 -4.3 L -0.2000000000000003 -3.7 " stroke="#191919" stroke-width="0.35 px" style="stroke-width:0.35;stroke-miterlimit:4;stroke-dasharray:none;fill:none;fill-opacity:1;fill-rule: evenodd"/>
<path id="Shape2DView_nwe0184"  d="M -0.2 -6.3 L -0.2000000000000003 -5.7 " stroke="#191919" stroke-width="0.35 px" style="stroke-width:0.35;stroke-miterlimit:4;stroke-dasharray:none;fill:none;fill-opacity:1;fill-rule: evenodd"/>
<path id="Shape2DView_nwe0185"  d="M -0.2 -8.3 L -0.2000000000000003 -7.7 " stroke="#191919" stroke-width="0.35 px" style="stroke-width:0.35;stroke-miterlimit:4;stroke-dasharray:none;fill:none;fill-opacity:1;fill-rule: evenodd"/>
<path id="Shape2DView_nwe0186"  d="M -0.2 -10.3 L -0.2000000000000003 -9.7 " stroke="#191919" stroke-width="0.35 px" style="stroke-width:0.35;stroke-miterlimit:4;stroke-dasharray:none;fill:none;fill-opacity:1;fill-rule: evenodd"/>
<path id="Shape2DView_nwe0187"  d="M -0.2 -0.3 L -0.2000000000000003 0.3 " stroke="#191919" stroke-width="0.35 px" style="stroke-width:0.35;stroke-miterlimit:4;stroke-dasharray:none;fill:none;fill-opacity:1;fill-rule: evenodd"/>
<path id="Shape2DView_nwe0188"  d="M -0.2 -2.3 L -0.2000000000000003 -1.7 " stroke="#191919" stroke-width="0.35 px" style="stroke-width:0.35;stroke-miterlimit:4;stroke-dasharray:none;fill:none;fill-opacity:1;fill-rule: evenodd"/>
<path id="Shape2DView_nwe0189"  d="M -0.2 -60.3 L -0.2000000000000003 -59.7 " stroke="#191919" stroke-width="0.35 px" style="stroke-width:0.35;stroke-miterlimit:4;stroke-dasharray:none;fill:none;fill-opacity:1;fill-rule: evenodd"/>
<title>b'Shape2DView'</title>
</g>
<g id="Rectangle" transform="translate(9.726200,1.106200) scale(1,-1)">
<rect fill="#ff0000" id="origin" width="1" height="1" x="0" y="0" />
<title>b'Rectangle'</title>
</g>
</svg>