<?xml version="1.0"?>
<!DOCTYPE svg PUBLIC "-//W3C//DTD SVG 1.1//EN" "http://www.w3.org/Graphics/SVG/1.1/DTD/svg11.dtd">
<svg width="48.674400000000006mm" height="12.954400000000135mm" viewBox="0 0 48.674400000000006 12.954400000000135" xmlns="http://www.w3.org/2000/svg" version="1.1">
<g id="Shape2DView" transform="translate(4.017200,2.477200) scale(1,-1)">
<path id="Shape2DView_nwe0000"  d="M -3.54 2.0 L 44.18 2.0 " stroke="#191919" stroke-width="0.35 px" style="stroke-width:0.35;stroke-miterlimit:4;stroke-dasharray:none;fill:none;fill-opacity:1;fill-rule: evenodd"/>
<path id="Shape2DView_nwe0001"  d="M 44.18 -7.0 L 44.18 2.0 " stroke="#191919" stroke-width="0.35 px" style="stroke-width:0.35;stroke-miterlimit:4;stroke-dasharray:none;fill:none;fill-opacity:1;fill-rule: evenodd"/>
<path id="Shape2DView_nwe0002"  d="M -3.54 -7.0 L -3.54 2.0 " stroke="#191919" stroke-width="0.35 px" style="stroke-width:0.35;stroke-miterlimit:4;stroke-dasharray:none;fill:none;fill-opacity:1;fill-rule: evenodd"/>
<path id="Shape2DView_nwe0003"  d="M -3.54 -10.0 L -3.54 -8.5 " stroke="#191919" stroke-width="0.35 px" style="stroke-width:0.35;stroke-miterlimit:4;stroke-dasharray:none;fill:none;fill-opacity:1;fill-rule: evenodd"/>
<path id="Shape2DView_nwe0004"  d="M -3.54 -8.5 L -3.54 -7.0 " stroke="#191919" stroke-width="0.35 px" style="stroke-width:0.35;stroke-miterlimit:4;stroke-dasharray:none;fill:none;fill-opacity:1;fill-rule: evenodd"/>
<path id="Shape2DView_nwe0005"  d="M 44.18 -10.0 L 44.18 -8.5 " stroke="#191919" stroke-width="0.35 px" style="stroke-width:0.35;stroke-miterlimit:4;stroke-dasharray:none;fill:none;fill-opacity:1;fill-rule: evenodd"/>
<path id="Shape2DView_nwe0006"  d="M 44.18 -8.5 L 44.18 -7.0 " stroke="#191919" stroke-width="0.35 px" style="stroke-width:0.35;stroke-miterlimit:4;stroke-dasharray:none;fill:none;fill-opacity:1;fill-rule: evenodd"/>
<path id="Shape2DView_nwe0007"  d="M -3.54 -7.0 L 44.18 -7.0 " stroke="#191919" stroke-width="0.35 px" style="stroke-width:0.35;stroke-miterlimit:4;stroke-dasharray:none;fill:none;fill-opacity:1;fill-rule: evenodd"/>
<path id="Shape2DView_nwe0008"  d="M 41.64 -10.0 L 44.18 -10.0 " stroke="#191919" stroke-width="0.35 px" style="stroke-width:0.35;stroke-miterlimit:4;stroke-dasharray:none;fill:none;fill-opacity:1;fill-rule: evenodd"/>
<path id="Shape2DView_nwe0009"  d="M 39.64000000000016 -10.0 L 39.77989208234904 -10.0 L 39.92114866312188 -10.0 L 40.063545649064935 -10.0 L 40.2068571377549 -10.0 L 40.35085577597663 -10.0 L 40.495313120402415 -10.0 L 40.64000000000061 -10.0 L 40.78468687959881 -10.0 L 40.92914422402458 -10.0 L 41.07314286224631 -10.0 L 41.21645435093627 -10.0 L 41.35885133687931 -10.0 L 41.500107917652144 -10.0 L 41.64000000000102 -10.0 " stroke="#191919" stroke-width="0.35 px" style="stroke-width:0.35;stroke-miterlimit:4;stroke-dasharray:none;fill:none;fill-opacity:1;fill-rule: evenodd"/>
<path id="Shape2DView_nwe0010"  d="M 34.56000000000004 -10.0 L 34.69989208234891 -10.0 L 34.84114866312174 -10.0 L 34.98354564906478 -10.0 L 35.12685713775473 -10.0 L 35.27085577597645 -10.0 L 35.41531312040221 -10.0 L 35.56000000000039 -10.0 L 35.704686879598576 -10.0 L 35.849144224024336 -10.0 L 35.99314286224605 -10.0 L 36.136454350936 -10.0 L 36.278851336879036 -10.0 L 36.420107917651855 -10.0 L 36.56000000000072 -10.0 " stroke="#191919" stroke-width="0.35 px" style="stroke-width:0.35;stroke-miterlimit:4;stroke-dasharray:none;fill:none;fill-opacity:1;fill-rule: evenodd"/>
<path id="Shape2DView_nwe0011"  d="M 29.479999999999905 -10.0 L 29.619892082348837 -10.0 L 29.761148663121727 -10.0 L 29.903545649064828 -10.0 L 30.04685713775484 -10.0 L 30.190855775976623 -10.0 L 30.335313120402446 -10.0 L 30.480000000000693 -10.0 L 30.62468687959894 -10.0 L 30.769144224024764 -10.0 L 30.913142862246538 -10.0 L 31.056454350936544 -10.0 L 31.198851336879635 -10.0 L 31.340107917652514 -10.0 L 31.48000000000143 -10.0 " stroke="#191919" stroke-width="0.35 px" style="stroke-width:0.35;stroke-miterlimit:4;stroke-dasharray:none;fill:none;fill-opacity:1;fill-rule: evenodd"/>
<path id="Shape2DView_nwe0012"  d="M 24.400000000000773 -10.0 L 24.539892082349628 -10.0 L 24.68114866312244 -10.0 L 24.823545649065462 -10.0 L 24.966857137755394 -10.0 L 25.110855775977086 -10.0 L 25.25531312040283 -10.0 L 25.400000000000986 -10.0 L 25.544686879599148 -10.0 L 25.689144224024883 -10.0 L 25.833142862246568 -10.0 L 25.97645435093649 -10.0 L 26.118851336879494 -10.0 L 26.260107917652288 -10.0 L 26.40000000000113 -10.0 " stroke="#191919" stroke-width="0.35 px" style="stroke-width:0.35;stroke-miterlimit:4;stroke-dasharray:none;fill:none;fill-opacity:1;fill-rule: evenodd"/>
<path id="Shape2DView_nwe0013"  d="M 19.320000000000647 -10.0 L 19.45989208234949 -10.0 L 19.601148663122288 -10.0 L 19.743545649065297 -10.0 L 19.886857137755214 -10.0 L 20.030855775976896 -10.0 L 20.175313120402624 -10.0 L 20.32000000000077 -10.0 L 20.46468687959892 -10.0 L 20.609144224024643 -10.0 L 20.753142862246317 -10.0 L 20.896454350936228 -10.0 L 21.038851336879222 -10.0 L 21.18010791765201 -10.0 L 21.320000000000835 -10.0 " stroke="#191919" stroke-width="0.35 px" style="stroke-width:0.35;stroke-miterlimit:4;stroke-dasharray:none;fill:none;fill-opacity:1;fill-rule: evenodd"/>
<path id="Shape2DView_nwe0014"  d="M 14.239999999998847 -10.0 L 14.37989208234777 -10.0 L 14.521148663120648 -10.0 L 14.663545649063742 -10.0 L 14.80685713775375 -10.0 L 14.950855775975526 -10.0 L 15.09531312040135 -10.0 L 15.239999999999595 -10.0 L 15.384686879597842 -10.0 L 15.529144224023668 -10.0 L 15.673142862245447 -10.0 L 15.816454350935459 -10.0 L 15.958851336878558 -10.0 L 16.100107917651446 -10.0 L 16.240000000000375 -10.0 " stroke="#191919" stroke-width="0.35 px" style="stroke-width:0.35;stroke-miterlimit:4;stroke-dasharray:none;fill:none;fill-opacity:1;fill-rule: evenodd"/>
<path id="Shape2DView_nwe0015"  d="M 9.15999999999872 -10.0 L 9.299892082347627 -10.0 L 9.441148663120494 -10.0 L 9.583545649063574 -10.0 L 9.726857137753568 -10.0 L 9.87085577597533 -10.0 L 10.01531312040114 -10.0 L 10.159999999999375 -10.0 L 10.304686879597607 -10.0 L 10.44914422402342 -10.0 L 10.59314286224519 -10.0 L 10.73645435093519 -10.0 L 10.878851336878279 -10.0 L 11.020107917651156 -10.0 L 11.160000000000078 -10.0 " stroke="#191919" stroke-width="0.35 px" style="stroke-width:0.35;stroke-miterlimit:4;stroke-dasharray:none;fill:none;fill-opacity:1;fill-rule: evenodd"/>
<path id="Shape2DView_nwe0016"  d="M 4.079999999999754 -10.0 L 4.2198920823485775 -10.0 L 4.361148663121355 -10.0 L 4.5035456490643435 -10.0 L 4.646857137754244 -10.0 L 4.790855775975912 -10.0 L 4.9353131204016245 -10.0 L 5.0799999999997585 -10.0 L 5.224686879597894 -10.0 L 5.369144224023609 -10.0 L 5.513142862245277 -10.0 L 5.6564543509351815 -10.0 L 5.7988513368781724 -10.0 L 5.9401079176509555 -10.0 L 6.079999999999782 -10.0 " stroke="#191919" stroke-width="0.35 px" style="stroke-width:0.35;stroke-miterlimit:4;stroke-dasharray:none;fill:none;fill-opacity:1;fill-rule: evenodd"/>
<path id="Shape2DView_nwe0017"  d="M -1.0000000000005411 -10.0 L -0.86010791765165 -10.0 L -0.7188513368788012 -10.0 L -0.5764543509357407 -10.0 L -0.4331428622457665 -10.0 L -0.2891442240240256 -10.0 L -0.14468687959823834 -10.0 L -2.930988785010413e-14 -10.0 L 0.14468687959817972 -10.0 L 0.28914422402396744 -10.0 L 0.4331428622457085 -10.0 L 0.5764543509356832 -10.0 L 0.7188513368787441 -10.0 L 0.8601079176515929 -10.0 L 1.0000000000004856 -10.0 " stroke="#191919" stroke-width="0.35 px" style="stroke-width:0.35;stroke-miterlimit:4;stroke-dasharray:none;fill:none;fill-opacity:1;fill-rule: evenodd"/>
<path id="Shape2DView_nwe0018"  d="M -3.54 -10.0 L -1.0 -10.0 " stroke="#191919" stroke-width="0.35 px" style="stroke-width:0.35;stroke-miterlimit:4;stroke-dasharray:none;fill:none;fill-opacity:1;fill-rule: evenodd"/>
<path id="Shape2DView_nwe0019"  d="M -0.7500000000000188 -8.500000000000135 L -1.0000000000005511 -10.000000000000059 " stroke="#191919" stroke-width="0.35 px" style="stroke-width:0.35;stroke-miterlimit:4;stroke-dasharray:none;fill:none;fill-opacity:1;fill-rule: evenodd"/>
<path id="Shape2DView_nwe0020"  d="M -3.54 -8.5 L -0.75 -8.5 " stroke="#191919" stroke-width="0.35 px" style="stroke-width:0.35;stroke-miterlimit:4;stroke-dasharray:none;fill:none;fill-opacity:1;fill-rule: evenodd"/>
<path id="Shape2DView_nwe0021"  d="M -0.75 -8.5 L 0.75 -8.5 " stroke="#191919" stroke-width="0.35 px" style="stroke-width:0.35;stroke-miterlimit:4;stroke-dasharray:none;fill:none;fill-opacity:1;fill-rule: evenodd"/>
<path id="Shape2DView_nwe0022"  d="M 0.75 -8.5 L 4.33 -8.5 " stroke="#191919" stroke-width="0.35 px" style="stroke-width:0.35;stroke-miterlimit:4;stroke-dasharray:none;fill:none;fill-opacity:1;fill-rule: evenodd"/>
<path id="Shape2DView_nwe0023"  d="M 4.33 -8.5 L 5.830000000000001 -8.5 " stroke="#191919" stroke-width="0.35 px" style="stroke-width:0.35;stroke-miterlimit:4;stroke-dasharray:none;fill:none;fill-opacity:1;fill-rule: evenodd"/>
<path id="Shape2DView_nwe0024"  d="M 5.830000000000001 -8.5 L 9.41 -8.5 " stroke="#191919" stroke-width="0.35 px" style="stroke-width:0.35;stroke-miterlimit:4;stroke-dasharray:none;fill:none;fill-opacity:1;fill-rule: evenodd"/>
<path id="Shape2DView_nwe0025"  d="M 9.41 -8.5 L 10.91 -8.5 " stroke="#191919" stroke-width="0.35 px" style="stroke-width:0.35;stroke-miterlimit:4;stroke-dasharray:none;fill:none;fill-opacity:1;fill-rule: evenodd"/>
<path id="Shape2DView_nwe0026"  d="M 10.91 -8.5 L 14.490000000000002 -8.5 " stroke="#191919" stroke-width="0.35 px" style="stroke-width:0.35;stroke-miterlimit:4;stroke-dasharray:none;fill:none;fill-opacity:1;fill-rule: evenodd"/>
<path id="Shape2DView_nwe0027"  d="M 14.490000000000002 -8.5 L 15.990000000000002 -8.5 " stroke="#191919" stroke-width="0.35 px" style="stroke-width:0.35;stroke-miterlimit:4;stroke-dasharray:none;fill:none;fill-opacity:1;fill-rule: evenodd"/>
<path id="Shape2DView_nwe0028"  d="M 15.990000000000002 -8.5 L 19.57 -8.5 " stroke="#191919" stroke-width="0.35 px" style="stroke-width:0.35;stroke-miterlimit:4;stroke-dasharray:none;fill:none;fill-opacity:1;fill-rule: evenodd"/>
<path id="Shape2DView_nwe0029"  d="M 19.57 -8.5 L 21.07 -8.5 " stroke="#191919" stroke-width="0.35 px" style="stroke-width:0.35;stroke-miterlimit:4;stroke-dasharray:none;fill:none;fill-opacity:1;fill-rule: evenodd"/>
<path id="Shape2DView_nwe0030"  d="M 21.07 -8.5 L 24.65 -8.5 " stroke="#191919" stroke-width="0.35 px" style="stroke-width:0.35;stroke-miterlimit:4;stroke-dasharray:none;fill:none;fill-opacity:1;fill-rule: evenodd"/>
<path id="Shape2DView_nwe0031"  d="M 24.65 -8.5 L 26.15 -8.5 " stroke="#191919" stroke-width="0.35 px" style="stroke-width:0.35;stroke-miterlimit:4;stroke-dasharray:none;fill:none;fill-opacity:1;fill-rule: evenodd"/>
<path id="Shape2DView_nwe0032"  d="M 26.15 -8.5 L 29.730000000000004 -8.5 " stroke="#191919" stroke-width="0.35 px" style="stroke-width:0.35;stroke-miterlimit:4;stroke-dasharray:none;fill:none;fill-opacity:1;fill-rule: evenodd"/>
<path id="Shape2DView_nwe0033"  d="M 29.730000000000004 -8.5 L 31.230000000000004 -8.5 " stroke="#191919" stroke-width="0.35 px" style="stroke-width:0.35;stroke-miterlimit:4;stroke-dasharray:none;fill:none;fill-opacity:1;fill-rule: evenodd"/>
<path id="Shape2DView_nwe0034"  d="M 31.230000000000004 -8.5 L 34.81 -8.5 " stroke="#191919" stroke-width="0.35 px" style="stroke-width:0.35;stroke-miterlimit:4;stroke-dasharray:none;fill:none;fill-opacity:1;fill-rule: evenodd"/>
<path id="Shape2DView_nwe0035"  d="M 34.81 -8.5 L 36.31 -8.5 " stroke="#191919" stroke-width="0.35 px" style="stroke-width:0.35;stroke-miterlimit:4;stroke-dasharray:none;fill:none;fill-opacity:1;fill-rule: evenodd"/>
<path id="Shape2DView_nwe0036"  d="M 36.31 -8.5 L 39.89 -8.5 " stroke="#191919" stroke-width="0.35 px" style="stroke-width:0.35;stroke-miterlimit:4;stroke-dasharray:none;fill:none;fill-opacity:1;fill-rule: evenodd"/>
<path id="Shape2DView_nwe0037"  d="M 39.89 -8.5 L 41.39 -8.5 " stroke="#191919" stroke-width="0.35 px" style="stroke-width:0.35;stroke-miterlimit:4;stroke-dasharray:none;fill:none;fill-opacity:1;fill-rule: evenodd"/>
<path id="Shape2DView_nwe0038"  d="M 41.39 -8.5 L 44.18 -8.5 " stroke="#191919" stroke-width="0.35 px" style="stroke-width:0.35;stroke-miterlimit:4;stroke-dasharray:none;fill:none;fill-opacity:1;fill-rule: evenodd"/>
<path id="Shape2DView_nwe0039"  d="M 41.640000000000995 -9.999999999999858 L 41.39000000000046 -8.499999999999932 " stroke="#191919" stroke-width="0.35 px" style="stroke-width:0.35;stroke-miterlimit:4;stroke-dasharray:none;fill:none;fill-opacity:1;fill-rule: evenodd"/>
<path id="Shape2DView_nwe0040"  d="M 1.000000000000508 -10.000000000000135 L 0.7499999999999758 -8.500000000000211 " stroke="#191919" stroke-width="0.35 px" style="stroke-width:0.35;stroke-miterlimit:4;stroke-dasharray:none;fill:none;fill-opacity:1;fill-rule: evenodd"/>
<path id="Shape2DView_nwe0041"  d="M 1.0 -10.0 L 4.08 -10.0 " stroke="#191919" stroke-width="0.35 px" style="stroke-width:0.35;stroke-miterlimit:4;stroke-dasharray:none;fill:none;fill-opacity:1;fill-rule: evenodd"/>
<path id="Shape2DView_nwe0042"  d="M 4.330000000000304 -8.499999999999975 L 4.079999999999772 -9.999999999999899 " stroke="#191919" stroke-width="0.35 px" style="stroke-width:0.35;stroke-miterlimit:4;stroke-dasharray:none;fill:none;fill-opacity:1;fill-rule: evenodd"/>
<path id="Shape2DView_nwe0043"  d="M 6.0799999999997985 -10.000000000000098 L 5.829999999999266 -8.500000000000174 " stroke="#191919" stroke-width="0.35 px" style="stroke-width:0.35;stroke-miterlimit:4;stroke-dasharray:none;fill:none;fill-opacity:1;fill-rule: evenodd"/>
<path id="Shape2DView_nwe0044"  d="M 6.080000000000001 -10.0 L 9.16 -10.0 " stroke="#191919" stroke-width="0.35 px" style="stroke-width:0.35;stroke-miterlimit:4;stroke-dasharray:none;fill:none;fill-opacity:1;fill-rule: evenodd"/>
<path id="Shape2DView_nwe0045"  d="M 9.409999999999448 -8.499999999998886 L 9.159999999998917 -9.99999999999881 " stroke="#191919" stroke-width="0.35 px" style="stroke-width:0.35;stroke-miterlimit:4;stroke-dasharray:none;fill:none;fill-opacity:1;fill-rule: evenodd"/>
<path id="Shape2DView_nwe0046"  d="M 36.56000000000068 -9.999999999999696 L 36.310000000000144 -8.499999999999773 " stroke="#191919" stroke-width="0.35 px" style="stroke-width:0.35;stroke-miterlimit:4;stroke-dasharray:none;fill:none;fill-opacity:1;fill-rule: evenodd"/>
<path id="Shape2DView_nwe0047"  d="M 36.56 -10.0 L 39.64 -10.0 " stroke="#191919" stroke-width="0.35 px" style="stroke-width:0.35;stroke-miterlimit:4;stroke-dasharray:none;fill:none;fill-opacity:1;fill-rule: evenodd"/>
<path id="Shape2DView_nwe0048"  d="M 39.8900000000008 -8.499999999999426 L 39.64000000000027 -9.99999999999935 " stroke="#191919" stroke-width="0.35 px" style="stroke-width:0.35;stroke-miterlimit:4;stroke-dasharray:none;fill:none;fill-opacity:1;fill-rule: evenodd"/>
<path id="Shape2DView_nwe0049"  d="M 11.160000000000064 -9.999999999999922 L 10.909999999999533 -8.499999999999998 " stroke="#191919" stroke-width="0.35 px" style="stroke-width:0.35;stroke-miterlimit:4;stroke-dasharray:none;fill:none;fill-opacity:1;fill-rule: evenodd"/>
<path id="Shape2DView_nwe0050"  d="M 11.16 -10.0 L 14.240000000000002 -10.0 " stroke="#191919" stroke-width="0.35 px" style="stroke-width:0.35;stroke-miterlimit:4;stroke-dasharray:none;fill:none;fill-opacity:1;fill-rule: evenodd"/>
<path id="Shape2DView_nwe0051"  d="M 14.489999999999576 -8.499999999998904 L 14.239999999999043 -9.999999999998828 " stroke="#191919" stroke-width="0.35 px" style="stroke-width:0.35;stroke-miterlimit:4;stroke-dasharray:none;fill:none;fill-opacity:1;fill-rule: evenodd"/>
<path id="Shape2DView_nwe0052"  d="M 31.480000000001386 -9.999999999999732 L 31.230000000000853 -8.499999999999808 " stroke="#191919" stroke-width="0.35 px" style="stroke-width:0.35;stroke-miterlimit:4;stroke-dasharray:none;fill:none;fill-opacity:1;fill-rule: evenodd"/>
<path id="Shape2DView_nwe0053"  d="M 31.480000000000004 -10.0 L 34.56 -10.0 " stroke="#191919" stroke-width="0.35 px" style="stroke-width:0.35;stroke-miterlimit:4;stroke-dasharray:none;fill:none;fill-opacity:1;fill-rule: evenodd"/>
<path id="Shape2DView_nwe0054"  d="M 34.81000000000062 -8.499999999999744 L 34.56000000000009 -9.999999999999668 " stroke="#191919" stroke-width="0.35 px" style="stroke-width:0.35;stroke-miterlimit:4;stroke-dasharray:none;fill:none;fill-opacity:1;fill-rule: evenodd"/>
<path id="Shape2DView_nwe0055"  d="M 16.24000000000039 -10.000000000000082 L 15.989999999999856 -8.500000000000158 " stroke="#191919" stroke-width="0.35 px" style="stroke-width:0.35;stroke-miterlimit:4;stroke-dasharray:none;fill:none;fill-opacity:1;fill-rule: evenodd"/>
<path id="Shape2DView_nwe0056"  d="M 16.24 -10.0 L 19.32 -10.0 " stroke="#191919" stroke-width="0.35 px" style="stroke-width:0.35;stroke-miterlimit:4;stroke-dasharray:none;fill:none;fill-opacity:1;fill-rule: evenodd"/>
<path id="Shape2DView_nwe0057"  d="M 19.570000000001162 -8.500000000000167 L 19.32000000000063 -10.00000000000009 " stroke="#191919" stroke-width="0.35 px" style="stroke-width:0.35;stroke-miterlimit:4;stroke-dasharray:none;fill:none;fill-opacity:1;fill-rule: evenodd"/>
<path id="Shape2DView_nwe0058"  d="M 26.400000000001118 -9.999999999999908 L 26.150000000000585 -8.499999999999984 " stroke="#191919" stroke-width="0.35 px" style="stroke-width:0.35;stroke-miterlimit:4;stroke-dasharray:none;fill:none;fill-opacity:1;fill-rule: evenodd"/>
<path id="Shape2DView_nwe0059"  d="M 26.4 -10.0 L 29.480000000000004 -10.0 " stroke="#191919" stroke-width="0.35 px" style="stroke-width:0.35;stroke-miterlimit:4;stroke-dasharray:none;fill:none;fill-opacity:1;fill-rule: evenodd"/>
<path id="Shape2DView_nwe0060"  d="M 29.730000000000494 -8.499999999999726 L 29.47999999999996 -9.99999999999965 " stroke="#191919" stroke-width="0.35 px" style="stroke-width:0.35;stroke-miterlimit:4;stroke-dasharray:none;fill:none;fill-opacity:1;fill-rule: evenodd"/>
<path id="Shape2DView_nwe0061"  d="M 21.320000000000796 -9.999999999999748 L 21.070000000000263 -8.499999999999824 " stroke="#191919" stroke-width="0.35 px" style="stroke-width:0.35;stroke-miterlimit:4;stroke-dasharray:none;fill:none;fill-opacity:1;fill-rule: evenodd"/>
<path id="Shape2DView_nwe0062"  d="M 21.32 -10.0 L 24.4 -10.0 " stroke="#191919" stroke-width="0.35 px" style="stroke-width:0.35;stroke-miterlimit:4;stroke-dasharray:none;fill:none;fill-opacity:1;fill-rule: evenodd"/>
<path id="Shape2DView_nwe0063"  d="M 24.650000000001288 -8.500000000000185 L 24.400000000000755 -10.000000000000108 " stroke="#191919" stroke-width="0.35 px" style="stroke-width:0.35;stroke-miterlimit:4;stroke-dasharray:none;fill:none;fill-opacity:1;fill-rule: evenodd"/>
<title>b'Shape2DView'</title>
</g>
<g id="Rectangle" transform="translate(4.017200,2.477200) scale(1,-1)">
<rect fill="#ff0000" id="origin" width="1" height="1" x="0" y="0" />
<title>b'Rectangle'</title>
</g>
</svg>