<?xml version="1.0"?>
<!DOCTYPE svg PUBLIC "-//W3C//DTD SVG 1.1//EN" "http://www.w3.org/Graphics/SVG/1.1/DTD/svg11.dtd">
<svg width="6.426mm" height="3.326mm" viewBox="0 0 6.426 3.326" xmlns="http://www.w3.org/2000/svg" version="1.1">
<g id="Shape2DView" transform="translate(3.213000,1.663000) scale(1,-1)">
<path id="Shape2DView_nwe0000"  d="M -3.15 1.6 L -3.15 1.5994969767914595 L -3.15 1.5979942329745458 L -3.15 1.5955106664246694 L -3.15 1.5920775094321935 L -3.15 1.5877379359382628 L -3.15 1.5825465185974423 L -3.15 1.5765685424949238 L -3.15 1.5698791841486988 L -3.15 1.562562566121227 L -3.15 1.5547106991294046 L -3.15 1.5464223249564133 L -3.15 1.537801674716505 L -3.15 1.5289571580882646 L -3.15 1.52 " stroke="#191919" stroke-width="0.35 px" style="stroke-width:0.35;stroke-miterlimit:4;stroke-dasharray:none;fill:none;fill-opacity:1;fill-rule: evenodd"/>
<path id="Shape2DView_nwe0001"  d="M -3.15 -1.52 L -3.15 1.52 " stroke="#191919" stroke-width="0.35 px" style="stroke-width:0.35;stroke-miterlimit:4;stroke-dasharray:none;fill:none;fill-opacity:1;fill-rule: evenodd"/>
<path id="Shape2DView_nwe0002"  d="M -3.15 -1.6 L -3.15 -1.5994969767914595 L -3.15 -1.5979942329745458 L -3.15 -1.5955106664246694 L -3.15 -1.5920775094321935 L -3.15 -1.5877379359382628 L -3.15 -1.5825465185974423 L -3.15 -1.5765685424949238 L -3.15 -1.5698791841486988 L -3.15 -1.562562566121227 L -3.15 -1.5547106991294046 L -3.15 -1.5464223249564133 L -3.15 -1.537801674716505 L -3.15 -1.5289571580882646 L -3.15 -1.52 " stroke="#191919" stroke-width="0.35 px" style="stroke-width:0.35;stroke-miterlimit:4;stroke-dasharray:none;fill:none;fill-opacity:1;fill-rule: evenodd"/>
<path id="Shape2DView_nwe0003"  d="M -3.15 -1.6 L -2.35 -1.6 " stroke="#191919" stroke-width="0.35 px" style="stroke-width:0.35;stroke-miterlimit:4;stroke-dasharray:none;fill:none;fill-opacity:1;fill-rule: evenodd"/>
<path id="Shape2DView_nwe0004"  d="M -2.35 -1.6 L -2.35 -1.5994969767914595 L -2.35 -1.5979942329745458 L -2.35 -1.5955106664246694 L -2.35 -1.5920775094321935 L -2.35 -1.5877379359382628 L -2.35 -1.5825465185974423 L -2.35 -1.5765685424949238 L -2.35 -1.5698791841486988 L -2.35 -1.562562566121227 L -2.35 -1.5547106991294046 L -2.35 -1.5464223249564133 L -2.35 -1.537801674716505 L -2.35 -1.5289571580882646 L -2.35 -1.52 " stroke="#191919" stroke-width="0.35 px" style="stroke-width:0.35;stroke-miterlimit:4;stroke-dasharray:none;fill:none;fill-opacity:1;fill-rule: evenodd"/>
<path id="Shape2DView_nwe0005"  d="M -2.35 -1.52 L -2.35 1.52 " stroke="#191919" stroke-width="0.35 px" style="stroke-width:0.35;stroke-miterlimit:4;stroke-dasharray:none;fill:none;fill-opacity:1;fill-rule: evenodd"/>
<path id="Shape2DView_nwe0006"  d="M -2.35 1.6 L -2.35 1.5994969767914595 L -2.35 1.5979942329745458 L -2.35 1.5955106664246694 L -2.35 1.5920775094321935 L -2.35 1.5877379359382628 L -2.35 1.5825465185974423 L -2.35 1.5765685424949238 L -2.35 1.5698791841486988 L -2.35 1.562562566121227 L -2.35 1.5547106991294046 L -2.35 1.5464223249564133 L -2.35 1.537801674716505 L -2.35 1.5289571580882646 L -2.35 1.52 " stroke="#191919" stroke-width="0.35 px" style="stroke-width:0.35;stroke-miterlimit:4;stroke-dasharray:none;fill:none;fill-opacity:1;fill-rule: evenodd"/>
<path id="Shape2DView_nwe0007"  d="M -3.15 1.6 L -2.35 1.6 " stroke="#191919" stroke-width="0.35 px" style="stroke-width:0.35;stroke-miterlimit:4;stroke-dasharray:none;fill:none;fill-opacity:1;fill-rule: evenodd"/>
<path id="Shape2DView_nwe0008"  d="M -2.35 1.52 L 2.35 1.52 " stroke="#191919" stroke-width="0.35 px" style="stroke-width:0.35;stroke-miterlimit:4;stroke-dasharray:none;fill:none;fill-opacity:1;fill-rule: evenodd"/>
<path id="Shape2DView_nwe0009"  d="M -2.35 -1.52 L 2.35 -1.52 " stroke="#191919" stroke-width="0.35 px" style="stroke-width:0.35;stroke-miterlimit:4;stroke-dasharray:none;fill:none;fill-opacity:1;fill-rule: evenodd"/>
<path id="Shape2DView_nwe0010"  d="M 2.35 1.6 L 2.35 1.5994969767914595 L 2.35 1.5979942329745458 L 2.35 1.5955106664246694 L 2.35 1.5920775094321935 L 2.35 1.5877379359382628 L 2.35 1.5825465185974423 L 2.35 1.5765685424949238 L 2.35 1.5698791841486988 L 2.35 1.562562566121227 L 2.35 1.5547106991294046 L 2.35 1.5464223249564133 L 2.35 1.537801674716505 L 2.35 1.5289571580882646 L 2.35 1.52 " stroke="#191919" stroke-width="0.35 px" style="stroke-width:0.35;stroke-miterlimit:4;stroke-dasharray:none;fill:none;fill-opacity:1;fill-rule: evenodd"/>
<path id="Shape2DView_nwe0011"  d="M 2.35 -1.52 L 2.35 1.52 " stroke="#191919" stroke-width="0.35 px" style="stroke-width:0.35;stroke-miterlimit:4;stroke-dasharray:none;fill:none;fill-opacity:1;fill-rule: evenodd"/>
<path id="Shape2DView_nwe0012"  d="M 2.35 -1.6 L 2.35 -1.5994969767914595 L 2.35 -1.5979942329745458 L 2.35 -1.5955106664246694 L 2.35 -1.5920775094321935 L 2.35 -1.5877379359382628 L 2.35 -1.5825465185974423 L 2.35 -1.5765685424949238 L 2.35 -1.5698791841486988 L 2.35 -1.562562566121227 L 2.35 -1.5547106991294046 L 2.35 -1.5464223249564133 L 2.35 -1.537801674716505 L 2.35 -1.5289571580882646 L 2.35 -1.52 " stroke="#191919" stroke-width="0.35 px" style="stroke-width:0.35;stroke-miterlimit:4;stroke-dasharray:none;fill:none;fill-opacity:1;fill-rule: evenodd"/>
<path id="Shape2DView_nwe0013"  d="M 2.35 -1.6 L 3.15 -1.6 " stroke="#191919" stroke-width="0.35 px" style="stroke-width:0.35;stroke-miterlimit:4;stroke-dasharray:none;fill:none;fill-opacity:1;fill-rule: evenodd"/>
<path id="Shape2DView_nwe0014"  d="M 3.15 -1.6 L 3.15 -1.5994969767914595 L 3.15 -1.5979942329745458 L 3.15 -1.5955106664246694 L 3.15 -1.5920775094321935 L 3.15 -1.5877379359382628 L 3.15 -1.5825465185974423 L 3.15 -1.5765685424949238 L 3.15 -1.5698791841486988 L 3.15 -1.562562566121227 L 3.15 -1.5547106991294046 L 3.15 -1.5464223249564133 L 3.15 -1.537801674716505 L 3.15 -1.5289571580882646 L 3.15 -1.52 " stroke="#191919" stroke-width="0.35 px" style="stroke-width:0.35;stroke-miterlimit:4;stroke-dasharray:none;fill:none;fill-opacity:1;fill-rule: evenodd"/>
<path id="Shape2DView_nwe0015"  d="M 3.15 -1.52 L 3.15 1.52 " stroke="#191919" stroke-width="0.35 px" style="stroke-width:0.35;stroke-miterlimit:4;stroke-dasharray:none;fill:none;fill-opacity:1;fill-rule: evenodd"/>
<path id="Shape2DView_nwe0016"  d="M 3.15 1.6 L 3.15 1.5994969767914595 L 3.15 1.5979942329745458 L 3.15 1.5955106664246694 L 3.15 1.5920775094321935 L 3.15 1.5877379359382628 L 3.15 1.5825465185974423 L 3.15 1.5765685424949238 L 3.15 1.5698791841486988 L 3.15 1.562562566121227 L 3.15 1.5547106991294046 L 3.15 1.5464223249564133 L 3.15 1.537801674716505 L 3.15 1.5289571580882646 L 3.15 1.52 " stroke="#191919" stroke-width="0.35 px" style="stroke-width:0.35;stroke-miterlimit:4;stroke-dasharray:none;fill:none;fill-opacity:1;fill-rule: evenodd"/>
<path id="Shape2DView_nwe0017"  d="M 2.35 1.6 L 3.15 1.6 " stroke="#191919" stroke-width="0.35 px" style="stroke-width:0.35;stroke-miterlimit:4;stroke-dasharray:none;fill:none;fill-opacity:1;fill-rule: evenodd"/>
<path id="Shape2DView_nwe0018"  d="M -3.15 -1.52 L -2.35 -1.52 " stroke="#191919" stroke-width="0.35 px" style="stroke-width:0.35;stroke-miterlimit:4;stroke-dasharray:none;fill:none;fill-opacity:1;fill-rule: evenodd"/>
<path id="Shape2DView_nwe0019"  d="M -3.15 1.52 L -2.35 1.52 " stroke="#191919" stroke-width="0.35 px" style="stroke-width:0.35;stroke-miterlimit:4;stroke-dasharray:none;fill:none;fill-opacity:1;fill-rule: evenodd"/>
<path id="Shape2DView_nwe0020"  d="M -2.35 1.44 L 2.35 1.44 " stroke="#191919" stroke-width="0.35 px" style="stroke-width:0.35;stroke-miterlimit:4;stroke-dasharray:none;fill:none;fill-opacity:1;fill-rule: evenodd"/>
<path id="Shape2DView_nwe0021"  d="M -2.35 -1.44 L 2.35 -1.44 " stroke="#191919" stroke-width="0.35 px" style="stroke-width:0.35;stroke-miterlimit:4;stroke-dasharray:none;fill:none;fill-opacity:1;fill-rule: evenodd"/>
<path id="Shape2DView_nwe0022"  d="M 2.35 -1.52 L 3.15 -1.52 " stroke="#191919" stroke-width="0.35 px" style="stroke-width:0.35;stroke-miterlimit:4;stroke-dasharray:none;fill:none;fill-opacity:1;fill-rule: evenodd"/>
<path id="Shape2DView_nwe0023"  d="M 2.35 1.52 L 3.15 1.52 " stroke="#191919" stroke-width="0.35 px" style="stroke-width:0.35;stroke-miterlimit:4;stroke-dasharray:none;fill:none;fill-opacity:1;fill-rule: evenodd"/>
<title>b'Shape2DView'</title>
</g>
<g id="Rectangle" transform="translate(3.213000,1.663000) scale(1,-1)">
<rect fill="#ff0000" id="origin" width="1" height="1" x="0" y="0" />
<title>b'Rectangle'</title>
</g>
</svg>