<?xml version="1.0"?>
<!DOCTYPE svg PUBLIC "-//W3C//DTD SVG 1.1//EN" "http://www.w3.org/Graphics/SVG/1.1/DTD/svg11.dtd">
<svg width="37.230000000000004mm" height="15.18mm" viewBox="0 0 37.230000000000004 15.18" xmlns="http://www.w3.org/2000/svg" version="1.1">
<g id="Shape2DView" transform="translate(4.645000,6.915000) scale(1,-1)">
<path id="Shape2DView_nwe0000"  d="M 30.22 -7.9 L 30.331964476103305 -7.9 L 30.442520933956313 -7.9 L 30.550279061955166 -7.9 L 30.653883739117557 -7.9 L 30.752032076515334 -7.9 L 30.843489801858734 -7.9 L 30.927106781186545 -7.9 L 31.001831482468027 -7.9 L 31.066724199228283 -7.9 L 31.12096886790242 -7.9 L 31.163883330308366 -7.9 L 31.19492791218182 -7.9 L 31.21371220989324 -7.9 L 31.22 -7.9 " stroke="#191919" stroke-width="0.35 px" style="stroke-width:0.35;stroke-miterlimit:4;stroke-dasharray:none;fill:none;fill-opacity:1;fill-rule: evenodd"/>
<path id="Shape2DView_nwe0001"  d="M -2.28 -7.9 L 30.22 -7.9 " stroke="#191919" stroke-width="0.35 px" style="stroke-width:0.35;stroke-miterlimit:4;stroke-dasharray:none;fill:none;fill-opacity:1;fill-rule: evenodd"/>
<path id="Shape2DView_nwe0002"  d="M -3.28 -7.9 L -3.2737122098932425 -7.9 L -3.2549279121818233 -7.9 L -3.223883330308367 -7.9 L -3.180968867902419 -7.9 L -3.126724199228284 -7.9 L -3.0618314824680297 -7.9 L -2.9871067811865473 -7.9 L -2.9034898018587336 -7.9 L -2.8120320765153366 -7.9 L -2.713883739117558 -7.9 L -2.610279061955167 -7.9 L -2.502520933956314 -7.9 L -2.3919644761033076 -7.9 L -2.28 -7.9 " stroke="#191919" stroke-width="0.35 px" style="stroke-width:0.35;stroke-miterlimit:4;stroke-dasharray:none;fill:none;fill-opacity:1;fill-rule: evenodd"/>
<path id="Shape2DView_nwe0003"  d="M -2.28 6.55 L 30.22 6.55 " stroke="#191919" stroke-width="0.35 px" style="stroke-width:0.35;stroke-miterlimit:4;stroke-dasharray:none;fill:none;fill-opacity:1;fill-rule: evenodd"/>
<path id="Shape2DView_nwe0004"  d="M -4.279999999999999 -6.9 A 1 1 0 0 1 -3.28 -7.9" stroke="#191919" stroke-width="0.35 px" style="stroke-width:0.35;stroke-miterlimit:4;stroke-dasharray:none;fill:none;fill-opacity:1;fill-rule: evenodd"/>
<path id="Shape2DView_nwe0005"  d="M 32.22 -6.9 A 1 1 0 0 0 31.22 -7.9" stroke="#191919" stroke-width="0.35 px" style="stroke-width:0.35;stroke-miterlimit:4;stroke-dasharray:none;fill:none;fill-opacity:1;fill-rule: evenodd"/>
<path id="Shape2DView_nwe0006"  d="M -4.28 -6.9 L -4.28 4.549999999999999 " stroke="#191919" stroke-width="0.35 px" style="stroke-width:0.35;stroke-miterlimit:4;stroke-dasharray:none;fill:none;fill-opacity:1;fill-rule: evenodd"/>
<path id="Shape2DView_nwe0007"  d="M 32.22 4.55 L 32.22 -6.8999999999999995 " stroke="#191919" stroke-width="0.35 px" style="stroke-width:0.35;stroke-miterlimit:4;stroke-dasharray:none;fill:none;fill-opacity:1;fill-rule: evenodd"/>
<path id="Shape2DView_nwe0008"  d="M -2.28 6.55 A 2 2 0 0 1 -4.28 4.55" stroke="#191919" stroke-width="0.35 px" style="stroke-width:0.35;stroke-miterlimit:4;stroke-dasharray:none;fill:none;fill-opacity:1;fill-rule: evenodd"/>
<path id="Shape2DView_nwe0009"  d="M 30.22 6.55 A 2 2 0 0 0 32.22 4.55" stroke="#191919" stroke-width="0.35 px" style="stroke-width:0.35;stroke-miterlimit:4;stroke-dasharray:none;fill:none;fill-opacity:1;fill-rule: evenodd"/>
<path id="Shape2DView_nwe0011"  d="M -2.28 -6.9 L -2.28 -7.011964476103309 L -2.28 -7.122520933956315 L -2.28 -7.230279061955168 L -2.28 -7.333883739117558 L -2.28 -7.432032076515337 L -2.28 -7.523489801858734 L -2.28 -7.607106781186548 L -2.28 -7.68183148246803 L -2.28 -7.746724199228284 L -2.28 -7.800968867902419 L -2.28 -7.843883330308368 L -2.28 -7.874927912181824 L -2.28 -7.893712209893243 L -2.28 -7.9 " stroke="#191919" stroke-width="0.35 px" style="stroke-width:0.35;stroke-miterlimit:4;stroke-dasharray:none;fill:none;fill-opacity:1;fill-rule: evenodd"/>
<path id="Shape2DView_nwe0012"  d="M -4.279999999999999 -6.9 L -4.267424419786485 -6.9 L -4.229855824363647 -6.9 L -4.167766660616735 -6.9 L -4.081937735804838 -6.9 L -3.973448398456568 -6.9 L -3.843662964936059 -6.9 L -3.694213562373095 -6.9 L -3.526979603717467 -6.9 L -3.344064153030673 -6.9 L -3.1477674782351164 -6.9 L -2.940558123910334 -6.9 L -2.725041867912629 -6.9 L -2.5039289522066155 -6.9 L -2.28 -6.9 " stroke="#191919" stroke-width="0.35 px" style="stroke-width:0.35;stroke-miterlimit:4;stroke-dasharray:none;fill:none;fill-opacity:1;fill-rule: evenodd"/>
<path id="Shape2DView_nwe0013"  d="M 30.22 -6.9 L 30.22 -7.011964476103309 L 30.22 -7.122520933956315 L 30.22 -7.230279061955168 L 30.22 -7.333883739117558 L 30.22 -7.432032076515337 L 30.22 -7.523489801858734 L 30.22 -7.607106781186548 L 30.22 -7.68183148246803 L 30.22 -7.746724199228284 L 30.22 -7.800968867902419 L 30.22 -7.843883330308368 L 30.22 -7.874927912181824 L 30.22 -7.893712209893243 L 30.22 -7.9 " stroke="#191919" stroke-width="0.35 px" style="stroke-width:0.35;stroke-miterlimit:4;stroke-dasharray:none;fill:none;fill-opacity:1;fill-rule: evenodd"/>
<path id="Shape2DView_nwe0014"  d="M -2.28 -6.9 L 30.22 -6.9 " stroke="#191919" stroke-width="0.35 px" style="stroke-width:0.35;stroke-miterlimit:4;stroke-dasharray:none;fill:none;fill-opacity:1;fill-rule: evenodd"/>
<path id="Shape2DView_nwe0015"  d="M 30.22 -6.9 L 30.443928952206615 -6.9 L 30.665041867912628 -6.9 L 30.880558123910333 -6.9 L 31.087767478235115 -6.9 L 31.284064153030673 -6.9 L 31.466979603717466 -6.9 L 31.634213562373095 -6.9 L 31.78366296493606 -6.9 L 31.913448398456566 -6.9 L 32.02193773580484 -6.9 L 32.10776666061673 -6.9 L 32.169855824363644 -6.9 L 32.207424419786484 -6.9 L 32.22 -6.9 " stroke="#191919" stroke-width="0.35 px" style="stroke-width:0.35;stroke-miterlimit:4;stroke-dasharray:none;fill:none;fill-opacity:1;fill-rule: evenodd"/>
<path id="Shape2DView_nwe0017"  d="M -2.28 6.55 L -2.28 6.537424419786485 L -2.28 6.499855824363647 L -2.28 6.4377666606167345 L -2.28 6.351937735804839 L -2.28 6.243448398456568 L -2.28 6.11366296493606 L -2.28 5.964213562373095 L -2.28 5.7969796037174675 L -2.28 5.614064153030673 L -2.28 5.417767478235117 L -2.28 5.210558123910334 L -2.28 4.995041867912629 L -2.28 4.773928952206616 L -2.28 4.550000000000001 " stroke="#191919" stroke-width="0.35 px" style="stroke-width:0.35;stroke-miterlimit:4;stroke-dasharray:none;fill:none;fill-opacity:1;fill-rule: evenodd"/>
<path id="Shape2DView_nwe0018"  d="M -2.28 4.55 L 30.22 4.55 " stroke="#191919" stroke-width="0.35 px" style="stroke-width:0.35;stroke-miterlimit:4;stroke-dasharray:none;fill:none;fill-opacity:1;fill-rule: evenodd"/>
<path id="Shape2DView_nwe0019"  d="M 30.22 6.55 L 30.22 6.537424419786485 L 30.22 6.499855824363647 L 30.22 6.4377666606167345 L 30.22 6.351937735804838 L 30.22 6.243448398456568 L 30.22 6.11366296493606 L 30.22 5.964213562373095 L 30.22 5.7969796037174675 L 30.22 5.614064153030673 L 30.22 5.417767478235116 L 30.22 5.210558123910334 L 30.22 4.9950418679126285 L 30.22 4.7739289522066155 L 30.22 4.55 " stroke="#191919" stroke-width="0.35 px" style="stroke-width:0.35;stroke-miterlimit:4;stroke-dasharray:none;fill:none;fill-opacity:1;fill-rule: evenodd"/>
<path id="Shape2DView_nwe0021"  d="M -2.28 -6.9 L -2.28 4.549999999999999 " stroke="#191919" stroke-width="0.35 px" style="stroke-width:0.35;stroke-miterlimit:4;stroke-dasharray:none;fill:none;fill-opacity:1;fill-rule: evenodd"/>
<path id="Shape2DView_nwe0022"  d="M -4.279999999999999 4.55 L -4.267424419786485 4.55 L -4.229855824363647 4.55 L -4.167766660616735 4.55 L -4.081937735804838 4.55 L -3.973448398456568 4.55 L -3.843662964936059 4.55 L -3.694213562373095 4.55 L -3.526979603717467 4.55 L -3.344064153030673 4.55 L -3.1477674782351164 4.55 L -2.940558123910334 4.55 L -2.725041867912629 4.55 L -2.5039289522066155 4.55 L -2.28 4.55 " stroke="#191919" stroke-width="0.35 px" style="stroke-width:0.35;stroke-miterlimit:4;stroke-dasharray:none;fill:none;fill-opacity:1;fill-rule: evenodd"/>
<path id="Shape2DView_nwe0023"  d="M 30.22 4.55 L 30.22 -6.8999999999999995 " stroke="#191919" stroke-width="0.35 px" style="stroke-width:0.35;stroke-miterlimit:4;stroke-dasharray:none;fill:none;fill-opacity:1;fill-rule: evenodd"/>
<path id="Shape2DView_nwe0024"  d="M 30.22 4.55 L 30.443928952206615 4.55 L 30.665041867912628 4.55 L 30.880558123910333 4.55 L 31.087767478235115 4.55 L 31.284064153030673 4.55 L 31.466979603717466 4.55 L 31.634213562373095 4.55 L 31.78366296493606 4.55 L 31.913448398456566 4.55 L 32.02193773580484 4.55 L 32.10776666061673 4.55 L 32.169855824363644 4.55 L 32.207424419786484 4.55 L 32.22 4.55 " stroke="#191919" stroke-width="0.35 px" style="stroke-width:0.35;stroke-miterlimit:4;stroke-dasharray:none;fill:none;fill-opacity:1;fill-rule: evenodd"/>
<title>b'Shape2DView'</title>
</g>
<g id="Rectangle" transform="translate(4.645000,6.915000) scale(1,-1)">
<rect fill="#ff0000" id="origin" width="1" height="1" x="0" y="0" />
<title>b'Rectangle'</title>
</g>
</svg>