<?xml version="1.0"?>
<!DOCTYPE svg PUBLIC "-//W3C//DTD SVG 1.1//EN" "http://www.w3.org/Graphics/SVG/1.1/DTD/svg11.dtd">
<svg width="46.206mm" height="10.106mm" viewBox="0 0 46.206 10.106" xmlns="http://www.w3.org/2000/svg" version="1.1">
<g id="Shape2DView" transform="translate(7.353000,1.653000) scale(1,-1)">
<path id="Shape2DView_nwe0000"  d="M 38.4 1.2 L 38.39685610494662 1.2 L 38.38746395609091 1.2 L 38.37194166515418 1.2 L 38.35048443395121 1.2 L 38.323362099614144 1.2 L 38.290915741234016 1.2 L 38.253553390593275 1.2 L 38.21174490092937 1.2 L 38.166016038257666 1.2 L 38.11694186955878 1.2 L 38.06513953097758 1.2 L 38.01126046697816 1.2 L 37.955982238051654 1.2 L 37.9 1.2 " stroke="#191919" stroke-width="0.35 px" style="stroke-width:0.35;stroke-miterlimit:4;stroke-dasharray:none;fill:none;fill-opacity:1;fill-rule: evenodd"/>
<path id="Shape2DView_nwe0001"  d="M 37.9 1.2 L 34.1 1.2 " stroke="#191919" stroke-width="0.35 px" style="stroke-width:0.35;stroke-miterlimit:4;stroke-dasharray:none;fill:none;fill-opacity:1;fill-rule: evenodd"/>
<path id="Shape2DView_nwe0002"  d="M 34.1 1.2 L 34.044017761948346 1.2 L 33.98873953302184 1.2 L 33.93486046902242 1.2 L 33.88305813044122 1.2 L 33.833983961742334 1.2 L 33.78825509907063 1.2 L 33.746446609406725 1.2 L 33.709084258765984 1.2 L 33.676637900385856 1.2 L 33.64951556604879 1.2 L 33.62805833484582 1.2 L 33.61253604390909 1.2 L 33.60314389505338 1.2 L 33.6 1.2 " stroke="#191919" stroke-width="0.35 px" style="stroke-width:0.35;stroke-miterlimit:4;stroke-dasharray:none;fill:none;fill-opacity:1;fill-rule: evenodd"/>
<path id="Shape2DView_nwe0003"  d="M 33.6 1.2 L -2.1000000000000014 1.2 " stroke="#191919" stroke-width="0.35 px" style="stroke-width:0.35;stroke-miterlimit:4;stroke-dasharray:none;fill:none;fill-opacity:1;fill-rule: evenodd"/>
<path id="Shape2DView_nwe0004"  d="M -2.1 1.2 L -2.1031438950533787 1.2 L -2.1125360439090883 1.2 L -2.128058334845816 1.2 L -2.1495155660487906 1.2 L -2.176637900385858 1.2 L -2.2090842587659854 1.2 L -2.246446609406726 1.2 L -2.2882550990706334 1.2 L -2.333983961742332 1.2 L -2.383058130441221 1.2 L -2.4348604690224165 1.2 L -2.488739533021843 1.2 L -2.544017761948346 1.2 L -2.6 1.2 " stroke="#191919" stroke-width="0.35 px" style="stroke-width:0.35;stroke-miterlimit:4;stroke-dasharray:none;fill:none;fill-opacity:1;fill-rule: evenodd"/>
<path id="Shape2DView_nwe0005"  d="M -2.6 1.2 L -6.4 1.2 " stroke="#191919" stroke-width="0.35 px" style="stroke-width:0.35;stroke-miterlimit:4;stroke-dasharray:none;fill:none;fill-opacity:1;fill-rule: evenodd"/>
<path id="Shape2DView_nwe0006"  d="M -6.4 1.2 L -6.4559822380516545 1.2 L -6.5112604669781575 1.2 L -6.565139530977584 1.2 L -6.616941869558779 1.2 L -6.666016038257669 1.2 L -6.711744900929367 1.2 L -6.753553390593274 1.2 L -6.7909157412340155 1.2 L -6.823362099614142 1.2 L -6.85048443395121 1.2 L -6.871941665154184 1.2 L -6.8874639560909126 1.2 L -6.896856104946622 1.2 L -6.9 1.2 " stroke="#191919" stroke-width="0.35 px" style="stroke-width:0.35;stroke-miterlimit:4;stroke-dasharray:none;fill:none;fill-opacity:1;fill-rule: evenodd"/>
<path id="Shape2DView_nwe0007"  d="M -6.9 1.2 L -6.9 -7.999999999999999 " stroke="#191919" stroke-width="0.35 px" style="stroke-width:0.35;stroke-miterlimit:4;stroke-dasharray:none;fill:none;fill-opacity:1;fill-rule: evenodd"/>
<path id="Shape2DView_nwe0008"  d="M 38.4 1.2 L 38.4 -7.999999999999999 " stroke="#191919" stroke-width="0.35 px" style="stroke-width:0.35;stroke-miterlimit:4;stroke-dasharray:none;fill:none;fill-opacity:1;fill-rule: evenodd"/>
<path id="Shape2DView_nwe0009"  d="M -6.4 -8.0 L -6.4559822380516545 -8.0 L -6.5112604669781575 -8.0 L -6.565139530977584 -8.0 L -6.616941869558779 -8.0 L -6.666016038257669 -8.0 L -6.711744900929367 -8.0 L -6.753553390593274 -8.0 L -6.7909157412340155 -8.0 L -6.823362099614142 -8.0 L -6.85048443395121 -8.0 L -6.871941665154184 -8.0 L -6.8874639560909126 -8.0 L -6.896856104946622 -8.0 L -6.9 -8.0 " stroke="#191919" stroke-width="0.35 px" style="stroke-width:0.35;stroke-miterlimit:4;stroke-dasharray:none;fill:none;fill-opacity:1;fill-rule: evenodd"/>
<path id="Shape2DView_nwe0010"  d="M 38.4 -8.0 L 38.39685610494662 -8.0 L 38.38746395609091 -8.0 L 38.37194166515418 -8.0 L 38.35048443395121 -8.0 L 38.323362099614144 -8.0 L 38.290915741234016 -8.0 L 38.253553390593275 -8.0 L 38.21174490092937 -8.0 L 38.166016038257666 -8.0 L 38.11694186955878 -8.0 L 38.06513953097758 -8.0 L 38.01126046697816 -8.0 L 37.955982238051654 -8.0 L 37.9 -8.0 " stroke="#191919" stroke-width="0.35 px" style="stroke-width:0.35;stroke-miterlimit:4;stroke-dasharray:none;fill:none;fill-opacity:1;fill-rule: evenodd"/>
<path id="Shape2DView_nwe0011"  d="M -2.6 -8.0 L -6.4 -8.0 " stroke="#191919" stroke-width="0.35 px" style="stroke-width:0.35;stroke-miterlimit:4;stroke-dasharray:none;fill:none;fill-opacity:1;fill-rule: evenodd"/>
<path id="Shape2DView_nwe0012"  d="M 37.9 -8.0 L 34.1 -8.0 " stroke="#191919" stroke-width="0.35 px" style="stroke-width:0.35;stroke-miterlimit:4;stroke-dasharray:none;fill:none;fill-opacity:1;fill-rule: evenodd"/>
<path id="Shape2DView_nwe0013"  d="M -2.1 -8.0 L -2.1031438950533787 -8.0 L -2.1125360439090883 -8.0 L -2.128058334845816 -8.0 L -2.1495155660487906 -8.0 L -2.176637900385858 -8.0 L -2.2090842587659854 -8.0 L -2.246446609406726 -8.0 L -2.2882550990706334 -8.0 L -2.333983961742332 -8.0 L -2.383058130441221 -8.0 L -2.4348604690224165 -8.0 L -2.488739533021843 -8.0 L -2.544017761948346 -8.0 L -2.6 -8.0 " stroke="#191919" stroke-width="0.35 px" style="stroke-width:0.35;stroke-miterlimit:4;stroke-dasharray:none;fill:none;fill-opacity:1;fill-rule: evenodd"/>
<path id="Shape2DView_nwe0014"  d="M 34.1 -8.0 L 34.044017761948346 -8.0 L 33.98873953302184 -8.0 L 33.93486046902242 -8.0 L 33.88305813044122 -8.0 L 33.833983961742334 -8.0 L 33.78825509907063 -8.0 L 33.746446609406725 -8.0 L 33.709084258765984 -8.0 L 33.676637900385856 -8.0 L 33.64951556604879 -8.0 L 33.62805833484582 -8.0 L 33.61253604390909 -8.0 L 33.60314389505338 -8.0 L 33.6 -8.0 " stroke="#191919" stroke-width="0.35 px" style="stroke-width:0.35;stroke-miterlimit:4;stroke-dasharray:none;fill:none;fill-opacity:1;fill-rule: evenodd"/>
<path id="Shape2DView_nwe0015"  d="M -2.1 -5.1 L -2.1 -7.999999999999999 " stroke="#191919" stroke-width="0.35 px" style="stroke-width:0.35;stroke-miterlimit:4;stroke-dasharray:none;fill:none;fill-opacity:1;fill-rule: evenodd"/>
<path id="Shape2DView_nwe0016"  d="M -2.1 -4.5 L -2.1 -5.1 " stroke="#191919" stroke-width="0.35 px" style="stroke-width:0.35;stroke-miterlimit:4;stroke-dasharray:none;fill:none;fill-opacity:1;fill-rule: evenodd"/>
<path id="Shape2DView_nwe0017"  d="M -2.1 1.2 L -2.1 -4.5 " stroke="#191919" stroke-width="0.35 px" style="stroke-width:0.35;stroke-miterlimit:4;stroke-dasharray:none;fill:none;fill-opacity:1;fill-rule: evenodd"/>
<path id="Shape2DView_nwe0018"  d="M 33.6 1.2 L 33.6 -4.5 " stroke="#191919" stroke-width="0.35 px" style="stroke-width:0.35;stroke-miterlimit:4;stroke-dasharray:none;fill:none;fill-opacity:1;fill-rule: evenodd"/>
<path id="Shape2DView_nwe0019"  d="M 33.6 -4.5 L 33.6 -5.1 " stroke="#191919" stroke-width="0.35 px" style="stroke-width:0.35;stroke-miterlimit:4;stroke-dasharray:none;fill:none;fill-opacity:1;fill-rule: evenodd"/>
<path id="Shape2DView_nwe0020"  d="M 33.6 -5.1 L 33.6 -7.999999999999999 " stroke="#191919" stroke-width="0.35 px" style="stroke-width:0.35;stroke-miterlimit:4;stroke-dasharray:none;fill:none;fill-opacity:1;fill-rule: evenodd"/>
<path id="Shape2DView_nwe0021"  d="M 33.6 -8.0 L -2.1000000000000014 -8.0 " stroke="#191919" stroke-width="0.35 px" style="stroke-width:0.35;stroke-miterlimit:4;stroke-dasharray:none;fill:none;fill-opacity:1;fill-rule: evenodd"/>
<path id="Shape2DView_nwe0022"  d="M -2.1 -5.1 L 33.6 -5.1 " stroke="#191919" stroke-width="0.35 px" style="stroke-width:0.35;stroke-miterlimit:4;stroke-dasharray:none;fill:none;fill-opacity:1;fill-rule: evenodd"/>
<path id="Shape2DView_nwe0023"  d="M -2.1 -4.5 L 33.6 -4.5 " stroke="#191919" stroke-width="0.35 px" style="stroke-width:0.35;stroke-miterlimit:4;stroke-dasharray:none;fill:none;fill-opacity:1;fill-rule: evenodd"/>
<path id="Shape2DView_nwe0024"  d="M -6.4 1.2 L -6.4 -7.999999999999999 " stroke="#191919" stroke-width="0.35 px" style="stroke-width:0.35;stroke-miterlimit:4;stroke-dasharray:none;fill:none;fill-opacity:1;fill-rule: evenodd"/>
<path id="Shape2DView_nwe0025"  d="M 37.9 1.2 L 37.9 -7.999999999999999 " stroke="#191919" stroke-width="0.35 px" style="stroke-width:0.35;stroke-miterlimit:4;stroke-dasharray:none;fill:none;fill-opacity:1;fill-rule: evenodd"/>
<path id="Shape2DView_nwe0026"  d="M -2.6 1.2 L -2.6 -7.999999999999999 " stroke="#191919" stroke-width="0.35 px" style="stroke-width:0.35;stroke-miterlimit:4;stroke-dasharray:none;fill:none;fill-opacity:1;fill-rule: evenodd"/>
<path id="Shape2DView_nwe0027"  d="M 34.1 1.2 L 34.1 -7.999999999999999 " stroke="#191919" stroke-width="0.35 px" style="stroke-width:0.35;stroke-miterlimit:4;stroke-dasharray:none;fill:none;fill-opacity:1;fill-rule: evenodd"/>
<title>b'Shape2DView'</title>
</g>
<g id="Rectangle" transform="translate(7.353000,1.653000) scale(1,-1)">
<rect fill="#ff0000" id="origin" width="1" height="1" x="0" y="0" />
<title>b'Rectangle'</title>
</g>
</svg>