<?xml version="1.0"?>
<!DOCTYPE svg PUBLIC "-//W3C//DTD SVG 1.1//EN" "http://www.w3.org/Graphics/SVG/1.1/DTD/svg11.dtd">
<svg width="17.646mm" height="9.546mm" viewBox="0 0 17.646 9.546" xmlns="http://www.w3.org/2000/svg" version="1.1">
<g id="Shape2DView" transform="translate(7.073000,1.373000) scale(1,-1)">
<path id="Shape2DView_nwe0000"  d="M 10.4 1.2 L 10.396856104946622 1.2 L 10.387463956090912 1.2 L 10.371941665154184 1.2 L 10.35048443395121 1.2 L 10.323362099614142 1.2 L 10.290915741234015 1.2 L 10.253553390593273 1.2 L 10.211744900929368 1.2 L 10.166016038257668 1.2 L 10.11694186955878 1.2 L 10.065139530977584 1.2 L 10.011260466978158 1.2 L 9.955982238051654 1.2 L 9.9 1.2 " stroke="#191919" stroke-width="0.35 px" style="stroke-width:0.35;stroke-miterlimit:4;stroke-dasharray:none;fill:none;fill-opacity:1;fill-rule: evenodd"/>
<path id="Shape2DView_nwe0001"  d="M 9.9 1.2 L 6.1 1.2 " stroke="#191919" stroke-width="0.35 px" style="stroke-width:0.35;stroke-miterlimit:4;stroke-dasharray:none;fill:none;fill-opacity:1;fill-rule: evenodd"/>
<path id="Shape2DView_nwe0002"  d="M 6.1 1.2 L 6.0440177619483455 1.2 L 5.9887395330218425 1.2 L 5.934860469022416 1.2 L 5.883058130441221 1.2 L 5.833983961742331 1.2 L 5.788255099070633 1.2 L 5.746446609406726 1.2 L 5.7090842587659845 1.2 L 5.676637900385858 1.2 L 5.64951556604879 1.2 L 5.628058334845816 1.2 L 5.6125360439090874 1.2 L 5.603143895053378 1.2 L 5.6 1.2 " stroke="#191919" stroke-width="0.35 px" style="stroke-width:0.35;stroke-miterlimit:4;stroke-dasharray:none;fill:none;fill-opacity:1;fill-rule: evenodd"/>
<path id="Shape2DView_nwe0003"  d="M 5.6 1.2 L -2.0999999999999996 1.2 " stroke="#191919" stroke-width="0.35 px" style="stroke-width:0.35;stroke-miterlimit:4;stroke-dasharray:none;fill:none;fill-opacity:1;fill-rule: evenodd"/>
<path id="Shape2DView_nwe0004"  d="M -2.1 1.2 L -2.1031438950533787 1.2 L -2.1125360439090883 1.2 L -2.128058334845816 1.2 L -2.1495155660487906 1.2 L -2.176637900385858 1.2 L -2.2090842587659854 1.2 L -2.246446609406726 1.2 L -2.2882550990706334 1.2 L -2.333983961742332 1.2 L -2.383058130441221 1.2 L -2.4348604690224165 1.2 L -2.488739533021843 1.2 L -2.544017761948346 1.2 L -2.6 1.2 " stroke="#191919" stroke-width="0.35 px" style="stroke-width:0.35;stroke-miterlimit:4;stroke-dasharray:none;fill:none;fill-opacity:1;fill-rule: evenodd"/>
<path id="Shape2DView_nwe0005"  d="M -2.6 1.2 L -6.4 1.2 " stroke="#191919" stroke-width="0.35 px" style="stroke-width:0.35;stroke-miterlimit:4;stroke-dasharray:none;fill:none;fill-opacity:1;fill-rule: evenodd"/>
<path id="Shape2DView_nwe0006"  d="M -6.4 1.2 L -6.4559822380516545 1.2 L -6.5112604669781575 1.2 L -6.565139530977584 1.2 L -6.616941869558779 1.2 L -6.666016038257669 1.2 L -6.711744900929367 1.2 L -6.753553390593274 1.2 L -6.7909157412340155 1.2 L -6.823362099614142 1.2 L -6.85048443395121 1.2 L -6.871941665154184 1.2 L -6.8874639560909126 1.2 L -6.896856104946622 1.2 L -6.9 1.2 " stroke="#191919" stroke-width="0.35 px" style="stroke-width:0.35;stroke-miterlimit:4;stroke-dasharray:none;fill:none;fill-opacity:1;fill-rule: evenodd"/>
<path id="Shape2DView_nwe0007"  d="M -6.9 1.2 L -6.9 -7.999999999999999 " stroke="#191919" stroke-width="0.35 px" style="stroke-width:0.35;stroke-miterlimit:4;stroke-dasharray:none;fill:none;fill-opacity:1;fill-rule: evenodd"/>
<path id="Shape2DView_nwe0008"  d="M 10.4 1.2 L 10.4 -7.999999999999999 " stroke="#191919" stroke-width="0.35 px" style="stroke-width:0.35;stroke-miterlimit:4;stroke-dasharray:none;fill:none;fill-opacity:1;fill-rule: evenodd"/>
<path id="Shape2DView_nwe0009"  d="M -6.4 -8.0 L -6.4559822380516545 -8.0 L -6.5112604669781575 -8.0 L -6.565139530977584 -8.0 L -6.616941869558779 -8.0 L -6.666016038257669 -8.0 L -6.711744900929367 -8.0 L -6.753553390593274 -8.0 L -6.7909157412340155 -8.0 L -6.823362099614142 -8.0 L -6.85048443395121 -8.0 L -6.871941665154184 -8.0 L -6.8874639560909126 -8.0 L -6.896856104946622 -8.0 L -6.9 -8.0 " stroke="#191919" stroke-width="0.35 px" style="stroke-width:0.35;stroke-miterlimit:4;stroke-dasharray:none;fill:none;fill-opacity:1;fill-rule: evenodd"/>
<path id="Shape2DView_nwe0010"  d="M 10.4 -8.0 L 10.396856104946622 -8.0 L 10.387463956090912 -8.0 L 10.371941665154184 -8.0 L 10.35048443395121 -8.0 L 10.323362099614142 -8.0 L 10.290915741234015 -8.0 L 10.253553390593273 -8.0 L 10.211744900929368 -8.0 L 10.166016038257668 -8.0 L 10.11694186955878 -8.0 L 10.065139530977584 -8.0 L 10.011260466978158 -8.0 L 9.955982238051654 -8.0 L 9.9 -8.0 " stroke="#191919" stroke-width="0.35 px" style="stroke-width:0.35;stroke-miterlimit:4;stroke-dasharray:none;fill:none;fill-opacity:1;fill-rule: evenodd"/>
<path id="Shape2DView_nwe0011"  d="M -2.6 -8.0 L -6.4 -8.0 " stroke="#191919" stroke-width="0.35 px" style="stroke-width:0.35;stroke-miterlimit:4;stroke-dasharray:none;fill:none;fill-opacity:1;fill-rule: evenodd"/>
<path id="Shape2DView_nwe0012"  d="M 9.9 -8.0 L 6.1 -8.0 " stroke="#191919" stroke-width="0.35 px" style="stroke-width:0.35;stroke-miterlimit:4;stroke-dasharray:none;fill:none;fill-opacity:1;fill-rule: evenodd"/>
<path id="Shape2DView_nwe0013"  d="M -2.1 -8.0 L -2.1031438950533787 -8.0 L -2.1125360439090883 -8.0 L -2.128058334845816 -8.0 L -2.1495155660487906 -8.0 L -2.176637900385858 -8.0 L -2.2090842587659854 -8.0 L -2.246446609406726 -8.0 L -2.2882550990706334 -8.0 L -2.333983961742332 -8.0 L -2.383058130441221 -8.0 L -2.4348604690224165 -8.0 L -2.488739533021843 -8.0 L -2.544017761948346 -8.0 L -2.6 -8.0 " stroke="#191919" stroke-width="0.35 px" style="stroke-width:0.35;stroke-miterlimit:4;stroke-dasharray:none;fill:none;fill-opacity:1;fill-rule: evenodd"/>
<path id="Shape2DView_nwe0014"  d="M 6.1 -8.0 L 6.0440177619483455 -8.0 L 5.9887395330218425 -8.0 L 5.934860469022416 -8.0 L 5.883058130441221 -8.0 L 5.833983961742331 -8.0 L 5.788255099070633 -8.0 L 5.746446609406726 -8.0 L 5.7090842587659845 -8.0 L 5.676637900385858 -8.0 L 5.64951556604879 -8.0 L 5.628058334845816 -8.0 L 5.6125360439090874 -8.0 L 5.603143895053378 -8.0 L 5.6 -8.0 " stroke="#191919" stroke-width="0.35 px" style="stroke-width:0.35;stroke-miterlimit:4;stroke-dasharray:none;fill:none;fill-opacity:1;fill-rule: evenodd"/>
<path id="Shape2DView_nwe0015"  d="M -2.1 -5.1 L -2.1 -7.999999999999999 " stroke="#191919" stroke-width="0.35 px" style="stroke-width:0.35;stroke-miterlimit:4;stroke-dasharray:none;fill:none;fill-opacity:1;fill-rule: evenodd"/>
<path id="Shape2DView_nwe0016"  d="M -2.1 -4.5 L -2.1 -5.1 " stroke="#191919" stroke-width="0.35 px" style="stroke-width:0.35;stroke-miterlimit:4;stroke-dasharray:none;fill:none;fill-opacity:1;fill-rule: evenodd"/>
<path id="Shape2DView_nwe0017"  d="M -2.1 1.2 L -2.1 -4.5 " stroke="#191919" stroke-width="0.35 px" style="stroke-width:0.35;stroke-miterlimit:4;stroke-dasharray:none;fill:none;fill-opacity:1;fill-rule: evenodd"/>
<path id="Shape2DView_nwe0018"  d="M 5.6 1.2 L 5.6 -4.5 " stroke="#191919" stroke-width="0.35 px" style="stroke-width:0.35;stroke-miterlimit:4;stroke-dasharray:none;fill:none;fill-opacity:1;fill-rule: evenodd"/>
<path id="Shape2DView_nwe0019"  d="M 5.6 -4.5 L 5.6 -5.1 " stroke="#191919" stroke-width="0.35 px" style="stroke-width:0.35;stroke-miterlimit:4;stroke-dasharray:none;fill:none;fill-opacity:1;fill-rule: evenodd"/>
<path id="Shape2DView_nwe0020"  d="M 5.6 -5.1 L 5.6 -7.999999999999999 " stroke="#191919" stroke-width="0.35 px" style="stroke-width:0.35;stroke-miterlimit:4;stroke-dasharray:none;fill:none;fill-opacity:1;fill-rule: evenodd"/>
<path id="Shape2DView_nwe0021"  d="M 5.6 -8.0 L -2.0999999999999996 -8.0 " stroke="#191919" stroke-width="0.35 px" style="stroke-width:0.35;stroke-miterlimit:4;stroke-dasharray:none;fill:none;fill-opacity:1;fill-rule: evenodd"/>
<path id="Shape2DView_nwe0022"  d="M -2.1 -5.1 L 5.6 -5.1 " stroke="#191919" stroke-width="0.35 px" style="stroke-width:0.35;stroke-miterlimit:4;stroke-dasharray:none;fill:none;fill-opacity:1;fill-rule: evenodd"/>
<path id="Shape2DView_nwe0023"  d="M -2.1 -4.5 L 5.6 -4.5 " stroke="#191919" stroke-width="0.35 px" style="stroke-width:0.35;stroke-miterlimit:4;stroke-dasharray:none;fill:none;fill-opacity:1;fill-rule: evenodd"/>
<path id="Shape2DView_nwe0024"  d="M -6.4 1.2 L -6.4 -7.999999999999999 " stroke="#191919" stroke-width="0.35 px" style="stroke-width:0.35;stroke-miterlimit:4;stroke-dasharray:none;fill:none;fill-opacity:1;fill-rule: evenodd"/>
<path id="Shape2DView_nwe0025"  d="M 9.9 1.2 L 9.9 -7.999999999999999 " stroke="#191919" stroke-width="0.35 px" style="stroke-width:0.35;stroke-miterlimit:4;stroke-dasharray:none;fill:none;fill-opacity:1;fill-rule: evenodd"/>
<path id="Shape2DView_nwe0026"  d="M -2.6 1.2 L -2.6 -7.999999999999999 " stroke="#191919" stroke-width="0.35 px" style="stroke-width:0.35;stroke-miterlimit:4;stroke-dasharray:none;fill:none;fill-opacity:1;fill-rule: evenodd"/>
<path id="Shape2DView_nwe0027"  d="M 6.1 1.2 L 6.1 -7.999999999999999 " stroke="#191919" stroke-width="0.35 px" style="stroke-width:0.35;stroke-miterlimit:4;stroke-dasharray:none;fill:none;fill-opacity:1;fill-rule: evenodd"/>
<title>b'Shape2DView'</title>
</g>
<g id="Rectangle" transform="translate(7.073000,1.373000) scale(1,-1)">
<rect fill="#ff0000" id="origin" width="1" height="1" x="0" y="0" />
<title>b'Rectangle'</title>
</g>
</svg>