<?xml version="1.0"?>
<!DOCTYPE svg PUBLIC "-//W3C//DTD SVG 1.1//EN" "http://www.w3.org/Graphics/SVG/1.1/DTD/svg11.dtd">
<svg width="21.216mm" height="9.616mm" viewBox="0 0 21.216 9.616" xmlns="http://www.w3.org/2000/svg" version="1.1">
<g id="Shape2DView" transform="translate(7.108000,1.408000) scale(1,-1)">
<path id="Shape2DView_nwe0000"  d="M 13.9 1.2 L 13.896856104946622 1.2 L 13.887463956090912 1.2 L 13.871941665154184 1.2 L 13.85048443395121 1.2 L 13.823362099614142 1.2 L 13.790915741234015 1.2 L 13.753553390593273 1.2 L 13.711744900929368 1.2 L 13.666016038257668 1.2 L 13.61694186955878 1.2 L 13.565139530977584 1.2 L 13.511260466978158 1.2 L 13.455982238051654 1.2 L 13.4 1.2 " stroke="#191919" stroke-width="0.35 px" style="stroke-width:0.35;stroke-miterlimit:4;stroke-dasharray:none;fill:none;fill-opacity:1;fill-rule: evenodd"/>
<path id="Shape2DView_nwe0001"  d="M 13.4 1.2 L 9.6 1.2 " stroke="#191919" stroke-width="0.35 px" style="stroke-width:0.35;stroke-miterlimit:4;stroke-dasharray:none;fill:none;fill-opacity:1;fill-rule: evenodd"/>
<path id="Shape2DView_nwe0002"  d="M 9.6 1.2 L 9.544017761948346 1.2 L 9.488739533021842 1.2 L 9.434860469022416 1.2 L 9.38305813044122 1.2 L 9.333983961742332 1.2 L 9.288255099070632 1.2 L 9.246446609406727 1.2 L 9.209084258765985 1.2 L 9.176637900385858 1.2 L 9.14951556604879 1.2 L 9.128058334845816 1.2 L 9.112536043909088 1.2 L 9.103143895053378 1.2 L 9.1 1.2 " stroke="#191919" stroke-width="0.35 px" style="stroke-width:0.35;stroke-miterlimit:4;stroke-dasharray:none;fill:none;fill-opacity:1;fill-rule: evenodd"/>
<path id="Shape2DView_nwe0003"  d="M 9.1 1.2 L -2.0999999999999996 1.2 " stroke="#191919" stroke-width="0.35 px" style="stroke-width:0.35;stroke-miterlimit:4;stroke-dasharray:none;fill:none;fill-opacity:1;fill-rule: evenodd"/>
<path id="Shape2DView_nwe0004"  d="M -2.1 1.2 L -2.1031438950533787 1.2 L -2.1125360439090883 1.2 L -2.128058334845816 1.2 L -2.1495155660487906 1.2 L -2.176637900385858 1.2 L -2.2090842587659854 1.2 L -2.246446609406726 1.2 L -2.2882550990706334 1.2 L -2.333983961742332 1.2 L -2.383058130441221 1.2 L -2.4348604690224165 1.2 L -2.488739533021843 1.2 L -2.544017761948346 1.2 L -2.6 1.2 " stroke="#191919" stroke-width="0.35 px" style="stroke-width:0.35;stroke-miterlimit:4;stroke-dasharray:none;fill:none;fill-opacity:1;fill-rule: evenodd"/>
<path id="Shape2DView_nwe0005"  d="M -2.6 1.2 L -6.4 1.2 " stroke="#191919" stroke-width="0.35 px" style="stroke-width:0.35;stroke-miterlimit:4;stroke-dasharray:none;fill:none;fill-opacity:1;fill-rule: evenodd"/>
<path id="Shape2DView_nwe0006"  d="M -6.4 1.2 L -6.4559822380516545 1.2 L -6.5112604669781575 1.2 L -6.565139530977584 1.2 L -6.616941869558779 1.2 L -6.666016038257669 1.2 L -6.711744900929367 1.2 L -6.753553390593274 1.2 L -6.7909157412340155 1.2 L -6.823362099614142 1.2 L -6.85048443395121 1.2 L -6.871941665154184 1.2 L -6.8874639560909126 1.2 L -6.896856104946622 1.2 L -6.9 1.2 " stroke="#191919" stroke-width="0.35 px" style="stroke-width:0.35;stroke-miterlimit:4;stroke-dasharray:none;fill:none;fill-opacity:1;fill-rule: evenodd"/>
<path id="Shape2DView_nwe0007"  d="M -6.9 1.2 L -6.9 -7.999999999999999 " stroke="#191919" stroke-width="0.35 px" style="stroke-width:0.35;stroke-miterlimit:4;stroke-dasharray:none;fill:none;fill-opacity:1;fill-rule: evenodd"/>
<path id="Shape2DView_nwe0008"  d="M 13.9 1.2 L 13.9 -7.999999999999999 " stroke="#191919" stroke-width="0.35 px" style="stroke-width:0.35;stroke-miterlimit:4;stroke-dasharray:none;fill:none;fill-opacity:1;fill-rule: evenodd"/>
<path id="Shape2DView_nwe0009"  d="M -6.4 -8.0 L -6.4559822380516545 -8.0 L -6.5112604669781575 -8.0 L -6.565139530977584 -8.0 L -6.616941869558779 -8.0 L -6.666016038257669 -8.0 L -6.711744900929367 -8.0 L -6.753553390593274 -8.0 L -6.7909157412340155 -8.0 L -6.823362099614142 -8.0 L -6.85048443395121 -8.0 L -6.871941665154184 -8.0 L -6.8874639560909126 -8.0 L -6.896856104946622 -8.0 L -6.9 -8.0 " stroke="#191919" stroke-width="0.35 px" style="stroke-width:0.35;stroke-miterlimit:4;stroke-dasharray:none;fill:none;fill-opacity:1;fill-rule: evenodd"/>
<path id="Shape2DView_nwe0010"  d="M 13.9 -8.0 L 13.896856104946622 -8.0 L 13.887463956090912 -8.0 L 13.871941665154184 -8.0 L 13.85048443395121 -8.0 L 13.823362099614142 -8.0 L 13.790915741234015 -8.0 L 13.753553390593273 -8.0 L 13.711744900929368 -8.0 L 13.666016038257668 -8.0 L 13.61694186955878 -8.0 L 13.565139530977584 -8.0 L 13.511260466978158 -8.0 L 13.455982238051654 -8.0 L 13.4 -8.0 " stroke="#191919" stroke-width="0.35 px" style="stroke-width:0.35;stroke-miterlimit:4;stroke-dasharray:none;fill:none;fill-opacity:1;fill-rule: evenodd"/>
<path id="Shape2DView_nwe0011"  d="M -2.6 -8.0 L -6.4 -8.0 " stroke="#191919" stroke-width="0.35 px" style="stroke-width:0.35;stroke-miterlimit:4;stroke-dasharray:none;fill:none;fill-opacity:1;fill-rule: evenodd"/>
<path id="Shape2DView_nwe0012"  d="M 13.4 -8.0 L 9.6 -8.0 " stroke="#191919" stroke-width="0.35 px" style="stroke-width:0.35;stroke-miterlimit:4;stroke-dasharray:none;fill:none;fill-opacity:1;fill-rule: evenodd"/>
<path id="Shape2DView_nwe0013"  d="M -2.1 -8.0 L -2.1031438950533787 -8.0 L -2.1125360439090883 -8.0 L -2.128058334845816 -8.0 L -2.1495155660487906 -8.0 L -2.176637900385858 -8.0 L -2.2090842587659854 -8.0 L -2.246446609406726 -8.0 L -2.2882550990706334 -8.0 L -2.333983961742332 -8.0 L -2.383058130441221 -8.0 L -2.4348604690224165 -8.0 L -2.488739533021843 -8.0 L -2.544017761948346 -8.0 L -2.6 -8.0 " stroke="#191919" stroke-width="0.35 px" style="stroke-width:0.35;stroke-miterlimit:4;stroke-dasharray:none;fill:none;fill-opacity:1;fill-rule: evenodd"/>
<path id="Shape2DView_nwe0014"  d="M 9.6 -8.0 L 9.544017761948346 -8.0 L 9.488739533021842 -8.0 L 9.434860469022416 -8.0 L 9.38305813044122 -8.0 L 9.333983961742332 -8.0 L 9.288255099070632 -8.0 L 9.246446609406727 -8.0 L 9.209084258765985 -8.0 L 9.176637900385858 -8.0 L 9.14951556604879 -8.0 L 9.128058334845816 -8.0 L 9.112536043909088 -8.0 L 9.103143895053378 -8.0 L 9.1 -8.0 " stroke="#191919" stroke-width="0.35 px" style="stroke-width:0.35;stroke-miterlimit:4;stroke-dasharray:none;fill:none;fill-opacity:1;fill-rule: evenodd"/>
<path id="Shape2DView_nwe0015"  d="M -2.1 -5.1 L -2.1 -7.999999999999999 " stroke="#191919" stroke-width="0.35 px" style="stroke-width:0.35;stroke-miterlimit:4;stroke-dasharray:none;fill:none;fill-opacity:1;fill-rule: evenodd"/>
<path id="Shape2DView_nwe0016"  d="M -2.1 -4.5 L -2.1 -5.1 " stroke="#191919" stroke-width="0.35 px" style="stroke-width:0.35;stroke-miterlimit:4;stroke-dasharray:none;fill:none;fill-opacity:1;fill-rule: evenodd"/>
<path id="Shape2DView_nwe0017"  d="M -2.1 1.2 L -2.1 -4.5 " stroke="#191919" stroke-width="0.35 px" style="stroke-width:0.35;stroke-miterlimit:4;stroke-dasharray:none;fill:none;fill-opacity:1;fill-rule: evenodd"/>
<path id="Shape2DView_nwe0018"  d="M 9.1 1.2 L 9.1 -4.5 " stroke="#191919" stroke-width="0.35 px" style="stroke-width:0.35;stroke-miterlimit:4;stroke-dasharray:none;fill:none;fill-opacity:1;fill-rule: evenodd"/>
<path id="Shape2DView_nwe0019"  d="M 9.1 -4.5 L 9.1 -5.1 " stroke="#191919" stroke-width="0.35 px" style="stroke-width:0.35;stroke-miterlimit:4;stroke-dasharray:none;fill:none;fill-opacity:1;fill-rule: evenodd"/>
<path id="Shape2DView_nwe0020"  d="M 9.1 -5.1 L 9.1 -7.999999999999999 " stroke="#191919" stroke-width="0.35 px" style="stroke-width:0.35;stroke-miterlimit:4;stroke-dasharray:none;fill:none;fill-opacity:1;fill-rule: evenodd"/>
<path id="Shape2DView_nwe0021"  d="M 9.1 -8.0 L -2.0999999999999996 -8.0 " stroke="#191919" stroke-width="0.35 px" style="stroke-width:0.35;stroke-miterlimit:4;stroke-dasharray:none;fill:none;fill-opacity:1;fill-rule: evenodd"/>
<path id="Shape2DView_nwe0022"  d="M -2.1 -5.1 L 9.1 -5.1 " stroke="#191919" stroke-width="0.35 px" style="stroke-width:0.35;stroke-miterlimit:4;stroke-dasharray:none;fill:none;fill-opacity:1;fill-rule: evenodd"/>
<path id="Shape2DView_nwe0023"  d="M -2.1 -4.5 L 9.1 -4.5 " stroke="#191919" stroke-width="0.35 px" style="stroke-width:0.35;stroke-miterlimit:4;stroke-dasharray:none;fill:none;fill-opacity:1;fill-rule: evenodd"/>
<path id="Shape2DView_nwe0024"  d="M -6.4 1.2 L -6.4 -7.999999999999999 " stroke="#191919" stroke-width="0.35 px" style="stroke-width:0.35;stroke-miterlimit:4;stroke-dasharray:none;fill:none;fill-opacity:1;fill-rule: evenodd"/>
<path id="Shape2DView_nwe0025"  d="M 13.4 1.2 L 13.4 -7.999999999999999 " stroke="#191919" stroke-width="0.35 px" style="stroke-width:0.35;stroke-miterlimit:4;stroke-dasharray:none;fill:none;fill-opacity:1;fill-rule: evenodd"/>
<path id="Shape2DView_nwe0026"  d="M -2.6 1.2 L -2.6 -7.999999999999999 " stroke="#191919" stroke-width="0.35 px" style="stroke-width:0.35;stroke-miterlimit:4;stroke-dasharray:none;fill:none;fill-opacity:1;fill-rule: evenodd"/>
<path id="Shape2DView_nwe0027"  d="M 9.6 1.2 L 9.6 -7.999999999999999 " stroke="#191919" stroke-width="0.35 px" style="stroke-width:0.35;stroke-miterlimit:4;stroke-dasharray:none;fill:none;fill-opacity:1;fill-rule: evenodd"/>
<title>b'Shape2DView'</title>
</g>
<g id="Rectangle" transform="translate(7.108000,1.408000) scale(1,-1)">
<rect fill="#ff0000" id="origin" width="1" height="1" x="0" y="0" />
<title>b'Rectangle'</title>
</g>
</svg>