<?xml version="1.0"?>
<!DOCTYPE svg PUBLIC "-//W3C//DTD SVG 1.1//EN" "http://www.w3.org/Graphics/SVG/1.1/DTD/svg11.dtd">
<svg width="20.9814mm" height="5.5914mm" viewBox="0 0 20.9814 5.5914" xmlns="http://www.w3.org/2000/svg" version="1.1">
<g id="Shape2DView" transform="translate(17.745700,5.335700) scale(1,-1)">
<path id="Shape2DView_nwe0000"  d="M -15.91416666666 0.125 L 2.9241666666670003 0.125 " stroke="#191919" stroke-width="0.35 px" style="stroke-width:0.35;stroke-miterlimit:4;stroke-dasharray:none;fill:none;fill-opacity:1;fill-rule: evenodd"/>
<path id="Shape2DView_nwe0001"  d="M -16.02 4.849166666667 L -16.02 0.23083333333299993 " stroke="#191919" stroke-width="0.35 px" style="stroke-width:0.35;stroke-miterlimit:4;stroke-dasharray:none;fill:none;fill-opacity:1;fill-rule: evenodd"/>
<path id="Shape2DView_nwe0002"  d="M 3.03 0.230833333333 L 3.03 4.849166666667 " stroke="#191919" stroke-width="0.35 px" style="stroke-width:0.35;stroke-miterlimit:4;stroke-dasharray:none;fill:none;fill-opacity:1;fill-rule: evenodd"/>
<path id="Shape2DView_nwe0003"  d="M 2.924166666667 4.955 L -15.91416666666 4.955 " stroke="#191919" stroke-width="0.35 px" style="stroke-width:0.35;stroke-miterlimit:4;stroke-dasharray:none;fill:none;fill-opacity:1;fill-rule: evenodd"/>
<path id="Shape2DView_nwe0004"  d="M -16.019999999993 0.23083333333299955 A 0.105833 0.105833 0 0 1 -15.9142 0.125" stroke="#191919" stroke-width="0.35 px" style="stroke-width:0.35;stroke-miterlimit:4;stroke-dasharray:none;fill:none;fill-opacity:1;fill-rule: evenodd"/>
<path id="Shape2DView_nwe0005"  d="M 2.924166666667 0.12499999999999999 A 0.105833 0.105833 0 0 1 3.03 0.230833" stroke="#191919" stroke-width="0.35 px" style="stroke-width:0.35;stroke-miterlimit:4;stroke-dasharray:none;fill:none;fill-opacity:1;fill-rule: evenodd"/>
<path id="Shape2DView_nwe0006"  d="M -15.91416666666 4.955 A 0.105833 0.105833 0 0 1 -16.02 4.84917" stroke="#191919" stroke-width="0.35 px" style="stroke-width:0.35;stroke-miterlimit:4;stroke-dasharray:none;fill:none;fill-opacity:1;fill-rule: evenodd"/>
<path id="Shape2DView_nwe0007"  d="M -16.02 2.54 L -16.02 2.407881918198097 L -16.02 2.2774252979315492 L -16.02 2.150270706892903 L -16.02 2.0280171878412814 L -16.02 1.912202149711903 L -16.02 1.8042820338066945 L -16.02 1.705613998199874 L -16.02 1.6174388506877249 L -16.02 1.540865444910625 L -16.02 1.4768567358751454 L -16.02 1.4262176702361264 L -16.02 1.3895850636254483 L -16.02 1.3674195923259738 L -16.02 1.36 " stroke="#191919" stroke-width="0.35 px" style="stroke-width:0.35;stroke-miterlimit:4;stroke-dasharray:none;fill:none;fill-opacity:1;fill-rule: evenodd"/>
<path id="Shape2DView_nwe0008"  d="M -16.02 3.7199999999999998 L -16.02 3.712580407674026 L -16.02 3.6904149363745518 L -16.02 3.6537823297638736 L -16.02 3.6031432641248546 L -16.02 3.539134555089375 L -16.02 3.4625611493122754 L -16.02 3.374386001800126 L -16.02 3.275717966193306 L -16.02 3.1677978502880975 L -16.02 3.0519828121587187 L -16.02 2.9297292931070973 L -16.02 2.8025747020684513 L -16.02 2.6721180818019037 L -16.02 2.5400000000000005 " stroke="#191919" stroke-width="0.35 px" style="stroke-width:0.35;stroke-miterlimit:4;stroke-dasharray:none;fill:none;fill-opacity:1;fill-rule: evenodd"/>
<path id="Shape2DView_nwe0009"  d="M 3.03 4.849166666667 A 0.105833 0.105833 0 0 1 2.92417 4.955" stroke="#191919" stroke-width="0.35 px" style="stroke-width:0.35;stroke-miterlimit:4;stroke-dasharray:none;fill:none;fill-opacity:1;fill-rule: evenodd"/>
<path id="Shape2DView_nwe0010"  d="M -12.445 0.01666666666667 L -12.445 0.009202368259782438 L -12.445 0.0018319377362483007 L -12.445 -0.005351937463675571 L -12.445 -0.012258915941168652 L -12.445 -0.01880213843435421 L -12.445 -0.024899320123914305 L -12.445 -0.03047378541243552 L -12.445 -0.03545543216453459 L -12.445 -0.03978161328188509 L -12.445 -0.04339792452682761 L -12.445 -0.04625888868722431 L -12.445 -0.04832852747878815 L -12.445 -0.04958081399288281 L -12.445 -0.049999999999999996 " stroke="#191919" stroke-width="0.35 px" style="stroke-width:0.35;stroke-miterlimit:4;stroke-dasharray:none;fill:none;fill-opacity:1;fill-rule: evenodd"/>
<path id="Shape2DView_nwe0011"  d="M -12.445 0.016666666666670008 L -12.445 0.12499999999999999 " stroke="#191919" stroke-width="0.35 px" style="stroke-width:0.35;stroke-miterlimit:4;stroke-dasharray:none;fill:none;fill-opacity:1;fill-rule: evenodd"/>
<path id="Shape2DView_nwe0012"  d="M -12.955 0.01666666666667 L -12.955 0.009202368259782438 L -12.955 0.0018319377362483007 L -12.955 -0.005351937463675571 L -12.955 -0.012258915941168652 L -12.955 -0.01880213843435421 L -12.955 -0.024899320123914305 L -12.955 -0.03047378541243552 L -12.955 -0.03545543216453459 L -12.955 -0.03978161328188509 L -12.955 -0.04339792452682761 L -12.955 -0.04625888868722431 L -12.955 -0.04832852747878815 L -12.955 -0.04958081399288281 L -12.955 -0.049999999999999996 " stroke="#191919" stroke-width="0.35 px" style="stroke-width:0.35;stroke-miterlimit:4;stroke-dasharray:none;fill:none;fill-opacity:1;fill-rule: evenodd"/>
<path id="Shape2DView_nwe0013"  d="M -12.955 0.125 L -12.955 0.01666666666667016 " stroke="#191919" stroke-width="0.35 px" style="stroke-width:0.35;stroke-miterlimit:4;stroke-dasharray:none;fill:none;fill-opacity:1;fill-rule: evenodd"/>
<path id="Shape2DView_nwe0014"  d="M -0.255 0.01666666666667 L -0.255 0.009202368259782438 L -0.255 0.0018319377362483007 L -0.255 -0.005351937463675571 L -0.255 -0.012258915941168652 L -0.255 -0.01880213843435421 L -0.255 -0.024899320123914305 L -0.255 -0.03047378541243552 L -0.255 -0.03545543216453459 L -0.255 -0.03978161328188509 L -0.255 -0.04339792452682761 L -0.255 -0.04625888868722431 L -0.255 -0.04832852747878815 L -0.255 -0.04958081399288281 L -0.255 -0.049999999999999996 " stroke="#191919" stroke-width="0.35 px" style="stroke-width:0.35;stroke-miterlimit:4;stroke-dasharray:none;fill:none;fill-opacity:1;fill-rule: evenodd"/>
<path id="Shape2DView_nwe0015"  d="M -0.255 0.125 L -0.255 0.01666666666667016 " stroke="#191919" stroke-width="0.35 px" style="stroke-width:0.35;stroke-miterlimit:4;stroke-dasharray:none;fill:none;fill-opacity:1;fill-rule: evenodd"/>
<path id="Shape2DView_nwe0016"  d="M 0.255 0.016666666666670008 L 0.255 0.12499999999999999 " stroke="#191919" stroke-width="0.35 px" style="stroke-width:0.35;stroke-miterlimit:4;stroke-dasharray:none;fill:none;fill-opacity:1;fill-rule: evenodd"/>
<path id="Shape2DView_nwe0017"  d="M 0.255 0.01666666666667 L 0.255 0.009202368259782438 L 0.255 0.0018319377362483007 L 0.255 -0.005351937463675571 L 0.255 -0.012258915941168652 L 0.255 -0.01880213843435421 L 0.255 -0.024899320123914305 L 0.255 -0.03047378541243552 L 0.255 -0.03545543216453459 L 0.255 -0.03978161328188509 L 0.255 -0.04339792452682761 L 0.255 -0.04625888868722431 L 0.255 -0.04832852747878815 L 0.255 -0.04958081399288281 L 0.255 -0.049999999999999996 " stroke="#191919" stroke-width="0.35 px" style="stroke-width:0.35;stroke-miterlimit:4;stroke-dasharray:none;fill:none;fill-opacity:1;fill-rule: evenodd"/>
<path id="Shape2DView_nwe0018"  d="M -16.75 2.54 L -16.75 2.523028988943645 L -16.75 2.5060614884892787 L -16.75 2.4891010085126917 L -16.75 2.4721510574374275 L -16.75 2.4552151415090337 L -16.75 2.4382967640697655 L -16.75 2.421399424833888 L -16.75 2.4045266191637307 L -16.75 2.387681837346639 L -16.75 2.3708685638729814 L -16.75 2.3540902767153487 L -16.75 2.337350446609107 L -16.75 2.3206525363344443 L -16.75 2.3040000000000664 " stroke="#191919" stroke-width="0.35 px" style="stroke-width:0.35;stroke-miterlimit:4;stroke-dasharray:none;fill:none;fill-opacity:1;fill-rule: evenodd"/>
<path id="Shape2DView_nwe0019"  d="M -17.236 2.304 L -16.75 2.304 " stroke="#191919" stroke-width="0.35 px" style="stroke-width:0.35;stroke-miterlimit:4;stroke-dasharray:none;fill:none;fill-opacity:1;fill-rule: evenodd"/>
<path id="Shape2DView_nwe0020"  d="M -17.236 2.776 L -16.75 2.776 " stroke="#191919" stroke-width="0.35 px" style="stroke-width:0.35;stroke-miterlimit:4;stroke-dasharray:none;fill:none;fill-opacity:1;fill-rule: evenodd"/>
<path id="Shape2DView_nwe0021"  d="M -16.75 2.7759999999999336 L -16.75 2.7593474636655557 L -16.75 2.7426495533908932 L -16.75 2.7259097232846514 L -16.75 2.7091314361270187 L -16.75 2.6923181626533608 L -16.75 2.6754733808362694 L -16.75 2.6586005751661115 L -16.75 2.641703235930234 L -16.75 2.624784858490966 L -16.75 2.607848942562572 L -16.75 2.5908989914873075 L -16.75 2.573938511510721 L -16.75 2.5569710110563544 L -16.75 2.5400000000000005 " stroke="#191919" stroke-width="0.35 px" style="stroke-width:0.35;stroke-miterlimit:4;stroke-dasharray:none;fill:none;fill-opacity:1;fill-rule: evenodd"/>
<path id="Shape2DView_nwe0022"  d="M -7.875 5.063333333333 L -7.875 5.070797631739888 L -7.875 5.078168062263422 L -7.875 5.085351937463346 L -7.875 5.092258915940839 L -7.875 5.098802138434024 L -7.875 5.104899320123585 L -7.875 5.110473785412106 L -7.875 5.115455432164205 L -7.875 5.119781613281556 L -7.875 5.123397924526498 L -7.875 5.126258888686895 L -7.875 5.128328527478459 L -7.875 5.129580813992553 L -7.875 5.12999999999967 " stroke="#191919" stroke-width="0.35 px" style="stroke-width:0.35;stroke-miterlimit:4;stroke-dasharray:none;fill:none;fill-opacity:1;fill-rule: evenodd"/>
<path id="Shape2DView_nwe0023"  d="M -7.875 4.955 L -7.875 5.063333333333 " stroke="#191919" stroke-width="0.35 px" style="stroke-width:0.35;stroke-miterlimit:4;stroke-dasharray:none;fill:none;fill-opacity:1;fill-rule: evenodd"/>
<path id="Shape2DView_nwe0024"  d="M -7.365 5.063333333333 L -7.365 5.070797631739888 L -7.365 5.078168062263422 L -7.365 5.085351937463346 L -7.365 5.092258915940839 L -7.365 5.098802138434024 L -7.365 5.104899320123585 L -7.365 5.110473785412106 L -7.365 5.115455432164205 L -7.365 5.119781613281556 L -7.365 5.123397924526498 L -7.365 5.126258888686895 L -7.365 5.128328527478459 L -7.365 5.129580813992553 L -7.365 5.12999999999967 " stroke="#191919" stroke-width="0.35 px" style="stroke-width:0.35;stroke-miterlimit:4;stroke-dasharray:none;fill:none;fill-opacity:1;fill-rule: evenodd"/>
<path id="Shape2DView_nwe0025"  d="M -7.365 5.063333333333 L -7.365 4.955 " stroke="#191919" stroke-width="0.35 px" style="stroke-width:0.35;stroke-miterlimit:4;stroke-dasharray:none;fill:none;fill-opacity:1;fill-rule: evenodd"/>
<path id="Shape2DView_nwe0026"  d="M -12.955 -0.05 L -12.445 -0.05 " stroke="#191919" stroke-width="0.35 px" style="stroke-width:0.35;stroke-miterlimit:4;stroke-dasharray:none;fill:none;fill-opacity:1;fill-rule: evenodd"/>
<path id="Shape2DView_nwe0027"  d="M -0.255 -0.05 L 0.255 -0.05 " stroke="#191919" stroke-width="0.35 px" style="stroke-width:0.35;stroke-miterlimit:4;stroke-dasharray:none;fill:none;fill-opacity:1;fill-rule: evenodd"/>
<path id="Shape2DView_nwe0028"  d="M -17.236 2.304 Q -17.514000912830657 2.3039999999999994 -17.54 2.304 " stroke="#191919" stroke-width="0.35 px" style="stroke-width:0.35;stroke-miterlimit:4;stroke-dasharray:none;fill:none;fill-opacity:1;fill-rule: evenodd"/>
<path id="Shape2DView_nwe0029"  d="M -17.54 1.6640000000000001 L -17.54 1.6677624393548671 L -17.54 1.6790174378991505 L -17.54 1.6976683146980058 L -17.54 1.7235548578955635 L -17.54 1.756454700941851 L -17.54 1.796085232731283 L -17.54 1.8421060252445476 L -17.54 1.8941217578403335 L -17.54 1.9516856130771099 L -17.54 2.014303114894693 L -17.54 2.0814363761854517 L -17.54 2.1525087192683343 L -17.54 2.2269096295756294 L -17.54 2.3040000000000775 " stroke="#191919" stroke-width="0.35 px" style="stroke-width:0.35;stroke-miterlimit:4;stroke-dasharray:none;fill:none;fill-opacity:1;fill-rule: evenodd"/>
<path id="Shape2DView_nwe0030"  d="M -17.236 2.776 Q -17.514000912830674 2.776 -17.539999999999996 2.776 " stroke="#191919" stroke-width="0.35 px" style="stroke-width:0.35;stroke-miterlimit:4;stroke-dasharray:none;fill:none;fill-opacity:1;fill-rule: evenodd"/>
<path id="Shape2DView_nwe0031"  d="M -17.54 2.775999999999922 L -17.54 2.8530903704243737 L -17.54 2.9274912807316684 L -17.54 2.998563623814551 L -17.54 3.06569688510531 L -17.54 3.1283143869228924 L -17.54 3.1858782421596685 L -17.54 3.2378939747554543 L -17.54 3.283914767268718 L -17.54 3.32354529905815 L -17.54 3.3564451421044375 L -17.54 3.382331685301995 L -17.54 3.40098256210085 L -17.54 3.412237560645133 L -17.54 3.416 " stroke="#191919" stroke-width="0.35 px" style="stroke-width:0.35;stroke-miterlimit:4;stroke-dasharray:none;fill:none;fill-opacity:1;fill-rule: evenodd"/>
<path id="Shape2DView_nwe0032"  d="M -17.54 3.416 L -17.54 3.412237560645133 L -17.54 3.4009825621008494 L -17.54 3.3823316853019945 L -17.54 3.356445142104437 L -17.54 3.3235452990581495 L -17.54 3.2839147672687177 L -17.54 3.237893974755454 L -17.54 3.185878242159668 L -17.54 3.128314386922892 L -17.54 3.06569688510531 L -17.54 2.9985636238145514 L -17.54 2.927491280731669 L -17.54 2.853090370424374 L -17.54 2.7759999999999225 " stroke="#191919" stroke-width="0.35 px" style="stroke-width:0.35;stroke-miterlimit:4;stroke-dasharray:none;fill:none;fill-opacity:1;fill-rule: evenodd"/>
<path id="Shape2DView_nwe0033"  d="M -7.875 5.13 L -7.365 5.13 " stroke="#191919" stroke-width="0.35 px" style="stroke-width:0.35;stroke-miterlimit:4;stroke-dasharray:none;fill:none;fill-opacity:1;fill-rule: evenodd"/>
<path id="Shape2DView_nwe0034"  d="M -7.875 5.13 L -7.873717290818222 5.13 L -7.869885294085092 5.13 L -7.863552199382907 5.13 L -7.854797649052093 5.13 L -7.84373173664257 5.13 L -7.830493622423479 5.13 L -7.815249783362056 5.13 L -7.798191919579182 5.13 L -7.779534543609129 5.13 L -7.7595122827799825 5.13 L -7.738376928638854 5.13 L -7.716394270527088 5.13 L -7.693840753125075 5.13 L -7.671 5.13 " stroke="#191919" stroke-width="0.35 px" style="stroke-width:0.35;stroke-miterlimit:4;stroke-dasharray:none;fill:none;fill-opacity:1;fill-rule: evenodd"/>
<path id="Shape2DView_nwe0035"  d="M -7.569 5.13 L -7.546159246874925 5.13 L -7.523605729472912 5.13 L -7.501623071361146 5.13 L -7.480487717220018 5.13 L -7.460465456390871 5.13 L -7.441808080420818 5.13 L -7.424750216637944 5.13 L -7.4095063775765215 5.13 L -7.39626826335743 5.13 L -7.385202350947907 5.13 L -7.376447800617093 5.13 L -7.370114705914908 5.13 L -7.366282709181778 5.13 L -7.365 5.13 " stroke="#191919" stroke-width="0.35 px" style="stroke-width:0.35;stroke-miterlimit:4;stroke-dasharray:none;fill:none;fill-opacity:1;fill-rule: evenodd"/>
<path id="Shape2DView_nwe0036"  d="M -15.91416666666 0.230833333333 L 2.9241666666670003 0.230833333333 " stroke="#191919" stroke-width="0.35 px" style="stroke-width:0.35;stroke-miterlimit:4;stroke-dasharray:none;fill:none;fill-opacity:1;fill-rule: evenodd"/>
<path id="Shape2DView_nwe0037"  d="M 2.924166666667 0.230833333333 L 2.924166666667 4.849166666667 " stroke="#191919" stroke-width="0.35 px" style="stroke-width:0.35;stroke-miterlimit:4;stroke-dasharray:none;fill:none;fill-opacity:1;fill-rule: evenodd"/>
<path id="Shape2DView_nwe0038"  d="M 2.924166666667 4.849166666667 L -15.91416666666 4.849166666667 " stroke="#191919" stroke-width="0.35 px" style="stroke-width:0.35;stroke-miterlimit:4;stroke-dasharray:none;fill:none;fill-opacity:1;fill-rule: evenodd"/>
<path id="Shape2DView_nwe0039"  d="M -15.91416666666 4.849166666667 L -15.91416666666 0.23083333333299993 " stroke="#191919" stroke-width="0.35 px" style="stroke-width:0.35;stroke-miterlimit:4;stroke-dasharray:none;fill:none;fill-opacity:1;fill-rule: evenodd"/>
<path id="Shape2DView_nwe0040"  d="M -15.91416666666 0.23083333333300002 L -15.91416666666 0.21898375961210392 L -15.91416666666 0.2072832011560309 L -15.91416666666 0.19587879927618826 L -15.91416666666 0.18491397094320305 L -15.91416666666 0.17452660523530422 L -15.91416666666 0.16484732930315854 L -15.91416666666 0.15599786565765944 L -15.91416666666 0.14808950143872746 L -15.91416666666 0.1412216889149555 L -15.91416666666 0.13548079481362763 L -15.91416666666 0.13093901420901238 L -15.91416666666 0.1276534626274153 L -15.91416666666 0.1256654577862964 L -15.91416666666 0.12499999999999999 " stroke="#191919" stroke-width="0.35 px" style="stroke-width:0.35;stroke-miterlimit:4;stroke-dasharray:none;fill:none;fill-opacity:1;fill-rule: evenodd"/>
<path id="Shape2DView_nwe0041"  d="M 2.924166666667 0.230833333333 L 2.924166666667 0.2189837596121039 L 2.924166666667 0.20728320115603088 L 2.924166666667 0.19587879927618823 L 2.924166666667 0.18491397094320305 L 2.924166666667 0.17452660523530422 L 2.924166666667 0.16484732930315854 L 2.924166666667 0.1559978656576594 L 2.924166666667 0.14808950143872746 L 2.924166666667 0.1412216889149555 L 2.924166666667 0.13548079481362763 L 2.924166666667 0.13093901420901238 L 2.924166666667 0.12765346262741528 L 2.924166666667 0.1256654577862964 L 2.924166666667 0.12499999999999999 " stroke="#191919" stroke-width="0.35 px" style="stroke-width:0.35;stroke-miterlimit:4;stroke-dasharray:none;fill:none;fill-opacity:1;fill-rule: evenodd"/>
<path id="Shape2DView_nwe0042"  d="M -15.91416666666 4.849166666667 L -15.926016240380896 4.849166666667 L -15.937716798836968 4.849166666667 L -15.949121200716812 4.849166666667 L -15.960086029049798 4.849166666667 L -15.970473394757695 4.849166666667 L -15.980152670689842 4.849166666667 L -15.98900213433534 4.849166666667 L -15.996910498554273 4.849166666667 L -16.003778311078044 4.849166666667 L -16.009519205179373 4.849166666667 L -16.01406098578399 4.849166666667 L -16.017346537365583 4.849166666667 L -16.019334542206703 4.849166666667 L -16.019999999993 4.849166666667 " stroke="#191919" stroke-width="0.35 px" style="stroke-width:0.35;stroke-miterlimit:4;stroke-dasharray:none;fill:none;fill-opacity:1;fill-rule: evenodd"/>
<path id="Shape2DView_nwe0043"  d="M -15.91416666666 0.230833333333 L -15.926016240380896 0.230833333333 L -15.937716798836968 0.230833333333 L -15.949121200716812 0.230833333333 L -15.960086029049798 0.230833333333 L -15.970473394757695 0.230833333333 L -15.980152670689842 0.230833333333 L -15.98900213433534 0.230833333333 L -15.996910498554273 0.230833333333 L -16.003778311078044 0.230833333333 L -16.009519205179373 0.230833333333 L -16.01406098578399 0.230833333333 L -16.017346537365583 0.230833333333 L -16.019334542206703 0.230833333333 L -16.019999999993 0.230833333333 " stroke="#191919" stroke-width="0.35 px" style="stroke-width:0.35;stroke-miterlimit:4;stroke-dasharray:none;fill:none;fill-opacity:1;fill-rule: evenodd"/>
<path id="Shape2DView_nwe0044"  d="M 2.924166666667 0.230833333333 L 2.9360162403878958 0.230833333333 L 2.947716798843969 0.230833333333 L 2.9591212007238115 0.230833333333 L 2.9700860290567968 0.230833333333 L 2.9804733947646955 0.230833333333 L 2.9901526706968413 0.230833333333 L 2.9990021343423403 0.230833333333 L 3.0069104985612722 0.230833333333 L 3.0137783110850442 0.230833333333 L 3.019519205186372 0.230833333333 L 3.0240609857909875 0.230833333333 L 3.0273465373725847 0.230833333333 L 3.0293345422137037 0.230833333333 L 3.03 0.230833333333 " stroke="#191919" stroke-width="0.35 px" style="stroke-width:0.35;stroke-miterlimit:4;stroke-dasharray:none;fill:none;fill-opacity:1;fill-rule: evenodd"/>
<path id="Shape2DView_nwe0045"  d="M 2.924166666667 4.849166666667 L 2.9360162403878958 4.849166666667 L 2.947716798843969 4.849166666667 L 2.9591212007238115 4.849166666667 L 2.9700860290567968 4.849166666667 L 2.9804733947646955 4.849166666667 L 2.9901526706968413 4.849166666667 L 2.9990021343423403 4.849166666667 L 3.0069104985612722 4.849166666667 L 3.0137783110850442 4.849166666667 L 3.019519205186372 4.849166666667 L 3.0240609857909875 4.849166666667 L 3.0273465373725847 4.849166666667 L 3.0293345422137037 4.849166666667 L 3.03 4.849166666667 " stroke="#191919" stroke-width="0.35 px" style="stroke-width:0.35;stroke-miterlimit:4;stroke-dasharray:none;fill:none;fill-opacity:1;fill-rule: evenodd"/>
<path id="Shape2DView_nwe0046"  d="M 2.924166666667 4.849166666667 L 2.924166666667 4.8610162403878965 L 2.924166666667 4.872716798843969 L 2.924166666667 4.884121200723812 L 2.924166666667 4.895086029056797 L 2.924166666667 4.905473394764696 L 2.924166666667 4.915152670696841 L 2.924166666667 4.924002134342341 L 2.924166666667 4.9319104985612725 L 2.924166666667 4.938778311085045 L 2.924166666667 4.9445192051863724 L 2.924166666667 4.949060985790988 L 2.924166666667 4.952346537372585 L 2.924166666667 4.9543345422137035 L 2.924166666667 4.955 " stroke="#191919" stroke-width="0.35 px" style="stroke-width:0.35;stroke-miterlimit:4;stroke-dasharray:none;fill:none;fill-opacity:1;fill-rule: evenodd"/>
<path id="Shape2DView_nwe0047"  d="M -15.91416666666 4.849166666667 L -15.91416666666 4.8610162403878965 L -15.91416666666 4.872716798843969 L -15.91416666666 4.884121200723812 L -15.91416666666 4.895086029056797 L -15.91416666666 4.905473394764696 L -15.91416666666 4.915152670696842 L -15.91416666666 4.924002134342341 L -15.91416666666 4.9319104985612725 L -15.91416666666 4.938778311085045 L -15.91416666666 4.9445192051863724 L -15.91416666666 4.949060985790988 L -15.91416666666 4.952346537372585 L -15.91416666666 4.9543345422137035 L -15.91416666666 4.955 " stroke="#191919" stroke-width="0.35 px" style="stroke-width:0.35;stroke-miterlimit:4;stroke-dasharray:none;fill:none;fill-opacity:1;fill-rule: evenodd"/>
<path id="Shape2DView_nwe0048"  d="M -12.955 0.01666666666667 L -12.445 0.01666666666667 " stroke="#191919" stroke-width="0.35 px" style="stroke-width:0.35;stroke-miterlimit:4;stroke-dasharray:none;fill:none;fill-opacity:1;fill-rule: evenodd"/>
<path id="Shape2DView_nwe0049"  d="M -0.255 0.01666666666667 L 0.255 0.01666666666667 " stroke="#191919" stroke-width="0.35 px" style="stroke-width:0.35;stroke-miterlimit:4;stroke-dasharray:none;fill:none;fill-opacity:1;fill-rule: evenodd"/>
<path id="Shape2DView_nwe0050"  d="M -17.236 1.36 L -17.236 1.3656407212178239 L -17.236 1.3825089565054351 L -17.236 1.4104434363497935 L -17.236 1.4491770919150224 L -17.236 1.498339608365884 L -17.236 1.557460965279215 L -17.236 1.6259759302950707 L -17.236 1.7032294630458182 L -17.236 1.7884829776986795 L -17.236 1.8809214042384066 L -17.236 1.979660980980381 L -17.236 2.0837577038134714 L -17.236 2.192216351393287 L -17.236 2.3040000000000664 " stroke="#191919" stroke-width="0.35 px" style="stroke-width:0.35;stroke-miterlimit:4;stroke-dasharray:none;fill:none;fill-opacity:1;fill-rule: evenodd"/>
<path id="Shape2DView_nwe0051"  d="M -17.236 2.775999999999933 L -17.236 2.8877836486067117 L -17.236 2.9962422961865274 L -17.236 3.100339019019618 L -17.236 3.199078595761592 L -17.236 3.2915170223013197 L -17.236 3.3767705369541807 L -17.236 3.4540240697049285 L -17.236 3.5225390347207846 L -17.236 3.5816603916341156 L -17.236 3.630822908084977 L -17.236 3.669556563650206 L -17.236 3.6974910434945647 L -17.236 3.714359278782176 L -17.236 3.7199999999999998 " stroke="#191919" stroke-width="0.35 px" style="stroke-width:0.35;stroke-miterlimit:4;stroke-dasharray:none;fill:none;fill-opacity:1;fill-rule: evenodd"/>
<path id="Shape2DView_nwe0052"  d="M -7.875 5.063333333333 L -7.365 5.063333333333 " stroke="#191919" stroke-width="0.35 px" style="stroke-width:0.35;stroke-miterlimit:4;stroke-dasharray:none;fill:none;fill-opacity:1;fill-rule: evenodd"/>
<path id="Shape2DView_nwe0053"  d="M -16.02 2.54 L -16.75 2.54 " stroke="#191919" stroke-width="0.35 px" style="stroke-width:0.35;stroke-miterlimit:4;stroke-dasharray:none;fill:none;fill-opacity:1;fill-rule: evenodd"/>
<path id="Shape2DView_nwe0054"  d="M -17.236 1.36 L -16.02 1.36 " stroke="#191919" stroke-width="0.35 px" style="stroke-width:0.35;stroke-miterlimit:4;stroke-dasharray:none;fill:none;fill-opacity:1;fill-rule: evenodd"/>
<path id="Shape2DView_nwe0055"  d="M -17.236 3.7199999999999998 L -16.02 3.7199999999999998 " stroke="#191919" stroke-width="0.35 px" style="stroke-width:0.35;stroke-miterlimit:4;stroke-dasharray:none;fill:none;fill-opacity:1;fill-rule: evenodd"/>
<path id="Shape2DView_nwe0056"  d="M -17.236 1.36 Q -17.51042739797015 1.3844944682259765 -17.54 1.6640000000000001 " stroke="#191919" stroke-width="0.35 px" style="stroke-width:0.35;stroke-miterlimit:4;stroke-dasharray:none;fill:none;fill-opacity:1;fill-rule: evenodd"/>
<path id="Shape2DView_nwe0057"  d="M -17.236 3.7199999999999998 Q -17.51042739797015 3.6955055317740246 -17.54 3.416 " stroke="#191919" stroke-width="0.35 px" style="stroke-width:0.35;stroke-miterlimit:4;stroke-dasharray:none;fill:none;fill-opacity:1;fill-rule: evenodd"/>
<title>b'Shape2DView'</title>
</g>
<g id="Rectangle" transform="translate(17.745700,5.335700) scale(1,-1)">
<rect fill="#ff0000" id="origin" width="1" height="1" x="0" y="0" />
<title>b'Rectangle'</title>
</g>
</svg>