<?xml version="1.0"?>
<!DOCTYPE svg PUBLIC "-//W3C//DTD SVG 1.1//EN" "http://www.w3.org/Graphics/SVG/1.1/DTD/svg11.dtd">
<svg width="9.58444616606862mm" height="9.579221069777446mm" viewBox="0 0 9.58444616606862 9.579221069777446" xmlns="http://www.w3.org/2000/svg" version="1.1">
<g id="Shape2DView" transform="translate(2.253965,4.786127) scale(1,-1)">
<path id="Shape2DView_nwe0000"  d="M -1.794564568675 3.726452736852 L -1.1864527368550002 4.334564568672 " stroke="#191919" stroke-width="0.35 px" style="stroke-width:0.35;stroke-miterlimit:4;stroke-dasharray:none;fill:none;fill-opacity:1;fill-rule: evenodd"/>
<path id="Shape2DView_nwe0001"  d="M -1.0735196186893394 3.0054077868646596 L -1.7945645686763498 3.7264527368506504 " stroke="#191919" stroke-width="0.35 px" style="stroke-width:0.35;stroke-miterlimit:4;stroke-dasharray:none;fill:none;fill-opacity:1;fill-rule: evenodd"/>
<path id="Shape2DView_nwe0002"  d="M -0.4654077868698403 3.6135196186851597 L -1.1864527368563498 4.33456456867065 " stroke="#191919" stroke-width="0.35 px" style="stroke-width:0.35;stroke-miterlimit:4;stroke-dasharray:none;fill:none;fill-opacity:1;fill-rule: evenodd"/>
<path id="Shape2DView_nwe0003"  d="M -1.0735196186881741 3.005407786866149 A 4.7 4.7 0 0 1 -2.16 4.8149e-15" stroke="#191919" stroke-width="0.35 px" style="stroke-width:0.35;stroke-miterlimit:4;stroke-dasharray:none;fill:none;fill-opacity:1;fill-rule: evenodd"/>
<path id="Shape2DView_nwe0004"  d="M -2.16 3.66373598126244e-15 A 4.7 4.7 0 1 1 -0.465408 3.61352" stroke="#191919" stroke-width="0.35 px" style="stroke-width:0.35;stroke-miterlimit:4;stroke-dasharray:none;fill:none;fill-opacity:1;fill-rule: evenodd"/>
<circle cx="2.54" cy="6.287136482825e-15" r="4.25" stroke="#191919" stroke-width="0.35 px" style="stroke-width:0.35;stroke-miterlimit:4;stroke-dasharray:none;fill:none"/>
<path id="Shape2DView_nwe0006"  d="M -0.4654077868689033 3.613519618685884 A 4.7 4.7 0 0 1 -1.07352 3.00541" stroke="#191919" stroke-width="0.35 px" style="stroke-width:0.35;stroke-miterlimit:4;stroke-dasharray:none;fill:none;fill-opacity:1;fill-rule: evenodd"/>
<circle cx="2.54" cy="2.443792807296e-15" r="4.365032960628" stroke="#191919" stroke-width="0.35 px" style="stroke-width:0.35;stroke-miterlimit:4;stroke-dasharray:none;fill:none"/>
<circle cx="2.54" cy="6.287136482825e-15" r="4.25" stroke="#191919" stroke-width="0.35 px" style="stroke-width:0.35;stroke-miterlimit:4;stroke-dasharray:none;fill:none"/>
<circle cx="2.54" cy="6.394884621841e-15" r="4.007372760637" stroke="#191919" stroke-width="0.35 px" style="stroke-width:0.35;stroke-miterlimit:4;stroke-dasharray:none;fill:none"/>
<path id="Shape2DView_nwe0010"  d="M -2.16 3.663735981263e-15 L -1.8250329606279962 3.665689210944052e-15 " stroke="#191919" stroke-width="0.35 px" style="stroke-width:0.35;stroke-miterlimit:4;stroke-dasharray:none;fill:none;fill-opacity:1;fill-rule: evenodd"/>
<path id="Shape2DView_nwe0011"  d="M -1.8250329606279965 3.665689210944129e-15 L -1.8121185371216009 3.6662452095134346e-15 L -1.7993773494502143 3.667755606334006e-15 L -1.7869678464899685 3.6702016181742564e-15 L -1.7750443522998225 3.673552826533408e-15 L -1.76375514695403 3.6777675559246935e-15 L -1.7532406225373478 3.682793392149966e-15 L -1.743631537234951 3.688567834120467e-15 L -1.7350473892291196 3.695019071117753e-15 L -1.72759493062485 3.702066875828779e-15 L -1.7213668398851492 3.709623602049403e-15 L -1.7164405692855507 3.717595274648909e-15 L -1.712877381720862 3.725882758240796e-15 L -1.7107215888423692 3.734382990026291e-15 L -1.71 3.742990261479e-15 " stroke="#191919" stroke-width="0.35 px" style="stroke-width:0.35;stroke-miterlimit:4;stroke-dasharray:none;fill:none;fill-opacity:1;fill-rule: evenodd"/>
<path id="Shape2DView_nwe0012"  d="M -1.467372760637 9.592326932761561e-15 L -1.4945383923804871 9.591310686237773e-15 L -1.5213624005429351 9.588274726556087e-15 L -1.5475074576580508 9.583257232671003e-15 L -1.5726447744628977 9.576321302479344e-15 L -1.596458234613646 9.567554159327591e-15 L -1.6186483700320098 9.557066055127693e-15 L -1.6389361268900882 9.544988883875299e-15 L -1.6570663748741616 9.531474523006247e-15 L -1.6728111155964165 9.51669292344968e-15 L -1.6859723498069603 9.500829972396504e-15 L -1.6963845673492703 9.48408515566011e-15 L -1.7039168285464434 9.466669049026525e-15 L -1.7084744108436056 9.448800670141727e-15 L -1.7099999999989999 9.430704724237666e-15 " stroke="#191919" stroke-width="0.35 px" style="stroke-width:0.35;stroke-miterlimit:4;stroke-dasharray:none;fill:none;fill-opacity:1;fill-rule: evenodd"/>
<title>b'Shape2DView'</title>
</g>
<g id="Rectangle" transform="translate(2.253965,4.786127) scale(1,-1)">
<rect fill="#ff0000" id="origin" width="1" height="1" x="0" y="0" />
<title>b'Rectangle'</title>
</g>
</svg>