<?xml version="1.0"?>
<!DOCTYPE svg PUBLIC "-//W3C//DTD SVG 1.1//EN" "http://www.w3.org/Graphics/SVG/1.1/DTD/svg11.dtd">
<svg width="6.2689724424868825mm" height="6.264578049523549mm" viewBox="0 0 6.2689724424868825 6.264578049523549" xmlns="http://www.w3.org/2000/svg" version="1.1">
<g id="Shape2DView" transform="translate(2.019403,3.289403) scale(1,-1)">
<path id="Shape2DView_nwe0000"  d="M -1.9579424561175 2.6269016921065 L -1.356901692108925 3.227942456115925 " stroke="#191919" stroke-width="0.35 px" style="stroke-width:0.35;stroke-miterlimit:4;stroke-dasharray:none;fill:none;fill-opacity:1;fill-rule: evenodd"/>
<path id="Shape2DView_nwe0001"  d="M -1.0732850527394442 1.7422442887285552 L -1.9579424561185705 2.6269016921064305 " stroke="#191919" stroke-width="0.35 px" style="stroke-width:0.35;stroke-miterlimit:4;stroke-dasharray:none;fill:none;fill-opacity:1;fill-rule: evenodd"/>
<path id="Shape2DView_nwe0002"  d="M -0.47224428873194424 2.3432850527370555 L -1.35690169211057 3.22794245611443 " stroke="#191919" stroke-width="0.35 px" style="stroke-width:0.35;stroke-miterlimit:4;stroke-dasharray:none;fill:none;fill-opacity:1;fill-rule: evenodd"/>
<path id="Shape2DView_nwe0003"  d="M -1.0732850527391609 1.7422442887291192 A 2.92 2.92 0 0 1 -1.65 2.54706e-15" stroke="#191919" stroke-width="0.35 px" style="stroke-width:0.35;stroke-miterlimit:4;stroke-dasharray:none;fill:none;fill-opacity:1;fill-rule: evenodd"/>
<path id="Shape2DView_nwe0004"  d="M -1.65 1.831867990632e-15 A 2.92 2.92 0 1 1 -0.472244 2.34329" stroke="#191919" stroke-width="0.35 px" style="stroke-width:0.35;stroke-miterlimit:4;stroke-dasharray:none;fill:none;fill-opacity:1;fill-rule: evenodd"/>
<circle cx="1.27" cy="3.374744841367e-15" r="2.475" stroke="#191919" stroke-width="0.35 px" style="stroke-width:0.35;stroke-miterlimit:4;stroke-dasharray:none;fill:none"/>
<path id="Shape2DView_nwe0006"  d="M -0.47224428873088553 2.343285052737848 A 2.92 2.92 0 0 1 -1.07329 1.74224" stroke="#191919" stroke-width="0.35 px" style="stroke-width:0.35;stroke-miterlimit:4;stroke-dasharray:none;fill:none;fill-opacity:1;fill-rule: evenodd"/>
<circle cx="1.27" cy="1.832794432884e-15" r="2.581932044094" stroke="#191919" stroke-width="0.35 px" style="stroke-width:0.35;stroke-miterlimit:4;stroke-dasharray:none;fill:none"/>
<circle cx="1.27" cy="3.374744841367e-15" r="2.475" stroke="#191919" stroke-width="0.35 px" style="stroke-width:0.35;stroke-miterlimit:4;stroke-dasharray:none;fill:none"/>
<circle cx="1.27" cy="3.440581153313e-15" r="2.277333073367" stroke="#191919" stroke-width="0.35 px" style="stroke-width:0.35;stroke-miterlimit:4;stroke-dasharray:none;fill:none"/>
<path id="Shape2DView_nwe0010"  d="M -1.65 1.831867990632e-15 L -1.311932044094001 1.8327944328842825e-15 " stroke="#191919" stroke-width="0.35 px" style="stroke-width:0.35;stroke-miterlimit:4;stroke-dasharray:none;fill:none;fill-opacity:1;fill-rule: evenodd"/>
<path id="Shape2DView_nwe0011"  d="M -1.3119320440939946 1.832794432883601e-15 L -1.2999290255190497 1.833050777495043e-15 L -1.288086415532216 1.8337508048395095e-15 L -1.2765515874045594 1.8348858035501897e-15 L -1.2654680842700876 1.836441649335831e-15 L -1.2549738328285402 1.838398980747989e-15 L -1.2451994269409026 1.8407334401211588e-15 L -1.2362665024771375 1.8434159766874455e-15 L -1.2282862236400571 1.8464132080937225e-15 L -1.2213578996020096 1.849687835822436e-15 L -1.2155677486694003 1.8531991093464256e-15 L -1.2109878253541866 1.8569033332416764e-15 L -1.2076751237042125 1.860754410947311e-15 L -1.2056708680508343 1.8647044184061118e-15 L -1.205 1.868704200447e-15 " stroke="#191919" stroke-width="0.35 px" style="stroke-width:0.35;stroke-miterlimit:4;stroke-dasharray:none;fill:none;fill-opacity:1;fill-rule: evenodd"/>
<path id="Shape2DView_nwe0012"  d="M -1.007333073367 3.440581153313445e-15 L -1.0294647472504148 3.440167188402523e-15 L -1.0513181024936495 3.438930499518699e-15 L -1.0726183204749082 3.4368866387422314e-15 L -1.0930975385944022 3.4340613088082593e-15 L -1.1124982188019596 3.4304900398799975e-15 L -1.130576386287434 3.426217742736317e-15 L -1.1471046976054982 3.4212981439926445e-15 L -1.1618752996513777 3.415793110457599e-15 L -1.174702443534243 3.409771871121979e-15 L -1.1854248204772846 3.4033101465640335e-15 L -1.1939075903691758 3.39648919671926e-15 L -1.2000440774567085 3.3893947989895622e-15 L -1.203757111854284 3.3821161695426576e-15 L -1.205 3.374744841367e-15 " stroke="#191919" stroke-width="0.35 px" style="stroke-width:0.35;stroke-miterlimit:4;stroke-dasharray:none;fill:none;fill-opacity:1;fill-rule: evenodd"/>
<title>b'Shape2DView'</title>
</g>
<g id="Rectangle" transform="translate(2.019403,3.289403) scale(1,-1)">
<rect fill="#ff0000" id="origin" width="1" height="1" x="0" y="0" />
<title>b'Rectangle'</title>
</g>
</svg>