<?xml version="1.0"?>
<!DOCTYPE svg PUBLIC "-//W3C//DTD SVG 1.1//EN" "http://www.w3.org/Graphics/SVG/1.1/DTD/svg11.dtd">
<svg width="20.400000000000002mm" height="10.280000000000001mm" viewBox="0 0 20.400000000000002 10.280000000000001" xmlns="http://www.w3.org/2000/svg" version="1.1">
<g id="Shape2DView" transform="translate(1.690000,4.750000) scale(1,-1)">
<path id="Shape2DView_nwe0000"  d="M -1.49 2.95 L 0.5100000000000005 2.95 " stroke="#191919" stroke-width="0.35 px" style="stroke-width:0.35;stroke-miterlimit:4;stroke-dasharray:none;fill:none;fill-opacity:1;fill-rule: evenodd"/>
<path id="Shape2DView_nwe0001"  d="M -1.49 2.95 L -1.49 4.55 " stroke="#191919" stroke-width="0.35 px" style="stroke-width:0.35;stroke-miterlimit:4;stroke-dasharray:none;fill:none;fill-opacity:1;fill-rule: evenodd"/>
<path id="Shape2DView_nwe0002"  d="M 0.5100000000000002 4.55 L -1.4900000000000002 4.55 " stroke="#191919" stroke-width="0.35 px" style="stroke-width:0.35;stroke-miterlimit:4;stroke-dasharray:none;fill:none;fill-opacity:1;fill-rule: evenodd"/>
<path id="Shape2DView_nwe0003"  d="M 0.51 2.95 L 0.51 4.55 " stroke="#191919" stroke-width="0.35 px" style="stroke-width:0.35;stroke-miterlimit:4;stroke-dasharray:none;fill:none;fill-opacity:1;fill-rule: evenodd"/>
<path id="Shape2DView_nwe0004"  d="M 18.51 2.95 L 16.51 2.95 " stroke="#191919" stroke-width="0.35 px" style="stroke-width:0.35;stroke-miterlimit:4;stroke-dasharray:none;fill:none;fill-opacity:1;fill-rule: evenodd"/>
<path id="Shape2DView_nwe0005"  d="M 16.51 2.95 L 0.5100000000000016 2.95 " stroke="#191919" stroke-width="0.35 px" style="stroke-width:0.35;stroke-miterlimit:4;stroke-dasharray:none;fill:none;fill-opacity:1;fill-rule: evenodd"/>
<path id="Shape2DView_nwe0006"  d="M 0.51 4.55 L 16.51 4.55 " stroke="#191919" stroke-width="0.35 px" style="stroke-width:0.35;stroke-miterlimit:4;stroke-dasharray:none;fill:none;fill-opacity:1;fill-rule: evenodd"/>
<path id="Shape2DView_nwe0007"  d="M 16.51 2.95 L 16.51 4.55 " stroke="#191919" stroke-width="0.35 px" style="stroke-width:0.35;stroke-miterlimit:4;stroke-dasharray:none;fill:none;fill-opacity:1;fill-rule: evenodd"/>
<path id="Shape2DView_nwe0008"  d="M 16.51 4.55 L 18.51 4.55 " stroke="#191919" stroke-width="0.35 px" style="stroke-width:0.35;stroke-miterlimit:4;stroke-dasharray:none;fill:none;fill-opacity:1;fill-rule: evenodd"/>
<path id="Shape2DView_nwe0009"  d="M 18.51 2.95 L 18.51 0.5499999999999998 " stroke="#191919" stroke-width="0.35 px" style="stroke-width:0.35;stroke-miterlimit:4;stroke-dasharray:none;fill:none;fill-opacity:1;fill-rule: evenodd"/>
<path id="Shape2DView_nwe0010"  d="M -1.49 0.55 L -1.49 2.95 " stroke="#191919" stroke-width="0.35 px" style="stroke-width:0.35;stroke-miterlimit:4;stroke-dasharray:none;fill:none;fill-opacity:1;fill-rule: evenodd"/>
<path id="Shape2DView_nwe0011"  d="M 18.51 0.55 L -1.4899999999999984 0.55 " stroke="#191919" stroke-width="0.35 px" style="stroke-width:0.35;stroke-miterlimit:4;stroke-dasharray:none;fill:none;fill-opacity:1;fill-rule: evenodd"/>
<path id="Shape2DView_nwe0012"  d="M 18.51 2.95 L 18.51 4.55 " stroke="#191919" stroke-width="0.35 px" style="stroke-width:0.35;stroke-miterlimit:4;stroke-dasharray:none;fill:none;fill-opacity:1;fill-rule: evenodd"/>
<path id="Shape2DView_nwe0013"  d="M 18.51 0.5500000000000007 L 17.51 -0.4499999999999993 " stroke="#191919" stroke-width="0.35 px" style="stroke-width:0.35;stroke-miterlimit:4;stroke-dasharray:none;fill:none;fill-opacity:1;fill-rule: evenodd"/>
<path id="Shape2DView_nwe0014"  d="M 17.51 -0.45 L -0.48999999999999844 -0.45 " stroke="#191919" stroke-width="0.35 px" style="stroke-width:0.35;stroke-miterlimit:4;stroke-dasharray:none;fill:none;fill-opacity:1;fill-rule: evenodd"/>
<path id="Shape2DView_nwe0015"  d="M -0.4900000000000002 -0.4500000000000002 L -1.4899999999999993 0.5499999999999989 " stroke="#191919" stroke-width="0.35 px" style="stroke-width:0.35;stroke-miterlimit:4;stroke-dasharray:none;fill:none;fill-opacity:1;fill-rule: evenodd"/>
<path id="Shape2DView_nwe0016"  d="M 1.24 -0.4500000000000002 L 1.24 -4.967724324724303 " stroke="#191919" stroke-width="0.35 px" style="stroke-width:0.35;stroke-miterlimit:4;stroke-dasharray:none;fill:none;fill-opacity:1;fill-rule: evenodd"/>
<path id="Shape2DView_nwe0017"  d="M 1.24 -4.9677243247240614 L 1.24 -5.011424531659162 L 1.24 -5.053581326149898 L 1.24 -5.093836072455905 L 1.24 -5.131846315916698 L 1.24 -5.16728869627755 L 1.24 -5.1998616985757025 L 1.24 -5.229288218184578 L 1.24 -5.255317918194701 L 1.24 -5.277729359076635 L 1.24 -5.296331882508505 L 1.24 -5.310967233342018 L 1.24 -5.321510905908634 L 1.24 -5.327873203212584 L 1.24 -5.33 " stroke="#191919" stroke-width="0.35 px" style="stroke-width:0.35;stroke-miterlimit:4;stroke-dasharray:none;fill:none;fill-opacity:1;fill-rule: evenodd"/>
<path id="Shape2DView_nwe0018"  d="M 2.17 -0.4500000000000002 L 2.17 -4.967724324724303 " stroke="#191919" stroke-width="0.35 px" style="stroke-width:0.35;stroke-miterlimit:4;stroke-dasharray:none;fill:none;fill-opacity:1;fill-rule: evenodd"/>
<path id="Shape2DView_nwe0019"  d="M 2.17 -4.9677243247240614 L 2.17 -5.011424531659162 L 2.17 -5.053581326149898 L 2.17 -5.093836072455905 L 2.17 -5.131846315916698 L 2.17 -5.16728869627755 L 2.17 -5.1998616985757025 L 2.17 -5.229288218184578 L 2.17 -5.255317918194701 L 2.17 -5.277729359076635 L 2.17 -5.296331882508505 L 2.17 -5.310967233342018 L 2.17 -5.321510905908634 L 2.17 -5.327873203212584 L 2.17 -5.33 " stroke="#191919" stroke-width="0.35 px" style="stroke-width:0.35;stroke-miterlimit:4;stroke-dasharray:none;fill:none;fill-opacity:1;fill-rule: evenodd"/>
<path id="Shape2DView_nwe0020"  d="M 4.64 -0.4500000000000002 L 4.64 -4.967724324724303 " stroke="#191919" stroke-width="0.35 px" style="stroke-width:0.35;stroke-miterlimit:4;stroke-dasharray:none;fill:none;fill-opacity:1;fill-rule: evenodd"/>
<path id="Shape2DView_nwe0021"  d="M 4.64 -4.9677243247240614 L 4.64 -5.011424531659162 L 4.64 -5.053581326149898 L 4.64 -5.093836072455905 L 4.64 -5.131846315916698 L 4.64 -5.16728869627755 L 4.64 -5.1998616985757025 L 4.64 -5.229288218184578 L 4.64 -5.255317918194701 L 4.64 -5.277729359076635 L 4.64 -5.296331882508505 L 4.64 -5.310967233342018 L 4.64 -5.321510905908634 L 4.64 -5.327873203212584 L 4.64 -5.33 " stroke="#191919" stroke-width="0.35 px" style="stroke-width:0.35;stroke-miterlimit:4;stroke-dasharray:none;fill:none;fill-opacity:1;fill-rule: evenodd"/>
<path id="Shape2DView_nwe0022"  d="M 5.57 -0.4500000000000002 L 5.57 -4.967724324724303 " stroke="#191919" stroke-width="0.35 px" style="stroke-width:0.35;stroke-miterlimit:4;stroke-dasharray:none;fill:none;fill-opacity:1;fill-rule: evenodd"/>
<path id="Shape2DView_nwe0023"  d="M 5.57 -4.9677243247240614 L 5.57 -5.011424531659162 L 5.57 -5.053581326149898 L 5.57 -5.093836072455905 L 5.57 -5.131846315916698 L 5.57 -5.16728869627755 L 5.57 -5.1998616985757025 L 5.57 -5.229288218184578 L 5.57 -5.255317918194701 L 5.57 -5.277729359076635 L 5.57 -5.296331882508505 L 5.57 -5.310967233342018 L 5.57 -5.321510905908634 L 5.57 -5.327873203212584 L 5.57 -5.33 " stroke="#191919" stroke-width="0.35 px" style="stroke-width:0.35;stroke-miterlimit:4;stroke-dasharray:none;fill:none;fill-opacity:1;fill-rule: evenodd"/>
<path id="Shape2DView_nwe0024"  d="M 11.44 -0.4500000000000002 L 11.44 -4.967724324724303 " stroke="#191919" stroke-width="0.35 px" style="stroke-width:0.35;stroke-miterlimit:4;stroke-dasharray:none;fill:none;fill-opacity:1;fill-rule: evenodd"/>
<path id="Shape2DView_nwe0025"  d="M 11.44 -4.9677243247240614 L 11.44 -5.011424531659162 L 11.44 -5.053581326149898 L 11.44 -5.093836072455905 L 11.44 -5.131846315916698 L 11.44 -5.16728869627755 L 11.44 -5.1998616985757025 L 11.44 -5.229288218184578 L 11.44 -5.255317918194701 L 11.44 -5.277729359076635 L 11.44 -5.296331882508505 L 11.44 -5.310967233342018 L 11.44 -5.321510905908634 L 11.44 -5.327873203212584 L 11.44 -5.33 " stroke="#191919" stroke-width="0.35 px" style="stroke-width:0.35;stroke-miterlimit:4;stroke-dasharray:none;fill:none;fill-opacity:1;fill-rule: evenodd"/>
<path id="Shape2DView_nwe0026"  d="M 12.37 -0.4500000000000002 L 12.37 -4.967724324724303 " stroke="#191919" stroke-width="0.35 px" style="stroke-width:0.35;stroke-miterlimit:4;stroke-dasharray:none;fill:none;fill-opacity:1;fill-rule: evenodd"/>
<path id="Shape2DView_nwe0027"  d="M 12.37 -4.9677243247240614 L 12.37 -5.011424531659162 L 12.37 -5.053581326149898 L 12.37 -5.093836072455905 L 12.37 -5.131846315916698 L 12.37 -5.16728869627755 L 12.37 -5.1998616985757025 L 12.37 -5.229288218184578 L 12.37 -5.255317918194701 L 12.37 -5.277729359076635 L 12.37 -5.296331882508505 L 12.37 -5.310967233342018 L 12.37 -5.321510905908634 L 12.37 -5.327873203212584 L 12.37 -5.33 " stroke="#191919" stroke-width="0.35 px" style="stroke-width:0.35;stroke-miterlimit:4;stroke-dasharray:none;fill:none;fill-opacity:1;fill-rule: evenodd"/>
<path id="Shape2DView_nwe0028"  d="M 8.04 -0.4500000000000002 L 8.04 -4.967724324724303 " stroke="#191919" stroke-width="0.35 px" style="stroke-width:0.35;stroke-miterlimit:4;stroke-dasharray:none;fill:none;fill-opacity:1;fill-rule: evenodd"/>
<path id="Shape2DView_nwe0029"  d="M 8.04 -4.9677243247240614 L 8.04 -5.011424531659162 L 8.04 -5.053581326149898 L 8.04 -5.093836072455905 L 8.04 -5.131846315916698 L 8.04 -5.16728869627755 L 8.04 -5.1998616985757025 L 8.04 -5.229288218184578 L 8.04 -5.255317918194701 L 8.04 -5.277729359076635 L 8.04 -5.296331882508505 L 8.04 -5.310967233342018 L 8.04 -5.321510905908634 L 8.04 -5.327873203212584 L 8.04 -5.33 " stroke="#191919" stroke-width="0.35 px" style="stroke-width:0.35;stroke-miterlimit:4;stroke-dasharray:none;fill:none;fill-opacity:1;fill-rule: evenodd"/>
<path id="Shape2DView_nwe0030"  d="M 8.97 -0.4500000000000002 L 8.97 -4.967724324724303 " stroke="#191919" stroke-width="0.35 px" style="stroke-width:0.35;stroke-miterlimit:4;stroke-dasharray:none;fill:none;fill-opacity:1;fill-rule: evenodd"/>
<path id="Shape2DView_nwe0031"  d="M 8.97 -4.9677243247240614 L 8.97 -5.011424531659162 L 8.97 -5.053581326149898 L 8.97 -5.093836072455905 L 8.97 -5.131846315916698 L 8.97 -5.16728869627755 L 8.97 -5.1998616985757025 L 8.97 -5.229288218184578 L 8.97 -5.255317918194701 L 8.97 -5.277729359076635 L 8.97 -5.296331882508505 L 8.97 -5.310967233342018 L 8.97 -5.321510905908634 L 8.97 -5.327873203212584 L 8.97 -5.33 " stroke="#191919" stroke-width="0.35 px" style="stroke-width:0.35;stroke-miterlimit:4;stroke-dasharray:none;fill:none;fill-opacity:1;fill-rule: evenodd"/>
<path id="Shape2DView_nwe0032"  d="M 14.84 -0.4500000000000002 L 14.84 -4.967724324724303 " stroke="#191919" stroke-width="0.35 px" style="stroke-width:0.35;stroke-miterlimit:4;stroke-dasharray:none;fill:none;fill-opacity:1;fill-rule: evenodd"/>
<path id="Shape2DView_nwe0033"  d="M 14.84 -4.9677243247240614 L 14.84 -5.011424531659162 L 14.84 -5.053581326149898 L 14.84 -5.093836072455905 L 14.84 -5.131846315916698 L 14.84 -5.16728869627755 L 14.84 -5.1998616985757025 L 14.84 -5.229288218184578 L 14.84 -5.255317918194701 L 14.84 -5.277729359076635 L 14.84 -5.296331882508505 L 14.84 -5.310967233342018 L 14.84 -5.321510905908634 L 14.84 -5.327873203212584 L 14.84 -5.33 " stroke="#191919" stroke-width="0.35 px" style="stroke-width:0.35;stroke-miterlimit:4;stroke-dasharray:none;fill:none;fill-opacity:1;fill-rule: evenodd"/>
<path id="Shape2DView_nwe0034"  d="M 15.77 -0.4500000000000002 L 15.77 -4.967724324724303 " stroke="#191919" stroke-width="0.35 px" style="stroke-width:0.35;stroke-miterlimit:4;stroke-dasharray:none;fill:none;fill-opacity:1;fill-rule: evenodd"/>
<path id="Shape2DView_nwe0035"  d="M 15.77 -4.9677243247240614 L 15.77 -5.011424531659162 L 15.77 -5.053581326149898 L 15.77 -5.093836072455905 L 15.77 -5.131846315916698 L 15.77 -5.16728869627755 L 15.77 -5.1998616985757025 L 15.77 -5.229288218184578 L 15.77 -5.255317918194701 L 15.77 -5.277729359076635 L 15.77 -5.296331882508505 L 15.77 -5.310967233342018 L 15.77 -5.321510905908634 L 15.77 -5.327873203212584 L 15.77 -5.33 " stroke="#191919" stroke-width="0.35 px" style="stroke-width:0.35;stroke-miterlimit:4;stroke-dasharray:none;fill:none;fill-opacity:1;fill-rule: evenodd"/>
<path id="Shape2DView_nwe0036"  d="M 1.24 -5.33 L 2.17 -5.33 " stroke="#191919" stroke-width="0.35 px" style="stroke-width:0.35;stroke-miterlimit:4;stroke-dasharray:none;fill:none;fill-opacity:1;fill-rule: evenodd"/>
<path id="Shape2DView_nwe0037"  d="M 4.64 -5.33 L 5.57 -5.33 " stroke="#191919" stroke-width="0.35 px" style="stroke-width:0.35;stroke-miterlimit:4;stroke-dasharray:none;fill:none;fill-opacity:1;fill-rule: evenodd"/>
<path id="Shape2DView_nwe0038"  d="M 11.44 -5.33 L 12.37 -5.33 " stroke="#191919" stroke-width="0.35 px" style="stroke-width:0.35;stroke-miterlimit:4;stroke-dasharray:none;fill:none;fill-opacity:1;fill-rule: evenodd"/>
<path id="Shape2DView_nwe0039"  d="M 8.04 -5.33 L 8.97 -5.33 " stroke="#191919" stroke-width="0.35 px" style="stroke-width:0.35;stroke-miterlimit:4;stroke-dasharray:none;fill:none;fill-opacity:1;fill-rule: evenodd"/>
<path id="Shape2DView_nwe0040"  d="M 14.84 -5.33 L 15.77 -5.33 " stroke="#191919" stroke-width="0.35 px" style="stroke-width:0.35;stroke-miterlimit:4;stroke-dasharray:none;fill:none;fill-opacity:1;fill-rule: evenodd"/>
<path id="Shape2DView_nwe0041"  d="M 1.24 -4.967724324724 L 2.17 -4.967724324724 " stroke="#191919" stroke-width="0.35 px" style="stroke-width:0.35;stroke-miterlimit:4;stroke-dasharray:none;fill:none;fill-opacity:1;fill-rule: evenodd"/>
<path id="Shape2DView_nwe0042"  d="M 4.64 -4.967724324724 L 5.57 -4.967724324724 " stroke="#191919" stroke-width="0.35 px" style="stroke-width:0.35;stroke-miterlimit:4;stroke-dasharray:none;fill:none;fill-opacity:1;fill-rule: evenodd"/>
<path id="Shape2DView_nwe0043"  d="M 11.44 -4.967724324724 L 12.37 -4.967724324724 " stroke="#191919" stroke-width="0.35 px" style="stroke-width:0.35;stroke-miterlimit:4;stroke-dasharray:none;fill:none;fill-opacity:1;fill-rule: evenodd"/>
<path id="Shape2DView_nwe0044"  d="M 8.04 -4.967724324724 L 8.97 -4.967724324724 " stroke="#191919" stroke-width="0.35 px" style="stroke-width:0.35;stroke-miterlimit:4;stroke-dasharray:none;fill:none;fill-opacity:1;fill-rule: evenodd"/>
<path id="Shape2DView_nwe0045"  d="M 14.84 -4.967724324724 L 15.77 -4.967724324724 " stroke="#191919" stroke-width="0.35 px" style="stroke-width:0.35;stroke-miterlimit:4;stroke-dasharray:none;fill:none;fill-opacity:1;fill-rule: evenodd"/>
<title>b'Shape2DView'</title>
</g>
<g id="Rectangle" transform="translate(1.690000,4.750000) scale(1,-1)">
<rect fill="#ff0000" id="origin" width="1" height="1" x="0" y="0" />
<title>b'Rectangle'</title>
</g>
</svg>