<?xml version="1.0"?>
<!DOCTYPE svg PUBLIC "-//W3C//DTD SVG 1.1//EN" "http://www.w3.org/Graphics/SVG/1.1/DTD/svg11.dtd">
<svg width="20.400000000000002mm" height="10.28mm" viewBox="0 0 20.400000000000002 10.28" xmlns="http://www.w3.org/2000/svg" version="1.1">
<g id="Shape2DView" transform="translate(1.690000,9.800000) scale(1,-1)">
<path id="Shape2DView_nwe0000"  d="M 18.51 8.0 L 18.51 5.6 " stroke="#191919" stroke-width="0.35 px" style="stroke-width:0.35;stroke-miterlimit:4;stroke-dasharray:none;fill:none;fill-opacity:1;fill-rule: evenodd"/>
<path id="Shape2DView_nwe0001"  d="M -1.49 5.6 L -1.49 8.0 " stroke="#191919" stroke-width="0.35 px" style="stroke-width:0.35;stroke-miterlimit:4;stroke-dasharray:none;fill:none;fill-opacity:1;fill-rule: evenodd"/>
<path id="Shape2DView_nwe0002"  d="M 2.94 4.6 L 2.94 0.08227567527557778 " stroke="#191919" stroke-width="0.35 px" style="stroke-width:0.35;stroke-miterlimit:4;stroke-dasharray:none;fill:none;fill-opacity:1;fill-rule: evenodd"/>
<path id="Shape2DView_nwe0003"  d="M 2.94 0.08227567527581894 L 2.94 0.03857546834073039 L 2.94 -0.0035813261499929028 L 2.94 -0.043836072455988445 L 2.94 -0.08184631591676897 L 2.94 -0.11728869627760943 L 2.94 -0.14986169857575057 L 2.94 -0.17928821818461568 L 2.94 -0.20531791819472903 L 2.94 -0.22772935907665495 L 2.94 -0.2463318825085173 L 2.94 -0.2609672333420253 L 2.94 -0.27151090590863725 L 2.94 -0.27787320321258435 L 2.94 -0.28 " stroke="#191919" stroke-width="0.35 px" style="stroke-width:0.35;stroke-miterlimit:4;stroke-dasharray:none;fill:none;fill-opacity:1;fill-rule: evenodd"/>
<path id="Shape2DView_nwe0004"  d="M 3.87 4.6 L 3.87 0.08227567527557778 " stroke="#191919" stroke-width="0.35 px" style="stroke-width:0.35;stroke-miterlimit:4;stroke-dasharray:none;fill:none;fill-opacity:1;fill-rule: evenodd"/>
<path id="Shape2DView_nwe0005"  d="M 3.87 0.08227567527581894 L 3.87 0.03857546834073039 L 3.87 -0.0035813261499929028 L 3.87 -0.043836072455988445 L 3.87 -0.08184631591676897 L 3.87 -0.11728869627760943 L 3.87 -0.14986169857575057 L 3.87 -0.17928821818461568 L 3.87 -0.20531791819472903 L 3.87 -0.22772935907665495 L 3.87 -0.2463318825085173 L 3.87 -0.2609672333420253 L 3.87 -0.27151090590863725 L 3.87 -0.27787320321258435 L 3.87 -0.28 " stroke="#191919" stroke-width="0.35 px" style="stroke-width:0.35;stroke-miterlimit:4;stroke-dasharray:none;fill:none;fill-opacity:1;fill-rule: evenodd"/>
<path id="Shape2DView_nwe0006"  d="M 6.34 4.6 L 6.34 0.08227567527557778 " stroke="#191919" stroke-width="0.35 px" style="stroke-width:0.35;stroke-miterlimit:4;stroke-dasharray:none;fill:none;fill-opacity:1;fill-rule: evenodd"/>
<path id="Shape2DView_nwe0007"  d="M 6.34 0.08227567527581894 L 6.34 0.03857546834073039 L 6.34 -0.0035813261499929028 L 6.34 -0.043836072455988445 L 6.34 -0.08184631591676897 L 6.34 -0.11728869627760943 L 6.34 -0.14986169857575057 L 6.34 -0.17928821818461568 L 6.34 -0.20531791819472903 L 6.34 -0.22772935907665495 L 6.34 -0.2463318825085173 L 6.34 -0.2609672333420253 L 6.34 -0.27151090590863725 L 6.34 -0.27787320321258435 L 6.34 -0.28 " stroke="#191919" stroke-width="0.35 px" style="stroke-width:0.35;stroke-miterlimit:4;stroke-dasharray:none;fill:none;fill-opacity:1;fill-rule: evenodd"/>
<path id="Shape2DView_nwe0008"  d="M 7.27 4.6 L 7.27 0.08227567527557778 " stroke="#191919" stroke-width="0.35 px" style="stroke-width:0.35;stroke-miterlimit:4;stroke-dasharray:none;fill:none;fill-opacity:1;fill-rule: evenodd"/>
<path id="Shape2DView_nwe0009"  d="M 7.27 0.08227567527581894 L 7.27 0.03857546834073039 L 7.27 -0.0035813261499929028 L 7.27 -0.043836072455988445 L 7.27 -0.08184631591676897 L 7.27 -0.11728869627760943 L 7.27 -0.14986169857575057 L 7.27 -0.17928821818461568 L 7.27 -0.20531791819472903 L 7.27 -0.22772935907665495 L 7.27 -0.2463318825085173 L 7.27 -0.2609672333420253 L 7.27 -0.27151090590863725 L 7.27 -0.27787320321258435 L 7.27 -0.28 " stroke="#191919" stroke-width="0.35 px" style="stroke-width:0.35;stroke-miterlimit:4;stroke-dasharray:none;fill:none;fill-opacity:1;fill-rule: evenodd"/>
<path id="Shape2DView_nwe0010"  d="M 16.54 4.6 L 16.54 0.08227567527557778 " stroke="#191919" stroke-width="0.35 px" style="stroke-width:0.35;stroke-miterlimit:4;stroke-dasharray:none;fill:none;fill-opacity:1;fill-rule: evenodd"/>
<path id="Shape2DView_nwe0011"  d="M 16.54 0.08227567527581894 L 16.54 0.03857546834073039 L 16.54 -0.0035813261499929028 L 16.54 -0.043836072455988445 L 16.54 -0.08184631591676897 L 16.54 -0.11728869627760943 L 16.54 -0.14986169857575057 L 16.54 -0.17928821818461568 L 16.54 -0.20531791819472903 L 16.54 -0.22772935907665495 L 16.54 -0.2463318825085173 L 16.54 -0.2609672333420253 L 16.54 -0.27151090590863725 L 16.54 -0.27787320321258435 L 16.54 -0.28 " stroke="#191919" stroke-width="0.35 px" style="stroke-width:0.35;stroke-miterlimit:4;stroke-dasharray:none;fill:none;fill-opacity:1;fill-rule: evenodd"/>
<path id="Shape2DView_nwe0012"  d="M 17.47 4.6 L 17.47 0.08227567527557778 " stroke="#191919" stroke-width="0.35 px" style="stroke-width:0.35;stroke-miterlimit:4;stroke-dasharray:none;fill:none;fill-opacity:1;fill-rule: evenodd"/>
<path id="Shape2DView_nwe0013"  d="M 17.47 0.08227567527581894 L 17.47 0.03857546834073039 L 17.47 -0.0035813261499929028 L 17.47 -0.043836072455988445 L 17.47 -0.08184631591676897 L 17.47 -0.11728869627760943 L 17.47 -0.14986169857575057 L 17.47 -0.17928821818461568 L 17.47 -0.20531791819472903 L 17.47 -0.22772935907665495 L 17.47 -0.2463318825085173 L 17.47 -0.2609672333420253 L 17.47 -0.27151090590863725 L 17.47 -0.27787320321258435 L 17.47 -0.28 " stroke="#191919" stroke-width="0.35 px" style="stroke-width:0.35;stroke-miterlimit:4;stroke-dasharray:none;fill:none;fill-opacity:1;fill-rule: evenodd"/>
<path id="Shape2DView_nwe0014"  d="M 13.14 4.6 L 13.14 0.08227567527557778 " stroke="#191919" stroke-width="0.35 px" style="stroke-width:0.35;stroke-miterlimit:4;stroke-dasharray:none;fill:none;fill-opacity:1;fill-rule: evenodd"/>
<path id="Shape2DView_nwe0015"  d="M 13.14 0.08227567527581894 L 13.14 0.03857546834073039 L 13.14 -0.0035813261499929028 L 13.14 -0.043836072455988445 L 13.14 -0.08184631591676897 L 13.14 -0.11728869627760943 L 13.14 -0.14986169857575057 L 13.14 -0.17928821818461568 L 13.14 -0.20531791819472903 L 13.14 -0.22772935907665495 L 13.14 -0.2463318825085173 L 13.14 -0.2609672333420253 L 13.14 -0.27151090590863725 L 13.14 -0.27787320321258435 L 13.14 -0.28 " stroke="#191919" stroke-width="0.35 px" style="stroke-width:0.35;stroke-miterlimit:4;stroke-dasharray:none;fill:none;fill-opacity:1;fill-rule: evenodd"/>
<path id="Shape2DView_nwe0016"  d="M 14.07 4.6 L 14.07 0.08227567527557778 " stroke="#191919" stroke-width="0.35 px" style="stroke-width:0.35;stroke-miterlimit:4;stroke-dasharray:none;fill:none;fill-opacity:1;fill-rule: evenodd"/>
<path id="Shape2DView_nwe0017"  d="M 14.07 0.08227567527581894 L 14.07 0.03857546834073039 L 14.07 -0.0035813261499929028 L 14.07 -0.043836072455988445 L 14.07 -0.08184631591676897 L 14.07 -0.11728869627760943 L 14.07 -0.14986169857575057 L 14.07 -0.17928821818461568 L 14.07 -0.20531791819472903 L 14.07 -0.22772935907665495 L 14.07 -0.2463318825085173 L 14.07 -0.2609672333420253 L 14.07 -0.27151090590863725 L 14.07 -0.27787320321258435 L 14.07 -0.28 " stroke="#191919" stroke-width="0.35 px" style="stroke-width:0.35;stroke-miterlimit:4;stroke-dasharray:none;fill:none;fill-opacity:1;fill-rule: evenodd"/>
<path id="Shape2DView_nwe0018"  d="M 9.74 4.6 L 9.74 0.08227567527557778 " stroke="#191919" stroke-width="0.35 px" style="stroke-width:0.35;stroke-miterlimit:4;stroke-dasharray:none;fill:none;fill-opacity:1;fill-rule: evenodd"/>
<path id="Shape2DView_nwe0019"  d="M 9.74 0.08227567527581894 L 9.74 0.03857546834073039 L 9.74 -0.0035813261499929028 L 9.74 -0.043836072455988445 L 9.74 -0.08184631591676897 L 9.74 -0.11728869627760943 L 9.74 -0.14986169857575057 L 9.74 -0.17928821818461568 L 9.74 -0.20531791819472903 L 9.74 -0.22772935907665495 L 9.74 -0.2463318825085173 L 9.74 -0.2609672333420253 L 9.74 -0.27151090590863725 L 9.74 -0.27787320321258435 L 9.74 -0.28 " stroke="#191919" stroke-width="0.35 px" style="stroke-width:0.35;stroke-miterlimit:4;stroke-dasharray:none;fill:none;fill-opacity:1;fill-rule: evenodd"/>
<path id="Shape2DView_nwe0020"  d="M 10.67 4.6 L 10.67 0.08227567527557778 " stroke="#191919" stroke-width="0.35 px" style="stroke-width:0.35;stroke-miterlimit:4;stroke-dasharray:none;fill:none;fill-opacity:1;fill-rule: evenodd"/>
<path id="Shape2DView_nwe0021"  d="M 10.67 0.08227567527581894 L 10.67 0.03857546834073039 L 10.67 -0.0035813261499929028 L 10.67 -0.043836072455988445 L 10.67 -0.08184631591676897 L 10.67 -0.11728869627760943 L 10.67 -0.14986169857575057 L 10.67 -0.17928821818461568 L 10.67 -0.20531791819472903 L 10.67 -0.22772935907665495 L 10.67 -0.2463318825085173 L 10.67 -0.2609672333420253 L 10.67 -0.27151090590863725 L 10.67 -0.27787320321258435 L 10.67 -0.28 " stroke="#191919" stroke-width="0.35 px" style="stroke-width:0.35;stroke-miterlimit:4;stroke-dasharray:none;fill:none;fill-opacity:1;fill-rule: evenodd"/>
<path id="Shape2DView_nwe0022"  d="M -0.46 4.6 L -0.46 0.08227567527557778 " stroke="#191919" stroke-width="0.35 px" style="stroke-width:0.35;stroke-miterlimit:4;stroke-dasharray:none;fill:none;fill-opacity:1;fill-rule: evenodd"/>
<path id="Shape2DView_nwe0023"  d="M -0.4600000000000001 0.08227567527581894 L -0.4600000000000001 0.03857546834073039 L -0.4600000000000001 -0.0035813261499929028 L -0.4600000000000001 -0.043836072455988445 L -0.4600000000000001 -0.08184631591676897 L -0.4600000000000001 -0.11728869627760943 L -0.4600000000000001 -0.14986169857575057 L -0.4600000000000001 -0.17928821818461568 L -0.4600000000000001 -0.20531791819472903 L -0.46 -0.22772935907665495 L -0.46 -0.2463318825085173 L -0.46 -0.2609672333420253 L -0.46 -0.27151090590863725 L -0.46 -0.27787320321258435 L -0.46 -0.28 " stroke="#191919" stroke-width="0.35 px" style="stroke-width:0.35;stroke-miterlimit:4;stroke-dasharray:none;fill:none;fill-opacity:1;fill-rule: evenodd"/>
<path id="Shape2DView_nwe0024"  d="M 0.47 4.6 L 0.47 0.08227567527557778 " stroke="#191919" stroke-width="0.35 px" style="stroke-width:0.35;stroke-miterlimit:4;stroke-dasharray:none;fill:none;fill-opacity:1;fill-rule: evenodd"/>
<path id="Shape2DView_nwe0025"  d="M 0.4699999999999999 0.08227567527581894 L 0.4699999999999999 0.03857546834073039 L 0.4699999999999999 -0.0035813261499929028 L 0.4699999999999999 -0.043836072455988445 L 0.4699999999999999 -0.08184631591676897 L 0.4699999999999999 -0.11728869627760943 L 0.4699999999999999 -0.14986169857575057 L 0.4699999999999999 -0.17928821818461568 L 0.4699999999999999 -0.20531791819472903 L 0.47 -0.22772935907665495 L 0.47 -0.2463318825085173 L 0.47 -0.2609672333420253 L 0.47 -0.27151090590863725 L 0.47 -0.27787320321258435 L 0.47 -0.28 " stroke="#191919" stroke-width="0.35 px" style="stroke-width:0.35;stroke-miterlimit:4;stroke-dasharray:none;fill:none;fill-opacity:1;fill-rule: evenodd"/>
<path id="Shape2DView_nwe0026"  d="M 18.51 8.0 L 18.51 9.6 " stroke="#191919" stroke-width="0.35 px" style="stroke-width:0.35;stroke-miterlimit:4;stroke-dasharray:none;fill:none;fill-opacity:1;fill-rule: evenodd"/>
<path id="Shape2DView_nwe0027"  d="M 18.51 5.6 L -1.4899999999999984 5.6 " stroke="#191919" stroke-width="0.35 px" style="stroke-width:0.35;stroke-miterlimit:4;stroke-dasharray:none;fill:none;fill-opacity:1;fill-rule: evenodd"/>
<path id="Shape2DView_nwe0028"  d="M 18.51 5.6000000000000005 L 17.51 4.6000000000000005 " stroke="#191919" stroke-width="0.35 px" style="stroke-width:0.35;stroke-miterlimit:4;stroke-dasharray:none;fill:none;fill-opacity:1;fill-rule: evenodd"/>
<path id="Shape2DView_nwe0029"  d="M 17.51 4.6 L -0.48999999999999844 4.6 " stroke="#191919" stroke-width="0.35 px" style="stroke-width:0.35;stroke-miterlimit:4;stroke-dasharray:none;fill:none;fill-opacity:1;fill-rule: evenodd"/>
<path id="Shape2DView_nwe0030"  d="M 0.510000000000002 9.6 L -1.4899999999999984 9.6 " stroke="#191919" stroke-width="0.35 px" style="stroke-width:0.35;stroke-miterlimit:4;stroke-dasharray:none;fill:none;fill-opacity:1;fill-rule: evenodd"/>
<path id="Shape2DView_nwe0031"  d="M 0.51 9.6 L 16.51 9.6 " stroke="#191919" stroke-width="0.35 px" style="stroke-width:0.35;stroke-miterlimit:4;stroke-dasharray:none;fill:none;fill-opacity:1;fill-rule: evenodd"/>
<path id="Shape2DView_nwe0032"  d="M 16.51 9.6 L 18.509999999999998 9.6 " stroke="#191919" stroke-width="0.35 px" style="stroke-width:0.35;stroke-miterlimit:4;stroke-dasharray:none;fill:none;fill-opacity:1;fill-rule: evenodd"/>
<path id="Shape2DView_nwe0033"  d="M -1.49 8.0 L -1.49 9.6 " stroke="#191919" stroke-width="0.35 px" style="stroke-width:0.35;stroke-miterlimit:4;stroke-dasharray:none;fill:none;fill-opacity:1;fill-rule: evenodd"/>
<path id="Shape2DView_nwe0034"  d="M -0.4899999999999993 4.6 L -1.4899999999999993 5.6 " stroke="#191919" stroke-width="0.35 px" style="stroke-width:0.35;stroke-miterlimit:4;stroke-dasharray:none;fill:none;fill-opacity:1;fill-rule: evenodd"/>
<path id="Shape2DView_nwe0035"  d="M 2.94 -0.28 L 3.87 -0.28 " stroke="#191919" stroke-width="0.35 px" style="stroke-width:0.35;stroke-miterlimit:4;stroke-dasharray:none;fill:none;fill-opacity:1;fill-rule: evenodd"/>
<path id="Shape2DView_nwe0036"  d="M 6.34 -0.28 L 7.27 -0.28 " stroke="#191919" stroke-width="0.35 px" style="stroke-width:0.35;stroke-miterlimit:4;stroke-dasharray:none;fill:none;fill-opacity:1;fill-rule: evenodd"/>
<path id="Shape2DView_nwe0037"  d="M 16.54 -0.28 L 17.47 -0.28 " stroke="#191919" stroke-width="0.35 px" style="stroke-width:0.35;stroke-miterlimit:4;stroke-dasharray:none;fill:none;fill-opacity:1;fill-rule: evenodd"/>
<path id="Shape2DView_nwe0038"  d="M 13.14 -0.28 L 14.07 -0.28 " stroke="#191919" stroke-width="0.35 px" style="stroke-width:0.35;stroke-miterlimit:4;stroke-dasharray:none;fill:none;fill-opacity:1;fill-rule: evenodd"/>
<path id="Shape2DView_nwe0039"  d="M 9.74 -0.28 L 10.67 -0.28 " stroke="#191919" stroke-width="0.35 px" style="stroke-width:0.35;stroke-miterlimit:4;stroke-dasharray:none;fill:none;fill-opacity:1;fill-rule: evenodd"/>
<path id="Shape2DView_nwe0040"  d="M -0.46 -0.28 L 0.4699999999999999 -0.28 " stroke="#191919" stroke-width="0.35 px" style="stroke-width:0.35;stroke-miterlimit:4;stroke-dasharray:none;fill:none;fill-opacity:1;fill-rule: evenodd"/>
<path id="Shape2DView_nwe0041"  d="M 18.51 8.0 L 16.51 8.0 " stroke="#191919" stroke-width="0.35 px" style="stroke-width:0.35;stroke-miterlimit:4;stroke-dasharray:none;fill:none;fill-opacity:1;fill-rule: evenodd"/>
<path id="Shape2DView_nwe0042"  d="M 16.51 8.0 L 0.5100000000000016 8.0 " stroke="#191919" stroke-width="0.35 px" style="stroke-width:0.35;stroke-miterlimit:4;stroke-dasharray:none;fill:none;fill-opacity:1;fill-rule: evenodd"/>
<path id="Shape2DView_nwe0043"  d="M -1.49 8.0 L 0.5100000000000005 8.0 " stroke="#191919" stroke-width="0.35 px" style="stroke-width:0.35;stroke-miterlimit:4;stroke-dasharray:none;fill:none;fill-opacity:1;fill-rule: evenodd"/>
<path id="Shape2DView_nwe0044"  d="M 16.51 8.0 L 16.51 9.6 " stroke="#191919" stroke-width="0.35 px" style="stroke-width:0.35;stroke-miterlimit:4;stroke-dasharray:none;fill:none;fill-opacity:1;fill-rule: evenodd"/>
<path id="Shape2DView_nwe0045"  d="M 0.51 8.0 L 0.51 9.6 " stroke="#191919" stroke-width="0.35 px" style="stroke-width:0.35;stroke-miterlimit:4;stroke-dasharray:none;fill:none;fill-opacity:1;fill-rule: evenodd"/>
<path id="Shape2DView_nwe0046"  d="M 2.94 0.08227567527587 L 3.87 0.08227567527587 " stroke="#191919" stroke-width="0.35 px" style="stroke-width:0.35;stroke-miterlimit:4;stroke-dasharray:none;fill:none;fill-opacity:1;fill-rule: evenodd"/>
<path id="Shape2DView_nwe0047"  d="M 6.34 0.08227567527587 L 7.27 0.08227567527587 " stroke="#191919" stroke-width="0.35 px" style="stroke-width:0.35;stroke-miterlimit:4;stroke-dasharray:none;fill:none;fill-opacity:1;fill-rule: evenodd"/>
<path id="Shape2DView_nwe0048"  d="M 16.54 0.08227567527587 L 17.47 0.08227567527587 " stroke="#191919" stroke-width="0.35 px" style="stroke-width:0.35;stroke-miterlimit:4;stroke-dasharray:none;fill:none;fill-opacity:1;fill-rule: evenodd"/>
<path id="Shape2DView_nwe0049"  d="M 13.14 0.08227567527587 L 14.07 0.08227567527587 " stroke="#191919" stroke-width="0.35 px" style="stroke-width:0.35;stroke-miterlimit:4;stroke-dasharray:none;fill:none;fill-opacity:1;fill-rule: evenodd"/>
<path id="Shape2DView_nwe0050"  d="M 9.74 0.08227567527587 L 10.67 0.08227567527587 " stroke="#191919" stroke-width="0.35 px" style="stroke-width:0.35;stroke-miterlimit:4;stroke-dasharray:none;fill:none;fill-opacity:1;fill-rule: evenodd"/>
<path id="Shape2DView_nwe0051"  d="M -0.46 0.08227567527587 L 0.4699999999999999 0.08227567527587 " stroke="#191919" stroke-width="0.35 px" style="stroke-width:0.35;stroke-miterlimit:4;stroke-dasharray:none;fill:none;fill-opacity:1;fill-rule: evenodd"/>
<title>b'Shape2DView'</title>
</g>
<g id="Rectangle" transform="translate(1.690000,9.800000) scale(1,-1)">
<rect fill="#ff0000" id="origin" width="1" height="1" x="0" y="0" />
<title>b'Rectangle'</title>
</g>
</svg>