<?xml version="1.0"?>
<!DOCTYPE svg PUBLIC "-//W3C//DTD SVG 1.1//EN" "http://www.w3.org/Graphics/SVG/1.1/DTD/svg11.dtd">
<svg width="9.584446166068638mm" height="9.579221069777489mm" viewBox="0 0 9.584446166068638 9.579221069777489" xmlns="http://www.w3.org/2000/svg" version="1.1">
<g id="Shape2DView" transform="translate(2.253965,4.786127) scale(1,-1)">
<path id="Shape2DView_nwe0000"  d="M -1.794564568675 3.726452736852 L -1.18645273685543 4.3345645686724295 " stroke="#191919" stroke-width="0.35 px" style="stroke-width:0.35;stroke-miterlimit:4;stroke-dasharray:none;fill:none;fill-opacity:1;fill-rule: evenodd"/>
<path id="Shape2DView_nwe0001"  d="M -1.0735196186898395 3.005407786865159 L -1.7945645686763498 3.7264527368506504 " stroke="#191919" stroke-width="0.35 px" style="stroke-width:0.35;stroke-miterlimit:4;stroke-dasharray:none;fill:none;fill-opacity:1;fill-rule: evenodd"/>
<path id="Shape2DView_nwe0002"  d="M -0.46540778686934026 3.6135196186846597 L -1.1864527368563498 4.33456456867065 " stroke="#191919" stroke-width="0.35 px" style="stroke-width:0.35;stroke-miterlimit:4;stroke-dasharray:none;fill:none;fill-opacity:1;fill-rule: evenodd"/>
<path id="Shape2DView_nwe0003"  d="M -1.0735196186885854 3.005407786865655 A 4.7 4.7 0 0 1 -2.16 4.8149e-15" stroke="#191919" stroke-width="0.35 px" style="stroke-width:0.35;stroke-miterlimit:4;stroke-dasharray:none;fill:none;fill-opacity:1;fill-rule: evenodd"/>
<path id="Shape2DView_nwe0004"  d="M -2.16 3.66373598126244e-15 A 4.7 4.7 0 1 1 -0.465408 3.61352" stroke="#191919" stroke-width="0.35 px" style="stroke-width:0.35;stroke-miterlimit:4;stroke-dasharray:none;fill:none;fill-opacity:1;fill-rule: evenodd"/>
<circle cx="2.54" cy="5.020467597205e-15" r="4.25" stroke="#191919" stroke-width="0.35 px" style="stroke-width:0.35;stroke-miterlimit:4;stroke-dasharray:none;fill:none"/>
<circle cx="2.54" cy="5.107025913276e-15" r="2.95" stroke="#191919" stroke-width="0.35 px" style="stroke-width:0.35;stroke-miterlimit:4;stroke-dasharray:none;fill:none"/>
<path id="Shape2DView_nwe0007"  d="M -0.23671644905394862 3.3848282808729375 A 4.37804 4.37804 0 0 1 -0.844828 2.77672" stroke="#191919" stroke-width="0.35 px" style="stroke-width:0.35;stroke-miterlimit:4;stroke-dasharray:none;fill:none;fill-opacity:1;fill-rule: evenodd"/>
<path id="Shape2DView_nwe0008"  d="M -1.838038 3.663735981262878e-15 A 4.37804 4.37804 0 1 1 -0.236716 3.38483" stroke="#191919" stroke-width="0.35 px" style="stroke-width:0.35;stroke-miterlimit:4;stroke-dasharray:none;fill:none;fill-opacity:1;fill-rule: evenodd"/>
<path id="Shape2DView_nwe0009"  d="M -0.8448282808747201 2.776716449051775 A 4.37804 4.37804 0 0 1 -1.83804 4.73605e-15" stroke="#191919" stroke-width="0.35 px" style="stroke-width:0.35;stroke-miterlimit:4;stroke-dasharray:none;fill:none;fill-opacity:1;fill-rule: evenodd"/>
<circle cx="2.54" cy="5.020467597205e-15" r="4.25" stroke="#191919" stroke-width="0.35 px" style="stroke-width:0.35;stroke-miterlimit:4;stroke-dasharray:none;fill:none"/>
<circle cx="2.54" cy="5.107025913276e-15" r="4.055088" stroke="#191919" stroke-width="0.35 px" style="stroke-width:0.35;stroke-miterlimit:4;stroke-dasharray:none;fill:none"/>
<path id="Shape2DView_nwe0012"  d="M -0.4654077868683131 3.6135196186863756 A 4.7 4.7 0 0 1 -1.07352 3.00541" stroke="#191919" stroke-width="0.35 px" style="stroke-width:0.35;stroke-miterlimit:4;stroke-dasharray:none;fill:none;fill-opacity:1;fill-rule: evenodd"/>
<path id="Shape2DView_nwe0013"  d="M -0.2367164490556788 3.3848282808713215 L -0.46540778686934026 3.6135196186846597 " stroke="#191919" stroke-width="0.35 px" style="stroke-width:0.35;stroke-miterlimit:4;stroke-dasharray:none;fill:none;fill-opacity:1;fill-rule: evenodd"/>
<path id="Shape2DView_nwe0014"  d="M -0.8448282808756788 2.776716449051322 L -1.0735196186898395 3.005407786865159 " stroke="#191919" stroke-width="0.35 px" style="stroke-width:0.35;stroke-miterlimit:4;stroke-dasharray:none;fill:none;fill-opacity:1;fill-rule: evenodd"/>
<path id="Shape2DView_nwe0015"  d="M -1.838038 3.663735981262826e-15 L -1.8237022924086848 3.664272269656312e-15 L -1.8095468646581014 3.66587439069906e-15 L -1.7957497294653844 3.668522196789386e-15 L -1.782484393810866 3.67218239022941e-15 L -1.7699176769871294 3.676808941962932e-15 L -1.7582076127496116 3.682343670417513e-15 L -1.747501461950437 3.688716973171514e-15 L -1.7379338606477586 3.695848702244925e-15 L -1.7296251269792091 3.703649172006724e-15 L -1.7226797480915101 3.712020287023718e-15 L -1.7171850661539774 3.720856775667535e-15 L -1.7132101799800636 3.730047513966428e-15 L -1.7108050760696891 3.739476923053697e-15 L -1.71 3.749026422639e-15 " stroke="#191919" stroke-width="0.35 px" style="stroke-width:0.35;stroke-miterlimit:4;stroke-dasharray:none;fill:none;fill-opacity:1;fill-rule: evenodd"/>
<path id="Shape2DView_nwe0016"  d="M -1.515088 7.660538869913444e-15 L -1.536911219966248 7.659722479128277e-15 L -1.5584600002792932 7.657283573360583e-15 L -1.5794633525238055 7.653252823265473e-15 L -1.5996571473588814 7.647680917864092e-15 L -1.6187874360977572 7.640637927099756e-15 L -1.6366136442598895 7.632212420667763e-15 L -1.6529115969346324 7.622510354200092e-15 L -1.6674763379108086 7.611653736811841e-15 L -1.6801247071199832 7.599779096765826e-15 L -1.6906976439805963 7.587035764550449e-15 L -1.6990621876770646 7.573583994962174e-15 L -1.7051131492191836 7.559592951808472e-15 L -1.7087744342547118 7.545238580574793e-15 L -1.71 7.530701395808e-15 " stroke="#191919" stroke-width="0.35 px" style="stroke-width:0.35;stroke-miterlimit:4;stroke-dasharray:none;fill:none;fill-opacity:1;fill-rule: evenodd"/>
<title>b'Shape2DView'</title>
</g>
<g id="Rectangle" transform="translate(2.253965,4.786127) scale(1,-1)">
<rect fill="#ff0000" id="origin" width="1" height="1" x="0" y="0" />
<title>b'Rectangle'</title>
</g>
</svg>