<?xml version="1.0"?>
<!DOCTYPE svg PUBLIC "-//W3C//DTD SVG 1.1//EN" "http://www.w3.org/Graphics/SVG/1.1/DTD/svg11.dtd">
<svg width="6.311792673930972mm" height="6.302257673768818mm" viewBox="0 0 6.311792673930972 6.302257673768818" xmlns="http://www.w3.org/2000/svg" version="1.1">
<g id="Shape2DView" transform="translate(2.079927,3.349927) scale(1,-1)">
<path id="Shape2DView_nwe0000"  d="M -2.018046532518 2.46780266634 L -1.19780266634208 3.28804653251708 " stroke="#191919" stroke-width="0.35 px" style="stroke-width:0.35;stroke-miterlimit:4;stroke-dasharray:none;fill:none;fill-opacity:1;fill-rule: evenodd"/>
<path id="Shape2DView_nwe0001"  d="M -1.1493008698694207 1.5990570036905791 L -2.0180465325190347 2.467802666338965 " stroke="#191919" stroke-width="0.35 px" style="stroke-width:0.35;stroke-miterlimit:4;stroke-dasharray:none;fill:none;fill-opacity:1;fill-rule: evenodd"/>
<path id="Shape2DView_nwe0002"  d="M -0.32905700369392044 2.419300869867079 L -1.1978026663435348 3.2880465325154646 " stroke="#191919" stroke-width="0.35 px" style="stroke-width:0.35;stroke-miterlimit:4;stroke-dasharray:none;fill:none;fill-opacity:1;fill-rule: evenodd"/>
<path id="Shape2DView_nwe0003"  d="M -1.1493008698686933 1.5990570036907972 A 2.9 2.9 0 0 1 -1.63 4.37403e-15" stroke="#191919" stroke-width="0.35 px" style="stroke-width:0.35;stroke-miterlimit:4;stroke-dasharray:none;fill:none;fill-opacity:1;fill-rule: evenodd"/>
<path id="Shape2DView_nwe0004"  d="M -1.63 3.66373598126269e-15 A 2.9 2.9 0 1 1 -0.329057 2.4193" stroke="#191919" stroke-width="0.35 px" style="stroke-width:0.35;stroke-miterlimit:4;stroke-dasharray:none;fill:none;fill-opacity:1;fill-rule: evenodd"/>
<circle cx="1.27" cy="3.098374987931e-15" r="2.4" stroke="#191919" stroke-width="0.35 px" style="stroke-width:0.35;stroke-miterlimit:4;stroke-dasharray:none;fill:none"/>
<path id="Shape2DView_nwe0006"  d="M -0.3290570036926501 2.41930086986747 A 2.9 2.9 0 0 1 -1.1493 1.59906" stroke="#191919" stroke-width="0.35 px" style="stroke-width:0.35;stroke-miterlimit:4;stroke-dasharray:none;fill:none;fill-opacity:1;fill-rule: evenodd"/>
<circle cx="1.27" cy="2.443833414144e-15" r="2.51669852308" stroke="#191919" stroke-width="0.35 px" style="stroke-width:0.35;stroke-miterlimit:4;stroke-dasharray:none;fill:none"/>
<circle cx="1.27" cy="3.098374987931e-15" r="2.4" stroke="#191919" stroke-width="0.35 px" style="stroke-width:0.35;stroke-miterlimit:4;stroke-dasharray:none;fill:none"/>
<circle cx="1.27" cy="3.19744231092e-15" r="2.176920220549" stroke="#191919" stroke-width="0.35 px" style="stroke-width:0.35;stroke-miterlimit:4;stroke-dasharray:none;fill:none"/>
<path id="Shape2DView_nwe0010"  d="M -1.63 3.663735981263e-15 L -1.246698523079999 3.665750121215742e-15 " stroke="#191919" stroke-width="0.35 px" style="stroke-width:0.35;stroke-miterlimit:4;stroke-dasharray:none;fill:none;fill-opacity:1;fill-rule: evenodd"/>
<path id="Shape2DView_nwe0011"  d="M -1.2466985230799983 3.665750121216155e-15 L -1.2336005922379354 3.666306710772765e-15 L -1.2206772785298567 3.667831837573457e-15 L -1.208089473648553 3.670306514210029e-15 L -1.1959938922944189 3.67369993164061e-15 L -1.1845411211206385 3.677969842753732e-15 L -1.1738737439708697 3.6830630883332235e-15 L -1.1641245667496989 3.688916258875795e-15 L -1.155414964025744 3.695456484021874e-15 L -1.1478533679517362 3.702602339771491e-15 L -1.1415339183141129 3.710264862190628e-15 L -1.1365352905186308 3.718348654987677e-15 L -1.1329197161032536 3.726753077170964e-15 L -1.130732207972662 3.735373496001353e-15 L -1.1300000000000001 3.744102589641e-15 " stroke="#191919" stroke-width="0.35 px" style="stroke-width:0.35;stroke-miterlimit:4;stroke-dasharray:none;fill:none;fill-opacity:1;fill-rule: evenodd"/>
<path id="Shape2DView_nwe0012"  d="M -0.906920220549 4.7961634663808825e-15 L -0.9318972311844727 4.795229094580784e-15 L -0.9565601414192052 4.79243772944801e-15 L -0.9805988008472418 4.787824474018693e-15 L -1.00371090937872 4.7814473426565294e-15 L -1.0256058188388988 4.773386531488497e-15 L -1.046008188037594 4.7637434098920244e-15 L -1.0646614453444014 4.752639245716257e-15 L -1.0813310152258164 4.740213680268492e-15 L -1.0958072681686701 4.726622972243716e-15 L -1.1079081568928888 4.712038032680851e-15 L -1.117481505701666 4.696642275657281e-15 L -1.1244069241791452 4.680629311750404e-15 L -1.1285973211697504 4.664200513272286e-15 L -1.13 4.647562481896e-15 " stroke="#191919" stroke-width="0.35 px" style="stroke-width:0.35;stroke-miterlimit:4;stroke-dasharray:none;fill:none;fill-opacity:1;fill-rule: evenodd"/>
<title>b'Shape2DView'</title>
</g>
<g id="Rectangle" transform="translate(2.079927,3.349927) scale(1,-1)">
<rect fill="#ff0000" id="origin" width="1" height="1" x="0" y="0" />
<title>b'Rectangle'</title>
</g>
</svg>