<?xml version="1.0"?>
<!DOCTYPE svg PUBLIC "-//W3C//DTD SVG 1.1//EN" "http://www.w3.org/Graphics/SVG/1.1/DTD/svg11.dtd">
<svg width="6.08297388824614mm" height="7.353622388864062mm" viewBox="0 0 6.08297388824614 7.353622388864062" xmlns="http://www.w3.org/2000/svg" version="1.1">
<g id="Shape2DView" transform="translate(1.854202,4.394202) scale(1,-1)">
<path id="Shape2DView_nwe0000"  d="M -1.794564568675 3.726452736852 L -1.18645273685543 4.3345645686724295 " stroke="#191919" stroke-width="0.35 px" style="stroke-width:0.35;stroke-miterlimit:4;stroke-dasharray:none;fill:none;fill-opacity:1;fill-rule: evenodd"/>
<path id="Shape2DView_nwe0001"  d="M -0.4227841618003798 2.3546723299766197 L -1.7945645686763498 3.7264527368506504 " stroke="#191919" stroke-width="0.35 px" style="stroke-width:0.35;stroke-miterlimit:4;stroke-dasharray:none;fill:none;fill-opacity:1;fill-rule: evenodd"/>
<path id="Shape2DView_nwe0002"  d="M 0.3860984323677621 2.7620133994487617 L -1.1864527368563498 4.33456456867065 " stroke="#191919" stroke-width="0.35 px" style="stroke-width:0.35;stroke-miterlimit:4;stroke-dasharray:none;fill:none;fill-opacity:1;fill-rule: evenodd"/>
<path id="Shape2DView_nwe0003"  d="M -0.4227841617999759 2.3546723299769683 A 2.9 2.9 0 0 1 -1.63 4.37403e-15" stroke="#191919" stroke-width="0.35 px" style="stroke-width:0.35;stroke-miterlimit:4;stroke-dasharray:none;fill:none;fill-opacity:1;fill-rule: evenodd"/>
<path id="Shape2DView_nwe0004"  d="M -1.63 3.66373598126269e-15 A 2.9 2.9 0 1 1 0.386098 2.76201" stroke="#191919" stroke-width="0.35 px" style="stroke-width:0.35;stroke-miterlimit:4;stroke-dasharray:none;fill:none;fill-opacity:1;fill-rule: evenodd"/>
<circle cx="1.27" cy="3.821426730613e-15" r="2.399999999996" stroke="#191919" stroke-width="0.35 px" style="stroke-width:0.35;stroke-miterlimit:4;stroke-dasharray:none;fill:none"/>
<circle cx="1.27" cy="3.907985046681e-15" r="2.0" stroke="#191919" stroke-width="0.35 px" style="stroke-width:0.35;stroke-miterlimit:4;stroke-dasharray:none;fill:none"/>
<path id="Shape2DView_nwe0007"  d="M 0.687983251137069 2.460128580681716 A 2.52804 2.52804 0 0 1 -0.155747 2.08764" stroke="#191919" stroke-width="0.35 px" style="stroke-width:0.35;stroke-miterlimit:4;stroke-dasharray:none;fill:none;fill-opacity:1;fill-rule: evenodd"/>
<path id="Shape2DView_nwe0008"  d="M -1.258038 3.6637359812625725e-15 A 2.52804 2.52804 0 1 1 0.687983 2.46013" stroke="#191919" stroke-width="0.35 px" style="stroke-width:0.35;stroke-miterlimit:4;stroke-dasharray:none;fill:none;fill-opacity:1;fill-rule: evenodd"/>
<path id="Shape2DView_nwe0009"  d="M -0.15574714601615147 2.0876353141942223 A 2.52804 2.52804 0 0 1 -1.25804 4.28293e-15" stroke="#191919" stroke-width="0.35 px" style="stroke-width:0.35;stroke-miterlimit:4;stroke-dasharray:none;fill:none;fill-opacity:1;fill-rule: evenodd"/>
<circle cx="1.27" cy="3.821426730613e-15" r="2.399999999996" stroke="#191919" stroke-width="0.35 px" style="stroke-width:0.35;stroke-miterlimit:4;stroke-dasharray:none;fill:none"/>
<circle cx="1.27" cy="3.907985046679e-15" r="2.205088000007" stroke="#191919" stroke-width="0.35 px" style="stroke-width:0.35;stroke-miterlimit:4;stroke-dasharray:none;fill:none"/>
<path id="Shape2DView_nwe0012"  d="M 0.38609843236909824 2.7620133994496925 A 2.9 2.9 0 0 1 -0.422784 2.35467" stroke="#191919" stroke-width="0.35 px" style="stroke-width:0.35;stroke-miterlimit:4;stroke-dasharray:none;fill:none;fill-opacity:1;fill-rule: evenodd"/>
<path id="Shape2DView_nwe0013"  d="M 0.6879832511359756 2.460128580680975 L 0.3860984323677621 2.7620133994487617 " stroke="#191919" stroke-width="0.35 px" style="stroke-width:0.35;stroke-miterlimit:4;stroke-dasharray:none;fill:none;fill-opacity:1;fill-rule: evenodd"/>
<path id="Shape2DView_nwe0014"  d="M -0.15574714601669104 2.087635314193309 L -0.4227841618003798 2.3546723299766197 " stroke="#191919" stroke-width="0.35 px" style="stroke-width:0.35;stroke-miterlimit:4;stroke-dasharray:none;fill:none;fill-opacity:1;fill-rule: evenodd"/>
<path id="Shape2DView_nwe0015"  d="M -1.258038 3.663735981262826e-15 L -1.2437022924086847 3.664272269656312e-15 L -1.2295468646581014 3.66587439069906e-15 L -1.2157497294653843 3.668522196789386e-15 L -1.202484393810866 3.67218239022941e-15 L -1.1899176769871294 3.676808941962932e-15 L -1.1782076127496115 3.682343670417513e-15 L -1.167501461950437 3.688716973171514e-15 L -1.1579338606477585 3.695848702244925e-15 L -1.149625126979209 3.703649172006724e-15 L -1.14267974809151 3.712020287023718e-15 L -1.1371850661539773 3.720856775667535e-15 L -1.1332101799800636 3.730047513966428e-15 L -1.130805076069689 3.739476923053697e-15 L -1.13 3.749026422639e-15 " stroke="#191919" stroke-width="0.35 px" style="stroke-width:0.35;stroke-miterlimit:4;stroke-dasharray:none;fill:none;fill-opacity:1;fill-rule: evenodd"/>
<path id="Shape2DView_nwe0016"  d="M -0.935088000007 5.861977570017454e-15 L -0.956911219971813 5.861161179232469e-15 L -0.9784600002834521 5.85872227346502e-15 L -0.9994633525265909 5.854691523370218e-15 L -1.019657147360329 5.849119617969206e-15 L -1.0387874360979066 5.842076627205299e-15 L -1.0566136442587837 5.833651120773796e-15 L -1.0729115969323189 5.8239490543066714e-15 L -1.087476337907339 5.813092436919027e-15 L -1.1001247071154145 5.801217796873674e-15 L -1.1106976439749907 5.788474464659017e-15 L -1.1190621876704903 5.77502269507152e-15 L -1.125113149211716 5.7610316519186495e-15 L -1.1287744342464328 5.7466772806858564e-15 L -1.129999999991 5.732140095920003e-15 " stroke="#191919" stroke-width="0.35 px" style="stroke-width:0.35;stroke-miterlimit:4;stroke-dasharray:none;fill:none;fill-opacity:1;fill-rule: evenodd"/>
<title>b'Shape2DView'</title>
</g>
<g id="Rectangle" transform="translate(1.854202,4.394202) scale(1,-1)">
<rect fill="#ff0000" id="origin" width="1" height="1" x="0" y="0" />
<title>b'Rectangle'</title>
</g>
</svg>