<?xml version="1.0"?>
<!DOCTYPE svg PUBLIC "-//W3C//DTD SVG 1.1//EN" "http://www.w3.org/Graphics/SVG/1.1/DTD/svg11.dtd">
<svg width="9.584446166068638mm" height="9.579221069777489mm" viewBox="0 0 9.584446166068638 9.579221069777489" xmlns="http://www.w3.org/2000/svg" version="1.1">
<g id="Shape2DView" transform="translate(2.253965,4.786127) scale(1,-1)">
<path id="Shape2DView_nwe0000"  d="M -1.794564568675 3.726452736852 L -1.18645273685543 4.3345645686724295 " stroke="#191919" stroke-width="0.35 px" style="stroke-width:0.35;stroke-miterlimit:4;stroke-dasharray:none;fill:none;fill-opacity:1;fill-rule: evenodd"/>
<path id="Shape2DView_nwe0001"  d="M -1.0735196186893394 3.0054077868646596 L -1.7945645686763498 3.7264527368506504 " stroke="#191919" stroke-width="0.35 px" style="stroke-width:0.35;stroke-miterlimit:4;stroke-dasharray:none;fill:none;fill-opacity:1;fill-rule: evenodd"/>
<path id="Shape2DView_nwe0002"  d="M -0.46540778686934026 3.6135196186846597 L -1.1864527368563498 4.33456456867065 " stroke="#191919" stroke-width="0.35 px" style="stroke-width:0.35;stroke-miterlimit:4;stroke-dasharray:none;fill:none;fill-opacity:1;fill-rule: evenodd"/>
<path id="Shape2DView_nwe0003"  d="M -1.0735196186881741 3.005407786866149 A 4.7 4.7 0 0 1 -2.16 4.8149e-15" stroke="#191919" stroke-width="0.35 px" style="stroke-width:0.35;stroke-miterlimit:4;stroke-dasharray:none;fill:none;fill-opacity:1;fill-rule: evenodd"/>
<path id="Shape2DView_nwe0004"  d="M -2.16 3.66373598126244e-15 A 4.7 4.7 0 1 1 -0.465408 3.61352" stroke="#191919" stroke-width="0.35 px" style="stroke-width:0.35;stroke-miterlimit:4;stroke-dasharray:none;fill:none;fill-opacity:1;fill-rule: evenodd"/>
<circle cx="2.54" cy="5.064876434626e-15" r="4.25" stroke="#191919" stroke-width="0.35 px" style="stroke-width:0.35;stroke-miterlimit:4;stroke-dasharray:none;fill:none"/>
<path id="Shape2DView_nwe0006"  d="M -0.4654077868683131 3.6135196186863756 A 4.7 4.7 0 0 1 -1.07352 3.00541" stroke="#191919" stroke-width="0.35 px" style="stroke-width:0.35;stroke-miterlimit:4;stroke-dasharray:none;fill:none;fill-opacity:1;fill-rule: evenodd"/>
<circle cx="2.54" cy="2.443712606447e-15" r="4.365039888643" stroke="#191919" stroke-width="0.35 px" style="stroke-width:0.35;stroke-miterlimit:4;stroke-dasharray:none;fill:none"/>
<circle cx="2.54" cy="5.064876434626e-15" r="4.25" stroke="#191919" stroke-width="0.35 px" style="stroke-width:0.35;stroke-miterlimit:4;stroke-dasharray:none;fill:none"/>
<circle cx="2.54" cy="5.151434834261e-15" r="4.055087811829" stroke="#191919" stroke-width="0.35 px" style="stroke-width:0.35;stroke-miterlimit:4;stroke-dasharray:none;fill:none"/>
<path id="Shape2DView_nwe0010"  d="M -2.16 3.663735981263e-15 L -1.825039888643003 3.665568909670978e-15 " stroke="#191919" stroke-width="0.35 px" style="stroke-width:0.35;stroke-miterlimit:4;stroke-dasharray:none;fill:none;fill-opacity:1;fill-rule: evenodd"/>
<path id="Shape2DView_nwe0011"  d="M -1.8250398886430064 3.6655689096708426e-15 L -1.8121268242991853 3.666120360919004e-15 L -1.799386314289645 3.6676264645936355e-15 L -1.7869769082990359 3.670068477939348e-15 L -1.775053035577446 3.673416011242889e-15 L -1.7637630831406548 3.677627406018905e-15 L -1.7532475491631645 3.682650253430294e-15 L -1.743637294544171 3.688422046491658e-15 L -1.7350519144049141 3.694870957939486e-15 L -1.7275982497833642 3.701916734088827e-15 L -1.721369058047503 3.709471693552849e-15 L -1.7164418585732903 3.717441818396661e-15 L -1.712877968052308 3.72572792414651e-15 L -1.7107217374342278 3.734226894094148e-15 L -1.71 3.742832962536e-15 " stroke="#191919" stroke-width="0.35 px" style="stroke-width:0.35;stroke-miterlimit:4;stroke-dasharray:none;fill:none;fill-opacity:1;fill-rule: evenodd"/>
<path id="Shape2DView_nwe0012"  d="M -1.515087811829 7.727152251391512e-15 L -1.5369110528637155 7.726335859818189e-15 L -1.5584598539802799 7.723896951695937e-15 L -1.579463226501747 7.71986619770948e-15 L -1.5996570408322186 7.714294286928896e-15 L -1.6187873480397652 7.70725128936515e-15 L -1.636613573411589 7.698825774799048e-15 L -1.6529115418206226 7.689123698964853e-15 L -1.6674762968578207 7.67826707109546e-15 L -1.6801246782779227 7.666392419585487e-15 L -1.6906976253458093 7.653649075067504e-15 L -1.6990621771175347 7.640197292492687e-15 L -1.7051131445013439 7.62620623583182e-15 L -1.708774433071532 7.611851850740212e-15 L -1.7100000000000002 7.597314651939e-15 " stroke="#191919" stroke-width="0.35 px" style="stroke-width:0.35;stroke-miterlimit:4;stroke-dasharray:none;fill:none;fill-opacity:1;fill-rule: evenodd"/>
<title>b'Shape2DView'</title>
</g>
<g id="Rectangle" transform="translate(2.253965,4.786127) scale(1,-1)">
<rect fill="#ff0000" id="origin" width="1" height="1" x="0" y="0" />
<title>b'Rectangle'</title>
</g>
</svg>