<?xml version="1.0"?>
<!DOCTYPE svg PUBLIC "-//W3C//DTD SVG 1.1//EN" "http://www.w3.org/Graphics/SVG/1.1/DTD/svg11.dtd">
<svg width="14.675968855682338mm" height="14.66507289267306mm" viewBox="0 0 14.675968855682338 14.66507289267306" xmlns="http://www.w3.org/2000/svg" version="1.1">
<g id="Shape2DView" transform="translate(3.793882,7.324140) scale(1,-1)">
<path id="Shape2DView_nwe0000"  d="M -2.552331521642 5.494219689817 L -1.9442196898219302 6.10233152163793 " stroke="#191919" stroke-width="0.35 px" style="stroke-width:0.35;stroke-miterlimit:4;stroke-dasharray:none;fill:none;fill-opacity:1;fill-rule: evenodd"/>
<path id="Shape2DView_nwe0001"  d="M -1.8361371824815929 4.778025350654406 L -2.5523315216436004 5.4942196898154005 " stroke="#191919" stroke-width="0.35 px" style="stroke-width:0.35;stroke-miterlimit:4;stroke-dasharray:none;fill:none;fill-opacity:1;fill-rule: evenodd"/>
<path id="Shape2DView_nwe0002"  d="M -1.2280253506615928 5.386137182474407 L -1.9442196898241004 6.102331521635901 " stroke="#191919" stroke-width="0.35 px" style="stroke-width:0.35;stroke-miterlimit:4;stroke-dasharray:none;fill:none;fill-opacity:1;fill-rule: evenodd"/>
<path id="Shape2DView_nwe0003"  d="M -1.8361371824797414 4.778025350655773 A 7.2 7.2 0 0 1 -3.65 5.42723e-15" stroke="#191919" stroke-width="0.35 px" style="stroke-width:0.35;stroke-miterlimit:4;stroke-dasharray:none;fill:none;fill-opacity:1;fill-rule: evenodd"/>
<path id="Shape2DView_nwe0004"  d="M -3.6500000000000004 3.663735981263e-15 A 7.2 7.2 0 1 1 -1.22803 5.38614" stroke="#191919" stroke-width="0.35 px" style="stroke-width:0.35;stroke-miterlimit:4;stroke-dasharray:none;fill:none;fill-opacity:1;fill-rule: evenodd"/>
<circle cx="3.55" cy="5.639932965096e-15" r="6.6" stroke="#191919" stroke-width="0.35 px" style="stroke-width:0.35;stroke-miterlimit:4;stroke-dasharray:none;fill:none"/>
<path id="Shape2DView_nwe0006"  d="M -0.8960015834730051 5.054113415290012 A 6.73134 6.73134 0 0 1 -1.50411 4.446" stroke="#191919" stroke-width="0.35 px" style="stroke-width:0.35;stroke-miterlimit:4;stroke-dasharray:none;fill:none;fill-opacity:1;fill-rule: evenodd"/>
<path id="Shape2DView_nwe0007"  d="M -3.181344033316 3.6637359812623634e-15 A 6.73134 6.73134 0 1 1 -0.896002 5.05411" stroke="#191919" stroke-width="0.35 px" style="stroke-width:0.35;stroke-miterlimit:4;stroke-dasharray:none;fill:none;fill-opacity:1;fill-rule: evenodd"/>
<path id="Shape2DView_nwe0008"  d="M -1.5041134152928057 4.446001583469829 A 6.73134 6.73134 0 0 1 -3.18134 5.31244e-15" stroke="#191919" stroke-width="0.35 px" style="stroke-width:0.35;stroke-miterlimit:4;stroke-dasharray:none;fill:none;fill-opacity:1;fill-rule: evenodd"/>
<circle cx="3.55" cy="5.639932965096e-15" r="6.6" stroke="#191919" stroke-width="0.35 px" style="stroke-width:0.35;stroke-miterlimit:4;stroke-dasharray:none;fill:none"/>
<circle cx="3.55" cy="5.861977570021e-15" r="6.1" stroke="#191919" stroke-width="0.35 px" style="stroke-width:0.35;stroke-miterlimit:4;stroke-dasharray:none;fill:none"/>
<path id="Shape2DView_nwe0011"  d="M -1.228025350659995 5.386137182475997 A 7.2 7.2 0 0 1 -1.83614 4.77803" stroke="#191919" stroke-width="0.35 px" style="stroke-width:0.35;stroke-miterlimit:4;stroke-dasharray:none;fill:none;fill-opacity:1;fill-rule: evenodd"/>
<path id="Shape2DView_nwe0012"  d="M -0.8960015834748578 5.054113415288141 L -1.2280253506615928 5.386137182474407 " stroke="#191919" stroke-width="0.35 px" style="stroke-width:0.35;stroke-miterlimit:4;stroke-dasharray:none;fill:none;fill-opacity:1;fill-rule: evenodd"/>
<path id="Shape2DView_nwe0013"  d="M -1.5041134152948588 4.446001583468141 L -1.8361371824815929 4.778025350654406 " stroke="#191919" stroke-width="0.35 px" style="stroke-width:0.35;stroke-miterlimit:4;stroke-dasharray:none;fill:none;fill-opacity:1;fill-rule: evenodd"/>
<path id="Shape2DView_nwe0014"  d="M -3.181344033316 3.663735981263265e-15 L -3.1666381674364787 3.664286117009067e-15 L -3.152117236352934 3.665929605970274e-15 L -3.137963849198983 3.668645780319624e-15 L -3.124355993030073 3.672400482588713e-15 L -3.111464794532989 3.677146495217977e-15 L -3.09945236800848 3.682824134344905e-15 L -3.0884697766898643 3.68936200036323e-15 L -3.0786551330352214 3.6966778758144156e-15 L -3.070131861883097 3.704679759319892e-15 L -3.0630071483135457 3.713267022551778e-15 L -3.057370589733561 3.722331675692485e-15 L -3.053293069137692 3.731759725469336e-15 L -3.050825863713266 3.741432608686103e-15 L -3.05 3.751228683224e-15 " stroke="#191919" stroke-width="0.35 px" style="stroke-width:0.35;stroke-miterlimit:4;stroke-dasharray:none;fill:none;fill-opacity:1;fill-rule: evenodd"/>
<path id="Shape2DView_nwe0015"  d="M -2.55 8.79296635503155e-15 L -2.6059822380516535 8.79087210022639e-15 L -2.661260466978157 8.7846156722802e-15 L -2.7151395309775834 8.774275749404469e-15 L -2.766941869558779 8.75998236212872e-15 L -2.816016038257668 8.741915258091163e-15 L -2.8617449009293665 8.720301641607849e-15 L -2.9035533905932738 8.695413316446567e-15 L -2.9409157412340146 8.667563267736764e-15 L -2.9733620996141417 8.637101725999938e-15 L -3.0004844339512093 8.60441176279763e-15 L -3.0219416651541837 8.569904473384268e-15 L -3.0374639560909116 8.534013806945819e-15 L -3.046856104946621 8.497191109436996e-15 L -3.05 8.459899447644e-15 " stroke="#191919" stroke-width="0.35 px" style="stroke-width:0.35;stroke-miterlimit:4;stroke-dasharray:none;fill:none;fill-opacity:1;fill-rule: evenodd"/>
<title>b'Shape2DView'</title>
</g>
<g id="Rectangle" transform="translate(3.793882,7.324140) scale(1,-1)">
<rect fill="#ff0000" id="origin" width="1" height="1" x="0" y="0" />
<title>b'Rectangle'</title>
</g>
</svg>