<?xml version="1.0"?>
<!DOCTYPE svg PUBLIC "-//W3C//DTD SVG 1.1//EN" "http://www.w3.org/Graphics/SVG/1.1/DTD/svg11.dtd">
<svg width="6.772800000000002mm" height="12.3328mm" viewBox="0 0 6.772800000000002 12.3328" xmlns="http://www.w3.org/2000/svg" version="1.1">
<g id="Shape2DView" transform="translate(2.066400,9.276400) scale(1,-1)">
<path id="Shape2DView_nwe0000"  d="M 4.64 -0.5900000000000001 L 4.640000000000001 7.210000000000001 " stroke="#191919" stroke-width="0.35 px" style="stroke-width:0.35;stroke-miterlimit:4;stroke-dasharray:none;fill:none;fill-opacity:1;fill-rule: evenodd"/>
<path id="Shape2DView_nwe0001"  d="M 4.64 9.21 L 4.64 7.21 " stroke="#191919" stroke-width="0.35 px" style="stroke-width:0.35;stroke-miterlimit:4;stroke-dasharray:none;fill:none;fill-opacity:1;fill-rule: evenodd"/>
<path id="Shape2DView_nwe0002"  d="M 4.64 -0.5899999999999999 L 4.64 -0.7019644761033077 L 4.64 -0.8125209339563142 L 4.64 -0.9202790619551668 L 4.64 -1.023883739117558 L 4.64 -1.1220320765153364 L 4.64 -1.2134898018587332 L 4.64 -1.2971067811865473 L 4.64 -1.3718314824680298 L 4.64 -1.436724199228284 L 4.64 -1.490968867902419 L 4.64 -1.5338833303083674 L 4.64 -1.5649279121818236 L 4.64 -1.5837122098932426 L 4.64 -1.5899999999999999 " stroke="#191919" stroke-width="0.35 px" style="stroke-width:0.35;stroke-miterlimit:4;stroke-dasharray:none;fill:none;fill-opacity:1;fill-rule: evenodd"/>
<path id="Shape2DView_nwe0003"  d="M 4.64 7.21 L -2.0 7.210000000000001 " stroke="#191919" stroke-width="0.35 px" style="stroke-width:0.35;stroke-miterlimit:4;stroke-dasharray:none;fill:none;fill-opacity:1;fill-rule: evenodd"/>
<path id="Shape2DView_nwe0004"  d="M -2.0000000000000004 7.21 L -2.0000000000000013 -0.5899999999999999 " stroke="#191919" stroke-width="0.35 px" style="stroke-width:0.35;stroke-miterlimit:4;stroke-dasharray:none;fill:none;fill-opacity:1;fill-rule: evenodd"/>
<path id="Shape2DView_nwe0005"  d="M -0.9999999999999999 -0.5900000000000001 L -0.9999999999999996 1.61 " stroke="#191919" stroke-width="0.35 px" style="stroke-width:0.35;stroke-miterlimit:4;stroke-dasharray:none;fill:none;fill-opacity:1;fill-rule: evenodd"/>
<path id="Shape2DView_nwe0006"  d="M 3.64 1.61 L -1.0000000000000004 1.6100000000000008 " stroke="#191919" stroke-width="0.35 px" style="stroke-width:0.35;stroke-miterlimit:4;stroke-dasharray:none;fill:none;fill-opacity:1;fill-rule: evenodd"/>
<path id="Shape2DView_nwe0007"  d="M 3.64 -0.5900000000000001 L 3.6400000000000006 1.61 " stroke="#191919" stroke-width="0.35 px" style="stroke-width:0.35;stroke-miterlimit:4;stroke-dasharray:none;fill:none;fill-opacity:1;fill-rule: evenodd"/>
<path id="Shape2DView_nwe0008"  d="M 3.64 -0.5899999999999999 L 3.64 -0.7019644761033077 L 3.64 -0.8125209339563142 L 3.64 -0.9202790619551668 L 3.64 -1.023883739117558 L 3.64 -1.1220320765153364 L 3.64 -1.2134898018587332 L 3.64 -1.2971067811865473 L 3.64 -1.3718314824680298 L 3.64 -1.436724199228284 L 3.64 -1.490968867902419 L 3.64 -1.5338833303083674 L 3.64 -1.5649279121818236 L 3.64 -1.5837122098932426 L 3.64 -1.5899999999999999 " stroke="#191919" stroke-width="0.35 px" style="stroke-width:0.35;stroke-miterlimit:4;stroke-dasharray:none;fill:none;fill-opacity:1;fill-rule: evenodd"/>
<path id="Shape2DView_nwe0009"  d="M 3.64 -1.59 L 4.64 -1.5900000000000003 " stroke="#191919" stroke-width="0.35 px" style="stroke-width:0.35;stroke-miterlimit:4;stroke-dasharray:none;fill:none;fill-opacity:1;fill-rule: evenodd"/>
<path id="Shape2DView_nwe0010"  d="M 4.64 9.21 L -2.0 9.21 " stroke="#191919" stroke-width="0.35 px" style="stroke-width:0.35;stroke-miterlimit:4;stroke-dasharray:none;fill:none;fill-opacity:1;fill-rule: evenodd"/>
<path id="Shape2DView_nwe0011"  d="M -2.0 9.21 L -2.0000000000000004 7.210000000000001 " stroke="#191919" stroke-width="0.35 px" style="stroke-width:0.35;stroke-miterlimit:4;stroke-dasharray:none;fill:none;fill-opacity:1;fill-rule: evenodd"/>
<path id="Shape2DView_nwe0012"  d="M -2.0 -1.59 L -1.0 -1.5900000000000003 " stroke="#191919" stroke-width="0.35 px" style="stroke-width:0.35;stroke-miterlimit:4;stroke-dasharray:none;fill:none;fill-opacity:1;fill-rule: evenodd"/>
<path id="Shape2DView_nwe0013"  d="M 3.64 -1.59 L 3.2399999999999998 -1.59 " stroke="#191919" stroke-width="0.35 px" style="stroke-width:0.35;stroke-miterlimit:4;stroke-dasharray:none;fill:none;fill-opacity:1;fill-rule: evenodd"/>
<path id="Shape2DView_nwe0014"  d="M 1.9399999999999995 -1.5899999999999999 L 0.6999999999999993 -1.5899999999999996 " stroke="#191919" stroke-width="0.35 px" style="stroke-width:0.35;stroke-miterlimit:4;stroke-dasharray:none;fill:none;fill-opacity:1;fill-rule: evenodd"/>
<path id="Shape2DView_nwe0015"  d="M -0.6000000000000001 -1.5899999999999996 L -1.0000000000000004 -1.5899999999999994 " stroke="#191919" stroke-width="0.35 px" style="stroke-width:0.35;stroke-miterlimit:4;stroke-dasharray:none;fill:none;fill-opacity:1;fill-rule: evenodd"/>
<path id="Shape2DView_nwe0016"  d="M -2.0 -0.5899999999999999 L -2.0 -0.7019644761033077 L -2.0 -0.8125209339563142 L -2.0 -0.9202790619551668 L -2.0 -1.023883739117558 L -2.0 -1.1220320765153364 L -2.0 -1.2134898018587332 L -2.0 -1.2971067811865473 L -2.0 -1.3718314824680298 L -2.0 -1.436724199228284 L -2.0 -1.490968867902419 L -2.0 -1.5338833303083674 L -2.0 -1.5649279121818236 L -2.0 -1.5837122098932426 L -2.0 -1.5899999999999999 " stroke="#191919" stroke-width="0.35 px" style="stroke-width:0.35;stroke-miterlimit:4;stroke-dasharray:none;fill:none;fill-opacity:1;fill-rule: evenodd"/>
<path id="Shape2DView_nwe0017"  d="M -1.0 -0.5899999999999999 L -1.0 -0.7019644761033077 L -1.0 -0.8125209339563142 L -1.0 -0.9202790619551668 L -1.0 -1.023883739117558 L -1.0 -1.1220320765153364 L -1.0 -1.2134898018587332 L -1.0 -1.2971067811865473 L -1.0 -1.3718314824680298 L -1.0 -1.436724199228284 L -1.0 -1.490968867902419 L -1.0000000000000002 -1.5338833303083674 L -1.0000000000000002 -1.5649279121818236 L -1.0000000000000002 -1.5837122098932426 L -1.0000000000000002 -1.5899999999999999 " stroke="#191919" stroke-width="0.35 px" style="stroke-width:0.35;stroke-miterlimit:4;stroke-dasharray:none;fill:none;fill-opacity:1;fill-rule: evenodd"/>
<path id="Shape2DView_nwe0018"  d="M 3.2399999999999998 -2.99 L 3.24 1.61 " stroke="#191919" stroke-width="0.35 px" style="stroke-width:0.35;stroke-miterlimit:4;stroke-dasharray:none;fill:none;fill-opacity:1;fill-rule: evenodd"/>
<path id="Shape2DView_nwe0019"  d="M 1.94 1.61 L 1.9399999999999993 -2.99 " stroke="#191919" stroke-width="0.35 px" style="stroke-width:0.35;stroke-miterlimit:4;stroke-dasharray:none;fill:none;fill-opacity:1;fill-rule: evenodd"/>
<path id="Shape2DView_nwe0020"  d="M 1.94 -2.99 L 3.24 -2.99 " stroke="#191919" stroke-width="0.35 px" style="stroke-width:0.35;stroke-miterlimit:4;stroke-dasharray:none;fill:none;fill-opacity:1;fill-rule: evenodd"/>
<path id="Shape2DView_nwe0021"  d="M -0.6 1.61 L -0.6000000000000005 -2.99 " stroke="#191919" stroke-width="0.35 px" style="stroke-width:0.35;stroke-miterlimit:4;stroke-dasharray:none;fill:none;fill-opacity:1;fill-rule: evenodd"/>
<path id="Shape2DView_nwe0022"  d="M -0.6 -2.99 L 0.6999999999999998 -2.99 " stroke="#191919" stroke-width="0.35 px" style="stroke-width:0.35;stroke-miterlimit:4;stroke-dasharray:none;fill:none;fill-opacity:1;fill-rule: evenodd"/>
<path id="Shape2DView_nwe0023"  d="M 0.6999999999999994 -2.99 L 0.7 1.61 " stroke="#191919" stroke-width="0.35 px" style="stroke-width:0.35;stroke-miterlimit:4;stroke-dasharray:none;fill:none;fill-opacity:1;fill-rule: evenodd"/>
<path id="Shape2DView_nwe0024"  d="M -2.0 -0.59 L -1.0 -0.5900000000000001 " stroke="#191919" stroke-width="0.35 px" style="stroke-width:0.35;stroke-miterlimit:4;stroke-dasharray:none;fill:none;fill-opacity:1;fill-rule: evenodd"/>
<path id="Shape2DView_nwe0025"  d="M 3.64 -0.59 L 4.64 -0.5900000000000001 " stroke="#191919" stroke-width="0.35 px" style="stroke-width:0.35;stroke-miterlimit:4;stroke-dasharray:none;fill:none;fill-opacity:1;fill-rule: evenodd"/>
<path id="Shape2DView_nwe0026"  d="M 0.8 3.06 L 0.30000000000000004 3.06 " stroke="#191919" stroke-width="0.35 px" style="stroke-width:0.35;stroke-miterlimit:4;stroke-dasharray:none;fill:none;fill-opacity:1;fill-rule: evenodd"/>
<path id="Shape2DView_nwe0027"  d="M 0.05 2.31 L 0.8000000000000002 3.06 " stroke="#191919" stroke-width="0.35 px" style="stroke-width:0.35;stroke-miterlimit:4;stroke-dasharray:none;fill:none;fill-opacity:1;fill-rule: evenodd"/>
<path id="Shape2DView_nwe0028"  d="M -0.7 3.06 L 0.050000000000000155 2.31 " stroke="#191919" stroke-width="0.35 px" style="stroke-width:0.35;stroke-miterlimit:4;stroke-dasharray:none;fill:none;fill-opacity:1;fill-rule: evenodd"/>
<path id="Shape2DView_nwe0029"  d="M -0.2 3.06 L -0.7 3.06 " stroke="#191919" stroke-width="0.35 px" style="stroke-width:0.35;stroke-miterlimit:4;stroke-dasharray:none;fill:none;fill-opacity:1;fill-rule: evenodd"/>
<path id="Shape2DView_nwe0030"  d="M -0.2 3.56 L -0.20000000000000007 3.06 " stroke="#191919" stroke-width="0.35 px" style="stroke-width:0.35;stroke-miterlimit:4;stroke-dasharray:none;fill:none;fill-opacity:1;fill-rule: evenodd"/>
<path id="Shape2DView_nwe0031"  d="M 0.3 3.56 L -0.2 3.56 " stroke="#191919" stroke-width="0.35 px" style="stroke-width:0.35;stroke-miterlimit:4;stroke-dasharray:none;fill:none;fill-opacity:1;fill-rule: evenodd"/>
<path id="Shape2DView_nwe0032"  d="M 0.3 3.06 L 0.30000000000000004 3.56 " stroke="#191919" stroke-width="0.35 px" style="stroke-width:0.35;stroke-miterlimit:4;stroke-dasharray:none;fill:none;fill-opacity:1;fill-rule: evenodd"/>
<title>b'Shape2DView'</title>
</g>
<g id="Rectangle" transform="translate(2.066400,9.276400) scale(1,-1)">
<rect fill="#ff0000" id="origin" width="1" height="1" x="0" y="0" />
<title>b'Rectangle'</title>
</g>
</svg>