<?xml version="1.0"?>
<!DOCTYPE svg PUBLIC "-//W3C//DTD SVG 1.1//EN" "http://www.w3.org/Graphics/SVG/1.1/DTD/svg11.dtd">
<svg width="7.31795146693368mm" height="6.393489244449681mm" viewBox="0 0 7.31795146693368 6.393489244449681" xmlns="http://www.w3.org/2000/svg" version="1.1">
<g id="Shape2DView" transform="translate(0.508976,1.071745) scale(1,-1)">
<circle cx="1.15" cy="-4.25" r="0.5" stroke="#191919" stroke-width="0.35 px" style="stroke-width:0.35;stroke-miterlimit:4;stroke-dasharray:none;fill:none"/>
<path id="Shape2DView_nwe0001"  d="M 0.45000000000000007 -5.25 L 5.85 -5.25 " stroke="#191919" stroke-width="0.35 px" style="stroke-width:0.35;stroke-miterlimit:4;stroke-dasharray:none;fill:none;fill-opacity:1;fill-rule: evenodd"/>
<path id="Shape2DView_nwe0002"  d="M 0.45 -5.25 A 0.3 0.3 0 0 0 0.15 -4.95" stroke="#191919" stroke-width="0.35 px" style="stroke-width:0.35;stroke-miterlimit:4;stroke-dasharray:none;fill:none;fill-opacity:1;fill-rule: evenodd"/>
<path id="Shape2DView_nwe0003"  d="M 0.15 0.45 L 0.15 -4.95 " stroke="#191919" stroke-width="0.35 px" style="stroke-width:0.35;stroke-miterlimit:4;stroke-dasharray:none;fill:none;fill-opacity:1;fill-rule: evenodd"/>
<path id="Shape2DView_nwe0004"  d="M 0.45000000000000007 0.75 A 0.3 0.3 0 0 1 0.15 0.45" stroke="#191919" stroke-width="0.35 px" style="stroke-width:0.35;stroke-miterlimit:4;stroke-dasharray:none;fill:none;fill-opacity:1;fill-rule: evenodd"/>
<path id="Shape2DView_nwe0005"  d="M 5.85 0.75 L 0.4500000000000002 0.75 " stroke="#191919" stroke-width="0.35 px" style="stroke-width:0.35;stroke-miterlimit:4;stroke-dasharray:none;fill:none;fill-opacity:1;fill-rule: evenodd"/>
<path id="Shape2DView_nwe0006"  d="M 6.1499999999999995 0.45 A 0.3 0.3 0 0 1 5.85 0.75" stroke="#191919" stroke-width="0.35 px" style="stroke-width:0.35;stroke-miterlimit:4;stroke-dasharray:none;fill:none;fill-opacity:1;fill-rule: evenodd"/>
<path id="Shape2DView_nwe0007"  d="M 6.15 -4.95 L 6.15 0.4500000000000002 " stroke="#191919" stroke-width="0.35 px" style="stroke-width:0.35;stroke-miterlimit:4;stroke-dasharray:none;fill:none;fill-opacity:1;fill-rule: evenodd"/>
<path id="Shape2DView_nwe0008"  d="M 5.85 -5.25 A 0.3 0.3 0 0 1 6.15 -4.95" stroke="#191919" stroke-width="0.35 px" style="stroke-width:0.35;stroke-miterlimit:4;stroke-dasharray:none;fill:none;fill-opacity:1;fill-rule: evenodd"/>
<circle cx="5.15" cy="-4.25" r="0.5" stroke="#191919" stroke-width="0.35 px" style="stroke-width:0.35;stroke-miterlimit:4;stroke-dasharray:none;fill:none"/>
<circle cx="1.15" cy="-0.25" r="0.5" stroke="#191919" stroke-width="0.35 px" style="stroke-width:0.35;stroke-miterlimit:4;stroke-dasharray:none;fill:none"/>
<circle cx="5.15" cy="-0.25" r="0.5" stroke="#191919" stroke-width="0.35 px" style="stroke-width:0.35;stroke-miterlimit:4;stroke-dasharray:none;fill:none"/>
<circle cx="3.15" cy="-2.25" r="1.75" stroke="#191919" stroke-width="0.35 px" style="stroke-width:0.35;stroke-miterlimit:4;stroke-dasharray:none;fill:none"/>
<path id="Shape2DView_nwe0013"  d="M -0.16223037728580478 0.35 L -0.42500073395555316 0.3500000000000005 " stroke="#191919" stroke-width="0.35 px" style="stroke-width:0.35;stroke-miterlimit:4;stroke-dasharray:none;fill:none;fill-opacity:1;fill-rule: evenodd"/>
<path id="Shape2DView_nwe0014"  d="M -0.4250007339561889 0.35 L -0.42667522861305035 0.35 L -0.4282286156182471 0.35 L -0.42966022175291124 0.35 L -0.43096942657651 0.35 L -0.43215566269573685 0.35 L -0.43321841601041294 0.35 L -0.4341572259362918 0.35 L -0.4349716856046708 0.35 L -0.4356614420387232 0.35 L -0.4362261963064738 0.35 L -0.4366657036503526 0.35 L -0.43697977359326956 0.35 L -0.437168270021165 0.35 L -0.437231111242 0.35 " stroke="#191919" stroke-width="0.35 px" style="stroke-width:0.35;stroke-miterlimit:4;stroke-dasharray:none;fill:none;fill-opacity:1;fill-rule: evenodd"/>
<path id="Shape2DView_nwe0015"  d="M 0.14000000000000004 0.35 L 0.15 0.35 " stroke="#191919" stroke-width="0.35 px" style="stroke-width:0.35;stroke-miterlimit:4;stroke-dasharray:none;fill:none;fill-opacity:1;fill-rule: evenodd"/>
<path id="Shape2DView_nwe0016"  d="M -0.14999999999999997 0.35 L -0.1481765408690403 0.35 L -0.1427290945327288 0.35 L -0.1337261657894266 0.3499999999999999 L -0.12128097169170154 0.3499999999999999 L -0.1055500177762024 0.3499999999999999 L -0.08673112991572865 0.3499999999999999 L -0.06506096654409879 0.3499999999999999 L -0.040812042539032756 0.3499999999999999 L -0.014289302189447656 0.3499999999999999 L 0.014173715655908109 0.34999999999999987 L 0.0442190720330015 0.34999999999999987 L 0.07546892915266877 0.34999999999999987 L 0.10753030193004068 0.34999999999999987 L 0.13999999999999993 0.34999999999999987 " stroke="#191919" stroke-width="0.35 px" style="stroke-width:0.35;stroke-miterlimit:4;stroke-dasharray:none;fill:none;fill-opacity:1;fill-rule: evenodd"/>
<path id="Shape2DView_nwe0017"  d="M -0.16223037728581113 0.35 L -0.16055588262895176 0.35 L -0.1590024956237568 0.35 L -0.1575708894890941 0.35 L -0.15626168466549645 0.35 L -0.15507544854627042 0.35 L -0.15401269523159478 0.35 L -0.15307388530571608 0.35 L -0.1522594256373369 0.35 L -0.15156966920328407 0.35 L -0.15100491493553264 0.35 L -0.1505654075916527 0.35 L -0.15025133764873433 0.35 L -0.15006284122083713 0.35 L -0.15000000000000002 0.35 " stroke="#191919" stroke-width="0.35 px" style="stroke-width:0.35;stroke-miterlimit:4;stroke-dasharray:none;fill:none;fill-opacity:1;fill-rule: evenodd"/>
<path id="Shape2DView_nwe0018"  d="M 0.14000000000000004 -0.35 L 0.15 -0.35 " stroke="#191919" stroke-width="0.35 px" style="stroke-width:0.35;stroke-miterlimit:4;stroke-dasharray:none;fill:none;fill-opacity:1;fill-rule: evenodd"/>
<path id="Shape2DView_nwe0019"  d="M -0.16223037728580478 -0.35 L -0.42500073395555316 -0.3499999999999995 " stroke="#191919" stroke-width="0.35 px" style="stroke-width:0.35;stroke-miterlimit:4;stroke-dasharray:none;fill:none;fill-opacity:1;fill-rule: evenodd"/>
<path id="Shape2DView_nwe0020"  d="M -0.4250007339561889 -0.35 L -0.42667522861305035 -0.35 L -0.4282286156182471 -0.35 L -0.42966022175291124 -0.35 L -0.43096942657651 -0.35 L -0.43215566269573685 -0.35 L -0.43321841601041294 -0.35 L -0.4341572259362918 -0.35 L -0.4349716856046708 -0.35 L -0.4356614420387232 -0.35 L -0.4362261963064738 -0.35 L -0.4366657036503526 -0.35 L -0.43697977359326956 -0.35 L -0.437168270021165 -0.35 L -0.437231111242 -0.35 " stroke="#191919" stroke-width="0.35 px" style="stroke-width:0.35;stroke-miterlimit:4;stroke-dasharray:none;fill:none;fill-opacity:1;fill-rule: evenodd"/>
<path id="Shape2DView_nwe0021"  d="M -0.14999999999999997 -0.35 L -0.1481765408690403 -0.35 L -0.1427290945327288 -0.35 L -0.1337261657894266 -0.35000000000000003 L -0.12128097169170154 -0.35000000000000003 L -0.1055500177762024 -0.35000000000000003 L -0.08673112991572865 -0.35000000000000003 L -0.06506096654409879 -0.35000000000000003 L -0.040812042539032756 -0.35000000000000003 L -0.014289302189447656 -0.35000000000000003 L 0.014173715655908109 -0.3500000000000001 L 0.0442190720330015 -0.3500000000000001 L 0.07546892915266877 -0.3500000000000001 L 0.10753030193004068 -0.3500000000000001 L 0.13999999999999993 -0.3500000000000001 " stroke="#191919" stroke-width="0.35 px" style="stroke-width:0.35;stroke-miterlimit:4;stroke-dasharray:none;fill:none;fill-opacity:1;fill-rule: evenodd"/>
<path id="Shape2DView_nwe0022"  d="M -0.16223037728581113 -0.35 L -0.16055588262895176 -0.35 L -0.1590024956237568 -0.35 L -0.1575708894890941 -0.35 L -0.15626168466549645 -0.35 L -0.15507544854627042 -0.35 L -0.15401269523159478 -0.35 L -0.15307388530571608 -0.35 L -0.1522594256373369 -0.35 L -0.15156966920328407 -0.35 L -0.15100491493553264 -0.35 L -0.1505654075916527 -0.35 L -0.15025133764873433 -0.35 L -0.15006284122083713 -0.35 L -0.15000000000000002 -0.35 " stroke="#191919" stroke-width="0.35 px" style="stroke-width:0.35;stroke-miterlimit:4;stroke-dasharray:none;fill:none;fill-opacity:1;fill-rule: evenodd"/>
<path id="Shape2DView_nwe0023"  d="M -0.16223037728580478 -4.85 L -0.42500073395555316 -4.849999999999999 " stroke="#191919" stroke-width="0.35 px" style="stroke-width:0.35;stroke-miterlimit:4;stroke-dasharray:none;fill:none;fill-opacity:1;fill-rule: evenodd"/>
<path id="Shape2DView_nwe0024"  d="M -0.4250007339561889 -4.85 L -0.42667522861305035 -4.85 L -0.4282286156182471 -4.85 L -0.42966022175291124 -4.85 L -0.43096942657651 -4.85 L -0.43215566269573685 -4.85 L -0.43321841601041294 -4.85 L -0.4341572259362918 -4.85 L -0.4349716856046708 -4.85 L -0.4356614420387232 -4.85 L -0.4362261963064738 -4.85 L -0.4366657036503526 -4.85 L -0.43697977359326956 -4.85 L -0.437168270021165 -4.85 L -0.437231111242 -4.85 " stroke="#191919" stroke-width="0.35 px" style="stroke-width:0.35;stroke-miterlimit:4;stroke-dasharray:none;fill:none;fill-opacity:1;fill-rule: evenodd"/>
<path id="Shape2DView_nwe0025"  d="M 0.14000000000000004 -4.85 L 0.15 -4.85 " stroke="#191919" stroke-width="0.35 px" style="stroke-width:0.35;stroke-miterlimit:4;stroke-dasharray:none;fill:none;fill-opacity:1;fill-rule: evenodd"/>
<path id="Shape2DView_nwe0026"  d="M -0.14999999999999997 -4.85 L -0.1481765408690403 -4.85 L -0.1427290945327288 -4.85 L -0.1337261657894266 -4.85 L -0.12128097169170154 -4.85 L -0.1055500177762024 -4.85 L -0.08673112991572865 -4.85 L -0.06506096654409879 -4.85 L -0.040812042539032756 -4.85 L -0.014289302189447656 -4.85 L 0.014173715655908109 -4.85 L 0.0442190720330015 -4.85 L 0.07546892915266877 -4.85 L 0.10753030193004068 -4.85 L 0.13999999999999993 -4.85 " stroke="#191919" stroke-width="0.35 px" style="stroke-width:0.35;stroke-miterlimit:4;stroke-dasharray:none;fill:none;fill-opacity:1;fill-rule: evenodd"/>
<path id="Shape2DView_nwe0027"  d="M -0.16223037728581113 -4.85 L -0.16055588262895176 -4.85 L -0.1590024956237568 -4.85 L -0.1575708894890941 -4.85 L -0.15626168466549645 -4.85 L -0.15507544854627042 -4.85 L -0.15401269523159478 -4.85 L -0.15307388530571608 -4.85 L -0.1522594256373369 -4.85 L -0.15156966920328407 -4.85 L -0.15100491493553264 -4.85 L -0.1505654075916527 -4.85 L -0.15025133764873433 -4.85 L -0.15006284122083713 -4.85 L -0.15000000000000002 -4.85 " stroke="#191919" stroke-width="0.35 px" style="stroke-width:0.35;stroke-miterlimit:4;stroke-dasharray:none;fill:none;fill-opacity:1;fill-rule: evenodd"/>
<path id="Shape2DView_nwe0028"  d="M -0.16223037728580478 -4.15 L -0.42500073395555316 -4.1499999999999995 " stroke="#191919" stroke-width="0.35 px" style="stroke-width:0.35;stroke-miterlimit:4;stroke-dasharray:none;fill:none;fill-opacity:1;fill-rule: evenodd"/>
<path id="Shape2DView_nwe0029"  d="M -0.4250007339561889 -4.15 L -0.42667522861305035 -4.15 L -0.4282286156182471 -4.15 L -0.42966022175291124 -4.15 L -0.43096942657651 -4.15 L -0.43215566269573685 -4.15 L -0.43321841601041294 -4.15 L -0.4341572259362918 -4.15 L -0.4349716856046708 -4.15 L -0.4356614420387232 -4.15 L -0.4362261963064738 -4.15 L -0.4366657036503526 -4.15 L -0.43697977359326956 -4.15 L -0.437168270021165 -4.15 L -0.437231111242 -4.15 " stroke="#191919" stroke-width="0.35 px" style="stroke-width:0.35;stroke-miterlimit:4;stroke-dasharray:none;fill:none;fill-opacity:1;fill-rule: evenodd"/>
<path id="Shape2DView_nwe0030"  d="M 0.14000000000000004 -4.15 L 0.15 -4.15 " stroke="#191919" stroke-width="0.35 px" style="stroke-width:0.35;stroke-miterlimit:4;stroke-dasharray:none;fill:none;fill-opacity:1;fill-rule: evenodd"/>
<path id="Shape2DView_nwe0031"  d="M -0.14999999999999997 -4.15 L -0.1481765408690403 -4.15 L -0.1427290945327288 -4.15 L -0.1337261657894266 -4.15 L -0.12128097169170154 -4.15 L -0.1055500177762024 -4.15 L -0.08673112991572865 -4.15 L -0.06506096654409879 -4.15 L -0.040812042539032756 -4.15 L -0.014289302189447656 -4.15 L 0.014173715655908109 -4.15 L 0.0442190720330015 -4.15 L 0.07546892915266877 -4.15 L 0.10753030193004068 -4.15 L 0.13999999999999993 -4.15 " stroke="#191919" stroke-width="0.35 px" style="stroke-width:0.35;stroke-miterlimit:4;stroke-dasharray:none;fill:none;fill-opacity:1;fill-rule: evenodd"/>
<path id="Shape2DView_nwe0032"  d="M -0.16223037728581113 -4.15 L -0.16055588262895176 -4.15 L -0.1590024956237568 -4.15 L -0.1575708894890941 -4.15 L -0.15626168466549645 -4.15 L -0.15507544854627042 -4.15 L -0.15401269523159478 -4.15 L -0.15307388530571608 -4.15 L -0.1522594256373369 -4.15 L -0.15156966920328407 -4.15 L -0.15100491493553264 -4.15 L -0.1505654075916527 -4.15 L -0.15025133764873433 -4.15 L -0.15006284122083713 -4.15 L -0.15000000000000002 -4.15 " stroke="#191919" stroke-width="0.35 px" style="stroke-width:0.35;stroke-miterlimit:4;stroke-dasharray:none;fill:none;fill-opacity:1;fill-rule: evenodd"/>
<path id="Shape2DView_nwe0033"  d="M 6.462230377285805 -4.85 L 6.725000733955554 -4.849999999999999 " stroke="#191919" stroke-width="0.35 px" style="stroke-width:0.35;stroke-miterlimit:4;stroke-dasharray:none;fill:none;fill-opacity:1;fill-rule: evenodd"/>
<path id="Shape2DView_nwe0034"  d="M 6.725000733956189 -4.85 L 6.7266752286130505 -4.85 L 6.728228615618247 -4.85 L 6.729660221752911 -4.85 L 6.73096942657651 -4.85 L 6.732155662695737 -4.85 L 6.733218416010413 -4.85 L 6.734157225936292 -4.85 L 6.734971685604671 -4.85 L 6.735661442038723 -4.85 L 6.736226196306474 -4.85 L 6.7366657036503526 -4.85 L 6.736979773593269 -4.85 L 6.737168270021165 -4.85 L 6.737231111242 -4.85 " stroke="#191919" stroke-width="0.35 px" style="stroke-width:0.35;stroke-miterlimit:4;stroke-dasharray:none;fill:none;fill-opacity:1;fill-rule: evenodd"/>
<path id="Shape2DView_nwe0035"  d="M 6.16 -4.85 L 6.15 -4.85 " stroke="#191919" stroke-width="0.35 px" style="stroke-width:0.35;stroke-miterlimit:4;stroke-dasharray:none;fill:none;fill-opacity:1;fill-rule: evenodd"/>
<path id="Shape2DView_nwe0036"  d="M 6.45 -4.85 L 6.44817654086904 -4.85 L 6.442729094532729 -4.85 L 6.433726165789427 -4.85 L 6.421280971691702 -4.85 L 6.405550017776203 -4.85 L 6.386731129915729 -4.85 L 6.365060966544099 -4.85 L 6.340812042539033 -4.85 L 6.314289302189448 -4.85 L 6.285826284344092 -4.85 L 6.255780927966999 -4.85 L 6.224531070847331 -4.85 L 6.192469698069959 -4.85 L 6.16 -4.85 " stroke="#191919" stroke-width="0.35 px" style="stroke-width:0.35;stroke-miterlimit:4;stroke-dasharray:none;fill:none;fill-opacity:1;fill-rule: evenodd"/>
<path id="Shape2DView_nwe0037"  d="M 6.462230377285811 -4.85 L 6.4605558826289515 -4.85 L 6.459002495623757 -4.85 L 6.457570889489094 -4.85 L 6.456261684665496 -4.85 L 6.45507544854627 -4.85 L 6.454012695231595 -4.85 L 6.453073885305717 -4.85 L 6.452259425637337 -4.85 L 6.451569669203284 -4.85 L 6.451004914935533 -4.85 L 6.450565407591653 -4.85 L 6.4502513376487345 -4.85 L 6.450062841220837 -4.85 L 6.45 -4.85 " stroke="#191919" stroke-width="0.35 px" style="stroke-width:0.35;stroke-miterlimit:4;stroke-dasharray:none;fill:none;fill-opacity:1;fill-rule: evenodd"/>
<path id="Shape2DView_nwe0038"  d="M 6.16 -4.15 L 6.15 -4.15 " stroke="#191919" stroke-width="0.35 px" style="stroke-width:0.35;stroke-miterlimit:4;stroke-dasharray:none;fill:none;fill-opacity:1;fill-rule: evenodd"/>
<path id="Shape2DView_nwe0039"  d="M 6.462230377285805 -4.15 L 6.725000733955554 -4.1499999999999995 " stroke="#191919" stroke-width="0.35 px" style="stroke-width:0.35;stroke-miterlimit:4;stroke-dasharray:none;fill:none;fill-opacity:1;fill-rule: evenodd"/>
<path id="Shape2DView_nwe0040"  d="M 6.725000733956189 -4.15 L 6.7266752286130505 -4.15 L 6.728228615618247 -4.15 L 6.729660221752911 -4.15 L 6.73096942657651 -4.15 L 6.732155662695737 -4.15 L 6.733218416010413 -4.15 L 6.734157225936292 -4.15 L 6.734971685604671 -4.15 L 6.735661442038723 -4.15 L 6.736226196306474 -4.15 L 6.7366657036503526 -4.15 L 6.736979773593269 -4.15 L 6.737168270021165 -4.15 L 6.737231111242 -4.15 " stroke="#191919" stroke-width="0.35 px" style="stroke-width:0.35;stroke-miterlimit:4;stroke-dasharray:none;fill:none;fill-opacity:1;fill-rule: evenodd"/>
<path id="Shape2DView_nwe0041"  d="M 6.45 -4.15 L 6.44817654086904 -4.15 L 6.442729094532729 -4.15 L 6.433726165789427 -4.15 L 6.421280971691702 -4.15 L 6.405550017776203 -4.15 L 6.386731129915729 -4.15 L 6.365060966544099 -4.15 L 6.340812042539033 -4.15 L 6.314289302189448 -4.15 L 6.285826284344092 -4.15 L 6.255780927966999 -4.15 L 6.224531070847331 -4.15 L 6.192469698069959 -4.15 L 6.16 -4.15 " stroke="#191919" stroke-width="0.35 px" style="stroke-width:0.35;stroke-miterlimit:4;stroke-dasharray:none;fill:none;fill-opacity:1;fill-rule: evenodd"/>
<path id="Shape2DView_nwe0042"  d="M 6.462230377285811 -4.15 L 6.4605558826289515 -4.15 L 6.459002495623757 -4.15 L 6.457570889489094 -4.15 L 6.456261684665496 -4.15 L 6.45507544854627 -4.15 L 6.454012695231595 -4.15 L 6.453073885305717 -4.15 L 6.452259425637337 -4.15 L 6.451569669203284 -4.15 L 6.451004914935533 -4.15 L 6.450565407591653 -4.15 L 6.4502513376487345 -4.15 L 6.450062841220837 -4.15 L 6.45 -4.15 " stroke="#191919" stroke-width="0.35 px" style="stroke-width:0.35;stroke-miterlimit:4;stroke-dasharray:none;fill:none;fill-opacity:1;fill-rule: evenodd"/>
<path id="Shape2DView_nwe0043"  d="M 6.462230377285805 0.35 L 6.725000733955554 0.3500000000000005 " stroke="#191919" stroke-width="0.35 px" style="stroke-width:0.35;stroke-miterlimit:4;stroke-dasharray:none;fill:none;fill-opacity:1;fill-rule: evenodd"/>
<path id="Shape2DView_nwe0044"  d="M 6.725000733956189 0.35 L 6.7266752286130505 0.35 L 6.728228615618247 0.35 L 6.729660221752911 0.35 L 6.73096942657651 0.35 L 6.732155662695737 0.35 L 6.733218416010413 0.35 L 6.734157225936292 0.35 L 6.734971685604671 0.35 L 6.735661442038723 0.35 L 6.736226196306474 0.35 L 6.7366657036503526 0.35 L 6.736979773593269 0.35 L 6.737168270021165 0.35 L 6.737231111242 0.35 " stroke="#191919" stroke-width="0.35 px" style="stroke-width:0.35;stroke-miterlimit:4;stroke-dasharray:none;fill:none;fill-opacity:1;fill-rule: evenodd"/>
<path id="Shape2DView_nwe0045"  d="M 6.16 0.35 L 6.15 0.35 " stroke="#191919" stroke-width="0.35 px" style="stroke-width:0.35;stroke-miterlimit:4;stroke-dasharray:none;fill:none;fill-opacity:1;fill-rule: evenodd"/>
<path id="Shape2DView_nwe0046"  d="M 6.45 0.35 L 6.44817654086904 0.35 L 6.442729094532729 0.35 L 6.433726165789427 0.3499999999999999 L 6.421280971691702 0.3499999999999999 L 6.405550017776203 0.3499999999999999 L 6.386731129915729 0.3499999999999999 L 6.365060966544099 0.3499999999999999 L 6.340812042539033 0.3499999999999999 L 6.314289302189448 0.3499999999999999 L 6.285826284344092 0.34999999999999987 L 6.255780927966999 0.34999999999999987 L 6.224531070847331 0.34999999999999987 L 6.192469698069959 0.34999999999999987 L 6.16 0.34999999999999987 " stroke="#191919" stroke-width="0.35 px" style="stroke-width:0.35;stroke-miterlimit:4;stroke-dasharray:none;fill:none;fill-opacity:1;fill-rule: evenodd"/>
<path id="Shape2DView_nwe0047"  d="M 6.462230377285811 0.35 L 6.4605558826289515 0.35 L 6.459002495623757 0.35 L 6.457570889489094 0.35 L 6.456261684665496 0.35 L 6.45507544854627 0.35 L 6.454012695231595 0.35 L 6.453073885305717 0.35 L 6.452259425637337 0.35 L 6.451569669203284 0.35 L 6.451004914935533 0.35 L 6.450565407591653 0.35 L 6.4502513376487345 0.35 L 6.450062841220837 0.35 L 6.45 0.35 " stroke="#191919" stroke-width="0.35 px" style="stroke-width:0.35;stroke-miterlimit:4;stroke-dasharray:none;fill:none;fill-opacity:1;fill-rule: evenodd"/>
<path id="Shape2DView_nwe0048"  d="M 6.462230377285805 -0.35 L 6.725000733955554 -0.3499999999999995 " stroke="#191919" stroke-width="0.35 px" style="stroke-width:0.35;stroke-miterlimit:4;stroke-dasharray:none;fill:none;fill-opacity:1;fill-rule: evenodd"/>
<path id="Shape2DView_nwe0049"  d="M 6.725000733956189 -0.35 L 6.7266752286130505 -0.35 L 6.728228615618247 -0.35 L 6.729660221752911 -0.35 L 6.73096942657651 -0.35 L 6.732155662695737 -0.35 L 6.733218416010413 -0.35 L 6.734157225936292 -0.35 L 6.734971685604671 -0.35 L 6.735661442038723 -0.35 L 6.736226196306474 -0.35 L 6.7366657036503526 -0.35 L 6.736979773593269 -0.35 L 6.737168270021165 -0.35 L 6.737231111242 -0.35 " stroke="#191919" stroke-width="0.35 px" style="stroke-width:0.35;stroke-miterlimit:4;stroke-dasharray:none;fill:none;fill-opacity:1;fill-rule: evenodd"/>
<path id="Shape2DView_nwe0050"  d="M 6.16 -0.35 L 6.15 -0.35 " stroke="#191919" stroke-width="0.35 px" style="stroke-width:0.35;stroke-miterlimit:4;stroke-dasharray:none;fill:none;fill-opacity:1;fill-rule: evenodd"/>
<path id="Shape2DView_nwe0051"  d="M 6.45 -0.35 L 6.44817654086904 -0.35 L 6.442729094532729 -0.35 L 6.433726165789427 -0.35000000000000003 L 6.421280971691702 -0.35000000000000003 L 6.405550017776203 -0.35000000000000003 L 6.386731129915729 -0.35000000000000003 L 6.365060966544099 -0.35000000000000003 L 6.340812042539033 -0.35000000000000003 L 6.314289302189448 -0.35000000000000003 L 6.285826284344092 -0.3500000000000001 L 6.255780927966999 -0.3500000000000001 L 6.224531070847331 -0.3500000000000001 L 6.192469698069959 -0.3500000000000001 L 6.16 -0.3500000000000001 " stroke="#191919" stroke-width="0.35 px" style="stroke-width:0.35;stroke-miterlimit:4;stroke-dasharray:none;fill:none;fill-opacity:1;fill-rule: evenodd"/>
<path id="Shape2DView_nwe0052"  d="M 6.462230377285811 -0.35 L 6.4605558826289515 -0.35 L 6.459002495623757 -0.35 L 6.457570889489094 -0.35 L 6.456261684665496 -0.35 L 6.45507544854627 -0.35 L 6.454012695231595 -0.35 L 6.453073885305717 -0.35 L 6.452259425637337 -0.35 L 6.451569669203284 -0.35 L 6.451004914935533 -0.35 L 6.450565407591653 -0.35 L 6.4502513376487345 -0.35 L 6.450062841220837 -0.35 L 6.45 -0.35 " stroke="#191919" stroke-width="0.35 px" style="stroke-width:0.35;stroke-miterlimit:4;stroke-dasharray:none;fill:none;fill-opacity:1;fill-rule: evenodd"/>
<path id="Shape2DView_nwe0053"  d="M -0.15 -0.35 L -0.15 0.35 " stroke="#191919" stroke-width="0.35 px" style="stroke-width:0.35;stroke-miterlimit:4;stroke-dasharray:none;fill:none;fill-opacity:1;fill-rule: evenodd"/>
<path id="Shape2DView_nwe0054"  d="M -0.15 -4.85 L -0.15 -4.15 " stroke="#191919" stroke-width="0.35 px" style="stroke-width:0.35;stroke-miterlimit:4;stroke-dasharray:none;fill:none;fill-opacity:1;fill-rule: evenodd"/>
<path id="Shape2DView_nwe0055"  d="M 6.45 -4.85 L 6.45 -4.15 " stroke="#191919" stroke-width="0.35 px" style="stroke-width:0.35;stroke-miterlimit:4;stroke-dasharray:none;fill:none;fill-opacity:1;fill-rule: evenodd"/>
<path id="Shape2DView_nwe0057"  d="M 6.45 -0.35 L 6.45 0.35 " stroke="#191919" stroke-width="0.35 px" style="stroke-width:0.35;stroke-miterlimit:4;stroke-dasharray:none;fill:none;fill-opacity:1;fill-rule: evenodd"/>
<circle cx="3.15" cy="-2.25" r="1.75" stroke="#191919" stroke-width="0.35 px" style="stroke-width:0.35;stroke-miterlimit:4;stroke-dasharray:none;fill:none"/>
<circle cx="3.15" cy="-2.25" r="1.65" stroke="#191919" stroke-width="0.35 px" style="stroke-width:0.35;stroke-miterlimit:4;stroke-dasharray:none;fill:none"/>
<path id="Shape2DView_nwe0060"  d="M 0.14 -0.35 L 0.14 0.35 " stroke="#191919" stroke-width="0.35 px" style="stroke-width:0.35;stroke-miterlimit:4;stroke-dasharray:none;fill:none;fill-opacity:1;fill-rule: evenodd"/>
<path id="Shape2DView_nwe0061"  d="M 0.14 -4.85 L 0.14 -4.15 " stroke="#191919" stroke-width="0.35 px" style="stroke-width:0.35;stroke-miterlimit:4;stroke-dasharray:none;fill:none;fill-opacity:1;fill-rule: evenodd"/>
<path id="Shape2DView_nwe0062"  d="M 6.16 -4.85 L 6.16 -4.15 " stroke="#191919" stroke-width="0.35 px" style="stroke-width:0.35;stroke-miterlimit:4;stroke-dasharray:none;fill:none;fill-opacity:1;fill-rule: evenodd"/>
<path id="Shape2DView_nwe0063"  d="M 6.16 -0.35 L 6.16 0.35 " stroke="#191919" stroke-width="0.35 px" style="stroke-width:0.35;stroke-miterlimit:4;stroke-dasharray:none;fill:none;fill-opacity:1;fill-rule: evenodd"/>
<path id="Shape2DView_nwe0064"  d="M -0.162230377286 -0.35 L -0.162230377286 0.35 " stroke="#191919" stroke-width="0.35 px" style="stroke-width:0.35;stroke-miterlimit:4;stroke-dasharray:none;fill:none;fill-opacity:1;fill-rule: evenodd"/>
<path id="Shape2DView_nwe0065"  d="M -0.425000733956 -0.35 L -0.425000733956 0.35 " stroke="#191919" stroke-width="0.35 px" style="stroke-width:0.35;stroke-miterlimit:4;stroke-dasharray:none;fill:none;fill-opacity:1;fill-rule: evenodd"/>
<path id="Shape2DView_nwe0066"  d="M -0.162230377286 -4.85 L -0.162230377286 -4.15 " stroke="#191919" stroke-width="0.35 px" style="stroke-width:0.35;stroke-miterlimit:4;stroke-dasharray:none;fill:none;fill-opacity:1;fill-rule: evenodd"/>
<path id="Shape2DView_nwe0067"  d="M -0.425000733956 -4.85 L -0.425000733956 -4.15 " stroke="#191919" stroke-width="0.35 px" style="stroke-width:0.35;stroke-miterlimit:4;stroke-dasharray:none;fill:none;fill-opacity:1;fill-rule: evenodd"/>
<path id="Shape2DView_nwe0068"  d="M 6.462230377286 -4.85 L 6.462230377286 -4.15 " stroke="#191919" stroke-width="0.35 px" style="stroke-width:0.35;stroke-miterlimit:4;stroke-dasharray:none;fill:none;fill-opacity:1;fill-rule: evenodd"/>
<path id="Shape2DView_nwe0069"  d="M 6.725000733956 -4.85 L 6.725000733956 -4.15 " stroke="#191919" stroke-width="0.35 px" style="stroke-width:0.35;stroke-miterlimit:4;stroke-dasharray:none;fill:none;fill-opacity:1;fill-rule: evenodd"/>
<path id="Shape2DView_nwe0070"  d="M 6.462230377286 -0.35 L 6.462230377286 0.35 " stroke="#191919" stroke-width="0.35 px" style="stroke-width:0.35;stroke-miterlimit:4;stroke-dasharray:none;fill:none;fill-opacity:1;fill-rule: evenodd"/>
<path id="Shape2DView_nwe0071"  d="M 6.725000733956 -0.35 L 6.725000733956 0.35 " stroke="#191919" stroke-width="0.35 px" style="stroke-width:0.35;stroke-miterlimit:4;stroke-dasharray:none;fill:none;fill-opacity:1;fill-rule: evenodd"/>
<path id="Shape2DView_nwe0072"  d="M 4.8 -2.25 L 4.811196447610331 -2.25 L 4.822252093395631 -2.25 L 4.833027906195516 -2.25 L 4.843388373911756 -2.25 L 4.853203207651534 -2.25 L 4.862348980185873 -2.25 L 4.870710678118654 -2.25 L 4.878183148246803 -2.25 L 4.884672419922828 -2.25 L 4.890096886790242 -2.25 L 4.894388333030837 -2.25 L 4.897492791218182 -2.25 L 4.899371220989324 -2.25 L 4.8999999999999995 -2.25 " stroke="#191919" stroke-width="0.35 px" style="stroke-width:0.35;stroke-miterlimit:4;stroke-dasharray:none;fill:none;fill-opacity:1;fill-rule: evenodd"/>
<path id="Shape2DView_nwe0073"  d="M -0.437231111242 -0.35 L -0.437231111242 0.35 " stroke="#191919" stroke-width="0.35 px" style="stroke-width:0.35;stroke-miterlimit:4;stroke-dasharray:none;fill:none;fill-opacity:1;fill-rule: evenodd"/>
<path id="Shape2DView_nwe0074"  d="M -0.437231111242 -4.85 L -0.437231111242 -4.15 " stroke="#191919" stroke-width="0.35 px" style="stroke-width:0.35;stroke-miterlimit:4;stroke-dasharray:none;fill:none;fill-opacity:1;fill-rule: evenodd"/>
<path id="Shape2DView_nwe0075"  d="M 6.737231111242 -4.85 L 6.737231111242 -4.15 " stroke="#191919" stroke-width="0.35 px" style="stroke-width:0.35;stroke-miterlimit:4;stroke-dasharray:none;fill:none;fill-opacity:1;fill-rule: evenodd"/>
<path id="Shape2DView_nwe0076"  d="M 6.737231111242 -0.35 L 6.737231111242 0.35 " stroke="#191919" stroke-width="0.35 px" style="stroke-width:0.35;stroke-miterlimit:4;stroke-dasharray:none;fill:none;fill-opacity:1;fill-rule: evenodd"/>
<title>b'Shape2DView'</title>
</g>
<g id="Rectangle" transform="translate(0.508976,1.071745) scale(1,-1)">
<rect fill="#ff0000" id="origin" width="1" height="1" x="0" y="0" />
<title>b'Rectangle'</title>
</g>
</svg>