<?xml version="1.0"?>
<!DOCTYPE svg PUBLIC "-//W3C//DTD SVG 1.1//EN" "http://www.w3.org/Graphics/SVG/1.1/DTD/svg11.dtd">
<svg width="19.728348441255264mm" height="12.086830361593567mm" viewBox="0 0 19.728348441255264 12.086830361593567" xmlns="http://www.w3.org/2000/svg" version="1.1">
<g id="Shape2DView" transform="translate(6.418286,2.983415) scale(1,-1)">
<path id="Shape2DView_nwe0000"  d="M 8.140638795574 -8.91 L 8.197789106384313 -8.892579426465291 " stroke="#191919" stroke-width="0.35 px" style="stroke-width:0.35;stroke-miterlimit:4;stroke-dasharray:none;fill:none;fill-opacity:1;fill-rule: evenodd"/>
<path id="Shape2DView_nwe0001"  d="M 8.197789106384 -8.892579426465 L 8.197789106384 -8.870477243536214 " stroke="#191919" stroke-width="0.35 px" style="stroke-width:0.35;stroke-miterlimit:4;stroke-dasharray:none;fill:none;fill-opacity:1;fill-rule: evenodd"/>
<path id="Shape2DView_nwe0002"  d="M 8.197789106384 1.2551663841338367 L 8.197789106384 1.2746462741729996 " stroke="#191919" stroke-width="0.35 px" style="stroke-width:0.35;stroke-miterlimit:4;stroke-dasharray:none;fill:none;fill-opacity:1;fill-rule: evenodd"/>
<path id="Shape2DView_nwe0003"  d="M 8.197789106382846 1.2746462741710742 L 8.140638795572615 1.2899999999982388 " stroke="#191919" stroke-width="0.35 px" style="stroke-width:0.35;stroke-miterlimit:4;stroke-dasharray:none;fill:none;fill-opacity:1;fill-rule: evenodd"/>
<path id="Shape2DView_nwe0004"  d="M 4.494671845641 1.29 L 4.494671845641 2.04 " stroke="#191919" stroke-width="0.35 px" style="stroke-width:0.35;stroke-miterlimit:4;stroke-dasharray:none;fill:none;fill-opacity:1;fill-rule: evenodd"/>
<path id="Shape2DView_nwe0005"  d="M 5.066248612139 2.04 L 5.066248612139 2.79 " stroke="#191919" stroke-width="0.35 px" style="stroke-width:0.35;stroke-miterlimit:4;stroke-dasharray:none;fill:none;fill-opacity:1;fill-rule: evenodd"/>
<path id="Shape2DView_nwe0006"  d="M 0.21639634933259044 1.2900000000000003 L -5.482050807568591 1.2899999999999998 " stroke="#191919" stroke-width="0.35 px" style="stroke-width:0.35;stroke-miterlimit:4;stroke-dasharray:none;fill:none;fill-opacity:1;fill-rule: evenodd"/>
<path id="Shape2DView_nwe0007"  d="M -5.482050807569434 1.29 L -5.532050807569693 1.29 " stroke="#191919" stroke-width="0.35 px" style="stroke-width:0.35;stroke-miterlimit:4;stroke-dasharray:none;fill:none;fill-opacity:1;fill-rule: evenodd"/>
<path id="Shape2DView_nwe0008"  d="M -5.532050807568181 1.2899999999999994 L -6.224871130595231 1.2899999999999994 " stroke="#191919" stroke-width="0.35 px" style="stroke-width:0.35;stroke-miterlimit:4;stroke-dasharray:none;fill:none;fill-opacity:1;fill-rule: evenodd"/>
<path id="Shape2DView_nwe0009"  d="M 0.216396349333 2.7899999999999996 L 0.216396349333 1.2899999999999996 " stroke="#191919" stroke-width="0.35 px" style="stroke-width:0.35;stroke-miterlimit:4;stroke-dasharray:none;fill:none;fill-opacity:1;fill-rule: evenodd"/>
<path id="Shape2DView_nwe0010"  d="M -6.224871130596 1.29 L -6.224871130596 0.29000000000000004 " stroke="#191919" stroke-width="0.35 px" style="stroke-width:0.35;stroke-miterlimit:4;stroke-dasharray:none;fill:none;fill-opacity:1;fill-rule: evenodd"/>
<path id="Shape2DView_nwe0011"  d="M 5.066248612139 2.79 L 1.3162486121377013 2.79 " stroke="#191919" stroke-width="0.35 px" style="stroke-width:0.35;stroke-miterlimit:4;stroke-dasharray:none;fill:none;fill-opacity:1;fill-rule: evenodd"/>
<path id="Shape2DView_nwe0012"  d="M 1.3162486121385495 2.79 L 0.21639634933262952 2.79 " stroke="#191919" stroke-width="0.35 px" style="stroke-width:0.35;stroke-miterlimit:4;stroke-dasharray:none;fill:none;fill-opacity:1;fill-rule: evenodd"/>
<path id="Shape2DView_nwe0013"  d="M -6.224871130596 0.29 L -5.791858428704 0.29 " stroke="#191919" stroke-width="0.35 px" style="stroke-width:0.35;stroke-miterlimit:4;stroke-dasharray:none;fill:none;fill-opacity:1;fill-rule: evenodd"/>
<path id="Shape2DView_nwe0014"  d="M 5.066248612139 2.04 L 1.3162486121377013 2.04 " stroke="#191919" stroke-width="0.35 px" style="stroke-width:0.35;stroke-miterlimit:4;stroke-dasharray:none;fill:none;fill-opacity:1;fill-rule: evenodd"/>
<path id="Shape2DView_nwe0015"  d="M 1.316248612139 2.0399999999999996 L 1.316248612139 2.7899999999999996 " stroke="#191919" stroke-width="0.35 px" style="stroke-width:0.35;stroke-miterlimit:4;stroke-dasharray:none;fill:none;fill-opacity:1;fill-rule: evenodd"/>
<path id="Shape2DView_nwe0016"  d="M -5.791858428704 0.29 L -5.791858428704 -3.31 " stroke="#191919" stroke-width="0.35 px" style="stroke-width:0.35;stroke-miterlimit:4;stroke-dasharray:none;fill:none;fill-opacity:1;fill-rule: evenodd"/>
<path id="Shape2DView_nwe0017"  d="M 0.7446718456406209 2.04 L 1.3162486121384798 2.04 " stroke="#191919" stroke-width="0.35 px" style="stroke-width:0.35;stroke-miterlimit:4;stroke-dasharray:none;fill:none;fill-opacity:1;fill-rule: evenodd"/>
<path id="Shape2DView_nwe0018"  d="M -5.791858428704 -3.31 L -6.224871130596 -3.31 " stroke="#191919" stroke-width="0.35 px" style="stroke-width:0.35;stroke-miterlimit:4;stroke-dasharray:none;fill:none;fill-opacity:1;fill-rule: evenodd"/>
<path id="Shape2DView_nwe0019"  d="M 0.744671845641 1.2899999999999996 L 0.744671845641 2.0399999999999996 " stroke="#191919" stroke-width="0.35 px" style="stroke-width:0.35;stroke-miterlimit:4;stroke-dasharray:none;fill:none;fill-opacity:1;fill-rule: evenodd"/>
<path id="Shape2DView_nwe0020"  d="M -6.224871130596 -3.31 L -6.224871130596 -4.31 " stroke="#191919" stroke-width="0.35 px" style="stroke-width:0.35;stroke-miterlimit:4;stroke-dasharray:none;fill:none;fill-opacity:1;fill-rule: evenodd"/>
<path id="Shape2DView_nwe0021"  d="M 8.140638795574 1.29 L 4.390638795572701 1.29 " stroke="#191919" stroke-width="0.35 px" style="stroke-width:0.35;stroke-miterlimit:4;stroke-dasharray:none;fill:none;fill-opacity:1;fill-rule: evenodd"/>
<path id="Shape2DView_nwe0022"  d="M 4.3906387955732 1.29 L 0.7446718456407907 1.29 " stroke="#191919" stroke-width="0.35 px" style="stroke-width:0.35;stroke-miterlimit:4;stroke-dasharray:none;fill:none;fill-opacity:1;fill-rule: evenodd"/>
<path id="Shape2DView_nwe0023"  d="M -6.224871130596 -4.31 L -5.791858428704 -4.31 " stroke="#191919" stroke-width="0.35 px" style="stroke-width:0.35;stroke-miterlimit:4;stroke-dasharray:none;fill:none;fill-opacity:1;fill-rule: evenodd"/>
<path id="Shape2DView_nwe0024"  d="M 8.197789106383711 1.2746462741723321 L 8.115335027612392 1.2798287906699135 " stroke="#191919" stroke-width="0.35 px" style="stroke-width:0.35;stroke-miterlimit:4;stroke-dasharray:none;fill:none;fill-opacity:1;fill-rule: evenodd"/>
<path id="Shape2DView_nwe0025"  d="M 10.86605998154824 0.457073893683 L 8.115335027611858 1.2798287906711932 " stroke="#191919" stroke-width="0.35 px" style="stroke-width:0.35;stroke-miterlimit:4;stroke-dasharray:none;fill:none;fill-opacity:1;fill-rule: evenodd"/>
<path id="Shape2DView_nwe0026"  d="M 8.536195844107642 0.24999999999978628 L 4.3906387955740165 1.2900000000014378 " stroke="#191919" stroke-width="0.35 px" style="stroke-width:0.35;stroke-miterlimit:4;stroke-dasharray:none;fill:none;fill-opacity:1;fill-rule: evenodd"/>
<path id="Shape2DView_nwe0027"  d="M -5.791858428704 -4.31 L -5.791858428704 -7.91 " stroke="#191919" stroke-width="0.35 px" style="stroke-width:0.35;stroke-miterlimit:4;stroke-dasharray:none;fill:none;fill-opacity:1;fill-rule: evenodd"/>
<path id="Shape2DView_nwe0028"  d="M 8.11533502761265 -8.898459589414104 L 8.197789106383913 -8.892579426464927 " stroke="#191919" stroke-width="0.35 px" style="stroke-width:0.35;stroke-miterlimit:4;stroke-dasharray:none;fill:none;fill-opacity:1;fill-rule: evenodd"/>
<path id="Shape2DView_nwe0029"  d="M -5.791858428704 -7.91 L -6.224871130596 -7.91 " stroke="#191919" stroke-width="0.35 px" style="stroke-width:0.35;stroke-miterlimit:4;stroke-dasharray:none;fill:none;fill-opacity:1;fill-rule: evenodd"/>
<path id="Shape2DView_nwe0030"  d="M 8.140638795574 -8.91 L 4.390638795572701 -8.91 " stroke="#191919" stroke-width="0.35 px" style="stroke-width:0.35;stroke-miterlimit:4;stroke-dasharray:none;fill:none;fill-opacity:1;fill-rule: evenodd"/>
<path id="Shape2DView_nwe0031"  d="M 4.3906387955740644 -8.910000000000325 L 8.536195844108326 -7.730000000000219 " stroke="#191919" stroke-width="0.35 px" style="stroke-width:0.35;stroke-miterlimit:4;stroke-dasharray:none;fill:none;fill-opacity:1;fill-rule: evenodd"/>
<path id="Shape2DView_nwe0032"  d="M 8.115335027613078 -8.898459589414692 L 10.876704697114397 -7.961336740647 " stroke="#191919" stroke-width="0.35 px" style="stroke-width:0.35;stroke-miterlimit:4;stroke-dasharray:none;fill:none;fill-opacity:1;fill-rule: evenodd"/>
<path id="Shape2DView_nwe0033"  d="M -6.224871130596 -7.91 L -6.224871130596 -8.91 " stroke="#191919" stroke-width="0.35 px" style="stroke-width:0.35;stroke-miterlimit:4;stroke-dasharray:none;fill:none;fill-opacity:1;fill-rule: evenodd"/>
<path id="Shape2DView_nwe0034"  d="M 0.7446718456406209 -8.91 L 4.390638795573031 -8.91 " stroke="#191919" stroke-width="0.35 px" style="stroke-width:0.35;stroke-miterlimit:4;stroke-dasharray:none;fill:none;fill-opacity:1;fill-rule: evenodd"/>
<path id="Shape2DView_nwe0035"  d="M -6.224871130596 -8.91 L -5.53205080756895 -8.91 " stroke="#191919" stroke-width="0.35 px" style="stroke-width:0.35;stroke-miterlimit:4;stroke-dasharray:none;fill:none;fill-opacity:1;fill-rule: evenodd"/>
<path id="Shape2DView_nwe0036"  d="M -5.532050807569693 -8.91 L -5.482050807569434 -8.91 " stroke="#191919" stroke-width="0.35 px" style="stroke-width:0.35;stroke-miterlimit:4;stroke-dasharray:none;fill:none;fill-opacity:1;fill-rule: evenodd"/>
<path id="Shape2DView_nwe0037"  d="M -5.4820508075691 -8.91 L 0.21639634933208018 -8.91 " stroke="#191919" stroke-width="0.35 px" style="stroke-width:0.35;stroke-miterlimit:4;stroke-dasharray:none;fill:none;fill-opacity:1;fill-rule: evenodd"/>
<path id="Shape2DView_nwe0038"  d="M 0.7446718456409998 -8.91 L 0.21639634933170138 -8.91 " stroke="#191919" stroke-width="0.35 px" style="stroke-width:0.35;stroke-miterlimit:4;stroke-dasharray:none;fill:none;fill-opacity:1;fill-rule: evenodd"/>
<path id="Shape2DView_nwe0039"  d="M 0.744671845641 -8.16 L 0.744671845641 -8.91 " stroke="#191919" stroke-width="0.35 px" style="stroke-width:0.35;stroke-miterlimit:4;stroke-dasharray:none;fill:none;fill-opacity:1;fill-rule: evenodd"/>
<path id="Shape2DView_nwe0040"  d="M 0.216396349333 -8.91 L 0.216396349333 -7.41 " stroke="#191919" stroke-width="0.35 px" style="stroke-width:0.35;stroke-miterlimit:4;stroke-dasharray:none;fill:none;fill-opacity:1;fill-rule: evenodd"/>
<path id="Shape2DView_nwe0041"  d="M 1.3162486121390002 -7.41 L 0.21639634933170138 -7.41 " stroke="#191919" stroke-width="0.35 px" style="stroke-width:0.35;stroke-miterlimit:4;stroke-dasharray:none;fill:none;fill-opacity:1;fill-rule: evenodd"/>
<path id="Shape2DView_nwe0042"  d="M 1.3162486121385495 -8.16 L 0.7446718456406902 -8.16 " stroke="#191919" stroke-width="0.35 px" style="stroke-width:0.35;stroke-miterlimit:4;stroke-dasharray:none;fill:none;fill-opacity:1;fill-rule: evenodd"/>
<path id="Shape2DView_nwe0043"  d="M 0.21639634933259044 -7.41 L 1.31624861213851 -7.41 " stroke="#191919" stroke-width="0.35 px" style="stroke-width:0.35;stroke-miterlimit:4;stroke-dasharray:none;fill:none;fill-opacity:1;fill-rule: evenodd"/>
<path id="Shape2DView_nwe0044"  d="M 1.316248612139 -7.41 L 1.316248612139 -8.16 " stroke="#191919" stroke-width="0.35 px" style="stroke-width:0.35;stroke-miterlimit:4;stroke-dasharray:none;fill:none;fill-opacity:1;fill-rule: evenodd"/>
<path id="Shape2DView_nwe0045"  d="M -5.482050807569 -8.91 L -5.482050807569 1.2899999999999991 " stroke="#191919" stroke-width="0.35 px" style="stroke-width:0.35;stroke-miterlimit:4;stroke-dasharray:none;fill:none;fill-opacity:1;fill-rule: evenodd"/>
<path id="Shape2DView_nwe0046"  d="M 4.390638795574 -8.91 L 4.390638795574 1.2899999999999991 " stroke="#191919" stroke-width="0.35 px" style="stroke-width:0.35;stroke-miterlimit:4;stroke-dasharray:none;fill:none;fill-opacity:1;fill-rule: evenodd"/>
<path id="Shape2DView_nwe0047"  d="M 3.178203230276 -7.0 L 3.178203230276 -0.5999999999999996 " stroke="#191919" stroke-width="0.35 px" style="stroke-width:0.35;stroke-miterlimit:4;stroke-dasharray:none;fill:none;fill-opacity:1;fill-rule: evenodd"/>
<path id="Shape2DView_nwe0048"  d="M 3.1782032302757015 -0.6 A 0.3 0.259808 -90 0 0 3.43801 -0.3" stroke="#191919" stroke-width="0.35 px" style="stroke-width:0.35;stroke-miterlimit:4;stroke-dasharray:none;fill:none;fill-opacity:1;fill-rule: evenodd"/>
<path id="Shape2DView_nwe0049"  d="M 3.7844210129242004 -0.3 L 3.4380108514103007 -0.3 " stroke="#191919" stroke-width="0.35 px" style="stroke-width:0.35;stroke-miterlimit:4;stroke-dasharray:none;fill:none;fill-opacity:1;fill-rule: evenodd"/>
<path id="Shape2DView_nwe0050"  d="M 3.784421012925 -0.3 A 0.3 0.259808 -90 0 0 4.04423 -0.6" stroke="#191919" stroke-width="0.35 px" style="stroke-width:0.35;stroke-miterlimit:4;stroke-dasharray:none;fill:none;fill-opacity:1;fill-rule: evenodd"/>
<path id="Shape2DView_nwe0051"  d="M 4.04422863406 -7.0 L 4.04422863406 -0.5999999999999996 " stroke="#191919" stroke-width="0.35 px" style="stroke-width:0.35;stroke-miterlimit:4;stroke-dasharray:none;fill:none;fill-opacity:1;fill-rule: evenodd"/>
<path id="Shape2DView_nwe0052"  d="M 3.784421012925 -7.3 A 0.3 0.259808 90 0 1 4.04423 -7" stroke="#191919" stroke-width="0.35 px" style="stroke-width:0.35;stroke-miterlimit:4;stroke-dasharray:none;fill:none;fill-opacity:1;fill-rule: evenodd"/>
<path id="Shape2DView_nwe0053"  d="M 3.7844210129242004 -7.3 L 3.4380108514103007 -7.3 " stroke="#191919" stroke-width="0.35 px" style="stroke-width:0.35;stroke-miterlimit:4;stroke-dasharray:none;fill:none;fill-opacity:1;fill-rule: evenodd"/>
<path id="Shape2DView_nwe0054"  d="M 3.1782032302757015 -7.0 A 0.3 0.259808 90 0 1 3.43801 -7.3" stroke="#191919" stroke-width="0.35 px" style="stroke-width:0.35;stroke-miterlimit:4;stroke-dasharray:none;fill:none;fill-opacity:1;fill-rule: evenodd"/>
<path id="Shape2DView_nwe0055"  d="M -5.532050807569 -8.91 L -5.532050807569 1.29 " stroke="#191919" stroke-width="0.35 px" style="stroke-width:0.35;stroke-miterlimit:4;stroke-dasharray:none;fill:none;fill-opacity:1;fill-rule: evenodd"/>
<path id="Shape2DView_nwe0056"  d="M 9.178114816233 -6.561141135459001 L 9.178114816233 -1.055814051162999 " stroke="#191919" stroke-width="0.35 px" style="stroke-width:0.35;stroke-miterlimit:4;stroke-dasharray:none;fill:none;fill-opacity:1;fill-rule: evenodd"/>
<path id="Shape2DView_nwe0057"  d="M 8.536195844108416 -7.7299999999996585 L 8.563038785623132 -7.76023862563712 L 8.591509717280687 -7.788693454291905 L 8.621506862740837 -7.8152627671879085 L 8.65292298983713 -7.8398515857883595 L 8.685645793904616 -7.862372011319938 L 8.719558299240482 -7.882743538988526 L 8.75453927726243 -7.9008933457633885 L 8.790463679870028 -7.916756550700974 L 8.827203086459878 -7.930276446877796 L 8.864626162996608 -7.941404704103265 L 8.902599131498647 -7.950101541687822 L 8.940986248260494 -7.956335870648791 L 8.979650289101938 -7.960085404845588 L 9.018453039909613 -7.961336740647 " stroke="#191919" stroke-width="0.35 px" style="stroke-width:0.35;stroke-miterlimit:4;stroke-dasharray:none;fill:none;fill-opacity:1;fill-rule: evenodd"/>
<path id="Shape2DView_nwe0058"  d="M 9.018453039909613 -7.961336740647 L 9.16293211790115 -7.943783827059336 L 9.30016641163015 -7.892005262677551 L 9.423274420568518 -7.808597440928209 L 9.52608299509379 -7.697742778274568 L 9.603436883988032 -7.564999990390854 L 9.651457240260367 -7.417025354947187 L 9.66773612273175 -7.261238938052998 L 9.651457240260367 -7.105452521158809 L 9.60343688398803 -6.957477885715142 L 9.526082995093788 -6.824735097831429 L 9.423274420568514 -6.7138804351777885 L 9.300166411630146 -6.630472613428448 L 9.162932117901146 -6.578694049046663 L 9.018453039909613 -6.561141135459001 " stroke="#191919" stroke-width="0.35 px" style="stroke-width:0.35;stroke-miterlimit:4;stroke-dasharray:none;fill:none;fill-opacity:1;fill-rule: evenodd"/>
<path id="Shape2DView_nwe0059"  d="M 9.018453039909613 -6.561141135459001 L 9.002930066506558 -6.561341247141455 L 8.98741596708743 -6.561941467791347 L 8.971919610563186 -6.5629414542818605 L 8.956449855701742 -6.564340634952927 L 8.941015546063698 -6.566138209938022 L 8.925625504946762 -6.568333151621425 L 8.910288530341756 -6.570924205225668 L 8.895013389903085 -6.57390988952886 L 8.879808815936551 -6.577288497711449 L 8.864683500407379 -6.5810580983319555 L 8.8496460899713 -6.585216536431116 L 8.834705181031529 -6.589761434763807 L 8.819869314824489 -6.594690195158034 L 8.805146972537054 -6.6000000000002235 " stroke="#191919" stroke-width="0.35 px" style="stroke-width:0.35;stroke-miterlimit:4;stroke-dasharray:none;fill:none;fill-opacity:1;fill-rule: evenodd"/>
<path id="Shape2DView_nwe0060"  d="M 8.805146972536534 -6.600000000000087 L 5.698297730346028 -7.729999999999635 " stroke="#191919" stroke-width="0.35 px" style="stroke-width:0.35;stroke-miterlimit:4;stroke-dasharray:none;fill:none;fill-opacity:1;fill-rule: evenodd"/>
<path id="Shape2DView_nwe0061"  d="M 5.698297730346 -7.73 L 5.698297730346 -7.7 " stroke="#191919" stroke-width="0.35 px" style="stroke-width:0.35;stroke-miterlimit:4;stroke-dasharray:none;fill:none;fill-opacity:1;fill-rule: evenodd"/>
<path id="Shape2DView_nwe0062"  d="M 5.698297730346306 -7.7 L 4.947089406115309 -7.7 " stroke="#191919" stroke-width="0.35 px" style="stroke-width:0.35;stroke-miterlimit:4;stroke-dasharray:none;fill:none;fill-opacity:1;fill-rule: evenodd"/>
<path id="Shape2DView_nwe0063"  d="M 4.947089406115 -7.7 L 4.947089406115 -0.1999999999999993 " stroke="#191919" stroke-width="0.35 px" style="stroke-width:0.35;stroke-miterlimit:4;stroke-dasharray:none;fill:none;fill-opacity:1;fill-rule: evenodd"/>
<path id="Shape2DView_nwe0064"  d="M 5.698297730346306 -0.2 L 4.947089406115309 -0.2 " stroke="#191919" stroke-width="0.35 px" style="stroke-width:0.35;stroke-miterlimit:4;stroke-dasharray:none;fill:none;fill-opacity:1;fill-rule: evenodd"/>
<path id="Shape2DView_nwe0065"  d="M 5.698297730346 -0.1999999999999993 L 5.698297730346 -0.10999999999999943 " stroke="#191919" stroke-width="0.35 px" style="stroke-width:0.35;stroke-miterlimit:4;stroke-dasharray:none;fill:none;fill-opacity:1;fill-rule: evenodd"/>
<path id="Shape2DView_nwe0066"  d="M 5.69829773034609 -0.10999999999977239 L 8.805146972536862 -1.020000000000815 " stroke="#191919" stroke-width="0.35 px" style="stroke-width:0.35;stroke-miterlimit:4;stroke-dasharray:none;fill:none;fill-opacity:1;fill-rule: evenodd"/>
<path id="Shape2DView_nwe0067"  d="M 8.805146972536988 -1.0199999999999845 L 8.81994599588361 -1.0248996638156096 L 8.834841683508166 -1.0294460263476357 L 8.849826781860049 -1.0336368737156767 L 8.864893993849535 -1.0374701651597342 L 8.880035982401129 -1.0409440340339606 L 8.89524537402642 -1.044056788715633 L 8.910514762414627 -1.0468069134288993 L 8.925836712039171 -1.049193068982897 L 8.941203761778432 -1.0512140934238787 L 8.95660842854901 -1.0528690026010339 L 8.972043210949641 -1.0541569906457275 L 8.987500592914069 -1.0550774303639223 L 9.00297304737103 -1.0556298735415957 L 9.018453039909616 -1.0558140511629999 " stroke="#191919" stroke-width="0.35 px" style="stroke-width:0.35;stroke-miterlimit:4;stroke-dasharray:none;fill:none;fill-opacity:1;fill-rule: evenodd"/>
<path id="Shape2DView_nwe0068"  d="M 9.018453039909616 -1.0558140511629999 L 9.174560268475211 -1.0368484214571652 L 9.322839628753561 -0.9809025482060215 L 9.4558557744596 -0.8907817911040108 L 9.56693872062056 -0.7710051812237486 L 9.650518304473923 -0.6275788179282129 L 9.702403496687326 -0.46769469796939633 L 9.719992557069489 -0.2993700787399975 L 9.702403496687326 -0.13104545951059876 L 9.650518304473922 0.028838660448217535 L 9.566938720620556 0.17226502374375258 L 9.455855774459597 0.2920416336240139 L 9.322839628753558 0.38216239072602365 L 9.174560268475208 0.4381082639771662 L 9.018453039909614 0.457073893683 " stroke="#191919" stroke-width="0.35 px" style="stroke-width:0.35;stroke-miterlimit:4;stroke-dasharray:none;fill:none;fill-opacity:1;fill-rule: evenodd"/>
<path id="Shape2DView_nwe0069"  d="M 9.018453039909614 0.457073893683 L 8.980491231955975 0.4559656008258779 L 8.9426406623812 0.4526439698529141 L 8.90501224360557 0.44711873404248825 L 8.867716237087361 0.43940608383197666 L 8.8308619302269 0.42952861937538633 L 8.794557316124891 0.41751528431878226 L 8.758908777133373 0.40340128098756545 L 8.724020773126623 0.3872279672341258 L 8.68999553540543 0.36904273524813225 L 8.656932767131694 0.34889887268458264 L 8.624929351171161 0.326855406516541 L 8.594079066200381 0.3029769300701203 L 8.564472311909796 0.2773334137485425 L 8.536195844108152 0.2499999999999053 " stroke="#191919" stroke-width="0.35 px" style="stroke-width:0.35;stroke-miterlimit:4;stroke-dasharray:none;fill:none;fill-opacity:1;fill-rule: evenodd"/>
<path id="Shape2DView_nwe0070"  d="M 12.462105560458 -1.0558140511629999 A 0.756444 0.6551 90 0 1 12.4621 0.457074" stroke="#191919" stroke-width="0.35 px" style="stroke-width:0.35;stroke-miterlimit:4;stroke-dasharray:none;fill:none;fill-opacity:1;fill-rule: evenodd"/>
<path id="Shape2DView_nwe0071"  d="M 12.462105560458001 -7.961336740647 A 0.700098 0.606302 90 0 1 12.4621 -6.56114" stroke="#191919" stroke-width="0.35 px" style="stroke-width:0.35;stroke-miterlimit:4;stroke-dasharray:none;fill:none;fill-opacity:1;fill-rule: evenodd"/>
<path id="Shape2DView_nwe0072"  d="M 3.428203230276 -7.0 L 3.428203230276 -0.5999999999999996 " stroke="#191919" stroke-width="0.35 px" style="stroke-width:0.35;stroke-miterlimit:4;stroke-dasharray:none;fill:none;fill-opacity:1;fill-rule: evenodd"/>
<path id="Shape2DView_nwe0073"  d="M 3.4282032302757015 -7.0 A 0.3 0.259808 90 0 1 3.68801 -7.3" stroke="#191919" stroke-width="0.35 px" style="stroke-width:0.35;stroke-miterlimit:4;stroke-dasharray:none;fill:none;fill-opacity:1;fill-rule: evenodd"/>
<path id="Shape2DView_nwe0074"  d="M 3.4282032302757015 -0.6 A 0.3 0.259808 -90 0 0 3.68801 -0.3" stroke="#191919" stroke-width="0.35 px" style="stroke-width:0.35;stroke-miterlimit:4;stroke-dasharray:none;fill:none;fill-opacity:1;fill-rule: evenodd"/>
<path id="Shape2DView_nwe0075"  d="M 5.698297730345339 -7.7 L 5.780780453589054 -7.7 " stroke="#191919" stroke-width="0.35 px" style="stroke-width:0.35;stroke-miterlimit:4;stroke-dasharray:none;fill:none;fill-opacity:1;fill-rule: evenodd"/>
<path id="Shape2DView_nwe0076"  d="M 6.11173461491 -7.579627824480842 L 6.11173461491 -0.2310961767451536 " stroke="#191919" stroke-width="0.35 px" style="stroke-width:0.35;stroke-miterlimit:4;stroke-dasharray:none;fill:none;fill-opacity:1;fill-rule: evenodd"/>
<path id="Shape2DView_nwe0077"  d="M 5.698297730345339 -0.2 L 6.005568534519229 -0.2 " stroke="#191919" stroke-width="0.35 px" style="stroke-width:0.35;stroke-miterlimit:4;stroke-dasharray:none;fill:none;fill-opacity:1;fill-rule: evenodd"/>
<path id="Shape2DView_nwe0078"  d="M 8.21173461491038 -3.5 A 2 1 -90 0 1 7.21173 -1.5" stroke="#191919" stroke-width="0.35 px" style="stroke-width:0.35;stroke-miterlimit:4;stroke-dasharray:none;fill:none;fill-opacity:1;fill-rule: evenodd"/>
<path id="Shape2DView_nwe0079"  d="M 7.21173461491 -1.5 A 2 1 -90 0 1 7.21173 -5.5" stroke="#191919" stroke-width="0.35 px" style="stroke-width:0.35;stroke-miterlimit:4;stroke-dasharray:none;fill:none;fill-opacity:1;fill-rule: evenodd"/>
<path id="Shape2DView_nwe0080"  d="M 7.21173461491 -5.5 A 2 1 -90 0 1 8.21173 -3.5" stroke="#191919" stroke-width="0.35 px" style="stroke-width:0.35;stroke-miterlimit:4;stroke-dasharray:none;fill:none;fill-opacity:1;fill-rule: evenodd"/>
<path id="Shape2DView_nwe0081"  d="M 5.410254037844 -7.7 L 5.410254037844 -0.20000000000000018 " stroke="#191919" stroke-width="0.35 px" style="stroke-width:0.35;stroke-miterlimit:4;stroke-dasharray:none;fill:none;fill-opacity:1;fill-rule: evenodd"/>
<path id="Shape2DView_nwe0082"  d="M 7.94326673973738 -3.5 A 2 1 -90 0 1 7.0775 -1.5181" stroke="#191919" stroke-width="0.35 px" style="stroke-width:0.35;stroke-miterlimit:4;stroke-dasharray:none;fill:none;fill-opacity:1;fill-rule: evenodd"/>
<path id="Shape2DView_nwe0083"  d="M 7.0775006773235 -5.481899341540874 A 2 1 -90 0 1 7.94327 -3.5" stroke="#191919" stroke-width="0.35 px" style="stroke-width:0.35;stroke-miterlimit:4;stroke-dasharray:none;fill:none;fill-opacity:1;fill-rule: evenodd"/>
<path id="Shape2DView_nwe0084"  d="M 4.040594782073958 -7.05 L 4.00053037094467 -7.05 L 3.956996245609341 -7.05 L 3.9110766509922583 -7.05 L 3.863915243638843 -7.05 L 3.816686608226088 -7.05 L 3.7705670037883228 -7.05 L 3.726705068242047 -7.05 L 3.6861932108321724 -7.05 L 3.6500404049888937 -7.05 L 3.619147059206292 -7.05 L 3.594282591799334 -7.05 L 3.576066268054124 -7.05 L 3.5649517770343064 -7.05 L 3.5612159321680004 -7.05 " stroke="#191919" stroke-width="0.35 px" style="stroke-width:0.35;stroke-miterlimit:4;stroke-dasharray:none;fill:none;fill-opacity:1;fill-rule: evenodd"/>
<path id="Shape2DView_nwe0085"  d="M 4.040594782073958 -0.55 L 4.00053037094467 -0.55 L 3.956996245609341 -0.55 L 3.9110766509922583 -0.55 L 3.863915243638843 -0.55 L 3.816686608226088 -0.55 L 3.7705670037883228 -0.55 L 3.726705068242047 -0.55 L 3.6861932108321724 -0.55 L 3.6500404049888937 -0.55 L 3.619147059206292 -0.55 L 3.594282591799334 -0.55 L 3.576066268054124 -0.55 L 3.5649517770343064 -0.55 L 3.5612159321680004 -0.55 " stroke="#191919" stroke-width="0.35 px" style="stroke-width:0.35;stroke-miterlimit:4;stroke-dasharray:none;fill:none;fill-opacity:1;fill-rule: evenodd"/>
<path id="Shape2DView_nwe0086"  d="M 8.173445012141123 -8.9 L 9.091421356237 -8.9 " stroke="#191919" stroke-width="0.35 px" style="stroke-width:0.35;stroke-miterlimit:4;stroke-dasharray:none;fill:none;fill-opacity:1;fill-rule: evenodd"/>
<path id="Shape2DView_nwe0087"  d="M 4.494671845641 1.3 L 9.091421356237 1.3 " stroke="#191919" stroke-width="0.35 px" style="stroke-width:0.35;stroke-miterlimit:4;stroke-dasharray:none;fill:none;fill-opacity:1;fill-rule: evenodd"/>
<path id="Shape2DView_nwe0088"  d="M 9.0914213562375 -8.9 L 9.5914213562375 -8.9 " stroke="#191919" stroke-width="0.35 px" style="stroke-width:0.35;stroke-miterlimit:4;stroke-dasharray:none;fill:none;fill-opacity:1;fill-rule: evenodd"/>
<path id="Shape2DView_nwe0089"  d="M 10.0486315613 -8.9 A 0.11547 0.1 0 0 1 10.1641 -8.8" stroke="#191919" stroke-width="0.35 px" style="stroke-width:0.35;stroke-miterlimit:4;stroke-dasharray:none;fill:none;fill-opacity:1;fill-rule: evenodd"/>
<path id="Shape2DView_nwe0090"  d="M 10.164101615138 -8.8 L 10.164101615138 -8.203172028981632 " stroke="#191919" stroke-width="0.35 px" style="stroke-width:0.35;stroke-miterlimit:4;stroke-dasharray:none;fill:none;fill-opacity:1;fill-rule: evenodd"/>
<path id="Shape2DView_nwe0091"  d="M 10.164101615138 -6.561141135459001 L 10.164101615138 -1.0558140511629999 " stroke="#191919" stroke-width="0.35 px" style="stroke-width:0.35;stroke-miterlimit:4;stroke-dasharray:none;fill:none;fill-opacity:1;fill-rule: evenodd"/>
<path id="Shape2DView_nwe0092"  d="M 10.164101615138 0.6670329746952177 L 10.164101615138 1.1999999999999993 " stroke="#191919" stroke-width="0.35 px" style="stroke-width:0.35;stroke-miterlimit:4;stroke-dasharray:none;fill:none;fill-opacity:1;fill-rule: evenodd"/>
<path id="Shape2DView_nwe0093"  d="M 10.164101615138 1.2 A 0.11547 0.1 0 0 1 10.0486 1.3" stroke="#191919" stroke-width="0.35 px" style="stroke-width:0.35;stroke-miterlimit:4;stroke-dasharray:none;fill:none;fill-opacity:1;fill-rule: evenodd"/>
<path id="Shape2DView_nwe0094"  d="M 8.173445012141123 -8.9 L 10.04863156130084 -8.9 " stroke="#191919" stroke-width="0.35 px" style="stroke-width:0.35;stroke-miterlimit:4;stroke-dasharray:none;fill:none;fill-opacity:1;fill-rule: evenodd"/>
<path id="Shape2DView_nwe0095"  d="M 6.918759896514156 1.3 L 4.494671845641 1.3 " stroke="#191919" stroke-width="0.35 px" style="stroke-width:0.35;stroke-miterlimit:4;stroke-dasharray:none;fill:none;fill-opacity:1;fill-rule: evenodd"/>
<path id="Shape2DView_nwe0096"  d="M 0.21639634933300012 1.3 L -0.2756321374008893 1.3 " stroke="#191919" stroke-width="0.35 px" style="stroke-width:0.35;stroke-miterlimit:4;stroke-dasharray:none;fill:none;fill-opacity:1;fill-rule: evenodd"/>
<path id="Shape2DView_nwe0097"  d="M 6.918759896515 1.3 L 10.04863156130084 1.3 " stroke="#191919" stroke-width="0.35 px" style="stroke-width:0.35;stroke-miterlimit:4;stroke-dasharray:none;fill:none;fill-opacity:1;fill-rule: evenodd"/>
<path id="Shape2DView_nwe0098"  d="M 6.956509068691348 1.29 A 0.1 0.0866025 90 0 1 6.91876 1.3" stroke="#191919" stroke-width="0.35 px" style="stroke-width:0.35;stroke-miterlimit:4;stroke-dasharray:none;fill:none;fill-opacity:1;fill-rule: evenodd"/>
<path id="Shape2DView_nwe0099"  d="M -0.275632137401 1.3000000000000007 L -0.275632137401 1.290000000000001 " stroke="#191919" stroke-width="0.35 px" style="stroke-width:0.35;stroke-miterlimit:4;stroke-dasharray:none;fill:none;fill-opacity:1;fill-rule: evenodd"/>
<path id="Shape2DView_nwe0100"  d="M 8.536195844108416 -7.7299999999996585 L 8.690742450059368 -7.86561874960301 L 8.876153412816222 -7.944315950963416 L 9.074966403459905 -7.958679763946222 L 9.268456866633038 -7.907357379509782 L 9.438401531929197 -7.795182429628251 L 9.568794713388296 -7.632719747373989 L 9.647355753008307 -7.435270352451641 L 9.666685634605553 -7.221430374387419 L 9.624963836106264 -7.011339636509366 L 9.526119789501173 -6.824784852144078 L 9.379462800064612 -6.679336077331261 L 9.198805279693609 -6.588691932200453 L 9.001161869785394 -6.561389440956303 L 8.805146972537054 -6.6000000000002235 " stroke="#191919" stroke-width="0.35 px" style="stroke-width:0.35;stroke-miterlimit:4;stroke-dasharray:none;fill:none;fill-opacity:1;fill-rule: evenodd"/>
<path id="Shape2DView_nwe0101"  d="M 8.805146972536988 -1.0199999999999845 L 9.012602328708839 -1.0557877444027726 L 9.220582407704237 -1.0237359391178058 L 9.410434452529852 -0.9267191601047909 L 9.565131524481142 -0.7734383868611233 L 9.670799569347606 -0.577640652414555 L 9.717961716207876 -0.356886136461708 L 9.702388213496716 -0.13097327528137792 L 9.62547577556778 0.07983686707828502 L 9.494122317939624 0.2566377185255777 L 9.32010831563277 0.38357284062567465 L 9.119040267664559 0.4492580181311895 L 8.90895102341167 0.4478022558083843 L 8.70868250099862 0.3793361141464101 L 8.536195844108152 0.2499999999999053 " stroke="#191919" stroke-width="0.35 px" style="stroke-width:0.35;stroke-miterlimit:4;stroke-dasharray:none;fill:none;fill-opacity:1;fill-rule: evenodd"/>
<path id="Shape2DView_nwe0102"  d="M 12.26291971758791 -1.020000000000039 A 0.756444 0.6551 90 1 1 12.0231 0.262108" stroke="#191919" stroke-width="0.35 px" style="stroke-width:0.35;stroke-miterlimit:4;stroke-dasharray:none;fill:none;fill-opacity:1;fill-rule: evenodd"/>
<path id="Shape2DView_nwe0103"  d="M 12.023114907221972 -7.7441328619038705 A 0.700098 0.606302 90 1 1 12.2629 -6.6" stroke="#191919" stroke-width="0.35 px" style="stroke-width:0.35;stroke-miterlimit:4;stroke-dasharray:none;fill:none;fill-opacity:1;fill-rule: evenodd"/>
<path id="Shape2DView_nwe0104"  d="M 8.21173461491038 -3.5 A 2.0 1.00000000000038 -90.0 0 0 7.21173461491 -1.5 A 2.0 1.00000000000038 -90.0 0 0 8.21173461491038 -3.5 " stroke="#191919" stroke-width="0.35 px" style="stroke-width:0.35;stroke-miterlimit:4;stroke-dasharray:none;fill:none;fill-opacity:1;fill-rule: evenodd"/>
<path id="Shape2DView_nwe0107"  d="M 4.040594782073958 -7.05 L 3.990498460730204 -7.05 L 3.935482705929907 -7.05 L 3.8776409663997553 -7.05 L 3.819174224683901 -7.05 L 3.762307245787258 -7.05 L 3.7092039208532617 -7.05 L 3.661884927201881 -7.05 L 3.6221508379119958 -7.05 L 3.5915136067672435 -7.05 L 3.571139035686766 -7.05 L 3.561802413858907 -7.05 L 3.563859016588859 -7.05 L 3.5772305864323335 -7.05 L 3.6014083110325017 -7.05 " stroke="#191919" stroke-width="0.35 px" style="stroke-width:0.35;stroke-miterlimit:4;stroke-dasharray:none;fill:none;fill-opacity:1;fill-rule: evenodd"/>
<path id="Shape2DView_nwe0108"  d="M 4.040594782073958 -0.55 L 3.990498460730204 -0.55 L 3.935482705929907 -0.55 L 3.8776409663997553 -0.55 L 3.819174224683901 -0.55 L 3.762307245787258 -0.55 L 3.7092039208532617 -0.55 L 3.661884927201881 -0.55 L 3.6221508379119958 -0.55 L 3.5915136067672435 -0.55 L 3.571139035686766 -0.55 L 3.561802413858907 -0.55 L 3.563859016588859 -0.55 L 3.5772305864323335 -0.55 L 3.6014083110325017 -0.55 " stroke="#191919" stroke-width="0.35 px" style="stroke-width:0.35;stroke-miterlimit:4;stroke-dasharray:none;fill:none;fill-opacity:1;fill-rule: evenodd"/>
<path id="Shape2DView_nwe0109"  d="M 3.428203230276 -7.0 L 3.178203230276 -7.0 " stroke="#191919" stroke-width="0.35 px" style="stroke-width:0.35;stroke-miterlimit:4;stroke-dasharray:none;fill:none;fill-opacity:1;fill-rule: evenodd"/>
<path id="Shape2DView_nwe0110"  d="M 3.428203230276 -0.6 L 3.178203230276 -0.6 " stroke="#191919" stroke-width="0.35 px" style="stroke-width:0.35;stroke-miterlimit:4;stroke-dasharray:none;fill:none;fill-opacity:1;fill-rule: evenodd"/>
<path id="Shape2DView_nwe0111"  d="M 8.405460622393749 -8.8 L 10.164101615139213 -8.8 " stroke="#191919" stroke-width="0.35 px" style="stroke-width:0.35;stroke-miterlimit:4;stroke-dasharray:none;fill:none;fill-opacity:1;fill-rule: evenodd"/>
<path id="Shape2DView_nwe0112"  d="M 8.382227448848903 1.2 L 10.164101615139213 1.2 " stroke="#191919" stroke-width="0.35 px" style="stroke-width:0.35;stroke-miterlimit:4;stroke-dasharray:none;fill:none;fill-opacity:1;fill-rule: evenodd"/>
<path id="Shape2DView_nwe0113"  d="M 7.94326673973675 -3.5 L 8.21173461490976 -3.5 " stroke="#191919" stroke-width="0.35 px" style="stroke-width:0.35;stroke-miterlimit:4;stroke-dasharray:none;fill:none;fill-opacity:1;fill-rule: evenodd"/>
<path id="Shape2DView_nwe0114"  d="M 9.01845308673468 -1.0558140511629999 L 12.462105560458 -1.0558140511629999 " stroke="#191919" stroke-width="0.35 px" style="stroke-width:0.35;stroke-miterlimit:4;stroke-dasharray:none;fill:none;fill-opacity:1;fill-rule: evenodd"/>
<path id="Shape2DView_nwe0115"  d="M 9.018453043993322 0.457073893683 L 12.462105560458 0.457073893683 " stroke="#191919" stroke-width="0.35 px" style="stroke-width:0.35;stroke-miterlimit:4;stroke-dasharray:none;fill:none;fill-opacity:1;fill-rule: evenodd"/>
<path id="Shape2DView_nwe0116"  d="M 9.01845302261777 -7.961336740647 L 12.462105560458 -7.961336740647 " stroke="#191919" stroke-width="0.35 px" style="stroke-width:0.35;stroke-miterlimit:4;stroke-dasharray:none;fill:none;fill-opacity:1;fill-rule: evenodd"/>
<path id="Shape2DView_nwe0117"  d="M 9.018453089842406 -6.561141135459001 L 12.462105560458 -6.561141135459001 " stroke="#191919" stroke-width="0.35 px" style="stroke-width:0.35;stroke-miterlimit:4;stroke-dasharray:none;fill:none;fill-opacity:1;fill-rule: evenodd"/>
<path id="Shape2DView_nwe0118"  d="M 3.5612159321680004 -0.55 L 3.5612159321680004 -7.05 " stroke="#191919" stroke-width="0.35 px" style="stroke-width:0.35;stroke-miterlimit:4;stroke-dasharray:none;fill:none;fill-opacity:1;fill-rule: evenodd"/>
<title>b'Shape2DView'</title>
</g>
<g id="Rectangle" transform="translate(6.418286,2.983415) scale(1,-1)">
<rect fill="#ff0000" id="origin" width="1" height="1" x="0" y="0" />
<title>b'Rectangle'</title>
</g>
</svg>