<?xml version="1.0"?>
<!DOCTYPE svg PUBLIC "-//W3C//DTD SVG 1.1//EN" "http://www.w3.org/Graphics/SVG/1.1/DTD/svg11.dtd">
<svg width="6.0486mm" height="5.110061232516674mm" viewBox="0 0 6.0486 5.110061232516674" xmlns="http://www.w3.org/2000/svg" version="1.1">
<g id="Shape2DView" transform="translate(0.484300,1.184300) scale(1,-1)">
<path id="Shape2DView_nwe0000"  d="M -0.16 1.125 L -0.16 -1.125 " stroke="#191919" stroke-width="0.35 px" style="stroke-width:0.35;stroke-miterlimit:4;stroke-dasharray:none;fill:none;fill-opacity:1;fill-rule: evenodd"/>
<path id="Shape2DView_nwe0001"  d="M 5.24 1.125 L 5.24 -1.125 " stroke="#191919" stroke-width="0.35 px" style="stroke-width:0.35;stroke-miterlimit:4;stroke-dasharray:none;fill:none;fill-opacity:1;fill-rule: evenodd"/>
<path id="Shape2DView_nwe0002"  d="M 5.24 -1.125 L -0.16000000000000014 -1.125 " stroke="#191919" stroke-width="0.35 px" style="stroke-width:0.35;stroke-miterlimit:4;stroke-dasharray:none;fill:none;fill-opacity:1;fill-rule: evenodd"/>
<path id="Shape2DView_nwe0003"  d="M 5.24 1.125 L -0.16000000000000014 1.125 " stroke="#191919" stroke-width="0.35 px" style="stroke-width:0.35;stroke-miterlimit:4;stroke-dasharray:none;fill:none;fill-opacity:1;fill-rule: evenodd"/>
<path id="Shape2DView_nwe0004"  d="M -0.425 -0.2 L -0.3 -0.2 " stroke="#191919" stroke-width="0.35 px" style="stroke-width:0.35;stroke-miterlimit:4;stroke-dasharray:none;fill:none;fill-opacity:1;fill-rule: evenodd"/>
<path id="Shape2DView_nwe0005"  d="M -0.15999999999999998 -0.1999999999999999 L -0.17751523731739338 -0.19999999999999993 L -0.19422178839737653 -0.19999999999999993 L -0.21001370231034133 -0.19999999999999993 L -0.22479082864514904 -0.19999999999999993 L -0.2384594526509446 -0.19999999999999993 L -0.25093288956479015 -0.19999999999999996 L -0.2621320343559643 -0.19999999999999996 L -0.27198586340051506 -0.19999999999999996 L -0.28043188490450643 -0.19999999999999996 L -0.28741653521942995 -0.19999999999999998 L -0.29289551853639545 -0.19999999999999998 L -0.29683408780480214 -0.19999999999999998 L -0.29920726509393797 -0.2 L -0.3 -0.2 " stroke="#191919" stroke-width="0.35 px" style="stroke-width:0.35;stroke-miterlimit:4;stroke-dasharray:none;fill:none;fill-opacity:1;fill-rule: evenodd"/>
<path id="Shape2DView_nwe0006"  d="M -0.425 0.2 L -0.3 0.2 " stroke="#191919" stroke-width="0.35 px" style="stroke-width:0.35;stroke-miterlimit:4;stroke-dasharray:none;fill:none;fill-opacity:1;fill-rule: evenodd"/>
<path id="Shape2DView_nwe0007"  d="M -0.15999999999999998 0.20000000000000012 L -0.17751523731739338 0.2000000000000001 L -0.19422178839737653 0.2000000000000001 L -0.21001370231034133 0.2000000000000001 L -0.22479082864514904 0.2000000000000001 L -0.2384594526509446 0.2000000000000001 L -0.25093288956479015 0.20000000000000007 L -0.2621320343559643 0.20000000000000007 L -0.27198586340051506 0.20000000000000007 L -0.28043188490450643 0.20000000000000007 L -0.28741653521942995 0.20000000000000004 L -0.29289551853639545 0.20000000000000004 L -0.29683408780480214 0.20000000000000004 L -0.29920726509393797 0.2 L -0.3 0.2 " stroke="#191919" stroke-width="0.35 px" style="stroke-width:0.35;stroke-miterlimit:4;stroke-dasharray:none;fill:none;fill-opacity:1;fill-rule: evenodd"/>
<path id="Shape2DView_nwe0008"  d="M 5.38 -0.2 L 5.379207265093938 -0.2 L 5.376834087804802 -0.19999999999999998 L 5.372895518536395 -0.19999999999999998 L 5.36741653521943 -0.19999999999999998 L 5.360431884904506 -0.19999999999999996 L 5.351985863400515 -0.19999999999999996 L 5.342132034355965 -0.19999999999999996 L 5.3309328895647905 -0.19999999999999996 L 5.318459452650945 -0.19999999999999993 L 5.3047908286451495 -0.19999999999999993 L 5.2900137023103415 -0.19999999999999993 L 5.2742217883973765 -0.19999999999999993 L 5.257515237317393 -0.19999999999999993 L 5.24 -0.1999999999999999 " stroke="#191919" stroke-width="0.35 px" style="stroke-width:0.35;stroke-miterlimit:4;stroke-dasharray:none;fill:none;fill-opacity:1;fill-rule: evenodd"/>
<path id="Shape2DView_nwe0009"  d="M 5.38 -0.2 L 5.505 -0.2 " stroke="#191919" stroke-width="0.35 px" style="stroke-width:0.35;stroke-miterlimit:4;stroke-dasharray:none;fill:none;fill-opacity:1;fill-rule: evenodd"/>
<path id="Shape2DView_nwe0010"  d="M 5.38 0.2 L 5.379207265093938 0.2 L 5.376834087804802 0.20000000000000004 L 5.372895518536395 0.20000000000000004 L 5.36741653521943 0.20000000000000004 L 5.360431884904506 0.20000000000000007 L 5.351985863400515 0.20000000000000007 L 5.342132034355965 0.20000000000000007 L 5.3309328895647905 0.20000000000000007 L 5.318459452650945 0.2000000000000001 L 5.3047908286451495 0.2000000000000001 L 5.2900137023103415 0.2000000000000001 L 5.2742217883973765 0.2000000000000001 L 5.257515237317393 0.2000000000000001 L 5.24 0.20000000000000012 " stroke="#191919" stroke-width="0.35 px" style="stroke-width:0.35;stroke-miterlimit:4;stroke-dasharray:none;fill:none;fill-opacity:1;fill-rule: evenodd"/>
<path id="Shape2DView_nwe0011"  d="M 5.38 0.2 L 5.505 0.2 " stroke="#191919" stroke-width="0.35 px" style="stroke-width:0.35;stroke-miterlimit:4;stroke-dasharray:none;fill:none;fill-opacity:1;fill-rule: evenodd"/>
<path id="Shape2DView_nwe0012"  d="M 5.04 -1.125 L 5.04 -1.375 " stroke="#191919" stroke-width="0.35 px" style="stroke-width:0.35;stroke-miterlimit:4;stroke-dasharray:none;fill:none;fill-opacity:1;fill-rule: evenodd"/>
<path id="Shape2DView_nwe0013"  d="M -0.3 0.2 L -0.3 -0.2 " stroke="#191919" stroke-width="0.35 px" style="stroke-width:0.35;stroke-miterlimit:4;stroke-dasharray:none;fill:none;fill-opacity:1;fill-rule: evenodd"/>
<path id="Shape2DView_nwe0014"  d="M -0.425 0.2 L -0.425 -0.2 " stroke="#191919" stroke-width="0.35 px" style="stroke-width:0.35;stroke-miterlimit:4;stroke-dasharray:none;fill:none;fill-opacity:1;fill-rule: evenodd"/>
<path id="Shape2DView_nwe0015"  d="M 5.38 0.2 L 5.38 -0.2 " stroke="#191919" stroke-width="0.35 px" style="stroke-width:0.35;stroke-miterlimit:4;stroke-dasharray:none;fill:none;fill-opacity:1;fill-rule: evenodd"/>
<path id="Shape2DView_nwe0016"  d="M 5.505 0.2 L 5.505 -0.2 " stroke="#191919" stroke-width="0.35 px" style="stroke-width:0.35;stroke-miterlimit:4;stroke-dasharray:none;fill:none;fill-opacity:1;fill-rule: evenodd"/>
<path id="Shape2DView_nwe0017"  d="M 5.04 -1.3750000000000016 A 2.5 2.5 0 0 0 0.04 -1.375" stroke="#191919" stroke-width="0.35 px" style="stroke-width:0.35;stroke-miterlimit:4;stroke-dasharray:none;fill:none;fill-opacity:1;fill-rule: evenodd"/>
<path id="Shape2DView_nwe0018"  d="M 2.54 -1.374999999999997 L 2.2600888097417307 -1.374999999999997 L 1.9836976651092142 -1.3749999999999971 L 1.7143023451120825 -1.3749999999999971 L 1.4552906522061049 -1.3749999999999973 L 1.209919808711659 -1.3749999999999973 L 0.9812754953531664 -1.3749999999999976 L 0.7722330470336314 -1.3749999999999978 L 0.5854212938299255 -1.374999999999998 L 0.42318950192928995 -1.3749999999999984 L 0.28757783024395245 -1.3749999999999987 L 0.180291674229081 -1.374999999999999 L 0.10268021954544082 -1.3749999999999993 L 0.05571947526689369 -1.3749999999999996 L 0.040000000000000036 -1.375 " stroke="#191919" stroke-width="0.35 px" style="stroke-width:0.35;stroke-miterlimit:4;stroke-dasharray:none;fill:none;fill-opacity:1;fill-rule: evenodd"/>
<path id="Shape2DView_nwe0019"  d="M 5.04 -1.375 L 5.024280524733106 -1.3750000000000002 L 4.977319780454559 -1.3750000000000002 L 4.899708325770919 -1.3750000000000004 L 4.792422169756048 -1.3750000000000007 L 4.65681049807071 -1.3750000000000007 L 4.494578706170074 -1.3750000000000009 L 4.307766952966369 -1.3750000000000009 L 4.0987245046468335 -1.375000000000001 L 3.8700801912883414 -1.375000000000001 L 3.624709347793895 -1.3750000000000013 L 3.365697654887918 -1.3750000000000013 L 3.096302334890786 -1.3750000000000013 L 2.81991119025827 -1.3750000000000013 L 2.54 -1.3750000000000013 " stroke="#191919" stroke-width="0.35 px" style="stroke-width:0.35;stroke-miterlimit:4;stroke-dasharray:none;fill:none;fill-opacity:1;fill-rule: evenodd"/>
<path id="Shape2DView_nwe0020"  d="M 0.040000000000000036 -1.375 L 0.040000000000000036 -1.125 " stroke="#191919" stroke-width="0.35 px" style="stroke-width:0.35;stroke-miterlimit:4;stroke-dasharray:none;fill:none;fill-opacity:1;fill-rule: evenodd"/>
<title>b'Shape2DView'</title>
</g>
<g id="Rectangle" transform="translate(0.484300,1.184300) scale(1,-1)">
<rect fill="#ff0000" id="origin" width="1" height="1" x="0" y="0" />
<title>b'Rectangle'</title>
</g>
</svg>