<?xml version="1.0"?>
<!DOCTYPE svg PUBLIC "-//W3C//DTD SVG 1.1//EN" "http://www.w3.org/Graphics/SVG/1.1/DTD/svg11.dtd">
<svg width="3.3659999999999997mm" height="3.3616255668242654mm" viewBox="0 0 3.3659999999999997 3.3616255668242654" xmlns="http://www.w3.org/2000/svg" version="1.1">
<g id="Shape2DView" transform="translate(1.683000,1.680813) scale(1,-1)">
<path id="Shape2DView_nwe0000"  d="M 0.43256974997700004 0.975 A 0.258816 0.258816 0 0 0 -0.0850629 0.975" stroke="#191919" stroke-width="0.35 px" style="stroke-width:0.35;stroke-miterlimit:4;stroke-dasharray:none;fill:none;fill-opacity:1;fill-rule: evenodd"/>
<path id="Shape2DView_nwe0001"  d="M -0.07624659905799999 0.975 A 0.25 0.25 0 0 1 0.423753 0.975" stroke="#191919" stroke-width="0.35 px" style="stroke-width:0.35;stroke-miterlimit:4;stroke-dasharray:none;fill:none;fill-opacity:1;fill-rule: evenodd"/>
<path id="Shape2DView_nwe0002"  d="M -1.0978127834121327 1.6478127834121328 L -1.0650045345899184 1.6150045345899184 " stroke="#191919" stroke-width="0.35 px" style="stroke-width:0.35;stroke-miterlimit:4;stroke-dasharray:none;fill:none;fill-opacity:1;fill-rule: evenodd"/>
<path id="Shape2DView_nwe0003"  d="M -1.097812783412 1.647812783412 L -1.097812783412 1.125 " stroke="#191919" stroke-width="0.35 px" style="stroke-width:0.35;stroke-miterlimit:4;stroke-dasharray:none;fill:none;fill-opacity:1;fill-rule: evenodd"/>
<path id="Shape2DView_nwe0004"  d="M -1.097812783412 0.825 L -1.097812783412 0.475 " stroke="#191919" stroke-width="0.35 px" style="stroke-width:0.35;stroke-miterlimit:4;stroke-dasharray:none;fill:none;fill-opacity:1;fill-rule: evenodd"/>
<path id="Shape2DView_nwe0005"  d="M -1.097812783412 0.175 L -1.097812783412 -0.175 " stroke="#191919" stroke-width="0.35 px" style="stroke-width:0.35;stroke-miterlimit:4;stroke-dasharray:none;fill:none;fill-opacity:1;fill-rule: evenodd"/>
<path id="Shape2DView_nwe0006"  d="M -1.097812783412 -0.475 L -1.097812783412 -0.825 " stroke="#191919" stroke-width="0.35 px" style="stroke-width:0.35;stroke-miterlimit:4;stroke-dasharray:none;fill:none;fill-opacity:1;fill-rule: evenodd"/>
<path id="Shape2DView_nwe0007"  d="M -1.097812783412 -1.125 L -1.097812783412 -1.647812783412 " stroke="#191919" stroke-width="0.35 px" style="stroke-width:0.35;stroke-miterlimit:4;stroke-dasharray:none;fill:none;fill-opacity:1;fill-rule: evenodd"/>
<path id="Shape2DView_nwe0008"  d="M -1.0978127834121327 -1.6478127834121328 L -1.0650045345899184 -1.6150045345899184 " stroke="#191919" stroke-width="0.35 px" style="stroke-width:0.35;stroke-miterlimit:4;stroke-dasharray:none;fill:none;fill-opacity:1;fill-rule: evenodd"/>
<path id="Shape2DView_nwe0009"  d="M -1.06500453459 1.6150045345900002 L -1.06500453459 -1.61500453459 " stroke="#191919" stroke-width="0.35 px" style="stroke-width:0.35;stroke-miterlimit:4;stroke-dasharray:none;fill:none;fill-opacity:1;fill-rule: evenodd"/>
<path id="Shape2DView_nwe0010"  d="M -1.084252040565 1.125 L -1.084252040565 0.825 " stroke="#191919" stroke-width="0.35 px" style="stroke-width:0.35;stroke-miterlimit:4;stroke-dasharray:none;fill:none;fill-opacity:1;fill-rule: evenodd"/>
<path id="Shape2DView_nwe0011"  d="M -1.084252040565 0.475 L -1.084252040565 0.175 " stroke="#191919" stroke-width="0.35 px" style="stroke-width:0.35;stroke-miterlimit:4;stroke-dasharray:none;fill:none;fill-opacity:1;fill-rule: evenodd"/>
<path id="Shape2DView_nwe0012"  d="M -1.084252040565 -0.175 L -1.084252040565 -0.475 " stroke="#191919" stroke-width="0.35 px" style="stroke-width:0.35;stroke-miterlimit:4;stroke-dasharray:none;fill:none;fill-opacity:1;fill-rule: evenodd"/>
<path id="Shape2DView_nwe0013"  d="M -1.084252040565 -0.825 L -1.084252040565 -1.125 " stroke="#191919" stroke-width="0.35 px" style="stroke-width:0.35;stroke-miterlimit:4;stroke-dasharray:none;fill:none;fill-opacity:1;fill-rule: evenodd"/>
<path id="Shape2DView_nwe0014"  d="M 1.46675430786 -1.1250000000000002 L 1.65 -1.1250000000000002 " stroke="#191919" stroke-width="0.35 px" style="stroke-width:0.35;stroke-miterlimit:4;stroke-dasharray:none;fill:none;fill-opacity:1;fill-rule: evenodd"/>
<path id="Shape2DView_nwe0015"  d="M 1.65 -0.825 L 1.46675430786 -0.825 " stroke="#191919" stroke-width="0.35 px" style="stroke-width:0.35;stroke-miterlimit:4;stroke-dasharray:none;fill:none;fill-opacity:1;fill-rule: evenodd"/>
<path id="Shape2DView_nwe0016"  d="M 1.46675430786 -0.475 L 1.65 -0.475 " stroke="#191919" stroke-width="0.35 px" style="stroke-width:0.35;stroke-miterlimit:4;stroke-dasharray:none;fill:none;fill-opacity:1;fill-rule: evenodd"/>
<path id="Shape2DView_nwe0017"  d="M 1.65 -0.175 L 1.46675430786 -0.175 " stroke="#191919" stroke-width="0.35 px" style="stroke-width:0.35;stroke-miterlimit:4;stroke-dasharray:none;fill:none;fill-opacity:1;fill-rule: evenodd"/>
<path id="Shape2DView_nwe0018"  d="M 1.46675430786 0.17499999999999977 L 1.65 0.17499999999999963 " stroke="#191919" stroke-width="0.35 px" style="stroke-width:0.35;stroke-miterlimit:4;stroke-dasharray:none;fill:none;fill-opacity:1;fill-rule: evenodd"/>
<path id="Shape2DView_nwe0019"  d="M 1.65 0.4750000000000002 L 1.46675430786 0.4750000000000001 " stroke="#191919" stroke-width="0.35 px" style="stroke-width:0.35;stroke-miterlimit:4;stroke-dasharray:none;fill:none;fill-opacity:1;fill-rule: evenodd"/>
<path id="Shape2DView_nwe0020"  d="M 1.46675430786 0.8250000000000002 L 1.65 0.8250000000000003 " stroke="#191919" stroke-width="0.35 px" style="stroke-width:0.35;stroke-miterlimit:4;stroke-dasharray:none;fill:none;fill-opacity:1;fill-rule: evenodd"/>
<path id="Shape2DView_nwe0021"  d="M 1.65 1.1250000000000002 L 1.46675430786 1.1250000000000002 " stroke="#191919" stroke-width="0.35 px" style="stroke-width:0.35;stroke-miterlimit:4;stroke-dasharray:none;fill:none;fill-opacity:1;fill-rule: evenodd"/>
<path id="Shape2DView_nwe0022"  d="M 1.46675430786 1.125 L 1.46675430786 0.825 " stroke="#191919" stroke-width="0.35 px" style="stroke-width:0.35;stroke-miterlimit:4;stroke-dasharray:none;fill:none;fill-opacity:1;fill-rule: evenodd"/>
<path id="Shape2DView_nwe0023"  d="M 1.65 0.825 L 1.65 1.125 " stroke="#191919" stroke-width="0.35 px" style="stroke-width:0.35;stroke-miterlimit:4;stroke-dasharray:none;fill:none;fill-opacity:1;fill-rule: evenodd"/>
<path id="Shape2DView_nwe0024"  d="M 1.46675430786 0.475 L 1.46675430786 0.175 " stroke="#191919" stroke-width="0.35 px" style="stroke-width:0.35;stroke-miterlimit:4;stroke-dasharray:none;fill:none;fill-opacity:1;fill-rule: evenodd"/>
<path id="Shape2DView_nwe0025"  d="M 1.6500000000000001 0.175 L 1.65 0.475 " stroke="#191919" stroke-width="0.35 px" style="stroke-width:0.35;stroke-miterlimit:4;stroke-dasharray:none;fill:none;fill-opacity:1;fill-rule: evenodd"/>
<path id="Shape2DView_nwe0026"  d="M 1.46675430786 -0.175 L 1.46675430786 -0.475 " stroke="#191919" stroke-width="0.35 px" style="stroke-width:0.35;stroke-miterlimit:4;stroke-dasharray:none;fill:none;fill-opacity:1;fill-rule: evenodd"/>
<path id="Shape2DView_nwe0027"  d="M 1.65 -0.475 L 1.65 -0.175 " stroke="#191919" stroke-width="0.35 px" style="stroke-width:0.35;stroke-miterlimit:4;stroke-dasharray:none;fill:none;fill-opacity:1;fill-rule: evenodd"/>
<path id="Shape2DView_nwe0028"  d="M 1.46675430786 -0.825 L 1.46675430786 -1.125 " stroke="#191919" stroke-width="0.35 px" style="stroke-width:0.35;stroke-miterlimit:4;stroke-dasharray:none;fill:none;fill-opacity:1;fill-rule: evenodd"/>
<path id="Shape2DView_nwe0029"  d="M 1.65 -1.125 L 1.65 -0.825 " stroke="#191919" stroke-width="0.35 px" style="stroke-width:0.35;stroke-miterlimit:4;stroke-dasharray:none;fill:none;fill-opacity:1;fill-rule: evenodd"/>
<path id="Shape2DView_nwe0030"  d="M 1.486876700471 1.606255668237 L 1.486876700471 1.125 " stroke="#191919" stroke-width="0.35 px" style="stroke-width:0.35;stroke-miterlimit:4;stroke-dasharray:none;fill:none;fill-opacity:1;fill-rule: evenodd"/>
<path id="Shape2DView_nwe0031"  d="M 1.486876700471 -1.125 L 1.486876700471 -1.606255668237 " stroke="#191919" stroke-width="0.35 px" style="stroke-width:0.35;stroke-miterlimit:4;stroke-dasharray:none;fill:none;fill-opacity:1;fill-rule: evenodd"/>
<path id="Shape2DView_nwe0032"  d="M 1.486876700471 -0.475 L 1.486876700471 -0.825 " stroke="#191919" stroke-width="0.35 px" style="stroke-width:0.35;stroke-miterlimit:4;stroke-dasharray:none;fill:none;fill-opacity:1;fill-rule: evenodd"/>
<path id="Shape2DView_nwe0033"  d="M 1.486876700471 0.175 L 1.486876700471 -0.175 " stroke="#191919" stroke-width="0.35 px" style="stroke-width:0.35;stroke-miterlimit:4;stroke-dasharray:none;fill:none;fill-opacity:1;fill-rule: evenodd"/>
<path id="Shape2DView_nwe0034"  d="M 1.486876700471 0.825 L 1.486876700471 0.475 " stroke="#191919" stroke-width="0.35 px" style="stroke-width:0.35;stroke-miterlimit:4;stroke-dasharray:none;fill:none;fill-opacity:1;fill-rule: evenodd"/>
<path id="Shape2DView_nwe0035"  d="M -0.085062948093 0.975 A 0.258816 0.258816 0 0 0 0.43257 0.975" stroke="#191919" stroke-width="0.35 px" style="stroke-width:0.35;stroke-miterlimit:4;stroke-dasharray:none;fill:none;fill-opacity:1;fill-rule: evenodd"/>
<path id="Shape2DView_nwe0036"  d="M 1.412511336474 -1.6150045345900002 L 1.412511336474 1.61500453459 " stroke="#191919" stroke-width="0.35 px" style="stroke-width:0.35;stroke-miterlimit:4;stroke-dasharray:none;fill:none;fill-opacity:1;fill-rule: evenodd"/>
<path id="Shape2DView_nwe0037"  d="M 1.412511336474 1.61500453459 L -1.06500453459 1.61500453459 " stroke="#191919" stroke-width="0.35 px" style="stroke-width:0.35;stroke-miterlimit:4;stroke-dasharray:none;fill:none;fill-opacity:1;fill-rule: evenodd"/>
<path id="Shape2DView_nwe0038"  d="M -1.0650045345899999 -1.61500453459 L 1.412511336474 -1.61500453459 " stroke="#191919" stroke-width="0.35 px" style="stroke-width:0.35;stroke-miterlimit:4;stroke-dasharray:none;fill:none;fill-opacity:1;fill-rule: evenodd"/>
<path id="Shape2DView_nwe0039"  d="M 1.4868767004711108 1.6062556682368891 L 1.4453195852962941 1.6478127834117058 " stroke="#191919" stroke-width="0.35 px" style="stroke-width:0.35;stroke-miterlimit:4;stroke-dasharray:none;fill:none;fill-opacity:1;fill-rule: evenodd"/>
<path id="Shape2DView_nwe0040"  d="M 1.445319585296138 1.6478127834121328 L 1.41251133647392 1.6150045345899184 " stroke="#191919" stroke-width="0.35 px" style="stroke-width:0.35;stroke-miterlimit:4;stroke-dasharray:none;fill:none;fill-opacity:1;fill-rule: evenodd"/>
<path id="Shape2DView_nwe0041"  d="M 1.41251133647392 -1.6150045345899184 L 1.445319585296138 -1.6478127834121328 " stroke="#191919" stroke-width="0.35 px" style="stroke-width:0.35;stroke-miterlimit:4;stroke-dasharray:none;fill:none;fill-opacity:1;fill-rule: evenodd"/>
<path id="Shape2DView_nwe0042"  d="M 1.4453195852962941 -1.6478127834117058 L 1.4868767004711108 -1.6062556682368891 " stroke="#191919" stroke-width="0.35 px" style="stroke-width:0.35;stroke-miterlimit:4;stroke-dasharray:none;fill:none;fill-opacity:1;fill-rule: evenodd"/>
<path id="Shape2DView_nwe0043"  d="M -1.097812783412 -1.647812783412 L 1.445319585296 -1.647812783412 " stroke="#191919" stroke-width="0.35 px" style="stroke-width:0.35;stroke-miterlimit:4;stroke-dasharray:none;fill:none;fill-opacity:1;fill-rule: evenodd"/>
<path id="Shape2DView_nwe0044"  d="M 1.445319585296 1.647812783412 L -1.097812783412 1.647812783412 " stroke="#191919" stroke-width="0.35 px" style="stroke-width:0.35;stroke-miterlimit:4;stroke-dasharray:none;fill:none;fill-opacity:1;fill-rule: evenodd"/>
<path id="Shape2DView_nwe0045"  d="M -1.65 1.125 L -1.65 0.825 " stroke="#191919" stroke-width="0.35 px" style="stroke-width:0.35;stroke-miterlimit:4;stroke-dasharray:none;fill:none;fill-opacity:1;fill-rule: evenodd"/>
<path id="Shape2DView_nwe0046"  d="M -1.65 0.825 L -1.45495097568 0.825 " stroke="#191919" stroke-width="0.35 px" style="stroke-width:0.35;stroke-miterlimit:4;stroke-dasharray:none;fill:none;fill-opacity:1;fill-rule: evenodd"/>
<path id="Shape2DView_nwe0047"  d="M -1.65 1.125 L -1.45495097568 1.125 " stroke="#191919" stroke-width="0.35 px" style="stroke-width:0.35;stroke-miterlimit:4;stroke-dasharray:none;fill:none;fill-opacity:1;fill-rule: evenodd"/>
<path id="Shape2DView_nwe0048"  d="M -1.3568929081107255 0.825 L -1.3051259400023532 0.825 " stroke="#191919" stroke-width="0.35 px" style="stroke-width:0.35;stroke-miterlimit:4;stroke-dasharray:none;fill:none;fill-opacity:1;fill-rule: evenodd"/>
<path id="Shape2DView_nwe0049"  d="M -1.3568929081107255 1.125 L -1.3051259400023532 1.125 " stroke="#191919" stroke-width="0.35 px" style="stroke-width:0.35;stroke-miterlimit:4;stroke-dasharray:none;fill:none;fill-opacity:1;fill-rule: evenodd"/>
<path id="Shape2DView_nwe0050"  d="M -1.109009804864 1.125 L -1.084252040565 1.125 " stroke="#191919" stroke-width="0.35 px" style="stroke-width:0.35;stroke-miterlimit:4;stroke-dasharray:none;fill:none;fill-opacity:1;fill-rule: evenodd"/>
<path id="Shape2DView_nwe0051"  d="M -1.109009804864 0.825 L -1.084252040565 0.825 " stroke="#191919" stroke-width="0.35 px" style="stroke-width:0.35;stroke-miterlimit:4;stroke-dasharray:none;fill:none;fill-opacity:1;fill-rule: evenodd"/>
<path id="Shape2DView_nwe0052"  d="M -1.45495097568 1.125 L -1.445156697261075 1.125 L -1.435456599696729 1.125 L -1.425943958207355 1.125 L -1.4167102454534652 1.125 L -1.4078442519432421 1.125 L -1.399431232231414 1.125 L -1.391552085119522 1.125 L -1.3842825757406996 1.125 L -1.3776926070093198 1.125 L -1.3718455474411866 1.125 L -1.3667976218078803 1.125 L -1.3625973704846757 1.125 L -1.359285182690885 1.125 L -1.3568929081109464 1.125 " stroke="#191919" stroke-width="0.35 px" style="stroke-width:0.35;stroke-miterlimit:4;stroke-dasharray:none;fill:none;fill-opacity:1;fill-rule: evenodd"/>
<path id="Shape2DView_nwe0053"  d="M -1.3051259400021071 1.125 L -1.3003413908422303 1.125 L -1.2937170152546489 1.125 L -1.2853165126082395 1.125 L -1.2752206613416273 1.125 L -1.2635265422053605 1.125 L -1.2503466047426013 1.125 L -1.235807585984956 1.125 L -1.220049291761172 1.125 L -1.203223252337516 1.125 L -1.18549126531707 1.125 L -1.16702383980929 1.125 L -1.147998556830542 1.125 L -1.1285983617018502 1.125 L -1.109009804864 1.125 " stroke="#191919" stroke-width="0.35 px" style="stroke-width:0.35;stroke-miterlimit:4;stroke-dasharray:none;fill:none;fill-opacity:1;fill-rule: evenodd"/>
<path id="Shape2DView_nwe0054"  d="M -1.109009804864 0.825 L -1.1285983617018505 0.825 L -1.1479985568305422 0.825 L -1.1670238398092903 0.825 L -1.18549126531707 0.825 L -1.203223252337516 0.825 L -1.220049291761172 0.825 L -1.235807585984956 0.825 L -1.2503466047426013 0.825 L -1.2635265422053605 0.825 L -1.2752206613416273 0.825 L -1.2853165126082395 0.825 L -1.2937170152546487 0.825 L -1.3003413908422303 0.825 L -1.3051259400021071 0.825 " stroke="#191919" stroke-width="0.35 px" style="stroke-width:0.35;stroke-miterlimit:4;stroke-dasharray:none;fill:none;fill-opacity:1;fill-rule: evenodd"/>
<path id="Shape2DView_nwe0055"  d="M -1.3568929081109464 0.825 L -1.359285182690885 0.825 L -1.3625973704846757 0.825 L -1.3667976218078803 0.825 L -1.3718455474411864 0.825 L -1.3776926070093196 0.825 L -1.3842825757406994 0.825 L -1.3915520851195218 0.825 L -1.3994312322314137 0.825 L -1.407844251943242 0.825 L -1.4167102454534648 0.825 L -1.4259439582073545 0.825 L -1.4354565996967286 0.825 L -1.4451566972610743 0.825 L -1.45495097568 0.825 " stroke="#191919" stroke-width="0.35 px" style="stroke-width:0.35;stroke-miterlimit:4;stroke-dasharray:none;fill:none;fill-opacity:1;fill-rule: evenodd"/>
<path id="Shape2DView_nwe0056"  d="M -1.65 0.475 L -1.65 0.175 " stroke="#191919" stroke-width="0.35 px" style="stroke-width:0.35;stroke-miterlimit:4;stroke-dasharray:none;fill:none;fill-opacity:1;fill-rule: evenodd"/>
<path id="Shape2DView_nwe0057"  d="M -1.65 0.175 L -1.45495097568 0.175 " stroke="#191919" stroke-width="0.35 px" style="stroke-width:0.35;stroke-miterlimit:4;stroke-dasharray:none;fill:none;fill-opacity:1;fill-rule: evenodd"/>
<path id="Shape2DView_nwe0058"  d="M -1.65 0.475 L -1.45495097568 0.475 " stroke="#191919" stroke-width="0.35 px" style="stroke-width:0.35;stroke-miterlimit:4;stroke-dasharray:none;fill:none;fill-opacity:1;fill-rule: evenodd"/>
<path id="Shape2DView_nwe0059"  d="M -1.3568929081107255 0.175 L -1.3051259400023532 0.175 " stroke="#191919" stroke-width="0.35 px" style="stroke-width:0.35;stroke-miterlimit:4;stroke-dasharray:none;fill:none;fill-opacity:1;fill-rule: evenodd"/>
<path id="Shape2DView_nwe0060"  d="M -1.3568929081107255 0.475 L -1.3051259400023532 0.475 " stroke="#191919" stroke-width="0.35 px" style="stroke-width:0.35;stroke-miterlimit:4;stroke-dasharray:none;fill:none;fill-opacity:1;fill-rule: evenodd"/>
<path id="Shape2DView_nwe0061"  d="M -1.109009804864 0.475 L -1.084252040565 0.475 " stroke="#191919" stroke-width="0.35 px" style="stroke-width:0.35;stroke-miterlimit:4;stroke-dasharray:none;fill:none;fill-opacity:1;fill-rule: evenodd"/>
<path id="Shape2DView_nwe0062"  d="M -1.109009804864 0.175 L -1.084252040565 0.175 " stroke="#191919" stroke-width="0.35 px" style="stroke-width:0.35;stroke-miterlimit:4;stroke-dasharray:none;fill:none;fill-opacity:1;fill-rule: evenodd"/>
<path id="Shape2DView_nwe0063"  d="M -1.45495097568 0.475 L -1.445156697261075 0.475 L -1.435456599696729 0.475 L -1.425943958207355 0.475 L -1.4167102454534652 0.475 L -1.4078442519432421 0.475 L -1.399431232231414 0.475 L -1.391552085119522 0.475 L -1.3842825757406996 0.475 L -1.3776926070093198 0.475 L -1.3718455474411866 0.475 L -1.3667976218078803 0.475 L -1.3625973704846757 0.475 L -1.359285182690885 0.475 L -1.3568929081109464 0.475 " stroke="#191919" stroke-width="0.35 px" style="stroke-width:0.35;stroke-miterlimit:4;stroke-dasharray:none;fill:none;fill-opacity:1;fill-rule: evenodd"/>
<path id="Shape2DView_nwe0064"  d="M -1.3051259400021071 0.475 L -1.3003413908422303 0.475 L -1.2937170152546489 0.475 L -1.2853165126082395 0.475 L -1.2752206613416273 0.475 L -1.2635265422053605 0.475 L -1.2503466047426013 0.475 L -1.235807585984956 0.475 L -1.220049291761172 0.475 L -1.203223252337516 0.475 L -1.18549126531707 0.475 L -1.16702383980929 0.475 L -1.147998556830542 0.475 L -1.1285983617018502 0.475 L -1.109009804864 0.475 " stroke="#191919" stroke-width="0.35 px" style="stroke-width:0.35;stroke-miterlimit:4;stroke-dasharray:none;fill:none;fill-opacity:1;fill-rule: evenodd"/>
<path id="Shape2DView_nwe0065"  d="M -1.109009804864 0.175 L -1.1285983617018505 0.175 L -1.1479985568305422 0.175 L -1.1670238398092903 0.175 L -1.18549126531707 0.175 L -1.203223252337516 0.175 L -1.220049291761172 0.175 L -1.235807585984956 0.175 L -1.2503466047426013 0.175 L -1.2635265422053605 0.175 L -1.2752206613416273 0.175 L -1.2853165126082395 0.175 L -1.2937170152546487 0.175 L -1.3003413908422303 0.175 L -1.3051259400021071 0.175 " stroke="#191919" stroke-width="0.35 px" style="stroke-width:0.35;stroke-miterlimit:4;stroke-dasharray:none;fill:none;fill-opacity:1;fill-rule: evenodd"/>
<path id="Shape2DView_nwe0066"  d="M -1.3568929081109464 0.175 L -1.359285182690885 0.175 L -1.3625973704846757 0.175 L -1.3667976218078803 0.175 L -1.3718455474411864 0.175 L -1.3776926070093196 0.175 L -1.3842825757406994 0.175 L -1.3915520851195218 0.175 L -1.3994312322314137 0.175 L -1.407844251943242 0.175 L -1.4167102454534648 0.175 L -1.4259439582073545 0.175 L -1.4354565996967286 0.175 L -1.4451566972610743 0.175 L -1.45495097568 0.175 " stroke="#191919" stroke-width="0.35 px" style="stroke-width:0.35;stroke-miterlimit:4;stroke-dasharray:none;fill:none;fill-opacity:1;fill-rule: evenodd"/>
<path id="Shape2DView_nwe0067"  d="M -1.65 -0.175 L -1.65 -0.475 " stroke="#191919" stroke-width="0.35 px" style="stroke-width:0.35;stroke-miterlimit:4;stroke-dasharray:none;fill:none;fill-opacity:1;fill-rule: evenodd"/>
<path id="Shape2DView_nwe0068"  d="M -1.65 -0.475 L -1.45495097568 -0.475 " stroke="#191919" stroke-width="0.35 px" style="stroke-width:0.35;stroke-miterlimit:4;stroke-dasharray:none;fill:none;fill-opacity:1;fill-rule: evenodd"/>
<path id="Shape2DView_nwe0069"  d="M -1.65 -0.175 L -1.45495097568 -0.175 " stroke="#191919" stroke-width="0.35 px" style="stroke-width:0.35;stroke-miterlimit:4;stroke-dasharray:none;fill:none;fill-opacity:1;fill-rule: evenodd"/>
<path id="Shape2DView_nwe0070"  d="M -1.3568929081107255 -0.475 L -1.3051259400023532 -0.475 " stroke="#191919" stroke-width="0.35 px" style="stroke-width:0.35;stroke-miterlimit:4;stroke-dasharray:none;fill:none;fill-opacity:1;fill-rule: evenodd"/>
<path id="Shape2DView_nwe0071"  d="M -1.3568929081107255 -0.175 L -1.3051259400023532 -0.175 " stroke="#191919" stroke-width="0.35 px" style="stroke-width:0.35;stroke-miterlimit:4;stroke-dasharray:none;fill:none;fill-opacity:1;fill-rule: evenodd"/>
<path id="Shape2DView_nwe0072"  d="M -1.109009804864 -0.175 L -1.084252040565 -0.175 " stroke="#191919" stroke-width="0.35 px" style="stroke-width:0.35;stroke-miterlimit:4;stroke-dasharray:none;fill:none;fill-opacity:1;fill-rule: evenodd"/>
<path id="Shape2DView_nwe0073"  d="M -1.109009804864 -0.475 L -1.084252040565 -0.475 " stroke="#191919" stroke-width="0.35 px" style="stroke-width:0.35;stroke-miterlimit:4;stroke-dasharray:none;fill:none;fill-opacity:1;fill-rule: evenodd"/>
<path id="Shape2DView_nwe0074"  d="M -1.45495097568 -0.175 L -1.445156697261075 -0.175 L -1.435456599696729 -0.175 L -1.425943958207355 -0.175 L -1.4167102454534652 -0.175 L -1.4078442519432421 -0.175 L -1.399431232231414 -0.175 L -1.391552085119522 -0.175 L -1.3842825757406996 -0.175 L -1.3776926070093198 -0.175 L -1.3718455474411866 -0.175 L -1.3667976218078803 -0.175 L -1.3625973704846757 -0.175 L -1.359285182690885 -0.175 L -1.3568929081109464 -0.175 " stroke="#191919" stroke-width="0.35 px" style="stroke-width:0.35;stroke-miterlimit:4;stroke-dasharray:none;fill:none;fill-opacity:1;fill-rule: evenodd"/>
<path id="Shape2DView_nwe0075"  d="M -1.3051259400021071 -0.175 L -1.3003413908422303 -0.175 L -1.2937170152546489 -0.175 L -1.2853165126082395 -0.175 L -1.2752206613416273 -0.175 L -1.2635265422053605 -0.175 L -1.2503466047426013 -0.175 L -1.235807585984956 -0.175 L -1.220049291761172 -0.175 L -1.203223252337516 -0.175 L -1.18549126531707 -0.175 L -1.16702383980929 -0.175 L -1.147998556830542 -0.175 L -1.1285983617018502 -0.175 L -1.109009804864 -0.175 " stroke="#191919" stroke-width="0.35 px" style="stroke-width:0.35;stroke-miterlimit:4;stroke-dasharray:none;fill:none;fill-opacity:1;fill-rule: evenodd"/>
<path id="Shape2DView_nwe0076"  d="M -1.109009804864 -0.475 L -1.1285983617018505 -0.475 L -1.1479985568305422 -0.475 L -1.1670238398092903 -0.475 L -1.18549126531707 -0.475 L -1.203223252337516 -0.475 L -1.220049291761172 -0.475 L -1.235807585984956 -0.475 L -1.2503466047426013 -0.475 L -1.2635265422053605 -0.475 L -1.2752206613416273 -0.475 L -1.2853165126082395 -0.475 L -1.2937170152546487 -0.475 L -1.3003413908422303 -0.475 L -1.3051259400021071 -0.475 " stroke="#191919" stroke-width="0.35 px" style="stroke-width:0.35;stroke-miterlimit:4;stroke-dasharray:none;fill:none;fill-opacity:1;fill-rule: evenodd"/>
<path id="Shape2DView_nwe0077"  d="M -1.3568929081109464 -0.475 L -1.359285182690885 -0.475 L -1.3625973704846757 -0.475 L -1.3667976218078803 -0.475 L -1.3718455474411864 -0.475 L -1.3776926070093196 -0.475 L -1.3842825757406994 -0.475 L -1.3915520851195218 -0.475 L -1.3994312322314137 -0.475 L -1.407844251943242 -0.475 L -1.4167102454534648 -0.475 L -1.4259439582073545 -0.475 L -1.4354565996967286 -0.475 L -1.4451566972610743 -0.475 L -1.45495097568 -0.475 " stroke="#191919" stroke-width="0.35 px" style="stroke-width:0.35;stroke-miterlimit:4;stroke-dasharray:none;fill:none;fill-opacity:1;fill-rule: evenodd"/>
<path id="Shape2DView_nwe0078"  d="M -1.65 -0.825 L -1.65 -1.125 " stroke="#191919" stroke-width="0.35 px" style="stroke-width:0.35;stroke-miterlimit:4;stroke-dasharray:none;fill:none;fill-opacity:1;fill-rule: evenodd"/>
<path id="Shape2DView_nwe0079"  d="M -1.65 -1.125 L -1.45495097568 -1.125 " stroke="#191919" stroke-width="0.35 px" style="stroke-width:0.35;stroke-miterlimit:4;stroke-dasharray:none;fill:none;fill-opacity:1;fill-rule: evenodd"/>
<path id="Shape2DView_nwe0080"  d="M -1.65 -0.825 L -1.45495097568 -0.825 " stroke="#191919" stroke-width="0.35 px" style="stroke-width:0.35;stroke-miterlimit:4;stroke-dasharray:none;fill:none;fill-opacity:1;fill-rule: evenodd"/>
<path id="Shape2DView_nwe0081"  d="M -1.3568929081107255 -1.125 L -1.3051259400023532 -1.125 " stroke="#191919" stroke-width="0.35 px" style="stroke-width:0.35;stroke-miterlimit:4;stroke-dasharray:none;fill:none;fill-opacity:1;fill-rule: evenodd"/>
<path id="Shape2DView_nwe0082"  d="M -1.3568929081107255 -0.825 L -1.3051259400023532 -0.825 " stroke="#191919" stroke-width="0.35 px" style="stroke-width:0.35;stroke-miterlimit:4;stroke-dasharray:none;fill:none;fill-opacity:1;fill-rule: evenodd"/>
<path id="Shape2DView_nwe0083"  d="M -1.109009804864 -0.825 L -1.084252040565 -0.825 " stroke="#191919" stroke-width="0.35 px" style="stroke-width:0.35;stroke-miterlimit:4;stroke-dasharray:none;fill:none;fill-opacity:1;fill-rule: evenodd"/>
<path id="Shape2DView_nwe0084"  d="M -1.109009804864 -1.125 L -1.084252040565 -1.125 " stroke="#191919" stroke-width="0.35 px" style="stroke-width:0.35;stroke-miterlimit:4;stroke-dasharray:none;fill:none;fill-opacity:1;fill-rule: evenodd"/>
<path id="Shape2DView_nwe0085"  d="M -1.45495097568 -0.825 L -1.445156697261075 -0.825 L -1.435456599696729 -0.825 L -1.425943958207355 -0.825 L -1.4167102454534652 -0.825 L -1.4078442519432421 -0.825 L -1.399431232231414 -0.825 L -1.391552085119522 -0.825 L -1.3842825757406996 -0.825 L -1.3776926070093198 -0.825 L -1.3718455474411866 -0.825 L -1.3667976218078803 -0.825 L -1.3625973704846757 -0.825 L -1.359285182690885 -0.825 L -1.3568929081109464 -0.825 " stroke="#191919" stroke-width="0.35 px" style="stroke-width:0.35;stroke-miterlimit:4;stroke-dasharray:none;fill:none;fill-opacity:1;fill-rule: evenodd"/>
<path id="Shape2DView_nwe0086"  d="M -1.3051259400021071 -0.825 L -1.3003413908422303 -0.825 L -1.2937170152546489 -0.825 L -1.2853165126082395 -0.825 L -1.2752206613416273 -0.825 L -1.2635265422053605 -0.825 L -1.2503466047426013 -0.825 L -1.235807585984956 -0.825 L -1.220049291761172 -0.825 L -1.203223252337516 -0.825 L -1.18549126531707 -0.825 L -1.16702383980929 -0.825 L -1.147998556830542 -0.825 L -1.1285983617018502 -0.825 L -1.109009804864 -0.825 " stroke="#191919" stroke-width="0.35 px" style="stroke-width:0.35;stroke-miterlimit:4;stroke-dasharray:none;fill:none;fill-opacity:1;fill-rule: evenodd"/>
<path id="Shape2DView_nwe0087"  d="M -1.109009804864 -1.125 L -1.1285983617018505 -1.125 L -1.1479985568305422 -1.125 L -1.1670238398092903 -1.125 L -1.18549126531707 -1.125 L -1.203223252337516 -1.125 L -1.220049291761172 -1.125 L -1.235807585984956 -1.125 L -1.2503466047426013 -1.125 L -1.2635265422053605 -1.125 L -1.2752206613416273 -1.125 L -1.2853165126082395 -1.125 L -1.2937170152546487 -1.125 L -1.3003413908422303 -1.125 L -1.3051259400021071 -1.125 " stroke="#191919" stroke-width="0.35 px" style="stroke-width:0.35;stroke-miterlimit:4;stroke-dasharray:none;fill:none;fill-opacity:1;fill-rule: evenodd"/>
<path id="Shape2DView_nwe0088"  d="M -1.3568929081109464 -1.125 L -1.359285182690885 -1.125 L -1.3625973704846757 -1.125 L -1.3667976218078803 -1.125 L -1.3718455474411864 -1.125 L -1.3776926070093196 -1.125 L -1.3842825757406994 -1.125 L -1.3915520851195218 -1.125 L -1.3994312322314137 -1.125 L -1.407844251943242 -1.125 L -1.4167102454534648 -1.125 L -1.4259439582073545 -1.125 L -1.4354565996967286 -1.125 L -1.4451566972610743 -1.125 L -1.45495097568 -1.125 " stroke="#191919" stroke-width="0.35 px" style="stroke-width:0.35;stroke-miterlimit:4;stroke-dasharray:none;fill:none;fill-opacity:1;fill-rule: evenodd"/>
<path id="Shape2DView_nwe0089"  d="M 0.423753400942 0.975 A 0.25 0.25 0 0 1 -0.0762466 0.975" stroke="#191919" stroke-width="0.35 px" style="stroke-width:0.35;stroke-miterlimit:4;stroke-dasharray:none;fill:none;fill-opacity:1;fill-rule: evenodd"/>
<path id="Shape2DView_nwe0090"  d="M -1.45495097568 0.825 L -1.45495097568 1.125 " stroke="#191919" stroke-width="0.35 px" style="stroke-width:0.35;stroke-miterlimit:4;stroke-dasharray:none;fill:none;fill-opacity:1;fill-rule: evenodd"/>
<path id="Shape2DView_nwe0091"  d="M -1.305125940002 0.825 L -1.305125940002 1.125 " stroke="#191919" stroke-width="0.35 px" style="stroke-width:0.35;stroke-miterlimit:4;stroke-dasharray:none;fill:none;fill-opacity:1;fill-rule: evenodd"/>
<path id="Shape2DView_nwe0092"  d="M -1.356892908111 1.125 L -1.356892908111 0.825 " stroke="#191919" stroke-width="0.35 px" style="stroke-width:0.35;stroke-miterlimit:4;stroke-dasharray:none;fill:none;fill-opacity:1;fill-rule: evenodd"/>
<path id="Shape2DView_nwe0093"  d="M -1.109009804864 1.125 L -1.109009804864 0.825 " stroke="#191919" stroke-width="0.35 px" style="stroke-width:0.35;stroke-miterlimit:4;stroke-dasharray:none;fill:none;fill-opacity:1;fill-rule: evenodd"/>
<path id="Shape2DView_nwe0094"  d="M -1.45495097568 0.175 L -1.45495097568 0.475 " stroke="#191919" stroke-width="0.35 px" style="stroke-width:0.35;stroke-miterlimit:4;stroke-dasharray:none;fill:none;fill-opacity:1;fill-rule: evenodd"/>
<path id="Shape2DView_nwe0095"  d="M -1.305125940002 0.175 L -1.305125940002 0.475 " stroke="#191919" stroke-width="0.35 px" style="stroke-width:0.35;stroke-miterlimit:4;stroke-dasharray:none;fill:none;fill-opacity:1;fill-rule: evenodd"/>
<path id="Shape2DView_nwe0096"  d="M -1.356892908111 0.475 L -1.356892908111 0.175 " stroke="#191919" stroke-width="0.35 px" style="stroke-width:0.35;stroke-miterlimit:4;stroke-dasharray:none;fill:none;fill-opacity:1;fill-rule: evenodd"/>
<path id="Shape2DView_nwe0097"  d="M -1.109009804864 0.475 L -1.109009804864 0.175 " stroke="#191919" stroke-width="0.35 px" style="stroke-width:0.35;stroke-miterlimit:4;stroke-dasharray:none;fill:none;fill-opacity:1;fill-rule: evenodd"/>
<path id="Shape2DView_nwe0098"  d="M -1.45495097568 -0.475 L -1.45495097568 -0.175 " stroke="#191919" stroke-width="0.35 px" style="stroke-width:0.35;stroke-miterlimit:4;stroke-dasharray:none;fill:none;fill-opacity:1;fill-rule: evenodd"/>
<path id="Shape2DView_nwe0099"  d="M -1.305125940002 -0.475 L -1.305125940002 -0.175 " stroke="#191919" stroke-width="0.35 px" style="stroke-width:0.35;stroke-miterlimit:4;stroke-dasharray:none;fill:none;fill-opacity:1;fill-rule: evenodd"/>
<path id="Shape2DView_nwe0100"  d="M -1.356892908111 -0.175 L -1.356892908111 -0.475 " stroke="#191919" stroke-width="0.35 px" style="stroke-width:0.35;stroke-miterlimit:4;stroke-dasharray:none;fill:none;fill-opacity:1;fill-rule: evenodd"/>
<path id="Shape2DView_nwe0101"  d="M -1.109009804864 -0.175 L -1.109009804864 -0.475 " stroke="#191919" stroke-width="0.35 px" style="stroke-width:0.35;stroke-miterlimit:4;stroke-dasharray:none;fill:none;fill-opacity:1;fill-rule: evenodd"/>
<path id="Shape2DView_nwe0102"  d="M -1.45495097568 -1.125 L -1.45495097568 -0.825 " stroke="#191919" stroke-width="0.35 px" style="stroke-width:0.35;stroke-miterlimit:4;stroke-dasharray:none;fill:none;fill-opacity:1;fill-rule: evenodd"/>
<path id="Shape2DView_nwe0103"  d="M -1.305125940002 -1.125 L -1.305125940002 -0.825 " stroke="#191919" stroke-width="0.35 px" style="stroke-width:0.35;stroke-miterlimit:4;stroke-dasharray:none;fill:none;fill-opacity:1;fill-rule: evenodd"/>
<path id="Shape2DView_nwe0104"  d="M -1.356892908111 -0.825 L -1.356892908111 -1.125 " stroke="#191919" stroke-width="0.35 px" style="stroke-width:0.35;stroke-miterlimit:4;stroke-dasharray:none;fill:none;fill-opacity:1;fill-rule: evenodd"/>
<path id="Shape2DView_nwe0105"  d="M -1.109009804864 -0.825 L -1.109009804864 -1.125 " stroke="#191919" stroke-width="0.35 px" style="stroke-width:0.35;stroke-miterlimit:4;stroke-dasharray:none;fill:none;fill-opacity:1;fill-rule: evenodd"/>
<path id="Shape2DView_nwe0106"  d="M 0.423753400942 0.975 L 0.43256974997744585 0.975 " stroke="#191919" stroke-width="0.35 px" style="stroke-width:0.35;stroke-miterlimit:4;stroke-dasharray:none;fill:none;fill-opacity:1;fill-rule: evenodd"/>
<path id="Shape2DView_nwe0107"  d="M -0.07624659905778 0.975 L -0.0850629480932084 0.975 " stroke="#191919" stroke-width="0.35 px" style="stroke-width:0.35;stroke-miterlimit:4;stroke-dasharray:none;fill:none;fill-opacity:1;fill-rule: evenodd"/>
<title>b'Shape2DView'</title>
</g>
<g id="Rectangle" transform="translate(1.683000,1.680813) scale(1,-1)">
<rect fill="#ff0000" id="origin" width="1" height="1" x="0" y="0" />
<title>b'Rectangle'</title>
</g>
</svg>