<?xml version="1.0"?>
<!DOCTYPE svg PUBLIC "-//W3C//DTD SVG 1.1//EN" "http://www.w3.org/Graphics/SVG/1.1/DTD/svg11.dtd">
<svg width="2.856mm" height="3.0560000000000005mm" viewBox="0 0 2.856 3.0560000000000005" xmlns="http://www.w3.org/2000/svg" version="1.1">
<g id="Shape2DView" transform="translate(1.428000,1.528000) scale(1,-1)">
<path id="Shape2DView_nwe0000"  d="M -0.705 1.5 L 0.705 1.5000000000000002 " stroke="#191919" stroke-width="0.35 px" style="stroke-width:0.35;stroke-miterlimit:4;stroke-dasharray:none;fill:none;fill-opacity:1;fill-rule: evenodd"/>
<path id="Shape2DView_nwe0001"  d="M 0.705 1.5 L 0.8 1.405 " stroke="#191919" stroke-width="0.35 px" style="stroke-width:0.35;stroke-miterlimit:4;stroke-dasharray:none;fill:none;fill-opacity:1;fill-rule: evenodd"/>
<path id="Shape2DView_nwe0002"  d="M 0.705 1.5 L 0.6925 1.475 " stroke="#191919" stroke-width="0.35 px" style="stroke-width:0.35;stroke-miterlimit:4;stroke-dasharray:none;fill:none;fill-opacity:1;fill-rule: evenodd"/>
<path id="Shape2DView_nwe0003"  d="M -0.6925 1.475 L 0.6925 1.4750000000000003 " stroke="#191919" stroke-width="0.35 px" style="stroke-width:0.35;stroke-miterlimit:4;stroke-dasharray:none;fill:none;fill-opacity:1;fill-rule: evenodd"/>
<path id="Shape2DView_nwe0004"  d="M -0.705 1.5 L -0.6925 1.475 " stroke="#191919" stroke-width="0.35 px" style="stroke-width:0.35;stroke-miterlimit:4;stroke-dasharray:none;fill:none;fill-opacity:1;fill-rule: evenodd"/>
<path id="Shape2DView_nwe0005"  d="M -0.8 1.405 L -0.705 1.5 " stroke="#191919" stroke-width="0.35 px" style="stroke-width:0.35;stroke-miterlimit:4;stroke-dasharray:none;fill:none;fill-opacity:1;fill-rule: evenodd"/>
<path id="Shape2DView_nwe0006"  d="M 0.8 1.405 L 0.8000000000000003 0.19999999999999996 " stroke="#191919" stroke-width="0.35 px" style="stroke-width:0.35;stroke-miterlimit:4;stroke-dasharray:none;fill:none;fill-opacity:1;fill-rule: evenodd"/>
<path id="Shape2DView_nwe0007"  d="M 0.8000000000000004 -0.19999999999999996 L 0.8000000000000007 -1.405 " stroke="#191919" stroke-width="0.35 px" style="stroke-width:0.35;stroke-miterlimit:4;stroke-dasharray:none;fill:none;fill-opacity:1;fill-rule: evenodd"/>
<path id="Shape2DView_nwe0008"  d="M 0.8 -1.405 L 0.705 -1.5 " stroke="#191919" stroke-width="0.35 px" style="stroke-width:0.35;stroke-miterlimit:4;stroke-dasharray:none;fill:none;fill-opacity:1;fill-rule: evenodd"/>
<path id="Shape2DView_nwe0009"  d="M 0.705 -1.5 L -0.705 -1.5000000000000002 " stroke="#191919" stroke-width="0.35 px" style="stroke-width:0.35;stroke-miterlimit:4;stroke-dasharray:none;fill:none;fill-opacity:1;fill-rule: evenodd"/>
<path id="Shape2DView_nwe0010"  d="M -0.705 -1.5 L -0.8 -1.405 " stroke="#191919" stroke-width="0.35 px" style="stroke-width:0.35;stroke-miterlimit:4;stroke-dasharray:none;fill:none;fill-opacity:1;fill-rule: evenodd"/>
<path id="Shape2DView_nwe0011"  d="M -0.8 -1.405 L -0.8000000000000002 -1.15 " stroke="#191919" stroke-width="0.35 px" style="stroke-width:0.35;stroke-miterlimit:4;stroke-dasharray:none;fill:none;fill-opacity:1;fill-rule: evenodd"/>
<path id="Shape2DView_nwe0012"  d="M -0.8000000000000006 1.1499999999999997 L -0.8000000000000007 1.405 " stroke="#191919" stroke-width="0.35 px" style="stroke-width:0.35;stroke-miterlimit:4;stroke-dasharray:none;fill:none;fill-opacity:1;fill-rule: evenodd"/>
<path id="Shape2DView_nwe0013"  d="M -0.8000000000000002 -0.75 L -0.8000000000000005 0.7500000000000002 " stroke="#191919" stroke-width="0.35 px" style="stroke-width:0.35;stroke-miterlimit:4;stroke-dasharray:none;fill:none;fill-opacity:1;fill-rule: evenodd"/>
<path id="Shape2DView_nwe0014"  d="M 0.8 1.405 L 0.775 1.3925 " stroke="#191919" stroke-width="0.35 px" style="stroke-width:0.35;stroke-miterlimit:4;stroke-dasharray:none;fill:none;fill-opacity:1;fill-rule: evenodd"/>
<path id="Shape2DView_nwe0015"  d="M 0.6925 1.475 L 0.775 1.3925 " stroke="#191919" stroke-width="0.35 px" style="stroke-width:0.35;stroke-miterlimit:4;stroke-dasharray:none;fill:none;fill-opacity:1;fill-rule: evenodd"/>
<path id="Shape2DView_nwe0016"  d="M 0.6925 1.475 L 0.655608030891 1.401216061781 " stroke="#191919" stroke-width="0.35 px" style="stroke-width:0.35;stroke-miterlimit:4;stroke-dasharray:none;fill:none;fill-opacity:1;fill-rule: evenodd"/>
<path id="Shape2DView_nwe0017"  d="M -0.655608030891 1.401216061781 L 0.655608030891 1.4012160617810003 " stroke="#191919" stroke-width="0.35 px" style="stroke-width:0.35;stroke-miterlimit:4;stroke-dasharray:none;fill:none;fill-opacity:1;fill-rule: evenodd"/>
<path id="Shape2DView_nwe0018"  d="M -0.6925 1.475 L -0.655608030891 1.401216061781 " stroke="#191919" stroke-width="0.35 px" style="stroke-width:0.35;stroke-miterlimit:4;stroke-dasharray:none;fill:none;fill-opacity:1;fill-rule: evenodd"/>
<path id="Shape2DView_nwe0019"  d="M -0.775 1.3925 L -0.6925 1.475 " stroke="#191919" stroke-width="0.35 px" style="stroke-width:0.35;stroke-miterlimit:4;stroke-dasharray:none;fill:none;fill-opacity:1;fill-rule: evenodd"/>
<path id="Shape2DView_nwe0020"  d="M -0.8 1.405 L -0.775 1.3925 " stroke="#191919" stroke-width="0.35 px" style="stroke-width:0.35;stroke-miterlimit:4;stroke-dasharray:none;fill:none;fill-opacity:1;fill-rule: evenodd"/>
<path id="Shape2DView_nwe0021"  d="M 0.775 1.3925 L 0.7750000000000002 0.19999999999999996 " stroke="#191919" stroke-width="0.35 px" style="stroke-width:0.35;stroke-miterlimit:4;stroke-dasharray:none;fill:none;fill-opacity:1;fill-rule: evenodd"/>
<path id="Shape2DView_nwe0022"  d="M 1.4 0.2 L 1.15 0.19999999999999996 " stroke="#191919" stroke-width="0.35 px" style="stroke-width:0.35;stroke-miterlimit:4;stroke-dasharray:none;fill:none;fill-opacity:1;fill-rule: evenodd"/>
<path id="Shape2DView_nwe0023"  d="M 1.1499999999999997 0.2 L 1.138803552389669 0.2 L 1.1277479066043683 0.2 L 1.116972093804483 0.2 L 1.106611626088244 0.2 L 1.096796792348466 0.2 L 1.0876510198141265 0.2 L 1.079289321881345 0.19999999999999998 L 1.071816851753197 0.19999999999999998 L 1.0653275800771715 0.19999999999999998 L 1.059903113209758 0.19999999999999998 L 1.055611666969163 0.19999999999999998 L 1.0525072087818175 0.19999999999999998 L 1.0506287790106756 0.19999999999999998 L 1.0499999999999998 0.19999999999999998 " stroke="#191919" stroke-width="0.35 px" style="stroke-width:0.35;stroke-miterlimit:4;stroke-dasharray:none;fill:none;fill-opacity:1;fill-rule: evenodd"/>
<path id="Shape2DView_nwe0024"  d="M 1.05 0.20000000000000007 L 1.0484280524733107 0.20000000000000007 L 1.043731978045456 0.20000000000000007 L 1.035970832577092 0.20000000000000007 L 1.0252422169756048 0.20000000000000007 L 1.011681049807071 0.20000000000000007 L 0.9954578706170074 0.20000000000000007 L 0.9767766952966368 0.20000000000000004 L 0.9558724504646834 0.20000000000000004 L 0.9330080191288341 0.20000000000000004 L 0.9084709347793896 0.20000000000000004 L 0.8825697654887917 0.20000000000000004 L 0.8556302334890786 0.2 L 0.827991119025827 0.2 L 0.8 0.2 " stroke="#191919" stroke-width="0.35 px" style="stroke-width:0.35;stroke-miterlimit:4;stroke-dasharray:none;fill:none;fill-opacity:1;fill-rule: evenodd"/>
<path id="Shape2DView_nwe0025"  d="M 1.4 -0.2 L 1.15 -0.20000000000000007 " stroke="#191919" stroke-width="0.35 px" style="stroke-width:0.35;stroke-miterlimit:4;stroke-dasharray:none;fill:none;fill-opacity:1;fill-rule: evenodd"/>
<path id="Shape2DView_nwe0026"  d="M 1.1499999999999997 -0.2 L 1.138803552389669 -0.2 L 1.1277479066043683 -0.2 L 1.116972093804483 -0.2 L 1.106611626088244 -0.2 L 1.096796792348466 -0.2 L 1.0876510198141265 -0.2 L 1.079289321881345 -0.20000000000000004 L 1.071816851753197 -0.20000000000000004 L 1.0653275800771715 -0.20000000000000004 L 1.059903113209758 -0.20000000000000004 L 1.055611666969163 -0.20000000000000004 L 1.0525072087818175 -0.20000000000000004 L 1.0506287790106756 -0.20000000000000004 L 1.0499999999999998 -0.20000000000000004 " stroke="#191919" stroke-width="0.35 px" style="stroke-width:0.35;stroke-miterlimit:4;stroke-dasharray:none;fill:none;fill-opacity:1;fill-rule: evenodd"/>
<path id="Shape2DView_nwe0027"  d="M 1.05 -0.19999999999999996 L 1.0484280524733107 -0.19999999999999996 L 1.043731978045456 -0.19999999999999996 L 1.035970832577092 -0.19999999999999996 L 1.0252422169756048 -0.19999999999999996 L 1.011681049807071 -0.19999999999999996 L 0.9954578706170074 -0.19999999999999996 L 0.9767766952966368 -0.19999999999999998 L 0.9558724504646834 -0.19999999999999998 L 0.9330080191288341 -0.19999999999999998 L 0.9084709347793896 -0.19999999999999998 L 0.8825697654887917 -0.19999999999999998 L 0.8556302334890786 -0.2 L 0.827991119025827 -0.2 L 0.8 -0.2 " stroke="#191919" stroke-width="0.35 px" style="stroke-width:0.35;stroke-miterlimit:4;stroke-dasharray:none;fill:none;fill-opacity:1;fill-rule: evenodd"/>
<path id="Shape2DView_nwe0028"  d="M 0.8 -1.405 L 0.775 -1.3925 " stroke="#191919" stroke-width="0.35 px" style="stroke-width:0.35;stroke-miterlimit:4;stroke-dasharray:none;fill:none;fill-opacity:1;fill-rule: evenodd"/>
<path id="Shape2DView_nwe0029"  d="M 0.7750000000000004 -0.19999999999999996 L 0.7750000000000007 -1.3925 " stroke="#191919" stroke-width="0.35 px" style="stroke-width:0.35;stroke-miterlimit:4;stroke-dasharray:none;fill:none;fill-opacity:1;fill-rule: evenodd"/>
<path id="Shape2DView_nwe0030"  d="M 0.705 -1.5 L 0.6925 -1.475 " stroke="#191919" stroke-width="0.35 px" style="stroke-width:0.35;stroke-miterlimit:4;stroke-dasharray:none;fill:none;fill-opacity:1;fill-rule: evenodd"/>
<path id="Shape2DView_nwe0031"  d="M 0.775 -1.3925 L 0.6925 -1.475 " stroke="#191919" stroke-width="0.35 px" style="stroke-width:0.35;stroke-miterlimit:4;stroke-dasharray:none;fill:none;fill-opacity:1;fill-rule: evenodd"/>
<path id="Shape2DView_nwe0032"  d="M -0.705 -1.5 L -0.6925 -1.475 " stroke="#191919" stroke-width="0.35 px" style="stroke-width:0.35;stroke-miterlimit:4;stroke-dasharray:none;fill:none;fill-opacity:1;fill-rule: evenodd"/>
<path id="Shape2DView_nwe0033"  d="M 0.6925 -1.475 L -0.6925 -1.4750000000000003 " stroke="#191919" stroke-width="0.35 px" style="stroke-width:0.35;stroke-miterlimit:4;stroke-dasharray:none;fill:none;fill-opacity:1;fill-rule: evenodd"/>
<path id="Shape2DView_nwe0034"  d="M -0.8 -1.405 L -0.775 -1.3925 " stroke="#191919" stroke-width="0.35 px" style="stroke-width:0.35;stroke-miterlimit:4;stroke-dasharray:none;fill:none;fill-opacity:1;fill-rule: evenodd"/>
<path id="Shape2DView_nwe0035"  d="M -0.6925 -1.475 L -0.775 -1.3925 " stroke="#191919" stroke-width="0.35 px" style="stroke-width:0.35;stroke-miterlimit:4;stroke-dasharray:none;fill:none;fill-opacity:1;fill-rule: evenodd"/>
<path id="Shape2DView_nwe0036"  d="M -0.775 -1.3925 L -0.775 -1.15 " stroke="#191919" stroke-width="0.35 px" style="stroke-width:0.35;stroke-miterlimit:4;stroke-dasharray:none;fill:none;fill-opacity:1;fill-rule: evenodd"/>
<path id="Shape2DView_nwe0037"  d="M -1.4 -1.15 L -1.15 -1.15 " stroke="#191919" stroke-width="0.35 px" style="stroke-width:0.35;stroke-miterlimit:4;stroke-dasharray:none;fill:none;fill-opacity:1;fill-rule: evenodd"/>
<path id="Shape2DView_nwe0038"  d="M -1.1499999999999997 -1.15 L -1.138803552389669 -1.15 L -1.1277479066043683 -1.15 L -1.116972093804483 -1.15 L -1.106611626088244 -1.15 L -1.096796792348466 -1.15 L -1.0876510198141265 -1.15 L -1.079289321881345 -1.15 L -1.071816851753197 -1.15 L -1.0653275800771715 -1.15 L -1.059903113209758 -1.15 L -1.055611666969163 -1.15 L -1.0525072087818175 -1.15 L -1.0506287790106756 -1.15 L -1.0499999999999998 -1.15 " stroke="#191919" stroke-width="0.35 px" style="stroke-width:0.35;stroke-miterlimit:4;stroke-dasharray:none;fill:none;fill-opacity:1;fill-rule: evenodd"/>
<path id="Shape2DView_nwe0039"  d="M -1.05 -1.15 L -1.0484280524733107 -1.15 L -1.043731978045456 -1.15 L -1.035970832577092 -1.15 L -1.0252422169756048 -1.15 L -1.011681049807071 -1.15 L -0.9954578706170074 -1.15 L -0.9767766952966368 -1.15 L -0.9558724504646834 -1.15 L -0.9330080191288341 -1.15 L -0.9084709347793896 -1.15 L -0.8825697654887917 -1.15 L -0.8556302334890786 -1.15 L -0.827991119025827 -1.15 L -0.8 -1.15 " stroke="#191919" stroke-width="0.35 px" style="stroke-width:0.35;stroke-miterlimit:4;stroke-dasharray:none;fill:none;fill-opacity:1;fill-rule: evenodd"/>
<path id="Shape2DView_nwe0040"  d="M -1.4 1.15 L -1.15 1.15 " stroke="#191919" stroke-width="0.35 px" style="stroke-width:0.35;stroke-miterlimit:4;stroke-dasharray:none;fill:none;fill-opacity:1;fill-rule: evenodd"/>
<path id="Shape2DView_nwe0041"  d="M -1.1499999999999997 1.15 L -1.138803552389669 1.15 L -1.1277479066043683 1.15 L -1.116972093804483 1.15 L -1.106611626088244 1.15 L -1.096796792348466 1.15 L -1.0876510198141265 1.15 L -1.079289321881345 1.15 L -1.071816851753197 1.15 L -1.0653275800771715 1.15 L -1.059903113209758 1.15 L -1.055611666969163 1.15 L -1.0525072087818175 1.15 L -1.0506287790106756 1.15 L -1.0499999999999998 1.15 " stroke="#191919" stroke-width="0.35 px" style="stroke-width:0.35;stroke-miterlimit:4;stroke-dasharray:none;fill:none;fill-opacity:1;fill-rule: evenodd"/>
<path id="Shape2DView_nwe0042"  d="M -1.05 1.15 L -1.0484280524733107 1.15 L -1.043731978045456 1.15 L -1.035970832577092 1.15 L -1.0252422169756048 1.15 L -1.011681049807071 1.15 L -0.9954578706170074 1.15 L -0.9767766952966368 1.15 L -0.9558724504646834 1.15 L -0.9330080191288341 1.15 L -0.9084709347793896 1.15 L -0.8825697654887917 1.15 L -0.8556302334890786 1.15 L -0.827991119025827 1.15 L -0.8 1.15 " stroke="#191919" stroke-width="0.35 px" style="stroke-width:0.35;stroke-miterlimit:4;stroke-dasharray:none;fill:none;fill-opacity:1;fill-rule: evenodd"/>
<path id="Shape2DView_nwe0043"  d="M -0.7750000000000006 1.15 L -0.7750000000000007 1.3925 " stroke="#191919" stroke-width="0.35 px" style="stroke-width:0.35;stroke-miterlimit:4;stroke-dasharray:none;fill:none;fill-opacity:1;fill-rule: evenodd"/>
<path id="Shape2DView_nwe0044"  d="M -1.4 -0.75 L -1.15 -0.75 " stroke="#191919" stroke-width="0.35 px" style="stroke-width:0.35;stroke-miterlimit:4;stroke-dasharray:none;fill:none;fill-opacity:1;fill-rule: evenodd"/>
<path id="Shape2DView_nwe0045"  d="M -1.1499999999999997 -0.75 L -1.138803552389669 -0.75 L -1.1277479066043683 -0.75 L -1.116972093804483 -0.75 L -1.106611626088244 -0.75 L -1.096796792348466 -0.75 L -1.0876510198141265 -0.75 L -1.079289321881345 -0.75 L -1.071816851753197 -0.75 L -1.0653275800771715 -0.75 L -1.059903113209758 -0.75 L -1.055611666969163 -0.75 L -1.0525072087818175 -0.75 L -1.0506287790106756 -0.75 L -1.0499999999999998 -0.75 " stroke="#191919" stroke-width="0.35 px" style="stroke-width:0.35;stroke-miterlimit:4;stroke-dasharray:none;fill:none;fill-opacity:1;fill-rule: evenodd"/>
<path id="Shape2DView_nwe0046"  d="M -1.05 -0.75 L -1.0484280524733107 -0.75 L -1.043731978045456 -0.75 L -1.035970832577092 -0.75 L -1.0252422169756048 -0.75 L -1.011681049807071 -0.75 L -0.9954578706170074 -0.75 L -0.9767766952966368 -0.75 L -0.9558724504646834 -0.75 L -0.9330080191288341 -0.75 L -0.9084709347793896 -0.75 L -0.8825697654887917 -0.75 L -0.8556302334890786 -0.75 L -0.827991119025827 -0.75 L -0.8 -0.75 " stroke="#191919" stroke-width="0.35 px" style="stroke-width:0.35;stroke-miterlimit:4;stroke-dasharray:none;fill:none;fill-opacity:1;fill-rule: evenodd"/>
<path id="Shape2DView_nwe0047"  d="M -1.4 0.75 L -1.15 0.75 " stroke="#191919" stroke-width="0.35 px" style="stroke-width:0.35;stroke-miterlimit:4;stroke-dasharray:none;fill:none;fill-opacity:1;fill-rule: evenodd"/>
<path id="Shape2DView_nwe0048"  d="M -1.1499999999999997 0.75 L -1.138803552389669 0.75 L -1.1277479066043683 0.75 L -1.116972093804483 0.75 L -1.106611626088244 0.75 L -1.096796792348466 0.75 L -1.0876510198141265 0.75 L -1.079289321881345 0.75 L -1.071816851753197 0.75 L -1.0653275800771715 0.75 L -1.059903113209758 0.75 L -1.055611666969163 0.75 L -1.0525072087818175 0.75 L -1.0506287790106756 0.75 L -1.0499999999999998 0.75 " stroke="#191919" stroke-width="0.35 px" style="stroke-width:0.35;stroke-miterlimit:4;stroke-dasharray:none;fill:none;fill-opacity:1;fill-rule: evenodd"/>
<path id="Shape2DView_nwe0049"  d="M -1.05 0.75 L -1.0484280524733107 0.75 L -1.043731978045456 0.75 L -1.035970832577092 0.75 L -1.0252422169756048 0.75 L -1.011681049807071 0.75 L -0.9954578706170074 0.75 L -0.9767766952966368 0.75 L -0.9558724504646834 0.75 L -0.9330080191288341 0.75 L -0.9084709347793896 0.75 L -0.8825697654887917 0.75 L -0.8556302334890786 0.75 L -0.827991119025827 0.75 L -0.8 0.75 " stroke="#191919" stroke-width="0.35 px" style="stroke-width:0.35;stroke-miterlimit:4;stroke-dasharray:none;fill:none;fill-opacity:1;fill-rule: evenodd"/>
<path id="Shape2DView_nwe0050"  d="M -0.7750000000000001 -0.75 L -0.7750000000000005 0.75 " stroke="#191919" stroke-width="0.35 px" style="stroke-width:0.35;stroke-miterlimit:4;stroke-dasharray:none;fill:none;fill-opacity:1;fill-rule: evenodd"/>
<path id="Shape2DView_nwe0051"  d="M 0.775 1.3925 L 0.701216061781 1.355608030891 " stroke="#191919" stroke-width="0.35 px" style="stroke-width:0.35;stroke-miterlimit:4;stroke-dasharray:none;fill:none;fill-opacity:1;fill-rule: evenodd"/>
<path id="Shape2DView_nwe0052"  d="M 0.655608030891 1.401216061781 L 0.7012160617810002 1.355608030891 " stroke="#191919" stroke-width="0.35 px" style="stroke-width:0.35;stroke-miterlimit:4;stroke-dasharray:none;fill:none;fill-opacity:1;fill-rule: evenodd"/>
<path id="Shape2DView_nwe0053"  d="M 0.701216061781 1.355608030891 L 0.7012160617810006 -1.355608030891 " stroke="#191919" stroke-width="0.35 px" style="stroke-width:0.35;stroke-miterlimit:4;stroke-dasharray:none;fill:none;fill-opacity:1;fill-rule: evenodd"/>
<path id="Shape2DView_nwe0054"  d="M 0.701216061781 -1.355608030891 L 0.6556080308909998 -1.401216061781 " stroke="#191919" stroke-width="0.35 px" style="stroke-width:0.35;stroke-miterlimit:4;stroke-dasharray:none;fill:none;fill-opacity:1;fill-rule: evenodd"/>
<path id="Shape2DView_nwe0055"  d="M 0.655608030891 -1.401216061781 L -0.655608030891 -1.4012160617810003 " stroke="#191919" stroke-width="0.35 px" style="stroke-width:0.35;stroke-miterlimit:4;stroke-dasharray:none;fill:none;fill-opacity:1;fill-rule: evenodd"/>
<path id="Shape2DView_nwe0056"  d="M -0.655608030891 -1.401216061781 L -0.7012160617810002 -1.355608030891 " stroke="#191919" stroke-width="0.35 px" style="stroke-width:0.35;stroke-miterlimit:4;stroke-dasharray:none;fill:none;fill-opacity:1;fill-rule: evenodd"/>
<path id="Shape2DView_nwe0057"  d="M -0.701216061781 -1.355608030891 L -0.7012160617810006 1.355608030891 " stroke="#191919" stroke-width="0.35 px" style="stroke-width:0.35;stroke-miterlimit:4;stroke-dasharray:none;fill:none;fill-opacity:1;fill-rule: evenodd"/>
<path id="Shape2DView_nwe0058"  d="M -0.701216061781 1.355608030891 L -0.6556080308909998 1.401216061781 " stroke="#191919" stroke-width="0.35 px" style="stroke-width:0.35;stroke-miterlimit:4;stroke-dasharray:none;fill:none;fill-opacity:1;fill-rule: evenodd"/>
<path id="Shape2DView_nwe0059"  d="M -0.775 1.3925 L -0.701216061781 1.355608030891 " stroke="#191919" stroke-width="0.35 px" style="stroke-width:0.35;stroke-miterlimit:4;stroke-dasharray:none;fill:none;fill-opacity:1;fill-rule: evenodd"/>
<path id="Shape2DView_nwe0060"  d="M 0.7750000000000002 0.19999999999999996 L 0.7750000000000004 -0.19999999999999996 " stroke="#191919" stroke-width="0.35 px" style="stroke-width:0.35;stroke-miterlimit:4;stroke-dasharray:none;fill:none;fill-opacity:1;fill-rule: evenodd"/>
<path id="Shape2DView_nwe0061"  d="M 0.775 -1.3925 L 0.701216061781 -1.355608030891 " stroke="#191919" stroke-width="0.35 px" style="stroke-width:0.35;stroke-miterlimit:4;stroke-dasharray:none;fill:none;fill-opacity:1;fill-rule: evenodd"/>
<path id="Shape2DView_nwe0062"  d="M 1.05 0.2 L 1.05 -0.2 " stroke="#191919" stroke-width="0.35 px" style="stroke-width:0.35;stroke-miterlimit:4;stroke-dasharray:none;fill:none;fill-opacity:1;fill-rule: evenodd"/>
<path id="Shape2DView_nwe0063"  d="M 1.4 0.2 L 1.4 -0.2 " stroke="#191919" stroke-width="0.35 px" style="stroke-width:0.35;stroke-miterlimit:4;stroke-dasharray:none;fill:none;fill-opacity:1;fill-rule: evenodd"/>
<path id="Shape2DView_nwe0064"  d="M 0.6925 -1.475 L 0.655608030891 -1.401216061781 " stroke="#191919" stroke-width="0.35 px" style="stroke-width:0.35;stroke-miterlimit:4;stroke-dasharray:none;fill:none;fill-opacity:1;fill-rule: evenodd"/>
<path id="Shape2DView_nwe0065"  d="M -0.6925 -1.475 L -0.655608030891 -1.401216061781 " stroke="#191919" stroke-width="0.35 px" style="stroke-width:0.35;stroke-miterlimit:4;stroke-dasharray:none;fill:none;fill-opacity:1;fill-rule: evenodd"/>
<path id="Shape2DView_nwe0066"  d="M -0.775 -1.3925 L -0.701216061781 -1.355608030891 " stroke="#191919" stroke-width="0.35 px" style="stroke-width:0.35;stroke-miterlimit:4;stroke-dasharray:none;fill:none;fill-opacity:1;fill-rule: evenodd"/>
<path id="Shape2DView_nwe0067"  d="M -0.775 -1.15 L -0.7750000000000001 -0.75 " stroke="#191919" stroke-width="0.35 px" style="stroke-width:0.35;stroke-miterlimit:4;stroke-dasharray:none;fill:none;fill-opacity:1;fill-rule: evenodd"/>
<path id="Shape2DView_nwe0068"  d="M -0.7750000000000005 0.75 L -0.7750000000000006 1.15 " stroke="#191919" stroke-width="0.35 px" style="stroke-width:0.35;stroke-miterlimit:4;stroke-dasharray:none;fill:none;fill-opacity:1;fill-rule: evenodd"/>
<path id="Shape2DView_nwe0069"  d="M -1.05 -1.15 L -1.05 -0.75 " stroke="#191919" stroke-width="0.35 px" style="stroke-width:0.35;stroke-miterlimit:4;stroke-dasharray:none;fill:none;fill-opacity:1;fill-rule: evenodd"/>
<path id="Shape2DView_nwe0070"  d="M -1.4 -1.15 L -1.4 -0.75 " stroke="#191919" stroke-width="0.35 px" style="stroke-width:0.35;stroke-miterlimit:4;stroke-dasharray:none;fill:none;fill-opacity:1;fill-rule: evenodd"/>
<path id="Shape2DView_nwe0071"  d="M -1.05 0.75 L -1.05 1.15 " stroke="#191919" stroke-width="0.35 px" style="stroke-width:0.35;stroke-miterlimit:4;stroke-dasharray:none;fill:none;fill-opacity:1;fill-rule: evenodd"/>
<path id="Shape2DView_nwe0072"  d="M -1.4 0.75 L -1.4 1.15 " stroke="#191919" stroke-width="0.35 px" style="stroke-width:0.35;stroke-miterlimit:4;stroke-dasharray:none;fill:none;fill-opacity:1;fill-rule: evenodd"/>
<path id="Shape2DView_nwe0073"  d="M 0.8 0.2 L 0.8000000000000002 -0.2 " stroke="#191919" stroke-width="0.35 px" style="stroke-width:0.35;stroke-miterlimit:4;stroke-dasharray:none;fill:none;fill-opacity:1;fill-rule: evenodd"/>
<path id="Shape2DView_nwe0074"  d="M 1.15 0.2 L 1.15 -0.2 " stroke="#191919" stroke-width="0.35 px" style="stroke-width:0.35;stroke-miterlimit:4;stroke-dasharray:none;fill:none;fill-opacity:1;fill-rule: evenodd"/>
<path id="Shape2DView_nwe0075"  d="M -0.8 -1.15 L -0.8 -0.75 " stroke="#191919" stroke-width="0.35 px" style="stroke-width:0.35;stroke-miterlimit:4;stroke-dasharray:none;fill:none;fill-opacity:1;fill-rule: evenodd"/>
<path id="Shape2DView_nwe0076"  d="M -1.15 -1.15 L -1.15 -0.75 " stroke="#191919" stroke-width="0.35 px" style="stroke-width:0.35;stroke-miterlimit:4;stroke-dasharray:none;fill:none;fill-opacity:1;fill-rule: evenodd"/>
<path id="Shape2DView_nwe0077"  d="M -0.8 0.75 L -0.8 1.15 " stroke="#191919" stroke-width="0.35 px" style="stroke-width:0.35;stroke-miterlimit:4;stroke-dasharray:none;fill:none;fill-opacity:1;fill-rule: evenodd"/>
<path id="Shape2DView_nwe0078"  d="M -1.15 0.75 L -1.15 1.15 " stroke="#191919" stroke-width="0.35 px" style="stroke-width:0.35;stroke-miterlimit:4;stroke-dasharray:none;fill:none;fill-opacity:1;fill-rule: evenodd"/>
<path id="Shape2DView_nwe0079"  d="M 0.8 0.2 L 0.775 0.2 " stroke="#191919" stroke-width="0.35 px" style="stroke-width:0.35;stroke-miterlimit:4;stroke-dasharray:none;fill:none;fill-opacity:1;fill-rule: evenodd"/>
<path id="Shape2DView_nwe0080"  d="M 0.8 -0.2 L 0.775 -0.2 " stroke="#191919" stroke-width="0.35 px" style="stroke-width:0.35;stroke-miterlimit:4;stroke-dasharray:none;fill:none;fill-opacity:1;fill-rule: evenodd"/>
<path id="Shape2DView_nwe0081"  d="M -0.8 -1.15 L -0.775 -1.15 " stroke="#191919" stroke-width="0.35 px" style="stroke-width:0.35;stroke-miterlimit:4;stroke-dasharray:none;fill:none;fill-opacity:1;fill-rule: evenodd"/>
<path id="Shape2DView_nwe0082"  d="M -0.8 1.15 L -0.775 1.15 " stroke="#191919" stroke-width="0.35 px" style="stroke-width:0.35;stroke-miterlimit:4;stroke-dasharray:none;fill:none;fill-opacity:1;fill-rule: evenodd"/>
<path id="Shape2DView_nwe0083"  d="M -0.8 -0.75 L -0.775 -0.75 " stroke="#191919" stroke-width="0.35 px" style="stroke-width:0.35;stroke-miterlimit:4;stroke-dasharray:none;fill:none;fill-opacity:1;fill-rule: evenodd"/>
<path id="Shape2DView_nwe0084"  d="M -0.8 0.75 L -0.775 0.75 " stroke="#191919" stroke-width="0.35 px" style="stroke-width:0.35;stroke-miterlimit:4;stroke-dasharray:none;fill:none;fill-opacity:1;fill-rule: evenodd"/>
<title>b'Shape2DView'</title>
</g>
<g id="Rectangle" transform="translate(1.428000,1.528000) scale(1,-1)">
<rect fill="#ff0000" id="origin" width="1" height="1" x="0" y="0" />
<title>b'Rectangle'</title>
</g>
</svg>