<?xml version="1.0"?>
<!DOCTYPE svg PUBLIC "-//W3C//DTD SVG 1.1//EN" "http://www.w3.org/Graphics/SVG/1.1/DTD/svg11.dtd">
<svg width="2.142mm" height="2.0420000000000003mm" viewBox="0 0 2.142 2.0420000000000003" xmlns="http://www.w3.org/2000/svg" version="1.1">
<g id="Shape2DView" transform="translate(1.071000,1.021000) scale(1,-1)">
<path id="Shape2DView_nwe0000"  d="M -0.53 1.0 L 0.53 1.0000000000000002 " stroke="#191919" stroke-width="0.35 px" style="stroke-width:0.35;stroke-miterlimit:4;stroke-dasharray:none;fill:none;fill-opacity:1;fill-rule: evenodd"/>
<path id="Shape2DView_nwe0001"  d="M 0.53 1.0 L 0.625 0.905 " stroke="#191919" stroke-width="0.35 px" style="stroke-width:0.35;stroke-miterlimit:4;stroke-dasharray:none;fill:none;fill-opacity:1;fill-rule: evenodd"/>
<path id="Shape2DView_nwe0002"  d="M 0.53 1.0 L 0.5175 0.975 " stroke="#191919" stroke-width="0.35 px" style="stroke-width:0.35;stroke-miterlimit:4;stroke-dasharray:none;fill:none;fill-opacity:1;fill-rule: evenodd"/>
<path id="Shape2DView_nwe0003"  d="M -0.5175 0.975 L 0.5175 0.9750000000000002 " stroke="#191919" stroke-width="0.35 px" style="stroke-width:0.35;stroke-miterlimit:4;stroke-dasharray:none;fill:none;fill-opacity:1;fill-rule: evenodd"/>
<path id="Shape2DView_nwe0004"  d="M -0.53 1.0 L -0.5175 0.975 " stroke="#191919" stroke-width="0.35 px" style="stroke-width:0.35;stroke-miterlimit:4;stroke-dasharray:none;fill:none;fill-opacity:1;fill-rule: evenodd"/>
<path id="Shape2DView_nwe0005"  d="M -0.625 0.905 L -0.53 1.0 " stroke="#191919" stroke-width="0.35 px" style="stroke-width:0.35;stroke-miterlimit:4;stroke-dasharray:none;fill:none;fill-opacity:1;fill-rule: evenodd"/>
<path id="Shape2DView_nwe0006"  d="M 0.625 0.905 L 0.625 0.86 " stroke="#191919" stroke-width="0.35 px" style="stroke-width:0.35;stroke-miterlimit:4;stroke-dasharray:none;fill:none;fill-opacity:1;fill-rule: evenodd"/>
<path id="Shape2DView_nwe0007"  d="M 0.6250000000000004 -0.8600000000000001 L 0.6250000000000004 -0.905 " stroke="#191919" stroke-width="0.35 px" style="stroke-width:0.35;stroke-miterlimit:4;stroke-dasharray:none;fill:none;fill-opacity:1;fill-rule: evenodd"/>
<path id="Shape2DView_nwe0008"  d="M 0.6250000000000001 0.64 L 0.6250000000000001 0.36 " stroke="#191919" stroke-width="0.35 px" style="stroke-width:0.35;stroke-miterlimit:4;stroke-dasharray:none;fill:none;fill-opacity:1;fill-rule: evenodd"/>
<path id="Shape2DView_nwe0009"  d="M 0.6250000000000003 -0.3600000000000001 L 0.6250000000000003 -0.6399999999999999 " stroke="#191919" stroke-width="0.35 px" style="stroke-width:0.35;stroke-miterlimit:4;stroke-dasharray:none;fill:none;fill-opacity:1;fill-rule: evenodd"/>
<path id="Shape2DView_nwe0010"  d="M 0.6250000000000002 0.14 L 0.6250000000000002 -0.1399999999999999 " stroke="#191919" stroke-width="0.35 px" style="stroke-width:0.35;stroke-miterlimit:4;stroke-dasharray:none;fill:none;fill-opacity:1;fill-rule: evenodd"/>
<path id="Shape2DView_nwe0011"  d="M 0.625 -0.905 L 0.53 -1.0 " stroke="#191919" stroke-width="0.35 px" style="stroke-width:0.35;stroke-miterlimit:4;stroke-dasharray:none;fill:none;fill-opacity:1;fill-rule: evenodd"/>
<path id="Shape2DView_nwe0012"  d="M 0.53 -1.0 L -0.53 -1.0000000000000002 " stroke="#191919" stroke-width="0.35 px" style="stroke-width:0.35;stroke-miterlimit:4;stroke-dasharray:none;fill:none;fill-opacity:1;fill-rule: evenodd"/>
<path id="Shape2DView_nwe0013"  d="M -0.53 -1.0 L -0.625 -0.905 " stroke="#191919" stroke-width="0.35 px" style="stroke-width:0.35;stroke-miterlimit:4;stroke-dasharray:none;fill:none;fill-opacity:1;fill-rule: evenodd"/>
<path id="Shape2DView_nwe0014"  d="M -0.625 -0.905 L -0.625 -0.86 " stroke="#191919" stroke-width="0.35 px" style="stroke-width:0.35;stroke-miterlimit:4;stroke-dasharray:none;fill:none;fill-opacity:1;fill-rule: evenodd"/>
<path id="Shape2DView_nwe0015"  d="M -0.6250000000000004 0.8600000000000001 L -0.6250000000000004 0.905 " stroke="#191919" stroke-width="0.35 px" style="stroke-width:0.35;stroke-miterlimit:4;stroke-dasharray:none;fill:none;fill-opacity:1;fill-rule: evenodd"/>
<path id="Shape2DView_nwe0016"  d="M -0.6250000000000001 -0.64 L -0.6250000000000001 -0.36 " stroke="#191919" stroke-width="0.35 px" style="stroke-width:0.35;stroke-miterlimit:4;stroke-dasharray:none;fill:none;fill-opacity:1;fill-rule: evenodd"/>
<path id="Shape2DView_nwe0017"  d="M -0.6250000000000003 0.3600000000000001 L -0.6250000000000003 0.6399999999999999 " stroke="#191919" stroke-width="0.35 px" style="stroke-width:0.35;stroke-miterlimit:4;stroke-dasharray:none;fill:none;fill-opacity:1;fill-rule: evenodd"/>
<path id="Shape2DView_nwe0018"  d="M -0.6250000000000002 -0.14 L -0.6250000000000002 0.1399999999999999 " stroke="#191919" stroke-width="0.35 px" style="stroke-width:0.35;stroke-miterlimit:4;stroke-dasharray:none;fill:none;fill-opacity:1;fill-rule: evenodd"/>
<path id="Shape2DView_nwe0019"  d="M 0.625 0.905 L 0.6 0.8925 " stroke="#191919" stroke-width="0.35 px" style="stroke-width:0.35;stroke-miterlimit:4;stroke-dasharray:none;fill:none;fill-opacity:1;fill-rule: evenodd"/>
<path id="Shape2DView_nwe0020"  d="M 0.5175 0.975 L 0.6 0.8925 " stroke="#191919" stroke-width="0.35 px" style="stroke-width:0.35;stroke-miterlimit:4;stroke-dasharray:none;fill:none;fill-opacity:1;fill-rule: evenodd"/>
<path id="Shape2DView_nwe0021"  d="M 0.5175 0.975 L 0.491148593493 0.922297186987 " stroke="#191919" stroke-width="0.35 px" style="stroke-width:0.35;stroke-miterlimit:4;stroke-dasharray:none;fill:none;fill-opacity:1;fill-rule: evenodd"/>
<path id="Shape2DView_nwe0022"  d="M -0.491148593493 0.922297186987 L 0.491148593493 0.9222971869870003 " stroke="#191919" stroke-width="0.35 px" style="stroke-width:0.35;stroke-miterlimit:4;stroke-dasharray:none;fill:none;fill-opacity:1;fill-rule: evenodd"/>
<path id="Shape2DView_nwe0023"  d="M -0.5175 0.975 L -0.491148593493 0.922297186987 " stroke="#191919" stroke-width="0.35 px" style="stroke-width:0.35;stroke-miterlimit:4;stroke-dasharray:none;fill:none;fill-opacity:1;fill-rule: evenodd"/>
<path id="Shape2DView_nwe0024"  d="M -0.6 0.8925 L -0.5175 0.975 " stroke="#191919" stroke-width="0.35 px" style="stroke-width:0.35;stroke-miterlimit:4;stroke-dasharray:none;fill:none;fill-opacity:1;fill-rule: evenodd"/>
<path id="Shape2DView_nwe0025"  d="M -0.625 0.905 L -0.6 0.8925 " stroke="#191919" stroke-width="0.35 px" style="stroke-width:0.35;stroke-miterlimit:4;stroke-dasharray:none;fill:none;fill-opacity:1;fill-rule: evenodd"/>
<path id="Shape2DView_nwe0026"  d="M 0.6 0.8925 L 0.6 0.86 " stroke="#191919" stroke-width="0.35 px" style="stroke-width:0.35;stroke-miterlimit:4;stroke-dasharray:none;fill:none;fill-opacity:1;fill-rule: evenodd"/>
<path id="Shape2DView_nwe0027"  d="M 1.05 0.86 L 0.975 0.86 " stroke="#191919" stroke-width="0.35 px" style="stroke-width:0.35;stroke-miterlimit:4;stroke-dasharray:none;fill:none;fill-opacity:1;fill-rule: evenodd"/>
<path id="Shape2DView_nwe0028"  d="M 0.975 0.86 L 0.9638035523896692 0.86 L 0.9527479066043686 0.86 L 0.9419720938044833 0.86 L 0.9316116260882441 0.86 L 0.9217967923484663 0.86 L 0.9126510198141267 0.86 L 0.9042893218813453 0.86 L 0.896816851753197 0.86 L 0.8903275800771715 0.86 L 0.884903113209758 0.86 L 0.8806116669691633 0.86 L 0.8775072087818176 0.86 L 0.8756287790106757 0.86 L 0.875 0.86 " stroke="#191919" stroke-width="0.35 px" style="stroke-width:0.35;stroke-miterlimit:4;stroke-dasharray:none;fill:none;fill-opacity:1;fill-rule: evenodd"/>
<path id="Shape2DView_nwe0029"  d="M 0.875 0.86 L 0.8734280524733107 0.86 L 0.8687319780454559 0.86 L 0.8609708325770918 0.86 L 0.8502422169756048 0.86 L 0.836681049807071 0.86 L 0.8204578706170074 0.86 L 0.8017766952966368 0.86 L 0.7808724504646833 0.86 L 0.7580080191288341 0.86 L 0.7334709347793895 0.86 L 0.7075697654887917 0.86 L 0.6806302334890786 0.86 L 0.652991119025827 0.86 L 0.625 0.86 " stroke="#191919" stroke-width="0.35 px" style="stroke-width:0.35;stroke-miterlimit:4;stroke-dasharray:none;fill:none;fill-opacity:1;fill-rule: evenodd"/>
<path id="Shape2DView_nwe0030"  d="M 1.05 -0.86 L 0.975 -0.86 " stroke="#191919" stroke-width="0.35 px" style="stroke-width:0.35;stroke-miterlimit:4;stroke-dasharray:none;fill:none;fill-opacity:1;fill-rule: evenodd"/>
<path id="Shape2DView_nwe0031"  d="M 0.975 -0.86 L 0.9638035523896692 -0.86 L 0.9527479066043686 -0.86 L 0.9419720938044833 -0.86 L 0.9316116260882441 -0.86 L 0.9217967923484663 -0.86 L 0.9126510198141267 -0.86 L 0.9042893218813453 -0.86 L 0.896816851753197 -0.86 L 0.8903275800771715 -0.86 L 0.884903113209758 -0.86 L 0.8806116669691633 -0.86 L 0.8775072087818176 -0.86 L 0.8756287790106757 -0.86 L 0.875 -0.86 " stroke="#191919" stroke-width="0.35 px" style="stroke-width:0.35;stroke-miterlimit:4;stroke-dasharray:none;fill:none;fill-opacity:1;fill-rule: evenodd"/>
<path id="Shape2DView_nwe0032"  d="M 0.875 -0.86 L 0.8734280524733107 -0.86 L 0.8687319780454559 -0.86 L 0.8609708325770918 -0.86 L 0.8502422169756048 -0.86 L 0.836681049807071 -0.86 L 0.8204578706170074 -0.86 L 0.8017766952966368 -0.86 L 0.7808724504646833 -0.86 L 0.7580080191288341 -0.86 L 0.7334709347793895 -0.86 L 0.7075697654887917 -0.86 L 0.6806302334890786 -0.86 L 0.652991119025827 -0.86 L 0.625 -0.86 " stroke="#191919" stroke-width="0.35 px" style="stroke-width:0.35;stroke-miterlimit:4;stroke-dasharray:none;fill:none;fill-opacity:1;fill-rule: evenodd"/>
<path id="Shape2DView_nwe0033"  d="M 0.625 -0.905 L 0.6 -0.8925 " stroke="#191919" stroke-width="0.35 px" style="stroke-width:0.35;stroke-miterlimit:4;stroke-dasharray:none;fill:none;fill-opacity:1;fill-rule: evenodd"/>
<path id="Shape2DView_nwe0034"  d="M 0.6000000000000004 -0.86 L 0.6000000000000004 -0.8925 " stroke="#191919" stroke-width="0.35 px" style="stroke-width:0.35;stroke-miterlimit:4;stroke-dasharray:none;fill:none;fill-opacity:1;fill-rule: evenodd"/>
<path id="Shape2DView_nwe0035"  d="M 1.05 0.64 L 0.975 0.64 " stroke="#191919" stroke-width="0.35 px" style="stroke-width:0.35;stroke-miterlimit:4;stroke-dasharray:none;fill:none;fill-opacity:1;fill-rule: evenodd"/>
<path id="Shape2DView_nwe0036"  d="M 0.975 0.64 L 0.9638035523896692 0.64 L 0.9527479066043686 0.64 L 0.9419720938044833 0.64 L 0.9316116260882441 0.64 L 0.9217967923484663 0.64 L 0.9126510198141267 0.64 L 0.9042893218813453 0.64 L 0.896816851753197 0.64 L 0.8903275800771715 0.64 L 0.884903113209758 0.64 L 0.8806116669691633 0.64 L 0.8775072087818176 0.64 L 0.8756287790106757 0.64 L 0.875 0.64 " stroke="#191919" stroke-width="0.35 px" style="stroke-width:0.35;stroke-miterlimit:4;stroke-dasharray:none;fill:none;fill-opacity:1;fill-rule: evenodd"/>
<path id="Shape2DView_nwe0037"  d="M 0.875 0.64 L 0.8734280524733107 0.64 L 0.8687319780454559 0.64 L 0.8609708325770918 0.64 L 0.8502422169756048 0.64 L 0.836681049807071 0.64 L 0.8204578706170074 0.64 L 0.8017766952966368 0.64 L 0.7808724504646833 0.64 L 0.7580080191288341 0.64 L 0.7334709347793895 0.64 L 0.7075697654887917 0.64 L 0.6806302334890786 0.64 L 0.652991119025827 0.64 L 0.625 0.64 " stroke="#191919" stroke-width="0.35 px" style="stroke-width:0.35;stroke-miterlimit:4;stroke-dasharray:none;fill:none;fill-opacity:1;fill-rule: evenodd"/>
<path id="Shape2DView_nwe0038"  d="M 1.05 -0.64 L 0.975 -0.64 " stroke="#191919" stroke-width="0.35 px" style="stroke-width:0.35;stroke-miterlimit:4;stroke-dasharray:none;fill:none;fill-opacity:1;fill-rule: evenodd"/>
<path id="Shape2DView_nwe0039"  d="M 0.975 -0.64 L 0.9638035523896692 -0.64 L 0.9527479066043686 -0.64 L 0.9419720938044833 -0.64 L 0.9316116260882441 -0.64 L 0.9217967923484663 -0.64 L 0.9126510198141267 -0.64 L 0.9042893218813453 -0.64 L 0.896816851753197 -0.64 L 0.8903275800771715 -0.64 L 0.884903113209758 -0.64 L 0.8806116669691633 -0.64 L 0.8775072087818176 -0.64 L 0.8756287790106757 -0.64 L 0.875 -0.64 " stroke="#191919" stroke-width="0.35 px" style="stroke-width:0.35;stroke-miterlimit:4;stroke-dasharray:none;fill:none;fill-opacity:1;fill-rule: evenodd"/>
<path id="Shape2DView_nwe0040"  d="M 0.875 -0.64 L 0.8734280524733107 -0.64 L 0.8687319780454559 -0.64 L 0.8609708325770918 -0.64 L 0.8502422169756048 -0.64 L 0.836681049807071 -0.64 L 0.8204578706170074 -0.64 L 0.8017766952966368 -0.64 L 0.7808724504646833 -0.64 L 0.7580080191288341 -0.64 L 0.7334709347793895 -0.64 L 0.7075697654887917 -0.64 L 0.6806302334890786 -0.64 L 0.652991119025827 -0.64 L 0.625 -0.64 " stroke="#191919" stroke-width="0.35 px" style="stroke-width:0.35;stroke-miterlimit:4;stroke-dasharray:none;fill:none;fill-opacity:1;fill-rule: evenodd"/>
<path id="Shape2DView_nwe0041"  d="M 0.6000000000000001 0.64 L 0.6000000000000001 0.36 " stroke="#191919" stroke-width="0.35 px" style="stroke-width:0.35;stroke-miterlimit:4;stroke-dasharray:none;fill:none;fill-opacity:1;fill-rule: evenodd"/>
<path id="Shape2DView_nwe0042"  d="M 1.05 0.36 L 0.975 0.36 " stroke="#191919" stroke-width="0.35 px" style="stroke-width:0.35;stroke-miterlimit:4;stroke-dasharray:none;fill:none;fill-opacity:1;fill-rule: evenodd"/>
<path id="Shape2DView_nwe0043"  d="M 0.975 0.36 L 0.9638035523896692 0.36 L 0.9527479066043686 0.36 L 0.9419720938044833 0.36 L 0.9316116260882441 0.36 L 0.9217967923484663 0.36 L 0.9126510198141267 0.36 L 0.9042893218813453 0.36 L 0.896816851753197 0.36 L 0.8903275800771715 0.36 L 0.884903113209758 0.36 L 0.8806116669691633 0.36 L 0.8775072087818176 0.36 L 0.8756287790106757 0.36 L 0.875 0.36 " stroke="#191919" stroke-width="0.35 px" style="stroke-width:0.35;stroke-miterlimit:4;stroke-dasharray:none;fill:none;fill-opacity:1;fill-rule: evenodd"/>
<path id="Shape2DView_nwe0044"  d="M 0.875 0.36000000000000004 L 0.8734280524733107 0.36000000000000004 L 0.8687319780454559 0.36000000000000004 L 0.8609708325770918 0.36000000000000004 L 0.8502422169756048 0.36000000000000004 L 0.836681049807071 0.36000000000000004 L 0.8204578706170074 0.36000000000000004 L 0.8017766952966368 0.36000000000000004 L 0.7808724504646833 0.36000000000000004 L 0.7580080191288341 0.36000000000000004 L 0.7334709347793895 0.36 L 0.7075697654887917 0.36 L 0.6806302334890786 0.36 L 0.652991119025827 0.36 L 0.625 0.36 " stroke="#191919" stroke-width="0.35 px" style="stroke-width:0.35;stroke-miterlimit:4;stroke-dasharray:none;fill:none;fill-opacity:1;fill-rule: evenodd"/>
<path id="Shape2DView_nwe0045"  d="M 1.05 -0.36 L 0.975 -0.36 " stroke="#191919" stroke-width="0.35 px" style="stroke-width:0.35;stroke-miterlimit:4;stroke-dasharray:none;fill:none;fill-opacity:1;fill-rule: evenodd"/>
<path id="Shape2DView_nwe0046"  d="M 0.975 -0.36 L 0.9638035523896692 -0.36 L 0.9527479066043686 -0.36 L 0.9419720938044833 -0.36 L 0.9316116260882441 -0.36 L 0.9217967923484663 -0.36 L 0.9126510198141267 -0.36 L 0.9042893218813453 -0.36 L 0.896816851753197 -0.36 L 0.8903275800771715 -0.36 L 0.884903113209758 -0.36 L 0.8806116669691633 -0.36 L 0.8775072087818176 -0.36 L 0.8756287790106757 -0.36 L 0.875 -0.36 " stroke="#191919" stroke-width="0.35 px" style="stroke-width:0.35;stroke-miterlimit:4;stroke-dasharray:none;fill:none;fill-opacity:1;fill-rule: evenodd"/>
<path id="Shape2DView_nwe0047"  d="M 0.875 -0.35999999999999993 L 0.8734280524733107 -0.35999999999999993 L 0.8687319780454559 -0.35999999999999993 L 0.8609708325770918 -0.35999999999999993 L 0.8502422169756048 -0.35999999999999993 L 0.836681049807071 -0.35999999999999993 L 0.8204578706170074 -0.35999999999999993 L 0.8017766952966368 -0.35999999999999993 L 0.7808724504646833 -0.35999999999999993 L 0.7580080191288341 -0.35999999999999993 L 0.7334709347793895 -0.36 L 0.7075697654887917 -0.36 L 0.6806302334890786 -0.36 L 0.652991119025827 -0.36 L 0.625 -0.36 " stroke="#191919" stroke-width="0.35 px" style="stroke-width:0.35;stroke-miterlimit:4;stroke-dasharray:none;fill:none;fill-opacity:1;fill-rule: evenodd"/>
<path id="Shape2DView_nwe0048"  d="M 0.6000000000000003 -0.36 L 0.6000000000000003 -0.64 " stroke="#191919" stroke-width="0.35 px" style="stroke-width:0.35;stroke-miterlimit:4;stroke-dasharray:none;fill:none;fill-opacity:1;fill-rule: evenodd"/>
<path id="Shape2DView_nwe0049"  d="M 1.05 0.14 L 0.975 0.13999999999999999 " stroke="#191919" stroke-width="0.35 px" style="stroke-width:0.35;stroke-miterlimit:4;stroke-dasharray:none;fill:none;fill-opacity:1;fill-rule: evenodd"/>
<path id="Shape2DView_nwe0050"  d="M 0.975 0.14 L 0.9638035523896692 0.14 L 0.9527479066043686 0.14 L 0.9419720938044833 0.14 L 0.9316116260882441 0.14 L 0.9217967923484663 0.14 L 0.9126510198141267 0.14 L 0.9042893218813453 0.13999999999999999 L 0.896816851753197 0.13999999999999999 L 0.8903275800771715 0.13999999999999999 L 0.884903113209758 0.13999999999999999 L 0.8806116669691633 0.13999999999999999 L 0.8775072087818176 0.13999999999999999 L 0.8756287790106757 0.13999999999999999 L 0.875 0.13999999999999999 " stroke="#191919" stroke-width="0.35 px" style="stroke-width:0.35;stroke-miterlimit:4;stroke-dasharray:none;fill:none;fill-opacity:1;fill-rule: evenodd"/>
<path id="Shape2DView_nwe0051"  d="M 0.875 0.14000000000000007 L 0.8734280524733107 0.14000000000000007 L 0.8687319780454559 0.14000000000000007 L 0.8609708325770918 0.14000000000000007 L 0.8502422169756048 0.14000000000000007 L 0.836681049807071 0.14000000000000007 L 0.8204578706170074 0.14000000000000007 L 0.8017766952966368 0.14000000000000004 L 0.7808724504646833 0.14000000000000004 L 0.7580080191288341 0.14000000000000004 L 0.7334709347793895 0.14000000000000004 L 0.7075697654887917 0.14000000000000004 L 0.6806302334890786 0.14 L 0.652991119025827 0.14 L 0.625 0.14 " stroke="#191919" stroke-width="0.35 px" style="stroke-width:0.35;stroke-miterlimit:4;stroke-dasharray:none;fill:none;fill-opacity:1;fill-rule: evenodd"/>
<path id="Shape2DView_nwe0052"  d="M 1.05 -0.14 L 0.975 -0.14000000000000004 " stroke="#191919" stroke-width="0.35 px" style="stroke-width:0.35;stroke-miterlimit:4;stroke-dasharray:none;fill:none;fill-opacity:1;fill-rule: evenodd"/>
<path id="Shape2DView_nwe0053"  d="M 0.975 -0.14 L 0.9638035523896692 -0.14 L 0.9527479066043686 -0.14 L 0.9419720938044833 -0.14 L 0.9316116260882441 -0.14 L 0.9217967923484663 -0.14 L 0.9126510198141267 -0.14 L 0.9042893218813453 -0.14000000000000004 L 0.896816851753197 -0.14000000000000004 L 0.8903275800771715 -0.14000000000000004 L 0.884903113209758 -0.14000000000000004 L 0.8806116669691633 -0.14000000000000004 L 0.8775072087818176 -0.14000000000000004 L 0.8756287790106757 -0.14000000000000004 L 0.875 -0.14000000000000004 " stroke="#191919" stroke-width="0.35 px" style="stroke-width:0.35;stroke-miterlimit:4;stroke-dasharray:none;fill:none;fill-opacity:1;fill-rule: evenodd"/>
<path id="Shape2DView_nwe0054"  d="M 0.875 -0.13999999999999996 L 0.8734280524733107 -0.13999999999999996 L 0.8687319780454559 -0.13999999999999996 L 0.8609708325770918 -0.13999999999999996 L 0.8502422169756048 -0.13999999999999996 L 0.836681049807071 -0.13999999999999996 L 0.8204578706170074 -0.13999999999999996 L 0.8017766952966368 -0.13999999999999999 L 0.7808724504646833 -0.13999999999999999 L 0.7580080191288341 -0.13999999999999999 L 0.7334709347793895 -0.13999999999999999 L 0.7075697654887917 -0.13999999999999999 L 0.6806302334890786 -0.14 L 0.652991119025827 -0.14 L 0.625 -0.14 " stroke="#191919" stroke-width="0.35 px" style="stroke-width:0.35;stroke-miterlimit:4;stroke-dasharray:none;fill:none;fill-opacity:1;fill-rule: evenodd"/>
<path id="Shape2DView_nwe0055"  d="M 0.6000000000000002 0.14 L 0.6000000000000002 -0.14 " stroke="#191919" stroke-width="0.35 px" style="stroke-width:0.35;stroke-miterlimit:4;stroke-dasharray:none;fill:none;fill-opacity:1;fill-rule: evenodd"/>
<path id="Shape2DView_nwe0056"  d="M 0.53 -1.0 L 0.5175 -0.975 " stroke="#191919" stroke-width="0.35 px" style="stroke-width:0.35;stroke-miterlimit:4;stroke-dasharray:none;fill:none;fill-opacity:1;fill-rule: evenodd"/>
<path id="Shape2DView_nwe0057"  d="M 0.6 -0.8925 L 0.5175 -0.975 " stroke="#191919" stroke-width="0.35 px" style="stroke-width:0.35;stroke-miterlimit:4;stroke-dasharray:none;fill:none;fill-opacity:1;fill-rule: evenodd"/>
<path id="Shape2DView_nwe0058"  d="M -0.53 -1.0 L -0.5175 -0.975 " stroke="#191919" stroke-width="0.35 px" style="stroke-width:0.35;stroke-miterlimit:4;stroke-dasharray:none;fill:none;fill-opacity:1;fill-rule: evenodd"/>
<path id="Shape2DView_nwe0059"  d="M 0.5175 -0.975 L -0.5175 -0.9750000000000002 " stroke="#191919" stroke-width="0.35 px" style="stroke-width:0.35;stroke-miterlimit:4;stroke-dasharray:none;fill:none;fill-opacity:1;fill-rule: evenodd"/>
<path id="Shape2DView_nwe0060"  d="M -0.625 -0.905 L -0.6 -0.8925 " stroke="#191919" stroke-width="0.35 px" style="stroke-width:0.35;stroke-miterlimit:4;stroke-dasharray:none;fill:none;fill-opacity:1;fill-rule: evenodd"/>
<path id="Shape2DView_nwe0061"  d="M -0.5175 -0.975 L -0.6 -0.8925 " stroke="#191919" stroke-width="0.35 px" style="stroke-width:0.35;stroke-miterlimit:4;stroke-dasharray:none;fill:none;fill-opacity:1;fill-rule: evenodd"/>
<path id="Shape2DView_nwe0062"  d="M -0.6 -0.8925 L -0.6 -0.86 " stroke="#191919" stroke-width="0.35 px" style="stroke-width:0.35;stroke-miterlimit:4;stroke-dasharray:none;fill:none;fill-opacity:1;fill-rule: evenodd"/>
<path id="Shape2DView_nwe0063"  d="M -1.05 -0.86 L -0.975 -0.86 " stroke="#191919" stroke-width="0.35 px" style="stroke-width:0.35;stroke-miterlimit:4;stroke-dasharray:none;fill:none;fill-opacity:1;fill-rule: evenodd"/>
<path id="Shape2DView_nwe0064"  d="M -0.975 -0.86 L -0.9638035523896692 -0.86 L -0.9527479066043686 -0.86 L -0.9419720938044833 -0.86 L -0.9316116260882441 -0.86 L -0.9217967923484663 -0.86 L -0.9126510198141267 -0.86 L -0.9042893218813453 -0.86 L -0.896816851753197 -0.86 L -0.8903275800771715 -0.86 L -0.884903113209758 -0.86 L -0.8806116669691633 -0.86 L -0.8775072087818176 -0.86 L -0.8756287790106757 -0.86 L -0.875 -0.86 " stroke="#191919" stroke-width="0.35 px" style="stroke-width:0.35;stroke-miterlimit:4;stroke-dasharray:none;fill:none;fill-opacity:1;fill-rule: evenodd"/>
<path id="Shape2DView_nwe0065"  d="M -0.875 -0.86 L -0.8734280524733107 -0.86 L -0.8687319780454559 -0.86 L -0.8609708325770918 -0.86 L -0.8502422169756048 -0.86 L -0.836681049807071 -0.86 L -0.8204578706170074 -0.86 L -0.8017766952966368 -0.86 L -0.7808724504646833 -0.86 L -0.7580080191288341 -0.86 L -0.7334709347793895 -0.86 L -0.7075697654887917 -0.86 L -0.6806302334890786 -0.86 L -0.652991119025827 -0.86 L -0.625 -0.86 " stroke="#191919" stroke-width="0.35 px" style="stroke-width:0.35;stroke-miterlimit:4;stroke-dasharray:none;fill:none;fill-opacity:1;fill-rule: evenodd"/>
<path id="Shape2DView_nwe0066"  d="M -1.05 0.86 L -0.975 0.86 " stroke="#191919" stroke-width="0.35 px" style="stroke-width:0.35;stroke-miterlimit:4;stroke-dasharray:none;fill:none;fill-opacity:1;fill-rule: evenodd"/>
<path id="Shape2DView_nwe0067"  d="M -0.975 0.86 L -0.9638035523896692 0.86 L -0.9527479066043686 0.86 L -0.9419720938044833 0.86 L -0.9316116260882441 0.86 L -0.9217967923484663 0.86 L -0.9126510198141267 0.86 L -0.9042893218813453 0.86 L -0.896816851753197 0.86 L -0.8903275800771715 0.86 L -0.884903113209758 0.86 L -0.8806116669691633 0.86 L -0.8775072087818176 0.86 L -0.8756287790106757 0.86 L -0.875 0.86 " stroke="#191919" stroke-width="0.35 px" style="stroke-width:0.35;stroke-miterlimit:4;stroke-dasharray:none;fill:none;fill-opacity:1;fill-rule: evenodd"/>
<path id="Shape2DView_nwe0068"  d="M -0.875 0.86 L -0.8734280524733107 0.86 L -0.8687319780454559 0.86 L -0.8609708325770918 0.86 L -0.8502422169756048 0.86 L -0.836681049807071 0.86 L -0.8204578706170074 0.86 L -0.8017766952966368 0.86 L -0.7808724504646833 0.86 L -0.7580080191288341 0.86 L -0.7334709347793895 0.86 L -0.7075697654887917 0.86 L -0.6806302334890786 0.86 L -0.652991119025827 0.86 L -0.625 0.86 " stroke="#191919" stroke-width="0.35 px" style="stroke-width:0.35;stroke-miterlimit:4;stroke-dasharray:none;fill:none;fill-opacity:1;fill-rule: evenodd"/>
<path id="Shape2DView_nwe0069"  d="M -0.6000000000000004 0.86 L -0.6000000000000004 0.8925 " stroke="#191919" stroke-width="0.35 px" style="stroke-width:0.35;stroke-miterlimit:4;stroke-dasharray:none;fill:none;fill-opacity:1;fill-rule: evenodd"/>
<path id="Shape2DView_nwe0070"  d="M -1.05 -0.64 L -0.975 -0.64 " stroke="#191919" stroke-width="0.35 px" style="stroke-width:0.35;stroke-miterlimit:4;stroke-dasharray:none;fill:none;fill-opacity:1;fill-rule: evenodd"/>
<path id="Shape2DView_nwe0071"  d="M -0.975 -0.64 L -0.9638035523896692 -0.64 L -0.9527479066043686 -0.64 L -0.9419720938044833 -0.64 L -0.9316116260882441 -0.64 L -0.9217967923484663 -0.64 L -0.9126510198141267 -0.64 L -0.9042893218813453 -0.64 L -0.896816851753197 -0.64 L -0.8903275800771715 -0.64 L -0.884903113209758 -0.64 L -0.8806116669691633 -0.64 L -0.8775072087818176 -0.64 L -0.8756287790106757 -0.64 L -0.875 -0.64 " stroke="#191919" stroke-width="0.35 px" style="stroke-width:0.35;stroke-miterlimit:4;stroke-dasharray:none;fill:none;fill-opacity:1;fill-rule: evenodd"/>
<path id="Shape2DView_nwe0072"  d="M -0.875 -0.64 L -0.8734280524733107 -0.64 L -0.8687319780454559 -0.64 L -0.8609708325770918 -0.64 L -0.8502422169756048 -0.64 L -0.836681049807071 -0.64 L -0.8204578706170074 -0.64 L -0.8017766952966368 -0.64 L -0.7808724504646833 -0.64 L -0.7580080191288341 -0.64 L -0.7334709347793895 -0.64 L -0.7075697654887917 -0.64 L -0.6806302334890786 -0.64 L -0.652991119025827 -0.64 L -0.625 -0.64 " stroke="#191919" stroke-width="0.35 px" style="stroke-width:0.35;stroke-miterlimit:4;stroke-dasharray:none;fill:none;fill-opacity:1;fill-rule: evenodd"/>
<path id="Shape2DView_nwe0073"  d="M -1.05 0.64 L -0.975 0.64 " stroke="#191919" stroke-width="0.35 px" style="stroke-width:0.35;stroke-miterlimit:4;stroke-dasharray:none;fill:none;fill-opacity:1;fill-rule: evenodd"/>
<path id="Shape2DView_nwe0074"  d="M -0.975 0.64 L -0.9638035523896692 0.64 L -0.9527479066043686 0.64 L -0.9419720938044833 0.64 L -0.9316116260882441 0.64 L -0.9217967923484663 0.64 L -0.9126510198141267 0.64 L -0.9042893218813453 0.64 L -0.896816851753197 0.64 L -0.8903275800771715 0.64 L -0.884903113209758 0.64 L -0.8806116669691633 0.64 L -0.8775072087818176 0.64 L -0.8756287790106757 0.64 L -0.875 0.64 " stroke="#191919" stroke-width="0.35 px" style="stroke-width:0.35;stroke-miterlimit:4;stroke-dasharray:none;fill:none;fill-opacity:1;fill-rule: evenodd"/>
<path id="Shape2DView_nwe0075"  d="M -0.875 0.64 L -0.8734280524733107 0.64 L -0.8687319780454559 0.64 L -0.8609708325770918 0.64 L -0.8502422169756048 0.64 L -0.836681049807071 0.64 L -0.8204578706170074 0.64 L -0.8017766952966368 0.64 L -0.7808724504646833 0.64 L -0.7580080191288341 0.64 L -0.7334709347793895 0.64 L -0.7075697654887917 0.64 L -0.6806302334890786 0.64 L -0.652991119025827 0.64 L -0.625 0.64 " stroke="#191919" stroke-width="0.35 px" style="stroke-width:0.35;stroke-miterlimit:4;stroke-dasharray:none;fill:none;fill-opacity:1;fill-rule: evenodd"/>
<path id="Shape2DView_nwe0076"  d="M -0.6000000000000001 -0.64 L -0.6000000000000001 -0.36 " stroke="#191919" stroke-width="0.35 px" style="stroke-width:0.35;stroke-miterlimit:4;stroke-dasharray:none;fill:none;fill-opacity:1;fill-rule: evenodd"/>
<path id="Shape2DView_nwe0077"  d="M -1.05 -0.36 L -0.975 -0.36 " stroke="#191919" stroke-width="0.35 px" style="stroke-width:0.35;stroke-miterlimit:4;stroke-dasharray:none;fill:none;fill-opacity:1;fill-rule: evenodd"/>
<path id="Shape2DView_nwe0078"  d="M -0.975 -0.36 L -0.9638035523896692 -0.36 L -0.9527479066043686 -0.36 L -0.9419720938044833 -0.36 L -0.9316116260882441 -0.36 L -0.9217967923484663 -0.36 L -0.9126510198141267 -0.36 L -0.9042893218813453 -0.36 L -0.896816851753197 -0.36 L -0.8903275800771715 -0.36 L -0.884903113209758 -0.36 L -0.8806116669691633 -0.36 L -0.8775072087818176 -0.36 L -0.8756287790106757 -0.36 L -0.875 -0.36 " stroke="#191919" stroke-width="0.35 px" style="stroke-width:0.35;stroke-miterlimit:4;stroke-dasharray:none;fill:none;fill-opacity:1;fill-rule: evenodd"/>
<path id="Shape2DView_nwe0079"  d="M -0.875 -0.36 L -0.8734280524733107 -0.36 L -0.8687319780454559 -0.36 L -0.8609708325770918 -0.36 L -0.8502422169756048 -0.36 L -0.836681049807071 -0.36 L -0.8204578706170074 -0.36 L -0.8017766952966368 -0.36 L -0.7808724504646833 -0.36 L -0.7580080191288341 -0.36 L -0.7334709347793895 -0.36 L -0.7075697654887917 -0.36 L -0.6806302334890786 -0.36 L -0.652991119025827 -0.36 L -0.625 -0.36 " stroke="#191919" stroke-width="0.35 px" style="stroke-width:0.35;stroke-miterlimit:4;stroke-dasharray:none;fill:none;fill-opacity:1;fill-rule: evenodd"/>
<path id="Shape2DView_nwe0080"  d="M -1.05 0.36 L -0.975 0.36 " stroke="#191919" stroke-width="0.35 px" style="stroke-width:0.35;stroke-miterlimit:4;stroke-dasharray:none;fill:none;fill-opacity:1;fill-rule: evenodd"/>
<path id="Shape2DView_nwe0081"  d="M -0.975 0.36 L -0.9638035523896692 0.36 L -0.9527479066043686 0.36 L -0.9419720938044833 0.36 L -0.9316116260882441 0.36 L -0.9217967923484663 0.36 L -0.9126510198141267 0.36 L -0.9042893218813453 0.36 L -0.896816851753197 0.36 L -0.8903275800771715 0.36 L -0.884903113209758 0.36 L -0.8806116669691633 0.36 L -0.8775072087818176 0.36 L -0.8756287790106757 0.36 L -0.875 0.36 " stroke="#191919" stroke-width="0.35 px" style="stroke-width:0.35;stroke-miterlimit:4;stroke-dasharray:none;fill:none;fill-opacity:1;fill-rule: evenodd"/>
<path id="Shape2DView_nwe0082"  d="M -0.875 0.36 L -0.8734280524733107 0.36 L -0.8687319780454559 0.36 L -0.8609708325770918 0.36 L -0.8502422169756048 0.36 L -0.836681049807071 0.36 L -0.8204578706170074 0.36 L -0.8017766952966368 0.36 L -0.7808724504646833 0.36 L -0.7580080191288341 0.36 L -0.7334709347793895 0.36 L -0.7075697654887917 0.36 L -0.6806302334890786 0.36 L -0.652991119025827 0.36 L -0.625 0.36 " stroke="#191919" stroke-width="0.35 px" style="stroke-width:0.35;stroke-miterlimit:4;stroke-dasharray:none;fill:none;fill-opacity:1;fill-rule: evenodd"/>
<path id="Shape2DView_nwe0083"  d="M -0.6000000000000003 0.36 L -0.6000000000000003 0.64 " stroke="#191919" stroke-width="0.35 px" style="stroke-width:0.35;stroke-miterlimit:4;stroke-dasharray:none;fill:none;fill-opacity:1;fill-rule: evenodd"/>
<path id="Shape2DView_nwe0084"  d="M -1.05 -0.14 L -0.975 -0.14 " stroke="#191919" stroke-width="0.35 px" style="stroke-width:0.35;stroke-miterlimit:4;stroke-dasharray:none;fill:none;fill-opacity:1;fill-rule: evenodd"/>
<path id="Shape2DView_nwe0085"  d="M -0.975 -0.14 L -0.9638035523896692 -0.14 L -0.9527479066043686 -0.14 L -0.9419720938044833 -0.14 L -0.9316116260882441 -0.14 L -0.9217967923484663 -0.14 L -0.9126510198141267 -0.14 L -0.9042893218813453 -0.14 L -0.896816851753197 -0.14 L -0.8903275800771715 -0.14 L -0.884903113209758 -0.14 L -0.8806116669691633 -0.14 L -0.8775072087818176 -0.14 L -0.8756287790106757 -0.14 L -0.875 -0.14 " stroke="#191919" stroke-width="0.35 px" style="stroke-width:0.35;stroke-miterlimit:4;stroke-dasharray:none;fill:none;fill-opacity:1;fill-rule: evenodd"/>
<path id="Shape2DView_nwe0086"  d="M -0.875 -0.14000000000000004 L -0.8734280524733107 -0.14000000000000004 L -0.8687319780454559 -0.14000000000000004 L -0.8609708325770918 -0.14000000000000004 L -0.8502422169756048 -0.14000000000000004 L -0.836681049807071 -0.14000000000000004 L -0.8204578706170074 -0.14000000000000004 L -0.8017766952966368 -0.14000000000000004 L -0.7808724504646833 -0.14000000000000004 L -0.7580080191288341 -0.14 L -0.7334709347793895 -0.14 L -0.7075697654887917 -0.14 L -0.6806302334890786 -0.14 L -0.652991119025827 -0.14 L -0.625 -0.14 " stroke="#191919" stroke-width="0.35 px" style="stroke-width:0.35;stroke-miterlimit:4;stroke-dasharray:none;fill:none;fill-opacity:1;fill-rule: evenodd"/>
<path id="Shape2DView_nwe0087"  d="M -1.05 0.14 L -0.975 0.14 " stroke="#191919" stroke-width="0.35 px" style="stroke-width:0.35;stroke-miterlimit:4;stroke-dasharray:none;fill:none;fill-opacity:1;fill-rule: evenodd"/>
<path id="Shape2DView_nwe0088"  d="M -0.975 0.14 L -0.9638035523896692 0.14 L -0.9527479066043686 0.14 L -0.9419720938044833 0.14 L -0.9316116260882441 0.14 L -0.9217967923484663 0.14 L -0.9126510198141267 0.14 L -0.9042893218813453 0.14 L -0.896816851753197 0.14 L -0.8903275800771715 0.14 L -0.884903113209758 0.14 L -0.8806116669691633 0.14 L -0.8775072087818176 0.14 L -0.8756287790106757 0.14 L -0.875 0.14 " stroke="#191919" stroke-width="0.35 px" style="stroke-width:0.35;stroke-miterlimit:4;stroke-dasharray:none;fill:none;fill-opacity:1;fill-rule: evenodd"/>
<path id="Shape2DView_nwe0089"  d="M -0.875 0.13999999999999999 L -0.8734280524733107 0.13999999999999999 L -0.8687319780454559 0.13999999999999999 L -0.8609708325770918 0.13999999999999999 L -0.8502422169756048 0.13999999999999999 L -0.836681049807071 0.13999999999999999 L -0.8204578706170074 0.13999999999999999 L -0.8017766952966368 0.13999999999999999 L -0.7808724504646833 0.13999999999999999 L -0.7580080191288341 0.14 L -0.7334709347793895 0.14 L -0.7075697654887917 0.14 L -0.6806302334890786 0.14 L -0.652991119025827 0.14 L -0.625 0.14 " stroke="#191919" stroke-width="0.35 px" style="stroke-width:0.35;stroke-miterlimit:4;stroke-dasharray:none;fill:none;fill-opacity:1;fill-rule: evenodd"/>
<path id="Shape2DView_nwe0090"  d="M -0.6000000000000002 -0.14 L -0.6000000000000002 0.14 " stroke="#191919" stroke-width="0.35 px" style="stroke-width:0.35;stroke-miterlimit:4;stroke-dasharray:none;fill:none;fill-opacity:1;fill-rule: evenodd"/>
<path id="Shape2DView_nwe0091"  d="M 0.6 0.8925 L 0.547297186987 0.866148593493 " stroke="#191919" stroke-width="0.35 px" style="stroke-width:0.35;stroke-miterlimit:4;stroke-dasharray:none;fill:none;fill-opacity:1;fill-rule: evenodd"/>
<path id="Shape2DView_nwe0092"  d="M 0.491148593493 0.922297186987 L 0.547297186987 0.866148593493 " stroke="#191919" stroke-width="0.35 px" style="stroke-width:0.35;stroke-miterlimit:4;stroke-dasharray:none;fill:none;fill-opacity:1;fill-rule: evenodd"/>
<path id="Shape2DView_nwe0093"  d="M 0.547297186987 0.866148593493 L 0.5472971869870004 -0.866148593493 " stroke="#191919" stroke-width="0.35 px" style="stroke-width:0.35;stroke-miterlimit:4;stroke-dasharray:none;fill:none;fill-opacity:1;fill-rule: evenodd"/>
<path id="Shape2DView_nwe0094"  d="M 0.547297186987 -0.866148593493 L 0.491148593493 -0.922297186987 " stroke="#191919" stroke-width="0.35 px" style="stroke-width:0.35;stroke-miterlimit:4;stroke-dasharray:none;fill:none;fill-opacity:1;fill-rule: evenodd"/>
<path id="Shape2DView_nwe0095"  d="M 0.491148593493 -0.922297186987 L -0.491148593493 -0.9222971869870003 " stroke="#191919" stroke-width="0.35 px" style="stroke-width:0.35;stroke-miterlimit:4;stroke-dasharray:none;fill:none;fill-opacity:1;fill-rule: evenodd"/>
<path id="Shape2DView_nwe0096"  d="M -0.491148593493 -0.922297186987 L -0.547297186987 -0.866148593493 " stroke="#191919" stroke-width="0.35 px" style="stroke-width:0.35;stroke-miterlimit:4;stroke-dasharray:none;fill:none;fill-opacity:1;fill-rule: evenodd"/>
<path id="Shape2DView_nwe0097"  d="M -0.547297186987 -0.866148593493 L -0.5472971869870004 0.866148593493 " stroke="#191919" stroke-width="0.35 px" style="stroke-width:0.35;stroke-miterlimit:4;stroke-dasharray:none;fill:none;fill-opacity:1;fill-rule: evenodd"/>
<path id="Shape2DView_nwe0098"  d="M -0.547297186987 0.866148593493 L -0.491148593493 0.922297186987 " stroke="#191919" stroke-width="0.35 px" style="stroke-width:0.35;stroke-miterlimit:4;stroke-dasharray:none;fill:none;fill-opacity:1;fill-rule: evenodd"/>
<path id="Shape2DView_nwe0099"  d="M -0.6 0.8925 L -0.547297186987 0.866148593493 " stroke="#191919" stroke-width="0.35 px" style="stroke-width:0.35;stroke-miterlimit:4;stroke-dasharray:none;fill:none;fill-opacity:1;fill-rule: evenodd"/>
<path id="Shape2DView_nwe0100"  d="M 0.6 0.86 L 0.6000000000000001 0.64 " stroke="#191919" stroke-width="0.35 px" style="stroke-width:0.35;stroke-miterlimit:4;stroke-dasharray:none;fill:none;fill-opacity:1;fill-rule: evenodd"/>
<path id="Shape2DView_nwe0101"  d="M 0.6000000000000001 0.36 L 0.6000000000000002 0.14 " stroke="#191919" stroke-width="0.35 px" style="stroke-width:0.35;stroke-miterlimit:4;stroke-dasharray:none;fill:none;fill-opacity:1;fill-rule: evenodd"/>
<path id="Shape2DView_nwe0102"  d="M 0.6000000000000002 -0.14 L 0.6000000000000003 -0.36 " stroke="#191919" stroke-width="0.35 px" style="stroke-width:0.35;stroke-miterlimit:4;stroke-dasharray:none;fill:none;fill-opacity:1;fill-rule: evenodd"/>
<path id="Shape2DView_nwe0103"  d="M 0.6000000000000003 -0.64 L 0.6000000000000004 -0.86 " stroke="#191919" stroke-width="0.35 px" style="stroke-width:0.35;stroke-miterlimit:4;stroke-dasharray:none;fill:none;fill-opacity:1;fill-rule: evenodd"/>
<path id="Shape2DView_nwe0104"  d="M 0.6 -0.8925 L 0.547297186987 -0.866148593493 " stroke="#191919" stroke-width="0.35 px" style="stroke-width:0.35;stroke-miterlimit:4;stroke-dasharray:none;fill:none;fill-opacity:1;fill-rule: evenodd"/>
<path id="Shape2DView_nwe0105"  d="M 0.875 0.86 L 0.875 0.64 " stroke="#191919" stroke-width="0.35 px" style="stroke-width:0.35;stroke-miterlimit:4;stroke-dasharray:none;fill:none;fill-opacity:1;fill-rule: evenodd"/>
<path id="Shape2DView_nwe0106"  d="M 1.05 0.86 L 1.05 0.64 " stroke="#191919" stroke-width="0.35 px" style="stroke-width:0.35;stroke-miterlimit:4;stroke-dasharray:none;fill:none;fill-opacity:1;fill-rule: evenodd"/>
<path id="Shape2DView_nwe0107"  d="M 0.875 -0.64 L 0.875 -0.86 " stroke="#191919" stroke-width="0.35 px" style="stroke-width:0.35;stroke-miterlimit:4;stroke-dasharray:none;fill:none;fill-opacity:1;fill-rule: evenodd"/>
<path id="Shape2DView_nwe0108"  d="M 1.05 -0.64 L 1.05 -0.86 " stroke="#191919" stroke-width="0.35 px" style="stroke-width:0.35;stroke-miterlimit:4;stroke-dasharray:none;fill:none;fill-opacity:1;fill-rule: evenodd"/>
<path id="Shape2DView_nwe0109"  d="M 0.875 0.36 L 0.875 0.14 " stroke="#191919" stroke-width="0.35 px" style="stroke-width:0.35;stroke-miterlimit:4;stroke-dasharray:none;fill:none;fill-opacity:1;fill-rule: evenodd"/>
<path id="Shape2DView_nwe0110"  d="M 1.05 0.36 L 1.05 0.14 " stroke="#191919" stroke-width="0.35 px" style="stroke-width:0.35;stroke-miterlimit:4;stroke-dasharray:none;fill:none;fill-opacity:1;fill-rule: evenodd"/>
<path id="Shape2DView_nwe0111"  d="M 0.875 -0.14 L 0.875 -0.36 " stroke="#191919" stroke-width="0.35 px" style="stroke-width:0.35;stroke-miterlimit:4;stroke-dasharray:none;fill:none;fill-opacity:1;fill-rule: evenodd"/>
<path id="Shape2DView_nwe0112"  d="M 1.05 -0.14 L 1.05 -0.36 " stroke="#191919" stroke-width="0.35 px" style="stroke-width:0.35;stroke-miterlimit:4;stroke-dasharray:none;fill:none;fill-opacity:1;fill-rule: evenodd"/>
<path id="Shape2DView_nwe0113"  d="M 0.5175 -0.975 L 0.491148593493 -0.922297186987 " stroke="#191919" stroke-width="0.35 px" style="stroke-width:0.35;stroke-miterlimit:4;stroke-dasharray:none;fill:none;fill-opacity:1;fill-rule: evenodd"/>
<path id="Shape2DView_nwe0114"  d="M -0.5175 -0.975 L -0.491148593493 -0.922297186987 " stroke="#191919" stroke-width="0.35 px" style="stroke-width:0.35;stroke-miterlimit:4;stroke-dasharray:none;fill:none;fill-opacity:1;fill-rule: evenodd"/>
<path id="Shape2DView_nwe0115"  d="M -0.6 -0.8925 L -0.547297186987 -0.866148593493 " stroke="#191919" stroke-width="0.35 px" style="stroke-width:0.35;stroke-miterlimit:4;stroke-dasharray:none;fill:none;fill-opacity:1;fill-rule: evenodd"/>
<path id="Shape2DView_nwe0116"  d="M -0.6 -0.86 L -0.6000000000000001 -0.64 " stroke="#191919" stroke-width="0.35 px" style="stroke-width:0.35;stroke-miterlimit:4;stroke-dasharray:none;fill:none;fill-opacity:1;fill-rule: evenodd"/>
<path id="Shape2DView_nwe0117"  d="M -0.6000000000000001 -0.36 L -0.6000000000000002 -0.14 " stroke="#191919" stroke-width="0.35 px" style="stroke-width:0.35;stroke-miterlimit:4;stroke-dasharray:none;fill:none;fill-opacity:1;fill-rule: evenodd"/>
<path id="Shape2DView_nwe0118"  d="M -0.6000000000000002 0.14 L -0.6000000000000003 0.36 " stroke="#191919" stroke-width="0.35 px" style="stroke-width:0.35;stroke-miterlimit:4;stroke-dasharray:none;fill:none;fill-opacity:1;fill-rule: evenodd"/>
<path id="Shape2DView_nwe0119"  d="M -0.6000000000000003 0.64 L -0.6000000000000004 0.86 " stroke="#191919" stroke-width="0.35 px" style="stroke-width:0.35;stroke-miterlimit:4;stroke-dasharray:none;fill:none;fill-opacity:1;fill-rule: evenodd"/>
<path id="Shape2DView_nwe0120"  d="M -0.875 -0.86 L -0.875 -0.64 " stroke="#191919" stroke-width="0.35 px" style="stroke-width:0.35;stroke-miterlimit:4;stroke-dasharray:none;fill:none;fill-opacity:1;fill-rule: evenodd"/>
<path id="Shape2DView_nwe0122"  d="M -1.05 -0.86 L -1.05 -0.64 " stroke="#191919" stroke-width="0.35 px" style="stroke-width:0.35;stroke-miterlimit:4;stroke-dasharray:none;fill:none;fill-opacity:1;fill-rule: evenodd"/>
<path id="Shape2DView_nwe0123"  d="M -0.875 0.64 L -0.875 0.86 " stroke="#191919" stroke-width="0.35 px" style="stroke-width:0.35;stroke-miterlimit:4;stroke-dasharray:none;fill:none;fill-opacity:1;fill-rule: evenodd"/>
<path id="Shape2DView_nwe0124"  d="M -1.05 0.64 L -1.05 0.86 " stroke="#191919" stroke-width="0.35 px" style="stroke-width:0.35;stroke-miterlimit:4;stroke-dasharray:none;fill:none;fill-opacity:1;fill-rule: evenodd"/>
<path id="Shape2DView_nwe0125"  d="M -0.875 -0.36 L -0.875 -0.14 " stroke="#191919" stroke-width="0.35 px" style="stroke-width:0.35;stroke-miterlimit:4;stroke-dasharray:none;fill:none;fill-opacity:1;fill-rule: evenodd"/>
<path id="Shape2DView_nwe0126"  d="M -1.05 -0.36 L -1.05 -0.14 " stroke="#191919" stroke-width="0.35 px" style="stroke-width:0.35;stroke-miterlimit:4;stroke-dasharray:none;fill:none;fill-opacity:1;fill-rule: evenodd"/>
<path id="Shape2DView_nwe0127"  d="M -0.875 0.14 L -0.875 0.36 " stroke="#191919" stroke-width="0.35 px" style="stroke-width:0.35;stroke-miterlimit:4;stroke-dasharray:none;fill:none;fill-opacity:1;fill-rule: evenodd"/>
<path id="Shape2DView_nwe0128"  d="M -1.05 0.14 L -1.05 0.36 " stroke="#191919" stroke-width="0.35 px" style="stroke-width:0.35;stroke-miterlimit:4;stroke-dasharray:none;fill:none;fill-opacity:1;fill-rule: evenodd"/>
<path id="Shape2DView_nwe0129"  d="M 0.625 0.86 L 0.625 0.64 " stroke="#191919" stroke-width="0.35 px" style="stroke-width:0.35;stroke-miterlimit:4;stroke-dasharray:none;fill:none;fill-opacity:1;fill-rule: evenodd"/>
<path id="Shape2DView_nwe0130"  d="M 0.975 0.86 L 0.975 0.64 " stroke="#191919" stroke-width="0.35 px" style="stroke-width:0.35;stroke-miterlimit:4;stroke-dasharray:none;fill:none;fill-opacity:1;fill-rule: evenodd"/>
<path id="Shape2DView_nwe0131"  d="M 0.625 -0.64 L 0.625 -0.86 " stroke="#191919" stroke-width="0.35 px" style="stroke-width:0.35;stroke-miterlimit:4;stroke-dasharray:none;fill:none;fill-opacity:1;fill-rule: evenodd"/>
<path id="Shape2DView_nwe0132"  d="M 0.975 -0.64 L 0.975 -0.86 " stroke="#191919" stroke-width="0.35 px" style="stroke-width:0.35;stroke-miterlimit:4;stroke-dasharray:none;fill:none;fill-opacity:1;fill-rule: evenodd"/>
<path id="Shape2DView_nwe0133"  d="M 0.625 0.36 L 0.625 0.14 " stroke="#191919" stroke-width="0.35 px" style="stroke-width:0.35;stroke-miterlimit:4;stroke-dasharray:none;fill:none;fill-opacity:1;fill-rule: evenodd"/>
<path id="Shape2DView_nwe0134"  d="M 0.975 0.36 L 0.975 0.14 " stroke="#191919" stroke-width="0.35 px" style="stroke-width:0.35;stroke-miterlimit:4;stroke-dasharray:none;fill:none;fill-opacity:1;fill-rule: evenodd"/>
<path id="Shape2DView_nwe0135"  d="M 0.625 -0.14 L 0.625 -0.36 " stroke="#191919" stroke-width="0.35 px" style="stroke-width:0.35;stroke-miterlimit:4;stroke-dasharray:none;fill:none;fill-opacity:1;fill-rule: evenodd"/>
<path id="Shape2DView_nwe0136"  d="M 0.975 -0.14 L 0.975 -0.36 " stroke="#191919" stroke-width="0.35 px" style="stroke-width:0.35;stroke-miterlimit:4;stroke-dasharray:none;fill:none;fill-opacity:1;fill-rule: evenodd"/>
<path id="Shape2DView_nwe0137"  d="M -0.625 -0.86 L -0.625 -0.64 " stroke="#191919" stroke-width="0.35 px" style="stroke-width:0.35;stroke-miterlimit:4;stroke-dasharray:none;fill:none;fill-opacity:1;fill-rule: evenodd"/>
<path id="Shape2DView_nwe0138"  d="M -0.975 -0.86 L -0.975 -0.64 " stroke="#191919" stroke-width="0.35 px" style="stroke-width:0.35;stroke-miterlimit:4;stroke-dasharray:none;fill:none;fill-opacity:1;fill-rule: evenodd"/>
<path id="Shape2DView_nwe0139"  d="M -0.625 0.64 L -0.625 0.86 " stroke="#191919" stroke-width="0.35 px" style="stroke-width:0.35;stroke-miterlimit:4;stroke-dasharray:none;fill:none;fill-opacity:1;fill-rule: evenodd"/>
<path id="Shape2DView_nwe0140"  d="M -0.975 0.64 L -0.975 0.86 " stroke="#191919" stroke-width="0.35 px" style="stroke-width:0.35;stroke-miterlimit:4;stroke-dasharray:none;fill:none;fill-opacity:1;fill-rule: evenodd"/>
<path id="Shape2DView_nwe0141"  d="M -0.625 -0.36 L -0.625 -0.14 " stroke="#191919" stroke-width="0.35 px" style="stroke-width:0.35;stroke-miterlimit:4;stroke-dasharray:none;fill:none;fill-opacity:1;fill-rule: evenodd"/>
<path id="Shape2DView_nwe0142"  d="M -0.975 -0.36 L -0.975 -0.14 " stroke="#191919" stroke-width="0.35 px" style="stroke-width:0.35;stroke-miterlimit:4;stroke-dasharray:none;fill:none;fill-opacity:1;fill-rule: evenodd"/>
<path id="Shape2DView_nwe0143"  d="M -0.625 0.14 L -0.625 0.36 " stroke="#191919" stroke-width="0.35 px" style="stroke-width:0.35;stroke-miterlimit:4;stroke-dasharray:none;fill:none;fill-opacity:1;fill-rule: evenodd"/>
<path id="Shape2DView_nwe0144"  d="M -0.975 0.14 L -0.975 0.36 " stroke="#191919" stroke-width="0.35 px" style="stroke-width:0.35;stroke-miterlimit:4;stroke-dasharray:none;fill:none;fill-opacity:1;fill-rule: evenodd"/>
<path id="Shape2DView_nwe0145"  d="M 0.625 0.86 L 0.6 0.86 " stroke="#191919" stroke-width="0.35 px" style="stroke-width:0.35;stroke-miterlimit:4;stroke-dasharray:none;fill:none;fill-opacity:1;fill-rule: evenodd"/>
<path id="Shape2DView_nwe0146"  d="M 0.625 -0.86 L 0.6 -0.86 " stroke="#191919" stroke-width="0.35 px" style="stroke-width:0.35;stroke-miterlimit:4;stroke-dasharray:none;fill:none;fill-opacity:1;fill-rule: evenodd"/>
<path id="Shape2DView_nwe0147"  d="M 0.625 0.64 L 0.6 0.64 " stroke="#191919" stroke-width="0.35 px" style="stroke-width:0.35;stroke-miterlimit:4;stroke-dasharray:none;fill:none;fill-opacity:1;fill-rule: evenodd"/>
<path id="Shape2DView_nwe0148"  d="M 0.625 0.36 L 0.6 0.36 " stroke="#191919" stroke-width="0.35 px" style="stroke-width:0.35;stroke-miterlimit:4;stroke-dasharray:none;fill:none;fill-opacity:1;fill-rule: evenodd"/>
<path id="Shape2DView_nwe0149"  d="M 0.625 -0.36 L 0.6 -0.36 " stroke="#191919" stroke-width="0.35 px" style="stroke-width:0.35;stroke-miterlimit:4;stroke-dasharray:none;fill:none;fill-opacity:1;fill-rule: evenodd"/>
<path id="Shape2DView_nwe0150"  d="M 0.625 -0.64 L 0.6 -0.64 " stroke="#191919" stroke-width="0.35 px" style="stroke-width:0.35;stroke-miterlimit:4;stroke-dasharray:none;fill:none;fill-opacity:1;fill-rule: evenodd"/>
<path id="Shape2DView_nwe0151"  d="M 0.625 0.14 L 0.6 0.14 " stroke="#191919" stroke-width="0.35 px" style="stroke-width:0.35;stroke-miterlimit:4;stroke-dasharray:none;fill:none;fill-opacity:1;fill-rule: evenodd"/>
<path id="Shape2DView_nwe0152"  d="M 0.625 -0.14 L 0.6 -0.14 " stroke="#191919" stroke-width="0.35 px" style="stroke-width:0.35;stroke-miterlimit:4;stroke-dasharray:none;fill:none;fill-opacity:1;fill-rule: evenodd"/>
<path id="Shape2DView_nwe0153"  d="M -0.625 -0.86 L -0.6 -0.86 " stroke="#191919" stroke-width="0.35 px" style="stroke-width:0.35;stroke-miterlimit:4;stroke-dasharray:none;fill:none;fill-opacity:1;fill-rule: evenodd"/>
<path id="Shape2DView_nwe0154"  d="M -0.625 0.86 L -0.6 0.86 " stroke="#191919" stroke-width="0.35 px" style="stroke-width:0.35;stroke-miterlimit:4;stroke-dasharray:none;fill:none;fill-opacity:1;fill-rule: evenodd"/>
<path id="Shape2DView_nwe0155"  d="M -0.625 -0.64 L -0.6 -0.64 " stroke="#191919" stroke-width="0.35 px" style="stroke-width:0.35;stroke-miterlimit:4;stroke-dasharray:none;fill:none;fill-opacity:1;fill-rule: evenodd"/>
<path id="Shape2DView_nwe0156"  d="M -0.625 -0.36 L -0.6 -0.36 " stroke="#191919" stroke-width="0.35 px" style="stroke-width:0.35;stroke-miterlimit:4;stroke-dasharray:none;fill:none;fill-opacity:1;fill-rule: evenodd"/>
<path id="Shape2DView_nwe0157"  d="M -0.625 0.36 L -0.6 0.36 " stroke="#191919" stroke-width="0.35 px" style="stroke-width:0.35;stroke-miterlimit:4;stroke-dasharray:none;fill:none;fill-opacity:1;fill-rule: evenodd"/>
<path id="Shape2DView_nwe0158"  d="M -0.625 0.64 L -0.6 0.64 " stroke="#191919" stroke-width="0.35 px" style="stroke-width:0.35;stroke-miterlimit:4;stroke-dasharray:none;fill:none;fill-opacity:1;fill-rule: evenodd"/>
<path id="Shape2DView_nwe0159"  d="M -0.625 -0.14 L -0.6 -0.14 " stroke="#191919" stroke-width="0.35 px" style="stroke-width:0.35;stroke-miterlimit:4;stroke-dasharray:none;fill:none;fill-opacity:1;fill-rule: evenodd"/>
<path id="Shape2DView_nwe0160"  d="M -0.625 0.14 L -0.6 0.14 " stroke="#191919" stroke-width="0.35 px" style="stroke-width:0.35;stroke-miterlimit:4;stroke-dasharray:none;fill:none;fill-opacity:1;fill-rule: evenodd"/>
<title>b'Shape2DView'</title>
</g>
<g id="Rectangle" transform="translate(1.071000,1.021000) scale(1,-1)">
<rect fill="#ff0000" id="origin" width="1" height="1" x="0" y="0" />
<title>b'Rectangle'</title>
</g>
</svg>