<?xml version="1.0"?>
<!DOCTYPE svg PUBLIC "-//W3C//DTD SVG 1.1//EN" "http://www.w3.org/Graphics/SVG/1.1/DTD/svg11.dtd">
<svg width="2.856mm" height="2.9560000000000004mm" viewBox="0 0 2.856 2.9560000000000004" xmlns="http://www.w3.org/2000/svg" version="1.1">
<g id="Shape2DView" transform="translate(1.428000,1.478000) scale(1,-1)">
<path id="Shape2DView_nwe0000"  d="M -0.705 1.45 L 0.705 1.4500000000000002 " stroke="#191919" stroke-width="0.35 px" style="stroke-width:0.35;stroke-miterlimit:4;stroke-dasharray:none;fill:none;fill-opacity:1;fill-rule: evenodd"/>
<path id="Shape2DView_nwe0001"  d="M 0.705 1.45 L 0.8 1.355 " stroke="#191919" stroke-width="0.35 px" style="stroke-width:0.35;stroke-miterlimit:4;stroke-dasharray:none;fill:none;fill-opacity:1;fill-rule: evenodd"/>
<path id="Shape2DView_nwe0002"  d="M 0.705 1.45 L 0.6925 1.425 " stroke="#191919" stroke-width="0.35 px" style="stroke-width:0.35;stroke-miterlimit:4;stroke-dasharray:none;fill:none;fill-opacity:1;fill-rule: evenodd"/>
<path id="Shape2DView_nwe0003"  d="M -0.6925 1.425 L 0.6925 1.4250000000000003 " stroke="#191919" stroke-width="0.35 px" style="stroke-width:0.35;stroke-miterlimit:4;stroke-dasharray:none;fill:none;fill-opacity:1;fill-rule: evenodd"/>
<path id="Shape2DView_nwe0004"  d="M -0.705 1.45 L -0.6925 1.425 " stroke="#191919" stroke-width="0.35 px" style="stroke-width:0.35;stroke-miterlimit:4;stroke-dasharray:none;fill:none;fill-opacity:1;fill-rule: evenodd"/>
<path id="Shape2DView_nwe0005"  d="M -0.8 1.355 L -0.705 1.45 " stroke="#191919" stroke-width="0.35 px" style="stroke-width:0.35;stroke-miterlimit:4;stroke-dasharray:none;fill:none;fill-opacity:1;fill-rule: evenodd"/>
<path id="Shape2DView_nwe0006"  d="M 0.8 1.355 L 0.8 1.14 " stroke="#191919" stroke-width="0.35 px" style="stroke-width:0.35;stroke-miterlimit:4;stroke-dasharray:none;fill:none;fill-opacity:1;fill-rule: evenodd"/>
<path id="Shape2DView_nwe0007"  d="M 0.8000000000000006 -1.1400000000000001 L 0.8000000000000006 -1.355 " stroke="#191919" stroke-width="0.35 px" style="stroke-width:0.35;stroke-miterlimit:4;stroke-dasharray:none;fill:none;fill-opacity:1;fill-rule: evenodd"/>
<path id="Shape2DView_nwe0008"  d="M 0.8000000000000002 0.76 L 0.8000000000000005 -0.7600000000000002 " stroke="#191919" stroke-width="0.35 px" style="stroke-width:0.35;stroke-miterlimit:4;stroke-dasharray:none;fill:none;fill-opacity:1;fill-rule: evenodd"/>
<path id="Shape2DView_nwe0009"  d="M 0.8 -1.355 L 0.705 -1.45 " stroke="#191919" stroke-width="0.35 px" style="stroke-width:0.35;stroke-miterlimit:4;stroke-dasharray:none;fill:none;fill-opacity:1;fill-rule: evenodd"/>
<path id="Shape2DView_nwe0010"  d="M 0.705 -1.45 L -0.705 -1.4500000000000002 " stroke="#191919" stroke-width="0.35 px" style="stroke-width:0.35;stroke-miterlimit:4;stroke-dasharray:none;fill:none;fill-opacity:1;fill-rule: evenodd"/>
<path id="Shape2DView_nwe0011"  d="M -0.705 -1.45 L -0.8 -1.355 " stroke="#191919" stroke-width="0.35 px" style="stroke-width:0.35;stroke-miterlimit:4;stroke-dasharray:none;fill:none;fill-opacity:1;fill-rule: evenodd"/>
<path id="Shape2DView_nwe0012"  d="M -0.8 -1.355 L -0.8 -1.14 " stroke="#191919" stroke-width="0.35 px" style="stroke-width:0.35;stroke-miterlimit:4;stroke-dasharray:none;fill:none;fill-opacity:1;fill-rule: evenodd"/>
<path id="Shape2DView_nwe0013"  d="M -0.8000000000000006 1.1400000000000001 L -0.8000000000000006 1.355 " stroke="#191919" stroke-width="0.35 px" style="stroke-width:0.35;stroke-miterlimit:4;stroke-dasharray:none;fill:none;fill-opacity:1;fill-rule: evenodd"/>
<path id="Shape2DView_nwe0014"  d="M -0.8000000000000003 -0.38 L -0.8000000000000005 0.7600000000000002 " stroke="#191919" stroke-width="0.35 px" style="stroke-width:0.35;stroke-miterlimit:4;stroke-dasharray:none;fill:none;fill-opacity:1;fill-rule: evenodd"/>
<path id="Shape2DView_nwe0015"  d="M 0.8 1.355 L 0.775 1.3425 " stroke="#191919" stroke-width="0.35 px" style="stroke-width:0.35;stroke-miterlimit:4;stroke-dasharray:none;fill:none;fill-opacity:1;fill-rule: evenodd"/>
<path id="Shape2DView_nwe0016"  d="M 0.6925 1.425 L 0.775 1.3425 " stroke="#191919" stroke-width="0.35 px" style="stroke-width:0.35;stroke-miterlimit:4;stroke-dasharray:none;fill:none;fill-opacity:1;fill-rule: evenodd"/>
<path id="Shape2DView_nwe0017"  d="M 0.6925 1.425 L 0.659121551758 1.358243103516 " stroke="#191919" stroke-width="0.35 px" style="stroke-width:0.35;stroke-miterlimit:4;stroke-dasharray:none;fill:none;fill-opacity:1;fill-rule: evenodd"/>
<path id="Shape2DView_nwe0018"  d="M -0.659121551758 1.358243103516 L 0.659121551758 1.3582431035160003 " stroke="#191919" stroke-width="0.35 px" style="stroke-width:0.35;stroke-miterlimit:4;stroke-dasharray:none;fill:none;fill-opacity:1;fill-rule: evenodd"/>
<path id="Shape2DView_nwe0019"  d="M -0.6925 1.425 L -0.659121551758 1.358243103516 " stroke="#191919" stroke-width="0.35 px" style="stroke-width:0.35;stroke-miterlimit:4;stroke-dasharray:none;fill:none;fill-opacity:1;fill-rule: evenodd"/>
<path id="Shape2DView_nwe0020"  d="M -0.775 1.3425 L -0.6925 1.425 " stroke="#191919" stroke-width="0.35 px" style="stroke-width:0.35;stroke-miterlimit:4;stroke-dasharray:none;fill:none;fill-opacity:1;fill-rule: evenodd"/>
<path id="Shape2DView_nwe0021"  d="M -0.8 1.355 L -0.775 1.3425 " stroke="#191919" stroke-width="0.35 px" style="stroke-width:0.35;stroke-miterlimit:4;stroke-dasharray:none;fill:none;fill-opacity:1;fill-rule: evenodd"/>
<path id="Shape2DView_nwe0022"  d="M 0.775 1.3425 L 0.775 1.14 " stroke="#191919" stroke-width="0.35 px" style="stroke-width:0.35;stroke-miterlimit:4;stroke-dasharray:none;fill:none;fill-opacity:1;fill-rule: evenodd"/>
<path id="Shape2DView_nwe0023"  d="M 1.4 1.14 L 1.2 1.14 " stroke="#191919" stroke-width="0.35 px" style="stroke-width:0.35;stroke-miterlimit:4;stroke-dasharray:none;fill:none;fill-opacity:1;fill-rule: evenodd"/>
<path id="Shape2DView_nwe0024"  d="M 1.2 1.14 L 1.1888035523896692 1.14 L 1.1777479066043686 1.14 L 1.1669720938044832 1.14 L 1.1566116260882442 1.14 L 1.1467967923484663 1.14 L 1.1376510198141265 1.14 L 1.1292893218813451 1.14 L 1.121816851753197 1.14 L 1.1153275800771716 1.14 L 1.109903113209758 1.14 L 1.1056116669691631 1.14 L 1.1025072087818175 1.14 L 1.1006287790106757 1.14 L 1.0999999999999999 1.14 " stroke="#191919" stroke-width="0.35 px" style="stroke-width:0.35;stroke-miterlimit:4;stroke-dasharray:none;fill:none;fill-opacity:1;fill-rule: evenodd"/>
<path id="Shape2DView_nwe0025"  d="M 1.1 1.14 L 1.0984280524733105 1.14 L 1.0937319780454557 1.14 L 1.0859708325770918 1.14 L 1.0752422169756046 1.14 L 1.061681049807071 1.14 L 1.0454578706170072 1.14 L 1.0267766952966368 1.14 L 1.0058724504646832 1.14 L 0.9830080191288341 1.14 L 0.9584709347793894 1.14 L 0.9325697654887917 1.14 L 0.9056302334890785 1.14 L 0.8779911190258268 1.14 L 0.85 1.14 " stroke="#191919" stroke-width="0.35 px" style="stroke-width:0.35;stroke-miterlimit:4;stroke-dasharray:none;fill:none;fill-opacity:1;fill-rule: evenodd"/>
<path id="Shape2DView_nwe0026"  d="M 0.85 1.14 L 0.8 1.14 " stroke="#191919" stroke-width="0.35 px" style="stroke-width:0.35;stroke-miterlimit:4;stroke-dasharray:none;fill:none;fill-opacity:1;fill-rule: evenodd"/>
<path id="Shape2DView_nwe0027"  d="M 1.4 -1.14 L 1.2 -1.14 " stroke="#191919" stroke-width="0.35 px" style="stroke-width:0.35;stroke-miterlimit:4;stroke-dasharray:none;fill:none;fill-opacity:1;fill-rule: evenodd"/>
<path id="Shape2DView_nwe0028"  d="M 1.2 -1.14 L 1.1888035523896692 -1.14 L 1.1777479066043686 -1.14 L 1.1669720938044832 -1.14 L 1.1566116260882442 -1.14 L 1.1467967923484663 -1.14 L 1.1376510198141265 -1.14 L 1.1292893218813451 -1.14 L 1.121816851753197 -1.14 L 1.1153275800771716 -1.14 L 1.109903113209758 -1.14 L 1.1056116669691631 -1.14 L 1.1025072087818175 -1.14 L 1.1006287790106757 -1.14 L 1.0999999999999999 -1.14 " stroke="#191919" stroke-width="0.35 px" style="stroke-width:0.35;stroke-miterlimit:4;stroke-dasharray:none;fill:none;fill-opacity:1;fill-rule: evenodd"/>
<path id="Shape2DView_nwe0029"  d="M 1.1 -1.14 L 1.0984280524733105 -1.14 L 1.0937319780454557 -1.14 L 1.0859708325770918 -1.14 L 1.0752422169756046 -1.14 L 1.061681049807071 -1.14 L 1.0454578706170072 -1.14 L 1.0267766952966368 -1.14 L 1.0058724504646832 -1.14 L 0.9830080191288341 -1.14 L 0.9584709347793894 -1.14 L 0.9325697654887917 -1.14 L 0.9056302334890785 -1.14 L 0.8779911190258268 -1.14 L 0.85 -1.14 " stroke="#191919" stroke-width="0.35 px" style="stroke-width:0.35;stroke-miterlimit:4;stroke-dasharray:none;fill:none;fill-opacity:1;fill-rule: evenodd"/>
<path id="Shape2DView_nwe0030"  d="M 0.85 -1.14 L 0.8 -1.14 " stroke="#191919" stroke-width="0.35 px" style="stroke-width:0.35;stroke-miterlimit:4;stroke-dasharray:none;fill:none;fill-opacity:1;fill-rule: evenodd"/>
<path id="Shape2DView_nwe0031"  d="M 0.8 -1.355 L 0.775 -1.3425 " stroke="#191919" stroke-width="0.35 px" style="stroke-width:0.35;stroke-miterlimit:4;stroke-dasharray:none;fill:none;fill-opacity:1;fill-rule: evenodd"/>
<path id="Shape2DView_nwe0032"  d="M 0.7750000000000006 -1.14 L 0.7750000000000006 -1.3425 " stroke="#191919" stroke-width="0.35 px" style="stroke-width:0.35;stroke-miterlimit:4;stroke-dasharray:none;fill:none;fill-opacity:1;fill-rule: evenodd"/>
<path id="Shape2DView_nwe0033"  d="M 1.4 0.76 L 1.2 0.76 " stroke="#191919" stroke-width="0.35 px" style="stroke-width:0.35;stroke-miterlimit:4;stroke-dasharray:none;fill:none;fill-opacity:1;fill-rule: evenodd"/>
<path id="Shape2DView_nwe0034"  d="M 1.2 0.76 L 1.1888035523896692 0.76 L 1.1777479066043686 0.76 L 1.1669720938044832 0.76 L 1.1566116260882442 0.76 L 1.1467967923484663 0.76 L 1.1376510198141265 0.76 L 1.1292893218813451 0.76 L 1.121816851753197 0.76 L 1.1153275800771716 0.76 L 1.109903113209758 0.76 L 1.1056116669691631 0.76 L 1.1025072087818175 0.76 L 1.1006287790106757 0.76 L 1.0999999999999999 0.76 " stroke="#191919" stroke-width="0.35 px" style="stroke-width:0.35;stroke-miterlimit:4;stroke-dasharray:none;fill:none;fill-opacity:1;fill-rule: evenodd"/>
<path id="Shape2DView_nwe0035"  d="M 1.1 0.76 L 1.0984280524733105 0.76 L 1.0937319780454557 0.76 L 1.0859708325770918 0.76 L 1.0752422169756046 0.76 L 1.061681049807071 0.76 L 1.0454578706170072 0.76 L 1.0267766952966368 0.76 L 1.0058724504646832 0.76 L 0.9830080191288341 0.76 L 0.9584709347793894 0.76 L 0.9325697654887917 0.76 L 0.9056302334890785 0.76 L 0.8779911190258268 0.76 L 0.85 0.76 " stroke="#191919" stroke-width="0.35 px" style="stroke-width:0.35;stroke-miterlimit:4;stroke-dasharray:none;fill:none;fill-opacity:1;fill-rule: evenodd"/>
<path id="Shape2DView_nwe0036"  d="M 0.85 0.76 L 0.8 0.76 " stroke="#191919" stroke-width="0.35 px" style="stroke-width:0.35;stroke-miterlimit:4;stroke-dasharray:none;fill:none;fill-opacity:1;fill-rule: evenodd"/>
<path id="Shape2DView_nwe0037"  d="M 1.4 -0.76 L 1.2 -0.76 " stroke="#191919" stroke-width="0.35 px" style="stroke-width:0.35;stroke-miterlimit:4;stroke-dasharray:none;fill:none;fill-opacity:1;fill-rule: evenodd"/>
<path id="Shape2DView_nwe0038"  d="M 1.2 -0.76 L 1.1888035523896692 -0.76 L 1.1777479066043686 -0.76 L 1.1669720938044832 -0.76 L 1.1566116260882442 -0.76 L 1.1467967923484663 -0.76 L 1.1376510198141265 -0.76 L 1.1292893218813451 -0.76 L 1.121816851753197 -0.76 L 1.1153275800771716 -0.76 L 1.109903113209758 -0.76 L 1.1056116669691631 -0.76 L 1.1025072087818175 -0.76 L 1.1006287790106757 -0.76 L 1.0999999999999999 -0.76 " stroke="#191919" stroke-width="0.35 px" style="stroke-width:0.35;stroke-miterlimit:4;stroke-dasharray:none;fill:none;fill-opacity:1;fill-rule: evenodd"/>
<path id="Shape2DView_nwe0039"  d="M 1.1 -0.76 L 1.0984280524733105 -0.76 L 1.0937319780454557 -0.76 L 1.0859708325770918 -0.76 L 1.0752422169756046 -0.76 L 1.061681049807071 -0.76 L 1.0454578706170072 -0.76 L 1.0267766952966368 -0.76 L 1.0058724504646832 -0.76 L 0.9830080191288341 -0.76 L 0.9584709347793894 -0.76 L 0.9325697654887917 -0.76 L 0.9056302334890785 -0.76 L 0.8779911190258268 -0.76 L 0.85 -0.76 " stroke="#191919" stroke-width="0.35 px" style="stroke-width:0.35;stroke-miterlimit:4;stroke-dasharray:none;fill:none;fill-opacity:1;fill-rule: evenodd"/>
<path id="Shape2DView_nwe0040"  d="M 0.85 -0.76 L 0.8 -0.76 " stroke="#191919" stroke-width="0.35 px" style="stroke-width:0.35;stroke-miterlimit:4;stroke-dasharray:none;fill:none;fill-opacity:1;fill-rule: evenodd"/>
<path id="Shape2DView_nwe0041"  d="M 0.7750000000000001 0.76 L 0.7750000000000005 -0.76 " stroke="#191919" stroke-width="0.35 px" style="stroke-width:0.35;stroke-miterlimit:4;stroke-dasharray:none;fill:none;fill-opacity:1;fill-rule: evenodd"/>
<path id="Shape2DView_nwe0042"  d="M 0.705 -1.45 L 0.6925 -1.425 " stroke="#191919" stroke-width="0.35 px" style="stroke-width:0.35;stroke-miterlimit:4;stroke-dasharray:none;fill:none;fill-opacity:1;fill-rule: evenodd"/>
<path id="Shape2DView_nwe0043"  d="M 0.775 -1.3425 L 0.6925 -1.425 " stroke="#191919" stroke-width="0.35 px" style="stroke-width:0.35;stroke-miterlimit:4;stroke-dasharray:none;fill:none;fill-opacity:1;fill-rule: evenodd"/>
<path id="Shape2DView_nwe0044"  d="M -0.705 -1.45 L -0.6925 -1.425 " stroke="#191919" stroke-width="0.35 px" style="stroke-width:0.35;stroke-miterlimit:4;stroke-dasharray:none;fill:none;fill-opacity:1;fill-rule: evenodd"/>
<path id="Shape2DView_nwe0045"  d="M 0.6925 -1.425 L -0.6925 -1.4250000000000003 " stroke="#191919" stroke-width="0.35 px" style="stroke-width:0.35;stroke-miterlimit:4;stroke-dasharray:none;fill:none;fill-opacity:1;fill-rule: evenodd"/>
<path id="Shape2DView_nwe0046"  d="M -0.8 -1.355 L -0.775 -1.3425 " stroke="#191919" stroke-width="0.35 px" style="stroke-width:0.35;stroke-miterlimit:4;stroke-dasharray:none;fill:none;fill-opacity:1;fill-rule: evenodd"/>
<path id="Shape2DView_nwe0047"  d="M -0.6925 -1.425 L -0.775 -1.3425 " stroke="#191919" stroke-width="0.35 px" style="stroke-width:0.35;stroke-miterlimit:4;stroke-dasharray:none;fill:none;fill-opacity:1;fill-rule: evenodd"/>
<path id="Shape2DView_nwe0048"  d="M -0.775 -1.3425 L -0.775 -1.14 " stroke="#191919" stroke-width="0.35 px" style="stroke-width:0.35;stroke-miterlimit:4;stroke-dasharray:none;fill:none;fill-opacity:1;fill-rule: evenodd"/>
<path id="Shape2DView_nwe0049"  d="M -1.4 -1.14 L -1.2 -1.14 " stroke="#191919" stroke-width="0.35 px" style="stroke-width:0.35;stroke-miterlimit:4;stroke-dasharray:none;fill:none;fill-opacity:1;fill-rule: evenodd"/>
<path id="Shape2DView_nwe0050"  d="M -1.2 -1.14 L -1.1888035523896692 -1.14 L -1.1777479066043686 -1.14 L -1.1669720938044832 -1.14 L -1.1566116260882442 -1.14 L -1.1467967923484663 -1.14 L -1.1376510198141265 -1.14 L -1.1292893218813451 -1.14 L -1.121816851753197 -1.14 L -1.1153275800771716 -1.14 L -1.109903113209758 -1.14 L -1.1056116669691631 -1.14 L -1.1025072087818175 -1.14 L -1.1006287790106757 -1.14 L -1.0999999999999999 -1.14 " stroke="#191919" stroke-width="0.35 px" style="stroke-width:0.35;stroke-miterlimit:4;stroke-dasharray:none;fill:none;fill-opacity:1;fill-rule: evenodd"/>
<path id="Shape2DView_nwe0051"  d="M -1.1 -1.14 L -1.0984280524733105 -1.14 L -1.0937319780454557 -1.14 L -1.0859708325770918 -1.14 L -1.0752422169756046 -1.14 L -1.061681049807071 -1.14 L -1.0454578706170072 -1.14 L -1.0267766952966368 -1.14 L -1.0058724504646832 -1.14 L -0.9830080191288341 -1.14 L -0.9584709347793894 -1.14 L -0.9325697654887917 -1.14 L -0.9056302334890785 -1.14 L -0.8779911190258268 -1.14 L -0.85 -1.14 " stroke="#191919" stroke-width="0.35 px" style="stroke-width:0.35;stroke-miterlimit:4;stroke-dasharray:none;fill:none;fill-opacity:1;fill-rule: evenodd"/>
<path id="Shape2DView_nwe0052"  d="M -0.85 -1.14 L -0.8 -1.14 " stroke="#191919" stroke-width="0.35 px" style="stroke-width:0.35;stroke-miterlimit:4;stroke-dasharray:none;fill:none;fill-opacity:1;fill-rule: evenodd"/>
<path id="Shape2DView_nwe0053"  d="M -1.4 1.14 L -1.2 1.14 " stroke="#191919" stroke-width="0.35 px" style="stroke-width:0.35;stroke-miterlimit:4;stroke-dasharray:none;fill:none;fill-opacity:1;fill-rule: evenodd"/>
<path id="Shape2DView_nwe0054"  d="M -1.2 1.14 L -1.1888035523896692 1.14 L -1.1777479066043686 1.14 L -1.1669720938044832 1.14 L -1.1566116260882442 1.14 L -1.1467967923484663 1.14 L -1.1376510198141265 1.14 L -1.1292893218813451 1.14 L -1.121816851753197 1.14 L -1.1153275800771716 1.14 L -1.109903113209758 1.14 L -1.1056116669691631 1.14 L -1.1025072087818175 1.14 L -1.1006287790106757 1.14 L -1.0999999999999999 1.14 " stroke="#191919" stroke-width="0.35 px" style="stroke-width:0.35;stroke-miterlimit:4;stroke-dasharray:none;fill:none;fill-opacity:1;fill-rule: evenodd"/>
<path id="Shape2DView_nwe0055"  d="M -1.1 1.14 L -1.0984280524733105 1.14 L -1.0937319780454557 1.14 L -1.0859708325770918 1.14 L -1.0752422169756046 1.14 L -1.061681049807071 1.14 L -1.0454578706170072 1.14 L -1.0267766952966368 1.14 L -1.0058724504646832 1.14 L -0.9830080191288341 1.14 L -0.9584709347793894 1.14 L -0.9325697654887917 1.14 L -0.9056302334890785 1.14 L -0.8779911190258268 1.14 L -0.85 1.14 " stroke="#191919" stroke-width="0.35 px" style="stroke-width:0.35;stroke-miterlimit:4;stroke-dasharray:none;fill:none;fill-opacity:1;fill-rule: evenodd"/>
<path id="Shape2DView_nwe0056"  d="M -0.85 1.14 L -0.8 1.14 " stroke="#191919" stroke-width="0.35 px" style="stroke-width:0.35;stroke-miterlimit:4;stroke-dasharray:none;fill:none;fill-opacity:1;fill-rule: evenodd"/>
<path id="Shape2DView_nwe0057"  d="M -0.7750000000000006 1.14 L -0.7750000000000006 1.3425 " stroke="#191919" stroke-width="0.35 px" style="stroke-width:0.35;stroke-miterlimit:4;stroke-dasharray:none;fill:none;fill-opacity:1;fill-rule: evenodd"/>
<path id="Shape2DView_nwe0058"  d="M -1.4 -0.38 L -1.2 -0.38 " stroke="#191919" stroke-width="0.35 px" style="stroke-width:0.35;stroke-miterlimit:4;stroke-dasharray:none;fill:none;fill-opacity:1;fill-rule: evenodd"/>
<path id="Shape2DView_nwe0059"  d="M -1.2 -0.38 L -1.1888035523896692 -0.38 L -1.1777479066043686 -0.38 L -1.1669720938044832 -0.38 L -1.1566116260882442 -0.38 L -1.1467967923484663 -0.38 L -1.1376510198141265 -0.38 L -1.1292893218813451 -0.38 L -1.121816851753197 -0.38 L -1.1153275800771716 -0.38 L -1.109903113209758 -0.38 L -1.1056116669691631 -0.38 L -1.1025072087818175 -0.38 L -1.1006287790106757 -0.38 L -1.0999999999999999 -0.38 " stroke="#191919" stroke-width="0.35 px" style="stroke-width:0.35;stroke-miterlimit:4;stroke-dasharray:none;fill:none;fill-opacity:1;fill-rule: evenodd"/>
<path id="Shape2DView_nwe0060"  d="M -1.1 -0.38 L -1.0984280524733105 -0.38 L -1.0937319780454557 -0.38 L -1.0859708325770918 -0.38 L -1.0752422169756046 -0.38 L -1.061681049807071 -0.38 L -1.0454578706170072 -0.38 L -1.0267766952966368 -0.38 L -1.0058724504646832 -0.38 L -0.9830080191288341 -0.38 L -0.9584709347793894 -0.38 L -0.9325697654887917 -0.38 L -0.9056302334890785 -0.38 L -0.8779911190258268 -0.38 L -0.85 -0.38 " stroke="#191919" stroke-width="0.35 px" style="stroke-width:0.35;stroke-miterlimit:4;stroke-dasharray:none;fill:none;fill-opacity:1;fill-rule: evenodd"/>
<path id="Shape2DView_nwe0061"  d="M -0.85 -0.38 L -0.8 -0.38 " stroke="#191919" stroke-width="0.35 px" style="stroke-width:0.35;stroke-miterlimit:4;stroke-dasharray:none;fill:none;fill-opacity:1;fill-rule: evenodd"/>
<path id="Shape2DView_nwe0062"  d="M -1.4 0.76 L -1.2 0.76 " stroke="#191919" stroke-width="0.35 px" style="stroke-width:0.35;stroke-miterlimit:4;stroke-dasharray:none;fill:none;fill-opacity:1;fill-rule: evenodd"/>
<path id="Shape2DView_nwe0063"  d="M -1.2 0.76 L -1.1888035523896692 0.76 L -1.1777479066043686 0.76 L -1.1669720938044832 0.76 L -1.1566116260882442 0.76 L -1.1467967923484663 0.76 L -1.1376510198141265 0.76 L -1.1292893218813451 0.76 L -1.121816851753197 0.76 L -1.1153275800771716 0.76 L -1.109903113209758 0.76 L -1.1056116669691631 0.76 L -1.1025072087818175 0.76 L -1.1006287790106757 0.76 L -1.0999999999999999 0.76 " stroke="#191919" stroke-width="0.35 px" style="stroke-width:0.35;stroke-miterlimit:4;stroke-dasharray:none;fill:none;fill-opacity:1;fill-rule: evenodd"/>
<path id="Shape2DView_nwe0064"  d="M -1.1 0.76 L -1.0984280524733105 0.76 L -1.0937319780454557 0.76 L -1.0859708325770918 0.76 L -1.0752422169756046 0.76 L -1.061681049807071 0.76 L -1.0454578706170072 0.76 L -1.0267766952966368 0.76 L -1.0058724504646832 0.76 L -0.9830080191288341 0.76 L -0.9584709347793894 0.76 L -0.9325697654887917 0.76 L -0.9056302334890785 0.76 L -0.8779911190258268 0.76 L -0.85 0.76 " stroke="#191919" stroke-width="0.35 px" style="stroke-width:0.35;stroke-miterlimit:4;stroke-dasharray:none;fill:none;fill-opacity:1;fill-rule: evenodd"/>
<path id="Shape2DView_nwe0065"  d="M -0.85 0.76 L -0.8 0.76 " stroke="#191919" stroke-width="0.35 px" style="stroke-width:0.35;stroke-miterlimit:4;stroke-dasharray:none;fill:none;fill-opacity:1;fill-rule: evenodd"/>
<path id="Shape2DView_nwe0066"  d="M -0.7750000000000002 -0.38 L -0.7750000000000005 0.76 " stroke="#191919" stroke-width="0.35 px" style="stroke-width:0.35;stroke-miterlimit:4;stroke-dasharray:none;fill:none;fill-opacity:1;fill-rule: evenodd"/>
<path id="Shape2DView_nwe0067"  d="M 0.775 1.3425 L 0.708243103516 1.309121551758 " stroke="#191919" stroke-width="0.35 px" style="stroke-width:0.35;stroke-miterlimit:4;stroke-dasharray:none;fill:none;fill-opacity:1;fill-rule: evenodd"/>
<path id="Shape2DView_nwe0068"  d="M 0.659121551758 1.358243103516 L 0.7082431035160001 1.309121551758 " stroke="#191919" stroke-width="0.35 px" style="stroke-width:0.35;stroke-miterlimit:4;stroke-dasharray:none;fill:none;fill-opacity:1;fill-rule: evenodd"/>
<path id="Shape2DView_nwe0069"  d="M 0.708243103516 1.309121551758 L 0.7082431035160005 -1.309121551758 " stroke="#191919" stroke-width="0.35 px" style="stroke-width:0.35;stroke-miterlimit:4;stroke-dasharray:none;fill:none;fill-opacity:1;fill-rule: evenodd"/>
<path id="Shape2DView_nwe0070"  d="M 0.708243103516 -1.309121551758 L 0.6591215517579999 -1.358243103516 " stroke="#191919" stroke-width="0.35 px" style="stroke-width:0.35;stroke-miterlimit:4;stroke-dasharray:none;fill:none;fill-opacity:1;fill-rule: evenodd"/>
<path id="Shape2DView_nwe0071"  d="M 0.659121551758 -1.358243103516 L -0.659121551758 -1.3582431035160003 " stroke="#191919" stroke-width="0.35 px" style="stroke-width:0.35;stroke-miterlimit:4;stroke-dasharray:none;fill:none;fill-opacity:1;fill-rule: evenodd"/>
<path id="Shape2DView_nwe0072"  d="M -0.659121551758 -1.358243103516 L -0.7082431035160001 -1.309121551758 " stroke="#191919" stroke-width="0.35 px" style="stroke-width:0.35;stroke-miterlimit:4;stroke-dasharray:none;fill:none;fill-opacity:1;fill-rule: evenodd"/>
<path id="Shape2DView_nwe0073"  d="M -0.708243103516 -1.309121551758 L -0.7082431035160005 1.309121551758 " stroke="#191919" stroke-width="0.35 px" style="stroke-width:0.35;stroke-miterlimit:4;stroke-dasharray:none;fill:none;fill-opacity:1;fill-rule: evenodd"/>
<path id="Shape2DView_nwe0074"  d="M -0.708243103516 1.309121551758 L -0.6591215517579999 1.358243103516 " stroke="#191919" stroke-width="0.35 px" style="stroke-width:0.35;stroke-miterlimit:4;stroke-dasharray:none;fill:none;fill-opacity:1;fill-rule: evenodd"/>
<path id="Shape2DView_nwe0075"  d="M -0.775 1.3425 L -0.708243103516 1.309121551758 " stroke="#191919" stroke-width="0.35 px" style="stroke-width:0.35;stroke-miterlimit:4;stroke-dasharray:none;fill:none;fill-opacity:1;fill-rule: evenodd"/>
<path id="Shape2DView_nwe0076"  d="M 0.775 1.14 L 0.7750000000000001 0.76 " stroke="#191919" stroke-width="0.35 px" style="stroke-width:0.35;stroke-miterlimit:4;stroke-dasharray:none;fill:none;fill-opacity:1;fill-rule: evenodd"/>
<path id="Shape2DView_nwe0077"  d="M 0.7750000000000005 -0.76 L 0.7750000000000006 -1.14 " stroke="#191919" stroke-width="0.35 px" style="stroke-width:0.35;stroke-miterlimit:4;stroke-dasharray:none;fill:none;fill-opacity:1;fill-rule: evenodd"/>
<path id="Shape2DView_nwe0078"  d="M 0.775 -1.3425 L 0.708243103516 -1.309121551758 " stroke="#191919" stroke-width="0.35 px" style="stroke-width:0.35;stroke-miterlimit:4;stroke-dasharray:none;fill:none;fill-opacity:1;fill-rule: evenodd"/>
<path id="Shape2DView_nwe0079"  d="M 1.1 1.14 L 1.1 0.76 " stroke="#191919" stroke-width="0.35 px" style="stroke-width:0.35;stroke-miterlimit:4;stroke-dasharray:none;fill:none;fill-opacity:1;fill-rule: evenodd"/>
<path id="Shape2DView_nwe0080"  d="M 1.4 1.14 L 1.4 0.76 " stroke="#191919" stroke-width="0.35 px" style="stroke-width:0.35;stroke-miterlimit:4;stroke-dasharray:none;fill:none;fill-opacity:1;fill-rule: evenodd"/>
<path id="Shape2DView_nwe0081"  d="M 1.1 -0.76 L 1.1 -1.14 " stroke="#191919" stroke-width="0.35 px" style="stroke-width:0.35;stroke-miterlimit:4;stroke-dasharray:none;fill:none;fill-opacity:1;fill-rule: evenodd"/>
<path id="Shape2DView_nwe0083"  d="M 1.4 -0.76 L 1.4 -1.14 " stroke="#191919" stroke-width="0.35 px" style="stroke-width:0.35;stroke-miterlimit:4;stroke-dasharray:none;fill:none;fill-opacity:1;fill-rule: evenodd"/>
<path id="Shape2DView_nwe0084"  d="M 0.6925 -1.425 L 0.659121551758 -1.358243103516 " stroke="#191919" stroke-width="0.35 px" style="stroke-width:0.35;stroke-miterlimit:4;stroke-dasharray:none;fill:none;fill-opacity:1;fill-rule: evenodd"/>
<path id="Shape2DView_nwe0085"  d="M -0.6925 -1.425 L -0.659121551758 -1.358243103516 " stroke="#191919" stroke-width="0.35 px" style="stroke-width:0.35;stroke-miterlimit:4;stroke-dasharray:none;fill:none;fill-opacity:1;fill-rule: evenodd"/>
<path id="Shape2DView_nwe0086"  d="M -0.775 -1.3425 L -0.708243103516 -1.309121551758 " stroke="#191919" stroke-width="0.35 px" style="stroke-width:0.35;stroke-miterlimit:4;stroke-dasharray:none;fill:none;fill-opacity:1;fill-rule: evenodd"/>
<path id="Shape2DView_nwe0087"  d="M -0.775 -1.14 L -0.7750000000000002 -0.38 " stroke="#191919" stroke-width="0.35 px" style="stroke-width:0.35;stroke-miterlimit:4;stroke-dasharray:none;fill:none;fill-opacity:1;fill-rule: evenodd"/>
<path id="Shape2DView_nwe0088"  d="M -0.7750000000000005 0.76 L -0.7750000000000006 1.14 " stroke="#191919" stroke-width="0.35 px" style="stroke-width:0.35;stroke-miterlimit:4;stroke-dasharray:none;fill:none;fill-opacity:1;fill-rule: evenodd"/>
<path id="Shape2DView_nwe0089"  d="M -1.1 -1.14 L -1.1 -0.38 " stroke="#191919" stroke-width="0.35 px" style="stroke-width:0.35;stroke-miterlimit:4;stroke-dasharray:none;fill:none;fill-opacity:1;fill-rule: evenodd"/>
<path id="Shape2DView_nwe0090"  d="M -1.4 -1.14 L -1.4 -0.38 " stroke="#191919" stroke-width="0.35 px" style="stroke-width:0.35;stroke-miterlimit:4;stroke-dasharray:none;fill:none;fill-opacity:1;fill-rule: evenodd"/>
<path id="Shape2DView_nwe0091"  d="M -1.1 0.76 L -1.1 1.14 " stroke="#191919" stroke-width="0.35 px" style="stroke-width:0.35;stroke-miterlimit:4;stroke-dasharray:none;fill:none;fill-opacity:1;fill-rule: evenodd"/>
<path id="Shape2DView_nwe0092"  d="M -1.4 0.76 L -1.4 1.14 " stroke="#191919" stroke-width="0.35 px" style="stroke-width:0.35;stroke-miterlimit:4;stroke-dasharray:none;fill:none;fill-opacity:1;fill-rule: evenodd"/>
<path id="Shape2DView_nwe0093"  d="M 0.85 1.14 L 0.8500000000000001 0.76 " stroke="#191919" stroke-width="0.35 px" style="stroke-width:0.35;stroke-miterlimit:4;stroke-dasharray:none;fill:none;fill-opacity:1;fill-rule: evenodd"/>
<path id="Shape2DView_nwe0094"  d="M 1.2 1.14 L 1.2 0.76 " stroke="#191919" stroke-width="0.35 px" style="stroke-width:0.35;stroke-miterlimit:4;stroke-dasharray:none;fill:none;fill-opacity:1;fill-rule: evenodd"/>
<path id="Shape2DView_nwe0095"  d="M 0.85 -0.76 L 0.8500000000000001 -1.14 " stroke="#191919" stroke-width="0.35 px" style="stroke-width:0.35;stroke-miterlimit:4;stroke-dasharray:none;fill:none;fill-opacity:1;fill-rule: evenodd"/>
<path id="Shape2DView_nwe0096"  d="M 1.2 -0.76 L 1.2 -1.14 " stroke="#191919" stroke-width="0.35 px" style="stroke-width:0.35;stroke-miterlimit:4;stroke-dasharray:none;fill:none;fill-opacity:1;fill-rule: evenodd"/>
<path id="Shape2DView_nwe0097"  d="M -0.85 -1.14 L -0.85 -0.38 " stroke="#191919" stroke-width="0.35 px" style="stroke-width:0.35;stroke-miterlimit:4;stroke-dasharray:none;fill:none;fill-opacity:1;fill-rule: evenodd"/>
<path id="Shape2DView_nwe0098"  d="M -1.2 -1.14 L -1.2 -0.38 " stroke="#191919" stroke-width="0.35 px" style="stroke-width:0.35;stroke-miterlimit:4;stroke-dasharray:none;fill:none;fill-opacity:1;fill-rule: evenodd"/>
<path id="Shape2DView_nwe0099"  d="M -0.85 0.76 L -0.85 1.14 " stroke="#191919" stroke-width="0.35 px" style="stroke-width:0.35;stroke-miterlimit:4;stroke-dasharray:none;fill:none;fill-opacity:1;fill-rule: evenodd"/>
<path id="Shape2DView_nwe0100"  d="M -1.2 0.76 L -1.2 1.14 " stroke="#191919" stroke-width="0.35 px" style="stroke-width:0.35;stroke-miterlimit:4;stroke-dasharray:none;fill:none;fill-opacity:1;fill-rule: evenodd"/>
<path id="Shape2DView_nwe0101"  d="M 0.8 1.14 L 0.775 1.14 " stroke="#191919" stroke-width="0.35 px" style="stroke-width:0.35;stroke-miterlimit:4;stroke-dasharray:none;fill:none;fill-opacity:1;fill-rule: evenodd"/>
<path id="Shape2DView_nwe0102"  d="M 0.8 -1.14 L 0.775 -1.14 " stroke="#191919" stroke-width="0.35 px" style="stroke-width:0.35;stroke-miterlimit:4;stroke-dasharray:none;fill:none;fill-opacity:1;fill-rule: evenodd"/>
<path id="Shape2DView_nwe0103"  d="M 0.8 0.76 L 0.775 0.76 " stroke="#191919" stroke-width="0.35 px" style="stroke-width:0.35;stroke-miterlimit:4;stroke-dasharray:none;fill:none;fill-opacity:1;fill-rule: evenodd"/>
<path id="Shape2DView_nwe0104"  d="M 0.8 -0.76 L 0.775 -0.76 " stroke="#191919" stroke-width="0.35 px" style="stroke-width:0.35;stroke-miterlimit:4;stroke-dasharray:none;fill:none;fill-opacity:1;fill-rule: evenodd"/>
<path id="Shape2DView_nwe0105"  d="M -0.8 -1.14 L -0.775 -1.14 " stroke="#191919" stroke-width="0.35 px" style="stroke-width:0.35;stroke-miterlimit:4;stroke-dasharray:none;fill:none;fill-opacity:1;fill-rule: evenodd"/>
<path id="Shape2DView_nwe0106"  d="M -0.8 1.14 L -0.775 1.14 " stroke="#191919" stroke-width="0.35 px" style="stroke-width:0.35;stroke-miterlimit:4;stroke-dasharray:none;fill:none;fill-opacity:1;fill-rule: evenodd"/>
<path id="Shape2DView_nwe0107"  d="M -0.8 -0.38 L -0.775 -0.38 " stroke="#191919" stroke-width="0.35 px" style="stroke-width:0.35;stroke-miterlimit:4;stroke-dasharray:none;fill:none;fill-opacity:1;fill-rule: evenodd"/>
<path id="Shape2DView_nwe0108"  d="M -0.8 0.76 L -0.775 0.76 " stroke="#191919" stroke-width="0.35 px" style="stroke-width:0.35;stroke-miterlimit:4;stroke-dasharray:none;fill:none;fill-opacity:1;fill-rule: evenodd"/>
<title>b'Shape2DView'</title>
</g>
<g id="Rectangle" transform="translate(1.428000,1.478000) scale(1,-1)">
<rect fill="#ff0000" id="origin" width="1" height="1" x="0" y="0" />
<title>b'Rectangle'</title>
</g>
</svg>