<?xml version="1.0"?>
<!DOCTYPE svg PUBLIC "-//W3C//DTD SVG 1.1//EN" "http://www.w3.org/Graphics/SVG/1.1/DTD/svg11.dtd">
<svg width="2.5601999999999996mm" height="2.9702mm" viewBox="0 0 2.5601999999999996 2.9702" xmlns="http://www.w3.org/2000/svg" version="1.1">
<g id="Shape2DView" transform="translate(1.280100,1.485100) scale(1,-1)">
<path id="Shape2DView_nwe0000"  d="M -0.605 1.46 L 0.605 1.4600000000000002 " stroke="#191919" stroke-width="0.35 px" style="stroke-width:0.35;stroke-miterlimit:4;stroke-dasharray:none;fill:none;fill-opacity:1;fill-rule: evenodd"/>
<path id="Shape2DView_nwe0001"  d="M 0.605 1.46 L 0.7 1.365 " stroke="#191919" stroke-width="0.35 px" style="stroke-width:0.35;stroke-miterlimit:4;stroke-dasharray:none;fill:none;fill-opacity:1;fill-rule: evenodd"/>
<path id="Shape2DView_nwe0002"  d="M 0.605 1.46 L 0.5925 1.435 " stroke="#191919" stroke-width="0.35 px" style="stroke-width:0.35;stroke-miterlimit:4;stroke-dasharray:none;fill:none;fill-opacity:1;fill-rule: evenodd"/>
<path id="Shape2DView_nwe0003"  d="M -0.5925 1.435 L 0.5925 1.4350000000000003 " stroke="#191919" stroke-width="0.35 px" style="stroke-width:0.35;stroke-miterlimit:4;stroke-dasharray:none;fill:none;fill-opacity:1;fill-rule: evenodd"/>
<path id="Shape2DView_nwe0004"  d="M -0.605 1.46 L -0.5925 1.435 " stroke="#191919" stroke-width="0.35 px" style="stroke-width:0.35;stroke-miterlimit:4;stroke-dasharray:none;fill:none;fill-opacity:1;fill-rule: evenodd"/>
<path id="Shape2DView_nwe0005"  d="M -0.7 1.365 L -0.605 1.46 " stroke="#191919" stroke-width="0.35 px" style="stroke-width:0.35;stroke-miterlimit:4;stroke-dasharray:none;fill:none;fill-opacity:1;fill-rule: evenodd"/>
<path id="Shape2DView_nwe0006"  d="M 0.7 1.365 L 0.7000000000000002 0.2250000000000001 " stroke="#191919" stroke-width="0.35 px" style="stroke-width:0.35;stroke-miterlimit:4;stroke-dasharray:none;fill:none;fill-opacity:1;fill-rule: evenodd"/>
<path id="Shape2DView_nwe0007"  d="M 0.7000000000000003 -0.2250000000000001 L 0.7000000000000005 -1.365 " stroke="#191919" stroke-width="0.35 px" style="stroke-width:0.35;stroke-miterlimit:4;stroke-dasharray:none;fill:none;fill-opacity:1;fill-rule: evenodd"/>
<path id="Shape2DView_nwe0008"  d="M 0.7 -1.365 L 0.605 -1.46 " stroke="#191919" stroke-width="0.35 px" style="stroke-width:0.35;stroke-miterlimit:4;stroke-dasharray:none;fill:none;fill-opacity:1;fill-rule: evenodd"/>
<path id="Shape2DView_nwe0009"  d="M 0.605 -1.46 L -0.605 -1.4600000000000002 " stroke="#191919" stroke-width="0.35 px" style="stroke-width:0.35;stroke-miterlimit:4;stroke-dasharray:none;fill:none;fill-opacity:1;fill-rule: evenodd"/>
<path id="Shape2DView_nwe0010"  d="M -0.605 -1.46 L -0.7 -1.365 " stroke="#191919" stroke-width="0.35 px" style="stroke-width:0.35;stroke-miterlimit:4;stroke-dasharray:none;fill:none;fill-opacity:1;fill-rule: evenodd"/>
<path id="Shape2DView_nwe0011"  d="M -0.7 -1.365 L -0.7 -1.175 " stroke="#191919" stroke-width="0.35 px" style="stroke-width:0.35;stroke-miterlimit:4;stroke-dasharray:none;fill:none;fill-opacity:1;fill-rule: evenodd"/>
<path id="Shape2DView_nwe0012"  d="M -0.7000000000000005 1.175 L -0.7000000000000005 1.365 " stroke="#191919" stroke-width="0.35 px" style="stroke-width:0.35;stroke-miterlimit:4;stroke-dasharray:none;fill:none;fill-opacity:1;fill-rule: evenodd"/>
<path id="Shape2DView_nwe0013"  d="M -0.7000000000000001 -0.725 L -0.7000000000000004 0.7249999999999999 " stroke="#191919" stroke-width="0.35 px" style="stroke-width:0.35;stroke-miterlimit:4;stroke-dasharray:none;fill:none;fill-opacity:1;fill-rule: evenodd"/>
<path id="Shape2DView_nwe0014"  d="M 0.7 1.365 L 0.675 1.3525 " stroke="#191919" stroke-width="0.35 px" style="stroke-width:0.35;stroke-miterlimit:4;stroke-dasharray:none;fill:none;fill-opacity:1;fill-rule: evenodd"/>
<path id="Shape2DView_nwe0015"  d="M 0.5925 1.435 L 0.675 1.3525 " stroke="#191919" stroke-width="0.35 px" style="stroke-width:0.35;stroke-miterlimit:4;stroke-dasharray:none;fill:none;fill-opacity:1;fill-rule: evenodd"/>
<path id="Shape2DView_nwe0016"  d="M 0.5925 1.435 L 0.564743185146 1.379486370293 " stroke="#191919" stroke-width="0.35 px" style="stroke-width:0.35;stroke-miterlimit:4;stroke-dasharray:none;fill:none;fill-opacity:1;fill-rule: evenodd"/>
<path id="Shape2DView_nwe0017"  d="M -0.564743185146 1.379486370293 L 0.564743185146 1.3794863702930003 " stroke="#191919" stroke-width="0.35 px" style="stroke-width:0.35;stroke-miterlimit:4;stroke-dasharray:none;fill:none;fill-opacity:1;fill-rule: evenodd"/>
<path id="Shape2DView_nwe0018"  d="M -0.5925 1.435 L -0.564743185146 1.379486370293 " stroke="#191919" stroke-width="0.35 px" style="stroke-width:0.35;stroke-miterlimit:4;stroke-dasharray:none;fill:none;fill-opacity:1;fill-rule: evenodd"/>
<path id="Shape2DView_nwe0019"  d="M -0.675 1.3525 L -0.5925 1.435 " stroke="#191919" stroke-width="0.35 px" style="stroke-width:0.35;stroke-miterlimit:4;stroke-dasharray:none;fill:none;fill-opacity:1;fill-rule: evenodd"/>
<path id="Shape2DView_nwe0020"  d="M -0.7 1.365 L -0.675 1.3525 " stroke="#191919" stroke-width="0.35 px" style="stroke-width:0.35;stroke-miterlimit:4;stroke-dasharray:none;fill:none;fill-opacity:1;fill-rule: evenodd"/>
<path id="Shape2DView_nwe0021"  d="M 0.675 1.3525 L 0.6750000000000003 0.2250000000000001 " stroke="#191919" stroke-width="0.35 px" style="stroke-width:0.35;stroke-miterlimit:4;stroke-dasharray:none;fill:none;fill-opacity:1;fill-rule: evenodd"/>
<path id="Shape2DView_nwe0022"  d="M 1.255 0.225 L 1.1 0.22499999999999998 " stroke="#191919" stroke-width="0.35 px" style="stroke-width:0.35;stroke-miterlimit:4;stroke-dasharray:none;fill:none;fill-opacity:1;fill-rule: evenodd"/>
<path id="Shape2DView_nwe0023"  d="M 1.0999999999999999 0.225 L 1.088803552389669 0.225 L 1.0777479066043685 0.225 L 1.066972093804483 0.225 L 1.056611626088244 0.225 L 1.0467967923484662 0.225 L 1.0376510198141267 0.225 L 1.0292893218813453 0.22499999999999998 L 1.0218168517531971 0.22499999999999998 L 1.0153275800771717 0.22499999999999998 L 1.0099031132097582 0.22499999999999998 L 1.0056116669691633 0.22499999999999998 L 1.0025072087818176 0.22499999999999998 L 1.0006287790106758 0.22499999999999998 L 1.0 0.22499999999999998 " stroke="#191919" stroke-width="0.35 px" style="stroke-width:0.35;stroke-miterlimit:4;stroke-dasharray:none;fill:none;fill-opacity:1;fill-rule: evenodd"/>
<path id="Shape2DView_nwe0024"  d="M 1.0 0.22500000000000006 L 0.9984280524733107 0.22500000000000006 L 0.9937319780454559 0.22500000000000006 L 0.9859708325770918 0.22500000000000006 L 0.9752422169756048 0.22500000000000006 L 0.9616810498070709 0.22500000000000006 L 0.9454578706170074 0.22500000000000006 L 0.9267766952966368 0.22500000000000003 L 0.9058724504646833 0.22500000000000003 L 0.8830080191288341 0.22500000000000003 L 0.8584709347793895 0.22500000000000003 L 0.8325697654887917 0.22500000000000003 L 0.8056302334890786 0.225 L 0.777991119025827 0.225 L 0.75 0.225 " stroke="#191919" stroke-width="0.35 px" style="stroke-width:0.35;stroke-miterlimit:4;stroke-dasharray:none;fill:none;fill-opacity:1;fill-rule: evenodd"/>
<path id="Shape2DView_nwe0025"  d="M 0.75 0.225 L 0.7 0.225 " stroke="#191919" stroke-width="0.35 px" style="stroke-width:0.35;stroke-miterlimit:4;stroke-dasharray:none;fill:none;fill-opacity:1;fill-rule: evenodd"/>
<path id="Shape2DView_nwe0026"  d="M 1.255 -0.225 L 1.1 -0.22500000000000003 " stroke="#191919" stroke-width="0.35 px" style="stroke-width:0.35;stroke-miterlimit:4;stroke-dasharray:none;fill:none;fill-opacity:1;fill-rule: evenodd"/>
<path id="Shape2DView_nwe0027"  d="M 1.0999999999999999 -0.225 L 1.088803552389669 -0.225 L 1.0777479066043685 -0.225 L 1.066972093804483 -0.225 L 1.056611626088244 -0.225 L 1.0467967923484662 -0.225 L 1.0376510198141267 -0.225 L 1.0292893218813453 -0.22500000000000003 L 1.0218168517531971 -0.22500000000000003 L 1.0153275800771717 -0.22500000000000003 L 1.0099031132097582 -0.22500000000000003 L 1.0056116669691633 -0.22500000000000003 L 1.0025072087818176 -0.22500000000000003 L 1.0006287790106758 -0.22500000000000003 L 1.0 -0.22500000000000003 " stroke="#191919" stroke-width="0.35 px" style="stroke-width:0.35;stroke-miterlimit:4;stroke-dasharray:none;fill:none;fill-opacity:1;fill-rule: evenodd"/>
<path id="Shape2DView_nwe0028"  d="M 1.0 -0.22499999999999995 L 0.9984280524733107 -0.22499999999999995 L 0.9937319780454559 -0.22499999999999995 L 0.9859708325770918 -0.22499999999999995 L 0.9752422169756048 -0.22499999999999995 L 0.9616810498070709 -0.22499999999999995 L 0.9454578706170074 -0.22499999999999995 L 0.9267766952966368 -0.22499999999999998 L 0.9058724504646833 -0.22499999999999998 L 0.8830080191288341 -0.22499999999999998 L 0.8584709347793895 -0.22499999999999998 L 0.8325697654887917 -0.22499999999999998 L 0.8056302334890786 -0.225 L 0.777991119025827 -0.225 L 0.75 -0.225 " stroke="#191919" stroke-width="0.35 px" style="stroke-width:0.35;stroke-miterlimit:4;stroke-dasharray:none;fill:none;fill-opacity:1;fill-rule: evenodd"/>
<path id="Shape2DView_nwe0029"  d="M 0.75 -0.225 L 0.7 -0.225 " stroke="#191919" stroke-width="0.35 px" style="stroke-width:0.35;stroke-miterlimit:4;stroke-dasharray:none;fill:none;fill-opacity:1;fill-rule: evenodd"/>
<path id="Shape2DView_nwe0030"  d="M 0.7 -1.365 L 0.675 -1.3525 " stroke="#191919" stroke-width="0.35 px" style="stroke-width:0.35;stroke-miterlimit:4;stroke-dasharray:none;fill:none;fill-opacity:1;fill-rule: evenodd"/>
<path id="Shape2DView_nwe0031"  d="M 0.6750000000000004 -0.2250000000000001 L 0.6750000000000006 -1.3525 " stroke="#191919" stroke-width="0.35 px" style="stroke-width:0.35;stroke-miterlimit:4;stroke-dasharray:none;fill:none;fill-opacity:1;fill-rule: evenodd"/>
<path id="Shape2DView_nwe0032"  d="M 0.605 -1.46 L 0.5925 -1.435 " stroke="#191919" stroke-width="0.35 px" style="stroke-width:0.35;stroke-miterlimit:4;stroke-dasharray:none;fill:none;fill-opacity:1;fill-rule: evenodd"/>
<path id="Shape2DView_nwe0033"  d="M 0.675 -1.3525 L 0.5925 -1.435 " stroke="#191919" stroke-width="0.35 px" style="stroke-width:0.35;stroke-miterlimit:4;stroke-dasharray:none;fill:none;fill-opacity:1;fill-rule: evenodd"/>
<path id="Shape2DView_nwe0034"  d="M -0.605 -1.46 L -0.5925 -1.435 " stroke="#191919" stroke-width="0.35 px" style="stroke-width:0.35;stroke-miterlimit:4;stroke-dasharray:none;fill:none;fill-opacity:1;fill-rule: evenodd"/>
<path id="Shape2DView_nwe0035"  d="M 0.5925 -1.435 L -0.5925 -1.4350000000000003 " stroke="#191919" stroke-width="0.35 px" style="stroke-width:0.35;stroke-miterlimit:4;stroke-dasharray:none;fill:none;fill-opacity:1;fill-rule: evenodd"/>
<path id="Shape2DView_nwe0036"  d="M -0.7 -1.365 L -0.675 -1.3525 " stroke="#191919" stroke-width="0.35 px" style="stroke-width:0.35;stroke-miterlimit:4;stroke-dasharray:none;fill:none;fill-opacity:1;fill-rule: evenodd"/>
<path id="Shape2DView_nwe0037"  d="M -0.5925 -1.435 L -0.675 -1.3525 " stroke="#191919" stroke-width="0.35 px" style="stroke-width:0.35;stroke-miterlimit:4;stroke-dasharray:none;fill:none;fill-opacity:1;fill-rule: evenodd"/>
<path id="Shape2DView_nwe0038"  d="M -0.675 -1.3525 L -0.675 -1.175 " stroke="#191919" stroke-width="0.35 px" style="stroke-width:0.35;stroke-miterlimit:4;stroke-dasharray:none;fill:none;fill-opacity:1;fill-rule: evenodd"/>
<path id="Shape2DView_nwe0039"  d="M -1.255 -1.175 L -1.1 -1.175 " stroke="#191919" stroke-width="0.35 px" style="stroke-width:0.35;stroke-miterlimit:4;stroke-dasharray:none;fill:none;fill-opacity:1;fill-rule: evenodd"/>
<path id="Shape2DView_nwe0040"  d="M -1.0999999999999999 -1.175 L -1.088803552389669 -1.175 L -1.0777479066043685 -1.175 L -1.066972093804483 -1.175 L -1.056611626088244 -1.175 L -1.0467967923484662 -1.175 L -1.0376510198141267 -1.175 L -1.0292893218813453 -1.175 L -1.0218168517531971 -1.175 L -1.0153275800771717 -1.175 L -1.0099031132097582 -1.175 L -1.0056116669691633 -1.175 L -1.0025072087818176 -1.175 L -1.0006287790106758 -1.175 L -1.0 -1.175 " stroke="#191919" stroke-width="0.35 px" style="stroke-width:0.35;stroke-miterlimit:4;stroke-dasharray:none;fill:none;fill-opacity:1;fill-rule: evenodd"/>
<path id="Shape2DView_nwe0041"  d="M -1.0 -1.175 L -0.9984280524733107 -1.175 L -0.9937319780454559 -1.175 L -0.9859708325770918 -1.175 L -0.9752422169756048 -1.175 L -0.9616810498070709 -1.175 L -0.9454578706170074 -1.175 L -0.9267766952966368 -1.175 L -0.9058724504646833 -1.175 L -0.8830080191288341 -1.175 L -0.8584709347793895 -1.175 L -0.8325697654887917 -1.175 L -0.8056302334890786 -1.175 L -0.777991119025827 -1.175 L -0.75 -1.175 " stroke="#191919" stroke-width="0.35 px" style="stroke-width:0.35;stroke-miterlimit:4;stroke-dasharray:none;fill:none;fill-opacity:1;fill-rule: evenodd"/>
<path id="Shape2DView_nwe0042"  d="M -0.75 -1.175 L -0.7 -1.175 " stroke="#191919" stroke-width="0.35 px" style="stroke-width:0.35;stroke-miterlimit:4;stroke-dasharray:none;fill:none;fill-opacity:1;fill-rule: evenodd"/>
<path id="Shape2DView_nwe0043"  d="M -1.255 1.175 L -1.1 1.175 " stroke="#191919" stroke-width="0.35 px" style="stroke-width:0.35;stroke-miterlimit:4;stroke-dasharray:none;fill:none;fill-opacity:1;fill-rule: evenodd"/>
<path id="Shape2DView_nwe0044"  d="M -1.0999999999999999 1.175 L -1.088803552389669 1.175 L -1.0777479066043685 1.175 L -1.066972093804483 1.175 L -1.056611626088244 1.175 L -1.0467967923484662 1.175 L -1.0376510198141267 1.175 L -1.0292893218813453 1.175 L -1.0218168517531971 1.175 L -1.0153275800771717 1.175 L -1.0099031132097582 1.175 L -1.0056116669691633 1.175 L -1.0025072087818176 1.175 L -1.0006287790106758 1.175 L -1.0 1.175 " stroke="#191919" stroke-width="0.35 px" style="stroke-width:0.35;stroke-miterlimit:4;stroke-dasharray:none;fill:none;fill-opacity:1;fill-rule: evenodd"/>
<path id="Shape2DView_nwe0045"  d="M -1.0 1.175 L -0.9984280524733107 1.175 L -0.9937319780454559 1.175 L -0.9859708325770918 1.175 L -0.9752422169756048 1.175 L -0.9616810498070709 1.175 L -0.9454578706170074 1.175 L -0.9267766952966368 1.175 L -0.9058724504646833 1.175 L -0.8830080191288341 1.175 L -0.8584709347793895 1.175 L -0.8325697654887917 1.175 L -0.8056302334890786 1.175 L -0.777991119025827 1.175 L -0.75 1.175 " stroke="#191919" stroke-width="0.35 px" style="stroke-width:0.35;stroke-miterlimit:4;stroke-dasharray:none;fill:none;fill-opacity:1;fill-rule: evenodd"/>
<path id="Shape2DView_nwe0046"  d="M -0.75 1.175 L -0.7 1.175 " stroke="#191919" stroke-width="0.35 px" style="stroke-width:0.35;stroke-miterlimit:4;stroke-dasharray:none;fill:none;fill-opacity:1;fill-rule: evenodd"/>
<path id="Shape2DView_nwe0047"  d="M -0.6750000000000006 1.1749999999999998 L -0.6750000000000006 1.3525 " stroke="#191919" stroke-width="0.35 px" style="stroke-width:0.35;stroke-miterlimit:4;stroke-dasharray:none;fill:none;fill-opacity:1;fill-rule: evenodd"/>
<path id="Shape2DView_nwe0048"  d="M -1.255 -0.725 L -1.1 -0.725 " stroke="#191919" stroke-width="0.35 px" style="stroke-width:0.35;stroke-miterlimit:4;stroke-dasharray:none;fill:none;fill-opacity:1;fill-rule: evenodd"/>
<path id="Shape2DView_nwe0049"  d="M -1.0999999999999999 -0.725 L -1.088803552389669 -0.725 L -1.0777479066043685 -0.725 L -1.066972093804483 -0.725 L -1.056611626088244 -0.725 L -1.0467967923484662 -0.725 L -1.0376510198141267 -0.725 L -1.0292893218813453 -0.725 L -1.0218168517531971 -0.725 L -1.0153275800771717 -0.725 L -1.0099031132097582 -0.725 L -1.0056116669691633 -0.725 L -1.0025072087818176 -0.725 L -1.0006287790106758 -0.725 L -1.0 -0.725 " stroke="#191919" stroke-width="0.35 px" style="stroke-width:0.35;stroke-miterlimit:4;stroke-dasharray:none;fill:none;fill-opacity:1;fill-rule: evenodd"/>
<path id="Shape2DView_nwe0050"  d="M -1.0 -0.725 L -0.9984280524733107 -0.725 L -0.9937319780454559 -0.725 L -0.9859708325770918 -0.725 L -0.9752422169756048 -0.725 L -0.9616810498070709 -0.725 L -0.9454578706170074 -0.725 L -0.9267766952966368 -0.725 L -0.9058724504646833 -0.725 L -0.8830080191288341 -0.725 L -0.8584709347793895 -0.725 L -0.8325697654887917 -0.725 L -0.8056302334890786 -0.725 L -0.777991119025827 -0.725 L -0.75 -0.725 " stroke="#191919" stroke-width="0.35 px" style="stroke-width:0.35;stroke-miterlimit:4;stroke-dasharray:none;fill:none;fill-opacity:1;fill-rule: evenodd"/>
<path id="Shape2DView_nwe0051"  d="M -0.75 -0.725 L -0.7 -0.725 " stroke="#191919" stroke-width="0.35 px" style="stroke-width:0.35;stroke-miterlimit:4;stroke-dasharray:none;fill:none;fill-opacity:1;fill-rule: evenodd"/>
<path id="Shape2DView_nwe0052"  d="M -1.255 0.725 L -1.1 0.725 " stroke="#191919" stroke-width="0.35 px" style="stroke-width:0.35;stroke-miterlimit:4;stroke-dasharray:none;fill:none;fill-opacity:1;fill-rule: evenodd"/>
<path id="Shape2DView_nwe0053"  d="M -1.0999999999999999 0.725 L -1.088803552389669 0.725 L -1.0777479066043685 0.725 L -1.066972093804483 0.725 L -1.056611626088244 0.725 L -1.0467967923484662 0.725 L -1.0376510198141267 0.725 L -1.0292893218813453 0.725 L -1.0218168517531971 0.725 L -1.0153275800771717 0.725 L -1.0099031132097582 0.725 L -1.0056116669691633 0.725 L -1.0025072087818176 0.725 L -1.0006287790106758 0.725 L -1.0 0.725 " stroke="#191919" stroke-width="0.35 px" style="stroke-width:0.35;stroke-miterlimit:4;stroke-dasharray:none;fill:none;fill-opacity:1;fill-rule: evenodd"/>
<path id="Shape2DView_nwe0054"  d="M -1.0 0.725 L -0.9984280524733107 0.725 L -0.9937319780454559 0.725 L -0.9859708325770918 0.725 L -0.9752422169756048 0.725 L -0.9616810498070709 0.725 L -0.9454578706170074 0.725 L -0.9267766952966368 0.725 L -0.9058724504646833 0.725 L -0.8830080191288341 0.725 L -0.8584709347793895 0.725 L -0.8325697654887917 0.725 L -0.8056302334890786 0.725 L -0.777991119025827 0.725 L -0.75 0.725 " stroke="#191919" stroke-width="0.35 px" style="stroke-width:0.35;stroke-miterlimit:4;stroke-dasharray:none;fill:none;fill-opacity:1;fill-rule: evenodd"/>
<path id="Shape2DView_nwe0055"  d="M -0.75 0.725 L -0.7 0.725 " stroke="#191919" stroke-width="0.35 px" style="stroke-width:0.35;stroke-miterlimit:4;stroke-dasharray:none;fill:none;fill-opacity:1;fill-rule: evenodd"/>
<path id="Shape2DView_nwe0056"  d="M -0.6750000000000002 -0.725 L -0.6750000000000005 0.7250000000000001 " stroke="#191919" stroke-width="0.35 px" style="stroke-width:0.35;stroke-miterlimit:4;stroke-dasharray:none;fill:none;fill-opacity:1;fill-rule: evenodd"/>
<path id="Shape2DView_nwe0057"  d="M 0.675 1.3525 L 0.619486370293 1.324743185146 " stroke="#191919" stroke-width="0.35 px" style="stroke-width:0.35;stroke-miterlimit:4;stroke-dasharray:none;fill:none;fill-opacity:1;fill-rule: evenodd"/>
<path id="Shape2DView_nwe0058"  d="M 0.564743185146 1.379486370293 L 0.619486370293 1.324743185146 " stroke="#191919" stroke-width="0.35 px" style="stroke-width:0.35;stroke-miterlimit:4;stroke-dasharray:none;fill:none;fill-opacity:1;fill-rule: evenodd"/>
<path id="Shape2DView_nwe0059"  d="M 0.619486370293 1.324743185146 L 0.6194863702930006 -1.324743185146 " stroke="#191919" stroke-width="0.35 px" style="stroke-width:0.35;stroke-miterlimit:4;stroke-dasharray:none;fill:none;fill-opacity:1;fill-rule: evenodd"/>
<path id="Shape2DView_nwe0060"  d="M 0.619486370293 -1.324743185146 L 0.564743185146 -1.379486370293 " stroke="#191919" stroke-width="0.35 px" style="stroke-width:0.35;stroke-miterlimit:4;stroke-dasharray:none;fill:none;fill-opacity:1;fill-rule: evenodd"/>
<path id="Shape2DView_nwe0061"  d="M 0.564743185146 -1.379486370293 L -0.564743185146 -1.3794863702930003 " stroke="#191919" stroke-width="0.35 px" style="stroke-width:0.35;stroke-miterlimit:4;stroke-dasharray:none;fill:none;fill-opacity:1;fill-rule: evenodd"/>
<path id="Shape2DView_nwe0062"  d="M -0.564743185146 -1.379486370293 L -0.619486370293 -1.324743185146 " stroke="#191919" stroke-width="0.35 px" style="stroke-width:0.35;stroke-miterlimit:4;stroke-dasharray:none;fill:none;fill-opacity:1;fill-rule: evenodd"/>
<path id="Shape2DView_nwe0063"  d="M -0.619486370293 -1.324743185146 L -0.6194863702930006 1.324743185146 " stroke="#191919" stroke-width="0.35 px" style="stroke-width:0.35;stroke-miterlimit:4;stroke-dasharray:none;fill:none;fill-opacity:1;fill-rule: evenodd"/>
<path id="Shape2DView_nwe0064"  d="M -0.619486370293 1.324743185146 L -0.564743185146 1.379486370293 " stroke="#191919" stroke-width="0.35 px" style="stroke-width:0.35;stroke-miterlimit:4;stroke-dasharray:none;fill:none;fill-opacity:1;fill-rule: evenodd"/>
<path id="Shape2DView_nwe0065"  d="M -0.675 1.3525 L -0.619486370293 1.324743185146 " stroke="#191919" stroke-width="0.35 px" style="stroke-width:0.35;stroke-miterlimit:4;stroke-dasharray:none;fill:none;fill-opacity:1;fill-rule: evenodd"/>
<path id="Shape2DView_nwe0066"  d="M 0.6750000000000003 0.2250000000000001 L 0.6750000000000004 -0.2250000000000001 " stroke="#191919" stroke-width="0.35 px" style="stroke-width:0.35;stroke-miterlimit:4;stroke-dasharray:none;fill:none;fill-opacity:1;fill-rule: evenodd"/>
<path id="Shape2DView_nwe0067"  d="M 0.675 -1.3525 L 0.619486370293 -1.324743185146 " stroke="#191919" stroke-width="0.35 px" style="stroke-width:0.35;stroke-miterlimit:4;stroke-dasharray:none;fill:none;fill-opacity:1;fill-rule: evenodd"/>
<path id="Shape2DView_nwe0068"  d="M 1.0 0.225 L 1.0 -0.225 " stroke="#191919" stroke-width="0.35 px" style="stroke-width:0.35;stroke-miterlimit:4;stroke-dasharray:none;fill:none;fill-opacity:1;fill-rule: evenodd"/>
<path id="Shape2DView_nwe0069"  d="M 1.255 0.225 L 1.255 -0.225 " stroke="#191919" stroke-width="0.35 px" style="stroke-width:0.35;stroke-miterlimit:4;stroke-dasharray:none;fill:none;fill-opacity:1;fill-rule: evenodd"/>
<path id="Shape2DView_nwe0070"  d="M 0.5925 -1.435 L 0.564743185146 -1.379486370293 " stroke="#191919" stroke-width="0.35 px" style="stroke-width:0.35;stroke-miterlimit:4;stroke-dasharray:none;fill:none;fill-opacity:1;fill-rule: evenodd"/>
<path id="Shape2DView_nwe0071"  d="M -0.5925 -1.435 L -0.564743185146 -1.379486370293 " stroke="#191919" stroke-width="0.35 px" style="stroke-width:0.35;stroke-miterlimit:4;stroke-dasharray:none;fill:none;fill-opacity:1;fill-rule: evenodd"/>
<path id="Shape2DView_nwe0072"  d="M -0.675 -1.3525 L -0.619486370293 -1.324743185146 " stroke="#191919" stroke-width="0.35 px" style="stroke-width:0.35;stroke-miterlimit:4;stroke-dasharray:none;fill:none;fill-opacity:1;fill-rule: evenodd"/>
<path id="Shape2DView_nwe0073"  d="M -0.675 -1.175 L -0.6750000000000002 -0.725 " stroke="#191919" stroke-width="0.35 px" style="stroke-width:0.35;stroke-miterlimit:4;stroke-dasharray:none;fill:none;fill-opacity:1;fill-rule: evenodd"/>
<path id="Shape2DView_nwe0074"  d="M -0.6750000000000005 0.7250000000000001 L -0.6750000000000006 1.1749999999999998 " stroke="#191919" stroke-width="0.35 px" style="stroke-width:0.35;stroke-miterlimit:4;stroke-dasharray:none;fill:none;fill-opacity:1;fill-rule: evenodd"/>
<path id="Shape2DView_nwe0075"  d="M -1.0 -1.175 L -1.0 -0.725 " stroke="#191919" stroke-width="0.35 px" style="stroke-width:0.35;stroke-miterlimit:4;stroke-dasharray:none;fill:none;fill-opacity:1;fill-rule: evenodd"/>
<path id="Shape2DView_nwe0076"  d="M -1.255 -1.175 L -1.255 -0.725 " stroke="#191919" stroke-width="0.35 px" style="stroke-width:0.35;stroke-miterlimit:4;stroke-dasharray:none;fill:none;fill-opacity:1;fill-rule: evenodd"/>
<path id="Shape2DView_nwe0077"  d="M -1.0 0.725 L -1.0 1.175 " stroke="#191919" stroke-width="0.35 px" style="stroke-width:0.35;stroke-miterlimit:4;stroke-dasharray:none;fill:none;fill-opacity:1;fill-rule: evenodd"/>
<path id="Shape2DView_nwe0078"  d="M -1.255 0.725 L -1.255 1.175 " stroke="#191919" stroke-width="0.35 px" style="stroke-width:0.35;stroke-miterlimit:4;stroke-dasharray:none;fill:none;fill-opacity:1;fill-rule: evenodd"/>
<path id="Shape2DView_nwe0079"  d="M 0.75 0.225 L 0.7500000000000001 -0.225 " stroke="#191919" stroke-width="0.35 px" style="stroke-width:0.35;stroke-miterlimit:4;stroke-dasharray:none;fill:none;fill-opacity:1;fill-rule: evenodd"/>
<path id="Shape2DView_nwe0080"  d="M 1.1 0.225 L 1.1 -0.225 " stroke="#191919" stroke-width="0.35 px" style="stroke-width:0.35;stroke-miterlimit:4;stroke-dasharray:none;fill:none;fill-opacity:1;fill-rule: evenodd"/>
<path id="Shape2DView_nwe0081"  d="M -0.75 -1.175 L -0.75 -0.725 " stroke="#191919" stroke-width="0.35 px" style="stroke-width:0.35;stroke-miterlimit:4;stroke-dasharray:none;fill:none;fill-opacity:1;fill-rule: evenodd"/>
<path id="Shape2DView_nwe0082"  d="M -1.1 -1.175 L -1.1 -0.725 " stroke="#191919" stroke-width="0.35 px" style="stroke-width:0.35;stroke-miterlimit:4;stroke-dasharray:none;fill:none;fill-opacity:1;fill-rule: evenodd"/>
<path id="Shape2DView_nwe0083"  d="M -0.75 0.725 L -0.75 1.175 " stroke="#191919" stroke-width="0.35 px" style="stroke-width:0.35;stroke-miterlimit:4;stroke-dasharray:none;fill:none;fill-opacity:1;fill-rule: evenodd"/>
<path id="Shape2DView_nwe0084"  d="M -1.1 0.725 L -1.1 1.175 " stroke="#191919" stroke-width="0.35 px" style="stroke-width:0.35;stroke-miterlimit:4;stroke-dasharray:none;fill:none;fill-opacity:1;fill-rule: evenodd"/>
<path id="Shape2DView_nwe0085"  d="M 0.7 0.225 L 0.675 0.22499999999999998 " stroke="#191919" stroke-width="0.35 px" style="stroke-width:0.35;stroke-miterlimit:4;stroke-dasharray:none;fill:none;fill-opacity:1;fill-rule: evenodd"/>
<path id="Shape2DView_nwe0086"  d="M 0.7 -0.225 L 0.675 -0.22500000000000003 " stroke="#191919" stroke-width="0.35 px" style="stroke-width:0.35;stroke-miterlimit:4;stroke-dasharray:none;fill:none;fill-opacity:1;fill-rule: evenodd"/>
<path id="Shape2DView_nwe0087"  d="M -0.7 -1.175 L -0.675 -1.175 " stroke="#191919" stroke-width="0.35 px" style="stroke-width:0.35;stroke-miterlimit:4;stroke-dasharray:none;fill:none;fill-opacity:1;fill-rule: evenodd"/>
<path id="Shape2DView_nwe0088"  d="M -0.7 1.175 L -0.675 1.175 " stroke="#191919" stroke-width="0.35 px" style="stroke-width:0.35;stroke-miterlimit:4;stroke-dasharray:none;fill:none;fill-opacity:1;fill-rule: evenodd"/>
<path id="Shape2DView_nwe0089"  d="M -0.7 -0.725 L -0.675 -0.725 " stroke="#191919" stroke-width="0.35 px" style="stroke-width:0.35;stroke-miterlimit:4;stroke-dasharray:none;fill:none;fill-opacity:1;fill-rule: evenodd"/>
<path id="Shape2DView_nwe0090"  d="M -0.7 0.725 L -0.675 0.725 " stroke="#191919" stroke-width="0.35 px" style="stroke-width:0.35;stroke-miterlimit:4;stroke-dasharray:none;fill:none;fill-opacity:1;fill-rule: evenodd"/>
<title>b'Shape2DView'</title>
</g>
<g id="Rectangle" transform="translate(1.280100,1.485100) scale(1,-1)">
<rect fill="#ff0000" id="origin" width="1" height="1" x="0" y="0" />
<title>b'Rectangle'</title>
</g>
</svg>