<?xml version="1.0"?>
<!DOCTYPE svg PUBLIC "-//W3C//DTD SVG 1.1//EN" "http://www.w3.org/Graphics/SVG/1.1/DTD/svg11.dtd">
<svg width="19.38mm" height="16.280000000000182mm" viewBox="0 0 19.38 16.280000000000182" xmlns="http://www.w3.org/2000/svg" version="1.1">
<g id="Shape2DView" transform="translate(9.690000,8.140000) scale(1,-1)">
<path id="Shape2DView_nwe0000"  d="M -5.0 -7.45 L 6.292893218812999 -7.45 " stroke="#191919" stroke-width="0.35 px" style="stroke-width:0.35;stroke-miterlimit:4;stroke-dasharray:none;fill:none;fill-opacity:1;fill-rule: evenodd"/>
<path id="Shape2DView_nwe0001"  d="M 6.2928932188135 -7.450000000000499 L 8.0000000000005 -5.742893218813499 " stroke="#191919" stroke-width="0.35 px" style="stroke-width:0.35;stroke-miterlimit:4;stroke-dasharray:none;fill:none;fill-opacity:1;fill-rule: evenodd"/>
<path id="Shape2DView_nwe0002"  d="M 8.0 -5.742893218813 L 8.0 5.742893218813 " stroke="#191919" stroke-width="0.35 px" style="stroke-width:0.35;stroke-miterlimit:4;stroke-dasharray:none;fill:none;fill-opacity:1;fill-rule: evenodd"/>
<path id="Shape2DView_nwe0003"  d="M 8.000000000000501 5.7428932188135 L 6.2928932188135 7.4500000000005 " stroke="#191919" stroke-width="0.35 px" style="stroke-width:0.35;stroke-miterlimit:4;stroke-dasharray:none;fill:none;fill-opacity:1;fill-rule: evenodd"/>
<path id="Shape2DView_nwe0004"  d="M 6.292893218813 7.45 L -4.999999999999999 7.45 " stroke="#191919" stroke-width="0.35 px" style="stroke-width:0.35;stroke-miterlimit:4;stroke-dasharray:none;fill:none;fill-opacity:1;fill-rule: evenodd"/>
<path id="Shape2DView_nwe0005"  d="M -5.0 7.45 L -5.0 -7.45 " stroke="#191919" stroke-width="0.35 px" style="stroke-width:0.35;stroke-miterlimit:4;stroke-dasharray:none;fill:none;fill-opacity:1;fill-rule: evenodd"/>
<circle cx="5.908889761165" cy="-4.017792980805" r="0.8" stroke="#191919" stroke-width="0.35 px" style="stroke-width:0.35;stroke-miterlimit:4;stroke-dasharray:none;fill:none"/>
<circle cx="-3.090594258794" cy="-2.239288093743e-16" r="0.8" stroke="#191919" stroke-width="0.35 px" style="stroke-width:0.35;stroke-miterlimit:4;stroke-dasharray:none;fill:none"/>
<circle cx="5.957334645095" cy="3.975" r="0.8" stroke="#191919" stroke-width="0.35 px" style="stroke-width:0.35;stroke-miterlimit:4;stroke-dasharray:none;fill:none"/>
<path id="Shape2DView_nwe0009"  d="M 6.292893218813779 -7.449999999999904 L 6.500000000000368 -7.9499999999992275 " stroke="#191919" stroke-width="0.35 px" style="stroke-width:0.35;stroke-miterlimit:4;stroke-dasharray:none;fill:none;fill-opacity:1;fill-rule: evenodd"/>
<path id="Shape2DView_nwe0010"  d="M -5.5 -7.95 L 6.5 -7.95 " stroke="#191919" stroke-width="0.35 px" style="stroke-width:0.35;stroke-miterlimit:4;stroke-dasharray:none;fill:none;fill-opacity:1;fill-rule: evenodd"/>
<path id="Shape2DView_nwe0011"  d="M -4.999999999999768 -7.449999999999768 L -5.500000000000053 -7.9500000000000535 " stroke="#191919" stroke-width="0.35 px" style="stroke-width:0.35;stroke-miterlimit:4;stroke-dasharray:none;fill:none;fill-opacity:1;fill-rule: evenodd"/>
<path id="Shape2DView_nwe0012"  d="M -4.999999999999844 7.449999999999844 L -5.500000000000129 7.950000000000129 " stroke="#191919" stroke-width="0.35 px" style="stroke-width:0.35;stroke-miterlimit:4;stroke-dasharray:none;fill:none;fill-opacity:1;fill-rule: evenodd"/>
<path id="Shape2DView_nwe0013"  d="M -5.5 7.95 L -5.5 -7.95 " stroke="#191919" stroke-width="0.35 px" style="stroke-width:0.35;stroke-miterlimit:4;stroke-dasharray:none;fill:none;fill-opacity:1;fill-rule: evenodd"/>
<path id="Shape2DView_nwe0014"  d="M 8.000000000000076 -5.74289321881325 L 8.4999999999994 -5.9499999999998385 " stroke="#191919" stroke-width="0.35 px" style="stroke-width:0.35;stroke-miterlimit:4;stroke-dasharray:none;fill:none;fill-opacity:1;fill-rule: evenodd"/>
<path id="Shape2DView_nwe0015"  d="M 6.5 -7.95 L 8.5 -5.949999999999999 " stroke="#191919" stroke-width="0.35 px" style="stroke-width:0.35;stroke-miterlimit:4;stroke-dasharray:none;fill:none;fill-opacity:1;fill-rule: evenodd"/>
<path id="Shape2DView_nwe0016"  d="M 6.5 7.95 L -5.499999999999999 7.95 " stroke="#191919" stroke-width="0.35 px" style="stroke-width:0.35;stroke-miterlimit:4;stroke-dasharray:none;fill:none;fill-opacity:1;fill-rule: evenodd"/>
<path id="Shape2DView_nwe0017"  d="M 6.29289321881325 7.450000000000076 L 6.499999999999838 7.949999999999398 " stroke="#191919" stroke-width="0.35 px" style="stroke-width:0.35;stroke-miterlimit:4;stroke-dasharray:none;fill:none;fill-opacity:1;fill-rule: evenodd"/>
<path id="Shape2DView_nwe0018"  d="M 7.999999999999672 5.742893218812986 L 8.499999999998995 5.949999999999575 " stroke="#191919" stroke-width="0.35 px" style="stroke-width:0.35;stroke-miterlimit:4;stroke-dasharray:none;fill:none;fill-opacity:1;fill-rule: evenodd"/>
<path id="Shape2DView_nwe0019"  d="M 8.5 -5.95 L 8.5 5.950000000000001 " stroke="#191919" stroke-width="0.35 px" style="stroke-width:0.35;stroke-miterlimit:4;stroke-dasharray:none;fill:none;fill-opacity:1;fill-rule: evenodd"/>
<path id="Shape2DView_nwe0020"  d="M 8.5 5.95 L 6.5 7.950000000000001 " stroke="#191919" stroke-width="0.35 px" style="stroke-width:0.35;stroke-miterlimit:4;stroke-dasharray:none;fill:none;fill-opacity:1;fill-rule: evenodd"/>
<path id="Shape2DView_nwe0021"  d="M 7.5 -7.95 L 6.5 -7.95 " stroke="#191919" stroke-width="0.35 px" style="stroke-width:0.35;stroke-miterlimit:4;stroke-dasharray:none;fill:none;fill-opacity:1;fill-rule: evenodd"/>
<path id="Shape2DView_nwe0022"  d="M -6.45 6.1 L -5.5 6.1 " stroke="#191919" stroke-width="0.35 px" style="stroke-width:0.35;stroke-miterlimit:4;stroke-dasharray:none;fill:none;fill-opacity:1;fill-rule: evenodd"/>
<path id="Shape2DView_nwe0023"  d="M -7.15 6.22 L -6.45 6.22 " stroke="#191919" stroke-width="0.35 px" style="stroke-width:0.35;stroke-miterlimit:4;stroke-dasharray:none;fill:none;fill-opacity:1;fill-rule: evenodd"/>
<path id="Shape2DView_nwe0024"  d="M -7.15 4.68 L -6.45 4.68 " stroke="#191919" stroke-width="0.35 px" style="stroke-width:0.35;stroke-miterlimit:4;stroke-dasharray:none;fill:none;fill-opacity:1;fill-rule: evenodd"/>
<path id="Shape2DView_nwe0025"  d="M -6.45 4.68 L -6.45 4.8 " stroke="#191919" stroke-width="0.35 px" style="stroke-width:0.35;stroke-miterlimit:4;stroke-dasharray:none;fill:none;fill-opacity:1;fill-rule: evenodd"/>
<path id="Shape2DView_nwe0026"  d="M -6.45 4.8 L -5.5 4.8 " stroke="#191919" stroke-width="0.35 px" style="stroke-width:0.35;stroke-miterlimit:4;stroke-dasharray:none;fill:none;fill-opacity:1;fill-rule: evenodd"/>
<path id="Shape2DView_nwe0027"  d="M -6.45 6.1 L -6.45 6.22 " stroke="#191919" stroke-width="0.35 px" style="stroke-width:0.35;stroke-miterlimit:4;stroke-dasharray:none;fill:none;fill-opacity:1;fill-rule: evenodd"/>
<path id="Shape2DView_nwe0028"  d="M -6.8 0.77 L -6.45 0.77 " stroke="#191919" stroke-width="0.35 px" style="stroke-width:0.35;stroke-miterlimit:4;stroke-dasharray:none;fill:none;fill-opacity:1;fill-rule: evenodd"/>
<path id="Shape2DView_nwe0029"  d="M -6.8 0.77 L -6.8 -0.77 " stroke="#191919" stroke-width="0.35 px" style="stroke-width:0.35;stroke-miterlimit:4;stroke-dasharray:none;fill:none;fill-opacity:1;fill-rule: evenodd"/>
<path id="Shape2DView_nwe0030"  d="M -6.8 -0.77 L -6.45 -0.77 " stroke="#191919" stroke-width="0.35 px" style="stroke-width:0.35;stroke-miterlimit:4;stroke-dasharray:none;fill:none;fill-opacity:1;fill-rule: evenodd"/>
<path id="Shape2DView_nwe0031"  d="M -6.45 -0.7700000000000005 L -6.45 -0.6500000000000004 " stroke="#191919" stroke-width="0.35 px" style="stroke-width:0.35;stroke-miterlimit:4;stroke-dasharray:none;fill:none;fill-opacity:1;fill-rule: evenodd"/>
<path id="Shape2DView_nwe0032"  d="M -6.45 -0.65 L -5.5 -0.65 " stroke="#191919" stroke-width="0.35 px" style="stroke-width:0.35;stroke-miterlimit:4;stroke-dasharray:none;fill:none;fill-opacity:1;fill-rule: evenodd"/>
<path id="Shape2DView_nwe0033"  d="M -6.45 0.65 L -5.5 0.65 " stroke="#191919" stroke-width="0.35 px" style="stroke-width:0.35;stroke-miterlimit:4;stroke-dasharray:none;fill:none;fill-opacity:1;fill-rule: evenodd"/>
<path id="Shape2DView_nwe0034"  d="M -6.45 0.6499999999999999 L -6.45 0.77 " stroke="#191919" stroke-width="0.35 px" style="stroke-width:0.35;stroke-miterlimit:4;stroke-dasharray:none;fill:none;fill-opacity:1;fill-rule: evenodd"/>
<path id="Shape2DView_nwe0035"  d="M -6.45 -4.8 L -5.5 -4.8 " stroke="#191919" stroke-width="0.35 px" style="stroke-width:0.35;stroke-miterlimit:4;stroke-dasharray:none;fill:none;fill-opacity:1;fill-rule: evenodd"/>
<path id="Shape2DView_nwe0036"  d="M -7.15 -4.68 L -6.45 -4.68 " stroke="#191919" stroke-width="0.35 px" style="stroke-width:0.35;stroke-miterlimit:4;stroke-dasharray:none;fill:none;fill-opacity:1;fill-rule: evenodd"/>
<path id="Shape2DView_nwe0037"  d="M -7.15 -6.22 L -6.45 -6.22 " stroke="#191919" stroke-width="0.35 px" style="stroke-width:0.35;stroke-miterlimit:4;stroke-dasharray:none;fill:none;fill-opacity:1;fill-rule: evenodd"/>
<path id="Shape2DView_nwe0038"  d="M -6.45 -6.22 L -6.45 -6.1 " stroke="#191919" stroke-width="0.35 px" style="stroke-width:0.35;stroke-miterlimit:4;stroke-dasharray:none;fill:none;fill-opacity:1;fill-rule: evenodd"/>
<path id="Shape2DView_nwe0039"  d="M -6.45 -6.1 L -5.5 -6.1 " stroke="#191919" stroke-width="0.35 px" style="stroke-width:0.35;stroke-miterlimit:4;stroke-dasharray:none;fill:none;fill-opacity:1;fill-rule: evenodd"/>
<path id="Shape2DView_nwe0040"  d="M -6.45 -4.8 L -6.45 -4.68 " stroke="#191919" stroke-width="0.35 px" style="stroke-width:0.35;stroke-miterlimit:4;stroke-dasharray:none;fill:none;fill-opacity:1;fill-rule: evenodd"/>
<path id="Shape2DView_nwe0041"  d="M 7.5 7.95 L 9.5 5.949999999999999 " stroke="#191919" stroke-width="0.35 px" style="stroke-width:0.35;stroke-miterlimit:4;stroke-dasharray:none;fill:none;fill-opacity:1;fill-rule: evenodd"/>
<path id="Shape2DView_nwe0042"  d="M 9.5 5.95 L 9.5 -5.95 " stroke="#191919" stroke-width="0.35 px" style="stroke-width:0.35;stroke-miterlimit:4;stroke-dasharray:none;fill:none;fill-opacity:1;fill-rule: evenodd"/>
<path id="Shape2DView_nwe0043"  d="M 9.5 -5.95 L 7.5 -7.950000000000001 " stroke="#191919" stroke-width="0.35 px" style="stroke-width:0.35;stroke-miterlimit:4;stroke-dasharray:none;fill:none;fill-opacity:1;fill-rule: evenodd"/>
<path id="Shape2DView_nwe0044"  d="M 6.5 7.95 L 7.5 7.95 " stroke="#191919" stroke-width="0.35 px" style="stroke-width:0.35;stroke-miterlimit:4;stroke-dasharray:none;fill:none;fill-opacity:1;fill-rule: evenodd"/>
<path id="Shape2DView_nwe0045"  d="M -7.199999999999986 6.22 L -7.1964333176272826 6.22 L -7.192865580783303 6.22 L -7.189296870489095 6.22 L -7.185727267787812 6.22 L -7.1821568537428755 6.22 L -7.178585709436128 6.22 L -7.175013915965999 6.22 L -7.171441554445659 6.22 L -7.167868706001178 6.22 L -7.164295451769686 6.22 L -7.1607218728975255 6.22 L -7.157148050538413 6.22 L -7.153574065851594 6.22 L -7.15 6.22 " stroke="#191919" stroke-width="0.35 px" style="stroke-width:0.35;stroke-miterlimit:4;stroke-dasharray:none;fill:none;fill-opacity:1;fill-rule: evenodd"/>
<path id="Shape2DView_nwe0046"  d="M -7.199999999999986 4.68 L -7.1964333176272826 4.68 L -7.192865580783303 4.68 L -7.189296870489095 4.68 L -7.185727267787812 4.68 L -7.1821568537428755 4.68 L -7.178585709436128 4.68 L -7.175013915965999 4.68 L -7.171441554445659 4.68 L -7.167868706001178 4.68 L -7.164295451769686 4.68 L -7.1607218728975255 4.68 L -7.157148050538413 4.68 L -7.153574065851594 4.68 L -7.15 4.68 " stroke="#191919" stroke-width="0.35 px" style="stroke-width:0.35;stroke-miterlimit:4;stroke-dasharray:none;fill:none;fill-opacity:1;fill-rule: evenodd"/>
<path id="Shape2DView_nwe0047"  d="M -7.2 4.68 L -7.2 4.8 " stroke="#191919" stroke-width="0.35 px" style="stroke-width:0.35;stroke-miterlimit:4;stroke-dasharray:none;fill:none;fill-opacity:1;fill-rule: evenodd"/>
<path id="Shape2DView_nwe0048"  d="M -7.2 6.1 L -7.2 6.22 " stroke="#191919" stroke-width="0.35 px" style="stroke-width:0.35;stroke-miterlimit:4;stroke-dasharray:none;fill:none;fill-opacity:1;fill-rule: evenodd"/>
<path id="Shape2DView_nwe0049"  d="M -7.9 6.1 L -7.8956758633646436 6.1 L -7.882753315212282 6.1 L -7.861381365846617 6.1 L -7.831806455878905 6.1 L -7.794369614513623 6.1 L -7.7495025271301285 6.1 L -7.697722557505162 6.1 L -7.639626782075076 6.1 L -7.575885105028928 6.1 L -7.507232533622492 6.1 L -7.43446070278678 6.1 L -7.3584087467610955 6.1 L -7.279953623010081 6.1 L -7.199999999999986 6.1 " stroke="#191919" stroke-width="0.35 px" style="stroke-width:0.35;stroke-miterlimit:4;stroke-dasharray:none;fill:none;fill-opacity:1;fill-rule: evenodd"/>
<path id="Shape2DView_nwe0050"  d="M -7.9 6.1 L -7.9 4.8 " stroke="#191919" stroke-width="0.35 px" style="stroke-width:0.35;stroke-miterlimit:4;stroke-dasharray:none;fill:none;fill-opacity:1;fill-rule: evenodd"/>
<path id="Shape2DView_nwe0051"  d="M -7.9 4.8 L -7.8956758633646436 4.8 L -7.882753315212282 4.8 L -7.861381365846617 4.8 L -7.831806455878905 4.8 L -7.794369614513623 4.8 L -7.7495025271301285 4.8 L -7.697722557505162 4.8 L -7.639626782075076 4.8 L -7.575885105028928 4.8 L -7.507232533622492 4.8 L -7.43446070278678 4.8 L -7.3584087467610955 4.8 L -7.279953623010081 4.8 L -7.199999999999986 4.8 " stroke="#191919" stroke-width="0.35 px" style="stroke-width:0.35;stroke-miterlimit:4;stroke-dasharray:none;fill:none;fill-opacity:1;fill-rule: evenodd"/>
<path id="Shape2DView_nwe0052"  d="M -7.199999999999986 -4.68 L -7.1964333176272826 -4.68 L -7.192865580783303 -4.68 L -7.189296870489095 -4.68 L -7.185727267787812 -4.68 L -7.1821568537428755 -4.68 L -7.178585709436128 -4.68 L -7.175013915965999 -4.68 L -7.171441554445659 -4.68 L -7.167868706001178 -4.68 L -7.164295451769686 -4.68 L -7.1607218728975255 -4.68 L -7.157148050538413 -4.68 L -7.153574065851594 -4.68 L -7.15 -4.68 " stroke="#191919" stroke-width="0.35 px" style="stroke-width:0.35;stroke-miterlimit:4;stroke-dasharray:none;fill:none;fill-opacity:1;fill-rule: evenodd"/>
<path id="Shape2DView_nwe0053"  d="M -7.199999999999986 -6.22 L -7.1964333176272826 -6.22 L -7.192865580783303 -6.22 L -7.189296870489095 -6.22 L -7.185727267787812 -6.22 L -7.1821568537428755 -6.22 L -7.178585709436128 -6.22 L -7.175013915965999 -6.22 L -7.171441554445659 -6.22 L -7.167868706001178 -6.22 L -7.164295451769686 -6.22 L -7.1607218728975255 -6.22 L -7.157148050538413 -6.22 L -7.153574065851594 -6.22 L -7.15 -6.22 " stroke="#191919" stroke-width="0.35 px" style="stroke-width:0.35;stroke-miterlimit:4;stroke-dasharray:none;fill:none;fill-opacity:1;fill-rule: evenodd"/>
<path id="Shape2DView_nwe0054"  d="M -7.2 -6.22 L -7.2 -6.1 " stroke="#191919" stroke-width="0.35 px" style="stroke-width:0.35;stroke-miterlimit:4;stroke-dasharray:none;fill:none;fill-opacity:1;fill-rule: evenodd"/>
<path id="Shape2DView_nwe0055"  d="M -7.2 -4.8 L -7.2 -4.68 " stroke="#191919" stroke-width="0.35 px" style="stroke-width:0.35;stroke-miterlimit:4;stroke-dasharray:none;fill:none;fill-opacity:1;fill-rule: evenodd"/>
<path id="Shape2DView_nwe0056"  d="M -7.9 -4.8 L -7.8956758633646436 -4.8 L -7.882753315212282 -4.8 L -7.861381365846617 -4.8 L -7.831806455878905 -4.8 L -7.794369614513623 -4.8 L -7.7495025271301285 -4.8 L -7.697722557505162 -4.8 L -7.639626782075076 -4.8 L -7.575885105028928 -4.8 L -7.507232533622492 -4.8 L -7.43446070278678 -4.8 L -7.3584087467610955 -4.8 L -7.279953623010081 -4.8 L -7.199999999999986 -4.8 " stroke="#191919" stroke-width="0.35 px" style="stroke-width:0.35;stroke-miterlimit:4;stroke-dasharray:none;fill:none;fill-opacity:1;fill-rule: evenodd"/>
<path id="Shape2DView_nwe0057"  d="M -7.9 -4.8 L -7.9 -6.1 " stroke="#191919" stroke-width="0.35 px" style="stroke-width:0.35;stroke-miterlimit:4;stroke-dasharray:none;fill:none;fill-opacity:1;fill-rule: evenodd"/>
<path id="Shape2DView_nwe0058"  d="M -7.9 -6.1 L -7.8956758633646436 -6.1 L -7.882753315212282 -6.1 L -7.861381365846617 -6.1 L -7.831806455878905 -6.1 L -7.794369614513623 -6.1 L -7.7495025271301285 -6.1 L -7.697722557505162 -6.1 L -7.639626782075076 -6.1 L -7.575885105028928 -6.1 L -7.507232533622492 -6.1 L -7.43446070278678 -6.1 L -7.3584087467610955 -6.1 L -7.279953623010081 -6.1 L -7.199999999999986 -6.1 " stroke="#191919" stroke-width="0.35 px" style="stroke-width:0.35;stroke-miterlimit:4;stroke-dasharray:none;fill:none;fill-opacity:1;fill-rule: evenodd"/>
<path id="Shape2DView_nwe0059"  d="M -9.5 4.8 L -8.15 4.8 " stroke="#191919" stroke-width="0.35 px" style="stroke-width:0.35;stroke-miterlimit:4;stroke-dasharray:none;fill:none;fill-opacity:1;fill-rule: evenodd"/>
<path id="Shape2DView_nwe0060"  d="M -8.149999999999999 4.8 L -8.122008880974171 4.8 L -8.09436976651092 4.8 L -8.067430234511207 4.8 L -8.04152906522061 4.8 L -8.016991980871165 4.8 L -7.994127549535317 4.8 L -7.973223304703363 4.8 L -7.954542129382992 4.8 L -7.938318950192929 4.8 L -7.924757783024395 4.8 L -7.914029167422909 4.8 L -7.906268021954545 4.8 L -7.90157194752669 4.8 L -7.9 4.8 " stroke="#191919" stroke-width="0.35 px" style="stroke-width:0.35;stroke-miterlimit:4;stroke-dasharray:none;fill:none;fill-opacity:1;fill-rule: evenodd"/>
<path id="Shape2DView_nwe0061"  d="M -9.5 6.1 L -8.15 6.1 " stroke="#191919" stroke-width="0.35 px" style="stroke-width:0.35;stroke-miterlimit:4;stroke-dasharray:none;fill:none;fill-opacity:1;fill-rule: evenodd"/>
<path id="Shape2DView_nwe0062"  d="M -8.149999999999999 6.1 L -8.122008880974171 6.1 L -8.09436976651092 6.1 L -8.067430234511207 6.1 L -8.04152906522061 6.1 L -8.016991980871165 6.1 L -7.994127549535317 6.1 L -7.973223304703363 6.1 L -7.954542129382992 6.1 L -7.938318950192929 6.1 L -7.924757783024395 6.1 L -7.914029167422909 6.1 L -7.906268021954545 6.1 L -7.90157194752669 6.1 L -7.9 6.1 " stroke="#191919" stroke-width="0.35 px" style="stroke-width:0.35;stroke-miterlimit:4;stroke-dasharray:none;fill:none;fill-opacity:1;fill-rule: evenodd"/>
<path id="Shape2DView_nwe0064"  d="M -9.5 -4.8 L -8.15 -4.8 " stroke="#191919" stroke-width="0.35 px" style="stroke-width:0.35;stroke-miterlimit:4;stroke-dasharray:none;fill:none;fill-opacity:1;fill-rule: evenodd"/>
<path id="Shape2DView_nwe0065"  d="M -8.149999999999999 -4.8 L -8.122008880974171 -4.8 L -8.09436976651092 -4.8 L -8.067430234511207 -4.8 L -8.04152906522061 -4.8 L -8.016991980871165 -4.8 L -7.994127549535317 -4.8 L -7.973223304703363 -4.8 L -7.954542129382992 -4.8 L -7.938318950192929 -4.8 L -7.924757783024395 -4.8 L -7.914029167422909 -4.8 L -7.906268021954545 -4.8 L -7.90157194752669 -4.8 L -7.9 -4.8 " stroke="#191919" stroke-width="0.35 px" style="stroke-width:0.35;stroke-miterlimit:4;stroke-dasharray:none;fill:none;fill-opacity:1;fill-rule: evenodd"/>
<path id="Shape2DView_nwe0067"  d="M -9.5 -6.1 L -8.15 -6.1 " stroke="#191919" stroke-width="0.35 px" style="stroke-width:0.35;stroke-miterlimit:4;stroke-dasharray:none;fill:none;fill-opacity:1;fill-rule: evenodd"/>
<path id="Shape2DView_nwe0068"  d="M -8.149999999999999 -6.1 L -8.122008880974171 -6.1 L -8.09436976651092 -6.1 L -8.067430234511207 -6.1 L -8.04152906522061 -6.1 L -8.016991980871165 -6.1 L -7.994127549535317 -6.1 L -7.973223304703363 -6.1 L -7.954542129382992 -6.1 L -7.938318950192929 -6.1 L -7.924757783024395 -6.1 L -7.914029167422909 -6.1 L -7.906268021954545 -6.1 L -7.90157194752669 -6.1 L -7.9 -6.1 " stroke="#191919" stroke-width="0.35 px" style="stroke-width:0.35;stroke-miterlimit:4;stroke-dasharray:none;fill:none;fill-opacity:1;fill-rule: evenodd"/>
<path id="Shape2DView_nwe0069"  d="M -9.5 6.1 L -9.5 4.8 " stroke="#191919" stroke-width="0.35 px" style="stroke-width:0.35;stroke-miterlimit:4;stroke-dasharray:none;fill:none;fill-opacity:1;fill-rule: evenodd"/>
<path id="Shape2DView_nwe0070"  d="M -9.5 -4.8 L -9.5 -6.1 " stroke="#191919" stroke-width="0.35 px" style="stroke-width:0.35;stroke-miterlimit:4;stroke-dasharray:none;fill:none;fill-opacity:1;fill-rule: evenodd"/>
<path id="Shape2DView_nwe0071"  d="M -7.15 6.22 L -7.15 4.68 " stroke="#191919" stroke-width="0.35 px" style="stroke-width:0.35;stroke-miterlimit:4;stroke-dasharray:none;fill:none;fill-opacity:1;fill-rule: evenodd"/>
<path id="Shape2DView_nwe0072"  d="M -7.15 -4.68 L -7.15 -6.22 " stroke="#191919" stroke-width="0.35 px" style="stroke-width:0.35;stroke-miterlimit:4;stroke-dasharray:none;fill:none;fill-opacity:1;fill-rule: evenodd"/>
<path id="Shape2DView_nwe0073"  d="M -8.15 6.1 L -8.15 4.8 " stroke="#191919" stroke-width="0.35 px" style="stroke-width:0.35;stroke-miterlimit:4;stroke-dasharray:none;fill:none;fill-opacity:1;fill-rule: evenodd"/>
<path id="Shape2DView_nwe0074"  d="M -8.15 -4.8 L -8.15 -6.1 " stroke="#191919" stroke-width="0.35 px" style="stroke-width:0.35;stroke-miterlimit:4;stroke-dasharray:none;fill:none;fill-opacity:1;fill-rule: evenodd"/>
<title>b'Shape2DView'</title>
</g>
<g id="Rectangle" transform="translate(9.690000,8.140000) scale(1,-1)">
<rect fill="#ff0000" id="origin" width="1" height="1" x="0" y="0" />
<title>b'Rectangle'</title>
</g>
</svg>