<?xml version="1.0"?>
<!DOCTYPE svg PUBLIC "-//W3C//DTD SVG 1.1//EN" "http://www.w3.org/Graphics/SVG/1.1/DTD/svg11.dtd">
<svg width="10.098mm" height="6.69800000000057mm" viewBox="0 0 10.098 6.69800000000057" xmlns="http://www.w3.org/2000/svg" version="1.1">
<g id="Shape2DView" transform="translate(5.049000,3.349000) scale(1,-1)">
<path id="Shape2DView_nwe0000"  d="M -2.27 3.25 L -2.27 2.655 " stroke="#191919" stroke-width="0.35 px" style="stroke-width:0.35;stroke-miterlimit:4;stroke-dasharray:none;fill:none;fill-opacity:1;fill-rule: evenodd"/>
<path id="Shape2DView_nwe0001"  d="M -2.27 1.905 L -2.27 0.375 " stroke="#191919" stroke-width="0.35 px" style="stroke-width:0.35;stroke-miterlimit:4;stroke-dasharray:none;fill:none;fill-opacity:1;fill-rule: evenodd"/>
<path id="Shape2DView_nwe0002"  d="M -2.27 -0.375 L -2.27 -1.9050000000000002 " stroke="#191919" stroke-width="0.35 px" style="stroke-width:0.35;stroke-miterlimit:4;stroke-dasharray:none;fill:none;fill-opacity:1;fill-rule: evenodd"/>
<path id="Shape2DView_nwe0003"  d="M -2.27 -2.6549999999999994 L -2.27 -3.25 " stroke="#191919" stroke-width="0.35 px" style="stroke-width:0.35;stroke-miterlimit:4;stroke-dasharray:none;fill:none;fill-opacity:1;fill-rule: evenodd"/>
<path id="Shape2DView_nwe0004"  d="M 3.949999999999977 3.25 L 3.8388888888889166 3.25 " stroke="#191919" stroke-width="0.35 px" style="stroke-width:0.35;stroke-miterlimit:4;stroke-dasharray:none;fill:none;fill-opacity:1;fill-rule: evenodd"/>
<path id="Shape2DView_nwe0005"  d="M 3.838888888889 3.25 L -2.2700000000000005 3.25 " stroke="#191919" stroke-width="0.35 px" style="stroke-width:0.35;stroke-miterlimit:4;stroke-dasharray:none;fill:none;fill-opacity:1;fill-rule: evenodd"/>
<path id="Shape2DView_nwe0006"  d="M -1.77 2.75 L -1.77 -2.75 " stroke="#191919" stroke-width="0.35 px" style="stroke-width:0.35;stroke-miterlimit:4;stroke-dasharray:none;fill:none;fill-opacity:1;fill-rule: evenodd"/>
<path id="Shape2DView_nwe0007"  d="M -1.7699999999995308 -2.749999999999531 L -2.269999999999799 -3.249999999999799 " stroke="#191919" stroke-width="0.35 px" style="stroke-width:0.35;stroke-miterlimit:4;stroke-dasharray:none;fill:none;fill-opacity:1;fill-rule: evenodd"/>
<path id="Shape2DView_nwe0008"  d="M -1.7699999999999512 2.7499999999999516 L -2.270000000000219 3.2500000000002194 " stroke="#191919" stroke-width="0.35 px" style="stroke-width:0.35;stroke-miterlimit:4;stroke-dasharray:none;fill:none;fill-opacity:1;fill-rule: evenodd"/>
<path id="Shape2DView_nwe0009"  d="M -2.084325841818 -1.9050000000000002 L -2.084325841818 -2.655 " stroke="#191919" stroke-width="0.35 px" style="stroke-width:0.35;stroke-miterlimit:4;stroke-dasharray:none;fill:none;fill-opacity:1;fill-rule: evenodd"/>
<path id="Shape2DView_nwe0010"  d="M -2.084325841818 0.375 L -2.084325841818 -0.375 " stroke="#191919" stroke-width="0.35 px" style="stroke-width:0.35;stroke-miterlimit:4;stroke-dasharray:none;fill:none;fill-opacity:1;fill-rule: evenodd"/>
<path id="Shape2DView_nwe0011"  d="M -2.084325841818 2.655 L -2.084325841818 1.905 " stroke="#191919" stroke-width="0.35 px" style="stroke-width:0.35;stroke-miterlimit:4;stroke-dasharray:none;fill:none;fill-opacity:1;fill-rule: evenodd"/>
<path id="Shape2DView_nwe0012"  d="M -2.27 -3.25 L 3.838888888889 -3.25 " stroke="#191919" stroke-width="0.35 px" style="stroke-width:0.35;stroke-miterlimit:4;stroke-dasharray:none;fill:none;fill-opacity:1;fill-rule: evenodd"/>
<path id="Shape2DView_nwe0013"  d="M 3.950000000000355 -3.25 L 3.838888888889295 -3.25 " stroke="#191919" stroke-width="0.35 px" style="stroke-width:0.35;stroke-miterlimit:4;stroke-dasharray:none;fill:none;fill-opacity:1;fill-rule: evenodd"/>
<path id="Shape2DView_nwe0014"  d="M 3.4500000000000224 2.7500000000000533 L 3.838888888889113 3.250000000000532 " stroke="#191919" stroke-width="0.35 px" style="stroke-width:0.35;stroke-miterlimit:4;stroke-dasharray:none;fill:none;fill-opacity:1;fill-rule: evenodd"/>
<path id="Shape2DView_nwe0015"  d="M 3.45 2.75 L -1.7700000000000005 2.75 " stroke="#191919" stroke-width="0.35 px" style="stroke-width:0.35;stroke-miterlimit:4;stroke-dasharray:none;fill:none;fill-opacity:1;fill-rule: evenodd"/>
<path id="Shape2DView_nwe0016"  d="M 3.45 -2.75 L 3.45 2.75 " stroke="#191919" stroke-width="0.35 px" style="stroke-width:0.35;stroke-miterlimit:4;stroke-dasharray:none;fill:none;fill-opacity:1;fill-rule: evenodd"/>
<path id="Shape2DView_nwe0017"  d="M 3.4499999999999034 -2.749999999999558 L 3.838888888888994 -3.2500000000000373 " stroke="#191919" stroke-width="0.35 px" style="stroke-width:0.35;stroke-miterlimit:4;stroke-dasharray:none;fill:none;fill-opacity:1;fill-rule: evenodd"/>
<path id="Shape2DView_nwe0018"  d="M 3.95 -3.25 L 3.95 3.25 " stroke="#191919" stroke-width="0.35 px" style="stroke-width:0.35;stroke-miterlimit:4;stroke-dasharray:none;fill:none;fill-opacity:1;fill-rule: evenodd"/>
<path id="Shape2DView_nwe0019"  d="M -1.77 -2.75 L 3.4500000000000006 -2.75 " stroke="#191919" stroke-width="0.35 px" style="stroke-width:0.35;stroke-miterlimit:4;stroke-dasharray:none;fill:none;fill-opacity:1;fill-rule: evenodd"/>
<circle cx="-0.66" cy="1.063432015924e-17" r="0.5" stroke="#191919" stroke-width="0.35 px" style="stroke-width:0.35;stroke-miterlimit:4;stroke-dasharray:none;fill:none"/>
<path id="Shape2DView_nwe0021"  d="M -3.397701336216 -1.785 L -2.65 -1.785 " stroke="#191919" stroke-width="0.35 px" style="stroke-width:0.35;stroke-miterlimit:4;stroke-dasharray:none;fill:none;fill-opacity:1;fill-rule: evenodd"/>
<path id="Shape2DView_nwe0022"  d="M -3.397701336216 -2.775 L -2.65 -2.775 " stroke="#191919" stroke-width="0.35 px" style="stroke-width:0.35;stroke-miterlimit:4;stroke-dasharray:none;fill:none;fill-opacity:1;fill-rule: evenodd"/>
<path id="Shape2DView_nwe0023"  d="M -2.65 -2.775 L -2.65 -2.655 " stroke="#191919" stroke-width="0.35 px" style="stroke-width:0.35;stroke-miterlimit:4;stroke-dasharray:none;fill:none;fill-opacity:1;fill-rule: evenodd"/>
<path id="Shape2DView_nwe0024"  d="M -2.65 -2.655 L -2.084325841818 -2.655 " stroke="#191919" stroke-width="0.35 px" style="stroke-width:0.35;stroke-miterlimit:4;stroke-dasharray:none;fill:none;fill-opacity:1;fill-rule: evenodd"/>
<path id="Shape2DView_nwe0025"  d="M -2.65 -1.905 L -2.084325841818 -1.905 " stroke="#191919" stroke-width="0.35 px" style="stroke-width:0.35;stroke-miterlimit:4;stroke-dasharray:none;fill:none;fill-opacity:1;fill-rule: evenodd"/>
<path id="Shape2DView_nwe0026"  d="M -2.65 -1.9050000000000002 L -2.65 -1.7850000000000001 " stroke="#191919" stroke-width="0.35 px" style="stroke-width:0.35;stroke-miterlimit:4;stroke-dasharray:none;fill:none;fill-opacity:1;fill-rule: evenodd"/>
<path id="Shape2DView_nwe0027"  d="M -2.65 0.375 L -2.084325841818 0.375 " stroke="#191919" stroke-width="0.35 px" style="stroke-width:0.35;stroke-miterlimit:4;stroke-dasharray:none;fill:none;fill-opacity:1;fill-rule: evenodd"/>
<path id="Shape2DView_nwe0028"  d="M -3.07 0.495 L -2.65 0.495 " stroke="#191919" stroke-width="0.35 px" style="stroke-width:0.35;stroke-miterlimit:4;stroke-dasharray:none;fill:none;fill-opacity:1;fill-rule: evenodd"/>
<path id="Shape2DView_nwe0029"  d="M -3.07 0.49499999999999994 L -3.07 -0.495 " stroke="#191919" stroke-width="0.35 px" style="stroke-width:0.35;stroke-miterlimit:4;stroke-dasharray:none;fill:none;fill-opacity:1;fill-rule: evenodd"/>
<path id="Shape2DView_nwe0030"  d="M -3.07 -0.495 L -2.65 -0.495 " stroke="#191919" stroke-width="0.35 px" style="stroke-width:0.35;stroke-miterlimit:4;stroke-dasharray:none;fill:none;fill-opacity:1;fill-rule: evenodd"/>
<path id="Shape2DView_nwe0031"  d="M -2.65 -0.4950000000000001 L -2.65 -0.375 " stroke="#191919" stroke-width="0.35 px" style="stroke-width:0.35;stroke-miterlimit:4;stroke-dasharray:none;fill:none;fill-opacity:1;fill-rule: evenodd"/>
<path id="Shape2DView_nwe0032"  d="M -2.65 -0.375 L -2.084325841818 -0.375 " stroke="#191919" stroke-width="0.35 px" style="stroke-width:0.35;stroke-miterlimit:4;stroke-dasharray:none;fill:none;fill-opacity:1;fill-rule: evenodd"/>
<path id="Shape2DView_nwe0033"  d="M -2.65 0.375 L -2.65 0.4950000000000001 " stroke="#191919" stroke-width="0.35 px" style="stroke-width:0.35;stroke-miterlimit:4;stroke-dasharray:none;fill:none;fill-opacity:1;fill-rule: evenodd"/>
<path id="Shape2DView_nwe0034"  d="M -2.65 2.655 L -2.084325841818 2.655 " stroke="#191919" stroke-width="0.35 px" style="stroke-width:0.35;stroke-miterlimit:4;stroke-dasharray:none;fill:none;fill-opacity:1;fill-rule: evenodd"/>
<path id="Shape2DView_nwe0035"  d="M -3.397701336216 2.775 L -2.65 2.775 " stroke="#191919" stroke-width="0.35 px" style="stroke-width:0.35;stroke-miterlimit:4;stroke-dasharray:none;fill:none;fill-opacity:1;fill-rule: evenodd"/>
<path id="Shape2DView_nwe0036"  d="M -3.397701336216 1.785 L -2.65 1.785 " stroke="#191919" stroke-width="0.35 px" style="stroke-width:0.35;stroke-miterlimit:4;stroke-dasharray:none;fill:none;fill-opacity:1;fill-rule: evenodd"/>
<path id="Shape2DView_nwe0037"  d="M -2.65 1.785 L -2.65 1.905 " stroke="#191919" stroke-width="0.35 px" style="stroke-width:0.35;stroke-miterlimit:4;stroke-dasharray:none;fill:none;fill-opacity:1;fill-rule: evenodd"/>
<path id="Shape2DView_nwe0038"  d="M -2.65 1.905 L -2.084325841818 1.905 " stroke="#191919" stroke-width="0.35 px" style="stroke-width:0.35;stroke-miterlimit:4;stroke-dasharray:none;fill:none;fill-opacity:1;fill-rule: evenodd"/>
<path id="Shape2DView_nwe0039"  d="M -2.65 2.655 L -2.65 2.775 " stroke="#191919" stroke-width="0.35 px" style="stroke-width:0.35;stroke-miterlimit:4;stroke-dasharray:none;fill:none;fill-opacity:1;fill-rule: evenodd"/>
<path id="Shape2DView_nwe0040"  d="M 4.91 -2.7 L 3.95 -2.7 " stroke="#191919" stroke-width="0.35 px" style="stroke-width:0.35;stroke-miterlimit:4;stroke-dasharray:none;fill:none;fill-opacity:1;fill-rule: evenodd"/>
<path id="Shape2DView_nwe0041"  d="M 4.91 2.7 A 0.04 0.04 0 0 0 4.95 2.66" stroke="#191919" stroke-width="0.35 px" style="stroke-width:0.35;stroke-miterlimit:4;stroke-dasharray:none;fill:none;fill-opacity:1;fill-rule: evenodd"/>
<path id="Shape2DView_nwe0042"  d="M 4.95 2.66 L 4.95 1.97 " stroke="#191919" stroke-width="0.35 px" style="stroke-width:0.35;stroke-miterlimit:4;stroke-dasharray:none;fill:none;fill-opacity:1;fill-rule: evenodd"/>
<path id="Shape2DView_nwe0043"  d="M 4.87 1.89 A 0.08 0.08 0 0 0 4.95 1.97" stroke="#191919" stroke-width="0.35 px" style="stroke-width:0.35;stroke-miterlimit:4;stroke-dasharray:none;fill:none;fill-opacity:1;fill-rule: evenodd"/>
<path id="Shape2DView_nwe0044"  d="M 4.87 1.89 L 4.87 -1.89 " stroke="#191919" stroke-width="0.35 px" style="stroke-width:0.35;stroke-miterlimit:4;stroke-dasharray:none;fill:none;fill-opacity:1;fill-rule: evenodd"/>
<path id="Shape2DView_nwe0045"  d="M 4.95 -1.97 A 0.08 0.08 0 0 0 4.87 -1.89" stroke="#191919" stroke-width="0.35 px" style="stroke-width:0.35;stroke-miterlimit:4;stroke-dasharray:none;fill:none;fill-opacity:1;fill-rule: evenodd"/>
<path id="Shape2DView_nwe0046"  d="M 4.95 -1.97 L 4.95 -2.66 " stroke="#191919" stroke-width="0.35 px" style="stroke-width:0.35;stroke-miterlimit:4;stroke-dasharray:none;fill:none;fill-opacity:1;fill-rule: evenodd"/>
<path id="Shape2DView_nwe0047"  d="M 4.91 -2.7 A 0.04 0.04 0 0 1 4.95 -2.66" stroke="#191919" stroke-width="0.35 px" style="stroke-width:0.35;stroke-miterlimit:4;stroke-dasharray:none;fill:none;fill-opacity:1;fill-rule: evenodd"/>
<path id="Shape2DView_nwe0048"  d="M 3.95 2.7 L 4.91 2.7 " stroke="#191919" stroke-width="0.35 px" style="stroke-width:0.35;stroke-miterlimit:4;stroke-dasharray:none;fill:none;fill-opacity:1;fill-rule: evenodd"/>
<path id="Shape2DView_nwe0049"  d="M -3.3999999999999986 -1.785 L -3.3998358101900514 -1.785 L -3.399671620277807 -1.785 L -3.399507430271134 -1.785 L -3.3993432401779016 -1.785 L -3.399179050005979 -1.785 L -3.399014859763235 -1.785 L -3.3988506694575387 -1.785 L -3.3986864790967592 -1.785 L -3.3985222886887656 -1.785 L -3.3983580982414265 -1.785 L -3.3981939077626113 -1.785 L -3.398029717260189 -1.785 L -3.397865526742029 -1.785 L -3.397701336216 -1.785 " stroke="#191919" stroke-width="0.35 px" style="stroke-width:0.35;stroke-miterlimit:4;stroke-dasharray:none;fill:none;fill-opacity:1;fill-rule: evenodd"/>
<path id="Shape2DView_nwe0050"  d="M -3.3999999999999986 -2.775 L -3.3998358101900514 -2.775 L -3.399671620277807 -2.775 L -3.399507430271134 -2.775 L -3.3993432401779016 -2.775 L -3.399179050005979 -2.775 L -3.399014859763235 -2.775 L -3.3988506694575387 -2.775 L -3.3986864790967592 -2.775 L -3.3985222886887656 -2.775 L -3.3983580982414265 -2.775 L -3.3981939077626113 -2.775 L -3.398029717260189 -2.775 L -3.397865526742029 -2.775 L -3.397701336216 -2.775 " stroke="#191919" stroke-width="0.35 px" style="stroke-width:0.35;stroke-miterlimit:4;stroke-dasharray:none;fill:none;fill-opacity:1;fill-rule: evenodd"/>
<path id="Shape2DView_nwe0051"  d="M -3.4 -2.775 L -3.4 -2.655 " stroke="#191919" stroke-width="0.35 px" style="stroke-width:0.35;stroke-miterlimit:4;stroke-dasharray:none;fill:none;fill-opacity:1;fill-rule: evenodd"/>
<path id="Shape2DView_nwe0052"  d="M -3.4 -1.905 L -3.4 -1.785 " stroke="#191919" stroke-width="0.35 px" style="stroke-width:0.35;stroke-miterlimit:4;stroke-dasharray:none;fill:none;fill-opacity:1;fill-rule: evenodd"/>
<path id="Shape2DView_nwe0053"  d="M -4.102470801805359 -1.905 L -4.077501550119627 -1.905 L -4.047384517318278 -1.905 L -4.0123477643662016 -1.905 L -3.972656606765672 -1.905 L -3.9286116054570575 -1.905 L -3.8805462908237502 -1.905 L -3.828824637036287 -1.905 L -3.773838305861153 -1.905 L -3.7160036808055192 -1.905 L -3.6557587140568093 -1.905 L -3.593559610093629 -1.905 L -3.5298773710813807 -1.905 L -3.4651942302125267 -1.905 L -3.3999999999999986 -1.905 " stroke="#191919" stroke-width="0.35 px" style="stroke-width:0.35;stroke-miterlimit:4;stroke-dasharray:none;fill:none;fill-opacity:1;fill-rule: evenodd"/>
<path id="Shape2DView_nwe0054"  d="M -4.102470801805359 -2.655 L -4.077501550119627 -2.655 L -4.047384517318278 -2.655 L -4.0123477643662016 -2.655 L -3.972656606765672 -2.655 L -3.9286116054570575 -2.655 L -3.8805462908237502 -2.655 L -3.828824637036287 -2.655 L -3.773838305861153 -2.655 L -3.7160036808055192 -2.655 L -3.6557587140568093 -2.655 L -3.593559610093629 -2.655 L -3.5298773710813807 -2.655 L -3.4651942302125267 -2.655 L -3.3999999999999986 -2.655 " stroke="#191919" stroke-width="0.35 px" style="stroke-width:0.35;stroke-miterlimit:4;stroke-dasharray:none;fill:none;fill-opacity:1;fill-rule: evenodd"/>
<path id="Shape2DView_nwe0055"  d="M -3.3999999999999986 2.775 L -3.3998358101900514 2.775 L -3.399671620277807 2.775 L -3.399507430271134 2.775 L -3.3993432401779016 2.775 L -3.399179050005979 2.775 L -3.399014859763235 2.775 L -3.3988506694575387 2.775 L -3.3986864790967592 2.775 L -3.3985222886887656 2.775 L -3.3983580982414265 2.775 L -3.3981939077626113 2.775 L -3.398029717260189 2.775 L -3.397865526742029 2.775 L -3.397701336216 2.775 " stroke="#191919" stroke-width="0.35 px" style="stroke-width:0.35;stroke-miterlimit:4;stroke-dasharray:none;fill:none;fill-opacity:1;fill-rule: evenodd"/>
<path id="Shape2DView_nwe0056"  d="M -3.3999999999999986 1.785 L -3.3998358101900514 1.785 L -3.399671620277807 1.785 L -3.399507430271134 1.785 L -3.3993432401779016 1.785 L -3.399179050005979 1.785 L -3.399014859763235 1.785 L -3.3988506694575387 1.785 L -3.3986864790967592 1.785 L -3.3985222886887656 1.785 L -3.3983580982414265 1.785 L -3.3981939077626113 1.785 L -3.398029717260189 1.785 L -3.397865526742029 1.785 L -3.397701336216 1.785 " stroke="#191919" stroke-width="0.35 px" style="stroke-width:0.35;stroke-miterlimit:4;stroke-dasharray:none;fill:none;fill-opacity:1;fill-rule: evenodd"/>
<path id="Shape2DView_nwe0057"  d="M -3.4 1.785 L -3.4 1.905 " stroke="#191919" stroke-width="0.35 px" style="stroke-width:0.35;stroke-miterlimit:4;stroke-dasharray:none;fill:none;fill-opacity:1;fill-rule: evenodd"/>
<path id="Shape2DView_nwe0058"  d="M -3.4 2.655 L -3.4 2.775 " stroke="#191919" stroke-width="0.35 px" style="stroke-width:0.35;stroke-miterlimit:4;stroke-dasharray:none;fill:none;fill-opacity:1;fill-rule: evenodd"/>
<path id="Shape2DView_nwe0059"  d="M -4.102470801805359 2.655 L -4.077501550119627 2.655 L -4.047384517318278 2.655 L -4.0123477643662016 2.655 L -3.972656606765672 2.655 L -3.9286116054570575 2.655 L -3.8805462908237502 2.655 L -3.828824637036287 2.655 L -3.773838305861153 2.655 L -3.7160036808055192 2.655 L -3.6557587140568093 2.655 L -3.593559610093629 2.655 L -3.5298773710813807 2.655 L -3.4651942302125267 2.655 L -3.3999999999999986 2.655 " stroke="#191919" stroke-width="0.35 px" style="stroke-width:0.35;stroke-miterlimit:4;stroke-dasharray:none;fill:none;fill-opacity:1;fill-rule: evenodd"/>
<path id="Shape2DView_nwe0060"  d="M -4.102470801805359 1.905 L -4.077501550119627 1.905 L -4.047384517318278 1.905 L -4.0123477643662016 1.905 L -3.972656606765672 1.905 L -3.9286116054570575 1.905 L -3.8805462908237502 1.905 L -3.828824637036287 1.905 L -3.773838305861153 1.905 L -3.7160036808055192 1.905 L -3.6557587140568093 1.905 L -3.593559610093629 1.905 L -3.5298773710813807 1.905 L -3.4651942302125267 1.905 L -3.3999999999999986 1.905 " stroke="#191919" stroke-width="0.35 px" style="stroke-width:0.35;stroke-miterlimit:4;stroke-dasharray:none;fill:none;fill-opacity:1;fill-rule: evenodd"/>
<path id="Shape2DView_nwe0061"  d="M -4.95 -1.905 L -4.44 -1.905 " stroke="#191919" stroke-width="0.35 px" style="stroke-width:0.35;stroke-miterlimit:4;stroke-dasharray:none;fill:none;fill-opacity:1;fill-rule: evenodd"/>
<path id="Shape2DView_nwe0062"  d="M -4.44 -1.905 L -4.41821106431307 -1.905 L -4.396587955583236 -1.905 L -4.3752952387243225 -1.905 L -4.354494964168522 -1.905 L -4.334345434564751 -1.905 L -4.314999999999915 -1.905 L -4.296605890912145 -1.905 L -4.279303097578265 -1.905 L -4.263223304703259 -1.905 L -4.248488889220151 -1.905 L -4.23521198892765 -1.905 L -4.223493649053792 -1.905 L -4.213423053240748 -1.905 L -4.205076844803445 -1.905 " stroke="#191919" stroke-width="0.35 px" style="stroke-width:0.35;stroke-miterlimit:4;stroke-dasharray:none;fill:none;fill-opacity:1;fill-rule: evenodd"/>
<path id="Shape2DView_nwe0063"  d="M -4.205076844804 -1.905 L -4.102470801806434 -1.905 " stroke="#191919" stroke-width="0.35 px" style="stroke-width:0.35;stroke-miterlimit:4;stroke-dasharray:none;fill:none;fill-opacity:1;fill-rule: evenodd"/>
<path id="Shape2DView_nwe0064"  d="M -4.205076844804 -2.655 L -4.102470801806434 -2.655 " stroke="#191919" stroke-width="0.35 px" style="stroke-width:0.35;stroke-miterlimit:4;stroke-dasharray:none;fill:none;fill-opacity:1;fill-rule: evenodd"/>
<path id="Shape2DView_nwe0065"  d="M -4.95 -2.655 L -4.44 -2.655 " stroke="#191919" stroke-width="0.35 px" style="stroke-width:0.35;stroke-miterlimit:4;stroke-dasharray:none;fill:none;fill-opacity:1;fill-rule: evenodd"/>
<path id="Shape2DView_nwe0066"  d="M -4.44 -2.655 L -4.41821106431307 -2.655 L -4.396587955583236 -2.655 L -4.3752952387243225 -2.655 L -4.354494964168522 -2.655 L -4.334345434564751 -2.655 L -4.314999999999915 -2.655 L -4.296605890912145 -2.655 L -4.279303097578265 -2.655 L -4.263223304703259 -2.655 L -4.248488889220151 -2.655 L -4.23521198892765 -2.655 L -4.223493649053792 -2.655 L -4.213423053240748 -2.655 L -4.205076844803445 -2.655 " stroke="#191919" stroke-width="0.35 px" style="stroke-width:0.35;stroke-miterlimit:4;stroke-dasharray:none;fill:none;fill-opacity:1;fill-rule: evenodd"/>
<path id="Shape2DView_nwe0067"  d="M -4.95 1.905 L -4.44 1.905 " stroke="#191919" stroke-width="0.35 px" style="stroke-width:0.35;stroke-miterlimit:4;stroke-dasharray:none;fill:none;fill-opacity:1;fill-rule: evenodd"/>
<path id="Shape2DView_nwe0068"  d="M -4.44 1.905 L -4.41821106431307 1.905 L -4.396587955583236 1.905 L -4.3752952387243225 1.905 L -4.354494964168522 1.905 L -4.334345434564751 1.905 L -4.314999999999915 1.905 L -4.296605890912145 1.905 L -4.279303097578265 1.905 L -4.263223304703259 1.905 L -4.248488889220151 1.905 L -4.23521198892765 1.905 L -4.223493649053792 1.905 L -4.213423053240748 1.905 L -4.205076844803445 1.905 " stroke="#191919" stroke-width="0.35 px" style="stroke-width:0.35;stroke-miterlimit:4;stroke-dasharray:none;fill:none;fill-opacity:1;fill-rule: evenodd"/>
<path id="Shape2DView_nwe0069"  d="M -4.205076844804 1.905 L -4.102470801806434 1.905 " stroke="#191919" stroke-width="0.35 px" style="stroke-width:0.35;stroke-miterlimit:4;stroke-dasharray:none;fill:none;fill-opacity:1;fill-rule: evenodd"/>
<path id="Shape2DView_nwe0070"  d="M -4.95 2.655 L -4.44 2.655 " stroke="#191919" stroke-width="0.35 px" style="stroke-width:0.35;stroke-miterlimit:4;stroke-dasharray:none;fill:none;fill-opacity:1;fill-rule: evenodd"/>
<path id="Shape2DView_nwe0071"  d="M -4.44 2.655 L -4.41821106431307 2.655 L -4.396587955583236 2.655 L -4.3752952387243225 2.655 L -4.354494964168522 2.655 L -4.334345434564751 2.655 L -4.314999999999915 2.655 L -4.296605890912145 2.655 L -4.279303097578265 2.655 L -4.263223304703259 2.655 L -4.248488889220151 2.655 L -4.23521198892765 2.655 L -4.223493649053792 2.655 L -4.213423053240748 2.655 L -4.205076844803445 2.655 " stroke="#191919" stroke-width="0.35 px" style="stroke-width:0.35;stroke-miterlimit:4;stroke-dasharray:none;fill:none;fill-opacity:1;fill-rule: evenodd"/>
<path id="Shape2DView_nwe0072"  d="M -4.205076844804 2.655 L -4.102470801806434 2.655 " stroke="#191919" stroke-width="0.35 px" style="stroke-width:0.35;stroke-miterlimit:4;stroke-dasharray:none;fill:none;fill-opacity:1;fill-rule: evenodd"/>
<path id="Shape2DView_nwe0073"  d="M -4.95 -1.905 L -4.95 -2.655 " stroke="#191919" stroke-width="0.35 px" style="stroke-width:0.35;stroke-miterlimit:4;stroke-dasharray:none;fill:none;fill-opacity:1;fill-rule: evenodd"/>
<path id="Shape2DView_nwe0074"  d="M -4.95 2.655 L -4.95 1.905 " stroke="#191919" stroke-width="0.35 px" style="stroke-width:0.35;stroke-miterlimit:4;stroke-dasharray:none;fill:none;fill-opacity:1;fill-rule: evenodd"/>
<path id="Shape2DView_nwe0075"  d="M -3.397701336216 -1.785 L -3.397701336216 -2.775 " stroke="#191919" stroke-width="0.35 px" style="stroke-width:0.35;stroke-miterlimit:4;stroke-dasharray:none;fill:none;fill-opacity:1;fill-rule: evenodd"/>
<path id="Shape2DView_nwe0076"  d="M -3.397701336216 2.775 L -3.397701336216 1.785 " stroke="#191919" stroke-width="0.35 px" style="stroke-width:0.35;stroke-miterlimit:4;stroke-dasharray:none;fill:none;fill-opacity:1;fill-rule: evenodd"/>
<path id="Shape2DView_nwe0077"  d="M -4.102470801806 -1.905 L -4.102470801806 -2.655 " stroke="#191919" stroke-width="0.35 px" style="stroke-width:0.35;stroke-miterlimit:4;stroke-dasharray:none;fill:none;fill-opacity:1;fill-rule: evenodd"/>
<path id="Shape2DView_nwe0078"  d="M -4.102470801806 2.655 L -4.102470801806 1.905 " stroke="#191919" stroke-width="0.35 px" style="stroke-width:0.35;stroke-miterlimit:4;stroke-dasharray:none;fill:none;fill-opacity:1;fill-rule: evenodd"/>
<path id="Shape2DView_nwe0079"  d="M -4.205076844804 -1.905 L -4.205076844804 -2.655 " stroke="#191919" stroke-width="0.35 px" style="stroke-width:0.35;stroke-miterlimit:4;stroke-dasharray:none;fill:none;fill-opacity:1;fill-rule: evenodd"/>
<path id="Shape2DView_nwe0080"  d="M -4.205076844804 2.655 L -4.205076844804 1.905 " stroke="#191919" stroke-width="0.35 px" style="stroke-width:0.35;stroke-miterlimit:4;stroke-dasharray:none;fill:none;fill-opacity:1;fill-rule: evenodd"/>
<path id="Shape2DView_nwe0081"  d="M -4.44 -1.905 L -4.44 -2.655 " stroke="#191919" stroke-width="0.35 px" style="stroke-width:0.35;stroke-miterlimit:4;stroke-dasharray:none;fill:none;fill-opacity:1;fill-rule: evenodd"/>
<path id="Shape2DView_nwe0082"  d="M -4.44 2.655 L -4.44 1.905 " stroke="#191919" stroke-width="0.35 px" style="stroke-width:0.35;stroke-miterlimit:4;stroke-dasharray:none;fill:none;fill-opacity:1;fill-rule: evenodd"/>
<title>b'Shape2DView'</title>
</g>
<g id="Rectangle" transform="translate(5.049000,3.349000) scale(1,-1)">
<rect fill="#ff0000" id="origin" width="1" height="1" x="0" y="0" />
<title>b'Rectangle'</title>
</g>
</svg>