<?xml version="1.0"?>
<!DOCTYPE svg PUBLIC "-//W3C//DTD SVG 1.1//EN" "http://www.w3.org/Graphics/SVG/1.1/DTD/svg11.dtd">
<svg width="9.131040000000002mm" height="12.99904mm" viewBox="0 0 9.131040000000002 12.99904" xmlns="http://www.w3.org/2000/svg" version="1.1">
<g id="Shape2DView" transform="translate(4.565520,6.499520) scale(1,-1)">
<path id="Shape2DView_nwe0000"  d="M 3.06 -6.41 L 3.0599999999999987 -5.54 " stroke="#191919" stroke-width="0.35 px" style="stroke-width:0.35;stroke-miterlimit:4;stroke-dasharray:none;fill:none;fill-opacity:1;fill-rule: evenodd"/>
<path id="Shape2DView_nwe0001"  d="M 3.059999999999984 5.539999999999999 L 3.059999999999983 6.41 " stroke="#191919" stroke-width="0.35 px" style="stroke-width:0.35;stroke-miterlimit:4;stroke-dasharray:none;fill:none;fill-opacity:1;fill-rule: evenodd"/>
<path id="Shape2DView_nwe0002"  d="M 3.059999999999998 -4.62 L 3.0599999999999956 -3.0 " stroke="#191919" stroke-width="0.35 px" style="stroke-width:0.35;stroke-miterlimit:4;stroke-dasharray:none;fill:none;fill-opacity:1;fill-rule: evenodd"/>
<path id="Shape2DView_nwe0003"  d="M 3.0599999999999876 3.0 L 3.0599999999999854 4.620000000000001 " stroke="#191919" stroke-width="0.35 px" style="stroke-width:0.35;stroke-miterlimit:4;stroke-dasharray:none;fill:none;fill-opacity:1;fill-rule: evenodd"/>
<path id="Shape2DView_nwe0004"  d="M 3.0599999999999943 -2.08 L 3.059999999999992 -0.45999999999999996 " stroke="#191919" stroke-width="0.35 px" style="stroke-width:0.35;stroke-miterlimit:4;stroke-dasharray:none;fill:none;fill-opacity:1;fill-rule: evenodd"/>
<path id="Shape2DView_nwe0005"  d="M 3.0599999999999907 0.45999999999999996 L 3.059999999999989 2.08 " stroke="#191919" stroke-width="0.35 px" style="stroke-width:0.35;stroke-miterlimit:4;stroke-dasharray:none;fill:none;fill-opacity:1;fill-rule: evenodd"/>
<path id="Shape2DView_nwe0006"  d="M 3.06 6.41 L -3.06 6.409999999999992 " stroke="#191919" stroke-width="0.35 px" style="stroke-width:0.35;stroke-miterlimit:4;stroke-dasharray:none;fill:none;fill-opacity:1;fill-rule: evenodd"/>
<path id="Shape2DView_nwe0007"  d="M -3.06 6.41 L -3.0599999999999987 5.54 " stroke="#191919" stroke-width="0.35 px" style="stroke-width:0.35;stroke-miterlimit:4;stroke-dasharray:none;fill:none;fill-opacity:1;fill-rule: evenodd"/>
<path id="Shape2DView_nwe0008"  d="M -3.059999999999984 -5.539999999999999 L -3.059999999999983 -6.41 " stroke="#191919" stroke-width="0.35 px" style="stroke-width:0.35;stroke-miterlimit:4;stroke-dasharray:none;fill:none;fill-opacity:1;fill-rule: evenodd"/>
<path id="Shape2DView_nwe0009"  d="M -3.059999999999998 4.62 L -3.0599999999999956 3.0 " stroke="#191919" stroke-width="0.35 px" style="stroke-width:0.35;stroke-miterlimit:4;stroke-dasharray:none;fill:none;fill-opacity:1;fill-rule: evenodd"/>
<path id="Shape2DView_nwe0010"  d="M -3.0599999999999876 -3.0 L -3.0599999999999854 -4.620000000000001 " stroke="#191919" stroke-width="0.35 px" style="stroke-width:0.35;stroke-miterlimit:4;stroke-dasharray:none;fill:none;fill-opacity:1;fill-rule: evenodd"/>
<path id="Shape2DView_nwe0011"  d="M -3.0599999999999943 2.08 L -3.059999999999992 0.45999999999999996 " stroke="#191919" stroke-width="0.35 px" style="stroke-width:0.35;stroke-miterlimit:4;stroke-dasharray:none;fill:none;fill-opacity:1;fill-rule: evenodd"/>
<path id="Shape2DView_nwe0012"  d="M -3.0599999999999907 -0.45999999999999996 L -3.059999999999989 -2.08 " stroke="#191919" stroke-width="0.35 px" style="stroke-width:0.35;stroke-miterlimit:4;stroke-dasharray:none;fill:none;fill-opacity:1;fill-rule: evenodd"/>
<path id="Shape2DView_nwe0013"  d="M -3.06 -6.41 L 3.06 -6.409999999999992 " stroke="#191919" stroke-width="0.35 px" style="stroke-width:0.35;stroke-miterlimit:4;stroke-dasharray:none;fill:none;fill-opacity:1;fill-rule: evenodd"/>
<path id="Shape2DView_nwe0014"  d="M 3.06 -6.41 L 2.985 -6.335 " stroke="#191919" stroke-width="0.35 px" style="stroke-width:0.35;stroke-miterlimit:4;stroke-dasharray:none;fill:none;fill-opacity:1;fill-rule: evenodd"/>
<path id="Shape2DView_nwe0015"  d="M 2.985 -6.335 L 2.984999999999999 -5.54 " stroke="#191919" stroke-width="0.35 px" style="stroke-width:0.35;stroke-miterlimit:4;stroke-dasharray:none;fill:none;fill-opacity:1;fill-rule: evenodd"/>
<path id="Shape2DView_nwe0016"  d="M 3.8099999999999996 -5.54 L 3.810798549343558 -5.54 L 3.8131841551529084 -5.54 L 3.8171268170508372 -5.54 L 3.8225769537763927 -5.54 L 3.829466026698008 -5.54 L 3.83770740172656 -5.54 L 3.8471974387893084 -5.54 L 3.8578167951639406 -5.54 L 3.869431926282552 -5.54 L 3.88189676513207 -5.54 L 3.8950545591316934 -5.54 L 3.908739841387548 -5.54 L 3.9227805115348797 -5.54 L 3.937 -5.54 " stroke="#191919" stroke-width="0.35 px" style="stroke-width:0.35;stroke-miterlimit:4;stroke-dasharray:none;fill:none;fill-opacity:1;fill-rule: evenodd"/>
<path id="Shape2DView_nwe0017"  d="M 3.429 -5.54 L 3.47165846539536 -5.54 L 3.5137804758373554 -5.54 L 3.5548363226049187 -5.54 L 3.5943097046037895 -5.54 L 3.631704221152343 -5.54 L 3.6665496145081775 -5.54 L 3.6984076836320745 -5.54 L 3.7268777948203193 -5.54 L 3.7516019199059762 -5.54 L 3.7722691386708216 -5.54 L 3.788619548847488 -5.54 L 3.8004475345412745 -5.539999999999999 L 3.8076043519693252 -5.539999999999999 L 3.8099999999999996 -5.539999999999999 " stroke="#191919" stroke-width="0.35 px" style="stroke-width:0.35;stroke-miterlimit:4;stroke-dasharray:none;fill:none;fill-opacity:1;fill-rule: evenodd"/>
<path id="Shape2DView_nwe0018"  d="M 3.0600000000000005 -5.5399999999999965 L 3.4290000000000003 -5.539999999999996 " stroke="#191919" stroke-width="0.35 px" style="stroke-width:0.35;stroke-miterlimit:4;stroke-dasharray:none;fill:none;fill-opacity:1;fill-rule: evenodd"/>
<path id="Shape2DView_nwe0019"  d="M 4.476 -5.54 L 3.937 -5.540000000000001 " stroke="#191919" stroke-width="0.35 px" style="stroke-width:0.35;stroke-miterlimit:4;stroke-dasharray:none;fill:none;fill-opacity:1;fill-rule: evenodd"/>
<path id="Shape2DView_nwe0020"  d="M 3.8099999999999996 5.54 L 3.810798549343558 5.54 L 3.8131841551529084 5.54 L 3.8171268170508372 5.54 L 3.8225769537763927 5.54 L 3.829466026698008 5.54 L 3.83770740172656 5.54 L 3.8471974387893084 5.54 L 3.8578167951639406 5.54 L 3.869431926282552 5.54 L 3.88189676513207 5.54 L 3.8950545591316934 5.54 L 3.908739841387548 5.54 L 3.9227805115348797 5.54 L 3.937 5.54 " stroke="#191919" stroke-width="0.35 px" style="stroke-width:0.35;stroke-miterlimit:4;stroke-dasharray:none;fill:none;fill-opacity:1;fill-rule: evenodd"/>
<path id="Shape2DView_nwe0021"  d="M 3.937 5.540000000000001 L 4.476 5.540000000000001 " stroke="#191919" stroke-width="0.35 px" style="stroke-width:0.35;stroke-miterlimit:4;stroke-dasharray:none;fill:none;fill-opacity:1;fill-rule: evenodd"/>
<path id="Shape2DView_nwe0022"  d="M 3.429 5.539999999999999 L 3.06 5.539999999999999 " stroke="#191919" stroke-width="0.35 px" style="stroke-width:0.35;stroke-miterlimit:4;stroke-dasharray:none;fill:none;fill-opacity:1;fill-rule: evenodd"/>
<path id="Shape2DView_nwe0023"  d="M 3.429 5.54 L 3.47165846539536 5.54 L 3.5137804758373554 5.54 L 3.5548363226049187 5.54 L 3.5943097046037895 5.54 L 3.631704221152343 5.54 L 3.666549614508177 5.54 L 3.6984076836320745 5.54 L 3.7268777948203193 5.54 L 3.7516019199059762 5.54 L 3.7722691386708216 5.54 L 3.788619548847488 5.54 L 3.8004475345412745 5.540000000000001 L 3.8076043519693252 5.540000000000001 L 3.8099999999999996 5.540000000000001 " stroke="#191919" stroke-width="0.35 px" style="stroke-width:0.35;stroke-miterlimit:4;stroke-dasharray:none;fill:none;fill-opacity:1;fill-rule: evenodd"/>
<path id="Shape2DView_nwe0024"  d="M 3.06 6.41 L 2.985 6.335 " stroke="#191919" stroke-width="0.35 px" style="stroke-width:0.35;stroke-miterlimit:4;stroke-dasharray:none;fill:none;fill-opacity:1;fill-rule: evenodd"/>
<path id="Shape2DView_nwe0025"  d="M 2.984999999999984 5.54 L 2.984999999999983 6.335 " stroke="#191919" stroke-width="0.35 px" style="stroke-width:0.35;stroke-miterlimit:4;stroke-dasharray:none;fill:none;fill-opacity:1;fill-rule: evenodd"/>
<path id="Shape2DView_nwe0026"  d="M 3.8099999999999996 -4.62 L 3.810798549343558 -4.62 L 3.8131841551529084 -4.62 L 3.8171268170508372 -4.62 L 3.8225769537763927 -4.62 L 3.829466026698008 -4.62 L 3.83770740172656 -4.62 L 3.8471974387893084 -4.62 L 3.8578167951639406 -4.62 L 3.869431926282552 -4.62 L 3.88189676513207 -4.62 L 3.8950545591316934 -4.62 L 3.908739841387548 -4.62 L 3.9227805115348797 -4.62 L 3.937 -4.62 " stroke="#191919" stroke-width="0.35 px" style="stroke-width:0.35;stroke-miterlimit:4;stroke-dasharray:none;fill:none;fill-opacity:1;fill-rule: evenodd"/>
<path id="Shape2DView_nwe0027"  d="M 3.937 -4.619999999999999 L 4.476 -4.619999999999999 " stroke="#191919" stroke-width="0.35 px" style="stroke-width:0.35;stroke-miterlimit:4;stroke-dasharray:none;fill:none;fill-opacity:1;fill-rule: evenodd"/>
<path id="Shape2DView_nwe0028"  d="M 3.429 -4.62 L 3.06 -4.620000000000001 " stroke="#191919" stroke-width="0.35 px" style="stroke-width:0.35;stroke-miterlimit:4;stroke-dasharray:none;fill:none;fill-opacity:1;fill-rule: evenodd"/>
<path id="Shape2DView_nwe0029"  d="M 3.429 -4.62 L 3.47165846539536 -4.62 L 3.5137804758373554 -4.62 L 3.5548363226049187 -4.62 L 3.5943097046037895 -4.62 L 3.631704221152343 -4.62 L 3.6665496145081775 -4.62 L 3.6984076836320745 -4.62 L 3.7268777948203193 -4.62 L 3.7516019199059762 -4.62 L 3.7722691386708216 -4.62 L 3.788619548847488 -4.62 L 3.8004475345412745 -4.619999999999999 L 3.8076043519693252 -4.619999999999999 L 3.8099999999999996 -4.619999999999999 " stroke="#191919" stroke-width="0.35 px" style="stroke-width:0.35;stroke-miterlimit:4;stroke-dasharray:none;fill:none;fill-opacity:1;fill-rule: evenodd"/>
<path id="Shape2DView_nwe0030"  d="M 3.8099999999999996 4.62 L 3.810798549343558 4.62 L 3.8131841551529084 4.62 L 3.8171268170508372 4.62 L 3.8225769537763927 4.62 L 3.829466026698008 4.62 L 3.83770740172656 4.62 L 3.8471974387893084 4.62 L 3.8578167951639406 4.62 L 3.869431926282552 4.62 L 3.88189676513207 4.62 L 3.8950545591316934 4.62 L 3.908739841387548 4.62 L 3.9227805115348797 4.62 L 3.937 4.62 " stroke="#191919" stroke-width="0.35 px" style="stroke-width:0.35;stroke-miterlimit:4;stroke-dasharray:none;fill:none;fill-opacity:1;fill-rule: evenodd"/>
<path id="Shape2DView_nwe0031"  d="M 3.429 4.62 L 3.47165846539536 4.62 L 3.5137804758373554 4.62 L 3.5548363226049187 4.62 L 3.5943097046037895 4.62 L 3.631704221152343 4.62 L 3.666549614508177 4.62 L 3.6984076836320745 4.62 L 3.7268777948203193 4.62 L 3.7516019199059762 4.62 L 3.7722691386708216 4.62 L 3.788619548847488 4.62 L 3.8004475345412745 4.620000000000001 L 3.8076043519693252 4.620000000000001 L 3.8099999999999996 4.620000000000001 " stroke="#191919" stroke-width="0.35 px" style="stroke-width:0.35;stroke-miterlimit:4;stroke-dasharray:none;fill:none;fill-opacity:1;fill-rule: evenodd"/>
<path id="Shape2DView_nwe0032"  d="M 3.429 4.619999999999999 L 3.06 4.619999999999999 " stroke="#191919" stroke-width="0.35 px" style="stroke-width:0.35;stroke-miterlimit:4;stroke-dasharray:none;fill:none;fill-opacity:1;fill-rule: evenodd"/>
<path id="Shape2DView_nwe0033"  d="M 4.476 4.62 L 3.937 4.619999999999999 " stroke="#191919" stroke-width="0.35 px" style="stroke-width:0.35;stroke-miterlimit:4;stroke-dasharray:none;fill:none;fill-opacity:1;fill-rule: evenodd"/>
<path id="Shape2DView_nwe0034"  d="M 2.9849999999999977 -4.62 L 2.9849999999999954 -3.0 " stroke="#191919" stroke-width="0.35 px" style="stroke-width:0.35;stroke-miterlimit:4;stroke-dasharray:none;fill:none;fill-opacity:1;fill-rule: evenodd"/>
<path id="Shape2DView_nwe0035"  d="M 3.8099999999999996 -3.0 L 3.810798549343558 -3.0 L 3.8131841551529084 -3.0 L 3.8171268170508372 -3.0 L 3.8225769537763927 -3.0 L 3.829466026698008 -3.0 L 3.83770740172656 -3.0 L 3.8471974387893084 -3.0 L 3.8578167951639406 -3.0 L 3.869431926282552 -3.0 L 3.88189676513207 -3.0 L 3.8950545591316934 -3.0 L 3.908739841387548 -3.0 L 3.9227805115348797 -3.0 L 3.937 -3.0 " stroke="#191919" stroke-width="0.35 px" style="stroke-width:0.35;stroke-miterlimit:4;stroke-dasharray:none;fill:none;fill-opacity:1;fill-rule: evenodd"/>
<path id="Shape2DView_nwe0036"  d="M 3.429 -3.0 L 3.47165846539536 -3.0 L 3.5137804758373554 -3.0 L 3.5548363226049187 -3.0 L 3.5943097046037895 -3.0 L 3.631704221152343 -2.9999999999999996 L 3.666549614508177 -2.9999999999999996 L 3.6984076836320745 -2.9999999999999996 L 3.7268777948203193 -2.9999999999999996 L 3.7516019199059762 -2.9999999999999996 L 3.7722691386708216 -2.9999999999999996 L 3.788619548847488 -2.9999999999999996 L 3.8004475345412745 -2.9999999999999996 L 3.8076043519693252 -2.9999999999999996 L 3.8099999999999996 -2.9999999999999996 " stroke="#191919" stroke-width="0.35 px" style="stroke-width:0.35;stroke-miterlimit:4;stroke-dasharray:none;fill:none;fill-opacity:1;fill-rule: evenodd"/>
<path id="Shape2DView_nwe0037"  d="M 3.429 -3.0000000000000004 L 3.06 -3.000000000000001 " stroke="#191919" stroke-width="0.35 px" style="stroke-width:0.35;stroke-miterlimit:4;stroke-dasharray:none;fill:none;fill-opacity:1;fill-rule: evenodd"/>
<path id="Shape2DView_nwe0038"  d="M 4.476 -3.0 L 3.937 -3.0000000000000004 " stroke="#191919" stroke-width="0.35 px" style="stroke-width:0.35;stroke-miterlimit:4;stroke-dasharray:none;fill:none;fill-opacity:1;fill-rule: evenodd"/>
<path id="Shape2DView_nwe0039"  d="M 3.8099999999999996 3.0 L 3.810798549343558 3.0 L 3.8131841551529084 3.0 L 3.8171268170508372 3.0 L 3.8225769537763927 3.0 L 3.829466026698008 3.0 L 3.83770740172656 3.0 L 3.8471974387893084 3.0 L 3.8578167951639406 3.0 L 3.869431926282552 3.0 L 3.88189676513207 3.0 L 3.8950545591316934 3.0 L 3.908739841387548 3.0 L 3.9227805115348797 3.0 L 3.937 3.0 " stroke="#191919" stroke-width="0.35 px" style="stroke-width:0.35;stroke-miterlimit:4;stroke-dasharray:none;fill:none;fill-opacity:1;fill-rule: evenodd"/>
<path id="Shape2DView_nwe0040"  d="M 3.937 3.0000000000000004 L 4.476 3.0000000000000013 " stroke="#191919" stroke-width="0.35 px" style="stroke-width:0.35;stroke-miterlimit:4;stroke-dasharray:none;fill:none;fill-opacity:1;fill-rule: evenodd"/>
<path id="Shape2DView_nwe0041"  d="M 3.429 2.9999999999999996 L 3.06 2.999999999999999 " stroke="#191919" stroke-width="0.35 px" style="stroke-width:0.35;stroke-miterlimit:4;stroke-dasharray:none;fill:none;fill-opacity:1;fill-rule: evenodd"/>
<path id="Shape2DView_nwe0042"  d="M 3.429 3.0 L 3.47165846539536 3.0 L 3.5137804758373554 3.0 L 3.5548363226049187 3.0 L 3.5943097046037895 3.0 L 3.631704221152343 3.0000000000000004 L 3.666549614508177 3.0000000000000004 L 3.6984076836320745 3.0000000000000004 L 3.7268777948203193 3.0000000000000004 L 3.7516019199059762 3.0000000000000004 L 3.7722691386708216 3.0000000000000004 L 3.788619548847488 3.0000000000000004 L 3.8004475345412745 3.0000000000000004 L 3.8076043519693252 3.0000000000000004 L 3.8099999999999996 3.0000000000000004 " stroke="#191919" stroke-width="0.35 px" style="stroke-width:0.35;stroke-miterlimit:4;stroke-dasharray:none;fill:none;fill-opacity:1;fill-rule: evenodd"/>
<path id="Shape2DView_nwe0043"  d="M 2.9849999999999874 3.000000000000001 L 2.984999999999985 4.62 " stroke="#191919" stroke-width="0.35 px" style="stroke-width:0.35;stroke-miterlimit:4;stroke-dasharray:none;fill:none;fill-opacity:1;fill-rule: evenodd"/>
<path id="Shape2DView_nwe0044"  d="M 3.8099999999999996 -2.08 L 3.810798549343558 -2.08 L 3.8131841551529084 -2.08 L 3.8171268170508372 -2.08 L 3.8225769537763927 -2.08 L 3.829466026698008 -2.08 L 3.83770740172656 -2.08 L 3.8471974387893084 -2.08 L 3.8578167951639406 -2.08 L 3.869431926282552 -2.08 L 3.88189676513207 -2.08 L 3.8950545591316934 -2.08 L 3.908739841387548 -2.08 L 3.9227805115348797 -2.08 L 3.937 -2.08 " stroke="#191919" stroke-width="0.35 px" style="stroke-width:0.35;stroke-miterlimit:4;stroke-dasharray:none;fill:none;fill-opacity:1;fill-rule: evenodd"/>
<path id="Shape2DView_nwe0045"  d="M 3.937 -2.0799999999999996 L 4.476 -2.0799999999999987 " stroke="#191919" stroke-width="0.35 px" style="stroke-width:0.35;stroke-miterlimit:4;stroke-dasharray:none;fill:none;fill-opacity:1;fill-rule: evenodd"/>
<path id="Shape2DView_nwe0046"  d="M 3.429 -2.0800000000000005 L 3.06 -2.080000000000001 " stroke="#191919" stroke-width="0.35 px" style="stroke-width:0.35;stroke-miterlimit:4;stroke-dasharray:none;fill:none;fill-opacity:1;fill-rule: evenodd"/>
<path id="Shape2DView_nwe0047"  d="M 3.429 -2.08 L 3.47165846539536 -2.08 L 3.5137804758373554 -2.08 L 3.5548363226049187 -2.08 L 3.5943097046037895 -2.08 L 3.631704221152343 -2.0799999999999996 L 3.666549614508177 -2.0799999999999996 L 3.6984076836320745 -2.0799999999999996 L 3.7268777948203193 -2.0799999999999996 L 3.7516019199059762 -2.0799999999999996 L 3.7722691386708216 -2.0799999999999996 L 3.788619548847488 -2.0799999999999996 L 3.8004475345412745 -2.0799999999999996 L 3.8076043519693252 -2.0799999999999996 L 3.8099999999999996 -2.0799999999999996 " stroke="#191919" stroke-width="0.35 px" style="stroke-width:0.35;stroke-miterlimit:4;stroke-dasharray:none;fill:none;fill-opacity:1;fill-rule: evenodd"/>
<path id="Shape2DView_nwe0048"  d="M 3.8099999999999996 2.08 L 3.810798549343558 2.08 L 3.8131841551529084 2.08 L 3.8171268170508372 2.08 L 3.8225769537763927 2.08 L 3.829466026698008 2.08 L 3.83770740172656 2.08 L 3.8471974387893084 2.08 L 3.8578167951639406 2.08 L 3.869431926282552 2.08 L 3.88189676513207 2.08 L 3.8950545591316934 2.08 L 3.908739841387548 2.08 L 3.9227805115348797 2.08 L 3.937 2.08 " stroke="#191919" stroke-width="0.35 px" style="stroke-width:0.35;stroke-miterlimit:4;stroke-dasharray:none;fill:none;fill-opacity:1;fill-rule: evenodd"/>
<path id="Shape2DView_nwe0049"  d="M 3.429 2.08 L 3.47165846539536 2.08 L 3.5137804758373554 2.08 L 3.5548363226049187 2.08 L 3.5943097046037895 2.08 L 3.631704221152343 2.0800000000000005 L 3.666549614508177 2.0800000000000005 L 3.6984076836320745 2.0800000000000005 L 3.7268777948203193 2.0800000000000005 L 3.7516019199059762 2.0800000000000005 L 3.7722691386708216 2.0800000000000005 L 3.788619548847488 2.0800000000000005 L 3.8004475345412745 2.0800000000000005 L 3.8076043519693252 2.0800000000000005 L 3.8099999999999996 2.0800000000000005 " stroke="#191919" stroke-width="0.35 px" style="stroke-width:0.35;stroke-miterlimit:4;stroke-dasharray:none;fill:none;fill-opacity:1;fill-rule: evenodd"/>
<path id="Shape2DView_nwe0050"  d="M 3.429 2.0799999999999996 L 3.06 2.079999999999999 " stroke="#191919" stroke-width="0.35 px" style="stroke-width:0.35;stroke-miterlimit:4;stroke-dasharray:none;fill:none;fill-opacity:1;fill-rule: evenodd"/>
<path id="Shape2DView_nwe0051"  d="M 4.476 2.08 L 3.937 2.0799999999999996 " stroke="#191919" stroke-width="0.35 px" style="stroke-width:0.35;stroke-miterlimit:4;stroke-dasharray:none;fill:none;fill-opacity:1;fill-rule: evenodd"/>
<path id="Shape2DView_nwe0052"  d="M 2.984999999999994 -2.08 L 2.984999999999992 -0.45999999999999996 " stroke="#191919" stroke-width="0.35 px" style="stroke-width:0.35;stroke-miterlimit:4;stroke-dasharray:none;fill:none;fill-opacity:1;fill-rule: evenodd"/>
<path id="Shape2DView_nwe0053"  d="M 3.8099999999999996 -0.4600000000000002 L 3.810798549343558 -0.4600000000000002 L 3.8131841551529084 -0.4600000000000002 L 3.8171268170508372 -0.4600000000000002 L 3.8225769537763927 -0.46000000000000013 L 3.829466026698008 -0.46000000000000013 L 3.83770740172656 -0.46000000000000013 L 3.8471974387893084 -0.46000000000000013 L 3.8578167951639406 -0.46000000000000013 L 3.869431926282552 -0.4600000000000001 L 3.88189676513207 -0.4600000000000001 L 3.8950545591316934 -0.4600000000000001 L 3.908739841387548 -0.4600000000000001 L 3.9227805115348797 -0.46 L 3.937 -0.46 " stroke="#191919" stroke-width="0.35 px" style="stroke-width:0.35;stroke-miterlimit:4;stroke-dasharray:none;fill:none;fill-opacity:1;fill-rule: evenodd"/>
<path id="Shape2DView_nwe0054"  d="M 3.429 -0.46 L 3.47165846539536 -0.45999999999999996 L 3.5137804758373554 -0.4599999999999999 L 3.5548363226049187 -0.45999999999999985 L 3.5943097046037895 -0.4599999999999998 L 3.631704221152343 -0.4599999999999998 L 3.666549614508177 -0.45999999999999974 L 3.6984076836320745 -0.4599999999999997 L 3.7268777948203193 -0.4599999999999997 L 3.7516019199059762 -0.45999999999999963 L 3.7722691386708216 -0.45999999999999963 L 3.788619548847488 -0.4599999999999996 L 3.8004475345412745 -0.4599999999999996 L 3.8076043519693252 -0.4599999999999996 L 3.8099999999999996 -0.4599999999999996 " stroke="#191919" stroke-width="0.35 px" style="stroke-width:0.35;stroke-miterlimit:4;stroke-dasharray:none;fill:none;fill-opacity:1;fill-rule: evenodd"/>
<path id="Shape2DView_nwe0055"  d="M 3.429 -0.46000000000000046 L 3.06 -0.4600000000000009 " stroke="#191919" stroke-width="0.35 px" style="stroke-width:0.35;stroke-miterlimit:4;stroke-dasharray:none;fill:none;fill-opacity:1;fill-rule: evenodd"/>
<path id="Shape2DView_nwe0056"  d="M 4.476 -0.46 L 3.937 -0.4600000000000007 " stroke="#191919" stroke-width="0.35 px" style="stroke-width:0.35;stroke-miterlimit:4;stroke-dasharray:none;fill:none;fill-opacity:1;fill-rule: evenodd"/>
<path id="Shape2DView_nwe0057"  d="M 3.8099999999999996 0.45999999999999985 L 3.810798549343558 0.45999999999999985 L 3.8131841551529084 0.45999999999999985 L 3.8171268170508372 0.45999999999999985 L 3.8225769537763927 0.4599999999999999 L 3.829466026698008 0.4599999999999999 L 3.83770740172656 0.4599999999999999 L 3.8471974387893084 0.4599999999999999 L 3.8578167951639406 0.4599999999999999 L 3.869431926282552 0.45999999999999996 L 3.88189676513207 0.45999999999999996 L 3.8950545591316934 0.45999999999999996 L 3.908739841387548 0.45999999999999996 L 3.9227805115348797 0.46 L 3.937 0.46 " stroke="#191919" stroke-width="0.35 px" style="stroke-width:0.35;stroke-miterlimit:4;stroke-dasharray:none;fill:none;fill-opacity:1;fill-rule: evenodd"/>
<path id="Shape2DView_nwe0058"  d="M 3.937 0.46000000000000046 L 4.476 0.46000000000000113 " stroke="#191919" stroke-width="0.35 px" style="stroke-width:0.35;stroke-miterlimit:4;stroke-dasharray:none;fill:none;fill-opacity:1;fill-rule: evenodd"/>
<path id="Shape2DView_nwe0059"  d="M 3.429 0.4599999999999996 L 3.06 0.45999999999999913 " stroke="#191919" stroke-width="0.35 px" style="stroke-width:0.35;stroke-miterlimit:4;stroke-dasharray:none;fill:none;fill-opacity:1;fill-rule: evenodd"/>
<path id="Shape2DView_nwe0060"  d="M 3.429 0.46 L 3.47165846539536 0.4600000000000001 L 3.5137804758373554 0.46000000000000013 L 3.5548363226049187 0.4600000000000002 L 3.5943097046037895 0.46000000000000024 L 3.631704221152343 0.46000000000000024 L 3.666549614508177 0.4600000000000003 L 3.6984076836320745 0.46000000000000035 L 3.7268777948203193 0.46000000000000035 L 3.7516019199059762 0.4600000000000004 L 3.7722691386708216 0.4600000000000004 L 3.788619548847488 0.46000000000000046 L 3.8004475345412745 0.46000000000000046 L 3.8076043519693252 0.46000000000000046 L 3.8099999999999996 0.46000000000000046 " stroke="#191919" stroke-width="0.35 px" style="stroke-width:0.35;stroke-miterlimit:4;stroke-dasharray:none;fill:none;fill-opacity:1;fill-rule: evenodd"/>
<path id="Shape2DView_nwe0061"  d="M 2.984999999999991 0.45999999999999996 L 2.9849999999999888 2.079999999999999 " stroke="#191919" stroke-width="0.35 px" style="stroke-width:0.35;stroke-miterlimit:4;stroke-dasharray:none;fill:none;fill-opacity:1;fill-rule: evenodd"/>
<path id="Shape2DView_nwe0062"  d="M -3.06 6.41 L -2.985 6.335 " stroke="#191919" stroke-width="0.35 px" style="stroke-width:0.35;stroke-miterlimit:4;stroke-dasharray:none;fill:none;fill-opacity:1;fill-rule: evenodd"/>
<path id="Shape2DView_nwe0063"  d="M 2.985 6.335 L -2.985 6.334999999999992 " stroke="#191919" stroke-width="0.35 px" style="stroke-width:0.35;stroke-miterlimit:4;stroke-dasharray:none;fill:none;fill-opacity:1;fill-rule: evenodd"/>
<path id="Shape2DView_nwe0064"  d="M -2.985 6.335 L -2.984999999999999 5.54 " stroke="#191919" stroke-width="0.35 px" style="stroke-width:0.35;stroke-miterlimit:4;stroke-dasharray:none;fill:none;fill-opacity:1;fill-rule: evenodd"/>
<path id="Shape2DView_nwe0065"  d="M -3.8099999999999996 5.54 L -3.810798549343558 5.54 L -3.8131841551529084 5.54 L -3.8171268170508372 5.54 L -3.8225769537763927 5.54 L -3.829466026698008 5.54 L -3.83770740172656 5.54 L -3.8471974387893084 5.54 L -3.8578167951639406 5.54 L -3.869431926282552 5.54 L -3.88189676513207 5.54 L -3.8950545591316934 5.54 L -3.908739841387548 5.54 L -3.9227805115348797 5.54 L -3.937 5.54 " stroke="#191919" stroke-width="0.35 px" style="stroke-width:0.35;stroke-miterlimit:4;stroke-dasharray:none;fill:none;fill-opacity:1;fill-rule: evenodd"/>
<path id="Shape2DView_nwe0066"  d="M -3.429 5.54 L -3.47165846539536 5.54 L -3.5137804758373554 5.54 L -3.5548363226049187 5.54 L -3.5943097046037895 5.54 L -3.631704221152343 5.54 L -3.6665496145081775 5.54 L -3.6984076836320745 5.54 L -3.7268777948203193 5.54 L -3.7516019199059762 5.54 L -3.7722691386708216 5.539999999999999 L -3.788619548847488 5.539999999999999 L -3.8004475345412745 5.539999999999999 L -3.8076043519693252 5.539999999999999 L -3.8099999999999996 5.539999999999999 " stroke="#191919" stroke-width="0.35 px" style="stroke-width:0.35;stroke-miterlimit:4;stroke-dasharray:none;fill:none;fill-opacity:1;fill-rule: evenodd"/>
<path id="Shape2DView_nwe0067"  d="M -3.0600000000000005 5.539999999999996 L -3.4290000000000003 5.539999999999996 " stroke="#191919" stroke-width="0.35 px" style="stroke-width:0.35;stroke-miterlimit:4;stroke-dasharray:none;fill:none;fill-opacity:1;fill-rule: evenodd"/>
<path id="Shape2DView_nwe0068"  d="M -4.476 5.54 L -3.937 5.540000000000001 " stroke="#191919" stroke-width="0.35 px" style="stroke-width:0.35;stroke-miterlimit:4;stroke-dasharray:none;fill:none;fill-opacity:1;fill-rule: evenodd"/>
<path id="Shape2DView_nwe0069"  d="M -3.8099999999999996 -5.54 L -3.810798549343558 -5.54 L -3.8131841551529084 -5.54 L -3.8171268170508372 -5.54 L -3.8225769537763927 -5.54 L -3.829466026698008 -5.54 L -3.83770740172656 -5.54 L -3.8471974387893084 -5.54 L -3.8578167951639406 -5.54 L -3.869431926282552 -5.54 L -3.88189676513207 -5.54 L -3.8950545591316934 -5.54 L -3.908739841387548 -5.54 L -3.9227805115348797 -5.54 L -3.937 -5.54 " stroke="#191919" stroke-width="0.35 px" style="stroke-width:0.35;stroke-miterlimit:4;stroke-dasharray:none;fill:none;fill-opacity:1;fill-rule: evenodd"/>
<path id="Shape2DView_nwe0070"  d="M -3.937 -5.540000000000001 L -4.476 -5.540000000000001 " stroke="#191919" stroke-width="0.35 px" style="stroke-width:0.35;stroke-miterlimit:4;stroke-dasharray:none;fill:none;fill-opacity:1;fill-rule: evenodd"/>
<path id="Shape2DView_nwe0071"  d="M -3.429 -5.539999999999999 L -3.06 -5.539999999999999 " stroke="#191919" stroke-width="0.35 px" style="stroke-width:0.35;stroke-miterlimit:4;stroke-dasharray:none;fill:none;fill-opacity:1;fill-rule: evenodd"/>
<path id="Shape2DView_nwe0072"  d="M -3.429 -5.54 L -3.47165846539536 -5.54 L -3.5137804758373554 -5.54 L -3.5548363226049187 -5.54 L -3.5943097046037895 -5.54 L -3.631704221152343 -5.54 L -3.666549614508177 -5.54 L -3.6984076836320745 -5.54 L -3.7268777948203193 -5.54 L -3.7516019199059762 -5.54 L -3.7722691386708216 -5.540000000000001 L -3.788619548847488 -5.540000000000001 L -3.8004475345412745 -5.540000000000001 L -3.8076043519693252 -5.540000000000001 L -3.8099999999999996 -5.540000000000001 " stroke="#191919" stroke-width="0.35 px" style="stroke-width:0.35;stroke-miterlimit:4;stroke-dasharray:none;fill:none;fill-opacity:1;fill-rule: evenodd"/>
<path id="Shape2DView_nwe0073"  d="M -3.06 -6.41 L -2.985 -6.335 " stroke="#191919" stroke-width="0.35 px" style="stroke-width:0.35;stroke-miterlimit:4;stroke-dasharray:none;fill:none;fill-opacity:1;fill-rule: evenodd"/>
<path id="Shape2DView_nwe0074"  d="M -2.984999999999984 -5.54 L -2.984999999999983 -6.335 " stroke="#191919" stroke-width="0.35 px" style="stroke-width:0.35;stroke-miterlimit:4;stroke-dasharray:none;fill:none;fill-opacity:1;fill-rule: evenodd"/>
<path id="Shape2DView_nwe0075"  d="M -3.8099999999999996 4.62 L -3.810798549343558 4.62 L -3.8131841551529084 4.62 L -3.8171268170508372 4.62 L -3.8225769537763927 4.62 L -3.829466026698008 4.62 L -3.83770740172656 4.62 L -3.8471974387893084 4.62 L -3.8578167951639406 4.62 L -3.869431926282552 4.62 L -3.88189676513207 4.62 L -3.8950545591316934 4.62 L -3.908739841387548 4.62 L -3.9227805115348797 4.62 L -3.937 4.62 " stroke="#191919" stroke-width="0.35 px" style="stroke-width:0.35;stroke-miterlimit:4;stroke-dasharray:none;fill:none;fill-opacity:1;fill-rule: evenodd"/>
<path id="Shape2DView_nwe0076"  d="M -3.937 4.619999999999999 L -4.476 4.619999999999999 " stroke="#191919" stroke-width="0.35 px" style="stroke-width:0.35;stroke-miterlimit:4;stroke-dasharray:none;fill:none;fill-opacity:1;fill-rule: evenodd"/>
<path id="Shape2DView_nwe0077"  d="M -3.429 4.62 L -3.06 4.620000000000001 " stroke="#191919" stroke-width="0.35 px" style="stroke-width:0.35;stroke-miterlimit:4;stroke-dasharray:none;fill:none;fill-opacity:1;fill-rule: evenodd"/>
<path id="Shape2DView_nwe0078"  d="M -3.429 4.62 L -3.47165846539536 4.62 L -3.5137804758373554 4.62 L -3.5548363226049187 4.62 L -3.5943097046037895 4.62 L -3.631704221152343 4.62 L -3.6665496145081775 4.62 L -3.6984076836320745 4.62 L -3.7268777948203193 4.62 L -3.7516019199059762 4.62 L -3.7722691386708216 4.619999999999999 L -3.788619548847488 4.619999999999999 L -3.8004475345412745 4.619999999999999 L -3.8076043519693252 4.619999999999999 L -3.8099999999999996 4.619999999999999 " stroke="#191919" stroke-width="0.35 px" style="stroke-width:0.35;stroke-miterlimit:4;stroke-dasharray:none;fill:none;fill-opacity:1;fill-rule: evenodd"/>
<path id="Shape2DView_nwe0079"  d="M -3.8099999999999996 -4.62 L -3.810798549343558 -4.62 L -3.8131841551529084 -4.62 L -3.8171268170508372 -4.62 L -3.8225769537763927 -4.62 L -3.829466026698008 -4.62 L -3.83770740172656 -4.62 L -3.8471974387893084 -4.62 L -3.8578167951639406 -4.62 L -3.869431926282552 -4.62 L -3.88189676513207 -4.62 L -3.8950545591316934 -4.62 L -3.908739841387548 -4.62 L -3.9227805115348797 -4.62 L -3.937 -4.62 " stroke="#191919" stroke-width="0.35 px" style="stroke-width:0.35;stroke-miterlimit:4;stroke-dasharray:none;fill:none;fill-opacity:1;fill-rule: evenodd"/>
<path id="Shape2DView_nwe0080"  d="M -3.429 -4.62 L -3.47165846539536 -4.62 L -3.5137804758373554 -4.62 L -3.5548363226049187 -4.62 L -3.5943097046037895 -4.62 L -3.631704221152343 -4.62 L -3.666549614508177 -4.62 L -3.6984076836320745 -4.62 L -3.7268777948203193 -4.62 L -3.7516019199059762 -4.62 L -3.7722691386708216 -4.620000000000001 L -3.788619548847488 -4.620000000000001 L -3.8004475345412745 -4.620000000000001 L -3.8076043519693252 -4.620000000000001 L -3.8099999999999996 -4.620000000000001 " stroke="#191919" stroke-width="0.35 px" style="stroke-width:0.35;stroke-miterlimit:4;stroke-dasharray:none;fill:none;fill-opacity:1;fill-rule: evenodd"/>
<path id="Shape2DView_nwe0081"  d="M -3.429 -4.619999999999999 L -3.06 -4.619999999999999 " stroke="#191919" stroke-width="0.35 px" style="stroke-width:0.35;stroke-miterlimit:4;stroke-dasharray:none;fill:none;fill-opacity:1;fill-rule: evenodd"/>
<path id="Shape2DView_nwe0082"  d="M -4.476 -4.62 L -3.937 -4.619999999999999 " stroke="#191919" stroke-width="0.35 px" style="stroke-width:0.35;stroke-miterlimit:4;stroke-dasharray:none;fill:none;fill-opacity:1;fill-rule: evenodd"/>
<path id="Shape2DView_nwe0083"  d="M -2.9849999999999977 4.62 L -2.9849999999999954 3.0 " stroke="#191919" stroke-width="0.35 px" style="stroke-width:0.35;stroke-miterlimit:4;stroke-dasharray:none;fill:none;fill-opacity:1;fill-rule: evenodd"/>
<path id="Shape2DView_nwe0084"  d="M -3.8099999999999996 3.0 L -3.810798549343558 3.0 L -3.8131841551529084 3.0 L -3.8171268170508372 3.0 L -3.8225769537763927 3.0 L -3.829466026698008 3.0 L -3.83770740172656 3.0 L -3.8471974387893084 3.0 L -3.8578167951639406 3.0 L -3.869431926282552 3.0 L -3.88189676513207 3.0 L -3.8950545591316934 3.0 L -3.908739841387548 3.0 L -3.9227805115348797 3.0 L -3.937 3.0 " stroke="#191919" stroke-width="0.35 px" style="stroke-width:0.35;stroke-miterlimit:4;stroke-dasharray:none;fill:none;fill-opacity:1;fill-rule: evenodd"/>
<path id="Shape2DView_nwe0085"  d="M -3.429 3.0 L -3.47165846539536 3.0 L -3.5137804758373554 3.0 L -3.5548363226049187 3.0 L -3.5943097046037895 3.0 L -3.631704221152343 2.9999999999999996 L -3.666549614508177 2.9999999999999996 L -3.6984076836320745 2.9999999999999996 L -3.7268777948203193 2.9999999999999996 L -3.7516019199059762 2.9999999999999996 L -3.7722691386708216 2.9999999999999996 L -3.788619548847488 2.9999999999999996 L -3.8004475345412745 2.9999999999999996 L -3.8076043519693252 2.9999999999999996 L -3.8099999999999996 2.9999999999999996 " stroke="#191919" stroke-width="0.35 px" style="stroke-width:0.35;stroke-miterlimit:4;stroke-dasharray:none;fill:none;fill-opacity:1;fill-rule: evenodd"/>
<path id="Shape2DView_nwe0086"  d="M -3.429 3.0000000000000004 L -3.06 3.000000000000001 " stroke="#191919" stroke-width="0.35 px" style="stroke-width:0.35;stroke-miterlimit:4;stroke-dasharray:none;fill:none;fill-opacity:1;fill-rule: evenodd"/>
<path id="Shape2DView_nwe0087"  d="M -4.476 3.0 L -3.937 3.000000000000001 " stroke="#191919" stroke-width="0.35 px" style="stroke-width:0.35;stroke-miterlimit:4;stroke-dasharray:none;fill:none;fill-opacity:1;fill-rule: evenodd"/>
<path id="Shape2DView_nwe0088"  d="M -3.8099999999999996 -3.0 L -3.810798549343558 -3.0 L -3.8131841551529084 -3.0 L -3.8171268170508372 -3.0 L -3.8225769537763927 -3.0 L -3.829466026698008 -3.0 L -3.83770740172656 -3.0 L -3.8471974387893084 -3.0 L -3.8578167951639406 -3.0 L -3.869431926282552 -3.0 L -3.88189676513207 -3.0 L -3.8950545591316934 -3.0 L -3.908739841387548 -3.0 L -3.9227805115348797 -3.0 L -3.937 -3.0 " stroke="#191919" stroke-width="0.35 px" style="stroke-width:0.35;stroke-miterlimit:4;stroke-dasharray:none;fill:none;fill-opacity:1;fill-rule: evenodd"/>
<path id="Shape2DView_nwe0089"  d="M -3.937 -3.0000000000000004 L -4.476 -3.0000000000000013 " stroke="#191919" stroke-width="0.35 px" style="stroke-width:0.35;stroke-miterlimit:4;stroke-dasharray:none;fill:none;fill-opacity:1;fill-rule: evenodd"/>
<path id="Shape2DView_nwe0090"  d="M -3.429 -2.9999999999999996 L -3.06 -2.999999999999999 " stroke="#191919" stroke-width="0.35 px" style="stroke-width:0.35;stroke-miterlimit:4;stroke-dasharray:none;fill:none;fill-opacity:1;fill-rule: evenodd"/>
<path id="Shape2DView_nwe0091"  d="M -3.429 -3.0 L -3.47165846539536 -3.0 L -3.5137804758373554 -3.0 L -3.5548363226049187 -3.0 L -3.5943097046037895 -3.0 L -3.631704221152343 -3.0000000000000004 L -3.666549614508177 -3.0000000000000004 L -3.6984076836320745 -3.0000000000000004 L -3.7268777948203193 -3.0000000000000004 L -3.7516019199059762 -3.0000000000000004 L -3.7722691386708216 -3.0000000000000004 L -3.788619548847488 -3.0000000000000004 L -3.8004475345412745 -3.0000000000000004 L -3.8076043519693252 -3.0000000000000004 L -3.8099999999999996 -3.0000000000000004 " stroke="#191919" stroke-width="0.35 px" style="stroke-width:0.35;stroke-miterlimit:4;stroke-dasharray:none;fill:none;fill-opacity:1;fill-rule: evenodd"/>
<path id="Shape2DView_nwe0092"  d="M -2.9849999999999874 -3.000000000000001 L -2.984999999999985 -4.62 " stroke="#191919" stroke-width="0.35 px" style="stroke-width:0.35;stroke-miterlimit:4;stroke-dasharray:none;fill:none;fill-opacity:1;fill-rule: evenodd"/>
<path id="Shape2DView_nwe0093"  d="M -3.8099999999999996 2.08 L -3.810798549343558 2.08 L -3.8131841551529084 2.08 L -3.8171268170508372 2.08 L -3.8225769537763927 2.08 L -3.829466026698008 2.08 L -3.83770740172656 2.08 L -3.8471974387893084 2.08 L -3.8578167951639406 2.08 L -3.869431926282552 2.08 L -3.88189676513207 2.08 L -3.8950545591316934 2.08 L -3.908739841387548 2.08 L -3.9227805115348797 2.08 L -3.937 2.08 " stroke="#191919" stroke-width="0.35 px" style="stroke-width:0.35;stroke-miterlimit:4;stroke-dasharray:none;fill:none;fill-opacity:1;fill-rule: evenodd"/>
<path id="Shape2DView_nwe0094"  d="M -3.937 2.0799999999999996 L -4.476 2.0799999999999987 " stroke="#191919" stroke-width="0.35 px" style="stroke-width:0.35;stroke-miterlimit:4;stroke-dasharray:none;fill:none;fill-opacity:1;fill-rule: evenodd"/>
<path id="Shape2DView_nwe0095"  d="M -3.429 2.0800000000000005 L -3.06 2.080000000000001 " stroke="#191919" stroke-width="0.35 px" style="stroke-width:0.35;stroke-miterlimit:4;stroke-dasharray:none;fill:none;fill-opacity:1;fill-rule: evenodd"/>
<path id="Shape2DView_nwe0096"  d="M -3.429 2.08 L -3.47165846539536 2.08 L -3.5137804758373554 2.08 L -3.5548363226049187 2.08 L -3.5943097046037895 2.08 L -3.631704221152343 2.0799999999999996 L -3.666549614508177 2.0799999999999996 L -3.6984076836320745 2.0799999999999996 L -3.7268777948203193 2.0799999999999996 L -3.7516019199059762 2.0799999999999996 L -3.7722691386708216 2.0799999999999996 L -3.788619548847488 2.0799999999999996 L -3.8004475345412745 2.0799999999999996 L -3.8076043519693252 2.0799999999999996 L -3.8099999999999996 2.0799999999999996 " stroke="#191919" stroke-width="0.35 px" style="stroke-width:0.35;stroke-miterlimit:4;stroke-dasharray:none;fill:none;fill-opacity:1;fill-rule: evenodd"/>
<path id="Shape2DView_nwe0097"  d="M -3.8099999999999996 -2.08 L -3.810798549343558 -2.08 L -3.8131841551529084 -2.08 L -3.8171268170508372 -2.08 L -3.8225769537763927 -2.08 L -3.829466026698008 -2.08 L -3.83770740172656 -2.08 L -3.8471974387893084 -2.08 L -3.8578167951639406 -2.08 L -3.869431926282552 -2.08 L -3.88189676513207 -2.08 L -3.8950545591316934 -2.08 L -3.908739841387548 -2.08 L -3.9227805115348797 -2.08 L -3.937 -2.08 " stroke="#191919" stroke-width="0.35 px" style="stroke-width:0.35;stroke-miterlimit:4;stroke-dasharray:none;fill:none;fill-opacity:1;fill-rule: evenodd"/>
<path id="Shape2DView_nwe0098"  d="M -3.429 -2.08 L -3.47165846539536 -2.08 L -3.5137804758373554 -2.08 L -3.5548363226049187 -2.08 L -3.5943097046037895 -2.08 L -3.631704221152343 -2.0800000000000005 L -3.666549614508177 -2.0800000000000005 L -3.6984076836320745 -2.0800000000000005 L -3.7268777948203193 -2.0800000000000005 L -3.7516019199059762 -2.0800000000000005 L -3.7722691386708216 -2.0800000000000005 L -3.788619548847488 -2.0800000000000005 L -3.8004475345412745 -2.0800000000000005 L -3.8076043519693252 -2.0800000000000005 L -3.8099999999999996 -2.0800000000000005 " stroke="#191919" stroke-width="0.35 px" style="stroke-width:0.35;stroke-miterlimit:4;stroke-dasharray:none;fill:none;fill-opacity:1;fill-rule: evenodd"/>
<path id="Shape2DView_nwe0099"  d="M -3.429 -2.0799999999999996 L -3.06 -2.079999999999999 " stroke="#191919" stroke-width="0.35 px" style="stroke-width:0.35;stroke-miterlimit:4;stroke-dasharray:none;fill:none;fill-opacity:1;fill-rule: evenodd"/>
<path id="Shape2DView_nwe0100"  d="M -4.476 -2.08 L -3.937 -2.079999999999999 " stroke="#191919" stroke-width="0.35 px" style="stroke-width:0.35;stroke-miterlimit:4;stroke-dasharray:none;fill:none;fill-opacity:1;fill-rule: evenodd"/>
<path id="Shape2DView_nwe0101"  d="M -2.984999999999994 2.08 L -2.984999999999992 0.45999999999999996 " stroke="#191919" stroke-width="0.35 px" style="stroke-width:0.35;stroke-miterlimit:4;stroke-dasharray:none;fill:none;fill-opacity:1;fill-rule: evenodd"/>
<path id="Shape2DView_nwe0102"  d="M -3.8099999999999996 0.4600000000000002 L -3.810798549343558 0.4600000000000002 L -3.8131841551529084 0.4600000000000002 L -3.8171268170508372 0.4600000000000002 L -3.8225769537763927 0.4600000000000002 L -3.829466026698008 0.4600000000000002 L -3.83770740172656 0.46000000000000013 L -3.8471974387893084 0.46000000000000013 L -3.8578167951639406 0.46000000000000013 L -3.869431926282552 0.46000000000000013 L -3.88189676513207 0.4600000000000001 L -3.8950545591316934 0.4600000000000001 L -3.908739841387548 0.4600000000000001 L -3.9227805115348797 0.46 L -3.937 0.46 " stroke="#191919" stroke-width="0.35 px" style="stroke-width:0.35;stroke-miterlimit:4;stroke-dasharray:none;fill:none;fill-opacity:1;fill-rule: evenodd"/>
<path id="Shape2DView_nwe0103"  d="M -3.429 0.46 L -3.47165846539536 0.45999999999999996 L -3.5137804758373554 0.4599999999999999 L -3.5548363226049187 0.45999999999999985 L -3.5943097046037895 0.4599999999999998 L -3.631704221152343 0.45999999999999974 L -3.666549614508177 0.4599999999999997 L -3.6984076836320745 0.4599999999999997 L -3.7268777948203193 0.45999999999999963 L -3.7516019199059762 0.4599999999999996 L -3.7722691386708216 0.4599999999999996 L -3.788619548847488 0.4599999999999995 L -3.8004475345412745 0.4599999999999995 L -3.8076043519693252 0.4599999999999995 L -3.8099999999999996 0.4599999999999995 " stroke="#191919" stroke-width="0.35 px" style="stroke-width:0.35;stroke-miterlimit:4;stroke-dasharray:none;fill:none;fill-opacity:1;fill-rule: evenodd"/>
<path id="Shape2DView_nwe0104"  d="M -3.429 0.4600000000000005 L -3.06 0.460000000000001 " stroke="#191919" stroke-width="0.35 px" style="stroke-width:0.35;stroke-miterlimit:4;stroke-dasharray:none;fill:none;fill-opacity:1;fill-rule: evenodd"/>
<path id="Shape2DView_nwe0105"  d="M -4.476 0.46 L -3.937 0.46000000000000074 " stroke="#191919" stroke-width="0.35 px" style="stroke-width:0.35;stroke-miterlimit:4;stroke-dasharray:none;fill:none;fill-opacity:1;fill-rule: evenodd"/>
<path id="Shape2DView_nwe0106"  d="M -3.8099999999999996 -0.45999999999999985 L -3.810798549343558 -0.45999999999999985 L -3.8131841551529084 -0.45999999999999985 L -3.8171268170508372 -0.45999999999999985 L -3.8225769537763927 -0.45999999999999985 L -3.829466026698008 -0.45999999999999985 L -3.83770740172656 -0.4599999999999999 L -3.8471974387893084 -0.4599999999999999 L -3.8578167951639406 -0.4599999999999999 L -3.869431926282552 -0.4599999999999999 L -3.88189676513207 -0.45999999999999996 L -3.8950545591316934 -0.45999999999999996 L -3.908739841387548 -0.45999999999999996 L -3.9227805115348797 -0.46 L -3.937 -0.46 " stroke="#191919" stroke-width="0.35 px" style="stroke-width:0.35;stroke-miterlimit:4;stroke-dasharray:none;fill:none;fill-opacity:1;fill-rule: evenodd"/>
<path id="Shape2DView_nwe0107"  d="M -3.937 -0.4600000000000005 L -4.476 -0.46000000000000124 " stroke="#191919" stroke-width="0.35 px" style="stroke-width:0.35;stroke-miterlimit:4;stroke-dasharray:none;fill:none;fill-opacity:1;fill-rule: evenodd"/>
<path id="Shape2DView_nwe0108"  d="M -3.429 -0.4599999999999995 L -3.06 -0.459999999999999 " stroke="#191919" stroke-width="0.35 px" style="stroke-width:0.35;stroke-miterlimit:4;stroke-dasharray:none;fill:none;fill-opacity:1;fill-rule: evenodd"/>
<path id="Shape2DView_nwe0109"  d="M -3.429 -0.46 L -3.47165846539536 -0.4600000000000001 L -3.5137804758373554 -0.46000000000000013 L -3.5548363226049187 -0.4600000000000002 L -3.5943097046037895 -0.46000000000000024 L -3.631704221152343 -0.4600000000000003 L -3.666549614508177 -0.46000000000000035 L -3.6984076836320745 -0.46000000000000035 L -3.7268777948203193 -0.4600000000000004 L -3.7516019199059762 -0.46000000000000046 L -3.7722691386708216 -0.46000000000000046 L -3.788619548847488 -0.4600000000000005 L -3.8004475345412745 -0.4600000000000005 L -3.8076043519693252 -0.4600000000000005 L -3.8099999999999996 -0.4600000000000005 " stroke="#191919" stroke-width="0.35 px" style="stroke-width:0.35;stroke-miterlimit:4;stroke-dasharray:none;fill:none;fill-opacity:1;fill-rule: evenodd"/>
<path id="Shape2DView_nwe0110"  d="M -2.984999999999991 -0.45999999999999996 L -2.9849999999999888 -2.079999999999999 " stroke="#191919" stroke-width="0.35 px" style="stroke-width:0.35;stroke-miterlimit:4;stroke-dasharray:none;fill:none;fill-opacity:1;fill-rule: evenodd"/>
<path id="Shape2DView_nwe0111"  d="M -2.985 -6.335 L 2.985 -6.334999999999992 " stroke="#191919" stroke-width="0.35 px" style="stroke-width:0.35;stroke-miterlimit:4;stroke-dasharray:none;fill:none;fill-opacity:1;fill-rule: evenodd"/>
<path id="Shape2DView_nwe0112"  d="M 2.984999999999999 -5.54 L 2.9849999999999977 -4.62 " stroke="#191919" stroke-width="0.35 px" style="stroke-width:0.35;stroke-miterlimit:4;stroke-dasharray:none;fill:none;fill-opacity:1;fill-rule: evenodd"/>
<path id="Shape2DView_nwe0113"  d="M 2.9849999999999954 -3.0 L 2.984999999999994 -2.08 " stroke="#191919" stroke-width="0.35 px" style="stroke-width:0.35;stroke-miterlimit:4;stroke-dasharray:none;fill:none;fill-opacity:1;fill-rule: evenodd"/>
<path id="Shape2DView_nwe0114"  d="M 2.984999999999992 -0.45999999999999996 L 2.984999999999991 0.45999999999999996 " stroke="#191919" stroke-width="0.35 px" style="stroke-width:0.35;stroke-miterlimit:4;stroke-dasharray:none;fill:none;fill-opacity:1;fill-rule: evenodd"/>
<path id="Shape2DView_nwe0115"  d="M 2.9849999999999888 2.079999999999999 L 2.9849999999999874 3.000000000000001 " stroke="#191919" stroke-width="0.35 px" style="stroke-width:0.35;stroke-miterlimit:4;stroke-dasharray:none;fill:none;fill-opacity:1;fill-rule: evenodd"/>
<path id="Shape2DView_nwe0116"  d="M 2.984999999999985 4.62 L 2.984999999999984 5.54 " stroke="#191919" stroke-width="0.35 px" style="stroke-width:0.35;stroke-miterlimit:4;stroke-dasharray:none;fill:none;fill-opacity:1;fill-rule: evenodd"/>
<path id="Shape2DView_nwe0117"  d="M 2.985 6.335 L 2.661276356577 6.011276356577 " stroke="#191919" stroke-width="0.35 px" style="stroke-width:0.35;stroke-miterlimit:4;stroke-dasharray:none;fill:none;fill-opacity:1;fill-rule: evenodd"/>
<path id="Shape2DView_nwe0118"  d="M 2.661276356577 -6.011276356577 L 2.661276356576984 6.011276356577 " stroke="#191919" stroke-width="0.35 px" style="stroke-width:0.35;stroke-miterlimit:4;stroke-dasharray:none;fill:none;fill-opacity:1;fill-rule: evenodd"/>
<path id="Shape2DView_nwe0119"  d="M 2.985 -6.335 L 2.661276356577 -6.011276356577 " stroke="#191919" stroke-width="0.35 px" style="stroke-width:0.35;stroke-miterlimit:4;stroke-dasharray:none;fill:none;fill-opacity:1;fill-rule: evenodd"/>
<path id="Shape2DView_nwe0120"  d="M 3.0599999999999987 -5.54 L 3.059999999999998 -4.62 " stroke="#191919" stroke-width="0.35 px" style="stroke-width:0.35;stroke-miterlimit:4;stroke-dasharray:none;fill:none;fill-opacity:1;fill-rule: evenodd"/>
<path id="Shape2DView_nwe0121"  d="M 4.476 -4.62 L 4.476000000000001 -5.54 " stroke="#191919" stroke-width="0.35 px" style="stroke-width:0.35;stroke-miterlimit:4;stroke-dasharray:none;fill:none;fill-opacity:1;fill-rule: evenodd"/>
<path id="Shape2DView_nwe0122"  d="M 3.81 -4.62 L 3.8100000000000014 -5.54 " stroke="#191919" stroke-width="0.35 px" style="stroke-width:0.35;stroke-miterlimit:4;stroke-dasharray:none;fill:none;fill-opacity:1;fill-rule: evenodd"/>
<path id="Shape2DView_nwe0123"  d="M 3.81 4.62 L 3.8099999999999987 5.54 " stroke="#191919" stroke-width="0.35 px" style="stroke-width:0.35;stroke-miterlimit:4;stroke-dasharray:none;fill:none;fill-opacity:1;fill-rule: evenodd"/>
<path id="Shape2DView_nwe0124"  d="M 3.0599999999999854 4.620000000000001 L 3.059999999999984 5.539999999999999 " stroke="#191919" stroke-width="0.35 px" style="stroke-width:0.35;stroke-miterlimit:4;stroke-dasharray:none;fill:none;fill-opacity:1;fill-rule: evenodd"/>
<path id="Shape2DView_nwe0125"  d="M 4.476 5.54 L 4.476000000000001 4.62 " stroke="#191919" stroke-width="0.35 px" style="stroke-width:0.35;stroke-miterlimit:4;stroke-dasharray:none;fill:none;fill-opacity:1;fill-rule: evenodd"/>
<path id="Shape2DView_nwe0126"  d="M 3.0599999999999956 -3.0 L 3.0599999999999943 -2.08 " stroke="#191919" stroke-width="0.35 px" style="stroke-width:0.35;stroke-miterlimit:4;stroke-dasharray:none;fill:none;fill-opacity:1;fill-rule: evenodd"/>
<path id="Shape2DView_nwe0127"  d="M 4.476 -2.08 L 4.476000000000001 -3.0 " stroke="#191919" stroke-width="0.35 px" style="stroke-width:0.35;stroke-miterlimit:4;stroke-dasharray:none;fill:none;fill-opacity:1;fill-rule: evenodd"/>
<path id="Shape2DView_nwe0128"  d="M 3.81 -3.0 L 3.8099999999999987 -2.08 " stroke="#191919" stroke-width="0.35 px" style="stroke-width:0.35;stroke-miterlimit:4;stroke-dasharray:none;fill:none;fill-opacity:1;fill-rule: evenodd"/>
<path id="Shape2DView_nwe0129"  d="M 3.81 2.08 L 3.8099999999999987 3.0 " stroke="#191919" stroke-width="0.35 px" style="stroke-width:0.35;stroke-miterlimit:4;stroke-dasharray:none;fill:none;fill-opacity:1;fill-rule: evenodd"/>
<path id="Shape2DView_nwe0130"  d="M 3.059999999999989 2.08 L 3.0599999999999876 3.0 " stroke="#191919" stroke-width="0.35 px" style="stroke-width:0.35;stroke-miterlimit:4;stroke-dasharray:none;fill:none;fill-opacity:1;fill-rule: evenodd"/>
<path id="Shape2DView_nwe0131"  d="M 4.476 3.0 L 4.476000000000001 2.08 " stroke="#191919" stroke-width="0.35 px" style="stroke-width:0.35;stroke-miterlimit:4;stroke-dasharray:none;fill:none;fill-opacity:1;fill-rule: evenodd"/>
<path id="Shape2DView_nwe0132"  d="M 3.059999999999992 -0.45999999999999996 L 3.0599999999999907 0.45999999999999996 " stroke="#191919" stroke-width="0.35 px" style="stroke-width:0.35;stroke-miterlimit:4;stroke-dasharray:none;fill:none;fill-opacity:1;fill-rule: evenodd"/>
<path id="Shape2DView_nwe0133"  d="M 4.476 0.46 L 4.476000000000001 -0.46 " stroke="#191919" stroke-width="0.35 px" style="stroke-width:0.35;stroke-miterlimit:4;stroke-dasharray:none;fill:none;fill-opacity:1;fill-rule: evenodd"/>
<path id="Shape2DView_nwe0134"  d="M 3.81 -0.46 L 3.8099999999999987 0.46 " stroke="#191919" stroke-width="0.35 px" style="stroke-width:0.35;stroke-miterlimit:4;stroke-dasharray:none;fill:none;fill-opacity:1;fill-rule: evenodd"/>
<path id="Shape2DView_nwe0135"  d="M -2.985 6.335 L -2.661276356577 6.011276356577 " stroke="#191919" stroke-width="0.35 px" style="stroke-width:0.35;stroke-miterlimit:4;stroke-dasharray:none;fill:none;fill-opacity:1;fill-rule: evenodd"/>
<path id="Shape2DView_nwe0136"  d="M -0.7462405778300001 6.011276356576996 L -2.661276356577 6.011276356576993 " stroke="#191919" stroke-width="0.35 px" style="stroke-width:0.35;stroke-miterlimit:4;stroke-dasharray:none;fill:none;fill-opacity:1;fill-rule: evenodd"/>
<path id="Shape2DView_nwe0137"  d="M -0.7493474955903655 6.117554637412059 L -0.74624057783 6.0112763565769995 " stroke="#191919" stroke-width="0.35 px" style="stroke-width:0.35;stroke-miterlimit:4;stroke-dasharray:none;fill:none;fill-opacity:1;fill-rule: evenodd"/>
<path id="Shape2DView_nwe0138"  d="M -0.749347495591 6.117554637412 L 0.749347495591 6.117554637411999 " stroke="#191919" stroke-width="0.35 px" style="stroke-width:0.35;stroke-miterlimit:4;stroke-dasharray:none;fill:none;fill-opacity:1;fill-rule: evenodd"/>
<path id="Shape2DView_nwe0139"  d="M 0.7493474955903655 6.117554637412059 L 0.74624057783 6.0112763565769995 " stroke="#191919" stroke-width="0.35 px" style="stroke-width:0.35;stroke-miterlimit:4;stroke-dasharray:none;fill:none;fill-opacity:1;fill-rule: evenodd"/>
<path id="Shape2DView_nwe0140"  d="M 2.661276356577 6.011276356577 L 0.7462405778300001 6.011276356576998 " stroke="#191919" stroke-width="0.35 px" style="stroke-width:0.35;stroke-miterlimit:4;stroke-dasharray:none;fill:none;fill-opacity:1;fill-rule: evenodd"/>
<path id="Shape2DView_nwe0141"  d="M -2.984999999999999 5.54 L -2.9849999999999977 4.62 " stroke="#191919" stroke-width="0.35 px" style="stroke-width:0.35;stroke-miterlimit:4;stroke-dasharray:none;fill:none;fill-opacity:1;fill-rule: evenodd"/>
<path id="Shape2DView_nwe0142"  d="M -2.9849999999999954 3.0 L -2.984999999999994 2.08 " stroke="#191919" stroke-width="0.35 px" style="stroke-width:0.35;stroke-miterlimit:4;stroke-dasharray:none;fill:none;fill-opacity:1;fill-rule: evenodd"/>
<path id="Shape2DView_nwe0143"  d="M -2.984999999999992 0.45999999999999996 L -2.984999999999991 -0.45999999999999996 " stroke="#191919" stroke-width="0.35 px" style="stroke-width:0.35;stroke-miterlimit:4;stroke-dasharray:none;fill:none;fill-opacity:1;fill-rule: evenodd"/>
<path id="Shape2DView_nwe0144"  d="M -2.9849999999999888 -2.079999999999999 L -2.9849999999999874 -3.000000000000001 " stroke="#191919" stroke-width="0.35 px" style="stroke-width:0.35;stroke-miterlimit:4;stroke-dasharray:none;fill:none;fill-opacity:1;fill-rule: evenodd"/>
<path id="Shape2DView_nwe0145"  d="M -2.984999999999985 -4.62 L -2.984999999999984 -5.54 " stroke="#191919" stroke-width="0.35 px" style="stroke-width:0.35;stroke-miterlimit:4;stroke-dasharray:none;fill:none;fill-opacity:1;fill-rule: evenodd"/>
<path id="Shape2DView_nwe0146"  d="M -2.985 -6.335 L -2.661276356577 -6.011276356577 " stroke="#191919" stroke-width="0.35 px" style="stroke-width:0.35;stroke-miterlimit:4;stroke-dasharray:none;fill:none;fill-opacity:1;fill-rule: evenodd"/>
<path id="Shape2DView_nwe0147"  d="M -2.661276356577 6.011276356577 L -2.661276356576984 -6.011276356577 " stroke="#191919" stroke-width="0.35 px" style="stroke-width:0.35;stroke-miterlimit:4;stroke-dasharray:none;fill:none;fill-opacity:1;fill-rule: evenodd"/>
<path id="Shape2DView_nwe0148"  d="M -3.0599999999999987 5.54 L -3.059999999999998 4.62 " stroke="#191919" stroke-width="0.35 px" style="stroke-width:0.35;stroke-miterlimit:4;stroke-dasharray:none;fill:none;fill-opacity:1;fill-rule: evenodd"/>
<path id="Shape2DView_nwe0149"  d="M -4.476 4.62 L -4.476000000000001 5.54 " stroke="#191919" stroke-width="0.35 px" style="stroke-width:0.35;stroke-miterlimit:4;stroke-dasharray:none;fill:none;fill-opacity:1;fill-rule: evenodd"/>
<path id="Shape2DView_nwe0150"  d="M -3.81 4.62 L -3.8100000000000014 5.54 " stroke="#191919" stroke-width="0.35 px" style="stroke-width:0.35;stroke-miterlimit:4;stroke-dasharray:none;fill:none;fill-opacity:1;fill-rule: evenodd"/>
<path id="Shape2DView_nwe0151"  d="M -3.81 -4.62 L -3.8099999999999987 -5.54 " stroke="#191919" stroke-width="0.35 px" style="stroke-width:0.35;stroke-miterlimit:4;stroke-dasharray:none;fill:none;fill-opacity:1;fill-rule: evenodd"/>
<path id="Shape2DView_nwe0152"  d="M -3.0599999999999854 -4.620000000000001 L -3.059999999999984 -5.539999999999999 " stroke="#191919" stroke-width="0.35 px" style="stroke-width:0.35;stroke-miterlimit:4;stroke-dasharray:none;fill:none;fill-opacity:1;fill-rule: evenodd"/>
<path id="Shape2DView_nwe0153"  d="M -4.476 -5.54 L -4.476000000000001 -4.62 " stroke="#191919" stroke-width="0.35 px" style="stroke-width:0.35;stroke-miterlimit:4;stroke-dasharray:none;fill:none;fill-opacity:1;fill-rule: evenodd"/>
<path id="Shape2DView_nwe0154"  d="M -3.0599999999999956 3.0 L -3.0599999999999943 2.08 " stroke="#191919" stroke-width="0.35 px" style="stroke-width:0.35;stroke-miterlimit:4;stroke-dasharray:none;fill:none;fill-opacity:1;fill-rule: evenodd"/>
<path id="Shape2DView_nwe0155"  d="M -4.476 2.08 L -4.476000000000001 3.0 " stroke="#191919" stroke-width="0.35 px" style="stroke-width:0.35;stroke-miterlimit:4;stroke-dasharray:none;fill:none;fill-opacity:1;fill-rule: evenodd"/>
<path id="Shape2DView_nwe0156"  d="M -3.81 3.0 L -3.8099999999999987 2.08 " stroke="#191919" stroke-width="0.35 px" style="stroke-width:0.35;stroke-miterlimit:4;stroke-dasharray:none;fill:none;fill-opacity:1;fill-rule: evenodd"/>
<path id="Shape2DView_nwe0157"  d="M -3.81 -2.08 L -3.8099999999999987 -3.0 " stroke="#191919" stroke-width="0.35 px" style="stroke-width:0.35;stroke-miterlimit:4;stroke-dasharray:none;fill:none;fill-opacity:1;fill-rule: evenodd"/>
<path id="Shape2DView_nwe0158"  d="M -3.059999999999989 -2.08 L -3.0599999999999876 -3.0 " stroke="#191919" stroke-width="0.35 px" style="stroke-width:0.35;stroke-miterlimit:4;stroke-dasharray:none;fill:none;fill-opacity:1;fill-rule: evenodd"/>
<path id="Shape2DView_nwe0159"  d="M -4.476 -3.0 L -4.476000000000001 -2.08 " stroke="#191919" stroke-width="0.35 px" style="stroke-width:0.35;stroke-miterlimit:4;stroke-dasharray:none;fill:none;fill-opacity:1;fill-rule: evenodd"/>
<path id="Shape2DView_nwe0160"  d="M -3.059999999999992 0.45999999999999996 L -3.0599999999999907 -0.45999999999999996 " stroke="#191919" stroke-width="0.35 px" style="stroke-width:0.35;stroke-miterlimit:4;stroke-dasharray:none;fill:none;fill-opacity:1;fill-rule: evenodd"/>
<path id="Shape2DView_nwe0161"  d="M -4.476 -0.46 L -4.476000000000001 0.46 " stroke="#191919" stroke-width="0.35 px" style="stroke-width:0.35;stroke-miterlimit:4;stroke-dasharray:none;fill:none;fill-opacity:1;fill-rule: evenodd"/>
<path id="Shape2DView_nwe0162"  d="M -3.81 0.46 L -3.8099999999999987 -0.46 " stroke="#191919" stroke-width="0.35 px" style="stroke-width:0.35;stroke-miterlimit:4;stroke-dasharray:none;fill:none;fill-opacity:1;fill-rule: evenodd"/>
<path id="Shape2DView_nwe0163"  d="M -2.661276356577 -6.011276356577 L 2.661276356577 -6.011276356576993 " stroke="#191919" stroke-width="0.35 px" style="stroke-width:0.35;stroke-miterlimit:4;stroke-dasharray:none;fill:none;fill-opacity:1;fill-rule: evenodd"/>
<path id="Shape2DView_nwe0164"  d="M -1.4506125113327502e-14 5.336276356577 A 0.75 0.75 0 0 0 -0.746241 6.01128" stroke="#191919" stroke-width="0.35 px" style="stroke-width:0.35;stroke-miterlimit:4;stroke-dasharray:none;fill:none;fill-opacity:1;fill-rule: evenodd"/>
<path id="Shape2DView_nwe0165"  d="M 0.74624057782995 6.011276356577006 A 0.75 0.75 0 0 0 -1.43224e-14 5.33628" stroke="#191919" stroke-width="0.35 px" style="stroke-width:0.35;stroke-miterlimit:4;stroke-dasharray:none;fill:none;fill-opacity:1;fill-rule: evenodd"/>
<path id="Shape2DView_nwe0166"  d="M -0.7462405778299802 6.011276356576996 A 0.75 0.75 0 0 0 -0.749347 6.11755" stroke="#191919" stroke-width="0.35 px" style="stroke-width:0.35;stroke-miterlimit:4;stroke-dasharray:none;fill:none;fill-opacity:1;fill-rule: evenodd"/>
<path id="Shape2DView_nwe0167"  d="M 0.7493474955906535 6.117554637411986 A 0.75 0.75 0 0 0 0.746241 6.01128" stroke="#191919" stroke-width="0.35 px" style="stroke-width:0.35;stroke-miterlimit:4;stroke-dasharray:none;fill:none;fill-opacity:1;fill-rule: evenodd"/>
<path id="Shape2DView_nwe0168"  d="M 3.937 -5.54 L 3.9369999999999985 -4.62 " stroke="#191919" stroke-width="0.35 px" style="stroke-width:0.35;stroke-miterlimit:4;stroke-dasharray:none;fill:none;fill-opacity:1;fill-rule: evenodd"/>
<path id="Shape2DView_nwe0169"  d="M 3.429 -4.62 L 3.429000000000001 -5.54 " stroke="#191919" stroke-width="0.35 px" style="stroke-width:0.35;stroke-miterlimit:4;stroke-dasharray:none;fill:none;fill-opacity:1;fill-rule: evenodd"/>
<path id="Shape2DView_nwe0170"  d="M 3.429 4.62 L 3.4289999999999985 5.54 " stroke="#191919" stroke-width="0.35 px" style="stroke-width:0.35;stroke-miterlimit:4;stroke-dasharray:none;fill:none;fill-opacity:1;fill-rule: evenodd"/>
<path id="Shape2DView_nwe0171"  d="M 3.937 4.62 L 3.9369999999999985 5.54 " stroke="#191919" stroke-width="0.35 px" style="stroke-width:0.35;stroke-miterlimit:4;stroke-dasharray:none;fill:none;fill-opacity:1;fill-rule: evenodd"/>
<path id="Shape2DView_nwe0172"  d="M 3.937 -3.0 L 3.9369999999999985 -2.08 " stroke="#191919" stroke-width="0.35 px" style="stroke-width:0.35;stroke-miterlimit:4;stroke-dasharray:none;fill:none;fill-opacity:1;fill-rule: evenodd"/>
<path id="Shape2DView_nwe0173"  d="M 3.429 -3.0 L 3.4289999999999985 -2.08 " stroke="#191919" stroke-width="0.35 px" style="stroke-width:0.35;stroke-miterlimit:4;stroke-dasharray:none;fill:none;fill-opacity:1;fill-rule: evenodd"/>
<path id="Shape2DView_nwe0174"  d="M 3.429 2.08 L 3.4289999999999985 3.0 " stroke="#191919" stroke-width="0.35 px" style="stroke-width:0.35;stroke-miterlimit:4;stroke-dasharray:none;fill:none;fill-opacity:1;fill-rule: evenodd"/>
<path id="Shape2DView_nwe0175"  d="M 3.937 2.08 L 3.9369999999999985 3.0 " stroke="#191919" stroke-width="0.35 px" style="stroke-width:0.35;stroke-miterlimit:4;stroke-dasharray:none;fill:none;fill-opacity:1;fill-rule: evenodd"/>
<path id="Shape2DView_nwe0176"  d="M 3.937 -0.46 L 3.9369999999999985 0.46 " stroke="#191919" stroke-width="0.35 px" style="stroke-width:0.35;stroke-miterlimit:4;stroke-dasharray:none;fill:none;fill-opacity:1;fill-rule: evenodd"/>
<path id="Shape2DView_nwe0177"  d="M 3.429 -0.46 L 3.4289999999999985 0.46 " stroke="#191919" stroke-width="0.35 px" style="stroke-width:0.35;stroke-miterlimit:4;stroke-dasharray:none;fill:none;fill-opacity:1;fill-rule: evenodd"/>
<path id="Shape2DView_nwe0178"  d="M -3.937 5.54 L -3.9369999999999985 4.62 " stroke="#191919" stroke-width="0.35 px" style="stroke-width:0.35;stroke-miterlimit:4;stroke-dasharray:none;fill:none;fill-opacity:1;fill-rule: evenodd"/>
<path id="Shape2DView_nwe0179"  d="M -3.429 4.62 L -3.429000000000001 5.54 " stroke="#191919" stroke-width="0.35 px" style="stroke-width:0.35;stroke-miterlimit:4;stroke-dasharray:none;fill:none;fill-opacity:1;fill-rule: evenodd"/>
<path id="Shape2DView_nwe0180"  d="M -3.429 -4.62 L -3.4289999999999985 -5.54 " stroke="#191919" stroke-width="0.35 px" style="stroke-width:0.35;stroke-miterlimit:4;stroke-dasharray:none;fill:none;fill-opacity:1;fill-rule: evenodd"/>
<path id="Shape2DView_nwe0181"  d="M -3.937 -4.62 L -3.9369999999999985 -5.54 " stroke="#191919" stroke-width="0.35 px" style="stroke-width:0.35;stroke-miterlimit:4;stroke-dasharray:none;fill:none;fill-opacity:1;fill-rule: evenodd"/>
<path id="Shape2DView_nwe0182"  d="M -3.937 3.0 L -3.9369999999999985 2.08 " stroke="#191919" stroke-width="0.35 px" style="stroke-width:0.35;stroke-miterlimit:4;stroke-dasharray:none;fill:none;fill-opacity:1;fill-rule: evenodd"/>
<path id="Shape2DView_nwe0183"  d="M -3.429 3.0 L -3.4289999999999985 2.08 " stroke="#191919" stroke-width="0.35 px" style="stroke-width:0.35;stroke-miterlimit:4;stroke-dasharray:none;fill:none;fill-opacity:1;fill-rule: evenodd"/>
<path id="Shape2DView_nwe0184"  d="M -3.429 -2.08 L -3.4289999999999985 -3.0 " stroke="#191919" stroke-width="0.35 px" style="stroke-width:0.35;stroke-miterlimit:4;stroke-dasharray:none;fill:none;fill-opacity:1;fill-rule: evenodd"/>
<path id="Shape2DView_nwe0185"  d="M -3.937 -2.08 L -3.9369999999999985 -3.0 " stroke="#191919" stroke-width="0.35 px" style="stroke-width:0.35;stroke-miterlimit:4;stroke-dasharray:none;fill:none;fill-opacity:1;fill-rule: evenodd"/>
<path id="Shape2DView_nwe0186"  d="M -3.937 0.46 L -3.9369999999999985 -0.46 " stroke="#191919" stroke-width="0.35 px" style="stroke-width:0.35;stroke-miterlimit:4;stroke-dasharray:none;fill:none;fill-opacity:1;fill-rule: evenodd"/>
<path id="Shape2DView_nwe0187"  d="M -3.429 0.46 L -3.4289999999999985 -0.46 " stroke="#191919" stroke-width="0.35 px" style="stroke-width:0.35;stroke-miterlimit:4;stroke-dasharray:none;fill:none;fill-opacity:1;fill-rule: evenodd"/>
<path id="Shape2DView_nwe0188"  d="M 2.9850000000000003 -5.5399999999999965 L 3.0600000000000005 -5.5399999999999965 " stroke="#191919" stroke-width="0.35 px" style="stroke-width:0.35;stroke-miterlimit:4;stroke-dasharray:none;fill:none;fill-opacity:1;fill-rule: evenodd"/>
<path id="Shape2DView_nwe0189"  d="M 3.06 5.539999999999999 L 2.985 5.539999999999999 " stroke="#191919" stroke-width="0.35 px" style="stroke-width:0.35;stroke-miterlimit:4;stroke-dasharray:none;fill:none;fill-opacity:1;fill-rule: evenodd"/>
<path id="Shape2DView_nwe0190"  d="M 3.06 -4.620000000000001 L 2.985 -4.620000000000001 " stroke="#191919" stroke-width="0.35 px" style="stroke-width:0.35;stroke-miterlimit:4;stroke-dasharray:none;fill:none;fill-opacity:1;fill-rule: evenodd"/>
<path id="Shape2DView_nwe0191"  d="M 3.06 -3.000000000000001 L 2.985 -3.000000000000001 " stroke="#191919" stroke-width="0.35 px" style="stroke-width:0.35;stroke-miterlimit:4;stroke-dasharray:none;fill:none;fill-opacity:1;fill-rule: evenodd"/>
<path id="Shape2DView_nwe0192"  d="M 3.06 2.999999999999999 L 2.985 2.999999999999999 " stroke="#191919" stroke-width="0.35 px" style="stroke-width:0.35;stroke-miterlimit:4;stroke-dasharray:none;fill:none;fill-opacity:1;fill-rule: evenodd"/>
<path id="Shape2DView_nwe0193"  d="M 3.06 4.619999999999999 L 2.985 4.619999999999999 " stroke="#191919" stroke-width="0.35 px" style="stroke-width:0.35;stroke-miterlimit:4;stroke-dasharray:none;fill:none;fill-opacity:1;fill-rule: evenodd"/>
<path id="Shape2DView_nwe0194"  d="M 3.06 -2.080000000000001 L 2.985 -2.080000000000001 " stroke="#191919" stroke-width="0.35 px" style="stroke-width:0.35;stroke-miterlimit:4;stroke-dasharray:none;fill:none;fill-opacity:1;fill-rule: evenodd"/>
<path id="Shape2DView_nwe0195"  d="M 3.06 -0.4600000000000009 L 2.985 -0.460000000000001 " stroke="#191919" stroke-width="0.35 px" style="stroke-width:0.35;stroke-miterlimit:4;stroke-dasharray:none;fill:none;fill-opacity:1;fill-rule: evenodd"/>
<path id="Shape2DView_nwe0196"  d="M 3.06 0.45999999999999913 L 2.985 0.459999999999999 " stroke="#191919" stroke-width="0.35 px" style="stroke-width:0.35;stroke-miterlimit:4;stroke-dasharray:none;fill:none;fill-opacity:1;fill-rule: evenodd"/>
<path id="Shape2DView_nwe0197"  d="M 3.06 2.079999999999999 L 2.985 2.079999999999999 " stroke="#191919" stroke-width="0.35 px" style="stroke-width:0.35;stroke-miterlimit:4;stroke-dasharray:none;fill:none;fill-opacity:1;fill-rule: evenodd"/>
<path id="Shape2DView_nwe0198"  d="M -2.9850000000000003 5.539999999999996 L -3.0600000000000005 5.539999999999996 " stroke="#191919" stroke-width="0.35 px" style="stroke-width:0.35;stroke-miterlimit:4;stroke-dasharray:none;fill:none;fill-opacity:1;fill-rule: evenodd"/>
<path id="Shape2DView_nwe0199"  d="M -3.06 -5.539999999999999 L -2.985 -5.539999999999999 " stroke="#191919" stroke-width="0.35 px" style="stroke-width:0.35;stroke-miterlimit:4;stroke-dasharray:none;fill:none;fill-opacity:1;fill-rule: evenodd"/>
<path id="Shape2DView_nwe0200"  d="M -3.06 4.620000000000001 L -2.985 4.620000000000001 " stroke="#191919" stroke-width="0.35 px" style="stroke-width:0.35;stroke-miterlimit:4;stroke-dasharray:none;fill:none;fill-opacity:1;fill-rule: evenodd"/>
<path id="Shape2DView_nwe0201"  d="M -3.06 3.000000000000001 L -2.985 3.000000000000001 " stroke="#191919" stroke-width="0.35 px" style="stroke-width:0.35;stroke-miterlimit:4;stroke-dasharray:none;fill:none;fill-opacity:1;fill-rule: evenodd"/>
<path id="Shape2DView_nwe0202"  d="M -3.06 -2.999999999999999 L -2.985 -2.999999999999999 " stroke="#191919" stroke-width="0.35 px" style="stroke-width:0.35;stroke-miterlimit:4;stroke-dasharray:none;fill:none;fill-opacity:1;fill-rule: evenodd"/>
<path id="Shape2DView_nwe0203"  d="M -3.06 -4.619999999999999 L -2.985 -4.619999999999999 " stroke="#191919" stroke-width="0.35 px" style="stroke-width:0.35;stroke-miterlimit:4;stroke-dasharray:none;fill:none;fill-opacity:1;fill-rule: evenodd"/>
<path id="Shape2DView_nwe0204"  d="M -3.06 2.080000000000001 L -2.985 2.080000000000001 " stroke="#191919" stroke-width="0.35 px" style="stroke-width:0.35;stroke-miterlimit:4;stroke-dasharray:none;fill:none;fill-opacity:1;fill-rule: evenodd"/>
<path id="Shape2DView_nwe0205"  d="M -3.06 0.460000000000001 L -2.985 0.46000000000000113 " stroke="#191919" stroke-width="0.35 px" style="stroke-width:0.35;stroke-miterlimit:4;stroke-dasharray:none;fill:none;fill-opacity:1;fill-rule: evenodd"/>
<path id="Shape2DView_nwe0206"  d="M -3.06 -0.459999999999999 L -2.985 -0.4599999999999989 " stroke="#191919" stroke-width="0.35 px" style="stroke-width:0.35;stroke-miterlimit:4;stroke-dasharray:none;fill:none;fill-opacity:1;fill-rule: evenodd"/>
<path id="Shape2DView_nwe0207"  d="M -3.06 -2.079999999999999 L -2.985 -2.079999999999999 " stroke="#191919" stroke-width="0.35 px" style="stroke-width:0.35;stroke-miterlimit:4;stroke-dasharray:none;fill:none;fill-opacity:1;fill-rule: evenodd"/>
<title>b'Shape2DView'</title>
</g>
<g id="Rectangle" transform="translate(4.565520,6.499520) scale(1,-1)">
<rect fill="#ff0000" id="origin" width="1" height="1" x="0" y="0" />
<title>b'Rectangle'</title>
</g>
</svg>