<?xml version="1.0"?>
<!DOCTYPE svg PUBLIC "-//W3C//DTD SVG 1.1//EN" "http://www.w3.org/Graphics/SVG/1.1/DTD/svg11.dtd">
<svg width="9.131040000000002mm" height="5.37904mm" viewBox="0 0 9.131040000000002 5.37904" xmlns="http://www.w3.org/2000/svg" version="1.1">
<g id="Shape2DView" transform="translate(4.565520,2.689520) scale(1,-1)">
<path id="Shape2DView_nwe0000"  d="M 3.06 -2.6 L 3.0599999999999987 -1.73 " stroke="#191919" stroke-width="0.35 px" style="stroke-width:0.35;stroke-miterlimit:4;stroke-dasharray:none;fill:none;fill-opacity:1;fill-rule: evenodd"/>
<path id="Shape2DView_nwe0001"  d="M 3.0599999999999943 1.73 L 3.059999999999993 2.6 " stroke="#191919" stroke-width="0.35 px" style="stroke-width:0.35;stroke-miterlimit:4;stroke-dasharray:none;fill:none;fill-opacity:1;fill-rule: evenodd"/>
<path id="Shape2DView_nwe0002"  d="M 3.059999999999998 -0.81 L 3.0599999999999956 0.81 " stroke="#191919" stroke-width="0.35 px" style="stroke-width:0.35;stroke-miterlimit:4;stroke-dasharray:none;fill:none;fill-opacity:1;fill-rule: evenodd"/>
<path id="Shape2DView_nwe0003"  d="M 3.06 2.6 L -3.06 2.599999999999992 " stroke="#191919" stroke-width="0.35 px" style="stroke-width:0.35;stroke-miterlimit:4;stroke-dasharray:none;fill:none;fill-opacity:1;fill-rule: evenodd"/>
<path id="Shape2DView_nwe0004"  d="M -3.06 2.6 L -3.0599999999999987 1.73 " stroke="#191919" stroke-width="0.35 px" style="stroke-width:0.35;stroke-miterlimit:4;stroke-dasharray:none;fill:none;fill-opacity:1;fill-rule: evenodd"/>
<path id="Shape2DView_nwe0005"  d="M -3.0599999999999943 -1.73 L -3.059999999999993 -2.6 " stroke="#191919" stroke-width="0.35 px" style="stroke-width:0.35;stroke-miterlimit:4;stroke-dasharray:none;fill:none;fill-opacity:1;fill-rule: evenodd"/>
<path id="Shape2DView_nwe0006"  d="M -3.059999999999998 0.81 L -3.0599999999999956 -0.81 " stroke="#191919" stroke-width="0.35 px" style="stroke-width:0.35;stroke-miterlimit:4;stroke-dasharray:none;fill:none;fill-opacity:1;fill-rule: evenodd"/>
<path id="Shape2DView_nwe0007"  d="M -3.06 -2.6 L 3.06 -2.599999999999992 " stroke="#191919" stroke-width="0.35 px" style="stroke-width:0.35;stroke-miterlimit:4;stroke-dasharray:none;fill:none;fill-opacity:1;fill-rule: evenodd"/>
<path id="Shape2DView_nwe0008"  d="M 3.06 -2.6 L 2.985 -2.525 " stroke="#191919" stroke-width="0.35 px" style="stroke-width:0.35;stroke-miterlimit:4;stroke-dasharray:none;fill:none;fill-opacity:1;fill-rule: evenodd"/>
<path id="Shape2DView_nwe0009"  d="M 2.985 -2.525 L 2.984999999999999 -1.73 " stroke="#191919" stroke-width="0.35 px" style="stroke-width:0.35;stroke-miterlimit:4;stroke-dasharray:none;fill:none;fill-opacity:1;fill-rule: evenodd"/>
<path id="Shape2DView_nwe0010"  d="M 3.8099999999999996 -1.7300000000000002 L 3.810798549343558 -1.7300000000000002 L 3.8131841551529084 -1.7300000000000002 L 3.8171268170508372 -1.7300000000000002 L 3.8225769537763927 -1.7300000000000002 L 3.829466026698008 -1.7300000000000002 L 3.83770740172656 -1.7300000000000002 L 3.8471974387893084 -1.73 L 3.8578167951639406 -1.73 L 3.869431926282552 -1.73 L 3.88189676513207 -1.73 L 3.8950545591316934 -1.73 L 3.908739841387548 -1.73 L 3.9227805115348797 -1.73 L 3.937 -1.73 " stroke="#191919" stroke-width="0.35 px" style="stroke-width:0.35;stroke-miterlimit:4;stroke-dasharray:none;fill:none;fill-opacity:1;fill-rule: evenodd"/>
<path id="Shape2DView_nwe0011"  d="M 3.429 -1.73 L 3.47165846539536 -1.73 L 3.5137804758373554 -1.73 L 3.5548363226049187 -1.7299999999999998 L 3.5943097046037895 -1.7299999999999998 L 3.631704221152343 -1.7299999999999998 L 3.6665496145081775 -1.7299999999999998 L 3.6984076836320745 -1.7299999999999998 L 3.7268777948203193 -1.7299999999999995 L 3.7516019199059762 -1.7299999999999995 L 3.7722691386708216 -1.7299999999999995 L 3.788619548847488 -1.7299999999999995 L 3.8004475345412745 -1.7299999999999995 L 3.8076043519693252 -1.7299999999999995 L 3.8099999999999996 -1.7299999999999995 " stroke="#191919" stroke-width="0.35 px" style="stroke-width:0.35;stroke-miterlimit:4;stroke-dasharray:none;fill:none;fill-opacity:1;fill-rule: evenodd"/>
<path id="Shape2DView_nwe0012"  d="M 3.0600000000000005 -1.7299999999999962 L 3.4290000000000003 -1.7299999999999958 " stroke="#191919" stroke-width="0.35 px" style="stroke-width:0.35;stroke-miterlimit:4;stroke-dasharray:none;fill:none;fill-opacity:1;fill-rule: evenodd"/>
<path id="Shape2DView_nwe0013"  d="M 4.476 -1.73 L 3.937 -1.7300000000000006 " stroke="#191919" stroke-width="0.35 px" style="stroke-width:0.35;stroke-miterlimit:4;stroke-dasharray:none;fill:none;fill-opacity:1;fill-rule: evenodd"/>
<path id="Shape2DView_nwe0014"  d="M 3.8099999999999996 1.7299999999999998 L 3.810798549343558 1.7299999999999998 L 3.8131841551529084 1.7299999999999998 L 3.8171268170508372 1.7299999999999998 L 3.8225769537763927 1.7299999999999998 L 3.829466026698008 1.7299999999999998 L 3.83770740172656 1.7299999999999998 L 3.8471974387893084 1.73 L 3.8578167951639406 1.73 L 3.869431926282552 1.73 L 3.88189676513207 1.73 L 3.8950545591316934 1.73 L 3.908739841387548 1.73 L 3.9227805115348797 1.73 L 3.937 1.73 " stroke="#191919" stroke-width="0.35 px" style="stroke-width:0.35;stroke-miterlimit:4;stroke-dasharray:none;fill:none;fill-opacity:1;fill-rule: evenodd"/>
<path id="Shape2DView_nwe0015"  d="M 3.937 1.7300000000000004 L 4.476 1.730000000000001 " stroke="#191919" stroke-width="0.35 px" style="stroke-width:0.35;stroke-miterlimit:4;stroke-dasharray:none;fill:none;fill-opacity:1;fill-rule: evenodd"/>
<path id="Shape2DView_nwe0016"  d="M 3.429 1.7299999999999995 L 3.06 1.729999999999999 " stroke="#191919" stroke-width="0.35 px" style="stroke-width:0.35;stroke-miterlimit:4;stroke-dasharray:none;fill:none;fill-opacity:1;fill-rule: evenodd"/>
<path id="Shape2DView_nwe0017"  d="M 3.429 1.73 L 3.47165846539536 1.73 L 3.5137804758373554 1.73 L 3.5548363226049187 1.7300000000000002 L 3.5943097046037895 1.7300000000000002 L 3.631704221152343 1.7300000000000002 L 3.666549614508177 1.7300000000000002 L 3.6984076836320745 1.7300000000000002 L 3.7268777948203193 1.7300000000000004 L 3.7516019199059762 1.7300000000000004 L 3.7722691386708216 1.7300000000000004 L 3.788619548847488 1.7300000000000004 L 3.8004475345412745 1.7300000000000004 L 3.8076043519693252 1.7300000000000004 L 3.8099999999999996 1.7300000000000004 " stroke="#191919" stroke-width="0.35 px" style="stroke-width:0.35;stroke-miterlimit:4;stroke-dasharray:none;fill:none;fill-opacity:1;fill-rule: evenodd"/>
<path id="Shape2DView_nwe0018"  d="M 3.06 2.6 L 2.985 2.525 " stroke="#191919" stroke-width="0.35 px" style="stroke-width:0.35;stroke-miterlimit:4;stroke-dasharray:none;fill:none;fill-opacity:1;fill-rule: evenodd"/>
<path id="Shape2DView_nwe0019"  d="M 2.984999999999994 1.73 L 2.984999999999993 2.525 " stroke="#191919" stroke-width="0.35 px" style="stroke-width:0.35;stroke-miterlimit:4;stroke-dasharray:none;fill:none;fill-opacity:1;fill-rule: evenodd"/>
<path id="Shape2DView_nwe0020"  d="M 3.8099999999999996 -0.8100000000000002 L 3.810798549343558 -0.8100000000000002 L 3.8131841551529084 -0.8100000000000002 L 3.8171268170508372 -0.8100000000000002 L 3.8225769537763927 -0.8100000000000002 L 3.829466026698008 -0.8100000000000002 L 3.83770740172656 -0.8100000000000002 L 3.8471974387893084 -0.8100000000000002 L 3.8578167951639406 -0.8100000000000002 L 3.869431926282552 -0.8100000000000002 L 3.88189676513207 -0.8100000000000002 L 3.8950545591316934 -0.81 L 3.908739841387548 -0.81 L 3.9227805115348797 -0.81 L 3.937 -0.81 " stroke="#191919" stroke-width="0.35 px" style="stroke-width:0.35;stroke-miterlimit:4;stroke-dasharray:none;fill:none;fill-opacity:1;fill-rule: evenodd"/>
<path id="Shape2DView_nwe0021"  d="M 3.937 -0.8099999999999996 L 4.476 -0.8099999999999989 " stroke="#191919" stroke-width="0.35 px" style="stroke-width:0.35;stroke-miterlimit:4;stroke-dasharray:none;fill:none;fill-opacity:1;fill-rule: evenodd"/>
<path id="Shape2DView_nwe0022"  d="M 3.429 -0.8100000000000004 L 3.06 -0.8100000000000008 " stroke="#191919" stroke-width="0.35 px" style="stroke-width:0.35;stroke-miterlimit:4;stroke-dasharray:none;fill:none;fill-opacity:1;fill-rule: evenodd"/>
<path id="Shape2DView_nwe0023"  d="M 3.429 -0.81 L 3.47165846539536 -0.81 L 3.5137804758373554 -0.8099999999999999 L 3.5548363226049187 -0.8099999999999999 L 3.5943097046037895 -0.8099999999999998 L 3.631704221152343 -0.8099999999999998 L 3.6665496145081775 -0.8099999999999997 L 3.6984076836320745 -0.8099999999999997 L 3.7268777948203193 -0.8099999999999997 L 3.7516019199059762 -0.8099999999999996 L 3.7722691386708216 -0.8099999999999996 L 3.788619548847488 -0.8099999999999996 L 3.8004475345412745 -0.8099999999999996 L 3.8076043519693252 -0.8099999999999996 L 3.8099999999999996 -0.8099999999999996 " stroke="#191919" stroke-width="0.35 px" style="stroke-width:0.35;stroke-miterlimit:4;stroke-dasharray:none;fill:none;fill-opacity:1;fill-rule: evenodd"/>
<path id="Shape2DView_nwe0024"  d="M 3.8099999999999996 0.8099999999999999 L 3.810798549343558 0.8099999999999999 L 3.8131841551529084 0.8099999999999999 L 3.8171268170508372 0.8099999999999999 L 3.8225769537763927 0.8099999999999999 L 3.829466026698008 0.8099999999999999 L 3.83770740172656 0.8099999999999999 L 3.8471974387893084 0.8099999999999999 L 3.8578167951639406 0.8099999999999999 L 3.869431926282552 0.8099999999999999 L 3.88189676513207 0.8099999999999999 L 3.8950545591316934 0.81 L 3.908739841387548 0.81 L 3.9227805115348797 0.81 L 3.937 0.81 " stroke="#191919" stroke-width="0.35 px" style="stroke-width:0.35;stroke-miterlimit:4;stroke-dasharray:none;fill:none;fill-opacity:1;fill-rule: evenodd"/>
<path id="Shape2DView_nwe0025"  d="M 3.429 0.81 L 3.47165846539536 0.81 L 3.5137804758373554 0.8100000000000002 L 3.5548363226049187 0.8100000000000002 L 3.5943097046037895 0.8100000000000003 L 3.631704221152343 0.8100000000000003 L 3.666549614508177 0.8100000000000004 L 3.6984076836320745 0.8100000000000004 L 3.7268777948203193 0.8100000000000004 L 3.7516019199059762 0.8100000000000005 L 3.7722691386708216 0.8100000000000005 L 3.788619548847488 0.8100000000000005 L 3.8004475345412745 0.8100000000000005 L 3.8076043519693252 0.8100000000000005 L 3.8099999999999996 0.8100000000000005 " stroke="#191919" stroke-width="0.35 px" style="stroke-width:0.35;stroke-miterlimit:4;stroke-dasharray:none;fill:none;fill-opacity:1;fill-rule: evenodd"/>
<path id="Shape2DView_nwe0026"  d="M 3.429 0.8099999999999996 L 3.06 0.8099999999999992 " stroke="#191919" stroke-width="0.35 px" style="stroke-width:0.35;stroke-miterlimit:4;stroke-dasharray:none;fill:none;fill-opacity:1;fill-rule: evenodd"/>
<path id="Shape2DView_nwe0027"  d="M 4.476 0.81 L 3.937 0.8099999999999994 " stroke="#191919" stroke-width="0.35 px" style="stroke-width:0.35;stroke-miterlimit:4;stroke-dasharray:none;fill:none;fill-opacity:1;fill-rule: evenodd"/>
<path id="Shape2DView_nwe0028"  d="M 2.9849999999999977 -0.81 L 2.9849999999999954 0.81 " stroke="#191919" stroke-width="0.35 px" style="stroke-width:0.35;stroke-miterlimit:4;stroke-dasharray:none;fill:none;fill-opacity:1;fill-rule: evenodd"/>
<path id="Shape2DView_nwe0029"  d="M -3.06 2.6 L -2.985 2.525 " stroke="#191919" stroke-width="0.35 px" style="stroke-width:0.35;stroke-miterlimit:4;stroke-dasharray:none;fill:none;fill-opacity:1;fill-rule: evenodd"/>
<path id="Shape2DView_nwe0030"  d="M 2.985 2.525 L -2.985 2.524999999999992 " stroke="#191919" stroke-width="0.35 px" style="stroke-width:0.35;stroke-miterlimit:4;stroke-dasharray:none;fill:none;fill-opacity:1;fill-rule: evenodd"/>
<path id="Shape2DView_nwe0031"  d="M -2.985 2.525 L -2.984999999999999 1.73 " stroke="#191919" stroke-width="0.35 px" style="stroke-width:0.35;stroke-miterlimit:4;stroke-dasharray:none;fill:none;fill-opacity:1;fill-rule: evenodd"/>
<path id="Shape2DView_nwe0032"  d="M -3.8099999999999996 1.7300000000000002 L -3.810798549343558 1.7300000000000002 L -3.8131841551529084 1.7300000000000002 L -3.8171268170508372 1.7300000000000002 L -3.8225769537763927 1.7300000000000002 L -3.829466026698008 1.7300000000000002 L -3.83770740172656 1.7300000000000002 L -3.8471974387893084 1.7300000000000002 L -3.8578167951639406 1.73 L -3.869431926282552 1.73 L -3.88189676513207 1.73 L -3.8950545591316934 1.73 L -3.908739841387548 1.73 L -3.9227805115348797 1.73 L -3.937 1.73 " stroke="#191919" stroke-width="0.35 px" style="stroke-width:0.35;stroke-miterlimit:4;stroke-dasharray:none;fill:none;fill-opacity:1;fill-rule: evenodd"/>
<path id="Shape2DView_nwe0033"  d="M -3.429 1.73 L -3.47165846539536 1.73 L -3.5137804758373554 1.7299999999999998 L -3.5548363226049187 1.7299999999999998 L -3.5943097046037895 1.7299999999999998 L -3.631704221152343 1.7299999999999998 L -3.6665496145081775 1.7299999999999998 L -3.6984076836320745 1.7299999999999995 L -3.7268777948203193 1.7299999999999995 L -3.7516019199059762 1.7299999999999995 L -3.7722691386708216 1.7299999999999995 L -3.788619548847488 1.7299999999999995 L -3.8004475345412745 1.7299999999999995 L -3.8076043519693252 1.7299999999999995 L -3.8099999999999996 1.7299999999999995 " stroke="#191919" stroke-width="0.35 px" style="stroke-width:0.35;stroke-miterlimit:4;stroke-dasharray:none;fill:none;fill-opacity:1;fill-rule: evenodd"/>
<path id="Shape2DView_nwe0034"  d="M -3.0600000000000005 1.7299999999999958 L -3.4290000000000003 1.7299999999999953 " stroke="#191919" stroke-width="0.35 px" style="stroke-width:0.35;stroke-miterlimit:4;stroke-dasharray:none;fill:none;fill-opacity:1;fill-rule: evenodd"/>
<path id="Shape2DView_nwe0035"  d="M -4.476 1.73 L -3.937 1.7300000000000006 " stroke="#191919" stroke-width="0.35 px" style="stroke-width:0.35;stroke-miterlimit:4;stroke-dasharray:none;fill:none;fill-opacity:1;fill-rule: evenodd"/>
<path id="Shape2DView_nwe0036"  d="M -3.8099999999999996 -1.7299999999999998 L -3.810798549343558 -1.7299999999999998 L -3.8131841551529084 -1.7299999999999998 L -3.8171268170508372 -1.7299999999999998 L -3.8225769537763927 -1.7299999999999998 L -3.829466026698008 -1.7299999999999998 L -3.83770740172656 -1.7299999999999998 L -3.8471974387893084 -1.7299999999999998 L -3.8578167951639406 -1.73 L -3.869431926282552 -1.73 L -3.88189676513207 -1.73 L -3.8950545591316934 -1.73 L -3.908739841387548 -1.73 L -3.9227805115348797 -1.73 L -3.937 -1.73 " stroke="#191919" stroke-width="0.35 px" style="stroke-width:0.35;stroke-miterlimit:4;stroke-dasharray:none;fill:none;fill-opacity:1;fill-rule: evenodd"/>
<path id="Shape2DView_nwe0037"  d="M -3.937 -1.7300000000000004 L -4.476 -1.7300000000000013 " stroke="#191919" stroke-width="0.35 px" style="stroke-width:0.35;stroke-miterlimit:4;stroke-dasharray:none;fill:none;fill-opacity:1;fill-rule: evenodd"/>
<path id="Shape2DView_nwe0038"  d="M -3.429 -1.7299999999999995 L -3.06 -1.729999999999999 " stroke="#191919" stroke-width="0.35 px" style="stroke-width:0.35;stroke-miterlimit:4;stroke-dasharray:none;fill:none;fill-opacity:1;fill-rule: evenodd"/>
<path id="Shape2DView_nwe0039"  d="M -3.429 -1.73 L -3.47165846539536 -1.73 L -3.5137804758373554 -1.7300000000000002 L -3.5548363226049187 -1.7300000000000002 L -3.5943097046037895 -1.7300000000000002 L -3.631704221152343 -1.7300000000000002 L -3.666549614508177 -1.7300000000000002 L -3.6984076836320745 -1.7300000000000004 L -3.7268777948203193 -1.7300000000000004 L -3.7516019199059762 -1.7300000000000004 L -3.7722691386708216 -1.7300000000000004 L -3.788619548847488 -1.7300000000000004 L -3.8004475345412745 -1.7300000000000004 L -3.8076043519693252 -1.7300000000000004 L -3.8099999999999996 -1.7300000000000004 " stroke="#191919" stroke-width="0.35 px" style="stroke-width:0.35;stroke-miterlimit:4;stroke-dasharray:none;fill:none;fill-opacity:1;fill-rule: evenodd"/>
<path id="Shape2DView_nwe0040"  d="M -3.06 -2.6 L -2.985 -2.525 " stroke="#191919" stroke-width="0.35 px" style="stroke-width:0.35;stroke-miterlimit:4;stroke-dasharray:none;fill:none;fill-opacity:1;fill-rule: evenodd"/>
<path id="Shape2DView_nwe0041"  d="M -2.984999999999994 -1.73 L -2.984999999999993 -2.525 " stroke="#191919" stroke-width="0.35 px" style="stroke-width:0.35;stroke-miterlimit:4;stroke-dasharray:none;fill:none;fill-opacity:1;fill-rule: evenodd"/>
<path id="Shape2DView_nwe0042"  d="M -3.8099999999999996 0.8100000000000003 L -3.810798549343558 0.8100000000000003 L -3.8131841551529084 0.8100000000000002 L -3.8171268170508372 0.8100000000000002 L -3.8225769537763927 0.8100000000000002 L -3.829466026698008 0.8100000000000002 L -3.83770740172656 0.8100000000000002 L -3.8471974387893084 0.8100000000000002 L -3.8578167951639406 0.8100000000000002 L -3.869431926282552 0.8100000000000002 L -3.88189676513207 0.8100000000000002 L -3.8950545591316934 0.8100000000000002 L -3.908739841387548 0.81 L -3.9227805115348797 0.81 L -3.937 0.81 " stroke="#191919" stroke-width="0.35 px" style="stroke-width:0.35;stroke-miterlimit:4;stroke-dasharray:none;fill:none;fill-opacity:1;fill-rule: evenodd"/>
<path id="Shape2DView_nwe0043"  d="M -3.937 0.8099999999999995 L -4.476 0.8099999999999988 " stroke="#191919" stroke-width="0.35 px" style="stroke-width:0.35;stroke-miterlimit:4;stroke-dasharray:none;fill:none;fill-opacity:1;fill-rule: evenodd"/>
<path id="Shape2DView_nwe0044"  d="M -3.429 0.8100000000000004 L -3.06 0.8100000000000008 " stroke="#191919" stroke-width="0.35 px" style="stroke-width:0.35;stroke-miterlimit:4;stroke-dasharray:none;fill:none;fill-opacity:1;fill-rule: evenodd"/>
<path id="Shape2DView_nwe0045"  d="M -3.429 0.81 L -3.47165846539536 0.8099999999999999 L -3.5137804758373554 0.8099999999999999 L -3.5548363226049187 0.8099999999999998 L -3.5943097046037895 0.8099999999999998 L -3.631704221152343 0.8099999999999998 L -3.6665496145081775 0.8099999999999997 L -3.6984076836320745 0.8099999999999997 L -3.7268777948203193 0.8099999999999996 L -3.7516019199059762 0.8099999999999996 L -3.7722691386708216 0.8099999999999996 L -3.788619548847488 0.8099999999999996 L -3.8004475345412745 0.8099999999999996 L -3.8076043519693252 0.8099999999999995 L -3.8099999999999996 0.8099999999999995 " stroke="#191919" stroke-width="0.35 px" style="stroke-width:0.35;stroke-miterlimit:4;stroke-dasharray:none;fill:none;fill-opacity:1;fill-rule: evenodd"/>
<path id="Shape2DView_nwe0046"  d="M -3.8099999999999996 -0.8099999999999998 L -3.810798549343558 -0.8099999999999998 L -3.8131841551529084 -0.8099999999999999 L -3.8171268170508372 -0.8099999999999999 L -3.8225769537763927 -0.8099999999999999 L -3.829466026698008 -0.8099999999999999 L -3.83770740172656 -0.8099999999999999 L -3.8471974387893084 -0.8099999999999999 L -3.8578167951639406 -0.8099999999999999 L -3.869431926282552 -0.8099999999999999 L -3.88189676513207 -0.8099999999999999 L -3.8950545591316934 -0.8099999999999999 L -3.908739841387548 -0.81 L -3.9227805115348797 -0.81 L -3.937 -0.81 " stroke="#191919" stroke-width="0.35 px" style="stroke-width:0.35;stroke-miterlimit:4;stroke-dasharray:none;fill:none;fill-opacity:1;fill-rule: evenodd"/>
<path id="Shape2DView_nwe0047"  d="M -3.429 -0.81 L -3.47165846539536 -0.8100000000000002 L -3.5137804758373554 -0.8100000000000002 L -3.5548363226049187 -0.8100000000000003 L -3.5943097046037895 -0.8100000000000003 L -3.631704221152343 -0.8100000000000003 L -3.666549614508177 -0.8100000000000004 L -3.6984076836320745 -0.8100000000000004 L -3.7268777948203193 -0.8100000000000005 L -3.7516019199059762 -0.8100000000000005 L -3.7722691386708216 -0.8100000000000005 L -3.788619548847488 -0.8100000000000005 L -3.8004475345412745 -0.8100000000000005 L -3.8076043519693252 -0.8100000000000006 L -3.8099999999999996 -0.8100000000000006 " stroke="#191919" stroke-width="0.35 px" style="stroke-width:0.35;stroke-miterlimit:4;stroke-dasharray:none;fill:none;fill-opacity:1;fill-rule: evenodd"/>
<path id="Shape2DView_nwe0048"  d="M -3.429 -0.8099999999999995 L -3.06 -0.809999999999999 " stroke="#191919" stroke-width="0.35 px" style="stroke-width:0.35;stroke-miterlimit:4;stroke-dasharray:none;fill:none;fill-opacity:1;fill-rule: evenodd"/>
<path id="Shape2DView_nwe0049"  d="M -4.476 -0.81 L -3.937 -0.8099999999999994 " stroke="#191919" stroke-width="0.35 px" style="stroke-width:0.35;stroke-miterlimit:4;stroke-dasharray:none;fill:none;fill-opacity:1;fill-rule: evenodd"/>
<path id="Shape2DView_nwe0050"  d="M -2.9849999999999977 0.81 L -2.9849999999999954 -0.81 " stroke="#191919" stroke-width="0.35 px" style="stroke-width:0.35;stroke-miterlimit:4;stroke-dasharray:none;fill:none;fill-opacity:1;fill-rule: evenodd"/>
<path id="Shape2DView_nwe0051"  d="M -2.985 -2.525 L 2.985 -2.524999999999992 " stroke="#191919" stroke-width="0.35 px" style="stroke-width:0.35;stroke-miterlimit:4;stroke-dasharray:none;fill:none;fill-opacity:1;fill-rule: evenodd"/>
<path id="Shape2DView_nwe0052"  d="M 2.984999999999999 -1.73 L 2.9849999999999977 -0.81 " stroke="#191919" stroke-width="0.35 px" style="stroke-width:0.35;stroke-miterlimit:4;stroke-dasharray:none;fill:none;fill-opacity:1;fill-rule: evenodd"/>
<path id="Shape2DView_nwe0053"  d="M 2.9849999999999954 0.81 L 2.984999999999994 1.73 " stroke="#191919" stroke-width="0.35 px" style="stroke-width:0.35;stroke-miterlimit:4;stroke-dasharray:none;fill:none;fill-opacity:1;fill-rule: evenodd"/>
<path id="Shape2DView_nwe0054"  d="M 2.985 2.525 L 2.661276356577 2.201276356577 " stroke="#191919" stroke-width="0.35 px" style="stroke-width:0.35;stroke-miterlimit:4;stroke-dasharray:none;fill:none;fill-opacity:1;fill-rule: evenodd"/>
<path id="Shape2DView_nwe0055"  d="M 2.661276356577 -2.201276356577 L 2.661276356576994 2.201276356577 " stroke="#191919" stroke-width="0.35 px" style="stroke-width:0.35;stroke-miterlimit:4;stroke-dasharray:none;fill:none;fill-opacity:1;fill-rule: evenodd"/>
<path id="Shape2DView_nwe0056"  d="M 2.985 -2.525 L 2.661276356577 -2.201276356577 " stroke="#191919" stroke-width="0.35 px" style="stroke-width:0.35;stroke-miterlimit:4;stroke-dasharray:none;fill:none;fill-opacity:1;fill-rule: evenodd"/>
<path id="Shape2DView_nwe0057"  d="M 3.0599999999999987 -1.73 L 3.059999999999998 -0.81 " stroke="#191919" stroke-width="0.35 px" style="stroke-width:0.35;stroke-miterlimit:4;stroke-dasharray:none;fill:none;fill-opacity:1;fill-rule: evenodd"/>
<path id="Shape2DView_nwe0058"  d="M 4.476 -0.81 L 4.476000000000001 -1.73 " stroke="#191919" stroke-width="0.35 px" style="stroke-width:0.35;stroke-miterlimit:4;stroke-dasharray:none;fill:none;fill-opacity:1;fill-rule: evenodd"/>
<path id="Shape2DView_nwe0059"  d="M 3.81 -0.81 L 3.8100000000000014 -1.73 " stroke="#191919" stroke-width="0.35 px" style="stroke-width:0.35;stroke-miterlimit:4;stroke-dasharray:none;fill:none;fill-opacity:1;fill-rule: evenodd"/>
<path id="Shape2DView_nwe0060"  d="M 3.81 0.81 L 3.8099999999999987 1.73 " stroke="#191919" stroke-width="0.35 px" style="stroke-width:0.35;stroke-miterlimit:4;stroke-dasharray:none;fill:none;fill-opacity:1;fill-rule: evenodd"/>
<path id="Shape2DView_nwe0061"  d="M 3.0599999999999956 0.81 L 3.0599999999999943 1.73 " stroke="#191919" stroke-width="0.35 px" style="stroke-width:0.35;stroke-miterlimit:4;stroke-dasharray:none;fill:none;fill-opacity:1;fill-rule: evenodd"/>
<path id="Shape2DView_nwe0062"  d="M 4.476 1.73 L 4.476000000000001 0.81 " stroke="#191919" stroke-width="0.35 px" style="stroke-width:0.35;stroke-miterlimit:4;stroke-dasharray:none;fill:none;fill-opacity:1;fill-rule: evenodd"/>
<path id="Shape2DView_nwe0063"  d="M -2.985 2.525 L -2.661276356577 2.201276356577 " stroke="#191919" stroke-width="0.35 px" style="stroke-width:0.35;stroke-miterlimit:4;stroke-dasharray:none;fill:none;fill-opacity:1;fill-rule: evenodd"/>
<path id="Shape2DView_nwe0064"  d="M -0.7462405778300001 2.2012763565769955 L -2.661276356577 2.201276356576993 " stroke="#191919" stroke-width="0.35 px" style="stroke-width:0.35;stroke-miterlimit:4;stroke-dasharray:none;fill:none;fill-opacity:1;fill-rule: evenodd"/>
<path id="Shape2DView_nwe0065"  d="M -0.7493474955903637 2.3075546374111022 L -0.74624057783 2.201276356577 " stroke="#191919" stroke-width="0.35 px" style="stroke-width:0.35;stroke-miterlimit:4;stroke-dasharray:none;fill:none;fill-opacity:1;fill-rule: evenodd"/>
<path id="Shape2DView_nwe0066"  d="M -0.749347495591 2.307554637412 L 0.749347495591 2.307554637412 " stroke="#191919" stroke-width="0.35 px" style="stroke-width:0.35;stroke-miterlimit:4;stroke-dasharray:none;fill:none;fill-opacity:1;fill-rule: evenodd"/>
<path id="Shape2DView_nwe0067"  d="M 0.7493474955903655 2.307554637412059 L 0.74624057783 2.201276356577 " stroke="#191919" stroke-width="0.35 px" style="stroke-width:0.35;stroke-miterlimit:4;stroke-dasharray:none;fill:none;fill-opacity:1;fill-rule: evenodd"/>
<path id="Shape2DView_nwe0068"  d="M 2.661276356577 2.201276356577 L 0.7462405778300001 2.2012763565769973 " stroke="#191919" stroke-width="0.35 px" style="stroke-width:0.35;stroke-miterlimit:4;stroke-dasharray:none;fill:none;fill-opacity:1;fill-rule: evenodd"/>
<path id="Shape2DView_nwe0069"  d="M -2.984999999999999 1.73 L -2.9849999999999977 0.81 " stroke="#191919" stroke-width="0.35 px" style="stroke-width:0.35;stroke-miterlimit:4;stroke-dasharray:none;fill:none;fill-opacity:1;fill-rule: evenodd"/>
<path id="Shape2DView_nwe0070"  d="M -2.9849999999999954 -0.81 L -2.984999999999994 -1.73 " stroke="#191919" stroke-width="0.35 px" style="stroke-width:0.35;stroke-miterlimit:4;stroke-dasharray:none;fill:none;fill-opacity:1;fill-rule: evenodd"/>
<path id="Shape2DView_nwe0071"  d="M -2.985 -2.525 L -2.661276356577 -2.201276356577 " stroke="#191919" stroke-width="0.35 px" style="stroke-width:0.35;stroke-miterlimit:4;stroke-dasharray:none;fill:none;fill-opacity:1;fill-rule: evenodd"/>
<path id="Shape2DView_nwe0072"  d="M -2.661276356577 2.201276356577 L -2.661276356576994 -2.201276356577 " stroke="#191919" stroke-width="0.35 px" style="stroke-width:0.35;stroke-miterlimit:4;stroke-dasharray:none;fill:none;fill-opacity:1;fill-rule: evenodd"/>
<path id="Shape2DView_nwe0073"  d="M -3.0599999999999987 1.73 L -3.059999999999998 0.81 " stroke="#191919" stroke-width="0.35 px" style="stroke-width:0.35;stroke-miterlimit:4;stroke-dasharray:none;fill:none;fill-opacity:1;fill-rule: evenodd"/>
<path id="Shape2DView_nwe0074"  d="M -4.476 0.81 L -4.476000000000001 1.73 " stroke="#191919" stroke-width="0.35 px" style="stroke-width:0.35;stroke-miterlimit:4;stroke-dasharray:none;fill:none;fill-opacity:1;fill-rule: evenodd"/>
<path id="Shape2DView_nwe0075"  d="M -3.81 0.81 L -3.8100000000000014 1.73 " stroke="#191919" stroke-width="0.35 px" style="stroke-width:0.35;stroke-miterlimit:4;stroke-dasharray:none;fill:none;fill-opacity:1;fill-rule: evenodd"/>
<path id="Shape2DView_nwe0076"  d="M -3.81 -0.81 L -3.8099999999999987 -1.73 " stroke="#191919" stroke-width="0.35 px" style="stroke-width:0.35;stroke-miterlimit:4;stroke-dasharray:none;fill:none;fill-opacity:1;fill-rule: evenodd"/>
<path id="Shape2DView_nwe0077"  d="M -3.0599999999999956 -0.81 L -3.0599999999999943 -1.73 " stroke="#191919" stroke-width="0.35 px" style="stroke-width:0.35;stroke-miterlimit:4;stroke-dasharray:none;fill:none;fill-opacity:1;fill-rule: evenodd"/>
<path id="Shape2DView_nwe0078"  d="M -4.476 -1.73 L -4.476000000000001 -0.81 " stroke="#191919" stroke-width="0.35 px" style="stroke-width:0.35;stroke-miterlimit:4;stroke-dasharray:none;fill:none;fill-opacity:1;fill-rule: evenodd"/>
<path id="Shape2DView_nwe0079"  d="M -2.661276356577 -2.201276356577 L 2.661276356577 -2.201276356576993 " stroke="#191919" stroke-width="0.35 px" style="stroke-width:0.35;stroke-miterlimit:4;stroke-dasharray:none;fill:none;fill-opacity:1;fill-rule: evenodd"/>
<path id="Shape2DView_nwe0080"  d="M -4.6777837307585e-15 1.5262763565770001 A 0.75 0.75 0 0 0 -0.746241 2.20128" stroke="#191919" stroke-width="0.35 px" style="stroke-width:0.35;stroke-miterlimit:4;stroke-dasharray:none;fill:none;fill-opacity:1;fill-rule: evenodd"/>
<path id="Shape2DView_nwe0081"  d="M 0.7462405778299597 2.201276356577004 A 0.75 0.75 0 0 0 -4.49409e-15 1.52628" stroke="#191919" stroke-width="0.35 px" style="stroke-width:0.35;stroke-miterlimit:4;stroke-dasharray:none;fill:none;fill-opacity:1;fill-rule: evenodd"/>
<path id="Shape2DView_nwe0082"  d="M -0.7462405778299701 2.201276356576995 A 0.75 0.75 0 0 0 -0.749347 2.30755" stroke="#191919" stroke-width="0.35 px" style="stroke-width:0.35;stroke-miterlimit:4;stroke-dasharray:none;fill:none;fill-opacity:1;fill-rule: evenodd"/>
<path id="Shape2DView_nwe0083"  d="M 0.7493474955906634 2.3075546374119864 A 0.75 0.75 0 0 0 0.746241 2.20128" stroke="#191919" stroke-width="0.35 px" style="stroke-width:0.35;stroke-miterlimit:4;stroke-dasharray:none;fill:none;fill-opacity:1;fill-rule: evenodd"/>
<path id="Shape2DView_nwe0084"  d="M 3.937 -1.73 L 3.9369999999999985 -0.81 " stroke="#191919" stroke-width="0.35 px" style="stroke-width:0.35;stroke-miterlimit:4;stroke-dasharray:none;fill:none;fill-opacity:1;fill-rule: evenodd"/>
<path id="Shape2DView_nwe0085"  d="M 3.429 -0.81 L 3.429000000000001 -1.73 " stroke="#191919" stroke-width="0.35 px" style="stroke-width:0.35;stroke-miterlimit:4;stroke-dasharray:none;fill:none;fill-opacity:1;fill-rule: evenodd"/>
<path id="Shape2DView_nwe0086"  d="M 3.429 0.81 L 3.4289999999999985 1.73 " stroke="#191919" stroke-width="0.35 px" style="stroke-width:0.35;stroke-miterlimit:4;stroke-dasharray:none;fill:none;fill-opacity:1;fill-rule: evenodd"/>
<path id="Shape2DView_nwe0087"  d="M 3.937 0.81 L 3.9369999999999985 1.73 " stroke="#191919" stroke-width="0.35 px" style="stroke-width:0.35;stroke-miterlimit:4;stroke-dasharray:none;fill:none;fill-opacity:1;fill-rule: evenodd"/>
<path id="Shape2DView_nwe0088"  d="M -3.937 1.73 L -3.9369999999999985 0.81 " stroke="#191919" stroke-width="0.35 px" style="stroke-width:0.35;stroke-miterlimit:4;stroke-dasharray:none;fill:none;fill-opacity:1;fill-rule: evenodd"/>
<path id="Shape2DView_nwe0089"  d="M -3.429 0.81 L -3.429000000000001 1.73 " stroke="#191919" stroke-width="0.35 px" style="stroke-width:0.35;stroke-miterlimit:4;stroke-dasharray:none;fill:none;fill-opacity:1;fill-rule: evenodd"/>
<path id="Shape2DView_nwe0090"  d="M -3.429 -0.81 L -3.4289999999999985 -1.73 " stroke="#191919" stroke-width="0.35 px" style="stroke-width:0.35;stroke-miterlimit:4;stroke-dasharray:none;fill:none;fill-opacity:1;fill-rule: evenodd"/>
<path id="Shape2DView_nwe0091"  d="M -3.937 -0.81 L -3.9369999999999985 -1.73 " stroke="#191919" stroke-width="0.35 px" style="stroke-width:0.35;stroke-miterlimit:4;stroke-dasharray:none;fill:none;fill-opacity:1;fill-rule: evenodd"/>
<path id="Shape2DView_nwe0092"  d="M 2.9850000000000003 -1.7299999999999962 L 3.0600000000000005 -1.7299999999999962 " stroke="#191919" stroke-width="0.35 px" style="stroke-width:0.35;stroke-miterlimit:4;stroke-dasharray:none;fill:none;fill-opacity:1;fill-rule: evenodd"/>
<path id="Shape2DView_nwe0093"  d="M 3.06 1.729999999999999 L 2.985 1.729999999999999 " stroke="#191919" stroke-width="0.35 px" style="stroke-width:0.35;stroke-miterlimit:4;stroke-dasharray:none;fill:none;fill-opacity:1;fill-rule: evenodd"/>
<path id="Shape2DView_nwe0094"  d="M 3.06 -0.8100000000000008 L 2.985 -0.8100000000000009 " stroke="#191919" stroke-width="0.35 px" style="stroke-width:0.35;stroke-miterlimit:4;stroke-dasharray:none;fill:none;fill-opacity:1;fill-rule: evenodd"/>
<path id="Shape2DView_nwe0095"  d="M 3.06 0.8099999999999992 L 2.985 0.809999999999999 " stroke="#191919" stroke-width="0.35 px" style="stroke-width:0.35;stroke-miterlimit:4;stroke-dasharray:none;fill:none;fill-opacity:1;fill-rule: evenodd"/>
<path id="Shape2DView_nwe0096"  d="M -2.9850000000000003 1.7299999999999958 L -3.0600000000000005 1.7299999999999958 " stroke="#191919" stroke-width="0.35 px" style="stroke-width:0.35;stroke-miterlimit:4;stroke-dasharray:none;fill:none;fill-opacity:1;fill-rule: evenodd"/>
<path id="Shape2DView_nwe0097"  d="M -3.06 -1.729999999999999 L -2.985 -1.7299999999999989 " stroke="#191919" stroke-width="0.35 px" style="stroke-width:0.35;stroke-miterlimit:4;stroke-dasharray:none;fill:none;fill-opacity:1;fill-rule: evenodd"/>
<path id="Shape2DView_nwe0098"  d="M -3.06 0.8100000000000008 L -2.985 0.8100000000000009 " stroke="#191919" stroke-width="0.35 px" style="stroke-width:0.35;stroke-miterlimit:4;stroke-dasharray:none;fill:none;fill-opacity:1;fill-rule: evenodd"/>
<path id="Shape2DView_nwe0099"  d="M -3.06 -0.809999999999999 L -2.985 -0.8099999999999989 " stroke="#191919" stroke-width="0.35 px" style="stroke-width:0.35;stroke-miterlimit:4;stroke-dasharray:none;fill:none;fill-opacity:1;fill-rule: evenodd"/>
<title>b'Shape2DView'</title>
</g>
<g id="Rectangle" transform="translate(4.565520,2.689520) scale(1,-1)">
<rect fill="#ff0000" id="origin" width="1" height="1" x="0" y="0" />
<title>b'Rectangle'</title>
</g>
</svg>