<?xml version="1.0"?>
<!DOCTYPE svg PUBLIC "-//W3C//DTD SVG 1.1//EN" "http://www.w3.org/Graphics/SVG/1.1/DTD/svg11.dtd">
<svg width="11.648400000000093mm" height="12.928400000000007mm" viewBox="0 0 11.648400000000093 12.928400000000007" xmlns="http://www.w3.org/2000/svg" version="1.1">
<g id="Shape2DView" transform="translate(5.824200,6.464200) scale(1,-1)">
<path id="Shape2DView_nwe0000"  d="M -5.08 6.35 L -5.080000000000003 -6.35 " stroke="#191919" stroke-width="0.35 px" style="stroke-width:0.35;stroke-miterlimit:4;stroke-dasharray:none;fill:none;fill-opacity:1;fill-rule: evenodd"/>
<path id="Shape2DView_nwe0001"  d="M -2.08 6.350000000000001 L -5.08 6.350000000000002 " stroke="#191919" stroke-width="0.35 px" style="stroke-width:0.35;stroke-miterlimit:4;stroke-dasharray:none;fill:none;fill-opacity:1;fill-rule: evenodd"/>
<path id="Shape2DView_nwe0002"  d="M -5.08 -6.35 L -2.08 -6.3500000000000005 " stroke="#191919" stroke-width="0.35 px" style="stroke-width:0.35;stroke-miterlimit:4;stroke-dasharray:none;fill:none;fill-opacity:1;fill-rule: evenodd"/>
<path id="Shape2DView_nwe0003"  d="M 2.08 -6.35 L -2.08 -6.349999999999998 " stroke="#191919" stroke-width="0.35 px" style="stroke-width:0.35;stroke-miterlimit:4;stroke-dasharray:none;fill:none;fill-opacity:1;fill-rule: evenodd"/>
<path id="Shape2DView_nwe0004"  d="M 2.08 -6.350000000000001 L 5.08 -6.350000000000002 " stroke="#191919" stroke-width="0.35 px" style="stroke-width:0.35;stroke-miterlimit:4;stroke-dasharray:none;fill:none;fill-opacity:1;fill-rule: evenodd"/>
<path id="Shape2DView_nwe0005"  d="M -2.08 6.35 L -2.08 5.75 " stroke="#191919" stroke-width="0.35 px" style="stroke-width:0.35;stroke-miterlimit:4;stroke-dasharray:none;fill:none;fill-opacity:1;fill-rule: evenodd"/>
<path id="Shape2DView_nwe0006"  d="M -2.08 5.75 A 0.5 0.5 0 0 1 -1.58 5.25" stroke="#191919" stroke-width="0.35 px" style="stroke-width:0.35;stroke-miterlimit:4;stroke-dasharray:none;fill:none;fill-opacity:1;fill-rule: evenodd"/>
<path id="Shape2DView_nwe0007"  d="M -1.5800000000000003 5.25 L -1.5800000000000007 3.35 " stroke="#191919" stroke-width="0.35 px" style="stroke-width:0.35;stroke-miterlimit:4;stroke-dasharray:none;fill:none;fill-opacity:1;fill-rule: evenodd"/>
<path id="Shape2DView_nwe0008"  d="M -1.5799999999999996 3.35 A 0.5 0.5 0 0 1 -2.08 2.85" stroke="#191919" stroke-width="0.35 px" style="stroke-width:0.35;stroke-miterlimit:4;stroke-dasharray:none;fill:none;fill-opacity:1;fill-rule: evenodd"/>
<path id="Shape2DView_nwe0009"  d="M -2.079999999999999 2.8500000000000005 L -2.080000000000001 -3.95 " stroke="#191919" stroke-width="0.35 px" style="stroke-width:0.35;stroke-miterlimit:4;stroke-dasharray:none;fill:none;fill-opacity:1;fill-rule: evenodd"/>
<path id="Shape2DView_nwe0010"  d="M -2.08 -3.950000000000001 A 0.5 0.5 0 0 1 -1.58 -4.45" stroke="#191919" stroke-width="0.35 px" style="stroke-width:0.35;stroke-miterlimit:4;stroke-dasharray:none;fill:none;fill-opacity:1;fill-rule: evenodd"/>
<path id="Shape2DView_nwe0011"  d="M -1.5800000000000025 -4.450000000000001 L -1.5800000000000027 -5.25 " stroke="#191919" stroke-width="0.35 px" style="stroke-width:0.35;stroke-miterlimit:4;stroke-dasharray:none;fill:none;fill-opacity:1;fill-rule: evenodd"/>
<path id="Shape2DView_nwe0012"  d="M -2.08 -5.75 A 0.5 0.5 0 0 0 -1.58 -5.25" stroke="#191919" stroke-width="0.35 px" style="stroke-width:0.35;stroke-miterlimit:4;stroke-dasharray:none;fill:none;fill-opacity:1;fill-rule: evenodd"/>
<path id="Shape2DView_nwe0013"  d="M -2.08 -6.35 L -2.08 -5.75 " stroke="#191919" stroke-width="0.35 px" style="stroke-width:0.35;stroke-miterlimit:4;stroke-dasharray:none;fill:none;fill-opacity:1;fill-rule: evenodd"/>
<path id="Shape2DView_nwe0014"  d="M 5.08 -6.35 L 5.080000000000003 6.35 " stroke="#191919" stroke-width="0.35 px" style="stroke-width:0.35;stroke-miterlimit:4;stroke-dasharray:none;fill:none;fill-opacity:1;fill-rule: evenodd"/>
<path id="Shape2DView_nwe0015"  d="M 0.6200000000000021 3.3499999999999996 L 0.6200000000000025 5.25 " stroke="#191919" stroke-width="0.35 px" style="stroke-width:0.35;stroke-miterlimit:4;stroke-dasharray:none;fill:none;fill-opacity:1;fill-rule: evenodd"/>
<path id="Shape2DView_nwe0016"  d="M 0.6200000000000001 5.249999999999999 L 1.58 5.249999999999999 " stroke="#191919" stroke-width="0.35 px" style="stroke-width:0.35;stroke-miterlimit:4;stroke-dasharray:none;fill:none;fill-opacity:1;fill-rule: evenodd"/>
<path id="Shape2DView_nwe0017"  d="M 1.5799999999999992 5.25 A 0.5 0.5 0 0 1 2.08 5.75" stroke="#191919" stroke-width="0.35 px" style="stroke-width:0.35;stroke-miterlimit:4;stroke-dasharray:none;fill:none;fill-opacity:1;fill-rule: evenodd"/>
<path id="Shape2DView_nwe0018"  d="M 2.08 5.75 L 2.0799999999999996 6.35 " stroke="#191919" stroke-width="0.35 px" style="stroke-width:0.35;stroke-miterlimit:4;stroke-dasharray:none;fill:none;fill-opacity:1;fill-rule: evenodd"/>
<path id="Shape2DView_nwe0019"  d="M 5.08 6.35 L 2.08 6.3500000000000005 " stroke="#191919" stroke-width="0.35 px" style="stroke-width:0.35;stroke-miterlimit:4;stroke-dasharray:none;fill:none;fill-opacity:1;fill-rule: evenodd"/>
<path id="Shape2DView_nwe0020"  d="M 2.08 -5.75 L 2.0799999999999996 -6.35 " stroke="#191919" stroke-width="0.35 px" style="stroke-width:0.35;stroke-miterlimit:4;stroke-dasharray:none;fill:none;fill-opacity:1;fill-rule: evenodd"/>
<path id="Shape2DView_nwe0021"  d="M 1.5799999999999994 -5.25 A 0.5 0.5 0 0 0 2.08 -5.75" stroke="#191919" stroke-width="0.35 px" style="stroke-width:0.35;stroke-miterlimit:4;stroke-dasharray:none;fill:none;fill-opacity:1;fill-rule: evenodd"/>
<path id="Shape2DView_nwe0022"  d="M 0.6200000000000001 -5.250000000000001 L 1.58 -5.250000000000001 " stroke="#191919" stroke-width="0.35 px" style="stroke-width:0.35;stroke-miterlimit:4;stroke-dasharray:none;fill:none;fill-opacity:1;fill-rule: evenodd"/>
<path id="Shape2DView_nwe0023"  d="M 0.6200000000000002 -5.25 L 0.6200000000000004 -4.45 " stroke="#191919" stroke-width="0.35 px" style="stroke-width:0.35;stroke-miterlimit:4;stroke-dasharray:none;fill:none;fill-opacity:1;fill-rule: evenodd"/>
<path id="Shape2DView_nwe0024"  d="M 0.6200000000000001 -4.450000000000001 L 1.58 -4.450000000000001 " stroke="#191919" stroke-width="0.35 px" style="stroke-width:0.35;stroke-miterlimit:4;stroke-dasharray:none;fill:none;fill-opacity:1;fill-rule: evenodd"/>
<path id="Shape2DView_nwe0025"  d="M 1.5800000000000007 -4.45 A 0.5 0.5 0 0 1 2.08 -3.95" stroke="#191919" stroke-width="0.35 px" style="stroke-width:0.35;stroke-miterlimit:4;stroke-dasharray:none;fill:none;fill-opacity:1;fill-rule: evenodd"/>
<path id="Shape2DView_nwe0026"  d="M 2.08 -3.95 L 2.0800000000000014 2.8500000000000005 " stroke="#191919" stroke-width="0.35 px" style="stroke-width:0.35;stroke-miterlimit:4;stroke-dasharray:none;fill:none;fill-opacity:1;fill-rule: evenodd"/>
<path id="Shape2DView_nwe0027"  d="M 2.08 2.849999999999999 A 0.5 0.5 0 0 1 1.58 3.35" stroke="#191919" stroke-width="0.35 px" style="stroke-width:0.35;stroke-miterlimit:4;stroke-dasharray:none;fill:none;fill-opacity:1;fill-rule: evenodd"/>
<path id="Shape2DView_nwe0028"  d="M 1.58 3.35 L 0.62 3.35 " stroke="#191919" stroke-width="0.35 px" style="stroke-width:0.35;stroke-miterlimit:4;stroke-dasharray:none;fill:none;fill-opacity:1;fill-rule: evenodd"/>
<path id="Shape2DView_nwe0029"  d="M -1.58 -4.45 L 0.6200000000000001 -4.450000000000001 " stroke="#191919" stroke-width="0.35 px" style="stroke-width:0.35;stroke-miterlimit:4;stroke-dasharray:none;fill:none;fill-opacity:1;fill-rule: evenodd"/>
<path id="Shape2DView_nwe0030"  d="M -1.58 5.25 L 0.6200000000000001 5.249999999999999 " stroke="#191919" stroke-width="0.35 px" style="stroke-width:0.35;stroke-miterlimit:4;stroke-dasharray:none;fill:none;fill-opacity:1;fill-rule: evenodd"/>
<path id="Shape2DView_nwe0031"  d="M 0.62 3.35 L -1.58 3.3500000000000005 " stroke="#191919" stroke-width="0.35 px" style="stroke-width:0.35;stroke-miterlimit:4;stroke-dasharray:none;fill:none;fill-opacity:1;fill-rule: evenodd"/>
<circle cx="-3.81" cy="9.992007221626e-16" r="0.862" stroke="#191919" stroke-width="0.35 px" style="stroke-width:0.35;stroke-miterlimit:4;stroke-dasharray:none;fill:none"/>
<circle cx="-3.81" cy="2.54" r="0.862" stroke="#191919" stroke-width="0.35 px" style="stroke-width:0.35;stroke-miterlimit:4;stroke-dasharray:none;fill:none"/>
<circle cx="-3.81" cy="-5.08" r="0.862" stroke="#191919" stroke-width="0.35 px" style="stroke-width:0.35;stroke-miterlimit:4;stroke-dasharray:none;fill:none"/>
<circle cx="-3.81" cy="-2.54" r="0.862" stroke="#191919" stroke-width="0.35 px" style="stroke-width:0.35;stroke-miterlimit:4;stroke-dasharray:none;fill:none"/>
<circle cx="-3.81" cy="5.08" r="0.862" stroke="#191919" stroke-width="0.35 px" style="stroke-width:0.35;stroke-miterlimit:4;stroke-dasharray:none;fill:none"/>
<circle cx="3.81" cy="2.54" r="0.862" stroke="#191919" stroke-width="0.35 px" style="stroke-width:0.35;stroke-miterlimit:4;stroke-dasharray:none;fill:none"/>
<circle cx="3.81" cy="-9.992007221626e-16" r="0.862" stroke="#191919" stroke-width="0.35 px" style="stroke-width:0.35;stroke-miterlimit:4;stroke-dasharray:none;fill:none"/>
<circle cx="3.81" cy="5.08" r="0.862" stroke="#191919" stroke-width="0.35 px" style="stroke-width:0.35;stroke-miterlimit:4;stroke-dasharray:none;fill:none"/>
<circle cx="3.81" cy="-5.08" r="0.862" stroke="#191919" stroke-width="0.35 px" style="stroke-width:0.35;stroke-miterlimit:4;stroke-dasharray:none;fill:none"/>
<circle cx="3.81" cy="-2.54" r="0.862" stroke="#191919" stroke-width="0.35 px" style="stroke-width:0.35;stroke-miterlimit:4;stroke-dasharray:none;fill:none"/>
<circle cx="-3.81" cy="8.881784197001e-16" r="0.762" stroke="#191919" stroke-width="0.35 px" style="stroke-width:0.35;stroke-miterlimit:4;stroke-dasharray:none;fill:none"/>
<circle cx="-3.81" cy="2.54" r="0.762" stroke="#191919" stroke-width="0.35 px" style="stroke-width:0.35;stroke-miterlimit:4;stroke-dasharray:none;fill:none"/>
<circle cx="-3.81" cy="-5.08" r="0.762" stroke="#191919" stroke-width="0.35 px" style="stroke-width:0.35;stroke-miterlimit:4;stroke-dasharray:none;fill:none"/>
<circle cx="-3.81" cy="-2.54" r="0.762" stroke="#191919" stroke-width="0.35 px" style="stroke-width:0.35;stroke-miterlimit:4;stroke-dasharray:none;fill:none"/>
<circle cx="-3.81" cy="5.08" r="0.762" stroke="#191919" stroke-width="0.35 px" style="stroke-width:0.35;stroke-miterlimit:4;stroke-dasharray:none;fill:none"/>
<circle cx="3.81" cy="2.54" r="0.762" stroke="#191919" stroke-width="0.35 px" style="stroke-width:0.35;stroke-miterlimit:4;stroke-dasharray:none;fill:none"/>
<circle cx="3.81" cy="-8.881784197001e-16" r="0.762" stroke="#191919" stroke-width="0.35 px" style="stroke-width:0.35;stroke-miterlimit:4;stroke-dasharray:none;fill:none"/>
<circle cx="3.81" cy="5.08" r="0.762" stroke="#191919" stroke-width="0.35 px" style="stroke-width:0.35;stroke-miterlimit:4;stroke-dasharray:none;fill:none"/>
<circle cx="3.81" cy="-5.08" r="0.762" stroke="#191919" stroke-width="0.35 px" style="stroke-width:0.35;stroke-miterlimit:4;stroke-dasharray:none;fill:none"/>
<circle cx="3.81" cy="-2.54" r="0.762" stroke="#191919" stroke-width="0.35 px" style="stroke-width:0.35;stroke-miterlimit:4;stroke-dasharray:none;fill:none"/>
<circle cx="-3.81" cy="8.881784197001e-16" r="0.254" stroke="#191919" stroke-width="0.35 px" style="stroke-width:0.35;stroke-miterlimit:4;stroke-dasharray:none;fill:none"/>
<circle cx="-3.81" cy="2.54" r="0.254" stroke="#191919" stroke-width="0.35 px" style="stroke-width:0.35;stroke-miterlimit:4;stroke-dasharray:none;fill:none"/>
<circle cx="-3.81" cy="-5.08" r="0.254" stroke="#191919" stroke-width="0.35 px" style="stroke-width:0.35;stroke-miterlimit:4;stroke-dasharray:none;fill:none"/>
<circle cx="-3.81" cy="-2.54" r="0.254" stroke="#191919" stroke-width="0.35 px" style="stroke-width:0.35;stroke-miterlimit:4;stroke-dasharray:none;fill:none"/>
<circle cx="-3.81" cy="5.08" r="0.254" stroke="#191919" stroke-width="0.35 px" style="stroke-width:0.35;stroke-miterlimit:4;stroke-dasharray:none;fill:none"/>
<circle cx="3.81" cy="2.54" r="0.254" stroke="#191919" stroke-width="0.35 px" style="stroke-width:0.35;stroke-miterlimit:4;stroke-dasharray:none;fill:none"/>
<circle cx="3.81" cy="-8.881784197001e-16" r="0.254" stroke="#191919" stroke-width="0.35 px" style="stroke-width:0.35;stroke-miterlimit:4;stroke-dasharray:none;fill:none"/>
<circle cx="3.81" cy="5.08" r="0.254" stroke="#191919" stroke-width="0.35 px" style="stroke-width:0.35;stroke-miterlimit:4;stroke-dasharray:none;fill:none"/>
<circle cx="3.81" cy="-5.08" r="0.254" stroke="#191919" stroke-width="0.35 px" style="stroke-width:0.35;stroke-miterlimit:4;stroke-dasharray:none;fill:none"/>
<circle cx="3.81" cy="-2.54" r="0.254" stroke="#191919" stroke-width="0.35 px" style="stroke-width:0.35;stroke-miterlimit:4;stroke-dasharray:none;fill:none"/>
<path id="Shape2DView_nwe0062"  d="M 3.8099999999999996 2.2860000000000005 L 3.8100639503372236 2.2860000000000005 L 3.810255793298413 2.2860000000000005 L 3.81057550473313 2.2860000000000005 L 3.811023044394024 2.2860000000000005 L 3.811598355941898 2.2860000000000005 L 3.8123013669528003 2.2860000000000005 L 3.8131319889271413 2.2860000000000005 L 3.814090117300837 2.2860000000000005 L 3.8151756314584673 2.2860000000000005 L 3.816388394748465 2.2860000000000005 L 3.8177282545003157 2.2860000000000005 L 3.819195042043778 2.2860000000000005 L 3.8207885727301143 2.2860000000000005 L 3.82250864595534 2.2860000000000005 " stroke="#191919" stroke-width="0.35 px" style="stroke-width:0.35;stroke-miterlimit:4;stroke-dasharray:none;fill:none;fill-opacity:1;fill-rule: evenodd"/>
<path id="Shape2DView_nwe0063"  d="M 3.8099999999999996 -0.2539999999999998 L 3.8100639503372236 -0.2539999999999998 L 3.810255793298413 -0.2539999999999998 L 3.81057550473313 -0.2539999999999998 L 3.811023044394024 -0.2539999999999998 L 3.811598355941898 -0.2539999999999998 L 3.8123013669528003 -0.2539999999999998 L 3.8131319889271413 -0.2539999999999998 L 3.814090117300837 -0.2539999999999998 L 3.8151756314584673 -0.2539999999999998 L 3.816388394748465 -0.2539999999999998 L 3.8177282545003157 -0.2539999999999998 L 3.819195042043778 -0.2539999999999998 L 3.8207885727301143 -0.2539999999999998 L 3.82250864595534 -0.2539999999999998 " stroke="#191919" stroke-width="0.35 px" style="stroke-width:0.35;stroke-miterlimit:4;stroke-dasharray:none;fill:none;fill-opacity:1;fill-rule: evenodd"/>
<path id="Shape2DView_nwe0064"  d="M 3.8099999999999996 -2.7939999999999996 L 3.8100639503372236 -2.7939999999999996 L 3.810255793298413 -2.7939999999999996 L 3.81057550473313 -2.7939999999999996 L 3.811023044394024 -2.7939999999999996 L 3.811598355941898 -2.7939999999999996 L 3.8123013669528003 -2.7939999999999996 L 3.8131319889271413 -2.7939999999999996 L 3.814090117300837 -2.7939999999999996 L 3.8151756314584673 -2.7939999999999996 L 3.816388394748465 -2.7939999999999996 L 3.8177282545003157 -2.7939999999999996 L 3.819195042043778 -2.7939999999999996 L 3.8207885727301143 -2.7939999999999996 L 3.82250864595534 -2.7939999999999996 " stroke="#191919" stroke-width="0.35 px" style="stroke-width:0.35;stroke-miterlimit:4;stroke-dasharray:none;fill:none;fill-opacity:1;fill-rule: evenodd"/>
<path id="Shape2DView_nwe0065"  d="M 3.8099999999999996 -5.334 L 3.8100639503372236 -5.334 L 3.810255793298413 -5.334 L 3.81057550473313 -5.334 L 3.811023044394024 -5.334 L 3.811598355941898 -5.334 L 3.8123013669528003 -5.334 L 3.8131319889271413 -5.334 L 3.814090117300837 -5.334 L 3.8151756314584673 -5.334 L 3.816388394748465 -5.334 L 3.8177282545003157 -5.334 L 3.819195042043778 -5.334 L 3.8207885727301143 -5.334 L 3.82250864595534 -5.334 " stroke="#191919" stroke-width="0.35 px" style="stroke-width:0.35;stroke-miterlimit:4;stroke-dasharray:none;fill:none;fill-opacity:1;fill-rule: evenodd"/>
<path id="Shape2DView_nwe0066"  d="M -3.8099999999999996 0.25399999999999967 L -3.8100639503372236 0.25399999999999967 L -3.810255793298413 0.25399999999999967 L -3.81057550473313 0.25399999999999967 L -3.811023044394024 0.25399999999999967 L -3.811598355941898 0.25399999999999967 L -3.8123013669528003 0.25399999999999967 L -3.8131319889271413 0.25399999999999967 L -3.814090117300837 0.25399999999999967 L -3.8151756314584673 0.25399999999999967 L -3.816388394748465 0.25399999999999967 L -3.8177282545003157 0.25399999999999967 L -3.819195042043778 0.25399999999999967 L -3.8207885727301143 0.25399999999999967 L -3.82250864595534 0.25399999999999967 " stroke="#191919" stroke-width="0.35 px" style="stroke-width:0.35;stroke-miterlimit:4;stroke-dasharray:none;fill:none;fill-opacity:1;fill-rule: evenodd"/>
<path id="Shape2DView_nwe0067"  d="M -3.8099999999999996 2.7939999999999996 L -3.8100639503372236 2.7939999999999996 L -3.810255793298413 2.7939999999999996 L -3.81057550473313 2.7939999999999996 L -3.811023044394024 2.7939999999999996 L -3.811598355941898 2.7939999999999996 L -3.8123013669528003 2.7939999999999996 L -3.8131319889271413 2.7939999999999996 L -3.814090117300837 2.7939999999999996 L -3.8151756314584673 2.7939999999999996 L -3.816388394748465 2.7939999999999996 L -3.8177282545003157 2.7939999999999996 L -3.819195042043778 2.7939999999999996 L -3.8207885727301143 2.7939999999999996 L -3.82250864595534 2.7939999999999996 " stroke="#191919" stroke-width="0.35 px" style="stroke-width:0.35;stroke-miterlimit:4;stroke-dasharray:none;fill:none;fill-opacity:1;fill-rule: evenodd"/>
<path id="Shape2DView_nwe0068"  d="M -3.8099999999999996 -2.2860000000000005 L -3.8100639503372236 -2.2860000000000005 L -3.810255793298413 -2.2860000000000005 L -3.81057550473313 -2.2860000000000005 L -3.811023044394024 -2.2860000000000005 L -3.811598355941898 -2.2860000000000005 L -3.8123013669528003 -2.2860000000000005 L -3.8131319889271413 -2.2860000000000005 L -3.814090117300837 -2.2860000000000005 L -3.8151756314584673 -2.2860000000000005 L -3.816388394748465 -2.2860000000000005 L -3.8177282545003157 -2.2860000000000005 L -3.819195042043778 -2.2860000000000005 L -3.8207885727301143 -2.2860000000000005 L -3.82250864595534 -2.2860000000000005 " stroke="#191919" stroke-width="0.35 px" style="stroke-width:0.35;stroke-miterlimit:4;stroke-dasharray:none;fill:none;fill-opacity:1;fill-rule: evenodd"/>
<path id="Shape2DView_nwe0069"  d="M -3.8099999999999996 5.334 L -3.8100639503372236 5.334 L -3.810255793298413 5.334 L -3.81057550473313 5.334 L -3.811023044394024 5.334 L -3.811598355941898 5.334 L -3.8123013669528003 5.334 L -3.8131319889271413 5.334 L -3.814090117300837 5.334 L -3.8151756314584673 5.334 L -3.816388394748465 5.334 L -3.8177282545003157 5.334 L -3.819195042043778 5.334 L -3.8207885727301143 5.334 L -3.82250864595534 5.334 " stroke="#191919" stroke-width="0.35 px" style="stroke-width:0.35;stroke-miterlimit:4;stroke-dasharray:none;fill:none;fill-opacity:1;fill-rule: evenodd"/>
<path id="Shape2DView_nwe0070"  d="M 5.080000000000002 2.286 L 5.61 2.286 " stroke="#191919" stroke-width="0.35 px" style="stroke-width:0.35;stroke-miterlimit:4;stroke-dasharray:none;fill:none;fill-opacity:1;fill-rule: evenodd"/>
<path id="Shape2DView_nwe0071"  d="M 5.61 2.794 L 5.61 2.7876316896941833 L 5.61 2.7688460924472142 L 5.61 2.7385851965468797 L 5.61 2.698366409672118 L 5.61 2.65020646973586 L 5.61 2.5965203172249036 L 5.61 2.54 L 5.61 2.483479682775096 L 5.61 2.4297935302641402 L 5.61 2.3816335903278816 L 5.61 2.3414148034531204 L 5.61 2.3111539075527854 L 5.61 2.292368310305817 L 5.61 2.286 " stroke="#191919" stroke-width="0.35 px" style="stroke-width:0.35;stroke-miterlimit:4;stroke-dasharray:none;fill:none;fill-opacity:1;fill-rule: evenodd"/>
<path id="Shape2DView_nwe0072"  d="M 5.080000000000002 -0.25400000000000006 L 5.61 -0.25400000000000017 " stroke="#191919" stroke-width="0.35 px" style="stroke-width:0.35;stroke-miterlimit:4;stroke-dasharray:none;fill:none;fill-opacity:1;fill-rule: evenodd"/>
<path id="Shape2DView_nwe0073"  d="M 5.61 0.2539999999999987 L 5.61 0.24763168969418187 L 5.61 0.2288460924472131 L 5.61 0.19858519654687817 L 5.61 0.15836640967211693 L 5.61 0.11020646973585832 L 5.61 0.0565203172249024 L 5.61 -1.4632442704425262e-15 L 5.61 -0.05652031722490532 L 5.61 -0.1102064697358612 L 5.61 -0.15836640967211973 L 5.61 -0.19858519654688095 L 5.61 -0.2288460924472158 L 5.61 -0.2476316896941845 L 5.61 -0.2540000000000013 " stroke="#191919" stroke-width="0.35 px" style="stroke-width:0.35;stroke-miterlimit:4;stroke-dasharray:none;fill:none;fill-opacity:1;fill-rule: evenodd"/>
<path id="Shape2DView_nwe0074"  d="M 5.080000000000001 -2.794 L 5.61 -2.794 " stroke="#191919" stroke-width="0.35 px" style="stroke-width:0.35;stroke-miterlimit:4;stroke-dasharray:none;fill:none;fill-opacity:1;fill-rule: evenodd"/>
<path id="Shape2DView_nwe0075"  d="M 5.61 -2.286 L 5.61 -2.292368310305817 L 5.61 -2.311153907552786 L 5.61 -2.3414148034531204 L 5.61 -2.381633590327882 L 5.61 -2.4297935302641402 L 5.61 -2.4834796827750965 L 5.61 -2.54 L 5.61 -2.596520317224904 L 5.61 -2.65020646973586 L 5.61 -2.6983664096721185 L 5.61 -2.7385851965468797 L 5.61 -2.7688460924472147 L 5.61 -2.7876316896941833 L 5.61 -2.794 " stroke="#191919" stroke-width="0.35 px" style="stroke-width:0.35;stroke-miterlimit:4;stroke-dasharray:none;fill:none;fill-opacity:1;fill-rule: evenodd"/>
<path id="Shape2DView_nwe0076"  d="M 5.08 -5.334 L 5.61 -5.334 " stroke="#191919" stroke-width="0.35 px" style="stroke-width:0.35;stroke-miterlimit:4;stroke-dasharray:none;fill:none;fill-opacity:1;fill-rule: evenodd"/>
<path id="Shape2DView_nwe0077"  d="M 5.61 -4.8260000000000005 L 5.61 -4.832368310305817 L 5.61 -4.851153907552786 L 5.61 -4.88141480345312 L 5.61 -4.921633590327882 L 5.61 -4.96979353026414 L 5.61 -5.023479682775096 L 5.61 -5.08 L 5.61 -5.136520317224904 L 5.61 -5.19020646973586 L 5.61 -5.2383664096721185 L 5.61 -5.27858519654688 L 5.61 -5.308846092447214 L 5.61 -5.327631689694183 L 5.61 -5.334 " stroke="#191919" stroke-width="0.35 px" style="stroke-width:0.35;stroke-miterlimit:4;stroke-dasharray:none;fill:none;fill-opacity:1;fill-rule: evenodd"/>
<path id="Shape2DView_nwe0078"  d="M -5.080000000000002 0.2540000000000001 L -5.61 0.2540000000000003 " stroke="#191919" stroke-width="0.35 px" style="stroke-width:0.35;stroke-miterlimit:4;stroke-dasharray:none;fill:none;fill-opacity:1;fill-rule: evenodd"/>
<path id="Shape2DView_nwe0079"  d="M -5.61 -0.2539999999999985 L -5.61 -0.24763168969418164 L -5.61 -0.22884609244721288 L -5.61 -0.19858519654687795 L -5.61 -0.1583664096721167 L -5.61 -0.1102064697358581 L -5.61 -0.05652031722490219 L -5.61 1.6836806942895263e-15 L -5.61 0.05652031722490553 L -5.61 0.11020646973586143 L -5.61 0.15836640967211996 L -5.61 0.19858519654688117 L -5.61 0.22884609244721602 L -5.61 0.24763168969418473 L -5.61 0.2540000000000015 " stroke="#191919" stroke-width="0.35 px" style="stroke-width:0.35;stroke-miterlimit:4;stroke-dasharray:none;fill:none;fill-opacity:1;fill-rule: evenodd"/>
<path id="Shape2DView_nwe0080"  d="M -5.080000000000001 2.794 L -5.61 2.7940000000000005 " stroke="#191919" stroke-width="0.35 px" style="stroke-width:0.35;stroke-miterlimit:4;stroke-dasharray:none;fill:none;fill-opacity:1;fill-rule: evenodd"/>
<path id="Shape2DView_nwe0081"  d="M -5.61 2.286 L -5.61 2.292368310305817 L -5.61 2.311153907552786 L -5.61 2.3414148034531204 L -5.61 2.381633590327882 L -5.61 2.4297935302641402 L -5.61 2.4834796827750965 L -5.61 2.54 L -5.61 2.596520317224904 L -5.61 2.65020646973586 L -5.61 2.6983664096721185 L -5.61 2.7385851965468797 L -5.61 2.7688460924472147 L -5.61 2.7876316896941833 L -5.61 2.794 " stroke="#191919" stroke-width="0.35 px" style="stroke-width:0.35;stroke-miterlimit:4;stroke-dasharray:none;fill:none;fill-opacity:1;fill-rule: evenodd"/>
<path id="Shape2DView_nwe0082"  d="M -5.080000000000002 -2.286 L -5.61 -2.2859999999999996 " stroke="#191919" stroke-width="0.35 px" style="stroke-width:0.35;stroke-miterlimit:4;stroke-dasharray:none;fill:none;fill-opacity:1;fill-rule: evenodd"/>
<path id="Shape2DView_nwe0083"  d="M -5.61 -2.794 L -5.61 -2.7876316896941833 L -5.61 -2.7688460924472142 L -5.61 -2.7385851965468797 L -5.61 -2.698366409672118 L -5.61 -2.65020646973586 L -5.61 -2.5965203172249036 L -5.61 -2.54 L -5.61 -2.483479682775096 L -5.61 -2.4297935302641402 L -5.61 -2.3816335903278816 L -5.61 -2.3414148034531204 L -5.61 -2.3111539075527854 L -5.61 -2.292368310305817 L -5.61 -2.286 " stroke="#191919" stroke-width="0.35 px" style="stroke-width:0.35;stroke-miterlimit:4;stroke-dasharray:none;fill:none;fill-opacity:1;fill-rule: evenodd"/>
<path id="Shape2DView_nwe0084"  d="M -5.080000000000003 -4.826 L -5.61 -4.826 " stroke="#191919" stroke-width="0.35 px" style="stroke-width:0.35;stroke-miterlimit:4;stroke-dasharray:none;fill:none;fill-opacity:1;fill-rule: evenodd"/>
<path id="Shape2DView_nwe0085"  d="M -5.61 -5.334 L -5.61 -5.327631689694183 L -5.61 -5.308846092447214 L -5.61 -5.27858519654688 L -5.61 -5.2383664096721185 L -5.61 -5.19020646973586 L -5.61 -5.136520317224904 L -5.61 -5.08 L -5.61 -5.023479682775096 L -5.61 -4.96979353026414 L -5.61 -4.921633590327882 L -5.61 -4.88141480345312 L -5.61 -4.851153907552786 L -5.61 -4.832368310305817 L -5.61 -4.8260000000000005 " stroke="#191919" stroke-width="0.35 px" style="stroke-width:0.35;stroke-miterlimit:4;stroke-dasharray:none;fill:none;fill-opacity:1;fill-rule: evenodd"/>
<path id="Shape2DView_nwe0086"  d="M -5.08 5.334 L -5.61 5.334 " stroke="#191919" stroke-width="0.35 px" style="stroke-width:0.35;stroke-miterlimit:4;stroke-dasharray:none;fill:none;fill-opacity:1;fill-rule: evenodd"/>
<path id="Shape2DView_nwe0087"  d="M -5.61 4.8260000000000005 L -5.61 4.832368310305817 L -5.61 4.851153907552786 L -5.61 4.88141480345312 L -5.61 4.921633590327882 L -5.61 4.96979353026414 L -5.61 5.023479682775096 L -5.61 5.08 L -5.61 5.136520317224904 L -5.61 5.19020646973586 L -5.61 5.2383664096721185 L -5.61 5.27858519654688 L -5.61 5.308846092447214 L -5.61 5.327631689694183 L -5.61 5.334 " stroke="#191919" stroke-width="0.35 px" style="stroke-width:0.35;stroke-miterlimit:4;stroke-dasharray:none;fill:none;fill-opacity:1;fill-rule: evenodd"/>
<path id="Shape2DView_nwe0088"  d="M 5.080000000000003 4.826 L 5.61 4.826 " stroke="#191919" stroke-width="0.35 px" style="stroke-width:0.35;stroke-miterlimit:4;stroke-dasharray:none;fill:none;fill-opacity:1;fill-rule: evenodd"/>
<path id="Shape2DView_nwe0089"  d="M 5.61 5.334 L 5.61 5.327631689694183 L 5.61 5.308846092447214 L 5.61 5.27858519654688 L 5.61 5.2383664096721185 L 5.61 5.19020646973586 L 5.61 5.136520317224904 L 5.61 5.08 L 5.61 5.023479682775096 L 5.61 4.96979353026414 L 5.61 4.921633590327882 L 5.61 4.88141480345312 L 5.61 4.851153907552786 L 5.61 4.832368310305817 L 5.61 4.8260000000000005 " stroke="#191919" stroke-width="0.35 px" style="stroke-width:0.35;stroke-miterlimit:4;stroke-dasharray:none;fill:none;fill-opacity:1;fill-rule: evenodd"/>
<path id="Shape2DView_nwe0090"  d="M 5.61 2.286 L 5.71 2.386 " stroke="#191919" stroke-width="0.35 px" style="stroke-width:0.35;stroke-miterlimit:4;stroke-dasharray:none;fill:none;fill-opacity:1;fill-rule: evenodd"/>
<path id="Shape2DView_nwe0091"  d="M 5.71 2.694 L 5.71 2.690138898476001 L 5.71 2.6787492056569726 L 5.71 2.6604020483000768 L 5.71 2.636017429486245 L 5.71 2.606818095824104 L 5.71 2.5742682238292725 L 5.71 2.54 L 5.71 2.5057317761707276 L 5.71 2.4731819041758962 L 5.71 2.443982570513755 L 5.71 2.4195979516999233 L 5.71 2.4012507943430275 L 5.71 2.389861101523999 L 5.71 2.386 " stroke="#191919" stroke-width="0.35 px" style="stroke-width:0.35;stroke-miterlimit:4;stroke-dasharray:none;fill:none;fill-opacity:1;fill-rule: evenodd"/>
<path id="Shape2DView_nwe0092"  d="M 5.61 -0.254 L 5.71 -0.15400000000000014 " stroke="#191919" stroke-width="0.35 px" style="stroke-width:0.35;stroke-miterlimit:4;stroke-dasharray:none;fill:none;fill-opacity:1;fill-rule: evenodd"/>
<path id="Shape2DView_nwe0093"  d="M 5.71 0.1539999999999987 L 5.71 0.15013889847599954 L 5.71 0.13874920565697124 L 5.71 0.12040204830007531 L 5.71 0.09601742948624367 L 5.71 0.06681809582410267 L 5.71 0.03426822382927114 L 5.71 -1.2796198204916573e-15 L 5.71 -0.0342682238292737 L 5.71 -0.06681809582410522 L 5.71 -0.09601742948624625 L 5.71 -0.12040204830007788 L 5.71 -0.13874920565697382 L 5.71 -0.15013889847600215 L 5.71 -0.1540000000000013 " stroke="#191919" stroke-width="0.35 px" style="stroke-width:0.35;stroke-miterlimit:4;stroke-dasharray:none;fill:none;fill-opacity:1;fill-rule: evenodd"/>
<path id="Shape2DView_nwe0094"  d="M 5.61 -2.794 L 5.71 -2.694 " stroke="#191919" stroke-width="0.35 px" style="stroke-width:0.35;stroke-miterlimit:4;stroke-dasharray:none;fill:none;fill-opacity:1;fill-rule: evenodd"/>
<path id="Shape2DView_nwe0095"  d="M 5.71 -2.386 L 5.71 -2.389861101523999 L 5.71 -2.4012507943430275 L 5.71 -2.4195979516999233 L 5.71 -2.443982570513755 L 5.71 -2.4731819041758962 L 5.71 -2.5057317761707276 L 5.71 -2.54 L 5.71 -2.5742682238292725 L 5.71 -2.606818095824104 L 5.71 -2.636017429486245 L 5.71 -2.6604020483000768 L 5.71 -2.6787492056569726 L 5.71 -2.690138898476001 L 5.71 -2.694 " stroke="#191919" stroke-width="0.35 px" style="stroke-width:0.35;stroke-miterlimit:4;stroke-dasharray:none;fill:none;fill-opacity:1;fill-rule: evenodd"/>
<path id="Shape2DView_nwe0096"  d="M 5.61 -5.334 L 5.71 -5.234 " stroke="#191919" stroke-width="0.35 px" style="stroke-width:0.35;stroke-miterlimit:4;stroke-dasharray:none;fill:none;fill-opacity:1;fill-rule: evenodd"/>
<path id="Shape2DView_nwe0097"  d="M 5.71 -4.926 L 5.71 -4.929861101523999 L 5.71 -4.941250794343028 L 5.71 -4.959597951699924 L 5.71 -4.9839825705137555 L 5.71 -5.013181904175896 L 5.71 -5.045731776170728 L 5.71 -5.08 L 5.71 -5.1142682238292725 L 5.71 -5.146818095824104 L 5.71 -5.176017429486245 L 5.71 -5.200402048300076 L 5.71 -5.218749205656972 L 5.71 -5.230138898476001 L 5.71 -5.234 " stroke="#191919" stroke-width="0.35 px" style="stroke-width:0.35;stroke-miterlimit:4;stroke-dasharray:none;fill:none;fill-opacity:1;fill-rule: evenodd"/>
<path id="Shape2DView_nwe0098"  d="M -5.61 0.254 L -5.71 0.15400000000000014 " stroke="#191919" stroke-width="0.35 px" style="stroke-width:0.35;stroke-miterlimit:4;stroke-dasharray:none;fill:none;fill-opacity:1;fill-rule: evenodd"/>
<path id="Shape2DView_nwe0099"  d="M -5.71 -0.15399999999999844 L -5.71 -0.1501388984759993 L -5.71 -0.138749205656971 L -5.71 -0.12040204830007507 L -5.71 -0.09601742948624344 L -5.71 -0.06681809582410243 L -5.71 -0.03426822382927091 L -5.71 1.5123027123296574e-15 L -5.71 0.03426822382927393 L -5.71 0.06681809582410546 L -5.71 0.09601742948624649 L -5.71 0.12040204830007811 L -5.71 0.13874920565697407 L -5.71 0.1501388984760024 L -5.71 0.15400000000000155 " stroke="#191919" stroke-width="0.35 px" style="stroke-width:0.35;stroke-miterlimit:4;stroke-dasharray:none;fill:none;fill-opacity:1;fill-rule: evenodd"/>
<path id="Shape2DView_nwe0100"  d="M -5.61 2.794 L -5.71 2.694 " stroke="#191919" stroke-width="0.35 px" style="stroke-width:0.35;stroke-miterlimit:4;stroke-dasharray:none;fill:none;fill-opacity:1;fill-rule: evenodd"/>
<path id="Shape2DView_nwe0101"  d="M -5.71 2.386 L -5.71 2.389861101523999 L -5.71 2.4012507943430275 L -5.71 2.4195979516999233 L -5.71 2.443982570513755 L -5.71 2.4731819041758962 L -5.71 2.5057317761707276 L -5.71 2.54 L -5.71 2.5742682238292725 L -5.71 2.606818095824104 L -5.71 2.636017429486245 L -5.71 2.6604020483000768 L -5.71 2.6787492056569726 L -5.71 2.690138898476001 L -5.71 2.694 " stroke="#191919" stroke-width="0.35 px" style="stroke-width:0.35;stroke-miterlimit:4;stroke-dasharray:none;fill:none;fill-opacity:1;fill-rule: evenodd"/>
<path id="Shape2DView_nwe0102"  d="M -5.61 -2.286 L -5.71 -2.386 " stroke="#191919" stroke-width="0.35 px" style="stroke-width:0.35;stroke-miterlimit:4;stroke-dasharray:none;fill:none;fill-opacity:1;fill-rule: evenodd"/>
<path id="Shape2DView_nwe0103"  d="M -5.71 -2.694 L -5.71 -2.690138898476001 L -5.71 -2.6787492056569726 L -5.71 -2.6604020483000768 L -5.71 -2.636017429486245 L -5.71 -2.606818095824104 L -5.71 -2.5742682238292725 L -5.71 -2.54 L -5.71 -2.5057317761707276 L -5.71 -2.4731819041758962 L -5.71 -2.443982570513755 L -5.71 -2.4195979516999233 L -5.71 -2.4012507943430275 L -5.71 -2.389861101523999 L -5.71 -2.386 " stroke="#191919" stroke-width="0.35 px" style="stroke-width:0.35;stroke-miterlimit:4;stroke-dasharray:none;fill:none;fill-opacity:1;fill-rule: evenodd"/>
<path id="Shape2DView_nwe0104"  d="M -5.61 -4.826 L -5.710000000000001 -4.926 " stroke="#191919" stroke-width="0.35 px" style="stroke-width:0.35;stroke-miterlimit:4;stroke-dasharray:none;fill:none;fill-opacity:1;fill-rule: evenodd"/>
<path id="Shape2DView_nwe0105"  d="M -5.71 -5.234 L -5.71 -5.230138898476001 L -5.71 -5.218749205656972 L -5.71 -5.200402048300076 L -5.71 -5.176017429486245 L -5.71 -5.146818095824104 L -5.71 -5.1142682238292725 L -5.71 -5.08 L -5.71 -5.045731776170728 L -5.71 -5.013181904175896 L -5.71 -4.9839825705137555 L -5.71 -4.959597951699924 L -5.71 -4.941250794343028 L -5.71 -4.929861101523999 L -5.71 -4.926 " stroke="#191919" stroke-width="0.35 px" style="stroke-width:0.35;stroke-miterlimit:4;stroke-dasharray:none;fill:none;fill-opacity:1;fill-rule: evenodd"/>
<path id="Shape2DView_nwe0106"  d="M -5.61 5.334 L -5.71 5.234 " stroke="#191919" stroke-width="0.35 px" style="stroke-width:0.35;stroke-miterlimit:4;stroke-dasharray:none;fill:none;fill-opacity:1;fill-rule: evenodd"/>
<path id="Shape2DView_nwe0107"  d="M -5.71 4.926 L -5.71 4.929861101523999 L -5.71 4.941250794343028 L -5.71 4.959597951699924 L -5.71 4.9839825705137555 L -5.71 5.013181904175896 L -5.71 5.045731776170728 L -5.71 5.08 L -5.71 5.1142682238292725 L -5.71 5.146818095824104 L -5.71 5.176017429486245 L -5.71 5.200402048300076 L -5.71 5.218749205656972 L -5.71 5.230138898476001 L -5.71 5.234 " stroke="#191919" stroke-width="0.35 px" style="stroke-width:0.35;stroke-miterlimit:4;stroke-dasharray:none;fill:none;fill-opacity:1;fill-rule: evenodd"/>
<path id="Shape2DView_nwe0108"  d="M 5.61 4.826 L 5.710000000000001 4.926 " stroke="#191919" stroke-width="0.35 px" style="stroke-width:0.35;stroke-miterlimit:4;stroke-dasharray:none;fill:none;fill-opacity:1;fill-rule: evenodd"/>
<path id="Shape2DView_nwe0109"  d="M 5.71 5.234 L 5.71 5.230138898476001 L 5.71 5.218749205656972 L 5.71 5.200402048300076 L 5.71 5.176017429486245 L 5.71 5.146818095824104 L 5.71 5.1142682238292725 L 5.71 5.08 L 5.71 5.045731776170728 L 5.71 5.013181904175896 L 5.71 4.9839825705137555 L 5.71 4.959597951699924 L 5.71 4.941250794343028 L 5.71 4.929861101523999 L 5.71 4.926 " stroke="#191919" stroke-width="0.35 px" style="stroke-width:0.35;stroke-miterlimit:4;stroke-dasharray:none;fill:none;fill-opacity:1;fill-rule: evenodd"/>
<path id="Shape2DView_nwe0110"  d="M -3.81 -0.762 L -3.81 -0.2540000000000051 " stroke="#191919" stroke-width="0.35 px" style="stroke-width:0.35;stroke-miterlimit:4;stroke-dasharray:none;fill:none;fill-opacity:1;fill-rule: evenodd"/>
<path id="Shape2DView_nwe0111"  d="M -3.81 1.778 L -3.81 2.285999999999995 " stroke="#191919" stroke-width="0.35 px" style="stroke-width:0.35;stroke-miterlimit:4;stroke-dasharray:none;fill:none;fill-opacity:1;fill-rule: evenodd"/>
<path id="Shape2DView_nwe0112"  d="M -3.81 -5.842 L -3.81 -5.334000000000005 " stroke="#191919" stroke-width="0.35 px" style="stroke-width:0.35;stroke-miterlimit:4;stroke-dasharray:none;fill:none;fill-opacity:1;fill-rule: evenodd"/>
<path id="Shape2DView_nwe0113"  d="M -3.81 -3.302 L -3.81 -2.794000000000005 " stroke="#191919" stroke-width="0.35 px" style="stroke-width:0.35;stroke-miterlimit:4;stroke-dasharray:none;fill:none;fill-opacity:1;fill-rule: evenodd"/>
<path id="Shape2DView_nwe0114"  d="M -3.81 4.318 L -3.81 4.825999999999994 " stroke="#191919" stroke-width="0.35 px" style="stroke-width:0.35;stroke-miterlimit:4;stroke-dasharray:none;fill:none;fill-opacity:1;fill-rule: evenodd"/>
<path id="Shape2DView_nwe0115"  d="M 3.81 3.302 L 3.81 2.794000000000005 " stroke="#191919" stroke-width="0.35 px" style="stroke-width:0.35;stroke-miterlimit:4;stroke-dasharray:none;fill:none;fill-opacity:1;fill-rule: evenodd"/>
<path id="Shape2DView_nwe0116"  d="M 3.81 0.762 L 3.81 0.2540000000000051 " stroke="#191919" stroke-width="0.35 px" style="stroke-width:0.35;stroke-miterlimit:4;stroke-dasharray:none;fill:none;fill-opacity:1;fill-rule: evenodd"/>
<path id="Shape2DView_nwe0117"  d="M 3.81 5.842 L 3.81 5.334000000000005 " stroke="#191919" stroke-width="0.35 px" style="stroke-width:0.35;stroke-miterlimit:4;stroke-dasharray:none;fill:none;fill-opacity:1;fill-rule: evenodd"/>
<path id="Shape2DView_nwe0118"  d="M 3.81 -4.318 L 3.81 -4.825999999999994 " stroke="#191919" stroke-width="0.35 px" style="stroke-width:0.35;stroke-miterlimit:4;stroke-dasharray:none;fill:none;fill-opacity:1;fill-rule: evenodd"/>
<path id="Shape2DView_nwe0119"  d="M 3.81 -1.778 L 3.81 -2.285999999999995 " stroke="#191919" stroke-width="0.35 px" style="stroke-width:0.35;stroke-miterlimit:4;stroke-dasharray:none;fill:none;fill-opacity:1;fill-rule: evenodd"/>
<path id="Shape2DView_nwe0120"  d="M 5.080000000000002 2.794 L 5.61 2.794 " stroke="#191919" stroke-width="0.35 px" style="stroke-width:0.35;stroke-miterlimit:4;stroke-dasharray:none;fill:none;fill-opacity:1;fill-rule: evenodd"/>
<path id="Shape2DView_nwe0121"  d="M 5.080000000000002 0.25399999999999884 L 5.61 0.2539999999999987 " stroke="#191919" stroke-width="0.35 px" style="stroke-width:0.35;stroke-miterlimit:4;stroke-dasharray:none;fill:none;fill-opacity:1;fill-rule: evenodd"/>
<path id="Shape2DView_nwe0122"  d="M 5.080000000000001 -2.286 L 5.61 -2.286 " stroke="#191919" stroke-width="0.35 px" style="stroke-width:0.35;stroke-miterlimit:4;stroke-dasharray:none;fill:none;fill-opacity:1;fill-rule: evenodd"/>
<path id="Shape2DView_nwe0123"  d="M 5.08 -4.8260000000000005 L 5.61 -4.8260000000000005 " stroke="#191919" stroke-width="0.35 px" style="stroke-width:0.35;stroke-miterlimit:4;stroke-dasharray:none;fill:none;fill-opacity:1;fill-rule: evenodd"/>
<path id="Shape2DView_nwe0124"  d="M -5.080000000000002 -0.25399999999999867 L -5.61 -0.2539999999999985 " stroke="#191919" stroke-width="0.35 px" style="stroke-width:0.35;stroke-miterlimit:4;stroke-dasharray:none;fill:none;fill-opacity:1;fill-rule: evenodd"/>
<path id="Shape2DView_nwe0125"  d="M -5.080000000000001 2.286 L -5.61 2.2860000000000005 " stroke="#191919" stroke-width="0.35 px" style="stroke-width:0.35;stroke-miterlimit:4;stroke-dasharray:none;fill:none;fill-opacity:1;fill-rule: evenodd"/>
<path id="Shape2DView_nwe0126"  d="M -5.080000000000002 -2.794 L -5.61 -2.7939999999999996 " stroke="#191919" stroke-width="0.35 px" style="stroke-width:0.35;stroke-miterlimit:4;stroke-dasharray:none;fill:none;fill-opacity:1;fill-rule: evenodd"/>
<path id="Shape2DView_nwe0127"  d="M -5.080000000000003 -5.334 L -5.61 -5.334 " stroke="#191919" stroke-width="0.35 px" style="stroke-width:0.35;stroke-miterlimit:4;stroke-dasharray:none;fill:none;fill-opacity:1;fill-rule: evenodd"/>
<path id="Shape2DView_nwe0128"  d="M -5.08 4.8260000000000005 L -5.61 4.8260000000000005 " stroke="#191919" stroke-width="0.35 px" style="stroke-width:0.35;stroke-miterlimit:4;stroke-dasharray:none;fill:none;fill-opacity:1;fill-rule: evenodd"/>
<path id="Shape2DView_nwe0129"  d="M 5.080000000000003 5.334 L 5.61 5.334 " stroke="#191919" stroke-width="0.35 px" style="stroke-width:0.35;stroke-miterlimit:4;stroke-dasharray:none;fill:none;fill-opacity:1;fill-rule: evenodd"/>
<path id="Shape2DView_nwe0130"  d="M 5.710000000000045 2.6940000000000444 L 5.61 2.7939999999999996 " stroke="#191919" stroke-width="0.35 px" style="stroke-width:0.35;stroke-miterlimit:4;stroke-dasharray:none;fill:none;fill-opacity:1;fill-rule: evenodd"/>
<path id="Shape2DView_nwe0131"  d="M 5.710000000000045 0.15400000000004344 L 5.61 0.25399999999999856 " stroke="#191919" stroke-width="0.35 px" style="stroke-width:0.35;stroke-miterlimit:4;stroke-dasharray:none;fill:none;fill-opacity:1;fill-rule: evenodd"/>
<path id="Shape2DView_nwe0132"  d="M 5.710000000000045 -2.3859999999999557 L 5.61 -2.286 " stroke="#191919" stroke-width="0.35 px" style="stroke-width:0.35;stroke-miterlimit:4;stroke-dasharray:none;fill:none;fill-opacity:1;fill-rule: evenodd"/>
<path id="Shape2DView_nwe0133"  d="M 5.710000000000044 -4.925999999999956 L 5.61 -4.8260000000000005 " stroke="#191919" stroke-width="0.35 px" style="stroke-width:0.35;stroke-miterlimit:4;stroke-dasharray:none;fill:none;fill-opacity:1;fill-rule: evenodd"/>
<path id="Shape2DView_nwe0134"  d="M -5.710000000000045 -0.15400000000004366 L -5.61 -0.2539999999999988 " stroke="#191919" stroke-width="0.35 px" style="stroke-width:0.35;stroke-miterlimit:4;stroke-dasharray:none;fill:none;fill-opacity:1;fill-rule: evenodd"/>
<path id="Shape2DView_nwe0135"  d="M -5.710000000000045 2.385999999999955 L -5.61 2.2859999999999996 " stroke="#191919" stroke-width="0.35 px" style="stroke-width:0.35;stroke-miterlimit:4;stroke-dasharray:none;fill:none;fill-opacity:1;fill-rule: evenodd"/>
<path id="Shape2DView_nwe0136"  d="M -5.710000000000045 -2.6940000000000452 L -5.61 -2.7940000000000005 " stroke="#191919" stroke-width="0.35 px" style="stroke-width:0.35;stroke-miterlimit:4;stroke-dasharray:none;fill:none;fill-opacity:1;fill-rule: evenodd"/>
<path id="Shape2DView_nwe0137"  d="M -5.710000000000045 -5.234000000000045 L -5.61 -5.334 " stroke="#191919" stroke-width="0.35 px" style="stroke-width:0.35;stroke-miterlimit:4;stroke-dasharray:none;fill:none;fill-opacity:1;fill-rule: evenodd"/>
<path id="Shape2DView_nwe0138"  d="M -5.710000000000045 4.925999999999955 L -5.61 4.8260000000000005 " stroke="#191919" stroke-width="0.35 px" style="stroke-width:0.35;stroke-miterlimit:4;stroke-dasharray:none;fill:none;fill-opacity:1;fill-rule: evenodd"/>
<path id="Shape2DView_nwe0139"  d="M 5.710000000000044 5.234000000000044 L 5.61 5.334 " stroke="#191919" stroke-width="0.35 px" style="stroke-width:0.35;stroke-miterlimit:4;stroke-dasharray:none;fill:none;fill-opacity:1;fill-rule: evenodd"/>
<title>b'Shape2DView'</title>
</g>
<g id="Rectangle" transform="translate(5.824200,6.464200) scale(1,-1)">
<rect fill="#ff0000" id="origin" width="1" height="1" x="0" y="0" />
<title>b'Rectangle'</title>
</g>
</svg>