<?xml version="1.0"?>
<!DOCTYPE svg PUBLIC "-//W3C//DTD SVG 1.1//EN" "http://www.w3.org/Graphics/SVG/1.1/DTD/svg11.dtd">
<svg width="10.426440000000001mm" height="10.48444mm" viewBox="0 0 10.426440000000001 10.48444" xmlns="http://www.w3.org/2000/svg" version="1.1">
<g id="Shape2DView" transform="translate(5.213220,5.242220) scale(1,-1)">
<path id="Shape2DView_nwe0000"  d="M 3.695 -5.14 L 3.6949999999999985 -4.27 " stroke="#191919" stroke-width="0.35 px" style="stroke-width:0.35;stroke-miterlimit:4;stroke-dasharray:none;fill:none;fill-opacity:1;fill-rule: evenodd"/>
<path id="Shape2DView_nwe0001"  d="M 3.6949999999999874 4.2700000000000005 L 3.694999999999986 5.14 " stroke="#191919" stroke-width="0.35 px" style="stroke-width:0.35;stroke-miterlimit:4;stroke-dasharray:none;fill:none;fill-opacity:1;fill-rule: evenodd"/>
<path id="Shape2DView_nwe0002"  d="M 3.6949999999999976 -3.35 L 3.6949999999999954 -1.73 " stroke="#191919" stroke-width="0.35 px" style="stroke-width:0.35;stroke-miterlimit:4;stroke-dasharray:none;fill:none;fill-opacity:1;fill-rule: evenodd"/>
<path id="Shape2DView_nwe0003"  d="M 3.6949999999999905 1.7299999999999995 L 3.6949999999999887 3.3500000000000005 " stroke="#191919" stroke-width="0.35 px" style="stroke-width:0.35;stroke-miterlimit:4;stroke-dasharray:none;fill:none;fill-opacity:1;fill-rule: evenodd"/>
<path id="Shape2DView_nwe0004"  d="M 3.694999999999994 -0.8099999999999996 L 3.694999999999992 0.8099999999999996 " stroke="#191919" stroke-width="0.35 px" style="stroke-width:0.35;stroke-miterlimit:4;stroke-dasharray:none;fill:none;fill-opacity:1;fill-rule: evenodd"/>
<path id="Shape2DView_nwe0005"  d="M 3.695 5.14 L -3.695 5.13999999999999 " stroke="#191919" stroke-width="0.35 px" style="stroke-width:0.35;stroke-miterlimit:4;stroke-dasharray:none;fill:none;fill-opacity:1;fill-rule: evenodd"/>
<path id="Shape2DView_nwe0006"  d="M -3.695 5.14 L -3.6949999999999985 4.27 " stroke="#191919" stroke-width="0.35 px" style="stroke-width:0.35;stroke-miterlimit:4;stroke-dasharray:none;fill:none;fill-opacity:1;fill-rule: evenodd"/>
<path id="Shape2DView_nwe0007"  d="M -3.6949999999999874 -4.2700000000000005 L -3.694999999999986 -5.14 " stroke="#191919" stroke-width="0.35 px" style="stroke-width:0.35;stroke-miterlimit:4;stroke-dasharray:none;fill:none;fill-opacity:1;fill-rule: evenodd"/>
<path id="Shape2DView_nwe0008"  d="M -3.6949999999999976 3.35 L -3.6949999999999954 1.73 " stroke="#191919" stroke-width="0.35 px" style="stroke-width:0.35;stroke-miterlimit:4;stroke-dasharray:none;fill:none;fill-opacity:1;fill-rule: evenodd"/>
<path id="Shape2DView_nwe0009"  d="M -3.6949999999999905 -1.7299999999999995 L -3.6949999999999887 -3.3500000000000005 " stroke="#191919" stroke-width="0.35 px" style="stroke-width:0.35;stroke-miterlimit:4;stroke-dasharray:none;fill:none;fill-opacity:1;fill-rule: evenodd"/>
<path id="Shape2DView_nwe0010"  d="M -3.694999999999994 0.8099999999999996 L -3.694999999999992 -0.8099999999999996 " stroke="#191919" stroke-width="0.35 px" style="stroke-width:0.35;stroke-miterlimit:4;stroke-dasharray:none;fill:none;fill-opacity:1;fill-rule: evenodd"/>
<path id="Shape2DView_nwe0011"  d="M -3.695 -5.14 L 3.695 -5.13999999999999 " stroke="#191919" stroke-width="0.35 px" style="stroke-width:0.35;stroke-miterlimit:4;stroke-dasharray:none;fill:none;fill-opacity:1;fill-rule: evenodd"/>
<path id="Shape2DView_nwe0012"  d="M 3.695 -5.14 L 3.62 -5.065 " stroke="#191919" stroke-width="0.35 px" style="stroke-width:0.35;stroke-miterlimit:4;stroke-dasharray:none;fill:none;fill-opacity:1;fill-rule: evenodd"/>
<path id="Shape2DView_nwe0013"  d="M 3.62 -5.065 L 3.619999999999999 -4.27 " stroke="#191919" stroke-width="0.35 px" style="stroke-width:0.35;stroke-miterlimit:4;stroke-dasharray:none;fill:none;fill-opacity:1;fill-rule: evenodd"/>
<path id="Shape2DView_nwe0014"  d="M 4.445 -4.27 L 4.445798549343558 -4.27 L 4.448184155152909 -4.27 L 4.4521268170508375 -4.27 L 4.4575769537763925 -4.27 L 4.464466026698008 -4.27 L 4.47270740172656 -4.27 L 4.482197438789308 -4.27 L 4.492816795163941 -4.27 L 4.504431926282552 -4.27 L 4.516896765132071 -4.27 L 4.530054559131694 -4.27 L 4.5437398413875485 -4.27 L 4.55778051153488 -4.27 L 4.572 -4.27 " stroke="#191919" stroke-width="0.35 px" style="stroke-width:0.35;stroke-miterlimit:4;stroke-dasharray:none;fill:none;fill-opacity:1;fill-rule: evenodd"/>
<path id="Shape2DView_nwe0015"  d="M 4.064 -4.27 L 4.10665846539536 -4.27 L 4.148780475837356 -4.27 L 4.1898363226049185 -4.27 L 4.229309704603789 -4.27 L 4.266704221152343 -4.27 L 4.301549614508177 -4.27 L 4.333407683632075 -4.27 L 4.36187779482032 -4.27 L 4.386601919905976 -4.27 L 4.407269138670822 -4.27 L 4.423619548847488 -4.27 L 4.435447534541275 -4.269999999999999 L 4.442604351969326 -4.269999999999999 L 4.445 -4.269999999999999 " stroke="#191919" stroke-width="0.35 px" style="stroke-width:0.35;stroke-miterlimit:4;stroke-dasharray:none;fill:none;fill-opacity:1;fill-rule: evenodd"/>
<path id="Shape2DView_nwe0016"  d="M 3.6950000000000003 -4.269999999999995 L 4.064 -4.269999999999994 " stroke="#191919" stroke-width="0.35 px" style="stroke-width:0.35;stroke-miterlimit:4;stroke-dasharray:none;fill:none;fill-opacity:1;fill-rule: evenodd"/>
<path id="Shape2DView_nwe0017"  d="M 5.111 -4.27 L 4.572 -4.2700000000000005 " stroke="#191919" stroke-width="0.35 px" style="stroke-width:0.35;stroke-miterlimit:4;stroke-dasharray:none;fill:none;fill-opacity:1;fill-rule: evenodd"/>
<path id="Shape2DView_nwe0018"  d="M 4.445 4.27 L 4.445798549343558 4.27 L 4.448184155152909 4.27 L 4.4521268170508375 4.27 L 4.4575769537763925 4.27 L 4.464466026698008 4.27 L 4.47270740172656 4.27 L 4.482197438789308 4.27 L 4.492816795163941 4.27 L 4.504431926282552 4.27 L 4.516896765132071 4.27 L 4.530054559131694 4.27 L 4.5437398413875485 4.27 L 4.55778051153488 4.27 L 4.572 4.27 " stroke="#191919" stroke-width="0.35 px" style="stroke-width:0.35;stroke-miterlimit:4;stroke-dasharray:none;fill:none;fill-opacity:1;fill-rule: evenodd"/>
<path id="Shape2DView_nwe0019"  d="M 4.572 4.2700000000000005 L 5.111 4.2700000000000005 " stroke="#191919" stroke-width="0.35 px" style="stroke-width:0.35;stroke-miterlimit:4;stroke-dasharray:none;fill:none;fill-opacity:1;fill-rule: evenodd"/>
<path id="Shape2DView_nwe0020"  d="M 4.064 4.269999999999999 L 3.695 4.269999999999999 " stroke="#191919" stroke-width="0.35 px" style="stroke-width:0.35;stroke-miterlimit:4;stroke-dasharray:none;fill:none;fill-opacity:1;fill-rule: evenodd"/>
<path id="Shape2DView_nwe0021"  d="M 4.064 4.27 L 4.10665846539536 4.27 L 4.148780475837356 4.27 L 4.1898363226049185 4.27 L 4.229309704603789 4.27 L 4.266704221152343 4.27 L 4.301549614508177 4.27 L 4.333407683632075 4.27 L 4.36187779482032 4.27 L 4.386601919905976 4.27 L 4.407269138670822 4.27 L 4.423619548847488 4.27 L 4.435447534541275 4.2700000000000005 L 4.442604351969326 4.2700000000000005 L 4.445 4.2700000000000005 " stroke="#191919" stroke-width="0.35 px" style="stroke-width:0.35;stroke-miterlimit:4;stroke-dasharray:none;fill:none;fill-opacity:1;fill-rule: evenodd"/>
<path id="Shape2DView_nwe0022"  d="M 3.695 5.14 L 3.62 5.065 " stroke="#191919" stroke-width="0.35 px" style="stroke-width:0.35;stroke-miterlimit:4;stroke-dasharray:none;fill:none;fill-opacity:1;fill-rule: evenodd"/>
<path id="Shape2DView_nwe0023"  d="M 3.6199999999999877 4.2700000000000005 L 3.619999999999987 5.065 " stroke="#191919" stroke-width="0.35 px" style="stroke-width:0.35;stroke-miterlimit:4;stroke-dasharray:none;fill:none;fill-opacity:1;fill-rule: evenodd"/>
<path id="Shape2DView_nwe0024"  d="M 4.445 -3.35 L 4.445798549343558 -3.35 L 4.448184155152909 -3.35 L 4.4521268170508375 -3.35 L 4.4575769537763925 -3.35 L 4.464466026698008 -3.35 L 4.47270740172656 -3.35 L 4.482197438789308 -3.35 L 4.492816795163941 -3.35 L 4.504431926282552 -3.35 L 4.516896765132071 -3.35 L 4.530054559131694 -3.35 L 4.5437398413875485 -3.35 L 4.55778051153488 -3.35 L 4.572 -3.35 " stroke="#191919" stroke-width="0.35 px" style="stroke-width:0.35;stroke-miterlimit:4;stroke-dasharray:none;fill:none;fill-opacity:1;fill-rule: evenodd"/>
<path id="Shape2DView_nwe0025"  d="M 4.572 -3.3499999999999996 L 5.111 -3.3499999999999988 " stroke="#191919" stroke-width="0.35 px" style="stroke-width:0.35;stroke-miterlimit:4;stroke-dasharray:none;fill:none;fill-opacity:1;fill-rule: evenodd"/>
<path id="Shape2DView_nwe0026"  d="M 4.064 -3.3500000000000005 L 3.695 -3.350000000000001 " stroke="#191919" stroke-width="0.35 px" style="stroke-width:0.35;stroke-miterlimit:4;stroke-dasharray:none;fill:none;fill-opacity:1;fill-rule: evenodd"/>
<path id="Shape2DView_nwe0027"  d="M 4.064 -3.35 L 4.10665846539536 -3.35 L 4.148780475837356 -3.35 L 4.1898363226049185 -3.35 L 4.229309704603789 -3.35 L 4.266704221152343 -3.3499999999999996 L 4.301549614508177 -3.3499999999999996 L 4.333407683632075 -3.3499999999999996 L 4.36187779482032 -3.3499999999999996 L 4.386601919905976 -3.3499999999999996 L 4.407269138670822 -3.3499999999999996 L 4.423619548847488 -3.3499999999999996 L 4.435447534541275 -3.3499999999999996 L 4.442604351969326 -3.3499999999999996 L 4.445 -3.3499999999999996 " stroke="#191919" stroke-width="0.35 px" style="stroke-width:0.35;stroke-miterlimit:4;stroke-dasharray:none;fill:none;fill-opacity:1;fill-rule: evenodd"/>
<path id="Shape2DView_nwe0028"  d="M 4.445 3.35 L 4.445798549343558 3.35 L 4.448184155152909 3.35 L 4.4521268170508375 3.35 L 4.4575769537763925 3.35 L 4.464466026698008 3.35 L 4.47270740172656 3.35 L 4.482197438789308 3.35 L 4.492816795163941 3.35 L 4.504431926282552 3.35 L 4.516896765132071 3.35 L 4.530054559131694 3.35 L 4.5437398413875485 3.35 L 4.55778051153488 3.35 L 4.572 3.35 " stroke="#191919" stroke-width="0.35 px" style="stroke-width:0.35;stroke-miterlimit:4;stroke-dasharray:none;fill:none;fill-opacity:1;fill-rule: evenodd"/>
<path id="Shape2DView_nwe0029"  d="M 4.064 3.35 L 4.10665846539536 3.35 L 4.148780475837356 3.35 L 4.1898363226049185 3.35 L 4.229309704603789 3.35 L 4.266704221152343 3.3500000000000005 L 4.301549614508177 3.3500000000000005 L 4.333407683632075 3.3500000000000005 L 4.36187779482032 3.3500000000000005 L 4.386601919905976 3.3500000000000005 L 4.407269138670822 3.3500000000000005 L 4.423619548847488 3.3500000000000005 L 4.435447534541275 3.3500000000000005 L 4.442604351969326 3.3500000000000005 L 4.445 3.3500000000000005 " stroke="#191919" stroke-width="0.35 px" style="stroke-width:0.35;stroke-miterlimit:4;stroke-dasharray:none;fill:none;fill-opacity:1;fill-rule: evenodd"/>
<path id="Shape2DView_nwe0030"  d="M 4.064 3.3499999999999996 L 3.695 3.349999999999999 " stroke="#191919" stroke-width="0.35 px" style="stroke-width:0.35;stroke-miterlimit:4;stroke-dasharray:none;fill:none;fill-opacity:1;fill-rule: evenodd"/>
<path id="Shape2DView_nwe0031"  d="M 5.111 3.35 L 4.572 3.3499999999999996 " stroke="#191919" stroke-width="0.35 px" style="stroke-width:0.35;stroke-miterlimit:4;stroke-dasharray:none;fill:none;fill-opacity:1;fill-rule: evenodd"/>
<path id="Shape2DView_nwe0032"  d="M 3.619999999999998 -3.35 L 3.6199999999999957 -1.73 " stroke="#191919" stroke-width="0.35 px" style="stroke-width:0.35;stroke-miterlimit:4;stroke-dasharray:none;fill:none;fill-opacity:1;fill-rule: evenodd"/>
<path id="Shape2DView_nwe0033"  d="M 4.445 -1.7300000000000002 L 4.445798549343558 -1.7300000000000002 L 4.448184155152909 -1.7300000000000002 L 4.4521268170508375 -1.7300000000000002 L 4.4575769537763925 -1.7300000000000002 L 4.464466026698008 -1.7300000000000002 L 4.47270740172656 -1.7300000000000002 L 4.482197438789308 -1.73 L 4.492816795163941 -1.73 L 4.504431926282552 -1.73 L 4.51689676513207 -1.73 L 4.530054559131694 -1.73 L 4.5437398413875485 -1.73 L 4.5577805115348795 -1.73 L 4.572 -1.73 " stroke="#191919" stroke-width="0.35 px" style="stroke-width:0.35;stroke-miterlimit:4;stroke-dasharray:none;fill:none;fill-opacity:1;fill-rule: evenodd"/>
<path id="Shape2DView_nwe0034"  d="M 4.064 -1.73 L 4.10665846539536 -1.73 L 4.148780475837356 -1.73 L 4.1898363226049185 -1.7299999999999998 L 4.229309704603789 -1.7299999999999998 L 4.266704221152343 -1.7299999999999998 L 4.301549614508177 -1.7299999999999998 L 4.333407683632075 -1.7299999999999998 L 4.36187779482032 -1.7299999999999995 L 4.386601919905976 -1.7299999999999995 L 4.407269138670822 -1.7299999999999995 L 4.423619548847488 -1.7299999999999995 L 4.435447534541275 -1.7299999999999995 L 4.442604351969326 -1.7299999999999995 L 4.445 -1.7299999999999995 " stroke="#191919" stroke-width="0.35 px" style="stroke-width:0.35;stroke-miterlimit:4;stroke-dasharray:none;fill:none;fill-opacity:1;fill-rule: evenodd"/>
<path id="Shape2DView_nwe0035"  d="M 4.064 -1.7300000000000004 L 3.695 -1.7300000000000009 " stroke="#191919" stroke-width="0.35 px" style="stroke-width:0.35;stroke-miterlimit:4;stroke-dasharray:none;fill:none;fill-opacity:1;fill-rule: evenodd"/>
<path id="Shape2DView_nwe0036"  d="M 5.111 -1.73 L 4.572 -1.7300000000000006 " stroke="#191919" stroke-width="0.35 px" style="stroke-width:0.35;stroke-miterlimit:4;stroke-dasharray:none;fill:none;fill-opacity:1;fill-rule: evenodd"/>
<path id="Shape2DView_nwe0037"  d="M 4.445 1.7299999999999998 L 4.445798549343558 1.7299999999999998 L 4.448184155152909 1.7299999999999998 L 4.4521268170508375 1.7299999999999998 L 4.4575769537763925 1.7299999999999998 L 4.464466026698008 1.7299999999999998 L 4.47270740172656 1.7299999999999998 L 4.482197438789308 1.73 L 4.492816795163941 1.73 L 4.504431926282552 1.73 L 4.51689676513207 1.73 L 4.530054559131694 1.73 L 4.5437398413875485 1.73 L 4.5577805115348795 1.73 L 4.572 1.73 " stroke="#191919" stroke-width="0.35 px" style="stroke-width:0.35;stroke-miterlimit:4;stroke-dasharray:none;fill:none;fill-opacity:1;fill-rule: evenodd"/>
<path id="Shape2DView_nwe0038"  d="M 4.572 1.7300000000000004 L 5.111 1.730000000000001 " stroke="#191919" stroke-width="0.35 px" style="stroke-width:0.35;stroke-miterlimit:4;stroke-dasharray:none;fill:none;fill-opacity:1;fill-rule: evenodd"/>
<path id="Shape2DView_nwe0039"  d="M 4.064 1.7299999999999995 L 3.695 1.729999999999999 " stroke="#191919" stroke-width="0.35 px" style="stroke-width:0.35;stroke-miterlimit:4;stroke-dasharray:none;fill:none;fill-opacity:1;fill-rule: evenodd"/>
<path id="Shape2DView_nwe0040"  d="M 4.064 1.73 L 4.10665846539536 1.73 L 4.148780475837356 1.73 L 4.1898363226049185 1.7300000000000002 L 4.229309704603789 1.7300000000000002 L 4.266704221152343 1.7300000000000002 L 4.301549614508177 1.7300000000000002 L 4.333407683632075 1.7300000000000002 L 4.36187779482032 1.7300000000000004 L 4.386601919905976 1.7300000000000004 L 4.407269138670822 1.7300000000000004 L 4.423619548847488 1.7300000000000004 L 4.435447534541275 1.7300000000000004 L 4.442604351969326 1.7300000000000004 L 4.445 1.7300000000000004 " stroke="#191919" stroke-width="0.35 px" style="stroke-width:0.35;stroke-miterlimit:4;stroke-dasharray:none;fill:none;fill-opacity:1;fill-rule: evenodd"/>
<path id="Shape2DView_nwe0041"  d="M 3.6199999999999912 1.7299999999999995 L 3.619999999999989 3.3500000000000005 " stroke="#191919" stroke-width="0.35 px" style="stroke-width:0.35;stroke-miterlimit:4;stroke-dasharray:none;fill:none;fill-opacity:1;fill-rule: evenodd"/>
<path id="Shape2DView_nwe0042"  d="M 4.445 -0.8100000000000002 L 4.445798549343558 -0.8100000000000002 L 4.448184155152909 -0.8100000000000002 L 4.4521268170508375 -0.8100000000000002 L 4.4575769537763925 -0.8100000000000002 L 4.464466026698008 -0.8100000000000002 L 4.47270740172656 -0.8100000000000002 L 4.482197438789308 -0.8100000000000002 L 4.492816795163941 -0.8100000000000002 L 4.504431926282552 -0.8100000000000002 L 4.51689676513207 -0.8100000000000002 L 4.530054559131694 -0.81 L 4.5437398413875485 -0.81 L 4.5577805115348795 -0.81 L 4.572 -0.81 " stroke="#191919" stroke-width="0.35 px" style="stroke-width:0.35;stroke-miterlimit:4;stroke-dasharray:none;fill:none;fill-opacity:1;fill-rule: evenodd"/>
<path id="Shape2DView_nwe0043"  d="M 4.572 -0.8099999999999996 L 5.111 -0.8099999999999989 " stroke="#191919" stroke-width="0.35 px" style="stroke-width:0.35;stroke-miterlimit:4;stroke-dasharray:none;fill:none;fill-opacity:1;fill-rule: evenodd"/>
<path id="Shape2DView_nwe0044"  d="M 4.064 -0.8100000000000005 L 3.695 -0.8100000000000009 " stroke="#191919" stroke-width="0.35 px" style="stroke-width:0.35;stroke-miterlimit:4;stroke-dasharray:none;fill:none;fill-opacity:1;fill-rule: evenodd"/>
<path id="Shape2DView_nwe0045"  d="M 4.064 -0.81 L 4.10665846539536 -0.81 L 4.148780475837356 -0.8099999999999999 L 4.1898363226049185 -0.8099999999999999 L 4.229309704603789 -0.8099999999999998 L 4.266704221152343 -0.8099999999999998 L 4.301549614508177 -0.8099999999999997 L 4.333407683632075 -0.8099999999999997 L 4.36187779482032 -0.8099999999999997 L 4.386601919905976 -0.8099999999999996 L 4.407269138670822 -0.8099999999999996 L 4.423619548847488 -0.8099999999999996 L 4.435447534541275 -0.8099999999999996 L 4.442604351969326 -0.8099999999999996 L 4.445 -0.8099999999999996 " stroke="#191919" stroke-width="0.35 px" style="stroke-width:0.35;stroke-miterlimit:4;stroke-dasharray:none;fill:none;fill-opacity:1;fill-rule: evenodd"/>
<path id="Shape2DView_nwe0046"  d="M 4.445 0.8099999999999999 L 4.445798549343558 0.8099999999999999 L 4.448184155152909 0.8099999999999999 L 4.4521268170508375 0.8099999999999999 L 4.4575769537763925 0.8099999999999999 L 4.464466026698008 0.8099999999999999 L 4.47270740172656 0.8099999999999999 L 4.482197438789308 0.8099999999999999 L 4.492816795163941 0.8099999999999999 L 4.504431926282552 0.8099999999999999 L 4.51689676513207 0.8099999999999999 L 4.530054559131694 0.81 L 4.5437398413875485 0.81 L 4.5577805115348795 0.81 L 4.572 0.81 " stroke="#191919" stroke-width="0.35 px" style="stroke-width:0.35;stroke-miterlimit:4;stroke-dasharray:none;fill:none;fill-opacity:1;fill-rule: evenodd"/>
<path id="Shape2DView_nwe0047"  d="M 4.064 0.81 L 4.10665846539536 0.81 L 4.148780475837356 0.8100000000000002 L 4.1898363226049185 0.8100000000000002 L 4.229309704603789 0.8100000000000003 L 4.266704221152343 0.8100000000000003 L 4.301549614508177 0.8100000000000004 L 4.333407683632075 0.8100000000000004 L 4.36187779482032 0.8100000000000004 L 4.386601919905976 0.8100000000000005 L 4.407269138670822 0.8100000000000005 L 4.423619548847488 0.8100000000000005 L 4.435447534541275 0.8100000000000005 L 4.442604351969326 0.8100000000000005 L 4.445 0.8100000000000005 " stroke="#191919" stroke-width="0.35 px" style="stroke-width:0.35;stroke-miterlimit:4;stroke-dasharray:none;fill:none;fill-opacity:1;fill-rule: evenodd"/>
<path id="Shape2DView_nwe0048"  d="M 4.064 0.8099999999999996 L 3.695 0.8099999999999992 " stroke="#191919" stroke-width="0.35 px" style="stroke-width:0.35;stroke-miterlimit:4;stroke-dasharray:none;fill:none;fill-opacity:1;fill-rule: evenodd"/>
<path id="Shape2DView_nwe0049"  d="M 5.111 0.81 L 4.572 0.8099999999999994 " stroke="#191919" stroke-width="0.35 px" style="stroke-width:0.35;stroke-miterlimit:4;stroke-dasharray:none;fill:none;fill-opacity:1;fill-rule: evenodd"/>
<path id="Shape2DView_nwe0050"  d="M 3.6199999999999943 -0.8099999999999996 L 3.619999999999992 0.8099999999999996 " stroke="#191919" stroke-width="0.35 px" style="stroke-width:0.35;stroke-miterlimit:4;stroke-dasharray:none;fill:none;fill-opacity:1;fill-rule: evenodd"/>
<path id="Shape2DView_nwe0051"  d="M -3.695 5.14 L -3.62 5.065 " stroke="#191919" stroke-width="0.35 px" style="stroke-width:0.35;stroke-miterlimit:4;stroke-dasharray:none;fill:none;fill-opacity:1;fill-rule: evenodd"/>
<path id="Shape2DView_nwe0052"  d="M 3.62 5.065 L -3.62 5.064999999999991 " stroke="#191919" stroke-width="0.35 px" style="stroke-width:0.35;stroke-miterlimit:4;stroke-dasharray:none;fill:none;fill-opacity:1;fill-rule: evenodd"/>
<path id="Shape2DView_nwe0053"  d="M -3.62 5.065 L -3.619999999999999 4.27 " stroke="#191919" stroke-width="0.35 px" style="stroke-width:0.35;stroke-miterlimit:4;stroke-dasharray:none;fill:none;fill-opacity:1;fill-rule: evenodd"/>
<path id="Shape2DView_nwe0054"  d="M -4.445 4.27 L -4.445798549343558 4.27 L -4.448184155152909 4.27 L -4.4521268170508375 4.27 L -4.4575769537763925 4.27 L -4.464466026698008 4.27 L -4.47270740172656 4.27 L -4.482197438789308 4.27 L -4.492816795163941 4.27 L -4.504431926282552 4.27 L -4.516896765132071 4.27 L -4.530054559131694 4.27 L -4.5437398413875485 4.27 L -4.55778051153488 4.27 L -4.572 4.27 " stroke="#191919" stroke-width="0.35 px" style="stroke-width:0.35;stroke-miterlimit:4;stroke-dasharray:none;fill:none;fill-opacity:1;fill-rule: evenodd"/>
<path id="Shape2DView_nwe0055"  d="M -4.064 4.27 L -4.10665846539536 4.27 L -4.148780475837356 4.27 L -4.1898363226049185 4.27 L -4.229309704603789 4.27 L -4.266704221152343 4.27 L -4.301549614508177 4.27 L -4.333407683632075 4.27 L -4.36187779482032 4.27 L -4.386601919905976 4.27 L -4.407269138670822 4.269999999999999 L -4.423619548847488 4.269999999999999 L -4.435447534541275 4.269999999999999 L -4.442604351969326 4.269999999999999 L -4.445 4.269999999999999 " stroke="#191919" stroke-width="0.35 px" style="stroke-width:0.35;stroke-miterlimit:4;stroke-dasharray:none;fill:none;fill-opacity:1;fill-rule: evenodd"/>
<path id="Shape2DView_nwe0056"  d="M -3.6950000000000003 4.269999999999994 L -4.064 4.269999999999994 " stroke="#191919" stroke-width="0.35 px" style="stroke-width:0.35;stroke-miterlimit:4;stroke-dasharray:none;fill:none;fill-opacity:1;fill-rule: evenodd"/>
<path id="Shape2DView_nwe0057"  d="M -5.111 4.27 L -4.572 4.2700000000000005 " stroke="#191919" stroke-width="0.35 px" style="stroke-width:0.35;stroke-miterlimit:4;stroke-dasharray:none;fill:none;fill-opacity:1;fill-rule: evenodd"/>
<path id="Shape2DView_nwe0058"  d="M -4.445 -4.27 L -4.445798549343558 -4.27 L -4.448184155152909 -4.27 L -4.4521268170508375 -4.27 L -4.4575769537763925 -4.27 L -4.464466026698008 -4.27 L -4.47270740172656 -4.27 L -4.482197438789308 -4.27 L -4.492816795163941 -4.27 L -4.504431926282552 -4.27 L -4.516896765132071 -4.27 L -4.530054559131694 -4.27 L -4.5437398413875485 -4.27 L -4.55778051153488 -4.27 L -4.572 -4.27 " stroke="#191919" stroke-width="0.35 px" style="stroke-width:0.35;stroke-miterlimit:4;stroke-dasharray:none;fill:none;fill-opacity:1;fill-rule: evenodd"/>
<path id="Shape2DView_nwe0059"  d="M -4.572 -4.2700000000000005 L -5.111 -4.2700000000000005 " stroke="#191919" stroke-width="0.35 px" style="stroke-width:0.35;stroke-miterlimit:4;stroke-dasharray:none;fill:none;fill-opacity:1;fill-rule: evenodd"/>
<path id="Shape2DView_nwe0060"  d="M -4.064 -4.269999999999999 L -3.695 -4.269999999999999 " stroke="#191919" stroke-width="0.35 px" style="stroke-width:0.35;stroke-miterlimit:4;stroke-dasharray:none;fill:none;fill-opacity:1;fill-rule: evenodd"/>
<path id="Shape2DView_nwe0061"  d="M -4.064 -4.27 L -4.10665846539536 -4.27 L -4.148780475837356 -4.27 L -4.1898363226049185 -4.27 L -4.229309704603789 -4.27 L -4.266704221152343 -4.27 L -4.301549614508177 -4.27 L -4.333407683632075 -4.27 L -4.36187779482032 -4.27 L -4.386601919905976 -4.27 L -4.407269138670822 -4.2700000000000005 L -4.423619548847488 -4.2700000000000005 L -4.435447534541275 -4.2700000000000005 L -4.442604351969326 -4.2700000000000005 L -4.445 -4.2700000000000005 " stroke="#191919" stroke-width="0.35 px" style="stroke-width:0.35;stroke-miterlimit:4;stroke-dasharray:none;fill:none;fill-opacity:1;fill-rule: evenodd"/>
<path id="Shape2DView_nwe0062"  d="M -3.695 -5.14 L -3.62 -5.065 " stroke="#191919" stroke-width="0.35 px" style="stroke-width:0.35;stroke-miterlimit:4;stroke-dasharray:none;fill:none;fill-opacity:1;fill-rule: evenodd"/>
<path id="Shape2DView_nwe0063"  d="M -3.6199999999999877 -4.2700000000000005 L -3.619999999999987 -5.065 " stroke="#191919" stroke-width="0.35 px" style="stroke-width:0.35;stroke-miterlimit:4;stroke-dasharray:none;fill:none;fill-opacity:1;fill-rule: evenodd"/>
<path id="Shape2DView_nwe0064"  d="M -4.445 3.35 L -4.445798549343558 3.35 L -4.448184155152909 3.35 L -4.4521268170508375 3.35 L -4.4575769537763925 3.35 L -4.464466026698008 3.35 L -4.47270740172656 3.35 L -4.482197438789308 3.35 L -4.492816795163941 3.35 L -4.504431926282552 3.35 L -4.516896765132071 3.35 L -4.530054559131694 3.35 L -4.5437398413875485 3.35 L -4.55778051153488 3.35 L -4.572 3.35 " stroke="#191919" stroke-width="0.35 px" style="stroke-width:0.35;stroke-miterlimit:4;stroke-dasharray:none;fill:none;fill-opacity:1;fill-rule: evenodd"/>
<path id="Shape2DView_nwe0065"  d="M -4.572 3.3499999999999996 L -5.111 3.3499999999999988 " stroke="#191919" stroke-width="0.35 px" style="stroke-width:0.35;stroke-miterlimit:4;stroke-dasharray:none;fill:none;fill-opacity:1;fill-rule: evenodd"/>
<path id="Shape2DView_nwe0066"  d="M -4.064 3.3500000000000005 L -3.695 3.350000000000001 " stroke="#191919" stroke-width="0.35 px" style="stroke-width:0.35;stroke-miterlimit:4;stroke-dasharray:none;fill:none;fill-opacity:1;fill-rule: evenodd"/>
<path id="Shape2DView_nwe0067"  d="M -4.064 3.35 L -4.10665846539536 3.35 L -4.148780475837356 3.35 L -4.1898363226049185 3.35 L -4.229309704603789 3.35 L -4.266704221152343 3.3499999999999996 L -4.301549614508177 3.3499999999999996 L -4.333407683632075 3.3499999999999996 L -4.36187779482032 3.3499999999999996 L -4.386601919905976 3.3499999999999996 L -4.407269138670822 3.3499999999999996 L -4.423619548847488 3.3499999999999996 L -4.435447534541275 3.3499999999999996 L -4.442604351969326 3.3499999999999996 L -4.445 3.3499999999999996 " stroke="#191919" stroke-width="0.35 px" style="stroke-width:0.35;stroke-miterlimit:4;stroke-dasharray:none;fill:none;fill-opacity:1;fill-rule: evenodd"/>
<path id="Shape2DView_nwe0068"  d="M -4.445 -3.35 L -4.445798549343558 -3.35 L -4.448184155152909 -3.35 L -4.4521268170508375 -3.35 L -4.4575769537763925 -3.35 L -4.464466026698008 -3.35 L -4.47270740172656 -3.35 L -4.482197438789308 -3.35 L -4.492816795163941 -3.35 L -4.504431926282552 -3.35 L -4.516896765132071 -3.35 L -4.530054559131694 -3.35 L -4.5437398413875485 -3.35 L -4.55778051153488 -3.35 L -4.572 -3.35 " stroke="#191919" stroke-width="0.35 px" style="stroke-width:0.35;stroke-miterlimit:4;stroke-dasharray:none;fill:none;fill-opacity:1;fill-rule: evenodd"/>
<path id="Shape2DView_nwe0069"  d="M -4.064 -3.35 L -4.10665846539536 -3.35 L -4.148780475837356 -3.35 L -4.1898363226049185 -3.35 L -4.229309704603789 -3.35 L -4.266704221152343 -3.3500000000000005 L -4.301549614508177 -3.3500000000000005 L -4.333407683632075 -3.3500000000000005 L -4.36187779482032 -3.3500000000000005 L -4.386601919905976 -3.3500000000000005 L -4.407269138670822 -3.3500000000000005 L -4.423619548847488 -3.3500000000000005 L -4.435447534541275 -3.3500000000000005 L -4.442604351969326 -3.3500000000000005 L -4.445 -3.3500000000000005 " stroke="#191919" stroke-width="0.35 px" style="stroke-width:0.35;stroke-miterlimit:4;stroke-dasharray:none;fill:none;fill-opacity:1;fill-rule: evenodd"/>
<path id="Shape2DView_nwe0070"  d="M -4.064 -3.3499999999999996 L -3.695 -3.349999999999999 " stroke="#191919" stroke-width="0.35 px" style="stroke-width:0.35;stroke-miterlimit:4;stroke-dasharray:none;fill:none;fill-opacity:1;fill-rule: evenodd"/>
<path id="Shape2DView_nwe0071"  d="M -5.111 -3.35 L -4.572 -3.349999999999999 " stroke="#191919" stroke-width="0.35 px" style="stroke-width:0.35;stroke-miterlimit:4;stroke-dasharray:none;fill:none;fill-opacity:1;fill-rule: evenodd"/>
<path id="Shape2DView_nwe0072"  d="M -3.619999999999998 3.35 L -3.6199999999999957 1.73 " stroke="#191919" stroke-width="0.35 px" style="stroke-width:0.35;stroke-miterlimit:4;stroke-dasharray:none;fill:none;fill-opacity:1;fill-rule: evenodd"/>
<path id="Shape2DView_nwe0073"  d="M -4.445 1.7300000000000002 L -4.445798549343558 1.7300000000000002 L -4.448184155152909 1.7300000000000002 L -4.4521268170508375 1.7300000000000002 L -4.4575769537763925 1.7300000000000002 L -4.464466026698008 1.7300000000000002 L -4.47270740172656 1.7300000000000002 L -4.482197438789308 1.7300000000000002 L -4.492816795163941 1.73 L -4.504431926282552 1.73 L -4.51689676513207 1.73 L -4.530054559131694 1.73 L -4.5437398413875485 1.73 L -4.5577805115348795 1.73 L -4.572 1.73 " stroke="#191919" stroke-width="0.35 px" style="stroke-width:0.35;stroke-miterlimit:4;stroke-dasharray:none;fill:none;fill-opacity:1;fill-rule: evenodd"/>
<path id="Shape2DView_nwe0074"  d="M -4.064 1.73 L -4.10665846539536 1.73 L -4.148780475837356 1.7299999999999998 L -4.1898363226049185 1.7299999999999998 L -4.229309704603789 1.7299999999999998 L -4.266704221152343 1.7299999999999998 L -4.301549614508177 1.7299999999999998 L -4.333407683632075 1.7299999999999995 L -4.36187779482032 1.7299999999999995 L -4.386601919905976 1.7299999999999995 L -4.407269138670822 1.7299999999999995 L -4.423619548847488 1.7299999999999995 L -4.435447534541275 1.7299999999999995 L -4.442604351969326 1.7299999999999995 L -4.445 1.7299999999999995 " stroke="#191919" stroke-width="0.35 px" style="stroke-width:0.35;stroke-miterlimit:4;stroke-dasharray:none;fill:none;fill-opacity:1;fill-rule: evenodd"/>
<path id="Shape2DView_nwe0075"  d="M -4.064 1.7300000000000004 L -3.695 1.7300000000000009 " stroke="#191919" stroke-width="0.35 px" style="stroke-width:0.35;stroke-miterlimit:4;stroke-dasharray:none;fill:none;fill-opacity:1;fill-rule: evenodd"/>
<path id="Shape2DView_nwe0076"  d="M -5.111 1.73 L -4.572 1.7300000000000006 " stroke="#191919" stroke-width="0.35 px" style="stroke-width:0.35;stroke-miterlimit:4;stroke-dasharray:none;fill:none;fill-opacity:1;fill-rule: evenodd"/>
<path id="Shape2DView_nwe0077"  d="M -4.445 -1.7299999999999998 L -4.445798549343558 -1.7299999999999998 L -4.448184155152909 -1.7299999999999998 L -4.4521268170508375 -1.7299999999999998 L -4.4575769537763925 -1.7299999999999998 L -4.464466026698008 -1.7299999999999998 L -4.47270740172656 -1.7299999999999998 L -4.482197438789308 -1.7299999999999998 L -4.492816795163941 -1.73 L -4.504431926282552 -1.73 L -4.51689676513207 -1.73 L -4.530054559131694 -1.73 L -4.5437398413875485 -1.73 L -4.5577805115348795 -1.73 L -4.572 -1.73 " stroke="#191919" stroke-width="0.35 px" style="stroke-width:0.35;stroke-miterlimit:4;stroke-dasharray:none;fill:none;fill-opacity:1;fill-rule: evenodd"/>
<path id="Shape2DView_nwe0078"  d="M -4.572 -1.7300000000000004 L -5.111 -1.7300000000000013 " stroke="#191919" stroke-width="0.35 px" style="stroke-width:0.35;stroke-miterlimit:4;stroke-dasharray:none;fill:none;fill-opacity:1;fill-rule: evenodd"/>
<path id="Shape2DView_nwe0079"  d="M -4.064 -1.7299999999999995 L -3.695 -1.729999999999999 " stroke="#191919" stroke-width="0.35 px" style="stroke-width:0.35;stroke-miterlimit:4;stroke-dasharray:none;fill:none;fill-opacity:1;fill-rule: evenodd"/>
<path id="Shape2DView_nwe0080"  d="M -4.064 -1.73 L -4.10665846539536 -1.73 L -4.148780475837356 -1.7300000000000002 L -4.1898363226049185 -1.7300000000000002 L -4.229309704603789 -1.7300000000000002 L -4.266704221152343 -1.7300000000000002 L -4.301549614508177 -1.7300000000000002 L -4.333407683632075 -1.7300000000000004 L -4.36187779482032 -1.7300000000000004 L -4.386601919905976 -1.7300000000000004 L -4.407269138670822 -1.7300000000000004 L -4.423619548847488 -1.7300000000000004 L -4.435447534541275 -1.7300000000000004 L -4.442604351969326 -1.7300000000000004 L -4.445 -1.7300000000000004 " stroke="#191919" stroke-width="0.35 px" style="stroke-width:0.35;stroke-miterlimit:4;stroke-dasharray:none;fill:none;fill-opacity:1;fill-rule: evenodd"/>
<path id="Shape2DView_nwe0081"  d="M -3.6199999999999912 -1.7299999999999995 L -3.619999999999989 -3.3500000000000005 " stroke="#191919" stroke-width="0.35 px" style="stroke-width:0.35;stroke-miterlimit:4;stroke-dasharray:none;fill:none;fill-opacity:1;fill-rule: evenodd"/>
<path id="Shape2DView_nwe0082"  d="M -4.445 0.8100000000000003 L -4.445798549343558 0.8100000000000003 L -4.448184155152909 0.8100000000000002 L -4.4521268170508375 0.8100000000000002 L -4.4575769537763925 0.8100000000000002 L -4.464466026698008 0.8100000000000002 L -4.47270740172656 0.8100000000000002 L -4.482197438789308 0.8100000000000002 L -4.492816795163941 0.8100000000000002 L -4.504431926282552 0.8100000000000002 L -4.51689676513207 0.8100000000000002 L -4.530054559131694 0.8100000000000002 L -4.5437398413875485 0.81 L -4.5577805115348795 0.81 L -4.572 0.81 " stroke="#191919" stroke-width="0.35 px" style="stroke-width:0.35;stroke-miterlimit:4;stroke-dasharray:none;fill:none;fill-opacity:1;fill-rule: evenodd"/>
<path id="Shape2DView_nwe0083"  d="M -4.572 0.8099999999999995 L -5.111 0.8099999999999988 " stroke="#191919" stroke-width="0.35 px" style="stroke-width:0.35;stroke-miterlimit:4;stroke-dasharray:none;fill:none;fill-opacity:1;fill-rule: evenodd"/>
<path id="Shape2DView_nwe0084"  d="M -4.064 0.8100000000000006 L -3.695 0.810000000000001 " stroke="#191919" stroke-width="0.35 px" style="stroke-width:0.35;stroke-miterlimit:4;stroke-dasharray:none;fill:none;fill-opacity:1;fill-rule: evenodd"/>
<path id="Shape2DView_nwe0085"  d="M -4.064 0.81 L -4.10665846539536 0.8099999999999999 L -4.148780475837356 0.8099999999999999 L -4.1898363226049185 0.8099999999999998 L -4.229309704603789 0.8099999999999998 L -4.266704221152343 0.8099999999999998 L -4.301549614508177 0.8099999999999997 L -4.333407683632075 0.8099999999999997 L -4.36187779482032 0.8099999999999996 L -4.386601919905976 0.8099999999999996 L -4.407269138670822 0.8099999999999996 L -4.423619548847488 0.8099999999999996 L -4.435447534541275 0.8099999999999996 L -4.442604351969326 0.8099999999999995 L -4.445 0.8099999999999995 " stroke="#191919" stroke-width="0.35 px" style="stroke-width:0.35;stroke-miterlimit:4;stroke-dasharray:none;fill:none;fill-opacity:1;fill-rule: evenodd"/>
<path id="Shape2DView_nwe0086"  d="M -4.445 -0.8099999999999998 L -4.445798549343558 -0.8099999999999998 L -4.448184155152909 -0.8099999999999999 L -4.4521268170508375 -0.8099999999999999 L -4.4575769537763925 -0.8099999999999999 L -4.464466026698008 -0.8099999999999999 L -4.47270740172656 -0.8099999999999999 L -4.482197438789308 -0.8099999999999999 L -4.492816795163941 -0.8099999999999999 L -4.504431926282552 -0.8099999999999999 L -4.51689676513207 -0.8099999999999999 L -4.530054559131694 -0.8099999999999999 L -4.5437398413875485 -0.81 L -4.5577805115348795 -0.81 L -4.572 -0.81 " stroke="#191919" stroke-width="0.35 px" style="stroke-width:0.35;stroke-miterlimit:4;stroke-dasharray:none;fill:none;fill-opacity:1;fill-rule: evenodd"/>
<path id="Shape2DView_nwe0087"  d="M -4.064 -0.81 L -4.10665846539536 -0.8100000000000002 L -4.148780475837356 -0.8100000000000002 L -4.1898363226049185 -0.8100000000000003 L -4.229309704603789 -0.8100000000000003 L -4.266704221152343 -0.8100000000000003 L -4.301549614508177 -0.8100000000000004 L -4.333407683632075 -0.8100000000000004 L -4.36187779482032 -0.8100000000000005 L -4.386601919905976 -0.8100000000000005 L -4.407269138670822 -0.8100000000000005 L -4.423619548847488 -0.8100000000000005 L -4.435447534541275 -0.8100000000000005 L -4.442604351969326 -0.8100000000000006 L -4.445 -0.8100000000000006 " stroke="#191919" stroke-width="0.35 px" style="stroke-width:0.35;stroke-miterlimit:4;stroke-dasharray:none;fill:none;fill-opacity:1;fill-rule: evenodd"/>
<path id="Shape2DView_nwe0088"  d="M -4.064 -0.8099999999999995 L -3.695 -0.809999999999999 " stroke="#191919" stroke-width="0.35 px" style="stroke-width:0.35;stroke-miterlimit:4;stroke-dasharray:none;fill:none;fill-opacity:1;fill-rule: evenodd"/>
<path id="Shape2DView_nwe0089"  d="M -5.111 -0.81 L -4.572 -0.8099999999999994 " stroke="#191919" stroke-width="0.35 px" style="stroke-width:0.35;stroke-miterlimit:4;stroke-dasharray:none;fill:none;fill-opacity:1;fill-rule: evenodd"/>
<path id="Shape2DView_nwe0090"  d="M -3.6199999999999943 0.8099999999999996 L -3.619999999999992 -0.8099999999999996 " stroke="#191919" stroke-width="0.35 px" style="stroke-width:0.35;stroke-miterlimit:4;stroke-dasharray:none;fill:none;fill-opacity:1;fill-rule: evenodd"/>
<path id="Shape2DView_nwe0091"  d="M -3.62 -5.065 L 3.62 -5.064999999999991 " stroke="#191919" stroke-width="0.35 px" style="stroke-width:0.35;stroke-miterlimit:4;stroke-dasharray:none;fill:none;fill-opacity:1;fill-rule: evenodd"/>
<path id="Shape2DView_nwe0092"  d="M 3.619999999999999 -4.27 L 3.619999999999998 -3.35 " stroke="#191919" stroke-width="0.35 px" style="stroke-width:0.35;stroke-miterlimit:4;stroke-dasharray:none;fill:none;fill-opacity:1;fill-rule: evenodd"/>
<path id="Shape2DView_nwe0093"  d="M 3.6199999999999957 -1.73 L 3.6199999999999943 -0.8099999999999996 " stroke="#191919" stroke-width="0.35 px" style="stroke-width:0.35;stroke-miterlimit:4;stroke-dasharray:none;fill:none;fill-opacity:1;fill-rule: evenodd"/>
<path id="Shape2DView_nwe0094"  d="M 3.619999999999992 0.8099999999999996 L 3.6199999999999912 1.7299999999999995 " stroke="#191919" stroke-width="0.35 px" style="stroke-width:0.35;stroke-miterlimit:4;stroke-dasharray:none;fill:none;fill-opacity:1;fill-rule: evenodd"/>
<path id="Shape2DView_nwe0095"  d="M 3.619999999999989 3.3500000000000005 L 3.6199999999999877 4.2700000000000005 " stroke="#191919" stroke-width="0.35 px" style="stroke-width:0.35;stroke-miterlimit:4;stroke-dasharray:none;fill:none;fill-opacity:1;fill-rule: evenodd"/>
<path id="Shape2DView_nwe0096"  d="M 3.62 5.065 L 3.296276356577 4.741276356577 " stroke="#191919" stroke-width="0.35 px" style="stroke-width:0.35;stroke-miterlimit:4;stroke-dasharray:none;fill:none;fill-opacity:1;fill-rule: evenodd"/>
<path id="Shape2DView_nwe0097"  d="M 3.296276356577 -4.741276356577 L 3.2962763565769877 4.741276356577 " stroke="#191919" stroke-width="0.35 px" style="stroke-width:0.35;stroke-miterlimit:4;stroke-dasharray:none;fill:none;fill-opacity:1;fill-rule: evenodd"/>
<path id="Shape2DView_nwe0098"  d="M 3.62 -5.065 L 3.296276356577 -4.741276356577 " stroke="#191919" stroke-width="0.35 px" style="stroke-width:0.35;stroke-miterlimit:4;stroke-dasharray:none;fill:none;fill-opacity:1;fill-rule: evenodd"/>
<path id="Shape2DView_nwe0099"  d="M 3.6949999999999985 -4.27 L 3.6949999999999976 -3.35 " stroke="#191919" stroke-width="0.35 px" style="stroke-width:0.35;stroke-miterlimit:4;stroke-dasharray:none;fill:none;fill-opacity:1;fill-rule: evenodd"/>
<path id="Shape2DView_nwe0100"  d="M 5.111 -3.35 L 5.111000000000001 -4.27 " stroke="#191919" stroke-width="0.35 px" style="stroke-width:0.35;stroke-miterlimit:4;stroke-dasharray:none;fill:none;fill-opacity:1;fill-rule: evenodd"/>
<path id="Shape2DView_nwe0101"  d="M 4.445 -3.35 L 4.445000000000001 -4.27 " stroke="#191919" stroke-width="0.35 px" style="stroke-width:0.35;stroke-miterlimit:4;stroke-dasharray:none;fill:none;fill-opacity:1;fill-rule: evenodd"/>
<path id="Shape2DView_nwe0102"  d="M 4.445 3.35 L 4.444999999999999 4.27 " stroke="#191919" stroke-width="0.35 px" style="stroke-width:0.35;stroke-miterlimit:4;stroke-dasharray:none;fill:none;fill-opacity:1;fill-rule: evenodd"/>
<path id="Shape2DView_nwe0103"  d="M 3.6949999999999887 3.3500000000000005 L 3.6949999999999874 4.2700000000000005 " stroke="#191919" stroke-width="0.35 px" style="stroke-width:0.35;stroke-miterlimit:4;stroke-dasharray:none;fill:none;fill-opacity:1;fill-rule: evenodd"/>
<path id="Shape2DView_nwe0104"  d="M 5.111 4.27 L 5.111000000000001 3.35 " stroke="#191919" stroke-width="0.35 px" style="stroke-width:0.35;stroke-miterlimit:4;stroke-dasharray:none;fill:none;fill-opacity:1;fill-rule: evenodd"/>
<path id="Shape2DView_nwe0105"  d="M 3.6949999999999954 -1.73 L 3.694999999999994 -0.8099999999999996 " stroke="#191919" stroke-width="0.35 px" style="stroke-width:0.35;stroke-miterlimit:4;stroke-dasharray:none;fill:none;fill-opacity:1;fill-rule: evenodd"/>
<path id="Shape2DView_nwe0106"  d="M 4.445 -1.73 L 4.444999999999999 -0.81 " stroke="#191919" stroke-width="0.35 px" style="stroke-width:0.35;stroke-miterlimit:4;stroke-dasharray:none;fill:none;fill-opacity:1;fill-rule: evenodd"/>
<path id="Shape2DView_nwe0107"  d="M 5.111 -0.81 L 5.111000000000001 -1.73 " stroke="#191919" stroke-width="0.35 px" style="stroke-width:0.35;stroke-miterlimit:4;stroke-dasharray:none;fill:none;fill-opacity:1;fill-rule: evenodd"/>
<path id="Shape2DView_nwe0109"  d="M 4.445 0.81 L 4.444999999999999 1.73 " stroke="#191919" stroke-width="0.35 px" style="stroke-width:0.35;stroke-miterlimit:4;stroke-dasharray:none;fill:none;fill-opacity:1;fill-rule: evenodd"/>
<path id="Shape2DView_nwe0110"  d="M 3.694999999999992 0.8099999999999996 L 3.6949999999999905 1.7299999999999995 " stroke="#191919" stroke-width="0.35 px" style="stroke-width:0.35;stroke-miterlimit:4;stroke-dasharray:none;fill:none;fill-opacity:1;fill-rule: evenodd"/>
<path id="Shape2DView_nwe0111"  d="M 5.111 1.73 L 5.111000000000001 0.81 " stroke="#191919" stroke-width="0.35 px" style="stroke-width:0.35;stroke-miterlimit:4;stroke-dasharray:none;fill:none;fill-opacity:1;fill-rule: evenodd"/>
<path id="Shape2DView_nwe0112"  d="M -3.62 5.065 L -3.296276356577 4.741276356577 " stroke="#191919" stroke-width="0.35 px" style="stroke-width:0.35;stroke-miterlimit:4;stroke-dasharray:none;fill:none;fill-opacity:1;fill-rule: evenodd"/>
<path id="Shape2DView_nwe0113"  d="M -0.7462405778299996 4.741276356576995 L -3.296276356577 4.741276356576991 " stroke="#191919" stroke-width="0.35 px" style="stroke-width:0.35;stroke-miterlimit:4;stroke-dasharray:none;fill:none;fill-opacity:1;fill-rule: evenodd"/>
<path id="Shape2DView_nwe0114"  d="M -0.7493474955903636 4.847554637411102 L -0.7462405778300001 4.741276356577 " stroke="#191919" stroke-width="0.35 px" style="stroke-width:0.35;stroke-miterlimit:4;stroke-dasharray:none;fill:none;fill-opacity:1;fill-rule: evenodd"/>
<path id="Shape2DView_nwe0115"  d="M -0.749347495591 4.847554637412 L 0.749347495591 4.847554637412 " stroke="#191919" stroke-width="0.35 px" style="stroke-width:0.35;stroke-miterlimit:4;stroke-dasharray:none;fill:none;fill-opacity:1;fill-rule: evenodd"/>
<path id="Shape2DView_nwe0116"  d="M 0.7493474955903636 4.847554637411102 L 0.7462405778300001 4.741276356577 " stroke="#191919" stroke-width="0.35 px" style="stroke-width:0.35;stroke-miterlimit:4;stroke-dasharray:none;fill:none;fill-opacity:1;fill-rule: evenodd"/>
<path id="Shape2DView_nwe0117"  d="M 3.296276356577 4.741276356577 L 0.7462405778300001 4.741276356576996 " stroke="#191919" stroke-width="0.35 px" style="stroke-width:0.35;stroke-miterlimit:4;stroke-dasharray:none;fill:none;fill-opacity:1;fill-rule: evenodd"/>
<path id="Shape2DView_nwe0118"  d="M -3.619999999999999 4.27 L -3.619999999999998 3.35 " stroke="#191919" stroke-width="0.35 px" style="stroke-width:0.35;stroke-miterlimit:4;stroke-dasharray:none;fill:none;fill-opacity:1;fill-rule: evenodd"/>
<path id="Shape2DView_nwe0119"  d="M -3.6199999999999957 1.73 L -3.6199999999999943 0.8099999999999996 " stroke="#191919" stroke-width="0.35 px" style="stroke-width:0.35;stroke-miterlimit:4;stroke-dasharray:none;fill:none;fill-opacity:1;fill-rule: evenodd"/>
<path id="Shape2DView_nwe0120"  d="M -3.619999999999992 -0.8099999999999996 L -3.6199999999999912 -1.7299999999999995 " stroke="#191919" stroke-width="0.35 px" style="stroke-width:0.35;stroke-miterlimit:4;stroke-dasharray:none;fill:none;fill-opacity:1;fill-rule: evenodd"/>
<path id="Shape2DView_nwe0121"  d="M -3.619999999999989 -3.3500000000000005 L -3.6199999999999877 -4.2700000000000005 " stroke="#191919" stroke-width="0.35 px" style="stroke-width:0.35;stroke-miterlimit:4;stroke-dasharray:none;fill:none;fill-opacity:1;fill-rule: evenodd"/>
<path id="Shape2DView_nwe0122"  d="M -3.62 -5.065 L -3.296276356577 -4.741276356577 " stroke="#191919" stroke-width="0.35 px" style="stroke-width:0.35;stroke-miterlimit:4;stroke-dasharray:none;fill:none;fill-opacity:1;fill-rule: evenodd"/>
<path id="Shape2DView_nwe0123"  d="M -3.296276356577 4.741276356577 L -3.2962763565769877 -4.741276356577 " stroke="#191919" stroke-width="0.35 px" style="stroke-width:0.35;stroke-miterlimit:4;stroke-dasharray:none;fill:none;fill-opacity:1;fill-rule: evenodd"/>
<path id="Shape2DView_nwe0124"  d="M -3.6949999999999985 4.27 L -3.6949999999999976 3.35 " stroke="#191919" stroke-width="0.35 px" style="stroke-width:0.35;stroke-miterlimit:4;stroke-dasharray:none;fill:none;fill-opacity:1;fill-rule: evenodd"/>
<path id="Shape2DView_nwe0125"  d="M -5.111 3.35 L -5.111000000000001 4.27 " stroke="#191919" stroke-width="0.35 px" style="stroke-width:0.35;stroke-miterlimit:4;stroke-dasharray:none;fill:none;fill-opacity:1;fill-rule: evenodd"/>
<path id="Shape2DView_nwe0126"  d="M -4.445 3.35 L -4.445000000000001 4.27 " stroke="#191919" stroke-width="0.35 px" style="stroke-width:0.35;stroke-miterlimit:4;stroke-dasharray:none;fill:none;fill-opacity:1;fill-rule: evenodd"/>
<path id="Shape2DView_nwe0127"  d="M -4.445 -3.35 L -4.444999999999999 -4.27 " stroke="#191919" stroke-width="0.35 px" style="stroke-width:0.35;stroke-miterlimit:4;stroke-dasharray:none;fill:none;fill-opacity:1;fill-rule: evenodd"/>
<path id="Shape2DView_nwe0128"  d="M -3.6949999999999887 -3.3500000000000005 L -3.6949999999999874 -4.2700000000000005 " stroke="#191919" stroke-width="0.35 px" style="stroke-width:0.35;stroke-miterlimit:4;stroke-dasharray:none;fill:none;fill-opacity:1;fill-rule: evenodd"/>
<path id="Shape2DView_nwe0129"  d="M -5.111 -4.27 L -5.111000000000001 -3.35 " stroke="#191919" stroke-width="0.35 px" style="stroke-width:0.35;stroke-miterlimit:4;stroke-dasharray:none;fill:none;fill-opacity:1;fill-rule: evenodd"/>
<path id="Shape2DView_nwe0130"  d="M -3.6949999999999954 1.73 L -3.694999999999994 0.8099999999999996 " stroke="#191919" stroke-width="0.35 px" style="stroke-width:0.35;stroke-miterlimit:4;stroke-dasharray:none;fill:none;fill-opacity:1;fill-rule: evenodd"/>
<path id="Shape2DView_nwe0131"  d="M -5.111 0.81 L -5.111000000000001 1.73 " stroke="#191919" stroke-width="0.35 px" style="stroke-width:0.35;stroke-miterlimit:4;stroke-dasharray:none;fill:none;fill-opacity:1;fill-rule: evenodd"/>
<path id="Shape2DView_nwe0132"  d="M -4.445 1.73 L -4.444999999999999 0.81 " stroke="#191919" stroke-width="0.35 px" style="stroke-width:0.35;stroke-miterlimit:4;stroke-dasharray:none;fill:none;fill-opacity:1;fill-rule: evenodd"/>
<path id="Shape2DView_nwe0133"  d="M -4.445 -0.81 L -4.444999999999999 -1.73 " stroke="#191919" stroke-width="0.35 px" style="stroke-width:0.35;stroke-miterlimit:4;stroke-dasharray:none;fill:none;fill-opacity:1;fill-rule: evenodd"/>
<path id="Shape2DView_nwe0134"  d="M -3.694999999999992 -0.8099999999999996 L -3.6949999999999905 -1.7299999999999995 " stroke="#191919" stroke-width="0.35 px" style="stroke-width:0.35;stroke-miterlimit:4;stroke-dasharray:none;fill:none;fill-opacity:1;fill-rule: evenodd"/>
<path id="Shape2DView_nwe0135"  d="M -5.111 -1.73 L -5.111000000000001 -0.81 " stroke="#191919" stroke-width="0.35 px" style="stroke-width:0.35;stroke-miterlimit:4;stroke-dasharray:none;fill:none;fill-opacity:1;fill-rule: evenodd"/>
<path id="Shape2DView_nwe0136"  d="M -3.296276356577 -4.741276356577 L 3.296276356577 -4.741276356576991 " stroke="#191919" stroke-width="0.35 px" style="stroke-width:0.35;stroke-miterlimit:4;stroke-dasharray:none;fill:none;fill-opacity:1;fill-rule: evenodd"/>
<path id="Shape2DView_nwe0137"  d="M -1.08855124388375e-14 4.066276356577 A 0.75 0.75 0 0 0 -0.746241 4.74128" stroke="#191919" stroke-width="0.35 px" style="stroke-width:0.35;stroke-miterlimit:4;stroke-dasharray:none;fill:none;fill-opacity:1;fill-rule: evenodd"/>
<path id="Shape2DView_nwe0138"  d="M 0.7462405778299536 4.741276356577004 A 0.75 0.75 0 0 0 -1.07018e-14 4.06628" stroke="#191919" stroke-width="0.35 px" style="stroke-width:0.35;stroke-miterlimit:4;stroke-dasharray:none;fill:none;fill-opacity:1;fill-rule: evenodd"/>
<path id="Shape2DView_nwe0139"  d="M -0.7462405778299762 4.741276356576995 A 0.75 0.75 0 0 0 -0.749347 4.84755" stroke="#191919" stroke-width="0.35 px" style="stroke-width:0.35;stroke-miterlimit:4;stroke-dasharray:none;fill:none;fill-opacity:1;fill-rule: evenodd"/>
<path id="Shape2DView_nwe0140"  d="M 0.7493474955906572 4.847554637411986 A 0.75 0.75 0 0 0 0.746241 4.74128" stroke="#191919" stroke-width="0.35 px" style="stroke-width:0.35;stroke-miterlimit:4;stroke-dasharray:none;fill:none;fill-opacity:1;fill-rule: evenodd"/>
<path id="Shape2DView_nwe0141"  d="M 4.572 -4.27 L 4.571999999999999 -3.35 " stroke="#191919" stroke-width="0.35 px" style="stroke-width:0.35;stroke-miterlimit:4;stroke-dasharray:none;fill:none;fill-opacity:1;fill-rule: evenodd"/>
<path id="Shape2DView_nwe0142"  d="M 4.064 -3.35 L 4.064000000000001 -4.27 " stroke="#191919" stroke-width="0.35 px" style="stroke-width:0.35;stroke-miterlimit:4;stroke-dasharray:none;fill:none;fill-opacity:1;fill-rule: evenodd"/>
<path id="Shape2DView_nwe0143"  d="M 4.064 3.35 L 4.063999999999999 4.27 " stroke="#191919" stroke-width="0.35 px" style="stroke-width:0.35;stroke-miterlimit:4;stroke-dasharray:none;fill:none;fill-opacity:1;fill-rule: evenodd"/>
<path id="Shape2DView_nwe0144"  d="M 4.572 3.35 L 4.571999999999999 4.27 " stroke="#191919" stroke-width="0.35 px" style="stroke-width:0.35;stroke-miterlimit:4;stroke-dasharray:none;fill:none;fill-opacity:1;fill-rule: evenodd"/>
<path id="Shape2DView_nwe0145"  d="M 4.572 -1.73 L 4.571999999999999 -0.81 " stroke="#191919" stroke-width="0.35 px" style="stroke-width:0.35;stroke-miterlimit:4;stroke-dasharray:none;fill:none;fill-opacity:1;fill-rule: evenodd"/>
<path id="Shape2DView_nwe0146"  d="M 4.064 -1.73 L 4.063999999999999 -0.81 " stroke="#191919" stroke-width="0.35 px" style="stroke-width:0.35;stroke-miterlimit:4;stroke-dasharray:none;fill:none;fill-opacity:1;fill-rule: evenodd"/>
<path id="Shape2DView_nwe0147"  d="M 4.064 0.81 L 4.063999999999999 1.73 " stroke="#191919" stroke-width="0.35 px" style="stroke-width:0.35;stroke-miterlimit:4;stroke-dasharray:none;fill:none;fill-opacity:1;fill-rule: evenodd"/>
<path id="Shape2DView_nwe0148"  d="M 4.572 0.81 L 4.571999999999999 1.73 " stroke="#191919" stroke-width="0.35 px" style="stroke-width:0.35;stroke-miterlimit:4;stroke-dasharray:none;fill:none;fill-opacity:1;fill-rule: evenodd"/>
<path id="Shape2DView_nwe0149"  d="M -4.572 4.27 L -4.571999999999999 3.35 " stroke="#191919" stroke-width="0.35 px" style="stroke-width:0.35;stroke-miterlimit:4;stroke-dasharray:none;fill:none;fill-opacity:1;fill-rule: evenodd"/>
<path id="Shape2DView_nwe0150"  d="M -4.064 3.35 L -4.064000000000001 4.27 " stroke="#191919" stroke-width="0.35 px" style="stroke-width:0.35;stroke-miterlimit:4;stroke-dasharray:none;fill:none;fill-opacity:1;fill-rule: evenodd"/>
<path id="Shape2DView_nwe0151"  d="M -4.064 -3.35 L -4.063999999999999 -4.27 " stroke="#191919" stroke-width="0.35 px" style="stroke-width:0.35;stroke-miterlimit:4;stroke-dasharray:none;fill:none;fill-opacity:1;fill-rule: evenodd"/>
<path id="Shape2DView_nwe0152"  d="M -4.572 -3.35 L -4.571999999999999 -4.27 " stroke="#191919" stroke-width="0.35 px" style="stroke-width:0.35;stroke-miterlimit:4;stroke-dasharray:none;fill:none;fill-opacity:1;fill-rule: evenodd"/>
<path id="Shape2DView_nwe0153"  d="M -4.572 1.73 L -4.571999999999999 0.81 " stroke="#191919" stroke-width="0.35 px" style="stroke-width:0.35;stroke-miterlimit:4;stroke-dasharray:none;fill:none;fill-opacity:1;fill-rule: evenodd"/>
<path id="Shape2DView_nwe0154"  d="M -4.064 1.73 L -4.063999999999999 0.81 " stroke="#191919" stroke-width="0.35 px" style="stroke-width:0.35;stroke-miterlimit:4;stroke-dasharray:none;fill:none;fill-opacity:1;fill-rule: evenodd"/>
<path id="Shape2DView_nwe0155"  d="M -4.064 -0.81 L -4.063999999999999 -1.73 " stroke="#191919" stroke-width="0.35 px" style="stroke-width:0.35;stroke-miterlimit:4;stroke-dasharray:none;fill:none;fill-opacity:1;fill-rule: evenodd"/>
<path id="Shape2DView_nwe0156"  d="M -4.572 -0.81 L -4.571999999999999 -1.73 " stroke="#191919" stroke-width="0.35 px" style="stroke-width:0.35;stroke-miterlimit:4;stroke-dasharray:none;fill:none;fill-opacity:1;fill-rule: evenodd"/>
<path id="Shape2DView_nwe0157"  d="M 3.62 -4.269999999999995 L 3.6950000000000003 -4.269999999999995 " stroke="#191919" stroke-width="0.35 px" style="stroke-width:0.35;stroke-miterlimit:4;stroke-dasharray:none;fill:none;fill-opacity:1;fill-rule: evenodd"/>
<path id="Shape2DView_nwe0158"  d="M 3.695 4.269999999999999 L 3.62 4.269999999999999 " stroke="#191919" stroke-width="0.35 px" style="stroke-width:0.35;stroke-miterlimit:4;stroke-dasharray:none;fill:none;fill-opacity:1;fill-rule: evenodd"/>
<path id="Shape2DView_nwe0159"  d="M 3.695 -3.350000000000001 L 3.62 -3.350000000000001 " stroke="#191919" stroke-width="0.35 px" style="stroke-width:0.35;stroke-miterlimit:4;stroke-dasharray:none;fill:none;fill-opacity:1;fill-rule: evenodd"/>
<path id="Shape2DView_nwe0160"  d="M 3.695 -1.7300000000000009 L 3.62 -1.7300000000000009 " stroke="#191919" stroke-width="0.35 px" style="stroke-width:0.35;stroke-miterlimit:4;stroke-dasharray:none;fill:none;fill-opacity:1;fill-rule: evenodd"/>
<path id="Shape2DView_nwe0161"  d="M 3.695 1.729999999999999 L 3.62 1.729999999999999 " stroke="#191919" stroke-width="0.35 px" style="stroke-width:0.35;stroke-miterlimit:4;stroke-dasharray:none;fill:none;fill-opacity:1;fill-rule: evenodd"/>
<path id="Shape2DView_nwe0162"  d="M 3.695 3.349999999999999 L 3.62 3.349999999999999 " stroke="#191919" stroke-width="0.35 px" style="stroke-width:0.35;stroke-miterlimit:4;stroke-dasharray:none;fill:none;fill-opacity:1;fill-rule: evenodd"/>
<path id="Shape2DView_nwe0163"  d="M 3.695 -0.8100000000000009 L 3.62 -0.810000000000001 " stroke="#191919" stroke-width="0.35 px" style="stroke-width:0.35;stroke-miterlimit:4;stroke-dasharray:none;fill:none;fill-opacity:1;fill-rule: evenodd"/>
<path id="Shape2DView_nwe0164"  d="M 3.695 0.8099999999999992 L 3.62 0.809999999999999 " stroke="#191919" stroke-width="0.35 px" style="stroke-width:0.35;stroke-miterlimit:4;stroke-dasharray:none;fill:none;fill-opacity:1;fill-rule: evenodd"/>
<path id="Shape2DView_nwe0165"  d="M -3.62 4.269999999999994 L -3.6950000000000003 4.269999999999994 " stroke="#191919" stroke-width="0.35 px" style="stroke-width:0.35;stroke-miterlimit:4;stroke-dasharray:none;fill:none;fill-opacity:1;fill-rule: evenodd"/>
<path id="Shape2DView_nwe0166"  d="M -3.695 -4.269999999999999 L -3.62 -4.269999999999999 " stroke="#191919" stroke-width="0.35 px" style="stroke-width:0.35;stroke-miterlimit:4;stroke-dasharray:none;fill:none;fill-opacity:1;fill-rule: evenodd"/>
<path id="Shape2DView_nwe0167"  d="M -3.695 3.350000000000001 L -3.62 3.350000000000001 " stroke="#191919" stroke-width="0.35 px" style="stroke-width:0.35;stroke-miterlimit:4;stroke-dasharray:none;fill:none;fill-opacity:1;fill-rule: evenodd"/>
<path id="Shape2DView_nwe0168"  d="M -3.695 1.7300000000000009 L -3.62 1.730000000000001 " stroke="#191919" stroke-width="0.35 px" style="stroke-width:0.35;stroke-miterlimit:4;stroke-dasharray:none;fill:none;fill-opacity:1;fill-rule: evenodd"/>
<path id="Shape2DView_nwe0169"  d="M -3.695 -1.729999999999999 L -3.62 -1.7299999999999989 " stroke="#191919" stroke-width="0.35 px" style="stroke-width:0.35;stroke-miterlimit:4;stroke-dasharray:none;fill:none;fill-opacity:1;fill-rule: evenodd"/>
<path id="Shape2DView_nwe0170"  d="M -3.695 -3.349999999999999 L -3.62 -3.349999999999999 " stroke="#191919" stroke-width="0.35 px" style="stroke-width:0.35;stroke-miterlimit:4;stroke-dasharray:none;fill:none;fill-opacity:1;fill-rule: evenodd"/>
<path id="Shape2DView_nwe0171"  d="M -3.695 0.810000000000001 L -3.62 0.8100000000000012 " stroke="#191919" stroke-width="0.35 px" style="stroke-width:0.35;stroke-miterlimit:4;stroke-dasharray:none;fill:none;fill-opacity:1;fill-rule: evenodd"/>
<path id="Shape2DView_nwe0172"  d="M -3.695 -0.809999999999999 L -3.62 -0.8099999999999989 " stroke="#191919" stroke-width="0.35 px" style="stroke-width:0.35;stroke-miterlimit:4;stroke-dasharray:none;fill:none;fill-opacity:1;fill-rule: evenodd"/>
<title>b'Shape2DView'</title>
</g>
<g id="Rectangle" transform="translate(5.213220,5.242220) scale(1,-1)">
<rect fill="#ff0000" id="origin" width="1" height="1" x="0" y="0" />
<title>b'Rectangle'</title>
</g>
</svg>