<?xml version="1.0"?>
<!DOCTYPE svg PUBLIC "-//W3C//DTD SVG 1.1//EN" "http://www.w3.org/Graphics/SVG/1.1/DTD/svg11.dtd">
<svg width="9.131040000000002mm" height="10.41904mm" viewBox="0 0 9.131040000000002 10.41904" xmlns="http://www.w3.org/2000/svg" version="1.1">
<g id="Shape2DView" transform="translate(4.565520,5.209520) scale(1,-1)">
<path id="Shape2DView_nwe0000"  d="M 2.45 -5.12 L 2.449999999999999 -4.27 " stroke="#191919" stroke-width="0.35 px" style="stroke-width:0.35;stroke-miterlimit:4;stroke-dasharray:none;fill:none;fill-opacity:1;fill-rule: evenodd"/>
<path id="Shape2DView_nwe0001"  d="M 2.4499999999999877 4.2700000000000005 L 2.4499999999999864 5.12 " stroke="#191919" stroke-width="0.35 px" style="stroke-width:0.35;stroke-miterlimit:4;stroke-dasharray:none;fill:none;fill-opacity:1;fill-rule: evenodd"/>
<path id="Shape2DView_nwe0002"  d="M 2.449999999999998 -3.35 L 2.4499999999999957 -1.73 " stroke="#191919" stroke-width="0.35 px" style="stroke-width:0.35;stroke-miterlimit:4;stroke-dasharray:none;fill:none;fill-opacity:1;fill-rule: evenodd"/>
<path id="Shape2DView_nwe0003"  d="M 2.449999999999991 1.7299999999999995 L 2.449999999999989 3.3500000000000005 " stroke="#191919" stroke-width="0.35 px" style="stroke-width:0.35;stroke-miterlimit:4;stroke-dasharray:none;fill:none;fill-opacity:1;fill-rule: evenodd"/>
<path id="Shape2DView_nwe0004"  d="M 2.4499999999999944 -0.8099999999999996 L 2.449999999999992 0.8099999999999996 " stroke="#191919" stroke-width="0.35 px" style="stroke-width:0.35;stroke-miterlimit:4;stroke-dasharray:none;fill:none;fill-opacity:1;fill-rule: evenodd"/>
<path id="Shape2DView_nwe0005"  d="M 2.45 5.12 L -2.45 5.119999999999994 " stroke="#191919" stroke-width="0.35 px" style="stroke-width:0.35;stroke-miterlimit:4;stroke-dasharray:none;fill:none;fill-opacity:1;fill-rule: evenodd"/>
<path id="Shape2DView_nwe0006"  d="M -2.45 5.12 L -2.449999999999999 4.27 " stroke="#191919" stroke-width="0.35 px" style="stroke-width:0.35;stroke-miterlimit:4;stroke-dasharray:none;fill:none;fill-opacity:1;fill-rule: evenodd"/>
<path id="Shape2DView_nwe0007"  d="M -2.4499999999999877 -4.2700000000000005 L -2.4499999999999864 -5.12 " stroke="#191919" stroke-width="0.35 px" style="stroke-width:0.35;stroke-miterlimit:4;stroke-dasharray:none;fill:none;fill-opacity:1;fill-rule: evenodd"/>
<path id="Shape2DView_nwe0008"  d="M -2.449999999999998 3.35 L -2.4499999999999957 1.73 " stroke="#191919" stroke-width="0.35 px" style="stroke-width:0.35;stroke-miterlimit:4;stroke-dasharray:none;fill:none;fill-opacity:1;fill-rule: evenodd"/>
<path id="Shape2DView_nwe0009"  d="M -2.4499999999999944 0.8099999999999996 L -2.449999999999989 -3.3500000000000005 " stroke="#191919" stroke-width="0.35 px" style="stroke-width:0.35;stroke-miterlimit:4;stroke-dasharray:none;fill:none;fill-opacity:1;fill-rule: evenodd"/>
<path id="Shape2DView_nwe0010"  d="M -2.45 -5.12 L 2.45 -5.119999999999994 " stroke="#191919" stroke-width="0.35 px" style="stroke-width:0.35;stroke-miterlimit:4;stroke-dasharray:none;fill:none;fill-opacity:1;fill-rule: evenodd"/>
<path id="Shape2DView_nwe0011"  d="M 2.45 -5.12 L 2.375 -5.045 " stroke="#191919" stroke-width="0.35 px" style="stroke-width:0.35;stroke-miterlimit:4;stroke-dasharray:none;fill:none;fill-opacity:1;fill-rule: evenodd"/>
<path id="Shape2DView_nwe0012"  d="M 2.375 -5.045 L 2.374999999999999 -4.27 " stroke="#191919" stroke-width="0.35 px" style="stroke-width:0.35;stroke-miterlimit:4;stroke-dasharray:none;fill:none;fill-opacity:1;fill-rule: evenodd"/>
<path id="Shape2DView_nwe0013"  d="M 3.8099999999999996 -4.27 L 3.810798549343558 -4.27 L 3.8131841551529084 -4.27 L 3.8171268170508372 -4.27 L 3.8225769537763927 -4.27 L 3.829466026698008 -4.27 L 3.83770740172656 -4.27 L 3.8471974387893084 -4.27 L 3.8578167951639406 -4.27 L 3.869431926282552 -4.27 L 3.88189676513207 -4.27 L 3.8950545591316934 -4.27 L 3.908739841387548 -4.27 L 3.9227805115348797 -4.27 L 3.937 -4.27 " stroke="#191919" stroke-width="0.35 px" style="stroke-width:0.35;stroke-miterlimit:4;stroke-dasharray:none;fill:none;fill-opacity:1;fill-rule: evenodd"/>
<path id="Shape2DView_nwe0014"  d="M 3.429 -4.27 L 3.47165846539536 -4.27 L 3.5137804758373554 -4.27 L 3.5548363226049187 -4.27 L 3.5943097046037895 -4.27 L 3.631704221152343 -4.27 L 3.6665496145081775 -4.27 L 3.6984076836320745 -4.27 L 3.7268777948203193 -4.27 L 3.7516019199059762 -4.27 L 3.7722691386708216 -4.27 L 3.788619548847488 -4.27 L 3.8004475345412745 -4.269999999999999 L 3.8076043519693252 -4.269999999999999 L 3.8099999999999996 -4.269999999999999 " stroke="#191919" stroke-width="0.35 px" style="stroke-width:0.35;stroke-miterlimit:4;stroke-dasharray:none;fill:none;fill-opacity:1;fill-rule: evenodd"/>
<path id="Shape2DView_nwe0015"  d="M 2.45 -4.269999999999996 L 3.4290000000000003 -4.269999999999995 " stroke="#191919" stroke-width="0.35 px" style="stroke-width:0.35;stroke-miterlimit:4;stroke-dasharray:none;fill:none;fill-opacity:1;fill-rule: evenodd"/>
<path id="Shape2DView_nwe0016"  d="M 4.476 -4.27 L 3.937 -4.2700000000000005 " stroke="#191919" stroke-width="0.35 px" style="stroke-width:0.35;stroke-miterlimit:4;stroke-dasharray:none;fill:none;fill-opacity:1;fill-rule: evenodd"/>
<path id="Shape2DView_nwe0017"  d="M 3.8099999999999996 4.27 L 3.810798549343558 4.27 L 3.8131841551529084 4.27 L 3.8171268170508372 4.27 L 3.8225769537763927 4.27 L 3.829466026698008 4.27 L 3.83770740172656 4.27 L 3.8471974387893084 4.27 L 3.8578167951639406 4.27 L 3.869431926282552 4.27 L 3.88189676513207 4.27 L 3.8950545591316934 4.27 L 3.908739841387548 4.27 L 3.9227805115348797 4.27 L 3.937 4.27 " stroke="#191919" stroke-width="0.35 px" style="stroke-width:0.35;stroke-miterlimit:4;stroke-dasharray:none;fill:none;fill-opacity:1;fill-rule: evenodd"/>
<path id="Shape2DView_nwe0018"  d="M 3.937 4.2700000000000005 L 4.476 4.2700000000000005 " stroke="#191919" stroke-width="0.35 px" style="stroke-width:0.35;stroke-miterlimit:4;stroke-dasharray:none;fill:none;fill-opacity:1;fill-rule: evenodd"/>
<path id="Shape2DView_nwe0019"  d="M 3.429 4.269999999999999 L 2.45 4.269999999999998 " stroke="#191919" stroke-width="0.35 px" style="stroke-width:0.35;stroke-miterlimit:4;stroke-dasharray:none;fill:none;fill-opacity:1;fill-rule: evenodd"/>
<path id="Shape2DView_nwe0020"  d="M 3.429 4.27 L 3.47165846539536 4.27 L 3.5137804758373554 4.27 L 3.5548363226049187 4.27 L 3.5943097046037895 4.27 L 3.631704221152343 4.27 L 3.666549614508177 4.27 L 3.6984076836320745 4.27 L 3.7268777948203193 4.27 L 3.7516019199059762 4.27 L 3.7722691386708216 4.27 L 3.788619548847488 4.27 L 3.8004475345412745 4.2700000000000005 L 3.8076043519693252 4.2700000000000005 L 3.8099999999999996 4.2700000000000005 " stroke="#191919" stroke-width="0.35 px" style="stroke-width:0.35;stroke-miterlimit:4;stroke-dasharray:none;fill:none;fill-opacity:1;fill-rule: evenodd"/>
<path id="Shape2DView_nwe0021"  d="M 2.45 5.12 L 2.375 5.045 " stroke="#191919" stroke-width="0.35 px" style="stroke-width:0.35;stroke-miterlimit:4;stroke-dasharray:none;fill:none;fill-opacity:1;fill-rule: evenodd"/>
<path id="Shape2DView_nwe0022"  d="M 2.3749999999999876 4.27 L 2.3749999999999867 5.045 " stroke="#191919" stroke-width="0.35 px" style="stroke-width:0.35;stroke-miterlimit:4;stroke-dasharray:none;fill:none;fill-opacity:1;fill-rule: evenodd"/>
<path id="Shape2DView_nwe0023"  d="M 3.8099999999999996 -3.35 L 3.810798549343558 -3.35 L 3.8131841551529084 -3.35 L 3.8171268170508372 -3.35 L 3.8225769537763927 -3.35 L 3.829466026698008 -3.35 L 3.83770740172656 -3.35 L 3.8471974387893084 -3.35 L 3.8578167951639406 -3.35 L 3.869431926282552 -3.35 L 3.88189676513207 -3.35 L 3.8950545591316934 -3.35 L 3.908739841387548 -3.35 L 3.9227805115348797 -3.35 L 3.937 -3.35 " stroke="#191919" stroke-width="0.35 px" style="stroke-width:0.35;stroke-miterlimit:4;stroke-dasharray:none;fill:none;fill-opacity:1;fill-rule: evenodd"/>
<path id="Shape2DView_nwe0024"  d="M 3.937 -3.3499999999999996 L 4.476 -3.3499999999999988 " stroke="#191919" stroke-width="0.35 px" style="stroke-width:0.35;stroke-miterlimit:4;stroke-dasharray:none;fill:none;fill-opacity:1;fill-rule: evenodd"/>
<path id="Shape2DView_nwe0025"  d="M 3.429 -3.3500000000000005 L 2.45 -3.3500000000000014 " stroke="#191919" stroke-width="0.35 px" style="stroke-width:0.35;stroke-miterlimit:4;stroke-dasharray:none;fill:none;fill-opacity:1;fill-rule: evenodd"/>
<path id="Shape2DView_nwe0026"  d="M 3.429 -3.35 L 3.47165846539536 -3.35 L 3.5137804758373554 -3.35 L 3.5548363226049187 -3.35 L 3.5943097046037895 -3.35 L 3.631704221152343 -3.3499999999999996 L 3.6665496145081775 -3.3499999999999996 L 3.6984076836320745 -3.3499999999999996 L 3.7268777948203193 -3.3499999999999996 L 3.7516019199059762 -3.3499999999999996 L 3.7722691386708216 -3.3499999999999996 L 3.788619548847488 -3.3499999999999996 L 3.8004475345412745 -3.3499999999999996 L 3.8076043519693252 -3.3499999999999996 L 3.8099999999999996 -3.3499999999999996 " stroke="#191919" stroke-width="0.35 px" style="stroke-width:0.35;stroke-miterlimit:4;stroke-dasharray:none;fill:none;fill-opacity:1;fill-rule: evenodd"/>
<path id="Shape2DView_nwe0027"  d="M 3.8099999999999996 3.35 L 3.810798549343558 3.35 L 3.8131841551529084 3.35 L 3.8171268170508372 3.35 L 3.8225769537763927 3.35 L 3.829466026698008 3.35 L 3.83770740172656 3.35 L 3.8471974387893084 3.35 L 3.8578167951639406 3.35 L 3.869431926282552 3.35 L 3.88189676513207 3.35 L 3.8950545591316934 3.35 L 3.908739841387548 3.35 L 3.9227805115348797 3.35 L 3.937 3.35 " stroke="#191919" stroke-width="0.35 px" style="stroke-width:0.35;stroke-miterlimit:4;stroke-dasharray:none;fill:none;fill-opacity:1;fill-rule: evenodd"/>
<path id="Shape2DView_nwe0028"  d="M 3.429 3.35 L 3.47165846539536 3.35 L 3.5137804758373554 3.35 L 3.5548363226049187 3.35 L 3.5943097046037895 3.35 L 3.631704221152343 3.3500000000000005 L 3.666549614508177 3.3500000000000005 L 3.6984076836320745 3.3500000000000005 L 3.7268777948203193 3.3500000000000005 L 3.7516019199059762 3.3500000000000005 L 3.7722691386708216 3.3500000000000005 L 3.788619548847488 3.3500000000000005 L 3.8004475345412745 3.3500000000000005 L 3.8076043519693252 3.3500000000000005 L 3.8099999999999996 3.3500000000000005 " stroke="#191919" stroke-width="0.35 px" style="stroke-width:0.35;stroke-miterlimit:4;stroke-dasharray:none;fill:none;fill-opacity:1;fill-rule: evenodd"/>
<path id="Shape2DView_nwe0029"  d="M 3.429 3.3499999999999996 L 2.45 3.3499999999999983 " stroke="#191919" stroke-width="0.35 px" style="stroke-width:0.35;stroke-miterlimit:4;stroke-dasharray:none;fill:none;fill-opacity:1;fill-rule: evenodd"/>
<path id="Shape2DView_nwe0030"  d="M 4.476 3.35 L 3.937 3.3499999999999996 " stroke="#191919" stroke-width="0.35 px" style="stroke-width:0.35;stroke-miterlimit:4;stroke-dasharray:none;fill:none;fill-opacity:1;fill-rule: evenodd"/>
<path id="Shape2DView_nwe0031"  d="M 2.374999999999998 -3.35 L 2.3749999999999956 -1.73 " stroke="#191919" stroke-width="0.35 px" style="stroke-width:0.35;stroke-miterlimit:4;stroke-dasharray:none;fill:none;fill-opacity:1;fill-rule: evenodd"/>
<path id="Shape2DView_nwe0032"  d="M 3.8099999999999996 -1.7300000000000002 L 3.810798549343558 -1.7300000000000002 L 3.8131841551529084 -1.7300000000000002 L 3.8171268170508372 -1.7300000000000002 L 3.8225769537763927 -1.7300000000000002 L 3.829466026698008 -1.7300000000000002 L 3.83770740172656 -1.7300000000000002 L 3.8471974387893084 -1.73 L 3.8578167951639406 -1.73 L 3.869431926282552 -1.73 L 3.88189676513207 -1.73 L 3.8950545591316934 -1.73 L 3.908739841387548 -1.73 L 3.9227805115348797 -1.73 L 3.937 -1.73 " stroke="#191919" stroke-width="0.35 px" style="stroke-width:0.35;stroke-miterlimit:4;stroke-dasharray:none;fill:none;fill-opacity:1;fill-rule: evenodd"/>
<path id="Shape2DView_nwe0033"  d="M 3.429 -1.73 L 3.47165846539536 -1.73 L 3.5137804758373554 -1.73 L 3.5548363226049187 -1.7299999999999998 L 3.5943097046037895 -1.7299999999999998 L 3.631704221152343 -1.7299999999999998 L 3.666549614508177 -1.7299999999999998 L 3.6984076836320745 -1.7299999999999998 L 3.7268777948203193 -1.7299999999999995 L 3.7516019199059762 -1.7299999999999995 L 3.7722691386708216 -1.7299999999999995 L 3.788619548847488 -1.7299999999999995 L 3.8004475345412745 -1.7299999999999995 L 3.8076043519693252 -1.7299999999999995 L 3.8099999999999996 -1.7299999999999995 " stroke="#191919" stroke-width="0.35 px" style="stroke-width:0.35;stroke-miterlimit:4;stroke-dasharray:none;fill:none;fill-opacity:1;fill-rule: evenodd"/>
<path id="Shape2DView_nwe0034"  d="M 3.429 -1.7300000000000004 L 2.45 -1.7300000000000015 " stroke="#191919" stroke-width="0.35 px" style="stroke-width:0.35;stroke-miterlimit:4;stroke-dasharray:none;fill:none;fill-opacity:1;fill-rule: evenodd"/>
<path id="Shape2DView_nwe0035"  d="M 4.476 -1.73 L 3.937 -1.7300000000000006 " stroke="#191919" stroke-width="0.35 px" style="stroke-width:0.35;stroke-miterlimit:4;stroke-dasharray:none;fill:none;fill-opacity:1;fill-rule: evenodd"/>
<path id="Shape2DView_nwe0036"  d="M 3.8099999999999996 1.7299999999999998 L 3.810798549343558 1.7299999999999998 L 3.8131841551529084 1.7299999999999998 L 3.8171268170508372 1.7299999999999998 L 3.8225769537763927 1.7299999999999998 L 3.829466026698008 1.7299999999999998 L 3.83770740172656 1.7299999999999998 L 3.8471974387893084 1.73 L 3.8578167951639406 1.73 L 3.869431926282552 1.73 L 3.88189676513207 1.73 L 3.8950545591316934 1.73 L 3.908739841387548 1.73 L 3.9227805115348797 1.73 L 3.937 1.73 " stroke="#191919" stroke-width="0.35 px" style="stroke-width:0.35;stroke-miterlimit:4;stroke-dasharray:none;fill:none;fill-opacity:1;fill-rule: evenodd"/>
<path id="Shape2DView_nwe0037"  d="M 3.937 1.7300000000000004 L 4.476 1.730000000000001 " stroke="#191919" stroke-width="0.35 px" style="stroke-width:0.35;stroke-miterlimit:4;stroke-dasharray:none;fill:none;fill-opacity:1;fill-rule: evenodd"/>
<path id="Shape2DView_nwe0038"  d="M 3.429 1.7299999999999995 L 2.45 1.7299999999999984 " stroke="#191919" stroke-width="0.35 px" style="stroke-width:0.35;stroke-miterlimit:4;stroke-dasharray:none;fill:none;fill-opacity:1;fill-rule: evenodd"/>
<path id="Shape2DView_nwe0039"  d="M 3.429 1.73 L 3.47165846539536 1.73 L 3.5137804758373554 1.73 L 3.5548363226049187 1.7300000000000002 L 3.5943097046037895 1.7300000000000002 L 3.631704221152343 1.7300000000000002 L 3.666549614508177 1.7300000000000002 L 3.6984076836320745 1.7300000000000002 L 3.7268777948203193 1.7300000000000004 L 3.7516019199059762 1.7300000000000004 L 3.7722691386708216 1.7300000000000004 L 3.788619548847488 1.7300000000000004 L 3.8004475345412745 1.7300000000000004 L 3.8076043519693252 1.7300000000000004 L 3.8099999999999996 1.7300000000000004 " stroke="#191919" stroke-width="0.35 px" style="stroke-width:0.35;stroke-miterlimit:4;stroke-dasharray:none;fill:none;fill-opacity:1;fill-rule: evenodd"/>
<path id="Shape2DView_nwe0040"  d="M 2.374999999999991 1.7300000000000004 L 2.374999999999989 3.3499999999999996 " stroke="#191919" stroke-width="0.35 px" style="stroke-width:0.35;stroke-miterlimit:4;stroke-dasharray:none;fill:none;fill-opacity:1;fill-rule: evenodd"/>
<path id="Shape2DView_nwe0041"  d="M 3.8099999999999996 -0.8100000000000002 L 3.810798549343558 -0.8100000000000002 L 3.8131841551529084 -0.8100000000000002 L 3.8171268170508372 -0.8100000000000002 L 3.8225769537763927 -0.8100000000000002 L 3.829466026698008 -0.8100000000000002 L 3.83770740172656 -0.8100000000000002 L 3.8471974387893084 -0.8100000000000002 L 3.8578167951639406 -0.8100000000000002 L 3.869431926282552 -0.8100000000000002 L 3.88189676513207 -0.8100000000000002 L 3.8950545591316934 -0.81 L 3.908739841387548 -0.81 L 3.9227805115348797 -0.81 L 3.937 -0.81 " stroke="#191919" stroke-width="0.35 px" style="stroke-width:0.35;stroke-miterlimit:4;stroke-dasharray:none;fill:none;fill-opacity:1;fill-rule: evenodd"/>
<path id="Shape2DView_nwe0042"  d="M 3.937 -0.8099999999999996 L 4.476 -0.8099999999999989 " stroke="#191919" stroke-width="0.35 px" style="stroke-width:0.35;stroke-miterlimit:4;stroke-dasharray:none;fill:none;fill-opacity:1;fill-rule: evenodd"/>
<path id="Shape2DView_nwe0043"  d="M 3.429 -0.8100000000000005 L 2.45 -0.8100000000000017 " stroke="#191919" stroke-width="0.35 px" style="stroke-width:0.35;stroke-miterlimit:4;stroke-dasharray:none;fill:none;fill-opacity:1;fill-rule: evenodd"/>
<path id="Shape2DView_nwe0044"  d="M 3.429 -0.81 L 3.47165846539536 -0.81 L 3.5137804758373554 -0.8099999999999999 L 3.5548363226049187 -0.8099999999999999 L 3.5943097046037895 -0.8099999999999998 L 3.631704221152343 -0.8099999999999998 L 3.666549614508177 -0.8099999999999997 L 3.6984076836320745 -0.8099999999999997 L 3.7268777948203193 -0.8099999999999997 L 3.7516019199059762 -0.8099999999999996 L 3.7722691386708216 -0.8099999999999996 L 3.788619548847488 -0.8099999999999996 L 3.8004475345412745 -0.8099999999999996 L 3.8076043519693252 -0.8099999999999996 L 3.8099999999999996 -0.8099999999999996 " stroke="#191919" stroke-width="0.35 px" style="stroke-width:0.35;stroke-miterlimit:4;stroke-dasharray:none;fill:none;fill-opacity:1;fill-rule: evenodd"/>
<path id="Shape2DView_nwe0045"  d="M 3.8099999999999996 0.8099999999999999 L 3.810798549343558 0.8099999999999999 L 3.8131841551529084 0.8099999999999999 L 3.8171268170508372 0.8099999999999999 L 3.8225769537763927 0.8099999999999999 L 3.829466026698008 0.8099999999999999 L 3.83770740172656 0.8099999999999999 L 3.8471974387893084 0.8099999999999999 L 3.8578167951639406 0.8099999999999999 L 3.869431926282552 0.8099999999999999 L 3.88189676513207 0.8099999999999999 L 3.8950545591316934 0.81 L 3.908739841387548 0.81 L 3.9227805115348797 0.81 L 3.937 0.81 " stroke="#191919" stroke-width="0.35 px" style="stroke-width:0.35;stroke-miterlimit:4;stroke-dasharray:none;fill:none;fill-opacity:1;fill-rule: evenodd"/>
<path id="Shape2DView_nwe0046"  d="M 3.429 0.81 L 3.47165846539536 0.81 L 3.5137804758373554 0.8100000000000002 L 3.5548363226049187 0.8100000000000002 L 3.5943097046037895 0.8100000000000003 L 3.631704221152343 0.8100000000000003 L 3.666549614508177 0.8100000000000004 L 3.6984076836320745 0.8100000000000004 L 3.7268777948203193 0.8100000000000004 L 3.7516019199059762 0.8100000000000005 L 3.7722691386708216 0.8100000000000005 L 3.788619548847488 0.8100000000000005 L 3.8004475345412745 0.8100000000000005 L 3.8076043519693252 0.8100000000000005 L 3.8099999999999996 0.8100000000000005 " stroke="#191919" stroke-width="0.35 px" style="stroke-width:0.35;stroke-miterlimit:4;stroke-dasharray:none;fill:none;fill-opacity:1;fill-rule: evenodd"/>
<path id="Shape2DView_nwe0047"  d="M 3.429 0.8099999999999996 L 2.45 0.8099999999999984 " stroke="#191919" stroke-width="0.35 px" style="stroke-width:0.35;stroke-miterlimit:4;stroke-dasharray:none;fill:none;fill-opacity:1;fill-rule: evenodd"/>
<path id="Shape2DView_nwe0048"  d="M 4.476 0.81 L 3.937 0.8099999999999994 " stroke="#191919" stroke-width="0.35 px" style="stroke-width:0.35;stroke-miterlimit:4;stroke-dasharray:none;fill:none;fill-opacity:1;fill-rule: evenodd"/>
<path id="Shape2DView_nwe0049"  d="M 2.3749999999999942 -0.8100000000000005 L 2.374999999999992 0.8100000000000005 " stroke="#191919" stroke-width="0.35 px" style="stroke-width:0.35;stroke-miterlimit:4;stroke-dasharray:none;fill:none;fill-opacity:1;fill-rule: evenodd"/>
<path id="Shape2DView_nwe0050"  d="M -2.45 5.12 L -2.375 5.045 " stroke="#191919" stroke-width="0.35 px" style="stroke-width:0.35;stroke-miterlimit:4;stroke-dasharray:none;fill:none;fill-opacity:1;fill-rule: evenodd"/>
<path id="Shape2DView_nwe0051"  d="M 2.375 5.045 L -2.375 5.044999999999994 " stroke="#191919" stroke-width="0.35 px" style="stroke-width:0.35;stroke-miterlimit:4;stroke-dasharray:none;fill:none;fill-opacity:1;fill-rule: evenodd"/>
<path id="Shape2DView_nwe0052"  d="M -2.375 5.045 L -2.374999999999999 4.27 " stroke="#191919" stroke-width="0.35 px" style="stroke-width:0.35;stroke-miterlimit:4;stroke-dasharray:none;fill:none;fill-opacity:1;fill-rule: evenodd"/>
<path id="Shape2DView_nwe0053"  d="M -3.8099999999999996 4.27 L -3.810798549343558 4.27 L -3.8131841551529084 4.27 L -3.8171268170508372 4.27 L -3.8225769537763927 4.27 L -3.829466026698008 4.27 L -3.83770740172656 4.27 L -3.8471974387893084 4.27 L -3.8578167951639406 4.27 L -3.869431926282552 4.27 L -3.88189676513207 4.27 L -3.8950545591316934 4.27 L -3.908739841387548 4.27 L -3.9227805115348797 4.27 L -3.937 4.27 " stroke="#191919" stroke-width="0.35 px" style="stroke-width:0.35;stroke-miterlimit:4;stroke-dasharray:none;fill:none;fill-opacity:1;fill-rule: evenodd"/>
<path id="Shape2DView_nwe0054"  d="M -3.429 4.27 L -3.47165846539536 4.27 L -3.5137804758373554 4.27 L -3.5548363226049187 4.27 L -3.5943097046037895 4.27 L -3.631704221152343 4.27 L -3.6665496145081775 4.27 L -3.6984076836320745 4.27 L -3.7268777948203193 4.27 L -3.7516019199059762 4.27 L -3.7722691386708216 4.269999999999999 L -3.788619548847488 4.269999999999999 L -3.8004475345412745 4.269999999999999 L -3.8076043519693252 4.269999999999999 L -3.8099999999999996 4.269999999999999 " stroke="#191919" stroke-width="0.35 px" style="stroke-width:0.35;stroke-miterlimit:4;stroke-dasharray:none;fill:none;fill-opacity:1;fill-rule: evenodd"/>
<path id="Shape2DView_nwe0055"  d="M -2.45 4.269999999999996 L -3.4290000000000003 4.269999999999995 " stroke="#191919" stroke-width="0.35 px" style="stroke-width:0.35;stroke-miterlimit:4;stroke-dasharray:none;fill:none;fill-opacity:1;fill-rule: evenodd"/>
<path id="Shape2DView_nwe0056"  d="M -4.476 4.27 L -3.937 4.2700000000000005 " stroke="#191919" stroke-width="0.35 px" style="stroke-width:0.35;stroke-miterlimit:4;stroke-dasharray:none;fill:none;fill-opacity:1;fill-rule: evenodd"/>
<path id="Shape2DView_nwe0057"  d="M -3.8099999999999996 -4.27 L -3.810798549343558 -4.27 L -3.8131841551529084 -4.27 L -3.8171268170508372 -4.27 L -3.8225769537763927 -4.27 L -3.829466026698008 -4.27 L -3.83770740172656 -4.27 L -3.8471974387893084 -4.27 L -3.8578167951639406 -4.27 L -3.869431926282552 -4.27 L -3.88189676513207 -4.27 L -3.8950545591316934 -4.27 L -3.908739841387548 -4.27 L -3.9227805115348797 -4.27 L -3.937 -4.27 " stroke="#191919" stroke-width="0.35 px" style="stroke-width:0.35;stroke-miterlimit:4;stroke-dasharray:none;fill:none;fill-opacity:1;fill-rule: evenodd"/>
<path id="Shape2DView_nwe0058"  d="M -3.937 -4.2700000000000005 L -4.476 -4.2700000000000005 " stroke="#191919" stroke-width="0.35 px" style="stroke-width:0.35;stroke-miterlimit:4;stroke-dasharray:none;fill:none;fill-opacity:1;fill-rule: evenodd"/>
<path id="Shape2DView_nwe0059"  d="M -3.429 -4.269999999999999 L -2.45 -4.269999999999998 " stroke="#191919" stroke-width="0.35 px" style="stroke-width:0.35;stroke-miterlimit:4;stroke-dasharray:none;fill:none;fill-opacity:1;fill-rule: evenodd"/>
<path id="Shape2DView_nwe0060"  d="M -3.429 -4.27 L -3.47165846539536 -4.27 L -3.5137804758373554 -4.27 L -3.5548363226049187 -4.27 L -3.5943097046037895 -4.27 L -3.631704221152343 -4.27 L -3.666549614508177 -4.27 L -3.6984076836320745 -4.27 L -3.7268777948203193 -4.27 L -3.7516019199059762 -4.27 L -3.7722691386708216 -4.2700000000000005 L -3.788619548847488 -4.2700000000000005 L -3.8004475345412745 -4.2700000000000005 L -3.8076043519693252 -4.2700000000000005 L -3.8099999999999996 -4.2700000000000005 " stroke="#191919" stroke-width="0.35 px" style="stroke-width:0.35;stroke-miterlimit:4;stroke-dasharray:none;fill:none;fill-opacity:1;fill-rule: evenodd"/>
<path id="Shape2DView_nwe0061"  d="M -2.45 -5.12 L -2.375 -5.045 " stroke="#191919" stroke-width="0.35 px" style="stroke-width:0.35;stroke-miterlimit:4;stroke-dasharray:none;fill:none;fill-opacity:1;fill-rule: evenodd"/>
<path id="Shape2DView_nwe0062"  d="M -2.3749999999999876 -4.27 L -2.3749999999999867 -5.045 " stroke="#191919" stroke-width="0.35 px" style="stroke-width:0.35;stroke-miterlimit:4;stroke-dasharray:none;fill:none;fill-opacity:1;fill-rule: evenodd"/>
<path id="Shape2DView_nwe0063"  d="M -3.8099999999999996 3.35 L -3.810798549343558 3.35 L -3.8131841551529084 3.35 L -3.8171268170508372 3.35 L -3.8225769537763927 3.35 L -3.829466026698008 3.35 L -3.83770740172656 3.35 L -3.8471974387893084 3.35 L -3.8578167951639406 3.35 L -3.869431926282552 3.35 L -3.88189676513207 3.35 L -3.8950545591316934 3.35 L -3.908739841387548 3.35 L -3.9227805115348797 3.35 L -3.937 3.35 " stroke="#191919" stroke-width="0.35 px" style="stroke-width:0.35;stroke-miterlimit:4;stroke-dasharray:none;fill:none;fill-opacity:1;fill-rule: evenodd"/>
<path id="Shape2DView_nwe0064"  d="M -3.937 3.3499999999999996 L -4.476 3.3499999999999988 " stroke="#191919" stroke-width="0.35 px" style="stroke-width:0.35;stroke-miterlimit:4;stroke-dasharray:none;fill:none;fill-opacity:1;fill-rule: evenodd"/>
<path id="Shape2DView_nwe0065"  d="M -3.429 3.3500000000000005 L -2.45 3.350000000000002 " stroke="#191919" stroke-width="0.35 px" style="stroke-width:0.35;stroke-miterlimit:4;stroke-dasharray:none;fill:none;fill-opacity:1;fill-rule: evenodd"/>
<path id="Shape2DView_nwe0066"  d="M -3.429 3.35 L -3.47165846539536 3.35 L -3.5137804758373554 3.35 L -3.5548363226049187 3.35 L -3.5943097046037895 3.35 L -3.631704221152343 3.3499999999999996 L -3.6665496145081775 3.3499999999999996 L -3.6984076836320745 3.3499999999999996 L -3.7268777948203193 3.3499999999999996 L -3.7516019199059762 3.3499999999999996 L -3.7722691386708216 3.3499999999999996 L -3.788619548847488 3.3499999999999996 L -3.8004475345412745 3.3499999999999996 L -3.8076043519693252 3.3499999999999996 L -3.8099999999999996 3.3499999999999996 " stroke="#191919" stroke-width="0.35 px" style="stroke-width:0.35;stroke-miterlimit:4;stroke-dasharray:none;fill:none;fill-opacity:1;fill-rule: evenodd"/>
<path id="Shape2DView_nwe0067"  d="M -3.8099999999999996 -3.35 L -3.810798549343558 -3.35 L -3.8131841551529084 -3.35 L -3.8171268170508372 -3.35 L -3.8225769537763927 -3.35 L -3.829466026698008 -3.35 L -3.83770740172656 -3.35 L -3.8471974387893084 -3.35 L -3.8578167951639406 -3.35 L -3.869431926282552 -3.35 L -3.88189676513207 -3.35 L -3.8950545591316934 -3.35 L -3.908739841387548 -3.35 L -3.9227805115348797 -3.35 L -3.937 -3.35 " stroke="#191919" stroke-width="0.35 px" style="stroke-width:0.35;stroke-miterlimit:4;stroke-dasharray:none;fill:none;fill-opacity:1;fill-rule: evenodd"/>
<path id="Shape2DView_nwe0068"  d="M -3.429 -3.35 L -3.47165846539536 -3.35 L -3.5137804758373554 -3.35 L -3.5548363226049187 -3.35 L -3.5943097046037895 -3.35 L -3.631704221152343 -3.3500000000000005 L -3.666549614508177 -3.3500000000000005 L -3.6984076836320745 -3.3500000000000005 L -3.7268777948203193 -3.3500000000000005 L -3.7516019199059762 -3.3500000000000005 L -3.7722691386708216 -3.3500000000000005 L -3.788619548847488 -3.3500000000000005 L -3.8004475345412745 -3.3500000000000005 L -3.8076043519693252 -3.3500000000000005 L -3.8099999999999996 -3.3500000000000005 " stroke="#191919" stroke-width="0.35 px" style="stroke-width:0.35;stroke-miterlimit:4;stroke-dasharray:none;fill:none;fill-opacity:1;fill-rule: evenodd"/>
<path id="Shape2DView_nwe0069"  d="M -3.429 -3.3499999999999996 L -2.45 -3.3499999999999983 " stroke="#191919" stroke-width="0.35 px" style="stroke-width:0.35;stroke-miterlimit:4;stroke-dasharray:none;fill:none;fill-opacity:1;fill-rule: evenodd"/>
<path id="Shape2DView_nwe0070"  d="M -4.476 -3.35 L -3.937 -3.349999999999999 " stroke="#191919" stroke-width="0.35 px" style="stroke-width:0.35;stroke-miterlimit:4;stroke-dasharray:none;fill:none;fill-opacity:1;fill-rule: evenodd"/>
<path id="Shape2DView_nwe0071"  d="M -2.374999999999998 3.35 L -2.3749999999999956 1.73 " stroke="#191919" stroke-width="0.35 px" style="stroke-width:0.35;stroke-miterlimit:4;stroke-dasharray:none;fill:none;fill-opacity:1;fill-rule: evenodd"/>
<path id="Shape2DView_nwe0072"  d="M -3.8099999999999996 1.7300000000000002 L -3.810798549343558 1.7300000000000002 L -3.8131841551529084 1.7300000000000002 L -3.8171268170508372 1.7300000000000002 L -3.8225769537763927 1.7300000000000002 L -3.829466026698008 1.7300000000000002 L -3.83770740172656 1.7300000000000002 L -3.8471974387893084 1.7300000000000002 L -3.8578167951639406 1.73 L -3.869431926282552 1.73 L -3.88189676513207 1.73 L -3.8950545591316934 1.73 L -3.908739841387548 1.73 L -3.9227805115348797 1.73 L -3.937 1.73 " stroke="#191919" stroke-width="0.35 px" style="stroke-width:0.35;stroke-miterlimit:4;stroke-dasharray:none;fill:none;fill-opacity:1;fill-rule: evenodd"/>
<path id="Shape2DView_nwe0073"  d="M -3.429 1.73 L -3.47165846539536 1.73 L -3.5137804758373554 1.7299999999999998 L -3.5548363226049187 1.7299999999999998 L -3.5943097046037895 1.7299999999999998 L -3.631704221152343 1.7299999999999998 L -3.666549614508177 1.7299999999999998 L -3.6984076836320745 1.7299999999999995 L -3.7268777948203193 1.7299999999999995 L -3.7516019199059762 1.7299999999999995 L -3.7722691386708216 1.7299999999999995 L -3.788619548847488 1.7299999999999995 L -3.8004475345412745 1.7299999999999995 L -3.8076043519693252 1.7299999999999995 L -3.8099999999999996 1.7299999999999995 " stroke="#191919" stroke-width="0.35 px" style="stroke-width:0.35;stroke-miterlimit:4;stroke-dasharray:none;fill:none;fill-opacity:1;fill-rule: evenodd"/>
<path id="Shape2DView_nwe0074"  d="M -3.429 1.7300000000000004 L -2.45 1.7300000000000018 " stroke="#191919" stroke-width="0.35 px" style="stroke-width:0.35;stroke-miterlimit:4;stroke-dasharray:none;fill:none;fill-opacity:1;fill-rule: evenodd"/>
<path id="Shape2DView_nwe0075"  d="M -4.476 1.73 L -3.937 1.7300000000000006 " stroke="#191919" stroke-width="0.35 px" style="stroke-width:0.35;stroke-miterlimit:4;stroke-dasharray:none;fill:none;fill-opacity:1;fill-rule: evenodd"/>
<path id="Shape2DView_nwe0076"  d="M -3.8099999999999996 0.8100000000000003 L -3.810798549343558 0.8100000000000003 L -3.8131841551529084 0.8100000000000002 L -3.8171268170508372 0.8100000000000002 L -3.8225769537763927 0.8100000000000002 L -3.829466026698008 0.8100000000000002 L -3.83770740172656 0.8100000000000002 L -3.8471974387893084 0.8100000000000002 L -3.8578167951639406 0.8100000000000002 L -3.869431926282552 0.8100000000000002 L -3.88189676513207 0.8100000000000002 L -3.8950545591316934 0.8100000000000002 L -3.908739841387548 0.81 L -3.9227805115348797 0.81 L -3.937 0.81 " stroke="#191919" stroke-width="0.35 px" style="stroke-width:0.35;stroke-miterlimit:4;stroke-dasharray:none;fill:none;fill-opacity:1;fill-rule: evenodd"/>
<path id="Shape2DView_nwe0077"  d="M -3.937 0.8099999999999995 L -4.476 0.8099999999999988 " stroke="#191919" stroke-width="0.35 px" style="stroke-width:0.35;stroke-miterlimit:4;stroke-dasharray:none;fill:none;fill-opacity:1;fill-rule: evenodd"/>
<path id="Shape2DView_nwe0078"  d="M -3.429 0.8100000000000006 L -2.45 0.8100000000000018 " stroke="#191919" stroke-width="0.35 px" style="stroke-width:0.35;stroke-miterlimit:4;stroke-dasharray:none;fill:none;fill-opacity:1;fill-rule: evenodd"/>
<path id="Shape2DView_nwe0079"  d="M -3.429 0.81 L -3.47165846539536 0.8099999999999999 L -3.5137804758373554 0.8099999999999999 L -3.5548363226049187 0.8099999999999998 L -3.5943097046037895 0.8099999999999998 L -3.631704221152343 0.8099999999999998 L -3.666549614508177 0.8099999999999997 L -3.6984076836320745 0.8099999999999997 L -3.7268777948203193 0.8099999999999996 L -3.7516019199059762 0.8099999999999996 L -3.7722691386708216 0.8099999999999996 L -3.788619548847488 0.8099999999999996 L -3.8004475345412745 0.8099999999999996 L -3.8076043519693252 0.8099999999999995 L -3.8099999999999996 0.8099999999999995 " stroke="#191919" stroke-width="0.35 px" style="stroke-width:0.35;stroke-miterlimit:4;stroke-dasharray:none;fill:none;fill-opacity:1;fill-rule: evenodd"/>
<path id="Shape2DView_nwe0080"  d="M -2.3749999999999942 0.8100000000000005 L -2.374999999999989 -3.3499999999999996 " stroke="#191919" stroke-width="0.35 px" style="stroke-width:0.35;stroke-miterlimit:4;stroke-dasharray:none;fill:none;fill-opacity:1;fill-rule: evenodd"/>
<path id="Shape2DView_nwe0081"  d="M -2.375 -5.045 L 2.375 -5.044999999999994 " stroke="#191919" stroke-width="0.35 px" style="stroke-width:0.35;stroke-miterlimit:4;stroke-dasharray:none;fill:none;fill-opacity:1;fill-rule: evenodd"/>
<path id="Shape2DView_nwe0082"  d="M 2.374999999999999 -4.27 L 2.374999999999998 -3.35 " stroke="#191919" stroke-width="0.35 px" style="stroke-width:0.35;stroke-miterlimit:4;stroke-dasharray:none;fill:none;fill-opacity:1;fill-rule: evenodd"/>
<path id="Shape2DView_nwe0083"  d="M 2.3749999999999956 -1.73 L 2.3749999999999942 -0.8100000000000005 " stroke="#191919" stroke-width="0.35 px" style="stroke-width:0.35;stroke-miterlimit:4;stroke-dasharray:none;fill:none;fill-opacity:1;fill-rule: evenodd"/>
<path id="Shape2DView_nwe0084"  d="M 2.374999999999992 0.8100000000000005 L 2.374999999999991 1.7300000000000004 " stroke="#191919" stroke-width="0.35 px" style="stroke-width:0.35;stroke-miterlimit:4;stroke-dasharray:none;fill:none;fill-opacity:1;fill-rule: evenodd"/>
<path id="Shape2DView_nwe0085"  d="M 2.374999999999989 3.3499999999999996 L 2.3749999999999876 4.27 " stroke="#191919" stroke-width="0.35 px" style="stroke-width:0.35;stroke-miterlimit:4;stroke-dasharray:none;fill:none;fill-opacity:1;fill-rule: evenodd"/>
<path id="Shape2DView_nwe0086"  d="M 2.375 5.045 L 2.051276356577 4.721276356577 " stroke="#191919" stroke-width="0.35 px" style="stroke-width:0.35;stroke-miterlimit:4;stroke-dasharray:none;fill:none;fill-opacity:1;fill-rule: evenodd"/>
<path id="Shape2DView_nwe0087"  d="M 2.051276356577 -4.721276356577 L 2.0512763565769876 4.721276356577 " stroke="#191919" stroke-width="0.35 px" style="stroke-width:0.35;stroke-miterlimit:4;stroke-dasharray:none;fill:none;fill-opacity:1;fill-rule: evenodd"/>
<path id="Shape2DView_nwe0088"  d="M 2.375 -5.045 L 2.051276356577 -4.721276356577 " stroke="#191919" stroke-width="0.35 px" style="stroke-width:0.35;stroke-miterlimit:4;stroke-dasharray:none;fill:none;fill-opacity:1;fill-rule: evenodd"/>
<path id="Shape2DView_nwe0089"  d="M 2.449999999999999 -4.27 L 2.449999999999998 -3.35 " stroke="#191919" stroke-width="0.35 px" style="stroke-width:0.35;stroke-miterlimit:4;stroke-dasharray:none;fill:none;fill-opacity:1;fill-rule: evenodd"/>
<path id="Shape2DView_nwe0090"  d="M 4.476 -3.35 L 4.476000000000001 -4.27 " stroke="#191919" stroke-width="0.35 px" style="stroke-width:0.35;stroke-miterlimit:4;stroke-dasharray:none;fill:none;fill-opacity:1;fill-rule: evenodd"/>
<path id="Shape2DView_nwe0091"  d="M 3.81 -3.35 L 3.8100000000000014 -4.27 " stroke="#191919" stroke-width="0.35 px" style="stroke-width:0.35;stroke-miterlimit:4;stroke-dasharray:none;fill:none;fill-opacity:1;fill-rule: evenodd"/>
<path id="Shape2DView_nwe0092"  d="M 3.81 3.35 L 3.8099999999999987 4.27 " stroke="#191919" stroke-width="0.35 px" style="stroke-width:0.35;stroke-miterlimit:4;stroke-dasharray:none;fill:none;fill-opacity:1;fill-rule: evenodd"/>
<path id="Shape2DView_nwe0093"  d="M 2.449999999999989 3.3500000000000005 L 2.4499999999999877 4.2700000000000005 " stroke="#191919" stroke-width="0.35 px" style="stroke-width:0.35;stroke-miterlimit:4;stroke-dasharray:none;fill:none;fill-opacity:1;fill-rule: evenodd"/>
<path id="Shape2DView_nwe0094"  d="M 4.476 4.27 L 4.476000000000001 3.35 " stroke="#191919" stroke-width="0.35 px" style="stroke-width:0.35;stroke-miterlimit:4;stroke-dasharray:none;fill:none;fill-opacity:1;fill-rule: evenodd"/>
<path id="Shape2DView_nwe0095"  d="M 2.4499999999999957 -1.73 L 2.4499999999999944 -0.8099999999999996 " stroke="#191919" stroke-width="0.35 px" style="stroke-width:0.35;stroke-miterlimit:4;stroke-dasharray:none;fill:none;fill-opacity:1;fill-rule: evenodd"/>
<path id="Shape2DView_nwe0096"  d="M 4.476 -0.81 L 4.476000000000001 -1.73 " stroke="#191919" stroke-width="0.35 px" style="stroke-width:0.35;stroke-miterlimit:4;stroke-dasharray:none;fill:none;fill-opacity:1;fill-rule: evenodd"/>
<path id="Shape2DView_nwe0097"  d="M 3.81 -1.73 L 3.8099999999999987 -0.81 " stroke="#191919" stroke-width="0.35 px" style="stroke-width:0.35;stroke-miterlimit:4;stroke-dasharray:none;fill:none;fill-opacity:1;fill-rule: evenodd"/>
<path id="Shape2DView_nwe0098"  d="M 3.81 0.81 L 3.8099999999999987 1.73 " stroke="#191919" stroke-width="0.35 px" style="stroke-width:0.35;stroke-miterlimit:4;stroke-dasharray:none;fill:none;fill-opacity:1;fill-rule: evenodd"/>
<path id="Shape2DView_nwe0099"  d="M 2.449999999999992 0.8099999999999996 L 2.449999999999991 1.7299999999999995 " stroke="#191919" stroke-width="0.35 px" style="stroke-width:0.35;stroke-miterlimit:4;stroke-dasharray:none;fill:none;fill-opacity:1;fill-rule: evenodd"/>
<path id="Shape2DView_nwe0100"  d="M 4.476 1.73 L 4.476000000000001 0.81 " stroke="#191919" stroke-width="0.35 px" style="stroke-width:0.35;stroke-miterlimit:4;stroke-dasharray:none;fill:none;fill-opacity:1;fill-rule: evenodd"/>
<path id="Shape2DView_nwe0101"  d="M -2.375 5.045 L -2.051276356577 4.721276356577 " stroke="#191919" stroke-width="0.35 px" style="stroke-width:0.35;stroke-miterlimit:4;stroke-dasharray:none;fill:none;fill-opacity:1;fill-rule: evenodd"/>
<path id="Shape2DView_nwe0102"  d="M -0.7462405778300001 4.721276356576997 L -2.051276356577 4.721276356576995 " stroke="#191919" stroke-width="0.35 px" style="stroke-width:0.35;stroke-miterlimit:4;stroke-dasharray:none;fill:none;fill-opacity:1;fill-rule: evenodd"/>
<path id="Shape2DView_nwe0103"  d="M -0.7493474955903654 4.827554637412058 L -0.7462405778300001 4.721276356577 " stroke="#191919" stroke-width="0.35 px" style="stroke-width:0.35;stroke-miterlimit:4;stroke-dasharray:none;fill:none;fill-opacity:1;fill-rule: evenodd"/>
<path id="Shape2DView_nwe0104"  d="M -0.749347495591 4.827554637412 L 0.749347495591 4.827554637411999 " stroke="#191919" stroke-width="0.35 px" style="stroke-width:0.35;stroke-miterlimit:4;stroke-dasharray:none;fill:none;fill-opacity:1;fill-rule: evenodd"/>
<path id="Shape2DView_nwe0105"  d="M 0.7493474955903654 4.827554637412058 L 0.7462405778300001 4.721276356577 " stroke="#191919" stroke-width="0.35 px" style="stroke-width:0.35;stroke-miterlimit:4;stroke-dasharray:none;fill:none;fill-opacity:1;fill-rule: evenodd"/>
<path id="Shape2DView_nwe0106"  d="M 2.051276356577 4.721276356577 L 0.7462405778300001 4.721276356576999 " stroke="#191919" stroke-width="0.35 px" style="stroke-width:0.35;stroke-miterlimit:4;stroke-dasharray:none;fill:none;fill-opacity:1;fill-rule: evenodd"/>
<path id="Shape2DView_nwe0107"  d="M -2.374999999999999 4.27 L -2.374999999999998 3.35 " stroke="#191919" stroke-width="0.35 px" style="stroke-width:0.35;stroke-miterlimit:4;stroke-dasharray:none;fill:none;fill-opacity:1;fill-rule: evenodd"/>
<path id="Shape2DView_nwe0108"  d="M -2.3749999999999956 1.73 L -2.3749999999999942 0.8100000000000005 " stroke="#191919" stroke-width="0.35 px" style="stroke-width:0.35;stroke-miterlimit:4;stroke-dasharray:none;fill:none;fill-opacity:1;fill-rule: evenodd"/>
<path id="Shape2DView_nwe0109"  d="M -2.374999999999989 -3.3499999999999996 L -2.3749999999999876 -4.27 " stroke="#191919" stroke-width="0.35 px" style="stroke-width:0.35;stroke-miterlimit:4;stroke-dasharray:none;fill:none;fill-opacity:1;fill-rule: evenodd"/>
<path id="Shape2DView_nwe0110"  d="M -2.375 -5.045 L -2.051276356577 -4.721276356577 " stroke="#191919" stroke-width="0.35 px" style="stroke-width:0.35;stroke-miterlimit:4;stroke-dasharray:none;fill:none;fill-opacity:1;fill-rule: evenodd"/>
<path id="Shape2DView_nwe0111"  d="M -2.051276356577 4.721276356577 L -2.0512763565769876 -4.721276356577 " stroke="#191919" stroke-width="0.35 px" style="stroke-width:0.35;stroke-miterlimit:4;stroke-dasharray:none;fill:none;fill-opacity:1;fill-rule: evenodd"/>
<path id="Shape2DView_nwe0112"  d="M -2.449999999999999 4.27 L -2.449999999999998 3.35 " stroke="#191919" stroke-width="0.35 px" style="stroke-width:0.35;stroke-miterlimit:4;stroke-dasharray:none;fill:none;fill-opacity:1;fill-rule: evenodd"/>
<path id="Shape2DView_nwe0113"  d="M -4.476 3.35 L -4.476000000000001 4.27 " stroke="#191919" stroke-width="0.35 px" style="stroke-width:0.35;stroke-miterlimit:4;stroke-dasharray:none;fill:none;fill-opacity:1;fill-rule: evenodd"/>
<path id="Shape2DView_nwe0114"  d="M -3.81 3.35 L -3.8100000000000014 4.27 " stroke="#191919" stroke-width="0.35 px" style="stroke-width:0.35;stroke-miterlimit:4;stroke-dasharray:none;fill:none;fill-opacity:1;fill-rule: evenodd"/>
<path id="Shape2DView_nwe0115"  d="M -3.81 -3.35 L -3.8099999999999987 -4.27 " stroke="#191919" stroke-width="0.35 px" style="stroke-width:0.35;stroke-miterlimit:4;stroke-dasharray:none;fill:none;fill-opacity:1;fill-rule: evenodd"/>
<path id="Shape2DView_nwe0116"  d="M -2.449999999999989 -3.3500000000000005 L -2.4499999999999877 -4.2700000000000005 " stroke="#191919" stroke-width="0.35 px" style="stroke-width:0.35;stroke-miterlimit:4;stroke-dasharray:none;fill:none;fill-opacity:1;fill-rule: evenodd"/>
<path id="Shape2DView_nwe0117"  d="M -4.476 -4.27 L -4.476000000000001 -3.35 " stroke="#191919" stroke-width="0.35 px" style="stroke-width:0.35;stroke-miterlimit:4;stroke-dasharray:none;fill:none;fill-opacity:1;fill-rule: evenodd"/>
<path id="Shape2DView_nwe0118"  d="M -2.4499999999999957 1.73 L -2.4499999999999944 0.8099999999999996 " stroke="#191919" stroke-width="0.35 px" style="stroke-width:0.35;stroke-miterlimit:4;stroke-dasharray:none;fill:none;fill-opacity:1;fill-rule: evenodd"/>
<path id="Shape2DView_nwe0119"  d="M -4.476 0.81 L -4.476000000000001 1.73 " stroke="#191919" stroke-width="0.35 px" style="stroke-width:0.35;stroke-miterlimit:4;stroke-dasharray:none;fill:none;fill-opacity:1;fill-rule: evenodd"/>
<path id="Shape2DView_nwe0120"  d="M -3.81 1.73 L -3.8099999999999987 0.81 " stroke="#191919" stroke-width="0.35 px" style="stroke-width:0.35;stroke-miterlimit:4;stroke-dasharray:none;fill:none;fill-opacity:1;fill-rule: evenodd"/>
<path id="Shape2DView_nwe0121"  d="M -2.051276356577 -4.721276356577 L 2.051276356577 -4.721276356576995 " stroke="#191919" stroke-width="0.35 px" style="stroke-width:0.35;stroke-miterlimit:4;stroke-dasharray:none;fill:none;fill-opacity:1;fill-rule: evenodd"/>
<path id="Shape2DView_nwe0122"  d="M -1.11636848348575e-14 4.046276356577 A 0.75 0.75 0 0 0 -0.746241 4.72128" stroke="#191919" stroke-width="0.35 px" style="stroke-width:0.35;stroke-miterlimit:4;stroke-dasharray:none;fill:none;fill-opacity:1;fill-rule: evenodd"/>
<path id="Shape2DView_nwe0123"  d="M 0.7462405778299533 4.721276356577006 A 0.75 0.75 0 0 0 -1.098e-14 4.04628" stroke="#191919" stroke-width="0.35 px" style="stroke-width:0.35;stroke-miterlimit:4;stroke-dasharray:none;fill:none;fill-opacity:1;fill-rule: evenodd"/>
<path id="Shape2DView_nwe0124"  d="M -0.7462405778299769 4.721276356576997 A 0.75 0.75 0 0 0 -0.749347 4.82755" stroke="#191919" stroke-width="0.35 px" style="stroke-width:0.35;stroke-miterlimit:4;stroke-dasharray:none;fill:none;fill-opacity:1;fill-rule: evenodd"/>
<path id="Shape2DView_nwe0125"  d="M 0.7493474955906568 4.8275546374119855 A 0.75 0.75 0 0 0 0.746241 4.72128" stroke="#191919" stroke-width="0.35 px" style="stroke-width:0.35;stroke-miterlimit:4;stroke-dasharray:none;fill:none;fill-opacity:1;fill-rule: evenodd"/>
<path id="Shape2DView_nwe0126"  d="M 3.937 -4.27 L 3.9369999999999985 -3.35 " stroke="#191919" stroke-width="0.35 px" style="stroke-width:0.35;stroke-miterlimit:4;stroke-dasharray:none;fill:none;fill-opacity:1;fill-rule: evenodd"/>
<path id="Shape2DView_nwe0127"  d="M 3.429 -3.35 L 3.429000000000001 -4.27 " stroke="#191919" stroke-width="0.35 px" style="stroke-width:0.35;stroke-miterlimit:4;stroke-dasharray:none;fill:none;fill-opacity:1;fill-rule: evenodd"/>
<path id="Shape2DView_nwe0128"  d="M 3.429 3.35 L 3.4289999999999985 4.27 " stroke="#191919" stroke-width="0.35 px" style="stroke-width:0.35;stroke-miterlimit:4;stroke-dasharray:none;fill:none;fill-opacity:1;fill-rule: evenodd"/>
<path id="Shape2DView_nwe0129"  d="M 3.937 3.35 L 3.9369999999999985 4.27 " stroke="#191919" stroke-width="0.35 px" style="stroke-width:0.35;stroke-miterlimit:4;stroke-dasharray:none;fill:none;fill-opacity:1;fill-rule: evenodd"/>
<path id="Shape2DView_nwe0130"  d="M 3.937 -1.73 L 3.9369999999999985 -0.81 " stroke="#191919" stroke-width="0.35 px" style="stroke-width:0.35;stroke-miterlimit:4;stroke-dasharray:none;fill:none;fill-opacity:1;fill-rule: evenodd"/>
<path id="Shape2DView_nwe0131"  d="M 3.429 -1.73 L 3.4289999999999985 -0.81 " stroke="#191919" stroke-width="0.35 px" style="stroke-width:0.35;stroke-miterlimit:4;stroke-dasharray:none;fill:none;fill-opacity:1;fill-rule: evenodd"/>
<path id="Shape2DView_nwe0132"  d="M 3.429 0.81 L 3.4289999999999985 1.73 " stroke="#191919" stroke-width="0.35 px" style="stroke-width:0.35;stroke-miterlimit:4;stroke-dasharray:none;fill:none;fill-opacity:1;fill-rule: evenodd"/>
<path id="Shape2DView_nwe0133"  d="M 3.937 0.81 L 3.9369999999999985 1.73 " stroke="#191919" stroke-width="0.35 px" style="stroke-width:0.35;stroke-miterlimit:4;stroke-dasharray:none;fill:none;fill-opacity:1;fill-rule: evenodd"/>
<path id="Shape2DView_nwe0134"  d="M -3.937 4.27 L -3.9369999999999985 3.35 " stroke="#191919" stroke-width="0.35 px" style="stroke-width:0.35;stroke-miterlimit:4;stroke-dasharray:none;fill:none;fill-opacity:1;fill-rule: evenodd"/>
<path id="Shape2DView_nwe0135"  d="M -3.429 3.35 L -3.429000000000001 4.27 " stroke="#191919" stroke-width="0.35 px" style="stroke-width:0.35;stroke-miterlimit:4;stroke-dasharray:none;fill:none;fill-opacity:1;fill-rule: evenodd"/>
<path id="Shape2DView_nwe0136"  d="M -3.429 -3.35 L -3.4289999999999985 -4.27 " stroke="#191919" stroke-width="0.35 px" style="stroke-width:0.35;stroke-miterlimit:4;stroke-dasharray:none;fill:none;fill-opacity:1;fill-rule: evenodd"/>
<path id="Shape2DView_nwe0137"  d="M -3.937 -3.35 L -3.9369999999999985 -4.27 " stroke="#191919" stroke-width="0.35 px" style="stroke-width:0.35;stroke-miterlimit:4;stroke-dasharray:none;fill:none;fill-opacity:1;fill-rule: evenodd"/>
<path id="Shape2DView_nwe0138"  d="M -3.937 1.73 L -3.9369999999999985 0.81 " stroke="#191919" stroke-width="0.35 px" style="stroke-width:0.35;stroke-miterlimit:4;stroke-dasharray:none;fill:none;fill-opacity:1;fill-rule: evenodd"/>
<path id="Shape2DView_nwe0139"  d="M -3.429 1.73 L -3.4289999999999985 0.81 " stroke="#191919" stroke-width="0.35 px" style="stroke-width:0.35;stroke-miterlimit:4;stroke-dasharray:none;fill:none;fill-opacity:1;fill-rule: evenodd"/>
<path id="Shape2DView_nwe0140"  d="M 2.375 -4.269999999999997 L 2.45 -4.269999999999996 " stroke="#191919" stroke-width="0.35 px" style="stroke-width:0.35;stroke-miterlimit:4;stroke-dasharray:none;fill:none;fill-opacity:1;fill-rule: evenodd"/>
<path id="Shape2DView_nwe0141"  d="M 2.45 4.269999999999998 L 2.375 4.269999999999998 " stroke="#191919" stroke-width="0.35 px" style="stroke-width:0.35;stroke-miterlimit:4;stroke-dasharray:none;fill:none;fill-opacity:1;fill-rule: evenodd"/>
<path id="Shape2DView_nwe0142"  d="M 2.45 -3.3500000000000014 L 2.375 -3.350000000000002 " stroke="#191919" stroke-width="0.35 px" style="stroke-width:0.35;stroke-miterlimit:4;stroke-dasharray:none;fill:none;fill-opacity:1;fill-rule: evenodd"/>
<path id="Shape2DView_nwe0143"  d="M 2.45 -1.7300000000000015 L 2.375 -1.7300000000000018 " stroke="#191919" stroke-width="0.35 px" style="stroke-width:0.35;stroke-miterlimit:4;stroke-dasharray:none;fill:none;fill-opacity:1;fill-rule: evenodd"/>
<path id="Shape2DView_nwe0144"  d="M 2.45 1.7299999999999984 L 2.375 1.7299999999999982 " stroke="#191919" stroke-width="0.35 px" style="stroke-width:0.35;stroke-miterlimit:4;stroke-dasharray:none;fill:none;fill-opacity:1;fill-rule: evenodd"/>
<path id="Shape2DView_nwe0145"  d="M 2.45 3.3499999999999983 L 2.375 3.3499999999999983 " stroke="#191919" stroke-width="0.35 px" style="stroke-width:0.35;stroke-miterlimit:4;stroke-dasharray:none;fill:none;fill-opacity:1;fill-rule: evenodd"/>
<path id="Shape2DView_nwe0146"  d="M 2.45 -0.8100000000000017 L 2.375 -0.8100000000000018 " stroke="#191919" stroke-width="0.35 px" style="stroke-width:0.35;stroke-miterlimit:4;stroke-dasharray:none;fill:none;fill-opacity:1;fill-rule: evenodd"/>
<path id="Shape2DView_nwe0147"  d="M 2.45 0.8099999999999984 L 2.375 0.8099999999999983 " stroke="#191919" stroke-width="0.35 px" style="stroke-width:0.35;stroke-miterlimit:4;stroke-dasharray:none;fill:none;fill-opacity:1;fill-rule: evenodd"/>
<path id="Shape2DView_nwe0148"  d="M -2.375 4.269999999999996 L -2.45 4.269999999999996 " stroke="#191919" stroke-width="0.35 px" style="stroke-width:0.35;stroke-miterlimit:4;stroke-dasharray:none;fill:none;fill-opacity:1;fill-rule: evenodd"/>
<path id="Shape2DView_nwe0149"  d="M -2.45 -4.269999999999998 L -2.375 -4.269999999999998 " stroke="#191919" stroke-width="0.35 px" style="stroke-width:0.35;stroke-miterlimit:4;stroke-dasharray:none;fill:none;fill-opacity:1;fill-rule: evenodd"/>
<path id="Shape2DView_nwe0150"  d="M -2.45 3.350000000000002 L -2.375 3.350000000000002 " stroke="#191919" stroke-width="0.35 px" style="stroke-width:0.35;stroke-miterlimit:4;stroke-dasharray:none;fill:none;fill-opacity:1;fill-rule: evenodd"/>
<path id="Shape2DView_nwe0151"  d="M -2.45 1.7300000000000018 L -2.375 1.730000000000002 " stroke="#191919" stroke-width="0.35 px" style="stroke-width:0.35;stroke-miterlimit:4;stroke-dasharray:none;fill:none;fill-opacity:1;fill-rule: evenodd"/>
<path id="Shape2DView_nwe0152"  d="M -2.45 0.8100000000000018 L -2.375 0.8100000000000019 " stroke="#191919" stroke-width="0.35 px" style="stroke-width:0.35;stroke-miterlimit:4;stroke-dasharray:none;fill:none;fill-opacity:1;fill-rule: evenodd"/>
<path id="Shape2DView_nwe0153"  d="M -2.45 -3.3499999999999983 L -2.375 -3.3499999999999983 " stroke="#191919" stroke-width="0.35 px" style="stroke-width:0.35;stroke-miterlimit:4;stroke-dasharray:none;fill:none;fill-opacity:1;fill-rule: evenodd"/>
<title>b'Shape2DView'</title>
</g>
<g id="Rectangle" transform="translate(4.565520,5.209520) scale(1,-1)">
<rect fill="#ff0000" id="origin" width="1" height="1" x="0" y="0" />
<title>b'Rectangle'</title>
</g>
</svg>