<?xml version="1.0"?>
<!DOCTYPE svg PUBLIC "-//W3C//DTD SVG 1.1//EN" "http://www.w3.org/Graphics/SVG/1.1/DTD/svg11.dtd">
<svg width="8.996400000000001mm" height="7.2264mm" viewBox="0 0 8.996400000000001 7.2264" xmlns="http://www.w3.org/2000/svg" version="1.1">
<g id="Shape2DView" transform="translate(4.498200,3.613200) scale(1,-1)">
<path id="Shape2DView_nwe0000"  d="M 2.75 -3.525 L 2.749999999999999 -2.997 " stroke="#191919" stroke-width="0.35 px" style="stroke-width:0.35;stroke-miterlimit:4;stroke-dasharray:none;fill:none;fill-opacity:1;fill-rule: evenodd"/>
<path id="Shape2DView_nwe0001"  d="M 2.749999999999991 2.9970000000000003 L 2.7499999999999907 3.525 " stroke="#191919" stroke-width="0.35 px" style="stroke-width:0.35;stroke-miterlimit:4;stroke-dasharray:none;fill:none;fill-opacity:1;fill-rule: evenodd"/>
<path id="Shape2DView_nwe0002"  d="M 2.7499999999999982 -2.083 L 2.749999999999996 -0.45699999999999985 " stroke="#191919" stroke-width="0.35 px" style="stroke-width:0.35;stroke-miterlimit:4;stroke-dasharray:none;fill:none;fill-opacity:1;fill-rule: evenodd"/>
<path id="Shape2DView_nwe0003"  d="M 2.7499999999999947 0.45699999999999985 L 2.7499999999999925 2.0830000000000006 " stroke="#191919" stroke-width="0.35 px" style="stroke-width:0.35;stroke-miterlimit:4;stroke-dasharray:none;fill:none;fill-opacity:1;fill-rule: evenodd"/>
<path id="Shape2DView_nwe0004"  d="M 2.75 3.525 L -2.75 3.524999999999993 " stroke="#191919" stroke-width="0.35 px" style="stroke-width:0.35;stroke-miterlimit:4;stroke-dasharray:none;fill:none;fill-opacity:1;fill-rule: evenodd"/>
<path id="Shape2DView_nwe0005"  d="M -2.75 3.525 L -2.749999999999999 2.997 " stroke="#191919" stroke-width="0.35 px" style="stroke-width:0.35;stroke-miterlimit:4;stroke-dasharray:none;fill:none;fill-opacity:1;fill-rule: evenodd"/>
<path id="Shape2DView_nwe0006"  d="M -2.749999999999991 -2.9970000000000003 L -2.7499999999999907 -3.525 " stroke="#191919" stroke-width="0.35 px" style="stroke-width:0.35;stroke-miterlimit:4;stroke-dasharray:none;fill:none;fill-opacity:1;fill-rule: evenodd"/>
<path id="Shape2DView_nwe0007"  d="M -2.7499999999999982 2.083 L -2.749999999999996 0.45699999999999985 " stroke="#191919" stroke-width="0.35 px" style="stroke-width:0.35;stroke-miterlimit:4;stroke-dasharray:none;fill:none;fill-opacity:1;fill-rule: evenodd"/>
<path id="Shape2DView_nwe0008"  d="M -2.7499999999999947 -0.45699999999999985 L -2.7499999999999925 -2.0830000000000006 " stroke="#191919" stroke-width="0.35 px" style="stroke-width:0.35;stroke-miterlimit:4;stroke-dasharray:none;fill:none;fill-opacity:1;fill-rule: evenodd"/>
<path id="Shape2DView_nwe0009"  d="M -2.75 -3.525 L 2.75 -3.524999999999993 " stroke="#191919" stroke-width="0.35 px" style="stroke-width:0.35;stroke-miterlimit:4;stroke-dasharray:none;fill:none;fill-opacity:1;fill-rule: evenodd"/>
<path id="Shape2DView_nwe0010"  d="M 2.75 -3.525 L 2.675 -3.45 " stroke="#191919" stroke-width="0.35 px" style="stroke-width:0.35;stroke-miterlimit:4;stroke-dasharray:none;fill:none;fill-opacity:1;fill-rule: evenodd"/>
<path id="Shape2DView_nwe0011"  d="M 2.675 -3.45 L 2.6749999999999994 -2.997 " stroke="#191919" stroke-width="0.35 px" style="stroke-width:0.35;stroke-miterlimit:4;stroke-dasharray:none;fill:none;fill-opacity:1;fill-rule: evenodd"/>
<path id="Shape2DView_nwe0012"  d="M 4.41 -2.997 L 3.877 -2.9970000000000003 " stroke="#191919" stroke-width="0.35 px" style="stroke-width:0.35;stroke-miterlimit:4;stroke-dasharray:none;fill:none;fill-opacity:1;fill-rule: evenodd"/>
<path id="Shape2DView_nwe0013"  d="M 3.75 -2.997 L 3.750798549343558 -2.997 L 3.7531841551529084 -2.997 L 3.757126817050837 -2.997 L 3.7625769537763927 -2.997 L 3.769466026698008 -2.997 L 3.77770740172656 -2.997 L 3.7871974387893084 -2.997 L 3.7978167951639406 -2.997 L 3.809431926282552 -2.997 L 3.82189676513207 -2.997 L 3.8350545591316934 -2.997 L 3.8487398413875478 -2.997 L 3.8627805115348797 -2.997 L 3.877 -2.997 " stroke="#191919" stroke-width="0.35 px" style="stroke-width:0.35;stroke-miterlimit:4;stroke-dasharray:none;fill:none;fill-opacity:1;fill-rule: evenodd"/>
<path id="Shape2DView_nwe0014"  d="M 3.369 -2.997 L 3.4116584653953606 -2.997 L 3.453780475837356 -2.997 L 3.494836322604919 -2.997 L 3.53430970460379 -2.997 L 3.5717042211523435 -2.9969999999999994 L 3.606549614508178 -2.9969999999999994 L 3.638407683632075 -2.9969999999999994 L 3.6668777948203197 -2.9969999999999994 L 3.6916019199059766 -2.9969999999999994 L 3.712269138670822 -2.9969999999999994 L 3.7286195488474885 -2.9969999999999994 L 3.740447534541275 -2.9969999999999994 L 3.7476043519693256 -2.9969999999999994 L 3.75 -2.9969999999999994 " stroke="#191919" stroke-width="0.35 px" style="stroke-width:0.35;stroke-miterlimit:4;stroke-dasharray:none;fill:none;fill-opacity:1;fill-rule: evenodd"/>
<path id="Shape2DView_nwe0015"  d="M 2.75 -2.9969999999999963 L 3.3690000000000007 -2.9969999999999954 " stroke="#191919" stroke-width="0.35 px" style="stroke-width:0.35;stroke-miterlimit:4;stroke-dasharray:none;fill:none;fill-opacity:1;fill-rule: evenodd"/>
<path id="Shape2DView_nwe0016"  d="M 3.3689999999999998 2.9970000000000043 L 2.75 2.9970000000000034 " stroke="#191919" stroke-width="0.35 px" style="stroke-width:0.35;stroke-miterlimit:4;stroke-dasharray:none;fill:none;fill-opacity:1;fill-rule: evenodd"/>
<path id="Shape2DView_nwe0017"  d="M 3.369 2.997 L 3.4116584653953606 2.997 L 3.453780475837356 2.997 L 3.494836322604919 2.997 L 3.53430970460379 2.997 L 3.5717042211523435 2.9970000000000003 L 3.6065496145081775 2.9970000000000003 L 3.638407683632075 2.9970000000000003 L 3.6668777948203197 2.9970000000000003 L 3.6916019199059766 2.9970000000000003 L 3.712269138670822 2.9970000000000003 L 3.7286195488474885 2.9970000000000003 L 3.740447534541275 2.9970000000000003 L 3.7476043519693256 2.9970000000000003 L 3.75 2.9970000000000003 " stroke="#191919" stroke-width="0.35 px" style="stroke-width:0.35;stroke-miterlimit:4;stroke-dasharray:none;fill:none;fill-opacity:1;fill-rule: evenodd"/>
<path id="Shape2DView_nwe0018"  d="M 3.75 2.997 L 3.750798549343558 2.997 L 3.7531841551529084 2.997 L 3.757126817050837 2.997 L 3.7625769537763927 2.997 L 3.769466026698008 2.997 L 3.77770740172656 2.997 L 3.7871974387893084 2.997 L 3.7978167951639406 2.997 L 3.809431926282552 2.997 L 3.82189676513207 2.997 L 3.8350545591316934 2.997 L 3.8487398413875478 2.997 L 3.8627805115348797 2.997 L 3.877 2.997 " stroke="#191919" stroke-width="0.35 px" style="stroke-width:0.35;stroke-miterlimit:4;stroke-dasharray:none;fill:none;fill-opacity:1;fill-rule: evenodd"/>
<path id="Shape2DView_nwe0019"  d="M 3.877 2.9970000000000003 L 4.41 2.9970000000000008 " stroke="#191919" stroke-width="0.35 px" style="stroke-width:0.35;stroke-miterlimit:4;stroke-dasharray:none;fill:none;fill-opacity:1;fill-rule: evenodd"/>
<path id="Shape2DView_nwe0020"  d="M 2.75 3.525 L 2.675 3.45 " stroke="#191919" stroke-width="0.35 px" style="stroke-width:0.35;stroke-miterlimit:4;stroke-dasharray:none;fill:none;fill-opacity:1;fill-rule: evenodd"/>
<path id="Shape2DView_nwe0021"  d="M 2.6749999999999914 2.997 L 2.6749999999999905 3.45 " stroke="#191919" stroke-width="0.35 px" style="stroke-width:0.35;stroke-miterlimit:4;stroke-dasharray:none;fill:none;fill-opacity:1;fill-rule: evenodd"/>
<path id="Shape2DView_nwe0022"  d="M 2.75 -2.0829999999999917 L 3.3689999999999998 -2.082999999999991 " stroke="#191919" stroke-width="0.35 px" style="stroke-width:0.35;stroke-miterlimit:4;stroke-dasharray:none;fill:none;fill-opacity:1;fill-rule: evenodd"/>
<path id="Shape2DView_nwe0023"  d="M 3.369 -2.083 L 3.4116584653953606 -2.083 L 3.453780475837356 -2.083 L 3.494836322604919 -2.083 L 3.53430970460379 -2.083 L 3.5717042211523435 -2.0829999999999997 L 3.606549614508178 -2.0829999999999997 L 3.638407683632075 -2.0829999999999997 L 3.6668777948203197 -2.0829999999999997 L 3.6916019199059766 -2.0829999999999997 L 3.712269138670822 -2.0829999999999997 L 3.7286195488474885 -2.0829999999999997 L 3.740447534541275 -2.0829999999999997 L 3.7476043519693256 -2.0829999999999997 L 3.75 -2.0829999999999997 " stroke="#191919" stroke-width="0.35 px" style="stroke-width:0.35;stroke-miterlimit:4;stroke-dasharray:none;fill:none;fill-opacity:1;fill-rule: evenodd"/>
<path id="Shape2DView_nwe0024"  d="M 3.75 -2.083 L 3.750798549343558 -2.083 L 3.7531841551529084 -2.083 L 3.757126817050837 -2.083 L 3.7625769537763927 -2.083 L 3.769466026698008 -2.083 L 3.77770740172656 -2.083 L 3.7871974387893084 -2.083 L 3.7978167951639406 -2.083 L 3.809431926282552 -2.083 L 3.82189676513207 -2.083 L 3.8350545591316934 -2.083 L 3.8487398413875478 -2.083 L 3.8627805115348797 -2.083 L 3.877 -2.083 " stroke="#191919" stroke-width="0.35 px" style="stroke-width:0.35;stroke-miterlimit:4;stroke-dasharray:none;fill:none;fill-opacity:1;fill-rule: evenodd"/>
<path id="Shape2DView_nwe0025"  d="M 3.877 -2.0829999999999997 L 4.41 -2.0829999999999993 " stroke="#191919" stroke-width="0.35 px" style="stroke-width:0.35;stroke-miterlimit:4;stroke-dasharray:none;fill:none;fill-opacity:1;fill-rule: evenodd"/>
<path id="Shape2DView_nwe0026"  d="M 4.41 2.083 L 3.877 2.0829999999999997 " stroke="#191919" stroke-width="0.35 px" style="stroke-width:0.35;stroke-miterlimit:4;stroke-dasharray:none;fill:none;fill-opacity:1;fill-rule: evenodd"/>
<path id="Shape2DView_nwe0027"  d="M 3.75 2.083 L 3.750798549343558 2.083 L 3.7531841551529084 2.083 L 3.757126817050837 2.083 L 3.7625769537763927 2.083 L 3.769466026698008 2.083 L 3.77770740172656 2.083 L 3.7871974387893084 2.083 L 3.7978167951639406 2.083 L 3.809431926282552 2.083 L 3.82189676513207 2.083 L 3.8350545591316934 2.083 L 3.8487398413875478 2.083 L 3.8627805115348797 2.083 L 3.877 2.083 " stroke="#191919" stroke-width="0.35 px" style="stroke-width:0.35;stroke-miterlimit:4;stroke-dasharray:none;fill:none;fill-opacity:1;fill-rule: evenodd"/>
<path id="Shape2DView_nwe0028"  d="M 3.369 2.083 L 3.4116584653953606 2.083 L 3.453780475837356 2.083 L 3.494836322604919 2.083 L 3.53430970460379 2.083 L 3.5717042211523435 2.0830000000000006 L 3.6065496145081775 2.0830000000000006 L 3.638407683632075 2.0830000000000006 L 3.6668777948203197 2.0830000000000006 L 3.6916019199059766 2.0830000000000006 L 3.712269138670822 2.0830000000000006 L 3.7286195488474885 2.0830000000000006 L 3.740447534541275 2.0830000000000006 L 3.7476043519693256 2.0830000000000006 L 3.75 2.0830000000000006 " stroke="#191919" stroke-width="0.35 px" style="stroke-width:0.35;stroke-miterlimit:4;stroke-dasharray:none;fill:none;fill-opacity:1;fill-rule: evenodd"/>
<path id="Shape2DView_nwe0029"  d="M 3.369 2.0829999999999997 L 2.75 2.082999999999999 " stroke="#191919" stroke-width="0.35 px" style="stroke-width:0.35;stroke-miterlimit:4;stroke-dasharray:none;fill:none;fill-opacity:1;fill-rule: evenodd"/>
<path id="Shape2DView_nwe0030"  d="M 2.674999999999998 -2.083 L 2.674999999999996 -0.45699999999999985 " stroke="#191919" stroke-width="0.35 px" style="stroke-width:0.35;stroke-miterlimit:4;stroke-dasharray:none;fill:none;fill-opacity:1;fill-rule: evenodd"/>
<path id="Shape2DView_nwe0031"  d="M 3.75 -0.4570000000000002 L 3.750798549343558 -0.4570000000000002 L 3.7531841551529084 -0.4570000000000002 L 3.757126817050837 -0.4570000000000002 L 3.7625769537763927 -0.45700000000000013 L 3.769466026698008 -0.45700000000000013 L 3.77770740172656 -0.45700000000000013 L 3.7871974387893084 -0.45700000000000013 L 3.7978167951639406 -0.45700000000000013 L 3.809431926282552 -0.4570000000000001 L 3.82189676513207 -0.4570000000000001 L 3.8350545591316934 -0.4570000000000001 L 3.8487398413875478 -0.4570000000000001 L 3.8627805115348797 -0.457 L 3.877 -0.457 " stroke="#191919" stroke-width="0.35 px" style="stroke-width:0.35;stroke-miterlimit:4;stroke-dasharray:none;fill:none;fill-opacity:1;fill-rule: evenodd"/>
<path id="Shape2DView_nwe0032"  d="M 3.369 -0.457 L 3.4116584653953606 -0.45699999999999996 L 3.453780475837356 -0.4569999999999999 L 3.494836322604919 -0.45699999999999985 L 3.53430970460379 -0.4569999999999998 L 3.5717042211523435 -0.4569999999999998 L 3.6065496145081775 -0.45699999999999974 L 3.638407683632075 -0.4569999999999997 L 3.6668777948203197 -0.4569999999999997 L 3.6916019199059766 -0.45699999999999963 L 3.712269138670822 -0.45699999999999963 L 3.7286195488474885 -0.4569999999999996 L 3.740447534541275 -0.4569999999999996 L 3.7476043519693256 -0.4569999999999996 L 3.75 -0.4569999999999996 " stroke="#191919" stroke-width="0.35 px" style="stroke-width:0.35;stroke-miterlimit:4;stroke-dasharray:none;fill:none;fill-opacity:1;fill-rule: evenodd"/>
<path id="Shape2DView_nwe0033"  d="M 3.369 -0.45700000000000046 L 2.75 -0.45700000000000124 " stroke="#191919" stroke-width="0.35 px" style="stroke-width:0.35;stroke-miterlimit:4;stroke-dasharray:none;fill:none;fill-opacity:1;fill-rule: evenodd"/>
<path id="Shape2DView_nwe0034"  d="M 4.41 -0.457 L 3.877 -0.4570000000000007 " stroke="#191919" stroke-width="0.35 px" style="stroke-width:0.35;stroke-miterlimit:4;stroke-dasharray:none;fill:none;fill-opacity:1;fill-rule: evenodd"/>
<path id="Shape2DView_nwe0035"  d="M 3.75 0.45699999999999985 L 3.750798549343558 0.45699999999999985 L 3.7531841551529084 0.45699999999999985 L 3.757126817050837 0.45699999999999985 L 3.7625769537763927 0.4569999999999999 L 3.769466026698008 0.4569999999999999 L 3.77770740172656 0.4569999999999999 L 3.7871974387893084 0.4569999999999999 L 3.7978167951639406 0.4569999999999999 L 3.809431926282552 0.45699999999999996 L 3.82189676513207 0.45699999999999996 L 3.8350545591316934 0.45699999999999996 L 3.8487398413875478 0.45699999999999996 L 3.8627805115348797 0.457 L 3.877 0.457 " stroke="#191919" stroke-width="0.35 px" style="stroke-width:0.35;stroke-miterlimit:4;stroke-dasharray:none;fill:none;fill-opacity:1;fill-rule: evenodd"/>
<path id="Shape2DView_nwe0036"  d="M 3.877 0.45700000000000046 L 4.41 0.4570000000000011 " stroke="#191919" stroke-width="0.35 px" style="stroke-width:0.35;stroke-miterlimit:4;stroke-dasharray:none;fill:none;fill-opacity:1;fill-rule: evenodd"/>
<path id="Shape2DView_nwe0037"  d="M 3.369 0.4569999999999996 L 2.75 0.4569999999999988 " stroke="#191919" stroke-width="0.35 px" style="stroke-width:0.35;stroke-miterlimit:4;stroke-dasharray:none;fill:none;fill-opacity:1;fill-rule: evenodd"/>
<path id="Shape2DView_nwe0038"  d="M 3.369 0.457 L 3.4116584653953606 0.4570000000000001 L 3.453780475837356 0.45700000000000013 L 3.494836322604919 0.4570000000000002 L 3.53430970460379 0.45700000000000024 L 3.5717042211523435 0.45700000000000024 L 3.6065496145081775 0.4570000000000003 L 3.638407683632075 0.45700000000000035 L 3.6668777948203197 0.45700000000000035 L 3.6916019199059766 0.4570000000000004 L 3.712269138670822 0.4570000000000004 L 3.7286195488474885 0.45700000000000046 L 3.740447534541275 0.45700000000000046 L 3.7476043519693256 0.45700000000000046 L 3.75 0.45700000000000046 " stroke="#191919" stroke-width="0.35 px" style="stroke-width:0.35;stroke-miterlimit:4;stroke-dasharray:none;fill:none;fill-opacity:1;fill-rule: evenodd"/>
<path id="Shape2DView_nwe0039"  d="M 2.6749999999999945 0.45699999999999985 L 2.6749999999999923 2.083 " stroke="#191919" stroke-width="0.35 px" style="stroke-width:0.35;stroke-miterlimit:4;stroke-dasharray:none;fill:none;fill-opacity:1;fill-rule: evenodd"/>
<path id="Shape2DView_nwe0040"  d="M -2.75 3.525 L -2.675 3.45 " stroke="#191919" stroke-width="0.35 px" style="stroke-width:0.35;stroke-miterlimit:4;stroke-dasharray:none;fill:none;fill-opacity:1;fill-rule: evenodd"/>
<path id="Shape2DView_nwe0041"  d="M 2.675 3.45 L -2.675 3.449999999999993 " stroke="#191919" stroke-width="0.35 px" style="stroke-width:0.35;stroke-miterlimit:4;stroke-dasharray:none;fill:none;fill-opacity:1;fill-rule: evenodd"/>
<path id="Shape2DView_nwe0042"  d="M -2.675 3.45 L -2.6749999999999994 2.997 " stroke="#191919" stroke-width="0.35 px" style="stroke-width:0.35;stroke-miterlimit:4;stroke-dasharray:none;fill:none;fill-opacity:1;fill-rule: evenodd"/>
<path id="Shape2DView_nwe0043"  d="M -3.75 2.997 L -3.750798549343558 2.997 L -3.7531841551529084 2.997 L -3.757126817050837 2.997 L -3.7625769537763927 2.997 L -3.769466026698008 2.997 L -3.77770740172656 2.997 L -3.7871974387893084 2.997 L -3.7978167951639406 2.997 L -3.809431926282552 2.997 L -3.82189676513207 2.997 L -3.8350545591316934 2.997 L -3.8487398413875478 2.997 L -3.8627805115348797 2.997 L -3.877 2.997 " stroke="#191919" stroke-width="0.35 px" style="stroke-width:0.35;stroke-miterlimit:4;stroke-dasharray:none;fill:none;fill-opacity:1;fill-rule: evenodd"/>
<path id="Shape2DView_nwe0044"  d="M -3.369 2.997 L -3.4116584653953606 2.997 L -3.453780475837356 2.997 L -3.494836322604919 2.997 L -3.53430970460379 2.997 L -3.5717042211523435 2.9969999999999994 L -3.606549614508178 2.9969999999999994 L -3.638407683632075 2.9969999999999994 L -3.6668777948203197 2.9969999999999994 L -3.6916019199059766 2.9969999999999994 L -3.712269138670822 2.9969999999999994 L -3.7286195488474885 2.9969999999999994 L -3.740447534541275 2.9969999999999994 L -3.7476043519693256 2.9969999999999994 L -3.75 2.9969999999999994 " stroke="#191919" stroke-width="0.35 px" style="stroke-width:0.35;stroke-miterlimit:4;stroke-dasharray:none;fill:none;fill-opacity:1;fill-rule: evenodd"/>
<path id="Shape2DView_nwe0045"  d="M -2.75 2.996999999999996 L -3.3690000000000007 2.9969999999999954 " stroke="#191919" stroke-width="0.35 px" style="stroke-width:0.35;stroke-miterlimit:4;stroke-dasharray:none;fill:none;fill-opacity:1;fill-rule: evenodd"/>
<path id="Shape2DView_nwe0046"  d="M -4.41 2.997 L -3.877 2.9970000000000008 " stroke="#191919" stroke-width="0.35 px" style="stroke-width:0.35;stroke-miterlimit:4;stroke-dasharray:none;fill:none;fill-opacity:1;fill-rule: evenodd"/>
<path id="Shape2DView_nwe0047"  d="M -3.75 -2.997 L -3.750798549343558 -2.997 L -3.7531841551529084 -2.997 L -3.757126817050837 -2.997 L -3.7625769537763927 -2.997 L -3.769466026698008 -2.997 L -3.77770740172656 -2.997 L -3.7871974387893084 -2.997 L -3.7978167951639406 -2.997 L -3.809431926282552 -2.997 L -3.82189676513207 -2.997 L -3.8350545591316934 -2.997 L -3.8487398413875478 -2.997 L -3.8627805115348797 -2.997 L -3.877 -2.997 " stroke="#191919" stroke-width="0.35 px" style="stroke-width:0.35;stroke-miterlimit:4;stroke-dasharray:none;fill:none;fill-opacity:1;fill-rule: evenodd"/>
<path id="Shape2DView_nwe0048"  d="M -3.877 -2.9970000000000003 L -4.41 -2.997000000000001 " stroke="#191919" stroke-width="0.35 px" style="stroke-width:0.35;stroke-miterlimit:4;stroke-dasharray:none;fill:none;fill-opacity:1;fill-rule: evenodd"/>
<path id="Shape2DView_nwe0049"  d="M -3.3689999999999998 -2.997000000000004 L -2.75 -2.997000000000003 " stroke="#191919" stroke-width="0.35 px" style="stroke-width:0.35;stroke-miterlimit:4;stroke-dasharray:none;fill:none;fill-opacity:1;fill-rule: evenodd"/>
<path id="Shape2DView_nwe0050"  d="M -3.369 -2.997 L -3.4116584653953606 -2.997 L -3.453780475837356 -2.997 L -3.494836322604919 -2.997 L -3.53430970460379 -2.997 L -3.5717042211523435 -2.9970000000000003 L -3.6065496145081775 -2.9970000000000003 L -3.638407683632075 -2.9970000000000003 L -3.6668777948203197 -2.9970000000000003 L -3.6916019199059766 -2.9970000000000003 L -3.712269138670822 -2.9970000000000003 L -3.7286195488474885 -2.9970000000000003 L -3.740447534541275 -2.9970000000000003 L -3.7476043519693256 -2.9970000000000003 L -3.75 -2.9970000000000003 " stroke="#191919" stroke-width="0.35 px" style="stroke-width:0.35;stroke-miterlimit:4;stroke-dasharray:none;fill:none;fill-opacity:1;fill-rule: evenodd"/>
<path id="Shape2DView_nwe0051"  d="M -2.75 -3.525 L -2.675 -3.45 " stroke="#191919" stroke-width="0.35 px" style="stroke-width:0.35;stroke-miterlimit:4;stroke-dasharray:none;fill:none;fill-opacity:1;fill-rule: evenodd"/>
<path id="Shape2DView_nwe0052"  d="M -2.6749999999999914 -2.997 L -2.6749999999999905 -3.45 " stroke="#191919" stroke-width="0.35 px" style="stroke-width:0.35;stroke-miterlimit:4;stroke-dasharray:none;fill:none;fill-opacity:1;fill-rule: evenodd"/>
<path id="Shape2DView_nwe0053"  d="M -3.75 2.083 L -3.750798549343558 2.083 L -3.7531841551529084 2.083 L -3.757126817050837 2.083 L -3.7625769537763927 2.083 L -3.769466026698008 2.083 L -3.77770740172656 2.083 L -3.7871974387893084 2.083 L -3.7978167951639406 2.083 L -3.809431926282552 2.083 L -3.82189676513207 2.083 L -3.8350545591316934 2.083 L -3.8487398413875478 2.083 L -3.8627805115348797 2.083 L -3.877 2.083 " stroke="#191919" stroke-width="0.35 px" style="stroke-width:0.35;stroke-miterlimit:4;stroke-dasharray:none;fill:none;fill-opacity:1;fill-rule: evenodd"/>
<path id="Shape2DView_nwe0054"  d="M -3.877 2.0829999999999997 L -4.41 2.082999999999999 " stroke="#191919" stroke-width="0.35 px" style="stroke-width:0.35;stroke-miterlimit:4;stroke-dasharray:none;fill:none;fill-opacity:1;fill-rule: evenodd"/>
<path id="Shape2DView_nwe0055"  d="M -2.75 2.082999999999992 L -3.3689999999999998 2.0829999999999917 " stroke="#191919" stroke-width="0.35 px" style="stroke-width:0.35;stroke-miterlimit:4;stroke-dasharray:none;fill:none;fill-opacity:1;fill-rule: evenodd"/>
<path id="Shape2DView_nwe0056"  d="M -3.369 2.083 L -3.4116584653953606 2.083 L -3.453780475837356 2.083 L -3.494836322604919 2.083 L -3.53430970460379 2.083 L -3.5717042211523435 2.0829999999999997 L -3.606549614508178 2.0829999999999997 L -3.638407683632075 2.0829999999999997 L -3.6668777948203197 2.0829999999999997 L -3.6916019199059766 2.0829999999999997 L -3.712269138670822 2.0829999999999997 L -3.7286195488474885 2.0829999999999997 L -3.740447534541275 2.0829999999999997 L -3.7476043519693256 2.0829999999999997 L -3.75 2.0829999999999997 " stroke="#191919" stroke-width="0.35 px" style="stroke-width:0.35;stroke-miterlimit:4;stroke-dasharray:none;fill:none;fill-opacity:1;fill-rule: evenodd"/>
<path id="Shape2DView_nwe0057"  d="M -3.75 -2.083 L -3.750798549343558 -2.083 L -3.7531841551529084 -2.083 L -3.757126817050837 -2.083 L -3.7625769537763927 -2.083 L -3.769466026698008 -2.083 L -3.77770740172656 -2.083 L -3.7871974387893084 -2.083 L -3.7978167951639406 -2.083 L -3.809431926282552 -2.083 L -3.82189676513207 -2.083 L -3.8350545591316934 -2.083 L -3.8487398413875478 -2.083 L -3.8627805115348797 -2.083 L -3.877 -2.083 " stroke="#191919" stroke-width="0.35 px" style="stroke-width:0.35;stroke-miterlimit:4;stroke-dasharray:none;fill:none;fill-opacity:1;fill-rule: evenodd"/>
<path id="Shape2DView_nwe0058"  d="M -3.369 -2.083 L -3.4116584653953606 -2.083 L -3.453780475837356 -2.083 L -3.494836322604919 -2.083 L -3.53430970460379 -2.083 L -3.5717042211523435 -2.0830000000000006 L -3.6065496145081775 -2.0830000000000006 L -3.638407683632075 -2.0830000000000006 L -3.6668777948203197 -2.0830000000000006 L -3.6916019199059766 -2.0830000000000006 L -3.712269138670822 -2.0830000000000006 L -3.7286195488474885 -2.0830000000000006 L -3.740447534541275 -2.0830000000000006 L -3.7476043519693256 -2.0830000000000006 L -3.75 -2.0830000000000006 " stroke="#191919" stroke-width="0.35 px" style="stroke-width:0.35;stroke-miterlimit:4;stroke-dasharray:none;fill:none;fill-opacity:1;fill-rule: evenodd"/>
<path id="Shape2DView_nwe0059"  d="M -3.369 -2.0829999999999997 L -2.75 -2.082999999999999 " stroke="#191919" stroke-width="0.35 px" style="stroke-width:0.35;stroke-miterlimit:4;stroke-dasharray:none;fill:none;fill-opacity:1;fill-rule: evenodd"/>
<path id="Shape2DView_nwe0060"  d="M -4.41 -2.083 L -3.877 -2.0829999999999993 " stroke="#191919" stroke-width="0.35 px" style="stroke-width:0.35;stroke-miterlimit:4;stroke-dasharray:none;fill:none;fill-opacity:1;fill-rule: evenodd"/>
<path id="Shape2DView_nwe0061"  d="M -2.674999999999998 2.083 L -2.674999999999996 0.45699999999999985 " stroke="#191919" stroke-width="0.35 px" style="stroke-width:0.35;stroke-miterlimit:4;stroke-dasharray:none;fill:none;fill-opacity:1;fill-rule: evenodd"/>
<path id="Shape2DView_nwe0062"  d="M -3.75 0.4570000000000002 L -3.750798549343558 0.4570000000000002 L -3.7531841551529084 0.4570000000000002 L -3.757126817050837 0.4570000000000002 L -3.7625769537763927 0.4570000000000002 L -3.769466026698008 0.4570000000000002 L -3.77770740172656 0.45700000000000013 L -3.7871974387893084 0.45700000000000013 L -3.7978167951639406 0.45700000000000013 L -3.809431926282552 0.45700000000000013 L -3.82189676513207 0.4570000000000001 L -3.8350545591316934 0.4570000000000001 L -3.8487398413875478 0.4570000000000001 L -3.8627805115348797 0.457 L -3.877 0.457 " stroke="#191919" stroke-width="0.35 px" style="stroke-width:0.35;stroke-miterlimit:4;stroke-dasharray:none;fill:none;fill-opacity:1;fill-rule: evenodd"/>
<path id="Shape2DView_nwe0063"  d="M -3.369 0.457 L -3.4116584653953606 0.45699999999999996 L -3.453780475837356 0.4569999999999999 L -3.494836322604919 0.45699999999999985 L -3.53430970460379 0.4569999999999998 L -3.5717042211523435 0.45699999999999974 L -3.6065496145081775 0.4569999999999997 L -3.638407683632075 0.4569999999999997 L -3.6668777948203197 0.45699999999999963 L -3.6916019199059766 0.4569999999999996 L -3.712269138670822 0.4569999999999996 L -3.7286195488474885 0.4569999999999995 L -3.740447534541275 0.4569999999999995 L -3.7476043519693256 0.4569999999999995 L -3.75 0.4569999999999995 " stroke="#191919" stroke-width="0.35 px" style="stroke-width:0.35;stroke-miterlimit:4;stroke-dasharray:none;fill:none;fill-opacity:1;fill-rule: evenodd"/>
<path id="Shape2DView_nwe0064"  d="M -3.369 0.4570000000000005 L -2.75 0.45700000000000135 " stroke="#191919" stroke-width="0.35 px" style="stroke-width:0.35;stroke-miterlimit:4;stroke-dasharray:none;fill:none;fill-opacity:1;fill-rule: evenodd"/>
<path id="Shape2DView_nwe0065"  d="M -4.41 0.457 L -3.877 0.45700000000000074 " stroke="#191919" stroke-width="0.35 px" style="stroke-width:0.35;stroke-miterlimit:4;stroke-dasharray:none;fill:none;fill-opacity:1;fill-rule: evenodd"/>
<path id="Shape2DView_nwe0066"  d="M -3.75 -0.45699999999999985 L -3.750798549343558 -0.45699999999999985 L -3.7531841551529084 -0.45699999999999985 L -3.757126817050837 -0.45699999999999985 L -3.7625769537763927 -0.45699999999999985 L -3.769466026698008 -0.45699999999999985 L -3.77770740172656 -0.4569999999999999 L -3.7871974387893084 -0.4569999999999999 L -3.7978167951639406 -0.4569999999999999 L -3.809431926282552 -0.4569999999999999 L -3.82189676513207 -0.45699999999999996 L -3.8350545591316934 -0.45699999999999996 L -3.8487398413875478 -0.45699999999999996 L -3.8627805115348797 -0.457 L -3.877 -0.457 " stroke="#191919" stroke-width="0.35 px" style="stroke-width:0.35;stroke-miterlimit:4;stroke-dasharray:none;fill:none;fill-opacity:1;fill-rule: evenodd"/>
<path id="Shape2DView_nwe0067"  d="M -3.877 -0.4570000000000005 L -4.41 -0.45700000000000124 " stroke="#191919" stroke-width="0.35 px" style="stroke-width:0.35;stroke-miterlimit:4;stroke-dasharray:none;fill:none;fill-opacity:1;fill-rule: evenodd"/>
<path id="Shape2DView_nwe0068"  d="M -3.369 -0.4569999999999995 L -2.75 -0.4569999999999987 " stroke="#191919" stroke-width="0.35 px" style="stroke-width:0.35;stroke-miterlimit:4;stroke-dasharray:none;fill:none;fill-opacity:1;fill-rule: evenodd"/>
<path id="Shape2DView_nwe0069"  d="M -3.369 -0.457 L -3.4116584653953606 -0.4570000000000001 L -3.453780475837356 -0.45700000000000013 L -3.494836322604919 -0.4570000000000002 L -3.53430970460379 -0.45700000000000024 L -3.5717042211523435 -0.4570000000000003 L -3.6065496145081775 -0.45700000000000035 L -3.638407683632075 -0.45700000000000035 L -3.6668777948203197 -0.4570000000000004 L -3.6916019199059766 -0.45700000000000046 L -3.712269138670822 -0.45700000000000046 L -3.7286195488474885 -0.4570000000000005 L -3.740447534541275 -0.4570000000000005 L -3.7476043519693256 -0.4570000000000005 L -3.75 -0.4570000000000005 " stroke="#191919" stroke-width="0.35 px" style="stroke-width:0.35;stroke-miterlimit:4;stroke-dasharray:none;fill:none;fill-opacity:1;fill-rule: evenodd"/>
<path id="Shape2DView_nwe0070"  d="M -2.6749999999999945 -0.45699999999999985 L -2.6749999999999923 -2.083 " stroke="#191919" stroke-width="0.35 px" style="stroke-width:0.35;stroke-miterlimit:4;stroke-dasharray:none;fill:none;fill-opacity:1;fill-rule: evenodd"/>
<path id="Shape2DView_nwe0071"  d="M -2.675 -3.45 L 2.675 -3.449999999999993 " stroke="#191919" stroke-width="0.35 px" style="stroke-width:0.35;stroke-miterlimit:4;stroke-dasharray:none;fill:none;fill-opacity:1;fill-rule: evenodd"/>
<path id="Shape2DView_nwe0072"  d="M 2.6749999999999994 -2.997 L 2.674999999999998 -2.083 " stroke="#191919" stroke-width="0.35 px" style="stroke-width:0.35;stroke-miterlimit:4;stroke-dasharray:none;fill:none;fill-opacity:1;fill-rule: evenodd"/>
<path id="Shape2DView_nwe0073"  d="M 2.674999999999996 -0.45699999999999985 L 2.6749999999999945 0.45699999999999985 " stroke="#191919" stroke-width="0.35 px" style="stroke-width:0.35;stroke-miterlimit:4;stroke-dasharray:none;fill:none;fill-opacity:1;fill-rule: evenodd"/>
<path id="Shape2DView_nwe0074"  d="M 2.6749999999999923 2.083 L 2.6749999999999914 2.997 " stroke="#191919" stroke-width="0.35 px" style="stroke-width:0.35;stroke-miterlimit:4;stroke-dasharray:none;fill:none;fill-opacity:1;fill-rule: evenodd"/>
<path id="Shape2DView_nwe0075"  d="M 2.675 3.45 L 2.351276356577 3.126276356577 " stroke="#191919" stroke-width="0.35 px" style="stroke-width:0.35;stroke-miterlimit:4;stroke-dasharray:none;fill:none;fill-opacity:1;fill-rule: evenodd"/>
<path id="Shape2DView_nwe0076"  d="M 2.351276356577 -3.126276356577 L 2.3512763565769914 3.126276356577 " stroke="#191919" stroke-width="0.35 px" style="stroke-width:0.35;stroke-miterlimit:4;stroke-dasharray:none;fill:none;fill-opacity:1;fill-rule: evenodd"/>
<path id="Shape2DView_nwe0077"  d="M 2.675 -3.45 L 2.351276356577 -3.126276356577 " stroke="#191919" stroke-width="0.35 px" style="stroke-width:0.35;stroke-miterlimit:4;stroke-dasharray:none;fill:none;fill-opacity:1;fill-rule: evenodd"/>
<path id="Shape2DView_nwe0078"  d="M 2.749999999999999 -2.997 L 2.7499999999999982 -2.083 " stroke="#191919" stroke-width="0.35 px" style="stroke-width:0.35;stroke-miterlimit:4;stroke-dasharray:none;fill:none;fill-opacity:1;fill-rule: evenodd"/>
<path id="Shape2DView_nwe0079"  d="M 3.75 -2.083 L 3.750000000000001 -2.997 " stroke="#191919" stroke-width="0.35 px" style="stroke-width:0.35;stroke-miterlimit:4;stroke-dasharray:none;fill:none;fill-opacity:1;fill-rule: evenodd"/>
<path id="Shape2DView_nwe0080"  d="M 4.41 -2.083 L 4.410000000000001 -2.997 " stroke="#191919" stroke-width="0.35 px" style="stroke-width:0.35;stroke-miterlimit:4;stroke-dasharray:none;fill:none;fill-opacity:1;fill-rule: evenodd"/>
<path id="Shape2DView_nwe0081"  d="M 4.41 2.997 L 4.410000000000001 2.083 " stroke="#191919" stroke-width="0.35 px" style="stroke-width:0.35;stroke-miterlimit:4;stroke-dasharray:none;fill:none;fill-opacity:1;fill-rule: evenodd"/>
<path id="Shape2DView_nwe0082"  d="M 3.75 2.083 L 3.749999999999999 2.997 " stroke="#191919" stroke-width="0.35 px" style="stroke-width:0.35;stroke-miterlimit:4;stroke-dasharray:none;fill:none;fill-opacity:1;fill-rule: evenodd"/>
<path id="Shape2DView_nwe0083"  d="M 2.7499999999999925 2.0830000000000006 L 2.749999999999991 2.9970000000000003 " stroke="#191919" stroke-width="0.35 px" style="stroke-width:0.35;stroke-miterlimit:4;stroke-dasharray:none;fill:none;fill-opacity:1;fill-rule: evenodd"/>
<path id="Shape2DView_nwe0084"  d="M 2.749999999999996 -0.45699999999999985 L 2.7499999999999947 0.45699999999999985 " stroke="#191919" stroke-width="0.35 px" style="stroke-width:0.35;stroke-miterlimit:4;stroke-dasharray:none;fill:none;fill-opacity:1;fill-rule: evenodd"/>
<path id="Shape2DView_nwe0085"  d="M 4.41 0.457 L 4.410000000000001 -0.457 " stroke="#191919" stroke-width="0.35 px" style="stroke-width:0.35;stroke-miterlimit:4;stroke-dasharray:none;fill:none;fill-opacity:1;fill-rule: evenodd"/>
<path id="Shape2DView_nwe0086"  d="M 3.75 -0.457 L 3.749999999999999 0.457 " stroke="#191919" stroke-width="0.35 px" style="stroke-width:0.35;stroke-miterlimit:4;stroke-dasharray:none;fill:none;fill-opacity:1;fill-rule: evenodd"/>
<path id="Shape2DView_nwe0087"  d="M -2.675 3.45 L -2.351276356577 3.126276356577 " stroke="#191919" stroke-width="0.35 px" style="stroke-width:0.35;stroke-miterlimit:4;stroke-dasharray:none;fill:none;fill-opacity:1;fill-rule: evenodd"/>
<path id="Shape2DView_nwe0088"  d="M -0.7462405778300001 3.126276356576996 L -2.351276356577 3.126276356576994 " stroke="#191919" stroke-width="0.35 px" style="stroke-width:0.35;stroke-miterlimit:4;stroke-dasharray:none;fill:none;fill-opacity:1;fill-rule: evenodd"/>
<path id="Shape2DView_nwe0089"  d="M -0.7493474955903636 3.2325546374111025 L -0.7462405778300001 3.126276356577 " stroke="#191919" stroke-width="0.35 px" style="stroke-width:0.35;stroke-miterlimit:4;stroke-dasharray:none;fill:none;fill-opacity:1;fill-rule: evenodd"/>
<path id="Shape2DView_nwe0090"  d="M -0.749347495591 3.232554637412 L 0.749347495591 3.232554637412 " stroke="#191919" stroke-width="0.35 px" style="stroke-width:0.35;stroke-miterlimit:4;stroke-dasharray:none;fill:none;fill-opacity:1;fill-rule: evenodd"/>
<path id="Shape2DView_nwe0091"  d="M 0.7493474955903656 3.2325546374120586 L 0.7462405778299999 3.1262763565770006 " stroke="#191919" stroke-width="0.35 px" style="stroke-width:0.35;stroke-miterlimit:4;stroke-dasharray:none;fill:none;fill-opacity:1;fill-rule: evenodd"/>
<path id="Shape2DView_nwe0092"  d="M 2.351276356577 3.126276356577 L 0.7462405778300001 3.126276356576998 " stroke="#191919" stroke-width="0.35 px" style="stroke-width:0.35;stroke-miterlimit:4;stroke-dasharray:none;fill:none;fill-opacity:1;fill-rule: evenodd"/>
<path id="Shape2DView_nwe0093"  d="M -2.6749999999999994 2.997 L -2.674999999999998 2.083 " stroke="#191919" stroke-width="0.35 px" style="stroke-width:0.35;stroke-miterlimit:4;stroke-dasharray:none;fill:none;fill-opacity:1;fill-rule: evenodd"/>
<path id="Shape2DView_nwe0094"  d="M -2.674999999999996 0.45699999999999985 L -2.6749999999999945 -0.45699999999999985 " stroke="#191919" stroke-width="0.35 px" style="stroke-width:0.35;stroke-miterlimit:4;stroke-dasharray:none;fill:none;fill-opacity:1;fill-rule: evenodd"/>
<path id="Shape2DView_nwe0095"  d="M -2.6749999999999923 -2.083 L -2.6749999999999914 -2.997 " stroke="#191919" stroke-width="0.35 px" style="stroke-width:0.35;stroke-miterlimit:4;stroke-dasharray:none;fill:none;fill-opacity:1;fill-rule: evenodd"/>
<path id="Shape2DView_nwe0096"  d="M -2.675 -3.45 L -2.351276356577 -3.126276356577 " stroke="#191919" stroke-width="0.35 px" style="stroke-width:0.35;stroke-miterlimit:4;stroke-dasharray:none;fill:none;fill-opacity:1;fill-rule: evenodd"/>
<path id="Shape2DView_nwe0097"  d="M -2.351276356577 3.126276356577 L -2.3512763565769914 -3.126276356577 " stroke="#191919" stroke-width="0.35 px" style="stroke-width:0.35;stroke-miterlimit:4;stroke-dasharray:none;fill:none;fill-opacity:1;fill-rule: evenodd"/>
<path id="Shape2DView_nwe0098"  d="M -2.749999999999999 2.997 L -2.7499999999999982 2.083 " stroke="#191919" stroke-width="0.35 px" style="stroke-width:0.35;stroke-miterlimit:4;stroke-dasharray:none;fill:none;fill-opacity:1;fill-rule: evenodd"/>
<path id="Shape2DView_nwe0099"  d="M -4.41 2.083 L -4.410000000000001 2.997 " stroke="#191919" stroke-width="0.35 px" style="stroke-width:0.35;stroke-miterlimit:4;stroke-dasharray:none;fill:none;fill-opacity:1;fill-rule: evenodd"/>
<path id="Shape2DView_nwe0100"  d="M -3.75 2.083 L -3.7500000000000013 2.997 " stroke="#191919" stroke-width="0.35 px" style="stroke-width:0.35;stroke-miterlimit:4;stroke-dasharray:none;fill:none;fill-opacity:1;fill-rule: evenodd"/>
<path id="Shape2DView_nwe0101"  d="M -3.75 -2.083 L -3.7499999999999987 -2.997 " stroke="#191919" stroke-width="0.35 px" style="stroke-width:0.35;stroke-miterlimit:4;stroke-dasharray:none;fill:none;fill-opacity:1;fill-rule: evenodd"/>
<path id="Shape2DView_nwe0102"  d="M -2.7499999999999925 -2.0830000000000006 L -2.749999999999991 -2.9970000000000003 " stroke="#191919" stroke-width="0.35 px" style="stroke-width:0.35;stroke-miterlimit:4;stroke-dasharray:none;fill:none;fill-opacity:1;fill-rule: evenodd"/>
<path id="Shape2DView_nwe0103"  d="M -4.41 -2.997 L -4.410000000000001 -2.083 " stroke="#191919" stroke-width="0.35 px" style="stroke-width:0.35;stroke-miterlimit:4;stroke-dasharray:none;fill:none;fill-opacity:1;fill-rule: evenodd"/>
<path id="Shape2DView_nwe0104"  d="M -2.749999999999996 0.45699999999999985 L -2.7499999999999947 -0.45699999999999985 " stroke="#191919" stroke-width="0.35 px" style="stroke-width:0.35;stroke-miterlimit:4;stroke-dasharray:none;fill:none;fill-opacity:1;fill-rule: evenodd"/>
<path id="Shape2DView_nwe0105"  d="M -4.41 -0.457 L -4.410000000000001 0.457 " stroke="#191919" stroke-width="0.35 px" style="stroke-width:0.35;stroke-miterlimit:4;stroke-dasharray:none;fill:none;fill-opacity:1;fill-rule: evenodd"/>
<path id="Shape2DView_nwe0106"  d="M -3.75 0.457 L -3.7499999999999987 -0.457 " stroke="#191919" stroke-width="0.35 px" style="stroke-width:0.35;stroke-miterlimit:4;stroke-dasharray:none;fill:none;fill-opacity:1;fill-rule: evenodd"/>
<path id="Shape2DView_nwe0107"  d="M -2.351276356577 -3.126276356577 L 2.351276356577 -3.126276356576994 " stroke="#191919" stroke-width="0.35 px" style="stroke-width:0.35;stroke-miterlimit:4;stroke-dasharray:none;fill:none;fill-opacity:1;fill-rule: evenodd"/>
<path id="Shape2DView_nwe0108"  d="M -7.6033233120415e-15 2.451276356577 A 0.75 0.75 0 0 0 -0.746241 3.12628" stroke="#191919" stroke-width="0.35 px" style="stroke-width:0.35;stroke-miterlimit:4;stroke-dasharray:none;fill:none;fill-opacity:1;fill-rule: evenodd"/>
<path id="Shape2DView_nwe0109"  d="M 0.746240577829957 3.126276356577005 A 0.75 0.75 0 0 0 -7.41963e-15 2.45128" stroke="#191919" stroke-width="0.35 px" style="stroke-width:0.35;stroke-miterlimit:4;stroke-dasharray:none;fill:none;fill-opacity:1;fill-rule: evenodd"/>
<path id="Shape2DView_nwe0110"  d="M -0.7462405778299732 3.126276356576996 A 0.75 0.75 0 0 0 -0.749347 3.23255" stroke="#191919" stroke-width="0.35 px" style="stroke-width:0.35;stroke-miterlimit:4;stroke-dasharray:none;fill:none;fill-opacity:1;fill-rule: evenodd"/>
<path id="Shape2DView_nwe0111"  d="M 0.7493474955906605 3.232554637411986 A 0.75 0.75 0 0 0 0.746241 3.12628" stroke="#191919" stroke-width="0.35 px" style="stroke-width:0.35;stroke-miterlimit:4;stroke-dasharray:none;fill:none;fill-opacity:1;fill-rule: evenodd"/>
<path id="Shape2DView_nwe0112"  d="M 3.369 -2.083 L 3.369000000000001 -2.997 " stroke="#191919" stroke-width="0.35 px" style="stroke-width:0.35;stroke-miterlimit:4;stroke-dasharray:none;fill:none;fill-opacity:1;fill-rule: evenodd"/>
<path id="Shape2DView_nwe0113"  d="M 3.877 -2.997 L 3.876999999999999 -2.083 " stroke="#191919" stroke-width="0.35 px" style="stroke-width:0.35;stroke-miterlimit:4;stroke-dasharray:none;fill:none;fill-opacity:1;fill-rule: evenodd"/>
<path id="Shape2DView_nwe0114"  d="M 3.877 2.083 L 3.876999999999999 2.997 " stroke="#191919" stroke-width="0.35 px" style="stroke-width:0.35;stroke-miterlimit:4;stroke-dasharray:none;fill:none;fill-opacity:1;fill-rule: evenodd"/>
<path id="Shape2DView_nwe0115"  d="M 3.369 2.083 L 3.3689999999999993 2.997 " stroke="#191919" stroke-width="0.35 px" style="stroke-width:0.35;stroke-miterlimit:4;stroke-dasharray:none;fill:none;fill-opacity:1;fill-rule: evenodd"/>
<path id="Shape2DView_nwe0116"  d="M 3.877 -0.457 L 3.876999999999999 0.457 " stroke="#191919" stroke-width="0.35 px" style="stroke-width:0.35;stroke-miterlimit:4;stroke-dasharray:none;fill:none;fill-opacity:1;fill-rule: evenodd"/>
<path id="Shape2DView_nwe0117"  d="M 3.369 -0.457 L 3.3689999999999993 0.457 " stroke="#191919" stroke-width="0.35 px" style="stroke-width:0.35;stroke-miterlimit:4;stroke-dasharray:none;fill:none;fill-opacity:1;fill-rule: evenodd"/>
<path id="Shape2DView_nwe0118"  d="M -3.877 2.997 L -3.8769999999999984 2.083 " stroke="#191919" stroke-width="0.35 px" style="stroke-width:0.35;stroke-miterlimit:4;stroke-dasharray:none;fill:none;fill-opacity:1;fill-rule: evenodd"/>
<path id="Shape2DView_nwe0119"  d="M -3.369 2.083 L -3.3690000000000015 2.997 " stroke="#191919" stroke-width="0.35 px" style="stroke-width:0.35;stroke-miterlimit:4;stroke-dasharray:none;fill:none;fill-opacity:1;fill-rule: evenodd"/>
<path id="Shape2DView_nwe0120"  d="M -3.369 -2.083 L -3.368999999999999 -2.997 " stroke="#191919" stroke-width="0.35 px" style="stroke-width:0.35;stroke-miterlimit:4;stroke-dasharray:none;fill:none;fill-opacity:1;fill-rule: evenodd"/>
<path id="Shape2DView_nwe0121"  d="M -3.877 -2.083 L -3.8769999999999984 -2.997 " stroke="#191919" stroke-width="0.35 px" style="stroke-width:0.35;stroke-miterlimit:4;stroke-dasharray:none;fill:none;fill-opacity:1;fill-rule: evenodd"/>
<path id="Shape2DView_nwe0122"  d="M -3.877 0.457 L -3.8769999999999984 -0.457 " stroke="#191919" stroke-width="0.35 px" style="stroke-width:0.35;stroke-miterlimit:4;stroke-dasharray:none;fill:none;fill-opacity:1;fill-rule: evenodd"/>
<path id="Shape2DView_nwe0123"  d="M -3.369 0.457 L -3.368999999999999 -0.457 " stroke="#191919" stroke-width="0.35 px" style="stroke-width:0.35;stroke-miterlimit:4;stroke-dasharray:none;fill:none;fill-opacity:1;fill-rule: evenodd"/>
<path id="Shape2DView_nwe0124"  d="M 2.675 -2.9969999999999963 L 2.75 -2.9969999999999963 " stroke="#191919" stroke-width="0.35 px" style="stroke-width:0.35;stroke-miterlimit:4;stroke-dasharray:none;fill:none;fill-opacity:1;fill-rule: evenodd"/>
<path id="Shape2DView_nwe0125"  d="M 2.75 2.9970000000000034 L 2.675 2.9970000000000034 " stroke="#191919" stroke-width="0.35 px" style="stroke-width:0.35;stroke-miterlimit:4;stroke-dasharray:none;fill:none;fill-opacity:1;fill-rule: evenodd"/>
<path id="Shape2DView_nwe0126"  d="M 2.675 -2.0829999999999917 L 2.75 -2.0829999999999917 " stroke="#191919" stroke-width="0.35 px" style="stroke-width:0.35;stroke-miterlimit:4;stroke-dasharray:none;fill:none;fill-opacity:1;fill-rule: evenodd"/>
<path id="Shape2DView_nwe0127"  d="M 2.75 -0.45700000000000124 L 2.675 -0.4570000000000013 " stroke="#191919" stroke-width="0.35 px" style="stroke-width:0.35;stroke-miterlimit:4;stroke-dasharray:none;fill:none;fill-opacity:1;fill-rule: evenodd"/>
<path id="Shape2DView_nwe0128"  d="M 2.75 0.4569999999999988 L 2.675 0.45699999999999874 " stroke="#191919" stroke-width="0.35 px" style="stroke-width:0.35;stroke-miterlimit:4;stroke-dasharray:none;fill:none;fill-opacity:1;fill-rule: evenodd"/>
<path id="Shape2DView_nwe0129"  d="M 2.75 2.082999999999999 L 2.675 2.082999999999999 " stroke="#191919" stroke-width="0.35 px" style="stroke-width:0.35;stroke-miterlimit:4;stroke-dasharray:none;fill:none;fill-opacity:1;fill-rule: evenodd"/>
<path id="Shape2DView_nwe0130"  d="M -2.675 2.9969999999999963 L -2.75 2.996999999999996 " stroke="#191919" stroke-width="0.35 px" style="stroke-width:0.35;stroke-miterlimit:4;stroke-dasharray:none;fill:none;fill-opacity:1;fill-rule: evenodd"/>
<path id="Shape2DView_nwe0131"  d="M -2.75 -2.997000000000003 L -2.675 -2.997000000000003 " stroke="#191919" stroke-width="0.35 px" style="stroke-width:0.35;stroke-miterlimit:4;stroke-dasharray:none;fill:none;fill-opacity:1;fill-rule: evenodd"/>
<path id="Shape2DView_nwe0132"  d="M -2.675 2.082999999999992 L -2.75 2.082999999999992 " stroke="#191919" stroke-width="0.35 px" style="stroke-width:0.35;stroke-miterlimit:4;stroke-dasharray:none;fill:none;fill-opacity:1;fill-rule: evenodd"/>
<path id="Shape2DView_nwe0133"  d="M -2.75 0.45700000000000135 L -2.675 0.45700000000000146 " stroke="#191919" stroke-width="0.35 px" style="stroke-width:0.35;stroke-miterlimit:4;stroke-dasharray:none;fill:none;fill-opacity:1;fill-rule: evenodd"/>
<path id="Shape2DView_nwe0134"  d="M -2.75 -0.4569999999999987 L -2.675 -0.4569999999999986 " stroke="#191919" stroke-width="0.35 px" style="stroke-width:0.35;stroke-miterlimit:4;stroke-dasharray:none;fill:none;fill-opacity:1;fill-rule: evenodd"/>
<path id="Shape2DView_nwe0135"  d="M -2.75 -2.082999999999999 L -2.675 -2.082999999999999 " stroke="#191919" stroke-width="0.35 px" style="stroke-width:0.35;stroke-miterlimit:4;stroke-dasharray:none;fill:none;fill-opacity:1;fill-rule: evenodd"/>
<title>b'Shape2DView'</title>
</g>
<g id="Rectangle" transform="translate(4.498200,3.613200) scale(1,-1)">
<rect fill="#ff0000" id="origin" width="1" height="1" x="0" y="0" />
<title>b'Rectangle'</title>
</g>
</svg>