<?xml version="1.0"?>
<!DOCTYPE svg PUBLIC "-//W3C//DTD SVG 1.1//EN" "http://www.w3.org/Graphics/SVG/1.1/DTD/svg11.dtd">
<svg width="11.546400000000002mm" height="15.4664mm" viewBox="0 0 11.546400000000002 15.4664" xmlns="http://www.w3.org/2000/svg" version="1.1">
<g id="Shape2DView" transform="translate(5.773200,7.733200) scale(1,-1)">
<path id="Shape2DView_nwe0000"  d="M 3.5 -7.62 L 3.499999999999999 -6.807 " stroke="#191919" stroke-width="0.35 px" style="stroke-width:0.35;stroke-miterlimit:4;stroke-dasharray:none;fill:none;fill-opacity:1;fill-rule: evenodd"/>
<path id="Shape2DView_nwe0001"  d="M 3.499999999999981 6.8069999999999995 L 3.4999999999999796 7.62 " stroke="#191919" stroke-width="0.35 px" style="stroke-width:0.35;stroke-miterlimit:4;stroke-dasharray:none;fill:none;fill-opacity:1;fill-rule: evenodd"/>
<path id="Shape2DView_nwe0002"  d="M 3.499999999999998 -5.893 L 3.4999999999999956 -4.267 " stroke="#191919" stroke-width="0.35 px" style="stroke-width:0.35;stroke-miterlimit:4;stroke-dasharray:none;fill:none;fill-opacity:1;fill-rule: evenodd"/>
<path id="Shape2DView_nwe0003"  d="M 3.499999999999984 4.267 L 3.499999999999982 5.893 " stroke="#191919" stroke-width="0.35 px" style="stroke-width:0.35;stroke-miterlimit:4;stroke-dasharray:none;fill:none;fill-opacity:1;fill-rule: evenodd"/>
<path id="Shape2DView_nwe0004"  d="M 3.4999999999999942 -3.3530000000000006 L 3.499999999999992 -1.7270000000000003 " stroke="#191919" stroke-width="0.35 px" style="stroke-width:0.35;stroke-miterlimit:4;stroke-dasharray:none;fill:none;fill-opacity:1;fill-rule: evenodd"/>
<path id="Shape2DView_nwe0005"  d="M 3.4999999999999876 1.7269999999999994 L 3.4999999999999853 3.3530000000000006 " stroke="#191919" stroke-width="0.35 px" style="stroke-width:0.35;stroke-miterlimit:4;stroke-dasharray:none;fill:none;fill-opacity:1;fill-rule: evenodd"/>
<path id="Shape2DView_nwe0006"  d="M 3.499999999999991 -0.8129999999999997 L 3.499999999999989 0.8129999999999997 " stroke="#191919" stroke-width="0.35 px" style="stroke-width:0.35;stroke-miterlimit:4;stroke-dasharray:none;fill:none;fill-opacity:1;fill-rule: evenodd"/>
<path id="Shape2DView_nwe0007"  d="M 3.5 7.62 L -3.5 7.619999999999991 " stroke="#191919" stroke-width="0.35 px" style="stroke-width:0.35;stroke-miterlimit:4;stroke-dasharray:none;fill:none;fill-opacity:1;fill-rule: evenodd"/>
<path id="Shape2DView_nwe0008"  d="M -3.5 7.62 L -3.499999999999999 6.807 " stroke="#191919" stroke-width="0.35 px" style="stroke-width:0.35;stroke-miterlimit:4;stroke-dasharray:none;fill:none;fill-opacity:1;fill-rule: evenodd"/>
<path id="Shape2DView_nwe0009"  d="M -3.499999999999981 -6.8069999999999995 L -3.4999999999999796 -7.62 " stroke="#191919" stroke-width="0.35 px" style="stroke-width:0.35;stroke-miterlimit:4;stroke-dasharray:none;fill:none;fill-opacity:1;fill-rule: evenodd"/>
<path id="Shape2DView_nwe0010"  d="M -3.499999999999998 5.893 L -3.4999999999999956 4.267 " stroke="#191919" stroke-width="0.35 px" style="stroke-width:0.35;stroke-miterlimit:4;stroke-dasharray:none;fill:none;fill-opacity:1;fill-rule: evenodd"/>
<path id="Shape2DView_nwe0011"  d="M -3.499999999999984 -4.267 L -3.499999999999982 -5.893 " stroke="#191919" stroke-width="0.35 px" style="stroke-width:0.35;stroke-miterlimit:4;stroke-dasharray:none;fill:none;fill-opacity:1;fill-rule: evenodd"/>
<path id="Shape2DView_nwe0012"  d="M -3.4999999999999942 3.3530000000000006 L -3.499999999999992 1.7270000000000003 " stroke="#191919" stroke-width="0.35 px" style="stroke-width:0.35;stroke-miterlimit:4;stroke-dasharray:none;fill:none;fill-opacity:1;fill-rule: evenodd"/>
<path id="Shape2DView_nwe0013"  d="M -3.4999999999999876 -1.7269999999999994 L -3.4999999999999853 -3.3530000000000006 " stroke="#191919" stroke-width="0.35 px" style="stroke-width:0.35;stroke-miterlimit:4;stroke-dasharray:none;fill:none;fill-opacity:1;fill-rule: evenodd"/>
<path id="Shape2DView_nwe0014"  d="M -3.499999999999991 0.8129999999999997 L -3.499999999999989 -0.8129999999999997 " stroke="#191919" stroke-width="0.35 px" style="stroke-width:0.35;stroke-miterlimit:4;stroke-dasharray:none;fill:none;fill-opacity:1;fill-rule: evenodd"/>
<path id="Shape2DView_nwe0015"  d="M -3.5 -7.62 L 3.5 -7.619999999999991 " stroke="#191919" stroke-width="0.35 px" style="stroke-width:0.35;stroke-miterlimit:4;stroke-dasharray:none;fill:none;fill-opacity:1;fill-rule: evenodd"/>
<path id="Shape2DView_nwe0016"  d="M 3.5 -7.62 L 3.425 -7.545 " stroke="#191919" stroke-width="0.35 px" style="stroke-width:0.35;stroke-miterlimit:4;stroke-dasharray:none;fill:none;fill-opacity:1;fill-rule: evenodd"/>
<path id="Shape2DView_nwe0017"  d="M 3.425 -7.545 L 3.424999999999999 -6.807 " stroke="#191919" stroke-width="0.35 px" style="stroke-width:0.35;stroke-miterlimit:4;stroke-dasharray:none;fill:none;fill-opacity:1;fill-rule: evenodd"/>
<path id="Shape2DView_nwe0018"  d="M 5.0 -6.807 L 5.000798549343558 -6.807 L 5.003184155152908 -6.807 L 5.007126817050837 -6.807 L 5.012576953776392 -6.807 L 5.019466026698008 -6.807 L 5.02770740172656 -6.807 L 5.037197438789308 -6.807 L 5.047816795163941 -6.807 L 5.059431926282552 -6.807 L 5.07189676513207 -6.807 L 5.085054559131693 -6.807 L 5.098739841387548 -6.807 L 5.11278051153488 -6.807 L 5.127 -6.807 " stroke="#191919" stroke-width="0.35 px" style="stroke-width:0.35;stroke-miterlimit:4;stroke-dasharray:none;fill:none;fill-opacity:1;fill-rule: evenodd"/>
<path id="Shape2DView_nwe0019"  d="M 4.619 -6.807 L 4.66165846539536 -6.807 L 4.703780475837355 -6.807 L 4.744836322604918 -6.807 L 4.784309704603789 -6.807 L 4.821704221152343 -6.807 L 4.856549614508177 -6.807 L 4.8884076836320745 -6.807 L 4.916877794820319 -6.807 L 4.941601919905976 -6.807 L 4.9622691386708215 -6.807 L 4.978619548847488 -6.807 L 4.990447534541275 -6.8069999999999995 L 4.997604351969326 -6.8069999999999995 L 5.0 -6.8069999999999995 " stroke="#191919" stroke-width="0.35 px" style="stroke-width:0.35;stroke-miterlimit:4;stroke-dasharray:none;fill:none;fill-opacity:1;fill-rule: evenodd"/>
<path id="Shape2DView_nwe0020"  d="M 3.5 -6.806999999999996 L 4.619 -6.806999999999995 " stroke="#191919" stroke-width="0.35 px" style="stroke-width:0.35;stroke-miterlimit:4;stroke-dasharray:none;fill:none;fill-opacity:1;fill-rule: evenodd"/>
<path id="Shape2DView_nwe0021"  d="M 5.66 -6.807 L 5.127 -6.807000000000001 " stroke="#191919" stroke-width="0.35 px" style="stroke-width:0.35;stroke-miterlimit:4;stroke-dasharray:none;fill:none;fill-opacity:1;fill-rule: evenodd"/>
<path id="Shape2DView_nwe0022"  d="M 5.0 6.807 L 5.000798549343558 6.807 L 5.003184155152908 6.807 L 5.007126817050837 6.807 L 5.012576953776392 6.807 L 5.019466026698008 6.807 L 5.02770740172656 6.807 L 5.037197438789308 6.807 L 5.047816795163941 6.807 L 5.059431926282552 6.807 L 5.07189676513207 6.807 L 5.085054559131693 6.807 L 5.098739841387548 6.807 L 5.11278051153488 6.807 L 5.127 6.807 " stroke="#191919" stroke-width="0.35 px" style="stroke-width:0.35;stroke-miterlimit:4;stroke-dasharray:none;fill:none;fill-opacity:1;fill-rule: evenodd"/>
<path id="Shape2DView_nwe0023"  d="M 5.127 6.807000000000001 L 5.66 6.807000000000001 " stroke="#191919" stroke-width="0.35 px" style="stroke-width:0.35;stroke-miterlimit:4;stroke-dasharray:none;fill:none;fill-opacity:1;fill-rule: evenodd"/>
<path id="Shape2DView_nwe0024"  d="M 4.619 6.8069999999999995 L 3.5 6.806999999999999 " stroke="#191919" stroke-width="0.35 px" style="stroke-width:0.35;stroke-miterlimit:4;stroke-dasharray:none;fill:none;fill-opacity:1;fill-rule: evenodd"/>
<path id="Shape2DView_nwe0025"  d="M 4.619 6.807 L 4.66165846539536 6.807 L 4.703780475837355 6.807 L 4.744836322604918 6.807 L 4.784309704603789 6.807 L 4.821704221152343 6.807 L 4.856549614508177 6.807 L 4.8884076836320745 6.807 L 4.916877794820319 6.807 L 4.941601919905976 6.807 L 4.9622691386708215 6.807 L 4.978619548847488 6.807 L 4.990447534541275 6.807000000000001 L 4.997604351969326 6.807000000000001 L 5.0 6.807000000000001 " stroke="#191919" stroke-width="0.35 px" style="stroke-width:0.35;stroke-miterlimit:4;stroke-dasharray:none;fill:none;fill-opacity:1;fill-rule: evenodd"/>
<path id="Shape2DView_nwe0026"  d="M 3.5 7.62 L 3.425 7.545 " stroke="#191919" stroke-width="0.35 px" style="stroke-width:0.35;stroke-miterlimit:4;stroke-dasharray:none;fill:none;fill-opacity:1;fill-rule: evenodd"/>
<path id="Shape2DView_nwe0027"  d="M 3.4249999999999807 6.807 L 3.42499999999998 7.545 " stroke="#191919" stroke-width="0.35 px" style="stroke-width:0.35;stroke-miterlimit:4;stroke-dasharray:none;fill:none;fill-opacity:1;fill-rule: evenodd"/>
<path id="Shape2DView_nwe0028"  d="M 5.0 -5.893 L 5.000798549343558 -5.893 L 5.003184155152908 -5.893 L 5.007126817050837 -5.893 L 5.012576953776392 -5.893 L 5.019466026698008 -5.893 L 5.02770740172656 -5.893 L 5.037197438789308 -5.893 L 5.047816795163941 -5.893 L 5.059431926282552 -5.893 L 5.07189676513207 -5.893 L 5.085054559131693 -5.893 L 5.098739841387548 -5.893 L 5.11278051153488 -5.893 L 5.127 -5.893 " stroke="#191919" stroke-width="0.35 px" style="stroke-width:0.35;stroke-miterlimit:4;stroke-dasharray:none;fill:none;fill-opacity:1;fill-rule: evenodd"/>
<path id="Shape2DView_nwe0029"  d="M 5.127 -5.892999999999999 L 5.66 -5.892999999999999 " stroke="#191919" stroke-width="0.35 px" style="stroke-width:0.35;stroke-miterlimit:4;stroke-dasharray:none;fill:none;fill-opacity:1;fill-rule: evenodd"/>
<path id="Shape2DView_nwe0030"  d="M 4.619 -5.893 L 3.5 -5.893000000000002 " stroke="#191919" stroke-width="0.35 px" style="stroke-width:0.35;stroke-miterlimit:4;stroke-dasharray:none;fill:none;fill-opacity:1;fill-rule: evenodd"/>
<path id="Shape2DView_nwe0031"  d="M 4.619 -5.893 L 4.66165846539536 -5.893 L 4.703780475837355 -5.893 L 4.744836322604918 -5.893 L 4.784309704603789 -5.893 L 4.821704221152343 -5.893 L 4.856549614508177 -5.893 L 4.8884076836320745 -5.893 L 4.916877794820319 -5.893 L 4.941601919905976 -5.893 L 4.9622691386708215 -5.893 L 4.978619548847488 -5.893 L 4.990447534541275 -5.892999999999999 L 4.997604351969326 -5.892999999999999 L 5.0 -5.892999999999999 " stroke="#191919" stroke-width="0.35 px" style="stroke-width:0.35;stroke-miterlimit:4;stroke-dasharray:none;fill:none;fill-opacity:1;fill-rule: evenodd"/>
<path id="Shape2DView_nwe0032"  d="M 5.0 5.893 L 5.000798549343558 5.893 L 5.003184155152908 5.893 L 5.007126817050837 5.893 L 5.012576953776392 5.893 L 5.019466026698008 5.893 L 5.02770740172656 5.893 L 5.037197438789308 5.893 L 5.047816795163941 5.893 L 5.059431926282552 5.893 L 5.07189676513207 5.893 L 5.085054559131693 5.893 L 5.098739841387548 5.893 L 5.11278051153488 5.893 L 5.127 5.893 " stroke="#191919" stroke-width="0.35 px" style="stroke-width:0.35;stroke-miterlimit:4;stroke-dasharray:none;fill:none;fill-opacity:1;fill-rule: evenodd"/>
<path id="Shape2DView_nwe0033"  d="M 4.619 5.893 L 4.66165846539536 5.893 L 4.703780475837355 5.893 L 4.744836322604918 5.893 L 4.784309704603789 5.893 L 4.821704221152343 5.893 L 4.856549614508177 5.893 L 4.8884076836320745 5.893 L 4.916877794820319 5.893 L 4.941601919905976 5.893 L 4.9622691386708215 5.893 L 4.978619548847488 5.893 L 4.990447534541275 5.893000000000001 L 4.997604351969326 5.893000000000001 L 5.0 5.893000000000001 " stroke="#191919" stroke-width="0.35 px" style="stroke-width:0.35;stroke-miterlimit:4;stroke-dasharray:none;fill:none;fill-opacity:1;fill-rule: evenodd"/>
<path id="Shape2DView_nwe0034"  d="M 4.619 5.892999999999999 L 3.5 5.892999999999998 " stroke="#191919" stroke-width="0.35 px" style="stroke-width:0.35;stroke-miterlimit:4;stroke-dasharray:none;fill:none;fill-opacity:1;fill-rule: evenodd"/>
<path id="Shape2DView_nwe0035"  d="M 5.66 5.893 L 5.127 5.892999999999999 " stroke="#191919" stroke-width="0.35 px" style="stroke-width:0.35;stroke-miterlimit:4;stroke-dasharray:none;fill:none;fill-opacity:1;fill-rule: evenodd"/>
<path id="Shape2DView_nwe0036"  d="M 3.4249999999999976 -5.893 L 3.4249999999999954 -4.267 " stroke="#191919" stroke-width="0.35 px" style="stroke-width:0.35;stroke-miterlimit:4;stroke-dasharray:none;fill:none;fill-opacity:1;fill-rule: evenodd"/>
<path id="Shape2DView_nwe0037"  d="M 5.0 -4.267 L 5.000798549343558 -4.267 L 5.003184155152908 -4.267 L 5.007126817050837 -4.267 L 5.012576953776392 -4.267 L 5.019466026698008 -4.267 L 5.02770740172656 -4.267 L 5.037197438789308 -4.267 L 5.047816795163941 -4.267 L 5.059431926282552 -4.267 L 5.07189676513207 -4.267 L 5.085054559131693 -4.267 L 5.098739841387548 -4.267 L 5.11278051153488 -4.267 L 5.127 -4.267 " stroke="#191919" stroke-width="0.35 px" style="stroke-width:0.35;stroke-miterlimit:4;stroke-dasharray:none;fill:none;fill-opacity:1;fill-rule: evenodd"/>
<path id="Shape2DView_nwe0038"  d="M 4.619 -4.267 L 4.66165846539536 -4.267 L 4.703780475837355 -4.267 L 4.744836322604918 -4.267 L 4.784309704603789 -4.267 L 4.821704221152343 -4.267 L 4.856549614508177 -4.267 L 4.8884076836320745 -4.267 L 4.916877794820319 -4.267 L 4.941601919905976 -4.267 L 4.9622691386708215 -4.267 L 4.978619548847488 -4.267 L 4.990447534541275 -4.2669999999999995 L 4.997604351969326 -4.2669999999999995 L 5.0 -4.2669999999999995 " stroke="#191919" stroke-width="0.35 px" style="stroke-width:0.35;stroke-miterlimit:4;stroke-dasharray:none;fill:none;fill-opacity:1;fill-rule: evenodd"/>
<path id="Shape2DView_nwe0039"  d="M 4.619 -4.267000000000001 L 3.5 -4.267000000000002 " stroke="#191919" stroke-width="0.35 px" style="stroke-width:0.35;stroke-miterlimit:4;stroke-dasharray:none;fill:none;fill-opacity:1;fill-rule: evenodd"/>
<path id="Shape2DView_nwe0040"  d="M 5.66 -4.267 L 5.127 -4.267000000000001 " stroke="#191919" stroke-width="0.35 px" style="stroke-width:0.35;stroke-miterlimit:4;stroke-dasharray:none;fill:none;fill-opacity:1;fill-rule: evenodd"/>
<path id="Shape2DView_nwe0041"  d="M 5.0 4.267 L 5.000798549343558 4.267 L 5.003184155152908 4.267 L 5.007126817050837 4.267 L 5.012576953776392 4.267 L 5.019466026698008 4.267 L 5.02770740172656 4.267 L 5.037197438789308 4.267 L 5.047816795163941 4.267 L 5.059431926282552 4.267 L 5.07189676513207 4.267 L 5.085054559131693 4.267 L 5.098739841387548 4.267 L 5.11278051153488 4.267 L 5.127 4.267 " stroke="#191919" stroke-width="0.35 px" style="stroke-width:0.35;stroke-miterlimit:4;stroke-dasharray:none;fill:none;fill-opacity:1;fill-rule: evenodd"/>
<path id="Shape2DView_nwe0042"  d="M 5.127 4.267000000000001 L 5.66 4.267000000000001 " stroke="#191919" stroke-width="0.35 px" style="stroke-width:0.35;stroke-miterlimit:4;stroke-dasharray:none;fill:none;fill-opacity:1;fill-rule: evenodd"/>
<path id="Shape2DView_nwe0043"  d="M 4.619 4.2669999999999995 L 3.5 4.266999999999999 " stroke="#191919" stroke-width="0.35 px" style="stroke-width:0.35;stroke-miterlimit:4;stroke-dasharray:none;fill:none;fill-opacity:1;fill-rule: evenodd"/>
<path id="Shape2DView_nwe0044"  d="M 4.619 4.267 L 4.66165846539536 4.267 L 4.703780475837355 4.267 L 4.744836322604918 4.267 L 4.784309704603789 4.267 L 4.821704221152343 4.267 L 4.856549614508177 4.267 L 4.8884076836320745 4.267 L 4.916877794820319 4.267 L 4.941601919905976 4.267 L 4.9622691386708215 4.267 L 4.978619548847488 4.267 L 4.990447534541275 4.267000000000001 L 4.997604351969326 4.267000000000001 L 5.0 4.267000000000001 " stroke="#191919" stroke-width="0.35 px" style="stroke-width:0.35;stroke-miterlimit:4;stroke-dasharray:none;fill:none;fill-opacity:1;fill-rule: evenodd"/>
<path id="Shape2DView_nwe0045"  d="M 3.4249999999999843 4.267000000000001 L 3.424999999999982 5.892999999999999 " stroke="#191919" stroke-width="0.35 px" style="stroke-width:0.35;stroke-miterlimit:4;stroke-dasharray:none;fill:none;fill-opacity:1;fill-rule: evenodd"/>
<path id="Shape2DView_nwe0046"  d="M 5.0 -3.353 L 5.000798549343558 -3.353 L 5.003184155152908 -3.353 L 5.007126817050837 -3.353 L 5.012576953776392 -3.353 L 5.019466026698008 -3.353 L 5.02770740172656 -3.353 L 5.037197438789308 -3.353 L 5.047816795163941 -3.353 L 5.059431926282552 -3.353 L 5.07189676513207 -3.353 L 5.085054559131693 -3.353 L 5.098739841387548 -3.353 L 5.11278051153488 -3.353 L 5.127 -3.353 " stroke="#191919" stroke-width="0.35 px" style="stroke-width:0.35;stroke-miterlimit:4;stroke-dasharray:none;fill:none;fill-opacity:1;fill-rule: evenodd"/>
<path id="Shape2DView_nwe0047"  d="M 5.127 -3.3529999999999998 L 5.66 -3.3529999999999993 " stroke="#191919" stroke-width="0.35 px" style="stroke-width:0.35;stroke-miterlimit:4;stroke-dasharray:none;fill:none;fill-opacity:1;fill-rule: evenodd"/>
<path id="Shape2DView_nwe0048"  d="M 4.619 -3.3530000000000006 L 3.5 -3.353000000000002 " stroke="#191919" stroke-width="0.35 px" style="stroke-width:0.35;stroke-miterlimit:4;stroke-dasharray:none;fill:none;fill-opacity:1;fill-rule: evenodd"/>
<path id="Shape2DView_nwe0049"  d="M 4.619 -3.353 L 4.66165846539536 -3.353 L 4.703780475837355 -3.353 L 4.744836322604918 -3.353 L 4.784309704603789 -3.353 L 4.821704221152343 -3.3529999999999998 L 4.856549614508177 -3.3529999999999998 L 4.8884076836320745 -3.3529999999999998 L 4.916877794820319 -3.3529999999999998 L 4.941601919905976 -3.3529999999999998 L 4.9622691386708215 -3.3529999999999998 L 4.978619548847488 -3.3529999999999998 L 4.990447534541275 -3.3529999999999998 L 4.997604351969326 -3.3529999999999998 L 5.0 -3.3529999999999998 " stroke="#191919" stroke-width="0.35 px" style="stroke-width:0.35;stroke-miterlimit:4;stroke-dasharray:none;fill:none;fill-opacity:1;fill-rule: evenodd"/>
<path id="Shape2DView_nwe0050"  d="M 5.0 3.353 L 5.000798549343558 3.353 L 5.003184155152908 3.353 L 5.007126817050837 3.353 L 5.012576953776392 3.353 L 5.019466026698008 3.353 L 5.02770740172656 3.353 L 5.037197438789308 3.353 L 5.047816795163941 3.353 L 5.059431926282552 3.353 L 5.07189676513207 3.353 L 5.085054559131693 3.353 L 5.098739841387548 3.353 L 5.11278051153488 3.353 L 5.127 3.353 " stroke="#191919" stroke-width="0.35 px" style="stroke-width:0.35;stroke-miterlimit:4;stroke-dasharray:none;fill:none;fill-opacity:1;fill-rule: evenodd"/>
<path id="Shape2DView_nwe0051"  d="M 4.619 3.353 L 4.66165846539536 3.353 L 4.703780475837355 3.353 L 4.744836322604918 3.353 L 4.784309704603789 3.353 L 4.821704221152343 3.3530000000000006 L 4.856549614508177 3.3530000000000006 L 4.8884076836320745 3.3530000000000006 L 4.916877794820319 3.3530000000000006 L 4.941601919905976 3.3530000000000006 L 4.9622691386708215 3.3530000000000006 L 4.978619548847488 3.3530000000000006 L 4.990447534541275 3.3530000000000006 L 4.997604351969326 3.3530000000000006 L 5.0 3.3530000000000006 " stroke="#191919" stroke-width="0.35 px" style="stroke-width:0.35;stroke-miterlimit:4;stroke-dasharray:none;fill:none;fill-opacity:1;fill-rule: evenodd"/>
<path id="Shape2DView_nwe0052"  d="M 4.619 3.3529999999999998 L 3.5 3.3529999999999984 " stroke="#191919" stroke-width="0.35 px" style="stroke-width:0.35;stroke-miterlimit:4;stroke-dasharray:none;fill:none;fill-opacity:1;fill-rule: evenodd"/>
<path id="Shape2DView_nwe0053"  d="M 5.66 3.353 L 5.127 3.3529999999999998 " stroke="#191919" stroke-width="0.35 px" style="stroke-width:0.35;stroke-miterlimit:4;stroke-dasharray:none;fill:none;fill-opacity:1;fill-rule: evenodd"/>
<path id="Shape2DView_nwe0054"  d="M 3.424999999999994 -3.3529999999999998 L 3.4249999999999923 -1.7270000000000003 " stroke="#191919" stroke-width="0.35 px" style="stroke-width:0.35;stroke-miterlimit:4;stroke-dasharray:none;fill:none;fill-opacity:1;fill-rule: evenodd"/>
<path id="Shape2DView_nwe0055"  d="M 5.0 -1.7270000000000003 L 5.000798549343558 -1.7270000000000003 L 5.003184155152908 -1.7270000000000003 L 5.007126817050837 -1.7270000000000003 L 5.012576953776392 -1.7270000000000003 L 5.019466026698008 -1.7270000000000003 L 5.02770740172656 -1.7270000000000003 L 5.037197438789308 -1.727 L 5.047816795163941 -1.727 L 5.059431926282552 -1.727 L 5.07189676513207 -1.727 L 5.085054559131693 -1.727 L 5.098739841387548 -1.727 L 5.11278051153488 -1.727 L 5.127 -1.727 " stroke="#191919" stroke-width="0.35 px" style="stroke-width:0.35;stroke-miterlimit:4;stroke-dasharray:none;fill:none;fill-opacity:1;fill-rule: evenodd"/>
<path id="Shape2DView_nwe0056"  d="M 4.619 -1.727 L 4.66165846539536 -1.727 L 4.703780475837355 -1.727 L 4.744836322604918 -1.7269999999999999 L 4.784309704603789 -1.7269999999999999 L 4.821704221152343 -1.7269999999999999 L 4.856549614508177 -1.7269999999999999 L 4.8884076836320745 -1.7269999999999999 L 4.916877794820319 -1.7269999999999996 L 4.941601919905976 -1.7269999999999996 L 4.9622691386708215 -1.7269999999999996 L 4.978619548847488 -1.7269999999999996 L 4.990447534541275 -1.7269999999999996 L 4.997604351969326 -1.7269999999999996 L 5.0 -1.7269999999999996 " stroke="#191919" stroke-width="0.35 px" style="stroke-width:0.35;stroke-miterlimit:4;stroke-dasharray:none;fill:none;fill-opacity:1;fill-rule: evenodd"/>
<path id="Shape2DView_nwe0057"  d="M 4.619 -1.7270000000000005 L 3.5 -1.7270000000000019 " stroke="#191919" stroke-width="0.35 px" style="stroke-width:0.35;stroke-miterlimit:4;stroke-dasharray:none;fill:none;fill-opacity:1;fill-rule: evenodd"/>
<path id="Shape2DView_nwe0058"  d="M 5.66 -1.727 L 5.127 -1.7270000000000008 " stroke="#191919" stroke-width="0.35 px" style="stroke-width:0.35;stroke-miterlimit:4;stroke-dasharray:none;fill:none;fill-opacity:1;fill-rule: evenodd"/>
<path id="Shape2DView_nwe0059"  d="M 5.0 1.7269999999999999 L 5.000798549343558 1.7269999999999999 L 5.003184155152908 1.7269999999999999 L 5.007126817050837 1.7269999999999999 L 5.012576953776392 1.7269999999999999 L 5.019466026698008 1.7269999999999999 L 5.02770740172656 1.7269999999999999 L 5.037197438789308 1.727 L 5.047816795163941 1.727 L 5.059431926282552 1.727 L 5.07189676513207 1.727 L 5.085054559131693 1.727 L 5.098739841387548 1.727 L 5.11278051153488 1.727 L 5.127 1.727 " stroke="#191919" stroke-width="0.35 px" style="stroke-width:0.35;stroke-miterlimit:4;stroke-dasharray:none;fill:none;fill-opacity:1;fill-rule: evenodd"/>
<path id="Shape2DView_nwe0060"  d="M 5.127 1.7270000000000005 L 5.66 1.7270000000000012 " stroke="#191919" stroke-width="0.35 px" style="stroke-width:0.35;stroke-miterlimit:4;stroke-dasharray:none;fill:none;fill-opacity:1;fill-rule: evenodd"/>
<path id="Shape2DView_nwe0061"  d="M 4.619 1.7269999999999996 L 3.5 1.7269999999999983 " stroke="#191919" stroke-width="0.35 px" style="stroke-width:0.35;stroke-miterlimit:4;stroke-dasharray:none;fill:none;fill-opacity:1;fill-rule: evenodd"/>
<path id="Shape2DView_nwe0062"  d="M 4.619 1.727 L 4.66165846539536 1.727 L 4.703780475837355 1.727 L 4.744836322604918 1.7270000000000003 L 4.784309704603789 1.7270000000000003 L 4.821704221152343 1.7270000000000003 L 4.856549614508177 1.7270000000000003 L 4.8884076836320745 1.7270000000000003 L 4.916877794820319 1.7270000000000005 L 4.941601919905976 1.7270000000000005 L 4.9622691386708215 1.7270000000000005 L 4.978619548847488 1.7270000000000005 L 4.990447534541275 1.7270000000000005 L 4.997604351969326 1.7270000000000005 L 5.0 1.7270000000000005 " stroke="#191919" stroke-width="0.35 px" style="stroke-width:0.35;stroke-miterlimit:4;stroke-dasharray:none;fill:none;fill-opacity:1;fill-rule: evenodd"/>
<path id="Shape2DView_nwe0063"  d="M 3.4249999999999874 1.7270000000000003 L 3.424999999999985 3.3529999999999998 " stroke="#191919" stroke-width="0.35 px" style="stroke-width:0.35;stroke-miterlimit:4;stroke-dasharray:none;fill:none;fill-opacity:1;fill-rule: evenodd"/>
<path id="Shape2DView_nwe0064"  d="M 5.0 -0.8130000000000001 L 5.000798549343558 -0.8130000000000001 L 5.003184155152908 -0.8130000000000001 L 5.007126817050837 -0.8130000000000001 L 5.012576953776392 -0.8130000000000001 L 5.019466026698008 -0.8130000000000001 L 5.02770740172656 -0.8130000000000001 L 5.037197438789308 -0.8130000000000001 L 5.047816795163941 -0.8130000000000001 L 5.059431926282552 -0.8130000000000001 L 5.07189676513207 -0.8130000000000001 L 5.085054559131693 -0.813 L 5.098739841387548 -0.813 L 5.11278051153488 -0.813 L 5.127 -0.813 " stroke="#191919" stroke-width="0.35 px" style="stroke-width:0.35;stroke-miterlimit:4;stroke-dasharray:none;fill:none;fill-opacity:1;fill-rule: evenodd"/>
<path id="Shape2DView_nwe0065"  d="M 5.127 -0.8129999999999995 L 5.66 -0.8129999999999988 " stroke="#191919" stroke-width="0.35 px" style="stroke-width:0.35;stroke-miterlimit:4;stroke-dasharray:none;fill:none;fill-opacity:1;fill-rule: evenodd"/>
<path id="Shape2DView_nwe0066"  d="M 4.619 -0.8130000000000004 L 3.5 -0.8130000000000017 " stroke="#191919" stroke-width="0.35 px" style="stroke-width:0.35;stroke-miterlimit:4;stroke-dasharray:none;fill:none;fill-opacity:1;fill-rule: evenodd"/>
<path id="Shape2DView_nwe0067"  d="M 4.619 -0.813 L 4.66165846539536 -0.813 L 4.703780475837355 -0.8129999999999998 L 4.744836322604918 -0.8129999999999998 L 4.784309704603789 -0.8129999999999997 L 4.821704221152343 -0.8129999999999997 L 4.856549614508177 -0.8129999999999996 L 4.8884076836320745 -0.8129999999999996 L 4.916877794820319 -0.8129999999999996 L 4.941601919905976 -0.8129999999999995 L 4.9622691386708215 -0.8129999999999995 L 4.978619548847488 -0.8129999999999995 L 4.990447534541275 -0.8129999999999995 L 4.997604351969326 -0.8129999999999995 L 5.0 -0.8129999999999995 " stroke="#191919" stroke-width="0.35 px" style="stroke-width:0.35;stroke-miterlimit:4;stroke-dasharray:none;fill:none;fill-opacity:1;fill-rule: evenodd"/>
<path id="Shape2DView_nwe0068"  d="M 5.0 0.8129999999999998 L 5.000798549343558 0.8129999999999998 L 5.003184155152908 0.8129999999999998 L 5.007126817050837 0.8129999999999998 L 5.012576953776392 0.8129999999999998 L 5.019466026698008 0.8129999999999998 L 5.02770740172656 0.8129999999999998 L 5.037197438789308 0.8129999999999998 L 5.047816795163941 0.8129999999999998 L 5.059431926282552 0.8129999999999998 L 5.07189676513207 0.8129999999999998 L 5.085054559131693 0.813 L 5.098739841387548 0.813 L 5.11278051153488 0.813 L 5.127 0.813 " stroke="#191919" stroke-width="0.35 px" style="stroke-width:0.35;stroke-miterlimit:4;stroke-dasharray:none;fill:none;fill-opacity:1;fill-rule: evenodd"/>
<path id="Shape2DView_nwe0069"  d="M 4.619 0.813 L 4.66165846539536 0.813 L 4.703780475837355 0.8130000000000001 L 4.744836322604918 0.8130000000000001 L 4.784309704603789 0.8130000000000002 L 4.821704221152343 0.8130000000000002 L 4.856549614508177 0.8130000000000003 L 4.8884076836320745 0.8130000000000003 L 4.916877794820319 0.8130000000000003 L 4.941601919905976 0.8130000000000004 L 4.9622691386708215 0.8130000000000004 L 4.978619548847488 0.8130000000000004 L 4.990447534541275 0.8130000000000004 L 4.997604351969326 0.8130000000000004 L 5.0 0.8130000000000004 " stroke="#191919" stroke-width="0.35 px" style="stroke-width:0.35;stroke-miterlimit:4;stroke-dasharray:none;fill:none;fill-opacity:1;fill-rule: evenodd"/>
<path id="Shape2DView_nwe0070"  d="M 4.619 0.8129999999999995 L 3.5 0.8129999999999982 " stroke="#191919" stroke-width="0.35 px" style="stroke-width:0.35;stroke-miterlimit:4;stroke-dasharray:none;fill:none;fill-opacity:1;fill-rule: evenodd"/>
<path id="Shape2DView_nwe0071"  d="M 5.66 0.813 L 5.127 0.8129999999999993 " stroke="#191919" stroke-width="0.35 px" style="stroke-width:0.35;stroke-miterlimit:4;stroke-dasharray:none;fill:none;fill-opacity:1;fill-rule: evenodd"/>
<path id="Shape2DView_nwe0072"  d="M 3.424999999999991 -0.8129999999999997 L 3.4249999999999887 0.8130000000000006 " stroke="#191919" stroke-width="0.35 px" style="stroke-width:0.35;stroke-miterlimit:4;stroke-dasharray:none;fill:none;fill-opacity:1;fill-rule: evenodd"/>
<path id="Shape2DView_nwe0073"  d="M -3.5 7.62 L -3.425 7.545 " stroke="#191919" stroke-width="0.35 px" style="stroke-width:0.35;stroke-miterlimit:4;stroke-dasharray:none;fill:none;fill-opacity:1;fill-rule: evenodd"/>
<path id="Shape2DView_nwe0074"  d="M 3.425 7.545 L -3.425 7.544999999999991 " stroke="#191919" stroke-width="0.35 px" style="stroke-width:0.35;stroke-miterlimit:4;stroke-dasharray:none;fill:none;fill-opacity:1;fill-rule: evenodd"/>
<path id="Shape2DView_nwe0075"  d="M -3.425 7.545 L -3.424999999999999 6.807 " stroke="#191919" stroke-width="0.35 px" style="stroke-width:0.35;stroke-miterlimit:4;stroke-dasharray:none;fill:none;fill-opacity:1;fill-rule: evenodd"/>
<path id="Shape2DView_nwe0076"  d="M -5.0 6.807 L -5.000798549343558 6.807 L -5.003184155152908 6.807 L -5.007126817050837 6.807 L -5.012576953776392 6.807 L -5.019466026698008 6.807 L -5.02770740172656 6.807 L -5.037197438789308 6.807 L -5.047816795163941 6.807 L -5.059431926282552 6.807 L -5.07189676513207 6.807 L -5.085054559131693 6.807 L -5.098739841387548 6.807 L -5.11278051153488 6.807 L -5.127 6.807 " stroke="#191919" stroke-width="0.35 px" style="stroke-width:0.35;stroke-miterlimit:4;stroke-dasharray:none;fill:none;fill-opacity:1;fill-rule: evenodd"/>
<path id="Shape2DView_nwe0077"  d="M -4.619 6.807 L -4.66165846539536 6.807 L -4.703780475837355 6.807 L -4.744836322604918 6.807 L -4.784309704603789 6.807 L -4.821704221152343 6.807 L -4.856549614508177 6.807 L -4.8884076836320745 6.807 L -4.916877794820319 6.807 L -4.941601919905976 6.807 L -4.9622691386708215 6.8069999999999995 L -4.978619548847488 6.8069999999999995 L -4.990447534541275 6.8069999999999995 L -4.997604351969326 6.8069999999999995 L -5.0 6.8069999999999995 " stroke="#191919" stroke-width="0.35 px" style="stroke-width:0.35;stroke-miterlimit:4;stroke-dasharray:none;fill:none;fill-opacity:1;fill-rule: evenodd"/>
<path id="Shape2DView_nwe0078"  d="M -3.5 6.806999999999996 L -4.619 6.806999999999994 " stroke="#191919" stroke-width="0.35 px" style="stroke-width:0.35;stroke-miterlimit:4;stroke-dasharray:none;fill:none;fill-opacity:1;fill-rule: evenodd"/>
<path id="Shape2DView_nwe0079"  d="M -5.66 6.807 L -5.127 6.807000000000001 " stroke="#191919" stroke-width="0.35 px" style="stroke-width:0.35;stroke-miterlimit:4;stroke-dasharray:none;fill:none;fill-opacity:1;fill-rule: evenodd"/>
<path id="Shape2DView_nwe0080"  d="M -5.0 -6.807 L -5.000798549343558 -6.807 L -5.003184155152908 -6.807 L -5.007126817050837 -6.807 L -5.012576953776392 -6.807 L -5.019466026698008 -6.807 L -5.02770740172656 -6.807 L -5.037197438789308 -6.807 L -5.047816795163941 -6.807 L -5.059431926282552 -6.807 L -5.07189676513207 -6.807 L -5.085054559131693 -6.807 L -5.098739841387548 -6.807 L -5.11278051153488 -6.807 L -5.127 -6.807 " stroke="#191919" stroke-width="0.35 px" style="stroke-width:0.35;stroke-miterlimit:4;stroke-dasharray:none;fill:none;fill-opacity:1;fill-rule: evenodd"/>
<path id="Shape2DView_nwe0081"  d="M -5.127 -6.807000000000001 L -5.66 -6.807000000000001 " stroke="#191919" stroke-width="0.35 px" style="stroke-width:0.35;stroke-miterlimit:4;stroke-dasharray:none;fill:none;fill-opacity:1;fill-rule: evenodd"/>
<path id="Shape2DView_nwe0082"  d="M -4.619 -6.8069999999999995 L -3.5 -6.806999999999999 " stroke="#191919" stroke-width="0.35 px" style="stroke-width:0.35;stroke-miterlimit:4;stroke-dasharray:none;fill:none;fill-opacity:1;fill-rule: evenodd"/>
<path id="Shape2DView_nwe0083"  d="M -4.619 -6.807 L -4.66165846539536 -6.807 L -4.703780475837355 -6.807 L -4.744836322604918 -6.807 L -4.784309704603789 -6.807 L -4.821704221152343 -6.807 L -4.856549614508177 -6.807 L -4.8884076836320745 -6.807 L -4.916877794820319 -6.807 L -4.941601919905976 -6.807 L -4.9622691386708215 -6.807000000000001 L -4.978619548847488 -6.807000000000001 L -4.990447534541275 -6.807000000000001 L -4.997604351969326 -6.807000000000001 L -5.0 -6.807000000000001 " stroke="#191919" stroke-width="0.35 px" style="stroke-width:0.35;stroke-miterlimit:4;stroke-dasharray:none;fill:none;fill-opacity:1;fill-rule: evenodd"/>
<path id="Shape2DView_nwe0084"  d="M -3.5 -7.62 L -3.425 -7.545 " stroke="#191919" stroke-width="0.35 px" style="stroke-width:0.35;stroke-miterlimit:4;stroke-dasharray:none;fill:none;fill-opacity:1;fill-rule: evenodd"/>
<path id="Shape2DView_nwe0085"  d="M -3.4249999999999807 -6.807 L -3.42499999999998 -7.545 " stroke="#191919" stroke-width="0.35 px" style="stroke-width:0.35;stroke-miterlimit:4;stroke-dasharray:none;fill:none;fill-opacity:1;fill-rule: evenodd"/>
<path id="Shape2DView_nwe0086"  d="M -5.0 5.893 L -5.000798549343558 5.893 L -5.003184155152908 5.893 L -5.007126817050837 5.893 L -5.012576953776392 5.893 L -5.019466026698008 5.893 L -5.02770740172656 5.893 L -5.037197438789308 5.893 L -5.047816795163941 5.893 L -5.059431926282552 5.893 L -5.07189676513207 5.893 L -5.085054559131693 5.893 L -5.098739841387548 5.893 L -5.11278051153488 5.893 L -5.127 5.893 " stroke="#191919" stroke-width="0.35 px" style="stroke-width:0.35;stroke-miterlimit:4;stroke-dasharray:none;fill:none;fill-opacity:1;fill-rule: evenodd"/>
<path id="Shape2DView_nwe0087"  d="M -5.127 5.892999999999999 L -5.66 5.892999999999999 " stroke="#191919" stroke-width="0.35 px" style="stroke-width:0.35;stroke-miterlimit:4;stroke-dasharray:none;fill:none;fill-opacity:1;fill-rule: evenodd"/>
<path id="Shape2DView_nwe0088"  d="M -4.619 5.893 L -3.5 5.893000000000002 " stroke="#191919" stroke-width="0.35 px" style="stroke-width:0.35;stroke-miterlimit:4;stroke-dasharray:none;fill:none;fill-opacity:1;fill-rule: evenodd"/>
<path id="Shape2DView_nwe0089"  d="M -4.619 5.893 L -4.66165846539536 5.893 L -4.703780475837355 5.893 L -4.744836322604918 5.893 L -4.784309704603789 5.893 L -4.821704221152343 5.893 L -4.856549614508177 5.893 L -4.8884076836320745 5.893 L -4.916877794820319 5.893 L -4.941601919905976 5.893 L -4.9622691386708215 5.892999999999999 L -4.978619548847488 5.892999999999999 L -4.990447534541275 5.892999999999999 L -4.997604351969326 5.892999999999999 L -5.0 5.892999999999999 " stroke="#191919" stroke-width="0.35 px" style="stroke-width:0.35;stroke-miterlimit:4;stroke-dasharray:none;fill:none;fill-opacity:1;fill-rule: evenodd"/>
<path id="Shape2DView_nwe0090"  d="M -5.0 -5.893 L -5.000798549343558 -5.893 L -5.003184155152908 -5.893 L -5.007126817050837 -5.893 L -5.012576953776392 -5.893 L -5.019466026698008 -5.893 L -5.02770740172656 -5.893 L -5.037197438789308 -5.893 L -5.047816795163941 -5.893 L -5.059431926282552 -5.893 L -5.07189676513207 -5.893 L -5.085054559131693 -5.893 L -5.098739841387548 -5.893 L -5.11278051153488 -5.893 L -5.127 -5.893 " stroke="#191919" stroke-width="0.35 px" style="stroke-width:0.35;stroke-miterlimit:4;stroke-dasharray:none;fill:none;fill-opacity:1;fill-rule: evenodd"/>
<path id="Shape2DView_nwe0091"  d="M -4.619 -5.893 L -4.66165846539536 -5.893 L -4.703780475837355 -5.893 L -4.744836322604918 -5.893 L -4.784309704603789 -5.893 L -4.821704221152343 -5.893 L -4.856549614508177 -5.893 L -4.8884076836320745 -5.893 L -4.916877794820319 -5.893 L -4.941601919905976 -5.893 L -4.9622691386708215 -5.893000000000001 L -4.978619548847488 -5.893000000000001 L -4.990447534541275 -5.893000000000001 L -4.997604351969326 -5.893000000000001 L -5.0 -5.893000000000001 " stroke="#191919" stroke-width="0.35 px" style="stroke-width:0.35;stroke-miterlimit:4;stroke-dasharray:none;fill:none;fill-opacity:1;fill-rule: evenodd"/>
<path id="Shape2DView_nwe0092"  d="M -4.619 -5.892999999999999 L -3.5 -5.892999999999998 " stroke="#191919" stroke-width="0.35 px" style="stroke-width:0.35;stroke-miterlimit:4;stroke-dasharray:none;fill:none;fill-opacity:1;fill-rule: evenodd"/>
<path id="Shape2DView_nwe0093"  d="M -5.66 -5.893 L -5.127 -5.892999999999999 " stroke="#191919" stroke-width="0.35 px" style="stroke-width:0.35;stroke-miterlimit:4;stroke-dasharray:none;fill:none;fill-opacity:1;fill-rule: evenodd"/>
<path id="Shape2DView_nwe0094"  d="M -3.4249999999999976 5.893 L -3.4249999999999954 4.267 " stroke="#191919" stroke-width="0.35 px" style="stroke-width:0.35;stroke-miterlimit:4;stroke-dasharray:none;fill:none;fill-opacity:1;fill-rule: evenodd"/>
<path id="Shape2DView_nwe0095"  d="M -5.0 4.267 L -5.000798549343558 4.267 L -5.003184155152908 4.267 L -5.007126817050837 4.267 L -5.012576953776392 4.267 L -5.019466026698008 4.267 L -5.02770740172656 4.267 L -5.037197438789308 4.267 L -5.047816795163941 4.267 L -5.059431926282552 4.267 L -5.07189676513207 4.267 L -5.085054559131693 4.267 L -5.098739841387548 4.267 L -5.11278051153488 4.267 L -5.127 4.267 " stroke="#191919" stroke-width="0.35 px" style="stroke-width:0.35;stroke-miterlimit:4;stroke-dasharray:none;fill:none;fill-opacity:1;fill-rule: evenodd"/>
<path id="Shape2DView_nwe0096"  d="M -4.619 4.267 L -4.66165846539536 4.267 L -4.703780475837355 4.267 L -4.744836322604918 4.267 L -4.784309704603789 4.267 L -4.821704221152343 4.267 L -4.856549614508177 4.267 L -4.8884076836320745 4.267 L -4.916877794820319 4.267 L -4.941601919905976 4.267 L -4.9622691386708215 4.2669999999999995 L -4.978619548847488 4.2669999999999995 L -4.990447534541275 4.2669999999999995 L -4.997604351969326 4.2669999999999995 L -5.0 4.2669999999999995 " stroke="#191919" stroke-width="0.35 px" style="stroke-width:0.35;stroke-miterlimit:4;stroke-dasharray:none;fill:none;fill-opacity:1;fill-rule: evenodd"/>
<path id="Shape2DView_nwe0097"  d="M -4.619 4.267000000000001 L -3.5 4.267000000000002 " stroke="#191919" stroke-width="0.35 px" style="stroke-width:0.35;stroke-miterlimit:4;stroke-dasharray:none;fill:none;fill-opacity:1;fill-rule: evenodd"/>
<path id="Shape2DView_nwe0098"  d="M -5.66 4.267 L -5.127 4.267000000000001 " stroke="#191919" stroke-width="0.35 px" style="stroke-width:0.35;stroke-miterlimit:4;stroke-dasharray:none;fill:none;fill-opacity:1;fill-rule: evenodd"/>
<path id="Shape2DView_nwe0099"  d="M -5.0 -4.267 L -5.000798549343558 -4.267 L -5.003184155152908 -4.267 L -5.007126817050837 -4.267 L -5.012576953776392 -4.267 L -5.019466026698008 -4.267 L -5.02770740172656 -4.267 L -5.037197438789308 -4.267 L -5.047816795163941 -4.267 L -5.059431926282552 -4.267 L -5.07189676513207 -4.267 L -5.085054559131693 -4.267 L -5.098739841387548 -4.267 L -5.11278051153488 -4.267 L -5.127 -4.267 " stroke="#191919" stroke-width="0.35 px" style="stroke-width:0.35;stroke-miterlimit:4;stroke-dasharray:none;fill:none;fill-opacity:1;fill-rule: evenodd"/>
<path id="Shape2DView_nwe0100"  d="M -5.127 -4.267000000000001 L -5.66 -4.267000000000001 " stroke="#191919" stroke-width="0.35 px" style="stroke-width:0.35;stroke-miterlimit:4;stroke-dasharray:none;fill:none;fill-opacity:1;fill-rule: evenodd"/>
<path id="Shape2DView_nwe0101"  d="M -4.619 -4.2669999999999995 L -3.5 -4.266999999999999 " stroke="#191919" stroke-width="0.35 px" style="stroke-width:0.35;stroke-miterlimit:4;stroke-dasharray:none;fill:none;fill-opacity:1;fill-rule: evenodd"/>
<path id="Shape2DView_nwe0102"  d="M -4.619 -4.267 L -4.66165846539536 -4.267 L -4.703780475837355 -4.267 L -4.744836322604918 -4.267 L -4.784309704603789 -4.267 L -4.821704221152343 -4.267 L -4.856549614508177 -4.267 L -4.8884076836320745 -4.267 L -4.916877794820319 -4.267 L -4.941601919905976 -4.267 L -4.9622691386708215 -4.267000000000001 L -4.978619548847488 -4.267000000000001 L -4.990447534541275 -4.267000000000001 L -4.997604351969326 -4.267000000000001 L -5.0 -4.267000000000001 " stroke="#191919" stroke-width="0.35 px" style="stroke-width:0.35;stroke-miterlimit:4;stroke-dasharray:none;fill:none;fill-opacity:1;fill-rule: evenodd"/>
<path id="Shape2DView_nwe0103"  d="M -3.4249999999999843 -4.267000000000001 L -3.424999999999982 -5.892999999999999 " stroke="#191919" stroke-width="0.35 px" style="stroke-width:0.35;stroke-miterlimit:4;stroke-dasharray:none;fill:none;fill-opacity:1;fill-rule: evenodd"/>
<path id="Shape2DView_nwe0104"  d="M -5.0 3.353 L -5.000798549343558 3.353 L -5.003184155152908 3.353 L -5.007126817050837 3.353 L -5.012576953776392 3.353 L -5.019466026698008 3.353 L -5.02770740172656 3.353 L -5.037197438789308 3.353 L -5.047816795163941 3.353 L -5.059431926282552 3.353 L -5.07189676513207 3.353 L -5.085054559131693 3.353 L -5.098739841387548 3.353 L -5.11278051153488 3.353 L -5.127 3.353 " stroke="#191919" stroke-width="0.35 px" style="stroke-width:0.35;stroke-miterlimit:4;stroke-dasharray:none;fill:none;fill-opacity:1;fill-rule: evenodd"/>
<path id="Shape2DView_nwe0105"  d="M -5.127 3.3529999999999998 L -5.66 3.352999999999999 " stroke="#191919" stroke-width="0.35 px" style="stroke-width:0.35;stroke-miterlimit:4;stroke-dasharray:none;fill:none;fill-opacity:1;fill-rule: evenodd"/>
<path id="Shape2DView_nwe0106"  d="M -4.619 3.3530000000000006 L -3.5 3.353000000000002 " stroke="#191919" stroke-width="0.35 px" style="stroke-width:0.35;stroke-miterlimit:4;stroke-dasharray:none;fill:none;fill-opacity:1;fill-rule: evenodd"/>
<path id="Shape2DView_nwe0107"  d="M -4.619 3.353 L -4.66165846539536 3.353 L -4.703780475837355 3.353 L -4.744836322604918 3.353 L -4.784309704603789 3.353 L -4.821704221152343 3.3529999999999998 L -4.856549614508177 3.3529999999999998 L -4.8884076836320745 3.3529999999999998 L -4.916877794820319 3.3529999999999998 L -4.941601919905976 3.3529999999999998 L -4.9622691386708215 3.3529999999999998 L -4.978619548847488 3.3529999999999998 L -4.990447534541275 3.3529999999999998 L -4.997604351969326 3.3529999999999998 L -5.0 3.3529999999999998 " stroke="#191919" stroke-width="0.35 px" style="stroke-width:0.35;stroke-miterlimit:4;stroke-dasharray:none;fill:none;fill-opacity:1;fill-rule: evenodd"/>
<path id="Shape2DView_nwe0108"  d="M -5.0 -3.353 L -5.000798549343558 -3.353 L -5.003184155152908 -3.353 L -5.007126817050837 -3.353 L -5.012576953776392 -3.353 L -5.019466026698008 -3.353 L -5.02770740172656 -3.353 L -5.037197438789308 -3.353 L -5.047816795163941 -3.353 L -5.059431926282552 -3.353 L -5.07189676513207 -3.353 L -5.085054559131693 -3.353 L -5.098739841387548 -3.353 L -5.11278051153488 -3.353 L -5.127 -3.353 " stroke="#191919" stroke-width="0.35 px" style="stroke-width:0.35;stroke-miterlimit:4;stroke-dasharray:none;fill:none;fill-opacity:1;fill-rule: evenodd"/>
<path id="Shape2DView_nwe0109"  d="M -4.619 -3.353 L -4.66165846539536 -3.353 L -4.703780475837355 -3.353 L -4.744836322604918 -3.353 L -4.784309704603789 -3.353 L -4.821704221152343 -3.3530000000000006 L -4.856549614508177 -3.3530000000000006 L -4.8884076836320745 -3.3530000000000006 L -4.916877794820319 -3.3530000000000006 L -4.941601919905976 -3.3530000000000006 L -4.9622691386708215 -3.3530000000000006 L -4.978619548847488 -3.3530000000000006 L -4.990447534541275 -3.3530000000000006 L -4.997604351969326 -3.3530000000000006 L -5.0 -3.3530000000000006 " stroke="#191919" stroke-width="0.35 px" style="stroke-width:0.35;stroke-miterlimit:4;stroke-dasharray:none;fill:none;fill-opacity:1;fill-rule: evenodd"/>
<path id="Shape2DView_nwe0110"  d="M -4.619 -3.3529999999999998 L -3.5 -3.3529999999999984 " stroke="#191919" stroke-width="0.35 px" style="stroke-width:0.35;stroke-miterlimit:4;stroke-dasharray:none;fill:none;fill-opacity:1;fill-rule: evenodd"/>
<path id="Shape2DView_nwe0111"  d="M -5.66 -3.353 L -5.127 -3.3529999999999993 " stroke="#191919" stroke-width="0.35 px" style="stroke-width:0.35;stroke-miterlimit:4;stroke-dasharray:none;fill:none;fill-opacity:1;fill-rule: evenodd"/>
<path id="Shape2DView_nwe0112"  d="M -3.424999999999994 3.3529999999999998 L -3.4249999999999923 1.7270000000000003 " stroke="#191919" stroke-width="0.35 px" style="stroke-width:0.35;stroke-miterlimit:4;stroke-dasharray:none;fill:none;fill-opacity:1;fill-rule: evenodd"/>
<path id="Shape2DView_nwe0113"  d="M -5.0 1.7270000000000003 L -5.000798549343558 1.7270000000000003 L -5.003184155152908 1.7270000000000003 L -5.007126817050837 1.7270000000000003 L -5.012576953776392 1.7270000000000003 L -5.019466026698008 1.7270000000000003 L -5.02770740172656 1.7270000000000003 L -5.037197438789308 1.7270000000000003 L -5.047816795163941 1.727 L -5.059431926282552 1.727 L -5.07189676513207 1.727 L -5.085054559131693 1.727 L -5.098739841387548 1.727 L -5.11278051153488 1.727 L -5.127 1.727 " stroke="#191919" stroke-width="0.35 px" style="stroke-width:0.35;stroke-miterlimit:4;stroke-dasharray:none;fill:none;fill-opacity:1;fill-rule: evenodd"/>
<path id="Shape2DView_nwe0114"  d="M -4.619 1.727 L -4.66165846539536 1.727 L -4.703780475837355 1.7269999999999999 L -4.744836322604918 1.7269999999999999 L -4.784309704603789 1.7269999999999999 L -4.821704221152343 1.7269999999999999 L -4.856549614508177 1.7269999999999999 L -4.8884076836320745 1.7269999999999996 L -4.916877794820319 1.7269999999999996 L -4.941601919905976 1.7269999999999996 L -4.9622691386708215 1.7269999999999996 L -4.978619548847488 1.7269999999999996 L -4.990447534541275 1.7269999999999996 L -4.997604351969326 1.7269999999999996 L -5.0 1.7269999999999996 " stroke="#191919" stroke-width="0.35 px" style="stroke-width:0.35;stroke-miterlimit:4;stroke-dasharray:none;fill:none;fill-opacity:1;fill-rule: evenodd"/>
<path id="Shape2DView_nwe0115"  d="M -4.619 1.7270000000000005 L -3.5 1.727000000000002 " stroke="#191919" stroke-width="0.35 px" style="stroke-width:0.35;stroke-miterlimit:4;stroke-dasharray:none;fill:none;fill-opacity:1;fill-rule: evenodd"/>
<path id="Shape2DView_nwe0116"  d="M -5.66 1.727 L -5.127 1.7270000000000008 " stroke="#191919" stroke-width="0.35 px" style="stroke-width:0.35;stroke-miterlimit:4;stroke-dasharray:none;fill:none;fill-opacity:1;fill-rule: evenodd"/>
<path id="Shape2DView_nwe0117"  d="M -5.0 -1.7269999999999999 L -5.000798549343558 -1.7269999999999999 L -5.003184155152908 -1.7269999999999999 L -5.007126817050837 -1.7269999999999999 L -5.012576953776392 -1.7269999999999999 L -5.019466026698008 -1.7269999999999999 L -5.02770740172656 -1.7269999999999999 L -5.037197438789308 -1.7269999999999999 L -5.047816795163941 -1.727 L -5.059431926282552 -1.727 L -5.07189676513207 -1.727 L -5.085054559131693 -1.727 L -5.098739841387548 -1.727 L -5.11278051153488 -1.727 L -5.127 -1.727 " stroke="#191919" stroke-width="0.35 px" style="stroke-width:0.35;stroke-miterlimit:4;stroke-dasharray:none;fill:none;fill-opacity:1;fill-rule: evenodd"/>
<path id="Shape2DView_nwe0118"  d="M -5.127 -1.7270000000000005 L -5.66 -1.7270000000000012 " stroke="#191919" stroke-width="0.35 px" style="stroke-width:0.35;stroke-miterlimit:4;stroke-dasharray:none;fill:none;fill-opacity:1;fill-rule: evenodd"/>
<path id="Shape2DView_nwe0119"  d="M -4.619 -1.7269999999999996 L -3.5 -1.726999999999998 " stroke="#191919" stroke-width="0.35 px" style="stroke-width:0.35;stroke-miterlimit:4;stroke-dasharray:none;fill:none;fill-opacity:1;fill-rule: evenodd"/>
<path id="Shape2DView_nwe0120"  d="M -4.619 -1.727 L -4.66165846539536 -1.727 L -4.703780475837355 -1.7270000000000003 L -4.744836322604918 -1.7270000000000003 L -4.784309704603789 -1.7270000000000003 L -4.821704221152343 -1.7270000000000003 L -4.856549614508177 -1.7270000000000003 L -4.8884076836320745 -1.7270000000000005 L -4.916877794820319 -1.7270000000000005 L -4.941601919905976 -1.7270000000000005 L -4.9622691386708215 -1.7270000000000005 L -4.978619548847488 -1.7270000000000005 L -4.990447534541275 -1.7270000000000005 L -4.997604351969326 -1.7270000000000005 L -5.0 -1.7270000000000005 " stroke="#191919" stroke-width="0.35 px" style="stroke-width:0.35;stroke-miterlimit:4;stroke-dasharray:none;fill:none;fill-opacity:1;fill-rule: evenodd"/>
<path id="Shape2DView_nwe0121"  d="M -3.4249999999999874 -1.7270000000000003 L -3.424999999999985 -3.3529999999999998 " stroke="#191919" stroke-width="0.35 px" style="stroke-width:0.35;stroke-miterlimit:4;stroke-dasharray:none;fill:none;fill-opacity:1;fill-rule: evenodd"/>
<path id="Shape2DView_nwe0122"  d="M -5.0 0.8130000000000002 L -5.000798549343558 0.8130000000000002 L -5.003184155152908 0.8130000000000001 L -5.007126817050837 0.8130000000000001 L -5.012576953776392 0.8130000000000001 L -5.019466026698008 0.8130000000000001 L -5.02770740172656 0.8130000000000001 L -5.037197438789308 0.8130000000000001 L -5.047816795163941 0.8130000000000001 L -5.059431926282552 0.8130000000000001 L -5.07189676513207 0.8130000000000001 L -5.085054559131693 0.8130000000000001 L -5.098739841387548 0.813 L -5.11278051153488 0.813 L -5.127 0.813 " stroke="#191919" stroke-width="0.35 px" style="stroke-width:0.35;stroke-miterlimit:4;stroke-dasharray:none;fill:none;fill-opacity:1;fill-rule: evenodd"/>
<path id="Shape2DView_nwe0123"  d="M -5.127 0.8129999999999994 L -5.66 0.8129999999999987 " stroke="#191919" stroke-width="0.35 px" style="stroke-width:0.35;stroke-miterlimit:4;stroke-dasharray:none;fill:none;fill-opacity:1;fill-rule: evenodd"/>
<path id="Shape2DView_nwe0124"  d="M -4.619 0.8130000000000005 L -3.5 0.8130000000000019 " stroke="#191919" stroke-width="0.35 px" style="stroke-width:0.35;stroke-miterlimit:4;stroke-dasharray:none;fill:none;fill-opacity:1;fill-rule: evenodd"/>
<path id="Shape2DView_nwe0125"  d="M -4.619 0.813 L -4.66165846539536 0.8129999999999998 L -4.703780475837355 0.8129999999999998 L -4.744836322604918 0.8129999999999997 L -4.784309704603789 0.8129999999999997 L -4.821704221152343 0.8129999999999997 L -4.856549614508177 0.8129999999999996 L -4.8884076836320745 0.8129999999999996 L -4.916877794820319 0.8129999999999995 L -4.941601919905976 0.8129999999999995 L -4.9622691386708215 0.8129999999999995 L -4.978619548847488 0.8129999999999995 L -4.990447534541275 0.8129999999999995 L -4.997604351969326 0.8129999999999994 L -5.0 0.8129999999999994 " stroke="#191919" stroke-width="0.35 px" style="stroke-width:0.35;stroke-miterlimit:4;stroke-dasharray:none;fill:none;fill-opacity:1;fill-rule: evenodd"/>
<path id="Shape2DView_nwe0126"  d="M -5.0 -0.8129999999999997 L -5.000798549343558 -0.8129999999999997 L -5.003184155152908 -0.8129999999999998 L -5.007126817050837 -0.8129999999999998 L -5.012576953776392 -0.8129999999999998 L -5.019466026698008 -0.8129999999999998 L -5.02770740172656 -0.8129999999999998 L -5.037197438789308 -0.8129999999999998 L -5.047816795163941 -0.8129999999999998 L -5.059431926282552 -0.8129999999999998 L -5.07189676513207 -0.8129999999999998 L -5.085054559131693 -0.8129999999999998 L -5.098739841387548 -0.813 L -5.11278051153488 -0.813 L -5.127 -0.813 " stroke="#191919" stroke-width="0.35 px" style="stroke-width:0.35;stroke-miterlimit:4;stroke-dasharray:none;fill:none;fill-opacity:1;fill-rule: evenodd"/>
<path id="Shape2DView_nwe0127"  d="M -4.619 -0.813 L -4.66165846539536 -0.8130000000000001 L -4.703780475837355 -0.8130000000000001 L -4.744836322604918 -0.8130000000000002 L -4.784309704603789 -0.8130000000000002 L -4.821704221152343 -0.8130000000000002 L -4.856549614508177 -0.8130000000000003 L -4.8884076836320745 -0.8130000000000003 L -4.916877794820319 -0.8130000000000004 L -4.941601919905976 -0.8130000000000004 L -4.9622691386708215 -0.8130000000000004 L -4.978619548847488 -0.8130000000000004 L -4.990447534541275 -0.8130000000000004 L -4.997604351969326 -0.8130000000000005 L -5.0 -0.8130000000000005 " stroke="#191919" stroke-width="0.35 px" style="stroke-width:0.35;stroke-miterlimit:4;stroke-dasharray:none;fill:none;fill-opacity:1;fill-rule: evenodd"/>
<path id="Shape2DView_nwe0128"  d="M -4.619 -0.8129999999999994 L -3.5 -0.812999999999998 " stroke="#191919" stroke-width="0.35 px" style="stroke-width:0.35;stroke-miterlimit:4;stroke-dasharray:none;fill:none;fill-opacity:1;fill-rule: evenodd"/>
<path id="Shape2DView_nwe0129"  d="M -5.66 -0.813 L -5.127 -0.8129999999999993 " stroke="#191919" stroke-width="0.35 px" style="stroke-width:0.35;stroke-miterlimit:4;stroke-dasharray:none;fill:none;fill-opacity:1;fill-rule: evenodd"/>
<path id="Shape2DView_nwe0130"  d="M -3.424999999999991 0.8129999999999997 L -3.4249999999999887 -0.8130000000000006 " stroke="#191919" stroke-width="0.35 px" style="stroke-width:0.35;stroke-miterlimit:4;stroke-dasharray:none;fill:none;fill-opacity:1;fill-rule: evenodd"/>
<path id="Shape2DView_nwe0131"  d="M -3.425 -7.545 L 3.425 -7.544999999999991 " stroke="#191919" stroke-width="0.35 px" style="stroke-width:0.35;stroke-miterlimit:4;stroke-dasharray:none;fill:none;fill-opacity:1;fill-rule: evenodd"/>
<path id="Shape2DView_nwe0132"  d="M 3.424999999999999 -6.807 L 3.4249999999999976 -5.893 " stroke="#191919" stroke-width="0.35 px" style="stroke-width:0.35;stroke-miterlimit:4;stroke-dasharray:none;fill:none;fill-opacity:1;fill-rule: evenodd"/>
<path id="Shape2DView_nwe0133"  d="M 3.4249999999999954 -4.267 L 3.424999999999994 -3.3529999999999998 " stroke="#191919" stroke-width="0.35 px" style="stroke-width:0.35;stroke-miterlimit:4;stroke-dasharray:none;fill:none;fill-opacity:1;fill-rule: evenodd"/>
<path id="Shape2DView_nwe0134"  d="M 3.4249999999999923 -1.7270000000000003 L 3.424999999999991 -0.8129999999999997 " stroke="#191919" stroke-width="0.35 px" style="stroke-width:0.35;stroke-miterlimit:4;stroke-dasharray:none;fill:none;fill-opacity:1;fill-rule: evenodd"/>
<path id="Shape2DView_nwe0135"  d="M 3.4249999999999887 0.8130000000000006 L 3.4249999999999874 1.7270000000000003 " stroke="#191919" stroke-width="0.35 px" style="stroke-width:0.35;stroke-miterlimit:4;stroke-dasharray:none;fill:none;fill-opacity:1;fill-rule: evenodd"/>
<path id="Shape2DView_nwe0136"  d="M 3.424999999999985 3.3529999999999998 L 3.4249999999999843 4.267000000000001 " stroke="#191919" stroke-width="0.35 px" style="stroke-width:0.35;stroke-miterlimit:4;stroke-dasharray:none;fill:none;fill-opacity:1;fill-rule: evenodd"/>
<path id="Shape2DView_nwe0137"  d="M 3.424999999999982 5.892999999999999 L 3.4249999999999807 6.807 " stroke="#191919" stroke-width="0.35 px" style="stroke-width:0.35;stroke-miterlimit:4;stroke-dasharray:none;fill:none;fill-opacity:1;fill-rule: evenodd"/>
<path id="Shape2DView_nwe0138"  d="M 3.425 7.545 L 3.101276356577 7.221276356577 " stroke="#191919" stroke-width="0.35 px" style="stroke-width:0.35;stroke-miterlimit:4;stroke-dasharray:none;fill:none;fill-opacity:1;fill-rule: evenodd"/>
<path id="Shape2DView_nwe0139"  d="M 3.101276356577 -7.221276356577 L 3.1012763565769808 7.221276356577 " stroke="#191919" stroke-width="0.35 px" style="stroke-width:0.35;stroke-miterlimit:4;stroke-dasharray:none;fill:none;fill-opacity:1;fill-rule: evenodd"/>
<path id="Shape2DView_nwe0140"  d="M 3.425 -7.545 L 3.101276356577 -7.221276356577 " stroke="#191919" stroke-width="0.35 px" style="stroke-width:0.35;stroke-miterlimit:4;stroke-dasharray:none;fill:none;fill-opacity:1;fill-rule: evenodd"/>
<path id="Shape2DView_nwe0141"  d="M 3.499999999999999 -6.807 L 3.499999999999998 -5.893 " stroke="#191919" stroke-width="0.35 px" style="stroke-width:0.35;stroke-miterlimit:4;stroke-dasharray:none;fill:none;fill-opacity:1;fill-rule: evenodd"/>
<path id="Shape2DView_nwe0142"  d="M 5.66 -5.893 L 5.660000000000001 -6.807 " stroke="#191919" stroke-width="0.35 px" style="stroke-width:0.35;stroke-miterlimit:4;stroke-dasharray:none;fill:none;fill-opacity:1;fill-rule: evenodd"/>
<path id="Shape2DView_nwe0143"  d="M 5.0 -5.893 L 5.000000000000001 -6.807 " stroke="#191919" stroke-width="0.35 px" style="stroke-width:0.35;stroke-miterlimit:4;stroke-dasharray:none;fill:none;fill-opacity:1;fill-rule: evenodd"/>
<path id="Shape2DView_nwe0144"  d="M 5.0 5.893 L 4.999999999999999 6.807 " stroke="#191919" stroke-width="0.35 px" style="stroke-width:0.35;stroke-miterlimit:4;stroke-dasharray:none;fill:none;fill-opacity:1;fill-rule: evenodd"/>
<path id="Shape2DView_nwe0145"  d="M 3.499999999999982 5.893 L 3.499999999999981 6.8069999999999995 " stroke="#191919" stroke-width="0.35 px" style="stroke-width:0.35;stroke-miterlimit:4;stroke-dasharray:none;fill:none;fill-opacity:1;fill-rule: evenodd"/>
<path id="Shape2DView_nwe0146"  d="M 5.66 6.807 L 5.660000000000001 5.893 " stroke="#191919" stroke-width="0.35 px" style="stroke-width:0.35;stroke-miterlimit:4;stroke-dasharray:none;fill:none;fill-opacity:1;fill-rule: evenodd"/>
<path id="Shape2DView_nwe0147"  d="M 3.4999999999999956 -4.267 L 3.4999999999999942 -3.3530000000000006 " stroke="#191919" stroke-width="0.35 px" style="stroke-width:0.35;stroke-miterlimit:4;stroke-dasharray:none;fill:none;fill-opacity:1;fill-rule: evenodd"/>
<path id="Shape2DView_nwe0148"  d="M 5.66 -3.353 L 5.660000000000001 -4.267 " stroke="#191919" stroke-width="0.35 px" style="stroke-width:0.35;stroke-miterlimit:4;stroke-dasharray:none;fill:none;fill-opacity:1;fill-rule: evenodd"/>
<path id="Shape2DView_nwe0149"  d="M 5.0 -4.267 L 4.999999999999999 -3.353 " stroke="#191919" stroke-width="0.35 px" style="stroke-width:0.35;stroke-miterlimit:4;stroke-dasharray:none;fill:none;fill-opacity:1;fill-rule: evenodd"/>
<path id="Shape2DView_nwe0150"  d="M 5.0 3.353 L 4.999999999999999 4.267 " stroke="#191919" stroke-width="0.35 px" style="stroke-width:0.35;stroke-miterlimit:4;stroke-dasharray:none;fill:none;fill-opacity:1;fill-rule: evenodd"/>
<path id="Shape2DView_nwe0151"  d="M 3.4999999999999853 3.3530000000000006 L 3.499999999999984 4.267 " stroke="#191919" stroke-width="0.35 px" style="stroke-width:0.35;stroke-miterlimit:4;stroke-dasharray:none;fill:none;fill-opacity:1;fill-rule: evenodd"/>
<path id="Shape2DView_nwe0152"  d="M 5.66 4.267 L 5.660000000000001 3.353 " stroke="#191919" stroke-width="0.35 px" style="stroke-width:0.35;stroke-miterlimit:4;stroke-dasharray:none;fill:none;fill-opacity:1;fill-rule: evenodd"/>
<path id="Shape2DView_nwe0153"  d="M 3.499999999999992 -1.7270000000000003 L 3.499999999999991 -0.8129999999999997 " stroke="#191919" stroke-width="0.35 px" style="stroke-width:0.35;stroke-miterlimit:4;stroke-dasharray:none;fill:none;fill-opacity:1;fill-rule: evenodd"/>
<path id="Shape2DView_nwe0154"  d="M 5.66 -0.813 L 5.660000000000001 -1.727 " stroke="#191919" stroke-width="0.35 px" style="stroke-width:0.35;stroke-miterlimit:4;stroke-dasharray:none;fill:none;fill-opacity:1;fill-rule: evenodd"/>
<path id="Shape2DView_nwe0155"  d="M 5.0 -1.727 L 4.999999999999999 -0.813 " stroke="#191919" stroke-width="0.35 px" style="stroke-width:0.35;stroke-miterlimit:4;stroke-dasharray:none;fill:none;fill-opacity:1;fill-rule: evenodd"/>
<path id="Shape2DView_nwe0156"  d="M 5.0 0.813 L 4.999999999999999 1.727 " stroke="#191919" stroke-width="0.35 px" style="stroke-width:0.35;stroke-miterlimit:4;stroke-dasharray:none;fill:none;fill-opacity:1;fill-rule: evenodd"/>
<path id="Shape2DView_nwe0157"  d="M 3.499999999999989 0.8129999999999997 L 3.4999999999999876 1.7269999999999994 " stroke="#191919" stroke-width="0.35 px" style="stroke-width:0.35;stroke-miterlimit:4;stroke-dasharray:none;fill:none;fill-opacity:1;fill-rule: evenodd"/>
<path id="Shape2DView_nwe0158"  d="M 5.66 1.727 L 5.660000000000001 0.813 " stroke="#191919" stroke-width="0.35 px" style="stroke-width:0.35;stroke-miterlimit:4;stroke-dasharray:none;fill:none;fill-opacity:1;fill-rule: evenodd"/>
<path id="Shape2DView_nwe0159"  d="M -3.425 7.545 L -3.101276356577 7.221276356577 " stroke="#191919" stroke-width="0.35 px" style="stroke-width:0.35;stroke-miterlimit:4;stroke-dasharray:none;fill:none;fill-opacity:1;fill-rule: evenodd"/>
<path id="Shape2DView_nwe0160"  d="M -0.7462405778300001 7.221276356576995 L -3.101276356577 7.221276356576992 " stroke="#191919" stroke-width="0.35 px" style="stroke-width:0.35;stroke-miterlimit:4;stroke-dasharray:none;fill:none;fill-opacity:1;fill-rule: evenodd"/>
<path id="Shape2DView_nwe0161"  d="M -0.7493474955903655 7.327554637412058 L -0.74624057783 7.221276356577 " stroke="#191919" stroke-width="0.35 px" style="stroke-width:0.35;stroke-miterlimit:4;stroke-dasharray:none;fill:none;fill-opacity:1;fill-rule: evenodd"/>
<path id="Shape2DView_nwe0162"  d="M -0.749347495591 7.327554637412 L 0.749347495591 7.327554637412 " stroke="#191919" stroke-width="0.35 px" style="stroke-width:0.35;stroke-miterlimit:4;stroke-dasharray:none;fill:none;fill-opacity:1;fill-rule: evenodd"/>
<path id="Shape2DView_nwe0163"  d="M 0.7493474955903655 7.327554637412058 L 0.74624057783 7.221276356577 " stroke="#191919" stroke-width="0.35 px" style="stroke-width:0.35;stroke-miterlimit:4;stroke-dasharray:none;fill:none;fill-opacity:1;fill-rule: evenodd"/>
<path id="Shape2DView_nwe0164"  d="M 3.101276356577 7.221276356577 L 0.7462405778300001 7.221276356576997 " stroke="#191919" stroke-width="0.35 px" style="stroke-width:0.35;stroke-miterlimit:4;stroke-dasharray:none;fill:none;fill-opacity:1;fill-rule: evenodd"/>
<path id="Shape2DView_nwe0165"  d="M -3.424999999999999 6.807 L -3.4249999999999976 5.893 " stroke="#191919" stroke-width="0.35 px" style="stroke-width:0.35;stroke-miterlimit:4;stroke-dasharray:none;fill:none;fill-opacity:1;fill-rule: evenodd"/>
<path id="Shape2DView_nwe0166"  d="M -3.4249999999999954 4.267 L -3.424999999999994 3.3529999999999998 " stroke="#191919" stroke-width="0.35 px" style="stroke-width:0.35;stroke-miterlimit:4;stroke-dasharray:none;fill:none;fill-opacity:1;fill-rule: evenodd"/>
<path id="Shape2DView_nwe0167"  d="M -3.4249999999999923 1.7270000000000003 L -3.424999999999991 0.8129999999999997 " stroke="#191919" stroke-width="0.35 px" style="stroke-width:0.35;stroke-miterlimit:4;stroke-dasharray:none;fill:none;fill-opacity:1;fill-rule: evenodd"/>
<path id="Shape2DView_nwe0168"  d="M -3.4249999999999887 -0.8130000000000006 L -3.4249999999999874 -1.7270000000000003 " stroke="#191919" stroke-width="0.35 px" style="stroke-width:0.35;stroke-miterlimit:4;stroke-dasharray:none;fill:none;fill-opacity:1;fill-rule: evenodd"/>
<path id="Shape2DView_nwe0169"  d="M -3.424999999999985 -3.3529999999999998 L -3.4249999999999843 -4.267000000000001 " stroke="#191919" stroke-width="0.35 px" style="stroke-width:0.35;stroke-miterlimit:4;stroke-dasharray:none;fill:none;fill-opacity:1;fill-rule: evenodd"/>
<path id="Shape2DView_nwe0170"  d="M -3.424999999999982 -5.892999999999999 L -3.4249999999999807 -6.807 " stroke="#191919" stroke-width="0.35 px" style="stroke-width:0.35;stroke-miterlimit:4;stroke-dasharray:none;fill:none;fill-opacity:1;fill-rule: evenodd"/>
<path id="Shape2DView_nwe0171"  d="M -3.425 -7.545 L -3.101276356577 -7.221276356577 " stroke="#191919" stroke-width="0.35 px" style="stroke-width:0.35;stroke-miterlimit:4;stroke-dasharray:none;fill:none;fill-opacity:1;fill-rule: evenodd"/>
<path id="Shape2DView_nwe0172"  d="M -3.101276356577 7.221276356577 L -3.1012763565769808 -7.221276356577 " stroke="#191919" stroke-width="0.35 px" style="stroke-width:0.35;stroke-miterlimit:4;stroke-dasharray:none;fill:none;fill-opacity:1;fill-rule: evenodd"/>
<path id="Shape2DView_nwe0173"  d="M -3.499999999999999 6.807 L -3.499999999999998 5.893 " stroke="#191919" stroke-width="0.35 px" style="stroke-width:0.35;stroke-miterlimit:4;stroke-dasharray:none;fill:none;fill-opacity:1;fill-rule: evenodd"/>
<path id="Shape2DView_nwe0174"  d="M -5.0 6.807 L -4.999999999999999 5.893 " stroke="#191919" stroke-width="0.35 px" style="stroke-width:0.35;stroke-miterlimit:4;stroke-dasharray:none;fill:none;fill-opacity:1;fill-rule: evenodd"/>
<path id="Shape2DView_nwe0175"  d="M -5.66 5.893 L -5.660000000000001 6.807 " stroke="#191919" stroke-width="0.35 px" style="stroke-width:0.35;stroke-miterlimit:4;stroke-dasharray:none;fill:none;fill-opacity:1;fill-rule: evenodd"/>
<path id="Shape2DView_nwe0176"  d="M -5.0 5.893 L -5.000000000000001 6.807 " stroke="#191919" stroke-width="0.35 px" style="stroke-width:0.35;stroke-miterlimit:4;stroke-dasharray:none;fill:none;fill-opacity:1;fill-rule: evenodd"/>
<path id="Shape2DView_nwe0177"  d="M -5.0 -5.893 L -4.999999999999999 -6.807 " stroke="#191919" stroke-width="0.35 px" style="stroke-width:0.35;stroke-miterlimit:4;stroke-dasharray:none;fill:none;fill-opacity:1;fill-rule: evenodd"/>
<path id="Shape2DView_nwe0178"  d="M -3.499999999999982 -5.893 L -3.499999999999981 -6.8069999999999995 " stroke="#191919" stroke-width="0.35 px" style="stroke-width:0.35;stroke-miterlimit:4;stroke-dasharray:none;fill:none;fill-opacity:1;fill-rule: evenodd"/>
<path id="Shape2DView_nwe0179"  d="M -5.66 -6.807 L -5.660000000000001 -5.893 " stroke="#191919" stroke-width="0.35 px" style="stroke-width:0.35;stroke-miterlimit:4;stroke-dasharray:none;fill:none;fill-opacity:1;fill-rule: evenodd"/>
<path id="Shape2DView_nwe0180"  d="M -3.4999999999999956 4.267 L -3.4999999999999942 3.3530000000000006 " stroke="#191919" stroke-width="0.35 px" style="stroke-width:0.35;stroke-miterlimit:4;stroke-dasharray:none;fill:none;fill-opacity:1;fill-rule: evenodd"/>
<path id="Shape2DView_nwe0181"  d="M -5.66 3.353 L -5.660000000000001 4.267 " stroke="#191919" stroke-width="0.35 px" style="stroke-width:0.35;stroke-miterlimit:4;stroke-dasharray:none;fill:none;fill-opacity:1;fill-rule: evenodd"/>
<path id="Shape2DView_nwe0182"  d="M -5.0 4.267 L -4.999999999999999 3.353 " stroke="#191919" stroke-width="0.35 px" style="stroke-width:0.35;stroke-miterlimit:4;stroke-dasharray:none;fill:none;fill-opacity:1;fill-rule: evenodd"/>
<path id="Shape2DView_nwe0183"  d="M -5.0 -3.353 L -4.999999999999999 -4.267 " stroke="#191919" stroke-width="0.35 px" style="stroke-width:0.35;stroke-miterlimit:4;stroke-dasharray:none;fill:none;fill-opacity:1;fill-rule: evenodd"/>
<path id="Shape2DView_nwe0184"  d="M -3.4999999999999853 -3.3530000000000006 L -3.499999999999984 -4.267 " stroke="#191919" stroke-width="0.35 px" style="stroke-width:0.35;stroke-miterlimit:4;stroke-dasharray:none;fill:none;fill-opacity:1;fill-rule: evenodd"/>
<path id="Shape2DView_nwe0185"  d="M -5.66 -4.267 L -5.660000000000001 -3.353 " stroke="#191919" stroke-width="0.35 px" style="stroke-width:0.35;stroke-miterlimit:4;stroke-dasharray:none;fill:none;fill-opacity:1;fill-rule: evenodd"/>
<path id="Shape2DView_nwe0186"  d="M -3.499999999999992 1.7270000000000003 L -3.499999999999991 0.8129999999999997 " stroke="#191919" stroke-width="0.35 px" style="stroke-width:0.35;stroke-miterlimit:4;stroke-dasharray:none;fill:none;fill-opacity:1;fill-rule: evenodd"/>
<path id="Shape2DView_nwe0187"  d="M -5.66 0.813 L -5.660000000000001 1.727 " stroke="#191919" stroke-width="0.35 px" style="stroke-width:0.35;stroke-miterlimit:4;stroke-dasharray:none;fill:none;fill-opacity:1;fill-rule: evenodd"/>
<path id="Shape2DView_nwe0188"  d="M -5.0 1.727 L -4.999999999999999 0.813 " stroke="#191919" stroke-width="0.35 px" style="stroke-width:0.35;stroke-miterlimit:4;stroke-dasharray:none;fill:none;fill-opacity:1;fill-rule: evenodd"/>
<path id="Shape2DView_nwe0189"  d="M -5.0 -0.813 L -4.999999999999999 -1.727 " stroke="#191919" stroke-width="0.35 px" style="stroke-width:0.35;stroke-miterlimit:4;stroke-dasharray:none;fill:none;fill-opacity:1;fill-rule: evenodd"/>
<path id="Shape2DView_nwe0190"  d="M -3.499999999999989 -0.8129999999999997 L -3.4999999999999876 -1.7269999999999994 " stroke="#191919" stroke-width="0.35 px" style="stroke-width:0.35;stroke-miterlimit:4;stroke-dasharray:none;fill:none;fill-opacity:1;fill-rule: evenodd"/>
<path id="Shape2DView_nwe0191"  d="M -5.66 -1.727 L -5.660000000000001 -0.813 " stroke="#191919" stroke-width="0.35 px" style="stroke-width:0.35;stroke-miterlimit:4;stroke-dasharray:none;fill:none;fill-opacity:1;fill-rule: evenodd"/>
<path id="Shape2DView_nwe0192"  d="M -3.101276356577 -7.221276356577 L 3.101276356577 -7.221276356576992 " stroke="#191919" stroke-width="0.35 px" style="stroke-width:0.35;stroke-miterlimit:4;stroke-dasharray:none;fill:none;fill-opacity:1;fill-rule: evenodd"/>
<path id="Shape2DView_nwe0193"  d="M -1.84403507331075e-14 6.546276356577 A 0.75 0.75 0 0 0 -0.746241 7.22128" stroke="#191919" stroke-width="0.35 px" style="stroke-width:0.35;stroke-miterlimit:4;stroke-dasharray:none;fill:none;fill-opacity:1;fill-rule: evenodd"/>
<path id="Shape2DView_nwe0194"  d="M 0.7462405778299462 7.221276356577006 A 0.75 0.75 0 0 0 -1.82567e-14 6.54628" stroke="#191919" stroke-width="0.35 px" style="stroke-width:0.35;stroke-miterlimit:4;stroke-dasharray:none;fill:none;fill-opacity:1;fill-rule: evenodd"/>
<path id="Shape2DView_nwe0195"  d="M -0.746240577829984 7.221276356576995 A 0.75 0.75 0 0 0 -0.749347 7.32755" stroke="#191919" stroke-width="0.35 px" style="stroke-width:0.35;stroke-miterlimit:4;stroke-dasharray:none;fill:none;fill-opacity:1;fill-rule: evenodd"/>
<path id="Shape2DView_nwe0196"  d="M 0.7493474955906496 7.3275546374119855 A 0.75 0.75 0 0 0 0.746241 7.22128" stroke="#191919" stroke-width="0.35 px" style="stroke-width:0.35;stroke-miterlimit:4;stroke-dasharray:none;fill:none;fill-opacity:1;fill-rule: evenodd"/>
<path id="Shape2DView_nwe0197"  d="M 5.127 -6.807 L 5.126999999999999 -5.893 " stroke="#191919" stroke-width="0.35 px" style="stroke-width:0.35;stroke-miterlimit:4;stroke-dasharray:none;fill:none;fill-opacity:1;fill-rule: evenodd"/>
<path id="Shape2DView_nwe0198"  d="M 4.619 -5.893 L 4.619000000000001 -6.807 " stroke="#191919" stroke-width="0.35 px" style="stroke-width:0.35;stroke-miterlimit:4;stroke-dasharray:none;fill:none;fill-opacity:1;fill-rule: evenodd"/>
<path id="Shape2DView_nwe0199"  d="M 4.619 5.893 L 4.618999999999999 6.807 " stroke="#191919" stroke-width="0.35 px" style="stroke-width:0.35;stroke-miterlimit:4;stroke-dasharray:none;fill:none;fill-opacity:1;fill-rule: evenodd"/>
<path id="Shape2DView_nwe0200"  d="M 5.127 5.893 L 5.126999999999999 6.807 " stroke="#191919" stroke-width="0.35 px" style="stroke-width:0.35;stroke-miterlimit:4;stroke-dasharray:none;fill:none;fill-opacity:1;fill-rule: evenodd"/>
<path id="Shape2DView_nwe0201"  d="M 5.127 -4.267 L 5.126999999999999 -3.353 " stroke="#191919" stroke-width="0.35 px" style="stroke-width:0.35;stroke-miterlimit:4;stroke-dasharray:none;fill:none;fill-opacity:1;fill-rule: evenodd"/>
<path id="Shape2DView_nwe0202"  d="M 4.619 -4.267 L 4.618999999999999 -3.353 " stroke="#191919" stroke-width="0.35 px" style="stroke-width:0.35;stroke-miterlimit:4;stroke-dasharray:none;fill:none;fill-opacity:1;fill-rule: evenodd"/>
<path id="Shape2DView_nwe0203"  d="M 4.619 3.353 L 4.618999999999999 4.267 " stroke="#191919" stroke-width="0.35 px" style="stroke-width:0.35;stroke-miterlimit:4;stroke-dasharray:none;fill:none;fill-opacity:1;fill-rule: evenodd"/>
<path id="Shape2DView_nwe0204"  d="M 5.127 3.353 L 5.126999999999999 4.267 " stroke="#191919" stroke-width="0.35 px" style="stroke-width:0.35;stroke-miterlimit:4;stroke-dasharray:none;fill:none;fill-opacity:1;fill-rule: evenodd"/>
<path id="Shape2DView_nwe0205"  d="M 5.127 -1.727 L 5.126999999999999 -0.813 " stroke="#191919" stroke-width="0.35 px" style="stroke-width:0.35;stroke-miterlimit:4;stroke-dasharray:none;fill:none;fill-opacity:1;fill-rule: evenodd"/>
<path id="Shape2DView_nwe0206"  d="M 4.619 -1.727 L 4.618999999999999 -0.813 " stroke="#191919" stroke-width="0.35 px" style="stroke-width:0.35;stroke-miterlimit:4;stroke-dasharray:none;fill:none;fill-opacity:1;fill-rule: evenodd"/>
<path id="Shape2DView_nwe0207"  d="M 4.619 0.813 L 4.618999999999999 1.727 " stroke="#191919" stroke-width="0.35 px" style="stroke-width:0.35;stroke-miterlimit:4;stroke-dasharray:none;fill:none;fill-opacity:1;fill-rule: evenodd"/>
<path id="Shape2DView_nwe0208"  d="M 5.127 0.813 L 5.126999999999999 1.727 " stroke="#191919" stroke-width="0.35 px" style="stroke-width:0.35;stroke-miterlimit:4;stroke-dasharray:none;fill:none;fill-opacity:1;fill-rule: evenodd"/>
<path id="Shape2DView_nwe0209"  d="M -5.127 6.807 L -5.126999999999999 5.893 " stroke="#191919" stroke-width="0.35 px" style="stroke-width:0.35;stroke-miterlimit:4;stroke-dasharray:none;fill:none;fill-opacity:1;fill-rule: evenodd"/>
<path id="Shape2DView_nwe0210"  d="M -4.619 5.893 L -4.619000000000001 6.807 " stroke="#191919" stroke-width="0.35 px" style="stroke-width:0.35;stroke-miterlimit:4;stroke-dasharray:none;fill:none;fill-opacity:1;fill-rule: evenodd"/>
<path id="Shape2DView_nwe0211"  d="M -4.619 -5.893 L -4.618999999999999 -6.807 " stroke="#191919" stroke-width="0.35 px" style="stroke-width:0.35;stroke-miterlimit:4;stroke-dasharray:none;fill:none;fill-opacity:1;fill-rule: evenodd"/>
<path id="Shape2DView_nwe0212"  d="M -5.127 -5.893 L -5.126999999999999 -6.807 " stroke="#191919" stroke-width="0.35 px" style="stroke-width:0.35;stroke-miterlimit:4;stroke-dasharray:none;fill:none;fill-opacity:1;fill-rule: evenodd"/>
<path id="Shape2DView_nwe0213"  d="M -5.127 4.267 L -5.126999999999999 3.353 " stroke="#191919" stroke-width="0.35 px" style="stroke-width:0.35;stroke-miterlimit:4;stroke-dasharray:none;fill:none;fill-opacity:1;fill-rule: evenodd"/>
<path id="Shape2DView_nwe0214"  d="M -4.619 4.267 L -4.618999999999999 3.353 " stroke="#191919" stroke-width="0.35 px" style="stroke-width:0.35;stroke-miterlimit:4;stroke-dasharray:none;fill:none;fill-opacity:1;fill-rule: evenodd"/>
<path id="Shape2DView_nwe0215"  d="M -4.619 -3.353 L -4.618999999999999 -4.267 " stroke="#191919" stroke-width="0.35 px" style="stroke-width:0.35;stroke-miterlimit:4;stroke-dasharray:none;fill:none;fill-opacity:1;fill-rule: evenodd"/>
<path id="Shape2DView_nwe0216"  d="M -5.127 -3.353 L -5.126999999999999 -4.267 " stroke="#191919" stroke-width="0.35 px" style="stroke-width:0.35;stroke-miterlimit:4;stroke-dasharray:none;fill:none;fill-opacity:1;fill-rule: evenodd"/>
<path id="Shape2DView_nwe0217"  d="M -5.127 1.727 L -5.126999999999999 0.813 " stroke="#191919" stroke-width="0.35 px" style="stroke-width:0.35;stroke-miterlimit:4;stroke-dasharray:none;fill:none;fill-opacity:1;fill-rule: evenodd"/>
<path id="Shape2DView_nwe0218"  d="M -4.619 1.727 L -4.618999999999999 0.813 " stroke="#191919" stroke-width="0.35 px" style="stroke-width:0.35;stroke-miterlimit:4;stroke-dasharray:none;fill:none;fill-opacity:1;fill-rule: evenodd"/>
<path id="Shape2DView_nwe0219"  d="M -4.619 -0.813 L -4.618999999999999 -1.727 " stroke="#191919" stroke-width="0.35 px" style="stroke-width:0.35;stroke-miterlimit:4;stroke-dasharray:none;fill:none;fill-opacity:1;fill-rule: evenodd"/>
<path id="Shape2DView_nwe0220"  d="M -5.127 -0.813 L -5.126999999999999 -1.727 " stroke="#191919" stroke-width="0.35 px" style="stroke-width:0.35;stroke-miterlimit:4;stroke-dasharray:none;fill:none;fill-opacity:1;fill-rule: evenodd"/>
<path id="Shape2DView_nwe0221"  d="M 3.425 -6.806999999999996 L 3.5 -6.806999999999996 " stroke="#191919" stroke-width="0.35 px" style="stroke-width:0.35;stroke-miterlimit:4;stroke-dasharray:none;fill:none;fill-opacity:1;fill-rule: evenodd"/>
<path id="Shape2DView_nwe0222"  d="M 3.5 6.806999999999999 L 3.425 6.806999999999999 " stroke="#191919" stroke-width="0.35 px" style="stroke-width:0.35;stroke-miterlimit:4;stroke-dasharray:none;fill:none;fill-opacity:1;fill-rule: evenodd"/>
<path id="Shape2DView_nwe0223"  d="M 3.5 -5.893000000000002 L 3.425 -5.893000000000002 " stroke="#191919" stroke-width="0.35 px" style="stroke-width:0.35;stroke-miterlimit:4;stroke-dasharray:none;fill:none;fill-opacity:1;fill-rule: evenodd"/>
<path id="Shape2DView_nwe0224"  d="M 3.5 -4.267000000000002 L 3.425 -4.267000000000002 " stroke="#191919" stroke-width="0.35 px" style="stroke-width:0.35;stroke-miterlimit:4;stroke-dasharray:none;fill:none;fill-opacity:1;fill-rule: evenodd"/>
<path id="Shape2DView_nwe0225"  d="M 3.5 4.266999999999999 L 3.425 4.266999999999999 " stroke="#191919" stroke-width="0.35 px" style="stroke-width:0.35;stroke-miterlimit:4;stroke-dasharray:none;fill:none;fill-opacity:1;fill-rule: evenodd"/>
<path id="Shape2DView_nwe0226"  d="M 3.5 5.892999999999998 L 3.425 5.892999999999998 " stroke="#191919" stroke-width="0.35 px" style="stroke-width:0.35;stroke-miterlimit:4;stroke-dasharray:none;fill:none;fill-opacity:1;fill-rule: evenodd"/>
<path id="Shape2DView_nwe0227"  d="M 3.5 -3.353000000000002 L 3.425 -3.353000000000002 " stroke="#191919" stroke-width="0.35 px" style="stroke-width:0.35;stroke-miterlimit:4;stroke-dasharray:none;fill:none;fill-opacity:1;fill-rule: evenodd"/>
<path id="Shape2DView_nwe0228"  d="M 3.5 -1.7270000000000019 L 3.425 -1.727000000000002 " stroke="#191919" stroke-width="0.35 px" style="stroke-width:0.35;stroke-miterlimit:4;stroke-dasharray:none;fill:none;fill-opacity:1;fill-rule: evenodd"/>
<path id="Shape2DView_nwe0229"  d="M 3.5 1.7269999999999983 L 3.425 1.726999999999998 " stroke="#191919" stroke-width="0.35 px" style="stroke-width:0.35;stroke-miterlimit:4;stroke-dasharray:none;fill:none;fill-opacity:1;fill-rule: evenodd"/>
<path id="Shape2DView_nwe0230"  d="M 3.5 3.3529999999999984 L 3.425 3.3529999999999984 " stroke="#191919" stroke-width="0.35 px" style="stroke-width:0.35;stroke-miterlimit:4;stroke-dasharray:none;fill:none;fill-opacity:1;fill-rule: evenodd"/>
<path id="Shape2DView_nwe0231"  d="M 3.5 -0.8130000000000017 L 3.425 -0.8130000000000018 " stroke="#191919" stroke-width="0.35 px" style="stroke-width:0.35;stroke-miterlimit:4;stroke-dasharray:none;fill:none;fill-opacity:1;fill-rule: evenodd"/>
<path id="Shape2DView_nwe0232"  d="M 3.5 0.8129999999999982 L 3.425 0.8129999999999981 " stroke="#191919" stroke-width="0.35 px" style="stroke-width:0.35;stroke-miterlimit:4;stroke-dasharray:none;fill:none;fill-opacity:1;fill-rule: evenodd"/>
<path id="Shape2DView_nwe0233"  d="M -3.425 6.806999999999996 L -3.5 6.806999999999996 " stroke="#191919" stroke-width="0.35 px" style="stroke-width:0.35;stroke-miterlimit:4;stroke-dasharray:none;fill:none;fill-opacity:1;fill-rule: evenodd"/>
<path id="Shape2DView_nwe0234"  d="M -3.5 -6.806999999999999 L -3.425 -6.806999999999999 " stroke="#191919" stroke-width="0.35 px" style="stroke-width:0.35;stroke-miterlimit:4;stroke-dasharray:none;fill:none;fill-opacity:1;fill-rule: evenodd"/>
<path id="Shape2DView_nwe0235"  d="M -3.5 5.893000000000002 L -3.425 5.893000000000002 " stroke="#191919" stroke-width="0.35 px" style="stroke-width:0.35;stroke-miterlimit:4;stroke-dasharray:none;fill:none;fill-opacity:1;fill-rule: evenodd"/>
<path id="Shape2DView_nwe0236"  d="M -3.5 4.267000000000002 L -3.425 4.267000000000002 " stroke="#191919" stroke-width="0.35 px" style="stroke-width:0.35;stroke-miterlimit:4;stroke-dasharray:none;fill:none;fill-opacity:1;fill-rule: evenodd"/>
<path id="Shape2DView_nwe0237"  d="M -3.5 -4.266999999999999 L -3.425 -4.266999999999999 " stroke="#191919" stroke-width="0.35 px" style="stroke-width:0.35;stroke-miterlimit:4;stroke-dasharray:none;fill:none;fill-opacity:1;fill-rule: evenodd"/>
<path id="Shape2DView_nwe0238"  d="M -3.5 -5.892999999999998 L -3.425 -5.892999999999998 " stroke="#191919" stroke-width="0.35 px" style="stroke-width:0.35;stroke-miterlimit:4;stroke-dasharray:none;fill:none;fill-opacity:1;fill-rule: evenodd"/>
<path id="Shape2DView_nwe0239"  d="M -3.5 3.353000000000002 L -3.425 3.3530000000000024 " stroke="#191919" stroke-width="0.35 px" style="stroke-width:0.35;stroke-miterlimit:4;stroke-dasharray:none;fill:none;fill-opacity:1;fill-rule: evenodd"/>
<path id="Shape2DView_nwe0240"  d="M -3.5 1.727000000000002 L -3.425 1.727000000000002 " stroke="#191919" stroke-width="0.35 px" style="stroke-width:0.35;stroke-miterlimit:4;stroke-dasharray:none;fill:none;fill-opacity:1;fill-rule: evenodd"/>
<path id="Shape2DView_nwe0241"  d="M -3.5 -1.726999999999998 L -3.425 -1.726999999999998 " stroke="#191919" stroke-width="0.35 px" style="stroke-width:0.35;stroke-miterlimit:4;stroke-dasharray:none;fill:none;fill-opacity:1;fill-rule: evenodd"/>
<path id="Shape2DView_nwe0242"  d="M -3.5 -3.3529999999999984 L -3.425 -3.352999999999998 " stroke="#191919" stroke-width="0.35 px" style="stroke-width:0.35;stroke-miterlimit:4;stroke-dasharray:none;fill:none;fill-opacity:1;fill-rule: evenodd"/>
<path id="Shape2DView_nwe0243"  d="M -3.5 0.8130000000000019 L -3.425 0.813000000000002 " stroke="#191919" stroke-width="0.35 px" style="stroke-width:0.35;stroke-miterlimit:4;stroke-dasharray:none;fill:none;fill-opacity:1;fill-rule: evenodd"/>
<path id="Shape2DView_nwe0244"  d="M -3.5 -0.812999999999998 L -3.425 -0.8129999999999978 " stroke="#191919" stroke-width="0.35 px" style="stroke-width:0.35;stroke-miterlimit:4;stroke-dasharray:none;fill:none;fill-opacity:1;fill-rule: evenodd"/>
<title>b'Shape2DView'</title>
</g>
<g id="Rectangle" transform="translate(5.773200,7.733200) scale(1,-1)">
<rect fill="#ff0000" id="origin" width="1" height="1" x="0" y="0" />
<title>b'Rectangle'</title>
</g>
</svg>