<?xml version="1.0"?>
<!DOCTYPE svg PUBLIC "-//W3C//DTD SVG 1.1//EN" "http://www.w3.org/Graphics/SVG/1.1/DTD/svg11.dtd">
<svg width="9.506400000000003mm" height="12.4364mm" viewBox="0 0 9.506400000000003 12.4364" xmlns="http://www.w3.org/2000/svg" version="1.1">
<g id="Shape2DView" transform="translate(4.753200,6.218200) scale(1,-1)">
<path id="Shape2DView_nwe0000"  d="M 3.5 -6.125 L 3.499999999999999 -5.537 " stroke="#191919" stroke-width="0.35 px" style="stroke-width:0.35;stroke-miterlimit:4;stroke-dasharray:none;fill:none;fill-opacity:1;fill-rule: evenodd"/>
<path id="Shape2DView_nwe0001"  d="M 3.4999999999999845 5.536999999999999 L 3.4999999999999836 6.125 " stroke="#191919" stroke-width="0.35 px" style="stroke-width:0.35;stroke-miterlimit:4;stroke-dasharray:none;fill:none;fill-opacity:1;fill-rule: evenodd"/>
<path id="Shape2DView_nwe0002"  d="M 3.499999999999998 -4.623 L 3.499999999999996 -2.997 " stroke="#191919" stroke-width="0.35 px" style="stroke-width:0.35;stroke-miterlimit:4;stroke-dasharray:none;fill:none;fill-opacity:1;fill-rule: evenodd"/>
<path id="Shape2DView_nwe0003"  d="M 3.499999999999988 2.997 L 3.499999999999986 4.623000000000001 " stroke="#191919" stroke-width="0.35 px" style="stroke-width:0.35;stroke-miterlimit:4;stroke-dasharray:none;fill:none;fill-opacity:1;fill-rule: evenodd"/>
<path id="Shape2DView_nwe0004"  d="M 3.4999999999999947 -2.083 L 3.4999999999999925 -0.45699999999999985 " stroke="#191919" stroke-width="0.35 px" style="stroke-width:0.35;stroke-miterlimit:4;stroke-dasharray:none;fill:none;fill-opacity:1;fill-rule: evenodd"/>
<path id="Shape2DView_nwe0005"  d="M 3.499999999999991 0.45699999999999985 L 3.499999999999989 2.083 " stroke="#191919" stroke-width="0.35 px" style="stroke-width:0.35;stroke-miterlimit:4;stroke-dasharray:none;fill:none;fill-opacity:1;fill-rule: evenodd"/>
<path id="Shape2DView_nwe0006"  d="M 3.5 6.125 L -3.5 6.124999999999991 " stroke="#191919" stroke-width="0.35 px" style="stroke-width:0.35;stroke-miterlimit:4;stroke-dasharray:none;fill:none;fill-opacity:1;fill-rule: evenodd"/>
<path id="Shape2DView_nwe0007"  d="M -3.5 6.125 L -3.499999999999999 5.537 " stroke="#191919" stroke-width="0.35 px" style="stroke-width:0.35;stroke-miterlimit:4;stroke-dasharray:none;fill:none;fill-opacity:1;fill-rule: evenodd"/>
<path id="Shape2DView_nwe0008"  d="M -3.4999999999999845 -5.536999999999999 L -3.4999999999999836 -6.125 " stroke="#191919" stroke-width="0.35 px" style="stroke-width:0.35;stroke-miterlimit:4;stroke-dasharray:none;fill:none;fill-opacity:1;fill-rule: evenodd"/>
<path id="Shape2DView_nwe0009"  d="M -3.499999999999998 4.623 L -3.499999999999996 2.997 " stroke="#191919" stroke-width="0.35 px" style="stroke-width:0.35;stroke-miterlimit:4;stroke-dasharray:none;fill:none;fill-opacity:1;fill-rule: evenodd"/>
<path id="Shape2DView_nwe0010"  d="M -3.499999999999988 -2.997 L -3.499999999999986 -4.623000000000001 " stroke="#191919" stroke-width="0.35 px" style="stroke-width:0.35;stroke-miterlimit:4;stroke-dasharray:none;fill:none;fill-opacity:1;fill-rule: evenodd"/>
<path id="Shape2DView_nwe0011"  d="M -3.4999999999999947 2.083 L -3.4999999999999925 0.45699999999999985 " stroke="#191919" stroke-width="0.35 px" style="stroke-width:0.35;stroke-miterlimit:4;stroke-dasharray:none;fill:none;fill-opacity:1;fill-rule: evenodd"/>
<path id="Shape2DView_nwe0012"  d="M -3.499999999999991 -0.45699999999999985 L -3.499999999999989 -2.083 " stroke="#191919" stroke-width="0.35 px" style="stroke-width:0.35;stroke-miterlimit:4;stroke-dasharray:none;fill:none;fill-opacity:1;fill-rule: evenodd"/>
<path id="Shape2DView_nwe0013"  d="M -3.5 -6.125 L 3.5 -6.124999999999991 " stroke="#191919" stroke-width="0.35 px" style="stroke-width:0.35;stroke-miterlimit:4;stroke-dasharray:none;fill:none;fill-opacity:1;fill-rule: evenodd"/>
<path id="Shape2DView_nwe0014"  d="M 3.5 -6.125 L 3.425 -6.05 " stroke="#191919" stroke-width="0.35 px" style="stroke-width:0.35;stroke-miterlimit:4;stroke-dasharray:none;fill:none;fill-opacity:1;fill-rule: evenodd"/>
<path id="Shape2DView_nwe0015"  d="M 3.425 -6.05 L 3.424999999999999 -5.537 " stroke="#191919" stroke-width="0.35 px" style="stroke-width:0.35;stroke-miterlimit:4;stroke-dasharray:none;fill:none;fill-opacity:1;fill-rule: evenodd"/>
<path id="Shape2DView_nwe0016"  d="M 4.0 -5.537 L 4.000798549343558 -5.537 L 4.003184155152908 -5.537 L 4.007126817050837 -5.537 L 4.012576953776392 -5.537 L 4.019466026698008 -5.537 L 4.02770740172656 -5.537 L 4.037197438789308 -5.537 L 4.047816795163941 -5.537 L 4.059431926282552 -5.537 L 4.071896765132069 -5.537 L 4.085054559131693 -5.537 L 4.098739841387548 -5.537 L 4.112780511534879 -5.537 L 4.127 -5.537 " stroke="#191919" stroke-width="0.35 px" style="stroke-width:0.35;stroke-miterlimit:4;stroke-dasharray:none;fill:none;fill-opacity:1;fill-rule: evenodd"/>
<path id="Shape2DView_nwe0017"  d="M 3.619 -5.537 L 3.6616584653953606 -5.537 L 3.703780475837356 -5.537 L 3.744836322604919 -5.537 L 3.78430970460379 -5.537 L 3.8217042211523435 -5.537 L 3.856549614508178 -5.537 L 3.888407683632075 -5.537 L 3.9168777948203197 -5.537 L 3.9416019199059766 -5.537 L 3.962269138670822 -5.537 L 3.9786195488474885 -5.537 L 3.990447534541275 -5.536999999999999 L 3.9976043519693256 -5.536999999999999 L 4.0 -5.536999999999999 " stroke="#191919" stroke-width="0.35 px" style="stroke-width:0.35;stroke-miterlimit:4;stroke-dasharray:none;fill:none;fill-opacity:1;fill-rule: evenodd"/>
<path id="Shape2DView_nwe0018"  d="M 3.5 -5.5369999999999955 L 3.6190000000000007 -5.5369999999999955 " stroke="#191919" stroke-width="0.35 px" style="stroke-width:0.35;stroke-miterlimit:4;stroke-dasharray:none;fill:none;fill-opacity:1;fill-rule: evenodd"/>
<path id="Shape2DView_nwe0019"  d="M 4.66 -5.537 L 4.127 -5.537000000000001 " stroke="#191919" stroke-width="0.35 px" style="stroke-width:0.35;stroke-miterlimit:4;stroke-dasharray:none;fill:none;fill-opacity:1;fill-rule: evenodd"/>
<path id="Shape2DView_nwe0020"  d="M 4.0 5.537 L 4.000798549343558 5.537 L 4.003184155152908 5.537 L 4.007126817050837 5.537 L 4.012576953776392 5.537 L 4.019466026698008 5.537 L 4.02770740172656 5.537 L 4.037197438789308 5.537 L 4.047816795163941 5.537 L 4.059431926282552 5.537 L 4.071896765132069 5.537 L 4.085054559131693 5.537 L 4.098739841387548 5.537 L 4.112780511534879 5.537 L 4.127 5.537 " stroke="#191919" stroke-width="0.35 px" style="stroke-width:0.35;stroke-miterlimit:4;stroke-dasharray:none;fill:none;fill-opacity:1;fill-rule: evenodd"/>
<path id="Shape2DView_nwe0021"  d="M 4.127 5.537000000000001 L 4.66 5.537000000000001 " stroke="#191919" stroke-width="0.35 px" style="stroke-width:0.35;stroke-miterlimit:4;stroke-dasharray:none;fill:none;fill-opacity:1;fill-rule: evenodd"/>
<path id="Shape2DView_nwe0022"  d="M 3.619 5.536999999999999 L 3.5 5.536999999999999 " stroke="#191919" stroke-width="0.35 px" style="stroke-width:0.35;stroke-miterlimit:4;stroke-dasharray:none;fill:none;fill-opacity:1;fill-rule: evenodd"/>
<path id="Shape2DView_nwe0023"  d="M 3.619 5.537 L 3.6616584653953606 5.537 L 3.703780475837356 5.537 L 3.744836322604919 5.537 L 3.78430970460379 5.537 L 3.8217042211523435 5.537 L 3.8565496145081775 5.537 L 3.888407683632075 5.537 L 3.9168777948203197 5.537 L 3.9416019199059766 5.537 L 3.962269138670822 5.537 L 3.9786195488474885 5.537 L 3.990447534541275 5.537000000000001 L 3.9976043519693256 5.537000000000001 L 4.0 5.537000000000001 " stroke="#191919" stroke-width="0.35 px" style="stroke-width:0.35;stroke-miterlimit:4;stroke-dasharray:none;fill:none;fill-opacity:1;fill-rule: evenodd"/>
<path id="Shape2DView_nwe0024"  d="M 3.5 6.125 L 3.425 6.05 " stroke="#191919" stroke-width="0.35 px" style="stroke-width:0.35;stroke-miterlimit:4;stroke-dasharray:none;fill:none;fill-opacity:1;fill-rule: evenodd"/>
<path id="Shape2DView_nwe0025"  d="M 3.4249999999999843 5.537 L 3.424999999999984 6.05 " stroke="#191919" stroke-width="0.35 px" style="stroke-width:0.35;stroke-miterlimit:4;stroke-dasharray:none;fill:none;fill-opacity:1;fill-rule: evenodd"/>
<path id="Shape2DView_nwe0026"  d="M 4.0 -4.623 L 4.000798549343558 -4.623 L 4.003184155152908 -4.623 L 4.007126817050837 -4.623 L 4.012576953776392 -4.623 L 4.019466026698008 -4.623 L 4.02770740172656 -4.623 L 4.037197438789308 -4.623 L 4.047816795163941 -4.623 L 4.059431926282552 -4.623 L 4.071896765132069 -4.623 L 4.085054559131693 -4.623 L 4.098739841387548 -4.623 L 4.112780511534879 -4.623 L 4.127 -4.623 " stroke="#191919" stroke-width="0.35 px" style="stroke-width:0.35;stroke-miterlimit:4;stroke-dasharray:none;fill:none;fill-opacity:1;fill-rule: evenodd"/>
<path id="Shape2DView_nwe0027"  d="M 4.127 -4.622999999999999 L 4.66 -4.622999999999999 " stroke="#191919" stroke-width="0.35 px" style="stroke-width:0.35;stroke-miterlimit:4;stroke-dasharray:none;fill:none;fill-opacity:1;fill-rule: evenodd"/>
<path id="Shape2DView_nwe0028"  d="M 3.619 -4.623 L 3.5 -4.623000000000001 " stroke="#191919" stroke-width="0.35 px" style="stroke-width:0.35;stroke-miterlimit:4;stroke-dasharray:none;fill:none;fill-opacity:1;fill-rule: evenodd"/>
<path id="Shape2DView_nwe0029"  d="M 3.619 -4.623 L 3.6616584653953606 -4.623 L 3.703780475837356 -4.623 L 3.744836322604919 -4.623 L 3.78430970460379 -4.623 L 3.8217042211523435 -4.623 L 3.856549614508178 -4.623 L 3.888407683632075 -4.623 L 3.9168777948203197 -4.623 L 3.9416019199059766 -4.623 L 3.962269138670822 -4.623 L 3.9786195488474885 -4.623 L 3.990447534541275 -4.622999999999999 L 3.9976043519693256 -4.622999999999999 L 4.0 -4.622999999999999 " stroke="#191919" stroke-width="0.35 px" style="stroke-width:0.35;stroke-miterlimit:4;stroke-dasharray:none;fill:none;fill-opacity:1;fill-rule: evenodd"/>
<path id="Shape2DView_nwe0030"  d="M 4.0 4.623 L 4.000798549343558 4.623 L 4.003184155152908 4.623 L 4.007126817050837 4.623 L 4.012576953776392 4.623 L 4.019466026698008 4.623 L 4.02770740172656 4.623 L 4.037197438789308 4.623 L 4.047816795163941 4.623 L 4.059431926282552 4.623 L 4.071896765132069 4.623 L 4.085054559131693 4.623 L 4.098739841387548 4.623 L 4.112780511534879 4.623 L 4.127 4.623 " stroke="#191919" stroke-width="0.35 px" style="stroke-width:0.35;stroke-miterlimit:4;stroke-dasharray:none;fill:none;fill-opacity:1;fill-rule: evenodd"/>
<path id="Shape2DView_nwe0031"  d="M 3.619 4.623 L 3.6616584653953606 4.623 L 3.703780475837356 4.623 L 3.744836322604919 4.623 L 3.78430970460379 4.623 L 3.8217042211523435 4.623 L 3.8565496145081775 4.623 L 3.888407683632075 4.623 L 3.9168777948203197 4.623 L 3.9416019199059766 4.623 L 3.962269138670822 4.623 L 3.9786195488474885 4.623 L 3.990447534541275 4.623000000000001 L 3.9976043519693256 4.623000000000001 L 4.0 4.623000000000001 " stroke="#191919" stroke-width="0.35 px" style="stroke-width:0.35;stroke-miterlimit:4;stroke-dasharray:none;fill:none;fill-opacity:1;fill-rule: evenodd"/>
<path id="Shape2DView_nwe0032"  d="M 3.619 4.622999999999999 L 3.5 4.622999999999999 " stroke="#191919" stroke-width="0.35 px" style="stroke-width:0.35;stroke-miterlimit:4;stroke-dasharray:none;fill:none;fill-opacity:1;fill-rule: evenodd"/>
<path id="Shape2DView_nwe0033"  d="M 4.66 4.623 L 4.127 4.622999999999999 " stroke="#191919" stroke-width="0.35 px" style="stroke-width:0.35;stroke-miterlimit:4;stroke-dasharray:none;fill:none;fill-opacity:1;fill-rule: evenodd"/>
<path id="Shape2DView_nwe0034"  d="M 3.424999999999998 -4.623 L 3.424999999999996 -2.997 " stroke="#191919" stroke-width="0.35 px" style="stroke-width:0.35;stroke-miterlimit:4;stroke-dasharray:none;fill:none;fill-opacity:1;fill-rule: evenodd"/>
<path id="Shape2DView_nwe0035"  d="M 4.0 -2.997 L 4.000798549343558 -2.997 L 4.003184155152908 -2.997 L 4.007126817050837 -2.997 L 4.012576953776392 -2.997 L 4.019466026698008 -2.997 L 4.02770740172656 -2.997 L 4.037197438789308 -2.997 L 4.047816795163941 -2.997 L 4.059431926282552 -2.997 L 4.071896765132069 -2.997 L 4.085054559131693 -2.997 L 4.098739841387548 -2.997 L 4.112780511534879 -2.997 L 4.127 -2.997 " stroke="#191919" stroke-width="0.35 px" style="stroke-width:0.35;stroke-miterlimit:4;stroke-dasharray:none;fill:none;fill-opacity:1;fill-rule: evenodd"/>
<path id="Shape2DView_nwe0036"  d="M 3.619 -2.997 L 3.6616584653953606 -2.997 L 3.703780475837356 -2.997 L 3.744836322604919 -2.997 L 3.78430970460379 -2.997 L 3.8217042211523435 -2.9969999999999994 L 3.8565496145081775 -2.9969999999999994 L 3.888407683632075 -2.9969999999999994 L 3.9168777948203197 -2.9969999999999994 L 3.9416019199059766 -2.9969999999999994 L 3.962269138670822 -2.9969999999999994 L 3.9786195488474885 -2.9969999999999994 L 3.990447534541275 -2.9969999999999994 L 3.9976043519693256 -2.9969999999999994 L 4.0 -2.9969999999999994 " stroke="#191919" stroke-width="0.35 px" style="stroke-width:0.35;stroke-miterlimit:4;stroke-dasharray:none;fill:none;fill-opacity:1;fill-rule: evenodd"/>
<path id="Shape2DView_nwe0037"  d="M 3.619 -2.9970000000000003 L 3.5 -2.9970000000000003 " stroke="#191919" stroke-width="0.35 px" style="stroke-width:0.35;stroke-miterlimit:4;stroke-dasharray:none;fill:none;fill-opacity:1;fill-rule: evenodd"/>
<path id="Shape2DView_nwe0038"  d="M 4.66 -2.997 L 4.127 -2.9970000000000003 " stroke="#191919" stroke-width="0.35 px" style="stroke-width:0.35;stroke-miterlimit:4;stroke-dasharray:none;fill:none;fill-opacity:1;fill-rule: evenodd"/>
<path id="Shape2DView_nwe0039"  d="M 4.0 2.997 L 4.000798549343558 2.997 L 4.003184155152908 2.997 L 4.007126817050837 2.997 L 4.012576953776392 2.997 L 4.019466026698008 2.997 L 4.02770740172656 2.997 L 4.037197438789308 2.997 L 4.047816795163941 2.997 L 4.059431926282552 2.997 L 4.071896765132069 2.997 L 4.085054559131693 2.997 L 4.098739841387548 2.997 L 4.112780511534879 2.997 L 4.127 2.997 " stroke="#191919" stroke-width="0.35 px" style="stroke-width:0.35;stroke-miterlimit:4;stroke-dasharray:none;fill:none;fill-opacity:1;fill-rule: evenodd"/>
<path id="Shape2DView_nwe0040"  d="M 4.127 2.9970000000000003 L 4.66 2.9970000000000008 " stroke="#191919" stroke-width="0.35 px" style="stroke-width:0.35;stroke-miterlimit:4;stroke-dasharray:none;fill:none;fill-opacity:1;fill-rule: evenodd"/>
<path id="Shape2DView_nwe0041"  d="M 3.619 2.9969999999999994 L 3.5 2.9969999999999994 " stroke="#191919" stroke-width="0.35 px" style="stroke-width:0.35;stroke-miterlimit:4;stroke-dasharray:none;fill:none;fill-opacity:1;fill-rule: evenodd"/>
<path id="Shape2DView_nwe0042"  d="M 3.619 2.997 L 3.6616584653953606 2.997 L 3.703780475837356 2.997 L 3.744836322604919 2.997 L 3.78430970460379 2.997 L 3.8217042211523435 2.9970000000000003 L 3.8565496145081775 2.9970000000000003 L 3.888407683632075 2.9970000000000003 L 3.9168777948203197 2.9970000000000003 L 3.9416019199059766 2.9970000000000003 L 3.962269138670822 2.9970000000000003 L 3.9786195488474885 2.9970000000000003 L 3.990447534541275 2.9970000000000003 L 3.9976043519693256 2.9970000000000003 L 4.0 2.9970000000000003 " stroke="#191919" stroke-width="0.35 px" style="stroke-width:0.35;stroke-miterlimit:4;stroke-dasharray:none;fill:none;fill-opacity:1;fill-rule: evenodd"/>
<path id="Shape2DView_nwe0043"  d="M 3.424999999999988 2.9970000000000008 L 3.4249999999999856 4.623 " stroke="#191919" stroke-width="0.35 px" style="stroke-width:0.35;stroke-miterlimit:4;stroke-dasharray:none;fill:none;fill-opacity:1;fill-rule: evenodd"/>
<path id="Shape2DView_nwe0044"  d="M 4.0 -2.083 L 4.000798549343558 -2.083 L 4.003184155152908 -2.083 L 4.007126817050837 -2.083 L 4.012576953776392 -2.083 L 4.019466026698008 -2.083 L 4.02770740172656 -2.083 L 4.037197438789308 -2.083 L 4.047816795163941 -2.083 L 4.059431926282552 -2.083 L 4.071896765132069 -2.083 L 4.085054559131693 -2.083 L 4.098739841387548 -2.083 L 4.112780511534879 -2.083 L 4.127 -2.083 " stroke="#191919" stroke-width="0.35 px" style="stroke-width:0.35;stroke-miterlimit:4;stroke-dasharray:none;fill:none;fill-opacity:1;fill-rule: evenodd"/>
<path id="Shape2DView_nwe0045"  d="M 4.127 -2.0829999999999997 L 4.66 -2.0829999999999993 " stroke="#191919" stroke-width="0.35 px" style="stroke-width:0.35;stroke-miterlimit:4;stroke-dasharray:none;fill:none;fill-opacity:1;fill-rule: evenodd"/>
<path id="Shape2DView_nwe0046"  d="M 3.619 -2.0830000000000006 L 3.5 -2.0830000000000006 " stroke="#191919" stroke-width="0.35 px" style="stroke-width:0.35;stroke-miterlimit:4;stroke-dasharray:none;fill:none;fill-opacity:1;fill-rule: evenodd"/>
<path id="Shape2DView_nwe0047"  d="M 3.619 -2.083 L 3.6616584653953606 -2.083 L 3.703780475837356 -2.083 L 3.744836322604919 -2.083 L 3.78430970460379 -2.083 L 3.8217042211523435 -2.0829999999999997 L 3.8565496145081775 -2.0829999999999997 L 3.888407683632075 -2.0829999999999997 L 3.9168777948203197 -2.0829999999999997 L 3.9416019199059766 -2.0829999999999997 L 3.962269138670822 -2.0829999999999997 L 3.9786195488474885 -2.0829999999999997 L 3.990447534541275 -2.0829999999999997 L 3.9976043519693256 -2.0829999999999997 L 4.0 -2.0829999999999997 " stroke="#191919" stroke-width="0.35 px" style="stroke-width:0.35;stroke-miterlimit:4;stroke-dasharray:none;fill:none;fill-opacity:1;fill-rule: evenodd"/>
<path id="Shape2DView_nwe0048"  d="M 4.0 2.083 L 4.000798549343558 2.083 L 4.003184155152908 2.083 L 4.007126817050837 2.083 L 4.012576953776392 2.083 L 4.019466026698008 2.083 L 4.02770740172656 2.083 L 4.037197438789308 2.083 L 4.047816795163941 2.083 L 4.059431926282552 2.083 L 4.071896765132069 2.083 L 4.085054559131693 2.083 L 4.098739841387548 2.083 L 4.112780511534879 2.083 L 4.127 2.083 " stroke="#191919" stroke-width="0.35 px" style="stroke-width:0.35;stroke-miterlimit:4;stroke-dasharray:none;fill:none;fill-opacity:1;fill-rule: evenodd"/>
<path id="Shape2DView_nwe0049"  d="M 3.619 2.083 L 3.6616584653953606 2.083 L 3.703780475837356 2.083 L 3.744836322604919 2.083 L 3.78430970460379 2.083 L 3.8217042211523435 2.0830000000000006 L 3.8565496145081775 2.0830000000000006 L 3.888407683632075 2.0830000000000006 L 3.9168777948203197 2.0830000000000006 L 3.9416019199059766 2.0830000000000006 L 3.962269138670822 2.0830000000000006 L 3.9786195488474885 2.0830000000000006 L 3.990447534541275 2.0830000000000006 L 3.9976043519693256 2.0830000000000006 L 4.0 2.0830000000000006 " stroke="#191919" stroke-width="0.35 px" style="stroke-width:0.35;stroke-miterlimit:4;stroke-dasharray:none;fill:none;fill-opacity:1;fill-rule: evenodd"/>
<path id="Shape2DView_nwe0050"  d="M 3.619 2.0829999999999997 L 3.5 2.0829999999999997 " stroke="#191919" stroke-width="0.35 px" style="stroke-width:0.35;stroke-miterlimit:4;stroke-dasharray:none;fill:none;fill-opacity:1;fill-rule: evenodd"/>
<path id="Shape2DView_nwe0051"  d="M 4.66 2.083 L 4.127 2.0829999999999997 " stroke="#191919" stroke-width="0.35 px" style="stroke-width:0.35;stroke-miterlimit:4;stroke-dasharray:none;fill:none;fill-opacity:1;fill-rule: evenodd"/>
<path id="Shape2DView_nwe0052"  d="M 3.4249999999999945 -2.083 L 3.4249999999999923 -0.45699999999999985 " stroke="#191919" stroke-width="0.35 px" style="stroke-width:0.35;stroke-miterlimit:4;stroke-dasharray:none;fill:none;fill-opacity:1;fill-rule: evenodd"/>
<path id="Shape2DView_nwe0053"  d="M 4.0 -0.4570000000000002 L 4.000798549343558 -0.4570000000000002 L 4.003184155152908 -0.4570000000000002 L 4.007126817050837 -0.4570000000000002 L 4.012576953776392 -0.45700000000000013 L 4.019466026698008 -0.45700000000000013 L 4.02770740172656 -0.45700000000000013 L 4.037197438789308 -0.45700000000000013 L 4.047816795163941 -0.45700000000000013 L 4.059431926282552 -0.4570000000000001 L 4.071896765132069 -0.4570000000000001 L 4.085054559131693 -0.4570000000000001 L 4.098739841387548 -0.4570000000000001 L 4.112780511534879 -0.457 L 4.127 -0.457 " stroke="#191919" stroke-width="0.35 px" style="stroke-width:0.35;stroke-miterlimit:4;stroke-dasharray:none;fill:none;fill-opacity:1;fill-rule: evenodd"/>
<path id="Shape2DView_nwe0054"  d="M 3.619 -0.457 L 3.6616584653953606 -0.45699999999999996 L 3.703780475837356 -0.4569999999999999 L 3.744836322604919 -0.45699999999999985 L 3.78430970460379 -0.4569999999999998 L 3.8217042211523435 -0.4569999999999998 L 3.8565496145081775 -0.45699999999999974 L 3.888407683632075 -0.4569999999999997 L 3.9168777948203197 -0.4569999999999997 L 3.9416019199059766 -0.45699999999999963 L 3.962269138670822 -0.45699999999999963 L 3.9786195488474885 -0.4569999999999996 L 3.990447534541275 -0.4569999999999996 L 3.9976043519693256 -0.4569999999999996 L 4.0 -0.4569999999999996 " stroke="#191919" stroke-width="0.35 px" style="stroke-width:0.35;stroke-miterlimit:4;stroke-dasharray:none;fill:none;fill-opacity:1;fill-rule: evenodd"/>
<path id="Shape2DView_nwe0055"  d="M 3.619 -0.45700000000000046 L 3.5 -0.45700000000000063 " stroke="#191919" stroke-width="0.35 px" style="stroke-width:0.35;stroke-miterlimit:4;stroke-dasharray:none;fill:none;fill-opacity:1;fill-rule: evenodd"/>
<path id="Shape2DView_nwe0056"  d="M 4.66 -0.457 L 4.127 -0.4570000000000007 " stroke="#191919" stroke-width="0.35 px" style="stroke-width:0.35;stroke-miterlimit:4;stroke-dasharray:none;fill:none;fill-opacity:1;fill-rule: evenodd"/>
<path id="Shape2DView_nwe0057"  d="M 4.0 0.45699999999999985 L 4.000798549343558 0.45699999999999985 L 4.003184155152908 0.45699999999999985 L 4.007126817050837 0.45699999999999985 L 4.012576953776392 0.4569999999999999 L 4.019466026698008 0.4569999999999999 L 4.02770740172656 0.4569999999999999 L 4.037197438789308 0.4569999999999999 L 4.047816795163941 0.4569999999999999 L 4.059431926282552 0.45699999999999996 L 4.071896765132069 0.45699999999999996 L 4.085054559131693 0.45699999999999996 L 4.098739841387548 0.45699999999999996 L 4.112780511534879 0.457 L 4.127 0.457 " stroke="#191919" stroke-width="0.35 px" style="stroke-width:0.35;stroke-miterlimit:4;stroke-dasharray:none;fill:none;fill-opacity:1;fill-rule: evenodd"/>
<path id="Shape2DView_nwe0058"  d="M 4.127 0.45700000000000046 L 4.66 0.4570000000000011 " stroke="#191919" stroke-width="0.35 px" style="stroke-width:0.35;stroke-miterlimit:4;stroke-dasharray:none;fill:none;fill-opacity:1;fill-rule: evenodd"/>
<path id="Shape2DView_nwe0059"  d="M 3.619 0.4569999999999996 L 3.5 0.4569999999999994 " stroke="#191919" stroke-width="0.35 px" style="stroke-width:0.35;stroke-miterlimit:4;stroke-dasharray:none;fill:none;fill-opacity:1;fill-rule: evenodd"/>
<path id="Shape2DView_nwe0060"  d="M 3.619 0.457 L 3.6616584653953606 0.4570000000000001 L 3.703780475837356 0.45700000000000013 L 3.744836322604919 0.4570000000000002 L 3.78430970460379 0.45700000000000024 L 3.8217042211523435 0.45700000000000024 L 3.8565496145081775 0.4570000000000003 L 3.888407683632075 0.45700000000000035 L 3.9168777948203197 0.45700000000000035 L 3.9416019199059766 0.4570000000000004 L 3.962269138670822 0.4570000000000004 L 3.9786195488474885 0.45700000000000046 L 3.990447534541275 0.45700000000000046 L 3.9976043519693256 0.45700000000000046 L 4.0 0.45700000000000046 " stroke="#191919" stroke-width="0.35 px" style="stroke-width:0.35;stroke-miterlimit:4;stroke-dasharray:none;fill:none;fill-opacity:1;fill-rule: evenodd"/>
<path id="Shape2DView_nwe0061"  d="M 3.424999999999991 0.45699999999999985 L 3.424999999999989 2.0829999999999993 " stroke="#191919" stroke-width="0.35 px" style="stroke-width:0.35;stroke-miterlimit:4;stroke-dasharray:none;fill:none;fill-opacity:1;fill-rule: evenodd"/>
<path id="Shape2DView_nwe0062"  d="M -3.5 6.125 L -3.425 6.05 " stroke="#191919" stroke-width="0.35 px" style="stroke-width:0.35;stroke-miterlimit:4;stroke-dasharray:none;fill:none;fill-opacity:1;fill-rule: evenodd"/>
<path id="Shape2DView_nwe0063"  d="M 3.425 6.05 L -3.425 6.049999999999991 " stroke="#191919" stroke-width="0.35 px" style="stroke-width:0.35;stroke-miterlimit:4;stroke-dasharray:none;fill:none;fill-opacity:1;fill-rule: evenodd"/>
<path id="Shape2DView_nwe0064"  d="M -3.425 6.05 L -3.424999999999999 5.537 " stroke="#191919" stroke-width="0.35 px" style="stroke-width:0.35;stroke-miterlimit:4;stroke-dasharray:none;fill:none;fill-opacity:1;fill-rule: evenodd"/>
<path id="Shape2DView_nwe0065"  d="M -4.0 5.537 L -4.000798549343558 5.537 L -4.003184155152908 5.537 L -4.007126817050837 5.537 L -4.012576953776392 5.537 L -4.019466026698008 5.537 L -4.02770740172656 5.537 L -4.037197438789308 5.537 L -4.047816795163941 5.537 L -4.059431926282552 5.537 L -4.071896765132069 5.537 L -4.085054559131693 5.537 L -4.098739841387548 5.537 L -4.112780511534879 5.537 L -4.127 5.537 " stroke="#191919" stroke-width="0.35 px" style="stroke-width:0.35;stroke-miterlimit:4;stroke-dasharray:none;fill:none;fill-opacity:1;fill-rule: evenodd"/>
<path id="Shape2DView_nwe0066"  d="M -3.619 5.537 L -3.6616584653953606 5.537 L -3.703780475837356 5.537 L -3.744836322604919 5.537 L -3.78430970460379 5.537 L -3.8217042211523435 5.537 L -3.856549614508178 5.537 L -3.888407683632075 5.537 L -3.9168777948203197 5.537 L -3.9416019199059766 5.537 L -3.962269138670822 5.536999999999999 L -3.9786195488474885 5.536999999999999 L -3.990447534541275 5.536999999999999 L -3.9976043519693256 5.536999999999999 L -4.0 5.536999999999999 " stroke="#191919" stroke-width="0.35 px" style="stroke-width:0.35;stroke-miterlimit:4;stroke-dasharray:none;fill:none;fill-opacity:1;fill-rule: evenodd"/>
<path id="Shape2DView_nwe0067"  d="M -3.5 5.5369999999999955 L -3.6190000000000007 5.536999999999995 " stroke="#191919" stroke-width="0.35 px" style="stroke-width:0.35;stroke-miterlimit:4;stroke-dasharray:none;fill:none;fill-opacity:1;fill-rule: evenodd"/>
<path id="Shape2DView_nwe0068"  d="M -4.66 5.537 L -4.127 5.537000000000001 " stroke="#191919" stroke-width="0.35 px" style="stroke-width:0.35;stroke-miterlimit:4;stroke-dasharray:none;fill:none;fill-opacity:1;fill-rule: evenodd"/>
<path id="Shape2DView_nwe0069"  d="M -4.0 -5.537 L -4.000798549343558 -5.537 L -4.003184155152908 -5.537 L -4.007126817050837 -5.537 L -4.012576953776392 -5.537 L -4.019466026698008 -5.537 L -4.02770740172656 -5.537 L -4.037197438789308 -5.537 L -4.047816795163941 -5.537 L -4.059431926282552 -5.537 L -4.071896765132069 -5.537 L -4.085054559131693 -5.537 L -4.098739841387548 -5.537 L -4.112780511534879 -5.537 L -4.127 -5.537 " stroke="#191919" stroke-width="0.35 px" style="stroke-width:0.35;stroke-miterlimit:4;stroke-dasharray:none;fill:none;fill-opacity:1;fill-rule: evenodd"/>
<path id="Shape2DView_nwe0070"  d="M -4.127 -5.537000000000001 L -4.66 -5.537000000000001 " stroke="#191919" stroke-width="0.35 px" style="stroke-width:0.35;stroke-miterlimit:4;stroke-dasharray:none;fill:none;fill-opacity:1;fill-rule: evenodd"/>
<path id="Shape2DView_nwe0071"  d="M -3.619 -5.536999999999999 L -3.5 -5.536999999999999 " stroke="#191919" stroke-width="0.35 px" style="stroke-width:0.35;stroke-miterlimit:4;stroke-dasharray:none;fill:none;fill-opacity:1;fill-rule: evenodd"/>
<path id="Shape2DView_nwe0072"  d="M -3.619 -5.537 L -3.6616584653953606 -5.537 L -3.703780475837356 -5.537 L -3.744836322604919 -5.537 L -3.78430970460379 -5.537 L -3.8217042211523435 -5.537 L -3.8565496145081775 -5.537 L -3.888407683632075 -5.537 L -3.9168777948203197 -5.537 L -3.9416019199059766 -5.537 L -3.962269138670822 -5.537000000000001 L -3.9786195488474885 -5.537000000000001 L -3.990447534541275 -5.537000000000001 L -3.9976043519693256 -5.537000000000001 L -4.0 -5.537000000000001 " stroke="#191919" stroke-width="0.35 px" style="stroke-width:0.35;stroke-miterlimit:4;stroke-dasharray:none;fill:none;fill-opacity:1;fill-rule: evenodd"/>
<path id="Shape2DView_nwe0073"  d="M -3.5 -6.125 L -3.425 -6.05 " stroke="#191919" stroke-width="0.35 px" style="stroke-width:0.35;stroke-miterlimit:4;stroke-dasharray:none;fill:none;fill-opacity:1;fill-rule: evenodd"/>
<path id="Shape2DView_nwe0074"  d="M -3.4249999999999843 -5.537 L -3.424999999999984 -6.05 " stroke="#191919" stroke-width="0.35 px" style="stroke-width:0.35;stroke-miterlimit:4;stroke-dasharray:none;fill:none;fill-opacity:1;fill-rule: evenodd"/>
<path id="Shape2DView_nwe0075"  d="M -4.0 4.623 L -4.000798549343558 4.623 L -4.003184155152908 4.623 L -4.007126817050837 4.623 L -4.012576953776392 4.623 L -4.019466026698008 4.623 L -4.02770740172656 4.623 L -4.037197438789308 4.623 L -4.047816795163941 4.623 L -4.059431926282552 4.623 L -4.071896765132069 4.623 L -4.085054559131693 4.623 L -4.098739841387548 4.623 L -4.112780511534879 4.623 L -4.127 4.623 " stroke="#191919" stroke-width="0.35 px" style="stroke-width:0.35;stroke-miterlimit:4;stroke-dasharray:none;fill:none;fill-opacity:1;fill-rule: evenodd"/>
<path id="Shape2DView_nwe0076"  d="M -4.127 4.622999999999999 L -4.66 4.622999999999999 " stroke="#191919" stroke-width="0.35 px" style="stroke-width:0.35;stroke-miterlimit:4;stroke-dasharray:none;fill:none;fill-opacity:1;fill-rule: evenodd"/>
<path id="Shape2DView_nwe0077"  d="M -3.619 4.623 L -3.5 4.623000000000001 " stroke="#191919" stroke-width="0.35 px" style="stroke-width:0.35;stroke-miterlimit:4;stroke-dasharray:none;fill:none;fill-opacity:1;fill-rule: evenodd"/>
<path id="Shape2DView_nwe0078"  d="M -3.619 4.623 L -3.6616584653953606 4.623 L -3.703780475837356 4.623 L -3.744836322604919 4.623 L -3.78430970460379 4.623 L -3.8217042211523435 4.623 L -3.856549614508178 4.623 L -3.888407683632075 4.623 L -3.9168777948203197 4.623 L -3.9416019199059766 4.623 L -3.962269138670822 4.622999999999999 L -3.9786195488474885 4.622999999999999 L -3.990447534541275 4.622999999999999 L -3.9976043519693256 4.622999999999999 L -4.0 4.622999999999999 " stroke="#191919" stroke-width="0.35 px" style="stroke-width:0.35;stroke-miterlimit:4;stroke-dasharray:none;fill:none;fill-opacity:1;fill-rule: evenodd"/>
<path id="Shape2DView_nwe0079"  d="M -4.0 -4.623 L -4.000798549343558 -4.623 L -4.003184155152908 -4.623 L -4.007126817050837 -4.623 L -4.012576953776392 -4.623 L -4.019466026698008 -4.623 L -4.02770740172656 -4.623 L -4.037197438789308 -4.623 L -4.047816795163941 -4.623 L -4.059431926282552 -4.623 L -4.071896765132069 -4.623 L -4.085054559131693 -4.623 L -4.098739841387548 -4.623 L -4.112780511534879 -4.623 L -4.127 -4.623 " stroke="#191919" stroke-width="0.35 px" style="stroke-width:0.35;stroke-miterlimit:4;stroke-dasharray:none;fill:none;fill-opacity:1;fill-rule: evenodd"/>
<path id="Shape2DView_nwe0080"  d="M -3.619 -4.623 L -3.6616584653953606 -4.623 L -3.703780475837356 -4.623 L -3.744836322604919 -4.623 L -3.78430970460379 -4.623 L -3.8217042211523435 -4.623 L -3.8565496145081775 -4.623 L -3.888407683632075 -4.623 L -3.9168777948203197 -4.623 L -3.9416019199059766 -4.623 L -3.962269138670822 -4.623000000000001 L -3.9786195488474885 -4.623000000000001 L -3.990447534541275 -4.623000000000001 L -3.9976043519693256 -4.623000000000001 L -4.0 -4.623000000000001 " stroke="#191919" stroke-width="0.35 px" style="stroke-width:0.35;stroke-miterlimit:4;stroke-dasharray:none;fill:none;fill-opacity:1;fill-rule: evenodd"/>
<path id="Shape2DView_nwe0081"  d="M -3.619 -4.622999999999999 L -3.5 -4.622999999999999 " stroke="#191919" stroke-width="0.35 px" style="stroke-width:0.35;stroke-miterlimit:4;stroke-dasharray:none;fill:none;fill-opacity:1;fill-rule: evenodd"/>
<path id="Shape2DView_nwe0082"  d="M -4.66 -4.623 L -4.127 -4.622999999999999 " stroke="#191919" stroke-width="0.35 px" style="stroke-width:0.35;stroke-miterlimit:4;stroke-dasharray:none;fill:none;fill-opacity:1;fill-rule: evenodd"/>
<path id="Shape2DView_nwe0083"  d="M -3.424999999999998 4.623 L -3.424999999999996 2.997 " stroke="#191919" stroke-width="0.35 px" style="stroke-width:0.35;stroke-miterlimit:4;stroke-dasharray:none;fill:none;fill-opacity:1;fill-rule: evenodd"/>
<path id="Shape2DView_nwe0084"  d="M -4.0 2.997 L -4.000798549343558 2.997 L -4.003184155152908 2.997 L -4.007126817050837 2.997 L -4.012576953776392 2.997 L -4.019466026698008 2.997 L -4.02770740172656 2.997 L -4.037197438789308 2.997 L -4.047816795163941 2.997 L -4.059431926282552 2.997 L -4.071896765132069 2.997 L -4.085054559131693 2.997 L -4.098739841387548 2.997 L -4.112780511534879 2.997 L -4.127 2.997 " stroke="#191919" stroke-width="0.35 px" style="stroke-width:0.35;stroke-miterlimit:4;stroke-dasharray:none;fill:none;fill-opacity:1;fill-rule: evenodd"/>
<path id="Shape2DView_nwe0085"  d="M -3.619 2.997 L -3.6616584653953606 2.997 L -3.703780475837356 2.997 L -3.744836322604919 2.997 L -3.78430970460379 2.997 L -3.8217042211523435 2.9969999999999994 L -3.8565496145081775 2.9969999999999994 L -3.888407683632075 2.9969999999999994 L -3.9168777948203197 2.9969999999999994 L -3.9416019199059766 2.9969999999999994 L -3.962269138670822 2.9969999999999994 L -3.9786195488474885 2.9969999999999994 L -3.990447534541275 2.9969999999999994 L -3.9976043519693256 2.9969999999999994 L -4.0 2.9969999999999994 " stroke="#191919" stroke-width="0.35 px" style="stroke-width:0.35;stroke-miterlimit:4;stroke-dasharray:none;fill:none;fill-opacity:1;fill-rule: evenodd"/>
<path id="Shape2DView_nwe0086"  d="M -3.619 2.9970000000000003 L -3.5 2.9970000000000003 " stroke="#191919" stroke-width="0.35 px" style="stroke-width:0.35;stroke-miterlimit:4;stroke-dasharray:none;fill:none;fill-opacity:1;fill-rule: evenodd"/>
<path id="Shape2DView_nwe0087"  d="M -4.66 2.997 L -4.127 2.9970000000000008 " stroke="#191919" stroke-width="0.35 px" style="stroke-width:0.35;stroke-miterlimit:4;stroke-dasharray:none;fill:none;fill-opacity:1;fill-rule: evenodd"/>
<path id="Shape2DView_nwe0088"  d="M -4.0 -2.997 L -4.000798549343558 -2.997 L -4.003184155152908 -2.997 L -4.007126817050837 -2.997 L -4.012576953776392 -2.997 L -4.019466026698008 -2.997 L -4.02770740172656 -2.997 L -4.037197438789308 -2.997 L -4.047816795163941 -2.997 L -4.059431926282552 -2.997 L -4.071896765132069 -2.997 L -4.085054559131693 -2.997 L -4.098739841387548 -2.997 L -4.112780511534879 -2.997 L -4.127 -2.997 " stroke="#191919" stroke-width="0.35 px" style="stroke-width:0.35;stroke-miterlimit:4;stroke-dasharray:none;fill:none;fill-opacity:1;fill-rule: evenodd"/>
<path id="Shape2DView_nwe0089"  d="M -4.127 -2.9970000000000003 L -4.66 -2.997000000000001 " stroke="#191919" stroke-width="0.35 px" style="stroke-width:0.35;stroke-miterlimit:4;stroke-dasharray:none;fill:none;fill-opacity:1;fill-rule: evenodd"/>
<path id="Shape2DView_nwe0090"  d="M -3.619 -2.9969999999999994 L -3.5 -2.9969999999999994 " stroke="#191919" stroke-width="0.35 px" style="stroke-width:0.35;stroke-miterlimit:4;stroke-dasharray:none;fill:none;fill-opacity:1;fill-rule: evenodd"/>
<path id="Shape2DView_nwe0091"  d="M -3.619 -2.997 L -3.6616584653953606 -2.997 L -3.703780475837356 -2.997 L -3.744836322604919 -2.997 L -3.78430970460379 -2.997 L -3.8217042211523435 -2.9970000000000003 L -3.8565496145081775 -2.9970000000000003 L -3.888407683632075 -2.9970000000000003 L -3.9168777948203197 -2.9970000000000003 L -3.9416019199059766 -2.9970000000000003 L -3.962269138670822 -2.9970000000000003 L -3.9786195488474885 -2.9970000000000003 L -3.990447534541275 -2.9970000000000003 L -3.9976043519693256 -2.9970000000000003 L -4.0 -2.9970000000000003 " stroke="#191919" stroke-width="0.35 px" style="stroke-width:0.35;stroke-miterlimit:4;stroke-dasharray:none;fill:none;fill-opacity:1;fill-rule: evenodd"/>
<path id="Shape2DView_nwe0092"  d="M -3.424999999999988 -2.9970000000000008 L -3.4249999999999856 -4.623 " stroke="#191919" stroke-width="0.35 px" style="stroke-width:0.35;stroke-miterlimit:4;stroke-dasharray:none;fill:none;fill-opacity:1;fill-rule: evenodd"/>
<path id="Shape2DView_nwe0093"  d="M -4.0 2.083 L -4.000798549343558 2.083 L -4.003184155152908 2.083 L -4.007126817050837 2.083 L -4.012576953776392 2.083 L -4.019466026698008 2.083 L -4.02770740172656 2.083 L -4.037197438789308 2.083 L -4.047816795163941 2.083 L -4.059431926282552 2.083 L -4.071896765132069 2.083 L -4.085054559131693 2.083 L -4.098739841387548 2.083 L -4.112780511534879 2.083 L -4.127 2.083 " stroke="#191919" stroke-width="0.35 px" style="stroke-width:0.35;stroke-miterlimit:4;stroke-dasharray:none;fill:none;fill-opacity:1;fill-rule: evenodd"/>
<path id="Shape2DView_nwe0094"  d="M -4.127 2.0829999999999997 L -4.66 2.082999999999999 " stroke="#191919" stroke-width="0.35 px" style="stroke-width:0.35;stroke-miterlimit:4;stroke-dasharray:none;fill:none;fill-opacity:1;fill-rule: evenodd"/>
<path id="Shape2DView_nwe0095"  d="M -3.619 2.0830000000000006 L -3.5 2.0830000000000006 " stroke="#191919" stroke-width="0.35 px" style="stroke-width:0.35;stroke-miterlimit:4;stroke-dasharray:none;fill:none;fill-opacity:1;fill-rule: evenodd"/>
<path id="Shape2DView_nwe0096"  d="M -3.619 2.083 L -3.6616584653953606 2.083 L -3.703780475837356 2.083 L -3.744836322604919 2.083 L -3.78430970460379 2.083 L -3.8217042211523435 2.0829999999999997 L -3.8565496145081775 2.0829999999999997 L -3.888407683632075 2.0829999999999997 L -3.9168777948203197 2.0829999999999997 L -3.9416019199059766 2.0829999999999997 L -3.962269138670822 2.0829999999999997 L -3.9786195488474885 2.0829999999999997 L -3.990447534541275 2.0829999999999997 L -3.9976043519693256 2.0829999999999997 L -4.0 2.0829999999999997 " stroke="#191919" stroke-width="0.35 px" style="stroke-width:0.35;stroke-miterlimit:4;stroke-dasharray:none;fill:none;fill-opacity:1;fill-rule: evenodd"/>
<path id="Shape2DView_nwe0097"  d="M -4.0 -2.083 L -4.000798549343558 -2.083 L -4.003184155152908 -2.083 L -4.007126817050837 -2.083 L -4.012576953776392 -2.083 L -4.019466026698008 -2.083 L -4.02770740172656 -2.083 L -4.037197438789308 -2.083 L -4.047816795163941 -2.083 L -4.059431926282552 -2.083 L -4.071896765132069 -2.083 L -4.085054559131693 -2.083 L -4.098739841387548 -2.083 L -4.112780511534879 -2.083 L -4.127 -2.083 " stroke="#191919" stroke-width="0.35 px" style="stroke-width:0.35;stroke-miterlimit:4;stroke-dasharray:none;fill:none;fill-opacity:1;fill-rule: evenodd"/>
<path id="Shape2DView_nwe0098"  d="M -3.619 -2.083 L -3.6616584653953606 -2.083 L -3.703780475837356 -2.083 L -3.744836322604919 -2.083 L -3.78430970460379 -2.083 L -3.8217042211523435 -2.0830000000000006 L -3.8565496145081775 -2.0830000000000006 L -3.888407683632075 -2.0830000000000006 L -3.9168777948203197 -2.0830000000000006 L -3.9416019199059766 -2.0830000000000006 L -3.962269138670822 -2.0830000000000006 L -3.9786195488474885 -2.0830000000000006 L -3.990447534541275 -2.0830000000000006 L -3.9976043519693256 -2.0830000000000006 L -4.0 -2.0830000000000006 " stroke="#191919" stroke-width="0.35 px" style="stroke-width:0.35;stroke-miterlimit:4;stroke-dasharray:none;fill:none;fill-opacity:1;fill-rule: evenodd"/>
<path id="Shape2DView_nwe0099"  d="M -3.619 -2.0829999999999997 L -3.5 -2.0829999999999997 " stroke="#191919" stroke-width="0.35 px" style="stroke-width:0.35;stroke-miterlimit:4;stroke-dasharray:none;fill:none;fill-opacity:1;fill-rule: evenodd"/>
<path id="Shape2DView_nwe0100"  d="M -4.66 -2.083 L -4.127 -2.0829999999999993 " stroke="#191919" stroke-width="0.35 px" style="stroke-width:0.35;stroke-miterlimit:4;stroke-dasharray:none;fill:none;fill-opacity:1;fill-rule: evenodd"/>
<path id="Shape2DView_nwe0101"  d="M -3.4249999999999945 2.083 L -3.4249999999999923 0.45699999999999985 " stroke="#191919" stroke-width="0.35 px" style="stroke-width:0.35;stroke-miterlimit:4;stroke-dasharray:none;fill:none;fill-opacity:1;fill-rule: evenodd"/>
<path id="Shape2DView_nwe0102"  d="M -4.0 0.4570000000000002 L -4.000798549343558 0.4570000000000002 L -4.003184155152908 0.4570000000000002 L -4.007126817050837 0.4570000000000002 L -4.012576953776392 0.4570000000000002 L -4.019466026698008 0.4570000000000002 L -4.02770740172656 0.45700000000000013 L -4.037197438789308 0.45700000000000013 L -4.047816795163941 0.45700000000000013 L -4.059431926282552 0.45700000000000013 L -4.071896765132069 0.4570000000000001 L -4.085054559131693 0.4570000000000001 L -4.098739841387548 0.4570000000000001 L -4.112780511534879 0.457 L -4.127 0.457 " stroke="#191919" stroke-width="0.35 px" style="stroke-width:0.35;stroke-miterlimit:4;stroke-dasharray:none;fill:none;fill-opacity:1;fill-rule: evenodd"/>
<path id="Shape2DView_nwe0103"  d="M -3.619 0.457 L -3.6616584653953606 0.45699999999999996 L -3.703780475837356 0.4569999999999999 L -3.744836322604919 0.45699999999999985 L -3.78430970460379 0.4569999999999998 L -3.8217042211523435 0.45699999999999974 L -3.8565496145081775 0.4569999999999997 L -3.888407683632075 0.4569999999999997 L -3.9168777948203197 0.45699999999999963 L -3.9416019199059766 0.4569999999999996 L -3.962269138670822 0.4569999999999996 L -3.9786195488474885 0.4569999999999995 L -3.990447534541275 0.4569999999999995 L -3.9976043519693256 0.4569999999999995 L -4.0 0.4569999999999995 " stroke="#191919" stroke-width="0.35 px" style="stroke-width:0.35;stroke-miterlimit:4;stroke-dasharray:none;fill:none;fill-opacity:1;fill-rule: evenodd"/>
<path id="Shape2DView_nwe0104"  d="M -3.619 0.4570000000000005 L -3.5 0.4570000000000007 " stroke="#191919" stroke-width="0.35 px" style="stroke-width:0.35;stroke-miterlimit:4;stroke-dasharray:none;fill:none;fill-opacity:1;fill-rule: evenodd"/>
<path id="Shape2DView_nwe0105"  d="M -4.66 0.457 L -4.127 0.45700000000000074 " stroke="#191919" stroke-width="0.35 px" style="stroke-width:0.35;stroke-miterlimit:4;stroke-dasharray:none;fill:none;fill-opacity:1;fill-rule: evenodd"/>
<path id="Shape2DView_nwe0106"  d="M -4.0 -0.45699999999999985 L -4.000798549343558 -0.45699999999999985 L -4.003184155152908 -0.45699999999999985 L -4.007126817050837 -0.45699999999999985 L -4.012576953776392 -0.45699999999999985 L -4.019466026698008 -0.45699999999999985 L -4.02770740172656 -0.4569999999999999 L -4.037197438789308 -0.4569999999999999 L -4.047816795163941 -0.4569999999999999 L -4.059431926282552 -0.4569999999999999 L -4.071896765132069 -0.45699999999999996 L -4.085054559131693 -0.45699999999999996 L -4.098739841387548 -0.45699999999999996 L -4.112780511534879 -0.457 L -4.127 -0.457 " stroke="#191919" stroke-width="0.35 px" style="stroke-width:0.35;stroke-miterlimit:4;stroke-dasharray:none;fill:none;fill-opacity:1;fill-rule: evenodd"/>
<path id="Shape2DView_nwe0107"  d="M -4.127 -0.4570000000000005 L -4.66 -0.45700000000000124 " stroke="#191919" stroke-width="0.35 px" style="stroke-width:0.35;stroke-miterlimit:4;stroke-dasharray:none;fill:none;fill-opacity:1;fill-rule: evenodd"/>
<path id="Shape2DView_nwe0108"  d="M -3.619 -0.4569999999999995 L -3.5 -0.45699999999999935 " stroke="#191919" stroke-width="0.35 px" style="stroke-width:0.35;stroke-miterlimit:4;stroke-dasharray:none;fill:none;fill-opacity:1;fill-rule: evenodd"/>
<path id="Shape2DView_nwe0109"  d="M -3.619 -0.457 L -3.6616584653953606 -0.4570000000000001 L -3.703780475837356 -0.45700000000000013 L -3.744836322604919 -0.4570000000000002 L -3.78430970460379 -0.45700000000000024 L -3.8217042211523435 -0.4570000000000003 L -3.8565496145081775 -0.45700000000000035 L -3.888407683632075 -0.45700000000000035 L -3.9168777948203197 -0.4570000000000004 L -3.9416019199059766 -0.45700000000000046 L -3.962269138670822 -0.45700000000000046 L -3.9786195488474885 -0.4570000000000005 L -3.990447534541275 -0.4570000000000005 L -3.9976043519693256 -0.4570000000000005 L -4.0 -0.4570000000000005 " stroke="#191919" stroke-width="0.35 px" style="stroke-width:0.35;stroke-miterlimit:4;stroke-dasharray:none;fill:none;fill-opacity:1;fill-rule: evenodd"/>
<path id="Shape2DView_nwe0110"  d="M -3.424999999999991 -0.45699999999999985 L -3.424999999999989 -2.0829999999999993 " stroke="#191919" stroke-width="0.35 px" style="stroke-width:0.35;stroke-miterlimit:4;stroke-dasharray:none;fill:none;fill-opacity:1;fill-rule: evenodd"/>
<path id="Shape2DView_nwe0111"  d="M -3.425 -6.05 L 3.425 -6.049999999999991 " stroke="#191919" stroke-width="0.35 px" style="stroke-width:0.35;stroke-miterlimit:4;stroke-dasharray:none;fill:none;fill-opacity:1;fill-rule: evenodd"/>
<path id="Shape2DView_nwe0112"  d="M 3.424999999999999 -5.537 L 3.424999999999998 -4.623 " stroke="#191919" stroke-width="0.35 px" style="stroke-width:0.35;stroke-miterlimit:4;stroke-dasharray:none;fill:none;fill-opacity:1;fill-rule: evenodd"/>
<path id="Shape2DView_nwe0113"  d="M 3.424999999999996 -2.997 L 3.4249999999999945 -2.083 " stroke="#191919" stroke-width="0.35 px" style="stroke-width:0.35;stroke-miterlimit:4;stroke-dasharray:none;fill:none;fill-opacity:1;fill-rule: evenodd"/>
<path id="Shape2DView_nwe0114"  d="M 3.4249999999999923 -0.45699999999999985 L 3.424999999999991 0.45699999999999985 " stroke="#191919" stroke-width="0.35 px" style="stroke-width:0.35;stroke-miterlimit:4;stroke-dasharray:none;fill:none;fill-opacity:1;fill-rule: evenodd"/>
<path id="Shape2DView_nwe0115"  d="M 3.424999999999989 2.0829999999999993 L 3.424999999999988 2.9970000000000008 " stroke="#191919" stroke-width="0.35 px" style="stroke-width:0.35;stroke-miterlimit:4;stroke-dasharray:none;fill:none;fill-opacity:1;fill-rule: evenodd"/>
<path id="Shape2DView_nwe0116"  d="M 3.4249999999999856 4.623 L 3.4249999999999843 5.537 " stroke="#191919" stroke-width="0.35 px" style="stroke-width:0.35;stroke-miterlimit:4;stroke-dasharray:none;fill:none;fill-opacity:1;fill-rule: evenodd"/>
<path id="Shape2DView_nwe0117"  d="M 3.425 6.05 L 3.101276356577 5.726276356577 " stroke="#191919" stroke-width="0.35 px" style="stroke-width:0.35;stroke-miterlimit:4;stroke-dasharray:none;fill:none;fill-opacity:1;fill-rule: evenodd"/>
<path id="Shape2DView_nwe0118"  d="M 3.101276356577 -5.726276356577 L 3.1012763565769847 5.726276356577 " stroke="#191919" stroke-width="0.35 px" style="stroke-width:0.35;stroke-miterlimit:4;stroke-dasharray:none;fill:none;fill-opacity:1;fill-rule: evenodd"/>
<path id="Shape2DView_nwe0119"  d="M 3.425 -6.05 L 3.101276356577 -5.726276356577 " stroke="#191919" stroke-width="0.35 px" style="stroke-width:0.35;stroke-miterlimit:4;stroke-dasharray:none;fill:none;fill-opacity:1;fill-rule: evenodd"/>
<path id="Shape2DView_nwe0120"  d="M 3.499999999999999 -5.537 L 3.499999999999998 -4.623 " stroke="#191919" stroke-width="0.35 px" style="stroke-width:0.35;stroke-miterlimit:4;stroke-dasharray:none;fill:none;fill-opacity:1;fill-rule: evenodd"/>
<path id="Shape2DView_nwe0121"  d="M 4.66 -4.623 L 4.660000000000001 -5.537 " stroke="#191919" stroke-width="0.35 px" style="stroke-width:0.35;stroke-miterlimit:4;stroke-dasharray:none;fill:none;fill-opacity:1;fill-rule: evenodd"/>
<path id="Shape2DView_nwe0122"  d="M 4.0 -4.623 L 4.000000000000001 -5.537 " stroke="#191919" stroke-width="0.35 px" style="stroke-width:0.35;stroke-miterlimit:4;stroke-dasharray:none;fill:none;fill-opacity:1;fill-rule: evenodd"/>
<path id="Shape2DView_nwe0123"  d="M 4.0 4.623 L 3.999999999999999 5.537 " stroke="#191919" stroke-width="0.35 px" style="stroke-width:0.35;stroke-miterlimit:4;stroke-dasharray:none;fill:none;fill-opacity:1;fill-rule: evenodd"/>
<path id="Shape2DView_nwe0124"  d="M 3.499999999999986 4.623000000000001 L 3.4999999999999845 5.536999999999999 " stroke="#191919" stroke-width="0.35 px" style="stroke-width:0.35;stroke-miterlimit:4;stroke-dasharray:none;fill:none;fill-opacity:1;fill-rule: evenodd"/>
<path id="Shape2DView_nwe0125"  d="M 4.66 5.537 L 4.660000000000001 4.623 " stroke="#191919" stroke-width="0.35 px" style="stroke-width:0.35;stroke-miterlimit:4;stroke-dasharray:none;fill:none;fill-opacity:1;fill-rule: evenodd"/>
<path id="Shape2DView_nwe0126"  d="M 3.499999999999996 -2.997 L 3.4999999999999947 -2.083 " stroke="#191919" stroke-width="0.35 px" style="stroke-width:0.35;stroke-miterlimit:4;stroke-dasharray:none;fill:none;fill-opacity:1;fill-rule: evenodd"/>
<path id="Shape2DView_nwe0127"  d="M 4.66 -2.083 L 4.660000000000001 -2.997 " stroke="#191919" stroke-width="0.35 px" style="stroke-width:0.35;stroke-miterlimit:4;stroke-dasharray:none;fill:none;fill-opacity:1;fill-rule: evenodd"/>
<path id="Shape2DView_nwe0128"  d="M 4.0 -2.997 L 3.999999999999999 -2.083 " stroke="#191919" stroke-width="0.35 px" style="stroke-width:0.35;stroke-miterlimit:4;stroke-dasharray:none;fill:none;fill-opacity:1;fill-rule: evenodd"/>
<path id="Shape2DView_nwe0129"  d="M 4.0 2.083 L 3.999999999999999 2.997 " stroke="#191919" stroke-width="0.35 px" style="stroke-width:0.35;stroke-miterlimit:4;stroke-dasharray:none;fill:none;fill-opacity:1;fill-rule: evenodd"/>
<path id="Shape2DView_nwe0130"  d="M 3.499999999999989 2.083 L 3.499999999999988 2.997 " stroke="#191919" stroke-width="0.35 px" style="stroke-width:0.35;stroke-miterlimit:4;stroke-dasharray:none;fill:none;fill-opacity:1;fill-rule: evenodd"/>
<path id="Shape2DView_nwe0131"  d="M 4.66 2.997 L 4.660000000000001 2.083 " stroke="#191919" stroke-width="0.35 px" style="stroke-width:0.35;stroke-miterlimit:4;stroke-dasharray:none;fill:none;fill-opacity:1;fill-rule: evenodd"/>
<path id="Shape2DView_nwe0132"  d="M 3.4999999999999925 -0.45699999999999985 L 3.499999999999991 0.45699999999999985 " stroke="#191919" stroke-width="0.35 px" style="stroke-width:0.35;stroke-miterlimit:4;stroke-dasharray:none;fill:none;fill-opacity:1;fill-rule: evenodd"/>
<path id="Shape2DView_nwe0133"  d="M 4.66 0.457 L 4.660000000000001 -0.457 " stroke="#191919" stroke-width="0.35 px" style="stroke-width:0.35;stroke-miterlimit:4;stroke-dasharray:none;fill:none;fill-opacity:1;fill-rule: evenodd"/>
<path id="Shape2DView_nwe0134"  d="M 4.0 -0.457 L 3.999999999999999 0.457 " stroke="#191919" stroke-width="0.35 px" style="stroke-width:0.35;stroke-miterlimit:4;stroke-dasharray:none;fill:none;fill-opacity:1;fill-rule: evenodd"/>
<path id="Shape2DView_nwe0135"  d="M -3.425 6.05 L -3.101276356577 5.726276356577 " stroke="#191919" stroke-width="0.35 px" style="stroke-width:0.35;stroke-miterlimit:4;stroke-dasharray:none;fill:none;fill-opacity:1;fill-rule: evenodd"/>
<path id="Shape2DView_nwe0136"  d="M -0.7462405778300001 5.726276356576995 L -3.101276356577 5.726276356576992 " stroke="#191919" stroke-width="0.35 px" style="stroke-width:0.35;stroke-miterlimit:4;stroke-dasharray:none;fill:none;fill-opacity:1;fill-rule: evenodd"/>
<path id="Shape2DView_nwe0137"  d="M -0.7493474955903636 5.832554637411102 L -0.7462405778300001 5.726276356577001 " stroke="#191919" stroke-width="0.35 px" style="stroke-width:0.35;stroke-miterlimit:4;stroke-dasharray:none;fill:none;fill-opacity:1;fill-rule: evenodd"/>
<path id="Shape2DView_nwe0138"  d="M -0.749347495591 5.832554637412 L 0.749347495591 5.832554637412 " stroke="#191919" stroke-width="0.35 px" style="stroke-width:0.35;stroke-miterlimit:4;stroke-dasharray:none;fill:none;fill-opacity:1;fill-rule: evenodd"/>
<path id="Shape2DView_nwe0139"  d="M 0.7493474955903655 5.832554637412059 L 0.74624057783 5.726276356576999 " stroke="#191919" stroke-width="0.35 px" style="stroke-width:0.35;stroke-miterlimit:4;stroke-dasharray:none;fill:none;fill-opacity:1;fill-rule: evenodd"/>
<path id="Shape2DView_nwe0140"  d="M 3.101276356577 5.726276356577 L 0.7462405778300001 5.726276356576997 " stroke="#191919" stroke-width="0.35 px" style="stroke-width:0.35;stroke-miterlimit:4;stroke-dasharray:none;fill:none;fill-opacity:1;fill-rule: evenodd"/>
<path id="Shape2DView_nwe0141"  d="M -3.424999999999999 5.537 L -3.424999999999998 4.623 " stroke="#191919" stroke-width="0.35 px" style="stroke-width:0.35;stroke-miterlimit:4;stroke-dasharray:none;fill:none;fill-opacity:1;fill-rule: evenodd"/>
<path id="Shape2DView_nwe0142"  d="M -3.424999999999996 2.997 L -3.4249999999999945 2.083 " stroke="#191919" stroke-width="0.35 px" style="stroke-width:0.35;stroke-miterlimit:4;stroke-dasharray:none;fill:none;fill-opacity:1;fill-rule: evenodd"/>
<path id="Shape2DView_nwe0143"  d="M -3.4249999999999923 0.45699999999999985 L -3.424999999999991 -0.45699999999999985 " stroke="#191919" stroke-width="0.35 px" style="stroke-width:0.35;stroke-miterlimit:4;stroke-dasharray:none;fill:none;fill-opacity:1;fill-rule: evenodd"/>
<path id="Shape2DView_nwe0144"  d="M -3.424999999999989 -2.0829999999999993 L -3.424999999999988 -2.9970000000000008 " stroke="#191919" stroke-width="0.35 px" style="stroke-width:0.35;stroke-miterlimit:4;stroke-dasharray:none;fill:none;fill-opacity:1;fill-rule: evenodd"/>
<path id="Shape2DView_nwe0145"  d="M -3.4249999999999856 -4.623 L -3.4249999999999843 -5.537 " stroke="#191919" stroke-width="0.35 px" style="stroke-width:0.35;stroke-miterlimit:4;stroke-dasharray:none;fill:none;fill-opacity:1;fill-rule: evenodd"/>
<path id="Shape2DView_nwe0146"  d="M -3.425 -6.05 L -3.101276356577 -5.726276356577 " stroke="#191919" stroke-width="0.35 px" style="stroke-width:0.35;stroke-miterlimit:4;stroke-dasharray:none;fill:none;fill-opacity:1;fill-rule: evenodd"/>
<path id="Shape2DView_nwe0147"  d="M -3.101276356577 5.726276356577 L -3.1012763565769847 -5.726276356577 " stroke="#191919" stroke-width="0.35 px" style="stroke-width:0.35;stroke-miterlimit:4;stroke-dasharray:none;fill:none;fill-opacity:1;fill-rule: evenodd"/>
<path id="Shape2DView_nwe0148"  d="M -3.499999999999999 5.537 L -3.499999999999998 4.623 " stroke="#191919" stroke-width="0.35 px" style="stroke-width:0.35;stroke-miterlimit:4;stroke-dasharray:none;fill:none;fill-opacity:1;fill-rule: evenodd"/>
<path id="Shape2DView_nwe0149"  d="M -4.66 4.623 L -4.660000000000001 5.537 " stroke="#191919" stroke-width="0.35 px" style="stroke-width:0.35;stroke-miterlimit:4;stroke-dasharray:none;fill:none;fill-opacity:1;fill-rule: evenodd"/>
<path id="Shape2DView_nwe0150"  d="M -4.0 4.623 L -4.000000000000001 5.537 " stroke="#191919" stroke-width="0.35 px" style="stroke-width:0.35;stroke-miterlimit:4;stroke-dasharray:none;fill:none;fill-opacity:1;fill-rule: evenodd"/>
<path id="Shape2DView_nwe0151"  d="M -4.0 -4.623 L -3.9999999999999987 -5.537 " stroke="#191919" stroke-width="0.35 px" style="stroke-width:0.35;stroke-miterlimit:4;stroke-dasharray:none;fill:none;fill-opacity:1;fill-rule: evenodd"/>
<path id="Shape2DView_nwe0152"  d="M -3.499999999999986 -4.623000000000001 L -3.4999999999999845 -5.536999999999999 " stroke="#191919" stroke-width="0.35 px" style="stroke-width:0.35;stroke-miterlimit:4;stroke-dasharray:none;fill:none;fill-opacity:1;fill-rule: evenodd"/>
<path id="Shape2DView_nwe0153"  d="M -4.66 -5.537 L -4.660000000000001 -4.623 " stroke="#191919" stroke-width="0.35 px" style="stroke-width:0.35;stroke-miterlimit:4;stroke-dasharray:none;fill:none;fill-opacity:1;fill-rule: evenodd"/>
<path id="Shape2DView_nwe0154"  d="M -3.499999999999996 2.997 L -3.4999999999999947 2.083 " stroke="#191919" stroke-width="0.35 px" style="stroke-width:0.35;stroke-miterlimit:4;stroke-dasharray:none;fill:none;fill-opacity:1;fill-rule: evenodd"/>
<path id="Shape2DView_nwe0155"  d="M -4.66 2.083 L -4.660000000000001 2.997 " stroke="#191919" stroke-width="0.35 px" style="stroke-width:0.35;stroke-miterlimit:4;stroke-dasharray:none;fill:none;fill-opacity:1;fill-rule: evenodd"/>
<path id="Shape2DView_nwe0156"  d="M -4.0 2.997 L -3.9999999999999987 2.083 " stroke="#191919" stroke-width="0.35 px" style="stroke-width:0.35;stroke-miterlimit:4;stroke-dasharray:none;fill:none;fill-opacity:1;fill-rule: evenodd"/>
<path id="Shape2DView_nwe0157"  d="M -4.0 -2.083 L -3.9999999999999987 -2.997 " stroke="#191919" stroke-width="0.35 px" style="stroke-width:0.35;stroke-miterlimit:4;stroke-dasharray:none;fill:none;fill-opacity:1;fill-rule: evenodd"/>
<path id="Shape2DView_nwe0158"  d="M -3.499999999999989 -2.083 L -3.499999999999988 -2.997 " stroke="#191919" stroke-width="0.35 px" style="stroke-width:0.35;stroke-miterlimit:4;stroke-dasharray:none;fill:none;fill-opacity:1;fill-rule: evenodd"/>
<path id="Shape2DView_nwe0159"  d="M -4.66 -2.997 L -4.660000000000001 -2.083 " stroke="#191919" stroke-width="0.35 px" style="stroke-width:0.35;stroke-miterlimit:4;stroke-dasharray:none;fill:none;fill-opacity:1;fill-rule: evenodd"/>
<path id="Shape2DView_nwe0160"  d="M -3.4999999999999925 0.45699999999999985 L -3.499999999999991 -0.45699999999999985 " stroke="#191919" stroke-width="0.35 px" style="stroke-width:0.35;stroke-miterlimit:4;stroke-dasharray:none;fill:none;fill-opacity:1;fill-rule: evenodd"/>
<path id="Shape2DView_nwe0161"  d="M -4.66 -0.457 L -4.660000000000001 0.457 " stroke="#191919" stroke-width="0.35 px" style="stroke-width:0.35;stroke-miterlimit:4;stroke-dasharray:none;fill:none;fill-opacity:1;fill-rule: evenodd"/>
<path id="Shape2DView_nwe0162"  d="M -4.0 0.457 L -3.9999999999999987 -0.457 " stroke="#191919" stroke-width="0.35 px" style="stroke-width:0.35;stroke-miterlimit:4;stroke-dasharray:none;fill:none;fill-opacity:1;fill-rule: evenodd"/>
<path id="Shape2DView_nwe0163"  d="M -3.101276356577 -5.726276356577 L 3.101276356577 -5.726276356576992 " stroke="#191919" stroke-width="0.35 px" style="stroke-width:0.35;stroke-miterlimit:4;stroke-dasharray:none;fill:none;fill-opacity:1;fill-rule: evenodd"/>
<path id="Shape2DView_nwe0164"  d="M -1.44043791480075e-14 5.051276356577 A 0.75 0.75 0 0 0 -0.746241 5.72628" stroke="#191919" stroke-width="0.35 px" style="stroke-width:0.35;stroke-miterlimit:4;stroke-dasharray:none;fill:none;fill-opacity:1;fill-rule: evenodd"/>
<path id="Shape2DView_nwe0165"  d="M 0.7462405778299501 5.726276356577006 A 0.75 0.75 0 0 0 -1.42207e-14 5.05128" stroke="#191919" stroke-width="0.35 px" style="stroke-width:0.35;stroke-miterlimit:4;stroke-dasharray:none;fill:none;fill-opacity:1;fill-rule: evenodd"/>
<path id="Shape2DView_nwe0166"  d="M -0.74624057782998 5.726276356576995 A 0.75 0.75 0 0 0 -0.749347 5.83255" stroke="#191919" stroke-width="0.35 px" style="stroke-width:0.35;stroke-miterlimit:4;stroke-dasharray:none;fill:none;fill-opacity:1;fill-rule: evenodd"/>
<path id="Shape2DView_nwe0167"  d="M 0.7493474955906536 5.832554637411985 A 0.75 0.75 0 0 0 0.746241 5.72628" stroke="#191919" stroke-width="0.35 px" style="stroke-width:0.35;stroke-miterlimit:4;stroke-dasharray:none;fill:none;fill-opacity:1;fill-rule: evenodd"/>
<path id="Shape2DView_nwe0168"  d="M 4.127 -5.537 L 4.126999999999999 -4.623 " stroke="#191919" stroke-width="0.35 px" style="stroke-width:0.35;stroke-miterlimit:4;stroke-dasharray:none;fill:none;fill-opacity:1;fill-rule: evenodd"/>
<path id="Shape2DView_nwe0169"  d="M 3.619 -4.623 L 3.619000000000001 -5.537 " stroke="#191919" stroke-width="0.35 px" style="stroke-width:0.35;stroke-miterlimit:4;stroke-dasharray:none;fill:none;fill-opacity:1;fill-rule: evenodd"/>
<path id="Shape2DView_nwe0170"  d="M 3.619 4.623 L 3.6189999999999993 5.537 " stroke="#191919" stroke-width="0.35 px" style="stroke-width:0.35;stroke-miterlimit:4;stroke-dasharray:none;fill:none;fill-opacity:1;fill-rule: evenodd"/>
<path id="Shape2DView_nwe0171"  d="M 4.127 4.623 L 4.126999999999999 5.537 " stroke="#191919" stroke-width="0.35 px" style="stroke-width:0.35;stroke-miterlimit:4;stroke-dasharray:none;fill:none;fill-opacity:1;fill-rule: evenodd"/>
<path id="Shape2DView_nwe0172"  d="M 4.127 -2.997 L 4.126999999999999 -2.083 " stroke="#191919" stroke-width="0.35 px" style="stroke-width:0.35;stroke-miterlimit:4;stroke-dasharray:none;fill:none;fill-opacity:1;fill-rule: evenodd"/>
<path id="Shape2DView_nwe0173"  d="M 3.619 -2.997 L 3.6189999999999993 -2.083 " stroke="#191919" stroke-width="0.35 px" style="stroke-width:0.35;stroke-miterlimit:4;stroke-dasharray:none;fill:none;fill-opacity:1;fill-rule: evenodd"/>
<path id="Shape2DView_nwe0174"  d="M 3.619 2.083 L 3.6189999999999993 2.997 " stroke="#191919" stroke-width="0.35 px" style="stroke-width:0.35;stroke-miterlimit:4;stroke-dasharray:none;fill:none;fill-opacity:1;fill-rule: evenodd"/>
<path id="Shape2DView_nwe0175"  d="M 4.127 2.083 L 4.126999999999999 2.997 " stroke="#191919" stroke-width="0.35 px" style="stroke-width:0.35;stroke-miterlimit:4;stroke-dasharray:none;fill:none;fill-opacity:1;fill-rule: evenodd"/>
<path id="Shape2DView_nwe0176"  d="M 4.127 -0.457 L 4.126999999999999 0.457 " stroke="#191919" stroke-width="0.35 px" style="stroke-width:0.35;stroke-miterlimit:4;stroke-dasharray:none;fill:none;fill-opacity:1;fill-rule: evenodd"/>
<path id="Shape2DView_nwe0177"  d="M 3.619 -0.457 L 3.6189999999999993 0.457 " stroke="#191919" stroke-width="0.35 px" style="stroke-width:0.35;stroke-miterlimit:4;stroke-dasharray:none;fill:none;fill-opacity:1;fill-rule: evenodd"/>
<path id="Shape2DView_nwe0178"  d="M -4.127 5.537 L -4.126999999999999 4.623 " stroke="#191919" stroke-width="0.35 px" style="stroke-width:0.35;stroke-miterlimit:4;stroke-dasharray:none;fill:none;fill-opacity:1;fill-rule: evenodd"/>
<path id="Shape2DView_nwe0179"  d="M -3.619 4.623 L -3.6190000000000015 5.537 " stroke="#191919" stroke-width="0.35 px" style="stroke-width:0.35;stroke-miterlimit:4;stroke-dasharray:none;fill:none;fill-opacity:1;fill-rule: evenodd"/>
<path id="Shape2DView_nwe0180"  d="M -3.619 -4.623 L -3.618999999999999 -5.537 " stroke="#191919" stroke-width="0.35 px" style="stroke-width:0.35;stroke-miterlimit:4;stroke-dasharray:none;fill:none;fill-opacity:1;fill-rule: evenodd"/>
<path id="Shape2DView_nwe0181"  d="M -4.127 -4.623 L -4.126999999999999 -5.537 " stroke="#191919" stroke-width="0.35 px" style="stroke-width:0.35;stroke-miterlimit:4;stroke-dasharray:none;fill:none;fill-opacity:1;fill-rule: evenodd"/>
<path id="Shape2DView_nwe0182"  d="M -4.127 2.997 L -4.126999999999999 2.083 " stroke="#191919" stroke-width="0.35 px" style="stroke-width:0.35;stroke-miterlimit:4;stroke-dasharray:none;fill:none;fill-opacity:1;fill-rule: evenodd"/>
<path id="Shape2DView_nwe0183"  d="M -3.619 2.997 L -3.618999999999999 2.083 " stroke="#191919" stroke-width="0.35 px" style="stroke-width:0.35;stroke-miterlimit:4;stroke-dasharray:none;fill:none;fill-opacity:1;fill-rule: evenodd"/>
<path id="Shape2DView_nwe0184"  d="M -3.619 -2.083 L -3.618999999999999 -2.997 " stroke="#191919" stroke-width="0.35 px" style="stroke-width:0.35;stroke-miterlimit:4;stroke-dasharray:none;fill:none;fill-opacity:1;fill-rule: evenodd"/>
<path id="Shape2DView_nwe0185"  d="M -4.127 -2.083 L -4.126999999999999 -2.997 " stroke="#191919" stroke-width="0.35 px" style="stroke-width:0.35;stroke-miterlimit:4;stroke-dasharray:none;fill:none;fill-opacity:1;fill-rule: evenodd"/>
<path id="Shape2DView_nwe0186"  d="M -4.127 0.457 L -4.126999999999999 -0.457 " stroke="#191919" stroke-width="0.35 px" style="stroke-width:0.35;stroke-miterlimit:4;stroke-dasharray:none;fill:none;fill-opacity:1;fill-rule: evenodd"/>
<path id="Shape2DView_nwe0187"  d="M -3.619 0.457 L -3.618999999999999 -0.457 " stroke="#191919" stroke-width="0.35 px" style="stroke-width:0.35;stroke-miterlimit:4;stroke-dasharray:none;fill:none;fill-opacity:1;fill-rule: evenodd"/>
<path id="Shape2DView_nwe0188"  d="M 3.425 -5.5369999999999955 L 3.5 -5.5369999999999955 " stroke="#191919" stroke-width="0.35 px" style="stroke-width:0.35;stroke-miterlimit:4;stroke-dasharray:none;fill:none;fill-opacity:1;fill-rule: evenodd"/>
<path id="Shape2DView_nwe0189"  d="M 3.5 5.536999999999999 L 3.425 5.536999999999999 " stroke="#191919" stroke-width="0.35 px" style="stroke-width:0.35;stroke-miterlimit:4;stroke-dasharray:none;fill:none;fill-opacity:1;fill-rule: evenodd"/>
<path id="Shape2DView_nwe0190"  d="M 3.5 -4.623000000000001 L 3.425 -4.623000000000001 " stroke="#191919" stroke-width="0.35 px" style="stroke-width:0.35;stroke-miterlimit:4;stroke-dasharray:none;fill:none;fill-opacity:1;fill-rule: evenodd"/>
<path id="Shape2DView_nwe0191"  d="M 3.5 -2.9970000000000003 L 3.425 -2.9970000000000008 " stroke="#191919" stroke-width="0.35 px" style="stroke-width:0.35;stroke-miterlimit:4;stroke-dasharray:none;fill:none;fill-opacity:1;fill-rule: evenodd"/>
<path id="Shape2DView_nwe0192"  d="M 3.5 2.9969999999999994 L 3.425 2.996999999999999 " stroke="#191919" stroke-width="0.35 px" style="stroke-width:0.35;stroke-miterlimit:4;stroke-dasharray:none;fill:none;fill-opacity:1;fill-rule: evenodd"/>
<path id="Shape2DView_nwe0193"  d="M 3.5 4.622999999999999 L 3.425 4.622999999999999 " stroke="#191919" stroke-width="0.35 px" style="stroke-width:0.35;stroke-miterlimit:4;stroke-dasharray:none;fill:none;fill-opacity:1;fill-rule: evenodd"/>
<path id="Shape2DView_nwe0194"  d="M 3.5 -2.0830000000000006 L 3.425 -2.083000000000001 " stroke="#191919" stroke-width="0.35 px" style="stroke-width:0.35;stroke-miterlimit:4;stroke-dasharray:none;fill:none;fill-opacity:1;fill-rule: evenodd"/>
<path id="Shape2DView_nwe0195"  d="M 3.5 -0.45700000000000063 L 3.425 -0.45700000000000074 " stroke="#191919" stroke-width="0.35 px" style="stroke-width:0.35;stroke-miterlimit:4;stroke-dasharray:none;fill:none;fill-opacity:1;fill-rule: evenodd"/>
<path id="Shape2DView_nwe0196"  d="M 3.5 0.4569999999999994 L 3.425 0.4569999999999993 " stroke="#191919" stroke-width="0.35 px" style="stroke-width:0.35;stroke-miterlimit:4;stroke-dasharray:none;fill:none;fill-opacity:1;fill-rule: evenodd"/>
<path id="Shape2DView_nwe0197"  d="M 3.5 2.0829999999999997 L 3.425 2.0829999999999993 " stroke="#191919" stroke-width="0.35 px" style="stroke-width:0.35;stroke-miterlimit:4;stroke-dasharray:none;fill:none;fill-opacity:1;fill-rule: evenodd"/>
<path id="Shape2DView_nwe0198"  d="M -3.425 5.5369999999999955 L -3.5 5.5369999999999955 " stroke="#191919" stroke-width="0.35 px" style="stroke-width:0.35;stroke-miterlimit:4;stroke-dasharray:none;fill:none;fill-opacity:1;fill-rule: evenodd"/>
<path id="Shape2DView_nwe0199"  d="M -3.5 -5.536999999999999 L -3.425 -5.536999999999999 " stroke="#191919" stroke-width="0.35 px" style="stroke-width:0.35;stroke-miterlimit:4;stroke-dasharray:none;fill:none;fill-opacity:1;fill-rule: evenodd"/>
<path id="Shape2DView_nwe0200"  d="M -3.5 4.623000000000001 L -3.425 4.623000000000001 " stroke="#191919" stroke-width="0.35 px" style="stroke-width:0.35;stroke-miterlimit:4;stroke-dasharray:none;fill:none;fill-opacity:1;fill-rule: evenodd"/>
<path id="Shape2DView_nwe0201"  d="M -3.5 2.9970000000000003 L -3.425 2.9970000000000008 " stroke="#191919" stroke-width="0.35 px" style="stroke-width:0.35;stroke-miterlimit:4;stroke-dasharray:none;fill:none;fill-opacity:1;fill-rule: evenodd"/>
<path id="Shape2DView_nwe0202"  d="M -3.5 -2.9969999999999994 L -3.425 -2.996999999999999 " stroke="#191919" stroke-width="0.35 px" style="stroke-width:0.35;stroke-miterlimit:4;stroke-dasharray:none;fill:none;fill-opacity:1;fill-rule: evenodd"/>
<path id="Shape2DView_nwe0203"  d="M -3.5 -4.622999999999999 L -3.425 -4.622999999999999 " stroke="#191919" stroke-width="0.35 px" style="stroke-width:0.35;stroke-miterlimit:4;stroke-dasharray:none;fill:none;fill-opacity:1;fill-rule: evenodd"/>
<path id="Shape2DView_nwe0204"  d="M -3.5 2.0830000000000006 L -3.425 2.083000000000001 " stroke="#191919" stroke-width="0.35 px" style="stroke-width:0.35;stroke-miterlimit:4;stroke-dasharray:none;fill:none;fill-opacity:1;fill-rule: evenodd"/>
<path id="Shape2DView_nwe0205"  d="M -3.5 0.4570000000000007 L -3.425 0.4570000000000008 " stroke="#191919" stroke-width="0.35 px" style="stroke-width:0.35;stroke-miterlimit:4;stroke-dasharray:none;fill:none;fill-opacity:1;fill-rule: evenodd"/>
<path id="Shape2DView_nwe0206"  d="M -3.5 -0.45699999999999935 L -3.425 -0.45699999999999924 " stroke="#191919" stroke-width="0.35 px" style="stroke-width:0.35;stroke-miterlimit:4;stroke-dasharray:none;fill:none;fill-opacity:1;fill-rule: evenodd"/>
<path id="Shape2DView_nwe0207"  d="M -3.5 -2.0829999999999997 L -3.425 -2.0829999999999993 " stroke="#191919" stroke-width="0.35 px" style="stroke-width:0.35;stroke-miterlimit:4;stroke-dasharray:none;fill:none;fill-opacity:1;fill-rule: evenodd"/>
<title>b'Shape2DView'</title>
</g>
<g id="Rectangle" transform="translate(4.753200,6.218200) scale(1,-1)">
<rect fill="#ff0000" id="origin" width="1" height="1" x="0" y="0" />
<title>b'Rectangle'</title>
</g>
</svg>