<?xml version="1.0"?>
<!DOCTYPE svg PUBLIC "-//W3C//DTD SVG 1.1//EN" "http://www.w3.org/Graphics/SVG/1.1/DTD/svg11.dtd">
<svg width="9.506400000000003mm" height="5.1164mm" viewBox="0 0 9.506400000000003 5.1164" xmlns="http://www.w3.org/2000/svg" version="1.1">
<g id="Shape2DView" transform="translate(4.753200,2.558200) scale(1,-1)">
<path id="Shape2DView_nwe0000"  d="M 3.5 -2.465 L 3.499999999999999 -1.727 " stroke="#191919" stroke-width="0.35 px" style="stroke-width:0.35;stroke-miterlimit:4;stroke-dasharray:none;fill:none;fill-opacity:1;fill-rule: evenodd"/>
<path id="Shape2DView_nwe0001"  d="M 3.4999999999999942 1.7270000000000003 L 3.4999999999999933 2.465 " stroke="#191919" stroke-width="0.35 px" style="stroke-width:0.35;stroke-miterlimit:4;stroke-dasharray:none;fill:none;fill-opacity:1;fill-rule: evenodd"/>
<path id="Shape2DView_nwe0002"  d="M 3.499999999999998 -0.813 L 3.4999999999999956 0.8129999999999997 " stroke="#191919" stroke-width="0.35 px" style="stroke-width:0.35;stroke-miterlimit:4;stroke-dasharray:none;fill:none;fill-opacity:1;fill-rule: evenodd"/>
<path id="Shape2DView_nwe0003"  d="M 3.5 2.465 L -3.5 2.4649999999999905 " stroke="#191919" stroke-width="0.35 px" style="stroke-width:0.35;stroke-miterlimit:4;stroke-dasharray:none;fill:none;fill-opacity:1;fill-rule: evenodd"/>
<path id="Shape2DView_nwe0004"  d="M -3.5 2.465 L -3.499999999999999 1.727 " stroke="#191919" stroke-width="0.35 px" style="stroke-width:0.35;stroke-miterlimit:4;stroke-dasharray:none;fill:none;fill-opacity:1;fill-rule: evenodd"/>
<path id="Shape2DView_nwe0005"  d="M -3.4999999999999942 -1.7270000000000003 L -3.4999999999999933 -2.465 " stroke="#191919" stroke-width="0.35 px" style="stroke-width:0.35;stroke-miterlimit:4;stroke-dasharray:none;fill:none;fill-opacity:1;fill-rule: evenodd"/>
<path id="Shape2DView_nwe0006"  d="M -3.499999999999998 0.813 L -3.4999999999999956 -0.8129999999999997 " stroke="#191919" stroke-width="0.35 px" style="stroke-width:0.35;stroke-miterlimit:4;stroke-dasharray:none;fill:none;fill-opacity:1;fill-rule: evenodd"/>
<path id="Shape2DView_nwe0007"  d="M -3.5 -2.465 L 3.5 -2.4649999999999905 " stroke="#191919" stroke-width="0.35 px" style="stroke-width:0.35;stroke-miterlimit:4;stroke-dasharray:none;fill:none;fill-opacity:1;fill-rule: evenodd"/>
<path id="Shape2DView_nwe0008"  d="M 3.5 -2.465 L 3.425 -2.39 " stroke="#191919" stroke-width="0.35 px" style="stroke-width:0.35;stroke-miterlimit:4;stroke-dasharray:none;fill:none;fill-opacity:1;fill-rule: evenodd"/>
<path id="Shape2DView_nwe0009"  d="M 3.425 -2.39 L 3.424999999999999 -1.727 " stroke="#191919" stroke-width="0.35 px" style="stroke-width:0.35;stroke-miterlimit:4;stroke-dasharray:none;fill:none;fill-opacity:1;fill-rule: evenodd"/>
<path id="Shape2DView_nwe0010"  d="M 4.0 -1.7270000000000003 L 4.000798549343558 -1.7270000000000003 L 4.003184155152908 -1.7270000000000003 L 4.007126817050837 -1.7270000000000003 L 4.012576953776392 -1.7270000000000003 L 4.019466026698008 -1.7270000000000003 L 4.02770740172656 -1.7270000000000003 L 4.037197438789308 -1.727 L 4.047816795163941 -1.727 L 4.059431926282552 -1.727 L 4.071896765132069 -1.727 L 4.085054559131693 -1.727 L 4.098739841387548 -1.727 L 4.112780511534879 -1.727 L 4.127 -1.727 " stroke="#191919" stroke-width="0.35 px" style="stroke-width:0.35;stroke-miterlimit:4;stroke-dasharray:none;fill:none;fill-opacity:1;fill-rule: evenodd"/>
<path id="Shape2DView_nwe0011"  d="M 3.619 -1.727 L 3.6616584653953606 -1.727 L 3.703780475837356 -1.727 L 3.744836322604919 -1.7269999999999999 L 3.78430970460379 -1.7269999999999999 L 3.8217042211523435 -1.7269999999999999 L 3.856549614508178 -1.7269999999999999 L 3.888407683632075 -1.7269999999999999 L 3.9168777948203197 -1.7269999999999996 L 3.9416019199059766 -1.7269999999999996 L 3.962269138670822 -1.7269999999999996 L 3.9786195488474885 -1.7269999999999996 L 3.990447534541275 -1.7269999999999996 L 3.9976043519693256 -1.7269999999999996 L 4.0 -1.7269999999999996 " stroke="#191919" stroke-width="0.35 px" style="stroke-width:0.35;stroke-miterlimit:4;stroke-dasharray:none;fill:none;fill-opacity:1;fill-rule: evenodd"/>
<path id="Shape2DView_nwe0012"  d="M 3.5 -1.7269999999999956 L 3.6190000000000007 -1.7269999999999956 " stroke="#191919" stroke-width="0.35 px" style="stroke-width:0.35;stroke-miterlimit:4;stroke-dasharray:none;fill:none;fill-opacity:1;fill-rule: evenodd"/>
<path id="Shape2DView_nwe0013"  d="M 4.66 -1.727 L 4.127 -1.7270000000000008 " stroke="#191919" stroke-width="0.35 px" style="stroke-width:0.35;stroke-miterlimit:4;stroke-dasharray:none;fill:none;fill-opacity:1;fill-rule: evenodd"/>
<path id="Shape2DView_nwe0014"  d="M 4.0 1.7269999999999999 L 4.000798549343558 1.7269999999999999 L 4.003184155152908 1.7269999999999999 L 4.007126817050837 1.7269999999999999 L 4.012576953776392 1.7269999999999999 L 4.019466026698008 1.7269999999999999 L 4.02770740172656 1.7269999999999999 L 4.037197438789308 1.727 L 4.047816795163941 1.727 L 4.059431926282552 1.727 L 4.071896765132069 1.727 L 4.085054559131693 1.727 L 4.098739841387548 1.727 L 4.112780511534879 1.727 L 4.127 1.727 " stroke="#191919" stroke-width="0.35 px" style="stroke-width:0.35;stroke-miterlimit:4;stroke-dasharray:none;fill:none;fill-opacity:1;fill-rule: evenodd"/>
<path id="Shape2DView_nwe0015"  d="M 4.127 1.7270000000000005 L 4.66 1.7270000000000012 " stroke="#191919" stroke-width="0.35 px" style="stroke-width:0.35;stroke-miterlimit:4;stroke-dasharray:none;fill:none;fill-opacity:1;fill-rule: evenodd"/>
<path id="Shape2DView_nwe0016"  d="M 3.619 1.7269999999999996 L 3.5 1.7269999999999994 " stroke="#191919" stroke-width="0.35 px" style="stroke-width:0.35;stroke-miterlimit:4;stroke-dasharray:none;fill:none;fill-opacity:1;fill-rule: evenodd"/>
<path id="Shape2DView_nwe0017"  d="M 3.619 1.727 L 3.6616584653953606 1.727 L 3.703780475837356 1.727 L 3.744836322604919 1.7270000000000003 L 3.78430970460379 1.7270000000000003 L 3.8217042211523435 1.7270000000000003 L 3.8565496145081775 1.7270000000000003 L 3.888407683632075 1.7270000000000003 L 3.9168777948203197 1.7270000000000005 L 3.9416019199059766 1.7270000000000005 L 3.962269138670822 1.7270000000000005 L 3.9786195488474885 1.7270000000000005 L 3.990447534541275 1.7270000000000005 L 3.9976043519693256 1.7270000000000005 L 4.0 1.7270000000000005 " stroke="#191919" stroke-width="0.35 px" style="stroke-width:0.35;stroke-miterlimit:4;stroke-dasharray:none;fill:none;fill-opacity:1;fill-rule: evenodd"/>
<path id="Shape2DView_nwe0018"  d="M 3.5 2.465 L 3.425 2.39 " stroke="#191919" stroke-width="0.35 px" style="stroke-width:0.35;stroke-miterlimit:4;stroke-dasharray:none;fill:none;fill-opacity:1;fill-rule: evenodd"/>
<path id="Shape2DView_nwe0019"  d="M 3.4249999999999945 1.7269999999999999 L 3.4249999999999936 2.39 " stroke="#191919" stroke-width="0.35 px" style="stroke-width:0.35;stroke-miterlimit:4;stroke-dasharray:none;fill:none;fill-opacity:1;fill-rule: evenodd"/>
<path id="Shape2DView_nwe0020"  d="M 4.0 -0.8130000000000001 L 4.000798549343558 -0.8130000000000001 L 4.003184155152908 -0.8130000000000001 L 4.007126817050837 -0.8130000000000001 L 4.012576953776392 -0.8130000000000001 L 4.019466026698008 -0.8130000000000001 L 4.02770740172656 -0.8130000000000001 L 4.037197438789308 -0.8130000000000001 L 4.047816795163941 -0.8130000000000001 L 4.059431926282552 -0.8130000000000001 L 4.071896765132069 -0.8130000000000001 L 4.085054559131693 -0.813 L 4.098739841387548 -0.813 L 4.112780511534879 -0.813 L 4.127 -0.813 " stroke="#191919" stroke-width="0.35 px" style="stroke-width:0.35;stroke-miterlimit:4;stroke-dasharray:none;fill:none;fill-opacity:1;fill-rule: evenodd"/>
<path id="Shape2DView_nwe0021"  d="M 4.127 -0.8129999999999995 L 4.66 -0.8129999999999988 " stroke="#191919" stroke-width="0.35 px" style="stroke-width:0.35;stroke-miterlimit:4;stroke-dasharray:none;fill:none;fill-opacity:1;fill-rule: evenodd"/>
<path id="Shape2DView_nwe0022"  d="M 3.619 -0.8130000000000003 L 3.5 -0.8130000000000004 " stroke="#191919" stroke-width="0.35 px" style="stroke-width:0.35;stroke-miterlimit:4;stroke-dasharray:none;fill:none;fill-opacity:1;fill-rule: evenodd"/>
<path id="Shape2DView_nwe0023"  d="M 3.619 -0.813 L 3.6616584653953606 -0.813 L 3.703780475837356 -0.8129999999999998 L 3.744836322604919 -0.8129999999999998 L 3.78430970460379 -0.8129999999999997 L 3.8217042211523435 -0.8129999999999997 L 3.856549614508178 -0.8129999999999996 L 3.888407683632075 -0.8129999999999996 L 3.9168777948203197 -0.8129999999999996 L 3.9416019199059766 -0.8129999999999995 L 3.962269138670822 -0.8129999999999995 L 3.9786195488474885 -0.8129999999999995 L 3.990447534541275 -0.8129999999999995 L 3.9976043519693256 -0.8129999999999995 L 4.0 -0.8129999999999995 " stroke="#191919" stroke-width="0.35 px" style="stroke-width:0.35;stroke-miterlimit:4;stroke-dasharray:none;fill:none;fill-opacity:1;fill-rule: evenodd"/>
<path id="Shape2DView_nwe0024"  d="M 4.0 0.8129999999999998 L 4.000798549343558 0.8129999999999998 L 4.003184155152908 0.8129999999999998 L 4.007126817050837 0.8129999999999998 L 4.012576953776392 0.8129999999999998 L 4.019466026698008 0.8129999999999998 L 4.02770740172656 0.8129999999999998 L 4.037197438789308 0.8129999999999998 L 4.047816795163941 0.8129999999999998 L 4.059431926282552 0.8129999999999998 L 4.071896765132069 0.8129999999999998 L 4.085054559131693 0.813 L 4.098739841387548 0.813 L 4.112780511534879 0.813 L 4.127 0.813 " stroke="#191919" stroke-width="0.35 px" style="stroke-width:0.35;stroke-miterlimit:4;stroke-dasharray:none;fill:none;fill-opacity:1;fill-rule: evenodd"/>
<path id="Shape2DView_nwe0025"  d="M 3.619 0.813 L 3.6616584653953606 0.813 L 3.703780475837356 0.8130000000000001 L 3.744836322604919 0.8130000000000001 L 3.78430970460379 0.8130000000000002 L 3.8217042211523435 0.8130000000000002 L 3.8565496145081775 0.8130000000000003 L 3.888407683632075 0.8130000000000003 L 3.9168777948203197 0.8130000000000003 L 3.9416019199059766 0.8130000000000004 L 3.962269138670822 0.8130000000000004 L 3.9786195488474885 0.8130000000000004 L 3.990447534541275 0.8130000000000004 L 3.9976043519693256 0.8130000000000004 L 4.0 0.8130000000000004 " stroke="#191919" stroke-width="0.35 px" style="stroke-width:0.35;stroke-miterlimit:4;stroke-dasharray:none;fill:none;fill-opacity:1;fill-rule: evenodd"/>
<path id="Shape2DView_nwe0026"  d="M 3.619 0.8129999999999995 L 3.5 0.8129999999999994 " stroke="#191919" stroke-width="0.35 px" style="stroke-width:0.35;stroke-miterlimit:4;stroke-dasharray:none;fill:none;fill-opacity:1;fill-rule: evenodd"/>
<path id="Shape2DView_nwe0027"  d="M 4.66 0.813 L 4.127 0.8129999999999993 " stroke="#191919" stroke-width="0.35 px" style="stroke-width:0.35;stroke-miterlimit:4;stroke-dasharray:none;fill:none;fill-opacity:1;fill-rule: evenodd"/>
<path id="Shape2DView_nwe0028"  d="M 3.4249999999999976 -0.813 L 3.4249999999999954 0.8130000000000002 " stroke="#191919" stroke-width="0.35 px" style="stroke-width:0.35;stroke-miterlimit:4;stroke-dasharray:none;fill:none;fill-opacity:1;fill-rule: evenodd"/>
<path id="Shape2DView_nwe0029"  d="M -3.5 2.465 L -3.425 2.39 " stroke="#191919" stroke-width="0.35 px" style="stroke-width:0.35;stroke-miterlimit:4;stroke-dasharray:none;fill:none;fill-opacity:1;fill-rule: evenodd"/>
<path id="Shape2DView_nwe0030"  d="M 3.425 2.39 L -3.425 2.389999999999991 " stroke="#191919" stroke-width="0.35 px" style="stroke-width:0.35;stroke-miterlimit:4;stroke-dasharray:none;fill:none;fill-opacity:1;fill-rule: evenodd"/>
<path id="Shape2DView_nwe0031"  d="M -3.425 2.39 L -3.424999999999999 1.727 " stroke="#191919" stroke-width="0.35 px" style="stroke-width:0.35;stroke-miterlimit:4;stroke-dasharray:none;fill:none;fill-opacity:1;fill-rule: evenodd"/>
<path id="Shape2DView_nwe0032"  d="M -4.0 1.7270000000000003 L -4.000798549343558 1.7270000000000003 L -4.003184155152908 1.7270000000000003 L -4.007126817050837 1.7270000000000003 L -4.012576953776392 1.7270000000000003 L -4.019466026698008 1.7270000000000003 L -4.02770740172656 1.7270000000000003 L -4.037197438789308 1.7270000000000003 L -4.047816795163941 1.727 L -4.059431926282552 1.727 L -4.071896765132069 1.727 L -4.085054559131693 1.727 L -4.098739841387548 1.727 L -4.112780511534879 1.727 L -4.127 1.727 " stroke="#191919" stroke-width="0.35 px" style="stroke-width:0.35;stroke-miterlimit:4;stroke-dasharray:none;fill:none;fill-opacity:1;fill-rule: evenodd"/>
<path id="Shape2DView_nwe0033"  d="M -3.619 1.727 L -3.6616584653953606 1.727 L -3.703780475837356 1.7269999999999999 L -3.744836322604919 1.7269999999999999 L -3.78430970460379 1.7269999999999999 L -3.8217042211523435 1.7269999999999999 L -3.856549614508178 1.7269999999999999 L -3.888407683632075 1.7269999999999996 L -3.9168777948203197 1.7269999999999996 L -3.9416019199059766 1.7269999999999996 L -3.962269138670822 1.7269999999999996 L -3.9786195488474885 1.7269999999999996 L -3.990447534541275 1.7269999999999996 L -3.9976043519693256 1.7269999999999996 L -4.0 1.7269999999999996 " stroke="#191919" stroke-width="0.35 px" style="stroke-width:0.35;stroke-miterlimit:4;stroke-dasharray:none;fill:none;fill-opacity:1;fill-rule: evenodd"/>
<path id="Shape2DView_nwe0034"  d="M -3.5 1.7269999999999952 L -3.6190000000000007 1.7269999999999952 " stroke="#191919" stroke-width="0.35 px" style="stroke-width:0.35;stroke-miterlimit:4;stroke-dasharray:none;fill:none;fill-opacity:1;fill-rule: evenodd"/>
<path id="Shape2DView_nwe0035"  d="M -4.66 1.727 L -4.127 1.7270000000000008 " stroke="#191919" stroke-width="0.35 px" style="stroke-width:0.35;stroke-miterlimit:4;stroke-dasharray:none;fill:none;fill-opacity:1;fill-rule: evenodd"/>
<path id="Shape2DView_nwe0036"  d="M -4.0 -1.7269999999999999 L -4.000798549343558 -1.7269999999999999 L -4.003184155152908 -1.7269999999999999 L -4.007126817050837 -1.7269999999999999 L -4.012576953776392 -1.7269999999999999 L -4.019466026698008 -1.7269999999999999 L -4.02770740172656 -1.7269999999999999 L -4.037197438789308 -1.7269999999999999 L -4.047816795163941 -1.727 L -4.059431926282552 -1.727 L -4.071896765132069 -1.727 L -4.085054559131693 -1.727 L -4.098739841387548 -1.727 L -4.112780511534879 -1.727 L -4.127 -1.727 " stroke="#191919" stroke-width="0.35 px" style="stroke-width:0.35;stroke-miterlimit:4;stroke-dasharray:none;fill:none;fill-opacity:1;fill-rule: evenodd"/>
<path id="Shape2DView_nwe0037"  d="M -4.127 -1.7270000000000005 L -4.66 -1.7270000000000012 " stroke="#191919" stroke-width="0.35 px" style="stroke-width:0.35;stroke-miterlimit:4;stroke-dasharray:none;fill:none;fill-opacity:1;fill-rule: evenodd"/>
<path id="Shape2DView_nwe0038"  d="M -3.619 -1.7269999999999996 L -3.5 -1.7269999999999994 " stroke="#191919" stroke-width="0.35 px" style="stroke-width:0.35;stroke-miterlimit:4;stroke-dasharray:none;fill:none;fill-opacity:1;fill-rule: evenodd"/>
<path id="Shape2DView_nwe0039"  d="M -3.619 -1.727 L -3.6616584653953606 -1.727 L -3.703780475837356 -1.7270000000000003 L -3.744836322604919 -1.7270000000000003 L -3.78430970460379 -1.7270000000000003 L -3.8217042211523435 -1.7270000000000003 L -3.8565496145081775 -1.7270000000000003 L -3.888407683632075 -1.7270000000000005 L -3.9168777948203197 -1.7270000000000005 L -3.9416019199059766 -1.7270000000000005 L -3.962269138670822 -1.7270000000000005 L -3.9786195488474885 -1.7270000000000005 L -3.990447534541275 -1.7270000000000005 L -3.9976043519693256 -1.7270000000000005 L -4.0 -1.7270000000000005 " stroke="#191919" stroke-width="0.35 px" style="stroke-width:0.35;stroke-miterlimit:4;stroke-dasharray:none;fill:none;fill-opacity:1;fill-rule: evenodd"/>
<path id="Shape2DView_nwe0040"  d="M -3.5 -2.465 L -3.425 -2.39 " stroke="#191919" stroke-width="0.35 px" style="stroke-width:0.35;stroke-miterlimit:4;stroke-dasharray:none;fill:none;fill-opacity:1;fill-rule: evenodd"/>
<path id="Shape2DView_nwe0041"  d="M -3.4249999999999945 -1.7269999999999999 L -3.4249999999999936 -2.39 " stroke="#191919" stroke-width="0.35 px" style="stroke-width:0.35;stroke-miterlimit:4;stroke-dasharray:none;fill:none;fill-opacity:1;fill-rule: evenodd"/>
<path id="Shape2DView_nwe0042"  d="M -4.0 0.8130000000000002 L -4.000798549343558 0.8130000000000002 L -4.003184155152908 0.8130000000000001 L -4.007126817050837 0.8130000000000001 L -4.012576953776392 0.8130000000000001 L -4.019466026698008 0.8130000000000001 L -4.02770740172656 0.8130000000000001 L -4.037197438789308 0.8130000000000001 L -4.047816795163941 0.8130000000000001 L -4.059431926282552 0.8130000000000001 L -4.071896765132069 0.8130000000000001 L -4.085054559131693 0.8130000000000001 L -4.098739841387548 0.813 L -4.112780511534879 0.813 L -4.127 0.813 " stroke="#191919" stroke-width="0.35 px" style="stroke-width:0.35;stroke-miterlimit:4;stroke-dasharray:none;fill:none;fill-opacity:1;fill-rule: evenodd"/>
<path id="Shape2DView_nwe0043"  d="M -4.127 0.8129999999999994 L -4.66 0.8129999999999987 " stroke="#191919" stroke-width="0.35 px" style="stroke-width:0.35;stroke-miterlimit:4;stroke-dasharray:none;fill:none;fill-opacity:1;fill-rule: evenodd"/>
<path id="Shape2DView_nwe0044"  d="M -3.619 0.8130000000000003 L -3.5 0.8130000000000004 " stroke="#191919" stroke-width="0.35 px" style="stroke-width:0.35;stroke-miterlimit:4;stroke-dasharray:none;fill:none;fill-opacity:1;fill-rule: evenodd"/>
<path id="Shape2DView_nwe0045"  d="M -3.619 0.813 L -3.6616584653953606 0.8129999999999998 L -3.703780475837356 0.8129999999999998 L -3.744836322604919 0.8129999999999997 L -3.78430970460379 0.8129999999999997 L -3.8217042211523435 0.8129999999999997 L -3.856549614508178 0.8129999999999996 L -3.888407683632075 0.8129999999999996 L -3.9168777948203197 0.8129999999999995 L -3.9416019199059766 0.8129999999999995 L -3.962269138670822 0.8129999999999995 L -3.9786195488474885 0.8129999999999995 L -3.990447534541275 0.8129999999999995 L -3.9976043519693256 0.8129999999999994 L -4.0 0.8129999999999994 " stroke="#191919" stroke-width="0.35 px" style="stroke-width:0.35;stroke-miterlimit:4;stroke-dasharray:none;fill:none;fill-opacity:1;fill-rule: evenodd"/>
<path id="Shape2DView_nwe0046"  d="M -4.0 -0.8129999999999997 L -4.000798549343558 -0.8129999999999997 L -4.003184155152908 -0.8129999999999998 L -4.007126817050837 -0.8129999999999998 L -4.012576953776392 -0.8129999999999998 L -4.019466026698008 -0.8129999999999998 L -4.02770740172656 -0.8129999999999998 L -4.037197438789308 -0.8129999999999998 L -4.047816795163941 -0.8129999999999998 L -4.059431926282552 -0.8129999999999998 L -4.071896765132069 -0.8129999999999998 L -4.085054559131693 -0.8129999999999998 L -4.098739841387548 -0.813 L -4.112780511534879 -0.813 L -4.127 -0.813 " stroke="#191919" stroke-width="0.35 px" style="stroke-width:0.35;stroke-miterlimit:4;stroke-dasharray:none;fill:none;fill-opacity:1;fill-rule: evenodd"/>
<path id="Shape2DView_nwe0047"  d="M -3.619 -0.813 L -3.6616584653953606 -0.8130000000000001 L -3.703780475837356 -0.8130000000000001 L -3.744836322604919 -0.8130000000000002 L -3.78430970460379 -0.8130000000000002 L -3.8217042211523435 -0.8130000000000002 L -3.8565496145081775 -0.8130000000000003 L -3.888407683632075 -0.8130000000000003 L -3.9168777948203197 -0.8130000000000004 L -3.9416019199059766 -0.8130000000000004 L -3.962269138670822 -0.8130000000000004 L -3.9786195488474885 -0.8130000000000004 L -3.990447534541275 -0.8130000000000004 L -3.9976043519693256 -0.8130000000000005 L -4.0 -0.8130000000000005 " stroke="#191919" stroke-width="0.35 px" style="stroke-width:0.35;stroke-miterlimit:4;stroke-dasharray:none;fill:none;fill-opacity:1;fill-rule: evenodd"/>
<path id="Shape2DView_nwe0048"  d="M -3.619 -0.8129999999999994 L -3.5 -0.8129999999999993 " stroke="#191919" stroke-width="0.35 px" style="stroke-width:0.35;stroke-miterlimit:4;stroke-dasharray:none;fill:none;fill-opacity:1;fill-rule: evenodd"/>
<path id="Shape2DView_nwe0049"  d="M -4.66 -0.813 L -4.127 -0.8129999999999993 " stroke="#191919" stroke-width="0.35 px" style="stroke-width:0.35;stroke-miterlimit:4;stroke-dasharray:none;fill:none;fill-opacity:1;fill-rule: evenodd"/>
<path id="Shape2DView_nwe0050"  d="M -3.4249999999999976 0.813 L -3.4249999999999954 -0.8130000000000002 " stroke="#191919" stroke-width="0.35 px" style="stroke-width:0.35;stroke-miterlimit:4;stroke-dasharray:none;fill:none;fill-opacity:1;fill-rule: evenodd"/>
<path id="Shape2DView_nwe0051"  d="M -3.425 -2.39 L 3.425 -2.389999999999991 " stroke="#191919" stroke-width="0.35 px" style="stroke-width:0.35;stroke-miterlimit:4;stroke-dasharray:none;fill:none;fill-opacity:1;fill-rule: evenodd"/>
<path id="Shape2DView_nwe0052"  d="M 3.424999999999999 -1.727 L 3.4249999999999976 -0.813 " stroke="#191919" stroke-width="0.35 px" style="stroke-width:0.35;stroke-miterlimit:4;stroke-dasharray:none;fill:none;fill-opacity:1;fill-rule: evenodd"/>
<path id="Shape2DView_nwe0053"  d="M 3.4249999999999954 0.8130000000000002 L 3.4249999999999945 1.7269999999999999 " stroke="#191919" stroke-width="0.35 px" style="stroke-width:0.35;stroke-miterlimit:4;stroke-dasharray:none;fill:none;fill-opacity:1;fill-rule: evenodd"/>
<path id="Shape2DView_nwe0054"  d="M 3.425 2.39 L 3.101276356577 2.066276356577 " stroke="#191919" stroke-width="0.35 px" style="stroke-width:0.35;stroke-miterlimit:4;stroke-dasharray:none;fill:none;fill-opacity:1;fill-rule: evenodd"/>
<path id="Shape2DView_nwe0055"  d="M 3.101276356577 -2.066276356577 L 3.1012763565769945 2.066276356577 " stroke="#191919" stroke-width="0.35 px" style="stroke-width:0.35;stroke-miterlimit:4;stroke-dasharray:none;fill:none;fill-opacity:1;fill-rule: evenodd"/>
<path id="Shape2DView_nwe0056"  d="M 3.425 -2.39 L 3.101276356577 -2.066276356577 " stroke="#191919" stroke-width="0.35 px" style="stroke-width:0.35;stroke-miterlimit:4;stroke-dasharray:none;fill:none;fill-opacity:1;fill-rule: evenodd"/>
<path id="Shape2DView_nwe0057"  d="M 3.499999999999999 -1.727 L 3.499999999999998 -0.813 " stroke="#191919" stroke-width="0.35 px" style="stroke-width:0.35;stroke-miterlimit:4;stroke-dasharray:none;fill:none;fill-opacity:1;fill-rule: evenodd"/>
<path id="Shape2DView_nwe0058"  d="M 4.66 -0.813 L 4.660000000000001 -1.727 " stroke="#191919" stroke-width="0.35 px" style="stroke-width:0.35;stroke-miterlimit:4;stroke-dasharray:none;fill:none;fill-opacity:1;fill-rule: evenodd"/>
<path id="Shape2DView_nwe0059"  d="M 4.0 -0.813 L 4.000000000000001 -1.727 " stroke="#191919" stroke-width="0.35 px" style="stroke-width:0.35;stroke-miterlimit:4;stroke-dasharray:none;fill:none;fill-opacity:1;fill-rule: evenodd"/>
<path id="Shape2DView_nwe0060"  d="M 4.0 0.813 L 3.999999999999999 1.727 " stroke="#191919" stroke-width="0.35 px" style="stroke-width:0.35;stroke-miterlimit:4;stroke-dasharray:none;fill:none;fill-opacity:1;fill-rule: evenodd"/>
<path id="Shape2DView_nwe0061"  d="M 3.4999999999999956 0.8129999999999997 L 3.4999999999999942 1.7270000000000003 " stroke="#191919" stroke-width="0.35 px" style="stroke-width:0.35;stroke-miterlimit:4;stroke-dasharray:none;fill:none;fill-opacity:1;fill-rule: evenodd"/>
<path id="Shape2DView_nwe0062"  d="M 4.66 1.727 L 4.660000000000001 0.813 " stroke="#191919" stroke-width="0.35 px" style="stroke-width:0.35;stroke-miterlimit:4;stroke-dasharray:none;fill:none;fill-opacity:1;fill-rule: evenodd"/>
<path id="Shape2DView_nwe0063"  d="M -3.425 2.39 L -3.101276356577 2.066276356577 " stroke="#191919" stroke-width="0.35 px" style="stroke-width:0.35;stroke-miterlimit:4;stroke-dasharray:none;fill:none;fill-opacity:1;fill-rule: evenodd"/>
<path id="Shape2DView_nwe0064"  d="M -0.7462405778300001 2.066276356576995 L -3.101276356577 2.0662763565769917 " stroke="#191919" stroke-width="0.35 px" style="stroke-width:0.35;stroke-miterlimit:4;stroke-dasharray:none;fill:none;fill-opacity:1;fill-rule: evenodd"/>
<path id="Shape2DView_nwe0065"  d="M -0.7493474955903637 2.1725546374111024 L -0.74624057783 2.066276356577 " stroke="#191919" stroke-width="0.35 px" style="stroke-width:0.35;stroke-miterlimit:4;stroke-dasharray:none;fill:none;fill-opacity:1;fill-rule: evenodd"/>
<path id="Shape2DView_nwe0066"  d="M -0.749347495591 2.172554637412 L 0.749347495591 2.172554637412 " stroke="#191919" stroke-width="0.35 px" style="stroke-width:0.35;stroke-miterlimit:4;stroke-dasharray:none;fill:none;fill-opacity:1;fill-rule: evenodd"/>
<path id="Shape2DView_nwe0067"  d="M 0.7493474955903655 2.1725546374120595 L 0.74624057783 2.066276356577 " stroke="#191919" stroke-width="0.35 px" style="stroke-width:0.35;stroke-miterlimit:4;stroke-dasharray:none;fill:none;fill-opacity:1;fill-rule: evenodd"/>
<path id="Shape2DView_nwe0068"  d="M 3.101276356577 2.066276356577 L 0.7462405778300001 2.066276356576997 " stroke="#191919" stroke-width="0.35 px" style="stroke-width:0.35;stroke-miterlimit:4;stroke-dasharray:none;fill:none;fill-opacity:1;fill-rule: evenodd"/>
<path id="Shape2DView_nwe0069"  d="M -3.424999999999999 1.727 L -3.4249999999999976 0.813 " stroke="#191919" stroke-width="0.35 px" style="stroke-width:0.35;stroke-miterlimit:4;stroke-dasharray:none;fill:none;fill-opacity:1;fill-rule: evenodd"/>
<path id="Shape2DView_nwe0070"  d="M -3.4249999999999954 -0.8130000000000002 L -3.4249999999999945 -1.7269999999999999 " stroke="#191919" stroke-width="0.35 px" style="stroke-width:0.35;stroke-miterlimit:4;stroke-dasharray:none;fill:none;fill-opacity:1;fill-rule: evenodd"/>
<path id="Shape2DView_nwe0071"  d="M -3.425 -2.39 L -3.101276356577 -2.066276356577 " stroke="#191919" stroke-width="0.35 px" style="stroke-width:0.35;stroke-miterlimit:4;stroke-dasharray:none;fill:none;fill-opacity:1;fill-rule: evenodd"/>
<path id="Shape2DView_nwe0072"  d="M -3.101276356577 2.066276356577 L -3.1012763565769945 -2.066276356577 " stroke="#191919" stroke-width="0.35 px" style="stroke-width:0.35;stroke-miterlimit:4;stroke-dasharray:none;fill:none;fill-opacity:1;fill-rule: evenodd"/>
<path id="Shape2DView_nwe0073"  d="M -3.499999999999999 1.727 L -3.499999999999998 0.813 " stroke="#191919" stroke-width="0.35 px" style="stroke-width:0.35;stroke-miterlimit:4;stroke-dasharray:none;fill:none;fill-opacity:1;fill-rule: evenodd"/>
<path id="Shape2DView_nwe0074"  d="M -4.66 0.813 L -4.660000000000001 1.727 " stroke="#191919" stroke-width="0.35 px" style="stroke-width:0.35;stroke-miterlimit:4;stroke-dasharray:none;fill:none;fill-opacity:1;fill-rule: evenodd"/>
<path id="Shape2DView_nwe0075"  d="M -4.0 0.813 L -4.000000000000001 1.727 " stroke="#191919" stroke-width="0.35 px" style="stroke-width:0.35;stroke-miterlimit:4;stroke-dasharray:none;fill:none;fill-opacity:1;fill-rule: evenodd"/>
<path id="Shape2DView_nwe0076"  d="M -4.0 -0.813 L -3.9999999999999987 -1.727 " stroke="#191919" stroke-width="0.35 px" style="stroke-width:0.35;stroke-miterlimit:4;stroke-dasharray:none;fill:none;fill-opacity:1;fill-rule: evenodd"/>
<path id="Shape2DView_nwe0077"  d="M -3.4999999999999956 -0.8129999999999997 L -3.4999999999999942 -1.7270000000000003 " stroke="#191919" stroke-width="0.35 px" style="stroke-width:0.35;stroke-miterlimit:4;stroke-dasharray:none;fill:none;fill-opacity:1;fill-rule: evenodd"/>
<path id="Shape2DView_nwe0078"  d="M -4.66 -1.727 L -4.660000000000001 -0.813 " stroke="#191919" stroke-width="0.35 px" style="stroke-width:0.35;stroke-miterlimit:4;stroke-dasharray:none;fill:none;fill-opacity:1;fill-rule: evenodd"/>
<path id="Shape2DView_nwe0079"  d="M -3.101276356577 -2.066276356577 L 3.101276356577 -2.0662763565769917 " stroke="#191919" stroke-width="0.35 px" style="stroke-width:0.35;stroke-miterlimit:4;stroke-dasharray:none;fill:none;fill-opacity:1;fill-rule: evenodd"/>
<path id="Shape2DView_nwe0080"  d="M -4.502590058489501e-15 1.3912763565769999 A 0.75 0.75 0 0 0 -0.746241 2.06628" stroke="#191919" stroke-width="0.35 px" style="stroke-width:0.35;stroke-miterlimit:4;stroke-dasharray:none;fill:none;fill-opacity:1;fill-rule: evenodd"/>
<path id="Shape2DView_nwe0081"  d="M 0.7462405778299599 2.0662763565770046 A 0.75 0.75 0 0 0 -4.31889e-15 1.39128" stroke="#191919" stroke-width="0.35 px" style="stroke-width:0.35;stroke-miterlimit:4;stroke-dasharray:none;fill:none;fill-opacity:1;fill-rule: evenodd"/>
<path id="Shape2DView_nwe0082"  d="M -0.74624057782997 2.066276356576995 A 0.75 0.75 0 0 0 -0.749347 2.17255" stroke="#191919" stroke-width="0.35 px" style="stroke-width:0.35;stroke-miterlimit:4;stroke-dasharray:none;fill:none;fill-opacity:1;fill-rule: evenodd"/>
<path id="Shape2DView_nwe0083"  d="M 0.7493474955906635 2.172554637411986 A 0.75 0.75 0 0 0 0.746241 2.06628" stroke="#191919" stroke-width="0.35 px" style="stroke-width:0.35;stroke-miterlimit:4;stroke-dasharray:none;fill:none;fill-opacity:1;fill-rule: evenodd"/>
<path id="Shape2DView_nwe0084"  d="M 4.127 -1.727 L 4.126999999999999 -0.813 " stroke="#191919" stroke-width="0.35 px" style="stroke-width:0.35;stroke-miterlimit:4;stroke-dasharray:none;fill:none;fill-opacity:1;fill-rule: evenodd"/>
<path id="Shape2DView_nwe0085"  d="M 3.619 -0.813 L 3.619000000000001 -1.727 " stroke="#191919" stroke-width="0.35 px" style="stroke-width:0.35;stroke-miterlimit:4;stroke-dasharray:none;fill:none;fill-opacity:1;fill-rule: evenodd"/>
<path id="Shape2DView_nwe0086"  d="M 3.619 0.813 L 3.6189999999999993 1.727 " stroke="#191919" stroke-width="0.35 px" style="stroke-width:0.35;stroke-miterlimit:4;stroke-dasharray:none;fill:none;fill-opacity:1;fill-rule: evenodd"/>
<path id="Shape2DView_nwe0087"  d="M 4.127 0.813 L 4.126999999999999 1.727 " stroke="#191919" stroke-width="0.35 px" style="stroke-width:0.35;stroke-miterlimit:4;stroke-dasharray:none;fill:none;fill-opacity:1;fill-rule: evenodd"/>
<path id="Shape2DView_nwe0088"  d="M -4.127 1.727 L -4.126999999999999 0.813 " stroke="#191919" stroke-width="0.35 px" style="stroke-width:0.35;stroke-miterlimit:4;stroke-dasharray:none;fill:none;fill-opacity:1;fill-rule: evenodd"/>
<path id="Shape2DView_nwe0089"  d="M -3.619 0.813 L -3.6190000000000015 1.727 " stroke="#191919" stroke-width="0.35 px" style="stroke-width:0.35;stroke-miterlimit:4;stroke-dasharray:none;fill:none;fill-opacity:1;fill-rule: evenodd"/>
<path id="Shape2DView_nwe0090"  d="M -3.619 -0.813 L -3.618999999999999 -1.727 " stroke="#191919" stroke-width="0.35 px" style="stroke-width:0.35;stroke-miterlimit:4;stroke-dasharray:none;fill:none;fill-opacity:1;fill-rule: evenodd"/>
<path id="Shape2DView_nwe0091"  d="M -4.127 -0.813 L -4.126999999999999 -1.727 " stroke="#191919" stroke-width="0.35 px" style="stroke-width:0.35;stroke-miterlimit:4;stroke-dasharray:none;fill:none;fill-opacity:1;fill-rule: evenodd"/>
<path id="Shape2DView_nwe0092"  d="M 3.425 -1.7269999999999959 L 3.5 -1.7269999999999956 " stroke="#191919" stroke-width="0.35 px" style="stroke-width:0.35;stroke-miterlimit:4;stroke-dasharray:none;fill:none;fill-opacity:1;fill-rule: evenodd"/>
<path id="Shape2DView_nwe0093"  d="M 3.5 1.7269999999999994 L 3.425 1.7269999999999994 " stroke="#191919" stroke-width="0.35 px" style="stroke-width:0.35;stroke-miterlimit:4;stroke-dasharray:none;fill:none;fill-opacity:1;fill-rule: evenodd"/>
<path id="Shape2DView_nwe0094"  d="M 3.5 -0.8130000000000004 L 3.425 -0.8130000000000005 " stroke="#191919" stroke-width="0.35 px" style="stroke-width:0.35;stroke-miterlimit:4;stroke-dasharray:none;fill:none;fill-opacity:1;fill-rule: evenodd"/>
<path id="Shape2DView_nwe0095"  d="M 3.5 0.8129999999999994 L 3.425 0.8129999999999993 " stroke="#191919" stroke-width="0.35 px" style="stroke-width:0.35;stroke-miterlimit:4;stroke-dasharray:none;fill:none;fill-opacity:1;fill-rule: evenodd"/>
<path id="Shape2DView_nwe0096"  d="M -3.425 1.7269999999999954 L -3.5 1.7269999999999952 " stroke="#191919" stroke-width="0.35 px" style="stroke-width:0.35;stroke-miterlimit:4;stroke-dasharray:none;fill:none;fill-opacity:1;fill-rule: evenodd"/>
<path id="Shape2DView_nwe0097"  d="M -3.5 -1.7269999999999994 L -3.425 -1.7269999999999994 " stroke="#191919" stroke-width="0.35 px" style="stroke-width:0.35;stroke-miterlimit:4;stroke-dasharray:none;fill:none;fill-opacity:1;fill-rule: evenodd"/>
<path id="Shape2DView_nwe0098"  d="M -3.5 0.8130000000000004 L -3.425 0.8130000000000005 " stroke="#191919" stroke-width="0.35 px" style="stroke-width:0.35;stroke-miterlimit:4;stroke-dasharray:none;fill:none;fill-opacity:1;fill-rule: evenodd"/>
<path id="Shape2DView_nwe0099"  d="M -3.5 -0.8129999999999993 L -3.425 -0.8129999999999992 " stroke="#191919" stroke-width="0.35 px" style="stroke-width:0.35;stroke-miterlimit:4;stroke-dasharray:none;fill:none;fill-opacity:1;fill-rule: evenodd"/>
<title>b'Shape2DView'</title>
</g>
<g id="Rectangle" transform="translate(4.753200,2.558200) scale(1,-1)">
<rect fill="#ff0000" id="origin" width="1" height="1" x="0" y="0" />
<title>b'Rectangle'</title>
</g>
</svg>