<?xml version="1.0"?>
<!DOCTYPE svg PUBLIC "-//W3C//DTD SVG 1.1//EN" "http://www.w3.org/Graphics/SVG/1.1/DTD/svg11.dtd">
<svg width="2.55mm" height="1.2999999999999998mm" viewBox="0 0 2.55 1.2999999999999998" xmlns="http://www.w3.org/2000/svg" version="1.1">
<g id="Shape2DView" transform="translate(1.275000,1.025000) scale(1,-1)">
<path id="Shape2DView_nwe0000"  d="M 0.65 -0.25 L 0.65 0.25 " stroke="#191919" stroke-width="0.35 px" style="stroke-width:0.35;stroke-miterlimit:4;stroke-dasharray:none;fill:none;fill-opacity:1;fill-rule: evenodd"/>
<path id="Shape2DView_nwe0001"  d="M 0.65 0.25 L 1.25 0.25 " stroke="#191919" stroke-width="0.35 px" style="stroke-width:0.35;stroke-miterlimit:4;stroke-dasharray:none;fill:none;fill-opacity:1;fill-rule: evenodd"/>
<path id="Shape2DView_nwe0002"  d="M 1.25 -0.25 L 1.25 0.25 " stroke="#191919" stroke-width="0.35 px" style="stroke-width:0.35;stroke-miterlimit:4;stroke-dasharray:none;fill:none;fill-opacity:1;fill-rule: evenodd"/>
<path id="Shape2DView_nwe0003"  d="M 0.65 -0.25 L 1.25 -0.25 " stroke="#191919" stroke-width="0.35 px" style="stroke-width:0.35;stroke-miterlimit:4;stroke-dasharray:none;fill:none;fill-opacity:1;fill-rule: evenodd"/>
<path id="Shape2DView_nwe0004"  d="M -1.25 -0.25 L -1.25 0.25 " stroke="#191919" stroke-width="0.35 px" style="stroke-width:0.35;stroke-miterlimit:4;stroke-dasharray:none;fill:none;fill-opacity:1;fill-rule: evenodd"/>
<path id="Shape2DView_nwe0005"  d="M -1.25 0.25 L -0.65 0.25 " stroke="#191919" stroke-width="0.35 px" style="stroke-width:0.35;stroke-miterlimit:4;stroke-dasharray:none;fill:none;fill-opacity:1;fill-rule: evenodd"/>
<path id="Shape2DView_nwe0006"  d="M -0.65 -0.25 L -0.65 0.25 " stroke="#191919" stroke-width="0.35 px" style="stroke-width:0.35;stroke-miterlimit:4;stroke-dasharray:none;fill:none;fill-opacity:1;fill-rule: evenodd"/>
<path id="Shape2DView_nwe0007"  d="M -1.25 -0.25 L -0.65 -0.25 " stroke="#191919" stroke-width="0.35 px" style="stroke-width:0.35;stroke-miterlimit:4;stroke-dasharray:none;fill:none;fill-opacity:1;fill-rule: evenodd"/>
<path id="Shape2DView_nwe0008"  d="M 0.65 -0.25 L 0.6337031429181854 -0.25000000000000006 L 0.5856297641365724 -0.25000000000000006 L 0.5081904636042195 -0.2500000000000001 L 0.40526837120817694 -0.2500000000000001 L 0.2820244304264129 -0.2500000000000001 L 0.14463860707160447 -0.25000000000000017 L 1.1940306291686693e-16 -0.25000000000000017 L -0.14463860707160425 -0.25000000000000017 L -0.2820244304264127 -0.2500000000000001 L -0.4052683712081767 -0.2500000000000001 L -0.5081904636042193 -0.2500000000000001 L -0.5856297641365724 -0.25000000000000006 L -0.6337031429181853 -0.25000000000000006 L -0.65 -0.25 " stroke="#191919" stroke-width="0.35 px" style="stroke-width:0.35;stroke-miterlimit:4;stroke-dasharray:none;fill:none;fill-opacity:1;fill-rule: evenodd"/>
<path id="Shape2DView_nwe0009"  d="M 0.65 0.25 L 0.6337031429181854 0.24999999999999997 L 0.5856297641365724 0.24999999999999994 L 0.5081904636042195 0.24999999999999992 L 0.40526837120817694 0.2499999999999999 L 0.2820244304264129 0.24999999999999986 L 0.14463860707160447 0.24999999999999986 L 1.1940306291686693e-16 0.24999999999999986 L -0.14463860707160425 0.24999999999999986 L -0.2820244304264127 0.24999999999999986 L -0.4052683712081767 0.2499999999999999 L -0.5081904636042193 0.24999999999999992 L -0.5856297641365724 0.24999999999999994 L -0.6337031429181853 0.24999999999999997 L -0.65 0.25 " stroke="#191919" stroke-width="0.35 px" style="stroke-width:0.35;stroke-miterlimit:4;stroke-dasharray:none;fill:none;fill-opacity:1;fill-rule: evenodd"/>
<title>b'Shape2DView'</title>
</g>
<g id="Rectangle" transform="translate(1.275000,1.025000) scale(1,-1)">
<rect fill="#ff0000" id="origin" width="1" height="1" x="0" y="0" />
<title>b'Rectangle'</title>
</g>
</svg>