<?xml version="1.0"?>
<!DOCTYPE svg PUBLIC "-//W3C//DTD SVG 1.1//EN" "http://www.w3.org/Graphics/SVG/1.1/DTD/svg11.dtd">
<svg width="3.57mm" height="1.3699999999999999mm" viewBox="0 0 3.57 1.3699999999999999" xmlns="http://www.w3.org/2000/svg" version="1.1">
<g id="Shape2DView" transform="translate(1.785000,1.035000) scale(1,-1)">
<path id="Shape2DView_nwe0000"  d="M -1.75 -0.3 L -1.75 0.3 " stroke="#191919" stroke-width="0.35 px" style="stroke-width:0.35;stroke-miterlimit:4;stroke-dasharray:none;fill:none;fill-opacity:1;fill-rule: evenodd"/>
<path id="Shape2DView_nwe0001"  d="M -1.75 -0.3 L -1.7061238463181914 -0.2999999999999999 L -1.5766955188292335 -0.2999999999999998 L -1.3682050943190522 -0.29999999999999977 L -1.0911071532527838 -0.2999999999999997 L -0.7592965434557268 -0.29999999999999966 L -0.3894116344235503 -0.2999999999999996 L -1.071565949253934e-16 -0.2999999999999996 L 0.3894116344235501 -0.2999999999999996 L 0.7592965434557266 -0.29999999999999966 L 1.0911071532527836 -0.2999999999999997 L 1.3682050943190522 -0.29999999999999977 L 1.5766955188292333 -0.2999999999999998 L 1.7061238463181914 -0.2999999999999999 L 1.75 -0.3 " stroke="#191919" stroke-width="0.35 px" style="stroke-width:0.35;stroke-miterlimit:4;stroke-dasharray:none;fill:none;fill-opacity:1;fill-rule: evenodd"/>
<path id="Shape2DView_nwe0002"  d="M 1.75 -0.3 L 1.75 0.3 " stroke="#191919" stroke-width="0.35 px" style="stroke-width:0.35;stroke-miterlimit:4;stroke-dasharray:none;fill:none;fill-opacity:1;fill-rule: evenodd"/>
<path id="Shape2DView_nwe0003"  d="M -1.75 0.3 L -1.7061238463181914 0.3000000000000001 L -1.5766955188292335 0.30000000000000016 L -1.3682050943190522 0.3000000000000002 L -1.0911071532527838 0.30000000000000027 L -0.7592965434557268 0.3000000000000003 L -0.3894116344235503 0.3000000000000004 L -1.071565949253934e-16 0.3000000000000004 L 0.3894116344235501 0.3000000000000004 L 0.7592965434557266 0.3000000000000003 L 1.0911071532527836 0.30000000000000027 L 1.3682050943190522 0.3000000000000002 L 1.5766955188292333 0.30000000000000016 L 1.7061238463181914 0.3000000000000001 L 1.75 0.3 " stroke="#191919" stroke-width="0.35 px" style="stroke-width:0.35;stroke-miterlimit:4;stroke-dasharray:none;fill:none;fill-opacity:1;fill-rule: evenodd"/>
<title>b'Shape2DView'</title>
</g>
<g id="Rectangle" transform="translate(1.785000,1.035000) scale(1,-1)">
<rect fill="#ff0000" id="origin" width="1" height="1" x="0" y="0" />
<title>b'Rectangle'</title>
</g>
</svg>