<?xml version="1.0"?>
<!DOCTYPE svg PUBLIC "-//W3C//DTD SVG 1.1//EN" "http://www.w3.org/Graphics/SVG/1.1/DTD/svg11.dtd">
<svg width="1.224mm" height="1.124mm" viewBox="0 0 1.224 1.124" xmlns="http://www.w3.org/2000/svg" version="1.1">
<g id="Shape2DView" transform="translate(0.212000,1.012000) scale(1,-1)">
<path id="Shape2DView_nwe0000"  d="M -0.2 -0.1 L -0.2 0.1 " stroke="#191919" stroke-width="0.35 px" style="stroke-width:0.35;stroke-miterlimit:4;stroke-dasharray:none;fill:none;fill-opacity:1;fill-rule: evenodd"/>
<path id="Shape2DView_nwe0001"  d="M -0.2 -0.1 L -0.19991825872861216 -0.1 L -0.1996740628583637 -0.1 L -0.1992704832940088 -0.1 L -0.19871259528273144 -0.1 L -0.1980074145899677 -0.1 L -0.19716380927208438 -0.1 L -0.1961923881554251 -0.1 L -0.19510536742416354 -0.1 L -0.1939164169946994 -0.1 L -0.19264048860852825 -0.1 L -0.19129362780541717 -0.1 L -0.18989277214143208 -0.1 L -0.188455538189343 -0.1 L -0.187 -0.1 " stroke="#191919" stroke-width="0.35 px" style="stroke-width:0.35;stroke-miterlimit:4;stroke-dasharray:none;fill:none;fill-opacity:1;fill-rule: evenodd"/>
<path id="Shape2DView_nwe0002"  d="M -0.187 -0.1 L -0.113 -0.1 " stroke="#191919" stroke-width="0.35 px" style="stroke-width:0.35;stroke-miterlimit:4;stroke-dasharray:none;fill:none;fill-opacity:1;fill-rule: evenodd"/>
<path id="Shape2DView_nwe0003"  d="M -0.1 -0.1 L -0.10008174127138784 -0.1 L -0.10032593714163629 -0.1 L -0.10072951670599123 -0.1 L -0.10128740471726855 -0.1 L -0.10199258541003231 -0.1 L -0.10283619072791561 -0.1 L -0.10380761184457488 -0.1 L -0.10489463257583646 -0.1 L -0.10608358300530063 -0.1 L -0.10735951139147175 -0.1 L -0.10870637219458283 -0.1 L -0.11010722785856791 -0.1 L -0.111544461810657 -0.1 L -0.113 -0.1 " stroke="#191919" stroke-width="0.35 px" style="stroke-width:0.35;stroke-miterlimit:4;stroke-dasharray:none;fill:none;fill-opacity:1;fill-rule: evenodd"/>
<path id="Shape2DView_nwe0004"  d="M -0.2 0.1 L -0.19991825872861216 0.1 L -0.1996740628583637 0.1 L -0.1992704832940088 0.1 L -0.19871259528273144 0.1 L -0.1980074145899677 0.1 L -0.19716380927208438 0.1 L -0.1961923881554251 0.1 L -0.19510536742416354 0.1 L -0.1939164169946994 0.1 L -0.19264048860852825 0.1 L -0.19129362780541717 0.1 L -0.18989277214143208 0.1 L -0.188455538189343 0.1 L -0.187 0.1 " stroke="#191919" stroke-width="0.35 px" style="stroke-width:0.35;stroke-miterlimit:4;stroke-dasharray:none;fill:none;fill-opacity:1;fill-rule: evenodd"/>
<path id="Shape2DView_nwe0005"  d="M -0.187 0.1 L -0.113 0.1 " stroke="#191919" stroke-width="0.35 px" style="stroke-width:0.35;stroke-miterlimit:4;stroke-dasharray:none;fill:none;fill-opacity:1;fill-rule: evenodd"/>
<path id="Shape2DView_nwe0006"  d="M -0.1 0.1 L -0.10008174127138784 0.1 L -0.10032593714163629 0.1 L -0.10072951670599123 0.1 L -0.10128740471726855 0.1 L -0.10199258541003231 0.1 L -0.10283619072791561 0.1 L -0.10380761184457488 0.1 L -0.10489463257583646 0.1 L -0.10608358300530063 0.1 L -0.10735951139147175 0.1 L -0.10870637219458283 0.1 L -0.11010722785856791 0.1 L -0.111544461810657 0.1 L -0.113 0.1 " stroke="#191919" stroke-width="0.35 px" style="stroke-width:0.35;stroke-miterlimit:4;stroke-dasharray:none;fill:none;fill-opacity:1;fill-rule: evenodd"/>
<path id="Shape2DView_nwe0007"  d="M 0.1 -0.1 L 0.10008174127138784 -0.1 L 0.10032593714163629 -0.1 L 0.10072951670599123 -0.1 L 0.10128740471726855 -0.1 L 0.10199258541003231 -0.1 L 0.10283619072791561 -0.1 L 0.10380761184457488 -0.1 L 0.10489463257583646 -0.1 L 0.10608358300530063 -0.1 L 0.10735951139147175 -0.1 L 0.10870637219458283 -0.1 L 0.11010722785856791 -0.1 L 0.111544461810657 -0.1 L 0.113 -0.1 " stroke="#191919" stroke-width="0.35 px" style="stroke-width:0.35;stroke-miterlimit:4;stroke-dasharray:none;fill:none;fill-opacity:1;fill-rule: evenodd"/>
<path id="Shape2DView_nwe0008"  d="M 0.113 -0.1 L 0.187 -0.1 " stroke="#191919" stroke-width="0.35 px" style="stroke-width:0.35;stroke-miterlimit:4;stroke-dasharray:none;fill:none;fill-opacity:1;fill-rule: evenodd"/>
<path id="Shape2DView_nwe0009"  d="M 0.2 -0.1 L 0.19991825872861216 -0.1 L 0.1996740628583637 -0.1 L 0.1992704832940088 -0.1 L 0.19871259528273144 -0.1 L 0.1980074145899677 -0.1 L 0.19716380927208438 -0.1 L 0.1961923881554251 -0.1 L 0.19510536742416354 -0.1 L 0.1939164169946994 -0.1 L 0.19264048860852825 -0.1 L 0.19129362780541717 -0.1 L 0.18989277214143208 -0.1 L 0.188455538189343 -0.1 L 0.187 -0.1 " stroke="#191919" stroke-width="0.35 px" style="stroke-width:0.35;stroke-miterlimit:4;stroke-dasharray:none;fill:none;fill-opacity:1;fill-rule: evenodd"/>
<path id="Shape2DView_nwe0010"  d="M -0.1 -0.1 L 0.1 -0.1 " stroke="#191919" stroke-width="0.35 px" style="stroke-width:0.35;stroke-miterlimit:4;stroke-dasharray:none;fill:none;fill-opacity:1;fill-rule: evenodd"/>
<path id="Shape2DView_nwe0011"  d="M -0.1 -0.1 L -0.1 0.1 " stroke="#191919" stroke-width="0.35 px" style="stroke-width:0.35;stroke-miterlimit:4;stroke-dasharray:none;fill:none;fill-opacity:1;fill-rule: evenodd"/>
<path id="Shape2DView_nwe0012"  d="M 0.1 0.1 L 0.10008174127138784 0.1 L 0.10032593714163629 0.1 L 0.10072951670599123 0.1 L 0.10128740471726855 0.1 L 0.10199258541003231 0.1 L 0.10283619072791561 0.1 L 0.10380761184457488 0.1 L 0.10489463257583646 0.1 L 0.10608358300530063 0.1 L 0.10735951139147175 0.1 L 0.10870637219458283 0.1 L 0.11010722785856791 0.1 L 0.111544461810657 0.1 L 0.113 0.1 " stroke="#191919" stroke-width="0.35 px" style="stroke-width:0.35;stroke-miterlimit:4;stroke-dasharray:none;fill:none;fill-opacity:1;fill-rule: evenodd"/>
<path id="Shape2DView_nwe0013"  d="M 0.113 0.1 L 0.187 0.1 " stroke="#191919" stroke-width="0.35 px" style="stroke-width:0.35;stroke-miterlimit:4;stroke-dasharray:none;fill:none;fill-opacity:1;fill-rule: evenodd"/>
<path id="Shape2DView_nwe0014"  d="M 0.2 0.1 L 0.19991825872861216 0.1 L 0.1996740628583637 0.1 L 0.1992704832940088 0.1 L 0.19871259528273144 0.1 L 0.1980074145899677 0.1 L 0.19716380927208438 0.1 L 0.1961923881554251 0.1 L 0.19510536742416354 0.1 L 0.1939164169946994 0.1 L 0.19264048860852825 0.1 L 0.19129362780541717 0.1 L 0.18989277214143208 0.1 L 0.188455538189343 0.1 L 0.187 0.1 " stroke="#191919" stroke-width="0.35 px" style="stroke-width:0.35;stroke-miterlimit:4;stroke-dasharray:none;fill:none;fill-opacity:1;fill-rule: evenodd"/>
<path id="Shape2DView_nwe0015"  d="M -0.1 0.1 L 0.1 0.1 " stroke="#191919" stroke-width="0.35 px" style="stroke-width:0.35;stroke-miterlimit:4;stroke-dasharray:none;fill:none;fill-opacity:1;fill-rule: evenodd"/>
<path id="Shape2DView_nwe0016"  d="M 0.2 -0.1 L 0.2 0.1 " stroke="#191919" stroke-width="0.35 px" style="stroke-width:0.35;stroke-miterlimit:4;stroke-dasharray:none;fill:none;fill-opacity:1;fill-rule: evenodd"/>
<path id="Shape2DView_nwe0017"  d="M 0.1 -0.1 L 0.1 0.1 " stroke="#191919" stroke-width="0.35 px" style="stroke-width:0.35;stroke-miterlimit:4;stroke-dasharray:none;fill:none;fill-opacity:1;fill-rule: evenodd"/>
<path id="Shape2DView_nwe0018"  d="M -0.187 -0.1 L -0.187 0.1 " stroke="#191919" stroke-width="0.35 px" style="stroke-width:0.35;stroke-miterlimit:4;stroke-dasharray:none;fill:none;fill-opacity:1;fill-rule: evenodd"/>
<path id="Shape2DView_nwe0019"  d="M -0.113 -0.1 L -0.113 0.1 " stroke="#191919" stroke-width="0.35 px" style="stroke-width:0.35;stroke-miterlimit:4;stroke-dasharray:none;fill:none;fill-opacity:1;fill-rule: evenodd"/>
<path id="Shape2DView_nwe0020"  d="M 0.187 -0.1 L 0.187 0.1 " stroke="#191919" stroke-width="0.35 px" style="stroke-width:0.35;stroke-miterlimit:4;stroke-dasharray:none;fill:none;fill-opacity:1;fill-rule: evenodd"/>
<path id="Shape2DView_nwe0021"  d="M 0.113 -0.1 L 0.113 0.1 " stroke="#191919" stroke-width="0.35 px" style="stroke-width:0.35;stroke-miterlimit:4;stroke-dasharray:none;fill:none;fill-opacity:1;fill-rule: evenodd"/>
<title>b'Shape2DView'</title>
</g>
<g id="Rectangle" transform="translate(0.212000,1.012000) scale(1,-1)">
<rect fill="#ff0000" id="origin" width="1" height="1" x="0" y="0" />
<title>b'Rectangle'</title>
</g>
</svg>