<?xml version="1.0"?>
<!DOCTYPE svg PUBLIC "-//W3C//DTD SVG 1.1//EN" "http://www.w3.org/Graphics/SVG/1.1/DTD/svg11.dtd">
<svg width="1.5299999999999998mm" height="2.03mm" viewBox="0 0 1.5299999999999998 2.03" xmlns="http://www.w3.org/2000/svg" version="1.1">
<g id="Shape2DView" transform="translate(0.515000,1.015000) scale(1,-1)">
<path id="Shape2DView_nwe0000"  d="M -0.5 -0.91 L -0.5 -0.846 " stroke="#191919" stroke-width="0.35 px" style="stroke-width:0.35;stroke-miterlimit:4;stroke-dasharray:none;fill:none;fill-opacity:1;fill-rule: evenodd"/>
<path id="Shape2DView_nwe0001"  d="M -0.48 -0.656106443246 L -0.5 -0.6540000000000001 " stroke="#191919" stroke-width="0.35 px" style="stroke-width:0.35;stroke-miterlimit:4;stroke-dasharray:none;fill:none;fill-opacity:1;fill-rule: evenodd"/>
<path id="Shape2DView_nwe0002"  d="M -0.404 -0.75 A 0.096 0.096 0 0 1 -0.48 -0.656106" stroke="#191919" stroke-width="0.35 px" style="stroke-width:0.35;stroke-miterlimit:4;stroke-dasharray:none;fill:none;fill-opacity:1;fill-rule: evenodd"/>
<path id="Shape2DView_nwe0003"  d="M -0.4799999999999095 -0.8438935567544248 A 0.096 0.096 0 0 1 -0.404 -0.75" stroke="#191919" stroke-width="0.35 px" style="stroke-width:0.35;stroke-miterlimit:4;stroke-dasharray:none;fill:none;fill-opacity:1;fill-rule: evenodd"/>
<path id="Shape2DView_nwe0004"  d="M -0.5 -0.846 L -0.48 -0.843893556754 " stroke="#191919" stroke-width="0.35 px" style="stroke-width:0.35;stroke-miterlimit:4;stroke-dasharray:none;fill:none;fill-opacity:1;fill-rule: evenodd"/>
<path id="Shape2DView_nwe0005"  d="M -0.5 -0.91 L -0.49987424419786486 -0.91 L -0.4994985582436364 -0.91 L -0.49887766660616734 -0.91 L -0.49801937735804835 -0.91 L -0.4969344839845657 -0.91 L -0.49563662964936056 -0.91 L -0.49414213562373094 -0.91 L -0.49246979603717467 -0.91 L -0.49064064153030673 -0.91 L -0.48867767478235113 -0.91 L -0.4866055812391033 -0.91 L -0.48445041867912625 -0.91 L -0.48223928952206613 -0.91 L -0.48 -0.91 " stroke="#191919" stroke-width="0.35 px" style="stroke-width:0.35;stroke-miterlimit:4;stroke-dasharray:none;fill:none;fill-opacity:1;fill-rule: evenodd"/>
<path id="Shape2DView_nwe0006"  d="M -0.48 -0.91 L -0.32 -0.91 " stroke="#191919" stroke-width="0.35 px" style="stroke-width:0.35;stroke-miterlimit:4;stroke-dasharray:none;fill:none;fill-opacity:1;fill-rule: evenodd"/>
<path id="Shape2DView_nwe0007"  d="M -0.32 -0.91 L -0.31776071047793386 -0.91 L -0.31554958132087374 -0.91 L -0.3133944187608967 -0.91 L -0.31132232521764885 -0.91 L -0.30935935846969326 -0.91 L -0.3075302039628253 -0.91 L -0.30585786437626905 -0.91 L -0.30436337035063943 -0.91 L -0.3030655160154343 -0.91 L -0.30198062264195163 -0.91 L -0.30112233339383265 -0.91 L -0.3005014417563635 -0.91 L -0.30012575580213513 -0.91 L -0.3 -0.91 " stroke="#191919" stroke-width="0.35 px" style="stroke-width:0.35;stroke-miterlimit:4;stroke-dasharray:none;fill:none;fill-opacity:1;fill-rule: evenodd"/>
<path id="Shape2DView_nwe0008"  d="M -0.5 -0.654 L -0.5 -0.59 " stroke="#191919" stroke-width="0.35 px" style="stroke-width:0.35;stroke-miterlimit:4;stroke-dasharray:none;fill:none;fill-opacity:1;fill-rule: evenodd"/>
<path id="Shape2DView_nwe0009"  d="M -0.48 -0.59 L -0.48223928952206613 -0.59 L -0.48445041867912625 -0.59 L -0.4866055812391033 -0.59 L -0.48867767478235113 -0.59 L -0.49064064153030673 -0.59 L -0.49246979603717467 -0.59 L -0.49414213562373094 -0.59 L -0.49563662964936056 -0.59 L -0.4969344839845657 -0.59 L -0.49801937735804835 -0.59 L -0.49887766660616734 -0.59 L -0.4994985582436364 -0.59 L -0.49987424419786486 -0.59 L -0.5 -0.59 " stroke="#191919" stroke-width="0.35 px" style="stroke-width:0.35;stroke-miterlimit:4;stroke-dasharray:none;fill:none;fill-opacity:1;fill-rule: evenodd"/>
<path id="Shape2DView_nwe0010"  d="M -0.48 -0.59 L -0.32 -0.59 " stroke="#191919" stroke-width="0.35 px" style="stroke-width:0.35;stroke-miterlimit:4;stroke-dasharray:none;fill:none;fill-opacity:1;fill-rule: evenodd"/>
<path id="Shape2DView_nwe0011"  d="M -0.45 -1.0 L -0.45 -0.91 " stroke="#191919" stroke-width="0.35 px" style="stroke-width:0.35;stroke-miterlimit:4;stroke-dasharray:none;fill:none;fill-opacity:1;fill-rule: evenodd"/>
<path id="Shape2DView_nwe0012"  d="M -0.45 -1.0 L -0.3 -1.0 " stroke="#191919" stroke-width="0.35 px" style="stroke-width:0.35;stroke-miterlimit:4;stroke-dasharray:none;fill:none;fill-opacity:1;fill-rule: evenodd"/>
<path id="Shape2DView_nwe0013"  d="M -0.3 -1.0 L -0.3 1.0 " stroke="#191919" stroke-width="0.35 px" style="stroke-width:0.35;stroke-miterlimit:4;stroke-dasharray:none;fill:none;fill-opacity:1;fill-rule: evenodd"/>
<path id="Shape2DView_nwe0014"  d="M -0.32 -0.59 L -0.31776071047793386 -0.59 L -0.31554958132087374 -0.59 L -0.3133944187608967 -0.59 L -0.31132232521764885 -0.59 L -0.30935935846969326 -0.59 L -0.3075302039628253 -0.59 L -0.30585786437626905 -0.59 L -0.30436337035063943 -0.59 L -0.3030655160154343 -0.59 L -0.30198062264195163 -0.59 L -0.30112233339383265 -0.59 L -0.3005014417563635 -0.59 L -0.30012575580213513 -0.59 L -0.3 -0.59 " stroke="#191919" stroke-width="0.35 px" style="stroke-width:0.35;stroke-miterlimit:4;stroke-dasharray:none;fill:none;fill-opacity:1;fill-rule: evenodd"/>
<path id="Shape2DView_nwe0015"  d="M 0.5 -0.09 L 0.49987424419786486 -0.09 L 0.4994985582436364 -0.09 L 0.49887766660616734 -0.09 L 0.49801937735804835 -0.09 L 0.4969344839845657 -0.09 L 0.49563662964936056 -0.09 L 0.49414213562373094 -0.09 L 0.49246979603717467 -0.09 L 0.49064064153030673 -0.09 L 0.48867767478235113 -0.09 L 0.4866055812391033 -0.09 L 0.48445041867912625 -0.09 L 0.48223928952206613 -0.09 L 0.48 -0.09 " stroke="#191919" stroke-width="0.35 px" style="stroke-width:0.35;stroke-miterlimit:4;stroke-dasharray:none;fill:none;fill-opacity:1;fill-rule: evenodd"/>
<path id="Shape2DView_nwe0016"  d="M 0.48 -0.09 L 0.32 -0.08999999999999997 " stroke="#191919" stroke-width="0.35 px" style="stroke-width:0.35;stroke-miterlimit:4;stroke-dasharray:none;fill:none;fill-opacity:1;fill-rule: evenodd"/>
<path id="Shape2DView_nwe0017"  d="M 0.32 -0.09 L 0.31776071047793386 -0.09 L 0.31554958132087374 -0.09 L 0.3133944187608967 -0.09 L 0.31132232521764885 -0.09 L 0.30935935846969326 -0.09 L 0.3075302039628253 -0.09 L 0.30585786437626905 -0.09 L 0.30436337035063943 -0.09 L 0.3030655160154343 -0.09 L 0.30198062264195163 -0.09 L 0.30112233339383265 -0.09 L 0.3005014417563635 -0.09 L 0.30012575580213513 -0.09 L 0.3 -0.09 " stroke="#191919" stroke-width="0.35 px" style="stroke-width:0.35;stroke-miterlimit:4;stroke-dasharray:none;fill:none;fill-opacity:1;fill-rule: evenodd"/>
<path id="Shape2DView_nwe0018"  d="M 0.48 -0.41 L 0.48223928952206613 -0.41 L 0.48445041867912625 -0.41 L 0.4866055812391033 -0.41 L 0.48867767478235113 -0.41 L 0.49064064153030673 -0.41 L 0.49246979603717467 -0.41 L 0.49414213562373094 -0.41 L 0.49563662964936056 -0.41 L 0.4969344839845657 -0.41 L 0.49801937735804835 -0.41 L 0.49887766660616734 -0.41 L 0.4994985582436364 -0.41 L 0.49987424419786486 -0.41 L 0.5 -0.41 " stroke="#191919" stroke-width="0.35 px" style="stroke-width:0.35;stroke-miterlimit:4;stroke-dasharray:none;fill:none;fill-opacity:1;fill-rule: evenodd"/>
<path id="Shape2DView_nwe0019"  d="M 0.48 -0.41 L 0.32 -0.41 " stroke="#191919" stroke-width="0.35 px" style="stroke-width:0.35;stroke-miterlimit:4;stroke-dasharray:none;fill:none;fill-opacity:1;fill-rule: evenodd"/>
<path id="Shape2DView_nwe0020"  d="M 0.32 -0.41 L 0.31776071047793386 -0.41 L 0.31554958132087374 -0.41 L 0.3133944187608967 -0.41 L 0.31132232521764885 -0.41 L 0.30935935846969326 -0.41 L 0.3075302039628253 -0.41 L 0.30585786437626905 -0.41 L 0.30436337035063943 -0.41 L 0.3030655160154343 -0.41 L 0.30198062264195163 -0.41 L 0.30112233339383265 -0.41 L 0.3005014417563635 -0.41 L 0.30012575580213513 -0.41 L 0.3 -0.41 " stroke="#191919" stroke-width="0.35 px" style="stroke-width:0.35;stroke-miterlimit:4;stroke-dasharray:none;fill:none;fill-opacity:1;fill-rule: evenodd"/>
<path id="Shape2DView_nwe0021"  d="M 0.45 -0.08999999999999997 L 0.45 0.09000000000000008 " stroke="#191919" stroke-width="0.35 px" style="stroke-width:0.35;stroke-miterlimit:4;stroke-dasharray:none;fill:none;fill-opacity:1;fill-rule: evenodd"/>
<path id="Shape2DView_nwe0022"  d="M 0.45 -0.59 L 0.45 -0.4099999999999999 " stroke="#191919" stroke-width="0.35 px" style="stroke-width:0.35;stroke-miterlimit:4;stroke-dasharray:none;fill:none;fill-opacity:1;fill-rule: evenodd"/>
<path id="Shape2DView_nwe0023"  d="M 0.48 0.09 L 0.48223928952206613 0.09 L 0.48445041867912625 0.09 L 0.4866055812391033 0.09 L 0.48867767478235113 0.09 L 0.49064064153030673 0.09 L 0.49246979603717467 0.09 L 0.49414213562373094 0.09 L 0.49563662964936056 0.09 L 0.4969344839845657 0.09 L 0.49801937735804835 0.09 L 0.49887766660616734 0.09 L 0.4994985582436364 0.09 L 0.49987424419786486 0.09 L 0.5 0.09 " stroke="#191919" stroke-width="0.35 px" style="stroke-width:0.35;stroke-miterlimit:4;stroke-dasharray:none;fill:none;fill-opacity:1;fill-rule: evenodd"/>
<path id="Shape2DView_nwe0024"  d="M 0.48 0.09 L 0.32 0.09000000000000002 " stroke="#191919" stroke-width="0.35 px" style="stroke-width:0.35;stroke-miterlimit:4;stroke-dasharray:none;fill:none;fill-opacity:1;fill-rule: evenodd"/>
<path id="Shape2DView_nwe0025"  d="M 0.32 0.09 L 0.31776071047793386 0.09 L 0.31554958132087374 0.09 L 0.3133944187608967 0.09 L 0.31132232521764885 0.09 L 0.30935935846969326 0.09 L 0.3075302039628253 0.09 L 0.30585786437626905 0.09 L 0.30436337035063943 0.09 L 0.3030655160154343 0.09 L 0.30198062264195163 0.09 L 0.30112233339383265 0.09 L 0.3005014417563635 0.09 L 0.30012575580213513 0.09 L 0.3 0.09 " stroke="#191919" stroke-width="0.35 px" style="stroke-width:0.35;stroke-miterlimit:4;stroke-dasharray:none;fill:none;fill-opacity:1;fill-rule: evenodd"/>
<path id="Shape2DView_nwe0026"  d="M 0.5 -0.59 L 0.49987424419786486 -0.59 L 0.4994985582436364 -0.59 L 0.49887766660616734 -0.59 L 0.49801937735804835 -0.59 L 0.4969344839845657 -0.59 L 0.49563662964936056 -0.59 L 0.49414213562373094 -0.59 L 0.49246979603717467 -0.59 L 0.49064064153030673 -0.59 L 0.48867767478235113 -0.59 L 0.4866055812391033 -0.59 L 0.48445041867912625 -0.59 L 0.48223928952206613 -0.59 L 0.48 -0.59 " stroke="#191919" stroke-width="0.35 px" style="stroke-width:0.35;stroke-miterlimit:4;stroke-dasharray:none;fill:none;fill-opacity:1;fill-rule: evenodd"/>
<path id="Shape2DView_nwe0027"  d="M 0.48 -0.59 L 0.32 -0.59 " stroke="#191919" stroke-width="0.35 px" style="stroke-width:0.35;stroke-miterlimit:4;stroke-dasharray:none;fill:none;fill-opacity:1;fill-rule: evenodd"/>
<path id="Shape2DView_nwe0028"  d="M 0.32 -0.59 L 0.31776071047793386 -0.59 L 0.31554958132087374 -0.59 L 0.3133944187608967 -0.59 L 0.31132232521764885 -0.59 L 0.30935935846969326 -0.59 L 0.3075302039628253 -0.59 L 0.30585786437626905 -0.59 L 0.30436337035063943 -0.59 L 0.3030655160154343 -0.59 L 0.30198062264195163 -0.59 L 0.30112233339383265 -0.59 L 0.3005014417563635 -0.59 L 0.30012575580213513 -0.59 L 0.3 -0.59 " stroke="#191919" stroke-width="0.35 px" style="stroke-width:0.35;stroke-miterlimit:4;stroke-dasharray:none;fill:none;fill-opacity:1;fill-rule: evenodd"/>
<path id="Shape2DView_nwe0029"  d="M 0.5 0.41 L 0.49987424419786486 0.41 L 0.4994985582436364 0.41 L 0.49887766660616734 0.41 L 0.49801937735804835 0.41 L 0.4969344839845657 0.41 L 0.49563662964936056 0.41 L 0.49414213562373094 0.41 L 0.49246979603717467 0.41 L 0.49064064153030673 0.41 L 0.48867767478235113 0.41 L 0.4866055812391033 0.41 L 0.48445041867912625 0.41 L 0.48223928952206613 0.41 L 0.48 0.41 " stroke="#191919" stroke-width="0.35 px" style="stroke-width:0.35;stroke-miterlimit:4;stroke-dasharray:none;fill:none;fill-opacity:1;fill-rule: evenodd"/>
<path id="Shape2DView_nwe0030"  d="M 0.48 0.41 L 0.32 0.41 " stroke="#191919" stroke-width="0.35 px" style="stroke-width:0.35;stroke-miterlimit:4;stroke-dasharray:none;fill:none;fill-opacity:1;fill-rule: evenodd"/>
<path id="Shape2DView_nwe0031"  d="M 0.32 0.41 L 0.31776071047793386 0.41 L 0.31554958132087374 0.41 L 0.3133944187608967 0.41 L 0.31132232521764885 0.41 L 0.30935935846969326 0.41 L 0.3075302039628253 0.41 L 0.30585786437626905 0.41 L 0.30436337035063943 0.41 L 0.3030655160154343 0.41 L 0.30198062264195163 0.41 L 0.30112233339383265 0.41 L 0.3005014417563635 0.41 L 0.30012575580213513 0.41 L 0.3 0.41 " stroke="#191919" stroke-width="0.35 px" style="stroke-width:0.35;stroke-miterlimit:4;stroke-dasharray:none;fill:none;fill-opacity:1;fill-rule: evenodd"/>
<path id="Shape2DView_nwe0032"  d="M 0.48 -0.91 L 0.48223928952206613 -0.91 L 0.48445041867912625 -0.91 L 0.4866055812391033 -0.91 L 0.48867767478235113 -0.91 L 0.49064064153030673 -0.91 L 0.49246979603717467 -0.91 L 0.49414213562373094 -0.91 L 0.49563662964936056 -0.91 L 0.4969344839845657 -0.91 L 0.49801937735804835 -0.91 L 0.49887766660616734 -0.91 L 0.4994985582436364 -0.91 L 0.49987424419786486 -0.91 L 0.5 -0.91 " stroke="#191919" stroke-width="0.35 px" style="stroke-width:0.35;stroke-miterlimit:4;stroke-dasharray:none;fill:none;fill-opacity:1;fill-rule: evenodd"/>
<path id="Shape2DView_nwe0033"  d="M 0.48 -0.91 L 0.32 -0.91 " stroke="#191919" stroke-width="0.35 px" style="stroke-width:0.35;stroke-miterlimit:4;stroke-dasharray:none;fill:none;fill-opacity:1;fill-rule: evenodd"/>
<path id="Shape2DView_nwe0034"  d="M 0.32 -0.91 L 0.31776071047793386 -0.91 L 0.31554958132087374 -0.91 L 0.3133944187608967 -0.91 L 0.31132232521764885 -0.91 L 0.30935935846969326 -0.91 L 0.3075302039628253 -0.91 L 0.30585786437626905 -0.91 L 0.30436337035063943 -0.91 L 0.3030655160154343 -0.91 L 0.30198062264195163 -0.91 L 0.30112233339383265 -0.91 L 0.3005014417563635 -0.91 L 0.30012575580213513 -0.91 L 0.3 -0.91 " stroke="#191919" stroke-width="0.35 px" style="stroke-width:0.35;stroke-miterlimit:4;stroke-dasharray:none;fill:none;fill-opacity:1;fill-rule: evenodd"/>
<path id="Shape2DView_nwe0035"  d="M 0.45 0.4099999999999999 L 0.45 0.5899999999999999 " stroke="#191919" stroke-width="0.35 px" style="stroke-width:0.35;stroke-miterlimit:4;stroke-dasharray:none;fill:none;fill-opacity:1;fill-rule: evenodd"/>
<path id="Shape2DView_nwe0036"  d="M 0.45 -1.0 L 0.45 -0.91 " stroke="#191919" stroke-width="0.35 px" style="stroke-width:0.35;stroke-miterlimit:4;stroke-dasharray:none;fill:none;fill-opacity:1;fill-rule: evenodd"/>
<path id="Shape2DView_nwe0037"  d="M 0.48 0.59 L 0.48223928952206613 0.59 L 0.48445041867912625 0.59 L 0.4866055812391033 0.59 L 0.48867767478235113 0.59 L 0.49064064153030673 0.59 L 0.49246979603717467 0.59 L 0.49414213562373094 0.59 L 0.49563662964936056 0.59 L 0.4969344839845657 0.59 L 0.49801937735804835 0.59 L 0.49887766660616734 0.59 L 0.4994985582436364 0.59 L 0.49987424419786486 0.59 L 0.5 0.59 " stroke="#191919" stroke-width="0.35 px" style="stroke-width:0.35;stroke-miterlimit:4;stroke-dasharray:none;fill:none;fill-opacity:1;fill-rule: evenodd"/>
<path id="Shape2DView_nwe0038"  d="M 0.48 0.59 L 0.32 0.59 " stroke="#191919" stroke-width="0.35 px" style="stroke-width:0.35;stroke-miterlimit:4;stroke-dasharray:none;fill:none;fill-opacity:1;fill-rule: evenodd"/>
<path id="Shape2DView_nwe0039"  d="M 0.32 0.59 L 0.31776071047793386 0.59 L 0.31554958132087374 0.59 L 0.3133944187608967 0.59 L 0.31132232521764885 0.59 L 0.30935935846969326 0.59 L 0.3075302039628253 0.59 L 0.30585786437626905 0.59 L 0.30436337035063943 0.59 L 0.3030655160154343 0.59 L 0.30198062264195163 0.59 L 0.30112233339383265 0.59 L 0.3005014417563635 0.59 L 0.30012575580213513 0.59 L 0.3 0.59 " stroke="#191919" stroke-width="0.35 px" style="stroke-width:0.35;stroke-miterlimit:4;stroke-dasharray:none;fill:none;fill-opacity:1;fill-rule: evenodd"/>
<path id="Shape2DView_nwe0040"  d="M 0.3 -1.0 L 0.45 -1.0 " stroke="#191919" stroke-width="0.35 px" style="stroke-width:0.35;stroke-miterlimit:4;stroke-dasharray:none;fill:none;fill-opacity:1;fill-rule: evenodd"/>
<path id="Shape2DView_nwe0041"  d="M 0.5 0.91 L 0.49987424419786486 0.91 L 0.4994985582436364 0.91 L 0.49887766660616734 0.91 L 0.49801937735804835 0.91 L 0.4969344839845657 0.91 L 0.49563662964936056 0.91 L 0.49414213562373094 0.91 L 0.49246979603717467 0.91 L 0.49064064153030673 0.91 L 0.48867767478235113 0.91 L 0.4866055812391033 0.91 L 0.48445041867912625 0.91 L 0.48223928952206613 0.91 L 0.48 0.91 " stroke="#191919" stroke-width="0.35 px" style="stroke-width:0.35;stroke-miterlimit:4;stroke-dasharray:none;fill:none;fill-opacity:1;fill-rule: evenodd"/>
<path id="Shape2DView_nwe0042"  d="M 0.48 0.91 L 0.32 0.91 " stroke="#191919" stroke-width="0.35 px" style="stroke-width:0.35;stroke-miterlimit:4;stroke-dasharray:none;fill:none;fill-opacity:1;fill-rule: evenodd"/>
<path id="Shape2DView_nwe0043"  d="M 0.32 0.91 L 0.31776071047793386 0.91 L 0.31554958132087374 0.91 L 0.3133944187608967 0.91 L 0.31132232521764885 0.91 L 0.30935935846969326 0.91 L 0.3075302039628253 0.91 L 0.30585786437626905 0.91 L 0.30436337035063943 0.91 L 0.3030655160154343 0.91 L 0.30198062264195163 0.91 L 0.30112233339383265 0.91 L 0.3005014417563635 0.91 L 0.30012575580213513 0.91 L 0.3 0.91 " stroke="#191919" stroke-width="0.35 px" style="stroke-width:0.35;stroke-miterlimit:4;stroke-dasharray:none;fill:none;fill-opacity:1;fill-rule: evenodd"/>
<path id="Shape2DView_nwe0044"  d="M 0.45 0.9100000000000001 L 0.45 1.0 " stroke="#191919" stroke-width="0.35 px" style="stroke-width:0.35;stroke-miterlimit:4;stroke-dasharray:none;fill:none;fill-opacity:1;fill-rule: evenodd"/>
<path id="Shape2DView_nwe0045"  d="M -0.45 1.0 L -0.3 1.0 " stroke="#191919" stroke-width="0.35 px" style="stroke-width:0.35;stroke-miterlimit:4;stroke-dasharray:none;fill:none;fill-opacity:1;fill-rule: evenodd"/>
<path id="Shape2DView_nwe0046"  d="M 0.3 1.0 L 0.45 1.0 " stroke="#191919" stroke-width="0.35 px" style="stroke-width:0.35;stroke-miterlimit:4;stroke-dasharray:none;fill:none;fill-opacity:1;fill-rule: evenodd"/>
<path id="Shape2DView_nwe0047"  d="M -0.45 0.9100000000000001 L -0.45 1.0 " stroke="#191919" stroke-width="0.35 px" style="stroke-width:0.35;stroke-miterlimit:4;stroke-dasharray:none;fill:none;fill-opacity:1;fill-rule: evenodd"/>
<path id="Shape2DView_nwe0048"  d="M -0.45 -0.59 L -0.45 -0.4099999999999999 " stroke="#191919" stroke-width="0.35 px" style="stroke-width:0.35;stroke-miterlimit:4;stroke-dasharray:none;fill:none;fill-opacity:1;fill-rule: evenodd"/>
<path id="Shape2DView_nwe0049"  d="M -0.48 0.91 L -0.48223928952206613 0.91 L -0.48445041867912625 0.91 L -0.4866055812391033 0.91 L -0.48867767478235113 0.91 L -0.49064064153030673 0.91 L -0.49246979603717467 0.91 L -0.49414213562373094 0.91 L -0.49563662964936056 0.91 L -0.4969344839845657 0.91 L -0.49801937735804835 0.91 L -0.49887766660616734 0.91 L -0.4994985582436364 0.91 L -0.49987424419786486 0.91 L -0.5 0.91 " stroke="#191919" stroke-width="0.35 px" style="stroke-width:0.35;stroke-miterlimit:4;stroke-dasharray:none;fill:none;fill-opacity:1;fill-rule: evenodd"/>
<path id="Shape2DView_nwe0050"  d="M -0.48 0.91 L -0.32 0.91 " stroke="#191919" stroke-width="0.35 px" style="stroke-width:0.35;stroke-miterlimit:4;stroke-dasharray:none;fill:none;fill-opacity:1;fill-rule: evenodd"/>
<path id="Shape2DView_nwe0051"  d="M -0.32 0.91 L -0.31776071047793386 0.91 L -0.31554958132087374 0.91 L -0.3133944187608967 0.91 L -0.31132232521764885 0.91 L -0.30935935846969326 0.91 L -0.3075302039628253 0.91 L -0.30585786437626905 0.91 L -0.30436337035063943 0.91 L -0.3030655160154343 0.91 L -0.30198062264195163 0.91 L -0.30112233339383265 0.91 L -0.3005014417563635 0.91 L -0.30012575580213513 0.91 L -0.3 0.91 " stroke="#191919" stroke-width="0.35 px" style="stroke-width:0.35;stroke-miterlimit:4;stroke-dasharray:none;fill:none;fill-opacity:1;fill-rule: evenodd"/>
<path id="Shape2DView_nwe0052"  d="M -0.5 -0.41 L -0.49987424419786486 -0.41 L -0.4994985582436364 -0.41 L -0.49887766660616734 -0.41 L -0.49801937735804835 -0.41 L -0.4969344839845657 -0.41 L -0.49563662964936056 -0.41 L -0.49414213562373094 -0.41 L -0.49246979603717467 -0.41 L -0.49064064153030673 -0.41 L -0.48867767478235113 -0.41 L -0.4866055812391033 -0.41 L -0.48445041867912625 -0.41 L -0.48223928952206613 -0.41 L -0.48 -0.41 " stroke="#191919" stroke-width="0.35 px" style="stroke-width:0.35;stroke-miterlimit:4;stroke-dasharray:none;fill:none;fill-opacity:1;fill-rule: evenodd"/>
<path id="Shape2DView_nwe0053"  d="M -0.48 -0.41 L -0.32 -0.41 " stroke="#191919" stroke-width="0.35 px" style="stroke-width:0.35;stroke-miterlimit:4;stroke-dasharray:none;fill:none;fill-opacity:1;fill-rule: evenodd"/>
<path id="Shape2DView_nwe0054"  d="M -0.32 -0.41 L -0.31776071047793386 -0.41 L -0.31554958132087374 -0.41 L -0.3133944187608967 -0.41 L -0.31132232521764885 -0.41 L -0.30935935846969326 -0.41 L -0.3075302039628253 -0.41 L -0.30585786437626905 -0.41 L -0.30436337035063943 -0.41 L -0.3030655160154343 -0.41 L -0.30198062264195163 -0.41 L -0.30112233339383265 -0.41 L -0.3005014417563635 -0.41 L -0.30012575580213513 -0.41 L -0.3 -0.41 " stroke="#191919" stroke-width="0.35 px" style="stroke-width:0.35;stroke-miterlimit:4;stroke-dasharray:none;fill:none;fill-opacity:1;fill-rule: evenodd"/>
<path id="Shape2DView_nwe0055"  d="M -0.5 0.59 L -0.49987424419786486 0.59 L -0.4994985582436364 0.59 L -0.49887766660616734 0.59 L -0.49801937735804835 0.59 L -0.4969344839845657 0.59 L -0.49563662964936056 0.59 L -0.49414213562373094 0.59 L -0.49246979603717467 0.59 L -0.49064064153030673 0.59 L -0.48867767478235113 0.59 L -0.4866055812391033 0.59 L -0.48445041867912625 0.59 L -0.48223928952206613 0.59 L -0.48 0.59 " stroke="#191919" stroke-width="0.35 px" style="stroke-width:0.35;stroke-miterlimit:4;stroke-dasharray:none;fill:none;fill-opacity:1;fill-rule: evenodd"/>
<path id="Shape2DView_nwe0056"  d="M -0.48 0.59 L -0.32 0.59 " stroke="#191919" stroke-width="0.35 px" style="stroke-width:0.35;stroke-miterlimit:4;stroke-dasharray:none;fill:none;fill-opacity:1;fill-rule: evenodd"/>
<path id="Shape2DView_nwe0057"  d="M -0.32 0.59 L -0.31776071047793386 0.59 L -0.31554958132087374 0.59 L -0.3133944187608967 0.59 L -0.31132232521764885 0.59 L -0.30935935846969326 0.59 L -0.3075302039628253 0.59 L -0.30585786437626905 0.59 L -0.30436337035063943 0.59 L -0.3030655160154343 0.59 L -0.30198062264195163 0.59 L -0.30112233339383265 0.59 L -0.3005014417563635 0.59 L -0.30012575580213513 0.59 L -0.3 0.59 " stroke="#191919" stroke-width="0.35 px" style="stroke-width:0.35;stroke-miterlimit:4;stroke-dasharray:none;fill:none;fill-opacity:1;fill-rule: evenodd"/>
<path id="Shape2DView_nwe0058"  d="M -0.48 -0.09 L -0.48223928952206613 -0.09 L -0.48445041867912625 -0.09 L -0.4866055812391033 -0.09 L -0.48867767478235113 -0.09 L -0.49064064153030673 -0.09 L -0.49246979603717467 -0.09 L -0.49414213562373094 -0.09 L -0.49563662964936056 -0.09 L -0.4969344839845657 -0.09 L -0.49801937735804835 -0.09 L -0.49887766660616734 -0.09 L -0.4994985582436364 -0.09 L -0.49987424419786486 -0.09 L -0.5 -0.09 " stroke="#191919" stroke-width="0.35 px" style="stroke-width:0.35;stroke-miterlimit:4;stroke-dasharray:none;fill:none;fill-opacity:1;fill-rule: evenodd"/>
<path id="Shape2DView_nwe0059"  d="M -0.48 -0.09 L -0.32 -0.09 " stroke="#191919" stroke-width="0.35 px" style="stroke-width:0.35;stroke-miterlimit:4;stroke-dasharray:none;fill:none;fill-opacity:1;fill-rule: evenodd"/>
<path id="Shape2DView_nwe0060"  d="M -0.32 -0.09 L -0.31776071047793386 -0.09 L -0.31554958132087374 -0.09 L -0.3133944187608967 -0.09 L -0.31132232521764885 -0.09 L -0.30935935846969326 -0.09 L -0.3075302039628253 -0.09 L -0.30585786437626905 -0.09 L -0.30436337035063943 -0.09 L -0.3030655160154343 -0.09 L -0.30198062264195163 -0.09 L -0.30112233339383265 -0.09 L -0.3005014417563635 -0.09 L -0.30012575580213513 -0.09 L -0.3 -0.09 " stroke="#191919" stroke-width="0.35 px" style="stroke-width:0.35;stroke-miterlimit:4;stroke-dasharray:none;fill:none;fill-opacity:1;fill-rule: evenodd"/>
<path id="Shape2DView_nwe0061"  d="M -0.45 0.4099999999999999 L -0.45 0.5899999999999999 " stroke="#191919" stroke-width="0.35 px" style="stroke-width:0.35;stroke-miterlimit:4;stroke-dasharray:none;fill:none;fill-opacity:1;fill-rule: evenodd"/>
<path id="Shape2DView_nwe0062"  d="M -0.45 -0.08999999999999997 L -0.45 0.09000000000000008 " stroke="#191919" stroke-width="0.35 px" style="stroke-width:0.35;stroke-miterlimit:4;stroke-dasharray:none;fill:none;fill-opacity:1;fill-rule: evenodd"/>
<path id="Shape2DView_nwe0063"  d="M -0.48 0.41 L -0.48223928952206613 0.41 L -0.48445041867912625 0.41 L -0.4866055812391033 0.41 L -0.48867767478235113 0.41 L -0.49064064153030673 0.41 L -0.49246979603717467 0.41 L -0.49414213562373094 0.41 L -0.49563662964936056 0.41 L -0.4969344839845657 0.41 L -0.49801937735804835 0.41 L -0.49887766660616734 0.41 L -0.4994985582436364 0.41 L -0.49987424419786486 0.41 L -0.5 0.41 " stroke="#191919" stroke-width="0.35 px" style="stroke-width:0.35;stroke-miterlimit:4;stroke-dasharray:none;fill:none;fill-opacity:1;fill-rule: evenodd"/>
<path id="Shape2DView_nwe0064"  d="M -0.48 0.41 L -0.32 0.41 " stroke="#191919" stroke-width="0.35 px" style="stroke-width:0.35;stroke-miterlimit:4;stroke-dasharray:none;fill:none;fill-opacity:1;fill-rule: evenodd"/>
<path id="Shape2DView_nwe0065"  d="M -0.32 0.41 L -0.31776071047793386 0.41 L -0.31554958132087374 0.41 L -0.3133944187608967 0.41 L -0.31132232521764885 0.41 L -0.30935935846969326 0.41 L -0.3075302039628253 0.41 L -0.30585786437626905 0.41 L -0.30436337035063943 0.41 L -0.3030655160154343 0.41 L -0.30198062264195163 0.41 L -0.30112233339383265 0.41 L -0.3005014417563635 0.41 L -0.30012575580213513 0.41 L -0.3 0.41 " stroke="#191919" stroke-width="0.35 px" style="stroke-width:0.35;stroke-miterlimit:4;stroke-dasharray:none;fill:none;fill-opacity:1;fill-rule: evenodd"/>
<path id="Shape2DView_nwe0066"  d="M -0.5 0.09 L -0.49987424419786486 0.09 L -0.4994985582436364 0.09 L -0.49887766660616734 0.09 L -0.49801937735804835 0.09 L -0.4969344839845657 0.09 L -0.49563662964936056 0.09 L -0.49414213562373094 0.09 L -0.49246979603717467 0.09 L -0.49064064153030673 0.09 L -0.48867767478235113 0.09 L -0.4866055812391033 0.09 L -0.48445041867912625 0.09 L -0.48223928952206613 0.09 L -0.48 0.09 " stroke="#191919" stroke-width="0.35 px" style="stroke-width:0.35;stroke-miterlimit:4;stroke-dasharray:none;fill:none;fill-opacity:1;fill-rule: evenodd"/>
<path id="Shape2DView_nwe0067"  d="M -0.48 0.09 L -0.32 0.09 " stroke="#191919" stroke-width="0.35 px" style="stroke-width:0.35;stroke-miterlimit:4;stroke-dasharray:none;fill:none;fill-opacity:1;fill-rule: evenodd"/>
<path id="Shape2DView_nwe0068"  d="M -0.32 0.09 L -0.31776071047793386 0.09 L -0.31554958132087374 0.09 L -0.3133944187608967 0.09 L -0.31132232521764885 0.09 L -0.30935935846969326 0.09 L -0.3075302039628253 0.09 L -0.30585786437626905 0.09 L -0.30436337035063943 0.09 L -0.3030655160154343 0.09 L -0.30198062264195163 0.09 L -0.30112233339383265 0.09 L -0.3005014417563635 0.09 L -0.30012575580213513 0.09 L -0.3 0.09 " stroke="#191919" stroke-width="0.35 px" style="stroke-width:0.35;stroke-miterlimit:4;stroke-dasharray:none;fill:none;fill-opacity:1;fill-rule: evenodd"/>
<path id="Shape2DView_nwe0069"  d="M -0.3 -1.0 L 0.3 -1.0 " stroke="#191919" stroke-width="0.35 px" style="stroke-width:0.35;stroke-miterlimit:4;stroke-dasharray:none;fill:none;fill-opacity:1;fill-rule: evenodd"/>
<path id="Shape2DView_nwe0070"  d="M 0.3 -1.0 L 0.3 1.0 " stroke="#191919" stroke-width="0.35 px" style="stroke-width:0.35;stroke-miterlimit:4;stroke-dasharray:none;fill:none;fill-opacity:1;fill-rule: evenodd"/>
<path id="Shape2DView_nwe0071"  d="M -0.3 1.0 L 0.3 1.0 " stroke="#191919" stroke-width="0.35 px" style="stroke-width:0.35;stroke-miterlimit:4;stroke-dasharray:none;fill:none;fill-opacity:1;fill-rule: evenodd"/>
<path id="Shape2DView_nwe0072"  d="M 0.4799999999999095 -0.15610644324557527 A 0.096 0.096 0 0 1 0.404 -0.25" stroke="#191919" stroke-width="0.35 px" style="stroke-width:0.35;stroke-miterlimit:4;stroke-dasharray:none;fill:none;fill-opacity:1;fill-rule: evenodd"/>
<path id="Shape2DView_nwe0073"  d="M 0.404 -0.25 A 0.096 0.096 0 0 1 0.48 -0.343894" stroke="#191919" stroke-width="0.35 px" style="stroke-width:0.35;stroke-miterlimit:4;stroke-dasharray:none;fill:none;fill-opacity:1;fill-rule: evenodd"/>
<path id="Shape2DView_nwe0074"  d="M 0.5 -0.154 L 0.48 -0.156106443246 " stroke="#191919" stroke-width="0.35 px" style="stroke-width:0.35;stroke-miterlimit:4;stroke-dasharray:none;fill:none;fill-opacity:1;fill-rule: evenodd"/>
<path id="Shape2DView_nwe0075"  d="M 0.5 -0.09 L 0.5 -0.154 " stroke="#191919" stroke-width="0.35 px" style="stroke-width:0.35;stroke-miterlimit:4;stroke-dasharray:none;fill:none;fill-opacity:1;fill-rule: evenodd"/>
<path id="Shape2DView_nwe0076"  d="M 0.5 -0.346 L 0.5 -0.41 " stroke="#191919" stroke-width="0.35 px" style="stroke-width:0.35;stroke-miterlimit:4;stroke-dasharray:none;fill:none;fill-opacity:1;fill-rule: evenodd"/>
<path id="Shape2DView_nwe0077"  d="M 0.48 -0.343893556754 L 0.5 -0.346 " stroke="#191919" stroke-width="0.35 px" style="stroke-width:0.35;stroke-miterlimit:4;stroke-dasharray:none;fill:none;fill-opacity:1;fill-rule: evenodd"/>
<path id="Shape2DView_nwe0078"  d="M 0.4799999999999095 0.34389355675442473 A 0.096 0.096 0 0 1 0.404 0.25" stroke="#191919" stroke-width="0.35 px" style="stroke-width:0.35;stroke-miterlimit:4;stroke-dasharray:none;fill:none;fill-opacity:1;fill-rule: evenodd"/>
<path id="Shape2DView_nwe0079"  d="M 0.404 0.25 A 0.096 0.096 0 0 1 0.48 0.156106" stroke="#191919" stroke-width="0.35 px" style="stroke-width:0.35;stroke-miterlimit:4;stroke-dasharray:none;fill:none;fill-opacity:1;fill-rule: evenodd"/>
<path id="Shape2DView_nwe0080"  d="M 0.5 0.154 L 0.5 0.09 " stroke="#191919" stroke-width="0.35 px" style="stroke-width:0.35;stroke-miterlimit:4;stroke-dasharray:none;fill:none;fill-opacity:1;fill-rule: evenodd"/>
<path id="Shape2DView_nwe0081"  d="M 0.48 0.156106443246 L 0.5 0.154 " stroke="#191919" stroke-width="0.35 px" style="stroke-width:0.35;stroke-miterlimit:4;stroke-dasharray:none;fill:none;fill-opacity:1;fill-rule: evenodd"/>
<path id="Shape2DView_nwe0082"  d="M 0.4799999999999095 -0.6561064432455752 A 0.096 0.096 0 0 1 0.404 -0.75" stroke="#191919" stroke-width="0.35 px" style="stroke-width:0.35;stroke-miterlimit:4;stroke-dasharray:none;fill:none;fill-opacity:1;fill-rule: evenodd"/>
<path id="Shape2DView_nwe0083"  d="M 0.404 -0.75 A 0.096 0.096 0 0 1 0.48 -0.843894" stroke="#191919" stroke-width="0.35 px" style="stroke-width:0.35;stroke-miterlimit:4;stroke-dasharray:none;fill:none;fill-opacity:1;fill-rule: evenodd"/>
<path id="Shape2DView_nwe0084"  d="M 0.5 -0.654 L 0.48 -0.656106443246 " stroke="#191919" stroke-width="0.35 px" style="stroke-width:0.35;stroke-miterlimit:4;stroke-dasharray:none;fill:none;fill-opacity:1;fill-rule: evenodd"/>
<path id="Shape2DView_nwe0085"  d="M 0.5 -0.59 L 0.5 -0.654 " stroke="#191919" stroke-width="0.35 px" style="stroke-width:0.35;stroke-miterlimit:4;stroke-dasharray:none;fill:none;fill-opacity:1;fill-rule: evenodd"/>
<path id="Shape2DView_nwe0086"  d="M 0.5 0.346 L 0.48 0.343893556754 " stroke="#191919" stroke-width="0.35 px" style="stroke-width:0.35;stroke-miterlimit:4;stroke-dasharray:none;fill:none;fill-opacity:1;fill-rule: evenodd"/>
<path id="Shape2DView_nwe0087"  d="M 0.5 0.41 L 0.5 0.346 " stroke="#191919" stroke-width="0.35 px" style="stroke-width:0.35;stroke-miterlimit:4;stroke-dasharray:none;fill:none;fill-opacity:1;fill-rule: evenodd"/>
<path id="Shape2DView_nwe0088"  d="M 0.5 -0.846 L 0.5 -0.91 " stroke="#191919" stroke-width="0.35 px" style="stroke-width:0.35;stroke-miterlimit:4;stroke-dasharray:none;fill:none;fill-opacity:1;fill-rule: evenodd"/>
<path id="Shape2DView_nwe0089"  d="M 0.48 -0.843893556754 L 0.5 -0.8459999999999999 " stroke="#191919" stroke-width="0.35 px" style="stroke-width:0.35;stroke-miterlimit:4;stroke-dasharray:none;fill:none;fill-opacity:1;fill-rule: evenodd"/>
<path id="Shape2DView_nwe0090"  d="M 0.4799999999999095 0.8438935567544248 A 0.096 0.096 0 0 1 0.404 0.75" stroke="#191919" stroke-width="0.35 px" style="stroke-width:0.35;stroke-miterlimit:4;stroke-dasharray:none;fill:none;fill-opacity:1;fill-rule: evenodd"/>
<path id="Shape2DView_nwe0091"  d="M 0.404 0.75 A 0.096 0.096 0 0 1 0.48 0.656106" stroke="#191919" stroke-width="0.35 px" style="stroke-width:0.35;stroke-miterlimit:4;stroke-dasharray:none;fill:none;fill-opacity:1;fill-rule: evenodd"/>
<path id="Shape2DView_nwe0092"  d="M 0.5 0.654 L 0.5 0.59 " stroke="#191919" stroke-width="0.35 px" style="stroke-width:0.35;stroke-miterlimit:4;stroke-dasharray:none;fill:none;fill-opacity:1;fill-rule: evenodd"/>
<path id="Shape2DView_nwe0093"  d="M 0.48 0.656106443246 L 0.5 0.6540000000000001 " stroke="#191919" stroke-width="0.35 px" style="stroke-width:0.35;stroke-miterlimit:4;stroke-dasharray:none;fill:none;fill-opacity:1;fill-rule: evenodd"/>
<path id="Shape2DView_nwe0094"  d="M 0.5 0.846 L 0.48 0.843893556754 " stroke="#191919" stroke-width="0.35 px" style="stroke-width:0.35;stroke-miterlimit:4;stroke-dasharray:none;fill:none;fill-opacity:1;fill-rule: evenodd"/>
<path id="Shape2DView_nwe0095"  d="M 0.5 0.91 L 0.5 0.846 " stroke="#191919" stroke-width="0.35 px" style="stroke-width:0.35;stroke-miterlimit:4;stroke-dasharray:none;fill:none;fill-opacity:1;fill-rule: evenodd"/>
<path id="Shape2DView_nwe0096"  d="M -0.4799999999999095 0.6561064432455752 A 0.096 0.096 0 0 1 -0.404 0.75" stroke="#191919" stroke-width="0.35 px" style="stroke-width:0.35;stroke-miterlimit:4;stroke-dasharray:none;fill:none;fill-opacity:1;fill-rule: evenodd"/>
<path id="Shape2DView_nwe0097"  d="M -0.404 0.75 A 0.096 0.096 0 0 1 -0.48 0.843894" stroke="#191919" stroke-width="0.35 px" style="stroke-width:0.35;stroke-miterlimit:4;stroke-dasharray:none;fill:none;fill-opacity:1;fill-rule: evenodd"/>
<path id="Shape2DView_nwe0098"  d="M -0.5 0.846 L -0.5 0.91 " stroke="#191919" stroke-width="0.35 px" style="stroke-width:0.35;stroke-miterlimit:4;stroke-dasharray:none;fill:none;fill-opacity:1;fill-rule: evenodd"/>
<path id="Shape2DView_nwe0099"  d="M -0.48 0.843893556754 L -0.5 0.8459999999999999 " stroke="#191919" stroke-width="0.35 px" style="stroke-width:0.35;stroke-miterlimit:4;stroke-dasharray:none;fill:none;fill-opacity:1;fill-rule: evenodd"/>
<path id="Shape2DView_nwe0100"  d="M -0.4799999999999095 -0.34389355675442473 A 0.096 0.096 0 0 1 -0.404 -0.25" stroke="#191919" stroke-width="0.35 px" style="stroke-width:0.35;stroke-miterlimit:4;stroke-dasharray:none;fill:none;fill-opacity:1;fill-rule: evenodd"/>
<path id="Shape2DView_nwe0101"  d="M -0.404 -0.25 A 0.096 0.096 0 0 1 -0.48 -0.156106" stroke="#191919" stroke-width="0.35 px" style="stroke-width:0.35;stroke-miterlimit:4;stroke-dasharray:none;fill:none;fill-opacity:1;fill-rule: evenodd"/>
<path id="Shape2DView_nwe0102"  d="M -0.5 -0.346 L -0.48 -0.343893556754 " stroke="#191919" stroke-width="0.35 px" style="stroke-width:0.35;stroke-miterlimit:4;stroke-dasharray:none;fill:none;fill-opacity:1;fill-rule: evenodd"/>
<path id="Shape2DView_nwe0103"  d="M -0.5 -0.41 L -0.5 -0.346 " stroke="#191919" stroke-width="0.35 px" style="stroke-width:0.35;stroke-miterlimit:4;stroke-dasharray:none;fill:none;fill-opacity:1;fill-rule: evenodd"/>
<path id="Shape2DView_nwe0104"  d="M -0.5 0.654 L -0.48 0.656106443246 " stroke="#191919" stroke-width="0.35 px" style="stroke-width:0.35;stroke-miterlimit:4;stroke-dasharray:none;fill:none;fill-opacity:1;fill-rule: evenodd"/>
<path id="Shape2DView_nwe0105"  d="M -0.5 0.59 L -0.5 0.654 " stroke="#191919" stroke-width="0.35 px" style="stroke-width:0.35;stroke-miterlimit:4;stroke-dasharray:none;fill:none;fill-opacity:1;fill-rule: evenodd"/>
<path id="Shape2DView_nwe0106"  d="M -0.5 -0.154 L -0.5 -0.09 " stroke="#191919" stroke-width="0.35 px" style="stroke-width:0.35;stroke-miterlimit:4;stroke-dasharray:none;fill:none;fill-opacity:1;fill-rule: evenodd"/>
<path id="Shape2DView_nwe0107"  d="M -0.48 -0.156106443246 L -0.5 -0.154 " stroke="#191919" stroke-width="0.35 px" style="stroke-width:0.35;stroke-miterlimit:4;stroke-dasharray:none;fill:none;fill-opacity:1;fill-rule: evenodd"/>
<path id="Shape2DView_nwe0108"  d="M -0.4799999999999095 0.15610644324557527 A 0.096 0.096 0 0 1 -0.404 0.25" stroke="#191919" stroke-width="0.35 px" style="stroke-width:0.35;stroke-miterlimit:4;stroke-dasharray:none;fill:none;fill-opacity:1;fill-rule: evenodd"/>
<path id="Shape2DView_nwe0109"  d="M -0.404 0.25 A 0.096 0.096 0 0 1 -0.48 0.343894" stroke="#191919" stroke-width="0.35 px" style="stroke-width:0.35;stroke-miterlimit:4;stroke-dasharray:none;fill:none;fill-opacity:1;fill-rule: evenodd"/>
<path id="Shape2DView_nwe0110"  d="M -0.5 0.346 L -0.5 0.41 " stroke="#191919" stroke-width="0.35 px" style="stroke-width:0.35;stroke-miterlimit:4;stroke-dasharray:none;fill:none;fill-opacity:1;fill-rule: evenodd"/>
<path id="Shape2DView_nwe0111"  d="M -0.48 0.343893556754 L -0.5 0.346 " stroke="#191919" stroke-width="0.35 px" style="stroke-width:0.35;stroke-miterlimit:4;stroke-dasharray:none;fill:none;fill-opacity:1;fill-rule: evenodd"/>
<path id="Shape2DView_nwe0112"  d="M -0.5 0.154 L -0.48 0.156106443246 " stroke="#191919" stroke-width="0.35 px" style="stroke-width:0.35;stroke-miterlimit:4;stroke-dasharray:none;fill:none;fill-opacity:1;fill-rule: evenodd"/>
<path id="Shape2DView_nwe0113"  d="M -0.5 0.09 L -0.5 0.154 " stroke="#191919" stroke-width="0.35 px" style="stroke-width:0.35;stroke-miterlimit:4;stroke-dasharray:none;fill:none;fill-opacity:1;fill-rule: evenodd"/>
<path id="Shape2DView_nwe0114"  d="M -0.48 -0.91 L -0.48 -0.843893556754 " stroke="#191919" stroke-width="0.35 px" style="stroke-width:0.35;stroke-miterlimit:4;stroke-dasharray:none;fill:none;fill-opacity:1;fill-rule: evenodd"/>
<path id="Shape2DView_nwe0115"  d="M -0.48 -0.656106443246 L -0.48 -0.59 " stroke="#191919" stroke-width="0.35 px" style="stroke-width:0.35;stroke-miterlimit:4;stroke-dasharray:none;fill:none;fill-opacity:1;fill-rule: evenodd"/>
<path id="Shape2DView_nwe0116"  d="M -0.32 -0.91 L -0.32 -0.59 " stroke="#191919" stroke-width="0.35 px" style="stroke-width:0.35;stroke-miterlimit:4;stroke-dasharray:none;fill:none;fill-opacity:1;fill-rule: evenodd"/>
<path id="Shape2DView_nwe0117"  d="M -0.32 0.59 L -0.32 0.91 " stroke="#191919" stroke-width="0.35 px" style="stroke-width:0.35;stroke-miterlimit:4;stroke-dasharray:none;fill:none;fill-opacity:1;fill-rule: evenodd"/>
<path id="Shape2DView_nwe0118"  d="M -0.32 0.09 L -0.32 0.4099999999999999 " stroke="#191919" stroke-width="0.35 px" style="stroke-width:0.35;stroke-miterlimit:4;stroke-dasharray:none;fill:none;fill-opacity:1;fill-rule: evenodd"/>
<path id="Shape2DView_nwe0119"  d="M -0.32 -0.41 L -0.32 -0.09000000000000002 " stroke="#191919" stroke-width="0.35 px" style="stroke-width:0.35;stroke-miterlimit:4;stroke-dasharray:none;fill:none;fill-opacity:1;fill-rule: evenodd"/>
<path id="Shape2DView_nwe0120"  d="M 0.32 -0.09 L 0.31999999999999995 -0.4099999999999999 " stroke="#191919" stroke-width="0.35 px" style="stroke-width:0.35;stroke-miterlimit:4;stroke-dasharray:none;fill:none;fill-opacity:1;fill-rule: evenodd"/>
<path id="Shape2DView_nwe0121"  d="M 0.48 -0.09 L 0.48 -0.156106443246 " stroke="#191919" stroke-width="0.35 px" style="stroke-width:0.35;stroke-miterlimit:4;stroke-dasharray:none;fill:none;fill-opacity:1;fill-rule: evenodd"/>
<path id="Shape2DView_nwe0122"  d="M 0.48 -0.343893556754 L 0.48 -0.41 " stroke="#191919" stroke-width="0.35 px" style="stroke-width:0.35;stroke-miterlimit:4;stroke-dasharray:none;fill:none;fill-opacity:1;fill-rule: evenodd"/>
<path id="Shape2DView_nwe0123"  d="M 0.32 0.41 L 0.31999999999999995 0.09000000000000002 " stroke="#191919" stroke-width="0.35 px" style="stroke-width:0.35;stroke-miterlimit:4;stroke-dasharray:none;fill:none;fill-opacity:1;fill-rule: evenodd"/>
<path id="Shape2DView_nwe0124"  d="M 0.48 0.41 L 0.48 0.343893556754 " stroke="#191919" stroke-width="0.35 px" style="stroke-width:0.35;stroke-miterlimit:4;stroke-dasharray:none;fill:none;fill-opacity:1;fill-rule: evenodd"/>
<path id="Shape2DView_nwe0125"  d="M 0.48 0.156106443246 L 0.48 0.09 " stroke="#191919" stroke-width="0.35 px" style="stroke-width:0.35;stroke-miterlimit:4;stroke-dasharray:none;fill:none;fill-opacity:1;fill-rule: evenodd"/>
<path id="Shape2DView_nwe0126"  d="M 0.32 -0.59 L 0.31999999999999995 -0.91 " stroke="#191919" stroke-width="0.35 px" style="stroke-width:0.35;stroke-miterlimit:4;stroke-dasharray:none;fill:none;fill-opacity:1;fill-rule: evenodd"/>
<path id="Shape2DView_nwe0127"  d="M 0.48 -0.59 L 0.48 -0.656106443246 " stroke="#191919" stroke-width="0.35 px" style="stroke-width:0.35;stroke-miterlimit:4;stroke-dasharray:none;fill:none;fill-opacity:1;fill-rule: evenodd"/>
<path id="Shape2DView_nwe0128"  d="M 0.48 -0.843893556754 L 0.48 -0.91 " stroke="#191919" stroke-width="0.35 px" style="stroke-width:0.35;stroke-miterlimit:4;stroke-dasharray:none;fill:none;fill-opacity:1;fill-rule: evenodd"/>
<path id="Shape2DView_nwe0129"  d="M 0.32 0.91 L 0.31999999999999995 0.59 " stroke="#191919" stroke-width="0.35 px" style="stroke-width:0.35;stroke-miterlimit:4;stroke-dasharray:none;fill:none;fill-opacity:1;fill-rule: evenodd"/>
<path id="Shape2DView_nwe0130"  d="M 0.48 0.91 L 0.48 0.843893556754 " stroke="#191919" stroke-width="0.35 px" style="stroke-width:0.35;stroke-miterlimit:4;stroke-dasharray:none;fill:none;fill-opacity:1;fill-rule: evenodd"/>
<path id="Shape2DView_nwe0131"  d="M 0.48 0.656106443246 L 0.48 0.59 " stroke="#191919" stroke-width="0.35 px" style="stroke-width:0.35;stroke-miterlimit:4;stroke-dasharray:none;fill:none;fill-opacity:1;fill-rule: evenodd"/>
<path id="Shape2DView_nwe0132"  d="M -0.48 0.59 L -0.48 0.656106443246 " stroke="#191919" stroke-width="0.35 px" style="stroke-width:0.35;stroke-miterlimit:4;stroke-dasharray:none;fill:none;fill-opacity:1;fill-rule: evenodd"/>
<path id="Shape2DView_nwe0133"  d="M -0.48 0.843893556754 L -0.48 0.91 " stroke="#191919" stroke-width="0.35 px" style="stroke-width:0.35;stroke-miterlimit:4;stroke-dasharray:none;fill:none;fill-opacity:1;fill-rule: evenodd"/>
<path id="Shape2DView_nwe0134"  d="M -0.48 -0.41 L -0.48 -0.343893556754 " stroke="#191919" stroke-width="0.35 px" style="stroke-width:0.35;stroke-miterlimit:4;stroke-dasharray:none;fill:none;fill-opacity:1;fill-rule: evenodd"/>
<path id="Shape2DView_nwe0135"  d="M -0.48 -0.156106443246 L -0.48 -0.09 " stroke="#191919" stroke-width="0.35 px" style="stroke-width:0.35;stroke-miterlimit:4;stroke-dasharray:none;fill:none;fill-opacity:1;fill-rule: evenodd"/>
<path id="Shape2DView_nwe0136"  d="M -0.48 0.09 L -0.48 0.156106443246 " stroke="#191919" stroke-width="0.35 px" style="stroke-width:0.35;stroke-miterlimit:4;stroke-dasharray:none;fill:none;fill-opacity:1;fill-rule: evenodd"/>
<path id="Shape2DView_nwe0137"  d="M -0.48 0.343893556754 L -0.48 0.41 " stroke="#191919" stroke-width="0.35 px" style="stroke-width:0.35;stroke-miterlimit:4;stroke-dasharray:none;fill:none;fill-opacity:1;fill-rule: evenodd"/>
<title>b'Shape2DView'</title>
</g>
<g id="Rectangle" transform="translate(0.515000,1.015000) scale(1,-1)">
<rect fill="#ff0000" id="origin" width="1" height="1" x="0" y="0" />
<title>b'Rectangle'</title>
</g>
</svg>