<?xml version="1.0"?>
<!DOCTYPE svg PUBLIC "-//W3C//DTD SVG 1.1//EN" "http://www.w3.org/Graphics/SVG/1.1/DTD/svg11.dtd">
<svg width="1.836mm" height="1.836mm" viewBox="0 0 1.836 1.836" xmlns="http://www.w3.org/2000/svg" version="1.1">
<g id="Shape2DView" transform="translate(0.818000,1.018000) scale(1,-1)">
<path id="Shape2DView_nwe0000"  d="M -0.8 -0.6 L -0.8 -0.52 " stroke="#191919" stroke-width="0.35 px" style="stroke-width:0.35;stroke-miterlimit:4;stroke-dasharray:none;fill:none;fill-opacity:1;fill-rule: evenodd"/>
<path id="Shape2DView_nwe0001"  d="M -0.78 -0.281678404338 L -0.8 -0.28 " stroke="#191919" stroke-width="0.35 px" style="stroke-width:0.35;stroke-miterlimit:4;stroke-dasharray:none;fill:none;fill-opacity:1;fill-rule: evenodd"/>
<path id="Shape2DView_nwe0002"  d="M -0.68 -0.4 A 0.12 0.12 0 0 1 -0.78 -0.281678" stroke="#191919" stroke-width="0.35 px" style="stroke-width:0.35;stroke-miterlimit:4;stroke-dasharray:none;fill:none;fill-opacity:1;fill-rule: evenodd"/>
<path id="Shape2DView_nwe0003"  d="M -0.7800000000000012 -0.5183215956619925 A 0.12 0.12 0 0 1 -0.68 -0.4" stroke="#191919" stroke-width="0.35 px" style="stroke-width:0.35;stroke-miterlimit:4;stroke-dasharray:none;fill:none;fill-opacity:1;fill-rule: evenodd"/>
<path id="Shape2DView_nwe0004"  d="M -0.8 -0.52 L -0.78 -0.518321595662 " stroke="#191919" stroke-width="0.35 px" style="stroke-width:0.35;stroke-miterlimit:4;stroke-dasharray:none;fill:none;fill-opacity:1;fill-rule: evenodd"/>
<path id="Shape2DView_nwe0005"  d="M -0.8 -0.6 L -0.7998742441978649 -0.6 L -0.7994985582436365 -0.6 L -0.7988776666061673 -0.6 L -0.7980193773580484 -0.6 L -0.7969344839845657 -0.6 L -0.7956366296493607 -0.6 L -0.7941421356237309 -0.6 L -0.7924697960371747 -0.6 L -0.7906406415303068 -0.6 L -0.7886776747823512 -0.6 L -0.7866055812391034 -0.6 L -0.7844504186791263 -0.6 L -0.7822392895220662 -0.6 L -0.78 -0.6 " stroke="#191919" stroke-width="0.35 px" style="stroke-width:0.35;stroke-miterlimit:4;stroke-dasharray:none;fill:none;fill-opacity:1;fill-rule: evenodd"/>
<path id="Shape2DView_nwe0006"  d="M -0.78 -0.6 L -0.52 -0.6 " stroke="#191919" stroke-width="0.35 px" style="stroke-width:0.35;stroke-miterlimit:4;stroke-dasharray:none;fill:none;fill-opacity:1;fill-rule: evenodd"/>
<path id="Shape2DView_nwe0007"  d="M -0.52 -0.6 L -0.5177607104779338 -0.6 L -0.5155495813208737 -0.6 L -0.5133944187608966 -0.6 L -0.5113223252176489 -0.6 L -0.5093593584696933 -0.6 L -0.5075302039628253 -0.6 L -0.5058578643762691 -0.6 L -0.5043633703506394 -0.6 L -0.5030655160154344 -0.6 L -0.5019806226419516 -0.6 L -0.5011223333938327 -0.6 L -0.5005014417563636 -0.6 L -0.5001257558021351 -0.6 L -0.5 -0.6 " stroke="#191919" stroke-width="0.35 px" style="stroke-width:0.35;stroke-miterlimit:4;stroke-dasharray:none;fill:none;fill-opacity:1;fill-rule: evenodd"/>
<path id="Shape2DView_nwe0008"  d="M -0.8 -0.28 L -0.8 -0.2 " stroke="#191919" stroke-width="0.35 px" style="stroke-width:0.35;stroke-miterlimit:4;stroke-dasharray:none;fill:none;fill-opacity:1;fill-rule: evenodd"/>
<path id="Shape2DView_nwe0009"  d="M -0.78 -0.2 L -0.7822392895220662 -0.2 L -0.7844504186791263 -0.2 L -0.7866055812391034 -0.2 L -0.7886776747823512 -0.2 L -0.7906406415303068 -0.2 L -0.7924697960371747 -0.2 L -0.7941421356237309 -0.2 L -0.7956366296493607 -0.2 L -0.7969344839845657 -0.2 L -0.7980193773580484 -0.2 L -0.7988776666061673 -0.2 L -0.7994985582436365 -0.2 L -0.7998742441978649 -0.2 L -0.8 -0.2 " stroke="#191919" stroke-width="0.35 px" style="stroke-width:0.35;stroke-miterlimit:4;stroke-dasharray:none;fill:none;fill-opacity:1;fill-rule: evenodd"/>
<path id="Shape2DView_nwe0010"  d="M -0.78 -0.2 L -0.52 -0.2 " stroke="#191919" stroke-width="0.35 px" style="stroke-width:0.35;stroke-miterlimit:4;stroke-dasharray:none;fill:none;fill-opacity:1;fill-rule: evenodd"/>
<path id="Shape2DView_nwe0011"  d="M -0.75 -0.8 L -0.75 -0.6 " stroke="#191919" stroke-width="0.35 px" style="stroke-width:0.35;stroke-miterlimit:4;stroke-dasharray:none;fill:none;fill-opacity:1;fill-rule: evenodd"/>
<path id="Shape2DView_nwe0012"  d="M -0.75 -0.8 L -0.5 -0.8 " stroke="#191919" stroke-width="0.35 px" style="stroke-width:0.35;stroke-miterlimit:4;stroke-dasharray:none;fill:none;fill-opacity:1;fill-rule: evenodd"/>
<path id="Shape2DView_nwe0013"  d="M -0.5 -0.8 L -0.5 0.8 " stroke="#191919" stroke-width="0.35 px" style="stroke-width:0.35;stroke-miterlimit:4;stroke-dasharray:none;fill:none;fill-opacity:1;fill-rule: evenodd"/>
<path id="Shape2DView_nwe0014"  d="M -0.52 -0.2 L -0.5177607104779338 -0.2 L -0.5155495813208737 -0.2 L -0.5133944187608966 -0.2 L -0.5113223252176489 -0.2 L -0.5093593584696933 -0.2 L -0.5075302039628253 -0.2 L -0.5058578643762691 -0.2 L -0.5043633703506394 -0.2 L -0.5030655160154344 -0.2 L -0.5019806226419516 -0.2 L -0.5011223333938327 -0.2 L -0.5005014417563636 -0.2 L -0.5001257558021351 -0.2 L -0.5 -0.2 " stroke="#191919" stroke-width="0.35 px" style="stroke-width:0.35;stroke-miterlimit:4;stroke-dasharray:none;fill:none;fill-opacity:1;fill-rule: evenodd"/>
<path id="Shape2DView_nwe0015"  d="M 0.8 0.6 L 0.7998742441978649 0.6 L 0.7994985582436365 0.6 L 0.7988776666061673 0.6 L 0.7980193773580484 0.6 L 0.7969344839845657 0.6 L 0.7956366296493607 0.6 L 0.7941421356237309 0.6 L 0.7924697960371747 0.6 L 0.7906406415303068 0.6 L 0.7886776747823512 0.6 L 0.7866055812391034 0.6 L 0.7844504186791263 0.6 L 0.7822392895220662 0.6 L 0.78 0.6 " stroke="#191919" stroke-width="0.35 px" style="stroke-width:0.35;stroke-miterlimit:4;stroke-dasharray:none;fill:none;fill-opacity:1;fill-rule: evenodd"/>
<path id="Shape2DView_nwe0016"  d="M 0.78 0.6 L 0.52 0.6 " stroke="#191919" stroke-width="0.35 px" style="stroke-width:0.35;stroke-miterlimit:4;stroke-dasharray:none;fill:none;fill-opacity:1;fill-rule: evenodd"/>
<path id="Shape2DView_nwe0017"  d="M 0.52 0.6 L 0.5177607104779338 0.6 L 0.5155495813208737 0.6 L 0.5133944187608966 0.6 L 0.5113223252176489 0.6 L 0.5093593584696933 0.6 L 0.5075302039628253 0.6 L 0.5058578643762691 0.6 L 0.5043633703506394 0.6 L 0.5030655160154344 0.6 L 0.5019806226419516 0.6 L 0.5011223333938327 0.6 L 0.5005014417563636 0.6 L 0.5001257558021351 0.6 L 0.5 0.6 " stroke="#191919" stroke-width="0.35 px" style="stroke-width:0.35;stroke-miterlimit:4;stroke-dasharray:none;fill:none;fill-opacity:1;fill-rule: evenodd"/>
<path id="Shape2DView_nwe0018"  d="M 0.78 0.2 L 0.7822392895220662 0.2 L 0.7844504186791263 0.2 L 0.7866055812391034 0.2 L 0.7886776747823512 0.2 L 0.7906406415303068 0.2 L 0.7924697960371747 0.2 L 0.7941421356237309 0.2 L 0.7956366296493607 0.2 L 0.7969344839845657 0.2 L 0.7980193773580484 0.2 L 0.7988776666061673 0.2 L 0.7994985582436365 0.2 L 0.7998742441978649 0.2 L 0.8 0.2 " stroke="#191919" stroke-width="0.35 px" style="stroke-width:0.35;stroke-miterlimit:4;stroke-dasharray:none;fill:none;fill-opacity:1;fill-rule: evenodd"/>
<path id="Shape2DView_nwe0019"  d="M 0.78 0.2 L 0.52 0.20000000000000004 " stroke="#191919" stroke-width="0.35 px" style="stroke-width:0.35;stroke-miterlimit:4;stroke-dasharray:none;fill:none;fill-opacity:1;fill-rule: evenodd"/>
<path id="Shape2DView_nwe0020"  d="M 0.52 0.2 L 0.5177607104779338 0.2 L 0.5155495813208737 0.2 L 0.5133944187608966 0.2 L 0.5113223252176489 0.2 L 0.5093593584696933 0.2 L 0.5075302039628253 0.2 L 0.5058578643762691 0.2 L 0.5043633703506394 0.2 L 0.5030655160154344 0.2 L 0.5019806226419516 0.2 L 0.5011223333938327 0.2 L 0.5005014417563636 0.2 L 0.5001257558021351 0.2 L 0.5 0.2 " stroke="#191919" stroke-width="0.35 px" style="stroke-width:0.35;stroke-miterlimit:4;stroke-dasharray:none;fill:none;fill-opacity:1;fill-rule: evenodd"/>
<path id="Shape2DView_nwe0021"  d="M 0.75 0.5999999999999999 L 0.75 0.8 " stroke="#191919" stroke-width="0.35 px" style="stroke-width:0.35;stroke-miterlimit:4;stroke-dasharray:none;fill:none;fill-opacity:1;fill-rule: evenodd"/>
<path id="Shape2DView_nwe0022"  d="M 0.75 -0.19999999999999996 L 0.75 0.19999999999999996 " stroke="#191919" stroke-width="0.35 px" style="stroke-width:0.35;stroke-miterlimit:4;stroke-dasharray:none;fill:none;fill-opacity:1;fill-rule: evenodd"/>
<path id="Shape2DView_nwe0023"  d="M -0.75 0.8 L -0.5 0.8 " stroke="#191919" stroke-width="0.35 px" style="stroke-width:0.35;stroke-miterlimit:4;stroke-dasharray:none;fill:none;fill-opacity:1;fill-rule: evenodd"/>
<path id="Shape2DView_nwe0024"  d="M 0.5 0.8 L 0.75 0.8 " stroke="#191919" stroke-width="0.35 px" style="stroke-width:0.35;stroke-miterlimit:4;stroke-dasharray:none;fill:none;fill-opacity:1;fill-rule: evenodd"/>
<path id="Shape2DView_nwe0025"  d="M 0.8 -0.2 L 0.7998742441978649 -0.2 L 0.7994985582436365 -0.2 L 0.7988776666061673 -0.2 L 0.7980193773580484 -0.2 L 0.7969344839845657 -0.2 L 0.7956366296493607 -0.2 L 0.7941421356237309 -0.2 L 0.7924697960371747 -0.2 L 0.7906406415303068 -0.2 L 0.7886776747823512 -0.2 L 0.7866055812391034 -0.2 L 0.7844504186791263 -0.2 L 0.7822392895220662 -0.2 L 0.78 -0.2 " stroke="#191919" stroke-width="0.35 px" style="stroke-width:0.35;stroke-miterlimit:4;stroke-dasharray:none;fill:none;fill-opacity:1;fill-rule: evenodd"/>
<path id="Shape2DView_nwe0026"  d="M 0.78 -0.2 L 0.52 -0.19999999999999998 " stroke="#191919" stroke-width="0.35 px" style="stroke-width:0.35;stroke-miterlimit:4;stroke-dasharray:none;fill:none;fill-opacity:1;fill-rule: evenodd"/>
<path id="Shape2DView_nwe0027"  d="M 0.52 -0.2 L 0.5177607104779338 -0.2 L 0.5155495813208737 -0.2 L 0.5133944187608966 -0.2 L 0.5113223252176489 -0.2 L 0.5093593584696933 -0.2 L 0.5075302039628253 -0.2 L 0.5058578643762691 -0.2 L 0.5043633703506394 -0.2 L 0.5030655160154344 -0.2 L 0.5019806226419516 -0.2 L 0.5011223333938327 -0.2 L 0.5005014417563636 -0.2 L 0.5001257558021351 -0.2 L 0.5 -0.2 " stroke="#191919" stroke-width="0.35 px" style="stroke-width:0.35;stroke-miterlimit:4;stroke-dasharray:none;fill:none;fill-opacity:1;fill-rule: evenodd"/>
<path id="Shape2DView_nwe0028"  d="M -0.75 0.5999999999999999 L -0.75 0.8 " stroke="#191919" stroke-width="0.35 px" style="stroke-width:0.35;stroke-miterlimit:4;stroke-dasharray:none;fill:none;fill-opacity:1;fill-rule: evenodd"/>
<path id="Shape2DView_nwe0029"  d="M -0.78 0.6 L -0.7822392895220662 0.6 L -0.7844504186791263 0.6 L -0.7866055812391034 0.6 L -0.7886776747823512 0.6 L -0.7906406415303068 0.6 L -0.7924697960371747 0.6 L -0.7941421356237309 0.6 L -0.7956366296493607 0.6 L -0.7969344839845657 0.6 L -0.7980193773580484 0.6 L -0.7988776666061673 0.6 L -0.7994985582436365 0.6 L -0.7998742441978649 0.6 L -0.8 0.6 " stroke="#191919" stroke-width="0.35 px" style="stroke-width:0.35;stroke-miterlimit:4;stroke-dasharray:none;fill:none;fill-opacity:1;fill-rule: evenodd"/>
<path id="Shape2DView_nwe0030"  d="M -0.78 0.6 L -0.52 0.6 " stroke="#191919" stroke-width="0.35 px" style="stroke-width:0.35;stroke-miterlimit:4;stroke-dasharray:none;fill:none;fill-opacity:1;fill-rule: evenodd"/>
<path id="Shape2DView_nwe0031"  d="M -0.52 0.6 L -0.5177607104779338 0.6 L -0.5155495813208737 0.6 L -0.5133944187608966 0.6 L -0.5113223252176489 0.6 L -0.5093593584696933 0.6 L -0.5075302039628253 0.6 L -0.5058578643762691 0.6 L -0.5043633703506394 0.6 L -0.5030655160154344 0.6 L -0.5019806226419516 0.6 L -0.5011223333938327 0.6 L -0.5005014417563636 0.6 L -0.5001257558021351 0.6 L -0.5 0.6 " stroke="#191919" stroke-width="0.35 px" style="stroke-width:0.35;stroke-miterlimit:4;stroke-dasharray:none;fill:none;fill-opacity:1;fill-rule: evenodd"/>
<path id="Shape2DView_nwe0032"  d="M 0.78 -0.6 L 0.7822392895220662 -0.6 L 0.7844504186791263 -0.6 L 0.7866055812391034 -0.6 L 0.7886776747823512 -0.6 L 0.7906406415303068 -0.6 L 0.7924697960371747 -0.6 L 0.7941421356237309 -0.6 L 0.7956366296493607 -0.6 L 0.7969344839845657 -0.6 L 0.7980193773580484 -0.6 L 0.7988776666061673 -0.6 L 0.7994985582436365 -0.6 L 0.7998742441978649 -0.6 L 0.8 -0.6 " stroke="#191919" stroke-width="0.35 px" style="stroke-width:0.35;stroke-miterlimit:4;stroke-dasharray:none;fill:none;fill-opacity:1;fill-rule: evenodd"/>
<path id="Shape2DView_nwe0033"  d="M 0.78 -0.6 L 0.52 -0.6 " stroke="#191919" stroke-width="0.35 px" style="stroke-width:0.35;stroke-miterlimit:4;stroke-dasharray:none;fill:none;fill-opacity:1;fill-rule: evenodd"/>
<path id="Shape2DView_nwe0034"  d="M 0.52 -0.6 L 0.5177607104779338 -0.6 L 0.5155495813208737 -0.6 L 0.5133944187608966 -0.6 L 0.5113223252176489 -0.6 L 0.5093593584696933 -0.6 L 0.5075302039628253 -0.6 L 0.5058578643762691 -0.6 L 0.5043633703506394 -0.6 L 0.5030655160154344 -0.6 L 0.5019806226419516 -0.6 L 0.5011223333938327 -0.6 L 0.5005014417563636 -0.6 L 0.5001257558021351 -0.6 L 0.5 -0.6 " stroke="#191919" stroke-width="0.35 px" style="stroke-width:0.35;stroke-miterlimit:4;stroke-dasharray:none;fill:none;fill-opacity:1;fill-rule: evenodd"/>
<path id="Shape2DView_nwe0035"  d="M 0.75 -0.8 L 0.75 -0.6 " stroke="#191919" stroke-width="0.35 px" style="stroke-width:0.35;stroke-miterlimit:4;stroke-dasharray:none;fill:none;fill-opacity:1;fill-rule: evenodd"/>
<path id="Shape2DView_nwe0036"  d="M -0.8 0.2 L -0.7998742441978649 0.2 L -0.7994985582436365 0.2 L -0.7988776666061673 0.2 L -0.7980193773580484 0.2 L -0.7969344839845657 0.2 L -0.7956366296493607 0.2 L -0.7941421356237309 0.2 L -0.7924697960371747 0.2 L -0.7906406415303068 0.2 L -0.7886776747823512 0.2 L -0.7866055812391034 0.2 L -0.7844504186791263 0.2 L -0.7822392895220662 0.2 L -0.78 0.2 " stroke="#191919" stroke-width="0.35 px" style="stroke-width:0.35;stroke-miterlimit:4;stroke-dasharray:none;fill:none;fill-opacity:1;fill-rule: evenodd"/>
<path id="Shape2DView_nwe0037"  d="M -0.78 0.2 L -0.52 0.2 " stroke="#191919" stroke-width="0.35 px" style="stroke-width:0.35;stroke-miterlimit:4;stroke-dasharray:none;fill:none;fill-opacity:1;fill-rule: evenodd"/>
<path id="Shape2DView_nwe0038"  d="M -0.52 0.2 L -0.5177607104779338 0.2 L -0.5155495813208737 0.2 L -0.5133944187608966 0.2 L -0.5113223252176489 0.2 L -0.5093593584696933 0.2 L -0.5075302039628253 0.2 L -0.5058578643762691 0.2 L -0.5043633703506394 0.2 L -0.5030655160154344 0.2 L -0.5019806226419516 0.2 L -0.5011223333938327 0.2 L -0.5005014417563636 0.2 L -0.5001257558021351 0.2 L -0.5 0.2 " stroke="#191919" stroke-width="0.35 px" style="stroke-width:0.35;stroke-miterlimit:4;stroke-dasharray:none;fill:none;fill-opacity:1;fill-rule: evenodd"/>
<path id="Shape2DView_nwe0039"  d="M 0.5 -0.8 L 0.75 -0.8 " stroke="#191919" stroke-width="0.35 px" style="stroke-width:0.35;stroke-miterlimit:4;stroke-dasharray:none;fill:none;fill-opacity:1;fill-rule: evenodd"/>
<path id="Shape2DView_nwe0040"  d="M -0.75 -0.19999999999999996 L -0.75 0.19999999999999996 " stroke="#191919" stroke-width="0.35 px" style="stroke-width:0.35;stroke-miterlimit:4;stroke-dasharray:none;fill:none;fill-opacity:1;fill-rule: evenodd"/>
<path id="Shape2DView_nwe0041"  d="M -0.5 -0.8 L 0.5 -0.8 " stroke="#191919" stroke-width="0.35 px" style="stroke-width:0.35;stroke-miterlimit:4;stroke-dasharray:none;fill:none;fill-opacity:1;fill-rule: evenodd"/>
<path id="Shape2DView_nwe0042"  d="M 0.5 -0.8 L 0.5 0.8 " stroke="#191919" stroke-width="0.35 px" style="stroke-width:0.35;stroke-miterlimit:4;stroke-dasharray:none;fill:none;fill-opacity:1;fill-rule: evenodd"/>
<path id="Shape2DView_nwe0043"  d="M -0.5 0.8 L 0.5 0.8 " stroke="#191919" stroke-width="0.35 px" style="stroke-width:0.35;stroke-miterlimit:4;stroke-dasharray:none;fill:none;fill-opacity:1;fill-rule: evenodd"/>
<path id="Shape2DView_nwe0044"  d="M 0.7800000000000012 0.5183215956619925 A 0.12 0.12 0 0 1 0.68 0.4" stroke="#191919" stroke-width="0.35 px" style="stroke-width:0.35;stroke-miterlimit:4;stroke-dasharray:none;fill:none;fill-opacity:1;fill-rule: evenodd"/>
<path id="Shape2DView_nwe0045"  d="M 0.68 0.4 A 0.12 0.12 0 0 1 0.78 0.281678" stroke="#191919" stroke-width="0.35 px" style="stroke-width:0.35;stroke-miterlimit:4;stroke-dasharray:none;fill:none;fill-opacity:1;fill-rule: evenodd"/>
<path id="Shape2DView_nwe0046"  d="M 0.8 0.52 L 0.78 0.518321595662 " stroke="#191919" stroke-width="0.35 px" style="stroke-width:0.35;stroke-miterlimit:4;stroke-dasharray:none;fill:none;fill-opacity:1;fill-rule: evenodd"/>
<path id="Shape2DView_nwe0047"  d="M 0.8 0.6 L 0.8 0.52 " stroke="#191919" stroke-width="0.35 px" style="stroke-width:0.35;stroke-miterlimit:4;stroke-dasharray:none;fill:none;fill-opacity:1;fill-rule: evenodd"/>
<path id="Shape2DView_nwe0048"  d="M 0.8 0.28 L 0.8 0.2 " stroke="#191919" stroke-width="0.35 px" style="stroke-width:0.35;stroke-miterlimit:4;stroke-dasharray:none;fill:none;fill-opacity:1;fill-rule: evenodd"/>
<path id="Shape2DView_nwe0049"  d="M 0.78 0.281678404338 L 0.8 0.28 " stroke="#191919" stroke-width="0.35 px" style="stroke-width:0.35;stroke-miterlimit:4;stroke-dasharray:none;fill:none;fill-opacity:1;fill-rule: evenodd"/>
<path id="Shape2DView_nwe0050"  d="M 0.7800000000000012 -0.2816784043380075 A 0.12 0.12 0 0 1 0.68 -0.4" stroke="#191919" stroke-width="0.35 px" style="stroke-width:0.35;stroke-miterlimit:4;stroke-dasharray:none;fill:none;fill-opacity:1;fill-rule: evenodd"/>
<path id="Shape2DView_nwe0051"  d="M 0.68 -0.4 A 0.12 0.12 0 0 1 0.78 -0.518322" stroke="#191919" stroke-width="0.35 px" style="stroke-width:0.35;stroke-miterlimit:4;stroke-dasharray:none;fill:none;fill-opacity:1;fill-rule: evenodd"/>
<path id="Shape2DView_nwe0052"  d="M 0.8 -0.28 L 0.78 -0.28167840433800007 " stroke="#191919" stroke-width="0.35 px" style="stroke-width:0.35;stroke-miterlimit:4;stroke-dasharray:none;fill:none;fill-opacity:1;fill-rule: evenodd"/>
<path id="Shape2DView_nwe0053"  d="M 0.8 -0.2 L 0.8 -0.28 " stroke="#191919" stroke-width="0.35 px" style="stroke-width:0.35;stroke-miterlimit:4;stroke-dasharray:none;fill:none;fill-opacity:1;fill-rule: evenodd"/>
<path id="Shape2DView_nwe0054"  d="M -0.7800000000000014 0.2816784043380075 A 0.12 0.12 0 0 1 -0.68 0.4" stroke="#191919" stroke-width="0.35 px" style="stroke-width:0.35;stroke-miterlimit:4;stroke-dasharray:none;fill:none;fill-opacity:1;fill-rule: evenodd"/>
<path id="Shape2DView_nwe0055"  d="M -0.68 0.4 A 0.12 0.12 0 0 1 -0.78 0.518322" stroke="#191919" stroke-width="0.35 px" style="stroke-width:0.35;stroke-miterlimit:4;stroke-dasharray:none;fill:none;fill-opacity:1;fill-rule: evenodd"/>
<path id="Shape2DView_nwe0056"  d="M -0.8 0.52 L -0.8 0.6 " stroke="#191919" stroke-width="0.35 px" style="stroke-width:0.35;stroke-miterlimit:4;stroke-dasharray:none;fill:none;fill-opacity:1;fill-rule: evenodd"/>
<path id="Shape2DView_nwe0057"  d="M -0.78 0.518321595662 L -0.8 0.52 " stroke="#191919" stroke-width="0.35 px" style="stroke-width:0.35;stroke-miterlimit:4;stroke-dasharray:none;fill:none;fill-opacity:1;fill-rule: evenodd"/>
<path id="Shape2DView_nwe0058"  d="M 0.8 -0.52 L 0.8 -0.6 " stroke="#191919" stroke-width="0.35 px" style="stroke-width:0.35;stroke-miterlimit:4;stroke-dasharray:none;fill:none;fill-opacity:1;fill-rule: evenodd"/>
<path id="Shape2DView_nwe0059"  d="M 0.78 -0.518321595662 L 0.8 -0.52 " stroke="#191919" stroke-width="0.35 px" style="stroke-width:0.35;stroke-miterlimit:4;stroke-dasharray:none;fill:none;fill-opacity:1;fill-rule: evenodd"/>
<path id="Shape2DView_nwe0060"  d="M -0.8 0.28 L -0.78 0.28167840433800007 " stroke="#191919" stroke-width="0.35 px" style="stroke-width:0.35;stroke-miterlimit:4;stroke-dasharray:none;fill:none;fill-opacity:1;fill-rule: evenodd"/>
<path id="Shape2DView_nwe0061"  d="M -0.8 0.2 L -0.8 0.28 " stroke="#191919" stroke-width="0.35 px" style="stroke-width:0.35;stroke-miterlimit:4;stroke-dasharray:none;fill:none;fill-opacity:1;fill-rule: evenodd"/>
<path id="Shape2DView_nwe0062"  d="M -0.78 -0.6 L -0.78 -0.518321595662 " stroke="#191919" stroke-width="0.35 px" style="stroke-width:0.35;stroke-miterlimit:4;stroke-dasharray:none;fill:none;fill-opacity:1;fill-rule: evenodd"/>
<path id="Shape2DView_nwe0063"  d="M -0.78 -0.281678404338 L -0.78 -0.2 " stroke="#191919" stroke-width="0.35 px" style="stroke-width:0.35;stroke-miterlimit:4;stroke-dasharray:none;fill:none;fill-opacity:1;fill-rule: evenodd"/>
<path id="Shape2DView_nwe0064"  d="M -0.52 -0.6 L -0.52 -0.2 " stroke="#191919" stroke-width="0.35 px" style="stroke-width:0.35;stroke-miterlimit:4;stroke-dasharray:none;fill:none;fill-opacity:1;fill-rule: evenodd"/>
<path id="Shape2DView_nwe0065"  d="M -0.52 0.2 L -0.52 0.6 " stroke="#191919" stroke-width="0.35 px" style="stroke-width:0.35;stroke-miterlimit:4;stroke-dasharray:none;fill:none;fill-opacity:1;fill-rule: evenodd"/>
<path id="Shape2DView_nwe0066"  d="M 0.52 0.6 L 0.52 0.2 " stroke="#191919" stroke-width="0.35 px" style="stroke-width:0.35;stroke-miterlimit:4;stroke-dasharray:none;fill:none;fill-opacity:1;fill-rule: evenodd"/>
<path id="Shape2DView_nwe0067"  d="M 0.78 0.6 L 0.78 0.518321595662 " stroke="#191919" stroke-width="0.35 px" style="stroke-width:0.35;stroke-miterlimit:4;stroke-dasharray:none;fill:none;fill-opacity:1;fill-rule: evenodd"/>
<path id="Shape2DView_nwe0068"  d="M 0.78 0.281678404338 L 0.78 0.2 " stroke="#191919" stroke-width="0.35 px" style="stroke-width:0.35;stroke-miterlimit:4;stroke-dasharray:none;fill:none;fill-opacity:1;fill-rule: evenodd"/>
<path id="Shape2DView_nwe0069"  d="M 0.52 -0.2 L 0.52 -0.6 " stroke="#191919" stroke-width="0.35 px" style="stroke-width:0.35;stroke-miterlimit:4;stroke-dasharray:none;fill:none;fill-opacity:1;fill-rule: evenodd"/>
<path id="Shape2DView_nwe0070"  d="M 0.78 -0.2 L 0.78 -0.281678404338 " stroke="#191919" stroke-width="0.35 px" style="stroke-width:0.35;stroke-miterlimit:4;stroke-dasharray:none;fill:none;fill-opacity:1;fill-rule: evenodd"/>
<path id="Shape2DView_nwe0071"  d="M 0.78 -0.518321595662 L 0.78 -0.6 " stroke="#191919" stroke-width="0.35 px" style="stroke-width:0.35;stroke-miterlimit:4;stroke-dasharray:none;fill:none;fill-opacity:1;fill-rule: evenodd"/>
<path id="Shape2DView_nwe0072"  d="M -0.78 0.2 L -0.78 0.281678404338 " stroke="#191919" stroke-width="0.35 px" style="stroke-width:0.35;stroke-miterlimit:4;stroke-dasharray:none;fill:none;fill-opacity:1;fill-rule: evenodd"/>
<path id="Shape2DView_nwe0073"  d="M -0.78 0.518321595662 L -0.78 0.6 " stroke="#191919" stroke-width="0.35 px" style="stroke-width:0.35;stroke-miterlimit:4;stroke-dasharray:none;fill:none;fill-opacity:1;fill-rule: evenodd"/>
<title>b'Shape2DView'</title>
</g>
<g id="Rectangle" transform="translate(0.818000,1.018000) scale(1,-1)">
<rect fill="#ff0000" id="origin" width="1" height="1" x="0" y="0" />
<title>b'Rectangle'</title>
</g>
</svg>