<?xml version="1.0"?>
<!DOCTYPE svg PUBLIC "-//W3C//DTD SVG 1.1//EN" "http://www.w3.org/Graphics/SVG/1.1/DTD/svg11.dtd">
<svg width="3.672mm" height="1.7720000000000002mm" viewBox="0 0 3.672 1.7720000000000002" xmlns="http://www.w3.org/2000/svg" version="1.1">
<g id="Shape2DView" transform="translate(1.836000,1.036000) scale(1,-1)">
<path id="Shape2DView_nwe0000"  d="M -1.8 0.5999999999999999 L -1.8 0.5849567473090941 L -1.8 0.5405813207414513 L -1.8 0.4690988894808177 L -1.8 0.3740938811152399 L -1.8 0.26033024347053463 L -1.8 0.1335125603737884 L -1.8 -2.151791784536588e-16 L -1.8 -0.13351256037378886 L -1.8 -0.26033024347053507 L -1.8 -0.3740938811152403 L -1.8 -0.469098889480818 L -1.8 -0.5405813207414516 L -1.8 -0.5849567473090943 L -1.8 -0.6000000000000001 " stroke="#191919" stroke-width="0.35 px" style="stroke-width:0.35;stroke-miterlimit:4;stroke-dasharray:none;fill:none;fill-opacity:1;fill-rule: evenodd"/>
<path id="Shape2DView_nwe0001"  d="M -0.9 0.6999999999999998 L -0.9 0.6824495385272764 L -0.9 0.6306782075316931 L -0.9 0.5472820377276206 L -0.9 0.4364428613011132 L -0.9 0.3037186173822904 L -0.9 0.15576465376941984 L -0.9 -2.2513717095468525e-16 L -0.9 -0.15576465376942028 L -0.9 -0.30371861738229095 L -0.9 -0.4364428613011136 L -0.9 -0.547282037727621 L -0.9 -0.6306782075316935 L -0.9 -0.6824495385272766 L -0.9 -0.7000000000000001 " stroke="#191919" stroke-width="0.35 px" style="stroke-width:0.35;stroke-miterlimit:4;stroke-dasharray:none;fill:none;fill-opacity:1;fill-rule: evenodd"/>
<path id="Shape2DView_nwe0002"  d="M 0.9 0.6999999999999998 L 0.9 0.6824495385272764 L 0.9 0.6306782075316931 L 0.9 0.5472820377276206 L 0.9 0.4364428613011132 L 0.9 0.3037186173822904 L 0.9 0.15576465376941984 L 0.9 -2.2513717095468525e-16 L 0.9 -0.15576465376942028 L 0.9 -0.30371861738229095 L 0.9 -0.4364428613011136 L 0.9 -0.547282037727621 L 0.9 -0.6306782075316935 L 0.9 -0.6824495385272766 L 0.9 -0.7000000000000001 " stroke="#191919" stroke-width="0.35 px" style="stroke-width:0.35;stroke-miterlimit:4;stroke-dasharray:none;fill:none;fill-opacity:1;fill-rule: evenodd"/>
<path id="Shape2DView_nwe0003"  d="M 1.8 0.5999999999999999 L 1.8 0.5849567473090941 L 1.8 0.5405813207414513 L 1.8 0.4690988894808177 L 1.8 0.3740938811152399 L 1.8 0.26033024347053463 L 1.8 0.1335125603737884 L 1.8 -2.151791784536588e-16 L 1.8 -0.13351256037378886 L 1.8 -0.26033024347053507 L 1.8 -0.3740938811152403 L 1.8 -0.469098889480818 L 1.8 -0.5405813207414516 L 1.8 -0.5849567473090943 L 1.8 -0.6000000000000001 " stroke="#191919" stroke-width="0.35 px" style="stroke-width:0.35;stroke-miterlimit:4;stroke-dasharray:none;fill:none;fill-opacity:1;fill-rule: evenodd"/>
<path id="Shape2DView_nwe0004"  d="M -1.7 0.6999999999999998 L -1.7 0.6824495385272764 L -1.7 0.6306782075316931 L -1.7 0.5472820377276206 L -1.7 0.4364428613011132 L -1.7 0.3037186173822904 L -1.7 0.15576465376941984 L -1.7 -2.2513717095468525e-16 L -1.7 -0.15576465376942028 L -1.7 -0.30371861738229095 L -1.7 -0.4364428613011136 L -1.7 -0.547282037727621 L -1.7 -0.6306782075316935 L -1.7 -0.6824495385272766 L -1.7 -0.7000000000000001 " stroke="#191919" stroke-width="0.35 px" style="stroke-width:0.35;stroke-miterlimit:4;stroke-dasharray:none;fill:none;fill-opacity:1;fill-rule: evenodd"/>
<path id="Shape2DView_nwe0005"  d="M 1.7 0.6999999999999998 L 1.7 0.6824495385272764 L 1.7 0.6306782075316931 L 1.7 0.5472820377276206 L 1.7 0.4364428613011132 L 1.7 0.3037186173822904 L 1.7 0.15576465376941984 L 1.7 -2.2513717095468525e-16 L 1.7 -0.15576465376942028 L 1.7 -0.30371861738229095 L 1.7 -0.4364428613011136 L 1.7 -0.547282037727621 L 1.7 -0.6306782075316935 L 1.7 -0.6824495385272766 L 1.7 -0.7000000000000001 " stroke="#191919" stroke-width="0.35 px" style="stroke-width:0.35;stroke-miterlimit:4;stroke-dasharray:none;fill:none;fill-opacity:1;fill-rule: evenodd"/>
<path id="Shape2DView_nwe0006"  d="M -1.7 0.6999999999999998 L -1.8 0.5999999999999999 " stroke="#191919" stroke-width="0.35 px" style="stroke-width:0.35;stroke-miterlimit:4;stroke-dasharray:none;fill:none;fill-opacity:1;fill-rule: evenodd"/>
<path id="Shape2DView_nwe0007"  d="M -1.7 -0.7000000000000001 L -1.8 -0.6000000000000001 " stroke="#191919" stroke-width="0.35 px" style="stroke-width:0.35;stroke-miterlimit:4;stroke-dasharray:none;fill:none;fill-opacity:1;fill-rule: evenodd"/>
<path id="Shape2DView_nwe0008"  d="M -1.7 -0.7000000000000001 L -0.9 -0.7000000000000001 " stroke="#191919" stroke-width="0.35 px" style="stroke-width:0.35;stroke-miterlimit:4;stroke-dasharray:none;fill:none;fill-opacity:1;fill-rule: evenodd"/>
<path id="Shape2DView_nwe0009"  d="M -1.7 0.6999999999999998 L -0.9 0.6999999999999998 " stroke="#191919" stroke-width="0.35 px" style="stroke-width:0.35;stroke-miterlimit:4;stroke-dasharray:none;fill:none;fill-opacity:1;fill-rule: evenodd"/>
<path id="Shape2DView_nwe0010"  d="M 0.9 0.6749999999999999 L -0.8999999999999999 0.6749999999999999 " stroke="#191919" stroke-width="0.35 px" style="stroke-width:0.35;stroke-miterlimit:4;stroke-dasharray:none;fill:none;fill-opacity:1;fill-rule: evenodd"/>
<path id="Shape2DView_nwe0011"  d="M 0.9 -0.6750000000000002 L -0.8999999999999999 -0.6750000000000002 " stroke="#191919" stroke-width="0.35 px" style="stroke-width:0.35;stroke-miterlimit:4;stroke-dasharray:none;fill:none;fill-opacity:1;fill-rule: evenodd"/>
<path id="Shape2DView_nwe0012"  d="M 0.9 -0.7000000000000001 L 1.7 -0.7000000000000001 " stroke="#191919" stroke-width="0.35 px" style="stroke-width:0.35;stroke-miterlimit:4;stroke-dasharray:none;fill:none;fill-opacity:1;fill-rule: evenodd"/>
<path id="Shape2DView_nwe0013"  d="M 0.9 0.6999999999999998 L 1.7 0.6999999999999998 " stroke="#191919" stroke-width="0.35 px" style="stroke-width:0.35;stroke-miterlimit:4;stroke-dasharray:none;fill:none;fill-opacity:1;fill-rule: evenodd"/>
<path id="Shape2DView_nwe0014"  d="M 1.7 0.6999999999999998 L 1.8 0.5999999999999999 " stroke="#191919" stroke-width="0.35 px" style="stroke-width:0.35;stroke-miterlimit:4;stroke-dasharray:none;fill:none;fill-opacity:1;fill-rule: evenodd"/>
<path id="Shape2DView_nwe0015"  d="M 1.7 -0.7000000000000001 L 1.8 -0.6000000000000001 " stroke="#191919" stroke-width="0.35 px" style="stroke-width:0.35;stroke-miterlimit:4;stroke-dasharray:none;fill:none;fill-opacity:1;fill-rule: evenodd"/>
<title>b'Shape2DView'</title>
</g>
<g id="Rectangle" transform="translate(1.836000,1.036000) scale(1,-1)">
<rect fill="#ff0000" id="origin" width="1" height="1" x="0" y="0" />
<title>b'Rectangle'</title>
</g>
</svg>