<?xml version="1.0"?>
<!DOCTYPE svg PUBLIC "-//W3C//DTD SVG 1.1//EN" "http://www.w3.org/Graphics/SVG/1.1/DTD/svg11.dtd">
<svg width="65.28mm" height="79.33000000000001mm" viewBox="0 0 65.28 79.33000000000001" xmlns="http://www.w3.org/2000/svg" version="1.1">
<g id="Shape2DView" transform="translate(2.160000,20.640000) scale(1,-1)">
<path id="Shape2DView_nwe0000"  d="M 60.66 20.0 L 60.660000000000004 0.8999999999999986 " stroke="#191919" stroke-width="0.35 px" style="stroke-width:0.35;stroke-miterlimit:4;stroke-dasharray:none;fill:none;fill-opacity:1;fill-rule: evenodd"/>
<path id="Shape2DView_nwe0001"  d="M 60.660000000000004 -0.3999999999999986 L 60.660000000000004 -1.8399999999999999 " stroke="#191919" stroke-width="0.35 px" style="stroke-width:0.35;stroke-miterlimit:4;stroke-dasharray:none;fill:none;fill-opacity:1;fill-rule: evenodd"/>
<path id="Shape2DView_nwe0002"  d="M 60.660000000000004 -3.1400000000000006 L 60.660000000000004 -4.379999999999999 " stroke="#191919" stroke-width="0.35 px" style="stroke-width:0.35;stroke-miterlimit:4;stroke-dasharray:none;fill:none;fill-opacity:1;fill-rule: evenodd"/>
<path id="Shape2DView_nwe0003"  d="M 60.660000000000004 -5.68 L 60.660000000000004 -6.920000000000002 " stroke="#191919" stroke-width="0.35 px" style="stroke-width:0.35;stroke-miterlimit:4;stroke-dasharray:none;fill:none;fill-opacity:1;fill-rule: evenodd"/>
<path id="Shape2DView_nwe0004"  d="M 60.660000000000004 -8.219999999999999 L 60.660000000000004 -9.46 " stroke="#191919" stroke-width="0.35 px" style="stroke-width:0.35;stroke-miterlimit:4;stroke-dasharray:none;fill:none;fill-opacity:1;fill-rule: evenodd"/>
<path id="Shape2DView_nwe0005"  d="M 60.660000000000004 -10.759999999999998 L 60.660000000000004 -12.0 " stroke="#191919" stroke-width="0.35 px" style="stroke-width:0.35;stroke-miterlimit:4;stroke-dasharray:none;fill:none;fill-opacity:1;fill-rule: evenodd"/>
<path id="Shape2DView_nwe0006"  d="M 60.660000000000004 -13.299999999999997 L 60.660000000000004 -14.54 " stroke="#191919" stroke-width="0.35 px" style="stroke-width:0.35;stroke-miterlimit:4;stroke-dasharray:none;fill:none;fill-opacity:1;fill-rule: evenodd"/>
<path id="Shape2DView_nwe0007"  d="M 60.660000000000004 -15.840000000000003 L 60.660000000000004 -17.08 " stroke="#191919" stroke-width="0.35 px" style="stroke-width:0.35;stroke-miterlimit:4;stroke-dasharray:none;fill:none;fill-opacity:1;fill-rule: evenodd"/>
<path id="Shape2DView_nwe0008"  d="M 60.660000000000004 -18.379999999999995 L 60.660000000000004 -19.620000000000005 " stroke="#191919" stroke-width="0.35 px" style="stroke-width:0.35;stroke-miterlimit:4;stroke-dasharray:none;fill:none;fill-opacity:1;fill-rule: evenodd"/>
<path id="Shape2DView_nwe0009"  d="M 60.660000000000004 -20.92 L 60.660000000000004 -22.159999999999997 " stroke="#191919" stroke-width="0.35 px" style="stroke-width:0.35;stroke-miterlimit:4;stroke-dasharray:none;fill:none;fill-opacity:1;fill-rule: evenodd"/>
<path id="Shape2DView_nwe0010"  d="M 60.660000000000004 -23.46 L 60.660000000000004 -24.700000000000003 " stroke="#191919" stroke-width="0.35 px" style="stroke-width:0.35;stroke-miterlimit:4;stroke-dasharray:none;fill:none;fill-opacity:1;fill-rule: evenodd"/>
<path id="Shape2DView_nwe0011"  d="M 60.660000000000004 -26.0 L 60.660000000000004 -27.239999999999995 " stroke="#191919" stroke-width="0.35 px" style="stroke-width:0.35;stroke-miterlimit:4;stroke-dasharray:none;fill:none;fill-opacity:1;fill-rule: evenodd"/>
<path id="Shape2DView_nwe0012"  d="M 60.66000000000001 -28.54 L 60.66000000000001 -29.78 " stroke="#191919" stroke-width="0.35 px" style="stroke-width:0.35;stroke-miterlimit:4;stroke-dasharray:none;fill:none;fill-opacity:1;fill-rule: evenodd"/>
<path id="Shape2DView_nwe0013"  d="M 60.66000000000001 -31.08 L 60.66000000000001 -32.32 " stroke="#191919" stroke-width="0.35 px" style="stroke-width:0.35;stroke-miterlimit:4;stroke-dasharray:none;fill:none;fill-opacity:1;fill-rule: evenodd"/>
<path id="Shape2DView_nwe0014"  d="M 60.66000000000001 -33.62 L 60.66000000000001 -34.86 " stroke="#191919" stroke-width="0.35 px" style="stroke-width:0.35;stroke-miterlimit:4;stroke-dasharray:none;fill:none;fill-opacity:1;fill-rule: evenodd"/>
<path id="Shape2DView_nwe0015"  d="M 60.66000000000001 -36.16 L 60.66000000000001 -37.4 " stroke="#191919" stroke-width="0.35 px" style="stroke-width:0.35;stroke-miterlimit:4;stroke-dasharray:none;fill:none;fill-opacity:1;fill-rule: evenodd"/>
<path id="Shape2DView_nwe0016"  d="M 60.66000000000001 -38.7 L 60.66000000000001 -58.0 " stroke="#191919" stroke-width="0.35 px" style="stroke-width:0.35;stroke-miterlimit:4;stroke-dasharray:none;fill:none;fill-opacity:1;fill-rule: evenodd"/>
<path id="Shape2DView_nwe0017"  d="M 0.0 20.0 L 3.0 20.0 " stroke="#191919" stroke-width="0.35 px" style="stroke-width:0.35;stroke-miterlimit:4;stroke-dasharray:none;fill:none;fill-opacity:1;fill-rule: evenodd"/>
<path id="Shape2DView_nwe0018"  d="M 58.0 20.000000000000014 L 60.66 20.000000000000014 " stroke="#191919" stroke-width="0.35 px" style="stroke-width:0.35;stroke-miterlimit:4;stroke-dasharray:none;fill:none;fill-opacity:1;fill-rule: evenodd"/>
<path id="Shape2DView_nwe0019"  d="M 60.66 -58.0 L 58.0 -58.0 " stroke="#191919" stroke-width="0.35 px" style="stroke-width:0.35;stroke-miterlimit:4;stroke-dasharray:none;fill:none;fill-opacity:1;fill-rule: evenodd"/>
<path id="Shape2DView_nwe0020"  d="M 3.0 -58.000000000000014 L -7.105427357601002e-15 -58.000000000000014 " stroke="#191919" stroke-width="0.35 px" style="stroke-width:0.35;stroke-miterlimit:4;stroke-dasharray:none;fill:none;fill-opacity:1;fill-rule: evenodd"/>
<path id="Shape2DView_nwe0021"  d="M 4.29656310529875e-15 0.6499999999999986 L 0.0 20.0 " stroke="#191919" stroke-width="0.35 px" style="stroke-width:0.35;stroke-miterlimit:4;stroke-dasharray:none;fill:none;fill-opacity:1;fill-rule: evenodd"/>
<path id="Shape2DView_nwe0022"  d="M 4.860556401808249e-15 -1.8900000000000006 L 4.585221091701249e-15 -0.6499999999999986 " stroke="#191919" stroke-width="0.35 px" style="stroke-width:0.35;stroke-miterlimit:4;stroke-dasharray:none;fill:none;fill-opacity:1;fill-rule: evenodd"/>
<path id="Shape2DView_nwe0023"  d="M 5.4245496983177496e-15 -4.43 L 5.14921438821075e-15 -3.1899999999999977 " stroke="#191919" stroke-width="0.35 px" style="stroke-width:0.35;stroke-miterlimit:4;stroke-dasharray:none;fill:none;fill-opacity:1;fill-rule: evenodd"/>
<path id="Shape2DView_nwe0024"  d="M 1.162847595992225e-14 -32.37 L 5.71320768472025e-15 -5.730000000000004 " stroke="#191919" stroke-width="0.35 px" style="stroke-width:0.35;stroke-miterlimit:4;stroke-dasharray:none;fill:none;fill-opacity:1;fill-rule: evenodd"/>
<path id="Shape2DView_nwe0025"  d="M 1.2192469256431749e-14 -34.91 L 1.191713394632475e-14 -33.67 " stroke="#191919" stroke-width="0.35 px" style="stroke-width:0.35;stroke-miterlimit:4;stroke-dasharray:none;fill:none;fill-opacity:1;fill-rule: evenodd"/>
<path id="Shape2DView_nwe0026"  d="M 1.275646255294125e-14 -37.45 L 1.2481127242834251e-14 -36.21 " stroke="#191919" stroke-width="0.35 px" style="stroke-width:0.35;stroke-miterlimit:4;stroke-dasharray:none;fill:none;fill-opacity:1;fill-rule: evenodd"/>
<path id="Shape2DView_nwe0027"  d="M 1.731947918415e-14 -58.0 L 1.304512053934375e-14 -38.75 " stroke="#191919" stroke-width="0.35 px" style="stroke-width:0.35;stroke-miterlimit:4;stroke-dasharray:none;fill:none;fill-opacity:1;fill-rule: evenodd"/>
<path id="Shape2DView_nwe0028"  d="M 45.833 20.00000000000001 L 58.0 20.00000000000001 " stroke="#191919" stroke-width="0.35 px" style="stroke-width:0.35;stroke-miterlimit:4;stroke-dasharray:none;fill:none;fill-opacity:1;fill-rule: evenodd"/>
<path id="Shape2DView_nwe0029"  d="M 3.0 -58.05 L 3.0 -58.0 " stroke="#191919" stroke-width="0.35 px" style="stroke-width:0.35;stroke-miterlimit:4;stroke-dasharray:none;fill:none;fill-opacity:1;fill-rule: evenodd"/>
<path id="Shape2DView_nwe0030"  d="M 3.0 -58.05 L 45.833 -58.05 " stroke="#191919" stroke-width="0.35 px" style="stroke-width:0.35;stroke-miterlimit:4;stroke-dasharray:none;fill:none;fill-opacity:1;fill-rule: evenodd"/>
<path id="Shape2DView_nwe0031"  d="M 45.833 -58.05 L 45.833 -58.0 " stroke="#191919" stroke-width="0.35 px" style="stroke-width:0.35;stroke-miterlimit:4;stroke-dasharray:none;fill:none;fill-opacity:1;fill-rule: evenodd"/>
<path id="Shape2DView_nwe0032"  d="M 45.833 -57.99999999999999 L 58.0 -57.999999999999986 " stroke="#191919" stroke-width="0.35 px" style="stroke-width:0.35;stroke-miterlimit:4;stroke-dasharray:none;fill:none;fill-opacity:1;fill-rule: evenodd"/>
<path id="Shape2DView_nwe0033"  d="M 0.6585307101739626 -38.75 L 0.5785599896853716 -38.75 L 0.49542416894445396 -38.75 L 0.4107827662680726 -38.75 L 0.3263253536945448 -38.75 L 0.2437378305379268 -38.75 L 0.16466877025549953 -38.75 L 0.09069651239652599 -38.75 L 0.023297656527385968 -38.75 L -0.03618241295740082 -38.75 L -0.08655638276834493 -38.75 L -0.1268187113127935 -38.75 L -0.15616570084525466 -38.75 L -0.17401154050538142 -38.75 L -0.18 -38.75 " stroke="#191919" stroke-width="0.35 px" style="stroke-width:0.35;stroke-miterlimit:4;stroke-dasharray:none;fill:none;fill-opacity:1;fill-rule: evenodd"/>
<path id="Shape2DView_nwe0034"  d="M 0.658530710173812 -38.75 L 0.756316158370637 -38.75 L 0.8591960990834945 -38.75 L 0.9663824923463515 -38.75 L 1.0770543116197226 -38.75 L 1.1903638326913206 -38.75 L 1.305443127075595 -38.75 L 1.4214107101740008 -38.75 L 1.5373782932724067 -38.75 L 1.652457587656681 -38.75 L 1.765767108728279 -38.75 L 1.87643892800165 -38.75 L 1.983625321264507 -38.75 L 2.0865052619773645 -38.75 L 2.1842907101741873 -38.75 " stroke="#191919" stroke-width="0.35 px" style="stroke-width:0.35;stroke-miterlimit:4;stroke-dasharray:none;fill:none;fill-opacity:1;fill-rule: evenodd"/>
<path id="Shape2DView_nwe0035"  d="M 0.6585307101739626 -37.45 L 0.5785599896853716 -37.45 L 0.49542416894445396 -37.45 L 0.4107827662680726 -37.45 L 0.3263253536945448 -37.45 L 0.2437378305379268 -37.45 L 0.16466877025549953 -37.45 L 0.09069651239652599 -37.45 L 0.023297656527385968 -37.45 L -0.03618241295740082 -37.45 L -0.08655638276834493 -37.45 L -0.1268187113127935 -37.45 L -0.15616570084525466 -37.45 L -0.17401154050538142 -37.45 L -0.18 -37.45 " stroke="#191919" stroke-width="0.35 px" style="stroke-width:0.35;stroke-miterlimit:4;stroke-dasharray:none;fill:none;fill-opacity:1;fill-rule: evenodd"/>
<path id="Shape2DView_nwe0036"  d="M 0.658530710173812 -37.45 L 0.756316158370637 -37.45 L 0.8591960990834945 -37.45 L 0.9663824923463515 -37.45 L 1.0770543116197226 -37.45 L 1.1903638326913206 -37.45 L 1.305443127075595 -37.45 L 1.4214107101740008 -37.45 L 1.5373782932724067 -37.45 L 1.652457587656681 -37.45 L 1.765767108728279 -37.45 L 1.87643892800165 -37.45 L 1.983625321264507 -37.45 L 2.0865052619773645 -37.45 L 2.1842907101741873 -37.45 " stroke="#191919" stroke-width="0.35 px" style="stroke-width:0.35;stroke-miterlimit:4;stroke-dasharray:none;fill:none;fill-opacity:1;fill-rule: evenodd"/>
<path id="Shape2DView_nwe0037"  d="M 0.6585307101739626 -36.21 L 0.5785599896853716 -36.21 L 0.49542416894445396 -36.21 L 0.4107827662680726 -36.21 L 0.3263253536945448 -36.21 L 0.2437378305379268 -36.21 L 0.16466877025549953 -36.21 L 0.09069651239652599 -36.21 L 0.023297656527385968 -36.21 L -0.03618241295740082 -36.21 L -0.08655638276834493 -36.21 L -0.1268187113127935 -36.21 L -0.15616570084525466 -36.21 L -0.17401154050538142 -36.21 L -0.18 -36.21 " stroke="#191919" stroke-width="0.35 px" style="stroke-width:0.35;stroke-miterlimit:4;stroke-dasharray:none;fill:none;fill-opacity:1;fill-rule: evenodd"/>
<path id="Shape2DView_nwe0038"  d="M 0.658530710173812 -36.21 L 0.756316158370637 -36.21 L 0.8591960990834945 -36.21 L 0.9663824923463515 -36.21 L 1.0770543116197226 -36.21 L 1.1903638326913206 -36.21 L 1.305443127075595 -36.21 L 1.4214107101740008 -36.21 L 1.5373782932724067 -36.21 L 1.652457587656681 -36.21 L 1.765767108728279 -36.21 L 1.87643892800165 -36.21 L 1.983625321264507 -36.21 L 2.0865052619773645 -36.21 L 2.1842907101741873 -36.21 " stroke="#191919" stroke-width="0.35 px" style="stroke-width:0.35;stroke-miterlimit:4;stroke-dasharray:none;fill:none;fill-opacity:1;fill-rule: evenodd"/>
<path id="Shape2DView_nwe0039"  d="M 0.6585307101739626 -34.91 L 0.5785599896853716 -34.91 L 0.49542416894445396 -34.91 L 0.4107827662680726 -34.91 L 0.3263253536945448 -34.91 L 0.2437378305379268 -34.91 L 0.16466877025549953 -34.91 L 0.09069651239652599 -34.91 L 0.023297656527385968 -34.91 L -0.03618241295740082 -34.91 L -0.08655638276834493 -34.91 L -0.1268187113127935 -34.91 L -0.15616570084525466 -34.91 L -0.17401154050538142 -34.91 L -0.18 -34.91 " stroke="#191919" stroke-width="0.35 px" style="stroke-width:0.35;stroke-miterlimit:4;stroke-dasharray:none;fill:none;fill-opacity:1;fill-rule: evenodd"/>
<path id="Shape2DView_nwe0040"  d="M 0.658530710173812 -34.91 L 0.756316158370637 -34.91 L 0.8591960990834945 -34.91 L 0.9663824923463515 -34.91 L 1.0770543116197226 -34.91 L 1.1903638326913206 -34.91 L 1.305443127075595 -34.91 L 1.4214107101740008 -34.91 L 1.5373782932724067 -34.91 L 1.652457587656681 -34.91 L 1.765767108728279 -34.91 L 1.87643892800165 -34.91 L 1.983625321264507 -34.91 L 2.0865052619773645 -34.91 L 2.1842907101741873 -34.91 " stroke="#191919" stroke-width="0.35 px" style="stroke-width:0.35;stroke-miterlimit:4;stroke-dasharray:none;fill:none;fill-opacity:1;fill-rule: evenodd"/>
<path id="Shape2DView_nwe0041"  d="M 0.6585307101739626 -33.67 L 0.5785599896853716 -33.67 L 0.49542416894445396 -33.67 L 0.4107827662680726 -33.67 L 0.3263253536945448 -33.67 L 0.2437378305379268 -33.67 L 0.16466877025549953 -33.67 L 0.09069651239652599 -33.67 L 0.023297656527385968 -33.67 L -0.03618241295740082 -33.67 L -0.08655638276834493 -33.67 L -0.1268187113127935 -33.67 L -0.15616570084525466 -33.67 L -0.17401154050538142 -33.67 L -0.18 -33.67 " stroke="#191919" stroke-width="0.35 px" style="stroke-width:0.35;stroke-miterlimit:4;stroke-dasharray:none;fill:none;fill-opacity:1;fill-rule: evenodd"/>
<path id="Shape2DView_nwe0042"  d="M 0.658530710173812 -33.67 L 0.756316158370637 -33.67 L 0.8591960990834945 -33.67 L 0.9663824923463515 -33.67 L 1.0770543116197226 -33.67 L 1.1903638326913206 -33.67 L 1.305443127075595 -33.67 L 1.4214107101740008 -33.67 L 1.5373782932724067 -33.67 L 1.652457587656681 -33.67 L 1.765767108728279 -33.67 L 1.87643892800165 -33.67 L 1.983625321264507 -33.67 L 2.0865052619773645 -33.67 L 2.1842907101741873 -33.67 " stroke="#191919" stroke-width="0.35 px" style="stroke-width:0.35;stroke-miterlimit:4;stroke-dasharray:none;fill:none;fill-opacity:1;fill-rule: evenodd"/>
<path id="Shape2DView_nwe0043"  d="M 0.6585307101739626 -32.37 L 0.5785599896853716 -32.37 L 0.49542416894445396 -32.37 L 0.4107827662680726 -32.37 L 0.3263253536945448 -32.37 L 0.2437378305379268 -32.37 L 0.16466877025549953 -32.37 L 0.09069651239652599 -32.37 L 0.023297656527385968 -32.37 L -0.03618241295740082 -32.37 L -0.08655638276834493 -32.37 L -0.1268187113127935 -32.37 L -0.15616570084525466 -32.37 L -0.17401154050538142 -32.37 L -0.18 -32.37 " stroke="#191919" stroke-width="0.35 px" style="stroke-width:0.35;stroke-miterlimit:4;stroke-dasharray:none;fill:none;fill-opacity:1;fill-rule: evenodd"/>
<path id="Shape2DView_nwe0044"  d="M 0.658530710173812 -32.37 L 0.756316158370637 -32.37 L 0.8591960990834945 -32.37 L 0.9663824923463515 -32.37 L 1.0770543116197226 -32.37 L 1.1903638326913206 -32.37 L 1.305443127075595 -32.37 L 1.4214107101740008 -32.37 L 1.5373782932724067 -32.37 L 1.652457587656681 -32.37 L 1.765767108728279 -32.37 L 1.87643892800165 -32.37 L 1.983625321264507 -32.37 L 2.0865052619773645 -32.37 L 2.1842907101741873 -32.37 " stroke="#191919" stroke-width="0.35 px" style="stroke-width:0.35;stroke-miterlimit:4;stroke-dasharray:none;fill:none;fill-opacity:1;fill-rule: evenodd"/>
<path id="Shape2DView_nwe0045"  d="M 0.6585307101739626 -5.73 L 0.5785599896853716 -5.73 L 0.49542416894445396 -5.73 L 0.4107827662680726 -5.73 L 0.3263253536945448 -5.73 L 0.2437378305379268 -5.73 L 0.16466877025549953 -5.73 L 0.09069651239652599 -5.73 L 0.023297656527385968 -5.73 L -0.03618241295740082 -5.73 L -0.08655638276834493 -5.73 L -0.1268187113127935 -5.73 L -0.15616570084525466 -5.73 L -0.17401154050538142 -5.73 L -0.18 -5.73 " stroke="#191919" stroke-width="0.35 px" style="stroke-width:0.35;stroke-miterlimit:4;stroke-dasharray:none;fill:none;fill-opacity:1;fill-rule: evenodd"/>
<path id="Shape2DView_nwe0046"  d="M 0.658530710173812 -5.73 L 0.756316158370637 -5.73 L 0.8591960990834945 -5.73 L 0.9663824923463515 -5.73 L 1.0770543116197226 -5.73 L 1.1903638326913206 -5.73 L 1.305443127075595 -5.73 L 1.4214107101740008 -5.73 L 1.5373782932724067 -5.73 L 1.652457587656681 -5.73 L 1.765767108728279 -5.73 L 1.87643892800165 -5.73 L 1.983625321264507 -5.73 L 2.0865052619773645 -5.73 L 2.1842907101741873 -5.73 " stroke="#191919" stroke-width="0.35 px" style="stroke-width:0.35;stroke-miterlimit:4;stroke-dasharray:none;fill:none;fill-opacity:1;fill-rule: evenodd"/>
<path id="Shape2DView_nwe0047"  d="M 0.6585307101739626 -4.43 L 0.5785599896853716 -4.43 L 0.49542416894445396 -4.43 L 0.4107827662680726 -4.43 L 0.3263253536945448 -4.43 L 0.2437378305379268 -4.43 L 0.16466877025549953 -4.43 L 0.09069651239652599 -4.43 L 0.023297656527385968 -4.43 L -0.03618241295740082 -4.43 L -0.08655638276834493 -4.43 L -0.1268187113127935 -4.43 L -0.15616570084525466 -4.43 L -0.17401154050538142 -4.43 L -0.18 -4.43 " stroke="#191919" stroke-width="0.35 px" style="stroke-width:0.35;stroke-miterlimit:4;stroke-dasharray:none;fill:none;fill-opacity:1;fill-rule: evenodd"/>
<path id="Shape2DView_nwe0048"  d="M 0.658530710173812 -4.43 L 0.756316158370637 -4.43 L 0.8591960990834945 -4.43 L 0.9663824923463515 -4.43 L 1.0770543116197226 -4.43 L 1.1903638326913206 -4.43 L 1.305443127075595 -4.43 L 1.4214107101740008 -4.43 L 1.5373782932724067 -4.43 L 1.652457587656681 -4.43 L 1.765767108728279 -4.43 L 1.87643892800165 -4.43 L 1.983625321264507 -4.43 L 2.0865052619773645 -4.43 L 2.1842907101741873 -4.43 " stroke="#191919" stroke-width="0.35 px" style="stroke-width:0.35;stroke-miterlimit:4;stroke-dasharray:none;fill:none;fill-opacity:1;fill-rule: evenodd"/>
<path id="Shape2DView_nwe0049"  d="M 0.6585307101739626 -3.19 L 0.5785599896853716 -3.19 L 0.49542416894445396 -3.19 L 0.4107827662680726 -3.19 L 0.3263253536945448 -3.19 L 0.2437378305379268 -3.19 L 0.16466877025549953 -3.19 L 0.09069651239652599 -3.19 L 0.023297656527385968 -3.19 L -0.03618241295740082 -3.19 L -0.08655638276834493 -3.19 L -0.1268187113127935 -3.19 L -0.15616570084525466 -3.19 L -0.17401154050538142 -3.19 L -0.18 -3.19 " stroke="#191919" stroke-width="0.35 px" style="stroke-width:0.35;stroke-miterlimit:4;stroke-dasharray:none;fill:none;fill-opacity:1;fill-rule: evenodd"/>
<path id="Shape2DView_nwe0050"  d="M 0.658530710173812 -3.1900000000000004 L 0.756316158370637 -3.1900000000000004 L 0.8591960990834945 -3.1900000000000004 L 0.9663824923463515 -3.1900000000000004 L 1.0770543116197226 -3.1900000000000004 L 1.1903638326913206 -3.1900000000000004 L 1.305443127075595 -3.1900000000000004 L 1.4214107101740008 -3.1900000000000004 L 1.5373782932724067 -3.1900000000000004 L 1.652457587656681 -3.1900000000000004 L 1.765767108728279 -3.1900000000000004 L 1.87643892800165 -3.1900000000000004 L 1.983625321264507 -3.1900000000000004 L 2.0865052619773645 -3.1900000000000004 L 2.1842907101741873 -3.1900000000000004 " stroke="#191919" stroke-width="0.35 px" style="stroke-width:0.35;stroke-miterlimit:4;stroke-dasharray:none;fill:none;fill-opacity:1;fill-rule: evenodd"/>
<path id="Shape2DView_nwe0051"  d="M 0.6585307101739626 -1.8899999999999997 L 0.5785599896853716 -1.8899999999999997 L 0.49542416894445396 -1.8899999999999997 L 0.4107827662680726 -1.8899999999999997 L 0.3263253536945448 -1.8899999999999997 L 0.2437378305379268 -1.8899999999999997 L 0.16466877025549953 -1.8899999999999997 L 0.09069651239652599 -1.8899999999999997 L 0.023297656527385968 -1.89 L -0.03618241295740082 -1.89 L -0.08655638276834493 -1.89 L -0.1268187113127935 -1.89 L -0.15616570084525466 -1.89 L -0.17401154050538142 -1.89 L -0.18 -1.89 " stroke="#191919" stroke-width="0.35 px" style="stroke-width:0.35;stroke-miterlimit:4;stroke-dasharray:none;fill:none;fill-opacity:1;fill-rule: evenodd"/>
<path id="Shape2DView_nwe0052"  d="M 0.658530710173812 -1.8900000000000001 L 0.756316158370637 -1.8900000000000001 L 0.8591960990834945 -1.8900000000000001 L 0.9663824923463515 -1.8900000000000001 L 1.0770543116197226 -1.8900000000000001 L 1.1903638326913206 -1.8900000000000001 L 1.305443127075595 -1.8900000000000001 L 1.4214107101740008 -1.8900000000000001 L 1.5373782932724067 -1.8900000000000001 L 1.652457587656681 -1.8900000000000001 L 1.765767108728279 -1.8900000000000001 L 1.87643892800165 -1.8900000000000001 L 1.983625321264507 -1.8900000000000001 L 2.0865052619773645 -1.8900000000000001 L 2.1842907101741873 -1.8900000000000001 " stroke="#191919" stroke-width="0.35 px" style="stroke-width:0.35;stroke-miterlimit:4;stroke-dasharray:none;fill:none;fill-opacity:1;fill-rule: evenodd"/>
<path id="Shape2DView_nwe0053"  d="M 0.6585307101739626 -0.6500000000000001 L 0.5785599896853716 -0.6500000000000001 L 0.49542416894445396 -0.6500000000000001 L 0.4107827662680726 -0.6500000000000001 L 0.3263253536945448 -0.6500000000000001 L 0.2437378305379268 -0.6500000000000001 L 0.16466877025549953 -0.6500000000000001 L 0.09069651239652599 -0.6500000000000001 L 0.023297656527385968 -0.6500000000000001 L -0.03618241295740082 -0.6500000000000001 L -0.08655638276834493 -0.6500000000000001 L -0.1268187113127935 -0.65 L -0.15616570084525466 -0.65 L -0.17401154050538142 -0.65 L -0.18 -0.65 " stroke="#191919" stroke-width="0.35 px" style="stroke-width:0.35;stroke-miterlimit:4;stroke-dasharray:none;fill:none;fill-opacity:1;fill-rule: evenodd"/>
<path id="Shape2DView_nwe0054"  d="M 0.658530710173812 -0.6499999999999998 L 0.756316158370637 -0.6499999999999998 L 0.8591960990834945 -0.6499999999999998 L 0.9663824923463515 -0.6499999999999998 L 1.0770543116197226 -0.6499999999999997 L 1.1903638326913206 -0.6499999999999997 L 1.305443127075595 -0.6499999999999997 L 1.4214107101740008 -0.6499999999999997 L 1.5373782932724067 -0.6499999999999997 L 1.652457587656681 -0.6499999999999997 L 1.765767108728279 -0.6499999999999997 L 1.87643892800165 -0.6499999999999998 L 1.983625321264507 -0.6499999999999998 L 2.0865052619773645 -0.6499999999999998 L 2.1842907101741873 -0.6499999999999998 " stroke="#191919" stroke-width="0.35 px" style="stroke-width:0.35;stroke-miterlimit:4;stroke-dasharray:none;fill:none;fill-opacity:1;fill-rule: evenodd"/>
<path id="Shape2DView_nwe0055"  d="M 0.6585307101739626 0.6499999999999999 L 0.5785599896853716 0.6499999999999999 L 0.49542416894445396 0.6499999999999999 L 0.4107827662680726 0.6499999999999999 L 0.3263253536945448 0.6499999999999999 L 0.2437378305379268 0.6499999999999999 L 0.16466877025549953 0.6499999999999999 L 0.09069651239652599 0.6499999999999999 L 0.023297656527385968 0.6499999999999999 L -0.03618241295740082 0.6499999999999999 L -0.08655638276834493 0.6499999999999999 L -0.1268187113127935 0.65 L -0.15616570084525466 0.65 L -0.17401154050538142 0.65 L -0.18 0.65 " stroke="#191919" stroke-width="0.35 px" style="stroke-width:0.35;stroke-miterlimit:4;stroke-dasharray:none;fill:none;fill-opacity:1;fill-rule: evenodd"/>
<path id="Shape2DView_nwe0056"  d="M 0.658530710173812 0.6500000000000002 L 0.756316158370637 0.6500000000000002 L 0.8591960990834945 0.6500000000000002 L 0.9663824923463515 0.6500000000000002 L 1.0770543116197226 0.6500000000000004 L 1.1903638326913206 0.6500000000000004 L 1.305443127075595 0.6500000000000004 L 1.4214107101740008 0.6500000000000004 L 1.5373782932724067 0.6500000000000004 L 1.652457587656681 0.6500000000000004 L 1.765767108728279 0.6500000000000004 L 1.87643892800165 0.6500000000000002 L 1.983625321264507 0.6500000000000002 L 2.0865052619773645 0.6500000000000002 L 2.1842907101741873 0.6500000000000002 " stroke="#191919" stroke-width="0.35 px" style="stroke-width:0.35;stroke-miterlimit:4;stroke-dasharray:none;fill:none;fill-opacity:1;fill-rule: evenodd"/>
<path id="Shape2DView_nwe0057"  d="M 60.30146928982604 0.9000000000000001 L 60.38144001031463 0.9000000000000001 L 60.46457583105555 0.9000000000000001 L 60.54921723373193 0.9000000000000001 L 60.63367464630546 0.9000000000000001 L 60.71626216946208 0.9000000000000001 L 60.7953312297445 0.9000000000000001 L 60.869303487603474 0.9000000000000001 L 60.93670234347261 0.9000000000000001 L 60.9961824129574 0.9 L 61.046556382768344 0.9 L 61.086818711312795 0.9 L 61.11616570084525 0.9 L 61.134011540505384 0.9 L 61.14 0.9 " stroke="#191919" stroke-width="0.35 px" style="stroke-width:0.35;stroke-miterlimit:4;stroke-dasharray:none;fill:none;fill-opacity:1;fill-rule: evenodd"/>
<path id="Shape2DView_nwe0058"  d="M 60.30146928982619 0.8999999999999997 L 60.20368384162936 0.8999999999999997 L 60.10080390091651 0.8999999999999997 L 59.99361750765365 0.8999999999999997 L 59.88294568838028 0.8999999999999997 L 59.76963616730868 0.8999999999999997 L 59.65455687292441 0.8999999999999997 L 59.538589289826 0.8999999999999997 L 59.4226217067276 0.8999999999999997 L 59.307542412343324 0.8999999999999998 L 59.194232891271724 0.8999999999999998 L 59.08356107199835 0.8999999999999998 L 58.976374678735496 0.8999999999999998 L 58.873494738022636 0.8999999999999998 L 58.77570928982581 0.8999999999999998 " stroke="#191919" stroke-width="0.35 px" style="stroke-width:0.35;stroke-miterlimit:4;stroke-dasharray:none;fill:none;fill-opacity:1;fill-rule: evenodd"/>
<path id="Shape2DView_nwe0059"  d="M 60.30146928982604 -0.39999999999999986 L 60.38144001031463 -0.39999999999999986 L 60.46457583105555 -0.3999999999999999 L 60.54921723373193 -0.3999999999999999 L 60.63367464630546 -0.3999999999999999 L 60.71626216946208 -0.3999999999999999 L 60.7953312297445 -0.3999999999999999 L 60.869303487603474 -0.39999999999999997 L 60.93670234347261 -0.39999999999999997 L 60.9961824129574 -0.39999999999999997 L 61.046556382768344 -0.4 L 61.086818711312795 -0.4 L 61.11616570084525 -0.4 L 61.134011540505384 -0.4000000000000001 L 61.14 -0.4000000000000001 " stroke="#191919" stroke-width="0.35 px" style="stroke-width:0.35;stroke-miterlimit:4;stroke-dasharray:none;fill:none;fill-opacity:1;fill-rule: evenodd"/>
<path id="Shape2DView_nwe0060"  d="M 60.30146928982619 -0.40000000000000036 L 60.20368384162936 -0.40000000000000036 L 60.10080390091651 -0.40000000000000036 L 59.99361750765365 -0.40000000000000036 L 59.88294568838028 -0.40000000000000036 L 59.76963616730868 -0.40000000000000036 L 59.65455687292441 -0.4000000000000003 L 59.538589289826 -0.4000000000000003 L 59.4226217067276 -0.4000000000000003 L 59.307542412343324 -0.4000000000000003 L 59.194232891271724 -0.4000000000000003 L 59.08356107199835 -0.40000000000000024 L 58.976374678735496 -0.40000000000000024 L 58.873494738022636 -0.40000000000000024 L 58.77570928982581 -0.4000000000000002 " stroke="#191919" stroke-width="0.35 px" style="stroke-width:0.35;stroke-miterlimit:4;stroke-dasharray:none;fill:none;fill-opacity:1;fill-rule: evenodd"/>
<path id="Shape2DView_nwe0061"  d="M 60.30146928982604 -1.8399999999999999 L 60.38144001031463 -1.8399999999999999 L 60.46457583105555 -1.8399999999999999 L 60.54921723373193 -1.8399999999999999 L 60.63367464630546 -1.8399999999999999 L 60.71626216946208 -1.8399999999999999 L 60.7953312297445 -1.84 L 60.869303487603474 -1.84 L 60.93670234347261 -1.84 L 60.9961824129574 -1.84 L 61.046556382768344 -1.84 L 61.086818711312795 -1.84 L 61.11616570084525 -1.84 L 61.134011540505384 -1.84 L 61.14 -1.84 " stroke="#191919" stroke-width="0.35 px" style="stroke-width:0.35;stroke-miterlimit:4;stroke-dasharray:none;fill:none;fill-opacity:1;fill-rule: evenodd"/>
<path id="Shape2DView_nwe0062"  d="M 60.30146928982619 -1.8400000000000003 L 60.20368384162936 -1.8400000000000003 L 60.10080390091651 -1.8400000000000003 L 59.99361750765365 -1.8400000000000003 L 59.88294568838028 -1.8400000000000003 L 59.76963616730868 -1.8400000000000003 L 59.65455687292441 -1.8400000000000003 L 59.538589289826 -1.8400000000000003 L 59.4226217067276 -1.8400000000000003 L 59.307542412343324 -1.8400000000000003 L 59.194232891271724 -1.8400000000000003 L 59.08356107199835 -1.8400000000000003 L 58.976374678735496 -1.8400000000000003 L 58.873494738022636 -1.8400000000000003 L 58.77570928982581 -1.8400000000000003 " stroke="#191919" stroke-width="0.35 px" style="stroke-width:0.35;stroke-miterlimit:4;stroke-dasharray:none;fill:none;fill-opacity:1;fill-rule: evenodd"/>
<path id="Shape2DView_nwe0063"  d="M 60.30146928982604 -3.14 L 60.38144001031463 -3.14 L 60.46457583105555 -3.14 L 60.54921723373193 -3.14 L 60.63367464630546 -3.14 L 60.71626216946208 -3.14 L 60.7953312297445 -3.14 L 60.869303487603474 -3.14 L 60.93670234347261 -3.14 L 60.9961824129574 -3.14 L 61.046556382768344 -3.14 L 61.086818711312795 -3.14 L 61.11616570084525 -3.14 L 61.134011540505384 -3.14 L 61.14 -3.14 " stroke="#191919" stroke-width="0.35 px" style="stroke-width:0.35;stroke-miterlimit:4;stroke-dasharray:none;fill:none;fill-opacity:1;fill-rule: evenodd"/>
<path id="Shape2DView_nwe0064"  d="M 60.30146928982619 -3.1400000000000006 L 60.20368384162936 -3.1400000000000006 L 60.10080390091651 -3.1400000000000006 L 59.99361750765365 -3.1400000000000006 L 59.88294568838028 -3.1400000000000006 L 59.76963616730868 -3.1400000000000006 L 59.65455687292441 -3.1400000000000006 L 59.538589289826 -3.1400000000000006 L 59.4226217067276 -3.1400000000000006 L 59.307542412343324 -3.1400000000000006 L 59.194232891271724 -3.1400000000000006 L 59.08356107199835 -3.1400000000000006 L 58.976374678735496 -3.14 L 58.873494738022636 -3.14 L 58.77570928982581 -3.14 " stroke="#191919" stroke-width="0.35 px" style="stroke-width:0.35;stroke-miterlimit:4;stroke-dasharray:none;fill:none;fill-opacity:1;fill-rule: evenodd"/>
<path id="Shape2DView_nwe0065"  d="M 60.30146928982604 -6.92 L 60.38144001031463 -6.92 L 60.46457583105555 -6.92 L 60.54921723373193 -6.92 L 60.63367464630546 -6.92 L 60.71626216946208 -6.92 L 60.7953312297445 -6.92 L 60.869303487603474 -6.92 L 60.93670234347261 -6.92 L 60.9961824129574 -6.92 L 61.046556382768344 -6.92 L 61.086818711312795 -6.92 L 61.11616570084525 -6.92 L 61.134011540505384 -6.92 L 61.14 -6.92 " stroke="#191919" stroke-width="0.35 px" style="stroke-width:0.35;stroke-miterlimit:4;stroke-dasharray:none;fill:none;fill-opacity:1;fill-rule: evenodd"/>
<path id="Shape2DView_nwe0066"  d="M 60.30146928982619 -6.92 L 60.20368384162936 -6.92 L 60.10080390091651 -6.92 L 59.99361750765365 -6.92 L 59.88294568838028 -6.92 L 59.76963616730868 -6.92 L 59.65455687292441 -6.92 L 59.538589289826 -6.92 L 59.4226217067276 -6.92 L 59.307542412343324 -6.92 L 59.194232891271724 -6.92 L 59.08356107199835 -6.92 L 58.976374678735496 -6.92 L 58.873494738022636 -6.92 L 58.77570928982581 -6.92 " stroke="#191919" stroke-width="0.35 px" style="stroke-width:0.35;stroke-miterlimit:4;stroke-dasharray:none;fill:none;fill-opacity:1;fill-rule: evenodd"/>
<path id="Shape2DView_nwe0067"  d="M 60.30146928982604 -8.22 L 60.38144001031463 -8.22 L 60.46457583105555 -8.22 L 60.54921723373193 -8.22 L 60.63367464630546 -8.22 L 60.71626216946208 -8.22 L 60.7953312297445 -8.22 L 60.869303487603474 -8.22 L 60.93670234347261 -8.22 L 60.9961824129574 -8.22 L 61.046556382768344 -8.22 L 61.086818711312795 -8.22 L 61.11616570084525 -8.22 L 61.134011540505384 -8.22 L 61.14 -8.22 " stroke="#191919" stroke-width="0.35 px" style="stroke-width:0.35;stroke-miterlimit:4;stroke-dasharray:none;fill:none;fill-opacity:1;fill-rule: evenodd"/>
<path id="Shape2DView_nwe0068"  d="M 60.30146928982619 -8.22 L 60.20368384162936 -8.22 L 60.10080390091651 -8.22 L 59.99361750765365 -8.22 L 59.88294568838028 -8.22 L 59.76963616730868 -8.22 L 59.65455687292441 -8.22 L 59.538589289826 -8.22 L 59.4226217067276 -8.22 L 59.307542412343324 -8.22 L 59.194232891271724 -8.22 L 59.08356107199835 -8.22 L 58.976374678735496 -8.22 L 58.873494738022636 -8.22 L 58.77570928982581 -8.22 " stroke="#191919" stroke-width="0.35 px" style="stroke-width:0.35;stroke-miterlimit:4;stroke-dasharray:none;fill:none;fill-opacity:1;fill-rule: evenodd"/>
<path id="Shape2DView_nwe0069"  d="M 60.30146928982604 -4.38 L 60.38144001031463 -4.38 L 60.46457583105555 -4.38 L 60.54921723373193 -4.38 L 60.63367464630546 -4.38 L 60.71626216946208 -4.38 L 60.7953312297445 -4.38 L 60.869303487603474 -4.38 L 60.93670234347261 -4.38 L 60.9961824129574 -4.38 L 61.046556382768344 -4.38 L 61.086818711312795 -4.38 L 61.11616570084525 -4.38 L 61.134011540505384 -4.38 L 61.14 -4.38 " stroke="#191919" stroke-width="0.35 px" style="stroke-width:0.35;stroke-miterlimit:4;stroke-dasharray:none;fill:none;fill-opacity:1;fill-rule: evenodd"/>
<path id="Shape2DView_nwe0070"  d="M 60.30146928982619 -4.38 L 60.20368384162936 -4.38 L 60.10080390091651 -4.38 L 59.99361750765365 -4.38 L 59.88294568838028 -4.38 L 59.76963616730868 -4.38 L 59.65455687292441 -4.38 L 59.538589289826 -4.38 L 59.4226217067276 -4.38 L 59.307542412343324 -4.38 L 59.194232891271724 -4.38 L 59.08356107199835 -4.38 L 58.976374678735496 -4.38 L 58.873494738022636 -4.38 L 58.77570928982581 -4.38 " stroke="#191919" stroke-width="0.35 px" style="stroke-width:0.35;stroke-miterlimit:4;stroke-dasharray:none;fill:none;fill-opacity:1;fill-rule: evenodd"/>
<path id="Shape2DView_nwe0071"  d="M 60.30146928982604 -5.68 L 60.38144001031463 -5.68 L 60.46457583105555 -5.68 L 60.54921723373193 -5.68 L 60.63367464630546 -5.68 L 60.71626216946208 -5.68 L 60.7953312297445 -5.68 L 60.869303487603474 -5.68 L 60.93670234347261 -5.68 L 60.9961824129574 -5.68 L 61.046556382768344 -5.68 L 61.086818711312795 -5.68 L 61.11616570084525 -5.68 L 61.134011540505384 -5.68 L 61.14 -5.68 " stroke="#191919" stroke-width="0.35 px" style="stroke-width:0.35;stroke-miterlimit:4;stroke-dasharray:none;fill:none;fill-opacity:1;fill-rule: evenodd"/>
<path id="Shape2DView_nwe0072"  d="M 60.30146928982619 -5.68 L 60.20368384162936 -5.68 L 60.10080390091651 -5.68 L 59.99361750765365 -5.68 L 59.88294568838028 -5.68 L 59.76963616730868 -5.68 L 59.65455687292441 -5.68 L 59.538589289826 -5.68 L 59.4226217067276 -5.68 L 59.307542412343324 -5.68 L 59.194232891271724 -5.68 L 59.08356107199835 -5.68 L 58.976374678735496 -5.68 L 58.873494738022636 -5.68 L 58.77570928982581 -5.68 " stroke="#191919" stroke-width="0.35 px" style="stroke-width:0.35;stroke-miterlimit:4;stroke-dasharray:none;fill:none;fill-opacity:1;fill-rule: evenodd"/>
<path id="Shape2DView_nwe0073"  d="M 60.30146928982604 -17.08 L 60.38144001031463 -17.08 L 60.46457583105555 -17.08 L 60.54921723373193 -17.08 L 60.63367464630546 -17.08 L 60.71626216946208 -17.08 L 60.7953312297445 -17.08 L 60.869303487603474 -17.08 L 60.93670234347261 -17.08 L 60.9961824129574 -17.08 L 61.046556382768344 -17.08 L 61.086818711312795 -17.08 L 61.11616570084525 -17.08 L 61.134011540505384 -17.08 L 61.14 -17.08 " stroke="#191919" stroke-width="0.35 px" style="stroke-width:0.35;stroke-miterlimit:4;stroke-dasharray:none;fill:none;fill-opacity:1;fill-rule: evenodd"/>
<path id="Shape2DView_nwe0074"  d="M 60.30146928982619 -17.08 L 60.20368384162936 -17.08 L 60.10080390091651 -17.08 L 59.99361750765365 -17.08 L 59.88294568838028 -17.08 L 59.76963616730868 -17.08 L 59.65455687292441 -17.08 L 59.538589289826 -17.08 L 59.4226217067276 -17.08 L 59.307542412343324 -17.08 L 59.194232891271724 -17.08 L 59.08356107199835 -17.08 L 58.976374678735496 -17.08 L 58.873494738022636 -17.08 L 58.77570928982581 -17.08 " stroke="#191919" stroke-width="0.35 px" style="stroke-width:0.35;stroke-miterlimit:4;stroke-dasharray:none;fill:none;fill-opacity:1;fill-rule: evenodd"/>
<path id="Shape2DView_nwe0075"  d="M 60.30146928982604 -18.38 L 60.38144001031463 -18.38 L 60.46457583105555 -18.38 L 60.54921723373193 -18.38 L 60.63367464630546 -18.38 L 60.71626216946208 -18.38 L 60.7953312297445 -18.38 L 60.869303487603474 -18.38 L 60.93670234347261 -18.38 L 60.9961824129574 -18.38 L 61.046556382768344 -18.38 L 61.086818711312795 -18.38 L 61.11616570084525 -18.38 L 61.134011540505384 -18.38 L 61.14 -18.38 " stroke="#191919" stroke-width="0.35 px" style="stroke-width:0.35;stroke-miterlimit:4;stroke-dasharray:none;fill:none;fill-opacity:1;fill-rule: evenodd"/>
<path id="Shape2DView_nwe0076"  d="M 60.30146928982619 -18.38 L 60.20368384162936 -18.38 L 60.10080390091651 -18.38 L 59.99361750765365 -18.38 L 59.88294568838028 -18.38 L 59.76963616730868 -18.38 L 59.65455687292441 -18.38 L 59.538589289826 -18.38 L 59.4226217067276 -18.38 L 59.307542412343324 -18.38 L 59.194232891271724 -18.38 L 59.08356107199835 -18.38 L 58.976374678735496 -18.38 L 58.873494738022636 -18.38 L 58.77570928982581 -18.38 " stroke="#191919" stroke-width="0.35 px" style="stroke-width:0.35;stroke-miterlimit:4;stroke-dasharray:none;fill:none;fill-opacity:1;fill-rule: evenodd"/>
<path id="Shape2DView_nwe0077"  d="M 60.30146928982604 -14.54 L 60.38144001031463 -14.54 L 60.46457583105555 -14.54 L 60.54921723373193 -14.54 L 60.63367464630546 -14.54 L 60.71626216946208 -14.54 L 60.7953312297445 -14.54 L 60.869303487603474 -14.54 L 60.93670234347261 -14.54 L 60.9961824129574 -14.54 L 61.046556382768344 -14.54 L 61.086818711312795 -14.54 L 61.11616570084525 -14.54 L 61.134011540505384 -14.54 L 61.14 -14.54 " stroke="#191919" stroke-width="0.35 px" style="stroke-width:0.35;stroke-miterlimit:4;stroke-dasharray:none;fill:none;fill-opacity:1;fill-rule: evenodd"/>
<path id="Shape2DView_nwe0078"  d="M 60.30146928982619 -14.54 L 60.20368384162936 -14.54 L 60.10080390091651 -14.54 L 59.99361750765365 -14.54 L 59.88294568838028 -14.54 L 59.76963616730868 -14.54 L 59.65455687292441 -14.54 L 59.538589289826 -14.54 L 59.4226217067276 -14.54 L 59.307542412343324 -14.54 L 59.194232891271724 -14.54 L 59.08356107199835 -14.54 L 58.976374678735496 -14.54 L 58.873494738022636 -14.54 L 58.77570928982581 -14.54 " stroke="#191919" stroke-width="0.35 px" style="stroke-width:0.35;stroke-miterlimit:4;stroke-dasharray:none;fill:none;fill-opacity:1;fill-rule: evenodd"/>
<path id="Shape2DView_nwe0079"  d="M 60.30146928982604 -15.84 L 60.38144001031463 -15.84 L 60.46457583105555 -15.84 L 60.54921723373193 -15.84 L 60.63367464630546 -15.84 L 60.71626216946208 -15.84 L 60.7953312297445 -15.84 L 60.869303487603474 -15.84 L 60.93670234347261 -15.84 L 60.9961824129574 -15.84 L 61.046556382768344 -15.84 L 61.086818711312795 -15.84 L 61.11616570084525 -15.84 L 61.134011540505384 -15.84 L 61.14 -15.84 " stroke="#191919" stroke-width="0.35 px" style="stroke-width:0.35;stroke-miterlimit:4;stroke-dasharray:none;fill:none;fill-opacity:1;fill-rule: evenodd"/>
<path id="Shape2DView_nwe0080"  d="M 60.30146928982619 -15.84 L 60.20368384162936 -15.84 L 60.10080390091651 -15.84 L 59.99361750765365 -15.84 L 59.88294568838028 -15.84 L 59.76963616730868 -15.84 L 59.65455687292441 -15.84 L 59.538589289826 -15.84 L 59.4226217067276 -15.84 L 59.307542412343324 -15.84 L 59.194232891271724 -15.84 L 59.08356107199835 -15.84 L 58.976374678735496 -15.84 L 58.873494738022636 -15.84 L 58.77570928982581 -15.84 " stroke="#191919" stroke-width="0.35 px" style="stroke-width:0.35;stroke-miterlimit:4;stroke-dasharray:none;fill:none;fill-opacity:1;fill-rule: evenodd"/>
<path id="Shape2DView_nwe0081"  d="M 60.30146928982604 -9.46 L 60.38144001031463 -9.46 L 60.46457583105555 -9.46 L 60.54921723373193 -9.46 L 60.63367464630546 -9.46 L 60.71626216946208 -9.46 L 60.7953312297445 -9.46 L 60.869303487603474 -9.46 L 60.93670234347261 -9.46 L 60.9961824129574 -9.46 L 61.046556382768344 -9.46 L 61.086818711312795 -9.46 L 61.11616570084525 -9.46 L 61.134011540505384 -9.46 L 61.14 -9.46 " stroke="#191919" stroke-width="0.35 px" style="stroke-width:0.35;stroke-miterlimit:4;stroke-dasharray:none;fill:none;fill-opacity:1;fill-rule: evenodd"/>
<path id="Shape2DView_nwe0082"  d="M 60.30146928982619 -9.46 L 60.20368384162936 -9.46 L 60.10080390091651 -9.46 L 59.99361750765365 -9.46 L 59.88294568838028 -9.46 L 59.76963616730868 -9.46 L 59.65455687292441 -9.46 L 59.538589289826 -9.46 L 59.4226217067276 -9.46 L 59.307542412343324 -9.46 L 59.194232891271724 -9.46 L 59.08356107199835 -9.46 L 58.976374678735496 -9.46 L 58.873494738022636 -9.46 L 58.77570928982581 -9.46 " stroke="#191919" stroke-width="0.35 px" style="stroke-width:0.35;stroke-miterlimit:4;stroke-dasharray:none;fill:none;fill-opacity:1;fill-rule: evenodd"/>
<path id="Shape2DView_nwe0083"  d="M 60.30146928982604 -10.76 L 60.38144001031463 -10.76 L 60.46457583105555 -10.76 L 60.54921723373193 -10.76 L 60.63367464630546 -10.76 L 60.71626216946208 -10.76 L 60.7953312297445 -10.76 L 60.869303487603474 -10.76 L 60.93670234347261 -10.76 L 60.9961824129574 -10.76 L 61.046556382768344 -10.76 L 61.086818711312795 -10.76 L 61.11616570084525 -10.76 L 61.134011540505384 -10.76 L 61.14 -10.76 " stroke="#191919" stroke-width="0.35 px" style="stroke-width:0.35;stroke-miterlimit:4;stroke-dasharray:none;fill:none;fill-opacity:1;fill-rule: evenodd"/>
<path id="Shape2DView_nwe0084"  d="M 60.30146928982619 -10.76 L 60.20368384162936 -10.76 L 60.10080390091651 -10.76 L 59.99361750765365 -10.76 L 59.88294568838028 -10.76 L 59.76963616730868 -10.76 L 59.65455687292441 -10.76 L 59.538589289826 -10.76 L 59.4226217067276 -10.76 L 59.307542412343324 -10.76 L 59.194232891271724 -10.76 L 59.08356107199835 -10.76 L 58.976374678735496 -10.76 L 58.873494738022636 -10.76 L 58.77570928982581 -10.76 " stroke="#191919" stroke-width="0.35 px" style="stroke-width:0.35;stroke-miterlimit:4;stroke-dasharray:none;fill:none;fill-opacity:1;fill-rule: evenodd"/>
<path id="Shape2DView_nwe0085"  d="M 60.30146928982604 -12.0 L 60.38144001031463 -12.0 L 60.46457583105555 -12.0 L 60.54921723373193 -12.0 L 60.63367464630546 -12.0 L 60.71626216946208 -12.0 L 60.7953312297445 -12.0 L 60.869303487603474 -12.0 L 60.93670234347261 -12.0 L 60.9961824129574 -12.0 L 61.046556382768344 -12.0 L 61.086818711312795 -12.0 L 61.11616570084525 -12.0 L 61.134011540505384 -12.0 L 61.14 -12.0 " stroke="#191919" stroke-width="0.35 px" style="stroke-width:0.35;stroke-miterlimit:4;stroke-dasharray:none;fill:none;fill-opacity:1;fill-rule: evenodd"/>
<path id="Shape2DView_nwe0086"  d="M 60.30146928982619 -12.0 L 60.20368384162936 -12.0 L 60.10080390091651 -12.0 L 59.99361750765365 -12.0 L 59.88294568838028 -12.0 L 59.76963616730868 -12.0 L 59.65455687292441 -12.0 L 59.538589289826 -12.0 L 59.4226217067276 -12.0 L 59.307542412343324 -12.0 L 59.194232891271724 -12.0 L 59.08356107199835 -12.0 L 58.976374678735496 -12.0 L 58.873494738022636 -12.0 L 58.77570928982581 -12.0 " stroke="#191919" stroke-width="0.35 px" style="stroke-width:0.35;stroke-miterlimit:4;stroke-dasharray:none;fill:none;fill-opacity:1;fill-rule: evenodd"/>
<path id="Shape2DView_nwe0087"  d="M 60.30146928982604 -13.3 L 60.38144001031463 -13.3 L 60.46457583105555 -13.3 L 60.54921723373193 -13.3 L 60.63367464630546 -13.3 L 60.71626216946208 -13.3 L 60.7953312297445 -13.3 L 60.869303487603474 -13.3 L 60.93670234347261 -13.3 L 60.9961824129574 -13.3 L 61.046556382768344 -13.3 L 61.086818711312795 -13.3 L 61.11616570084525 -13.3 L 61.134011540505384 -13.3 L 61.14 -13.3 " stroke="#191919" stroke-width="0.35 px" style="stroke-width:0.35;stroke-miterlimit:4;stroke-dasharray:none;fill:none;fill-opacity:1;fill-rule: evenodd"/>
<path id="Shape2DView_nwe0088"  d="M 60.30146928982619 -13.3 L 60.20368384162936 -13.3 L 60.10080390091651 -13.3 L 59.99361750765365 -13.3 L 59.88294568838028 -13.3 L 59.76963616730868 -13.3 L 59.65455687292441 -13.3 L 59.538589289826 -13.3 L 59.4226217067276 -13.3 L 59.307542412343324 -13.3 L 59.194232891271724 -13.3 L 59.08356107199835 -13.3 L 58.976374678735496 -13.3 L 58.873494738022636 -13.3 L 58.77570928982581 -13.3 " stroke="#191919" stroke-width="0.35 px" style="stroke-width:0.35;stroke-miterlimit:4;stroke-dasharray:none;fill:none;fill-opacity:1;fill-rule: evenodd"/>
<path id="Shape2DView_nwe0089"  d="M 60.30146928982604 -37.4 L 60.38144001031463 -37.4 L 60.46457583105555 -37.4 L 60.54921723373193 -37.4 L 60.63367464630546 -37.4 L 60.71626216946208 -37.4 L 60.7953312297445 -37.4 L 60.869303487603474 -37.4 L 60.93670234347261 -37.4 L 60.9961824129574 -37.4 L 61.046556382768344 -37.4 L 61.086818711312795 -37.4 L 61.11616570084525 -37.4 L 61.134011540505384 -37.4 L 61.14 -37.4 " stroke="#191919" stroke-width="0.35 px" style="stroke-width:0.35;stroke-miterlimit:4;stroke-dasharray:none;fill:none;fill-opacity:1;fill-rule: evenodd"/>
<path id="Shape2DView_nwe0090"  d="M 60.30146928982619 -37.4 L 60.20368384162936 -37.4 L 60.10080390091651 -37.4 L 59.99361750765365 -37.4 L 59.88294568838028 -37.4 L 59.76963616730868 -37.4 L 59.65455687292441 -37.4 L 59.538589289826 -37.4 L 59.4226217067276 -37.4 L 59.307542412343324 -37.4 L 59.194232891271724 -37.4 L 59.08356107199835 -37.4 L 58.976374678735496 -37.4 L 58.873494738022636 -37.4 L 58.77570928982581 -37.4 " stroke="#191919" stroke-width="0.35 px" style="stroke-width:0.35;stroke-miterlimit:4;stroke-dasharray:none;fill:none;fill-opacity:1;fill-rule: evenodd"/>
<path id="Shape2DView_nwe0091"  d="M 60.30146928982604 -38.7 L 60.38144001031463 -38.7 L 60.46457583105555 -38.7 L 60.54921723373193 -38.7 L 60.63367464630546 -38.7 L 60.71626216946208 -38.7 L 60.7953312297445 -38.7 L 60.869303487603474 -38.7 L 60.93670234347261 -38.7 L 60.9961824129574 -38.7 L 61.046556382768344 -38.7 L 61.086818711312795 -38.7 L 61.11616570084525 -38.7 L 61.134011540505384 -38.7 L 61.14 -38.7 " stroke="#191919" stroke-width="0.35 px" style="stroke-width:0.35;stroke-miterlimit:4;stroke-dasharray:none;fill:none;fill-opacity:1;fill-rule: evenodd"/>
<path id="Shape2DView_nwe0092"  d="M 60.30146928982619 -38.7 L 60.20368384162936 -38.7 L 60.10080390091651 -38.7 L 59.99361750765365 -38.7 L 59.88294568838028 -38.7 L 59.76963616730868 -38.7 L 59.65455687292441 -38.7 L 59.538589289826 -38.7 L 59.4226217067276 -38.7 L 59.307542412343324 -38.7 L 59.194232891271724 -38.7 L 59.08356107199835 -38.7 L 58.976374678735496 -38.7 L 58.873494738022636 -38.7 L 58.77570928982581 -38.7 " stroke="#191919" stroke-width="0.35 px" style="stroke-width:0.35;stroke-miterlimit:4;stroke-dasharray:none;fill:none;fill-opacity:1;fill-rule: evenodd"/>
<path id="Shape2DView_nwe0093"  d="M 60.30146928982604 -34.86 L 60.38144001031463 -34.86 L 60.46457583105555 -34.86 L 60.54921723373193 -34.86 L 60.63367464630546 -34.86 L 60.71626216946208 -34.86 L 60.7953312297445 -34.86 L 60.869303487603474 -34.86 L 60.93670234347261 -34.86 L 60.9961824129574 -34.86 L 61.046556382768344 -34.86 L 61.086818711312795 -34.86 L 61.11616570084525 -34.86 L 61.134011540505384 -34.86 L 61.14 -34.86 " stroke="#191919" stroke-width="0.35 px" style="stroke-width:0.35;stroke-miterlimit:4;stroke-dasharray:none;fill:none;fill-opacity:1;fill-rule: evenodd"/>
<path id="Shape2DView_nwe0094"  d="M 60.30146928982619 -34.86 L 60.20368384162936 -34.86 L 60.10080390091651 -34.86 L 59.99361750765365 -34.86 L 59.88294568838028 -34.86 L 59.76963616730868 -34.86 L 59.65455687292441 -34.86 L 59.538589289826 -34.86 L 59.4226217067276 -34.86 L 59.307542412343324 -34.86 L 59.194232891271724 -34.86 L 59.08356107199835 -34.86 L 58.976374678735496 -34.86 L 58.873494738022636 -34.86 L 58.77570928982581 -34.86 " stroke="#191919" stroke-width="0.35 px" style="stroke-width:0.35;stroke-miterlimit:4;stroke-dasharray:none;fill:none;fill-opacity:1;fill-rule: evenodd"/>
<path id="Shape2DView_nwe0095"  d="M 60.30146928982604 -36.16 L 60.38144001031463 -36.16 L 60.46457583105555 -36.16 L 60.54921723373193 -36.16 L 60.63367464630546 -36.16 L 60.71626216946208 -36.16 L 60.7953312297445 -36.16 L 60.869303487603474 -36.16 L 60.93670234347261 -36.16 L 60.9961824129574 -36.16 L 61.046556382768344 -36.16 L 61.086818711312795 -36.16 L 61.11616570084525 -36.16 L 61.134011540505384 -36.16 L 61.14 -36.16 " stroke="#191919" stroke-width="0.35 px" style="stroke-width:0.35;stroke-miterlimit:4;stroke-dasharray:none;fill:none;fill-opacity:1;fill-rule: evenodd"/>
<path id="Shape2DView_nwe0096"  d="M 60.30146928982619 -36.16 L 60.20368384162936 -36.16 L 60.10080390091651 -36.16 L 59.99361750765365 -36.16 L 59.88294568838028 -36.16 L 59.76963616730868 -36.16 L 59.65455687292441 -36.16 L 59.538589289826 -36.16 L 59.4226217067276 -36.16 L 59.307542412343324 -36.16 L 59.194232891271724 -36.16 L 59.08356107199835 -36.16 L 58.976374678735496 -36.16 L 58.873494738022636 -36.16 L 58.77570928982581 -36.16 " stroke="#191919" stroke-width="0.35 px" style="stroke-width:0.35;stroke-miterlimit:4;stroke-dasharray:none;fill:none;fill-opacity:1;fill-rule: evenodd"/>
<path id="Shape2DView_nwe0097"  d="M 60.30146928982604 -32.32 L 60.38144001031463 -32.32 L 60.46457583105555 -32.32 L 60.54921723373193 -32.32 L 60.63367464630546 -32.32 L 60.71626216946208 -32.32 L 60.7953312297445 -32.32 L 60.869303487603474 -32.32 L 60.93670234347261 -32.32 L 60.9961824129574 -32.32 L 61.046556382768344 -32.32 L 61.086818711312795 -32.32 L 61.11616570084525 -32.32 L 61.134011540505384 -32.32 L 61.14 -32.32 " stroke="#191919" stroke-width="0.35 px" style="stroke-width:0.35;stroke-miterlimit:4;stroke-dasharray:none;fill:none;fill-opacity:1;fill-rule: evenodd"/>
<path id="Shape2DView_nwe0098"  d="M 60.30146928982619 -32.32 L 60.20368384162936 -32.32 L 60.10080390091651 -32.32 L 59.99361750765365 -32.32 L 59.88294568838028 -32.32 L 59.76963616730868 -32.32 L 59.65455687292441 -32.32 L 59.538589289826 -32.32 L 59.4226217067276 -32.32 L 59.307542412343324 -32.32 L 59.194232891271724 -32.32 L 59.08356107199835 -32.32 L 58.976374678735496 -32.32 L 58.873494738022636 -32.32 L 58.77570928982581 -32.32 " stroke="#191919" stroke-width="0.35 px" style="stroke-width:0.35;stroke-miterlimit:4;stroke-dasharray:none;fill:none;fill-opacity:1;fill-rule: evenodd"/>
<path id="Shape2DView_nwe0099"  d="M 60.30146928982604 -33.62 L 60.38144001031463 -33.62 L 60.46457583105555 -33.62 L 60.54921723373193 -33.62 L 60.63367464630546 -33.62 L 60.71626216946208 -33.62 L 60.7953312297445 -33.62 L 60.869303487603474 -33.62 L 60.93670234347261 -33.62 L 60.9961824129574 -33.62 L 61.046556382768344 -33.62 L 61.086818711312795 -33.62 L 61.11616570084525 -33.62 L 61.134011540505384 -33.62 L 61.14 -33.62 " stroke="#191919" stroke-width="0.35 px" style="stroke-width:0.35;stroke-miterlimit:4;stroke-dasharray:none;fill:none;fill-opacity:1;fill-rule: evenodd"/>
<path id="Shape2DView_nwe0100"  d="M 60.30146928982619 -33.62 L 60.20368384162936 -33.62 L 60.10080390091651 -33.62 L 59.99361750765365 -33.62 L 59.88294568838028 -33.62 L 59.76963616730868 -33.62 L 59.65455687292441 -33.62 L 59.538589289826 -33.62 L 59.4226217067276 -33.62 L 59.307542412343324 -33.62 L 59.194232891271724 -33.62 L 59.08356107199835 -33.62 L 58.976374678735496 -33.62 L 58.873494738022636 -33.62 L 58.77570928982581 -33.62 " stroke="#191919" stroke-width="0.35 px" style="stroke-width:0.35;stroke-miterlimit:4;stroke-dasharray:none;fill:none;fill-opacity:1;fill-rule: evenodd"/>
<path id="Shape2DView_nwe0101"  d="M 60.30146928982604 -27.24 L 60.38144001031463 -27.24 L 60.46457583105555 -27.24 L 60.54921723373193 -27.24 L 60.63367464630546 -27.24 L 60.71626216946208 -27.24 L 60.7953312297445 -27.24 L 60.869303487603474 -27.24 L 60.93670234347261 -27.24 L 60.9961824129574 -27.24 L 61.046556382768344 -27.24 L 61.086818711312795 -27.24 L 61.11616570084525 -27.24 L 61.134011540505384 -27.24 L 61.14 -27.24 " stroke="#191919" stroke-width="0.35 px" style="stroke-width:0.35;stroke-miterlimit:4;stroke-dasharray:none;fill:none;fill-opacity:1;fill-rule: evenodd"/>
<path id="Shape2DView_nwe0102"  d="M 60.30146928982619 -27.24 L 60.20368384162936 -27.24 L 60.10080390091651 -27.24 L 59.99361750765365 -27.24 L 59.88294568838028 -27.24 L 59.76963616730868 -27.24 L 59.65455687292441 -27.24 L 59.538589289826 -27.24 L 59.4226217067276 -27.24 L 59.307542412343324 -27.24 L 59.194232891271724 -27.24 L 59.08356107199835 -27.24 L 58.976374678735496 -27.24 L 58.873494738022636 -27.24 L 58.77570928982581 -27.24 " stroke="#191919" stroke-width="0.35 px" style="stroke-width:0.35;stroke-miterlimit:4;stroke-dasharray:none;fill:none;fill-opacity:1;fill-rule: evenodd"/>
<path id="Shape2DView_nwe0103"  d="M 60.30146928982604 -28.54 L 60.38144001031463 -28.54 L 60.46457583105555 -28.54 L 60.54921723373193 -28.54 L 60.63367464630546 -28.54 L 60.71626216946208 -28.54 L 60.7953312297445 -28.54 L 60.869303487603474 -28.54 L 60.93670234347261 -28.54 L 60.9961824129574 -28.54 L 61.046556382768344 -28.54 L 61.086818711312795 -28.54 L 61.11616570084525 -28.54 L 61.134011540505384 -28.54 L 61.14 -28.54 " stroke="#191919" stroke-width="0.35 px" style="stroke-width:0.35;stroke-miterlimit:4;stroke-dasharray:none;fill:none;fill-opacity:1;fill-rule: evenodd"/>
<path id="Shape2DView_nwe0104"  d="M 60.30146928982619 -28.54 L 60.20368384162936 -28.54 L 60.10080390091651 -28.54 L 59.99361750765365 -28.54 L 59.88294568838028 -28.54 L 59.76963616730868 -28.54 L 59.65455687292441 -28.54 L 59.538589289826 -28.54 L 59.4226217067276 -28.54 L 59.307542412343324 -28.54 L 59.194232891271724 -28.54 L 59.08356107199835 -28.54 L 58.976374678735496 -28.54 L 58.873494738022636 -28.54 L 58.77570928982581 -28.54 " stroke="#191919" stroke-width="0.35 px" style="stroke-width:0.35;stroke-miterlimit:4;stroke-dasharray:none;fill:none;fill-opacity:1;fill-rule: evenodd"/>
<path id="Shape2DView_nwe0105"  d="M 60.30146928982604 -29.78 L 60.38144001031463 -29.78 L 60.46457583105555 -29.78 L 60.54921723373193 -29.78 L 60.63367464630546 -29.78 L 60.71626216946208 -29.78 L 60.7953312297445 -29.78 L 60.869303487603474 -29.78 L 60.93670234347261 -29.78 L 60.9961824129574 -29.78 L 61.046556382768344 -29.78 L 61.086818711312795 -29.78 L 61.11616570084525 -29.78 L 61.134011540505384 -29.78 L 61.14 -29.78 " stroke="#191919" stroke-width="0.35 px" style="stroke-width:0.35;stroke-miterlimit:4;stroke-dasharray:none;fill:none;fill-opacity:1;fill-rule: evenodd"/>
<path id="Shape2DView_nwe0106"  d="M 60.30146928982619 -29.78 L 60.20368384162936 -29.78 L 60.10080390091651 -29.78 L 59.99361750765365 -29.78 L 59.88294568838028 -29.78 L 59.76963616730868 -29.78 L 59.65455687292441 -29.78 L 59.538589289826 -29.78 L 59.4226217067276 -29.78 L 59.307542412343324 -29.78 L 59.194232891271724 -29.78 L 59.08356107199835 -29.78 L 58.976374678735496 -29.78 L 58.873494738022636 -29.78 L 58.77570928982581 -29.78 " stroke="#191919" stroke-width="0.35 px" style="stroke-width:0.35;stroke-miterlimit:4;stroke-dasharray:none;fill:none;fill-opacity:1;fill-rule: evenodd"/>
<path id="Shape2DView_nwe0107"  d="M 60.30146928982604 -31.08 L 60.38144001031463 -31.08 L 60.46457583105555 -31.08 L 60.54921723373193 -31.08 L 60.63367464630546 -31.08 L 60.71626216946208 -31.08 L 60.7953312297445 -31.08 L 60.869303487603474 -31.08 L 60.93670234347261 -31.08 L 60.9961824129574 -31.08 L 61.046556382768344 -31.08 L 61.086818711312795 -31.08 L 61.11616570084525 -31.08 L 61.134011540505384 -31.08 L 61.14 -31.08 " stroke="#191919" stroke-width="0.35 px" style="stroke-width:0.35;stroke-miterlimit:4;stroke-dasharray:none;fill:none;fill-opacity:1;fill-rule: evenodd"/>
<path id="Shape2DView_nwe0108"  d="M 60.30146928982619 -31.08 L 60.20368384162936 -31.08 L 60.10080390091651 -31.08 L 59.99361750765365 -31.08 L 59.88294568838028 -31.08 L 59.76963616730868 -31.08 L 59.65455687292441 -31.08 L 59.538589289826 -31.08 L 59.4226217067276 -31.08 L 59.307542412343324 -31.08 L 59.194232891271724 -31.08 L 59.08356107199835 -31.08 L 58.976374678735496 -31.08 L 58.873494738022636 -31.08 L 58.77570928982581 -31.08 " stroke="#191919" stroke-width="0.35 px" style="stroke-width:0.35;stroke-miterlimit:4;stroke-dasharray:none;fill:none;fill-opacity:1;fill-rule: evenodd"/>
<path id="Shape2DView_nwe0109"  d="M 60.30146928982604 -19.62 L 60.38144001031463 -19.62 L 60.46457583105555 -19.62 L 60.54921723373193 -19.62 L 60.63367464630546 -19.62 L 60.71626216946208 -19.62 L 60.7953312297445 -19.62 L 60.869303487603474 -19.62 L 60.93670234347261 -19.62 L 60.9961824129574 -19.62 L 61.046556382768344 -19.62 L 61.086818711312795 -19.62 L 61.11616570084525 -19.62 L 61.134011540505384 -19.62 L 61.14 -19.62 " stroke="#191919" stroke-width="0.35 px" style="stroke-width:0.35;stroke-miterlimit:4;stroke-dasharray:none;fill:none;fill-opacity:1;fill-rule: evenodd"/>
<path id="Shape2DView_nwe0110"  d="M 60.30146928982619 -19.62 L 60.20368384162936 -19.62 L 60.10080390091651 -19.62 L 59.99361750765365 -19.62 L 59.88294568838028 -19.62 L 59.76963616730868 -19.62 L 59.65455687292441 -19.62 L 59.538589289826 -19.62 L 59.4226217067276 -19.62 L 59.307542412343324 -19.62 L 59.194232891271724 -19.62 L 59.08356107199835 -19.62 L 58.976374678735496 -19.62 L 58.873494738022636 -19.62 L 58.77570928982581 -19.62 " stroke="#191919" stroke-width="0.35 px" style="stroke-width:0.35;stroke-miterlimit:4;stroke-dasharray:none;fill:none;fill-opacity:1;fill-rule: evenodd"/>
<path id="Shape2DView_nwe0111"  d="M 60.30146928982604 -20.92 L 60.38144001031463 -20.92 L 60.46457583105555 -20.92 L 60.54921723373193 -20.92 L 60.63367464630546 -20.92 L 60.71626216946208 -20.92 L 60.7953312297445 -20.92 L 60.869303487603474 -20.92 L 60.93670234347261 -20.92 L 60.9961824129574 -20.92 L 61.046556382768344 -20.92 L 61.086818711312795 -20.92 L 61.11616570084525 -20.92 L 61.134011540505384 -20.92 L 61.14 -20.92 " stroke="#191919" stroke-width="0.35 px" style="stroke-width:0.35;stroke-miterlimit:4;stroke-dasharray:none;fill:none;fill-opacity:1;fill-rule: evenodd"/>
<path id="Shape2DView_nwe0112"  d="M 60.30146928982619 -20.92 L 60.20368384162936 -20.92 L 60.10080390091651 -20.92 L 59.99361750765365 -20.92 L 59.88294568838028 -20.92 L 59.76963616730868 -20.92 L 59.65455687292441 -20.92 L 59.538589289826 -20.92 L 59.4226217067276 -20.92 L 59.307542412343324 -20.92 L 59.194232891271724 -20.92 L 59.08356107199835 -20.92 L 58.976374678735496 -20.92 L 58.873494738022636 -20.92 L 58.77570928982581 -20.92 " stroke="#191919" stroke-width="0.35 px" style="stroke-width:0.35;stroke-miterlimit:4;stroke-dasharray:none;fill:none;fill-opacity:1;fill-rule: evenodd"/>
<path id="Shape2DView_nwe0113"  d="M 60.30146928982604 -22.16 L 60.38144001031463 -22.16 L 60.46457583105555 -22.16 L 60.54921723373193 -22.16 L 60.63367464630546 -22.16 L 60.71626216946208 -22.16 L 60.7953312297445 -22.16 L 60.869303487603474 -22.16 L 60.93670234347261 -22.16 L 60.9961824129574 -22.16 L 61.046556382768344 -22.16 L 61.086818711312795 -22.16 L 61.11616570084525 -22.16 L 61.134011540505384 -22.16 L 61.14 -22.16 " stroke="#191919" stroke-width="0.35 px" style="stroke-width:0.35;stroke-miterlimit:4;stroke-dasharray:none;fill:none;fill-opacity:1;fill-rule: evenodd"/>
<path id="Shape2DView_nwe0114"  d="M 60.30146928982619 -22.16 L 60.20368384162936 -22.16 L 60.10080390091651 -22.16 L 59.99361750765365 -22.16 L 59.88294568838028 -22.16 L 59.76963616730868 -22.16 L 59.65455687292441 -22.16 L 59.538589289826 -22.16 L 59.4226217067276 -22.16 L 59.307542412343324 -22.16 L 59.194232891271724 -22.16 L 59.08356107199835 -22.16 L 58.976374678735496 -22.16 L 58.873494738022636 -22.16 L 58.77570928982581 -22.16 " stroke="#191919" stroke-width="0.35 px" style="stroke-width:0.35;stroke-miterlimit:4;stroke-dasharray:none;fill:none;fill-opacity:1;fill-rule: evenodd"/>
<path id="Shape2DView_nwe0115"  d="M 60.30146928982604 -23.46 L 60.38144001031463 -23.46 L 60.46457583105555 -23.46 L 60.54921723373193 -23.46 L 60.63367464630546 -23.46 L 60.71626216946208 -23.46 L 60.7953312297445 -23.46 L 60.869303487603474 -23.46 L 60.93670234347261 -23.46 L 60.9961824129574 -23.46 L 61.046556382768344 -23.46 L 61.086818711312795 -23.46 L 61.11616570084525 -23.46 L 61.134011540505384 -23.46 L 61.14 -23.46 " stroke="#191919" stroke-width="0.35 px" style="stroke-width:0.35;stroke-miterlimit:4;stroke-dasharray:none;fill:none;fill-opacity:1;fill-rule: evenodd"/>
<path id="Shape2DView_nwe0116"  d="M 60.30146928982619 -23.46 L 60.20368384162936 -23.46 L 60.10080390091651 -23.46 L 59.99361750765365 -23.46 L 59.88294568838028 -23.46 L 59.76963616730868 -23.46 L 59.65455687292441 -23.46 L 59.538589289826 -23.46 L 59.4226217067276 -23.46 L 59.307542412343324 -23.46 L 59.194232891271724 -23.46 L 59.08356107199835 -23.46 L 58.976374678735496 -23.46 L 58.873494738022636 -23.46 L 58.77570928982581 -23.46 " stroke="#191919" stroke-width="0.35 px" style="stroke-width:0.35;stroke-miterlimit:4;stroke-dasharray:none;fill:none;fill-opacity:1;fill-rule: evenodd"/>
<path id="Shape2DView_nwe0117"  d="M 60.30146928982604 -24.7 L 60.38144001031463 -24.7 L 60.46457583105555 -24.7 L 60.54921723373193 -24.7 L 60.63367464630546 -24.7 L 60.71626216946208 -24.7 L 60.7953312297445 -24.7 L 60.869303487603474 -24.7 L 60.93670234347261 -24.7 L 60.9961824129574 -24.7 L 61.046556382768344 -24.7 L 61.086818711312795 -24.7 L 61.11616570084525 -24.7 L 61.134011540505384 -24.7 L 61.14 -24.7 " stroke="#191919" stroke-width="0.35 px" style="stroke-width:0.35;stroke-miterlimit:4;stroke-dasharray:none;fill:none;fill-opacity:1;fill-rule: evenodd"/>
<path id="Shape2DView_nwe0118"  d="M 60.30146928982619 -24.7 L 60.20368384162936 -24.7 L 60.10080390091651 -24.7 L 59.99361750765365 -24.7 L 59.88294568838028 -24.7 L 59.76963616730868 -24.7 L 59.65455687292441 -24.7 L 59.538589289826 -24.7 L 59.4226217067276 -24.7 L 59.307542412343324 -24.7 L 59.194232891271724 -24.7 L 59.08356107199835 -24.7 L 58.976374678735496 -24.7 L 58.873494738022636 -24.7 L 58.77570928982581 -24.7 " stroke="#191919" stroke-width="0.35 px" style="stroke-width:0.35;stroke-miterlimit:4;stroke-dasharray:none;fill:none;fill-opacity:1;fill-rule: evenodd"/>
<path id="Shape2DView_nwe0119"  d="M 60.30146928982604 -26.0 L 60.38144001031463 -26.0 L 60.46457583105555 -26.0 L 60.54921723373193 -26.0 L 60.63367464630546 -26.0 L 60.71626216946208 -26.0 L 60.7953312297445 -26.0 L 60.869303487603474 -26.0 L 60.93670234347261 -26.0 L 60.9961824129574 -26.0 L 61.046556382768344 -26.0 L 61.086818711312795 -26.0 L 61.11616570084525 -26.0 L 61.134011540505384 -26.0 L 61.14 -26.0 " stroke="#191919" stroke-width="0.35 px" style="stroke-width:0.35;stroke-miterlimit:4;stroke-dasharray:none;fill:none;fill-opacity:1;fill-rule: evenodd"/>
<path id="Shape2DView_nwe0120"  d="M 60.30146928982619 -26.0 L 60.20368384162936 -26.0 L 60.10080390091651 -26.0 L 59.99361750765365 -26.0 L 59.88294568838028 -26.0 L 59.76963616730868 -26.0 L 59.65455687292441 -26.0 L 59.538589289826 -26.0 L 59.4226217067276 -26.0 L 59.307542412343324 -26.0 L 59.194232891271724 -26.0 L 59.08356107199835 -26.0 L 58.976374678735496 -26.0 L 58.873494738022636 -26.0 L 58.77570928982581 -26.0 " stroke="#191919" stroke-width="0.35 px" style="stroke-width:0.35;stroke-miterlimit:4;stroke-dasharray:none;fill:none;fill-opacity:1;fill-rule: evenodd"/>
<path id="Shape2DView_nwe0121"  d="M 58.0 20.0 L 58.000000000000014 -58.0 " stroke="#191919" stroke-width="0.35 px" style="stroke-width:0.35;stroke-miterlimit:4;stroke-dasharray:none;fill:none;fill-opacity:1;fill-rule: evenodd"/>
<path id="Shape2DView_nwe0122"  d="M 3.0 20.0 L 45.833 20.00000000000001 " stroke="#191919" stroke-width="0.35 px" style="stroke-width:0.35;stroke-miterlimit:4;stroke-dasharray:none;fill:none;fill-opacity:1;fill-rule: evenodd"/>
<path id="Shape2DView_nwe0123"  d="M 3.0 -58.0 L 45.833 -57.99999999999999 " stroke="#191919" stroke-width="0.35 px" style="stroke-width:0.35;stroke-miterlimit:4;stroke-dasharray:none;fill:none;fill-opacity:1;fill-rule: evenodd"/>
<path id="Shape2DView_nwe0124"  d="M 60.66 19.95 L 62.48 19.95 " stroke="#191919" stroke-width="0.35 px" style="stroke-width:0.35;stroke-miterlimit:4;stroke-dasharray:none;fill:none;fill-opacity:1;fill-rule: evenodd"/>
<path id="Shape2DView_nwe0125"  d="M 62.48 -58.05 L 45.833 -58.05 " stroke="#191919" stroke-width="0.35 px" style="stroke-width:0.35;stroke-miterlimit:4;stroke-dasharray:none;fill:none;fill-opacity:1;fill-rule: evenodd"/>
<path id="Shape2DView_nwe0126"  d="M 62.48 19.95 L 62.48 -58.05 " stroke="#191919" stroke-width="0.35 px" style="stroke-width:0.35;stroke-miterlimit:4;stroke-dasharray:none;fill:none;fill-opacity:1;fill-rule: evenodd"/>
<path id="Shape2DView_nwe0127"  d="M 61.660000000000004 -10.16 A 0.7 0.7 0 0 1 61.14 -9.48354" stroke="#191919" stroke-width="0.35 px" style="stroke-width:0.35;stroke-miterlimit:4;stroke-dasharray:none;fill:none;fill-opacity:1;fill-rule: evenodd"/>
<path id="Shape2DView_nwe0128"  d="M 60.660000000000004 -10.792455532033678 A 0.7 0.7 0 0 1 61.66 -10.16" stroke="#191919" stroke-width="0.35 px" style="stroke-width:0.35;stroke-miterlimit:4;stroke-dasharray:none;fill:none;fill-opacity:1;fill-rule: evenodd"/>
<path id="Shape2DView_nwe0129"  d="M 61.660000000000004 -12.7 A 0.7 0.7 0 0 1 61.14 -12.0235" stroke="#191919" stroke-width="0.35 px" style="stroke-width:0.35;stroke-miterlimit:4;stroke-dasharray:none;fill:none;fill-opacity:1;fill-rule: evenodd"/>
<path id="Shape2DView_nwe0130"  d="M 60.660000000000004 -13.332455532033677 A 0.7 0.7 0 0 1 61.66 -12.7" stroke="#191919" stroke-width="0.35 px" style="stroke-width:0.35;stroke-miterlimit:4;stroke-dasharray:none;fill:none;fill-opacity:1;fill-rule: evenodd"/>
<path id="Shape2DView_nwe0131"  d="M 61.660000000000004 -15.24 A 0.7 0.7 0 0 1 61.14 -14.5635" stroke="#191919" stroke-width="0.35 px" style="stroke-width:0.35;stroke-miterlimit:4;stroke-dasharray:none;fill:none;fill-opacity:1;fill-rule: evenodd"/>
<path id="Shape2DView_nwe0132"  d="M 60.660000000000004 -15.872455532033678 A 0.7 0.7 0 0 1 61.66 -15.24" stroke="#191919" stroke-width="0.35 px" style="stroke-width:0.35;stroke-miterlimit:4;stroke-dasharray:none;fill:none;fill-opacity:1;fill-rule: evenodd"/>
<path id="Shape2DView_nwe0133"  d="M 61.660000000000004 -25.4 A 0.7 0.7 0 0 1 61.14 -24.7235" stroke="#191919" stroke-width="0.35 px" style="stroke-width:0.35;stroke-miterlimit:4;stroke-dasharray:none;fill:none;fill-opacity:1;fill-rule: evenodd"/>
<path id="Shape2DView_nwe0134"  d="M 60.660000000000004 -26.032455532033676 A 0.7 0.7 0 0 1 61.66 -25.4" stroke="#191919" stroke-width="0.35 px" style="stroke-width:0.35;stroke-miterlimit:4;stroke-dasharray:none;fill:none;fill-opacity:1;fill-rule: evenodd"/>
<path id="Shape2DView_nwe0135"  d="M 61.660000000000004 -22.86 A 0.7 0.7 0 0 1 61.14 -22.1835" stroke="#191919" stroke-width="0.35 px" style="stroke-width:0.35;stroke-miterlimit:4;stroke-dasharray:none;fill:none;fill-opacity:1;fill-rule: evenodd"/>
<path id="Shape2DView_nwe0136"  d="M 60.660000000000004 -23.492455532033677 A 0.7 0.7 0 0 1 61.66 -22.86" stroke="#191919" stroke-width="0.35 px" style="stroke-width:0.35;stroke-miterlimit:4;stroke-dasharray:none;fill:none;fill-opacity:1;fill-rule: evenodd"/>
<path id="Shape2DView_nwe0137"  d="M 61.660000000000004 -20.32 A 0.7 0.7 0 0 1 61.14 -19.6435" stroke="#191919" stroke-width="0.35 px" style="stroke-width:0.35;stroke-miterlimit:4;stroke-dasharray:none;fill:none;fill-opacity:1;fill-rule: evenodd"/>
<path id="Shape2DView_nwe0138"  d="M 60.660000000000004 -20.952455532033678 A 0.7 0.7 0 0 1 61.66 -20.32" stroke="#191919" stroke-width="0.35 px" style="stroke-width:0.35;stroke-miterlimit:4;stroke-dasharray:none;fill:none;fill-opacity:1;fill-rule: evenodd"/>
<path id="Shape2DView_nwe0139"  d="M 61.660000000000004 -17.78 A 0.7 0.7 0 0 1 61.14 -17.1035" stroke="#191919" stroke-width="0.35 px" style="stroke-width:0.35;stroke-miterlimit:4;stroke-dasharray:none;fill:none;fill-opacity:1;fill-rule: evenodd"/>
<path id="Shape2DView_nwe0140"  d="M 60.660000000000004 -18.41245553203368 A 0.7 0.7 0 0 1 61.66 -17.78" stroke="#191919" stroke-width="0.35 px" style="stroke-width:0.35;stroke-miterlimit:4;stroke-dasharray:none;fill:none;fill-opacity:1;fill-rule: evenodd"/>
<path id="Shape2DView_nwe0141"  d="M 61.660000000000004 -7.62 A 0.7 0.7 0 0 1 61.14 -6.94354" stroke="#191919" stroke-width="0.35 px" style="stroke-width:0.35;stroke-miterlimit:4;stroke-dasharray:none;fill:none;fill-opacity:1;fill-rule: evenodd"/>
<path id="Shape2DView_nwe0142"  d="M 60.660000000000004 -8.252455532033677 A 0.7 0.7 0 0 1 61.66 -7.62" stroke="#191919" stroke-width="0.35 px" style="stroke-width:0.35;stroke-miterlimit:4;stroke-dasharray:none;fill:none;fill-opacity:1;fill-rule: evenodd"/>
<path id="Shape2DView_nwe0143"  d="M 61.660000000000004 -30.48 A 0.7 0.7 0 0 1 61.14 -29.8035" stroke="#191919" stroke-width="0.35 px" style="stroke-width:0.35;stroke-miterlimit:4;stroke-dasharray:none;fill:none;fill-opacity:1;fill-rule: evenodd"/>
<path id="Shape2DView_nwe0144"  d="M 60.66000000000001 -31.112455532033678 A 0.7 0.7 0 0 1 61.66 -30.48" stroke="#191919" stroke-width="0.35 px" style="stroke-width:0.35;stroke-miterlimit:4;stroke-dasharray:none;fill:none;fill-opacity:1;fill-rule: evenodd"/>
<path id="Shape2DView_nwe0145"  d="M 61.660000000000004 -27.94 A 0.7 0.7 0 0 1 61.14 -27.2635" stroke="#191919" stroke-width="0.35 px" style="stroke-width:0.35;stroke-miterlimit:4;stroke-dasharray:none;fill:none;fill-opacity:1;fill-rule: evenodd"/>
<path id="Shape2DView_nwe0146"  d="M 60.660000000000004 -28.57245553203368 A 0.7 0.7 0 0 1 61.66 -27.94" stroke="#191919" stroke-width="0.35 px" style="stroke-width:0.35;stroke-miterlimit:4;stroke-dasharray:none;fill:none;fill-opacity:1;fill-rule: evenodd"/>
<path id="Shape2DView_nwe0147"  d="M 61.660000000000004 -2.54 A 0.7 0.7 0 0 1 61.14 -1.86354" stroke="#191919" stroke-width="0.35 px" style="stroke-width:0.35;stroke-miterlimit:4;stroke-dasharray:none;fill:none;fill-opacity:1;fill-rule: evenodd"/>
<path id="Shape2DView_nwe0148"  d="M 60.660000000000004 -3.172455532033676 A 0.7 0.7 0 0 1 61.66 -2.54" stroke="#191919" stroke-width="0.35 px" style="stroke-width:0.35;stroke-miterlimit:4;stroke-dasharray:none;fill:none;fill-opacity:1;fill-rule: evenodd"/>
<path id="Shape2DView_nwe0149"  d="M 61.660000000000004 -5.08 A 0.7 0.7 0 0 1 61.14 -4.40354" stroke="#191919" stroke-width="0.35 px" style="stroke-width:0.35;stroke-miterlimit:4;stroke-dasharray:none;fill:none;fill-opacity:1;fill-rule: evenodd"/>
<path id="Shape2DView_nwe0150"  d="M 60.660000000000004 -5.712455532033676 A 0.7 0.7 0 0 1 61.66 -5.08" stroke="#191919" stroke-width="0.35 px" style="stroke-width:0.35;stroke-miterlimit:4;stroke-dasharray:none;fill:none;fill-opacity:1;fill-rule: evenodd"/>
<path id="Shape2DView_nwe0151"  d="M 61.660000000000004 -33.02 A 0.7 0.7 0 0 1 61.14 -32.3435" stroke="#191919" stroke-width="0.35 px" style="stroke-width:0.35;stroke-miterlimit:4;stroke-dasharray:none;fill:none;fill-opacity:1;fill-rule: evenodd"/>
<path id="Shape2DView_nwe0152"  d="M 60.66000000000001 -33.652455532033684 A 0.7 0.7 0 0 1 61.66 -33.02" stroke="#191919" stroke-width="0.35 px" style="stroke-width:0.35;stroke-miterlimit:4;stroke-dasharray:none;fill:none;fill-opacity:1;fill-rule: evenodd"/>
<path id="Shape2DView_nwe0153"  d="M 61.660000000000004 -35.56 A 0.7 0.7 0 0 1 61.14 -34.8835" stroke="#191919" stroke-width="0.35 px" style="stroke-width:0.35;stroke-miterlimit:4;stroke-dasharray:none;fill:none;fill-opacity:1;fill-rule: evenodd"/>
<path id="Shape2DView_nwe0154"  d="M 60.66000000000001 -36.192455532033684 A 0.7 0.7 0 0 1 61.66 -35.56" stroke="#191919" stroke-width="0.35 px" style="stroke-width:0.35;stroke-miterlimit:4;stroke-dasharray:none;fill:none;fill-opacity:1;fill-rule: evenodd"/>
<path id="Shape2DView_nwe0155"  d="M 61.660000000000004 0.0 A 0.7 0.7 0 0 1 61.14 0.676461" stroke="#191919" stroke-width="0.35 px" style="stroke-width:0.35;stroke-miterlimit:4;stroke-dasharray:none;fill:none;fill-opacity:1;fill-rule: evenodd"/>
<path id="Shape2DView_nwe0156"  d="M 60.660000000000004 -0.6324555320336759 A 0.7 0.7 0 0 1 61.66 -1.71451e-16" stroke="#191919" stroke-width="0.35 px" style="stroke-width:0.35;stroke-miterlimit:4;stroke-dasharray:none;fill:none;fill-opacity:1;fill-rule: evenodd"/>
<path id="Shape2DView_nwe0157"  d="M 61.660000000000004 -38.1 A 0.7 0.7 0 0 1 61.14 -37.4235" stroke="#191919" stroke-width="0.35 px" style="stroke-width:0.35;stroke-miterlimit:4;stroke-dasharray:none;fill:none;fill-opacity:1;fill-rule: evenodd"/>
<path id="Shape2DView_nwe0158"  d="M 60.66000000000001 -38.73245553203368 A 0.7 0.7 0 0 1 61.66 -38.1" stroke="#191919" stroke-width="0.35 px" style="stroke-width:0.35;stroke-miterlimit:4;stroke-dasharray:none;fill:none;fill-opacity:1;fill-rule: evenodd"/>
<path id="Shape2DView_nwe0159"  d="M -1.52 19.95 L 0.0 19.95 " stroke="#191919" stroke-width="0.35 px" style="stroke-width:0.35;stroke-miterlimit:4;stroke-dasharray:none;fill:none;fill-opacity:1;fill-rule: evenodd"/>
<path id="Shape2DView_nwe0160"  d="M -1.52 -58.05 L -1.52 19.950000000000003 " stroke="#191919" stroke-width="0.35 px" style="stroke-width:0.35;stroke-miterlimit:4;stroke-dasharray:none;fill:none;fill-opacity:1;fill-rule: evenodd"/>
<path id="Shape2DView_nwe0161"  d="M 3.0 -58.05 L -1.5200000000000031 -58.05 " stroke="#191919" stroke-width="0.35 px" style="stroke-width:0.35;stroke-miterlimit:4;stroke-dasharray:none;fill:none;fill-opacity:1;fill-rule: evenodd"/>
<path id="Shape2DView_nwe0162"  d="M 1.1544773173086779e-14 -32.32 A 0.7 0.7 0 1 1 1.16842e-14 -33.72" stroke="#191919" stroke-width="0.35 px" style="stroke-width:0.35;stroke-miterlimit:4;stroke-dasharray:none;fill:none;fill-opacity:1;fill-rule: evenodd"/>
<path id="Shape2DView_nwe0163"  d="M 4.861230564843336e-15 -1.84 A 0.7 0.7 0 1 1 4.84521e-15 -3.24" stroke="#191919" stroke-width="0.35 px" style="stroke-width:0.35;stroke-miterlimit:4;stroke-dasharray:none;fill:none;fill-opacity:1;fill-rule: evenodd"/>
<path id="Shape2DView_nwe0164"  d="M 5.482955458633424e-15 -4.38 A 0.7 0.7 0 1 1 5.46694e-15 -5.78" stroke="#191919" stroke-width="0.35 px" style="stroke-width:0.35;stroke-miterlimit:4;stroke-dasharray:none;fill:none;fill-opacity:1;fill-rule: evenodd"/>
<path id="Shape2DView_nwe0165"  d="M 1.2166498066876866e-14 -34.86 A 0.7 0.7 0 1 1 1.23059e-14 -36.26" stroke="#191919" stroke-width="0.35 px" style="stroke-width:0.35;stroke-miterlimit:4;stroke-dasharray:none;fill:none;fill-opacity:1;fill-rule: evenodd"/>
<path id="Shape2DView_nwe0166"  d="M 4.2395056710532486e-15 0.7 A 0.7 0.7 0 1 1 4.22349e-15 -0.7" stroke="#191919" stroke-width="0.35 px" style="stroke-width:0.35;stroke-miterlimit:4;stroke-dasharray:none;fill:none;fill-opacity:1;fill-rule: evenodd"/>
<path id="Shape2DView_nwe0167"  d="M 1.2788222960666953e-14 -37.4 A 0.7 0.7 0 1 1 1.29276e-14 -38.8" stroke="#191919" stroke-width="0.35 px" style="stroke-width:0.35;stroke-miterlimit:4;stroke-dasharray:none;fill:none;fill-opacity:1;fill-rule: evenodd"/>
<path id="Shape2DView_nwe0168"  d="M -0.18 -37.45 L -0.18 -38.75 " stroke="#191919" stroke-width="0.35 px" style="stroke-width:0.35;stroke-miterlimit:4;stroke-dasharray:none;fill:none;fill-opacity:1;fill-rule: evenodd"/>
<path id="Shape2DView_nwe0169"  d="M 0.658530710174 -37.45 L 0.658530710174 -38.75 " stroke="#191919" stroke-width="0.35 px" style="stroke-width:0.35;stroke-miterlimit:4;stroke-dasharray:none;fill:none;fill-opacity:1;fill-rule: evenodd"/>
<path id="Shape2DView_nwe0170"  d="M 2.184290710174 -37.45 L 2.184290710174 -38.75 " stroke="#191919" stroke-width="0.35 px" style="stroke-width:0.35;stroke-miterlimit:4;stroke-dasharray:none;fill:none;fill-opacity:1;fill-rule: evenodd"/>
<path id="Shape2DView_nwe0171"  d="M -0.18 -34.91 L -0.18 -36.21 " stroke="#191919" stroke-width="0.35 px" style="stroke-width:0.35;stroke-miterlimit:4;stroke-dasharray:none;fill:none;fill-opacity:1;fill-rule: evenodd"/>
<path id="Shape2DView_nwe0172"  d="M 0.658530710174 -34.91 L 0.658530710174 -36.21 " stroke="#191919" stroke-width="0.35 px" style="stroke-width:0.35;stroke-miterlimit:4;stroke-dasharray:none;fill:none;fill-opacity:1;fill-rule: evenodd"/>
<path id="Shape2DView_nwe0173"  d="M 2.184290710174 -34.91 L 2.184290710174 -36.21 " stroke="#191919" stroke-width="0.35 px" style="stroke-width:0.35;stroke-miterlimit:4;stroke-dasharray:none;fill:none;fill-opacity:1;fill-rule: evenodd"/>
<path id="Shape2DView_nwe0174"  d="M -0.18 -32.37 L -0.18 -33.67 " stroke="#191919" stroke-width="0.35 px" style="stroke-width:0.35;stroke-miterlimit:4;stroke-dasharray:none;fill:none;fill-opacity:1;fill-rule: evenodd"/>
<path id="Shape2DView_nwe0175"  d="M 0.658530710174 -32.37 L 0.658530710174 -33.67 " stroke="#191919" stroke-width="0.35 px" style="stroke-width:0.35;stroke-miterlimit:4;stroke-dasharray:none;fill:none;fill-opacity:1;fill-rule: evenodd"/>
<path id="Shape2DView_nwe0176"  d="M 2.184290710174 -32.37 L 2.184290710174 -33.67 " stroke="#191919" stroke-width="0.35 px" style="stroke-width:0.35;stroke-miterlimit:4;stroke-dasharray:none;fill:none;fill-opacity:1;fill-rule: evenodd"/>
<path id="Shape2DView_nwe0177"  d="M -0.18 -4.43 L -0.18 -5.73 " stroke="#191919" stroke-width="0.35 px" style="stroke-width:0.35;stroke-miterlimit:4;stroke-dasharray:none;fill:none;fill-opacity:1;fill-rule: evenodd"/>
<path id="Shape2DView_nwe0178"  d="M 0.658530710174 -4.43 L 0.658530710174 -5.73 " stroke="#191919" stroke-width="0.35 px" style="stroke-width:0.35;stroke-miterlimit:4;stroke-dasharray:none;fill:none;fill-opacity:1;fill-rule: evenodd"/>
<path id="Shape2DView_nwe0179"  d="M 2.184290710174 -4.43 L 2.184290710174 -5.73 " stroke="#191919" stroke-width="0.35 px" style="stroke-width:0.35;stroke-miterlimit:4;stroke-dasharray:none;fill:none;fill-opacity:1;fill-rule: evenodd"/>
<path id="Shape2DView_nwe0180"  d="M -0.18 -1.89 L -0.18 -3.19 " stroke="#191919" stroke-width="0.35 px" style="stroke-width:0.35;stroke-miterlimit:4;stroke-dasharray:none;fill:none;fill-opacity:1;fill-rule: evenodd"/>
<path id="Shape2DView_nwe0181"  d="M 0.658530710174 -1.89 L 0.658530710174 -3.19 " stroke="#191919" stroke-width="0.35 px" style="stroke-width:0.35;stroke-miterlimit:4;stroke-dasharray:none;fill:none;fill-opacity:1;fill-rule: evenodd"/>
<path id="Shape2DView_nwe0182"  d="M 2.184290710174 -1.89 L 2.184290710174 -3.19 " stroke="#191919" stroke-width="0.35 px" style="stroke-width:0.35;stroke-miterlimit:4;stroke-dasharray:none;fill:none;fill-opacity:1;fill-rule: evenodd"/>
<path id="Shape2DView_nwe0183"  d="M -0.18 0.65 L -0.18 -0.65 " stroke="#191919" stroke-width="0.35 px" style="stroke-width:0.35;stroke-miterlimit:4;stroke-dasharray:none;fill:none;fill-opacity:1;fill-rule: evenodd"/>
<path id="Shape2DView_nwe0184"  d="M 0.658530710174 0.65 L 0.658530710174 -0.65 " stroke="#191919" stroke-width="0.35 px" style="stroke-width:0.35;stroke-miterlimit:4;stroke-dasharray:none;fill:none;fill-opacity:1;fill-rule: evenodd"/>
<path id="Shape2DView_nwe0185"  d="M 2.184290710174 0.65 L 2.184290710174 -0.65 " stroke="#191919" stroke-width="0.35 px" style="stroke-width:0.35;stroke-miterlimit:4;stroke-dasharray:none;fill:none;fill-opacity:1;fill-rule: evenodd"/>
<path id="Shape2DView_nwe0186"  d="M 61.14 -0.4 L 61.14 0.9 " stroke="#191919" stroke-width="0.35 px" style="stroke-width:0.35;stroke-miterlimit:4;stroke-dasharray:none;fill:none;fill-opacity:1;fill-rule: evenodd"/>
<path id="Shape2DView_nwe0187"  d="M 60.301469289826 -0.4 L 60.301469289826 0.9 " stroke="#191919" stroke-width="0.35 px" style="stroke-width:0.35;stroke-miterlimit:4;stroke-dasharray:none;fill:none;fill-opacity:1;fill-rule: evenodd"/>
<path id="Shape2DView_nwe0189"  d="M 58.775709289826 -0.4 L 58.775709289826 0.9 " stroke="#191919" stroke-width="0.35 px" style="stroke-width:0.35;stroke-miterlimit:4;stroke-dasharray:none;fill:none;fill-opacity:1;fill-rule: evenodd"/>
<path id="Shape2DView_nwe0190"  d="M 61.14 -3.14 L 61.14 -1.84 " stroke="#191919" stroke-width="0.35 px" style="stroke-width:0.35;stroke-miterlimit:4;stroke-dasharray:none;fill:none;fill-opacity:1;fill-rule: evenodd"/>
<path id="Shape2DView_nwe0191"  d="M 60.301469289826 -3.14 L 60.301469289826 -1.84 " stroke="#191919" stroke-width="0.35 px" style="stroke-width:0.35;stroke-miterlimit:4;stroke-dasharray:none;fill:none;fill-opacity:1;fill-rule: evenodd"/>
<path id="Shape2DView_nwe0193"  d="M 58.775709289826 -3.14 L 58.775709289826 -1.84 " stroke="#191919" stroke-width="0.35 px" style="stroke-width:0.35;stroke-miterlimit:4;stroke-dasharray:none;fill:none;fill-opacity:1;fill-rule: evenodd"/>
<path id="Shape2DView_nwe0194"  d="M 61.14 -8.22 L 61.14 -6.92 " stroke="#191919" stroke-width="0.35 px" style="stroke-width:0.35;stroke-miterlimit:4;stroke-dasharray:none;fill:none;fill-opacity:1;fill-rule: evenodd"/>
<path id="Shape2DView_nwe0195"  d="M 60.301469289826 -8.22 L 60.301469289826 -6.92 " stroke="#191919" stroke-width="0.35 px" style="stroke-width:0.35;stroke-miterlimit:4;stroke-dasharray:none;fill:none;fill-opacity:1;fill-rule: evenodd"/>
<path id="Shape2DView_nwe0197"  d="M 58.775709289826 -8.22 L 58.775709289826 -6.92 " stroke="#191919" stroke-width="0.35 px" style="stroke-width:0.35;stroke-miterlimit:4;stroke-dasharray:none;fill:none;fill-opacity:1;fill-rule: evenodd"/>
<path id="Shape2DView_nwe0198"  d="M 61.14 -5.68 L 61.14 -4.38 " stroke="#191919" stroke-width="0.35 px" style="stroke-width:0.35;stroke-miterlimit:4;stroke-dasharray:none;fill:none;fill-opacity:1;fill-rule: evenodd"/>
<path id="Shape2DView_nwe0199"  d="M 60.301469289826 -5.68 L 60.301469289826 -4.38 " stroke="#191919" stroke-width="0.35 px" style="stroke-width:0.35;stroke-miterlimit:4;stroke-dasharray:none;fill:none;fill-opacity:1;fill-rule: evenodd"/>
<path id="Shape2DView_nwe0201"  d="M 58.775709289826 -5.68 L 58.775709289826 -4.38 " stroke="#191919" stroke-width="0.35 px" style="stroke-width:0.35;stroke-miterlimit:4;stroke-dasharray:none;fill:none;fill-opacity:1;fill-rule: evenodd"/>
<path id="Shape2DView_nwe0202"  d="M 61.14 -18.38 L 61.14 -17.08 " stroke="#191919" stroke-width="0.35 px" style="stroke-width:0.35;stroke-miterlimit:4;stroke-dasharray:none;fill:none;fill-opacity:1;fill-rule: evenodd"/>
<path id="Shape2DView_nwe0203"  d="M 60.301469289826 -18.38 L 60.301469289826 -17.08 " stroke="#191919" stroke-width="0.35 px" style="stroke-width:0.35;stroke-miterlimit:4;stroke-dasharray:none;fill:none;fill-opacity:1;fill-rule: evenodd"/>
<path id="Shape2DView_nwe0205"  d="M 58.775709289826 -18.38 L 58.775709289826 -17.08 " stroke="#191919" stroke-width="0.35 px" style="stroke-width:0.35;stroke-miterlimit:4;stroke-dasharray:none;fill:none;fill-opacity:1;fill-rule: evenodd"/>
<path id="Shape2DView_nwe0206"  d="M 61.14 -15.84 L 61.14 -14.54 " stroke="#191919" stroke-width="0.35 px" style="stroke-width:0.35;stroke-miterlimit:4;stroke-dasharray:none;fill:none;fill-opacity:1;fill-rule: evenodd"/>
<path id="Shape2DView_nwe0207"  d="M 60.301469289826 -15.84 L 60.301469289826 -14.54 " stroke="#191919" stroke-width="0.35 px" style="stroke-width:0.35;stroke-miterlimit:4;stroke-dasharray:none;fill:none;fill-opacity:1;fill-rule: evenodd"/>
<path id="Shape2DView_nwe0209"  d="M 58.775709289826 -15.84 L 58.775709289826 -14.54 " stroke="#191919" stroke-width="0.35 px" style="stroke-width:0.35;stroke-miterlimit:4;stroke-dasharray:none;fill:none;fill-opacity:1;fill-rule: evenodd"/>
<path id="Shape2DView_nwe0210"  d="M 61.14 -10.76 L 61.14 -9.46 " stroke="#191919" stroke-width="0.35 px" style="stroke-width:0.35;stroke-miterlimit:4;stroke-dasharray:none;fill:none;fill-opacity:1;fill-rule: evenodd"/>
<path id="Shape2DView_nwe0211"  d="M 60.301469289826 -10.76 L 60.301469289826 -9.46 " stroke="#191919" stroke-width="0.35 px" style="stroke-width:0.35;stroke-miterlimit:4;stroke-dasharray:none;fill:none;fill-opacity:1;fill-rule: evenodd"/>
<path id="Shape2DView_nwe0213"  d="M 58.775709289826 -10.76 L 58.775709289826 -9.46 " stroke="#191919" stroke-width="0.35 px" style="stroke-width:0.35;stroke-miterlimit:4;stroke-dasharray:none;fill:none;fill-opacity:1;fill-rule: evenodd"/>
<path id="Shape2DView_nwe0214"  d="M 61.14 -13.3 L 61.14 -12.0 " stroke="#191919" stroke-width="0.35 px" style="stroke-width:0.35;stroke-miterlimit:4;stroke-dasharray:none;fill:none;fill-opacity:1;fill-rule: evenodd"/>
<path id="Shape2DView_nwe0215"  d="M 60.301469289826 -13.3 L 60.301469289826 -12.0 " stroke="#191919" stroke-width="0.35 px" style="stroke-width:0.35;stroke-miterlimit:4;stroke-dasharray:none;fill:none;fill-opacity:1;fill-rule: evenodd"/>
<path id="Shape2DView_nwe0217"  d="M 58.775709289826 -13.3 L 58.775709289826 -12.0 " stroke="#191919" stroke-width="0.35 px" style="stroke-width:0.35;stroke-miterlimit:4;stroke-dasharray:none;fill:none;fill-opacity:1;fill-rule: evenodd"/>
<path id="Shape2DView_nwe0218"  d="M 61.14 -38.7 L 61.14 -37.4 " stroke="#191919" stroke-width="0.35 px" style="stroke-width:0.35;stroke-miterlimit:4;stroke-dasharray:none;fill:none;fill-opacity:1;fill-rule: evenodd"/>
<path id="Shape2DView_nwe0219"  d="M 60.301469289826 -38.7 L 60.301469289826 -37.4 " stroke="#191919" stroke-width="0.35 px" style="stroke-width:0.35;stroke-miterlimit:4;stroke-dasharray:none;fill:none;fill-opacity:1;fill-rule: evenodd"/>
<path id="Shape2DView_nwe0220"  d="M 58.775709289826 -38.7 L 58.775709289826 -37.4 " stroke="#191919" stroke-width="0.35 px" style="stroke-width:0.35;stroke-miterlimit:4;stroke-dasharray:none;fill:none;fill-opacity:1;fill-rule: evenodd"/>
<path id="Shape2DView_nwe0221"  d="M 61.14 -36.16 L 61.14 -34.86 " stroke="#191919" stroke-width="0.35 px" style="stroke-width:0.35;stroke-miterlimit:4;stroke-dasharray:none;fill:none;fill-opacity:1;fill-rule: evenodd"/>
<path id="Shape2DView_nwe0222"  d="M 60.301469289826 -36.16 L 60.301469289826 -34.86 " stroke="#191919" stroke-width="0.35 px" style="stroke-width:0.35;stroke-miterlimit:4;stroke-dasharray:none;fill:none;fill-opacity:1;fill-rule: evenodd"/>
<path id="Shape2DView_nwe0223"  d="M 58.775709289826 -36.16 L 58.775709289826 -34.86 " stroke="#191919" stroke-width="0.35 px" style="stroke-width:0.35;stroke-miterlimit:4;stroke-dasharray:none;fill:none;fill-opacity:1;fill-rule: evenodd"/>
<path id="Shape2DView_nwe0224"  d="M 61.14 -33.62 L 61.14 -32.32 " stroke="#191919" stroke-width="0.35 px" style="stroke-width:0.35;stroke-miterlimit:4;stroke-dasharray:none;fill:none;fill-opacity:1;fill-rule: evenodd"/>
<path id="Shape2DView_nwe0225"  d="M 60.301469289826 -33.62 L 60.301469289826 -32.32 " stroke="#191919" stroke-width="0.35 px" style="stroke-width:0.35;stroke-miterlimit:4;stroke-dasharray:none;fill:none;fill-opacity:1;fill-rule: evenodd"/>
<path id="Shape2DView_nwe0226"  d="M 58.775709289826 -33.62 L 58.775709289826 -32.32 " stroke="#191919" stroke-width="0.35 px" style="stroke-width:0.35;stroke-miterlimit:4;stroke-dasharray:none;fill:none;fill-opacity:1;fill-rule: evenodd"/>
<path id="Shape2DView_nwe0227"  d="M 61.14 -28.54 L 61.14 -27.24 " stroke="#191919" stroke-width="0.35 px" style="stroke-width:0.35;stroke-miterlimit:4;stroke-dasharray:none;fill:none;fill-opacity:1;fill-rule: evenodd"/>
<path id="Shape2DView_nwe0228"  d="M 60.301469289826 -28.54 L 60.301469289826 -27.24 " stroke="#191919" stroke-width="0.35 px" style="stroke-width:0.35;stroke-miterlimit:4;stroke-dasharray:none;fill:none;fill-opacity:1;fill-rule: evenodd"/>
<path id="Shape2DView_nwe0229"  d="M 58.775709289826 -28.54 L 58.775709289826 -27.24 " stroke="#191919" stroke-width="0.35 px" style="stroke-width:0.35;stroke-miterlimit:4;stroke-dasharray:none;fill:none;fill-opacity:1;fill-rule: evenodd"/>
<path id="Shape2DView_nwe0230"  d="M 61.14 -31.08 L 61.14 -29.78 " stroke="#191919" stroke-width="0.35 px" style="stroke-width:0.35;stroke-miterlimit:4;stroke-dasharray:none;fill:none;fill-opacity:1;fill-rule: evenodd"/>
<path id="Shape2DView_nwe0231"  d="M 60.301469289826 -31.08 L 60.301469289826 -29.78 " stroke="#191919" stroke-width="0.35 px" style="stroke-width:0.35;stroke-miterlimit:4;stroke-dasharray:none;fill:none;fill-opacity:1;fill-rule: evenodd"/>
<path id="Shape2DView_nwe0232"  d="M 58.775709289826 -31.08 L 58.775709289826 -29.78 " stroke="#191919" stroke-width="0.35 px" style="stroke-width:0.35;stroke-miterlimit:4;stroke-dasharray:none;fill:none;fill-opacity:1;fill-rule: evenodd"/>
<path id="Shape2DView_nwe0233"  d="M 61.14 -20.92 L 61.14 -19.62 " stroke="#191919" stroke-width="0.35 px" style="stroke-width:0.35;stroke-miterlimit:4;stroke-dasharray:none;fill:none;fill-opacity:1;fill-rule: evenodd"/>
<path id="Shape2DView_nwe0234"  d="M 60.301469289826 -20.92 L 60.301469289826 -19.62 " stroke="#191919" stroke-width="0.35 px" style="stroke-width:0.35;stroke-miterlimit:4;stroke-dasharray:none;fill:none;fill-opacity:1;fill-rule: evenodd"/>
<path id="Shape2DView_nwe0235"  d="M 58.775709289826 -20.92 L 58.775709289826 -19.62 " stroke="#191919" stroke-width="0.35 px" style="stroke-width:0.35;stroke-miterlimit:4;stroke-dasharray:none;fill:none;fill-opacity:1;fill-rule: evenodd"/>
<path id="Shape2DView_nwe0236"  d="M 61.14 -23.46 L 61.14 -22.16 " stroke="#191919" stroke-width="0.35 px" style="stroke-width:0.35;stroke-miterlimit:4;stroke-dasharray:none;fill:none;fill-opacity:1;fill-rule: evenodd"/>
<path id="Shape2DView_nwe0237"  d="M 60.301469289826 -23.46 L 60.301469289826 -22.16 " stroke="#191919" stroke-width="0.35 px" style="stroke-width:0.35;stroke-miterlimit:4;stroke-dasharray:none;fill:none;fill-opacity:1;fill-rule: evenodd"/>
<path id="Shape2DView_nwe0238"  d="M 58.775709289826 -23.46 L 58.775709289826 -22.16 " stroke="#191919" stroke-width="0.35 px" style="stroke-width:0.35;stroke-miterlimit:4;stroke-dasharray:none;fill:none;fill-opacity:1;fill-rule: evenodd"/>
<path id="Shape2DView_nwe0239"  d="M 61.14 -26.0 L 61.14 -24.7 " stroke="#191919" stroke-width="0.35 px" style="stroke-width:0.35;stroke-miterlimit:4;stroke-dasharray:none;fill:none;fill-opacity:1;fill-rule: evenodd"/>
<path id="Shape2DView_nwe0240"  d="M 60.301469289826 -26.0 L 60.301469289826 -24.7 " stroke="#191919" stroke-width="0.35 px" style="stroke-width:0.35;stroke-miterlimit:4;stroke-dasharray:none;fill:none;fill-opacity:1;fill-rule: evenodd"/>
<path id="Shape2DView_nwe0241"  d="M 58.775709289826 -26.0 L 58.775709289826 -24.7 " stroke="#191919" stroke-width="0.35 px" style="stroke-width:0.35;stroke-miterlimit:4;stroke-dasharray:none;fill:none;fill-opacity:1;fill-rule: evenodd"/>
<path id="Shape2DView_nwe0242"  d="M 3.0 20.0 L 3.0000000000000173 -58.0 " stroke="#191919" stroke-width="0.35 px" style="stroke-width:0.35;stroke-miterlimit:4;stroke-dasharray:none;fill:none;fill-opacity:1;fill-rule: evenodd"/>
<path id="Shape2DView_nwe0243"  d="M 45.833 20.0 L 45.83300000000001 -58.0 " stroke="#191919" stroke-width="0.35 px" style="stroke-width:0.35;stroke-miterlimit:4;stroke-dasharray:none;fill:none;fill-opacity:1;fill-rule: evenodd"/>
<title>b'Shape2DView'</title>
</g>
<g id="Rectangle" transform="translate(2.160000,20.640000) scale(1,-1)">
<rect fill="#ff0000" id="origin" width="1" height="1" x="0" y="0" />
<title>b'Rectangle'</title>
</g>
</svg>