<?xml version="1.0"?>
<!DOCTYPE svg PUBLIC "-//W3C//DTD SVG 1.1//EN" "http://www.w3.org/Graphics/SVG/1.1/DTD/svg11.dtd">
<svg width="114.24000000000055mm" height="172.24000000000055mm" viewBox="0 0 114.24000000000055 172.24000000000055" xmlns="http://www.w3.org/2000/svg" version="1.1">
<g id="Shape2DView" transform="translate(27.880000,21.350000) scale(1,-1)">
<path id="Shape2DView_nwe0000"  d="M -17.0 -142.0 L -17.0 10.400000000000006 " stroke="#191919" stroke-width="0.35 px" style="stroke-width:0.35;stroke-miterlimit:4;stroke-dasharray:none;fill:none;fill-opacity:1;fill-rule: evenodd"/>
<path id="Shape2DView_nwe0001"  d="M -17.0 -142.0 L 74.44 -142.0 " stroke="#191919" stroke-width="0.35 px" style="stroke-width:0.35;stroke-miterlimit:4;stroke-dasharray:none;fill:none;fill-opacity:1;fill-rule: evenodd"/>
<path id="Shape2DView_nwe0002"  d="M 74.44 -142.0 L 74.44 10.400000000000006 " stroke="#191919" stroke-width="0.35 px" style="stroke-width:0.35;stroke-miterlimit:4;stroke-dasharray:none;fill:none;fill-opacity:1;fill-rule: evenodd"/>
<path id="Shape2DView_nwe0003"  d="M -17.0 10.4 L 74.44 10.4 " stroke="#191919" stroke-width="0.35 px" style="stroke-width:0.35;stroke-miterlimit:4;stroke-dasharray:none;fill:none;fill-opacity:1;fill-rule: evenodd"/>
<path id="Shape2DView_nwe0004"  d="M -18.0 -143.0 L -18.0 11.0 " stroke="#191919" stroke-width="0.35 px" style="stroke-width:0.35;stroke-miterlimit:4;stroke-dasharray:none;fill:none;fill-opacity:1;fill-rule: evenodd"/>
<path id="Shape2DView_nwe0005"  d="M -18.0 -143.0 L 76.0 -143.0 " stroke="#191919" stroke-width="0.35 px" style="stroke-width:0.35;stroke-miterlimit:4;stroke-dasharray:none;fill:none;fill-opacity:1;fill-rule: evenodd"/>
<path id="Shape2DView_nwe0006"  d="M 76.0 -143.0 L 76.0 12.0 " stroke="#191919" stroke-width="0.35 px" style="stroke-width:0.35;stroke-miterlimit:4;stroke-dasharray:none;fill:none;fill-opacity:1;fill-rule: evenodd"/>
<path id="Shape2DView_nwe0007"  d="M -17.0 12.0 L 76.0 12.0 " stroke="#191919" stroke-width="0.35 px" style="stroke-width:0.35;stroke-miterlimit:4;stroke-dasharray:none;fill:none;fill-opacity:1;fill-rule: evenodd"/>
<path id="Shape2DView_nwe0008"  d="M -17.0 12.0 A 1 1 0 1 1 -18 11" stroke="#191919" stroke-width="0.35 px" style="stroke-width:0.35;stroke-miterlimit:4;stroke-dasharray:none;fill:none;fill-opacity:1;fill-rule: evenodd"/>
<path id="Shape2DView_nwe0009"  d="M -21.15999999999973 20.23000000000027 L -21.161257558021084 20.228742441978916 L -21.165014417563373 20.224985582436627 L -21.171223333938073 20.218776666061927 L -21.179806226419274 20.210193773580727 L -21.190655160154115 20.199344839845885 L -21.20363370350618 20.18636629649382 L -21.2185786437625 20.171421356237502 L -21.235302039628085 20.154697960371916 L -21.253593584696787 20.136406415303213 L -21.273223252176372 20.11677674782363 L -21.293944187608876 20.096055812391125 L -21.315495813208678 20.074504186791323 L -21.33760710477931 20.05239289522069 L -21.36 20.03 " stroke="#191919" stroke-width="0.35 px" style="stroke-width:0.35;stroke-miterlimit:4;stroke-dasharray:none;fill:none;fill-opacity:1;fill-rule: evenodd"/>
<path id="Shape2DView_nwe0010"  d="M -21.15999999999973 19.73000000000027 L -21.161257558021084 19.728742441978916 L -21.165014417563373 19.724985582436627 L -21.171223333938073 19.718776666061927 L -21.179806226419274 19.710193773580727 L -21.190655160154115 19.699344839845885 L -21.20363370350618 19.68636629649382 L -21.2185786437625 19.671421356237502 L -21.235302039628085 19.654697960371916 L -21.253593584696787 19.636406415303213 L -21.273223252176372 19.61677674782363 L -21.293944187608876 19.596055812391125 L -21.315495813208678 19.574504186791323 L -21.33760710477931 19.55239289522069 L -21.36 19.53 " stroke="#191919" stroke-width="0.35 px" style="stroke-width:0.35;stroke-miterlimit:4;stroke-dasharray:none;fill:none;fill-opacity:1;fill-rule: evenodd"/>
<path id="Shape2DView_nwe0011"  d="M -21.16 20.23 L -21.16 19.73 " stroke="#191919" stroke-width="0.35 px" style="stroke-width:0.35;stroke-miterlimit:4;stroke-dasharray:none;fill:none;fill-opacity:1;fill-rule: evenodd"/>
<path id="Shape2DView_nwe0012"  d="M -21.16 20.23 L -26.76 20.23 " stroke="#191919" stroke-width="0.35 px" style="stroke-width:0.35;stroke-miterlimit:4;stroke-dasharray:none;fill:none;fill-opacity:1;fill-rule: evenodd"/>
<path id="Shape2DView_nwe0013"  d="M -26.760000000000268 20.23000000000027 L -26.758742441978914 20.228742441978916 L -26.754985582436625 20.224985582436627 L -26.748776666061925 20.218776666061927 L -26.740193773580724 20.210193773580727 L -26.729344839845883 20.199344839845885 L -26.716366296493817 20.18636629649382 L -26.7014213562375 20.171421356237502 L -26.684697960371913 20.154697960371916 L -26.66640641530321 20.136406415303213 L -26.646776747823626 20.11677674782363 L -26.626055812391122 20.096055812391125 L -26.60450418679132 20.074504186791323 L -26.58239289522069 20.05239289522069 L -26.56 20.03 " stroke="#191919" stroke-width="0.35 px" style="stroke-width:0.35;stroke-miterlimit:4;stroke-dasharray:none;fill:none;fill-opacity:1;fill-rule: evenodd"/>
<path id="Shape2DView_nwe0014"  d="M -9.960000000000269 19.73000000000027 L -9.958742441978917 19.728742441978916 L -9.954985582436628 19.724985582436627 L -9.948776666061928 19.718776666061927 L -9.940193773580726 19.710193773580727 L -9.929344839845884 19.699344839845885 L -9.916366296493816 19.68636629649382 L -9.901421356237499 19.671421356237502 L -9.884697960371915 19.654697960371916 L -9.86640641530321 19.636406415303213 L -9.846776747823629 19.61677674782363 L -9.826055812391122 19.596055812391125 L -9.804504186791323 19.574504186791323 L -9.782392895220692 19.55239289522069 L -9.76 19.53 " stroke="#191919" stroke-width="0.35 px" style="stroke-width:0.35;stroke-miterlimit:4;stroke-dasharray:none;fill:none;fill-opacity:1;fill-rule: evenodd"/>
<path id="Shape2DView_nwe0015"  d="M -21.16 19.73 L -9.96 19.73 " stroke="#191919" stroke-width="0.35 px" style="stroke-width:0.35;stroke-miterlimit:4;stroke-dasharray:none;fill:none;fill-opacity:1;fill-rule: evenodd"/>
<path id="Shape2DView_nwe0016"  d="M -26.760000000000268 1.0299999999997307 L -26.758742441978914 1.0312575580210837 L -26.754985582436625 1.0350144175633726 L -26.748776666061925 1.041223333938072 L -26.740193773580724 1.0498062264192733 L -26.729344839845883 1.060655160154115 L -26.716366296493817 1.0736337035061834 L -26.7014213562375 1.0885786437625 L -26.684697960371913 1.1053020396280853 L -26.66640641530321 1.1235935846967893 L -26.646776747823626 1.1432232521763714 L -26.626055812391122 1.1639441876088776 L -26.60450418679132 1.1854958132086773 L -26.58239289522069 1.2076071047793082 L -26.56 1.23 " stroke="#191919" stroke-width="0.35 px" style="stroke-width:0.35;stroke-miterlimit:4;stroke-dasharray:none;fill:none;fill-opacity:1;fill-rule: evenodd"/>
<path id="Shape2DView_nwe0017"  d="M -26.76 1.03 L -26.76 20.23 " stroke="#191919" stroke-width="0.35 px" style="stroke-width:0.35;stroke-miterlimit:4;stroke-dasharray:none;fill:none;fill-opacity:1;fill-rule: evenodd"/>
<path id="Shape2DView_nwe0018"  d="M -9.960000000000269 20.23000000000027 L -9.958742441978917 20.228742441978916 L -9.954985582436628 20.224985582436627 L -9.948776666061928 20.218776666061927 L -9.940193773580726 20.210193773580727 L -9.929344839845884 20.199344839845885 L -9.916366296493816 20.18636629649382 L -9.901421356237499 20.171421356237502 L -9.884697960371915 20.154697960371916 L -9.86640641530321 20.136406415303213 L -9.846776747823629 20.11677674782363 L -9.826055812391122 20.096055812391125 L -9.804504186791323 20.074504186791323 L -9.782392895220692 20.05239289522069 L -9.76 20.03 " stroke="#191919" stroke-width="0.35 px" style="stroke-width:0.35;stroke-miterlimit:4;stroke-dasharray:none;fill:none;fill-opacity:1;fill-rule: evenodd"/>
<path id="Shape2DView_nwe0019"  d="M -9.96 19.73 L -9.96 20.23 " stroke="#191919" stroke-width="0.35 px" style="stroke-width:0.35;stroke-miterlimit:4;stroke-dasharray:none;fill:none;fill-opacity:1;fill-rule: evenodd"/>
<path id="Shape2DView_nwe0020"  d="M -26.260000000000268 1.0299999999997307 L -26.258742441978914 1.0312575580210837 L -26.254985582436625 1.0350144175633726 L -26.248776666061925 1.041223333938072 L -26.240193773580724 1.0498062264192733 L -26.229344839845883 1.060655160154115 L -26.216366296493817 1.0736337035061834 L -26.2014213562375 1.0885786437625 L -26.184697960371913 1.1053020396280853 L -26.16640641530321 1.1235935846967893 L -26.146776747823626 1.1432232521763714 L -26.126055812391122 1.1639441876088776 L -26.10450418679132 1.185495813208677 L -26.08239289522069 1.2076071047793082 L -26.06 1.23 " stroke="#191919" stroke-width="0.35 px" style="stroke-width:0.35;stroke-miterlimit:4;stroke-dasharray:none;fill:none;fill-opacity:1;fill-rule: evenodd"/>
<path id="Shape2DView_nwe0021"  d="M -26.26 1.03 L -26.76 1.03 " stroke="#191919" stroke-width="0.35 px" style="stroke-width:0.35;stroke-miterlimit:4;stroke-dasharray:none;fill:none;fill-opacity:1;fill-rule: evenodd"/>
<path id="Shape2DView_nwe0022"  d="M 1.2400000000002693 20.23000000000027 L 1.2387424419789164 20.228742441978916 L 1.2349855824366274 20.224985582436627 L 1.228776666061928 20.218776666061927 L 1.2201937735807267 20.210193773580727 L 1.209344839845885 20.199344839845885 L 1.1963662964938166 20.18636629649382 L 1.1814213562375 20.171421356237502 L 1.1646979603719148 20.154697960371916 L 1.1464064153032107 20.136406415303213 L 1.1267767478236286 20.11677674782363 L 1.1060558123911224 20.096055812391125 L 1.0845041867913228 20.074504186791323 L 1.0623928952206918 20.05239289522069 L 1.04 20.03 " stroke="#191919" stroke-width="0.35 px" style="stroke-width:0.35;stroke-miterlimit:4;stroke-dasharray:none;fill:none;fill-opacity:1;fill-rule: evenodd"/>
<path id="Shape2DView_nwe0023"  d="M -9.96 20.23 L 1.2400000000000002 20.23 " stroke="#191919" stroke-width="0.35 px" style="stroke-width:0.35;stroke-miterlimit:4;stroke-dasharray:none;fill:none;fill-opacity:1;fill-rule: evenodd"/>
<path id="Shape2DView_nwe0024"  d="M -26.260000000000268 -17.76999999999973 L -26.258742441978914 -17.771257558021084 L -26.254985582436625 -17.775014417563373 L -26.248776666061925 -17.781223333938073 L -26.240193773580724 -17.789806226419273 L -26.229344839845883 -17.800655160154115 L -26.216366296493817 -17.81363370350618 L -26.2014213562375 -17.828578643762498 L -26.184697960371913 -17.845302039628084 L -26.16640641530321 -17.863593584696787 L -26.146776747823626 -17.88322325217637 L -26.126055812391122 -17.903944187608875 L -26.10450418679132 -17.925495813208677 L -26.08239289522069 -17.94760710477931 L -26.06 -17.97 " stroke="#191919" stroke-width="0.35 px" style="stroke-width:0.35;stroke-miterlimit:4;stroke-dasharray:none;fill:none;fill-opacity:1;fill-rule: evenodd"/>
<path id="Shape2DView_nwe0025"  d="M -26.26 -17.77 L -26.26 1.0300000000000011 " stroke="#191919" stroke-width="0.35 px" style="stroke-width:0.35;stroke-miterlimit:4;stroke-dasharray:none;fill:none;fill-opacity:1;fill-rule: evenodd"/>
<path id="Shape2DView_nwe0026"  d="M 1.2400000000002693 19.73000000000027 L 1.2387424419789164 19.728742441978916 L 1.2349855824366274 19.724985582436627 L 1.228776666061928 19.718776666061927 L 1.2201937735807267 19.710193773580727 L 1.209344839845885 19.699344839845885 L 1.1963662964938166 19.68636629649382 L 1.1814213562375 19.671421356237502 L 1.1646979603719148 19.654697960371916 L 1.1464064153032107 19.636406415303213 L 1.1267767478236286 19.61677674782363 L 1.1060558123911224 19.596055812391125 L 1.084504186791323 19.574504186791323 L 1.0623928952206918 19.55239289522069 L 1.04 19.53 " stroke="#191919" stroke-width="0.35 px" style="stroke-width:0.35;stroke-miterlimit:4;stroke-dasharray:none;fill:none;fill-opacity:1;fill-rule: evenodd"/>
<path id="Shape2DView_nwe0027"  d="M 1.24 20.23 L 1.24 19.73 " stroke="#191919" stroke-width="0.35 px" style="stroke-width:0.35;stroke-miterlimit:4;stroke-dasharray:none;fill:none;fill-opacity:1;fill-rule: evenodd"/>
<path id="Shape2DView_nwe0028"  d="M -26.760000000000268 -17.76999999999973 L -26.758742441978914 -17.771257558021084 L -26.754985582436625 -17.775014417563373 L -26.748776666061925 -17.781223333938073 L -26.740193773580724 -17.789806226419273 L -26.729344839845883 -17.800655160154115 L -26.716366296493817 -17.81363370350618 L -26.7014213562375 -17.828578643762498 L -26.684697960371913 -17.845302039628084 L -26.66640641530321 -17.863593584696787 L -26.646776747823626 -17.88322325217637 L -26.626055812391122 -17.903944187608875 L -26.60450418679132 -17.925495813208677 L -26.58239289522069 -17.94760710477931 L -26.56 -17.97 " stroke="#191919" stroke-width="0.35 px" style="stroke-width:0.35;stroke-miterlimit:4;stroke-dasharray:none;fill:none;fill-opacity:1;fill-rule: evenodd"/>
<path id="Shape2DView_nwe0029"  d="M -26.76 -17.77 L -26.26 -17.77 " stroke="#191919" stroke-width="0.35 px" style="stroke-width:0.35;stroke-miterlimit:4;stroke-dasharray:none;fill:none;fill-opacity:1;fill-rule: evenodd"/>
<path id="Shape2DView_nwe0030"  d="M 12.439999999999731 19.73000000000027 L 12.441257558021084 19.728742441978916 L 12.445014417563373 19.724985582436627 L 12.451223333938072 19.718776666061927 L 12.459806226419275 19.710193773580727 L 12.470655160154116 19.699344839845885 L 12.483633703506184 19.68636629649382 L 12.498578643762501 19.671421356237502 L 12.515302039628086 19.654697960371916 L 12.53359358469679 19.636406415303213 L 12.553223252176371 19.61677674782363 L 12.573944187608879 19.596055812391125 L 12.595495813208677 19.574504186791323 L 12.617607104779308 19.55239289522069 L 12.64 19.53 " stroke="#191919" stroke-width="0.35 px" style="stroke-width:0.35;stroke-miterlimit:4;stroke-dasharray:none;fill:none;fill-opacity:1;fill-rule: evenodd"/>
<path id="Shape2DView_nwe0031"  d="M 1.24 19.73 L 12.44 19.73 " stroke="#191919" stroke-width="0.35 px" style="stroke-width:0.35;stroke-miterlimit:4;stroke-dasharray:none;fill:none;fill-opacity:1;fill-rule: evenodd"/>
<path id="Shape2DView_nwe0032"  d="M -26.760000000000268 -36.57000000000027 L -26.758742441978914 -36.56874244197891 L -26.754985582436625 -36.56498558243663 L -26.748776666061925 -36.558776666061924 L -26.740193773580724 -36.55019377358072 L -26.729344839845883 -36.53934483984588 L -26.716366296493817 -36.52636629649381 L -26.7014213562375 -36.5114213562375 L -26.684697960371913 -36.49469796037191 L -26.66640641530321 -36.47640641530321 L -26.646776747823626 -36.456776747823625 L -26.626055812391122 -36.43605581239112 L -26.60450418679132 -36.41450418679132 L -26.58239289522069 -36.39239289522069 L -26.56 -36.37 " stroke="#191919" stroke-width="0.35 px" style="stroke-width:0.35;stroke-miterlimit:4;stroke-dasharray:none;fill:none;fill-opacity:1;fill-rule: evenodd"/>
<path id="Shape2DView_nwe0033"  d="M -26.76 -36.57 L -26.76 -17.77 " stroke="#191919" stroke-width="0.35 px" style="stroke-width:0.35;stroke-miterlimit:4;stroke-dasharray:none;fill:none;fill-opacity:1;fill-rule: evenodd"/>
<path id="Shape2DView_nwe0034"  d="M 12.439999999999731 20.23000000000027 L 12.441257558021084 20.228742441978916 L 12.445014417563373 20.224985582436627 L 12.451223333938072 20.218776666061927 L 12.459806226419275 20.210193773580727 L 12.470655160154116 20.199344839845885 L 12.483633703506184 20.18636629649382 L 12.498578643762501 20.171421356237502 L 12.515302039628086 20.154697960371916 L 12.53359358469679 20.136406415303213 L 12.553223252176371 20.11677674782363 L 12.573944187608879 20.096055812391125 L 12.595495813208677 20.074504186791323 L 12.617607104779308 20.05239289522069 L 12.64 20.03 " stroke="#191919" stroke-width="0.35 px" style="stroke-width:0.35;stroke-miterlimit:4;stroke-dasharray:none;fill:none;fill-opacity:1;fill-rule: evenodd"/>
<path id="Shape2DView_nwe0035"  d="M 12.44 19.73 L 12.44 20.23 " stroke="#191919" stroke-width="0.35 px" style="stroke-width:0.35;stroke-miterlimit:4;stroke-dasharray:none;fill:none;fill-opacity:1;fill-rule: evenodd"/>
<path id="Shape2DView_nwe0036"  d="M -26.260000000000268 -36.57000000000027 L -26.258742441978914 -36.56874244197891 L -26.254985582436625 -36.56498558243663 L -26.248776666061925 -36.558776666061924 L -26.240193773580724 -36.55019377358072 L -26.229344839845883 -36.53934483984588 L -26.216366296493817 -36.52636629649381 L -26.2014213562375 -36.5114213562375 L -26.184697960371913 -36.49469796037191 L -26.16640641530321 -36.47640641530321 L -26.146776747823626 -36.456776747823625 L -26.126055812391122 -36.43605581239112 L -26.10450418679132 -36.41450418679132 L -26.08239289522069 -36.39239289522069 L -26.06 -36.37 " stroke="#191919" stroke-width="0.35 px" style="stroke-width:0.35;stroke-miterlimit:4;stroke-dasharray:none;fill:none;fill-opacity:1;fill-rule: evenodd"/>
<path id="Shape2DView_nwe0037"  d="M -26.26 -36.57 L -26.76 -36.57 " stroke="#191919" stroke-width="0.35 px" style="stroke-width:0.35;stroke-miterlimit:4;stroke-dasharray:none;fill:none;fill-opacity:1;fill-rule: evenodd"/>
<path id="Shape2DView_nwe0038"  d="M 23.64000000000027 20.23000000000027 L 23.638742441978916 20.228742441978916 L 23.634985582436627 20.224985582436627 L 23.628776666061928 20.218776666061927 L 23.620193773580727 20.210193773580727 L 23.609344839845885 20.199344839845885 L 23.59636629649382 20.18636629649382 L 23.581421356237502 20.171421356237502 L 23.564697960371916 20.154697960371916 L 23.546406415303213 20.136406415303213 L 23.52677674782363 20.11677674782363 L 23.506055812391125 20.096055812391125 L 23.484504186791323 20.074504186791323 L 23.46239289522069 20.05239289522069 L 23.44 20.03 " stroke="#191919" stroke-width="0.35 px" style="stroke-width:0.35;stroke-miterlimit:4;stroke-dasharray:none;fill:none;fill-opacity:1;fill-rule: evenodd"/>
<path id="Shape2DView_nwe0039"  d="M 12.44 20.23 L 23.64 20.23 " stroke="#191919" stroke-width="0.35 px" style="stroke-width:0.35;stroke-miterlimit:4;stroke-dasharray:none;fill:none;fill-opacity:1;fill-rule: evenodd"/>
<path id="Shape2DView_nwe0040"  d="M -26.260000000000268 -55.36999999999973 L -26.258742441978914 -55.371257558021085 L -26.254985582436625 -55.37501441756337 L -26.248776666061925 -55.381223333938074 L -26.240193773580724 -55.389806226419275 L -26.229344839845883 -55.400655160154116 L -26.216366296493817 -55.413633703506186 L -26.2014213562375 -55.4285786437625 L -26.184697960371913 -55.44530203962809 L -26.16640641530321 -55.46359358469679 L -26.146776747823626 -55.48322325217637 L -26.126055812391122 -55.50394418760888 L -26.10450418679132 -55.52549581320868 L -26.08239289522069 -55.54760710477931 L -26.06 -55.57 " stroke="#191919" stroke-width="0.35 px" style="stroke-width:0.35;stroke-miterlimit:4;stroke-dasharray:none;fill:none;fill-opacity:1;fill-rule: evenodd"/>
<path id="Shape2DView_nwe0041"  d="M -26.26 -55.37 L -26.26 -36.57 " stroke="#191919" stroke-width="0.35 px" style="stroke-width:0.35;stroke-miterlimit:4;stroke-dasharray:none;fill:none;fill-opacity:1;fill-rule: evenodd"/>
<path id="Shape2DView_nwe0042"  d="M 23.64000000000027 19.73000000000027 L 23.638742441978916 19.728742441978916 L 23.634985582436627 19.724985582436627 L 23.628776666061928 19.718776666061927 L 23.620193773580727 19.710193773580727 L 23.609344839845885 19.699344839845885 L 23.59636629649382 19.68636629649382 L 23.581421356237502 19.671421356237502 L 23.564697960371916 19.654697960371916 L 23.546406415303213 19.636406415303213 L 23.52677674782363 19.61677674782363 L 23.506055812391125 19.596055812391125 L 23.484504186791323 19.574504186791323 L 23.46239289522069 19.55239289522069 L 23.44 19.53 " stroke="#191919" stroke-width="0.35 px" style="stroke-width:0.35;stroke-miterlimit:4;stroke-dasharray:none;fill:none;fill-opacity:1;fill-rule: evenodd"/>
<path id="Shape2DView_nwe0043"  d="M 23.64 20.23 L 23.64 19.73 " stroke="#191919" stroke-width="0.35 px" style="stroke-width:0.35;stroke-miterlimit:4;stroke-dasharray:none;fill:none;fill-opacity:1;fill-rule: evenodd"/>
<path id="Shape2DView_nwe0044"  d="M -26.760000000000268 -55.36999999999973 L -26.758742441978914 -55.371257558021085 L -26.754985582436625 -55.37501441756337 L -26.748776666061925 -55.381223333938074 L -26.740193773580724 -55.389806226419275 L -26.729344839845883 -55.400655160154116 L -26.716366296493817 -55.413633703506186 L -26.7014213562375 -55.4285786437625 L -26.684697960371913 -55.44530203962809 L -26.66640641530321 -55.46359358469679 L -26.646776747823626 -55.48322325217637 L -26.626055812391122 -55.50394418760888 L -26.60450418679132 -55.52549581320868 L -26.58239289522069 -55.54760710477931 L -26.56 -55.57 " stroke="#191919" stroke-width="0.35 px" style="stroke-width:0.35;stroke-miterlimit:4;stroke-dasharray:none;fill:none;fill-opacity:1;fill-rule: evenodd"/>
<path id="Shape2DView_nwe0045"  d="M -26.76 -55.37 L -26.26 -55.37 " stroke="#191919" stroke-width="0.35 px" style="stroke-width:0.35;stroke-miterlimit:4;stroke-dasharray:none;fill:none;fill-opacity:1;fill-rule: evenodd"/>
<path id="Shape2DView_nwe0046"  d="M 34.839999999999726 19.73000000000027 L 34.841257558021084 19.728742441978916 L 34.84501441756337 19.724985582436627 L 34.85122333393807 19.718776666061927 L 34.85980622641927 19.710193773580727 L 34.870655160154115 19.699344839845885 L 34.883633703506185 19.68636629649382 L 34.8985786437625 19.671421356237502 L 34.91530203962809 19.654697960371916 L 34.93359358469679 19.636406415303213 L 34.95322325217637 19.61677674782363 L 34.97394418760888 19.596055812391125 L 34.99549581320868 19.574504186791323 L 35.01760710477931 19.55239289522069 L 35.04 19.53 " stroke="#191919" stroke-width="0.35 px" style="stroke-width:0.35;stroke-miterlimit:4;stroke-dasharray:none;fill:none;fill-opacity:1;fill-rule: evenodd"/>
<path id="Shape2DView_nwe0047"  d="M 23.64 19.73 L 34.84 19.73 " stroke="#191919" stroke-width="0.35 px" style="stroke-width:0.35;stroke-miterlimit:4;stroke-dasharray:none;fill:none;fill-opacity:1;fill-rule: evenodd"/>
<path id="Shape2DView_nwe0048"  d="M -26.760000000000268 -74.17000000000027 L -26.758742441978914 -74.16874244197892 L -26.754985582436625 -74.16498558243663 L -26.748776666061925 -74.15877666606193 L -26.740193773580724 -74.15019377358072 L -26.729344839845883 -74.13934483984589 L -26.716366296493817 -74.12636629649381 L -26.7014213562375 -74.1114213562375 L -26.684697960371913 -74.09469796037192 L -26.66640641530321 -74.07640641530321 L -26.646776747823626 -74.05677674782363 L -26.626055812391122 -74.03605581239113 L -26.60450418679132 -74.01450418679133 L -26.58239289522069 -73.99239289522069 L -26.56 -73.97 " stroke="#191919" stroke-width="0.35 px" style="stroke-width:0.35;stroke-miterlimit:4;stroke-dasharray:none;fill:none;fill-opacity:1;fill-rule: evenodd"/>
<path id="Shape2DView_nwe0049"  d="M -26.76 -74.17 L -26.76 -55.37 " stroke="#191919" stroke-width="0.35 px" style="stroke-width:0.35;stroke-miterlimit:4;stroke-dasharray:none;fill:none;fill-opacity:1;fill-rule: evenodd"/>
<path id="Shape2DView_nwe0050"  d="M 34.839999999999726 20.23000000000027 L 34.841257558021084 20.228742441978916 L 34.84501441756337 20.224985582436627 L 34.85122333393807 20.218776666061927 L 34.85980622641927 20.210193773580727 L 34.870655160154115 20.199344839845885 L 34.883633703506185 20.18636629649382 L 34.8985786437625 20.171421356237502 L 34.91530203962809 20.154697960371916 L 34.93359358469679 20.136406415303213 L 34.95322325217637 20.11677674782363 L 34.97394418760888 20.096055812391125 L 34.99549581320868 20.074504186791323 L 35.01760710477931 20.05239289522069 L 35.04 20.03 " stroke="#191919" stroke-width="0.35 px" style="stroke-width:0.35;stroke-miterlimit:4;stroke-dasharray:none;fill:none;fill-opacity:1;fill-rule: evenodd"/>
<path id="Shape2DView_nwe0051"  d="M 34.84 19.73 L 34.84 20.23 " stroke="#191919" stroke-width="0.35 px" style="stroke-width:0.35;stroke-miterlimit:4;stroke-dasharray:none;fill:none;fill-opacity:1;fill-rule: evenodd"/>
<path id="Shape2DView_nwe0052"  d="M -26.260000000000268 -74.17000000000027 L -26.258742441978914 -74.16874244197892 L -26.254985582436625 -74.16498558243663 L -26.248776666061925 -74.15877666606193 L -26.240193773580724 -74.15019377358072 L -26.229344839845883 -74.13934483984589 L -26.216366296493817 -74.12636629649381 L -26.2014213562375 -74.1114213562375 L -26.184697960371913 -74.09469796037192 L -26.16640641530321 -74.07640641530321 L -26.146776747823626 -74.05677674782363 L -26.126055812391122 -74.03605581239113 L -26.10450418679132 -74.01450418679133 L -26.08239289522069 -73.99239289522069 L -26.06 -73.97 " stroke="#191919" stroke-width="0.35 px" style="stroke-width:0.35;stroke-miterlimit:4;stroke-dasharray:none;fill:none;fill-opacity:1;fill-rule: evenodd"/>
<path id="Shape2DView_nwe0053"  d="M -26.26 -74.17 L -26.76 -74.17 " stroke="#191919" stroke-width="0.35 px" style="stroke-width:0.35;stroke-miterlimit:4;stroke-dasharray:none;fill:none;fill-opacity:1;fill-rule: evenodd"/>
<path id="Shape2DView_nwe0054"  d="M 46.040000000000276 20.23000000000027 L 46.03874244197892 20.228742441978916 L 46.03498558243663 20.224985582436627 L 46.02877666606193 20.218776666061927 L 46.02019377358073 20.210193773580727 L 46.00934483984589 20.199344839845885 L 45.99636629649382 20.18636629649382 L 45.981421356237504 20.171421356237502 L 45.964697960371915 20.154697960371916 L 45.946406415303215 20.136406415303213 L 45.92677674782363 20.11677674782363 L 45.90605581239112 20.096055812391125 L 45.884504186791325 20.074504186791323 L 45.862392895220694 20.05239289522069 L 45.84 20.03 " stroke="#191919" stroke-width="0.35 px" style="stroke-width:0.35;stroke-miterlimit:4;stroke-dasharray:none;fill:none;fill-opacity:1;fill-rule: evenodd"/>
<path id="Shape2DView_nwe0055"  d="M 34.84 20.23 L 46.04 20.23 " stroke="#191919" stroke-width="0.35 px" style="stroke-width:0.35;stroke-miterlimit:4;stroke-dasharray:none;fill:none;fill-opacity:1;fill-rule: evenodd"/>
<path id="Shape2DView_nwe0056"  d="M -26.260000000000268 -92.96999999999973 L -26.258742441978914 -92.97125755802108 L -26.254985582436625 -92.97501441756337 L -26.248776666061925 -92.98122333393808 L -26.240193773580724 -92.98980622641928 L -26.229344839845883 -93.00065516015411 L -26.216366296493817 -93.01363370350619 L -26.2014213562375 -93.0285786437625 L -26.184697960371913 -93.04530203962808 L -26.16640641530321 -93.06359358469679 L -26.146776747823626 -93.08322325217637 L -26.126055812391122 -93.10394418760887 L -26.10450418679132 -93.12549581320867 L -26.08239289522069 -93.14760710477931 L -26.06 -93.17 " stroke="#191919" stroke-width="0.35 px" style="stroke-width:0.35;stroke-miterlimit:4;stroke-dasharray:none;fill:none;fill-opacity:1;fill-rule: evenodd"/>
<path id="Shape2DView_nwe0057"  d="M -26.26 -92.97 L -26.26 -74.17 " stroke="#191919" stroke-width="0.35 px" style="stroke-width:0.35;stroke-miterlimit:4;stroke-dasharray:none;fill:none;fill-opacity:1;fill-rule: evenodd"/>
<path id="Shape2DView_nwe0058"  d="M 46.040000000000276 19.73000000000027 L 46.03874244197892 19.728742441978916 L 46.03498558243663 19.724985582436627 L 46.02877666606193 19.718776666061927 L 46.02019377358073 19.710193773580727 L 46.00934483984589 19.699344839845885 L 45.99636629649382 19.68636629649382 L 45.981421356237504 19.671421356237502 L 45.96469796037192 19.654697960371916 L 45.946406415303215 19.636406415303213 L 45.92677674782363 19.61677674782363 L 45.90605581239112 19.596055812391125 L 45.884504186791325 19.574504186791323 L 45.862392895220694 19.55239289522069 L 45.84 19.53 " stroke="#191919" stroke-width="0.35 px" style="stroke-width:0.35;stroke-miterlimit:4;stroke-dasharray:none;fill:none;fill-opacity:1;fill-rule: evenodd"/>
<path id="Shape2DView_nwe0059"  d="M 46.04 20.23 L 46.04 19.73 " stroke="#191919" stroke-width="0.35 px" style="stroke-width:0.35;stroke-miterlimit:4;stroke-dasharray:none;fill:none;fill-opacity:1;fill-rule: evenodd"/>
<path id="Shape2DView_nwe0060"  d="M -26.760000000000268 -92.96999999999973 L -26.758742441978914 -92.97125755802108 L -26.754985582436625 -92.97501441756337 L -26.748776666061925 -92.98122333393808 L -26.740193773580724 -92.98980622641928 L -26.729344839845883 -93.00065516015411 L -26.716366296493817 -93.01363370350619 L -26.7014213562375 -93.0285786437625 L -26.684697960371913 -93.04530203962808 L -26.66640641530321 -93.06359358469679 L -26.646776747823626 -93.08322325217637 L -26.626055812391122 -93.10394418760887 L -26.60450418679132 -93.12549581320867 L -26.58239289522069 -93.14760710477931 L -26.56 -93.17 " stroke="#191919" stroke-width="0.35 px" style="stroke-width:0.35;stroke-miterlimit:4;stroke-dasharray:none;fill:none;fill-opacity:1;fill-rule: evenodd"/>
<path id="Shape2DView_nwe0061"  d="M -26.76 -92.97 L -26.26 -92.97 " stroke="#191919" stroke-width="0.35 px" style="stroke-width:0.35;stroke-miterlimit:4;stroke-dasharray:none;fill:none;fill-opacity:1;fill-rule: evenodd"/>
<path id="Shape2DView_nwe0062"  d="M 57.239999999999725 19.73000000000027 L 57.24125755802108 19.728742441978916 L 57.24501441756337 19.724985582436627 L 57.25122333393807 19.718776666061927 L 57.25980622641927 19.710193773580727 L 57.270655160154114 19.699344839845885 L 57.28363370350618 19.68636629649382 L 57.2985786437625 19.671421356237502 L 57.31530203962808 19.654697960371916 L 57.333593584696786 19.636406415303213 L 57.35322325217637 19.61677674782363 L 57.37394418760888 19.596055812391125 L 57.395495813208676 19.574504186791323 L 57.41760710477931 19.55239289522069 L 57.44 19.53 " stroke="#191919" stroke-width="0.35 px" style="stroke-width:0.35;stroke-miterlimit:4;stroke-dasharray:none;fill:none;fill-opacity:1;fill-rule: evenodd"/>
<path id="Shape2DView_nwe0063"  d="M 46.04 19.73 L 57.24 19.73 " stroke="#191919" stroke-width="0.35 px" style="stroke-width:0.35;stroke-miterlimit:4;stroke-dasharray:none;fill:none;fill-opacity:1;fill-rule: evenodd"/>
<path id="Shape2DView_nwe0064"  d="M -26.760000000000268 -111.77000000000027 L -26.758742441978914 -111.76874244197892 L -26.754985582436625 -111.76498558243662 L -26.748776666061925 -111.75877666606192 L -26.740193773580724 -111.75019377358072 L -26.729344839845883 -111.73934483984588 L -26.716366296493817 -111.72636629649381 L -26.7014213562375 -111.7114213562375 L -26.684697960371913 -111.69469796037191 L -26.66640641530321 -111.6764064153032 L -26.646776747823626 -111.65677674782363 L -26.626055812391122 -111.63605581239112 L -26.60450418679132 -111.61450418679132 L -26.58239289522069 -111.59239289522068 L -26.56 -111.57 " stroke="#191919" stroke-width="0.35 px" style="stroke-width:0.35;stroke-miterlimit:4;stroke-dasharray:none;fill:none;fill-opacity:1;fill-rule: evenodd"/>
<path id="Shape2DView_nwe0065"  d="M -26.76 -111.77 L -26.76 -92.97 " stroke="#191919" stroke-width="0.35 px" style="stroke-width:0.35;stroke-miterlimit:4;stroke-dasharray:none;fill:none;fill-opacity:1;fill-rule: evenodd"/>
<path id="Shape2DView_nwe0066"  d="M 57.239999999999725 20.23000000000027 L 57.24125755802108 20.228742441978916 L 57.24501441756337 20.224985582436627 L 57.25122333393807 20.218776666061927 L 57.25980622641927 20.210193773580727 L 57.270655160154114 20.199344839845885 L 57.28363370350618 20.18636629649382 L 57.2985786437625 20.171421356237502 L 57.31530203962809 20.154697960371916 L 57.333593584696786 20.136406415303213 L 57.35322325217637 20.11677674782363 L 57.37394418760888 20.096055812391125 L 57.395495813208676 20.074504186791323 L 57.41760710477931 20.05239289522069 L 57.44 20.03 " stroke="#191919" stroke-width="0.35 px" style="stroke-width:0.35;stroke-miterlimit:4;stroke-dasharray:none;fill:none;fill-opacity:1;fill-rule: evenodd"/>
<path id="Shape2DView_nwe0067"  d="M 57.24 19.73 L 57.24 20.23 " stroke="#191919" stroke-width="0.35 px" style="stroke-width:0.35;stroke-miterlimit:4;stroke-dasharray:none;fill:none;fill-opacity:1;fill-rule: evenodd"/>
<path id="Shape2DView_nwe0068"  d="M -26.260000000000268 -111.77000000000027 L -26.258742441978914 -111.76874244197892 L -26.254985582436625 -111.76498558243662 L -26.248776666061925 -111.75877666606192 L -26.240193773580724 -111.75019377358072 L -26.229344839845883 -111.73934483984588 L -26.216366296493817 -111.72636629649381 L -26.2014213562375 -111.7114213562375 L -26.184697960371913 -111.69469796037191 L -26.16640641530321 -111.6764064153032 L -26.146776747823626 -111.65677674782363 L -26.126055812391122 -111.63605581239112 L -26.10450418679132 -111.61450418679132 L -26.08239289522069 -111.59239289522068 L -26.06 -111.57 " stroke="#191919" stroke-width="0.35 px" style="stroke-width:0.35;stroke-miterlimit:4;stroke-dasharray:none;fill:none;fill-opacity:1;fill-rule: evenodd"/>
<path id="Shape2DView_nwe0069"  d="M -26.26 -111.77 L -26.76 -111.77 " stroke="#191919" stroke-width="0.35 px" style="stroke-width:0.35;stroke-miterlimit:4;stroke-dasharray:none;fill:none;fill-opacity:1;fill-rule: evenodd"/>
<path id="Shape2DView_nwe0070"  d="M 68.44000000000027 20.23000000000027 L 68.43874244197892 20.228742441978916 L 68.43498558243662 20.224985582436627 L 68.42877666606192 20.218776666061927 L 68.42019377358072 20.210193773580727 L 68.40934483984589 20.199344839845885 L 68.39636629649381 20.18636629649382 L 68.3814213562375 20.171421356237502 L 68.36469796037191 20.154697960371916 L 68.3464064153032 20.136406415303213 L 68.32677674782363 20.11677674782363 L 68.30605581239112 20.096055812391125 L 68.28450418679132 20.074504186791323 L 68.26239289522069 20.05239289522069 L 68.24 20.03 " stroke="#191919" stroke-width="0.35 px" style="stroke-width:0.35;stroke-miterlimit:4;stroke-dasharray:none;fill:none;fill-opacity:1;fill-rule: evenodd"/>
<path id="Shape2DView_nwe0071"  d="M 57.24 20.23 L 68.44 20.23 " stroke="#191919" stroke-width="0.35 px" style="stroke-width:0.35;stroke-miterlimit:4;stroke-dasharray:none;fill:none;fill-opacity:1;fill-rule: evenodd"/>
<path id="Shape2DView_nwe0072"  d="M -26.260000000000268 -130.56999999999974 L -26.258742441978914 -130.5712575580211 L -26.254985582436625 -130.57501441756338 L -26.248776666061925 -130.58122333393808 L -26.240193773580724 -130.58980622641928 L -26.229344839845883 -130.60065516015413 L -26.216366296493817 -130.6136337035062 L -26.2014213562375 -130.62857864376252 L -26.184697960371913 -130.6453020396281 L -26.16640641530321 -130.6635935846968 L -26.146776747823626 -130.6832232521764 L -26.126055812391122 -130.7039441876089 L -26.10450418679132 -130.72549581320868 L -26.08239289522069 -130.74760710477932 L -26.06 -130.77 " stroke="#191919" stroke-width="0.35 px" style="stroke-width:0.35;stroke-miterlimit:4;stroke-dasharray:none;fill:none;fill-opacity:1;fill-rule: evenodd"/>
<path id="Shape2DView_nwe0073"  d="M -26.26 -130.57 L -26.26 -111.77 " stroke="#191919" stroke-width="0.35 px" style="stroke-width:0.35;stroke-miterlimit:4;stroke-dasharray:none;fill:none;fill-opacity:1;fill-rule: evenodd"/>
<path id="Shape2DView_nwe0074"  d="M 68.44000000000027 19.73000000000027 L 68.43874244197892 19.728742441978916 L 68.43498558243662 19.724985582436627 L 68.42877666606192 19.718776666061927 L 68.42019377358072 19.710193773580727 L 68.40934483984589 19.699344839845885 L 68.39636629649381 19.68636629649382 L 68.3814213562375 19.671421356237502 L 68.36469796037191 19.654697960371916 L 68.3464064153032 19.636406415303213 L 68.32677674782363 19.61677674782363 L 68.30605581239112 19.596055812391125 L 68.28450418679132 19.574504186791323 L 68.26239289522069 19.55239289522069 L 68.24 19.53 " stroke="#191919" stroke-width="0.35 px" style="stroke-width:0.35;stroke-miterlimit:4;stroke-dasharray:none;fill:none;fill-opacity:1;fill-rule: evenodd"/>
<path id="Shape2DView_nwe0075"  d="M 68.44 20.23 L 68.44 19.73 " stroke="#191919" stroke-width="0.35 px" style="stroke-width:0.35;stroke-miterlimit:4;stroke-dasharray:none;fill:none;fill-opacity:1;fill-rule: evenodd"/>
<path id="Shape2DView_nwe0076"  d="M -26.760000000000268 -130.56999999999974 L -26.758742441978914 -130.5712575580211 L -26.754985582436625 -130.57501441756338 L -26.748776666061925 -130.58122333393808 L -26.740193773580724 -130.58980622641928 L -26.729344839845883 -130.60065516015413 L -26.716366296493817 -130.6136337035062 L -26.7014213562375 -130.62857864376252 L -26.684697960371913 -130.6453020396281 L -26.66640641530321 -130.6635935846968 L -26.646776747823626 -130.6832232521764 L -26.626055812391122 -130.7039441876089 L -26.60450418679132 -130.72549581320868 L -26.58239289522069 -130.74760710477932 L -26.56 -130.77 " stroke="#191919" stroke-width="0.35 px" style="stroke-width:0.35;stroke-miterlimit:4;stroke-dasharray:none;fill:none;fill-opacity:1;fill-rule: evenodd"/>
<path id="Shape2DView_nwe0077"  d="M -26.76 -130.57 L -26.26 -130.57 " stroke="#191919" stroke-width="0.35 px" style="stroke-width:0.35;stroke-miterlimit:4;stroke-dasharray:none;fill:none;fill-opacity:1;fill-rule: evenodd"/>
<path id="Shape2DView_nwe0078"  d="M 79.63999999999973 19.73000000000027 L 79.64125755802108 19.728742441978916 L 79.64501441756337 19.724985582436627 L 79.65122333393808 19.718776666061927 L 79.65980622641928 19.710193773580727 L 79.67065516015411 19.699344839845885 L 79.68363370350619 19.68636629649382 L 79.6985786437625 19.671421356237502 L 79.71530203962809 19.654697960371916 L 79.73359358469679 19.636406415303213 L 79.75322325217637 19.61677674782363 L 79.77394418760888 19.596055812391125 L 79.79549581320867 19.574504186791323 L 79.81760710477931 19.55239289522069 L 79.84 19.53 " stroke="#191919" stroke-width="0.35 px" style="stroke-width:0.35;stroke-miterlimit:4;stroke-dasharray:none;fill:none;fill-opacity:1;fill-rule: evenodd"/>
<path id="Shape2DView_nwe0079"  d="M 68.44 19.73 L 79.64 19.73 " stroke="#191919" stroke-width="0.35 px" style="stroke-width:0.35;stroke-miterlimit:4;stroke-dasharray:none;fill:none;fill-opacity:1;fill-rule: evenodd"/>
<path id="Shape2DView_nwe0080"  d="M -26.760000000000268 -149.77000000000027 L -26.758742441978914 -149.7687424419789 L -26.754985582436625 -149.76498558243662 L -26.748776666061925 -149.75877666606192 L -26.740193773580724 -149.75019377358072 L -26.729344839845883 -149.73934483984587 L -26.716366296493817 -149.7263662964938 L -26.7014213562375 -149.71142135623748 L -26.684697960371913 -149.6946979603719 L -26.66640641530321 -149.6764064153032 L -26.646776747823626 -149.6567767478236 L -26.626055812391122 -149.6360558123911 L -26.60450418679132 -149.61450418679132 L -26.58239289522069 -149.59239289522068 L -26.56 -149.57 " stroke="#191919" stroke-width="0.35 px" style="stroke-width:0.35;stroke-miterlimit:4;stroke-dasharray:none;fill:none;fill-opacity:1;fill-rule: evenodd"/>
<path id="Shape2DView_nwe0081"  d="M -26.76 -149.77 L -26.76 -130.57 " stroke="#191919" stroke-width="0.35 px" style="stroke-width:0.35;stroke-miterlimit:4;stroke-dasharray:none;fill:none;fill-opacity:1;fill-rule: evenodd"/>
<path id="Shape2DView_nwe0082"  d="M 79.63999999999973 20.23000000000027 L 79.64125755802108 20.228742441978916 L 79.64501441756337 20.224985582436627 L 79.65122333393808 20.218776666061927 L 79.65980622641928 20.210193773580727 L 79.67065516015411 20.199344839845885 L 79.68363370350619 20.18636629649382 L 79.6985786437625 20.171421356237502 L 79.71530203962809 20.154697960371916 L 79.73359358469679 20.136406415303213 L 79.75322325217637 20.11677674782363 L 79.77394418760888 20.096055812391125 L 79.79549581320867 20.074504186791323 L 79.81760710477931 20.05239289522069 L 79.84 20.03 " stroke="#191919" stroke-width="0.35 px" style="stroke-width:0.35;stroke-miterlimit:4;stroke-dasharray:none;fill:none;fill-opacity:1;fill-rule: evenodd"/>
<path id="Shape2DView_nwe0083"  d="M 79.64 19.73 L 79.64 20.23 " stroke="#191919" stroke-width="0.35 px" style="stroke-width:0.35;stroke-miterlimit:4;stroke-dasharray:none;fill:none;fill-opacity:1;fill-rule: evenodd"/>
<path id="Shape2DView_nwe0084"  d="M -21.15999999999973 -149.77000000000027 L -21.161257558021084 -149.7687424419789 L -21.165014417563373 -149.76498558243662 L -21.171223333938073 -149.75877666606192 L -21.179806226419274 -149.75019377358072 L -21.190655160154115 -149.73934483984587 L -21.20363370350618 -149.7263662964938 L -21.2185786437625 -149.71142135623748 L -21.235302039628085 -149.6946979603719 L -21.253593584696787 -149.6764064153032 L -21.273223252176372 -149.6567767478236 L -21.293944187608876 -149.6360558123911 L -21.315495813208678 -149.61450418679132 L -21.33760710477931 -149.59239289522068 L -21.36 -149.57 " stroke="#191919" stroke-width="0.35 px" style="stroke-width:0.35;stroke-miterlimit:4;stroke-dasharray:none;fill:none;fill-opacity:1;fill-rule: evenodd"/>
<path id="Shape2DView_nwe0085"  d="M -21.16 -149.77 L -26.76 -149.77 " stroke="#191919" stroke-width="0.35 px" style="stroke-width:0.35;stroke-miterlimit:4;stroke-dasharray:none;fill:none;fill-opacity:1;fill-rule: evenodd"/>
<path id="Shape2DView_nwe0086"  d="M 85.24000000000028 20.23000000000027 L 85.23874244197893 20.228742441978916 L 85.23498558243664 20.224985582436627 L 85.22877666606193 20.218776666061927 L 85.22019377358073 20.210193773580727 L 85.2093448398459 20.199344839845885 L 85.19636629649382 20.18636629649382 L 85.18142135623751 20.171421356237502 L 85.16469796037192 20.154697960371916 L 85.14640641530322 20.136406415303213 L 85.12677674782364 20.11677674782363 L 85.10605581239113 20.096055812391125 L 85.08450418679134 20.074504186791323 L 85.0623928952207 20.05239289522069 L 85.04 20.03 " stroke="#191919" stroke-width="0.35 px" style="stroke-width:0.35;stroke-miterlimit:4;stroke-dasharray:none;fill:none;fill-opacity:1;fill-rule: evenodd"/>
<path id="Shape2DView_nwe0087"  d="M 79.64 20.23 L 85.24 20.23 " stroke="#191919" stroke-width="0.35 px" style="stroke-width:0.35;stroke-miterlimit:4;stroke-dasharray:none;fill:none;fill-opacity:1;fill-rule: evenodd"/>
<path id="Shape2DView_nwe0088"  d="M -21.15999999999973 -149.27000000000027 L -21.161257558021084 -149.2687424419789 L -21.165014417563373 -149.26498558243662 L -21.171223333938073 -149.25877666606192 L -21.179806226419274 -149.25019377358072 L -21.190655160154115 -149.23934483984587 L -21.20363370350618 -149.2263662964938 L -21.2185786437625 -149.21142135623748 L -21.235302039628085 -149.1946979603719 L -21.253593584696787 -149.1764064153032 L -21.273223252176372 -149.1567767478236 L -21.293944187608876 -149.1360558123911 L -21.315495813208678 -149.11450418679132 L -21.33760710477931 -149.09239289522068 L -21.36 -149.07 " stroke="#191919" stroke-width="0.35 px" style="stroke-width:0.35;stroke-miterlimit:4;stroke-dasharray:none;fill:none;fill-opacity:1;fill-rule: evenodd"/>
<path id="Shape2DView_nwe0089"  d="M -21.16 -149.27 L -21.16 -149.77 " stroke="#191919" stroke-width="0.35 px" style="stroke-width:0.35;stroke-miterlimit:4;stroke-dasharray:none;fill:none;fill-opacity:1;fill-rule: evenodd"/>
<path id="Shape2DView_nwe0090"  d="M 85.24000000000028 1.0299999999997307 L 85.23874244197893 1.0312575580210837 L 85.23498558243664 1.0350144175633726 L 85.22877666606193 1.041223333938072 L 85.22019377358073 1.0498062264192733 L 85.2093448398459 1.060655160154115 L 85.19636629649382 1.0736337035061834 L 85.18142135623751 1.0885786437625 L 85.16469796037192 1.1053020396280853 L 85.14640641530322 1.1235935846967893 L 85.12677674782364 1.1432232521763714 L 85.10605581239113 1.1639441876088776 L 85.08450418679134 1.1854958132086773 L 85.0623928952207 1.2076071047793082 L 85.04 1.23 " stroke="#191919" stroke-width="0.35 px" style="stroke-width:0.35;stroke-miterlimit:4;stroke-dasharray:none;fill:none;fill-opacity:1;fill-rule: evenodd"/>
<path id="Shape2DView_nwe0091"  d="M 85.24 20.23 L 85.24 1.0300000000000011 " stroke="#191919" stroke-width="0.35 px" style="stroke-width:0.35;stroke-miterlimit:4;stroke-dasharray:none;fill:none;fill-opacity:1;fill-rule: evenodd"/>
<path id="Shape2DView_nwe0092"  d="M -9.960000000000269 -149.27000000000027 L -9.958742441978917 -149.2687424419789 L -9.954985582436628 -149.26498558243662 L -9.948776666061928 -149.25877666606192 L -9.940193773580726 -149.25019377358072 L -9.929344839845884 -149.23934483984587 L -9.916366296493816 -149.2263662964938 L -9.901421356237499 -149.21142135623748 L -9.884697960371915 -149.1946979603719 L -9.86640641530321 -149.1764064153032 L -9.846776747823629 -149.1567767478236 L -9.826055812391122 -149.1360558123911 L -9.804504186791323 -149.11450418679132 L -9.782392895220692 -149.09239289522068 L -9.76 -149.07 " stroke="#191919" stroke-width="0.35 px" style="stroke-width:0.35;stroke-miterlimit:4;stroke-dasharray:none;fill:none;fill-opacity:1;fill-rule: evenodd"/>
<path id="Shape2DView_nwe0093"  d="M -9.96 -149.27 L -21.16 -149.27 " stroke="#191919" stroke-width="0.35 px" style="stroke-width:0.35;stroke-miterlimit:4;stroke-dasharray:none;fill:none;fill-opacity:1;fill-rule: evenodd"/>
<path id="Shape2DView_nwe0094"  d="M 84.74000000000028 1.0299999999997307 L 84.73874244197893 1.0312575580210837 L 84.73498558243664 1.0350144175633726 L 84.72877666606193 1.041223333938072 L 84.72019377358073 1.0498062264192733 L 84.7093448398459 1.060655160154115 L 84.69636629649382 1.0736337035061834 L 84.68142135623751 1.0885786437625 L 84.66469796037192 1.1053020396280853 L 84.64640641530322 1.1235935846967893 L 84.62677674782364 1.1432232521763714 L 84.60605581239113 1.1639441876088776 L 84.58450418679134 1.185495813208677 L 84.5623928952207 1.2076071047793082 L 84.54 1.23 " stroke="#191919" stroke-width="0.35 px" style="stroke-width:0.35;stroke-miterlimit:4;stroke-dasharray:none;fill:none;fill-opacity:1;fill-rule: evenodd"/>
<path id="Shape2DView_nwe0095"  d="M 85.24 1.03 L 84.74 1.03 " stroke="#191919" stroke-width="0.35 px" style="stroke-width:0.35;stroke-miterlimit:4;stroke-dasharray:none;fill:none;fill-opacity:1;fill-rule: evenodd"/>
<path id="Shape2DView_nwe0096"  d="M -9.960000000000269 -149.77000000000027 L -9.958742441978917 -149.7687424419789 L -9.954985582436628 -149.76498558243662 L -9.948776666061928 -149.75877666606192 L -9.940193773580726 -149.75019377358072 L -9.929344839845884 -149.73934483984587 L -9.916366296493816 -149.7263662964938 L -9.901421356237499 -149.71142135623748 L -9.884697960371915 -149.6946979603719 L -9.86640641530321 -149.6764064153032 L -9.846776747823629 -149.6567767478236 L -9.826055812391122 -149.6360558123911 L -9.804504186791323 -149.61450418679132 L -9.782392895220692 -149.59239289522068 L -9.76 -149.57 " stroke="#191919" stroke-width="0.35 px" style="stroke-width:0.35;stroke-miterlimit:4;stroke-dasharray:none;fill:none;fill-opacity:1;fill-rule: evenodd"/>
<path id="Shape2DView_nwe0097"  d="M -9.96 -149.77 L -9.96 -149.27 " stroke="#191919" stroke-width="0.35 px" style="stroke-width:0.35;stroke-miterlimit:4;stroke-dasharray:none;fill:none;fill-opacity:1;fill-rule: evenodd"/>
<path id="Shape2DView_nwe0098"  d="M 84.74000000000028 -17.76999999999973 L 84.73874244197893 -17.771257558021084 L 84.73498558243664 -17.775014417563373 L 84.72877666606193 -17.781223333938073 L 84.72019377358073 -17.789806226419273 L 84.7093448398459 -17.800655160154115 L 84.69636629649382 -17.81363370350618 L 84.68142135623751 -17.828578643762498 L 84.66469796037192 -17.845302039628084 L 84.64640641530322 -17.863593584696787 L 84.62677674782364 -17.88322325217637 L 84.60605581239113 -17.903944187608875 L 84.58450418679134 -17.925495813208677 L 84.5623928952207 -17.94760710477931 L 84.54 -17.97 " stroke="#191919" stroke-width="0.35 px" style="stroke-width:0.35;stroke-miterlimit:4;stroke-dasharray:none;fill:none;fill-opacity:1;fill-rule: evenodd"/>
<path id="Shape2DView_nwe0099"  d="M 84.74 1.03 L 84.74 -17.77 " stroke="#191919" stroke-width="0.35 px" style="stroke-width:0.35;stroke-miterlimit:4;stroke-dasharray:none;fill:none;fill-opacity:1;fill-rule: evenodd"/>
<path id="Shape2DView_nwe0100"  d="M 1.2400000000002693 -149.77000000000027 L 1.2387424419789164 -149.7687424419789 L 1.2349855824366274 -149.76498558243662 L 1.228776666061928 -149.75877666606192 L 1.2201937735807267 -149.75019377358072 L 1.209344839845885 -149.73934483984587 L 1.1963662964938166 -149.7263662964938 L 1.1814213562375 -149.71142135623748 L 1.1646979603719148 -149.6946979603719 L 1.1464064153032107 -149.6764064153032 L 1.1267767478236286 -149.6567767478236 L 1.1060558123911224 -149.6360558123911 L 1.0845041867913228 -149.61450418679132 L 1.0623928952206918 -149.59239289522068 L 1.04 -149.57 " stroke="#191919" stroke-width="0.35 px" style="stroke-width:0.35;stroke-miterlimit:4;stroke-dasharray:none;fill:none;fill-opacity:1;fill-rule: evenodd"/>
<path id="Shape2DView_nwe0101"  d="M 1.24 -149.77 L -9.96 -149.77 " stroke="#191919" stroke-width="0.35 px" style="stroke-width:0.35;stroke-miterlimit:4;stroke-dasharray:none;fill:none;fill-opacity:1;fill-rule: evenodd"/>
<path id="Shape2DView_nwe0102"  d="M 85.24000000000028 -17.76999999999973 L 85.23874244197893 -17.771257558021084 L 85.23498558243664 -17.775014417563373 L 85.22877666606193 -17.781223333938073 L 85.22019377358073 -17.789806226419273 L 85.2093448398459 -17.800655160154115 L 85.19636629649382 -17.81363370350618 L 85.18142135623751 -17.828578643762498 L 85.16469796037192 -17.845302039628084 L 85.14640641530322 -17.863593584696787 L 85.12677674782364 -17.88322325217637 L 85.10605581239113 -17.903944187608875 L 85.08450418679134 -17.925495813208677 L 85.0623928952207 -17.94760710477931 L 85.04 -17.97 " stroke="#191919" stroke-width="0.35 px" style="stroke-width:0.35;stroke-miterlimit:4;stroke-dasharray:none;fill:none;fill-opacity:1;fill-rule: evenodd"/>
<path id="Shape2DView_nwe0103"  d="M 84.74 -17.77 L 85.24 -17.770000000000003 " stroke="#191919" stroke-width="0.35 px" style="stroke-width:0.35;stroke-miterlimit:4;stroke-dasharray:none;fill:none;fill-opacity:1;fill-rule: evenodd"/>
<path id="Shape2DView_nwe0104"  d="M 1.2400000000002693 -149.27000000000027 L 1.2387424419789164 -149.2687424419789 L 1.2349855824366274 -149.26498558243662 L 1.228776666061928 -149.25877666606192 L 1.2201937735807267 -149.25019377358072 L 1.209344839845885 -149.23934483984587 L 1.1963662964938166 -149.2263662964938 L 1.1814213562375 -149.21142135623748 L 1.1646979603719148 -149.1946979603719 L 1.1464064153032107 -149.1764064153032 L 1.1267767478236286 -149.1567767478236 L 1.1060558123911224 -149.1360558123911 L 1.084504186791323 -149.11450418679132 L 1.0623928952206918 -149.09239289522068 L 1.04 -149.07 " stroke="#191919" stroke-width="0.35 px" style="stroke-width:0.35;stroke-miterlimit:4;stroke-dasharray:none;fill:none;fill-opacity:1;fill-rule: evenodd"/>
<path id="Shape2DView_nwe0105"  d="M 1.24 -149.27 L 1.24 -149.77 " stroke="#191919" stroke-width="0.35 px" style="stroke-width:0.35;stroke-miterlimit:4;stroke-dasharray:none;fill:none;fill-opacity:1;fill-rule: evenodd"/>
<path id="Shape2DView_nwe0106"  d="M 85.24000000000028 -36.57000000000027 L 85.23874244197893 -36.56874244197891 L 85.23498558243664 -36.56498558243663 L 85.22877666606193 -36.558776666061924 L 85.22019377358073 -36.55019377358072 L 85.2093448398459 -36.53934483984588 L 85.19636629649382 -36.52636629649381 L 85.18142135623751 -36.5114213562375 L 85.16469796037192 -36.49469796037191 L 85.14640641530322 -36.47640641530321 L 85.12677674782364 -36.456776747823625 L 85.10605581239113 -36.43605581239112 L 85.08450418679134 -36.41450418679132 L 85.0623928952207 -36.39239289522069 L 85.04 -36.37 " stroke="#191919" stroke-width="0.35 px" style="stroke-width:0.35;stroke-miterlimit:4;stroke-dasharray:none;fill:none;fill-opacity:1;fill-rule: evenodd"/>
<path id="Shape2DView_nwe0107"  d="M 85.24 -17.77 L 85.24 -36.57 " stroke="#191919" stroke-width="0.35 px" style="stroke-width:0.35;stroke-miterlimit:4;stroke-dasharray:none;fill:none;fill-opacity:1;fill-rule: evenodd"/>
<path id="Shape2DView_nwe0108"  d="M 12.439999999999731 -149.27000000000027 L 12.441257558021084 -149.2687424419789 L 12.445014417563373 -149.26498558243662 L 12.451223333938072 -149.25877666606192 L 12.459806226419275 -149.25019377358072 L 12.470655160154116 -149.23934483984587 L 12.483633703506184 -149.2263662964938 L 12.498578643762501 -149.21142135623748 L 12.515302039628086 -149.1946979603719 L 12.53359358469679 -149.1764064153032 L 12.553223252176371 -149.1567767478236 L 12.573944187608879 -149.1360558123911 L 12.595495813208677 -149.11450418679132 L 12.617607104779308 -149.09239289522068 L 12.64 -149.07 " stroke="#191919" stroke-width="0.35 px" style="stroke-width:0.35;stroke-miterlimit:4;stroke-dasharray:none;fill:none;fill-opacity:1;fill-rule: evenodd"/>
<path id="Shape2DView_nwe0109"  d="M 12.44 -149.27 L 1.2400000000000002 -149.27 " stroke="#191919" stroke-width="0.35 px" style="stroke-width:0.35;stroke-miterlimit:4;stroke-dasharray:none;fill:none;fill-opacity:1;fill-rule: evenodd"/>
<path id="Shape2DView_nwe0110"  d="M 84.74000000000028 -36.57000000000027 L 84.73874244197893 -36.56874244197891 L 84.73498558243664 -36.56498558243663 L 84.72877666606193 -36.558776666061924 L 84.72019377358073 -36.55019377358072 L 84.7093448398459 -36.53934483984588 L 84.69636629649382 -36.52636629649381 L 84.68142135623751 -36.5114213562375 L 84.66469796037192 -36.49469796037191 L 84.64640641530322 -36.47640641530321 L 84.62677674782364 -36.456776747823625 L 84.60605581239113 -36.43605581239112 L 84.58450418679134 -36.41450418679132 L 84.5623928952207 -36.39239289522069 L 84.54 -36.37 " stroke="#191919" stroke-width="0.35 px" style="stroke-width:0.35;stroke-miterlimit:4;stroke-dasharray:none;fill:none;fill-opacity:1;fill-rule: evenodd"/>
<path id="Shape2DView_nwe0111"  d="M 85.24 -36.57 L 84.74 -36.57 " stroke="#191919" stroke-width="0.35 px" style="stroke-width:0.35;stroke-miterlimit:4;stroke-dasharray:none;fill:none;fill-opacity:1;fill-rule: evenodd"/>
<path id="Shape2DView_nwe0112"  d="M 12.439999999999731 -149.77000000000027 L 12.441257558021084 -149.7687424419789 L 12.445014417563373 -149.76498558243662 L 12.451223333938072 -149.75877666606192 L 12.459806226419275 -149.75019377358072 L 12.470655160154116 -149.73934483984587 L 12.483633703506184 -149.7263662964938 L 12.498578643762501 -149.71142135623748 L 12.515302039628086 -149.6946979603719 L 12.53359358469679 -149.6764064153032 L 12.553223252176371 -149.6567767478236 L 12.573944187608879 -149.6360558123911 L 12.595495813208677 -149.61450418679132 L 12.617607104779308 -149.59239289522068 L 12.64 -149.57 " stroke="#191919" stroke-width="0.35 px" style="stroke-width:0.35;stroke-miterlimit:4;stroke-dasharray:none;fill:none;fill-opacity:1;fill-rule: evenodd"/>
<path id="Shape2DView_nwe0113"  d="M 12.44 -149.77 L 12.44 -149.27 " stroke="#191919" stroke-width="0.35 px" style="stroke-width:0.35;stroke-miterlimit:4;stroke-dasharray:none;fill:none;fill-opacity:1;fill-rule: evenodd"/>
<path id="Shape2DView_nwe0114"  d="M 84.74000000000028 -55.36999999999973 L 84.73874244197893 -55.371257558021085 L 84.73498558243664 -55.37501441756337 L 84.72877666606193 -55.381223333938074 L 84.72019377358073 -55.389806226419275 L 84.7093448398459 -55.400655160154116 L 84.69636629649382 -55.413633703506186 L 84.68142135623751 -55.4285786437625 L 84.66469796037192 -55.44530203962809 L 84.64640641530322 -55.46359358469679 L 84.62677674782364 -55.48322325217637 L 84.60605581239113 -55.50394418760888 L 84.58450418679134 -55.52549581320868 L 84.5623928952207 -55.54760710477931 L 84.54 -55.57 " stroke="#191919" stroke-width="0.35 px" style="stroke-width:0.35;stroke-miterlimit:4;stroke-dasharray:none;fill:none;fill-opacity:1;fill-rule: evenodd"/>
<path id="Shape2DView_nwe0115"  d="M 84.74 -36.57 L 84.74 -55.37 " stroke="#191919" stroke-width="0.35 px" style="stroke-width:0.35;stroke-miterlimit:4;stroke-dasharray:none;fill:none;fill-opacity:1;fill-rule: evenodd"/>
<path id="Shape2DView_nwe0116"  d="M 23.64000000000027 -149.77000000000027 L 23.638742441978916 -149.7687424419789 L 23.634985582436627 -149.76498558243662 L 23.628776666061928 -149.75877666606192 L 23.620193773580727 -149.75019377358072 L 23.609344839845885 -149.73934483984587 L 23.59636629649382 -149.7263662964938 L 23.581421356237502 -149.71142135623748 L 23.564697960371916 -149.6946979603719 L 23.546406415303213 -149.6764064153032 L 23.52677674782363 -149.6567767478236 L 23.506055812391125 -149.6360558123911 L 23.484504186791323 -149.61450418679132 L 23.46239289522069 -149.59239289522068 L 23.44 -149.57 " stroke="#191919" stroke-width="0.35 px" style="stroke-width:0.35;stroke-miterlimit:4;stroke-dasharray:none;fill:none;fill-opacity:1;fill-rule: evenodd"/>
<path id="Shape2DView_nwe0117"  d="M 23.64 -149.77 L 12.44 -149.77 " stroke="#191919" stroke-width="0.35 px" style="stroke-width:0.35;stroke-miterlimit:4;stroke-dasharray:none;fill:none;fill-opacity:1;fill-rule: evenodd"/>
<path id="Shape2DView_nwe0118"  d="M 85.24000000000028 -55.36999999999973 L 85.23874244197893 -55.371257558021085 L 85.23498558243664 -55.37501441756337 L 85.22877666606193 -55.381223333938074 L 85.22019377358073 -55.389806226419275 L 85.2093448398459 -55.400655160154116 L 85.19636629649382 -55.413633703506186 L 85.18142135623751 -55.4285786437625 L 85.16469796037192 -55.44530203962809 L 85.14640641530322 -55.46359358469679 L 85.12677674782364 -55.48322325217637 L 85.10605581239113 -55.50394418760888 L 85.08450418679134 -55.52549581320868 L 85.0623928952207 -55.54760710477931 L 85.04 -55.57 " stroke="#191919" stroke-width="0.35 px" style="stroke-width:0.35;stroke-miterlimit:4;stroke-dasharray:none;fill:none;fill-opacity:1;fill-rule: evenodd"/>
<path id="Shape2DView_nwe0119"  d="M 84.74 -55.37 L 85.24 -55.37 " stroke="#191919" stroke-width="0.35 px" style="stroke-width:0.35;stroke-miterlimit:4;stroke-dasharray:none;fill:none;fill-opacity:1;fill-rule: evenodd"/>
<path id="Shape2DView_nwe0120"  d="M 23.64000000000027 -149.27000000000027 L 23.638742441978916 -149.2687424419789 L 23.634985582436627 -149.26498558243662 L 23.628776666061928 -149.25877666606192 L 23.620193773580727 -149.25019377358072 L 23.609344839845885 -149.23934483984587 L 23.59636629649382 -149.2263662964938 L 23.581421356237502 -149.21142135623748 L 23.564697960371916 -149.1946979603719 L 23.546406415303213 -149.1764064153032 L 23.52677674782363 -149.1567767478236 L 23.506055812391125 -149.1360558123911 L 23.484504186791323 -149.11450418679132 L 23.46239289522069 -149.09239289522068 L 23.44 -149.07 " stroke="#191919" stroke-width="0.35 px" style="stroke-width:0.35;stroke-miterlimit:4;stroke-dasharray:none;fill:none;fill-opacity:1;fill-rule: evenodd"/>
<path id="Shape2DView_nwe0121"  d="M 23.64 -149.27 L 23.64 -149.77 " stroke="#191919" stroke-width="0.35 px" style="stroke-width:0.35;stroke-miterlimit:4;stroke-dasharray:none;fill:none;fill-opacity:1;fill-rule: evenodd"/>
<path id="Shape2DView_nwe0122"  d="M 85.24000000000028 -74.17000000000027 L 85.23874244197893 -74.16874244197892 L 85.23498558243664 -74.16498558243663 L 85.22877666606193 -74.15877666606193 L 85.22019377358073 -74.15019377358072 L 85.2093448398459 -74.13934483984589 L 85.19636629649382 -74.12636629649381 L 85.18142135623751 -74.1114213562375 L 85.16469796037192 -74.09469796037192 L 85.14640641530322 -74.07640641530321 L 85.12677674782364 -74.05677674782363 L 85.10605581239113 -74.03605581239113 L 85.08450418679134 -74.01450418679133 L 85.0623928952207 -73.99239289522069 L 85.04 -73.97 " stroke="#191919" stroke-width="0.35 px" style="stroke-width:0.35;stroke-miterlimit:4;stroke-dasharray:none;fill:none;fill-opacity:1;fill-rule: evenodd"/>
<path id="Shape2DView_nwe0123"  d="M 85.24 -55.37 L 85.24 -74.17 " stroke="#191919" stroke-width="0.35 px" style="stroke-width:0.35;stroke-miterlimit:4;stroke-dasharray:none;fill:none;fill-opacity:1;fill-rule: evenodd"/>
<path id="Shape2DView_nwe0124"  d="M 34.839999999999726 -149.27000000000027 L 34.841257558021084 -149.2687424419789 L 34.84501441756337 -149.26498558243662 L 34.85122333393807 -149.25877666606192 L 34.85980622641927 -149.25019377358072 L 34.870655160154115 -149.23934483984587 L 34.883633703506185 -149.2263662964938 L 34.8985786437625 -149.21142135623748 L 34.91530203962809 -149.1946979603719 L 34.93359358469679 -149.1764064153032 L 34.95322325217637 -149.1567767478236 L 34.97394418760888 -149.1360558123911 L 34.99549581320868 -149.11450418679132 L 35.01760710477931 -149.09239289522068 L 35.04 -149.07 " stroke="#191919" stroke-width="0.35 px" style="stroke-width:0.35;stroke-miterlimit:4;stroke-dasharray:none;fill:none;fill-opacity:1;fill-rule: evenodd"/>
<path id="Shape2DView_nwe0125"  d="M 34.84 -149.27 L 23.64 -149.27 " stroke="#191919" stroke-width="0.35 px" style="stroke-width:0.35;stroke-miterlimit:4;stroke-dasharray:none;fill:none;fill-opacity:1;fill-rule: evenodd"/>
<path id="Shape2DView_nwe0126"  d="M 84.74000000000028 -74.17000000000027 L 84.73874244197893 -74.16874244197892 L 84.73498558243664 -74.16498558243663 L 84.72877666606193 -74.15877666606193 L 84.72019377358073 -74.15019377358072 L 84.7093448398459 -74.13934483984589 L 84.69636629649382 -74.12636629649381 L 84.68142135623751 -74.1114213562375 L 84.66469796037192 -74.09469796037192 L 84.64640641530322 -74.07640641530321 L 84.62677674782364 -74.05677674782363 L 84.60605581239113 -74.03605581239113 L 84.58450418679134 -74.01450418679133 L 84.5623928952207 -73.99239289522069 L 84.54 -73.97 " stroke="#191919" stroke-width="0.35 px" style="stroke-width:0.35;stroke-miterlimit:4;stroke-dasharray:none;fill:none;fill-opacity:1;fill-rule: evenodd"/>
<path id="Shape2DView_nwe0127"  d="M 85.24 -74.17 L 84.74 -74.17 " stroke="#191919" stroke-width="0.35 px" style="stroke-width:0.35;stroke-miterlimit:4;stroke-dasharray:none;fill:none;fill-opacity:1;fill-rule: evenodd"/>
<path id="Shape2DView_nwe0128"  d="M 34.839999999999726 -149.77000000000027 L 34.841257558021084 -149.7687424419789 L 34.84501441756337 -149.76498558243662 L 34.85122333393807 -149.75877666606192 L 34.85980622641927 -149.75019377358072 L 34.870655160154115 -149.73934483984587 L 34.883633703506185 -149.7263662964938 L 34.8985786437625 -149.71142135623748 L 34.91530203962809 -149.6946979603719 L 34.93359358469679 -149.6764064153032 L 34.95322325217637 -149.6567767478236 L 34.97394418760888 -149.6360558123911 L 34.99549581320868 -149.61450418679132 L 35.01760710477931 -149.59239289522068 L 35.04 -149.57 " stroke="#191919" stroke-width="0.35 px" style="stroke-width:0.35;stroke-miterlimit:4;stroke-dasharray:none;fill:none;fill-opacity:1;fill-rule: evenodd"/>
<path id="Shape2DView_nwe0129"  d="M 34.84 -149.77 L 34.84 -149.27 " stroke="#191919" stroke-width="0.35 px" style="stroke-width:0.35;stroke-miterlimit:4;stroke-dasharray:none;fill:none;fill-opacity:1;fill-rule: evenodd"/>
<path id="Shape2DView_nwe0130"  d="M 84.74000000000028 -92.96999999999973 L 84.73874244197893 -92.97125755802108 L 84.73498558243664 -92.97501441756337 L 84.72877666606193 -92.98122333393808 L 84.72019377358073 -92.98980622641928 L 84.7093448398459 -93.00065516015411 L 84.69636629649382 -93.01363370350619 L 84.68142135623751 -93.0285786437625 L 84.66469796037192 -93.04530203962808 L 84.64640641530322 -93.06359358469679 L 84.62677674782364 -93.08322325217637 L 84.60605581239113 -93.10394418760887 L 84.58450418679134 -93.12549581320867 L 84.5623928952207 -93.14760710477931 L 84.54 -93.17 " stroke="#191919" stroke-width="0.35 px" style="stroke-width:0.35;stroke-miterlimit:4;stroke-dasharray:none;fill:none;fill-opacity:1;fill-rule: evenodd"/>
<path id="Shape2DView_nwe0131"  d="M 84.74 -74.17 L 84.74 -92.97 " stroke="#191919" stroke-width="0.35 px" style="stroke-width:0.35;stroke-miterlimit:4;stroke-dasharray:none;fill:none;fill-opacity:1;fill-rule: evenodd"/>
<path id="Shape2DView_nwe0132"  d="M 46.040000000000276 -149.77000000000027 L 46.03874244197892 -149.7687424419789 L 46.03498558243663 -149.76498558243662 L 46.02877666606193 -149.75877666606192 L 46.02019377358073 -149.75019377358072 L 46.00934483984589 -149.73934483984587 L 45.99636629649382 -149.7263662964938 L 45.981421356237504 -149.71142135623748 L 45.964697960371915 -149.6946979603719 L 45.946406415303215 -149.6764064153032 L 45.92677674782363 -149.6567767478236 L 45.90605581239112 -149.6360558123911 L 45.884504186791325 -149.61450418679132 L 45.862392895220694 -149.59239289522068 L 45.84 -149.57 " stroke="#191919" stroke-width="0.35 px" style="stroke-width:0.35;stroke-miterlimit:4;stroke-dasharray:none;fill:none;fill-opacity:1;fill-rule: evenodd"/>
<path id="Shape2DView_nwe0133"  d="M 46.04 -149.77 L 34.84 -149.77 " stroke="#191919" stroke-width="0.35 px" style="stroke-width:0.35;stroke-miterlimit:4;stroke-dasharray:none;fill:none;fill-opacity:1;fill-rule: evenodd"/>
<path id="Shape2DView_nwe0134"  d="M 85.24000000000028 -92.96999999999973 L 85.23874244197893 -92.97125755802108 L 85.23498558243664 -92.97501441756337 L 85.22877666606193 -92.98122333393808 L 85.22019377358073 -92.98980622641928 L 85.2093448398459 -93.00065516015411 L 85.19636629649382 -93.01363370350619 L 85.18142135623751 -93.0285786437625 L 85.16469796037192 -93.04530203962808 L 85.14640641530322 -93.06359358469679 L 85.12677674782364 -93.08322325217637 L 85.10605581239113 -93.10394418760887 L 85.08450418679134 -93.12549581320867 L 85.0623928952207 -93.14760710477931 L 85.04 -93.17 " stroke="#191919" stroke-width="0.35 px" style="stroke-width:0.35;stroke-miterlimit:4;stroke-dasharray:none;fill:none;fill-opacity:1;fill-rule: evenodd"/>
<path id="Shape2DView_nwe0135"  d="M 84.74 -92.97 L 85.24 -92.97 " stroke="#191919" stroke-width="0.35 px" style="stroke-width:0.35;stroke-miterlimit:4;stroke-dasharray:none;fill:none;fill-opacity:1;fill-rule: evenodd"/>
<path id="Shape2DView_nwe0136"  d="M 46.040000000000276 -149.27000000000027 L 46.03874244197892 -149.2687424419789 L 46.03498558243663 -149.26498558243662 L 46.02877666606193 -149.25877666606192 L 46.02019377358073 -149.25019377358072 L 46.00934483984589 -149.23934483984587 L 45.99636629649382 -149.2263662964938 L 45.981421356237504 -149.21142135623748 L 45.96469796037192 -149.1946979603719 L 45.946406415303215 -149.1764064153032 L 45.92677674782363 -149.1567767478236 L 45.90605581239112 -149.1360558123911 L 45.884504186791325 -149.11450418679132 L 45.862392895220694 -149.09239289522068 L 45.84 -149.07 " stroke="#191919" stroke-width="0.35 px" style="stroke-width:0.35;stroke-miterlimit:4;stroke-dasharray:none;fill:none;fill-opacity:1;fill-rule: evenodd"/>
<path id="Shape2DView_nwe0137"  d="M 46.04 -149.27 L 46.04 -149.77 " stroke="#191919" stroke-width="0.35 px" style="stroke-width:0.35;stroke-miterlimit:4;stroke-dasharray:none;fill:none;fill-opacity:1;fill-rule: evenodd"/>
<path id="Shape2DView_nwe0138"  d="M 85.24000000000028 -111.77000000000027 L 85.23874244197893 -111.76874244197892 L 85.23498558243664 -111.76498558243662 L 85.22877666606193 -111.75877666606192 L 85.22019377358073 -111.75019377358072 L 85.2093448398459 -111.73934483984588 L 85.19636629649382 -111.72636629649381 L 85.18142135623751 -111.7114213562375 L 85.16469796037192 -111.69469796037191 L 85.14640641530322 -111.6764064153032 L 85.12677674782364 -111.65677674782363 L 85.10605581239113 -111.63605581239112 L 85.08450418679134 -111.61450418679132 L 85.0623928952207 -111.59239289522068 L 85.04 -111.57 " stroke="#191919" stroke-width="0.35 px" style="stroke-width:0.35;stroke-miterlimit:4;stroke-dasharray:none;fill:none;fill-opacity:1;fill-rule: evenodd"/>
<path id="Shape2DView_nwe0139"  d="M 85.24 -92.97 L 85.24 -111.77 " stroke="#191919" stroke-width="0.35 px" style="stroke-width:0.35;stroke-miterlimit:4;stroke-dasharray:none;fill:none;fill-opacity:1;fill-rule: evenodd"/>
<path id="Shape2DView_nwe0140"  d="M 57.239999999999725 -149.27000000000027 L 57.24125755802108 -149.2687424419789 L 57.24501441756337 -149.26498558243662 L 57.25122333393807 -149.25877666606192 L 57.25980622641927 -149.25019377358072 L 57.270655160154114 -149.23934483984587 L 57.28363370350618 -149.2263662964938 L 57.2985786437625 -149.21142135623748 L 57.31530203962808 -149.1946979603719 L 57.333593584696786 -149.1764064153032 L 57.35322325217637 -149.1567767478236 L 57.37394418760888 -149.1360558123911 L 57.395495813208676 -149.11450418679132 L 57.41760710477931 -149.09239289522068 L 57.44 -149.07 " stroke="#191919" stroke-width="0.35 px" style="stroke-width:0.35;stroke-miterlimit:4;stroke-dasharray:none;fill:none;fill-opacity:1;fill-rule: evenodd"/>
<path id="Shape2DView_nwe0141"  d="M 57.24 -149.27 L 46.04 -149.27 " stroke="#191919" stroke-width="0.35 px" style="stroke-width:0.35;stroke-miterlimit:4;stroke-dasharray:none;fill:none;fill-opacity:1;fill-rule: evenodd"/>
<path id="Shape2DView_nwe0142"  d="M 84.74000000000028 -111.77000000000027 L 84.73874244197893 -111.76874244197892 L 84.73498558243664 -111.76498558243662 L 84.72877666606193 -111.75877666606192 L 84.72019377358073 -111.75019377358072 L 84.7093448398459 -111.73934483984588 L 84.69636629649382 -111.72636629649381 L 84.68142135623751 -111.7114213562375 L 84.66469796037192 -111.69469796037191 L 84.64640641530322 -111.6764064153032 L 84.62677674782364 -111.65677674782363 L 84.60605581239113 -111.63605581239112 L 84.58450418679134 -111.61450418679132 L 84.5623928952207 -111.59239289522068 L 84.54 -111.57 " stroke="#191919" stroke-width="0.35 px" style="stroke-width:0.35;stroke-miterlimit:4;stroke-dasharray:none;fill:none;fill-opacity:1;fill-rule: evenodd"/>
<path id="Shape2DView_nwe0143"  d="M 85.24 -111.77 L 84.74 -111.77 " stroke="#191919" stroke-width="0.35 px" style="stroke-width:0.35;stroke-miterlimit:4;stroke-dasharray:none;fill:none;fill-opacity:1;fill-rule: evenodd"/>
<path id="Shape2DView_nwe0144"  d="M 57.239999999999725 -149.77000000000027 L 57.24125755802108 -149.7687424419789 L 57.24501441756337 -149.76498558243662 L 57.25122333393807 -149.75877666606192 L 57.25980622641927 -149.75019377358072 L 57.270655160154114 -149.73934483984587 L 57.28363370350618 -149.7263662964938 L 57.2985786437625 -149.71142135623748 L 57.31530203962809 -149.6946979603719 L 57.333593584696786 -149.6764064153032 L 57.35322325217637 -149.6567767478236 L 57.37394418760888 -149.6360558123911 L 57.395495813208676 -149.61450418679132 L 57.41760710477931 -149.59239289522068 L 57.44 -149.57 " stroke="#191919" stroke-width="0.35 px" style="stroke-width:0.35;stroke-miterlimit:4;stroke-dasharray:none;fill:none;fill-opacity:1;fill-rule: evenodd"/>
<path id="Shape2DView_nwe0145"  d="M 57.24 -149.77 L 57.24 -149.27 " stroke="#191919" stroke-width="0.35 px" style="stroke-width:0.35;stroke-miterlimit:4;stroke-dasharray:none;fill:none;fill-opacity:1;fill-rule: evenodd"/>
<path id="Shape2DView_nwe0146"  d="M 84.74000000000028 -130.56999999999974 L 84.73874244197893 -130.5712575580211 L 84.73498558243664 -130.57501441756338 L 84.72877666606193 -130.58122333393808 L 84.72019377358073 -130.58980622641928 L 84.7093448398459 -130.60065516015413 L 84.69636629649382 -130.6136337035062 L 84.68142135623751 -130.62857864376252 L 84.66469796037192 -130.6453020396281 L 84.64640641530322 -130.6635935846968 L 84.62677674782364 -130.6832232521764 L 84.60605581239113 -130.7039441876089 L 84.58450418679134 -130.72549581320868 L 84.5623928952207 -130.74760710477932 L 84.54 -130.77 " stroke="#191919" stroke-width="0.35 px" style="stroke-width:0.35;stroke-miterlimit:4;stroke-dasharray:none;fill:none;fill-opacity:1;fill-rule: evenodd"/>
<path id="Shape2DView_nwe0147"  d="M 84.74 -111.77 L 84.74 -130.57 " stroke="#191919" stroke-width="0.35 px" style="stroke-width:0.35;stroke-miterlimit:4;stroke-dasharray:none;fill:none;fill-opacity:1;fill-rule: evenodd"/>
<path id="Shape2DView_nwe0148"  d="M 68.44000000000027 -149.77000000000027 L 68.43874244197892 -149.7687424419789 L 68.43498558243662 -149.76498558243662 L 68.42877666606192 -149.75877666606192 L 68.42019377358072 -149.75019377358072 L 68.40934483984589 -149.73934483984587 L 68.39636629649381 -149.7263662964938 L 68.3814213562375 -149.71142135623748 L 68.36469796037191 -149.6946979603719 L 68.3464064153032 -149.6764064153032 L 68.32677674782363 -149.6567767478236 L 68.30605581239112 -149.6360558123911 L 68.28450418679132 -149.61450418679132 L 68.26239289522069 -149.59239289522068 L 68.24 -149.57 " stroke="#191919" stroke-width="0.35 px" style="stroke-width:0.35;stroke-miterlimit:4;stroke-dasharray:none;fill:none;fill-opacity:1;fill-rule: evenodd"/>
<path id="Shape2DView_nwe0149"  d="M 68.44 -149.77 L 57.24 -149.77 " stroke="#191919" stroke-width="0.35 px" style="stroke-width:0.35;stroke-miterlimit:4;stroke-dasharray:none;fill:none;fill-opacity:1;fill-rule: evenodd"/>
<path id="Shape2DView_nwe0150"  d="M 85.24000000000028 -130.56999999999974 L 85.23874244197893 -130.5712575580211 L 85.23498558243664 -130.57501441756338 L 85.22877666606193 -130.58122333393808 L 85.22019377358073 -130.58980622641928 L 85.2093448398459 -130.60065516015413 L 85.19636629649382 -130.6136337035062 L 85.18142135623751 -130.62857864376252 L 85.16469796037192 -130.6453020396281 L 85.14640641530322 -130.6635935846968 L 85.12677674782364 -130.6832232521764 L 85.10605581239113 -130.7039441876089 L 85.08450418679134 -130.72549581320868 L 85.0623928952207 -130.74760710477932 L 85.04 -130.77 " stroke="#191919" stroke-width="0.35 px" style="stroke-width:0.35;stroke-miterlimit:4;stroke-dasharray:none;fill:none;fill-opacity:1;fill-rule: evenodd"/>
<path id="Shape2DView_nwe0151"  d="M 84.74 -130.57 L 85.24 -130.57 " stroke="#191919" stroke-width="0.35 px" style="stroke-width:0.35;stroke-miterlimit:4;stroke-dasharray:none;fill:none;fill-opacity:1;fill-rule: evenodd"/>
<path id="Shape2DView_nwe0152"  d="M 68.44000000000027 -149.27000000000027 L 68.43874244197892 -149.2687424419789 L 68.43498558243662 -149.26498558243662 L 68.42877666606192 -149.25877666606192 L 68.42019377358072 -149.25019377358072 L 68.40934483984589 -149.23934483984587 L 68.39636629649381 -149.2263662964938 L 68.3814213562375 -149.21142135623748 L 68.36469796037191 -149.1946979603719 L 68.3464064153032 -149.1764064153032 L 68.32677674782363 -149.1567767478236 L 68.30605581239112 -149.1360558123911 L 68.28450418679132 -149.11450418679132 L 68.26239289522069 -149.09239289522068 L 68.24 -149.07 " stroke="#191919" stroke-width="0.35 px" style="stroke-width:0.35;stroke-miterlimit:4;stroke-dasharray:none;fill:none;fill-opacity:1;fill-rule: evenodd"/>
<path id="Shape2DView_nwe0153"  d="M 68.44 -149.27 L 68.44 -149.77 " stroke="#191919" stroke-width="0.35 px" style="stroke-width:0.35;stroke-miterlimit:4;stroke-dasharray:none;fill:none;fill-opacity:1;fill-rule: evenodd"/>
<path id="Shape2DView_nwe0154"  d="M 85.24000000000028 -149.77000000000027 L 85.23874244197893 -149.7687424419789 L 85.23498558243664 -149.76498558243662 L 85.22877666606193 -149.75877666606192 L 85.22019377358073 -149.75019377358072 L 85.2093448398459 -149.73934483984587 L 85.19636629649382 -149.7263662964938 L 85.18142135623751 -149.71142135623748 L 85.16469796037192 -149.6946979603719 L 85.14640641530322 -149.6764064153032 L 85.12677674782364 -149.6567767478236 L 85.10605581239113 -149.6360558123911 L 85.08450418679134 -149.61450418679132 L 85.0623928952207 -149.59239289522068 L 85.04 -149.57 " stroke="#191919" stroke-width="0.35 px" style="stroke-width:0.35;stroke-miterlimit:4;stroke-dasharray:none;fill:none;fill-opacity:1;fill-rule: evenodd"/>
<path id="Shape2DView_nwe0155"  d="M 85.24 -130.57 L 85.24 -149.77 " stroke="#191919" stroke-width="0.35 px" style="stroke-width:0.35;stroke-miterlimit:4;stroke-dasharray:none;fill:none;fill-opacity:1;fill-rule: evenodd"/>
<path id="Shape2DView_nwe0156"  d="M 79.63999999999973 -149.27000000000027 L 79.64125755802108 -149.2687424419789 L 79.64501441756337 -149.26498558243662 L 79.65122333393808 -149.25877666606192 L 79.65980622641928 -149.25019377358072 L 79.67065516015411 -149.23934483984587 L 79.68363370350619 -149.2263662964938 L 79.6985786437625 -149.21142135623748 L 79.71530203962809 -149.1946979603719 L 79.73359358469679 -149.1764064153032 L 79.75322325217637 -149.1567767478236 L 79.77394418760888 -149.1360558123911 L 79.79549581320867 -149.11450418679132 L 79.81760710477931 -149.09239289522068 L 79.84 -149.07 " stroke="#191919" stroke-width="0.35 px" style="stroke-width:0.35;stroke-miterlimit:4;stroke-dasharray:none;fill:none;fill-opacity:1;fill-rule: evenodd"/>
<path id="Shape2DView_nwe0157"  d="M 79.64 -149.27 L 68.44 -149.27 " stroke="#191919" stroke-width="0.35 px" style="stroke-width:0.35;stroke-miterlimit:4;stroke-dasharray:none;fill:none;fill-opacity:1;fill-rule: evenodd"/>
<path id="Shape2DView_nwe0158"  d="M 79.63999999999973 -149.77000000000027 L 79.64125755802108 -149.7687424419789 L 79.64501441756337 -149.76498558243662 L 79.65122333393808 -149.75877666606192 L 79.65980622641928 -149.75019377358072 L 79.67065516015411 -149.73934483984587 L 79.68363370350619 -149.7263662964938 L 79.6985786437625 -149.71142135623748 L 79.71530203962809 -149.6946979603719 L 79.73359358469679 -149.6764064153032 L 79.75322325217637 -149.6567767478236 L 79.77394418760888 -149.6360558123911 L 79.79549581320867 -149.61450418679132 L 79.81760710477931 -149.59239289522068 L 79.84 -149.57 " stroke="#191919" stroke-width="0.35 px" style="stroke-width:0.35;stroke-miterlimit:4;stroke-dasharray:none;fill:none;fill-opacity:1;fill-rule: evenodd"/>
<path id="Shape2DView_nwe0159"  d="M 85.24 -149.77 L 79.64 -149.77 " stroke="#191919" stroke-width="0.35 px" style="stroke-width:0.35;stroke-miterlimit:4;stroke-dasharray:none;fill:none;fill-opacity:1;fill-rule: evenodd"/>
<path id="Shape2DView_nwe0160"  d="M 79.64 -149.77 L 79.64 -149.27 " stroke="#191919" stroke-width="0.35 px" style="stroke-width:0.35;stroke-miterlimit:4;stroke-dasharray:none;fill:none;fill-opacity:1;fill-rule: evenodd"/>
<path id="Shape2DView_nwe0161"  d="M -21.36 20.03 L -21.36 19.53 " stroke="#191919" stroke-width="0.35 px" style="stroke-width:0.35;stroke-miterlimit:4;stroke-dasharray:none;fill:none;fill-opacity:1;fill-rule: evenodd"/>
<path id="Shape2DView_nwe0162"  d="M -21.36 19.53 L -9.76 19.53 " stroke="#191919" stroke-width="0.35 px" style="stroke-width:0.35;stroke-miterlimit:4;stroke-dasharray:none;fill:none;fill-opacity:1;fill-rule: evenodd"/>
<path id="Shape2DView_nwe0163"  d="M -9.76 19.53 L -9.76 20.03 " stroke="#191919" stroke-width="0.35 px" style="stroke-width:0.35;stroke-miterlimit:4;stroke-dasharray:none;fill:none;fill-opacity:1;fill-rule: evenodd"/>
<path id="Shape2DView_nwe0164"  d="M -9.76 20.03 L 1.0399999999999991 20.03 " stroke="#191919" stroke-width="0.35 px" style="stroke-width:0.35;stroke-miterlimit:4;stroke-dasharray:none;fill:none;fill-opacity:1;fill-rule: evenodd"/>
<path id="Shape2DView_nwe0165"  d="M 1.04 20.03 L 1.04 19.53 " stroke="#191919" stroke-width="0.35 px" style="stroke-width:0.35;stroke-miterlimit:4;stroke-dasharray:none;fill:none;fill-opacity:1;fill-rule: evenodd"/>
<path id="Shape2DView_nwe0166"  d="M 1.04 19.53 L 12.64 19.53 " stroke="#191919" stroke-width="0.35 px" style="stroke-width:0.35;stroke-miterlimit:4;stroke-dasharray:none;fill:none;fill-opacity:1;fill-rule: evenodd"/>
<path id="Shape2DView_nwe0167"  d="M 12.64 19.53 L 12.64 20.03 " stroke="#191919" stroke-width="0.35 px" style="stroke-width:0.35;stroke-miterlimit:4;stroke-dasharray:none;fill:none;fill-opacity:1;fill-rule: evenodd"/>
<path id="Shape2DView_nwe0168"  d="M 12.64 20.03 L 23.44 20.03 " stroke="#191919" stroke-width="0.35 px" style="stroke-width:0.35;stroke-miterlimit:4;stroke-dasharray:none;fill:none;fill-opacity:1;fill-rule: evenodd"/>
<path id="Shape2DView_nwe0169"  d="M 23.44 20.03 L 23.44 19.53 " stroke="#191919" stroke-width="0.35 px" style="stroke-width:0.35;stroke-miterlimit:4;stroke-dasharray:none;fill:none;fill-opacity:1;fill-rule: evenodd"/>
<path id="Shape2DView_nwe0170"  d="M 23.44 19.53 L 35.04 19.53 " stroke="#191919" stroke-width="0.35 px" style="stroke-width:0.35;stroke-miterlimit:4;stroke-dasharray:none;fill:none;fill-opacity:1;fill-rule: evenodd"/>
<path id="Shape2DView_nwe0171"  d="M 35.04 19.53 L 35.04 20.03 " stroke="#191919" stroke-width="0.35 px" style="stroke-width:0.35;stroke-miterlimit:4;stroke-dasharray:none;fill:none;fill-opacity:1;fill-rule: evenodd"/>
<path id="Shape2DView_nwe0172"  d="M 35.04 20.03 L 45.84 20.03 " stroke="#191919" stroke-width="0.35 px" style="stroke-width:0.35;stroke-miterlimit:4;stroke-dasharray:none;fill:none;fill-opacity:1;fill-rule: evenodd"/>
<path id="Shape2DView_nwe0173"  d="M 45.84 20.03 L 45.84 19.53 " stroke="#191919" stroke-width="0.35 px" style="stroke-width:0.35;stroke-miterlimit:4;stroke-dasharray:none;fill:none;fill-opacity:1;fill-rule: evenodd"/>
<path id="Shape2DView_nwe0174"  d="M 45.84 19.53 L 57.44 19.53 " stroke="#191919" stroke-width="0.35 px" style="stroke-width:0.35;stroke-miterlimit:4;stroke-dasharray:none;fill:none;fill-opacity:1;fill-rule: evenodd"/>
<path id="Shape2DView_nwe0175"  d="M 57.44 19.53 L 57.44 20.03 " stroke="#191919" stroke-width="0.35 px" style="stroke-width:0.35;stroke-miterlimit:4;stroke-dasharray:none;fill:none;fill-opacity:1;fill-rule: evenodd"/>
<path id="Shape2DView_nwe0176"  d="M 57.44 20.03 L 68.24 20.03 " stroke="#191919" stroke-width="0.35 px" style="stroke-width:0.35;stroke-miterlimit:4;stroke-dasharray:none;fill:none;fill-opacity:1;fill-rule: evenodd"/>
<path id="Shape2DView_nwe0177"  d="M 68.24 20.03 L 68.24 19.53 " stroke="#191919" stroke-width="0.35 px" style="stroke-width:0.35;stroke-miterlimit:4;stroke-dasharray:none;fill:none;fill-opacity:1;fill-rule: evenodd"/>
<path id="Shape2DView_nwe0178"  d="M 68.24 19.53 L 79.84 19.53 " stroke="#191919" stroke-width="0.35 px" style="stroke-width:0.35;stroke-miterlimit:4;stroke-dasharray:none;fill:none;fill-opacity:1;fill-rule: evenodd"/>
<path id="Shape2DView_nwe0179"  d="M 79.84 19.53 L 79.84 20.03 " stroke="#191919" stroke-width="0.35 px" style="stroke-width:0.35;stroke-miterlimit:4;stroke-dasharray:none;fill:none;fill-opacity:1;fill-rule: evenodd"/>
<path id="Shape2DView_nwe0180"  d="M 79.84 20.03 L 85.04 20.03 " stroke="#191919" stroke-width="0.35 px" style="stroke-width:0.35;stroke-miterlimit:4;stroke-dasharray:none;fill:none;fill-opacity:1;fill-rule: evenodd"/>
<path id="Shape2DView_nwe0181"  d="M 85.04 20.03 L 85.04 1.2300000000000004 " stroke="#191919" stroke-width="0.35 px" style="stroke-width:0.35;stroke-miterlimit:4;stroke-dasharray:none;fill:none;fill-opacity:1;fill-rule: evenodd"/>
<path id="Shape2DView_nwe0182"  d="M 85.04 1.23 L 84.54 1.23 " stroke="#191919" stroke-width="0.35 px" style="stroke-width:0.35;stroke-miterlimit:4;stroke-dasharray:none;fill:none;fill-opacity:1;fill-rule: evenodd"/>
<path id="Shape2DView_nwe0183"  d="M 84.54 1.23 L 84.54 -17.97 " stroke="#191919" stroke-width="0.35 px" style="stroke-width:0.35;stroke-miterlimit:4;stroke-dasharray:none;fill:none;fill-opacity:1;fill-rule: evenodd"/>
<path id="Shape2DView_nwe0184"  d="M 84.54 -17.97 L 85.04 -17.970000000000002 " stroke="#191919" stroke-width="0.35 px" style="stroke-width:0.35;stroke-miterlimit:4;stroke-dasharray:none;fill:none;fill-opacity:1;fill-rule: evenodd"/>
<path id="Shape2DView_nwe0185"  d="M 85.04 -17.97 L 85.04 -36.37 " stroke="#191919" stroke-width="0.35 px" style="stroke-width:0.35;stroke-miterlimit:4;stroke-dasharray:none;fill:none;fill-opacity:1;fill-rule: evenodd"/>
<path id="Shape2DView_nwe0186"  d="M 85.04 -36.37 L 84.54 -36.37 " stroke="#191919" stroke-width="0.35 px" style="stroke-width:0.35;stroke-miterlimit:4;stroke-dasharray:none;fill:none;fill-opacity:1;fill-rule: evenodd"/>
<path id="Shape2DView_nwe0187"  d="M 84.54 -36.37 L 84.54 -55.57 " stroke="#191919" stroke-width="0.35 px" style="stroke-width:0.35;stroke-miterlimit:4;stroke-dasharray:none;fill:none;fill-opacity:1;fill-rule: evenodd"/>
<path id="Shape2DView_nwe0188"  d="M 84.54 -55.57 L 85.04 -55.57 " stroke="#191919" stroke-width="0.35 px" style="stroke-width:0.35;stroke-miterlimit:4;stroke-dasharray:none;fill:none;fill-opacity:1;fill-rule: evenodd"/>
<path id="Shape2DView_nwe0189"  d="M 85.04 -55.57 L 85.04 -73.97 " stroke="#191919" stroke-width="0.35 px" style="stroke-width:0.35;stroke-miterlimit:4;stroke-dasharray:none;fill:none;fill-opacity:1;fill-rule: evenodd"/>
<path id="Shape2DView_nwe0190"  d="M 85.04 -73.97 L 84.54 -73.97 " stroke="#191919" stroke-width="0.35 px" style="stroke-width:0.35;stroke-miterlimit:4;stroke-dasharray:none;fill:none;fill-opacity:1;fill-rule: evenodd"/>
<path id="Shape2DView_nwe0191"  d="M 84.54 -73.97 L 84.54 -93.17 " stroke="#191919" stroke-width="0.35 px" style="stroke-width:0.35;stroke-miterlimit:4;stroke-dasharray:none;fill:none;fill-opacity:1;fill-rule: evenodd"/>
<path id="Shape2DView_nwe0192"  d="M 84.54 -93.17 L 85.04 -93.17 " stroke="#191919" stroke-width="0.35 px" style="stroke-width:0.35;stroke-miterlimit:4;stroke-dasharray:none;fill:none;fill-opacity:1;fill-rule: evenodd"/>
<path id="Shape2DView_nwe0193"  d="M 85.04 -93.17 L 85.04 -111.57 " stroke="#191919" stroke-width="0.35 px" style="stroke-width:0.35;stroke-miterlimit:4;stroke-dasharray:none;fill:none;fill-opacity:1;fill-rule: evenodd"/>
<path id="Shape2DView_nwe0194"  d="M 85.04 -111.57 L 84.54 -111.57 " stroke="#191919" stroke-width="0.35 px" style="stroke-width:0.35;stroke-miterlimit:4;stroke-dasharray:none;fill:none;fill-opacity:1;fill-rule: evenodd"/>
<path id="Shape2DView_nwe0195"  d="M 84.54 -111.57 L 84.54 -130.77 " stroke="#191919" stroke-width="0.35 px" style="stroke-width:0.35;stroke-miterlimit:4;stroke-dasharray:none;fill:none;fill-opacity:1;fill-rule: evenodd"/>
<path id="Shape2DView_nwe0196"  d="M 84.54 -130.77 L 85.04 -130.77 " stroke="#191919" stroke-width="0.35 px" style="stroke-width:0.35;stroke-miterlimit:4;stroke-dasharray:none;fill:none;fill-opacity:1;fill-rule: evenodd"/>
<path id="Shape2DView_nwe0197"  d="M 85.04 -130.77 L 85.04 -149.57 " stroke="#191919" stroke-width="0.35 px" style="stroke-width:0.35;stroke-miterlimit:4;stroke-dasharray:none;fill:none;fill-opacity:1;fill-rule: evenodd"/>
<path id="Shape2DView_nwe0198"  d="M 85.04 -149.57 L 79.84 -149.57 " stroke="#191919" stroke-width="0.35 px" style="stroke-width:0.35;stroke-miterlimit:4;stroke-dasharray:none;fill:none;fill-opacity:1;fill-rule: evenodd"/>
<path id="Shape2DView_nwe0199"  d="M 79.84 -149.57 L 79.84 -149.07 " stroke="#191919" stroke-width="0.35 px" style="stroke-width:0.35;stroke-miterlimit:4;stroke-dasharray:none;fill:none;fill-opacity:1;fill-rule: evenodd"/>
<path id="Shape2DView_nwe0200"  d="M 79.84 -149.07 L 68.24 -149.07 " stroke="#191919" stroke-width="0.35 px" style="stroke-width:0.35;stroke-miterlimit:4;stroke-dasharray:none;fill:none;fill-opacity:1;fill-rule: evenodd"/>
<path id="Shape2DView_nwe0201"  d="M 68.24 -149.07 L 68.24 -149.57 " stroke="#191919" stroke-width="0.35 px" style="stroke-width:0.35;stroke-miterlimit:4;stroke-dasharray:none;fill:none;fill-opacity:1;fill-rule: evenodd"/>
<path id="Shape2DView_nwe0202"  d="M 68.24 -149.57 L 57.44 -149.57 " stroke="#191919" stroke-width="0.35 px" style="stroke-width:0.35;stroke-miterlimit:4;stroke-dasharray:none;fill:none;fill-opacity:1;fill-rule: evenodd"/>
<path id="Shape2DView_nwe0203"  d="M 57.44 -149.57 L 57.44 -149.07 " stroke="#191919" stroke-width="0.35 px" style="stroke-width:0.35;stroke-miterlimit:4;stroke-dasharray:none;fill:none;fill-opacity:1;fill-rule: evenodd"/>
<path id="Shape2DView_nwe0204"  d="M 57.44 -149.07 L 45.84 -149.07 " stroke="#191919" stroke-width="0.35 px" style="stroke-width:0.35;stroke-miterlimit:4;stroke-dasharray:none;fill:none;fill-opacity:1;fill-rule: evenodd"/>
<path id="Shape2DView_nwe0205"  d="M 45.84 -149.07 L 45.84 -149.57 " stroke="#191919" stroke-width="0.35 px" style="stroke-width:0.35;stroke-miterlimit:4;stroke-dasharray:none;fill:none;fill-opacity:1;fill-rule: evenodd"/>
<path id="Shape2DView_nwe0206"  d="M 45.84 -149.57 L 35.04 -149.57 " stroke="#191919" stroke-width="0.35 px" style="stroke-width:0.35;stroke-miterlimit:4;stroke-dasharray:none;fill:none;fill-opacity:1;fill-rule: evenodd"/>
<path id="Shape2DView_nwe0207"  d="M 35.04 -149.57 L 35.04 -149.07 " stroke="#191919" stroke-width="0.35 px" style="stroke-width:0.35;stroke-miterlimit:4;stroke-dasharray:none;fill:none;fill-opacity:1;fill-rule: evenodd"/>
<path id="Shape2DView_nwe0208"  d="M 35.04 -149.07 L 23.44 -149.07 " stroke="#191919" stroke-width="0.35 px" style="stroke-width:0.35;stroke-miterlimit:4;stroke-dasharray:none;fill:none;fill-opacity:1;fill-rule: evenodd"/>
<path id="Shape2DView_nwe0209"  d="M 23.44 -149.07 L 23.44 -149.57 " stroke="#191919" stroke-width="0.35 px" style="stroke-width:0.35;stroke-miterlimit:4;stroke-dasharray:none;fill:none;fill-opacity:1;fill-rule: evenodd"/>
<path id="Shape2DView_nwe0210"  d="M 23.44 -149.57 L 12.64 -149.57 " stroke="#191919" stroke-width="0.35 px" style="stroke-width:0.35;stroke-miterlimit:4;stroke-dasharray:none;fill:none;fill-opacity:1;fill-rule: evenodd"/>
<path id="Shape2DView_nwe0211"  d="M 12.64 -149.57 L 12.64 -149.07 " stroke="#191919" stroke-width="0.35 px" style="stroke-width:0.35;stroke-miterlimit:4;stroke-dasharray:none;fill:none;fill-opacity:1;fill-rule: evenodd"/>
<path id="Shape2DView_nwe0212"  d="M 12.64 -149.07 L 1.040000000000001 -149.07 " stroke="#191919" stroke-width="0.35 px" style="stroke-width:0.35;stroke-miterlimit:4;stroke-dasharray:none;fill:none;fill-opacity:1;fill-rule: evenodd"/>
<path id="Shape2DView_nwe0213"  d="M 1.04 -149.07 L 1.04 -149.57 " stroke="#191919" stroke-width="0.35 px" style="stroke-width:0.35;stroke-miterlimit:4;stroke-dasharray:none;fill:none;fill-opacity:1;fill-rule: evenodd"/>
<path id="Shape2DView_nwe0214"  d="M 1.04 -149.57 L -9.76 -149.57 " stroke="#191919" stroke-width="0.35 px" style="stroke-width:0.35;stroke-miterlimit:4;stroke-dasharray:none;fill:none;fill-opacity:1;fill-rule: evenodd"/>
<path id="Shape2DView_nwe0215"  d="M -9.76 -149.57 L -9.76 -149.07 " stroke="#191919" stroke-width="0.35 px" style="stroke-width:0.35;stroke-miterlimit:4;stroke-dasharray:none;fill:none;fill-opacity:1;fill-rule: evenodd"/>
<path id="Shape2DView_nwe0216"  d="M -9.76 -149.07 L -21.36 -149.07 " stroke="#191919" stroke-width="0.35 px" style="stroke-width:0.35;stroke-miterlimit:4;stroke-dasharray:none;fill:none;fill-opacity:1;fill-rule: evenodd"/>
<path id="Shape2DView_nwe0217"  d="M -21.36 -149.07 L -21.36 -149.57 " stroke="#191919" stroke-width="0.35 px" style="stroke-width:0.35;stroke-miterlimit:4;stroke-dasharray:none;fill:none;fill-opacity:1;fill-rule: evenodd"/>
<path id="Shape2DView_nwe0218"  d="M -21.36 -149.57 L -26.56 -149.57 " stroke="#191919" stroke-width="0.35 px" style="stroke-width:0.35;stroke-miterlimit:4;stroke-dasharray:none;fill:none;fill-opacity:1;fill-rule: evenodd"/>
<path id="Shape2DView_nwe0219"  d="M -26.56 -149.57 L -26.56 -130.77 " stroke="#191919" stroke-width="0.35 px" style="stroke-width:0.35;stroke-miterlimit:4;stroke-dasharray:none;fill:none;fill-opacity:1;fill-rule: evenodd"/>
<path id="Shape2DView_nwe0220"  d="M -26.56 -130.77 L -26.06 -130.77 " stroke="#191919" stroke-width="0.35 px" style="stroke-width:0.35;stroke-miterlimit:4;stroke-dasharray:none;fill:none;fill-opacity:1;fill-rule: evenodd"/>
<path id="Shape2DView_nwe0221"  d="M -26.06 -130.77 L -26.06 -111.57 " stroke="#191919" stroke-width="0.35 px" style="stroke-width:0.35;stroke-miterlimit:4;stroke-dasharray:none;fill:none;fill-opacity:1;fill-rule: evenodd"/>
<path id="Shape2DView_nwe0222"  d="M -26.06 -111.57 L -26.56 -111.57 " stroke="#191919" stroke-width="0.35 px" style="stroke-width:0.35;stroke-miterlimit:4;stroke-dasharray:none;fill:none;fill-opacity:1;fill-rule: evenodd"/>
<path id="Shape2DView_nwe0223"  d="M -26.56 -111.57 L -26.56 -93.17 " stroke="#191919" stroke-width="0.35 px" style="stroke-width:0.35;stroke-miterlimit:4;stroke-dasharray:none;fill:none;fill-opacity:1;fill-rule: evenodd"/>
<path id="Shape2DView_nwe0224"  d="M -26.56 -93.17 L -26.06 -93.17 " stroke="#191919" stroke-width="0.35 px" style="stroke-width:0.35;stroke-miterlimit:4;stroke-dasharray:none;fill:none;fill-opacity:1;fill-rule: evenodd"/>
<path id="Shape2DView_nwe0225"  d="M -26.06 -93.17 L -26.06 -73.97 " stroke="#191919" stroke-width="0.35 px" style="stroke-width:0.35;stroke-miterlimit:4;stroke-dasharray:none;fill:none;fill-opacity:1;fill-rule: evenodd"/>
<path id="Shape2DView_nwe0226"  d="M -26.06 -73.97 L -26.56 -73.97 " stroke="#191919" stroke-width="0.35 px" style="stroke-width:0.35;stroke-miterlimit:4;stroke-dasharray:none;fill:none;fill-opacity:1;fill-rule: evenodd"/>
<path id="Shape2DView_nwe0227"  d="M -26.56 -73.97 L -26.56 -55.57 " stroke="#191919" stroke-width="0.35 px" style="stroke-width:0.35;stroke-miterlimit:4;stroke-dasharray:none;fill:none;fill-opacity:1;fill-rule: evenodd"/>
<path id="Shape2DView_nwe0228"  d="M -26.56 -55.57 L -26.06 -55.57 " stroke="#191919" stroke-width="0.35 px" style="stroke-width:0.35;stroke-miterlimit:4;stroke-dasharray:none;fill:none;fill-opacity:1;fill-rule: evenodd"/>
<path id="Shape2DView_nwe0229"  d="M -26.06 -55.57 L -26.06 -36.37 " stroke="#191919" stroke-width="0.35 px" style="stroke-width:0.35;stroke-miterlimit:4;stroke-dasharray:none;fill:none;fill-opacity:1;fill-rule: evenodd"/>
<path id="Shape2DView_nwe0230"  d="M -26.06 -36.37 L -26.56 -36.37 " stroke="#191919" stroke-width="0.35 px" style="stroke-width:0.35;stroke-miterlimit:4;stroke-dasharray:none;fill:none;fill-opacity:1;fill-rule: evenodd"/>
<path id="Shape2DView_nwe0231"  d="M -26.56 -36.37 L -26.56 -17.97 " stroke="#191919" stroke-width="0.35 px" style="stroke-width:0.35;stroke-miterlimit:4;stroke-dasharray:none;fill:none;fill-opacity:1;fill-rule: evenodd"/>
<path id="Shape2DView_nwe0232"  d="M -26.56 -17.97 L -26.06 -17.97 " stroke="#191919" stroke-width="0.35 px" style="stroke-width:0.35;stroke-miterlimit:4;stroke-dasharray:none;fill:none;fill-opacity:1;fill-rule: evenodd"/>
<path id="Shape2DView_nwe0233"  d="M -26.06 -17.97 L -26.06 1.2300000000000004 " stroke="#191919" stroke-width="0.35 px" style="stroke-width:0.35;stroke-miterlimit:4;stroke-dasharray:none;fill:none;fill-opacity:1;fill-rule: evenodd"/>
<path id="Shape2DView_nwe0234"  d="M -26.06 1.23 L -26.56 1.23 " stroke="#191919" stroke-width="0.35 px" style="stroke-width:0.35;stroke-miterlimit:4;stroke-dasharray:none;fill:none;fill-opacity:1;fill-rule: evenodd"/>
<path id="Shape2DView_nwe0235"  d="M -26.56 1.23 L -26.56 20.03 " stroke="#191919" stroke-width="0.35 px" style="stroke-width:0.35;stroke-miterlimit:4;stroke-dasharray:none;fill:none;fill-opacity:1;fill-rule: evenodd"/>
<path id="Shape2DView_nwe0236"  d="M -21.36 20.03 L -26.56 20.03 " stroke="#191919" stroke-width="0.35 px" style="stroke-width:0.35;stroke-miterlimit:4;stroke-dasharray:none;fill:none;fill-opacity:1;fill-rule: evenodd"/>
<path id="Shape2DView_nwe0237"  d="M -18.0 11.0 A 1 1 0 0 1 -17 12" stroke="#191919" stroke-width="0.35 px" style="stroke-width:0.35;stroke-miterlimit:4;stroke-dasharray:none;fill:none;fill-opacity:1;fill-rule: evenodd"/>
<path id="Shape2DView_nwe0238"  d="M -18.0 11.0 L -18.0 12.0 " stroke="#191919" stroke-width="0.35 px" style="stroke-width:0.35;stroke-miterlimit:4;stroke-dasharray:none;fill:none;fill-opacity:1;fill-rule: evenodd"/>
<path id="Shape2DView_nwe0239"  d="M -18.0 12.0 L -17.0 12.0 " stroke="#191919" stroke-width="0.35 px" style="stroke-width:0.35;stroke-miterlimit:4;stroke-dasharray:none;fill:none;fill-opacity:1;fill-rule: evenodd"/>
<title>b'Shape2DView'</title>
</g>
<g id="Rectangle" transform="translate(27.880000,21.350000) scale(1,-1)">
<rect fill="#ff0000" id="origin" width="1" height="1" x="0" y="0" />
<title>b'Rectangle'</title>
</g>
</svg>