<?xml version="1.0"?>
<!DOCTYPE svg PUBLIC "-//W3C//DTD SVG 1.1//EN" "http://www.w3.org/Graphics/SVG/1.1/DTD/svg11.dtd">
<svg width="109.34400000000055mm" height="148.54400000000055mm" viewBox="0 0 109.34400000000055 148.54400000000055" xmlns="http://www.w3.org/2000/svg" version="1.1">
<g id="Shape2DView" transform="translate(25.462000,17.122000) scale(1,-1)">
<path id="Shape2DView_nwe0000"  d="M -14.0 -112.0 L -14.0 1.0 " stroke="#191919" stroke-width="0.35 px" style="stroke-width:0.35;stroke-miterlimit:4;stroke-dasharray:none;fill:none;fill-opacity:1;fill-rule: evenodd"/>
<path id="Shape2DView_nwe0001"  d="M -14.0 -112.0 L 70.0 -112.0 " stroke="#191919" stroke-width="0.35 px" style="stroke-width:0.35;stroke-miterlimit:4;stroke-dasharray:none;fill:none;fill-opacity:1;fill-rule: evenodd"/>
<path id="Shape2DView_nwe0002"  d="M 70.0 -112.0 L 70.0 1.0 " stroke="#191919" stroke-width="0.35 px" style="stroke-width:0.35;stroke-miterlimit:4;stroke-dasharray:none;fill:none;fill-opacity:1;fill-rule: evenodd"/>
<path id="Shape2DView_nwe0003"  d="M -14.0 1.0 L 70.0 1.0 " stroke="#191919" stroke-width="0.35 px" style="stroke-width:0.35;stroke-miterlimit:4;stroke-dasharray:none;fill:none;fill-opacity:1;fill-rule: evenodd"/>
<path id="Shape2DView_nwe0004"  d="M -15.999999999999662 -113.99999999999967 L -15.99496976791426 -113.99496976791426 L -15.97994232974513 -113.97994232974513 L -15.955106664246376 -113.95510666424637 L -15.920775094321632 -113.92077509432164 L -15.877379359382342 -113.87737935938235 L -15.82546518597416 -113.82546518597417 L -15.765685424949 -113.765685424949 L -15.698791841486777 -113.69879184148678 L -15.625625661212089 -113.6256256612121 L -15.5471069912939 -113.5471069912939 L -15.464223249564022 -113.46422324956403 L -15.378016747164976 -113.37801674716498 L -15.289571580882608 -113.28957158088261 L -15.2 -113.2 " stroke="#191919" stroke-width="0.35 px" style="stroke-width:0.35;stroke-miterlimit:4;stroke-dasharray:none;fill:none;fill-opacity:1;fill-rule: evenodd"/>
<path id="Shape2DView_nwe0005"  d="M -15.999999999999662 2.9999999999996634 L -15.99496976791426 2.9949697679142595 L -15.97994232974513 2.979942329745131 L -15.955106664246376 2.955106664246377 L -15.920775094321632 2.920775094321632 L -15.877379359382342 2.8773793593823425 L -15.82546518597416 2.825465185974161 L -15.765685424949 2.7656854249490004 L -15.698791841486777 2.698791841486777 L -15.625625661212089 2.6256256612120903 L -15.5471069912939 2.5471069912939006 L -15.464223249564022 2.464223249564023 L -15.378016747164976 2.3780167471649767 L -15.289571580882608 2.2895715808826087 L -15.2 2.2 " stroke="#191919" stroke-width="0.35 px" style="stroke-width:0.35;stroke-miterlimit:4;stroke-dasharray:none;fill:none;fill-opacity:1;fill-rule: evenodd"/>
<path id="Shape2DView_nwe0006"  d="M -16.0 -114.0 L -16.0 3.0 " stroke="#191919" stroke-width="0.35 px" style="stroke-width:0.35;stroke-miterlimit:4;stroke-dasharray:none;fill:none;fill-opacity:1;fill-rule: evenodd"/>
<path id="Shape2DView_nwe0007"  d="M -16.0 -114.0 L 72.2 -114.0 " stroke="#191919" stroke-width="0.35 px" style="stroke-width:0.35;stroke-miterlimit:4;stroke-dasharray:none;fill:none;fill-opacity:1;fill-rule: evenodd"/>
<path id="Shape2DView_nwe0008"  d="M 72.19999999999968 -113.99999999999967 L 72.19496976791426 -113.99496976791426 L 72.17994232974513 -113.97994232974513 L 72.15510666424638 -113.95510666424637 L 72.12077509432164 -113.92077509432164 L 72.07737935938235 -113.87737935938235 L 72.02546518597417 -113.82546518597417 L 71.965685424949 -113.765685424949 L 71.89879184148678 -113.69879184148678 L 71.8256256612121 -113.6256256612121 L 71.7471069912939 -113.5471069912939 L 71.66422324956403 -113.46422324956403 L 71.57801674716498 -113.37801674716498 L 71.48957158088261 -113.28957158088261 L 71.4 -113.2 " stroke="#191919" stroke-width="0.35 px" style="stroke-width:0.35;stroke-miterlimit:4;stroke-dasharray:none;fill:none;fill-opacity:1;fill-rule: evenodd"/>
<path id="Shape2DView_nwe0009"  d="M 72.19999999999968 2.9999999999996634 L 72.19496976791426 2.9949697679142595 L 72.17994232974513 2.979942329745131 L 72.15510666424638 2.955106664246377 L 72.12077509432164 2.920775094321632 L 72.07737935938235 2.8773793593823425 L 72.02546518597417 2.825465185974161 L 71.965685424949 2.7656854249490004 L 71.89879184148678 2.698791841486777 L 71.8256256612121 2.6256256612120903 L 71.7471069912939 2.5471069912939006 L 71.66422324956403 2.464223249564023 L 71.57801674716498 2.3780167471649767 L 71.48957158088261 2.2895715808826087 L 71.4 2.2 " stroke="#191919" stroke-width="0.35 px" style="stroke-width:0.35;stroke-miterlimit:4;stroke-dasharray:none;fill:none;fill-opacity:1;fill-rule: evenodd"/>
<path id="Shape2DView_nwe0010"  d="M -16.0 3.0 L 72.2 3.0 " stroke="#191919" stroke-width="0.35 px" style="stroke-width:0.35;stroke-miterlimit:4;stroke-dasharray:none;fill:none;fill-opacity:1;fill-rule: evenodd"/>
<path id="Shape2DView_nwe0011"  d="M 72.2 -114.0 L 72.2 3.0 " stroke="#191919" stroke-width="0.35 px" style="stroke-width:0.35;stroke-miterlimit:4;stroke-dasharray:none;fill:none;fill-opacity:1;fill-rule: evenodd"/>
<path id="Shape2DView_nwe0012"  d="M -22.0 -127.0 L -22.0 13.0 " stroke="#191919" stroke-width="0.35 px" style="stroke-width:0.35;stroke-miterlimit:4;stroke-dasharray:none;fill:none;fill-opacity:1;fill-rule: evenodd"/>
<path id="Shape2DView_nwe0013"  d="M -22.0 -127.0 L 79.0 -127.0 " stroke="#191919" stroke-width="0.35 px" style="stroke-width:0.35;stroke-miterlimit:4;stroke-dasharray:none;fill:none;fill-opacity:1;fill-rule: evenodd"/>
<path id="Shape2DView_nwe0014"  d="M 79.0 -127.0 L 79.0 13.0 " stroke="#191919" stroke-width="0.35 px" style="stroke-width:0.35;stroke-miterlimit:4;stroke-dasharray:none;fill:none;fill-opacity:1;fill-rule: evenodd"/>
<path id="Shape2DView_nwe0015"  d="M -22.0 13.0 L 79.0 13.0 " stroke="#191919" stroke-width="0.35 px" style="stroke-width:0.35;stroke-miterlimit:4;stroke-dasharray:none;fill:none;fill-opacity:1;fill-rule: evenodd"/>
<path id="Shape2DView_nwe0016"  d="M -24.19 15.85 L -24.21239289522069 15.872392895220692 L -24.234504186791323 15.894504186791323 L -24.256055812391125 15.916055812391122 L -24.27677674782363 15.936776747823629 L -24.296406415303213 15.95640641530321 L -24.314697960371916 15.974697960371914 L -24.331421356237502 15.991421356237499 L -24.34636629649382 16.006366296493816 L -24.359344839845885 16.019344839845886 L -24.370193773580727 16.030193773580727 L -24.378776666061928 16.038776666061928 L -24.384985582436627 16.044985582436627 L -24.388742441978916 16.048742441978916 L -24.39000000000027 16.05000000000027 " stroke="#191919" stroke-width="0.35 px" style="stroke-width:0.35;stroke-miterlimit:4;stroke-dasharray:none;fill:none;fill-opacity:1;fill-rule: evenodd"/>
<path id="Shape2DView_nwe0017"  d="M -24.39 -0.04999999999999999 L -24.39 16.05 " stroke="#191919" stroke-width="0.35 px" style="stroke-width:0.35;stroke-miterlimit:4;stroke-dasharray:none;fill:none;fill-opacity:1;fill-rule: evenodd"/>
<path id="Shape2DView_nwe0018"  d="M -23.89 -0.25 L -24.19 -0.25 " stroke="#191919" stroke-width="0.35 px" style="stroke-width:0.35;stroke-miterlimit:4;stroke-dasharray:none;fill:none;fill-opacity:1;fill-rule: evenodd"/>
<path id="Shape2DView_nwe0019"  d="M -23.69 -0.04999999999999997 L -23.71239289522069 -0.0723928952206917 L -23.734504186791323 -0.0945041867913228 L -23.756055812391125 -0.11605581239112235 L -23.77677674782363 -0.13677674782362848 L -23.796406415303213 -0.1564064153032106 L -23.814697960371916 -0.17469796037191465 L -23.831421356237502 -0.19142135623749995 L -23.84636629649382 -0.20636629649381655 L -23.859344839845885 -0.21934483984588493 L -23.870193773580727 -0.2301937735807265 L -23.878776666061928 -0.23877666606192777 L -23.884985582436627 -0.24498558243662738 L -23.888742441978916 -0.2487424419789162 L -23.89000000000027 -0.2500000000002694 " stroke="#191919" stroke-width="0.35 px" style="stroke-width:0.35;stroke-miterlimit:4;stroke-dasharray:none;fill:none;fill-opacity:1;fill-rule: evenodd"/>
<path id="Shape2DView_nwe0020"  d="M -11.74 15.85 L -11.717607104779308 15.872392895220692 L -11.695495813208677 15.894504186791323 L -11.673944187608878 15.916055812391122 L -11.653223252176371 15.936776747823629 L -11.63359358469679 15.95640641530321 L -11.615302039628085 15.974697960371914 L -11.598578643762501 15.991421356237499 L -11.583633703506184 16.006366296493816 L -11.570655160154116 16.019344839845886 L -11.559806226419274 16.030193773580727 L -11.551223333938072 16.038776666061928 L -11.545014417563372 16.044985582436627 L -11.541257558021083 16.048742441978916 L -11.539999999999731 16.05000000000027 " stroke="#191919" stroke-width="0.35 px" style="stroke-width:0.35;stroke-miterlimit:4;stroke-dasharray:none;fill:none;fill-opacity:1;fill-rule: evenodd"/>
<path id="Shape2DView_nwe0021"  d="M -24.39 16.05 L -11.54 16.050000000000015 " stroke="#191919" stroke-width="0.35 px" style="stroke-width:0.35;stroke-miterlimit:4;stroke-dasharray:none;fill:none;fill-opacity:1;fill-rule: evenodd"/>
<path id="Shape2DView_nwe0022"  d="M -23.89 -16.55 L -23.89 -0.25 " stroke="#191919" stroke-width="0.35 px" style="stroke-width:0.35;stroke-miterlimit:4;stroke-dasharray:none;fill:none;fill-opacity:1;fill-rule: evenodd"/>
<path id="Shape2DView_nwe0023"  d="M -23.69 -16.75 L -23.71239289522069 -16.72760710477931 L -23.734504186791323 -16.705495813208678 L -23.756055812391125 -16.683944187608876 L -23.77677674782363 -16.663223252176373 L -23.796406415303213 -16.643593584696788 L -23.814697960371916 -16.625302039628085 L -23.831421356237502 -16.6085786437625 L -23.84636629649382 -16.593633703506182 L -23.859344839845885 -16.580655160154116 L -23.870193773580727 -16.569806226419274 L -23.878776666061928 -16.561223333938074 L -23.884985582436627 -16.555014417563374 L -23.888742441978916 -16.551257558021085 L -23.89000000000027 -16.54999999999973 " stroke="#191919" stroke-width="0.35 px" style="stroke-width:0.35;stroke-miterlimit:4;stroke-dasharray:none;fill:none;fill-opacity:1;fill-rule: evenodd"/>
<path id="Shape2DView_nwe0024"  d="M -11.74 15.35 L -11.717607104779308 15.372392895220692 L -11.695495813208677 15.394504186791323 L -11.673944187608878 15.416055812391122 L -11.653223252176371 15.436776747823629 L -11.63359358469679 15.45640641530321 L -11.615302039628085 15.474697960371914 L -11.598578643762501 15.491421356237499 L -11.583633703506184 15.506366296493816 L -11.570655160154116 15.519344839845884 L -11.559806226419274 15.530193773580725 L -11.551223333938072 15.538776666061928 L -11.545014417563372 15.544985582436627 L -11.541257558021083 15.548742441978916 L -11.539999999999731 15.550000000000269 " stroke="#191919" stroke-width="0.35 px" style="stroke-width:0.35;stroke-miterlimit:4;stroke-dasharray:none;fill:none;fill-opacity:1;fill-rule: evenodd"/>
<path id="Shape2DView_nwe0025"  d="M -11.54 16.05 L -11.54 15.55 " stroke="#191919" stroke-width="0.35 px" style="stroke-width:0.35;stroke-miterlimit:4;stroke-dasharray:none;fill:none;fill-opacity:1;fill-rule: evenodd"/>
<path id="Shape2DView_nwe0026"  d="M -24.39 -16.55 L -23.89 -16.55 " stroke="#191919" stroke-width="0.35 px" style="stroke-width:0.35;stroke-miterlimit:4;stroke-dasharray:none;fill:none;fill-opacity:1;fill-rule: evenodd"/>
<path id="Shape2DView_nwe0027"  d="M -24.19 -16.75 L -24.21239289522069 -16.72760710477931 L -24.234504186791323 -16.705495813208678 L -24.256055812391125 -16.683944187608876 L -24.27677674782363 -16.663223252176373 L -24.296406415303213 -16.643593584696788 L -24.314697960371916 -16.625302039628085 L -24.331421356237502 -16.6085786437625 L -24.34636629649382 -16.593633703506182 L -24.359344839845885 -16.580655160154116 L -24.370193773580727 -16.569806226419274 L -24.378776666061928 -16.561223333938074 L -24.384985582436627 -16.555014417563374 L -24.388742441978916 -16.551257558021085 L -24.39000000000027 -16.54999999999973 " stroke="#191919" stroke-width="0.35 px" style="stroke-width:0.35;stroke-miterlimit:4;stroke-dasharray:none;fill:none;fill-opacity:1;fill-rule: evenodd"/>
<path id="Shape2DView_nwe0028"  d="M 4.96 15.350000017037 Q 4.782771907477368 15.527228079890333 4.759999999999999 15.55 " stroke="#191919" stroke-width="0.35 px" style="stroke-width:0.35;stroke-miterlimit:4;stroke-dasharray:none;fill:none;fill-opacity:1;fill-rule: evenodd"/>
<path id="Shape2DView_nwe0029"  d="M -11.54 15.55 L 4.759999999999998 15.55 " stroke="#191919" stroke-width="0.35 px" style="stroke-width:0.35;stroke-miterlimit:4;stroke-dasharray:none;fill:none;fill-opacity:1;fill-rule: evenodd"/>
<path id="Shape2DView_nwe0030"  d="M -24.39 -32.85 L -24.39 -16.55 " stroke="#191919" stroke-width="0.35 px" style="stroke-width:0.35;stroke-miterlimit:4;stroke-dasharray:none;fill:none;fill-opacity:1;fill-rule: evenodd"/>
<path id="Shape2DView_nwe0031"  d="M -24.19 -32.65 L -24.21239289522069 -32.67239289522069 L -24.234504186791323 -32.69450418679132 L -24.256055812391125 -32.71605581239112 L -24.27677674782363 -32.736776747823626 L -24.296406415303213 -32.75640641530321 L -24.314697960371916 -32.77469796037191 L -24.331421356237502 -32.7914213562375 L -24.34636629649382 -32.80636629649381 L -24.359344839845885 -32.81934483984588 L -24.370193773580727 -32.830193773580724 L -24.378776666061928 -32.838776666061925 L -24.384985582436627 -32.84498558243663 L -24.388742441978916 -32.848742441978914 L -24.39000000000027 -32.85000000000027 " stroke="#191919" stroke-width="0.35 px" style="stroke-width:0.35;stroke-miterlimit:4;stroke-dasharray:none;fill:none;fill-opacity:1;fill-rule: evenodd"/>
<path id="Shape2DView_nwe0032"  d="M 4.76 15.549999999999995 L 4.76 16.049999999999788 " stroke="#191919" stroke-width="0.35 px" style="stroke-width:0.35;stroke-miterlimit:4;stroke-dasharray:none;fill:none;fill-opacity:1;fill-rule: evenodd"/>
<path id="Shape2DView_nwe0033"  d="M 4.96 15.850000031641 Q 4.782771739880225 16.027228236373922 4.759999999999999 16.05 " stroke="#191919" stroke-width="0.35 px" style="stroke-width:0.35;stroke-miterlimit:4;stroke-dasharray:none;fill:none;fill-opacity:1;fill-rule: evenodd"/>
<path id="Shape2DView_nwe0034"  d="M -23.89 -32.85 L -24.39 -32.85 " stroke="#191919" stroke-width="0.35 px" style="stroke-width:0.35;stroke-miterlimit:4;stroke-dasharray:none;fill:none;fill-opacity:1;fill-rule: evenodd"/>
<path id="Shape2DView_nwe0035"  d="M -23.69 -32.65 L -23.71239289522069 -32.67239289522069 L -23.734504186791323 -32.69450418679132 L -23.756055812391125 -32.71605581239112 L -23.77677674782363 -32.736776747823626 L -23.796406415303213 -32.75640641530321 L -23.814697960371916 -32.77469796037191 L -23.831421356237502 -32.7914213562375 L -23.84636629649382 -32.80636629649381 L -23.859344839845885 -32.81934483984588 L -23.870193773580727 -32.830193773580724 L -23.878776666061928 -32.838776666061925 L -23.884985582436627 -32.84498558243663 L -23.888742441978916 -32.848742441978914 L -23.89000000000027 -32.85000000000027 " stroke="#191919" stroke-width="0.35 px" style="stroke-width:0.35;stroke-miterlimit:4;stroke-dasharray:none;fill:none;fill-opacity:1;fill-rule: evenodd"/>
<path id="Shape2DView_nwe0036"  d="M 20.86 15.85 L 20.88239289522069 15.872392895220692 L 20.90450418679132 15.894504186791323 L 20.926055812391123 15.916055812391122 L 20.946776747823627 15.936776747823629 L 20.96640641530321 15.95640641530321 L 20.984697960371914 15.974697960371914 L 21.0014213562375 15.991421356237499 L 21.016366296493818 16.006366296493816 L 21.029344839845884 16.019344839845886 L 21.040193773580725 16.030193773580727 L 21.048776666061926 16.038776666061928 L 21.054985582436625 16.044985582436627 L 21.058742441978914 16.048742441978916 L 21.06000000000027 16.05000000000027 " stroke="#191919" stroke-width="0.35 px" style="stroke-width:0.35;stroke-miterlimit:4;stroke-dasharray:none;fill:none;fill-opacity:1;fill-rule: evenodd"/>
<path id="Shape2DView_nwe0037"  d="M 4.76 16.05 L 21.059999999999995 16.05 " stroke="#191919" stroke-width="0.35 px" style="stroke-width:0.35;stroke-miterlimit:4;stroke-dasharray:none;fill:none;fill-opacity:1;fill-rule: evenodd"/>
<path id="Shape2DView_nwe0038"  d="M -23.89 -49.15 L -23.89 -32.85 " stroke="#191919" stroke-width="0.35 px" style="stroke-width:0.35;stroke-miterlimit:4;stroke-dasharray:none;fill:none;fill-opacity:1;fill-rule: evenodd"/>
<path id="Shape2DView_nwe0039"  d="M -23.69 -49.35 L -23.71239289522069 -49.32760710477931 L -23.734504186791323 -49.30549581320868 L -23.756055812391125 -49.28394418760888 L -23.77677674782363 -49.263223252176374 L -23.796406415303213 -49.24359358469679 L -23.814697960371916 -49.22530203962809 L -23.831421356237502 -49.2085786437625 L -23.84636629649382 -49.19363370350619 L -23.859344839845885 -49.18065516015412 L -23.870193773580727 -49.169806226419276 L -23.878776666061928 -49.161223333938075 L -23.884985582436627 -49.15501441756337 L -23.888742441978916 -49.151257558021086 L -23.89000000000027 -49.14999999999973 " stroke="#191919" stroke-width="0.35 px" style="stroke-width:0.35;stroke-miterlimit:4;stroke-dasharray:none;fill:none;fill-opacity:1;fill-rule: evenodd"/>
<path id="Shape2DView_nwe0040"  d="M 20.86 15.35 L 20.88239289522069 15.372392895220692 L 20.90450418679132 15.394504186791323 L 20.926055812391123 15.416055812391122 L 20.946776747823627 15.436776747823629 L 20.96640641530321 15.45640641530321 L 20.984697960371914 15.474697960371914 L 21.0014213562375 15.491421356237499 L 21.016366296493818 15.506366296493816 L 21.029344839845884 15.519344839845884 L 21.040193773580725 15.530193773580725 L 21.048776666061926 15.538776666061928 L 21.054985582436625 15.544985582436627 L 21.058742441978914 15.548742441978916 L 21.06000000000027 15.550000000000269 " stroke="#191919" stroke-width="0.35 px" style="stroke-width:0.35;stroke-miterlimit:4;stroke-dasharray:none;fill:none;fill-opacity:1;fill-rule: evenodd"/>
<path id="Shape2DView_nwe0041"  d="M 21.06 16.05 L 21.06 15.55 " stroke="#191919" stroke-width="0.35 px" style="stroke-width:0.35;stroke-miterlimit:4;stroke-dasharray:none;fill:none;fill-opacity:1;fill-rule: evenodd"/>
<path id="Shape2DView_nwe0042"  d="M -24.39 -49.15 L -23.89 -49.15 " stroke="#191919" stroke-width="0.35 px" style="stroke-width:0.35;stroke-miterlimit:4;stroke-dasharray:none;fill:none;fill-opacity:1;fill-rule: evenodd"/>
<path id="Shape2DView_nwe0043"  d="M -24.19 -49.35 L -24.21239289522069 -49.32760710477931 L -24.234504186791323 -49.30549581320868 L -24.256055812391125 -49.28394418760888 L -24.27677674782363 -49.263223252176374 L -24.296406415303213 -49.24359358469679 L -24.314697960371916 -49.22530203962809 L -24.331421356237502 -49.2085786437625 L -24.34636629649382 -49.19363370350619 L -24.359344839845885 -49.18065516015412 L -24.370193773580727 -49.169806226419276 L -24.378776666061928 -49.161223333938075 L -24.384985582436627 -49.15501441756337 L -24.388742441978916 -49.151257558021086 L -24.39000000000027 -49.14999999999973 " stroke="#191919" stroke-width="0.35 px" style="stroke-width:0.35;stroke-miterlimit:4;stroke-dasharray:none;fill:none;fill-opacity:1;fill-rule: evenodd"/>
<path id="Shape2DView_nwe0044"  d="M 37.56 15.35 L 37.53760710477931 15.372392895220692 L 37.51549581320868 15.394504186791323 L 37.49394418760888 15.416055812391122 L 37.473223252176375 15.436776747823629 L 37.45359358469679 15.45640641530321 L 37.43530203962809 15.474697960371914 L 37.4185786437625 15.491421356237499 L 37.40363370350619 15.506366296493816 L 37.39065516015412 15.519344839845884 L 37.37980622641928 15.530193773580725 L 37.371223333938076 15.538776666061928 L 37.36501441756337 15.544985582436627 L 37.36125755802109 15.548742441978916 L 37.35999999999973 15.550000000000269 " stroke="#191919" stroke-width="0.35 px" style="stroke-width:0.35;stroke-miterlimit:4;stroke-dasharray:none;fill:none;fill-opacity:1;fill-rule: evenodd"/>
<path id="Shape2DView_nwe0045"  d="M 21.06 15.55 L 37.36 15.55 " stroke="#191919" stroke-width="0.35 px" style="stroke-width:0.35;stroke-miterlimit:4;stroke-dasharray:none;fill:none;fill-opacity:1;fill-rule: evenodd"/>
<path id="Shape2DView_nwe0046"  d="M -24.39 -65.45 L -24.39 -49.15 " stroke="#191919" stroke-width="0.35 px" style="stroke-width:0.35;stroke-miterlimit:4;stroke-dasharray:none;fill:none;fill-opacity:1;fill-rule: evenodd"/>
<path id="Shape2DView_nwe0047"  d="M -24.19 -65.25 L -24.21239289522069 -65.27239289522069 L -24.234504186791323 -65.29450418679133 L -24.256055812391125 -65.31605581239113 L -24.27677674782363 -65.33677674782363 L -24.296406415303213 -65.35640641530321 L -24.314697960371916 -65.37469796037192 L -24.331421356237502 -65.3914213562375 L -24.34636629649382 -65.40636629649381 L -24.359344839845885 -65.41934483984589 L -24.370193773580727 -65.43019377358073 L -24.378776666061928 -65.43877666606193 L -24.384985582436627 -65.44498558243663 L -24.388742441978916 -65.44874244197892 L -24.39000000000027 -65.45000000000027 " stroke="#191919" stroke-width="0.35 px" style="stroke-width:0.35;stroke-miterlimit:4;stroke-dasharray:none;fill:none;fill-opacity:1;fill-rule: evenodd"/>
<path id="Shape2DView_nwe0048"  d="M 37.36 15.55 L 37.36 15.85 " stroke="#191919" stroke-width="0.35 px" style="stroke-width:0.35;stroke-miterlimit:4;stroke-dasharray:none;fill:none;fill-opacity:1;fill-rule: evenodd"/>
<path id="Shape2DView_nwe0049"  d="M -23.89 -65.45 L -24.39 -65.45 " stroke="#191919" stroke-width="0.35 px" style="stroke-width:0.35;stroke-miterlimit:4;stroke-dasharray:none;fill:none;fill-opacity:1;fill-rule: evenodd"/>
<path id="Shape2DView_nwe0050"  d="M -23.69 -65.25 L -23.71239289522069 -65.27239289522069 L -23.734504186791323 -65.29450418679133 L -23.756055812391125 -65.31605581239113 L -23.77677674782363 -65.33677674782363 L -23.796406415303213 -65.35640641530321 L -23.814697960371916 -65.37469796037192 L -23.831421356237502 -65.3914213562375 L -23.84636629649382 -65.40636629649381 L -23.859344839845885 -65.41934483984589 L -23.870193773580727 -65.43019377358073 L -23.878776666061928 -65.43877666606193 L -23.884985582436627 -65.44498558243663 L -23.888742441978916 -65.44874244197892 L -23.89000000000027 -65.45000000000027 " stroke="#191919" stroke-width="0.35 px" style="stroke-width:0.35;stroke-miterlimit:4;stroke-dasharray:none;fill:none;fill-opacity:1;fill-rule: evenodd"/>
<path id="Shape2DView_nwe0051"  d="M 53.46 15.85 L 53.48239289522069 15.872392895220692 L 53.50450418679132 15.894504186791323 L 53.52605581239112 15.916055812391122 L 53.54677674782363 15.936776747823629 L 53.56640641530321 15.95640641530321 L 53.58469796037191 15.974697960371914 L 53.6014213562375 15.991421356237499 L 53.616366296493815 16.006366296493816 L 53.629344839845885 16.019344839845886 L 53.64019377358073 16.030193773580727 L 53.64877666606193 16.038776666061928 L 53.65498558243663 16.044985582436627 L 53.658742441978916 16.048742441978916 L 53.660000000000274 16.05000000000027 " stroke="#191919" stroke-width="0.35 px" style="stroke-width:0.35;stroke-miterlimit:4;stroke-dasharray:none;fill:none;fill-opacity:1;fill-rule: evenodd"/>
<path id="Shape2DView_nwe0052"  d="M 37.56 16.05 L 53.66 16.05 " stroke="#191919" stroke-width="0.35 px" style="stroke-width:0.35;stroke-miterlimit:4;stroke-dasharray:none;fill:none;fill-opacity:1;fill-rule: evenodd"/>
<path id="Shape2DView_nwe0053"  d="M -23.89 -81.75 L -23.89 -65.45 " stroke="#191919" stroke-width="0.35 px" style="stroke-width:0.35;stroke-miterlimit:4;stroke-dasharray:none;fill:none;fill-opacity:1;fill-rule: evenodd"/>
<path id="Shape2DView_nwe0054"  d="M -23.69 -81.95 L -23.71239289522069 -81.92760710477931 L -23.734504186791323 -81.90549581320867 L -23.756055812391125 -81.88394418760888 L -23.77677674782363 -81.86322325217637 L -23.796406415303213 -81.84359358469679 L -23.814697960371916 -81.82530203962808 L -23.831421356237502 -81.8085786437625 L -23.84636629649382 -81.79363370350619 L -23.859344839845885 -81.78065516015411 L -23.870193773580727 -81.76980622641928 L -23.878776666061928 -81.76122333393808 L -23.884985582436627 -81.75501441756337 L -23.888742441978916 -81.75125755802108 L -23.89000000000027 -81.74999999999973 " stroke="#191919" stroke-width="0.35 px" style="stroke-width:0.35;stroke-miterlimit:4;stroke-dasharray:none;fill:none;fill-opacity:1;fill-rule: evenodd"/>
<path id="Shape2DView_nwe0055"  d="M 53.46 15.35 L 53.48239289522069 15.372392895220692 L 53.50450418679132 15.394504186791323 L 53.52605581239112 15.416055812391122 L 53.54677674782363 15.436776747823629 L 53.56640641530321 15.45640641530321 L 53.58469796037191 15.474697960371914 L 53.6014213562375 15.491421356237499 L 53.616366296493815 15.506366296493816 L 53.629344839845885 15.519344839845884 L 53.64019377358073 15.530193773580725 L 53.64877666606193 15.538776666061928 L 53.65498558243663 15.544985582436627 L 53.658742441978916 15.548742441978916 L 53.660000000000274 15.550000000000269 " stroke="#191919" stroke-width="0.35 px" style="stroke-width:0.35;stroke-miterlimit:4;stroke-dasharray:none;fill:none;fill-opacity:1;fill-rule: evenodd"/>
<path id="Shape2DView_nwe0056"  d="M 53.66 16.05 L 53.66 15.55 " stroke="#191919" stroke-width="0.35 px" style="stroke-width:0.35;stroke-miterlimit:4;stroke-dasharray:none;fill:none;fill-opacity:1;fill-rule: evenodd"/>
<path id="Shape2DView_nwe0057"  d="M -24.19 -81.75 L -23.89 -81.75 " stroke="#191919" stroke-width="0.35 px" style="stroke-width:0.35;stroke-miterlimit:4;stroke-dasharray:none;fill:none;fill-opacity:1;fill-rule: evenodd"/>
<path id="Shape2DView_nwe0058"  d="M 70.16 15.35 L 70.1376071047793 15.372392895220692 L 70.11549581320867 15.394504186791323 L 70.09394418760887 15.416055812391122 L 70.07322325217636 15.436776747823629 L 70.05359358469678 15.45640641530321 L 70.03530203962808 15.474697960371914 L 70.0185786437625 15.491421356237499 L 70.00363370350618 15.506366296493816 L 69.9906551601541 15.519344839845884 L 69.97980622641927 15.530193773580725 L 69.97122333393807 15.538776666061928 L 69.96501441756337 15.544985582436627 L 69.96125755802107 15.548742441978916 L 69.95999999999972 15.550000000000269 " stroke="#191919" stroke-width="0.35 px" style="stroke-width:0.35;stroke-miterlimit:4;stroke-dasharray:none;fill:none;fill-opacity:1;fill-rule: evenodd"/>
<path id="Shape2DView_nwe0059"  d="M 53.66 15.55 L 69.96 15.55 " stroke="#191919" stroke-width="0.35 px" style="stroke-width:0.35;stroke-miterlimit:4;stroke-dasharray:none;fill:none;fill-opacity:1;fill-rule: evenodd"/>
<path id="Shape2DView_nwe0060"  d="M -24.39 -98.45 L -24.39 -81.95 " stroke="#191919" stroke-width="0.35 px" style="stroke-width:0.35;stroke-miterlimit:4;stroke-dasharray:none;fill:none;fill-opacity:1;fill-rule: evenodd"/>
<path id="Shape2DView_nwe0061"  d="M -24.39000000000027 -98.45000000000027 L -24.388742441978916 -98.44874244197892 L -24.384985582436627 -98.44498558243663 L -24.378776666061928 -98.43877666606193 L -24.370193773580727 -98.43019377358073 L -24.359344839845885 -98.41934483984589 L -24.34636629649382 -98.40636629649381 L -24.331421356237502 -98.3914213562375 L -24.314697960371916 -98.37469796037192 L -24.296406415303213 -98.35640641530321 L -24.27677674782363 -98.33677674782363 L -24.256055812391125 -98.31605581239113 L -24.234504186791323 -98.29450418679133 L -24.21239289522069 -98.27239289522069 L -24.19 -98.25 " stroke="#191919" stroke-width="0.35 px" style="stroke-width:0.35;stroke-miterlimit:4;stroke-dasharray:none;fill:none;fill-opacity:1;fill-rule: evenodd"/>
<path id="Shape2DView_nwe0062"  d="M 70.16 15.85 L 70.1376071047793 15.872392895220692 L 70.11549581320867 15.894504186791323 L 70.09394418760887 15.916055812391122 L 70.07322325217636 15.936776747823629 L 70.05359358469678 15.95640641530321 L 70.03530203962808 15.974697960371914 L 70.0185786437625 15.991421356237499 L 70.00363370350618 16.006366296493816 L 69.9906551601541 16.019344839845886 L 69.97980622641927 16.030193773580727 L 69.97122333393807 16.038776666061928 L 69.96501441756337 16.044985582436627 L 69.96125755802107 16.048742441978916 L 69.95999999999972 16.05000000000027 " stroke="#191919" stroke-width="0.35 px" style="stroke-width:0.35;stroke-miterlimit:4;stroke-dasharray:none;fill:none;fill-opacity:1;fill-rule: evenodd"/>
<path id="Shape2DView_nwe0063"  d="M 69.96 15.55 L 69.96 16.05 " stroke="#191919" stroke-width="0.35 px" style="stroke-width:0.35;stroke-miterlimit:4;stroke-dasharray:none;fill:none;fill-opacity:1;fill-rule: evenodd"/>
<path id="Shape2DView_nwe0064"  d="M -23.89000000000027 -98.45000000000027 L -23.888742441978916 -98.44874244197892 L -23.884985582436627 -98.44498558243663 L -23.878776666061928 -98.43877666606193 L -23.870193773580727 -98.43019377358073 L -23.859344839845885 -98.41934483984589 L -23.84636629649382 -98.40636629649381 L -23.831421356237502 -98.3914213562375 L -23.814697960371916 -98.37469796037192 L -23.796406415303213 -98.35640641530321 L -23.77677674782363 -98.33677674782363 L -23.756055812391125 -98.31605581239113 L -23.734504186791323 -98.29450418679133 L -23.71239289522069 -98.27239289522069 L -23.69 -98.25 " stroke="#191919" stroke-width="0.35 px" style="stroke-width:0.35;stroke-miterlimit:4;stroke-dasharray:none;fill:none;fill-opacity:1;fill-rule: evenodd"/>
<path id="Shape2DView_nwe0065"  d="M -23.89 -98.45 L -24.39 -98.45 " stroke="#191919" stroke-width="0.35 px" style="stroke-width:0.35;stroke-miterlimit:4;stroke-dasharray:none;fill:none;fill-opacity:1;fill-rule: evenodd"/>
<path id="Shape2DView_nwe0066"  d="M 69.96 16.05 L 82.61 16.05 " stroke="#191919" stroke-width="0.35 px" style="stroke-width:0.35;stroke-miterlimit:4;stroke-dasharray:none;fill:none;fill-opacity:1;fill-rule: evenodd"/>
<path id="Shape2DView_nwe0067"  d="M -23.89000000000027 -115.14999999999972 L -23.888742441978916 -115.15125755802107 L -23.884985582436627 -115.15501441756336 L -23.878776666061928 -115.16122333393807 L -23.870193773580727 -115.16980622641927 L -23.859344839845885 -115.1806551601541 L -23.84636629649382 -115.19363370350618 L -23.831421356237502 -115.2085786437625 L -23.814697960371916 -115.22530203962808 L -23.796406415303213 -115.24359358469678 L -23.77677674782363 -115.26322325217636 L -23.756055812391125 -115.28394418760887 L -23.734504186791323 -115.30549581320867 L -23.71239289522069 -115.3276071047793 L -23.69 -115.35 " stroke="#191919" stroke-width="0.35 px" style="stroke-width:0.35;stroke-miterlimit:4;stroke-dasharray:none;fill:none;fill-opacity:1;fill-rule: evenodd"/>
<path id="Shape2DView_nwe0068"  d="M -23.89 -115.15 L -23.89 -98.45 " stroke="#191919" stroke-width="0.35 px" style="stroke-width:0.35;stroke-miterlimit:4;stroke-dasharray:none;fill:none;fill-opacity:1;fill-rule: evenodd"/>
<path id="Shape2DView_nwe0069"  d="M 82.61 0.10000000000000002 L 82.63239289522069 0.07760710477930828 L 82.65450418679133 0.05549581320867719 L 82.67605581239113 0.03394418760887763 L 82.69677674782363 0.013223252176371506 L 82.71640641530321 -0.006406415303210608 L 82.73469796037192 -0.024697960371914657 L 82.7514213562375 -0.041421356237499984 L 82.76636629649381 -0.05636629649381658 L 82.77934483984589 -0.06934483984588494 L 82.79019377358073 -0.08019377358072652 L 82.79877666606193 -0.0887766660619278 L 82.80498558243663 -0.09498558243662736 L 82.80874244197892 -0.09874244197891621 L 82.81000000000027 -0.1000000000002694 " stroke="#191919" stroke-width="0.35 px" style="stroke-width:0.35;stroke-miterlimit:4;stroke-dasharray:none;fill:none;fill-opacity:1;fill-rule: evenodd"/>
<path id="Shape2DView_nwe0070"  d="M 82.81 15.85 L 82.81 -0.0999999999999801 " stroke="#191919" stroke-width="0.35 px" style="stroke-width:0.35;stroke-miterlimit:4;stroke-dasharray:none;fill:none;fill-opacity:1;fill-rule: evenodd"/>
<path id="Shape2DView_nwe0071"  d="M -24.39000000000027 -115.14999999999972 L -24.388742441978916 -115.15125755802107 L -24.384985582436627 -115.15501441756336 L -24.378776666061928 -115.16122333393807 L -24.370193773580727 -115.16980622641927 L -24.359344839845885 -115.1806551601541 L -24.34636629649382 -115.19363370350618 L -24.331421356237502 -115.2085786437625 L -24.314697960371916 -115.22530203962808 L -24.296406415303213 -115.24359358469678 L -24.27677674782363 -115.26322325217636 L -24.256055812391125 -115.28394418760887 L -24.234504186791323 -115.30549581320867 L -24.21239289522069 -115.3276071047793 L -24.19 -115.35 " stroke="#191919" stroke-width="0.35 px" style="stroke-width:0.35;stroke-miterlimit:4;stroke-dasharray:none;fill:none;fill-opacity:1;fill-rule: evenodd"/>
<path id="Shape2DView_nwe0072"  d="M -24.39 -115.15 L -23.89 -115.15 " stroke="#191919" stroke-width="0.35 px" style="stroke-width:0.35;stroke-miterlimit:4;stroke-dasharray:none;fill:none;fill-opacity:1;fill-rule: evenodd"/>
<path id="Shape2DView_nwe0073"  d="M 82.11 0.10000000000000005 L 82.13239289522069 0.07760710477930831 L 82.15450418679133 0.05549581320867721 L 82.17605581239113 0.03394418760887766 L 82.19677674782363 0.01322325217637152 L 82.21640641530321 -0.006406415303210594 L 82.23469796037192 -0.02469796037191463 L 82.2514213562375 -0.04142135623749996 L 82.26636629649381 -0.05636629649381655 L 82.27934483984589 -0.06934483984588491 L 82.29019377358073 -0.08019377358072652 L 82.29877666606193 -0.08877666606192777 L 82.30498558243663 -0.09498558243662736 L 82.30874244197892 -0.09874244197891621 L 82.31000000000027 -0.1000000000002694 " stroke="#191919" stroke-width="0.35 px" style="stroke-width:0.35;stroke-miterlimit:4;stroke-dasharray:none;fill:none;fill-opacity:1;fill-rule: evenodd"/>
<path id="Shape2DView_nwe0074"  d="M 82.81 -0.09999999999998 L 82.31 -0.09999999999998 " stroke="#191919" stroke-width="0.35 px" style="stroke-width:0.35;stroke-miterlimit:4;stroke-dasharray:none;fill:none;fill-opacity:1;fill-rule: evenodd"/>
<path id="Shape2DView_nwe0075"  d="M -24.39000000000027 -130.35000000000028 L -24.388742441978916 -130.3487424419789 L -24.384985582436627 -130.34498558243664 L -24.378776666061928 -130.33877666606193 L -24.370193773580727 -130.33019377358073 L -24.359344839845885 -130.31934483984588 L -24.34636629649382 -130.30636629649382 L -24.331421356237502 -130.2914213562375 L -24.314697960371916 -130.27469796037192 L -24.296406415303213 -130.25640641530322 L -24.27677674782363 -130.23677674782363 L -24.256055812391125 -130.21605581239112 L -24.234504186791323 -130.19450418679133 L -24.21239289522069 -130.1723928952207 L -24.19 -130.15 " stroke="#191919" stroke-width="0.35 px" style="stroke-width:0.35;stroke-miterlimit:4;stroke-dasharray:none;fill:none;fill-opacity:1;fill-rule: evenodd"/>
<path id="Shape2DView_nwe0076"  d="M -24.39 -130.35 L -24.39 -115.15 " stroke="#191919" stroke-width="0.35 px" style="stroke-width:0.35;stroke-miterlimit:4;stroke-dasharray:none;fill:none;fill-opacity:1;fill-rule: evenodd"/>
<path id="Shape2DView_nwe0077"  d="M 82.11 -16.6 L 82.13239289522069 -16.57760710477931 L 82.15450418679133 -16.55549581320868 L 82.17605581239113 -16.533944187608878 L 82.19677674782363 -16.513223252176374 L 82.21640641530321 -16.49359358469679 L 82.23469796037192 -16.475302039628087 L 82.2514213562375 -16.4585786437625 L 82.26636629649381 -16.443633703506183 L 82.27934483984589 -16.430655160154117 L 82.29019377358073 -16.419806226419276 L 82.29877666606193 -16.411223333938075 L 82.30498558243663 -16.405014417563375 L 82.30874244197892 -16.401257558021086 L 82.31000000000027 -16.399999999999732 " stroke="#191919" stroke-width="0.35 px" style="stroke-width:0.35;stroke-miterlimit:4;stroke-dasharray:none;fill:none;fill-opacity:1;fill-rule: evenodd"/>
<path id="Shape2DView_nwe0078"  d="M 82.31 -0.09999999999998 L 82.31 -16.4 " stroke="#191919" stroke-width="0.35 px" style="stroke-width:0.35;stroke-miterlimit:4;stroke-dasharray:none;fill:none;fill-opacity:1;fill-rule: evenodd"/>
<path id="Shape2DView_nwe0079"  d="M -11.539999999999731 -130.35000000000028 L -11.541257558021083 -130.3487424419789 L -11.545014417563372 -130.34498558243664 L -11.551223333938072 -130.33877666606193 L -11.559806226419274 -130.33019377358073 L -11.570655160154116 -130.31934483984588 L -11.583633703506184 -130.30636629649382 L -11.598578643762501 -130.2914213562375 L -11.615302039628085 -130.27469796037192 L -11.63359358469679 -130.25640641530322 L -11.653223252176371 -130.23677674782363 L -11.673944187608878 -130.21605581239112 L -11.695495813208677 -130.19450418679133 L -11.717607104779308 -130.1723928952207 L -11.74 -130.15 " stroke="#191919" stroke-width="0.35 px" style="stroke-width:0.35;stroke-miterlimit:4;stroke-dasharray:none;fill:none;fill-opacity:1;fill-rule: evenodd"/>
<path id="Shape2DView_nwe0080"  d="M -11.54 -130.35 L -24.39 -130.35 " stroke="#191919" stroke-width="0.35 px" style="stroke-width:0.35;stroke-miterlimit:4;stroke-dasharray:none;fill:none;fill-opacity:1;fill-rule: evenodd"/>
<path id="Shape2DView_nwe0081"  d="M 82.61 -16.6 L 82.63239289522069 -16.57760710477931 L 82.65450418679133 -16.55549581320868 L 82.67605581239113 -16.533944187608878 L 82.69677674782363 -16.513223252176374 L 82.71640641530321 -16.49359358469679 L 82.73469796037192 -16.475302039628087 L 82.7514213562375 -16.4585786437625 L 82.76636629649381 -16.443633703506183 L 82.77934483984589 -16.430655160154117 L 82.79019377358073 -16.419806226419276 L 82.79877666606193 -16.411223333938075 L 82.80498558243663 -16.405014417563375 L 82.80874244197892 -16.401257558021086 L 82.81000000000027 -16.399999999999732 " stroke="#191919" stroke-width="0.35 px" style="stroke-width:0.35;stroke-miterlimit:4;stroke-dasharray:none;fill:none;fill-opacity:1;fill-rule: evenodd"/>
<path id="Shape2DView_nwe0082"  d="M 82.31 -16.4 L 82.81 -16.4 " stroke="#191919" stroke-width="0.35 px" style="stroke-width:0.35;stroke-miterlimit:4;stroke-dasharray:none;fill:none;fill-opacity:1;fill-rule: evenodd"/>
<path id="Shape2DView_nwe0083"  d="M -11.539999999999731 -129.85000000000028 L -11.541257558021083 -129.8487424419789 L -11.545014417563372 -129.84498558243664 L -11.551223333938072 -129.83877666606193 L -11.559806226419274 -129.83019377358073 L -11.570655160154116 -129.81934483984588 L -11.583633703506184 -129.80636629649382 L -11.598578643762501 -129.7914213562375 L -11.615302039628085 -129.77469796037192 L -11.63359358469679 -129.75640641530322 L -11.653223252176371 -129.73677674782363 L -11.673944187608878 -129.71605581239112 L -11.695495813208677 -129.69450418679133 L -11.717607104779308 -129.6723928952207 L -11.74 -129.65 " stroke="#191919" stroke-width="0.35 px" style="stroke-width:0.35;stroke-miterlimit:4;stroke-dasharray:none;fill:none;fill-opacity:1;fill-rule: evenodd"/>
<path id="Shape2DView_nwe0084"  d="M -11.54 -129.85 L -11.54 -130.35 " stroke="#191919" stroke-width="0.35 px" style="stroke-width:0.35;stroke-miterlimit:4;stroke-dasharray:none;fill:none;fill-opacity:1;fill-rule: evenodd"/>
<path id="Shape2DView_nwe0085"  d="M 82.61 -32.5 L 82.63239289522069 -32.52239289522069 L 82.65450418679133 -32.54450418679132 L 82.67605581239113 -32.56605581239112 L 82.69677674782363 -32.58677674782363 L 82.71640641530321 -32.60640641530321 L 82.73469796037192 -32.62469796037191 L 82.7514213562375 -32.6414213562375 L 82.76636629649381 -32.656366296493815 L 82.77934483984589 -32.669344839845884 L 82.79019377358073 -32.680193773580726 L 82.79877666606193 -32.688776666061926 L 82.80498558243663 -32.69498558243663 L 82.80874244197892 -32.698742441978915 L 82.81000000000027 -32.70000000000027 " stroke="#191919" stroke-width="0.35 px" style="stroke-width:0.35;stroke-miterlimit:4;stroke-dasharray:none;fill:none;fill-opacity:1;fill-rule: evenodd"/>
<path id="Shape2DView_nwe0086"  d="M 82.81 -16.4 L 82.81 -32.7 " stroke="#191919" stroke-width="0.35 px" style="stroke-width:0.35;stroke-miterlimit:4;stroke-dasharray:none;fill:none;fill-opacity:1;fill-rule: evenodd"/>
<path id="Shape2DView_nwe0087"  d="M 4.759999999999731 -129.85000000000028 L 4.761257547906713 -129.8487424520933 L 4.765014377360277 -129.84498562263974 L 4.77122324443026 -129.83877675556974 L 4.779806069638777 -129.83019393036122 L 4.790654919847058 -129.81934508015294 L 4.803633365566377 -129.80636663443363 L 4.818578196624232 -129.79142180337578 L 4.835301474610454 -129.77469852538954 L 4.853592896292748 -129.75640710370726 L 4.8732224382805915 -129.7367775617194 L 4.893943249679567 -129.71605675032043 L 4.915494756359616 -129.69450524364038 L 4.937605937799561 -129.67239406220045 L 4.959998735299997 -129.65000126470002 " stroke="#191919" stroke-width="0.35 px" style="stroke-width:0.35;stroke-miterlimit:4;stroke-dasharray:none;fill:none;fill-opacity:1;fill-rule: evenodd"/>
<path id="Shape2DView_nwe0088"  d="M 4.76 -129.85 L -11.539999999999997 -129.85 " stroke="#191919" stroke-width="0.35 px" style="stroke-width:0.35;stroke-miterlimit:4;stroke-dasharray:none;fill:none;fill-opacity:1;fill-rule: evenodd"/>
<path id="Shape2DView_nwe0089"  d="M 82.11 -32.5 L 82.13239289522069 -32.52239289522069 L 82.15450418679133 -32.54450418679132 L 82.17605581239113 -32.56605581239112 L 82.19677674782363 -32.58677674782363 L 82.21640641530321 -32.60640641530321 L 82.23469796037192 -32.62469796037191 L 82.2514213562375 -32.6414213562375 L 82.26636629649381 -32.656366296493815 L 82.27934483984589 -32.669344839845884 L 82.29019377358073 -32.680193773580726 L 82.29877666606193 -32.688776666061926 L 82.30498558243663 -32.69498558243663 L 82.30874244197892 -32.698742441978915 L 82.31000000000027 -32.70000000000027 " stroke="#191919" stroke-width="0.35 px" style="stroke-width:0.35;stroke-miterlimit:4;stroke-dasharray:none;fill:none;fill-opacity:1;fill-rule: evenodd"/>
<path id="Shape2DView_nwe0090"  d="M 82.81 -32.7 L 82.31 -32.7 " stroke="#191919" stroke-width="0.35 px" style="stroke-width:0.35;stroke-miterlimit:4;stroke-dasharray:none;fill:none;fill-opacity:1;fill-rule: evenodd"/>
<path id="Shape2DView_nwe0091"  d="M 82.11 -49.2 L 82.13239289522069 -49.17760710477931 L 82.15450418679133 -49.15549581320868 L 82.17605581239113 -49.13394418760888 L 82.19677674782363 -49.113223252176375 L 82.21640641530321 -49.09359358469679 L 82.23469796037192 -49.07530203962809 L 82.2514213562375 -49.0585786437625 L 82.26636629649381 -49.04363370350619 L 82.27934483984589 -49.03065516015412 L 82.29019377358073 -49.01980622641928 L 82.29877666606193 -49.01122333393808 L 82.30498558243663 -49.00501441756337 L 82.30874244197892 -49.00125755802109 L 82.31000000000027 -48.99999999999973 " stroke="#191919" stroke-width="0.35 px" style="stroke-width:0.35;stroke-miterlimit:4;stroke-dasharray:none;fill:none;fill-opacity:1;fill-rule: evenodd"/>
<path id="Shape2DView_nwe0092"  d="M 82.31 -32.7 L 82.31 -49.0 " stroke="#191919" stroke-width="0.35 px" style="stroke-width:0.35;stroke-miterlimit:4;stroke-dasharray:none;fill:none;fill-opacity:1;fill-rule: evenodd"/>
<path id="Shape2DView_nwe0093"  d="M 82.61 -49.2 L 82.63239289522069 -49.17760710477931 L 82.65450418679133 -49.15549581320868 L 82.67605581239113 -49.13394418760888 L 82.69677674782363 -49.113223252176375 L 82.71640641530321 -49.09359358469679 L 82.73469796037192 -49.07530203962809 L 82.7514213562375 -49.0585786437625 L 82.76636629649381 -49.04363370350619 L 82.77934483984589 -49.03065516015412 L 82.79019377358073 -49.01980622641928 L 82.79877666606193 -49.01122333393808 L 82.80498558243663 -49.00501441756337 L 82.80874244197892 -49.00125755802109 L 82.81000000000027 -48.99999999999973 " stroke="#191919" stroke-width="0.35 px" style="stroke-width:0.35;stroke-miterlimit:4;stroke-dasharray:none;fill:none;fill-opacity:1;fill-rule: evenodd"/>
<path id="Shape2DView_nwe0094"  d="M 82.31 -49.0 L 82.81 -49.0 " stroke="#191919" stroke-width="0.35 px" style="stroke-width:0.35;stroke-miterlimit:4;stroke-dasharray:none;fill:none;fill-opacity:1;fill-rule: evenodd"/>
<path id="Shape2DView_nwe0095"  d="M 4.759999999999731 -130.35000000000028 L 4.761257558021084 -130.3487424419789 L 4.765014417563372 -130.34498558243664 L 4.771223333938072 -130.33877666606193 L 4.779806226419273 -130.33019377358073 L 4.790655160154115 -130.31934483984588 L 4.803633703506184 -130.30636629649382 L 4.8185786437625 -130.2914213562375 L 4.835302039628085 -130.27469796037192 L 4.85359358469679 -130.25640641530322 L 4.873223252176372 -130.23677674782363 L 4.893944187608877 -130.21605581239112 L 4.915495813208677 -130.19450418679133 L 4.937607104779308 -130.1723928952207 L 4.96 -130.15 " stroke="#191919" stroke-width="0.35 px" style="stroke-width:0.35;stroke-miterlimit:4;stroke-dasharray:none;fill:none;fill-opacity:1;fill-rule: evenodd"/>
<path id="Shape2DView_nwe0096"  d="M 4.76 -130.35 L 4.76 -129.85 " stroke="#191919" stroke-width="0.35 px" style="stroke-width:0.35;stroke-miterlimit:4;stroke-dasharray:none;fill:none;fill-opacity:1;fill-rule: evenodd"/>
<path id="Shape2DView_nwe0097"  d="M 82.61 -65.1 L 82.63239289522069 -65.12239289522068 L 82.65450418679133 -65.14450418679132 L 82.67605581239113 -65.16605581239112 L 82.69677674782363 -65.18677674782363 L 82.71640641530321 -65.2064064153032 L 82.73469796037192 -65.22469796037191 L 82.7514213562375 -65.2414213562375 L 82.76636629649381 -65.25636629649381 L 82.77934483984589 -65.26934483984589 L 82.79019377358073 -65.28019377358072 L 82.79877666606193 -65.28877666606192 L 82.80498558243663 -65.29498558243662 L 82.80874244197892 -65.29874244197892 L 82.81000000000027 -65.30000000000027 " stroke="#191919" stroke-width="0.35 px" style="stroke-width:0.35;stroke-miterlimit:4;stroke-dasharray:none;fill:none;fill-opacity:1;fill-rule: evenodd"/>
<path id="Shape2DView_nwe0098"  d="M 82.81 -49.0 L 82.81 -65.3 " stroke="#191919" stroke-width="0.35 px" style="stroke-width:0.35;stroke-miterlimit:4;stroke-dasharray:none;fill:none;fill-opacity:1;fill-rule: evenodd"/>
<path id="Shape2DView_nwe0099"  d="M 21.06 -130.35 L 4.760000000000002 -130.35 " stroke="#191919" stroke-width="0.35 px" style="stroke-width:0.35;stroke-miterlimit:4;stroke-dasharray:none;fill:none;fill-opacity:1;fill-rule: evenodd"/>
<path id="Shape2DView_nwe0100"  d="M 20.86 -130.15 L 20.88239289522069 -130.1723928952207 L 20.90450418679132 -130.19450418679133 L 20.926055812391123 -130.21605581239112 L 20.946776747823627 -130.23677674782363 L 20.96640641530321 -130.25640641530322 L 20.984697960371914 -130.27469796037192 L 21.0014213562375 -130.2914213562375 L 21.016366296493818 -130.30636629649382 L 21.029344839845884 -130.31934483984588 L 21.040193773580725 -130.33019377358073 L 21.048776666061926 -130.33877666606193 L 21.054985582436625 -130.34498558243664 L 21.058742441978914 -130.3487424419789 L 21.06000000000027 -130.35000000000028 " stroke="#191919" stroke-width="0.35 px" style="stroke-width:0.35;stroke-miterlimit:4;stroke-dasharray:none;fill:none;fill-opacity:1;fill-rule: evenodd"/>
<path id="Shape2DView_nwe0101"  d="M 82.11 -65.1 L 82.13239289522069 -65.12239289522068 L 82.15450418679133 -65.14450418679132 L 82.17605581239113 -65.16605581239112 L 82.19677674782363 -65.18677674782363 L 82.21640641530321 -65.2064064153032 L 82.23469796037192 -65.22469796037191 L 82.2514213562375 -65.2414213562375 L 82.26636629649381 -65.25636629649381 L 82.27934483984589 -65.26934483984589 L 82.29019377358073 -65.28019377358072 L 82.29877666606193 -65.28877666606192 L 82.30498558243663 -65.29498558243662 L 82.30874244197892 -65.29874244197892 L 82.31000000000027 -65.30000000000027 " stroke="#191919" stroke-width="0.35 px" style="stroke-width:0.35;stroke-miterlimit:4;stroke-dasharray:none;fill:none;fill-opacity:1;fill-rule: evenodd"/>
<path id="Shape2DView_nwe0102"  d="M 82.81 -65.3 L 82.31 -65.3 " stroke="#191919" stroke-width="0.35 px" style="stroke-width:0.35;stroke-miterlimit:4;stroke-dasharray:none;fill:none;fill-opacity:1;fill-rule: evenodd"/>
<path id="Shape2DView_nwe0103"  d="M 21.06 -129.85 L 21.06 -130.35 " stroke="#191919" stroke-width="0.35 px" style="stroke-width:0.35;stroke-miterlimit:4;stroke-dasharray:none;fill:none;fill-opacity:1;fill-rule: evenodd"/>
<path id="Shape2DView_nwe0104"  d="M 20.86 -129.65 L 20.88239289522069 -129.6723928952207 L 20.90450418679132 -129.69450418679133 L 20.926055812391123 -129.71605581239112 L 20.946776747823627 -129.73677674782363 L 20.96640641530321 -129.75640641530322 L 20.984697960371914 -129.77469796037192 L 21.0014213562375 -129.7914213562375 L 21.016366296493818 -129.80636629649382 L 21.029344839845884 -129.81934483984588 L 21.040193773580725 -129.83019377358073 L 21.048776666061926 -129.83877666606193 L 21.054985582436625 -129.84498558243664 L 21.058742441978914 -129.8487424419789 L 21.06000000000027 -129.85000000000028 " stroke="#191919" stroke-width="0.35 px" style="stroke-width:0.35;stroke-miterlimit:4;stroke-dasharray:none;fill:none;fill-opacity:1;fill-rule: evenodd"/>
<path id="Shape2DView_nwe0105"  d="M 82.11 -81.8 L 82.13239289522069 -81.7776071047793 L 82.15450418679133 -81.75549581320867 L 82.17605581239113 -81.73394418760887 L 82.19677674782363 -81.71322325217636 L 82.21640641530321 -81.69359358469679 L 82.23469796037192 -81.67530203962808 L 82.2514213562375 -81.6585786437625 L 82.26636629649381 -81.64363370350618 L 82.27934483984589 -81.6306551601541 L 82.29019377358073 -81.61980622641927 L 82.29877666606193 -81.61122333393807 L 82.30498558243663 -81.60501441756337 L 82.30874244197892 -81.60125755802108 L 82.31000000000027 -81.59999999999972 " stroke="#191919" stroke-width="0.35 px" style="stroke-width:0.35;stroke-miterlimit:4;stroke-dasharray:none;fill:none;fill-opacity:1;fill-rule: evenodd"/>
<path id="Shape2DView_nwe0106"  d="M 82.31 -65.3 L 82.31 -81.6 " stroke="#191919" stroke-width="0.35 px" style="stroke-width:0.35;stroke-miterlimit:4;stroke-dasharray:none;fill:none;fill-opacity:1;fill-rule: evenodd"/>
<path id="Shape2DView_nwe0107"  d="M 37.36 -129.85 L 21.06 -129.85 " stroke="#191919" stroke-width="0.35 px" style="stroke-width:0.35;stroke-miterlimit:4;stroke-dasharray:none;fill:none;fill-opacity:1;fill-rule: evenodd"/>
<path id="Shape2DView_nwe0108"  d="M 37.56 -129.65 L 37.53760710477931 -129.6723928952207 L 37.51549581320868 -129.69450418679133 L 37.49394418760888 -129.71605581239112 L 37.473223252176375 -129.73677674782363 L 37.45359358469679 -129.75640641530322 L 37.43530203962809 -129.77469796037192 L 37.4185786437625 -129.7914213562375 L 37.40363370350619 -129.80636629649382 L 37.39065516015412 -129.81934483984588 L 37.37980622641928 -129.83019377358073 L 37.371223333938076 -129.83877666606193 L 37.36501441756337 -129.84498558243664 L 37.36125755802109 -129.8487424419789 L 37.35999999999973 -129.85000000000028 " stroke="#191919" stroke-width="0.35 px" style="stroke-width:0.35;stroke-miterlimit:4;stroke-dasharray:none;fill:none;fill-opacity:1;fill-rule: evenodd"/>
<path id="Shape2DView_nwe0109"  d="M 82.61 -81.8 L 82.63239289522069 -81.7776071047793 L 82.65450418679133 -81.75549581320867 L 82.67605581239113 -81.73394418760887 L 82.69677674782363 -81.71322325217636 L 82.71640641530321 -81.69359358469679 L 82.73469796037192 -81.67530203962808 L 82.7514213562375 -81.6585786437625 L 82.76636629649381 -81.64363370350618 L 82.77934483984589 -81.6306551601541 L 82.79019377358073 -81.61980622641927 L 82.79877666606193 -81.61122333393807 L 82.80498558243663 -81.60501441756337 L 82.80874244197892 -81.60125755802108 L 82.81000000000027 -81.59999999999972 " stroke="#191919" stroke-width="0.35 px" style="stroke-width:0.35;stroke-miterlimit:4;stroke-dasharray:none;fill:none;fill-opacity:1;fill-rule: evenodd"/>
<path id="Shape2DView_nwe0110"  d="M 82.31 -81.6 L 82.81 -81.6 " stroke="#191919" stroke-width="0.35 px" style="stroke-width:0.35;stroke-miterlimit:4;stroke-dasharray:none;fill:none;fill-opacity:1;fill-rule: evenodd"/>
<path id="Shape2DView_nwe0111"  d="M 37.36 -130.35 L 37.36 -129.85 " stroke="#191919" stroke-width="0.35 px" style="stroke-width:0.35;stroke-miterlimit:4;stroke-dasharray:none;fill:none;fill-opacity:1;fill-rule: evenodd"/>
<path id="Shape2DView_nwe0112"  d="M 37.56 -130.15 L 37.53760710477931 -130.1723928952207 L 37.51549581320868 -130.19450418679133 L 37.49394418760888 -130.21605581239112 L 37.473223252176375 -130.23677674782363 L 37.45359358469679 -130.25640641530322 L 37.43530203962809 -130.27469796037192 L 37.4185786437625 -130.2914213562375 L 37.40363370350619 -130.30636629649382 L 37.39065516015412 -130.31934483984588 L 37.37980622641928 -130.33019377358073 L 37.371223333938076 -130.33877666606193 L 37.36501441756337 -130.34498558243664 L 37.36125755802109 -130.3487424419789 L 37.35999999999973 -130.35000000000028 " stroke="#191919" stroke-width="0.35 px" style="stroke-width:0.35;stroke-miterlimit:4;stroke-dasharray:none;fill:none;fill-opacity:1;fill-rule: evenodd"/>
<path id="Shape2DView_nwe0113"  d="M 82.61 -97.7 L 82.63239289522069 -97.7223928952207 L 82.65450418679133 -97.74450418679133 L 82.67605581239113 -97.76605581239113 L 82.69677674782363 -97.78677674782364 L 82.71640641530321 -97.80640641530321 L 82.73469796037192 -97.82469796037192 L 82.7514213562375 -97.8414213562375 L 82.76636629649381 -97.85636629649382 L 82.77934483984589 -97.8693448398459 L 82.79019377358073 -97.88019377358073 L 82.79877666606193 -97.88877666606193 L 82.80498558243663 -97.89498558243663 L 82.80874244197892 -97.89874244197892 L 82.81000000000027 -97.90000000000028 " stroke="#191919" stroke-width="0.35 px" style="stroke-width:0.35;stroke-miterlimit:4;stroke-dasharray:none;fill:none;fill-opacity:1;fill-rule: evenodd"/>
<path id="Shape2DView_nwe0114"  d="M 82.81 -81.6 L 82.81 -97.9 " stroke="#191919" stroke-width="0.35 px" style="stroke-width:0.35;stroke-miterlimit:4;stroke-dasharray:none;fill:none;fill-opacity:1;fill-rule: evenodd"/>
<path id="Shape2DView_nwe0115"  d="M 53.66 -130.35 L 37.36 -130.35 " stroke="#191919" stroke-width="0.35 px" style="stroke-width:0.35;stroke-miterlimit:4;stroke-dasharray:none;fill:none;fill-opacity:1;fill-rule: evenodd"/>
<path id="Shape2DView_nwe0116"  d="M 53.46 -130.15 L 53.48239289522069 -130.1723928952207 L 53.50450418679132 -130.19450418679133 L 53.52605581239112 -130.21605581239112 L 53.54677674782363 -130.23677674782363 L 53.56640641530321 -130.25640641530322 L 53.58469796037191 -130.27469796037192 L 53.6014213562375 -130.2914213562375 L 53.616366296493815 -130.30636629649382 L 53.629344839845885 -130.31934483984588 L 53.64019377358073 -130.33019377358073 L 53.64877666606193 -130.33877666606193 L 53.65498558243663 -130.34498558243664 L 53.658742441978916 -130.3487424419789 L 53.660000000000274 -130.35000000000028 " stroke="#191919" stroke-width="0.35 px" style="stroke-width:0.35;stroke-miterlimit:4;stroke-dasharray:none;fill:none;fill-opacity:1;fill-rule: evenodd"/>
<path id="Shape2DView_nwe0117"  d="M 82.11 -97.7 L 82.13239289522069 -97.7223928952207 L 82.15450418679133 -97.74450418679133 L 82.17605581239113 -97.76605581239113 L 82.19677674782363 -97.78677674782364 L 82.21640641530321 -97.80640641530321 L 82.23469796037192 -97.82469796037192 L 82.2514213562375 -97.8414213562375 L 82.26636629649381 -97.85636629649382 L 82.27934483984589 -97.8693448398459 L 82.29019377358073 -97.88019377358073 L 82.29877666606193 -97.88877666606193 L 82.30498558243663 -97.89498558243663 L 82.30874244197892 -97.89874244197892 L 82.31000000000027 -97.90000000000028 " stroke="#191919" stroke-width="0.35 px" style="stroke-width:0.35;stroke-miterlimit:4;stroke-dasharray:none;fill:none;fill-opacity:1;fill-rule: evenodd"/>
<path id="Shape2DView_nwe0118"  d="M 82.81 -97.9 L 82.31 -97.9 " stroke="#191919" stroke-width="0.35 px" style="stroke-width:0.35;stroke-miterlimit:4;stroke-dasharray:none;fill:none;fill-opacity:1;fill-rule: evenodd"/>
<path id="Shape2DView_nwe0119"  d="M 53.66 -129.85 L 53.66 -130.35 " stroke="#191919" stroke-width="0.35 px" style="stroke-width:0.35;stroke-miterlimit:4;stroke-dasharray:none;fill:none;fill-opacity:1;fill-rule: evenodd"/>
<path id="Shape2DView_nwe0120"  d="M 53.46 -129.65 L 53.48239289522069 -129.6723928952207 L 53.50450418679132 -129.69450418679133 L 53.52605581239112 -129.71605581239112 L 53.54677674782363 -129.73677674782363 L 53.56640641530321 -129.75640641530322 L 53.58469796037191 -129.77469796037192 L 53.6014213562375 -129.7914213562375 L 53.616366296493815 -129.80636629649382 L 53.629344839845885 -129.81934483984588 L 53.64019377358073 -129.83019377358073 L 53.64877666606193 -129.83877666606193 L 53.65498558243663 -129.84498558243664 L 53.658742441978916 -129.8487424419789 L 53.660000000000274 -129.85000000000028 " stroke="#191919" stroke-width="0.35 px" style="stroke-width:0.35;stroke-miterlimit:4;stroke-dasharray:none;fill:none;fill-opacity:1;fill-rule: evenodd"/>
<path id="Shape2DView_nwe0121"  d="M 82.31 -97.9 L 82.31 -114.2 " stroke="#191919" stroke-width="0.35 px" style="stroke-width:0.35;stroke-miterlimit:4;stroke-dasharray:none;fill:none;fill-opacity:1;fill-rule: evenodd"/>
<path id="Shape2DView_nwe0122"  d="M 69.96 -129.85 L 53.66 -129.85 " stroke="#191919" stroke-width="0.35 px" style="stroke-width:0.35;stroke-miterlimit:4;stroke-dasharray:none;fill:none;fill-opacity:1;fill-rule: evenodd"/>
<path id="Shape2DView_nwe0123"  d="M 70.16 -129.65 L 70.1376071047793 -129.6723928952207 L 70.11549581320867 -129.69450418679133 L 70.09394418760887 -129.71605581239112 L 70.07322325217636 -129.73677674782363 L 70.05359358469678 -129.75640641530322 L 70.03530203962808 -129.77469796037192 L 70.0185786437625 -129.7914213562375 L 70.00363370350618 -129.80636629649382 L 69.9906551601541 -129.81934483984588 L 69.97980622641927 -129.83019377358073 L 69.97122333393807 -129.83877666606193 L 69.96501441756337 -129.84498558243664 L 69.96125755802107 -129.8487424419789 L 69.95999999999972 -129.85000000000028 " stroke="#191919" stroke-width="0.35 px" style="stroke-width:0.35;stroke-miterlimit:4;stroke-dasharray:none;fill:none;fill-opacity:1;fill-rule: evenodd"/>
<path id="Shape2DView_nwe0124"  d="M 82.1100008316 -114.3999991684 L 82.1323936625651 -114.37760633743491 L 82.15450488171966 -114.35549511828034 L 82.17605642912415 -114.33394357087586 L 82.19677728299875 -114.31322271700125 L 82.2164068679616 -114.29359313203841 L 82.23469833189789 -114.27530166810212 L 82.2514216502522 -114.25857834974781 L 82.26636651870534 -114.24363348129467 L 82.27934499785923 -114.23065500214078 L 82.29019387667138 -114.21980612332862 L 82.29877672491759 -114.21122327508242 L 82.30498560887207 -114.20501439112793 L 82.3087424486296 -114.2012575513704 L 82.31000000000027 -114.19999999999973 " stroke="#191919" stroke-width="0.35 px" style="stroke-width:0.35;stroke-miterlimit:4;stroke-dasharray:none;fill:none;fill-opacity:1;fill-rule: evenodd"/>
<path id="Shape2DView_nwe0125"  d="M 69.96 -130.35 L 69.96 -129.85 " stroke="#191919" stroke-width="0.35 px" style="stroke-width:0.35;stroke-miterlimit:4;stroke-dasharray:none;fill:none;fill-opacity:1;fill-rule: evenodd"/>
<path id="Shape2DView_nwe0126"  d="M 70.16 -130.15 L 70.1376071047793 -130.1723928952207 L 70.11549581320867 -130.19450418679133 L 70.09394418760887 -130.21605581239112 L 70.07322325217636 -130.23677674782363 L 70.05359358469678 -130.25640641530322 L 70.03530203962808 -130.27469796037192 L 70.0185786437625 -130.2914213562375 L 70.00363370350618 -130.30636629649382 L 69.9906551601541 -130.31934483984588 L 69.97980622641927 -130.33019377358073 L 69.97122333393807 -130.33877666606193 L 69.96501441756337 -130.34498558243664 L 69.96125755802107 -130.3487424419789 L 69.95999999999972 -130.35000000000028 " stroke="#191919" stroke-width="0.35 px" style="stroke-width:0.35;stroke-miterlimit:4;stroke-dasharray:none;fill:none;fill-opacity:1;fill-rule: evenodd"/>
<path id="Shape2DView_nwe0127"  d="M 82.61 -114.4 L 82.63239289522069 -114.37760710477932 L 82.65450418679133 -114.35549581320868 L 82.67605581239113 -114.33394418760888 L 82.69677674782363 -114.31322325217637 L 82.71640641530321 -114.2935935846968 L 82.73469796037192 -114.27530203962809 L 82.7514213562375 -114.2585786437625 L 82.76636629649381 -114.24363370350619 L 82.77934483984589 -114.23065516015411 L 82.79019377358073 -114.21980622641928 L 82.79877666606193 -114.21122333393808 L 82.80498558243663 -114.20501441756338 L 82.80874244197892 -114.20125755802108 L 82.81000000000027 -114.19999999999973 " stroke="#191919" stroke-width="0.35 px" style="stroke-width:0.35;stroke-miterlimit:4;stroke-dasharray:none;fill:none;fill-opacity:1;fill-rule: evenodd"/>
<path id="Shape2DView_nwe0128"  d="M 82.31 -114.2 L 82.81 -114.2 " stroke="#191919" stroke-width="0.35 px" style="stroke-width:0.35;stroke-miterlimit:4;stroke-dasharray:none;fill:none;fill-opacity:1;fill-rule: evenodd"/>
<path id="Shape2DView_nwe0129"  d="M 82.81 -130.35 L 69.96 -130.35 " stroke="#191919" stroke-width="0.35 px" style="stroke-width:0.35;stroke-miterlimit:4;stroke-dasharray:none;fill:none;fill-opacity:1;fill-rule: evenodd"/>
<path id="Shape2DView_nwe0130"  d="M 82.61 -130.15 L 82.63239289522069 -130.1723928952207 L 82.65450418679133 -130.19450418679133 L 82.67605581239113 -130.21605581239112 L 82.69677674782363 -130.23677674782363 L 82.71640641530321 -130.25640641530322 L 82.73469796037192 -130.27469796037192 L 82.7514213562375 -130.2914213562375 L 82.76636629649381 -130.30636629649382 L 82.77934483984589 -130.31934483984588 L 82.79019377358073 -130.33019377358073 L 82.79877666606193 -130.33877666606193 L 82.80498558243663 -130.34498558243664 L 82.80874244197892 -130.3487424419789 L 82.81000000000027 -130.35000000000028 " stroke="#191919" stroke-width="0.35 px" style="stroke-width:0.35;stroke-miterlimit:4;stroke-dasharray:none;fill:none;fill-opacity:1;fill-rule: evenodd"/>
<path id="Shape2DView_nwe0131"  d="M 82.81 -114.2 L 82.81 -130.35 " stroke="#191919" stroke-width="0.35 px" style="stroke-width:0.35;stroke-miterlimit:4;stroke-dasharray:none;fill:none;fill-opacity:1;fill-rule: evenodd"/>
<path id="Shape2DView_nwe0132"  d="M -24.39 -0.05 A 0.2 0.2 0 0 1 -24.19 -0.25" stroke="#191919" stroke-width="0.35 px" style="stroke-width:0.35;stroke-miterlimit:4;stroke-dasharray:none;fill:none;fill-opacity:1;fill-rule: evenodd"/>
<path id="Shape2DView_nwe0133"  d="M 37.56 16.05 A 0.2 0.2 0 0 1 37.36 15.85" stroke="#191919" stroke-width="0.35 px" style="stroke-width:0.35;stroke-miterlimit:4;stroke-dasharray:none;fill:none;fill-opacity:1;fill-rule: evenodd"/>
<path id="Shape2DView_nwe0134"  d="M -24.19 -81.75 A 0.2 0.2 0 0 1 -24.39 -81.95" stroke="#191919" stroke-width="0.35 px" style="stroke-width:0.35;stroke-miterlimit:4;stroke-dasharray:none;fill:none;fill-opacity:1;fill-rule: evenodd"/>
<path id="Shape2DView_nwe0135"  d="M 82.81 15.85 A 0.2 0.2 0 0 1 82.61 16.05" stroke="#191919" stroke-width="0.35 px" style="stroke-width:0.35;stroke-miterlimit:4;stroke-dasharray:none;fill:none;fill-opacity:1;fill-rule: evenodd"/>
<path id="Shape2DView_nwe0136"  d="M -15.2 -113.2 L -15.2 2.200000000000003 " stroke="#191919" stroke-width="0.35 px" style="stroke-width:0.35;stroke-miterlimit:4;stroke-dasharray:none;fill:none;fill-opacity:1;fill-rule: evenodd"/>
<path id="Shape2DView_nwe0137"  d="M -15.2 -113.2 L 71.4 -113.2 " stroke="#191919" stroke-width="0.35 px" style="stroke-width:0.35;stroke-miterlimit:4;stroke-dasharray:none;fill:none;fill-opacity:1;fill-rule: evenodd"/>
<path id="Shape2DView_nwe0138"  d="M 71.4 -113.2 L 71.4 2.200000000000003 " stroke="#191919" stroke-width="0.35 px" style="stroke-width:0.35;stroke-miterlimit:4;stroke-dasharray:none;fill:none;fill-opacity:1;fill-rule: evenodd"/>
<path id="Shape2DView_nwe0139"  d="M -15.2 2.2 L 71.4 2.2 " stroke="#191919" stroke-width="0.35 px" style="stroke-width:0.35;stroke-miterlimit:4;stroke-dasharray:none;fill:none;fill-opacity:1;fill-rule: evenodd"/>
<path id="Shape2DView_nwe0140"  d="M -24.19 -0.04999999999999999 L -24.19 15.850000000000001 " stroke="#191919" stroke-width="0.35 px" style="stroke-width:0.35;stroke-miterlimit:4;stroke-dasharray:none;fill:none;fill-opacity:1;fill-rule: evenodd"/>
<path id="Shape2DView_nwe0141"  d="M -24.19 15.85 L -11.74 15.850000000000014 " stroke="#191919" stroke-width="0.35 px" style="stroke-width:0.35;stroke-miterlimit:4;stroke-dasharray:none;fill:none;fill-opacity:1;fill-rule: evenodd"/>
<path id="Shape2DView_nwe0142"  d="M -11.74 15.85 L -11.74 15.35 " stroke="#191919" stroke-width="0.35 px" style="stroke-width:0.35;stroke-miterlimit:4;stroke-dasharray:none;fill:none;fill-opacity:1;fill-rule: evenodd"/>
<path id="Shape2DView_nwe0143"  d="M -11.74 15.35 L 4.960000000000001 15.35 " stroke="#191919" stroke-width="0.35 px" style="stroke-width:0.35;stroke-miterlimit:4;stroke-dasharray:none;fill:none;fill-opacity:1;fill-rule: evenodd"/>
<path id="Shape2DView_nwe0144"  d="M 4.959999999999934 15.349999999999996 L 4.960000000000119 15.849999999999987 " stroke="#191919" stroke-width="0.35 px" style="stroke-width:0.35;stroke-miterlimit:4;stroke-dasharray:none;fill:none;fill-opacity:1;fill-rule: evenodd"/>
<path id="Shape2DView_nwe0145"  d="M 4.96 15.85 L 20.86 15.85 " stroke="#191919" stroke-width="0.35 px" style="stroke-width:0.35;stroke-miterlimit:4;stroke-dasharray:none;fill:none;fill-opacity:1;fill-rule: evenodd"/>
<path id="Shape2DView_nwe0146"  d="M 20.86 15.85 L 20.86 15.35 " stroke="#191919" stroke-width="0.35 px" style="stroke-width:0.35;stroke-miterlimit:4;stroke-dasharray:none;fill:none;fill-opacity:1;fill-rule: evenodd"/>
<path id="Shape2DView_nwe0147"  d="M 20.86 15.35 L 37.56 15.35 " stroke="#191919" stroke-width="0.35 px" style="stroke-width:0.35;stroke-miterlimit:4;stroke-dasharray:none;fill:none;fill-opacity:1;fill-rule: evenodd"/>
<path id="Shape2DView_nwe0148"  d="M 37.56 15.35 L 37.56 15.85 " stroke="#191919" stroke-width="0.35 px" style="stroke-width:0.35;stroke-miterlimit:4;stroke-dasharray:none;fill:none;fill-opacity:1;fill-rule: evenodd"/>
<path id="Shape2DView_nwe0149"  d="M 37.56 15.85 L 53.46 15.85 " stroke="#191919" stroke-width="0.35 px" style="stroke-width:0.35;stroke-miterlimit:4;stroke-dasharray:none;fill:none;fill-opacity:1;fill-rule: evenodd"/>
<path id="Shape2DView_nwe0150"  d="M 53.46 15.85 L 53.46 15.35 " stroke="#191919" stroke-width="0.35 px" style="stroke-width:0.35;stroke-miterlimit:4;stroke-dasharray:none;fill:none;fill-opacity:1;fill-rule: evenodd"/>
<path id="Shape2DView_nwe0151"  d="M 53.46 15.35 L 70.16 15.35 " stroke="#191919" stroke-width="0.35 px" style="stroke-width:0.35;stroke-miterlimit:4;stroke-dasharray:none;fill:none;fill-opacity:1;fill-rule: evenodd"/>
<path id="Shape2DView_nwe0152"  d="M 70.16 15.35 L 70.16 15.85 " stroke="#191919" stroke-width="0.35 px" style="stroke-width:0.35;stroke-miterlimit:4;stroke-dasharray:none;fill:none;fill-opacity:1;fill-rule: evenodd"/>
<path id="Shape2DView_nwe0153"  d="M 70.16 15.85 L 82.61 15.85 " stroke="#191919" stroke-width="0.35 px" style="stroke-width:0.35;stroke-miterlimit:4;stroke-dasharray:none;fill:none;fill-opacity:1;fill-rule: evenodd"/>
<path id="Shape2DView_nwe0154"  d="M 82.61 15.85 L 82.61 0.09999999999999964 " stroke="#191919" stroke-width="0.35 px" style="stroke-width:0.35;stroke-miterlimit:4;stroke-dasharray:none;fill:none;fill-opacity:1;fill-rule: evenodd"/>
<path id="Shape2DView_nwe0155"  d="M 82.61 0.1 L 82.11 0.1 " stroke="#191919" stroke-width="0.35 px" style="stroke-width:0.35;stroke-miterlimit:4;stroke-dasharray:none;fill:none;fill-opacity:1;fill-rule: evenodd"/>
<path id="Shape2DView_nwe0156"  d="M 82.11 0.1 L 82.11 -16.6 " stroke="#191919" stroke-width="0.35 px" style="stroke-width:0.35;stroke-miterlimit:4;stroke-dasharray:none;fill:none;fill-opacity:1;fill-rule: evenodd"/>
<path id="Shape2DView_nwe0157"  d="M 82.11 -16.6 L 82.61 -16.6 " stroke="#191919" stroke-width="0.35 px" style="stroke-width:0.35;stroke-miterlimit:4;stroke-dasharray:none;fill:none;fill-opacity:1;fill-rule: evenodd"/>
<path id="Shape2DView_nwe0158"  d="M 82.61 -16.6 L 82.61 -32.5 " stroke="#191919" stroke-width="0.35 px" style="stroke-width:0.35;stroke-miterlimit:4;stroke-dasharray:none;fill:none;fill-opacity:1;fill-rule: evenodd"/>
<path id="Shape2DView_nwe0159"  d="M 82.61 -32.5 L 82.11 -32.5 " stroke="#191919" stroke-width="0.35 px" style="stroke-width:0.35;stroke-miterlimit:4;stroke-dasharray:none;fill:none;fill-opacity:1;fill-rule: evenodd"/>
<path id="Shape2DView_nwe0160"  d="M 82.11 -32.5 L 82.11 -49.2 " stroke="#191919" stroke-width="0.35 px" style="stroke-width:0.35;stroke-miterlimit:4;stroke-dasharray:none;fill:none;fill-opacity:1;fill-rule: evenodd"/>
<path id="Shape2DView_nwe0161"  d="M 82.11 -49.2 L 82.61 -49.2 " stroke="#191919" stroke-width="0.35 px" style="stroke-width:0.35;stroke-miterlimit:4;stroke-dasharray:none;fill:none;fill-opacity:1;fill-rule: evenodd"/>
<path id="Shape2DView_nwe0162"  d="M 82.61 -49.2 L 82.61 -65.1 " stroke="#191919" stroke-width="0.35 px" style="stroke-width:0.35;stroke-miterlimit:4;stroke-dasharray:none;fill:none;fill-opacity:1;fill-rule: evenodd"/>
<path id="Shape2DView_nwe0163"  d="M 82.61 -65.1 L 82.11 -65.1 " stroke="#191919" stroke-width="0.35 px" style="stroke-width:0.35;stroke-miterlimit:4;stroke-dasharray:none;fill:none;fill-opacity:1;fill-rule: evenodd"/>
<path id="Shape2DView_nwe0164"  d="M 82.11 -65.1 L 82.11 -81.8 " stroke="#191919" stroke-width="0.35 px" style="stroke-width:0.35;stroke-miterlimit:4;stroke-dasharray:none;fill:none;fill-opacity:1;fill-rule: evenodd"/>
<path id="Shape2DView_nwe0165"  d="M 82.11 -81.8 L 82.61 -81.8 " stroke="#191919" stroke-width="0.35 px" style="stroke-width:0.35;stroke-miterlimit:4;stroke-dasharray:none;fill:none;fill-opacity:1;fill-rule: evenodd"/>
<path id="Shape2DView_nwe0166"  d="M 82.61 -81.8 L 82.61 -97.7 " stroke="#191919" stroke-width="0.35 px" style="stroke-width:0.35;stroke-miterlimit:4;stroke-dasharray:none;fill:none;fill-opacity:1;fill-rule: evenodd"/>
<path id="Shape2DView_nwe0167"  d="M 82.61 -97.7 L 82.11 -97.7 " stroke="#191919" stroke-width="0.35 px" style="stroke-width:0.35;stroke-miterlimit:4;stroke-dasharray:none;fill:none;fill-opacity:1;fill-rule: evenodd"/>
<path id="Shape2DView_nwe0168"  d="M 82.11 -97.7 L 82.11 -114.2 " stroke="#191919" stroke-width="0.35 px" style="stroke-width:0.35;stroke-miterlimit:4;stroke-dasharray:none;fill:none;fill-opacity:1;fill-rule: evenodd"/>
<path id="Shape2DView_nwe0169"  d="M 82.11 -114.2 L 82.11 -114.3999983368 " stroke="#191919" stroke-width="0.35 px" style="stroke-width:0.35;stroke-miterlimit:4;stroke-dasharray:none;fill:none;fill-opacity:1;fill-rule: evenodd"/>
<path id="Shape2DView_nwe0170"  d="M 82.31 -114.4 L 82.11 -114.4 " stroke="#191919" stroke-width="0.35 px" style="stroke-width:0.35;stroke-miterlimit:4;stroke-dasharray:none;fill:none;fill-opacity:1;fill-rule: evenodd"/>
<path id="Shape2DView_nwe0171"  d="M 82.31 -114.4 L 82.61 -114.4 " stroke="#191919" stroke-width="0.35 px" style="stroke-width:0.35;stroke-miterlimit:4;stroke-dasharray:none;fill:none;fill-opacity:1;fill-rule: evenodd"/>
<path id="Shape2DView_nwe0172"  d="M 82.61 -114.4 L 82.61 -130.15 " stroke="#191919" stroke-width="0.35 px" style="stroke-width:0.35;stroke-miterlimit:4;stroke-dasharray:none;fill:none;fill-opacity:1;fill-rule: evenodd"/>
<path id="Shape2DView_nwe0173"  d="M 82.61 -130.15 L 70.16 -130.15 " stroke="#191919" stroke-width="0.35 px" style="stroke-width:0.35;stroke-miterlimit:4;stroke-dasharray:none;fill:none;fill-opacity:1;fill-rule: evenodd"/>
<path id="Shape2DView_nwe0174"  d="M 70.16 -130.15 L 70.16 -129.65 " stroke="#191919" stroke-width="0.35 px" style="stroke-width:0.35;stroke-miterlimit:4;stroke-dasharray:none;fill:none;fill-opacity:1;fill-rule: evenodd"/>
<path id="Shape2DView_nwe0175"  d="M 70.16 -129.65 L 53.46 -129.65 " stroke="#191919" stroke-width="0.35 px" style="stroke-width:0.35;stroke-miterlimit:4;stroke-dasharray:none;fill:none;fill-opacity:1;fill-rule: evenodd"/>
<path id="Shape2DView_nwe0176"  d="M 53.46 -129.65 L 53.46 -130.15 " stroke="#191919" stroke-width="0.35 px" style="stroke-width:0.35;stroke-miterlimit:4;stroke-dasharray:none;fill:none;fill-opacity:1;fill-rule: evenodd"/>
<path id="Shape2DView_nwe0177"  d="M 53.46 -130.15 L 37.56 -130.15 " stroke="#191919" stroke-width="0.35 px" style="stroke-width:0.35;stroke-miterlimit:4;stroke-dasharray:none;fill:none;fill-opacity:1;fill-rule: evenodd"/>
<path id="Shape2DView_nwe0178"  d="M 37.56 -130.15 L 37.56 -129.65 " stroke="#191919" stroke-width="0.35 px" style="stroke-width:0.35;stroke-miterlimit:4;stroke-dasharray:none;fill:none;fill-opacity:1;fill-rule: evenodd"/>
<path id="Shape2DView_nwe0179"  d="M 37.56 -129.65 L 20.86 -129.65 " stroke="#191919" stroke-width="0.35 px" style="stroke-width:0.35;stroke-miterlimit:4;stroke-dasharray:none;fill:none;fill-opacity:1;fill-rule: evenodd"/>
<path id="Shape2DView_nwe0180"  d="M 20.86 -129.65 L 20.86 -130.15 " stroke="#191919" stroke-width="0.35 px" style="stroke-width:0.35;stroke-miterlimit:4;stroke-dasharray:none;fill:none;fill-opacity:1;fill-rule: evenodd"/>
<path id="Shape2DView_nwe0181"  d="M 20.86 -130.15 L 4.960000000000001 -130.15 " stroke="#191919" stroke-width="0.35 px" style="stroke-width:0.35;stroke-miterlimit:4;stroke-dasharray:none;fill:none;fill-opacity:1;fill-rule: evenodd"/>
<path id="Shape2DView_nwe0182"  d="M 4.96 -130.15 L 4.96 -129.85 " stroke="#191919" stroke-width="0.35 px" style="stroke-width:0.35;stroke-miterlimit:4;stroke-dasharray:none;fill:none;fill-opacity:1;fill-rule: evenodd"/>
<path id="Shape2DView_nwe0183"  d="M 4.96 -129.85 L 4.96 -129.6500025294 " stroke="#191919" stroke-width="0.35 px" style="stroke-width:0.35;stroke-miterlimit:4;stroke-dasharray:none;fill:none;fill-opacity:1;fill-rule: evenodd"/>
<path id="Shape2DView_nwe0184"  d="M 4.76 -129.65 L 4.96 -129.65 " stroke="#191919" stroke-width="0.35 px" style="stroke-width:0.35;stroke-miterlimit:4;stroke-dasharray:none;fill:none;fill-opacity:1;fill-rule: evenodd"/>
<path id="Shape2DView_nwe0185"  d="M 4.76 -129.65 L -11.74 -129.65 " stroke="#191919" stroke-width="0.35 px" style="stroke-width:0.35;stroke-miterlimit:4;stroke-dasharray:none;fill:none;fill-opacity:1;fill-rule: evenodd"/>
<path id="Shape2DView_nwe0186"  d="M -11.74 -129.65 L -11.74 -130.15 " stroke="#191919" stroke-width="0.35 px" style="stroke-width:0.35;stroke-miterlimit:4;stroke-dasharray:none;fill:none;fill-opacity:1;fill-rule: evenodd"/>
<path id="Shape2DView_nwe0187"  d="M -11.74 -130.15 L -24.19 -130.15 " stroke="#191919" stroke-width="0.35 px" style="stroke-width:0.35;stroke-miterlimit:4;stroke-dasharray:none;fill:none;fill-opacity:1;fill-rule: evenodd"/>
<path id="Shape2DView_nwe0188"  d="M -24.19 -130.15 L -24.19 -115.35 " stroke="#191919" stroke-width="0.35 px" style="stroke-width:0.35;stroke-miterlimit:4;stroke-dasharray:none;fill:none;fill-opacity:1;fill-rule: evenodd"/>
<path id="Shape2DView_nwe0189"  d="M -24.19 -115.35 L -23.69 -115.35 " stroke="#191919" stroke-width="0.35 px" style="stroke-width:0.35;stroke-miterlimit:4;stroke-dasharray:none;fill:none;fill-opacity:1;fill-rule: evenodd"/>
<path id="Shape2DView_nwe0190"  d="M -23.69 -115.35 L -23.69 -98.25 " stroke="#191919" stroke-width="0.35 px" style="stroke-width:0.35;stroke-miterlimit:4;stroke-dasharray:none;fill:none;fill-opacity:1;fill-rule: evenodd"/>
<path id="Shape2DView_nwe0191"  d="M -23.69 -98.25 L -24.19 -98.25 " stroke="#191919" stroke-width="0.35 px" style="stroke-width:0.35;stroke-miterlimit:4;stroke-dasharray:none;fill:none;fill-opacity:1;fill-rule: evenodd"/>
<path id="Shape2DView_nwe0192"  d="M -24.19 -98.25 L -24.19 -81.95 " stroke="#191919" stroke-width="0.35 px" style="stroke-width:0.35;stroke-miterlimit:4;stroke-dasharray:none;fill:none;fill-opacity:1;fill-rule: evenodd"/>
<path id="Shape2DView_nwe0193"  d="M -24.19 -81.95 L -23.69 -81.95 " stroke="#191919" stroke-width="0.35 px" style="stroke-width:0.35;stroke-miterlimit:4;stroke-dasharray:none;fill:none;fill-opacity:1;fill-rule: evenodd"/>
<path id="Shape2DView_nwe0194"  d="M -23.69 -81.95 L -23.69 -65.25 " stroke="#191919" stroke-width="0.35 px" style="stroke-width:0.35;stroke-miterlimit:4;stroke-dasharray:none;fill:none;fill-opacity:1;fill-rule: evenodd"/>
<path id="Shape2DView_nwe0195"  d="M -23.69 -65.25 L -24.19 -65.25 " stroke="#191919" stroke-width="0.35 px" style="stroke-width:0.35;stroke-miterlimit:4;stroke-dasharray:none;fill:none;fill-opacity:1;fill-rule: evenodd"/>
<path id="Shape2DView_nwe0196"  d="M -24.19 -65.25 L -24.19 -49.35 " stroke="#191919" stroke-width="0.35 px" style="stroke-width:0.35;stroke-miterlimit:4;stroke-dasharray:none;fill:none;fill-opacity:1;fill-rule: evenodd"/>
<path id="Shape2DView_nwe0197"  d="M -24.19 -49.35 L -23.69 -49.35 " stroke="#191919" stroke-width="0.35 px" style="stroke-width:0.35;stroke-miterlimit:4;stroke-dasharray:none;fill:none;fill-opacity:1;fill-rule: evenodd"/>
<path id="Shape2DView_nwe0198"  d="M -23.69 -49.35 L -23.69 -32.65 " stroke="#191919" stroke-width="0.35 px" style="stroke-width:0.35;stroke-miterlimit:4;stroke-dasharray:none;fill:none;fill-opacity:1;fill-rule: evenodd"/>
<path id="Shape2DView_nwe0199"  d="M -23.69 -32.65 L -24.19 -32.65 " stroke="#191919" stroke-width="0.35 px" style="stroke-width:0.35;stroke-miterlimit:4;stroke-dasharray:none;fill:none;fill-opacity:1;fill-rule: evenodd"/>
<path id="Shape2DView_nwe0200"  d="M -24.19 -32.65 L -24.19 -16.75 " stroke="#191919" stroke-width="0.35 px" style="stroke-width:0.35;stroke-miterlimit:4;stroke-dasharray:none;fill:none;fill-opacity:1;fill-rule: evenodd"/>
<path id="Shape2DView_nwe0201"  d="M -24.19 -16.75 L -23.69 -16.75 " stroke="#191919" stroke-width="0.35 px" style="stroke-width:0.35;stroke-miterlimit:4;stroke-dasharray:none;fill:none;fill-opacity:1;fill-rule: evenodd"/>
<path id="Shape2DView_nwe0202"  d="M -23.69 -16.75 L -23.69 -0.05000000000000071 " stroke="#191919" stroke-width="0.35 px" style="stroke-width:0.35;stroke-miterlimit:4;stroke-dasharray:none;fill:none;fill-opacity:1;fill-rule: evenodd"/>
<path id="Shape2DView_nwe0203"  d="M -23.69 -0.05 L -24.19 -0.05 " stroke="#191919" stroke-width="0.35 px" style="stroke-width:0.35;stroke-miterlimit:4;stroke-dasharray:none;fill:none;fill-opacity:1;fill-rule: evenodd"/>
<path id="Shape2DView_nwe0204"  d="M -24.19 -0.05 L -24.212392895220663 -0.05 L -24.234504186791263 -0.05 L -24.256055812391036 -0.05 L -24.27677674782351 -0.05 L -24.296406415303068 -0.05 L -24.31469796037175 -0.05 L -24.33142135623731 -0.05 L -24.346366296493606 -0.05 L -24.359344839845658 -0.05 L -24.370193773580485 -0.05 L -24.378776666061675 -0.05 L -24.384985582436364 -0.05 L -24.38874244197865 -0.05 L -24.39 -0.05 " stroke="#191919" stroke-width="0.35 px" style="stroke-width:0.35;stroke-miterlimit:4;stroke-dasharray:none;fill:none;fill-opacity:1;fill-rule: evenodd"/>
<path id="Shape2DView_nwe0205"  d="M -24.19 -0.05 L -24.19 -0.07239289522066157 L -24.19 -0.09450418679126288 L -24.19 -0.11605581239103342 L -24.19 -0.13677674782351162 L -24.19 -0.15640641530306731 L -24.19 -0.1746979603717467 L -24.19 -0.1914213562373095 L -24.19 -0.206366296493606 L -24.19 -0.21934483984565684 L -24.19 -0.23019377358048382 L -24.19 -0.23877666606167353 L -24.19 -0.24498558243636476 L -24.19 -0.24874244197864853 L -24.19 -0.25 " stroke="#191919" stroke-width="0.35 px" style="stroke-width:0.35;stroke-miterlimit:4;stroke-dasharray:none;fill:none;fill-opacity:1;fill-rule: evenodd"/>
<path id="Shape2DView_nwe0206"  d="M 37.56 15.85 L 37.53760710477934 15.85 L 37.51549581320874 15.85 L 37.49394418760897 15.85 L 37.47322325217649 15.85 L 37.45359358469693 15.85 L 37.435302039628255 15.85 L 37.41857864376269 15.85 L 37.403633703506394 15.85 L 37.390655160154346 15.85 L 37.37980622641952 15.85 L 37.37122333393833 15.85 L 37.365014417563636 15.85 L 37.36125755802135 15.85 L 37.36 15.85 " stroke="#191919" stroke-width="0.35 px" style="stroke-width:0.35;stroke-miterlimit:4;stroke-dasharray:none;fill:none;fill-opacity:1;fill-rule: evenodd"/>
<path id="Shape2DView_nwe0207"  d="M 37.56 15.85 L 37.56 15.872392895220662 L 37.56 15.894504186791263 L 37.56 15.916055812391033 L 37.56 15.936776747823512 L 37.56 15.956406415303068 L 37.56 15.974697960371746 L 37.56 15.991421356237309 L 37.56 16.006366296493606 L 37.56 16.019344839845658 L 37.56 16.030193773580482 L 37.56 16.038776666061672 L 37.56 16.044985582436365 L 37.56 16.048742441978646 L 37.56 16.05 " stroke="#191919" stroke-width="0.35 px" style="stroke-width:0.35;stroke-miterlimit:4;stroke-dasharray:none;fill:none;fill-opacity:1;fill-rule: evenodd"/>
<path id="Shape2DView_nwe0208"  d="M -24.19 -81.75 L -24.19 -81.75125755802135 L -24.19 -81.75501441756364 L -24.19 -81.76122333393833 L -24.19 -81.76980622641952 L -24.19 -81.78065516015434 L -24.19 -81.7936337035064 L -24.19 -81.80857864376269 L -24.19 -81.82530203962826 L -24.19 -81.84359358469693 L -24.19 -81.8632232521765 L -24.19 -81.88394418760898 L -24.19 -81.90549581320874 L -24.19 -81.92760710477934 L -24.19 -81.95 " stroke="#191919" stroke-width="0.35 px" style="stroke-width:0.35;stroke-miterlimit:4;stroke-dasharray:none;fill:none;fill-opacity:1;fill-rule: evenodd"/>
<path id="Shape2DView_nwe0209"  d="M -24.39 -81.95 L -24.38874244197865 -81.95 L -24.384985582436364 -81.95 L -24.378776666061675 -81.95 L -24.370193773580485 -81.95 L -24.359344839845658 -81.95 L -24.346366296493606 -81.95 L -24.33142135623731 -81.95 L -24.31469796037175 -81.95 L -24.296406415303068 -81.95 L -24.27677674782351 -81.95 L -24.256055812391036 -81.95 L -24.234504186791263 -81.95 L -24.212392895220663 -81.95 L -24.19 -81.95 " stroke="#191919" stroke-width="0.35 px" style="stroke-width:0.35;stroke-miterlimit:4;stroke-dasharray:none;fill:none;fill-opacity:1;fill-rule: evenodd"/>
<path id="Shape2DView_nwe0210"  d="M 82.61 15.85 L 82.61 15.872392895220662 L 82.61 15.894504186791263 L 82.61 15.916055812391033 L 82.61 15.936776747823512 L 82.61 15.956406415303068 L 82.61 15.974697960371746 L 82.61 15.991421356237309 L 82.61 16.006366296493606 L 82.61 16.019344839845658 L 82.61 16.030193773580482 L 82.61 16.038776666061672 L 82.61 16.044985582436365 L 82.61 16.048742441978646 L 82.61 16.05 " stroke="#191919" stroke-width="0.35 px" style="stroke-width:0.35;stroke-miterlimit:4;stroke-dasharray:none;fill:none;fill-opacity:1;fill-rule: evenodd"/>
<path id="Shape2DView_nwe0211"  d="M 82.61 15.85 L 82.63239289522066 15.85 L 82.65450418679126 15.85 L 82.67605581239103 15.85 L 82.6967767478235 15.85 L 82.71640641530307 15.85 L 82.73469796037175 15.85 L 82.75142135623732 15.85 L 82.7663662964936 15.85 L 82.77934483984566 15.85 L 82.79019377358048 15.85 L 82.79877666606167 15.85 L 82.80498558243636 15.85 L 82.80874244197865 15.85 L 82.81 15.85 " stroke="#191919" stroke-width="0.35 px" style="stroke-width:0.35;stroke-miterlimit:4;stroke-dasharray:none;fill:none;fill-opacity:1;fill-rule: evenodd"/>
<path id="Shape2DView_nwe0212"  d="M -12.0 2.1 L -7.0 2.1 " stroke="#191919" stroke-width="0.35 px" style="stroke-width:0.35;stroke-miterlimit:4;stroke-dasharray:none;fill:none;fill-opacity:1;fill-rule: evenodd"/>
<path id="Shape2DView_nwe0213"  d="M -7.0 1.1 L -7.0 2.1 " stroke="#191919" stroke-width="0.35 px" style="stroke-width:0.35;stroke-miterlimit:4;stroke-dasharray:none;fill:none;fill-opacity:1;fill-rule: evenodd"/>
<path id="Shape2DView_nwe0214"  d="M -12.0 1.1 L -7.0 1.1 " stroke="#191919" stroke-width="0.35 px" style="stroke-width:0.35;stroke-miterlimit:4;stroke-dasharray:none;fill:none;fill-opacity:1;fill-rule: evenodd"/>
<path id="Shape2DView_nwe0215"  d="M -12.0 1.1 L -12.0 2.1 " stroke="#191919" stroke-width="0.35 px" style="stroke-width:0.35;stroke-miterlimit:4;stroke-dasharray:none;fill:none;fill-opacity:1;fill-rule: evenodd"/>
<path id="Shape2DView_nwe0216"  d="M 4.76 -129.85 L 4.761257558021351 -129.85 L 4.765014417563635 -129.85 L 4.771223333938327 -129.85 L 4.779806226419516 -129.85 L 4.790655160154343 -129.85 L 4.803633703506394 -129.85 L 4.818578643762691 -129.85 L 4.835302039628253 -129.85 L 4.853593584696933 -129.85 L 4.873223252176488 -129.85 L 4.893944187608967 -129.85 L 4.915495813208737 -129.85 L 4.937607104779338 -129.85 L 4.96 -129.85 " stroke="#191919" stroke-width="0.35 px" style="stroke-width:0.35;stroke-miterlimit:4;stroke-dasharray:none;fill:none;fill-opacity:1;fill-rule: evenodd"/>
<path id="Shape2DView_nwe0217"  d="M 82.11 -114.2 L 82.13239289522066 -114.2 L 82.15450418679126 -114.2 L 82.17605581239103 -114.2 L 82.1967767478235 -114.2 L 82.21640641530307 -114.2 L 82.23469796037175 -114.2 L 82.25142135623732 -114.2 L 82.2663662964936 -114.2 L 82.27934483984566 -114.2 L 82.29019377358048 -114.2 L 82.29877666606167 -114.2 L 82.30498558243636 -114.2 L 82.30874244197865 -114.2 L 82.31 -114.2 " stroke="#191919" stroke-width="0.35 px" style="stroke-width:0.35;stroke-miterlimit:4;stroke-dasharray:none;fill:none;fill-opacity:1;fill-rule: evenodd"/>
<title>b'Shape2DView'</title>
</g>
<g id="Rectangle" transform="translate(25.462000,17.122000) scale(1,-1)">
<rect fill="#ff0000" id="origin" width="1" height="1" x="0" y="0" />
<title>b'Rectangle'</title>
</g>
</svg>