<?xml version="1.0"?>
<!DOCTYPE svg PUBLIC "-//W3C//DTD SVG 1.1//EN" "http://www.w3.org/Graphics/SVG/1.1/DTD/svg11.dtd">
<svg width="5.202mm" height="11.402000000000001mm" viewBox="0 0 5.202 11.402000000000001" xmlns="http://www.w3.org/2000/svg" version="1.1">
<g id="Shape2DView" transform="translate(2.601000,5.701000) scale(1,-1)">
<path id="Shape2DView_nwe0000"  d="M -2.55 5.65 L 2.55 5.65 " stroke="#191919" stroke-width="0.35 px" style="stroke-width:0.35;stroke-miterlimit:4;stroke-dasharray:none;fill:none;fill-opacity:1;fill-rule: evenodd"/>
<path id="Shape2DView_nwe0001"  d="M -2.55 -5.65 L -2.55 5.65 " stroke="#191919" stroke-width="0.35 px" style="stroke-width:0.35;stroke-miterlimit:4;stroke-dasharray:none;fill:none;fill-opacity:1;fill-rule: evenodd"/>
<path id="Shape2DView_nwe0002"  d="M 2.55 5.65 L 2.55 -5.65 " stroke="#191919" stroke-width="0.35 px" style="stroke-width:0.35;stroke-miterlimit:4;stroke-dasharray:none;fill:none;fill-opacity:1;fill-rule: evenodd"/>
<path id="Shape2DView_nwe0003"  d="M 2.55 -5.65 L -2.55 -5.65 " stroke="#191919" stroke-width="0.35 px" style="stroke-width:0.35;stroke-miterlimit:4;stroke-dasharray:none;fill:none;fill-opacity:1;fill-rule: evenodd"/>
<path id="Shape2DView_nwe0004"  d="M -2.375 5.19 L -2.375 4.64 " stroke="#191919" stroke-width="0.35 px" style="stroke-width:0.35;stroke-miterlimit:4;stroke-dasharray:none;fill:none;fill-opacity:1;fill-rule: evenodd"/>
<path id="Shape2DView_nwe0005"  d="M -1.3 5.19 L -2.375 5.19 " stroke="#191919" stroke-width="0.35 px" style="stroke-width:0.35;stroke-miterlimit:4;stroke-dasharray:none;fill:none;fill-opacity:1;fill-rule: evenodd"/>
<path id="Shape2DView_nwe0006"  d="M -1.3 4.64 L -1.3 5.19 " stroke="#191919" stroke-width="0.35 px" style="stroke-width:0.35;stroke-miterlimit:4;stroke-dasharray:none;fill:none;fill-opacity:1;fill-rule: evenodd"/>
<path id="Shape2DView_nwe0007"  d="M 1.07 -3.88 L 1.07 -3.8800943168516016 L 1.07 -3.8803760813172725 L 1.07 -3.8808417500453745 L 1.07 -3.881485466981464 L 1.07 -3.8822991370115756 L 1.07 -3.8832725277629794 L 1.07 -3.8843933982822016 L 1.07 -3.885647652972119 L 1.07 -3.88701951885227 L 1.07 -3.8884917439132365 L 1.07 -3.8900458140706724 L 1.07 -3.8916621859906555 L 1.07 -3.8933205328584504 L 1.07 -3.895 " stroke="#191919" stroke-width="0.35 px" style="stroke-width:0.35;stroke-miterlimit:4;stroke-dasharray:none;fill:none;fill-opacity:1;fill-rule: evenodd"/>
<path id="Shape2DView_nwe0008"  d="M 1.07 -4.165 L 1.07 -3.895 " stroke="#191919" stroke-width="0.35 px" style="stroke-width:0.35;stroke-miterlimit:4;stroke-dasharray:none;fill:none;fill-opacity:1;fill-rule: evenodd"/>
<path id="Shape2DView_nwe0009"  d="M 1.07 -4.18 L 1.07 -4.179905683148399 L 1.07 -4.1796239186827275 L 1.07 -4.179158249954625 L 1.07 -4.178514533018537 L 1.07 -4.1777008629884245 L 1.07 -4.176727472237021 L 1.07 -4.175606601717798 L 1.07 -4.174352347027881 L 1.07 -4.1729804811477305 L 1.07 -4.171508256086764 L 1.07 -4.169954185929328 L 1.07 -4.1683378140093446 L 1.07 -4.16667946714155 L 1.07 -4.165 " stroke="#191919" stroke-width="0.35 px" style="stroke-width:0.35;stroke-miterlimit:4;stroke-dasharray:none;fill:none;fill-opacity:1;fill-rule: evenodd"/>
<path id="Shape2DView_nwe0010"  d="M 1.22 -3.88 L 1.22 -3.8800943168516016 L 1.22 -3.8803760813172725 L 1.22 -3.8808417500453745 L 1.22 -3.881485466981464 L 1.22 -3.8822991370115756 L 1.22 -3.8832725277629794 L 1.22 -3.8843933982822016 L 1.22 -3.885647652972119 L 1.22 -3.88701951885227 L 1.22 -3.8884917439132365 L 1.22 -3.8900458140706724 L 1.22 -3.8916621859906555 L 1.22 -3.8933205328584504 L 1.22 -3.895 " stroke="#191919" stroke-width="0.35 px" style="stroke-width:0.35;stroke-miterlimit:4;stroke-dasharray:none;fill:none;fill-opacity:1;fill-rule: evenodd"/>
<path id="Shape2DView_nwe0011"  d="M 1.22 -4.165 L 1.22 -3.895 " stroke="#191919" stroke-width="0.35 px" style="stroke-width:0.35;stroke-miterlimit:4;stroke-dasharray:none;fill:none;fill-opacity:1;fill-rule: evenodd"/>
<path id="Shape2DView_nwe0012"  d="M 1.22 -4.18 L 1.22 -4.179905683148399 L 1.22 -4.1796239186827275 L 1.22 -4.179158249954625 L 1.22 -4.178514533018537 L 1.22 -4.1777008629884245 L 1.22 -4.176727472237021 L 1.22 -4.175606601717798 L 1.22 -4.174352347027881 L 1.22 -4.1729804811477305 L 1.22 -4.171508256086764 L 1.22 -4.169954185929328 L 1.22 -4.1683378140093446 L 1.22 -4.16667946714155 L 1.22 -4.165 " stroke="#191919" stroke-width="0.35 px" style="stroke-width:0.35;stroke-miterlimit:4;stroke-dasharray:none;fill:none;fill-opacity:1;fill-rule: evenodd"/>
<path id="Shape2DView_nwe0013"  d="M 1.07 -4.18 L 1.22 -4.18 " stroke="#191919" stroke-width="0.35 px" style="stroke-width:0.35;stroke-miterlimit:4;stroke-dasharray:none;fill:none;fill-opacity:1;fill-rule: evenodd"/>
<path id="Shape2DView_nwe0014"  d="M 0.62 -3.38 L 0.62 -3.3800943168516016 L 0.62 -3.3803760813172725 L 0.62 -3.3808417500453745 L 0.62 -3.381485466981464 L 0.62 -3.3822991370115756 L 0.62 -3.3832725277629794 L 0.62 -3.3843933982822016 L 0.62 -3.385647652972119 L 0.62 -3.38701951885227 L 0.62 -3.3884917439132365 L 0.62 -3.3900458140706724 L 0.62 -3.3916621859906555 L 0.62 -3.3933205328584504 L 0.62 -3.395 " stroke="#191919" stroke-width="0.35 px" style="stroke-width:0.35;stroke-miterlimit:4;stroke-dasharray:none;fill:none;fill-opacity:1;fill-rule: evenodd"/>
<path id="Shape2DView_nwe0015"  d="M 0.62 -3.665 L 0.62 -3.395 " stroke="#191919" stroke-width="0.35 px" style="stroke-width:0.35;stroke-miterlimit:4;stroke-dasharray:none;fill:none;fill-opacity:1;fill-rule: evenodd"/>
<path id="Shape2DView_nwe0016"  d="M 0.62 -3.68 L 0.62 -3.6799056831483985 L 0.62 -3.6796239186827275 L 0.62 -3.6791582499546256 L 0.62 -3.6785145330185363 L 0.62 -3.6777008629884245 L 0.62 -3.6767274722370207 L 0.62 -3.6756066017177984 L 0.62 -3.674352347027881 L 0.62 -3.67298048114773 L 0.62 -3.6715082560867636 L 0.62 -3.6699541859293277 L 0.62 -3.6683378140093446 L 0.62 -3.6666794671415497 L 0.62 -3.665 " stroke="#191919" stroke-width="0.35 px" style="stroke-width:0.35;stroke-miterlimit:4;stroke-dasharray:none;fill:none;fill-opacity:1;fill-rule: evenodd"/>
<path id="Shape2DView_nwe0017"  d="M -1.984625199605 -3.624479124739 L 0.6200000000000001 -3.624479124739 " stroke="#191919" stroke-width="0.35 px" style="stroke-width:0.35;stroke-miterlimit:4;stroke-dasharray:none;fill:none;fill-opacity:1;fill-rule: evenodd"/>
<path id="Shape2DView_nwe0018"  d="M -1.984625199605 -5.26696319201 L -1.984625199605 -3.624479124739 " stroke="#191919" stroke-width="0.35 px" style="stroke-width:0.35;stroke-miterlimit:4;stroke-dasharray:none;fill:none;fill-opacity:1;fill-rule: evenodd"/>
<path id="Shape2DView_nwe0019"  d="M 2.040721272459 -5.26696319201 L -1.9846251996049995 -5.26696319201 " stroke="#191919" stroke-width="0.35 px" style="stroke-width:0.35;stroke-miterlimit:4;stroke-dasharray:none;fill:none;fill-opacity:1;fill-rule: evenodd"/>
<path id="Shape2DView_nwe0020"  d="M 2.040721272459 -4.753830411063 L 2.040721272459 -5.26696319201 " stroke="#191919" stroke-width="0.35 px" style="stroke-width:0.35;stroke-miterlimit:4;stroke-dasharray:none;fill:none;fill-opacity:1;fill-rule: evenodd"/>
<path id="Shape2DView_nwe0021"  d="M -0.374077 -4.753830411063 L 2.040721272459 -4.753830411063 " stroke="#191919" stroke-width="0.35 px" style="stroke-width:0.35;stroke-miterlimit:4;stroke-dasharray:none;fill:none;fill-opacity:1;fill-rule: evenodd"/>
<path id="Shape2DView_nwe0022"  d="M -0.374077 -5.04164323996 L -0.374077 -4.753830411063 " stroke="#191919" stroke-width="0.35 px" style="stroke-width:0.35;stroke-miterlimit:4;stroke-dasharray:none;fill:none;fill-opacity:1;fill-rule: evenodd"/>
<path id="Shape2DView_nwe0023"  d="M -1.759305247555 -5.04164323996 L -0.374077 -5.04164323996 " stroke="#191919" stroke-width="0.35 px" style="stroke-width:0.35;stroke-miterlimit:4;stroke-dasharray:none;fill:none;fill-opacity:1;fill-rule: evenodd"/>
<path id="Shape2DView_nwe0024"  d="M -1.759305247555 -3.849799076788 L -1.759305247555 -5.04164323996 " stroke="#191919" stroke-width="0.35 px" style="stroke-width:0.35;stroke-miterlimit:4;stroke-dasharray:none;fill:none;fill-opacity:1;fill-rule: evenodd"/>
<path id="Shape2DView_nwe0025"  d="M -0.374077 -3.849799076788 L -1.759305247555 -3.849799076788 " stroke="#191919" stroke-width="0.35 px" style="stroke-width:0.35;stroke-miterlimit:4;stroke-dasharray:none;fill:none;fill-opacity:1;fill-rule: evenodd"/>
<path id="Shape2DView_nwe0026"  d="M -0.374077 -4.553830411063 L -0.374077 -3.849799076788 " stroke="#191919" stroke-width="0.35 px" style="stroke-width:0.35;stroke-miterlimit:4;stroke-dasharray:none;fill:none;fill-opacity:1;fill-rule: evenodd"/>
<path id="Shape2DView_nwe0027"  d="M 2.240721272459 -4.553830411063 L -0.37407699999999977 -4.553830411063 " stroke="#191919" stroke-width="0.35 px" style="stroke-width:0.35;stroke-miterlimit:4;stroke-dasharray:none;fill:none;fill-opacity:1;fill-rule: evenodd"/>
<path id="Shape2DView_nwe0028"  d="M 2.240721272459 -5.46696319201 L 2.240721272459 -4.553830411063 " stroke="#191919" stroke-width="0.35 px" style="stroke-width:0.35;stroke-miterlimit:4;stroke-dasharray:none;fill:none;fill-opacity:1;fill-rule: evenodd"/>
<path id="Shape2DView_nwe0029"  d="M -2.184625199605 -5.46696319201 L 2.2407212724589995 -5.46696319201 " stroke="#191919" stroke-width="0.35 px" style="stroke-width:0.35;stroke-miterlimit:4;stroke-dasharray:none;fill:none;fill-opacity:1;fill-rule: evenodd"/>
<path id="Shape2DView_nwe0030"  d="M -2.184625199605 -3.424479124739 L -2.184625199605 -5.46696319201 " stroke="#191919" stroke-width="0.35 px" style="stroke-width:0.35;stroke-miterlimit:4;stroke-dasharray:none;fill:none;fill-opacity:1;fill-rule: evenodd"/>
<path id="Shape2DView_nwe0031"  d="M 0.62 -3.424479124739 L -2.1846251996050006 -3.424479124739 " stroke="#191919" stroke-width="0.35 px" style="stroke-width:0.35;stroke-miterlimit:4;stroke-dasharray:none;fill:none;fill-opacity:1;fill-rule: evenodd"/>
<path id="Shape2DView_nwe0032"  d="M 0.77 -3.38 L 0.77 -3.3800943168516016 L 0.77 -3.3803760813172725 L 0.77 -3.3808417500453745 L 0.77 -3.381485466981464 L 0.77 -3.3822991370115756 L 0.77 -3.3832725277629794 L 0.77 -3.3843933982822016 L 0.77 -3.385647652972119 L 0.77 -3.38701951885227 L 0.77 -3.3884917439132365 L 0.77 -3.3900458140706724 L 0.77 -3.3916621859906555 L 0.77 -3.3933205328584504 L 0.77 -3.395 " stroke="#191919" stroke-width="0.35 px" style="stroke-width:0.35;stroke-miterlimit:4;stroke-dasharray:none;fill:none;fill-opacity:1;fill-rule: evenodd"/>
<path id="Shape2DView_nwe0033"  d="M 0.77 -3.665 L 0.77 -3.395 " stroke="#191919" stroke-width="0.35 px" style="stroke-width:0.35;stroke-miterlimit:4;stroke-dasharray:none;fill:none;fill-opacity:1;fill-rule: evenodd"/>
<path id="Shape2DView_nwe0034"  d="M 0.77 -3.68 L 0.77 -3.6799056831483985 L 0.77 -3.6796239186827275 L 0.77 -3.6791582499546256 L 0.77 -3.6785145330185363 L 0.77 -3.6777008629884245 L 0.77 -3.6767274722370207 L 0.77 -3.6756066017177984 L 0.77 -3.674352347027881 L 0.77 -3.67298048114773 L 0.77 -3.6715082560867636 L 0.77 -3.6699541859293277 L 0.77 -3.6683378140093446 L 0.77 -3.6666794671415497 L 0.77 -3.665 " stroke="#191919" stroke-width="0.35 px" style="stroke-width:0.35;stroke-miterlimit:4;stroke-dasharray:none;fill:none;fill-opacity:1;fill-rule: evenodd"/>
<path id="Shape2DView_nwe0035"  d="M 1.07 -3.38 L 1.07 -3.3800943168516016 L 1.07 -3.3803760813172725 L 1.07 -3.3808417500453745 L 1.07 -3.381485466981464 L 1.07 -3.3822991370115756 L 1.07 -3.3832725277629794 L 1.07 -3.3843933982822016 L 1.07 -3.385647652972119 L 1.07 -3.38701951885227 L 1.07 -3.3884917439132365 L 1.07 -3.3900458140706724 L 1.07 -3.3916621859906555 L 1.07 -3.3933205328584504 L 1.07 -3.395 " stroke="#191919" stroke-width="0.35 px" style="stroke-width:0.35;stroke-miterlimit:4;stroke-dasharray:none;fill:none;fill-opacity:1;fill-rule: evenodd"/>
<path id="Shape2DView_nwe0036"  d="M 1.07 -3.665 L 1.07 -3.395 " stroke="#191919" stroke-width="0.35 px" style="stroke-width:0.35;stroke-miterlimit:4;stroke-dasharray:none;fill:none;fill-opacity:1;fill-rule: evenodd"/>
<path id="Shape2DView_nwe0037"  d="M 1.07 -3.68 L 1.07 -3.6799056831483985 L 1.07 -3.6796239186827275 L 1.07 -3.6791582499546256 L 1.07 -3.6785145330185363 L 1.07 -3.6777008629884245 L 1.07 -3.6767274722370207 L 1.07 -3.6756066017177984 L 1.07 -3.674352347027881 L 1.07 -3.67298048114773 L 1.07 -3.6715082560867636 L 1.07 -3.6699541859293277 L 1.07 -3.6683378140093446 L 1.07 -3.6666794671415497 L 1.07 -3.665 " stroke="#191919" stroke-width="0.35 px" style="stroke-width:0.35;stroke-miterlimit:4;stroke-dasharray:none;fill:none;fill-opacity:1;fill-rule: evenodd"/>
<path id="Shape2DView_nwe0038"  d="M 1.22 -3.38 L 1.22 -3.3800943168516016 L 1.22 -3.3803760813172725 L 1.22 -3.3808417500453745 L 1.22 -3.381485466981464 L 1.22 -3.3822991370115756 L 1.22 -3.3832725277629794 L 1.22 -3.3843933982822016 L 1.22 -3.385647652972119 L 1.22 -3.38701951885227 L 1.22 -3.3884917439132365 L 1.22 -3.3900458140706724 L 1.22 -3.3916621859906555 L 1.22 -3.3933205328584504 L 1.22 -3.395 " stroke="#191919" stroke-width="0.35 px" style="stroke-width:0.35;stroke-miterlimit:4;stroke-dasharray:none;fill:none;fill-opacity:1;fill-rule: evenodd"/>
<path id="Shape2DView_nwe0039"  d="M 1.22 -3.665 L 1.22 -3.395 " stroke="#191919" stroke-width="0.35 px" style="stroke-width:0.35;stroke-miterlimit:4;stroke-dasharray:none;fill:none;fill-opacity:1;fill-rule: evenodd"/>
<path id="Shape2DView_nwe0040"  d="M 1.22 -3.68 L 1.22 -3.6799056831483985 L 1.22 -3.6796239186827275 L 1.22 -3.6791582499546256 L 1.22 -3.6785145330185363 L 1.22 -3.6777008629884245 L 1.22 -3.6767274722370207 L 1.22 -3.6756066017177984 L 1.22 -3.674352347027881 L 1.22 -3.67298048114773 L 1.22 -3.6715082560867636 L 1.22 -3.6699541859293277 L 1.22 -3.6683378140093446 L 1.22 -3.6666794671415497 L 1.22 -3.665 " stroke="#191919" stroke-width="0.35 px" style="stroke-width:0.35;stroke-miterlimit:4;stroke-dasharray:none;fill:none;fill-opacity:1;fill-rule: evenodd"/>
<path id="Shape2DView_nwe0041"  d="M 0.62 -3.88 L 0.62 -3.8800943168516016 L 0.62 -3.8803760813172725 L 0.62 -3.8808417500453745 L 0.62 -3.881485466981464 L 0.62 -3.8822991370115756 L 0.62 -3.8832725277629794 L 0.62 -3.8843933982822016 L 0.62 -3.885647652972119 L 0.62 -3.88701951885227 L 0.62 -3.8884917439132365 L 0.62 -3.8900458140706724 L 0.62 -3.8916621859906555 L 0.62 -3.8933205328584504 L 0.62 -3.895 " stroke="#191919" stroke-width="0.35 px" style="stroke-width:0.35;stroke-miterlimit:4;stroke-dasharray:none;fill:none;fill-opacity:1;fill-rule: evenodd"/>
<path id="Shape2DView_nwe0042"  d="M 0.62 -4.165 L 0.62 -3.895 " stroke="#191919" stroke-width="0.35 px" style="stroke-width:0.35;stroke-miterlimit:4;stroke-dasharray:none;fill:none;fill-opacity:1;fill-rule: evenodd"/>
<path id="Shape2DView_nwe0043"  d="M 0.62 -4.18 L 0.62 -4.179905683148399 L 0.62 -4.1796239186827275 L 0.62 -4.179158249954625 L 0.62 -4.178514533018537 L 0.62 -4.1777008629884245 L 0.62 -4.176727472237021 L 0.62 -4.175606601717798 L 0.62 -4.174352347027881 L 0.62 -4.1729804811477305 L 0.62 -4.171508256086764 L 0.62 -4.169954185929328 L 0.62 -4.1683378140093446 L 0.62 -4.16667946714155 L 0.62 -4.165 " stroke="#191919" stroke-width="0.35 px" style="stroke-width:0.35;stroke-miterlimit:4;stroke-dasharray:none;fill:none;fill-opacity:1;fill-rule: evenodd"/>
<path id="Shape2DView_nwe0044"  d="M 0.77 -3.88 L 0.77 -3.8800943168516016 L 0.77 -3.8803760813172725 L 0.77 -3.8808417500453745 L 0.77 -3.881485466981464 L 0.77 -3.8822991370115756 L 0.77 -3.8832725277629794 L 0.77 -3.8843933982822016 L 0.77 -3.885647652972119 L 0.77 -3.88701951885227 L 0.77 -3.8884917439132365 L 0.77 -3.8900458140706724 L 0.77 -3.8916621859906555 L 0.77 -3.8933205328584504 L 0.77 -3.895 " stroke="#191919" stroke-width="0.35 px" style="stroke-width:0.35;stroke-miterlimit:4;stroke-dasharray:none;fill:none;fill-opacity:1;fill-rule: evenodd"/>
<path id="Shape2DView_nwe0045"  d="M 0.77 -4.165 L 0.77 -3.895 " stroke="#191919" stroke-width="0.35 px" style="stroke-width:0.35;stroke-miterlimit:4;stroke-dasharray:none;fill:none;fill-opacity:1;fill-rule: evenodd"/>
<path id="Shape2DView_nwe0046"  d="M 0.77 -4.18 L 0.77 -4.179905683148399 L 0.77 -4.1796239186827275 L 0.77 -4.179158249954625 L 0.77 -4.178514533018537 L 0.77 -4.1777008629884245 L 0.77 -4.176727472237021 L 0.77 -4.175606601717798 L 0.77 -4.174352347027881 L 0.77 -4.1729804811477305 L 0.77 -4.171508256086764 L 0.77 -4.169954185929328 L 0.77 -4.1683378140093446 L 0.77 -4.16667946714155 L 0.77 -4.165 " stroke="#191919" stroke-width="0.35 px" style="stroke-width:0.35;stroke-miterlimit:4;stroke-dasharray:none;fill:none;fill-opacity:1;fill-rule: evenodd"/>
<path id="Shape2DView_nwe0047"  d="M 0.62 -4.18 L 0.77 -4.18 " stroke="#191919" stroke-width="0.35 px" style="stroke-width:0.35;stroke-miterlimit:4;stroke-dasharray:none;fill:none;fill-opacity:1;fill-rule: evenodd"/>
<path id="Shape2DView_nwe0048"  d="M 1.3 5.19 L 1.3 4.64 " stroke="#191919" stroke-width="0.35 px" style="stroke-width:0.35;stroke-miterlimit:4;stroke-dasharray:none;fill:none;fill-opacity:1;fill-rule: evenodd"/>
<path id="Shape2DView_nwe0049"  d="M 2.375 5.19 L 1.3 5.19 " stroke="#191919" stroke-width="0.35 px" style="stroke-width:0.35;stroke-miterlimit:4;stroke-dasharray:none;fill:none;fill-opacity:1;fill-rule: evenodd"/>
<path id="Shape2DView_nwe0050"  d="M 2.375 4.64 L 2.375 5.19 " stroke="#191919" stroke-width="0.35 px" style="stroke-width:0.35;stroke-miterlimit:4;stroke-dasharray:none;fill:none;fill-opacity:1;fill-rule: evenodd"/>
<path id="Shape2DView_nwe0051"  d="M -2.375 4.58 L -2.375 4.580377267406405 L -2.375 4.581504325269091 L -2.375 4.5833670001814975 L -2.375 4.585941867925855 L -2.375 4.589196548046303 L -2.375 4.593090111051918 L -2.375 4.597573593128807 L -2.375 4.602590611888476 L -2.375 4.60807807540908 L -2.375 4.6139669756529464 L -2.375 4.620183256282689 L -2.375 4.626648743962621 L -2.375 4.633282131433801 L -2.375 4.64 " stroke="#191919" stroke-width="0.35 px" style="stroke-width:0.35;stroke-miterlimit:4;stroke-dasharray:none;fill:none;fill-opacity:1;fill-rule: evenodd"/>
<path id="Shape2DView_nwe0052"  d="M -1.3 4.58 L -1.3 4.580377267406405 L -1.3 4.581504325269091 L -1.3 4.5833670001814975 L -1.3 4.585941867925855 L -1.3 4.589196548046303 L -1.3 4.593090111051918 L -1.3 4.597573593128807 L -1.3 4.602590611888476 L -1.3 4.60807807540908 L -1.3 4.6139669756529464 L -1.3 4.620183256282689 L -1.3 4.626648743962621 L -1.3 4.633282131433801 L -1.3 4.64 " stroke="#191919" stroke-width="0.35 px" style="stroke-width:0.35;stroke-miterlimit:4;stroke-dasharray:none;fill:none;fill-opacity:1;fill-rule: evenodd"/>
<path id="Shape2DView_nwe0054"  d="M 1.07 -3.88 L 1.22 -3.88 " stroke="#191919" stroke-width="0.35 px" style="stroke-width:0.35;stroke-miterlimit:4;stroke-dasharray:none;fill:none;fill-opacity:1;fill-rule: evenodd"/>
<path id="Shape2DView_nwe0055"  d="M 0.77 -4.165 L 1.07 -4.165 " stroke="#191919" stroke-width="0.35 px" style="stroke-width:0.35;stroke-miterlimit:4;stroke-dasharray:none;fill:none;fill-opacity:1;fill-rule: evenodd"/>
<path id="Shape2DView_nwe0056"  d="M 0.77 -3.895 L 1.07 -3.895 " stroke="#191919" stroke-width="0.35 px" style="stroke-width:0.35;stroke-miterlimit:4;stroke-dasharray:none;fill:none;fill-opacity:1;fill-rule: evenodd"/>
<path id="Shape2DView_nwe0058"  d="M 0.62 -3.68 L 0.77 -3.68 " stroke="#191919" stroke-width="0.35 px" style="stroke-width:0.35;stroke-miterlimit:4;stroke-dasharray:none;fill:none;fill-opacity:1;fill-rule: evenodd"/>
<path id="Shape2DView_nwe0059"  d="M 0.62 -3.38 L 0.77 -3.38 " stroke="#191919" stroke-width="0.35 px" style="stroke-width:0.35;stroke-miterlimit:4;stroke-dasharray:none;fill:none;fill-opacity:1;fill-rule: evenodd"/>
<path id="Shape2DView_nwe0060"  d="M 0.77 -3.395 L 1.07 -3.395 " stroke="#191919" stroke-width="0.35 px" style="stroke-width:0.35;stroke-miterlimit:4;stroke-dasharray:none;fill:none;fill-opacity:1;fill-rule: evenodd"/>
<path id="Shape2DView_nwe0062"  d="M 0.77 -3.665 L 1.07 -3.665 " stroke="#191919" stroke-width="0.35 px" style="stroke-width:0.35;stroke-miterlimit:4;stroke-dasharray:none;fill:none;fill-opacity:1;fill-rule: evenodd"/>
<path id="Shape2DView_nwe0063"  d="M 1.07 -3.68 L 1.22 -3.68 " stroke="#191919" stroke-width="0.35 px" style="stroke-width:0.35;stroke-miterlimit:4;stroke-dasharray:none;fill:none;fill-opacity:1;fill-rule: evenodd"/>
<path id="Shape2DView_nwe0064"  d="M 1.07 -3.38 L 1.22 -3.38 " stroke="#191919" stroke-width="0.35 px" style="stroke-width:0.35;stroke-miterlimit:4;stroke-dasharray:none;fill:none;fill-opacity:1;fill-rule: evenodd"/>
<path id="Shape2DView_nwe0066"  d="M 0.62 -3.88 L 0.77 -3.88 " stroke="#191919" stroke-width="0.35 px" style="stroke-width:0.35;stroke-miterlimit:4;stroke-dasharray:none;fill:none;fill-opacity:1;fill-rule: evenodd"/>
<path id="Shape2DView_nwe0067"  d="M 1.3 4.58 L 1.3 4.580377267406405 L 1.3 4.581504325269091 L 1.3 4.5833670001814975 L 1.3 4.585941867925855 L 1.3 4.589196548046303 L 1.3 4.593090111051918 L 1.3 4.597573593128807 L 1.3 4.602590611888476 L 1.3 4.60807807540908 L 1.3 4.6139669756529464 L 1.3 4.620183256282689 L 1.3 4.626648743962621 L 1.3 4.633282131433801 L 1.3 4.64 " stroke="#191919" stroke-width="0.35 px" style="stroke-width:0.35;stroke-miterlimit:4;stroke-dasharray:none;fill:none;fill-opacity:1;fill-rule: evenodd"/>
<path id="Shape2DView_nwe0068"  d="M 2.375 4.58 L 2.375 4.580377267406405 L 2.375 4.581504325269091 L 2.375 4.5833670001814975 L 2.375 4.585941867925855 L 2.375 4.589196548046303 L 2.375 4.593090111051918 L 2.375 4.597573593128807 L 2.375 4.602590611888476 L 2.375 4.60807807540908 L 2.375 4.6139669756529464 L 2.375 4.620183256282689 L 2.375 4.626648743962621 L 2.375 4.633282131433801 L 2.375 4.64 " stroke="#191919" stroke-width="0.35 px" style="stroke-width:0.35;stroke-miterlimit:4;stroke-dasharray:none;fill:none;fill-opacity:1;fill-rule: evenodd"/>
<path id="Shape2DView_nwe0069"  d="M -1.3 4.58 L -2.375 4.58 " stroke="#191919" stroke-width="0.35 px" style="stroke-width:0.35;stroke-miterlimit:4;stroke-dasharray:none;fill:none;fill-opacity:1;fill-rule: evenodd"/>
<path id="Shape2DView_nwe0070"  d="M -2.375 4.5 L -2.375 4.508957158088265 L -2.375 4.517801674716505 L -2.375 4.526422324956413 L -2.375 4.534710699129405 L -2.375 4.5425625661212266 L -2.375 4.549879184148699 L -2.375 4.556568542494924 L -2.375 4.5625465185974425 L -2.375 4.567737935938263 L -2.375 4.5720775094321935 L -2.375 4.57551066642467 L -2.375 4.577994232974546 L -2.375 4.579496976791459 L -2.375 4.58 " stroke="#191919" stroke-width="0.35 px" style="stroke-width:0.35;stroke-miterlimit:4;stroke-dasharray:none;fill:none;fill-opacity:1;fill-rule: evenodd"/>
<path id="Shape2DView_nwe0071"  d="M -1.3 4.5 L -1.3 4.508957158088265 L -1.3 4.517801674716505 L -1.3 4.526422324956413 L -1.3 4.534710699129405 L -1.3 4.5425625661212266 L -1.3 4.549879184148699 L -1.3 4.556568542494924 L -1.3 4.5625465185974425 L -1.3 4.567737935938263 L -1.3 4.5720775094321935 L -1.3 4.57551066642467 L -1.3 4.577994232974546 L -1.3 4.579496976791459 L -1.3 4.58 " stroke="#191919" stroke-width="0.35 px" style="stroke-width:0.35;stroke-miterlimit:4;stroke-dasharray:none;fill:none;fill-opacity:1;fill-rule: evenodd"/>
<path id="Shape2DView_nwe0072"  d="M 2.375 4.58 L 1.3 4.58 " stroke="#191919" stroke-width="0.35 px" style="stroke-width:0.35;stroke-miterlimit:4;stroke-dasharray:none;fill:none;fill-opacity:1;fill-rule: evenodd"/>
<path id="Shape2DView_nwe0073"  d="M 1.3 4.5 L 1.3 4.508957158088265 L 1.3 4.517801674716505 L 1.3 4.526422324956413 L 1.3 4.534710699129405 L 1.3 4.5425625661212266 L 1.3 4.549879184148699 L 1.3 4.556568542494924 L 1.3 4.5625465185974425 L 1.3 4.567737935938263 L 1.3 4.5720775094321935 L 1.3 4.57551066642467 L 1.3 4.577994232974546 L 1.3 4.579496976791459 L 1.3 4.58 " stroke="#191919" stroke-width="0.35 px" style="stroke-width:0.35;stroke-miterlimit:4;stroke-dasharray:none;fill:none;fill-opacity:1;fill-rule: evenodd"/>
<path id="Shape2DView_nwe0074"  d="M 2.375 4.5 L 2.375 4.508957158088265 L 2.375 4.517801674716505 L 2.375 4.526422324956413 L 2.375 4.534710699129405 L 2.375 4.5425625661212266 L 2.375 4.549879184148699 L 2.375 4.556568542494924 L 2.375 4.5625465185974425 L 2.375 4.567737935938263 L 2.375 4.5720775094321935 L 2.375 4.57551066642467 L 2.375 4.577994232974546 L 2.375 4.579496976791459 L 2.375 4.58 " stroke="#191919" stroke-width="0.35 px" style="stroke-width:0.35;stroke-miterlimit:4;stroke-dasharray:none;fill:none;fill-opacity:1;fill-rule: evenodd"/>
<path id="Shape2DView_nwe0075"  d="M -2.375 4.5 L -2.383957158088265 4.5 L -2.3928016747165053 4.5 L -2.4014223249564135 4.5 L -2.4097106991294046 4.5 L -2.417562566121227 4.5 L -2.4248791841486987 4.5 L -2.4315685424949236 4.5 L -2.4375465185974425 4.5 L -2.4427379359382626 4.5 L -2.4470775094321935 4.5 L -2.450510666424669 4.5 L -2.4529942329745458 4.5 L -2.4544969767914595 4.5 L -2.455 4.5 " stroke="#191919" stroke-width="0.35 px" style="stroke-width:0.35;stroke-miterlimit:4;stroke-dasharray:none;fill:none;fill-opacity:1;fill-rule: evenodd"/>
<path id="Shape2DView_nwe0076"  d="M -1.3 4.5 A 0.1 0.1 0 0 1 -1.1 4.5" stroke="#191919" stroke-width="0.35 px" style="stroke-width:0.35;stroke-miterlimit:4;stroke-dasharray:none;fill:none;fill-opacity:1;fill-rule: evenodd"/>
<path id="Shape2DView_nwe0077"  d="M -0.8 -2.9 L -0.8 -1.95 " stroke="#191919" stroke-width="0.35 px" style="stroke-width:0.35;stroke-miterlimit:4;stroke-dasharray:none;fill:none;fill-opacity:1;fill-rule: evenodd"/>
<path id="Shape2DView_nwe0078"  d="M -0.6 -1.95 A 0.1 0.1 0 0 1 -0.8 -1.95" stroke="#191919" stroke-width="0.35 px" style="stroke-width:0.35;stroke-miterlimit:4;stroke-dasharray:none;fill:none;fill-opacity:1;fill-rule: evenodd"/>
<path id="Shape2DView_nwe0079"  d="M -0.6 -1.95 L -0.6 -2.01 " stroke="#191919" stroke-width="0.35 px" style="stroke-width:0.35;stroke-miterlimit:4;stroke-dasharray:none;fill:none;fill-opacity:1;fill-rule: evenodd"/>
<path id="Shape2DView_nwe0080"  d="M 0.6 -2.01 L 0.6 -1.95 " stroke="#191919" stroke-width="0.35 px" style="stroke-width:0.35;stroke-miterlimit:4;stroke-dasharray:none;fill:none;fill-opacity:1;fill-rule: evenodd"/>
<path id="Shape2DView_nwe0081"  d="M 0.7999999999999999 -1.949999999459 A 0.1 0.1 0 1 1 0.6 -1.95" stroke="#191919" stroke-width="0.35 px" style="stroke-width:0.35;stroke-miterlimit:4;stroke-dasharray:none;fill:none;fill-opacity:1;fill-rule: evenodd"/>
<path id="Shape2DView_nwe0082"  d="M 0.8 -1.95 L 0.8 -2.9 " stroke="#191919" stroke-width="0.35 px" style="stroke-width:0.35;stroke-miterlimit:4;stroke-dasharray:none;fill:none;fill-opacity:1;fill-rule: evenodd"/>
<path id="Shape2DView_nwe0083"  d="M 1.0999999999999999 4.5 A 0.1 0.1 0 0 1 1.3 4.5" stroke="#191919" stroke-width="0.35 px" style="stroke-width:0.35;stroke-miterlimit:4;stroke-dasharray:none;fill:none;fill-opacity:1;fill-rule: evenodd"/>
<path id="Shape2DView_nwe0084"  d="M 1.1 4.5 L 1.1 5.1 " stroke="#191919" stroke-width="0.35 px" style="stroke-width:0.35;stroke-miterlimit:4;stroke-dasharray:none;fill:none;fill-opacity:1;fill-rule: evenodd"/>
<path id="Shape2DView_nwe0085"  d="M -1.1 5.1 L -1.1 4.5 " stroke="#191919" stroke-width="0.35 px" style="stroke-width:0.35;stroke-miterlimit:4;stroke-dasharray:none;fill:none;fill-opacity:1;fill-rule: evenodd"/>
<path id="Shape2DView_nwe0086"  d="M 2.375 4.5 L 2.383957158088265 4.5 L 2.3928016747165053 4.5 L 2.4014223249564135 4.5 L 2.4097106991294046 4.5 L 2.417562566121227 4.5 L 2.4248791841486987 4.5 L 2.4315685424949236 4.5 L 2.4375465185974425 4.5 L 2.4427379359382626 4.5 L 2.4470775094321935 4.5 L 2.450510666424669 4.5 L 2.4529942329745458 4.5 L 2.4544969767914595 4.5 L 2.455 4.5 " stroke="#191919" stroke-width="0.35 px" style="stroke-width:0.35;stroke-miterlimit:4;stroke-dasharray:none;fill:none;fill-opacity:1;fill-rule: evenodd"/>
<path id="Shape2DView_nwe0087"  d="M -2.455 4.5 L -2.455 -2.9000000000000004 " stroke="#191919" stroke-width="0.35 px" style="stroke-width:0.35;stroke-miterlimit:4;stroke-dasharray:none;fill:none;fill-opacity:1;fill-rule: evenodd"/>
<path id="Shape2DView_nwe0088"  d="M -2.375 -2.9 L -2.383957158088265 -2.9 L -2.3928016747165053 -2.9 L -2.4014223249564135 -2.9 L -2.4097106991294046 -2.9 L -2.417562566121227 -2.9 L -2.4248791841486987 -2.9 L -2.4315685424949236 -2.9 L -2.4375465185974425 -2.9 L -2.4427379359382626 -2.9 L -2.4470775094321935 -2.9 L -2.450510666424669 -2.9 L -2.4529942329745458 -2.9 L -2.4544969767914595 -2.9 L -2.455 -2.9 " stroke="#191919" stroke-width="0.35 px" style="stroke-width:0.35;stroke-miterlimit:4;stroke-dasharray:none;fill:none;fill-opacity:1;fill-rule: evenodd"/>
<path id="Shape2DView_nwe0089"  d="M -0.8 -2.9 L -0.8 -2.9089571580882647 L -0.8 -2.917801674716505 L -0.8 -2.9264223249564134 L -0.8 -2.9347106991294045 L -0.8 -2.942562566121227 L -0.8 -2.9498791841486987 L -0.8 -2.9565685424949235 L -0.8 -2.9625465185974424 L -0.8 -2.9677379359382625 L -0.8 -2.9720775094321934 L -0.8 -2.975510666424669 L -0.8 -2.9779942329745457 L -0.8 -2.9794969767914594 L -0.8 -2.98 " stroke="#191919" stroke-width="0.35 px" style="stroke-width:0.35;stroke-miterlimit:4;stroke-dasharray:none;fill:none;fill-opacity:1;fill-rule: evenodd"/>
<path id="Shape2DView_nwe0090"  d="M -2.375 -2.9 L -2.375 -2.9089571580882647 L -2.375 -2.917801674716505 L -2.375 -2.9264223249564134 L -2.375 -2.9347106991294045 L -2.375 -2.942562566121227 L -2.375 -2.9498791841486987 L -2.375 -2.9565685424949235 L -2.375 -2.9625465185974424 L -2.375 -2.9677379359382625 L -2.375 -2.9720775094321934 L -2.375 -2.975510666424669 L -2.375 -2.9779942329745457 L -2.375 -2.9794969767914594 L -2.375 -2.98 " stroke="#191919" stroke-width="0.35 px" style="stroke-width:0.35;stroke-miterlimit:4;stroke-dasharray:none;fill:none;fill-opacity:1;fill-rule: evenodd"/>
<path id="Shape2DView_nwe0091"  d="M -0.6 -2.01 L -0.6 -2.0189571580882646 L -0.6 -2.027801674716505 L -0.6 -2.0364223249564133 L -0.6 -2.0447106991294044 L -0.6 -2.052562566121227 L -0.6 -2.0598791841486985 L -0.6 -2.0665685424949234 L -0.6 -2.0725465185974423 L -0.6 -2.0777379359382624 L -0.6 -2.0820775094321933 L -0.6 -2.085510666424669 L -0.6 -2.0879942329745456 L -0.6 -2.0894969767914593 L -0.6 -2.09 " stroke="#191919" stroke-width="0.35 px" style="stroke-width:0.35;stroke-miterlimit:4;stroke-dasharray:none;fill:none;fill-opacity:1;fill-rule: evenodd"/>
<path id="Shape2DView_nwe0092"  d="M 0.6 -2.01 L 0.6 -2.0189571580882646 L 0.6 -2.027801674716505 L 0.6 -2.0364223249564133 L 0.6 -2.0447106991294044 L 0.6 -2.052562566121227 L 0.6 -2.0598791841486985 L 0.6 -2.0665685424949234 L 0.6 -2.0725465185974423 L 0.6 -2.0777379359382624 L 0.6 -2.0820775094321933 L 0.6 -2.085510666424669 L 0.6 -2.0879942329745456 L 0.6 -2.0894969767914593 L 0.6 -2.09 " stroke="#191919" stroke-width="0.35 px" style="stroke-width:0.35;stroke-miterlimit:4;stroke-dasharray:none;fill:none;fill-opacity:1;fill-rule: evenodd"/>
<path id="Shape2DView_nwe0093"  d="M 0.8 -2.9 L 0.8 -2.9089571580882647 L 0.8 -2.917801674716505 L 0.8 -2.9264223249564134 L 0.8 -2.9347106991294045 L 0.8 -2.942562566121227 L 0.8 -2.9498791841486987 L 0.8 -2.9565685424949235 L 0.8 -2.9625465185974424 L 0.8 -2.9677379359382625 L 0.8 -2.9720775094321934 L 0.8 -2.975510666424669 L 0.8 -2.9779942329745457 L 0.8 -2.9794969767914594 L 0.8 -2.98 " stroke="#191919" stroke-width="0.35 px" style="stroke-width:0.35;stroke-miterlimit:4;stroke-dasharray:none;fill:none;fill-opacity:1;fill-rule: evenodd"/>
<path id="Shape2DView_nwe0094"  d="M 2.375 -2.9 L 2.375 -2.9089571580882647 L 2.375 -2.917801674716505 L 2.375 -2.9264223249564134 L 2.375 -2.9347106991294045 L 2.375 -2.942562566121227 L 2.375 -2.9498791841486987 L 2.375 -2.9565685424949235 L 2.375 -2.9625465185974424 L 2.375 -2.9677379359382625 L 2.375 -2.9720775094321934 L 2.375 -2.975510666424669 L 2.375 -2.9779942329745457 L 2.375 -2.9794969767914594 L 2.375 -2.98 " stroke="#191919" stroke-width="0.35 px" style="stroke-width:0.35;stroke-miterlimit:4;stroke-dasharray:none;fill:none;fill-opacity:1;fill-rule: evenodd"/>
<path id="Shape2DView_nwe0095"  d="M 2.375 -2.9 L 2.383957158088265 -2.9 L 2.3928016747165053 -2.9 L 2.4014223249564135 -2.9 L 2.4097106991294046 -2.9 L 2.417562566121227 -2.9 L 2.4248791841486987 -2.9 L 2.4315685424949236 -2.9 L 2.4375465185974425 -2.9 L 2.4427379359382626 -2.9 L 2.4470775094321935 -2.9 L 2.450510666424669 -2.9 L 2.4529942329745458 -2.9 L 2.4544969767914595 -2.9 L 2.455 -2.9 " stroke="#191919" stroke-width="0.35 px" style="stroke-width:0.35;stroke-miterlimit:4;stroke-dasharray:none;fill:none;fill-opacity:1;fill-rule: evenodd"/>
<path id="Shape2DView_nwe0096"  d="M 1.1 5.1 L 1.1 5.1089571580882644 L 1.1 5.117801674716505 L 1.1 5.126422324956413 L 1.1 5.134710699129404 L 1.1 5.142562566121226 L 1.1 5.149879184148698 L 1.1 5.156568542494924 L 1.1 5.162546518597442 L 1.1 5.167737935938263 L 1.1 5.172077509432193 L 1.1 5.175510666424669 L 1.1 5.177994232974545 L 1.1 5.179496976791459 L 1.1 5.18 " stroke="#191919" stroke-width="0.35 px" style="stroke-width:0.35;stroke-miterlimit:4;stroke-dasharray:none;fill:none;fill-opacity:1;fill-rule: evenodd"/>
<path id="Shape2DView_nwe0097"  d="M -1.1 5.1 L -1.1 5.1089571580882644 L -1.1 5.117801674716505 L -1.1 5.126422324956413 L -1.1 5.134710699129404 L -1.1 5.142562566121226 L -1.1 5.149879184148698 L -1.1 5.156568542494924 L -1.1 5.162546518597442 L -1.1 5.167737935938263 L -1.1 5.172077509432193 L -1.1 5.175510666424669 L -1.1 5.177994232974545 L -1.1 5.179496976791459 L -1.1 5.18 " stroke="#191919" stroke-width="0.35 px" style="stroke-width:0.35;stroke-miterlimit:4;stroke-dasharray:none;fill:none;fill-opacity:1;fill-rule: evenodd"/>
<path id="Shape2DView_nwe0098"  d="M 2.455 -2.9 L 2.455 4.5 " stroke="#191919" stroke-width="0.35 px" style="stroke-width:0.35;stroke-miterlimit:4;stroke-dasharray:none;fill:none;fill-opacity:1;fill-rule: evenodd"/>
<path id="Shape2DView_nwe0099"  d="M -2.375 -2.98 L -0.8 -2.98 " stroke="#191919" stroke-width="0.35 px" style="stroke-width:0.35;stroke-miterlimit:4;stroke-dasharray:none;fill:none;fill-opacity:1;fill-rule: evenodd"/>
<path id="Shape2DView_nwe0100"  d="M -0.6 -2.09 L 0.6 -2.09 " stroke="#191919" stroke-width="0.35 px" style="stroke-width:0.35;stroke-miterlimit:4;stroke-dasharray:none;fill:none;fill-opacity:1;fill-rule: evenodd"/>
<path id="Shape2DView_nwe0101"  d="M 0.8 -2.98 L 2.375 -2.98 " stroke="#191919" stroke-width="0.35 px" style="stroke-width:0.35;stroke-miterlimit:4;stroke-dasharray:none;fill:none;fill-opacity:1;fill-rule: evenodd"/>
<path id="Shape2DView_nwe0102"  d="M 1.1 5.18 L -1.1 5.18 " stroke="#191919" stroke-width="0.35 px" style="stroke-width:0.35;stroke-miterlimit:4;stroke-dasharray:none;fill:none;fill-opacity:1;fill-rule: evenodd"/>
<path id="Shape2DView_nwe0103"  d="M -0.6 -2.09 L -0.6 -2.090377267406405 L -0.6 -2.0915043252690904 L -0.6 -2.0933670001814977 L -0.6 -2.0959418679258546 L -0.6 -2.099196548046303 L -0.6 -2.1030901110519182 L -0.6 -2.107573593128807 L -0.6 -2.112590611888476 L -0.6 -2.1180780754090796 L -0.6 -2.1239669756529462 L -0.6 -2.13018325628269 L -0.6 -2.136648743962621 L -0.6 -2.1432821314338013 L -0.6 -2.15 " stroke="#191919" stroke-width="0.35 px" style="stroke-width:0.35;stroke-miterlimit:4;stroke-dasharray:none;fill:none;fill-opacity:1;fill-rule: evenodd"/>
<path id="Shape2DView_nwe0104"  d="M 0.6 -2.09 L 0.6 -2.090377267406405 L 0.6 -2.0915043252690904 L 0.6 -2.0933670001814977 L 0.6 -2.0959418679258546 L 0.6 -2.099196548046303 L 0.6 -2.1030901110519182 L 0.6 -2.107573593128807 L 0.6 -2.112590611888476 L 0.6 -2.1180780754090796 L 0.6 -2.1239669756529462 L 0.6 -2.13018325628269 L 0.6 -2.136648743962621 L 0.6 -2.1432821314338013 L 0.6 -2.15 " stroke="#191919" stroke-width="0.35 px" style="stroke-width:0.35;stroke-miterlimit:4;stroke-dasharray:none;fill:none;fill-opacity:1;fill-rule: evenodd"/>
<path id="Shape2DView_nwe0105"  d="M -0.6 -2.15 L -0.6 -2.95 " stroke="#191919" stroke-width="0.35 px" style="stroke-width:0.35;stroke-miterlimit:4;stroke-dasharray:none;fill:none;fill-opacity:1;fill-rule: evenodd"/>
<path id="Shape2DView_nwe0106"  d="M 0.6 -2.95 L 0.6 -2.15 " stroke="#191919" stroke-width="0.35 px" style="stroke-width:0.35;stroke-miterlimit:4;stroke-dasharray:none;fill:none;fill-opacity:1;fill-rule: evenodd"/>
<path id="Shape2DView_nwe0107"  d="M -0.6 -2.95 L 0.6 -2.95 " stroke="#191919" stroke-width="0.35 px" style="stroke-width:0.35;stroke-miterlimit:4;stroke-dasharray:none;fill:none;fill-opacity:1;fill-rule: evenodd"/>
<path id="Shape2DView_nwe0108"  d="M 1.35 -4.1 L 1.3500943168516013 -4.1 L 1.3503760813172727 -4.1 L 1.3508417500453744 -4.1 L 1.3514854669814638 -4.1 L 1.3522991370115758 -4.1 L 1.3532725277629796 -4.1 L 1.3543933982822018 -4.1 L 1.355647652972119 -4.1 L 1.35701951885227 -4.1 L 1.3584917439132367 -4.1 L 1.3600458140706724 -4.1 L 1.3616621859906552 -4.1 L 1.3633205328584503 -4.1 L 1.365 -4.1 " stroke="#191919" stroke-width="0.35 px" style="stroke-width:0.35;stroke-miterlimit:4;stroke-dasharray:none;fill:none;fill-opacity:1;fill-rule: evenodd"/>
<path id="Shape2DView_nwe0109"  d="M 1.635 -4.1 L 1.365 -4.1 " stroke="#191919" stroke-width="0.35 px" style="stroke-width:0.35;stroke-miterlimit:4;stroke-dasharray:none;fill:none;fill-opacity:1;fill-rule: evenodd"/>
<path id="Shape2DView_nwe0110"  d="M 1.65 -4.1 L 1.6499056831483987 -4.1 L 1.6496239186827273 -4.1 L 1.6491582499546256 -4.1 L 1.6485145330185362 -4.1 L 1.6477008629884242 -4.1 L 1.6467274722370204 -4.1 L 1.6456066017177982 -4.1 L 1.644352347027881 -4.1 L 1.64298048114773 -4.1 L 1.6415082560867633 -4.1 L 1.6399541859293276 -4.1 L 1.6383378140093448 -4.1 L 1.6366794671415497 -4.1 L 1.635 -4.1 " stroke="#191919" stroke-width="0.35 px" style="stroke-width:0.35;stroke-miterlimit:4;stroke-dasharray:none;fill:none;fill-opacity:1;fill-rule: evenodd"/>
<path id="Shape2DView_nwe0111"  d="M 1.65 -4.1 L 1.65 -3.95 " stroke="#191919" stroke-width="0.35 px" style="stroke-width:0.35;stroke-miterlimit:4;stroke-dasharray:none;fill:none;fill-opacity:1;fill-rule: evenodd"/>
<path id="Shape2DView_nwe0113"  d="M 1.65 -3.95 L 1.6499056831483987 -3.95 L 1.6496239186827273 -3.95 L 1.6491582499546256 -3.95 L 1.6485145330185362 -3.95 L 1.6477008629884242 -3.95 L 1.6467274722370204 -3.95 L 1.6456066017177982 -3.95 L 1.644352347027881 -3.95 L 1.64298048114773 -3.95 L 1.6415082560867633 -3.95 L 1.6399541859293276 -3.95 L 1.6383378140093448 -3.95 L 1.6366794671415497 -3.95 L 1.635 -3.95 " stroke="#191919" stroke-width="0.35 px" style="stroke-width:0.35;stroke-miterlimit:4;stroke-dasharray:none;fill:none;fill-opacity:1;fill-rule: evenodd"/>
<path id="Shape2DView_nwe0114"  d="M 1.635 -3.95 L 1.365 -3.95 " stroke="#191919" stroke-width="0.35 px" style="stroke-width:0.35;stroke-miterlimit:4;stroke-dasharray:none;fill:none;fill-opacity:1;fill-rule: evenodd"/>
<path id="Shape2DView_nwe0115"  d="M 1.35 -3.95 L 1.3500943168516013 -3.95 L 1.3503760813172727 -3.95 L 1.3508417500453744 -3.95 L 1.3514854669814638 -3.95 L 1.3522991370115758 -3.95 L 1.3532725277629796 -3.95 L 1.3543933982822018 -3.95 L 1.355647652972119 -3.95 L 1.35701951885227 -3.95 L 1.3584917439132367 -3.95 L 1.3600458140706724 -3.95 L 1.3616621859906552 -3.95 L 1.3633205328584503 -3.95 L 1.365 -3.95 " stroke="#191919" stroke-width="0.35 px" style="stroke-width:0.35;stroke-miterlimit:4;stroke-dasharray:none;fill:none;fill-opacity:1;fill-rule: evenodd"/>
<path id="Shape2DView_nwe0116"  d="M 1.35 -4.1 L 1.35 -3.95 " stroke="#191919" stroke-width="0.35 px" style="stroke-width:0.35;stroke-miterlimit:4;stroke-dasharray:none;fill:none;fill-opacity:1;fill-rule: evenodd"/>
<path id="Shape2DView_nwe0117"  d="M 1.365 -3.95 L 1.365 -3.65 " stroke="#191919" stroke-width="0.35 px" style="stroke-width:0.35;stroke-miterlimit:4;stroke-dasharray:none;fill:none;fill-opacity:1;fill-rule: evenodd"/>
<path id="Shape2DView_nwe0118"  d="M 1.635 -3.95 L 1.635 -3.65 " stroke="#191919" stroke-width="0.35 px" style="stroke-width:0.35;stroke-miterlimit:4;stroke-dasharray:none;fill:none;fill-opacity:1;fill-rule: evenodd"/>
<path id="Shape2DView_nwe0119"  d="M 1.35 -3.65 L 1.3500943168516013 -3.65 L 1.3503760813172727 -3.65 L 1.3508417500453744 -3.65 L 1.3514854669814638 -3.65 L 1.3522991370115758 -3.65 L 1.3532725277629796 -3.65 L 1.3543933982822018 -3.65 L 1.355647652972119 -3.65 L 1.35701951885227 -3.65 L 1.3584917439132367 -3.65 L 1.3600458140706724 -3.65 L 1.3616621859906552 -3.65 L 1.3633205328584503 -3.65 L 1.365 -3.65 " stroke="#191919" stroke-width="0.35 px" style="stroke-width:0.35;stroke-miterlimit:4;stroke-dasharray:none;fill:none;fill-opacity:1;fill-rule: evenodd"/>
<path id="Shape2DView_nwe0120"  d="M 1.635 -3.65 L 1.365 -3.65 " stroke="#191919" stroke-width="0.35 px" style="stroke-width:0.35;stroke-miterlimit:4;stroke-dasharray:none;fill:none;fill-opacity:1;fill-rule: evenodd"/>
<path id="Shape2DView_nwe0121"  d="M 1.65 -3.65 L 1.6499056831483987 -3.65 L 1.6496239186827273 -3.65 L 1.6491582499546256 -3.65 L 1.6485145330185362 -3.65 L 1.6477008629884242 -3.65 L 1.6467274722370204 -3.65 L 1.6456066017177982 -3.65 L 1.644352347027881 -3.65 L 1.64298048114773 -3.65 L 1.6415082560867633 -3.65 L 1.6399541859293276 -3.65 L 1.6383378140093448 -3.65 L 1.6366794671415497 -3.65 L 1.635 -3.65 " stroke="#191919" stroke-width="0.35 px" style="stroke-width:0.35;stroke-miterlimit:4;stroke-dasharray:none;fill:none;fill-opacity:1;fill-rule: evenodd"/>
<path id="Shape2DView_nwe0122"  d="M 1.65 -3.65 L 1.65 -3.5 " stroke="#191919" stroke-width="0.35 px" style="stroke-width:0.35;stroke-miterlimit:4;stroke-dasharray:none;fill:none;fill-opacity:1;fill-rule: evenodd"/>
<path id="Shape2DView_nwe0124"  d="M 1.65 -3.5 L 1.6499056831483987 -3.5 L 1.6496239186827273 -3.5 L 1.6491582499546256 -3.5 L 1.6485145330185362 -3.5 L 1.6477008629884242 -3.5 L 1.6467274722370204 -3.5 L 1.6456066017177982 -3.5 L 1.644352347027881 -3.5 L 1.64298048114773 -3.5 L 1.6415082560867633 -3.5 L 1.6399541859293276 -3.5 L 1.6383378140093448 -3.5 L 1.6366794671415497 -3.5 L 1.635 -3.5 " stroke="#191919" stroke-width="0.35 px" style="stroke-width:0.35;stroke-miterlimit:4;stroke-dasharray:none;fill:none;fill-opacity:1;fill-rule: evenodd"/>
<path id="Shape2DView_nwe0125"  d="M 1.635 -3.5 L 1.365 -3.5 " stroke="#191919" stroke-width="0.35 px" style="stroke-width:0.35;stroke-miterlimit:4;stroke-dasharray:none;fill:none;fill-opacity:1;fill-rule: evenodd"/>
<path id="Shape2DView_nwe0126"  d="M 1.35 -3.5 L 1.3500943168516013 -3.5 L 1.3503760813172727 -3.5 L 1.3508417500453744 -3.5 L 1.3514854669814638 -3.5 L 1.3522991370115758 -3.5 L 1.3532725277629796 -3.5 L 1.3543933982822018 -3.5 L 1.355647652972119 -3.5 L 1.35701951885227 -3.5 L 1.3584917439132367 -3.5 L 1.3600458140706724 -3.5 L 1.3616621859906552 -3.5 L 1.3633205328584503 -3.5 L 1.365 -3.5 " stroke="#191919" stroke-width="0.35 px" style="stroke-width:0.35;stroke-miterlimit:4;stroke-dasharray:none;fill:none;fill-opacity:1;fill-rule: evenodd"/>
<path id="Shape2DView_nwe0127"  d="M 1.35 -3.65 L 1.35 -3.5 " stroke="#191919" stroke-width="0.35 px" style="stroke-width:0.35;stroke-miterlimit:4;stroke-dasharray:none;fill:none;fill-opacity:1;fill-rule: evenodd"/>
<path id="Shape2DView_nwe0128"  d="M -1.3 4.64 L -2.375 4.64 " stroke="#191919" stroke-width="0.35 px" style="stroke-width:0.35;stroke-miterlimit:4;stroke-dasharray:none;fill:none;fill-opacity:1;fill-rule: evenodd"/>
<path id="Shape2DView_nwe0129"  d="M 1.07 -3.895 L 1.22 -3.895 " stroke="#191919" stroke-width="0.35 px" style="stroke-width:0.35;stroke-miterlimit:4;stroke-dasharray:none;fill:none;fill-opacity:1;fill-rule: evenodd"/>
<path id="Shape2DView_nwe0130"  d="M 1.07 -4.165 L 1.22 -4.165 " stroke="#191919" stroke-width="0.35 px" style="stroke-width:0.35;stroke-miterlimit:4;stroke-dasharray:none;fill:none;fill-opacity:1;fill-rule: evenodd"/>
<path id="Shape2DView_nwe0131"  d="M 0.77 -4.15 L 1.07 -4.15 " stroke="#191919" stroke-width="0.35 px" style="stroke-width:0.35;stroke-miterlimit:4;stroke-dasharray:none;fill:none;fill-opacity:1;fill-rule: evenodd"/>
<path id="Shape2DView_nwe0132"  d="M 0.77 -3.91 L 1.07 -3.91 " stroke="#191919" stroke-width="0.35 px" style="stroke-width:0.35;stroke-miterlimit:4;stroke-dasharray:none;fill:none;fill-opacity:1;fill-rule: evenodd"/>
<path id="Shape2DView_nwe0133"  d="M 0.62 -3.665 L 0.77 -3.665 " stroke="#191919" stroke-width="0.35 px" style="stroke-width:0.35;stroke-miterlimit:4;stroke-dasharray:none;fill:none;fill-opacity:1;fill-rule: evenodd"/>
<path id="Shape2DView_nwe0134"  d="M 0.62 -3.395 L 0.77 -3.395 " stroke="#191919" stroke-width="0.35 px" style="stroke-width:0.35;stroke-miterlimit:4;stroke-dasharray:none;fill:none;fill-opacity:1;fill-rule: evenodd"/>
<path id="Shape2DView_nwe0135"  d="M 0.77 -3.41 L 1.07 -3.41 " stroke="#191919" stroke-width="0.35 px" style="stroke-width:0.35;stroke-miterlimit:4;stroke-dasharray:none;fill:none;fill-opacity:1;fill-rule: evenodd"/>
<path id="Shape2DView_nwe0136"  d="M 0.77 -3.65 L 1.07 -3.65 " stroke="#191919" stroke-width="0.35 px" style="stroke-width:0.35;stroke-miterlimit:4;stroke-dasharray:none;fill:none;fill-opacity:1;fill-rule: evenodd"/>
<path id="Shape2DView_nwe0137"  d="M 1.07 -3.395 L 1.22 -3.395 " stroke="#191919" stroke-width="0.35 px" style="stroke-width:0.35;stroke-miterlimit:4;stroke-dasharray:none;fill:none;fill-opacity:1;fill-rule: evenodd"/>
<path id="Shape2DView_nwe0138"  d="M 1.07 -3.665 L 1.22 -3.665 " stroke="#191919" stroke-width="0.35 px" style="stroke-width:0.35;stroke-miterlimit:4;stroke-dasharray:none;fill:none;fill-opacity:1;fill-rule: evenodd"/>
<path id="Shape2DView_nwe0139"  d="M 0.62 -3.895 L 0.77 -3.895 " stroke="#191919" stroke-width="0.35 px" style="stroke-width:0.35;stroke-miterlimit:4;stroke-dasharray:none;fill:none;fill-opacity:1;fill-rule: evenodd"/>
<path id="Shape2DView_nwe0140"  d="M 0.62 -4.165 L 0.77 -4.165 " stroke="#191919" stroke-width="0.35 px" style="stroke-width:0.35;stroke-miterlimit:4;stroke-dasharray:none;fill:none;fill-opacity:1;fill-rule: evenodd"/>
<path id="Shape2DView_nwe0141"  d="M 2.375 4.64 L 1.3 4.64 " stroke="#191919" stroke-width="0.35 px" style="stroke-width:0.35;stroke-miterlimit:4;stroke-dasharray:none;fill:none;fill-opacity:1;fill-rule: evenodd"/>
<path id="Shape2DView_nwe0142"  d="M -1.3 4.5 L -2.375 4.5 " stroke="#191919" stroke-width="0.35 px" style="stroke-width:0.35;stroke-miterlimit:4;stroke-dasharray:none;fill:none;fill-opacity:1;fill-rule: evenodd"/>
<path id="Shape2DView_nwe0143"  d="M 2.375 4.5 L 1.3 4.5 " stroke="#191919" stroke-width="0.35 px" style="stroke-width:0.35;stroke-miterlimit:4;stroke-dasharray:none;fill:none;fill-opacity:1;fill-rule: evenodd"/>
<path id="Shape2DView_nwe0144"  d="M -2.375 4.5 L -2.375 -2.9000000000000004 " stroke="#191919" stroke-width="0.35 px" style="stroke-width:0.35;stroke-miterlimit:4;stroke-dasharray:none;fill:none;fill-opacity:1;fill-rule: evenodd"/>
<path id="Shape2DView_nwe0145"  d="M -2.375 -2.9 L -0.8 -2.9 " stroke="#191919" stroke-width="0.35 px" style="stroke-width:0.35;stroke-miterlimit:4;stroke-dasharray:none;fill:none;fill-opacity:1;fill-rule: evenodd"/>
<path id="Shape2DView_nwe0146"  d="M -0.6 -2.01 L 0.6 -2.01 " stroke="#191919" stroke-width="0.35 px" style="stroke-width:0.35;stroke-miterlimit:4;stroke-dasharray:none;fill:none;fill-opacity:1;fill-rule: evenodd"/>
<path id="Shape2DView_nwe0147"  d="M 0.8 -2.9 L 2.375 -2.9 " stroke="#191919" stroke-width="0.35 px" style="stroke-width:0.35;stroke-miterlimit:4;stroke-dasharray:none;fill:none;fill-opacity:1;fill-rule: evenodd"/>
<path id="Shape2DView_nwe0148"  d="M 2.375 -2.9 L 2.375 4.5 " stroke="#191919" stroke-width="0.35 px" style="stroke-width:0.35;stroke-miterlimit:4;stroke-dasharray:none;fill:none;fill-opacity:1;fill-rule: evenodd"/>
<path id="Shape2DView_nwe0149"  d="M 1.1 5.1 L -1.1 5.1 " stroke="#191919" stroke-width="0.35 px" style="stroke-width:0.35;stroke-miterlimit:4;stroke-dasharray:none;fill:none;fill-opacity:1;fill-rule: evenodd"/>
<path id="Shape2DView_nwe0150"  d="M -0.6 -2.15 L 0.6 -2.15 " stroke="#191919" stroke-width="0.35 px" style="stroke-width:0.35;stroke-miterlimit:4;stroke-dasharray:none;fill:none;fill-opacity:1;fill-rule: evenodd"/>
<path id="Shape2DView_nwe0151"  d="M 1.635 -4.1 L 1.635 -3.95 " stroke="#191919" stroke-width="0.35 px" style="stroke-width:0.35;stroke-miterlimit:4;stroke-dasharray:none;fill:none;fill-opacity:1;fill-rule: evenodd"/>
<path id="Shape2DView_nwe0152"  d="M 1.365 -4.1 L 1.365 -3.95 " stroke="#191919" stroke-width="0.35 px" style="stroke-width:0.35;stroke-miterlimit:4;stroke-dasharray:none;fill:none;fill-opacity:1;fill-rule: evenodd"/>
<path id="Shape2DView_nwe0153"  d="M 1.38 -3.95 L 1.38 -3.65 " stroke="#191919" stroke-width="0.35 px" style="stroke-width:0.35;stroke-miterlimit:4;stroke-dasharray:none;fill:none;fill-opacity:1;fill-rule: evenodd"/>
<path id="Shape2DView_nwe0154"  d="M 1.62 -3.95 L 1.62 -3.65 " stroke="#191919" stroke-width="0.35 px" style="stroke-width:0.35;stroke-miterlimit:4;stroke-dasharray:none;fill:none;fill-opacity:1;fill-rule: evenodd"/>
<path id="Shape2DView_nwe0155"  d="M 1.635 -3.65 L 1.635 -3.5 " stroke="#191919" stroke-width="0.35 px" style="stroke-width:0.35;stroke-miterlimit:4;stroke-dasharray:none;fill:none;fill-opacity:1;fill-rule: evenodd"/>
<path id="Shape2DView_nwe0156"  d="M 1.365 -3.65 L 1.365 -3.5 " stroke="#191919" stroke-width="0.35 px" style="stroke-width:0.35;stroke-miterlimit:4;stroke-dasharray:none;fill:none;fill-opacity:1;fill-rule: evenodd"/>
<title>b'Shape2DView'</title>
</g>
<g id="Rectangle" transform="translate(2.601000,5.701000) scale(1,-1)">
<rect fill="#ff0000" id="origin" width="1" height="1" x="0" y="0" />
<title>b'Rectangle'</title>
</g>
</svg>