<?xml version="1.0"?>
<!DOCTYPE svg PUBLIC "-//W3C//DTD SVG 1.1//EN" "http://www.w3.org/Graphics/SVG/1.1/DTD/svg11.dtd">
<svg width="11.250600000000023mm" height="53.560600000000015mm" viewBox="0 0 11.250600000000023 53.560600000000015" xmlns="http://www.w3.org/2000/svg" version="1.1">
<g id="Shape2DView" transform="translate(10.140300,1.380300) scale(1,-1)">
<path id="Shape2DView_nwe0000"  d="M -1.52 -52.07 L -10.03 -52.07000000000001 " stroke="#191919" stroke-width="0.35 px" style="stroke-width:0.35;stroke-miterlimit:4;stroke-dasharray:none;fill:none;fill-opacity:1;fill-rule: evenodd"/>
<path id="Shape2DView_nwe0001"  d="M -10.03 -52.07 L -10.030000000000022 1.2700000000000031 " stroke="#191919" stroke-width="0.35 px" style="stroke-width:0.35;stroke-miterlimit:4;stroke-dasharray:none;fill:none;fill-opacity:1;fill-rule: evenodd"/>
<path id="Shape2DView_nwe0002"  d="M -1.52 1.27 L -10.03 1.2699999999999962 " stroke="#191919" stroke-width="0.35 px" style="stroke-width:0.35;stroke-miterlimit:4;stroke-dasharray:none;fill:none;fill-opacity:1;fill-rule: evenodd"/>
<path id="Shape2DView_nwe0003"  d="M -1.52 -52.07 L -1.5200000000000238 1.2700000000000031 " stroke="#191919" stroke-width="0.35 px" style="stroke-width:0.35;stroke-miterlimit:4;stroke-dasharray:none;fill:none;fill-opacity:1;fill-rule: evenodd"/>
<path id="Shape2DView_nwe0004"  d="M -0.2 -22.56 L -1.5200000000000131 -22.56 " stroke="#191919" stroke-width="0.35 px" style="stroke-width:0.35;stroke-miterlimit:4;stroke-dasharray:none;fill:none;fill-opacity:1;fill-rule: evenodd"/>
<path id="Shape2DView_nwe0005"  d="M -1.520000000000013 -23.16 L -0.19999999999999996 -23.16 " stroke="#191919" stroke-width="0.35 px" style="stroke-width:0.35;stroke-miterlimit:4;stroke-dasharray:none;fill:none;fill-opacity:1;fill-rule: evenodd"/>
<path id="Shape2DView_nwe0006"  d="M -0.2 -25.1 L -1.520000000000012 -25.1 " stroke="#191919" stroke-width="0.35 px" style="stroke-width:0.35;stroke-miterlimit:4;stroke-dasharray:none;fill:none;fill-opacity:1;fill-rule: evenodd"/>
<path id="Shape2DView_nwe0007"  d="M -1.5200000000000118 -25.7 L -0.19999999999999996 -25.7 " stroke="#191919" stroke-width="0.35 px" style="stroke-width:0.35;stroke-miterlimit:4;stroke-dasharray:none;fill:none;fill-opacity:1;fill-rule: evenodd"/>
<path id="Shape2DView_nwe0008"  d="M -0.2 -27.64 L -1.520000000000011 -27.64 " stroke="#191919" stroke-width="0.35 px" style="stroke-width:0.35;stroke-miterlimit:4;stroke-dasharray:none;fill:none;fill-opacity:1;fill-rule: evenodd"/>
<path id="Shape2DView_nwe0009"  d="M -1.5200000000000107 -28.24 L -0.19999999999999996 -28.24 " stroke="#191919" stroke-width="0.35 px" style="stroke-width:0.35;stroke-miterlimit:4;stroke-dasharray:none;fill:none;fill-opacity:1;fill-rule: evenodd"/>
<path id="Shape2DView_nwe0010"  d="M -0.2 -35.26 L -1.5200000000000076 -35.26 " stroke="#191919" stroke-width="0.35 px" style="stroke-width:0.35;stroke-miterlimit:4;stroke-dasharray:none;fill:none;fill-opacity:1;fill-rule: evenodd"/>
<path id="Shape2DView_nwe0011"  d="M -1.5200000000000071 -35.86 L -0.19999999999999996 -35.86 " stroke="#191919" stroke-width="0.35 px" style="stroke-width:0.35;stroke-miterlimit:4;stroke-dasharray:none;fill:none;fill-opacity:1;fill-rule: evenodd"/>
<path id="Shape2DView_nwe0012"  d="M -0.2 -32.72 L -1.5200000000000087 -32.72 " stroke="#191919" stroke-width="0.35 px" style="stroke-width:0.35;stroke-miterlimit:4;stroke-dasharray:none;fill:none;fill-opacity:1;fill-rule: evenodd"/>
<path id="Shape2DView_nwe0013"  d="M -1.5200000000000085 -33.32 L -0.19999999999999996 -33.32 " stroke="#191919" stroke-width="0.35 px" style="stroke-width:0.35;stroke-miterlimit:4;stroke-dasharray:none;fill:none;fill-opacity:1;fill-rule: evenodd"/>
<path id="Shape2DView_nwe0014"  d="M -0.2 -30.18 L -1.5200000000000098 -30.18 " stroke="#191919" stroke-width="0.35 px" style="stroke-width:0.35;stroke-miterlimit:4;stroke-dasharray:none;fill:none;fill-opacity:1;fill-rule: evenodd"/>
<path id="Shape2DView_nwe0015"  d="M -1.5200000000000096 -30.78 L -0.19999999999999996 -30.78 " stroke="#191919" stroke-width="0.35 px" style="stroke-width:0.35;stroke-miterlimit:4;stroke-dasharray:none;fill:none;fill-opacity:1;fill-rule: evenodd"/>
<path id="Shape2DView_nwe0016"  d="M -0.2 -42.88 L -1.520000000000004 -42.88 " stroke="#191919" stroke-width="0.35 px" style="stroke-width:0.35;stroke-miterlimit:4;stroke-dasharray:none;fill:none;fill-opacity:1;fill-rule: evenodd"/>
<path id="Shape2DView_nwe0017"  d="M -1.5200000000000038 -43.48 L -0.19999999999999996 -43.48 " stroke="#191919" stroke-width="0.35 px" style="stroke-width:0.35;stroke-miterlimit:4;stroke-dasharray:none;fill:none;fill-opacity:1;fill-rule: evenodd"/>
<path id="Shape2DView_nwe0018"  d="M -0.2 -40.34 L -1.5200000000000051 -40.34 " stroke="#191919" stroke-width="0.35 px" style="stroke-width:0.35;stroke-miterlimit:4;stroke-dasharray:none;fill:none;fill-opacity:1;fill-rule: evenodd"/>
<path id="Shape2DView_nwe0019"  d="M -1.520000000000005 -40.94 L -0.19999999999999996 -40.94 " stroke="#191919" stroke-width="0.35 px" style="stroke-width:0.35;stroke-miterlimit:4;stroke-dasharray:none;fill:none;fill-opacity:1;fill-rule: evenodd"/>
<path id="Shape2DView_nwe0020"  d="M -0.2 -37.8 L -1.5200000000000065 -37.8 " stroke="#191919" stroke-width="0.35 px" style="stroke-width:0.35;stroke-miterlimit:4;stroke-dasharray:none;fill:none;fill-opacity:1;fill-rule: evenodd"/>
<path id="Shape2DView_nwe0021"  d="M -1.520000000000006 -38.4 L -0.19999999999999996 -38.4 " stroke="#191919" stroke-width="0.35 px" style="stroke-width:0.35;stroke-miterlimit:4;stroke-dasharray:none;fill:none;fill-opacity:1;fill-rule: evenodd"/>
<path id="Shape2DView_nwe0022"  d="M -0.2 0.3 L -1.5200000000000233 0.2999999999999994 " stroke="#191919" stroke-width="0.35 px" style="stroke-width:0.35;stroke-miterlimit:4;stroke-dasharray:none;fill:none;fill-opacity:1;fill-rule: evenodd"/>
<path id="Shape2DView_nwe0023"  d="M -1.520000000000023 -0.2999999999999999 L -0.19999999999999996 -0.2999999999999993 " stroke="#191919" stroke-width="0.35 px" style="stroke-width:0.35;stroke-miterlimit:4;stroke-dasharray:none;fill:none;fill-opacity:1;fill-rule: evenodd"/>
<path id="Shape2DView_nwe0024"  d="M -0.2 -2.24 L -1.5200000000000222 -2.2400000000000007 " stroke="#191919" stroke-width="0.35 px" style="stroke-width:0.35;stroke-miterlimit:4;stroke-dasharray:none;fill:none;fill-opacity:1;fill-rule: evenodd"/>
<path id="Shape2DView_nwe0025"  d="M -1.5200000000000218 -2.84 L -0.19999999999999996 -2.839999999999999 " stroke="#191919" stroke-width="0.35 px" style="stroke-width:0.35;stroke-miterlimit:4;stroke-dasharray:none;fill:none;fill-opacity:1;fill-rule: evenodd"/>
<path id="Shape2DView_nwe0026"  d="M -0.2 -4.78 L -1.5200000000000211 -4.780000000000001 " stroke="#191919" stroke-width="0.35 px" style="stroke-width:0.35;stroke-miterlimit:4;stroke-dasharray:none;fill:none;fill-opacity:1;fill-rule: evenodd"/>
<path id="Shape2DView_nwe0027"  d="M -1.5200000000000207 -5.38 L -0.19999999999999996 -5.379999999999999 " stroke="#191919" stroke-width="0.35 px" style="stroke-width:0.35;stroke-miterlimit:4;stroke-dasharray:none;fill:none;fill-opacity:1;fill-rule: evenodd"/>
<path id="Shape2DView_nwe0028"  d="M -0.2 -12.4 L -1.5200000000000176 -12.4 " stroke="#191919" stroke-width="0.35 px" style="stroke-width:0.35;stroke-miterlimit:4;stroke-dasharray:none;fill:none;fill-opacity:1;fill-rule: evenodd"/>
<path id="Shape2DView_nwe0029"  d="M -1.5200000000000173 -13.0 L -0.19999999999999996 -13.0 " stroke="#191919" stroke-width="0.35 px" style="stroke-width:0.35;stroke-miterlimit:4;stroke-dasharray:none;fill:none;fill-opacity:1;fill-rule: evenodd"/>
<path id="Shape2DView_nwe0030"  d="M -0.2 -9.86 L -1.5200000000000187 -9.86 " stroke="#191919" stroke-width="0.35 px" style="stroke-width:0.35;stroke-miterlimit:4;stroke-dasharray:none;fill:none;fill-opacity:1;fill-rule: evenodd"/>
<path id="Shape2DView_nwe0031"  d="M -1.5200000000000184 -10.46 L -0.19999999999999996 -10.46 " stroke="#191919" stroke-width="0.35 px" style="stroke-width:0.35;stroke-miterlimit:4;stroke-dasharray:none;fill:none;fill-opacity:1;fill-rule: evenodd"/>
<path id="Shape2DView_nwe0032"  d="M -0.2 -7.32 L -1.52000000000002 -7.320000000000001 " stroke="#191919" stroke-width="0.35 px" style="stroke-width:0.35;stroke-miterlimit:4;stroke-dasharray:none;fill:none;fill-opacity:1;fill-rule: evenodd"/>
<path id="Shape2DView_nwe0033"  d="M -1.5200000000000196 -7.92 L -0.19999999999999996 -7.919999999999999 " stroke="#191919" stroke-width="0.35 px" style="stroke-width:0.35;stroke-miterlimit:4;stroke-dasharray:none;fill:none;fill-opacity:1;fill-rule: evenodd"/>
<path id="Shape2DView_nwe0034"  d="M -0.2 -14.94 L -1.5200000000000164 -14.94 " stroke="#191919" stroke-width="0.35 px" style="stroke-width:0.35;stroke-miterlimit:4;stroke-dasharray:none;fill:none;fill-opacity:1;fill-rule: evenodd"/>
<path id="Shape2DView_nwe0035"  d="M -1.5200000000000162 -15.54 L -0.19999999999999996 -15.54 " stroke="#191919" stroke-width="0.35 px" style="stroke-width:0.35;stroke-miterlimit:4;stroke-dasharray:none;fill:none;fill-opacity:1;fill-rule: evenodd"/>
<path id="Shape2DView_nwe0036"  d="M -0.2 -20.02 L -1.5200000000000142 -20.02 " stroke="#191919" stroke-width="0.35 px" style="stroke-width:0.35;stroke-miterlimit:4;stroke-dasharray:none;fill:none;fill-opacity:1;fill-rule: evenodd"/>
<path id="Shape2DView_nwe0037"  d="M -1.520000000000014 -20.62 L -0.19999999999999996 -20.62 " stroke="#191919" stroke-width="0.35 px" style="stroke-width:0.35;stroke-miterlimit:4;stroke-dasharray:none;fill:none;fill-opacity:1;fill-rule: evenodd"/>
<path id="Shape2DView_nwe0038"  d="M -0.2 -17.48 L -1.5200000000000153 -17.48 " stroke="#191919" stroke-width="0.35 px" style="stroke-width:0.35;stroke-miterlimit:4;stroke-dasharray:none;fill:none;fill-opacity:1;fill-rule: evenodd"/>
<path id="Shape2DView_nwe0039"  d="M -1.5200000000000151 -18.08 L -0.19999999999999996 -18.08 " stroke="#191919" stroke-width="0.35 px" style="stroke-width:0.35;stroke-miterlimit:4;stroke-dasharray:none;fill:none;fill-opacity:1;fill-rule: evenodd"/>
<path id="Shape2DView_nwe0040"  d="M -0.2 -50.5 L -1.5200000000000007 -50.5 " stroke="#191919" stroke-width="0.35 px" style="stroke-width:0.35;stroke-miterlimit:4;stroke-dasharray:none;fill:none;fill-opacity:1;fill-rule: evenodd"/>
<path id="Shape2DView_nwe0041"  d="M -1.5200000000000005 -51.1 L -0.19999999999999996 -51.1 " stroke="#191919" stroke-width="0.35 px" style="stroke-width:0.35;stroke-miterlimit:4;stroke-dasharray:none;fill:none;fill-opacity:1;fill-rule: evenodd"/>
<path id="Shape2DView_nwe0042"  d="M -0.2 -47.96 L -1.5200000000000018 -47.96 " stroke="#191919" stroke-width="0.35 px" style="stroke-width:0.35;stroke-miterlimit:4;stroke-dasharray:none;fill:none;fill-opacity:1;fill-rule: evenodd"/>
<path id="Shape2DView_nwe0043"  d="M -1.5200000000000016 -48.56 L -0.19999999999999996 -48.56 " stroke="#191919" stroke-width="0.35 px" style="stroke-width:0.35;stroke-miterlimit:4;stroke-dasharray:none;fill:none;fill-opacity:1;fill-rule: evenodd"/>
<path id="Shape2DView_nwe0044"  d="M -0.2 -45.42 L -1.520000000000003 -45.42 " stroke="#191919" stroke-width="0.35 px" style="stroke-width:0.35;stroke-miterlimit:4;stroke-dasharray:none;fill:none;fill-opacity:1;fill-rule: evenodd"/>
<path id="Shape2DView_nwe0045"  d="M -1.5200000000000027 -46.02 L -0.19999999999999996 -46.02 " stroke="#191919" stroke-width="0.35 px" style="stroke-width:0.35;stroke-miterlimit:4;stroke-dasharray:none;fill:none;fill-opacity:1;fill-rule: evenodd"/>
<path id="Shape2DView_nwe0046"  d="M -0.19999999999999993 -22.56 L -0.16641065716900758 -22.56 L -0.13324371981310562 -22.56 L -0.10091628141344981 -22.56 L -0.0698348782647325 -22.56 L -0.040390377045398995 -22.56 L -0.012953059442379955 -22.56 L 0.012132034355964272 -22.56 L 0.03454944474040894 -22.56 L 0.05401725976848526 -22.56 L 0.07029066037072573 -22.56 L 0.0831649990925103 -22.56 L 0.09247837365454703 -22.56 L 0.09811366296797275 -22.56 L 0.09999999999999998 -22.56 " stroke="#191919" stroke-width="0.35 px" style="stroke-width:0.35;stroke-miterlimit:4;stroke-dasharray:none;fill:none;fill-opacity:1;fill-rule: evenodd"/>
<path id="Shape2DView_nwe0047"  d="M -0.19999999999999993 -23.16 L -0.16641065716900758 -23.16 L -0.13324371981310562 -23.16 L -0.10091628141344981 -23.16 L -0.0698348782647325 -23.16 L -0.040390377045398995 -23.16 L -0.012953059442379955 -23.16 L 0.012132034355964272 -23.16 L 0.03454944474040894 -23.16 L 0.05401725976848526 -23.16 L 0.07029066037072573 -23.16 L 0.0831649990925103 -23.16 L 0.09247837365454703 -23.16 L 0.09811366296797275 -23.16 L 0.09999999999999998 -23.16 " stroke="#191919" stroke-width="0.35 px" style="stroke-width:0.35;stroke-miterlimit:4;stroke-dasharray:none;fill:none;fill-opacity:1;fill-rule: evenodd"/>
<path id="Shape2DView_nwe0048"  d="M 0.1 -23.16 L 0.09999999999999974 -22.56 " stroke="#191919" stroke-width="0.35 px" style="stroke-width:0.35;stroke-miterlimit:4;stroke-dasharray:none;fill:none;fill-opacity:1;fill-rule: evenodd"/>
<path id="Shape2DView_nwe0049"  d="M -0.19999999999999993 -25.1 L -0.16641065716900758 -25.1 L -0.13324371981310562 -25.1 L -0.10091628141344981 -25.1 L -0.0698348782647325 -25.1 L -0.040390377045398995 -25.1 L -0.012953059442379955 -25.1 L 0.012132034355964272 -25.1 L 0.03454944474040894 -25.1 L 0.05401725976848526 -25.1 L 0.07029066037072573 -25.1 L 0.0831649990925103 -25.1 L 0.09247837365454703 -25.1 L 0.09811366296797275 -25.1 L 0.09999999999999998 -25.1 " stroke="#191919" stroke-width="0.35 px" style="stroke-width:0.35;stroke-miterlimit:4;stroke-dasharray:none;fill:none;fill-opacity:1;fill-rule: evenodd"/>
<path id="Shape2DView_nwe0050"  d="M -0.19999999999999993 -25.7 L -0.16641065716900758 -25.7 L -0.13324371981310562 -25.7 L -0.10091628141344981 -25.7 L -0.0698348782647325 -25.7 L -0.040390377045398995 -25.7 L -0.012953059442379955 -25.7 L 0.012132034355964272 -25.7 L 0.03454944474040894 -25.7 L 0.05401725976848526 -25.7 L 0.07029066037072573 -25.7 L 0.0831649990925103 -25.7 L 0.09247837365454703 -25.7 L 0.09811366296797275 -25.7 L 0.09999999999999998 -25.7 " stroke="#191919" stroke-width="0.35 px" style="stroke-width:0.35;stroke-miterlimit:4;stroke-dasharray:none;fill:none;fill-opacity:1;fill-rule: evenodd"/>
<path id="Shape2DView_nwe0051"  d="M 0.1 -25.7 L 0.09999999999999974 -25.1 " stroke="#191919" stroke-width="0.35 px" style="stroke-width:0.35;stroke-miterlimit:4;stroke-dasharray:none;fill:none;fill-opacity:1;fill-rule: evenodd"/>
<path id="Shape2DView_nwe0052"  d="M -0.19999999999999993 -27.64 L -0.16641065716900758 -27.64 L -0.13324371981310562 -27.64 L -0.10091628141344981 -27.64 L -0.0698348782647325 -27.64 L -0.040390377045398995 -27.64 L -0.012953059442379955 -27.64 L 0.012132034355964272 -27.64 L 0.03454944474040894 -27.64 L 0.05401725976848526 -27.64 L 0.07029066037072573 -27.64 L 0.0831649990925103 -27.64 L 0.09247837365454703 -27.64 L 0.09811366296797275 -27.64 L 0.09999999999999998 -27.64 " stroke="#191919" stroke-width="0.35 px" style="stroke-width:0.35;stroke-miterlimit:4;stroke-dasharray:none;fill:none;fill-opacity:1;fill-rule: evenodd"/>
<path id="Shape2DView_nwe0053"  d="M -0.19999999999999993 -28.24 L -0.16641065716900758 -28.24 L -0.13324371981310562 -28.24 L -0.10091628141344981 -28.24 L -0.0698348782647325 -28.24 L -0.040390377045398995 -28.24 L -0.012953059442379955 -28.24 L 0.012132034355964272 -28.24 L 0.03454944474040894 -28.24 L 0.05401725976848526 -28.24 L 0.07029066037072573 -28.24 L 0.0831649990925103 -28.24 L 0.09247837365454703 -28.24 L 0.09811366296797275 -28.24 L 0.09999999999999998 -28.24 " stroke="#191919" stroke-width="0.35 px" style="stroke-width:0.35;stroke-miterlimit:4;stroke-dasharray:none;fill:none;fill-opacity:1;fill-rule: evenodd"/>
<path id="Shape2DView_nwe0054"  d="M 0.1 -28.24 L 0.09999999999999974 -27.64 " stroke="#191919" stroke-width="0.35 px" style="stroke-width:0.35;stroke-miterlimit:4;stroke-dasharray:none;fill:none;fill-opacity:1;fill-rule: evenodd"/>
<path id="Shape2DView_nwe0055"  d="M -0.19999999999999993 -35.26 L -0.16641065716900758 -35.26 L -0.13324371981310562 -35.26 L -0.10091628141344981 -35.26 L -0.0698348782647325 -35.26 L -0.040390377045398995 -35.26 L -0.012953059442379955 -35.26 L 0.012132034355964272 -35.26 L 0.03454944474040894 -35.26 L 0.05401725976848526 -35.26 L 0.07029066037072573 -35.26 L 0.0831649990925103 -35.26 L 0.09247837365454703 -35.26 L 0.09811366296797275 -35.26 L 0.09999999999999998 -35.26 " stroke="#191919" stroke-width="0.35 px" style="stroke-width:0.35;stroke-miterlimit:4;stroke-dasharray:none;fill:none;fill-opacity:1;fill-rule: evenodd"/>
<path id="Shape2DView_nwe0056"  d="M -0.19999999999999993 -35.86 L -0.16641065716900758 -35.86 L -0.13324371981310562 -35.86 L -0.10091628141344981 -35.86 L -0.0698348782647325 -35.86 L -0.040390377045398995 -35.86 L -0.012953059442379955 -35.86 L 0.012132034355964272 -35.86 L 0.03454944474040894 -35.86 L 0.05401725976848526 -35.86 L 0.07029066037072573 -35.86 L 0.0831649990925103 -35.86 L 0.09247837365454703 -35.86 L 0.09811366296797275 -35.86 L 0.09999999999999998 -35.86 " stroke="#191919" stroke-width="0.35 px" style="stroke-width:0.35;stroke-miterlimit:4;stroke-dasharray:none;fill:none;fill-opacity:1;fill-rule: evenodd"/>
<path id="Shape2DView_nwe0057"  d="M 0.1 -35.86 L 0.09999999999999974 -35.26 " stroke="#191919" stroke-width="0.35 px" style="stroke-width:0.35;stroke-miterlimit:4;stroke-dasharray:none;fill:none;fill-opacity:1;fill-rule: evenodd"/>
<path id="Shape2DView_nwe0058"  d="M -0.19999999999999993 -32.72 L -0.16641065716900758 -32.72 L -0.13324371981310562 -32.72 L -0.10091628141344981 -32.72 L -0.0698348782647325 -32.72 L -0.040390377045398995 -32.72 L -0.012953059442379955 -32.72 L 0.012132034355964272 -32.72 L 0.03454944474040894 -32.72 L 0.05401725976848526 -32.72 L 0.07029066037072573 -32.72 L 0.0831649990925103 -32.72 L 0.09247837365454703 -32.72 L 0.09811366296797275 -32.72 L 0.09999999999999998 -32.72 " stroke="#191919" stroke-width="0.35 px" style="stroke-width:0.35;stroke-miterlimit:4;stroke-dasharray:none;fill:none;fill-opacity:1;fill-rule: evenodd"/>
<path id="Shape2DView_nwe0059"  d="M -0.19999999999999993 -33.32 L -0.16641065716900758 -33.32 L -0.13324371981310562 -33.32 L -0.10091628141344981 -33.32 L -0.0698348782647325 -33.32 L -0.040390377045398995 -33.32 L -0.012953059442379955 -33.32 L 0.012132034355964272 -33.32 L 0.03454944474040894 -33.32 L 0.05401725976848526 -33.32 L 0.07029066037072573 -33.32 L 0.0831649990925103 -33.32 L 0.09247837365454703 -33.32 L 0.09811366296797275 -33.32 L 0.09999999999999998 -33.32 " stroke="#191919" stroke-width="0.35 px" style="stroke-width:0.35;stroke-miterlimit:4;stroke-dasharray:none;fill:none;fill-opacity:1;fill-rule: evenodd"/>
<path id="Shape2DView_nwe0060"  d="M 0.1 -33.32 L 0.09999999999999974 -32.72 " stroke="#191919" stroke-width="0.35 px" style="stroke-width:0.35;stroke-miterlimit:4;stroke-dasharray:none;fill:none;fill-opacity:1;fill-rule: evenodd"/>
<path id="Shape2DView_nwe0061"  d="M -0.19999999999999993 -30.18 L -0.16641065716900758 -30.18 L -0.13324371981310562 -30.18 L -0.10091628141344981 -30.18 L -0.0698348782647325 -30.18 L -0.040390377045398995 -30.18 L -0.012953059442379955 -30.18 L 0.012132034355964272 -30.18 L 0.03454944474040894 -30.18 L 0.05401725976848526 -30.18 L 0.07029066037072573 -30.18 L 0.0831649990925103 -30.18 L 0.09247837365454703 -30.18 L 0.09811366296797275 -30.18 L 0.09999999999999998 -30.18 " stroke="#191919" stroke-width="0.35 px" style="stroke-width:0.35;stroke-miterlimit:4;stroke-dasharray:none;fill:none;fill-opacity:1;fill-rule: evenodd"/>
<path id="Shape2DView_nwe0062"  d="M -0.19999999999999993 -30.78 L -0.16641065716900758 -30.78 L -0.13324371981310562 -30.78 L -0.10091628141344981 -30.78 L -0.0698348782647325 -30.78 L -0.040390377045398995 -30.78 L -0.012953059442379955 -30.78 L 0.012132034355964272 -30.78 L 0.03454944474040894 -30.78 L 0.05401725976848526 -30.78 L 0.07029066037072573 -30.78 L 0.0831649990925103 -30.78 L 0.09247837365454703 -30.78 L 0.09811366296797275 -30.78 L 0.09999999999999998 -30.78 " stroke="#191919" stroke-width="0.35 px" style="stroke-width:0.35;stroke-miterlimit:4;stroke-dasharray:none;fill:none;fill-opacity:1;fill-rule: evenodd"/>
<path id="Shape2DView_nwe0063"  d="M 0.1 -30.78 L 0.09999999999999974 -30.18 " stroke="#191919" stroke-width="0.35 px" style="stroke-width:0.35;stroke-miterlimit:4;stroke-dasharray:none;fill:none;fill-opacity:1;fill-rule: evenodd"/>
<path id="Shape2DView_nwe0064"  d="M -0.19999999999999993 -42.88 L -0.16641065716900758 -42.88 L -0.13324371981310562 -42.88 L -0.10091628141344981 -42.88 L -0.0698348782647325 -42.88 L -0.040390377045398995 -42.88 L -0.012953059442379955 -42.88 L 0.012132034355964272 -42.88 L 0.03454944474040894 -42.88 L 0.05401725976848526 -42.88 L 0.07029066037072573 -42.88 L 0.0831649990925103 -42.88 L 0.09247837365454703 -42.88 L 0.09811366296797275 -42.88 L 0.09999999999999998 -42.88 " stroke="#191919" stroke-width="0.35 px" style="stroke-width:0.35;stroke-miterlimit:4;stroke-dasharray:none;fill:none;fill-opacity:1;fill-rule: evenodd"/>
<path id="Shape2DView_nwe0065"  d="M -0.19999999999999993 -43.48 L -0.16641065716900758 -43.48 L -0.13324371981310562 -43.48 L -0.10091628141344981 -43.48 L -0.0698348782647325 -43.48 L -0.040390377045398995 -43.48 L -0.012953059442379955 -43.48 L 0.012132034355964272 -43.48 L 0.03454944474040894 -43.48 L 0.05401725976848526 -43.48 L 0.07029066037072573 -43.48 L 0.0831649990925103 -43.48 L 0.09247837365454703 -43.48 L 0.09811366296797275 -43.48 L 0.09999999999999998 -43.48 " stroke="#191919" stroke-width="0.35 px" style="stroke-width:0.35;stroke-miterlimit:4;stroke-dasharray:none;fill:none;fill-opacity:1;fill-rule: evenodd"/>
<path id="Shape2DView_nwe0066"  d="M 0.1 -43.48 L 0.09999999999999974 -42.88 " stroke="#191919" stroke-width="0.35 px" style="stroke-width:0.35;stroke-miterlimit:4;stroke-dasharray:none;fill:none;fill-opacity:1;fill-rule: evenodd"/>
<path id="Shape2DView_nwe0067"  d="M -0.19999999999999993 -40.34 L -0.16641065716900758 -40.34 L -0.13324371981310562 -40.34 L -0.10091628141344981 -40.34 L -0.0698348782647325 -40.34 L -0.040390377045398995 -40.34 L -0.012953059442379955 -40.34 L 0.012132034355964272 -40.34 L 0.03454944474040894 -40.34 L 0.05401725976848526 -40.34 L 0.07029066037072573 -40.34 L 0.0831649990925103 -40.34 L 0.09247837365454703 -40.34 L 0.09811366296797275 -40.34 L 0.09999999999999998 -40.34 " stroke="#191919" stroke-width="0.35 px" style="stroke-width:0.35;stroke-miterlimit:4;stroke-dasharray:none;fill:none;fill-opacity:1;fill-rule: evenodd"/>
<path id="Shape2DView_nwe0068"  d="M -0.19999999999999993 -40.94 L -0.16641065716900758 -40.94 L -0.13324371981310562 -40.94 L -0.10091628141344981 -40.94 L -0.0698348782647325 -40.94 L -0.040390377045398995 -40.94 L -0.012953059442379955 -40.94 L 0.012132034355964272 -40.94 L 0.03454944474040894 -40.94 L 0.05401725976848526 -40.94 L 0.07029066037072573 -40.94 L 0.0831649990925103 -40.94 L 0.09247837365454703 -40.94 L 0.09811366296797275 -40.94 L 0.09999999999999998 -40.94 " stroke="#191919" stroke-width="0.35 px" style="stroke-width:0.35;stroke-miterlimit:4;stroke-dasharray:none;fill:none;fill-opacity:1;fill-rule: evenodd"/>
<path id="Shape2DView_nwe0069"  d="M 0.1 -40.94 L 0.09999999999999974 -40.34 " stroke="#191919" stroke-width="0.35 px" style="stroke-width:0.35;stroke-miterlimit:4;stroke-dasharray:none;fill:none;fill-opacity:1;fill-rule: evenodd"/>
<path id="Shape2DView_nwe0070"  d="M -0.19999999999999993 -37.8 L -0.16641065716900758 -37.8 L -0.13324371981310562 -37.8 L -0.10091628141344981 -37.8 L -0.0698348782647325 -37.8 L -0.040390377045398995 -37.8 L -0.012953059442379955 -37.8 L 0.012132034355964272 -37.8 L 0.03454944474040894 -37.8 L 0.05401725976848526 -37.8 L 0.07029066037072573 -37.8 L 0.0831649990925103 -37.8 L 0.09247837365454703 -37.8 L 0.09811366296797275 -37.8 L 0.09999999999999998 -37.8 " stroke="#191919" stroke-width="0.35 px" style="stroke-width:0.35;stroke-miterlimit:4;stroke-dasharray:none;fill:none;fill-opacity:1;fill-rule: evenodd"/>
<path id="Shape2DView_nwe0071"  d="M -0.19999999999999993 -38.4 L -0.16641065716900758 -38.4 L -0.13324371981310562 -38.4 L -0.10091628141344981 -38.4 L -0.0698348782647325 -38.4 L -0.040390377045398995 -38.4 L -0.012953059442379955 -38.4 L 0.012132034355964272 -38.4 L 0.03454944474040894 -38.4 L 0.05401725976848526 -38.4 L 0.07029066037072573 -38.4 L 0.0831649990925103 -38.4 L 0.09247837365454703 -38.4 L 0.09811366296797275 -38.4 L 0.09999999999999998 -38.4 " stroke="#191919" stroke-width="0.35 px" style="stroke-width:0.35;stroke-miterlimit:4;stroke-dasharray:none;fill:none;fill-opacity:1;fill-rule: evenodd"/>
<path id="Shape2DView_nwe0072"  d="M 0.1 -38.4 L 0.09999999999999974 -37.8 " stroke="#191919" stroke-width="0.35 px" style="stroke-width:0.35;stroke-miterlimit:4;stroke-dasharray:none;fill:none;fill-opacity:1;fill-rule: evenodd"/>
<path id="Shape2DView_nwe0073"  d="M -0.19999999999999993 0.3 L -0.16641065716900758 0.3 L -0.13324371981310562 0.30000000000000004 L -0.10091628141344981 0.30000000000000004 L -0.0698348782647325 0.30000000000000004 L -0.040390377045398995 0.30000000000000004 L -0.012953059442379955 0.30000000000000004 L 0.012132034355964272 0.3000000000000001 L 0.03454944474040894 0.3000000000000001 L 0.05401725976848526 0.3000000000000001 L 0.07029066037072573 0.3000000000000001 L 0.0831649990925103 0.3000000000000001 L 0.09247837365454703 0.3000000000000001 L 0.09811366296797275 0.3000000000000001 L 0.09999999999999998 0.3000000000000001 " stroke="#191919" stroke-width="0.35 px" style="stroke-width:0.35;stroke-miterlimit:4;stroke-dasharray:none;fill:none;fill-opacity:1;fill-rule: evenodd"/>
<path id="Shape2DView_nwe0074"  d="M -0.19999999999999993 -0.3 L -0.16641065716900758 -0.3 L -0.13324371981310562 -0.29999999999999993 L -0.10091628141344981 -0.29999999999999993 L -0.0698348782647325 -0.29999999999999993 L -0.040390377045398995 -0.29999999999999993 L -0.012953059442379955 -0.29999999999999993 L 0.012132034355964272 -0.2999999999999999 L 0.03454944474040894 -0.2999999999999999 L 0.05401725976848526 -0.2999999999999999 L 0.07029066037072573 -0.2999999999999999 L 0.0831649990925103 -0.2999999999999999 L 0.09247837365454703 -0.2999999999999999 L 0.09811366296797275 -0.2999999999999999 L 0.09999999999999998 -0.2999999999999999 " stroke="#191919" stroke-width="0.35 px" style="stroke-width:0.35;stroke-miterlimit:4;stroke-dasharray:none;fill:none;fill-opacity:1;fill-rule: evenodd"/>
<path id="Shape2DView_nwe0075"  d="M 0.09999999999999 -0.3 L 0.09999999999998974 0.3 " stroke="#191919" stroke-width="0.35 px" style="stroke-width:0.35;stroke-miterlimit:4;stroke-dasharray:none;fill:none;fill-opacity:1;fill-rule: evenodd"/>
<path id="Shape2DView_nwe0076"  d="M -0.19999999999999993 -2.24 L -0.16641065716900758 -2.24 L -0.13324371981310562 -2.24 L -0.10091628141344981 -2.24 L -0.0698348782647325 -2.24 L -0.040390377045398995 -2.24 L -0.012953059442379955 -2.24 L 0.012132034355964272 -2.24 L 0.03454944474040894 -2.24 L 0.05401725976848526 -2.24 L 0.07029066037072573 -2.24 L 0.0831649990925103 -2.24 L 0.09247837365454703 -2.24 L 0.09811366296797275 -2.24 L 0.09999999999999998 -2.24 " stroke="#191919" stroke-width="0.35 px" style="stroke-width:0.35;stroke-miterlimit:4;stroke-dasharray:none;fill:none;fill-opacity:1;fill-rule: evenodd"/>
<path id="Shape2DView_nwe0077"  d="M -0.19999999999999993 -2.84 L -0.16641065716900758 -2.84 L -0.13324371981310562 -2.84 L -0.10091628141344981 -2.84 L -0.0698348782647325 -2.84 L -0.040390377045398995 -2.84 L -0.012953059442379955 -2.84 L 0.012132034355964272 -2.84 L 0.03454944474040894 -2.84 L 0.05401725976848526 -2.84 L 0.07029066037072573 -2.84 L 0.0831649990925103 -2.84 L 0.09247837365454703 -2.84 L 0.09811366296797275 -2.84 L 0.09999999999999998 -2.84 " stroke="#191919" stroke-width="0.35 px" style="stroke-width:0.35;stroke-miterlimit:4;stroke-dasharray:none;fill:none;fill-opacity:1;fill-rule: evenodd"/>
<path id="Shape2DView_nwe0078"  d="M 0.09999999999999 -2.84 L 0.09999999999998974 -2.24 " stroke="#191919" stroke-width="0.35 px" style="stroke-width:0.35;stroke-miterlimit:4;stroke-dasharray:none;fill:none;fill-opacity:1;fill-rule: evenodd"/>
<path id="Shape2DView_nwe0079"  d="M -0.19999999999999993 -4.78 L -0.16641065716900758 -4.78 L -0.13324371981310562 -4.78 L -0.10091628141344981 -4.78 L -0.0698348782647325 -4.78 L -0.040390377045398995 -4.78 L -0.012953059442379955 -4.78 L 0.012132034355964272 -4.78 L 0.03454944474040894 -4.78 L 0.05401725976848526 -4.78 L 0.07029066037072573 -4.78 L 0.0831649990925103 -4.78 L 0.09247837365454703 -4.78 L 0.09811366296797275 -4.78 L 0.09999999999999998 -4.78 " stroke="#191919" stroke-width="0.35 px" style="stroke-width:0.35;stroke-miterlimit:4;stroke-dasharray:none;fill:none;fill-opacity:1;fill-rule: evenodd"/>
<path id="Shape2DView_nwe0080"  d="M -0.19999999999999993 -5.38 L -0.16641065716900758 -5.38 L -0.13324371981310562 -5.38 L -0.10091628141344981 -5.38 L -0.0698348782647325 -5.38 L -0.040390377045398995 -5.38 L -0.012953059442379955 -5.38 L 0.012132034355964272 -5.38 L 0.03454944474040894 -5.38 L 0.05401725976848526 -5.38 L 0.07029066037072573 -5.38 L 0.0831649990925103 -5.38 L 0.09247837365454703 -5.38 L 0.09811366296797275 -5.38 L 0.09999999999999998 -5.38 " stroke="#191919" stroke-width="0.35 px" style="stroke-width:0.35;stroke-miterlimit:4;stroke-dasharray:none;fill:none;fill-opacity:1;fill-rule: evenodd"/>
<path id="Shape2DView_nwe0081"  d="M 0.09999999999999 -5.38 L 0.09999999999998974 -4.78 " stroke="#191919" stroke-width="0.35 px" style="stroke-width:0.35;stroke-miterlimit:4;stroke-dasharray:none;fill:none;fill-opacity:1;fill-rule: evenodd"/>
<path id="Shape2DView_nwe0082"  d="M -0.19999999999999993 -12.4 L -0.16641065716900758 -12.4 L -0.13324371981310562 -12.4 L -0.10091628141344981 -12.4 L -0.0698348782647325 -12.4 L -0.040390377045398995 -12.4 L -0.012953059442379955 -12.4 L 0.012132034355964272 -12.4 L 0.03454944474040894 -12.4 L 0.05401725976848526 -12.4 L 0.07029066037072573 -12.4 L 0.0831649990925103 -12.4 L 0.09247837365454703 -12.4 L 0.09811366296797275 -12.4 L 0.09999999999999998 -12.4 " stroke="#191919" stroke-width="0.35 px" style="stroke-width:0.35;stroke-miterlimit:4;stroke-dasharray:none;fill:none;fill-opacity:1;fill-rule: evenodd"/>
<path id="Shape2DView_nwe0083"  d="M -0.19999999999999993 -13.0 L -0.16641065716900758 -13.0 L -0.13324371981310562 -13.0 L -0.10091628141344981 -13.0 L -0.0698348782647325 -13.0 L -0.040390377045398995 -13.0 L -0.012953059442379955 -13.0 L 0.012132034355964272 -13.0 L 0.03454944474040894 -13.0 L 0.05401725976848526 -13.0 L 0.07029066037072573 -13.0 L 0.0831649990925103 -13.0 L 0.09247837365454703 -13.0 L 0.09811366296797275 -13.0 L 0.09999999999999998 -13.0 " stroke="#191919" stroke-width="0.35 px" style="stroke-width:0.35;stroke-miterlimit:4;stroke-dasharray:none;fill:none;fill-opacity:1;fill-rule: evenodd"/>
<path id="Shape2DView_nwe0084"  d="M 0.09999999999999 -13.0 L 0.09999999999998974 -12.4 " stroke="#191919" stroke-width="0.35 px" style="stroke-width:0.35;stroke-miterlimit:4;stroke-dasharray:none;fill:none;fill-opacity:1;fill-rule: evenodd"/>
<path id="Shape2DView_nwe0085"  d="M -0.19999999999999993 -9.86 L -0.16641065716900758 -9.86 L -0.13324371981310562 -9.86 L -0.10091628141344981 -9.86 L -0.0698348782647325 -9.86 L -0.040390377045398995 -9.86 L -0.012953059442379955 -9.86 L 0.012132034355964272 -9.86 L 0.03454944474040894 -9.86 L 0.05401725976848526 -9.86 L 0.07029066037072573 -9.86 L 0.0831649990925103 -9.86 L 0.09247837365454703 -9.86 L 0.09811366296797275 -9.86 L 0.09999999999999998 -9.86 " stroke="#191919" stroke-width="0.35 px" style="stroke-width:0.35;stroke-miterlimit:4;stroke-dasharray:none;fill:none;fill-opacity:1;fill-rule: evenodd"/>
<path id="Shape2DView_nwe0086"  d="M -0.19999999999999993 -10.46 L -0.16641065716900758 -10.46 L -0.13324371981310562 -10.46 L -0.10091628141344981 -10.46 L -0.0698348782647325 -10.46 L -0.040390377045398995 -10.46 L -0.012953059442379955 -10.46 L 0.012132034355964272 -10.46 L 0.03454944474040894 -10.46 L 0.05401725976848526 -10.46 L 0.07029066037072573 -10.46 L 0.0831649990925103 -10.46 L 0.09247837365454703 -10.46 L 0.09811366296797275 -10.46 L 0.09999999999999998 -10.46 " stroke="#191919" stroke-width="0.35 px" style="stroke-width:0.35;stroke-miterlimit:4;stroke-dasharray:none;fill:none;fill-opacity:1;fill-rule: evenodd"/>
<path id="Shape2DView_nwe0087"  d="M 0.09999999999999 -10.46 L 0.09999999999998974 -9.86 " stroke="#191919" stroke-width="0.35 px" style="stroke-width:0.35;stroke-miterlimit:4;stroke-dasharray:none;fill:none;fill-opacity:1;fill-rule: evenodd"/>
<path id="Shape2DView_nwe0088"  d="M -0.19999999999999993 -7.32 L -0.16641065716900758 -7.32 L -0.13324371981310562 -7.32 L -0.10091628141344981 -7.32 L -0.0698348782647325 -7.32 L -0.040390377045398995 -7.32 L -0.012953059442379955 -7.32 L 0.012132034355964272 -7.32 L 0.03454944474040894 -7.32 L 0.05401725976848526 -7.32 L 0.07029066037072573 -7.32 L 0.0831649990925103 -7.32 L 0.09247837365454703 -7.32 L 0.09811366296797275 -7.32 L 0.09999999999999998 -7.32 " stroke="#191919" stroke-width="0.35 px" style="stroke-width:0.35;stroke-miterlimit:4;stroke-dasharray:none;fill:none;fill-opacity:1;fill-rule: evenodd"/>
<path id="Shape2DView_nwe0089"  d="M -0.19999999999999993 -7.92 L -0.16641065716900758 -7.92 L -0.13324371981310562 -7.92 L -0.10091628141344981 -7.92 L -0.0698348782647325 -7.92 L -0.040390377045398995 -7.92 L -0.012953059442379955 -7.92 L 0.012132034355964272 -7.92 L 0.03454944474040894 -7.92 L 0.05401725976848526 -7.92 L 0.07029066037072573 -7.92 L 0.0831649990925103 -7.92 L 0.09247837365454703 -7.92 L 0.09811366296797275 -7.92 L 0.09999999999999998 -7.92 " stroke="#191919" stroke-width="0.35 px" style="stroke-width:0.35;stroke-miterlimit:4;stroke-dasharray:none;fill:none;fill-opacity:1;fill-rule: evenodd"/>
<path id="Shape2DView_nwe0090"  d="M 0.09999999999999 -7.92 L 0.09999999999998974 -7.32 " stroke="#191919" stroke-width="0.35 px" style="stroke-width:0.35;stroke-miterlimit:4;stroke-dasharray:none;fill:none;fill-opacity:1;fill-rule: evenodd"/>
<path id="Shape2DView_nwe0091"  d="M -0.19999999999999993 -14.94 L -0.16641065716900758 -14.94 L -0.13324371981310562 -14.94 L -0.10091628141344981 -14.94 L -0.0698348782647325 -14.94 L -0.040390377045398995 -14.94 L -0.012953059442379955 -14.94 L 0.012132034355964272 -14.94 L 0.03454944474040894 -14.94 L 0.05401725976848526 -14.94 L 0.07029066037072573 -14.94 L 0.0831649990925103 -14.94 L 0.09247837365454703 -14.94 L 0.09811366296797275 -14.94 L 0.09999999999999998 -14.94 " stroke="#191919" stroke-width="0.35 px" style="stroke-width:0.35;stroke-miterlimit:4;stroke-dasharray:none;fill:none;fill-opacity:1;fill-rule: evenodd"/>
<path id="Shape2DView_nwe0092"  d="M -0.19999999999999993 -15.54 L -0.16641065716900758 -15.54 L -0.13324371981310562 -15.54 L -0.10091628141344981 -15.54 L -0.0698348782647325 -15.54 L -0.040390377045398995 -15.54 L -0.012953059442379955 -15.54 L 0.012132034355964272 -15.54 L 0.03454944474040894 -15.54 L 0.05401725976848526 -15.54 L 0.07029066037072573 -15.54 L 0.0831649990925103 -15.54 L 0.09247837365454703 -15.54 L 0.09811366296797275 -15.54 L 0.09999999999999998 -15.54 " stroke="#191919" stroke-width="0.35 px" style="stroke-width:0.35;stroke-miterlimit:4;stroke-dasharray:none;fill:none;fill-opacity:1;fill-rule: evenodd"/>
<path id="Shape2DView_nwe0093"  d="M 0.1 -15.54 L 0.09999999999999974 -14.94 " stroke="#191919" stroke-width="0.35 px" style="stroke-width:0.35;stroke-miterlimit:4;stroke-dasharray:none;fill:none;fill-opacity:1;fill-rule: evenodd"/>
<path id="Shape2DView_nwe0094"  d="M -0.19999999999999993 -20.02 L -0.16641065716900758 -20.02 L -0.13324371981310562 -20.02 L -0.10091628141344981 -20.02 L -0.0698348782647325 -20.02 L -0.040390377045398995 -20.02 L -0.012953059442379955 -20.02 L 0.012132034355964272 -20.02 L 0.03454944474040894 -20.02 L 0.05401725976848526 -20.02 L 0.07029066037072573 -20.02 L 0.0831649990925103 -20.02 L 0.09247837365454703 -20.02 L 0.09811366296797275 -20.02 L 0.09999999999999998 -20.02 " stroke="#191919" stroke-width="0.35 px" style="stroke-width:0.35;stroke-miterlimit:4;stroke-dasharray:none;fill:none;fill-opacity:1;fill-rule: evenodd"/>
<path id="Shape2DView_nwe0095"  d="M -0.19999999999999993 -20.62 L -0.16641065716900758 -20.62 L -0.13324371981310562 -20.62 L -0.10091628141344981 -20.62 L -0.0698348782647325 -20.62 L -0.040390377045398995 -20.62 L -0.012953059442379955 -20.62 L 0.012132034355964272 -20.62 L 0.03454944474040894 -20.62 L 0.05401725976848526 -20.62 L 0.07029066037072573 -20.62 L 0.0831649990925103 -20.62 L 0.09247837365454703 -20.62 L 0.09811366296797275 -20.62 L 0.09999999999999998 -20.62 " stroke="#191919" stroke-width="0.35 px" style="stroke-width:0.35;stroke-miterlimit:4;stroke-dasharray:none;fill:none;fill-opacity:1;fill-rule: evenodd"/>
<path id="Shape2DView_nwe0096"  d="M 0.1 -20.62 L 0.09999999999999974 -20.02 " stroke="#191919" stroke-width="0.35 px" style="stroke-width:0.35;stroke-miterlimit:4;stroke-dasharray:none;fill:none;fill-opacity:1;fill-rule: evenodd"/>
<path id="Shape2DView_nwe0097"  d="M -0.19999999999999993 -17.48 L -0.16641065716900758 -17.48 L -0.13324371981310562 -17.48 L -0.10091628141344981 -17.48 L -0.0698348782647325 -17.48 L -0.040390377045398995 -17.48 L -0.012953059442379955 -17.48 L 0.012132034355964272 -17.48 L 0.03454944474040894 -17.48 L 0.05401725976848526 -17.48 L 0.07029066037072573 -17.48 L 0.0831649990925103 -17.48 L 0.09247837365454703 -17.48 L 0.09811366296797275 -17.48 L 0.09999999999999998 -17.48 " stroke="#191919" stroke-width="0.35 px" style="stroke-width:0.35;stroke-miterlimit:4;stroke-dasharray:none;fill:none;fill-opacity:1;fill-rule: evenodd"/>
<path id="Shape2DView_nwe0098"  d="M -0.19999999999999993 -18.08 L -0.16641065716900758 -18.08 L -0.13324371981310562 -18.08 L -0.10091628141344981 -18.08 L -0.0698348782647325 -18.08 L -0.040390377045398995 -18.08 L -0.012953059442379955 -18.08 L 0.012132034355964272 -18.08 L 0.03454944474040894 -18.08 L 0.05401725976848526 -18.08 L 0.07029066037072573 -18.08 L 0.0831649990925103 -18.08 L 0.09247837365454703 -18.08 L 0.09811366296797275 -18.08 L 0.09999999999999998 -18.08 " stroke="#191919" stroke-width="0.35 px" style="stroke-width:0.35;stroke-miterlimit:4;stroke-dasharray:none;fill:none;fill-opacity:1;fill-rule: evenodd"/>
<path id="Shape2DView_nwe0099"  d="M 0.1 -18.08 L 0.09999999999999974 -17.48 " stroke="#191919" stroke-width="0.35 px" style="stroke-width:0.35;stroke-miterlimit:4;stroke-dasharray:none;fill:none;fill-opacity:1;fill-rule: evenodd"/>
<path id="Shape2DView_nwe0100"  d="M -0.19999999999999993 -50.5 L -0.16641065716900758 -50.5 L -0.13324371981310562 -50.5 L -0.10091628141344981 -50.5 L -0.0698348782647325 -50.5 L -0.040390377045398995 -50.5 L -0.012953059442379955 -50.5 L 0.012132034355964272 -50.5 L 0.03454944474040894 -50.5 L 0.05401725976848526 -50.5 L 0.07029066037072573 -50.5 L 0.0831649990925103 -50.5 L 0.09247837365454703 -50.5 L 0.09811366296797275 -50.5 L 0.09999999999999998 -50.5 " stroke="#191919" stroke-width="0.35 px" style="stroke-width:0.35;stroke-miterlimit:4;stroke-dasharray:none;fill:none;fill-opacity:1;fill-rule: evenodd"/>
<path id="Shape2DView_nwe0101"  d="M -0.19999999999999993 -51.1 L -0.16641065716900758 -51.1 L -0.13324371981310562 -51.1 L -0.10091628141344981 -51.1 L -0.0698348782647325 -51.1 L -0.040390377045398995 -51.1 L -0.012953059442379955 -51.1 L 0.012132034355964272 -51.1 L 0.03454944474040894 -51.1 L 0.05401725976848526 -51.1 L 0.07029066037072573 -51.1 L 0.0831649990925103 -51.1 L 0.09247837365454703 -51.1 L 0.09811366296797275 -51.1 L 0.09999999999999998 -51.1 " stroke="#191919" stroke-width="0.35 px" style="stroke-width:0.35;stroke-miterlimit:4;stroke-dasharray:none;fill:none;fill-opacity:1;fill-rule: evenodd"/>
<path id="Shape2DView_nwe0102"  d="M 0.1 -51.1 L 0.09999999999999974 -50.5 " stroke="#191919" stroke-width="0.35 px" style="stroke-width:0.35;stroke-miterlimit:4;stroke-dasharray:none;fill:none;fill-opacity:1;fill-rule: evenodd"/>
<path id="Shape2DView_nwe0103"  d="M -0.19999999999999993 -47.96 L -0.16641065716900758 -47.96 L -0.13324371981310562 -47.96 L -0.10091628141344981 -47.96 L -0.0698348782647325 -47.96 L -0.040390377045398995 -47.96 L -0.012953059442379955 -47.96 L 0.012132034355964272 -47.96 L 0.03454944474040894 -47.96 L 0.05401725976848526 -47.96 L 0.07029066037072573 -47.96 L 0.0831649990925103 -47.96 L 0.09247837365454703 -47.96 L 0.09811366296797275 -47.96 L 0.09999999999999998 -47.96 " stroke="#191919" stroke-width="0.35 px" style="stroke-width:0.35;stroke-miterlimit:4;stroke-dasharray:none;fill:none;fill-opacity:1;fill-rule: evenodd"/>
<path id="Shape2DView_nwe0104"  d="M -0.19999999999999993 -48.56 L -0.16641065716900758 -48.56 L -0.13324371981310562 -48.56 L -0.10091628141344981 -48.56 L -0.0698348782647325 -48.56 L -0.040390377045398995 -48.56 L -0.012953059442379955 -48.56 L 0.012132034355964272 -48.56 L 0.03454944474040894 -48.56 L 0.05401725976848526 -48.56 L 0.07029066037072573 -48.56 L 0.0831649990925103 -48.56 L 0.09247837365454703 -48.56 L 0.09811366296797275 -48.56 L 0.09999999999999998 -48.56 " stroke="#191919" stroke-width="0.35 px" style="stroke-width:0.35;stroke-miterlimit:4;stroke-dasharray:none;fill:none;fill-opacity:1;fill-rule: evenodd"/>
<path id="Shape2DView_nwe0105"  d="M 0.1 -48.56 L 0.09999999999999974 -47.96 " stroke="#191919" stroke-width="0.35 px" style="stroke-width:0.35;stroke-miterlimit:4;stroke-dasharray:none;fill:none;fill-opacity:1;fill-rule: evenodd"/>
<path id="Shape2DView_nwe0106"  d="M -0.19999999999999993 -45.42 L -0.16641065716900758 -45.42 L -0.13324371981310562 -45.42 L -0.10091628141344981 -45.42 L -0.0698348782647325 -45.42 L -0.040390377045398995 -45.42 L -0.012953059442379955 -45.42 L 0.012132034355964272 -45.42 L 0.03454944474040894 -45.42 L 0.05401725976848526 -45.42 L 0.07029066037072573 -45.42 L 0.0831649990925103 -45.42 L 0.09247837365454703 -45.42 L 0.09811366296797275 -45.42 L 0.09999999999999998 -45.42 " stroke="#191919" stroke-width="0.35 px" style="stroke-width:0.35;stroke-miterlimit:4;stroke-dasharray:none;fill:none;fill-opacity:1;fill-rule: evenodd"/>
<path id="Shape2DView_nwe0107"  d="M -0.19999999999999993 -46.02 L -0.16641065716900758 -46.02 L -0.13324371981310562 -46.02 L -0.10091628141344981 -46.02 L -0.0698348782647325 -46.02 L -0.040390377045398995 -46.02 L -0.012953059442379955 -46.02 L 0.012132034355964272 -46.02 L 0.03454944474040894 -46.02 L 0.05401725976848526 -46.02 L 0.07029066037072573 -46.02 L 0.0831649990925103 -46.02 L 0.09247837365454703 -46.02 L 0.09811366296797275 -46.02 L 0.09999999999999998 -46.02 " stroke="#191919" stroke-width="0.35 px" style="stroke-width:0.35;stroke-miterlimit:4;stroke-dasharray:none;fill:none;fill-opacity:1;fill-rule: evenodd"/>
<path id="Shape2DView_nwe0108"  d="M 0.1 -46.02 L 0.09999999999999974 -45.42 " stroke="#191919" stroke-width="0.35 px" style="stroke-width:0.35;stroke-miterlimit:4;stroke-dasharray:none;fill:none;fill-opacity:1;fill-rule: evenodd"/>
<path id="Shape2DView_nwe0109"  d="M -0.2 -23.16 L -0.2000000000000003 -22.56 " stroke="#191919" stroke-width="0.35 px" style="stroke-width:0.35;stroke-miterlimit:4;stroke-dasharray:none;fill:none;fill-opacity:1;fill-rule: evenodd"/>
<path id="Shape2DView_nwe0110"  d="M -0.2 -25.7 L -0.2000000000000003 -25.1 " stroke="#191919" stroke-width="0.35 px" style="stroke-width:0.35;stroke-miterlimit:4;stroke-dasharray:none;fill:none;fill-opacity:1;fill-rule: evenodd"/>
<path id="Shape2DView_nwe0111"  d="M -0.2 -28.24 L -0.2000000000000003 -27.64 " stroke="#191919" stroke-width="0.35 px" style="stroke-width:0.35;stroke-miterlimit:4;stroke-dasharray:none;fill:none;fill-opacity:1;fill-rule: evenodd"/>
<path id="Shape2DView_nwe0112"  d="M -0.2 -35.86 L -0.2000000000000003 -35.26 " stroke="#191919" stroke-width="0.35 px" style="stroke-width:0.35;stroke-miterlimit:4;stroke-dasharray:none;fill:none;fill-opacity:1;fill-rule: evenodd"/>
<path id="Shape2DView_nwe0113"  d="M -0.2 -33.32 L -0.2000000000000003 -32.72 " stroke="#191919" stroke-width="0.35 px" style="stroke-width:0.35;stroke-miterlimit:4;stroke-dasharray:none;fill:none;fill-opacity:1;fill-rule: evenodd"/>
<path id="Shape2DView_nwe0114"  d="M -0.2 -30.78 L -0.2000000000000003 -30.18 " stroke="#191919" stroke-width="0.35 px" style="stroke-width:0.35;stroke-miterlimit:4;stroke-dasharray:none;fill:none;fill-opacity:1;fill-rule: evenodd"/>
<path id="Shape2DView_nwe0115"  d="M -0.2 -43.48 L -0.2000000000000003 -42.88 " stroke="#191919" stroke-width="0.35 px" style="stroke-width:0.35;stroke-miterlimit:4;stroke-dasharray:none;fill:none;fill-opacity:1;fill-rule: evenodd"/>
<path id="Shape2DView_nwe0116"  d="M -0.2 -40.94 L -0.2000000000000003 -40.34 " stroke="#191919" stroke-width="0.35 px" style="stroke-width:0.35;stroke-miterlimit:4;stroke-dasharray:none;fill:none;fill-opacity:1;fill-rule: evenodd"/>
<path id="Shape2DView_nwe0117"  d="M -0.2 -38.4 L -0.2000000000000003 -37.8 " stroke="#191919" stroke-width="0.35 px" style="stroke-width:0.35;stroke-miterlimit:4;stroke-dasharray:none;fill:none;fill-opacity:1;fill-rule: evenodd"/>
<path id="Shape2DView_nwe0118"  d="M -0.2 -0.3 L -0.2000000000000003 0.3 " stroke="#191919" stroke-width="0.35 px" style="stroke-width:0.35;stroke-miterlimit:4;stroke-dasharray:none;fill:none;fill-opacity:1;fill-rule: evenodd"/>
<path id="Shape2DView_nwe0119"  d="M -0.2 -2.84 L -0.2000000000000003 -2.24 " stroke="#191919" stroke-width="0.35 px" style="stroke-width:0.35;stroke-miterlimit:4;stroke-dasharray:none;fill:none;fill-opacity:1;fill-rule: evenodd"/>
<path id="Shape2DView_nwe0120"  d="M -0.2 -5.38 L -0.2000000000000003 -4.78 " stroke="#191919" stroke-width="0.35 px" style="stroke-width:0.35;stroke-miterlimit:4;stroke-dasharray:none;fill:none;fill-opacity:1;fill-rule: evenodd"/>
<path id="Shape2DView_nwe0121"  d="M -0.2 -13.0 L -0.2000000000000003 -12.4 " stroke="#191919" stroke-width="0.35 px" style="stroke-width:0.35;stroke-miterlimit:4;stroke-dasharray:none;fill:none;fill-opacity:1;fill-rule: evenodd"/>
<path id="Shape2DView_nwe0122"  d="M -0.2 -10.46 L -0.2000000000000003 -9.86 " stroke="#191919" stroke-width="0.35 px" style="stroke-width:0.35;stroke-miterlimit:4;stroke-dasharray:none;fill:none;fill-opacity:1;fill-rule: evenodd"/>
<path id="Shape2DView_nwe0123"  d="M -0.2 -7.92 L -0.2000000000000003 -7.32 " stroke="#191919" stroke-width="0.35 px" style="stroke-width:0.35;stroke-miterlimit:4;stroke-dasharray:none;fill:none;fill-opacity:1;fill-rule: evenodd"/>
<path id="Shape2DView_nwe0124"  d="M -0.2 -15.54 L -0.2000000000000003 -14.94 " stroke="#191919" stroke-width="0.35 px" style="stroke-width:0.35;stroke-miterlimit:4;stroke-dasharray:none;fill:none;fill-opacity:1;fill-rule: evenodd"/>
<path id="Shape2DView_nwe0125"  d="M -0.2 -20.62 L -0.2000000000000003 -20.02 " stroke="#191919" stroke-width="0.35 px" style="stroke-width:0.35;stroke-miterlimit:4;stroke-dasharray:none;fill:none;fill-opacity:1;fill-rule: evenodd"/>
<path id="Shape2DView_nwe0126"  d="M -0.2 -18.08 L -0.2000000000000003 -17.48 " stroke="#191919" stroke-width="0.35 px" style="stroke-width:0.35;stroke-miterlimit:4;stroke-dasharray:none;fill:none;fill-opacity:1;fill-rule: evenodd"/>
<path id="Shape2DView_nwe0127"  d="M -0.2 -51.1 L -0.2000000000000003 -50.5 " stroke="#191919" stroke-width="0.35 px" style="stroke-width:0.35;stroke-miterlimit:4;stroke-dasharray:none;fill:none;fill-opacity:1;fill-rule: evenodd"/>
<path id="Shape2DView_nwe0128"  d="M -0.2 -48.56 L -0.2000000000000003 -47.96 " stroke="#191919" stroke-width="0.35 px" style="stroke-width:0.35;stroke-miterlimit:4;stroke-dasharray:none;fill:none;fill-opacity:1;fill-rule: evenodd"/>
<path id="Shape2DView_nwe0129"  d="M -0.2 -46.02 L -0.2000000000000003 -45.42 " stroke="#191919" stroke-width="0.35 px" style="stroke-width:0.35;stroke-miterlimit:4;stroke-dasharray:none;fill:none;fill-opacity:1;fill-rule: evenodd"/>
<title>b'Shape2DView'</title>
</g>
<g id="Rectangle" transform="translate(10.140300,1.380300) scale(1,-1)">
<rect fill="#ff0000" id="origin" width="1" height="1" x="0" y="0" />
<title>b'Rectangle'</title>
</g>
</svg>