<?xml version="1.0"?>
<!DOCTYPE svg PUBLIC "-//W3C//DTD SVG 1.1//EN" "http://www.w3.org/Graphics/SVG/1.1/DTD/svg11.dtd">
<svg width="11.250600000000006mm" height="12.920600000000004mm" viewBox="0 0 11.250600000000006 12.920600000000004" xmlns="http://www.w3.org/2000/svg" version="1.1">
<g id="Shape2DView" transform="translate(10.140300,1.380300) scale(1,-1)">
<path id="Shape2DView_nwe0000"  d="M -1.52 -11.43 L -10.03 -11.430000000000003 " stroke="#191919" stroke-width="0.35 px" style="stroke-width:0.35;stroke-miterlimit:4;stroke-dasharray:none;fill:none;fill-opacity:1;fill-rule: evenodd"/>
<path id="Shape2DView_nwe0001"  d="M -10.03 -11.43 L -10.030000000000005 1.2699999999999996 " stroke="#191919" stroke-width="0.35 px" style="stroke-width:0.35;stroke-miterlimit:4;stroke-dasharray:none;fill:none;fill-opacity:1;fill-rule: evenodd"/>
<path id="Shape2DView_nwe0002"  d="M -1.52 1.27 L -10.03 1.2699999999999962 " stroke="#191919" stroke-width="0.35 px" style="stroke-width:0.35;stroke-miterlimit:4;stroke-dasharray:none;fill:none;fill-opacity:1;fill-rule: evenodd"/>
<path id="Shape2DView_nwe0003"  d="M -1.52 -11.43 L -1.5200000000000056 1.2699999999999996 " stroke="#191919" stroke-width="0.35 px" style="stroke-width:0.35;stroke-miterlimit:4;stroke-dasharray:none;fill:none;fill-opacity:1;fill-rule: evenodd"/>
<path id="Shape2DView_nwe0004"  d="M -0.2 -2.24 L -1.520000000000004 -2.2400000000000007 " stroke="#191919" stroke-width="0.35 px" style="stroke-width:0.35;stroke-miterlimit:4;stroke-dasharray:none;fill:none;fill-opacity:1;fill-rule: evenodd"/>
<path id="Shape2DView_nwe0005"  d="M -1.5200000000000038 -2.84 L -0.19999999999999996 -2.839999999999999 " stroke="#191919" stroke-width="0.35 px" style="stroke-width:0.35;stroke-miterlimit:4;stroke-dasharray:none;fill:none;fill-opacity:1;fill-rule: evenodd"/>
<path id="Shape2DView_nwe0006"  d="M -0.2 -4.78 L -1.520000000000003 -4.780000000000001 " stroke="#191919" stroke-width="0.35 px" style="stroke-width:0.35;stroke-miterlimit:4;stroke-dasharray:none;fill:none;fill-opacity:1;fill-rule: evenodd"/>
<path id="Shape2DView_nwe0007"  d="M -1.5200000000000027 -5.38 L -0.19999999999999996 -5.379999999999999 " stroke="#191919" stroke-width="0.35 px" style="stroke-width:0.35;stroke-miterlimit:4;stroke-dasharray:none;fill:none;fill-opacity:1;fill-rule: evenodd"/>
<path id="Shape2DView_nwe0008"  d="M -0.2 -7.32 L -1.5200000000000018 -7.320000000000001 " stroke="#191919" stroke-width="0.35 px" style="stroke-width:0.35;stroke-miterlimit:4;stroke-dasharray:none;fill:none;fill-opacity:1;fill-rule: evenodd"/>
<path id="Shape2DView_nwe0009"  d="M -1.5200000000000016 -7.92 L -0.19999999999999996 -7.919999999999999 " stroke="#191919" stroke-width="0.35 px" style="stroke-width:0.35;stroke-miterlimit:4;stroke-dasharray:none;fill:none;fill-opacity:1;fill-rule: evenodd"/>
<path id="Shape2DView_nwe0010"  d="M -0.2 0.3 L -1.5200000000000051 0.2999999999999994 " stroke="#191919" stroke-width="0.35 px" style="stroke-width:0.35;stroke-miterlimit:4;stroke-dasharray:none;fill:none;fill-opacity:1;fill-rule: evenodd"/>
<path id="Shape2DView_nwe0011"  d="M -1.520000000000005 -0.2999999999999999 L -0.19999999999999996 -0.2999999999999993 " stroke="#191919" stroke-width="0.35 px" style="stroke-width:0.35;stroke-miterlimit:4;stroke-dasharray:none;fill:none;fill-opacity:1;fill-rule: evenodd"/>
<path id="Shape2DView_nwe0012"  d="M -0.2 -9.86 L -1.5200000000000007 -9.86 " stroke="#191919" stroke-width="0.35 px" style="stroke-width:0.35;stroke-miterlimit:4;stroke-dasharray:none;fill:none;fill-opacity:1;fill-rule: evenodd"/>
<path id="Shape2DView_nwe0013"  d="M -1.5200000000000005 -10.46 L -0.19999999999999996 -10.46 " stroke="#191919" stroke-width="0.35 px" style="stroke-width:0.35;stroke-miterlimit:4;stroke-dasharray:none;fill:none;fill-opacity:1;fill-rule: evenodd"/>
<path id="Shape2DView_nwe0014"  d="M -0.19999999999999993 -2.24 L -0.16641065716900758 -2.24 L -0.13324371981310562 -2.24 L -0.10091628141344981 -2.24 L -0.0698348782647325 -2.24 L -0.040390377045398995 -2.24 L -0.012953059442379955 -2.24 L 0.012132034355964272 -2.24 L 0.03454944474040894 -2.24 L 0.05401725976848526 -2.24 L 0.07029066037072573 -2.24 L 0.0831649990925103 -2.24 L 0.09247837365454703 -2.24 L 0.09811366296797275 -2.24 L 0.09999999999999998 -2.24 " stroke="#191919" stroke-width="0.35 px" style="stroke-width:0.35;stroke-miterlimit:4;stroke-dasharray:none;fill:none;fill-opacity:1;fill-rule: evenodd"/>
<path id="Shape2DView_nwe0015"  d="M -0.19999999999999993 -2.84 L -0.16641065716900758 -2.84 L -0.13324371981310562 -2.84 L -0.10091628141344981 -2.84 L -0.0698348782647325 -2.84 L -0.040390377045398995 -2.84 L -0.012953059442379955 -2.84 L 0.012132034355964272 -2.84 L 0.03454944474040894 -2.84 L 0.05401725976848526 -2.84 L 0.07029066037072573 -2.84 L 0.0831649990925103 -2.84 L 0.09247837365454703 -2.84 L 0.09811366296797275 -2.84 L 0.09999999999999998 -2.84 " stroke="#191919" stroke-width="0.35 px" style="stroke-width:0.35;stroke-miterlimit:4;stroke-dasharray:none;fill:none;fill-opacity:1;fill-rule: evenodd"/>
<path id="Shape2DView_nwe0016"  d="M 0.1 -2.84 L 0.09999999999999974 -2.24 " stroke="#191919" stroke-width="0.35 px" style="stroke-width:0.35;stroke-miterlimit:4;stroke-dasharray:none;fill:none;fill-opacity:1;fill-rule: evenodd"/>
<path id="Shape2DView_nwe0017"  d="M -0.19999999999999993 -4.78 L -0.16641065716900758 -4.78 L -0.13324371981310562 -4.78 L -0.10091628141344981 -4.78 L -0.0698348782647325 -4.78 L -0.040390377045398995 -4.78 L -0.012953059442379955 -4.78 L 0.012132034355964272 -4.78 L 0.03454944474040894 -4.78 L 0.05401725976848526 -4.78 L 0.07029066037072573 -4.78 L 0.0831649990925103 -4.78 L 0.09247837365454703 -4.78 L 0.09811366296797275 -4.78 L 0.09999999999999998 -4.78 " stroke="#191919" stroke-width="0.35 px" style="stroke-width:0.35;stroke-miterlimit:4;stroke-dasharray:none;fill:none;fill-opacity:1;fill-rule: evenodd"/>
<path id="Shape2DView_nwe0018"  d="M -0.19999999999999993 -5.38 L -0.16641065716900758 -5.38 L -0.13324371981310562 -5.38 L -0.10091628141344981 -5.38 L -0.0698348782647325 -5.38 L -0.040390377045398995 -5.38 L -0.012953059442379955 -5.38 L 0.012132034355964272 -5.38 L 0.03454944474040894 -5.38 L 0.05401725976848526 -5.38 L 0.07029066037072573 -5.38 L 0.0831649990925103 -5.38 L 0.09247837365454703 -5.38 L 0.09811366296797275 -5.38 L 0.09999999999999998 -5.38 " stroke="#191919" stroke-width="0.35 px" style="stroke-width:0.35;stroke-miterlimit:4;stroke-dasharray:none;fill:none;fill-opacity:1;fill-rule: evenodd"/>
<path id="Shape2DView_nwe0019"  d="M 0.1 -5.38 L 0.09999999999999974 -4.78 " stroke="#191919" stroke-width="0.35 px" style="stroke-width:0.35;stroke-miterlimit:4;stroke-dasharray:none;fill:none;fill-opacity:1;fill-rule: evenodd"/>
<path id="Shape2DView_nwe0020"  d="M -0.19999999999999993 -7.32 L -0.16641065716900758 -7.32 L -0.13324371981310562 -7.32 L -0.10091628141344981 -7.32 L -0.0698348782647325 -7.32 L -0.040390377045398995 -7.32 L -0.012953059442379955 -7.32 L 0.012132034355964272 -7.32 L 0.03454944474040894 -7.32 L 0.05401725976848526 -7.32 L 0.07029066037072573 -7.32 L 0.0831649990925103 -7.32 L 0.09247837365454703 -7.32 L 0.09811366296797275 -7.32 L 0.09999999999999998 -7.32 " stroke="#191919" stroke-width="0.35 px" style="stroke-width:0.35;stroke-miterlimit:4;stroke-dasharray:none;fill:none;fill-opacity:1;fill-rule: evenodd"/>
<path id="Shape2DView_nwe0021"  d="M -0.19999999999999993 -7.92 L -0.16641065716900758 -7.92 L -0.13324371981310562 -7.92 L -0.10091628141344981 -7.92 L -0.0698348782647325 -7.92 L -0.040390377045398995 -7.92 L -0.012953059442379955 -7.92 L 0.012132034355964272 -7.92 L 0.03454944474040894 -7.92 L 0.05401725976848526 -7.92 L 0.07029066037072573 -7.92 L 0.0831649990925103 -7.92 L 0.09247837365454703 -7.92 L 0.09811366296797275 -7.92 L 0.09999999999999998 -7.92 " stroke="#191919" stroke-width="0.35 px" style="stroke-width:0.35;stroke-miterlimit:4;stroke-dasharray:none;fill:none;fill-opacity:1;fill-rule: evenodd"/>
<path id="Shape2DView_nwe0022"  d="M 0.1 -7.92 L 0.09999999999999974 -7.32 " stroke="#191919" stroke-width="0.35 px" style="stroke-width:0.35;stroke-miterlimit:4;stroke-dasharray:none;fill:none;fill-opacity:1;fill-rule: evenodd"/>
<path id="Shape2DView_nwe0023"  d="M -0.19999999999999993 0.3 L -0.16641065716900758 0.3 L -0.13324371981310562 0.30000000000000004 L -0.10091628141344981 0.30000000000000004 L -0.0698348782647325 0.30000000000000004 L -0.040390377045398995 0.30000000000000004 L -0.012953059442379955 0.30000000000000004 L 0.012132034355964272 0.3000000000000001 L 0.03454944474040894 0.3000000000000001 L 0.05401725976848526 0.3000000000000001 L 0.07029066037072573 0.3000000000000001 L 0.0831649990925103 0.3000000000000001 L 0.09247837365454703 0.3000000000000001 L 0.09811366296797275 0.3000000000000001 L 0.09999999999999998 0.3000000000000001 " stroke="#191919" stroke-width="0.35 px" style="stroke-width:0.35;stroke-miterlimit:4;stroke-dasharray:none;fill:none;fill-opacity:1;fill-rule: evenodd"/>
<path id="Shape2DView_nwe0024"  d="M -0.19999999999999993 -0.3 L -0.16641065716900758 -0.3 L -0.13324371981310562 -0.29999999999999993 L -0.10091628141344981 -0.29999999999999993 L -0.0698348782647325 -0.29999999999999993 L -0.040390377045398995 -0.29999999999999993 L -0.012953059442379955 -0.29999999999999993 L 0.012132034355964272 -0.2999999999999999 L 0.03454944474040894 -0.2999999999999999 L 0.05401725976848526 -0.2999999999999999 L 0.07029066037072573 -0.2999999999999999 L 0.0831649990925103 -0.2999999999999999 L 0.09247837365454703 -0.2999999999999999 L 0.09811366296797275 -0.2999999999999999 L 0.09999999999999998 -0.2999999999999999 " stroke="#191919" stroke-width="0.35 px" style="stroke-width:0.35;stroke-miterlimit:4;stroke-dasharray:none;fill:none;fill-opacity:1;fill-rule: evenodd"/>
<path id="Shape2DView_nwe0025"  d="M 0.1 -0.3 L 0.09999999999999974 0.3 " stroke="#191919" stroke-width="0.35 px" style="stroke-width:0.35;stroke-miterlimit:4;stroke-dasharray:none;fill:none;fill-opacity:1;fill-rule: evenodd"/>
<path id="Shape2DView_nwe0026"  d="M -0.19999999999999993 -9.86 L -0.16641065716900758 -9.86 L -0.13324371981310562 -9.86 L -0.10091628141344981 -9.86 L -0.0698348782647325 -9.86 L -0.040390377045398995 -9.86 L -0.012953059442379955 -9.86 L 0.012132034355964272 -9.86 L 0.03454944474040894 -9.86 L 0.05401725976848526 -9.86 L 0.07029066037072573 -9.86 L 0.0831649990925103 -9.86 L 0.09247837365454703 -9.86 L 0.09811366296797275 -9.86 L 0.09999999999999998 -9.86 " stroke="#191919" stroke-width="0.35 px" style="stroke-width:0.35;stroke-miterlimit:4;stroke-dasharray:none;fill:none;fill-opacity:1;fill-rule: evenodd"/>
<path id="Shape2DView_nwe0027"  d="M -0.19999999999999993 -10.46 L -0.16641065716900758 -10.46 L -0.13324371981310562 -10.46 L -0.10091628141344981 -10.46 L -0.0698348782647325 -10.46 L -0.040390377045398995 -10.46 L -0.012953059442379955 -10.46 L 0.012132034355964272 -10.46 L 0.03454944474040894 -10.46 L 0.05401725976848526 -10.46 L 0.07029066037072573 -10.46 L 0.0831649990925103 -10.46 L 0.09247837365454703 -10.46 L 0.09811366296797275 -10.46 L 0.09999999999999998 -10.46 " stroke="#191919" stroke-width="0.35 px" style="stroke-width:0.35;stroke-miterlimit:4;stroke-dasharray:none;fill:none;fill-opacity:1;fill-rule: evenodd"/>
<path id="Shape2DView_nwe0028"  d="M 0.1 -10.46 L 0.09999999999999974 -9.86 " stroke="#191919" stroke-width="0.35 px" style="stroke-width:0.35;stroke-miterlimit:4;stroke-dasharray:none;fill:none;fill-opacity:1;fill-rule: evenodd"/>
<path id="Shape2DView_nwe0029"  d="M -0.2 -2.84 L -0.2000000000000003 -2.24 " stroke="#191919" stroke-width="0.35 px" style="stroke-width:0.35;stroke-miterlimit:4;stroke-dasharray:none;fill:none;fill-opacity:1;fill-rule: evenodd"/>
<path id="Shape2DView_nwe0030"  d="M -0.2 -5.38 L -0.2000000000000003 -4.78 " stroke="#191919" stroke-width="0.35 px" style="stroke-width:0.35;stroke-miterlimit:4;stroke-dasharray:none;fill:none;fill-opacity:1;fill-rule: evenodd"/>
<path id="Shape2DView_nwe0031"  d="M -0.2 -7.92 L -0.2000000000000003 -7.32 " stroke="#191919" stroke-width="0.35 px" style="stroke-width:0.35;stroke-miterlimit:4;stroke-dasharray:none;fill:none;fill-opacity:1;fill-rule: evenodd"/>
<path id="Shape2DView_nwe0032"  d="M -0.2 -0.3 L -0.2000000000000003 0.3 " stroke="#191919" stroke-width="0.35 px" style="stroke-width:0.35;stroke-miterlimit:4;stroke-dasharray:none;fill:none;fill-opacity:1;fill-rule: evenodd"/>
<path id="Shape2DView_nwe0033"  d="M -0.2 -10.46 L -0.2000000000000003 -9.86 " stroke="#191919" stroke-width="0.35 px" style="stroke-width:0.35;stroke-miterlimit:4;stroke-dasharray:none;fill:none;fill-opacity:1;fill-rule: evenodd"/>
<title>b'Shape2DView'</title>
</g>
<g id="Rectangle" transform="translate(10.140300,1.380300) scale(1,-1)">
<rect fill="#ff0000" id="origin" width="1" height="1" x="0" y="0" />
<title>b'Rectangle'</title>
</g>
</svg>