<?xml version="1.0"?>
<!DOCTYPE svg PUBLIC "-//W3C//DTD SVG 1.1//EN" "http://www.w3.org/Graphics/SVG/1.1/DTD/svg11.dtd">
<svg width="2.5479932493682327mm" height="1.2999606519484268mm" viewBox="0 0 2.5479932493682327 1.2999606519484268" xmlns="http://www.w3.org/2000/svg" version="1.1">
<g id="Shape2DView" transform="translate(1.274836,1.024980) scale(1,-1)">
<path id="Shape2DView_nwe0000"  d="M -0.999999999998577 0.25000000000003114 C -1.322573972322086 0.26528833133934276 -1.322573972321645 -0.2652883313398785 -0.99999999999816 -0.2500000000000296 " stroke="#191919" stroke-width="0.35 px" style="stroke-width:0.35;stroke-miterlimit:4;stroke-dasharray:none;fill:none;fill-opacity:1;fill-rule: evenodd"/>
<path id="Shape2DView_nwe0001"  d="M -0.99999999999816 -0.2500000000000297 L -0.9998572418080188 -0.24999995924022356 " stroke="#191919" stroke-width="0.35 px" style="stroke-width:0.35;stroke-miterlimit:4;stroke-dasharray:none;fill:none;fill-opacity:1;fill-rule: evenodd"/>
<path id="Shape2DView_nwe0002"  d="M 0.9998506955449173 -0.24999995541635367 A 0.25 0.25 0 0 1 1 -0.25" stroke="#191919" stroke-width="0.35 px" style="stroke-width:0.35;stroke-miterlimit:4;stroke-dasharray:none;fill:none;fill-opacity:1;fill-rule: evenodd"/>
<path id="Shape2DView_nwe0003"  d="M 0.9999999999999973 -0.24999999999999825 A 0.25 0.25 0 0 1 1 0.25" stroke="#191919" stroke-width="0.35 px" style="stroke-width:0.35;stroke-miterlimit:4;stroke-dasharray:none;fill:none;fill-opacity:1;fill-rule: evenodd"/>
<path id="Shape2DView_nwe0004"  d="M -0.9999999999979752 -0.25000000000003025 C -0.9541389829579805 -0.25000000000002454 -0.9082779659179872 -0.25000000000001865 -0.8624169488779931 -0.2500000000000131 C -0.8134523798323056 -0.24999999999999872 -0.31268615707962993 -0.24999999999998876 -0.2500000002126492 -0.25000000000002986 " stroke="#191919" stroke-width="0.35 px" style="stroke-width:0.35;stroke-miterlimit:4;stroke-dasharray:none;fill:none;fill-opacity:1;fill-rule: evenodd"/>
<path id="Shape2DView_nwe0005"  d="M -0.9999999999999091 -0.24999999999999828 C -1.0886650515335847 -0.24999999999999795 1.0345647446315782 -0.2499999999999979 0.9999999999999958 -0.24999999999999825 " stroke="#191919" stroke-width="0.35 px" style="stroke-width:0.35;stroke-miterlimit:4;stroke-dasharray:none;fill:none;fill-opacity:1;fill-rule: evenodd"/>
<path id="Shape2DView_nwe0006"  d="M 1.0000000000000087 0.2500000000000018 C 1.061093531522364 0.250000000000002 -1.0679982603878135 0.2500000000000019 -1.0000000000000462 0.2500000000000018 " stroke="#191919" stroke-width="0.35 px" style="stroke-width:0.35;stroke-miterlimit:4;stroke-dasharray:none;fill:none;fill-opacity:1;fill-rule: evenodd"/>
<path id="Shape2DView_nwe0007"  d="M 0.24999999973467082 -0.25000000000003003 C 0.317765215662805 -0.24999999999998895 0.8235456096907091 -0.250000000000001 0.868557247672362 -0.2500000000000076 C 0.9123714984240844 -0.25000000000001515 0.956185749175805 -0.25000000000002226 0.9999999999275275 -0.25000000000002964 " stroke="#191919" stroke-width="0.35 px" style="stroke-width:0.35;stroke-miterlimit:4;stroke-dasharray:none;fill:none;fill-opacity:1;fill-rule: evenodd"/>
<path id="Shape2DView_nwe0008"  d="M 0.9999991483151703 0.24999999999858033 L 0.9999065078654189 0.24999999974725245 " stroke="#191919" stroke-width="0.35 px" style="stroke-width:0.35;stroke-miterlimit:4;stroke-dasharray:none;fill:none;fill-opacity:1;fill-rule: evenodd"/>
<path id="Shape2DView_nwe0009"  d="M 0.9999999963160584 0.250000000000031 L 0.9954615367875919 0.25000000000001277 " stroke="#191919" stroke-width="0.35 px" style="stroke-width:0.35;stroke-miterlimit:4;stroke-dasharray:none;fill:none;fill-opacity:1;fill-rule: evenodd"/>
<title>b'Shape2DView'</title>
</g>
<g id="Rectangle" transform="translate(1.274836,1.024980) scale(1,-1)">
<rect fill="#ff0000" id="origin" width="1" height="1" x="0" y="0" />
<title>b'Rectangle'</title>
</g>
</svg>