<?xml version="1.0"?>
<!DOCTYPE svg PUBLIC "-//W3C//DTD SVG 1.1//EN" "http://www.w3.org/Graphics/SVG/1.1/DTD/svg11.dtd">
<svg width="3.055038681445341mm" height="3.0574697137587354mm" viewBox="0 0 3.055038681445341 3.0574697137587354" xmlns="http://www.w3.org/2000/svg" version="1.1">
<g id="Shape2DView" transform="translate(1.525087,1.528735) scale(1,-1)">
<circle cx="0.0" cy="0.0" r="1.5" stroke="#191919" stroke-width="0.35 px" style="stroke-width:0.35;stroke-miterlimit:4;stroke-dasharray:none;fill:none"/>
<path id="Shape2DView_nwe0001"  d="M 0.7071067811865441 0.2500000000000095 A 0.75 0.75 0 0 1 -0.707107 0.25" stroke="#191919" stroke-width="0.35 px" style="stroke-width:0.35;stroke-miterlimit:4;stroke-dasharray:none;fill:none;fill-opacity:1;fill-rule: evenodd"/>
<path id="Shape2DView_nwe0002"  d="M -0.707106781186542 -0.25000000000001554 A 0.75 0.75 0 0 1 0.707107 -0.25" stroke="#191919" stroke-width="0.35 px" style="stroke-width:0.35;stroke-miterlimit:4;stroke-dasharray:none;fill:none;fill-opacity:1;fill-rule: evenodd"/>
<path id="Shape2DView_nwe0003"  d="M -1.0199999996786064 0.2500000000000311 C -1.34257397138448 0.2652883317775185 -1.3425739730450357 -0.2652883297539746 -1.0200000012496708 -0.2500000000000297 " stroke="#191919" stroke-width="0.35 px" style="stroke-width:0.35;stroke-miterlimit:4;stroke-dasharray:none;fill:none;fill-opacity:1;fill-rule: evenodd"/>
<path id="Shape2DView_nwe0004"  d="M -1.020000001249671 -0.2500000000000297 L -1.0198599216515065 -0.24999996075613923 " stroke="#191919" stroke-width="0.35 px" style="stroke-width:0.35;stroke-miterlimit:4;stroke-dasharray:none;fill:none;fill-opacity:1;fill-rule: evenodd"/>
<path id="Shape2DView_nwe0005"  d="M 1.0199999257132122 -0.2499999999999872 A 0.25 0.25 90 1 1 1.02 0.25" stroke="#191919" stroke-width="0.35 px" style="stroke-width:0.35;stroke-miterlimit:4;stroke-dasharray:none;fill:none;fill-opacity:1;fill-rule: evenodd"/>
<path id="Shape2DView_nwe0006"  d="M 0.49999988794257666 0.2500000000000059 L 0.49999999999992806 0.250000000000031 " stroke="#191919" stroke-width="0.35 px" style="stroke-width:0.35;stroke-miterlimit:4;stroke-dasharray:none;fill:none;fill-opacity:1;fill-rule: evenodd"/>
<path id="Shape2DView_nwe0007"  d="M -1.019683865550023 0.24999980011797038 C -1.3425472084740133 0.2656822411900827 -1.342710560434187 -0.2654833681814451 -1.0198382431700852 -0.24999994766948025 " stroke="#191919" stroke-width="0.35 px" style="stroke-width:0.35;stroke-miterlimit:4;stroke-dasharray:none;fill:none;fill-opacity:1;fill-rule: evenodd"/>
<path id="Shape2DView_nwe0008"  d="M 0.7700000000000014 1.785453901918946e-15 A 0.25 0.24999999999999867 89.99999987856539 0 0 1.0199999994701416 -0.24999999999999825 A 0.25 0.24999999999999867 89.99999987856539 0 0 0.7700000000000014 1.785453901918946e-15 " stroke="#191919" stroke-width="0.35 px" style="stroke-width:0.35;stroke-miterlimit:4;stroke-dasharray:none;fill:none;fill-opacity:1;fill-rule: evenodd"/>
<path id="Shape2DView_nwe0009"  d="M -1.0200000020013182 -0.2500000000000298 C -1.0717576157528055 -0.25000000000000155 -0.4482418491927766 -0.2500000000000221 -0.500000000004382 -0.25000000000003025 " stroke="#191919" stroke-width="0.35 px" style="stroke-width:0.35;stroke-miterlimit:4;stroke-dasharray:none;fill:none;fill-opacity:1;fill-rule: evenodd"/>
<path id="Shape2DView_nwe0010"  d="M -0.4999999999978051 0.25000000000003103 C -0.44824291003764444 0.2500000000000558 -1.0717570472611762 0.24999999999998174 -1.019999999482547 0.25000000000003114 " stroke="#191919" stroke-width="0.35 px" style="stroke-width:0.35;stroke-miterlimit:4;stroke-dasharray:none;fill:none;fill-opacity:1;fill-rule: evenodd"/>
<path id="Shape2DView_nwe0011"  d="M -1.0199999993385007 -0.24999999999999828 C -1.1104384046264437 -0.24999999999999786 1.0552559649304305 -0.249999999999998 1.0199999999999954 -0.24999999999999825 " stroke="#191919" stroke-width="0.35 px" style="stroke-width:0.35;stroke-miterlimit:4;stroke-dasharray:none;fill:none;fill-opacity:1;fill-rule: evenodd"/>
<path id="Shape2DView_nwe0012"  d="M 1.0200000000000085 0.2500000000000018 C 1.0823010373659765 0.2500000000000021 -1.0894668112596106 0.25000000000000194 -1.020000000661492 0.2500000000000018 " stroke="#191919" stroke-width="0.35 px" style="stroke-width:0.35;stroke-miterlimit:4;stroke-dasharray:none;fill:none;fill-opacity:1;fill-rule: evenodd"/>
<path id="Shape2DView_nwe0013"  d="M 0.4999999999997772 -0.25000000000002964 C 0.4482412715971935 -0.2500000000000061 1.0717580672226772 -0.2500000000000303 1.0200000000676337 -0.2500000000000303 " stroke="#191919" stroke-width="0.35 px" style="stroke-width:0.35;stroke-miterlimit:4;stroke-dasharray:none;fill:none;fill-opacity:1;fill-rule: evenodd"/>
<title>b'Shape2DView'</title>
</g>
<g id="Rectangle" transform="translate(1.525087,1.528735) scale(1,-1)">
<rect fill="#ff0000" id="origin" width="1" height="1" x="0" y="0" />
<title>b'Rectangle'</title>
</g>
</svg>