<?xml version="1.0"?>
<!DOCTYPE svg PUBLIC "-//W3C//DTD SVG 1.1//EN" "http://www.w3.org/Graphics/SVG/1.1/DTD/svg11.dtd">
<svg width="6.12mm" height="3.62mm" viewBox="0 0 6.12 3.62" xmlns="http://www.w3.org/2000/svg" version="1.1">
<g id="Shape2DView" transform="translate(3.060000,1.810000) scale(1,-1)">
<path id="Shape2DView_nwe0000"  d="M 2.65 -1.205555555556 L 2.65 1.2055555555560002 " stroke="#191919" stroke-width="0.35 px" style="stroke-width:0.35;stroke-miterlimit:4;stroke-dasharray:none;fill:none;fill-opacity:1;fill-rule: evenodd"/>
<path id="Shape2DView_nwe0001"  d="M 2.65 1.205555555556 A 0.194444 0.194444 0 0 1 2.45556 1.4" stroke="#191919" stroke-width="0.35 px" style="stroke-width:0.35;stroke-miterlimit:4;stroke-dasharray:none;fill:none;fill-opacity:1;fill-rule: evenodd"/>
<path id="Shape2DView_nwe0002"  d="M 2.455555555556 1.4 L -2.4555555555560002 1.4 " stroke="#191919" stroke-width="0.35 px" style="stroke-width:0.35;stroke-miterlimit:4;stroke-dasharray:none;fill:none;fill-opacity:1;fill-rule: evenodd"/>
<path id="Shape2DView_nwe0003"  d="M -2.65 1.205555555556 A 0.194444 0.194444 0 0 0 -2.45556 1.4" stroke="#191919" stroke-width="0.35 px" style="stroke-width:0.35;stroke-miterlimit:4;stroke-dasharray:none;fill:none;fill-opacity:1;fill-rule: evenodd"/>
<path id="Shape2DView_nwe0004"  d="M -2.65 1.205555555556 L -2.65 -1.2055555555560002 " stroke="#191919" stroke-width="0.35 px" style="stroke-width:0.35;stroke-miterlimit:4;stroke-dasharray:none;fill:none;fill-opacity:1;fill-rule: evenodd"/>
<path id="Shape2DView_nwe0005"  d="M -2.455555555556 -1.4 A 0.194444 0.194444 0 0 0 -2.65 -1.20556" stroke="#191919" stroke-width="0.35 px" style="stroke-width:0.35;stroke-miterlimit:4;stroke-dasharray:none;fill:none;fill-opacity:1;fill-rule: evenodd"/>
<path id="Shape2DView_nwe0006"  d="M -2.455555555556 -1.4 L 2.4555555555560002 -1.4 " stroke="#191919" stroke-width="0.35 px" style="stroke-width:0.35;stroke-miterlimit:4;stroke-dasharray:none;fill:none;fill-opacity:1;fill-rule: evenodd"/>
<path id="Shape2DView_nwe0007"  d="M 2.455555555556 -1.4 A 0.194444 0.194444 0 0 1 2.65 -1.20556" stroke="#191919" stroke-width="0.35 px" style="stroke-width:0.35;stroke-miterlimit:4;stroke-dasharray:none;fill:none;fill-opacity:1;fill-rule: evenodd"/>
<path id="Shape2DView_nwe0008"  d="M 2.7375 1.195833333333 A 0.291667 0.291667 0 0 1 2.44583 1.4875" stroke="#191919" stroke-width="0.35 px" style="stroke-width:0.35;stroke-miterlimit:4;stroke-dasharray:none;fill:none;fill-opacity:1;fill-rule: evenodd"/>
<path id="Shape2DView_nwe0009"  d="M 2.7375 -1.195833333333 L 2.7375 1.195833333333 " stroke="#191919" stroke-width="0.35 px" style="stroke-width:0.35;stroke-miterlimit:4;stroke-dasharray:none;fill:none;fill-opacity:1;fill-rule: evenodd"/>
<path id="Shape2DView_nwe0010"  d="M 2.445833333333 1.4875 L -2.445833333333 1.4875 " stroke="#191919" stroke-width="0.35 px" style="stroke-width:0.35;stroke-miterlimit:4;stroke-dasharray:none;fill:none;fill-opacity:1;fill-rule: evenodd"/>
<path id="Shape2DView_nwe0011"  d="M 2.4458333333330002 -1.4875 A 0.291667 0.291667 0 0 1 2.7375 -1.19583" stroke="#191919" stroke-width="0.35 px" style="stroke-width:0.35;stroke-miterlimit:4;stroke-dasharray:none;fill:none;fill-opacity:1;fill-rule: evenodd"/>
<path id="Shape2DView_nwe0012"  d="M -2.4458333333330002 1.4875 A 0.291667 0.291667 0 0 1 -2.7375 1.19583" stroke="#191919" stroke-width="0.35 px" style="stroke-width:0.35;stroke-miterlimit:4;stroke-dasharray:none;fill:none;fill-opacity:1;fill-rule: evenodd"/>
<path id="Shape2DView_nwe0013"  d="M -2.445833333333 -1.4875 L 2.445833333333 -1.4875 " stroke="#191919" stroke-width="0.35 px" style="stroke-width:0.35;stroke-miterlimit:4;stroke-dasharray:none;fill:none;fill-opacity:1;fill-rule: evenodd"/>
<path id="Shape2DView_nwe0014"  d="M -2.7375 1.195833333333 L -2.7375 -1.195833333333 " stroke="#191919" stroke-width="0.35 px" style="stroke-width:0.35;stroke-miterlimit:4;stroke-dasharray:none;fill:none;fill-opacity:1;fill-rule: evenodd"/>
<path id="Shape2DView_nwe0015"  d="M -2.7375 -1.195833333333 A 0.291667 0.291667 0 0 1 -2.44583 -1.4875" stroke="#191919" stroke-width="0.35 px" style="stroke-width:0.35;stroke-miterlimit:4;stroke-dasharray:none;fill:none;fill-opacity:1;fill-rule: evenodd"/>
<path id="Shape2DView_nwe0016"  d="M -2.825 1.283333333333 A 0.291667 0.291667 0 0 0 -2.53333 1.575" stroke="#191919" stroke-width="0.35 px" style="stroke-width:0.35;stroke-miterlimit:4;stroke-dasharray:none;fill:none;fill-opacity:1;fill-rule: evenodd"/>
<path id="Shape2DView_nwe0017"  d="M -2.825 -1.283333333333 L -2.825 1.283333333333 " stroke="#191919" stroke-width="0.35 px" style="stroke-width:0.35;stroke-miterlimit:4;stroke-dasharray:none;fill:none;fill-opacity:1;fill-rule: evenodd"/>
<path id="Shape2DView_nwe0018"  d="M -2.533333333333 1.575 L 2.533333333333 1.575 " stroke="#191919" stroke-width="0.35 px" style="stroke-width:0.35;stroke-miterlimit:4;stroke-dasharray:none;fill:none;fill-opacity:1;fill-rule: evenodd"/>
<path id="Shape2DView_nwe0019"  d="M -2.533333333333 -1.575 A 0.291667 0.291667 0 0 0 -2.825 -1.28333" stroke="#191919" stroke-width="0.35 px" style="stroke-width:0.35;stroke-miterlimit:4;stroke-dasharray:none;fill:none;fill-opacity:1;fill-rule: evenodd"/>
<path id="Shape2DView_nwe0020"  d="M 2.533333333333 1.575 A 0.291667 0.291667 0 0 0 2.825 1.28333" stroke="#191919" stroke-width="0.35 px" style="stroke-width:0.35;stroke-miterlimit:4;stroke-dasharray:none;fill:none;fill-opacity:1;fill-rule: evenodd"/>
<path id="Shape2DView_nwe0021"  d="M 2.533333333333 -1.575 L -2.533333333333 -1.575 " stroke="#191919" stroke-width="0.35 px" style="stroke-width:0.35;stroke-miterlimit:4;stroke-dasharray:none;fill:none;fill-opacity:1;fill-rule: evenodd"/>
<path id="Shape2DView_nwe0022"  d="M 2.825 1.283333333333 L 2.825 -1.283333333333 " stroke="#191919" stroke-width="0.35 px" style="stroke-width:0.35;stroke-miterlimit:4;stroke-dasharray:none;fill:none;fill-opacity:1;fill-rule: evenodd"/>
<path id="Shape2DView_nwe0023"  d="M 2.825 -1.283333333333 A 0.291667 0.291667 0 0 0 2.53333 -1.575" stroke="#191919" stroke-width="0.35 px" style="stroke-width:0.35;stroke-miterlimit:4;stroke-dasharray:none;fill:none;fill-opacity:1;fill-rule: evenodd"/>
<path id="Shape2DView_nwe0024"  d="M -2.585833333333 -1.6275 A 0.291667 0.291667 0 0 0 -2.8775 -1.33583" stroke="#191919" stroke-width="0.35 px" style="stroke-width:0.35;stroke-miterlimit:4;stroke-dasharray:none;fill:none;fill-opacity:1;fill-rule: evenodd"/>
<path id="Shape2DView_nwe0025"  d="M 2.585833333333 -1.6275 L -2.585833333333 -1.6275 " stroke="#191919" stroke-width="0.35 px" style="stroke-width:0.35;stroke-miterlimit:4;stroke-dasharray:none;fill:none;fill-opacity:1;fill-rule: evenodd"/>
<path id="Shape2DView_nwe0026"  d="M -2.8775 -1.335833333333 L -2.8775 1.335833333333 " stroke="#191919" stroke-width="0.35 px" style="stroke-width:0.35;stroke-miterlimit:4;stroke-dasharray:none;fill:none;fill-opacity:1;fill-rule: evenodd"/>
<path id="Shape2DView_nwe0027"  d="M 2.8775 -1.335833333333 A 0.291667 0.291667 0 0 0 2.58583 -1.6275" stroke="#191919" stroke-width="0.35 px" style="stroke-width:0.35;stroke-miterlimit:4;stroke-dasharray:none;fill:none;fill-opacity:1;fill-rule: evenodd"/>
<path id="Shape2DView_nwe0028"  d="M -2.8775 1.335833333333 A 0.291667 0.291667 0 0 0 -2.58583 1.6275" stroke="#191919" stroke-width="0.35 px" style="stroke-width:0.35;stroke-miterlimit:4;stroke-dasharray:none;fill:none;fill-opacity:1;fill-rule: evenodd"/>
<path id="Shape2DView_nwe0029"  d="M 2.8775 1.335833333333 L 2.8775 -1.335833333333 " stroke="#191919" stroke-width="0.35 px" style="stroke-width:0.35;stroke-miterlimit:4;stroke-dasharray:none;fill:none;fill-opacity:1;fill-rule: evenodd"/>
<path id="Shape2DView_nwe0030"  d="M -2.585833333333 1.6275 L 2.585833333333 1.6275 " stroke="#191919" stroke-width="0.35 px" style="stroke-width:0.35;stroke-miterlimit:4;stroke-dasharray:none;fill:none;fill-opacity:1;fill-rule: evenodd"/>
<path id="Shape2DView_nwe0031"  d="M 2.585833333333 1.6275 A 0.291667 0.291667 0 0 0 2.8775 1.33583" stroke="#191919" stroke-width="0.35 px" style="stroke-width:0.35;stroke-miterlimit:4;stroke-dasharray:none;fill:none;fill-opacity:1;fill-rule: evenodd"/>
<path id="Shape2DView_nwe0032"  d="M -2.585833333333 -1.6275 L 2.585833333333 -1.6275 " stroke="#191919" stroke-width="0.35 px" style="stroke-width:0.35;stroke-miterlimit:4;stroke-dasharray:none;fill:none;fill-opacity:1;fill-rule: evenodd"/>
<path id="Shape2DView_nwe0033"  d="M 2.585833333333 1.6275 L -2.585833333333 1.6275 " stroke="#191919" stroke-width="0.35 px" style="stroke-width:0.35;stroke-miterlimit:4;stroke-dasharray:none;fill:none;fill-opacity:1;fill-rule: evenodd"/>
<path id="Shape2DView_nwe0034"  d="M 2.866979533738 1.7325 L 2.883333333333 1.75 " stroke="#191919" stroke-width="0.35 px" style="stroke-width:0.35;stroke-miterlimit:4;stroke-dasharray:none;fill:none;fill-opacity:1;fill-rule: evenodd"/>
<path id="Shape2DView_nwe0035"  d="M 2.883333333333 1.75 L -2.883333333333 1.75 " stroke="#191919" stroke-width="0.35 px" style="stroke-width:0.35;stroke-miterlimit:4;stroke-dasharray:none;fill:none;fill-opacity:1;fill-rule: evenodd"/>
<path id="Shape2DView_nwe0036"  d="M -2.866979533738 1.7325 L -2.883333333333 1.75 " stroke="#191919" stroke-width="0.35 px" style="stroke-width:0.35;stroke-miterlimit:4;stroke-dasharray:none;fill:none;fill-opacity:1;fill-rule: evenodd"/>
<path id="Shape2DView_nwe0037"  d="M 3.0 1.633333333333 A 0.116667 0.116667 0 0 0 2.88333 1.75" stroke="#191919" stroke-width="0.35 px" style="stroke-width:0.35;stroke-miterlimit:4;stroke-dasharray:none;fill:none;fill-opacity:1;fill-rule: evenodd"/>
<path id="Shape2DView_nwe0038"  d="M 2.9825 1.616979533738 L 3.0 1.633333333333 " stroke="#191919" stroke-width="0.35 px" style="stroke-width:0.35;stroke-miterlimit:4;stroke-dasharray:none;fill:none;fill-opacity:1;fill-rule: evenodd"/>
<path id="Shape2DView_nwe0039"  d="M -2.883333333333 1.75 A 0.116667 0.116667 0 0 0 -3 1.63333" stroke="#191919" stroke-width="0.35 px" style="stroke-width:0.35;stroke-miterlimit:4;stroke-dasharray:none;fill:none;fill-opacity:1;fill-rule: evenodd"/>
<path id="Shape2DView_nwe0040"  d="M -2.9825 1.616979533738 L -3.0 1.633333333333 " stroke="#191919" stroke-width="0.35 px" style="stroke-width:0.35;stroke-miterlimit:4;stroke-dasharray:none;fill:none;fill-opacity:1;fill-rule: evenodd"/>
<path id="Shape2DView_nwe0041"  d="M 3.0 -1.633333333333 L 2.9825 -1.616979533738 " stroke="#191919" stroke-width="0.35 px" style="stroke-width:0.35;stroke-miterlimit:4;stroke-dasharray:none;fill:none;fill-opacity:1;fill-rule: evenodd"/>
<path id="Shape2DView_nwe0042"  d="M 3.0 -1.633333333333 L 3.0 1.633333333333 " stroke="#191919" stroke-width="0.35 px" style="stroke-width:0.35;stroke-miterlimit:4;stroke-dasharray:none;fill:none;fill-opacity:1;fill-rule: evenodd"/>
<path id="Shape2DView_nwe0043"  d="M -3.0 1.633333333333 L -3.0 -1.633333333333 " stroke="#191919" stroke-width="0.35 px" style="stroke-width:0.35;stroke-miterlimit:4;stroke-dasharray:none;fill:none;fill-opacity:1;fill-rule: evenodd"/>
<path id="Shape2DView_nwe0044"  d="M -2.9825 -1.616979533738 L -3.0 -1.633333333333 " stroke="#191919" stroke-width="0.35 px" style="stroke-width:0.35;stroke-miterlimit:4;stroke-dasharray:none;fill:none;fill-opacity:1;fill-rule: evenodd"/>
<path id="Shape2DView_nwe0045"  d="M 2.883333333333 -1.75 L 2.866979533938 -1.732499998481 " stroke="#191919" stroke-width="0.35 px" style="stroke-width:0.35;stroke-miterlimit:4;stroke-dasharray:none;fill:none;fill-opacity:1;fill-rule: evenodd"/>
<path id="Shape2DView_nwe0046"  d="M 2.883333333333 -1.75 A 0.116667 0.116667 0 0 0 3 -1.63333" stroke="#191919" stroke-width="0.35 px" style="stroke-width:0.35;stroke-miterlimit:4;stroke-dasharray:none;fill:none;fill-opacity:1;fill-rule: evenodd"/>
<path id="Shape2DView_nwe0047"  d="M -3.0 -1.633333333333 A 0.116667 0.116667 0 0 0 -2.88333 -1.75" stroke="#191919" stroke-width="0.35 px" style="stroke-width:0.35;stroke-miterlimit:4;stroke-dasharray:none;fill:none;fill-opacity:1;fill-rule: evenodd"/>
<path id="Shape2DView_nwe0048"  d="M -2.866979533938 -1.732499998481 L -2.883333333333 -1.75 " stroke="#191919" stroke-width="0.35 px" style="stroke-width:0.35;stroke-miterlimit:4;stroke-dasharray:none;fill:none;fill-opacity:1;fill-rule: evenodd"/>
<path id="Shape2DView_nwe0049"  d="M -2.883333333333 -1.75 L 2.883333333333 -1.75 " stroke="#191919" stroke-width="0.35 px" style="stroke-width:0.35;stroke-miterlimit:4;stroke-dasharray:none;fill:none;fill-opacity:1;fill-rule: evenodd"/>
<path id="Shape2DView_nwe0050"  d="M 2.7199999999999998 1.195833333333 A 0.274167 0.274167 0 0 1 2.44583 1.47" stroke="#191919" stroke-width="0.35 px" style="stroke-width:0.35;stroke-miterlimit:4;stroke-dasharray:none;fill:none;fill-opacity:1;fill-rule: evenodd"/>
<path id="Shape2DView_nwe0051"  d="M 2.445833333333 1.47 L -2.445833333333 1.47 " stroke="#191919" stroke-width="0.35 px" style="stroke-width:0.35;stroke-miterlimit:4;stroke-dasharray:none;fill:none;fill-opacity:1;fill-rule: evenodd"/>
<path id="Shape2DView_nwe0052"  d="M -2.4458333333330002 1.47 A 0.274167 0.274167 0 0 1 -2.72 1.19583" stroke="#191919" stroke-width="0.35 px" style="stroke-width:0.35;stroke-miterlimit:4;stroke-dasharray:none;fill:none;fill-opacity:1;fill-rule: evenodd"/>
<path id="Shape2DView_nwe0053"  d="M -2.72 1.195833333333 L -2.72 -1.195833333333 " stroke="#191919" stroke-width="0.35 px" style="stroke-width:0.35;stroke-miterlimit:4;stroke-dasharray:none;fill:none;fill-opacity:1;fill-rule: evenodd"/>
<path id="Shape2DView_nwe0054"  d="M -2.7199999999999998 -1.195833333333 A 0.274167 0.274167 0 0 1 -2.44583 -1.47" stroke="#191919" stroke-width="0.35 px" style="stroke-width:0.35;stroke-miterlimit:4;stroke-dasharray:none;fill:none;fill-opacity:1;fill-rule: evenodd"/>
<path id="Shape2DView_nwe0055"  d="M -2.445833333333 -1.47 L 2.445833333333 -1.47 " stroke="#191919" stroke-width="0.35 px" style="stroke-width:0.35;stroke-miterlimit:4;stroke-dasharray:none;fill:none;fill-opacity:1;fill-rule: evenodd"/>
<path id="Shape2DView_nwe0056"  d="M 2.4458333333330002 -1.47 A 0.274167 0.274167 0 0 1 2.72 -1.19583" stroke="#191919" stroke-width="0.35 px" style="stroke-width:0.35;stroke-miterlimit:4;stroke-dasharray:none;fill:none;fill-opacity:1;fill-rule: evenodd"/>
<path id="Shape2DView_nwe0057"  d="M 2.72 -1.195833333333 L 2.72 1.195833333333 " stroke="#191919" stroke-width="0.35 px" style="stroke-width:0.35;stroke-miterlimit:4;stroke-dasharray:none;fill:none;fill-opacity:1;fill-rule: evenodd"/>
<path id="Shape2DView_nwe0058"  d="M 2.7375000000000003 1.195833333333 L 2.737389963673132 1.195833333333 L 2.7370612384631823 1.195833333333 L 2.7365179582803965 1.195833333333 L 2.7357669551882924 1.195833333333 L 2.734817673486495 1.195833333333 L 2.7336820509431905 1.195833333333 L 2.7323743686707647 1.195833333333 L 2.730911071532528 1.195833333333 L 2.7293105613390187 1.195833333333 L 2.7275929654345576 1.195833333333 L 2.7257798835842157 1.195833333333 L 2.7238941163442356 1.195833333333 L 2.721959378331808 1.195833333333 L 2.72 1.195833333333 " stroke="#191919" stroke-width="0.35 px" style="stroke-width:0.35;stroke-miterlimit:4;stroke-dasharray:none;fill:none;fill-opacity:1;fill-rule: evenodd"/>
<path id="Shape2DView_nwe0059"  d="M 2.445833333333 1.4875 L 2.445833333333 1.4873899636731318 L 2.445833333333 1.4870612384631818 L 2.445833333333 1.4865179582803965 L 2.445833333333 1.4857669551882924 L 2.445833333333 1.4848176734864948 L 2.445833333333 1.4836820509431905 L 2.445833333333 1.4823743686707647 L 2.445833333333 1.4809110715325278 L 2.445833333333 1.4793105613390183 L 2.445833333333 1.4775929654345572 L 2.445833333333 1.4757798835842153 L 2.445833333333 1.4738941163442354 L 2.445833333333 1.471959378331808 L 2.445833333333 1.47 " stroke="#191919" stroke-width="0.35 px" style="stroke-width:0.35;stroke-miterlimit:4;stroke-dasharray:none;fill:none;fill-opacity:1;fill-rule: evenodd"/>
<path id="Shape2DView_nwe0060"  d="M 2.7375000000000003 -1.195833333333 L 2.737389963673132 -1.195833333333 L 2.7370612384631823 -1.195833333333 L 2.7365179582803965 -1.195833333333 L 2.7357669551882924 -1.195833333333 L 2.734817673486495 -1.195833333333 L 2.7336820509431905 -1.195833333333 L 2.7323743686707647 -1.195833333333 L 2.730911071532528 -1.195833333333 L 2.7293105613390187 -1.195833333333 L 2.7275929654345576 -1.195833333333 L 2.7257798835842157 -1.195833333333 L 2.7238941163442356 -1.195833333333 L 2.721959378331808 -1.195833333333 L 2.72 -1.195833333333 " stroke="#191919" stroke-width="0.35 px" style="stroke-width:0.35;stroke-miterlimit:4;stroke-dasharray:none;fill:none;fill-opacity:1;fill-rule: evenodd"/>
<path id="Shape2DView_nwe0061"  d="M -2.445833333333 1.4875 L -2.445833333333 1.4873899636731318 L -2.445833333333 1.4870612384631818 L -2.445833333333 1.4865179582803965 L -2.445833333333 1.4857669551882924 L -2.445833333333 1.4848176734864948 L -2.445833333333 1.4836820509431905 L -2.445833333333 1.4823743686707647 L -2.445833333333 1.4809110715325278 L -2.445833333333 1.4793105613390183 L -2.445833333333 1.4775929654345572 L -2.445833333333 1.4757798835842153 L -2.445833333333 1.4738941163442354 L -2.445833333333 1.471959378331808 L -2.445833333333 1.47 " stroke="#191919" stroke-width="0.35 px" style="stroke-width:0.35;stroke-miterlimit:4;stroke-dasharray:none;fill:none;fill-opacity:1;fill-rule: evenodd"/>
<path id="Shape2DView_nwe0062"  d="M 2.445833333333 -1.4875 L 2.445833333333 -1.4873899636731318 L 2.445833333333 -1.4870612384631818 L 2.445833333333 -1.4865179582803965 L 2.445833333333 -1.4857669551882924 L 2.445833333333 -1.4848176734864948 L 2.445833333333 -1.4836820509431905 L 2.445833333333 -1.4823743686707647 L 2.445833333333 -1.4809110715325278 L 2.445833333333 -1.4793105613390183 L 2.445833333333 -1.4775929654345572 L 2.445833333333 -1.4757798835842153 L 2.445833333333 -1.4738941163442354 L 2.445833333333 -1.471959378331808 L 2.445833333333 -1.47 " stroke="#191919" stroke-width="0.35 px" style="stroke-width:0.35;stroke-miterlimit:4;stroke-dasharray:none;fill:none;fill-opacity:1;fill-rule: evenodd"/>
<path id="Shape2DView_nwe0063"  d="M -2.7375000000000003 1.195833333333 L -2.737389963673132 1.195833333333 L -2.7370612384631823 1.195833333333 L -2.7365179582803965 1.195833333333 L -2.7357669551882924 1.195833333333 L -2.734817673486495 1.195833333333 L -2.7336820509431905 1.195833333333 L -2.7323743686707647 1.195833333333 L -2.730911071532528 1.195833333333 L -2.7293105613390187 1.195833333333 L -2.7275929654345576 1.195833333333 L -2.7257798835842157 1.195833333333 L -2.7238941163442356 1.195833333333 L -2.721959378331808 1.195833333333 L -2.72 1.195833333333 " stroke="#191919" stroke-width="0.35 px" style="stroke-width:0.35;stroke-miterlimit:4;stroke-dasharray:none;fill:none;fill-opacity:1;fill-rule: evenodd"/>
<path id="Shape2DView_nwe0064"  d="M -2.445833333333 -1.4875 L -2.445833333333 -1.4873899636731318 L -2.445833333333 -1.4870612384631818 L -2.445833333333 -1.4865179582803965 L -2.445833333333 -1.4857669551882924 L -2.445833333333 -1.4848176734864948 L -2.445833333333 -1.4836820509431905 L -2.445833333333 -1.4823743686707647 L -2.445833333333 -1.4809110715325278 L -2.445833333333 -1.4793105613390183 L -2.445833333333 -1.4775929654345572 L -2.445833333333 -1.4757798835842153 L -2.445833333333 -1.4738941163442354 L -2.445833333333 -1.471959378331808 L -2.445833333333 -1.47 " stroke="#191919" stroke-width="0.35 px" style="stroke-width:0.35;stroke-miterlimit:4;stroke-dasharray:none;fill:none;fill-opacity:1;fill-rule: evenodd"/>
<path id="Shape2DView_nwe0065"  d="M -2.7375000000000003 -1.195833333333 L -2.737389963673132 -1.195833333333 L -2.7370612384631823 -1.195833333333 L -2.7365179582803965 -1.195833333333 L -2.7357669551882924 -1.195833333333 L -2.734817673486495 -1.195833333333 L -2.7336820509431905 -1.195833333333 L -2.7323743686707647 -1.195833333333 L -2.730911071532528 -1.195833333333 L -2.7293105613390187 -1.195833333333 L -2.7275929654345576 -1.195833333333 L -2.7257798835842157 -1.195833333333 L -2.7238941163442356 -1.195833333333 L -2.721959378331808 -1.195833333333 L -2.72 -1.195833333333 " stroke="#191919" stroke-width="0.35 px" style="stroke-width:0.35;stroke-miterlimit:4;stroke-dasharray:none;fill:none;fill-opacity:1;fill-rule: evenodd"/>
<path id="Shape2DView_nwe0066"  d="M 2.445833333333 1.505 L 2.445833333333 1.503040621668192 L 2.445833333333 1.5011058836557645 L 2.445833333333 1.4992201164157846 L 2.445833333333 1.4974070345654427 L 2.445833333333 1.4956894386609816 L 2.445833333333 1.494088928467472 L 2.445833333333 1.4926256313292352 L 2.445833333333 1.4913179490568094 L 2.445833333333 1.490182326513505 L 2.445833333333 1.4892330448117075 L 2.445833333333 1.4884820417196034 L 2.445833333333 1.487938761536818 L 2.445833333333 1.487610036326868 L 2.445833333333 1.4874999999999998 " stroke="#191919" stroke-width="0.35 px" style="stroke-width:0.35;stroke-miterlimit:4;stroke-dasharray:none;fill:none;fill-opacity:1;fill-rule: evenodd"/>
<path id="Shape2DView_nwe0067"  d="M 2.445833333333 1.505 A 0.309167 0.309167 0 0 0 2.755 1.19583" stroke="#191919" stroke-width="0.35 px" style="stroke-width:0.35;stroke-miterlimit:4;stroke-dasharray:none;fill:none;fill-opacity:1;fill-rule: evenodd"/>
<path id="Shape2DView_nwe0068"  d="M 2.755 1.195833333333 L 2.753040621668192 1.195833333333 L 2.7511058836557645 1.195833333333 L 2.7492201164157843 1.195833333333 L 2.7474070345654424 1.195833333333 L 2.7456894386609814 1.195833333333 L 2.744088928467472 1.195833333333 L 2.7426256313292354 1.195833333333 L 2.7413179490568096 1.195833333333 L 2.740182326513505 1.195833333333 L 2.7392330448117077 1.195833333333 L 2.7384820417196036 1.195833333333 L 2.737938761536818 1.195833333333 L 2.7376100363268683 1.195833333333 L 2.7375 1.195833333333 " stroke="#191919" stroke-width="0.35 px" style="stroke-width:0.35;stroke-miterlimit:4;stroke-dasharray:none;fill:none;fill-opacity:1;fill-rule: evenodd"/>
<path id="Shape2DView_nwe0069"  d="M 2.755 1.195833333333 L 2.755 -1.195833333333 " stroke="#191919" stroke-width="0.35 px" style="stroke-width:0.35;stroke-miterlimit:4;stroke-dasharray:none;fill:none;fill-opacity:1;fill-rule: evenodd"/>
<path id="Shape2DView_nwe0070"  d="M 2.755 -1.195833333333 L 2.753040621668192 -1.195833333333 L 2.7511058836557645 -1.195833333333 L 2.7492201164157843 -1.195833333333 L 2.7474070345654424 -1.195833333333 L 2.7456894386609814 -1.195833333333 L 2.744088928467472 -1.195833333333 L 2.7426256313292354 -1.195833333333 L 2.7413179490568096 -1.195833333333 L 2.740182326513505 -1.195833333333 L 2.7392330448117077 -1.195833333333 L 2.7384820417196036 -1.195833333333 L 2.737938761536818 -1.195833333333 L 2.7376100363268683 -1.195833333333 L 2.7375 -1.195833333333 " stroke="#191919" stroke-width="0.35 px" style="stroke-width:0.35;stroke-miterlimit:4;stroke-dasharray:none;fill:none;fill-opacity:1;fill-rule: evenodd"/>
<path id="Shape2DView_nwe0071"  d="M -2.445833333333 1.505 L 2.445833333333 1.505 " stroke="#191919" stroke-width="0.35 px" style="stroke-width:0.35;stroke-miterlimit:4;stroke-dasharray:none;fill:none;fill-opacity:1;fill-rule: evenodd"/>
<path id="Shape2DView_nwe0072"  d="M -2.445833333333 1.505 L -2.445833333333 1.503040621668192 L -2.445833333333 1.5011058836557645 L -2.445833333333 1.4992201164157846 L -2.445833333333 1.4974070345654427 L -2.445833333333 1.4956894386609816 L -2.445833333333 1.494088928467472 L -2.445833333333 1.4926256313292352 L -2.445833333333 1.4913179490568094 L -2.445833333333 1.490182326513505 L -2.445833333333 1.4892330448117075 L -2.445833333333 1.4884820417196034 L -2.445833333333 1.487938761536818 L -2.445833333333 1.487610036326868 L -2.445833333333 1.4874999999999998 " stroke="#191919" stroke-width="0.35 px" style="stroke-width:0.35;stroke-miterlimit:4;stroke-dasharray:none;fill:none;fill-opacity:1;fill-rule: evenodd"/>
<path id="Shape2DView_nwe0073"  d="M 2.755 -1.195833333333 A 0.309167 0.309167 0 0 0 2.44583 -1.505" stroke="#191919" stroke-width="0.35 px" style="stroke-width:0.35;stroke-miterlimit:4;stroke-dasharray:none;fill:none;fill-opacity:1;fill-rule: evenodd"/>
<path id="Shape2DView_nwe0074"  d="M 2.445833333333 -1.505 L 2.445833333333 -1.503040621668192 L 2.445833333333 -1.5011058836557645 L 2.445833333333 -1.4992201164157846 L 2.445833333333 -1.4974070345654427 L 2.445833333333 -1.4956894386609816 L 2.445833333333 -1.494088928467472 L 2.445833333333 -1.4926256313292352 L 2.445833333333 -1.4913179490568094 L 2.445833333333 -1.490182326513505 L 2.445833333333 -1.4892330448117075 L 2.445833333333 -1.4884820417196034 L 2.445833333333 -1.487938761536818 L 2.445833333333 -1.487610036326868 L 2.445833333333 -1.4874999999999998 " stroke="#191919" stroke-width="0.35 px" style="stroke-width:0.35;stroke-miterlimit:4;stroke-dasharray:none;fill:none;fill-opacity:1;fill-rule: evenodd"/>
<path id="Shape2DView_nwe0075"  d="M -2.755 1.195833333333 L -2.753040621668192 1.195833333333 L -2.7511058836557645 1.195833333333 L -2.7492201164157843 1.195833333333 L -2.7474070345654424 1.195833333333 L -2.7456894386609814 1.195833333333 L -2.744088928467472 1.195833333333 L -2.7426256313292354 1.195833333333 L -2.7413179490568096 1.195833333333 L -2.740182326513505 1.195833333333 L -2.7392330448117077 1.195833333333 L -2.7384820417196036 1.195833333333 L -2.737938761536818 1.195833333333 L -2.7376100363268683 1.195833333333 L -2.7375 1.195833333333 " stroke="#191919" stroke-width="0.35 px" style="stroke-width:0.35;stroke-miterlimit:4;stroke-dasharray:none;fill:none;fill-opacity:1;fill-rule: evenodd"/>
<path id="Shape2DView_nwe0076"  d="M -2.755 1.195833333333 A 0.309167 0.309167 0 0 0 -2.44583 1.505" stroke="#191919" stroke-width="0.35 px" style="stroke-width:0.35;stroke-miterlimit:4;stroke-dasharray:none;fill:none;fill-opacity:1;fill-rule: evenodd"/>
<path id="Shape2DView_nwe0077"  d="M 2.445833333333 -1.505 L -2.445833333333 -1.505 " stroke="#191919" stroke-width="0.35 px" style="stroke-width:0.35;stroke-miterlimit:4;stroke-dasharray:none;fill:none;fill-opacity:1;fill-rule: evenodd"/>
<path id="Shape2DView_nwe0078"  d="M -2.445833333333 -1.505 L -2.445833333333 -1.503040621668192 L -2.445833333333 -1.5011058836557645 L -2.445833333333 -1.4992201164157846 L -2.445833333333 -1.4974070345654427 L -2.445833333333 -1.4956894386609816 L -2.445833333333 -1.494088928467472 L -2.445833333333 -1.4926256313292352 L -2.445833333333 -1.4913179490568094 L -2.445833333333 -1.490182326513505 L -2.445833333333 -1.4892330448117075 L -2.445833333333 -1.4884820417196034 L -2.445833333333 -1.487938761536818 L -2.445833333333 -1.487610036326868 L -2.445833333333 -1.4874999999999998 " stroke="#191919" stroke-width="0.35 px" style="stroke-width:0.35;stroke-miterlimit:4;stroke-dasharray:none;fill:none;fill-opacity:1;fill-rule: evenodd"/>
<path id="Shape2DView_nwe0079"  d="M -2.755 -1.195833333333 L -2.755 1.195833333333 " stroke="#191919" stroke-width="0.35 px" style="stroke-width:0.35;stroke-miterlimit:4;stroke-dasharray:none;fill:none;fill-opacity:1;fill-rule: evenodd"/>
<path id="Shape2DView_nwe0080"  d="M -2.755 -1.195833333333 L -2.753040621668192 -1.195833333333 L -2.7511058836557645 -1.195833333333 L -2.7492201164157843 -1.195833333333 L -2.7474070345654424 -1.195833333333 L -2.7456894386609814 -1.195833333333 L -2.744088928467472 -1.195833333333 L -2.7426256313292354 -1.195833333333 L -2.7413179490568096 -1.195833333333 L -2.740182326513505 -1.195833333333 L -2.7392330448117077 -1.195833333333 L -2.7384820417196036 -1.195833333333 L -2.737938761536818 -1.195833333333 L -2.7376100363268683 -1.195833333333 L -2.7375 -1.195833333333 " stroke="#191919" stroke-width="0.35 px" style="stroke-width:0.35;stroke-miterlimit:4;stroke-dasharray:none;fill:none;fill-opacity:1;fill-rule: evenodd"/>
<path id="Shape2DView_nwe0081"  d="M -2.445833333333 -1.505 A 0.309167 0.309167 0 0 0 -2.755 -1.19583" stroke="#191919" stroke-width="0.35 px" style="stroke-width:0.35;stroke-miterlimit:4;stroke-dasharray:none;fill:none;fill-opacity:1;fill-rule: evenodd"/>
<path id="Shape2DView_nwe0082"  d="M -2.8075 1.283333333333 A 0.274167 0.274167 0 0 0 -2.53333 1.5575" stroke="#191919" stroke-width="0.35 px" style="stroke-width:0.35;stroke-miterlimit:4;stroke-dasharray:none;fill:none;fill-opacity:1;fill-rule: evenodd"/>
<path id="Shape2DView_nwe0083"  d="M -2.8075 -1.283333333333 L -2.8075 1.283333333333 " stroke="#191919" stroke-width="0.35 px" style="stroke-width:0.35;stroke-miterlimit:4;stroke-dasharray:none;fill:none;fill-opacity:1;fill-rule: evenodd"/>
<path id="Shape2DView_nwe0084"  d="M -2.533333333333 -1.5574999999999999 A 0.274167 0.274167 0 0 0 -2.8075 -1.28333" stroke="#191919" stroke-width="0.35 px" style="stroke-width:0.35;stroke-miterlimit:4;stroke-dasharray:none;fill:none;fill-opacity:1;fill-rule: evenodd"/>
<path id="Shape2DView_nwe0085"  d="M 2.533333333333 -1.5575 L -2.533333333333 -1.5575 " stroke="#191919" stroke-width="0.35 px" style="stroke-width:0.35;stroke-miterlimit:4;stroke-dasharray:none;fill:none;fill-opacity:1;fill-rule: evenodd"/>
<path id="Shape2DView_nwe0086"  d="M 2.8075 -1.283333333333 A 0.274167 0.274167 0 0 0 2.53333 -1.5575" stroke="#191919" stroke-width="0.35 px" style="stroke-width:0.35;stroke-miterlimit:4;stroke-dasharray:none;fill:none;fill-opacity:1;fill-rule: evenodd"/>
<path id="Shape2DView_nwe0087"  d="M 2.8075 1.283333333333 L 2.8075 -1.283333333333 " stroke="#191919" stroke-width="0.35 px" style="stroke-width:0.35;stroke-miterlimit:4;stroke-dasharray:none;fill:none;fill-opacity:1;fill-rule: evenodd"/>
<path id="Shape2DView_nwe0088"  d="M 2.533333333333 1.5574999999999999 A 0.274167 0.274167 0 0 0 2.8075 1.28333" stroke="#191919" stroke-width="0.35 px" style="stroke-width:0.35;stroke-miterlimit:4;stroke-dasharray:none;fill:none;fill-opacity:1;fill-rule: evenodd"/>
<path id="Shape2DView_nwe0089"  d="M -2.533333333333 1.5575 L 2.533333333333 1.5575 " stroke="#191919" stroke-width="0.35 px" style="stroke-width:0.35;stroke-miterlimit:4;stroke-dasharray:none;fill:none;fill-opacity:1;fill-rule: evenodd"/>
<path id="Shape2DView_nwe0090"  d="M -2.533333333333 1.5750000000000002 L -2.533333333333 1.574889963673132 L -2.533333333333 1.574561238463182 L -2.533333333333 1.5740179582803966 L -2.533333333333 1.5732669551882925 L -2.533333333333 1.572317673486495 L -2.533333333333 1.5711820509431906 L -2.533333333333 1.5698743686707648 L -2.533333333333 1.568411071532528 L -2.533333333333 1.5668105613390184 L -2.533333333333 1.5650929654345573 L -2.533333333333 1.5632798835842154 L -2.533333333333 1.5613941163442355 L -2.533333333333 1.559459378331808 L -2.533333333333 1.5575 " stroke="#191919" stroke-width="0.35 px" style="stroke-width:0.35;stroke-miterlimit:4;stroke-dasharray:none;fill:none;fill-opacity:1;fill-rule: evenodd"/>
<path id="Shape2DView_nwe0091"  d="M -2.825 1.283333333333 L -2.8248899636731317 1.283333333333 L -2.824561238463182 1.283333333333 L -2.8240179582803964 1.283333333333 L -2.8232669551882923 1.283333333333 L -2.822317673486495 1.283333333333 L -2.8211820509431904 1.283333333333 L -2.8198743686707646 1.283333333333 L -2.818411071532528 1.283333333333 L -2.8168105613390186 1.283333333333 L -2.8150929654345576 1.283333333333 L -2.8132798835842157 1.283333333333 L -2.8113941163442355 1.283333333333 L -2.809459378331808 1.283333333333 L -2.8075 1.283333333333 " stroke="#191919" stroke-width="0.35 px" style="stroke-width:0.35;stroke-miterlimit:4;stroke-dasharray:none;fill:none;fill-opacity:1;fill-rule: evenodd"/>
<path id="Shape2DView_nwe0092"  d="M -2.825 -1.283333333333 L -2.8248899636731317 -1.283333333333 L -2.824561238463182 -1.283333333333 L -2.8240179582803964 -1.283333333333 L -2.8232669551882923 -1.283333333333 L -2.822317673486495 -1.283333333333 L -2.8211820509431904 -1.283333333333 L -2.8198743686707646 -1.283333333333 L -2.818411071532528 -1.283333333333 L -2.8168105613390186 -1.283333333333 L -2.8150929654345576 -1.283333333333 L -2.8132798835842157 -1.283333333333 L -2.8113941163442355 -1.283333333333 L -2.809459378331808 -1.283333333333 L -2.8075 -1.283333333333 " stroke="#191919" stroke-width="0.35 px" style="stroke-width:0.35;stroke-miterlimit:4;stroke-dasharray:none;fill:none;fill-opacity:1;fill-rule: evenodd"/>
<path id="Shape2DView_nwe0093"  d="M 2.533333333333 1.5750000000000002 L 2.533333333333 1.574889963673132 L 2.533333333333 1.574561238463182 L 2.533333333333 1.5740179582803966 L 2.533333333333 1.5732669551882925 L 2.533333333333 1.572317673486495 L 2.533333333333 1.5711820509431906 L 2.533333333333 1.5698743686707648 L 2.533333333333 1.568411071532528 L 2.533333333333 1.5668105613390184 L 2.533333333333 1.5650929654345573 L 2.533333333333 1.5632798835842154 L 2.533333333333 1.5613941163442355 L 2.533333333333 1.559459378331808 L 2.533333333333 1.5575 " stroke="#191919" stroke-width="0.35 px" style="stroke-width:0.35;stroke-miterlimit:4;stroke-dasharray:none;fill:none;fill-opacity:1;fill-rule: evenodd"/>
<path id="Shape2DView_nwe0094"  d="M -2.533333333333 -1.5750000000000002 L -2.533333333333 -1.574889963673132 L -2.533333333333 -1.574561238463182 L -2.533333333333 -1.5740179582803966 L -2.533333333333 -1.5732669551882925 L -2.533333333333 -1.572317673486495 L -2.533333333333 -1.5711820509431906 L -2.533333333333 -1.5698743686707648 L -2.533333333333 -1.568411071532528 L -2.533333333333 -1.5668105613390184 L -2.533333333333 -1.5650929654345573 L -2.533333333333 -1.5632798835842154 L -2.533333333333 -1.5613941163442355 L -2.533333333333 -1.559459378331808 L -2.533333333333 -1.5575 " stroke="#191919" stroke-width="0.35 px" style="stroke-width:0.35;stroke-miterlimit:4;stroke-dasharray:none;fill:none;fill-opacity:1;fill-rule: evenodd"/>
<path id="Shape2DView_nwe0095"  d="M 2.825 1.283333333333 L 2.8248899636731317 1.283333333333 L 2.824561238463182 1.283333333333 L 2.8240179582803964 1.283333333333 L 2.8232669551882923 1.283333333333 L 2.822317673486495 1.283333333333 L 2.8211820509431904 1.283333333333 L 2.8198743686707646 1.283333333333 L 2.818411071532528 1.283333333333 L 2.8168105613390186 1.283333333333 L 2.8150929654345576 1.283333333333 L 2.8132798835842157 1.283333333333 L 2.8113941163442355 1.283333333333 L 2.809459378331808 1.283333333333 L 2.8075 1.283333333333 " stroke="#191919" stroke-width="0.35 px" style="stroke-width:0.35;stroke-miterlimit:4;stroke-dasharray:none;fill:none;fill-opacity:1;fill-rule: evenodd"/>
<path id="Shape2DView_nwe0096"  d="M 2.533333333333 -1.5750000000000002 L 2.533333333333 -1.574889963673132 L 2.533333333333 -1.574561238463182 L 2.533333333333 -1.5740179582803966 L 2.533333333333 -1.5732669551882925 L 2.533333333333 -1.572317673486495 L 2.533333333333 -1.5711820509431906 L 2.533333333333 -1.5698743686707648 L 2.533333333333 -1.568411071532528 L 2.533333333333 -1.5668105613390184 L 2.533333333333 -1.5650929654345573 L 2.533333333333 -1.5632798835842154 L 2.533333333333 -1.5613941163442355 L 2.533333333333 -1.559459378331808 L 2.533333333333 -1.5575 " stroke="#191919" stroke-width="0.35 px" style="stroke-width:0.35;stroke-miterlimit:4;stroke-dasharray:none;fill:none;fill-opacity:1;fill-rule: evenodd"/>
<path id="Shape2DView_nwe0097"  d="M 2.825 -1.283333333333 L 2.8248899636731317 -1.283333333333 L 2.824561238463182 -1.283333333333 L 2.8240179582803964 -1.283333333333 L 2.8232669551882923 -1.283333333333 L 2.822317673486495 -1.283333333333 L 2.8211820509431904 -1.283333333333 L 2.8198743686707646 -1.283333333333 L 2.818411071532528 -1.283333333333 L 2.8168105613390186 -1.283333333333 L 2.8150929654345576 -1.283333333333 L 2.8132798835842157 -1.283333333333 L 2.8113941163442355 -1.283333333333 L 2.809459378331808 -1.283333333333 L 2.8075 -1.283333333333 " stroke="#191919" stroke-width="0.35 px" style="stroke-width:0.35;stroke-miterlimit:4;stroke-dasharray:none;fill:none;fill-opacity:1;fill-rule: evenodd"/>
<path id="Shape2DView_nwe0098"  d="M -2.8425 1.283333333333 L -2.840540621668192 1.283333333333 L -2.8386058836557644 1.283333333333 L -2.8367201164157843 1.283333333333 L -2.8349070345654424 1.283333333333 L -2.8331894386609813 1.283333333333 L -2.831588928467472 1.283333333333 L -2.8301256313292353 1.283333333333 L -2.8288179490568095 1.283333333333 L -2.827682326513505 1.283333333333 L -2.8267330448117076 1.283333333333 L -2.8259820417196035 1.283333333333 L -2.8254387615368177 1.283333333333 L -2.825110036326868 1.283333333333 L -2.8249999999999997 1.283333333333 " stroke="#191919" stroke-width="0.35 px" style="stroke-width:0.35;stroke-miterlimit:4;stroke-dasharray:none;fill:none;fill-opacity:1;fill-rule: evenodd"/>
<path id="Shape2DView_nwe0099"  d="M -2.8425000000000002 1.283333333333 A 0.309167 0.309167 0 0 0 -2.53333 1.5925" stroke="#191919" stroke-width="0.35 px" style="stroke-width:0.35;stroke-miterlimit:4;stroke-dasharray:none;fill:none;fill-opacity:1;fill-rule: evenodd"/>
<path id="Shape2DView_nwe0100"  d="M -2.533333333333 1.5925 L -2.533333333333 1.590540621668192 L -2.533333333333 1.5886058836557646 L -2.533333333333 1.5867201164157847 L -2.533333333333 1.5849070345654428 L -2.533333333333 1.5831894386609817 L -2.533333333333 1.5815889284674722 L -2.533333333333 1.5801256313292353 L -2.533333333333 1.5788179490568095 L -2.533333333333 1.5776823265135052 L -2.533333333333 1.5767330448117076 L -2.533333333333 1.5759820417196035 L -2.533333333333 1.5754387615368182 L -2.533333333333 1.5751100363268682 L -2.533333333333 1.575 " stroke="#191919" stroke-width="0.35 px" style="stroke-width:0.35;stroke-miterlimit:4;stroke-dasharray:none;fill:none;fill-opacity:1;fill-rule: evenodd"/>
<path id="Shape2DView_nwe0101"  d="M -2.8425 -1.283333333333 L -2.8425 1.283333333333 " stroke="#191919" stroke-width="0.35 px" style="stroke-width:0.35;stroke-miterlimit:4;stroke-dasharray:none;fill:none;fill-opacity:1;fill-rule: evenodd"/>
<path id="Shape2DView_nwe0102"  d="M -2.8425 -1.283333333333 L -2.840540621668192 -1.283333333333 L -2.8386058836557644 -1.283333333333 L -2.8367201164157843 -1.283333333333 L -2.8349070345654424 -1.283333333333 L -2.8331894386609813 -1.283333333333 L -2.831588928467472 -1.283333333333 L -2.8301256313292353 -1.283333333333 L -2.8288179490568095 -1.283333333333 L -2.827682326513505 -1.283333333333 L -2.8267330448117076 -1.283333333333 L -2.8259820417196035 -1.283333333333 L -2.8254387615368177 -1.283333333333 L -2.825110036326868 -1.283333333333 L -2.8249999999999997 -1.283333333333 " stroke="#191919" stroke-width="0.35 px" style="stroke-width:0.35;stroke-miterlimit:4;stroke-dasharray:none;fill:none;fill-opacity:1;fill-rule: evenodd"/>
<path id="Shape2DView_nwe0103"  d="M -2.533333333333 1.5925 L 2.533333333333 1.5925 " stroke="#191919" stroke-width="0.35 px" style="stroke-width:0.35;stroke-miterlimit:4;stroke-dasharray:none;fill:none;fill-opacity:1;fill-rule: evenodd"/>
<path id="Shape2DView_nwe0104"  d="M 2.533333333333 1.5925 L 2.533333333333 1.590540621668192 L 2.533333333333 1.5886058836557646 L 2.533333333333 1.5867201164157847 L 2.533333333333 1.5849070345654428 L 2.533333333333 1.5831894386609817 L 2.533333333333 1.5815889284674722 L 2.533333333333 1.5801256313292353 L 2.533333333333 1.5788179490568095 L 2.533333333333 1.5776823265135052 L 2.533333333333 1.5767330448117076 L 2.533333333333 1.5759820417196035 L 2.533333333333 1.5754387615368182 L 2.533333333333 1.5751100363268682 L 2.533333333333 1.575 " stroke="#191919" stroke-width="0.35 px" style="stroke-width:0.35;stroke-miterlimit:4;stroke-dasharray:none;fill:none;fill-opacity:1;fill-rule: evenodd"/>
<path id="Shape2DView_nwe0105"  d="M -2.533333333333 -1.5925 L -2.533333333333 -1.590540621668192 L -2.533333333333 -1.5886058836557646 L -2.533333333333 -1.5867201164157847 L -2.533333333333 -1.5849070345654428 L -2.533333333333 -1.5831894386609817 L -2.533333333333 -1.5815889284674722 L -2.533333333333 -1.5801256313292353 L -2.533333333333 -1.5788179490568095 L -2.533333333333 -1.5776823265135052 L -2.533333333333 -1.5767330448117076 L -2.533333333333 -1.5759820417196035 L -2.533333333333 -1.5754387615368182 L -2.533333333333 -1.5751100363268682 L -2.533333333333 -1.575 " stroke="#191919" stroke-width="0.35 px" style="stroke-width:0.35;stroke-miterlimit:4;stroke-dasharray:none;fill:none;fill-opacity:1;fill-rule: evenodd"/>
<path id="Shape2DView_nwe0106"  d="M -2.533333333333 -1.5924999999999998 A 0.309167 0.309167 0 0 0 -2.8425 -1.28333" stroke="#191919" stroke-width="0.35 px" style="stroke-width:0.35;stroke-miterlimit:4;stroke-dasharray:none;fill:none;fill-opacity:1;fill-rule: evenodd"/>
<path id="Shape2DView_nwe0107"  d="M 2.533333333333 1.5924999999999998 A 0.309167 0.309167 0 0 0 2.8425 1.28333" stroke="#191919" stroke-width="0.35 px" style="stroke-width:0.35;stroke-miterlimit:4;stroke-dasharray:none;fill:none;fill-opacity:1;fill-rule: evenodd"/>
<path id="Shape2DView_nwe0108"  d="M 2.8425 1.283333333333 L 2.840540621668192 1.283333333333 L 2.8386058836557644 1.283333333333 L 2.8367201164157843 1.283333333333 L 2.8349070345654424 1.283333333333 L 2.8331894386609813 1.283333333333 L 2.831588928467472 1.283333333333 L 2.8301256313292353 1.283333333333 L 2.8288179490568095 1.283333333333 L 2.827682326513505 1.283333333333 L 2.8267330448117076 1.283333333333 L 2.8259820417196035 1.283333333333 L 2.8254387615368177 1.283333333333 L 2.825110036326868 1.283333333333 L 2.8249999999999997 1.283333333333 " stroke="#191919" stroke-width="0.35 px" style="stroke-width:0.35;stroke-miterlimit:4;stroke-dasharray:none;fill:none;fill-opacity:1;fill-rule: evenodd"/>
<path id="Shape2DView_nwe0109"  d="M 2.533333333333 -1.5925 L -2.533333333333 -1.5925 " stroke="#191919" stroke-width="0.35 px" style="stroke-width:0.35;stroke-miterlimit:4;stroke-dasharray:none;fill:none;fill-opacity:1;fill-rule: evenodd"/>
<path id="Shape2DView_nwe0110"  d="M 2.533333333333 -1.5925 L 2.533333333333 -1.590540621668192 L 2.533333333333 -1.5886058836557646 L 2.533333333333 -1.5867201164157847 L 2.533333333333 -1.5849070345654428 L 2.533333333333 -1.5831894386609817 L 2.533333333333 -1.5815889284674722 L 2.533333333333 -1.5801256313292353 L 2.533333333333 -1.5788179490568095 L 2.533333333333 -1.5776823265135052 L 2.533333333333 -1.5767330448117076 L 2.533333333333 -1.5759820417196035 L 2.533333333333 -1.5754387615368182 L 2.533333333333 -1.5751100363268682 L 2.533333333333 -1.575 " stroke="#191919" stroke-width="0.35 px" style="stroke-width:0.35;stroke-miterlimit:4;stroke-dasharray:none;fill:none;fill-opacity:1;fill-rule: evenodd"/>
<path id="Shape2DView_nwe0111"  d="M 2.8425 1.283333333333 L 2.8425 -1.283333333333 " stroke="#191919" stroke-width="0.35 px" style="stroke-width:0.35;stroke-miterlimit:4;stroke-dasharray:none;fill:none;fill-opacity:1;fill-rule: evenodd"/>
<path id="Shape2DView_nwe0112"  d="M 2.8425 -1.283333333333 L 2.840540621668192 -1.283333333333 L 2.8386058836557644 -1.283333333333 L 2.8367201164157843 -1.283333333333 L 2.8349070345654424 -1.283333333333 L 2.8331894386609813 -1.283333333333 L 2.831588928467472 -1.283333333333 L 2.8301256313292353 -1.283333333333 L 2.8288179490568095 -1.283333333333 L 2.827682326513505 -1.283333333333 L 2.8267330448117076 -1.283333333333 L 2.8259820417196035 -1.283333333333 L 2.8254387615368177 -1.283333333333 L 2.825110036326868 -1.283333333333 L 2.8249999999999997 -1.283333333333 " stroke="#191919" stroke-width="0.35 px" style="stroke-width:0.35;stroke-miterlimit:4;stroke-dasharray:none;fill:none;fill-opacity:1;fill-rule: evenodd"/>
<path id="Shape2DView_nwe0113"  d="M 2.8425000000000002 -1.283333333333 A 0.309167 0.309167 0 0 0 2.53333 -1.5925" stroke="#191919" stroke-width="0.35 px" style="stroke-width:0.35;stroke-miterlimit:4;stroke-dasharray:none;fill:none;fill-opacity:1;fill-rule: evenodd"/>
<path id="Shape2DView_nwe0114"  d="M -2.585833333333 -1.6099999999999999 A 0.274167 0.274167 0 0 0 -2.86 -1.33583" stroke="#191919" stroke-width="0.35 px" style="stroke-width:0.35;stroke-miterlimit:4;stroke-dasharray:none;fill:none;fill-opacity:1;fill-rule: evenodd"/>
<path id="Shape2DView_nwe0115"  d="M 2.585833333333 -1.61 L -2.585833333333 -1.61 " stroke="#191919" stroke-width="0.35 px" style="stroke-width:0.35;stroke-miterlimit:4;stroke-dasharray:none;fill:none;fill-opacity:1;fill-rule: evenodd"/>
<path id="Shape2DView_nwe0116"  d="M 2.86 -1.335833333333 A 0.274167 0.274167 0 0 0 2.58583 -1.61" stroke="#191919" stroke-width="0.35 px" style="stroke-width:0.35;stroke-miterlimit:4;stroke-dasharray:none;fill:none;fill-opacity:1;fill-rule: evenodd"/>
<path id="Shape2DView_nwe0117"  d="M 2.86 1.335833333333 L 2.86 -1.335833333333 " stroke="#191919" stroke-width="0.35 px" style="stroke-width:0.35;stroke-miterlimit:4;stroke-dasharray:none;fill:none;fill-opacity:1;fill-rule: evenodd"/>
<path id="Shape2DView_nwe0118"  d="M 2.585833333333 1.6099999999999999 A 0.274167 0.274167 0 0 0 2.86 1.33583" stroke="#191919" stroke-width="0.35 px" style="stroke-width:0.35;stroke-miterlimit:4;stroke-dasharray:none;fill:none;fill-opacity:1;fill-rule: evenodd"/>
<path id="Shape2DView_nwe0119"  d="M -2.585833333333 1.61 L 2.585833333333 1.61 " stroke="#191919" stroke-width="0.35 px" style="stroke-width:0.35;stroke-miterlimit:4;stroke-dasharray:none;fill:none;fill-opacity:1;fill-rule: evenodd"/>
<path id="Shape2DView_nwe0120"  d="M -2.86 1.335833333333 A 0.274167 0.274167 0 0 0 -2.58583 1.61" stroke="#191919" stroke-width="0.35 px" style="stroke-width:0.35;stroke-miterlimit:4;stroke-dasharray:none;fill:none;fill-opacity:1;fill-rule: evenodd"/>
<path id="Shape2DView_nwe0121"  d="M -2.86 -1.335833333333 L -2.86 1.335833333333 " stroke="#191919" stroke-width="0.35 px" style="stroke-width:0.35;stroke-miterlimit:4;stroke-dasharray:none;fill:none;fill-opacity:1;fill-rule: evenodd"/>
<path id="Shape2DView_nwe0122"  d="M -2.8775 -1.335833333333 L -2.8773899636731315 -1.335833333333 L -2.877061238463182 -1.335833333333 L -2.876517958280396 -1.335833333333 L -2.875766955188292 -1.335833333333 L -2.8748176734864948 -1.335833333333 L -2.87368205094319 -1.335833333333 L -2.8723743686707643 -1.335833333333 L -2.870911071532528 -1.335833333333 L -2.8693105613390184 -1.335833333333 L -2.8675929654345573 -1.335833333333 L -2.8657798835842154 -1.335833333333 L -2.8638941163442353 -1.335833333333 L -2.861959378331808 -1.335833333333 L -2.86 -1.335833333333 " stroke="#191919" stroke-width="0.35 px" style="stroke-width:0.35;stroke-miterlimit:4;stroke-dasharray:none;fill:none;fill-opacity:1;fill-rule: evenodd"/>
<path id="Shape2DView_nwe0123"  d="M -2.585833333333 -1.6275000000000002 L -2.585833333333 -1.627389963673132 L -2.585833333333 -1.627061238463182 L -2.585833333333 -1.6265179582803966 L -2.585833333333 -1.6257669551882925 L -2.585833333333 -1.624817673486495 L -2.585833333333 -1.6236820509431906 L -2.585833333333 -1.6223743686707648 L -2.585833333333 -1.620911071532528 L -2.585833333333 -1.6193105613390184 L -2.585833333333 -1.6175929654345573 L -2.585833333333 -1.6157798835842154 L -2.585833333333 -1.6138941163442355 L -2.585833333333 -1.611959378331808 L -2.585833333333 -1.61 " stroke="#191919" stroke-width="0.35 px" style="stroke-width:0.35;stroke-miterlimit:4;stroke-dasharray:none;fill:none;fill-opacity:1;fill-rule: evenodd"/>
<path id="Shape2DView_nwe0124"  d="M 2.585833333333 -1.6275000000000002 L 2.585833333333 -1.627389963673132 L 2.585833333333 -1.627061238463182 L 2.585833333333 -1.6265179582803966 L 2.585833333333 -1.6257669551882925 L 2.585833333333 -1.624817673486495 L 2.585833333333 -1.6236820509431906 L 2.585833333333 -1.6223743686707648 L 2.585833333333 -1.620911071532528 L 2.585833333333 -1.6193105613390184 L 2.585833333333 -1.6175929654345573 L 2.585833333333 -1.6157798835842154 L 2.585833333333 -1.6138941163442355 L 2.585833333333 -1.611959378331808 L 2.585833333333 -1.61 " stroke="#191919" stroke-width="0.35 px" style="stroke-width:0.35;stroke-miterlimit:4;stroke-dasharray:none;fill:none;fill-opacity:1;fill-rule: evenodd"/>
<path id="Shape2DView_nwe0125"  d="M -2.8775 1.335833333333 L -2.8773899636731315 1.335833333333 L -2.877061238463182 1.335833333333 L -2.876517958280396 1.335833333333 L -2.875766955188292 1.335833333333 L -2.8748176734864948 1.335833333333 L -2.87368205094319 1.335833333333 L -2.8723743686707643 1.335833333333 L -2.870911071532528 1.335833333333 L -2.8693105613390184 1.335833333333 L -2.8675929654345573 1.335833333333 L -2.8657798835842154 1.335833333333 L -2.8638941163442353 1.335833333333 L -2.861959378331808 1.335833333333 L -2.86 1.335833333333 " stroke="#191919" stroke-width="0.35 px" style="stroke-width:0.35;stroke-miterlimit:4;stroke-dasharray:none;fill:none;fill-opacity:1;fill-rule: evenodd"/>
<path id="Shape2DView_nwe0126"  d="M 2.8775 -1.335833333333 L 2.8773899636731315 -1.335833333333 L 2.877061238463182 -1.335833333333 L 2.876517958280396 -1.335833333333 L 2.875766955188292 -1.335833333333 L 2.8748176734864948 -1.335833333333 L 2.87368205094319 -1.335833333333 L 2.8723743686707643 -1.335833333333 L 2.870911071532528 -1.335833333333 L 2.8693105613390184 -1.335833333333 L 2.8675929654345573 -1.335833333333 L 2.8657798835842154 -1.335833333333 L 2.8638941163442353 -1.335833333333 L 2.861959378331808 -1.335833333333 L 2.86 -1.335833333333 " stroke="#191919" stroke-width="0.35 px" style="stroke-width:0.35;stroke-miterlimit:4;stroke-dasharray:none;fill:none;fill-opacity:1;fill-rule: evenodd"/>
<path id="Shape2DView_nwe0127"  d="M -2.585833333333 1.6275000000000002 L -2.585833333333 1.627389963673132 L -2.585833333333 1.627061238463182 L -2.585833333333 1.6265179582803966 L -2.585833333333 1.6257669551882925 L -2.585833333333 1.624817673486495 L -2.585833333333 1.6236820509431906 L -2.585833333333 1.6223743686707648 L -2.585833333333 1.620911071532528 L -2.585833333333 1.6193105613390184 L -2.585833333333 1.6175929654345573 L -2.585833333333 1.6157798835842154 L -2.585833333333 1.6138941163442355 L -2.585833333333 1.611959378331808 L -2.585833333333 1.61 " stroke="#191919" stroke-width="0.35 px" style="stroke-width:0.35;stroke-miterlimit:4;stroke-dasharray:none;fill:none;fill-opacity:1;fill-rule: evenodd"/>
<path id="Shape2DView_nwe0128"  d="M 2.8775 1.335833333333 L 2.8773899636731315 1.335833333333 L 2.877061238463182 1.335833333333 L 2.876517958280396 1.335833333333 L 2.875766955188292 1.335833333333 L 2.8748176734864948 1.335833333333 L 2.87368205094319 1.335833333333 L 2.8723743686707643 1.335833333333 L 2.870911071532528 1.335833333333 L 2.8693105613390184 1.335833333333 L 2.8675929654345573 1.335833333333 L 2.8657798835842154 1.335833333333 L 2.8638941163442353 1.335833333333 L 2.861959378331808 1.335833333333 L 2.86 1.335833333333 " stroke="#191919" stroke-width="0.35 px" style="stroke-width:0.35;stroke-miterlimit:4;stroke-dasharray:none;fill:none;fill-opacity:1;fill-rule: evenodd"/>
<path id="Shape2DView_nwe0129"  d="M 2.585833333333 1.6275000000000002 L 2.585833333333 1.627389963673132 L 2.585833333333 1.627061238463182 L 2.585833333333 1.6265179582803966 L 2.585833333333 1.6257669551882925 L 2.585833333333 1.624817673486495 L 2.585833333333 1.6236820509431906 L 2.585833333333 1.6223743686707648 L 2.585833333333 1.620911071532528 L 2.585833333333 1.6193105613390184 L 2.585833333333 1.6175929654345573 L 2.585833333333 1.6157798835842154 L 2.585833333333 1.6138941163442355 L 2.585833333333 1.611959378331808 L 2.585833333333 1.61 " stroke="#191919" stroke-width="0.35 px" style="stroke-width:0.35;stroke-miterlimit:4;stroke-dasharray:none;fill:none;fill-opacity:1;fill-rule: evenodd"/>
<path id="Shape2DView_nwe0130"  d="M -2.895 -1.335833333333 L -2.893040621668192 -1.335833333333 L -2.8911058836557646 -1.335833333333 L -2.8892201164157845 -1.335833333333 L -2.8874070345654426 -1.335833333333 L -2.8856894386609815 -1.335833333333 L -2.884088928467472 -1.335833333333 L -2.8826256313292355 -1.335833333333 L -2.8813179490568097 -1.335833333333 L -2.880182326513505 -1.335833333333 L -2.879233044811708 -1.335833333333 L -2.8784820417196038 -1.335833333333 L -2.877938761536818 -1.335833333333 L -2.8776100363268684 -1.335833333333 L -2.8775 -1.335833333333 " stroke="#191919" stroke-width="0.35 px" style="stroke-width:0.35;stroke-miterlimit:4;stroke-dasharray:none;fill:none;fill-opacity:1;fill-rule: evenodd"/>
<path id="Shape2DView_nwe0131"  d="M -2.895 -1.335833333333 A 0.309167 0.309167 0 0 1 -2.58583 -1.645" stroke="#191919" stroke-width="0.35 px" style="stroke-width:0.35;stroke-miterlimit:4;stroke-dasharray:none;fill:none;fill-opacity:1;fill-rule: evenodd"/>
<path id="Shape2DView_nwe0132"  d="M -2.585833333333 -1.645 L -2.585833333333 -1.643040621668192 L -2.585833333333 -1.6411058836557646 L -2.585833333333 -1.6392201164157847 L -2.585833333333 -1.6374070345654428 L -2.585833333333 -1.6356894386609817 L -2.585833333333 -1.6340889284674722 L -2.585833333333 -1.6326256313292353 L -2.585833333333 -1.6313179490568095 L -2.585833333333 -1.6301823265135051 L -2.585833333333 -1.6292330448117076 L -2.585833333333 -1.6284820417196035 L -2.585833333333 -1.6279387615368182 L -2.585833333333 -1.6276100363268682 L -2.585833333333 -1.6275 " stroke="#191919" stroke-width="0.35 px" style="stroke-width:0.35;stroke-miterlimit:4;stroke-dasharray:none;fill:none;fill-opacity:1;fill-rule: evenodd"/>
<path id="Shape2DView_nwe0133"  d="M -2.585833333333 -1.645 L 2.585833333333 -1.645 " stroke="#191919" stroke-width="0.35 px" style="stroke-width:0.35;stroke-miterlimit:4;stroke-dasharray:none;fill:none;fill-opacity:1;fill-rule: evenodd"/>
<path id="Shape2DView_nwe0134"  d="M 2.585833333333 -1.645 L 2.585833333333 -1.643040621668192 L 2.585833333333 -1.6411058836557646 L 2.585833333333 -1.6392201164157847 L 2.585833333333 -1.6374070345654428 L 2.585833333333 -1.6356894386609817 L 2.585833333333 -1.6340889284674722 L 2.585833333333 -1.6326256313292353 L 2.585833333333 -1.6313179490568095 L 2.585833333333 -1.6301823265135051 L 2.585833333333 -1.6292330448117076 L 2.585833333333 -1.6284820417196035 L 2.585833333333 -1.6279387615368182 L 2.585833333333 -1.6276100363268682 L 2.585833333333 -1.6275 " stroke="#191919" stroke-width="0.35 px" style="stroke-width:0.35;stroke-miterlimit:4;stroke-dasharray:none;fill:none;fill-opacity:1;fill-rule: evenodd"/>
<path id="Shape2DView_nwe0135"  d="M -2.895 1.335833333333 L -2.895 -1.335833333333 " stroke="#191919" stroke-width="0.35 px" style="stroke-width:0.35;stroke-miterlimit:4;stroke-dasharray:none;fill:none;fill-opacity:1;fill-rule: evenodd"/>
<path id="Shape2DView_nwe0136"  d="M -2.895 1.335833333333 L -2.893040621668192 1.335833333333 L -2.8911058836557646 1.335833333333 L -2.8892201164157845 1.335833333333 L -2.8874070345654426 1.335833333333 L -2.8856894386609815 1.335833333333 L -2.884088928467472 1.335833333333 L -2.8826256313292355 1.335833333333 L -2.8813179490568097 1.335833333333 L -2.880182326513505 1.335833333333 L -2.879233044811708 1.335833333333 L -2.8784820417196038 1.335833333333 L -2.877938761536818 1.335833333333 L -2.8776100363268684 1.335833333333 L -2.8775 1.335833333333 " stroke="#191919" stroke-width="0.35 px" style="stroke-width:0.35;stroke-miterlimit:4;stroke-dasharray:none;fill:none;fill-opacity:1;fill-rule: evenodd"/>
<path id="Shape2DView_nwe0137"  d="M 2.585833333333 -1.645 A 0.309167 0.309167 0 0 1 2.895 -1.33583" stroke="#191919" stroke-width="0.35 px" style="stroke-width:0.35;stroke-miterlimit:4;stroke-dasharray:none;fill:none;fill-opacity:1;fill-rule: evenodd"/>
<path id="Shape2DView_nwe0138"  d="M 2.895 -1.335833333333 L 2.893040621668192 -1.335833333333 L 2.8911058836557646 -1.335833333333 L 2.8892201164157845 -1.335833333333 L 2.8874070345654426 -1.335833333333 L 2.8856894386609815 -1.335833333333 L 2.884088928467472 -1.335833333333 L 2.8826256313292355 -1.335833333333 L 2.8813179490568097 -1.335833333333 L 2.880182326513505 -1.335833333333 L 2.879233044811708 -1.335833333333 L 2.8784820417196038 -1.335833333333 L 2.877938761536818 -1.335833333333 L 2.8776100363268684 -1.335833333333 L 2.8775 -1.335833333333 " stroke="#191919" stroke-width="0.35 px" style="stroke-width:0.35;stroke-miterlimit:4;stroke-dasharray:none;fill:none;fill-opacity:1;fill-rule: evenodd"/>
<path id="Shape2DView_nwe0139"  d="M -2.585833333333 1.645 L -2.585833333333 1.643040621668192 L -2.585833333333 1.6411058836557646 L -2.585833333333 1.6392201164157847 L -2.585833333333 1.6374070345654428 L -2.585833333333 1.6356894386609817 L -2.585833333333 1.6340889284674722 L -2.585833333333 1.6326256313292353 L -2.585833333333 1.6313179490568095 L -2.585833333333 1.6301823265135051 L -2.585833333333 1.6292330448117076 L -2.585833333333 1.6284820417196035 L -2.585833333333 1.6279387615368182 L -2.585833333333 1.6276100363268682 L -2.585833333333 1.6275 " stroke="#191919" stroke-width="0.35 px" style="stroke-width:0.35;stroke-miterlimit:4;stroke-dasharray:none;fill:none;fill-opacity:1;fill-rule: evenodd"/>
<path id="Shape2DView_nwe0140"  d="M -2.585833333333 1.645 A 0.309167 0.309167 0 0 1 -2.895 1.33583" stroke="#191919" stroke-width="0.35 px" style="stroke-width:0.35;stroke-miterlimit:4;stroke-dasharray:none;fill:none;fill-opacity:1;fill-rule: evenodd"/>
<path id="Shape2DView_nwe0141"  d="M 2.895 -1.335833333333 L 2.895 1.335833333333 " stroke="#191919" stroke-width="0.35 px" style="stroke-width:0.35;stroke-miterlimit:4;stroke-dasharray:none;fill:none;fill-opacity:1;fill-rule: evenodd"/>
<path id="Shape2DView_nwe0142"  d="M 2.895 1.335833333333 L 2.893040621668192 1.335833333333 L 2.8911058836557646 1.335833333333 L 2.8892201164157845 1.335833333333 L 2.8874070345654426 1.335833333333 L 2.8856894386609815 1.335833333333 L 2.884088928467472 1.335833333333 L 2.8826256313292355 1.335833333333 L 2.8813179490568097 1.335833333333 L 2.880182326513505 1.335833333333 L 2.879233044811708 1.335833333333 L 2.8784820417196038 1.335833333333 L 2.877938761536818 1.335833333333 L 2.8776100363268684 1.335833333333 L 2.8775 1.335833333333 " stroke="#191919" stroke-width="0.35 px" style="stroke-width:0.35;stroke-miterlimit:4;stroke-dasharray:none;fill:none;fill-opacity:1;fill-rule: evenodd"/>
<path id="Shape2DView_nwe0143"  d="M 2.585833333333 1.645 L -2.585833333333 1.645 " stroke="#191919" stroke-width="0.35 px" style="stroke-width:0.35;stroke-miterlimit:4;stroke-dasharray:none;fill:none;fill-opacity:1;fill-rule: evenodd"/>
<path id="Shape2DView_nwe0144"  d="M 2.585833333333 1.645 L 2.585833333333 1.643040621668192 L 2.585833333333 1.6411058836557646 L 2.585833333333 1.6392201164157847 L 2.585833333333 1.6374070345654428 L 2.585833333333 1.6356894386609817 L 2.585833333333 1.6340889284674722 L 2.585833333333 1.6326256313292353 L 2.585833333333 1.6313179490568095 L 2.585833333333 1.6301823265135051 L 2.585833333333 1.6292330448117076 L 2.585833333333 1.6284820417196035 L 2.585833333333 1.6279387615368182 L 2.585833333333 1.6276100363268682 L 2.585833333333 1.6275 " stroke="#191919" stroke-width="0.35 px" style="stroke-width:0.35;stroke-miterlimit:4;stroke-dasharray:none;fill:none;fill-opacity:1;fill-rule: evenodd"/>
<path id="Shape2DView_nwe0145"  d="M 2.895 1.335833333333 A 0.309167 0.309167 0 0 1 2.58583 1.645" stroke="#191919" stroke-width="0.35 px" style="stroke-width:0.35;stroke-miterlimit:4;stroke-dasharray:none;fill:none;fill-opacity:1;fill-rule: evenodd"/>
<path id="Shape2DView_nwe0146"  d="M 2.866979533738 1.7325 L -2.866979533738 1.7325 " stroke="#191919" stroke-width="0.35 px" style="stroke-width:0.35;stroke-miterlimit:4;stroke-dasharray:none;fill:none;fill-opacity:1;fill-rule: evenodd"/>
<path id="Shape2DView_nwe0147"  d="M -2.866979533738096 1.7325000000000126 A 0.134167 0.134167 0 0 0 -2.9825 1.61698" stroke="#191919" stroke-width="0.35 px" style="stroke-width:0.35;stroke-miterlimit:4;stroke-dasharray:none;fill:none;fill-opacity:1;fill-rule: evenodd"/>
<path id="Shape2DView_nwe0148"  d="M -2.9825 1.616979533738 L -2.9825 -1.616979533738 " stroke="#191919" stroke-width="0.35 px" style="stroke-width:0.35;stroke-miterlimit:4;stroke-dasharray:none;fill:none;fill-opacity:1;fill-rule: evenodd"/>
<path id="Shape2DView_nwe0149"  d="M -2.9825000000000124 -1.616979533738096 A 0.134167 0.134167 0 0 0 -2.86698 -1.7325" stroke="#191919" stroke-width="0.35 px" style="stroke-width:0.35;stroke-miterlimit:4;stroke-dasharray:none;fill:none;fill-opacity:1;fill-rule: evenodd"/>
<path id="Shape2DView_nwe0150"  d="M -2.866979533738 -1.7325 L 2.866979533738 -1.7325 " stroke="#191919" stroke-width="0.35 px" style="stroke-width:0.35;stroke-miterlimit:4;stroke-dasharray:none;fill:none;fill-opacity:1;fill-rule: evenodd"/>
<path id="Shape2DView_nwe0151"  d="M 2.866979533738096 -1.7325000000000126 A 0.134167 0.134167 0 0 0 2.9825 -1.61698" stroke="#191919" stroke-width="0.35 px" style="stroke-width:0.35;stroke-miterlimit:4;stroke-dasharray:none;fill:none;fill-opacity:1;fill-rule: evenodd"/>
<path id="Shape2DView_nwe0152"  d="M 2.9825 -1.616979533738 L 2.9825 1.616979533738 " stroke="#191919" stroke-width="0.35 px" style="stroke-width:0.35;stroke-miterlimit:4;stroke-dasharray:none;fill:none;fill-opacity:1;fill-rule: evenodd"/>
<path id="Shape2DView_nwe0153"  d="M 2.9825000000000124 1.616979533738096 A 0.134167 0.134167 0 0 0 2.86698 1.7325" stroke="#191919" stroke-width="0.35 px" style="stroke-width:0.35;stroke-miterlimit:4;stroke-dasharray:none;fill:none;fill-opacity:1;fill-rule: evenodd"/>
<path id="Shape2DView_nwe0154"  d="M -2.895 1.335833333333 A 0.309167 0.309167 0 0 0 -2.58583 1.645" stroke="#191919" stroke-width="0.35 px" style="stroke-width:0.35;stroke-miterlimit:4;stroke-dasharray:none;fill:none;fill-opacity:1;fill-rule: evenodd"/>
<path id="Shape2DView_nwe0155"  d="M 2.895 -1.335833333333 A 0.309167 0.309167 0 0 0 2.58583 -1.645" stroke="#191919" stroke-width="0.35 px" style="stroke-width:0.35;stroke-miterlimit:4;stroke-dasharray:none;fill:none;fill-opacity:1;fill-rule: evenodd"/>
<title>b'Shape2DView'</title>
</g>
<g id="Rectangle" transform="translate(3.060000,1.810000) scale(1,-1)">
<rect fill="#ff0000" id="origin" width="1" height="1" x="0" y="0" />
<title>b'Rectangle'</title>
</g>
</svg>