<?xml version="1.0"?>
<!DOCTYPE svg PUBLIC "-//W3C//DTD SVG 1.1//EN" "http://www.w3.org/Graphics/SVG/1.1/DTD/svg11.dtd">
<svg width="1.6830000000002523mm" height="1.5308670881475201mm" viewBox="0 0 1.6830000000002523 1.5308670881475201" xmlns="http://www.w3.org/2000/svg" version="1.1">
<g id="Shape2DView" transform="translate(0.091500,1.016500) scale(1,-1)">
<circle cx="0.75" cy="2.16271445197e-15" r="0.5" stroke="#191919" stroke-width="0.35 px" style="stroke-width:0.35;stroke-miterlimit:4;stroke-dasharray:none;fill:none"/>
<path id="Shape2DView_nwe0001"  d="M 1.2443429983321295 -0.07500000000000027 L 1.500150000000385 -0.07500000000000051 " stroke="#191919" stroke-width="0.35 px" style="stroke-width:0.35;stroke-miterlimit:4;stroke-dasharray:none;fill:none;fill-opacity:1;fill-rule: evenodd"/>
<path id="Shape2DView_nwe0002"  d="M 1.499849999999781 0.07499999999999998 L 1.2443429983321301 0.07500000000000023 " stroke="#191919" stroke-width="0.35 px" style="stroke-width:0.35;stroke-miterlimit:4;stroke-dasharray:none;fill:none;fill-opacity:1;fill-rule: evenodd"/>
<path id="Shape2DView_nwe0003"  d="M 1.2443429983321301 0.07499999999999972 L 1.500150000000385 0.07499999999999948 " stroke="#191919" stroke-width="0.35 px" style="stroke-width:0.35;stroke-miterlimit:4;stroke-dasharray:none;fill:none;fill-opacity:1;fill-rule: evenodd"/>
<path id="Shape2DView_nwe0004"  d="M 0.2556570016678699 0.07499999999999972 L -0.00015000000038478678 0.07499999999999948 " stroke="#191919" stroke-width="0.35 px" style="stroke-width:0.35;stroke-miterlimit:4;stroke-dasharray:none;fill:none;fill-opacity:1;fill-rule: evenodd"/>
<path id="Shape2DView_nwe0005"  d="M 0.25565700166787064 -0.07500000000000027 L -0.00015000000038478678 -0.07500000000000051 " stroke="#191919" stroke-width="0.35 px" style="stroke-width:0.35;stroke-miterlimit:4;stroke-dasharray:none;fill:none;fill-opacity:1;fill-rule: evenodd"/>
<path id="Shape2DView_nwe0006"  d="M 1.575 0.00014999999999999736 L 1.575 -0.0001499999999999002 " stroke="#191919" stroke-width="0.35 px" style="stroke-width:0.35;stroke-miterlimit:4;stroke-dasharray:none;fill:none;fill-opacity:1;fill-rule: evenodd"/>
<path id="Shape2DView_nwe0007"  d="M 1.5749999999999948 -0.00014999999999997532 L 1.574529358910504 -0.008530541036332568 L 1.5731233542268044 -0.016805691906630112 L 1.5707996672735764 -0.024871387787344233 L 1.5675875197624913 -0.0326261978729492 L 1.5635273063122328 -0.03997260092717292 L 1.558670086462728 -0.04681821166912618 L 1.5530769425718094 -0.053076942571813064 L 1.5468182116691231 -0.058670086462732016 L 1.5399726009271704 -0.06352730631223705 L 1.532626197872947 -0.06758751976249606 L 1.5248713877873425 -0.07079966727358131 L 1.516805691906629 -0.07312335422680949 L 1.508530541036332 -0.0745293589105092 L 1.50015 -0.075 " stroke="#191919" stroke-width="0.35 px" style="stroke-width:0.35;stroke-miterlimit:4;stroke-dasharray:none;fill:none;fill-opacity:1;fill-rule: evenodd"/>
<path id="Shape2DView_nwe0008"  d="M 1.5749999999999948 0.00015000000000001546 L 1.574529358910504 0.00853054103633261 L 1.5731233542268044 0.016805691906630147 L 1.5707996672735764 0.02487138778734427 L 1.5675875197624913 0.032626197872949236 L 1.5635273063122328 0.039972600927172953 L 1.558670086462728 0.04681821166912621 L 1.5530769425718094 0.05307694257181309 L 1.546818211669123 0.058670086462732036 L 1.5399726009271701 0.06352730631223708 L 1.532626197872947 0.06758751976249606 L 1.5248713877873425 0.07079966727358131 L 1.516805691906629 0.07312335422680949 L 1.508530541036332 0.0745293589105092 L 1.50015 0.075 " stroke="#191919" stroke-width="0.35 px" style="stroke-width:0.35;stroke-miterlimit:4;stroke-dasharray:none;fill:none;fill-opacity:1;fill-rule: evenodd"/>
<path id="Shape2DView_nwe0009"  d="M -0.07499999999999464 0.00015000000000010632 L -0.07452935891050388 0.008530541036332698 L -0.07312335422680429 0.01680569190663024 L -0.07079966727357624 0.02487138778734436 L -0.06758751976249124 0.032626197872949333 L -0.06352730631223252 0.03997260092717305 L -0.05867008646272783 0.04681821166912631 L -0.053076942571809275 0.053076942571813196 L -0.046818211669122846 0.058670086462732134 L -0.03997260092717006 0.06352730631223717 L -0.032626197872946856 0.06758751976249616 L -0.024871387787342433 0.0707996672735814 L -0.016805691906628877 0.07312335422680959 L -0.00853054103633192 0.0745293589105093 L -0.00014999999999991374 0.0750000000000001 " stroke="#191919" stroke-width="0.35 px" style="stroke-width:0.35;stroke-miterlimit:4;stroke-dasharray:none;fill:none;fill-opacity:1;fill-rule: evenodd"/>
<path id="Shape2DView_nwe0010"  d="M -0.07499999999999464 -0.0001499999999999845 L -0.07452935891050388 -0.008530541036332578 L -0.07312335422680429 -0.01680569190663012 L -0.07079966727357624 -0.024871387787344244 L -0.06758751976249124 -0.03262619787294921 L -0.06352730631223251 -0.039972600927172926 L -0.058670086462727825 -0.046818211669126183 L -0.05307694257180927 -0.053076942571813064 L -0.04681821166912283 -0.05867008646273202 L -0.039972600927170046 -0.06352730631223705 L -0.03262619787294685 -0.06758751976249606 L -0.024871387787342426 -0.07079966727358131 L -0.016805691906628867 -0.07312335422680949 L -0.008530541036331909 -0.0745293589105092 L -0.00014999999999990458 -0.075 " stroke="#191919" stroke-width="0.35 px" style="stroke-width:0.35;stroke-miterlimit:4;stroke-dasharray:none;fill:none;fill-opacity:1;fill-rule: evenodd"/>
<path id="Shape2DView_nwe0011"  d="M -0.075 0.0001500000000000945 L -0.075 -0.0001499999999999002 " stroke="#191919" stroke-width="0.35 px" style="stroke-width:0.35;stroke-miterlimit:4;stroke-dasharray:none;fill:none;fill-opacity:1;fill-rule: evenodd"/>
<circle cx="0.75" cy="2.16271445197e-15" r="0.5" stroke="#191919" stroke-width="0.35 px" style="stroke-width:0.35;stroke-miterlimit:4;stroke-dasharray:none;fill:none"/>
<circle cx="0.75" cy="2.207123372955e-15" r="0.4" stroke="#191919" stroke-width="0.35 px" style="stroke-width:0.35;stroke-miterlimit:4;stroke-dasharray:none;fill:none"/>
<path id="Shape2DView_nwe0014"  d="M 1.2499999774999995 -0.000149999999999618 L 1.5750000000001236 -0.0001499999999999329 " stroke="#191919" stroke-width="0.35 px" style="stroke-width:0.35;stroke-miterlimit:4;stroke-dasharray:none;fill:none;fill-opacity:1;fill-rule: evenodd"/>
<path id="Shape2DView_nwe0015"  d="M 1.2499999774999995 0.000150000000000382 L 1.5750000000001236 0.0001500000000000671 " stroke="#191919" stroke-width="0.35 px" style="stroke-width:0.35;stroke-miterlimit:4;stroke-dasharray:none;fill:none;fill-opacity:1;fill-rule: evenodd"/>
<path id="Shape2DView_nwe0016"  d="M 0.25000002250000053 0.000150000000000382 L -0.07500000000012386 0.0001500000000000671 " stroke="#191919" stroke-width="0.35 px" style="stroke-width:0.35;stroke-miterlimit:4;stroke-dasharray:none;fill:none;fill-opacity:1;fill-rule: evenodd"/>
<path id="Shape2DView_nwe0017"  d="M 0.25000002250000053 -0.000149999999999618 L -0.07500000000012386 -0.0001499999999999329 " stroke="#191919" stroke-width="0.35 px" style="stroke-width:0.35;stroke-miterlimit:4;stroke-dasharray:none;fill:none;fill-opacity:1;fill-rule: evenodd"/>
<path id="Shape2DView_nwe0018"  d="M 0.35 3.31068505943251e-15 L 0.3388035523896692 3.3102662084714782e-15 L 0.32774790660436853 3.30901492288224e-15 L 0.31697209380448327 3.306946938307094e-15 L 0.30661162608824416 3.304088260851944e-15 L 0.29679679234846634 3.3004748400444327e-15 L 0.2876510198141266 3.29615211674777e-15 L 0.27928932188134525 3.2911744517155135e-15 L 0.271816851753197 3.285604441973553e-15 L 0.26532758007717155 3.279512133626188e-15 L 0.25990311320975806 3.2729741409857263e-15 L 0.2556116669691632 3.2660726831030535e-15 L 0.2525072087818176 3.258894549815364e-15 L 0.2506287790106757 3.2515300103135992e-15 L 0.24999999999999997 3.244071677955e-15 " stroke="#191919" stroke-width="0.35 px" style="stroke-width:0.35;stroke-miterlimit:4;stroke-dasharray:none;fill:none;fill-opacity:1;fill-rule: evenodd"/>
<title>b'Shape2DView'</title>
</g>
<g id="Rectangle" transform="translate(0.091500,1.016500) scale(1,-1)">
<rect fill="#ff0000" id="origin" width="1" height="1" x="0" y="0" />
<title>b'Rectangle'</title>
</g>
</svg>