<?xml version="1.0"?>
<!DOCTYPE svg PUBLIC "-//W3C//DTD SVG 1.1//EN" "http://www.w3.org/Graphics/SVG/1.1/DTD/svg11.dtd">
<svg width="19.686mm" height="23.586000000000006mm" viewBox="0 0 19.686 23.586000000000006" xmlns="http://www.w3.org/2000/svg" version="1.1">
<g id="Shape2DView" transform="translate(3.668000,1.193000) scale(1,-1)">
<path id="Shape2DView_nwe0000"  d="M 0.45 0.0 L 0.45 -0.003929868816723414 L 0.45 -0.015670054886360196 L 0.45 -0.03507291855727024 L 0.45 -0.06189445756098799 L 0.45 -0.09579737548232248 L 0.45 -0.13635532345748136 L 0.45 -0.18305826175840778 L 0.45 -0.23531887383829153 L 0.45 -0.29247995217791467 L 0.45 -0.35382266305152615 L 0.45 -0.4185755862780205 L 0.45 -0.4859244162773035 L 0.45 -0.5550222024354325 L 0.45 -0.625 " stroke="#191919" stroke-width="0.35 px" style="stroke-width:0.35;stroke-miterlimit:4;stroke-dasharray:none;fill:none;fill-opacity:1;fill-rule: evenodd"/>
<path id="Shape2DView_nwe0001"  d="M 0.45 0.0 A 0.45 0.45 0 0 1 -0.45 5.51091e-17" stroke="#191919" stroke-width="0.35 px" style="stroke-width:0.35;stroke-miterlimit:4;stroke-dasharray:none;fill:none;fill-opacity:1;fill-rule: evenodd"/>
<path id="Shape2DView_nwe0002"  d="M 0.45 -0.625 L 0.45 -2.5 " stroke="#191919" stroke-width="0.35 px" style="stroke-width:0.35;stroke-miterlimit:4;stroke-dasharray:none;fill:none;fill-opacity:1;fill-rule: evenodd"/>
<path id="Shape2DView_nwe0003"  d="M 0.9750000000000002 -2.500000000000001 L 0.47675808134028025 -2.500000000000001 L -0.015218156105598846 -2.500000000000001 L -0.4947418257004931 -2.500000000000001 L -0.9557826390731335 -2.500000000000001 L -1.3925427404932473 -2.500000000000001 L -1.799529618271364 -2.500000000000001 L -2.1716251762801364 -2.500000000000001 L -2.5041500969827326 -2.5000000000000004 L -2.7929226865658645 -2.5000000000000004 L -3.0343114621657645 -2.5000000000000004 L -3.225280819872236 -2.5000000000000004 L -3.3634292092091154 -2.5 L -3.44701933402493 -2.5 L -3.475 -2.5 " stroke="#191919" stroke-width="0.35 px" style="stroke-width:0.35;stroke-miterlimit:4;stroke-dasharray:none;fill:none;fill-opacity:1;fill-rule: evenodd"/>
<path id="Shape2DView_nwe0004"  d="M 0.975 -2.5 L 11.375 -2.5 " stroke="#191919" stroke-width="0.35 px" style="stroke-width:0.35;stroke-miterlimit:4;stroke-dasharray:none;fill:none;fill-opacity:1;fill-rule: evenodd"/>
<path id="Shape2DView_nwe0005"  d="M 15.825 -2.5 L 15.797019334024931 -2.5 L 15.713429209209115 -2.5 L 15.575280819872237 -2.5000000000000004 L 15.384311462165766 -2.5000000000000004 L 15.142922686565866 -2.5000000000000004 L 14.854150096982734 -2.5000000000000004 L 14.521625176280137 -2.500000000000001 L 14.149529618271366 -2.500000000000001 L 13.74254274049325 -2.500000000000001 L 13.305782639073135 -2.500000000000001 L 12.844741825700495 -2.500000000000001 L 12.3652181561056 -2.500000000000001 L 11.873241918659721 -2.500000000000001 L 11.375000000000002 -2.500000000000001 " stroke="#191919" stroke-width="0.35 px" style="stroke-width:0.35;stroke-miterlimit:4;stroke-dasharray:none;fill:none;fill-opacity:1;fill-rule: evenodd"/>
<path id="Shape2DView_nwe0006"  d="M 12.8 -0.625 L 12.8 -2.5 " stroke="#191919" stroke-width="0.35 px" style="stroke-width:0.35;stroke-miterlimit:4;stroke-dasharray:none;fill:none;fill-opacity:1;fill-rule: evenodd"/>
<path id="Shape2DView_nwe0007"  d="M 0.9750000000000002 -3.000000000000001 L 0.47675808134028025 -3.000000000000001 L -0.015218156105598846 -3.000000000000001 L -0.4947418257004931 -3.000000000000001 L -0.9557826390731335 -3.000000000000001 L -1.3925427404932473 -3.000000000000001 L -1.799529618271364 -3.000000000000001 L -2.1716251762801364 -3.000000000000001 L -2.5041500969827326 -3.0000000000000004 L -2.7929226865658645 -3.0000000000000004 L -3.0343114621657645 -3.0000000000000004 L -3.225280819872236 -3.0000000000000004 L -3.3634292092091154 -3.0 L -3.44701933402493 -3.0 L -3.475 -3.0 " stroke="#191919" stroke-width="0.35 px" style="stroke-width:0.35;stroke-miterlimit:4;stroke-dasharray:none;fill:none;fill-opacity:1;fill-rule: evenodd"/>
<path id="Shape2DView_nwe0008"  d="M 0.975 -3.0 L 11.375 -3.0 " stroke="#191919" stroke-width="0.35 px" style="stroke-width:0.35;stroke-miterlimit:4;stroke-dasharray:none;fill:none;fill-opacity:1;fill-rule: evenodd"/>
<path id="Shape2DView_nwe0009"  d="M 15.825 -3.0 L 15.797019334024931 -3.0 L 15.713429209209115 -3.0 L 15.575280819872237 -3.0000000000000004 L 15.384311462165766 -3.0000000000000004 L 15.142922686565866 -3.0000000000000004 L 14.854150096982734 -3.0000000000000004 L 14.521625176280137 -3.000000000000001 L 14.149529618271366 -3.000000000000001 L 13.74254274049325 -3.000000000000001 L 13.305782639073135 -3.000000000000001 L 12.844741825700495 -3.000000000000001 L 12.3652181561056 -3.000000000000001 L 11.873241918659721 -3.000000000000001 L 11.375000000000002 -3.000000000000001 " stroke="#191919" stroke-width="0.35 px" style="stroke-width:0.35;stroke-miterlimit:4;stroke-dasharray:none;fill:none;fill-opacity:1;fill-rule: evenodd"/>
<path id="Shape2DView_nwe0010"  d="M 12.8 0.0 L 12.8 -0.003929868816723414 L 12.8 -0.015670054886360196 L 12.8 -0.03507291855727024 L 12.8 -0.06189445756098799 L 12.8 -0.09579737548232248 L 12.8 -0.13635532345748136 L 12.8 -0.18305826175840778 L 12.8 -0.23531887383829153 L 12.8 -0.29247995217791467 L 12.8 -0.35382266305152615 L 12.8 -0.4185755862780205 L 12.8 -0.4859244162773035 L 12.8 -0.5550222024354325 L 12.8 -0.625 " stroke="#191919" stroke-width="0.35 px" style="stroke-width:0.35;stroke-miterlimit:4;stroke-dasharray:none;fill:none;fill-opacity:1;fill-rule: evenodd"/>
<path id="Shape2DView_nwe0011"  d="M 12.799999999999999 0.0 A 0.45 0.45 0 0 1 11.9 5.51091e-17" stroke="#191919" stroke-width="0.35 px" style="stroke-width:0.35;stroke-miterlimit:4;stroke-dasharray:none;fill:none;fill-opacity:1;fill-rule: evenodd"/>
<path id="Shape2DView_nwe0012"  d="M 0.9750000000003719 -22.200000000000003 L 0.5719278860284718 -22.200000000000003 L 0.1739246377576512 -22.200000000000003 L -0.21400462303822054 -22.200000000000003 L -0.5869814608228364 -22.200000000000003 L -0.9403154754548525 -22.2 L -1.2695632866911004 -22.2 L -1.5705844122712564 -22.2 L -1.8395933368846236 -22.2 L -2.0732071172215747 -22.2 L -2.268487924448502 -22.2 L -2.422979989109962 -22.2 L -2.5347404838544545 -22.2 L -2.6023639556156164 -22.2 L -2.625 -22.2 " stroke="#191919" stroke-width="0.35 px" style="stroke-width:0.35;stroke-miterlimit:4;stroke-dasharray:none;fill:none;fill-opacity:1;fill-rule: evenodd"/>
<path id="Shape2DView_nwe0013"  d="M 11.375 -22.2 L 0.9749999999999996 -22.2 " stroke="#191919" stroke-width="0.35 px" style="stroke-width:0.35;stroke-miterlimit:4;stroke-dasharray:none;fill:none;fill-opacity:1;fill-rule: evenodd"/>
<path id="Shape2DView_nwe0014"  d="M 14.975 -22.2 L 14.952363955615622 -22.2 L 14.884740483854477 -22.2 L 14.772979989110015 -22.2 L 14.618487924448594 -22.2 L 14.423207117221716 -22.2 L 14.189593336884823 -22.2 L 13.92058441227152 -22.2 L 13.619563286691434 -22.2 L 13.290315475455259 -22.2 L 12.936981460823317 -22.200000000000003 L 12.564004623038775 -22.200000000000003 L 12.176075362242972 -22.200000000000003 L 11.778072113972218 -22.200000000000003 L 11.375000000000373 -22.200000000000003 " stroke="#191919" stroke-width="0.35 px" style="stroke-width:0.35;stroke-miterlimit:4;stroke-dasharray:none;fill:none;fill-opacity:1;fill-rule: evenodd"/>
<path id="Shape2DView_nwe0016"  d="M -0.45 -0.625 L -0.43871756048182065 -0.625 L -0.4054359905560887 -0.625 L -0.3518241671106135 -0.625 L -0.2805704108364302 -0.625 L -0.19524768260290126 -0.625 L -0.10013442028034159 -0.625 L -1.1021821192326179e-16 -0.625 L 0.10013442028034138 -0.625 L 0.19524768260290107 -0.625 L 0.28057041083643003 -0.625 L 0.3518241671106133 -0.625 L 0.4054359905560886 -0.625 L 0.4387175604818206 -0.625 L 0.45 -0.625 " stroke="#191919" stroke-width="0.35 px" style="stroke-width:0.35;stroke-miterlimit:4;stroke-dasharray:none;fill:none;fill-opacity:1;fill-rule: evenodd"/>
<path id="Shape2DView_nwe0017"  d="M 11.9 -0.625 L 11.911282439518178 -0.625 L 11.94456400944391 -0.625 L 11.998175832889386 -0.625 L 12.069429589163569 -0.625 L 12.154752317397099 -0.625 L 12.249865579719659 -0.625 L 12.35 -0.625 L 12.45013442028034 -0.625 L 12.5452476826029 -0.625 L 12.63057041083643 -0.625 L 12.701824167110614 -0.625 L 12.755435990556089 -0.625 L 12.788717560481821 -0.625 L 12.799999999999999 -0.625 " stroke="#191919" stroke-width="0.35 px" style="stroke-width:0.35;stroke-miterlimit:4;stroke-dasharray:none;fill:none;fill-opacity:1;fill-rule: evenodd"/>
<path id="Shape2DView_nwe0018"  d="M 0.975 -2.5 L 0.975 -3.0 " stroke="#191919" stroke-width="0.35 px" style="stroke-width:0.35;stroke-miterlimit:4;stroke-dasharray:none;fill:none;fill-opacity:1;fill-rule: evenodd"/>
<path id="Shape2DView_nwe0019"  d="M 11.375 -2.5 L 11.375 -3.0 " stroke="#191919" stroke-width="0.35 px" style="stroke-width:0.35;stroke-miterlimit:4;stroke-dasharray:none;fill:none;fill-opacity:1;fill-rule: evenodd"/>
<path id="Shape2DView_nwe0020"  d="M 0.9750000000003926 -22.000000000000004 L 0.5495349908077926 -22.000000000000004 L 0.1294204509663336 -22.000000000000004 L -0.28006043542934334 -22.000000000000004 L -0.6737582086464674 -22.000000000000004 L -1.0467218907580644 -22.000000000000004 L -1.3942612470630116 -22.0 L -1.712005768508741 -22.0 L -1.9959596333784075 -22.0 L -2.2425519570674046 -22.0 L -2.448681698029143 -22.0 L -2.611756655171768 -22.0 L -2.729726066290916 -22.0 L -2.8011063975943182 -22.0 L -2.8249999999999997 -22.0 " stroke="#191919" stroke-width="0.35 px" style="stroke-width:0.35;stroke-miterlimit:4;stroke-dasharray:none;fill:none;fill-opacity:1;fill-rule: evenodd"/>
<path id="Shape2DView_nwe0021"  d="M 0.975 -3.0 L 0.975 -22.0 " stroke="#191919" stroke-width="0.35 px" style="stroke-width:0.35;stroke-miterlimit:4;stroke-dasharray:none;fill:none;fill-opacity:1;fill-rule: evenodd"/>
<path id="Shape2DView_nwe0022"  d="M 11.375 -22.0 L 0.9749999999999996 -22.0 " stroke="#191919" stroke-width="0.35 px" style="stroke-width:0.35;stroke-miterlimit:4;stroke-dasharray:none;fill:none;fill-opacity:1;fill-rule: evenodd"/>
<path id="Shape2DView_nwe0023"  d="M 11.375 -3.0 L 11.375 -22.0 " stroke="#191919" stroke-width="0.35 px" style="stroke-width:0.35;stroke-miterlimit:4;stroke-dasharray:none;fill:none;fill-opacity:1;fill-rule: evenodd"/>
<path id="Shape2DView_nwe0024"  d="M 15.175 -22.0 L 15.151106397594326 -22.0 L 15.079726066290942 -22.0 L 14.961756655171826 -22.0 L 14.798681698029242 -22.0 L 14.592551957067554 -22.0 L 14.34595963337862 -22.0 L 14.062005768509021 -22.0 L 13.744261247063365 -22.0 L 13.396721890758496 -22.000000000000004 L 13.023758208646978 -22.000000000000004 L 12.63006043542993 -22.000000000000004 L 12.220579549034328 -22.000000000000004 L 11.800465009192939 -22.000000000000004 L 11.375000000000393 -22.000000000000004 " stroke="#191919" stroke-width="0.35 px" style="stroke-width:0.35;stroke-miterlimit:4;stroke-dasharray:none;fill:none;fill-opacity:1;fill-rule: evenodd"/>
<path id="Shape2DView_nwe0025"  d="M 0.975 -22.0 L 0.975 -22.022392895220662 L 0.975 -22.04450418679126 L 0.975 -22.066055812391035 L 0.975 -22.08677674782351 L 0.975 -22.106406415303066 L 0.975 -22.124697960371748 L 0.975 -22.14142135623731 L 0.975 -22.156366296493605 L 0.975 -22.169344839845657 L 0.975 -22.180193773580484 L 0.975 -22.188776666061674 L 0.975 -22.194985582436363 L 0.975 -22.19874244197865 L 0.975 -22.2 " stroke="#191919" stroke-width="0.35 px" style="stroke-width:0.35;stroke-miterlimit:4;stroke-dasharray:none;fill:none;fill-opacity:1;fill-rule: evenodd"/>
<path id="Shape2DView_nwe0026"  d="M 11.374999999999979 -22.0 L 11.374999999999979 -22.022392895220662 L 11.37499999999998 -22.04450418679126 L 11.37499999999998 -22.066055812391035 L 11.37499999999998 -22.08677674782351 L 11.374999999999982 -22.106406415303066 L 11.374999999999984 -22.124697960371748 L 11.374999999999986 -22.14142135623731 L 11.374999999999988 -22.156366296493605 L 11.37499999999999 -22.169344839845657 L 11.374999999999991 -22.180193773580484 L 11.374999999999993 -22.188776666061674 L 11.374999999999995 -22.194985582436363 L 11.374999999999998 -22.19874244197865 L 11.375 -22.2 " stroke="#191919" stroke-width="0.35 px" style="stroke-width:0.35;stroke-miterlimit:4;stroke-dasharray:none;fill:none;fill-opacity:1;fill-rule: evenodd"/>
<path id="Shape2DView_nwe0027"  d="M -0.45 -0.625 Q -0.45 -0.5191443998103904 -0.45000000000000007 -0.4132887996207809 Q -0.45000000000000007 -0.36218642070308743 -0.45 -0.31108404178539384 Q -0.45000000000000007 -0.011583040998080801 -0.45 -1.1102230246251565e-16 " stroke="#191919" stroke-width="0.35 px" style="stroke-width:0.35;stroke-miterlimit:4;stroke-dasharray:none;fill:none;fill-opacity:1;fill-rule: evenodd"/>
<path id="Shape2DView_nwe0028"  d="M -0.45 -0.625 L -0.45 -2.5 " stroke="#191919" stroke-width="0.35 px" style="stroke-width:0.35;stroke-miterlimit:4;stroke-dasharray:none;fill:none;fill-opacity:1;fill-rule: evenodd"/>
<path id="Shape2DView_nwe0029"  d="M 11.9 -0.625 L 11.9 -2.5 " stroke="#191919" stroke-width="0.35 px" style="stroke-width:0.35;stroke-miterlimit:4;stroke-dasharray:none;fill:none;fill-opacity:1;fill-rule: evenodd"/>
<path id="Shape2DView_nwe0030"  d="M -3.475 -3.0 L -3.475 -2.5 " stroke="#191919" stroke-width="0.35 px" style="stroke-width:0.35;stroke-miterlimit:4;stroke-dasharray:none;fill:none;fill-opacity:1;fill-rule: evenodd"/>
<path id="Shape2DView_nwe0031"  d="M 15.825 -3.0 L 15.825 -2.5 " stroke="#191919" stroke-width="0.35 px" style="stroke-width:0.35;stroke-miterlimit:4;stroke-dasharray:none;fill:none;fill-opacity:1;fill-rule: evenodd"/>
<path id="Shape2DView_nwe0032"  d="M 11.9 -0.625 Q 11.900000000000002 -0.5191443998103904 11.9 -0.4132887996207809 Q 11.900000000000002 -0.36218642070308743 11.9 -0.31108404178539384 Q 11.899999999999999 -0.011583040998080801 11.9 -1.1102230246251565e-16 " stroke="#191919" stroke-width="0.35 px" style="stroke-width:0.35;stroke-miterlimit:4;stroke-dasharray:none;fill:none;fill-opacity:1;fill-rule: evenodd"/>
<path id="Shape2DView_nwe0033"  d="M -2.8249999999999997 -22.0 L -2.8249999999999997 -3.0 " stroke="#191919" stroke-width="0.35 px" style="stroke-width:0.35;stroke-miterlimit:4;stroke-dasharray:none;fill:none;fill-opacity:1;fill-rule: evenodd"/>
<path id="Shape2DView_nwe0034"  d="M 15.175 -22.000000000000004 L 15.175 -3.0 " stroke="#191919" stroke-width="0.35 px" style="stroke-width:0.35;stroke-miterlimit:4;stroke-dasharray:none;fill:none;fill-opacity:1;fill-rule: evenodd"/>
<path id="Shape2DView_nwe0035"  d="M -2.825 -22.0 Q -2.8088852212050424 -22.180544343704717 -2.624999999999999 -22.200000000000003 " stroke="#191919" stroke-width="0.35 px" style="stroke-width:0.35;stroke-miterlimit:4;stroke-dasharray:none;fill:none;fill-opacity:1;fill-rule: evenodd"/>
<path id="Shape2DView_nwe0036"  d="M 15.175 -22.0 Q 15.158885221205043 -22.180544343704717 14.975 -22.200000000000003 " stroke="#191919" stroke-width="0.35 px" style="stroke-width:0.35;stroke-miterlimit:4;stroke-dasharray:none;fill:none;fill-opacity:1;fill-rule: evenodd"/>
<title>b'Shape2DView'</title>
</g>
<g id="Rectangle" transform="translate(3.668000,1.193000) scale(1,-1)">
<rect fill="#ff0000" id="origin" width="1" height="1" x="0" y="0" />
<title>b'Rectangle'</title>
</g>
</svg>