<?xml version="1.0"?>
<!DOCTYPE svg PUBLIC "-//W3C//DTD SVG 1.1//EN" "http://www.w3.org/Graphics/SVG/1.1/DTD/svg11.dtd">
<svg width="2.2434319453541285mm" height="9.093988861673612mm" viewBox="0 0 2.2434319453541285 9.093988861673612" xmlns="http://www.w3.org/2000/svg" version="1.1">
<g id="Shape2DView" transform="translate(0.171644,1.021994) scale(1,-1)">
<path id="Shape2DView_nwe0000"  d="M 0.025857049762793575 -0.1477545700733633 A 0.15 0.15 0 1 1 -0.147755 -0.0258572" stroke="#191919" stroke-width="0.35 px" style="stroke-width:0.35;stroke-miterlimit:4;stroke-dasharray:none;fill:none;fill-opacity:1;fill-rule: evenodd"/>
<path id="Shape2DView_nwe0001"  d="M 0.14775457007334292 0.025857049762909968 A 0.15 0.15 0 0 1 -0.147755 -0.025857" stroke="#191919" stroke-width="0.35 px" style="stroke-width:0.35;stroke-miterlimit:4;stroke-dasharray:none;fill:none;fill-opacity:1;fill-rule: evenodd"/>
<path id="Shape2DView_nwe0002"  d="M 2.0 -2.0000000000000004 L 1.973674307790915 -2.0 L 1.8960173112975403 -2.0 L 1.7709230565914313 -2.0 L 1.6046642919516703 -2.0 L 1.4055779260734362 -2.0 L 1.18364698065413 -2.0 L 0.9500000000000001 -1.9999999999999998 L 0.7163530193458699 -1.9999999999999998 L 0.494422073926564 -1.9999999999999998 L 0.29533570804832987 -1.9999999999999998 L 0.1290769434085688 -1.9999999999999998 L 0.00398268870245988 -1.9999999999999998 L -0.073674307790915 -1.9999999999999998 L -0.10000000000000009 -1.9999999999999998 " stroke="#191919" stroke-width="0.35 px" style="stroke-width:0.35;stroke-miterlimit:4;stroke-dasharray:none;fill:none;fill-opacity:1;fill-rule: evenodd"/>
<path id="Shape2DView_nwe0003"  d="M 2.047754570073363 -0.025857049762793387 A 0.15 0.15 0 1 1 1.75225 0.025857" stroke="#191919" stroke-width="0.35 px" style="stroke-width:0.35;stroke-miterlimit:4;stroke-dasharray:none;fill:none;fill-opacity:1;fill-rule: evenodd"/>
<path id="Shape2DView_nwe0004"  d="M 0.95 -8.05 L 1.0395715808826462 -8.05 L 1.1280167471650517 -8.05 L 1.2142232495641339 -8.05 L 1.2971069912940467 -8.05 L 1.3756256612122695 -8.05 L 1.4487918414869871 -8.05 L 1.5156854249492384 -8.05 L 1.5754651859744242 -8.05 L 1.6273793593826276 -8.05 L 1.6707750943219355 -8.05 L 1.7051066642466943 -8.05 L 1.729942329745459 -8.05 L 1.7449697679145941 -8.05 L 1.75 -8.05 " stroke="#191919" stroke-width="0.35 px" style="stroke-width:0.35;stroke-miterlimit:4;stroke-dasharray:none;fill:none;fill-opacity:1;fill-rule: evenodd"/>
<path id="Shape2DView_nwe0005"  d="M 1.75 -8.05 L 1.7299423297454586 -8.05 L 1.6707750943219348 -8.05 L 1.5754651859744233 -8.05 L 1.448791841486986 -8.05 L 1.2971069912940456 -8.05 L 1.1280167471650506 -8.05 L 0.949999999999999 -8.05 L 0.7719832528349475 -8.05 L 0.6028930087059525 -8.05 L 0.4512081585130123 -8.05 L 0.3245348140255757 -8.05 L 0.2292249056780643 -8.05 L 0.17005767025454088 -8.05 L 0.1499999999999999 -8.05 " stroke="#191919" stroke-width="0.35 px" style="stroke-width:0.35;stroke-miterlimit:4;stroke-dasharray:none;fill:none;fill-opacity:1;fill-rule: evenodd"/>
<path id="Shape2DView_nwe0006"  d="M 0.1499999999999999 -8.05 L 0.15503023208540578 -8.05 L 0.170057670254541 -8.05 L 0.1948933357533058 -8.05 L 0.22922490567806453 -8.05 L 0.27262064061737257 -8.05 L 0.32453481402557594 -8.05 L 0.38431457505076183 -8.05 L 0.451208158513013 -8.05 L 0.5243743387877304 -8.05 L 0.6028930087059532 -8.05 L 0.6857767504358661 -8.05 L 0.7719832528349482 -8.05 L 0.8604284191173535 -8.05 L 0.9499999999999997 -8.05 " stroke="#191919" stroke-width="0.35 px" style="stroke-width:0.35;stroke-miterlimit:4;stroke-dasharray:none;fill:none;fill-opacity:1;fill-rule: evenodd"/>
<circle cx="1.9" cy="1.705956548146e-17" r="0.15" stroke="#191919" stroke-width="0.35 px" style="stroke-width:0.35;stroke-miterlimit:4;stroke-dasharray:none;fill:none"/>
<path id="Shape2DView_nwe0010"  d="M -0.061564404197243294 -0.5183722833407935 L -0.05785988864082703 -0.5177239931184219 L -0.04693210185028679 -0.5158116304300806 L -0.02932900868576402 -0.5127310891262945 L -0.005933301742643671 -0.5086368404112556 L 0.022081860540981837 -0.5037341870116296 L 0.05331168094708146 -0.4982689684405717 L 0.08619016587611995 -0.492515233578 L 0.11906865080515847 -0.48676149871542823 L 0.15029847121125808 -0.4812962801443703 L 0.1783136334948836 -0.4763936267447444 L 0.20170934043800398 -0.47229937802970545 L 0.21931243360252675 -0.46921883672591935 L 0.230240220393067 -0.46730647403757813 L 0.23394473594948328 -0.4666581838152064 " stroke="#191919" stroke-width="0.35 px" style="stroke-width:0.35;stroke-miterlimit:4;stroke-dasharray:none;fill:none;fill-opacity:1;fill-rule: evenodd"/>
<path id="Shape2DView_nwe0011"  d="M 1.6660552640506368 -0.4666581838152064 L 1.6697597796070531 -0.46730647403757813 L 1.6806875663975933 -0.46921883672591935 L 1.6982906595621161 -0.47229937802970545 L 1.7216863665052364 -0.4763936267447444 L 1.749701528788862 -0.4812962801443703 L 1.7809313491949617 -0.48676149871542823 L 1.813809834124 -0.492515233578 L 1.8466883190530385 -0.49826896844057167 L 1.8779181394591382 -0.5037341870116296 L 1.9059333017427638 -0.5086368404112556 L 1.929329008685884 -0.5127310891262945 L 1.9469321018504069 -0.5158116304300806 L 1.957859888640947 -0.5177239931184219 L 1.9615644041973634 -0.5183722833407935 " stroke="#191919" stroke-width="0.35 px" style="stroke-width:0.35;stroke-miterlimit:4;stroke-dasharray:none;fill:none;fill-opacity:1;fill-rule: evenodd"/>
<path id="Shape2DView_nwe0012"  d="M 2.0 -7.8 L 1.973674307790915 -7.8 L 1.8960173112975403 -7.8 L 1.7709230565914313 -7.8 L 1.6046642919516703 -7.8 L 1.4055779260734362 -7.8 L 1.18364698065413 -7.8 L 0.9500000000000001 -7.8 L 0.7163530193458699 -7.8 L 0.494422073926564 -7.8 L 0.29533570804832987 -7.8 L 0.1290769434085688 -7.8 L 0.00398268870245988 -7.8 L -0.073674307790915 -7.8 L -0.10000000000000009 -7.8 " stroke="#191919" stroke-width="0.35 px" style="stroke-width:0.35;stroke-miterlimit:4;stroke-dasharray:none;fill:none;fill-opacity:1;fill-rule: evenodd"/>
<circle cx="1.9" cy="1.705956548146e-17" r="0.15" stroke="#191919" stroke-width="0.35 px" style="stroke-width:0.35;stroke-miterlimit:4;stroke-dasharray:none;fill:none"/>
<path id="Shape2DView_nwe0014"  d="M 2.0 -2.2000000000000006 L 1.973674307790915 -2.2 L 1.8960173112975403 -2.2 L 1.7709230565914313 -2.2 L 1.6046642919516703 -2.2 L 1.4055779260734362 -2.2 L 1.18364698065413 -2.2 L 0.9500000000000001 -2.2 L 0.7163530193458699 -2.2 L 0.494422073926564 -2.2 L 0.29533570804832987 -2.1999999999999997 L 0.1290769434085688 -2.1999999999999997 L 0.00398268870245988 -2.1999999999999997 L -0.073674307790915 -2.1999999999999997 L -0.10000000000000009 -2.1999999999999997 " stroke="#191919" stroke-width="0.35 px" style="stroke-width:0.35;stroke-miterlimit:4;stroke-dasharray:none;fill:none;fill-opacity:1;fill-rule: evenodd"/>
<path id="Shape2DView_nwe0015"  d="M 2.0 -2.3000000000000003 L 1.973674307790915 -2.3 L 1.8960173112975403 -2.3 L 1.7709230565914313 -2.3 L 1.6046642919516703 -2.3 L 1.4055779260734362 -2.3 L 1.18364698065413 -2.3 L 0.9500000000000001 -2.3 L 0.7163530193458699 -2.3 L 0.494422073926564 -2.3 L 0.29533570804832987 -2.2999999999999994 L 0.1290769434085688 -2.2999999999999994 L 0.00398268870245988 -2.2999999999999994 L -0.073674307790915 -2.2999999999999994 L -0.10000000000000009 -2.2999999999999994 " stroke="#191919" stroke-width="0.35 px" style="stroke-width:0.35;stroke-miterlimit:4;stroke-dasharray:none;fill:none;fill-opacity:1;fill-rule: evenodd"/>
<path id="Shape2DView_nwe0016"  d="M -0.061564404197243294 -0.5183722833407935 Q -0.14008417644310084 -0.06968787050654113 -0.14775457007322187 -0.025857049762915918 " stroke="#191919" stroke-width="0.35 px" style="stroke-width:0.35;stroke-miterlimit:4;stroke-dasharray:none;fill:none;fill-opacity:1;fill-rule: evenodd"/>
<path id="Shape2DView_nwe0017"  d="M 0.23394473594948328 -0.4666581838152064 Q 0.15542496370362574 -0.01797377098095295 0.14775457007350468 0.02585704976267121 " stroke="#191919" stroke-width="0.35 px" style="stroke-width:0.35;stroke-miterlimit:4;stroke-dasharray:none;fill:none;fill-opacity:1;fill-rule: evenodd"/>
<path id="Shape2DView_nwe0018"  d="M -0.061564404197243294 -0.5183722833407935 L 0.1977204462176666 -2.0 " stroke="#191919" stroke-width="0.35 px" style="stroke-width:0.35;stroke-miterlimit:4;stroke-dasharray:none;fill:none;fill-opacity:1;fill-rule: evenodd"/>
<path id="Shape2DView_nwe0019"  d="M 0.23394473594948328 -0.4666581838152064 L 0.5022794732131085 -1.9999995396100192 " stroke="#191919" stroke-width="0.35 px" style="stroke-width:0.35;stroke-miterlimit:4;stroke-dasharray:none;fill:none;fill-opacity:1;fill-rule: evenodd"/>
<path id="Shape2DView_nwe0020"  d="M 2.0 -2.2 L 2.0 -2.0 " stroke="#191919" stroke-width="0.35 px" style="stroke-width:0.35;stroke-miterlimit:4;stroke-dasharray:none;fill:none;fill-opacity:1;fill-rule: evenodd"/>
<path id="Shape2DView_nwe0021"  d="M -0.10000000000000013 -2.2 L -0.10000000000000009 -1.9999999999999996 " stroke="#191919" stroke-width="0.35 px" style="stroke-width:0.35;stroke-miterlimit:4;stroke-dasharray:none;fill:none;fill-opacity:1;fill-rule: evenodd"/>
<path id="Shape2DView_nwe0022"  d="M 1.6660552640506368 -0.4666581838152064 L 1.397720526787008 -1.999999539610039 " stroke="#191919" stroke-width="0.35 px" style="stroke-width:0.35;stroke-miterlimit:4;stroke-dasharray:none;fill:none;fill-opacity:1;fill-rule: evenodd"/>
<path id="Shape2DView_nwe0023"  d="M 1.9615644041973634 -0.5183722833407935 L 1.7022795537824535 -2.0 " stroke="#191919" stroke-width="0.35 px" style="stroke-width:0.35;stroke-miterlimit:4;stroke-dasharray:none;fill:none;fill-opacity:1;fill-rule: evenodd"/>
<path id="Shape2DView_nwe0024"  d="M 2.0 -2.3 L 2.0 -2.2 " stroke="#191919" stroke-width="0.35 px" style="stroke-width:0.35;stroke-miterlimit:4;stroke-dasharray:none;fill:none;fill-opacity:1;fill-rule: evenodd"/>
<path id="Shape2DView_nwe0025"  d="M -0.10000000000000016 -2.3 L -0.10000000000000013 -2.2 " stroke="#191919" stroke-width="0.35 px" style="stroke-width:0.35;stroke-miterlimit:4;stroke-dasharray:none;fill:none;fill-opacity:1;fill-rule: evenodd"/>
<path id="Shape2DView_nwe0026"  d="M 1.6660552640506368 -0.4666581838152064 Q 1.7445750362964936 -0.01797377098095613 1.7522454299266152 0.02585704976267124 " stroke="#191919" stroke-width="0.35 px" style="stroke-width:0.35;stroke-miterlimit:4;stroke-dasharray:none;fill:none;fill-opacity:1;fill-rule: evenodd"/>
<path id="Shape2DView_nwe0027"  d="M 1.9615644041973634 -0.5183722833407935 Q 2.0400841764432203 -0.06968787050654118 2.047754570073342 -0.025857049762915918 " stroke="#191919" stroke-width="0.35 px" style="stroke-width:0.35;stroke-miterlimit:4;stroke-dasharray:none;fill:none;fill-opacity:1;fill-rule: evenodd"/>
<path id="Shape2DView_nwe0028"  d="M 1.9999999999999987 -7.800000000000001 L 2.0 -2.3000000000000003 " stroke="#191919" stroke-width="0.35 px" style="stroke-width:0.35;stroke-miterlimit:4;stroke-dasharray:none;fill:none;fill-opacity:1;fill-rule: evenodd"/>
<path id="Shape2DView_nwe0029"  d="M -0.10000000000000134 -7.799999999999999 L -0.10000000000000012 -2.2999999999999994 " stroke="#191919" stroke-width="0.35 px" style="stroke-width:0.35;stroke-miterlimit:4;stroke-dasharray:none;fill:none;fill-opacity:1;fill-rule: evenodd"/>
<path id="Shape2DView_nwe0030"  d="M 2.0 -7.8 Q 1.9798565248884068 -8.02568042801177 1.75 -8.05 " stroke="#191919" stroke-width="0.35 px" style="stroke-width:0.35;stroke-miterlimit:4;stroke-dasharray:none;fill:none;fill-opacity:1;fill-rule: evenodd"/>
<path id="Shape2DView_nwe0031"  d="M -0.10000000000000009 -7.8 Q -0.07985652488840687 -8.025680428011771 0.1499999999999999 -8.049999999999999 " stroke="#191919" stroke-width="0.35 px" style="stroke-width:0.35;stroke-miterlimit:4;stroke-dasharray:none;fill:none;fill-opacity:1;fill-rule: evenodd"/>
<title>b'Shape2DView'</title>
</g>
<g id="Rectangle" transform="translate(0.171644,1.021994) scale(1,-1)">
<rect fill="#ff0000" id="origin" width="1" height="1" x="0" y="0" />
<title>b'Rectangle'</title>
</g>
</svg>