<?xml version="1.0"?>
<!DOCTYPE svg PUBLIC "-//W3C//DTD SVG 1.1//EN" "http://www.w3.org/Graphics/SVG/1.1/DTD/svg11.dtd">
<svg width="1.938mm" height="1.7873242246535084mm" viewBox="0 0 1.938 1.7873242246535084" xmlns="http://www.w3.org/2000/svg" version="1.1">
<g id="Shape2DView" transform="translate(0.119000,1.019000) scale(1,-1)">
<circle cx="0.85" cy="2.535749388244e-15" r="0.75" stroke="#191919" stroke-width="0.35 px" style="stroke-width:0.35;stroke-miterlimit:4;stroke-dasharray:none;fill:none"/>
<path id="Shape2DView_nwe0001"  d="M 1.6998000000002087 -0.10000000000000002 L 1.593303437365925 -0.09999999999999991 " stroke="#191919" stroke-width="0.35 px" style="stroke-width:0.35;stroke-miterlimit:4;stroke-dasharray:none;fill:none;fill-opacity:1;fill-rule: evenodd"/>
<path id="Shape2DView_nwe0002"  d="M 1.5933034373659247 -0.10000000000000041 L 1.7001999999998505 -0.10000000000000052 " stroke="#191919" stroke-width="0.35 px" style="stroke-width:0.35;stroke-miterlimit:4;stroke-dasharray:none;fill:none;fill-opacity:1;fill-rule: evenodd"/>
<path id="Shape2DView_nwe0003"  d="M 1.6998000000002087 0.09999999999999999 L 1.5933034373659256 0.1000000000000001 " stroke="#191919" stroke-width="0.35 px" style="stroke-width:0.35;stroke-miterlimit:4;stroke-dasharray:none;fill:none;fill-opacity:1;fill-rule: evenodd"/>
<path id="Shape2DView_nwe0004"  d="M 1.5933034373659258 0.0999999999999996 L 1.7001999999998505 0.09999999999999949 " stroke="#191919" stroke-width="0.35 px" style="stroke-width:0.35;stroke-miterlimit:4;stroke-dasharray:none;fill:none;fill-opacity:1;fill-rule: evenodd"/>
<path id="Shape2DView_nwe0005"  d="M 0.10669656263407445 0.0999999999999996 L -0.00019999999985037542 0.09999999999999949 " stroke="#191919" stroke-width="0.35 px" style="stroke-width:0.35;stroke-miterlimit:4;stroke-dasharray:none;fill:none;fill-opacity:1;fill-rule: evenodd"/>
<path id="Shape2DView_nwe0006"  d="M 0.10669656263407501 -0.10000000000000041 L -0.00019999999985037542 -0.10000000000000052 " stroke="#191919" stroke-width="0.35 px" style="stroke-width:0.35;stroke-miterlimit:4;stroke-dasharray:none;fill:none;fill-opacity:1;fill-rule: evenodd"/>
<path id="Shape2DView_nwe0007"  d="M 1.8 0.00020000000000010287 L 1.8 -0.00020000000000000573 " stroke="#191919" stroke-width="0.35 px" style="stroke-width:0.35;stroke-miterlimit:4;stroke-dasharray:none;fill:none;fill-opacity:1;fill-rule: evenodd"/>
<path id="Shape2DView_nwe0008"  d="M 1.7999999999998537 -0.00019999999999996873 L 1.7993724785472003 -0.011374054715110092 L 1.7974978056356035 -0.022407589208840145 L 1.794399556364637 -0.033161850383125635 L 1.7901166930165298 -0.043501597163932273 L 1.784703075082859 -0.05329680123623056 L 1.7782267819501951 -0.06242428222550157 L 1.7707692567623141 -0.07076925676241742 L 1.7624242822254104 -0.07822678195030935 L 1.7532968012361527 -0.08470307508298275 L 1.7435015971638688 -0.0901166930166614 L 1.7331618503830772 -0.09439955636477508 L 1.7224075892088075 -0.097497805635746 L 1.7113740547150937 -0.09937247854734561 L 1.7002 -0.1 " stroke="#191919" stroke-width="0.35 px" style="stroke-width:0.35;stroke-miterlimit:4;stroke-dasharray:none;fill:none;fill-opacity:1;fill-rule: evenodd"/>
<path id="Shape2DView_nwe0009"  d="M 1.7999999999998537 0.00020000000000011905 L 1.7993724785472003 0.011374054715110242 L 1.7974978056356035 0.022407589208840294 L 1.794399556364637 0.0331618503831258 L 1.7901166930165298 0.04350159716393242 L 1.784703075082859 0.053296801236230706 L 1.7782267819501951 0.06242428222550172 L 1.7707692567623141 0.07076925676241755 L 1.7624242822254104 0.07822678195030949 L 1.7532968012361527 0.08470307508298287 L 1.7435015971638688 0.09011669301666154 L 1.7331618503830772 0.09439955636477519 L 1.7224075892088075 0.0974978056357461 L 1.7113740547150937 0.09937247854734571 L 1.7002 0.1000000000000001 " stroke="#191919" stroke-width="0.35 px" style="stroke-width:0.35;stroke-miterlimit:4;stroke-dasharray:none;fill:none;fill-opacity:1;fill-rule: evenodd"/>
<path id="Shape2DView_nwe0010"  d="M -0.09999999999985384 0.00020000000000010686 L -0.09937247854720037 0.01137405471511023 L -0.0974978056356035 0.02240758920884028 L -0.09439955636463712 0.03316185038312578 L -0.09011669301652975 0.043501597163932405 L -0.08470307508285901 0.05329680123623069 L -0.07822678195019513 0.062424282225501705 L -0.0707692567623141 0.07076925676241755 L -0.06242428222541049 0.07822678195030948 L -0.05329680123615284 0.08470307508298287 L -0.0435015971638689 0.09011669301666153 L -0.03316185038307742 0.09439955636477518 L -0.02240758920880767 0.0974978056357461 L -0.011374054715093777 0.09937247854734571 L -0.00020000000000001833 0.1000000000000001 " stroke="#191919" stroke-width="0.35 px" style="stroke-width:0.35;stroke-miterlimit:4;stroke-dasharray:none;fill:none;fill-opacity:1;fill-rule: evenodd"/>
<path id="Shape2DView_nwe0011"  d="M -0.09999999999985373 -0.00019999999999998095 L -0.09937247854720026 -0.011374054715110105 L -0.09749780563560338 -0.02240758920884016 L -0.09439955636463701 -0.033161850383125656 L -0.09011669301652964 -0.04350159716393229 L -0.08470307508285889 -0.053296801236230575 L -0.078226781950195 -0.06242428222550159 L -0.07076925676231399 -0.07076925676241742 L -0.06242428222541038 -0.07822678195030937 L -0.053296801236152734 -0.08470307508298275 L -0.04350159716386879 -0.09011669301666142 L -0.033161850383077306 -0.0943995563647751 L -0.02240758920880756 -0.097497805635746 L -0.011374054715093665 -0.09937247854734561 L -0.0001999999999999061 -0.1 " stroke="#191919" stroke-width="0.35 px" style="stroke-width:0.35;stroke-miterlimit:4;stroke-dasharray:none;fill:none;fill-opacity:1;fill-rule: evenodd"/>
<path id="Shape2DView_nwe0012"  d="M -0.1 0.00020000000000010287 L -0.1 -0.00020000000000000573 " stroke="#191919" stroke-width="0.35 px" style="stroke-width:0.35;stroke-miterlimit:4;stroke-dasharray:none;fill:none;fill-opacity:1;fill-rule: evenodd"/>
<circle cx="0.85" cy="2.535749388244e-15" r="0.75" stroke="#191919" stroke-width="0.35 px" style="stroke-width:0.35;stroke-miterlimit:4;stroke-dasharray:none;fill:none"/>
<circle cx="0.85" cy="2.646771690706e-15" r="0.5" stroke="#191919" stroke-width="0.35 px" style="stroke-width:0.35;stroke-miterlimit:4;stroke-dasharray:none;fill:none"/>
<path id="Shape2DView_nwe0015"  d="M 1.599999973333333 -0.00019999999999981973 L 1.7999999999999152 -0.00020000000000003292 " stroke="#191919" stroke-width="0.35 px" style="stroke-width:0.35;stroke-miterlimit:4;stroke-dasharray:none;fill:none;fill-opacity:1;fill-rule: evenodd"/>
<path id="Shape2DView_nwe0016"  d="M 1.599999973333333 0.00020000000000028028 L 1.7999999999999152 0.0002000000000000671 " stroke="#191919" stroke-width="0.35 px" style="stroke-width:0.35;stroke-miterlimit:4;stroke-dasharray:none;fill:none;fill-opacity:1;fill-rule: evenodd"/>
<path id="Shape2DView_nwe0017"  d="M 0.10000002666666707 0.00020000000000028028 L -0.09999999999991516 0.0002000000000000671 " stroke="#191919" stroke-width="0.35 px" style="stroke-width:0.35;stroke-miterlimit:4;stroke-dasharray:none;fill:none;fill-opacity:1;fill-rule: evenodd"/>
<path id="Shape2DView_nwe0018"  d="M 0.10000002666666707 -0.00019999999999981973 L -0.09999999999991516 -0.00020000000000003292 " stroke="#191919" stroke-width="0.35 px" style="stroke-width:0.35;stroke-miterlimit:4;stroke-dasharray:none;fill:none;fill-opacity:1;fill-rule: evenodd"/>
<path id="Shape2DView_nwe0019"  d="M 0.35 3.970157536059775e-15 L 0.322008880974102 3.969110408657189e-15 L 0.29436976651078206 3.9659821946840796e-15 L 0.2674302345110059 3.960812233246187e-15 L 0.241529065220353 3.953665539608278e-15 L 0.21699198087086344 3.944631987589456e-15 L 0.19412754953498157 3.933825179347747e-15 L 0.17322330470300962 3.921381016767049e-15 L 0.15454212938263634 3.907455992412085e-15 L 0.138318950192587 3.892225221543607e-15 L 0.12475778302408538 3.875880239942387e-15 L 0.11402916742264868 3.858626595235641e-15 L 0.10626802195435342 3.840681262016353e-15 L 0.10157194752658541 3.8222699132618835e-15 L 0.09999999999999998 3.803624082365334e-15 " stroke="#191919" stroke-width="0.35 px" style="stroke-width:0.35;stroke-miterlimit:4;stroke-dasharray:none;fill:none;fill-opacity:1;fill-rule: evenodd"/>
<title>b'Shape2DView'</title>
</g>
<g id="Rectangle" transform="translate(0.119000,1.019000) scale(1,-1)">
<rect fill="#ff0000" id="origin" width="1" height="1" x="0" y="0" />
<title>b'Rectangle'</title>
</g>
</svg>