<?xml version="1.0"?>
<!DOCTYPE svg PUBLIC "-//W3C//DTD SVG 1.1//EN" "http://www.w3.org/Graphics/SVG/1.1/DTD/svg11.dtd">
<svg width="2.142000000000267mm" height="2.038584493006672mm" viewBox="0 0 2.142000000000267 2.038584493006672" xmlns="http://www.w3.org/2000/svg" version="1.1">
<g id="Shape2DView" transform="translate(0.121000,1.021000) scale(1,-1)">
<circle cx="0.95" cy="2.979838598094e-15" r="1.0" stroke="#191919" stroke-width="0.35 px" style="stroke-width:0.35;stroke-miterlimit:4;stroke-dasharray:none;fill:none"/>
<path id="Shape2DView_nwe0001"  d="M 2.0 0.00020000000000010287 L 2.0 -0.00020000000000000573 " stroke="#191919" stroke-width="0.35 px" style="stroke-width:0.35;stroke-miterlimit:4;stroke-dasharray:none;fill:none;fill-opacity:1;fill-rule: evenodd"/>
<path id="Shape2DView_nwe0002"  d="M 1.9999999999997784 -0.00019999999999997038 L 1.9996957238035593 -0.007987229594784186 L 1.9987847506057554 -0.015726974848883208 L 1.997272635265274 -0.023372040967795486 L 1.9951685982371066 -0.030875810483815387 L 1.9924854693485803 -0.03819252751626867 L 1.989239609566672 -0.04527757677803205 L 1.9854508112334246 -0.05208775562703341 L 1.981142177377797 -0.05858153750383886 L 1.9763399808398796 -0.06471932514895835 L 1.9710735040664873 -0.07046369205582145 L 1.9653748605550163 -0.07577961068711134 L 1.95927879903435 -0.08063466606285721 L 1.9528224915768624 -0.08499925341788535 L 1.9460453069335506 -0.088846758723369 " stroke="#191919" stroke-width="0.35 px" style="stroke-width:0.35;stroke-miterlimit:4;stroke-dasharray:none;fill:none;fill-opacity:1;fill-rule: evenodd"/>
<path id="Shape2DView_nwe0003"  d="M 1.9999999999997784 0.0002000000000001174 L 1.9996957238035593 0.007987229594784291 L 1.9987847506057554 0.015726974848883274 L 1.997272635265274 0.02337204096779551 L 1.9951685982371068 0.030875810483815373 L 1.9924854693485803 0.038192527516268615 L 1.9892396095666722 0.045277576778031965 L 1.9854508112334246 0.0520877556270333 L 1.981142177377797 0.05858153750383873 L 1.9763399808398798 0.06471932514895819 L 1.9710735040664875 0.07046369205582129 L 1.9653748605550165 0.07577961068711117 L 1.9592787990343505 0.08063466606285703 L 1.9528224915768628 0.08499925341788518 L 1.946045306933551 0.08884675872336883 " stroke="#191919" stroke-width="0.35 px" style="stroke-width:0.35;stroke-miterlimit:4;stroke-dasharray:none;fill:none;fill-opacity:1;fill-rule: evenodd"/>
<path id="Shape2DView_nwe0004"  d="M -0.09999999999977856 0.0002000000000001052 L -0.09969572380355947 0.007987229594784276 L -0.09878475060575556 0.015726974848883257 L -0.09727263526527441 0.023372040967795493 L -0.09516859823710692 0.030875810483815352 L -0.09248546934858048 0.038192527516268594 L -0.08923960956667244 0.045277576778031944 L -0.08545081123342486 0.05208775562703328 L -0.08114217737779739 0.05858153750383871 L -0.07633998083988008 0.06471932514895817 L -0.07107350406648771 0.07046369205582126 L -0.06537486055501678 0.07577961068711117 L -0.05927879903435075 0.08063466606285707 L -0.05282249157686298 0.08499925341788524 L -0.04604530693355124 0.08884675872336889 " stroke="#191919" stroke-width="0.35 px" style="stroke-width:0.35;stroke-miterlimit:4;stroke-dasharray:none;fill:none;fill-opacity:1;fill-rule: evenodd"/>
<path id="Shape2DView_nwe0005"  d="M -0.09999999999977856 -0.0001999999999999826 L -0.09969572380355946 -0.007987229594784213 L -0.09878475060575553 -0.01572697484888325 L -0.09727263526527437 -0.023372040967795542 L -0.09516859823710686 -0.030875810483815453 L -0.09248546934858037 -0.03819252751626875 L -0.08923960956667226 -0.045277576778032146 L -0.08545081123342466 -0.052087755627033515 L -0.08114217737779711 -0.058581537503838974 L -0.07633998083987972 -0.06471932514895846 L -0.0710735040664873 -0.07046369205582156 L -0.06537486055501632 -0.07577961068711145 L -0.05927879903435025 -0.08063466606285731 L -0.052822491576862446 -0.08499925341788545 L -0.04604530693355064 -0.08884675872336907 " stroke="#191919" stroke-width="0.35 px" style="stroke-width:0.35;stroke-miterlimit:4;stroke-dasharray:none;fill:none;fill-opacity:1;fill-rule: evenodd"/>
<path id="Shape2DView_nwe0006"  d="M -0.1 0.00020000000000010287 L -0.1 -0.00020000000000000573 " stroke="#191919" stroke-width="0.35 px" style="stroke-width:0.35;stroke-miterlimit:4;stroke-dasharray:none;fill:none;fill-opacity:1;fill-rule: evenodd"/>
<circle cx="0.95" cy="2.979838598094e-15" r="1.0" stroke="#191919" stroke-width="0.35 px" style="stroke-width:0.35;stroke-miterlimit:4;stroke-dasharray:none;fill:none"/>
<circle cx="0.95" cy="3.090860900556e-15" r="0.75" stroke="#191919" stroke-width="0.35 px" style="stroke-width:0.35;stroke-miterlimit:4;stroke-dasharray:none;fill:none"/>
<path id="Shape2DView_nwe0009"  d="M 1.9499999799999999 -0.0001999999999999737 L 2.000000000000131 -0.00020000000000003292 " stroke="#191919" stroke-width="0.35 px" style="stroke-width:0.35;stroke-miterlimit:4;stroke-dasharray:none;fill:none;fill-opacity:1;fill-rule: evenodd"/>
<path id="Shape2DView_nwe0010"  d="M 1.9499999799999999 0.00020000000000012632 L 2.000000000000131 0.0002000000000000671 " stroke="#191919" stroke-width="0.35 px" style="stroke-width:0.35;stroke-miterlimit:4;stroke-dasharray:none;fill:none;fill-opacity:1;fill-rule: evenodd"/>
<path id="Shape2DView_nwe0011"  d="M -0.04999997999999983 0.00020000000000012632 L -0.10000000000013082 0.0002000000000000671 " stroke="#191919" stroke-width="0.35 px" style="stroke-width:0.35;stroke-miterlimit:4;stroke-dasharray:none;fill:none;fill-opacity:1;fill-rule: evenodd"/>
<path id="Shape2DView_nwe0012"  d="M -0.04999997999999983 -0.0001999999999998737 L -0.10000000000013082 -0.00019999999999993292 " stroke="#191919" stroke-width="0.35 px" style="stroke-width:0.35;stroke-miterlimit:4;stroke-dasharray:none;fill:none;fill-opacity:1;fill-rule: evenodd"/>
<path id="Shape2DView_nwe0013"  d="M 0.20000000000000004 4.636291350834775e-15 L 0.17200888097417305 4.635244223432195e-15 L 0.14436976651092143 4.6321160094591e-15 L 0.11743023451120826 4.626946048021235e-15 L 0.0915290652206105 4.61979935438336e-15 L 0.0669919808711659 4.610765802364582e-15 L 0.04412754953531664 4.599958994122925e-15 L 0.023223304703363146 4.587514831542284e-15 L 0.00454212938299256 4.573589807187382e-15 L -0.01168104980707102 4.5583590363189695e-15 L -0.025242216975604748 4.542014054717816e-15 L -0.03597083257709188 4.5247604100111345e-15 L -0.043731978045455894 4.50681507679191e-15 L -0.04842805247331064 4.488403728037498e-15 L -0.04999999999999999 4.469757897141e-15 " stroke="#191919" stroke-width="0.35 px" style="stroke-width:0.35;stroke-miterlimit:4;stroke-dasharray:none;fill:none;fill-opacity:1;fill-rule: evenodd"/>
<title>b'Shape2DView'</title>
</g>
<g id="Rectangle" transform="translate(0.121000,1.021000) scale(1,-1)">
<rect fill="#ff0000" id="origin" width="1" height="1" x="0" y="0" />
<title>b'Rectangle'</title>
</g>
</svg>