<?xml version="1.0"?>
<!DOCTYPE svg PUBLIC "-//W3C//DTD SVG 1.1//EN" "http://www.w3.org/Graphics/SVG/1.1/DTD/svg11.dtd">
<svg width="11.118mm" height="4.868mm" viewBox="0 0 11.118 4.868" xmlns="http://www.w3.org/2000/svg" version="1.1">
<g id="Shape2DView" transform="translate(3.119000,2.434000) scale(1,-1)">
<path id="Shape2DView_nwe0000"  d="M -0.685 2.325 L 5.5649999999999995 2.325 " stroke="#191919" stroke-width="0.35 px" style="stroke-width:0.35;stroke-miterlimit:4;stroke-dasharray:none;fill:none;fill-opacity:1;fill-rule: evenodd"/>
<path id="Shape2DView_nwe0001"  d="M -0.6849999999999999 2.325 A 2.325 2.325 0 0 1 -3.01 2.8473e-16" stroke="#191919" stroke-width="0.35 px" style="stroke-width:0.35;stroke-miterlimit:4;stroke-dasharray:none;fill:none;fill-opacity:1;fill-rule: evenodd"/>
<path id="Shape2DView_nwe0002"  d="M 7.890000000000001 0.0 A 2.325 2.325 0 0 1 5.565 2.325" stroke="#191919" stroke-width="0.35 px" style="stroke-width:0.35;stroke-miterlimit:4;stroke-dasharray:none;fill:none;fill-opacity:1;fill-rule: evenodd"/>
<path id="Shape2DView_nwe0003"  d="M -3.0100000000000002 2.8473039404125373e-16 A 2.325 2.325 0 0 1 -0.685 -2.325" stroke="#191919" stroke-width="0.35 px" style="stroke-width:0.35;stroke-miterlimit:4;stroke-dasharray:none;fill:none;fill-opacity:1;fill-rule: evenodd"/>
<path id="Shape2DView_nwe0004"  d="M 5.565 -2.325 L -0.6849999999999996 -2.325 " stroke="#191919" stroke-width="0.35 px" style="stroke-width:0.35;stroke-miterlimit:4;stroke-dasharray:none;fill:none;fill-opacity:1;fill-rule: evenodd"/>
<path id="Shape2DView_nwe0005"  d="M 5.565 -2.325 A 2.325 2.325 0 0 1 7.89 -5.69461e-16" stroke="#191919" stroke-width="0.35 px" style="stroke-width:0.35;stroke-miterlimit:4;stroke-dasharray:none;fill:none;fill-opacity:1;fill-rule: evenodd"/>
<path id="Shape2DView_nwe0006"  d="M -0.56 2.0 L 5.4399999999999995 2.0 " stroke="#191919" stroke-width="0.35 px" style="stroke-width:0.35;stroke-miterlimit:4;stroke-dasharray:none;fill:none;fill-opacity:1;fill-rule: evenodd"/>
<path id="Shape2DView_nwe0007"  d="M 5.44 -2.0 L -0.5599999999999996 -2.0 " stroke="#191919" stroke-width="0.35 px" style="stroke-width:0.35;stroke-miterlimit:4;stroke-dasharray:none;fill:none;fill-opacity:1;fill-rule: evenodd"/>
<path id="Shape2DView_nwe0008"  d="M 5.4399999999997934 2.0 A 2 2 0 0 0 7.44 1.22465e-16" stroke="#191919" stroke-width="0.35 px" style="stroke-width:0.35;stroke-miterlimit:4;stroke-dasharray:none;fill:none;fill-opacity:1;fill-rule: evenodd"/>
<path id="Shape2DView_nwe0009"  d="M -2.56 2.449293598294e-16 A 2 2 0 0 0 -0.56 2" stroke="#191919" stroke-width="0.35 px" style="stroke-width:0.35;stroke-miterlimit:4;stroke-dasharray:none;fill:none;fill-opacity:1;fill-rule: evenodd"/>
<path id="Shape2DView_nwe0010"  d="M -0.5599999999997926 -2.0 A 2 2 0 0 0 -2.56 2.10602e-16" stroke="#191919" stroke-width="0.35 px" style="stroke-width:0.35;stroke-miterlimit:4;stroke-dasharray:none;fill:none;fill-opacity:1;fill-rule: evenodd"/>
<path id="Shape2DView_nwe0011"  d="M 7.44 -4.89858719659e-16 A 2 2 0 0 0 5.44 -2" stroke="#191919" stroke-width="0.35 px" style="stroke-width:0.35;stroke-miterlimit:4;stroke-dasharray:none;fill:none;fill-opacity:1;fill-rule: evenodd"/>
<path id="Shape2DView_nwe0016"  d="M 5.439999999999814 1.8 A 1.8 1.8 0 0 0 7.24 1.10218e-16" stroke="#191919" stroke-width="0.35 px" style="stroke-width:0.35;stroke-miterlimit:4;stroke-dasharray:none;fill:none;fill-opacity:1;fill-rule: evenodd"/>
<path id="Shape2DView_nwe0017"  d="M 5.44 2.0 L 5.44 1.9987424419786486 L 5.44 1.9949855824363647 L 5.44 1.9887766660616735 L 5.44 1.980193773580484 L 5.44 1.969344839845657 L 5.44 1.956366296493606 L 5.44 1.9414213562373095 L 5.44 1.9246979603717467 L 5.44 1.9064064153030673 L 5.44 1.8867767478235118 L 5.44 1.8660558123910336 L 5.44 1.844504186791263 L 5.44 1.8223928952206616 L 5.44 1.8 " stroke="#191919" stroke-width="0.35 px" style="stroke-width:0.35;stroke-miterlimit:4;stroke-dasharray:none;fill:none;fill-opacity:1;fill-rule: evenodd"/>
<path id="Shape2DView_nwe0018"  d="M -0.56 2.0 L -0.56 1.9987424419786486 L -0.56 1.9949855824363647 L -0.56 1.9887766660616735 L -0.56 1.980193773580484 L -0.56 1.969344839845657 L -0.56 1.956366296493606 L -0.56 1.9414213562373095 L -0.56 1.9246979603717467 L -0.56 1.9064064153030673 L -0.56 1.8867767478235118 L -0.56 1.8660558123910336 L -0.56 1.844504186791263 L -0.56 1.8223928952206616 L -0.56 1.8 " stroke="#191919" stroke-width="0.35 px" style="stroke-width:0.35;stroke-miterlimit:4;stroke-dasharray:none;fill:none;fill-opacity:1;fill-rule: evenodd"/>
<path id="Shape2DView_nwe0019"  d="M -0.56 1.8 L 5.4399999999999995 1.8 " stroke="#191919" stroke-width="0.35 px" style="stroke-width:0.35;stroke-miterlimit:4;stroke-dasharray:none;fill:none;fill-opacity:1;fill-rule: evenodd"/>
<path id="Shape2DView_nwe0020"  d="M -2.3600000000000003 2.2043642384646e-16 A 1.8 1.8 0 0 0 -0.56 1.8" stroke="#191919" stroke-width="0.35 px" style="stroke-width:0.35;stroke-miterlimit:4;stroke-dasharray:none;fill:none;fill-opacity:1;fill-rule: evenodd"/>
<path id="Shape2DView_nwe0021"  d="M -0.5599999999998133 -1.8 A 1.8 1.8 0 0 0 -2.36 1.89542e-16" stroke="#191919" stroke-width="0.35 px" style="stroke-width:0.35;stroke-miterlimit:4;stroke-dasharray:none;fill:none;fill-opacity:1;fill-rule: evenodd"/>
<path id="Shape2DView_nwe0022"  d="M -0.56 -2.0 L -0.56 -1.9987424419786486 L -0.56 -1.9949855824363647 L -0.56 -1.9887766660616735 L -0.56 -1.980193773580484 L -0.56 -1.969344839845657 L -0.56 -1.956366296493606 L -0.56 -1.9414213562373095 L -0.56 -1.9246979603717467 L -0.56 -1.9064064153030673 L -0.56 -1.8867767478235118 L -0.56 -1.8660558123910336 L -0.56 -1.844504186791263 L -0.56 -1.8223928952206616 L -0.56 -1.8 " stroke="#191919" stroke-width="0.35 px" style="stroke-width:0.35;stroke-miterlimit:4;stroke-dasharray:none;fill:none;fill-opacity:1;fill-rule: evenodd"/>
<path id="Shape2DView_nwe0023"  d="M 5.440000000000021 -2.0 L 5.440000000000021 -1.9987424419786486 L 5.440000000000021 -1.9949855824363647 L 5.44000000000002 -1.9887766660616735 L 5.440000000000019 -1.980193773580484 L 5.440000000000018 -1.969344839845657 L 5.440000000000016 -1.956366296493606 L 5.4400000000000155 -1.9414213562373095 L 5.440000000000014 -1.9246979603717467 L 5.440000000000011 -1.9064064153030673 L 5.440000000000009 -1.8867767478235118 L 5.4400000000000075 -1.8660558123910336 L 5.440000000000005 -1.844504186791263 L 5.440000000000003 -1.8223928952206616 L 5.44 -1.8 " stroke="#191919" stroke-width="0.35 px" style="stroke-width:0.35;stroke-miterlimit:4;stroke-dasharray:none;fill:none;fill-opacity:1;fill-rule: evenodd"/>
<path id="Shape2DView_nwe0024"  d="M 5.44 -1.8 L -0.5599999999999996 -1.8 " stroke="#191919" stroke-width="0.35 px" style="stroke-width:0.35;stroke-miterlimit:4;stroke-dasharray:none;fill:none;fill-opacity:1;fill-rule: evenodd"/>
<path id="Shape2DView_nwe0025"  d="M 7.24 -4.4087284769309997e-16 A 1.8 1.8 0 0 0 5.44 -1.8" stroke="#191919" stroke-width="0.35 px" style="stroke-width:0.35;stroke-miterlimit:4;stroke-dasharray:none;fill:none;fill-opacity:1;fill-rule: evenodd"/>
<path id="Shape2DView_nwe0026"  d="M 7.44 1.22464679914774e-16 L 7.438742441978649 1.223876766944945e-16 L 7.434985582436365 1.2215763539382927e-16 L 7.428776666061673 1.2177744891560731e-16 L 7.420193773580484 1.2125189832538154e-16 L 7.409344839845657 1.2058759272675564e-16 L 7.396366296493606 1.197928861480714e-16 L 7.381421356237309 1.1887777248565526e-16 L 7.364697960371747 1.1785375982477345e-16 L 7.3464064153030675 1.1673372571878252e-16 L 7.326776747823512 1.1553175524642423e-16 L 7.306055812391033 1.1426296388378801e-16 L 7.284504186791263 1.129433074184289e-16 L 7.262392895220662 1.1158938129608133e-16 L 7.24 1.102182119233e-16 " stroke="#191919" stroke-width="0.35 px" style="stroke-width:0.35;stroke-miterlimit:4;stroke-dasharray:none;fill:none;fill-opacity:1;fill-rule: evenodd"/>
<path id="Shape2DView_nwe0027"  d="M -2.56 2.1060222747278001e-16 L -2.5587424419786484 2.1046980521254354e-16 L -2.5549855824363648 2.1007420371858984e-16 L -2.5487766660616735 2.094203979092387e-16 L -2.5401937735804836 2.0851660977188963e-16 L -2.5293448398456566 2.0737420496675995e-16 L -2.5163662964936058 2.0600754989711286e-16 L -2.5014213562373095 2.0443383104340088e-16 L -2.4846979603717467 2.026728388333024e-16 L -2.466406415303067 2.007467187656109e-16 L -2.4467767478235114 1.986796929177385e-16 L -2.4260558123910334 1.964977553390385e-16 L -2.4045041867912627 1.9422834516055277e-16 L -2.3823928952206614 1.9190000153201817e-16 L -2.36 1.895420047255e-16 " stroke="#191919" stroke-width="0.35 px" style="stroke-width:0.35;stroke-miterlimit:4;stroke-dasharray:none;fill:none;fill-opacity:1;fill-rule: evenodd"/>
<title>b'Shape2DView'</title>
</g>
<g id="Rectangle" transform="translate(3.119000,2.434000) scale(1,-1)">
<rect fill="#ff0000" id="origin" width="1" height="1" x="0" y="0" />
<title>b'Rectangle'</title>
</g>
</svg>