<?xml version="1.0"?>
<!DOCTYPE svg PUBLIC "-//W3C//DTD SVG 1.1//EN" "http://www.w3.org/Graphics/SVG/1.1/DTD/svg11.dtd">
<svg width="19.686mm" height="9.286mm" viewBox="0 0 19.686 9.286" xmlns="http://www.w3.org/2000/svg" version="1.1">
<g id="Shape2DView" transform="translate(3.668000,4.643000) scale(1,-1)">
<path id="Shape2DView_nwe0000"  d="M 0.974999999999 4.45 L 11.375000000003 4.45 " stroke="#191919" stroke-width="0.35 px" style="stroke-width:0.35;stroke-miterlimit:4;stroke-dasharray:none;fill:none;fill-opacity:1;fill-rule: evenodd"/>
<path id="Shape2DView_nwe0001"  d="M 0.9749999999990003 4.45 A 4.45 4.45 0 0 1 -3.475 5.44968e-16" stroke="#191919" stroke-width="0.35 px" style="stroke-width:0.35;stroke-miterlimit:4;stroke-dasharray:none;fill:none;fill-opacity:1;fill-rule: evenodd"/>
<path id="Shape2DView_nwe0002"  d="M 15.825 0.0 A 4.45 4.45 0 0 1 11.375 4.45" stroke="#191919" stroke-width="0.35 px" style="stroke-width:0.35;stroke-miterlimit:4;stroke-dasharray:none;fill:none;fill-opacity:1;fill-rule: evenodd"/>
<path id="Shape2DView_nwe0003"  d="M -3.475 5.449678256205722e-16 A 4.45 4.45 0 0 1 0.975 -4.45" stroke="#191919" stroke-width="0.35 px" style="stroke-width:0.35;stroke-miterlimit:4;stroke-dasharray:none;fill:none;fill-opacity:1;fill-rule: evenodd"/>
<path id="Shape2DView_nwe0004"  d="M 11.374999999996 -4.45 L 0.9750000000009997 -4.45 " stroke="#191919" stroke-width="0.35 px" style="stroke-width:0.35;stroke-miterlimit:4;stroke-dasharray:none;fill:none;fill-opacity:1;fill-rule: evenodd"/>
<path id="Shape2DView_nwe0005"  d="M 11.374999999996 -4.45 A 4.45 4.45 0 0 1 15.825 -1.08994e-15" stroke="#191919" stroke-width="0.35 px" style="stroke-width:0.35;stroke-miterlimit:4;stroke-dasharray:none;fill:none;fill-opacity:1;fill-rule: evenodd"/>
<path id="Shape2DView_nwe0006"  d="M 11.375000000001 -3.8 L 0.9750000000009997 -3.8 " stroke="#191919" stroke-width="0.35 px" style="stroke-width:0.35;stroke-miterlimit:4;stroke-dasharray:none;fill:none;fill-opacity:1;fill-rule: evenodd"/>
<path id="Shape2DView_nwe0007"  d="M 0.974999999999 3.8 L 11.375000000002 3.8 " stroke="#191919" stroke-width="0.35 px" style="stroke-width:0.35;stroke-miterlimit:4;stroke-dasharray:none;fill:none;fill-opacity:1;fill-rule: evenodd"/>
<path id="Shape2DView_nwe0008"  d="M 15.175 -9.307315673520998e-16 A 3.8 3.8 0 0 0 11.375 -3.8" stroke="#191919" stroke-width="0.35 px" style="stroke-width:0.35;stroke-miterlimit:4;stroke-dasharray:none;fill:none;fill-opacity:1;fill-rule: evenodd"/>
<path id="Shape2DView_nwe0009"  d="M 11.374999999999607 3.8 A 3.8 3.8 0 0 0 15.175 -3.89042e-16" stroke="#191919" stroke-width="0.35 px" style="stroke-width:0.35;stroke-miterlimit:4;stroke-dasharray:none;fill:none;fill-opacity:1;fill-rule: evenodd"/>
<path id="Shape2DView_nwe0010"  d="M -2.8249999999999997 4.6536578367586e-16 A 3.8 3.8 0 0 0 0.975 3.8" stroke="#191919" stroke-width="0.35 px" style="stroke-width:0.35;stroke-miterlimit:4;stroke-dasharray:none;fill:none;fill-opacity:1;fill-rule: evenodd"/>
<path id="Shape2DView_nwe0011"  d="M 0.9750000000003942 -3.8 A 3.8 3.8 0 0 0 -2.825 4.11246e-16" stroke="#191919" stroke-width="0.35 px" style="stroke-width:0.35;stroke-miterlimit:4;stroke-dasharray:none;fill:none;fill-opacity:1;fill-rule: evenodd"/>
<path id="Shape2DView_nwe0016"  d="M 11.375000000001021 -3.8000000000000003 L 11.375000000001021 -3.7987424419786486 L 11.37500000000102 -3.794985582436365 L 11.37500000000102 -3.7887766660616737 L 11.37500000000102 -3.780193773580484 L 11.375000000001018 -3.769344839845657 L 11.375000000001016 -3.756366296493606 L 11.375000000001014 -3.7414213562373098 L 11.375000000001013 -3.724697960371747 L 11.37500000000101 -3.7064064153030674 L 11.375000000001009 -3.6867767478235116 L 11.375000000001007 -3.6660558123910336 L 11.375000000001005 -3.644504186791263 L 11.375000000001002 -3.6223928952206617 L 11.375000000001 -3.6 " stroke="#191919" stroke-width="0.35 px" style="stroke-width:0.35;stroke-miterlimit:4;stroke-dasharray:none;fill:none;fill-opacity:1;fill-rule: evenodd"/>
<path id="Shape2DView_nwe0017"  d="M 11.375000000001 -3.6 L 0.9750000000009997 -3.6 " stroke="#191919" stroke-width="0.35 px" style="stroke-width:0.35;stroke-miterlimit:4;stroke-dasharray:none;fill:none;fill-opacity:1;fill-rule: evenodd"/>
<path id="Shape2DView_nwe0018"  d="M 0.975000000001 -3.8000000000000003 L 0.975000000001 -3.7987424419786486 L 0.975000000001 -3.794985582436365 L 0.975000000001 -3.7887766660616737 L 0.975000000001 -3.780193773580484 L 0.975000000001 -3.769344839845657 L 0.975000000001 -3.756366296493606 L 0.975000000001 -3.7414213562373098 L 0.975000000001 -3.724697960371747 L 0.975000000001 -3.7064064153030674 L 0.975000000001 -3.6867767478235116 L 0.975000000001 -3.6660558123910336 L 0.975000000001 -3.644504186791263 L 0.975000000001 -3.6223928952206617 L 0.975000000001 -3.6 " stroke="#191919" stroke-width="0.35 px" style="stroke-width:0.35;stroke-miterlimit:4;stroke-dasharray:none;fill:none;fill-opacity:1;fill-rule: evenodd"/>
<path id="Shape2DView_nwe0019"  d="M 14.975 -8.817456953861999e-16 A 3.6 3.6 0 0 0 11.375 -3.6" stroke="#191919" stroke-width="0.35 px" style="stroke-width:0.35;stroke-miterlimit:4;stroke-dasharray:none;fill:none;fill-opacity:1;fill-rule: evenodd"/>
<path id="Shape2DView_nwe0020"  d="M 11.374999999999629 3.6 A 3.6 3.6 0 0 0 14.975 -3.68566e-16" stroke="#191919" stroke-width="0.35 px" style="stroke-width:0.35;stroke-miterlimit:4;stroke-dasharray:none;fill:none;fill-opacity:1;fill-rule: evenodd"/>
<path id="Shape2DView_nwe0021"  d="M 11.375000000002 3.8000000000000003 L 11.375000000002 3.7987424419786486 L 11.375000000002 3.794985582436365 L 11.375000000002 3.7887766660616737 L 11.375000000002 3.780193773580484 L 11.375000000002 3.769344839845657 L 11.375000000002 3.756366296493606 L 11.375000000002 3.7414213562373098 L 11.375000000002 3.724697960371747 L 11.375000000002 3.7064064153030674 L 11.375000000002 3.6867767478235116 L 11.375000000002 3.6660558123910336 L 11.375000000002 3.644504186791263 L 11.375000000002 3.6223928952206617 L 11.375000000002 3.6 " stroke="#191919" stroke-width="0.35 px" style="stroke-width:0.35;stroke-miterlimit:4;stroke-dasharray:none;fill:none;fill-opacity:1;fill-rule: evenodd"/>
<path id="Shape2DView_nwe0022"  d="M 0.974999999999 3.8000000000000003 L 0.974999999999 3.7987424419786486 L 0.974999999999 3.794985582436365 L 0.974999999999 3.7887766660616737 L 0.974999999999 3.780193773580484 L 0.974999999999 3.769344839845657 L 0.974999999999 3.756366296493606 L 0.974999999999 3.7414213562373098 L 0.974999999999 3.724697960371747 L 0.974999999999 3.7064064153030674 L 0.974999999999 3.6867767478235116 L 0.974999999999 3.6660558123910336 L 0.974999999999 3.644504186791263 L 0.974999999999 3.6223928952206617 L 0.974999999999 3.6 " stroke="#191919" stroke-width="0.35 px" style="stroke-width:0.35;stroke-miterlimit:4;stroke-dasharray:none;fill:none;fill-opacity:1;fill-rule: evenodd"/>
<path id="Shape2DView_nwe0023"  d="M 0.974999999999 3.6 L 11.375000000002 3.6 " stroke="#191919" stroke-width="0.35 px" style="stroke-width:0.35;stroke-miterlimit:4;stroke-dasharray:none;fill:none;fill-opacity:1;fill-rule: evenodd"/>
<path id="Shape2DView_nwe0024"  d="M -2.625 4.4087284769292e-16 A 3.6 3.6 0 0 0 0.975 3.6" stroke="#191919" stroke-width="0.35 px" style="stroke-width:0.35;stroke-miterlimit:4;stroke-dasharray:none;fill:none;fill-opacity:1;fill-rule: evenodd"/>
<path id="Shape2DView_nwe0025"  d="M 0.9750000000003735 -3.6 A 3.6 3.6 0 0 0 -2.625 3.89602e-16" stroke="#191919" stroke-width="0.35 px" style="stroke-width:0.35;stroke-miterlimit:4;stroke-dasharray:none;fill:none;fill-opacity:1;fill-rule: evenodd"/>
<path id="Shape2DView_nwe0026"  d="M 15.174999999999999 -3.8904200192064e-16 L 15.173742441978648 -3.8891325379165097e-16 L 15.169985582436365 -3.885286284871074e-16 L 15.163776666061674 -3.878929628933787e-16 L 15.155193773580484 -3.8701425087412777e-16 L 15.144344839845656 -3.859035427428373e-16 L 15.131366296493606 -3.8457480629870607e-16 L 15.116421356237309 -3.8304475117347e-16 L 15.099697960371746 -3.813326186980875e-16 L 15.081406415303068 -3.7945993993183884e-16 L 15.061776747823512 -3.774502648967633e-16 L 15.041055812391033 -3.7532886642246746e-16 L 15.019504186791263 -3.731224223256297e-16 L 14.997392895220662 -3.7085867992097637e-16 L 14.975 -3.685661070827e-16 " stroke="#191919" stroke-width="0.35 px" style="stroke-width:0.35;stroke-miterlimit:4;stroke-dasharray:none;fill:none;fill-opacity:1;fill-rule: evenodd"/>
<path id="Shape2DView_nwe0027"  d="M -2.825 4.1124646246232e-16 L -2.8237424419786485 4.111103660708405e-16 L -2.819985582436365 4.1070378838748977e-16 L -2.8137766660616736 4.100318423625379e-16 L -2.8051937735804837 4.091029781071208e-16 L -2.7943448398456567 4.079288766281899e-16 L -2.781366296493606 4.0652430293307227e-16 L -2.7664213562373097 4.049069203509367e-16 L -2.749697960371747 4.0309706840618086e-16 L -2.7314064153030673 4.011175070371105e-16 L -2.7117767478235115 3.9899313037650993e-16 L -2.6910558123910335 3.9675065369347833e-16 L -2.669504186791263 3.9441827743342006e-16 L -2.6473928952206616 3.9202533258108157e-16 L -2.625 3.896019118064e-16 " stroke="#191919" stroke-width="0.35 px" style="stroke-width:0.35;stroke-miterlimit:4;stroke-dasharray:none;fill:none;fill-opacity:1;fill-rule: evenodd"/>
<title>b'Shape2DView'</title>
</g>
<g id="Rectangle" transform="translate(3.668000,4.643000) scale(1,-1)">
<rect fill="#ff0000" id="origin" width="1" height="1" x="0" y="0" />
<title>b'Rectangle'</title>
</g>
</svg>