<?xml version="1.0"?>
<!DOCTYPE svg PUBLIC "-//W3C//DTD SVG 1.1//EN" "http://www.w3.org/Graphics/SVG/1.1/DTD/svg11.dtd">
<svg width="11.271mm" height="17.081000000000003mm" viewBox="0 0 11.271 17.081000000000003" xmlns="http://www.w3.org/2000/svg" version="1.1">
<g id="Shape2DView" transform="translate(3.185500,1.110500) scale(1,-1)">
<path id="Shape2DView_nwe0000"  d="M 5.5 0.0 L 5.5 -0.003929868816723414 L 5.5 -0.015670054886360196 L 5.5 -0.03507291855727024 L 5.5 -0.06189445756098799 L 5.5 -0.09579737548232248 L 5.5 -0.13635532345748136 L 5.5 -0.18305826175840778 L 5.5 -0.23531887383829153 L 5.5 -0.29247995217791467 L 5.5 -0.35382266305152615 L 5.5 -0.4185755862780205 L 5.5 -0.4859244162773035 L 5.5 -0.5550222024354325 L 5.5 -0.625 " stroke="#191919" stroke-width="0.35 px" style="stroke-width:0.35;stroke-miterlimit:4;stroke-dasharray:none;fill:none;fill-opacity:1;fill-rule: evenodd"/>
<path id="Shape2DView_nwe0001"  d="M 5.5 0.0 A 0.6 0.6 0 0 1 4.3 7.34788e-17" stroke="#191919" stroke-width="0.35 px" style="stroke-width:0.35;stroke-miterlimit:4;stroke-dasharray:none;fill:none;fill-opacity:1;fill-rule: evenodd"/>
<path id="Shape2DView_nwe0002"  d="M 5.5 -0.625 L 5.5 -2.5 " stroke="#191919" stroke-width="0.35 px" style="stroke-width:0.35;stroke-miterlimit:4;stroke-dasharray:none;fill:none;fill-opacity:1;fill-rule: evenodd"/>
<path id="Shape2DView_nwe0003"  d="M -0.7499999999999999 -2.5000000000000004 L -1.0103174069401906 -2.5000000000000004 L -1.2673611714484307 -2.5000000000000004 L -1.5178988190457634 -2.5000000000000004 L -1.7587796934483226 -2.5000000000000004 L -1.9869745778981573 -2.5000000000000004 L -2.1996137893215555 -2.5000000000000004 L -2.3940232662587233 -2.5000000000000004 L -2.5677581967381693 -2.5000000000000004 L -2.7186337632057604 -2.5000000000000004 L -2.8447526178731244 -2.5000000000000004 L -2.9445287429669547 -2.5 L -3.01670739582274 -2.5 L -3.0603808880017893 -2.5 L -3.075 -2.5 " stroke="#191919" stroke-width="0.35 px" style="stroke-width:0.35;stroke-miterlimit:4;stroke-dasharray:none;fill:none;fill-opacity:1;fill-rule: evenodd"/>
<path id="Shape2DView_nwe0004"  d="M -0.75 -2.5 L 5.65 -2.5 " stroke="#191919" stroke-width="0.35 px" style="stroke-width:0.35;stroke-miterlimit:4;stroke-dasharray:none;fill:none;fill-opacity:1;fill-rule: evenodd"/>
<path id="Shape2DView_nwe0005"  d="M 7.9750000000000005 -2.5 L 7.96038088800179 -2.5 L 7.9167073958227405 -2.5 L 7.844528742966956 -2.5 L 7.744752617873125 -2.5000000000000004 L 7.618633763205762 -2.5000000000000004 L 7.4677581967381705 -2.5000000000000004 L 7.294023266258724 -2.5000000000000004 L 7.099613789321556 -2.5000000000000004 L 6.886974577898158 -2.5000000000000004 L 6.658779693448324 -2.5000000000000004 L 6.417898819045765 -2.5000000000000004 L 6.167361171448432 -2.5000000000000004 L 5.910317406940192 -2.5000000000000004 L 5.650000000000001 -2.5000000000000004 " stroke="#191919" stroke-width="0.35 px" style="stroke-width:0.35;stroke-miterlimit:4;stroke-dasharray:none;fill:none;fill-opacity:1;fill-rule: evenodd"/>
<path id="Shape2DView_nwe0006"  d="M 0.6 -0.625 L 0.6 -2.5 " stroke="#191919" stroke-width="0.35 px" style="stroke-width:0.35;stroke-miterlimit:4;stroke-dasharray:none;fill:none;fill-opacity:1;fill-rule: evenodd"/>
<path id="Shape2DView_nwe0007"  d="M -0.7499999999999999 -3.0000000000000004 L -1.0103174069401906 -3.0000000000000004 L -1.2673611714484307 -3.0000000000000004 L -1.5178988190457634 -3.0000000000000004 L -1.7587796934483226 -3.0000000000000004 L -1.9869745778981573 -3.0000000000000004 L -2.1996137893215555 -3.0000000000000004 L -2.3940232662587233 -3.0000000000000004 L -2.5677581967381693 -3.0000000000000004 L -2.7186337632057604 -3.0000000000000004 L -2.8447526178731244 -3.0000000000000004 L -2.9445287429669547 -3.0 L -3.01670739582274 -3.0 L -3.0603808880017893 -3.0 L -3.075 -3.0 " stroke="#191919" stroke-width="0.35 px" style="stroke-width:0.35;stroke-miterlimit:4;stroke-dasharray:none;fill:none;fill-opacity:1;fill-rule: evenodd"/>
<path id="Shape2DView_nwe0008"  d="M -0.75 -3.0 L 5.65 -3.0 " stroke="#191919" stroke-width="0.35 px" style="stroke-width:0.35;stroke-miterlimit:4;stroke-dasharray:none;fill:none;fill-opacity:1;fill-rule: evenodd"/>
<path id="Shape2DView_nwe0009"  d="M 7.9750000000000005 -3.0 L 7.96038088800179 -3.0 L 7.9167073958227405 -3.0 L 7.844528742966956 -3.0 L 7.744752617873125 -3.0000000000000004 L 7.618633763205762 -3.0000000000000004 L 7.4677581967381705 -3.0000000000000004 L 7.294023266258724 -3.0000000000000004 L 7.099613789321556 -3.0000000000000004 L 6.886974577898158 -3.0000000000000004 L 6.658779693448324 -3.0000000000000004 L 6.417898819045765 -3.0000000000000004 L 6.167361171448432 -3.0000000000000004 L 5.910317406940192 -3.0000000000000004 L 5.650000000000001 -3.0000000000000004 " stroke="#191919" stroke-width="0.35 px" style="stroke-width:0.35;stroke-miterlimit:4;stroke-dasharray:none;fill:none;fill-opacity:1;fill-rule: evenodd"/>
<path id="Shape2DView_nwe0010"  d="M 0.6 0.0 L 0.6 -0.003929868816723414 L 0.6 -0.015670054886360196 L 0.6 -0.03507291855727024 L 0.6 -0.06189445756098799 L 0.6 -0.09579737548232248 L 0.6 -0.13635532345748136 L 0.6 -0.18305826175840778 L 0.6 -0.23531887383829153 L 0.6 -0.29247995217791467 L 0.6 -0.35382266305152615 L 0.6 -0.4185755862780205 L 0.6 -0.4859244162773035 L 0.6 -0.5550222024354325 L 0.6 -0.625 " stroke="#191919" stroke-width="0.35 px" style="stroke-width:0.35;stroke-miterlimit:4;stroke-dasharray:none;fill:none;fill-opacity:1;fill-rule: evenodd"/>
<path id="Shape2DView_nwe0011"  d="M 0.6 0.0 A 0.6 0.6 0 0 1 -0.6 7.34788e-17" stroke="#191919" stroke-width="0.35 px" style="stroke-width:0.35;stroke-miterlimit:4;stroke-dasharray:none;fill:none;fill-opacity:1;fill-rule: evenodd"/>
<path id="Shape2DView_nwe0012"  d="M -0.649999999999826 -15.860000000000001 L -0.8403396093754454 -15.860000000000001 L -1.028285587725555 -15.860000000000001 L -1.2114744053236053 -15.860000000000001 L -1.3876023564996736 -15.860000000000001 L -1.5544545300759032 -15.860000000000001 L -1.709932663159687 -15.860000000000001 L -1.8520815280169827 -15.86 L -1.9791135201955168 -15.86 L -2.089431138687966 -15.86 L -2.181647075434015 -15.86 L -2.254601661524149 -15.86 L -2.3073774507090477 -15.86 L -2.3393107568184854 -15.86 L -2.35 -15.86 " stroke="#191919" stroke-width="0.35 px" style="stroke-width:0.35;stroke-miterlimit:4;stroke-dasharray:none;fill:none;fill-opacity:1;fill-rule: evenodd"/>
<path id="Shape2DView_nwe0013"  d="M 5.55 -15.86 L -0.6500000000000004 -15.86 " stroke="#191919" stroke-width="0.35 px" style="stroke-width:0.35;stroke-miterlimit:4;stroke-dasharray:none;fill:none;fill-opacity:1;fill-rule: evenodd"/>
<path id="Shape2DView_nwe0014"  d="M 7.25 -15.86 L 7.2393107568184885 -15.86 L 7.207377450709059 -15.86 L 7.154601661524174 -15.86 L 7.081647075434058 -15.86 L 6.989431138688033 -15.86 L 6.87911352019561 -15.86 L 6.752081528017106 -15.86 L 6.609932663159844 -15.86 L 6.454454530076094 -15.86 L 6.2876023564998995 -15.86 L 6.111474405323865 -15.86 L 5.928285587725848 -15.860000000000001 L 5.74033960937577 -15.860000000000001 L 5.5500000000001775 -15.860000000000001 " stroke="#191919" stroke-width="0.35 px" style="stroke-width:0.35;stroke-miterlimit:4;stroke-dasharray:none;fill:none;fill-opacity:1;fill-rule: evenodd"/>
<path id="Shape2DView_nwe0016"  d="M 4.300000000000001 -0.625 L 4.315043252690906 -0.625 L 4.359418679258549 -0.625 L 4.430901110519183 -0.625 L 4.52590611888476 -0.625 L 4.639669756529465 -0.625 L 4.766487439626212 -0.625 L 4.9 -0.625 L 5.033512560373789 -0.625 L 5.160330243470535 -0.625 L 5.27409388111524 -0.625 L 5.369098889480818 -0.625 L 5.440581320741452 -0.625 L 5.484956747309094 -0.625 L 5.5 -0.625 " stroke="#191919" stroke-width="0.35 px" style="stroke-width:0.35;stroke-miterlimit:4;stroke-dasharray:none;fill:none;fill-opacity:1;fill-rule: evenodd"/>
<path id="Shape2DView_nwe0017"  d="M -0.6 -0.625 L -0.5849567473090942 -0.625 L -0.5405813207414515 -0.625 L -0.4690988894808179 -0.625 L -0.3740938811152402 -0.625 L -0.260330243470535 -0.625 L -0.13351256037378878 -0.625 L -1.4695761589768238e-16 -0.625 L 0.1335125603737885 -0.625 L 0.26033024347053474 -0.625 L 0.37409388111524 -0.625 L 0.46909888948081774 -0.625 L 0.5405813207414514 -0.625 L 0.5849567473090941 -0.625 L 0.6 -0.625 " stroke="#191919" stroke-width="0.35 px" style="stroke-width:0.35;stroke-miterlimit:4;stroke-dasharray:none;fill:none;fill-opacity:1;fill-rule: evenodd"/>
<path id="Shape2DView_nwe0018"  d="M -0.75 -2.5 L -0.75 -3.0 " stroke="#191919" stroke-width="0.35 px" style="stroke-width:0.35;stroke-miterlimit:4;stroke-dasharray:none;fill:none;fill-opacity:1;fill-rule: evenodd"/>
<path id="Shape2DView_nwe0019"  d="M 5.65 -2.5 L 5.65 -3.0 " stroke="#191919" stroke-width="0.35 px" style="stroke-width:0.35;stroke-miterlimit:4;stroke-dasharray:none;fill:none;fill-opacity:1;fill-rule: evenodd"/>
<path id="Shape2DView_nwe0020"  d="M -0.6499999999998055 -15.660000000000002 L -0.8627325045961054 -15.660000000000002 L -1.0727897745168347 -15.660000000000002 L -1.277530217714673 -15.660000000000002 L -1.4743791043232353 -15.660000000000002 L -1.6608609453790333 -15.660000000000002 L -1.8346306235315066 -15.660000000000002 L -1.9935028842543714 -15.660000000000002 L -2.1354798166892044 -15.66 L -2.258775978533703 -15.66 L -2.361840849014572 -15.66 L -2.4433783275858847 -15.66 L -2.5023630331454587 -15.66 L -2.5380531987971593 -15.66 L -2.55 -15.66 " stroke="#191919" stroke-width="0.35 px" style="stroke-width:0.35;stroke-miterlimit:4;stroke-dasharray:none;fill:none;fill-opacity:1;fill-rule: evenodd"/>
<path id="Shape2DView_nwe0021"  d="M -0.65 -3.0 L -0.65 -15.66 " stroke="#191919" stroke-width="0.35 px" style="stroke-width:0.35;stroke-miterlimit:4;stroke-dasharray:none;fill:none;fill-opacity:1;fill-rule: evenodd"/>
<path id="Shape2DView_nwe0022"  d="M 5.55 -15.66 L -0.6500000000000004 -15.66 " stroke="#191919" stroke-width="0.35 px" style="stroke-width:0.35;stroke-miterlimit:4;stroke-dasharray:none;fill:none;fill-opacity:1;fill-rule: evenodd"/>
<path id="Shape2DView_nwe0023"  d="M 5.55 -3.0 L 5.55 -15.66 " stroke="#191919" stroke-width="0.35 px" style="stroke-width:0.35;stroke-miterlimit:4;stroke-dasharray:none;fill:none;fill-opacity:1;fill-rule: evenodd"/>
<path id="Shape2DView_nwe0024"  d="M 7.449999999999999 -15.66 L 7.438053198797162 -15.66 L 7.402363033145471 -15.66 L 7.343378327585912 -15.66 L 7.261840849014621 -15.66 L 7.158775978533777 -15.66 L 7.0354798166893096 -15.66 L 6.89350288425451 -15.66 L 6.734630623531682 -15.66 L 6.560860945379248 -15.66 L 6.374379104323489 -15.66 L 6.177530217714965 -15.660000000000002 L 5.972789774517164 -15.660000000000002 L 5.762732504596469 -15.660000000000002 L 5.550000000000198 -15.660000000000002 " stroke="#191919" stroke-width="0.35 px" style="stroke-width:0.35;stroke-miterlimit:4;stroke-dasharray:none;fill:none;fill-opacity:1;fill-rule: evenodd"/>
<path id="Shape2DView_nwe0025"  d="M -0.65 -15.66 L -0.65 -15.682392895220662 L -0.65 -15.704504186791263 L -0.65 -15.726055812391033 L -0.65 -15.746776747823512 L -0.65 -15.766406415303068 L -0.65 -15.784697960371746 L -0.65 -15.80142135623731 L -0.65 -15.816366296493607 L -0.65 -15.829344839845657 L -0.65 -15.840193773580484 L -0.65 -15.848776666061674 L -0.65 -15.854985582436365 L -0.65 -15.858742441978649 L -0.65 -15.86 " stroke="#191919" stroke-width="0.35 px" style="stroke-width:0.35;stroke-miterlimit:4;stroke-dasharray:none;fill:none;fill-opacity:1;fill-rule: evenodd"/>
<path id="Shape2DView_nwe0026"  d="M 5.549999999999979 -15.66 L 5.549999999999979 -15.682392895220662 L 5.549999999999979 -15.704504186791263 L 5.54999999999998 -15.726055812391033 L 5.549999999999981 -15.746776747823512 L 5.549999999999982 -15.766406415303068 L 5.549999999999984 -15.784697960371746 L 5.549999999999986 -15.80142135623731 L 5.549999999999987 -15.816366296493607 L 5.549999999999989 -15.829344839845657 L 5.549999999999991 -15.840193773580484 L 5.549999999999993 -15.848776666061674 L 5.549999999999995 -15.854985582436365 L 5.549999999999997 -15.858742441978649 L 5.55 -15.86 " stroke="#191919" stroke-width="0.35 px" style="stroke-width:0.35;stroke-miterlimit:4;stroke-dasharray:none;fill:none;fill-opacity:1;fill-rule: evenodd"/>
<path id="Shape2DView_nwe0027"  d="M 4.300000000000001 -0.625 Q 4.300000000000001 -0.5191443998321488 4.300000000000001 -0.41328879966429743 Q 4.300000000000001 -0.364313565947022 4.300000000000001 -0.3153383322297469 Q 4.300000000000001 -0.01192626418104431 4.300000000000001 -1.1102230246251565e-16 " stroke="#191919" stroke-width="0.35 px" style="stroke-width:0.35;stroke-miterlimit:4;stroke-dasharray:none;fill:none;fill-opacity:1;fill-rule: evenodd"/>
<path id="Shape2DView_nwe0028"  d="M 4.300000000000001 -0.625 L 4.300000000000001 -2.5 " stroke="#191919" stroke-width="0.35 px" style="stroke-width:0.35;stroke-miterlimit:4;stroke-dasharray:none;fill:none;fill-opacity:1;fill-rule: evenodd"/>
<path id="Shape2DView_nwe0029"  d="M -0.6 -0.625 L -0.6 -2.5 " stroke="#191919" stroke-width="0.35 px" style="stroke-width:0.35;stroke-miterlimit:4;stroke-dasharray:none;fill:none;fill-opacity:1;fill-rule: evenodd"/>
<path id="Shape2DView_nwe0030"  d="M -3.075 -3.0 L -3.075 -2.5 " stroke="#191919" stroke-width="0.35 px" style="stroke-width:0.35;stroke-miterlimit:4;stroke-dasharray:none;fill:none;fill-opacity:1;fill-rule: evenodd"/>
<path id="Shape2DView_nwe0031"  d="M 7.9750000000000005 -3.0 L 7.9750000000000005 -2.5 " stroke="#191919" stroke-width="0.35 px" style="stroke-width:0.35;stroke-miterlimit:4;stroke-dasharray:none;fill:none;fill-opacity:1;fill-rule: evenodd"/>
<path id="Shape2DView_nwe0032"  d="M -0.6 -0.625 Q -0.5999999999999999 -0.5191443998321488 -0.6 -0.41328879966429743 Q -0.5999999999999999 -0.364313565947022 -0.6 -0.3153383322297469 Q -0.5999999999999999 -0.01192626418104431 -0.6 -1.1102230246251565e-16 " stroke="#191919" stroke-width="0.35 px" style="stroke-width:0.35;stroke-miterlimit:4;stroke-dasharray:none;fill:none;fill-opacity:1;fill-rule: evenodd"/>
<path id="Shape2DView_nwe0033"  d="M -2.55 -15.66 L -2.55 -3.0 " stroke="#191919" stroke-width="0.35 px" style="stroke-width:0.35;stroke-miterlimit:4;stroke-dasharray:none;fill:none;fill-opacity:1;fill-rule: evenodd"/>
<path id="Shape2DView_nwe0034"  d="M 7.449999999999999 -15.660000000000002 L 7.449999999999999 -3.0 " stroke="#191919" stroke-width="0.35 px" style="stroke-width:0.35;stroke-miterlimit:4;stroke-dasharray:none;fill:none;fill-opacity:1;fill-rule: evenodd"/>
<path id="Shape2DView_nwe0035"  d="M -2.55 -15.66 Q -2.533885221205042 -15.840544343704712 -2.3499999999999996 -15.860000000000003 " stroke="#191919" stroke-width="0.35 px" style="stroke-width:0.35;stroke-miterlimit:4;stroke-dasharray:none;fill:none;fill-opacity:1;fill-rule: evenodd"/>
<path id="Shape2DView_nwe0036"  d="M 7.449999999999999 -15.66 Q 7.433885221205042 -15.840544343704714 7.25 -15.86 " stroke="#191919" stroke-width="0.35 px" style="stroke-width:0.35;stroke-miterlimit:4;stroke-dasharray:none;fill:none;fill-opacity:1;fill-rule: evenodd"/>
<title>b'Shape2DView'</title>
</g>
<g id="Rectangle" transform="translate(3.185500,1.110500) scale(1,-1)">
<rect fill="#ff0000" id="origin" width="1" height="1" x="0" y="0" />
<title>b'Rectangle'</title>
</g>
</svg>