<?xml version="1.0"?>
<!DOCTYPE svg PUBLIC "-//W3C//DTD SVG 1.1//EN" "http://www.w3.org/Graphics/SVG/1.1/DTD/svg11.dtd">
<svg width="8.16mm" height="8.66mm" viewBox="0 0 8.16 8.66" xmlns="http://www.w3.org/2000/svg" version="1.1">
<g id="Shape2DView" transform="translate(2.180000,1.080000) scale(1,-1)">
<path id="Shape2DView_nwe0000"  d="M 4.05 0.0 L 4.05 -0.0023579212900340374 L 4.05 -0.009402032931816129 L 4.05 -0.021043751134362187 L 4.05 -0.037136674536592806 L 4.05 -0.05747842528939345 L 4.05 -0.08181319407448884 L 4.05 -0.10983495705504465 L 4.05 -0.1411913243029749 L 4.05 -0.17548797130674879 L 4.05 -0.21229359783091567 L 4.05 -0.2511453517668123 L 4.05 -0.29155464976638207 L 4.05 -0.3330133214612595 L 4.05 -0.375 " stroke="#191919" stroke-width="0.35 px" style="stroke-width:0.35;stroke-miterlimit:4;stroke-dasharray:none;fill:none;fill-opacity:1;fill-rule: evenodd"/>
<path id="Shape2DView_nwe0001"  d="M 4.05 0.0 A 0.25 0.25 0 0 1 3.55 3.06162e-17" stroke="#191919" stroke-width="0.35 px" style="stroke-width:0.35;stroke-miterlimit:4;stroke-dasharray:none;fill:none;fill-opacity:1;fill-rule: evenodd"/>
<path id="Shape2DView_nwe0002"  d="M 4.05 -0.375 L 4.05 -1.5 " stroke="#191919" stroke-width="0.35 px" style="stroke-width:0.35;stroke-miterlimit:4;stroke-dasharray:none;fill:none;fill-opacity:1;fill-rule: evenodd"/>
<path id="Shape2DView_nwe0003"  d="M -0.4499999999999999 -1.5000000000000004 L -0.6347413855704579 -1.5000000000000004 L -0.8171595410279187 -1.5000000000000004 L -0.9949604522260256 -1.5000000000000004 L -1.1659081695439708 -1.5000000000000002 L -1.3278529262503052 -1.5000000000000002 L -1.4787581730669102 -1.5000000000000002 L -1.6167261889578033 -1.5000000000000002 L -1.740021946072249 -1.5000000000000002 L -1.8470949287266687 -1.5000000000000002 L -1.9365986320389912 -1.5000000000000002 L -2.0074074950088066 -1.5000000000000002 L -2.058631055100009 -1.5 L -2.08962514632385 -1.5 L -2.1 -1.5 " stroke="#191919" stroke-width="0.35 px" style="stroke-width:0.35;stroke-miterlimit:4;stroke-dasharray:none;fill:none;fill-opacity:1;fill-rule: evenodd"/>
<path id="Shape2DView_nwe0004"  d="M -0.45 -1.5 L 4.25 -1.5 " stroke="#191919" stroke-width="0.35 px" style="stroke-width:0.35;stroke-miterlimit:4;stroke-dasharray:none;fill:none;fill-opacity:1;fill-rule: evenodd"/>
<path id="Shape2DView_nwe0005"  d="M 5.9 -1.5 L 5.8896251463238505 -1.5 L 5.858631055100009 -1.5 L 5.807407495008807 -1.5000000000000002 L 5.736598632038992 -1.5000000000000002 L 5.647094928726669 -1.5000000000000002 L 5.540021946072249 -1.5000000000000002 L 5.416726188957804 -1.5000000000000002 L 5.278758173066911 -1.5000000000000002 L 5.127852926250306 -1.5000000000000002 L 4.9659081695439715 -1.5000000000000002 L 4.794960452226026 -1.5000000000000004 L 4.617159541027919 -1.5000000000000004 L 4.434741385570458 -1.5000000000000004 L 4.250000000000001 -1.5000000000000004 " stroke="#191919" stroke-width="0.35 px" style="stroke-width:0.35;stroke-miterlimit:4;stroke-dasharray:none;fill:none;fill-opacity:1;fill-rule: evenodd"/>
<path id="Shape2DView_nwe0006"  d="M 0.25 -0.375 L 0.25 -1.5 " stroke="#191919" stroke-width="0.35 px" style="stroke-width:0.35;stroke-miterlimit:4;stroke-dasharray:none;fill:none;fill-opacity:1;fill-rule: evenodd"/>
<path id="Shape2DView_nwe0007"  d="M -0.4499999999999999 -2.0000000000000004 L -0.6347413855704579 -2.0000000000000004 L -0.8171595410279187 -2.0000000000000004 L -0.9949604522260256 -2.0000000000000004 L -1.1659081695439708 -2.0000000000000004 L -1.3278529262503052 -2.0000000000000004 L -1.4787581730669102 -2.0000000000000004 L -1.6167261889578033 -2.0000000000000004 L -1.740021946072249 -2.0000000000000004 L -1.8470949287266687 -2.0 L -1.9365986320389912 -2.0 L -2.0074074950088066 -2.0 L -2.058631055100009 -2.0 L -2.08962514632385 -2.0 L -2.1 -2.0 " stroke="#191919" stroke-width="0.35 px" style="stroke-width:0.35;stroke-miterlimit:4;stroke-dasharray:none;fill:none;fill-opacity:1;fill-rule: evenodd"/>
<path id="Shape2DView_nwe0008"  d="M -0.45 -2.0 L 4.25 -2.0 " stroke="#191919" stroke-width="0.35 px" style="stroke-width:0.35;stroke-miterlimit:4;stroke-dasharray:none;fill:none;fill-opacity:1;fill-rule: evenodd"/>
<path id="Shape2DView_nwe0009"  d="M 5.9 -2.0 L 5.8896251463238505 -2.0 L 5.858631055100009 -2.0 L 5.807407495008807 -2.0 L 5.736598632038992 -2.0 L 5.647094928726669 -2.0 L 5.540021946072249 -2.0000000000000004 L 5.416726188957804 -2.0000000000000004 L 5.278758173066911 -2.0000000000000004 L 5.127852926250306 -2.0000000000000004 L 4.9659081695439715 -2.0000000000000004 L 4.794960452226026 -2.0000000000000004 L 4.617159541027919 -2.0000000000000004 L 4.434741385570458 -2.0000000000000004 L 4.250000000000001 -2.0000000000000004 " stroke="#191919" stroke-width="0.35 px" style="stroke-width:0.35;stroke-miterlimit:4;stroke-dasharray:none;fill:none;fill-opacity:1;fill-rule: evenodd"/>
<path id="Shape2DView_nwe0010"  d="M 0.25 0.0 L 0.25 -0.0023579212900340374 L 0.25 -0.009402032931816129 L 0.25 -0.021043751134362187 L 0.25 -0.037136674536592806 L 0.25 -0.05747842528939345 L 0.25 -0.08181319407448884 L 0.25 -0.10983495705504465 L 0.25 -0.1411913243029749 L 0.25 -0.17548797130674879 L 0.25 -0.21229359783091567 L 0.25 -0.2511453517668123 L 0.25 -0.29155464976638207 L 0.25 -0.3330133214612595 L 0.25 -0.375 " stroke="#191919" stroke-width="0.35 px" style="stroke-width:0.35;stroke-miterlimit:4;stroke-dasharray:none;fill:none;fill-opacity:1;fill-rule: evenodd"/>
<path id="Shape2DView_nwe0011"  d="M 0.25 0.0 A 0.25 0.25 0 0 1 -0.25 3.06162e-17" stroke="#191919" stroke-width="0.35 px" style="stroke-width:0.35;stroke-miterlimit:4;stroke-dasharray:none;fill:none;fill-opacity:1;fill-rule: evenodd"/>
<path id="Shape2DView_nwe0012"  d="M 5.2 -7.5 L 5.194026599398568 -7.5 L 5.176181516572711 -7.5 L 5.146689163792923 -7.5 L 5.105920424507271 -7.5 L 5.0543879892668455 -7.5 L 4.992739908344609 -7.5 L 4.92175144212721 -7.5 L 4.842315311765798 -7.500000000000001 L 4.755430472689585 -7.500000000000001 L 4.662189552161711 -7.500000000000001 L 4.563765108857456 -7.500000000000001 L 4.461394887258563 -7.500000000000001 L 4.356366252298224 -7.500000000000001 L 4.250000000000098 -7.500000000000001 " stroke="#191919" stroke-width="0.35 px" style="stroke-width:0.35;stroke-miterlimit:4;stroke-dasharray:none;fill:none;fill-opacity:1;fill-rule: evenodd"/>
<path id="Shape2DView_nwe0013"  d="M -0.44999999999990004 -7.500000000000001 L -0.5563662522980412 -7.500000000000001 L -0.6613948872583975 -7.500000000000001 L -0.7637651088573089 -7.5 L -0.8621895521615832 -7.5 L -0.9554304726894769 -7.5 L -1.0423153117657096 -7.5 L -1.12175144212714 -7.5 L -1.1927399083445562 -7.5 L -1.2543879892668075 -7.5 L -1.3059204245072464 -7.5 L -1.3466891637929093 -7.5 L -1.376181516572705 -7.5 L -1.3940265993985663 -7.5 L -1.4 -7.5 " stroke="#191919" stroke-width="0.35 px" style="stroke-width:0.35;stroke-miterlimit:4;stroke-dasharray:none;fill:none;fill-opacity:1;fill-rule: evenodd"/>
<path id="Shape2DView_nwe0014"  d="M 4.25 -7.5 L -0.4500000000000002 -7.5 " stroke="#191919" stroke-width="0.35 px" style="stroke-width:0.35;stroke-miterlimit:4;stroke-dasharray:none;fill:none;fill-opacity:1;fill-rule: evenodd"/>
<path id="Shape2DView_nwe0016"  d="M 3.55 -0.375 L 3.5562680219545437 -0.375 L 3.574757783024395 -0.375 L 3.6045421293829922 -0.375 L 3.6441275495353165 -0.375 L 3.6915290652206103 -0.375 L 3.7443697665109212 -0.375 L 3.8 -0.375 L 3.8556302334890784 -0.375 L 3.9084709347793893 -0.375 L 3.955872450464683 -0.375 L 3.9954578706170074 -0.375 L 4.025242216975604 -0.375 L 4.0437319780454555 -0.375 L 4.05 -0.375 " stroke="#191919" stroke-width="0.35 px" style="stroke-width:0.35;stroke-miterlimit:4;stroke-dasharray:none;fill:none;fill-opacity:1;fill-rule: evenodd"/>
<path id="Shape2DView_nwe0017"  d="M -0.25 -0.375 L -0.2437319780454559 -0.375 L -0.22524221697560481 -0.375 L -0.19545787061700748 -0.375 L -0.15587245046468343 -0.375 L -0.10847093477938959 -0.375 L -0.05563023348907866 -0.375 L -6.123233995736766e-17 -0.375 L 0.05563023348907854 -0.375 L 0.10847093477938947 -0.375 L 0.15587245046468334 -0.375 L 0.1954578706170074 -0.375 L 0.22524221697560476 -0.375 L 0.24373197804545588 -0.375 L 0.25 -0.375 " stroke="#191919" stroke-width="0.35 px" style="stroke-width:0.35;stroke-miterlimit:4;stroke-dasharray:none;fill:none;fill-opacity:1;fill-rule: evenodd"/>
<path id="Shape2DView_nwe0018"  d="M -0.45 -1.5 L -0.45 -2.0 " stroke="#191919" stroke-width="0.35 px" style="stroke-width:0.35;stroke-miterlimit:4;stroke-dasharray:none;fill:none;fill-opacity:1;fill-rule: evenodd"/>
<path id="Shape2DView_nwe0019"  d="M 4.25 -1.5 L 4.25 -2.0 " stroke="#191919" stroke-width="0.35 px" style="stroke-width:0.35;stroke-miterlimit:4;stroke-dasharray:none;fill:none;fill-opacity:1;fill-rule: evenodd"/>
<path id="Shape2DView_nwe0020"  d="M 4.25 -2.0 L 4.25 -7.3 " stroke="#191919" stroke-width="0.35 px" style="stroke-width:0.35;stroke-miterlimit:4;stroke-dasharray:none;fill:none;fill-opacity:1;fill-rule: evenodd"/>
<path id="Shape2DView_nwe0021"  d="M 5.4 -7.3 L 5.39276904137723 -7.3 L 5.371167099009101 -7.3 L 5.3354658298546305 -7.3 L 5.286114198087796 -7.3 L 5.223732829112549 -7.3 L 5.149106204838266 -7.300000000000001 L 5.063172798364572 -7.300000000000001 L 4.967013272137597 -7.300000000000001 L 4.861836887992702 -7.300000000000001 L 4.748966299985269 -7.300000000000001 L 4.629820921248531 -7.300000000000001 L 4.505899074049862 -7.300000000000001 L 4.378759147518915 -7.300000000000001 L 4.250000000000118 -7.300000000000001 " stroke="#191919" stroke-width="0.35 px" style="stroke-width:0.35;stroke-miterlimit:4;stroke-dasharray:none;fill:none;fill-opacity:1;fill-rule: evenodd"/>
<path id="Shape2DView_nwe0022"  d="M -0.449999999999879 -7.300000000000001 L -0.5787591475186923 -7.300000000000001 L -0.7058990740496602 -7.300000000000001 L -0.8298209212483523 -7.300000000000001 L -0.9489662999851136 -7.300000000000001 L -1.0618368879925708 -7.300000000000001 L -1.167013272137489 -7.3 L -1.2631727983644865 -7.3 L -1.3491062048382014 -7.3 L -1.4237328291125033 -7.3 L -1.4861141980877663 -7.3 L -1.5354658298546138 -7.3 L -1.5711670990090931 -7.3 L -1.5927690413772277 -7.3 L -1.5999999999999999 -7.3 " stroke="#191919" stroke-width="0.35 px" style="stroke-width:0.35;stroke-miterlimit:4;stroke-dasharray:none;fill:none;fill-opacity:1;fill-rule: evenodd"/>
<path id="Shape2DView_nwe0023"  d="M -0.45 -2.0 L -0.45 -7.3 " stroke="#191919" stroke-width="0.35 px" style="stroke-width:0.35;stroke-miterlimit:4;stroke-dasharray:none;fill:none;fill-opacity:1;fill-rule: evenodd"/>
<path id="Shape2DView_nwe0024"  d="M 4.25 -7.3 L -0.4500000000000002 -7.3 " stroke="#191919" stroke-width="0.35 px" style="stroke-width:0.35;stroke-miterlimit:4;stroke-dasharray:none;fill:none;fill-opacity:1;fill-rule: evenodd"/>
<path id="Shape2DView_nwe0025"  d="M 4.24999999999998 -7.3 L 4.24999999999998 -7.322392895220662 L 4.2499999999999805 -7.344504186791263 L 4.2499999999999805 -7.366055812391033 L 4.249999999999981 -7.386776747823512 L 4.249999999999982 -7.406406415303067 L 4.249999999999984 -7.424697960371747 L 4.249999999999986 -7.441421356237309 L 4.249999999999988 -7.456366296493606 L 4.249999999999989 -7.469344839845657 L 4.249999999999991 -7.480193773580484 L 4.249999999999993 -7.488776666061673 L 4.249999999999996 -7.494985582436365 L 4.249999999999997 -7.498742441978648 L 4.25 -7.5 " stroke="#191919" stroke-width="0.35 px" style="stroke-width:0.35;stroke-miterlimit:4;stroke-dasharray:none;fill:none;fill-opacity:1;fill-rule: evenodd"/>
<path id="Shape2DView_nwe0026"  d="M -0.45 -7.3 L -0.45 -7.322392895220662 L -0.45 -7.344504186791263 L -0.45 -7.366055812391033 L -0.45 -7.386776747823512 L -0.45 -7.406406415303067 L -0.45 -7.424697960371747 L -0.45 -7.441421356237309 L -0.45 -7.456366296493606 L -0.45 -7.469344839845657 L -0.45 -7.480193773580484 L -0.45 -7.488776666061673 L -0.45 -7.494985582436365 L -0.45 -7.498742441978648 L -0.45 -7.5 " stroke="#191919" stroke-width="0.35 px" style="stroke-width:0.35;stroke-miterlimit:4;stroke-dasharray:none;fill:none;fill-opacity:1;fill-rule: evenodd"/>
<path id="Shape2DView_nwe0027"  d="M 3.55 -0.375 Q 3.5499999999999994 -0.036479365671238106 3.55 -5.551115123125783e-17 " stroke="#191919" stroke-width="0.35 px" style="stroke-width:0.35;stroke-miterlimit:4;stroke-dasharray:none;fill:none;fill-opacity:1;fill-rule: evenodd"/>
<path id="Shape2DView_nwe0028"  d="M 3.55 -0.375 L 3.55 -1.5 " stroke="#191919" stroke-width="0.35 px" style="stroke-width:0.35;stroke-miterlimit:4;stroke-dasharray:none;fill:none;fill-opacity:1;fill-rule: evenodd"/>
<path id="Shape2DView_nwe0029"  d="M -0.25 -0.375 L -0.25 -1.5 " stroke="#191919" stroke-width="0.35 px" style="stroke-width:0.35;stroke-miterlimit:4;stroke-dasharray:none;fill:none;fill-opacity:1;fill-rule: evenodd"/>
<path id="Shape2DView_nwe0030"  d="M -2.1 -2.0 L -2.1 -1.5 " stroke="#191919" stroke-width="0.35 px" style="stroke-width:0.35;stroke-miterlimit:4;stroke-dasharray:none;fill:none;fill-opacity:1;fill-rule: evenodd"/>
<path id="Shape2DView_nwe0031"  d="M 5.9 -2.0 L 5.9 -1.5 " stroke="#191919" stroke-width="0.35 px" style="stroke-width:0.35;stroke-miterlimit:4;stroke-dasharray:none;fill:none;fill-opacity:1;fill-rule: evenodd"/>
<path id="Shape2DView_nwe0032"  d="M -0.25 -0.375 Q -0.25 -0.036479365671238106 -0.25 -5.551115123125783e-17 " stroke="#191919" stroke-width="0.35 px" style="stroke-width:0.35;stroke-miterlimit:4;stroke-dasharray:none;fill:none;fill-opacity:1;fill-rule: evenodd"/>
<path id="Shape2DView_nwe0033"  d="M 5.4 -7.3 L 5.4 -1.9999999999999998 " stroke="#191919" stroke-width="0.35 px" style="stroke-width:0.35;stroke-miterlimit:4;stroke-dasharray:none;fill:none;fill-opacity:1;fill-rule: evenodd"/>
<path id="Shape2DView_nwe0034"  d="M -1.5999999999999999 -7.3 L -1.5999999999999999 -1.9999999999999998 " stroke="#191919" stroke-width="0.35 px" style="stroke-width:0.35;stroke-miterlimit:4;stroke-dasharray:none;fill:none;fill-opacity:1;fill-rule: evenodd"/>
<path id="Shape2DView_nwe0035"  d="M 5.4 -7.3 Q 5.383885221205041 -7.4805443437047145 5.2 -7.5 " stroke="#191919" stroke-width="0.35 px" style="stroke-width:0.35;stroke-miterlimit:4;stroke-dasharray:none;fill:none;fill-opacity:1;fill-rule: evenodd"/>
<path id="Shape2DView_nwe0036"  d="M -1.5999999999999999 -7.3 Q -1.583885221205042 -7.480544343704713 -1.4 -7.5 " stroke="#191919" stroke-width="0.35 px" style="stroke-width:0.35;stroke-miterlimit:4;stroke-dasharray:none;fill:none;fill-opacity:1;fill-rule: evenodd"/>
<title>b'Shape2DView'</title>
</g>
<g id="Rectangle" transform="translate(2.180000,1.080000) scale(1,-1)">
<rect fill="#ff0000" id="origin" width="1" height="1" x="0" y="0" />
<title>b'Rectangle'</title>
</g>
</svg>