<?xml version="1.0"?>
<!DOCTYPE svg PUBLIC "-//W3C//DTD SVG 1.1//EN" "http://www.w3.org/Graphics/SVG/1.1/DTD/svg11.dtd">
<svg width="8.16mm" height="3.46mm" viewBox="0 0 8.16 3.46" xmlns="http://www.w3.org/2000/svg" version="1.1">
<g id="Shape2DView" transform="translate(2.180000,1.730000) scale(1,-1)">
<path id="Shape2DView_nwe0000"  d="M -0.45 1.65 L 4.25 1.65 " stroke="#191919" stroke-width="0.35 px" style="stroke-width:0.35;stroke-miterlimit:4;stroke-dasharray:none;fill:none;fill-opacity:1;fill-rule: evenodd"/>
<path id="Shape2DView_nwe0001"  d="M -0.4499999999999999 1.65 A 1.65 1.65 0 0 1 -2.1 2.02067e-16" stroke="#191919" stroke-width="0.35 px" style="stroke-width:0.35;stroke-miterlimit:4;stroke-dasharray:none;fill:none;fill-opacity:1;fill-rule: evenodd"/>
<path id="Shape2DView_nwe0002"  d="M 5.9 0.0 A 1.65 1.65 0 0 1 4.25 1.65" stroke="#191919" stroke-width="0.35 px" style="stroke-width:0.35;stroke-miterlimit:4;stroke-dasharray:none;fill:none;fill-opacity:1;fill-rule: evenodd"/>
<path id="Shape2DView_nwe0003"  d="M -2.1 2.0206670030147298e-16 A 1.65 1.65 0 0 1 -0.45 -1.65" stroke="#191919" stroke-width="0.35 px" style="stroke-width:0.35;stroke-miterlimit:4;stroke-dasharray:none;fill:none;fill-opacity:1;fill-rule: evenodd"/>
<path id="Shape2DView_nwe0004"  d="M 4.25 -1.65 L -0.4500000000000002 -1.65 " stroke="#191919" stroke-width="0.35 px" style="stroke-width:0.35;stroke-miterlimit:4;stroke-dasharray:none;fill:none;fill-opacity:1;fill-rule: evenodd"/>
<path id="Shape2DView_nwe0005"  d="M 4.25 -1.65 A 1.65 1.65 0 0 1 5.9 -4.04133e-16" stroke="#191919" stroke-width="0.35 px" style="stroke-width:0.35;stroke-miterlimit:4;stroke-dasharray:none;fill:none;fill-opacity:1;fill-rule: evenodd"/>
<path id="Shape2DView_nwe0006"  d="M 4.250000000007 -1.149999999999 L -0.449999999998 -1.149999999999 " stroke="#191919" stroke-width="0.35 px" style="stroke-width:0.35;stroke-miterlimit:4;stroke-dasharray:none;fill:none;fill-opacity:1;fill-rule: evenodd"/>
<path id="Shape2DView_nwe0007"  d="M -0.449999999998 1.150000000001 L 4.250000000043 1.150000000001 " stroke="#191919" stroke-width="0.35 px" style="stroke-width:0.35;stroke-miterlimit:4;stroke-dasharray:none;fill:none;fill-opacity:1;fill-rule: evenodd"/>
<path id="Shape2DView_nwe0008"  d="M 5.3999999999999995 -2.8166876380221044e-16 A 1.15 1.15 0 0 0 4.25 -1.15" stroke="#191919" stroke-width="0.35 px" style="stroke-width:0.35;stroke-miterlimit:4;stroke-dasharray:none;fill:none;fill-opacity:1;fill-rule: evenodd"/>
<path id="Shape2DView_nwe0009"  d="M 4.250000000006881 1.149999999993 A 1.15 1.15 0 0 0 5.4 9.26217e-17" stroke="#191919" stroke-width="0.35 px" style="stroke-width:0.35;stroke-miterlimit:4;stroke-dasharray:none;fill:none;fill-opacity:1;fill-rule: evenodd"/>
<path id="Shape2DView_nwe0010"  d="M -1.6 1.4083438190202745e-16 A 1.15 1.15 0 0 0 -0.45 1.15" stroke="#191919" stroke-width="0.35 px" style="stroke-width:0.35;stroke-miterlimit:4;stroke-dasharray:none;fill:none;fill-opacity:1;fill-rule: evenodd"/>
<path id="Shape2DView_nwe0011"  d="M -0.4499999999988807 -1.149999999999 A 1.15 1.15 0 0 0 -1.6 1.40525e-16" stroke="#191919" stroke-width="0.35 px" style="stroke-width:0.35;stroke-miterlimit:4;stroke-dasharray:none;fill:none;fill-opacity:1;fill-rule: evenodd"/>
<path id="Shape2DView_nwe0016"  d="M 4.25000000000702 -1.149999999993 L 4.25000000000702 -1.1487424419716485 L 4.25000000000702 -1.1449855824293647 L 4.250000000007019 -1.1387766660546736 L 4.250000000007018 -1.1301937735734837 L 4.2500000000070175 -1.1193448398386567 L 4.250000000007016 -1.106366296486606 L 4.250000000007015 -1.0914213562303094 L 4.250000000007013 -1.0746979603647466 L 4.25000000000701 -1.0564064152960673 L 4.250000000007009 -1.0367767478165115 L 4.250000000007007 -1.0160558123840335 L 4.250000000007004 -0.9945041867842629 L 4.250000000007002 -0.9723928952136616 L 4.250000000007 -0.949999999993 " stroke="#191919" stroke-width="0.35 px" style="stroke-width:0.35;stroke-miterlimit:4;stroke-dasharray:none;fill:none;fill-opacity:1;fill-rule: evenodd"/>
<path id="Shape2DView_nwe0017"  d="M 4.250000000007 -0.949999999999 L -0.449999999998 -0.949999999999 " stroke="#191919" stroke-width="0.35 px" style="stroke-width:0.35;stroke-miterlimit:4;stroke-dasharray:none;fill:none;fill-opacity:1;fill-rule: evenodd"/>
<path id="Shape2DView_nwe0018"  d="M -0.449999999998 -1.149999999999 L -0.449999999998 -1.1487424419776486 L -0.449999999998 -1.1449855824353647 L -0.449999999998 -1.1387766660606735 L -0.449999999998 -1.1301937735794838 L -0.449999999998 -1.1193448398446568 L -0.449999999998 -1.106366296492606 L -0.449999999998 -1.0914213562363095 L -0.449999999998 -1.0746979603707467 L -0.449999999998 -1.0564064153020674 L -0.449999999998 -1.0367767478225116 L -0.449999999998 -1.0160558123900334 L -0.449999999998 -0.9945041867902629 L -0.449999999998 -0.9723928952196615 L -0.449999999998 -0.949999999999 " stroke="#191919" stroke-width="0.35 px" style="stroke-width:0.35;stroke-miterlimit:4;stroke-dasharray:none;fill:none;fill-opacity:1;fill-rule: evenodd"/>
<path id="Shape2DView_nwe0019"  d="M 5.199999999999999 -2.3268289183631045e-16 A 0.95 0.95 0 0 0 4.25 -0.95" stroke="#191919" stroke-width="0.35 px" style="stroke-width:0.35;stroke-miterlimit:4;stroke-dasharray:none;fill:none;fill-opacity:1;fill-rule: evenodd"/>
<path id="Shape2DView_nwe0020"  d="M 4.250000000006901 0.949999999993 A 0.95 0.95 0 0 0 5.2 7.65135e-17" stroke="#191919" stroke-width="0.35 px" style="stroke-width:0.35;stroke-miterlimit:4;stroke-dasharray:none;fill:none;fill-opacity:1;fill-rule: evenodd"/>
<path id="Shape2DView_nwe0021"  d="M 4.250000000043 1.150000000001 L 4.250000000043 1.1487424419796486 L 4.250000000043 1.1449855824373647 L 4.250000000043 1.1387766660626735 L 4.250000000043 1.130193773581484 L 4.250000000043 1.119344839846657 L 4.250000000043 1.106366296494606 L 4.250000000043 1.0914213562383095 L 4.250000000043 1.0746979603727467 L 4.250000000043 1.0564064153040673 L 4.250000000043 1.0367767478245118 L 4.250000000043 1.0160558123920336 L 4.250000000043 0.9945041867922629 L 4.250000000043 0.9723928952216616 L 4.250000000043 0.950000000001 " stroke="#191919" stroke-width="0.35 px" style="stroke-width:0.35;stroke-miterlimit:4;stroke-dasharray:none;fill:none;fill-opacity:1;fill-rule: evenodd"/>
<path id="Shape2DView_nwe0022"  d="M -0.449999999998 1.150000000001 L -0.449999999998 1.1487424419796486 L -0.449999999998 1.1449855824373647 L -0.449999999998 1.1387766660626735 L -0.449999999998 1.130193773581484 L -0.449999999998 1.119344839846657 L -0.449999999998 1.106366296494606 L -0.449999999998 1.0914213562383095 L -0.449999999998 1.0746979603727467 L -0.449999999998 1.0564064153040673 L -0.449999999998 1.0367767478245118 L -0.449999999998 1.0160558123920336 L -0.449999999998 0.9945041867922629 L -0.449999999998 0.9723928952216616 L -0.449999999998 0.950000000001 " stroke="#191919" stroke-width="0.35 px" style="stroke-width:0.35;stroke-miterlimit:4;stroke-dasharray:none;fill:none;fill-opacity:1;fill-rule: evenodd"/>
<path id="Shape2DView_nwe0023"  d="M -0.449999999998 0.950000000001 L 4.250000000043 0.950000000001 " stroke="#191919" stroke-width="0.35 px" style="stroke-width:0.35;stroke-miterlimit:4;stroke-dasharray:none;fill:none;fill-opacity:1;fill-rule: evenodd"/>
<path id="Shape2DView_nwe0024"  d="M -1.4 1.1634144591908746e-16 A 0.95 0.95 0 0 0 -0.45 0.95" stroke="#191919" stroke-width="0.35 px" style="stroke-width:0.35;stroke-miterlimit:4;stroke-dasharray:none;fill:none;fill-opacity:1;fill-rule: evenodd"/>
<path id="Shape2DView_nwe0025"  d="M -0.44999999999890145 -0.949999999999 A 0.95 0.95 0 0 0 -1.4 1.16086e-16" stroke="#191919" stroke-width="0.35 px" style="stroke-width:0.35;stroke-miterlimit:4;stroke-dasharray:none;fill:none;fill-opacity:1;fill-rule: evenodd"/>
<path id="Shape2DView_nwe0026"  d="M 5.4 9.2621652133748e-17 L 5.398742441978649 9.25203676975808e-17 L 5.394985582436365 9.221778809963056e-17 L 5.388776666061673 9.171771845390229e-17 L 5.380193773580484 9.102644742633819e-17 L 5.369344839845657 9.015266815119468e-17 L 5.356366296493606 8.910736890983523e-17 L 5.341421356237309 8.790369494671667e-17 L 5.324697960371747 8.655678316031313e-17 L 5.3064064153030674 8.508357174783505e-17 L 5.286776747823512 8.350258719757151e-17 L 5.266055812391033 8.18337113075507e-17 L 5.244504186791263 8.009793116039394e-17 L 5.222392895220662 7.831707519857485e-17 L 5.2 7.651353871909e-17 " stroke="#191919" stroke-width="0.35 px" style="stroke-width:0.35;stroke-miterlimit:4;stroke-dasharray:none;fill:none;fill-opacity:1;fill-rule: evenodd"/>
<path id="Shape2DView_nwe0027"  d="M -1.599999999997 1.4052518357888e-16 L -1.5987424419756486 1.4037151525556542e-16 L -1.5949855824333647 1.3991244275394778e-16 L -1.5887766660586737 1.3915373917709503e-16 L -1.5801937735774838 1.3810494566269613e-16 L -1.5693448398426568 1.3677925139771885e-16 L -1.556366296490606 1.3519332775673096e-16 L -1.5414213562343095 1.3336711864969226e-16 L -1.5246979603687467 1.3132358971571492e-16 L -1.5064064153000674 1.2908843951682686e-16 L -1.4867767478205116 1.266897763636434e-16 L -1.4660558123880336 1.2415776483705266e-16 L -1.4445041867882629 1.2152424645110877e-16 L -1.4223928952176617 1.18822339227518e-16 L -1.399999999997 1.160860212173e-16 " stroke="#191919" stroke-width="0.35 px" style="stroke-width:0.35;stroke-miterlimit:4;stroke-dasharray:none;fill:none;fill-opacity:1;fill-rule: evenodd"/>
<title>b'Shape2DView'</title>
</g>
<g id="Rectangle" transform="translate(2.180000,1.730000) scale(1,-1)">
<rect fill="#ff0000" id="origin" width="1" height="1" x="0" y="0" />
<title>b'Rectangle'</title>
</g>
</svg>