<?xml version="1.0"?>
<!DOCTYPE svg PUBLIC "-//W3C//DTD SVG 1.1//EN" "http://www.w3.org/Graphics/SVG/1.1/DTD/svg11.dtd">
<svg width="10.200000000000104mm" height="5.200000000000002mm" viewBox="0 0 10.200000000000104 5.200000000000002" xmlns="http://www.w3.org/2000/svg" version="1.1">
<g id="Shape2DView" transform="translate(2.600000,2.600000) scale(1,-1)">
<path id="Shape2DView_nwe0000"  d="M -1.615585138459e-12 2.5 L 5.000000000003 2.5 " stroke="#191919" stroke-width="0.35 px" style="stroke-width:0.35;stroke-miterlimit:4;stroke-dasharray:none;fill:none;fill-opacity:1;fill-rule: evenodd"/>
<path id="Shape2DView_nwe0001"  d="M -2.5000000000001017 3.0616169978675e-16 A 2.5 2.5 0 0 0 -1.61538e-12 2.5" stroke="#191919" stroke-width="0.35 px" style="stroke-width:0.35;stroke-miterlimit:4;stroke-dasharray:none;fill:none;fill-opacity:1;fill-rule: evenodd"/>
<path id="Shape2DView_nwe0002"  d="M 4.9999999999997415 2.5 A 2.5 2.5 0 0 0 7.5 -6.89638e-17" stroke="#191919" stroke-width="0.35 px" style="stroke-width:0.35;stroke-miterlimit:4;stroke-dasharray:none;fill:none;fill-opacity:1;fill-rule: evenodd"/>
<path id="Shape2DView_nwe0003"  d="M 1.575912100586e-13 -2.5 A 2.5 2.5 0 0 0 -2.5 3.06162e-16" stroke="#191919" stroke-width="0.35 px" style="stroke-width:0.35;stroke-miterlimit:4;stroke-dasharray:none;fill:none;fill-opacity:1;fill-rule: evenodd"/>
<path id="Shape2DView_nwe0004"  d="M 5.000000000001 -2.5 L 1.972644270153978e-12 -2.5 " stroke="#191919" stroke-width="0.35 px" style="stroke-width:0.35;stroke-miterlimit:4;stroke-dasharray:none;fill:none;fill-opacity:1;fill-rule: evenodd"/>
<path id="Shape2DView_nwe0005"  d="M 7.5 -6.123233995737499e-16 A 2.5 2.5 0 0 0 5 -2.5" stroke="#191919" stroke-width="0.35 px" style="stroke-width:0.35;stroke-miterlimit:4;stroke-dasharray:none;fill:none;fill-opacity:1;fill-rule: evenodd"/>
<path id="Shape2DView_nwe0007"  d="M -1.615585138459e-12 2.5 L -1.615585138459e-12 2.4874244197864854 L -1.615585138459e-12 2.449855824363647 L -1.615585138459e-12 2.387766660616735 L -1.615585138459e-12 2.301937735804838 L -1.615585138459e-12 2.1934483984565682 L -1.615585138459e-12 2.06366296493606 L -1.615585138459e-12 1.9142135623730951 L -1.615585138459e-12 1.7469796037174672 L -1.615585138459e-12 1.5640641530306731 L -1.615585138459e-12 1.3677674782351164 L -1.615585138459e-12 1.1605581239103344 L -1.615585138459e-12 0.9450418679126289 L -1.615585138459e-12 0.7239289522066158 L -1.615585138459e-12 0.5000000000000001 " stroke="#191919" stroke-width="0.35 px" style="stroke-width:0.35;stroke-miterlimit:4;stroke-dasharray:none;fill:none;fill-opacity:1;fill-rule: evenodd"/>
<path id="Shape2DView_nwe0008"  d="M -1.615585138459e-12 0.5 L 5.000000000003 0.5 " stroke="#191919" stroke-width="0.35 px" style="stroke-width:0.35;stroke-miterlimit:4;stroke-dasharray:none;fill:none;fill-opacity:1;fill-rule: evenodd"/>
<path id="Shape2DView_nwe0009"  d="M 5.000000000003 2.5 L 5.000000000003 2.4874244197864854 L 5.000000000003 2.449855824363647 L 5.000000000003 2.387766660616735 L 5.000000000003 2.301937735804838 L 5.000000000003 2.1934483984565682 L 5.000000000003 2.06366296493606 L 5.000000000003 1.9142135623730951 L 5.000000000003 1.7469796037174672 L 5.000000000003 1.5640641530306731 L 5.000000000003 1.3677674782351164 L 5.000000000003 1.1605581239103344 L 5.000000000003 0.9450418679126289 L 5.000000000003 0.7239289522066158 L 5.000000000003 0.5000000000000001 " stroke="#191919" stroke-width="0.35 px" style="stroke-width:0.35;stroke-miterlimit:4;stroke-dasharray:none;fill:none;fill-opacity:1;fill-rule: evenodd"/>
<path id="Shape2DView_nwe0011"  d="M -0.5000000000001017 6.123233995735e-17 A 0.5 0.5 0 0 0 -1.61561e-12 0.5" stroke="#191919" stroke-width="0.35 px" style="stroke-width:0.35;stroke-miterlimit:4;stroke-dasharray:none;fill:none;fill-opacity:1;fill-rule: evenodd"/>
<path id="Shape2DView_nwe0013"  d="M -4.98751461114e-14 -0.5 A 0.5 0.5 0 0 0 -0.5 6.12323e-17" stroke="#191919" stroke-width="0.35 px" style="stroke-width:0.35;stroke-miterlimit:4;stroke-dasharray:none;fill:none;fill-opacity:1;fill-rule: evenodd"/>
<path id="Shape2DView_nwe0014"  d="M 5.0 -0.5 L 1.972644270153978e-12 -0.5 " stroke="#191919" stroke-width="0.35 px" style="stroke-width:0.35;stroke-miterlimit:4;stroke-dasharray:none;fill:none;fill-opacity:1;fill-rule: evenodd"/>
<path id="Shape2DView_nwe0015"  d="M 5.5 -1.2246467991475e-16 A 0.5 0.5 0 0 0 5 -0.5" stroke="#191919" stroke-width="0.35 px" style="stroke-width:0.35;stroke-miterlimit:4;stroke-dasharray:none;fill:none;fill-opacity:1;fill-rule: evenodd"/>
<path id="Shape2DView_nwe0016"  d="M 4.9999999999999485 0.5 A 0.5 0.5 0 0 0 5.5 -1.37928e-17" stroke="#191919" stroke-width="0.35 px" style="stroke-width:0.35;stroke-miterlimit:4;stroke-dasharray:none;fill:none;fill-opacity:1;fill-rule: evenodd"/>
<path id="Shape2DView_nwe0018"  d="M 1.972644270154e-12 -2.5 L 1.972644270154e-12 -2.4874244197864854 L 1.972644270154e-12 -2.449855824363647 L 1.972644270154e-12 -2.387766660616735 L 1.972644270154e-12 -2.301937735804838 L 1.972644270154e-12 -2.1934483984565682 L 1.972644270154e-12 -2.06366296493606 L 1.972644270154e-12 -1.9142135623730951 L 1.972644270154e-12 -1.7469796037174672 L 1.972644270154e-12 -1.5640641530306731 L 1.972644270154e-12 -1.3677674782351164 L 1.972644270154e-12 -1.1605581239103344 L 1.972644270154e-12 -0.9450418679126289 L 1.972644270154e-12 -0.7239289522066158 L 1.972644270154e-12 -0.5000000000000001 " stroke="#191919" stroke-width="0.35 px" style="stroke-width:0.35;stroke-miterlimit:4;stroke-dasharray:none;fill:none;fill-opacity:1;fill-rule: evenodd"/>
<path id="Shape2DView_nwe0019"  d="M 5.000000000000208 -2.5 L 5.000000000000206 -2.4874244197864854 L 5.0000000000002025 -2.449855824363647 L 5.000000000000195 -2.387766660616735 L 5.0000000000001865 -2.301937735804838 L 5.000000000000176 -2.1934483984565682 L 5.0000000000001625 -2.06366296493606 L 5.0000000000001465 -1.9142135623730951 L 5.00000000000013 -1.7469796037174672 L 5.00000000000011 -1.5640641530306731 L 5.00000000000009 -1.3677674782351164 L 5.000000000000068 -1.1605581239103344 L 5.000000000000046 -0.9450418679126289 L 5.000000000000023 -0.7239289522066158 L 5.0 -0.5000000000000001 " stroke="#191919" stroke-width="0.35 px" style="stroke-width:0.35;stroke-miterlimit:4;stroke-dasharray:none;fill:none;fill-opacity:1;fill-rule: evenodd"/>
<path id="Shape2DView_nwe0020"  d="M -2.5 3.0616169978674e-16 L -2.4874244197864854 3.046216353811503e-16 L -2.449855824363647 3.0002080936784754e-16 L -2.387766660616735 2.924170798034106e-16 L -2.301937735804838 2.8190606799889876e-16 L -2.1934483984565682 2.6861995602638497e-16 L -2.06366296493606 2.527258244527053e-16 L -1.9142135623730951 2.3442355120438873e-16 L -1.7469796037174672 2.1394329798675906e-16 L -1.5640641530306731 1.9154261586694776e-16 L -1.3677674782351164 1.675032064197899e-16 L -1.1605581239103344 1.4212737916707383e-16 L -0.9450418679126289 1.157342498599003e-16 L -0.7239289522066158 8.865572741295736e-17 L -0.5000000000000001 6.123233995734001e-17 " stroke="#191919" stroke-width="0.35 px" style="stroke-width:0.35;stroke-miterlimit:4;stroke-dasharray:none;fill:none;fill-opacity:1;fill-rule: evenodd"/>
<path id="Shape2DView_nwe0021"  d="M 7.5 -6.896375499196e-17 L 7.487424419786485 -6.86168512988693e-17 L 7.449855824363647 -6.7580502734816e-17 L 7.387766660616736 -6.586774198429654e-17 L 7.301937735804838 -6.350010800751561e-17 L 7.193448398456568 -6.05073751754645e-17 L 7.06366296493606 -5.692717883993024e-17 L 6.914213562373095 -5.2804542047110515e-17 L 6.746979603717467 -4.819130934668459e-17 L 6.564064153030673 -4.314549481652029e-17 L 6.367767478235116 -3.7730552501984223e-17 L 6.160558123910334 -3.2014578444504385e-17 L 5.945041867912629 -2.6069454334338975e-17 L 5.723928952206616 -1.9969943556614692e-17 L 5.5 -1.3792750998380004e-17 " stroke="#191919" stroke-width="0.35 px" style="stroke-width:0.35;stroke-miterlimit:4;stroke-dasharray:none;fill:none;fill-opacity:1;fill-rule: evenodd"/>
<title>b'Shape2DView'</title>
</g>
<g id="Rectangle" transform="translate(2.600000,2.600000) scale(1,-1)">
<rect fill="#ff0000" id="origin" width="1" height="1" x="0" y="0" />
<title>b'Rectangle'</title>
</g>
</svg>