<?xml version="1.0"?>
<!DOCTYPE svg PUBLIC "-//W3C//DTD SVG 1.1//EN" "http://www.w3.org/Graphics/SVG/1.1/DTD/svg11.dtd">
<svg width="7.140000000000001mm" height="2.68mm" viewBox="0 0 7.140000000000001 2.68" xmlns="http://www.w3.org/2000/svg" version="1.1">
<g id="Shape2DView" transform="translate(1.070000,1.340000) scale(1,-1)">
<path id="Shape2DView_nwe0000"  d="M 4.73 -1.27 L 0.2699999999999996 -1.27 " stroke="#191919" stroke-width="0.35 px" style="stroke-width:0.35;stroke-miterlimit:4;stroke-dasharray:none;fill:none;fill-opacity:1;fill-rule: evenodd"/>
<path id="Shape2DView_nwe0001"  d="M 0.27 1.27 L 4.73 1.27 " stroke="#191919" stroke-width="0.35 px" style="stroke-width:0.35;stroke-miterlimit:4;stroke-dasharray:none;fill:none;fill-opacity:1;fill-rule: evenodd"/>
<path id="Shape2DView_nwe0002"  d="M -1.0 1.55530232813055e-16 A 1.27 1.27 0 0 0 0.27 1.27" stroke="#191919" stroke-width="0.35 px" style="stroke-width:0.35;stroke-miterlimit:4;stroke-dasharray:none;fill:none;fill-opacity:1;fill-rule: evenodd"/>
<path id="Shape2DView_nwe0003"  d="M 0.27000000000013175 -1.27 A 1.27 1.27 0 0 0 -1 1.68704e-16" stroke="#191919" stroke-width="0.35 px" style="stroke-width:0.35;stroke-miterlimit:4;stroke-dasharray:none;fill:none;fill-opacity:1;fill-rule: evenodd"/>
<path id="Shape2DView_nwe0004"  d="M 6.0 -3.11060286983465e-16 A 1.27 1.27 0 0 0 4.73 -1.27" stroke="#191919" stroke-width="0.35 px" style="stroke-width:0.35;stroke-miterlimit:4;stroke-dasharray:none;fill:none;fill-opacity:1;fill-rule: evenodd"/>
<path id="Shape2DView_nwe0005"  d="M 4.729999999999869 1.27 A 1.27 1.27 0 0 0 6 1.17733e-16" stroke="#191919" stroke-width="0.35 px" style="stroke-width:0.35;stroke-miterlimit:4;stroke-dasharray:none;fill:none;fill-opacity:1;fill-rule: evenodd"/>
<path id="Shape2DView_nwe0008"  d="M 0.016000000000000014 3.1106046562611e-17 A 0.254 0.254 0 0 0 0.27 0.254" stroke="#191919" stroke-width="0.35 px" style="stroke-width:0.35;stroke-miterlimit:4;stroke-dasharray:none;fill:none;fill-opacity:1;fill-rule: evenodd"/>
<path id="Shape2DView_nwe0009"  d="M 0.27 1.27 L 0.27 1.2636116052515345 L 0.27 1.2445267587767328 L 0.27 1.2129854635933015 L 0.27 1.1693843697888577 L 0.27 1.1142717864159368 L 0.27 1.0483407861875182 L 0.27 0.9724204896855323 L 0.27 0.8874656386884734 L 0.27 0.794544589739582 L 0.27 0.6948258789434392 L 0.27 0.5895635269464499 L 0.27 0.4800812688996155 L 0.27 0.36775590772096084 L 0.27 0.25400000000000006 " stroke="#191919" stroke-width="0.35 px" style="stroke-width:0.35;stroke-miterlimit:4;stroke-dasharray:none;fill:none;fill-opacity:1;fill-rule: evenodd"/>
<path id="Shape2DView_nwe0010"  d="M 0.2700000000000264 -0.254 A 0.254 0.254 0 0 0 0.016 3.37409e-17" stroke="#191919" stroke-width="0.35 px" style="stroke-width:0.35;stroke-miterlimit:4;stroke-dasharray:none;fill:none;fill-opacity:1;fill-rule: evenodd"/>
<path id="Shape2DView_nwe0011"  d="M 0.27 -1.27 L 0.27 -1.2636116052515345 L 0.27 -1.2445267587767328 L 0.27 -1.2129854635933015 L 0.27 -1.1693843697888577 L 0.27 -1.1142717864159368 L 0.27 -1.0483407861875182 L 0.27 -0.9724204896855323 L 0.27 -0.8874656386884734 L 0.27 -0.794544589739582 L 0.27 -0.6948258789434392 L 0.27 -0.5895635269464499 L 0.27 -0.4800812688996155 L 0.27 -0.36775590772096084 L 0.27 -0.25400000000000006 " stroke="#191919" stroke-width="0.35 px" style="stroke-width:0.35;stroke-miterlimit:4;stroke-dasharray:none;fill:none;fill-opacity:1;fill-rule: evenodd"/>
<path id="Shape2DView_nwe0013"  d="M 4.730000000000106 -1.27 L 4.730000000000105 -1.2636116052515345 L 4.7300000000001035 -1.2445267587767328 L 4.7300000000001 -1.2129854635933015 L 4.7300000000000955 -1.1693843697888577 L 4.730000000000089 -1.1142717864159368 L 4.730000000000083 -1.0483407861875182 L 4.730000000000075 -0.9724204896855323 L 4.730000000000066 -0.8874656386884734 L 4.730000000000056 -0.794544589739582 L 4.730000000000046 -0.6948258789434392 L 4.730000000000035 -0.5895635269464499 L 4.7300000000000235 -0.4800812688996155 L 4.730000000000012 -0.36775590772096084 L 4.73 -0.25400000000000006 " stroke="#191919" stroke-width="0.35 px" style="stroke-width:0.35;stroke-miterlimit:4;stroke-dasharray:none;fill:none;fill-opacity:1;fill-rule: evenodd"/>
<path id="Shape2DView_nwe0014"  d="M 4.73 -0.254 L 0.2699999999999996 -0.254 " stroke="#191919" stroke-width="0.35 px" style="stroke-width:0.35;stroke-miterlimit:4;stroke-dasharray:none;fill:none;fill-opacity:1;fill-rule: evenodd"/>
<path id="Shape2DView_nwe0015"  d="M 0.27 0.254 L 4.73 0.254 " stroke="#191919" stroke-width="0.35 px" style="stroke-width:0.35;stroke-miterlimit:4;stroke-dasharray:none;fill:none;fill-opacity:1;fill-rule: evenodd"/>
<path id="Shape2DView_nwe0016"  d="M 4.73 1.27 L 4.73 1.2636116052515345 L 4.73 1.2445267587767328 L 4.73 1.2129854635933015 L 4.73 1.1693843697888577 L 4.73 1.1142717864159368 L 4.73 1.0483407861875182 L 4.73 0.9724204896855323 L 4.73 0.8874656386884734 L 4.73 0.794544589739582 L 4.73 0.6948258789434392 L 4.73 0.5895635269464499 L 4.73 0.4800812688996155 L 4.73 0.36775590772096084 L 4.73 0.25400000000000006 " stroke="#191919" stroke-width="0.35 px" style="stroke-width:0.35;stroke-miterlimit:4;stroke-dasharray:none;fill:none;fill-opacity:1;fill-rule: evenodd"/>
<path id="Shape2DView_nwe0018"  d="M 4.984 -6.2212057396693e-17 A 0.254 0.254 0 0 0 4.73 -0.254" stroke="#191919" stroke-width="0.35 px" style="stroke-width:0.35;stroke-miterlimit:4;stroke-dasharray:none;fill:none;fill-opacity:1;fill-rule: evenodd"/>
<path id="Shape2DView_nwe0019"  d="M 4.729999999999974 0.254 A 0.254 0.254 0 0 0 4.984 2.35466e-17" stroke="#191919" stroke-width="0.35 px" style="stroke-width:0.35;stroke-miterlimit:4;stroke-dasharray:none;fill:none;fill-opacity:1;fill-rule: evenodd"/>
<path id="Shape2DView_nwe0020"  d="M -1.0 1.6870443972088e-16 L -0.9936116052515345 1.678558172352456e-16 L -0.9745267587767328 1.6532062169848155e-16 L -0.9429854635933015 1.611307346654174e-16 L -0.8993843697888578 1.5533884639652291e-16 L -0.8442717864159367 1.4801779324731135e-16 L -0.7783407861875182 1.3925964170890803e-16 L -0.7024204896855323 1.2917453061850628e-16 L -0.6174656386884734 1.1788928609958563e-16 L -0.524544589739582 1.0554582664982284e-16 L -0.4248258789434391 9.229937843364075e-17 L -0.3195635269464498 7.83165232231261e-17 L -0.21008126889961548 6.377310353559269e-17 L -0.09775590772096084 4.8852011311899884e-17 L 0.015999999999999938 3.3740887944180004e-17 " stroke="#191919" stroke-width="0.35 px" style="stroke-width:0.35;stroke-miterlimit:4;stroke-dasharray:none;fill:none;fill-opacity:1;fill-rule: evenodd"/>
<path id="Shape2DView_nwe0021"  d="M 6.0 1.1773310063234994e-16 L 5.993611605251535 1.1714087581203476e-16 L 5.974526758776733 1.1537164892182156e-16 L 5.942985463593302 1.1244766901638409e-16 L 5.899384369788858 1.084057068395659e-16 L 5.844271786415937 1.0329659241094157e-16 L 5.778340786187519 9.718457580882828e-17 L 5.702420489685532 9.014651918827225e-17 L 5.617465638688474 8.227093019485255e-17 L 5.524544589739582 7.365684892968457e-17 L 5.424825878943439 6.441260246268419e-17 L 5.31956352694645 5.4654442556810656e-17 L 5.210081268899615 4.450508373469661e-17 L 5.097755907720961 3.4092160072325266e-17 L 4.984 2.3546620126470005e-17 " stroke="#191919" stroke-width="0.35 px" style="stroke-width:0.35;stroke-miterlimit:4;stroke-dasharray:none;fill:none;fill-opacity:1;fill-rule: evenodd"/>
<title>b'Shape2DView'</title>
</g>
<g id="Rectangle" transform="translate(1.070000,1.340000) scale(1,-1)">
<rect fill="#ff0000" id="origin" width="1" height="1" x="0" y="0" />
<title>b'Rectangle'</title>
</g>
</svg>