<?xml version="1.0"?>
<!DOCTYPE svg PUBLIC "-//W3C//DTD SVG 1.1//EN" "http://www.w3.org/Graphics/SVG/1.1/DTD/svg11.dtd">
<svg width="10.200000000000008mm" height="5.2mm" viewBox="0 0 10.200000000000008 5.2" xmlns="http://www.w3.org/2000/svg" version="1.1">
<g id="Shape2DView" transform="translate(2.600000,2.600000) scale(1,-1)">
<path id="Shape2DView_nwe0000"  d="M 5.0 -2.5 L 5.710987238671805e-13 -2.5 " stroke="#191919" stroke-width="0.35 px" style="stroke-width:0.35;stroke-miterlimit:4;stroke-dasharray:none;fill:none;fill-opacity:1;fill-rule: evenodd"/>
<path id="Shape2DView_nwe0001"  d="M -4.640843111181e-13 2.5 L 5.0 2.5 " stroke="#191919" stroke-width="0.35 px" style="stroke-width:0.35;stroke-miterlimit:4;stroke-dasharray:none;fill:none;fill-opacity:1;fill-rule: evenodd"/>
<path id="Shape2DView_nwe0002"  d="M 7.5 -6.123233995737499e-16 A 2.5 2.5 0 0 0 5 -2.5" stroke="#191919" stroke-width="0.35 px" style="stroke-width:0.35;stroke-miterlimit:4;stroke-dasharray:none;fill:none;fill-opacity:1;fill-rule: evenodd"/>
<path id="Shape2DView_nwe0003"  d="M 4.9999999999997415 2.5 A 2.5 2.5 0 0 0 7.5 -6.89638e-17" stroke="#191919" stroke-width="0.35 px" style="stroke-width:0.35;stroke-miterlimit:4;stroke-dasharray:none;fill:none;fill-opacity:1;fill-rule: evenodd"/>
<path id="Shape2DView_nwe0004"  d="M 2.51168353976334e-13 -2.5 A 2.5 2.5 0 0 0 -2.5 3.06162e-16" stroke="#191919" stroke-width="0.35 px" style="stroke-width:0.35;stroke-miterlimit:4;stroke-dasharray:none;fill:none;fill-opacity:1;fill-rule: evenodd"/>
<path id="Shape2DView_nwe0005"  d="M -2.500000000000008 3.0616169978675e-16 A 2.5 2.5 0 0 0 -4.64313e-13 2.5" stroke="#191919" stroke-width="0.35 px" style="stroke-width:0.35;stroke-miterlimit:4;stroke-dasharray:none;fill:none;fill-opacity:1;fill-rule: evenodd"/>
<path id="Shape2DView_nwe0010"  d="M 5.5 -1.2246467991475e-16 A 0.5 0.5 0 0 0 5 -0.5" stroke="#191919" stroke-width="0.35 px" style="stroke-width:0.35;stroke-miterlimit:4;stroke-dasharray:none;fill:none;fill-opacity:1;fill-rule: evenodd"/>
<path id="Shape2DView_nwe0011"  d="M 5.000000000000208 -2.5 L 5.000000000000206 -2.4874244197864854 L 5.0000000000002025 -2.449855824363647 L 5.000000000000195 -2.387766660616735 L 5.0000000000001865 -2.301937735804838 L 5.000000000000176 -2.1934483984565682 L 5.0000000000001625 -2.06366296493606 L 5.0000000000001465 -1.9142135623730951 L 5.00000000000013 -1.7469796037174672 L 5.00000000000011 -1.5640641530306731 L 5.00000000000009 -1.3677674782351164 L 5.000000000000068 -1.1605581239103344 L 5.000000000000046 -0.9450418679126289 L 5.000000000000023 -0.7239289522066158 L 5.0 -0.5000000000000001 " stroke="#191919" stroke-width="0.35 px" style="stroke-width:0.35;stroke-miterlimit:4;stroke-dasharray:none;fill:none;fill-opacity:1;fill-rule: evenodd"/>
<path id="Shape2DView_nwe0012"  d="M 5.0 -0.5 L 5.710987238671805e-13 -0.5 " stroke="#191919" stroke-width="0.35 px" style="stroke-width:0.35;stroke-miterlimit:4;stroke-dasharray:none;fill:none;fill-opacity:1;fill-rule: evenodd"/>
<path id="Shape2DView_nwe0013"  d="M 5.710987238672e-13 -2.5 L 5.710987238672e-13 -2.4874244197864854 L 5.710987238672e-13 -2.449855824363647 L 5.710987238672e-13 -2.387766660616735 L 5.710987238672e-13 -2.301937735804838 L 5.710987238672e-13 -2.1934483984565682 L 5.710987238672e-13 -2.06366296493606 L 5.710987238672e-13 -1.9142135623730951 L 5.710987238672e-13 -1.7469796037174672 L 5.710987238672e-13 -1.5640641530306731 L 5.710987238672e-13 -1.3677674782351164 L 5.710987238672e-13 -1.1605581239103344 L 5.710987238672e-13 -0.9450418679126289 L 5.710987238672e-13 -0.7239289522066158 L 5.710987238672e-13 -0.5000000000000001 " stroke="#191919" stroke-width="0.35 px" style="stroke-width:0.35;stroke-miterlimit:4;stroke-dasharray:none;fill:none;fill-opacity:1;fill-rule: evenodd"/>
<path id="Shape2DView_nwe0014"  d="M 4.9999999999999485 0.5 A 0.5 0.5 0 0 0 5.5 -1.37928e-17" stroke="#191919" stroke-width="0.35 px" style="stroke-width:0.35;stroke-miterlimit:4;stroke-dasharray:none;fill:none;fill-opacity:1;fill-rule: evenodd"/>
<path id="Shape2DView_nwe0015"  d="M 5.0 2.5 L 5.0 2.4874244197864854 L 5.0 2.449855824363647 L 5.0 2.387766660616735 L 5.0 2.301937735804838 L 5.0 2.1934483984565682 L 5.0 2.06366296493606 L 5.0 1.9142135623730951 L 5.0 1.7469796037174672 L 5.0 1.5640641530306731 L 5.0 1.3677674782351164 L 5.0 1.1605581239103344 L 5.0 0.9450418679126289 L 5.0 0.7239289522066158 L 5.0 0.5000000000000001 " stroke="#191919" stroke-width="0.35 px" style="stroke-width:0.35;stroke-miterlimit:4;stroke-dasharray:none;fill:none;fill-opacity:1;fill-rule: evenodd"/>
<path id="Shape2DView_nwe0016"  d="M 4.3701997806334003e-14 -0.5 A 0.5 0.5 0 0 0 -0.5 6.12323e-17" stroke="#191919" stroke-width="0.35 px" style="stroke-width:0.35;stroke-miterlimit:4;stroke-dasharray:none;fill:none;fill-opacity:1;fill-rule: evenodd"/>
<path id="Shape2DView_nwe0017"  d="M -4.640843111181e-13 2.5 L -4.640843111181e-13 2.4874244197864854 L -4.640843111181e-13 2.449855824363647 L -4.640843111181e-13 2.387766660616735 L -4.640843111181e-13 2.301937735804838 L -4.640843111181e-13 2.1934483984565682 L -4.640843111181e-13 2.06366296493606 L -4.640843111181e-13 1.9142135623730951 L -4.640843111181e-13 1.7469796037174672 L -4.640843111181e-13 1.5640641530306731 L -4.640843111181e-13 1.3677674782351164 L -4.640843111181e-13 1.1605581239103344 L -4.640843111181e-13 0.9450418679126289 L -4.640843111181e-13 0.7239289522066158 L -4.640843111181e-13 0.5000000000000001 " stroke="#191919" stroke-width="0.35 px" style="stroke-width:0.35;stroke-miterlimit:4;stroke-dasharray:none;fill:none;fill-opacity:1;fill-rule: evenodd"/>
<path id="Shape2DView_nwe0018"  d="M -4.640843111181e-13 0.5 L 5.0 0.5 " stroke="#191919" stroke-width="0.35 px" style="stroke-width:0.35;stroke-miterlimit:4;stroke-dasharray:none;fill:none;fill-opacity:1;fill-rule: evenodd"/>
<path id="Shape2DView_nwe0019"  d="M -0.5000000000000082 6.123233995735e-17 A 0.5 0.5 0 0 0 -4.64103e-13 0.5" stroke="#191919" stroke-width="0.35 px" style="stroke-width:0.35;stroke-miterlimit:4;stroke-dasharray:none;fill:none;fill-opacity:1;fill-rule: evenodd"/>
<path id="Shape2DView_nwe0020"  d="M 7.5 -6.89637550281e-17 L 7.487424419786485 -6.861685133482758e-17 L 7.449855824363647 -6.758050277023142e-17 L 7.387766660616736 -6.586774201881476e-17 L 7.301937735804838 -6.350010804079361e-17 L 7.193448398456568 -6.050737520717482e-17 L 7.06366296493606 -5.692717886976517e-17 L 6.914213562373095 -5.28045420747859e-17 L 6.746979603717467 -4.8191309371943446e-17 L 6.564064153030673 -4.314549483913602e-17 L 6.367767478235116 -3.773055252176346e-17 L 6.160558123910334 -3.201457846128945e-17 L 5.945041867912629 -2.606945434800983e-17 L 5.723928952206616 -1.9969943567090466e-17 L 5.5 -1.3792751005620003e-17 " stroke="#191919" stroke-width="0.35 px" style="stroke-width:0.35;stroke-miterlimit:4;stroke-dasharray:none;fill:none;fill-opacity:1;fill-rule: evenodd"/>
<path id="Shape2DView_nwe0021"  d="M -2.5 3.0616169978675997e-16 L -2.4874244197864854 3.046216353811703e-16 L -2.449855824363647 3.0002080936786756e-16 L -2.387766660616735 2.924170798034306e-16 L -2.301937735804838 2.8190606799891877e-16 L -2.1934483984565682 2.68619956026405e-16 L -2.06366296493606 2.527258244527253e-16 L -1.9142135623730951 2.344235512044087e-16 L -1.7469796037174672 2.1394329798677908e-16 L -1.5640641530306731 1.9154261586696775e-16 L -1.3677674782351164 1.6750320641980993e-16 L -1.1605581239103344 1.4212737916709382e-16 L -0.9450418679126289 1.157342498599203e-16 L -0.7239289522066158 8.865572741297736e-17 L -0.5000000000000001 6.123233995736002e-17 " stroke="#191919" stroke-width="0.35 px" style="stroke-width:0.35;stroke-miterlimit:4;stroke-dasharray:none;fill:none;fill-opacity:1;fill-rule: evenodd"/>
<title>b'Shape2DView'</title>
</g>
<g id="Rectangle" transform="translate(2.600000,2.600000) scale(1,-1)">
<rect fill="#ff0000" id="origin" width="1" height="1" x="0" y="0" />
<title>b'Rectangle'</title>
</g>
</svg>