<?xml version="1.0"?>
<!DOCTYPE svg PUBLIC "-//W3C//DTD SVG 1.1//EN" "http://www.w3.org/Graphics/SVG/1.1/DTD/svg11.dtd">
<svg width="5.811253610682608mm" height="3.1139461492290708mm" viewBox="0 0 5.811253610682608 3.1139461492290708" xmlns="http://www.w3.org/2000/svg" version="1.1">
<g id="Shape2DView" transform="translate(0.404281,1.556973) scale(1,-1)">
<path id="Shape2DView_nwe0000"  d="M -0.22600000000003456 0.26725268941581176 A 0.35 0.35 0 0 1 -0.226 -0.267253" stroke="#191919" stroke-width="0.35 px" style="stroke-width:0.35;stroke-miterlimit:4;stroke-dasharray:none;fill:none;fill-opacity:1;fill-rule: evenodd"/>
<path id="Shape2DView_nwe0001"  d="M 1.25 1.5 L 3.75 1.5 " stroke="#191919" stroke-width="0.35 px" style="stroke-width:0.35;stroke-miterlimit:4;stroke-dasharray:none;fill:none;fill-opacity:1;fill-rule: evenodd"/>
<path id="Shape2DView_nwe0002"  d="M -0.25 1.836970297983e-16 A 1.5 1.5 0 0 0 1.25 1.5" stroke="#191919" stroke-width="0.35 px" style="stroke-width:0.35;stroke-miterlimit:4;stroke-dasharray:none;fill:none;fill-opacity:1;fill-rule: evenodd"/>
<path id="Shape2DView_nwe0003"  d="M 1.2500000000001557 -1.5 A 1.5 1.5 0 0 0 -0.25 1.30196e-16" stroke="#191919" stroke-width="0.35 px" style="stroke-width:0.35;stroke-miterlimit:4;stroke-dasharray:none;fill:none;fill-opacity:1;fill-rule: evenodd"/>
<path id="Shape2DView_nwe0004"  d="M 3.75 -1.5 L 1.25 -1.5 " stroke="#191919" stroke-width="0.35 px" style="stroke-width:0.35;stroke-miterlimit:4;stroke-dasharray:none;fill:none;fill-opacity:1;fill-rule: evenodd"/>
<path id="Shape2DView_nwe0005"  d="M 5.35 0.0 A 0.35 0.35 0 0 1 5.226 0.267253" stroke="#191919" stroke-width="0.35 px" style="stroke-width:0.35;stroke-miterlimit:4;stroke-dasharray:none;fill:none;fill-opacity:1;fill-rule: evenodd"/>
<path id="Shape2DView_nwe0006"  d="M 5.226000000000035 -0.26725268941581204 A 0.35 0.35 0 0 1 5.35 -8.57253e-17" stroke="#191919" stroke-width="0.35 px" style="stroke-width:0.35;stroke-miterlimit:4;stroke-dasharray:none;fill:none;fill-opacity:1;fill-rule: evenodd"/>
<path id="Shape2DView_nwe0007"  d="M 3.749999999999845 1.5 A 1.5 1.5 0 0 0 5.25 -1.30196e-16" stroke="#191919" stroke-width="0.35 px" style="stroke-width:0.35;stroke-miterlimit:4;stroke-dasharray:none;fill:none;fill-opacity:1;fill-rule: evenodd"/>
<path id="Shape2DView_nwe0008"  d="M 5.25 -3.6739403974424997e-16 A 1.5 1.5 0 0 0 3.75 -1.5" stroke="#191919" stroke-width="0.35 px" style="stroke-width:0.35;stroke-miterlimit:4;stroke-dasharray:none;fill:none;fill-opacity:1;fill-rule: evenodd"/>
<path id="Shape2DView_nwe0011"  d="M 0.95 3.673940595966e-17 A 0.3 0.3 0 0 0 1.25 0.3" stroke="#191919" stroke-width="0.35 px" style="stroke-width:0.35;stroke-miterlimit:4;stroke-dasharray:none;fill:none;fill-opacity:1;fill-rule: evenodd"/>
<path id="Shape2DView_nwe0012"  d="M 1.25 1.5 L 1.25 1.492454651871891 L 1.25 1.4699134946181884 L 1.25 1.432659996370041 L 1.25 1.381162641482903 L 1.25 1.316069039073941 L 1.25 1.2381977789616356 L 1.25 1.148528137423857 L 1.25 1.0481877622304803 L 1.25 0.9384384918184039 L 1.25 0.8206604869410699 L 1.25 0.6963348743462006 L 1.25 0.5670251207475774 L 1.25 0.43435737132396945 L 1.25 0.30000000000000004 " stroke="#191919" stroke-width="0.35 px" style="stroke-width:0.35;stroke-miterlimit:4;stroke-dasharray:none;fill:none;fill-opacity:1;fill-rule: evenodd"/>
<path id="Shape2DView_nwe0013"  d="M 1.250000000000031 -0.3 A 0.3 0.3 0 0 0 0.95 2.60392e-17" stroke="#191919" stroke-width="0.35 px" style="stroke-width:0.35;stroke-miterlimit:4;stroke-dasharray:none;fill:none;fill-opacity:1;fill-rule: evenodd"/>
<path id="Shape2DView_nwe0014"  d="M 1.25 -1.5 L 1.25 -1.492454651871891 L 1.25 -1.4699134946181884 L 1.25 -1.432659996370041 L 1.25 -1.381162641482903 L 1.25 -1.316069039073941 L 1.25 -1.2381977789616356 L 1.25 -1.148528137423857 L 1.25 -1.0481877622304803 L 1.25 -0.9384384918184039 L 1.25 -0.8206604869410699 L 1.25 -0.6963348743462006 L 1.25 -0.5670251207475774 L 1.25 -0.43435737132396945 L 1.25 -0.30000000000000004 " stroke="#191919" stroke-width="0.35 px" style="stroke-width:0.35;stroke-miterlimit:4;stroke-dasharray:none;fill:none;fill-opacity:1;fill-rule: evenodd"/>
<path id="Shape2DView_nwe0015"  d="M 1.25 0.3 L 3.75 0.3 " stroke="#191919" stroke-width="0.35 px" style="stroke-width:0.35;stroke-miterlimit:4;stroke-dasharray:none;fill:none;fill-opacity:1;fill-rule: evenodd"/>
<path id="Shape2DView_nwe0016"  d="M 3.75 1.5 L 3.75 1.492454651871891 L 3.75 1.4699134946181884 L 3.75 1.432659996370041 L 3.75 1.381162641482903 L 3.75 1.316069039073941 L 3.75 1.2381977789616356 L 3.75 1.148528137423857 L 3.75 1.0481877622304803 L 3.75 0.9384384918184039 L 3.75 0.8206604869410699 L 3.75 0.6963348743462006 L 3.75 0.5670251207475774 L 3.75 0.43435737132396945 L 3.75 0.30000000000000004 " stroke="#191919" stroke-width="0.35 px" style="stroke-width:0.35;stroke-miterlimit:4;stroke-dasharray:none;fill:none;fill-opacity:1;fill-rule: evenodd"/>
<path id="Shape2DView_nwe0018"  d="M 3.75 -0.3 L 1.25 -0.3 " stroke="#191919" stroke-width="0.35 px" style="stroke-width:0.35;stroke-miterlimit:4;stroke-dasharray:none;fill:none;fill-opacity:1;fill-rule: evenodd"/>
<path id="Shape2DView_nwe0019"  d="M 4.05 -7.347880794884999e-17 A 0.3 0.3 0 0 0 3.75 -0.3" stroke="#191919" stroke-width="0.35 px" style="stroke-width:0.35;stroke-miterlimit:4;stroke-dasharray:none;fill:none;fill-opacity:1;fill-rule: evenodd"/>
<path id="Shape2DView_nwe0020"  d="M 3.749999999999969 0.3 A 0.3 0.3 0 0 0 4.05 -2.60392e-17" stroke="#191919" stroke-width="0.35 px" style="stroke-width:0.35;stroke-miterlimit:4;stroke-dasharray:none;fill:none;fill-opacity:1;fill-rule: evenodd"/>
<path id="Shape2DView_nwe0021"  d="M 3.7500000000001243 -1.5 L 3.750000000000124 -1.492454651871891 L 3.7500000000001212 -1.4699134946181884 L 3.7500000000001177 -1.432659996370041 L 3.7500000000001124 -1.381162641482903 L 3.7500000000001052 -1.316069039073941 L 3.7500000000000973 -1.2381977789616356 L 3.750000000000088 -1.148528137423857 L 3.7500000000000777 -1.0481877622304803 L 3.750000000000066 -0.9384384918184039 L 3.750000000000054 -0.8206604869410699 L 3.7500000000000413 -0.6963348743462006 L 3.7500000000000275 -0.5670251207475774 L 3.7500000000000138 -0.43435737132396945 L 3.75 -0.30000000000000004 " stroke="#191919" stroke-width="0.35 px" style="stroke-width:0.35;stroke-miterlimit:4;stroke-dasharray:none;fill:none;fill-opacity:1;fill-rule: evenodd"/>
<path id="Shape2DView_nwe0023"  d="M -0.25 1.30196094988962e-16 L -0.24245465187189108 1.2954117841455395e-16 L -0.21991349461818843 1.2758466464724442e-16 L -0.18265999637004104 1.2435115798285306e-16 L -0.13116264148290302 1.198813216438089e-16 L -0.0660690390739409 1.1423136641553478e-16 L 0.011802221038364258 1.0747234376320674e-16 L 0.10147186257614293 9.968925231835403e-17 L 0.20181223776951962 9.097996897175052e-17 L 0.3115615081815961 8.145401801472364e-17 L 0.42933951305893014 7.123119380764353e-17 L 0.5536651256537994 6.044005429633496e-17 L 0.6829748792524226 4.921630432131762e-17 L 0.8156426286760304 3.7701089050698785e-17 L 0.9499999999999998 2.6039218997790007e-17 " stroke="#191919" stroke-width="0.35 px" style="stroke-width:0.35;stroke-miterlimit:4;stroke-dasharray:none;fill:none;fill-opacity:1;fill-rule: evenodd"/>
<path id="Shape2DView_nwe0024"  d="M 5.25 -1.30196094988962e-16 L 5.242454651871891 -1.2954117841455395e-16 L 5.219913494618188 -1.2758466464724442e-16 L 5.182659996370041 -1.2435115798285306e-16 L 5.131162641482903 -1.198813216438089e-16 L 5.066069039073941 -1.1423136641553478e-16 L 4.988197778961635 -1.0747234376320674e-16 L 4.898528137423857 -9.968925231835403e-17 L 4.79818776223048 -9.097996897175052e-17 L 4.688438491818403 -8.145401801472364e-17 L 4.57066048694107 -7.123119380764353e-17 L 4.4463348743462 -6.044005429633496e-17 L 4.317025120747577 -4.921630432131762e-17 L 4.184357371323969 -3.7701089050698785e-17 L 4.05 -2.6039218997790007e-17 " stroke="#191919" stroke-width="0.35 px" style="stroke-width:0.35;stroke-miterlimit:4;stroke-dasharray:none;fill:none;fill-opacity:1;fill-rule: evenodd"/>
<title>b'Shape2DView'</title>
</g>
<g id="Rectangle" transform="translate(0.404281,1.556973) scale(1,-1)">
<rect fill="#ff0000" id="origin" width="1" height="1" x="0" y="0" />
<title>b'Rectangle'</title>
</g>
</svg>