<?xml version="1.0"?>
<!DOCTYPE svg PUBLIC "-//W3C//DTD SVG 1.1//EN" "http://www.w3.org/Graphics/SVG/1.1/DTD/svg11.dtd">
<svg width="39.984mm" height="13.283999999999999mm" viewBox="0 0 39.984 13.283999999999999" xmlns="http://www.w3.org/2000/svg" version="1.1">
<g id="Shape2DView" transform="translate(10.297000,5.222000) scale(1,-1)">
<path id="Shape2DView_nwe0000"  d="M -1.864431920499 2.48 A 0.95 0.95 0 0 1 -2.80016 1.36595" stroke="#191919" stroke-width="0.35 px" style="stroke-width:0.35;stroke-miterlimit:4;stroke-dasharray:none;fill:none;fill-opacity:1;fill-rule: evenodd"/>
<path id="Shape2DView_nwe0001"  d="M 21.254431920499 2.48 L -1.8644319204990012 2.48 " stroke="#191919" stroke-width="0.35 px" style="stroke-width:0.35;stroke-miterlimit:4;stroke-dasharray:none;fill:none;fill-opacity:1;fill-rule: evenodd"/>
<path id="Shape2DView_nwe0002"  d="M 22.190160539617008 1.365951375002679 A 0.95 0.95 0 0 1 21.2544 2.48" stroke="#191919" stroke-width="0.35 px" style="stroke-width:0.35;stroke-miterlimit:4;stroke-dasharray:none;fill:none;fill-opacity:1;fill-rule: evenodd"/>
<path id="Shape2DView_nwe0003"  d="M 21.15579345101 -4.534048624997 L 22.190160539617885 1.3659513750028447 " stroke="#191919" stroke-width="0.35 px" style="stroke-width:0.35;stroke-miterlimit:4;stroke-dasharray:none;fill:none;fill-opacity:1;fill-rule: evenodd"/>
<path id="Shape2DView_nwe0004"  d="M 20.220064831892 -5.32 A 0.95 0.95 0 0 1 21.1558 -4.53405" stroke="#191919" stroke-width="0.35 px" style="stroke-width:0.35;stroke-miterlimit:4;stroke-dasharray:none;fill:none;fill-opacity:1;fill-rule: evenodd"/>
<path id="Shape2DView_nwe0005"  d="M -0.830064831892 -5.32 L 20.220064831892 -5.32 " stroke="#191919" stroke-width="0.35 px" style="stroke-width:0.35;stroke-miterlimit:4;stroke-dasharray:none;fill:none;fill-opacity:1;fill-rule: evenodd"/>
<path id="Shape2DView_nwe0006"  d="M -1.7657934510100048 -4.534048624997321 A 0.95 0.95 0 0 1 -0.830065 -5.32" stroke="#191919" stroke-width="0.35 px" style="stroke-width:0.35;stroke-miterlimit:4;stroke-dasharray:none;fill:none;fill-opacity:1;fill-rule: evenodd"/>
<path id="Shape2DView_nwe0007"  d="M -2.800160539617 1.365951375003 L -1.7657934510091138 -4.534048624996845 " stroke="#191919" stroke-width="0.35 px" style="stroke-width:0.35;stroke-miterlimit:4;stroke-dasharray:none;fill:none;fill-opacity:1;fill-rule: evenodd"/>
<path id="Shape2DView_nwe0008"  d="M -1.3343290989440004 2.03 L 20.724329098944 2.03 " stroke="#191919" stroke-width="0.35 px" style="stroke-width:0.35;stroke-miterlimit:4;stroke-dasharray:none;fill:none;fill-opacity:1;fill-rule: evenodd"/>
<path id="Shape2DView_nwe0009"  d="M -1.334329098944 2.0300000000000002 A 1 1 0 0 1 -2.31477 0.833201" stroke="#191919" stroke-width="0.35 px" style="stroke-width:0.35;stroke-miterlimit:4;stroke-dasharray:none;fill:none;fill-opacity:1;fill-rule: evenodd"/>
<path id="Shape2DView_nwe0010"  d="M -1.3312221838563911 -4.066799228438877 L -2.314772908494757 0.8332007715610503 " stroke="#191919" stroke-width="0.35 px" style="stroke-width:0.35;stroke-miterlimit:4;stroke-dasharray:none;fill:none;fill-opacity:1;fill-rule: evenodd"/>
<path id="Shape2DView_nwe0011"  d="M -1.3312221838564788 -4.066799228438895 A 1 1 0 0 1 -0.350778 -4.87" stroke="#191919" stroke-width="0.35 px" style="stroke-width:0.35;stroke-miterlimit:4;stroke-dasharray:none;fill:none;fill-opacity:1;fill-rule: evenodd"/>
<path id="Shape2DView_nwe0012"  d="M 19.740778374306 -4.87 L -0.35077837430599956 -4.87 " stroke="#191919" stroke-width="0.35 px" style="stroke-width:0.35;stroke-miterlimit:4;stroke-dasharray:none;fill:none;fill-opacity:1;fill-rule: evenodd"/>
<path id="Shape2DView_nwe0013"  d="M 19.740778374306 -4.87 A 1 1 0 0 1 20.7212 -4.0668" stroke="#191919" stroke-width="0.35 px" style="stroke-width:0.35;stroke-miterlimit:4;stroke-dasharray:none;fill:none;fill-opacity:1;fill-rule: evenodd"/>
<path id="Shape2DView_nwe0014"  d="M 21.704772908494284 0.8332007715611437 L 20.721222183855918 -4.066799228438783 " stroke="#191919" stroke-width="0.35 px" style="stroke-width:0.35;stroke-miterlimit:4;stroke-dasharray:none;fill:none;fill-opacity:1;fill-rule: evenodd"/>
<path id="Shape2DView_nwe0015"  d="M 21.70477290849448 0.8332007715611041 A 1 1 0 0 1 20.7243 2.03" stroke="#191919" stroke-width="0.35 px" style="stroke-width:0.35;stroke-miterlimit:4;stroke-dasharray:none;fill:none;fill-opacity:1;fill-rule: evenodd"/>
<path id="Shape2DView_nwe0016"  d="M -1.864431920499 2.5300000000000002 A 1 1 0 0 1 -2.84941 1.35732" stroke="#191919" stroke-width="0.35 px" style="stroke-width:0.35;stroke-miterlimit:4;stroke-dasharray:none;fill:none;fill-opacity:1;fill-rule: evenodd"/>
<path id="Shape2DView_nwe0017"  d="M 21.254431920499 2.53 L -1.8644319204990012 2.53 " stroke="#191919" stroke-width="0.35 px" style="stroke-width:0.35;stroke-miterlimit:4;stroke-dasharray:none;fill:none;fill-opacity:1;fill-rule: evenodd"/>
<path id="Shape2DView_nwe0018"  d="M -2.849409414308 1.357317236845 L -1.8150423257000843 -4.542682763155014 " stroke="#191919" stroke-width="0.35 px" style="stroke-width:0.35;stroke-miterlimit:4;stroke-dasharray:none;fill:none;fill-opacity:1;fill-rule: evenodd"/>
<path id="Shape2DView_nwe0019"  d="M 22.239409414307428 1.3573172368449253 A 1 1 0 0 1 21.2544 2.53" stroke="#191919" stroke-width="0.35 px" style="stroke-width:0.35;stroke-miterlimit:4;stroke-dasharray:none;fill:none;fill-opacity:1;fill-rule: evenodd"/>
<path id="Shape2DView_nwe0020"  d="M -1.8150423257004262 -4.542682763155075 A 1 1 0 0 1 -0.830065 -5.37" stroke="#191919" stroke-width="0.35 px" style="stroke-width:0.35;stroke-miterlimit:4;stroke-dasharray:none;fill:none;fill-opacity:1;fill-rule: evenodd"/>
<path id="Shape2DView_nwe0021"  d="M 21.2050423257 -4.542682763155 L 22.239409414307914 1.3573172368450148 " stroke="#191919" stroke-width="0.35 px" style="stroke-width:0.35;stroke-miterlimit:4;stroke-dasharray:none;fill:none;fill-opacity:1;fill-rule: evenodd"/>
<path id="Shape2DView_nwe0022"  d="M -0.830064831892 -5.37 L 20.220064831892 -5.37 " stroke="#191919" stroke-width="0.35 px" style="stroke-width:0.35;stroke-miterlimit:4;stroke-dasharray:none;fill:none;fill-opacity:1;fill-rule: evenodd"/>
<path id="Shape2DView_nwe0023"  d="M 20.220064831892 -5.37 A 1 1 0 0 1 21.205 -4.54268" stroke="#191919" stroke-width="0.35 px" style="stroke-width:0.35;stroke-miterlimit:4;stroke-dasharray:none;fill:none;fill-opacity:1;fill-rule: evenodd"/>
<circle cx="5.54" cy="-2.34303874219e-30" r="0.3" stroke="#191919" stroke-width="0.35 px" style="stroke-width:0.35;stroke-miterlimit:4;stroke-dasharray:none;fill:none"/>
<circle cx="6.925" cy="-2.84" r="0.3" stroke="#191919" stroke-width="0.35 px" style="stroke-width:0.35;stroke-miterlimit:4;stroke-dasharray:none;fill:none"/>
<circle cx="8.31" cy="-6.523698818257e-32" r="0.3" stroke="#191919" stroke-width="0.35 px" style="stroke-width:0.35;stroke-miterlimit:4;stroke-dasharray:none;fill:none"/>
<circle cx="2.77" cy="0.0" r="0.3" stroke="#191919" stroke-width="0.35 px" style="stroke-width:0.35;stroke-miterlimit:4;stroke-dasharray:none;fill:none"/>
<circle cx="4.155" cy="-2.84" r="0.3" stroke="#191919" stroke-width="0.35 px" style="stroke-width:0.35;stroke-miterlimit:4;stroke-dasharray:none;fill:none"/>
<circle cx="1.385" cy="-2.84" r="0.3" stroke="#191919" stroke-width="0.35 px" style="stroke-width:0.35;stroke-miterlimit:4;stroke-dasharray:none;fill:none"/>
<circle cx="9.695" cy="-2.84" r="0.3" stroke="#191919" stroke-width="0.35 px" style="stroke-width:0.35;stroke-miterlimit:4;stroke-dasharray:none;fill:none"/>
<circle cx="19.39" cy="0.0" r="0.3" stroke="#191919" stroke-width="0.35 px" style="stroke-width:0.35;stroke-miterlimit:4;stroke-dasharray:none;fill:none"/>
<circle cx="16.62" cy="0.0" r="0.3" stroke="#191919" stroke-width="0.35 px" style="stroke-width:0.35;stroke-miterlimit:4;stroke-dasharray:none;fill:none"/>
<circle cx="11.08" cy="-6.523698818257e-32" r="0.3" stroke="#191919" stroke-width="0.35 px" style="stroke-width:0.35;stroke-miterlimit:4;stroke-dasharray:none;fill:none"/>
<circle cx="13.85" cy="-6.523698818257e-32" r="0.3" stroke="#191919" stroke-width="0.35 px" style="stroke-width:0.35;stroke-miterlimit:4;stroke-dasharray:none;fill:none"/>
<circle cx="18.005" cy="-2.84" r="0.3" stroke="#191919" stroke-width="0.35 px" style="stroke-width:0.35;stroke-miterlimit:4;stroke-dasharray:none;fill:none"/>
<circle cx="12.465" cy="-2.84" r="0.3" stroke="#191919" stroke-width="0.35 px" style="stroke-width:0.35;stroke-miterlimit:4;stroke-dasharray:none;fill:none"/>
<circle cx="15.235" cy="-2.84" r="0.3" stroke="#191919" stroke-width="0.35 px" style="stroke-width:0.35;stroke-miterlimit:4;stroke-dasharray:none;fill:none"/>
<circle cx="0.0" cy="0.0" r="0.3" stroke="#191919" stroke-width="0.35 px" style="stroke-width:0.35;stroke-miterlimit:4;stroke-dasharray:none;fill:none"/>
<path id="Shape2DView_nwe0039"  d="M 28.295 4.83 L -8.905000000000001 4.83 " stroke="#191919" stroke-width="0.35 px" style="stroke-width:0.35;stroke-miterlimit:4;stroke-dasharray:none;fill:none;fill-opacity:1;fill-rule: evenodd"/>
<path id="Shape2DView_nwe0040"  d="M 29.295 3.83 A 1 1 0 0 1 28.295 4.83" stroke="#191919" stroke-width="0.35 px" style="stroke-width:0.35;stroke-miterlimit:4;stroke-dasharray:none;fill:none;fill-opacity:1;fill-rule: evenodd"/>
<path id="Shape2DView_nwe0041"  d="M -8.905 4.83 A 1 1 0 0 1 -9.905 3.83" stroke="#191919" stroke-width="0.35 px" style="stroke-width:0.35;stroke-miterlimit:4;stroke-dasharray:none;fill:none;fill-opacity:1;fill-rule: evenodd"/>
<path id="Shape2DView_nwe0042"  d="M 29.295 -6.67 L 29.295 3.83 " stroke="#191919" stroke-width="0.35 px" style="stroke-width:0.35;stroke-miterlimit:4;stroke-dasharray:none;fill:none;fill-opacity:1;fill-rule: evenodd"/>
<path id="Shape2DView_nwe0043"  d="M -9.905 3.83 L -9.905 -6.67 " stroke="#191919" stroke-width="0.35 px" style="stroke-width:0.35;stroke-miterlimit:4;stroke-dasharray:none;fill:none;fill-opacity:1;fill-rule: evenodd"/>
<path id="Shape2DView_nwe0044"  d="M 28.295 -7.67 A 1 1 0 0 1 29.295 -6.67" stroke="#191919" stroke-width="0.35 px" style="stroke-width:0.35;stroke-miterlimit:4;stroke-dasharray:none;fill:none;fill-opacity:1;fill-rule: evenodd"/>
<path id="Shape2DView_nwe0045"  d="M -9.905 -6.67 A 1 1 0 0 1 -8.905 -7.67" stroke="#191919" stroke-width="0.35 px" style="stroke-width:0.35;stroke-miterlimit:4;stroke-dasharray:none;fill:none;fill-opacity:1;fill-rule: evenodd"/>
<path id="Shape2DView_nwe0046"  d="M -8.905 -7.67 L 28.295 -7.67 " stroke="#191919" stroke-width="0.35 px" style="stroke-width:0.35;stroke-miterlimit:4;stroke-dasharray:none;fill:none;fill-opacity:1;fill-rule: evenodd"/>
<circle cx="26.345" cy="-1.42" r="1.6" stroke="#191919" stroke-width="0.35 px" style="stroke-width:0.35;stroke-miterlimit:4;stroke-dasharray:none;fill:none"/>
<circle cx="-6.955" cy="-1.42" r="1.6" stroke="#191919" stroke-width="0.35 px" style="stroke-width:0.35;stroke-miterlimit:4;stroke-dasharray:none;fill:none"/>
<circle cx="26.345" cy="-1.42" r="1.6" stroke="#191919" stroke-width="0.35 px" style="stroke-width:0.35;stroke-miterlimit:4;stroke-dasharray:none;fill:none"/>
<path id="Shape2DView_nwe0050"  d="M 22.045 2.03 L 20.724329098944 2.03 " stroke="#191919" stroke-width="0.35 px" style="stroke-width:0.35;stroke-miterlimit:4;stroke-dasharray:none;fill:none;fill-opacity:1;fill-rule: evenodd"/>
<path id="Shape2DView_nwe0051"  d="M -1.334329098944 2.03 L -2.655000000000001 2.03 " stroke="#191919" stroke-width="0.35 px" style="stroke-width:0.35;stroke-miterlimit:4;stroke-dasharray:none;fill:none;fill-opacity:1;fill-rule: evenodd"/>
<path id="Shape2DView_nwe0052"  d="M -2.800160539617295 1.3659513750028054 L -2.849409414308 1.357317236845 " stroke="#191919" stroke-width="0.35 px" style="stroke-width:0.35;stroke-miterlimit:4;stroke-dasharray:none;fill:none;fill-opacity:1;fill-rule: evenodd"/>
<path id="Shape2DView_nwe0053"  d="M -1.864431920499 2.4799999999999995 L -1.864431920499 2.53 " stroke="#191919" stroke-width="0.35 px" style="stroke-width:0.35;stroke-miterlimit:4;stroke-dasharray:none;fill:none;fill-opacity:1;fill-rule: evenodd"/>
<path id="Shape2DView_nwe0054"  d="M 21.254431920499 2.4799999999999995 L 21.254431920499 2.53 " stroke="#191919" stroke-width="0.35 px" style="stroke-width:0.35;stroke-miterlimit:4;stroke-dasharray:none;fill:none;fill-opacity:1;fill-rule: evenodd"/>
<path id="Shape2DView_nwe0055"  d="M -1.76579345100989 -4.53404862499714 L -1.8150423257001098 -4.54268276315486 " stroke="#191919" stroke-width="0.35 px" style="stroke-width:0.35;stroke-miterlimit:4;stroke-dasharray:none;fill:none;fill-opacity:1;fill-rule: evenodd"/>
<path id="Shape2DView_nwe0056"  d="M 22.19016053961689 1.3659513750028602 L 22.239409414307595 1.3573172368450548 " stroke="#191919" stroke-width="0.35 px" style="stroke-width:0.35;stroke-miterlimit:4;stroke-dasharray:none;fill:none;fill-opacity:1;fill-rule: evenodd"/>
<path id="Shape2DView_nwe0057"  d="M -0.830064831892 -5.319999999999999 L -0.830064831892 -5.37 " stroke="#191919" stroke-width="0.35 px" style="stroke-width:0.35;stroke-miterlimit:4;stroke-dasharray:none;fill:none;fill-opacity:1;fill-rule: evenodd"/>
<path id="Shape2DView_nwe0058"  d="M 21.155793451009778 -4.534048624997279 L 21.2050423257 -4.542682763155 " stroke="#191919" stroke-width="0.35 px" style="stroke-width:0.35;stroke-miterlimit:4;stroke-dasharray:none;fill:none;fill-opacity:1;fill-rule: evenodd"/>
<path id="Shape2DView_nwe0059"  d="M 20.220064831892 -5.319999999999999 L 20.220064831892 -5.37 " stroke="#191919" stroke-width="0.35 px" style="stroke-width:0.35;stroke-miterlimit:4;stroke-dasharray:none;fill:none;fill-opacity:1;fill-rule: evenodd"/>
<path id="Shape2DView_nwe0060"  d="M -3.440395910592482 1.2537075789518806 A 1.6 1.6 0 0 0 -1.86443 3.13" stroke="#191919" stroke-width="0.35 px" style="stroke-width:0.35;stroke-miterlimit:4;stroke-dasharray:none;fill:none;fill-opacity:1;fill-rule: evenodd"/>
<path id="Shape2DView_nwe0061"  d="M -1.864431920499 2.53 L -1.864431920499 2.5337726740640543 L -1.864431920499 2.5450432526909057 L -1.864431920499 2.5636700018149794 L -1.864431920499 2.5894186792585483 L -1.864431920499 2.6219654804630292 L -1.864431920499 2.660901110519182 L -1.864431920499 2.7057359312880713 L -1.864431920499 2.75590611888476 L -1.864431920499 2.810780754090798 L -1.864431920499 2.869669756529465 L -1.864431920499 2.9318325628268997 L -1.864431920499 2.996487439626211 L -1.864431920499 3.062821314338015 L -1.864431920499 3.13 " stroke="#191919" stroke-width="0.35 px" style="stroke-width:0.35;stroke-miterlimit:4;stroke-dasharray:none;fill:none;fill-opacity:1;fill-rule: evenodd"/>
<path id="Shape2DView_nwe0062"  d="M -2.8494094143079445 1.3573172368450448 L -2.853125413352513 1.3566657610631805 L -2.86422667964216 1.3547195264035392 L -2.882573608312188 1.3515030078961978 L -2.9079354760894365 1.3470566551276535 L -2.939993342771307 1.3414363835638048 L -2.978344062083868 1.3347128713805247 L -3.022505351480159 1.3269706706445903 L -3.0719218571230438 1.3183071440223857 L -3.1259721377819387 1.3088312403878803 L -3.1839764798168555 1.2986621247273253 L -3.245205444971801 1.2879276795704107 L -3.3088890434840796 1.2767628967932545 L -3.3742264171523146 1.2653081800172377 L -3.440395910593 1.253707578952 " stroke="#191919" stroke-width="0.35 px" style="stroke-width:0.35;stroke-miterlimit:4;stroke-dasharray:none;fill:none;fill-opacity:1;fill-rule: evenodd"/>
<path id="Shape2DView_nwe0063"  d="M -1.864431920499 3.13 L 21.254431920499 3.13 " stroke="#191919" stroke-width="0.35 px" style="stroke-width:0.35;stroke-miterlimit:4;stroke-dasharray:none;fill:none;fill-opacity:1;fill-rule: evenodd"/>
<path id="Shape2DView_nwe0064"  d="M 21.254431920499 2.53 L 21.254431920499 2.5337726740640543 L 21.254431920499 2.5450432526909057 L 21.254431920499 2.5636700018149794 L 21.254431920499 2.5894186792585483 L 21.254431920499 2.6219654804630297 L 21.254431920499 2.660901110519182 L 21.254431920499 2.7057359312880713 L 21.254431920499 2.75590611888476 L 21.254431920499 2.810780754090798 L 21.254431920499 2.869669756529465 L 21.254431920499 2.9318325628268997 L 21.254431920499 2.996487439626211 L 21.254431920499 3.062821314338015 L 21.254431920499 3.13 " stroke="#191919" stroke-width="0.35 px" style="stroke-width:0.35;stroke-miterlimit:4;stroke-dasharray:none;fill:none;fill-opacity:1;fill-rule: evenodd"/>
<path id="Shape2DView_nwe0065"  d="M -1.8150423256999444 -4.542682763154955 L -1.818758324744513 -4.543334238936819 L -1.8298595910341597 -4.545280473596461 L -1.848206519704188 -4.548496992103802 L -1.8735683874814362 -4.552943344872347 L -1.905626254163307 -4.558563616436195 L -1.9439769734758683 -4.565287128619476 L -1.988138262872159 -4.57302932935541 L -2.0375547685150437 -4.581692855977614 L -2.0916050491739386 -4.59116875961212 L -2.1496093912088554 -4.601337875272675 L -2.210838356363801 -4.612072320429589 L -2.2745219548760796 -4.623237103206745 L -2.339859328544314 -4.634691819982762 L -2.406028821985 -4.646292421048 " stroke="#191919" stroke-width="0.35 px" style="stroke-width:0.35;stroke-miterlimit:4;stroke-dasharray:none;fill:none;fill-opacity:1;fill-rule: evenodd"/>
<path id="Shape2DView_nwe0066"  d="M -2.406028821985 -4.646292421048 L -3.4403959105929163 1.2537075789520147 " stroke="#191919" stroke-width="0.35 px" style="stroke-width:0.35;stroke-miterlimit:4;stroke-dasharray:none;fill:none;fill-opacity:1;fill-rule: evenodd"/>
<path id="Shape2DView_nwe0067"  d="M 21.254431920499 3.13 A 1.6 1.6 0 0 0 22.8304 1.25371" stroke="#191919" stroke-width="0.35 px" style="stroke-width:0.35;stroke-miterlimit:4;stroke-dasharray:none;fill:none;fill-opacity:1;fill-rule: evenodd"/>
<path id="Shape2DView_nwe0068"  d="M 22.239409414307946 1.3573172368450448 L 22.243125413352512 1.3566657610631805 L 22.254226679642162 1.3547195264035392 L 22.27257360831219 1.3515030078961978 L 22.29793547608944 1.3470566551276535 L 22.329993342771306 1.3414363835638048 L 22.36834406208387 1.3347128713805247 L 22.41250535148016 1.3269706706445903 L 22.461921857123045 1.3183071440223857 L 22.51597213778194 1.3088312403878803 L 22.573976479816857 1.2986621247273253 L 22.635205444971803 1.2879276795704107 L 22.69888904348408 1.2767628967932545 L 22.764226417152315 1.2653081800172377 L 22.830395910593 1.253707578952 " stroke="#191919" stroke-width="0.35 px" style="stroke-width:0.35;stroke-miterlimit:4;stroke-dasharray:none;fill:none;fill-opacity:1;fill-rule: evenodd"/>
<path id="Shape2DView_nwe0069"  d="M -0.830064831892 -5.970000000000001 A 1.6 1.6 0 0 0 -2.40603 -4.64629" stroke="#191919" stroke-width="0.35 px" style="stroke-width:0.35;stroke-miterlimit:4;stroke-dasharray:none;fill:none;fill-opacity:1;fill-rule: evenodd"/>
<path id="Shape2DView_nwe0070"  d="M -0.830064831892 -5.37 L -0.830064831892 -5.373772674064054 L -0.830064831892 -5.385043252690906 L -0.830064831892 -5.403670001814979 L -0.830064831892 -5.429418679258548 L -0.830064831892 -5.4619654804630295 L -0.830064831892 -5.500901110519182 L -0.830064831892 -5.545735931288071 L -0.830064831892 -5.595906118884759 L -0.830064831892 -5.650780754090798 L -0.830064831892 -5.709669756529465 L -0.830064831892 -5.7718325628269 L -0.830064831892 -5.836487439626211 L -0.830064831892 -5.902821314338015 L -0.830064831892 -5.97 " stroke="#191919" stroke-width="0.35 px" style="stroke-width:0.35;stroke-miterlimit:4;stroke-dasharray:none;fill:none;fill-opacity:1;fill-rule: evenodd"/>
<path id="Shape2DView_nwe0071"  d="M 22.830395910593 1.253707578952 L 21.796028821985086 -4.646292421048015 " stroke="#191919" stroke-width="0.35 px" style="stroke-width:0.35;stroke-miterlimit:4;stroke-dasharray:none;fill:none;fill-opacity:1;fill-rule: evenodd"/>
<path id="Shape2DView_nwe0072"  d="M 21.205042325699946 -4.542682763154955 L 21.20875832474451 -4.543334238936819 L 21.21985959103416 -4.545280473596461 L 21.23820651970419 -4.548496992103802 L 21.26356838748144 -4.552943344872347 L 21.295626254163306 -4.558563616436195 L 21.33397697347587 -4.565287128619476 L 21.37813826287216 -4.57302932935541 L 21.427554768515044 -4.581692855977614 L 21.48160504917394 -4.59116875961212 L 21.539609391208856 -4.601337875272675 L 21.600838356363802 -4.612072320429589 L 21.66452195487608 -4.623237103206745 L 21.729859328544315 -4.634691819982762 L 21.796028821985 -4.646292421048 " stroke="#191919" stroke-width="0.35 px" style="stroke-width:0.35;stroke-miterlimit:4;stroke-dasharray:none;fill:none;fill-opacity:1;fill-rule: evenodd"/>
<path id="Shape2DView_nwe0073"  d="M 20.220064831892 -5.37 L 20.220064831892 -5.373772674064054 L 20.220064831892 -5.385043252690906 L 20.220064831892 -5.403670001814979 L 20.220064831892 -5.429418679258548 L 20.220064831892 -5.4619654804630295 L 20.220064831892 -5.500901110519182 L 20.220064831892 -5.545735931288071 L 20.220064831892 -5.595906118884759 L 20.220064831892 -5.650780754090798 L 20.220064831892 -5.709669756529465 L 20.220064831892 -5.7718325628269 L 20.220064831892 -5.836487439626211 L 20.220064831892 -5.902821314338015 L 20.220064831892 -5.97 " stroke="#191919" stroke-width="0.35 px" style="stroke-width:0.35;stroke-miterlimit:4;stroke-dasharray:none;fill:none;fill-opacity:1;fill-rule: evenodd"/>
<path id="Shape2DView_nwe0074"  d="M 20.220064831892 -5.97 L -0.830064831891999 -5.97 " stroke="#191919" stroke-width="0.35 px" style="stroke-width:0.35;stroke-miterlimit:4;stroke-dasharray:none;fill:none;fill-opacity:1;fill-rule: evenodd"/>
<path id="Shape2DView_nwe0075"  d="M 21.79602882198548 -4.64629242104812 A 1.6 1.6 0 0 0 20.2201 -5.97" stroke="#191919" stroke-width="0.35 px" style="stroke-width:0.35;stroke-miterlimit:4;stroke-dasharray:none;fill:none;fill-opacity:1;fill-rule: evenodd"/>
<circle cx="5.54" cy="-2.34303874219e-30" r="0.3" stroke="#191919" stroke-width="0.35 px" style="stroke-width:0.35;stroke-miterlimit:4;stroke-dasharray:none;fill:none"/>
<circle cx="6.925" cy="-2.84" r="0.3" stroke="#191919" stroke-width="0.35 px" style="stroke-width:0.35;stroke-miterlimit:4;stroke-dasharray:none;fill:none"/>
<circle cx="8.31" cy="-6.523698818257e-32" r="0.3" stroke="#191919" stroke-width="0.35 px" style="stroke-width:0.35;stroke-miterlimit:4;stroke-dasharray:none;fill:none"/>
<circle cx="2.77" cy="0.0" r="0.3" stroke="#191919" stroke-width="0.35 px" style="stroke-width:0.35;stroke-miterlimit:4;stroke-dasharray:none;fill:none"/>
<circle cx="4.155" cy="-2.84" r="0.3" stroke="#191919" stroke-width="0.35 px" style="stroke-width:0.35;stroke-miterlimit:4;stroke-dasharray:none;fill:none"/>
<circle cx="1.385" cy="-2.84" r="0.3" stroke="#191919" stroke-width="0.35 px" style="stroke-width:0.35;stroke-miterlimit:4;stroke-dasharray:none;fill:none"/>
<circle cx="9.695" cy="-2.84" r="0.3" stroke="#191919" stroke-width="0.35 px" style="stroke-width:0.35;stroke-miterlimit:4;stroke-dasharray:none;fill:none"/>
<circle cx="19.39" cy="0.0" r="0.3" stroke="#191919" stroke-width="0.35 px" style="stroke-width:0.35;stroke-miterlimit:4;stroke-dasharray:none;fill:none"/>
<circle cx="16.62" cy="0.0" r="0.3" stroke="#191919" stroke-width="0.35 px" style="stroke-width:0.35;stroke-miterlimit:4;stroke-dasharray:none;fill:none"/>
<circle cx="11.08" cy="-6.523698818257e-32" r="0.3" stroke="#191919" stroke-width="0.35 px" style="stroke-width:0.35;stroke-miterlimit:4;stroke-dasharray:none;fill:none"/>
<circle cx="13.85" cy="-6.523698818257e-32" r="0.3" stroke="#191919" stroke-width="0.35 px" style="stroke-width:0.35;stroke-miterlimit:4;stroke-dasharray:none;fill:none"/>
<circle cx="18.005" cy="-2.84" r="0.3" stroke="#191919" stroke-width="0.35 px" style="stroke-width:0.35;stroke-miterlimit:4;stroke-dasharray:none;fill:none"/>
<circle cx="12.465" cy="-2.84" r="0.3" stroke="#191919" stroke-width="0.35 px" style="stroke-width:0.35;stroke-miterlimit:4;stroke-dasharray:none;fill:none"/>
<circle cx="15.235" cy="-2.84" r="0.3" stroke="#191919" stroke-width="0.35 px" style="stroke-width:0.35;stroke-miterlimit:4;stroke-dasharray:none;fill:none"/>
<circle cx="0.0" cy="0.0" r="0.3" stroke="#191919" stroke-width="0.35 px" style="stroke-width:0.35;stroke-miterlimit:4;stroke-dasharray:none;fill:none"/>
<path id="Shape2DView_nwe0091"  d="M 28.295 4.73 L -8.905000000000001 4.73 " stroke="#191919" stroke-width="0.35 px" style="stroke-width:0.35;stroke-miterlimit:4;stroke-dasharray:none;fill:none;fill-opacity:1;fill-rule: evenodd"/>
<path id="Shape2DView_nwe0092"  d="M -8.905 4.73 A 0.9 0.9 0 0 1 -9.805 3.83" stroke="#191919" stroke-width="0.35 px" style="stroke-width:0.35;stroke-miterlimit:4;stroke-dasharray:none;fill:none;fill-opacity:1;fill-rule: evenodd"/>
<path id="Shape2DView_nwe0093"  d="M -9.805 3.83 L -9.805 -6.67 " stroke="#191919" stroke-width="0.35 px" style="stroke-width:0.35;stroke-miterlimit:4;stroke-dasharray:none;fill:none;fill-opacity:1;fill-rule: evenodd"/>
<path id="Shape2DView_nwe0094"  d="M -9.805 -6.67 A 0.9 0.9 0 0 1 -8.905 -7.57" stroke="#191919" stroke-width="0.35 px" style="stroke-width:0.35;stroke-miterlimit:4;stroke-dasharray:none;fill:none;fill-opacity:1;fill-rule: evenodd"/>
<path id="Shape2DView_nwe0095"  d="M -8.905 -7.57 L 28.295 -7.57 " stroke="#191919" stroke-width="0.35 px" style="stroke-width:0.35;stroke-miterlimit:4;stroke-dasharray:none;fill:none;fill-opacity:1;fill-rule: evenodd"/>
<path id="Shape2DView_nwe0096"  d="M 28.295 -7.57 A 0.9 0.9 0 0 1 29.195 -6.67" stroke="#191919" stroke-width="0.35 px" style="stroke-width:0.35;stroke-miterlimit:4;stroke-dasharray:none;fill:none;fill-opacity:1;fill-rule: evenodd"/>
<path id="Shape2DView_nwe0097"  d="M 29.195 -6.67 L 29.195 3.83 " stroke="#191919" stroke-width="0.35 px" style="stroke-width:0.35;stroke-miterlimit:4;stroke-dasharray:none;fill:none;fill-opacity:1;fill-rule: evenodd"/>
<path id="Shape2DView_nwe0098"  d="M 29.195 3.83 A 0.9 0.9 0 0 1 28.295 4.73" stroke="#191919" stroke-width="0.35 px" style="stroke-width:0.35;stroke-miterlimit:4;stroke-dasharray:none;fill:none;fill-opacity:1;fill-rule: evenodd"/>
<circle cx="26.345" cy="-1.42" r="1.7" stroke="#191919" stroke-width="0.35 px" style="stroke-width:0.35;stroke-miterlimit:4;stroke-dasharray:none;fill:none"/>
<circle cx="-6.955" cy="-1.42" r="1.7" stroke="#191919" stroke-width="0.35 px" style="stroke-width:0.35;stroke-miterlimit:4;stroke-dasharray:none;fill:none"/>
<circle cx="5.54" cy="-2.431293961794e-30" r="0.08571428571429" stroke="#191919" stroke-width="0.35 px" style="stroke-width:0.35;stroke-miterlimit:4;stroke-dasharray:none;fill:none"/>
<circle cx="6.925" cy="-2.84" r="0.08571428571429" stroke="#191919" stroke-width="0.35 px" style="stroke-width:0.35;stroke-miterlimit:4;stroke-dasharray:none;fill:none"/>
<circle cx="8.31" cy="-6.779273404243e-32" r="0.08571428571429" stroke="#191919" stroke-width="0.35 px" style="stroke-width:0.35;stroke-miterlimit:4;stroke-dasharray:none;fill:none"/>
<circle cx="2.77" cy="0.0" r="0.08571428571429" stroke="#191919" stroke-width="0.35 px" style="stroke-width:0.35;stroke-miterlimit:4;stroke-dasharray:none;fill:none"/>
<circle cx="4.155" cy="-2.84" r="0.08571428571429" stroke="#191919" stroke-width="0.35 px" style="stroke-width:0.35;stroke-miterlimit:4;stroke-dasharray:none;fill:none"/>
<circle cx="1.385" cy="-2.84" r="0.08571428571429" stroke="#191919" stroke-width="0.35 px" style="stroke-width:0.35;stroke-miterlimit:4;stroke-dasharray:none;fill:none"/>
<circle cx="9.695" cy="-2.84" r="0.08571428571429" stroke="#191919" stroke-width="0.35 px" style="stroke-width:0.35;stroke-miterlimit:4;stroke-dasharray:none;fill:none"/>
<circle cx="19.39" cy="0.0" r="0.08571428571429" stroke="#191919" stroke-width="0.35 px" style="stroke-width:0.35;stroke-miterlimit:4;stroke-dasharray:none;fill:none"/>
<circle cx="16.62" cy="0.0" r="0.08571428571429" stroke="#191919" stroke-width="0.35 px" style="stroke-width:0.35;stroke-miterlimit:4;stroke-dasharray:none;fill:none"/>
<circle cx="11.08" cy="-6.779273404243e-32" r="0.08571428571429" stroke="#191919" stroke-width="0.35 px" style="stroke-width:0.35;stroke-miterlimit:4;stroke-dasharray:none;fill:none"/>
<circle cx="13.85" cy="-6.779273404243e-32" r="0.08571428571429" stroke="#191919" stroke-width="0.35 px" style="stroke-width:0.35;stroke-miterlimit:4;stroke-dasharray:none;fill:none"/>
<circle cx="18.005" cy="-2.84" r="0.08571428571429" stroke="#191919" stroke-width="0.35 px" style="stroke-width:0.35;stroke-miterlimit:4;stroke-dasharray:none;fill:none"/>
<circle cx="12.465" cy="-2.84" r="0.08571428571429" stroke="#191919" stroke-width="0.35 px" style="stroke-width:0.35;stroke-miterlimit:4;stroke-dasharray:none;fill:none"/>
<circle cx="15.235" cy="-2.84" r="0.08571428571429" stroke="#191919" stroke-width="0.35 px" style="stroke-width:0.35;stroke-miterlimit:4;stroke-dasharray:none;fill:none"/>
<circle cx="0.0" cy="0.0" r="0.08571428571429" stroke="#191919" stroke-width="0.35 px" style="stroke-width:0.35;stroke-miterlimit:4;stroke-dasharray:none;fill:none"/>
<path id="Shape2DView_nwe0116"  d="M -8.905 4.83 L -8.905 4.829371220989325 L -8.905 4.827492791218183 L -8.905 4.8243883330308375 L -8.905 4.8200968867902425 L -8.905 4.814672419922829 L -8.905 4.808183148246804 L -8.905 4.800710678118655 L -8.905 4.792348980185873 L -8.905 4.7832032076515345 L -8.905 4.773388373911756 L -8.905 4.763027906195517 L -8.905 4.752252093395632 L -8.905 4.741196447610331 L -8.905 4.73 " stroke="#191919" stroke-width="0.35 px" style="stroke-width:0.35;stroke-miterlimit:4;stroke-dasharray:none;fill:none;fill-opacity:1;fill-rule: evenodd"/>
<path id="Shape2DView_nwe0117"  d="M 28.295 4.83 L 28.295 4.829371220989325 L 28.295 4.827492791218183 L 28.295 4.8243883330308375 L 28.295 4.8200968867902425 L 28.295 4.814672419922829 L 28.295 4.808183148246804 L 28.295 4.800710678118655 L 28.295 4.792348980185873 L 28.295 4.7832032076515345 L 28.295 4.773388373911756 L 28.295 4.763027906195517 L 28.295 4.752252093395632 L 28.295 4.741196447610331 L 28.295 4.73 " stroke="#191919" stroke-width="0.35 px" style="stroke-width:0.35;stroke-miterlimit:4;stroke-dasharray:none;fill:none;fill-opacity:1;fill-rule: evenodd"/>
<path id="Shape2DView_nwe0118"  d="M 29.295 3.83 L 29.294371220989326 3.83 L 29.292492791218184 3.83 L 29.289388333030836 3.83 L 29.285096886790242 3.83 L 29.27967241992283 3.83 L 29.273183148246805 3.83 L 29.265710678118655 3.83 L 29.257348980185874 3.83 L 29.248203207651535 3.83 L 29.238388373911757 3.83 L 29.228027906195518 3.83 L 29.217252093395633 3.83 L 29.20619644761033 3.83 L 29.195 3.83 " stroke="#191919" stroke-width="0.35 px" style="stroke-width:0.35;stroke-miterlimit:4;stroke-dasharray:none;fill:none;fill-opacity:1;fill-rule: evenodd"/>
<path id="Shape2DView_nwe0119"  d="M -9.905 3.83 L -9.904371220989324 3.83 L -9.902492791218181 3.83 L -9.899388333030837 3.83 L -9.895096886790242 3.83 L -9.889672419922828 3.83 L -9.883183148246802 3.83 L -9.875710678118654 3.83 L -9.867348980185874 3.83 L -9.858203207651533 3.83 L -9.848388373911755 3.83 L -9.838027906195517 3.83 L -9.82725209339563 3.83 L -9.81619644761033 3.83 L -9.805 3.83 " stroke="#191919" stroke-width="0.35 px" style="stroke-width:0.35;stroke-miterlimit:4;stroke-dasharray:none;fill:none;fill-opacity:1;fill-rule: evenodd"/>
<path id="Shape2DView_nwe0120"  d="M 29.295 -6.67 L 29.294371220989326 -6.67 L 29.292492791218184 -6.67 L 29.289388333030836 -6.67 L 29.285096886790242 -6.67 L 29.27967241992283 -6.67 L 29.273183148246805 -6.67 L 29.265710678118655 -6.67 L 29.257348980185874 -6.67 L 29.248203207651535 -6.67 L 29.238388373911757 -6.67 L 29.228027906195518 -6.67 L 29.217252093395633 -6.67 L 29.20619644761033 -6.67 L 29.195 -6.67 " stroke="#191919" stroke-width="0.35 px" style="stroke-width:0.35;stroke-miterlimit:4;stroke-dasharray:none;fill:none;fill-opacity:1;fill-rule: evenodd"/>
<path id="Shape2DView_nwe0121"  d="M -9.905 -6.67 L -9.904371220989324 -6.67 L -9.902492791218181 -6.67 L -9.899388333030837 -6.67 L -9.895096886790242 -6.67 L -9.889672419922828 -6.67 L -9.883183148246802 -6.67 L -9.875710678118654 -6.67 L -9.867348980185874 -6.67 L -9.858203207651533 -6.67 L -9.848388373911755 -6.67 L -9.838027906195517 -6.67 L -9.82725209339563 -6.67 L -9.81619644761033 -6.67 L -9.805 -6.67 " stroke="#191919" stroke-width="0.35 px" style="stroke-width:0.35;stroke-miterlimit:4;stroke-dasharray:none;fill:none;fill-opacity:1;fill-rule: evenodd"/>
<path id="Shape2DView_nwe0122"  d="M 28.295 -7.67 L 28.295 -7.6693712209893246 L 28.295 -7.667492791218183 L 28.295 -7.664388333030837 L 28.295 -7.660096886790242 L 28.295 -7.654672419922829 L 28.295 -7.648183148246804 L 28.295 -7.640710678118655 L 28.295 -7.632348980185873 L 28.295 -7.623203207651534 L 28.295 -7.613388373911756 L 28.295 -7.603027906195517 L 28.295 -7.592252093395632 L 28.295 -7.581196447610331 L 28.295 -7.57 " stroke="#191919" stroke-width="0.35 px" style="stroke-width:0.35;stroke-miterlimit:4;stroke-dasharray:none;fill:none;fill-opacity:1;fill-rule: evenodd"/>
<path id="Shape2DView_nwe0123"  d="M -8.905 -7.67 L -8.905 -7.6693712209893246 L -8.905 -7.667492791218183 L -8.905 -7.664388333030837 L -8.905 -7.660096886790242 L -8.905 -7.654672419922829 L -8.905 -7.648183148246804 L -8.905 -7.640710678118655 L -8.905 -7.632348980185873 L -8.905 -7.623203207651534 L -8.905 -7.613388373911756 L -8.905 -7.603027906195517 L -8.905 -7.592252093395632 L -8.905 -7.581196447610331 L -8.905 -7.57 " stroke="#191919" stroke-width="0.35 px" style="stroke-width:0.35;stroke-miterlimit:4;stroke-dasharray:none;fill:none;fill-opacity:1;fill-rule: evenodd"/>
<circle cx="26.345" cy="-1.42" r="1.6" stroke="#191919" stroke-width="0.35 px" style="stroke-width:0.35;stroke-miterlimit:4;stroke-dasharray:none;fill:none"/>
<path id="Shape2DView_nwe0125"  d="M 5.840000000000001 2.2315678044372712e-42 L 5.838652616405693 -2.0404689297710287e-32 L 5.834627409753241 -6.159925753764182e-32 L 5.8279749993517775 -1.230656591203001e-31 L 5.818779043121919 -2.0403091838214625e-31 L 5.807155185548875 -3.0347685021082523e-31 L 5.793249603385944 -4.201528643137173e-31 L 5.777237167397034 -5.525916921164786e-31 L 5.7593192432553355 -6.9912783851669195e-31 L 5.739721159253153 -8.579185264511219e-31 L 5.718689372667887 -1.0269668708864895e-30 L 5.696488370418773 -1.2041469908073863e-30 L 5.673397342990417 -1.3872307434035068e-30 L 5.6497066734504555 -1.573915744258287e-30 L 5.625714285714 -1.7618543211688175e-30 " stroke="#191919" stroke-width="0.35 px" style="stroke-width:0.35;stroke-miterlimit:4;stroke-dasharray:none;fill:none;fill-opacity:1;fill-rule: evenodd"/>
<path id="Shape2DView_nwe0126"  d="M 7.2250000000000005 -2.84 L 7.223652616405693 -2.84 L 7.219627409753241 -2.84 L 7.212974999351777 -2.84 L 7.203779043121918 -2.84 L 7.192155185548875 -2.84 L 7.178249603385944 -2.84 L 7.162237167397034 -2.84 L 7.144319243255335 -2.84 L 7.124721159253153 -2.84 L 7.103689372667887 -2.84 L 7.081488370418773 -2.84 L 7.058397342990417 -2.84 L 7.034706673450455 -2.84 L 7.010714285714 -2.84 " stroke="#191919" stroke-width="0.35 px" style="stroke-width:0.35;stroke-miterlimit:4;stroke-dasharray:none;fill:none;fill-opacity:1;fill-rule: evenodd"/>
<path id="Shape2DView_nwe0127"  d="M 8.61 6.070468738032118e-44 L 8.608652616405694 -5.791502382565046e-34 L 8.60462740975324 -1.737012310423938e-33 L 8.597974999351777 -3.459025429076863e-33 L 8.588779043121919 -5.723534280112937e-33 L 8.577155185548873 -8.50206135083174e-33 L 8.563249603385945 -1.1759665051180018e-32 L 8.547237167397034 -1.545537912452021e-32 L 8.529319243255335 -1.9542727822076804e-32 L 8.509721159253152 -2.397031036244308e-32 L 8.488689372667887 -2.86824473262307e-32 L 8.466488370418773 -3.3619880857074474e-32 L 8.443397342990417 -3.8720519863558395e-32 L 8.419706673450454 -4.392022085071623e-32 L 8.395714285714 -4.915359456169769e-32 " stroke="#191919" stroke-width="0.35 px" style="stroke-width:0.35;stroke-miterlimit:4;stroke-dasharray:none;fill:none;fill-opacity:1;fill-rule: evenodd"/>
<path id="Shape2DView_nwe0128"  d="M 3.07 0.0 L 3.068652616405693 0.0 L 3.0646274097532404 0.0 L 3.057974999351777 0.0 L 3.0487790431219186 0.0 L 3.0371551855488743 0.0 L 3.0232496033859437 0.0 L 3.0072371673970335 0.0 L 2.989319243255335 0.0 L 2.9697211592531527 0.0 L 2.948689372667886 0.0 L 2.926488370418773 0.0 L 2.9033973429904165 0.0 L 2.879706673450455 0.0 L 2.855714285714 0.0 " stroke="#191919" stroke-width="0.35 px" style="stroke-width:0.35;stroke-miterlimit:4;stroke-dasharray:none;fill:none;fill-opacity:1;fill-rule: evenodd"/>
<path id="Shape2DView_nwe0129"  d="M 4.455 -2.84 L 4.453652616405693 -2.84 L 4.449627409753241 -2.84 L 4.442974999351777 -2.84 L 4.433779043121918 -2.84 L 4.422155185548874 -2.84 L 4.4082496033859435 -2.84 L 4.392237167397034 -2.84 L 4.374319243255335 -2.84 L 4.3547211592531525 -2.84 L 4.3336893726678865 -2.84 L 4.311488370418773 -2.84 L 4.288397342990416 -2.84 L 4.264706673450455 -2.84 L 4.240714285714 -2.84 " stroke="#191919" stroke-width="0.35 px" style="stroke-width:0.35;stroke-miterlimit:4;stroke-dasharray:none;fill:none;fill-opacity:1;fill-rule: evenodd"/>
<path id="Shape2DView_nwe0130"  d="M 1.685 -2.84 L 1.683652616405693 -2.84 L 1.6796274097532409 -2.84 L 1.672974999351777 -2.84 L 1.6637790431219188 -2.84 L 1.6521551855488743 -2.84 L 1.6382496033859442 -2.84 L 1.6222371673970337 -2.84 L 1.6043192432553355 -2.84 L 1.5847211592531527 -2.84 L 1.5636893726678864 -2.84 L 1.5414883704187732 -2.84 L 1.5183973429904167 -2.84 L 1.4947066734504553 -2.84 L 1.470714285714 -2.84 " stroke="#191919" stroke-width="0.35 px" style="stroke-width:0.35;stroke-miterlimit:4;stroke-dasharray:none;fill:none;fill-opacity:1;fill-rule: evenodd"/>
<path id="Shape2DView_nwe0131"  d="M 9.995 -2.84 L 9.993652616405694 -2.84 L 9.98962740975324 -2.84 L 9.982974999351777 -2.84 L 9.973779043121919 -2.84 L 9.962155185548873 -2.84 L 9.948249603385944 -2.84 L 9.932237167397034 -2.84 L 9.914319243255335 -2.84 L 9.894721159253152 -2.84 L 9.873689372667886 -2.84 L 9.851488370418773 -2.84 L 9.828397342990417 -2.84 L 9.804706673450454 -2.84 L 9.780714285714 -2.84 " stroke="#191919" stroke-width="0.35 px" style="stroke-width:0.35;stroke-miterlimit:4;stroke-dasharray:none;fill:none;fill-opacity:1;fill-rule: evenodd"/>
<path id="Shape2DView_nwe0132"  d="M 19.69 0.0 L 19.688652616405694 0.0 L 19.684627409753244 0.0 L 19.67797499935178 0.0 L 19.66877904312192 0.0 L 19.657155185548877 0.0 L 19.643249603385947 0.0 L 19.627237167397034 0.0 L 19.60931924325534 0.0 L 19.589721159253155 0.0 L 19.568689372667887 0.0 L 19.546488370418775 0.0 L 19.523397342990418 0.0 L 19.499706673450458 0.0 L 19.475714285714 0.0 " stroke="#191919" stroke-width="0.35 px" style="stroke-width:0.35;stroke-miterlimit:4;stroke-dasharray:none;fill:none;fill-opacity:1;fill-rule: evenodd"/>
<path id="Shape2DView_nwe0133"  d="M 16.919999999999998 0.0 L 16.91865261640569 0.0 L 16.91462740975324 0.0 L 16.907974999351776 0.0 L 16.898779043121916 0.0 L 16.887155185548874 0.0 L 16.873249603385943 0.0 L 16.85723716739703 0.0 L 16.839319243255336 0.0 L 16.819721159253152 0.0 L 16.798689372667884 0.0 L 16.77648837041877 0.0 L 16.753397342990414 0.0 L 16.729706673450455 0.0 L 16.705714285714 0.0 " stroke="#191919" stroke-width="0.35 px" style="stroke-width:0.35;stroke-miterlimit:4;stroke-dasharray:none;fill:none;fill-opacity:1;fill-rule: evenodd"/>
<path id="Shape2DView_nwe0134"  d="M 11.379999999999999 6.070468738032118e-44 L 11.378652616405693 -5.7915023825674545e-34 L 11.37462740975324 -1.7370123104244142e-33 L 11.367974999351777 -3.459025429077569e-33 L 11.358779043121919 -5.7235342801138674e-33 L 11.347155185548873 -8.502061350832884e-33 L 11.333249603385944 -1.1759665051181353e-32 L 11.317237167397034 -1.5455379124521726e-32 L 11.299319243255335 -1.954272782207848e-32 L 11.279721159253151 -2.3970310362444893e-32 L 11.258689372667886 -2.868244732623263e-32 L 11.236488370418773 -3.36198808570765e-32 L 11.213397342990417 -3.8720519863560486e-32 L 11.189706673450454 -4.392022085071836e-32 L 11.165714285714 -4.9153594561699833e-32 " stroke="#191919" stroke-width="0.35 px" style="stroke-width:0.35;stroke-miterlimit:4;stroke-dasharray:none;fill:none;fill-opacity:1;fill-rule: evenodd"/>
<path id="Shape2DView_nwe0135"  d="M 14.15 6.070468738032118e-44 L 14.148652616405695 -5.7915023825626375e-34 L 14.144627409753241 -1.7370123104234618e-33 L 14.137974999351778 -3.459025429076157e-33 L 14.12877904312192 -5.723534280112006e-33 L 14.117155185548874 -8.502061350830601e-33 L 14.103249603385946 -1.1759665051178682e-32 L 14.087237167397035 -1.5455379124518694e-32 L 14.069319243255336 -1.954272782207513e-32 L 14.049721159253153 -2.3970310362441267e-32 L 14.028689372667888 -2.8682447326228766e-32 L 14.006488370418774 -3.3619880857072455e-32 L 13.983397342990418 -3.872051986355631e-32 L 13.959706673450455 -4.39202208507141e-32 L 13.935714285714 -4.915359456169555e-32 " stroke="#191919" stroke-width="0.35 px" style="stroke-width:0.35;stroke-miterlimit:4;stroke-dasharray:none;fill:none;fill-opacity:1;fill-rule: evenodd"/>
<path id="Shape2DView_nwe0136"  d="M 18.305 -2.84 L 18.303652616405692 -2.84 L 18.299627409753242 -2.84 L 18.292974999351777 -2.84 L 18.283779043121918 -2.84 L 18.272155185548876 -2.84 L 18.258249603385945 -2.84 L 18.242237167397032 -2.84 L 18.224319243255337 -2.84 L 18.204721159253154 -2.84 L 18.183689372667885 -2.84 L 18.161488370418773 -2.84 L 18.138397342990416 -2.84 L 18.114706673450456 -2.84 L 18.090714285714 -2.84 " stroke="#191919" stroke-width="0.35 px" style="stroke-width:0.35;stroke-miterlimit:4;stroke-dasharray:none;fill:none;fill-opacity:1;fill-rule: evenodd"/>
<path id="Shape2DView_nwe0137"  d="M 12.764999999999999 -2.84 L 12.763652616405693 -2.84 L 12.75962740975324 -2.84 L 12.752974999351776 -2.84 L 12.743779043121918 -2.84 L 12.732155185548873 -2.84 L 12.718249603385944 -2.84 L 12.702237167397033 -2.84 L 12.684319243255334 -2.84 L 12.664721159253151 -2.84 L 12.643689372667886 -2.84 L 12.621488370418772 -2.84 L 12.598397342990417 -2.84 L 12.574706673450454 -2.84 L 12.550714285714 -2.84 " stroke="#191919" stroke-width="0.35 px" style="stroke-width:0.35;stroke-miterlimit:4;stroke-dasharray:none;fill:none;fill-opacity:1;fill-rule: evenodd"/>
<path id="Shape2DView_nwe0138"  d="M 15.535 -2.84 L 15.533652616405695 -2.84 L 15.52962740975324 -2.84 L 15.522974999351778 -2.84 L 15.51377904312192 -2.84 L 15.502155185548874 -2.84 L 15.488249603385945 -2.84 L 15.472237167397035 -2.84 L 15.454319243255336 -2.84 L 15.434721159253153 -2.84 L 15.413689372667887 -2.84 L 15.391488370418774 -2.84 L 15.368397342990418 -2.84 L 15.344706673450455 -2.84 L 15.320714285714 -2.84 " stroke="#191919" stroke-width="0.35 px" style="stroke-width:0.35;stroke-miterlimit:4;stroke-dasharray:none;fill:none;fill-opacity:1;fill-rule: evenodd"/>
<path id="Shape2DView_nwe0139"  d="M 0.30000000000029 0.0 L 0.29865261640598306 0.0 L 0.29462740975353074 0.0 L 0.287974999352067 0.0 L 0.27877904312220864 0.0 L 0.26715518554916423 0.0 L 0.25324960338623403 0.0 L 0.23723716739732365 0.0 L 0.21931924325562535 0.0 L 0.1997211592534427 0.0 L 0.17868937266817642 0.0 L 0.15648837041906305 0.0 L 0.13339734299070666 0.0 L 0.10970667345074511 0.0 L 0.08571428571429002 0.0 " stroke="#191919" stroke-width="0.35 px" style="stroke-width:0.35;stroke-miterlimit:4;stroke-dasharray:none;fill:none;fill-opacity:1;fill-rule: evenodd"/>
<path id="Shape2DView_nwe0140"  d="M 27.945 -1.42 L 27.945628779010676 -1.42 L 27.94750720878182 -1.42 L 27.950611666969166 -1.42 L 27.95490311320976 -1.42 L 27.960327580077173 -1.42 L 27.966816851753197 -1.42 L 27.974289321881347 -1.42 L 27.982651019814128 -1.42 L 27.991796792348467 -1.42 L 28.001611626088245 -1.42 L 28.011972093804484 -1.42 L 28.02274790660437 -1.42 L 28.03380355238967 -1.42 L 28.045 -1.42 " stroke="#191919" stroke-width="0.35 px" style="stroke-width:0.35;stroke-miterlimit:4;stroke-dasharray:none;fill:none;fill-opacity:1;fill-rule: evenodd"/>
<path id="Shape2DView_nwe0141"  d="M -5.3549999999999995 -1.42 L -5.354371220989324 -1.42 L -5.352492791218182 -1.42 L -5.349388333030837 -1.42 L -5.345096886790242 -1.42 L -5.339672419922828 -1.42 L -5.333183148246803 -1.42 L -5.3257106781186545 -1.42 L -5.317348980185873 -1.42 L -5.308203207651534 -1.42 L -5.298388373911756 -1.42 L -5.288027906195516 -1.42 L -5.2772520933956315 -1.42 L -5.266196447610331 -1.42 L -5.255 -1.42 " stroke="#191919" stroke-width="0.35 px" style="stroke-width:0.35;stroke-miterlimit:4;stroke-dasharray:none;fill:none;fill-opacity:1;fill-rule: evenodd"/>
<title>b'Shape2DView'</title>
</g>
<g id="Rectangle" transform="translate(10.297000,5.222000) scale(1,-1)">
<rect fill="#ff0000" id="origin" width="1" height="1" x="0" y="0" />
<title>b'Rectangle'</title>
</g>
</svg>