<?xml version="1.0"?>
<!DOCTYPE svg PUBLIC "-//W3C//DTD SVG 1.1//EN" "http://www.w3.org/Graphics/SVG/1.1/DTD/svg11.dtd">
<svg width="31.416000000000004mm" height="21.076000000000022mm" viewBox="0 0 31.416000000000004 21.076000000000022" xmlns="http://www.w3.org/2000/svg" version="1.1">
<g id="Shape2DView" transform="translate(11.700500,1.308000) scale(1,-1)">
<path id="Shape2DView_nwe0000"  d="M -3.305077687448 -19.46 L -3.4114439397461425 -19.46 L -3.5164725747064987 -19.46 L -3.618842796305409 -19.46 L -3.71726723960968 -19.46 L -3.81050816013757 -19.46 L -3.897392999213797 -19.46 L -3.9768291295752203 -19.46 L -4.047817595792629 -19.46 L -4.10946567671487 -19.46 L -4.160998111955299 -19.46 L -4.201766851240949 -19.46 L -4.231259204020732 -19.46 L -4.24910428684658 -19.46 L -4.255077687448 -19.46 " stroke="#191919" stroke-width="0.35 px" style="stroke-width:0.35;stroke-miterlimit:4;stroke-dasharray:none;fill:none;fill-opacity:1;fill-rule: evenodd"/>
<path id="Shape2DView_nwe0001"  d="M 11.320077687448 -19.46 L -3.3050776874479997 -19.46 " stroke="#191919" stroke-width="0.35 px" style="stroke-width:0.35;stroke-miterlimit:4;stroke-dasharray:none;fill:none;fill-opacity:1;fill-rule: evenodd"/>
<path id="Shape2DView_nwe0002"  d="M 12.270077687448 -19.46 L 12.26410428684658 -19.46 L 12.246259204020733 -19.46 L 12.21676685124095 -19.46 L 12.175998111955298 -19.46 L 12.12446567671487 -19.46 L 12.062817595792628 -19.46 L 11.99182912957522 -19.46 L 11.912392999213797 -19.46 L 11.82550816013757 -19.46 L 11.73226723960968 -19.46 L 11.633842796305409 -19.46 L 11.531472574706498 -19.46 L 11.426443939746143 -19.46 L 11.320077687448 -19.46 " stroke="#191919" stroke-width="0.35 px" style="stroke-width:0.35;stroke-miterlimit:4;stroke-dasharray:none;fill:none;fill-opacity:1;fill-rule: evenodd"/>
<path id="Shape2DView_nwe0003"  d="M -3.305077687448 -19.41 L -3.417042163551308 -19.41 L -3.5275986214043145 -19.41 L -3.6353567494031673 -19.41 L -3.738961426565558 -19.41 L -3.837109763963337 -19.41 L -3.928567489306734 -19.41 L -4.012184468634548 -19.41 L -4.08690916991603 -19.41 L -4.151801886676284 -19.41 L -4.20604655535042 -19.41 L -4.2489610177563675 -19.41 L -4.280005599629824 -19.41 L -4.298789897341242 -19.41 L -4.305077687448 -19.41 " stroke="#191919" stroke-width="0.35 px" style="stroke-width:0.35;stroke-miterlimit:4;stroke-dasharray:none;fill:none;fill-opacity:1;fill-rule: evenodd"/>
<path id="Shape2DView_nwe0004"  d="M 11.320077687448 -19.41 L -3.3050776874479997 -19.41 " stroke="#191919" stroke-width="0.35 px" style="stroke-width:0.35;stroke-miterlimit:4;stroke-dasharray:none;fill:none;fill-opacity:1;fill-rule: evenodd"/>
<path id="Shape2DView_nwe0005"  d="M 12.320077687448 -19.41 L 12.313789897341243 -19.41 L 12.295005599629825 -19.41 L 12.263961017756367 -19.41 L 12.22104655535042 -19.41 L 12.166801886676284 -19.41 L 12.10190916991603 -19.41 L 12.027184468634548 -19.41 L 11.943567489306734 -19.41 L 11.852109763963337 -19.41 L 11.753961426565558 -19.41 L 11.650356749403167 -19.41 L 11.542598621404315 -19.41 L 11.432042163551309 -19.41 L 11.320077687448 -19.41 " stroke="#191919" stroke-width="0.35 px" style="stroke-width:0.35;stroke-miterlimit:4;stroke-dasharray:none;fill:none;fill-opacity:1;fill-rule: evenodd"/>
<path id="Shape2DView_nwe0006"  d="M -10.3925 -13.66 L -10.493268028492977 -13.66 L -10.592768840560684 -13.66 L -10.68975115575965 -13.66 L -10.782995365205803 -13.66 L -10.871328868863802 -13.66 L -10.95364082167286 -13.66 L -11.028896103067893 -13.66 L -11.096148334221226 -13.66 L -11.154551779305455 -13.66 L -11.203371981112177 -13.66 L -11.241994997277532 -13.66 L -11.269935120963641 -13.66 L -11.286840988903919 -13.66 L -11.2925 -13.66 " stroke="#191919" stroke-width="0.35 px" style="stroke-width:0.35;stroke-miterlimit:4;stroke-dasharray:none;fill:none;fill-opacity:1;fill-rule: evenodd"/>
<path id="Shape2DView_nwe0007"  d="M 18.4075 -13.66 L 18.508268028492974 -13.66 L 18.60776884056068 -13.66 L 18.70475115575965 -13.66 L 18.7979953652058 -13.66 L 18.886328868863803 -13.66 L 18.96864082167286 -13.66 L 19.04389610306789 -13.66 L 19.111148334221227 -13.66 L 19.169551779305454 -13.66 L 19.218371981112178 -13.66 L 19.25699499727753 -13.66 L 19.28493512096364 -13.66 L 19.301840988903916 -13.66 L 19.307499999999997 -13.66 " stroke="#191919" stroke-width="0.35 px" style="stroke-width:0.35;stroke-miterlimit:4;stroke-dasharray:none;fill:none;fill-opacity:1;fill-rule: evenodd"/>
<path id="Shape2DView_nwe0008"  d="M 19.307499999999997 -13.66 L 19.301840988903916 -13.66 L 19.28493512096364 -13.66 L 19.25699499727753 -13.66 L 19.218371981112178 -13.66 L 19.169551779305454 -13.66 L 19.111148334221227 -13.66 L 19.04389610306789 -13.66 L 18.96864082167286 -13.66 L 18.886328868863803 -13.66 L 18.7979953652058 -13.66 L 18.70475115575965 -13.66 L 18.60776884056068 -13.66 L 18.508268028492974 -13.66 L 18.4075 -13.66 " stroke="#191919" stroke-width="0.35 px" style="stroke-width:0.35;stroke-miterlimit:4;stroke-dasharray:none;fill:none;fill-opacity:1;fill-rule: evenodd"/>
<path id="Shape2DView_nwe0009"  d="M 18.4075 -13.66 L -10.392499999999998 -13.66 " stroke="#191919" stroke-width="0.35 px" style="stroke-width:0.35;stroke-miterlimit:4;stroke-dasharray:none;fill:none;fill-opacity:1;fill-rule: evenodd"/>
<path id="Shape2DView_nwe0010"  d="M -11.3925 -13.56 A 0.1 0.1 0 0 1 -11.2925 -13.66" stroke="#191919" stroke-width="0.35 px" style="stroke-width:0.35;stroke-miterlimit:4;stroke-dasharray:none;fill:none;fill-opacity:1;fill-rule: evenodd"/>
<path id="Shape2DView_nwe0011"  d="M 19.407500000000002 -13.56 A 0.1 0.1 0 0 0 19.3075 -13.66" stroke="#191919" stroke-width="0.35 px" style="stroke-width:0.35;stroke-miterlimit:4;stroke-dasharray:none;fill:none;fill-opacity:1;fill-rule: evenodd"/>
<path id="Shape2DView_nwe0013"  d="M -11.3925 -13.36 L -11.3925 -13.56 " stroke="#191919" stroke-width="0.35 px" style="stroke-width:0.35;stroke-miterlimit:4;stroke-dasharray:none;fill:none;fill-opacity:1;fill-rule: evenodd"/>
<path id="Shape2DView_nwe0014"  d="M 19.4075 -13.36 L 19.4075 -13.56 " stroke="#191919" stroke-width="0.35 px" style="stroke-width:0.35;stroke-miterlimit:4;stroke-dasharray:none;fill:none;fill-opacity:1;fill-rule: evenodd"/>
<path id="Shape2DView_nwe0015"  d="M -11.2925 -13.26 L -11.286840988903919 -13.26 L -11.269935120963641 -13.26 L -11.241994997277532 -13.26 L -11.203371981112177 -13.26 L -11.154551779305455 -13.26 L -11.096148334221226 -13.26 L -11.028896103067893 -13.26 L -10.95364082167286 -13.26 L -10.871328868863802 -13.26 L -10.782995365205803 -13.26 L -10.68975115575965 -13.26 L -10.592768840560684 -13.26 L -10.493268028492977 -13.26 L -10.3925 -13.26 " stroke="#191919" stroke-width="0.35 px" style="stroke-width:0.35;stroke-miterlimit:4;stroke-dasharray:none;fill:none;fill-opacity:1;fill-rule: evenodd"/>
<path id="Shape2DView_nwe0016"  d="M -11.2925 -13.26 A 0.1 0.1 0 0 1 -11.3925 -13.36" stroke="#191919" stroke-width="0.35 px" style="stroke-width:0.35;stroke-miterlimit:4;stroke-dasharray:none;fill:none;fill-opacity:1;fill-rule: evenodd"/>
<path id="Shape2DView_nwe0017"  d="M -10.3925 -13.26 L 18.4075 -13.26 " stroke="#191919" stroke-width="0.35 px" style="stroke-width:0.35;stroke-miterlimit:4;stroke-dasharray:none;fill:none;fill-opacity:1;fill-rule: evenodd"/>
<path id="Shape2DView_nwe0018"  d="M 19.3075 -13.26 A 0.1 0.1 0 0 0 19.4075 -13.36" stroke="#191919" stroke-width="0.35 px" style="stroke-width:0.35;stroke-miterlimit:4;stroke-dasharray:none;fill:none;fill-opacity:1;fill-rule: evenodd"/>
<path id="Shape2DView_nwe0019"  d="M 18.4075 -13.26 L 18.508268028492974 -13.26 L 18.60776884056068 -13.26 L 18.70475115575965 -13.26 L 18.7979953652058 -13.26 L 18.886328868863803 -13.26 L 18.96864082167286 -13.26 L 19.04389610306789 -13.26 L 19.111148334221227 -13.26 L 19.169551779305454 -13.26 L 19.218371981112178 -13.26 L 19.25699499727753 -13.26 L 19.28493512096364 -13.26 L 19.301840988903916 -13.26 L 19.307499999999997 -13.26 " stroke="#191919" stroke-width="0.35 px" style="stroke-width:0.35;stroke-miterlimit:4;stroke-dasharray:none;fill:none;fill-opacity:1;fill-rule: evenodd"/>
<path id="Shape2DView_nwe0020"  d="M -10.3925 -13.26 L -10.493268028492977 -13.26 L -10.592768840560684 -13.26 L -10.68975115575965 -13.26 L -10.782995365205803 -13.26 L -10.871328868863802 -13.26 L -10.95364082167286 -13.26 L -11.028896103067893 -13.26 L -11.096148334221226 -13.26 L -11.154551779305455 -13.26 L -11.203371981112177 -13.26 L -11.241994997277532 -13.26 L -11.269935120963641 -13.26 L -11.286840988903919 -13.26 L -11.2925 -13.26 " stroke="#191919" stroke-width="0.35 px" style="stroke-width:0.35;stroke-miterlimit:4;stroke-dasharray:none;fill:none;fill-opacity:1;fill-rule: evenodd"/>
<path id="Shape2DView_nwe0021"  d="M 11.9075 -10.26 L 11.9075 -13.26 " stroke="#191919" stroke-width="0.35 px" style="stroke-width:0.35;stroke-miterlimit:4;stroke-dasharray:none;fill:none;fill-opacity:1;fill-rule: evenodd"/>
<path id="Shape2DView_nwe0022"  d="M -3.8925 -10.26 L -3.8925 -13.26 " stroke="#191919" stroke-width="0.35 px" style="stroke-width:0.35;stroke-miterlimit:4;stroke-dasharray:none;fill:none;fill-opacity:1;fill-rule: evenodd"/>
<path id="Shape2DView_nwe0023"  d="M 10.9075 -9.26 A 1 1 0 0 0 11.9075 -10.26" stroke="#191919" stroke-width="0.35 px" style="stroke-width:0.35;stroke-miterlimit:4;stroke-dasharray:none;fill:none;fill-opacity:1;fill-rule: evenodd"/>
<path id="Shape2DView_nwe0024"  d="M 10.9075 -9.26 L -2.8925 -9.26 " stroke="#191919" stroke-width="0.35 px" style="stroke-width:0.35;stroke-miterlimit:4;stroke-dasharray:none;fill:none;fill-opacity:1;fill-rule: evenodd"/>
<path id="Shape2DView_nwe0025"  d="M -2.8925 -9.26 A 1 1 0 0 1 -3.8925 -10.26" stroke="#191919" stroke-width="0.35 px" style="stroke-width:0.35;stroke-miterlimit:4;stroke-dasharray:none;fill:none;fill-opacity:1;fill-rule: evenodd"/>
<path id="Shape2DView_nwe0026"  d="M 9.31 -9.16 L 9.31 -9.26 " stroke="#191919" stroke-width="0.35 px" style="stroke-width:0.35;stroke-miterlimit:4;stroke-dasharray:none;fill:none;fill-opacity:1;fill-rule: evenodd"/>
<path id="Shape2DView_nwe0027"  d="M 8.165 -9.16 L 8.165 -9.26 " stroke="#191919" stroke-width="0.35 px" style="stroke-width:0.35;stroke-miterlimit:4;stroke-dasharray:none;fill:none;fill-opacity:1;fill-rule: evenodd"/>
<path id="Shape2DView_nwe0028"  d="M 7.02 -9.16 L 7.02 -9.26 " stroke="#191919" stroke-width="0.35 px" style="stroke-width:0.35;stroke-miterlimit:4;stroke-dasharray:none;fill:none;fill-opacity:1;fill-rule: evenodd"/>
<path id="Shape2DView_nwe0029"  d="M 3.585 -9.16 L 3.585 -9.26 " stroke="#191919" stroke-width="0.35 px" style="stroke-width:0.35;stroke-miterlimit:4;stroke-dasharray:none;fill:none;fill-opacity:1;fill-rule: evenodd"/>
<path id="Shape2DView_nwe0030"  d="M 4.73 -9.16 L 4.73 -9.26 " stroke="#191919" stroke-width="0.35 px" style="stroke-width:0.35;stroke-miterlimit:4;stroke-dasharray:none;fill:none;fill-opacity:1;fill-rule: evenodd"/>
<path id="Shape2DView_nwe0031"  d="M 5.875 -9.16 L 5.875 -9.26 " stroke="#191919" stroke-width="0.35 px" style="stroke-width:0.35;stroke-miterlimit:4;stroke-dasharray:none;fill:none;fill-opacity:1;fill-rule: evenodd"/>
<path id="Shape2DView_nwe0032"  d="M 2.44 -9.16 L 2.44 -9.26 " stroke="#191919" stroke-width="0.35 px" style="stroke-width:0.35;stroke-miterlimit:4;stroke-dasharray:none;fill:none;fill-opacity:1;fill-rule: evenodd"/>
<path id="Shape2DView_nwe0033"  d="M -0.995 -9.16 L -0.995 -9.26 " stroke="#191919" stroke-width="0.35 px" style="stroke-width:0.35;stroke-miterlimit:4;stroke-dasharray:none;fill:none;fill-opacity:1;fill-rule: evenodd"/>
<path id="Shape2DView_nwe0034"  d="M 0.15 -9.16 L 0.15 -9.26 " stroke="#191919" stroke-width="0.35 px" style="stroke-width:0.35;stroke-miterlimit:4;stroke-dasharray:none;fill:none;fill-opacity:1;fill-rule: evenodd"/>
<path id="Shape2DView_nwe0035"  d="M 1.295 -9.16 L 1.295 -9.26 " stroke="#191919" stroke-width="0.35 px" style="stroke-width:0.35;stroke-miterlimit:4;stroke-dasharray:none;fill:none;fill-opacity:1;fill-rule: evenodd"/>
<path id="Shape2DView_nwe0036"  d="M 10.4075 -9.16 L -2.3925 -9.16 " stroke="#191919" stroke-width="0.35 px" style="stroke-width:0.35;stroke-miterlimit:4;stroke-dasharray:none;fill:none;fill-opacity:1;fill-rule: evenodd"/>
<path id="Shape2DView_nwe0037"  d="M -2.3925 -8.96 L -2.3925 -9.16 " stroke="#191919" stroke-width="0.35 px" style="stroke-width:0.35;stroke-miterlimit:4;stroke-dasharray:none;fill:none;fill-opacity:1;fill-rule: evenodd"/>
<path id="Shape2DView_nwe0038"  d="M 10.4075 -8.96 L 10.4075 -9.16 " stroke="#191919" stroke-width="0.35 px" style="stroke-width:0.35;stroke-miterlimit:4;stroke-dasharray:none;fill:none;fill-opacity:1;fill-rule: evenodd"/>
<path id="Shape2DView_nwe0039"  d="M 10.4075 -8.96 L -2.3925 -8.96 " stroke="#191919" stroke-width="0.35 px" style="stroke-width:0.35;stroke-miterlimit:4;stroke-dasharray:none;fill:none;fill-opacity:1;fill-rule: evenodd"/>
<path id="Shape2DView_nwe0040"  d="M 9.31 -0.6 L 9.31 -8.96 " stroke="#191919" stroke-width="0.35 px" style="stroke-width:0.35;stroke-miterlimit:4;stroke-dasharray:none;fill:none;fill-opacity:1;fill-rule: evenodd"/>
<path id="Shape2DView_nwe0041"  d="M 8.165 -2.58 L 8.165 -8.96 " stroke="#191919" stroke-width="0.35 px" style="stroke-width:0.35;stroke-miterlimit:4;stroke-dasharray:none;fill:none;fill-opacity:1;fill-rule: evenodd"/>
<path id="Shape2DView_nwe0042"  d="M 7.02 -0.6 L 7.02 -8.96 " stroke="#191919" stroke-width="0.35 px" style="stroke-width:0.35;stroke-miterlimit:4;stroke-dasharray:none;fill:none;fill-opacity:1;fill-rule: evenodd"/>
<path id="Shape2DView_nwe0043"  d="M 3.585 -2.58 L 3.585 -8.96 " stroke="#191919" stroke-width="0.35 px" style="stroke-width:0.35;stroke-miterlimit:4;stroke-dasharray:none;fill:none;fill-opacity:1;fill-rule: evenodd"/>
<path id="Shape2DView_nwe0044"  d="M 4.73 -0.6 L 4.73 -8.96 " stroke="#191919" stroke-width="0.35 px" style="stroke-width:0.35;stroke-miterlimit:4;stroke-dasharray:none;fill:none;fill-opacity:1;fill-rule: evenodd"/>
<path id="Shape2DView_nwe0045"  d="M 5.875 -2.58 L 5.875 -8.96 " stroke="#191919" stroke-width="0.35 px" style="stroke-width:0.35;stroke-miterlimit:4;stroke-dasharray:none;fill:none;fill-opacity:1;fill-rule: evenodd"/>
<path id="Shape2DView_nwe0046"  d="M 2.44 -0.6 L 2.44 -8.96 " stroke="#191919" stroke-width="0.35 px" style="stroke-width:0.35;stroke-miterlimit:4;stroke-dasharray:none;fill:none;fill-opacity:1;fill-rule: evenodd"/>
<path id="Shape2DView_nwe0047"  d="M -0.995 -2.58 L -0.995 -8.96 " stroke="#191919" stroke-width="0.35 px" style="stroke-width:0.35;stroke-miterlimit:4;stroke-dasharray:none;fill:none;fill-opacity:1;fill-rule: evenodd"/>
<path id="Shape2DView_nwe0048"  d="M 0.15 -0.6 L 0.15 -8.96 " stroke="#191919" stroke-width="0.35 px" style="stroke-width:0.35;stroke-miterlimit:4;stroke-dasharray:none;fill:none;fill-opacity:1;fill-rule: evenodd"/>
<path id="Shape2DView_nwe0049"  d="M 1.295 -2.58 L 1.295 -8.96 " stroke="#191919" stroke-width="0.35 px" style="stroke-width:0.35;stroke-miterlimit:4;stroke-dasharray:none;fill:none;fill-opacity:1;fill-rule: evenodd"/>
<path id="Shape2DView_nwe0050"  d="M 9.31 0.0 L 9.31 -0.00377267406405446 L 9.31 -0.015043252690905784 L 9.31 -0.03367000181497948 L 9.31 -0.05941867925854849 L 9.31 -0.09196548046302955 L 9.31 -0.13090111051918213 L 9.31 -0.17573593128807147 L 9.31 -0.2259061188847598 L 9.31 -0.28078075409079806 L 9.31 -0.3396697565294651 L 9.31 -0.4018325628268997 L 9.31 -0.4664874396262113 L 9.31 -0.5328213143380153 L 9.31 -0.6 " stroke="#191919" stroke-width="0.35 px" style="stroke-width:0.35;stroke-miterlimit:4;stroke-dasharray:none;fill:none;fill-opacity:1;fill-rule: evenodd"/>
<path id="Shape2DView_nwe0051"  d="M 9.31 0.0 A 0.15 0.15 0 0 1 9.01 1.83697e-17" stroke="#191919" stroke-width="0.35 px" style="stroke-width:0.35;stroke-miterlimit:4;stroke-dasharray:none;fill:none;fill-opacity:1;fill-rule: evenodd"/>
<path id="Shape2DView_nwe0052"  d="M 8.165 -1.98 L 8.165 -1.9837726740640544 L 8.165 -1.9950432526909059 L 8.165 -2.0136700018149796 L 8.165 -2.0394186792585485 L 8.165 -2.07196548046303 L 8.165 -2.1109011105191824 L 8.165 -2.1557359312880715 L 8.165 -2.20590611888476 L 8.165 -2.2607807540907983 L 8.165 -2.319669756529465 L 8.165 -2.3818325628269 L 8.165 -2.4464874396262113 L 8.165 -2.5128213143380154 L 8.165 -2.58 " stroke="#191919" stroke-width="0.35 px" style="stroke-width:0.35;stroke-miterlimit:4;stroke-dasharray:none;fill:none;fill-opacity:1;fill-rule: evenodd"/>
<path id="Shape2DView_nwe0053"  d="M 8.165000000000001 -1.98 A 0.15 0.15 0 0 1 7.865 -1.98" stroke="#191919" stroke-width="0.35 px" style="stroke-width:0.35;stroke-miterlimit:4;stroke-dasharray:none;fill:none;fill-opacity:1;fill-rule: evenodd"/>
<path id="Shape2DView_nwe0054"  d="M 7.02 0.0 L 7.02 -0.00377267406405446 L 7.02 -0.015043252690905784 L 7.02 -0.03367000181497948 L 7.02 -0.05941867925854849 L 7.02 -0.09196548046302955 L 7.02 -0.13090111051918213 L 7.02 -0.17573593128807147 L 7.02 -0.2259061188847598 L 7.02 -0.28078075409079806 L 7.02 -0.3396697565294651 L 7.02 -0.4018325628268997 L 7.02 -0.4664874396262113 L 7.02 -0.5328213143380153 L 7.02 -0.6 " stroke="#191919" stroke-width="0.35 px" style="stroke-width:0.35;stroke-miterlimit:4;stroke-dasharray:none;fill:none;fill-opacity:1;fill-rule: evenodd"/>
<path id="Shape2DView_nwe0055"  d="M 7.0200000000000005 0.0 A 0.15 0.15 0 0 1 6.72 1.83697e-17" stroke="#191919" stroke-width="0.35 px" style="stroke-width:0.35;stroke-miterlimit:4;stroke-dasharray:none;fill:none;fill-opacity:1;fill-rule: evenodd"/>
<path id="Shape2DView_nwe0056"  d="M 3.585 -1.98 L 3.585 -1.9837726740640544 L 3.585 -1.9950432526909059 L 3.585 -2.0136700018149796 L 3.585 -2.0394186792585485 L 3.585 -2.07196548046303 L 3.585 -2.1109011105191824 L 3.585 -2.1557359312880715 L 3.585 -2.20590611888476 L 3.585 -2.2607807540907983 L 3.585 -2.319669756529465 L 3.585 -2.3818325628269 L 3.585 -2.4464874396262113 L 3.585 -2.5128213143380154 L 3.585 -2.58 " stroke="#191919" stroke-width="0.35 px" style="stroke-width:0.35;stroke-miterlimit:4;stroke-dasharray:none;fill:none;fill-opacity:1;fill-rule: evenodd"/>
<path id="Shape2DView_nwe0057"  d="M 3.585 -1.98 A 0.15 0.15 0 0 1 3.285 -1.98" stroke="#191919" stroke-width="0.35 px" style="stroke-width:0.35;stroke-miterlimit:4;stroke-dasharray:none;fill:none;fill-opacity:1;fill-rule: evenodd"/>
<path id="Shape2DView_nwe0058"  d="M 4.73 0.0 L 4.73 -0.00377267406405446 L 4.73 -0.015043252690905784 L 4.73 -0.03367000181497948 L 4.73 -0.05941867925854849 L 4.73 -0.09196548046302955 L 4.73 -0.13090111051918213 L 4.73 -0.17573593128807147 L 4.73 -0.2259061188847598 L 4.73 -0.28078075409079806 L 4.73 -0.3396697565294651 L 4.73 -0.4018325628268997 L 4.73 -0.4664874396262113 L 4.73 -0.5328213143380153 L 4.73 -0.6 " stroke="#191919" stroke-width="0.35 px" style="stroke-width:0.35;stroke-miterlimit:4;stroke-dasharray:none;fill:none;fill-opacity:1;fill-rule: evenodd"/>
<path id="Shape2DView_nwe0059"  d="M 4.73 0.0 A 0.15 0.15 0 0 1 4.43 1.83697e-17" stroke="#191919" stroke-width="0.35 px" style="stroke-width:0.35;stroke-miterlimit:4;stroke-dasharray:none;fill:none;fill-opacity:1;fill-rule: evenodd"/>
<path id="Shape2DView_nwe0060"  d="M 5.875 -1.98 L 5.875 -1.9837726740640544 L 5.875 -1.9950432526909059 L 5.875 -2.0136700018149796 L 5.875 -2.0394186792585485 L 5.875 -2.07196548046303 L 5.875 -2.1109011105191824 L 5.875 -2.1557359312880715 L 5.875 -2.20590611888476 L 5.875 -2.2607807540907983 L 5.875 -2.319669756529465 L 5.875 -2.3818325628269 L 5.875 -2.4464874396262113 L 5.875 -2.5128213143380154 L 5.875 -2.58 " stroke="#191919" stroke-width="0.35 px" style="stroke-width:0.35;stroke-miterlimit:4;stroke-dasharray:none;fill:none;fill-opacity:1;fill-rule: evenodd"/>
<path id="Shape2DView_nwe0061"  d="M 5.875 -1.98 A 0.15 0.15 0 0 1 5.575 -1.98" stroke="#191919" stroke-width="0.35 px" style="stroke-width:0.35;stroke-miterlimit:4;stroke-dasharray:none;fill:none;fill-opacity:1;fill-rule: evenodd"/>
<path id="Shape2DView_nwe0062"  d="M 2.44 0.0 L 2.44 -0.00377267406405446 L 2.44 -0.015043252690905784 L 2.44 -0.03367000181497948 L 2.44 -0.05941867925854849 L 2.44 -0.09196548046302955 L 2.44 -0.13090111051918213 L 2.44 -0.17573593128807147 L 2.44 -0.2259061188847598 L 2.44 -0.28078075409079806 L 2.44 -0.3396697565294651 L 2.44 -0.4018325628268997 L 2.44 -0.4664874396262113 L 2.44 -0.5328213143380153 L 2.44 -0.6 " stroke="#191919" stroke-width="0.35 px" style="stroke-width:0.35;stroke-miterlimit:4;stroke-dasharray:none;fill:none;fill-opacity:1;fill-rule: evenodd"/>
<path id="Shape2DView_nwe0063"  d="M 2.44 0.0 A 0.15 0.15 0 0 1 2.14 1.83697e-17" stroke="#191919" stroke-width="0.35 px" style="stroke-width:0.35;stroke-miterlimit:4;stroke-dasharray:none;fill:none;fill-opacity:1;fill-rule: evenodd"/>
<path id="Shape2DView_nwe0064"  d="M -0.995 -1.98 L -0.995 -1.9837726740640544 L -0.995 -1.9950432526909059 L -0.995 -2.0136700018149796 L -0.995 -2.0394186792585485 L -0.995 -2.07196548046303 L -0.995 -2.1109011105191824 L -0.995 -2.1557359312880715 L -0.995 -2.20590611888476 L -0.995 -2.2607807540907983 L -0.995 -2.319669756529465 L -0.995 -2.3818325628269 L -0.995 -2.4464874396262113 L -0.995 -2.5128213143380154 L -0.995 -2.58 " stroke="#191919" stroke-width="0.35 px" style="stroke-width:0.35;stroke-miterlimit:4;stroke-dasharray:none;fill:none;fill-opacity:1;fill-rule: evenodd"/>
<path id="Shape2DView_nwe0065"  d="M -0.995 -1.98 A 0.15 0.15 0 0 1 -1.295 -1.98" stroke="#191919" stroke-width="0.35 px" style="stroke-width:0.35;stroke-miterlimit:4;stroke-dasharray:none;fill:none;fill-opacity:1;fill-rule: evenodd"/>
<path id="Shape2DView_nwe0066"  d="M 0.15 0.0 L 0.15 -0.00377267406405446 L 0.15 -0.015043252690905784 L 0.15 -0.03367000181497948 L 0.15 -0.05941867925854849 L 0.15 -0.09196548046302955 L 0.15 -0.13090111051918213 L 0.15 -0.17573593128807147 L 0.15 -0.2259061188847598 L 0.15 -0.28078075409079806 L 0.15 -0.3396697565294651 L 0.15 -0.4018325628268997 L 0.15 -0.4664874396262113 L 0.15 -0.5328213143380153 L 0.15 -0.6 " stroke="#191919" stroke-width="0.35 px" style="stroke-width:0.35;stroke-miterlimit:4;stroke-dasharray:none;fill:none;fill-opacity:1;fill-rule: evenodd"/>
<path id="Shape2DView_nwe0067"  d="M 0.15 0.0 A 0.15 0.15 0 0 1 -0.15 1.83697e-17" stroke="#191919" stroke-width="0.35 px" style="stroke-width:0.35;stroke-miterlimit:4;stroke-dasharray:none;fill:none;fill-opacity:1;fill-rule: evenodd"/>
<path id="Shape2DView_nwe0068"  d="M 1.295 -1.98 L 1.295 -1.9837726740640544 L 1.295 -1.9950432526909059 L 1.295 -2.0136700018149796 L 1.295 -2.0394186792585485 L 1.295 -2.07196548046303 L 1.295 -2.1109011105191824 L 1.295 -2.1557359312880715 L 1.295 -2.20590611888476 L 1.295 -2.2607807540907983 L 1.295 -2.319669756529465 L 1.295 -2.3818325628269 L 1.295 -2.4464874396262113 L 1.295 -2.5128213143380154 L 1.295 -2.58 " stroke="#191919" stroke-width="0.35 px" style="stroke-width:0.35;stroke-miterlimit:4;stroke-dasharray:none;fill:none;fill-opacity:1;fill-rule: evenodd"/>
<path id="Shape2DView_nwe0069"  d="M 1.295 -1.98 A 0.15 0.15 0 0 1 0.995 -1.98" stroke="#191919" stroke-width="0.35 px" style="stroke-width:0.35;stroke-miterlimit:4;stroke-dasharray:none;fill:none;fill-opacity:1;fill-rule: evenodd"/>
<circle cx="9.16" cy="1.315192911205e-32" r="0.15" stroke="#191919" stroke-width="0.35 px" style="stroke-width:0.35;stroke-miterlimit:4;stroke-dasharray:none;fill:none"/>
<circle cx="8.015" cy="-1.98" r="0.15" stroke="#191919" stroke-width="0.35 px" style="stroke-width:0.35;stroke-miterlimit:4;stroke-dasharray:none;fill:none"/>
<circle cx="6.87" cy="1.315192911205e-32" r="0.15" stroke="#191919" stroke-width="0.35 px" style="stroke-width:0.35;stroke-miterlimit:4;stroke-dasharray:none;fill:none"/>
<circle cx="3.435" cy="-1.98" r="0.15" stroke="#191919" stroke-width="0.35 px" style="stroke-width:0.35;stroke-miterlimit:4;stroke-dasharray:none;fill:none"/>
<circle cx="4.58" cy="1.315192911205e-32" r="0.15" stroke="#191919" stroke-width="0.35 px" style="stroke-width:0.35;stroke-miterlimit:4;stroke-dasharray:none;fill:none"/>
<circle cx="5.725" cy="-1.98" r="0.15" stroke="#191919" stroke-width="0.35 px" style="stroke-width:0.35;stroke-miterlimit:4;stroke-dasharray:none;fill:none"/>
<circle cx="2.29" cy="1.315192911205e-32" r="0.15" stroke="#191919" stroke-width="0.35 px" style="stroke-width:0.35;stroke-miterlimit:4;stroke-dasharray:none;fill:none"/>
<path id="Shape2DView_nwe0077"  d="M 2.14 -3.96 A 0.15 0.15 0 0 1 2.44 -3.96" stroke="#191919" stroke-width="0.35 px" style="stroke-width:0.35;stroke-miterlimit:4;stroke-dasharray:none;fill:none;fill-opacity:1;fill-rule: evenodd"/>
<path id="Shape2DView_nwe0078"  d="M 4.43 -3.96 A 0.15 0.15 0 0 1 4.73 -3.96" stroke="#191919" stroke-width="0.35 px" style="stroke-width:0.35;stroke-miterlimit:4;stroke-dasharray:none;fill:none;fill-opacity:1;fill-rule: evenodd"/>
<path id="Shape2DView_nwe0079"  d="M 9.01 -3.96 A 0.15 0.15 0 0 1 9.31 -3.96" stroke="#191919" stroke-width="0.35 px" style="stroke-width:0.35;stroke-miterlimit:4;stroke-dasharray:none;fill:none;fill-opacity:1;fill-rule: evenodd"/>
<path id="Shape2DView_nwe0080"  d="M 6.72 -3.96 A 0.15 0.15 0 0 1 7.02 -3.96" stroke="#191919" stroke-width="0.35 px" style="stroke-width:0.35;stroke-miterlimit:4;stroke-dasharray:none;fill:none;fill-opacity:1;fill-rule: evenodd"/>
<circle cx="-1.145" cy="-1.98" r="0.15" stroke="#191919" stroke-width="0.35 px" style="stroke-width:0.35;stroke-miterlimit:4;stroke-dasharray:none;fill:none"/>
<circle cx="2.282583637792e-32" cy="1.315192911205e-32" r="0.15" stroke="#191919" stroke-width="0.35 px" style="stroke-width:0.35;stroke-miterlimit:4;stroke-dasharray:none;fill:none"/>
<circle cx="1.145" cy="-1.98" r="0.15" stroke="#191919" stroke-width="0.35 px" style="stroke-width:0.35;stroke-miterlimit:4;stroke-dasharray:none;fill:none"/>
<path id="Shape2DView_nwe0084"  d="M -0.15 -3.96 A 0.15 0.15 0 0 1 0.15 -3.96" stroke="#191919" stroke-width="0.35 px" style="stroke-width:0.35;stroke-miterlimit:4;stroke-dasharray:none;fill:none;fill-opacity:1;fill-rule: evenodd"/>
<path id="Shape2DView_nwe0085"  d="M -3.305077687448 -19.46 L -3.305077687448 -19.41 " stroke="#191919" stroke-width="0.35 px" style="stroke-width:0.35;stroke-miterlimit:4;stroke-dasharray:none;fill:none;fill-opacity:1;fill-rule: evenodd"/>
<path id="Shape2DView_nwe0086"  d="M 11.320077687448 -19.46 L 11.320077687448 -19.41 " stroke="#191919" stroke-width="0.35 px" style="stroke-width:0.35;stroke-miterlimit:4;stroke-dasharray:none;fill:none;fill-opacity:1;fill-rule: evenodd"/>
<path id="Shape2DView_nwe0087"  d="M -3.305077687448 -14.26 L -3.305077687448 -19.41 " stroke="#191919" stroke-width="0.35 px" style="stroke-width:0.35;stroke-miterlimit:4;stroke-dasharray:none;fill:none;fill-opacity:1;fill-rule: evenodd"/>
<path id="Shape2DView_nwe0088"  d="M -4.305077687448 -14.26 L -4.298789897341242 -14.26 L -4.280005599629824 -14.26 L -4.248961017756368 -14.26 L -4.20604655535042 -14.26 L -4.151801886676285 -14.26 L -4.08690916991603 -14.26 L -4.012184468634548 -14.26 L -3.928567489306734 -14.26 L -3.837109763963337 -14.26 L -3.7389614265655586 -14.26 L -3.6353567494031673 -14.26 L -3.527598621404315 -14.26 L -3.4170421635513084 -14.26 L -3.305077687448 -14.26 " stroke="#191919" stroke-width="0.35 px" style="stroke-width:0.35;stroke-miterlimit:4;stroke-dasharray:none;fill:none;fill-opacity:1;fill-rule: evenodd"/>
<path id="Shape2DView_nwe0089"  d="M 11.320077687448 -14.26 L 11.320077687448 -19.41 " stroke="#191919" stroke-width="0.35 px" style="stroke-width:0.35;stroke-miterlimit:4;stroke-dasharray:none;fill:none;fill-opacity:1;fill-rule: evenodd"/>
<path id="Shape2DView_nwe0090"  d="M -3.305077687448 -14.26 L 11.320077687448 -14.26 " stroke="#191919" stroke-width="0.35 px" style="stroke-width:0.35;stroke-miterlimit:4;stroke-dasharray:none;fill:none;fill-opacity:1;fill-rule: evenodd"/>
<path id="Shape2DView_nwe0091"  d="M 11.320077687448 -14.26 L 11.432042163551309 -14.26 L 11.542598621404315 -14.26 L 11.650356749403167 -14.26 L 11.753961426565558 -14.26 L 11.852109763963337 -14.26 L 11.943567489306734 -14.26 L 12.027184468634548 -14.26 L 12.10190916991603 -14.26 L 12.166801886676284 -14.26 L 12.22104655535042 -14.26 L 12.263961017756367 -14.26 L 12.295005599629825 -14.26 L 12.313789897341243 -14.26 L 12.320077687448 -14.26 " stroke="#191919" stroke-width="0.35 px" style="stroke-width:0.35;stroke-miterlimit:4;stroke-dasharray:none;fill:none;fill-opacity:1;fill-rule: evenodd"/>
<path id="Shape2DView_nwe0092"  d="M -3.305077687448 -14.26 L -3.305077687448 -14.192821314338016 L -3.305077687448 -14.126487439626212 L -3.305077687448 -14.0618325628269 L -3.305077687448 -13.999669756529466 L -3.305077687448 -13.940780754090799 L -3.305077687448 -13.88590611888476 L -3.305077687448 -13.835735931288072 L -3.305077687448 -13.790901110519181 L -3.305077687448 -13.75196548046303 L -3.305077687448 -13.719418679258549 L -3.305077687448 -13.69367000181498 L -3.305077687448 -13.675043252690905 L -3.305077687448 -13.663772674064054 L -3.305077687448 -13.66 " stroke="#191919" stroke-width="0.35 px" style="stroke-width:0.35;stroke-miterlimit:4;stroke-dasharray:none;fill:none;fill-opacity:1;fill-rule: evenodd"/>
<path id="Shape2DView_nwe0093"  d="M 11.320077687448 -14.26 L 11.320077687448 -14.192821314338016 L 11.320077687448 -14.126487439626212 L 11.320077687448 -14.0618325628269 L 11.320077687448 -13.999669756529466 L 11.320077687448 -13.940780754090797 L 11.320077687448 -13.88590611888476 L 11.320077687448 -13.835735931288072 L 11.320077687448 -13.790901110519181 L 11.320077687448 -13.75196548046303 L 11.320077687448 -13.719418679258549 L 11.320077687448 -13.69367000181498 L 11.320077687448 -13.675043252690905 L 11.320077687448 -13.663772674064054 L 11.320077687448 -13.66 " stroke="#191919" stroke-width="0.35 px" style="stroke-width:0.35;stroke-miterlimit:4;stroke-dasharray:none;fill:none;fill-opacity:1;fill-rule: evenodd"/>
<path id="Shape2DView_nwe0094"  d="M -10.3925 -13.56 L -10.3925 -13.571196447610332 L -10.3925 -13.582252093395631 L -10.3925 -13.593027906195518 L -10.3925 -13.603388373911756 L -10.3925 -13.613203207651534 L -10.3925 -13.622348980185874 L -10.3925 -13.630710678118655 L -10.3925 -13.638183148246803 L -10.3925 -13.644672419922829 L -10.3925 -13.650096886790243 L -10.3925 -13.654388333030838 L -10.3925 -13.657492791218182 L -10.3925 -13.659371220989325 L -10.3925 -13.66 " stroke="#191919" stroke-width="0.35 px" style="stroke-width:0.35;stroke-miterlimit:4;stroke-dasharray:none;fill:none;fill-opacity:1;fill-rule: evenodd"/>
<path id="Shape2DView_nwe0095"  d="M -10.3925 -13.56 L -10.504464476103308 -13.56 L -10.615020933956314 -13.56 L -10.722779061955167 -13.56 L -10.826383739117558 -13.56 L -10.924532076515337 -13.56 L -11.015989801858733 -13.56 L -11.099606781186548 -13.56 L -11.17433148246803 -13.56 L -11.239224199228284 -13.56 L -11.293468867902419 -13.56 L -11.336383330308367 -13.56 L -11.367427912181824 -13.56 L -11.386212209893243 -13.56 L -11.3925 -13.56 " stroke="#191919" stroke-width="0.35 px" style="stroke-width:0.35;stroke-miterlimit:4;stroke-dasharray:none;fill:none;fill-opacity:1;fill-rule: evenodd"/>
<path id="Shape2DView_nwe0096"  d="M 18.4075 -13.56 L -10.392499999999998 -13.56 " stroke="#191919" stroke-width="0.35 px" style="stroke-width:0.35;stroke-miterlimit:4;stroke-dasharray:none;fill:none;fill-opacity:1;fill-rule: evenodd"/>
<path id="Shape2DView_nwe0097"  d="M 18.4075 -13.56 L 18.4075 -13.571196447610332 L 18.4075 -13.582252093395631 L 18.4075 -13.593027906195518 L 18.4075 -13.603388373911756 L 18.4075 -13.613203207651534 L 18.4075 -13.622348980185874 L 18.4075 -13.630710678118655 L 18.4075 -13.638183148246803 L 18.4075 -13.644672419922829 L 18.4075 -13.650096886790243 L 18.4075 -13.654388333030838 L 18.4075 -13.657492791218182 L 18.4075 -13.659371220989325 L 18.4075 -13.66 " stroke="#191919" stroke-width="0.35 px" style="stroke-width:0.35;stroke-miterlimit:4;stroke-dasharray:none;fill:none;fill-opacity:1;fill-rule: evenodd"/>
<path id="Shape2DView_nwe0098"  d="M 19.4075 -13.56 L 19.40121220989324 -13.56 L 19.38242791218182 -13.56 L 19.351383330308366 -13.56 L 19.30846886790242 -13.56 L 19.254224199228283 -13.56 L 19.189331482468027 -13.56 L 19.114606781186545 -13.56 L 19.030989801858734 -13.56 L 18.939532076515334 -13.56 L 18.841383739117557 -13.56 L 18.737779061955166 -13.56 L 18.630020933956313 -13.56 L 18.519464476103305 -13.56 L 18.4075 -13.56 " stroke="#191919" stroke-width="0.35 px" style="stroke-width:0.35;stroke-miterlimit:4;stroke-dasharray:none;fill:none;fill-opacity:1;fill-rule: evenodd"/>
<path id="Shape2DView_nwe0100"  d="M -10.3925 -13.36 L -10.3925 -13.56 " stroke="#191919" stroke-width="0.35 px" style="stroke-width:0.35;stroke-miterlimit:4;stroke-dasharray:none;fill:none;fill-opacity:1;fill-rule: evenodd"/>
<path id="Shape2DView_nwe0101"  d="M -11.3925 -13.36 L -11.386212209893243 -13.36 L -11.367427912181824 -13.36 L -11.336383330308367 -13.36 L -11.293468867902419 -13.36 L -11.239224199228284 -13.36 L -11.17433148246803 -13.36 L -11.099606781186548 -13.36 L -11.015989801858733 -13.36 L -10.924532076515337 -13.36 L -10.826383739117558 -13.36 L -10.722779061955167 -13.36 L -10.615020933956314 -13.36 L -10.504464476103308 -13.36 L -10.3925 -13.36 " stroke="#191919" stroke-width="0.35 px" style="stroke-width:0.35;stroke-miterlimit:4;stroke-dasharray:none;fill:none;fill-opacity:1;fill-rule: evenodd"/>
<path id="Shape2DView_nwe0102"  d="M -10.3925 -13.36 L 18.4075 -13.36 " stroke="#191919" stroke-width="0.35 px" style="stroke-width:0.35;stroke-miterlimit:4;stroke-dasharray:none;fill:none;fill-opacity:1;fill-rule: evenodd"/>
<path id="Shape2DView_nwe0103"  d="M 18.4075 -13.36 L 18.4075 -13.56 " stroke="#191919" stroke-width="0.35 px" style="stroke-width:0.35;stroke-miterlimit:4;stroke-dasharray:none;fill:none;fill-opacity:1;fill-rule: evenodd"/>
<path id="Shape2DView_nwe0104"  d="M 18.4075 -13.36 L 18.519464476103305 -13.36 L 18.630020933956313 -13.36 L 18.737779061955166 -13.36 L 18.841383739117557 -13.36 L 18.939532076515334 -13.36 L 19.030989801858734 -13.36 L 19.114606781186545 -13.36 L 19.189331482468027 -13.36 L 19.254224199228283 -13.36 L 19.30846886790242 -13.36 L 19.351383330308366 -13.36 L 19.38242791218182 -13.36 L 19.40121220989324 -13.36 L 19.4075 -13.36 " stroke="#191919" stroke-width="0.35 px" style="stroke-width:0.35;stroke-miterlimit:4;stroke-dasharray:none;fill:none;fill-opacity:1;fill-rule: evenodd"/>
<path id="Shape2DView_nwe0105"  d="M -10.3925 -13.26 L -10.3925 -13.260628779010675 L -10.3925 -13.262507208781818 L -10.3925 -13.265611666969162 L -10.3925 -13.269903113209757 L -10.3925 -13.275327580077171 L -10.3925 -13.281816851753197 L -10.3925 -13.289289321881345 L -10.3925 -13.297651019814126 L -10.3925 -13.306796792348466 L -10.3925 -13.316611626088244 L -10.3925 -13.326972093804482 L -10.3925 -13.337747906604369 L -10.3925 -13.348803552389668 L -10.3925 -13.36 " stroke="#191919" stroke-width="0.35 px" style="stroke-width:0.35;stroke-miterlimit:4;stroke-dasharray:none;fill:none;fill-opacity:1;fill-rule: evenodd"/>
<path id="Shape2DView_nwe0106"  d="M 18.4075 -13.26 L 18.4075 -13.260628779010675 L 18.4075 -13.262507208781818 L 18.4075 -13.265611666969162 L 18.4075 -13.269903113209757 L 18.4075 -13.275327580077171 L 18.4075 -13.281816851753197 L 18.4075 -13.289289321881345 L 18.4075 -13.297651019814126 L 18.4075 -13.306796792348466 L 18.4075 -13.316611626088244 L 18.4075 -13.326972093804482 L 18.4075 -13.337747906604369 L 18.4075 -13.348803552389668 L 18.4075 -13.36 " stroke="#191919" stroke-width="0.35 px" style="stroke-width:0.35;stroke-miterlimit:4;stroke-dasharray:none;fill:none;fill-opacity:1;fill-rule: evenodd"/>
<path id="Shape2DView_nwe0107"  d="M 11.9075 -10.26 L 11.901212209893243 -10.26 L 11.882427912181825 -10.26 L 11.851383330308368 -10.26 L 11.80846886790242 -10.26 L 11.754224199228284 -10.26 L 11.689331482468031 -10.26 L 11.614606781186549 -10.26 L 11.530989801858734 -10.26 L 11.439532076515338 -10.26 L 11.341383739117559 -10.26 L 11.237779061955168 -10.26 L 11.130020933956315 -10.26 L 11.019464476103309 -10.26 L 10.9075 -10.26 " stroke="#191919" stroke-width="0.35 px" style="stroke-width:0.35;stroke-miterlimit:4;stroke-dasharray:none;fill:none;fill-opacity:1;fill-rule: evenodd"/>
<path id="Shape2DView_nwe0108"  d="M 10.9075 -10.26 L 10.9075 -13.26 " stroke="#191919" stroke-width="0.35 px" style="stroke-width:0.35;stroke-miterlimit:4;stroke-dasharray:none;fill:none;fill-opacity:1;fill-rule: evenodd"/>
<path id="Shape2DView_nwe0109"  d="M -2.8925 -10.26 L -2.8925 -13.26 " stroke="#191919" stroke-width="0.35 px" style="stroke-width:0.35;stroke-miterlimit:4;stroke-dasharray:none;fill:none;fill-opacity:1;fill-rule: evenodd"/>
<path id="Shape2DView_nwe0110"  d="M 10.9075 -10.26 L -2.8925 -10.26 " stroke="#191919" stroke-width="0.35 px" style="stroke-width:0.35;stroke-miterlimit:4;stroke-dasharray:none;fill:none;fill-opacity:1;fill-rule: evenodd"/>
<path id="Shape2DView_nwe0111"  d="M -2.8925 -10.26 L -3.004464476103308 -10.26 L -3.1150209339563144 -10.26 L -3.2227790619551673 -10.26 L -3.326383739117558 -10.26 L -3.4245320765153364 -10.26 L -3.5159898018587334 -10.26 L -3.5996067811865475 -10.26 L -3.67433148246803 -10.26 L -3.739224199228284 -10.26 L -3.793468867902419 -10.26 L -3.836383330308368 -10.26 L -3.8674279121818236 -10.26 L -3.886212209893243 -10.26 L -3.8925 -10.26 " stroke="#191919" stroke-width="0.35 px" style="stroke-width:0.35;stroke-miterlimit:4;stroke-dasharray:none;fill:none;fill-opacity:1;fill-rule: evenodd"/>
<path id="Shape2DView_nwe0112"  d="M 10.9075 -9.26 L 10.9075 -9.266287790106757 L 10.9075 -9.285072087818175 L 10.9075 -9.316116669691633 L 10.9075 -9.35903113209758 L 10.9075 -9.413275800771716 L 10.9075 -9.47816851753197 L 10.9075 -9.552893218813452 L 10.9075 -9.636510198141266 L 10.9075 -9.727967923484663 L 10.9075 -9.826116260882442 L 10.9075 -9.929720938044833 L 10.9075 -10.037479066043685 L 10.9075 -10.148035523896692 L 10.9075 -10.26 " stroke="#191919" stroke-width="0.35 px" style="stroke-width:0.35;stroke-miterlimit:4;stroke-dasharray:none;fill:none;fill-opacity:1;fill-rule: evenodd"/>
<path id="Shape2DView_nwe0113"  d="M -2.8925 -9.26 L -2.8925 -9.266287790106757 L -2.8925 -9.285072087818175 L -2.8925 -9.316116669691633 L -2.8925 -9.35903113209758 L -2.8925 -9.413275800771716 L -2.8925 -9.47816851753197 L -2.8925 -9.552893218813452 L -2.8925 -9.636510198141266 L -2.8925 -9.727967923484663 L -2.8925 -9.826116260882442 L -2.8925 -9.929720938044833 L -2.8925 -10.037479066043685 L -2.8925 -10.148035523896692 L -2.8925 -10.26 " stroke="#191919" stroke-width="0.35 px" style="stroke-width:0.35;stroke-miterlimit:4;stroke-dasharray:none;fill:none;fill-opacity:1;fill-rule: evenodd"/>
<path id="Shape2DView_nwe0114"  d="M 9.01 -0.6 L 9.013760813172727 -0.6 L 9.024854669814637 -0.5999999999999999 L 9.042725277629795 -0.5999999999999999 L 9.06647652972119 -0.5999999999999999 L 9.094917439132367 -0.5999999999999998 L 9.126621859906553 -0.5999999999999998 L 9.16 -0.5999999999999998 L 9.193378140093447 -0.5999999999999998 L 9.225082560867634 -0.5999999999999998 L 9.253523470278811 -0.5999999999999999 L 9.277274722370205 -0.5999999999999999 L 9.295145330185363 -0.5999999999999999 L 9.306239186827273 -0.6 L 9.31 -0.6 " stroke="#191919" stroke-width="0.35 px" style="stroke-width:0.35;stroke-miterlimit:4;stroke-dasharray:none;fill:none;fill-opacity:1;fill-rule: evenodd"/>
<path id="Shape2DView_nwe0115"  d="M 7.865 -2.58 L 7.868760813172727 -2.58 L 7.8798546698146374 -2.58 L 7.897725277629796 -2.58 L 7.921476529721191 -2.5799999999999996 L 7.949917439132367 -2.5799999999999996 L 7.981621859906554 -2.5799999999999996 L 8.015 -2.5799999999999996 L 8.048378140093448 -2.5799999999999996 L 8.080082560867634 -2.5799999999999996 L 8.108523470278811 -2.5799999999999996 L 8.132274722370205 -2.58 L 8.150145330185364 -2.58 L 8.161239186827274 -2.58 L 8.165000000000001 -2.58 " stroke="#191919" stroke-width="0.35 px" style="stroke-width:0.35;stroke-miterlimit:4;stroke-dasharray:none;fill:none;fill-opacity:1;fill-rule: evenodd"/>
<path id="Shape2DView_nwe0116"  d="M 6.72 -0.6 L 6.723760813172727 -0.6 L 6.734854669814637 -0.5999999999999999 L 6.7527252776297955 -0.5999999999999999 L 6.77647652972119 -0.5999999999999999 L 6.804917439132367 -0.5999999999999998 L 6.836621859906553 -0.5999999999999998 L 6.87 -0.5999999999999998 L 6.903378140093447 -0.5999999999999998 L 6.935082560867634 -0.5999999999999998 L 6.96352347027881 -0.5999999999999999 L 6.987274722370205 -0.5999999999999999 L 7.005145330185363 -0.5999999999999999 L 7.016239186827273 -0.6 L 7.0200000000000005 -0.6 " stroke="#191919" stroke-width="0.35 px" style="stroke-width:0.35;stroke-miterlimit:4;stroke-dasharray:none;fill:none;fill-opacity:1;fill-rule: evenodd"/>
<path id="Shape2DView_nwe0117"  d="M 3.285 -2.58 L 3.2887608131727264 -2.58 L 3.2998546698146374 -2.58 L 3.3177252776297954 -2.58 L 3.34147652972119 -2.5799999999999996 L 3.369917439132366 -2.5799999999999996 L 3.4016218599065526 -2.5799999999999996 L 3.435 -2.5799999999999996 L 3.468378140093447 -2.5799999999999996 L 3.5000825608676336 -2.5799999999999996 L 3.52852347027881 -2.5799999999999996 L 3.5522747223702047 -2.58 L 3.5701453301853627 -2.58 L 3.5812391868272737 -2.58 L 3.585 -2.58 " stroke="#191919" stroke-width="0.35 px" style="stroke-width:0.35;stroke-miterlimit:4;stroke-dasharray:none;fill:none;fill-opacity:1;fill-rule: evenodd"/>
<path id="Shape2DView_nwe0118"  d="M 4.43 -0.6 L 4.433760813172727 -0.6 L 4.444854669814637 -0.5999999999999999 L 4.462725277629795 -0.5999999999999999 L 4.48647652972119 -0.5999999999999999 L 4.5149174391323665 -0.5999999999999998 L 4.546621859906553 -0.5999999999999998 L 4.58 -0.5999999999999998 L 4.613378140093447 -0.5999999999999998 L 4.645082560867634 -0.5999999999999998 L 4.67352347027881 -0.5999999999999999 L 4.697274722370205 -0.5999999999999999 L 4.715145330185363 -0.5999999999999999 L 4.726239186827273 -0.6 L 4.73 -0.6 " stroke="#191919" stroke-width="0.35 px" style="stroke-width:0.35;stroke-miterlimit:4;stroke-dasharray:none;fill:none;fill-opacity:1;fill-rule: evenodd"/>
<path id="Shape2DView_nwe0119"  d="M 5.574999999999999 -2.58 L 5.578760813172726 -2.58 L 5.5898546698146365 -2.58 L 5.607725277629795 -2.58 L 5.63147652972119 -2.5799999999999996 L 5.659917439132366 -2.5799999999999996 L 5.691621859906553 -2.5799999999999996 L 5.725 -2.5799999999999996 L 5.758378140093447 -2.5799999999999996 L 5.790082560867633 -2.5799999999999996 L 5.81852347027881 -2.5799999999999996 L 5.842274722370204 -2.58 L 5.860145330185363 -2.58 L 5.871239186827273 -2.58 L 5.875 -2.58 " stroke="#191919" stroke-width="0.35 px" style="stroke-width:0.35;stroke-miterlimit:4;stroke-dasharray:none;fill:none;fill-opacity:1;fill-rule: evenodd"/>
<path id="Shape2DView_nwe0120"  d="M 2.14 -0.6 L 2.1437608131727264 -0.6 L 2.1548546698146374 -0.5999999999999999 L 2.1727252776297954 -0.5999999999999999 L 2.19647652972119 -0.5999999999999999 L 2.2249174391323665 -0.5999999999999998 L 2.256621859906553 -0.5999999999999998 L 2.29 -0.5999999999999998 L 2.323378140093447 -0.5999999999999998 L 2.3550825608676336 -0.5999999999999998 L 2.38352347027881 -0.5999999999999999 L 2.4072747223702047 -0.5999999999999999 L 2.4251453301853627 -0.5999999999999999 L 2.4362391868272737 -0.6 L 2.44 -0.6 " stroke="#191919" stroke-width="0.35 px" style="stroke-width:0.35;stroke-miterlimit:4;stroke-dasharray:none;fill:none;fill-opacity:1;fill-rule: evenodd"/>
<path id="Shape2DView_nwe0121"  d="M -1.295 -2.58 L -1.2912391868272737 -2.58 L -1.280145330185363 -2.58 L -1.2622747223702044 -2.58 L -1.2385234702788102 -2.5799999999999996 L -1.2100825608676338 -2.5799999999999996 L -1.1783781400934472 -2.5799999999999996 L -1.145 -2.5799999999999996 L -1.1116218599065528 -2.5799999999999996 L -1.0799174391323663 -2.5799999999999996 L -1.05147652972119 -2.5799999999999996 L -1.0277252776297956 -2.58 L -1.0098546698146371 -2.58 L -0.9987608131727265 -2.58 L -0.995 -2.58 " stroke="#191919" stroke-width="0.35 px" style="stroke-width:0.35;stroke-miterlimit:4;stroke-dasharray:none;fill:none;fill-opacity:1;fill-rule: evenodd"/>
<path id="Shape2DView_nwe0122"  d="M -0.15 -0.6 L -0.14623918682727355 -0.6 L -0.13514533018536287 -0.5999999999999999 L -0.11727472237020448 -0.5999999999999999 L -0.09352347027881006 -0.5999999999999999 L -0.06508256086763375 -0.5999999999999998 L -0.033378140093447195 -0.5999999999999998 L -3.6739403974420595e-17 -0.5999999999999998 L 0.033378140093447126 -0.5999999999999998 L 0.06508256086763368 -0.5999999999999998 L 0.09352347027881 -0.5999999999999999 L 0.11727472237020443 -0.5999999999999999 L 0.13514533018536284 -0.5999999999999999 L 0.14623918682727352 -0.6 L 0.15 -0.6 " stroke="#191919" stroke-width="0.35 px" style="stroke-width:0.35;stroke-miterlimit:4;stroke-dasharray:none;fill:none;fill-opacity:1;fill-rule: evenodd"/>
<path id="Shape2DView_nwe0123"  d="M 0.995 -2.58 L 0.9987608131727265 -2.58 L 1.0098546698146371 -2.58 L 1.0277252776297956 -2.58 L 1.0514765297211899 -2.5799999999999996 L 1.0799174391323663 -2.5799999999999996 L 1.1116218599065528 -2.5799999999999996 L 1.145 -2.5799999999999996 L 1.1783781400934472 -2.5799999999999996 L 1.2100825608676338 -2.5799999999999996 L 1.23852347027881 -2.5799999999999996 L 1.2622747223702044 -2.58 L 1.280145330185363 -2.58 L 1.2912391868272735 -2.58 L 1.295 -2.58 " stroke="#191919" stroke-width="0.35 px" style="stroke-width:0.35;stroke-miterlimit:4;stroke-dasharray:none;fill:none;fill-opacity:1;fill-rule: evenodd"/>
<circle cx="9.16" cy="1.315192911205e-32" r="0.15" stroke="#191919" stroke-width="0.35 px" style="stroke-width:0.35;stroke-miterlimit:4;stroke-dasharray:none;fill:none"/>
<circle cx="8.015" cy="-1.98" r="0.15" stroke="#191919" stroke-width="0.35 px" style="stroke-width:0.35;stroke-miterlimit:4;stroke-dasharray:none;fill:none"/>
<circle cx="6.87" cy="1.315192911205e-32" r="0.15" stroke="#191919" stroke-width="0.35 px" style="stroke-width:0.35;stroke-miterlimit:4;stroke-dasharray:none;fill:none"/>
<circle cx="3.435" cy="-1.98" r="0.15" stroke="#191919" stroke-width="0.35 px" style="stroke-width:0.35;stroke-miterlimit:4;stroke-dasharray:none;fill:none"/>
<circle cx="4.58" cy="1.315192911205e-32" r="0.15" stroke="#191919" stroke-width="0.35 px" style="stroke-width:0.35;stroke-miterlimit:4;stroke-dasharray:none;fill:none"/>
<circle cx="5.725" cy="-1.98" r="0.15" stroke="#191919" stroke-width="0.35 px" style="stroke-width:0.35;stroke-miterlimit:4;stroke-dasharray:none;fill:none"/>
<circle cx="2.29" cy="1.315192911205e-32" r="0.15" stroke="#191919" stroke-width="0.35 px" style="stroke-width:0.35;stroke-miterlimit:4;stroke-dasharray:none;fill:none"/>
<circle cx="-1.145" cy="-1.98" r="0.15" stroke="#191919" stroke-width="0.35 px" style="stroke-width:0.35;stroke-miterlimit:4;stroke-dasharray:none;fill:none"/>
<circle cx="2.282583637792e-32" cy="1.315192911205e-32" r="0.15" stroke="#191919" stroke-width="0.35 px" style="stroke-width:0.35;stroke-miterlimit:4;stroke-dasharray:none;fill:none"/>
<circle cx="1.145" cy="-1.98" r="0.15" stroke="#191919" stroke-width="0.35 px" style="stroke-width:0.35;stroke-miterlimit:4;stroke-dasharray:none;fill:none"/>
<path id="Shape2DView_nwe0139"  d="M -4.255077687448022 -19.460000000000022 L -4.305077687448 -19.41 " stroke="#191919" stroke-width="0.35 px" style="stroke-width:0.35;stroke-miterlimit:4;stroke-dasharray:none;fill:none;fill-opacity:1;fill-rule: evenodd"/>
<path id="Shape2DView_nwe0140"  d="M 12.270077687448023 -19.460000000000022 L 12.320077687448 -19.41 " stroke="#191919" stroke-width="0.35 px" style="stroke-width:0.35;stroke-miterlimit:4;stroke-dasharray:none;fill:none;fill-opacity:1;fill-rule: evenodd"/>
<path id="Shape2DView_nwe0141"  d="M -4.305077687448 -14.26 L -4.305077687448 -19.410000000000004 " stroke="#191919" stroke-width="0.35 px" style="stroke-width:0.35;stroke-miterlimit:4;stroke-dasharray:none;fill:none;fill-opacity:1;fill-rule: evenodd"/>
<path id="Shape2DView_nwe0142"  d="M 12.320077687448 -14.26 L 12.320077687448 -19.410000000000004 " stroke="#191919" stroke-width="0.35 px" style="stroke-width:0.35;stroke-miterlimit:4;stroke-dasharray:none;fill:none;fill-opacity:1;fill-rule: evenodd"/>
<path id="Shape2DView_nwe0143"  d="M -4.305077687448 -14.26 Q -4.31282566580602 -14.192259618652612 -4.32057364416404 -14.124519237305226 Q -4.349933661792861 -14.0477335164221 -4.379293679421681 -13.970947795538972 Q -4.55741204615847 -13.672129505490124 -4.905077687448 -13.66 " stroke="#191919" stroke-width="0.35 px" style="stroke-width:0.35;stroke-miterlimit:4;stroke-dasharray:none;fill:none;fill-opacity:1;fill-rule: evenodd"/>
<path id="Shape2DView_nwe0144"  d="M 12.320077687448 -14.26 Q 12.327825665124548 -14.192259618494655 12.335573642801098 -14.124519236989311 Q 12.366076863002707 -14.045673246045574 12.39658008320432 -13.96682725510183 Q 12.575319367811666 -13.671785780527214 12.920077687448002 -13.66 " stroke="#191919" stroke-width="0.35 px" style="stroke-width:0.35;stroke-miterlimit:4;stroke-dasharray:none;fill:none;fill-opacity:1;fill-rule: evenodd"/>
<path id="Shape2DView_nwe0145"  d="M 9.01 -9.16 L 9.01 -9.26 " stroke="#191919" stroke-width="0.35 px" style="stroke-width:0.35;stroke-miterlimit:4;stroke-dasharray:none;fill:none;fill-opacity:1;fill-rule: evenodd"/>
<path id="Shape2DView_nwe0146"  d="M 7.865 -9.16 L 7.865 -9.26 " stroke="#191919" stroke-width="0.35 px" style="stroke-width:0.35;stroke-miterlimit:4;stroke-dasharray:none;fill:none;fill-opacity:1;fill-rule: evenodd"/>
<path id="Shape2DView_nwe0147"  d="M 6.72 -9.16 L 6.72 -9.26 " stroke="#191919" stroke-width="0.35 px" style="stroke-width:0.35;stroke-miterlimit:4;stroke-dasharray:none;fill:none;fill-opacity:1;fill-rule: evenodd"/>
<path id="Shape2DView_nwe0148"  d="M 3.285 -9.16 L 3.285 -9.26 " stroke="#191919" stroke-width="0.35 px" style="stroke-width:0.35;stroke-miterlimit:4;stroke-dasharray:none;fill:none;fill-opacity:1;fill-rule: evenodd"/>
<path id="Shape2DView_nwe0149"  d="M 4.43 -9.16 L 4.43 -9.26 " stroke="#191919" stroke-width="0.35 px" style="stroke-width:0.35;stroke-miterlimit:4;stroke-dasharray:none;fill:none;fill-opacity:1;fill-rule: evenodd"/>
<path id="Shape2DView_nwe0150"  d="M 5.574999999999999 -9.16 L 5.574999999999999 -9.26 " stroke="#191919" stroke-width="0.35 px" style="stroke-width:0.35;stroke-miterlimit:4;stroke-dasharray:none;fill:none;fill-opacity:1;fill-rule: evenodd"/>
<path id="Shape2DView_nwe0151"  d="M 2.14 -9.16 L 2.14 -9.26 " stroke="#191919" stroke-width="0.35 px" style="stroke-width:0.35;stroke-miterlimit:4;stroke-dasharray:none;fill:none;fill-opacity:1;fill-rule: evenodd"/>
<path id="Shape2DView_nwe0152"  d="M -1.295 -9.16 L -1.295 -9.26 " stroke="#191919" stroke-width="0.35 px" style="stroke-width:0.35;stroke-miterlimit:4;stroke-dasharray:none;fill:none;fill-opacity:1;fill-rule: evenodd"/>
<path id="Shape2DView_nwe0153"  d="M -0.15 -9.16 L -0.15 -9.26 " stroke="#191919" stroke-width="0.35 px" style="stroke-width:0.35;stroke-miterlimit:4;stroke-dasharray:none;fill:none;fill-opacity:1;fill-rule: evenodd"/>
<path id="Shape2DView_nwe0154"  d="M 0.995 -9.16 L 0.995 -9.26 " stroke="#191919" stroke-width="0.35 px" style="stroke-width:0.35;stroke-miterlimit:4;stroke-dasharray:none;fill:none;fill-opacity:1;fill-rule: evenodd"/>
<path id="Shape2DView_nwe0155"  d="M 9.01 -0.6 L 9.01 -8.96 " stroke="#191919" stroke-width="0.35 px" style="stroke-width:0.35;stroke-miterlimit:4;stroke-dasharray:none;fill:none;fill-opacity:1;fill-rule: evenodd"/>
<path id="Shape2DView_nwe0156"  d="M 7.865 -2.58 L 7.865 -8.96 " stroke="#191919" stroke-width="0.35 px" style="stroke-width:0.35;stroke-miterlimit:4;stroke-dasharray:none;fill:none;fill-opacity:1;fill-rule: evenodd"/>
<path id="Shape2DView_nwe0157"  d="M 6.72 -0.6 L 6.72 -8.96 " stroke="#191919" stroke-width="0.35 px" style="stroke-width:0.35;stroke-miterlimit:4;stroke-dasharray:none;fill:none;fill-opacity:1;fill-rule: evenodd"/>
<path id="Shape2DView_nwe0158"  d="M 3.285 -2.58 L 3.285 -8.96 " stroke="#191919" stroke-width="0.35 px" style="stroke-width:0.35;stroke-miterlimit:4;stroke-dasharray:none;fill:none;fill-opacity:1;fill-rule: evenodd"/>
<path id="Shape2DView_nwe0159"  d="M 4.43 -0.6 L 4.43 -8.96 " stroke="#191919" stroke-width="0.35 px" style="stroke-width:0.35;stroke-miterlimit:4;stroke-dasharray:none;fill:none;fill-opacity:1;fill-rule: evenodd"/>
<path id="Shape2DView_nwe0160"  d="M 5.574999999999999 -2.58 L 5.574999999999999 -8.96 " stroke="#191919" stroke-width="0.35 px" style="stroke-width:0.35;stroke-miterlimit:4;stroke-dasharray:none;fill:none;fill-opacity:1;fill-rule: evenodd"/>
<path id="Shape2DView_nwe0161"  d="M 2.14 -0.6 L 2.14 -8.96 " stroke="#191919" stroke-width="0.35 px" style="stroke-width:0.35;stroke-miterlimit:4;stroke-dasharray:none;fill:none;fill-opacity:1;fill-rule: evenodd"/>
<path id="Shape2DView_nwe0162"  d="M -1.295 -2.58 L -1.295 -8.96 " stroke="#191919" stroke-width="0.35 px" style="stroke-width:0.35;stroke-miterlimit:4;stroke-dasharray:none;fill:none;fill-opacity:1;fill-rule: evenodd"/>
<path id="Shape2DView_nwe0163"  d="M -0.15 -0.6 L -0.15 -8.96 " stroke="#191919" stroke-width="0.35 px" style="stroke-width:0.35;stroke-miterlimit:4;stroke-dasharray:none;fill:none;fill-opacity:1;fill-rule: evenodd"/>
<path id="Shape2DView_nwe0164"  d="M 0.995 -2.58 L 0.995 -8.96 " stroke="#191919" stroke-width="0.35 px" style="stroke-width:0.35;stroke-miterlimit:4;stroke-dasharray:none;fill:none;fill-opacity:1;fill-rule: evenodd"/>
<path id="Shape2DView_nwe0165"  d="M 9.01 -0.6 Q 9.010000000000002 -0.5345570261009451 9.01 -0.4691140522018902 Q 9.009999999999998 -0.38797065365185934 9.01 -0.3068272551018285 Q 9.010000000000002 -0.011785780527218043 9.01 0.0 " stroke="#191919" stroke-width="0.35 px" style="stroke-width:0.35;stroke-miterlimit:4;stroke-dasharray:none;fill:none;fill-opacity:1;fill-rule: evenodd"/>
<path id="Shape2DView_nwe0166"  d="M 7.865 -2.58 Q 7.864999999999999 -2.512259618316936 7.865 -2.444519236633872 Q 7.865000000000001 -2.3636220177872147 7.865 -2.2827247989405572 Q 7.864999999999999 -1.9914492166312747 7.865 -1.98 " stroke="#191919" stroke-width="0.35 px" style="stroke-width:0.35;stroke-miterlimit:4;stroke-dasharray:none;fill:none;fill-opacity:1;fill-rule: evenodd"/>
<path id="Shape2DView_nwe0167"  d="M 6.72 -0.6 Q 6.720000000000001 -0.5345570261009451 6.72 -0.4691140522018902 Q 6.719999999999999 -0.38797065365185934 6.72 -0.3068272551018285 Q 6.720000000000001 -0.011785780527218043 6.72 0.0 " stroke="#191919" stroke-width="0.35 px" style="stroke-width:0.35;stroke-miterlimit:4;stroke-dasharray:none;fill:none;fill-opacity:1;fill-rule: evenodd"/>
<path id="Shape2DView_nwe0168"  d="M 3.285 -2.58 Q 3.285 -2.512259618316936 3.285 -2.444519236633872 Q 3.285 -2.3636220177872147 3.285 -2.2827247989405572 Q 3.285 -1.9914492166312747 3.285 -1.98 " stroke="#191919" stroke-width="0.35 px" style="stroke-width:0.35;stroke-miterlimit:4;stroke-dasharray:none;fill:none;fill-opacity:1;fill-rule: evenodd"/>
<path id="Shape2DView_nwe0169"  d="M 4.43 -0.6 Q 4.43 -0.5345570261009451 4.43 -0.4691140522018902 Q 4.43 -0.38797065365185934 4.43 -0.3068272551018285 Q 4.43 -0.011785780527218043 4.43 0.0 " stroke="#191919" stroke-width="0.35 px" style="stroke-width:0.35;stroke-miterlimit:4;stroke-dasharray:none;fill:none;fill-opacity:1;fill-rule: evenodd"/>
<path id="Shape2DView_nwe0170"  d="M 5.574999999999999 -2.58 Q 5.574999999999999 -2.512259618316936 5.574999999999999 -2.444519236633872 Q 5.574999999999999 -2.3636220177872147 5.574999999999999 -2.2827247989405572 Q 5.574999999999999 -1.9914492166312747 5.574999999999999 -1.98 " stroke="#191919" stroke-width="0.35 px" style="stroke-width:0.35;stroke-miterlimit:4;stroke-dasharray:none;fill:none;fill-opacity:1;fill-rule: evenodd"/>
<path id="Shape2DView_nwe0171"  d="M 2.14 -0.6 Q 2.1399999999999997 -0.5345570261009451 2.14 -0.4691140522018902 Q 2.1399999999999997 -0.38797065365185934 2.14 -0.3068272551018285 Q 2.1399999999999997 -0.011785780527218043 2.14 0.0 " stroke="#191919" stroke-width="0.35 px" style="stroke-width:0.35;stroke-miterlimit:4;stroke-dasharray:none;fill:none;fill-opacity:1;fill-rule: evenodd"/>
<path id="Shape2DView_nwe0172"  d="M -1.295 -2.58 Q -1.295 -2.512259618316936 -1.295 -2.444519236633872 Q -1.295 -2.3636220177872147 -1.295 -2.2827247989405572 Q -1.295 -1.9914492166312747 -1.295 -1.98 " stroke="#191919" stroke-width="0.35 px" style="stroke-width:0.35;stroke-miterlimit:4;stroke-dasharray:none;fill:none;fill-opacity:1;fill-rule: evenodd"/>
<path id="Shape2DView_nwe0173"  d="M -0.15 -0.6 Q -0.14999999999999997 -0.5345570261009451 -0.15 -0.4691140522018902 Q -0.14999999999999997 -0.38797065365185934 -0.15 -0.3068272551018285 Q -0.14999999999999997 -0.011785780527218043 -0.15 0.0 " stroke="#191919" stroke-width="0.35 px" style="stroke-width:0.35;stroke-miterlimit:4;stroke-dasharray:none;fill:none;fill-opacity:1;fill-rule: evenodd"/>
<path id="Shape2DView_nwe0174"  d="M 0.995 -2.58 Q 0.9950000000000001 -2.512259618316936 0.9950000000000001 -2.444519236633872 Q 0.9950000000000001 -2.3636220177872147 0.995 -2.2827247989405572 Q 0.9949999999999999 -1.9914492166312747 0.995 -1.98 " stroke="#191919" stroke-width="0.35 px" style="stroke-width:0.35;stroke-miterlimit:4;stroke-dasharray:none;fill:none;fill-opacity:1;fill-rule: evenodd"/>
<title>b'Shape2DView'</title>
</g>
<g id="Rectangle" transform="translate(11.700500,1.308000) scale(1,-1)">
<rect fill="#ff0000" id="origin" width="1" height="1" x="0" y="0" />
<title>b'Rectangle'</title>
</g>
</svg>