<?xml version="1.0"?>
<!DOCTYPE svg PUBLIC "-//W3C//DTD SVG 1.1//EN" "http://www.w3.org/Graphics/SVG/1.1/DTD/svg11.dtd">
<svg width="54.162mm" height="20.702000000000044mm" viewBox="0 0 54.162 20.702000000000044" xmlns="http://www.w3.org/2000/svg" version="1.1">
<g id="Shape2DView" transform="translate(43.701000,1.531000) scale(1,-1)">
<circle cx="-33.24" cy="2.850275026918e-33" r="0.32" stroke="#191919" stroke-width="0.35 px" style="stroke-width:0.35;stroke-miterlimit:4;stroke-dasharray:none;fill:none"/>
<path id="Shape2DView_nwe0001"  d="M -32.92 0.0 L -32.92 -0.008048371336649485 L -32.92 -0.032092272407265865 L -32.92 -0.07182933720528961 L -32.92 -0.12675984908490356 L -32.92 -0.19619302498779634 L -32.92 -0.2792557024409219 L -32.92 -0.37490332008121907 L -32.92 -0.48193305362082106 L -32.92 -0.5989989420603692 L -32.92 -0.7246288139295255 L -32.92 -0.857242800697386 L -32.92 -0.9951732045359175 L -32.92 -1.1366854705877658 L -32.92 -1.28 " stroke="#191919" stroke-width="0.35 px" style="stroke-width:0.35;stroke-miterlimit:4;stroke-dasharray:none;fill:none;fill-opacity:1;fill-rule: evenodd"/>
<path id="Shape2DView_nwe0002"  d="M -32.92 0.0 A 0.32 0.32 0 0 1 -33.56 3.91887e-17" stroke="#191919" stroke-width="0.35 px" style="stroke-width:0.35;stroke-miterlimit:4;stroke-dasharray:none;fill:none;fill-opacity:1;fill-rule: evenodd"/>
<path id="Shape2DView_nwe0003"  d="M -32.92 -1.28 L -32.92 -7.84 " stroke="#191919" stroke-width="0.35 px" style="stroke-width:0.35;stroke-miterlimit:4;stroke-dasharray:none;fill:none;fill-opacity:1;fill-rule: evenodd"/>
<path id="Shape2DView_nwe0004"  d="M 2.43 -7.84 L -35.67 -7.84 " stroke="#191919" stroke-width="0.35 px" style="stroke-width:0.35;stroke-miterlimit:4;stroke-dasharray:none;fill:none;fill-opacity:1;fill-rule: evenodd"/>
<path id="Shape2DView_nwe0005"  d="M -35.67 -7.84 L -35.67 -8.14 " stroke="#191919" stroke-width="0.35 px" style="stroke-width:0.35;stroke-miterlimit:4;stroke-dasharray:none;fill:none;fill-opacity:1;fill-rule: evenodd"/>
<path id="Shape2DView_nwe0006"  d="M 2.43 -7.84 L 2.43 -8.14 " stroke="#191919" stroke-width="0.35 px" style="stroke-width:0.35;stroke-miterlimit:4;stroke-dasharray:none;fill:none;fill-opacity:1;fill-rule: evenodd"/>
<path id="Shape2DView_nwe0007"  d="M -2.45 -1.28 L -2.45 -7.84 " stroke="#191919" stroke-width="0.35 px" style="stroke-width:0.35;stroke-miterlimit:4;stroke-dasharray:none;fill:none;fill-opacity:1;fill-rule: evenodd"/>
<path id="Shape2DView_nwe0008"  d="M -5.22 -1.28 L -5.22 -7.84 " stroke="#191919" stroke-width="0.35 px" style="stroke-width:0.35;stroke-miterlimit:4;stroke-dasharray:none;fill:none;fill-opacity:1;fill-rule: evenodd"/>
<path id="Shape2DView_nwe0009"  d="M -7.99 -1.28 L -7.99 -7.84 " stroke="#191919" stroke-width="0.35 px" style="stroke-width:0.35;stroke-miterlimit:4;stroke-dasharray:none;fill:none;fill-opacity:1;fill-rule: evenodd"/>
<path id="Shape2DView_nwe0010"  d="M -16.3 -1.28 L -16.3 -7.84 " stroke="#191919" stroke-width="0.35 px" style="stroke-width:0.35;stroke-miterlimit:4;stroke-dasharray:none;fill:none;fill-opacity:1;fill-rule: evenodd"/>
<path id="Shape2DView_nwe0011"  d="M -13.53 -1.28 L -13.53 -7.84 " stroke="#191919" stroke-width="0.35 px" style="stroke-width:0.35;stroke-miterlimit:4;stroke-dasharray:none;fill:none;fill-opacity:1;fill-rule: evenodd"/>
<path id="Shape2DView_nwe0012"  d="M -10.76 -1.28 L -10.76 -7.84 " stroke="#191919" stroke-width="0.35 px" style="stroke-width:0.35;stroke-miterlimit:4;stroke-dasharray:none;fill:none;fill-opacity:1;fill-rule: evenodd"/>
<path id="Shape2DView_nwe0013"  d="M -21.84 -1.28 L -21.84 -7.84 " stroke="#191919" stroke-width="0.35 px" style="stroke-width:0.35;stroke-miterlimit:4;stroke-dasharray:none;fill:none;fill-opacity:1;fill-rule: evenodd"/>
<path id="Shape2DView_nwe0014"  d="M -19.07 -1.28 L -19.07 -7.84 " stroke="#191919" stroke-width="0.35 px" style="stroke-width:0.35;stroke-miterlimit:4;stroke-dasharray:none;fill:none;fill-opacity:1;fill-rule: evenodd"/>
<path id="Shape2DView_nwe0015"  d="M -23.225 -4.12 L -23.225 -7.84 " stroke="#191919" stroke-width="0.35 px" style="stroke-width:0.35;stroke-miterlimit:4;stroke-dasharray:none;fill:none;fill-opacity:1;fill-rule: evenodd"/>
<path id="Shape2DView_nwe0016"  d="M -20.455 -4.12 L -20.455 -7.84 " stroke="#191919" stroke-width="0.35 px" style="stroke-width:0.35;stroke-miterlimit:4;stroke-dasharray:none;fill:none;fill-opacity:1;fill-rule: evenodd"/>
<path id="Shape2DView_nwe0017"  d="M -14.915 -4.12 L -14.915 -7.84 " stroke="#191919" stroke-width="0.35 px" style="stroke-width:0.35;stroke-miterlimit:4;stroke-dasharray:none;fill:none;fill-opacity:1;fill-rule: evenodd"/>
<path id="Shape2DView_nwe0018"  d="M -17.685 -4.12 L -17.685 -7.84 " stroke="#191919" stroke-width="0.35 px" style="stroke-width:0.35;stroke-miterlimit:4;stroke-dasharray:none;fill:none;fill-opacity:1;fill-rule: evenodd"/>
<path id="Shape2DView_nwe0019"  d="M -3.835 -4.12 L -3.835 -7.84 " stroke="#191919" stroke-width="0.35 px" style="stroke-width:0.35;stroke-miterlimit:4;stroke-dasharray:none;fill:none;fill-opacity:1;fill-rule: evenodd"/>
<path id="Shape2DView_nwe0020"  d="M -6.605 -4.12 L -6.605 -7.84 " stroke="#191919" stroke-width="0.35 px" style="stroke-width:0.35;stroke-miterlimit:4;stroke-dasharray:none;fill:none;fill-opacity:1;fill-rule: evenodd"/>
<path id="Shape2DView_nwe0021"  d="M -12.145 -4.12 L -12.145 -7.84 " stroke="#191919" stroke-width="0.35 px" style="stroke-width:0.35;stroke-miterlimit:4;stroke-dasharray:none;fill:none;fill-opacity:1;fill-rule: evenodd"/>
<path id="Shape2DView_nwe0022"  d="M -9.375 -4.12 L -9.375 -7.84 " stroke="#191919" stroke-width="0.35 px" style="stroke-width:0.35;stroke-miterlimit:4;stroke-dasharray:none;fill:none;fill-opacity:1;fill-rule: evenodd"/>
<path id="Shape2DView_nwe0023"  d="M 0.32 -1.28 L 0.32 -7.84 " stroke="#191919" stroke-width="0.35 px" style="stroke-width:0.35;stroke-miterlimit:4;stroke-dasharray:none;fill:none;fill-opacity:1;fill-rule: evenodd"/>
<path id="Shape2DView_nwe0024"  d="M -1.065 -4.12 L -1.065 -7.84 " stroke="#191919" stroke-width="0.35 px" style="stroke-width:0.35;stroke-miterlimit:4;stroke-dasharray:none;fill:none;fill-opacity:1;fill-rule: evenodd"/>
<path id="Shape2DView_nwe0025"  d="M -27.38 -1.28 L -27.38 -7.84 " stroke="#191919" stroke-width="0.35 px" style="stroke-width:0.35;stroke-miterlimit:4;stroke-dasharray:none;fill:none;fill-opacity:1;fill-rule: evenodd"/>
<path id="Shape2DView_nwe0026"  d="M -24.61 -1.28 L -24.61 -7.84 " stroke="#191919" stroke-width="0.35 px" style="stroke-width:0.35;stroke-miterlimit:4;stroke-dasharray:none;fill:none;fill-opacity:1;fill-rule: evenodd"/>
<path id="Shape2DView_nwe0027"  d="M -25.995 -4.12 L -25.995 -7.84 " stroke="#191919" stroke-width="0.35 px" style="stroke-width:0.35;stroke-miterlimit:4;stroke-dasharray:none;fill:none;fill-opacity:1;fill-rule: evenodd"/>
<path id="Shape2DView_nwe0028"  d="M -30.15 -1.28 L -30.15 -7.84 " stroke="#191919" stroke-width="0.35 px" style="stroke-width:0.35;stroke-miterlimit:4;stroke-dasharray:none;fill:none;fill-opacity:1;fill-rule: evenodd"/>
<path id="Shape2DView_nwe0029"  d="M -28.765 -4.12 L -28.765 -7.84 " stroke="#191919" stroke-width="0.35 px" style="stroke-width:0.35;stroke-miterlimit:4;stroke-dasharray:none;fill:none;fill-opacity:1;fill-rule: evenodd"/>
<path id="Shape2DView_nwe0030"  d="M -31.535 -4.12 L -31.535 -7.84 " stroke="#191919" stroke-width="0.35 px" style="stroke-width:0.35;stroke-miterlimit:4;stroke-dasharray:none;fill:none;fill-opacity:1;fill-rule: evenodd"/>
<path id="Shape2DView_nwe0031"  d="M 2.93 -8.14 L -36.17 -8.14 " stroke="#191919" stroke-width="0.35 px" style="stroke-width:0.35;stroke-miterlimit:4;stroke-dasharray:none;fill:none;fill-opacity:1;fill-rule: evenodd"/>
<path id="Shape2DView_nwe0032"  d="M -2.45 0.0 L -2.45 -0.008048371336649485 L -2.45 -0.032092272407265865 L -2.45 -0.07182933720528961 L -2.45 -0.12675984908490356 L -2.45 -0.19619302498779634 L -2.45 -0.2792557024409219 L -2.45 -0.37490332008121907 L -2.45 -0.48193305362082106 L -2.45 -0.5989989420603692 L -2.45 -0.7246288139295255 L -2.45 -0.857242800697386 L -2.45 -0.9951732045359175 L -2.45 -1.1366854705877658 L -2.45 -1.28 " stroke="#191919" stroke-width="0.35 px" style="stroke-width:0.35;stroke-miterlimit:4;stroke-dasharray:none;fill:none;fill-opacity:1;fill-rule: evenodd"/>
<path id="Shape2DView_nwe0033"  d="M -2.45 0.0 A 0.32 0.32 0 0 1 -3.09 3.91887e-17" stroke="#191919" stroke-width="0.35 px" style="stroke-width:0.35;stroke-miterlimit:4;stroke-dasharray:none;fill:none;fill-opacity:1;fill-rule: evenodd"/>
<path id="Shape2DView_nwe0034"  d="M -5.22 0.0 L -5.22 -0.008048371336649485 L -5.22 -0.032092272407265865 L -5.22 -0.07182933720528961 L -5.22 -0.12675984908490356 L -5.22 -0.19619302498779634 L -5.22 -0.2792557024409219 L -5.22 -0.37490332008121907 L -5.22 -0.48193305362082106 L -5.22 -0.5989989420603692 L -5.22 -0.7246288139295255 L -5.22 -0.857242800697386 L -5.22 -0.9951732045359175 L -5.22 -1.1366854705877658 L -5.22 -1.28 " stroke="#191919" stroke-width="0.35 px" style="stroke-width:0.35;stroke-miterlimit:4;stroke-dasharray:none;fill:none;fill-opacity:1;fill-rule: evenodd"/>
<path id="Shape2DView_nwe0035"  d="M -5.22 0.0 A 0.32 0.32 0 0 1 -5.86 3.91887e-17" stroke="#191919" stroke-width="0.35 px" style="stroke-width:0.35;stroke-miterlimit:4;stroke-dasharray:none;fill:none;fill-opacity:1;fill-rule: evenodd"/>
<path id="Shape2DView_nwe0036"  d="M -7.99 0.0 L -7.99 -0.008048371336649485 L -7.99 -0.032092272407265865 L -7.99 -0.07182933720528961 L -7.99 -0.12675984908490356 L -7.99 -0.19619302498779634 L -7.99 -0.2792557024409219 L -7.99 -0.37490332008121907 L -7.99 -0.48193305362082106 L -7.99 -0.5989989420603692 L -7.99 -0.7246288139295255 L -7.99 -0.857242800697386 L -7.99 -0.9951732045359175 L -7.99 -1.1366854705877658 L -7.99 -1.28 " stroke="#191919" stroke-width="0.35 px" style="stroke-width:0.35;stroke-miterlimit:4;stroke-dasharray:none;fill:none;fill-opacity:1;fill-rule: evenodd"/>
<path id="Shape2DView_nwe0037"  d="M -7.99 0.0 A 0.32 0.32 0 0 1 -8.63 3.91887e-17" stroke="#191919" stroke-width="0.35 px" style="stroke-width:0.35;stroke-miterlimit:4;stroke-dasharray:none;fill:none;fill-opacity:1;fill-rule: evenodd"/>
<path id="Shape2DView_nwe0038"  d="M -16.3 0.0 L -16.3 -0.008048371336649485 L -16.3 -0.032092272407265865 L -16.3 -0.07182933720528961 L -16.3 -0.12675984908490356 L -16.3 -0.19619302498779634 L -16.3 -0.2792557024409219 L -16.3 -0.37490332008121907 L -16.3 -0.48193305362082106 L -16.3 -0.5989989420603692 L -16.3 -0.7246288139295255 L -16.3 -0.857242800697386 L -16.3 -0.9951732045359175 L -16.3 -1.1366854705877658 L -16.3 -1.28 " stroke="#191919" stroke-width="0.35 px" style="stroke-width:0.35;stroke-miterlimit:4;stroke-dasharray:none;fill:none;fill-opacity:1;fill-rule: evenodd"/>
<path id="Shape2DView_nwe0039"  d="M -16.3 0.0 A 0.32 0.32 0 0 1 -16.94 3.91887e-17" stroke="#191919" stroke-width="0.35 px" style="stroke-width:0.35;stroke-miterlimit:4;stroke-dasharray:none;fill:none;fill-opacity:1;fill-rule: evenodd"/>
<path id="Shape2DView_nwe0040"  d="M -13.53 0.0 L -13.53 -0.008048371336649485 L -13.53 -0.032092272407265865 L -13.53 -0.07182933720528961 L -13.53 -0.12675984908490356 L -13.53 -0.19619302498779634 L -13.53 -0.2792557024409219 L -13.53 -0.37490332008121907 L -13.53 -0.48193305362082106 L -13.53 -0.5989989420603692 L -13.53 -0.7246288139295255 L -13.53 -0.857242800697386 L -13.53 -0.9951732045359175 L -13.53 -1.1366854705877658 L -13.53 -1.28 " stroke="#191919" stroke-width="0.35 px" style="stroke-width:0.35;stroke-miterlimit:4;stroke-dasharray:none;fill:none;fill-opacity:1;fill-rule: evenodd"/>
<path id="Shape2DView_nwe0041"  d="M -13.53 0.0 A 0.32 0.32 0 0 1 -14.17 3.91887e-17" stroke="#191919" stroke-width="0.35 px" style="stroke-width:0.35;stroke-miterlimit:4;stroke-dasharray:none;fill:none;fill-opacity:1;fill-rule: evenodd"/>
<path id="Shape2DView_nwe0042"  d="M -10.76 0.0 L -10.76 -0.008048371336649485 L -10.76 -0.032092272407265865 L -10.76 -0.07182933720528961 L -10.76 -0.12675984908490356 L -10.76 -0.19619302498779634 L -10.76 -0.2792557024409219 L -10.76 -0.37490332008121907 L -10.76 -0.48193305362082106 L -10.76 -0.5989989420603692 L -10.76 -0.7246288139295255 L -10.76 -0.857242800697386 L -10.76 -0.9951732045359175 L -10.76 -1.1366854705877658 L -10.76 -1.28 " stroke="#191919" stroke-width="0.35 px" style="stroke-width:0.35;stroke-miterlimit:4;stroke-dasharray:none;fill:none;fill-opacity:1;fill-rule: evenodd"/>
<path id="Shape2DView_nwe0043"  d="M -10.76 0.0 A 0.32 0.32 0 0 1 -11.4 3.91887e-17" stroke="#191919" stroke-width="0.35 px" style="stroke-width:0.35;stroke-miterlimit:4;stroke-dasharray:none;fill:none;fill-opacity:1;fill-rule: evenodd"/>
<path id="Shape2DView_nwe0044"  d="M -21.84 0.0 L -21.84 -0.008048371336649485 L -21.84 -0.032092272407265865 L -21.84 -0.07182933720528961 L -21.84 -0.12675984908490356 L -21.84 -0.19619302498779634 L -21.84 -0.2792557024409219 L -21.84 -0.37490332008121907 L -21.84 -0.48193305362082106 L -21.84 -0.5989989420603692 L -21.84 -0.7246288139295255 L -21.84 -0.857242800697386 L -21.84 -0.9951732045359175 L -21.84 -1.1366854705877658 L -21.84 -1.28 " stroke="#191919" stroke-width="0.35 px" style="stroke-width:0.35;stroke-miterlimit:4;stroke-dasharray:none;fill:none;fill-opacity:1;fill-rule: evenodd"/>
<path id="Shape2DView_nwe0045"  d="M -21.84 0.0 A 0.32 0.32 0 0 1 -22.48 3.91887e-17" stroke="#191919" stroke-width="0.35 px" style="stroke-width:0.35;stroke-miterlimit:4;stroke-dasharray:none;fill:none;fill-opacity:1;fill-rule: evenodd"/>
<path id="Shape2DView_nwe0046"  d="M -19.07 0.0 L -19.07 -0.008048371336649485 L -19.07 -0.032092272407265865 L -19.07 -0.07182933720528961 L -19.07 -0.12675984908490356 L -19.07 -0.19619302498779634 L -19.07 -0.2792557024409219 L -19.07 -0.37490332008121907 L -19.07 -0.48193305362082106 L -19.07 -0.5989989420603692 L -19.07 -0.7246288139295255 L -19.07 -0.857242800697386 L -19.07 -0.9951732045359175 L -19.07 -1.1366854705877658 L -19.07 -1.28 " stroke="#191919" stroke-width="0.35 px" style="stroke-width:0.35;stroke-miterlimit:4;stroke-dasharray:none;fill:none;fill-opacity:1;fill-rule: evenodd"/>
<path id="Shape2DView_nwe0047"  d="M -19.07 0.0 A 0.32 0.32 0 0 1 -19.71 3.91887e-17" stroke="#191919" stroke-width="0.35 px" style="stroke-width:0.35;stroke-miterlimit:4;stroke-dasharray:none;fill:none;fill-opacity:1;fill-rule: evenodd"/>
<path id="Shape2DView_nwe0048"  d="M -23.225 -2.84 L -23.225 -2.84804837133665 L -23.225 -2.872092272407266 L -23.225 -2.91182933720529 L -23.225 -2.966759849084904 L -23.225 -3.0361930249877966 L -23.225 -3.119255702440922 L -23.225 -3.2149033200812194 L -23.225 -3.3219330536208216 L -23.225 -3.4389989420603695 L -23.225 -3.564628813929526 L -23.225 -3.6972428006973863 L -23.225 -3.8351732045359177 L -23.225 -3.9766854705877663 L -23.225 -4.12 " stroke="#191919" stroke-width="0.35 px" style="stroke-width:0.35;stroke-miterlimit:4;stroke-dasharray:none;fill:none;fill-opacity:1;fill-rule: evenodd"/>
<path id="Shape2DView_nwe0049"  d="M -23.225 -2.84 A 0.32 0.32 0 0 1 -23.865 -2.84" stroke="#191919" stroke-width="0.35 px" style="stroke-width:0.35;stroke-miterlimit:4;stroke-dasharray:none;fill:none;fill-opacity:1;fill-rule: evenodd"/>
<path id="Shape2DView_nwe0050"  d="M -20.455 -2.84 L -20.455 -2.84804837133665 L -20.455 -2.872092272407266 L -20.455 -2.91182933720529 L -20.455 -2.966759849084904 L -20.455 -3.0361930249877966 L -20.455 -3.119255702440922 L -20.455 -3.2149033200812194 L -20.455 -3.3219330536208216 L -20.455 -3.4389989420603695 L -20.455 -3.564628813929526 L -20.455 -3.6972428006973863 L -20.455 -3.8351732045359177 L -20.455 -3.9766854705877663 L -20.455 -4.12 " stroke="#191919" stroke-width="0.35 px" style="stroke-width:0.35;stroke-miterlimit:4;stroke-dasharray:none;fill:none;fill-opacity:1;fill-rule: evenodd"/>
<path id="Shape2DView_nwe0051"  d="M -20.455 -2.84 A 0.32 0.32 0 0 1 -21.095 -2.84" stroke="#191919" stroke-width="0.35 px" style="stroke-width:0.35;stroke-miterlimit:4;stroke-dasharray:none;fill:none;fill-opacity:1;fill-rule: evenodd"/>
<path id="Shape2DView_nwe0052"  d="M -14.915 -2.84 L -14.915 -2.84804837133665 L -14.915 -2.872092272407266 L -14.915 -2.91182933720529 L -14.915 -2.966759849084904 L -14.915 -3.0361930249877966 L -14.915 -3.119255702440922 L -14.915 -3.2149033200812194 L -14.915 -3.3219330536208216 L -14.915 -3.4389989420603695 L -14.915 -3.564628813929526 L -14.915 -3.6972428006973863 L -14.915 -3.8351732045359177 L -14.915 -3.9766854705877663 L -14.915 -4.12 " stroke="#191919" stroke-width="0.35 px" style="stroke-width:0.35;stroke-miterlimit:4;stroke-dasharray:none;fill:none;fill-opacity:1;fill-rule: evenodd"/>
<path id="Shape2DView_nwe0053"  d="M -14.915 -2.84 A 0.32 0.32 0 0 1 -15.555 -2.84" stroke="#191919" stroke-width="0.35 px" style="stroke-width:0.35;stroke-miterlimit:4;stroke-dasharray:none;fill:none;fill-opacity:1;fill-rule: evenodd"/>
<path id="Shape2DView_nwe0054"  d="M -17.685 -2.84 L -17.685 -2.84804837133665 L -17.685 -2.872092272407266 L -17.685 -2.91182933720529 L -17.685 -2.966759849084904 L -17.685 -3.0361930249877966 L -17.685 -3.119255702440922 L -17.685 -3.2149033200812194 L -17.685 -3.3219330536208216 L -17.685 -3.4389989420603695 L -17.685 -3.564628813929526 L -17.685 -3.6972428006973863 L -17.685 -3.8351732045359177 L -17.685 -3.9766854705877663 L -17.685 -4.12 " stroke="#191919" stroke-width="0.35 px" style="stroke-width:0.35;stroke-miterlimit:4;stroke-dasharray:none;fill:none;fill-opacity:1;fill-rule: evenodd"/>
<path id="Shape2DView_nwe0055"  d="M -17.685 -2.84 A 0.32 0.32 0 0 1 -18.325 -2.84" stroke="#191919" stroke-width="0.35 px" style="stroke-width:0.35;stroke-miterlimit:4;stroke-dasharray:none;fill:none;fill-opacity:1;fill-rule: evenodd"/>
<path id="Shape2DView_nwe0056"  d="M -3.835 -2.84 L -3.835 -2.84804837133665 L -3.835 -2.872092272407266 L -3.835 -2.91182933720529 L -3.835 -2.966759849084904 L -3.835 -3.0361930249877966 L -3.835 -3.119255702440922 L -3.835 -3.2149033200812194 L -3.835 -3.3219330536208216 L -3.835 -3.4389989420603695 L -3.835 -3.564628813929526 L -3.835 -3.6972428006973863 L -3.835 -3.8351732045359177 L -3.835 -3.9766854705877663 L -3.835 -4.12 " stroke="#191919" stroke-width="0.35 px" style="stroke-width:0.35;stroke-miterlimit:4;stroke-dasharray:none;fill:none;fill-opacity:1;fill-rule: evenodd"/>
<path id="Shape2DView_nwe0057"  d="M -3.8350000000000004 -2.84 A 0.32 0.32 0 0 1 -4.475 -2.84" stroke="#191919" stroke-width="0.35 px" style="stroke-width:0.35;stroke-miterlimit:4;stroke-dasharray:none;fill:none;fill-opacity:1;fill-rule: evenodd"/>
<path id="Shape2DView_nwe0058"  d="M -6.605 -2.84 L -6.605 -2.84804837133665 L -6.605 -2.872092272407266 L -6.605 -2.91182933720529 L -6.605 -2.966759849084904 L -6.605 -3.0361930249877966 L -6.605 -3.119255702440922 L -6.605 -3.2149033200812194 L -6.605 -3.3219330536208216 L -6.605 -3.4389989420603695 L -6.605 -3.564628813929526 L -6.605 -3.6972428006973863 L -6.605 -3.8351732045359177 L -6.605 -3.9766854705877663 L -6.605 -4.12 " stroke="#191919" stroke-width="0.35 px" style="stroke-width:0.35;stroke-miterlimit:4;stroke-dasharray:none;fill:none;fill-opacity:1;fill-rule: evenodd"/>
<path id="Shape2DView_nwe0059"  d="M -6.6049999999999995 -2.84 A 0.32 0.32 0 0 1 -7.245 -2.84" stroke="#191919" stroke-width="0.35 px" style="stroke-width:0.35;stroke-miterlimit:4;stroke-dasharray:none;fill:none;fill-opacity:1;fill-rule: evenodd"/>
<path id="Shape2DView_nwe0060"  d="M -12.145 -2.84 L -12.145 -2.84804837133665 L -12.145 -2.872092272407266 L -12.145 -2.91182933720529 L -12.145 -2.966759849084904 L -12.145 -3.0361930249877966 L -12.145 -3.119255702440922 L -12.145 -3.2149033200812194 L -12.145 -3.3219330536208216 L -12.145 -3.4389989420603695 L -12.145 -3.564628813929526 L -12.145 -3.6972428006973863 L -12.145 -3.8351732045359177 L -12.145 -3.9766854705877663 L -12.145 -4.12 " stroke="#191919" stroke-width="0.35 px" style="stroke-width:0.35;stroke-miterlimit:4;stroke-dasharray:none;fill:none;fill-opacity:1;fill-rule: evenodd"/>
<path id="Shape2DView_nwe0061"  d="M -12.145 -2.84 A 0.32 0.32 0 0 1 -12.785 -2.84" stroke="#191919" stroke-width="0.35 px" style="stroke-width:0.35;stroke-miterlimit:4;stroke-dasharray:none;fill:none;fill-opacity:1;fill-rule: evenodd"/>
<path id="Shape2DView_nwe0062"  d="M -9.375 -2.84 L -9.375 -2.84804837133665 L -9.375 -2.872092272407266 L -9.375 -2.91182933720529 L -9.375 -2.966759849084904 L -9.375 -3.0361930249877966 L -9.375 -3.119255702440922 L -9.375 -3.2149033200812194 L -9.375 -3.3219330536208216 L -9.375 -3.4389989420603695 L -9.375 -3.564628813929526 L -9.375 -3.6972428006973863 L -9.375 -3.8351732045359177 L -9.375 -3.9766854705877663 L -9.375 -4.12 " stroke="#191919" stroke-width="0.35 px" style="stroke-width:0.35;stroke-miterlimit:4;stroke-dasharray:none;fill:none;fill-opacity:1;fill-rule: evenodd"/>
<path id="Shape2DView_nwe0063"  d="M -9.375 -2.84 A 0.32 0.32 0 0 1 -10.015 -2.84" stroke="#191919" stroke-width="0.35 px" style="stroke-width:0.35;stroke-miterlimit:4;stroke-dasharray:none;fill:none;fill-opacity:1;fill-rule: evenodd"/>
<path id="Shape2DView_nwe0064"  d="M 0.32 0.0 L 0.32 -0.008048371336649485 L 0.32 -0.032092272407265865 L 0.32 -0.07182933720528961 L 0.32 -0.12675984908490356 L 0.32 -0.19619302498779634 L 0.32 -0.2792557024409219 L 0.32 -0.37490332008121907 L 0.32 -0.48193305362082106 L 0.32 -0.5989989420603692 L 0.32 -0.7246288139295255 L 0.32 -0.857242800697386 L 0.32 -0.9951732045359175 L 0.32 -1.1366854705877658 L 0.32 -1.28 " stroke="#191919" stroke-width="0.35 px" style="stroke-width:0.35;stroke-miterlimit:4;stroke-dasharray:none;fill:none;fill-opacity:1;fill-rule: evenodd"/>
<path id="Shape2DView_nwe0065"  d="M 0.32 0.0 A 0.32 0.32 0 0 1 -0.32 3.91887e-17" stroke="#191919" stroke-width="0.35 px" style="stroke-width:0.35;stroke-miterlimit:4;stroke-dasharray:none;fill:none;fill-opacity:1;fill-rule: evenodd"/>
<path id="Shape2DView_nwe0066"  d="M -1.065 -2.84 L -1.065 -2.84804837133665 L -1.065 -2.872092272407266 L -1.065 -2.91182933720529 L -1.065 -2.966759849084904 L -1.065 -3.0361930249877966 L -1.065 -3.119255702440922 L -1.065 -3.2149033200812194 L -1.065 -3.3219330536208216 L -1.065 -3.4389989420603695 L -1.065 -3.564628813929526 L -1.065 -3.6972428006973863 L -1.065 -3.8351732045359177 L -1.065 -3.9766854705877663 L -1.065 -4.12 " stroke="#191919" stroke-width="0.35 px" style="stroke-width:0.35;stroke-miterlimit:4;stroke-dasharray:none;fill:none;fill-opacity:1;fill-rule: evenodd"/>
<path id="Shape2DView_nwe0067"  d="M -1.065 -2.84 A 0.32 0.32 0 0 1 -1.705 -2.84" stroke="#191919" stroke-width="0.35 px" style="stroke-width:0.35;stroke-miterlimit:4;stroke-dasharray:none;fill:none;fill-opacity:1;fill-rule: evenodd"/>
<path id="Shape2DView_nwe0068"  d="M -27.38 0.0 L -27.38 -0.008048371336649485 L -27.38 -0.032092272407265865 L -27.38 -0.07182933720528961 L -27.38 -0.12675984908490356 L -27.38 -0.19619302498779634 L -27.38 -0.2792557024409219 L -27.38 -0.37490332008121907 L -27.38 -0.48193305362082106 L -27.38 -0.5989989420603692 L -27.38 -0.7246288139295255 L -27.38 -0.857242800697386 L -27.38 -0.9951732045359175 L -27.38 -1.1366854705877658 L -27.38 -1.28 " stroke="#191919" stroke-width="0.35 px" style="stroke-width:0.35;stroke-miterlimit:4;stroke-dasharray:none;fill:none;fill-opacity:1;fill-rule: evenodd"/>
<path id="Shape2DView_nwe0069"  d="M -27.38 0.0 A 0.32 0.32 0 0 1 -28.02 3.91887e-17" stroke="#191919" stroke-width="0.35 px" style="stroke-width:0.35;stroke-miterlimit:4;stroke-dasharray:none;fill:none;fill-opacity:1;fill-rule: evenodd"/>
<path id="Shape2DView_nwe0070"  d="M -24.61 0.0 L -24.61 -0.008048371336649485 L -24.61 -0.032092272407265865 L -24.61 -0.07182933720528961 L -24.61 -0.12675984908490356 L -24.61 -0.19619302498779634 L -24.61 -0.2792557024409219 L -24.61 -0.37490332008121907 L -24.61 -0.48193305362082106 L -24.61 -0.5989989420603692 L -24.61 -0.7246288139295255 L -24.61 -0.857242800697386 L -24.61 -0.9951732045359175 L -24.61 -1.1366854705877658 L -24.61 -1.28 " stroke="#191919" stroke-width="0.35 px" style="stroke-width:0.35;stroke-miterlimit:4;stroke-dasharray:none;fill:none;fill-opacity:1;fill-rule: evenodd"/>
<path id="Shape2DView_nwe0071"  d="M -24.61 0.0 A 0.32 0.32 0 0 1 -25.25 3.91887e-17" stroke="#191919" stroke-width="0.35 px" style="stroke-width:0.35;stroke-miterlimit:4;stroke-dasharray:none;fill:none;fill-opacity:1;fill-rule: evenodd"/>
<path id="Shape2DView_nwe0072"  d="M -25.995 -2.84 L -25.995 -2.84804837133665 L -25.995 -2.872092272407266 L -25.995 -2.91182933720529 L -25.995 -2.966759849084904 L -25.995 -3.0361930249877966 L -25.995 -3.119255702440922 L -25.995 -3.2149033200812194 L -25.995 -3.3219330536208216 L -25.995 -3.4389989420603695 L -25.995 -3.564628813929526 L -25.995 -3.6972428006973863 L -25.995 -3.8351732045359177 L -25.995 -3.9766854705877663 L -25.995 -4.12 " stroke="#191919" stroke-width="0.35 px" style="stroke-width:0.35;stroke-miterlimit:4;stroke-dasharray:none;fill:none;fill-opacity:1;fill-rule: evenodd"/>
<path id="Shape2DView_nwe0073"  d="M -25.995 -2.84 A 0.32 0.32 0 0 1 -26.635 -2.84" stroke="#191919" stroke-width="0.35 px" style="stroke-width:0.35;stroke-miterlimit:4;stroke-dasharray:none;fill:none;fill-opacity:1;fill-rule: evenodd"/>
<path id="Shape2DView_nwe0074"  d="M -30.15 0.0 L -30.15 -0.008048371336649485 L -30.15 -0.032092272407265865 L -30.15 -0.07182933720528961 L -30.15 -0.12675984908490356 L -30.15 -0.19619302498779634 L -30.15 -0.2792557024409219 L -30.15 -0.37490332008121907 L -30.15 -0.48193305362082106 L -30.15 -0.5989989420603692 L -30.15 -0.7246288139295255 L -30.15 -0.857242800697386 L -30.15 -0.9951732045359175 L -30.15 -1.1366854705877658 L -30.15 -1.28 " stroke="#191919" stroke-width="0.35 px" style="stroke-width:0.35;stroke-miterlimit:4;stroke-dasharray:none;fill:none;fill-opacity:1;fill-rule: evenodd"/>
<path id="Shape2DView_nwe0075"  d="M -30.15 0.0 A 0.32 0.32 0 0 1 -30.79 3.91887e-17" stroke="#191919" stroke-width="0.35 px" style="stroke-width:0.35;stroke-miterlimit:4;stroke-dasharray:none;fill:none;fill-opacity:1;fill-rule: evenodd"/>
<path id="Shape2DView_nwe0076"  d="M -28.765 -2.84 L -28.765 -2.84804837133665 L -28.765 -2.872092272407266 L -28.765 -2.91182933720529 L -28.765 -2.966759849084904 L -28.765 -3.0361930249877966 L -28.765 -3.119255702440922 L -28.765 -3.2149033200812194 L -28.765 -3.3219330536208216 L -28.765 -3.4389989420603695 L -28.765 -3.564628813929526 L -28.765 -3.6972428006973863 L -28.765 -3.8351732045359177 L -28.765 -3.9766854705877663 L -28.765 -4.12 " stroke="#191919" stroke-width="0.35 px" style="stroke-width:0.35;stroke-miterlimit:4;stroke-dasharray:none;fill:none;fill-opacity:1;fill-rule: evenodd"/>
<path id="Shape2DView_nwe0077"  d="M -28.765 -2.84 A 0.32 0.32 0 0 1 -29.405 -2.84" stroke="#191919" stroke-width="0.35 px" style="stroke-width:0.35;stroke-miterlimit:4;stroke-dasharray:none;fill:none;fill-opacity:1;fill-rule: evenodd"/>
<path id="Shape2DView_nwe0078"  d="M -31.535 -2.84 L -31.535 -2.84804837133665 L -31.535 -2.872092272407266 L -31.535 -2.91182933720529 L -31.535 -2.966759849084904 L -31.535 -3.0361930249877966 L -31.535 -3.119255702440922 L -31.535 -3.2149033200812194 L -31.535 -3.3219330536208216 L -31.535 -3.4389989420603695 L -31.535 -3.564628813929526 L -31.535 -3.6972428006973863 L -31.535 -3.8351732045359177 L -31.535 -3.9766854705877663 L -31.535 -4.12 " stroke="#191919" stroke-width="0.35 px" style="stroke-width:0.35;stroke-miterlimit:4;stroke-dasharray:none;fill:none;fill-opacity:1;fill-rule: evenodd"/>
<path id="Shape2DView_nwe0079"  d="M -31.535 -2.84 A 0.32 0.32 0 0 1 -32.175 -2.84" stroke="#191919" stroke-width="0.35 px" style="stroke-width:0.35;stroke-miterlimit:4;stroke-dasharray:none;fill:none;fill-opacity:1;fill-rule: evenodd"/>
<path id="Shape2DView_nwe0080"  d="M 2.93 -8.14 A 1 1 0 0 0 3.93 -9.14" stroke="#191919" stroke-width="0.35 px" style="stroke-width:0.35;stroke-miterlimit:4;stroke-dasharray:none;fill:none;fill-opacity:1;fill-rule: evenodd"/>
<path id="Shape2DView_nwe0081"  d="M -36.17 -8.14 A 1 1 0 0 1 -37.17 -9.14" stroke="#191919" stroke-width="0.35 px" style="stroke-width:0.35;stroke-miterlimit:4;stroke-dasharray:none;fill:none;fill-opacity:1;fill-rule: evenodd"/>
<path id="Shape2DView_nwe0082"  d="M 3.93 -9.14 L 3.93 -12.14 " stroke="#191919" stroke-width="0.35 px" style="stroke-width:0.35;stroke-miterlimit:4;stroke-dasharray:none;fill:none;fill-opacity:1;fill-rule: evenodd"/>
<path id="Shape2DView_nwe0083"  d="M -37.17 -9.14 L -37.17 -12.14 " stroke="#191919" stroke-width="0.35 px" style="stroke-width:0.35;stroke-miterlimit:4;stroke-dasharray:none;fill:none;fill-opacity:1;fill-rule: evenodd"/>
<circle cx="-2.77" cy="2.850275026918e-33" r="0.32" stroke="#191919" stroke-width="0.35 px" style="stroke-width:0.35;stroke-miterlimit:4;stroke-dasharray:none;fill:none"/>
<circle cx="-5.54" cy="2.850275026918e-33" r="0.32" stroke="#191919" stroke-width="0.35 px" style="stroke-width:0.35;stroke-miterlimit:4;stroke-dasharray:none;fill:none"/>
<circle cx="-8.31" cy="2.850275026918e-33" r="0.32" stroke="#191919" stroke-width="0.35 px" style="stroke-width:0.35;stroke-miterlimit:4;stroke-dasharray:none;fill:none"/>
<circle cx="-16.62" cy="2.850275026918e-33" r="0.32" stroke="#191919" stroke-width="0.35 px" style="stroke-width:0.35;stroke-miterlimit:4;stroke-dasharray:none;fill:none"/>
<circle cx="-13.85" cy="2.850275026918e-33" r="0.32" stroke="#191919" stroke-width="0.35 px" style="stroke-width:0.35;stroke-miterlimit:4;stroke-dasharray:none;fill:none"/>
<circle cx="-11.08" cy="2.850275026918e-33" r="0.32" stroke="#191919" stroke-width="0.35 px" style="stroke-width:0.35;stroke-miterlimit:4;stroke-dasharray:none;fill:none"/>
<circle cx="-22.16" cy="2.850275026918e-33" r="0.32" stroke="#191919" stroke-width="0.35 px" style="stroke-width:0.35;stroke-miterlimit:4;stroke-dasharray:none;fill:none"/>
<circle cx="-19.39" cy="2.850275026918e-33" r="0.32" stroke="#191919" stroke-width="0.35 px" style="stroke-width:0.35;stroke-miterlimit:4;stroke-dasharray:none;fill:none"/>
<circle cx="-23.545" cy="-2.84" r="0.32" stroke="#191919" stroke-width="0.35 px" style="stroke-width:0.35;stroke-miterlimit:4;stroke-dasharray:none;fill:none"/>
<circle cx="-20.775" cy="-2.84" r="0.32" stroke="#191919" stroke-width="0.35 px" style="stroke-width:0.35;stroke-miterlimit:4;stroke-dasharray:none;fill:none"/>
<circle cx="-15.235" cy="-2.84" r="0.32" stroke="#191919" stroke-width="0.35 px" style="stroke-width:0.35;stroke-miterlimit:4;stroke-dasharray:none;fill:none"/>
<circle cx="-18.005" cy="-2.84" r="0.32" stroke="#191919" stroke-width="0.35 px" style="stroke-width:0.35;stroke-miterlimit:4;stroke-dasharray:none;fill:none"/>
<circle cx="-4.155" cy="-2.84" r="0.32" stroke="#191919" stroke-width="0.35 px" style="stroke-width:0.35;stroke-miterlimit:4;stroke-dasharray:none;fill:none"/>
<circle cx="-6.925" cy="-2.84" r="0.32" stroke="#191919" stroke-width="0.35 px" style="stroke-width:0.35;stroke-miterlimit:4;stroke-dasharray:none;fill:none"/>
<circle cx="-12.465" cy="-2.84" r="0.32" stroke="#191919" stroke-width="0.35 px" style="stroke-width:0.35;stroke-miterlimit:4;stroke-dasharray:none;fill:none"/>
<circle cx="-9.695" cy="-2.84" r="0.32" stroke="#191919" stroke-width="0.35 px" style="stroke-width:0.35;stroke-miterlimit:4;stroke-dasharray:none;fill:none"/>
<circle cx="-6.568586551523e-49" cy="2.850275026918e-33" r="0.32" stroke="#191919" stroke-width="0.35 px" style="stroke-width:0.35;stroke-miterlimit:4;stroke-dasharray:none;fill:none"/>
<circle cx="-1.385" cy="-2.84" r="0.32" stroke="#191919" stroke-width="0.35 px" style="stroke-width:0.35;stroke-miterlimit:4;stroke-dasharray:none;fill:none"/>
<circle cx="-27.7" cy="2.850275026918e-33" r="0.32" stroke="#191919" stroke-width="0.35 px" style="stroke-width:0.35;stroke-miterlimit:4;stroke-dasharray:none;fill:none"/>
<circle cx="-24.93" cy="2.850275026918e-33" r="0.32" stroke="#191919" stroke-width="0.35 px" style="stroke-width:0.35;stroke-miterlimit:4;stroke-dasharray:none;fill:none"/>
<circle cx="-26.315" cy="-2.84" r="0.32" stroke="#191919" stroke-width="0.35 px" style="stroke-width:0.35;stroke-miterlimit:4;stroke-dasharray:none;fill:none"/>
<circle cx="-30.47" cy="2.850275026918e-33" r="0.32" stroke="#191919" stroke-width="0.35 px" style="stroke-width:0.35;stroke-miterlimit:4;stroke-dasharray:none;fill:none"/>
<circle cx="-29.085" cy="-2.84" r="0.32" stroke="#191919" stroke-width="0.35 px" style="stroke-width:0.35;stroke-miterlimit:4;stroke-dasharray:none;fill:none"/>
<path id="Shape2DView_nwe0107"  d="M -31.535 -2.84 A 0.32 0.32 0 1 1 -32.175 -2.84" stroke="#191919" stroke-width="0.35 px" style="stroke-width:0.35;stroke-miterlimit:4;stroke-dasharray:none;fill:none;fill-opacity:1;fill-rule: evenodd"/>
<path id="Shape2DView_nwe0108"  d="M 8.93 -12.14 L -42.17 -12.14 " stroke="#191919" stroke-width="0.35 px" style="stroke-width:0.35;stroke-miterlimit:4;stroke-dasharray:none;fill:none;fill-opacity:1;fill-rule: evenodd"/>
<path id="Shape2DView_nwe0109"  d="M -42.17 -12.14 L -42.27076802849298 -12.14 L -42.37026884056068 -12.14 L -42.467251155759655 -12.14 L -42.5604953652058 -12.14 L -42.6488288688638 -12.14 L -42.73114082167286 -12.14 L -42.8063961030679 -12.14 L -42.87364833422123 -12.14 L -42.93205177930546 -12.14 L -42.98087198111218 -12.14 L -43.01949499727753 -12.14 L -43.04743512096364 -12.14 L -43.06434098890392 -12.14 L -43.07 -12.14 " stroke="#191919" stroke-width="0.35 px" style="stroke-width:0.35;stroke-miterlimit:4;stroke-dasharray:none;fill:none;fill-opacity:1;fill-rule: evenodd"/>
<path id="Shape2DView_nwe0110"  d="M 9.83 -12.14 L 9.824340988903918 -12.14 L 9.80743512096364 -12.14 L 9.779494997277531 -12.14 L 9.740871981112177 -12.14 L 9.692051779305455 -12.14 L 9.633648334221226 -12.14 L 9.566396103067893 -12.14 L 9.49114082167286 -12.14 L 9.408828868863802 -12.14 L 9.320495365205803 -12.14 L 9.22725115575965 -12.14 L 9.130268840560683 -12.14 L 9.030768028492977 -12.14 L 8.93 -12.14 " stroke="#191919" stroke-width="0.35 px" style="stroke-width:0.35;stroke-miterlimit:4;stroke-dasharray:none;fill:none;fill-opacity:1;fill-rule: evenodd"/>
<path id="Shape2DView_nwe0111"  d="M 9.93 -12.24 A 0.1 0.1 0 0 1 9.83 -12.14" stroke="#191919" stroke-width="0.35 px" style="stroke-width:0.35;stroke-miterlimit:4;stroke-dasharray:none;fill:none;fill-opacity:1;fill-rule: evenodd"/>
<path id="Shape2DView_nwe0112"  d="M -43.17 -12.24 A 0.1 0.1 0 0 0 -43.07 -12.14" stroke="#191919" stroke-width="0.35 px" style="stroke-width:0.35;stroke-miterlimit:4;stroke-dasharray:none;fill:none;fill-opacity:1;fill-rule: evenodd"/>
<path id="Shape2DView_nwe0114"  d="M 9.93 -12.24 L 9.93 -12.44 " stroke="#191919" stroke-width="0.35 px" style="stroke-width:0.35;stroke-miterlimit:4;stroke-dasharray:none;fill:none;fill-opacity:1;fill-rule: evenodd"/>
<path id="Shape2DView_nwe0115"  d="M -43.17 -12.24 L -43.17 -12.44 " stroke="#191919" stroke-width="0.35 px" style="stroke-width:0.35;stroke-miterlimit:4;stroke-dasharray:none;fill:none;fill-opacity:1;fill-rule: evenodd"/>
<path id="Shape2DView_nwe0116"  d="M 8.93 -12.54 L -42.17 -12.54 " stroke="#191919" stroke-width="0.35 px" style="stroke-width:0.35;stroke-miterlimit:4;stroke-dasharray:none;fill:none;fill-opacity:1;fill-rule: evenodd"/>
<path id="Shape2DView_nwe0117"  d="M 9.93 -12.44 A 0.1 0.1 0 0 0 9.83 -12.54" stroke="#191919" stroke-width="0.35 px" style="stroke-width:0.35;stroke-miterlimit:4;stroke-dasharray:none;fill:none;fill-opacity:1;fill-rule: evenodd"/>
<path id="Shape2DView_nwe0118"  d="M 9.83 -12.54 L 9.824340988903918 -12.54 L 9.80743512096364 -12.54 L 9.779494997277531 -12.54 L 9.740871981112177 -12.54 L 9.692051779305455 -12.54 L 9.633648334221226 -12.54 L 9.566396103067893 -12.54 L 9.49114082167286 -12.54 L 9.408828868863802 -12.54 L 9.320495365205803 -12.54 L 9.22725115575965 -12.54 L 9.130268840560683 -12.54 L 9.030768028492977 -12.54 L 8.93 -12.54 " stroke="#191919" stroke-width="0.35 px" style="stroke-width:0.35;stroke-miterlimit:4;stroke-dasharray:none;fill:none;fill-opacity:1;fill-rule: evenodd"/>
<path id="Shape2DView_nwe0119"  d="M -43.17 -12.44 A 0.1 0.1 0 0 1 -43.07 -12.54" stroke="#191919" stroke-width="0.35 px" style="stroke-width:0.35;stroke-miterlimit:4;stroke-dasharray:none;fill:none;fill-opacity:1;fill-rule: evenodd"/>
<path id="Shape2DView_nwe0120"  d="M -42.17 -12.54 L -42.27076802849298 -12.54 L -42.37026884056068 -12.54 L -42.467251155759655 -12.54 L -42.5604953652058 -12.54 L -42.6488288688638 -12.54 L -42.73114082167286 -12.54 L -42.8063961030679 -12.54 L -42.87364833422123 -12.54 L -42.93205177930546 -12.54 L -42.98087198111218 -12.54 L -43.01949499727753 -12.54 L -43.04743512096364 -12.54 L -43.06434098890392 -12.54 L -43.07 -12.54 " stroke="#191919" stroke-width="0.35 px" style="stroke-width:0.35;stroke-miterlimit:4;stroke-dasharray:none;fill:none;fill-opacity:1;fill-rule: evenodd"/>
<path id="Shape2DView_nwe0122"  d="M -43.07 -12.54 L -43.06434098890392 -12.54 L -43.04743512096364 -12.54 L -43.01949499727753 -12.54 L -42.98087198111218 -12.54 L -42.93205177930546 -12.54 L -42.87364833422123 -12.54 L -42.8063961030679 -12.54 L -42.73114082167286 -12.54 L -42.6488288688638 -12.54 L -42.5604953652058 -12.54 L -42.467251155759655 -12.54 L -42.37026884056068 -12.54 L -42.27076802849298 -12.54 L -42.17 -12.54 " stroke="#191919" stroke-width="0.35 px" style="stroke-width:0.35;stroke-miterlimit:4;stroke-dasharray:none;fill:none;fill-opacity:1;fill-rule: evenodd"/>
<path id="Shape2DView_nwe0123"  d="M -34.57943192049 -18.29 L -34.69139639659331 -18.29 L -34.80195285444632 -18.29 L -34.90971098244517 -18.29 L -35.013315659607564 -18.29 L -35.11146399700534 -18.29 L -35.202921722348734 -18.29 L -35.28653870167655 -18.29 L -35.36126340295803 -18.29 L -35.426156119718286 -18.29 L -35.48040078839242 -18.29 L -35.52331525079837 -18.29 L -35.55435983267183 -18.29 L -35.57314413038324 -18.29 L -35.57943192049 -18.29 " stroke="#191919" stroke-width="0.35 px" style="stroke-width:0.35;stroke-miterlimit:4;stroke-dasharray:none;fill:none;fill-opacity:1;fill-rule: evenodd"/>
<path id="Shape2DView_nwe0124"  d="M 1.339431920499 -18.29 L -34.57943192049 -18.29 " stroke="#191919" stroke-width="0.35 px" style="stroke-width:0.35;stroke-miterlimit:4;stroke-dasharray:none;fill:none;fill-opacity:1;fill-rule: evenodd"/>
<path id="Shape2DView_nwe0125"  d="M 2.339431920499 -18.29 L 2.3331441303922427 -18.29 L 2.3143598326808235 -18.29 L 2.2833152508073673 -18.29 L 2.2404007884014185 -18.29 L 2.1861561197272836 -18.29 L 2.1212634029670294 -18.29 L 2.046538701685547 -18.29 L 1.962921722357733 -18.29 L 1.8714639970143363 -18.29 L 1.7733156596165576 -18.29 L 1.6697109824541667 -18.29 L 1.5619528544553138 -18.29 L 1.4513963966023073 -18.29 L 1.339431920499 -18.29 " stroke="#191919" stroke-width="0.35 px" style="stroke-width:0.35;stroke-miterlimit:4;stroke-dasharray:none;fill:none;fill-opacity:1;fill-rule: evenodd"/>
<path id="Shape2DView_nwe0126"  d="M -34.57943192049 -18.34 L -34.68579817278815 -18.34 L -34.7908268077485 -18.34 L -34.89319702934741 -18.34 L -34.99162147265168 -18.34 L -35.08486239317957 -18.34 L -35.1717472322558 -18.34 L -35.25118336261722 -18.34 L -35.32217182883463 -18.34 L -35.38381990975687 -18.34 L -35.4353523449973 -18.34 L -35.47612108428295 -18.34 L -35.505613437062735 -18.34 L -35.523458519888585 -18.34 L -35.529431920490005 -18.34 " stroke="#191919" stroke-width="0.35 px" style="stroke-width:0.35;stroke-miterlimit:4;stroke-dasharray:none;fill:none;fill-opacity:1;fill-rule: evenodd"/>
<path id="Shape2DView_nwe0127"  d="M 1.339431920499 -18.34 L -34.57943192049 -18.34 " stroke="#191919" stroke-width="0.35 px" style="stroke-width:0.35;stroke-miterlimit:4;stroke-dasharray:none;fill:none;fill-opacity:1;fill-rule: evenodd"/>
<path id="Shape2DView_nwe0128"  d="M 2.289431920499 -18.34 L 2.2834585198975805 -18.34 L 2.2656134370717322 -18.34 L 2.2361210842919492 -18.34 L 2.1953523450062984 -18.34 L 2.1438199097658703 -18.34 L 2.0821718288436286 -18.34 L 2.0111833626262205 -18.34 L 1.931747232264797 -18.34 L 1.8448623931885701 -18.34 L 1.7516214726606805 -18.34 L 1.653197029356409 -18.34 L 1.550826807757499 -18.34 L 1.4457981727971427 -18.34 L 1.339431920499 -18.34 " stroke="#191919" stroke-width="0.35 px" style="stroke-width:0.35;stroke-miterlimit:4;stroke-dasharray:none;fill:none;fill-opacity:1;fill-rule: evenodd"/>
<path id="Shape2DView_nwe0129"  d="M -35.4740820053 -18.54 L -35.46779421519324 -18.54 L -35.449009917481824 -18.54 L -35.417965335608365 -18.54 L -35.37505087320242 -18.54 L -35.32080620452828 -18.54 L -35.25591348776803 -18.54 L -35.181188786486544 -18.54 L -35.09757180715873 -18.54 L -35.00611408181533 -18.54 L -34.90796574441756 -18.54 L -34.804361067255165 -18.54 L -34.696602939256316 -18.54 L -34.58604648140331 -18.54 L -34.4740820053 -18.54 " stroke="#191919" stroke-width="0.35 px" style="stroke-width:0.35;stroke-miterlimit:4;stroke-dasharray:none;fill:none;fill-opacity:1;fill-rule: evenodd"/>
<path id="Shape2DView_nwe0130"  d="M -34.4740820053 -18.54 L 1.2340820053030015 -18.54 " stroke="#191919" stroke-width="0.35 px" style="stroke-width:0.35;stroke-miterlimit:4;stroke-dasharray:none;fill:none;fill-opacity:1;fill-rule: evenodd"/>
<path id="Shape2DView_nwe0131"  d="M 1.234082005303 -18.54 L 1.3460464814063078 -18.54 L 1.4566029392593143 -18.54 L 1.564361067258167 -18.54 L 1.667965744420558 -18.54 L 1.7661140818183365 -18.54 L 1.8575718071617335 -18.54 L 1.9411887864895474 -18.54 L 2.0159134877710296 -18.54 L 2.0808062045312843 -18.54 L 2.135050873205419 -18.54 L 2.1779653356113675 -18.54 L 2.2090099174848237 -18.54 L 2.2277942151962424 -18.54 L 2.2340820053029997 -18.54 " stroke="#191919" stroke-width="0.35 px" style="stroke-width:0.35;stroke-miterlimit:4;stroke-dasharray:none;fill:none;fill-opacity:1;fill-rule: evenodd"/>
<path id="Shape2DView_nwe0132"  d="M -35.3740820053 -18.64 L -35.36842299420392 -18.64 L -35.35151712626364 -18.64 L -35.32357700257753 -18.64 L -35.28495398641218 -18.64 L -35.23613378460546 -18.64 L -35.177730339521226 -18.64 L -35.11047810836789 -18.64 L -35.035222826972856 -18.64 L -34.9529108741638 -18.64 L -34.8645773705058 -18.64 L -34.77133316105965 -18.64 L -34.67435084586068 -18.64 L -34.57485003379298 -18.64 L -34.4740820053 -18.64 " stroke="#191919" stroke-width="0.35 px" style="stroke-width:0.35;stroke-miterlimit:4;stroke-dasharray:none;fill:none;fill-opacity:1;fill-rule: evenodd"/>
<path id="Shape2DView_nwe0133"  d="M -34.4740820053 -18.64 L 1.2340820053030015 -18.64 " stroke="#191919" stroke-width="0.35 px" style="stroke-width:0.35;stroke-miterlimit:4;stroke-dasharray:none;fill:none;fill-opacity:1;fill-rule: evenodd"/>
<path id="Shape2DView_nwe0134"  d="M 1.234082005303 -18.64 L 1.334850033795977 -18.64 L 1.4343508458636829 -18.64 L 1.5313331610626504 -18.64 L 1.6245773705088022 -18.64 L 1.7129108741668029 -18.64 L 1.79522282697586 -18.64 L 1.8704781083708928 -18.64 L 1.9377303395242267 -18.64 L 1.996133784608456 -18.64 L 2.0449539864151776 -18.64 L 2.083577002580531 -18.64 L 2.1115171262666412 -18.64 L 2.128422994206918 -18.64 L 2.134082005303 -18.64 " stroke="#191919" stroke-width="0.35 px" style="stroke-width:0.35;stroke-miterlimit:4;stroke-dasharray:none;fill:none;fill-opacity:1;fill-rule: evenodd"/>
<circle cx="-33.24" cy="2.850275026918e-33" r="0.32" stroke="#191919" stroke-width="0.35 px" style="stroke-width:0.35;stroke-miterlimit:4;stroke-dasharray:none;fill:none"/>
<path id="Shape2DView_nwe0137"  d="M -33.56 -1.28 L -33.55197693189819 -1.28 L -33.52831003772878 -1.28 L -33.49018607438977 -1.28 L -33.4395167365948 -1.28 L -33.37884279651762 -1.28 L -33.31120669886602 -1.28 L -33.24 -1.28 L -33.16879330113398 -1.28 L -33.10115720348238 -1.28 L -33.04048326340521 -1.28 L -32.989813925610235 -1.28 L -32.951689962271224 -1.28 L -32.928023068101815 -1.28 L -32.92 -1.28 " stroke="#191919" stroke-width="0.35 px" style="stroke-width:0.35;stroke-miterlimit:4;stroke-dasharray:none;fill:none;fill-opacity:1;fill-rule: evenodd"/>
<path id="Shape2DView_nwe0138"  d="M -3.09 -1.28 L -3.0819769318981836 -1.28 L -3.0583100377287744 -1.28 L -3.0201860743897697 -1.28 L -2.969516736594795 -1.28 L -2.908842796517619 -1.28 L -2.8412066988660207 -1.28 L -2.77 -1.28 L -2.6987933011339793 -1.28 L -2.6311572034823816 -1.28 L -2.5704832634052055 -1.28 L -2.5198139256102303 -1.28 L -2.481689962271226 -1.28 L -2.4580230681018165 -1.28 L -2.45 -1.28 " stroke="#191919" stroke-width="0.35 px" style="stroke-width:0.35;stroke-miterlimit:4;stroke-dasharray:none;fill:none;fill-opacity:1;fill-rule: evenodd"/>
<path id="Shape2DView_nwe0139"  d="M -5.86 -1.28 L -5.851976931898184 -1.28 L -5.828310037728774 -1.28 L -5.790186074389769 -1.28 L -5.739516736594795 -1.28 L -5.6788427965176185 -1.28 L -5.61120669886602 -1.28 L -5.54 -1.28 L -5.46879330113398 -1.28 L -5.401157203482382 -1.28 L -5.340483263405205 -1.28 L -5.289813925610231 -1.28 L -5.251689962271226 -1.28 L -5.228023068101816 -1.28 L -5.22 -1.28 " stroke="#191919" stroke-width="0.35 px" style="stroke-width:0.35;stroke-miterlimit:4;stroke-dasharray:none;fill:none;fill-opacity:1;fill-rule: evenodd"/>
<path id="Shape2DView_nwe0140"  d="M -8.63 -1.28 L -8.621976931898184 -1.28 L -8.598310037728774 -1.28 L -8.56018607438977 -1.28 L -8.509516736594795 -1.28 L -8.448842796517619 -1.28 L -8.381206698866022 -1.28 L -8.31 -1.28 L -8.23879330113398 -1.28 L -8.171157203482382 -1.28 L -8.110483263405206 -1.28 L -8.05981392561023 -1.28 L -8.021689962271227 -1.28 L -7.998023068101817 -1.28 L -7.99 -1.28 " stroke="#191919" stroke-width="0.35 px" style="stroke-width:0.35;stroke-miterlimit:4;stroke-dasharray:none;fill:none;fill-opacity:1;fill-rule: evenodd"/>
<path id="Shape2DView_nwe0141"  d="M -16.94 -1.28 L -16.931976931898184 -1.28 L -16.908310037728775 -1.28 L -16.87018607438977 -1.28 L -16.819516736594796 -1.28 L -16.75884279651762 -1.28 L -16.691206698866022 -1.28 L -16.62 -1.28 L -16.54879330113398 -1.28 L -16.481157203482383 -1.28 L -16.420483263405206 -1.28 L -16.36981392561023 -1.28 L -16.331689962271227 -1.28 L -16.308023068101818 -1.28 L -16.3 -1.28 " stroke="#191919" stroke-width="0.35 px" style="stroke-width:0.35;stroke-miterlimit:4;stroke-dasharray:none;fill:none;fill-opacity:1;fill-rule: evenodd"/>
<path id="Shape2DView_nwe0142"  d="M -14.17 -1.28 L -14.161976931898183 -1.28 L -14.138310037728774 -1.28 L -14.10018607438977 -1.28 L -14.049516736594795 -1.28 L -13.988842796517618 -1.28 L -13.92120669886602 -1.28 L -13.85 -1.28 L -13.778793301133978 -1.28 L -13.711157203482381 -1.28 L -13.650483263405205 -1.28 L -13.59981392561023 -1.28 L -13.561689962271226 -1.28 L -13.538023068101817 -1.28 L -13.53 -1.28 " stroke="#191919" stroke-width="0.35 px" style="stroke-width:0.35;stroke-miterlimit:4;stroke-dasharray:none;fill:none;fill-opacity:1;fill-rule: evenodd"/>
<path id="Shape2DView_nwe0143"  d="M -11.4 -1.28 L -11.391976931898183 -1.28 L -11.368310037728774 -1.28 L -11.33018607438977 -1.28 L -11.279516736594795 -1.28 L -11.218842796517619 -1.28 L -11.151206698866021 -1.28 L -11.08 -1.28 L -11.008793301133979 -1.28 L -10.941157203482382 -1.28 L -10.880483263405205 -1.28 L -10.82981392561023 -1.28 L -10.791689962271226 -1.28 L -10.768023068101817 -1.28 L -10.76 -1.28 " stroke="#191919" stroke-width="0.35 px" style="stroke-width:0.35;stroke-miterlimit:4;stroke-dasharray:none;fill:none;fill-opacity:1;fill-rule: evenodd"/>
<path id="Shape2DView_nwe0144"  d="M -22.48 -1.28 L -22.471976931898183 -1.28 L -22.448310037728774 -1.28 L -22.41018607438977 -1.28 L -22.359516736594795 -1.28 L -22.29884279651762 -1.28 L -22.23120669886602 -1.28 L -22.16 -1.28 L -22.08879330113398 -1.28 L -22.02115720348238 -1.28 L -21.960483263405205 -1.28 L -21.90981392561023 -1.28 L -21.871689962271226 -1.28 L -21.848023068101817 -1.28 L -21.84 -1.28 " stroke="#191919" stroke-width="0.35 px" style="stroke-width:0.35;stroke-miterlimit:4;stroke-dasharray:none;fill:none;fill-opacity:1;fill-rule: evenodd"/>
<path id="Shape2DView_nwe0145"  d="M -19.71 -1.28 L -19.701976931898184 -1.28 L -19.678310037728775 -1.28 L -19.64018607438977 -1.28 L -19.589516736594796 -1.28 L -19.52884279651762 -1.28 L -19.46120669886602 -1.28 L -19.39 -1.28 L -19.31879330113398 -1.28 L -19.251157203482382 -1.28 L -19.190483263405206 -1.28 L -19.13981392561023 -1.28 L -19.101689962271227 -1.28 L -19.078023068101817 -1.28 L -19.07 -1.28 " stroke="#191919" stroke-width="0.35 px" style="stroke-width:0.35;stroke-miterlimit:4;stroke-dasharray:none;fill:none;fill-opacity:1;fill-rule: evenodd"/>
<path id="Shape2DView_nwe0146"  d="M -23.865000000000002 -4.12 L -23.856976931898185 -4.12 L -23.833310037728776 -4.12 L -23.795186074389772 -4.12 L -23.744516736594797 -4.12 L -23.68384279651762 -4.12 L -23.616206698866023 -4.12 L -23.545 -4.12 L -23.47379330113398 -4.12 L -23.406157203482383 -4.12 L -23.345483263405207 -4.12 L -23.29481392561023 -4.12 L -23.256689962271228 -4.12 L -23.23302306810182 -4.12 L -23.225 -4.12 " stroke="#191919" stroke-width="0.35 px" style="stroke-width:0.35;stroke-miterlimit:4;stroke-dasharray:none;fill:none;fill-opacity:1;fill-rule: evenodd"/>
<path id="Shape2DView_nwe0147"  d="M -21.095 -4.12 L -21.08697693189818 -4.12 L -21.063310037728773 -4.12 L -21.02518607438977 -4.12 L -20.974516736594794 -4.12 L -20.913842796517617 -4.12 L -20.84620669886602 -4.12 L -20.775 -4.12 L -20.703793301133977 -4.12 L -20.63615720348238 -4.12 L -20.575483263405204 -4.12 L -20.52481392561023 -4.12 L -20.486689962271225 -4.12 L -20.463023068101815 -4.12 L -20.455 -4.12 " stroke="#191919" stroke-width="0.35 px" style="stroke-width:0.35;stroke-miterlimit:4;stroke-dasharray:none;fill:none;fill-opacity:1;fill-rule: evenodd"/>
<path id="Shape2DView_nwe0148"  d="M -15.555 -4.12 L -15.546976931898183 -4.12 L -15.523310037728773 -4.12 L -15.48518607438977 -4.12 L -15.434516736594794 -4.12 L -15.373842796517618 -4.12 L -15.30620669886602 -4.12 L -15.235 -4.12 L -15.163793301133978 -4.12 L -15.096157203482381 -4.12 L -15.035483263405204 -4.12 L -14.98481392561023 -4.12 L -14.946689962271225 -4.12 L -14.923023068101816 -4.12 L -14.915 -4.12 " stroke="#191919" stroke-width="0.35 px" style="stroke-width:0.35;stroke-miterlimit:4;stroke-dasharray:none;fill:none;fill-opacity:1;fill-rule: evenodd"/>
<path id="Shape2DView_nwe0149"  d="M -18.325 -4.12 L -18.316976931898182 -4.12 L -18.293310037728773 -4.12 L -18.25518607438977 -4.12 L -18.204516736594794 -4.12 L -18.143842796517617 -4.12 L -18.07620669886602 -4.12 L -18.005 -4.12 L -17.933793301133978 -4.12 L -17.86615720348238 -4.12 L -17.805483263405204 -4.12 L -17.75481392561023 -4.12 L -17.716689962271225 -4.12 L -17.693023068101816 -4.12 L -17.685 -4.12 " stroke="#191919" stroke-width="0.35 px" style="stroke-width:0.35;stroke-miterlimit:4;stroke-dasharray:none;fill:none;fill-opacity:1;fill-rule: evenodd"/>
<path id="Shape2DView_nwe0150"  d="M -4.4750000000000005 -4.12 L -4.466976931898184 -4.12 L -4.443310037728774 -4.12 L -4.4051860743897695 -4.12 L -4.354516736594795 -4.12 L -4.293842796517619 -4.12 L -4.2262066988660205 -4.12 L -4.155 -4.12 L -4.08379330113398 -4.12 L -4.016157203482382 -4.12 L -3.9554832634052057 -4.12 L -3.904813925610231 -4.12 L -3.8666899622712263 -4.12 L -3.8430230681018167 -4.12 L -3.8350000000000004 -4.12 " stroke="#191919" stroke-width="0.35 px" style="stroke-width:0.35;stroke-miterlimit:4;stroke-dasharray:none;fill:none;fill-opacity:1;fill-rule: evenodd"/>
<path id="Shape2DView_nwe0151"  d="M -7.245 -4.12 L -7.236976931898184 -4.12 L -7.213310037728774 -4.12 L -7.175186074389769 -4.12 L -7.124516736594795 -4.12 L -7.063842796517618 -4.12 L -6.99620669886602 -4.12 L -6.925 -4.12 L -6.8537933011339796 -4.12 L -6.786157203482381 -4.12 L -6.725483263405205 -4.12 L -6.674813925610231 -4.12 L -6.636689962271226 -4.12 L -6.613023068101816 -4.12 L -6.6049999999999995 -4.12 " stroke="#191919" stroke-width="0.35 px" style="stroke-width:0.35;stroke-miterlimit:4;stroke-dasharray:none;fill:none;fill-opacity:1;fill-rule: evenodd"/>
<path id="Shape2DView_nwe0152"  d="M -12.785 -4.12 L -12.776976931898183 -4.12 L -12.753310037728774 -4.12 L -12.71518607438977 -4.12 L -12.664516736594795 -4.12 L -12.603842796517618 -4.12 L -12.536206698866021 -4.12 L -12.465 -4.12 L -12.393793301133979 -4.12 L -12.326157203482381 -4.12 L -12.265483263405205 -4.12 L -12.21481392561023 -4.12 L -12.176689962271226 -4.12 L -12.153023068101817 -4.12 L -12.145 -4.12 " stroke="#191919" stroke-width="0.35 px" style="stroke-width:0.35;stroke-miterlimit:4;stroke-dasharray:none;fill:none;fill-opacity:1;fill-rule: evenodd"/>
<path id="Shape2DView_nwe0153"  d="M -10.015 -4.12 L -10.006976931898183 -4.12 L -9.983310037728774 -4.12 L -9.94518607438977 -4.12 L -9.894516736594795 -4.12 L -9.833842796517619 -4.12 L -9.766206698866021 -4.12 L -9.695 -4.12 L -9.62379330113398 -4.12 L -9.556157203482382 -4.12 L -9.495483263405205 -4.12 L -9.44481392561023 -4.12 L -9.406689962271226 -4.12 L -9.383023068101817 -4.12 L -9.375 -4.12 " stroke="#191919" stroke-width="0.35 px" style="stroke-width:0.35;stroke-miterlimit:4;stroke-dasharray:none;fill:none;fill-opacity:1;fill-rule: evenodd"/>
<path id="Shape2DView_nwe0154"  d="M -0.32 -1.28 L -0.31197693189818354 -1.28 L -0.28831003772877417 -1.28 L -0.2501860743897696 -1.28 L -0.1995167365947948 -1.28 L -0.13884279651761866 -1.28 L -0.07120669886602068 -1.28 L -7.83773951454306e-17 -1.28 L 0.07120669886602053 -1.28 L 0.13884279651761852 -1.28 L 0.19951673659479469 -1.28 L 0.2501860743897695 -1.28 L 0.2883100377287741 -1.28 L 0.31197693189818354 -1.28 L 0.32 -1.28 " stroke="#191919" stroke-width="0.35 px" style="stroke-width:0.35;stroke-miterlimit:4;stroke-dasharray:none;fill:none;fill-opacity:1;fill-rule: evenodd"/>
<path id="Shape2DView_nwe0155"  d="M -1.705 -4.12 L -1.6969769318981835 -4.12 L -1.6733100377287742 -4.12 L -1.6351860743897695 -4.12 L -1.5845167365947948 -4.12 L -1.5238427965176187 -4.12 L -1.4562066988660207 -4.12 L -1.385 -4.12 L -1.3137933011339795 -4.12 L -1.2461572034823816 -4.12 L -1.1854832634052053 -4.12 L -1.1348139256102305 -4.12 L -1.0966899622712258 -4.12 L -1.0730230681018165 -4.12 L -1.065 -4.12 " stroke="#191919" stroke-width="0.35 px" style="stroke-width:0.35;stroke-miterlimit:4;stroke-dasharray:none;fill:none;fill-opacity:1;fill-rule: evenodd"/>
<path id="Shape2DView_nwe0156"  d="M -28.02 -1.28 L -28.011976931898182 -1.28 L -27.988310037728773 -1.28 L -27.95018607438977 -1.28 L -27.899516736594794 -1.28 L -27.838842796517618 -1.28 L -27.77120669886602 -1.28 L -27.7 -1.28 L -27.628793301133978 -1.28 L -27.56115720348238 -1.28 L -27.500483263405204 -1.28 L -27.44981392561023 -1.28 L -27.411689962271225 -1.28 L -27.388023068101816 -1.28 L -27.38 -1.28 " stroke="#191919" stroke-width="0.35 px" style="stroke-width:0.35;stroke-miterlimit:4;stroke-dasharray:none;fill:none;fill-opacity:1;fill-rule: evenodd"/>
<path id="Shape2DView_nwe0157"  d="M -25.25 -1.28 L -25.241976931898183 -1.28 L -25.218310037728774 -1.28 L -25.18018607438977 -1.28 L -25.129516736594795 -1.28 L -25.068842796517618 -1.28 L -25.00120669886602 -1.28 L -24.93 -1.28 L -24.85879330113398 -1.28 L -24.79115720348238 -1.28 L -24.730483263405205 -1.28 L -24.67981392561023 -1.28 L -24.641689962271226 -1.28 L -24.618023068101817 -1.28 L -24.61 -1.28 " stroke="#191919" stroke-width="0.35 px" style="stroke-width:0.35;stroke-miterlimit:4;stroke-dasharray:none;fill:none;fill-opacity:1;fill-rule: evenodd"/>
<path id="Shape2DView_nwe0158"  d="M -26.635 -4.12 L -26.626976931898184 -4.12 L -26.603310037728775 -4.12 L -26.56518607438977 -4.12 L -26.514516736594796 -4.12 L -26.45384279651762 -4.12 L -26.386206698866022 -4.12 L -26.315 -4.12 L -26.24379330113398 -4.12 L -26.176157203482383 -4.12 L -26.115483263405206 -4.12 L -26.06481392561023 -4.12 L -26.026689962271227 -4.12 L -26.003023068101818 -4.12 L -25.995 -4.12 " stroke="#191919" stroke-width="0.35 px" style="stroke-width:0.35;stroke-miterlimit:4;stroke-dasharray:none;fill:none;fill-opacity:1;fill-rule: evenodd"/>
<path id="Shape2DView_nwe0159"  d="M -30.79 -1.28 L -30.781976931898182 -1.28 L -30.758310037728773 -1.28 L -30.72018607438977 -1.28 L -30.669516736594794 -1.28 L -30.608842796517617 -1.28 L -30.54120669886602 -1.28 L -30.47 -1.28 L -30.398793301133978 -1.28 L -30.33115720348238 -1.28 L -30.270483263405204 -1.28 L -30.21981392561023 -1.28 L -30.181689962271225 -1.28 L -30.158023068101816 -1.28 L -30.15 -1.28 " stroke="#191919" stroke-width="0.35 px" style="stroke-width:0.35;stroke-miterlimit:4;stroke-dasharray:none;fill:none;fill-opacity:1;fill-rule: evenodd"/>
<path id="Shape2DView_nwe0160"  d="M -29.405 -4.12 L -29.396976931898184 -4.12 L -29.373310037728775 -4.12 L -29.33518607438977 -4.12 L -29.284516736594796 -4.12 L -29.22384279651762 -4.12 L -29.156206698866022 -4.12 L -29.085 -4.12 L -29.01379330113398 -4.12 L -28.946157203482382 -4.12 L -28.885483263405206 -4.12 L -28.83481392561023 -4.12 L -28.796689962271227 -4.12 L -28.773023068101818 -4.12 L -28.765 -4.12 " stroke="#191919" stroke-width="0.35 px" style="stroke-width:0.35;stroke-miterlimit:4;stroke-dasharray:none;fill:none;fill-opacity:1;fill-rule: evenodd"/>
<path id="Shape2DView_nwe0161"  d="M -32.175 -4.12 L -32.16697693189818 -4.12 L -32.143310037728774 -4.12 L -32.10518607438977 -4.12 L -32.05451673659479 -4.12 L -31.99384279651762 -4.12 L -31.92620669886602 -4.12 L -31.855 -4.12 L -31.78379330113398 -4.12 L -31.716157203482382 -4.12 L -31.655483263405205 -4.12 L -31.60481392561023 -4.12 L -31.566689962271226 -4.12 L -31.543023068101817 -4.12 L -31.535 -4.12 " stroke="#191919" stroke-width="0.35 px" style="stroke-width:0.35;stroke-miterlimit:4;stroke-dasharray:none;fill:none;fill-opacity:1;fill-rule: evenodd"/>
<path id="Shape2DView_nwe0162"  d="M -36.17 -8.14 L -36.17 -8.146287790106758 L -36.17 -8.165072087818176 L -36.17 -8.196116669691634 L -36.17 -8.239031132097582 L -36.17 -8.293275800771717 L -36.17 -8.35816851753197 L -36.17 -8.432893218813453 L -36.17 -8.516510198141267 L -36.17 -8.607967923484663 L -36.17 -8.706116260882443 L -36.17 -8.809720938044833 L -36.17 -8.917479066043686 L -36.17 -9.028035523896692 L -36.17 -9.14 " stroke="#191919" stroke-width="0.35 px" style="stroke-width:0.35;stroke-miterlimit:4;stroke-dasharray:none;fill:none;fill-opacity:1;fill-rule: evenodd"/>
<path id="Shape2DView_nwe0163"  d="M 2.93 -9.14 L -36.17 -9.14 " stroke="#191919" stroke-width="0.35 px" style="stroke-width:0.35;stroke-miterlimit:4;stroke-dasharray:none;fill:none;fill-opacity:1;fill-rule: evenodd"/>
<path id="Shape2DView_nwe0164"  d="M 2.93 -8.14 L 2.93 -8.146287790106758 L 2.93 -8.165072087818176 L 2.93 -8.196116669691634 L 2.93 -8.239031132097582 L 2.93 -8.293275800771717 L 2.93 -8.35816851753197 L 2.93 -8.432893218813453 L 2.93 -8.516510198141267 L 2.93 -8.607967923484663 L 2.93 -8.706116260882443 L 2.93 -8.809720938044833 L 2.93 -8.917479066043686 L 2.93 -9.028035523896692 L 2.93 -9.14 " stroke="#191919" stroke-width="0.35 px" style="stroke-width:0.35;stroke-miterlimit:4;stroke-dasharray:none;fill:none;fill-opacity:1;fill-rule: evenodd"/>
<circle cx="-2.77" cy="2.850275026918e-33" r="0.32" stroke="#191919" stroke-width="0.35 px" style="stroke-width:0.35;stroke-miterlimit:4;stroke-dasharray:none;fill:none"/>
<circle cx="-5.54" cy="2.850275026918e-33" r="0.32" stroke="#191919" stroke-width="0.35 px" style="stroke-width:0.35;stroke-miterlimit:4;stroke-dasharray:none;fill:none"/>
<circle cx="-8.31" cy="2.850275026918e-33" r="0.32" stroke="#191919" stroke-width="0.35 px" style="stroke-width:0.35;stroke-miterlimit:4;stroke-dasharray:none;fill:none"/>
<circle cx="-16.62" cy="2.850275026918e-33" r="0.32" stroke="#191919" stroke-width="0.35 px" style="stroke-width:0.35;stroke-miterlimit:4;stroke-dasharray:none;fill:none"/>
<circle cx="-13.85" cy="2.850275026918e-33" r="0.32" stroke="#191919" stroke-width="0.35 px" style="stroke-width:0.35;stroke-miterlimit:4;stroke-dasharray:none;fill:none"/>
<circle cx="-11.08" cy="2.850275026918e-33" r="0.32" stroke="#191919" stroke-width="0.35 px" style="stroke-width:0.35;stroke-miterlimit:4;stroke-dasharray:none;fill:none"/>
<circle cx="-22.16" cy="2.850275026918e-33" r="0.32" stroke="#191919" stroke-width="0.35 px" style="stroke-width:0.35;stroke-miterlimit:4;stroke-dasharray:none;fill:none"/>
<circle cx="-19.39" cy="2.850275026918e-33" r="0.32" stroke="#191919" stroke-width="0.35 px" style="stroke-width:0.35;stroke-miterlimit:4;stroke-dasharray:none;fill:none"/>
<circle cx="-23.545" cy="-2.84" r="0.32" stroke="#191919" stroke-width="0.35 px" style="stroke-width:0.35;stroke-miterlimit:4;stroke-dasharray:none;fill:none"/>
<circle cx="-20.775" cy="-2.84" r="0.32" stroke="#191919" stroke-width="0.35 px" style="stroke-width:0.35;stroke-miterlimit:4;stroke-dasharray:none;fill:none"/>
<circle cx="-15.235" cy="-2.84" r="0.32" stroke="#191919" stroke-width="0.35 px" style="stroke-width:0.35;stroke-miterlimit:4;stroke-dasharray:none;fill:none"/>
<circle cx="-18.005" cy="-2.84" r="0.32" stroke="#191919" stroke-width="0.35 px" style="stroke-width:0.35;stroke-miterlimit:4;stroke-dasharray:none;fill:none"/>
<circle cx="-4.155" cy="-2.84" r="0.32" stroke="#191919" stroke-width="0.35 px" style="stroke-width:0.35;stroke-miterlimit:4;stroke-dasharray:none;fill:none"/>
<circle cx="-6.925" cy="-2.84" r="0.32" stroke="#191919" stroke-width="0.35 px" style="stroke-width:0.35;stroke-miterlimit:4;stroke-dasharray:none;fill:none"/>
<circle cx="-12.465" cy="-2.84" r="0.32" stroke="#191919" stroke-width="0.35 px" style="stroke-width:0.35;stroke-miterlimit:4;stroke-dasharray:none;fill:none"/>
<circle cx="-9.695" cy="-2.84" r="0.32" stroke="#191919" stroke-width="0.35 px" style="stroke-width:0.35;stroke-miterlimit:4;stroke-dasharray:none;fill:none"/>
<circle cx="-6.568586551523e-49" cy="2.850275026918e-33" r="0.32" stroke="#191919" stroke-width="0.35 px" style="stroke-width:0.35;stroke-miterlimit:4;stroke-dasharray:none;fill:none"/>
<circle cx="-1.385" cy="-2.84" r="0.32" stroke="#191919" stroke-width="0.35 px" style="stroke-width:0.35;stroke-miterlimit:4;stroke-dasharray:none;fill:none"/>
<circle cx="-27.7" cy="2.850275026918e-33" r="0.32" stroke="#191919" stroke-width="0.35 px" style="stroke-width:0.35;stroke-miterlimit:4;stroke-dasharray:none;fill:none"/>
<circle cx="-24.93" cy="2.850275026918e-33" r="0.32" stroke="#191919" stroke-width="0.35 px" style="stroke-width:0.35;stroke-miterlimit:4;stroke-dasharray:none;fill:none"/>
<circle cx="-26.315" cy="-2.84" r="0.32" stroke="#191919" stroke-width="0.35 px" style="stroke-width:0.35;stroke-miterlimit:4;stroke-dasharray:none;fill:none"/>
<circle cx="-30.47" cy="2.850275026918e-33" r="0.32" stroke="#191919" stroke-width="0.35 px" style="stroke-width:0.35;stroke-miterlimit:4;stroke-dasharray:none;fill:none"/>
<circle cx="-29.085" cy="-2.84" r="0.32" stroke="#191919" stroke-width="0.35 px" style="stroke-width:0.35;stroke-miterlimit:4;stroke-dasharray:none;fill:none"/>
<path id="Shape2DView_nwe0191"  d="M 3.93 -9.14 L 3.923712209893243 -9.14 L 3.9049279121818237 -9.14 L 3.8738833303083675 -9.14 L 3.830968867902419 -9.14 L 3.7767241992282843 -9.14 L 3.71183148246803 -9.14 L 3.6371067811865476 -9.14 L 3.553489801858734 -9.14 L 3.462032076515337 -9.14 L 3.3638837391175582 -9.14 L 3.2602790619551674 -9.14 L 3.1525209339563145 -9.14 L 3.041964476103308 -9.14 L 2.93 -9.14 " stroke="#191919" stroke-width="0.35 px" style="stroke-width:0.35;stroke-miterlimit:4;stroke-dasharray:none;fill:none;fill-opacity:1;fill-rule: evenodd"/>
<path id="Shape2DView_nwe0192"  d="M 2.93 -9.14 L 2.93 -12.14 " stroke="#191919" stroke-width="0.35 px" style="stroke-width:0.35;stroke-miterlimit:4;stroke-dasharray:none;fill:none;fill-opacity:1;fill-rule: evenodd"/>
<path id="Shape2DView_nwe0193"  d="M -36.17 -9.14 L -36.17 -12.14 " stroke="#191919" stroke-width="0.35 px" style="stroke-width:0.35;stroke-miterlimit:4;stroke-dasharray:none;fill:none;fill-opacity:1;fill-rule: evenodd"/>
<path id="Shape2DView_nwe0194"  d="M -36.17 -9.14 L -36.28196447610331 -9.14 L -36.39252093395632 -9.14 L -36.50027906195517 -9.14 L -36.60388373911756 -9.14 L -36.70203207651534 -9.14 L -36.79348980185873 -9.14 L -36.87710678118655 -9.14 L -36.95183148246803 -9.14 L -37.016724199228285 -9.14 L -37.07096886790242 -9.14 L -37.11388333030837 -9.14 L -37.14492791218183 -9.14 L -37.16371220989324 -9.14 L -37.17 -9.14 " stroke="#191919" stroke-width="0.35 px" style="stroke-width:0.35;stroke-miterlimit:4;stroke-dasharray:none;fill:none;fill-opacity:1;fill-rule: evenodd"/>
<path id="Shape2DView_nwe0195"  d="M 8.93 -12.24 L 8.93 -12.22880355238967 L 8.93 -12.21774790660437 L 8.93 -12.206972093804483 L 8.93 -12.196611626088245 L 8.93 -12.186796792348467 L 8.93 -12.177651019814126 L 8.93 -12.169289321881346 L 8.93 -12.161816851753198 L 8.93 -12.155327580077172 L 8.93 -12.149903113209758 L 8.93 -12.145611666969163 L 8.93 -12.142507208781819 L 8.93 -12.140628779010676 L 8.93 -12.14 " stroke="#191919" stroke-width="0.35 px" style="stroke-width:0.35;stroke-miterlimit:4;stroke-dasharray:none;fill:none;fill-opacity:1;fill-rule: evenodd"/>
<path id="Shape2DView_nwe0196"  d="M -42.17 -12.24 L -42.17 -12.22880355238967 L -42.17 -12.21774790660437 L -42.17 -12.206972093804483 L -42.17 -12.196611626088245 L -42.17 -12.186796792348467 L -42.17 -12.177651019814126 L -42.17 -12.169289321881346 L -42.17 -12.161816851753198 L -42.17 -12.155327580077172 L -42.17 -12.149903113209758 L -42.17 -12.145611666969163 L -42.17 -12.142507208781819 L -42.17 -12.140628779010676 L -42.17 -12.14 " stroke="#191919" stroke-width="0.35 px" style="stroke-width:0.35;stroke-miterlimit:4;stroke-dasharray:none;fill:none;fill-opacity:1;fill-rule: evenodd"/>
<path id="Shape2DView_nwe0197"  d="M 8.93 -12.24 L -42.17 -12.24 " stroke="#191919" stroke-width="0.35 px" style="stroke-width:0.35;stroke-miterlimit:4;stroke-dasharray:none;fill:none;fill-opacity:1;fill-rule: evenodd"/>
<path id="Shape2DView_nwe0198"  d="M 9.93 -12.24 L 9.923712209893242 -12.24 L 9.904927912181824 -12.24 L 9.873883330308367 -12.24 L 9.830968867902419 -12.24 L 9.776724199228283 -12.24 L 9.71183148246803 -12.24 L 9.637106781186548 -12.24 L 9.553489801858733 -12.24 L 9.462032076515337 -12.24 L 9.363883739117558 -12.24 L 9.260279061955167 -12.24 L 9.152520933956314 -12.24 L 9.041964476103308 -12.24 L 8.93 -12.24 " stroke="#191919" stroke-width="0.35 px" style="stroke-width:0.35;stroke-miterlimit:4;stroke-dasharray:none;fill:none;fill-opacity:1;fill-rule: evenodd"/>
<path id="Shape2DView_nwe0199"  d="M -42.17 -12.24 L -42.28196447610331 -12.24 L -42.39252093395632 -12.24 L -42.50027906195517 -12.24 L -42.60388373911756 -12.24 L -42.70203207651534 -12.24 L -42.79348980185873 -12.24 L -42.87710678118655 -12.24 L -42.95183148246803 -12.24 L -43.016724199228285 -12.24 L -43.07096886790242 -12.24 L -43.11388333030837 -12.24 L -43.14492791218183 -12.24 L -43.16371220989324 -12.24 L -43.17 -12.24 " stroke="#191919" stroke-width="0.35 px" style="stroke-width:0.35;stroke-miterlimit:4;stroke-dasharray:none;fill:none;fill-opacity:1;fill-rule: evenodd"/>
<path id="Shape2DView_nwe0201"  d="M -42.17 -12.24 L -42.17 -12.44 " stroke="#191919" stroke-width="0.35 px" style="stroke-width:0.35;stroke-miterlimit:4;stroke-dasharray:none;fill:none;fill-opacity:1;fill-rule: evenodd"/>
<path id="Shape2DView_nwe0202"  d="M 8.93 -12.24 L 8.93 -12.44 " stroke="#191919" stroke-width="0.35 px" style="stroke-width:0.35;stroke-miterlimit:4;stroke-dasharray:none;fill:none;fill-opacity:1;fill-rule: evenodd"/>
<path id="Shape2DView_nwe0203"  d="M 8.93 -12.44 L -42.17 -12.44 " stroke="#191919" stroke-width="0.35 px" style="stroke-width:0.35;stroke-miterlimit:4;stroke-dasharray:none;fill:none;fill-opacity:1;fill-rule: evenodd"/>
<path id="Shape2DView_nwe0204"  d="M 9.93 -12.44 L 9.923712209893242 -12.44 L 9.904927912181824 -12.44 L 9.873883330308367 -12.44 L 9.830968867902419 -12.44 L 9.776724199228283 -12.44 L 9.71183148246803 -12.44 L 9.637106781186548 -12.44 L 9.553489801858733 -12.44 L 9.462032076515337 -12.44 L 9.363883739117558 -12.44 L 9.260279061955167 -12.44 L 9.152520933956314 -12.44 L 9.041964476103308 -12.44 L 8.93 -12.44 " stroke="#191919" stroke-width="0.35 px" style="stroke-width:0.35;stroke-miterlimit:4;stroke-dasharray:none;fill:none;fill-opacity:1;fill-rule: evenodd"/>
<path id="Shape2DView_nwe0205"  d="M -42.17 -12.44 L -42.28196447610331 -12.44 L -42.39252093395632 -12.44 L -42.50027906195517 -12.44 L -42.60388373911756 -12.44 L -42.70203207651534 -12.44 L -42.79348980185873 -12.44 L -42.87710678118655 -12.44 L -42.95183148246803 -12.44 L -43.016724199228285 -12.44 L -43.07096886790242 -12.44 L -43.11388333030837 -12.44 L -43.14492791218183 -12.44 L -43.16371220989324 -12.44 L -43.17 -12.44 " stroke="#191919" stroke-width="0.35 px" style="stroke-width:0.35;stroke-miterlimit:4;stroke-dasharray:none;fill:none;fill-opacity:1;fill-rule: evenodd"/>
<path id="Shape2DView_nwe0206"  d="M -42.17 -12.44 L -42.17 -12.45119644761033 L -42.17 -12.46225209339563 L -42.17 -12.473027906195517 L -42.17 -12.483388373911755 L -42.17 -12.493203207651533 L -42.17 -12.502348980185873 L -42.17 -12.510710678118654 L -42.17 -12.518183148246802 L -42.17 -12.524672419922828 L -42.17 -12.530096886790242 L -42.17 -12.534388333030837 L -42.17 -12.537492791218181 L -42.17 -12.539371220989324 L -42.17 -12.54 " stroke="#191919" stroke-width="0.35 px" style="stroke-width:0.35;stroke-miterlimit:4;stroke-dasharray:none;fill:none;fill-opacity:1;fill-rule: evenodd"/>
<path id="Shape2DView_nwe0207"  d="M 8.93 -12.44 L 8.93 -12.45119644761033 L 8.93 -12.46225209339563 L 8.93 -12.473027906195517 L 8.93 -12.483388373911755 L 8.93 -12.493203207651533 L 8.93 -12.502348980185873 L 8.93 -12.510710678118654 L 8.93 -12.518183148246802 L 8.93 -12.524672419922828 L 8.93 -12.530096886790242 L 8.93 -12.534388333030837 L 8.93 -12.537492791218181 L 8.93 -12.539371220989324 L 8.93 -12.54 " stroke="#191919" stroke-width="0.35 px" style="stroke-width:0.35;stroke-miterlimit:4;stroke-dasharray:none;fill:none;fill-opacity:1;fill-rule: evenodd"/>
<path id="Shape2DView_nwe0209"  d="M -34.57943192049 -13.14 L -34.57943192049 -13.072821314338016 L -34.57943192049 -13.006487439626213 L -34.57943192049 -12.941832562826901 L -34.57943192049 -12.879669756529466 L -34.57943192049 -12.8207807540908 L -34.57943192049 -12.765906118884761 L -34.57943192049 -12.715735931288073 L -34.57943192049 -12.670901110519182 L -34.57943192049 -12.63196548046303 L -34.57943192049 -12.59941867925855 L -34.57943192049 -12.57367000181498 L -34.57943192049 -12.555043252690906 L -34.57943192049 -12.543772674064055 L -34.57943192049 -12.540000000000001 " stroke="#191919" stroke-width="0.35 px" style="stroke-width:0.35;stroke-miterlimit:4;stroke-dasharray:none;fill:none;fill-opacity:1;fill-rule: evenodd"/>
<path id="Shape2DView_nwe0210"  d="M -35.57943192049 -13.14 L -35.57314413038324 -13.14 L -35.55435983267183 -13.14 L -35.52331525079837 -13.14 L -35.48040078839242 -13.14 L -35.426156119718286 -13.14 L -35.36126340295803 -13.14 L -35.28653870167655 -13.14 L -35.202921722348734 -13.14 L -35.11146399700534 -13.14 L -35.01331565960756 -13.14 L -34.90971098244517 -13.14 L -34.80195285444632 -13.14 L -34.69139639659331 -13.14 L -34.57943192049 -13.14 " stroke="#191919" stroke-width="0.35 px" style="stroke-width:0.35;stroke-miterlimit:4;stroke-dasharray:none;fill:none;fill-opacity:1;fill-rule: evenodd"/>
<path id="Shape2DView_nwe0211"  d="M 1.339431920499 -13.14 L 1.339431920499 -13.072821314338016 L 1.339431920499 -13.006487439626213 L 1.339431920499 -12.941832562826901 L 1.339431920499 -12.879669756529466 L 1.339431920499 -12.820780754090798 L 1.339431920499 -12.765906118884761 L 1.339431920499 -12.715735931288073 L 1.339431920499 -12.670901110519182 L 1.339431920499 -12.63196548046303 L 1.339431920499 -12.59941867925855 L 1.339431920499 -12.57367000181498 L 1.339431920499 -12.555043252690906 L 1.339431920499 -12.543772674064055 L 1.339431920499 -12.540000000000001 " stroke="#191919" stroke-width="0.35 px" style="stroke-width:0.35;stroke-miterlimit:4;stroke-dasharray:none;fill:none;fill-opacity:1;fill-rule: evenodd"/>
<path id="Shape2DView_nwe0212"  d="M -34.57943192049 -13.14 L 1.3394319204990026 -13.14 " stroke="#191919" stroke-width="0.35 px" style="stroke-width:0.35;stroke-miterlimit:4;stroke-dasharray:none;fill:none;fill-opacity:1;fill-rule: evenodd"/>
<path id="Shape2DView_nwe0213"  d="M 1.339431920499 -13.14 L 1.4513963966023078 -13.14 L 1.561952854455314 -13.14 L 1.6697109824541667 -13.14 L 1.7733156596165576 -13.14 L 1.871463997014336 -13.14 L 1.9629217223577329 -13.14 L 2.046538701685547 -13.14 L 2.1212634029670294 -13.14 L 2.1861561197272836 -13.14 L 2.2404007884014185 -13.14 L 2.2833152508073673 -13.14 L 2.3143598326808235 -13.14 L 2.3331441303922427 -13.14 L 2.339431920499 -13.14 " stroke="#191919" stroke-width="0.35 px" style="stroke-width:0.35;stroke-miterlimit:4;stroke-dasharray:none;fill:none;fill-opacity:1;fill-rule: evenodd"/>
<path id="Shape2DView_nwe0214"  d="M -34.57943192049 -13.14 L -34.57943192049 -18.29 " stroke="#191919" stroke-width="0.35 px" style="stroke-width:0.35;stroke-miterlimit:4;stroke-dasharray:none;fill:none;fill-opacity:1;fill-rule: evenodd"/>
<path id="Shape2DView_nwe0215"  d="M 1.339431920499 -13.14 L 1.339431920499 -18.29 " stroke="#191919" stroke-width="0.35 px" style="stroke-width:0.35;stroke-miterlimit:4;stroke-dasharray:none;fill:none;fill-opacity:1;fill-rule: evenodd"/>
<path id="Shape2DView_nwe0216"  d="M -34.57943192049 -18.34 L -34.57943192049 -18.29 " stroke="#191919" stroke-width="0.35 px" style="stroke-width:0.35;stroke-miterlimit:4;stroke-dasharray:none;fill:none;fill-opacity:1;fill-rule: evenodd"/>
<path id="Shape2DView_nwe0217"  d="M 1.339431920499 -18.34 L 1.339431920499 -18.29 " stroke="#191919" stroke-width="0.35 px" style="stroke-width:0.35;stroke-miterlimit:4;stroke-dasharray:none;fill:none;fill-opacity:1;fill-rule: evenodd"/>
<path id="Shape2DView_nwe0218"  d="M -34.4740820053 -18.34 L -34.4740820053 -18.54 " stroke="#191919" stroke-width="0.35 px" style="stroke-width:0.35;stroke-miterlimit:4;stroke-dasharray:none;fill:none;fill-opacity:1;fill-rule: evenodd"/>
<path id="Shape2DView_nwe0219"  d="M 1.234082005303 -18.34 L 1.234082005303 -18.54 " stroke="#191919" stroke-width="0.35 px" style="stroke-width:0.35;stroke-miterlimit:4;stroke-dasharray:none;fill:none;fill-opacity:1;fill-rule: evenodd"/>
<path id="Shape2DView_nwe0220"  d="M -34.4740820053 -18.54 L -34.4740820053 -18.64 " stroke="#191919" stroke-width="0.35 px" style="stroke-width:0.35;stroke-miterlimit:4;stroke-dasharray:none;fill:none;fill-opacity:1;fill-rule: evenodd"/>
<path id="Shape2DView_nwe0221"  d="M 1.234082005303 -18.54 L 1.234082005303 -18.64 " stroke="#191919" stroke-width="0.35 px" style="stroke-width:0.35;stroke-miterlimit:4;stroke-dasharray:none;fill:none;fill-opacity:1;fill-rule: evenodd"/>
<path id="Shape2DView_nwe0222"  d="M -33.56 -1.28 Q -33.56 -0.9984389288724146 -33.56 -0.7168778577448294 Q -33.56 -0.594373139784815 -33.56 -0.4718684218248004 Q -33.56 -0.01253569909932381 -33.56 0.0 " stroke="#191919" stroke-width="0.35 px" style="stroke-width:0.35;stroke-miterlimit:4;stroke-dasharray:none;fill:none;fill-opacity:1;fill-rule: evenodd"/>
<path id="Shape2DView_nwe0223"  d="M -33.56 -1.28 L -33.56 -7.84 " stroke="#191919" stroke-width="0.35 px" style="stroke-width:0.35;stroke-miterlimit:4;stroke-dasharray:none;fill:none;fill-opacity:1;fill-rule: evenodd"/>
<path id="Shape2DView_nwe0224"  d="M -3.09 -1.28 L -3.09 -7.84 " stroke="#191919" stroke-width="0.35 px" style="stroke-width:0.35;stroke-miterlimit:4;stroke-dasharray:none;fill:none;fill-opacity:1;fill-rule: evenodd"/>
<path id="Shape2DView_nwe0225"  d="M -5.86 -1.28 L -5.86 -7.84 " stroke="#191919" stroke-width="0.35 px" style="stroke-width:0.35;stroke-miterlimit:4;stroke-dasharray:none;fill:none;fill-opacity:1;fill-rule: evenodd"/>
<path id="Shape2DView_nwe0226"  d="M -8.63 -1.28 L -8.63 -7.84 " stroke="#191919" stroke-width="0.35 px" style="stroke-width:0.35;stroke-miterlimit:4;stroke-dasharray:none;fill:none;fill-opacity:1;fill-rule: evenodd"/>
<path id="Shape2DView_nwe0227"  d="M -16.94 -1.28 L -16.94 -7.84 " stroke="#191919" stroke-width="0.35 px" style="stroke-width:0.35;stroke-miterlimit:4;stroke-dasharray:none;fill:none;fill-opacity:1;fill-rule: evenodd"/>
<path id="Shape2DView_nwe0228"  d="M -14.17 -1.28 L -14.17 -7.84 " stroke="#191919" stroke-width="0.35 px" style="stroke-width:0.35;stroke-miterlimit:4;stroke-dasharray:none;fill:none;fill-opacity:1;fill-rule: evenodd"/>
<path id="Shape2DView_nwe0229"  d="M -11.4 -1.28 L -11.4 -7.84 " stroke="#191919" stroke-width="0.35 px" style="stroke-width:0.35;stroke-miterlimit:4;stroke-dasharray:none;fill:none;fill-opacity:1;fill-rule: evenodd"/>
<path id="Shape2DView_nwe0230"  d="M -22.48 -1.28 L -22.48 -7.84 " stroke="#191919" stroke-width="0.35 px" style="stroke-width:0.35;stroke-miterlimit:4;stroke-dasharray:none;fill:none;fill-opacity:1;fill-rule: evenodd"/>
<path id="Shape2DView_nwe0231"  d="M -19.71 -1.28 L -19.71 -7.84 " stroke="#191919" stroke-width="0.35 px" style="stroke-width:0.35;stroke-miterlimit:4;stroke-dasharray:none;fill:none;fill-opacity:1;fill-rule: evenodd"/>
<path id="Shape2DView_nwe0232"  d="M -23.865000000000002 -4.12 L -23.865000000000002 -7.84 " stroke="#191919" stroke-width="0.35 px" style="stroke-width:0.35;stroke-miterlimit:4;stroke-dasharray:none;fill:none;fill-opacity:1;fill-rule: evenodd"/>
<path id="Shape2DView_nwe0233"  d="M -21.095 -4.12 L -21.095 -7.84 " stroke="#191919" stroke-width="0.35 px" style="stroke-width:0.35;stroke-miterlimit:4;stroke-dasharray:none;fill:none;fill-opacity:1;fill-rule: evenodd"/>
<path id="Shape2DView_nwe0234"  d="M -15.555 -4.12 L -15.555 -7.84 " stroke="#191919" stroke-width="0.35 px" style="stroke-width:0.35;stroke-miterlimit:4;stroke-dasharray:none;fill:none;fill-opacity:1;fill-rule: evenodd"/>
<path id="Shape2DView_nwe0235"  d="M -18.325 -4.12 L -18.325 -7.84 " stroke="#191919" stroke-width="0.35 px" style="stroke-width:0.35;stroke-miterlimit:4;stroke-dasharray:none;fill:none;fill-opacity:1;fill-rule: evenodd"/>
<path id="Shape2DView_nwe0236"  d="M -4.4750000000000005 -4.12 L -4.4750000000000005 -7.84 " stroke="#191919" stroke-width="0.35 px" style="stroke-width:0.35;stroke-miterlimit:4;stroke-dasharray:none;fill:none;fill-opacity:1;fill-rule: evenodd"/>
<path id="Shape2DView_nwe0237"  d="M -7.245 -4.12 L -7.245 -7.84 " stroke="#191919" stroke-width="0.35 px" style="stroke-width:0.35;stroke-miterlimit:4;stroke-dasharray:none;fill:none;fill-opacity:1;fill-rule: evenodd"/>
<path id="Shape2DView_nwe0238"  d="M -12.785 -4.12 L -12.785 -7.84 " stroke="#191919" stroke-width="0.35 px" style="stroke-width:0.35;stroke-miterlimit:4;stroke-dasharray:none;fill:none;fill-opacity:1;fill-rule: evenodd"/>
<path id="Shape2DView_nwe0239"  d="M -10.015 -4.12 L -10.015 -7.84 " stroke="#191919" stroke-width="0.35 px" style="stroke-width:0.35;stroke-miterlimit:4;stroke-dasharray:none;fill:none;fill-opacity:1;fill-rule: evenodd"/>
<path id="Shape2DView_nwe0240"  d="M -0.32 -1.28 L -0.32 -7.84 " stroke="#191919" stroke-width="0.35 px" style="stroke-width:0.35;stroke-miterlimit:4;stroke-dasharray:none;fill:none;fill-opacity:1;fill-rule: evenodd"/>
<path id="Shape2DView_nwe0241"  d="M -1.705 -4.12 L -1.705 -7.84 " stroke="#191919" stroke-width="0.35 px" style="stroke-width:0.35;stroke-miterlimit:4;stroke-dasharray:none;fill:none;fill-opacity:1;fill-rule: evenodd"/>
<path id="Shape2DView_nwe0242"  d="M -28.02 -1.28 L -28.02 -7.84 " stroke="#191919" stroke-width="0.35 px" style="stroke-width:0.35;stroke-miterlimit:4;stroke-dasharray:none;fill:none;fill-opacity:1;fill-rule: evenodd"/>
<path id="Shape2DView_nwe0243"  d="M -25.25 -1.28 L -25.25 -7.84 " stroke="#191919" stroke-width="0.35 px" style="stroke-width:0.35;stroke-miterlimit:4;stroke-dasharray:none;fill:none;fill-opacity:1;fill-rule: evenodd"/>
<path id="Shape2DView_nwe0244"  d="M -26.635 -4.12 L -26.635 -7.84 " stroke="#191919" stroke-width="0.35 px" style="stroke-width:0.35;stroke-miterlimit:4;stroke-dasharray:none;fill:none;fill-opacity:1;fill-rule: evenodd"/>
<path id="Shape2DView_nwe0245"  d="M -30.79 -1.28 L -30.79 -7.84 " stroke="#191919" stroke-width="0.35 px" style="stroke-width:0.35;stroke-miterlimit:4;stroke-dasharray:none;fill:none;fill-opacity:1;fill-rule: evenodd"/>
<path id="Shape2DView_nwe0246"  d="M -29.405 -4.12 L -29.405 -7.84 " stroke="#191919" stroke-width="0.35 px" style="stroke-width:0.35;stroke-miterlimit:4;stroke-dasharray:none;fill:none;fill-opacity:1;fill-rule: evenodd"/>
<path id="Shape2DView_nwe0247"  d="M -32.175 -4.12 L -32.175 -7.84 " stroke="#191919" stroke-width="0.35 px" style="stroke-width:0.35;stroke-miterlimit:4;stroke-dasharray:none;fill:none;fill-opacity:1;fill-rule: evenodd"/>
<path id="Shape2DView_nwe0248"  d="M -3.09 -1.28 Q -3.09 -0.9984389288724146 -3.09 -0.7168778577448294 Q -3.0900000000000003 -0.594373139784815 -3.09 -0.4718684218248004 Q -3.0900000000000003 -0.01253569909932381 -3.09 0.0 " stroke="#191919" stroke-width="0.35 px" style="stroke-width:0.35;stroke-miterlimit:4;stroke-dasharray:none;fill:none;fill-opacity:1;fill-rule: evenodd"/>
<path id="Shape2DView_nwe0249"  d="M -5.86 -1.28 Q -5.860000000000001 -0.9984389288724146 -5.86 -0.7168778577448294 Q -5.859999999999999 -0.594373139784815 -5.86 -0.4718684218248004 Q -5.859999999999999 -0.01253569909932381 -5.86 0.0 " stroke="#191919" stroke-width="0.35 px" style="stroke-width:0.35;stroke-miterlimit:4;stroke-dasharray:none;fill:none;fill-opacity:1;fill-rule: evenodd"/>
<path id="Shape2DView_nwe0250"  d="M -8.63 -1.28 Q -8.629999999999999 -0.9984389288724146 -8.63 -0.7168778577448294 Q -8.629999999999999 -0.594373139784815 -8.63 -0.4718684218248004 Q -8.629999999999999 -0.01253569909932381 -8.63 0.0 " stroke="#191919" stroke-width="0.35 px" style="stroke-width:0.35;stroke-miterlimit:4;stroke-dasharray:none;fill:none;fill-opacity:1;fill-rule: evenodd"/>
<path id="Shape2DView_nwe0251"  d="M -16.94 -1.28 Q -16.939999999999998 -0.9984389288724146 -16.939999999999998 -0.7168778577448294 Q -16.939999999999998 -0.594373139784815 -16.94 -0.4718684218248004 Q -16.940000000000005 -0.01253569909932381 -16.94 0.0 " stroke="#191919" stroke-width="0.35 px" style="stroke-width:0.35;stroke-miterlimit:4;stroke-dasharray:none;fill:none;fill-opacity:1;fill-rule: evenodd"/>
<path id="Shape2DView_nwe0252"  d="M -14.17 -1.28 Q -14.169999999999998 -0.9984389288724146 -14.17 -0.7168778577448294 Q -14.17 -0.594373139784815 -14.17 -0.4718684218248004 Q -14.17 -0.01253569909932381 -14.17 0.0 " stroke="#191919" stroke-width="0.35 px" style="stroke-width:0.35;stroke-miterlimit:4;stroke-dasharray:none;fill:none;fill-opacity:1;fill-rule: evenodd"/>
<path id="Shape2DView_nwe0253"  d="M -11.4 -1.28 Q -11.399999999999999 -0.9984389288724146 -11.399999999999999 -0.7168778577448294 Q -11.399999999999995 -0.594373139784815 -11.4 -0.4718684218248004 Q -11.399999999999999 -0.01253569909932381 -11.4 0.0 " stroke="#191919" stroke-width="0.35 px" style="stroke-width:0.35;stroke-miterlimit:4;stroke-dasharray:none;fill:none;fill-opacity:1;fill-rule: evenodd"/>
<path id="Shape2DView_nwe0254"  d="M -22.48 -1.28 Q -22.48 -0.9984389288724146 -22.479999999999997 -0.7168778577448294 Q -22.479999999999997 -0.594373139784815 -22.48 -0.4718684218248004 Q -22.480000000000004 -0.01253569909932381 -22.48 0.0 " stroke="#191919" stroke-width="0.35 px" style="stroke-width:0.35;stroke-miterlimit:4;stroke-dasharray:none;fill:none;fill-opacity:1;fill-rule: evenodd"/>
<path id="Shape2DView_nwe0255"  d="M -19.71 -1.28 Q -19.71 -0.9984389288724146 -19.71 -0.7168778577448294 Q -19.71 -0.594373139784815 -19.71 -0.4718684218248004 Q -19.71 -0.01253569909932381 -19.71 0.0 " stroke="#191919" stroke-width="0.35 px" style="stroke-width:0.35;stroke-miterlimit:4;stroke-dasharray:none;fill:none;fill-opacity:1;fill-rule: evenodd"/>
<path id="Shape2DView_nwe0256"  d="M -23.865000000000002 -4.120000000000001 Q -23.865 -2.9538935201630228 -23.865000000000002 -2.84 " stroke="#191919" stroke-width="0.35 px" style="stroke-width:0.35;stroke-miterlimit:4;stroke-dasharray:none;fill:none;fill-opacity:1;fill-rule: evenodd"/>
<path id="Shape2DView_nwe0257"  d="M -21.095 -4.120000000000001 Q -21.095 -2.9538935201630228 -21.095 -2.84 " stroke="#191919" stroke-width="0.35 px" style="stroke-width:0.35;stroke-miterlimit:4;stroke-dasharray:none;fill:none;fill-opacity:1;fill-rule: evenodd"/>
<path id="Shape2DView_nwe0258"  d="M -15.555 -4.120000000000001 Q -15.555 -2.9538935201630228 -15.555 -2.84 " stroke="#191919" stroke-width="0.35 px" style="stroke-width:0.35;stroke-miterlimit:4;stroke-dasharray:none;fill:none;fill-opacity:1;fill-rule: evenodd"/>
<path id="Shape2DView_nwe0259"  d="M -18.325 -4.120000000000001 Q -18.324999999999996 -2.9538935201630228 -18.325 -2.84 " stroke="#191919" stroke-width="0.35 px" style="stroke-width:0.35;stroke-miterlimit:4;stroke-dasharray:none;fill:none;fill-opacity:1;fill-rule: evenodd"/>
<path id="Shape2DView_nwe0260"  d="M -4.4750000000000005 -4.120000000000001 Q -4.475 -2.9538935201630228 -4.4750000000000005 -2.84 " stroke="#191919" stroke-width="0.35 px" style="stroke-width:0.35;stroke-miterlimit:4;stroke-dasharray:none;fill:none;fill-opacity:1;fill-rule: evenodd"/>
<path id="Shape2DView_nwe0261"  d="M -7.245 -4.120000000000001 Q -7.244999999999999 -2.9538935201630228 -7.245 -2.84 " stroke="#191919" stroke-width="0.35 px" style="stroke-width:0.35;stroke-miterlimit:4;stroke-dasharray:none;fill:none;fill-opacity:1;fill-rule: evenodd"/>
<path id="Shape2DView_nwe0262"  d="M -12.785 -4.120000000000001 Q -12.785000000000002 -2.9538935201630228 -12.785 -2.84 " stroke="#191919" stroke-width="0.35 px" style="stroke-width:0.35;stroke-miterlimit:4;stroke-dasharray:none;fill:none;fill-opacity:1;fill-rule: evenodd"/>
<path id="Shape2DView_nwe0263"  d="M -10.015 -4.120000000000001 Q -10.015 -2.9538935201630228 -10.015 -2.84 " stroke="#191919" stroke-width="0.35 px" style="stroke-width:0.35;stroke-miterlimit:4;stroke-dasharray:none;fill:none;fill-opacity:1;fill-rule: evenodd"/>
<path id="Shape2DView_nwe0264"  d="M -0.32 -1.28 Q -0.31999999999999995 -0.9984389288724146 -0.32 -0.7168778577448294 Q -0.32 -0.594373139784815 -0.32 -0.4718684218248004 Q -0.32 -0.01253569909932381 -0.32 0.0 " stroke="#191919" stroke-width="0.35 px" style="stroke-width:0.35;stroke-miterlimit:4;stroke-dasharray:none;fill:none;fill-opacity:1;fill-rule: evenodd"/>
<path id="Shape2DView_nwe0265"  d="M -1.705 -4.120000000000001 Q -1.705 -2.9538935201630228 -1.705 -2.84 " stroke="#191919" stroke-width="0.35 px" style="stroke-width:0.35;stroke-miterlimit:4;stroke-dasharray:none;fill:none;fill-opacity:1;fill-rule: evenodd"/>
<path id="Shape2DView_nwe0266"  d="M -28.02 -1.28 Q -28.019999999999996 -0.9984389288724146 -28.019999999999996 -0.7168778577448294 Q -28.019999999999996 -0.594373139784815 -28.02 -0.4718684218248004 Q -28.020000000000003 -0.01253569909932381 -28.02 0.0 " stroke="#191919" stroke-width="0.35 px" style="stroke-width:0.35;stroke-miterlimit:4;stroke-dasharray:none;fill:none;fill-opacity:1;fill-rule: evenodd"/>
<path id="Shape2DView_nwe0267"  d="M -25.25 -1.28 Q -25.25 -0.9984389288724146 -25.25 -0.7168778577448294 Q -25.250000000000004 -0.594373139784815 -25.25 -0.4718684218248004 Q -25.250000000000004 -0.01253569909932381 -25.25 0.0 " stroke="#191919" stroke-width="0.35 px" style="stroke-width:0.35;stroke-miterlimit:4;stroke-dasharray:none;fill:none;fill-opacity:1;fill-rule: evenodd"/>
<path id="Shape2DView_nwe0268"  d="M -26.635 -4.120000000000001 Q -26.634999999999998 -2.9538935201630228 -26.635 -2.84 " stroke="#191919" stroke-width="0.35 px" style="stroke-width:0.35;stroke-miterlimit:4;stroke-dasharray:none;fill:none;fill-opacity:1;fill-rule: evenodd"/>
<path id="Shape2DView_nwe0269"  d="M -30.79 -1.28 Q -30.790000000000003 -0.9984389288724146 -30.79 -0.7168778577448294 Q -30.790000000000003 -0.594373139784815 -30.79 -0.4718684218248004 Q -30.790000000000003 -0.01253569909932381 -30.79 0.0 " stroke="#191919" stroke-width="0.35 px" style="stroke-width:0.35;stroke-miterlimit:4;stroke-dasharray:none;fill:none;fill-opacity:1;fill-rule: evenodd"/>
<path id="Shape2DView_nwe0270"  d="M -29.405 -4.120000000000001 Q -29.405 -2.9538935201630228 -29.405 -2.84 " stroke="#191919" stroke-width="0.35 px" style="stroke-width:0.35;stroke-miterlimit:4;stroke-dasharray:none;fill:none;fill-opacity:1;fill-rule: evenodd"/>
<path id="Shape2DView_nwe0271"  d="M -32.175 -4.120000000000001 Q -32.175 -2.9538935201630228 -32.175 -2.84 " stroke="#191919" stroke-width="0.35 px" style="stroke-width:0.35;stroke-miterlimit:4;stroke-dasharray:none;fill:none;fill-opacity:1;fill-rule: evenodd"/>
<path id="Shape2DView_nwe0272"  d="M -35.57943192049 -13.14 Q -35.58717989816655 -13.072259618494655 -35.5949278758431 -13.00451923698931 Q -35.62543109604471 -12.92567324604557 -35.65593431624632 -12.846827255101829 Q -35.83467360085366 -12.551785780527219 -36.179431920489996 -12.540000000000001 " stroke="#191919" stroke-width="0.35 px" style="stroke-width:0.35;stroke-miterlimit:4;stroke-dasharray:none;fill:none;fill-opacity:1;fill-rule: evenodd"/>
<path id="Shape2DView_nwe0273"  d="M 2.339431920499 -13.14 Q 2.34717989885702 -13.072259618652613 2.35492787721504 -13.004519237305225 Q 2.384287894843861 -12.927733516422098 2.41364791247268 -12.850947795538973 Q 2.59176627920947 -12.552129505490132 2.9394319204989996 -12.540000000000001 " stroke="#191919" stroke-width="0.35 px" style="stroke-width:0.35;stroke-miterlimit:4;stroke-dasharray:none;fill:none;fill-opacity:1;fill-rule: evenodd"/>
<path id="Shape2DView_nwe0274"  d="M -35.57943192049 -13.14 L -35.57943192049 -18.29 " stroke="#191919" stroke-width="0.35 px" style="stroke-width:0.35;stroke-miterlimit:4;stroke-dasharray:none;fill:none;fill-opacity:1;fill-rule: evenodd"/>
<path id="Shape2DView_nwe0275"  d="M 2.339431920499 -13.14 L 2.339431920499 -18.29 " stroke="#191919" stroke-width="0.35 px" style="stroke-width:0.35;stroke-miterlimit:4;stroke-dasharray:none;fill:none;fill-opacity:1;fill-rule: evenodd"/>
<path id="Shape2DView_nwe0276"  d="M -35.529431920490026 -18.34000000000002 L -35.57943192049 -18.29 " stroke="#191919" stroke-width="0.35 px" style="stroke-width:0.35;stroke-miterlimit:4;stroke-dasharray:none;fill:none;fill-opacity:1;fill-rule: evenodd"/>
<path id="Shape2DView_nwe0277"  d="M 2.2894319204990223 -18.34000000000002 L 2.339431920499 -18.29 " stroke="#191919" stroke-width="0.35 px" style="stroke-width:0.35;stroke-miterlimit:4;stroke-dasharray:none;fill:none;fill-opacity:1;fill-rule: evenodd"/>
<path id="Shape2DView_nwe0278"  d="M -35.4740820053 -18.340000000000003 L -35.4740820053 -18.54 " stroke="#191919" stroke-width="0.35 px" style="stroke-width:0.35;stroke-miterlimit:4;stroke-dasharray:none;fill:none;fill-opacity:1;fill-rule: evenodd"/>
<path id="Shape2DView_nwe0279"  d="M 2.2340820053029997 -18.340000000000003 L 2.2340820053029997 -18.54 " stroke="#191919" stroke-width="0.35 px" style="stroke-width:0.35;stroke-miterlimit:4;stroke-dasharray:none;fill:none;fill-opacity:1;fill-rule: evenodd"/>
<path id="Shape2DView_nwe0280"  d="M -35.37408200530004 -18.640000000000047 L -35.4740820053 -18.54 " stroke="#191919" stroke-width="0.35 px" style="stroke-width:0.35;stroke-miterlimit:4;stroke-dasharray:none;fill:none;fill-opacity:1;fill-rule: evenodd"/>
<path id="Shape2DView_nwe0281"  d="M 2.1340820053030445 -18.640000000000043 L 2.2340820053029997 -18.54 " stroke="#191919" stroke-width="0.35 px" style="stroke-width:0.35;stroke-miterlimit:4;stroke-dasharray:none;fill:none;fill-opacity:1;fill-rule: evenodd"/>
<title>b'Shape2DView'</title>
</g>
<g id="Rectangle" transform="translate(43.701000,1.531000) scale(1,-1)">
<rect fill="#ff0000" id="origin" width="1" height="1" x="0" y="0" />
<title>b'Rectangle'</title>
</g>
</svg>