<?xml version="1.0"?>
<!DOCTYPE svg PUBLIC "-//W3C//DTD SVG 1.1//EN" "http://www.w3.org/Graphics/SVG/1.1/DTD/svg11.dtd">
<svg width="31.416000000000004mm" height="20.606000000000023mm" viewBox="0 0 31.416000000000004 20.606000000000023" xmlns="http://www.w3.org/2000/svg" version="1.1">
<g id="Shape2DView" transform="translate(11.700500,1.888000) scale(1,-1)">
<path id="Shape2DView_nwe0000"  d="M -3.305077687448 -18.41 L -3.4114439397461425 -18.41 L -3.5164725747064987 -18.41 L -3.618842796305409 -18.41 L -3.71726723960968 -18.41 L -3.81050816013757 -18.41 L -3.897392999213797 -18.41 L -3.9768291295752203 -18.41 L -4.047817595792629 -18.41 L -4.10946567671487 -18.41 L -4.160998111955299 -18.41 L -4.201766851240949 -18.41 L -4.231259204020732 -18.41 L -4.24910428684658 -18.41 L -4.255077687448 -18.41 " stroke="#191919" stroke-width="0.35 px" style="stroke-width:0.35;stroke-miterlimit:4;stroke-dasharray:none;fill:none;fill-opacity:1;fill-rule: evenodd"/>
<path id="Shape2DView_nwe0001"  d="M 11.320077687448 -18.41 L -3.3050776874479997 -18.41 " stroke="#191919" stroke-width="0.35 px" style="stroke-width:0.35;stroke-miterlimit:4;stroke-dasharray:none;fill:none;fill-opacity:1;fill-rule: evenodd"/>
<path id="Shape2DView_nwe0002"  d="M 12.270077687448 -18.41 L 12.26410428684658 -18.41 L 12.246259204020733 -18.41 L 12.21676685124095 -18.41 L 12.175998111955298 -18.41 L 12.12446567671487 -18.41 L 12.062817595792628 -18.41 L 11.99182912957522 -18.41 L 11.912392999213797 -18.41 L 11.82550816013757 -18.41 L 11.73226723960968 -18.41 L 11.633842796305409 -18.41 L 11.531472574706498 -18.41 L 11.426443939746143 -18.41 L 11.320077687448 -18.41 " stroke="#191919" stroke-width="0.35 px" style="stroke-width:0.35;stroke-miterlimit:4;stroke-dasharray:none;fill:none;fill-opacity:1;fill-rule: evenodd"/>
<path id="Shape2DView_nwe0003"  d="M -3.305077687448 -18.36 L -3.417042163551308 -18.36 L -3.5275986214043145 -18.36 L -3.6353567494031673 -18.36 L -3.738961426565558 -18.36 L -3.837109763963337 -18.36 L -3.928567489306734 -18.36 L -4.012184468634548 -18.36 L -4.08690916991603 -18.36 L -4.151801886676284 -18.36 L -4.20604655535042 -18.36 L -4.2489610177563675 -18.36 L -4.280005599629824 -18.36 L -4.298789897341242 -18.36 L -4.305077687448 -18.36 " stroke="#191919" stroke-width="0.35 px" style="stroke-width:0.35;stroke-miterlimit:4;stroke-dasharray:none;fill:none;fill-opacity:1;fill-rule: evenodd"/>
<path id="Shape2DView_nwe0004"  d="M 11.320077687448 -18.36 L -3.3050776874479997 -18.36 " stroke="#191919" stroke-width="0.35 px" style="stroke-width:0.35;stroke-miterlimit:4;stroke-dasharray:none;fill:none;fill-opacity:1;fill-rule: evenodd"/>
<path id="Shape2DView_nwe0005"  d="M 12.320077687448 -18.36 L 12.313789897341243 -18.36 L 12.295005599629825 -18.36 L 12.263961017756367 -18.36 L 12.22104655535042 -18.36 L 12.166801886676284 -18.36 L 12.10190916991603 -18.36 L 12.027184468634548 -18.36 L 11.943567489306734 -18.36 L 11.852109763963337 -18.36 L 11.753961426565558 -18.36 L 11.650356749403167 -18.36 L 11.542598621404315 -18.36 L 11.432042163551309 -18.36 L 11.320077687448 -18.36 " stroke="#191919" stroke-width="0.35 px" style="stroke-width:0.35;stroke-miterlimit:4;stroke-dasharray:none;fill:none;fill-opacity:1;fill-rule: evenodd"/>
<path id="Shape2DView_nwe0006"  d="M 18.4075 -12.61 L 18.508268028492974 -12.61 L 18.60776884056068 -12.61 L 18.70475115575965 -12.61 L 18.7979953652058 -12.61 L 18.886328868863803 -12.61 L 18.96864082167286 -12.61 L 19.04389610306789 -12.61 L 19.111148334221227 -12.61 L 19.169551779305454 -12.61 L 19.218371981112178 -12.61 L 19.25699499727753 -12.61 L 19.28493512096364 -12.61 L 19.301840988903916 -12.61 L 19.307499999999997 -12.61 " stroke="#191919" stroke-width="0.35 px" style="stroke-width:0.35;stroke-miterlimit:4;stroke-dasharray:none;fill:none;fill-opacity:1;fill-rule: evenodd"/>
<path id="Shape2DView_nwe0007"  d="M 19.307499999999997 -12.61 L 19.301840988903916 -12.61 L 19.28493512096364 -12.61 L 19.25699499727753 -12.61 L 19.218371981112178 -12.61 L 19.169551779305454 -12.61 L 19.111148334221227 -12.61 L 19.04389610306789 -12.61 L 18.96864082167286 -12.61 L 18.886328868863803 -12.61 L 18.7979953652058 -12.61 L 18.70475115575965 -12.61 L 18.60776884056068 -12.61 L 18.508268028492974 -12.61 L 18.4075 -12.61 " stroke="#191919" stroke-width="0.35 px" style="stroke-width:0.35;stroke-miterlimit:4;stroke-dasharray:none;fill:none;fill-opacity:1;fill-rule: evenodd"/>
<path id="Shape2DView_nwe0008"  d="M 18.4075 -12.61 L -10.392499999999998 -12.61 " stroke="#191919" stroke-width="0.35 px" style="stroke-width:0.35;stroke-miterlimit:4;stroke-dasharray:none;fill:none;fill-opacity:1;fill-rule: evenodd"/>
<path id="Shape2DView_nwe0009"  d="M -10.3925 -12.61 L -10.493268028492977 -12.61 L -10.592768840560684 -12.61 L -10.68975115575965 -12.61 L -10.782995365205803 -12.61 L -10.871328868863802 -12.61 L -10.95364082167286 -12.61 L -11.028896103067893 -12.61 L -11.096148334221226 -12.61 L -11.154551779305455 -12.61 L -11.203371981112177 -12.61 L -11.241994997277532 -12.61 L -11.269935120963641 -12.61 L -11.286840988903919 -12.61 L -11.2925 -12.61 " stroke="#191919" stroke-width="0.35 px" style="stroke-width:0.35;stroke-miterlimit:4;stroke-dasharray:none;fill:none;fill-opacity:1;fill-rule: evenodd"/>
<path id="Shape2DView_nwe0010"  d="M 19.407500000000002 -12.51 A 0.1 0.1 0 0 0 19.3075 -12.61" stroke="#191919" stroke-width="0.35 px" style="stroke-width:0.35;stroke-miterlimit:4;stroke-dasharray:none;fill:none;fill-opacity:1;fill-rule: evenodd"/>
<path id="Shape2DView_nwe0011"  d="M -11.3925 -12.51 A 0.1 0.1 0 0 1 -11.2925 -12.61" stroke="#191919" stroke-width="0.35 px" style="stroke-width:0.35;stroke-miterlimit:4;stroke-dasharray:none;fill:none;fill-opacity:1;fill-rule: evenodd"/>
<path id="Shape2DView_nwe0013"  d="M -11.3925 -12.31 L -11.3925 -12.51 " stroke="#191919" stroke-width="0.35 px" style="stroke-width:0.35;stroke-miterlimit:4;stroke-dasharray:none;fill:none;fill-opacity:1;fill-rule: evenodd"/>
<path id="Shape2DView_nwe0014"  d="M 19.4075 -12.31 L 19.4075 -12.51 " stroke="#191919" stroke-width="0.35 px" style="stroke-width:0.35;stroke-miterlimit:4;stroke-dasharray:none;fill:none;fill-opacity:1;fill-rule: evenodd"/>
<path id="Shape2DView_nwe0015"  d="M -11.3925 -12.31 L -11.3925 -10.31 " stroke="#191919" stroke-width="0.35 px" style="stroke-width:0.35;stroke-miterlimit:4;stroke-dasharray:none;fill:none;fill-opacity:1;fill-rule: evenodd"/>
<path id="Shape2DView_nwe0016"  d="M -11.3925 1.58 L -11.3925 -10.31 " stroke="#191919" stroke-width="0.35 px" style="stroke-width:0.35;stroke-miterlimit:4;stroke-dasharray:none;fill:none;fill-opacity:1;fill-rule: evenodd"/>
<path id="Shape2DView_nwe0017"  d="M 19.4075 -12.31 L 19.4075 -10.31 " stroke="#191919" stroke-width="0.35 px" style="stroke-width:0.35;stroke-miterlimit:4;stroke-dasharray:none;fill:none;fill-opacity:1;fill-rule: evenodd"/>
<path id="Shape2DView_nwe0018"  d="M 19.4075 -10.31 L 19.4075 1.58 " stroke="#191919" stroke-width="0.35 px" style="stroke-width:0.35;stroke-miterlimit:4;stroke-dasharray:none;fill:none;fill-opacity:1;fill-rule: evenodd"/>
<path id="Shape2DView_nwe0019"  d="M -11.3925 -10.31 L -11.386212209893243 -10.31 L -11.367427912181824 -10.31 L -11.336383330308367 -10.31 L -11.293468867902419 -10.31 L -11.239224199228284 -10.31 L -11.17433148246803 -10.31 L -11.099606781186548 -10.31 L -11.015989801858733 -10.31 L -10.924532076515337 -10.31 L -10.826383739117558 -10.31 L -10.722779061955167 -10.31 L -10.615020933956314 -10.31 L -10.504464476103308 -10.31 L -10.3925 -10.31 " stroke="#191919" stroke-width="0.35 px" style="stroke-width:0.35;stroke-miterlimit:4;stroke-dasharray:none;fill:none;fill-opacity:1;fill-rule: evenodd"/>
<path id="Shape2DView_nwe0020"  d="M 18.4075 -10.31 L 18.519464476103305 -10.31 L 18.630020933956313 -10.31 L 18.737779061955166 -10.31 L 18.841383739117557 -10.31 L 18.939532076515334 -10.31 L 19.030989801858734 -10.31 L 19.114606781186545 -10.31 L 19.189331482468027 -10.31 L 19.254224199228283 -10.31 L 19.30846886790242 -10.31 L 19.351383330308366 -10.31 L 19.38242791218182 -10.31 L 19.40121220989324 -10.31 L 19.4075 -10.31 " stroke="#191919" stroke-width="0.35 px" style="stroke-width:0.35;stroke-miterlimit:4;stroke-dasharray:none;fill:none;fill-opacity:1;fill-rule: evenodd"/>
<path id="Shape2DView_nwe0021"  d="M 13.9075 -10.31 L 18.4075 -10.31 " stroke="#191919" stroke-width="0.35 px" style="stroke-width:0.35;stroke-miterlimit:4;stroke-dasharray:none;fill:none;fill-opacity:1;fill-rule: evenodd"/>
<path id="Shape2DView_nwe0022"  d="M 13.9075 1.58 L 13.9075 -10.31 " stroke="#191919" stroke-width="0.35 px" style="stroke-width:0.35;stroke-miterlimit:4;stroke-dasharray:none;fill:none;fill-opacity:1;fill-rule: evenodd"/>
<path id="Shape2DView_nwe0023"  d="M 13.9075 1.58 L -5.892499999999998 1.58 " stroke="#191919" stroke-width="0.35 px" style="stroke-width:0.35;stroke-miterlimit:4;stroke-dasharray:none;fill:none;fill-opacity:1;fill-rule: evenodd"/>
<path id="Shape2DView_nwe0024"  d="M -5.8925 -10.31 L -5.8925 1.58 " stroke="#191919" stroke-width="0.35 px" style="stroke-width:0.35;stroke-miterlimit:4;stroke-dasharray:none;fill:none;fill-opacity:1;fill-rule: evenodd"/>
<path id="Shape2DView_nwe0025"  d="M -10.3925 -10.31 L -5.8925 -10.31 " stroke="#191919" stroke-width="0.35 px" style="stroke-width:0.35;stroke-miterlimit:4;stroke-dasharray:none;fill:none;fill-opacity:1;fill-rule: evenodd"/>
<path id="Shape2DView_nwe0026"  d="M 18.5575 -10.26 L 18.50610221997274 -10.26 L 18.35448617919996 -10.26 L 18.11025453905946 -10.26 L 17.785654093810404 -10.26 L 17.396961665190993 -10.26 L 16.963667914610443 -10.26 L 16.5075 -10.26 L 16.051332085389557 -10.26 L 15.618038334809006 -10.26 L 15.229345906189597 -10.26 L 14.90474546094054 -10.26 L 14.660513820800041 -10.26 L 14.508897780027262 -10.26 L 14.4575 -10.26 " stroke="#191919" stroke-width="0.35 px" style="stroke-width:0.35;stroke-miterlimit:4;stroke-dasharray:none;fill:none;fill-opacity:1;fill-rule: evenodd"/>
<path id="Shape2DView_nwe0027"  d="M -6.4425 -10.26 L -6.493897780027261 -10.26 L -6.645513820800041 -10.26 L -6.889745460940539 -10.26 L -7.214345906189596 -10.26 L -7.603038334809005 -10.26 L -8.036332085389555 -10.26 L -8.4925 -10.26 L -8.948667914610445 -10.26 L -9.381961665190994 -10.26 L -9.770654093810403 -10.26 L -10.09525453905946 -10.26 L -10.339486179199959 -10.26 L -10.491102219972738 -10.26 L -10.5425 -10.26 " stroke="#191919" stroke-width="0.35 px" style="stroke-width:0.35;stroke-miterlimit:4;stroke-dasharray:none;fill:none;fill-opacity:1;fill-rule: evenodd"/>
<path id="Shape2DView_nwe0028"  d="M -11.3925 1.58 L -5.8925 1.58 " stroke="#191919" stroke-width="0.35 px" style="stroke-width:0.35;stroke-miterlimit:4;stroke-dasharray:none;fill:none;fill-opacity:1;fill-rule: evenodd"/>
<path id="Shape2DView_nwe0029"  d="M 13.9075 1.58 L 19.4075 1.58 " stroke="#191919" stroke-width="0.35 px" style="stroke-width:0.35;stroke-miterlimit:4;stroke-dasharray:none;fill:none;fill-opacity:1;fill-rule: evenodd"/>
<path id="Shape2DView_nwe0030"  d="M -6.8425 -1.9800000000000004 L -6.8425 -3.63 " stroke="#191919" stroke-width="0.35 px" style="stroke-width:0.35;stroke-miterlimit:4;stroke-dasharray:none;fill:none;fill-opacity:1;fill-rule: evenodd"/>
<path id="Shape2DView_nwe0031"  d="M -10.1425 -1.9800000000000002 A 1.65 1.65 0 0 0 -6.8425 -1.98" stroke="#191919" stroke-width="0.35 px" style="stroke-width:0.35;stroke-miterlimit:4;stroke-dasharray:none;fill:none;fill-opacity:1;fill-rule: evenodd"/>
<path id="Shape2DView_nwe0032"  d="M -6.842499999999999 -3.63 A 1.65 1.65 0 0 0 -7.4925 -4.94244" stroke="#191919" stroke-width="0.35 px" style="stroke-width:0.35;stroke-miterlimit:4;stroke-dasharray:none;fill:none;fill-opacity:1;fill-rule: evenodd"/>
<path id="Shape2DView_nwe0033"  d="M -9.49249999999984 -4.94244047484079 A 1.65 1.65 0 0 0 -10.1425 -3.63" stroke="#191919" stroke-width="0.35 px" style="stroke-width:0.35;stroke-miterlimit:4;stroke-dasharray:none;fill:none;fill-opacity:1;fill-rule: evenodd"/>
<path id="Shape2DView_nwe0034"  d="M -10.1425 -3.63 L -10.1425 -1.9799999999999995 " stroke="#191919" stroke-width="0.35 px" style="stroke-width:0.35;stroke-miterlimit:4;stroke-dasharray:none;fill:none;fill-opacity:1;fill-rule: evenodd"/>
<path id="Shape2DView_nwe0035"  d="M 14.8575 -1.9800000000000002 A 1.65 1.65 0 0 0 18.1575 -1.98" stroke="#191919" stroke-width="0.35 px" style="stroke-width:0.35;stroke-miterlimit:4;stroke-dasharray:none;fill:none;fill-opacity:1;fill-rule: evenodd"/>
<path id="Shape2DView_nwe0036"  d="M 14.8575 -3.63 L 14.8575 -1.9799999999999995 " stroke="#191919" stroke-width="0.35 px" style="stroke-width:0.35;stroke-miterlimit:4;stroke-dasharray:none;fill:none;fill-opacity:1;fill-rule: evenodd"/>
<path id="Shape2DView_nwe0037"  d="M 18.1575 -1.9800000000000004 L 18.1575 -3.63 " stroke="#191919" stroke-width="0.35 px" style="stroke-width:0.35;stroke-miterlimit:4;stroke-dasharray:none;fill:none;fill-opacity:1;fill-rule: evenodd"/>
<path id="Shape2DView_nwe0038"  d="M 18.1575 -3.63 L 17.5075 -3.63 " stroke="#191919" stroke-width="0.35 px" style="stroke-width:0.35;stroke-miterlimit:4;stroke-dasharray:none;fill:none;fill-opacity:1;fill-rule: evenodd"/>
<path id="Shape2DView_nwe0039"  d="M 15.5075 -3.63 L 14.8575 -3.63 " stroke="#191919" stroke-width="0.35 px" style="stroke-width:0.35;stroke-miterlimit:4;stroke-dasharray:none;fill:none;fill-opacity:1;fill-rule: evenodd"/>
<path id="Shape2DView_nwe0040"  d="M 18.5575 -10.31 L 18.5575 -10.26 " stroke="#191919" stroke-width="0.35 px" style="stroke-width:0.35;stroke-miterlimit:4;stroke-dasharray:none;fill:none;fill-opacity:1;fill-rule: evenodd"/>
<path id="Shape2DView_nwe0041"  d="M -6.4425 -10.31 L -6.4425 -10.26 " stroke="#191919" stroke-width="0.35 px" style="stroke-width:0.35;stroke-miterlimit:4;stroke-dasharray:none;fill:none;fill-opacity:1;fill-rule: evenodd"/>
<path id="Shape2DView_nwe0042"  d="M -7.4925 -1.88 L -7.4925 -1.8806287790106757 L -7.4925 -1.8825072087818175 L -7.4925 -1.8856116669691632 L -7.4925 -1.8899031132097581 L -7.4925 -1.8953275800771716 L -7.4925 -1.901816851753197 L -7.4925 -1.9092893218813451 L -7.4925 -1.9176510198141266 L -7.4925 -1.9267967923484663 L -7.4925 -1.9366116260882442 L -7.4925 -1.9469720938044832 L -7.4925 -1.9577479066043686 L -7.4925 -1.9688035523896692 L -7.4925 -1.98 " stroke="#191919" stroke-width="0.35 px" style="stroke-width:0.35;stroke-miterlimit:4;stroke-dasharray:none;fill:none;fill-opacity:1;fill-rule: evenodd"/>
<path id="Shape2DView_nwe0043"  d="M -7.4925 -1.98 L -7.4925 -10.009999999999998 " stroke="#191919" stroke-width="0.35 px" style="stroke-width:0.35;stroke-miterlimit:4;stroke-dasharray:none;fill:none;fill-opacity:1;fill-rule: evenodd"/>
<path id="Shape2DView_nwe0044"  d="M -7.4925 -10.21 L -7.4925 -10.01 " stroke="#191919" stroke-width="0.35 px" style="stroke-width:0.35;stroke-miterlimit:4;stroke-dasharray:none;fill:none;fill-opacity:1;fill-rule: evenodd"/>
<path id="Shape2DView_nwe0045"  d="M -9.4925 -10.21 L -7.4925 -10.21 " stroke="#191919" stroke-width="0.35 px" style="stroke-width:0.35;stroke-miterlimit:4;stroke-dasharray:none;fill:none;fill-opacity:1;fill-rule: evenodd"/>
<path id="Shape2DView_nwe0046"  d="M -9.4925 -10.01 L -9.4925 -10.21 " stroke="#191919" stroke-width="0.35 px" style="stroke-width:0.35;stroke-miterlimit:4;stroke-dasharray:none;fill:none;fill-opacity:1;fill-rule: evenodd"/>
<path id="Shape2DView_nwe0047"  d="M -9.4925 -10.01 L -9.4925 -1.9800000000000004 " stroke="#191919" stroke-width="0.35 px" style="stroke-width:0.35;stroke-miterlimit:4;stroke-dasharray:none;fill:none;fill-opacity:1;fill-rule: evenodd"/>
<path id="Shape2DView_nwe0048"  d="M -9.4925 -1.88 L -9.4925 -1.8806287790106757 L -9.4925 -1.8825072087818175 L -9.4925 -1.8856116669691632 L -9.4925 -1.8899031132097581 L -9.4925 -1.8953275800771716 L -9.4925 -1.901816851753197 L -9.4925 -1.9092893218813451 L -9.4925 -1.9176510198141266 L -9.4925 -1.9267967923484663 L -9.4925 -1.9366116260882442 L -9.4925 -1.9469720938044832 L -9.4925 -1.9577479066043686 L -9.4925 -1.9688035523896692 L -9.4925 -1.98 " stroke="#191919" stroke-width="0.35 px" style="stroke-width:0.35;stroke-miterlimit:4;stroke-dasharray:none;fill:none;fill-opacity:1;fill-rule: evenodd"/>
<path id="Shape2DView_nwe0049"  d="M 17.5075 -1.88 L 17.5075 -1.8806287790106757 L 17.5075 -1.8825072087818175 L 17.5075 -1.8856116669691632 L 17.5075 -1.8899031132097581 L 17.5075 -1.8953275800771716 L 17.5075 -1.901816851753197 L 17.5075 -1.9092893218813451 L 17.5075 -1.9176510198141266 L 17.5075 -1.9267967923484663 L 17.5075 -1.9366116260882442 L 17.5075 -1.9469720938044832 L 17.5075 -1.9577479066043686 L 17.5075 -1.9688035523896692 L 17.5075 -1.98 " stroke="#191919" stroke-width="0.35 px" style="stroke-width:0.35;stroke-miterlimit:4;stroke-dasharray:none;fill:none;fill-opacity:1;fill-rule: evenodd"/>
<path id="Shape2DView_nwe0050"  d="M 17.5075 -1.98 L 17.5075 -10.009999999999998 " stroke="#191919" stroke-width="0.35 px" style="stroke-width:0.35;stroke-miterlimit:4;stroke-dasharray:none;fill:none;fill-opacity:1;fill-rule: evenodd"/>
<path id="Shape2DView_nwe0051"  d="M 17.5075 -10.21 L 17.5075 -10.01 " stroke="#191919" stroke-width="0.35 px" style="stroke-width:0.35;stroke-miterlimit:4;stroke-dasharray:none;fill:none;fill-opacity:1;fill-rule: evenodd"/>
<path id="Shape2DView_nwe0052"  d="M 15.5075 -10.21 L 17.5075 -10.21 " stroke="#191919" stroke-width="0.35 px" style="stroke-width:0.35;stroke-miterlimit:4;stroke-dasharray:none;fill:none;fill-opacity:1;fill-rule: evenodd"/>
<path id="Shape2DView_nwe0053"  d="M 15.5075 -1.88 L 15.5075 -1.8806287790106757 L 15.5075 -1.8825072087818175 L 15.5075 -1.8856116669691632 L 15.5075 -1.8899031132097581 L 15.5075 -1.8953275800771716 L 15.5075 -1.901816851753197 L 15.5075 -1.9092893218813451 L 15.5075 -1.9176510198141266 L 15.5075 -1.9267967923484663 L 15.5075 -1.9366116260882442 L 15.5075 -1.9469720938044832 L 15.5075 -1.9577479066043686 L 15.5075 -1.9688035523896692 L 15.5075 -1.98 " stroke="#191919" stroke-width="0.35 px" style="stroke-width:0.35;stroke-miterlimit:4;stroke-dasharray:none;fill:none;fill-opacity:1;fill-rule: evenodd"/>
<path id="Shape2DView_nwe0054"  d="M 15.5075 -10.01 L 15.5075 -10.21 " stroke="#191919" stroke-width="0.35 px" style="stroke-width:0.35;stroke-miterlimit:4;stroke-dasharray:none;fill:none;fill-opacity:1;fill-rule: evenodd"/>
<path id="Shape2DView_nwe0055"  d="M 15.5075 -10.01 L 15.5075 -1.9800000000000004 " stroke="#191919" stroke-width="0.35 px" style="stroke-width:0.35;stroke-miterlimit:4;stroke-dasharray:none;fill:none;fill-opacity:1;fill-rule: evenodd"/>
<path id="Shape2DView_nwe0056"  d="M -9.4925 -1.88 L -7.4925 -1.88 " stroke="#191919" stroke-width="0.35 px" style="stroke-width:0.35;stroke-miterlimit:4;stroke-dasharray:none;fill:none;fill-opacity:1;fill-rule: evenodd"/>
<path id="Shape2DView_nwe0057"  d="M -7.4925 -10.01 L -9.4925 -10.01 " stroke="#191919" stroke-width="0.35 px" style="stroke-width:0.35;stroke-miterlimit:4;stroke-dasharray:none;fill:none;fill-opacity:1;fill-rule: evenodd"/>
<path id="Shape2DView_nwe0058"  d="M 15.5075 -1.88 L 17.5075 -1.88 " stroke="#191919" stroke-width="0.35 px" style="stroke-width:0.35;stroke-miterlimit:4;stroke-dasharray:none;fill:none;fill-opacity:1;fill-rule: evenodd"/>
<path id="Shape2DView_nwe0059"  d="M 17.5075 -10.01 L 15.5075 -10.01 " stroke="#191919" stroke-width="0.35 px" style="stroke-width:0.35;stroke-miterlimit:4;stroke-dasharray:none;fill:none;fill-opacity:1;fill-rule: evenodd"/>
<path id="Shape2DView_nwe0060"  d="M -3.305077687448 -18.41 L -3.305077687448 -18.36 " stroke="#191919" stroke-width="0.35 px" style="stroke-width:0.35;stroke-miterlimit:4;stroke-dasharray:none;fill:none;fill-opacity:1;fill-rule: evenodd"/>
<path id="Shape2DView_nwe0061"  d="M 11.320077687448 -18.41 L 11.320077687448 -18.36 " stroke="#191919" stroke-width="0.35 px" style="stroke-width:0.35;stroke-miterlimit:4;stroke-dasharray:none;fill:none;fill-opacity:1;fill-rule: evenodd"/>
<path id="Shape2DView_nwe0062"  d="M -3.305077687448 -13.21 L -3.305077687448 -18.36 " stroke="#191919" stroke-width="0.35 px" style="stroke-width:0.35;stroke-miterlimit:4;stroke-dasharray:none;fill:none;fill-opacity:1;fill-rule: evenodd"/>
<path id="Shape2DView_nwe0063"  d="M -4.305077687448 -13.21 L -4.298789897341242 -13.21 L -4.280005599629824 -13.21 L -4.248961017756368 -13.21 L -4.20604655535042 -13.21 L -4.151801886676285 -13.21 L -4.08690916991603 -13.21 L -4.012184468634548 -13.21 L -3.928567489306734 -13.21 L -3.837109763963337 -13.21 L -3.7389614265655586 -13.21 L -3.6353567494031673 -13.21 L -3.527598621404315 -13.21 L -3.4170421635513084 -13.21 L -3.305077687448 -13.21 " stroke="#191919" stroke-width="0.35 px" style="stroke-width:0.35;stroke-miterlimit:4;stroke-dasharray:none;fill:none;fill-opacity:1;fill-rule: evenodd"/>
<path id="Shape2DView_nwe0064"  d="M 11.320077687448 -13.21 L 11.320077687448 -18.36 " stroke="#191919" stroke-width="0.35 px" style="stroke-width:0.35;stroke-miterlimit:4;stroke-dasharray:none;fill:none;fill-opacity:1;fill-rule: evenodd"/>
<path id="Shape2DView_nwe0065"  d="M -3.305077687448 -13.21 L 11.320077687448 -13.21 " stroke="#191919" stroke-width="0.35 px" style="stroke-width:0.35;stroke-miterlimit:4;stroke-dasharray:none;fill:none;fill-opacity:1;fill-rule: evenodd"/>
<path id="Shape2DView_nwe0066"  d="M 11.320077687448 -13.21 L 11.432042163551309 -13.21 L 11.542598621404315 -13.21 L 11.650356749403167 -13.21 L 11.753961426565558 -13.21 L 11.852109763963337 -13.21 L 11.943567489306734 -13.21 L 12.027184468634548 -13.21 L 12.10190916991603 -13.21 L 12.166801886676284 -13.21 L 12.22104655535042 -13.21 L 12.263961017756367 -13.21 L 12.295005599629825 -13.21 L 12.313789897341243 -13.21 L 12.320077687448 -13.21 " stroke="#191919" stroke-width="0.35 px" style="stroke-width:0.35;stroke-miterlimit:4;stroke-dasharray:none;fill:none;fill-opacity:1;fill-rule: evenodd"/>
<path id="Shape2DView_nwe0067"  d="M -3.305077687448 -13.21 L -3.305077687448 -13.142821314338017 L -3.305077687448 -13.076487439626213 L -3.305077687448 -13.011832562826902 L -3.305077687448 -12.949669756529467 L -3.305077687448 -12.890780754090798 L -3.305077687448 -12.835906118884761 L -3.305077687448 -12.785735931288073 L -3.305077687448 -12.740901110519182 L -3.305077687448 -12.70196548046303 L -3.305077687448 -12.66941867925855 L -3.305077687448 -12.64367000181498 L -3.305077687448 -12.625043252690906 L -3.305077687448 -12.613772674064055 L -3.305077687448 -12.610000000000001 " stroke="#191919" stroke-width="0.35 px" style="stroke-width:0.35;stroke-miterlimit:4;stroke-dasharray:none;fill:none;fill-opacity:1;fill-rule: evenodd"/>
<path id="Shape2DView_nwe0068"  d="M 11.320077687448 -13.21 L 11.320077687448 -13.142821314338017 L 11.320077687448 -13.076487439626213 L 11.320077687448 -13.011832562826902 L 11.320077687448 -12.949669756529467 L 11.320077687448 -12.890780754090798 L 11.320077687448 -12.835906118884761 L 11.320077687448 -12.785735931288073 L 11.320077687448 -12.740901110519182 L 11.320077687448 -12.70196548046303 L 11.320077687448 -12.66941867925855 L 11.320077687448 -12.64367000181498 L 11.320077687448 -12.625043252690906 L 11.320077687448 -12.613772674064055 L 11.320077687448 -12.610000000000001 " stroke="#191919" stroke-width="0.35 px" style="stroke-width:0.35;stroke-miterlimit:4;stroke-dasharray:none;fill:none;fill-opacity:1;fill-rule: evenodd"/>
<path id="Shape2DView_nwe0071"  d="M -10.3925 -12.51 L -10.3925 -12.52119644761033 L -10.3925 -12.53225209339563 L -10.3925 -12.543027906195517 L -10.3925 -12.553388373911755 L -10.3925 -12.563203207651533 L -10.3925 -12.572348980185874 L -10.3925 -12.580710678118654 L -10.3925 -12.588183148246802 L -10.3925 -12.594672419922828 L -10.3925 -12.600096886790242 L -10.3925 -12.604388333030837 L -10.3925 -12.607492791218181 L -10.3925 -12.609371220989324 L -10.3925 -12.61 " stroke="#191919" stroke-width="0.35 px" style="stroke-width:0.35;stroke-miterlimit:4;stroke-dasharray:none;fill:none;fill-opacity:1;fill-rule: evenodd"/>
<path id="Shape2DView_nwe0072"  d="M -10.3925 -12.51 L -10.504464476103308 -12.51 L -10.615020933956314 -12.51 L -10.722779061955167 -12.51 L -10.826383739117558 -12.51 L -10.924532076515337 -12.51 L -11.015989801858733 -12.51 L -11.099606781186548 -12.51 L -11.17433148246803 -12.51 L -11.239224199228284 -12.51 L -11.293468867902419 -12.51 L -11.336383330308367 -12.51 L -11.367427912181824 -12.51 L -11.386212209893243 -12.51 L -11.3925 -12.51 " stroke="#191919" stroke-width="0.35 px" style="stroke-width:0.35;stroke-miterlimit:4;stroke-dasharray:none;fill:none;fill-opacity:1;fill-rule: evenodd"/>
<path id="Shape2DView_nwe0073"  d="M 19.4075 -12.51 L 19.40121220989324 -12.51 L 19.38242791218182 -12.51 L 19.351383330308366 -12.51 L 19.30846886790242 -12.51 L 19.254224199228283 -12.51 L 19.189331482468027 -12.51 L 19.114606781186545 -12.51 L 19.030989801858734 -12.51 L 18.939532076515334 -12.51 L 18.841383739117557 -12.51 L 18.737779061955166 -12.51 L 18.630020933956313 -12.51 L 18.519464476103305 -12.51 L 18.4075 -12.51 " stroke="#191919" stroke-width="0.35 px" style="stroke-width:0.35;stroke-miterlimit:4;stroke-dasharray:none;fill:none;fill-opacity:1;fill-rule: evenodd"/>
<path id="Shape2DView_nwe0074"  d="M 18.4075 -12.51 L 18.4075 -12.52119644761033 L 18.4075 -12.53225209339563 L 18.4075 -12.543027906195517 L 18.4075 -12.553388373911755 L 18.4075 -12.563203207651533 L 18.4075 -12.572348980185874 L 18.4075 -12.580710678118654 L 18.4075 -12.588183148246802 L 18.4075 -12.594672419922828 L 18.4075 -12.600096886790242 L 18.4075 -12.604388333030837 L 18.4075 -12.607492791218181 L 18.4075 -12.609371220989324 L 18.4075 -12.61 " stroke="#191919" stroke-width="0.35 px" style="stroke-width:0.35;stroke-miterlimit:4;stroke-dasharray:none;fill:none;fill-opacity:1;fill-rule: evenodd"/>
<path id="Shape2DView_nwe0075"  d="M 18.4075 -12.51 L -10.392499999999998 -12.51 " stroke="#191919" stroke-width="0.35 px" style="stroke-width:0.35;stroke-miterlimit:4;stroke-dasharray:none;fill:none;fill-opacity:1;fill-rule: evenodd"/>
<path id="Shape2DView_nwe0076"  d="M -10.3925 -12.31 L -10.3925 -12.51 " stroke="#191919" stroke-width="0.35 px" style="stroke-width:0.35;stroke-miterlimit:4;stroke-dasharray:none;fill:none;fill-opacity:1;fill-rule: evenodd"/>
<path id="Shape2DView_nwe0077"  d="M 18.4075 -12.31 L 18.4075 -12.51 " stroke="#191919" stroke-width="0.35 px" style="stroke-width:0.35;stroke-miterlimit:4;stroke-dasharray:none;fill:none;fill-opacity:1;fill-rule: evenodd"/>
<path id="Shape2DView_nwe0078"  d="M -10.3925 -12.31 L -10.3925 -10.31 " stroke="#191919" stroke-width="0.35 px" style="stroke-width:0.35;stroke-miterlimit:4;stroke-dasharray:none;fill:none;fill-opacity:1;fill-rule: evenodd"/>
<path id="Shape2DView_nwe0079"  d="M 18.4075 -12.31 L 18.4075 -10.31 " stroke="#191919" stroke-width="0.35 px" style="stroke-width:0.35;stroke-miterlimit:4;stroke-dasharray:none;fill:none;fill-opacity:1;fill-rule: evenodd"/>
<path id="Shape2DView_nwe0080"  d="M -9.4925 -1.98 L -7.4925 -1.98 " stroke="#191919" stroke-width="0.35 px" style="stroke-width:0.35;stroke-miterlimit:4;stroke-dasharray:none;fill:none;fill-opacity:1;fill-rule: evenodd"/>
<path id="Shape2DView_nwe0081"  d="M 15.5075 -1.98 L 17.5075 -1.98 " stroke="#191919" stroke-width="0.35 px" style="stroke-width:0.35;stroke-miterlimit:4;stroke-dasharray:none;fill:none;fill-opacity:1;fill-rule: evenodd"/>
<path id="Shape2DView_nwe0082"  d="M -10.3925 -12.31 L -10.504464476103308 -12.31 L -10.615020933956314 -12.31 L -10.722779061955167 -12.31 L -10.826383739117558 -12.31 L -10.924532076515337 -12.31 L -11.015989801858733 -12.31 L -11.099606781186548 -12.31 L -11.17433148246803 -12.31 L -11.239224199228284 -12.31 L -11.293468867902419 -12.31 L -11.336383330308367 -12.31 L -11.367427912181824 -12.31 L -11.386212209893243 -12.31 L -11.3925 -12.31 " stroke="#191919" stroke-width="0.35 px" style="stroke-width:0.35;stroke-miterlimit:4;stroke-dasharray:none;fill:none;fill-opacity:1;fill-rule: evenodd"/>
<path id="Shape2DView_nwe0083"  d="M 18.4075 -12.31 L 18.519464476103305 -12.31 L 18.630020933956313 -12.31 L 18.737779061955166 -12.31 L 18.841383739117557 -12.31 L 18.939532076515334 -12.31 L 19.030989801858734 -12.31 L 19.114606781186545 -12.31 L 19.189331482468027 -12.31 L 19.254224199228283 -12.31 L 19.30846886790242 -12.31 L 19.351383330308366 -12.31 L 19.38242791218182 -12.31 L 19.40121220989324 -12.31 L 19.4075 -12.31 " stroke="#191919" stroke-width="0.35 px" style="stroke-width:0.35;stroke-miterlimit:4;stroke-dasharray:none;fill:none;fill-opacity:1;fill-rule: evenodd"/>
<path id="Shape2DView_nwe0084"  d="M 18.4075 -12.31 L -10.392499999999998 -12.31 " stroke="#191919" stroke-width="0.35 px" style="stroke-width:0.35;stroke-miterlimit:4;stroke-dasharray:none;fill:none;fill-opacity:1;fill-rule: evenodd"/>
<path id="Shape2DView_nwe0085"  d="M -4.255077687448022 -18.41000000000002 L -4.305077687448 -18.36 " stroke="#191919" stroke-width="0.35 px" style="stroke-width:0.35;stroke-miterlimit:4;stroke-dasharray:none;fill:none;fill-opacity:1;fill-rule: evenodd"/>
<path id="Shape2DView_nwe0086"  d="M 12.270077687448023 -18.41000000000002 L 12.320077687448 -18.36 " stroke="#191919" stroke-width="0.35 px" style="stroke-width:0.35;stroke-miterlimit:4;stroke-dasharray:none;fill:none;fill-opacity:1;fill-rule: evenodd"/>
<path id="Shape2DView_nwe0087"  d="M -4.305077687448 -13.21 L -4.305077687448 -18.36 " stroke="#191919" stroke-width="0.35 px" style="stroke-width:0.35;stroke-miterlimit:4;stroke-dasharray:none;fill:none;fill-opacity:1;fill-rule: evenodd"/>
<path id="Shape2DView_nwe0088"  d="M 12.320077687448 -13.21 L 12.320077687448 -18.36 " stroke="#191919" stroke-width="0.35 px" style="stroke-width:0.35;stroke-miterlimit:4;stroke-dasharray:none;fill:none;fill-opacity:1;fill-rule: evenodd"/>
<path id="Shape2DView_nwe0089"  d="M -4.305077687448 -13.21 Q -4.31282566580602 -13.142259618652613 -4.32057364416404 -13.074519237305225 Q -4.349933661792861 -12.997733516422098 -4.379293679421681 -12.920947795538973 Q -4.55741204615847 -12.622129505490133 -4.905077687448 -12.610000000000001 " stroke="#191919" stroke-width="0.35 px" style="stroke-width:0.35;stroke-miterlimit:4;stroke-dasharray:none;fill:none;fill-opacity:1;fill-rule: evenodd"/>
<path id="Shape2DView_nwe0090"  d="M 12.320077687448 -13.21 Q 12.327825665124548 -13.142259618494656 12.335573642801098 -13.074519236989312 Q 12.366076863002709 -12.99567324604557 12.396580083204318 -12.91682725510183 Q 12.575319367811666 -12.621785780527219 12.920077687448 -12.610000000000001 " stroke="#191919" stroke-width="0.35 px" style="stroke-width:0.35;stroke-miterlimit:4;stroke-dasharray:none;fill:none;fill-opacity:1;fill-rule: evenodd"/>
<path id="Shape2DView_nwe0091"  d="M 14.4575 -10.26 L 14.4575 -10.31 " stroke="#191919" stroke-width="0.35 px" style="stroke-width:0.35;stroke-miterlimit:4;stroke-dasharray:none;fill:none;fill-opacity:1;fill-rule: evenodd"/>
<path id="Shape2DView_nwe0092"  d="M -10.5425 -10.26 L -10.5425 -10.31 " stroke="#191919" stroke-width="0.35 px" style="stroke-width:0.35;stroke-miterlimit:4;stroke-dasharray:none;fill:none;fill-opacity:1;fill-rule: evenodd"/>
<title>b'Shape2DView'</title>
</g>
<g id="Rectangle" transform="translate(11.700500,1.888000) scale(1,-1)">
<rect fill="#ff0000" id="origin" width="1" height="1" x="0" y="0" />
<title>b'Rectangle'</title>
</g>
</svg>