<?xml version="1.0"?>
<!DOCTYPE svg PUBLIC "-//W3C//DTD SVG 1.1//EN" "http://www.w3.org/Graphics/SVG/1.1/DTD/svg11.dtd">
<svg width="54.162mm" height="19.802000000000046mm" viewBox="0 0 54.162 19.802000000000046" xmlns="http://www.w3.org/2000/svg" version="1.1">
<g id="Shape2DView" transform="translate(43.701000,2.331000) scale(1,-1)">
<path id="Shape2DView_nwe0000"  d="M -34.57943192049 -16.59 L -34.69139639659331 -16.59 L -34.80195285444632 -16.59 L -34.90971098244517 -16.59 L -35.013315659607564 -16.59 L -35.11146399700534 -16.59 L -35.202921722348734 -16.59 L -35.28653870167655 -16.59 L -35.36126340295803 -16.59 L -35.426156119718286 -16.59 L -35.48040078839242 -16.59 L -35.52331525079837 -16.59 L -35.55435983267183 -16.59 L -35.57314413038324 -16.59 L -35.57943192049 -16.59 " stroke="#191919" stroke-width="0.35 px" style="stroke-width:0.35;stroke-miterlimit:4;stroke-dasharray:none;fill:none;fill-opacity:1;fill-rule: evenodd"/>
<path id="Shape2DView_nwe0001"  d="M 1.339431920499 -16.59 L -34.57943192049 -16.59 " stroke="#191919" stroke-width="0.35 px" style="stroke-width:0.35;stroke-miterlimit:4;stroke-dasharray:none;fill:none;fill-opacity:1;fill-rule: evenodd"/>
<path id="Shape2DView_nwe0002"  d="M -34.57943192049 -16.64 L -34.68579817278815 -16.64 L -34.7908268077485 -16.64 L -34.89319702934741 -16.64 L -34.99162147265168 -16.64 L -35.08486239317957 -16.64 L -35.1717472322558 -16.64 L -35.25118336261722 -16.64 L -35.32217182883463 -16.64 L -35.38381990975687 -16.64 L -35.4353523449973 -16.64 L -35.47612108428295 -16.64 L -35.505613437062735 -16.64 L -35.523458519888585 -16.64 L -35.529431920490005 -16.64 " stroke="#191919" stroke-width="0.35 px" style="stroke-width:0.35;stroke-miterlimit:4;stroke-dasharray:none;fill:none;fill-opacity:1;fill-rule: evenodd"/>
<path id="Shape2DView_nwe0003"  d="M 1.339431920499 -16.64 L -34.57943192049 -16.64 " stroke="#191919" stroke-width="0.35 px" style="stroke-width:0.35;stroke-miterlimit:4;stroke-dasharray:none;fill:none;fill-opacity:1;fill-rule: evenodd"/>
<path id="Shape2DView_nwe0004"  d="M 2.339431920499 -16.59 L 2.333144130392242 -16.59 L 2.314359832680823 -16.59 L 2.283315250807367 -16.59 L 2.240400788401418 -16.59 L 2.1861561197272827 -16.59 L 2.1212634029670285 -16.59 L 2.0465387016855465 -16.59 L 1.9629217223577324 -16.59 L 1.8714639970143354 -16.59 L 1.7733156596165571 -16.59 L 1.6697109824541663 -16.59 L 1.5619528544553138 -16.59 L 1.4513963966023076 -16.59 L 1.339431920499 -16.59 " stroke="#191919" stroke-width="0.35 px" style="stroke-width:0.35;stroke-miterlimit:4;stroke-dasharray:none;fill:none;fill-opacity:1;fill-rule: evenodd"/>
<path id="Shape2DView_nwe0005"  d="M 9.83 -10.84 L 9.824340988903918 -10.84 L 9.80743512096364 -10.84 L 9.779494997277531 -10.84 L 9.740871981112177 -10.84 L 9.692051779305455 -10.84 L 9.633648334221226 -10.84 L 9.566396103067893 -10.84 L 9.49114082167286 -10.84 L 9.408828868863802 -10.84 L 9.320495365205803 -10.84 L 9.22725115575965 -10.84 L 9.130268840560683 -10.84 L 9.030768028492977 -10.84 L 8.93 -10.84 " stroke="#191919" stroke-width="0.35 px" style="stroke-width:0.35;stroke-miterlimit:4;stroke-dasharray:none;fill:none;fill-opacity:1;fill-rule: evenodd"/>
<path id="Shape2DView_nwe0006"  d="M 8.93 -10.84 L -42.17 -10.84 " stroke="#191919" stroke-width="0.35 px" style="stroke-width:0.35;stroke-miterlimit:4;stroke-dasharray:none;fill:none;fill-opacity:1;fill-rule: evenodd"/>
<path id="Shape2DView_nwe0007"  d="M -42.17 -10.84 L -42.27076802849298 -10.84 L -42.37026884056068 -10.84 L -42.467251155759655 -10.84 L -42.5604953652058 -10.84 L -42.6488288688638 -10.84 L -42.73114082167286 -10.84 L -42.8063961030679 -10.84 L -42.87364833422123 -10.84 L -42.93205177930546 -10.84 L -42.98087198111218 -10.84 L -43.01949499727753 -10.84 L -43.04743512096364 -10.84 L -43.06434098890392 -10.84 L -43.07 -10.84 " stroke="#191919" stroke-width="0.35 px" style="stroke-width:0.35;stroke-miterlimit:4;stroke-dasharray:none;fill:none;fill-opacity:1;fill-rule: evenodd"/>
<path id="Shape2DView_nwe0008"  d="M -43.07 -10.84 L -43.06434098890392 -10.84 L -43.04743512096364 -10.84 L -43.01949499727753 -10.84 L -42.98087198111218 -10.84 L -42.93205177930546 -10.84 L -42.87364833422123 -10.84 L -42.8063961030679 -10.84 L -42.73114082167286 -10.84 L -42.6488288688638 -10.84 L -42.5604953652058 -10.84 L -42.467251155759655 -10.84 L -42.37026884056068 -10.84 L -42.27076802849298 -10.84 L -42.17 -10.84 " stroke="#191919" stroke-width="0.35 px" style="stroke-width:0.35;stroke-miterlimit:4;stroke-dasharray:none;fill:none;fill-opacity:1;fill-rule: evenodd"/>
<path id="Shape2DView_nwe0009"  d="M 2.289431920499 -16.64 L 2.2834585198975805 -16.64 L 2.2656134370717322 -16.64 L 2.2361210842919492 -16.64 L 2.1953523450062984 -16.64 L 2.1438199097658703 -16.64 L 2.0821718288436286 -16.64 L 2.0111833626262205 -16.64 L 1.931747232264797 -16.64 L 1.8448623931885701 -16.64 L 1.7516214726606805 -16.64 L 1.653197029356409 -16.64 L 1.550826807757499 -16.64 L 1.4457981727971427 -16.64 L 1.339431920499 -16.64 " stroke="#191919" stroke-width="0.35 px" style="stroke-width:0.35;stroke-miterlimit:4;stroke-dasharray:none;fill:none;fill-opacity:1;fill-rule: evenodd"/>
<path id="Shape2DView_nwe0010"  d="M 9.93 -10.74 A 0.1 0.1 0 0 0 9.83 -10.84" stroke="#191919" stroke-width="0.35 px" style="stroke-width:0.35;stroke-miterlimit:4;stroke-dasharray:none;fill:none;fill-opacity:1;fill-rule: evenodd"/>
<path id="Shape2DView_nwe0011"  d="M -43.17 -10.74 A 0.1 0.1 0 0 1 -43.07 -10.84" stroke="#191919" stroke-width="0.35 px" style="stroke-width:0.35;stroke-miterlimit:4;stroke-dasharray:none;fill:none;fill-opacity:1;fill-rule: evenodd"/>
<path id="Shape2DView_nwe0013"  d="M -35.4740820053 -16.84 L -35.46779421519324 -16.84 L -35.449009917481824 -16.84 L -35.417965335608365 -16.84 L -35.37505087320242 -16.84 L -35.32080620452828 -16.84 L -35.25591348776803 -16.84 L -35.181188786486544 -16.84 L -35.09757180715873 -16.84 L -35.00611408181533 -16.84 L -34.90796574441755 -16.84 L -34.804361067255165 -16.84 L -34.696602939256316 -16.84 L -34.58604648140331 -16.84 L -34.4740820053 -16.84 " stroke="#191919" stroke-width="0.35 px" style="stroke-width:0.35;stroke-miterlimit:4;stroke-dasharray:none;fill:none;fill-opacity:1;fill-rule: evenodd"/>
<path id="Shape2DView_nwe0014"  d="M -34.4740820053 -16.84 L 1.2340820053030015 -16.84 " stroke="#191919" stroke-width="0.35 px" style="stroke-width:0.35;stroke-miterlimit:4;stroke-dasharray:none;fill:none;fill-opacity:1;fill-rule: evenodd"/>
<path id="Shape2DView_nwe0015"  d="M 1.234082005303 -16.84 L 1.3460464814063078 -16.84 L 1.4566029392593143 -16.84 L 1.564361067258167 -16.84 L 1.667965744420558 -16.84 L 1.7661140818183365 -16.84 L 1.8575718071617335 -16.84 L 1.9411887864895474 -16.84 L 2.0159134877710296 -16.84 L 2.0808062045312843 -16.84 L 2.135050873205419 -16.84 L 2.1779653356113675 -16.84 L 2.2090099174848237 -16.84 L 2.2277942151962424 -16.84 L 2.2340820053029997 -16.84 " stroke="#191919" stroke-width="0.35 px" style="stroke-width:0.35;stroke-miterlimit:4;stroke-dasharray:none;fill:none;fill-opacity:1;fill-rule: evenodd"/>
<path id="Shape2DView_nwe0016"  d="M 9.93 -10.54 L 9.93 -10.74 " stroke="#191919" stroke-width="0.35 px" style="stroke-width:0.35;stroke-miterlimit:4;stroke-dasharray:none;fill:none;fill-opacity:1;fill-rule: evenodd"/>
<path id="Shape2DView_nwe0017"  d="M -43.17 -10.54 L -43.17 -10.74 " stroke="#191919" stroke-width="0.35 px" style="stroke-width:0.35;stroke-miterlimit:4;stroke-dasharray:none;fill:none;fill-opacity:1;fill-rule: evenodd"/>
<path id="Shape2DView_nwe0018"  d="M -35.3740820053 -16.94 L -35.36842299420392 -16.94 L -35.35151712626364 -16.94 L -35.32357700257753 -16.94 L -35.28495398641218 -16.94 L -35.23613378460546 -16.94 L -35.177730339521226 -16.94 L -35.11047810836789 -16.94 L -35.035222826972856 -16.94 L -34.9529108741638 -16.94 L -34.8645773705058 -16.94 L -34.77133316105965 -16.94 L -34.67435084586068 -16.94 L -34.57485003379298 -16.94 L -34.4740820053 -16.94 " stroke="#191919" stroke-width="0.35 px" style="stroke-width:0.35;stroke-miterlimit:4;stroke-dasharray:none;fill:none;fill-opacity:1;fill-rule: evenodd"/>
<path id="Shape2DView_nwe0019"  d="M -34.4740820053 -16.94 L 1.2340820053030015 -16.94 " stroke="#191919" stroke-width="0.35 px" style="stroke-width:0.35;stroke-miterlimit:4;stroke-dasharray:none;fill:none;fill-opacity:1;fill-rule: evenodd"/>
<path id="Shape2DView_nwe0020"  d="M 1.234082005303 -16.94 L 1.334850033795977 -16.94 L 1.4343508458636829 -16.94 L 1.5313331610626504 -16.94 L 1.6245773705088022 -16.94 L 1.7129108741668029 -16.94 L 1.79522282697586 -16.94 L 1.8704781083708928 -16.94 L 1.9377303395242267 -16.94 L 1.996133784608456 -16.94 L 2.0449539864151776 -16.94 L 2.083577002580531 -16.94 L 2.1115171262666412 -16.94 L 2.128422994206918 -16.94 L 2.134082005303 -16.94 " stroke="#191919" stroke-width="0.35 px" style="stroke-width:0.35;stroke-miterlimit:4;stroke-dasharray:none;fill:none;fill-opacity:1;fill-rule: evenodd"/>
<path id="Shape2DView_nwe0021"  d="M 9.93 -10.54 L 9.93 -8.54 " stroke="#191919" stroke-width="0.35 px" style="stroke-width:0.35;stroke-miterlimit:4;stroke-dasharray:none;fill:none;fill-opacity:1;fill-rule: evenodd"/>
<path id="Shape2DView_nwe0022"  d="M 8.93 -8.54 L 9.041964476103308 -8.54 L 9.152520933956314 -8.54 L 9.260279061955167 -8.54 L 9.363883739117558 -8.54 L 9.462032076515337 -8.54 L 9.553489801858733 -8.54 L 9.637106781186548 -8.54 L 9.71183148246803 -8.54 L 9.776724199228283 -8.54 L 9.830968867902419 -8.54 L 9.873883330308367 -8.54 L 9.904927912181824 -8.54 L 9.923712209893242 -8.54 L 9.93 -8.54 " stroke="#191919" stroke-width="0.35 px" style="stroke-width:0.35;stroke-miterlimit:4;stroke-dasharray:none;fill:none;fill-opacity:1;fill-rule: evenodd"/>
<path id="Shape2DView_nwe0023"  d="M 9.93 -8.54 L 9.93 1.8000000000000007 " stroke="#191919" stroke-width="0.35 px" style="stroke-width:0.35;stroke-miterlimit:4;stroke-dasharray:none;fill:none;fill-opacity:1;fill-rule: evenodd"/>
<path id="Shape2DView_nwe0024"  d="M 4.43 -8.54 L 8.93 -8.54 " stroke="#191919" stroke-width="0.35 px" style="stroke-width:0.35;stroke-miterlimit:4;stroke-dasharray:none;fill:none;fill-opacity:1;fill-rule: evenodd"/>
<path id="Shape2DView_nwe0025"  d="M 4.43 1.8000000000000007 L 4.43 -8.54 " stroke="#191919" stroke-width="0.35 px" style="stroke-width:0.35;stroke-miterlimit:4;stroke-dasharray:none;fill:none;fill-opacity:1;fill-rule: evenodd"/>
<path id="Shape2DView_nwe0026"  d="M 4.43 1.8 L -37.67 1.8 " stroke="#191919" stroke-width="0.35 px" style="stroke-width:0.35;stroke-miterlimit:4;stroke-dasharray:none;fill:none;fill-opacity:1;fill-rule: evenodd"/>
<path id="Shape2DView_nwe0027"  d="M -37.67 -8.54 L -37.67 1.8000000000000007 " stroke="#191919" stroke-width="0.35 px" style="stroke-width:0.35;stroke-miterlimit:4;stroke-dasharray:none;fill:none;fill-opacity:1;fill-rule: evenodd"/>
<path id="Shape2DView_nwe0028"  d="M -42.17 -8.54 L -37.67 -8.54 " stroke="#191919" stroke-width="0.35 px" style="stroke-width:0.35;stroke-miterlimit:4;stroke-dasharray:none;fill:none;fill-opacity:1;fill-rule: evenodd"/>
<path id="Shape2DView_nwe0029"  d="M -43.17 -8.54 L -43.16371220989324 -8.54 L -43.14492791218183 -8.54 L -43.11388333030837 -8.54 L -43.07096886790242 -8.54 L -43.016724199228285 -8.54 L -42.95183148246803 -8.54 L -42.87710678118655 -8.54 L -42.79348980185873 -8.54 L -42.70203207651534 -8.54 L -42.60388373911756 -8.54 L -42.50027906195517 -8.54 L -42.39252093395632 -8.54 L -42.28196447610331 -8.54 L -42.17 -8.54 " stroke="#191919" stroke-width="0.35 px" style="stroke-width:0.35;stroke-miterlimit:4;stroke-dasharray:none;fill:none;fill-opacity:1;fill-rule: evenodd"/>
<path id="Shape2DView_nwe0030"  d="M -43.17 -10.54 L -43.17 -8.54 " stroke="#191919" stroke-width="0.35 px" style="stroke-width:0.35;stroke-miterlimit:4;stroke-dasharray:none;fill:none;fill-opacity:1;fill-rule: evenodd"/>
<path id="Shape2DView_nwe0031"  d="M -43.17 1.8000000000000007 L -43.17 -8.54 " stroke="#191919" stroke-width="0.35 px" style="stroke-width:0.35;stroke-miterlimit:4;stroke-dasharray:none;fill:none;fill-opacity:1;fill-rule: evenodd"/>
<path id="Shape2DView_nwe0032"  d="M -38.17 -8.34 L -38.22014417563636 -8.34 L -38.36806226419516 -8.34 L -38.606337035063945 -8.34 L -38.92302039628253 -8.34 L -39.302232521764886 -8.34 L -39.72495813208737 -8.34 L -40.17 -8.34 L -40.61504186791263 -8.34 L -41.03776747823512 -8.34 L -41.41697960371747 -8.34 L -41.73366296493606 -8.34 L -41.97193773580484 -8.34 L -42.11985582436365 -8.34 L -42.17 -8.34 " stroke="#191919" stroke-width="0.35 px" style="stroke-width:0.35;stroke-miterlimit:4;stroke-dasharray:none;fill:none;fill-opacity:1;fill-rule: evenodd"/>
<path id="Shape2DView_nwe0033"  d="M 8.93 -8.34 L 8.879855824363647 -8.34 L 8.731937735804838 -8.34 L 8.493662964936059 -8.34 L 8.176979603717466 -8.34 L 7.797767478235116 -8.34 L 7.375041867912628 -8.34 L 6.93 -8.34 L 6.484958132087371 -8.34 L 6.062232521764884 -8.34 L 5.683020396282533 -8.34 L 5.36633703506394 -8.34 L 5.128062264195162 -8.34 L 4.980144175636353 -8.34 L 4.93 -8.34 " stroke="#191919" stroke-width="0.35 px" style="stroke-width:0.35;stroke-miterlimit:4;stroke-dasharray:none;fill:none;fill-opacity:1;fill-rule: evenodd"/>
<path id="Shape2DView_nwe0034"  d="M 4.429999999999999 1.8 L 9.93 1.8 " stroke="#191919" stroke-width="0.35 px" style="stroke-width:0.35;stroke-miterlimit:4;stroke-dasharray:none;fill:none;fill-opacity:1;fill-rule: evenodd"/>
<path id="Shape2DView_nwe0035"  d="M 5.33 -1.4200000000000002 A 1.6 1.6 0 0 0 8.53 -1.42" stroke="#191919" stroke-width="0.35 px" style="stroke-width:0.35;stroke-miterlimit:4;stroke-dasharray:none;fill:none;fill-opacity:1;fill-rule: evenodd"/>
<path id="Shape2DView_nwe0036"  d="M 5.33 -3.02 L 5.33 -1.42 " stroke="#191919" stroke-width="0.35 px" style="stroke-width:0.35;stroke-miterlimit:4;stroke-dasharray:none;fill:none;fill-opacity:1;fill-rule: evenodd"/>
<path id="Shape2DView_nwe0037"  d="M 5.93 -3.02 L 5.33 -3.02 " stroke="#191919" stroke-width="0.35 px" style="stroke-width:0.35;stroke-miterlimit:4;stroke-dasharray:none;fill:none;fill-opacity:1;fill-rule: evenodd"/>
<path id="Shape2DView_nwe0038"  d="M 8.53 -3.02 L 7.93 -3.02 " stroke="#191919" stroke-width="0.35 px" style="stroke-width:0.35;stroke-miterlimit:4;stroke-dasharray:none;fill:none;fill-opacity:1;fill-rule: evenodd"/>
<path id="Shape2DView_nwe0039"  d="M 8.53 -1.42 L 8.53 -3.02 " stroke="#191919" stroke-width="0.35 px" style="stroke-width:0.35;stroke-miterlimit:4;stroke-dasharray:none;fill:none;fill-opacity:1;fill-rule: evenodd"/>
<path id="Shape2DView_nwe0040"  d="M -43.17 1.8 L -37.67 1.8 " stroke="#191919" stroke-width="0.35 px" style="stroke-width:0.35;stroke-miterlimit:4;stroke-dasharray:none;fill:none;fill-opacity:1;fill-rule: evenodd"/>
<path id="Shape2DView_nwe0041"  d="M -38.57 -1.42 L -38.57 -3.02 " stroke="#191919" stroke-width="0.35 px" style="stroke-width:0.35;stroke-miterlimit:4;stroke-dasharray:none;fill:none;fill-opacity:1;fill-rule: evenodd"/>
<path id="Shape2DView_nwe0042"  d="M -41.77 -1.4200000000000002 A 1.6 1.6 0 0 0 -38.57 -1.42" stroke="#191919" stroke-width="0.35 px" style="stroke-width:0.35;stroke-miterlimit:4;stroke-dasharray:none;fill:none;fill-opacity:1;fill-rule: evenodd"/>
<path id="Shape2DView_nwe0043"  d="M -38.57 -3.02 A 1.6 1.6 0 0 0 -39.17 -4.269" stroke="#191919" stroke-width="0.35 px" style="stroke-width:0.35;stroke-miterlimit:4;stroke-dasharray:none;fill:none;fill-opacity:1;fill-rule: evenodd"/>
<path id="Shape2DView_nwe0044"  d="M -41.169999999999845 -4.268999599679805 A 1.6 1.6 0 0 0 -41.77 -3.02" stroke="#191919" stroke-width="0.35 px" style="stroke-width:0.35;stroke-miterlimit:4;stroke-dasharray:none;fill:none;fill-opacity:1;fill-rule: evenodd"/>
<path id="Shape2DView_nwe0045"  d="M -41.77 -3.02 L -41.77 -1.42 " stroke="#191919" stroke-width="0.35 px" style="stroke-width:0.35;stroke-miterlimit:4;stroke-dasharray:none;fill:none;fill-opacity:1;fill-rule: evenodd"/>
<path id="Shape2DView_nwe0046"  d="M -38.17 -8.54 L -38.17 -8.34 " stroke="#191919" stroke-width="0.35 px" style="stroke-width:0.35;stroke-miterlimit:4;stroke-dasharray:none;fill:none;fill-opacity:1;fill-rule: evenodd"/>
<path id="Shape2DView_nwe0047"  d="M -39.17 -1.3199999999999998 L -39.17 -1.3206287790106757 L -39.17 -1.3225072087818175 L -39.17 -1.325611666969163 L -39.17 -1.329903113209758 L -39.17 -1.3353275800771716 L -39.17 -1.341816851753197 L -39.17 -1.349289321881345 L -39.17 -1.3576510198141265 L -39.17 -1.3667967923484663 L -39.17 -1.3766116260882442 L -39.17 -1.3869720938044832 L -39.17 -1.3977479066043685 L -39.17 -1.4088035523896691 L -39.17 -1.42 " stroke="#191919" stroke-width="0.35 px" style="stroke-width:0.35;stroke-miterlimit:4;stroke-dasharray:none;fill:none;fill-opacity:1;fill-rule: evenodd"/>
<path id="Shape2DView_nwe0048"  d="M -39.17 -1.42 L -39.17 -8.24 " stroke="#191919" stroke-width="0.35 px" style="stroke-width:0.35;stroke-miterlimit:4;stroke-dasharray:none;fill:none;fill-opacity:1;fill-rule: evenodd"/>
<path id="Shape2DView_nwe0049"  d="M -39.17 -8.34 L -39.17 -8.24 " stroke="#191919" stroke-width="0.35 px" style="stroke-width:0.35;stroke-miterlimit:4;stroke-dasharray:none;fill:none;fill-opacity:1;fill-rule: evenodd"/>
<path id="Shape2DView_nwe0050"  d="M -41.17 -8.24 L -41.17 -8.34 " stroke="#191919" stroke-width="0.35 px" style="stroke-width:0.35;stroke-miterlimit:4;stroke-dasharray:none;fill:none;fill-opacity:1;fill-rule: evenodd"/>
<path id="Shape2DView_nwe0051"  d="M -39.17 -8.24 L -41.17 -8.24 " stroke="#191919" stroke-width="0.35 px" style="stroke-width:0.35;stroke-miterlimit:4;stroke-dasharray:none;fill:none;fill-opacity:1;fill-rule: evenodd"/>
<path id="Shape2DView_nwe0052"  d="M -41.17 -8.24 L -41.17 -1.42 " stroke="#191919" stroke-width="0.35 px" style="stroke-width:0.35;stroke-miterlimit:4;stroke-dasharray:none;fill:none;fill-opacity:1;fill-rule: evenodd"/>
<path id="Shape2DView_nwe0053"  d="M -41.17 -1.3199999999999998 L -41.17 -1.3206287790106757 L -41.17 -1.3225072087818175 L -41.17 -1.325611666969163 L -41.17 -1.329903113209758 L -41.17 -1.3353275800771716 L -41.17 -1.341816851753197 L -41.17 -1.349289321881345 L -41.17 -1.3576510198141265 L -41.17 -1.3667967923484663 L -41.17 -1.3766116260882442 L -41.17 -1.3869720938044832 L -41.17 -1.3977479066043685 L -41.17 -1.4088035523896691 L -41.17 -1.42 " stroke="#191919" stroke-width="0.35 px" style="stroke-width:0.35;stroke-miterlimit:4;stroke-dasharray:none;fill:none;fill-opacity:1;fill-rule: evenodd"/>
<path id="Shape2DView_nwe0054"  d="M 8.93 -8.54 L 8.93 -8.34 " stroke="#191919" stroke-width="0.35 px" style="stroke-width:0.35;stroke-miterlimit:4;stroke-dasharray:none;fill:none;fill-opacity:1;fill-rule: evenodd"/>
<path id="Shape2DView_nwe0055"  d="M 7.93 -1.3199999999999998 L 7.93 -1.3206287790106757 L 7.93 -1.3225072087818175 L 7.93 -1.325611666969163 L 7.93 -1.329903113209758 L 7.93 -1.3353275800771716 L 7.93 -1.341816851753197 L 7.93 -1.349289321881345 L 7.93 -1.3576510198141265 L 7.93 -1.3667967923484663 L 7.93 -1.3766116260882442 L 7.93 -1.3869720938044832 L 7.93 -1.3977479066043685 L 7.93 -1.4088035523896691 L 7.93 -1.42 " stroke="#191919" stroke-width="0.35 px" style="stroke-width:0.35;stroke-miterlimit:4;stroke-dasharray:none;fill:none;fill-opacity:1;fill-rule: evenodd"/>
<path id="Shape2DView_nwe0056"  d="M 7.93 -1.42 L 7.93 -8.24 " stroke="#191919" stroke-width="0.35 px" style="stroke-width:0.35;stroke-miterlimit:4;stroke-dasharray:none;fill:none;fill-opacity:1;fill-rule: evenodd"/>
<path id="Shape2DView_nwe0057"  d="M 7.93 -8.34 L 7.93 -8.24 " stroke="#191919" stroke-width="0.35 px" style="stroke-width:0.35;stroke-miterlimit:4;stroke-dasharray:none;fill:none;fill-opacity:1;fill-rule: evenodd"/>
<path id="Shape2DView_nwe0058"  d="M 5.93 -8.24 L 5.93 -8.34 " stroke="#191919" stroke-width="0.35 px" style="stroke-width:0.35;stroke-miterlimit:4;stroke-dasharray:none;fill:none;fill-opacity:1;fill-rule: evenodd"/>
<path id="Shape2DView_nwe0059"  d="M 7.93 -8.24 L 5.93 -8.24 " stroke="#191919" stroke-width="0.35 px" style="stroke-width:0.35;stroke-miterlimit:4;stroke-dasharray:none;fill:none;fill-opacity:1;fill-rule: evenodd"/>
<path id="Shape2DView_nwe0060"  d="M 5.93 -1.3199999999999998 L 5.93 -1.3206287790106757 L 5.93 -1.3225072087818175 L 5.93 -1.325611666969163 L 5.93 -1.329903113209758 L 5.93 -1.3353275800771716 L 5.93 -1.341816851753197 L 5.93 -1.349289321881345 L 5.93 -1.3576510198141265 L 5.93 -1.3667967923484663 L 5.93 -1.3766116260882442 L 5.93 -1.3869720938044832 L 5.93 -1.3977479066043685 L 5.93 -1.4088035523896691 L 5.93 -1.42 " stroke="#191919" stroke-width="0.35 px" style="stroke-width:0.35;stroke-miterlimit:4;stroke-dasharray:none;fill:none;fill-opacity:1;fill-rule: evenodd"/>
<path id="Shape2DView_nwe0061"  d="M 5.93 -8.24 L 5.93 -1.42 " stroke="#191919" stroke-width="0.35 px" style="stroke-width:0.35;stroke-miterlimit:4;stroke-dasharray:none;fill:none;fill-opacity:1;fill-rule: evenodd"/>
<path id="Shape2DView_nwe0062"  d="M -41.17 -1.32 L -39.17 -1.32 " stroke="#191919" stroke-width="0.35 px" style="stroke-width:0.35;stroke-miterlimit:4;stroke-dasharray:none;fill:none;fill-opacity:1;fill-rule: evenodd"/>
<path id="Shape2DView_nwe0063"  d="M 5.93 -1.32 L 7.93 -1.32 " stroke="#191919" stroke-width="0.35 px" style="stroke-width:0.35;stroke-miterlimit:4;stroke-dasharray:none;fill:none;fill-opacity:1;fill-rule: evenodd"/>
<path id="Shape2DView_nwe0064"  d="M -34.57943192049 -11.44 L -34.57943192049 -16.59 " stroke="#191919" stroke-width="0.35 px" style="stroke-width:0.35;stroke-miterlimit:4;stroke-dasharray:none;fill:none;fill-opacity:1;fill-rule: evenodd"/>
<path id="Shape2DView_nwe0065"  d="M -35.57943192049 -11.44 L -35.57314413038324 -11.44 L -35.55435983267183 -11.44 L -35.52331525079837 -11.44 L -35.48040078839242 -11.44 L -35.426156119718286 -11.44 L -35.36126340295803 -11.44 L -35.28653870167655 -11.44 L -35.202921722348734 -11.44 L -35.11146399700534 -11.44 L -35.01331565960756 -11.44 L -34.90971098244517 -11.44 L -34.80195285444632 -11.44 L -34.69139639659331 -11.44 L -34.57943192049 -11.44 " stroke="#191919" stroke-width="0.35 px" style="stroke-width:0.35;stroke-miterlimit:4;stroke-dasharray:none;fill:none;fill-opacity:1;fill-rule: evenodd"/>
<path id="Shape2DView_nwe0066"  d="M 1.339431920499 -11.44 L 1.339431920499 -16.59 " stroke="#191919" stroke-width="0.35 px" style="stroke-width:0.35;stroke-miterlimit:4;stroke-dasharray:none;fill:none;fill-opacity:1;fill-rule: evenodd"/>
<path id="Shape2DView_nwe0067"  d="M -34.57943192049 -11.44 L 1.3394319204990026 -11.44 " stroke="#191919" stroke-width="0.35 px" style="stroke-width:0.35;stroke-miterlimit:4;stroke-dasharray:none;fill:none;fill-opacity:1;fill-rule: evenodd"/>
<path id="Shape2DView_nwe0068"  d="M -34.57943192049 -11.44 L -34.57943192049 -11.372821314338015 L -34.57943192049 -11.306487439626212 L -34.57943192049 -11.2418325628269 L -34.57943192049 -11.179669756529465 L -34.57943192049 -11.120780754090799 L -34.57943192049 -11.06590611888476 L -34.57943192049 -11.015735931288072 L -34.57943192049 -10.970901110519181 L -34.57943192049 -10.93196548046303 L -34.57943192049 -10.899418679258549 L -34.57943192049 -10.873670001814979 L -34.57943192049 -10.855043252690905 L -34.57943192049 -10.843772674064054 L -34.57943192049 -10.84 " stroke="#191919" stroke-width="0.35 px" style="stroke-width:0.35;stroke-miterlimit:4;stroke-dasharray:none;fill:none;fill-opacity:1;fill-rule: evenodd"/>
<path id="Shape2DView_nwe0069"  d="M -34.57943192049 -16.64 L -34.57943192049 -16.59 " stroke="#191919" stroke-width="0.35 px" style="stroke-width:0.35;stroke-miterlimit:4;stroke-dasharray:none;fill:none;fill-opacity:1;fill-rule: evenodd"/>
<path id="Shape2DView_nwe0070"  d="M 1.339431920499 -11.44 L 1.339431920499 -11.372821314338015 L 1.339431920499 -11.306487439626212 L 1.339431920499 -11.2418325628269 L 1.339431920499 -11.179669756529465 L 1.339431920499 -11.120780754090799 L 1.339431920499 -11.06590611888476 L 1.339431920499 -11.015735931288072 L 1.339431920499 -10.970901110519181 L 1.339431920499 -10.93196548046303 L 1.339431920499 -10.899418679258549 L 1.339431920499 -10.873670001814979 L 1.339431920499 -10.855043252690905 L 1.339431920499 -10.843772674064054 L 1.339431920499 -10.84 " stroke="#191919" stroke-width="0.35 px" style="stroke-width:0.35;stroke-miterlimit:4;stroke-dasharray:none;fill:none;fill-opacity:1;fill-rule: evenodd"/>
<path id="Shape2DView_nwe0071"  d="M 1.339431920499 -16.64 L 1.339431920499 -16.59 " stroke="#191919" stroke-width="0.35 px" style="stroke-width:0.35;stroke-miterlimit:4;stroke-dasharray:none;fill:none;fill-opacity:1;fill-rule: evenodd"/>
<path id="Shape2DView_nwe0072"  d="M 1.339431920499 -11.44 L 1.4513963966023078 -11.44 L 1.5619528544553143 -11.44 L 1.6697109824541672 -11.44 L 1.773315659616558 -11.44 L 1.8714639970143365 -11.44 L 1.9629217223577333 -11.44 L 2.0465387016855474 -11.44 L 2.12126340296703 -11.44 L 2.186156119727284 -11.44 L 2.240400788401419 -11.44 L 2.2833152508073677 -11.44 L 2.3143598326808235 -11.44 L 2.3331441303922427 -11.44 L 2.339431920499 -11.44 " stroke="#191919" stroke-width="0.35 px" style="stroke-width:0.35;stroke-miterlimit:4;stroke-dasharray:none;fill:none;fill-opacity:1;fill-rule: evenodd"/>
<path id="Shape2DView_nwe0073"  d="M 9.93 -10.74 L 9.923712209893242 -10.74 L 9.904927912181824 -10.74 L 9.873883330308367 -10.74 L 9.830968867902419 -10.74 L 9.776724199228283 -10.74 L 9.71183148246803 -10.74 L 9.637106781186548 -10.74 L 9.553489801858733 -10.74 L 9.462032076515337 -10.74 L 9.363883739117558 -10.74 L 9.260279061955167 -10.74 L 9.152520933956314 -10.74 L 9.041964476103308 -10.74 L 8.93 -10.74 " stroke="#191919" stroke-width="0.35 px" style="stroke-width:0.35;stroke-miterlimit:4;stroke-dasharray:none;fill:none;fill-opacity:1;fill-rule: evenodd"/>
<path id="Shape2DView_nwe0074"  d="M 8.93 -10.74 L 8.93 -10.751196447610331 L 8.93 -10.762252093395631 L 8.93 -10.773027906195518 L 8.93 -10.783388373911755 L 8.93 -10.793203207651533 L 8.93 -10.802348980185874 L 8.93 -10.810710678118655 L 8.93 -10.818183148246803 L 8.93 -10.824672419922829 L 8.93 -10.830096886790242 L 8.93 -10.834388333030837 L 8.93 -10.837492791218182 L 8.93 -10.839371220989324 L 8.93 -10.84 " stroke="#191919" stroke-width="0.35 px" style="stroke-width:0.35;stroke-miterlimit:4;stroke-dasharray:none;fill:none;fill-opacity:1;fill-rule: evenodd"/>
<path id="Shape2DView_nwe0075"  d="M 8.93 -10.74 L -42.17 -10.74 " stroke="#191919" stroke-width="0.35 px" style="stroke-width:0.35;stroke-miterlimit:4;stroke-dasharray:none;fill:none;fill-opacity:1;fill-rule: evenodd"/>
<path id="Shape2DView_nwe0076"  d="M -42.17 -10.74 L -42.17 -10.751196447610331 L -42.17 -10.762252093395631 L -42.17 -10.773027906195518 L -42.17 -10.783388373911755 L -42.17 -10.793203207651533 L -42.17 -10.802348980185874 L -42.17 -10.810710678118655 L -42.17 -10.818183148246803 L -42.17 -10.824672419922829 L -42.17 -10.830096886790242 L -42.17 -10.834388333030837 L -42.17 -10.837492791218182 L -42.17 -10.839371220989324 L -42.17 -10.84 " stroke="#191919" stroke-width="0.35 px" style="stroke-width:0.35;stroke-miterlimit:4;stroke-dasharray:none;fill:none;fill-opacity:1;fill-rule: evenodd"/>
<path id="Shape2DView_nwe0077"  d="M -42.17 -10.74 L -42.28196447610331 -10.74 L -42.39252093395632 -10.74 L -42.50027906195517 -10.74 L -42.60388373911756 -10.74 L -42.70203207651534 -10.74 L -42.79348980185873 -10.74 L -42.87710678118655 -10.74 L -42.95183148246803 -10.74 L -43.016724199228285 -10.74 L -43.07096886790242 -10.74 L -43.11388333030837 -10.74 L -43.14492791218183 -10.74 L -43.16371220989324 -10.74 L -43.17 -10.74 " stroke="#191919" stroke-width="0.35 px" style="stroke-width:0.35;stroke-miterlimit:4;stroke-dasharray:none;fill:none;fill-opacity:1;fill-rule: evenodd"/>
<path id="Shape2DView_nwe0079"  d="M -34.4740820053 -16.64 L -34.4740820053 -16.84 " stroke="#191919" stroke-width="0.35 px" style="stroke-width:0.35;stroke-miterlimit:4;stroke-dasharray:none;fill:none;fill-opacity:1;fill-rule: evenodd"/>
<path id="Shape2DView_nwe0080"  d="M 1.234082005303 -16.64 L 1.234082005303 -16.84 " stroke="#191919" stroke-width="0.35 px" style="stroke-width:0.35;stroke-miterlimit:4;stroke-dasharray:none;fill:none;fill-opacity:1;fill-rule: evenodd"/>
<path id="Shape2DView_nwe0081"  d="M 8.93 -10.54 L 8.93 -10.74 " stroke="#191919" stroke-width="0.35 px" style="stroke-width:0.35;stroke-miterlimit:4;stroke-dasharray:none;fill:none;fill-opacity:1;fill-rule: evenodd"/>
<path id="Shape2DView_nwe0082"  d="M -42.17 -10.54 L -42.17 -10.74 " stroke="#191919" stroke-width="0.35 px" style="stroke-width:0.35;stroke-miterlimit:4;stroke-dasharray:none;fill:none;fill-opacity:1;fill-rule: evenodd"/>
<path id="Shape2DView_nwe0083"  d="M -34.4740820053 -16.84 L -34.4740820053 -16.94 " stroke="#191919" stroke-width="0.35 px" style="stroke-width:0.35;stroke-miterlimit:4;stroke-dasharray:none;fill:none;fill-opacity:1;fill-rule: evenodd"/>
<path id="Shape2DView_nwe0084"  d="M 1.234082005303 -16.84 L 1.234082005303 -16.94 " stroke="#191919" stroke-width="0.35 px" style="stroke-width:0.35;stroke-miterlimit:4;stroke-dasharray:none;fill:none;fill-opacity:1;fill-rule: evenodd"/>
<path id="Shape2DView_nwe0085"  d="M 8.93 -10.54 L 8.93 -8.54 " stroke="#191919" stroke-width="0.35 px" style="stroke-width:0.35;stroke-miterlimit:4;stroke-dasharray:none;fill:none;fill-opacity:1;fill-rule: evenodd"/>
<path id="Shape2DView_nwe0086"  d="M -42.17 -10.54 L -42.17 -8.54 " stroke="#191919" stroke-width="0.35 px" style="stroke-width:0.35;stroke-miterlimit:4;stroke-dasharray:none;fill:none;fill-opacity:1;fill-rule: evenodd"/>
<path id="Shape2DView_nwe0087"  d="M -41.17 -1.42 L -39.17 -1.42 " stroke="#191919" stroke-width="0.35 px" style="stroke-width:0.35;stroke-miterlimit:4;stroke-dasharray:none;fill:none;fill-opacity:1;fill-rule: evenodd"/>
<path id="Shape2DView_nwe0088"  d="M 5.93 -1.42 L 7.93 -1.42 " stroke="#191919" stroke-width="0.35 px" style="stroke-width:0.35;stroke-miterlimit:4;stroke-dasharray:none;fill:none;fill-opacity:1;fill-rule: evenodd"/>
<path id="Shape2DView_nwe0089"  d="M 8.93 -10.54 L 9.041964476103308 -10.54 L 9.152520933956314 -10.54 L 9.260279061955167 -10.54 L 9.363883739117558 -10.54 L 9.462032076515337 -10.54 L 9.553489801858733 -10.54 L 9.637106781186548 -10.54 L 9.71183148246803 -10.54 L 9.776724199228283 -10.54 L 9.830968867902419 -10.54 L 9.873883330308367 -10.54 L 9.904927912181824 -10.54 L 9.923712209893242 -10.54 L 9.93 -10.54 " stroke="#191919" stroke-width="0.35 px" style="stroke-width:0.35;stroke-miterlimit:4;stroke-dasharray:none;fill:none;fill-opacity:1;fill-rule: evenodd"/>
<path id="Shape2DView_nwe0090"  d="M 8.93 -10.54 L -42.17 -10.54 " stroke="#191919" stroke-width="0.35 px" style="stroke-width:0.35;stroke-miterlimit:4;stroke-dasharray:none;fill:none;fill-opacity:1;fill-rule: evenodd"/>
<path id="Shape2DView_nwe0091"  d="M -42.17 -10.54 L -42.28196447610331 -10.54 L -42.39252093395632 -10.54 L -42.50027906195517 -10.54 L -42.60388373911756 -10.54 L -42.70203207651534 -10.54 L -42.79348980185873 -10.54 L -42.87710678118655 -10.54 L -42.95183148246803 -10.54 L -43.016724199228285 -10.54 L -43.07096886790242 -10.54 L -43.11388333030837 -10.54 L -43.14492791218183 -10.54 L -43.16371220989324 -10.54 L -43.17 -10.54 " stroke="#191919" stroke-width="0.35 px" style="stroke-width:0.35;stroke-miterlimit:4;stroke-dasharray:none;fill:none;fill-opacity:1;fill-rule: evenodd"/>
<path id="Shape2DView_nwe0092"  d="M -35.57943192049 -11.44 L -35.57943192049 -16.590000000000003 " stroke="#191919" stroke-width="0.35 px" style="stroke-width:0.35;stroke-miterlimit:4;stroke-dasharray:none;fill:none;fill-opacity:1;fill-rule: evenodd"/>
<path id="Shape2DView_nwe0093"  d="M -35.57943192049 -11.44 Q -35.58717989816655 -11.372259618494658 -35.5949278758431 -11.30451923698931 Q -35.625431096044714 -11.225673246045575 -35.655934316246324 -11.14682725510183 Q -35.83467360085368 -10.851785780527216 -36.17943192049 -10.840000000000002 " stroke="#191919" stroke-width="0.35 px" style="stroke-width:0.35;stroke-miterlimit:4;stroke-dasharray:none;fill:none;fill-opacity:1;fill-rule: evenodd"/>
<path id="Shape2DView_nwe0094"  d="M -35.529431920490026 -16.640000000000022 L -35.57943192049 -16.59 " stroke="#191919" stroke-width="0.35 px" style="stroke-width:0.35;stroke-miterlimit:4;stroke-dasharray:none;fill:none;fill-opacity:1;fill-rule: evenodd"/>
<path id="Shape2DView_nwe0095"  d="M 2.339431920499 -11.44 L 2.339431920499 -16.590000000000003 " stroke="#191919" stroke-width="0.35 px" style="stroke-width:0.35;stroke-miterlimit:4;stroke-dasharray:none;fill:none;fill-opacity:1;fill-rule: evenodd"/>
<path id="Shape2DView_nwe0096"  d="M 2.339431920499 -11.44 Q 2.34717989885702 -11.372259618652615 2.35492787721504 -11.304519237305225 Q 2.3842878948438604 -11.227733516422097 2.4136479124726806 -11.150947795538972 Q 2.5917662792094696 -10.852129505490128 2.939431920499 -10.84 " stroke="#191919" stroke-width="0.35 px" style="stroke-width:0.35;stroke-miterlimit:4;stroke-dasharray:none;fill:none;fill-opacity:1;fill-rule: evenodd"/>
<path id="Shape2DView_nwe0097"  d="M 2.2894319204990223 -16.640000000000022 L 2.339431920499 -16.59 " stroke="#191919" stroke-width="0.35 px" style="stroke-width:0.35;stroke-miterlimit:4;stroke-dasharray:none;fill:none;fill-opacity:1;fill-rule: evenodd"/>
<path id="Shape2DView_nwe0098"  d="M -35.4740820053 -16.64 L -35.4740820053 -16.840000000000003 " stroke="#191919" stroke-width="0.35 px" style="stroke-width:0.35;stroke-miterlimit:4;stroke-dasharray:none;fill:none;fill-opacity:1;fill-rule: evenodd"/>
<path id="Shape2DView_nwe0099"  d="M 2.2340820053029997 -16.64 L 2.2340820053029997 -16.840000000000003 " stroke="#191919" stroke-width="0.35 px" style="stroke-width:0.35;stroke-miterlimit:4;stroke-dasharray:none;fill:none;fill-opacity:1;fill-rule: evenodd"/>
<path id="Shape2DView_nwe0100"  d="M -35.37408200530004 -16.940000000000047 L -35.4740820053 -16.84 " stroke="#191919" stroke-width="0.35 px" style="stroke-width:0.35;stroke-miterlimit:4;stroke-dasharray:none;fill:none;fill-opacity:1;fill-rule: evenodd"/>
<path id="Shape2DView_nwe0101"  d="M 2.1340820053030445 -16.940000000000044 L 2.2340820053029997 -16.84 " stroke="#191919" stroke-width="0.35 px" style="stroke-width:0.35;stroke-miterlimit:4;stroke-dasharray:none;fill:none;fill-opacity:1;fill-rule: evenodd"/>
<path id="Shape2DView_nwe0102"  d="M -42.17 -8.34 L -42.17 -8.54 " stroke="#191919" stroke-width="0.35 px" style="stroke-width:0.35;stroke-miterlimit:4;stroke-dasharray:none;fill:none;fill-opacity:1;fill-rule: evenodd"/>
<path id="Shape2DView_nwe0103"  d="M 4.93 -8.34 L 4.93 -8.54 " stroke="#191919" stroke-width="0.35 px" style="stroke-width:0.35;stroke-miterlimit:4;stroke-dasharray:none;fill:none;fill-opacity:1;fill-rule: evenodd"/>
<title>b'Shape2DView'</title>
</g>
<g id="Rectangle" transform="translate(43.701000,2.331000) scale(1,-1)">
<rect fill="#ff0000" id="origin" width="1" height="1" x="0" y="0" />
<title>b'Rectangle'</title>
</g>
</svg>