<?xml version="1.0"?>
<!DOCTYPE svg PUBLIC "-//W3C//DTD SVG 1.1//EN" "http://www.w3.org/Graphics/SVG/1.1/DTD/svg11.dtd">
<svg width="54.162mm" height="21.05200000000002mm" viewBox="0 0 54.162 21.05200000000002" xmlns="http://www.w3.org/2000/svg" version="1.1">
<g id="Shape2DView" transform="translate(11.623500,2.111000) scale(1,-1)">
<path id="Shape2DView_nwe0000"  d="M -2.875077687448 -18.41 L -2.9814439397461423 -18.41 L -3.0864725747064985 -18.41 L -3.1888427963054085 -18.41 L -3.28726723960968 -18.41 L -3.3805081601375697 -18.41 L -3.467392999213797 -18.41 L -3.54682912957522 -18.41 L -3.617817595792628 -18.41 L -3.67946567671487 -18.41 L -3.730998111955298 -18.41 L -3.7717668512409492 -18.41 L -3.8012592040207323 -18.41 L -3.8191042868465805 -18.41 L -3.825077687448 -18.41 " stroke="#191919" stroke-width="0.35 px" style="stroke-width:0.35;stroke-miterlimit:4;stroke-dasharray:none;fill:none;fill-opacity:1;fill-rule: evenodd"/>
<path id="Shape2DView_nwe0001"  d="M 33.790077687448 -18.41 L -2.875077687447998 -18.41 " stroke="#191919" stroke-width="0.35 px" style="stroke-width:0.35;stroke-miterlimit:4;stroke-dasharray:none;fill:none;fill-opacity:1;fill-rule: evenodd"/>
<path id="Shape2DView_nwe0002"  d="M 34.740077687448 -18.41 L 34.73410428684658 -18.41 L 34.71625920402073 -18.41 L 34.68676685124095 -18.41 L 34.64599811195529 -18.41 L 34.59446567671487 -18.41 L 34.53281759579263 -18.41 L 34.461829129575214 -18.41 L 34.38239299921379 -18.41 L 34.295508160137565 -18.41 L 34.202267239609675 -18.41 L 34.10384279630541 -18.41 L 34.0014725747065 -18.41 L 33.89644393974614 -18.41 L 33.790077687448 -18.41 " stroke="#191919" stroke-width="0.35 px" style="stroke-width:0.35;stroke-miterlimit:4;stroke-dasharray:none;fill:none;fill-opacity:1;fill-rule: evenodd"/>
<path id="Shape2DView_nwe0003"  d="M -2.875077687448 -18.36 L -2.987042163551308 -18.36 L -3.0975986214043143 -18.36 L -3.205356749403167 -18.36 L -3.308961426565558 -18.36 L -3.4071097639633368 -18.36 L -3.4985674893067333 -18.36 L -3.5821844686345474 -18.36 L -3.65690916991603 -18.36 L -3.721801886676284 -18.36 L -3.776046555350419 -18.36 L -3.8189610177563678 -18.36 L -3.8500055996298235 -18.36 L -3.8687898973412427 -18.36 L -3.875077687448 -18.36 " stroke="#191919" stroke-width="0.35 px" style="stroke-width:0.35;stroke-miterlimit:4;stroke-dasharray:none;fill:none;fill-opacity:1;fill-rule: evenodd"/>
<path id="Shape2DView_nwe0004"  d="M 33.790077687448 -18.36 L -2.875077687447998 -18.36 " stroke="#191919" stroke-width="0.35 px" style="stroke-width:0.35;stroke-miterlimit:4;stroke-dasharray:none;fill:none;fill-opacity:1;fill-rule: evenodd"/>
<path id="Shape2DView_nwe0005"  d="M 34.790077687448 -18.36 L 34.78378989734124 -18.36 L 34.76500559962982 -18.36 L 34.733961017756364 -18.36 L 34.69104655535042 -18.36 L 34.63680188667628 -18.36 L 34.571909169916026 -18.36 L 34.49718446863454 -18.36 L 34.41356748930673 -18.36 L 34.32210976396333 -18.36 L 34.22396142656556 -18.36 L 34.120356749403165 -18.36 L 34.012598621404315 -18.36 L 33.90204216355131 -18.36 L 33.790077687448 -18.36 " stroke="#191919" stroke-width="0.35 px" style="stroke-width:0.35;stroke-miterlimit:4;stroke-dasharray:none;fill:none;fill-opacity:1;fill-rule: evenodd"/>
<path id="Shape2DView_nwe0006"  d="M -10.0925 -12.61 L -10.193268028492977 -12.61 L -10.292768840560683 -12.61 L -10.38975115575965 -12.61 L -10.482995365205802 -12.61 L -10.571328868863802 -12.61 L -10.653640821672859 -12.61 L -10.728896103067893 -12.61 L -10.796148334221225 -12.61 L -10.854551779305455 -12.61 L -10.903371981112176 -12.61 L -10.941994997277531 -12.61 L -10.96993512096364 -12.61 L -10.986840988903918 -12.61 L -10.9925 -12.61 " stroke="#191919" stroke-width="0.35 px" style="stroke-width:0.35;stroke-miterlimit:4;stroke-dasharray:none;fill:none;fill-opacity:1;fill-rule: evenodd"/>
<path id="Shape2DView_nwe0007"  d="M 41.0075 -12.61 L 41.10826802849298 -12.61 L 41.20776884056068 -12.61 L 41.304751155759654 -12.61 L 41.3979953652058 -12.61 L 41.4863288688638 -12.61 L 41.56864082167286 -12.61 L 41.643896103067895 -12.61 L 41.71114833422123 -12.61 L 41.76955177930546 -12.61 L 41.81837198111218 -12.61 L 41.85699499727753 -12.61 L 41.88493512096364 -12.61 L 41.90184098890392 -12.61 L 41.9075 -12.61 " stroke="#191919" stroke-width="0.35 px" style="stroke-width:0.35;stroke-miterlimit:4;stroke-dasharray:none;fill:none;fill-opacity:1;fill-rule: evenodd"/>
<path id="Shape2DView_nwe0008"  d="M 41.9075 -12.61 L 41.90184098890392 -12.61 L 41.88493512096364 -12.61 L 41.85699499727753 -12.61 L 41.81837198111218 -12.61 L 41.76955177930546 -12.61 L 41.71114833422123 -12.61 L 41.643896103067895 -12.61 L 41.56864082167286 -12.61 L 41.4863288688638 -12.61 L 41.3979953652058 -12.61 L 41.304751155759654 -12.61 L 41.20776884056068 -12.61 L 41.10826802849298 -12.61 L 41.0075 -12.61 " stroke="#191919" stroke-width="0.35 px" style="stroke-width:0.35;stroke-miterlimit:4;stroke-dasharray:none;fill:none;fill-opacity:1;fill-rule: evenodd"/>
<path id="Shape2DView_nwe0009"  d="M 41.0075 -12.61 L -10.092500000000001 -12.61 " stroke="#191919" stroke-width="0.35 px" style="stroke-width:0.35;stroke-miterlimit:4;stroke-dasharray:none;fill:none;fill-opacity:1;fill-rule: evenodd"/>
<path id="Shape2DView_nwe0010"  d="M -11.0925 -12.51 A 0.1 0.1 0 0 1 -10.9925 -12.61" stroke="#191919" stroke-width="0.35 px" style="stroke-width:0.35;stroke-miterlimit:4;stroke-dasharray:none;fill:none;fill-opacity:1;fill-rule: evenodd"/>
<path id="Shape2DView_nwe0011"  d="M 42.0075 -12.51 A 0.1 0.1 0 0 0 41.9075 -12.61" stroke="#191919" stroke-width="0.35 px" style="stroke-width:0.35;stroke-miterlimit:4;stroke-dasharray:none;fill:none;fill-opacity:1;fill-rule: evenodd"/>
<path id="Shape2DView_nwe0013"  d="M -11.0925 -12.31 L -11.0925 -12.51 " stroke="#191919" stroke-width="0.35 px" style="stroke-width:0.35;stroke-miterlimit:4;stroke-dasharray:none;fill:none;fill-opacity:1;fill-rule: evenodd"/>
<path id="Shape2DView_nwe0014"  d="M 42.0075 -12.31 L 42.0075 -12.51 " stroke="#191919" stroke-width="0.35 px" style="stroke-width:0.35;stroke-miterlimit:4;stroke-dasharray:none;fill:none;fill-opacity:1;fill-rule: evenodd"/>
<path id="Shape2DView_nwe0015"  d="M -11.0925 -10.31 L -11.086212209893242 -10.31 L -11.067427912181824 -10.31 L -11.036383330308366 -10.31 L -10.993468867902418 -10.31 L -10.939224199228283 -10.31 L -10.87433148246803 -10.31 L -10.799606781186547 -10.31 L -10.715989801858733 -10.31 L -10.624532076515337 -10.31 L -10.526383739117557 -10.31 L -10.422779061955167 -10.31 L -10.315020933956314 -10.31 L -10.204464476103308 -10.31 L -10.0925 -10.31 " stroke="#191919" stroke-width="0.35 px" style="stroke-width:0.35;stroke-miterlimit:4;stroke-dasharray:none;fill:none;fill-opacity:1;fill-rule: evenodd"/>
<path id="Shape2DView_nwe0016"  d="M -11.0925 -12.31 L -11.0925 -10.31 " stroke="#191919" stroke-width="0.35 px" style="stroke-width:0.35;stroke-miterlimit:4;stroke-dasharray:none;fill:none;fill-opacity:1;fill-rule: evenodd"/>
<path id="Shape2DView_nwe0017"  d="M 36.5075 -10.31 L 41.0075 -10.31 " stroke="#191919" stroke-width="0.35 px" style="stroke-width:0.35;stroke-miterlimit:4;stroke-dasharray:none;fill:none;fill-opacity:1;fill-rule: evenodd"/>
<path id="Shape2DView_nwe0018"  d="M 36.5075 1.58 L 36.5075 -10.31 " stroke="#191919" stroke-width="0.35 px" style="stroke-width:0.35;stroke-miterlimit:4;stroke-dasharray:none;fill:none;fill-opacity:1;fill-rule: evenodd"/>
<path id="Shape2DView_nwe0019"  d="M 36.5075 1.58 L -5.592500000000001 1.58 " stroke="#191919" stroke-width="0.35 px" style="stroke-width:0.35;stroke-miterlimit:4;stroke-dasharray:none;fill:none;fill-opacity:1;fill-rule: evenodd"/>
<path id="Shape2DView_nwe0020"  d="M -5.5925 -10.31 L -5.5925 1.58 " stroke="#191919" stroke-width="0.35 px" style="stroke-width:0.35;stroke-miterlimit:4;stroke-dasharray:none;fill:none;fill-opacity:1;fill-rule: evenodd"/>
<path id="Shape2DView_nwe0021"  d="M -10.092499999999998 -10.31 L -5.592500000000001 -10.31 " stroke="#191919" stroke-width="0.35 px" style="stroke-width:0.35;stroke-miterlimit:4;stroke-dasharray:none;fill:none;fill-opacity:1;fill-rule: evenodd"/>
<path id="Shape2DView_nwe0022"  d="M -11.0925 1.58 L -11.0925 -10.31 " stroke="#191919" stroke-width="0.35 px" style="stroke-width:0.35;stroke-miterlimit:4;stroke-dasharray:none;fill:none;fill-opacity:1;fill-rule: evenodd"/>
<path id="Shape2DView_nwe0023"  d="M 42.0075 -12.31 L 42.0075 -10.31 " stroke="#191919" stroke-width="0.35 px" style="stroke-width:0.35;stroke-miterlimit:4;stroke-dasharray:none;fill:none;fill-opacity:1;fill-rule: evenodd"/>
<path id="Shape2DView_nwe0024"  d="M 41.0075 -10.31 L 41.11946447610331 -10.31 L 41.23002093395632 -10.31 L 41.33777906195517 -10.31 L 41.44138373911756 -10.31 L 41.539532076515336 -10.31 L 41.63098980185873 -10.31 L 41.714606781186546 -10.31 L 41.78933148246803 -10.31 L 41.854224199228284 -10.31 L 41.90846886790242 -10.31 L 41.95138333030837 -10.31 L 41.98242791218183 -10.31 L 42.00121220989324 -10.31 L 42.0075 -10.31 " stroke="#191919" stroke-width="0.35 px" style="stroke-width:0.35;stroke-miterlimit:4;stroke-dasharray:none;fill:none;fill-opacity:1;fill-rule: evenodd"/>
<path id="Shape2DView_nwe0025"  d="M 42.0075 -10.31 L 42.0075 1.58 " stroke="#191919" stroke-width="0.35 px" style="stroke-width:0.35;stroke-miterlimit:4;stroke-dasharray:none;fill:none;fill-opacity:1;fill-rule: evenodd"/>
<path id="Shape2DView_nwe0026"  d="M 41.0075 -10.11 L 40.957355824363646 -10.11 L 40.80943773580484 -10.11 L 40.57116296493606 -10.11 L 40.25447960371747 -10.11 L 39.875267478235116 -10.11 L 39.45254186791263 -10.11 L 39.0075 -10.11 L 38.56245813208737 -10.11 L 38.139732521764884 -10.11 L 37.76052039628253 -10.11 L 37.44383703506394 -10.11 L 37.205562264195166 -10.11 L 37.057644175636355 -10.11 L 37.0075 -10.11 " stroke="#191919" stroke-width="0.35 px" style="stroke-width:0.35;stroke-miterlimit:4;stroke-dasharray:none;fill:none;fill-opacity:1;fill-rule: evenodd"/>
<path id="Shape2DView_nwe0027"  d="M -6.092499999999999 -10.11 L -6.142644175636352 -10.11 L -6.290562264195161 -10.11 L -6.5288370350639395 -10.11 L -6.845520396282533 -10.11 L -7.224732521764883 -10.11 L -7.647458132087371 -10.11 L -8.0925 -10.11 L -8.537541867912628 -10.11 L -8.960267478235115 -10.11 L -9.339479603717466 -10.11 L -9.656162964936058 -10.11 L -9.894437735804837 -10.11 L -10.042355824363646 -10.11 L -10.0925 -10.11 " stroke="#191919" stroke-width="0.35 px" style="stroke-width:0.35;stroke-miterlimit:4;stroke-dasharray:none;fill:none;fill-opacity:1;fill-rule: evenodd"/>
<path id="Shape2DView_nwe0028"  d="M -11.092499999999998 1.58 L -5.5925 1.58 " stroke="#191919" stroke-width="0.35 px" style="stroke-width:0.35;stroke-miterlimit:4;stroke-dasharray:none;fill:none;fill-opacity:1;fill-rule: evenodd"/>
<path id="Shape2DView_nwe0029"  d="M 36.5075 1.58 L 42.0075 1.58 " stroke="#191919" stroke-width="0.35 px" style="stroke-width:0.35;stroke-miterlimit:4;stroke-dasharray:none;fill:none;fill-opacity:1;fill-rule: evenodd"/>
<path id="Shape2DView_nwe0030"  d="M -6.4925 -1.9800000000000004 L -6.4925 -3.58 " stroke="#191919" stroke-width="0.35 px" style="stroke-width:0.35;stroke-miterlimit:4;stroke-dasharray:none;fill:none;fill-opacity:1;fill-rule: evenodd"/>
<path id="Shape2DView_nwe0031"  d="M -9.692499999999999 -1.9800000000000002 A 1.6 1.6 0 0 0 -6.4925 -1.98" stroke="#191919" stroke-width="0.35 px" style="stroke-width:0.35;stroke-miterlimit:4;stroke-dasharray:none;fill:none;fill-opacity:1;fill-rule: evenodd"/>
<path id="Shape2DView_nwe0032"  d="M -9.6925 -3.58 L -9.6925 -1.9800000000000004 " stroke="#191919" stroke-width="0.35 px" style="stroke-width:0.35;stroke-miterlimit:4;stroke-dasharray:none;fill:none;fill-opacity:1;fill-rule: evenodd"/>
<path id="Shape2DView_nwe0033"  d="M -9.092499999999843 -4.828999599679805 A 1.6 1.6 0 0 0 -9.6925 -3.58" stroke="#191919" stroke-width="0.35 px" style="stroke-width:0.35;stroke-miterlimit:4;stroke-dasharray:none;fill:none;fill-opacity:1;fill-rule: evenodd"/>
<path id="Shape2DView_nwe0034"  d="M -6.4925 -3.58 A 1.6 1.6 0 0 0 -7.0925 -4.829" stroke="#191919" stroke-width="0.35 px" style="stroke-width:0.35;stroke-miterlimit:4;stroke-dasharray:none;fill:none;fill-opacity:1;fill-rule: evenodd"/>
<path id="Shape2DView_nwe0035"  d="M 37.4075 -1.9800000000000002 A 1.6 1.6 0 0 0 40.6075 -1.98" stroke="#191919" stroke-width="0.35 px" style="stroke-width:0.35;stroke-miterlimit:4;stroke-dasharray:none;fill:none;fill-opacity:1;fill-rule: evenodd"/>
<path id="Shape2DView_nwe0036"  d="M 37.4075 -3.58 L 37.4075 -1.9800000000000004 " stroke="#191919" stroke-width="0.35 px" style="stroke-width:0.35;stroke-miterlimit:4;stroke-dasharray:none;fill:none;fill-opacity:1;fill-rule: evenodd"/>
<path id="Shape2DView_nwe0037"  d="M 38.0075 -3.58 L 37.4075 -3.58 " stroke="#191919" stroke-width="0.35 px" style="stroke-width:0.35;stroke-miterlimit:4;stroke-dasharray:none;fill:none;fill-opacity:1;fill-rule: evenodd"/>
<path id="Shape2DView_nwe0038"  d="M 40.6075 -3.58 L 40.0075 -3.58 " stroke="#191919" stroke-width="0.35 px" style="stroke-width:0.35;stroke-miterlimit:4;stroke-dasharray:none;fill:none;fill-opacity:1;fill-rule: evenodd"/>
<path id="Shape2DView_nwe0039"  d="M 40.6075 -1.9800000000000004 L 40.6075 -3.58 " stroke="#191919" stroke-width="0.35 px" style="stroke-width:0.35;stroke-miterlimit:4;stroke-dasharray:none;fill:none;fill-opacity:1;fill-rule: evenodd"/>
<path id="Shape2DView_nwe0040"  d="M 41.0075 -10.31 L 41.0075 -10.11 " stroke="#191919" stroke-width="0.35 px" style="stroke-width:0.35;stroke-miterlimit:4;stroke-dasharray:none;fill:none;fill-opacity:1;fill-rule: evenodd"/>
<path id="Shape2DView_nwe0041"  d="M 40.0075 -1.88 L 40.0075 -1.8806287790106757 L 40.0075 -1.8825072087818175 L 40.0075 -1.8856116669691632 L 40.0075 -1.8899031132097581 L 40.0075 -1.8953275800771716 L 40.0075 -1.901816851753197 L 40.0075 -1.9092893218813451 L 40.0075 -1.9176510198141266 L 40.0075 -1.9267967923484663 L 40.0075 -1.9366116260882442 L 40.0075 -1.9469720938044832 L 40.0075 -1.9577479066043686 L 40.0075 -1.9688035523896692 L 40.0075 -1.98 " stroke="#191919" stroke-width="0.35 px" style="stroke-width:0.35;stroke-miterlimit:4;stroke-dasharray:none;fill:none;fill-opacity:1;fill-rule: evenodd"/>
<path id="Shape2DView_nwe0042"  d="M 40.0075 -1.98 L 40.0075 -10.009999999999998 " stroke="#191919" stroke-width="0.35 px" style="stroke-width:0.35;stroke-miterlimit:4;stroke-dasharray:none;fill:none;fill-opacity:1;fill-rule: evenodd"/>
<path id="Shape2DView_nwe0043"  d="M 40.0075 -10.11 L 40.0075 -10.01 " stroke="#191919" stroke-width="0.35 px" style="stroke-width:0.35;stroke-miterlimit:4;stroke-dasharray:none;fill:none;fill-opacity:1;fill-rule: evenodd"/>
<path id="Shape2DView_nwe0044"  d="M 38.0075 -10.01 L 38.0075 -10.11 " stroke="#191919" stroke-width="0.35 px" style="stroke-width:0.35;stroke-miterlimit:4;stroke-dasharray:none;fill:none;fill-opacity:1;fill-rule: evenodd"/>
<path id="Shape2DView_nwe0045"  d="M 40.0075 -10.01 L 38.0075 -10.01 " stroke="#191919" stroke-width="0.35 px" style="stroke-width:0.35;stroke-miterlimit:4;stroke-dasharray:none;fill:none;fill-opacity:1;fill-rule: evenodd"/>
<path id="Shape2DView_nwe0046"  d="M 38.0075 -1.88 L 38.0075 -1.8806287790106757 L 38.0075 -1.8825072087818175 L 38.0075 -1.8856116669691632 L 38.0075 -1.8899031132097581 L 38.0075 -1.8953275800771716 L 38.0075 -1.901816851753197 L 38.0075 -1.9092893218813451 L 38.0075 -1.9176510198141266 L 38.0075 -1.9267967923484663 L 38.0075 -1.9366116260882442 L 38.0075 -1.9469720938044832 L 38.0075 -1.9577479066043686 L 38.0075 -1.9688035523896692 L 38.0075 -1.98 " stroke="#191919" stroke-width="0.35 px" style="stroke-width:0.35;stroke-miterlimit:4;stroke-dasharray:none;fill:none;fill-opacity:1;fill-rule: evenodd"/>
<path id="Shape2DView_nwe0047"  d="M 38.0075 -10.01 L 38.0075 -1.9800000000000004 " stroke="#191919" stroke-width="0.35 px" style="stroke-width:0.35;stroke-miterlimit:4;stroke-dasharray:none;fill:none;fill-opacity:1;fill-rule: evenodd"/>
<path id="Shape2DView_nwe0048"  d="M -6.0925 -10.31 L -6.0925 -10.11 " stroke="#191919" stroke-width="0.35 px" style="stroke-width:0.35;stroke-miterlimit:4;stroke-dasharray:none;fill:none;fill-opacity:1;fill-rule: evenodd"/>
<path id="Shape2DView_nwe0049"  d="M -7.0925 -1.88 L -7.0925 -1.8806287790106757 L -7.0925 -1.8825072087818175 L -7.0925 -1.8856116669691632 L -7.0925 -1.8899031132097581 L -7.0925 -1.8953275800771716 L -7.0925 -1.901816851753197 L -7.0925 -1.9092893218813451 L -7.0925 -1.9176510198141266 L -7.0925 -1.9267967923484663 L -7.0925 -1.9366116260882442 L -7.0925 -1.9469720938044832 L -7.0925 -1.9577479066043686 L -7.0925 -1.9688035523896692 L -7.0925 -1.98 " stroke="#191919" stroke-width="0.35 px" style="stroke-width:0.35;stroke-miterlimit:4;stroke-dasharray:none;fill:none;fill-opacity:1;fill-rule: evenodd"/>
<path id="Shape2DView_nwe0050"  d="M -7.0925 -1.98 L -7.0925 -10.009999999999998 " stroke="#191919" stroke-width="0.35 px" style="stroke-width:0.35;stroke-miterlimit:4;stroke-dasharray:none;fill:none;fill-opacity:1;fill-rule: evenodd"/>
<path id="Shape2DView_nwe0051"  d="M -7.0925 -10.11 L -7.0925 -10.01 " stroke="#191919" stroke-width="0.35 px" style="stroke-width:0.35;stroke-miterlimit:4;stroke-dasharray:none;fill:none;fill-opacity:1;fill-rule: evenodd"/>
<path id="Shape2DView_nwe0052"  d="M -9.0925 -10.01 L -9.0925 -10.11 " stroke="#191919" stroke-width="0.35 px" style="stroke-width:0.35;stroke-miterlimit:4;stroke-dasharray:none;fill:none;fill-opacity:1;fill-rule: evenodd"/>
<path id="Shape2DView_nwe0053"  d="M -7.0925 -10.01 L -9.0925 -10.01 " stroke="#191919" stroke-width="0.35 px" style="stroke-width:0.35;stroke-miterlimit:4;stroke-dasharray:none;fill:none;fill-opacity:1;fill-rule: evenodd"/>
<path id="Shape2DView_nwe0054"  d="M -9.0925 -10.01 L -9.0925 -1.9800000000000004 " stroke="#191919" stroke-width="0.35 px" style="stroke-width:0.35;stroke-miterlimit:4;stroke-dasharray:none;fill:none;fill-opacity:1;fill-rule: evenodd"/>
<path id="Shape2DView_nwe0055"  d="M -9.0925 -1.88 L -9.0925 -1.8806287790106757 L -9.0925 -1.8825072087818175 L -9.0925 -1.8856116669691632 L -9.0925 -1.8899031132097581 L -9.0925 -1.8953275800771716 L -9.0925 -1.901816851753197 L -9.0925 -1.9092893218813451 L -9.0925 -1.9176510198141266 L -9.0925 -1.9267967923484663 L -9.0925 -1.9366116260882442 L -9.0925 -1.9469720938044832 L -9.0925 -1.9577479066043686 L -9.0925 -1.9688035523896692 L -9.0925 -1.98 " stroke="#191919" stroke-width="0.35 px" style="stroke-width:0.35;stroke-miterlimit:4;stroke-dasharray:none;fill:none;fill-opacity:1;fill-rule: evenodd"/>
<path id="Shape2DView_nwe0056"  d="M 38.0075 -1.88 L 40.0075 -1.88 " stroke="#191919" stroke-width="0.35 px" style="stroke-width:0.35;stroke-miterlimit:4;stroke-dasharray:none;fill:none;fill-opacity:1;fill-rule: evenodd"/>
<path id="Shape2DView_nwe0057"  d="M -9.0925 -1.88 L -7.0925 -1.88 " stroke="#191919" stroke-width="0.35 px" style="stroke-width:0.35;stroke-miterlimit:4;stroke-dasharray:none;fill:none;fill-opacity:1;fill-rule: evenodd"/>
<path id="Shape2DView_nwe0058"  d="M -2.875077687448 -18.41 L -2.875077687448 -18.36 " stroke="#191919" stroke-width="0.35 px" style="stroke-width:0.35;stroke-miterlimit:4;stroke-dasharray:none;fill:none;fill-opacity:1;fill-rule: evenodd"/>
<path id="Shape2DView_nwe0059"  d="M 33.790077687448 -18.41 L 33.790077687448 -18.36 " stroke="#191919" stroke-width="0.35 px" style="stroke-width:0.35;stroke-miterlimit:4;stroke-dasharray:none;fill:none;fill-opacity:1;fill-rule: evenodd"/>
<path id="Shape2DView_nwe0060"  d="M -2.875077687448 -13.21 L -2.875077687448 -18.36 " stroke="#191919" stroke-width="0.35 px" style="stroke-width:0.35;stroke-miterlimit:4;stroke-dasharray:none;fill:none;fill-opacity:1;fill-rule: evenodd"/>
<path id="Shape2DView_nwe0061"  d="M -3.875077687448 -13.21 L -3.8687898973412427 -13.21 L -3.850005599629824 -13.21 L -3.8189610177563678 -13.21 L -3.7760465553504194 -13.21 L -3.7218018866762845 -13.21 L -3.6569091699160303 -13.21 L -3.582184468634548 -13.21 L -3.498567489306734 -13.21 L -3.4071097639633368 -13.21 L -3.3089614265655585 -13.21 L -3.205356749403167 -13.21 L -3.0975986214043147 -13.21 L -2.9870421635513082 -13.21 L -2.875077687448 -13.21 " stroke="#191919" stroke-width="0.35 px" style="stroke-width:0.35;stroke-miterlimit:4;stroke-dasharray:none;fill:none;fill-opacity:1;fill-rule: evenodd"/>
<path id="Shape2DView_nwe0062"  d="M 33.790077687448 -13.21 L 33.790077687448 -18.36 " stroke="#191919" stroke-width="0.35 px" style="stroke-width:0.35;stroke-miterlimit:4;stroke-dasharray:none;fill:none;fill-opacity:1;fill-rule: evenodd"/>
<path id="Shape2DView_nwe0063"  d="M -2.875077687448 -13.21 L 33.790077687448 -13.21 " stroke="#191919" stroke-width="0.35 px" style="stroke-width:0.35;stroke-miterlimit:4;stroke-dasharray:none;fill:none;fill-opacity:1;fill-rule: evenodd"/>
<path id="Shape2DView_nwe0064"  d="M 33.790077687448 -13.21 L 33.90204216355131 -13.21 L 34.012598621404315 -13.21 L 34.120356749403165 -13.21 L 34.22396142656556 -13.21 L 34.32210976396333 -13.21 L 34.41356748930673 -13.21 L 34.49718446863454 -13.21 L 34.571909169916026 -13.21 L 34.63680188667628 -13.21 L 34.69104655535042 -13.21 L 34.733961017756364 -13.21 L 34.76500559962982 -13.21 L 34.78378989734124 -13.21 L 34.790077687448 -13.21 " stroke="#191919" stroke-width="0.35 px" style="stroke-width:0.35;stroke-miterlimit:4;stroke-dasharray:none;fill:none;fill-opacity:1;fill-rule: evenodd"/>
<path id="Shape2DView_nwe0065"  d="M -2.875077687448 -13.21 L -2.875077687448 -13.142821314338017 L -2.875077687448 -13.076487439626213 L -2.875077687448 -13.011832562826902 L -2.875077687448 -12.949669756529467 L -2.875077687448 -12.8907807540908 L -2.875077687448 -12.835906118884761 L -2.875077687448 -12.785735931288073 L -2.875077687448 -12.740901110519182 L -2.875077687448 -12.70196548046303 L -2.875077687448 -12.66941867925855 L -2.875077687448 -12.64367000181498 L -2.875077687448 -12.625043252690906 L -2.875077687448 -12.613772674064055 L -2.875077687448 -12.610000000000001 " stroke="#191919" stroke-width="0.35 px" style="stroke-width:0.35;stroke-miterlimit:4;stroke-dasharray:none;fill:none;fill-opacity:1;fill-rule: evenodd"/>
<path id="Shape2DView_nwe0066"  d="M 33.790077687448 -13.21 L 33.790077687448 -13.142821314338017 L 33.790077687448 -13.076487439626213 L 33.790077687448 -13.011832562826902 L 33.790077687448 -12.949669756529467 L 33.790077687448 -12.890780754090798 L 33.790077687448 -12.835906118884761 L 33.790077687448 -12.785735931288073 L 33.790077687448 -12.740901110519182 L 33.790077687448 -12.70196548046303 L 33.790077687448 -12.66941867925855 L 33.790077687448 -12.64367000181498 L 33.790077687448 -12.625043252690906 L 33.790077687448 -12.613772674064055 L 33.790077687448 -12.610000000000001 " stroke="#191919" stroke-width="0.35 px" style="stroke-width:0.35;stroke-miterlimit:4;stroke-dasharray:none;fill:none;fill-opacity:1;fill-rule: evenodd"/>
<path id="Shape2DView_nwe0067"  d="M -10.0925 -12.51 L -10.0925 -12.52119644761033 L -10.0925 -12.53225209339563 L -10.0925 -12.543027906195517 L -10.0925 -12.553388373911755 L -10.0925 -12.563203207651533 L -10.0925 -12.572348980185874 L -10.0925 -12.580710678118654 L -10.0925 -12.588183148246802 L -10.0925 -12.594672419922828 L -10.0925 -12.600096886790242 L -10.0925 -12.604388333030837 L -10.0925 -12.607492791218181 L -10.0925 -12.609371220989324 L -10.0925 -12.61 " stroke="#191919" stroke-width="0.35 px" style="stroke-width:0.35;stroke-miterlimit:4;stroke-dasharray:none;fill:none;fill-opacity:1;fill-rule: evenodd"/>
<path id="Shape2DView_nwe0068"  d="M -10.0925 -12.51 L -10.204464476103308 -12.51 L -10.315020933956314 -12.51 L -10.422779061955167 -12.51 L -10.526383739117557 -12.51 L -10.624532076515337 -12.51 L -10.715989801858733 -12.51 L -10.799606781186547 -12.51 L -10.87433148246803 -12.51 L -10.939224199228283 -12.51 L -10.993468867902418 -12.51 L -11.036383330308366 -12.51 L -11.067427912181824 -12.51 L -11.086212209893242 -12.51 L -11.0925 -12.51 " stroke="#191919" stroke-width="0.35 px" style="stroke-width:0.35;stroke-miterlimit:4;stroke-dasharray:none;fill:none;fill-opacity:1;fill-rule: evenodd"/>
<path id="Shape2DView_nwe0069"  d="M 41.0075 -12.51 L -10.092500000000001 -12.51 " stroke="#191919" stroke-width="0.35 px" style="stroke-width:0.35;stroke-miterlimit:4;stroke-dasharray:none;fill:none;fill-opacity:1;fill-rule: evenodd"/>
<path id="Shape2DView_nwe0070"  d="M 41.0075 -12.51 L 41.0075 -12.52119644761033 L 41.0075 -12.53225209339563 L 41.0075 -12.543027906195517 L 41.0075 -12.553388373911755 L 41.0075 -12.563203207651533 L 41.0075 -12.572348980185874 L 41.0075 -12.580710678118654 L 41.0075 -12.588183148246802 L 41.0075 -12.594672419922828 L 41.0075 -12.600096886790242 L 41.0075 -12.604388333030837 L 41.0075 -12.607492791218181 L 41.0075 -12.609371220989324 L 41.0075 -12.61 " stroke="#191919" stroke-width="0.35 px" style="stroke-width:0.35;stroke-miterlimit:4;stroke-dasharray:none;fill:none;fill-opacity:1;fill-rule: evenodd"/>
<path id="Shape2DView_nwe0071"  d="M 42.0075 -12.51 L 42.00121220989324 -12.51 L 41.98242791218183 -12.51 L 41.95138333030837 -12.51 L 41.90846886790242 -12.51 L 41.854224199228284 -12.51 L 41.78933148246803 -12.51 L 41.714606781186546 -12.51 L 41.63098980185873 -12.51 L 41.539532076515336 -12.51 L 41.44138373911756 -12.51 L 41.33777906195517 -12.51 L 41.23002093395632 -12.51 L 41.11946447610331 -12.51 L 41.0075 -12.51 " stroke="#191919" stroke-width="0.35 px" style="stroke-width:0.35;stroke-miterlimit:4;stroke-dasharray:none;fill:none;fill-opacity:1;fill-rule: evenodd"/>
<path id="Shape2DView_nwe0073"  d="M -10.0925 -12.31 L -10.0925 -12.51 " stroke="#191919" stroke-width="0.35 px" style="stroke-width:0.35;stroke-miterlimit:4;stroke-dasharray:none;fill:none;fill-opacity:1;fill-rule: evenodd"/>
<path id="Shape2DView_nwe0074"  d="M 41.0075 -12.31 L 41.0075 -12.51 " stroke="#191919" stroke-width="0.35 px" style="stroke-width:0.35;stroke-miterlimit:4;stroke-dasharray:none;fill:none;fill-opacity:1;fill-rule: evenodd"/>
<path id="Shape2DView_nwe0075"  d="M -10.0925 -12.31 L -10.0925 -10.31 " stroke="#191919" stroke-width="0.35 px" style="stroke-width:0.35;stroke-miterlimit:4;stroke-dasharray:none;fill:none;fill-opacity:1;fill-rule: evenodd"/>
<path id="Shape2DView_nwe0076"  d="M 41.0075 -12.31 L 41.0075 -10.31 " stroke="#191919" stroke-width="0.35 px" style="stroke-width:0.35;stroke-miterlimit:4;stroke-dasharray:none;fill:none;fill-opacity:1;fill-rule: evenodd"/>
<path id="Shape2DView_nwe0077"  d="M 38.0075 -1.98 L 40.0075 -1.98 " stroke="#191919" stroke-width="0.35 px" style="stroke-width:0.35;stroke-miterlimit:4;stroke-dasharray:none;fill:none;fill-opacity:1;fill-rule: evenodd"/>
<path id="Shape2DView_nwe0078"  d="M -9.0925 -1.98 L -7.0925 -1.98 " stroke="#191919" stroke-width="0.35 px" style="stroke-width:0.35;stroke-miterlimit:4;stroke-dasharray:none;fill:none;fill-opacity:1;fill-rule: evenodd"/>
<path id="Shape2DView_nwe0079"  d="M -10.0925 -12.31 L -10.204464476103308 -12.31 L -10.315020933956314 -12.31 L -10.422779061955167 -12.31 L -10.526383739117557 -12.31 L -10.624532076515337 -12.31 L -10.715989801858733 -12.31 L -10.799606781186547 -12.31 L -10.87433148246803 -12.31 L -10.939224199228283 -12.31 L -10.993468867902418 -12.31 L -11.036383330308366 -12.31 L -11.067427912181824 -12.31 L -11.086212209893242 -12.31 L -11.0925 -12.31 " stroke="#191919" stroke-width="0.35 px" style="stroke-width:0.35;stroke-miterlimit:4;stroke-dasharray:none;fill:none;fill-opacity:1;fill-rule: evenodd"/>
<path id="Shape2DView_nwe0080"  d="M 41.0075 -12.31 L -10.092500000000001 -12.31 " stroke="#191919" stroke-width="0.35 px" style="stroke-width:0.35;stroke-miterlimit:4;stroke-dasharray:none;fill:none;fill-opacity:1;fill-rule: evenodd"/>
<path id="Shape2DView_nwe0081"  d="M 41.0075 -12.31 L 41.11946447610331 -12.31 L 41.23002093395632 -12.31 L 41.33777906195517 -12.31 L 41.44138373911756 -12.31 L 41.539532076515336 -12.31 L 41.63098980185873 -12.31 L 41.714606781186546 -12.31 L 41.78933148246803 -12.31 L 41.854224199228284 -12.31 L 41.90846886790242 -12.31 L 41.95138333030837 -12.31 L 41.98242791218183 -12.31 L 42.00121220989324 -12.31 L 42.0075 -12.31 " stroke="#191919" stroke-width="0.35 px" style="stroke-width:0.35;stroke-miterlimit:4;stroke-dasharray:none;fill:none;fill-opacity:1;fill-rule: evenodd"/>
<path id="Shape2DView_nwe0082"  d="M -3.8250776874480223 -18.41000000000002 L -3.875077687448 -18.36 " stroke="#191919" stroke-width="0.35 px" style="stroke-width:0.35;stroke-miterlimit:4;stroke-dasharray:none;fill:none;fill-opacity:1;fill-rule: evenodd"/>
<path id="Shape2DView_nwe0083"  d="M 34.74007768744802 -18.41000000000002 L 34.790077687448 -18.36 " stroke="#191919" stroke-width="0.35 px" style="stroke-width:0.35;stroke-miterlimit:4;stroke-dasharray:none;fill:none;fill-opacity:1;fill-rule: evenodd"/>
<path id="Shape2DView_nwe0084"  d="M -3.875077687448 -13.21 L -3.875077687448 -18.36 " stroke="#191919" stroke-width="0.35 px" style="stroke-width:0.35;stroke-miterlimit:4;stroke-dasharray:none;fill:none;fill-opacity:1;fill-rule: evenodd"/>
<path id="Shape2DView_nwe0085"  d="M 34.790077687448 -13.21 L 34.790077687448 -18.36 " stroke="#191919" stroke-width="0.35 px" style="stroke-width:0.35;stroke-miterlimit:4;stroke-dasharray:none;fill:none;fill-opacity:1;fill-rule: evenodd"/>
<path id="Shape2DView_nwe0086"  d="M -3.875077687448 -13.21 Q -3.8828256658060205 -13.142259618652613 -3.890573644164041 -13.074519237305225 Q -3.919933661792862 -12.997733516422102 -3.9492936794216806 -12.920947795538973 Q -4.12741204615847 -12.622129505490133 -4.475077687448 -12.610000000000001 " stroke="#191919" stroke-width="0.35 px" style="stroke-width:0.35;stroke-miterlimit:4;stroke-dasharray:none;fill:none;fill-opacity:1;fill-rule: evenodd"/>
<path id="Shape2DView_nwe0087"  d="M 34.790077687448 -13.21 Q 34.797825665806016 -13.142259618652613 34.80557364416404 -13.074519237305225 Q 34.83493366179286 -12.997733516422098 34.86429367942168 -12.920947795538973 Q 35.04241204615847 -12.622129505490133 35.390077687448 -12.610000000000001 " stroke="#191919" stroke-width="0.35 px" style="stroke-width:0.35;stroke-miterlimit:4;stroke-dasharray:none;fill:none;fill-opacity:1;fill-rule: evenodd"/>
<path id="Shape2DView_nwe0088"  d="M 37.0075 -10.11 L 37.0075 -10.31 " stroke="#191919" stroke-width="0.35 px" style="stroke-width:0.35;stroke-miterlimit:4;stroke-dasharray:none;fill:none;fill-opacity:1;fill-rule: evenodd"/>
<path id="Shape2DView_nwe0089"  d="M -10.0925 -10.11 L -10.0925 -10.31 " stroke="#191919" stroke-width="0.35 px" style="stroke-width:0.35;stroke-miterlimit:4;stroke-dasharray:none;fill:none;fill-opacity:1;fill-rule: evenodd"/>
<title>b'Shape2DView'</title>
</g>
<g id="Rectangle" transform="translate(11.623500,2.111000) scale(1,-1)">
<rect fill="#ff0000" id="origin" width="1" height="1" x="0" y="0" />
<title>b'Rectangle'</title>
</g>
</svg>