<?xml version="1.0"?>
<!DOCTYPE svg PUBLIC "-//W3C//DTD SVG 1.1//EN" "http://www.w3.org/Graphics/SVG/1.1/DTD/svg11.dtd">
<svg width="31.416mm" height="20.256000000000043mm" viewBox="0 0 31.416 20.256000000000043" xmlns="http://www.w3.org/2000/svg" version="1.1">
<g id="Shape2DView" transform="translate(21.248000,1.308000) scale(1,-1)">
<circle cx="-11.08" cy="2.850275026918e-33" r="0.32" stroke="#191919" stroke-width="0.35 px" style="stroke-width:0.35;stroke-miterlimit:4;stroke-dasharray:none;fill:none"/>
<path id="Shape2DView_nwe0001"  d="M -10.76 0.0 L -10.76 -0.008048371336649485 L -10.76 -0.032092272407265865 L -10.76 -0.07182933720528961 L -10.76 -0.12675984908490356 L -10.76 -0.19619302498779634 L -10.76 -0.2792557024409219 L -10.76 -0.37490332008121907 L -10.76 -0.48193305362082106 L -10.76 -0.5989989420603692 L -10.76 -0.7246288139295255 L -10.76 -0.857242800697386 L -10.76 -0.9951732045359175 L -10.76 -1.1366854705877658 L -10.76 -1.28 " stroke="#191919" stroke-width="0.35 px" style="stroke-width:0.35;stroke-miterlimit:4;stroke-dasharray:none;fill:none;fill-opacity:1;fill-rule: evenodd"/>
<path id="Shape2DView_nwe0002"  d="M -10.76 0.0 A 0.32 0.32 0 0 1 -11.4 3.91887e-17" stroke="#191919" stroke-width="0.35 px" style="stroke-width:0.35;stroke-miterlimit:4;stroke-dasharray:none;fill:none;fill-opacity:1;fill-rule: evenodd"/>
<path id="Shape2DView_nwe0003"  d="M -10.76 -1.28 L -10.76 -7.84 " stroke="#191919" stroke-width="0.35 px" style="stroke-width:0.35;stroke-miterlimit:4;stroke-dasharray:none;fill:none;fill-opacity:1;fill-rule: evenodd"/>
<path id="Shape2DView_nwe0004"  d="M 2.56 -7.84 L -13.639999999999999 -7.84 " stroke="#191919" stroke-width="0.35 px" style="stroke-width:0.35;stroke-miterlimit:4;stroke-dasharray:none;fill:none;fill-opacity:1;fill-rule: evenodd"/>
<path id="Shape2DView_nwe0005"  d="M -13.64 -7.84 L -13.64 -8.14 " stroke="#191919" stroke-width="0.35 px" style="stroke-width:0.35;stroke-miterlimit:4;stroke-dasharray:none;fill:none;fill-opacity:1;fill-rule: evenodd"/>
<path id="Shape2DView_nwe0006"  d="M 2.56 -7.84 L 2.56 -8.14 " stroke="#191919" stroke-width="0.35 px" style="stroke-width:0.35;stroke-miterlimit:4;stroke-dasharray:none;fill:none;fill-opacity:1;fill-rule: evenodd"/>
<path id="Shape2DView_nwe0007"  d="M -5.22 -1.28 L -5.22 -7.84 " stroke="#191919" stroke-width="0.35 px" style="stroke-width:0.35;stroke-miterlimit:4;stroke-dasharray:none;fill:none;fill-opacity:1;fill-rule: evenodd"/>
<path id="Shape2DView_nwe0008"  d="M -6.605 -3.82 L -6.605 -7.84 " stroke="#191919" stroke-width="0.35 px" style="stroke-width:0.35;stroke-miterlimit:4;stroke-dasharray:none;fill:none;fill-opacity:1;fill-rule: evenodd"/>
<path id="Shape2DView_nwe0009"  d="M -7.99 -1.28 L -7.99 -7.84 " stroke="#191919" stroke-width="0.35 px" style="stroke-width:0.35;stroke-miterlimit:4;stroke-dasharray:none;fill:none;fill-opacity:1;fill-rule: evenodd"/>
<path id="Shape2DView_nwe0010"  d="M -9.375 -3.82 L -9.375 -7.84 " stroke="#191919" stroke-width="0.35 px" style="stroke-width:0.35;stroke-miterlimit:4;stroke-dasharray:none;fill:none;fill-opacity:1;fill-rule: evenodd"/>
<path id="Shape2DView_nwe0011"  d="M -2.45 -1.28 L -2.45 -7.84 " stroke="#191919" stroke-width="0.35 px" style="stroke-width:0.35;stroke-miterlimit:4;stroke-dasharray:none;fill:none;fill-opacity:1;fill-rule: evenodd"/>
<path id="Shape2DView_nwe0012"  d="M -3.835 -3.82 L -3.835 -7.84 " stroke="#191919" stroke-width="0.35 px" style="stroke-width:0.35;stroke-miterlimit:4;stroke-dasharray:none;fill:none;fill-opacity:1;fill-rule: evenodd"/>
<path id="Shape2DView_nwe0013"  d="M 0.32 -1.28 L 0.32 -7.84 " stroke="#191919" stroke-width="0.35 px" style="stroke-width:0.35;stroke-miterlimit:4;stroke-dasharray:none;fill:none;fill-opacity:1;fill-rule: evenodd"/>
<path id="Shape2DView_nwe0014"  d="M -1.065 -3.82 L -1.065 -7.84 " stroke="#191919" stroke-width="0.35 px" style="stroke-width:0.35;stroke-miterlimit:4;stroke-dasharray:none;fill:none;fill-opacity:1;fill-rule: evenodd"/>
<path id="Shape2DView_nwe0015"  d="M -14.14 -8.14 L 3.0599999999999987 -8.14 " stroke="#191919" stroke-width="0.35 px" style="stroke-width:0.35;stroke-miterlimit:4;stroke-dasharray:none;fill:none;fill-opacity:1;fill-rule: evenodd"/>
<path id="Shape2DView_nwe0016"  d="M -5.22 0.0 L -5.22 -0.008048371336649485 L -5.22 -0.032092272407265865 L -5.22 -0.07182933720528961 L -5.22 -0.12675984908490356 L -5.22 -0.19619302498779634 L -5.22 -0.2792557024409219 L -5.22 -0.37490332008121907 L -5.22 -0.48193305362082106 L -5.22 -0.5989989420603692 L -5.22 -0.7246288139295255 L -5.22 -0.857242800697386 L -5.22 -0.9951732045359175 L -5.22 -1.1366854705877658 L -5.22 -1.28 " stroke="#191919" stroke-width="0.35 px" style="stroke-width:0.35;stroke-miterlimit:4;stroke-dasharray:none;fill:none;fill-opacity:1;fill-rule: evenodd"/>
<path id="Shape2DView_nwe0017"  d="M -5.22 0.0 A 0.32 0.32 0 0 1 -5.86 3.91887e-17" stroke="#191919" stroke-width="0.35 px" style="stroke-width:0.35;stroke-miterlimit:4;stroke-dasharray:none;fill:none;fill-opacity:1;fill-rule: evenodd"/>
<path id="Shape2DView_nwe0018"  d="M -6.605 -2.54 L -6.605 -2.548048371336649 L -6.605 -2.5720922724072657 L -6.605 -2.6118293372052896 L -6.605 -2.6667598490849036 L -6.605 -2.736193024987796 L -6.605 -2.8192557024409215 L -6.605 -2.914903320081219 L -6.605 -3.0219330536208213 L -6.605 -3.1389989420603692 L -6.605 -3.2646288139295256 L -6.605 -3.397242800697386 L -6.605 -3.5351732045359174 L -6.605 -3.676685470587766 L -6.605 -3.82 " stroke="#191919" stroke-width="0.35 px" style="stroke-width:0.35;stroke-miterlimit:4;stroke-dasharray:none;fill:none;fill-opacity:1;fill-rule: evenodd"/>
<path id="Shape2DView_nwe0019"  d="M -6.6049999999999995 -2.54 A 0.32 0.32 0 1 1 -7.245 -2.54" stroke="#191919" stroke-width="0.35 px" style="stroke-width:0.35;stroke-miterlimit:4;stroke-dasharray:none;fill:none;fill-opacity:1;fill-rule: evenodd"/>
<path id="Shape2DView_nwe0020"  d="M -7.99 0.0 L -7.99 -0.008048371336649485 L -7.99 -0.032092272407265865 L -7.99 -0.07182933720528961 L -7.99 -0.12675984908490356 L -7.99 -0.19619302498779634 L -7.99 -0.2792557024409219 L -7.99 -0.37490332008121907 L -7.99 -0.48193305362082106 L -7.99 -0.5989989420603692 L -7.99 -0.7246288139295255 L -7.99 -0.857242800697386 L -7.99 -0.9951732045359175 L -7.99 -1.1366854705877658 L -7.99 -1.28 " stroke="#191919" stroke-width="0.35 px" style="stroke-width:0.35;stroke-miterlimit:4;stroke-dasharray:none;fill:none;fill-opacity:1;fill-rule: evenodd"/>
<path id="Shape2DView_nwe0021"  d="M -7.99 0.0 A 0.32 0.32 0 0 1 -8.63 3.91887e-17" stroke="#191919" stroke-width="0.35 px" style="stroke-width:0.35;stroke-miterlimit:4;stroke-dasharray:none;fill:none;fill-opacity:1;fill-rule: evenodd"/>
<path id="Shape2DView_nwe0022"  d="M -9.375 -2.54 L -9.375 -2.548048371336649 L -9.375 -2.5720922724072657 L -9.375 -2.6118293372052896 L -9.375 -2.6667598490849036 L -9.375 -2.736193024987796 L -9.375 -2.8192557024409215 L -9.375 -2.914903320081219 L -9.375 -3.0219330536208213 L -9.375 -3.1389989420603692 L -9.375 -3.2646288139295256 L -9.375 -3.397242800697386 L -9.375 -3.5351732045359174 L -9.375 -3.676685470587766 L -9.375 -3.82 " stroke="#191919" stroke-width="0.35 px" style="stroke-width:0.35;stroke-miterlimit:4;stroke-dasharray:none;fill:none;fill-opacity:1;fill-rule: evenodd"/>
<path id="Shape2DView_nwe0023"  d="M -9.375 -2.54 A 0.32 0.32 0 1 1 -10.015 -2.54" stroke="#191919" stroke-width="0.35 px" style="stroke-width:0.35;stroke-miterlimit:4;stroke-dasharray:none;fill:none;fill-opacity:1;fill-rule: evenodd"/>
<path id="Shape2DView_nwe0024"  d="M -2.45 0.0 L -2.45 -0.008048371336649485 L -2.45 -0.032092272407265865 L -2.45 -0.07182933720528961 L -2.45 -0.12675984908490356 L -2.45 -0.19619302498779634 L -2.45 -0.2792557024409219 L -2.45 -0.37490332008121907 L -2.45 -0.48193305362082106 L -2.45 -0.5989989420603692 L -2.45 -0.7246288139295255 L -2.45 -0.857242800697386 L -2.45 -0.9951732045359175 L -2.45 -1.1366854705877658 L -2.45 -1.28 " stroke="#191919" stroke-width="0.35 px" style="stroke-width:0.35;stroke-miterlimit:4;stroke-dasharray:none;fill:none;fill-opacity:1;fill-rule: evenodd"/>
<path id="Shape2DView_nwe0025"  d="M -2.45 0.0 A 0.32 0.32 0 0 1 -3.09 3.91887e-17" stroke="#191919" stroke-width="0.35 px" style="stroke-width:0.35;stroke-miterlimit:4;stroke-dasharray:none;fill:none;fill-opacity:1;fill-rule: evenodd"/>
<path id="Shape2DView_nwe0026"  d="M -3.835 -2.54 L -3.835 -2.548048371336649 L -3.835 -2.5720922724072657 L -3.835 -2.6118293372052896 L -3.835 -2.6667598490849036 L -3.835 -2.736193024987796 L -3.835 -2.8192557024409215 L -3.835 -2.914903320081219 L -3.835 -3.0219330536208213 L -3.835 -3.1389989420603692 L -3.835 -3.2646288139295256 L -3.835 -3.397242800697386 L -3.835 -3.5351732045359174 L -3.835 -3.676685470587766 L -3.835 -3.82 " stroke="#191919" stroke-width="0.35 px" style="stroke-width:0.35;stroke-miterlimit:4;stroke-dasharray:none;fill:none;fill-opacity:1;fill-rule: evenodd"/>
<path id="Shape2DView_nwe0027"  d="M -3.8350000000000004 -2.54 A 0.32 0.32 0 1 1 -4.475 -2.54" stroke="#191919" stroke-width="0.35 px" style="stroke-width:0.35;stroke-miterlimit:4;stroke-dasharray:none;fill:none;fill-opacity:1;fill-rule: evenodd"/>
<path id="Shape2DView_nwe0028"  d="M 0.32 0.0 L 0.32 -0.008048371336649485 L 0.32 -0.032092272407265865 L 0.32 -0.07182933720528961 L 0.32 -0.12675984908490356 L 0.32 -0.19619302498779634 L 0.32 -0.2792557024409219 L 0.32 -0.37490332008121907 L 0.32 -0.48193305362082106 L 0.32 -0.5989989420603692 L 0.32 -0.7246288139295255 L 0.32 -0.857242800697386 L 0.32 -0.9951732045359175 L 0.32 -1.1366854705877658 L 0.32 -1.28 " stroke="#191919" stroke-width="0.35 px" style="stroke-width:0.35;stroke-miterlimit:4;stroke-dasharray:none;fill:none;fill-opacity:1;fill-rule: evenodd"/>
<path id="Shape2DView_nwe0029"  d="M 0.32 0.0 A 0.32 0.32 0 0 1 -0.32 3.91887e-17" stroke="#191919" stroke-width="0.35 px" style="stroke-width:0.35;stroke-miterlimit:4;stroke-dasharray:none;fill:none;fill-opacity:1;fill-rule: evenodd"/>
<path id="Shape2DView_nwe0030"  d="M -1.065 -2.54 L -1.065 -2.548048371336649 L -1.065 -2.5720922724072657 L -1.065 -2.6118293372052896 L -1.065 -2.6667598490849036 L -1.065 -2.736193024987796 L -1.065 -2.8192557024409215 L -1.065 -2.914903320081219 L -1.065 -3.0219330536208213 L -1.065 -3.1389989420603692 L -1.065 -3.2646288139295256 L -1.065 -3.397242800697386 L -1.065 -3.5351732045359174 L -1.065 -3.676685470587766 L -1.065 -3.82 " stroke="#191919" stroke-width="0.35 px" style="stroke-width:0.35;stroke-miterlimit:4;stroke-dasharray:none;fill:none;fill-opacity:1;fill-rule: evenodd"/>
<path id="Shape2DView_nwe0031"  d="M -1.065 -2.54 A 0.32 0.32 0 1 1 -1.705 -2.54" stroke="#191919" stroke-width="0.35 px" style="stroke-width:0.35;stroke-miterlimit:4;stroke-dasharray:none;fill:none;fill-opacity:1;fill-rule: evenodd"/>
<path id="Shape2DView_nwe0032"  d="M 3.06 -8.14 A 1 1 0 0 0 4.06 -9.14" stroke="#191919" stroke-width="0.35 px" style="stroke-width:0.35;stroke-miterlimit:4;stroke-dasharray:none;fill:none;fill-opacity:1;fill-rule: evenodd"/>
<path id="Shape2DView_nwe0033"  d="M 4.06 -9.14 L 4.06 -12.14 " stroke="#191919" stroke-width="0.35 px" style="stroke-width:0.35;stroke-miterlimit:4;stroke-dasharray:none;fill:none;fill-opacity:1;fill-rule: evenodd"/>
<path id="Shape2DView_nwe0034"  d="M -14.14 -8.14 A 1 1 0 0 1 -15.14 -9.14" stroke="#191919" stroke-width="0.35 px" style="stroke-width:0.35;stroke-miterlimit:4;stroke-dasharray:none;fill:none;fill-opacity:1;fill-rule: evenodd"/>
<path id="Shape2DView_nwe0035"  d="M -15.14 -9.14 L -15.14 -12.14 " stroke="#191919" stroke-width="0.35 px" style="stroke-width:0.35;stroke-miterlimit:4;stroke-dasharray:none;fill:none;fill-opacity:1;fill-rule: evenodd"/>
<circle cx="-5.54" cy="2.850275026918e-33" r="0.32" stroke="#191919" stroke-width="0.35 px" style="stroke-width:0.35;stroke-miterlimit:4;stroke-dasharray:none;fill:none"/>
<circle cx="-6.925" cy="-2.54" r="0.32" stroke="#191919" stroke-width="0.35 px" style="stroke-width:0.35;stroke-miterlimit:4;stroke-dasharray:none;fill:none"/>
<circle cx="-8.31" cy="2.850275026918e-33" r="0.32" stroke="#191919" stroke-width="0.35 px" style="stroke-width:0.35;stroke-miterlimit:4;stroke-dasharray:none;fill:none"/>
<circle cx="-9.695" cy="-2.54" r="0.32" stroke="#191919" stroke-width="0.35 px" style="stroke-width:0.35;stroke-miterlimit:4;stroke-dasharray:none;fill:none"/>
<circle cx="-2.77" cy="2.850275026918e-33" r="0.32" stroke="#191919" stroke-width="0.35 px" style="stroke-width:0.35;stroke-miterlimit:4;stroke-dasharray:none;fill:none"/>
<circle cx="-4.155" cy="-2.54" r="0.32" stroke="#191919" stroke-width="0.35 px" style="stroke-width:0.35;stroke-miterlimit:4;stroke-dasharray:none;fill:none"/>
<circle cx="-6.568586551523e-49" cy="2.850275026918e-33" r="0.32" stroke="#191919" stroke-width="0.35 px" style="stroke-width:0.35;stroke-miterlimit:4;stroke-dasharray:none;fill:none"/>
<circle cx="-1.385" cy="-2.54" r="0.32" stroke="#191919" stroke-width="0.35 px" style="stroke-width:0.35;stroke-miterlimit:4;stroke-dasharray:none;fill:none"/>
<path id="Shape2DView_nwe0044"  d="M -19.94 -12.14 L -20.040768028492977 -12.14 L -20.140268840560683 -12.14 L -20.23725115575965 -12.14 L -20.330495365205802 -12.14 L -20.418828868863805 -12.14 L -20.501140821672863 -12.14 L -20.576396103067893 -12.14 L -20.64364833422123 -12.14 L -20.702051779305457 -12.14 L -20.75087198111218 -12.14 L -20.789494997277533 -12.14 L -20.817435120963644 -12.14 L -20.834340988903918 -12.14 L -20.84 -12.14 " stroke="#191919" stroke-width="0.35 px" style="stroke-width:0.35;stroke-miterlimit:4;stroke-dasharray:none;fill:none;fill-opacity:1;fill-rule: evenodd"/>
<path id="Shape2DView_nwe0045"  d="M 9.76 -12.14 L 9.754340988903918 -12.14 L 9.73743512096364 -12.14 L 9.709494997277531 -12.14 L 9.670871981112176 -12.14 L 9.622051779305455 -12.14 L 9.563648334221226 -12.14 L 9.496396103067893 -12.14 L 9.421140821672859 -12.14 L 9.338828868863802 -12.14 L 9.250495365205802 -12.14 L 9.15725115575965 -12.14 L 9.060268840560683 -12.14 L 8.960768028492977 -12.14 L 8.86 -12.14 " stroke="#191919" stroke-width="0.35 px" style="stroke-width:0.35;stroke-miterlimit:4;stroke-dasharray:none;fill:none;fill-opacity:1;fill-rule: evenodd"/>
<path id="Shape2DView_nwe0046"  d="M 8.86 -12.14 L -19.94 -12.14 " stroke="#191919" stroke-width="0.35 px" style="stroke-width:0.35;stroke-miterlimit:4;stroke-dasharray:none;fill:none;fill-opacity:1;fill-rule: evenodd"/>
<path id="Shape2DView_nwe0047"  d="M -20.94 -12.24 A 0.1 0.1 0 0 0 -20.84 -12.14" stroke="#191919" stroke-width="0.35 px" style="stroke-width:0.35;stroke-miterlimit:4;stroke-dasharray:none;fill:none;fill-opacity:1;fill-rule: evenodd"/>
<path id="Shape2DView_nwe0048"  d="M 9.86 -12.24 A 0.1 0.1 0 0 1 9.76 -12.14" stroke="#191919" stroke-width="0.35 px" style="stroke-width:0.35;stroke-miterlimit:4;stroke-dasharray:none;fill:none;fill-opacity:1;fill-rule: evenodd"/>
<path id="Shape2DView_nwe0049"  d="M -20.94 -12.24 L -20.94 -12.44 " stroke="#191919" stroke-width="0.35 px" style="stroke-width:0.35;stroke-miterlimit:4;stroke-dasharray:none;fill:none;fill-opacity:1;fill-rule: evenodd"/>
<path id="Shape2DView_nwe0050"  d="M 9.86 -12.24 L 9.86 -12.44 " stroke="#191919" stroke-width="0.35 px" style="stroke-width:0.35;stroke-miterlimit:4;stroke-dasharray:none;fill:none;fill-opacity:1;fill-rule: evenodd"/>
<path id="Shape2DView_nwe0051"  d="M -20.94 -12.44 A 0.1 0.1 0 0 1 -20.84 -12.54" stroke="#191919" stroke-width="0.35 px" style="stroke-width:0.35;stroke-miterlimit:4;stroke-dasharray:none;fill:none;fill-opacity:1;fill-rule: evenodd"/>
<path id="Shape2DView_nwe0052"  d="M -19.94 -12.54 L -20.040768028492977 -12.54 L -20.140268840560683 -12.54 L -20.23725115575965 -12.54 L -20.330495365205802 -12.54 L -20.418828868863805 -12.54 L -20.501140821672863 -12.54 L -20.576396103067893 -12.54 L -20.64364833422123 -12.54 L -20.702051779305457 -12.54 L -20.75087198111218 -12.54 L -20.789494997277533 -12.54 L -20.817435120963644 -12.54 L -20.834340988903918 -12.54 L -20.84 -12.54 " stroke="#191919" stroke-width="0.35 px" style="stroke-width:0.35;stroke-miterlimit:4;stroke-dasharray:none;fill:none;fill-opacity:1;fill-rule: evenodd"/>
<path id="Shape2DView_nwe0053"  d="M 8.86 -12.54 L -19.94 -12.54 " stroke="#191919" stroke-width="0.35 px" style="stroke-width:0.35;stroke-miterlimit:4;stroke-dasharray:none;fill:none;fill-opacity:1;fill-rule: evenodd"/>
<path id="Shape2DView_nwe0054"  d="M 9.86 -12.44 A 0.1 0.1 0 0 0 9.76 -12.54" stroke="#191919" stroke-width="0.35 px" style="stroke-width:0.35;stroke-miterlimit:4;stroke-dasharray:none;fill:none;fill-opacity:1;fill-rule: evenodd"/>
<path id="Shape2DView_nwe0055"  d="M 9.76 -12.54 L 9.754340988903918 -12.54 L 9.73743512096364 -12.54 L 9.709494997277531 -12.54 L 9.670871981112176 -12.54 L 9.622051779305455 -12.54 L 9.563648334221226 -12.54 L 9.496396103067893 -12.54 L 9.421140821672859 -12.54 L 9.338828868863802 -12.54 L 9.250495365205802 -12.54 L 9.15725115575965 -12.54 L 9.060268840560683 -12.54 L 8.960768028492977 -12.54 L 8.86 -12.54 " stroke="#191919" stroke-width="0.35 px" style="stroke-width:0.35;stroke-miterlimit:4;stroke-dasharray:none;fill:none;fill-opacity:1;fill-rule: evenodd"/>
<path id="Shape2DView_nwe0056"  d="M -20.84 -12.54 L -20.834340988903918 -12.54 L -20.817435120963644 -12.54 L -20.789494997277533 -12.54 L -20.75087198111218 -12.54 L -20.702051779305457 -12.54 L -20.64364833422123 -12.54 L -20.576396103067893 -12.54 L -20.501140821672863 -12.54 L -20.418828868863805 -12.54 L -20.330495365205802 -12.54 L -20.23725115575965 -12.54 L -20.140268840560683 -12.54 L -20.040768028492977 -12.54 L -19.94 -12.54 " stroke="#191919" stroke-width="0.35 px" style="stroke-width:0.35;stroke-miterlimit:4;stroke-dasharray:none;fill:none;fill-opacity:1;fill-rule: evenodd"/>
<path id="Shape2DView_nwe0057"  d="M -12.49943192049 -18.29 L -12.611396396593308 -18.29 L -12.721952854446315 -18.29 L -12.829710982445167 -18.29 L -12.933315659607558 -18.29 L -13.031463997005337 -18.29 L -13.122921722348734 -18.29 L -13.206538701676548 -18.29 L -13.28126340295803 -18.29 L -13.346156119718284 -18.29 L -13.40040078839242 -18.29 L -13.443315250798367 -18.29 L -13.474359832671825 -18.29 L -13.493144130383243 -18.29 L -13.49943192049 -18.29 " stroke="#191919" stroke-width="0.35 px" style="stroke-width:0.35;stroke-miterlimit:4;stroke-dasharray:none;fill:none;fill-opacity:1;fill-rule: evenodd"/>
<path id="Shape2DView_nwe0058"  d="M 1.419431920499 -18.29 L -12.49943192049 -18.29 " stroke="#191919" stroke-width="0.35 px" style="stroke-width:0.35;stroke-miterlimit:4;stroke-dasharray:none;fill:none;fill-opacity:1;fill-rule: evenodd"/>
<path id="Shape2DView_nwe0059"  d="M 2.419431920499 -18.29 L 2.4131441303922427 -18.29 L 2.3943598326808235 -18.29 L 2.3633152508073674 -18.29 L 2.3204007884014186 -18.29 L 2.2661561197272837 -18.29 L 2.2012634029670295 -18.29 L 2.126538701685547 -18.29 L 2.0429217223577334 -18.29 L 1.9514639970143364 -18.29 L 1.8533156596165576 -18.29 L 1.7497109824541668 -18.29 L 1.641952854455314 -18.29 L 1.5313963966023074 -18.29 L 1.419431920499 -18.29 " stroke="#191919" stroke-width="0.35 px" style="stroke-width:0.35;stroke-miterlimit:4;stroke-dasharray:none;fill:none;fill-opacity:1;fill-rule: evenodd"/>
<path id="Shape2DView_nwe0060"  d="M -12.49943192049 -18.34 L -12.605798172788143 -18.34 L -12.710826807748498 -18.34 L -12.813197029347409 -18.34 L -12.91162147265168 -18.34 L -13.00486239317957 -18.34 L -13.091747232255797 -18.34 L -13.17118336261722 -18.34 L -13.242171828834628 -18.34 L -13.30381990975687 -18.34 L -13.355352344997298 -18.34 L -13.39612108428295 -18.34 L -13.425613437062733 -18.34 L -13.44345851988858 -18.34 L -13.44943192049 -18.34 " stroke="#191919" stroke-width="0.35 px" style="stroke-width:0.35;stroke-miterlimit:4;stroke-dasharray:none;fill:none;fill-opacity:1;fill-rule: evenodd"/>
<path id="Shape2DView_nwe0061"  d="M 1.419431920499 -18.34 L -12.49943192049 -18.34 " stroke="#191919" stroke-width="0.35 px" style="stroke-width:0.35;stroke-miterlimit:4;stroke-dasharray:none;fill:none;fill-opacity:1;fill-rule: evenodd"/>
<path id="Shape2DView_nwe0062"  d="M 2.369431920499 -18.34 L 2.3634585198975806 -18.34 L 2.3456134370717323 -18.34 L 2.3161210842919493 -18.34 L 2.2753523450062985 -18.34 L 2.2238199097658704 -18.34 L 2.1621718288436287 -18.34 L 2.0911833626262206 -18.34 L 2.0117472322647973 -18.34 L 1.9248623931885702 -18.34 L 1.8316214726606805 -18.34 L 1.7331970293564092 -18.34 L 1.630826807757499 -18.34 L 1.5257981727971428 -18.34 L 1.419431920499 -18.34 " stroke="#191919" stroke-width="0.35 px" style="stroke-width:0.35;stroke-miterlimit:4;stroke-dasharray:none;fill:none;fill-opacity:1;fill-rule: evenodd"/>
<path id="Shape2DView_nwe0063"  d="M -13.3940820053 -18.54 L -13.387794215193242 -18.54 L -13.369009917481824 -18.54 L -13.337965335608367 -18.54 L -13.295050873202419 -18.54 L -13.240806204528283 -18.54 L -13.17591348776803 -18.54 L -13.101188786486547 -18.54 L -13.017571807158733 -18.54 L -12.926114081815337 -18.54 L -12.827965744417558 -18.54 L -12.724361067255167 -18.54 L -12.616602939256314 -18.54 L -12.506046481403308 -18.54 L -12.3940820053 -18.54 " stroke="#191919" stroke-width="0.35 px" style="stroke-width:0.35;stroke-miterlimit:4;stroke-dasharray:none;fill:none;fill-opacity:1;fill-rule: evenodd"/>
<path id="Shape2DView_nwe0064"  d="M -12.3940820053 -18.54 L 1.3140820053029998 -18.54 " stroke="#191919" stroke-width="0.35 px" style="stroke-width:0.35;stroke-miterlimit:4;stroke-dasharray:none;fill:none;fill-opacity:1;fill-rule: evenodd"/>
<path id="Shape2DView_nwe0065"  d="M 1.314082005303 -18.54 L 1.4260464814063079 -18.54 L 1.5366029392593143 -18.54 L 1.644361067258167 -18.54 L 1.747965744420558 -18.54 L 1.8461140818183366 -18.54 L 1.9375718071617336 -18.54 L 2.0211887864895477 -18.54 L 2.0959134877710297 -18.54 L 2.1608062045312844 -18.54 L 2.2150508732054193 -18.54 L 2.2579653356113676 -18.54 L 2.2890099174848237 -18.54 L 2.3077942151962425 -18.54 L 2.314082005303 -18.54 " stroke="#191919" stroke-width="0.35 px" style="stroke-width:0.35;stroke-miterlimit:4;stroke-dasharray:none;fill:none;fill-opacity:1;fill-rule: evenodd"/>
<path id="Shape2DView_nwe0066"  d="M -13.2940820053 -18.64 L -13.288422994203918 -18.64 L -13.27151712626364 -18.64 L -13.243577002577531 -18.64 L -13.204953986412177 -18.64 L -13.156133784605455 -18.64 L -13.097730339521227 -18.64 L -13.030478108367893 -18.64 L -12.955222826972859 -18.64 L -12.872910874163802 -18.64 L -12.784577370505803 -18.64 L -12.69133316105965 -18.64 L -12.594350845860683 -18.64 L -12.494850033792977 -18.64 L -12.3940820053 -18.64 " stroke="#191919" stroke-width="0.35 px" style="stroke-width:0.35;stroke-miterlimit:4;stroke-dasharray:none;fill:none;fill-opacity:1;fill-rule: evenodd"/>
<path id="Shape2DView_nwe0067"  d="M -12.3940820053 -18.64 L 1.3140820053029998 -18.64 " stroke="#191919" stroke-width="0.35 px" style="stroke-width:0.35;stroke-miterlimit:4;stroke-dasharray:none;fill:none;fill-opacity:1;fill-rule: evenodd"/>
<path id="Shape2DView_nwe0068"  d="M 1.314082005303 -18.64 L 1.414850033795977 -18.64 L 1.514350845863683 -18.64 L 1.6113331610626505 -18.64 L 1.7045773705088023 -18.64 L 1.792910874166803 -18.64 L 1.8752228269758602 -18.64 L 1.9504781083708929 -18.64 L 2.0177303395242268 -18.64 L 2.076133784608456 -18.64 L 2.1249539864151776 -18.64 L 2.163577002580531 -18.64 L 2.1915171262666413 -18.64 L 2.2084229942069182 -18.64 L 2.214082005303 -18.64 " stroke="#191919" stroke-width="0.35 px" style="stroke-width:0.35;stroke-miterlimit:4;stroke-dasharray:none;fill:none;fill-opacity:1;fill-rule: evenodd"/>
<circle cx="-11.08" cy="2.850275026918e-33" r="0.32" stroke="#191919" stroke-width="0.35 px" style="stroke-width:0.35;stroke-miterlimit:4;stroke-dasharray:none;fill:none"/>
<path id="Shape2DView_nwe0071"  d="M -11.4 -1.28 L -11.391976931898183 -1.28 L -11.368310037728774 -1.28 L -11.33018607438977 -1.28 L -11.279516736594795 -1.28 L -11.218842796517619 -1.28 L -11.151206698866021 -1.28 L -11.08 -1.28 L -11.00879330113398 -1.28 L -10.941157203482382 -1.28 L -10.880483263405205 -1.28 L -10.829813925610232 -1.28 L -10.791689962271226 -1.28 L -10.768023068101817 -1.28 L -10.76 -1.28 " stroke="#191919" stroke-width="0.35 px" style="stroke-width:0.35;stroke-miterlimit:4;stroke-dasharray:none;fill:none;fill-opacity:1;fill-rule: evenodd"/>
<path id="Shape2DView_nwe0072"  d="M -5.86 -1.28 L -5.851976931898184 -1.28 L -5.828310037728774 -1.28 L -5.790186074389769 -1.28 L -5.739516736594795 -1.28 L -5.6788427965176185 -1.28 L -5.61120669886602 -1.28 L -5.54 -1.28 L -5.46879330113398 -1.28 L -5.401157203482382 -1.28 L -5.340483263405205 -1.28 L -5.289813925610231 -1.28 L -5.251689962271226 -1.28 L -5.228023068101816 -1.28 L -5.22 -1.28 " stroke="#191919" stroke-width="0.35 px" style="stroke-width:0.35;stroke-miterlimit:4;stroke-dasharray:none;fill:none;fill-opacity:1;fill-rule: evenodd"/>
<path id="Shape2DView_nwe0073"  d="M -7.245 -3.82 L -7.236976931898184 -3.82 L -7.213310037728774 -3.82 L -7.175186074389769 -3.82 L -7.124516736594795 -3.82 L -7.063842796517618 -3.82 L -6.99620669886602 -3.82 L -6.925 -3.82 L -6.8537933011339796 -3.82 L -6.786157203482381 -3.82 L -6.725483263405205 -3.82 L -6.674813925610231 -3.82 L -6.636689962271226 -3.82 L -6.613023068101816 -3.82 L -6.6049999999999995 -3.82 " stroke="#191919" stroke-width="0.35 px" style="stroke-width:0.35;stroke-miterlimit:4;stroke-dasharray:none;fill:none;fill-opacity:1;fill-rule: evenodd"/>
<path id="Shape2DView_nwe0074"  d="M -8.63 -1.28 L -8.621976931898184 -1.28 L -8.598310037728774 -1.28 L -8.56018607438977 -1.28 L -8.509516736594795 -1.28 L -8.448842796517619 -1.28 L -8.381206698866022 -1.28 L -8.31 -1.28 L -8.23879330113398 -1.28 L -8.171157203482382 -1.28 L -8.110483263405206 -1.28 L -8.05981392561023 -1.28 L -8.021689962271227 -1.28 L -7.998023068101817 -1.28 L -7.99 -1.28 " stroke="#191919" stroke-width="0.35 px" style="stroke-width:0.35;stroke-miterlimit:4;stroke-dasharray:none;fill:none;fill-opacity:1;fill-rule: evenodd"/>
<path id="Shape2DView_nwe0075"  d="M -10.015 -3.82 L -10.006976931898183 -3.82 L -9.983310037728774 -3.82 L -9.94518607438977 -3.82 L -9.894516736594795 -3.82 L -9.833842796517619 -3.82 L -9.766206698866021 -3.82 L -9.695 -3.82 L -9.62379330113398 -3.82 L -9.556157203482382 -3.82 L -9.495483263405205 -3.82 L -9.44481392561023 -3.82 L -9.406689962271226 -3.82 L -9.383023068101817 -3.82 L -9.375 -3.82 " stroke="#191919" stroke-width="0.35 px" style="stroke-width:0.35;stroke-miterlimit:4;stroke-dasharray:none;fill:none;fill-opacity:1;fill-rule: evenodd"/>
<path id="Shape2DView_nwe0076"  d="M -3.09 -1.28 L -3.0819769318981836 -1.28 L -3.0583100377287744 -1.28 L -3.0201860743897697 -1.28 L -2.969516736594795 -1.28 L -2.908842796517619 -1.28 L -2.8412066988660207 -1.28 L -2.77 -1.28 L -2.6987933011339793 -1.28 L -2.6311572034823816 -1.28 L -2.5704832634052055 -1.28 L -2.5198139256102303 -1.28 L -2.481689962271226 -1.28 L -2.4580230681018165 -1.28 L -2.45 -1.28 " stroke="#191919" stroke-width="0.35 px" style="stroke-width:0.35;stroke-miterlimit:4;stroke-dasharray:none;fill:none;fill-opacity:1;fill-rule: evenodd"/>
<path id="Shape2DView_nwe0077"  d="M -4.4750000000000005 -3.82 L -4.466976931898184 -3.82 L -4.443310037728774 -3.82 L -4.4051860743897695 -3.82 L -4.354516736594795 -3.82 L -4.293842796517619 -3.82 L -4.2262066988660205 -3.82 L -4.155 -3.82 L -4.08379330113398 -3.82 L -4.016157203482382 -3.82 L -3.9554832634052057 -3.82 L -3.904813925610231 -3.82 L -3.8666899622712263 -3.82 L -3.8430230681018167 -3.82 L -3.8350000000000004 -3.82 " stroke="#191919" stroke-width="0.35 px" style="stroke-width:0.35;stroke-miterlimit:4;stroke-dasharray:none;fill:none;fill-opacity:1;fill-rule: evenodd"/>
<path id="Shape2DView_nwe0078"  d="M -0.32 -1.28 L -0.31197693189818354 -1.28 L -0.28831003772877417 -1.28 L -0.2501860743897696 -1.28 L -0.1995167365947948 -1.28 L -0.13884279651761866 -1.28 L -0.07120669886602068 -1.28 L -7.83773951454306e-17 -1.28 L 0.07120669886602053 -1.28 L 0.13884279651761852 -1.28 L 0.19951673659479469 -1.28 L 0.2501860743897695 -1.28 L 0.2883100377287741 -1.28 L 0.31197693189818354 -1.28 L 0.32 -1.28 " stroke="#191919" stroke-width="0.35 px" style="stroke-width:0.35;stroke-miterlimit:4;stroke-dasharray:none;fill:none;fill-opacity:1;fill-rule: evenodd"/>
<path id="Shape2DView_nwe0079"  d="M -1.705 -3.82 L -1.6969769318981835 -3.82 L -1.6733100377287742 -3.82 L -1.6351860743897695 -3.82 L -1.5845167365947948 -3.82 L -1.5238427965176187 -3.82 L -1.4562066988660207 -3.82 L -1.385 -3.82 L -1.3137933011339795 -3.82 L -1.2461572034823816 -3.82 L -1.1854832634052053 -3.82 L -1.1348139256102305 -3.82 L -1.0966899622712258 -3.82 L -1.0730230681018165 -3.82 L -1.065 -3.82 " stroke="#191919" stroke-width="0.35 px" style="stroke-width:0.35;stroke-miterlimit:4;stroke-dasharray:none;fill:none;fill-opacity:1;fill-rule: evenodd"/>
<path id="Shape2DView_nwe0081"  d="M -14.14 -8.14 L -14.14 -8.146287790106758 L -14.14 -8.165072087818176 L -14.14 -8.196116669691634 L -14.14 -8.239031132097582 L -14.14 -8.293275800771717 L -14.14 -8.35816851753197 L -14.14 -8.432893218813453 L -14.14 -8.516510198141267 L -14.14 -8.607967923484663 L -14.14 -8.706116260882443 L -14.14 -8.809720938044833 L -14.14 -8.917479066043686 L -14.14 -9.028035523896692 L -14.14 -9.14 " stroke="#191919" stroke-width="0.35 px" style="stroke-width:0.35;stroke-miterlimit:4;stroke-dasharray:none;fill:none;fill-opacity:1;fill-rule: evenodd"/>
<path id="Shape2DView_nwe0082"  d="M -14.14 -9.14 L 3.0599999999999987 -9.14 " stroke="#191919" stroke-width="0.35 px" style="stroke-width:0.35;stroke-miterlimit:4;stroke-dasharray:none;fill:none;fill-opacity:1;fill-rule: evenodd"/>
<path id="Shape2DView_nwe0083"  d="M 3.06 -8.14 L 3.06 -8.146287790106758 L 3.06 -8.165072087818176 L 3.06 -8.196116669691634 L 3.06 -8.239031132097582 L 3.06 -8.293275800771717 L 3.06 -8.35816851753197 L 3.06 -8.432893218813453 L 3.06 -8.516510198141267 L 3.06 -8.607967923484663 L 3.06 -8.706116260882443 L 3.06 -8.809720938044833 L 3.06 -8.917479066043686 L 3.06 -9.028035523896692 L 3.06 -9.14 " stroke="#191919" stroke-width="0.35 px" style="stroke-width:0.35;stroke-miterlimit:4;stroke-dasharray:none;fill:none;fill-opacity:1;fill-rule: evenodd"/>
<circle cx="-5.54" cy="2.850275026918e-33" r="0.32" stroke="#191919" stroke-width="0.35 px" style="stroke-width:0.35;stroke-miterlimit:4;stroke-dasharray:none;fill:none"/>
<circle cx="-6.925" cy="-2.54" r="0.32" stroke="#191919" stroke-width="0.35 px" style="stroke-width:0.35;stroke-miterlimit:4;stroke-dasharray:none;fill:none"/>
<circle cx="-8.31" cy="2.850275026918e-33" r="0.32" stroke="#191919" stroke-width="0.35 px" style="stroke-width:0.35;stroke-miterlimit:4;stroke-dasharray:none;fill:none"/>
<circle cx="-9.695" cy="-2.54" r="0.32" stroke="#191919" stroke-width="0.35 px" style="stroke-width:0.35;stroke-miterlimit:4;stroke-dasharray:none;fill:none"/>
<circle cx="-2.77" cy="2.850275026918e-33" r="0.32" stroke="#191919" stroke-width="0.35 px" style="stroke-width:0.35;stroke-miterlimit:4;stroke-dasharray:none;fill:none"/>
<circle cx="-4.155" cy="-2.54" r="0.32" stroke="#191919" stroke-width="0.35 px" style="stroke-width:0.35;stroke-miterlimit:4;stroke-dasharray:none;fill:none"/>
<circle cx="-6.568586551523e-49" cy="2.850275026918e-33" r="0.32" stroke="#191919" stroke-width="0.35 px" style="stroke-width:0.35;stroke-miterlimit:4;stroke-dasharray:none;fill:none"/>
<circle cx="-1.385" cy="-2.54" r="0.32" stroke="#191919" stroke-width="0.35 px" style="stroke-width:0.35;stroke-miterlimit:4;stroke-dasharray:none;fill:none"/>
<path id="Shape2DView_nwe0093"  d="M 3.06 -9.14 L 3.171964476103308 -9.14 L 3.2825209339563144 -9.14 L 3.3902790619551673 -9.14 L 3.493883739117558 -9.14 L 3.592032076515337 -9.14 L 3.6834898018587334 -9.14 L 3.7671067811865475 -9.14 L 3.84183148246803 -9.14 L 3.906724199228284 -9.14 L 3.960968867902419 -9.14 L 4.003883330308367 -9.14 L 4.034927912181824 -9.14 L 4.053712209893242 -9.14 L 4.0600000000000005 -9.14 " stroke="#191919" stroke-width="0.35 px" style="stroke-width:0.35;stroke-miterlimit:4;stroke-dasharray:none;fill:none;fill-opacity:1;fill-rule: evenodd"/>
<path id="Shape2DView_nwe0094"  d="M -15.14 -9.14 L -15.133712209893243 -9.14 L -15.114927912181825 -9.14 L -15.083883330308367 -9.14 L -15.04096886790242 -9.14 L -14.986724199228284 -9.14 L -14.921831482468031 -9.14 L -14.847106781186548 -9.14 L -14.763489801858734 -9.14 L -14.672032076515338 -9.14 L -14.573883739117559 -9.14 L -14.470279061955168 -9.14 L -14.362520933956315 -9.14 L -14.251964476103309 -9.14 L -14.14 -9.14 " stroke="#191919" stroke-width="0.35 px" style="stroke-width:0.35;stroke-miterlimit:4;stroke-dasharray:none;fill:none;fill-opacity:1;fill-rule: evenodd"/>
<path id="Shape2DView_nwe0095"  d="M 3.06 -9.14 L 3.06 -12.14 " stroke="#191919" stroke-width="0.35 px" style="stroke-width:0.35;stroke-miterlimit:4;stroke-dasharray:none;fill:none;fill-opacity:1;fill-rule: evenodd"/>
<path id="Shape2DView_nwe0096"  d="M -14.14 -9.14 L -14.14 -12.14 " stroke="#191919" stroke-width="0.35 px" style="stroke-width:0.35;stroke-miterlimit:4;stroke-dasharray:none;fill:none;fill-opacity:1;fill-rule: evenodd"/>
<path id="Shape2DView_nwe0097"  d="M -19.94 -12.24 L -20.051964476103308 -12.24 L -20.162520933956316 -12.24 L -20.27027906195517 -12.24 L -20.37388373911756 -12.24 L -20.472032076515337 -12.24 L -20.563489801858736 -12.24 L -20.647106781186547 -12.24 L -20.72183148246803 -12.24 L -20.786724199228285 -12.24 L -20.840968867902422 -12.24 L -20.883883330308368 -12.24 L -20.914927912181824 -12.24 L -20.933712209893244 -12.24 L -20.94 -12.24 " stroke="#191919" stroke-width="0.35 px" style="stroke-width:0.35;stroke-miterlimit:4;stroke-dasharray:none;fill:none;fill-opacity:1;fill-rule: evenodd"/>
<path id="Shape2DView_nwe0098"  d="M -19.94 -12.24 L -19.94 -12.22880355238967 L -19.94 -12.21774790660437 L -19.94 -12.206972093804483 L -19.94 -12.196611626088245 L -19.94 -12.186796792348467 L -19.94 -12.177651019814126 L -19.94 -12.169289321881346 L -19.94 -12.161816851753198 L -19.94 -12.155327580077172 L -19.94 -12.149903113209758 L -19.94 -12.145611666969163 L -19.94 -12.142507208781819 L -19.94 -12.140628779010676 L -19.94 -12.14 " stroke="#191919" stroke-width="0.35 px" style="stroke-width:0.35;stroke-miterlimit:4;stroke-dasharray:none;fill:none;fill-opacity:1;fill-rule: evenodd"/>
<path id="Shape2DView_nwe0099"  d="M 8.86 -12.24 L 8.86 -12.22880355238967 L 8.86 -12.21774790660437 L 8.86 -12.206972093804483 L 8.86 -12.196611626088245 L 8.86 -12.186796792348467 L 8.86 -12.177651019814126 L 8.86 -12.169289321881346 L 8.86 -12.161816851753198 L 8.86 -12.155327580077172 L 8.86 -12.149903113209758 L 8.86 -12.145611666969163 L 8.86 -12.142507208781819 L 8.86 -12.140628779010676 L 8.86 -12.14 " stroke="#191919" stroke-width="0.35 px" style="stroke-width:0.35;stroke-miterlimit:4;stroke-dasharray:none;fill:none;fill-opacity:1;fill-rule: evenodd"/>
<path id="Shape2DView_nwe0100"  d="M 8.86 -12.24 L -19.94 -12.24 " stroke="#191919" stroke-width="0.35 px" style="stroke-width:0.35;stroke-miterlimit:4;stroke-dasharray:none;fill:none;fill-opacity:1;fill-rule: evenodd"/>
<path id="Shape2DView_nwe0101"  d="M 9.86 -12.24 L 9.853712209893242 -12.24 L 9.834927912181824 -12.24 L 9.803883330308366 -12.24 L 9.760968867902418 -12.24 L 9.706724199228283 -12.24 L 9.64183148246803 -12.24 L 9.567106781186547 -12.24 L 9.483489801858733 -12.24 L 9.392032076515337 -12.24 L 9.293883739117557 -12.24 L 9.190279061955167 -12.24 L 9.082520933956314 -12.24 L 8.971964476103308 -12.24 L 8.86 -12.24 " stroke="#191919" stroke-width="0.35 px" style="stroke-width:0.35;stroke-miterlimit:4;stroke-dasharray:none;fill:none;fill-opacity:1;fill-rule: evenodd"/>
<path id="Shape2DView_nwe0102"  d="M -19.94 -12.24 L -19.94 -12.44 " stroke="#191919" stroke-width="0.35 px" style="stroke-width:0.35;stroke-miterlimit:4;stroke-dasharray:none;fill:none;fill-opacity:1;fill-rule: evenodd"/>
<path id="Shape2DView_nwe0103"  d="M -19.94 -12.44 L -20.051964476103308 -12.44 L -20.162520933956316 -12.44 L -20.27027906195517 -12.44 L -20.37388373911756 -12.44 L -20.472032076515337 -12.44 L -20.563489801858736 -12.44 L -20.647106781186547 -12.44 L -20.72183148246803 -12.44 L -20.786724199228285 -12.44 L -20.840968867902422 -12.44 L -20.883883330308368 -12.44 L -20.914927912181824 -12.44 L -20.933712209893244 -12.44 L -20.94 -12.44 " stroke="#191919" stroke-width="0.35 px" style="stroke-width:0.35;stroke-miterlimit:4;stroke-dasharray:none;fill:none;fill-opacity:1;fill-rule: evenodd"/>
<path id="Shape2DView_nwe0104"  d="M 8.86 -12.24 L 8.86 -12.44 " stroke="#191919" stroke-width="0.35 px" style="stroke-width:0.35;stroke-miterlimit:4;stroke-dasharray:none;fill:none;fill-opacity:1;fill-rule: evenodd"/>
<path id="Shape2DView_nwe0105"  d="M 8.86 -12.44 L -19.94 -12.44 " stroke="#191919" stroke-width="0.35 px" style="stroke-width:0.35;stroke-miterlimit:4;stroke-dasharray:none;fill:none;fill-opacity:1;fill-rule: evenodd"/>
<path id="Shape2DView_nwe0106"  d="M 9.86 -12.44 L 9.853712209893242 -12.44 L 9.834927912181824 -12.44 L 9.803883330308366 -12.44 L 9.760968867902418 -12.44 L 9.706724199228283 -12.44 L 9.64183148246803 -12.44 L 9.567106781186547 -12.44 L 9.483489801858733 -12.44 L 9.392032076515337 -12.44 L 9.293883739117557 -12.44 L 9.190279061955167 -12.44 L 9.082520933956314 -12.44 L 8.971964476103308 -12.44 L 8.86 -12.44 " stroke="#191919" stroke-width="0.35 px" style="stroke-width:0.35;stroke-miterlimit:4;stroke-dasharray:none;fill:none;fill-opacity:1;fill-rule: evenodd"/>
<path id="Shape2DView_nwe0107"  d="M -19.94 -12.44 L -19.94 -12.45119644761033 L -19.94 -12.46225209339563 L -19.94 -12.473027906195517 L -19.94 -12.483388373911755 L -19.94 -12.493203207651533 L -19.94 -12.502348980185873 L -19.94 -12.510710678118654 L -19.94 -12.518183148246802 L -19.94 -12.524672419922828 L -19.94 -12.530096886790242 L -19.94 -12.534388333030837 L -19.94 -12.537492791218181 L -19.94 -12.539371220989324 L -19.94 -12.54 " stroke="#191919" stroke-width="0.35 px" style="stroke-width:0.35;stroke-miterlimit:4;stroke-dasharray:none;fill:none;fill-opacity:1;fill-rule: evenodd"/>
<path id="Shape2DView_nwe0108"  d="M 8.86 -12.44 L 8.86 -12.45119644761033 L 8.86 -12.46225209339563 L 8.86 -12.473027906195517 L 8.86 -12.483388373911755 L 8.86 -12.493203207651533 L 8.86 -12.502348980185873 L 8.86 -12.510710678118654 L 8.86 -12.518183148246802 L 8.86 -12.524672419922828 L 8.86 -12.530096886790242 L 8.86 -12.534388333030837 L 8.86 -12.537492791218181 L 8.86 -12.539371220989324 L 8.86 -12.54 " stroke="#191919" stroke-width="0.35 px" style="stroke-width:0.35;stroke-miterlimit:4;stroke-dasharray:none;fill:none;fill-opacity:1;fill-rule: evenodd"/>
<path id="Shape2DView_nwe0109"  d="M -12.49943192049 -13.14 L -12.49943192049 -13.072821314338016 L -12.49943192049 -13.006487439626213 L -12.49943192049 -12.941832562826901 L -12.49943192049 -12.879669756529466 L -12.49943192049 -12.8207807540908 L -12.49943192049 -12.765906118884761 L -12.49943192049 -12.715735931288073 L -12.49943192049 -12.670901110519182 L -12.49943192049 -12.63196548046303 L -12.49943192049 -12.59941867925855 L -12.49943192049 -12.57367000181498 L -12.49943192049 -12.555043252690906 L -12.49943192049 -12.543772674064055 L -12.49943192049 -12.540000000000001 " stroke="#191919" stroke-width="0.35 px" style="stroke-width:0.35;stroke-miterlimit:4;stroke-dasharray:none;fill:none;fill-opacity:1;fill-rule: evenodd"/>
<path id="Shape2DView_nwe0110"  d="M -13.49943192049 -13.14 L -13.493144130383243 -13.14 L -13.474359832671823 -13.14 L -13.443315250798367 -13.14 L -13.40040078839242 -13.14 L -13.346156119718284 -13.14 L -13.28126340295803 -13.14 L -13.206538701676548 -13.14 L -13.122921722348734 -13.14 L -13.031463997005337 -13.14 L -12.933315659607558 -13.14 L -12.829710982445167 -13.14 L -12.721952854446315 -13.14 L -12.611396396593308 -13.14 L -12.49943192049 -13.14 " stroke="#191919" stroke-width="0.35 px" style="stroke-width:0.35;stroke-miterlimit:4;stroke-dasharray:none;fill:none;fill-opacity:1;fill-rule: evenodd"/>
<path id="Shape2DView_nwe0111"  d="M 1.419431920499 -13.14 L 1.419431920499 -13.072821314338016 L 1.419431920499 -13.006487439626213 L 1.419431920499 -12.941832562826901 L 1.419431920499 -12.879669756529466 L 1.419431920499 -12.820780754090798 L 1.419431920499 -12.765906118884761 L 1.419431920499 -12.715735931288073 L 1.419431920499 -12.670901110519182 L 1.419431920499 -12.63196548046303 L 1.419431920499 -12.59941867925855 L 1.419431920499 -12.57367000181498 L 1.419431920499 -12.555043252690906 L 1.419431920499 -12.543772674064055 L 1.419431920499 -12.540000000000001 " stroke="#191919" stroke-width="0.35 px" style="stroke-width:0.35;stroke-miterlimit:4;stroke-dasharray:none;fill:none;fill-opacity:1;fill-rule: evenodd"/>
<path id="Shape2DView_nwe0112"  d="M -12.49943192049 -13.14 L 1.419431920499001 -13.14 " stroke="#191919" stroke-width="0.35 px" style="stroke-width:0.35;stroke-miterlimit:4;stroke-dasharray:none;fill:none;fill-opacity:1;fill-rule: evenodd"/>
<path id="Shape2DView_nwe0113"  d="M 1.419431920499 -13.14 L 1.5313963966023079 -13.14 L 1.6419528544553141 -13.14 L 1.7497109824541668 -13.14 L 1.8533156596165576 -13.14 L 1.9514639970143361 -13.14 L 2.042921722357733 -13.14 L 2.126538701685547 -13.14 L 2.2012634029670295 -13.14 L 2.2661561197272837 -13.14 L 2.3204007884014186 -13.14 L 2.3633152508073674 -13.14 L 2.3943598326808235 -13.14 L 2.4131441303922427 -13.14 L 2.419431920499 -13.14 " stroke="#191919" stroke-width="0.35 px" style="stroke-width:0.35;stroke-miterlimit:4;stroke-dasharray:none;fill:none;fill-opacity:1;fill-rule: evenodd"/>
<path id="Shape2DView_nwe0114"  d="M -12.49943192049 -13.14 L -12.49943192049 -18.29 " stroke="#191919" stroke-width="0.35 px" style="stroke-width:0.35;stroke-miterlimit:4;stroke-dasharray:none;fill:none;fill-opacity:1;fill-rule: evenodd"/>
<path id="Shape2DView_nwe0115"  d="M 1.419431920499 -13.14 L 1.419431920499 -18.29 " stroke="#191919" stroke-width="0.35 px" style="stroke-width:0.35;stroke-miterlimit:4;stroke-dasharray:none;fill:none;fill-opacity:1;fill-rule: evenodd"/>
<path id="Shape2DView_nwe0116"  d="M -12.49943192049 -18.34 L -12.49943192049 -18.29 " stroke="#191919" stroke-width="0.35 px" style="stroke-width:0.35;stroke-miterlimit:4;stroke-dasharray:none;fill:none;fill-opacity:1;fill-rule: evenodd"/>
<path id="Shape2DView_nwe0117"  d="M 1.419431920499 -18.34 L 1.419431920499 -18.29 " stroke="#191919" stroke-width="0.35 px" style="stroke-width:0.35;stroke-miterlimit:4;stroke-dasharray:none;fill:none;fill-opacity:1;fill-rule: evenodd"/>
<path id="Shape2DView_nwe0118"  d="M -12.3940820053 -18.34 L -12.3940820053 -18.54 " stroke="#191919" stroke-width="0.35 px" style="stroke-width:0.35;stroke-miterlimit:4;stroke-dasharray:none;fill:none;fill-opacity:1;fill-rule: evenodd"/>
<path id="Shape2DView_nwe0119"  d="M 1.314082005303 -18.34 L 1.314082005303 -18.54 " stroke="#191919" stroke-width="0.35 px" style="stroke-width:0.35;stroke-miterlimit:4;stroke-dasharray:none;fill:none;fill-opacity:1;fill-rule: evenodd"/>
<path id="Shape2DView_nwe0120"  d="M -12.3940820053 -18.54 L -12.3940820053 -18.64 " stroke="#191919" stroke-width="0.35 px" style="stroke-width:0.35;stroke-miterlimit:4;stroke-dasharray:none;fill:none;fill-opacity:1;fill-rule: evenodd"/>
<path id="Shape2DView_nwe0121"  d="M 1.314082005303 -18.54 L 1.314082005303 -18.64 " stroke="#191919" stroke-width="0.35 px" style="stroke-width:0.35;stroke-miterlimit:4;stroke-dasharray:none;fill:none;fill-opacity:1;fill-rule: evenodd"/>
<path id="Shape2DView_nwe0122"  d="M -11.4 -1.28 Q -11.400000000000002 -0.9984389288724163 -11.4 -0.7168778577448323 Q -11.400000000000002 -0.5943731397848163 -11.4 -0.4718684218248004 Q -11.400000000000002 -0.012535699099324282 -11.4 0.0 " stroke="#191919" stroke-width="0.35 px" style="stroke-width:0.35;stroke-miterlimit:4;stroke-dasharray:none;fill:none;fill-opacity:1;fill-rule: evenodd"/>
<path id="Shape2DView_nwe0123"  d="M -11.4 -1.28 L -11.4 -7.84 " stroke="#191919" stroke-width="0.35 px" style="stroke-width:0.35;stroke-miterlimit:4;stroke-dasharray:none;fill:none;fill-opacity:1;fill-rule: evenodd"/>
<path id="Shape2DView_nwe0124"  d="M -5.86 -1.28 L -5.86 -7.84 " stroke="#191919" stroke-width="0.35 px" style="stroke-width:0.35;stroke-miterlimit:4;stroke-dasharray:none;fill:none;fill-opacity:1;fill-rule: evenodd"/>
<path id="Shape2DView_nwe0125"  d="M -7.245 -3.82 L -7.245 -7.84 " stroke="#191919" stroke-width="0.35 px" style="stroke-width:0.35;stroke-miterlimit:4;stroke-dasharray:none;fill:none;fill-opacity:1;fill-rule: evenodd"/>
<path id="Shape2DView_nwe0126"  d="M -8.63 -1.28 L -8.63 -7.84 " stroke="#191919" stroke-width="0.35 px" style="stroke-width:0.35;stroke-miterlimit:4;stroke-dasharray:none;fill:none;fill-opacity:1;fill-rule: evenodd"/>
<path id="Shape2DView_nwe0127"  d="M -10.015 -3.82 L -10.015 -7.84 " stroke="#191919" stroke-width="0.35 px" style="stroke-width:0.35;stroke-miterlimit:4;stroke-dasharray:none;fill:none;fill-opacity:1;fill-rule: evenodd"/>
<path id="Shape2DView_nwe0128"  d="M -3.09 -1.28 L -3.09 -7.84 " stroke="#191919" stroke-width="0.35 px" style="stroke-width:0.35;stroke-miterlimit:4;stroke-dasharray:none;fill:none;fill-opacity:1;fill-rule: evenodd"/>
<path id="Shape2DView_nwe0129"  d="M -4.4750000000000005 -3.82 L -4.4750000000000005 -7.84 " stroke="#191919" stroke-width="0.35 px" style="stroke-width:0.35;stroke-miterlimit:4;stroke-dasharray:none;fill:none;fill-opacity:1;fill-rule: evenodd"/>
<path id="Shape2DView_nwe0130"  d="M -0.32 -1.28 L -0.32 -7.84 " stroke="#191919" stroke-width="0.35 px" style="stroke-width:0.35;stroke-miterlimit:4;stroke-dasharray:none;fill:none;fill-opacity:1;fill-rule: evenodd"/>
<path id="Shape2DView_nwe0131"  d="M -1.705 -3.82 L -1.705 -7.84 " stroke="#191919" stroke-width="0.35 px" style="stroke-width:0.35;stroke-miterlimit:4;stroke-dasharray:none;fill:none;fill-opacity:1;fill-rule: evenodd"/>
<path id="Shape2DView_nwe0132"  d="M -5.86 -1.28 Q -5.860000000000001 -0.9984389288724163 -5.86 -0.7168778577448323 Q -5.860000000000001 -0.5943731397848163 -5.86 -0.4718684218248004 Q -5.860000000000001 -0.012535699099324282 -5.86 0.0 " stroke="#191919" stroke-width="0.35 px" style="stroke-width:0.35;stroke-miterlimit:4;stroke-dasharray:none;fill:none;fill-opacity:1;fill-rule: evenodd"/>
<path id="Shape2DView_nwe0133"  d="M -7.245 -3.8200000000000003 Q -7.245000000000001 -3.5429615454460057 -7.245000000000001 -3.2659230908920107 Q -7.245000000000001 -3.1428062453911556 -7.245 -3.0196893998903014 Q -7.245 -2.55297697275601 -7.245 -2.54 " stroke="#191919" stroke-width="0.35 px" style="stroke-width:0.35;stroke-miterlimit:4;stroke-dasharray:none;fill:none;fill-opacity:1;fill-rule: evenodd"/>
<path id="Shape2DView_nwe0134"  d="M -8.63 -1.28 Q -8.629999999999999 -0.9984389288724163 -8.63 -0.7168778577448323 Q -8.629999999999999 -0.5943731397848163 -8.63 -0.4718684218248004 Q -8.629999999999999 -0.012535699099324282 -8.63 0.0 " stroke="#191919" stroke-width="0.35 px" style="stroke-width:0.35;stroke-miterlimit:4;stroke-dasharray:none;fill:none;fill-opacity:1;fill-rule: evenodd"/>
<path id="Shape2DView_nwe0135"  d="M -10.015 -3.8200000000000003 Q -10.015 -3.5429615454460057 -10.015 -3.2659230908920107 Q -10.015 -3.1428062453911556 -10.015 -3.0196893998903014 Q -10.015 -2.55297697275601 -10.015 -2.54 " stroke="#191919" stroke-width="0.35 px" style="stroke-width:0.35;stroke-miterlimit:4;stroke-dasharray:none;fill:none;fill-opacity:1;fill-rule: evenodd"/>
<path id="Shape2DView_nwe0136"  d="M -3.09 -1.28 Q -3.09 -0.9984389288724163 -3.09 -0.7168778577448323 Q -3.09 -0.5943731397848163 -3.09 -0.4718684218248004 Q -3.09 -0.012535699099324282 -3.09 0.0 " stroke="#191919" stroke-width="0.35 px" style="stroke-width:0.35;stroke-miterlimit:4;stroke-dasharray:none;fill:none;fill-opacity:1;fill-rule: evenodd"/>
<path id="Shape2DView_nwe0137"  d="M -4.4750000000000005 -3.8200000000000003 Q -4.475000000000001 -3.5429615454460057 -4.475000000000001 -3.2659230908920107 Q -4.475000000000001 -3.1428062453911556 -4.4750000000000005 -3.0196893998903014 Q -4.475 -2.55297697275601 -4.4750000000000005 -2.54 " stroke="#191919" stroke-width="0.35 px" style="stroke-width:0.35;stroke-miterlimit:4;stroke-dasharray:none;fill:none;fill-opacity:1;fill-rule: evenodd"/>
<path id="Shape2DView_nwe0138"  d="M -0.32 -1.28 Q -0.31999999999999995 -0.9984389288724163 -0.32 -0.7168778577448323 Q -0.31999999999999995 -0.5943731397848163 -0.32 -0.4718684218248004 Q -0.31999999999999995 -0.012535699099324282 -0.32 0.0 " stroke="#191919" stroke-width="0.35 px" style="stroke-width:0.35;stroke-miterlimit:4;stroke-dasharray:none;fill:none;fill-opacity:1;fill-rule: evenodd"/>
<path id="Shape2DView_nwe0139"  d="M -1.705 -3.8200000000000003 Q -1.705 -3.5429615454460057 -1.705 -3.2659230908920107 Q -1.705 -3.1428062453911556 -1.705 -3.0196893998903014 Q -1.705 -2.55297697275601 -1.705 -2.54 " stroke="#191919" stroke-width="0.35 px" style="stroke-width:0.35;stroke-miterlimit:4;stroke-dasharray:none;fill:none;fill-opacity:1;fill-rule: evenodd"/>
<path id="Shape2DView_nwe0140"  d="M -13.49943192049 -13.14 Q -13.50717989816655 -13.072259618494655 -13.514927875843096 -13.00451923698931 Q -13.545431096044709 -12.925673246045566 -13.575934316246322 -12.846827255101829 Q -13.754673600853666 -12.551785780527219 -14.099431920490002 -12.54 " stroke="#191919" stroke-width="0.35 px" style="stroke-width:0.35;stroke-miterlimit:4;stroke-dasharray:none;fill:none;fill-opacity:1;fill-rule: evenodd"/>
<path id="Shape2DView_nwe0141"  d="M 2.419431920499 -13.14 Q 2.42717989885702 -13.072259618652613 2.4349278772150402 -13.004519237305225 Q 2.464287894843861 -12.927733516422098 2.4936479124726803 -12.850947795538973 Q 2.67176627920947 -12.552129505490132 3.0194319204989997 -12.540000000000001 " stroke="#191919" stroke-width="0.35 px" style="stroke-width:0.35;stroke-miterlimit:4;stroke-dasharray:none;fill:none;fill-opacity:1;fill-rule: evenodd"/>
<path id="Shape2DView_nwe0142"  d="M -13.49943192049 -13.14 L -13.49943192049 -18.29 " stroke="#191919" stroke-width="0.35 px" style="stroke-width:0.35;stroke-miterlimit:4;stroke-dasharray:none;fill:none;fill-opacity:1;fill-rule: evenodd"/>
<path id="Shape2DView_nwe0143"  d="M 2.419431920499 -13.14 L 2.419431920499 -18.29 " stroke="#191919" stroke-width="0.35 px" style="stroke-width:0.35;stroke-miterlimit:4;stroke-dasharray:none;fill:none;fill-opacity:1;fill-rule: evenodd"/>
<path id="Shape2DView_nwe0144"  d="M -13.449431920490023 -18.34000000000002 L -13.49943192049 -18.29 " stroke="#191919" stroke-width="0.35 px" style="stroke-width:0.35;stroke-miterlimit:4;stroke-dasharray:none;fill:none;fill-opacity:1;fill-rule: evenodd"/>
<path id="Shape2DView_nwe0145"  d="M 2.3694319204990224 -18.34000000000002 L 2.419431920499 -18.29 " stroke="#191919" stroke-width="0.35 px" style="stroke-width:0.35;stroke-miterlimit:4;stroke-dasharray:none;fill:none;fill-opacity:1;fill-rule: evenodd"/>
<path id="Shape2DView_nwe0146"  d="M -13.3940820053 -18.340000000000003 L -13.3940820053 -18.54 " stroke="#191919" stroke-width="0.35 px" style="stroke-width:0.35;stroke-miterlimit:4;stroke-dasharray:none;fill:none;fill-opacity:1;fill-rule: evenodd"/>
<path id="Shape2DView_nwe0147"  d="M 2.314082005303 -18.340000000000003 L 2.314082005303 -18.54 " stroke="#191919" stroke-width="0.35 px" style="stroke-width:0.35;stroke-miterlimit:4;stroke-dasharray:none;fill:none;fill-opacity:1;fill-rule: evenodd"/>
<path id="Shape2DView_nwe0148"  d="M -13.294082005300044 -18.640000000000043 L -13.3940820053 -18.54 " stroke="#191919" stroke-width="0.35 px" style="stroke-width:0.35;stroke-miterlimit:4;stroke-dasharray:none;fill:none;fill-opacity:1;fill-rule: evenodd"/>
<path id="Shape2DView_nwe0149"  d="M 2.2140820053030446 -18.640000000000043 L 2.314082005303 -18.54 " stroke="#191919" stroke-width="0.35 px" style="stroke-width:0.35;stroke-miterlimit:4;stroke-dasharray:none;fill:none;fill-opacity:1;fill-rule: evenodd"/>
<title>b'Shape2DView'</title>
</g>
<g id="Rectangle" transform="translate(21.248000,1.308000) scale(1,-1)">
<rect fill="#ff0000" id="origin" width="1" height="1" x="0" y="0" />
<title>b'Rectangle'</title>
</g>
</svg>