<?xml version="1.0"?>
<!DOCTYPE svg PUBLIC "-//W3C//DTD SVG 1.1//EN" "http://www.w3.org/Graphics/SVG/1.1/DTD/svg11.dtd">
<svg width="39.984mm" height="20.12400000000002mm" viewBox="0 0 39.984 20.12400000000002" xmlns="http://www.w3.org/2000/svg" version="1.1">
<g id="Shape2DView" transform="translate(10.297000,1.392000) scale(1,-1)">
<path id="Shape2DView_nwe0000"  d="M -1.864431920499 -18.34 L -1.9707981727971426 -18.34 L -2.075826807757499 -18.34 L -2.178197029356409 -18.34 L -2.2766214726606804 -18.34 L -2.36986239318857 -18.34 L -2.4567472322647967 -18.34 L -2.53618336262622 -18.34 L -2.6071718288436285 -18.34 L -2.66881990976587 -18.34 L -2.7203523450062983 -18.34 L -2.761121084291949 -18.34 L -2.7906134370717326 -18.34 L -2.8084585198975804 -18.34 L -2.814431920499 -18.34 " stroke="#191919" stroke-width="0.35 px" style="stroke-width:0.35;stroke-miterlimit:4;stroke-dasharray:none;fill:none;fill-opacity:1;fill-rule: evenodd"/>
<path id="Shape2DView_nwe0001"  d="M 21.254431920499 -18.34 L -1.8644319204990012 -18.34 " stroke="#191919" stroke-width="0.35 px" style="stroke-width:0.35;stroke-miterlimit:4;stroke-dasharray:none;fill:none;fill-opacity:1;fill-rule: evenodd"/>
<path id="Shape2DView_nwe0002"  d="M 22.204431920499 -18.34 L 22.19845851989758 -18.34 L 22.180613437071734 -18.34 L 22.15112108429195 -18.34 L 22.1103523450063 -18.34 L 22.058819909765873 -18.34 L 21.99717182884363 -18.34 L 21.926183362626222 -18.34 L 21.8467472322648 -18.34 L 21.759862393188573 -18.34 L 21.666621472660683 -18.34 L 21.568197029356412 -18.34 L 21.4658268077575 -18.34 L 21.360798172797146 -18.34 L 21.254431920499 -18.34 " stroke="#191919" stroke-width="0.35 px" style="stroke-width:0.35;stroke-miterlimit:4;stroke-dasharray:none;fill:none;fill-opacity:1;fill-rule: evenodd"/>
<path id="Shape2DView_nwe0003"  d="M -1.864431920499 -18.29 L -1.976396396602308 -18.29 L -2.0869528544553146 -18.29 L -2.194710982454167 -18.29 L -2.2983156596165584 -18.29 L -2.3964639970143367 -18.29 L -2.4879217223577337 -18.29 L -2.5715387016855473 -18.29 L -2.6462634029670298 -18.29 L -2.711156119727284 -18.29 L -2.7654007884014193 -18.29 L -2.8083152508073677 -18.29 L -2.839359832680824 -18.29 L -2.8581441303922426 -18.29 L -2.8644319204990003 -18.29 " stroke="#191919" stroke-width="0.35 px" style="stroke-width:0.35;stroke-miterlimit:4;stroke-dasharray:none;fill:none;fill-opacity:1;fill-rule: evenodd"/>
<path id="Shape2DView_nwe0004"  d="M 21.254431920499 -18.29 L -1.8644319204990012 -18.29 " stroke="#191919" stroke-width="0.35 px" style="stroke-width:0.35;stroke-miterlimit:4;stroke-dasharray:none;fill:none;fill-opacity:1;fill-rule: evenodd"/>
<path id="Shape2DView_nwe0005"  d="M 22.254431920499 -18.29 L 22.248144130392244 -18.29 L 22.229359832680824 -18.29 L 22.19831525080737 -18.29 L 22.155400788401423 -18.29 L 22.101156119727285 -18.29 L 22.03626340296703 -18.29 L 21.961538701685548 -18.29 L 21.877921722357737 -18.29 L 21.786463997014337 -18.29 L 21.68831565961656 -18.29 L 21.58471098245417 -18.29 L 21.476952854455316 -18.29 L 21.366396396602312 -18.29 L 21.254431920499 -18.29 " stroke="#191919" stroke-width="0.35 px" style="stroke-width:0.35;stroke-miterlimit:4;stroke-dasharray:none;fill:none;fill-opacity:1;fill-rule: evenodd"/>
<path id="Shape2DView_nwe0006"  d="M 29.195 -12.54 L 29.18934098890392 -12.54 L 29.172435120963645 -12.54 L 29.144494997277533 -12.54 L 29.10587198111218 -12.54 L 29.057051779305457 -12.54 L 28.99864833422123 -12.54 L 28.931396103067893 -12.54 L 28.856140821672863 -12.54 L 28.773828868863806 -12.54 L 28.685495365205803 -12.54 L 28.59225115575965 -12.54 L 28.495268840560684 -12.54 L 28.395768028492977 -12.54 L 28.295 -12.54 " stroke="#191919" stroke-width="0.35 px" style="stroke-width:0.35;stroke-miterlimit:4;stroke-dasharray:none;fill:none;fill-opacity:1;fill-rule: evenodd"/>
<path id="Shape2DView_nwe0007"  d="M 28.295 -12.54 L 28.395768028492977 -12.54 L 28.495268840560684 -12.54 L 28.59225115575965 -12.54 L 28.685495365205803 -12.54 L 28.773828868863806 -12.54 L 28.856140821672863 -12.54 L 28.931396103067893 -12.54 L 28.99864833422123 -12.54 L 29.057051779305457 -12.54 L 29.10587198111218 -12.54 L 29.144494997277533 -12.54 L 29.172435120963645 -12.54 L 29.18934098890392 -12.54 L 29.195 -12.54 " stroke="#191919" stroke-width="0.35 px" style="stroke-width:0.35;stroke-miterlimit:4;stroke-dasharray:none;fill:none;fill-opacity:1;fill-rule: evenodd"/>
<path id="Shape2DView_nwe0008"  d="M -8.905 -12.54 L 28.295 -12.54 " stroke="#191919" stroke-width="0.35 px" style="stroke-width:0.35;stroke-miterlimit:4;stroke-dasharray:none;fill:none;fill-opacity:1;fill-rule: evenodd"/>
<path id="Shape2DView_nwe0009"  d="M -9.805 -12.54 L -9.799340988903918 -12.54 L -9.78243512096364 -12.54 L -9.754494997277531 -12.54 L -9.715871981112176 -12.54 L -9.667051779305455 -12.54 L -9.608648334221225 -12.54 L -9.541396103067893 -12.54 L -9.466140821672859 -12.54 L -9.383828868863802 -12.54 L -9.295495365205802 -12.54 L -9.20225115575965 -12.54 L -9.105268840560683 -12.54 L -9.005768028492977 -12.54 L -8.905 -12.54 " stroke="#191919" stroke-width="0.35 px" style="stroke-width:0.35;stroke-miterlimit:4;stroke-dasharray:none;fill:none;fill-opacity:1;fill-rule: evenodd"/>
<path id="Shape2DView_nwe0010"  d="M -9.905 -12.44 A 0.1 0.1 0 0 1 -9.805 -12.54" stroke="#191919" stroke-width="0.35 px" style="stroke-width:0.35;stroke-miterlimit:4;stroke-dasharray:none;fill:none;fill-opacity:1;fill-rule: evenodd"/>
<path id="Shape2DView_nwe0011"  d="M 29.295 -12.44 A 0.1 0.1 0 0 0 29.195 -12.54" stroke="#191919" stroke-width="0.35 px" style="stroke-width:0.35;stroke-miterlimit:4;stroke-dasharray:none;fill:none;fill-opacity:1;fill-rule: evenodd"/>
<path id="Shape2DView_nwe0012"  d="M -9.905 -12.24 L -9.905 -12.44 " stroke="#191919" stroke-width="0.35 px" style="stroke-width:0.35;stroke-miterlimit:4;stroke-dasharray:none;fill:none;fill-opacity:1;fill-rule: evenodd"/>
<path id="Shape2DView_nwe0013"  d="M 29.295 -12.24 L 29.295 -12.44 " stroke="#191919" stroke-width="0.35 px" style="stroke-width:0.35;stroke-miterlimit:4;stroke-dasharray:none;fill:none;fill-opacity:1;fill-rule: evenodd"/>
<path id="Shape2DView_nwe0014"  d="M -8.905 -12.14 L -9.005768028492977 -12.14 L -9.105268840560683 -12.14 L -9.20225115575965 -12.14 L -9.295495365205802 -12.14 L -9.383828868863802 -12.14 L -9.466140821672859 -12.14 L -9.541396103067893 -12.14 L -9.608648334221225 -12.14 L -9.667051779305455 -12.14 L -9.715871981112176 -12.14 L -9.754494997277531 -12.14 L -9.78243512096364 -12.14 L -9.799340988903918 -12.14 L -9.805 -12.14 " stroke="#191919" stroke-width="0.35 px" style="stroke-width:0.35;stroke-miterlimit:4;stroke-dasharray:none;fill:none;fill-opacity:1;fill-rule: evenodd"/>
<path id="Shape2DView_nwe0015"  d="M -9.805 -12.14 L -9.799340988903918 -12.14 L -9.78243512096364 -12.14 L -9.754494997277531 -12.14 L -9.715871981112176 -12.14 L -9.667051779305455 -12.14 L -9.608648334221225 -12.14 L -9.541396103067893 -12.14 L -9.466140821672859 -12.14 L -9.383828868863802 -12.14 L -9.295495365205802 -12.14 L -9.20225115575965 -12.14 L -9.105268840560683 -12.14 L -9.005768028492977 -12.14 L -8.905 -12.14 " stroke="#191919" stroke-width="0.35 px" style="stroke-width:0.35;stroke-miterlimit:4;stroke-dasharray:none;fill:none;fill-opacity:1;fill-rule: evenodd"/>
<path id="Shape2DView_nwe0016"  d="M -9.805 -12.14 A 0.1 0.1 0 0 1 -9.905 -12.24" stroke="#191919" stroke-width="0.35 px" style="stroke-width:0.35;stroke-miterlimit:4;stroke-dasharray:none;fill:none;fill-opacity:1;fill-rule: evenodd"/>
<path id="Shape2DView_nwe0017"  d="M -8.905 -12.14 L 28.295 -12.14 " stroke="#191919" stroke-width="0.35 px" style="stroke-width:0.35;stroke-miterlimit:4;stroke-dasharray:none;fill:none;fill-opacity:1;fill-rule: evenodd"/>
<path id="Shape2DView_nwe0018"  d="M 29.195 -12.14 A 0.1 0.1 0 0 0 29.295 -12.24" stroke="#191919" stroke-width="0.35 px" style="stroke-width:0.35;stroke-miterlimit:4;stroke-dasharray:none;fill:none;fill-opacity:1;fill-rule: evenodd"/>
<path id="Shape2DView_nwe0019"  d="M 28.295 -12.14 L 28.395768028492977 -12.14 L 28.495268840560684 -12.14 L 28.59225115575965 -12.14 L 28.685495365205803 -12.14 L 28.773828868863806 -12.14 L 28.856140821672863 -12.14 L 28.931396103067893 -12.14 L 28.99864833422123 -12.14 L 29.057051779305457 -12.14 L 29.10587198111218 -12.14 L 29.144494997277533 -12.14 L 29.172435120963645 -12.14 L 29.18934098890392 -12.14 L 29.195 -12.14 " stroke="#191919" stroke-width="0.35 px" style="stroke-width:0.35;stroke-miterlimit:4;stroke-dasharray:none;fill:none;fill-opacity:1;fill-rule: evenodd"/>
<path id="Shape2DView_nwe0020"  d="M -4.155 -9.14 L -4.155 -12.14 " stroke="#191919" stroke-width="0.35 px" style="stroke-width:0.35;stroke-miterlimit:4;stroke-dasharray:none;fill:none;fill-opacity:1;fill-rule: evenodd"/>
<path id="Shape2DView_nwe0021"  d="M 23.545 -9.14 L 23.545 -12.14 " stroke="#191919" stroke-width="0.35 px" style="stroke-width:0.35;stroke-miterlimit:4;stroke-dasharray:none;fill:none;fill-opacity:1;fill-rule: evenodd"/>
<path id="Shape2DView_nwe0023"  d="M -3.155 -8.14 L 22.545 -8.14 " stroke="#191919" stroke-width="0.35 px" style="stroke-width:0.35;stroke-miterlimit:4;stroke-dasharray:none;fill:none;fill-opacity:1;fill-rule: evenodd"/>
<path id="Shape2DView_nwe0024"  d="M -3.155 -8.14 A 1 1 0 0 1 -4.155 -9.14" stroke="#191919" stroke-width="0.35 px" style="stroke-width:0.35;stroke-miterlimit:4;stroke-dasharray:none;fill:none;fill-opacity:1;fill-rule: evenodd"/>
<path id="Shape2DView_nwe0025"  d="M 22.545 -8.14 A 1 1 0 0 0 23.545 -9.14" stroke="#191919" stroke-width="0.35 px" style="stroke-width:0.35;stroke-miterlimit:4;stroke-dasharray:none;fill:none;fill-opacity:1;fill-rule: evenodd"/>
<path id="Shape2DView_nwe0027"  d="M 11.23 -8.04 L 11.23 -8.14 " stroke="#191919" stroke-width="0.35 px" style="stroke-width:0.35;stroke-miterlimit:4;stroke-dasharray:none;fill:none;fill-opacity:1;fill-rule: evenodd"/>
<path id="Shape2DView_nwe0028"  d="M 9.845 -8.04 L 9.845 -8.14 " stroke="#191919" stroke-width="0.35 px" style="stroke-width:0.35;stroke-miterlimit:4;stroke-dasharray:none;fill:none;fill-opacity:1;fill-rule: evenodd"/>
<path id="Shape2DView_nwe0029"  d="M 8.46 -8.04 L 8.46 -8.14 " stroke="#191919" stroke-width="0.35 px" style="stroke-width:0.35;stroke-miterlimit:4;stroke-dasharray:none;fill:none;fill-opacity:1;fill-rule: evenodd"/>
<path id="Shape2DView_nwe0030"  d="M 5.69 -8.04 L 5.69 -8.14 " stroke="#191919" stroke-width="0.35 px" style="stroke-width:0.35;stroke-miterlimit:4;stroke-dasharray:none;fill:none;fill-opacity:1;fill-rule: evenodd"/>
<path id="Shape2DView_nwe0031"  d="M 7.075 -8.04 L 7.075 -8.14 " stroke="#191919" stroke-width="0.35 px" style="stroke-width:0.35;stroke-miterlimit:4;stroke-dasharray:none;fill:none;fill-opacity:1;fill-rule: evenodd"/>
<path id="Shape2DView_nwe0032"  d="M 2.92 -8.04 L 2.92 -8.14 " stroke="#191919" stroke-width="0.35 px" style="stroke-width:0.35;stroke-miterlimit:4;stroke-dasharray:none;fill:none;fill-opacity:1;fill-rule: evenodd"/>
<path id="Shape2DView_nwe0033"  d="M 4.305 -8.04 L 4.305 -8.14 " stroke="#191919" stroke-width="0.35 px" style="stroke-width:0.35;stroke-miterlimit:4;stroke-dasharray:none;fill:none;fill-opacity:1;fill-rule: evenodd"/>
<path id="Shape2DView_nwe0034"  d="M 1.535 -8.04 L 1.535 -8.14 " stroke="#191919" stroke-width="0.35 px" style="stroke-width:0.35;stroke-miterlimit:4;stroke-dasharray:none;fill:none;fill-opacity:1;fill-rule: evenodd"/>
<path id="Shape2DView_nwe0035"  d="M 12.615 -8.04 L 12.615 -8.14 " stroke="#191919" stroke-width="0.35 px" style="stroke-width:0.35;stroke-miterlimit:4;stroke-dasharray:none;fill:none;fill-opacity:1;fill-rule: evenodd"/>
<path id="Shape2DView_nwe0036"  d="M 16.77 -8.04 L 16.77 -8.14 " stroke="#191919" stroke-width="0.35 px" style="stroke-width:0.35;stroke-miterlimit:4;stroke-dasharray:none;fill:none;fill-opacity:1;fill-rule: evenodd"/>
<path id="Shape2DView_nwe0037"  d="M 15.385 -8.04 L 15.385 -8.14 " stroke="#191919" stroke-width="0.35 px" style="stroke-width:0.35;stroke-miterlimit:4;stroke-dasharray:none;fill:none;fill-opacity:1;fill-rule: evenodd"/>
<path id="Shape2DView_nwe0038"  d="M 14.0 -8.04 L 14.0 -8.14 " stroke="#191919" stroke-width="0.35 px" style="stroke-width:0.35;stroke-miterlimit:4;stroke-dasharray:none;fill:none;fill-opacity:1;fill-rule: evenodd"/>
<path id="Shape2DView_nwe0039"  d="M 19.54 -8.04 L 19.54 -8.14 " stroke="#191919" stroke-width="0.35 px" style="stroke-width:0.35;stroke-miterlimit:4;stroke-dasharray:none;fill:none;fill-opacity:1;fill-rule: evenodd"/>
<path id="Shape2DView_nwe0040"  d="M 18.155 -8.04 L 18.155 -8.14 " stroke="#191919" stroke-width="0.35 px" style="stroke-width:0.35;stroke-miterlimit:4;stroke-dasharray:none;fill:none;fill-opacity:1;fill-rule: evenodd"/>
<path id="Shape2DView_nwe0041"  d="M 0.15 -8.04 L 0.15 -8.14 " stroke="#191919" stroke-width="0.35 px" style="stroke-width:0.35;stroke-miterlimit:4;stroke-dasharray:none;fill:none;fill-opacity:1;fill-rule: evenodd"/>
<path id="Shape2DView_nwe0042"  d="M 22.045 -8.04 L -2.655000000000001 -8.04 " stroke="#191919" stroke-width="0.35 px" style="stroke-width:0.35;stroke-miterlimit:4;stroke-dasharray:none;fill:none;fill-opacity:1;fill-rule: evenodd"/>
<path id="Shape2DView_nwe0043"  d="M -2.655 -7.84 L -2.655 -8.04 " stroke="#191919" stroke-width="0.35 px" style="stroke-width:0.35;stroke-miterlimit:4;stroke-dasharray:none;fill:none;fill-opacity:1;fill-rule: evenodd"/>
<path id="Shape2DView_nwe0044"  d="M 22.045 -7.84 L 22.045 -8.04 " stroke="#191919" stroke-width="0.35 px" style="stroke-width:0.35;stroke-miterlimit:4;stroke-dasharray:none;fill:none;fill-opacity:1;fill-rule: evenodd"/>
<path id="Shape2DView_nwe0045"  d="M 22.045 -7.84 L -2.655000000000001 -7.84 " stroke="#191919" stroke-width="0.35 px" style="stroke-width:0.35;stroke-miterlimit:4;stroke-dasharray:none;fill:none;fill-opacity:1;fill-rule: evenodd"/>
<path id="Shape2DView_nwe0046"  d="M 11.23 -0.6 L 11.23 -7.84 " stroke="#191919" stroke-width="0.35 px" style="stroke-width:0.35;stroke-miterlimit:4;stroke-dasharray:none;fill:none;fill-opacity:1;fill-rule: evenodd"/>
<path id="Shape2DView_nwe0047"  d="M 9.845 -3.44 L 9.845 -7.84 " stroke="#191919" stroke-width="0.35 px" style="stroke-width:0.35;stroke-miterlimit:4;stroke-dasharray:none;fill:none;fill-opacity:1;fill-rule: evenodd"/>
<path id="Shape2DView_nwe0048"  d="M 8.46 -0.6 L 8.46 -7.84 " stroke="#191919" stroke-width="0.35 px" style="stroke-width:0.35;stroke-miterlimit:4;stroke-dasharray:none;fill:none;fill-opacity:1;fill-rule: evenodd"/>
<path id="Shape2DView_nwe0049"  d="M 5.69 -0.6 L 5.69 -7.84 " stroke="#191919" stroke-width="0.35 px" style="stroke-width:0.35;stroke-miterlimit:4;stroke-dasharray:none;fill:none;fill-opacity:1;fill-rule: evenodd"/>
<path id="Shape2DView_nwe0050"  d="M 7.075 -3.44 L 7.075 -7.84 " stroke="#191919" stroke-width="0.35 px" style="stroke-width:0.35;stroke-miterlimit:4;stroke-dasharray:none;fill:none;fill-opacity:1;fill-rule: evenodd"/>
<path id="Shape2DView_nwe0051"  d="M 2.92 -0.6 L 2.92 -7.84 " stroke="#191919" stroke-width="0.35 px" style="stroke-width:0.35;stroke-miterlimit:4;stroke-dasharray:none;fill:none;fill-opacity:1;fill-rule: evenodd"/>
<path id="Shape2DView_nwe0052"  d="M 4.305 -3.44 L 4.305 -7.84 " stroke="#191919" stroke-width="0.35 px" style="stroke-width:0.35;stroke-miterlimit:4;stroke-dasharray:none;fill:none;fill-opacity:1;fill-rule: evenodd"/>
<path id="Shape2DView_nwe0053"  d="M 1.535 -3.44 L 1.535 -7.84 " stroke="#191919" stroke-width="0.35 px" style="stroke-width:0.35;stroke-miterlimit:4;stroke-dasharray:none;fill:none;fill-opacity:1;fill-rule: evenodd"/>
<path id="Shape2DView_nwe0054"  d="M 12.615 -3.44 L 12.615 -7.84 " stroke="#191919" stroke-width="0.35 px" style="stroke-width:0.35;stroke-miterlimit:4;stroke-dasharray:none;fill:none;fill-opacity:1;fill-rule: evenodd"/>
<path id="Shape2DView_nwe0055"  d="M 16.77 -0.6 L 16.77 -7.84 " stroke="#191919" stroke-width="0.35 px" style="stroke-width:0.35;stroke-miterlimit:4;stroke-dasharray:none;fill:none;fill-opacity:1;fill-rule: evenodd"/>
<path id="Shape2DView_nwe0056"  d="M 15.385 -3.44 L 15.385 -7.84 " stroke="#191919" stroke-width="0.35 px" style="stroke-width:0.35;stroke-miterlimit:4;stroke-dasharray:none;fill:none;fill-opacity:1;fill-rule: evenodd"/>
<path id="Shape2DView_nwe0057"  d="M 14.0 -0.6 L 14.0 -7.84 " stroke="#191919" stroke-width="0.35 px" style="stroke-width:0.35;stroke-miterlimit:4;stroke-dasharray:none;fill:none;fill-opacity:1;fill-rule: evenodd"/>
<path id="Shape2DView_nwe0058"  d="M 19.54 -0.6 L 19.54 -7.84 " stroke="#191919" stroke-width="0.35 px" style="stroke-width:0.35;stroke-miterlimit:4;stroke-dasharray:none;fill:none;fill-opacity:1;fill-rule: evenodd"/>
<path id="Shape2DView_nwe0059"  d="M 18.155 -3.44 L 18.155 -7.84 " stroke="#191919" stroke-width="0.35 px" style="stroke-width:0.35;stroke-miterlimit:4;stroke-dasharray:none;fill:none;fill-opacity:1;fill-rule: evenodd"/>
<path id="Shape2DView_nwe0060"  d="M 0.15 -0.6 L 0.15 -7.84 " stroke="#191919" stroke-width="0.35 px" style="stroke-width:0.35;stroke-miterlimit:4;stroke-dasharray:none;fill:none;fill-opacity:1;fill-rule: evenodd"/>
<path id="Shape2DView_nwe0061"  d="M 11.23 0.0 L 11.23 -0.00377267406405446 L 11.23 -0.015043252690905784 L 11.23 -0.03367000181497948 L 11.23 -0.05941867925854849 L 11.23 -0.09196548046302955 L 11.23 -0.13090111051918213 L 11.23 -0.17573593128807147 L 11.23 -0.2259061188847598 L 11.23 -0.28078075409079806 L 11.23 -0.3396697565294651 L 11.23 -0.4018325628268997 L 11.23 -0.4664874396262113 L 11.23 -0.5328213143380153 L 11.23 -0.6 " stroke="#191919" stroke-width="0.35 px" style="stroke-width:0.35;stroke-miterlimit:4;stroke-dasharray:none;fill:none;fill-opacity:1;fill-rule: evenodd"/>
<path id="Shape2DView_nwe0062"  d="M 11.23 0.0 A 0.15 0.15 0 0 1 10.93 1.83697e-17" stroke="#191919" stroke-width="0.35 px" style="stroke-width:0.35;stroke-miterlimit:4;stroke-dasharray:none;fill:none;fill-opacity:1;fill-rule: evenodd"/>
<path id="Shape2DView_nwe0063"  d="M 9.845 -2.84 L 9.845 -2.8437726740640543 L 9.845 -2.8550432526909058 L 9.845 -2.8736700018149794 L 9.845 -2.8994186792585483 L 9.845 -2.9319654804630293 L 9.845 -2.9709011105191823 L 9.845 -3.0157359312880714 L 9.845 -3.06590611888476 L 9.845 -3.120780754090798 L 9.845 -3.179669756529465 L 9.845 -3.2418325628269 L 9.845 -3.306487439626211 L 9.845 -3.3728213143380152 L 9.845 -3.44 " stroke="#191919" stroke-width="0.35 px" style="stroke-width:0.35;stroke-miterlimit:4;stroke-dasharray:none;fill:none;fill-opacity:1;fill-rule: evenodd"/>
<path id="Shape2DView_nwe0064"  d="M 9.845 -2.84 A 0.15 0.15 0 0 1 9.545 -2.84" stroke="#191919" stroke-width="0.35 px" style="stroke-width:0.35;stroke-miterlimit:4;stroke-dasharray:none;fill:none;fill-opacity:1;fill-rule: evenodd"/>
<path id="Shape2DView_nwe0065"  d="M 8.46 0.0 L 8.46 -0.00377267406405446 L 8.46 -0.015043252690905784 L 8.46 -0.03367000181497948 L 8.46 -0.05941867925854849 L 8.46 -0.09196548046302955 L 8.46 -0.13090111051918213 L 8.46 -0.17573593128807147 L 8.46 -0.2259061188847598 L 8.46 -0.28078075409079806 L 8.46 -0.3396697565294651 L 8.46 -0.4018325628268997 L 8.46 -0.4664874396262113 L 8.46 -0.5328213143380153 L 8.46 -0.6 " stroke="#191919" stroke-width="0.35 px" style="stroke-width:0.35;stroke-miterlimit:4;stroke-dasharray:none;fill:none;fill-opacity:1;fill-rule: evenodd"/>
<path id="Shape2DView_nwe0066"  d="M 8.46 0.0 A 0.15 0.15 0 0 1 8.16 1.83697e-17" stroke="#191919" stroke-width="0.35 px" style="stroke-width:0.35;stroke-miterlimit:4;stroke-dasharray:none;fill:none;fill-opacity:1;fill-rule: evenodd"/>
<path id="Shape2DView_nwe0067"  d="M 5.69 0.0 L 5.69 -0.00377267406405446 L 5.69 -0.015043252690905784 L 5.69 -0.03367000181497948 L 5.69 -0.05941867925854849 L 5.69 -0.09196548046302955 L 5.69 -0.13090111051918213 L 5.69 -0.17573593128807147 L 5.69 -0.2259061188847598 L 5.69 -0.28078075409079806 L 5.69 -0.3396697565294651 L 5.69 -0.4018325628268997 L 5.69 -0.4664874396262113 L 5.69 -0.5328213143380153 L 5.69 -0.6 " stroke="#191919" stroke-width="0.35 px" style="stroke-width:0.35;stroke-miterlimit:4;stroke-dasharray:none;fill:none;fill-opacity:1;fill-rule: evenodd"/>
<path id="Shape2DView_nwe0068"  d="M 5.69 0.0 A 0.15 0.15 0 0 1 5.39 1.83697e-17" stroke="#191919" stroke-width="0.35 px" style="stroke-width:0.35;stroke-miterlimit:4;stroke-dasharray:none;fill:none;fill-opacity:1;fill-rule: evenodd"/>
<path id="Shape2DView_nwe0069"  d="M 7.075 -2.84 L 7.075 -2.8437726740640543 L 7.075 -2.8550432526909058 L 7.075 -2.8736700018149794 L 7.075 -2.8994186792585483 L 7.075 -2.9319654804630293 L 7.075 -2.9709011105191823 L 7.075 -3.0157359312880714 L 7.075 -3.06590611888476 L 7.075 -3.120780754090798 L 7.075 -3.179669756529465 L 7.075 -3.2418325628269 L 7.075 -3.306487439626211 L 7.075 -3.3728213143380152 L 7.075 -3.44 " stroke="#191919" stroke-width="0.35 px" style="stroke-width:0.35;stroke-miterlimit:4;stroke-dasharray:none;fill:none;fill-opacity:1;fill-rule: evenodd"/>
<path id="Shape2DView_nwe0070"  d="M 7.075 -2.84 A 0.15 0.15 0 0 1 6.775 -2.84" stroke="#191919" stroke-width="0.35 px" style="stroke-width:0.35;stroke-miterlimit:4;stroke-dasharray:none;fill:none;fill-opacity:1;fill-rule: evenodd"/>
<path id="Shape2DView_nwe0071"  d="M 2.92 0.0 L 2.92 -0.00377267406405446 L 2.92 -0.015043252690905784 L 2.92 -0.03367000181497948 L 2.92 -0.05941867925854849 L 2.92 -0.09196548046302955 L 2.92 -0.13090111051918213 L 2.92 -0.17573593128807147 L 2.92 -0.2259061188847598 L 2.92 -0.28078075409079806 L 2.92 -0.3396697565294651 L 2.92 -0.4018325628268997 L 2.92 -0.4664874396262113 L 2.92 -0.5328213143380153 L 2.92 -0.6 " stroke="#191919" stroke-width="0.35 px" style="stroke-width:0.35;stroke-miterlimit:4;stroke-dasharray:none;fill:none;fill-opacity:1;fill-rule: evenodd"/>
<path id="Shape2DView_nwe0072"  d="M 2.92 0.0 A 0.15 0.15 0 0 1 2.62 1.83697e-17" stroke="#191919" stroke-width="0.35 px" style="stroke-width:0.35;stroke-miterlimit:4;stroke-dasharray:none;fill:none;fill-opacity:1;fill-rule: evenodd"/>
<path id="Shape2DView_nwe0073"  d="M 4.305 -2.84 L 4.305 -2.8437726740640543 L 4.305 -2.8550432526909058 L 4.305 -2.8736700018149794 L 4.305 -2.8994186792585483 L 4.305 -2.9319654804630293 L 4.305 -2.9709011105191823 L 4.305 -3.0157359312880714 L 4.305 -3.06590611888476 L 4.305 -3.120780754090798 L 4.305 -3.179669756529465 L 4.305 -3.2418325628269 L 4.305 -3.306487439626211 L 4.305 -3.3728213143380152 L 4.305 -3.44 " stroke="#191919" stroke-width="0.35 px" style="stroke-width:0.35;stroke-miterlimit:4;stroke-dasharray:none;fill:none;fill-opacity:1;fill-rule: evenodd"/>
<path id="Shape2DView_nwe0074"  d="M 4.305000000000001 -2.84 A 0.15 0.15 0 0 1 4.005 -2.84" stroke="#191919" stroke-width="0.35 px" style="stroke-width:0.35;stroke-miterlimit:4;stroke-dasharray:none;fill:none;fill-opacity:1;fill-rule: evenodd"/>
<path id="Shape2DView_nwe0075"  d="M 1.535 -2.84 L 1.535 -2.8437726740640543 L 1.535 -2.8550432526909058 L 1.535 -2.8736700018149794 L 1.535 -2.8994186792585483 L 1.535 -2.9319654804630293 L 1.535 -2.9709011105191823 L 1.535 -3.0157359312880714 L 1.535 -3.06590611888476 L 1.535 -3.120780754090798 L 1.535 -3.179669756529465 L 1.535 -3.2418325628269 L 1.535 -3.306487439626211 L 1.535 -3.3728213143380152 L 1.535 -3.44 " stroke="#191919" stroke-width="0.35 px" style="stroke-width:0.35;stroke-miterlimit:4;stroke-dasharray:none;fill:none;fill-opacity:1;fill-rule: evenodd"/>
<path id="Shape2DView_nwe0076"  d="M 1.535 -2.84 A 0.15 0.15 0 0 1 1.235 -2.84" stroke="#191919" stroke-width="0.35 px" style="stroke-width:0.35;stroke-miterlimit:4;stroke-dasharray:none;fill:none;fill-opacity:1;fill-rule: evenodd"/>
<path id="Shape2DView_nwe0077"  d="M 12.615 -2.84 L 12.615 -2.8437726740640543 L 12.615 -2.8550432526909058 L 12.615 -2.8736700018149794 L 12.615 -2.8994186792585483 L 12.615 -2.9319654804630293 L 12.615 -2.9709011105191823 L 12.615 -3.0157359312880714 L 12.615 -3.06590611888476 L 12.615 -3.120780754090798 L 12.615 -3.179669756529465 L 12.615 -3.2418325628269 L 12.615 -3.306487439626211 L 12.615 -3.3728213143380152 L 12.615 -3.44 " stroke="#191919" stroke-width="0.35 px" style="stroke-width:0.35;stroke-miterlimit:4;stroke-dasharray:none;fill:none;fill-opacity:1;fill-rule: evenodd"/>
<path id="Shape2DView_nwe0078"  d="M 12.615 -2.84 A 0.15 0.15 0 0 1 12.315 -2.84" stroke="#191919" stroke-width="0.35 px" style="stroke-width:0.35;stroke-miterlimit:4;stroke-dasharray:none;fill:none;fill-opacity:1;fill-rule: evenodd"/>
<path id="Shape2DView_nwe0079"  d="M 16.77 0.0 L 16.77 -0.00377267406405446 L 16.77 -0.015043252690905784 L 16.77 -0.03367000181497948 L 16.77 -0.05941867925854849 L 16.77 -0.09196548046302955 L 16.77 -0.13090111051918213 L 16.77 -0.17573593128807147 L 16.77 -0.2259061188847598 L 16.77 -0.28078075409079806 L 16.77 -0.3396697565294651 L 16.77 -0.4018325628268997 L 16.77 -0.4664874396262113 L 16.77 -0.5328213143380153 L 16.77 -0.6 " stroke="#191919" stroke-width="0.35 px" style="stroke-width:0.35;stroke-miterlimit:4;stroke-dasharray:none;fill:none;fill-opacity:1;fill-rule: evenodd"/>
<path id="Shape2DView_nwe0080"  d="M 16.77 0.0 A 0.15 0.15 0 0 1 16.47 1.83697e-17" stroke="#191919" stroke-width="0.35 px" style="stroke-width:0.35;stroke-miterlimit:4;stroke-dasharray:none;fill:none;fill-opacity:1;fill-rule: evenodd"/>
<path id="Shape2DView_nwe0081"  d="M 15.385 -2.84 L 15.385 -2.8437726740640543 L 15.385 -2.8550432526909058 L 15.385 -2.8736700018149794 L 15.385 -2.8994186792585483 L 15.385 -2.9319654804630293 L 15.385 -2.9709011105191823 L 15.385 -3.0157359312880714 L 15.385 -3.06590611888476 L 15.385 -3.120780754090798 L 15.385 -3.179669756529465 L 15.385 -3.2418325628269 L 15.385 -3.306487439626211 L 15.385 -3.3728213143380152 L 15.385 -3.44 " stroke="#191919" stroke-width="0.35 px" style="stroke-width:0.35;stroke-miterlimit:4;stroke-dasharray:none;fill:none;fill-opacity:1;fill-rule: evenodd"/>
<path id="Shape2DView_nwe0082"  d="M 15.385 -2.84 A 0.15 0.15 0 0 1 15.085 -2.84" stroke="#191919" stroke-width="0.35 px" style="stroke-width:0.35;stroke-miterlimit:4;stroke-dasharray:none;fill:none;fill-opacity:1;fill-rule: evenodd"/>
<path id="Shape2DView_nwe0083"  d="M 14.0 0.0 L 14.0 -0.00377267406405446 L 14.0 -0.015043252690905784 L 14.0 -0.03367000181497948 L 14.0 -0.05941867925854849 L 14.0 -0.09196548046302955 L 14.0 -0.13090111051918213 L 14.0 -0.17573593128807147 L 14.0 -0.2259061188847598 L 14.0 -0.28078075409079806 L 14.0 -0.3396697565294651 L 14.0 -0.4018325628268997 L 14.0 -0.4664874396262113 L 14.0 -0.5328213143380153 L 14.0 -0.6 " stroke="#191919" stroke-width="0.35 px" style="stroke-width:0.35;stroke-miterlimit:4;stroke-dasharray:none;fill:none;fill-opacity:1;fill-rule: evenodd"/>
<path id="Shape2DView_nwe0084"  d="M 14.0 0.0 A 0.15 0.15 0 0 1 13.7 1.83697e-17" stroke="#191919" stroke-width="0.35 px" style="stroke-width:0.35;stroke-miterlimit:4;stroke-dasharray:none;fill:none;fill-opacity:1;fill-rule: evenodd"/>
<path id="Shape2DView_nwe0085"  d="M 19.54 0.0 L 19.54 -0.00377267406405446 L 19.54 -0.015043252690905784 L 19.54 -0.03367000181497948 L 19.54 -0.05941867925854849 L 19.54 -0.09196548046302955 L 19.54 -0.13090111051918213 L 19.54 -0.17573593128807147 L 19.54 -0.2259061188847598 L 19.54 -0.28078075409079806 L 19.54 -0.3396697565294651 L 19.54 -0.4018325628268997 L 19.54 -0.4664874396262113 L 19.54 -0.5328213143380153 L 19.54 -0.6 " stroke="#191919" stroke-width="0.35 px" style="stroke-width:0.35;stroke-miterlimit:4;stroke-dasharray:none;fill:none;fill-opacity:1;fill-rule: evenodd"/>
<path id="Shape2DView_nwe0086"  d="M 19.54 0.0 A 0.15 0.15 0 0 1 19.24 1.83697e-17" stroke="#191919" stroke-width="0.35 px" style="stroke-width:0.35;stroke-miterlimit:4;stroke-dasharray:none;fill:none;fill-opacity:1;fill-rule: evenodd"/>
<path id="Shape2DView_nwe0087"  d="M 18.155 -2.84 L 18.155 -2.8437726740640543 L 18.155 -2.8550432526909058 L 18.155 -2.8736700018149794 L 18.155 -2.8994186792585483 L 18.155 -2.9319654804630293 L 18.155 -2.9709011105191823 L 18.155 -3.0157359312880714 L 18.155 -3.06590611888476 L 18.155 -3.120780754090798 L 18.155 -3.179669756529465 L 18.155 -3.2418325628269 L 18.155 -3.306487439626211 L 18.155 -3.3728213143380152 L 18.155 -3.44 " stroke="#191919" stroke-width="0.35 px" style="stroke-width:0.35;stroke-miterlimit:4;stroke-dasharray:none;fill:none;fill-opacity:1;fill-rule: evenodd"/>
<path id="Shape2DView_nwe0088"  d="M 18.154999999999998 -2.84 A 0.15 0.15 0 0 1 17.855 -2.84" stroke="#191919" stroke-width="0.35 px" style="stroke-width:0.35;stroke-miterlimit:4;stroke-dasharray:none;fill:none;fill-opacity:1;fill-rule: evenodd"/>
<path id="Shape2DView_nwe0089"  d="M 0.15 0.0 L 0.15 -0.00377267406405446 L 0.15 -0.015043252690905784 L 0.15 -0.03367000181497948 L 0.15 -0.05941867925854849 L 0.15 -0.09196548046302955 L 0.15 -0.13090111051918213 L 0.15 -0.17573593128807147 L 0.15 -0.2259061188847598 L 0.15 -0.28078075409079806 L 0.15 -0.3396697565294651 L 0.15 -0.4018325628268997 L 0.15 -0.4664874396262113 L 0.15 -0.5328213143380153 L 0.15 -0.6 " stroke="#191919" stroke-width="0.35 px" style="stroke-width:0.35;stroke-miterlimit:4;stroke-dasharray:none;fill:none;fill-opacity:1;fill-rule: evenodd"/>
<path id="Shape2DView_nwe0090"  d="M 0.15 0.0 A 0.15 0.15 0 0 1 -0.15 1.83697e-17" stroke="#191919" stroke-width="0.35 px" style="stroke-width:0.35;stroke-miterlimit:4;stroke-dasharray:none;fill:none;fill-opacity:1;fill-rule: evenodd"/>
<circle cx="11.08" cy="1.315192911205e-32" r="0.15" stroke="#191919" stroke-width="0.35 px" style="stroke-width:0.35;stroke-miterlimit:4;stroke-dasharray:none;fill:none"/>
<circle cx="9.695" cy="-2.84" r="0.15" stroke="#191919" stroke-width="0.35 px" style="stroke-width:0.35;stroke-miterlimit:4;stroke-dasharray:none;fill:none"/>
<circle cx="8.31" cy="1.315192911205e-32" r="0.15" stroke="#191919" stroke-width="0.35 px" style="stroke-width:0.35;stroke-miterlimit:4;stroke-dasharray:none;fill:none"/>
<circle cx="5.54" cy="1.315192911205e-32" r="0.15" stroke="#191919" stroke-width="0.35 px" style="stroke-width:0.35;stroke-miterlimit:4;stroke-dasharray:none;fill:none"/>
<circle cx="6.925" cy="-2.84" r="0.15" stroke="#191919" stroke-width="0.35 px" style="stroke-width:0.35;stroke-miterlimit:4;stroke-dasharray:none;fill:none"/>
<circle cx="2.77" cy="1.315192911205e-32" r="0.15" stroke="#191919" stroke-width="0.35 px" style="stroke-width:0.35;stroke-miterlimit:4;stroke-dasharray:none;fill:none"/>
<circle cx="4.155" cy="-2.84" r="0.15" stroke="#191919" stroke-width="0.35 px" style="stroke-width:0.35;stroke-miterlimit:4;stroke-dasharray:none;fill:none"/>
<circle cx="1.385" cy="-2.84" r="0.15" stroke="#191919" stroke-width="0.35 px" style="stroke-width:0.35;stroke-miterlimit:4;stroke-dasharray:none;fill:none"/>
<circle cx="12.465" cy="-2.84" r="0.15" stroke="#191919" stroke-width="0.35 px" style="stroke-width:0.35;stroke-miterlimit:4;stroke-dasharray:none;fill:none"/>
<circle cx="16.62" cy="1.315192911205e-32" r="0.15" stroke="#191919" stroke-width="0.35 px" style="stroke-width:0.35;stroke-miterlimit:4;stroke-dasharray:none;fill:none"/>
<circle cx="15.235" cy="-2.84" r="0.15" stroke="#191919" stroke-width="0.35 px" style="stroke-width:0.35;stroke-miterlimit:4;stroke-dasharray:none;fill:none"/>
<circle cx="13.85" cy="1.315192911205e-32" r="0.15" stroke="#191919" stroke-width="0.35 px" style="stroke-width:0.35;stroke-miterlimit:4;stroke-dasharray:none;fill:none"/>
<circle cx="19.39" cy="1.315192911205e-32" r="0.15" stroke="#191919" stroke-width="0.35 px" style="stroke-width:0.35;stroke-miterlimit:4;stroke-dasharray:none;fill:none"/>
<circle cx="18.005" cy="-2.84" r="0.15" stroke="#191919" stroke-width="0.35 px" style="stroke-width:0.35;stroke-miterlimit:4;stroke-dasharray:none;fill:none"/>
<circle cx="2.282583637792e-32" cy="1.315192911205e-32" r="0.15" stroke="#191919" stroke-width="0.35 px" style="stroke-width:0.35;stroke-miterlimit:4;stroke-dasharray:none;fill:none"/>
<path id="Shape2DView_nwe0106"  d="M -1.864431920499 -18.34 L -1.864431920499 -18.29 " stroke="#191919" stroke-width="0.35 px" style="stroke-width:0.35;stroke-miterlimit:4;stroke-dasharray:none;fill:none;fill-opacity:1;fill-rule: evenodd"/>
<path id="Shape2DView_nwe0107"  d="M 21.254431920499 -18.34 L 21.254431920499 -18.29 " stroke="#191919" stroke-width="0.35 px" style="stroke-width:0.35;stroke-miterlimit:4;stroke-dasharray:none;fill:none;fill-opacity:1;fill-rule: evenodd"/>
<path id="Shape2DView_nwe0108"  d="M -1.864431920499 -13.14 L -1.864431920499 -18.29 " stroke="#191919" stroke-width="0.35 px" style="stroke-width:0.35;stroke-miterlimit:4;stroke-dasharray:none;fill:none;fill-opacity:1;fill-rule: evenodd"/>
<path id="Shape2DView_nwe0109"  d="M -2.8644319204990003 -13.14 L -2.8581441303922426 -13.14 L -2.839359832680824 -13.14 L -2.808315250807367 -13.14 L -2.7654007884014193 -13.14 L -2.711156119727284 -13.14 L -2.6462634029670298 -13.14 L -2.5715387016855473 -13.14 L -2.4879217223577332 -13.14 L -2.396463997014336 -13.14 L -2.298315659616558 -13.14 L -2.1947109824541666 -13.14 L -2.086952854455314 -13.14 L -1.9763963966023075 -13.14 L -1.864431920499 -13.14 " stroke="#191919" stroke-width="0.35 px" style="stroke-width:0.35;stroke-miterlimit:4;stroke-dasharray:none;fill:none;fill-opacity:1;fill-rule: evenodd"/>
<path id="Shape2DView_nwe0110"  d="M 21.254431920499 -13.14 L 21.254431920499 -18.29 " stroke="#191919" stroke-width="0.35 px" style="stroke-width:0.35;stroke-miterlimit:4;stroke-dasharray:none;fill:none;fill-opacity:1;fill-rule: evenodd"/>
<path id="Shape2DView_nwe0111"  d="M -1.864431920499 -13.14 L 21.254431920499 -13.14 " stroke="#191919" stroke-width="0.35 px" style="stroke-width:0.35;stroke-miterlimit:4;stroke-dasharray:none;fill:none;fill-opacity:1;fill-rule: evenodd"/>
<path id="Shape2DView_nwe0112"  d="M 21.254431920499 -13.14 L 21.36639639660231 -13.14 L 21.476952854455316 -13.14 L 21.58471098245417 -13.14 L 21.68831565961656 -13.14 L 21.786463997014337 -13.14 L 21.877921722357737 -13.14 L 21.961538701685548 -13.14 L 22.03626340296703 -13.14 L 22.101156119727285 -13.14 L 22.155400788401423 -13.14 L 22.19831525080737 -13.14 L 22.229359832680824 -13.14 L 22.248144130392244 -13.14 L 22.254431920499 -13.14 " stroke="#191919" stroke-width="0.35 px" style="stroke-width:0.35;stroke-miterlimit:4;stroke-dasharray:none;fill:none;fill-opacity:1;fill-rule: evenodd"/>
<path id="Shape2DView_nwe0113"  d="M -1.864431920499 -13.14 L -1.864431920499 -13.072821314338016 L -1.864431920499 -13.006487439626213 L -1.864431920499 -12.941832562826901 L -1.864431920499 -12.879669756529466 L -1.864431920499 -12.8207807540908 L -1.864431920499 -12.765906118884761 L -1.864431920499 -12.715735931288073 L -1.864431920499 -12.670901110519182 L -1.864431920499 -12.63196548046303 L -1.864431920499 -12.59941867925855 L -1.864431920499 -12.57367000181498 L -1.864431920499 -12.555043252690906 L -1.864431920499 -12.543772674064055 L -1.864431920499 -12.540000000000001 " stroke="#191919" stroke-width="0.35 px" style="stroke-width:0.35;stroke-miterlimit:4;stroke-dasharray:none;fill:none;fill-opacity:1;fill-rule: evenodd"/>
<path id="Shape2DView_nwe0114"  d="M 21.254431920499 -13.14 L 21.254431920499 -13.072821314338016 L 21.254431920499 -13.006487439626213 L 21.254431920499 -12.941832562826901 L 21.254431920499 -12.879669756529466 L 21.254431920499 -12.820780754090798 L 21.254431920499 -12.765906118884761 L 21.254431920499 -12.715735931288073 L 21.254431920499 -12.670901110519182 L 21.254431920499 -12.63196548046303 L 21.254431920499 -12.59941867925855 L 21.254431920499 -12.57367000181498 L 21.254431920499 -12.555043252690906 L 21.254431920499 -12.543772674064055 L 21.254431920499 -12.540000000000001 " stroke="#191919" stroke-width="0.35 px" style="stroke-width:0.35;stroke-miterlimit:4;stroke-dasharray:none;fill:none;fill-opacity:1;fill-rule: evenodd"/>
<path id="Shape2DView_nwe0116"  d="M -8.905 -12.44 L -8.905 -12.45119644761033 L -8.905 -12.46225209339563 L -8.905 -12.473027906195517 L -8.905 -12.483388373911755 L -8.905 -12.493203207651533 L -8.905 -12.502348980185873 L -8.905 -12.510710678118654 L -8.905 -12.518183148246802 L -8.905 -12.524672419922828 L -8.905 -12.530096886790242 L -8.905 -12.534388333030837 L -8.905 -12.537492791218181 L -8.905 -12.539371220989324 L -8.905 -12.54 " stroke="#191919" stroke-width="0.35 px" style="stroke-width:0.35;stroke-miterlimit:4;stroke-dasharray:none;fill:none;fill-opacity:1;fill-rule: evenodd"/>
<path id="Shape2DView_nwe0117"  d="M -9.905 -12.44 L -9.898712209893242 -12.44 L -9.879927912181824 -12.44 L -9.848883330308366 -12.44 L -9.805968867902418 -12.44 L -9.751724199228283 -12.44 L -9.68683148246803 -12.44 L -9.612106781186547 -12.44 L -9.528489801858733 -12.44 L -9.437032076515337 -12.44 L -9.338883739117557 -12.44 L -9.235279061955167 -12.44 L -9.127520933956314 -12.44 L -9.016964476103308 -12.44 L -8.905 -12.44 " stroke="#191919" stroke-width="0.35 px" style="stroke-width:0.35;stroke-miterlimit:4;stroke-dasharray:none;fill:none;fill-opacity:1;fill-rule: evenodd"/>
<path id="Shape2DView_nwe0119"  d="M 28.295 -12.44 L 28.295 -12.45119644761033 L 28.295 -12.46225209339563 L 28.295 -12.473027906195517 L 28.295 -12.483388373911755 L 28.295 -12.493203207651533 L 28.295 -12.502348980185873 L 28.295 -12.510710678118654 L 28.295 -12.518183148246802 L 28.295 -12.524672419922828 L 28.295 -12.530096886790242 L 28.295 -12.534388333030837 L 28.295 -12.537492791218181 L 28.295 -12.539371220989324 L 28.295 -12.54 " stroke="#191919" stroke-width="0.35 px" style="stroke-width:0.35;stroke-miterlimit:4;stroke-dasharray:none;fill:none;fill-opacity:1;fill-rule: evenodd"/>
<path id="Shape2DView_nwe0120"  d="M -8.905 -12.44 L 28.295 -12.44 " stroke="#191919" stroke-width="0.35 px" style="stroke-width:0.35;stroke-miterlimit:4;stroke-dasharray:none;fill:none;fill-opacity:1;fill-rule: evenodd"/>
<path id="Shape2DView_nwe0121"  d="M 28.295 -12.44 L 28.406964476103308 -12.44 L 28.517520933956316 -12.44 L 28.62527906195517 -12.44 L 28.72888373911756 -12.44 L 28.827032076515337 -12.44 L 28.918489801858737 -12.44 L 29.002106781186548 -12.44 L 29.07683148246803 -12.44 L 29.141724199228285 -12.44 L 29.195968867902423 -12.44 L 29.23888333030837 -12.44 L 29.269927912181824 -12.44 L 29.288712209893244 -12.44 L 29.295 -12.44 " stroke="#191919" stroke-width="0.35 px" style="stroke-width:0.35;stroke-miterlimit:4;stroke-dasharray:none;fill:none;fill-opacity:1;fill-rule: evenodd"/>
<path id="Shape2DView_nwe0122"  d="M -8.905 -12.24 L -8.905 -12.44 " stroke="#191919" stroke-width="0.35 px" style="stroke-width:0.35;stroke-miterlimit:4;stroke-dasharray:none;fill:none;fill-opacity:1;fill-rule: evenodd"/>
<path id="Shape2DView_nwe0123"  d="M -9.905 -12.24 L -9.898712209893242 -12.24 L -9.879927912181824 -12.24 L -9.848883330308366 -12.24 L -9.805968867902418 -12.24 L -9.751724199228283 -12.24 L -9.68683148246803 -12.24 L -9.612106781186547 -12.24 L -9.528489801858733 -12.24 L -9.437032076515337 -12.24 L -9.338883739117557 -12.24 L -9.235279061955167 -12.24 L -9.127520933956314 -12.24 L -9.016964476103308 -12.24 L -8.905 -12.24 " stroke="#191919" stroke-width="0.35 px" style="stroke-width:0.35;stroke-miterlimit:4;stroke-dasharray:none;fill:none;fill-opacity:1;fill-rule: evenodd"/>
<path id="Shape2DView_nwe0124"  d="M -8.905 -12.24 L 28.295 -12.24 " stroke="#191919" stroke-width="0.35 px" style="stroke-width:0.35;stroke-miterlimit:4;stroke-dasharray:none;fill:none;fill-opacity:1;fill-rule: evenodd"/>
<path id="Shape2DView_nwe0125"  d="M 28.295 -12.24 L 28.295 -12.44 " stroke="#191919" stroke-width="0.35 px" style="stroke-width:0.35;stroke-miterlimit:4;stroke-dasharray:none;fill:none;fill-opacity:1;fill-rule: evenodd"/>
<path id="Shape2DView_nwe0126"  d="M 28.295 -12.24 L 28.406964476103308 -12.24 L 28.517520933956316 -12.24 L 28.62527906195517 -12.24 L 28.72888373911756 -12.24 L 28.827032076515337 -12.24 L 28.918489801858737 -12.24 L 29.002106781186548 -12.24 L 29.07683148246803 -12.24 L 29.141724199228285 -12.24 L 29.195968867902423 -12.24 L 29.23888333030837 -12.24 L 29.269927912181824 -12.24 L 29.288712209893244 -12.24 L 29.295 -12.24 " stroke="#191919" stroke-width="0.35 px" style="stroke-width:0.35;stroke-miterlimit:4;stroke-dasharray:none;fill:none;fill-opacity:1;fill-rule: evenodd"/>
<path id="Shape2DView_nwe0128"  d="M -8.905 -12.14 L -8.905 -12.140628779010676 L -8.905 -12.142507208781819 L -8.905 -12.145611666969163 L -8.905 -12.149903113209758 L -8.905 -12.155327580077172 L -8.905 -12.161816851753198 L -8.905 -12.169289321881346 L -8.905 -12.177651019814126 L -8.905 -12.186796792348467 L -8.905 -12.196611626088245 L -8.905 -12.206972093804483 L -8.905 -12.21774790660437 L -8.905 -12.22880355238967 L -8.905 -12.24 " stroke="#191919" stroke-width="0.35 px" style="stroke-width:0.35;stroke-miterlimit:4;stroke-dasharray:none;fill:none;fill-opacity:1;fill-rule: evenodd"/>
<path id="Shape2DView_nwe0130"  d="M 28.295 -12.14 L 28.295 -12.140628779010676 L 28.295 -12.142507208781819 L 28.295 -12.145611666969163 L 28.295 -12.149903113209758 L 28.295 -12.155327580077172 L 28.295 -12.161816851753198 L 28.295 -12.169289321881346 L 28.295 -12.177651019814126 L 28.295 -12.186796792348467 L 28.295 -12.196611626088245 L 28.295 -12.206972093804483 L 28.295 -12.21774790660437 L 28.295 -12.22880355238967 L 28.295 -12.24 " stroke="#191919" stroke-width="0.35 px" style="stroke-width:0.35;stroke-miterlimit:4;stroke-dasharray:none;fill:none;fill-opacity:1;fill-rule: evenodd"/>
<path id="Shape2DView_nwe0131"  d="M 22.545 -9.14 L 22.545 -12.14 " stroke="#191919" stroke-width="0.35 px" style="stroke-width:0.35;stroke-miterlimit:4;stroke-dasharray:none;fill:none;fill-opacity:1;fill-rule: evenodd"/>
<path id="Shape2DView_nwe0132"  d="M -3.155 -9.14 L -3.155 -12.14 " stroke="#191919" stroke-width="0.35 px" style="stroke-width:0.35;stroke-miterlimit:4;stroke-dasharray:none;fill:none;fill-opacity:1;fill-rule: evenodd"/>
<path id="Shape2DView_nwe0133"  d="M -3.155 -9.14 L 22.545 -9.14 " stroke="#191919" stroke-width="0.35 px" style="stroke-width:0.35;stroke-miterlimit:4;stroke-dasharray:none;fill:none;fill-opacity:1;fill-rule: evenodd"/>
<path id="Shape2DView_nwe0134"  d="M -4.154999999999999 -9.14 L -4.148712209893242 -9.14 L -4.129927912181824 -9.14 L -4.098883330308367 -9.14 L -4.055968867902419 -9.14 L -4.001724199228284 -9.14 L -3.9368314824680297 -9.14 L -3.8621067811865473 -9.14 L -3.7784898018587336 -9.14 L -3.6870320765153366 -9.14 L -3.588883739117558 -9.14 L -3.485279061955167 -9.14 L -3.377520933956314 -9.14 L -3.2669644761033076 -9.14 L -3.155 -9.14 " stroke="#191919" stroke-width="0.35 px" style="stroke-width:0.35;stroke-miterlimit:4;stroke-dasharray:none;fill:none;fill-opacity:1;fill-rule: evenodd"/>
<path id="Shape2DView_nwe0135"  d="M 22.545 -9.14 L 22.656964476103308 -9.14 L 22.767520933956316 -9.14 L 22.87527906195517 -9.14 L 22.97888373911756 -9.14 L 23.077032076515337 -9.14 L 23.168489801858737 -9.14 L 23.252106781186548 -9.14 L 23.32683148246803 -9.14 L 23.391724199228285 -9.14 L 23.445968867902423 -9.14 L 23.48888333030837 -9.14 L 23.519927912181824 -9.14 L 23.538712209893244 -9.14 L 23.545 -9.14 " stroke="#191919" stroke-width="0.35 px" style="stroke-width:0.35;stroke-miterlimit:4;stroke-dasharray:none;fill:none;fill-opacity:1;fill-rule: evenodd"/>
<path id="Shape2DView_nwe0136"  d="M -3.155 -8.14 L -3.155 -8.146287790106758 L -3.155 -8.165072087818176 L -3.155 -8.196116669691634 L -3.155 -8.239031132097582 L -3.155 -8.293275800771717 L -3.155 -8.35816851753197 L -3.155 -8.432893218813453 L -3.155 -8.516510198141267 L -3.155 -8.607967923484663 L -3.155 -8.706116260882443 L -3.155 -8.809720938044833 L -3.155 -8.917479066043686 L -3.155 -9.028035523896692 L -3.155 -9.14 " stroke="#191919" stroke-width="0.35 px" style="stroke-width:0.35;stroke-miterlimit:4;stroke-dasharray:none;fill:none;fill-opacity:1;fill-rule: evenodd"/>
<path id="Shape2DView_nwe0137"  d="M 22.545 -8.14 L 22.545 -8.146287790106758 L 22.545 -8.165072087818176 L 22.545 -8.196116669691634 L 22.545 -8.239031132097582 L 22.545 -8.293275800771717 L 22.545 -8.35816851753197 L 22.545 -8.432893218813453 L 22.545 -8.516510198141267 L 22.545 -8.607967923484663 L 22.545 -8.706116260882443 L 22.545 -8.809720938044833 L 22.545 -8.917479066043686 L 22.545 -9.028035523896692 L 22.545 -9.14 " stroke="#191919" stroke-width="0.35 px" style="stroke-width:0.35;stroke-miterlimit:4;stroke-dasharray:none;fill:none;fill-opacity:1;fill-rule: evenodd"/>
<path id="Shape2DView_nwe0139"  d="M 10.93 -0.6 L 10.933760813172727 -0.5999999999999999 L 10.944854669814637 -0.5999999999999999 L 10.962725277629795 -0.5999999999999998 L 10.98647652972119 -0.5999999999999998 L 11.014917439132367 -0.5999999999999996 L 11.046621859906553 -0.5999999999999996 L 11.08 -0.5999999999999996 L 11.113378140093447 -0.5999999999999996 L 11.145082560867634 -0.5999999999999996 L 11.17352347027881 -0.5999999999999998 L 11.197274722370205 -0.5999999999999998 L 11.215145330185363 -0.5999999999999999 L 11.226239186827273 -0.5999999999999999 L 11.23 -0.6 " stroke="#191919" stroke-width="0.35 px" style="stroke-width:0.35;stroke-miterlimit:4;stroke-dasharray:none;fill:none;fill-opacity:1;fill-rule: evenodd"/>
<path id="Shape2DView_nwe0140"  d="M 9.545 -3.44 L 9.548760813172727 -3.44 L 9.559854669814637 -3.44 L 9.577725277629796 -3.44 L 9.60147652972119 -3.4399999999999995 L 9.629917439132367 -3.4399999999999995 L 9.661621859906553 -3.4399999999999995 L 9.695 -3.4399999999999995 L 9.728378140093447 -3.4399999999999995 L 9.760082560867634 -3.4399999999999995 L 9.788523470278811 -3.4399999999999995 L 9.812274722370205 -3.44 L 9.830145330185363 -3.44 L 9.841239186827273 -3.44 L 9.845 -3.44 " stroke="#191919" stroke-width="0.35 px" style="stroke-width:0.35;stroke-miterlimit:4;stroke-dasharray:none;fill:none;fill-opacity:1;fill-rule: evenodd"/>
<path id="Shape2DView_nwe0141"  d="M 8.16 -0.6 L 8.163760813172727 -0.5999999999999999 L 8.174854669814637 -0.5999999999999999 L 8.192725277629796 -0.5999999999999998 L 8.21647652972119 -0.5999999999999998 L 8.244917439132367 -0.5999999999999996 L 8.276621859906554 -0.5999999999999996 L 8.31 -0.5999999999999996 L 8.343378140093447 -0.5999999999999996 L 8.375082560867634 -0.5999999999999996 L 8.403523470278811 -0.5999999999999998 L 8.427274722370205 -0.5999999999999998 L 8.445145330185364 -0.5999999999999999 L 8.456239186827274 -0.5999999999999999 L 8.46 -0.6 " stroke="#191919" stroke-width="0.35 px" style="stroke-width:0.35;stroke-miterlimit:4;stroke-dasharray:none;fill:none;fill-opacity:1;fill-rule: evenodd"/>
<path id="Shape2DView_nwe0142"  d="M 5.39 -0.6 L 5.393760813172727 -0.5999999999999999 L 5.404854669814637 -0.5999999999999999 L 5.422725277629795 -0.5999999999999998 L 5.44647652972119 -0.5999999999999998 L 5.4749174391323665 -0.5999999999999996 L 5.506621859906553 -0.5999999999999996 L 5.54 -0.5999999999999996 L 5.573378140093447 -0.5999999999999996 L 5.605082560867634 -0.5999999999999996 L 5.63352347027881 -0.5999999999999998 L 5.657274722370205 -0.5999999999999998 L 5.675145330185363 -0.5999999999999999 L 5.686239186827273 -0.5999999999999999 L 5.69 -0.6 " stroke="#191919" stroke-width="0.35 px" style="stroke-width:0.35;stroke-miterlimit:4;stroke-dasharray:none;fill:none;fill-opacity:1;fill-rule: evenodd"/>
<path id="Shape2DView_nwe0143"  d="M 6.7749999999999995 -3.44 L 6.778760813172727 -3.44 L 6.789854669814637 -3.44 L 6.807725277629795 -3.44 L 6.83147652972119 -3.4399999999999995 L 6.859917439132366 -3.4399999999999995 L 6.891621859906553 -3.4399999999999995 L 6.925 -3.4399999999999995 L 6.958378140093447 -3.4399999999999995 L 6.990082560867633 -3.4399999999999995 L 7.01852347027881 -3.4399999999999995 L 7.0422747223702045 -3.44 L 7.060145330185363 -3.44 L 7.071239186827273 -3.44 L 7.075 -3.44 " stroke="#191919" stroke-width="0.35 px" style="stroke-width:0.35;stroke-miterlimit:4;stroke-dasharray:none;fill:none;fill-opacity:1;fill-rule: evenodd"/>
<path id="Shape2DView_nwe0144"  d="M 2.62 -0.6 L 2.6237608131727264 -0.5999999999999999 L 2.6348546698146373 -0.5999999999999999 L 2.6527252776297954 -0.5999999999999998 L 2.67647652972119 -0.5999999999999998 L 2.704917439132366 -0.5999999999999996 L 2.7366218599065526 -0.5999999999999996 L 2.77 -0.5999999999999996 L 2.803378140093447 -0.5999999999999996 L 2.8350825608676335 -0.5999999999999996 L 2.86352347027881 -0.5999999999999998 L 2.8872747223702047 -0.5999999999999998 L 2.9051453301853627 -0.5999999999999999 L 2.9162391868272737 -0.5999999999999999 L 2.92 -0.6 " stroke="#191919" stroke-width="0.35 px" style="stroke-width:0.35;stroke-miterlimit:4;stroke-dasharray:none;fill:none;fill-opacity:1;fill-rule: evenodd"/>
<path id="Shape2DView_nwe0145"  d="M 4.005 -3.44 L 4.008760813172727 -3.44 L 4.019854669814637 -3.44 L 4.037725277629796 -3.44 L 4.06147652972119 -3.4399999999999995 L 4.089917439132367 -3.4399999999999995 L 4.121621859906553 -3.4399999999999995 L 4.155 -3.4399999999999995 L 4.188378140093447 -3.4399999999999995 L 4.220082560867634 -3.4399999999999995 L 4.24852347027881 -3.4399999999999995 L 4.272274722370205 -3.44 L 4.290145330185363 -3.44 L 4.3012391868272735 -3.44 L 4.305000000000001 -3.44 " stroke="#191919" stroke-width="0.35 px" style="stroke-width:0.35;stroke-miterlimit:4;stroke-dasharray:none;fill:none;fill-opacity:1;fill-rule: evenodd"/>
<path id="Shape2DView_nwe0146"  d="M 1.235 -3.44 L 1.2387608131727266 -3.44 L 1.249854669814637 -3.44 L 1.2677252776297956 -3.44 L 1.2914765297211899 -3.4399999999999995 L 1.3199174391323663 -3.4399999999999995 L 1.3516218599065528 -3.4399999999999995 L 1.385 -3.4399999999999995 L 1.4183781400934472 -3.4399999999999995 L 1.4500825608676338 -3.4399999999999995 L 1.47852347027881 -3.4399999999999995 L 1.5022747223702044 -3.44 L 1.520145330185363 -3.44 L 1.5312391868272734 -3.44 L 1.535 -3.44 " stroke="#191919" stroke-width="0.35 px" style="stroke-width:0.35;stroke-miterlimit:4;stroke-dasharray:none;fill:none;fill-opacity:1;fill-rule: evenodd"/>
<path id="Shape2DView_nwe0147"  d="M 12.315 -3.44 L 12.318760813172727 -3.44 L 12.329854669814637 -3.44 L 12.347725277629795 -3.44 L 12.371476529721189 -3.4399999999999995 L 12.399917439132366 -3.4399999999999995 L 12.431621859906553 -3.4399999999999995 L 12.465 -3.4399999999999995 L 12.498378140093447 -3.4399999999999995 L 12.530082560867633 -3.4399999999999995 L 12.55852347027881 -3.4399999999999995 L 12.582274722370205 -3.44 L 12.600145330185363 -3.44 L 12.611239186827273 -3.44 L 12.615 -3.44 " stroke="#191919" stroke-width="0.35 px" style="stroke-width:0.35;stroke-miterlimit:4;stroke-dasharray:none;fill:none;fill-opacity:1;fill-rule: evenodd"/>
<path id="Shape2DView_nwe0148"  d="M 16.470000000000002 -0.6 L 16.473760813172728 -0.5999999999999999 L 16.484854669814638 -0.5999999999999999 L 16.502725277629796 -0.5999999999999998 L 16.52647652972119 -0.5999999999999998 L 16.554917439132367 -0.5999999999999996 L 16.586621859906554 -0.5999999999999996 L 16.62 -0.5999999999999996 L 16.653378140093448 -0.5999999999999996 L 16.685082560867635 -0.5999999999999996 L 16.713523470278812 -0.5999999999999998 L 16.737274722370206 -0.5999999999999998 L 16.755145330185364 -0.5999999999999999 L 16.766239186827274 -0.5999999999999999 L 16.77 -0.6 " stroke="#191919" stroke-width="0.35 px" style="stroke-width:0.35;stroke-miterlimit:4;stroke-dasharray:none;fill:none;fill-opacity:1;fill-rule: evenodd"/>
<path id="Shape2DView_nwe0149"  d="M 15.084999999999999 -3.44 L 15.088760813172726 -3.44 L 15.099854669814636 -3.44 L 15.117725277629795 -3.44 L 15.141476529721189 -3.4399999999999995 L 15.169917439132366 -3.4399999999999995 L 15.201621859906552 -3.4399999999999995 L 15.235 -3.4399999999999995 L 15.268378140093446 -3.4399999999999995 L 15.300082560867633 -3.4399999999999995 L 15.32852347027881 -3.4399999999999995 L 15.352274722370204 -3.44 L 15.370145330185363 -3.44 L 15.381239186827273 -3.44 L 15.385 -3.44 " stroke="#191919" stroke-width="0.35 px" style="stroke-width:0.35;stroke-miterlimit:4;stroke-dasharray:none;fill:none;fill-opacity:1;fill-rule: evenodd"/>
<path id="Shape2DView_nwe0150"  d="M 13.7 -0.6 L 13.703760813172726 -0.5999999999999999 L 13.714854669814637 -0.5999999999999999 L 13.732725277629795 -0.5999999999999998 L 13.756476529721189 -0.5999999999999998 L 13.784917439132366 -0.5999999999999996 L 13.816621859906553 -0.5999999999999996 L 13.85 -0.5999999999999996 L 13.883378140093447 -0.5999999999999996 L 13.915082560867633 -0.5999999999999996 L 13.94352347027881 -0.5999999999999998 L 13.967274722370204 -0.5999999999999998 L 13.985145330185363 -0.5999999999999999 L 13.996239186827273 -0.5999999999999999 L 14.0 -0.6 " stroke="#191919" stroke-width="0.35 px" style="stroke-width:0.35;stroke-miterlimit:4;stroke-dasharray:none;fill:none;fill-opacity:1;fill-rule: evenodd"/>
<path id="Shape2DView_nwe0151"  d="M 19.240000000000002 -0.6 L 19.243760813172727 -0.5999999999999999 L 19.254854669814637 -0.5999999999999999 L 19.272725277629796 -0.5999999999999998 L 19.29647652972119 -0.5999999999999998 L 19.324917439132367 -0.5999999999999996 L 19.356621859906554 -0.5999999999999996 L 19.39 -0.5999999999999996 L 19.423378140093448 -0.5999999999999996 L 19.455082560867634 -0.5999999999999996 L 19.48352347027881 -0.5999999999999998 L 19.507274722370205 -0.5999999999999998 L 19.525145330185364 -0.5999999999999999 L 19.536239186827274 -0.5999999999999999 L 19.54 -0.6 " stroke="#191919" stroke-width="0.35 px" style="stroke-width:0.35;stroke-miterlimit:4;stroke-dasharray:none;fill:none;fill-opacity:1;fill-rule: evenodd"/>
<path id="Shape2DView_nwe0152"  d="M 17.855 -3.44 L 17.858760813172726 -3.44 L 17.869854669814636 -3.44 L 17.887725277629794 -3.44 L 17.911476529721188 -3.4399999999999995 L 17.939917439132365 -3.4399999999999995 L 17.971621859906552 -3.4399999999999995 L 18.005 -3.4399999999999995 L 18.038378140093446 -3.4399999999999995 L 18.070082560867633 -3.4399999999999995 L 18.09852347027881 -3.4399999999999995 L 18.122274722370204 -3.44 L 18.140145330185362 -3.44 L 18.151239186827272 -3.44 L 18.154999999999998 -3.44 " stroke="#191919" stroke-width="0.35 px" style="stroke-width:0.35;stroke-miterlimit:4;stroke-dasharray:none;fill:none;fill-opacity:1;fill-rule: evenodd"/>
<path id="Shape2DView_nwe0153"  d="M -0.15 -0.6 L -0.14623918682727355 -0.5999999999999999 L -0.13514533018536287 -0.5999999999999999 L -0.11727472237020448 -0.5999999999999998 L -0.09352347027881006 -0.5999999999999998 L -0.06508256086763375 -0.5999999999999996 L -0.033378140093447195 -0.5999999999999996 L -3.6739403974420595e-17 -0.5999999999999996 L 0.033378140093447126 -0.5999999999999996 L 0.06508256086763368 -0.5999999999999996 L 0.09352347027881 -0.5999999999999998 L 0.11727472237020443 -0.5999999999999998 L 0.13514533018536284 -0.5999999999999999 L 0.14623918682727352 -0.5999999999999999 L 0.15 -0.6 " stroke="#191919" stroke-width="0.35 px" style="stroke-width:0.35;stroke-miterlimit:4;stroke-dasharray:none;fill:none;fill-opacity:1;fill-rule: evenodd"/>
<circle cx="11.08" cy="1.315192911205e-32" r="0.15" stroke="#191919" stroke-width="0.35 px" style="stroke-width:0.35;stroke-miterlimit:4;stroke-dasharray:none;fill:none"/>
<circle cx="9.695" cy="-2.84" r="0.15" stroke="#191919" stroke-width="0.35 px" style="stroke-width:0.35;stroke-miterlimit:4;stroke-dasharray:none;fill:none"/>
<circle cx="8.31" cy="1.315192911205e-32" r="0.15" stroke="#191919" stroke-width="0.35 px" style="stroke-width:0.35;stroke-miterlimit:4;stroke-dasharray:none;fill:none"/>
<circle cx="5.54" cy="1.315192911205e-32" r="0.15" stroke="#191919" stroke-width="0.35 px" style="stroke-width:0.35;stroke-miterlimit:4;stroke-dasharray:none;fill:none"/>
<circle cx="6.925" cy="-2.84" r="0.15" stroke="#191919" stroke-width="0.35 px" style="stroke-width:0.35;stroke-miterlimit:4;stroke-dasharray:none;fill:none"/>
<circle cx="2.77" cy="1.315192911205e-32" r="0.15" stroke="#191919" stroke-width="0.35 px" style="stroke-width:0.35;stroke-miterlimit:4;stroke-dasharray:none;fill:none"/>
<circle cx="4.155" cy="-2.84" r="0.15" stroke="#191919" stroke-width="0.35 px" style="stroke-width:0.35;stroke-miterlimit:4;stroke-dasharray:none;fill:none"/>
<circle cx="1.385" cy="-2.84" r="0.15" stroke="#191919" stroke-width="0.35 px" style="stroke-width:0.35;stroke-miterlimit:4;stroke-dasharray:none;fill:none"/>
<circle cx="12.465" cy="-2.84" r="0.15" stroke="#191919" stroke-width="0.35 px" style="stroke-width:0.35;stroke-miterlimit:4;stroke-dasharray:none;fill:none"/>
<circle cx="16.62" cy="1.315192911205e-32" r="0.15" stroke="#191919" stroke-width="0.35 px" style="stroke-width:0.35;stroke-miterlimit:4;stroke-dasharray:none;fill:none"/>
<circle cx="15.235" cy="-2.84" r="0.15" stroke="#191919" stroke-width="0.35 px" style="stroke-width:0.35;stroke-miterlimit:4;stroke-dasharray:none;fill:none"/>
<circle cx="13.85" cy="1.315192911205e-32" r="0.15" stroke="#191919" stroke-width="0.35 px" style="stroke-width:0.35;stroke-miterlimit:4;stroke-dasharray:none;fill:none"/>
<circle cx="19.39" cy="1.315192911205e-32" r="0.15" stroke="#191919" stroke-width="0.35 px" style="stroke-width:0.35;stroke-miterlimit:4;stroke-dasharray:none;fill:none"/>
<circle cx="18.005" cy="-2.84" r="0.15" stroke="#191919" stroke-width="0.35 px" style="stroke-width:0.35;stroke-miterlimit:4;stroke-dasharray:none;fill:none"/>
<circle cx="2.282583637792e-32" cy="1.315192911205e-32" r="0.15" stroke="#191919" stroke-width="0.35 px" style="stroke-width:0.35;stroke-miterlimit:4;stroke-dasharray:none;fill:none"/>
<path id="Shape2DView_nwe0169"  d="M -2.8144319204990227 -18.34000000000002 L -2.8644319204990003 -18.29 " stroke="#191919" stroke-width="0.35 px" style="stroke-width:0.35;stroke-miterlimit:4;stroke-dasharray:none;fill:none;fill-opacity:1;fill-rule: evenodd"/>
<path id="Shape2DView_nwe0170"  d="M 22.204431920499026 -18.34000000000002 L 22.254431920499 -18.29 " stroke="#191919" stroke-width="0.35 px" style="stroke-width:0.35;stroke-miterlimit:4;stroke-dasharray:none;fill:none;fill-opacity:1;fill-rule: evenodd"/>
<path id="Shape2DView_nwe0171"  d="M -2.8644319204990003 -13.14 L -2.8644319204990003 -18.29 " stroke="#191919" stroke-width="0.35 px" style="stroke-width:0.35;stroke-miterlimit:4;stroke-dasharray:none;fill:none;fill-opacity:1;fill-rule: evenodd"/>
<path id="Shape2DView_nwe0172"  d="M 22.254431920499 -13.14 L 22.254431920499 -18.29 " stroke="#191919" stroke-width="0.35 px" style="stroke-width:0.35;stroke-miterlimit:4;stroke-dasharray:none;fill:none;fill-opacity:1;fill-rule: evenodd"/>
<path id="Shape2DView_nwe0173"  d="M -2.864431920499 -13.14 Q -2.8721798988570204 -13.072259618652613 -2.8799278772150414 -13.004519237305223 Q -2.9092878948438616 -12.927733516422101 -2.938647912472681 -12.850947795538973 Q -3.1167662792094695 -12.552129505490132 -3.464431920499 -12.540000000000001 " stroke="#191919" stroke-width="0.35 px" style="stroke-width:0.35;stroke-miterlimit:4;stroke-dasharray:none;fill:none;fill-opacity:1;fill-rule: evenodd"/>
<path id="Shape2DView_nwe0174"  d="M 22.254431920499 -13.14 Q 22.262179898857017 -13.072259618652613 22.269927877215046 -13.004519237305225 Q 22.29928789484386 -12.927733516422098 22.328647912472682 -12.850947795538973 Q 22.50676627920947 -12.552129505490129 22.854431920499003 -12.540000000000001 " stroke="#191919" stroke-width="0.35 px" style="stroke-width:0.35;stroke-miterlimit:4;stroke-dasharray:none;fill:none;fill-opacity:1;fill-rule: evenodd"/>
<path id="Shape2DView_nwe0175"  d="M 10.93 -8.04 L 10.93 -8.14 " stroke="#191919" stroke-width="0.35 px" style="stroke-width:0.35;stroke-miterlimit:4;stroke-dasharray:none;fill:none;fill-opacity:1;fill-rule: evenodd"/>
<path id="Shape2DView_nwe0176"  d="M 9.545 -8.04 L 9.545 -8.14 " stroke="#191919" stroke-width="0.35 px" style="stroke-width:0.35;stroke-miterlimit:4;stroke-dasharray:none;fill:none;fill-opacity:1;fill-rule: evenodd"/>
<path id="Shape2DView_nwe0177"  d="M 8.16 -8.04 L 8.16 -8.14 " stroke="#191919" stroke-width="0.35 px" style="stroke-width:0.35;stroke-miterlimit:4;stroke-dasharray:none;fill:none;fill-opacity:1;fill-rule: evenodd"/>
<path id="Shape2DView_nwe0178"  d="M 5.39 -8.04 L 5.39 -8.14 " stroke="#191919" stroke-width="0.35 px" style="stroke-width:0.35;stroke-miterlimit:4;stroke-dasharray:none;fill:none;fill-opacity:1;fill-rule: evenodd"/>
<path id="Shape2DView_nwe0179"  d="M 6.7749999999999995 -8.04 L 6.7749999999999995 -8.14 " stroke="#191919" stroke-width="0.35 px" style="stroke-width:0.35;stroke-miterlimit:4;stroke-dasharray:none;fill:none;fill-opacity:1;fill-rule: evenodd"/>
<path id="Shape2DView_nwe0180"  d="M 2.62 -8.04 L 2.62 -8.14 " stroke="#191919" stroke-width="0.35 px" style="stroke-width:0.35;stroke-miterlimit:4;stroke-dasharray:none;fill:none;fill-opacity:1;fill-rule: evenodd"/>
<path id="Shape2DView_nwe0181"  d="M 4.005 -8.04 L 4.005 -8.14 " stroke="#191919" stroke-width="0.35 px" style="stroke-width:0.35;stroke-miterlimit:4;stroke-dasharray:none;fill:none;fill-opacity:1;fill-rule: evenodd"/>
<path id="Shape2DView_nwe0182"  d="M 1.235 -8.04 L 1.235 -8.14 " stroke="#191919" stroke-width="0.35 px" style="stroke-width:0.35;stroke-miterlimit:4;stroke-dasharray:none;fill:none;fill-opacity:1;fill-rule: evenodd"/>
<path id="Shape2DView_nwe0183"  d="M 12.315 -8.04 L 12.315 -8.14 " stroke="#191919" stroke-width="0.35 px" style="stroke-width:0.35;stroke-miterlimit:4;stroke-dasharray:none;fill:none;fill-opacity:1;fill-rule: evenodd"/>
<path id="Shape2DView_nwe0184"  d="M 16.470000000000002 -8.04 L 16.470000000000002 -8.14 " stroke="#191919" stroke-width="0.35 px" style="stroke-width:0.35;stroke-miterlimit:4;stroke-dasharray:none;fill:none;fill-opacity:1;fill-rule: evenodd"/>
<path id="Shape2DView_nwe0185"  d="M 15.084999999999999 -8.04 L 15.084999999999999 -8.14 " stroke="#191919" stroke-width="0.35 px" style="stroke-width:0.35;stroke-miterlimit:4;stroke-dasharray:none;fill:none;fill-opacity:1;fill-rule: evenodd"/>
<path id="Shape2DView_nwe0186"  d="M 13.7 -8.04 L 13.7 -8.14 " stroke="#191919" stroke-width="0.35 px" style="stroke-width:0.35;stroke-miterlimit:4;stroke-dasharray:none;fill:none;fill-opacity:1;fill-rule: evenodd"/>
<path id="Shape2DView_nwe0187"  d="M 19.240000000000002 -8.04 L 19.240000000000002 -8.14 " stroke="#191919" stroke-width="0.35 px" style="stroke-width:0.35;stroke-miterlimit:4;stroke-dasharray:none;fill:none;fill-opacity:1;fill-rule: evenodd"/>
<path id="Shape2DView_nwe0188"  d="M 17.855 -8.04 L 17.855 -8.14 " stroke="#191919" stroke-width="0.35 px" style="stroke-width:0.35;stroke-miterlimit:4;stroke-dasharray:none;fill:none;fill-opacity:1;fill-rule: evenodd"/>
<path id="Shape2DView_nwe0189"  d="M -0.15 -8.04 L -0.15 -8.14 " stroke="#191919" stroke-width="0.35 px" style="stroke-width:0.35;stroke-miterlimit:4;stroke-dasharray:none;fill:none;fill-opacity:1;fill-rule: evenodd"/>
<path id="Shape2DView_nwe0190"  d="M 10.93 -0.6 L 10.93 -7.84 " stroke="#191919" stroke-width="0.35 px" style="stroke-width:0.35;stroke-miterlimit:4;stroke-dasharray:none;fill:none;fill-opacity:1;fill-rule: evenodd"/>
<path id="Shape2DView_nwe0191"  d="M 9.545 -3.44 L 9.545 -7.84 " stroke="#191919" stroke-width="0.35 px" style="stroke-width:0.35;stroke-miterlimit:4;stroke-dasharray:none;fill:none;fill-opacity:1;fill-rule: evenodd"/>
<path id="Shape2DView_nwe0192"  d="M 8.16 -0.6 L 8.16 -7.84 " stroke="#191919" stroke-width="0.35 px" style="stroke-width:0.35;stroke-miterlimit:4;stroke-dasharray:none;fill:none;fill-opacity:1;fill-rule: evenodd"/>
<path id="Shape2DView_nwe0193"  d="M 5.39 -0.6 L 5.39 -7.84 " stroke="#191919" stroke-width="0.35 px" style="stroke-width:0.35;stroke-miterlimit:4;stroke-dasharray:none;fill:none;fill-opacity:1;fill-rule: evenodd"/>
<path id="Shape2DView_nwe0194"  d="M 6.7749999999999995 -3.44 L 6.7749999999999995 -7.84 " stroke="#191919" stroke-width="0.35 px" style="stroke-width:0.35;stroke-miterlimit:4;stroke-dasharray:none;fill:none;fill-opacity:1;fill-rule: evenodd"/>
<path id="Shape2DView_nwe0195"  d="M 2.62 -0.6 L 2.62 -7.84 " stroke="#191919" stroke-width="0.35 px" style="stroke-width:0.35;stroke-miterlimit:4;stroke-dasharray:none;fill:none;fill-opacity:1;fill-rule: evenodd"/>
<path id="Shape2DView_nwe0196"  d="M 4.005 -3.44 L 4.005 -7.84 " stroke="#191919" stroke-width="0.35 px" style="stroke-width:0.35;stroke-miterlimit:4;stroke-dasharray:none;fill:none;fill-opacity:1;fill-rule: evenodd"/>
<path id="Shape2DView_nwe0197"  d="M 1.235 -3.44 L 1.235 -7.84 " stroke="#191919" stroke-width="0.35 px" style="stroke-width:0.35;stroke-miterlimit:4;stroke-dasharray:none;fill:none;fill-opacity:1;fill-rule: evenodd"/>
<path id="Shape2DView_nwe0198"  d="M 12.315 -3.44 L 12.315 -7.84 " stroke="#191919" stroke-width="0.35 px" style="stroke-width:0.35;stroke-miterlimit:4;stroke-dasharray:none;fill:none;fill-opacity:1;fill-rule: evenodd"/>
<path id="Shape2DView_nwe0199"  d="M 16.470000000000002 -0.6 L 16.470000000000002 -7.84 " stroke="#191919" stroke-width="0.35 px" style="stroke-width:0.35;stroke-miterlimit:4;stroke-dasharray:none;fill:none;fill-opacity:1;fill-rule: evenodd"/>
<path id="Shape2DView_nwe0200"  d="M 15.084999999999999 -3.44 L 15.084999999999999 -7.84 " stroke="#191919" stroke-width="0.35 px" style="stroke-width:0.35;stroke-miterlimit:4;stroke-dasharray:none;fill:none;fill-opacity:1;fill-rule: evenodd"/>
<path id="Shape2DView_nwe0201"  d="M 13.7 -0.6 L 13.7 -7.84 " stroke="#191919" stroke-width="0.35 px" style="stroke-width:0.35;stroke-miterlimit:4;stroke-dasharray:none;fill:none;fill-opacity:1;fill-rule: evenodd"/>
<path id="Shape2DView_nwe0202"  d="M 19.240000000000002 -0.6 L 19.240000000000002 -7.84 " stroke="#191919" stroke-width="0.35 px" style="stroke-width:0.35;stroke-miterlimit:4;stroke-dasharray:none;fill:none;fill-opacity:1;fill-rule: evenodd"/>
<path id="Shape2DView_nwe0203"  d="M 17.855 -3.44 L 17.855 -7.84 " stroke="#191919" stroke-width="0.35 px" style="stroke-width:0.35;stroke-miterlimit:4;stroke-dasharray:none;fill:none;fill-opacity:1;fill-rule: evenodd"/>
<path id="Shape2DView_nwe0204"  d="M -0.15 -0.6 L -0.15 -7.84 " stroke="#191919" stroke-width="0.35 px" style="stroke-width:0.35;stroke-miterlimit:4;stroke-dasharray:none;fill:none;fill-opacity:1;fill-rule: evenodd"/>
<path id="Shape2DView_nwe0205"  d="M 10.93 -0.6 Q 10.93 -0.5322596183169359 10.93 -0.46451923663387196 Q 10.93 -0.3836220177872146 10.93 -0.302724798940557 Q 10.93 -0.011449216631273684 10.93 0.0 " stroke="#191919" stroke-width="0.35 px" style="stroke-width:0.35;stroke-miterlimit:4;stroke-dasharray:none;fill:none;fill-opacity:1;fill-rule: evenodd"/>
<path id="Shape2DView_nwe0206"  d="M 9.545 -3.44 Q 9.544999999999998 -3.372259618316936 9.545 -3.3045192366338725 Q 9.544999999999998 -3.223622017787214 9.545 -3.1427247989405576 Q 9.544999999999998 -2.8514492166312735 9.545 -2.8400000000000003 " stroke="#191919" stroke-width="0.35 px" style="stroke-width:0.35;stroke-miterlimit:4;stroke-dasharray:none;fill:none;fill-opacity:1;fill-rule: evenodd"/>
<path id="Shape2DView_nwe0207"  d="M 8.16 -0.6 Q 8.16 -0.5322596183169359 8.16 -0.46451923663387196 Q 8.16 -0.3836220177872146 8.16 -0.302724798940557 Q 8.16 -0.011449216631273684 8.16 0.0 " stroke="#191919" stroke-width="0.35 px" style="stroke-width:0.35;stroke-miterlimit:4;stroke-dasharray:none;fill:none;fill-opacity:1;fill-rule: evenodd"/>
<path id="Shape2DView_nwe0208"  d="M 5.39 -0.6 Q 5.389999999999999 -0.5322596183169359 5.39 -0.46451923663387196 Q 5.39 -0.3836220177872146 5.39 -0.302724798940557 Q 5.389999999999999 -0.011449216631273684 5.39 0.0 " stroke="#191919" stroke-width="0.35 px" style="stroke-width:0.35;stroke-miterlimit:4;stroke-dasharray:none;fill:none;fill-opacity:1;fill-rule: evenodd"/>
<path id="Shape2DView_nwe0209"  d="M 6.7749999999999995 -3.44 Q 6.775 -3.372259618316936 6.7749999999999995 -3.3045192366338725 Q 6.774999999999999 -3.223622017787214 6.7749999999999995 -3.1427247989405576 Q 6.775 -2.8514492166312735 6.7749999999999995 -2.8400000000000003 " stroke="#191919" stroke-width="0.35 px" style="stroke-width:0.35;stroke-miterlimit:4;stroke-dasharray:none;fill:none;fill-opacity:1;fill-rule: evenodd"/>
<path id="Shape2DView_nwe0210"  d="M 2.62 -0.6 Q 2.62 -0.5322596183169359 2.62 -0.46451923663387196 Q 2.62 -0.3836220177872146 2.62 -0.302724798940557 Q 2.6199999999999997 -0.011449216631273684 2.62 0.0 " stroke="#191919" stroke-width="0.35 px" style="stroke-width:0.35;stroke-miterlimit:4;stroke-dasharray:none;fill:none;fill-opacity:1;fill-rule: evenodd"/>
<path id="Shape2DView_nwe0211"  d="M 4.005 -3.44 Q 4.005000000000001 -3.372259618316936 4.005 -3.3045192366338725 Q 4.005 -3.223622017787214 4.005 -3.1427247989405576 Q 4.005000000000001 -2.8514492166312735 4.005 -2.8400000000000003 " stroke="#191919" stroke-width="0.35 px" style="stroke-width:0.35;stroke-miterlimit:4;stroke-dasharray:none;fill:none;fill-opacity:1;fill-rule: evenodd"/>
<path id="Shape2DView_nwe0212"  d="M 1.235 -3.44 Q 1.2349999999999999 -3.372259618316936 1.235 -3.3045192366338725 Q 1.2349999999999999 -3.223622017787214 1.235 -3.1427247989405576 Q 1.2349999999999999 -2.8514492166312735 1.235 -2.8400000000000003 " stroke="#191919" stroke-width="0.35 px" style="stroke-width:0.35;stroke-miterlimit:4;stroke-dasharray:none;fill:none;fill-opacity:1;fill-rule: evenodd"/>
<path id="Shape2DView_nwe0213"  d="M 12.315 -3.44 Q 12.315000000000001 -3.372259618316936 12.315 -3.3045192366338725 Q 12.314999999999998 -3.223622017787214 12.315 -3.1427247989405576 Q 12.315000000000001 -2.8514492166312735 12.315 -2.8400000000000003 " stroke="#191919" stroke-width="0.35 px" style="stroke-width:0.35;stroke-miterlimit:4;stroke-dasharray:none;fill:none;fill-opacity:1;fill-rule: evenodd"/>
<path id="Shape2DView_nwe0214"  d="M 16.470000000000002 -0.6 Q 16.470000000000006 -0.5322596183169359 16.470000000000002 -0.46451923663387196 Q 16.47 -0.3836220177872146 16.470000000000002 -0.302724798940557 Q 16.470000000000002 -0.011449216631273684 16.470000000000002 0.0 " stroke="#191919" stroke-width="0.35 px" style="stroke-width:0.35;stroke-miterlimit:4;stroke-dasharray:none;fill:none;fill-opacity:1;fill-rule: evenodd"/>
<path id="Shape2DView_nwe0215"  d="M 15.084999999999999 -3.44 Q 15.084999999999997 -3.372259618316936 15.084999999999999 -3.3045192366338725 Q 15.084999999999997 -3.223622017787214 15.084999999999999 -3.1427247989405576 Q 15.084999999999997 -2.8514492166312735 15.084999999999999 -2.8400000000000003 " stroke="#191919" stroke-width="0.35 px" style="stroke-width:0.35;stroke-miterlimit:4;stroke-dasharray:none;fill:none;fill-opacity:1;fill-rule: evenodd"/>
<path id="Shape2DView_nwe0216"  d="M 13.7 -0.6 Q 13.699999999999998 -0.5322596183169359 13.7 -0.46451923663387196 Q 13.7 -0.3836220177872146 13.7 -0.302724798940557 Q 13.7 -0.011449216631273684 13.7 0.0 " stroke="#191919" stroke-width="0.35 px" style="stroke-width:0.35;stroke-miterlimit:4;stroke-dasharray:none;fill:none;fill-opacity:1;fill-rule: evenodd"/>
<path id="Shape2DView_nwe0217"  d="M 19.240000000000002 -0.6 Q 19.240000000000002 -0.5322596183169359 19.240000000000002 -0.46451923663387196 Q 19.240000000000002 -0.3836220177872146 19.240000000000002 -0.302724798940557 Q 19.24 -0.011449216631273684 19.240000000000002 0.0 " stroke="#191919" stroke-width="0.35 px" style="stroke-width:0.35;stroke-miterlimit:4;stroke-dasharray:none;fill:none;fill-opacity:1;fill-rule: evenodd"/>
<path id="Shape2DView_nwe0218"  d="M 17.855 -3.44 Q 17.854999999999997 -3.372259618316936 17.855 -3.3045192366338725 Q 17.854999999999997 -3.223622017787214 17.855 -3.1427247989405576 Q 17.854999999999997 -2.8514492166312735 17.855 -2.8400000000000003 " stroke="#191919" stroke-width="0.35 px" style="stroke-width:0.35;stroke-miterlimit:4;stroke-dasharray:none;fill:none;fill-opacity:1;fill-rule: evenodd"/>
<path id="Shape2DView_nwe0219"  d="M -0.15 -0.6 Q -0.14999999999999997 -0.5322596183169359 -0.15 -0.46451923663387196 Q -0.15000000000000002 -0.3836220177872146 -0.15 -0.302724798940557 Q -0.14999999999999997 -0.011449216631273684 -0.15 0.0 " stroke="#191919" stroke-width="0.35 px" style="stroke-width:0.35;stroke-miterlimit:4;stroke-dasharray:none;fill:none;fill-opacity:1;fill-rule: evenodd"/>
<title>b'Shape2DView'</title>
</g>
<g id="Rectangle" transform="translate(10.297000,1.392000) scale(1,-1)">
<rect fill="#ff0000" id="origin" width="1" height="1" x="0" y="0" />
<title>b'Rectangle'</title>
</g>
</svg>