<?xml version="1.0"?>
<!DOCTYPE svg PUBLIC "-//W3C//DTD SVG 1.1//EN" "http://www.w3.org/Graphics/SVG/1.1/DTD/svg11.dtd">
<svg width="54.162mm" height="20.402000000000044mm" viewBox="0 0 54.162 20.402000000000044" xmlns="http://www.w3.org/2000/svg" version="1.1">
<g id="Shape2DView" transform="translate(43.701000,1.531000) scale(1,-1)">
<circle cx="-33.24" cy="2.850275026918e-33" r="0.32" stroke="#191919" stroke-width="0.35 px" style="stroke-width:0.35;stroke-miterlimit:4;stroke-dasharray:none;fill:none"/>
<path id="Shape2DView_nwe0001"  d="M -32.92 0.0 L -32.92 -0.008048371336649485 L -32.92 -0.032092272407265865 L -32.92 -0.07182933720528961 L -32.92 -0.12675984908490356 L -32.92 -0.19619302498779634 L -32.92 -0.2792557024409219 L -32.92 -0.37490332008121907 L -32.92 -0.48193305362082106 L -32.92 -0.5989989420603692 L -32.92 -0.7246288139295255 L -32.92 -0.857242800697386 L -32.92 -0.9951732045359175 L -32.92 -1.1366854705877658 L -32.92 -1.28 " stroke="#191919" stroke-width="0.35 px" style="stroke-width:0.35;stroke-miterlimit:4;stroke-dasharray:none;fill:none;fill-opacity:1;fill-rule: evenodd"/>
<path id="Shape2DView_nwe0002"  d="M -32.92 0.0 A 0.32 0.32 0 0 1 -33.56 3.91887e-17" stroke="#191919" stroke-width="0.35 px" style="stroke-width:0.35;stroke-miterlimit:4;stroke-dasharray:none;fill:none;fill-opacity:1;fill-rule: evenodd"/>
<path id="Shape2DView_nwe0003"  d="M -32.92 -1.28 L -32.92 -7.54 " stroke="#191919" stroke-width="0.35 px" style="stroke-width:0.35;stroke-miterlimit:4;stroke-dasharray:none;fill:none;fill-opacity:1;fill-rule: evenodd"/>
<path id="Shape2DView_nwe0004"  d="M 2.43 -7.54 L -35.67 -7.54 " stroke="#191919" stroke-width="0.35 px" style="stroke-width:0.35;stroke-miterlimit:4;stroke-dasharray:none;fill:none;fill-opacity:1;fill-rule: evenodd"/>
<path id="Shape2DView_nwe0005"  d="M -35.67 -7.54 L -35.67 -7.84 " stroke="#191919" stroke-width="0.35 px" style="stroke-width:0.35;stroke-miterlimit:4;stroke-dasharray:none;fill:none;fill-opacity:1;fill-rule: evenodd"/>
<path id="Shape2DView_nwe0006"  d="M 2.43 -7.54 L 2.43 -7.84 " stroke="#191919" stroke-width="0.35 px" style="stroke-width:0.35;stroke-miterlimit:4;stroke-dasharray:none;fill:none;fill-opacity:1;fill-rule: evenodd"/>
<path id="Shape2DView_nwe0007"  d="M -2.45 -1.28 L -2.45 -7.54 " stroke="#191919" stroke-width="0.35 px" style="stroke-width:0.35;stroke-miterlimit:4;stroke-dasharray:none;fill:none;fill-opacity:1;fill-rule: evenodd"/>
<path id="Shape2DView_nwe0008"  d="M -5.22 -1.28 L -5.22 -7.54 " stroke="#191919" stroke-width="0.35 px" style="stroke-width:0.35;stroke-miterlimit:4;stroke-dasharray:none;fill:none;fill-opacity:1;fill-rule: evenodd"/>
<path id="Shape2DView_nwe0009"  d="M -7.99 -1.28 L -7.99 -7.54 " stroke="#191919" stroke-width="0.35 px" style="stroke-width:0.35;stroke-miterlimit:4;stroke-dasharray:none;fill:none;fill-opacity:1;fill-rule: evenodd"/>
<path id="Shape2DView_nwe0010"  d="M -16.3 -1.28 L -16.3 -7.54 " stroke="#191919" stroke-width="0.35 px" style="stroke-width:0.35;stroke-miterlimit:4;stroke-dasharray:none;fill:none;fill-opacity:1;fill-rule: evenodd"/>
<path id="Shape2DView_nwe0011"  d="M -13.53 -1.28 L -13.53 -7.54 " stroke="#191919" stroke-width="0.35 px" style="stroke-width:0.35;stroke-miterlimit:4;stroke-dasharray:none;fill:none;fill-opacity:1;fill-rule: evenodd"/>
<path id="Shape2DView_nwe0012"  d="M -10.76 -1.28 L -10.76 -7.54 " stroke="#191919" stroke-width="0.35 px" style="stroke-width:0.35;stroke-miterlimit:4;stroke-dasharray:none;fill:none;fill-opacity:1;fill-rule: evenodd"/>
<path id="Shape2DView_nwe0013"  d="M -21.84 -1.28 L -21.84 -7.54 " stroke="#191919" stroke-width="0.35 px" style="stroke-width:0.35;stroke-miterlimit:4;stroke-dasharray:none;fill:none;fill-opacity:1;fill-rule: evenodd"/>
<path id="Shape2DView_nwe0014"  d="M -19.07 -1.28 L -19.07 -7.54 " stroke="#191919" stroke-width="0.35 px" style="stroke-width:0.35;stroke-miterlimit:4;stroke-dasharray:none;fill:none;fill-opacity:1;fill-rule: evenodd"/>
<path id="Shape2DView_nwe0015"  d="M -23.225 -3.82 L -23.225 -7.54 " stroke="#191919" stroke-width="0.35 px" style="stroke-width:0.35;stroke-miterlimit:4;stroke-dasharray:none;fill:none;fill-opacity:1;fill-rule: evenodd"/>
<path id="Shape2DView_nwe0016"  d="M -20.455 -3.82 L -20.455 -7.54 " stroke="#191919" stroke-width="0.35 px" style="stroke-width:0.35;stroke-miterlimit:4;stroke-dasharray:none;fill:none;fill-opacity:1;fill-rule: evenodd"/>
<path id="Shape2DView_nwe0017"  d="M -14.915 -3.82 L -14.915 -7.54 " stroke="#191919" stroke-width="0.35 px" style="stroke-width:0.35;stroke-miterlimit:4;stroke-dasharray:none;fill:none;fill-opacity:1;fill-rule: evenodd"/>
<path id="Shape2DView_nwe0018"  d="M -17.685 -3.82 L -17.685 -7.54 " stroke="#191919" stroke-width="0.35 px" style="stroke-width:0.35;stroke-miterlimit:4;stroke-dasharray:none;fill:none;fill-opacity:1;fill-rule: evenodd"/>
<path id="Shape2DView_nwe0019"  d="M -3.835 -3.82 L -3.835 -7.54 " stroke="#191919" stroke-width="0.35 px" style="stroke-width:0.35;stroke-miterlimit:4;stroke-dasharray:none;fill:none;fill-opacity:1;fill-rule: evenodd"/>
<path id="Shape2DView_nwe0020"  d="M -6.605 -3.82 L -6.605 -7.54 " stroke="#191919" stroke-width="0.35 px" style="stroke-width:0.35;stroke-miterlimit:4;stroke-dasharray:none;fill:none;fill-opacity:1;fill-rule: evenodd"/>
<path id="Shape2DView_nwe0021"  d="M -12.145 -3.82 L -12.145 -7.54 " stroke="#191919" stroke-width="0.35 px" style="stroke-width:0.35;stroke-miterlimit:4;stroke-dasharray:none;fill:none;fill-opacity:1;fill-rule: evenodd"/>
<path id="Shape2DView_nwe0022"  d="M -9.375 -3.82 L -9.375 -7.54 " stroke="#191919" stroke-width="0.35 px" style="stroke-width:0.35;stroke-miterlimit:4;stroke-dasharray:none;fill:none;fill-opacity:1;fill-rule: evenodd"/>
<path id="Shape2DView_nwe0023"  d="M 0.32 -1.28 L 0.32 -7.54 " stroke="#191919" stroke-width="0.35 px" style="stroke-width:0.35;stroke-miterlimit:4;stroke-dasharray:none;fill:none;fill-opacity:1;fill-rule: evenodd"/>
<path id="Shape2DView_nwe0024"  d="M -1.065 -3.82 L -1.065 -7.54 " stroke="#191919" stroke-width="0.35 px" style="stroke-width:0.35;stroke-miterlimit:4;stroke-dasharray:none;fill:none;fill-opacity:1;fill-rule: evenodd"/>
<path id="Shape2DView_nwe0025"  d="M -27.38 -1.28 L -27.38 -7.54 " stroke="#191919" stroke-width="0.35 px" style="stroke-width:0.35;stroke-miterlimit:4;stroke-dasharray:none;fill:none;fill-opacity:1;fill-rule: evenodd"/>
<path id="Shape2DView_nwe0026"  d="M -24.61 -1.28 L -24.61 -7.54 " stroke="#191919" stroke-width="0.35 px" style="stroke-width:0.35;stroke-miterlimit:4;stroke-dasharray:none;fill:none;fill-opacity:1;fill-rule: evenodd"/>
<path id="Shape2DView_nwe0027"  d="M -25.995 -3.82 L -25.995 -7.54 " stroke="#191919" stroke-width="0.35 px" style="stroke-width:0.35;stroke-miterlimit:4;stroke-dasharray:none;fill:none;fill-opacity:1;fill-rule: evenodd"/>
<path id="Shape2DView_nwe0028"  d="M -30.15 -1.28 L -30.15 -7.54 " stroke="#191919" stroke-width="0.35 px" style="stroke-width:0.35;stroke-miterlimit:4;stroke-dasharray:none;fill:none;fill-opacity:1;fill-rule: evenodd"/>
<path id="Shape2DView_nwe0029"  d="M -28.765 -3.82 L -28.765 -7.54 " stroke="#191919" stroke-width="0.35 px" style="stroke-width:0.35;stroke-miterlimit:4;stroke-dasharray:none;fill:none;fill-opacity:1;fill-rule: evenodd"/>
<path id="Shape2DView_nwe0030"  d="M -31.535 -3.82 L -31.535 -7.54 " stroke="#191919" stroke-width="0.35 px" style="stroke-width:0.35;stroke-miterlimit:4;stroke-dasharray:none;fill:none;fill-opacity:1;fill-rule: evenodd"/>
<path id="Shape2DView_nwe0031"  d="M -36.17 -7.84 L 2.9299999999999997 -7.84 " stroke="#191919" stroke-width="0.35 px" style="stroke-width:0.35;stroke-miterlimit:4;stroke-dasharray:none;fill:none;fill-opacity:1;fill-rule: evenodd"/>
<path id="Shape2DView_nwe0032"  d="M -2.45 0.0 L -2.45 -0.008048371336649485 L -2.45 -0.032092272407265865 L -2.45 -0.07182933720528961 L -2.45 -0.12675984908490356 L -2.45 -0.19619302498779634 L -2.45 -0.2792557024409219 L -2.45 -0.37490332008121907 L -2.45 -0.48193305362082106 L -2.45 -0.5989989420603692 L -2.45 -0.7246288139295255 L -2.45 -0.857242800697386 L -2.45 -0.9951732045359175 L -2.45 -1.1366854705877658 L -2.45 -1.28 " stroke="#191919" stroke-width="0.35 px" style="stroke-width:0.35;stroke-miterlimit:4;stroke-dasharray:none;fill:none;fill-opacity:1;fill-rule: evenodd"/>
<path id="Shape2DView_nwe0033"  d="M -2.45 0.0 A 0.32 0.32 0 0 1 -3.09 3.91887e-17" stroke="#191919" stroke-width="0.35 px" style="stroke-width:0.35;stroke-miterlimit:4;stroke-dasharray:none;fill:none;fill-opacity:1;fill-rule: evenodd"/>
<path id="Shape2DView_nwe0034"  d="M -5.22 0.0 L -5.22 -0.008048371336649485 L -5.22 -0.032092272407265865 L -5.22 -0.07182933720528961 L -5.22 -0.12675984908490356 L -5.22 -0.19619302498779634 L -5.22 -0.2792557024409219 L -5.22 -0.37490332008121907 L -5.22 -0.48193305362082106 L -5.22 -0.5989989420603692 L -5.22 -0.7246288139295255 L -5.22 -0.857242800697386 L -5.22 -0.9951732045359175 L -5.22 -1.1366854705877658 L -5.22 -1.28 " stroke="#191919" stroke-width="0.35 px" style="stroke-width:0.35;stroke-miterlimit:4;stroke-dasharray:none;fill:none;fill-opacity:1;fill-rule: evenodd"/>
<path id="Shape2DView_nwe0035"  d="M -5.22 0.0 A 0.32 0.32 0 0 1 -5.86 3.91887e-17" stroke="#191919" stroke-width="0.35 px" style="stroke-width:0.35;stroke-miterlimit:4;stroke-dasharray:none;fill:none;fill-opacity:1;fill-rule: evenodd"/>
<path id="Shape2DView_nwe0036"  d="M -7.99 0.0 L -7.99 -0.008048371336649485 L -7.99 -0.032092272407265865 L -7.99 -0.07182933720528961 L -7.99 -0.12675984908490356 L -7.99 -0.19619302498779634 L -7.99 -0.2792557024409219 L -7.99 -0.37490332008121907 L -7.99 -0.48193305362082106 L -7.99 -0.5989989420603692 L -7.99 -0.7246288139295255 L -7.99 -0.857242800697386 L -7.99 -0.9951732045359175 L -7.99 -1.1366854705877658 L -7.99 -1.28 " stroke="#191919" stroke-width="0.35 px" style="stroke-width:0.35;stroke-miterlimit:4;stroke-dasharray:none;fill:none;fill-opacity:1;fill-rule: evenodd"/>
<path id="Shape2DView_nwe0037"  d="M -7.99 0.0 A 0.32 0.32 0 0 1 -8.63 3.91887e-17" stroke="#191919" stroke-width="0.35 px" style="stroke-width:0.35;stroke-miterlimit:4;stroke-dasharray:none;fill:none;fill-opacity:1;fill-rule: evenodd"/>
<path id="Shape2DView_nwe0038"  d="M -16.3 0.0 L -16.3 -0.008048371336649485 L -16.3 -0.032092272407265865 L -16.3 -0.07182933720528961 L -16.3 -0.12675984908490356 L -16.3 -0.19619302498779634 L -16.3 -0.2792557024409219 L -16.3 -0.37490332008121907 L -16.3 -0.48193305362082106 L -16.3 -0.5989989420603692 L -16.3 -0.7246288139295255 L -16.3 -0.857242800697386 L -16.3 -0.9951732045359175 L -16.3 -1.1366854705877658 L -16.3 -1.28 " stroke="#191919" stroke-width="0.35 px" style="stroke-width:0.35;stroke-miterlimit:4;stroke-dasharray:none;fill:none;fill-opacity:1;fill-rule: evenodd"/>
<path id="Shape2DView_nwe0039"  d="M -16.3 0.0 A 0.32 0.32 0 0 1 -16.94 3.91887e-17" stroke="#191919" stroke-width="0.35 px" style="stroke-width:0.35;stroke-miterlimit:4;stroke-dasharray:none;fill:none;fill-opacity:1;fill-rule: evenodd"/>
<path id="Shape2DView_nwe0040"  d="M -13.53 0.0 L -13.53 -0.008048371336649485 L -13.53 -0.032092272407265865 L -13.53 -0.07182933720528961 L -13.53 -0.12675984908490356 L -13.53 -0.19619302498779634 L -13.53 -0.2792557024409219 L -13.53 -0.37490332008121907 L -13.53 -0.48193305362082106 L -13.53 -0.5989989420603692 L -13.53 -0.7246288139295255 L -13.53 -0.857242800697386 L -13.53 -0.9951732045359175 L -13.53 -1.1366854705877658 L -13.53 -1.28 " stroke="#191919" stroke-width="0.35 px" style="stroke-width:0.35;stroke-miterlimit:4;stroke-dasharray:none;fill:none;fill-opacity:1;fill-rule: evenodd"/>
<path id="Shape2DView_nwe0041"  d="M -13.53 0.0 A 0.32 0.32 0 0 1 -14.17 3.91887e-17" stroke="#191919" stroke-width="0.35 px" style="stroke-width:0.35;stroke-miterlimit:4;stroke-dasharray:none;fill:none;fill-opacity:1;fill-rule: evenodd"/>
<path id="Shape2DView_nwe0042"  d="M -10.76 0.0 L -10.76 -0.008048371336649485 L -10.76 -0.032092272407265865 L -10.76 -0.07182933720528961 L -10.76 -0.12675984908490356 L -10.76 -0.19619302498779634 L -10.76 -0.2792557024409219 L -10.76 -0.37490332008121907 L -10.76 -0.48193305362082106 L -10.76 -0.5989989420603692 L -10.76 -0.7246288139295255 L -10.76 -0.857242800697386 L -10.76 -0.9951732045359175 L -10.76 -1.1366854705877658 L -10.76 -1.28 " stroke="#191919" stroke-width="0.35 px" style="stroke-width:0.35;stroke-miterlimit:4;stroke-dasharray:none;fill:none;fill-opacity:1;fill-rule: evenodd"/>
<path id="Shape2DView_nwe0043"  d="M -10.76 0.0 A 0.32 0.32 0 0 1 -11.4 3.91887e-17" stroke="#191919" stroke-width="0.35 px" style="stroke-width:0.35;stroke-miterlimit:4;stroke-dasharray:none;fill:none;fill-opacity:1;fill-rule: evenodd"/>
<path id="Shape2DView_nwe0044"  d="M -21.84 0.0 L -21.84 -0.008048371336649485 L -21.84 -0.032092272407265865 L -21.84 -0.07182933720528961 L -21.84 -0.12675984908490356 L -21.84 -0.19619302498779634 L -21.84 -0.2792557024409219 L -21.84 -0.37490332008121907 L -21.84 -0.48193305362082106 L -21.84 -0.5989989420603692 L -21.84 -0.7246288139295255 L -21.84 -0.857242800697386 L -21.84 -0.9951732045359175 L -21.84 -1.1366854705877658 L -21.84 -1.28 " stroke="#191919" stroke-width="0.35 px" style="stroke-width:0.35;stroke-miterlimit:4;stroke-dasharray:none;fill:none;fill-opacity:1;fill-rule: evenodd"/>
<path id="Shape2DView_nwe0045"  d="M -21.84 0.0 A 0.32 0.32 0 0 1 -22.48 3.91887e-17" stroke="#191919" stroke-width="0.35 px" style="stroke-width:0.35;stroke-miterlimit:4;stroke-dasharray:none;fill:none;fill-opacity:1;fill-rule: evenodd"/>
<path id="Shape2DView_nwe0046"  d="M -19.07 0.0 L -19.07 -0.008048371336649485 L -19.07 -0.032092272407265865 L -19.07 -0.07182933720528961 L -19.07 -0.12675984908490356 L -19.07 -0.19619302498779634 L -19.07 -0.2792557024409219 L -19.07 -0.37490332008121907 L -19.07 -0.48193305362082106 L -19.07 -0.5989989420603692 L -19.07 -0.7246288139295255 L -19.07 -0.857242800697386 L -19.07 -0.9951732045359175 L -19.07 -1.1366854705877658 L -19.07 -1.28 " stroke="#191919" stroke-width="0.35 px" style="stroke-width:0.35;stroke-miterlimit:4;stroke-dasharray:none;fill:none;fill-opacity:1;fill-rule: evenodd"/>
<path id="Shape2DView_nwe0047"  d="M -19.07 0.0 A 0.32 0.32 0 0 1 -19.71 3.91887e-17" stroke="#191919" stroke-width="0.35 px" style="stroke-width:0.35;stroke-miterlimit:4;stroke-dasharray:none;fill:none;fill-opacity:1;fill-rule: evenodd"/>
<path id="Shape2DView_nwe0048"  d="M -23.225 -2.54 L -23.225 -2.548048371336649 L -23.225 -2.5720922724072657 L -23.225 -2.6118293372052896 L -23.225 -2.6667598490849036 L -23.225 -2.736193024987796 L -23.225 -2.8192557024409215 L -23.225 -2.914903320081219 L -23.225 -3.0219330536208213 L -23.225 -3.1389989420603692 L -23.225 -3.2646288139295256 L -23.225 -3.397242800697386 L -23.225 -3.5351732045359174 L -23.225 -3.676685470587766 L -23.225 -3.82 " stroke="#191919" stroke-width="0.35 px" style="stroke-width:0.35;stroke-miterlimit:4;stroke-dasharray:none;fill:none;fill-opacity:1;fill-rule: evenodd"/>
<path id="Shape2DView_nwe0049"  d="M -23.225 -2.54 A 0.32 0.32 0 1 1 -23.865 -2.54" stroke="#191919" stroke-width="0.35 px" style="stroke-width:0.35;stroke-miterlimit:4;stroke-dasharray:none;fill:none;fill-opacity:1;fill-rule: evenodd"/>
<path id="Shape2DView_nwe0050"  d="M -20.455 -2.54 L -20.455 -2.548048371336649 L -20.455 -2.5720922724072657 L -20.455 -2.6118293372052896 L -20.455 -2.6667598490849036 L -20.455 -2.736193024987796 L -20.455 -2.8192557024409215 L -20.455 -2.914903320081219 L -20.455 -3.0219330536208213 L -20.455 -3.1389989420603692 L -20.455 -3.2646288139295256 L -20.455 -3.397242800697386 L -20.455 -3.5351732045359174 L -20.455 -3.676685470587766 L -20.455 -3.82 " stroke="#191919" stroke-width="0.35 px" style="stroke-width:0.35;stroke-miterlimit:4;stroke-dasharray:none;fill:none;fill-opacity:1;fill-rule: evenodd"/>
<path id="Shape2DView_nwe0051"  d="M -20.455 -2.54 A 0.32 0.32 0 1 1 -21.095 -2.54" stroke="#191919" stroke-width="0.35 px" style="stroke-width:0.35;stroke-miterlimit:4;stroke-dasharray:none;fill:none;fill-opacity:1;fill-rule: evenodd"/>
<path id="Shape2DView_nwe0052"  d="M -14.915 -2.54 L -14.915 -2.548048371336649 L -14.915 -2.5720922724072657 L -14.915 -2.6118293372052896 L -14.915 -2.6667598490849036 L -14.915 -2.736193024987796 L -14.915 -2.8192557024409215 L -14.915 -2.914903320081219 L -14.915 -3.0219330536208213 L -14.915 -3.1389989420603692 L -14.915 -3.2646288139295256 L -14.915 -3.397242800697386 L -14.915 -3.5351732045359174 L -14.915 -3.676685470587766 L -14.915 -3.82 " stroke="#191919" stroke-width="0.35 px" style="stroke-width:0.35;stroke-miterlimit:4;stroke-dasharray:none;fill:none;fill-opacity:1;fill-rule: evenodd"/>
<path id="Shape2DView_nwe0053"  d="M -14.915 -2.54 A 0.32 0.32 0 1 1 -15.555 -2.54" stroke="#191919" stroke-width="0.35 px" style="stroke-width:0.35;stroke-miterlimit:4;stroke-dasharray:none;fill:none;fill-opacity:1;fill-rule: evenodd"/>
<path id="Shape2DView_nwe0054"  d="M -17.685 -2.54 L -17.685 -2.548048371336649 L -17.685 -2.5720922724072657 L -17.685 -2.6118293372052896 L -17.685 -2.6667598490849036 L -17.685 -2.736193024987796 L -17.685 -2.8192557024409215 L -17.685 -2.914903320081219 L -17.685 -3.0219330536208213 L -17.685 -3.1389989420603692 L -17.685 -3.2646288139295256 L -17.685 -3.397242800697386 L -17.685 -3.5351732045359174 L -17.685 -3.676685470587766 L -17.685 -3.82 " stroke="#191919" stroke-width="0.35 px" style="stroke-width:0.35;stroke-miterlimit:4;stroke-dasharray:none;fill:none;fill-opacity:1;fill-rule: evenodd"/>
<path id="Shape2DView_nwe0055"  d="M -17.685 -2.54 A 0.32 0.32 0 1 1 -18.325 -2.54" stroke="#191919" stroke-width="0.35 px" style="stroke-width:0.35;stroke-miterlimit:4;stroke-dasharray:none;fill:none;fill-opacity:1;fill-rule: evenodd"/>
<path id="Shape2DView_nwe0056"  d="M -3.835 -2.54 L -3.835 -2.548048371336649 L -3.835 -2.5720922724072657 L -3.835 -2.6118293372052896 L -3.835 -2.6667598490849036 L -3.835 -2.736193024987796 L -3.835 -2.8192557024409215 L -3.835 -2.914903320081219 L -3.835 -3.0219330536208213 L -3.835 -3.1389989420603692 L -3.835 -3.2646288139295256 L -3.835 -3.397242800697386 L -3.835 -3.5351732045359174 L -3.835 -3.676685470587766 L -3.835 -3.82 " stroke="#191919" stroke-width="0.35 px" style="stroke-width:0.35;stroke-miterlimit:4;stroke-dasharray:none;fill:none;fill-opacity:1;fill-rule: evenodd"/>
<path id="Shape2DView_nwe0057"  d="M -3.8350000000000004 -2.54 A 0.32 0.32 0 1 1 -4.475 -2.54" stroke="#191919" stroke-width="0.35 px" style="stroke-width:0.35;stroke-miterlimit:4;stroke-dasharray:none;fill:none;fill-opacity:1;fill-rule: evenodd"/>
<path id="Shape2DView_nwe0058"  d="M -6.605 -2.54 L -6.605 -2.548048371336649 L -6.605 -2.5720922724072657 L -6.605 -2.6118293372052896 L -6.605 -2.6667598490849036 L -6.605 -2.736193024987796 L -6.605 -2.8192557024409215 L -6.605 -2.914903320081219 L -6.605 -3.0219330536208213 L -6.605 -3.1389989420603692 L -6.605 -3.2646288139295256 L -6.605 -3.397242800697386 L -6.605 -3.5351732045359174 L -6.605 -3.676685470587766 L -6.605 -3.82 " stroke="#191919" stroke-width="0.35 px" style="stroke-width:0.35;stroke-miterlimit:4;stroke-dasharray:none;fill:none;fill-opacity:1;fill-rule: evenodd"/>
<path id="Shape2DView_nwe0059"  d="M -6.6049999999999995 -2.54 A 0.32 0.32 0 1 1 -7.245 -2.54" stroke="#191919" stroke-width="0.35 px" style="stroke-width:0.35;stroke-miterlimit:4;stroke-dasharray:none;fill:none;fill-opacity:1;fill-rule: evenodd"/>
<path id="Shape2DView_nwe0060"  d="M -12.145 -2.54 L -12.145 -2.548048371336649 L -12.145 -2.5720922724072657 L -12.145 -2.6118293372052896 L -12.145 -2.6667598490849036 L -12.145 -2.736193024987796 L -12.145 -2.8192557024409215 L -12.145 -2.914903320081219 L -12.145 -3.0219330536208213 L -12.145 -3.1389989420603692 L -12.145 -3.2646288139295256 L -12.145 -3.397242800697386 L -12.145 -3.5351732045359174 L -12.145 -3.676685470587766 L -12.145 -3.82 " stroke="#191919" stroke-width="0.35 px" style="stroke-width:0.35;stroke-miterlimit:4;stroke-dasharray:none;fill:none;fill-opacity:1;fill-rule: evenodd"/>
<path id="Shape2DView_nwe0061"  d="M -12.145 -2.54 A 0.32 0.32 0 1 1 -12.785 -2.54" stroke="#191919" stroke-width="0.35 px" style="stroke-width:0.35;stroke-miterlimit:4;stroke-dasharray:none;fill:none;fill-opacity:1;fill-rule: evenodd"/>
<path id="Shape2DView_nwe0062"  d="M -9.375 -2.54 L -9.375 -2.548048371336649 L -9.375 -2.5720922724072657 L -9.375 -2.6118293372052896 L -9.375 -2.6667598490849036 L -9.375 -2.736193024987796 L -9.375 -2.8192557024409215 L -9.375 -2.914903320081219 L -9.375 -3.0219330536208213 L -9.375 -3.1389989420603692 L -9.375 -3.2646288139295256 L -9.375 -3.397242800697386 L -9.375 -3.5351732045359174 L -9.375 -3.676685470587766 L -9.375 -3.82 " stroke="#191919" stroke-width="0.35 px" style="stroke-width:0.35;stroke-miterlimit:4;stroke-dasharray:none;fill:none;fill-opacity:1;fill-rule: evenodd"/>
<path id="Shape2DView_nwe0063"  d="M -9.375 -2.54 A 0.32 0.32 0 1 1 -10.015 -2.54" stroke="#191919" stroke-width="0.35 px" style="stroke-width:0.35;stroke-miterlimit:4;stroke-dasharray:none;fill:none;fill-opacity:1;fill-rule: evenodd"/>
<path id="Shape2DView_nwe0064"  d="M 0.32 0.0 L 0.32 -0.008048371336649485 L 0.32 -0.032092272407265865 L 0.32 -0.07182933720528961 L 0.32 -0.12675984908490356 L 0.32 -0.19619302498779634 L 0.32 -0.2792557024409219 L 0.32 -0.37490332008121907 L 0.32 -0.48193305362082106 L 0.32 -0.5989989420603692 L 0.32 -0.7246288139295255 L 0.32 -0.857242800697386 L 0.32 -0.9951732045359175 L 0.32 -1.1366854705877658 L 0.32 -1.28 " stroke="#191919" stroke-width="0.35 px" style="stroke-width:0.35;stroke-miterlimit:4;stroke-dasharray:none;fill:none;fill-opacity:1;fill-rule: evenodd"/>
<path id="Shape2DView_nwe0065"  d="M 0.32 0.0 A 0.32 0.32 0 0 1 -0.32 3.91887e-17" stroke="#191919" stroke-width="0.35 px" style="stroke-width:0.35;stroke-miterlimit:4;stroke-dasharray:none;fill:none;fill-opacity:1;fill-rule: evenodd"/>
<path id="Shape2DView_nwe0066"  d="M -1.065 -2.54 L -1.065 -2.548048371336649 L -1.065 -2.5720922724072657 L -1.065 -2.6118293372052896 L -1.065 -2.6667598490849036 L -1.065 -2.736193024987796 L -1.065 -2.8192557024409215 L -1.065 -2.914903320081219 L -1.065 -3.0219330536208213 L -1.065 -3.1389989420603692 L -1.065 -3.2646288139295256 L -1.065 -3.397242800697386 L -1.065 -3.5351732045359174 L -1.065 -3.676685470587766 L -1.065 -3.82 " stroke="#191919" stroke-width="0.35 px" style="stroke-width:0.35;stroke-miterlimit:4;stroke-dasharray:none;fill:none;fill-opacity:1;fill-rule: evenodd"/>
<path id="Shape2DView_nwe0067"  d="M -1.065 -2.54 A 0.32 0.32 0 1 1 -1.705 -2.54" stroke="#191919" stroke-width="0.35 px" style="stroke-width:0.35;stroke-miterlimit:4;stroke-dasharray:none;fill:none;fill-opacity:1;fill-rule: evenodd"/>
<path id="Shape2DView_nwe0068"  d="M -27.38 0.0 L -27.38 -0.008048371336649485 L -27.38 -0.032092272407265865 L -27.38 -0.07182933720528961 L -27.38 -0.12675984908490356 L -27.38 -0.19619302498779634 L -27.38 -0.2792557024409219 L -27.38 -0.37490332008121907 L -27.38 -0.48193305362082106 L -27.38 -0.5989989420603692 L -27.38 -0.7246288139295255 L -27.38 -0.857242800697386 L -27.38 -0.9951732045359175 L -27.38 -1.1366854705877658 L -27.38 -1.28 " stroke="#191919" stroke-width="0.35 px" style="stroke-width:0.35;stroke-miterlimit:4;stroke-dasharray:none;fill:none;fill-opacity:1;fill-rule: evenodd"/>
<path id="Shape2DView_nwe0069"  d="M -27.38 0.0 A 0.32 0.32 0 0 1 -28.02 3.91887e-17" stroke="#191919" stroke-width="0.35 px" style="stroke-width:0.35;stroke-miterlimit:4;stroke-dasharray:none;fill:none;fill-opacity:1;fill-rule: evenodd"/>
<path id="Shape2DView_nwe0070"  d="M -24.61 0.0 L -24.61 -0.008048371336649485 L -24.61 -0.032092272407265865 L -24.61 -0.07182933720528961 L -24.61 -0.12675984908490356 L -24.61 -0.19619302498779634 L -24.61 -0.2792557024409219 L -24.61 -0.37490332008121907 L -24.61 -0.48193305362082106 L -24.61 -0.5989989420603692 L -24.61 -0.7246288139295255 L -24.61 -0.857242800697386 L -24.61 -0.9951732045359175 L -24.61 -1.1366854705877658 L -24.61 -1.28 " stroke="#191919" stroke-width="0.35 px" style="stroke-width:0.35;stroke-miterlimit:4;stroke-dasharray:none;fill:none;fill-opacity:1;fill-rule: evenodd"/>
<path id="Shape2DView_nwe0071"  d="M -24.61 0.0 A 0.32 0.32 0 0 1 -25.25 3.91887e-17" stroke="#191919" stroke-width="0.35 px" style="stroke-width:0.35;stroke-miterlimit:4;stroke-dasharray:none;fill:none;fill-opacity:1;fill-rule: evenodd"/>
<path id="Shape2DView_nwe0072"  d="M -25.995 -2.54 L -25.995 -2.548048371336649 L -25.995 -2.5720922724072657 L -25.995 -2.6118293372052896 L -25.995 -2.6667598490849036 L -25.995 -2.736193024987796 L -25.995 -2.8192557024409215 L -25.995 -2.914903320081219 L -25.995 -3.0219330536208213 L -25.995 -3.1389989420603692 L -25.995 -3.2646288139295256 L -25.995 -3.397242800697386 L -25.995 -3.5351732045359174 L -25.995 -3.676685470587766 L -25.995 -3.82 " stroke="#191919" stroke-width="0.35 px" style="stroke-width:0.35;stroke-miterlimit:4;stroke-dasharray:none;fill:none;fill-opacity:1;fill-rule: evenodd"/>
<path id="Shape2DView_nwe0073"  d="M -25.995 -2.54 A 0.32 0.32 0 1 1 -26.635 -2.54" stroke="#191919" stroke-width="0.35 px" style="stroke-width:0.35;stroke-miterlimit:4;stroke-dasharray:none;fill:none;fill-opacity:1;fill-rule: evenodd"/>
<path id="Shape2DView_nwe0074"  d="M -30.15 0.0 L -30.15 -0.008048371336649485 L -30.15 -0.032092272407265865 L -30.15 -0.07182933720528961 L -30.15 -0.12675984908490356 L -30.15 -0.19619302498779634 L -30.15 -0.2792557024409219 L -30.15 -0.37490332008121907 L -30.15 -0.48193305362082106 L -30.15 -0.5989989420603692 L -30.15 -0.7246288139295255 L -30.15 -0.857242800697386 L -30.15 -0.9951732045359175 L -30.15 -1.1366854705877658 L -30.15 -1.28 " stroke="#191919" stroke-width="0.35 px" style="stroke-width:0.35;stroke-miterlimit:4;stroke-dasharray:none;fill:none;fill-opacity:1;fill-rule: evenodd"/>
<path id="Shape2DView_nwe0075"  d="M -30.15 0.0 A 0.32 0.32 0 0 1 -30.79 3.91887e-17" stroke="#191919" stroke-width="0.35 px" style="stroke-width:0.35;stroke-miterlimit:4;stroke-dasharray:none;fill:none;fill-opacity:1;fill-rule: evenodd"/>
<path id="Shape2DView_nwe0076"  d="M -28.765 -2.54 L -28.765 -2.548048371336649 L -28.765 -2.5720922724072657 L -28.765 -2.6118293372052896 L -28.765 -2.6667598490849036 L -28.765 -2.736193024987796 L -28.765 -2.8192557024409215 L -28.765 -2.914903320081219 L -28.765 -3.0219330536208213 L -28.765 -3.1389989420603692 L -28.765 -3.2646288139295256 L -28.765 -3.397242800697386 L -28.765 -3.5351732045359174 L -28.765 -3.676685470587766 L -28.765 -3.82 " stroke="#191919" stroke-width="0.35 px" style="stroke-width:0.35;stroke-miterlimit:4;stroke-dasharray:none;fill:none;fill-opacity:1;fill-rule: evenodd"/>
<path id="Shape2DView_nwe0077"  d="M -28.765 -2.54 A 0.32 0.32 0 1 1 -29.405 -2.54" stroke="#191919" stroke-width="0.35 px" style="stroke-width:0.35;stroke-miterlimit:4;stroke-dasharray:none;fill:none;fill-opacity:1;fill-rule: evenodd"/>
<path id="Shape2DView_nwe0078"  d="M -31.535 -2.54 L -31.535 -2.548048371336649 L -31.535 -2.5720922724072657 L -31.535 -2.6118293372052896 L -31.535 -2.6667598490849036 L -31.535 -2.736193024987796 L -31.535 -2.8192557024409215 L -31.535 -2.914903320081219 L -31.535 -3.0219330536208213 L -31.535 -3.1389989420603692 L -31.535 -3.2646288139295256 L -31.535 -3.397242800697386 L -31.535 -3.5351732045359174 L -31.535 -3.676685470587766 L -31.535 -3.82 " stroke="#191919" stroke-width="0.35 px" style="stroke-width:0.35;stroke-miterlimit:4;stroke-dasharray:none;fill:none;fill-opacity:1;fill-rule: evenodd"/>
<path id="Shape2DView_nwe0079"  d="M -31.535 -2.54 A 0.32 0.32 0 1 1 -32.175 -2.54" stroke="#191919" stroke-width="0.35 px" style="stroke-width:0.35;stroke-miterlimit:4;stroke-dasharray:none;fill:none;fill-opacity:1;fill-rule: evenodd"/>
<path id="Shape2DView_nwe0080"  d="M 2.93 -7.84 A 1 1 0 0 0 3.93 -8.84" stroke="#191919" stroke-width="0.35 px" style="stroke-width:0.35;stroke-miterlimit:4;stroke-dasharray:none;fill:none;fill-opacity:1;fill-rule: evenodd"/>
<path id="Shape2DView_nwe0081"  d="M 3.93 -8.84 L 3.93 -11.84 " stroke="#191919" stroke-width="0.35 px" style="stroke-width:0.35;stroke-miterlimit:4;stroke-dasharray:none;fill:none;fill-opacity:1;fill-rule: evenodd"/>
<path id="Shape2DView_nwe0082"  d="M -36.17 -7.84 A 1 1 0 0 1 -37.17 -8.84" stroke="#191919" stroke-width="0.35 px" style="stroke-width:0.35;stroke-miterlimit:4;stroke-dasharray:none;fill:none;fill-opacity:1;fill-rule: evenodd"/>
<path id="Shape2DView_nwe0083"  d="M -37.17 -8.84 L -37.17 -11.84 " stroke="#191919" stroke-width="0.35 px" style="stroke-width:0.35;stroke-miterlimit:4;stroke-dasharray:none;fill:none;fill-opacity:1;fill-rule: evenodd"/>
<circle cx="-2.77" cy="2.850275026918e-33" r="0.32" stroke="#191919" stroke-width="0.35 px" style="stroke-width:0.35;stroke-miterlimit:4;stroke-dasharray:none;fill:none"/>
<circle cx="-5.54" cy="2.850275026918e-33" r="0.32" stroke="#191919" stroke-width="0.35 px" style="stroke-width:0.35;stroke-miterlimit:4;stroke-dasharray:none;fill:none"/>
<circle cx="-8.31" cy="2.850275026918e-33" r="0.32" stroke="#191919" stroke-width="0.35 px" style="stroke-width:0.35;stroke-miterlimit:4;stroke-dasharray:none;fill:none"/>
<circle cx="-16.62" cy="2.850275026918e-33" r="0.32" stroke="#191919" stroke-width="0.35 px" style="stroke-width:0.35;stroke-miterlimit:4;stroke-dasharray:none;fill:none"/>
<circle cx="-13.85" cy="2.850275026918e-33" r="0.32" stroke="#191919" stroke-width="0.35 px" style="stroke-width:0.35;stroke-miterlimit:4;stroke-dasharray:none;fill:none"/>
<circle cx="-11.08" cy="2.850275026918e-33" r="0.32" stroke="#191919" stroke-width="0.35 px" style="stroke-width:0.35;stroke-miterlimit:4;stroke-dasharray:none;fill:none"/>
<circle cx="-22.16" cy="2.850275026918e-33" r="0.32" stroke="#191919" stroke-width="0.35 px" style="stroke-width:0.35;stroke-miterlimit:4;stroke-dasharray:none;fill:none"/>
<circle cx="-19.39" cy="2.850275026918e-33" r="0.32" stroke="#191919" stroke-width="0.35 px" style="stroke-width:0.35;stroke-miterlimit:4;stroke-dasharray:none;fill:none"/>
<circle cx="-23.545" cy="-2.54" r="0.32" stroke="#191919" stroke-width="0.35 px" style="stroke-width:0.35;stroke-miterlimit:4;stroke-dasharray:none;fill:none"/>
<circle cx="-20.775" cy="-2.54" r="0.32" stroke="#191919" stroke-width="0.35 px" style="stroke-width:0.35;stroke-miterlimit:4;stroke-dasharray:none;fill:none"/>
<circle cx="-15.235" cy="-2.54" r="0.32" stroke="#191919" stroke-width="0.35 px" style="stroke-width:0.35;stroke-miterlimit:4;stroke-dasharray:none;fill:none"/>
<circle cx="-18.005" cy="-2.54" r="0.32" stroke="#191919" stroke-width="0.35 px" style="stroke-width:0.35;stroke-miterlimit:4;stroke-dasharray:none;fill:none"/>
<circle cx="-4.155" cy="-2.54" r="0.32" stroke="#191919" stroke-width="0.35 px" style="stroke-width:0.35;stroke-miterlimit:4;stroke-dasharray:none;fill:none"/>
<circle cx="-6.925" cy="-2.54" r="0.32" stroke="#191919" stroke-width="0.35 px" style="stroke-width:0.35;stroke-miterlimit:4;stroke-dasharray:none;fill:none"/>
<circle cx="-12.465" cy="-2.54" r="0.32" stroke="#191919" stroke-width="0.35 px" style="stroke-width:0.35;stroke-miterlimit:4;stroke-dasharray:none;fill:none"/>
<circle cx="-9.695" cy="-2.54" r="0.32" stroke="#191919" stroke-width="0.35 px" style="stroke-width:0.35;stroke-miterlimit:4;stroke-dasharray:none;fill:none"/>
<circle cx="-6.568586551523e-49" cy="2.850275026918e-33" r="0.32" stroke="#191919" stroke-width="0.35 px" style="stroke-width:0.35;stroke-miterlimit:4;stroke-dasharray:none;fill:none"/>
<circle cx="-1.385" cy="-2.54" r="0.32" stroke="#191919" stroke-width="0.35 px" style="stroke-width:0.35;stroke-miterlimit:4;stroke-dasharray:none;fill:none"/>
<circle cx="-27.7" cy="2.850275026918e-33" r="0.32" stroke="#191919" stroke-width="0.35 px" style="stroke-width:0.35;stroke-miterlimit:4;stroke-dasharray:none;fill:none"/>
<circle cx="-24.93" cy="2.850275026918e-33" r="0.32" stroke="#191919" stroke-width="0.35 px" style="stroke-width:0.35;stroke-miterlimit:4;stroke-dasharray:none;fill:none"/>
<circle cx="-26.315" cy="-2.54" r="0.32" stroke="#191919" stroke-width="0.35 px" style="stroke-width:0.35;stroke-miterlimit:4;stroke-dasharray:none;fill:none"/>
<circle cx="-30.47" cy="2.850275026918e-33" r="0.32" stroke="#191919" stroke-width="0.35 px" style="stroke-width:0.35;stroke-miterlimit:4;stroke-dasharray:none;fill:none"/>
<circle cx="-29.085" cy="-2.54" r="0.32" stroke="#191919" stroke-width="0.35 px" style="stroke-width:0.35;stroke-miterlimit:4;stroke-dasharray:none;fill:none"/>
<path id="Shape2DView_nwe0108"  d="M -42.17 -11.84 L -42.27076802849298 -11.84 L -42.37026884056068 -11.84 L -42.467251155759655 -11.84 L -42.5604953652058 -11.84 L -42.6488288688638 -11.84 L -42.73114082167286 -11.84 L -42.8063961030679 -11.84 L -42.87364833422123 -11.84 L -42.93205177930546 -11.84 L -42.98087198111218 -11.84 L -43.01949499727753 -11.84 L -43.04743512096364 -11.84 L -43.06434098890392 -11.84 L -43.07 -11.84 " stroke="#191919" stroke-width="0.35 px" style="stroke-width:0.35;stroke-miterlimit:4;stroke-dasharray:none;fill:none;fill-opacity:1;fill-rule: evenodd"/>
<path id="Shape2DView_nwe0109"  d="M 9.83 -11.84 L 9.824340988903918 -11.84 L 9.80743512096364 -11.84 L 9.779494997277531 -11.84 L 9.740871981112177 -11.84 L 9.692051779305455 -11.84 L 9.633648334221226 -11.84 L 9.566396103067893 -11.84 L 9.49114082167286 -11.84 L 9.408828868863802 -11.84 L 9.320495365205803 -11.84 L 9.22725115575965 -11.84 L 9.130268840560683 -11.84 L 9.030768028492977 -11.84 L 8.93 -11.84 " stroke="#191919" stroke-width="0.35 px" style="stroke-width:0.35;stroke-miterlimit:4;stroke-dasharray:none;fill:none;fill-opacity:1;fill-rule: evenodd"/>
<path id="Shape2DView_nwe0110"  d="M 8.93 -11.84 L -42.17 -11.84 " stroke="#191919" stroke-width="0.35 px" style="stroke-width:0.35;stroke-miterlimit:4;stroke-dasharray:none;fill:none;fill-opacity:1;fill-rule: evenodd"/>
<path id="Shape2DView_nwe0111"  d="M -43.17 -11.94 A 0.1 0.1 0 0 0 -43.07 -11.84" stroke="#191919" stroke-width="0.35 px" style="stroke-width:0.35;stroke-miterlimit:4;stroke-dasharray:none;fill:none;fill-opacity:1;fill-rule: evenodd"/>
<path id="Shape2DView_nwe0112"  d="M 9.93 -11.94 A 0.1 0.1 0 0 1 9.83 -11.84" stroke="#191919" stroke-width="0.35 px" style="stroke-width:0.35;stroke-miterlimit:4;stroke-dasharray:none;fill:none;fill-opacity:1;fill-rule: evenodd"/>
<path id="Shape2DView_nwe0114"  d="M -43.17 -11.94 L -43.17 -12.14 " stroke="#191919" stroke-width="0.35 px" style="stroke-width:0.35;stroke-miterlimit:4;stroke-dasharray:none;fill:none;fill-opacity:1;fill-rule: evenodd"/>
<path id="Shape2DView_nwe0115"  d="M 9.93 -11.94 L 9.93 -12.14 " stroke="#191919" stroke-width="0.35 px" style="stroke-width:0.35;stroke-miterlimit:4;stroke-dasharray:none;fill:none;fill-opacity:1;fill-rule: evenodd"/>
<path id="Shape2DView_nwe0116"  d="M -43.17 -12.14 A 0.1 0.1 0 0 1 -43.07 -12.24" stroke="#191919" stroke-width="0.35 px" style="stroke-width:0.35;stroke-miterlimit:4;stroke-dasharray:none;fill:none;fill-opacity:1;fill-rule: evenodd"/>
<path id="Shape2DView_nwe0117"  d="M -42.17 -12.24 L -42.27076802849298 -12.24 L -42.37026884056068 -12.24 L -42.467251155759655 -12.24 L -42.5604953652058 -12.24 L -42.6488288688638 -12.24 L -42.73114082167286 -12.24 L -42.8063961030679 -12.24 L -42.87364833422123 -12.24 L -42.93205177930546 -12.24 L -42.98087198111218 -12.24 L -43.01949499727753 -12.24 L -43.04743512096364 -12.24 L -43.06434098890392 -12.24 L -43.07 -12.24 " stroke="#191919" stroke-width="0.35 px" style="stroke-width:0.35;stroke-miterlimit:4;stroke-dasharray:none;fill:none;fill-opacity:1;fill-rule: evenodd"/>
<path id="Shape2DView_nwe0118"  d="M 8.93 -12.24 L -42.17 -12.24 " stroke="#191919" stroke-width="0.35 px" style="stroke-width:0.35;stroke-miterlimit:4;stroke-dasharray:none;fill:none;fill-opacity:1;fill-rule: evenodd"/>
<path id="Shape2DView_nwe0119"  d="M 9.93 -12.14 A 0.1 0.1 0 0 0 9.83 -12.24" stroke="#191919" stroke-width="0.35 px" style="stroke-width:0.35;stroke-miterlimit:4;stroke-dasharray:none;fill:none;fill-opacity:1;fill-rule: evenodd"/>
<path id="Shape2DView_nwe0120"  d="M 9.83 -12.24 L 9.824340988903918 -12.24 L 9.80743512096364 -12.24 L 9.779494997277531 -12.24 L 9.740871981112177 -12.24 L 9.692051779305455 -12.24 L 9.633648334221226 -12.24 L 9.566396103067893 -12.24 L 9.49114082167286 -12.24 L 9.408828868863802 -12.24 L 9.320495365205803 -12.24 L 9.22725115575965 -12.24 L 9.130268840560683 -12.24 L 9.030768028492977 -12.24 L 8.93 -12.24 " stroke="#191919" stroke-width="0.35 px" style="stroke-width:0.35;stroke-miterlimit:4;stroke-dasharray:none;fill:none;fill-opacity:1;fill-rule: evenodd"/>
<path id="Shape2DView_nwe0122"  d="M -43.07 -12.24 L -43.06434098890392 -12.24 L -43.04743512096364 -12.24 L -43.01949499727753 -12.24 L -42.98087198111218 -12.24 L -42.93205177930546 -12.24 L -42.87364833422123 -12.24 L -42.8063961030679 -12.24 L -42.73114082167286 -12.24 L -42.6488288688638 -12.24 L -42.5604953652058 -12.24 L -42.467251155759655 -12.24 L -42.37026884056068 -12.24 L -42.27076802849298 -12.24 L -42.17 -12.24 " stroke="#191919" stroke-width="0.35 px" style="stroke-width:0.35;stroke-miterlimit:4;stroke-dasharray:none;fill:none;fill-opacity:1;fill-rule: evenodd"/>
<path id="Shape2DView_nwe0123"  d="M 2.339431920499 -17.99 L 2.3331441303922427 -17.99 L 2.3143598326808235 -17.99 L 2.2833152508073673 -17.99 L 2.2404007884014185 -17.99 L 2.1861561197272836 -17.99 L 2.1212634029670294 -17.99 L 2.046538701685547 -17.99 L 1.962921722357733 -17.99 L 1.8714639970143363 -17.99 L 1.7733156596165576 -17.99 L 1.6697109824541667 -17.99 L 1.5619528544553138 -17.99 L 1.4513963966023073 -17.99 L 1.339431920499 -17.99 " stroke="#191919" stroke-width="0.35 px" style="stroke-width:0.35;stroke-miterlimit:4;stroke-dasharray:none;fill:none;fill-opacity:1;fill-rule: evenodd"/>
<path id="Shape2DView_nwe0124"  d="M -34.57943192049 -17.99 L -34.69139639659331 -17.99 L -34.80195285444632 -17.99 L -34.90971098244517 -17.99 L -35.013315659607564 -17.99 L -35.11146399700534 -17.99 L -35.202921722348734 -17.99 L -35.28653870167655 -17.99 L -35.36126340295803 -17.99 L -35.426156119718286 -17.99 L -35.48040078839242 -17.99 L -35.52331525079837 -17.99 L -35.55435983267183 -17.99 L -35.57314413038324 -17.99 L -35.57943192049 -17.99 " stroke="#191919" stroke-width="0.35 px" style="stroke-width:0.35;stroke-miterlimit:4;stroke-dasharray:none;fill:none;fill-opacity:1;fill-rule: evenodd"/>
<path id="Shape2DView_nwe0125"  d="M 1.339431920499 -17.99 L -34.57943192049 -17.99 " stroke="#191919" stroke-width="0.35 px" style="stroke-width:0.35;stroke-miterlimit:4;stroke-dasharray:none;fill:none;fill-opacity:1;fill-rule: evenodd"/>
<path id="Shape2DView_nwe0126"  d="M 2.289431920499 -18.04 L 2.2834585198975805 -18.04 L 2.2656134370717322 -18.04 L 2.2361210842919492 -18.04 L 2.1953523450062984 -18.04 L 2.1438199097658703 -18.04 L 2.0821718288436286 -18.04 L 2.0111833626262205 -18.04 L 1.931747232264797 -18.04 L 1.8448623931885701 -18.04 L 1.7516214726606805 -18.04 L 1.653197029356409 -18.04 L 1.550826807757499 -18.04 L 1.4457981727971427 -18.04 L 1.339431920499 -18.04 " stroke="#191919" stroke-width="0.35 px" style="stroke-width:0.35;stroke-miterlimit:4;stroke-dasharray:none;fill:none;fill-opacity:1;fill-rule: evenodd"/>
<path id="Shape2DView_nwe0127"  d="M -34.57943192049 -18.04 L -34.68579817278815 -18.04 L -34.7908268077485 -18.04 L -34.89319702934741 -18.04 L -34.99162147265168 -18.04 L -35.08486239317957 -18.04 L -35.1717472322558 -18.04 L -35.25118336261722 -18.04 L -35.32217182883463 -18.04 L -35.38381990975687 -18.04 L -35.4353523449973 -18.04 L -35.47612108428295 -18.04 L -35.505613437062735 -18.04 L -35.523458519888585 -18.04 L -35.529431920490005 -18.04 " stroke="#191919" stroke-width="0.35 px" style="stroke-width:0.35;stroke-miterlimit:4;stroke-dasharray:none;fill:none;fill-opacity:1;fill-rule: evenodd"/>
<path id="Shape2DView_nwe0128"  d="M 1.339431920499 -18.04 L -34.57943192049 -18.04 " stroke="#191919" stroke-width="0.35 px" style="stroke-width:0.35;stroke-miterlimit:4;stroke-dasharray:none;fill:none;fill-opacity:1;fill-rule: evenodd"/>
<path id="Shape2DView_nwe0129"  d="M -35.4740820053 -18.24 L -35.46779421519324 -18.24 L -35.449009917481824 -18.24 L -35.417965335608365 -18.24 L -35.37505087320242 -18.24 L -35.32080620452828 -18.24 L -35.25591348776803 -18.24 L -35.181188786486544 -18.24 L -35.09757180715873 -18.24 L -35.00611408181533 -18.24 L -34.90796574441756 -18.24 L -34.804361067255165 -18.24 L -34.696602939256316 -18.24 L -34.58604648140331 -18.24 L -34.4740820053 -18.24 " stroke="#191919" stroke-width="0.35 px" style="stroke-width:0.35;stroke-miterlimit:4;stroke-dasharray:none;fill:none;fill-opacity:1;fill-rule: evenodd"/>
<path id="Shape2DView_nwe0130"  d="M -34.4740820053 -18.24 L 1.2340820053030015 -18.24 " stroke="#191919" stroke-width="0.35 px" style="stroke-width:0.35;stroke-miterlimit:4;stroke-dasharray:none;fill:none;fill-opacity:1;fill-rule: evenodd"/>
<path id="Shape2DView_nwe0131"  d="M 1.234082005303 -18.24 L 1.3460464814063078 -18.24 L 1.4566029392593143 -18.24 L 1.564361067258167 -18.24 L 1.667965744420558 -18.24 L 1.7661140818183365 -18.24 L 1.8575718071617335 -18.24 L 1.9411887864895474 -18.24 L 2.0159134877710296 -18.24 L 2.0808062045312843 -18.24 L 2.135050873205419 -18.24 L 2.1779653356113675 -18.24 L 2.2090099174848237 -18.24 L 2.2277942151962424 -18.24 L 2.2340820053029997 -18.24 " stroke="#191919" stroke-width="0.35 px" style="stroke-width:0.35;stroke-miterlimit:4;stroke-dasharray:none;fill:none;fill-opacity:1;fill-rule: evenodd"/>
<path id="Shape2DView_nwe0132"  d="M -35.3740820053 -18.34 L -35.36842299420392 -18.34 L -35.35151712626364 -18.34 L -35.32357700257753 -18.34 L -35.28495398641218 -18.34 L -35.23613378460546 -18.34 L -35.177730339521226 -18.34 L -35.11047810836789 -18.34 L -35.035222826972856 -18.34 L -34.9529108741638 -18.34 L -34.8645773705058 -18.34 L -34.77133316105965 -18.34 L -34.67435084586068 -18.34 L -34.57485003379298 -18.34 L -34.4740820053 -18.34 " stroke="#191919" stroke-width="0.35 px" style="stroke-width:0.35;stroke-miterlimit:4;stroke-dasharray:none;fill:none;fill-opacity:1;fill-rule: evenodd"/>
<path id="Shape2DView_nwe0133"  d="M -34.4740820053 -18.34 L 1.2340820053030015 -18.34 " stroke="#191919" stroke-width="0.35 px" style="stroke-width:0.35;stroke-miterlimit:4;stroke-dasharray:none;fill:none;fill-opacity:1;fill-rule: evenodd"/>
<path id="Shape2DView_nwe0134"  d="M 1.234082005303 -18.34 L 1.334850033795977 -18.34 L 1.4343508458636829 -18.34 L 1.5313331610626504 -18.34 L 1.6245773705088022 -18.34 L 1.7129108741668029 -18.34 L 1.79522282697586 -18.34 L 1.8704781083708928 -18.34 L 1.9377303395242267 -18.34 L 1.996133784608456 -18.34 L 2.0449539864151776 -18.34 L 2.083577002580531 -18.34 L 2.1115171262666412 -18.34 L 2.128422994206918 -18.34 L 2.134082005303 -18.34 " stroke="#191919" stroke-width="0.35 px" style="stroke-width:0.35;stroke-miterlimit:4;stroke-dasharray:none;fill:none;fill-opacity:1;fill-rule: evenodd"/>
<circle cx="-33.24" cy="2.850275026918e-33" r="0.32" stroke="#191919" stroke-width="0.35 px" style="stroke-width:0.35;stroke-miterlimit:4;stroke-dasharray:none;fill:none"/>
<path id="Shape2DView_nwe0137"  d="M -33.56 -1.28 L -33.55197693189819 -1.28 L -33.52831003772878 -1.28 L -33.49018607438977 -1.28 L -33.4395167365948 -1.28 L -33.378842796517624 -1.28 L -33.31120669886602 -1.28 L -33.24 -1.28 L -33.16879330113398 -1.28 L -33.10115720348239 -1.28 L -33.04048326340521 -1.28 L -32.989813925610235 -1.28 L -32.95168996227123 -1.28 L -32.928023068101815 -1.28 L -32.92 -1.28 " stroke="#191919" stroke-width="0.35 px" style="stroke-width:0.35;stroke-miterlimit:4;stroke-dasharray:none;fill:none;fill-opacity:1;fill-rule: evenodd"/>
<path id="Shape2DView_nwe0138"  d="M -3.09 -1.28 L -3.0819769318981836 -1.28 L -3.0583100377287744 -1.28 L -3.0201860743897697 -1.28 L -2.969516736594795 -1.28 L -2.908842796517619 -1.28 L -2.8412066988660207 -1.28 L -2.77 -1.28 L -2.6987933011339793 -1.28 L -2.6311572034823816 -1.28 L -2.5704832634052055 -1.28 L -2.5198139256102303 -1.28 L -2.481689962271226 -1.28 L -2.4580230681018165 -1.28 L -2.45 -1.28 " stroke="#191919" stroke-width="0.35 px" style="stroke-width:0.35;stroke-miterlimit:4;stroke-dasharray:none;fill:none;fill-opacity:1;fill-rule: evenodd"/>
<path id="Shape2DView_nwe0139"  d="M -5.86 -1.28 L -5.851976931898184 -1.28 L -5.828310037728774 -1.28 L -5.790186074389769 -1.28 L -5.739516736594795 -1.28 L -5.6788427965176185 -1.28 L -5.61120669886602 -1.28 L -5.54 -1.28 L -5.46879330113398 -1.28 L -5.401157203482382 -1.28 L -5.340483263405205 -1.28 L -5.289813925610231 -1.28 L -5.251689962271226 -1.28 L -5.228023068101816 -1.28 L -5.22 -1.28 " stroke="#191919" stroke-width="0.35 px" style="stroke-width:0.35;stroke-miterlimit:4;stroke-dasharray:none;fill:none;fill-opacity:1;fill-rule: evenodd"/>
<path id="Shape2DView_nwe0140"  d="M -8.63 -1.28 L -8.621976931898184 -1.28 L -8.598310037728774 -1.28 L -8.56018607438977 -1.28 L -8.509516736594795 -1.28 L -8.448842796517619 -1.28 L -8.381206698866022 -1.28 L -8.31 -1.28 L -8.23879330113398 -1.28 L -8.171157203482382 -1.28 L -8.110483263405206 -1.28 L -8.05981392561023 -1.28 L -8.021689962271227 -1.28 L -7.998023068101817 -1.28 L -7.99 -1.28 " stroke="#191919" stroke-width="0.35 px" style="stroke-width:0.35;stroke-miterlimit:4;stroke-dasharray:none;fill:none;fill-opacity:1;fill-rule: evenodd"/>
<path id="Shape2DView_nwe0141"  d="M -16.94 -1.28 L -16.931976931898184 -1.28 L -16.908310037728775 -1.28 L -16.87018607438977 -1.28 L -16.819516736594796 -1.28 L -16.75884279651762 -1.28 L -16.691206698866022 -1.28 L -16.62 -1.28 L -16.54879330113398 -1.28 L -16.481157203482383 -1.28 L -16.420483263405206 -1.28 L -16.36981392561023 -1.28 L -16.331689962271227 -1.28 L -16.308023068101818 -1.28 L -16.3 -1.28 " stroke="#191919" stroke-width="0.35 px" style="stroke-width:0.35;stroke-miterlimit:4;stroke-dasharray:none;fill:none;fill-opacity:1;fill-rule: evenodd"/>
<path id="Shape2DView_nwe0142"  d="M -14.17 -1.28 L -14.161976931898183 -1.28 L -14.138310037728774 -1.28 L -14.10018607438977 -1.28 L -14.049516736594795 -1.28 L -13.988842796517618 -1.28 L -13.92120669886602 -1.28 L -13.85 -1.28 L -13.778793301133978 -1.28 L -13.711157203482381 -1.28 L -13.650483263405205 -1.28 L -13.59981392561023 -1.28 L -13.561689962271226 -1.28 L -13.538023068101817 -1.28 L -13.53 -1.28 " stroke="#191919" stroke-width="0.35 px" style="stroke-width:0.35;stroke-miterlimit:4;stroke-dasharray:none;fill:none;fill-opacity:1;fill-rule: evenodd"/>
<path id="Shape2DView_nwe0143"  d="M -11.4 -1.28 L -11.391976931898183 -1.28 L -11.368310037728774 -1.28 L -11.33018607438977 -1.28 L -11.279516736594795 -1.28 L -11.218842796517619 -1.28 L -11.151206698866021 -1.28 L -11.08 -1.28 L -11.008793301133979 -1.28 L -10.941157203482382 -1.28 L -10.880483263405205 -1.28 L -10.82981392561023 -1.28 L -10.791689962271226 -1.28 L -10.768023068101817 -1.28 L -10.76 -1.28 " stroke="#191919" stroke-width="0.35 px" style="stroke-width:0.35;stroke-miterlimit:4;stroke-dasharray:none;fill:none;fill-opacity:1;fill-rule: evenodd"/>
<path id="Shape2DView_nwe0144"  d="M -22.48 -1.28 L -22.471976931898183 -1.28 L -22.448310037728774 -1.28 L -22.41018607438977 -1.28 L -22.359516736594795 -1.28 L -22.29884279651762 -1.28 L -22.23120669886602 -1.28 L -22.16 -1.28 L -22.08879330113398 -1.28 L -22.02115720348238 -1.28 L -21.960483263405205 -1.28 L -21.90981392561023 -1.28 L -21.871689962271226 -1.28 L -21.848023068101817 -1.28 L -21.84 -1.28 " stroke="#191919" stroke-width="0.35 px" style="stroke-width:0.35;stroke-miterlimit:4;stroke-dasharray:none;fill:none;fill-opacity:1;fill-rule: evenodd"/>
<path id="Shape2DView_nwe0145"  d="M -19.71 -1.28 L -19.701976931898184 -1.28 L -19.678310037728775 -1.28 L -19.64018607438977 -1.28 L -19.589516736594796 -1.28 L -19.52884279651762 -1.28 L -19.46120669886602 -1.28 L -19.39 -1.28 L -19.31879330113398 -1.28 L -19.251157203482382 -1.28 L -19.190483263405206 -1.28 L -19.13981392561023 -1.28 L -19.101689962271227 -1.28 L -19.078023068101817 -1.28 L -19.07 -1.28 " stroke="#191919" stroke-width="0.35 px" style="stroke-width:0.35;stroke-miterlimit:4;stroke-dasharray:none;fill:none;fill-opacity:1;fill-rule: evenodd"/>
<path id="Shape2DView_nwe0146"  d="M -23.865000000000002 -3.82 L -23.856976931898185 -3.82 L -23.833310037728776 -3.82 L -23.795186074389772 -3.82 L -23.744516736594797 -3.82 L -23.68384279651762 -3.82 L -23.616206698866023 -3.82 L -23.545 -3.82 L -23.47379330113398 -3.82 L -23.406157203482383 -3.82 L -23.345483263405207 -3.82 L -23.29481392561023 -3.82 L -23.256689962271228 -3.82 L -23.23302306810182 -3.82 L -23.225 -3.82 " stroke="#191919" stroke-width="0.35 px" style="stroke-width:0.35;stroke-miterlimit:4;stroke-dasharray:none;fill:none;fill-opacity:1;fill-rule: evenodd"/>
<path id="Shape2DView_nwe0147"  d="M -21.095 -3.82 L -21.08697693189818 -3.82 L -21.063310037728773 -3.82 L -21.02518607438977 -3.82 L -20.974516736594794 -3.82 L -20.913842796517617 -3.82 L -20.84620669886602 -3.82 L -20.775 -3.82 L -20.703793301133977 -3.82 L -20.63615720348238 -3.82 L -20.575483263405204 -3.82 L -20.52481392561023 -3.82 L -20.486689962271225 -3.82 L -20.463023068101815 -3.82 L -20.455 -3.82 " stroke="#191919" stroke-width="0.35 px" style="stroke-width:0.35;stroke-miterlimit:4;stroke-dasharray:none;fill:none;fill-opacity:1;fill-rule: evenodd"/>
<path id="Shape2DView_nwe0148"  d="M -15.555 -3.82 L -15.546976931898183 -3.82 L -15.523310037728773 -3.82 L -15.48518607438977 -3.82 L -15.434516736594794 -3.82 L -15.373842796517618 -3.82 L -15.30620669886602 -3.82 L -15.235 -3.82 L -15.163793301133978 -3.82 L -15.096157203482381 -3.82 L -15.035483263405204 -3.82 L -14.98481392561023 -3.82 L -14.946689962271225 -3.82 L -14.923023068101816 -3.82 L -14.915 -3.82 " stroke="#191919" stroke-width="0.35 px" style="stroke-width:0.35;stroke-miterlimit:4;stroke-dasharray:none;fill:none;fill-opacity:1;fill-rule: evenodd"/>
<path id="Shape2DView_nwe0149"  d="M -18.325 -3.82 L -18.316976931898182 -3.82 L -18.293310037728773 -3.82 L -18.25518607438977 -3.82 L -18.204516736594794 -3.82 L -18.143842796517617 -3.82 L -18.07620669886602 -3.82 L -18.005 -3.82 L -17.933793301133978 -3.82 L -17.86615720348238 -3.82 L -17.805483263405204 -3.82 L -17.75481392561023 -3.82 L -17.716689962271225 -3.82 L -17.693023068101816 -3.82 L -17.685 -3.82 " stroke="#191919" stroke-width="0.35 px" style="stroke-width:0.35;stroke-miterlimit:4;stroke-dasharray:none;fill:none;fill-opacity:1;fill-rule: evenodd"/>
<path id="Shape2DView_nwe0150"  d="M -4.4750000000000005 -3.82 L -4.466976931898184 -3.82 L -4.443310037728774 -3.82 L -4.4051860743897695 -3.82 L -4.354516736594795 -3.82 L -4.293842796517619 -3.82 L -4.2262066988660205 -3.82 L -4.155 -3.82 L -4.08379330113398 -3.82 L -4.016157203482382 -3.82 L -3.9554832634052057 -3.82 L -3.904813925610231 -3.82 L -3.8666899622712263 -3.82 L -3.8430230681018167 -3.82 L -3.8350000000000004 -3.82 " stroke="#191919" stroke-width="0.35 px" style="stroke-width:0.35;stroke-miterlimit:4;stroke-dasharray:none;fill:none;fill-opacity:1;fill-rule: evenodd"/>
<path id="Shape2DView_nwe0151"  d="M -7.245 -3.82 L -7.236976931898184 -3.82 L -7.213310037728774 -3.82 L -7.175186074389769 -3.82 L -7.124516736594795 -3.82 L -7.063842796517618 -3.82 L -6.99620669886602 -3.82 L -6.925 -3.82 L -6.8537933011339796 -3.82 L -6.786157203482381 -3.82 L -6.725483263405205 -3.82 L -6.674813925610231 -3.82 L -6.636689962271226 -3.82 L -6.613023068101816 -3.82 L -6.6049999999999995 -3.82 " stroke="#191919" stroke-width="0.35 px" style="stroke-width:0.35;stroke-miterlimit:4;stroke-dasharray:none;fill:none;fill-opacity:1;fill-rule: evenodd"/>
<path id="Shape2DView_nwe0152"  d="M -12.785 -3.82 L -12.776976931898183 -3.82 L -12.753310037728774 -3.82 L -12.71518607438977 -3.82 L -12.664516736594795 -3.82 L -12.603842796517618 -3.82 L -12.536206698866021 -3.82 L -12.465 -3.82 L -12.393793301133979 -3.82 L -12.326157203482381 -3.82 L -12.265483263405205 -3.82 L -12.21481392561023 -3.82 L -12.176689962271226 -3.82 L -12.153023068101817 -3.82 L -12.145 -3.82 " stroke="#191919" stroke-width="0.35 px" style="stroke-width:0.35;stroke-miterlimit:4;stroke-dasharray:none;fill:none;fill-opacity:1;fill-rule: evenodd"/>
<path id="Shape2DView_nwe0153"  d="M -10.015 -3.82 L -10.006976931898183 -3.82 L -9.983310037728774 -3.82 L -9.94518607438977 -3.82 L -9.894516736594795 -3.82 L -9.833842796517619 -3.82 L -9.766206698866021 -3.82 L -9.695 -3.82 L -9.62379330113398 -3.82 L -9.556157203482382 -3.82 L -9.495483263405205 -3.82 L -9.44481392561023 -3.82 L -9.406689962271226 -3.82 L -9.383023068101817 -3.82 L -9.375 -3.82 " stroke="#191919" stroke-width="0.35 px" style="stroke-width:0.35;stroke-miterlimit:4;stroke-dasharray:none;fill:none;fill-opacity:1;fill-rule: evenodd"/>
<path id="Shape2DView_nwe0154"  d="M -0.32 -1.28 L -0.31197693189818354 -1.28 L -0.28831003772877417 -1.28 L -0.2501860743897696 -1.28 L -0.1995167365947948 -1.28 L -0.13884279651761866 -1.28 L -0.07120669886602068 -1.28 L -7.83773951454306e-17 -1.28 L 0.07120669886602053 -1.28 L 0.13884279651761852 -1.28 L 0.19951673659479469 -1.28 L 0.2501860743897695 -1.28 L 0.2883100377287741 -1.28 L 0.31197693189818354 -1.28 L 0.32 -1.28 " stroke="#191919" stroke-width="0.35 px" style="stroke-width:0.35;stroke-miterlimit:4;stroke-dasharray:none;fill:none;fill-opacity:1;fill-rule: evenodd"/>
<path id="Shape2DView_nwe0155"  d="M -1.705 -3.82 L -1.6969769318981835 -3.82 L -1.6733100377287742 -3.82 L -1.6351860743897695 -3.82 L -1.5845167365947948 -3.82 L -1.5238427965176187 -3.82 L -1.4562066988660207 -3.82 L -1.385 -3.82 L -1.3137933011339795 -3.82 L -1.2461572034823816 -3.82 L -1.1854832634052053 -3.82 L -1.1348139256102305 -3.82 L -1.0966899622712258 -3.82 L -1.0730230681018165 -3.82 L -1.065 -3.82 " stroke="#191919" stroke-width="0.35 px" style="stroke-width:0.35;stroke-miterlimit:4;stroke-dasharray:none;fill:none;fill-opacity:1;fill-rule: evenodd"/>
<path id="Shape2DView_nwe0156"  d="M -28.02 -1.28 L -28.011976931898182 -1.28 L -27.988310037728773 -1.28 L -27.95018607438977 -1.28 L -27.899516736594794 -1.28 L -27.838842796517618 -1.28 L -27.77120669886602 -1.28 L -27.7 -1.28 L -27.628793301133978 -1.28 L -27.56115720348238 -1.28 L -27.500483263405204 -1.28 L -27.44981392561023 -1.28 L -27.411689962271225 -1.28 L -27.388023068101816 -1.28 L -27.38 -1.28 " stroke="#191919" stroke-width="0.35 px" style="stroke-width:0.35;stroke-miterlimit:4;stroke-dasharray:none;fill:none;fill-opacity:1;fill-rule: evenodd"/>
<path id="Shape2DView_nwe0157"  d="M -25.25 -1.28 L -25.241976931898183 -1.28 L -25.218310037728774 -1.28 L -25.18018607438977 -1.28 L -25.129516736594795 -1.28 L -25.068842796517618 -1.28 L -25.00120669886602 -1.28 L -24.93 -1.28 L -24.85879330113398 -1.28 L -24.79115720348238 -1.28 L -24.730483263405205 -1.28 L -24.67981392561023 -1.28 L -24.641689962271226 -1.28 L -24.618023068101817 -1.28 L -24.61 -1.28 " stroke="#191919" stroke-width="0.35 px" style="stroke-width:0.35;stroke-miterlimit:4;stroke-dasharray:none;fill:none;fill-opacity:1;fill-rule: evenodd"/>
<path id="Shape2DView_nwe0158"  d="M -26.635 -3.82 L -26.626976931898184 -3.82 L -26.603310037728775 -3.82 L -26.56518607438977 -3.82 L -26.514516736594796 -3.82 L -26.45384279651762 -3.82 L -26.386206698866022 -3.82 L -26.315 -3.82 L -26.24379330113398 -3.82 L -26.176157203482383 -3.82 L -26.115483263405206 -3.82 L -26.06481392561023 -3.82 L -26.026689962271227 -3.82 L -26.003023068101818 -3.82 L -25.995 -3.82 " stroke="#191919" stroke-width="0.35 px" style="stroke-width:0.35;stroke-miterlimit:4;stroke-dasharray:none;fill:none;fill-opacity:1;fill-rule: evenodd"/>
<path id="Shape2DView_nwe0159"  d="M -30.79 -1.28 L -30.781976931898182 -1.28 L -30.758310037728773 -1.28 L -30.72018607438977 -1.28 L -30.669516736594794 -1.28 L -30.608842796517617 -1.28 L -30.54120669886602 -1.28 L -30.47 -1.28 L -30.398793301133978 -1.28 L -30.33115720348238 -1.28 L -30.270483263405204 -1.28 L -30.21981392561023 -1.28 L -30.181689962271225 -1.28 L -30.158023068101816 -1.28 L -30.15 -1.28 " stroke="#191919" stroke-width="0.35 px" style="stroke-width:0.35;stroke-miterlimit:4;stroke-dasharray:none;fill:none;fill-opacity:1;fill-rule: evenodd"/>
<path id="Shape2DView_nwe0160"  d="M -29.405 -3.82 L -29.396976931898184 -3.82 L -29.373310037728775 -3.82 L -29.33518607438977 -3.82 L -29.284516736594796 -3.82 L -29.22384279651762 -3.82 L -29.156206698866022 -3.82 L -29.085 -3.82 L -29.01379330113398 -3.82 L -28.946157203482382 -3.82 L -28.885483263405206 -3.82 L -28.83481392561023 -3.82 L -28.796689962271227 -3.82 L -28.773023068101818 -3.82 L -28.765 -3.82 " stroke="#191919" stroke-width="0.35 px" style="stroke-width:0.35;stroke-miterlimit:4;stroke-dasharray:none;fill:none;fill-opacity:1;fill-rule: evenodd"/>
<path id="Shape2DView_nwe0161"  d="M -32.175 -3.82 L -32.16697693189818 -3.82 L -32.143310037728774 -3.82 L -32.10518607438977 -3.82 L -32.05451673659479 -3.82 L -31.99384279651762 -3.82 L -31.92620669886602 -3.82 L -31.855 -3.82 L -31.78379330113398 -3.82 L -31.716157203482382 -3.82 L -31.655483263405205 -3.82 L -31.60481392561023 -3.82 L -31.566689962271226 -3.82 L -31.543023068101817 -3.82 L -31.535 -3.82 " stroke="#191919" stroke-width="0.35 px" style="stroke-width:0.35;stroke-miterlimit:4;stroke-dasharray:none;fill:none;fill-opacity:1;fill-rule: evenodd"/>
<path id="Shape2DView_nwe0163"  d="M -36.17 -7.84 L -36.17 -7.846287790106757 L -36.17 -7.865072087818176 L -36.17 -7.896116669691632 L -36.17 -7.939031132097581 L -36.17 -7.993275800771715 L -36.17 -8.05816851753197 L -36.17 -8.132893218813452 L -36.17 -8.216510198141266 L -36.17 -8.307967923484663 L -36.17 -8.406116260882442 L -36.17 -8.509720938044833 L -36.17 -8.617479066043686 L -36.17 -8.728035523896692 L -36.17 -8.84 " stroke="#191919" stroke-width="0.35 px" style="stroke-width:0.35;stroke-miterlimit:4;stroke-dasharray:none;fill:none;fill-opacity:1;fill-rule: evenodd"/>
<path id="Shape2DView_nwe0164"  d="M -36.17 -8.84 L 2.9299999999999997 -8.84 " stroke="#191919" stroke-width="0.35 px" style="stroke-width:0.35;stroke-miterlimit:4;stroke-dasharray:none;fill:none;fill-opacity:1;fill-rule: evenodd"/>
<path id="Shape2DView_nwe0165"  d="M 2.93 -7.84 L 2.93 -7.846287790106757 L 2.93 -7.865072087818176 L 2.93 -7.896116669691632 L 2.93 -7.939031132097581 L 2.93 -7.993275800771715 L 2.93 -8.05816851753197 L 2.93 -8.132893218813452 L 2.93 -8.216510198141266 L 2.93 -8.307967923484663 L 2.93 -8.406116260882442 L 2.93 -8.509720938044833 L 2.93 -8.617479066043686 L 2.93 -8.728035523896692 L 2.93 -8.84 " stroke="#191919" stroke-width="0.35 px" style="stroke-width:0.35;stroke-miterlimit:4;stroke-dasharray:none;fill:none;fill-opacity:1;fill-rule: evenodd"/>
<circle cx="-2.77" cy="2.850275026918e-33" r="0.32" stroke="#191919" stroke-width="0.35 px" style="stroke-width:0.35;stroke-miterlimit:4;stroke-dasharray:none;fill:none"/>
<circle cx="-5.54" cy="2.850275026918e-33" r="0.32" stroke="#191919" stroke-width="0.35 px" style="stroke-width:0.35;stroke-miterlimit:4;stroke-dasharray:none;fill:none"/>
<circle cx="-8.31" cy="2.850275026918e-33" r="0.32" stroke="#191919" stroke-width="0.35 px" style="stroke-width:0.35;stroke-miterlimit:4;stroke-dasharray:none;fill:none"/>
<circle cx="-16.62" cy="2.850275026918e-33" r="0.32" stroke="#191919" stroke-width="0.35 px" style="stroke-width:0.35;stroke-miterlimit:4;stroke-dasharray:none;fill:none"/>
<circle cx="-13.85" cy="2.850275026918e-33" r="0.32" stroke="#191919" stroke-width="0.35 px" style="stroke-width:0.35;stroke-miterlimit:4;stroke-dasharray:none;fill:none"/>
<circle cx="-11.08" cy="2.850275026918e-33" r="0.32" stroke="#191919" stroke-width="0.35 px" style="stroke-width:0.35;stroke-miterlimit:4;stroke-dasharray:none;fill:none"/>
<circle cx="-22.16" cy="2.850275026918e-33" r="0.32" stroke="#191919" stroke-width="0.35 px" style="stroke-width:0.35;stroke-miterlimit:4;stroke-dasharray:none;fill:none"/>
<circle cx="-19.39" cy="2.850275026918e-33" r="0.32" stroke="#191919" stroke-width="0.35 px" style="stroke-width:0.35;stroke-miterlimit:4;stroke-dasharray:none;fill:none"/>
<circle cx="-23.545" cy="-2.54" r="0.32" stroke="#191919" stroke-width="0.35 px" style="stroke-width:0.35;stroke-miterlimit:4;stroke-dasharray:none;fill:none"/>
<circle cx="-20.775" cy="-2.54" r="0.32" stroke="#191919" stroke-width="0.35 px" style="stroke-width:0.35;stroke-miterlimit:4;stroke-dasharray:none;fill:none"/>
<circle cx="-15.235" cy="-2.54" r="0.32" stroke="#191919" stroke-width="0.35 px" style="stroke-width:0.35;stroke-miterlimit:4;stroke-dasharray:none;fill:none"/>
<circle cx="-18.005" cy="-2.54" r="0.32" stroke="#191919" stroke-width="0.35 px" style="stroke-width:0.35;stroke-miterlimit:4;stroke-dasharray:none;fill:none"/>
<circle cx="-4.155" cy="-2.54" r="0.32" stroke="#191919" stroke-width="0.35 px" style="stroke-width:0.35;stroke-miterlimit:4;stroke-dasharray:none;fill:none"/>
<circle cx="-6.925" cy="-2.54" r="0.32" stroke="#191919" stroke-width="0.35 px" style="stroke-width:0.35;stroke-miterlimit:4;stroke-dasharray:none;fill:none"/>
<circle cx="-12.465" cy="-2.54" r="0.32" stroke="#191919" stroke-width="0.35 px" style="stroke-width:0.35;stroke-miterlimit:4;stroke-dasharray:none;fill:none"/>
<circle cx="-9.695" cy="-2.54" r="0.32" stroke="#191919" stroke-width="0.35 px" style="stroke-width:0.35;stroke-miterlimit:4;stroke-dasharray:none;fill:none"/>
<circle cx="-6.568586551523e-49" cy="2.850275026918e-33" r="0.32" stroke="#191919" stroke-width="0.35 px" style="stroke-width:0.35;stroke-miterlimit:4;stroke-dasharray:none;fill:none"/>
<circle cx="-1.385" cy="-2.54" r="0.32" stroke="#191919" stroke-width="0.35 px" style="stroke-width:0.35;stroke-miterlimit:4;stroke-dasharray:none;fill:none"/>
<circle cx="-27.7" cy="2.850275026918e-33" r="0.32" stroke="#191919" stroke-width="0.35 px" style="stroke-width:0.35;stroke-miterlimit:4;stroke-dasharray:none;fill:none"/>
<circle cx="-24.93" cy="2.850275026918e-33" r="0.32" stroke="#191919" stroke-width="0.35 px" style="stroke-width:0.35;stroke-miterlimit:4;stroke-dasharray:none;fill:none"/>
<circle cx="-26.315" cy="-2.54" r="0.32" stroke="#191919" stroke-width="0.35 px" style="stroke-width:0.35;stroke-miterlimit:4;stroke-dasharray:none;fill:none"/>
<circle cx="-30.47" cy="2.850275026918e-33" r="0.32" stroke="#191919" stroke-width="0.35 px" style="stroke-width:0.35;stroke-miterlimit:4;stroke-dasharray:none;fill:none"/>
<circle cx="-29.085" cy="-2.54" r="0.32" stroke="#191919" stroke-width="0.35 px" style="stroke-width:0.35;stroke-miterlimit:4;stroke-dasharray:none;fill:none"/>
<path id="Shape2DView_nwe0191"  d="M 2.93 -8.84 L 3.041964476103308 -8.84 L 3.1525209339563145 -8.84 L 3.2602790619551674 -8.84 L 3.3638837391175582 -8.84 L 3.462032076515337 -8.84 L 3.5534898018587335 -8.84 L 3.6371067811865476 -8.84 L 3.71183148246803 -8.84 L 3.7767241992282843 -8.84 L 3.830968867902419 -8.84 L 3.8738833303083675 -8.84 L 3.9049279121818237 -8.84 L 3.923712209893243 -8.84 L 3.93 -8.84 " stroke="#191919" stroke-width="0.35 px" style="stroke-width:0.35;stroke-miterlimit:4;stroke-dasharray:none;fill:none;fill-opacity:1;fill-rule: evenodd"/>
<path id="Shape2DView_nwe0192"  d="M -37.17 -8.84 L -37.16371220989324 -8.84 L -37.14492791218183 -8.84 L -37.11388333030837 -8.84 L -37.07096886790242 -8.84 L -37.016724199228285 -8.84 L -36.95183148246803 -8.84 L -36.87710678118655 -8.84 L -36.79348980185873 -8.84 L -36.70203207651534 -8.84 L -36.60388373911756 -8.84 L -36.50027906195517 -8.84 L -36.39252093395632 -8.84 L -36.28196447610331 -8.84 L -36.17 -8.84 " stroke="#191919" stroke-width="0.35 px" style="stroke-width:0.35;stroke-miterlimit:4;stroke-dasharray:none;fill:none;fill-opacity:1;fill-rule: evenodd"/>
<path id="Shape2DView_nwe0193"  d="M 2.93 -8.84 L 2.93 -11.84 " stroke="#191919" stroke-width="0.35 px" style="stroke-width:0.35;stroke-miterlimit:4;stroke-dasharray:none;fill:none;fill-opacity:1;fill-rule: evenodd"/>
<path id="Shape2DView_nwe0194"  d="M -36.17 -8.84 L -36.17 -11.84 " stroke="#191919" stroke-width="0.35 px" style="stroke-width:0.35;stroke-miterlimit:4;stroke-dasharray:none;fill:none;fill-opacity:1;fill-rule: evenodd"/>
<path id="Shape2DView_nwe0195"  d="M -42.17 -11.94 L -42.28196447610331 -11.94 L -42.39252093395632 -11.94 L -42.50027906195517 -11.94 L -42.60388373911756 -11.94 L -42.70203207651534 -11.94 L -42.79348980185873 -11.94 L -42.87710678118655 -11.94 L -42.95183148246803 -11.94 L -43.016724199228285 -11.94 L -43.07096886790242 -11.94 L -43.11388333030837 -11.94 L -43.14492791218183 -11.94 L -43.16371220989324 -11.94 L -43.17 -11.94 " stroke="#191919" stroke-width="0.35 px" style="stroke-width:0.35;stroke-miterlimit:4;stroke-dasharray:none;fill:none;fill-opacity:1;fill-rule: evenodd"/>
<path id="Shape2DView_nwe0196"  d="M -42.17 -11.94 L -42.17 -11.928803552389668 L -42.17 -11.917747906604369 L -42.17 -11.906972093804482 L -42.17 -11.896611626088244 L -42.17 -11.886796792348466 L -42.17 -11.877651019814126 L -42.17 -11.869289321881345 L -42.17 -11.861816851753197 L -42.17 -11.855327580077171 L -42.17 -11.849903113209757 L -42.17 -11.845611666969162 L -42.17 -11.842507208781818 L -42.17 -11.840628779010675 L -42.17 -11.84 " stroke="#191919" stroke-width="0.35 px" style="stroke-width:0.35;stroke-miterlimit:4;stroke-dasharray:none;fill:none;fill-opacity:1;fill-rule: evenodd"/>
<path id="Shape2DView_nwe0197"  d="M 8.93 -11.94 L 8.93 -11.928803552389668 L 8.93 -11.917747906604369 L 8.93 -11.906972093804482 L 8.93 -11.896611626088244 L 8.93 -11.886796792348466 L 8.93 -11.877651019814126 L 8.93 -11.869289321881345 L 8.93 -11.861816851753197 L 8.93 -11.855327580077171 L 8.93 -11.849903113209757 L 8.93 -11.845611666969162 L 8.93 -11.842507208781818 L 8.93 -11.840628779010675 L 8.93 -11.84 " stroke="#191919" stroke-width="0.35 px" style="stroke-width:0.35;stroke-miterlimit:4;stroke-dasharray:none;fill:none;fill-opacity:1;fill-rule: evenodd"/>
<path id="Shape2DView_nwe0198"  d="M 8.93 -11.94 L -42.17 -11.94 " stroke="#191919" stroke-width="0.35 px" style="stroke-width:0.35;stroke-miterlimit:4;stroke-dasharray:none;fill:none;fill-opacity:1;fill-rule: evenodd"/>
<path id="Shape2DView_nwe0200"  d="M 9.93 -11.94 L 9.923712209893242 -11.94 L 9.904927912181824 -11.94 L 9.873883330308367 -11.94 L 9.830968867902419 -11.94 L 9.776724199228283 -11.94 L 9.71183148246803 -11.94 L 9.637106781186548 -11.94 L 9.553489801858733 -11.94 L 9.462032076515337 -11.94 L 9.363883739117558 -11.94 L 9.260279061955167 -11.94 L 9.152520933956314 -11.94 L 9.041964476103308 -11.94 L 8.93 -11.94 " stroke="#191919" stroke-width="0.35 px" style="stroke-width:0.35;stroke-miterlimit:4;stroke-dasharray:none;fill:none;fill-opacity:1;fill-rule: evenodd"/>
<path id="Shape2DView_nwe0201"  d="M -42.17 -11.94 L -42.17 -12.14 " stroke="#191919" stroke-width="0.35 px" style="stroke-width:0.35;stroke-miterlimit:4;stroke-dasharray:none;fill:none;fill-opacity:1;fill-rule: evenodd"/>
<path id="Shape2DView_nwe0202"  d="M -42.17 -12.14 L -42.28196447610331 -12.14 L -42.39252093395632 -12.14 L -42.50027906195517 -12.14 L -42.60388373911756 -12.14 L -42.70203207651534 -12.14 L -42.79348980185873 -12.14 L -42.87710678118655 -12.14 L -42.95183148246803 -12.14 L -43.016724199228285 -12.14 L -43.07096886790242 -12.14 L -43.11388333030837 -12.14 L -43.14492791218183 -12.14 L -43.16371220989324 -12.14 L -43.17 -12.14 " stroke="#191919" stroke-width="0.35 px" style="stroke-width:0.35;stroke-miterlimit:4;stroke-dasharray:none;fill:none;fill-opacity:1;fill-rule: evenodd"/>
<path id="Shape2DView_nwe0203"  d="M 8.93 -11.94 L 8.93 -12.14 " stroke="#191919" stroke-width="0.35 px" style="stroke-width:0.35;stroke-miterlimit:4;stroke-dasharray:none;fill:none;fill-opacity:1;fill-rule: evenodd"/>
<path id="Shape2DView_nwe0204"  d="M 8.93 -12.14 L -42.17 -12.14 " stroke="#191919" stroke-width="0.35 px" style="stroke-width:0.35;stroke-miterlimit:4;stroke-dasharray:none;fill:none;fill-opacity:1;fill-rule: evenodd"/>
<path id="Shape2DView_nwe0205"  d="M 9.93 -12.14 L 9.923712209893242 -12.14 L 9.904927912181824 -12.14 L 9.873883330308367 -12.14 L 9.830968867902419 -12.14 L 9.776724199228283 -12.14 L 9.71183148246803 -12.14 L 9.637106781186548 -12.14 L 9.553489801858733 -12.14 L 9.462032076515337 -12.14 L 9.363883739117558 -12.14 L 9.260279061955167 -12.14 L 9.152520933956314 -12.14 L 9.041964476103308 -12.14 L 8.93 -12.14 " stroke="#191919" stroke-width="0.35 px" style="stroke-width:0.35;stroke-miterlimit:4;stroke-dasharray:none;fill:none;fill-opacity:1;fill-rule: evenodd"/>
<path id="Shape2DView_nwe0206"  d="M -42.17 -12.14 L -42.17 -12.151196447610332 L -42.17 -12.162252093395631 L -42.17 -12.173027906195518 L -42.17 -12.183388373911756 L -42.17 -12.193203207651534 L -42.17 -12.202348980185874 L -42.17 -12.210710678118655 L -42.17 -12.218183148246803 L -42.17 -12.224672419922829 L -42.17 -12.230096886790243 L -42.17 -12.234388333030838 L -42.17 -12.237492791218182 L -42.17 -12.239371220989325 L -42.17 -12.24 " stroke="#191919" stroke-width="0.35 px" style="stroke-width:0.35;stroke-miterlimit:4;stroke-dasharray:none;fill:none;fill-opacity:1;fill-rule: evenodd"/>
<path id="Shape2DView_nwe0207"  d="M 8.93 -12.14 L 8.93 -12.151196447610332 L 8.93 -12.162252093395631 L 8.93 -12.173027906195518 L 8.93 -12.183388373911756 L 8.93 -12.193203207651534 L 8.93 -12.202348980185874 L 8.93 -12.210710678118655 L 8.93 -12.218183148246803 L 8.93 -12.224672419922829 L 8.93 -12.230096886790243 L 8.93 -12.234388333030838 L 8.93 -12.237492791218182 L 8.93 -12.239371220989325 L 8.93 -12.24 " stroke="#191919" stroke-width="0.35 px" style="stroke-width:0.35;stroke-miterlimit:4;stroke-dasharray:none;fill:none;fill-opacity:1;fill-rule: evenodd"/>
<path id="Shape2DView_nwe0209"  d="M 1.339431920499 -12.84 L 1.4513963966023078 -12.84 L 1.561952854455314 -12.84 L 1.6697109824541667 -12.84 L 1.7733156596165576 -12.84 L 1.871463997014336 -12.84 L 1.9629217223577329 -12.84 L 2.046538701685547 -12.84 L 2.1212634029670294 -12.84 L 2.1861561197272836 -12.84 L 2.2404007884014185 -12.84 L 2.2833152508073673 -12.84 L 2.3143598326808235 -12.84 L 2.3331441303922427 -12.84 L 2.339431920499 -12.84 " stroke="#191919" stroke-width="0.35 px" style="stroke-width:0.35;stroke-miterlimit:4;stroke-dasharray:none;fill:none;fill-opacity:1;fill-rule: evenodd"/>
<path id="Shape2DView_nwe0210"  d="M 1.339431920499 -12.84 L 1.339431920499 -12.772821314338016 L 1.339431920499 -12.706487439626212 L 1.339431920499 -12.6418325628269 L 1.339431920499 -12.579669756529466 L 1.339431920499 -12.520780754090797 L 1.339431920499 -12.46590611888476 L 1.339431920499 -12.415735931288072 L 1.339431920499 -12.370901110519181 L 1.339431920499 -12.33196548046303 L 1.339431920499 -12.29941867925855 L 1.339431920499 -12.27367000181498 L 1.339431920499 -12.255043252690905 L 1.339431920499 -12.243772674064054 L 1.339431920499 -12.24 " stroke="#191919" stroke-width="0.35 px" style="stroke-width:0.35;stroke-miterlimit:4;stroke-dasharray:none;fill:none;fill-opacity:1;fill-rule: evenodd"/>
<path id="Shape2DView_nwe0211"  d="M -34.57943192049 -12.84 L -34.57943192049 -12.772821314338016 L -34.57943192049 -12.706487439626212 L -34.57943192049 -12.6418325628269 L -34.57943192049 -12.579669756529466 L -34.57943192049 -12.520780754090799 L -34.57943192049 -12.46590611888476 L -34.57943192049 -12.415735931288072 L -34.57943192049 -12.370901110519181 L -34.57943192049 -12.33196548046303 L -34.57943192049 -12.29941867925855 L -34.57943192049 -12.27367000181498 L -34.57943192049 -12.255043252690905 L -34.57943192049 -12.243772674064054 L -34.57943192049 -12.24 " stroke="#191919" stroke-width="0.35 px" style="stroke-width:0.35;stroke-miterlimit:4;stroke-dasharray:none;fill:none;fill-opacity:1;fill-rule: evenodd"/>
<path id="Shape2DView_nwe0212"  d="M -35.57943192049 -12.84 L -35.57314413038324 -12.84 L -35.55435983267183 -12.84 L -35.52331525079837 -12.84 L -35.48040078839242 -12.84 L -35.426156119718286 -12.84 L -35.36126340295803 -12.84 L -35.28653870167655 -12.84 L -35.202921722348734 -12.84 L -35.11146399700534 -12.84 L -35.01331565960756 -12.84 L -34.90971098244517 -12.84 L -34.80195285444632 -12.84 L -34.69139639659331 -12.84 L -34.57943192049 -12.84 " stroke="#191919" stroke-width="0.35 px" style="stroke-width:0.35;stroke-miterlimit:4;stroke-dasharray:none;fill:none;fill-opacity:1;fill-rule: evenodd"/>
<path id="Shape2DView_nwe0213"  d="M -34.57943192049 -12.84 L 1.3394319204990026 -12.84 " stroke="#191919" stroke-width="0.35 px" style="stroke-width:0.35;stroke-miterlimit:4;stroke-dasharray:none;fill:none;fill-opacity:1;fill-rule: evenodd"/>
<path id="Shape2DView_nwe0214"  d="M 1.339431920499 -12.84 L 1.339431920499 -17.99 " stroke="#191919" stroke-width="0.35 px" style="stroke-width:0.35;stroke-miterlimit:4;stroke-dasharray:none;fill:none;fill-opacity:1;fill-rule: evenodd"/>
<path id="Shape2DView_nwe0215"  d="M -34.57943192049 -12.84 L -34.57943192049 -17.99 " stroke="#191919" stroke-width="0.35 px" style="stroke-width:0.35;stroke-miterlimit:4;stroke-dasharray:none;fill:none;fill-opacity:1;fill-rule: evenodd"/>
<path id="Shape2DView_nwe0216"  d="M 1.339431920499 -18.04 L 1.339431920499 -17.99 " stroke="#191919" stroke-width="0.35 px" style="stroke-width:0.35;stroke-miterlimit:4;stroke-dasharray:none;fill:none;fill-opacity:1;fill-rule: evenodd"/>
<path id="Shape2DView_nwe0217"  d="M -34.57943192049 -18.04 L -34.57943192049 -17.99 " stroke="#191919" stroke-width="0.35 px" style="stroke-width:0.35;stroke-miterlimit:4;stroke-dasharray:none;fill:none;fill-opacity:1;fill-rule: evenodd"/>
<path id="Shape2DView_nwe0218"  d="M -34.4740820053 -18.04 L -34.4740820053 -18.24 " stroke="#191919" stroke-width="0.35 px" style="stroke-width:0.35;stroke-miterlimit:4;stroke-dasharray:none;fill:none;fill-opacity:1;fill-rule: evenodd"/>
<path id="Shape2DView_nwe0219"  d="M 1.234082005303 -18.04 L 1.234082005303 -18.24 " stroke="#191919" stroke-width="0.35 px" style="stroke-width:0.35;stroke-miterlimit:4;stroke-dasharray:none;fill:none;fill-opacity:1;fill-rule: evenodd"/>
<path id="Shape2DView_nwe0220"  d="M -34.4740820053 -18.24 L -34.4740820053 -18.34 " stroke="#191919" stroke-width="0.35 px" style="stroke-width:0.35;stroke-miterlimit:4;stroke-dasharray:none;fill:none;fill-opacity:1;fill-rule: evenodd"/>
<path id="Shape2DView_nwe0221"  d="M 1.234082005303 -18.24 L 1.234082005303 -18.34 " stroke="#191919" stroke-width="0.35 px" style="stroke-width:0.35;stroke-miterlimit:4;stroke-dasharray:none;fill:none;fill-opacity:1;fill-rule: evenodd"/>
<path id="Shape2DView_nwe0222"  d="M -33.56 -1.28 Q -33.56 -0.9984389288724163 -33.56 -0.7168778577448323 Q -33.56 -0.5943731397848163 -33.56 -0.4718684218248004 Q -33.56 -0.012535699099324282 -33.56 0.0 " stroke="#191919" stroke-width="0.35 px" style="stroke-width:0.35;stroke-miterlimit:4;stroke-dasharray:none;fill:none;fill-opacity:1;fill-rule: evenodd"/>
<path id="Shape2DView_nwe0223"  d="M -33.56 -1.28 L -33.56 -7.54 " stroke="#191919" stroke-width="0.35 px" style="stroke-width:0.35;stroke-miterlimit:4;stroke-dasharray:none;fill:none;fill-opacity:1;fill-rule: evenodd"/>
<path id="Shape2DView_nwe0224"  d="M -3.09 -1.28 L -3.09 -7.54 " stroke="#191919" stroke-width="0.35 px" style="stroke-width:0.35;stroke-miterlimit:4;stroke-dasharray:none;fill:none;fill-opacity:1;fill-rule: evenodd"/>
<path id="Shape2DView_nwe0225"  d="M -5.86 -1.28 L -5.86 -7.54 " stroke="#191919" stroke-width="0.35 px" style="stroke-width:0.35;stroke-miterlimit:4;stroke-dasharray:none;fill:none;fill-opacity:1;fill-rule: evenodd"/>
<path id="Shape2DView_nwe0226"  d="M -8.63 -1.28 L -8.63 -7.54 " stroke="#191919" stroke-width="0.35 px" style="stroke-width:0.35;stroke-miterlimit:4;stroke-dasharray:none;fill:none;fill-opacity:1;fill-rule: evenodd"/>
<path id="Shape2DView_nwe0227"  d="M -16.94 -1.28 L -16.94 -7.54 " stroke="#191919" stroke-width="0.35 px" style="stroke-width:0.35;stroke-miterlimit:4;stroke-dasharray:none;fill:none;fill-opacity:1;fill-rule: evenodd"/>
<path id="Shape2DView_nwe0228"  d="M -14.17 -1.28 L -14.17 -7.54 " stroke="#191919" stroke-width="0.35 px" style="stroke-width:0.35;stroke-miterlimit:4;stroke-dasharray:none;fill:none;fill-opacity:1;fill-rule: evenodd"/>
<path id="Shape2DView_nwe0229"  d="M -11.4 -1.28 L -11.4 -7.54 " stroke="#191919" stroke-width="0.35 px" style="stroke-width:0.35;stroke-miterlimit:4;stroke-dasharray:none;fill:none;fill-opacity:1;fill-rule: evenodd"/>
<path id="Shape2DView_nwe0230"  d="M -22.48 -1.28 L -22.48 -7.54 " stroke="#191919" stroke-width="0.35 px" style="stroke-width:0.35;stroke-miterlimit:4;stroke-dasharray:none;fill:none;fill-opacity:1;fill-rule: evenodd"/>
<path id="Shape2DView_nwe0231"  d="M -19.71 -1.28 L -19.71 -7.54 " stroke="#191919" stroke-width="0.35 px" style="stroke-width:0.35;stroke-miterlimit:4;stroke-dasharray:none;fill:none;fill-opacity:1;fill-rule: evenodd"/>
<path id="Shape2DView_nwe0232"  d="M -23.865000000000002 -3.82 L -23.865000000000002 -7.54 " stroke="#191919" stroke-width="0.35 px" style="stroke-width:0.35;stroke-miterlimit:4;stroke-dasharray:none;fill:none;fill-opacity:1;fill-rule: evenodd"/>
<path id="Shape2DView_nwe0233"  d="M -21.095 -3.82 L -21.095 -7.54 " stroke="#191919" stroke-width="0.35 px" style="stroke-width:0.35;stroke-miterlimit:4;stroke-dasharray:none;fill:none;fill-opacity:1;fill-rule: evenodd"/>
<path id="Shape2DView_nwe0234"  d="M -15.555 -3.82 L -15.555 -7.54 " stroke="#191919" stroke-width="0.35 px" style="stroke-width:0.35;stroke-miterlimit:4;stroke-dasharray:none;fill:none;fill-opacity:1;fill-rule: evenodd"/>
<path id="Shape2DView_nwe0235"  d="M -18.325 -3.82 L -18.325 -7.54 " stroke="#191919" stroke-width="0.35 px" style="stroke-width:0.35;stroke-miterlimit:4;stroke-dasharray:none;fill:none;fill-opacity:1;fill-rule: evenodd"/>
<path id="Shape2DView_nwe0236"  d="M -4.4750000000000005 -3.82 L -4.4750000000000005 -7.54 " stroke="#191919" stroke-width="0.35 px" style="stroke-width:0.35;stroke-miterlimit:4;stroke-dasharray:none;fill:none;fill-opacity:1;fill-rule: evenodd"/>
<path id="Shape2DView_nwe0237"  d="M -7.245 -3.82 L -7.245 -7.54 " stroke="#191919" stroke-width="0.35 px" style="stroke-width:0.35;stroke-miterlimit:4;stroke-dasharray:none;fill:none;fill-opacity:1;fill-rule: evenodd"/>
<path id="Shape2DView_nwe0238"  d="M -12.785 -3.82 L -12.785 -7.54 " stroke="#191919" stroke-width="0.35 px" style="stroke-width:0.35;stroke-miterlimit:4;stroke-dasharray:none;fill:none;fill-opacity:1;fill-rule: evenodd"/>
<path id="Shape2DView_nwe0239"  d="M -10.015 -3.82 L -10.015 -7.54 " stroke="#191919" stroke-width="0.35 px" style="stroke-width:0.35;stroke-miterlimit:4;stroke-dasharray:none;fill:none;fill-opacity:1;fill-rule: evenodd"/>
<path id="Shape2DView_nwe0240"  d="M -0.32 -1.28 L -0.32 -7.54 " stroke="#191919" stroke-width="0.35 px" style="stroke-width:0.35;stroke-miterlimit:4;stroke-dasharray:none;fill:none;fill-opacity:1;fill-rule: evenodd"/>
<path id="Shape2DView_nwe0241"  d="M -1.705 -3.82 L -1.705 -7.54 " stroke="#191919" stroke-width="0.35 px" style="stroke-width:0.35;stroke-miterlimit:4;stroke-dasharray:none;fill:none;fill-opacity:1;fill-rule: evenodd"/>
<path id="Shape2DView_nwe0242"  d="M -28.02 -1.28 L -28.02 -7.54 " stroke="#191919" stroke-width="0.35 px" style="stroke-width:0.35;stroke-miterlimit:4;stroke-dasharray:none;fill:none;fill-opacity:1;fill-rule: evenodd"/>
<path id="Shape2DView_nwe0243"  d="M -25.25 -1.28 L -25.25 -7.54 " stroke="#191919" stroke-width="0.35 px" style="stroke-width:0.35;stroke-miterlimit:4;stroke-dasharray:none;fill:none;fill-opacity:1;fill-rule: evenodd"/>
<path id="Shape2DView_nwe0244"  d="M -26.635 -3.82 L -26.635 -7.54 " stroke="#191919" stroke-width="0.35 px" style="stroke-width:0.35;stroke-miterlimit:4;stroke-dasharray:none;fill:none;fill-opacity:1;fill-rule: evenodd"/>
<path id="Shape2DView_nwe0245"  d="M -30.79 -1.28 L -30.79 -7.54 " stroke="#191919" stroke-width="0.35 px" style="stroke-width:0.35;stroke-miterlimit:4;stroke-dasharray:none;fill:none;fill-opacity:1;fill-rule: evenodd"/>
<path id="Shape2DView_nwe0246"  d="M -29.405 -3.82 L -29.405 -7.54 " stroke="#191919" stroke-width="0.35 px" style="stroke-width:0.35;stroke-miterlimit:4;stroke-dasharray:none;fill:none;fill-opacity:1;fill-rule: evenodd"/>
<path id="Shape2DView_nwe0247"  d="M -32.175 -3.82 L -32.175 -7.54 " stroke="#191919" stroke-width="0.35 px" style="stroke-width:0.35;stroke-miterlimit:4;stroke-dasharray:none;fill:none;fill-opacity:1;fill-rule: evenodd"/>
<path id="Shape2DView_nwe0248"  d="M -3.09 -1.28 Q -3.09 -0.9984389288724163 -3.09 -0.7168778577448323 Q -3.09 -0.5943731397848163 -3.09 -0.4718684218248004 Q -3.09 -0.012535699099324282 -3.09 0.0 " stroke="#191919" stroke-width="0.35 px" style="stroke-width:0.35;stroke-miterlimit:4;stroke-dasharray:none;fill:none;fill-opacity:1;fill-rule: evenodd"/>
<path id="Shape2DView_nwe0249"  d="M -5.86 -1.28 Q -5.860000000000001 -0.9984389288724163 -5.86 -0.7168778577448323 Q -5.860000000000001 -0.5943731397848163 -5.86 -0.4718684218248004 Q -5.860000000000001 -0.012535699099324282 -5.86 0.0 " stroke="#191919" stroke-width="0.35 px" style="stroke-width:0.35;stroke-miterlimit:4;stroke-dasharray:none;fill:none;fill-opacity:1;fill-rule: evenodd"/>
<path id="Shape2DView_nwe0250"  d="M -8.63 -1.28 Q -8.629999999999999 -0.9984389288724163 -8.63 -0.7168778577448323 Q -8.629999999999999 -0.5943731397848163 -8.63 -0.4718684218248004 Q -8.629999999999999 -0.012535699099324282 -8.63 0.0 " stroke="#191919" stroke-width="0.35 px" style="stroke-width:0.35;stroke-miterlimit:4;stroke-dasharray:none;fill:none;fill-opacity:1;fill-rule: evenodd"/>
<path id="Shape2DView_nwe0251"  d="M -16.94 -1.28 Q -16.940000000000005 -0.9984389288724163 -16.94 -0.7168778577448323 Q -16.940000000000005 -0.5943731397848163 -16.94 -0.4718684218248004 Q -16.940000000000005 -0.012535699099324282 -16.94 0.0 " stroke="#191919" stroke-width="0.35 px" style="stroke-width:0.35;stroke-miterlimit:4;stroke-dasharray:none;fill:none;fill-opacity:1;fill-rule: evenodd"/>
<path id="Shape2DView_nwe0252"  d="M -14.17 -1.28 Q -14.169999999999998 -0.9984389288724163 -14.17 -0.7168778577448323 Q -14.169999999999998 -0.5943731397848163 -14.17 -0.4718684218248004 Q -14.169999999999998 -0.012535699099324282 -14.17 0.0 " stroke="#191919" stroke-width="0.35 px" style="stroke-width:0.35;stroke-miterlimit:4;stroke-dasharray:none;fill:none;fill-opacity:1;fill-rule: evenodd"/>
<path id="Shape2DView_nwe0253"  d="M -11.4 -1.28 Q -11.400000000000002 -0.9984389288724163 -11.4 -0.7168778577448323 Q -11.400000000000002 -0.5943731397848163 -11.4 -0.4718684218248004 Q -11.400000000000002 -0.012535699099324282 -11.4 0.0 " stroke="#191919" stroke-width="0.35 px" style="stroke-width:0.35;stroke-miterlimit:4;stroke-dasharray:none;fill:none;fill-opacity:1;fill-rule: evenodd"/>
<path id="Shape2DView_nwe0254"  d="M -22.48 -1.28 Q -22.479999999999997 -0.9984389288724163 -22.48 -0.7168778577448323 Q -22.479999999999997 -0.5943731397848163 -22.48 -0.4718684218248004 Q -22.479999999999997 -0.012535699099324282 -22.48 0.0 " stroke="#191919" stroke-width="0.35 px" style="stroke-width:0.35;stroke-miterlimit:4;stroke-dasharray:none;fill:none;fill-opacity:1;fill-rule: evenodd"/>
<path id="Shape2DView_nwe0255"  d="M -19.71 -1.28 Q -19.71 -0.9984389288724163 -19.71 -0.7168778577448323 Q -19.71 -0.5943731397848163 -19.71 -0.4718684218248004 Q -19.71 -0.012535699099324282 -19.71 0.0 " stroke="#191919" stroke-width="0.35 px" style="stroke-width:0.35;stroke-miterlimit:4;stroke-dasharray:none;fill:none;fill-opacity:1;fill-rule: evenodd"/>
<path id="Shape2DView_nwe0256"  d="M -23.865000000000002 -3.8200000000000003 Q -23.865 -3.5429615454460057 -23.865000000000002 -3.2659230908920107 Q -23.865 -3.1428062453911556 -23.865000000000002 -3.0196893998903014 Q -23.865000000000002 -2.55297697275601 -23.865000000000002 -2.54 " stroke="#191919" stroke-width="0.35 px" style="stroke-width:0.35;stroke-miterlimit:4;stroke-dasharray:none;fill:none;fill-opacity:1;fill-rule: evenodd"/>
<path id="Shape2DView_nwe0257"  d="M -21.095 -3.8200000000000003 Q -21.095 -3.5429615454460057 -21.095 -3.2659230908920107 Q -21.095 -3.1428062453911556 -21.095 -3.0196893998903014 Q -21.095 -2.55297697275601 -21.095 -2.54 " stroke="#191919" stroke-width="0.35 px" style="stroke-width:0.35;stroke-miterlimit:4;stroke-dasharray:none;fill:none;fill-opacity:1;fill-rule: evenodd"/>
<path id="Shape2DView_nwe0258"  d="M -15.555 -3.8200000000000003 Q -15.555 -3.5429615454460057 -15.555 -3.2659230908920107 Q -15.555 -3.1428062453911556 -15.555 -3.0196893998903014 Q -15.555 -2.55297697275601 -15.555 -2.54 " stroke="#191919" stroke-width="0.35 px" style="stroke-width:0.35;stroke-miterlimit:4;stroke-dasharray:none;fill:none;fill-opacity:1;fill-rule: evenodd"/>
<path id="Shape2DView_nwe0259"  d="M -18.325 -3.8200000000000003 Q -18.325000000000003 -3.5429615454460057 -18.325000000000003 -3.2659230908920107 Q -18.325000000000003 -3.1428062453911556 -18.325 -3.0196893998903014 Q -18.325 -2.55297697275601 -18.325 -2.54 " stroke="#191919" stroke-width="0.35 px" style="stroke-width:0.35;stroke-miterlimit:4;stroke-dasharray:none;fill:none;fill-opacity:1;fill-rule: evenodd"/>
<path id="Shape2DView_nwe0260"  d="M -4.4750000000000005 -3.8200000000000003 Q -4.475000000000001 -3.5429615454460057 -4.475000000000001 -3.2659230908920107 Q -4.475000000000001 -3.1428062453911556 -4.4750000000000005 -3.0196893998903014 Q -4.475 -2.55297697275601 -4.4750000000000005 -2.54 " stroke="#191919" stroke-width="0.35 px" style="stroke-width:0.35;stroke-miterlimit:4;stroke-dasharray:none;fill:none;fill-opacity:1;fill-rule: evenodd"/>
<path id="Shape2DView_nwe0261"  d="M -7.245 -3.8200000000000003 Q -7.245000000000001 -3.5429615454460057 -7.245000000000001 -3.2659230908920107 Q -7.245000000000001 -3.1428062453911556 -7.245 -3.0196893998903014 Q -7.245 -2.55297697275601 -7.245 -2.54 " stroke="#191919" stroke-width="0.35 px" style="stroke-width:0.35;stroke-miterlimit:4;stroke-dasharray:none;fill:none;fill-opacity:1;fill-rule: evenodd"/>
<path id="Shape2DView_nwe0262"  d="M -12.785 -3.8200000000000003 Q -12.785000000000002 -3.5429615454460057 -12.785 -3.2659230908920107 Q -12.785000000000002 -3.1428062453911556 -12.785 -3.0196893998903014 Q -12.785 -2.55297697275601 -12.785 -2.54 " stroke="#191919" stroke-width="0.35 px" style="stroke-width:0.35;stroke-miterlimit:4;stroke-dasharray:none;fill:none;fill-opacity:1;fill-rule: evenodd"/>
<path id="Shape2DView_nwe0263"  d="M -10.015 -3.8200000000000003 Q -10.015 -3.5429615454460057 -10.015 -3.2659230908920107 Q -10.015 -3.1428062453911556 -10.015 -3.0196893998903014 Q -10.015 -2.55297697275601 -10.015 -2.54 " stroke="#191919" stroke-width="0.35 px" style="stroke-width:0.35;stroke-miterlimit:4;stroke-dasharray:none;fill:none;fill-opacity:1;fill-rule: evenodd"/>
<path id="Shape2DView_nwe0264"  d="M -0.32 -1.28 Q -0.31999999999999995 -0.9984389288724163 -0.32 -0.7168778577448323 Q -0.31999999999999995 -0.5943731397848163 -0.32 -0.4718684218248004 Q -0.31999999999999995 -0.012535699099324282 -0.32 0.0 " stroke="#191919" stroke-width="0.35 px" style="stroke-width:0.35;stroke-miterlimit:4;stroke-dasharray:none;fill:none;fill-opacity:1;fill-rule: evenodd"/>
<path id="Shape2DView_nwe0265"  d="M -1.705 -3.8200000000000003 Q -1.705 -3.5429615454460057 -1.705 -3.2659230908920107 Q -1.705 -3.1428062453911556 -1.705 -3.0196893998903014 Q -1.705 -2.55297697275601 -1.705 -2.54 " stroke="#191919" stroke-width="0.35 px" style="stroke-width:0.35;stroke-miterlimit:4;stroke-dasharray:none;fill:none;fill-opacity:1;fill-rule: evenodd"/>
<path id="Shape2DView_nwe0266"  d="M -28.02 -1.28 Q -28.020000000000003 -0.9984389288724163 -28.02 -0.7168778577448323 Q -28.020000000000003 -0.5943731397848163 -28.02 -0.4718684218248004 Q -28.020000000000003 -0.012535699099324282 -28.02 0.0 " stroke="#191919" stroke-width="0.35 px" style="stroke-width:0.35;stroke-miterlimit:4;stroke-dasharray:none;fill:none;fill-opacity:1;fill-rule: evenodd"/>
<path id="Shape2DView_nwe0267"  d="M -25.25 -1.28 Q -25.25 -0.9984389288724163 -25.25 -0.7168778577448323 Q -25.25 -0.5943731397848163 -25.25 -0.4718684218248004 Q -25.25 -0.012535699099324282 -25.25 0.0 " stroke="#191919" stroke-width="0.35 px" style="stroke-width:0.35;stroke-miterlimit:4;stroke-dasharray:none;fill:none;fill-opacity:1;fill-rule: evenodd"/>
<path id="Shape2DView_nwe0268"  d="M -26.635 -3.8200000000000003 Q -26.635000000000005 -3.5429615454460057 -26.635000000000005 -3.2659230908920107 Q -26.635000000000005 -3.1428062453911556 -26.635 -3.0196893998903014 Q -26.635 -2.55297697275601 -26.635 -2.54 " stroke="#191919" stroke-width="0.35 px" style="stroke-width:0.35;stroke-miterlimit:4;stroke-dasharray:none;fill:none;fill-opacity:1;fill-rule: evenodd"/>
<path id="Shape2DView_nwe0269"  d="M -30.79 -1.28 Q -30.790000000000003 -0.9984389288724163 -30.79 -0.7168778577448323 Q -30.790000000000003 -0.5943731397848163 -30.79 -0.4718684218248004 Q -30.790000000000003 -0.012535699099324282 -30.79 0.0 " stroke="#191919" stroke-width="0.35 px" style="stroke-width:0.35;stroke-miterlimit:4;stroke-dasharray:none;fill:none;fill-opacity:1;fill-rule: evenodd"/>
<path id="Shape2DView_nwe0270"  d="M -29.405 -3.8200000000000003 Q -29.405 -3.5429615454460057 -29.405 -3.2659230908920107 Q -29.405 -3.1428062453911556 -29.405 -3.0196893998903014 Q -29.405 -2.55297697275601 -29.405 -2.54 " stroke="#191919" stroke-width="0.35 px" style="stroke-width:0.35;stroke-miterlimit:4;stroke-dasharray:none;fill:none;fill-opacity:1;fill-rule: evenodd"/>
<path id="Shape2DView_nwe0271"  d="M -32.175 -3.8200000000000003 Q -32.175 -3.5429615454460057 -32.175 -3.2659230908920107 Q -32.175 -3.1428062453911556 -32.175 -3.0196893998903014 Q -32.175 -2.55297697275601 -32.175 -2.54 " stroke="#191919" stroke-width="0.35 px" style="stroke-width:0.35;stroke-miterlimit:4;stroke-dasharray:none;fill:none;fill-opacity:1;fill-rule: evenodd"/>
<path id="Shape2DView_nwe0272"  d="M 2.339431920499 -12.84 Q 2.34717989885702 -12.77225961865261 2.35492787721504 -12.704519237305224 Q 2.384287894843861 -12.627733516422097 2.41364791247268 -12.550947795538972 Q 2.59176627920947 -12.252129505490128 2.9394319204989996 -12.24 " stroke="#191919" stroke-width="0.35 px" style="stroke-width:0.35;stroke-miterlimit:4;stroke-dasharray:none;fill:none;fill-opacity:1;fill-rule: evenodd"/>
<path id="Shape2DView_nwe0273"  d="M -35.57943192049 -12.84 Q -35.58717989816655 -12.772259618494653 -35.5949278758431 -12.70451923698931 Q -35.62543109604471 -12.625673246045567 -35.65593431624632 -12.546827255101828 Q -35.83467360085366 -12.251785780527218 -36.179431920489996 -12.24 " stroke="#191919" stroke-width="0.35 px" style="stroke-width:0.35;stroke-miterlimit:4;stroke-dasharray:none;fill:none;fill-opacity:1;fill-rule: evenodd"/>
<path id="Shape2DView_nwe0274"  d="M 2.339431920499 -12.84 L 2.339431920499 -17.990000000000002 " stroke="#191919" stroke-width="0.35 px" style="stroke-width:0.35;stroke-miterlimit:4;stroke-dasharray:none;fill:none;fill-opacity:1;fill-rule: evenodd"/>
<path id="Shape2DView_nwe0275"  d="M -35.57943192049 -12.84 L -35.57943192049 -17.990000000000002 " stroke="#191919" stroke-width="0.35 px" style="stroke-width:0.35;stroke-miterlimit:4;stroke-dasharray:none;fill:none;fill-opacity:1;fill-rule: evenodd"/>
<path id="Shape2DView_nwe0276"  d="M 2.2894319204990223 -18.04000000000002 L 2.339431920499 -17.99 " stroke="#191919" stroke-width="0.35 px" style="stroke-width:0.35;stroke-miterlimit:4;stroke-dasharray:none;fill:none;fill-opacity:1;fill-rule: evenodd"/>
<path id="Shape2DView_nwe0277"  d="M -35.529431920490026 -18.04000000000002 L -35.57943192049 -17.99 " stroke="#191919" stroke-width="0.35 px" style="stroke-width:0.35;stroke-miterlimit:4;stroke-dasharray:none;fill:none;fill-opacity:1;fill-rule: evenodd"/>
<path id="Shape2DView_nwe0278"  d="M -35.4740820053 -18.04 L -35.4740820053 -18.240000000000002 " stroke="#191919" stroke-width="0.35 px" style="stroke-width:0.35;stroke-miterlimit:4;stroke-dasharray:none;fill:none;fill-opacity:1;fill-rule: evenodd"/>
<path id="Shape2DView_nwe0279"  d="M 2.2340820053029997 -18.04 L 2.2340820053029997 -18.240000000000002 " stroke="#191919" stroke-width="0.35 px" style="stroke-width:0.35;stroke-miterlimit:4;stroke-dasharray:none;fill:none;fill-opacity:1;fill-rule: evenodd"/>
<path id="Shape2DView_nwe0280"  d="M -35.37408200530004 -18.340000000000046 L -35.4740820053 -18.24 " stroke="#191919" stroke-width="0.35 px" style="stroke-width:0.35;stroke-miterlimit:4;stroke-dasharray:none;fill:none;fill-opacity:1;fill-rule: evenodd"/>
<path id="Shape2DView_nwe0281"  d="M 2.1340820053030445 -18.340000000000042 L 2.2340820053029997 -18.24 " stroke="#191919" stroke-width="0.35 px" style="stroke-width:0.35;stroke-miterlimit:4;stroke-dasharray:none;fill:none;fill-opacity:1;fill-rule: evenodd"/>
<title>b'Shape2DView'</title>
</g>
<g id="Rectangle" transform="translate(43.701000,1.531000) scale(1,-1)">
<rect fill="#ff0000" id="origin" width="1" height="1" x="0" y="0" />
<title>b'Rectangle'</title>
</g>
</svg>