<?xml version="1.0"?>
<!DOCTYPE svg PUBLIC "-//W3C//DTD SVG 1.1//EN" "http://www.w3.org/Graphics/SVG/1.1/DTD/svg11.dtd">
<svg width="70.788mm" height="13.888000000000002mm" viewBox="0 0 70.788 13.888000000000002" xmlns="http://www.w3.org/2000/svg" version="1.1">
<g id="Shape2DView" transform="translate(11.896500,4.964000) scale(1,-1)">
<circle cx="48.2" cy="0.0" r="0.32" stroke="#191919" stroke-width="0.35 px" style="stroke-width:0.35;stroke-miterlimit:4;stroke-dasharray:none;fill:none"/>
<path id="Shape2DView_nwe0001"  d="M 48.654036250234 -5.63 A 1 1 0 0 1 49.6407 -4.79286" stroke="#191919" stroke-width="0.35 px" style="stroke-width:0.35;stroke-miterlimit:4;stroke-dasharray:none;fill:none;fill-opacity:1;fill-rule: evenodd"/>
<path id="Shape2DView_nwe0002"  d="M 48.654036250234 -5.63 L -1.6590362502340028 -5.63 " stroke="#191919" stroke-width="0.35 px" style="stroke-width:0.35;stroke-miterlimit:4;stroke-dasharray:none;fill:none;fill-opacity:1;fill-rule: evenodd"/>
<path id="Shape2DView_nwe0003"  d="M 50.51554769765479 0.5071354297760351 L 49.64068468395602 -4.792864570224003 " stroke="#191919" stroke-width="0.35 px" style="stroke-width:0.35;stroke-miterlimit:4;stroke-dasharray:none;fill:none;fill-opacity:1;fill-rule: evenodd"/>
<path id="Shape2DView_nwe0004"  d="M -2.64568468395584 -4.792864570223974 A 1 1 0 0 1 -1.65904 -5.63" stroke="#191919" stroke-width="0.35 px" style="stroke-width:0.35;stroke-miterlimit:4;stroke-dasharray:none;fill:none;fill-opacity:1;fill-rule: evenodd"/>
<path id="Shape2DView_nwe0005"  d="M 50.51554769765484 0.5071354297760264 A 1 1 0 0 1 49.5289 1.67" stroke="#191919" stroke-width="0.35 px" style="stroke-width:0.35;stroke-miterlimit:4;stroke-dasharray:none;fill:none;fill-opacity:1;fill-rule: evenodd"/>
<path id="Shape2DView_nwe0006"  d="M -2.6456846839561075 -4.792864570224018 L -3.5205476976548837 0.50713542977602 " stroke="#191919" stroke-width="0.35 px" style="stroke-width:0.35;stroke-miterlimit:4;stroke-dasharray:none;fill:none;fill-opacity:1;fill-rule: evenodd"/>
<path id="Shape2DView_nwe0007"  d="M -2.533899263933 1.67 L 49.528899263933 1.67 " stroke="#191919" stroke-width="0.35 px" style="stroke-width:0.35;stroke-miterlimit:4;stroke-dasharray:none;fill:none;fill-opacity:1;fill-rule: evenodd"/>
<path id="Shape2DView_nwe0008"  d="M -2.533899263933 1.67 A 1 1 0 0 1 -3.52055 0.507135" stroke="#191919" stroke-width="0.35 px" style="stroke-width:0.35;stroke-miterlimit:4;stroke-dasharray:none;fill:none;fill-opacity:1;fill-rule: evenodd"/>
<path id="Shape2DView_nwe0009"  d="M -3.056835510638 2.12 A 0.95 0.95 0 0 1 -3.99698 1.03351" stroke="#191919" stroke-width="0.35 px" style="stroke-width:0.35;stroke-miterlimit:4;stroke-dasharray:none;fill:none;fill-opacity:1;fill-rule: evenodd"/>
<path id="Shape2DView_nwe0010"  d="M 50.051835510638 2.12 L -3.0568355106380025 2.12 " stroke="#191919" stroke-width="0.35 px" style="stroke-width:0.35;stroke-miterlimit:4;stroke-dasharray:none;fill:none;fill-opacity:1;fill-rule: evenodd"/>
<path id="Shape2DView_nwe0011"  d="M 50.99197926308913 1.0335092503972814 A 0.95 0.95 0 0 1 50.0518 2.12" stroke="#191919" stroke-width="0.35 px" style="stroke-width:0.35;stroke-miterlimit:4;stroke-dasharray:none;fill:none;fill-opacity:1;fill-rule: evenodd"/>
<path id="Shape2DView_nwe0012"  d="M 50.077340708873 -5.266490749603 L 50.99197926308905 1.03350925039714 " stroke="#191919" stroke-width="0.35 px" style="stroke-width:0.35;stroke-miterlimit:4;stroke-dasharray:none;fill:none;fill-opacity:1;fill-rule: evenodd"/>
<path id="Shape2DView_nwe0013"  d="M 49.137196956422 -6.08 A 0.95 0.95 0 0 1 50.0773 -5.26649" stroke="#191919" stroke-width="0.35 px" style="stroke-width:0.35;stroke-miterlimit:4;stroke-dasharray:none;fill:none;fill-opacity:1;fill-rule: evenodd"/>
<path id="Shape2DView_nwe0014"  d="M -2.142196956422 -6.08 L 49.137196956422 -6.08 " stroke="#191919" stroke-width="0.35 px" style="stroke-width:0.35;stroke-miterlimit:4;stroke-dasharray:none;fill:none;fill-opacity:1;fill-rule: evenodd"/>
<path id="Shape2DView_nwe0015"  d="M -3.082340708873128 -5.266490749602719 A 0.95 0.95 0 0 1 -2.1422 -6.08" stroke="#191919" stroke-width="0.35 px" style="stroke-width:0.35;stroke-miterlimit:4;stroke-dasharray:none;fill:none;fill-opacity:1;fill-rule: evenodd"/>
<path id="Shape2DView_nwe0016"  d="M -3.99697926309 1.033509250397 L -3.082340708873956 -5.26649074960314 " stroke="#191919" stroke-width="0.35 px" style="stroke-width:0.35;stroke-miterlimit:4;stroke-dasharray:none;fill:none;fill-opacity:1;fill-rule: evenodd"/>
<circle cx="2.41" cy="-3.96" r="0.32" stroke="#191919" stroke-width="0.35 px" style="stroke-width:0.35;stroke-miterlimit:4;stroke-dasharray:none;fill:none"/>
<circle cx="3.615" cy="-1.98" r="0.32" stroke="#191919" stroke-width="0.35 px" style="stroke-width:0.35;stroke-miterlimit:4;stroke-dasharray:none;fill:none"/>
<circle cx="4.82" cy="-3.96" r="0.32" stroke="#191919" stroke-width="0.35 px" style="stroke-width:0.35;stroke-miterlimit:4;stroke-dasharray:none;fill:none"/>
<circle cx="8.435" cy="-1.98" r="0.32" stroke="#191919" stroke-width="0.35 px" style="stroke-width:0.35;stroke-miterlimit:4;stroke-dasharray:none;fill:none"/>
<circle cx="6.025" cy="-1.98" r="0.32" stroke="#191919" stroke-width="0.35 px" style="stroke-width:0.35;stroke-miterlimit:4;stroke-dasharray:none;fill:none"/>
<circle cx="7.23" cy="-3.96" r="0.32" stroke="#191919" stroke-width="0.35 px" style="stroke-width:0.35;stroke-miterlimit:4;stroke-dasharray:none;fill:none"/>
<circle cx="2.41" cy="0.0" r="0.32" stroke="#191919" stroke-width="0.35 px" style="stroke-width:0.35;stroke-miterlimit:4;stroke-dasharray:none;fill:none"/>
<circle cx="4.82" cy="-4.819268526715e-31" r="0.32" stroke="#191919" stroke-width="0.35 px" style="stroke-width:0.35;stroke-miterlimit:4;stroke-dasharray:none;fill:none"/>
<circle cx="7.23" cy="-4.819268526715e-31" r="0.32" stroke="#191919" stroke-width="0.35 px" style="stroke-width:0.35;stroke-miterlimit:4;stroke-dasharray:none;fill:none"/>
<circle cx="14.46" cy="-4.819268526715e-31" r="0.32" stroke="#191919" stroke-width="0.35 px" style="stroke-width:0.35;stroke-miterlimit:4;stroke-dasharray:none;fill:none"/>
<circle cx="13.255" cy="-1.98" r="0.32" stroke="#191919" stroke-width="0.35 px" style="stroke-width:0.35;stroke-miterlimit:4;stroke-dasharray:none;fill:none"/>
<circle cx="12.05" cy="-4.819268526715e-31" r="0.32" stroke="#191919" stroke-width="0.35 px" style="stroke-width:0.35;stroke-miterlimit:4;stroke-dasharray:none;fill:none"/>
<circle cx="12.05" cy="-3.96" r="0.32" stroke="#191919" stroke-width="0.35 px" style="stroke-width:0.35;stroke-miterlimit:4;stroke-dasharray:none;fill:none"/>
<circle cx="14.46" cy="-3.96" r="0.32" stroke="#191919" stroke-width="0.35 px" style="stroke-width:0.35;stroke-miterlimit:4;stroke-dasharray:none;fill:none"/>
<circle cx="9.64" cy="-4.819268526715e-31" r="0.32" stroke="#191919" stroke-width="0.35 px" style="stroke-width:0.35;stroke-miterlimit:4;stroke-dasharray:none;fill:none"/>
<circle cx="9.64" cy="-3.96" r="0.32" stroke="#191919" stroke-width="0.35 px" style="stroke-width:0.35;stroke-miterlimit:4;stroke-dasharray:none;fill:none"/>
<circle cx="10.845" cy="-1.98" r="0.32" stroke="#191919" stroke-width="0.35 px" style="stroke-width:0.35;stroke-miterlimit:4;stroke-dasharray:none;fill:none"/>
<circle cx="22.895" cy="-1.98" r="0.32" stroke="#191919" stroke-width="0.35 px" style="stroke-width:0.35;stroke-miterlimit:4;stroke-dasharray:none;fill:none"/>
<circle cx="21.69" cy="-4.819268526715e-31" r="0.32" stroke="#191919" stroke-width="0.35 px" style="stroke-width:0.35;stroke-miterlimit:4;stroke-dasharray:none;fill:none"/>
<circle cx="20.485" cy="-1.98" r="0.32" stroke="#191919" stroke-width="0.35 px" style="stroke-width:0.35;stroke-miterlimit:4;stroke-dasharray:none;fill:none"/>
<circle cx="16.87" cy="-4.819268526715e-31" r="0.32" stroke="#191919" stroke-width="0.35 px" style="stroke-width:0.35;stroke-miterlimit:4;stroke-dasharray:none;fill:none"/>
<circle cx="18.075" cy="-1.98" r="0.32" stroke="#191919" stroke-width="0.35 px" style="stroke-width:0.35;stroke-miterlimit:4;stroke-dasharray:none;fill:none"/>
<circle cx="19.28" cy="-4.819268526715e-31" r="0.32" stroke="#191919" stroke-width="0.35 px" style="stroke-width:0.35;stroke-miterlimit:4;stroke-dasharray:none;fill:none"/>
<circle cx="19.28" cy="-3.96" r="0.32" stroke="#191919" stroke-width="0.35 px" style="stroke-width:0.35;stroke-miterlimit:4;stroke-dasharray:none;fill:none"/>
<circle cx="21.69" cy="-3.96" r="0.32" stroke="#191919" stroke-width="0.35 px" style="stroke-width:0.35;stroke-miterlimit:4;stroke-dasharray:none;fill:none"/>
<circle cx="16.87" cy="-3.96" r="0.32" stroke="#191919" stroke-width="0.35 px" style="stroke-width:0.35;stroke-miterlimit:4;stroke-dasharray:none;fill:none"/>
<circle cx="15.665" cy="-1.98" r="0.32" stroke="#191919" stroke-width="0.35 px" style="stroke-width:0.35;stroke-miterlimit:4;stroke-dasharray:none;fill:none"/>
<circle cx="45.79" cy="0.0" r="0.32" stroke="#191919" stroke-width="0.35 px" style="stroke-width:0.35;stroke-miterlimit:4;stroke-dasharray:none;fill:none"/>
<circle cx="44.585" cy="-1.98" r="0.32" stroke="#191919" stroke-width="0.35 px" style="stroke-width:0.35;stroke-miterlimit:4;stroke-dasharray:none;fill:none"/>
<circle cx="43.38" cy="0.0" r="0.32" stroke="#191919" stroke-width="0.35 px" style="stroke-width:0.35;stroke-miterlimit:4;stroke-dasharray:none;fill:none"/>
<circle cx="43.38" cy="-3.96" r="0.32" stroke="#191919" stroke-width="0.35 px" style="stroke-width:0.35;stroke-miterlimit:4;stroke-dasharray:none;fill:none"/>
<circle cx="45.79" cy="-3.96" r="0.32" stroke="#191919" stroke-width="0.35 px" style="stroke-width:0.35;stroke-miterlimit:4;stroke-dasharray:none;fill:none"/>
<circle cx="40.97" cy="-3.96" r="0.32" stroke="#191919" stroke-width="0.35 px" style="stroke-width:0.35;stroke-miterlimit:4;stroke-dasharray:none;fill:none"/>
<circle cx="40.97" cy="0.0" r="0.32" stroke="#191919" stroke-width="0.35 px" style="stroke-width:0.35;stroke-miterlimit:4;stroke-dasharray:none;fill:none"/>
<circle cx="42.175" cy="-1.98" r="0.32" stroke="#191919" stroke-width="0.35 px" style="stroke-width:0.35;stroke-miterlimit:4;stroke-dasharray:none;fill:none"/>
<circle cx="36.15" cy="-3.96" r="0.32" stroke="#191919" stroke-width="0.35 px" style="stroke-width:0.35;stroke-miterlimit:4;stroke-dasharray:none;fill:none"/>
<circle cx="38.56" cy="-3.96" r="0.32" stroke="#191919" stroke-width="0.35 px" style="stroke-width:0.35;stroke-miterlimit:4;stroke-dasharray:none;fill:none"/>
<circle cx="37.355" cy="-1.98" r="0.32" stroke="#191919" stroke-width="0.35 px" style="stroke-width:0.35;stroke-miterlimit:4;stroke-dasharray:none;fill:none"/>
<circle cx="38.56" cy="0.0" r="0.32" stroke="#191919" stroke-width="0.35 px" style="stroke-width:0.35;stroke-miterlimit:4;stroke-dasharray:none;fill:none"/>
<circle cx="36.15" cy="0.0" r="0.32" stroke="#191919" stroke-width="0.35 px" style="stroke-width:0.35;stroke-miterlimit:4;stroke-dasharray:none;fill:none"/>
<circle cx="39.765" cy="-1.98" r="0.32" stroke="#191919" stroke-width="0.35 px" style="stroke-width:0.35;stroke-miterlimit:4;stroke-dasharray:none;fill:none"/>
<circle cx="26.51" cy="-3.96" r="0.32" stroke="#191919" stroke-width="0.35 px" style="stroke-width:0.35;stroke-miterlimit:4;stroke-dasharray:none;fill:none"/>
<circle cx="27.715" cy="-1.98" r="0.32" stroke="#191919" stroke-width="0.35 px" style="stroke-width:0.35;stroke-miterlimit:4;stroke-dasharray:none;fill:none"/>
<circle cx="26.51" cy="-4.819268526715e-31" r="0.32" stroke="#191919" stroke-width="0.35 px" style="stroke-width:0.35;stroke-miterlimit:4;stroke-dasharray:none;fill:none"/>
<circle cx="33.74" cy="0.0" r="0.32" stroke="#191919" stroke-width="0.35 px" style="stroke-width:0.35;stroke-miterlimit:4;stroke-dasharray:none;fill:none"/>
<circle cx="31.33" cy="-4.819268526715e-31" r="0.32" stroke="#191919" stroke-width="0.35 px" style="stroke-width:0.35;stroke-miterlimit:4;stroke-dasharray:none;fill:none"/>
<circle cx="28.92" cy="-4.819268526715e-31" r="0.32" stroke="#191919" stroke-width="0.35 px" style="stroke-width:0.35;stroke-miterlimit:4;stroke-dasharray:none;fill:none"/>
<circle cx="33.74" cy="-3.96" r="0.32" stroke="#191919" stroke-width="0.35 px" style="stroke-width:0.35;stroke-miterlimit:4;stroke-dasharray:none;fill:none"/>
<circle cx="31.33" cy="-3.96" r="0.32" stroke="#191919" stroke-width="0.35 px" style="stroke-width:0.35;stroke-miterlimit:4;stroke-dasharray:none;fill:none"/>
<circle cx="30.125" cy="-1.98" r="0.32" stroke="#191919" stroke-width="0.35 px" style="stroke-width:0.35;stroke-miterlimit:4;stroke-dasharray:none;fill:none"/>
<circle cx="32.535" cy="-1.98" r="0.32" stroke="#191919" stroke-width="0.35 px" style="stroke-width:0.35;stroke-miterlimit:4;stroke-dasharray:none;fill:none"/>
<circle cx="28.92" cy="-3.96" r="0.32" stroke="#191919" stroke-width="0.35 px" style="stroke-width:0.35;stroke-miterlimit:4;stroke-dasharray:none;fill:none"/>
<circle cx="34.945" cy="-1.98" r="0.32" stroke="#191919" stroke-width="0.35 px" style="stroke-width:0.35;stroke-miterlimit:4;stroke-dasharray:none;fill:none"/>
<circle cx="24.1" cy="-4.819268526715e-31" r="0.32" stroke="#191919" stroke-width="0.35 px" style="stroke-width:0.35;stroke-miterlimit:4;stroke-dasharray:none;fill:none"/>
<circle cx="25.305" cy="-1.98" r="0.32" stroke="#191919" stroke-width="0.35 px" style="stroke-width:0.35;stroke-miterlimit:4;stroke-dasharray:none;fill:none"/>
<circle cx="24.1" cy="-3.96" r="0.32" stroke="#191919" stroke-width="0.35 px" style="stroke-width:0.35;stroke-miterlimit:4;stroke-dasharray:none;fill:none"/>
<circle cx="1.205" cy="-1.98" r="0.32" stroke="#191919" stroke-width="0.35 px" style="stroke-width:0.35;stroke-miterlimit:4;stroke-dasharray:none;fill:none"/>
<circle cx="46.995" cy="-1.98" r="0.32" stroke="#191919" stroke-width="0.35 px" style="stroke-width:0.35;stroke-miterlimit:4;stroke-dasharray:none;fill:none"/>
<circle cx="1.926785388447e-47" cy="-3.96" r="0.32" stroke="#191919" stroke-width="0.35 px" style="stroke-width:0.35;stroke-miterlimit:4;stroke-dasharray:none;fill:none"/>
<circle cx="0.0" cy="0.0" r="0.32" stroke="#191919" stroke-width="0.35 px" style="stroke-width:0.35;stroke-miterlimit:4;stroke-dasharray:none;fill:none"/>
<circle cx="-1.205" cy="-1.98" r="0.32" stroke="#191919" stroke-width="0.35 px" style="stroke-width:0.35;stroke-miterlimit:4;stroke-dasharray:none;fill:none"/>
<path id="Shape2DView_nwe0078"  d="M -3.056835510638 2.17 A 1 1 0 0 1 -4.04646 1.02633" stroke="#191919" stroke-width="0.35 px" style="stroke-width:0.35;stroke-miterlimit:4;stroke-dasharray:none;fill:none;fill-opacity:1;fill-rule: evenodd"/>
<path id="Shape2DView_nwe0079"  d="M 50.051835510638 2.17 L -3.0568355106380025 2.17 " stroke="#191919" stroke-width="0.35 px" style="stroke-width:0.35;stroke-miterlimit:4;stroke-dasharray:none;fill:none;fill-opacity:1;fill-rule: evenodd"/>
<path id="Shape2DView_nwe0080"  d="M -4.046460513219 1.026325526734 L -3.131821959002956 -5.273674473266141 " stroke="#191919" stroke-width="0.35 px" style="stroke-width:0.35;stroke-miterlimit:4;stroke-dasharray:none;fill:none;fill-opacity:1;fill-rule: evenodd"/>
<path id="Shape2DView_nwe0081"  d="M 51.041460513218134 1.0263255267339804 A 1 1 0 0 1 50.0518 2.17" stroke="#191919" stroke-width="0.35 px" style="stroke-width:0.35;stroke-miterlimit:4;stroke-dasharray:none;fill:none;fill-opacity:1;fill-rule: evenodd"/>
<path id="Shape2DView_nwe0082"  d="M -3.131821959002135 -5.27367447326602 A 1 1 0 0 1 -2.1422 -6.13" stroke="#191919" stroke-width="0.35 px" style="stroke-width:0.35;stroke-miterlimit:4;stroke-dasharray:none;fill:none;fill-opacity:1;fill-rule: evenodd"/>
<path id="Shape2DView_nwe0083"  d="M 50.126821959002 -5.273674473266 L 51.04146051321805 1.0263255267341398 " stroke="#191919" stroke-width="0.35 px" style="stroke-width:0.35;stroke-miterlimit:4;stroke-dasharray:none;fill:none;fill-opacity:1;fill-rule: evenodd"/>
<path id="Shape2DView_nwe0084"  d="M -2.142196956422 -6.13 L 49.137196956422 -6.13 " stroke="#191919" stroke-width="0.35 px" style="stroke-width:0.35;stroke-miterlimit:4;stroke-dasharray:none;fill:none;fill-opacity:1;fill-rule: evenodd"/>
<path id="Shape2DView_nwe0085"  d="M 49.137196956422 -6.13 A 1 1 0 0 1 50.1268 -5.27367" stroke="#191919" stroke-width="0.35 px" style="stroke-width:0.35;stroke-miterlimit:4;stroke-dasharray:none;fill:none;fill-opacity:1;fill-rule: evenodd"/>
<path id="Shape2DView_nwe0086"  d="M -11.2025 3.27 L -11.2025 -7.23 " stroke="#191919" stroke-width="0.35 px" style="stroke-width:0.35;stroke-miterlimit:4;stroke-dasharray:none;fill:none;fill-opacity:1;fill-rule: evenodd"/>
<path id="Shape2DView_nwe0087"  d="M -10.2025 4.27 A 1 1 0 0 1 -11.2025 3.27" stroke="#191919" stroke-width="0.35 px" style="stroke-width:0.35;stroke-miterlimit:4;stroke-dasharray:none;fill:none;fill-opacity:1;fill-rule: evenodd"/>
<path id="Shape2DView_nwe0088"  d="M -11.2025 -7.23 A 1 1 0 0 1 -10.2025 -8.23" stroke="#191919" stroke-width="0.35 px" style="stroke-width:0.35;stroke-miterlimit:4;stroke-dasharray:none;fill:none;fill-opacity:1;fill-rule: evenodd"/>
<path id="Shape2DView_nwe0089"  d="M 57.1975 4.27 L -10.202500000000008 4.27 " stroke="#191919" stroke-width="0.35 px" style="stroke-width:0.35;stroke-miterlimit:4;stroke-dasharray:none;fill:none;fill-opacity:1;fill-rule: evenodd"/>
<path id="Shape2DView_nwe0090"  d="M -10.2025 -8.23 L 57.197500000000005 -8.23 " stroke="#191919" stroke-width="0.35 px" style="stroke-width:0.35;stroke-miterlimit:4;stroke-dasharray:none;fill:none;fill-opacity:1;fill-rule: evenodd"/>
<path id="Shape2DView_nwe0091"  d="M 58.1975 3.27 A 1 1 0 0 1 57.1975 4.27" stroke="#191919" stroke-width="0.35 px" style="stroke-width:0.35;stroke-miterlimit:4;stroke-dasharray:none;fill:none;fill-opacity:1;fill-rule: evenodd"/>
<path id="Shape2DView_nwe0092"  d="M 57.1975 -8.23 A 1 1 0 0 1 58.1975 -7.23" stroke="#191919" stroke-width="0.35 px" style="stroke-width:0.35;stroke-miterlimit:4;stroke-dasharray:none;fill:none;fill-opacity:1;fill-rule: evenodd"/>
<path id="Shape2DView_nwe0093"  d="M 58.1975 -7.23 L 58.1975 3.2699999999999996 " stroke="#191919" stroke-width="0.35 px" style="stroke-width:0.35;stroke-miterlimit:4;stroke-dasharray:none;fill:none;fill-opacity:1;fill-rule: evenodd"/>
<circle cx="-8.2525" cy="-1.98" r="1.6" stroke="#191919" stroke-width="0.35 px" style="stroke-width:0.35;stroke-miterlimit:4;stroke-dasharray:none;fill:none"/>
<circle cx="55.2475" cy="-1.98" r="1.6" stroke="#191919" stroke-width="0.35 px" style="stroke-width:0.35;stroke-miterlimit:4;stroke-dasharray:none;fill:none"/>
<circle cx="55.2475" cy="-1.98" r="1.6" stroke="#191919" stroke-width="0.35 px" style="stroke-width:0.35;stroke-miterlimit:4;stroke-dasharray:none;fill:none"/>
<circle cx="48.2" cy="0.0" r="0.16" stroke="#191919" stroke-width="0.35 px" style="stroke-width:0.35;stroke-miterlimit:4;stroke-dasharray:none;fill:none"/>
<circle cx="2.41" cy="-3.96" r="0.32" stroke="#191919" stroke-width="0.35 px" style="stroke-width:0.35;stroke-miterlimit:4;stroke-dasharray:none;fill:none"/>
<circle cx="3.615" cy="-1.98" r="0.32" stroke="#191919" stroke-width="0.35 px" style="stroke-width:0.35;stroke-miterlimit:4;stroke-dasharray:none;fill:none"/>
<circle cx="4.82" cy="-3.96" r="0.32" stroke="#191919" stroke-width="0.35 px" style="stroke-width:0.35;stroke-miterlimit:4;stroke-dasharray:none;fill:none"/>
<circle cx="8.435" cy="-1.98" r="0.32" stroke="#191919" stroke-width="0.35 px" style="stroke-width:0.35;stroke-miterlimit:4;stroke-dasharray:none;fill:none"/>
<circle cx="6.025" cy="-1.98" r="0.32" stroke="#191919" stroke-width="0.35 px" style="stroke-width:0.35;stroke-miterlimit:4;stroke-dasharray:none;fill:none"/>
<circle cx="7.23" cy="-3.96" r="0.32" stroke="#191919" stroke-width="0.35 px" style="stroke-width:0.35;stroke-miterlimit:4;stroke-dasharray:none;fill:none"/>
<circle cx="2.41" cy="0.0" r="0.32" stroke="#191919" stroke-width="0.35 px" style="stroke-width:0.35;stroke-miterlimit:4;stroke-dasharray:none;fill:none"/>
<circle cx="4.82" cy="-4.819268526715e-31" r="0.32" stroke="#191919" stroke-width="0.35 px" style="stroke-width:0.35;stroke-miterlimit:4;stroke-dasharray:none;fill:none"/>
<circle cx="7.23" cy="-4.819268526715e-31" r="0.32" stroke="#191919" stroke-width="0.35 px" style="stroke-width:0.35;stroke-miterlimit:4;stroke-dasharray:none;fill:none"/>
<circle cx="14.46" cy="-4.819268526715e-31" r="0.32" stroke="#191919" stroke-width="0.35 px" style="stroke-width:0.35;stroke-miterlimit:4;stroke-dasharray:none;fill:none"/>
<circle cx="13.255" cy="-1.98" r="0.32" stroke="#191919" stroke-width="0.35 px" style="stroke-width:0.35;stroke-miterlimit:4;stroke-dasharray:none;fill:none"/>
<circle cx="12.05" cy="-4.819268526715e-31" r="0.32" stroke="#191919" stroke-width="0.35 px" style="stroke-width:0.35;stroke-miterlimit:4;stroke-dasharray:none;fill:none"/>
<circle cx="12.05" cy="-3.96" r="0.32" stroke="#191919" stroke-width="0.35 px" style="stroke-width:0.35;stroke-miterlimit:4;stroke-dasharray:none;fill:none"/>
<circle cx="14.46" cy="-3.96" r="0.32" stroke="#191919" stroke-width="0.35 px" style="stroke-width:0.35;stroke-miterlimit:4;stroke-dasharray:none;fill:none"/>
<circle cx="9.64" cy="-4.819268526715e-31" r="0.32" stroke="#191919" stroke-width="0.35 px" style="stroke-width:0.35;stroke-miterlimit:4;stroke-dasharray:none;fill:none"/>
<circle cx="9.64" cy="-3.96" r="0.32" stroke="#191919" stroke-width="0.35 px" style="stroke-width:0.35;stroke-miterlimit:4;stroke-dasharray:none;fill:none"/>
<circle cx="10.845" cy="-1.98" r="0.32" stroke="#191919" stroke-width="0.35 px" style="stroke-width:0.35;stroke-miterlimit:4;stroke-dasharray:none;fill:none"/>
<circle cx="22.895" cy="-1.98" r="0.32" stroke="#191919" stroke-width="0.35 px" style="stroke-width:0.35;stroke-miterlimit:4;stroke-dasharray:none;fill:none"/>
<circle cx="21.69" cy="-4.819268526715e-31" r="0.32" stroke="#191919" stroke-width="0.35 px" style="stroke-width:0.35;stroke-miterlimit:4;stroke-dasharray:none;fill:none"/>
<circle cx="20.485" cy="-1.98" r="0.32" stroke="#191919" stroke-width="0.35 px" style="stroke-width:0.35;stroke-miterlimit:4;stroke-dasharray:none;fill:none"/>
<circle cx="16.87" cy="-4.819268526715e-31" r="0.32" stroke="#191919" stroke-width="0.35 px" style="stroke-width:0.35;stroke-miterlimit:4;stroke-dasharray:none;fill:none"/>
<circle cx="18.075" cy="-1.98" r="0.32" stroke="#191919" stroke-width="0.35 px" style="stroke-width:0.35;stroke-miterlimit:4;stroke-dasharray:none;fill:none"/>
<circle cx="19.28" cy="-4.819268526715e-31" r="0.32" stroke="#191919" stroke-width="0.35 px" style="stroke-width:0.35;stroke-miterlimit:4;stroke-dasharray:none;fill:none"/>
<circle cx="19.28" cy="-3.96" r="0.32" stroke="#191919" stroke-width="0.35 px" style="stroke-width:0.35;stroke-miterlimit:4;stroke-dasharray:none;fill:none"/>
<circle cx="21.69" cy="-3.96" r="0.32" stroke="#191919" stroke-width="0.35 px" style="stroke-width:0.35;stroke-miterlimit:4;stroke-dasharray:none;fill:none"/>
<circle cx="16.87" cy="-3.96" r="0.32" stroke="#191919" stroke-width="0.35 px" style="stroke-width:0.35;stroke-miterlimit:4;stroke-dasharray:none;fill:none"/>
<circle cx="15.665" cy="-1.98" r="0.32" stroke="#191919" stroke-width="0.35 px" style="stroke-width:0.35;stroke-miterlimit:4;stroke-dasharray:none;fill:none"/>
<circle cx="45.79" cy="0.0" r="0.32" stroke="#191919" stroke-width="0.35 px" style="stroke-width:0.35;stroke-miterlimit:4;stroke-dasharray:none;fill:none"/>
<circle cx="44.585" cy="-1.98" r="0.32" stroke="#191919" stroke-width="0.35 px" style="stroke-width:0.35;stroke-miterlimit:4;stroke-dasharray:none;fill:none"/>
<circle cx="43.38" cy="0.0" r="0.32" stroke="#191919" stroke-width="0.35 px" style="stroke-width:0.35;stroke-miterlimit:4;stroke-dasharray:none;fill:none"/>
<circle cx="43.38" cy="-3.96" r="0.32" stroke="#191919" stroke-width="0.35 px" style="stroke-width:0.35;stroke-miterlimit:4;stroke-dasharray:none;fill:none"/>
<circle cx="45.79" cy="-3.96" r="0.32" stroke="#191919" stroke-width="0.35 px" style="stroke-width:0.35;stroke-miterlimit:4;stroke-dasharray:none;fill:none"/>
<circle cx="40.97" cy="-3.96" r="0.32" stroke="#191919" stroke-width="0.35 px" style="stroke-width:0.35;stroke-miterlimit:4;stroke-dasharray:none;fill:none"/>
<circle cx="40.97" cy="0.0" r="0.32" stroke="#191919" stroke-width="0.35 px" style="stroke-width:0.35;stroke-miterlimit:4;stroke-dasharray:none;fill:none"/>
<circle cx="42.175" cy="-1.98" r="0.32" stroke="#191919" stroke-width="0.35 px" style="stroke-width:0.35;stroke-miterlimit:4;stroke-dasharray:none;fill:none"/>
<circle cx="36.15" cy="-3.96" r="0.32" stroke="#191919" stroke-width="0.35 px" style="stroke-width:0.35;stroke-miterlimit:4;stroke-dasharray:none;fill:none"/>
<circle cx="38.56" cy="-3.96" r="0.32" stroke="#191919" stroke-width="0.35 px" style="stroke-width:0.35;stroke-miterlimit:4;stroke-dasharray:none;fill:none"/>
<circle cx="37.355" cy="-1.98" r="0.32" stroke="#191919" stroke-width="0.35 px" style="stroke-width:0.35;stroke-miterlimit:4;stroke-dasharray:none;fill:none"/>
<circle cx="38.56" cy="0.0" r="0.32" stroke="#191919" stroke-width="0.35 px" style="stroke-width:0.35;stroke-miterlimit:4;stroke-dasharray:none;fill:none"/>
<circle cx="36.15" cy="0.0" r="0.32" stroke="#191919" stroke-width="0.35 px" style="stroke-width:0.35;stroke-miterlimit:4;stroke-dasharray:none;fill:none"/>
<circle cx="39.765" cy="-1.98" r="0.32" stroke="#191919" stroke-width="0.35 px" style="stroke-width:0.35;stroke-miterlimit:4;stroke-dasharray:none;fill:none"/>
<circle cx="26.51" cy="-3.96" r="0.32" stroke="#191919" stroke-width="0.35 px" style="stroke-width:0.35;stroke-miterlimit:4;stroke-dasharray:none;fill:none"/>
<circle cx="27.715" cy="-1.98" r="0.32" stroke="#191919" stroke-width="0.35 px" style="stroke-width:0.35;stroke-miterlimit:4;stroke-dasharray:none;fill:none"/>
<circle cx="26.51" cy="-4.819268526715e-31" r="0.32" stroke="#191919" stroke-width="0.35 px" style="stroke-width:0.35;stroke-miterlimit:4;stroke-dasharray:none;fill:none"/>
<circle cx="33.74" cy="0.0" r="0.32" stroke="#191919" stroke-width="0.35 px" style="stroke-width:0.35;stroke-miterlimit:4;stroke-dasharray:none;fill:none"/>
<circle cx="31.33" cy="-4.819268526715e-31" r="0.32" stroke="#191919" stroke-width="0.35 px" style="stroke-width:0.35;stroke-miterlimit:4;stroke-dasharray:none;fill:none"/>
<circle cx="28.92" cy="-4.819268526715e-31" r="0.32" stroke="#191919" stroke-width="0.35 px" style="stroke-width:0.35;stroke-miterlimit:4;stroke-dasharray:none;fill:none"/>
<circle cx="33.74" cy="-3.96" r="0.32" stroke="#191919" stroke-width="0.35 px" style="stroke-width:0.35;stroke-miterlimit:4;stroke-dasharray:none;fill:none"/>
<circle cx="31.33" cy="-3.96" r="0.32" stroke="#191919" stroke-width="0.35 px" style="stroke-width:0.35;stroke-miterlimit:4;stroke-dasharray:none;fill:none"/>
<circle cx="30.125" cy="-1.98" r="0.32" stroke="#191919" stroke-width="0.35 px" style="stroke-width:0.35;stroke-miterlimit:4;stroke-dasharray:none;fill:none"/>
<circle cx="32.535" cy="-1.98" r="0.32" stroke="#191919" stroke-width="0.35 px" style="stroke-width:0.35;stroke-miterlimit:4;stroke-dasharray:none;fill:none"/>
<circle cx="28.92" cy="-3.96" r="0.32" stroke="#191919" stroke-width="0.35 px" style="stroke-width:0.35;stroke-miterlimit:4;stroke-dasharray:none;fill:none"/>
<circle cx="34.945" cy="-1.98" r="0.32" stroke="#191919" stroke-width="0.35 px" style="stroke-width:0.35;stroke-miterlimit:4;stroke-dasharray:none;fill:none"/>
<circle cx="24.1" cy="-4.819268526715e-31" r="0.32" stroke="#191919" stroke-width="0.35 px" style="stroke-width:0.35;stroke-miterlimit:4;stroke-dasharray:none;fill:none"/>
<circle cx="25.305" cy="-1.98" r="0.32" stroke="#191919" stroke-width="0.35 px" style="stroke-width:0.35;stroke-miterlimit:4;stroke-dasharray:none;fill:none"/>
<circle cx="24.1" cy="-3.96" r="0.32" stroke="#191919" stroke-width="0.35 px" style="stroke-width:0.35;stroke-miterlimit:4;stroke-dasharray:none;fill:none"/>
<circle cx="1.205" cy="-1.98" r="0.32" stroke="#191919" stroke-width="0.35 px" style="stroke-width:0.35;stroke-miterlimit:4;stroke-dasharray:none;fill:none"/>
<circle cx="46.995" cy="-1.98" r="0.32" stroke="#191919" stroke-width="0.35 px" style="stroke-width:0.35;stroke-miterlimit:4;stroke-dasharray:none;fill:none"/>
<circle cx="1.926785388447e-47" cy="-3.96" r="0.32" stroke="#191919" stroke-width="0.35 px" style="stroke-width:0.35;stroke-miterlimit:4;stroke-dasharray:none;fill:none"/>
<circle cx="0.0" cy="0.0" r="0.32" stroke="#191919" stroke-width="0.35 px" style="stroke-width:0.35;stroke-miterlimit:4;stroke-dasharray:none;fill:none"/>
<circle cx="-1.205" cy="-1.98" r="0.32" stroke="#191919" stroke-width="0.35 px" style="stroke-width:0.35;stroke-miterlimit:4;stroke-dasharray:none;fill:none"/>
<circle cx="2.41" cy="-3.96" r="0.16" stroke="#191919" stroke-width="0.35 px" style="stroke-width:0.35;stroke-miterlimit:4;stroke-dasharray:none;fill:none"/>
<circle cx="3.615" cy="-1.98" r="0.16" stroke="#191919" stroke-width="0.35 px" style="stroke-width:0.35;stroke-miterlimit:4;stroke-dasharray:none;fill:none"/>
<circle cx="4.82" cy="-3.96" r="0.16" stroke="#191919" stroke-width="0.35 px" style="stroke-width:0.35;stroke-miterlimit:4;stroke-dasharray:none;fill:none"/>
<circle cx="8.435" cy="-1.98" r="0.16" stroke="#191919" stroke-width="0.35 px" style="stroke-width:0.35;stroke-miterlimit:4;stroke-dasharray:none;fill:none"/>
<circle cx="6.025" cy="-1.98" r="0.16" stroke="#191919" stroke-width="0.35 px" style="stroke-width:0.35;stroke-miterlimit:4;stroke-dasharray:none;fill:none"/>
<circle cx="7.23" cy="-3.96" r="0.16" stroke="#191919" stroke-width="0.35 px" style="stroke-width:0.35;stroke-miterlimit:4;stroke-dasharray:none;fill:none"/>
<circle cx="2.41" cy="0.0" r="0.16" stroke="#191919" stroke-width="0.35 px" style="stroke-width:0.35;stroke-miterlimit:4;stroke-dasharray:none;fill:none"/>
<circle cx="4.82" cy="-4.953491816964e-31" r="0.16" stroke="#191919" stroke-width="0.35 px" style="stroke-width:0.35;stroke-miterlimit:4;stroke-dasharray:none;fill:none"/>
<circle cx="7.23" cy="-4.953491816964e-31" r="0.16" stroke="#191919" stroke-width="0.35 px" style="stroke-width:0.35;stroke-miterlimit:4;stroke-dasharray:none;fill:none"/>
<circle cx="14.46" cy="-4.953491816964e-31" r="0.16" stroke="#191919" stroke-width="0.35 px" style="stroke-width:0.35;stroke-miterlimit:4;stroke-dasharray:none;fill:none"/>
<circle cx="13.255" cy="-1.98" r="0.16" stroke="#191919" stroke-width="0.35 px" style="stroke-width:0.35;stroke-miterlimit:4;stroke-dasharray:none;fill:none"/>
<circle cx="12.05" cy="-4.953491816964e-31" r="0.16" stroke="#191919" stroke-width="0.35 px" style="stroke-width:0.35;stroke-miterlimit:4;stroke-dasharray:none;fill:none"/>
<circle cx="12.05" cy="-3.96" r="0.16" stroke="#191919" stroke-width="0.35 px" style="stroke-width:0.35;stroke-miterlimit:4;stroke-dasharray:none;fill:none"/>
<circle cx="14.46" cy="-3.96" r="0.16" stroke="#191919" stroke-width="0.35 px" style="stroke-width:0.35;stroke-miterlimit:4;stroke-dasharray:none;fill:none"/>
<circle cx="9.64" cy="-4.953491816964e-31" r="0.16" stroke="#191919" stroke-width="0.35 px" style="stroke-width:0.35;stroke-miterlimit:4;stroke-dasharray:none;fill:none"/>
<circle cx="9.64" cy="-3.96" r="0.16" stroke="#191919" stroke-width="0.35 px" style="stroke-width:0.35;stroke-miterlimit:4;stroke-dasharray:none;fill:none"/>
<circle cx="10.845" cy="-1.98" r="0.16" stroke="#191919" stroke-width="0.35 px" style="stroke-width:0.35;stroke-miterlimit:4;stroke-dasharray:none;fill:none"/>
<circle cx="22.895" cy="-1.98" r="0.16" stroke="#191919" stroke-width="0.35 px" style="stroke-width:0.35;stroke-miterlimit:4;stroke-dasharray:none;fill:none"/>
<circle cx="21.69" cy="-4.953491816964e-31" r="0.16" stroke="#191919" stroke-width="0.35 px" style="stroke-width:0.35;stroke-miterlimit:4;stroke-dasharray:none;fill:none"/>
<circle cx="20.485" cy="-1.98" r="0.16" stroke="#191919" stroke-width="0.35 px" style="stroke-width:0.35;stroke-miterlimit:4;stroke-dasharray:none;fill:none"/>
<circle cx="16.87" cy="-4.953491816964e-31" r="0.16" stroke="#191919" stroke-width="0.35 px" style="stroke-width:0.35;stroke-miterlimit:4;stroke-dasharray:none;fill:none"/>
<circle cx="18.075" cy="-1.98" r="0.16" stroke="#191919" stroke-width="0.35 px" style="stroke-width:0.35;stroke-miterlimit:4;stroke-dasharray:none;fill:none"/>
<circle cx="19.28" cy="-4.953491816964e-31" r="0.16" stroke="#191919" stroke-width="0.35 px" style="stroke-width:0.35;stroke-miterlimit:4;stroke-dasharray:none;fill:none"/>
<circle cx="19.28" cy="-3.96" r="0.16" stroke="#191919" stroke-width="0.35 px" style="stroke-width:0.35;stroke-miterlimit:4;stroke-dasharray:none;fill:none"/>
<circle cx="21.69" cy="-3.96" r="0.16" stroke="#191919" stroke-width="0.35 px" style="stroke-width:0.35;stroke-miterlimit:4;stroke-dasharray:none;fill:none"/>
<circle cx="16.87" cy="-3.96" r="0.16" stroke="#191919" stroke-width="0.35 px" style="stroke-width:0.35;stroke-miterlimit:4;stroke-dasharray:none;fill:none"/>
<circle cx="15.665" cy="-1.98" r="0.16" stroke="#191919" stroke-width="0.35 px" style="stroke-width:0.35;stroke-miterlimit:4;stroke-dasharray:none;fill:none"/>
<circle cx="45.79" cy="0.0" r="0.16" stroke="#191919" stroke-width="0.35 px" style="stroke-width:0.35;stroke-miterlimit:4;stroke-dasharray:none;fill:none"/>
<circle cx="44.585" cy="-1.98" r="0.16" stroke="#191919" stroke-width="0.35 px" style="stroke-width:0.35;stroke-miterlimit:4;stroke-dasharray:none;fill:none"/>
<circle cx="43.38" cy="0.0" r="0.16" stroke="#191919" stroke-width="0.35 px" style="stroke-width:0.35;stroke-miterlimit:4;stroke-dasharray:none;fill:none"/>
<circle cx="43.38" cy="-3.96" r="0.16" stroke="#191919" stroke-width="0.35 px" style="stroke-width:0.35;stroke-miterlimit:4;stroke-dasharray:none;fill:none"/>
<circle cx="45.79" cy="-3.96" r="0.16" stroke="#191919" stroke-width="0.35 px" style="stroke-width:0.35;stroke-miterlimit:4;stroke-dasharray:none;fill:none"/>
<circle cx="40.97" cy="-3.96" r="0.16" stroke="#191919" stroke-width="0.35 px" style="stroke-width:0.35;stroke-miterlimit:4;stroke-dasharray:none;fill:none"/>
<circle cx="40.97" cy="0.0" r="0.16" stroke="#191919" stroke-width="0.35 px" style="stroke-width:0.35;stroke-miterlimit:4;stroke-dasharray:none;fill:none"/>
<circle cx="42.175" cy="-1.98" r="0.16" stroke="#191919" stroke-width="0.35 px" style="stroke-width:0.35;stroke-miterlimit:4;stroke-dasharray:none;fill:none"/>
<circle cx="36.15" cy="-3.96" r="0.16" stroke="#191919" stroke-width="0.35 px" style="stroke-width:0.35;stroke-miterlimit:4;stroke-dasharray:none;fill:none"/>
<circle cx="38.56" cy="-3.96" r="0.16" stroke="#191919" stroke-width="0.35 px" style="stroke-width:0.35;stroke-miterlimit:4;stroke-dasharray:none;fill:none"/>
<circle cx="37.355" cy="-1.98" r="0.16" stroke="#191919" stroke-width="0.35 px" style="stroke-width:0.35;stroke-miterlimit:4;stroke-dasharray:none;fill:none"/>
<circle cx="38.56" cy="0.0" r="0.16" stroke="#191919" stroke-width="0.35 px" style="stroke-width:0.35;stroke-miterlimit:4;stroke-dasharray:none;fill:none"/>
<circle cx="36.15" cy="0.0" r="0.16" stroke="#191919" stroke-width="0.35 px" style="stroke-width:0.35;stroke-miterlimit:4;stroke-dasharray:none;fill:none"/>
<circle cx="39.765" cy="-1.98" r="0.16" stroke="#191919" stroke-width="0.35 px" style="stroke-width:0.35;stroke-miterlimit:4;stroke-dasharray:none;fill:none"/>
<circle cx="26.51" cy="-3.96" r="0.16" stroke="#191919" stroke-width="0.35 px" style="stroke-width:0.35;stroke-miterlimit:4;stroke-dasharray:none;fill:none"/>
<circle cx="27.715" cy="-1.98" r="0.16" stroke="#191919" stroke-width="0.35 px" style="stroke-width:0.35;stroke-miterlimit:4;stroke-dasharray:none;fill:none"/>
<circle cx="26.51" cy="-4.953491816964e-31" r="0.16" stroke="#191919" stroke-width="0.35 px" style="stroke-width:0.35;stroke-miterlimit:4;stroke-dasharray:none;fill:none"/>
<circle cx="33.74" cy="0.0" r="0.16" stroke="#191919" stroke-width="0.35 px" style="stroke-width:0.35;stroke-miterlimit:4;stroke-dasharray:none;fill:none"/>
<circle cx="31.33" cy="-4.953491816964e-31" r="0.16" stroke="#191919" stroke-width="0.35 px" style="stroke-width:0.35;stroke-miterlimit:4;stroke-dasharray:none;fill:none"/>
<circle cx="28.92" cy="-4.953491816964e-31" r="0.16" stroke="#191919" stroke-width="0.35 px" style="stroke-width:0.35;stroke-miterlimit:4;stroke-dasharray:none;fill:none"/>
<circle cx="33.74" cy="-3.96" r="0.16" stroke="#191919" stroke-width="0.35 px" style="stroke-width:0.35;stroke-miterlimit:4;stroke-dasharray:none;fill:none"/>
<circle cx="31.33" cy="-3.96" r="0.16" stroke="#191919" stroke-width="0.35 px" style="stroke-width:0.35;stroke-miterlimit:4;stroke-dasharray:none;fill:none"/>
<circle cx="30.125" cy="-1.98" r="0.16" stroke="#191919" stroke-width="0.35 px" style="stroke-width:0.35;stroke-miterlimit:4;stroke-dasharray:none;fill:none"/>
<circle cx="32.535" cy="-1.98" r="0.16" stroke="#191919" stroke-width="0.35 px" style="stroke-width:0.35;stroke-miterlimit:4;stroke-dasharray:none;fill:none"/>
<circle cx="28.92" cy="-3.96" r="0.16" stroke="#191919" stroke-width="0.35 px" style="stroke-width:0.35;stroke-miterlimit:4;stroke-dasharray:none;fill:none"/>
<circle cx="34.945" cy="-1.98" r="0.16" stroke="#191919" stroke-width="0.35 px" style="stroke-width:0.35;stroke-miterlimit:4;stroke-dasharray:none;fill:none"/>
<circle cx="24.1" cy="-4.953491816964e-31" r="0.16" stroke="#191919" stroke-width="0.35 px" style="stroke-width:0.35;stroke-miterlimit:4;stroke-dasharray:none;fill:none"/>
<circle cx="25.305" cy="-1.98" r="0.16" stroke="#191919" stroke-width="0.35 px" style="stroke-width:0.35;stroke-miterlimit:4;stroke-dasharray:none;fill:none"/>
<circle cx="24.1" cy="-3.96" r="0.16" stroke="#191919" stroke-width="0.35 px" style="stroke-width:0.35;stroke-miterlimit:4;stroke-dasharray:none;fill:none"/>
<circle cx="1.205" cy="-1.98" r="0.16" stroke="#191919" stroke-width="0.35 px" style="stroke-width:0.35;stroke-miterlimit:4;stroke-dasharray:none;fill:none"/>
<circle cx="46.995" cy="-1.98" r="0.16" stroke="#191919" stroke-width="0.35 px" style="stroke-width:0.35;stroke-miterlimit:4;stroke-dasharray:none;fill:none"/>
<circle cx="0.0" cy="-3.96" r="0.16" stroke="#191919" stroke-width="0.35 px" style="stroke-width:0.35;stroke-miterlimit:4;stroke-dasharray:none;fill:none"/>
<circle cx="0.0" cy="0.0" r="0.16" stroke="#191919" stroke-width="0.35 px" style="stroke-width:0.35;stroke-miterlimit:4;stroke-dasharray:none;fill:none"/>
<circle cx="-1.205" cy="-1.98" r="0.16" stroke="#191919" stroke-width="0.35 px" style="stroke-width:0.35;stroke-miterlimit:4;stroke-dasharray:none;fill:none"/>
<path id="Shape2DView_nwe0221"  d="M -3.9969792630900405 1.0335092503973093 L -4.046460513219 1.026325526734 " stroke="#191919" stroke-width="0.35 px" style="stroke-width:0.35;stroke-miterlimit:4;stroke-dasharray:none;fill:none;fill-opacity:1;fill-rule: evenodd"/>
<path id="Shape2DView_nwe0222"  d="M -3.056835510638 2.1199999999999997 L -3.056835510638 2.17 " stroke="#191919" stroke-width="0.35 px" style="stroke-width:0.35;stroke-miterlimit:4;stroke-dasharray:none;fill:none;fill-opacity:1;fill-rule: evenodd"/>
<path id="Shape2DView_nwe0223"  d="M 50.051835510638 2.1199999999999997 L 50.051835510638 2.17 " stroke="#191919" stroke-width="0.35 px" style="stroke-width:0.35;stroke-miterlimit:4;stroke-dasharray:none;fill:none;fill-opacity:1;fill-rule: evenodd"/>
<path id="Shape2DView_nwe0224"  d="M -3.0823407088728008 -5.266490749602386 L -3.13182195900176 -5.273674473265695 " stroke="#191919" stroke-width="0.35 px" style="stroke-width:0.35;stroke-miterlimit:4;stroke-dasharray:none;fill:none;fill-opacity:1;fill-rule: evenodd"/>
<path id="Shape2DView_nwe0225"  d="M 50.9919792630898 1.033509250397614 L 51.04146051321876 1.0263255267343045 " stroke="#191919" stroke-width="0.35 px" style="stroke-width:0.35;stroke-miterlimit:4;stroke-dasharray:none;fill:none;fill-opacity:1;fill-rule: evenodd"/>
<path id="Shape2DView_nwe0226"  d="M -2.142196956422 -6.079999999999999 L -2.142196956422 -6.13 " stroke="#191919" stroke-width="0.35 px" style="stroke-width:0.35;stroke-miterlimit:4;stroke-dasharray:none;fill:none;fill-opacity:1;fill-rule: evenodd"/>
<path id="Shape2DView_nwe0227"  d="M 50.077340708873045 -5.266490749602691 L 50.126821959002 -5.273674473266 " stroke="#191919" stroke-width="0.35 px" style="stroke-width:0.35;stroke-miterlimit:4;stroke-dasharray:none;fill:none;fill-opacity:1;fill-rule: evenodd"/>
<path id="Shape2DView_nwe0228"  d="M 49.137196956422 -6.08 L 49.137196956422 -6.130000000000001 " stroke="#191919" stroke-width="0.35 px" style="stroke-width:0.35;stroke-miterlimit:4;stroke-dasharray:none;fill:none;fill-opacity:1;fill-rule: evenodd"/>
<path id="Shape2DView_nwe0229"  d="M -4.640235514766216 0.9401208427743686 A 1.6 1.6 0 0 0 -3.05684 2.77" stroke="#191919" stroke-width="0.35 px" style="stroke-width:0.35;stroke-miterlimit:4;stroke-dasharray:none;fill:none;fill-opacity:1;fill-rule: evenodd"/>
<path id="Shape2DView_nwe0230"  d="M -3.056835510638 2.17 L -3.056835510638 2.1737726740640544 L -3.056835510638 2.185043252690906 L -3.056835510638 2.2036700018149795 L -3.056835510638 2.2294186792585484 L -3.056835510638 2.2619654804630294 L -3.056835510638 2.300901110519182 L -3.056835510638 2.3457359312880715 L -3.056835510638 2.39590611888476 L -3.056835510638 2.450780754090798 L -3.056835510638 2.509669756529465 L -3.056835510638 2.5718325628269 L -3.056835510638 2.6364874396262112 L -3.056835510638 2.7028213143380153 L -3.056835510638 2.77 " stroke="#191919" stroke-width="0.35 px" style="stroke-width:0.35;stroke-miterlimit:4;stroke-dasharray:none;fill:none;fill-opacity:1;fill-rule: evenodd"/>
<path id="Shape2DView_nwe0231"  d="M -4.0464605132189195 1.0263255267336118 L -4.0501940457992935 1.0257834897746543 L -4.061347692201971 1.0241641953270382 L -4.079781188851942 1.0214880069579786 L -4.1052627238334685 1.0177885792889771 L -4.137471852059428 1.0131124347694296 L -4.176003525054208 1.0075183786298312 L -4.220373184673299 1.0010767593718846 L -4.270022856703118 0.9938685840952731 L -4.324328167710478 0.9859844997863806 L -4.382606196900785 0.9775236533798437 L -4.444124064243272 0.9685924449283222 L -4.508108146862609 0.9593031895601017 L -4.573753807795429 0.9497727050511892 L -4.640235514767 0.940120842774 " stroke="#191919" stroke-width="0.35 px" style="stroke-width:0.35;stroke-miterlimit:4;stroke-dasharray:none;fill:none;fill-opacity:1;fill-rule: evenodd"/>
<path id="Shape2DView_nwe0232"  d="M -3.056835510638 2.77 L 50.051835510638 2.77 " stroke="#191919" stroke-width="0.35 px" style="stroke-width:0.35;stroke-miterlimit:4;stroke-dasharray:none;fill:none;fill-opacity:1;fill-rule: evenodd"/>
<path id="Shape2DView_nwe0233"  d="M 50.051835510638 2.17 L 50.051835510638 2.1737726740640544 L 50.051835510638 2.185043252690906 L 50.051835510638 2.2036700018149795 L 50.051835510638 2.2294186792585484 L 50.051835510638 2.2619654804630294 L 50.051835510638 2.3009011105191823 L 50.051835510638 2.3457359312880715 L 50.051835510638 2.39590611888476 L 50.051835510638 2.450780754090798 L 50.051835510638 2.509669756529465 L 50.051835510638 2.5718325628269 L 50.051835510638 2.6364874396262112 L 50.051835510638 2.7028213143380153 L 50.051835510638 2.77 " stroke="#191919" stroke-width="0.35 px" style="stroke-width:0.35;stroke-miterlimit:4;stroke-dasharray:none;fill:none;fill-opacity:1;fill-rule: evenodd"/>
<path id="Shape2DView_nwe0234"  d="M -3.131821959001919 -5.273674473266388 L -3.1355554915822927 -5.2742165102253455 L -3.14670913798497 -5.275835804672961 L -3.1651426346349414 -5.278511993042021 L -3.190624169616468 -5.282211420711023 L -3.2228332978424277 -5.28688756523057 L -3.261364970837207 -5.292481621370168 L -3.305734630456299 -5.298923240628115 L -3.355384302486118 -5.306131415904726 L -3.409689613493477 -5.314015500213619 L -3.4679676426837847 -5.322476346620156 L -3.5294855100262716 -5.331407555071677 L -3.593469592645609 -5.340696810439898 L -3.659115253578428 -5.3502272949488106 L -3.72559696055 -5.359879157226 " stroke="#191919" stroke-width="0.35 px" style="stroke-width:0.35;stroke-miterlimit:4;stroke-dasharray:none;fill:none;fill-opacity:1;fill-rule: evenodd"/>
<path id="Shape2DView_nwe0235"  d="M -3.72559696055 -5.359879157226 L -4.640235514766044 0.9401208427741397 " stroke="#191919" stroke-width="0.35 px" style="stroke-width:0.35;stroke-miterlimit:4;stroke-dasharray:none;fill:none;fill-opacity:1;fill-rule: evenodd"/>
<path id="Shape2DView_nwe0236"  d="M 50.051835510638 2.77 A 1.6 1.6 0 0 0 51.6352 0.940121" stroke="#191919" stroke-width="0.35 px" style="stroke-width:0.35;stroke-miterlimit:4;stroke-dasharray:none;fill:none;fill-opacity:1;fill-rule: evenodd"/>
<path id="Shape2DView_nwe0237"  d="M 51.041460513218915 1.0263255267336118 L 51.04519404579929 1.0257834897746543 L 51.05634769220197 1.0241641953270382 L 51.07478118885194 1.0214880069579786 L 51.10026272383347 1.0177885792889771 L 51.132471852059425 1.0131124347694296 L 51.1710035250542 1.0075183786298312 L 51.2153731846733 1.0010767593718848 L 51.26502285670311 0.9938685840952731 L 51.319328167710474 0.9859844997863806 L 51.37760619690078 0.9775236533798437 L 51.439124064243266 0.9685924449283222 L 51.50310814686261 0.9593031895601017 L 51.568753807795424 0.9497727050511892 L 51.635235514767 0.940120842774 " stroke="#191919" stroke-width="0.35 px" style="stroke-width:0.35;stroke-miterlimit:4;stroke-dasharray:none;fill:none;fill-opacity:1;fill-rule: evenodd"/>
<path id="Shape2DView_nwe0238"  d="M -2.142196956422006 -6.73 A 1.6 1.6 0 0 0 -3.7256 -5.35988" stroke="#191919" stroke-width="0.35 px" style="stroke-width:0.35;stroke-miterlimit:4;stroke-dasharray:none;fill:none;fill-opacity:1;fill-rule: evenodd"/>
<path id="Shape2DView_nwe0239"  d="M -2.142196956422 -6.130000000000001 L -2.142196956422 -6.133772674064055 L -2.142196956422 -6.145043252690906 L -2.142196956422 -6.16367000181498 L -2.142196956422 -6.189418679258549 L -2.142196956422 -6.22196548046303 L -2.142196956422 -6.260901110519183 L -2.142196956422 -6.305735931288072 L -2.142196956422 -6.35590611888476 L -2.142196956422 -6.410780754090799 L -2.142196956422 -6.469669756529465 L -2.142196956422 -6.5318325628269 L -2.142196956422 -6.596487439626212 L -2.142196956422 -6.662821314338015 L -2.142196956422 -6.73 " stroke="#191919" stroke-width="0.35 px" style="stroke-width:0.35;stroke-miterlimit:4;stroke-dasharray:none;fill:none;fill-opacity:1;fill-rule: evenodd"/>
<path id="Shape2DView_nwe0240"  d="M 51.635235514767 0.940120842774 L 50.72059696055095 -5.359879157226139 " stroke="#191919" stroke-width="0.35 px" style="stroke-width:0.35;stroke-miterlimit:4;stroke-dasharray:none;fill:none;fill-opacity:1;fill-rule: evenodd"/>
<path id="Shape2DView_nwe0241"  d="M 50.126821959001916 -5.273674473266388 L 50.13055549158229 -5.2742165102253455 L 50.14170913798497 -5.275835804672961 L 50.16014263463494 -5.278511993042021 L 50.18562416961647 -5.282211420711023 L 50.217833297842425 -5.28688756523057 L 50.256364970837204 -5.292481621370168 L 50.3007346304563 -5.298923240628115 L 50.35038430248611 -5.306131415904726 L 50.404689613493474 -5.314015500213619 L 50.46296764268378 -5.322476346620156 L 50.52448551002627 -5.331407555071677 L 50.58846959264561 -5.340696810439898 L 50.654115253578425 -5.3502272949488106 L 50.72059696055 -5.359879157226 " stroke="#191919" stroke-width="0.35 px" style="stroke-width:0.35;stroke-miterlimit:4;stroke-dasharray:none;fill:none;fill-opacity:1;fill-rule: evenodd"/>
<path id="Shape2DView_nwe0242"  d="M 49.137196956422 -6.130000000000001 L 49.137196956422 -6.133772674064055 L 49.137196956422 -6.145043252690906 L 49.137196956422 -6.16367000181498 L 49.137196956422 -6.189418679258549 L 49.137196956422 -6.22196548046303 L 49.137196956422 -6.260901110519183 L 49.137196956422 -6.305735931288072 L 49.137196956422 -6.35590611888476 L 49.137196956422 -6.410780754090799 L 49.137196956422 -6.469669756529465 L 49.137196956422 -6.5318325628269 L 49.137196956422 -6.596487439626212 L 49.137196956422 -6.662821314338015 L 49.137196956422 -6.73 " stroke="#191919" stroke-width="0.35 px" style="stroke-width:0.35;stroke-miterlimit:4;stroke-dasharray:none;fill:none;fill-opacity:1;fill-rule: evenodd"/>
<path id="Shape2DView_nwe0243"  d="M 49.137196956422 -6.73 L -2.142196956421998 -6.73 " stroke="#191919" stroke-width="0.35 px" style="stroke-width:0.35;stroke-miterlimit:4;stroke-dasharray:none;fill:none;fill-opacity:1;fill-rule: evenodd"/>
<path id="Shape2DView_nwe0244"  d="M 50.72059696055022 -5.359879157225631 A 1.6 1.6 0 0 0 49.1372 -6.73" stroke="#191919" stroke-width="0.35 px" style="stroke-width:0.35;stroke-miterlimit:4;stroke-dasharray:none;fill:none;fill-opacity:1;fill-rule: evenodd"/>
<path id="Shape2DView_nwe0245"  d="M -11.1025 3.27 L -11.1025 -7.23 " stroke="#191919" stroke-width="0.35 px" style="stroke-width:0.35;stroke-miterlimit:4;stroke-dasharray:none;fill:none;fill-opacity:1;fill-rule: evenodd"/>
<path id="Shape2DView_nwe0246"  d="M -11.102500000000001 -7.23 A 0.9 0.9 0 0 1 -10.2025 -8.13" stroke="#191919" stroke-width="0.35 px" style="stroke-width:0.35;stroke-miterlimit:4;stroke-dasharray:none;fill:none;fill-opacity:1;fill-rule: evenodd"/>
<path id="Shape2DView_nwe0247"  d="M -10.2025 -8.13 L 57.197500000000005 -8.13 " stroke="#191919" stroke-width="0.35 px" style="stroke-width:0.35;stroke-miterlimit:4;stroke-dasharray:none;fill:none;fill-opacity:1;fill-rule: evenodd"/>
<path id="Shape2DView_nwe0248"  d="M 57.1975 -8.13 A 0.9 0.9 0 0 1 58.0975 -7.23" stroke="#191919" stroke-width="0.35 px" style="stroke-width:0.35;stroke-miterlimit:4;stroke-dasharray:none;fill:none;fill-opacity:1;fill-rule: evenodd"/>
<path id="Shape2DView_nwe0249"  d="M 58.0975 -7.23 L 58.0975 3.2699999999999996 " stroke="#191919" stroke-width="0.35 px" style="stroke-width:0.35;stroke-miterlimit:4;stroke-dasharray:none;fill:none;fill-opacity:1;fill-rule: evenodd"/>
<path id="Shape2DView_nwe0250"  d="M 58.0975 3.27 A 0.9 0.9 0 0 1 57.1975 4.17" stroke="#191919" stroke-width="0.35 px" style="stroke-width:0.35;stroke-miterlimit:4;stroke-dasharray:none;fill:none;fill-opacity:1;fill-rule: evenodd"/>
<path id="Shape2DView_nwe0251"  d="M 57.1975 4.17 L -10.202500000000008 4.17 " stroke="#191919" stroke-width="0.35 px" style="stroke-width:0.35;stroke-miterlimit:4;stroke-dasharray:none;fill:none;fill-opacity:1;fill-rule: evenodd"/>
<path id="Shape2DView_nwe0252"  d="M -10.2025 4.17 A 0.9 0.9 0 0 1 -11.1025 3.27" stroke="#191919" stroke-width="0.35 px" style="stroke-width:0.35;stroke-miterlimit:4;stroke-dasharray:none;fill:none;fill-opacity:1;fill-rule: evenodd"/>
<circle cx="-8.2525" cy="-1.98" r="1.7" stroke="#191919" stroke-width="0.35 px" style="stroke-width:0.35;stroke-miterlimit:4;stroke-dasharray:none;fill:none"/>
<circle cx="55.2475" cy="-1.98" r="1.7" stroke="#191919" stroke-width="0.35 px" style="stroke-width:0.35;stroke-miterlimit:4;stroke-dasharray:none;fill:none"/>
<path id="Shape2DView_nwe0255"  d="M -11.202499999999999 -7.23 L -11.201871220989323 -7.23 L -11.19999279121818 -7.23 L -11.196888333030836 -7.23 L -11.192596886790241 -7.23 L -11.187172419922828 -7.23 L -11.180683148246802 -7.23 L -11.173210678118654 -7.23 L -11.164848980185873 -7.23 L -11.155703207651532 -7.23 L -11.145888373911754 -7.23 L -11.135527906195517 -7.23 L -11.12475209339563 -7.23 L -11.11369644761033 -7.23 L -11.1025 -7.23 " stroke="#191919" stroke-width="0.35 px" style="stroke-width:0.35;stroke-miterlimit:4;stroke-dasharray:none;fill:none;fill-opacity:1;fill-rule: evenodd"/>
<path id="Shape2DView_nwe0256"  d="M -11.202499999999999 3.27 L -11.201871220989323 3.27 L -11.19999279121818 3.27 L -11.196888333030836 3.27 L -11.192596886790241 3.27 L -11.187172419922828 3.27 L -11.180683148246802 3.27 L -11.173210678118654 3.27 L -11.164848980185873 3.27 L -11.155703207651532 3.27 L -11.145888373911754 3.27 L -11.135527906195517 3.27 L -11.12475209339563 3.27 L -11.11369644761033 3.27 L -11.1025 3.27 " stroke="#191919" stroke-width="0.35 px" style="stroke-width:0.35;stroke-miterlimit:4;stroke-dasharray:none;fill:none;fill-opacity:1;fill-rule: evenodd"/>
<path id="Shape2DView_nwe0257"  d="M -10.2025 4.27 L -10.2025 4.269371220989324 L -10.2025 4.267492791218182 L -10.2025 4.264388333030837 L -10.2025 4.260096886790242 L -10.2025 4.254672419922828 L -10.2025 4.248183148246803 L -10.2025 4.2407106781186545 L -10.2025 4.232348980185873 L -10.2025 4.223203207651534 L -10.2025 4.213388373911756 L -10.2025 4.2030279061955165 L -10.2025 4.1922520933956315 L -10.2025 4.181196447610331 L -10.2025 4.17 " stroke="#191919" stroke-width="0.35 px" style="stroke-width:0.35;stroke-miterlimit:4;stroke-dasharray:none;fill:none;fill-opacity:1;fill-rule: evenodd"/>
<path id="Shape2DView_nwe0258"  d="M -10.2025 -8.23 L -10.2025 -8.229371220989325 L -10.2025 -8.227492791218182 L -10.2025 -8.224388333030838 L -10.2025 -8.220096886790243 L -10.2025 -8.21467241992283 L -10.2025 -8.208183148246803 L -10.2025 -8.200710678118655 L -10.2025 -8.192348980185875 L -10.2025 -8.183203207651534 L -10.2025 -8.173388373911756 L -10.2025 -8.163027906195518 L -10.2025 -8.152252093395632 L -10.2025 -8.141196447610332 L -10.2025 -8.13 " stroke="#191919" stroke-width="0.35 px" style="stroke-width:0.35;stroke-miterlimit:4;stroke-dasharray:none;fill:none;fill-opacity:1;fill-rule: evenodd"/>
<path id="Shape2DView_nwe0259"  d="M 57.1975 4.27 L 57.1975 4.269371220989324 L 57.1975 4.267492791218182 L 57.1975 4.264388333030837 L 57.1975 4.260096886790242 L 57.1975 4.254672419922828 L 57.1975 4.248183148246803 L 57.1975 4.2407106781186545 L 57.1975 4.232348980185873 L 57.1975 4.223203207651534 L 57.1975 4.213388373911756 L 57.1975 4.2030279061955165 L 57.1975 4.1922520933956315 L 57.1975 4.181196447610331 L 57.1975 4.17 " stroke="#191919" stroke-width="0.35 px" style="stroke-width:0.35;stroke-miterlimit:4;stroke-dasharray:none;fill:none;fill-opacity:1;fill-rule: evenodd"/>
<path id="Shape2DView_nwe0260"  d="M 57.1975 -8.23 L 57.1975 -8.229371220989325 L 57.1975 -8.227492791218182 L 57.1975 -8.224388333030838 L 57.1975 -8.220096886790243 L 57.1975 -8.21467241992283 L 57.1975 -8.208183148246803 L 57.1975 -8.200710678118655 L 57.1975 -8.192348980185875 L 57.1975 -8.183203207651534 L 57.1975 -8.173388373911756 L 57.1975 -8.163027906195518 L 57.1975 -8.152252093395632 L 57.1975 -8.141196447610332 L 57.1975 -8.13 " stroke="#191919" stroke-width="0.35 px" style="stroke-width:0.35;stroke-miterlimit:4;stroke-dasharray:none;fill:none;fill-opacity:1;fill-rule: evenodd"/>
<path id="Shape2DView_nwe0261"  d="M 58.1975 3.27 L 58.19687122098932 3.27 L 58.194992791218176 3.27 L 58.19188833303083 3.27 L 58.18759688679024 3.27 L 58.18217241992283 3.27 L 58.1756831482468 3.27 L 58.168210678118655 3.27 L 58.15984898018587 3.27 L 58.15070320765153 3.27 L 58.14088837391175 3.27 L 58.13052790619551 3.27 L 58.119752093395626 3.27 L 58.10869644761033 3.27 L 58.0975 3.27 " stroke="#191919" stroke-width="0.35 px" style="stroke-width:0.35;stroke-miterlimit:4;stroke-dasharray:none;fill:none;fill-opacity:1;fill-rule: evenodd"/>
<path id="Shape2DView_nwe0262"  d="M 58.1975 -7.23 L 58.19687122098932 -7.23 L 58.194992791218176 -7.23 L 58.19188833303083 -7.23 L 58.18759688679024 -7.23 L 58.18217241992283 -7.23 L 58.1756831482468 -7.23 L 58.168210678118655 -7.23 L 58.15984898018587 -7.23 L 58.15070320765153 -7.23 L 58.14088837391175 -7.23 L 58.13052790619551 -7.23 L 58.119752093395626 -7.23 L 58.10869644761033 -7.23 L 58.0975 -7.23 " stroke="#191919" stroke-width="0.35 px" style="stroke-width:0.35;stroke-miterlimit:4;stroke-dasharray:none;fill:none;fill-opacity:1;fill-rule: evenodd"/>
<circle cx="55.2475" cy="-1.98" r="1.6" stroke="#191919" stroke-width="0.35 px" style="stroke-width:0.35;stroke-miterlimit:4;stroke-dasharray:none;fill:none"/>
<path id="Shape2DView_nwe0264"  d="M 48.519999999999996 0.0 L 48.51899395358292 0.0 L 48.51598846594909 0.0 L 48.51102133284934 0.0 L 48.50415501886439 0.0 L 48.49547587187652 0.0 L 48.485093037194886 0.0 L 48.473137084989844 0.0 L 48.45975836829739 0.0 L 48.44512513224245 0.0 L 48.42942139825881 0.0 L 48.41284464991283 0.0 L 48.39560334943301 0.0 L 48.37791431617653 0.0 L 48.36 0.0 " stroke="#191919" stroke-width="0.35 px" style="stroke-width:0.35;stroke-miterlimit:4;stroke-dasharray:none;fill:none;fill-opacity:1;fill-rule: evenodd"/>
<path id="Shape2DView_nwe0265"  d="M 2.73 -3.96 L 2.728993953582919 -3.96 L 2.725988465949092 -3.96 L 2.7210213328493387 -3.96 L 2.714155018864387 -3.96 L 2.7054758718765255 -3.96 L 2.6950930371948845 -3.96 L 2.6831370849898475 -3.96 L 2.6697583682973973 -3.96 L 2.655125132242454 -3.96 L 2.639421398258809 -3.96 L 2.6228446499128264 -3.96 L 2.60560334943301 -3.96 L 2.587914316176529 -3.96 L 2.57 -3.96 " stroke="#191919" stroke-width="0.35 px" style="stroke-width:0.35;stroke-miterlimit:4;stroke-dasharray:none;fill:none;fill-opacity:1;fill-rule: evenodd"/>
<path id="Shape2DView_nwe0266"  d="M 3.935 -1.98 L 3.933993953582919 -1.98 L 3.930988465949092 -1.98 L 3.9260213328493387 -1.98 L 3.919155018864387 -1.98 L 3.9104758718765256 -1.98 L 3.9000930371948845 -1.98 L 3.8881370849898476 -1.98 L 3.8747583682973974 -1.98 L 3.860125132242454 -1.98 L 3.844421398258809 -1.98 L 3.8278446499128265 -1.98 L 3.81060334943301 -1.98 L 3.792914316176529 -1.98 L 3.775 -1.98 " stroke="#191919" stroke-width="0.35 px" style="stroke-width:0.35;stroke-miterlimit:4;stroke-dasharray:none;fill:none;fill-opacity:1;fill-rule: evenodd"/>
<path id="Shape2DView_nwe0267"  d="M 5.140000000000001 -3.96 L 5.138993953582919 -3.96 L 5.135988465949092 -3.96 L 5.131021332849339 -3.96 L 5.124155018864387 -3.96 L 5.115475871876526 -3.96 L 5.1050930371948855 -3.96 L 5.093137084989848 -3.96 L 5.079758368297398 -3.96 L 5.065125132242454 -3.96 L 5.04942139825881 -3.96 L 5.032844649912827 -3.96 L 5.015603349433011 -3.96 L 4.99791431617653 -3.96 L 4.98 -3.96 " stroke="#191919" stroke-width="0.35 px" style="stroke-width:0.35;stroke-miterlimit:4;stroke-dasharray:none;fill:none;fill-opacity:1;fill-rule: evenodd"/>
<path id="Shape2DView_nwe0268"  d="M 8.755 -1.98 L 8.753993953582919 -1.98 L 8.750988465949092 -1.98 L 8.74602133284934 -1.98 L 8.739155018864388 -1.98 L 8.730475871876527 -1.98 L 8.720093037194886 -1.98 L 8.708137084989849 -1.98 L 8.694758368297398 -1.98 L 8.680125132242454 -1.98 L 8.66442139825881 -1.98 L 8.647844649912827 -1.98 L 8.630603349433011 -1.98 L 8.61291431617653 -1.98 L 8.595 -1.98 " stroke="#191919" stroke-width="0.35 px" style="stroke-width:0.35;stroke-miterlimit:4;stroke-dasharray:none;fill:none;fill-opacity:1;fill-rule: evenodd"/>
<path id="Shape2DView_nwe0269"  d="M 6.345 -1.98 L 6.343993953582919 -1.98 L 6.340988465949091 -1.98 L 6.336021332849338 -1.98 L 6.329155018864387 -1.98 L 6.320475871876525 -1.98 L 6.310093037194885 -1.98 L 6.298137084989847 -1.98 L 6.284758368297397 -1.98 L 6.270125132242454 -1.98 L 6.254421398258809 -1.98 L 6.237844649912827 -1.98 L 6.22060334943301 -1.98 L 6.202914316176529 -1.98 L 6.185 -1.98 " stroke="#191919" stroke-width="0.35 px" style="stroke-width:0.35;stroke-miterlimit:4;stroke-dasharray:none;fill:none;fill-opacity:1;fill-rule: evenodd"/>
<path id="Shape2DView_nwe0270"  d="M 7.55 -3.96 L 7.548993953582919 -3.96 L 7.545988465949091 -3.96 L 7.541021332849338 -3.96 L 7.534155018864387 -3.96 L 7.525475871876525 -3.96 L 7.515093037194885 -3.96 L 7.503137084989847 -3.96 L 7.489758368297397 -3.96 L 7.475125132242454 -3.96 L 7.459421398258809 -3.96 L 7.442844649912827 -3.96 L 7.42560334943301 -3.96 L 7.407914316176529 -3.96 L 7.39 -3.96 " stroke="#191919" stroke-width="0.35 px" style="stroke-width:0.35;stroke-miterlimit:4;stroke-dasharray:none;fill:none;fill-opacity:1;fill-rule: evenodd"/>
<path id="Shape2DView_nwe0271"  d="M 2.73 0.0 L 2.728993953582919 0.0 L 2.725988465949092 0.0 L 2.7210213328493387 0.0 L 2.714155018864387 0.0 L 2.7054758718765255 0.0 L 2.6950930371948845 0.0 L 2.6831370849898475 0.0 L 2.6697583682973973 0.0 L 2.655125132242454 0.0 L 2.639421398258809 0.0 L 2.6228446499128264 0.0 L 2.60560334943301 0.0 L 2.587914316176529 0.0 L 2.57 0.0 " stroke="#191919" stroke-width="0.35 px" style="stroke-width:0.35;stroke-miterlimit:4;stroke-dasharray:none;fill:none;fill-opacity:1;fill-rule: evenodd"/>
<path id="Shape2DView_nwe0272"  d="M 5.140000000000001 -1.1998618100781246e-43 L 5.138993953582919 -3.0179514856821957e-33 L 5.135988465949092 -9.02820537666493e-33 L 5.131021332849339 -1.7955179243158562e-32 L 5.124155018864387 -2.968661120924106e-32 L 5.115475871876526 -4.4074971711203484e-32 L 5.1050930371948855 -6.093931876741255e-32 L 5.093137084989848 -8.006757342871425e-32 L 5.079758368297398 -1.0121918679427093e-31 L 5.065125132242454 -1.2412816505355872e-31 L 5.04942139825881 -1.485064145128683e-31 L 5.032844649912827 -1.7404736454065907e-31 L 5.015603349433011 -2.0042982287112714e-31 L 4.99791431617653 -2.27322014783308e-31 L 4.98 -2.5438575536069276e-31 " stroke="#191919" stroke-width="0.35 px" style="stroke-width:0.35;stroke-miterlimit:4;stroke-dasharray:none;fill:none;fill-opacity:1;fill-rule: evenodd"/>
<path id="Shape2DView_nwe0273"  d="M 7.55 -1.1998618100781246e-43 L 7.548993953582919 -3.0179514856821957e-33 L 7.545988465949091 -9.02820537666493e-33 L 7.541021332849338 -1.7955179243158562e-32 L 7.534155018864387 -2.968661120924106e-32 L 7.525475871876525 -4.4074971711203484e-32 L 7.515093037194885 -6.093931876741255e-32 L 7.503137084989847 -8.006757342871425e-32 L 7.489758368297397 -1.0121918679427093e-31 L 7.475125132242454 -1.2412816505355872e-31 L 7.459421398258809 -1.485064145128683e-31 L 7.442844649912827 -1.7404736454065907e-31 L 7.42560334943301 -2.0042982287112714e-31 L 7.407914316176529 -2.27322014783308e-31 L 7.39 -2.5438575536069276e-31 " stroke="#191919" stroke-width="0.35 px" style="stroke-width:0.35;stroke-miterlimit:4;stroke-dasharray:none;fill:none;fill-opacity:1;fill-rule: evenodd"/>
<path id="Shape2DView_nwe0274"  d="M 14.78 -1.1998618100781246e-43 L 14.778993953582917 -3.0179514856821957e-33 L 14.77598846594909 -9.02820537666493e-33 L 14.771021332849338 -1.7955179243158562e-32 L 14.764155018864386 -2.968661120924106e-32 L 14.755475871876525 -4.4074971711203484e-32 L 14.745093037194884 -6.093931876741255e-32 L 14.733137084989847 -8.006757342871425e-32 L 14.719758368297397 -1.0121918679427093e-31 L 14.705125132242452 -1.2412816505355872e-31 L 14.689421398258808 -1.485064145128683e-31 L 14.672844649912825 -1.7404736454065907e-31 L 14.65560334943301 -2.0042982287112714e-31 L 14.637914316176529 -2.27322014783308e-31 L 14.62 -2.5438575536069276e-31 " stroke="#191919" stroke-width="0.35 px" style="stroke-width:0.35;stroke-miterlimit:4;stroke-dasharray:none;fill:none;fill-opacity:1;fill-rule: evenodd"/>
<path id="Shape2DView_nwe0275"  d="M 13.575 -1.98 L 13.573993953582917 -1.98 L 13.57098846594909 -1.98 L 13.566021332849338 -1.98 L 13.559155018864386 -1.98 L 13.550475871876525 -1.98 L 13.540093037194884 -1.98 L 13.528137084989847 -1.98 L 13.514758368297397 -1.98 L 13.500125132242452 -1.98 L 13.484421398258808 -1.98 L 13.467844649912825 -1.98 L 13.45060334943301 -1.98 L 13.432914316176529 -1.98 L 13.415 -1.98 " stroke="#191919" stroke-width="0.35 px" style="stroke-width:0.35;stroke-miterlimit:4;stroke-dasharray:none;fill:none;fill-opacity:1;fill-rule: evenodd"/>
<path id="Shape2DView_nwe0276"  d="M 12.370000000000001 -1.1998618100781246e-43 L 12.368993953582919 -3.0179514856821957e-33 L 12.365988465949092 -9.02820537666493e-33 L 12.36102133284934 -1.7955179243158562e-32 L 12.354155018864388 -2.968661120924106e-32 L 12.345475871876527 -4.4074971711203484e-32 L 12.335093037194886 -6.093931876741255e-32 L 12.323137084989849 -8.006757342871425e-32 L 12.309758368297398 -1.0121918679427093e-31 L 12.295125132242454 -1.2412816505355872e-31 L 12.27942139825881 -1.485064145128683e-31 L 12.262844649912827 -1.7404736454065907e-31 L 12.245603349433011 -2.0042982287112714e-31 L 12.22791431617653 -2.27322014783308e-31 L 12.21 -2.5438575536069276e-31 " stroke="#191919" stroke-width="0.35 px" style="stroke-width:0.35;stroke-miterlimit:4;stroke-dasharray:none;fill:none;fill-opacity:1;fill-rule: evenodd"/>
<path id="Shape2DView_nwe0277"  d="M 12.370000000000001 -3.96 L 12.368993953582919 -3.96 L 12.365988465949092 -3.96 L 12.36102133284934 -3.96 L 12.354155018864388 -3.96 L 12.345475871876527 -3.96 L 12.335093037194886 -3.96 L 12.323137084989849 -3.96 L 12.309758368297398 -3.96 L 12.295125132242454 -3.96 L 12.27942139825881 -3.96 L 12.262844649912827 -3.96 L 12.245603349433011 -3.96 L 12.22791431617653 -3.96 L 12.21 -3.96 " stroke="#191919" stroke-width="0.35 px" style="stroke-width:0.35;stroke-miterlimit:4;stroke-dasharray:none;fill:none;fill-opacity:1;fill-rule: evenodd"/>
<path id="Shape2DView_nwe0278"  d="M 14.78 -3.96 L 14.778993953582917 -3.96 L 14.77598846594909 -3.96 L 14.771021332849338 -3.96 L 14.764155018864386 -3.96 L 14.755475871876525 -3.96 L 14.745093037194884 -3.96 L 14.733137084989847 -3.96 L 14.719758368297397 -3.96 L 14.705125132242452 -3.96 L 14.689421398258808 -3.96 L 14.672844649912825 -3.96 L 14.65560334943301 -3.96 L 14.637914316176529 -3.96 L 14.62 -3.96 " stroke="#191919" stroke-width="0.35 px" style="stroke-width:0.35;stroke-miterlimit:4;stroke-dasharray:none;fill:none;fill-opacity:1;fill-rule: evenodd"/>
<path id="Shape2DView_nwe0279"  d="M 9.96 -1.1998618100781246e-43 L 9.958993953582919 -3.017951485682371e-33 L 9.955988465949092 -9.02820537666528e-33 L 9.95102133284934 -1.7955179243159087e-32 L 9.944155018864388 -2.968661120924176e-32 L 9.935475871876527 -4.407497171120434e-32 L 9.925093037194886 -6.093931876741356e-32 L 9.913137084989849 -8.006757342871537e-32 L 9.899758368297398 -1.0121918679427218e-31 L 9.885125132242454 -1.2412816505356008e-31 L 9.86942139825881 -1.4850641451286975e-31 L 9.852844649912827 -1.7404736454066056e-31 L 9.835603349433011 -2.0042982287112867e-31 L 9.81791431617653 -2.2732201478330957e-31 L 9.8 -2.5438575536069438e-31 " stroke="#191919" stroke-width="0.35 px" style="stroke-width:0.35;stroke-miterlimit:4;stroke-dasharray:none;fill:none;fill-opacity:1;fill-rule: evenodd"/>
<path id="Shape2DView_nwe0280"  d="M 9.96 -3.96 L 9.958993953582919 -3.96 L 9.955988465949092 -3.96 L 9.95102133284934 -3.96 L 9.944155018864388 -3.96 L 9.935475871876527 -3.96 L 9.925093037194886 -3.96 L 9.913137084989849 -3.96 L 9.899758368297398 -3.96 L 9.885125132242454 -3.96 L 9.86942139825881 -3.96 L 9.852844649912827 -3.96 L 9.835603349433011 -3.96 L 9.81791431617653 -3.96 L 9.8 -3.96 " stroke="#191919" stroke-width="0.35 px" style="stroke-width:0.35;stroke-miterlimit:4;stroke-dasharray:none;fill:none;fill-opacity:1;fill-rule: evenodd"/>
<path id="Shape2DView_nwe0281"  d="M 11.165000000000001 -1.98 L 11.163993953582919 -1.98 L 11.160988465949092 -1.98 L 11.15602133284934 -1.98 L 11.149155018864388 -1.98 L 11.140475871876527 -1.98 L 11.130093037194886 -1.98 L 11.118137084989849 -1.98 L 11.104758368297398 -1.98 L 11.090125132242454 -1.98 L 11.07442139825881 -1.98 L 11.057844649912827 -1.98 L 11.040603349433011 -1.98 L 11.02291431617653 -1.98 L 11.005 -1.98 " stroke="#191919" stroke-width="0.35 px" style="stroke-width:0.35;stroke-miterlimit:4;stroke-dasharray:none;fill:none;fill-opacity:1;fill-rule: evenodd"/>
<path id="Shape2DView_nwe0282"  d="M 23.215 -1.98 L 23.213993953582918 -1.98 L 23.210988465949093 -1.98 L 23.20602133284934 -1.98 L 23.19915501886439 -1.98 L 23.190475871876526 -1.98 L 23.180093037194883 -1.98 L 23.168137084989848 -1.98 L 23.154758368297397 -1.98 L 23.140125132242453 -1.98 L 23.12442139825881 -1.98 L 23.107844649912828 -1.98 L 23.09060334943301 -1.98 L 23.07291431617653 -1.98 L 23.055 -1.98 " stroke="#191919" stroke-width="0.35 px" style="stroke-width:0.35;stroke-miterlimit:4;stroke-dasharray:none;fill:none;fill-opacity:1;fill-rule: evenodd"/>
<path id="Shape2DView_nwe0283"  d="M 22.01 -1.1998618100781246e-43 L 22.00899395358292 -3.0179514856821957e-33 L 22.005988465949095 -9.02820537666493e-33 L 22.00102133284934 -1.7955179243158562e-32 L 21.99415501886439 -2.968661120924106e-32 L 21.985475871876528 -4.4074971711203484e-32 L 21.975093037194885 -6.093931876741255e-32 L 21.96313708498985 -8.006757342871425e-32 L 21.9497583682974 -1.0121918679427093e-31 L 21.935125132242455 -1.2412816505355872e-31 L 21.919421398258812 -1.485064145128683e-31 L 21.90284464991283 -1.7404736454065907e-31 L 21.885603349433012 -2.0042982287112714e-31 L 21.86791431617653 -2.27322014783308e-31 L 21.85 -2.5438575536069276e-31 " stroke="#191919" stroke-width="0.35 px" style="stroke-width:0.35;stroke-miterlimit:4;stroke-dasharray:none;fill:none;fill-opacity:1;fill-rule: evenodd"/>
<path id="Shape2DView_nwe0284"  d="M 20.805 -1.98 L 20.803993953582918 -1.98 L 20.800988465949093 -1.98 L 20.79602133284934 -1.98 L 20.78915501886439 -1.98 L 20.780475871876526 -1.98 L 20.770093037194883 -1.98 L 20.758137084989848 -1.98 L 20.744758368297397 -1.98 L 20.730125132242453 -1.98 L 20.71442139825881 -1.98 L 20.697844649912827 -1.98 L 20.68060334943301 -1.98 L 20.66291431617653 -1.98 L 20.645 -1.98 " stroke="#191919" stroke-width="0.35 px" style="stroke-width:0.35;stroke-miterlimit:4;stroke-dasharray:none;fill:none;fill-opacity:1;fill-rule: evenodd"/>
<path id="Shape2DView_nwe0285"  d="M 17.19 -1.1998618100781246e-43 L 17.18899395358292 -3.0179514856821957e-33 L 17.185988465949094 -9.02820537666493e-33 L 17.18102133284934 -1.7955179243158562e-32 L 17.17415501886439 -2.968661120924106e-32 L 17.165475871876527 -4.4074971711203484e-32 L 17.155093037194884 -6.093931876741255e-32 L 17.14313708498985 -8.006757342871425e-32 L 17.1297583682974 -1.0121918679427093e-31 L 17.115125132242454 -1.2412816505355872e-31 L 17.099421398258812 -1.485064145128683e-31 L 17.08284464991283 -1.7404736454065907e-31 L 17.06560334943301 -2.0042982287112714e-31 L 17.04791431617653 -2.27322014783308e-31 L 17.03 -2.5438575536069276e-31 " stroke="#191919" stroke-width="0.35 px" style="stroke-width:0.35;stroke-miterlimit:4;stroke-dasharray:none;fill:none;fill-opacity:1;fill-rule: evenodd"/>
<path id="Shape2DView_nwe0286"  d="M 18.395 -1.98 L 18.393993953582918 -1.98 L 18.390988465949093 -1.98 L 18.38602133284934 -1.98 L 18.379155018864388 -1.98 L 18.370475871876526 -1.98 L 18.360093037194883 -1.98 L 18.348137084989848 -1.98 L 18.334758368297397 -1.98 L 18.320125132242453 -1.98 L 18.30442139825881 -1.98 L 18.287844649912827 -1.98 L 18.27060334943301 -1.98 L 18.25291431617653 -1.98 L 18.235 -1.98 " stroke="#191919" stroke-width="0.35 px" style="stroke-width:0.35;stroke-miterlimit:4;stroke-dasharray:none;fill:none;fill-opacity:1;fill-rule: evenodd"/>
<path id="Shape2DView_nwe0287"  d="M 19.6 -1.1998618100781246e-43 L 19.59899395358292 -3.017951485682371e-33 L 19.595988465949095 -9.02820537666528e-33 L 19.59102133284934 -1.7955179243159087e-32 L 19.58415501886439 -2.968661120924176e-32 L 19.575475871876527 -4.407497171120434e-32 L 19.565093037194885 -6.093931876741356e-32 L 19.55313708498985 -8.006757342871537e-32 L 19.5397583682974 -1.0121918679427218e-31 L 19.525125132242454 -1.2412816505356008e-31 L 19.509421398258812 -1.4850641451286975e-31 L 19.49284464991283 -1.7404736454066056e-31 L 19.475603349433012 -2.0042982287112867e-31 L 19.45791431617653 -2.2732201478330957e-31 L 19.44 -2.5438575536069438e-31 " stroke="#191919" stroke-width="0.35 px" style="stroke-width:0.35;stroke-miterlimit:4;stroke-dasharray:none;fill:none;fill-opacity:1;fill-rule: evenodd"/>
<path id="Shape2DView_nwe0288"  d="M 19.6 -3.96 L 19.59899395358292 -3.96 L 19.595988465949095 -3.96 L 19.59102133284934 -3.96 L 19.58415501886439 -3.96 L 19.575475871876527 -3.96 L 19.565093037194885 -3.96 L 19.55313708498985 -3.96 L 19.5397583682974 -3.96 L 19.525125132242454 -3.96 L 19.509421398258812 -3.96 L 19.49284464991283 -3.96 L 19.475603349433012 -3.96 L 19.45791431617653 -3.96 L 19.44 -3.96 " stroke="#191919" stroke-width="0.35 px" style="stroke-width:0.35;stroke-miterlimit:4;stroke-dasharray:none;fill:none;fill-opacity:1;fill-rule: evenodd"/>
<path id="Shape2DView_nwe0289"  d="M 22.01 -3.96 L 22.00899395358292 -3.96 L 22.005988465949095 -3.96 L 22.00102133284934 -3.96 L 21.99415501886439 -3.96 L 21.985475871876528 -3.96 L 21.975093037194885 -3.96 L 21.96313708498985 -3.96 L 21.9497583682974 -3.96 L 21.935125132242455 -3.96 L 21.919421398258812 -3.96 L 21.90284464991283 -3.96 L 21.885603349433012 -3.96 L 21.86791431617653 -3.96 L 21.85 -3.96 " stroke="#191919" stroke-width="0.35 px" style="stroke-width:0.35;stroke-miterlimit:4;stroke-dasharray:none;fill:none;fill-opacity:1;fill-rule: evenodd"/>
<path id="Shape2DView_nwe0290"  d="M 17.19 -3.96 L 17.18899395358292 -3.96 L 17.185988465949094 -3.96 L 17.18102133284934 -3.96 L 17.17415501886439 -3.96 L 17.165475871876527 -3.96 L 17.155093037194884 -3.96 L 17.14313708498985 -3.96 L 17.1297583682974 -3.96 L 17.115125132242454 -3.96 L 17.099421398258812 -3.96 L 17.08284464991283 -3.96 L 17.06560334943301 -3.96 L 17.04791431617653 -3.96 L 17.03 -3.96 " stroke="#191919" stroke-width="0.35 px" style="stroke-width:0.35;stroke-miterlimit:4;stroke-dasharray:none;fill:none;fill-opacity:1;fill-rule: evenodd"/>
<path id="Shape2DView_nwe0291"  d="M 15.985 -1.98 L 15.983993953582917 -1.98 L 15.98098846594909 -1.98 L 15.976021332849339 -1.98 L 15.969155018864386 -1.98 L 15.960475871876525 -1.98 L 15.950093037194884 -1.98 L 15.938137084989847 -1.98 L 15.924758368297397 -1.98 L 15.910125132242452 -1.98 L 15.894421398258809 -1.98 L 15.877844649912825 -1.98 L 15.86060334943301 -1.98 L 15.842914316176529 -1.98 L 15.825 -1.98 " stroke="#191919" stroke-width="0.35 px" style="stroke-width:0.35;stroke-miterlimit:4;stroke-dasharray:none;fill:none;fill-opacity:1;fill-rule: evenodd"/>
<path id="Shape2DView_nwe0292"  d="M 46.11 0.0 L 46.108993953582925 0.0 L 46.105988465949096 0.0 L 46.10102133284934 0.0 L 46.09415501886439 0.0 L 46.085475871876525 0.0 L 46.07509303719489 0.0 L 46.06313708498985 0.0 L 46.0497583682974 0.0 L 46.035125132242456 0.0 L 46.019421398258814 0.0 L 46.00284464991283 0.0 L 45.98560334943301 0.0 L 45.96791431617653 0.0 L 45.95 0.0 " stroke="#191919" stroke-width="0.35 px" style="stroke-width:0.35;stroke-miterlimit:4;stroke-dasharray:none;fill:none;fill-opacity:1;fill-rule: evenodd"/>
<path id="Shape2DView_nwe0293"  d="M 44.904999999999994 -1.98 L 44.90399395358292 -1.98 L 44.90098846594909 -1.98 L 44.89602133284934 -1.98 L 44.889155018864386 -1.98 L 44.88047587187652 -1.98 L 44.870093037194884 -1.98 L 44.85813708498984 -1.98 L 44.84475836829739 -1.98 L 44.83012513224245 -1.98 L 44.81442139825881 -1.98 L 44.797844649912825 -1.98 L 44.78060334943301 -1.98 L 44.76291431617653 -1.98 L 44.745 -1.98 " stroke="#191919" stroke-width="0.35 px" style="stroke-width:0.35;stroke-miterlimit:4;stroke-dasharray:none;fill:none;fill-opacity:1;fill-rule: evenodd"/>
<path id="Shape2DView_nwe0294"  d="M 43.699999999999996 0.0 L 43.69899395358292 0.0 L 43.69598846594909 0.0 L 43.69102133284934 0.0 L 43.68415501886439 0.0 L 43.67547587187652 0.0 L 43.665093037194886 0.0 L 43.653137084989844 0.0 L 43.63975836829739 0.0 L 43.62512513224245 0.0 L 43.60942139825881 0.0 L 43.59284464991283 0.0 L 43.57560334943301 0.0 L 43.55791431617653 0.0 L 43.54 0.0 " stroke="#191919" stroke-width="0.35 px" style="stroke-width:0.35;stroke-miterlimit:4;stroke-dasharray:none;fill:none;fill-opacity:1;fill-rule: evenodd"/>
<path id="Shape2DView_nwe0295"  d="M 43.699999999999996 -3.96 L 43.69899395358292 -3.96 L 43.69598846594909 -3.96 L 43.69102133284934 -3.96 L 43.68415501886439 -3.96 L 43.67547587187652 -3.96 L 43.665093037194886 -3.96 L 43.653137084989844 -3.96 L 43.63975836829739 -3.96 L 43.62512513224245 -3.96 L 43.60942139825881 -3.96 L 43.59284464991283 -3.96 L 43.57560334943301 -3.96 L 43.55791431617653 -3.96 L 43.54 -3.96 " stroke="#191919" stroke-width="0.35 px" style="stroke-width:0.35;stroke-miterlimit:4;stroke-dasharray:none;fill:none;fill-opacity:1;fill-rule: evenodd"/>
<path id="Shape2DView_nwe0296"  d="M 46.11 -3.96 L 46.108993953582925 -3.96 L 46.105988465949096 -3.96 L 46.10102133284934 -3.96 L 46.09415501886439 -3.96 L 46.085475871876525 -3.96 L 46.07509303719489 -3.96 L 46.06313708498985 -3.96 L 46.0497583682974 -3.96 L 46.035125132242456 -3.96 L 46.019421398258814 -3.96 L 46.00284464991283 -3.96 L 45.98560334943301 -3.96 L 45.96791431617653 -3.96 L 45.95 -3.96 " stroke="#191919" stroke-width="0.35 px" style="stroke-width:0.35;stroke-miterlimit:4;stroke-dasharray:none;fill:none;fill-opacity:1;fill-rule: evenodd"/>
<path id="Shape2DView_nwe0297"  d="M 41.29 -3.96 L 41.288993953582924 -3.96 L 41.285988465949096 -3.96 L 41.28102133284934 -3.96 L 41.27415501886439 -3.96 L 41.265475871876525 -3.96 L 41.25509303719489 -3.96 L 41.24313708498985 -3.96 L 41.2297583682974 -3.96 L 41.215125132242456 -3.96 L 41.199421398258814 -3.96 L 41.18284464991283 -3.96 L 41.16560334943301 -3.96 L 41.14791431617653 -3.96 L 41.13 -3.96 " stroke="#191919" stroke-width="0.35 px" style="stroke-width:0.35;stroke-miterlimit:4;stroke-dasharray:none;fill:none;fill-opacity:1;fill-rule: evenodd"/>
<path id="Shape2DView_nwe0298"  d="M 41.29 0.0 L 41.288993953582924 0.0 L 41.285988465949096 0.0 L 41.28102133284934 0.0 L 41.27415501886439 0.0 L 41.265475871876525 0.0 L 41.25509303719489 0.0 L 41.24313708498985 0.0 L 41.2297583682974 0.0 L 41.215125132242456 0.0 L 41.199421398258814 0.0 L 41.18284464991283 0.0 L 41.16560334943301 0.0 L 41.14791431617653 0.0 L 41.13 0.0 " stroke="#191919" stroke-width="0.35 px" style="stroke-width:0.35;stroke-miterlimit:4;stroke-dasharray:none;fill:none;fill-opacity:1;fill-rule: evenodd"/>
<path id="Shape2DView_nwe0299"  d="M 42.495 -1.98 L 42.49399395358292 -1.98 L 42.490988465949094 -1.98 L 42.48602133284934 -1.98 L 42.47915501886439 -1.98 L 42.47047587187652 -1.98 L 42.46009303719489 -1.98 L 42.448137084989845 -1.98 L 42.434758368297395 -1.98 L 42.420125132242454 -1.98 L 42.40442139825881 -1.98 L 42.38784464991283 -1.98 L 42.37060334943301 -1.98 L 42.35291431617653 -1.98 L 42.335 -1.98 " stroke="#191919" stroke-width="0.35 px" style="stroke-width:0.35;stroke-miterlimit:4;stroke-dasharray:none;fill:none;fill-opacity:1;fill-rule: evenodd"/>
<path id="Shape2DView_nwe0300"  d="M 36.47 -3.96 L 36.468993953582924 -3.96 L 36.465988465949096 -3.96 L 36.46102133284934 -3.96 L 36.45415501886439 -3.96 L 36.445475871876525 -3.96 L 36.43509303719489 -3.96 L 36.42313708498985 -3.96 L 36.409758368297396 -3.96 L 36.395125132242455 -3.96 L 36.37942139825881 -3.96 L 36.36284464991283 -3.96 L 36.34560334943301 -3.96 L 36.32791431617653 -3.96 L 36.31 -3.96 " stroke="#191919" stroke-width="0.35 px" style="stroke-width:0.35;stroke-miterlimit:4;stroke-dasharray:none;fill:none;fill-opacity:1;fill-rule: evenodd"/>
<path id="Shape2DView_nwe0301"  d="M 38.879999999999995 -3.96 L 38.87899395358292 -3.96 L 38.87598846594909 -3.96 L 38.87102133284934 -3.96 L 38.86415501886439 -3.96 L 38.85547587187652 -3.96 L 38.845093037194886 -3.96 L 38.83313708498984 -3.96 L 38.81975836829739 -3.96 L 38.80512513224245 -3.96 L 38.78942139825881 -3.96 L 38.77284464991283 -3.96 L 38.75560334943301 -3.96 L 38.73791431617653 -3.96 L 38.72 -3.96 " stroke="#191919" stroke-width="0.35 px" style="stroke-width:0.35;stroke-miterlimit:4;stroke-dasharray:none;fill:none;fill-opacity:1;fill-rule: evenodd"/>
<path id="Shape2DView_nwe0302"  d="M 37.675 -1.98 L 37.67399395358292 -1.98 L 37.670988465949094 -1.98 L 37.66602133284934 -1.98 L 37.65915501886439 -1.98 L 37.65047587187652 -1.98 L 37.64009303719489 -1.98 L 37.628137084989845 -1.98 L 37.614758368297394 -1.98 L 37.600125132242454 -1.98 L 37.58442139825881 -1.98 L 37.56784464991283 -1.98 L 37.55060334943301 -1.98 L 37.53291431617653 -1.98 L 37.515 -1.98 " stroke="#191919" stroke-width="0.35 px" style="stroke-width:0.35;stroke-miterlimit:4;stroke-dasharray:none;fill:none;fill-opacity:1;fill-rule: evenodd"/>
<path id="Shape2DView_nwe0303"  d="M 38.879999999999995 0.0 L 38.87899395358292 0.0 L 38.87598846594909 0.0 L 38.87102133284934 0.0 L 38.86415501886439 0.0 L 38.85547587187652 0.0 L 38.845093037194886 0.0 L 38.83313708498984 0.0 L 38.81975836829739 0.0 L 38.80512513224245 0.0 L 38.78942139825881 0.0 L 38.77284464991283 0.0 L 38.75560334943301 0.0 L 38.73791431617653 0.0 L 38.72 0.0 " stroke="#191919" stroke-width="0.35 px" style="stroke-width:0.35;stroke-miterlimit:4;stroke-dasharray:none;fill:none;fill-opacity:1;fill-rule: evenodd"/>
<path id="Shape2DView_nwe0304"  d="M 36.47 0.0 L 36.468993953582924 0.0 L 36.465988465949096 0.0 L 36.46102133284934 0.0 L 36.45415501886439 0.0 L 36.445475871876525 0.0 L 36.43509303719489 0.0 L 36.42313708498985 0.0 L 36.409758368297396 0.0 L 36.395125132242455 0.0 L 36.37942139825881 0.0 L 36.36284464991283 0.0 L 36.34560334943301 0.0 L 36.32791431617653 0.0 L 36.31 0.0 " stroke="#191919" stroke-width="0.35 px" style="stroke-width:0.35;stroke-miterlimit:4;stroke-dasharray:none;fill:none;fill-opacity:1;fill-rule: evenodd"/>
<path id="Shape2DView_nwe0305"  d="M 40.084999999999994 -1.98 L 40.08399395358292 -1.98 L 40.08098846594909 -1.98 L 40.076021332849336 -1.98 L 40.069155018864386 -1.98 L 40.06047587187652 -1.98 L 40.050093037194884 -1.98 L 40.03813708498984 -1.98 L 40.02475836829739 -1.98 L 40.01012513224245 -1.98 L 39.99442139825881 -1.98 L 39.977844649912825 -1.98 L 39.96060334943301 -1.98 L 39.94291431617653 -1.98 L 39.925 -1.98 " stroke="#191919" stroke-width="0.35 px" style="stroke-width:0.35;stroke-miterlimit:4;stroke-dasharray:none;fill:none;fill-opacity:1;fill-rule: evenodd"/>
<path id="Shape2DView_nwe0306"  d="M 26.830000000000002 -3.96 L 26.82899395358292 -3.96 L 26.825988465949095 -3.96 L 26.82102133284934 -3.96 L 26.81415501886439 -3.96 L 26.805475871876528 -3.96 L 26.795093037194885 -3.96 L 26.78313708498985 -3.96 L 26.7697583682974 -3.96 L 26.755125132242455 -3.96 L 26.739421398258813 -3.96 L 26.72284464991283 -3.96 L 26.705603349433012 -3.96 L 26.68791431617653 -3.96 L 26.67 -3.96 " stroke="#191919" stroke-width="0.35 px" style="stroke-width:0.35;stroke-miterlimit:4;stroke-dasharray:none;fill:none;fill-opacity:1;fill-rule: evenodd"/>
<path id="Shape2DView_nwe0307"  d="M 28.035 -1.98 L 28.033993953582918 -1.98 L 28.030988465949093 -1.98 L 28.02602133284934 -1.98 L 28.01915501886439 -1.98 L 28.010475871876526 -1.98 L 28.000093037194883 -1.98 L 27.988137084989848 -1.98 L 27.974758368297397 -1.98 L 27.960125132242453 -1.98 L 27.94442139825881 -1.98 L 27.927844649912828 -1.98 L 27.91060334943301 -1.98 L 27.89291431617653 -1.98 L 27.875 -1.98 " stroke="#191919" stroke-width="0.35 px" style="stroke-width:0.35;stroke-miterlimit:4;stroke-dasharray:none;fill:none;fill-opacity:1;fill-rule: evenodd"/>
<path id="Shape2DView_nwe0308"  d="M 26.830000000000002 -1.1998618100781246e-43 L 26.82899395358292 -3.0179514856821957e-33 L 26.825988465949095 -9.02820537666493e-33 L 26.82102133284934 -1.7955179243158562e-32 L 26.81415501886439 -2.968661120924106e-32 L 26.805475871876528 -4.4074971711203484e-32 L 26.795093037194885 -6.093931876741255e-32 L 26.78313708498985 -8.006757342871425e-32 L 26.7697583682974 -1.0121918679427093e-31 L 26.755125132242455 -1.2412816505355872e-31 L 26.739421398258813 -1.485064145128683e-31 L 26.72284464991283 -1.7404736454065907e-31 L 26.705603349433012 -2.0042982287112714e-31 L 26.68791431617653 -2.27322014783308e-31 L 26.67 -2.5438575536069276e-31 " stroke="#191919" stroke-width="0.35 px" style="stroke-width:0.35;stroke-miterlimit:4;stroke-dasharray:none;fill:none;fill-opacity:1;fill-rule: evenodd"/>
<path id="Shape2DView_nwe0309"  d="M 34.059999999999995 0.0 L 34.05899395358292 0.0 L 34.05598846594909 0.0 L 34.05102133284934 0.0 L 34.04415501886439 0.0 L 34.03547587187652 0.0 L 34.025093037194885 0.0 L 34.01313708498984 0.0 L 33.99975836829739 0.0 L 33.98512513224245 0.0 L 33.96942139825881 0.0 L 33.95284464991283 0.0 L 33.93560334943301 0.0 L 33.91791431617653 0.0 L 33.9 0.0 " stroke="#191919" stroke-width="0.35 px" style="stroke-width:0.35;stroke-miterlimit:4;stroke-dasharray:none;fill:none;fill-opacity:1;fill-rule: evenodd"/>
<path id="Shape2DView_nwe0310"  d="M 31.65 -1.1998618100781246e-43 L 31.648993953582917 -3.0179514856821957e-33 L 31.64598846594909 -9.02820537666493e-33 L 31.641021332849338 -1.7955179243158562e-32 L 31.634155018864387 -2.968661120924106e-32 L 31.625475871876525 -4.4074971711203484e-32 L 31.61509303719488 -6.093931876741255e-32 L 31.603137084989847 -8.006757342871425e-32 L 31.589758368297396 -1.0121918679427093e-31 L 31.57512513224245 -1.2412816505355872e-31 L 31.55942139825881 -1.485064145128683e-31 L 31.542844649912826 -1.7404736454065907e-31 L 31.52560334943301 -2.0042982287112714e-31 L 31.507914316176528 -2.27322014783308e-31 L 31.49 -2.5438575536069276e-31 " stroke="#191919" stroke-width="0.35 px" style="stroke-width:0.35;stroke-miterlimit:4;stroke-dasharray:none;fill:none;fill-opacity:1;fill-rule: evenodd"/>
<path id="Shape2DView_nwe0311"  d="M 29.24 -1.1998618100781246e-43 L 29.238993953582916 -3.0179514856821957e-33 L 29.23598846594909 -9.02820537666493e-33 L 29.231021332849338 -1.7955179243158562e-32 L 29.224155018864387 -2.968661120924106e-32 L 29.215475871876524 -4.4074971711203484e-32 L 29.20509303719488 -6.093931876741255e-32 L 29.193137084989846 -8.006757342871425e-32 L 29.179758368297396 -1.0121918679427093e-31 L 29.16512513224245 -1.2412816505355872e-31 L 29.14942139825881 -1.485064145128683e-31 L 29.132844649912826 -1.7404736454065907e-31 L 29.11560334943301 -2.0042982287112714e-31 L 29.097914316176528 -2.27322014783308e-31 L 29.08 -2.5438575536069276e-31 " stroke="#191919" stroke-width="0.35 px" style="stroke-width:0.35;stroke-miterlimit:4;stroke-dasharray:none;fill:none;fill-opacity:1;fill-rule: evenodd"/>
<path id="Shape2DView_nwe0312"  d="M 34.059999999999995 -3.96 L 34.05899395358292 -3.96 L 34.05598846594909 -3.96 L 34.05102133284934 -3.96 L 34.04415501886439 -3.96 L 34.03547587187652 -3.96 L 34.025093037194885 -3.96 L 34.01313708498984 -3.96 L 33.99975836829739 -3.96 L 33.98512513224245 -3.96 L 33.96942139825881 -3.96 L 33.95284464991283 -3.96 L 33.93560334943301 -3.96 L 33.91791431617653 -3.96 L 33.9 -3.96 " stroke="#191919" stroke-width="0.35 px" style="stroke-width:0.35;stroke-miterlimit:4;stroke-dasharray:none;fill:none;fill-opacity:1;fill-rule: evenodd"/>
<path id="Shape2DView_nwe0313"  d="M 31.65 -3.96 L 31.648993953582917 -3.96 L 31.64598846594909 -3.96 L 31.641021332849338 -3.96 L 31.634155018864387 -3.96 L 31.625475871876525 -3.96 L 31.61509303719488 -3.96 L 31.603137084989847 -3.96 L 31.589758368297396 -3.96 L 31.57512513224245 -3.96 L 31.55942139825881 -3.96 L 31.542844649912826 -3.96 L 31.52560334943301 -3.96 L 31.507914316176528 -3.96 L 31.49 -3.96 " stroke="#191919" stroke-width="0.35 px" style="stroke-width:0.35;stroke-miterlimit:4;stroke-dasharray:none;fill:none;fill-opacity:1;fill-rule: evenodd"/>
<path id="Shape2DView_nwe0314"  d="M 30.445 -1.98 L 30.44399395358292 -1.98 L 30.440988465949093 -1.98 L 30.43602133284934 -1.98 L 30.42915501886439 -1.98 L 30.420475871876526 -1.98 L 30.410093037194883 -1.98 L 30.39813708498985 -1.98 L 30.384758368297398 -1.98 L 30.370125132242453 -1.98 L 30.35442139825881 -1.98 L 30.337844649912828 -1.98 L 30.32060334943301 -1.98 L 30.30291431617653 -1.98 L 30.285 -1.98 " stroke="#191919" stroke-width="0.35 px" style="stroke-width:0.35;stroke-miterlimit:4;stroke-dasharray:none;fill:none;fill-opacity:1;fill-rule: evenodd"/>
<path id="Shape2DView_nwe0315"  d="M 32.855 -1.98 L 32.85399395358292 -1.98 L 32.850988465949094 -1.98 L 32.84602133284934 -1.98 L 32.83915501886439 -1.98 L 32.83047587187652 -1.98 L 32.82009303719489 -1.98 L 32.808137084989845 -1.98 L 32.794758368297394 -1.98 L 32.78012513224245 -1.98 L 32.76442139825881 -1.98 L 32.74784464991283 -1.98 L 32.73060334943301 -1.98 L 32.71291431617653 -1.98 L 32.695 -1.98 " stroke="#191919" stroke-width="0.35 px" style="stroke-width:0.35;stroke-miterlimit:4;stroke-dasharray:none;fill:none;fill-opacity:1;fill-rule: evenodd"/>
<path id="Shape2DView_nwe0316"  d="M 29.24 -3.96 L 29.238993953582916 -3.96 L 29.23598846594909 -3.96 L 29.231021332849338 -3.96 L 29.224155018864387 -3.96 L 29.215475871876524 -3.96 L 29.20509303719488 -3.96 L 29.193137084989846 -3.96 L 29.179758368297396 -3.96 L 29.16512513224245 -3.96 L 29.14942139825881 -3.96 L 29.132844649912826 -3.96 L 29.11560334943301 -3.96 L 29.097914316176528 -3.96 L 29.08 -3.96 " stroke="#191919" stroke-width="0.35 px" style="stroke-width:0.35;stroke-miterlimit:4;stroke-dasharray:none;fill:none;fill-opacity:1;fill-rule: evenodd"/>
<path id="Shape2DView_nwe0317"  d="M 35.26499999999999 -1.98 L 35.26399395358292 -1.98 L 35.26098846594909 -1.98 L 35.256021332849336 -1.98 L 35.249155018864386 -1.98 L 35.24047587187652 -1.98 L 35.230093037194884 -1.98 L 35.21813708498984 -1.98 L 35.20475836829739 -1.98 L 35.19012513224245 -1.98 L 35.17442139825881 -1.98 L 35.157844649912825 -1.98 L 35.14060334943301 -1.98 L 35.12291431617653 -1.98 L 35.105 -1.98 " stroke="#191919" stroke-width="0.35 px" style="stroke-width:0.35;stroke-miterlimit:4;stroke-dasharray:none;fill:none;fill-opacity:1;fill-rule: evenodd"/>
<path id="Shape2DView_nwe0318"  d="M 24.42 -1.1998618100781246e-43 L 24.41899395358292 -3.0179514856821957e-33 L 24.415988465949095 -9.02820537666493e-33 L 24.41102133284934 -1.7955179243158562e-32 L 24.40415501886439 -2.968661120924106e-32 L 24.395475871876528 -4.4074971711203484e-32 L 24.385093037194885 -6.093931876741255e-32 L 24.37313708498985 -8.006757342871425e-32 L 24.3597583682974 -1.0121918679427093e-31 L 24.345125132242455 -1.2412816505355872e-31 L 24.329421398258813 -1.485064145128683e-31 L 24.31284464991283 -1.7404736454065907e-31 L 24.295603349433012 -2.0042982287112714e-31 L 24.27791431617653 -2.27322014783308e-31 L 24.26 -2.5438575536069276e-31 " stroke="#191919" stroke-width="0.35 px" style="stroke-width:0.35;stroke-miterlimit:4;stroke-dasharray:none;fill:none;fill-opacity:1;fill-rule: evenodd"/>
<path id="Shape2DView_nwe0319"  d="M 25.625 -1.98 L 25.623993953582918 -1.98 L 25.620988465949093 -1.98 L 25.61602133284934 -1.98 L 25.60915501886439 -1.98 L 25.600475871876526 -1.98 L 25.590093037194883 -1.98 L 25.578137084989848 -1.98 L 25.564758368297397 -1.98 L 25.550125132242453 -1.98 L 25.53442139825881 -1.98 L 25.517844649912828 -1.98 L 25.50060334943301 -1.98 L 25.48291431617653 -1.98 L 25.465 -1.98 " stroke="#191919" stroke-width="0.35 px" style="stroke-width:0.35;stroke-miterlimit:4;stroke-dasharray:none;fill:none;fill-opacity:1;fill-rule: evenodd"/>
<path id="Shape2DView_nwe0320"  d="M 24.42 -3.96 L 24.41899395358292 -3.96 L 24.415988465949095 -3.96 L 24.41102133284934 -3.96 L 24.40415501886439 -3.96 L 24.395475871876528 -3.96 L 24.385093037194885 -3.96 L 24.37313708498985 -3.96 L 24.3597583682974 -3.96 L 24.345125132242455 -3.96 L 24.329421398258813 -3.96 L 24.31284464991283 -3.96 L 24.295603349433012 -3.96 L 24.27791431617653 -3.96 L 24.26 -3.96 " stroke="#191919" stroke-width="0.35 px" style="stroke-width:0.35;stroke-miterlimit:4;stroke-dasharray:none;fill:none;fill-opacity:1;fill-rule: evenodd"/>
<path id="Shape2DView_nwe0321"  d="M 1.525 -1.98 L 1.5239939535829188 -1.98 L 1.5209884659490918 -1.98 L 1.5160213328493388 -1.98 L 1.509155018864387 -1.98 L 1.5004758718765254 -1.98 L 1.4900930371948848 -1.98 L 1.4781370849898476 -1.98 L 1.4647583682973973 -1.98 L 1.4501251322424538 -1.98 L 1.4344213982588092 -1.98 L 1.4178446499128268 -1.98 L 1.4006033494330103 -1.98 L 1.3829143161765292 -1.98 L 1.365 -1.98 " stroke="#191919" stroke-width="0.35 px" style="stroke-width:0.35;stroke-miterlimit:4;stroke-dasharray:none;fill:none;fill-opacity:1;fill-rule: evenodd"/>
<path id="Shape2DView_nwe0322"  d="M 47.315 -1.98 L 47.31399395358292 -1.98 L 47.310988465949094 -1.98 L 47.30602133284934 -1.98 L 47.29915501886439 -1.98 L 47.290475871876524 -1.98 L 47.28009303719489 -1.98 L 47.268137084989846 -1.98 L 47.254758368297395 -1.98 L 47.240125132242454 -1.98 L 47.22442139825881 -1.98 L 47.20784464991283 -1.98 L 47.19060334943301 -1.98 L 47.17291431617653 -1.98 L 47.155 -1.98 " stroke="#191919" stroke-width="0.35 px" style="stroke-width:0.35;stroke-miterlimit:4;stroke-dasharray:none;fill:none;fill-opacity:1;fill-rule: evenodd"/>
<path id="Shape2DView_nwe0323"  d="M 0.32 -3.96 L 0.3189939535829188 -3.96 L 0.3159884659490918 -3.96 L 0.3110213328493388 -3.96 L 0.30415501886438706 -3.96 L 0.29547587187652546 -3.96 L 0.28509303719488477 -3.96 L 0.2731370849898476 -3.96 L 0.2597583682973974 -3.96 L 0.24512513224245386 -3.96 L 0.2294213982588093 -3.96 L 0.21284464991282676 -3.96 L 0.19560334943301033 -3.96 L 0.17791431617652928 -3.96 L 0.16 -3.96 " stroke="#191919" stroke-width="0.35 px" style="stroke-width:0.35;stroke-miterlimit:4;stroke-dasharray:none;fill:none;fill-opacity:1;fill-rule: evenodd"/>
<path id="Shape2DView_nwe0324"  d="M 0.32 0.0 L 0.3189939535829188 0.0 L 0.3159884659490918 0.0 L 0.3110213328493388 0.0 L 0.30415501886438706 0.0 L 0.29547587187652546 0.0 L 0.28509303719488477 0.0 L 0.2731370849898476 0.0 L 0.2597583682973974 0.0 L 0.24512513224245386 0.0 L 0.2294213982588093 0.0 L 0.21284464991282676 0.0 L 0.19560334943301033 0.0 L 0.17791431617652928 0.0 L 0.16 0.0 " stroke="#191919" stroke-width="0.35 px" style="stroke-width:0.35;stroke-miterlimit:4;stroke-dasharray:none;fill:none;fill-opacity:1;fill-rule: evenodd"/>
<path id="Shape2DView_nwe0325"  d="M -0.8849999999999999 -1.98 L -0.8860060464170811 -1.98 L -0.8890115340509082 -1.98 L -0.8939786671506611 -1.98 L -0.9008449811356128 -1.98 L -0.9095241281234745 -1.98 L -0.9199069628051152 -1.98 L -0.9318629150101523 -1.98 L -0.9452416317026026 -1.98 L -0.959874867757546 -1.98 L -0.9755786017411906 -1.98 L -0.9921553500871731 -1.98 L -1.0093966505669896 -1.98 L -1.0270856838234708 -1.98 L -1.045 -1.98 " stroke="#191919" stroke-width="0.35 px" style="stroke-width:0.35;stroke-miterlimit:4;stroke-dasharray:none;fill:none;fill-opacity:1;fill-rule: evenodd"/>
<path id="Shape2DView_nwe0326"  d="M -6.6525 -1.98 L -6.6518712209893245 -1.98 L -6.649992791218183 -1.98 L -6.646888333030837 -1.98 L -6.642596886790242 -1.98 L -6.637172419922829 -1.98 L -6.630683148246804 -1.98 L -6.623210678118655 -1.98 L -6.614848980185873 -1.98 L -6.605703207651534 -1.98 L -6.595888373911756 -1.98 L -6.585527906195517 -1.98 L -6.574752093395632 -1.98 L -6.563696447610331 -1.98 L -6.5525 -1.98 " stroke="#191919" stroke-width="0.35 px" style="stroke-width:0.35;stroke-miterlimit:4;stroke-dasharray:none;fill:none;fill-opacity:1;fill-rule: evenodd"/>
<path id="Shape2DView_nwe0327"  d="M 56.8475 -1.98 L 56.84812877901067 -1.98 L 56.85000720878182 -1.98 L 56.85311166696916 -1.98 L 56.857403113209756 -1.98 L 56.862827580077166 -1.98 L 56.8693168517532 -1.98 L 56.87678932188134 -1.98 L 56.885151019814124 -1.98 L 56.89429679234846 -1.98 L 56.904111626088245 -1.98 L 56.914472093804484 -1.98 L 56.92524790660437 -1.98 L 56.93630355238967 -1.98 L 56.9475 -1.98 " stroke="#191919" stroke-width="0.35 px" style="stroke-width:0.35;stroke-miterlimit:4;stroke-dasharray:none;fill:none;fill-opacity:1;fill-rule: evenodd"/>
<title>b'Shape2DView'</title>
</g>
<g id="Rectangle" transform="translate(11.896500,4.964000) scale(1,-1)">
<rect fill="#ff0000" id="origin" width="1" height="1" x="0" y="0" />
<title>b'Rectangle'</title>
</g>
</svg>