<?xml version="1.0"?>
<!DOCTYPE svg PUBLIC "-//W3C//DTD SVG 1.1//EN" "http://www.w3.org/Graphics/SVG/1.1/DTD/svg11.dtd">
<svg width="31.416000000000004mm" height="15.616000000000046mm" viewBox="0 0 31.416000000000004 15.616000000000046" xmlns="http://www.w3.org/2000/svg" version="1.1">
<g id="Shape2DView" transform="translate(19.715500,1.918000) scale(1,-1)">
<path id="Shape2DView_nwe0000"  d="M -11.01007768744 -13.04 L -11.122042163543309 -13.04 L -11.232598621396315 -13.04 L -11.340356749395168 -13.04 L -11.443961426557559 -13.04 L -11.542109763955338 -13.04 L -11.633567489298734 -13.04 L -11.717184468626549 -13.04 L -11.791909169908031 -13.04 L -11.856801886668284 -13.04 L -11.91104655534242 -13.04 L -11.953961017748368 -13.04 L -11.985005599621825 -13.04 L -12.003789897333244 -13.04 L -12.01007768744 -13.04 " stroke="#191919" stroke-width="0.35 px" style="stroke-width:0.35;stroke-miterlimit:4;stroke-dasharray:none;fill:none;fill-opacity:1;fill-rule: evenodd"/>
<path id="Shape2DView_nwe0001"  d="M -11.01007768744 -13.09 L -11.116443939738144 -13.09 L -11.221472574698499 -13.09 L -11.32384279629741 -13.09 L -11.42226723960168 -13.09 L -11.51550816012957 -13.09 L -11.602392999205797 -13.09 L -11.681829129567221 -13.09 L -11.752817595784629 -13.09 L -11.81446567670687 -13.09 L -11.865998111947299 -13.09 L -11.90676685123295 -13.09 L -11.936259204012734 -13.09 L -11.95410428683858 -13.09 L -11.96007768744 -13.09 " stroke="#191919" stroke-width="0.35 px" style="stroke-width:0.35;stroke-miterlimit:4;stroke-dasharray:none;fill:none;fill-opacity:1;fill-rule: evenodd"/>
<path id="Shape2DView_nwe0002"  d="M 2.995077687448 -13.09 L -11.010077687440003 -13.09 " stroke="#191919" stroke-width="0.35 px" style="stroke-width:0.35;stroke-miterlimit:4;stroke-dasharray:none;fill:none;fill-opacity:1;fill-rule: evenodd"/>
<path id="Shape2DView_nwe0003"  d="M 2.995077687448 -13.04 L -11.010077687440003 -13.04 " stroke="#191919" stroke-width="0.35 px" style="stroke-width:0.35;stroke-miterlimit:4;stroke-dasharray:none;fill:none;fill-opacity:1;fill-rule: evenodd"/>
<path id="Shape2DView_nwe0004"  d="M 3.9450776874480002 -13.09 L 3.9391042868465806 -13.09 L 3.921259204020733 -13.09 L 3.8917668512409493 -13.09 L 3.8509981119552985 -13.09 L 3.7994656767148705 -13.09 L 3.7378175957926287 -13.09 L 3.6668291295752207 -13.09 L 3.5873929992137974 -13.09 L 3.50050816013757 -13.09 L 3.4072672396096806 -13.09 L 3.308842796305409 -13.09 L 3.206472574706499 -13.09 L 3.101443939746143 -13.09 L 2.995077687448 -13.09 " stroke="#191919" stroke-width="0.35 px" style="stroke-width:0.35;stroke-miterlimit:4;stroke-dasharray:none;fill:none;fill-opacity:1;fill-rule: evenodd"/>
<path id="Shape2DView_nwe0005"  d="M 3.995077687448 -13.04 L 3.988789897341243 -13.04 L 3.9700055996298236 -13.04 L 3.938961017756368 -13.04 L 3.896046555350419 -13.04 L 3.8418018866762846 -13.04 L 3.7769091699160304 -13.04 L 3.702184468634548 -13.04 L 3.618567489306734 -13.04 L 3.527109763963337 -13.04 L 3.4289614265655586 -13.04 L 3.3253567494031673 -13.04 L 3.217598621404315 -13.04 L 3.1070421635513084 -13.04 L 2.995077687448 -13.04 " stroke="#191919" stroke-width="0.35 px" style="stroke-width:0.35;stroke-miterlimit:4;stroke-dasharray:none;fill:none;fill-opacity:1;fill-rule: evenodd"/>
<path id="Shape2DView_nwe0006"  d="M -11.90620034771 -13.29 L -11.899912557603242 -13.29 L -11.881128259891822 -13.29 L -11.850083678018366 -13.29 L -11.807169215612419 -13.29 L -11.752924546938283 -13.29 L -11.688031830178028 -13.29 L -11.613307128896547 -13.29 L -11.529690149568733 -13.29 L -11.438232424225335 -13.29 L -11.340084086827558 -13.29 L -11.236479409665167 -13.29 L -11.128721281666314 -13.29 L -11.018164823813306 -13.29 L -10.90620034771 -13.29 " stroke="#191919" stroke-width="0.35 px" style="stroke-width:0.35;stroke-miterlimit:4;stroke-dasharray:none;fill:none;fill-opacity:1;fill-rule: evenodd"/>
<path id="Shape2DView_nwe0007"  d="M -10.90620034771 -13.29 L 2.8912003477159995 -13.29 " stroke="#191919" stroke-width="0.35 px" style="stroke-width:0.35;stroke-miterlimit:4;stroke-dasharray:none;fill:none;fill-opacity:1;fill-rule: evenodd"/>
<path id="Shape2DView_nwe0008"  d="M 2.891200347716 -13.29 L 3.003164823819308 -13.29 L 3.1137212816723143 -13.29 L 3.2214794096711667 -13.29 L 3.325084086833558 -13.29 L 3.4232324242313363 -13.29 L 3.5146901495747334 -13.29 L 3.5983071289025474 -13.29 L 3.67303183018403 -13.29 L 3.737924546944284 -13.29 L 3.792169215618419 -13.29 L 3.8350836780243673 -13.29 L 3.8661282598978235 -13.29 L 3.8849125576092427 -13.29 L 3.891200347716 -13.29 " stroke="#191919" stroke-width="0.35 px" style="stroke-width:0.35;stroke-miterlimit:4;stroke-dasharray:none;fill:none;fill-opacity:1;fill-rule: evenodd"/>
<path id="Shape2DView_nwe0009"  d="M -18.4075 -7.29 L -18.508268028492974 -7.29 L -18.60776884056068 -7.29 L -18.70475115575965 -7.29 L -18.7979953652058 -7.29 L -18.886328868863803 -7.29 L -18.96864082167286 -7.29 L -19.04389610306789 -7.29 L -19.111148334221227 -7.29 L -19.169551779305454 -7.29 L -19.218371981112178 -7.29 L -19.25699499727753 -7.29 L -19.28493512096364 -7.29 L -19.301840988903916 -7.29 L -19.307499999999997 -7.29 " stroke="#191919" stroke-width="0.35 px" style="stroke-width:0.35;stroke-miterlimit:4;stroke-dasharray:none;fill:none;fill-opacity:1;fill-rule: evenodd"/>
<path id="Shape2DView_nwe0010"  d="M -19.307499999999997 -7.29 L -19.301840988903916 -7.29 L -19.28493512096364 -7.29 L -19.25699499727753 -7.29 L -19.218371981112178 -7.29 L -19.169551779305454 -7.29 L -19.111148334221227 -7.29 L -19.04389610306789 -7.29 L -18.96864082167286 -7.29 L -18.886328868863803 -7.29 L -18.7979953652058 -7.29 L -18.70475115575965 -7.29 L -18.60776884056068 -7.29 L -18.508268028492974 -7.29 L -18.4075 -7.29 " stroke="#191919" stroke-width="0.35 px" style="stroke-width:0.35;stroke-miterlimit:4;stroke-dasharray:none;fill:none;fill-opacity:1;fill-rule: evenodd"/>
<path id="Shape2DView_nwe0011"  d="M 11.2925 -7.29 L 11.286840988903919 -7.29 L 11.269935120963641 -7.29 L 11.241994997277532 -7.29 L 11.203371981112177 -7.29 L 11.154551779305455 -7.29 L 11.096148334221226 -7.29 L 11.028896103067893 -7.29 L 10.95364082167286 -7.29 L 10.871328868863802 -7.29 L 10.782995365205803 -7.29 L 10.68975115575965 -7.29 L 10.592768840560684 -7.29 L 10.493268028492977 -7.29 L 10.3925 -7.29 " stroke="#191919" stroke-width="0.35 px" style="stroke-width:0.35;stroke-miterlimit:4;stroke-dasharray:none;fill:none;fill-opacity:1;fill-rule: evenodd"/>
<path id="Shape2DView_nwe0012"  d="M 10.3925 -7.29 L -18.4075 -7.29 " stroke="#191919" stroke-width="0.35 px" style="stroke-width:0.35;stroke-miterlimit:4;stroke-dasharray:none;fill:none;fill-opacity:1;fill-rule: evenodd"/>
<path id="Shape2DView_nwe0013"  d="M -11.80620034771 -13.39 L -11.800541336613918 -13.39 L -11.78363546867364 -13.39 L -11.755695344987531 -13.39 L -11.717072328822177 -13.39 L -11.668252127015455 -13.39 L -11.609848681931226 -13.39 L -11.542596450777893 -13.39 L -11.467341169382859 -13.39 L -11.385029216573802 -13.39 L -11.296695712915803 -13.39 L -11.20345150346965 -13.39 L -11.106469188270683 -13.39 L -11.006968376202977 -13.39 L -10.90620034771 -13.39 " stroke="#191919" stroke-width="0.35 px" style="stroke-width:0.35;stroke-miterlimit:4;stroke-dasharray:none;fill:none;fill-opacity:1;fill-rule: evenodd"/>
<path id="Shape2DView_nwe0014"  d="M -10.90620034771 -13.39 L 2.8912003477159995 -13.39 " stroke="#191919" stroke-width="0.35 px" style="stroke-width:0.35;stroke-miterlimit:4;stroke-dasharray:none;fill:none;fill-opacity:1;fill-rule: evenodd"/>
<path id="Shape2DView_nwe0015"  d="M 2.891200347716 -13.39 L 2.9919683762089773 -13.39 L 3.091469188276683 -13.39 L 3.18845150347565 -13.39 L 3.2816957129218025 -13.39 L 3.370029216579803 -13.39 L 3.4523411693888604 -13.39 L 3.527596450783893 -13.39 L 3.594848681937227 -13.39 L 3.6532521270214557 -13.39 L 3.7020723288281774 -13.39 L 3.7406953449935307 -13.39 L 3.7686354686796415 -13.39 L 3.7855413366199184 -13.39 L 3.791200347716 -13.39 " stroke="#191919" stroke-width="0.35 px" style="stroke-width:0.35;stroke-miterlimit:4;stroke-dasharray:none;fill:none;fill-opacity:1;fill-rule: evenodd"/>
<path id="Shape2DView_nwe0016"  d="M -19.407500000000002 -7.19 A 0.1 0.1 0 0 1 -19.3075 -7.29" stroke="#191919" stroke-width="0.35 px" style="stroke-width:0.35;stroke-miterlimit:4;stroke-dasharray:none;fill:none;fill-opacity:1;fill-rule: evenodd"/>
<path id="Shape2DView_nwe0017"  d="M 11.3925 -7.19 A 0.1 0.1 0 0 0 11.2925 -7.29" stroke="#191919" stroke-width="0.35 px" style="stroke-width:0.35;stroke-miterlimit:4;stroke-dasharray:none;fill:none;fill-opacity:1;fill-rule: evenodd"/>
<path id="Shape2DView_nwe0019"  d="M -19.4075 -6.99 L -19.4075 -7.19 " stroke="#191919" stroke-width="0.35 px" style="stroke-width:0.35;stroke-miterlimit:4;stroke-dasharray:none;fill:none;fill-opacity:1;fill-rule: evenodd"/>
<path id="Shape2DView_nwe0020"  d="M 11.3925 -6.99 L 11.3925 -7.19 " stroke="#191919" stroke-width="0.35 px" style="stroke-width:0.35;stroke-miterlimit:4;stroke-dasharray:none;fill:none;fill-opacity:1;fill-rule: evenodd"/>
<path id="Shape2DView_nwe0021"  d="M -19.4075 -4.99 L -19.40121220989324 -4.99 L -19.38242791218182 -4.99 L -19.351383330308366 -4.99 L -19.30846886790242 -4.99 L -19.254224199228283 -4.99 L -19.189331482468027 -4.99 L -19.114606781186545 -4.99 L -19.030989801858734 -4.99 L -18.939532076515334 -4.99 L -18.841383739117557 -4.99 L -18.737779061955166 -4.99 L -18.630020933956313 -4.99 L -18.519464476103305 -4.99 L -18.4075 -4.99 " stroke="#191919" stroke-width="0.35 px" style="stroke-width:0.35;stroke-miterlimit:4;stroke-dasharray:none;fill:none;fill-opacity:1;fill-rule: evenodd"/>
<path id="Shape2DView_nwe0022"  d="M -19.4075 -6.99 L -19.4075 -4.99 " stroke="#191919" stroke-width="0.35 px" style="stroke-width:0.35;stroke-miterlimit:4;stroke-dasharray:none;fill:none;fill-opacity:1;fill-rule: evenodd"/>
<path id="Shape2DView_nwe0023"  d="M 5.8925 -4.99 L 10.3925 -4.99 " stroke="#191919" stroke-width="0.35 px" style="stroke-width:0.35;stroke-miterlimit:4;stroke-dasharray:none;fill:none;fill-opacity:1;fill-rule: evenodd"/>
<path id="Shape2DView_nwe0024"  d="M 5.8925 1.6100000000000003 L 5.8925 -4.99 " stroke="#191919" stroke-width="0.35 px" style="stroke-width:0.35;stroke-miterlimit:4;stroke-dasharray:none;fill:none;fill-opacity:1;fill-rule: evenodd"/>
<path id="Shape2DView_nwe0025"  d="M 5.8925 1.61 L -13.9075 1.61 " stroke="#191919" stroke-width="0.35 px" style="stroke-width:0.35;stroke-miterlimit:4;stroke-dasharray:none;fill:none;fill-opacity:1;fill-rule: evenodd"/>
<path id="Shape2DView_nwe0026"  d="M -13.9075 -4.99 L -13.9075 1.6100000000000003 " stroke="#191919" stroke-width="0.35 px" style="stroke-width:0.35;stroke-miterlimit:4;stroke-dasharray:none;fill:none;fill-opacity:1;fill-rule: evenodd"/>
<path id="Shape2DView_nwe0027"  d="M -15.57320882483 -4.99 L -13.9075 -4.99 " stroke="#191919" stroke-width="0.35 px" style="stroke-width:0.35;stroke-miterlimit:4;stroke-dasharray:none;fill:none;fill-opacity:1;fill-rule: evenodd"/>
<path id="Shape2DView_nwe0028"  d="M -15.573208824830093 -4.989999999999864 A 1.65 1.65 0 0 0 -17.4418 -4.99" stroke="#191919" stroke-width="0.35 px" style="stroke-width:0.35;stroke-miterlimit:4;stroke-dasharray:none;fill:none;fill-opacity:1;fill-rule: evenodd"/>
<path id="Shape2DView_nwe0029"  d="M -18.4075 -4.99 L -17.44179117517 -4.99 " stroke="#191919" stroke-width="0.35 px" style="stroke-width:0.35;stroke-miterlimit:4;stroke-dasharray:none;fill:none;fill-opacity:1;fill-rule: evenodd"/>
<path id="Shape2DView_nwe0030"  d="M -19.4075 1.6100000000000003 L -19.4075 -4.99 " stroke="#191919" stroke-width="0.35 px" style="stroke-width:0.35;stroke-miterlimit:4;stroke-dasharray:none;fill:none;fill-opacity:1;fill-rule: evenodd"/>
<path id="Shape2DView_nwe0031"  d="M 11.3925 -6.99 L 11.3925 -4.99 " stroke="#191919" stroke-width="0.35 px" style="stroke-width:0.35;stroke-miterlimit:4;stroke-dasharray:none;fill:none;fill-opacity:1;fill-rule: evenodd"/>
<path id="Shape2DView_nwe0032"  d="M 10.3925 -4.99 L 10.504464476103308 -4.99 L 10.615020933956314 -4.99 L 10.722779061955167 -4.99 L 10.826383739117558 -4.99 L 10.924532076515337 -4.99 L 11.015989801858733 -4.99 L 11.099606781186548 -4.99 L 11.17433148246803 -4.99 L 11.239224199228284 -4.99 L 11.293468867902419 -4.99 L 11.336383330308367 -4.99 L 11.367427912181824 -4.99 L 11.386212209893243 -4.99 L 11.3925 -4.99 " stroke="#191919" stroke-width="0.35 px" style="stroke-width:0.35;stroke-miterlimit:4;stroke-dasharray:none;fill:none;fill-opacity:1;fill-rule: evenodd"/>
<path id="Shape2DView_nwe0033"  d="M 11.3925 -4.99 L 11.3925 1.6100000000000003 " stroke="#191919" stroke-width="0.35 px" style="stroke-width:0.35;stroke-miterlimit:4;stroke-dasharray:none;fill:none;fill-opacity:1;fill-rule: evenodd"/>
<path id="Shape2DView_nwe0034"  d="M -14.4575 -4.94 L -14.508897780027262 -4.94 L -14.660513820800041 -4.94 L -14.90474546094054 -4.94 L -15.229345906189597 -4.94 L -15.618038334809006 -4.94 L -16.051332085389557 -4.94 L -16.5075 -4.9399999999999995 L -16.963667914610443 -4.94 L -17.396961665190993 -4.94 L -17.785654093810404 -4.94 L -18.11025453905946 -4.94 L -18.35448617919996 -4.94 L -18.50610221997274 -4.94 L -18.5575 -4.94 " stroke="#191919" stroke-width="0.35 px" style="stroke-width:0.35;stroke-miterlimit:4;stroke-dasharray:none;fill:none;fill-opacity:1;fill-rule: evenodd"/>
<path id="Shape2DView_nwe0035"  d="M 10.5425 -4.94 L 10.491102219972738 -4.94 L 10.339486179199959 -4.94 L 10.09525453905946 -4.94 L 9.770654093810403 -4.94 L 9.381961665190994 -4.94 L 8.948667914610445 -4.94 L 8.4925 -4.9399999999999995 L 8.036332085389555 -4.94 L 7.603038334809006 -4.94 L 7.214345906189596 -4.94 L 6.889745460940539 -4.94 L 6.645513820800041 -4.94 L 6.493897780027261 -4.94 L 6.4425 -4.94 " stroke="#191919" stroke-width="0.35 px" style="stroke-width:0.35;stroke-miterlimit:4;stroke-dasharray:none;fill:none;fill-opacity:1;fill-rule: evenodd"/>
<path id="Shape2DView_nwe0036"  d="M -15.57320882483 -4.99 L -15.60743396780433 -5.0128887087130956 " stroke="#191919" stroke-width="0.35 px" style="stroke-width:0.35;stroke-miterlimit:4;stroke-dasharray:none;fill:none;fill-opacity:1;fill-rule: evenodd"/>
<path id="Shape2DView_nwe0037"  d="M -17.40756607542204 -5.012888680396668 L -17.441791175169996 -4.99 " stroke="#191919" stroke-width="0.35 px" style="stroke-width:0.35;stroke-miterlimit:4;stroke-dasharray:none;fill:none;fill-opacity:1;fill-rule: evenodd"/>
<path id="Shape2DView_nwe0038"  d="M -19.4075 1.61 L -13.9075 1.61 " stroke="#191919" stroke-width="0.35 px" style="stroke-width:0.35;stroke-miterlimit:4;stroke-dasharray:none;fill:none;fill-opacity:1;fill-rule: evenodd"/>
<path id="Shape2DView_nwe0039"  d="M 5.8925 1.61 L 11.3925 1.61 " stroke="#191919" stroke-width="0.35 px" style="stroke-width:0.35;stroke-miterlimit:4;stroke-dasharray:none;fill:none;fill-opacity:1;fill-rule: evenodd"/>
<path id="Shape2DView_nwe0040"  d="M -14.8575 -3.63 A 1.65 1.65 0 0 0 -15.5043 -4.94" stroke="#191919" stroke-width="0.35 px" style="stroke-width:0.35;stroke-miterlimit:4;stroke-dasharray:none;fill:none;fill-opacity:1;fill-rule: evenodd"/>
<path id="Shape2DView_nwe0041"  d="M -14.8575 -1.98 L -14.8575 -3.63 " stroke="#191919" stroke-width="0.35 px" style="stroke-width:0.35;stroke-miterlimit:4;stroke-dasharray:none;fill:none;fill-opacity:1;fill-rule: evenodd"/>
<path id="Shape2DView_nwe0042"  d="M -18.1575 -1.9800000000000002 A 1.65 1.65 0 0 0 -14.8575 -1.98" stroke="#191919" stroke-width="0.35 px" style="stroke-width:0.35;stroke-miterlimit:4;stroke-dasharray:none;fill:none;fill-opacity:1;fill-rule: evenodd"/>
<path id="Shape2DView_nwe0043"  d="M -18.1575 -3.63 L -18.1575 -1.98 " stroke="#191919" stroke-width="0.35 px" style="stroke-width:0.35;stroke-miterlimit:4;stroke-dasharray:none;fill:none;fill-opacity:1;fill-rule: evenodd"/>
<path id="Shape2DView_nwe0044"  d="M -17.510694896318757 -4.9399999999999995 A 1.65 1.65 0 0 0 -18.1575 -3.63" stroke="#191919" stroke-width="0.35 px" style="stroke-width:0.35;stroke-miterlimit:4;stroke-dasharray:none;fill:none;fill-opacity:1;fill-rule: evenodd"/>
<path id="Shape2DView_nwe0045"  d="M 6.842499999999999 -1.9800000000000002 A 1.65 1.65 0 0 0 10.1425 -1.98" stroke="#191919" stroke-width="0.35 px" style="stroke-width:0.35;stroke-miterlimit:4;stroke-dasharray:none;fill:none;fill-opacity:1;fill-rule: evenodd"/>
<path id="Shape2DView_nwe0046"  d="M 6.8425 -3.63 L 6.8425 -1.98 " stroke="#191919" stroke-width="0.35 px" style="stroke-width:0.35;stroke-miterlimit:4;stroke-dasharray:none;fill:none;fill-opacity:1;fill-rule: evenodd"/>
<path id="Shape2DView_nwe0047"  d="M 7.4925 -3.63 L 6.8425 -3.63 " stroke="#191919" stroke-width="0.35 px" style="stroke-width:0.35;stroke-miterlimit:4;stroke-dasharray:none;fill:none;fill-opacity:1;fill-rule: evenodd"/>
<path id="Shape2DView_nwe0048"  d="M 10.1425 -3.63 L 9.4925 -3.63 " stroke="#191919" stroke-width="0.35 px" style="stroke-width:0.35;stroke-miterlimit:4;stroke-dasharray:none;fill:none;fill-opacity:1;fill-rule: evenodd"/>
<path id="Shape2DView_nwe0049"  d="M 10.1425 -1.98 L 10.1425 -3.63 " stroke="#191919" stroke-width="0.35 px" style="stroke-width:0.35;stroke-miterlimit:4;stroke-dasharray:none;fill:none;fill-opacity:1;fill-rule: evenodd"/>
<path id="Shape2DView_nwe0050"  d="M -14.4575 -4.99 L -14.4575 -4.94 " stroke="#191919" stroke-width="0.35 px" style="stroke-width:0.35;stroke-miterlimit:4;stroke-dasharray:none;fill:none;fill-opacity:1;fill-rule: evenodd"/>
<path id="Shape2DView_nwe0051"  d="M 10.5425 -4.99 L 10.5425 -4.94 " stroke="#191919" stroke-width="0.35 px" style="stroke-width:0.35;stroke-miterlimit:4;stroke-dasharray:none;fill:none;fill-opacity:1;fill-rule: evenodd"/>
<path id="Shape2DView_nwe0052"  d="M 9.4925 -1.88 L 9.4925 -1.8806287790106757 L 9.4925 -1.8825072087818175 L 9.4925 -1.8856116669691632 L 9.4925 -1.8899031132097581 L 9.4925 -1.8953275800771716 L 9.4925 -1.901816851753197 L 9.4925 -1.9092893218813451 L 9.4925 -1.9176510198141266 L 9.4925 -1.9267967923484663 L 9.4925 -1.9366116260882442 L 9.4925 -1.9469720938044832 L 9.4925 -1.9577479066043686 L 9.4925 -1.9688035523896692 L 9.4925 -1.98 " stroke="#191919" stroke-width="0.35 px" style="stroke-width:0.35;stroke-miterlimit:4;stroke-dasharray:none;fill:none;fill-opacity:1;fill-rule: evenodd"/>
<path id="Shape2DView_nwe0053"  d="M 9.4925 -1.98 L 9.4925 -4.69 " stroke="#191919" stroke-width="0.35 px" style="stroke-width:0.35;stroke-miterlimit:4;stroke-dasharray:none;fill:none;fill-opacity:1;fill-rule: evenodd"/>
<path id="Shape2DView_nwe0054"  d="M 9.4925 -4.89 L 9.4925 -4.69 " stroke="#191919" stroke-width="0.35 px" style="stroke-width:0.35;stroke-miterlimit:4;stroke-dasharray:none;fill:none;fill-opacity:1;fill-rule: evenodd"/>
<path id="Shape2DView_nwe0055"  d="M 7.4925 -4.89 L 9.4925 -4.89 " stroke="#191919" stroke-width="0.35 px" style="stroke-width:0.35;stroke-miterlimit:4;stroke-dasharray:none;fill:none;fill-opacity:1;fill-rule: evenodd"/>
<path id="Shape2DView_nwe0056"  d="M 7.4925 -1.88 L 7.4925 -1.8806287790106757 L 7.4925 -1.8825072087818175 L 7.4925 -1.8856116669691632 L 7.4925 -1.8899031132097581 L 7.4925 -1.8953275800771716 L 7.4925 -1.901816851753197 L 7.4925 -1.9092893218813451 L 7.4925 -1.9176510198141266 L 7.4925 -1.9267967923484663 L 7.4925 -1.9366116260882442 L 7.4925 -1.9469720938044832 L 7.4925 -1.9577479066043686 L 7.4925 -1.9688035523896692 L 7.4925 -1.98 " stroke="#191919" stroke-width="0.35 px" style="stroke-width:0.35;stroke-miterlimit:4;stroke-dasharray:none;fill:none;fill-opacity:1;fill-rule: evenodd"/>
<path id="Shape2DView_nwe0057"  d="M 7.4925 -4.69 L 7.4925 -4.89 " stroke="#191919" stroke-width="0.35 px" style="stroke-width:0.35;stroke-miterlimit:4;stroke-dasharray:none;fill:none;fill-opacity:1;fill-rule: evenodd"/>
<path id="Shape2DView_nwe0058"  d="M 7.4925 -4.69 L 7.4925 -1.98 " stroke="#191919" stroke-width="0.35 px" style="stroke-width:0.35;stroke-miterlimit:4;stroke-dasharray:none;fill:none;fill-opacity:1;fill-rule: evenodd"/>
<path id="Shape2DView_nwe0059"  d="M 7.4925 -1.88 L 9.4925 -1.88 " stroke="#191919" stroke-width="0.35 px" style="stroke-width:0.35;stroke-miterlimit:4;stroke-dasharray:none;fill:none;fill-opacity:1;fill-rule: evenodd"/>
<path id="Shape2DView_nwe0060"  d="M 9.4925 -4.69 L 7.4925 -4.69 " stroke="#191919" stroke-width="0.35 px" style="stroke-width:0.35;stroke-miterlimit:4;stroke-dasharray:none;fill:none;fill-opacity:1;fill-rule: evenodd"/>
<path id="Shape2DView_nwe0061"  d="M -17.5075 -1.88 L -15.5075 -1.88 " stroke="#191919" stroke-width="0.35 px" style="stroke-width:0.35;stroke-miterlimit:4;stroke-dasharray:none;fill:none;fill-opacity:1;fill-rule: evenodd"/>
<path id="Shape2DView_nwe0062"  d="M -17.5075 -1.88 L -17.5075 -1.8806287790106757 L -17.5075 -1.8825072087818175 L -17.5075 -1.8856116669691632 L -17.5075 -1.8899031132097581 L -17.5075 -1.8953275800771716 L -17.5075 -1.901816851753197 L -17.5075 -1.9092893218813451 L -17.5075 -1.9176510198141266 L -17.5075 -1.9267967923484663 L -17.5075 -1.9366116260882442 L -17.5075 -1.9469720938044832 L -17.5075 -1.9577479066043686 L -17.5075 -1.9688035523896692 L -17.5075 -1.98 " stroke="#191919" stroke-width="0.35 px" style="stroke-width:0.35;stroke-miterlimit:4;stroke-dasharray:none;fill:none;fill-opacity:1;fill-rule: evenodd"/>
<path id="Shape2DView_nwe0063"  d="M -15.5075 -1.88 L -15.5075 -1.8806287790106757 L -15.5075 -1.8825072087818175 L -15.5075 -1.8856116669691632 L -15.5075 -1.8899031132097581 L -15.5075 -1.8953275800771716 L -15.5075 -1.901816851753197 L -15.5075 -1.9092893218813451 L -15.5075 -1.9176510198141266 L -15.5075 -1.9267967923484663 L -15.5075 -1.9366116260882442 L -15.5075 -1.9469720938044832 L -15.5075 -1.9577479066043686 L -15.5075 -1.9688035523896692 L -15.5075 -1.98 " stroke="#191919" stroke-width="0.35 px" style="stroke-width:0.35;stroke-miterlimit:4;stroke-dasharray:none;fill:none;fill-opacity:1;fill-rule: evenodd"/>
<path id="Shape2DView_nwe0064"  d="M -15.5075 -1.98 L -15.5075 -4.69 " stroke="#191919" stroke-width="0.35 px" style="stroke-width:0.35;stroke-miterlimit:4;stroke-dasharray:none;fill:none;fill-opacity:1;fill-rule: evenodd"/>
<path id="Shape2DView_nwe0065"  d="M -17.5075 -4.69 L -17.5075 -1.98 " stroke="#191919" stroke-width="0.35 px" style="stroke-width:0.35;stroke-miterlimit:4;stroke-dasharray:none;fill:none;fill-opacity:1;fill-rule: evenodd"/>
<path id="Shape2DView_nwe0066"  d="M -15.5075 -4.69 L -17.5075 -4.69 " stroke="#191919" stroke-width="0.35 px" style="stroke-width:0.35;stroke-miterlimit:4;stroke-dasharray:none;fill:none;fill-opacity:1;fill-rule: evenodd"/>
<path id="Shape2DView_nwe0067"  d="M -17.5075 -4.89 L -15.5075 -4.89 " stroke="#191919" stroke-width="0.35 px" style="stroke-width:0.35;stroke-miterlimit:4;stroke-dasharray:none;fill:none;fill-opacity:1;fill-rule: evenodd"/>
<path id="Shape2DView_nwe0068"  d="M -15.5075 -4.89 L -15.5075 -4.69 " stroke="#191919" stroke-width="0.35 px" style="stroke-width:0.35;stroke-miterlimit:4;stroke-dasharray:none;fill:none;fill-opacity:1;fill-rule: evenodd"/>
<path id="Shape2DView_nwe0069"  d="M -17.5075 -4.69 L -17.5075 -4.89 " stroke="#191919" stroke-width="0.35 px" style="stroke-width:0.35;stroke-miterlimit:4;stroke-dasharray:none;fill:none;fill-opacity:1;fill-rule: evenodd"/>
<path id="Shape2DView_nwe0070"  d="M -11.01007768744 -13.04 L -11.131766968137761 -13.04 L -11.251647518747431 -13.04 L -11.367937493262355 -13.04 L -11.478908414246868 -13.04 L -11.58291086408147 -13.04 L -11.67839900110145 -13.04 L -11.763953536233087 -13.04 L -11.83830282861387 -13.04 L -11.900341786641755 -13.04 L -11.94914829351751 -13.04 L -11.983996913138832 -13.04 L -12.004369672628606 -13.04 L -12.009963761230985 -13.04 L -12.000696031142708 -13.04 " stroke="#191919" stroke-width="0.35 px" style="stroke-width:0.35;stroke-miterlimit:4;stroke-dasharray:none;fill:none;fill-opacity:1;fill-rule: evenodd"/>
<path id="Shape2DView_nwe0071"  d="M -11.01007768744 -13.09 L -11.125682504102873 -13.09 L -11.239569027182062 -13.09 L -11.35004450297124 -13.09 L -11.455466877906531 -13.09 L -11.554269205249403 -13.09 L -11.644982935418385 -13.09 L -11.72625974379344 -13.09 L -11.796891571555182 -13.09 L -11.855828581681674 -13.09 L -11.90219476321364 -13.09 L -11.935300951853893 -13.09 L -11.954655073369178 -13.09 L -11.959969457541437 -13.09 L -11.95116511395757 -13.09 " stroke="#191919" stroke-width="0.35 px" style="stroke-width:0.35;stroke-miterlimit:4;stroke-dasharray:none;fill:none;fill-opacity:1;fill-rule: evenodd"/>
<path id="Shape2DView_nwe0072"  d="M 3.9361651139654477 -13.09 L 3.9449694575494227 -13.09 L 3.939655073377258 -13.09 L 3.9203009518620515 -13.09 L 3.887194763221856 -13.09 L 3.8408285816899332 -13.09 L 3.781891571563466 -13.09 L 3.711259743801731 -13.09 L 3.629982935426667 -13.09 L 3.5392692052576615 -13.09 L 3.440466877914754 -13.09 L 3.3350445029794185 -13.09 L 3.2245690271901846 -13.09 L 3.1106825041109363 -13.09 L 2.995077687448 -13.09 " stroke="#191919" stroke-width="0.35 px" style="stroke-width:0.35;stroke-miterlimit:4;stroke-dasharray:none;fill:none;fill-opacity:1;fill-rule: evenodd"/>
<path id="Shape2DView_nwe0073"  d="M 3.9856960311505762 -13.04 L 3.9949637612389717 -13.04 L 3.9893696726366934 -13.04 L 3.9689969131470018 -13.04 L 3.9341482935257432 -13.04 L 3.8853417866500353 -13.04 L 3.8233028286221744 -13.04 L 3.7489535362414013 -13.04 L 3.6633990011097546 -13.04 L 3.567910864089749 -13.04 L 3.4639084142551098 -13.04 L 3.3529374932705456 -13.04 L 3.2366475187555626 -13.04 L 3.1167669681458277 -13.04 L 2.995077687448 -13.04 " stroke="#191919" stroke-width="0.35 px" style="stroke-width:0.35;stroke-miterlimit:4;stroke-dasharray:none;fill:none;fill-opacity:1;fill-rule: evenodd"/>
<path id="Shape2DView_nwe0074"  d="M -11.896356583158543 -13.29 L -11.906034780866568 -13.29 L -11.900793799078324 -13.29 L -11.88071184188985 -13.29 L -11.846088565238166 -13.29 L -11.797440605540247 -13.29 L -11.735493870625223 -13.29 L -11.661172707991797 -13.29 L -11.575586112018364 -13.29 L -11.480011175937026 -13.29 L -11.375874035495315 -13.29 L -11.264728588657691 -13.29 L -11.148233308883936 -13.29 L -11.028126497968604 -13.29 L -10.90620034771 -13.29 " stroke="#191919" stroke-width="0.35 px" style="stroke-width:0.35;stroke-miterlimit:4;stroke-dasharray:none;fill:none;fill-opacity:1;fill-rule: evenodd"/>
<path id="Shape2DView_nwe0075"  d="M 2.891200347716 -13.29 L 3.0131264979746137 -13.29 L 3.1332333088899573 -13.29 L 3.249728588663721 -13.29 L 3.3608740355013507 -13.29 L 3.465011175943067 -13.29 L 3.56058611202441 -13.29 L 3.646172707997843 -13.29 L 3.720493870631269 -13.29 L 3.782440605546289 -13.29 L 3.8310885652442006 -13.29 L 3.8657118418958754 -13.29 L 3.8857937990843365 -13.29 L 3.891034780872566 -13.29 L 3.8813565831645227 -13.29 " stroke="#191919" stroke-width="0.35 px" style="stroke-width:0.35;stroke-miterlimit:4;stroke-dasharray:none;fill:none;fill-opacity:1;fill-rule: evenodd"/>
<path id="Shape2DView_nwe0076"  d="M -11.797340959613688 -13.39 L -11.806051337550912 -13.39 L -11.801334453941491 -13.39 L -11.783260692471865 -13.39 L -11.75209974348535 -13.39 L -11.708316579757224 -13.39 L -11.652564518333701 -13.39 L -11.585675471963617 -13.39 L -11.508647535587528 -13.39 L -11.422630093114323 -13.39 L -11.328906666716783 -13.39 L -11.228875764562924 -13.39 L -11.124030012766543 -13.39 L -11.015933882942742 -13.39 L -10.90620034771 -13.39 " stroke="#191919" stroke-width="0.35 px" style="stroke-width:0.35;stroke-miterlimit:4;stroke-dasharray:none;fill:none;fill-opacity:1;fill-rule: evenodd"/>
<path id="Shape2DView_nwe0077"  d="M 2.891200347716 -13.39 L 3.000933882948737 -13.39 L 3.109030012772532 -13.39 L 3.2138757645689067 -13.39 L 3.3139066667227626 -13.39 L 3.4076300931202987 -13.39 L 3.493647535593502 -13.39 L 3.57067547196959 -13.39 L 3.637564518339675 -13.39 L 3.693316579763199 -13.39 L 3.7370997434913296 -13.39 L 3.768260692477851 -13.39 L 3.786334453947484 -13.39 L 3.7910513375569126 -13.39 L 3.7823409596196997 -13.39 " stroke="#191919" stroke-width="0.35 px" style="stroke-width:0.35;stroke-miterlimit:4;stroke-dasharray:none;fill:none;fill-opacity:1;fill-rule: evenodd"/>
<path id="Shape2DView_nwe0078"  d="M -14.4575 -4.94 L -14.531649376903221 -4.94 L -14.748733478251776 -4.94 L -15.09304825443533 -4.94 L -15.539685679978193 -4.94 L -16.05633562141143 -4.94 L -16.605623179969808 -4.9399999999999995 L -17.147812423743286 -4.94 L -17.643680918986075 -4.94 L -18.05735711452921 -4.94 L -18.35891532048077 -4.94 L -18.526540558234547 -4.94 L -18.548106674685474 -4.94 L -18.422053558519348 -4.94 L -18.1575 -4.94 " stroke="#191919" stroke-width="0.35 px" style="stroke-width:0.35;stroke-miterlimit:4;stroke-dasharray:none;fill:none;fill-opacity:1;fill-rule: evenodd"/>
<path id="Shape2DView_nwe0079"  d="M 10.5425 -4.94 L 10.468350623096779 -4.94 L 10.251266521748226 -4.94 L 9.906951745564673 -4.94 L 9.460314320021808 -4.94 L 8.943664378588572 -4.94 L 8.394376820030194 -4.9399999999999995 L 7.852187576256716 -4.94 L 7.356319081013926 -4.94 L 6.942642885470791 -4.94 L 6.641084679519231 -4.94 L 6.473459441765453 -4.94 L 6.451893325314524 -4.94 L 6.57794644148065 -4.94 L 6.842499999999999 -4.94 " stroke="#191919" stroke-width="0.35 px" style="stroke-width:0.35;stroke-miterlimit:4;stroke-dasharray:none;fill:none;fill-opacity:1;fill-rule: evenodd"/>
<path id="Shape2DView_nwe0080"  d="M -11.01007768744 -13.09 L -11.01007768744 -13.04 " stroke="#191919" stroke-width="0.35 px" style="stroke-width:0.35;stroke-miterlimit:4;stroke-dasharray:none;fill:none;fill-opacity:1;fill-rule: evenodd"/>
<path id="Shape2DView_nwe0081"  d="M 2.995077687448 -13.09 L 2.995077687448 -13.04 " stroke="#191919" stroke-width="0.35 px" style="stroke-width:0.35;stroke-miterlimit:4;stroke-dasharray:none;fill:none;fill-opacity:1;fill-rule: evenodd"/>
<path id="Shape2DView_nwe0082"  d="M -11.01007768744 -7.29 L -11.01007768744 -13.04 " stroke="#191919" stroke-width="0.35 px" style="stroke-width:0.35;stroke-miterlimit:4;stroke-dasharray:none;fill:none;fill-opacity:1;fill-rule: evenodd"/>
<path id="Shape2DView_nwe0083"  d="M 2.995077687448 -7.29 L 2.995077687448 -13.04 " stroke="#191919" stroke-width="0.35 px" style="stroke-width:0.35;stroke-miterlimit:4;stroke-dasharray:none;fill:none;fill-opacity:1;fill-rule: evenodd"/>
<path id="Shape2DView_nwe0084"  d="M -10.90620034771 -13.09 L -10.90620034771 -13.29 " stroke="#191919" stroke-width="0.35 px" style="stroke-width:0.35;stroke-miterlimit:4;stroke-dasharray:none;fill:none;fill-opacity:1;fill-rule: evenodd"/>
<path id="Shape2DView_nwe0085"  d="M 2.891200347716 -13.09 L 2.891200347716 -13.29 " stroke="#191919" stroke-width="0.35 px" style="stroke-width:0.35;stroke-miterlimit:4;stroke-dasharray:none;fill:none;fill-opacity:1;fill-rule: evenodd"/>
<path id="Shape2DView_nwe0086"  d="M -10.90620034771 -13.29 L -10.90620034771 -13.39 " stroke="#191919" stroke-width="0.35 px" style="stroke-width:0.35;stroke-miterlimit:4;stroke-dasharray:none;fill:none;fill-opacity:1;fill-rule: evenodd"/>
<path id="Shape2DView_nwe0087"  d="M 2.891200347716 -13.29 L 2.891200347716 -13.39 " stroke="#191919" stroke-width="0.35 px" style="stroke-width:0.35;stroke-miterlimit:4;stroke-dasharray:none;fill:none;fill-opacity:1;fill-rule: evenodd"/>
<path id="Shape2DView_nwe0088"  d="M -18.4075 -7.19 L -18.4075 -7.201196447610331 L -18.4075 -7.212252093395632 L -18.4075 -7.223027906195517 L -18.4075 -7.233388373911756 L -18.4075 -7.2432032076515345 L -18.4075 -7.252348980185873 L -18.4075 -7.260710678118655 L -18.4075 -7.268183148246804 L -18.4075 -7.274672419922829 L -18.4075 -7.2800968867902425 L -18.4075 -7.284388333030837 L -18.4075 -7.287492791218183 L -18.4075 -7.289371220989325 L -18.4075 -7.29 " stroke="#191919" stroke-width="0.35 px" style="stroke-width:0.35;stroke-miterlimit:4;stroke-dasharray:none;fill:none;fill-opacity:1;fill-rule: evenodd"/>
<path id="Shape2DView_nwe0089"  d="M -18.4075 -7.19 L -18.519464476103305 -7.19 L -18.630020933956313 -7.19 L -18.737779061955166 -7.19 L -18.841383739117557 -7.19 L -18.939532076515334 -7.19 L -19.030989801858734 -7.19 L -19.114606781186545 -7.19 L -19.189331482468027 -7.19 L -19.254224199228283 -7.19 L -19.30846886790242 -7.19 L -19.351383330308366 -7.19 L -19.38242791218182 -7.19 L -19.40121220989324 -7.19 L -19.4075 -7.19 " stroke="#191919" stroke-width="0.35 px" style="stroke-width:0.35;stroke-miterlimit:4;stroke-dasharray:none;fill:none;fill-opacity:1;fill-rule: evenodd"/>
<path id="Shape2DView_nwe0090"  d="M 10.3925 -7.19 L -18.4075 -7.19 " stroke="#191919" stroke-width="0.35 px" style="stroke-width:0.35;stroke-miterlimit:4;stroke-dasharray:none;fill:none;fill-opacity:1;fill-rule: evenodd"/>
<path id="Shape2DView_nwe0091"  d="M 10.3925 -7.19 L 10.3925 -7.201196447610331 L 10.3925 -7.212252093395632 L 10.3925 -7.223027906195517 L 10.3925 -7.233388373911756 L 10.3925 -7.2432032076515345 L 10.3925 -7.252348980185873 L 10.3925 -7.260710678118655 L 10.3925 -7.268183148246804 L 10.3925 -7.274672419922829 L 10.3925 -7.2800968867902425 L 10.3925 -7.284388333030837 L 10.3925 -7.287492791218183 L 10.3925 -7.289371220989325 L 10.3925 -7.29 " stroke="#191919" stroke-width="0.35 px" style="stroke-width:0.35;stroke-miterlimit:4;stroke-dasharray:none;fill:none;fill-opacity:1;fill-rule: evenodd"/>
<path id="Shape2DView_nwe0093"  d="M 11.3925 -7.19 L 11.386212209893243 -7.19 L 11.367427912181824 -7.19 L 11.336383330308367 -7.19 L 11.293468867902419 -7.19 L 11.239224199228284 -7.19 L 11.17433148246803 -7.19 L 11.099606781186548 -7.19 L 11.015989801858733 -7.19 L 10.924532076515337 -7.19 L 10.826383739117558 -7.19 L 10.722779061955167 -7.19 L 10.615020933956314 -7.19 L 10.504464476103308 -7.19 L 10.3925 -7.19 " stroke="#191919" stroke-width="0.35 px" style="stroke-width:0.35;stroke-miterlimit:4;stroke-dasharray:none;fill:none;fill-opacity:1;fill-rule: evenodd"/>
<path id="Shape2DView_nwe0094"  d="M -18.4075 -6.99 L -18.4075 -7.19 " stroke="#191919" stroke-width="0.35 px" style="stroke-width:0.35;stroke-miterlimit:4;stroke-dasharray:none;fill:none;fill-opacity:1;fill-rule: evenodd"/>
<path id="Shape2DView_nwe0095"  d="M 10.3925 -6.99 L 10.3925 -7.19 " stroke="#191919" stroke-width="0.35 px" style="stroke-width:0.35;stroke-miterlimit:4;stroke-dasharray:none;fill:none;fill-opacity:1;fill-rule: evenodd"/>
<path id="Shape2DView_nwe0096"  d="M -18.4075 -6.99 L -18.4075 -4.99 " stroke="#191919" stroke-width="0.35 px" style="stroke-width:0.35;stroke-miterlimit:4;stroke-dasharray:none;fill:none;fill-opacity:1;fill-rule: evenodd"/>
<path id="Shape2DView_nwe0097"  d="M 10.3925 -6.99 L 10.3925 -4.99 " stroke="#191919" stroke-width="0.35 px" style="stroke-width:0.35;stroke-miterlimit:4;stroke-dasharray:none;fill:none;fill-opacity:1;fill-rule: evenodd"/>
<path id="Shape2DView_nwe0098"  d="M 7.4925 -1.98 L 9.4925 -1.98 " stroke="#191919" stroke-width="0.35 px" style="stroke-width:0.35;stroke-miterlimit:4;stroke-dasharray:none;fill:none;fill-opacity:1;fill-rule: evenodd"/>
<path id="Shape2DView_nwe0099"  d="M -17.5075 -1.98 L -15.5075 -1.98 " stroke="#191919" stroke-width="0.35 px" style="stroke-width:0.35;stroke-miterlimit:4;stroke-dasharray:none;fill:none;fill-opacity:1;fill-rule: evenodd"/>
<path id="Shape2DView_nwe0100"  d="M -18.4075 -6.99 L -18.519464476103305 -6.99 L -18.630020933956313 -6.99 L -18.737779061955166 -6.99 L -18.841383739117557 -6.99 L -18.939532076515334 -6.99 L -19.030989801858734 -6.99 L -19.114606781186545 -6.99 L -19.189331482468027 -6.99 L -19.254224199228283 -6.99 L -19.30846886790242 -6.99 L -19.351383330308366 -6.99 L -19.38242791218182 -6.99 L -19.40121220989324 -6.99 L -19.4075 -6.99 " stroke="#191919" stroke-width="0.35 px" style="stroke-width:0.35;stroke-miterlimit:4;stroke-dasharray:none;fill:none;fill-opacity:1;fill-rule: evenodd"/>
<path id="Shape2DView_nwe0101"  d="M 10.3925 -6.99 L -18.4075 -6.99 " stroke="#191919" stroke-width="0.35 px" style="stroke-width:0.35;stroke-miterlimit:4;stroke-dasharray:none;fill:none;fill-opacity:1;fill-rule: evenodd"/>
<path id="Shape2DView_nwe0102"  d="M 10.3925 -6.99 L 10.504464476103308 -6.99 L 10.615020933956314 -6.99 L 10.722779061955167 -6.99 L 10.826383739117558 -6.99 L 10.924532076515337 -6.99 L 11.015989801858733 -6.99 L 11.099606781186548 -6.99 L 11.17433148246803 -6.99 L 11.239224199228284 -6.99 L 11.293468867902419 -6.99 L 11.336383330308367 -6.99 L 11.367427912181824 -6.99 L 11.386212209893243 -6.99 L 11.3925 -6.99 " stroke="#191919" stroke-width="0.35 px" style="stroke-width:0.35;stroke-miterlimit:4;stroke-dasharray:none;fill:none;fill-opacity:1;fill-rule: evenodd"/>
<path id="Shape2DView_nwe0103"  d="M -11.960077687440023 -13.090000000000021 L -12.01007768744 -13.04 " stroke="#191919" stroke-width="0.35 px" style="stroke-width:0.35;stroke-miterlimit:4;stroke-dasharray:none;fill:none;fill-opacity:1;fill-rule: evenodd"/>
<path id="Shape2DView_nwe0104"  d="M -12.01007768744 -7.29 L -12.01007768744 -13.04 " stroke="#191919" stroke-width="0.35 px" style="stroke-width:0.35;stroke-miterlimit:4;stroke-dasharray:none;fill:none;fill-opacity:1;fill-rule: evenodd"/>
<path id="Shape2DView_nwe0105"  d="M 3.9450776874480225 -13.090000000000021 L 3.995077687448 -13.04 " stroke="#191919" stroke-width="0.35 px" style="stroke-width:0.35;stroke-miterlimit:4;stroke-dasharray:none;fill:none;fill-opacity:1;fill-rule: evenodd"/>
<path id="Shape2DView_nwe0106"  d="M -11.90620034771 -13.09 L -11.90620034771 -13.29 " stroke="#191919" stroke-width="0.35 px" style="stroke-width:0.35;stroke-miterlimit:4;stroke-dasharray:none;fill:none;fill-opacity:1;fill-rule: evenodd"/>
<path id="Shape2DView_nwe0107"  d="M 3.891200347716 -13.09 L 3.891200347716 -13.29 " stroke="#191919" stroke-width="0.35 px" style="stroke-width:0.35;stroke-miterlimit:4;stroke-dasharray:none;fill:none;fill-opacity:1;fill-rule: evenodd"/>
<path id="Shape2DView_nwe0108"  d="M 3.995077687448 -7.29 L 3.995077687448 -13.04 " stroke="#191919" stroke-width="0.35 px" style="stroke-width:0.35;stroke-miterlimit:4;stroke-dasharray:none;fill:none;fill-opacity:1;fill-rule: evenodd"/>
<path id="Shape2DView_nwe0109"  d="M -11.806200347710044 -13.390000000000045 L -11.90620034771 -13.29 " stroke="#191919" stroke-width="0.35 px" style="stroke-width:0.35;stroke-miterlimit:4;stroke-dasharray:none;fill:none;fill-opacity:1;fill-rule: evenodd"/>
<path id="Shape2DView_nwe0110"  d="M 3.7912003477160443 -13.390000000000045 L 3.891200347716 -13.29 " stroke="#191919" stroke-width="0.35 px" style="stroke-width:0.35;stroke-miterlimit:4;stroke-dasharray:none;fill:none;fill-opacity:1;fill-rule: evenodd"/>
<path id="Shape2DView_nwe0111"  d="M -18.5575 -4.94 L -18.5575 -4.99 " stroke="#191919" stroke-width="0.35 px" style="stroke-width:0.35;stroke-miterlimit:4;stroke-dasharray:none;fill:none;fill-opacity:1;fill-rule: evenodd"/>
<path id="Shape2DView_nwe0112"  d="M 6.4425 -4.94 L 6.4425 -4.99 " stroke="#191919" stroke-width="0.35 px" style="stroke-width:0.35;stroke-miterlimit:4;stroke-dasharray:none;fill:none;fill-opacity:1;fill-rule: evenodd"/>
<title>b'Shape2DView'</title>
</g>
<g id="Rectangle" transform="translate(19.715500,1.918000) scale(1,-1)">
<rect fill="#ff0000" id="origin" width="1" height="1" x="0" y="0" />
<title>b'Rectangle'</title>
</g>
</svg>