<?xml version="1.0"?>
<!DOCTYPE svg PUBLIC "-//W3C//DTD SVG 1.1//EN" "http://www.w3.org/Graphics/SVG/1.1/DTD/svg11.dtd">
<svg width="39.983999999999995mm" height="13.283999999999999mm" viewBox="0 0 39.983999999999995 13.283999999999999" xmlns="http://www.w3.org/2000/svg" version="1.1">
<g id="Shape2DView" transform="translate(28.579500,4.662000) scale(1,-1)">
<path id="Shape2DView_nwe0000"  d="M -28.1875 3.27 L -28.1875 -7.23 " stroke="#191919" stroke-width="0.35 px" style="stroke-width:0.35;stroke-miterlimit:4;stroke-dasharray:none;fill:none;fill-opacity:1;fill-rule: evenodd"/>
<path id="Shape2DView_nwe0001"  d="M 11.0125 -7.23 L 11.0125 3.2699999999999996 " stroke="#191919" stroke-width="0.35 px" style="stroke-width:0.35;stroke-miterlimit:4;stroke-dasharray:none;fill:none;fill-opacity:1;fill-rule: evenodd"/>
<circle cx="-25.2375" cy="-1.98" r="1.6" stroke="#191919" stroke-width="0.35 px" style="stroke-width:0.35;stroke-miterlimit:4;stroke-dasharray:none;fill:none"/>
<circle cx="8.0625" cy="-1.98" r="1.6" stroke="#191919" stroke-width="0.35 px" style="stroke-width:0.35;stroke-miterlimit:4;stroke-dasharray:none;fill:none"/>
<path id="Shape2DView_nwe0005"  d="M 10.0125 4.27 L -27.187500000000004 4.27 " stroke="#191919" stroke-width="0.35 px" style="stroke-width:0.35;stroke-miterlimit:4;stroke-dasharray:none;fill:none;fill-opacity:1;fill-rule: evenodd"/>
<path id="Shape2DView_nwe0006"  d="M -27.1875 -8.23 L 10.012500000000003 -8.23 " stroke="#191919" stroke-width="0.35 px" style="stroke-width:0.35;stroke-miterlimit:4;stroke-dasharray:none;fill:none;fill-opacity:1;fill-rule: evenodd"/>
<path id="Shape2DView_nwe0008"  d="M -27.1875 4.27 A 1 1 0 0 1 -28.1875 3.27" stroke="#191919" stroke-width="0.35 px" style="stroke-width:0.35;stroke-miterlimit:4;stroke-dasharray:none;fill:none;fill-opacity:1;fill-rule: evenodd"/>
<path id="Shape2DView_nwe0009"  d="M -28.1875 -7.23 A 1 1 0 0 1 -27.1875 -8.23" stroke="#191919" stroke-width="0.35 px" style="stroke-width:0.35;stroke-miterlimit:4;stroke-dasharray:none;fill:none;fill-opacity:1;fill-rule: evenodd"/>
<path id="Shape2DView_nwe0010"  d="M 11.0125 3.27 A 1 1 0 0 1 10.0125 4.27" stroke="#191919" stroke-width="0.35 px" style="stroke-width:0.35;stroke-miterlimit:4;stroke-dasharray:none;fill:none;fill-opacity:1;fill-rule: evenodd"/>
<path id="Shape2DView_nwe0011"  d="M 10.0125 -8.23 A 1 1 0 0 1 11.0125 -7.23" stroke="#191919" stroke-width="0.35 px" style="stroke-width:0.35;stroke-miterlimit:4;stroke-dasharray:none;fill:none;fill-opacity:1;fill-rule: evenodd"/>
<circle cx="-25.2375" cy="-1.98" r="1.6" stroke="#191919" stroke-width="0.35 px" style="stroke-width:0.35;stroke-miterlimit:4;stroke-dasharray:none;fill:none"/>
<circle cx="8.0625" cy="-1.98" r="1.6" stroke="#191919" stroke-width="0.35 px" style="stroke-width:0.35;stroke-miterlimit:4;stroke-dasharray:none;fill:none"/>
<path id="Shape2DView_nwe0014"  d="M -19.74007768744 2.17 A 1 1 0 0 1 -20.7307 1.03334" stroke="#191919" stroke-width="0.35 px" style="stroke-width:0.35;stroke-miterlimit:4;stroke-dasharray:none;fill:none;fill-opacity:1;fill-rule: evenodd"/>
<path id="Shape2DView_nwe0015"  d="M 2.565077687448 2.17 L -19.74007768744 2.17 " stroke="#191919" stroke-width="0.35 px" style="stroke-width:0.35;stroke-miterlimit:4;stroke-dasharray:none;fill:none;fill-opacity:1;fill-rule: evenodd"/>
<path id="Shape2DView_nwe0016"  d="M -20.73069603115 1.033342409212 L -19.861599645607335 -5.266657590789013 " stroke="#191919" stroke-width="0.35 px" style="stroke-width:0.35;stroke-miterlimit:4;stroke-dasharray:none;fill:none;fill-opacity:1;fill-rule: evenodd"/>
<path id="Shape2DView_nwe0017"  d="M 3.555696031150576 1.0333424092120584 A 1 1 0 0 1 2.56508 2.17" stroke="#191919" stroke-width="0.35 px" style="stroke-width:0.35;stroke-miterlimit:4;stroke-dasharray:none;fill:none;fill-opacity:1;fill-rule: evenodd"/>
<path id="Shape2DView_nwe0018"  d="M -19.861599645602574 -5.266657590787942 A 1 1 0 0 1 -18.871 -6.13" stroke="#191919" stroke-width="0.35 px" style="stroke-width:0.35;stroke-miterlimit:4;stroke-dasharray:none;fill:none;fill-opacity:1;fill-rule: evenodd"/>
<path id="Shape2DView_nwe0019"  d="M 2.686599645608 -5.266657590788 L 3.5556960311505152 1.0333424092119294 " stroke="#191919" stroke-width="0.35 px" style="stroke-width:0.35;stroke-miterlimit:4;stroke-dasharray:none;fill:none;fill-opacity:1;fill-rule: evenodd"/>
<path id="Shape2DView_nwe0020"  d="M -18.8709813019 -6.13 L 1.6959813019059986 -6.13 " stroke="#191919" stroke-width="0.35 px" style="stroke-width:0.35;stroke-miterlimit:4;stroke-dasharray:none;fill:none;fill-opacity:1;fill-rule: evenodd"/>
<path id="Shape2DView_nwe0021"  d="M 1.695981301906 -6.13 A 1 1 0 0 1 2.6866 -5.26666" stroke="#191919" stroke-width="0.35 px" style="stroke-width:0.35;stroke-miterlimit:4;stroke-dasharray:none;fill:none;fill-opacity:1;fill-rule: evenodd"/>
<path id="Shape2DView_nwe0022"  d="M -19.74007768744 2.12 A 0.95 0.95 0 0 1 -20.6812 1.04018" stroke="#191919" stroke-width="0.35 px" style="stroke-width:0.35;stroke-miterlimit:4;stroke-dasharray:none;fill:none;fill-opacity:1;fill-rule: evenodd"/>
<path id="Shape2DView_nwe0023"  d="M 2.565077687448 2.12 L -19.74007768744 2.12 " stroke="#191919" stroke-width="0.35 px" style="stroke-width:0.35;stroke-miterlimit:4;stroke-dasharray:none;fill:none;fill-opacity:1;fill-rule: evenodd"/>
<path id="Shape2DView_nwe0024"  d="M -20.68116511396 1.040175288752 L -19.812068728417522 -5.259824711247658 " stroke="#191919" stroke-width="0.35 px" style="stroke-width:0.35;stroke-miterlimit:4;stroke-dasharray:none;fill:none;fill-opacity:1;fill-rule: evenodd"/>
<path id="Shape2DView_nwe0025"  d="M 3.5061651139654475 1.0401752887514555 A 0.95 0.95 0 0 1 2.56508 2.12" stroke="#191919" stroke-width="0.35 px" style="stroke-width:0.35;stroke-miterlimit:4;stroke-dasharray:none;fill:none;fill-opacity:1;fill-rule: evenodd"/>
<path id="Shape2DView_nwe0026"  d="M -19.812068728417447 -5.259824711248545 A 0.95 0.95 0 0 1 -18.871 -6.08" stroke="#191919" stroke-width="0.35 px" style="stroke-width:0.35;stroke-miterlimit:4;stroke-dasharray:none;fill:none;fill-opacity:1;fill-rule: evenodd"/>
<path id="Shape2DView_nwe0027"  d="M 2.637068728423 -5.259824711248 L 3.506165113965515 1.0401752887519287 " stroke="#191919" stroke-width="0.35 px" style="stroke-width:0.35;stroke-miterlimit:4;stroke-dasharray:none;fill:none;fill-opacity:1;fill-rule: evenodd"/>
<path id="Shape2DView_nwe0028"  d="M -18.8709813019 -6.08 L 1.6959813019059986 -6.08 " stroke="#191919" stroke-width="0.35 px" style="stroke-width:0.35;stroke-miterlimit:4;stroke-dasharray:none;fill:none;fill-opacity:1;fill-rule: evenodd"/>
<path id="Shape2DView_nwe0029"  d="M 1.695981301906 -6.08 A 0.95 0.95 0 0 1 2.63707 -5.25982" stroke="#191919" stroke-width="0.35 px" style="stroke-width:0.35;stroke-miterlimit:4;stroke-dasharray:none;fill:none;fill-opacity:1;fill-rule: evenodd"/>
<path id="Shape2DView_nwe0030"  d="M -18.77391639709 -6.03 A 1 1 0 0 0 -19.7641 -5.16997" stroke="#191919" stroke-width="0.35 px" style="stroke-width:0.35;stroke-miterlimit:4;stroke-dasharray:none;fill:none;fill-opacity:1;fill-rule: evenodd"/>
<path id="Shape2DView_nwe0031"  d="M -19.76407263254 -5.169966529579 L -20.62635658315793 0.930033470421292 " stroke="#191919" stroke-width="0.35 px" style="stroke-width:0.35;stroke-miterlimit:4;stroke-dasharray:none;fill:none;fill-opacity:1;fill-rule: evenodd"/>
<path id="Shape2DView_nwe0032"  d="M -20.62635658315854 0.9300334704210648 A 1 1 0 0 0 -19.6362 2.07" stroke="#191919" stroke-width="0.35 px" style="stroke-width:0.35;stroke-miterlimit:4;stroke-dasharray:none;fill:none;fill-opacity:1;fill-rule: evenodd"/>
<path id="Shape2DView_nwe0033"  d="M -19.63620034771 2.07 L 2.461200347715998 2.07 " stroke="#191919" stroke-width="0.35 px" style="stroke-width:0.35;stroke-miterlimit:4;stroke-dasharray:none;fill:none;fill-opacity:1;fill-rule: evenodd"/>
<path id="Shape2DView_nwe0034"  d="M 2.461200347716 2.0700000000000003 A 1 1 0 0 0 3.45136 0.930033" stroke="#191919" stroke-width="0.35 px" style="stroke-width:0.35;stroke-miterlimit:4;stroke-dasharray:none;fill:none;fill-opacity:1;fill-rule: evenodd"/>
<path id="Shape2DView_nwe0035"  d="M 3.451356583164 0.930033470421 L 2.5890726325461286 -5.169966529578876 " stroke="#191919" stroke-width="0.35 px" style="stroke-width:0.35;stroke-miterlimit:4;stroke-dasharray:none;fill:none;fill-opacity:1;fill-rule: evenodd"/>
<path id="Shape2DView_nwe0036"  d="M 2.589072632547542 -5.169966529578936 A 1 1 0 0 0 1.59892 -6.03" stroke="#191919" stroke-width="0.35 px" style="stroke-width:0.35;stroke-miterlimit:4;stroke-dasharray:none;fill:none;fill-opacity:1;fill-rule: evenodd"/>
<path id="Shape2DView_nwe0037"  d="M 1.598916397099 -6.03 L -18.77391639709 -6.03 " stroke="#191919" stroke-width="0.35 px" style="stroke-width:0.35;stroke-miterlimit:4;stroke-dasharray:none;fill:none;fill-opacity:1;fill-rule: evenodd"/>
<path id="Shape2DView_nwe0038"  d="M -18.77391639709 -5.930000000000001 A 0.9 0.9 0 0 0 -19.6651 -5.15597" stroke="#191919" stroke-width="0.35 px" style="stroke-width:0.35;stroke-miterlimit:4;stroke-dasharray:none;fill:none;fill-opacity:1;fill-rule: evenodd"/>
<path id="Shape2DView_nwe0039"  d="M -19.665057009 -5.155969876621 L -20.52734095961793 0.9440301233792923 " stroke="#191919" stroke-width="0.35 px" style="stroke-width:0.35;stroke-miterlimit:4;stroke-dasharray:none;fill:none;fill-opacity:1;fill-rule: evenodd"/>
<path id="Shape2DView_nwe0040"  d="M -20.527340959613685 0.9440301233789583 A 0.9 0.9 0 0 0 -19.6362 1.97" stroke="#191919" stroke-width="0.35 px" style="stroke-width:0.35;stroke-miterlimit:4;stroke-dasharray:none;fill:none;fill-opacity:1;fill-rule: evenodd"/>
<path id="Shape2DView_nwe0041"  d="M -19.63620034771 1.97 L 2.461200347715998 1.97 " stroke="#191919" stroke-width="0.35 px" style="stroke-width:0.35;stroke-miterlimit:4;stroke-dasharray:none;fill:none;fill-opacity:1;fill-rule: evenodd"/>
<path id="Shape2DView_nwe0042"  d="M 2.461200347716 1.9700000000000002 A 0.9 0.9 0 0 0 3.35234 0.94403" stroke="#191919" stroke-width="0.35 px" style="stroke-width:0.35;stroke-miterlimit:4;stroke-dasharray:none;fill:none;fill-opacity:1;fill-rule: evenodd"/>
<path id="Shape2DView_nwe0043"  d="M 3.35234095962 0.944030123379 L 2.490057009002109 -5.155969876621015 " stroke="#191919" stroke-width="0.35 px" style="stroke-width:0.35;stroke-miterlimit:4;stroke-dasharray:none;fill:none;fill-opacity:1;fill-rule: evenodd"/>
<path id="Shape2DView_nwe0044"  d="M 2.490057009002688 -5.155969876621042 A 0.9 0.9 0 0 0 1.59892 -5.93" stroke="#191919" stroke-width="0.35 px" style="stroke-width:0.35;stroke-miterlimit:4;stroke-dasharray:none;fill:none;fill-opacity:1;fill-rule: evenodd"/>
<path id="Shape2DView_nwe0045"  d="M 1.598916397099 -5.93 L -18.77391639709 -5.93 " stroke="#191919" stroke-width="0.35 px" style="stroke-width:0.35;stroke-miterlimit:4;stroke-dasharray:none;fill:none;fill-opacity:1;fill-rule: evenodd"/>
<circle cx="-16.03" cy="-3.96" r="0.526666666667" stroke="#191919" stroke-width="0.35 px" style="stroke-width:0.35;stroke-miterlimit:4;stroke-dasharray:none;fill:none"/>
<circle cx="-3.435" cy="-1.98" r="0.526666666667" stroke="#191919" stroke-width="0.35 px" style="stroke-width:0.35;stroke-miterlimit:4;stroke-dasharray:none;fill:none"/>
<circle cx="-6.87" cy="0.0" r="0.526666666667" stroke="#191919" stroke-width="0.35 px" style="stroke-width:0.35;stroke-miterlimit:4;stroke-dasharray:none;fill:none"/>
<circle cx="-14.885" cy="-1.98" r="0.526666666667" stroke="#191919" stroke-width="0.35 px" style="stroke-width:0.35;stroke-miterlimit:4;stroke-dasharray:none;fill:none"/>
<circle cx="-11.45" cy="0.0" r="0.526666666667" stroke="#191919" stroke-width="0.35 px" style="stroke-width:0.35;stroke-miterlimit:4;stroke-dasharray:none;fill:none"/>
<circle cx="-17.175" cy="-1.98" r="0.526666666667" stroke="#191919" stroke-width="0.35 px" style="stroke-width:0.35;stroke-miterlimit:4;stroke-dasharray:none;fill:none"/>
<circle cx="-6.87" cy="-3.96" r="0.526666666667" stroke="#191919" stroke-width="0.35 px" style="stroke-width:0.35;stroke-miterlimit:4;stroke-dasharray:none;fill:none"/>
<circle cx="1.145" cy="-1.98" r="0.526666666667" stroke="#191919" stroke-width="0.35 px" style="stroke-width:0.35;stroke-miterlimit:4;stroke-dasharray:none;fill:none"/>
<circle cx="-4.58" cy="0.0" r="0.526666666667" stroke="#191919" stroke-width="0.35 px" style="stroke-width:0.35;stroke-miterlimit:4;stroke-dasharray:none;fill:none"/>
<circle cx="-9.16" cy="0.0" r="0.526666666667" stroke="#191919" stroke-width="0.35 px" style="stroke-width:0.35;stroke-miterlimit:4;stroke-dasharray:none;fill:none"/>
<circle cx="-2.29" cy="0.0" r="0.526666666667" stroke="#191919" stroke-width="0.35 px" style="stroke-width:0.35;stroke-miterlimit:4;stroke-dasharray:none;fill:none"/>
<circle cx="-10.305" cy="-1.98" r="0.526666666667" stroke="#191919" stroke-width="0.35 px" style="stroke-width:0.35;stroke-miterlimit:4;stroke-dasharray:none;fill:none"/>
<circle cx="-5.725" cy="-1.98" r="0.526666666667" stroke="#191919" stroke-width="0.35 px" style="stroke-width:0.35;stroke-miterlimit:4;stroke-dasharray:none;fill:none"/>
<circle cx="-16.03" cy="0.0" r="0.526666666667" stroke="#191919" stroke-width="0.35 px" style="stroke-width:0.35;stroke-miterlimit:4;stroke-dasharray:none;fill:none"/>
<circle cx="-1.145" cy="-1.98" r="0.526666666667" stroke="#191919" stroke-width="0.35 px" style="stroke-width:0.35;stroke-miterlimit:4;stroke-dasharray:none;fill:none"/>
<circle cx="-2.29" cy="-3.96" r="0.526666666667" stroke="#191919" stroke-width="0.35 px" style="stroke-width:0.35;stroke-miterlimit:4;stroke-dasharray:none;fill:none"/>
<circle cx="-4.58" cy="-3.96" r="0.526666666667" stroke="#191919" stroke-width="0.35 px" style="stroke-width:0.35;stroke-miterlimit:4;stroke-dasharray:none;fill:none"/>
<circle cx="-13.74" cy="-3.96" r="0.526666666667" stroke="#191919" stroke-width="0.35 px" style="stroke-width:0.35;stroke-miterlimit:4;stroke-dasharray:none;fill:none"/>
<circle cx="-18.32" cy="0.0" r="0.526666666667" stroke="#191919" stroke-width="0.35 px" style="stroke-width:0.35;stroke-miterlimit:4;stroke-dasharray:none;fill:none"/>
<circle cx="0.0" cy="0.0" r="0.526666666667" stroke="#191919" stroke-width="0.35 px" style="stroke-width:0.35;stroke-miterlimit:4;stroke-dasharray:none;fill:none"/>
<circle cx="-9.16" cy="-3.96" r="0.526666666667" stroke="#191919" stroke-width="0.35 px" style="stroke-width:0.35;stroke-miterlimit:4;stroke-dasharray:none;fill:none"/>
<circle cx="-8.015" cy="-1.98" r="0.526666666667" stroke="#191919" stroke-width="0.35 px" style="stroke-width:0.35;stroke-miterlimit:4;stroke-dasharray:none;fill:none"/>
<circle cx="0.0" cy="-3.96" r="0.526666666667" stroke="#191919" stroke-width="0.35 px" style="stroke-width:0.35;stroke-miterlimit:4;stroke-dasharray:none;fill:none"/>
<circle cx="-12.595" cy="-1.98" r="0.526666666667" stroke="#191919" stroke-width="0.35 px" style="stroke-width:0.35;stroke-miterlimit:4;stroke-dasharray:none;fill:none"/>
<circle cx="-11.45" cy="-3.96" r="0.526666666667" stroke="#191919" stroke-width="0.35 px" style="stroke-width:0.35;stroke-miterlimit:4;stroke-dasharray:none;fill:none"/>
<circle cx="-13.74" cy="0.0" r="0.526666666667" stroke="#191919" stroke-width="0.35 px" style="stroke-width:0.35;stroke-miterlimit:4;stroke-dasharray:none;fill:none"/>
<circle cx="-16.03" cy="-3.96" r="0.426666666667" stroke="#191919" stroke-width="0.35 px" style="stroke-width:0.35;stroke-miterlimit:4;stroke-dasharray:none;fill:none"/>
<circle cx="-3.435" cy="-1.98" r="0.426666666667" stroke="#191919" stroke-width="0.35 px" style="stroke-width:0.35;stroke-miterlimit:4;stroke-dasharray:none;fill:none"/>
<circle cx="-6.87" cy="0.0" r="0.426666666667" stroke="#191919" stroke-width="0.35 px" style="stroke-width:0.35;stroke-miterlimit:4;stroke-dasharray:none;fill:none"/>
<circle cx="-14.885" cy="-1.98" r="0.426666666667" stroke="#191919" stroke-width="0.35 px" style="stroke-width:0.35;stroke-miterlimit:4;stroke-dasharray:none;fill:none"/>
<circle cx="-11.45" cy="0.0" r="0.426666666667" stroke="#191919" stroke-width="0.35 px" style="stroke-width:0.35;stroke-miterlimit:4;stroke-dasharray:none;fill:none"/>
<circle cx="-17.175" cy="-1.98" r="0.426666666667" stroke="#191919" stroke-width="0.35 px" style="stroke-width:0.35;stroke-miterlimit:4;stroke-dasharray:none;fill:none"/>
<circle cx="-6.87" cy="-3.96" r="0.426666666667" stroke="#191919" stroke-width="0.35 px" style="stroke-width:0.35;stroke-miterlimit:4;stroke-dasharray:none;fill:none"/>
<circle cx="1.145" cy="-1.98" r="0.426666666667" stroke="#191919" stroke-width="0.35 px" style="stroke-width:0.35;stroke-miterlimit:4;stroke-dasharray:none;fill:none"/>
<circle cx="-4.58" cy="0.0" r="0.426666666667" stroke="#191919" stroke-width="0.35 px" style="stroke-width:0.35;stroke-miterlimit:4;stroke-dasharray:none;fill:none"/>
<circle cx="-9.16" cy="0.0" r="0.426666666667" stroke="#191919" stroke-width="0.35 px" style="stroke-width:0.35;stroke-miterlimit:4;stroke-dasharray:none;fill:none"/>
<circle cx="-2.29" cy="0.0" r="0.426666666667" stroke="#191919" stroke-width="0.35 px" style="stroke-width:0.35;stroke-miterlimit:4;stroke-dasharray:none;fill:none"/>
<circle cx="-10.305" cy="-1.98" r="0.426666666667" stroke="#191919" stroke-width="0.35 px" style="stroke-width:0.35;stroke-miterlimit:4;stroke-dasharray:none;fill:none"/>
<circle cx="-5.725" cy="-1.98" r="0.426666666667" stroke="#191919" stroke-width="0.35 px" style="stroke-width:0.35;stroke-miterlimit:4;stroke-dasharray:none;fill:none"/>
<circle cx="-16.03" cy="0.0" r="0.426666666667" stroke="#191919" stroke-width="0.35 px" style="stroke-width:0.35;stroke-miterlimit:4;stroke-dasharray:none;fill:none"/>
<circle cx="-1.145" cy="-1.98" r="0.426666666667" stroke="#191919" stroke-width="0.35 px" style="stroke-width:0.35;stroke-miterlimit:4;stroke-dasharray:none;fill:none"/>
<circle cx="-2.29" cy="-3.96" r="0.426666666667" stroke="#191919" stroke-width="0.35 px" style="stroke-width:0.35;stroke-miterlimit:4;stroke-dasharray:none;fill:none"/>
<circle cx="-4.58" cy="-3.96" r="0.426666666667" stroke="#191919" stroke-width="0.35 px" style="stroke-width:0.35;stroke-miterlimit:4;stroke-dasharray:none;fill:none"/>
<circle cx="-13.74" cy="-3.96" r="0.426666666667" stroke="#191919" stroke-width="0.35 px" style="stroke-width:0.35;stroke-miterlimit:4;stroke-dasharray:none;fill:none"/>
<circle cx="-18.32" cy="0.0" r="0.426666666667" stroke="#191919" stroke-width="0.35 px" style="stroke-width:0.35;stroke-miterlimit:4;stroke-dasharray:none;fill:none"/>
<circle cx="0.0" cy="0.0" r="0.426666666667" stroke="#191919" stroke-width="0.35 px" style="stroke-width:0.35;stroke-miterlimit:4;stroke-dasharray:none;fill:none"/>
<circle cx="-9.16" cy="-3.96" r="0.426666666667" stroke="#191919" stroke-width="0.35 px" style="stroke-width:0.35;stroke-miterlimit:4;stroke-dasharray:none;fill:none"/>
<circle cx="-8.015" cy="-1.98" r="0.426666666667" stroke="#191919" stroke-width="0.35 px" style="stroke-width:0.35;stroke-miterlimit:4;stroke-dasharray:none;fill:none"/>
<circle cx="0.0" cy="-3.96" r="0.426666666667" stroke="#191919" stroke-width="0.35 px" style="stroke-width:0.35;stroke-miterlimit:4;stroke-dasharray:none;fill:none"/>
<circle cx="-12.595" cy="-1.98" r="0.426666666667" stroke="#191919" stroke-width="0.35 px" style="stroke-width:0.35;stroke-miterlimit:4;stroke-dasharray:none;fill:none"/>
<circle cx="-11.45" cy="-3.96" r="0.426666666667" stroke="#191919" stroke-width="0.35 px" style="stroke-width:0.35;stroke-miterlimit:4;stroke-dasharray:none;fill:none"/>
<circle cx="-13.74" cy="0.0" r="0.426666666667" stroke="#191919" stroke-width="0.35 px" style="stroke-width:0.35;stroke-miterlimit:4;stroke-dasharray:none;fill:none"/>
<circle cx="-25.2375" cy="-1.98" r="1.6" stroke="#191919" stroke-width="0.35 px" style="stroke-width:0.35;stroke-miterlimit:4;stroke-dasharray:none;fill:none"/>
<circle cx="8.0625" cy="-1.98" r="1.6" stroke="#191919" stroke-width="0.35 px" style="stroke-width:0.35;stroke-miterlimit:4;stroke-dasharray:none;fill:none"/>
<path id="Shape2DView_nwe0104"  d="M -28.1875 -7.23 L -28.186871220989325 -7.23 L -28.184992791218182 -7.23 L -28.181888333030834 -7.23 L -28.17759688679024 -7.23 L -28.172172419922827 -7.23 L -28.165683148246803 -7.23 L -28.158210678118653 -7.23 L -28.149848980185872 -7.23 L -28.140703207651534 -7.23 L -28.130888373911755 -7.23 L -28.120527906195516 -7.23 L -28.10975209339563 -7.23 L -28.09869644761033 -7.23 L -28.0875 -7.23 " stroke="#191919" stroke-width="0.35 px" style="stroke-width:0.35;stroke-miterlimit:4;stroke-dasharray:none;fill:none;fill-opacity:1;fill-rule: evenodd"/>
<path id="Shape2DView_nwe0105"  d="M -28.0875 3.27 L -28.0875 -7.23 " stroke="#191919" stroke-width="0.35 px" style="stroke-width:0.35;stroke-miterlimit:4;stroke-dasharray:none;fill:none;fill-opacity:1;fill-rule: evenodd"/>
<path id="Shape2DView_nwe0106"  d="M -28.1875 3.27 L -28.186871220989325 3.27 L -28.184992791218182 3.27 L -28.181888333030834 3.27 L -28.17759688679024 3.27 L -28.172172419922827 3.27 L -28.165683148246803 3.27 L -28.158210678118653 3.27 L -28.149848980185872 3.27 L -28.140703207651534 3.27 L -28.130888373911755 3.27 L -28.120527906195516 3.27 L -28.10975209339563 3.27 L -28.09869644761033 3.27 L -28.0875 3.27 " stroke="#191919" stroke-width="0.35 px" style="stroke-width:0.35;stroke-miterlimit:4;stroke-dasharray:none;fill:none;fill-opacity:1;fill-rule: evenodd"/>
<path id="Shape2DView_nwe0107"  d="M -27.1875 4.27 L -27.1875 4.269371220989324 L -27.1875 4.267492791218182 L -27.1875 4.264388333030837 L -27.1875 4.260096886790242 L -27.1875 4.254672419922828 L -27.1875 4.248183148246803 L -27.1875 4.2407106781186545 L -27.1875 4.232348980185873 L -27.1875 4.223203207651534 L -27.1875 4.213388373911756 L -27.1875 4.2030279061955165 L -27.1875 4.1922520933956315 L -27.1875 4.181196447610331 L -27.1875 4.17 " stroke="#191919" stroke-width="0.35 px" style="stroke-width:0.35;stroke-miterlimit:4;stroke-dasharray:none;fill:none;fill-opacity:1;fill-rule: evenodd"/>
<path id="Shape2DView_nwe0108"  d="M -27.1875 4.17 A 0.9 0.9 0 0 1 -28.0875 3.27" stroke="#191919" stroke-width="0.35 px" style="stroke-width:0.35;stroke-miterlimit:4;stroke-dasharray:none;fill:none;fill-opacity:1;fill-rule: evenodd"/>
<path id="Shape2DView_nwe0109"  d="M -27.1875 -8.23 L -27.1875 -8.229371220989325 L -27.1875 -8.227492791218182 L -27.1875 -8.224388333030838 L -27.1875 -8.220096886790243 L -27.1875 -8.21467241992283 L -27.1875 -8.208183148246803 L -27.1875 -8.200710678118655 L -27.1875 -8.192348980185875 L -27.1875 -8.183203207651534 L -27.1875 -8.173388373911756 L -27.1875 -8.163027906195518 L -27.1875 -8.152252093395632 L -27.1875 -8.141196447610332 L -27.1875 -8.13 " stroke="#191919" stroke-width="0.35 px" style="stroke-width:0.35;stroke-miterlimit:4;stroke-dasharray:none;fill:none;fill-opacity:1;fill-rule: evenodd"/>
<path id="Shape2DView_nwe0110"  d="M -28.0875 -7.23 A 0.9 0.9 0 0 1 -27.1875 -8.13" stroke="#191919" stroke-width="0.35 px" style="stroke-width:0.35;stroke-miterlimit:4;stroke-dasharray:none;fill:none;fill-opacity:1;fill-rule: evenodd"/>
<path id="Shape2DView_nwe0111"  d="M 10.0125 4.17 L -27.187500000000004 4.17 " stroke="#191919" stroke-width="0.35 px" style="stroke-width:0.35;stroke-miterlimit:4;stroke-dasharray:none;fill:none;fill-opacity:1;fill-rule: evenodd"/>
<path id="Shape2DView_nwe0112"  d="M 10.0125 4.27 L 10.0125 4.269371220989324 L 10.0125 4.267492791218182 L 10.0125 4.264388333030837 L 10.0125 4.260096886790242 L 10.0125 4.254672419922828 L 10.0125 4.248183148246803 L 10.0125 4.2407106781186545 L 10.0125 4.232348980185873 L 10.0125 4.223203207651534 L 10.0125 4.213388373911756 L 10.0125 4.2030279061955165 L 10.0125 4.1922520933956315 L 10.0125 4.181196447610331 L 10.0125 4.17 " stroke="#191919" stroke-width="0.35 px" style="stroke-width:0.35;stroke-miterlimit:4;stroke-dasharray:none;fill:none;fill-opacity:1;fill-rule: evenodd"/>
<path id="Shape2DView_nwe0113"  d="M 10.0125 -8.23 L 10.0125 -8.229371220989325 L 10.0125 -8.227492791218182 L 10.0125 -8.224388333030838 L 10.0125 -8.220096886790243 L 10.0125 -8.21467241992283 L 10.0125 -8.208183148246803 L 10.0125 -8.200710678118655 L 10.0125 -8.192348980185875 L 10.0125 -8.183203207651534 L 10.0125 -8.173388373911756 L 10.0125 -8.163027906195518 L 10.0125 -8.152252093395632 L 10.0125 -8.141196447610332 L 10.0125 -8.13 " stroke="#191919" stroke-width="0.35 px" style="stroke-width:0.35;stroke-miterlimit:4;stroke-dasharray:none;fill:none;fill-opacity:1;fill-rule: evenodd"/>
<path id="Shape2DView_nwe0114"  d="M -27.1875 -8.13 L 10.012500000000003 -8.13 " stroke="#191919" stroke-width="0.35 px" style="stroke-width:0.35;stroke-miterlimit:4;stroke-dasharray:none;fill:none;fill-opacity:1;fill-rule: evenodd"/>
<path id="Shape2DView_nwe0115"  d="M 11.0125 3.27 L 11.011871220989324 3.27 L 11.009992791218181 3.27 L 11.006888333030837 3.27 L 11.002596886790242 3.27 L 10.997172419922828 3.27 L 10.990683148246802 3.27 L 10.983210678118654 3.27 L 10.974848980185874 3.27 L 10.965703207651533 3.27 L 10.955888373911755 3.27 L 10.945527906195517 3.27 L 10.93475209339563 3.27 L 10.92369644761033 3.27 L 10.9125 3.27 " stroke="#191919" stroke-width="0.35 px" style="stroke-width:0.35;stroke-miterlimit:4;stroke-dasharray:none;fill:none;fill-opacity:1;fill-rule: evenodd"/>
<path id="Shape2DView_nwe0116"  d="M 10.9125 3.27 A 0.9 0.9 0 0 1 10.0125 4.17" stroke="#191919" stroke-width="0.35 px" style="stroke-width:0.35;stroke-miterlimit:4;stroke-dasharray:none;fill:none;fill-opacity:1;fill-rule: evenodd"/>
<path id="Shape2DView_nwe0117"  d="M 11.0125 -7.23 L 11.011871220989324 -7.23 L 11.009992791218181 -7.23 L 11.006888333030837 -7.23 L 11.002596886790242 -7.23 L 10.997172419922828 -7.23 L 10.990683148246802 -7.23 L 10.983210678118654 -7.23 L 10.974848980185874 -7.23 L 10.965703207651533 -7.23 L 10.955888373911755 -7.23 L 10.945527906195517 -7.23 L 10.93475209339563 -7.23 L 10.92369644761033 -7.23 L 10.9125 -7.23 " stroke="#191919" stroke-width="0.35 px" style="stroke-width:0.35;stroke-miterlimit:4;stroke-dasharray:none;fill:none;fill-opacity:1;fill-rule: evenodd"/>
<path id="Shape2DView_nwe0118"  d="M 10.0125 -8.13 A 0.9 0.9 0 0 1 10.9125 -7.23" stroke="#191919" stroke-width="0.35 px" style="stroke-width:0.35;stroke-miterlimit:4;stroke-dasharray:none;fill:none;fill-opacity:1;fill-rule: evenodd"/>
<path id="Shape2DView_nwe0119"  d="M 10.9125 -7.23 L 10.9125 3.2699999999999996 " stroke="#191919" stroke-width="0.35 px" style="stroke-width:0.35;stroke-miterlimit:4;stroke-dasharray:none;fill:none;fill-opacity:1;fill-rule: evenodd"/>
<circle cx="-25.2375" cy="-1.98" r="1.7" stroke="#191919" stroke-width="0.35 px" style="stroke-width:0.35;stroke-miterlimit:4;stroke-dasharray:none;fill:none"/>
<circle cx="8.0625" cy="-1.98" r="1.7" stroke="#191919" stroke-width="0.35 px" style="stroke-width:0.35;stroke-miterlimit:4;stroke-dasharray:none;fill:none"/>
<path id="Shape2DView_nwe0122"  d="M -19.74007768744 2.77 A 1.6 1.6 0 0 1 -21.3251 0.951348" stroke="#191919" stroke-width="0.35 px" style="stroke-width:0.35;stroke-miterlimit:4;stroke-dasharray:none;fill:none;fill-opacity:1;fill-rule: evenodd"/>
<path id="Shape2DView_nwe0123"  d="M 2.565077687448 2.77 L -19.74007768744 2.77 " stroke="#191919" stroke-width="0.35 px" style="stroke-width:0.35;stroke-miterlimit:4;stroke-dasharray:none;fill:none;fill-opacity:1;fill-rule: evenodd"/>
<path id="Shape2DView_nwe0124"  d="M 4.150067037372122 0.9513478547392935 A 1.6 1.6 0 0 1 2.56508 2.77" stroke="#191919" stroke-width="0.35 px" style="stroke-width:0.35;stroke-miterlimit:4;stroke-dasharray:none;fill:none;fill-opacity:1;fill-rule: evenodd"/>
<path id="Shape2DView_nwe0125"  d="M 3.28097065183 -5.348652145261 L 4.150067037372516 0.9513478547389287 " stroke="#191919" stroke-width="0.35 px" style="stroke-width:0.35;stroke-miterlimit:4;stroke-dasharray:none;fill:none;fill-opacity:1;fill-rule: evenodd"/>
<path id="Shape2DView_nwe0126"  d="M 1.695981301906 -6.73 A 1.6 1.6 0 0 1 3.28097 -5.34865" stroke="#191919" stroke-width="0.35 px" style="stroke-width:0.35;stroke-miterlimit:4;stroke-dasharray:none;fill:none;fill-opacity:1;fill-rule: evenodd"/>
<path id="Shape2DView_nwe0127"  d="M -18.8709813019 -6.73 L 1.6959813019059986 -6.73 " stroke="#191919" stroke-width="0.35 px" style="stroke-width:0.35;stroke-miterlimit:4;stroke-dasharray:none;fill:none;fill-opacity:1;fill-rule: evenodd"/>
<path id="Shape2DView_nwe0128"  d="M -20.45597065182412 -5.348652145260706 A 1.6 1.6 0 0 1 -18.871 -6.73" stroke="#191919" stroke-width="0.35 px" style="stroke-width:0.35;stroke-miterlimit:4;stroke-dasharray:none;fill:none;fill-opacity:1;fill-rule: evenodd"/>
<path id="Shape2DView_nwe0129"  d="M -21.32506703737 0.951347854739 L -20.455970651827524 -5.348652145260659 " stroke="#191919" stroke-width="0.35 px" style="stroke-width:0.35;stroke-miterlimit:4;stroke-dasharray:none;fill:none;fill-opacity:1;fill-rule: evenodd"/>
<path id="Shape2DView_nwe0130"  d="M -19.74007768744 2.17 L -19.74007768744 2.1737726740640544 L -19.74007768744 2.185043252690906 L -19.74007768744 2.2036700018149795 L -19.74007768744 2.2294186792585484 L -19.74007768744 2.2619654804630294 L -19.74007768744 2.300901110519182 L -19.74007768744 2.3457359312880715 L -19.74007768744 2.39590611888476 L -19.74007768744 2.450780754090798 L -19.74007768744 2.509669756529465 L -19.74007768744 2.5718325628269 L -19.74007768744 2.6364874396262112 L -19.74007768744 2.7028213143380153 L -19.74007768744 2.77 " stroke="#191919" stroke-width="0.35 px" style="stroke-width:0.35;stroke-miterlimit:4;stroke-dasharray:none;fill:none;fill-opacity:1;fill-rule: evenodd"/>
<path id="Shape2DView_nwe0131"  d="M -20.730696031148454 1.033342409211765 L -20.73443331128112 1.032826844663343 L -20.74559815321302 1.0312866345414116 L -20.76405015257887 1.0287411478819042 L -20.78955726478055 1.0252223956564903 L -20.82179872308255 1.0207746282160317 L -20.860369072439795 1.0154537788167475 L -20.904783268330075 1.009326760227062 L -20.954482776470353 1.0024706232607192 L -21.008842596709442 0.9949715878180949 L -21.06717912276753 0.9869239586209215 L -21.1287587389818 0.9784289392756966 L -21.192807045949028 0.9695933595796116 L -21.25851859904741 0.9605283320738672 L -21.32506703737 0.951347854739 " stroke="#191919" stroke-width="0.35 px" style="stroke-width:0.35;stroke-miterlimit:4;stroke-dasharray:none;fill:none;fill-opacity:1;fill-rule: evenodd"/>
<path id="Shape2DView_nwe0132"  d="M 2.565077687448 2.17 L 2.565077687448 2.1737726740640544 L 2.565077687448 2.185043252690906 L 2.565077687448 2.2036700018149795 L 2.565077687448 2.2294186792585484 L 2.565077687448 2.2619654804630294 L 2.565077687448 2.300901110519182 L 2.565077687448 2.3457359312880715 L 2.565077687448 2.39590611888476 L 2.565077687448 2.450780754090798 L 2.565077687448 2.509669756529465 L 2.565077687448 2.5718325628269 L 2.565077687448 2.6364874396262112 L 2.565077687448 2.7028213143380153 L 2.565077687448 2.77 " stroke="#191919" stroke-width="0.35 px" style="stroke-width:0.35;stroke-miterlimit:4;stroke-dasharray:none;fill:none;fill-opacity:1;fill-rule: evenodd"/>
<path id="Shape2DView_nwe0133"  d="M -19.861599645608454 -5.266657590788236 L -19.86533692574112 -5.267173155336657 L -19.87650176767302 -5.268713365458589 L -19.89495376703887 -5.271258852118096 L -19.92046087924055 -5.27477760434351 L -19.952702337542554 -5.279225371783968 L -19.991272686899794 -5.284546221183253 L -20.035686882790074 -5.290673239772938 L -20.085386390930353 -5.297529376739281 L -20.13974621116944 -5.305028412181905 L -20.19808273722753 -5.3130760413790785 L -20.2596623534418 -5.321571060724303 L -20.323710660409027 -5.330406640420389 L -20.38942221350741 -5.339471667926133 L -20.45597065183 -5.348652145261 " stroke="#191919" stroke-width="0.35 px" style="stroke-width:0.35;stroke-miterlimit:4;stroke-dasharray:none;fill:none;fill-opacity:1;fill-rule: evenodd"/>
<path id="Shape2DView_nwe0134"  d="M 3.555696031150454 1.033342409211765 L 3.5594333112831174 1.032826844663343 L 3.5705981532150184 1.0312866345414116 L 3.589050152580872 1.0287411478819042 L 3.614557264782552 1.0252223956564903 L 3.6467987230845518 1.0207746282160317 L 3.685369072441794 1.0154537788167475 L 3.729783268332073 1.009326760227062 L 3.779482776472352 1.0024706232607192 L 3.833842596711441 0.9949715878180949 L 3.89217912276953 0.9869239586209215 L 3.9537587389837987 0.9784289392756966 L 4.017807045951027 0.9695933595796116 L 4.083518599049408 0.9605283320738672 L 4.150067037372 0.951347854739 " stroke="#191919" stroke-width="0.35 px" style="stroke-width:0.35;stroke-miterlimit:4;stroke-dasharray:none;fill:none;fill-opacity:1;fill-rule: evenodd"/>
<path id="Shape2DView_nwe0135"  d="M -18.8709813019 -6.130000000000001 L -18.8709813019 -6.133772674064055 L -18.8709813019 -6.145043252690906 L -18.8709813019 -6.16367000181498 L -18.8709813019 -6.189418679258549 L -18.8709813019 -6.22196548046303 L -18.8709813019 -6.260901110519183 L -18.8709813019 -6.305735931288072 L -18.8709813019 -6.35590611888476 L -18.8709813019 -6.410780754090799 L -18.8709813019 -6.469669756529465 L -18.8709813019 -6.5318325628269 L -18.8709813019 -6.596487439626212 L -18.8709813019 -6.662821314338015 L -18.8709813019 -6.73 " stroke="#191919" stroke-width="0.35 px" style="stroke-width:0.35;stroke-miterlimit:4;stroke-dasharray:none;fill:none;fill-opacity:1;fill-rule: evenodd"/>
<path id="Shape2DView_nwe0136"  d="M 2.6865996456084544 -5.266657590788236 L 2.690336925741118 -5.267173155336657 L 2.701501767673019 -5.268713365458589 L 2.7199537670388723 -5.271258852118096 L 2.7454608792405524 -5.27477760434351 L 2.7777023375425522 -5.279225371783968 L 2.8162726868997945 -5.284546221183253 L 2.8606868827900733 -5.290673239772938 L 2.9103863909303525 -5.297529376739281 L 2.964746211169441 -5.305028412181905 L 3.02308273722753 -5.3130760413790785 L 3.084662353441799 -5.321571060724303 L 3.1487106604090274 -5.330406640420389 L 3.2144222135074085 -5.339471667926133 L 3.28097065183 -5.348652145261 " stroke="#191919" stroke-width="0.35 px" style="stroke-width:0.35;stroke-miterlimit:4;stroke-dasharray:none;fill:none;fill-opacity:1;fill-rule: evenodd"/>
<path id="Shape2DView_nwe0137"  d="M 1.695981301906 -6.130000000000001 L 1.695981301906 -6.133772674064055 L 1.695981301906 -6.145043252690906 L 1.695981301906 -6.16367000181498 L 1.695981301906 -6.189418679258549 L 1.695981301906 -6.22196548046303 L 1.695981301906 -6.260901110519183 L 1.695981301906 -6.305735931288072 L 1.695981301906 -6.35590611888476 L 1.695981301906 -6.410780754090799 L 1.695981301906 -6.469669756529465 L 1.695981301906 -6.5318325628269 L 1.695981301906 -6.596487439626212 L 1.695981301906 -6.662821314338015 L 1.695981301906 -6.73 " stroke="#191919" stroke-width="0.35 px" style="stroke-width:0.35;stroke-miterlimit:4;stroke-dasharray:none;fill:none;fill-opacity:1;fill-rule: evenodd"/>
<path id="Shape2DView_nwe0138"  d="M -20.68116511396245 1.040175288751727 L -20.73069603115 1.033342409212 " stroke="#191919" stroke-width="0.35 px" style="stroke-width:0.35;stroke-miterlimit:4;stroke-dasharray:none;fill:none;fill-opacity:1;fill-rule: evenodd"/>
<path id="Shape2DView_nwe0139"  d="M -19.74007768744 2.1199999999999997 L -19.74007768744 2.17 " stroke="#191919" stroke-width="0.35 px" style="stroke-width:0.35;stroke-miterlimit:4;stroke-dasharray:none;fill:none;fill-opacity:1;fill-rule: evenodd"/>
<path id="Shape2DView_nwe0140"  d="M 2.565077687448 2.1199999999999997 L 2.565077687448 2.17 " stroke="#191919" stroke-width="0.35 px" style="stroke-width:0.35;stroke-miterlimit:4;stroke-dasharray:none;fill:none;fill-opacity:1;fill-rule: evenodd"/>
<path id="Shape2DView_nwe0141"  d="M -19.81206872841868 -5.259824711248475 L -19.86159964560132 -5.266657590787525 " stroke="#191919" stroke-width="0.35 px" style="stroke-width:0.35;stroke-miterlimit:4;stroke-dasharray:none;fill:none;fill-opacity:1;fill-rule: evenodd"/>
<path id="Shape2DView_nwe0142"  d="M 3.506165113965207 1.0401752887517282 L 3.5556960311503025 1.0333424092123398 " stroke="#191919" stroke-width="0.35 px" style="stroke-width:0.35;stroke-miterlimit:4;stroke-dasharray:none;fill:none;fill-opacity:1;fill-rule: evenodd"/>
<path id="Shape2DView_nwe0143"  d="M -18.8709813019 -6.079999999999999 L -18.8709813019 -6.13 " stroke="#191919" stroke-width="0.35 px" style="stroke-width:0.35;stroke-miterlimit:4;stroke-dasharray:none;fill:none;fill-opacity:1;fill-rule: evenodd"/>
<path id="Shape2DView_nwe0144"  d="M 2.6370687284229044 -5.259824711248612 L 2.686599645608 -5.266657590788 " stroke="#191919" stroke-width="0.35 px" style="stroke-width:0.35;stroke-miterlimit:4;stroke-dasharray:none;fill:none;fill-opacity:1;fill-rule: evenodd"/>
<path id="Shape2DView_nwe0145"  d="M 1.695981301906 -6.08 L 1.695981301906 -6.130000000000001 " stroke="#191919" stroke-width="0.35 px" style="stroke-width:0.35;stroke-miterlimit:4;stroke-dasharray:none;fill:none;fill-opacity:1;fill-rule: evenodd"/>
<path id="Shape2DView_nwe0146"  d="M -19.76407263254 -5.169966529579 L -19.665057008997536 -5.155969876621458 " stroke="#191919" stroke-width="0.35 px" style="stroke-width:0.35;stroke-miterlimit:4;stroke-dasharray:none;fill:none;fill-opacity:1;fill-rule: evenodd"/>
<path id="Shape2DView_nwe0147"  d="M -18.77391639709 -6.030000000000001 L -18.77391639709 -5.93 " stroke="#191919" stroke-width="0.35 px" style="stroke-width:0.35;stroke-miterlimit:4;stroke-dasharray:none;fill:none;fill-opacity:1;fill-rule: evenodd"/>
<path id="Shape2DView_nwe0148"  d="M -20.626356583161233 0.9300334704212285 L -20.527340959618765 0.9440301233787718 " stroke="#191919" stroke-width="0.35 px" style="stroke-width:0.35;stroke-miterlimit:4;stroke-dasharray:none;fill:none;fill-opacity:1;fill-rule: evenodd"/>
<path id="Shape2DView_nwe0149"  d="M -19.63620034771 2.0700000000000003 L -19.63620034771 1.9699999999999995 " stroke="#191919" stroke-width="0.35 px" style="stroke-width:0.35;stroke-miterlimit:4;stroke-dasharray:none;fill:none;fill-opacity:1;fill-rule: evenodd"/>
<path id="Shape2DView_nwe0150"  d="M 2.461200347716 2.0700000000000003 L 2.461200347716 1.9699999999999995 " stroke="#191919" stroke-width="0.35 px" style="stroke-width:0.35;stroke-miterlimit:4;stroke-dasharray:none;fill:none;fill-opacity:1;fill-rule: evenodd"/>
<path id="Shape2DView_nwe0151"  d="M 3.451356583164 0.930033470421 L 3.3523409596195735 0.944030123378819 " stroke="#191919" stroke-width="0.35 px" style="stroke-width:0.35;stroke-miterlimit:4;stroke-dasharray:none;fill:none;fill-opacity:1;fill-rule: evenodd"/>
<path id="Shape2DView_nwe0152"  d="M 2.589072632547213 -5.16996652957891 L 2.4900570090022964 -5.155969876621021 " stroke="#191919" stroke-width="0.35 px" style="stroke-width:0.35;stroke-miterlimit:4;stroke-dasharray:none;fill:none;fill-opacity:1;fill-rule: evenodd"/>
<path id="Shape2DView_nwe0153"  d="M 1.598916397099 -6.03 L 1.598916397099 -5.929999999999999 " stroke="#191919" stroke-width="0.35 px" style="stroke-width:0.35;stroke-miterlimit:4;stroke-dasharray:none;fill:none;fill-opacity:1;fill-rule: evenodd"/>
<path id="Shape2DView_nwe0154"  d="M -23.637500000000003 -1.98 L -23.636871220989327 -1.98 L -23.634992791218185 -1.98 L -23.631888333030837 -1.98 L -23.627596886790244 -1.98 L -23.62217241992283 -1.98 L -23.615683148246806 -1.98 L -23.608210678118656 -1.98 L -23.599848980185875 -1.98 L -23.590703207651536 -1.98 L -23.58088837391176 -1.98 L -23.57052790619552 -1.98 L -23.559752093395634 -1.98 L -23.548696447610332 -1.98 L -23.5375 -1.98 " stroke="#191919" stroke-width="0.35 px" style="stroke-width:0.35;stroke-miterlimit:4;stroke-dasharray:none;fill:none;fill-opacity:1;fill-rule: evenodd"/>
<path id="Shape2DView_nwe0155"  d="M 9.6625 -1.98 L 9.663128779010675 -1.98 L 9.665007208781818 -1.98 L 9.668111666969162 -1.98 L 9.672403113209757 -1.98 L 9.677827580077171 -1.98 L 9.684316851753197 -1.98 L 9.691789321881345 -1.98 L 9.700151019814125 -1.98 L 9.709296792348466 -1.98 L 9.719111626088244 -1.98 L 9.729472093804482 -1.98 L 9.740247906604369 -1.98 L 9.751303552389668 -1.98 L 9.7625 -1.98 " stroke="#191919" stroke-width="0.35 px" style="stroke-width:0.35;stroke-miterlimit:4;stroke-dasharray:none;fill:none;fill-opacity:1;fill-rule: evenodd"/>
<path id="Shape2DView_nwe0156"  d="M -15.503333333329998 -3.96 L -15.60333333333 -3.96 " stroke="#191919" stroke-width="0.35 px" style="stroke-width:0.35;stroke-miterlimit:4;stroke-dasharray:none;fill:none;fill-opacity:1;fill-rule: evenodd"/>
<path id="Shape2DView_nwe0157"  d="M -2.9083333333329993 -1.98 L -3.008333333333 -1.98 " stroke="#191919" stroke-width="0.35 px" style="stroke-width:0.35;stroke-miterlimit:4;stroke-dasharray:none;fill:none;fill-opacity:1;fill-rule: evenodd"/>
<path id="Shape2DView_nwe0158"  d="M -6.343333333332999 0.0 L -6.443333333333 0.0 " stroke="#191919" stroke-width="0.35 px" style="stroke-width:0.35;stroke-miterlimit:4;stroke-dasharray:none;fill:none;fill-opacity:1;fill-rule: evenodd"/>
<path id="Shape2DView_nwe0159"  d="M -14.358333333329998 -1.98 L -14.45833333333 -1.98 " stroke="#191919" stroke-width="0.35 px" style="stroke-width:0.35;stroke-miterlimit:4;stroke-dasharray:none;fill:none;fill-opacity:1;fill-rule: evenodd"/>
<path id="Shape2DView_nwe0160"  d="M -10.923333333329998 0.0 L -11.02333333333 0.0 " stroke="#191919" stroke-width="0.35 px" style="stroke-width:0.35;stroke-miterlimit:4;stroke-dasharray:none;fill:none;fill-opacity:1;fill-rule: evenodd"/>
<path id="Shape2DView_nwe0161"  d="M -16.648333333329997 -1.98 L -16.74833333333 -1.98 " stroke="#191919" stroke-width="0.35 px" style="stroke-width:0.35;stroke-miterlimit:4;stroke-dasharray:none;fill:none;fill-opacity:1;fill-rule: evenodd"/>
<path id="Shape2DView_nwe0162"  d="M -6.343333333332999 -3.96 L -6.443333333333 -3.96 " stroke="#191919" stroke-width="0.35 px" style="stroke-width:0.35;stroke-miterlimit:4;stroke-dasharray:none;fill:none;fill-opacity:1;fill-rule: evenodd"/>
<path id="Shape2DView_nwe0163"  d="M 1.6716666666670008 -1.98 L 1.571666666667 -1.98 " stroke="#191919" stroke-width="0.35 px" style="stroke-width:0.35;stroke-miterlimit:4;stroke-dasharray:none;fill:none;fill-opacity:1;fill-rule: evenodd"/>
<path id="Shape2DView_nwe0164"  d="M -4.053333333332999 0.0 L -4.153333333333 0.0 " stroke="#191919" stroke-width="0.35 px" style="stroke-width:0.35;stroke-miterlimit:4;stroke-dasharray:none;fill:none;fill-opacity:1;fill-rule: evenodd"/>
<path id="Shape2DView_nwe0165"  d="M -8.633333333332999 0.0 L -8.733333333333 0.0 " stroke="#191919" stroke-width="0.35 px" style="stroke-width:0.35;stroke-miterlimit:4;stroke-dasharray:none;fill:none;fill-opacity:1;fill-rule: evenodd"/>
<path id="Shape2DView_nwe0166"  d="M -1.7633333333329992 0.0 L -1.863333333333 0.0 " stroke="#191919" stroke-width="0.35 px" style="stroke-width:0.35;stroke-miterlimit:4;stroke-dasharray:none;fill:none;fill-opacity:1;fill-rule: evenodd"/>
<path id="Shape2DView_nwe0167"  d="M -9.778333333332998 -1.98 L -9.878333333333 -1.98 " stroke="#191919" stroke-width="0.35 px" style="stroke-width:0.35;stroke-miterlimit:4;stroke-dasharray:none;fill:none;fill-opacity:1;fill-rule: evenodd"/>
<path id="Shape2DView_nwe0168"  d="M -5.198333333332999 -1.98 L -5.298333333333 -1.98 " stroke="#191919" stroke-width="0.35 px" style="stroke-width:0.35;stroke-miterlimit:4;stroke-dasharray:none;fill:none;fill-opacity:1;fill-rule: evenodd"/>
<path id="Shape2DView_nwe0169"  d="M -15.503333333329998 0.0 L -15.60333333333 0.0 " stroke="#191919" stroke-width="0.35 px" style="stroke-width:0.35;stroke-miterlimit:4;stroke-dasharray:none;fill:none;fill-opacity:1;fill-rule: evenodd"/>
<path id="Shape2DView_nwe0170"  d="M -0.6183333333329992 -1.98 L -0.718333333333 -1.98 " stroke="#191919" stroke-width="0.35 px" style="stroke-width:0.35;stroke-miterlimit:4;stroke-dasharray:none;fill:none;fill-opacity:1;fill-rule: evenodd"/>
<path id="Shape2DView_nwe0171"  d="M -1.7633333333329992 -3.96 L -1.863333333333 -3.96 " stroke="#191919" stroke-width="0.35 px" style="stroke-width:0.35;stroke-miterlimit:4;stroke-dasharray:none;fill:none;fill-opacity:1;fill-rule: evenodd"/>
<path id="Shape2DView_nwe0172"  d="M -4.053333333332999 -3.96 L -4.153333333333 -3.96 " stroke="#191919" stroke-width="0.35 px" style="stroke-width:0.35;stroke-miterlimit:4;stroke-dasharray:none;fill:none;fill-opacity:1;fill-rule: evenodd"/>
<path id="Shape2DView_nwe0173"  d="M -13.213333333329999 -3.96 L -13.31333333333 -3.96 " stroke="#191919" stroke-width="0.35 px" style="stroke-width:0.35;stroke-miterlimit:4;stroke-dasharray:none;fill:none;fill-opacity:1;fill-rule: evenodd"/>
<path id="Shape2DView_nwe0174"  d="M -17.793333333329997 0.0 L -17.89333333333 0.0 " stroke="#191919" stroke-width="0.35 px" style="stroke-width:0.35;stroke-miterlimit:4;stroke-dasharray:none;fill:none;fill-opacity:1;fill-rule: evenodd"/>
<path id="Shape2DView_nwe0175"  d="M 0.5266666666670008 0.0 L 0.426666666667 0.0 " stroke="#191919" stroke-width="0.35 px" style="stroke-width:0.35;stroke-miterlimit:4;stroke-dasharray:none;fill:none;fill-opacity:1;fill-rule: evenodd"/>
<path id="Shape2DView_nwe0176"  d="M -8.633333333332999 -3.96 L -8.733333333333 -3.96 " stroke="#191919" stroke-width="0.35 px" style="stroke-width:0.35;stroke-miterlimit:4;stroke-dasharray:none;fill:none;fill-opacity:1;fill-rule: evenodd"/>
<path id="Shape2DView_nwe0177"  d="M -7.488333333332999 -1.98 L -7.588333333333 -1.98 " stroke="#191919" stroke-width="0.35 px" style="stroke-width:0.35;stroke-miterlimit:4;stroke-dasharray:none;fill:none;fill-opacity:1;fill-rule: evenodd"/>
<path id="Shape2DView_nwe0178"  d="M 0.5266666666670008 -3.96 L 0.426666666667 -3.96 " stroke="#191919" stroke-width="0.35 px" style="stroke-width:0.35;stroke-miterlimit:4;stroke-dasharray:none;fill:none;fill-opacity:1;fill-rule: evenodd"/>
<path id="Shape2DView_nwe0179"  d="M -12.06833333333 -1.98 L -12.16833333333 -1.98 " stroke="#191919" stroke-width="0.35 px" style="stroke-width:0.35;stroke-miterlimit:4;stroke-dasharray:none;fill:none;fill-opacity:1;fill-rule: evenodd"/>
<path id="Shape2DView_nwe0180"  d="M -10.923333333329998 -3.96 L -11.02333333333 -3.96 " stroke="#191919" stroke-width="0.35 px" style="stroke-width:0.35;stroke-miterlimit:4;stroke-dasharray:none;fill:none;fill-opacity:1;fill-rule: evenodd"/>
<path id="Shape2DView_nwe0181"  d="M -13.213333333329999 0.0 L -13.31333333333 0.0 " stroke="#191919" stroke-width="0.35 px" style="stroke-width:0.35;stroke-miterlimit:4;stroke-dasharray:none;fill:none;fill-opacity:1;fill-rule: evenodd"/>
<title>b'Shape2DView'</title>
</g>
<g id="Rectangle" transform="translate(28.579500,4.662000) scale(1,-1)">
<rect fill="#ff0000" id="origin" width="1" height="1" x="0" y="0" />
<title>b'Rectangle'</title>
</g>
</svg>