<?xml version="1.0"?>
<!DOCTYPE svg PUBLIC "-//W3C//DTD SVG 1.1//EN" "http://www.w3.org/Graphics/SVG/1.1/DTD/svg11.dtd">
<svg width="54.162mm" height="13.562000000000001mm" viewBox="0 0 54.162 13.562000000000001" xmlns="http://www.w3.org/2000/svg" version="1.1">
<g id="Shape2DView" transform="translate(10.461000,5.361000) scale(1,-1)">
<circle cx="33.24" cy="0.0" r="0.32" stroke="#191919" stroke-width="0.35 px" style="stroke-width:0.35;stroke-miterlimit:4;stroke-dasharray:none;fill:none"/>
<path id="Shape2DView_nwe0001"  d="M 33.395778374306 -4.87 A 1 1 0 0 1 34.3762 -4.0668" stroke="#191919" stroke-width="0.35 px" style="stroke-width:0.35;stroke-miterlimit:4;stroke-dasharray:none;fill:none;fill-opacity:1;fill-rule: evenodd"/>
<path id="Shape2DView_nwe0002"  d="M 33.395778374306 -4.87 L -0.15577837430599928 -4.87 " stroke="#191919" stroke-width="0.35 px" style="stroke-width:0.35;stroke-miterlimit:4;stroke-dasharray:none;fill:none;fill-opacity:1;fill-rule: evenodd"/>
<path id="Shape2DView_nwe0003"  d="M 35.3597729084952 0.8332007715609604 L 34.37622218385684 -4.066799228438967 " stroke="#191919" stroke-width="0.35 px" style="stroke-width:0.35;stroke-miterlimit:4;stroke-dasharray:none;fill:none;fill-opacity:1;fill-rule: evenodd"/>
<path id="Shape2DView_nwe0004"  d="M -1.1362221838564788 -4.066799228438895 A 1 1 0 0 1 -0.155778 -4.87" stroke="#191919" stroke-width="0.35 px" style="stroke-width:0.35;stroke-miterlimit:4;stroke-dasharray:none;fill:none;fill-opacity:1;fill-rule: evenodd"/>
<path id="Shape2DView_nwe0005"  d="M 35.35977290849448 0.833200771561105 A 1 1 0 0 1 34.3793 2.03" stroke="#191919" stroke-width="0.35 px" style="stroke-width:0.35;stroke-miterlimit:4;stroke-dasharray:none;fill:none;fill-opacity:1;fill-rule: evenodd"/>
<path id="Shape2DView_nwe0006"  d="M -1.1362221838573139 -4.066799228439063 L -2.1197729084956793 0.8332007715608638 " stroke="#191919" stroke-width="0.35 px" style="stroke-width:0.35;stroke-miterlimit:4;stroke-dasharray:none;fill:none;fill-opacity:1;fill-rule: evenodd"/>
<path id="Shape2DView_nwe0007"  d="M -1.1393290989440006 2.03 L 34.379329098944 2.03 " stroke="#191919" stroke-width="0.35 px" style="stroke-width:0.35;stroke-miterlimit:4;stroke-dasharray:none;fill:none;fill-opacity:1;fill-rule: evenodd"/>
<path id="Shape2DView_nwe0008"  d="M -1.139329098944 2.0300000000000002 A 1 1 0 0 1 -2.11977 0.833201" stroke="#191919" stroke-width="0.35 px" style="stroke-width:0.35;stroke-miterlimit:4;stroke-dasharray:none;fill:none;fill-opacity:1;fill-rule: evenodd"/>
<path id="Shape2DView_nwe0009"  d="M -1.669431920499 2.48 A 0.95 0.95 0 0 1 -2.60516 1.36595" stroke="#191919" stroke-width="0.35 px" style="stroke-width:0.35;stroke-miterlimit:4;stroke-dasharray:none;fill:none;fill-opacity:1;fill-rule: evenodd"/>
<path id="Shape2DView_nwe0010"  d="M 34.909431920499 2.48 L -1.669431920499001 2.48 " stroke="#191919" stroke-width="0.35 px" style="stroke-width:0.35;stroke-miterlimit:4;stroke-dasharray:none;fill:none;fill-opacity:1;fill-rule: evenodd"/>
<path id="Shape2DView_nwe0011"  d="M 35.845160539617005 1.365951375002679 A 0.95 0.95 0 0 1 34.9094 2.48" stroke="#191919" stroke-width="0.35 px" style="stroke-width:0.35;stroke-miterlimit:4;stroke-dasharray:none;fill:none;fill-opacity:1;fill-rule: evenodd"/>
<path id="Shape2DView_nwe0012"  d="M 34.81079345101 -4.534048624997 L 35.845160539617886 1.3659513750028447 " stroke="#191919" stroke-width="0.35 px" style="stroke-width:0.35;stroke-miterlimit:4;stroke-dasharray:none;fill:none;fill-opacity:1;fill-rule: evenodd"/>
<path id="Shape2DView_nwe0013"  d="M 33.875064831892 -5.32 A 0.95 0.95 0 0 1 34.8108 -4.53405" stroke="#191919" stroke-width="0.35 px" style="stroke-width:0.35;stroke-miterlimit:4;stroke-dasharray:none;fill:none;fill-opacity:1;fill-rule: evenodd"/>
<path id="Shape2DView_nwe0014"  d="M -0.635064831892 -5.32 L 33.875064831892 -5.32 " stroke="#191919" stroke-width="0.35 px" style="stroke-width:0.35;stroke-miterlimit:4;stroke-dasharray:none;fill:none;fill-opacity:1;fill-rule: evenodd"/>
<path id="Shape2DView_nwe0015"  d="M -1.570793451010005 -4.534048624997321 A 0.95 0.95 0 0 1 -0.635065 -5.32" stroke="#191919" stroke-width="0.35 px" style="stroke-width:0.35;stroke-miterlimit:4;stroke-dasharray:none;fill:none;fill-opacity:1;fill-rule: evenodd"/>
<path id="Shape2DView_nwe0016"  d="M -2.605160539617 1.365951375003 L -1.570793451009114 -4.534048624996845 " stroke="#191919" stroke-width="0.35 px" style="stroke-width:0.35;stroke-miterlimit:4;stroke-dasharray:none;fill:none;fill-opacity:1;fill-rule: evenodd"/>
<circle cx="0.0" cy="0.0" r="0.32" stroke="#191919" stroke-width="0.35 px" style="stroke-width:0.35;stroke-miterlimit:4;stroke-dasharray:none;fill:none"/>
<circle cx="2.77" cy="0.0" r="0.32" stroke="#191919" stroke-width="0.35 px" style="stroke-width:0.35;stroke-miterlimit:4;stroke-dasharray:none;fill:none"/>
<circle cx="8.31" cy="-4.819268526715e-31" r="0.32" stroke="#191919" stroke-width="0.35 px" style="stroke-width:0.35;stroke-miterlimit:4;stroke-dasharray:none;fill:none"/>
<circle cx="5.54" cy="-4.819268526715e-31" r="0.32" stroke="#191919" stroke-width="0.35 px" style="stroke-width:0.35;stroke-miterlimit:4;stroke-dasharray:none;fill:none"/>
<circle cx="16.62" cy="-4.819268526715e-31" r="0.32" stroke="#191919" stroke-width="0.35 px" style="stroke-width:0.35;stroke-miterlimit:4;stroke-dasharray:none;fill:none"/>
<circle cx="13.85" cy="-4.819268526715e-31" r="0.32" stroke="#191919" stroke-width="0.35 px" style="stroke-width:0.35;stroke-miterlimit:4;stroke-dasharray:none;fill:none"/>
<circle cx="11.08" cy="-4.819268526715e-31" r="0.32" stroke="#191919" stroke-width="0.35 px" style="stroke-width:0.35;stroke-miterlimit:4;stroke-dasharray:none;fill:none"/>
<circle cx="22.16" cy="-4.819268526715e-31" r="0.32" stroke="#191919" stroke-width="0.35 px" style="stroke-width:0.35;stroke-miterlimit:4;stroke-dasharray:none;fill:none"/>
<circle cx="19.39" cy="-4.819268526715e-31" r="0.32" stroke="#191919" stroke-width="0.35 px" style="stroke-width:0.35;stroke-miterlimit:4;stroke-dasharray:none;fill:none"/>
<circle cx="23.545" cy="-2.84" r="0.32" stroke="#191919" stroke-width="0.35 px" style="stroke-width:0.35;stroke-miterlimit:4;stroke-dasharray:none;fill:none"/>
<circle cx="20.775" cy="-2.84" r="0.32" stroke="#191919" stroke-width="0.35 px" style="stroke-width:0.35;stroke-miterlimit:4;stroke-dasharray:none;fill:none"/>
<circle cx="15.235" cy="-2.84" r="0.32" stroke="#191919" stroke-width="0.35 px" style="stroke-width:0.35;stroke-miterlimit:4;stroke-dasharray:none;fill:none"/>
<circle cx="18.005" cy="-2.84" r="0.32" stroke="#191919" stroke-width="0.35 px" style="stroke-width:0.35;stroke-miterlimit:4;stroke-dasharray:none;fill:none"/>
<circle cx="12.465" cy="-2.84" r="0.32" stroke="#191919" stroke-width="0.35 px" style="stroke-width:0.35;stroke-miterlimit:4;stroke-dasharray:none;fill:none"/>
<circle cx="1.385" cy="-2.84" r="0.32" stroke="#191919" stroke-width="0.35 px" style="stroke-width:0.35;stroke-miterlimit:4;stroke-dasharray:none;fill:none"/>
<circle cx="4.155" cy="-2.84" r="0.32" stroke="#191919" stroke-width="0.35 px" style="stroke-width:0.35;stroke-miterlimit:4;stroke-dasharray:none;fill:none"/>
<circle cx="6.925" cy="-2.84" r="0.32" stroke="#191919" stroke-width="0.35 px" style="stroke-width:0.35;stroke-miterlimit:4;stroke-dasharray:none;fill:none"/>
<circle cx="9.695" cy="-2.84" r="0.32" stroke="#191919" stroke-width="0.35 px" style="stroke-width:0.35;stroke-miterlimit:4;stroke-dasharray:none;fill:none"/>
<circle cx="27.7" cy="-4.819268526715e-31" r="0.32" stroke="#191919" stroke-width="0.35 px" style="stroke-width:0.35;stroke-miterlimit:4;stroke-dasharray:none;fill:none"/>
<circle cx="24.93" cy="-4.819268526715e-31" r="0.32" stroke="#191919" stroke-width="0.35 px" style="stroke-width:0.35;stroke-miterlimit:4;stroke-dasharray:none;fill:none"/>
<circle cx="26.315" cy="-2.84" r="0.32" stroke="#191919" stroke-width="0.35 px" style="stroke-width:0.35;stroke-miterlimit:4;stroke-dasharray:none;fill:none"/>
<circle cx="30.47" cy="-4.819268526715e-31" r="0.32" stroke="#191919" stroke-width="0.35 px" style="stroke-width:0.35;stroke-miterlimit:4;stroke-dasharray:none;fill:none"/>
<circle cx="29.085" cy="-2.84" r="0.32" stroke="#191919" stroke-width="0.35 px" style="stroke-width:0.35;stroke-miterlimit:4;stroke-dasharray:none;fill:none"/>
<circle cx="31.855" cy="-2.84" r="0.32" stroke="#191919" stroke-width="0.35 px" style="stroke-width:0.35;stroke-miterlimit:4;stroke-dasharray:none;fill:none"/>
<path id="Shape2DView_nwe0041"  d="M -1.669431920499 2.5300000000000002 A 1 1 0 0 1 -2.65441 1.35732" stroke="#191919" stroke-width="0.35 px" style="stroke-width:0.35;stroke-miterlimit:4;stroke-dasharray:none;fill:none;fill-opacity:1;fill-rule: evenodd"/>
<path id="Shape2DView_nwe0042"  d="M 34.909431920499 2.53 L -1.669431920499001 2.53 " stroke="#191919" stroke-width="0.35 px" style="stroke-width:0.35;stroke-miterlimit:4;stroke-dasharray:none;fill:none;fill-opacity:1;fill-rule: evenodd"/>
<path id="Shape2DView_nwe0043"  d="M -2.654409414308 1.357317236845 L -1.6200423257000844 -4.542682763155014 " stroke="#191919" stroke-width="0.35 px" style="stroke-width:0.35;stroke-miterlimit:4;stroke-dasharray:none;fill:none;fill-opacity:1;fill-rule: evenodd"/>
<path id="Shape2DView_nwe0044"  d="M 35.89440941430743 1.3573172368449253 A 1 1 0 0 1 34.9094 2.53" stroke="#191919" stroke-width="0.35 px" style="stroke-width:0.35;stroke-miterlimit:4;stroke-dasharray:none;fill:none;fill-opacity:1;fill-rule: evenodd"/>
<path id="Shape2DView_nwe0045"  d="M -1.6200423257004264 -4.542682763155075 A 1 1 0 0 1 -0.635065 -5.37" stroke="#191919" stroke-width="0.35 px" style="stroke-width:0.35;stroke-miterlimit:4;stroke-dasharray:none;fill:none;fill-opacity:1;fill-rule: evenodd"/>
<path id="Shape2DView_nwe0046"  d="M 34.8600423257 -4.542682763155 L 35.894409414307916 1.3573172368450148 " stroke="#191919" stroke-width="0.35 px" style="stroke-width:0.35;stroke-miterlimit:4;stroke-dasharray:none;fill:none;fill-opacity:1;fill-rule: evenodd"/>
<path id="Shape2DView_nwe0047"  d="M -0.635064831892 -5.37 L 33.875064831892 -5.37 " stroke="#191919" stroke-width="0.35 px" style="stroke-width:0.35;stroke-miterlimit:4;stroke-dasharray:none;fill:none;fill-opacity:1;fill-rule: evenodd"/>
<path id="Shape2DView_nwe0048"  d="M 33.875064831892 -5.37 A 1 1 0 0 1 34.86 -4.54268" stroke="#191919" stroke-width="0.35 px" style="stroke-width:0.35;stroke-miterlimit:4;stroke-dasharray:none;fill:none;fill-opacity:1;fill-rule: evenodd"/>
<path id="Shape2DView_nwe0049"  d="M -8.93 -7.67 A 1 1 0 0 0 -9.93 -6.67" stroke="#191919" stroke-width="0.35 px" style="stroke-width:0.35;stroke-miterlimit:4;stroke-dasharray:none;fill:none;fill-opacity:1;fill-rule: evenodd"/>
<path id="Shape2DView_nwe0050"  d="M 42.17 -7.67 L -8.93 -7.67 " stroke="#191919" stroke-width="0.35 px" style="stroke-width:0.35;stroke-miterlimit:4;stroke-dasharray:none;fill:none;fill-opacity:1;fill-rule: evenodd"/>
<path id="Shape2DView_nwe0051"  d="M -9.93 -6.67 L -9.93 3.83 " stroke="#191919" stroke-width="0.35 px" style="stroke-width:0.35;stroke-miterlimit:4;stroke-dasharray:none;fill:none;fill-opacity:1;fill-rule: evenodd"/>
<path id="Shape2DView_nwe0052"  d="M 43.17 -6.67 A 1 1 0 0 0 42.17 -7.67" stroke="#191919" stroke-width="0.35 px" style="stroke-width:0.35;stroke-miterlimit:4;stroke-dasharray:none;fill:none;fill-opacity:1;fill-rule: evenodd"/>
<path id="Shape2DView_nwe0053"  d="M -9.93 3.83 A 1 1 0 0 0 -8.93 4.83" stroke="#191919" stroke-width="0.35 px" style="stroke-width:0.35;stroke-miterlimit:4;stroke-dasharray:none;fill:none;fill-opacity:1;fill-rule: evenodd"/>
<path id="Shape2DView_nwe0054"  d="M 43.17 3.83 L 43.17 -6.67 " stroke="#191919" stroke-width="0.35 px" style="stroke-width:0.35;stroke-miterlimit:4;stroke-dasharray:none;fill:none;fill-opacity:1;fill-rule: evenodd"/>
<path id="Shape2DView_nwe0055"  d="M -8.93 4.83 L 42.17 4.83 " stroke="#191919" stroke-width="0.35 px" style="stroke-width:0.35;stroke-miterlimit:4;stroke-dasharray:none;fill:none;fill-opacity:1;fill-rule: evenodd"/>
<path id="Shape2DView_nwe0056"  d="M 42.17 4.83 A 1 1 0 0 0 43.17 3.83" stroke="#191919" stroke-width="0.35 px" style="stroke-width:0.35;stroke-miterlimit:4;stroke-dasharray:none;fill:none;fill-opacity:1;fill-rule: evenodd"/>
<circle cx="-6.93" cy="-1.42" r="1.6" stroke="#191919" stroke-width="0.35 px" style="stroke-width:0.35;stroke-miterlimit:4;stroke-dasharray:none;fill:none"/>
<circle cx="40.17" cy="-1.42" r="1.6" stroke="#191919" stroke-width="0.35 px" style="stroke-width:0.35;stroke-miterlimit:4;stroke-dasharray:none;fill:none"/>
<path id="Shape2DView_nwe0059"  d="M -9.93 3.83 L -9.93 -6.67 " stroke="#191919" stroke-width="0.35 px" style="stroke-width:0.35;stroke-miterlimit:4;stroke-dasharray:none;fill:none;fill-opacity:1;fill-rule: evenodd"/>
<circle cx="-6.93" cy="-1.42" r="1.6" stroke="#191919" stroke-width="0.35 px" style="stroke-width:0.35;stroke-miterlimit:4;stroke-dasharray:none;fill:none"/>
<circle cx="40.17" cy="-1.42" r="1.6" stroke="#191919" stroke-width="0.35 px" style="stroke-width:0.35;stroke-miterlimit:4;stroke-dasharray:none;fill:none"/>
<circle cx="33.24" cy="0.0" r="0.16" stroke="#191919" stroke-width="0.35 px" style="stroke-width:0.35;stroke-miterlimit:4;stroke-dasharray:none;fill:none"/>
<circle cx="0.0" cy="0.0" r="0.32" stroke="#191919" stroke-width="0.35 px" style="stroke-width:0.35;stroke-miterlimit:4;stroke-dasharray:none;fill:none"/>
<circle cx="2.77" cy="0.0" r="0.32" stroke="#191919" stroke-width="0.35 px" style="stroke-width:0.35;stroke-miterlimit:4;stroke-dasharray:none;fill:none"/>
<circle cx="8.31" cy="-4.819268526715e-31" r="0.32" stroke="#191919" stroke-width="0.35 px" style="stroke-width:0.35;stroke-miterlimit:4;stroke-dasharray:none;fill:none"/>
<circle cx="5.54" cy="-4.819268526715e-31" r="0.32" stroke="#191919" stroke-width="0.35 px" style="stroke-width:0.35;stroke-miterlimit:4;stroke-dasharray:none;fill:none"/>
<circle cx="16.62" cy="-4.819268526715e-31" r="0.32" stroke="#191919" stroke-width="0.35 px" style="stroke-width:0.35;stroke-miterlimit:4;stroke-dasharray:none;fill:none"/>
<circle cx="13.85" cy="-4.819268526715e-31" r="0.32" stroke="#191919" stroke-width="0.35 px" style="stroke-width:0.35;stroke-miterlimit:4;stroke-dasharray:none;fill:none"/>
<circle cx="11.08" cy="-4.819268526715e-31" r="0.32" stroke="#191919" stroke-width="0.35 px" style="stroke-width:0.35;stroke-miterlimit:4;stroke-dasharray:none;fill:none"/>
<circle cx="22.16" cy="-4.819268526715e-31" r="0.32" stroke="#191919" stroke-width="0.35 px" style="stroke-width:0.35;stroke-miterlimit:4;stroke-dasharray:none;fill:none"/>
<circle cx="19.39" cy="-4.819268526715e-31" r="0.32" stroke="#191919" stroke-width="0.35 px" style="stroke-width:0.35;stroke-miterlimit:4;stroke-dasharray:none;fill:none"/>
<circle cx="23.545" cy="-2.84" r="0.32" stroke="#191919" stroke-width="0.35 px" style="stroke-width:0.35;stroke-miterlimit:4;stroke-dasharray:none;fill:none"/>
<circle cx="20.775" cy="-2.84" r="0.32" stroke="#191919" stroke-width="0.35 px" style="stroke-width:0.35;stroke-miterlimit:4;stroke-dasharray:none;fill:none"/>
<circle cx="15.235" cy="-2.84" r="0.32" stroke="#191919" stroke-width="0.35 px" style="stroke-width:0.35;stroke-miterlimit:4;stroke-dasharray:none;fill:none"/>
<circle cx="18.005" cy="-2.84" r="0.32" stroke="#191919" stroke-width="0.35 px" style="stroke-width:0.35;stroke-miterlimit:4;stroke-dasharray:none;fill:none"/>
<circle cx="12.465" cy="-2.84" r="0.32" stroke="#191919" stroke-width="0.35 px" style="stroke-width:0.35;stroke-miterlimit:4;stroke-dasharray:none;fill:none"/>
<circle cx="1.385" cy="-2.84" r="0.32" stroke="#191919" stroke-width="0.35 px" style="stroke-width:0.35;stroke-miterlimit:4;stroke-dasharray:none;fill:none"/>
<circle cx="4.155" cy="-2.84" r="0.32" stroke="#191919" stroke-width="0.35 px" style="stroke-width:0.35;stroke-miterlimit:4;stroke-dasharray:none;fill:none"/>
<circle cx="6.925" cy="-2.84" r="0.32" stroke="#191919" stroke-width="0.35 px" style="stroke-width:0.35;stroke-miterlimit:4;stroke-dasharray:none;fill:none"/>
<circle cx="9.695" cy="-2.84" r="0.32" stroke="#191919" stroke-width="0.35 px" style="stroke-width:0.35;stroke-miterlimit:4;stroke-dasharray:none;fill:none"/>
<circle cx="27.7" cy="-4.819268526715e-31" r="0.32" stroke="#191919" stroke-width="0.35 px" style="stroke-width:0.35;stroke-miterlimit:4;stroke-dasharray:none;fill:none"/>
<circle cx="24.93" cy="-4.819268526715e-31" r="0.32" stroke="#191919" stroke-width="0.35 px" style="stroke-width:0.35;stroke-miterlimit:4;stroke-dasharray:none;fill:none"/>
<circle cx="26.315" cy="-2.84" r="0.32" stroke="#191919" stroke-width="0.35 px" style="stroke-width:0.35;stroke-miterlimit:4;stroke-dasharray:none;fill:none"/>
<circle cx="30.47" cy="-4.819268526715e-31" r="0.32" stroke="#191919" stroke-width="0.35 px" style="stroke-width:0.35;stroke-miterlimit:4;stroke-dasharray:none;fill:none"/>
<circle cx="29.085" cy="-2.84" r="0.32" stroke="#191919" stroke-width="0.35 px" style="stroke-width:0.35;stroke-miterlimit:4;stroke-dasharray:none;fill:none"/>
<circle cx="31.855" cy="-2.84" r="0.32" stroke="#191919" stroke-width="0.35 px" style="stroke-width:0.35;stroke-miterlimit:4;stroke-dasharray:none;fill:none"/>
<circle cx="0.0" cy="0.0" r="0.16" stroke="#191919" stroke-width="0.35 px" style="stroke-width:0.35;stroke-miterlimit:4;stroke-dasharray:none;fill:none"/>
<circle cx="2.77" cy="0.0" r="0.16" stroke="#191919" stroke-width="0.35 px" style="stroke-width:0.35;stroke-miterlimit:4;stroke-dasharray:none;fill:none"/>
<circle cx="8.31" cy="-4.953491816964e-31" r="0.16" stroke="#191919" stroke-width="0.35 px" style="stroke-width:0.35;stroke-miterlimit:4;stroke-dasharray:none;fill:none"/>
<circle cx="5.54" cy="-4.953491816964e-31" r="0.16" stroke="#191919" stroke-width="0.35 px" style="stroke-width:0.35;stroke-miterlimit:4;stroke-dasharray:none;fill:none"/>
<circle cx="16.62" cy="-4.953491816964e-31" r="0.16" stroke="#191919" stroke-width="0.35 px" style="stroke-width:0.35;stroke-miterlimit:4;stroke-dasharray:none;fill:none"/>
<circle cx="13.85" cy="-4.953491816964e-31" r="0.16" stroke="#191919" stroke-width="0.35 px" style="stroke-width:0.35;stroke-miterlimit:4;stroke-dasharray:none;fill:none"/>
<circle cx="11.08" cy="-4.953491816964e-31" r="0.16" stroke="#191919" stroke-width="0.35 px" style="stroke-width:0.35;stroke-miterlimit:4;stroke-dasharray:none;fill:none"/>
<circle cx="22.16" cy="-4.953491816964e-31" r="0.16" stroke="#191919" stroke-width="0.35 px" style="stroke-width:0.35;stroke-miterlimit:4;stroke-dasharray:none;fill:none"/>
<circle cx="19.39" cy="-4.953491816964e-31" r="0.16" stroke="#191919" stroke-width="0.35 px" style="stroke-width:0.35;stroke-miterlimit:4;stroke-dasharray:none;fill:none"/>
<circle cx="23.545" cy="-2.84" r="0.16" stroke="#191919" stroke-width="0.35 px" style="stroke-width:0.35;stroke-miterlimit:4;stroke-dasharray:none;fill:none"/>
<circle cx="20.775" cy="-2.84" r="0.16" stroke="#191919" stroke-width="0.35 px" style="stroke-width:0.35;stroke-miterlimit:4;stroke-dasharray:none;fill:none"/>
<circle cx="15.235" cy="-2.84" r="0.16" stroke="#191919" stroke-width="0.35 px" style="stroke-width:0.35;stroke-miterlimit:4;stroke-dasharray:none;fill:none"/>
<circle cx="18.005" cy="-2.84" r="0.16" stroke="#191919" stroke-width="0.35 px" style="stroke-width:0.35;stroke-miterlimit:4;stroke-dasharray:none;fill:none"/>
<circle cx="12.465" cy="-2.84" r="0.16" stroke="#191919" stroke-width="0.35 px" style="stroke-width:0.35;stroke-miterlimit:4;stroke-dasharray:none;fill:none"/>
<circle cx="1.385" cy="-2.84" r="0.16" stroke="#191919" stroke-width="0.35 px" style="stroke-width:0.35;stroke-miterlimit:4;stroke-dasharray:none;fill:none"/>
<circle cx="4.155" cy="-2.84" r="0.16" stroke="#191919" stroke-width="0.35 px" style="stroke-width:0.35;stroke-miterlimit:4;stroke-dasharray:none;fill:none"/>
<circle cx="6.925" cy="-2.84" r="0.16" stroke="#191919" stroke-width="0.35 px" style="stroke-width:0.35;stroke-miterlimit:4;stroke-dasharray:none;fill:none"/>
<circle cx="9.695" cy="-2.84" r="0.16" stroke="#191919" stroke-width="0.35 px" style="stroke-width:0.35;stroke-miterlimit:4;stroke-dasharray:none;fill:none"/>
<circle cx="27.7" cy="-4.953491816964e-31" r="0.16" stroke="#191919" stroke-width="0.35 px" style="stroke-width:0.35;stroke-miterlimit:4;stroke-dasharray:none;fill:none"/>
<circle cx="24.93" cy="-4.953491816964e-31" r="0.16" stroke="#191919" stroke-width="0.35 px" style="stroke-width:0.35;stroke-miterlimit:4;stroke-dasharray:none;fill:none"/>
<circle cx="26.315" cy="-2.84" r="0.16" stroke="#191919" stroke-width="0.35 px" style="stroke-width:0.35;stroke-miterlimit:4;stroke-dasharray:none;fill:none"/>
<circle cx="30.47" cy="-4.953491816964e-31" r="0.16" stroke="#191919" stroke-width="0.35 px" style="stroke-width:0.35;stroke-miterlimit:4;stroke-dasharray:none;fill:none"/>
<circle cx="29.085" cy="-2.84" r="0.16" stroke="#191919" stroke-width="0.35 px" style="stroke-width:0.35;stroke-miterlimit:4;stroke-dasharray:none;fill:none"/>
<circle cx="31.855" cy="-2.84" r="0.16" stroke="#191919" stroke-width="0.35 px" style="stroke-width:0.35;stroke-miterlimit:4;stroke-dasharray:none;fill:none"/>
<path id="Shape2DView_nwe0111"  d="M -2.605160539617295 1.3659513750028054 L -2.654409414308 1.357317236845 " stroke="#191919" stroke-width="0.35 px" style="stroke-width:0.35;stroke-miterlimit:4;stroke-dasharray:none;fill:none;fill-opacity:1;fill-rule: evenodd"/>
<path id="Shape2DView_nwe0112"  d="M -1.669431920499 2.4799999999999995 L -1.669431920499 2.53 " stroke="#191919" stroke-width="0.35 px" style="stroke-width:0.35;stroke-miterlimit:4;stroke-dasharray:none;fill:none;fill-opacity:1;fill-rule: evenodd"/>
<path id="Shape2DView_nwe0113"  d="M 34.909431920499 2.4799999999999995 L 34.909431920499 2.53 " stroke="#191919" stroke-width="0.35 px" style="stroke-width:0.35;stroke-miterlimit:4;stroke-dasharray:none;fill:none;fill-opacity:1;fill-rule: evenodd"/>
<path id="Shape2DView_nwe0114"  d="M -1.57079345100989 -4.53404862499714 L -1.62004232570011 -4.54268276315486 " stroke="#191919" stroke-width="0.35 px" style="stroke-width:0.35;stroke-miterlimit:4;stroke-dasharray:none;fill:none;fill-opacity:1;fill-rule: evenodd"/>
<path id="Shape2DView_nwe0115"  d="M 35.84516053961689 1.3659513750028605 L 35.894409414307596 1.3573172368450548 " stroke="#191919" stroke-width="0.35 px" style="stroke-width:0.35;stroke-miterlimit:4;stroke-dasharray:none;fill:none;fill-opacity:1;fill-rule: evenodd"/>
<path id="Shape2DView_nwe0116"  d="M -0.635064831892 -5.319999999999999 L -0.635064831892 -5.37 " stroke="#191919" stroke-width="0.35 px" style="stroke-width:0.35;stroke-miterlimit:4;stroke-dasharray:none;fill:none;fill-opacity:1;fill-rule: evenodd"/>
<path id="Shape2DView_nwe0117"  d="M 34.81079345100978 -4.534048624997279 L 34.8600423257 -4.542682763155 " stroke="#191919" stroke-width="0.35 px" style="stroke-width:0.35;stroke-miterlimit:4;stroke-dasharray:none;fill:none;fill-opacity:1;fill-rule: evenodd"/>
<path id="Shape2DView_nwe0118"  d="M 33.875064831892 -5.319999999999999 L 33.875064831892 -5.37 " stroke="#191919" stroke-width="0.35 px" style="stroke-width:0.35;stroke-miterlimit:4;stroke-dasharray:none;fill:none;fill-opacity:1;fill-rule: evenodd"/>
<path id="Shape2DView_nwe0119"  d="M -1.669431920499 2.53 L -1.669431920499 2.5337726740640543 L -1.669431920499 2.5450432526909057 L -1.669431920499 2.5636700018149794 L -1.669431920499 2.5894186792585483 L -1.669431920499 2.6219654804630292 L -1.669431920499 2.660901110519182 L -1.669431920499 2.7057359312880713 L -1.669431920499 2.75590611888476 L -1.669431920499 2.810780754090798 L -1.669431920499 2.869669756529465 L -1.669431920499 2.9318325628268997 L -1.669431920499 2.996487439626211 L -1.669431920499 3.062821314338015 L -1.669431920499 3.13 " stroke="#191919" stroke-width="0.35 px" style="stroke-width:0.35;stroke-miterlimit:4;stroke-dasharray:none;fill:none;fill-opacity:1;fill-rule: evenodd"/>
<path id="Shape2DView_nwe0120"  d="M -2.654409414307944 1.3573172368450448 L -2.6581254133525127 1.3566657610631805 L -2.6692266796421595 1.3547195264035392 L -2.6875736083121877 1.3515030078961978 L -2.712935476089436 1.3470566551276535 L -2.7449933427713065 1.3414363835638048 L -2.783344062083868 1.3347128713805247 L -2.8275053514801587 1.3269706706445903 L -2.876921857123043 1.3183071440223857 L -2.9309721377819384 1.3088312403878803 L -2.9889764798168548 1.2986621247273253 L -3.050205444971801 1.2879276795704107 L -3.1138890434840794 1.2767628967932545 L -3.179226417152314 1.2653081800172377 L -3.245395910593 1.253707578952 " stroke="#191919" stroke-width="0.35 px" style="stroke-width:0.35;stroke-miterlimit:4;stroke-dasharray:none;fill:none;fill-opacity:1;fill-rule: evenodd"/>
<path id="Shape2DView_nwe0121"  d="M -1.669431920499 3.13 A 1.6 1.6 0 0 1 -3.2454 1.25371" stroke="#191919" stroke-width="0.35 px" style="stroke-width:0.35;stroke-miterlimit:4;stroke-dasharray:none;fill:none;fill-opacity:1;fill-rule: evenodd"/>
<path id="Shape2DView_nwe0122"  d="M 34.909431920499 3.13 L -1.669431920499001 3.13 " stroke="#191919" stroke-width="0.35 px" style="stroke-width:0.35;stroke-miterlimit:4;stroke-dasharray:none;fill:none;fill-opacity:1;fill-rule: evenodd"/>
<path id="Shape2DView_nwe0123"  d="M 34.909431920499 2.53 L 34.909431920499 2.5337726740640543 L 34.909431920499 2.5450432526909057 L 34.909431920499 2.5636700018149794 L 34.909431920499 2.5894186792585483 L 34.909431920499 2.6219654804630292 L 34.909431920499 2.660901110519182 L 34.909431920499 2.7057359312880713 L 34.909431920499 2.75590611888476 L 34.909431920499 2.810780754090798 L 34.909431920499 2.869669756529465 L 34.909431920499 2.9318325628268997 L 34.909431920499 2.996487439626211 L 34.909431920499 3.062821314338015 L 34.909431920499 3.13 " stroke="#191919" stroke-width="0.35 px" style="stroke-width:0.35;stroke-miterlimit:4;stroke-dasharray:none;fill:none;fill-opacity:1;fill-rule: evenodd"/>
<path id="Shape2DView_nwe0124"  d="M -1.620042325699944 -4.542682763154955 L -1.6237583247445126 -4.543334238936819 L -1.6348595910341595 -4.545280473596461 L -1.6532065197041876 -4.548496992103802 L -1.6785683874814359 -4.552943344872347 L -1.7106262541633068 -4.558563616436195 L -1.748976973475868 -4.565287128619476 L -1.7931382628721586 -4.57302932935541 L -1.8425547685150432 -4.581692855977614 L -1.8966050491739384 -4.59116875961212 L -1.954609391208855 -4.601337875272675 L -2.0158383563638007 -4.612072320429589 L -2.0795219548760793 -4.623237103206745 L -2.144859328544314 -4.634691819982762 L -2.211028821985 -4.646292421048 " stroke="#191919" stroke-width="0.35 px" style="stroke-width:0.35;stroke-miterlimit:4;stroke-dasharray:none;fill:none;fill-opacity:1;fill-rule: evenodd"/>
<path id="Shape2DView_nwe0125"  d="M -3.245395910593 1.253707578952 L -2.211028821985084 -4.646292421048015 " stroke="#191919" stroke-width="0.35 px" style="stroke-width:0.35;stroke-miterlimit:4;stroke-dasharray:none;fill:none;fill-opacity:1;fill-rule: evenodd"/>
<path id="Shape2DView_nwe0126"  d="M 35.894409414307944 1.3573172368450448 L 35.89812541335251 1.3566657610631805 L 35.90922667964216 1.3547195264035392 L 35.92757360831219 1.3515030078961978 L 35.952935476089436 1.3470566551276535 L 35.984993342771304 1.3414363835638048 L 36.023344062083865 1.3347128713805247 L 36.06750535148016 1.3269706706445903 L 36.11692185712304 1.3183071440223857 L 36.17097213778194 1.3088312403878803 L 36.22897647981685 1.2986621247273253 L 36.2902054449718 1.2879276795704107 L 36.35388904348408 1.2767628967932545 L 36.419226417152316 1.2653081800172377 L 36.485395910593 1.253707578952 " stroke="#191919" stroke-width="0.35 px" style="stroke-width:0.35;stroke-miterlimit:4;stroke-dasharray:none;fill:none;fill-opacity:1;fill-rule: evenodd"/>
<path id="Shape2DView_nwe0127"  d="M 36.48539591059249 1.2537075789518806 A 1.6 1.6 0 0 1 34.9094 3.13" stroke="#191919" stroke-width="0.35 px" style="stroke-width:0.35;stroke-miterlimit:4;stroke-dasharray:none;fill:none;fill-opacity:1;fill-rule: evenodd"/>
<path id="Shape2DView_nwe0128"  d="M -0.6350648318920002 -5.37 L -0.6350648318920002 -5.373772674064054 L -0.6350648318920002 -5.385043252690906 L -0.6350648318920002 -5.403670001814979 L -0.6350648318920002 -5.429418679258548 L -0.6350648318920002 -5.4619654804630295 L -0.6350648318920002 -5.500901110519182 L -0.6350648318920001 -5.545735931288071 L -0.6350648318920001 -5.595906118884759 L -0.6350648318920001 -5.650780754090798 L -0.6350648318920001 -5.709669756529465 L -0.6350648318920001 -5.7718325628269 L -0.635064831892 -5.836487439626211 L -0.635064831892 -5.902821314338015 L -0.635064831892 -5.97 " stroke="#191919" stroke-width="0.35 px" style="stroke-width:0.35;stroke-miterlimit:4;stroke-dasharray:none;fill:none;fill-opacity:1;fill-rule: evenodd"/>
<path id="Shape2DView_nwe0129"  d="M -2.211028821985482 -4.64629242104812 A 1.6 1.6 0 0 1 -0.635065 -5.97" stroke="#191919" stroke-width="0.35 px" style="stroke-width:0.35;stroke-miterlimit:4;stroke-dasharray:none;fill:none;fill-opacity:1;fill-rule: evenodd"/>
<path id="Shape2DView_nwe0130"  d="M 35.451028821985 -4.646292421048 L 36.48539591059291 1.2537075789520156 " stroke="#191919" stroke-width="0.35 px" style="stroke-width:0.35;stroke-miterlimit:4;stroke-dasharray:none;fill:none;fill-opacity:1;fill-rule: evenodd"/>
<path id="Shape2DView_nwe0131"  d="M 34.86004232569994 -4.542682763154955 L 34.86375832474451 -4.543334238936819 L 34.87485959103416 -4.545280473596461 L 34.89320651970419 -4.548496992103802 L 34.918568387481436 -4.552943344872347 L 34.9506262541633 -4.558563616436195 L 34.988976973475864 -4.565287128619476 L 35.03313826287216 -4.57302932935541 L 35.08255476851504 -4.581692855977614 L 35.13660504917394 -4.59116875961212 L 35.19460939120885 -4.601337875272675 L 35.255838356363796 -4.612072320429589 L 35.31952195487608 -4.623237103206745 L 35.384859328544316 -4.634691819982762 L 35.451028821985 -4.646292421048 " stroke="#191919" stroke-width="0.35 px" style="stroke-width:0.35;stroke-miterlimit:4;stroke-dasharray:none;fill:none;fill-opacity:1;fill-rule: evenodd"/>
<path id="Shape2DView_nwe0132"  d="M 33.875064831892 -5.37 L 33.875064831892 -5.373772674064054 L 33.875064831892 -5.385043252690906 L 33.875064831892 -5.403670001814979 L 33.875064831892 -5.429418679258548 L 33.875064831892 -5.4619654804630295 L 33.875064831892 -5.500901110519182 L 33.875064831892 -5.545735931288071 L 33.875064831892 -5.595906118884759 L 33.875064831892 -5.650780754090798 L 33.875064831892 -5.709669756529465 L 33.875064831892 -5.7718325628269 L 33.875064831892 -5.836487439626211 L 33.875064831892 -5.902821314338015 L 33.875064831892 -5.97 " stroke="#191919" stroke-width="0.35 px" style="stroke-width:0.35;stroke-miterlimit:4;stroke-dasharray:none;fill:none;fill-opacity:1;fill-rule: evenodd"/>
<path id="Shape2DView_nwe0133"  d="M -0.635064831892 -5.97 L 33.875064831892 -5.97 " stroke="#191919" stroke-width="0.35 px" style="stroke-width:0.35;stroke-miterlimit:4;stroke-dasharray:none;fill:none;fill-opacity:1;fill-rule: evenodd"/>
<path id="Shape2DView_nwe0134"  d="M 33.875064831892 -5.970000000000001 A 1.6 1.6 0 0 1 35.451 -4.64629" stroke="#191919" stroke-width="0.35 px" style="stroke-width:0.35;stroke-miterlimit:4;stroke-dasharray:none;fill:none;fill-opacity:1;fill-rule: evenodd"/>
<path id="Shape2DView_nwe0135"  d="M -8.93 -7.57 A 0.9 0.9 0 0 0 -9.83 -6.67" stroke="#191919" stroke-width="0.35 px" style="stroke-width:0.35;stroke-miterlimit:4;stroke-dasharray:none;fill:none;fill-opacity:1;fill-rule: evenodd"/>
<path id="Shape2DView_nwe0136"  d="M 42.17 -7.57 L -8.93 -7.57 " stroke="#191919" stroke-width="0.35 px" style="stroke-width:0.35;stroke-miterlimit:4;stroke-dasharray:none;fill:none;fill-opacity:1;fill-rule: evenodd"/>
<path id="Shape2DView_nwe0137"  d="M 43.07 -6.67 A 0.9 0.9 0 0 0 42.17 -7.57" stroke="#191919" stroke-width="0.35 px" style="stroke-width:0.35;stroke-miterlimit:4;stroke-dasharray:none;fill:none;fill-opacity:1;fill-rule: evenodd"/>
<path id="Shape2DView_nwe0138"  d="M 43.07 3.83 L 43.07 -6.67 " stroke="#191919" stroke-width="0.35 px" style="stroke-width:0.35;stroke-miterlimit:4;stroke-dasharray:none;fill:none;fill-opacity:1;fill-rule: evenodd"/>
<path id="Shape2DView_nwe0139"  d="M 42.17 4.73 A 0.9 0.9 0 0 0 43.07 3.83" stroke="#191919" stroke-width="0.35 px" style="stroke-width:0.35;stroke-miterlimit:4;stroke-dasharray:none;fill:none;fill-opacity:1;fill-rule: evenodd"/>
<path id="Shape2DView_nwe0140"  d="M -8.93 4.73 L 42.17 4.73 " stroke="#191919" stroke-width="0.35 px" style="stroke-width:0.35;stroke-miterlimit:4;stroke-dasharray:none;fill:none;fill-opacity:1;fill-rule: evenodd"/>
<path id="Shape2DView_nwe0141"  d="M -9.83 3.83 A 0.9 0.9 0 0 0 -8.93 4.73" stroke="#191919" stroke-width="0.35 px" style="stroke-width:0.35;stroke-miterlimit:4;stroke-dasharray:none;fill:none;fill-opacity:1;fill-rule: evenodd"/>
<path id="Shape2DView_nwe0142"  d="M -9.83 -6.67 L -9.83 3.83 " stroke="#191919" stroke-width="0.35 px" style="stroke-width:0.35;stroke-miterlimit:4;stroke-dasharray:none;fill:none;fill-opacity:1;fill-rule: evenodd"/>
<circle cx="-6.93" cy="-1.42" r="1.7" stroke="#191919" stroke-width="0.35 px" style="stroke-width:0.35;stroke-miterlimit:4;stroke-dasharray:none;fill:none"/>
<circle cx="40.17" cy="-1.42" r="1.7" stroke="#191919" stroke-width="0.35 px" style="stroke-width:0.35;stroke-miterlimit:4;stroke-dasharray:none;fill:none"/>
<path id="Shape2DView_nwe0145"  d="M -9.93 -6.67 L -9.929371220989324 -6.67 L -9.927492791218182 -6.67 L -9.924388333030837 -6.67 L -9.920096886790242 -6.67 L -9.914672419922828 -6.67 L -9.908183148246803 -6.67 L -9.900710678118655 -6.67 L -9.892348980185874 -6.67 L -9.883203207651533 -6.67 L -9.873388373911755 -6.67 L -9.863027906195518 -6.67 L -9.85225209339563 -6.67 L -9.841196447610331 -6.67 L -9.83 -6.67 " stroke="#191919" stroke-width="0.35 px" style="stroke-width:0.35;stroke-miterlimit:4;stroke-dasharray:none;fill:none;fill-opacity:1;fill-rule: evenodd"/>
<path id="Shape2DView_nwe0146"  d="M -8.93 -7.67 L -8.93 -7.6693712209893246 L -8.93 -7.667492791218183 L -8.93 -7.664388333030837 L -8.93 -7.660096886790242 L -8.93 -7.654672419922829 L -8.93 -7.648183148246804 L -8.93 -7.640710678118655 L -8.93 -7.632348980185873 L -8.93 -7.623203207651534 L -8.93 -7.613388373911756 L -8.93 -7.603027906195517 L -8.93 -7.592252093395632 L -8.93 -7.581196447610331 L -8.93 -7.57 " stroke="#191919" stroke-width="0.35 px" style="stroke-width:0.35;stroke-miterlimit:4;stroke-dasharray:none;fill:none;fill-opacity:1;fill-rule: evenodd"/>
<path id="Shape2DView_nwe0147"  d="M 42.17 -7.67 L 42.17 -7.6693712209893246 L 42.17 -7.667492791218183 L 42.17 -7.664388333030837 L 42.17 -7.660096886790242 L 42.17 -7.654672419922829 L 42.17 -7.648183148246804 L 42.17 -7.640710678118655 L 42.17 -7.632348980185873 L 42.17 -7.623203207651534 L 42.17 -7.613388373911756 L 42.17 -7.603027906195517 L 42.17 -7.592252093395632 L 42.17 -7.581196447610331 L 42.17 -7.57 " stroke="#191919" stroke-width="0.35 px" style="stroke-width:0.35;stroke-miterlimit:4;stroke-dasharray:none;fill:none;fill-opacity:1;fill-rule: evenodd"/>
<path id="Shape2DView_nwe0148"  d="M -9.93 3.83 L -9.929371220989324 3.83 L -9.927492791218182 3.83 L -9.924388333030837 3.83 L -9.920096886790242 3.83 L -9.914672419922828 3.83 L -9.908183148246803 3.83 L -9.900710678118655 3.83 L -9.892348980185874 3.83 L -9.883203207651533 3.83 L -9.873388373911755 3.83 L -9.863027906195518 3.83 L -9.85225209339563 3.83 L -9.841196447610331 3.83 L -9.83 3.83 " stroke="#191919" stroke-width="0.35 px" style="stroke-width:0.35;stroke-miterlimit:4;stroke-dasharray:none;fill:none;fill-opacity:1;fill-rule: evenodd"/>
<path id="Shape2DView_nwe0149"  d="M 43.17 -6.67 L 43.169371220989326 -6.67 L 43.16749279121818 -6.67 L 43.164388333030836 -6.67 L 43.16009688679024 -6.67 L 43.15467241992283 -6.67 L 43.1481831482468 -6.67 L 43.14071067811866 -6.67 L 43.132348980185874 -6.67 L 43.123203207651535 -6.67 L 43.113388373911754 -6.67 L 43.103027906195514 -6.67 L 43.09225209339563 -6.67 L 43.08119644761033 -6.67 L 43.07 -6.67 " stroke="#191919" stroke-width="0.35 px" style="stroke-width:0.35;stroke-miterlimit:4;stroke-dasharray:none;fill:none;fill-opacity:1;fill-rule: evenodd"/>
<path id="Shape2DView_nwe0150"  d="M -8.93 4.83 L -8.93 4.829371220989325 L -8.93 4.827492791218183 L -8.93 4.8243883330308375 L -8.93 4.8200968867902425 L -8.93 4.814672419922829 L -8.93 4.808183148246804 L -8.93 4.800710678118655 L -8.93 4.792348980185873 L -8.93 4.7832032076515345 L -8.93 4.773388373911756 L -8.93 4.763027906195517 L -8.93 4.752252093395632 L -8.93 4.741196447610331 L -8.93 4.73 " stroke="#191919" stroke-width="0.35 px" style="stroke-width:0.35;stroke-miterlimit:4;stroke-dasharray:none;fill:none;fill-opacity:1;fill-rule: evenodd"/>
<path id="Shape2DView_nwe0151"  d="M 43.17 3.83 L 43.169371220989326 3.83 L 43.16749279121818 3.83 L 43.164388333030836 3.83 L 43.16009688679024 3.83 L 43.15467241992283 3.83 L 43.1481831482468 3.83 L 43.14071067811866 3.83 L 43.132348980185874 3.83 L 43.123203207651535 3.83 L 43.113388373911754 3.83 L 43.103027906195514 3.83 L 43.09225209339563 3.83 L 43.08119644761033 3.83 L 43.07 3.83 " stroke="#191919" stroke-width="0.35 px" style="stroke-width:0.35;stroke-miterlimit:4;stroke-dasharray:none;fill:none;fill-opacity:1;fill-rule: evenodd"/>
<path id="Shape2DView_nwe0152"  d="M 42.17 4.83 L 42.17 4.829371220989325 L 42.17 4.827492791218183 L 42.17 4.8243883330308375 L 42.17 4.8200968867902425 L 42.17 4.814672419922829 L 42.17 4.808183148246804 L 42.17 4.800710678118655 L 42.17 4.792348980185873 L 42.17 4.7832032076515345 L 42.17 4.773388373911756 L 42.17 4.763027906195517 L 42.17 4.752252093395632 L 42.17 4.741196447610331 L 42.17 4.73 " stroke="#191919" stroke-width="0.35 px" style="stroke-width:0.35;stroke-miterlimit:4;stroke-dasharray:none;fill:none;fill-opacity:1;fill-rule: evenodd"/>
<circle cx="-6.93" cy="-1.42" r="1.6" stroke="#191919" stroke-width="0.35 px" style="stroke-width:0.35;stroke-miterlimit:4;stroke-dasharray:none;fill:none"/>
<circle cx="40.17" cy="-1.42" r="1.6" stroke="#191919" stroke-width="0.35 px" style="stroke-width:0.35;stroke-miterlimit:4;stroke-dasharray:none;fill:none"/>
<path id="Shape2DView_nwe0155"  d="M 33.559999999999995 0.0 L 33.55899395358292 0.0 L 33.55598846594909 0.0 L 33.55102133284934 0.0 L 33.54415501886439 0.0 L 33.53547587187652 0.0 L 33.525093037194885 0.0 L 33.51313708498984 0.0 L 33.49975836829739 0.0 L 33.48512513224245 0.0 L 33.46942139825881 0.0 L 33.45284464991283 0.0 L 33.43560334943301 0.0 L 33.41791431617653 0.0 L 33.4 0.0 " stroke="#191919" stroke-width="0.35 px" style="stroke-width:0.35;stroke-miterlimit:4;stroke-dasharray:none;fill:none;fill-opacity:1;fill-rule: evenodd"/>
<path id="Shape2DView_nwe0156"  d="M 0.32 0.0 L 0.3189939535829188 0.0 L 0.3159884659490918 0.0 L 0.3110213328493388 0.0 L 0.30415501886438706 0.0 L 0.29547587187652546 0.0 L 0.28509303719488477 0.0 L 0.2731370849898476 0.0 L 0.2597583682973974 0.0 L 0.24512513224245386 0.0 L 0.2294213982588093 0.0 L 0.21284464991282676 0.0 L 0.19560334943301033 0.0 L 0.17791431617652928 0.0 L 0.16 0.0 " stroke="#191919" stroke-width="0.35 px" style="stroke-width:0.35;stroke-miterlimit:4;stroke-dasharray:none;fill:none;fill-opacity:1;fill-rule: evenodd"/>
<path id="Shape2DView_nwe0157"  d="M 3.0900000000000003 0.0 L 3.088993953582919 0.0 L 3.085988465949092 0.0 L 3.081021332849339 0.0 L 3.074155018864387 0.0 L 3.065475871876526 0.0 L 3.055093037194885 0.0 L 3.043137084989848 0.0 L 3.0297583682973976 0.0 L 3.015125132242454 0.0 L 2.9994213982588094 0.0 L 2.9828446499128267 0.0 L 2.9656033494330103 0.0 L 2.9479143161765293 0.0 L 2.93 0.0 " stroke="#191919" stroke-width="0.35 px" style="stroke-width:0.35;stroke-miterlimit:4;stroke-dasharray:none;fill:none;fill-opacity:1;fill-rule: evenodd"/>
<path id="Shape2DView_nwe0158"  d="M 8.63 -1.1998618100781246e-43 L 8.628993953582919 -3.0179514856821957e-33 L 8.625988465949092 -9.02820537666493e-33 L 8.62102133284934 -1.7955179243158562e-32 L 8.614155018864388 -2.968661120924106e-32 L 8.605475871876527 -4.4074971711203484e-32 L 8.595093037194886 -6.093931876741255e-32 L 8.583137084989849 -8.006757342871425e-32 L 8.569758368297398 -1.0121918679427093e-31 L 8.555125132242454 -1.2412816505355872e-31 L 8.53942139825881 -1.485064145128683e-31 L 8.522844649912827 -1.7404736454065907e-31 L 8.505603349433011 -2.0042982287112714e-31 L 8.48791431617653 -2.27322014783308e-31 L 8.47 -2.5438575536069276e-31 " stroke="#191919" stroke-width="0.35 px" style="stroke-width:0.35;stroke-miterlimit:4;stroke-dasharray:none;fill:none;fill-opacity:1;fill-rule: evenodd"/>
<path id="Shape2DView_nwe0159"  d="M 5.86 -1.1998618100781246e-43 L 5.858993953582919 -3.0179514856821957e-33 L 5.855988465949092 -9.02820537666493e-33 L 5.851021332849339 -1.7955179243158562e-32 L 5.844155018864387 -2.968661120924106e-32 L 5.835475871876525 -4.4074971711203484e-32 L 5.825093037194885 -6.093931876741255e-32 L 5.813137084989847 -8.006757342871425e-32 L 5.799758368297398 -1.0121918679427093e-31 L 5.785125132242454 -1.2412816505355872e-31 L 5.769421398258809 -1.485064145128683e-31 L 5.752844649912827 -1.7404736454065907e-31 L 5.735603349433011 -2.0042982287112714e-31 L 5.71791431617653 -2.27322014783308e-31 L 5.7 -2.5438575536069276e-31 " stroke="#191919" stroke-width="0.35 px" style="stroke-width:0.35;stroke-miterlimit:4;stroke-dasharray:none;fill:none;fill-opacity:1;fill-rule: evenodd"/>
<path id="Shape2DView_nwe0160"  d="M 16.94 -1.1998618100781246e-43 L 16.93899395358292 -3.0179514856821957e-33 L 16.935988465949094 -9.02820537666493e-33 L 16.93102133284934 -1.7955179243158562e-32 L 16.92415501886439 -2.968661120924106e-32 L 16.915475871876527 -4.4074971711203484e-32 L 16.905093037194884 -6.093931876741255e-32 L 16.89313708498985 -8.006757342871425e-32 L 16.8797583682974 -1.0121918679427093e-31 L 16.865125132242454 -1.2412816505355872e-31 L 16.849421398258812 -1.485064145128683e-31 L 16.83284464991283 -1.7404736454065907e-31 L 16.81560334943301 -2.0042982287112714e-31 L 16.79791431617653 -2.27322014783308e-31 L 16.78 -2.5438575536069276e-31 " stroke="#191919" stroke-width="0.35 px" style="stroke-width:0.35;stroke-miterlimit:4;stroke-dasharray:none;fill:none;fill-opacity:1;fill-rule: evenodd"/>
<path id="Shape2DView_nwe0161"  d="M 14.17 -1.1998618100781246e-43 L 14.168993953582918 -3.0179514856821957e-33 L 14.165988465949091 -9.02820537666493e-33 L 14.161021332849339 -1.7955179243158562e-32 L 14.154155018864387 -2.968661120924106e-32 L 14.145475871876526 -4.4074971711203484e-32 L 14.135093037194885 -6.093931876741255e-32 L 14.123137084989848 -8.006757342871425e-32 L 14.109758368297397 -1.0121918679427093e-31 L 14.095125132242453 -1.2412816505355872e-31 L 14.079421398258809 -1.485064145128683e-31 L 14.062844649912826 -1.7404736454065907e-31 L 14.04560334943301 -2.0042982287112714e-31 L 14.02791431617653 -2.27322014783308e-31 L 14.01 -2.5438575536069276e-31 " stroke="#191919" stroke-width="0.35 px" style="stroke-width:0.35;stroke-miterlimit:4;stroke-dasharray:none;fill:none;fill-opacity:1;fill-rule: evenodd"/>
<path id="Shape2DView_nwe0162"  d="M 11.4 -1.1998618100781246e-43 L 11.398993953582918 -3.017951485682371e-33 L 11.395988465949092 -9.02820537666528e-33 L 11.39102133284934 -1.7955179243159087e-32 L 11.384155018864387 -2.968661120924176e-32 L 11.375475871876526 -4.407497171120434e-32 L 11.365093037194885 -6.093931876741356e-32 L 11.353137084989848 -8.006757342871537e-32 L 11.339758368297398 -1.0121918679427218e-31 L 11.325125132242453 -1.2412816505356008e-31 L 11.30942139825881 -1.4850641451286975e-31 L 11.292844649912826 -1.7404736454066056e-31 L 11.27560334943301 -2.0042982287112867e-31 L 11.25791431617653 -2.2732201478330957e-31 L 11.24 -2.5438575536069438e-31 " stroke="#191919" stroke-width="0.35 px" style="stroke-width:0.35;stroke-miterlimit:4;stroke-dasharray:none;fill:none;fill-opacity:1;fill-rule: evenodd"/>
<path id="Shape2DView_nwe0163"  d="M 22.48 -1.1998618100781246e-43 L 22.47899395358292 -3.0179514856821957e-33 L 22.475988465949094 -9.02820537666493e-33 L 22.47102133284934 -1.7955179243158562e-32 L 22.46415501886439 -2.968661120924106e-32 L 22.455475871876526 -4.4074971711203484e-32 L 22.445093037194884 -6.093931876741255e-32 L 22.43313708498985 -8.006757342871425e-32 L 22.419758368297398 -1.0121918679427093e-31 L 22.405125132242453 -1.2412816505355872e-31 L 22.38942139825881 -1.485064145128683e-31 L 22.372844649912828 -1.7404736454065907e-31 L 22.35560334943301 -2.0042982287112714e-31 L 22.33791431617653 -2.27322014783308e-31 L 22.32 -2.5438575536069276e-31 " stroke="#191919" stroke-width="0.35 px" style="stroke-width:0.35;stroke-miterlimit:4;stroke-dasharray:none;fill:none;fill-opacity:1;fill-rule: evenodd"/>
<path id="Shape2DView_nwe0164"  d="M 19.71 -1.1998618100781246e-43 L 19.70899395358292 -3.017951485682371e-33 L 19.705988465949094 -9.02820537666528e-33 L 19.70102133284934 -1.7955179243159087e-32 L 19.69415501886439 -2.968661120924176e-32 L 19.685475871876527 -4.407497171120434e-32 L 19.675093037194884 -6.093931876741356e-32 L 19.66313708498985 -8.006757342871537e-32 L 19.649758368297398 -1.0121918679427218e-31 L 19.635125132242454 -1.2412816505356008e-31 L 19.61942139825881 -1.4850641451286975e-31 L 19.60284464991283 -1.7404736454066056e-31 L 19.58560334943301 -2.0042982287112867e-31 L 19.56791431617653 -2.2732201478330957e-31 L 19.55 -2.5438575536069438e-31 " stroke="#191919" stroke-width="0.35 px" style="stroke-width:0.35;stroke-miterlimit:4;stroke-dasharray:none;fill:none;fill-opacity:1;fill-rule: evenodd"/>
<path id="Shape2DView_nwe0165"  d="M 23.865 -2.84 L 23.863993953582916 -2.84 L 23.86098846594909 -2.84 L 23.856021332849338 -2.84 L 23.849155018864387 -2.84 L 23.840475871876524 -2.84 L 23.83009303719488 -2.84 L 23.818137084989846 -2.84 L 23.804758368297396 -2.84 L 23.79012513224245 -2.84 L 23.77442139825881 -2.84 L 23.757844649912826 -2.84 L 23.74060334943301 -2.84 L 23.722914316176528 -2.84 L 23.705 -2.84 " stroke="#191919" stroke-width="0.35 px" style="stroke-width:0.35;stroke-miterlimit:4;stroke-dasharray:none;fill:none;fill-opacity:1;fill-rule: evenodd"/>
<path id="Shape2DView_nwe0166"  d="M 21.095 -2.84 L 21.093993953582917 -2.84 L 21.090988465949092 -2.84 L 21.086021332849338 -2.84 L 21.079155018864387 -2.84 L 21.070475871876525 -2.84 L 21.060093037194882 -2.84 L 21.048137084989847 -2.84 L 21.034758368297396 -2.84 L 21.020125132242452 -2.84 L 21.00442139825881 -2.84 L 20.987844649912827 -2.84 L 20.97060334943301 -2.84 L 20.95291431617653 -2.84 L 20.935 -2.84 " stroke="#191919" stroke-width="0.35 px" style="stroke-width:0.35;stroke-miterlimit:4;stroke-dasharray:none;fill:none;fill-opacity:1;fill-rule: evenodd"/>
<path id="Shape2DView_nwe0167"  d="M 15.555 -2.84 L 15.553993953582918 -2.84 L 15.550988465949091 -2.84 L 15.546021332849339 -2.84 L 15.539155018864387 -2.84 L 15.530475871876526 -2.84 L 15.520093037194885 -2.84 L 15.508137084989848 -2.84 L 15.494758368297397 -2.84 L 15.480125132242453 -2.84 L 15.464421398258809 -2.84 L 15.447844649912826 -2.84 L 15.43060334943301 -2.84 L 15.41291431617653 -2.84 L 15.395 -2.84 " stroke="#191919" stroke-width="0.35 px" style="stroke-width:0.35;stroke-miterlimit:4;stroke-dasharray:none;fill:none;fill-opacity:1;fill-rule: evenodd"/>
<path id="Shape2DView_nwe0168"  d="M 18.325 -2.84 L 18.323993953582917 -2.84 L 18.320988465949092 -2.84 L 18.31602133284934 -2.84 L 18.309155018864388 -2.84 L 18.300475871876525 -2.84 L 18.290093037194882 -2.84 L 18.278137084989847 -2.84 L 18.264758368297397 -2.84 L 18.250125132242452 -2.84 L 18.23442139825881 -2.84 L 18.217844649912827 -2.84 L 18.20060334943301 -2.84 L 18.18291431617653 -2.84 L 18.165 -2.84 " stroke="#191919" stroke-width="0.35 px" style="stroke-width:0.35;stroke-miterlimit:4;stroke-dasharray:none;fill:none;fill-opacity:1;fill-rule: evenodd"/>
<path id="Shape2DView_nwe0169"  d="M 12.785 -2.84 L 12.783993953582918 -2.84 L 12.780988465949092 -2.84 L 12.77602133284934 -2.84 L 12.769155018864387 -2.84 L 12.760475871876526 -2.84 L 12.750093037194885 -2.84 L 12.738137084989848 -2.84 L 12.724758368297397 -2.84 L 12.710125132242453 -2.84 L 12.69442139825881 -2.84 L 12.677844649912826 -2.84 L 12.66060334943301 -2.84 L 12.64291431617653 -2.84 L 12.625 -2.84 " stroke="#191919" stroke-width="0.35 px" style="stroke-width:0.35;stroke-miterlimit:4;stroke-dasharray:none;fill:none;fill-opacity:1;fill-rule: evenodd"/>
<path id="Shape2DView_nwe0170"  d="M 1.7049999999999998 -2.84 L 1.7039939535829187 -2.84 L 1.7009884659490917 -2.84 L 1.6960213328493388 -2.84 L 1.689155018864387 -2.84 L 1.6804758718765254 -2.84 L 1.6700930371948848 -2.84 L 1.6581370849898476 -2.84 L 1.6447583682973974 -2.84 L 1.6301251322424537 -2.84 L 1.6144213982588091 -2.84 L 1.5978446499128267 -2.84 L 1.5806033494330103 -2.84 L 1.562914316176529 -2.84 L 1.545 -2.84 " stroke="#191919" stroke-width="0.35 px" style="stroke-width:0.35;stroke-miterlimit:4;stroke-dasharray:none;fill:none;fill-opacity:1;fill-rule: evenodd"/>
<path id="Shape2DView_nwe0171"  d="M 4.4750000000000005 -2.84 L 4.473993953582919 -2.84 L 4.470988465949092 -2.84 L 4.466021332849339 -2.84 L 4.459155018864387 -2.84 L 4.450475871876526 -2.84 L 4.4400930371948855 -2.84 L 4.428137084989848 -2.84 L 4.414758368297398 -2.84 L 4.400125132242454 -2.84 L 4.38442139825881 -2.84 L 4.367844649912827 -2.84 L 4.350603349433011 -2.84 L 4.33291431617653 -2.84 L 4.315 -2.84 " stroke="#191919" stroke-width="0.35 px" style="stroke-width:0.35;stroke-miterlimit:4;stroke-dasharray:none;fill:none;fill-opacity:1;fill-rule: evenodd"/>
<path id="Shape2DView_nwe0172"  d="M 7.245 -2.84 L 7.243993953582919 -2.84 L 7.2409884659490915 -2.84 L 7.236021332849338 -2.84 L 7.229155018864387 -2.84 L 7.220475871876525 -2.84 L 7.210093037194885 -2.84 L 7.198137084989847 -2.84 L 7.1847583682973974 -2.84 L 7.170125132242454 -2.84 L 7.154421398258809 -2.84 L 7.137844649912827 -2.84 L 7.1206033494330105 -2.84 L 7.10291431617653 -2.84 L 7.085 -2.84 " stroke="#191919" stroke-width="0.35 px" style="stroke-width:0.35;stroke-miterlimit:4;stroke-dasharray:none;fill:none;fill-opacity:1;fill-rule: evenodd"/>
<path id="Shape2DView_nwe0173"  d="M 10.015 -2.84 L 10.013993953582919 -2.84 L 10.010988465949092 -2.84 L 10.00602133284934 -2.84 L 9.999155018864387 -2.84 L 9.990475871876527 -2.84 L 9.980093037194885 -2.84 L 9.968137084989849 -2.84 L 9.954758368297398 -2.84 L 9.940125132242454 -2.84 L 9.92442139825881 -2.84 L 9.907844649912827 -2.84 L 9.890603349433011 -2.84 L 9.87291431617653 -2.84 L 9.855 -2.84 " stroke="#191919" stroke-width="0.35 px" style="stroke-width:0.35;stroke-miterlimit:4;stroke-dasharray:none;fill:none;fill-opacity:1;fill-rule: evenodd"/>
<path id="Shape2DView_nwe0174"  d="M 28.02 -1.1998618100781246e-43 L 28.018993953582918 -3.0179514856821957e-33 L 28.015988465949093 -9.02820537666493e-33 L 28.01102133284934 -1.7955179243158562e-32 L 28.004155018864388 -2.968661120924106e-32 L 27.995475871876526 -4.4074971711203484e-32 L 27.985093037194883 -6.093931876741255e-32 L 27.973137084989848 -8.006757342871425e-32 L 27.959758368297397 -1.0121918679427093e-31 L 27.945125132242453 -1.2412816505355872e-31 L 27.92942139825881 -1.485064145128683e-31 L 27.912844649912827 -1.7404736454065907e-31 L 27.89560334943301 -2.0042982287112714e-31 L 27.87791431617653 -2.27322014783308e-31 L 27.86 -2.5438575536069276e-31 " stroke="#191919" stroke-width="0.35 px" style="stroke-width:0.35;stroke-miterlimit:4;stroke-dasharray:none;fill:none;fill-opacity:1;fill-rule: evenodd"/>
<path id="Shape2DView_nwe0175"  d="M 25.25 -1.1998618100781246e-43 L 25.248993953582918 -3.017951485682371e-33 L 25.245988465949093 -9.02820537666528e-33 L 25.24102133284934 -1.7955179243159087e-32 L 25.23415501886439 -2.968661120924176e-32 L 25.225475871876526 -4.407497171120434e-32 L 25.215093037194883 -6.093931876741356e-32 L 25.203137084989848 -8.006757342871537e-32 L 25.189758368297397 -1.0121918679427218e-31 L 25.175125132242453 -1.2412816505356008e-31 L 25.15942139825881 -1.4850641451286975e-31 L 25.142844649912828 -1.7404736454066056e-31 L 25.12560334943301 -2.0042982287112867e-31 L 25.10791431617653 -2.2732201478330957e-31 L 25.09 -2.5438575536069438e-31 " stroke="#191919" stroke-width="0.35 px" style="stroke-width:0.35;stroke-miterlimit:4;stroke-dasharray:none;fill:none;fill-opacity:1;fill-rule: evenodd"/>
<path id="Shape2DView_nwe0176"  d="M 26.635 -2.84 L 26.63399395358292 -2.84 L 26.630988465949095 -2.84 L 26.62602133284934 -2.84 L 26.61915501886439 -2.84 L 26.610475871876528 -2.84 L 26.600093037194885 -2.84 L 26.58813708498985 -2.84 L 26.5747583682974 -2.84 L 26.560125132242455 -2.84 L 26.544421398258812 -2.84 L 26.52784464991283 -2.84 L 26.510603349433012 -2.84 L 26.49291431617653 -2.84 L 26.475 -2.84 " stroke="#191919" stroke-width="0.35 px" style="stroke-width:0.35;stroke-miterlimit:4;stroke-dasharray:none;fill:none;fill-opacity:1;fill-rule: evenodd"/>
<path id="Shape2DView_nwe0177"  d="M 30.79 -1.1998618100781246e-43 L 30.788993953582917 -3.017951485682371e-33 L 30.785988465949092 -9.02820537666528e-33 L 30.78102133284934 -1.7955179243159087e-32 L 30.774155018864388 -2.968661120924176e-32 L 30.765475871876525 -4.407497171120434e-32 L 30.755093037194882 -6.093931876741356e-32 L 30.743137084989847 -8.006757342871537e-32 L 30.729758368297396 -1.0121918679427218e-31 L 30.715125132242452 -1.2412816505356008e-31 L 30.69942139825881 -1.4850641451286975e-31 L 30.682844649912827 -1.7404736454066056e-31 L 30.66560334943301 -2.0042982287112867e-31 L 30.64791431617653 -2.2732201478330957e-31 L 30.63 -2.5438575536069438e-31 " stroke="#191919" stroke-width="0.35 px" style="stroke-width:0.35;stroke-miterlimit:4;stroke-dasharray:none;fill:none;fill-opacity:1;fill-rule: evenodd"/>
<path id="Shape2DView_nwe0178"  d="M 29.405 -2.84 L 29.40399395358292 -2.84 L 29.400988465949094 -2.84 L 29.39602133284934 -2.84 L 29.38915501886439 -2.84 L 29.380475871876527 -2.84 L 29.370093037194884 -2.84 L 29.35813708498985 -2.84 L 29.3447583682974 -2.84 L 29.330125132242454 -2.84 L 29.314421398258812 -2.84 L 29.29784464991283 -2.84 L 29.28060334943301 -2.84 L 29.26291431617653 -2.84 L 29.245 -2.84 " stroke="#191919" stroke-width="0.35 px" style="stroke-width:0.35;stroke-miterlimit:4;stroke-dasharray:none;fill:none;fill-opacity:1;fill-rule: evenodd"/>
<path id="Shape2DView_nwe0179"  d="M 32.175 -2.84 L 32.17399395358292 -2.84 L 32.170988465949094 -2.84 L 32.16602133284934 -2.84 L 32.15915501886439 -2.84 L 32.15047587187652 -2.84 L 32.14009303719489 -2.84 L 32.128137084989845 -2.84 L 32.114758368297394 -2.84 L 32.100125132242454 -2.84 L 32.08442139825881 -2.84 L 32.06784464991283 -2.84 L 32.05060334943301 -2.84 L 32.03291431617653 -2.84 L 32.015 -2.84 " stroke="#191919" stroke-width="0.35 px" style="stroke-width:0.35;stroke-miterlimit:4;stroke-dasharray:none;fill:none;fill-opacity:1;fill-rule: evenodd"/>
<path id="Shape2DView_nwe0180"  d="M -5.33 -1.42 L -5.329371220989325 -1.42 L -5.327492791218183 -1.42 L -5.3243883330308375 -1.42 L -5.3200968867902425 -1.42 L -5.314672419922829 -1.42 L -5.308183148246804 -1.42 L -5.300710678118655 -1.42 L -5.292348980185873 -1.42 L -5.2832032076515345 -1.42 L -5.273388373911756 -1.42 L -5.263027906195517 -1.42 L -5.252252093395632 -1.42 L -5.241196447610331 -1.42 L -5.23 -1.42 " stroke="#191919" stroke-width="0.35 px" style="stroke-width:0.35;stroke-miterlimit:4;stroke-dasharray:none;fill:none;fill-opacity:1;fill-rule: evenodd"/>
<path id="Shape2DView_nwe0181"  d="M 41.769999999999996 -1.42 L 41.77062877901067 -1.42 L 41.77250720878182 -1.42 L 41.77561166696916 -1.42 L 41.779903113209755 -1.42 L 41.785327580077166 -1.42 L 41.7918168517532 -1.42 L 41.79928932188134 -1.42 L 41.807651019814124 -1.42 L 41.81679679234846 -1.42 L 41.826611626088244 -1.42 L 41.836972093804484 -1.42 L 41.84774790660437 -1.42 L 41.858803552389666 -1.42 L 41.87 -1.42 " stroke="#191919" stroke-width="0.35 px" style="stroke-width:0.35;stroke-miterlimit:4;stroke-dasharray:none;fill:none;fill-opacity:1;fill-rule: evenodd"/>
<title>b'Shape2DView'</title>
</g>
<g id="Rectangle" transform="translate(10.461000,5.361000) scale(1,-1)">
<rect fill="#ff0000" id="origin" width="1" height="1" x="0" y="0" />
<title>b'Rectangle'</title>
</g>
</svg>