<?xml version="1.0"?>
<!DOCTYPE svg PUBLIC "-//W3C//DTD SVG 1.1//EN" "http://www.w3.org/Graphics/SVG/1.1/DTD/svg11.dtd">
<svg width="54.162mm" height="17.94200000000005mm" viewBox="0 0 54.162 17.94200000000005" xmlns="http://www.w3.org/2000/svg" version="1.1">
<g id="Shape2DView" transform="translate(43.701000,3.231000) scale(1,-1)">
<path id="Shape2DView_nwe0000"  d="M 1.234082005303 -14.18 L 1.334850033795977 -14.18 L 1.4343508458636829 -14.18 L 1.5313331610626504 -14.18 L 1.6245773705088022 -14.18 L 1.7129108741668029 -14.18 L 1.79522282697586 -14.18 L 1.8704781083708928 -14.18 L 1.9377303395242267 -14.18 L 1.996133784608456 -14.18 L 2.0449539864151776 -14.18 L 2.083577002580531 -14.18 L 2.1115171262666412 -14.18 L 2.128422994206918 -14.18 L 2.134082005303 -14.18 " stroke="#191919" stroke-width="0.35 px" style="stroke-width:0.35;stroke-miterlimit:4;stroke-dasharray:none;fill:none;fill-opacity:1;fill-rule: evenodd"/>
<path id="Shape2DView_nwe0001"  d="M -35.3740820053 -14.18 L -35.36842299420392 -14.18 L -35.35151712626364 -14.18 L -35.32357700257753 -14.18 L -35.28495398641218 -14.18 L -35.23613378460546 -14.18 L -35.177730339521226 -14.18 L -35.11047810836789 -14.18 L -35.035222826972856 -14.18 L -34.9529108741638 -14.18 L -34.8645773705058 -14.18 L -34.77133316105965 -14.18 L -34.67435084586068 -14.18 L -34.57485003379298 -14.18 L -34.4740820053 -14.18 " stroke="#191919" stroke-width="0.35 px" style="stroke-width:0.35;stroke-miterlimit:4;stroke-dasharray:none;fill:none;fill-opacity:1;fill-rule: evenodd"/>
<path id="Shape2DView_nwe0002"  d="M -34.4740820053 -14.18 L 1.2340820053030015 -14.18 " stroke="#191919" stroke-width="0.35 px" style="stroke-width:0.35;stroke-miterlimit:4;stroke-dasharray:none;fill:none;fill-opacity:1;fill-rule: evenodd"/>
<path id="Shape2DView_nwe0003"  d="M 1.234082005303 -14.08 L 1.3460464814063078 -14.08 L 1.4566029392593143 -14.08 L 1.564361067258167 -14.08 L 1.6679657444205582 -14.08 L 1.7661140818183365 -14.08 L 1.8575718071617335 -14.08 L 1.9411887864895476 -14.08 L 2.0159134877710296 -14.08 L 2.0808062045312843 -14.08 L 2.135050873205419 -14.08 L 2.1779653356113675 -14.08 L 2.2090099174848237 -14.08 L 2.2277942151962424 -14.08 L 2.2340820053029997 -14.08 " stroke="#191919" stroke-width="0.35 px" style="stroke-width:0.35;stroke-miterlimit:4;stroke-dasharray:none;fill:none;fill-opacity:1;fill-rule: evenodd"/>
<path id="Shape2DView_nwe0004"  d="M -34.4740820053 -14.08 L 1.2340820053030015 -14.08 " stroke="#191919" stroke-width="0.35 px" style="stroke-width:0.35;stroke-miterlimit:4;stroke-dasharray:none;fill:none;fill-opacity:1;fill-rule: evenodd"/>
<path id="Shape2DView_nwe0005"  d="M -35.4740820053 -14.08 L -35.46779421519324 -14.08 L -35.449009917481824 -14.08 L -35.417965335608365 -14.08 L -35.37505087320242 -14.08 L -35.32080620452828 -14.08 L -35.25591348776803 -14.08 L -35.181188786486544 -14.08 L -35.09757180715873 -14.08 L -35.00611408181533 -14.08 L -34.90796574441756 -14.08 L -34.804361067255165 -14.08 L -34.696602939256316 -14.08 L -34.58604648140331 -14.08 L -34.4740820053 -14.08 " stroke="#191919" stroke-width="0.35 px" style="stroke-width:0.35;stroke-miterlimit:4;stroke-dasharray:none;fill:none;fill-opacity:1;fill-rule: evenodd"/>
<path id="Shape2DView_nwe0006"  d="M -34.57943192049 -13.88 L -34.68579817278815 -13.88 L -34.7908268077485 -13.88 L -34.89319702934741 -13.88 L -34.99162147265168 -13.88 L -35.08486239317957 -13.88 L -35.1717472322558 -13.88 L -35.25118336261722 -13.88 L -35.32217182883463 -13.88 L -35.38381990975687 -13.88 L -35.4353523449973 -13.88 L -35.47612108428295 -13.88 L -35.505613437062735 -13.88 L -35.523458519888585 -13.88 L -35.529431920490005 -13.88 " stroke="#191919" stroke-width="0.35 px" style="stroke-width:0.35;stroke-miterlimit:4;stroke-dasharray:none;fill:none;fill-opacity:1;fill-rule: evenodd"/>
<path id="Shape2DView_nwe0007"  d="M 1.339431920499 -13.88 L -34.57943192049 -13.88 " stroke="#191919" stroke-width="0.35 px" style="stroke-width:0.35;stroke-miterlimit:4;stroke-dasharray:none;fill:none;fill-opacity:1;fill-rule: evenodd"/>
<path id="Shape2DView_nwe0008"  d="M 2.289431920499 -13.88 L 2.2834585198975805 -13.88 L 2.2656134370717322 -13.88 L 2.2361210842919492 -13.88 L 2.1953523450062984 -13.88 L 2.1438199097658703 -13.88 L 2.0821718288436286 -13.88 L 2.0111833626262205 -13.88 L 1.931747232264797 -13.88 L 1.8448623931885701 -13.88 L 1.7516214726606805 -13.88 L 1.653197029356409 -13.88 L 1.550826807757499 -13.88 L 1.4457981727971427 -13.88 L 1.339431920499 -13.88 " stroke="#191919" stroke-width="0.35 px" style="stroke-width:0.35;stroke-miterlimit:4;stroke-dasharray:none;fill:none;fill-opacity:1;fill-rule: evenodd"/>
<path id="Shape2DView_nwe0009"  d="M -34.57943192049 -13.83 L -34.69139639659331 -13.83 L -34.80195285444632 -13.83 L -34.90971098244517 -13.83 L -35.01331565960756 -13.83 L -35.11146399700534 -13.83 L -35.202921722348734 -13.83 L -35.28653870167655 -13.83 L -35.36126340295803 -13.83 L -35.426156119718286 -13.83 L -35.48040078839242 -13.83 L -35.52331525079837 -13.83 L -35.55435983267183 -13.83 L -35.57314413038324 -13.83 L -35.57943192049 -13.83 " stroke="#191919" stroke-width="0.35 px" style="stroke-width:0.35;stroke-miterlimit:4;stroke-dasharray:none;fill:none;fill-opacity:1;fill-rule: evenodd"/>
<path id="Shape2DView_nwe0010"  d="M 1.339431920499 -13.83 L -34.57943192049 -13.83 " stroke="#191919" stroke-width="0.35 px" style="stroke-width:0.35;stroke-miterlimit:4;stroke-dasharray:none;fill:none;fill-opacity:1;fill-rule: evenodd"/>
<path id="Shape2DView_nwe0011"  d="M 2.339431920499 -13.83 L 2.3331441303922427 -13.83 L 2.3143598326808235 -13.83 L 2.2833152508073677 -13.83 L 2.240400788401419 -13.83 L 2.1861561197272845 -13.83 L 2.1212634029670303 -13.83 L 2.046538701685548 -13.83 L 1.9629217223577338 -13.83 L 1.8714639970143367 -13.83 L 1.7733156596165585 -13.83 L 1.6697109824541674 -13.83 L 1.5619528544553147 -13.83 L 1.4513963966023082 -13.83 L 1.339431920499 -13.83 " stroke="#191919" stroke-width="0.35 px" style="stroke-width:0.35;stroke-miterlimit:4;stroke-dasharray:none;fill:none;fill-opacity:1;fill-rule: evenodd"/>
<path id="Shape2DView_nwe0012"  d="M 8.93 -8.08 L 9.030768028492977 -8.08 L 9.130268840560683 -8.08 L 9.22725115575965 -8.08 L 9.320495365205803 -8.08 L 9.408828868863802 -8.08 L 9.49114082167286 -8.08 L 9.566396103067893 -8.08 L 9.633648334221226 -8.08 L 9.692051779305455 -8.08 L 9.740871981112177 -8.08 L 9.779494997277531 -8.08 L 9.80743512096364 -8.08 L 9.824340988903918 -8.08 L 9.83 -8.08 " stroke="#191919" stroke-width="0.35 px" style="stroke-width:0.35;stroke-miterlimit:4;stroke-dasharray:none;fill:none;fill-opacity:1;fill-rule: evenodd"/>
<path id="Shape2DView_nwe0013"  d="M -42.17 -8.08 L 8.93 -8.08 " stroke="#191919" stroke-width="0.35 px" style="stroke-width:0.35;stroke-miterlimit:4;stroke-dasharray:none;fill:none;fill-opacity:1;fill-rule: evenodd"/>
<path id="Shape2DView_nwe0014"  d="M -43.07 -8.08 L -43.06434098890392 -8.08 L -43.04743512096364 -8.08 L -43.01949499727753 -8.08 L -42.98087198111218 -8.08 L -42.93205177930546 -8.08 L -42.87364833422123 -8.08 L -42.8063961030679 -8.08 L -42.73114082167286 -8.08 L -42.6488288688638 -8.08 L -42.5604953652058 -8.08 L -42.467251155759655 -8.08 L -42.37026884056068 -8.08 L -42.27076802849298 -8.08 L -42.17 -8.08 " stroke="#191919" stroke-width="0.35 px" style="stroke-width:0.35;stroke-miterlimit:4;stroke-dasharray:none;fill:none;fill-opacity:1;fill-rule: evenodd"/>
<path id="Shape2DView_nwe0015"  d="M -43.17 -7.98 A 0.1 0.1 0 0 1 -43.07 -8.08" stroke="#191919" stroke-width="0.35 px" style="stroke-width:0.35;stroke-miterlimit:4;stroke-dasharray:none;fill:none;fill-opacity:1;fill-rule: evenodd"/>
<path id="Shape2DView_nwe0017"  d="M 9.93 -7.98 A 0.1 0.1 0 0 0 9.83 -8.08" stroke="#191919" stroke-width="0.35 px" style="stroke-width:0.35;stroke-miterlimit:4;stroke-dasharray:none;fill:none;fill-opacity:1;fill-rule: evenodd"/>
<path id="Shape2DView_nwe0018"  d="M -43.17 -7.78 L -43.17 -7.98 " stroke="#191919" stroke-width="0.35 px" style="stroke-width:0.35;stroke-miterlimit:4;stroke-dasharray:none;fill:none;fill-opacity:1;fill-rule: evenodd"/>
<path id="Shape2DView_nwe0019"  d="M 9.93 -7.78 L 9.93 -7.98 " stroke="#191919" stroke-width="0.35 px" style="stroke-width:0.35;stroke-miterlimit:4;stroke-dasharray:none;fill:none;fill-opacity:1;fill-rule: evenodd"/>
<path id="Shape2DView_nwe0020"  d="M -43.17 -7.78 L -43.17 -5.78 " stroke="#191919" stroke-width="0.35 px" style="stroke-width:0.35;stroke-miterlimit:4;stroke-dasharray:none;fill:none;fill-opacity:1;fill-rule: evenodd"/>
<path id="Shape2DView_nwe0021"  d="M -43.17 2.7 L -43.17 -5.78 " stroke="#191919" stroke-width="0.35 px" style="stroke-width:0.35;stroke-miterlimit:4;stroke-dasharray:none;fill:none;fill-opacity:1;fill-rule: evenodd"/>
<path id="Shape2DView_nwe0022"  d="M -43.17 -5.78 L -43.16371220989324 -5.78 L -43.14492791218183 -5.78 L -43.11388333030837 -5.78 L -43.07096886790242 -5.78 L -43.016724199228285 -5.78 L -42.95183148246803 -5.78 L -42.87710678118655 -5.78 L -42.79348980185873 -5.78 L -42.70203207651534 -5.78 L -42.60388373911756 -5.78 L -42.50027906195517 -5.78 L -42.39252093395632 -5.78 L -42.28196447610331 -5.78 L -42.17 -5.78 " stroke="#191919" stroke-width="0.35 px" style="stroke-width:0.35;stroke-miterlimit:4;stroke-dasharray:none;fill:none;fill-opacity:1;fill-rule: evenodd"/>
<path id="Shape2DView_nwe0023"  d="M 9.93 -7.78 L 9.93 -5.78 " stroke="#191919" stroke-width="0.35 px" style="stroke-width:0.35;stroke-miterlimit:4;stroke-dasharray:none;fill:none;fill-opacity:1;fill-rule: evenodd"/>
<path id="Shape2DView_nwe0024"  d="M 9.93 -5.78 L 9.93 2.7 " stroke="#191919" stroke-width="0.35 px" style="stroke-width:0.35;stroke-miterlimit:4;stroke-dasharray:none;fill:none;fill-opacity:1;fill-rule: evenodd"/>
<path id="Shape2DView_nwe0025"  d="M 4.43 -5.78 L 8.93 -5.78 " stroke="#191919" stroke-width="0.35 px" style="stroke-width:0.35;stroke-miterlimit:4;stroke-dasharray:none;fill:none;fill-opacity:1;fill-rule: evenodd"/>
<path id="Shape2DView_nwe0026"  d="M 4.43 2.7 L 4.43 -5.78 " stroke="#191919" stroke-width="0.35 px" style="stroke-width:0.35;stroke-miterlimit:4;stroke-dasharray:none;fill:none;fill-opacity:1;fill-rule: evenodd"/>
<path id="Shape2DView_nwe0027"  d="M 4.43 2.7 L -37.67 2.7 " stroke="#191919" stroke-width="0.35 px" style="stroke-width:0.35;stroke-miterlimit:4;stroke-dasharray:none;fill:none;fill-opacity:1;fill-rule: evenodd"/>
<path id="Shape2DView_nwe0028"  d="M -37.67 -5.78 L -37.67 2.7 " stroke="#191919" stroke-width="0.35 px" style="stroke-width:0.35;stroke-miterlimit:4;stroke-dasharray:none;fill:none;fill-opacity:1;fill-rule: evenodd"/>
<path id="Shape2DView_nwe0029"  d="M -42.17 -5.78 L -37.67 -5.78 " stroke="#191919" stroke-width="0.35 px" style="stroke-width:0.35;stroke-miterlimit:4;stroke-dasharray:none;fill:none;fill-opacity:1;fill-rule: evenodd"/>
<path id="Shape2DView_nwe0030"  d="M 8.93 -5.78 L 9.041964476103308 -5.78 L 9.152520933956314 -5.78 L 9.260279061955167 -5.78 L 9.363883739117558 -5.78 L 9.462032076515337 -5.78 L 9.553489801858733 -5.78 L 9.637106781186548 -5.78 L 9.71183148246803 -5.78 L 9.776724199228283 -5.78 L 9.830968867902419 -5.78 L 9.873883330308367 -5.78 L 9.904927912181824 -5.78 L 9.923712209893242 -5.78 L 9.93 -5.78 " stroke="#191919" stroke-width="0.35 px" style="stroke-width:0.35;stroke-miterlimit:4;stroke-dasharray:none;fill:none;fill-opacity:1;fill-rule: evenodd"/>
<path id="Shape2DView_nwe0031"  d="M -38.17 -5.58 L -38.22014417563636 -5.58 L -38.36806226419516 -5.58 L -38.606337035063945 -5.58 L -38.92302039628253 -5.58 L -39.302232521764886 -5.58 L -39.72495813208737 -5.58 L -40.17 -5.58 L -40.61504186791263 -5.58 L -41.03776747823512 -5.58 L -41.41697960371747 -5.58 L -41.73366296493606 -5.58 L -41.97193773580484 -5.58 L -42.11985582436365 -5.58 L -42.17 -5.58 " stroke="#191919" stroke-width="0.35 px" style="stroke-width:0.35;stroke-miterlimit:4;stroke-dasharray:none;fill:none;fill-opacity:1;fill-rule: evenodd"/>
<path id="Shape2DView_nwe0032"  d="M 8.93 -5.58 L 8.879855824363647 -5.58 L 8.731937735804838 -5.58 L 8.493662964936059 -5.58 L 8.176979603717466 -5.58 L 7.797767478235116 -5.58 L 7.375041867912628 -5.58 L 6.93 -5.58 L 6.484958132087371 -5.58 L 6.062232521764884 -5.58 L 5.683020396282533 -5.58 L 5.36633703506394 -5.58 L 5.128062264195162 -5.58 L 4.980144175636353 -5.58 L 4.93 -5.58 " stroke="#191919" stroke-width="0.35 px" style="stroke-width:0.35;stroke-miterlimit:4;stroke-dasharray:none;fill:none;fill-opacity:1;fill-rule: evenodd"/>
<path id="Shape2DView_nwe0033"  d="M -43.17 2.7 L -37.67 2.7 " stroke="#191919" stroke-width="0.35 px" style="stroke-width:0.35;stroke-miterlimit:4;stroke-dasharray:none;fill:none;fill-opacity:1;fill-rule: evenodd"/>
<path id="Shape2DView_nwe0034"  d="M 4.429999999999999 2.7 L 9.93 2.7 " stroke="#191919" stroke-width="0.35 px" style="stroke-width:0.35;stroke-miterlimit:4;stroke-dasharray:none;fill:none;fill-opacity:1;fill-rule: evenodd"/>
<path id="Shape2DView_nwe0035"  d="M -38.57 -8.881784197001252e-16 L -38.57 -1.6 " stroke="#191919" stroke-width="0.35 px" style="stroke-width:0.35;stroke-miterlimit:4;stroke-dasharray:none;fill:none;fill-opacity:1;fill-rule: evenodd"/>
<path id="Shape2DView_nwe0036"  d="M -41.77 -1.0841219075636765e-15 A 1.6 1.6 0 0 0 -38.57 -4.96291e-16" stroke="#191919" stroke-width="0.35 px" style="stroke-width:0.35;stroke-miterlimit:4;stroke-dasharray:none;fill:none;fill-opacity:1;fill-rule: evenodd"/>
<path id="Shape2DView_nwe0037"  d="M -38.57 -1.6 A 1.6 1.6 0 0 0 -39.17 -2.849" stroke="#191919" stroke-width="0.35 px" style="stroke-width:0.35;stroke-miterlimit:4;stroke-dasharray:none;fill:none;fill-opacity:1;fill-rule: evenodd"/>
<path id="Shape2DView_nwe0038"  d="M -41.169999999999845 -2.848999599679805 A 1.6 1.6 0 0 0 -41.77 -1.6" stroke="#191919" stroke-width="0.35 px" style="stroke-width:0.35;stroke-miterlimit:4;stroke-dasharray:none;fill:none;fill-opacity:1;fill-rule: evenodd"/>
<path id="Shape2DView_nwe0039"  d="M -41.77 -1.6 L -41.77 -6.217248937900877e-15 " stroke="#191919" stroke-width="0.35 px" style="stroke-width:0.35;stroke-miterlimit:4;stroke-dasharray:none;fill:none;fill-opacity:1;fill-rule: evenodd"/>
<path id="Shape2DView_nwe0040"  d="M 5.33 -1.0841219075636765e-15 A 1.6 1.6 0 0 0 8.53 -4.96291e-16" stroke="#191919" stroke-width="0.35 px" style="stroke-width:0.35;stroke-miterlimit:4;stroke-dasharray:none;fill:none;fill-opacity:1;fill-rule: evenodd"/>
<path id="Shape2DView_nwe0041"  d="M 5.33 -1.6 L 5.33 -4.085620730620576e-14 " stroke="#191919" stroke-width="0.35 px" style="stroke-width:0.35;stroke-miterlimit:4;stroke-dasharray:none;fill:none;fill-opacity:1;fill-rule: evenodd"/>
<path id="Shape2DView_nwe0042"  d="M 8.53 -8.881784197001252e-16 L 8.53 -1.6 " stroke="#191919" stroke-width="0.35 px" style="stroke-width:0.35;stroke-miterlimit:4;stroke-dasharray:none;fill:none;fill-opacity:1;fill-rule: evenodd"/>
<path id="Shape2DView_nwe0043"  d="M 8.53 -1.6 L 7.93 -1.6 " stroke="#191919" stroke-width="0.35 px" style="stroke-width:0.35;stroke-miterlimit:4;stroke-dasharray:none;fill:none;fill-opacity:1;fill-rule: evenodd"/>
<path id="Shape2DView_nwe0044"  d="M 5.93 -1.6 L 5.33 -1.6 " stroke="#191919" stroke-width="0.35 px" style="stroke-width:0.35;stroke-miterlimit:4;stroke-dasharray:none;fill:none;fill-opacity:1;fill-rule: evenodd"/>
<path id="Shape2DView_nwe0045"  d="M -38.17 -5.78 L -38.17 -5.58 " stroke="#191919" stroke-width="0.35 px" style="stroke-width:0.35;stroke-miterlimit:4;stroke-dasharray:none;fill:none;fill-opacity:1;fill-rule: evenodd"/>
<path id="Shape2DView_nwe0046"  d="M -39.17 0.10000000000000006 L -39.17 0.09937122098932433 L -39.17 0.09749279121818243 L -39.17 0.09438833303083682 L -39.17 0.09009688679024198 L -39.17 0.08467241992282848 L -39.17 0.07818314824680306 L -39.17 0.07071067811865482 L -39.17 0.062348980185873426 L -39.17 0.05320320765153374 L -39.17 0.043388373911755894 L -39.17 0.033027906195516786 L -39.17 0.02225209339563152 L -39.17 0.011196447610330866 L -39.17 8.000408721420706e-17 " stroke="#191919" stroke-width="0.35 px" style="stroke-width:0.35;stroke-miterlimit:4;stroke-dasharray:none;fill:none;fill-opacity:1;fill-rule: evenodd"/>
<path id="Shape2DView_nwe0047"  d="M -39.17 5.551115123125783e-17 L -39.17 -5.48 " stroke="#191919" stroke-width="0.35 px" style="stroke-width:0.35;stroke-miterlimit:4;stroke-dasharray:none;fill:none;fill-opacity:1;fill-rule: evenodd"/>
<path id="Shape2DView_nwe0048"  d="M -39.17 -5.58 L -39.17 -5.48 " stroke="#191919" stroke-width="0.35 px" style="stroke-width:0.35;stroke-miterlimit:4;stroke-dasharray:none;fill:none;fill-opacity:1;fill-rule: evenodd"/>
<path id="Shape2DView_nwe0049"  d="M -41.17 -5.48 L -41.17 -5.58 " stroke="#191919" stroke-width="0.35 px" style="stroke-width:0.35;stroke-miterlimit:4;stroke-dasharray:none;fill:none;fill-opacity:1;fill-rule: evenodd"/>
<path id="Shape2DView_nwe0050"  d="M -39.17 -5.48 L -41.17 -5.48 " stroke="#191919" stroke-width="0.35 px" style="stroke-width:0.35;stroke-miterlimit:4;stroke-dasharray:none;fill:none;fill-opacity:1;fill-rule: evenodd"/>
<path id="Shape2DView_nwe0051"  d="M -41.17 -5.48 L -41.17 0.0 " stroke="#191919" stroke-width="0.35 px" style="stroke-width:0.35;stroke-miterlimit:4;stroke-dasharray:none;fill:none;fill-opacity:1;fill-rule: evenodd"/>
<path id="Shape2DView_nwe0052"  d="M -41.17 0.10000000000000006 L -41.17 0.09937122098932433 L -41.17 0.09749279121818243 L -41.17 0.09438833303083682 L -41.17 0.09009688679024198 L -41.17 0.08467241992282848 L -41.17 0.07818314824680306 L -41.17 0.07071067811865482 L -41.17 0.062348980185873426 L -41.17 0.05320320765153374 L -41.17 0.043388373911755894 L -41.17 0.033027906195516786 L -41.17 0.02225209339563152 L -41.17 0.011196447610330866 L -41.17 8.000408721420706e-17 " stroke="#191919" stroke-width="0.35 px" style="stroke-width:0.35;stroke-miterlimit:4;stroke-dasharray:none;fill:none;fill-opacity:1;fill-rule: evenodd"/>
<path id="Shape2DView_nwe0053"  d="M 8.93 -5.78 L 8.93 -5.58 " stroke="#191919" stroke-width="0.35 px" style="stroke-width:0.35;stroke-miterlimit:4;stroke-dasharray:none;fill:none;fill-opacity:1;fill-rule: evenodd"/>
<path id="Shape2DView_nwe0054"  d="M 7.93 0.10000000000000006 L 7.93 0.09937122098932433 L 7.93 0.09749279121818243 L 7.93 0.09438833303083682 L 7.93 0.09009688679024198 L 7.93 0.08467241992282848 L 7.93 0.07818314824680306 L 7.93 0.07071067811865482 L 7.93 0.062348980185873426 L 7.93 0.05320320765153374 L 7.93 0.043388373911755894 L 7.93 0.033027906195516786 L 7.93 0.02225209339563152 L 7.93 0.011196447610330866 L 7.93 8.000408721420706e-17 " stroke="#191919" stroke-width="0.35 px" style="stroke-width:0.35;stroke-miterlimit:4;stroke-dasharray:none;fill:none;fill-opacity:1;fill-rule: evenodd"/>
<path id="Shape2DView_nwe0055"  d="M 7.93 5.551115123125783e-17 L 7.93 -5.48 " stroke="#191919" stroke-width="0.35 px" style="stroke-width:0.35;stroke-miterlimit:4;stroke-dasharray:none;fill:none;fill-opacity:1;fill-rule: evenodd"/>
<path id="Shape2DView_nwe0056"  d="M 7.93 -5.58 L 7.93 -5.48 " stroke="#191919" stroke-width="0.35 px" style="stroke-width:0.35;stroke-miterlimit:4;stroke-dasharray:none;fill:none;fill-opacity:1;fill-rule: evenodd"/>
<path id="Shape2DView_nwe0057"  d="M 5.93 -5.48 L 5.93 -5.58 " stroke="#191919" stroke-width="0.35 px" style="stroke-width:0.35;stroke-miterlimit:4;stroke-dasharray:none;fill:none;fill-opacity:1;fill-rule: evenodd"/>
<path id="Shape2DView_nwe0058"  d="M 7.93 -5.48 L 5.93 -5.48 " stroke="#191919" stroke-width="0.35 px" style="stroke-width:0.35;stroke-miterlimit:4;stroke-dasharray:none;fill:none;fill-opacity:1;fill-rule: evenodd"/>
<path id="Shape2DView_nwe0059"  d="M 5.93 0.10000000000000006 L 5.93 0.09937122098932433 L 5.93 0.09749279121818243 L 5.93 0.09438833303083682 L 5.93 0.09009688679024198 L 5.93 0.08467241992282848 L 5.93 0.07818314824680306 L 5.93 0.07071067811865482 L 5.93 0.062348980185873426 L 5.93 0.05320320765153374 L 5.93 0.043388373911755894 L 5.93 0.033027906195516786 L 5.93 0.02225209339563152 L 5.93 0.011196447610330866 L 5.93 8.000408721420706e-17 " stroke="#191919" stroke-width="0.35 px" style="stroke-width:0.35;stroke-miterlimit:4;stroke-dasharray:none;fill:none;fill-opacity:1;fill-rule: evenodd"/>
<path id="Shape2DView_nwe0060"  d="M 5.93 -5.48 L 5.93 0.0 " stroke="#191919" stroke-width="0.35 px" style="stroke-width:0.35;stroke-miterlimit:4;stroke-dasharray:none;fill:none;fill-opacity:1;fill-rule: evenodd"/>
<path id="Shape2DView_nwe0061"  d="M -41.17 0.1 L -39.17 0.1 " stroke="#191919" stroke-width="0.35 px" style="stroke-width:0.35;stroke-miterlimit:4;stroke-dasharray:none;fill:none;fill-opacity:1;fill-rule: evenodd"/>
<path id="Shape2DView_nwe0062"  d="M 5.93 0.1 L 7.93 0.1 " stroke="#191919" stroke-width="0.35 px" style="stroke-width:0.35;stroke-miterlimit:4;stroke-dasharray:none;fill:none;fill-opacity:1;fill-rule: evenodd"/>
<path id="Shape2DView_nwe0063"  d="M 1.234082005303 -14.08 L 1.234082005303 -14.18 " stroke="#191919" stroke-width="0.35 px" style="stroke-width:0.35;stroke-miterlimit:4;stroke-dasharray:none;fill:none;fill-opacity:1;fill-rule: evenodd"/>
<path id="Shape2DView_nwe0064"  d="M -34.4740820053 -14.08 L -34.4740820053 -14.18 " stroke="#191919" stroke-width="0.35 px" style="stroke-width:0.35;stroke-miterlimit:4;stroke-dasharray:none;fill:none;fill-opacity:1;fill-rule: evenodd"/>
<path id="Shape2DView_nwe0065"  d="M 1.234082005303 -13.88 L 1.234082005303 -14.08 " stroke="#191919" stroke-width="0.35 px" style="stroke-width:0.35;stroke-miterlimit:4;stroke-dasharray:none;fill:none;fill-opacity:1;fill-rule: evenodd"/>
<path id="Shape2DView_nwe0066"  d="M -34.4740820053 -13.88 L -34.4740820053 -14.08 " stroke="#191919" stroke-width="0.35 px" style="stroke-width:0.35;stroke-miterlimit:4;stroke-dasharray:none;fill:none;fill-opacity:1;fill-rule: evenodd"/>
<path id="Shape2DView_nwe0067"  d="M -34.57943192049 -13.88 L -34.57943192049 -13.83 " stroke="#191919" stroke-width="0.35 px" style="stroke-width:0.35;stroke-miterlimit:4;stroke-dasharray:none;fill:none;fill-opacity:1;fill-rule: evenodd"/>
<path id="Shape2DView_nwe0068"  d="M 1.339431920499 -13.88 L 1.339431920499 -13.83 " stroke="#191919" stroke-width="0.35 px" style="stroke-width:0.35;stroke-miterlimit:4;stroke-dasharray:none;fill:none;fill-opacity:1;fill-rule: evenodd"/>
<path id="Shape2DView_nwe0069"  d="M -34.57943192049 -8.68 L -34.57943192049 -13.83 " stroke="#191919" stroke-width="0.35 px" style="stroke-width:0.35;stroke-miterlimit:4;stroke-dasharray:none;fill:none;fill-opacity:1;fill-rule: evenodd"/>
<path id="Shape2DView_nwe0070"  d="M -35.57943192049 -8.68 L -35.57314413038324 -8.68 L -35.55435983267183 -8.68 L -35.52331525079837 -8.68 L -35.48040078839242 -8.68 L -35.426156119718286 -8.68 L -35.36126340295803 -8.68 L -35.28653870167655 -8.68 L -35.202921722348734 -8.68 L -35.11146399700534 -8.68 L -35.01331565960756 -8.68 L -34.90971098244517 -8.68 L -34.80195285444632 -8.68 L -34.69139639659331 -8.68 L -34.57943192049 -8.68 " stroke="#191919" stroke-width="0.35 px" style="stroke-width:0.35;stroke-miterlimit:4;stroke-dasharray:none;fill:none;fill-opacity:1;fill-rule: evenodd"/>
<path id="Shape2DView_nwe0071"  d="M 1.339431920499 -8.68 L 1.339431920499 -13.83 " stroke="#191919" stroke-width="0.35 px" style="stroke-width:0.35;stroke-miterlimit:4;stroke-dasharray:none;fill:none;fill-opacity:1;fill-rule: evenodd"/>
<path id="Shape2DView_nwe0072"  d="M -34.57943192049 -8.68 L 1.3394319204990026 -8.68 " stroke="#191919" stroke-width="0.35 px" style="stroke-width:0.35;stroke-miterlimit:4;stroke-dasharray:none;fill:none;fill-opacity:1;fill-rule: evenodd"/>
<path id="Shape2DView_nwe0073"  d="M 1.339431920499 -8.68 L 1.4513963966023078 -8.68 L 1.5619528544553143 -8.68 L 1.6697109824541672 -8.68 L 1.773315659616558 -8.68 L 1.8714639970143365 -8.68 L 1.9629217223577333 -8.68 L 2.0465387016855474 -8.68 L 2.12126340296703 -8.68 L 2.186156119727284 -8.68 L 2.240400788401419 -8.68 L 2.2833152508073677 -8.68 L 2.3143598326808235 -8.68 L 2.3331441303922427 -8.68 L 2.339431920499 -8.68 " stroke="#191919" stroke-width="0.35 px" style="stroke-width:0.35;stroke-miterlimit:4;stroke-dasharray:none;fill:none;fill-opacity:1;fill-rule: evenodd"/>
<path id="Shape2DView_nwe0074"  d="M -34.57943192049 -8.68 L -34.57943192049 -8.612821314338015 L -34.57943192049 -8.546487439626212 L -34.57943192049 -8.4818325628269 L -34.57943192049 -8.419669756529466 L -34.57943192049 -8.360780754090797 L -34.57943192049 -8.30590611888476 L -34.57943192049 -8.255735931288072 L -34.57943192049 -8.210901110519181 L -34.57943192049 -8.17196548046303 L -34.57943192049 -8.139418679258549 L -34.57943192049 -8.11367000181498 L -34.57943192049 -8.095043252690905 L -34.57943192049 -8.083772674064054 L -34.57943192049 -8.08 " stroke="#191919" stroke-width="0.35 px" style="stroke-width:0.35;stroke-miterlimit:4;stroke-dasharray:none;fill:none;fill-opacity:1;fill-rule: evenodd"/>
<path id="Shape2DView_nwe0075"  d="M 1.339431920499 -8.68 L 1.339431920499 -8.612821314338015 L 1.339431920499 -8.546487439626212 L 1.339431920499 -8.4818325628269 L 1.339431920499 -8.419669756529466 L 1.339431920499 -8.360780754090797 L 1.339431920499 -8.30590611888476 L 1.339431920499 -8.255735931288072 L 1.339431920499 -8.210901110519181 L 1.339431920499 -8.17196548046303 L 1.339431920499 -8.139418679258549 L 1.339431920499 -8.11367000181498 L 1.339431920499 -8.095043252690905 L 1.339431920499 -8.083772674064054 L 1.339431920499 -8.08 " stroke="#191919" stroke-width="0.35 px" style="stroke-width:0.35;stroke-miterlimit:4;stroke-dasharray:none;fill:none;fill-opacity:1;fill-rule: evenodd"/>
<path id="Shape2DView_nwe0077"  d="M -42.17 -7.98 L -42.17 -7.991196447610331 L -42.17 -8.002252093395631 L -42.17 -8.013027906195518 L -42.17 -8.023388373911756 L -42.17 -8.033203207651534 L -42.17 -8.042348980185874 L -42.17 -8.050710678118655 L -42.17 -8.058183148246803 L -42.17 -8.064672419922829 L -42.17 -8.070096886790243 L -42.17 -8.074388333030837 L -42.17 -8.077492791218182 L -42.17 -8.079371220989325 L -42.17 -8.08 " stroke="#191919" stroke-width="0.35 px" style="stroke-width:0.35;stroke-miterlimit:4;stroke-dasharray:none;fill:none;fill-opacity:1;fill-rule: evenodd"/>
<path id="Shape2DView_nwe0078"  d="M -43.17 -7.98 L -43.16371220989324 -7.98 L -43.14492791218183 -7.98 L -43.11388333030837 -7.98 L -43.07096886790242 -7.98 L -43.016724199228285 -7.98 L -42.95183148246803 -7.98 L -42.87710678118655 -7.98 L -42.79348980185873 -7.98 L -42.70203207651534 -7.98 L -42.60388373911756 -7.98 L -42.50027906195517 -7.98 L -42.39252093395632 -7.98 L -42.28196447610331 -7.98 L -42.17 -7.98 " stroke="#191919" stroke-width="0.35 px" style="stroke-width:0.35;stroke-miterlimit:4;stroke-dasharray:none;fill:none;fill-opacity:1;fill-rule: evenodd"/>
<path id="Shape2DView_nwe0080"  d="M 8.93 -7.98 L 8.93 -7.991196447610331 L 8.93 -8.002252093395631 L 8.93 -8.013027906195518 L 8.93 -8.023388373911756 L 8.93 -8.033203207651534 L 8.93 -8.042348980185874 L 8.93 -8.050710678118655 L 8.93 -8.058183148246803 L 8.93 -8.064672419922829 L 8.93 -8.070096886790243 L 8.93 -8.074388333030837 L 8.93 -8.077492791218182 L 8.93 -8.079371220989325 L 8.93 -8.08 " stroke="#191919" stroke-width="0.35 px" style="stroke-width:0.35;stroke-miterlimit:4;stroke-dasharray:none;fill:none;fill-opacity:1;fill-rule: evenodd"/>
<path id="Shape2DView_nwe0081"  d="M -42.17 -7.98 L 8.93 -7.98 " stroke="#191919" stroke-width="0.35 px" style="stroke-width:0.35;stroke-miterlimit:4;stroke-dasharray:none;fill:none;fill-opacity:1;fill-rule: evenodd"/>
<path id="Shape2DView_nwe0082"  d="M 8.93 -7.98 L 9.041964476103308 -7.98 L 9.152520933956314 -7.98 L 9.260279061955167 -7.98 L 9.363883739117558 -7.98 L 9.462032076515337 -7.98 L 9.553489801858733 -7.98 L 9.637106781186548 -7.98 L 9.71183148246803 -7.98 L 9.776724199228283 -7.98 L 9.830968867902419 -7.98 L 9.873883330308367 -7.98 L 9.904927912181824 -7.98 L 9.923712209893242 -7.98 L 9.93 -7.98 " stroke="#191919" stroke-width="0.35 px" style="stroke-width:0.35;stroke-miterlimit:4;stroke-dasharray:none;fill:none;fill-opacity:1;fill-rule: evenodd"/>
<path id="Shape2DView_nwe0083"  d="M -42.17 -7.78 L -42.17 -7.98 " stroke="#191919" stroke-width="0.35 px" style="stroke-width:0.35;stroke-miterlimit:4;stroke-dasharray:none;fill:none;fill-opacity:1;fill-rule: evenodd"/>
<path id="Shape2DView_nwe0084"  d="M 8.93 -7.78 L 8.93 -7.98 " stroke="#191919" stroke-width="0.35 px" style="stroke-width:0.35;stroke-miterlimit:4;stroke-dasharray:none;fill:none;fill-opacity:1;fill-rule: evenodd"/>
<path id="Shape2DView_nwe0085"  d="M -42.17 -7.78 L -42.17 -5.78 " stroke="#191919" stroke-width="0.35 px" style="stroke-width:0.35;stroke-miterlimit:4;stroke-dasharray:none;fill:none;fill-opacity:1;fill-rule: evenodd"/>
<path id="Shape2DView_nwe0086"  d="M 8.93 -7.78 L 8.93 -5.78 " stroke="#191919" stroke-width="0.35 px" style="stroke-width:0.35;stroke-miterlimit:4;stroke-dasharray:none;fill:none;fill-opacity:1;fill-rule: evenodd"/>
<path id="Shape2DView_nwe0087"  d="M -41.17 6.163438522699e-17 L -39.17 6.163438522699e-17 " stroke="#191919" stroke-width="0.35 px" style="stroke-width:0.35;stroke-miterlimit:4;stroke-dasharray:none;fill:none;fill-opacity:1;fill-rule: evenodd"/>
<path id="Shape2DView_nwe0088"  d="M 5.93 6.163438522699e-17 L 7.93 6.163438522699e-17 " stroke="#191919" stroke-width="0.35 px" style="stroke-width:0.35;stroke-miterlimit:4;stroke-dasharray:none;fill:none;fill-opacity:1;fill-rule: evenodd"/>
<path id="Shape2DView_nwe0089"  d="M -42.17 -7.78 L -42.28196447610331 -7.78 L -42.39252093395632 -7.78 L -42.50027906195517 -7.78 L -42.60388373911756 -7.78 L -42.70203207651534 -7.78 L -42.79348980185873 -7.78 L -42.87710678118655 -7.78 L -42.95183148246803 -7.78 L -43.016724199228285 -7.78 L -43.07096886790242 -7.78 L -43.11388333030837 -7.78 L -43.14492791218183 -7.78 L -43.16371220989324 -7.78 L -43.17 -7.78 " stroke="#191919" stroke-width="0.35 px" style="stroke-width:0.35;stroke-miterlimit:4;stroke-dasharray:none;fill:none;fill-opacity:1;fill-rule: evenodd"/>
<path id="Shape2DView_nwe0090"  d="M 8.93 -7.78 L -42.17 -7.78 " stroke="#191919" stroke-width="0.35 px" style="stroke-width:0.35;stroke-miterlimit:4;stroke-dasharray:none;fill:none;fill-opacity:1;fill-rule: evenodd"/>
<path id="Shape2DView_nwe0091"  d="M 8.93 -7.78 L 9.041964476103308 -7.78 L 9.152520933956314 -7.78 L 9.260279061955167 -7.78 L 9.363883739117558 -7.78 L 9.462032076515337 -7.78 L 9.553489801858733 -7.78 L 9.637106781186548 -7.78 L 9.71183148246803 -7.78 L 9.776724199228283 -7.78 L 9.830968867902419 -7.78 L 9.873883330308367 -7.78 L 9.904927912181824 -7.78 L 9.923712209893242 -7.78 L 9.93 -7.78 " stroke="#191919" stroke-width="0.35 px" style="stroke-width:0.35;stroke-miterlimit:4;stroke-dasharray:none;fill:none;fill-opacity:1;fill-rule: evenodd"/>
<path id="Shape2DView_nwe0092"  d="M 2.1340820053030454 -14.180000000000044 L 2.2340820053029997 -14.08 " stroke="#191919" stroke-width="0.35 px" style="stroke-width:0.35;stroke-miterlimit:4;stroke-dasharray:none;fill:none;fill-opacity:1;fill-rule: evenodd"/>
<path id="Shape2DView_nwe0093"  d="M -35.37408200530004 -14.180000000000048 L -35.4740820053 -14.08 " stroke="#191919" stroke-width="0.35 px" style="stroke-width:0.35;stroke-miterlimit:4;stroke-dasharray:none;fill:none;fill-opacity:1;fill-rule: evenodd"/>
<path id="Shape2DView_nwe0094"  d="M 2.2340820053029997 -13.88 L 2.2340820053029997 -14.08 " stroke="#191919" stroke-width="0.35 px" style="stroke-width:0.35;stroke-miterlimit:4;stroke-dasharray:none;fill:none;fill-opacity:1;fill-rule: evenodd"/>
<path id="Shape2DView_nwe0095"  d="M -35.4740820053 -13.88 L -35.4740820053 -14.08 " stroke="#191919" stroke-width="0.35 px" style="stroke-width:0.35;stroke-miterlimit:4;stroke-dasharray:none;fill:none;fill-opacity:1;fill-rule: evenodd"/>
<path id="Shape2DView_nwe0096"  d="M -35.529431920490026 -13.880000000000022 L -35.57943192049 -13.83 " stroke="#191919" stroke-width="0.35 px" style="stroke-width:0.35;stroke-miterlimit:4;stroke-dasharray:none;fill:none;fill-opacity:1;fill-rule: evenodd"/>
<path id="Shape2DView_nwe0097"  d="M 2.2894319204990214 -13.880000000000024 L 2.339431920499 -13.83 " stroke="#191919" stroke-width="0.35 px" style="stroke-width:0.35;stroke-miterlimit:4;stroke-dasharray:none;fill:none;fill-opacity:1;fill-rule: evenodd"/>
<path id="Shape2DView_nwe0098"  d="M -35.57943192049 -8.68 L -35.57943192049 -13.83 " stroke="#191919" stroke-width="0.35 px" style="stroke-width:0.35;stroke-miterlimit:4;stroke-dasharray:none;fill:none;fill-opacity:1;fill-rule: evenodd"/>
<path id="Shape2DView_nwe0099"  d="M 2.339431920499 -8.68 L 2.339431920499 -13.83 " stroke="#191919" stroke-width="0.35 px" style="stroke-width:0.35;stroke-miterlimit:4;stroke-dasharray:none;fill:none;fill-opacity:1;fill-rule: evenodd"/>
<path id="Shape2DView_nwe0100"  d="M -35.57943192049 -8.68 Q -35.58717989816655 -8.612259618494654 -35.5949278758431 -8.54451923698931 Q -35.62543109604471 -8.465673246045569 -35.655934316246324 -8.386827255101828 Q -35.83467360085368 -8.091785780527218 -36.17943192049 -8.08 " stroke="#191919" stroke-width="0.35 px" style="stroke-width:0.35;stroke-miterlimit:4;stroke-dasharray:none;fill:none;fill-opacity:1;fill-rule: evenodd"/>
<path id="Shape2DView_nwe0101"  d="M 2.339431920499 -8.68 Q 2.34717989885702 -8.612259618652612 2.35492787721504 -8.544519237305224 Q 2.384287894843861 -8.467733516422097 2.41364791247268 -8.390947795538972 Q 2.59176627920947 -8.092129505490131 2.9394319204989996 -8.08 " stroke="#191919" stroke-width="0.35 px" style="stroke-width:0.35;stroke-miterlimit:4;stroke-dasharray:none;fill:none;fill-opacity:1;fill-rule: evenodd"/>
<path id="Shape2DView_nwe0102"  d="M -42.17 -5.58 L -42.17 -5.78 " stroke="#191919" stroke-width="0.35 px" style="stroke-width:0.35;stroke-miterlimit:4;stroke-dasharray:none;fill:none;fill-opacity:1;fill-rule: evenodd"/>
<path id="Shape2DView_nwe0103"  d="M 4.93 -5.58 L 4.93 -5.78 " stroke="#191919" stroke-width="0.35 px" style="stroke-width:0.35;stroke-miterlimit:4;stroke-dasharray:none;fill:none;fill-opacity:1;fill-rule: evenodd"/>
<title>b'Shape2DView'</title>
</g>
<g id="Rectangle" transform="translate(43.701000,3.231000) scale(1,-1)">
<rect fill="#ff0000" id="origin" width="1" height="1" x="0" y="0" />
<title>b'Rectangle'</title>
</g>
</svg>