<?xml version="1.0"?>
<!DOCTYPE svg PUBLIC "-//W3C//DTD SVG 1.1//EN" "http://www.w3.org/Graphics/SVG/1.1/DTD/svg11.dtd">
<svg width="31.416mm" height="19.356000000000044mm" viewBox="0 0 31.416 19.356000000000044" xmlns="http://www.w3.org/2000/svg" version="1.1">
<g id="Shape2DView" transform="translate(21.248000,2.108000) scale(1,-1)">
<path id="Shape2DView_nwe0000"  d="M -12.49943192049 -16.59 L -12.611396396593308 -16.59 L -12.721952854446315 -16.59 L -12.829710982445167 -16.59 L -12.933315659607558 -16.59 L -13.031463997005337 -16.59 L -13.122921722348734 -16.59 L -13.206538701676548 -16.59 L -13.28126340295803 -16.59 L -13.346156119718284 -16.59 L -13.40040078839242 -16.59 L -13.443315250798367 -16.59 L -13.474359832671825 -16.59 L -13.493144130383243 -16.59 L -13.49943192049 -16.59 " stroke="#191919" stroke-width="0.35 px" style="stroke-width:0.35;stroke-miterlimit:4;stroke-dasharray:none;fill:none;fill-opacity:1;fill-rule: evenodd"/>
<path id="Shape2DView_nwe0001"  d="M 1.419431920499 -16.59 L -12.49943192049 -16.59 " stroke="#191919" stroke-width="0.35 px" style="stroke-width:0.35;stroke-miterlimit:4;stroke-dasharray:none;fill:none;fill-opacity:1;fill-rule: evenodd"/>
<path id="Shape2DView_nwe0002"  d="M -12.49943192049 -16.64 L -12.605798172788143 -16.64 L -12.710826807748498 -16.64 L -12.813197029347409 -16.64 L -12.91162147265168 -16.64 L -13.00486239317957 -16.64 L -13.091747232255797 -16.64 L -13.17118336261722 -16.64 L -13.242171828834628 -16.64 L -13.30381990975687 -16.64 L -13.355352344997298 -16.64 L -13.39612108428295 -16.64 L -13.425613437062733 -16.64 L -13.44345851988858 -16.64 L -13.44943192049 -16.64 " stroke="#191919" stroke-width="0.35 px" style="stroke-width:0.35;stroke-miterlimit:4;stroke-dasharray:none;fill:none;fill-opacity:1;fill-rule: evenodd"/>
<path id="Shape2DView_nwe0003"  d="M 1.419431920499 -16.64 L -12.49943192049 -16.64 " stroke="#191919" stroke-width="0.35 px" style="stroke-width:0.35;stroke-miterlimit:4;stroke-dasharray:none;fill:none;fill-opacity:1;fill-rule: evenodd"/>
<path id="Shape2DView_nwe0004"  d="M 2.419431920499 -16.59 L 2.4131441303922423 -16.59 L 2.394359832680823 -16.59 L 2.363315250807367 -16.59 L 2.320400788401418 -16.59 L 2.266156119727283 -16.59 L 2.2012634029670286 -16.59 L 2.1265387016855466 -16.59 L 2.0429217223577325 -16.59 L 1.9514639970143355 -16.59 L 1.8533156596165572 -16.59 L 1.7497109824541663 -16.59 L 1.641952854455314 -16.59 L 1.5313963966023076 -16.59 L 1.419431920499 -16.59 " stroke="#191919" stroke-width="0.35 px" style="stroke-width:0.35;stroke-miterlimit:4;stroke-dasharray:none;fill:none;fill-opacity:1;fill-rule: evenodd"/>
<path id="Shape2DView_nwe0005"  d="M -19.94 -10.84 L -20.040768028492977 -10.84 L -20.140268840560683 -10.84 L -20.23725115575965 -10.84 L -20.330495365205802 -10.84 L -20.418828868863805 -10.84 L -20.501140821672863 -10.84 L -20.576396103067893 -10.84 L -20.64364833422123 -10.84 L -20.702051779305457 -10.84 L -20.75087198111218 -10.84 L -20.789494997277533 -10.84 L -20.817435120963644 -10.84 L -20.834340988903918 -10.84 L -20.84 -10.84 " stroke="#191919" stroke-width="0.35 px" style="stroke-width:0.35;stroke-miterlimit:4;stroke-dasharray:none;fill:none;fill-opacity:1;fill-rule: evenodd"/>
<path id="Shape2DView_nwe0006"  d="M -20.84 -10.84 L -20.834340988903918 -10.84 L -20.817435120963644 -10.84 L -20.789494997277533 -10.84 L -20.75087198111218 -10.84 L -20.702051779305457 -10.84 L -20.64364833422123 -10.84 L -20.576396103067893 -10.84 L -20.501140821672863 -10.84 L -20.418828868863805 -10.84 L -20.330495365205802 -10.84 L -20.23725115575965 -10.84 L -20.140268840560683 -10.84 L -20.040768028492977 -10.84 L -19.94 -10.84 " stroke="#191919" stroke-width="0.35 px" style="stroke-width:0.35;stroke-miterlimit:4;stroke-dasharray:none;fill:none;fill-opacity:1;fill-rule: evenodd"/>
<path id="Shape2DView_nwe0007"  d="M 9.76 -10.84 L 9.754340988903918 -10.84 L 9.73743512096364 -10.84 L 9.709494997277531 -10.84 L 9.670871981112176 -10.84 L 9.622051779305455 -10.84 L 9.563648334221226 -10.84 L 9.496396103067893 -10.84 L 9.421140821672859 -10.84 L 9.338828868863802 -10.84 L 9.250495365205802 -10.84 L 9.15725115575965 -10.84 L 9.060268840560683 -10.84 L 8.960768028492977 -10.84 L 8.86 -10.84 " stroke="#191919" stroke-width="0.35 px" style="stroke-width:0.35;stroke-miterlimit:4;stroke-dasharray:none;fill:none;fill-opacity:1;fill-rule: evenodd"/>
<path id="Shape2DView_nwe0008"  d="M 8.86 -10.84 L -19.94 -10.84 " stroke="#191919" stroke-width="0.35 px" style="stroke-width:0.35;stroke-miterlimit:4;stroke-dasharray:none;fill:none;fill-opacity:1;fill-rule: evenodd"/>
<path id="Shape2DView_nwe0009"  d="M 2.369431920499 -16.64 L 2.3634585198975806 -16.64 L 2.3456134370717323 -16.64 L 2.3161210842919493 -16.64 L 2.2753523450062985 -16.64 L 2.2238199097658704 -16.64 L 2.1621718288436287 -16.64 L 2.0911833626262206 -16.64 L 2.0117472322647973 -16.64 L 1.9248623931885702 -16.64 L 1.8316214726606805 -16.64 L 1.7331970293564092 -16.64 L 1.630826807757499 -16.64 L 1.5257981727971428 -16.64 L 1.419431920499 -16.64 " stroke="#191919" stroke-width="0.35 px" style="stroke-width:0.35;stroke-miterlimit:4;stroke-dasharray:none;fill:none;fill-opacity:1;fill-rule: evenodd"/>
<path id="Shape2DView_nwe0010"  d="M -20.94 -10.74 A 0.1 0.1 0 0 1 -20.84 -10.84" stroke="#191919" stroke-width="0.35 px" style="stroke-width:0.35;stroke-miterlimit:4;stroke-dasharray:none;fill:none;fill-opacity:1;fill-rule: evenodd"/>
<path id="Shape2DView_nwe0011"  d="M 9.86 -10.74 A 0.1 0.1 0 0 0 9.76 -10.84" stroke="#191919" stroke-width="0.35 px" style="stroke-width:0.35;stroke-miterlimit:4;stroke-dasharray:none;fill:none;fill-opacity:1;fill-rule: evenodd"/>
<path id="Shape2DView_nwe0012"  d="M -13.3940820053 -16.84 L -13.387794215193242 -16.84 L -13.369009917481822 -16.84 L -13.337965335608367 -16.84 L -13.295050873202419 -16.84 L -13.240806204528283 -16.84 L -13.175913487768028 -16.84 L -13.101188786486547 -16.84 L -13.017571807158733 -16.84 L -12.926114081815337 -16.84 L -12.827965744417558 -16.84 L -12.724361067255167 -16.84 L -12.616602939256314 -16.84 L -12.506046481403308 -16.84 L -12.3940820053 -16.84 " stroke="#191919" stroke-width="0.35 px" style="stroke-width:0.35;stroke-miterlimit:4;stroke-dasharray:none;fill:none;fill-opacity:1;fill-rule: evenodd"/>
<path id="Shape2DView_nwe0013"  d="M -12.3940820053 -16.84 L 1.3140820053029998 -16.84 " stroke="#191919" stroke-width="0.35 px" style="stroke-width:0.35;stroke-miterlimit:4;stroke-dasharray:none;fill:none;fill-opacity:1;fill-rule: evenodd"/>
<path id="Shape2DView_nwe0014"  d="M 1.314082005303 -16.84 L 1.4260464814063079 -16.84 L 1.5366029392593143 -16.84 L 1.644361067258167 -16.84 L 1.747965744420558 -16.84 L 1.8461140818183366 -16.84 L 1.9375718071617336 -16.84 L 2.0211887864895477 -16.84 L 2.0959134877710297 -16.84 L 2.1608062045312844 -16.84 L 2.2150508732054193 -16.84 L 2.2579653356113676 -16.84 L 2.2890099174848237 -16.84 L 2.3077942151962425 -16.84 L 2.314082005303 -16.84 " stroke="#191919" stroke-width="0.35 px" style="stroke-width:0.35;stroke-miterlimit:4;stroke-dasharray:none;fill:none;fill-opacity:1;fill-rule: evenodd"/>
<path id="Shape2DView_nwe0015"  d="M -20.94 -10.54 L -20.94 -10.74 " stroke="#191919" stroke-width="0.35 px" style="stroke-width:0.35;stroke-miterlimit:4;stroke-dasharray:none;fill:none;fill-opacity:1;fill-rule: evenodd"/>
<path id="Shape2DView_nwe0016"  d="M 9.86 -10.54 L 9.86 -10.74 " stroke="#191919" stroke-width="0.35 px" style="stroke-width:0.35;stroke-miterlimit:4;stroke-dasharray:none;fill:none;fill-opacity:1;fill-rule: evenodd"/>
<path id="Shape2DView_nwe0017"  d="M -13.2940820053 -16.94 L -13.288422994203918 -16.94 L -13.27151712626364 -16.94 L -13.243577002577531 -16.94 L -13.204953986412177 -16.94 L -13.156133784605455 -16.94 L -13.097730339521227 -16.94 L -13.030478108367893 -16.94 L -12.955222826972859 -16.94 L -12.872910874163802 -16.94 L -12.784577370505803 -16.94 L -12.69133316105965 -16.94 L -12.594350845860683 -16.94 L -12.494850033792977 -16.94 L -12.3940820053 -16.94 " stroke="#191919" stroke-width="0.35 px" style="stroke-width:0.35;stroke-miterlimit:4;stroke-dasharray:none;fill:none;fill-opacity:1;fill-rule: evenodd"/>
<path id="Shape2DView_nwe0018"  d="M -12.3940820053 -16.94 L 1.3140820053029998 -16.94 " stroke="#191919" stroke-width="0.35 px" style="stroke-width:0.35;stroke-miterlimit:4;stroke-dasharray:none;fill:none;fill-opacity:1;fill-rule: evenodd"/>
<path id="Shape2DView_nwe0019"  d="M 1.314082005303 -16.94 L 1.414850033795977 -16.94 L 1.514350845863683 -16.94 L 1.6113331610626505 -16.94 L 1.7045773705088023 -16.94 L 1.792910874166803 -16.94 L 1.8752228269758602 -16.94 L 1.9504781083708929 -16.94 L 2.0177303395242268 -16.94 L 2.076133784608456 -16.94 L 2.1249539864151776 -16.94 L 2.163577002580531 -16.94 L 2.1915171262666413 -16.94 L 2.2084229942069182 -16.94 L 2.214082005303 -16.94 " stroke="#191919" stroke-width="0.35 px" style="stroke-width:0.35;stroke-miterlimit:4;stroke-dasharray:none;fill:none;fill-opacity:1;fill-rule: evenodd"/>
<path id="Shape2DView_nwe0020"  d="M -20.94 -8.54 L -20.933712209893244 -8.54 L -20.914927912181824 -8.54 L -20.883883330308368 -8.54 L -20.840968867902422 -8.54 L -20.786724199228285 -8.54 L -20.72183148246803 -8.54 L -20.647106781186547 -8.54 L -20.563489801858736 -8.54 L -20.472032076515337 -8.54 L -20.37388373911756 -8.54 L -20.27027906195517 -8.54 L -20.162520933956316 -8.54 L -20.051964476103308 -8.54 L -19.94 -8.54 " stroke="#191919" stroke-width="0.35 px" style="stroke-width:0.35;stroke-miterlimit:4;stroke-dasharray:none;fill:none;fill-opacity:1;fill-rule: evenodd"/>
<path id="Shape2DView_nwe0021"  d="M -20.94 -10.54 L -20.94 -8.54 " stroke="#191919" stroke-width="0.35 px" style="stroke-width:0.35;stroke-miterlimit:4;stroke-dasharray:none;fill:none;fill-opacity:1;fill-rule: evenodd"/>
<path id="Shape2DView_nwe0022"  d="M 4.36 -8.54 L 8.86 -8.54 " stroke="#191919" stroke-width="0.35 px" style="stroke-width:0.35;stroke-miterlimit:4;stroke-dasharray:none;fill:none;fill-opacity:1;fill-rule: evenodd"/>
<path id="Shape2DView_nwe0023"  d="M 4.36 1.8000000000000007 L 4.36 -8.54 " stroke="#191919" stroke-width="0.35 px" style="stroke-width:0.35;stroke-miterlimit:4;stroke-dasharray:none;fill:none;fill-opacity:1;fill-rule: evenodd"/>
<path id="Shape2DView_nwe0024"  d="M 4.36 1.8 L -15.439999999999998 1.8 " stroke="#191919" stroke-width="0.35 px" style="stroke-width:0.35;stroke-miterlimit:4;stroke-dasharray:none;fill:none;fill-opacity:1;fill-rule: evenodd"/>
<path id="Shape2DView_nwe0025"  d="M -15.44 -8.54 L -15.44 1.8000000000000007 " stroke="#191919" stroke-width="0.35 px" style="stroke-width:0.35;stroke-miterlimit:4;stroke-dasharray:none;fill:none;fill-opacity:1;fill-rule: evenodd"/>
<path id="Shape2DView_nwe0026"  d="M -19.94 -8.54 L -15.439999999999998 -8.54 " stroke="#191919" stroke-width="0.35 px" style="stroke-width:0.35;stroke-miterlimit:4;stroke-dasharray:none;fill:none;fill-opacity:1;fill-rule: evenodd"/>
<path id="Shape2DView_nwe0027"  d="M -20.94 1.8000000000000007 L -20.94 -8.54 " stroke="#191919" stroke-width="0.35 px" style="stroke-width:0.35;stroke-miterlimit:4;stroke-dasharray:none;fill:none;fill-opacity:1;fill-rule: evenodd"/>
<path id="Shape2DView_nwe0028"  d="M 9.86 -10.54 L 9.86 -8.54 " stroke="#191919" stroke-width="0.35 px" style="stroke-width:0.35;stroke-miterlimit:4;stroke-dasharray:none;fill:none;fill-opacity:1;fill-rule: evenodd"/>
<path id="Shape2DView_nwe0029"  d="M 8.86 -8.54 L 8.971964476103308 -8.54 L 9.082520933956314 -8.54 L 9.190279061955167 -8.54 L 9.293883739117557 -8.54 L 9.392032076515337 -8.54 L 9.483489801858733 -8.54 L 9.567106781186547 -8.54 L 9.64183148246803 -8.54 L 9.706724199228283 -8.54 L 9.760968867902418 -8.54 L 9.803883330308366 -8.54 L 9.834927912181824 -8.54 L 9.853712209893242 -8.54 L 9.86 -8.54 " stroke="#191919" stroke-width="0.35 px" style="stroke-width:0.35;stroke-miterlimit:4;stroke-dasharray:none;fill:none;fill-opacity:1;fill-rule: evenodd"/>
<path id="Shape2DView_nwe0030"  d="M 9.86 -8.54 L 9.86 1.8000000000000007 " stroke="#191919" stroke-width="0.35 px" style="stroke-width:0.35;stroke-miterlimit:4;stroke-dasharray:none;fill:none;fill-opacity:1;fill-rule: evenodd"/>
<path id="Shape2DView_nwe0031"  d="M 8.96 -8.34 L 8.909855824363648 -8.34 L 8.761937735804839 -8.34 L 8.52366296493606 -8.34 L 8.206979603717468 -8.34 L 7.827767478235116 -8.34 L 7.405041867912629 -8.34 L 6.96 -8.34 L 6.514958132087371 -8.34 L 6.092232521764884 -8.34 L 5.713020396282533 -8.34 L 5.39633703506394 -8.34 L 5.158062264195162 -8.34 L 5.010144175636353 -8.34 L 4.96 -8.34 " stroke="#191919" stroke-width="0.35 px" style="stroke-width:0.35;stroke-miterlimit:4;stroke-dasharray:none;fill:none;fill-opacity:1;fill-rule: evenodd"/>
<path id="Shape2DView_nwe0032"  d="M -16.04 -8.34 L -16.09014417563635 -8.34 L -16.23806226419516 -8.34 L -16.47633703506394 -8.34 L -16.793020396282532 -8.34 L -17.172232521764883 -8.34 L -17.59495813208737 -8.34 L -18.04 -8.34 L -18.485041867912628 -8.34 L -18.907767478235115 -8.34 L -19.286979603717466 -8.34 L -19.60366296493606 -8.34 L -19.841937735804837 -8.34 L -19.989855824363648 -8.34 L -20.04 -8.34 " stroke="#191919" stroke-width="0.35 px" style="stroke-width:0.35;stroke-miterlimit:4;stroke-dasharray:none;fill:none;fill-opacity:1;fill-rule: evenodd"/>
<path id="Shape2DView_nwe0033"  d="M -20.94 1.8 L -15.44 1.8 " stroke="#191919" stroke-width="0.35 px" style="stroke-width:0.35;stroke-miterlimit:4;stroke-dasharray:none;fill:none;fill-opacity:1;fill-rule: evenodd"/>
<path id="Shape2DView_nwe0034"  d="M 4.36 1.8 L 9.86 1.8 " stroke="#191919" stroke-width="0.35 px" style="stroke-width:0.35;stroke-miterlimit:4;stroke-dasharray:none;fill:none;fill-opacity:1;fill-rule: evenodd"/>
<path id="Shape2DView_nwe0035"  d="M -16.44 -1.42 L -16.44 -3.02 " stroke="#191919" stroke-width="0.35 px" style="stroke-width:0.35;stroke-miterlimit:4;stroke-dasharray:none;fill:none;fill-opacity:1;fill-rule: evenodd"/>
<path id="Shape2DView_nwe0036"  d="M -19.64 -1.4200000000000002 A 1.6 1.6 0 0 0 -16.44 -1.42" stroke="#191919" stroke-width="0.35 px" style="stroke-width:0.35;stroke-miterlimit:4;stroke-dasharray:none;fill:none;fill-opacity:1;fill-rule: evenodd"/>
<path id="Shape2DView_nwe0037"  d="M -19.64 -3.02 L -19.64 -1.42 " stroke="#191919" stroke-width="0.35 px" style="stroke-width:0.35;stroke-miterlimit:4;stroke-dasharray:none;fill:none;fill-opacity:1;fill-rule: evenodd"/>
<path id="Shape2DView_nwe0038"  d="M -19.039999999999843 -4.268999599679805 A 1.6 1.6 0 0 0 -19.64 -3.02" stroke="#191919" stroke-width="0.35 px" style="stroke-width:0.35;stroke-miterlimit:4;stroke-dasharray:none;fill:none;fill-opacity:1;fill-rule: evenodd"/>
<path id="Shape2DView_nwe0039"  d="M -16.439999999999998 -3.02 A 1.6 1.6 0 0 0 -17.04 -4.269" stroke="#191919" stroke-width="0.35 px" style="stroke-width:0.35;stroke-miterlimit:4;stroke-dasharray:none;fill:none;fill-opacity:1;fill-rule: evenodd"/>
<path id="Shape2DView_nwe0040"  d="M 5.359999999999999 -1.4200000000000002 A 1.6 1.6 0 0 0 8.56 -1.42" stroke="#191919" stroke-width="0.35 px" style="stroke-width:0.35;stroke-miterlimit:4;stroke-dasharray:none;fill:none;fill-opacity:1;fill-rule: evenodd"/>
<path id="Shape2DView_nwe0041"  d="M 5.36 -3.02 L 5.36 -1.42 " stroke="#191919" stroke-width="0.35 px" style="stroke-width:0.35;stroke-miterlimit:4;stroke-dasharray:none;fill:none;fill-opacity:1;fill-rule: evenodd"/>
<path id="Shape2DView_nwe0042"  d="M 5.96 -3.02 L 5.36 -3.02 " stroke="#191919" stroke-width="0.35 px" style="stroke-width:0.35;stroke-miterlimit:4;stroke-dasharray:none;fill:none;fill-opacity:1;fill-rule: evenodd"/>
<path id="Shape2DView_nwe0043"  d="M 8.56 -3.02 L 7.96 -3.02 " stroke="#191919" stroke-width="0.35 px" style="stroke-width:0.35;stroke-miterlimit:4;stroke-dasharray:none;fill:none;fill-opacity:1;fill-rule: evenodd"/>
<path id="Shape2DView_nwe0044"  d="M 8.56 -1.42 L 8.56 -3.02 " stroke="#191919" stroke-width="0.35 px" style="stroke-width:0.35;stroke-miterlimit:4;stroke-dasharray:none;fill:none;fill-opacity:1;fill-rule: evenodd"/>
<path id="Shape2DView_nwe0045"  d="M 8.96 -8.54 L 8.96 -8.34 " stroke="#191919" stroke-width="0.35 px" style="stroke-width:0.35;stroke-miterlimit:4;stroke-dasharray:none;fill:none;fill-opacity:1;fill-rule: evenodd"/>
<path id="Shape2DView_nwe0046"  d="M 7.96 -1.3199999999999998 L 7.96 -1.3206287790106757 L 7.96 -1.3225072087818175 L 7.96 -1.325611666969163 L 7.96 -1.329903113209758 L 7.96 -1.3353275800771716 L 7.96 -1.341816851753197 L 7.96 -1.349289321881345 L 7.96 -1.3576510198141265 L 7.96 -1.3667967923484663 L 7.96 -1.3766116260882442 L 7.96 -1.3869720938044832 L 7.96 -1.3977479066043685 L 7.96 -1.4088035523896691 L 7.96 -1.42 " stroke="#191919" stroke-width="0.35 px" style="stroke-width:0.35;stroke-miterlimit:4;stroke-dasharray:none;fill:none;fill-opacity:1;fill-rule: evenodd"/>
<path id="Shape2DView_nwe0047"  d="M 7.96 -1.42 L 7.96 -8.24 " stroke="#191919" stroke-width="0.35 px" style="stroke-width:0.35;stroke-miterlimit:4;stroke-dasharray:none;fill:none;fill-opacity:1;fill-rule: evenodd"/>
<path id="Shape2DView_nwe0048"  d="M 7.96 -8.34 L 7.96 -8.24 " stroke="#191919" stroke-width="0.35 px" style="stroke-width:0.35;stroke-miterlimit:4;stroke-dasharray:none;fill:none;fill-opacity:1;fill-rule: evenodd"/>
<path id="Shape2DView_nwe0049"  d="M 5.96 -8.24 L 5.96 -8.34 " stroke="#191919" stroke-width="0.35 px" style="stroke-width:0.35;stroke-miterlimit:4;stroke-dasharray:none;fill:none;fill-opacity:1;fill-rule: evenodd"/>
<path id="Shape2DView_nwe0050"  d="M 7.96 -8.24 L 5.96 -8.24 " stroke="#191919" stroke-width="0.35 px" style="stroke-width:0.35;stroke-miterlimit:4;stroke-dasharray:none;fill:none;fill-opacity:1;fill-rule: evenodd"/>
<path id="Shape2DView_nwe0051"  d="M 5.96 -1.3199999999999998 L 5.96 -1.3206287790106757 L 5.96 -1.3225072087818175 L 5.96 -1.325611666969163 L 5.96 -1.329903113209758 L 5.96 -1.3353275800771716 L 5.96 -1.341816851753197 L 5.96 -1.349289321881345 L 5.96 -1.3576510198141265 L 5.96 -1.3667967923484663 L 5.96 -1.3766116260882442 L 5.96 -1.3869720938044832 L 5.96 -1.3977479066043685 L 5.96 -1.4088035523896691 L 5.96 -1.42 " stroke="#191919" stroke-width="0.35 px" style="stroke-width:0.35;stroke-miterlimit:4;stroke-dasharray:none;fill:none;fill-opacity:1;fill-rule: evenodd"/>
<path id="Shape2DView_nwe0052"  d="M 5.96 -8.24 L 5.96 -1.42 " stroke="#191919" stroke-width="0.35 px" style="stroke-width:0.35;stroke-miterlimit:4;stroke-dasharray:none;fill:none;fill-opacity:1;fill-rule: evenodd"/>
<path id="Shape2DView_nwe0053"  d="M -16.04 -8.54 L -16.04 -8.34 " stroke="#191919" stroke-width="0.35 px" style="stroke-width:0.35;stroke-miterlimit:4;stroke-dasharray:none;fill:none;fill-opacity:1;fill-rule: evenodd"/>
<path id="Shape2DView_nwe0054"  d="M -17.04 -1.3199999999999998 L -17.04 -1.3206287790106757 L -17.04 -1.3225072087818175 L -17.04 -1.325611666969163 L -17.04 -1.329903113209758 L -17.04 -1.3353275800771716 L -17.04 -1.341816851753197 L -17.04 -1.349289321881345 L -17.04 -1.3576510198141265 L -17.04 -1.3667967923484663 L -17.04 -1.3766116260882442 L -17.04 -1.3869720938044832 L -17.04 -1.3977479066043685 L -17.04 -1.4088035523896691 L -17.04 -1.42 " stroke="#191919" stroke-width="0.35 px" style="stroke-width:0.35;stroke-miterlimit:4;stroke-dasharray:none;fill:none;fill-opacity:1;fill-rule: evenodd"/>
<path id="Shape2DView_nwe0055"  d="M -17.04 -1.42 L -17.04 -8.24 " stroke="#191919" stroke-width="0.35 px" style="stroke-width:0.35;stroke-miterlimit:4;stroke-dasharray:none;fill:none;fill-opacity:1;fill-rule: evenodd"/>
<path id="Shape2DView_nwe0056"  d="M -17.04 -8.34 L -17.04 -8.24 " stroke="#191919" stroke-width="0.35 px" style="stroke-width:0.35;stroke-miterlimit:4;stroke-dasharray:none;fill:none;fill-opacity:1;fill-rule: evenodd"/>
<path id="Shape2DView_nwe0057"  d="M -19.04 -8.24 L -19.04 -8.34 " stroke="#191919" stroke-width="0.35 px" style="stroke-width:0.35;stroke-miterlimit:4;stroke-dasharray:none;fill:none;fill-opacity:1;fill-rule: evenodd"/>
<path id="Shape2DView_nwe0058"  d="M -17.04 -8.24 L -19.04 -8.24 " stroke="#191919" stroke-width="0.35 px" style="stroke-width:0.35;stroke-miterlimit:4;stroke-dasharray:none;fill:none;fill-opacity:1;fill-rule: evenodd"/>
<path id="Shape2DView_nwe0059"  d="M -19.04 -8.24 L -19.04 -1.42 " stroke="#191919" stroke-width="0.35 px" style="stroke-width:0.35;stroke-miterlimit:4;stroke-dasharray:none;fill:none;fill-opacity:1;fill-rule: evenodd"/>
<path id="Shape2DView_nwe0060"  d="M -19.04 -1.3199999999999998 L -19.04 -1.3206287790106757 L -19.04 -1.3225072087818175 L -19.04 -1.325611666969163 L -19.04 -1.329903113209758 L -19.04 -1.3353275800771716 L -19.04 -1.341816851753197 L -19.04 -1.349289321881345 L -19.04 -1.3576510198141265 L -19.04 -1.3667967923484663 L -19.04 -1.3766116260882442 L -19.04 -1.3869720938044832 L -19.04 -1.3977479066043685 L -19.04 -1.4088035523896691 L -19.04 -1.42 " stroke="#191919" stroke-width="0.35 px" style="stroke-width:0.35;stroke-miterlimit:4;stroke-dasharray:none;fill:none;fill-opacity:1;fill-rule: evenodd"/>
<path id="Shape2DView_nwe0061"  d="M 5.96 -1.32 L 7.96 -1.32 " stroke="#191919" stroke-width="0.35 px" style="stroke-width:0.35;stroke-miterlimit:4;stroke-dasharray:none;fill:none;fill-opacity:1;fill-rule: evenodd"/>
<path id="Shape2DView_nwe0062"  d="M -19.04 -1.32 L -17.04 -1.32 " stroke="#191919" stroke-width="0.35 px" style="stroke-width:0.35;stroke-miterlimit:4;stroke-dasharray:none;fill:none;fill-opacity:1;fill-rule: evenodd"/>
<path id="Shape2DView_nwe0063"  d="M -12.49943192049 -11.44 L -12.49943192049 -16.59 " stroke="#191919" stroke-width="0.35 px" style="stroke-width:0.35;stroke-miterlimit:4;stroke-dasharray:none;fill:none;fill-opacity:1;fill-rule: evenodd"/>
<path id="Shape2DView_nwe0064"  d="M -13.49943192049 -11.44 L -13.493144130383243 -11.44 L -13.474359832671823 -11.44 L -13.443315250798367 -11.44 L -13.40040078839242 -11.44 L -13.346156119718284 -11.44 L -13.281263402958029 -11.44 L -13.206538701676548 -11.44 L -13.122921722348734 -11.44 L -13.031463997005336 -11.44 L -12.933315659607558 -11.44 L -12.829710982445167 -11.44 L -12.721952854446315 -11.44 L -12.611396396593307 -11.44 L -12.49943192049 -11.44 " stroke="#191919" stroke-width="0.35 px" style="stroke-width:0.35;stroke-miterlimit:4;stroke-dasharray:none;fill:none;fill-opacity:1;fill-rule: evenodd"/>
<path id="Shape2DView_nwe0065"  d="M 1.419431920499 -11.44 L 1.419431920499 -16.59 " stroke="#191919" stroke-width="0.35 px" style="stroke-width:0.35;stroke-miterlimit:4;stroke-dasharray:none;fill:none;fill-opacity:1;fill-rule: evenodd"/>
<path id="Shape2DView_nwe0066"  d="M -12.49943192049 -11.44 L 1.419431920499001 -11.44 " stroke="#191919" stroke-width="0.35 px" style="stroke-width:0.35;stroke-miterlimit:4;stroke-dasharray:none;fill:none;fill-opacity:1;fill-rule: evenodd"/>
<path id="Shape2DView_nwe0067"  d="M -12.49943192049 -11.44 L -12.49943192049 -11.372821314338015 L -12.49943192049 -11.306487439626212 L -12.49943192049 -11.2418325628269 L -12.49943192049 -11.179669756529465 L -12.49943192049 -11.120780754090797 L -12.49943192049 -11.06590611888476 L -12.49943192049 -11.015735931288072 L -12.49943192049 -10.970901110519181 L -12.49943192049 -10.93196548046303 L -12.49943192049 -10.899418679258549 L -12.49943192049 -10.873670001814979 L -12.49943192049 -10.855043252690905 L -12.49943192049 -10.843772674064054 L -12.49943192049 -10.84 " stroke="#191919" stroke-width="0.35 px" style="stroke-width:0.35;stroke-miterlimit:4;stroke-dasharray:none;fill:none;fill-opacity:1;fill-rule: evenodd"/>
<path id="Shape2DView_nwe0068"  d="M -12.49943192049 -16.64 L -12.49943192049 -16.59 " stroke="#191919" stroke-width="0.35 px" style="stroke-width:0.35;stroke-miterlimit:4;stroke-dasharray:none;fill:none;fill-opacity:1;fill-rule: evenodd"/>
<path id="Shape2DView_nwe0069"  d="M 1.419431920499 -11.44 L 1.419431920499 -11.372821314338015 L 1.419431920499 -11.306487439626212 L 1.419431920499 -11.2418325628269 L 1.419431920499 -11.179669756529465 L 1.419431920499 -11.120780754090797 L 1.419431920499 -11.06590611888476 L 1.419431920499 -11.015735931288072 L 1.419431920499 -10.970901110519181 L 1.419431920499 -10.93196548046303 L 1.419431920499 -10.899418679258549 L 1.419431920499 -10.873670001814979 L 1.419431920499 -10.855043252690905 L 1.419431920499 -10.843772674064054 L 1.419431920499 -10.84 " stroke="#191919" stroke-width="0.35 px" style="stroke-width:0.35;stroke-miterlimit:4;stroke-dasharray:none;fill:none;fill-opacity:1;fill-rule: evenodd"/>
<path id="Shape2DView_nwe0070"  d="M 1.419431920499 -16.64 L 1.419431920499 -16.59 " stroke="#191919" stroke-width="0.35 px" style="stroke-width:0.35;stroke-miterlimit:4;stroke-dasharray:none;fill:none;fill-opacity:1;fill-rule: evenodd"/>
<path id="Shape2DView_nwe0071"  d="M 1.419431920499 -11.44 L 1.5313963966023079 -11.44 L 1.6419528544553144 -11.44 L 1.7497109824541672 -11.44 L 1.853315659616558 -11.44 L 1.9514639970143366 -11.44 L 2.0429217223577334 -11.44 L 2.1265387016855475 -11.44 L 2.20126340296703 -11.44 L 2.266156119727284 -11.44 L 2.320400788401419 -11.44 L 2.363315250807368 -11.44 L 2.3943598326808235 -11.44 L 2.4131441303922427 -11.44 L 2.419431920499 -11.44 " stroke="#191919" stroke-width="0.35 px" style="stroke-width:0.35;stroke-miterlimit:4;stroke-dasharray:none;fill:none;fill-opacity:1;fill-rule: evenodd"/>
<path id="Shape2DView_nwe0072"  d="M -19.94 -10.74 L -19.94 -10.751196447610331 L -19.94 -10.762252093395631 L -19.94 -10.773027906195518 L -19.94 -10.783388373911755 L -19.94 -10.793203207651533 L -19.94 -10.802348980185874 L -19.94 -10.810710678118655 L -19.94 -10.818183148246803 L -19.94 -10.824672419922829 L -19.94 -10.830096886790242 L -19.94 -10.834388333030837 L -19.94 -10.837492791218182 L -19.94 -10.839371220989324 L -19.94 -10.84 " stroke="#191919" stroke-width="0.35 px" style="stroke-width:0.35;stroke-miterlimit:4;stroke-dasharray:none;fill:none;fill-opacity:1;fill-rule: evenodd"/>
<path id="Shape2DView_nwe0073"  d="M -19.94 -10.74 L -20.051964476103308 -10.74 L -20.162520933956316 -10.74 L -20.27027906195517 -10.74 L -20.37388373911756 -10.74 L -20.472032076515337 -10.74 L -20.563489801858736 -10.74 L -20.647106781186547 -10.74 L -20.72183148246803 -10.74 L -20.786724199228285 -10.74 L -20.840968867902422 -10.74 L -20.883883330308368 -10.74 L -20.914927912181824 -10.74 L -20.933712209893244 -10.74 L -20.94 -10.74 " stroke="#191919" stroke-width="0.35 px" style="stroke-width:0.35;stroke-miterlimit:4;stroke-dasharray:none;fill:none;fill-opacity:1;fill-rule: evenodd"/>
<path id="Shape2DView_nwe0074"  d="M 8.86 -10.74 L -19.94 -10.74 " stroke="#191919" stroke-width="0.35 px" style="stroke-width:0.35;stroke-miterlimit:4;stroke-dasharray:none;fill:none;fill-opacity:1;fill-rule: evenodd"/>
<path id="Shape2DView_nwe0075"  d="M 8.86 -10.74 L 8.86 -10.751196447610331 L 8.86 -10.762252093395631 L 8.86 -10.773027906195518 L 8.86 -10.783388373911755 L 8.86 -10.793203207651533 L 8.86 -10.802348980185874 L 8.86 -10.810710678118655 L 8.86 -10.818183148246803 L 8.86 -10.824672419922829 L 8.86 -10.830096886790242 L 8.86 -10.834388333030837 L 8.86 -10.837492791218182 L 8.86 -10.839371220989324 L 8.86 -10.84 " stroke="#191919" stroke-width="0.35 px" style="stroke-width:0.35;stroke-miterlimit:4;stroke-dasharray:none;fill:none;fill-opacity:1;fill-rule: evenodd"/>
<path id="Shape2DView_nwe0076"  d="M 9.86 -10.74 L 9.853712209893242 -10.74 L 9.834927912181824 -10.74 L 9.803883330308366 -10.74 L 9.760968867902418 -10.74 L 9.706724199228283 -10.74 L 9.64183148246803 -10.74 L 9.567106781186547 -10.74 L 9.483489801858733 -10.74 L 9.392032076515337 -10.74 L 9.293883739117557 -10.74 L 9.190279061955167 -10.74 L 9.082520933956314 -10.74 L 8.971964476103308 -10.74 L 8.86 -10.74 " stroke="#191919" stroke-width="0.35 px" style="stroke-width:0.35;stroke-miterlimit:4;stroke-dasharray:none;fill:none;fill-opacity:1;fill-rule: evenodd"/>
<path id="Shape2DView_nwe0077"  d="M -12.3940820053 -16.64 L -12.3940820053 -16.84 " stroke="#191919" stroke-width="0.35 px" style="stroke-width:0.35;stroke-miterlimit:4;stroke-dasharray:none;fill:none;fill-opacity:1;fill-rule: evenodd"/>
<path id="Shape2DView_nwe0078"  d="M 1.314082005303 -16.64 L 1.314082005303 -16.84 " stroke="#191919" stroke-width="0.35 px" style="stroke-width:0.35;stroke-miterlimit:4;stroke-dasharray:none;fill:none;fill-opacity:1;fill-rule: evenodd"/>
<path id="Shape2DView_nwe0079"  d="M -19.94 -10.54 L -19.94 -10.74 " stroke="#191919" stroke-width="0.35 px" style="stroke-width:0.35;stroke-miterlimit:4;stroke-dasharray:none;fill:none;fill-opacity:1;fill-rule: evenodd"/>
<path id="Shape2DView_nwe0080"  d="M 8.86 -10.54 L 8.86 -10.74 " stroke="#191919" stroke-width="0.35 px" style="stroke-width:0.35;stroke-miterlimit:4;stroke-dasharray:none;fill:none;fill-opacity:1;fill-rule: evenodd"/>
<path id="Shape2DView_nwe0081"  d="M -12.3940820053 -16.84 L -12.3940820053 -16.94 " stroke="#191919" stroke-width="0.35 px" style="stroke-width:0.35;stroke-miterlimit:4;stroke-dasharray:none;fill:none;fill-opacity:1;fill-rule: evenodd"/>
<path id="Shape2DView_nwe0082"  d="M 1.314082005303 -16.84 L 1.314082005303 -16.94 " stroke="#191919" stroke-width="0.35 px" style="stroke-width:0.35;stroke-miterlimit:4;stroke-dasharray:none;fill:none;fill-opacity:1;fill-rule: evenodd"/>
<path id="Shape2DView_nwe0083"  d="M -19.94 -10.54 L -19.94 -8.54 " stroke="#191919" stroke-width="0.35 px" style="stroke-width:0.35;stroke-miterlimit:4;stroke-dasharray:none;fill:none;fill-opacity:1;fill-rule: evenodd"/>
<path id="Shape2DView_nwe0084"  d="M 8.86 -10.54 L 8.86 -8.54 " stroke="#191919" stroke-width="0.35 px" style="stroke-width:0.35;stroke-miterlimit:4;stroke-dasharray:none;fill:none;fill-opacity:1;fill-rule: evenodd"/>
<path id="Shape2DView_nwe0085"  d="M 5.96 -1.42 L 7.96 -1.42 " stroke="#191919" stroke-width="0.35 px" style="stroke-width:0.35;stroke-miterlimit:4;stroke-dasharray:none;fill:none;fill-opacity:1;fill-rule: evenodd"/>
<path id="Shape2DView_nwe0086"  d="M -19.04 -1.42 L -17.04 -1.42 " stroke="#191919" stroke-width="0.35 px" style="stroke-width:0.35;stroke-miterlimit:4;stroke-dasharray:none;fill:none;fill-opacity:1;fill-rule: evenodd"/>
<path id="Shape2DView_nwe0087"  d="M -19.94 -10.54 L -20.051964476103308 -10.54 L -20.162520933956316 -10.54 L -20.27027906195517 -10.54 L -20.37388373911756 -10.54 L -20.472032076515337 -10.54 L -20.563489801858736 -10.54 L -20.647106781186547 -10.54 L -20.72183148246803 -10.54 L -20.786724199228285 -10.54 L -20.840968867902422 -10.54 L -20.883883330308368 -10.54 L -20.914927912181824 -10.54 L -20.933712209893244 -10.54 L -20.94 -10.54 " stroke="#191919" stroke-width="0.35 px" style="stroke-width:0.35;stroke-miterlimit:4;stroke-dasharray:none;fill:none;fill-opacity:1;fill-rule: evenodd"/>
<path id="Shape2DView_nwe0088"  d="M 8.86 -10.54 L -19.94 -10.54 " stroke="#191919" stroke-width="0.35 px" style="stroke-width:0.35;stroke-miterlimit:4;stroke-dasharray:none;fill:none;fill-opacity:1;fill-rule: evenodd"/>
<path id="Shape2DView_nwe0089"  d="M 8.86 -10.54 L 8.971964476103308 -10.54 L 9.082520933956314 -10.54 L 9.190279061955167 -10.54 L 9.293883739117557 -10.54 L 9.392032076515337 -10.54 L 9.483489801858733 -10.54 L 9.567106781186547 -10.54 L 9.64183148246803 -10.54 L 9.706724199228283 -10.54 L 9.760968867902418 -10.54 L 9.803883330308366 -10.54 L 9.834927912181824 -10.54 L 9.853712209893242 -10.54 L 9.86 -10.54 " stroke="#191919" stroke-width="0.35 px" style="stroke-width:0.35;stroke-miterlimit:4;stroke-dasharray:none;fill:none;fill-opacity:1;fill-rule: evenodd"/>
<path id="Shape2DView_nwe0090"  d="M -13.49943192049 -11.44 L -13.49943192049 -16.590000000000003 " stroke="#191919" stroke-width="0.35 px" style="stroke-width:0.35;stroke-miterlimit:4;stroke-dasharray:none;fill:none;fill-opacity:1;fill-rule: evenodd"/>
<path id="Shape2DView_nwe0091"  d="M -13.49943192049 -11.44 Q -13.507179898166548 -11.372259618494658 -13.5149278758431 -11.30451923698931 Q -13.545431096044716 -11.225673246045575 -13.575934316246322 -11.14682725510183 Q -13.754673600853666 -10.851785780527216 -14.099431920490002 -10.840000000000002 " stroke="#191919" stroke-width="0.35 px" style="stroke-width:0.35;stroke-miterlimit:4;stroke-dasharray:none;fill:none;fill-opacity:1;fill-rule: evenodd"/>
<path id="Shape2DView_nwe0092"  d="M -13.449431920490023 -16.640000000000022 L -13.49943192049 -16.59 " stroke="#191919" stroke-width="0.35 px" style="stroke-width:0.35;stroke-miterlimit:4;stroke-dasharray:none;fill:none;fill-opacity:1;fill-rule: evenodd"/>
<path id="Shape2DView_nwe0093"  d="M 2.419431920499 -11.44 L 2.419431920499 -16.590000000000003 " stroke="#191919" stroke-width="0.35 px" style="stroke-width:0.35;stroke-miterlimit:4;stroke-dasharray:none;fill:none;fill-opacity:1;fill-rule: evenodd"/>
<path id="Shape2DView_nwe0094"  d="M 2.419431920499 -11.44 Q 2.42717989885702 -11.372259618652615 2.4349278772150402 -11.304519237305225 Q 2.4642878948438605 -11.227733516422097 2.4936479124726807 -11.150947795538972 Q 2.6717662792094687 -10.852129505490128 3.019431920499 -10.84 " stroke="#191919" stroke-width="0.35 px" style="stroke-width:0.35;stroke-miterlimit:4;stroke-dasharray:none;fill:none;fill-opacity:1;fill-rule: evenodd"/>
<path id="Shape2DView_nwe0095"  d="M 2.3694319204990224 -16.640000000000022 L 2.419431920499 -16.59 " stroke="#191919" stroke-width="0.35 px" style="stroke-width:0.35;stroke-miterlimit:4;stroke-dasharray:none;fill:none;fill-opacity:1;fill-rule: evenodd"/>
<path id="Shape2DView_nwe0096"  d="M -13.3940820053 -16.64 L -13.3940820053 -16.840000000000003 " stroke="#191919" stroke-width="0.35 px" style="stroke-width:0.35;stroke-miterlimit:4;stroke-dasharray:none;fill:none;fill-opacity:1;fill-rule: evenodd"/>
<path id="Shape2DView_nwe0097"  d="M 2.314082005303 -16.64 L 2.314082005303 -16.840000000000003 " stroke="#191919" stroke-width="0.35 px" style="stroke-width:0.35;stroke-miterlimit:4;stroke-dasharray:none;fill:none;fill-opacity:1;fill-rule: evenodd"/>
<path id="Shape2DView_nwe0098"  d="M -13.294082005300044 -16.940000000000044 L -13.3940820053 -16.84 " stroke="#191919" stroke-width="0.35 px" style="stroke-width:0.35;stroke-miterlimit:4;stroke-dasharray:none;fill:none;fill-opacity:1;fill-rule: evenodd"/>
<path id="Shape2DView_nwe0099"  d="M 2.2140820053030446 -16.940000000000044 L 2.314082005303 -16.84 " stroke="#191919" stroke-width="0.35 px" style="stroke-width:0.35;stroke-miterlimit:4;stroke-dasharray:none;fill:none;fill-opacity:1;fill-rule: evenodd"/>
<path id="Shape2DView_nwe0100"  d="M 4.96 -8.34 L 4.96 -8.54 " stroke="#191919" stroke-width="0.35 px" style="stroke-width:0.35;stroke-miterlimit:4;stroke-dasharray:none;fill:none;fill-opacity:1;fill-rule: evenodd"/>
<path id="Shape2DView_nwe0101"  d="M -20.04 -8.34 L -20.04 -8.54 " stroke="#191919" stroke-width="0.35 px" style="stroke-width:0.35;stroke-miterlimit:4;stroke-dasharray:none;fill:none;fill-opacity:1;fill-rule: evenodd"/>
<title>b'Shape2DView'</title>
</g>
<g id="Rectangle" transform="translate(21.248000,2.108000) scale(1,-1)">
<rect fill="#ff0000" id="origin" width="1" height="1" x="0" y="0" />
<title>b'Rectangle'</title>
</g>
</svg>