<?xml version="1.0"?>
<!DOCTYPE svg PUBLIC "-//W3C//DTD SVG 1.1//EN" "http://www.w3.org/Graphics/SVG/1.1/DTD/svg11.dtd">
<svg width="54.162mm" height="19.502000000000024mm" viewBox="0 0 54.162 19.502000000000024" xmlns="http://www.w3.org/2000/svg" version="1.1">
<g id="Shape2DView" transform="translate(10.461000,2.331000) scale(1,-1)">
<path id="Shape2DView_nwe0000"  d="M -1.669431920499 -16.64 L -1.7757981727971426 -16.64 L -1.8808268077574988 -16.64 L -1.9831970293564087 -16.64 L -2.08162147266068 -16.64 L -2.1748623931885698 -16.64 L -2.261747232264797 -16.64 L -2.34118336262622 -16.64 L -2.4121718288436282 -16.64 L -2.47381990976587 -16.64 L -2.525352345006298 -16.64 L -2.5661210842919493 -16.64 L -2.5956134370717323 -16.64 L -2.6134585198975806 -16.64 L -2.619431920499 -16.64 " stroke="#191919" stroke-width="0.35 px" style="stroke-width:0.35;stroke-miterlimit:4;stroke-dasharray:none;fill:none;fill-opacity:1;fill-rule: evenodd"/>
<path id="Shape2DView_nwe0001"  d="M 34.909431920499 -16.64 L -1.669431920499001 -16.64 " stroke="#191919" stroke-width="0.35 px" style="stroke-width:0.35;stroke-miterlimit:4;stroke-dasharray:none;fill:none;fill-opacity:1;fill-rule: evenodd"/>
<path id="Shape2DView_nwe0002"  d="M 35.859431920499006 -16.64 L 35.853458519897586 -16.64 L 35.835613437071736 -16.64 L 35.80612108429195 -16.64 L 35.7653523450063 -16.64 L 35.713819909765874 -16.64 L 35.652171828843635 -16.64 L 35.58118336262622 -16.64 L 35.5017472322648 -16.64 L 35.41486239318857 -16.64 L 35.32162147266068 -16.64 L 35.22319702935641 -16.64 L 35.1208268077575 -16.64 L 35.01579817279715 -16.64 L 34.909431920499 -16.64 " stroke="#191919" stroke-width="0.35 px" style="stroke-width:0.35;stroke-miterlimit:4;stroke-dasharray:none;fill:none;fill-opacity:1;fill-rule: evenodd"/>
<path id="Shape2DView_nwe0003"  d="M -1.669431920499 -16.59 L -1.7813963966023079 -16.59 L -1.8919528544553144 -16.59 L -1.999710982454167 -16.59 L -2.103315659616558 -16.59 L -2.2014639970143364 -16.59 L -2.2929217223577334 -16.59 L -2.3765387016855475 -16.59 L -2.4512634029670295 -16.59 L -2.516156119727284 -16.59 L -2.570400788401419 -16.59 L -2.6133152508073674 -16.59 L -2.6443598326808235 -16.59 L -2.6631441303922427 -16.59 L -2.669431920499 -16.59 " stroke="#191919" stroke-width="0.35 px" style="stroke-width:0.35;stroke-miterlimit:4;stroke-dasharray:none;fill:none;fill-opacity:1;fill-rule: evenodd"/>
<path id="Shape2DView_nwe0004"  d="M 34.909431920499 -16.59 L -1.669431920499001 -16.59 " stroke="#191919" stroke-width="0.35 px" style="stroke-width:0.35;stroke-miterlimit:4;stroke-dasharray:none;fill:none;fill-opacity:1;fill-rule: evenodd"/>
<path id="Shape2DView_nwe0005"  d="M 35.909431920499 -16.59 L 35.90314413039224 -16.59 L 35.88435983268083 -16.59 L 35.85331525080737 -16.59 L 35.810400788401424 -16.59 L 35.75615611972729 -16.59 L 35.69126340296703 -16.59 L 35.61653870168555 -16.59 L 35.532921722357734 -16.59 L 35.44146399701434 -16.59 L 35.343315659616565 -16.59 L 35.23971098245417 -16.59 L 35.13195285445532 -16.59 L 35.02139639660231 -16.59 L 34.909431920499 -16.59 " stroke="#191919" stroke-width="0.35 px" style="stroke-width:0.35;stroke-miterlimit:4;stroke-dasharray:none;fill:none;fill-opacity:1;fill-rule: evenodd"/>
<path id="Shape2DView_nwe0006"  d="M 42.17 -10.84 L -8.93 -10.84 " stroke="#191919" stroke-width="0.35 px" style="stroke-width:0.35;stroke-miterlimit:4;stroke-dasharray:none;fill:none;fill-opacity:1;fill-rule: evenodd"/>
<path id="Shape2DView_nwe0007"  d="M -8.93 -10.84 L -9.030768028492977 -10.84 L -9.130268840560683 -10.84 L -9.22725115575965 -10.84 L -9.320495365205803 -10.84 L -9.408828868863802 -10.84 L -9.49114082167286 -10.84 L -9.566396103067893 -10.84 L -9.633648334221226 -10.84 L -9.692051779305455 -10.84 L -9.740871981112177 -10.84 L -9.779494997277531 -10.84 L -9.80743512096364 -10.84 L -9.824340988903918 -10.84 L -9.83 -10.84 " stroke="#191919" stroke-width="0.35 px" style="stroke-width:0.35;stroke-miterlimit:4;stroke-dasharray:none;fill:none;fill-opacity:1;fill-rule: evenodd"/>
<path id="Shape2DView_nwe0008"  d="M 42.17 -10.84 L 42.27076802849298 -10.84 L 42.37026884056068 -10.84 L 42.467251155759655 -10.84 L 42.5604953652058 -10.84 L 42.6488288688638 -10.84 L 42.73114082167286 -10.84 L 42.8063961030679 -10.84 L 42.87364833422123 -10.84 L 42.93205177930546 -10.84 L 42.98087198111218 -10.84 L 43.01949499727753 -10.84 L 43.04743512096364 -10.84 L 43.06434098890392 -10.84 L 43.07 -10.84 " stroke="#191919" stroke-width="0.35 px" style="stroke-width:0.35;stroke-miterlimit:4;stroke-dasharray:none;fill:none;fill-opacity:1;fill-rule: evenodd"/>
<path id="Shape2DView_nwe0009"  d="M 43.07 -10.84 L 43.06434098890392 -10.84 L 43.04743512096364 -10.84 L 43.01949499727753 -10.84 L 42.98087198111218 -10.84 L 42.93205177930546 -10.84 L 42.87364833422123 -10.84 L 42.8063961030679 -10.84 L 42.73114082167286 -10.84 L 42.6488288688638 -10.84 L 42.5604953652058 -10.84 L 42.467251155759655 -10.84 L 42.37026884056068 -10.84 L 42.27076802849298 -10.84 L 42.17 -10.84 " stroke="#191919" stroke-width="0.35 px" style="stroke-width:0.35;stroke-miterlimit:4;stroke-dasharray:none;fill:none;fill-opacity:1;fill-rule: evenodd"/>
<path id="Shape2DView_nwe0010"  d="M 43.17 -10.74 A 0.1 0.1 0 0 0 43.07 -10.84" stroke="#191919" stroke-width="0.35 px" style="stroke-width:0.35;stroke-miterlimit:4;stroke-dasharray:none;fill:none;fill-opacity:1;fill-rule: evenodd"/>
<path id="Shape2DView_nwe0011"  d="M -9.93 -10.74 A 0.1 0.1 0 0 1 -9.83 -10.84" stroke="#191919" stroke-width="0.35 px" style="stroke-width:0.35;stroke-miterlimit:4;stroke-dasharray:none;fill:none;fill-opacity:1;fill-rule: evenodd"/>
<path id="Shape2DView_nwe0013"  d="M 43.17 -10.54 L 43.17 -10.74 " stroke="#191919" stroke-width="0.35 px" style="stroke-width:0.35;stroke-miterlimit:4;stroke-dasharray:none;fill:none;fill-opacity:1;fill-rule: evenodd"/>
<path id="Shape2DView_nwe0014"  d="M -9.93 -10.54 L -9.93 -10.74 " stroke="#191919" stroke-width="0.35 px" style="stroke-width:0.35;stroke-miterlimit:4;stroke-dasharray:none;fill:none;fill-opacity:1;fill-rule: evenodd"/>
<path id="Shape2DView_nwe0015"  d="M 37.67 -8.54 L 42.17 -8.54 " stroke="#191919" stroke-width="0.35 px" style="stroke-width:0.35;stroke-miterlimit:4;stroke-dasharray:none;fill:none;fill-opacity:1;fill-rule: evenodd"/>
<path id="Shape2DView_nwe0016"  d="M 37.67 1.8000000000000007 L 37.67 -8.54 " stroke="#191919" stroke-width="0.35 px" style="stroke-width:0.35;stroke-miterlimit:4;stroke-dasharray:none;fill:none;fill-opacity:1;fill-rule: evenodd"/>
<path id="Shape2DView_nwe0017"  d="M 37.67 1.8 L -4.43 1.8 " stroke="#191919" stroke-width="0.35 px" style="stroke-width:0.35;stroke-miterlimit:4;stroke-dasharray:none;fill:none;fill-opacity:1;fill-rule: evenodd"/>
<path id="Shape2DView_nwe0018"  d="M -4.43 -8.54 L -4.43 1.8000000000000007 " stroke="#191919" stroke-width="0.35 px" style="stroke-width:0.35;stroke-miterlimit:4;stroke-dasharray:none;fill:none;fill-opacity:1;fill-rule: evenodd"/>
<path id="Shape2DView_nwe0019"  d="M -8.93 -8.54 L -4.43 -8.54 " stroke="#191919" stroke-width="0.35 px" style="stroke-width:0.35;stroke-miterlimit:4;stroke-dasharray:none;fill:none;fill-opacity:1;fill-rule: evenodd"/>
<path id="Shape2DView_nwe0020"  d="M 43.17 -10.54 L 43.17 -8.54 " stroke="#191919" stroke-width="0.35 px" style="stroke-width:0.35;stroke-miterlimit:4;stroke-dasharray:none;fill:none;fill-opacity:1;fill-rule: evenodd"/>
<path id="Shape2DView_nwe0021"  d="M 42.17 -8.54 L 42.28196447610331 -8.54 L 42.39252093395632 -8.54 L 42.50027906195517 -8.54 L 42.60388373911756 -8.54 L 42.70203207651534 -8.54 L 42.79348980185873 -8.54 L 42.87710678118655 -8.54 L 42.95183148246803 -8.54 L 43.016724199228285 -8.54 L 43.07096886790242 -8.54 L 43.11388333030837 -8.54 L 43.14492791218183 -8.54 L 43.16371220989324 -8.54 L 43.17 -8.54 " stroke="#191919" stroke-width="0.35 px" style="stroke-width:0.35;stroke-miterlimit:4;stroke-dasharray:none;fill:none;fill-opacity:1;fill-rule: evenodd"/>
<path id="Shape2DView_nwe0022"  d="M -9.93 -8.54 L -9.923712209893242 -8.54 L -9.904927912181824 -8.54 L -9.873883330308367 -8.54 L -9.830968867902419 -8.54 L -9.776724199228283 -8.54 L -9.71183148246803 -8.54 L -9.637106781186548 -8.54 L -9.553489801858733 -8.54 L -9.462032076515337 -8.54 L -9.363883739117558 -8.54 L -9.260279061955167 -8.54 L -9.152520933956314 -8.54 L -9.041964476103308 -8.54 L -8.93 -8.54 " stroke="#191919" stroke-width="0.35 px" style="stroke-width:0.35;stroke-miterlimit:4;stroke-dasharray:none;fill:none;fill-opacity:1;fill-rule: evenodd"/>
<path id="Shape2DView_nwe0023"  d="M -9.93 -10.54 L -9.93 -8.54 " stroke="#191919" stroke-width="0.35 px" style="stroke-width:0.35;stroke-miterlimit:4;stroke-dasharray:none;fill:none;fill-opacity:1;fill-rule: evenodd"/>
<path id="Shape2DView_nwe0024"  d="M 43.17 -8.54 L 43.17 1.8000000000000007 " stroke="#191919" stroke-width="0.35 px" style="stroke-width:0.35;stroke-miterlimit:4;stroke-dasharray:none;fill:none;fill-opacity:1;fill-rule: evenodd"/>
<path id="Shape2DView_nwe0025"  d="M -9.93 1.8000000000000007 L -9.93 -8.54 " stroke="#191919" stroke-width="0.35 px" style="stroke-width:0.35;stroke-miterlimit:4;stroke-dasharray:none;fill:none;fill-opacity:1;fill-rule: evenodd"/>
<path id="Shape2DView_nwe0026"  d="M -4.93 -8.34 L -4.980144175636353 -8.34 L -5.128062264195162 -8.34 L -5.36633703506394 -8.34 L -5.683020396282533 -8.34 L -6.062232521764884 -8.34 L -6.484958132087371 -8.34 L -6.93 -8.34 L -7.375041867912628 -8.34 L -7.797767478235116 -8.34 L -8.176979603717466 -8.34 L -8.493662964936059 -8.34 L -8.731937735804838 -8.34 L -8.879855824363647 -8.34 L -8.93 -8.34 " stroke="#191919" stroke-width="0.35 px" style="stroke-width:0.35;stroke-miterlimit:4;stroke-dasharray:none;fill:none;fill-opacity:1;fill-rule: evenodd"/>
<path id="Shape2DView_nwe0027"  d="M 42.17 -8.34 L 42.11985582436365 -8.34 L 41.97193773580484 -8.34 L 41.73366296493606 -8.34 L 41.41697960371747 -8.34 L 41.03776747823512 -8.34 L 40.61504186791263 -8.34 L 40.17 -8.34 L 39.72495813208737 -8.34 L 39.302232521764886 -8.34 L 38.92302039628253 -8.34 L 38.606337035063945 -8.34 L 38.36806226419516 -8.34 L 38.22014417563636 -8.34 L 38.17 -8.34 " stroke="#191919" stroke-width="0.35 px" style="stroke-width:0.35;stroke-miterlimit:4;stroke-dasharray:none;fill:none;fill-opacity:1;fill-rule: evenodd"/>
<path id="Shape2DView_nwe0028"  d="M -9.93 1.8 L -4.43 1.8 " stroke="#191919" stroke-width="0.35 px" style="stroke-width:0.35;stroke-miterlimit:4;stroke-dasharray:none;fill:none;fill-opacity:1;fill-rule: evenodd"/>
<path id="Shape2DView_nwe0029"  d="M 37.67 1.8 L 43.17 1.8 " stroke="#191919" stroke-width="0.35 px" style="stroke-width:0.35;stroke-miterlimit:4;stroke-dasharray:none;fill:none;fill-opacity:1;fill-rule: evenodd"/>
<path id="Shape2DView_nwe0030"  d="M 38.57 -1.4200000000000002 A 1.6 1.6 0 0 0 41.77 -1.42" stroke="#191919" stroke-width="0.35 px" style="stroke-width:0.35;stroke-miterlimit:4;stroke-dasharray:none;fill:none;fill-opacity:1;fill-rule: evenodd"/>
<path id="Shape2DView_nwe0031"  d="M 38.57 -3.02 L 38.57 -1.42 " stroke="#191919" stroke-width="0.35 px" style="stroke-width:0.35;stroke-miterlimit:4;stroke-dasharray:none;fill:none;fill-opacity:1;fill-rule: evenodd"/>
<path id="Shape2DView_nwe0032"  d="M 39.17 -3.02 L 38.57 -3.02 " stroke="#191919" stroke-width="0.35 px" style="stroke-width:0.35;stroke-miterlimit:4;stroke-dasharray:none;fill:none;fill-opacity:1;fill-rule: evenodd"/>
<path id="Shape2DView_nwe0033"  d="M 41.77 -3.02 L 41.17 -3.02 " stroke="#191919" stroke-width="0.35 px" style="stroke-width:0.35;stroke-miterlimit:4;stroke-dasharray:none;fill:none;fill-opacity:1;fill-rule: evenodd"/>
<path id="Shape2DView_nwe0034"  d="M 41.77 -1.42 L 41.77 -3.02 " stroke="#191919" stroke-width="0.35 px" style="stroke-width:0.35;stroke-miterlimit:4;stroke-dasharray:none;fill:none;fill-opacity:1;fill-rule: evenodd"/>
<path id="Shape2DView_nwe0035"  d="M -5.33 -1.42 L -5.33 -3.02 " stroke="#191919" stroke-width="0.35 px" style="stroke-width:0.35;stroke-miterlimit:4;stroke-dasharray:none;fill:none;fill-opacity:1;fill-rule: evenodd"/>
<path id="Shape2DView_nwe0036"  d="M -8.53 -1.4200000000000002 A 1.6 1.6 0 0 0 -5.33 -1.42" stroke="#191919" stroke-width="0.35 px" style="stroke-width:0.35;stroke-miterlimit:4;stroke-dasharray:none;fill:none;fill-opacity:1;fill-rule: evenodd"/>
<path id="Shape2DView_nwe0037"  d="M -8.53 -3.02 L -8.53 -1.42 " stroke="#191919" stroke-width="0.35 px" style="stroke-width:0.35;stroke-miterlimit:4;stroke-dasharray:none;fill:none;fill-opacity:1;fill-rule: evenodd"/>
<path id="Shape2DView_nwe0038"  d="M -7.929999999999843 -4.268999599679805 A 1.6 1.6 0 0 0 -8.53 -3.02" stroke="#191919" stroke-width="0.35 px" style="stroke-width:0.35;stroke-miterlimit:4;stroke-dasharray:none;fill:none;fill-opacity:1;fill-rule: evenodd"/>
<path id="Shape2DView_nwe0039"  d="M -5.33 -3.02 A 1.6 1.6 0 0 0 -5.93 -4.269" stroke="#191919" stroke-width="0.35 px" style="stroke-width:0.35;stroke-miterlimit:4;stroke-dasharray:none;fill:none;fill-opacity:1;fill-rule: evenodd"/>
<path id="Shape2DView_nwe0040"  d="M -4.93 -8.54 L -4.93 -8.34 " stroke="#191919" stroke-width="0.35 px" style="stroke-width:0.35;stroke-miterlimit:4;stroke-dasharray:none;fill:none;fill-opacity:1;fill-rule: evenodd"/>
<path id="Shape2DView_nwe0041"  d="M -5.93 -1.3199999999999998 L -5.93 -1.3206287790106757 L -5.93 -1.3225072087818175 L -5.93 -1.325611666969163 L -5.93 -1.329903113209758 L -5.93 -1.3353275800771716 L -5.93 -1.341816851753197 L -5.93 -1.349289321881345 L -5.93 -1.3576510198141265 L -5.93 -1.3667967923484663 L -5.93 -1.3766116260882442 L -5.93 -1.3869720938044832 L -5.93 -1.3977479066043685 L -5.93 -1.4088035523896691 L -5.93 -1.42 " stroke="#191919" stroke-width="0.35 px" style="stroke-width:0.35;stroke-miterlimit:4;stroke-dasharray:none;fill:none;fill-opacity:1;fill-rule: evenodd"/>
<path id="Shape2DView_nwe0042"  d="M -5.93 -1.42 L -5.93 -8.24 " stroke="#191919" stroke-width="0.35 px" style="stroke-width:0.35;stroke-miterlimit:4;stroke-dasharray:none;fill:none;fill-opacity:1;fill-rule: evenodd"/>
<path id="Shape2DView_nwe0043"  d="M -5.93 -8.34 L -5.93 -8.24 " stroke="#191919" stroke-width="0.35 px" style="stroke-width:0.35;stroke-miterlimit:4;stroke-dasharray:none;fill:none;fill-opacity:1;fill-rule: evenodd"/>
<path id="Shape2DView_nwe0044"  d="M -7.93 -8.24 L -7.93 -8.34 " stroke="#191919" stroke-width="0.35 px" style="stroke-width:0.35;stroke-miterlimit:4;stroke-dasharray:none;fill:none;fill-opacity:1;fill-rule: evenodd"/>
<path id="Shape2DView_nwe0045"  d="M -5.93 -8.24 L -7.93 -8.24 " stroke="#191919" stroke-width="0.35 px" style="stroke-width:0.35;stroke-miterlimit:4;stroke-dasharray:none;fill:none;fill-opacity:1;fill-rule: evenodd"/>
<path id="Shape2DView_nwe0046"  d="M -7.93 -8.24 L -7.93 -1.42 " stroke="#191919" stroke-width="0.35 px" style="stroke-width:0.35;stroke-miterlimit:4;stroke-dasharray:none;fill:none;fill-opacity:1;fill-rule: evenodd"/>
<path id="Shape2DView_nwe0047"  d="M -7.93 -1.3199999999999998 L -7.93 -1.3206287790106757 L -7.93 -1.3225072087818175 L -7.93 -1.325611666969163 L -7.93 -1.329903113209758 L -7.93 -1.3353275800771716 L -7.93 -1.341816851753197 L -7.93 -1.349289321881345 L -7.93 -1.3576510198141265 L -7.93 -1.3667967923484663 L -7.93 -1.3766116260882442 L -7.93 -1.3869720938044832 L -7.93 -1.3977479066043685 L -7.93 -1.4088035523896691 L -7.93 -1.42 " stroke="#191919" stroke-width="0.35 px" style="stroke-width:0.35;stroke-miterlimit:4;stroke-dasharray:none;fill:none;fill-opacity:1;fill-rule: evenodd"/>
<path id="Shape2DView_nwe0048"  d="M 42.17 -8.54 L 42.17 -8.34 " stroke="#191919" stroke-width="0.35 px" style="stroke-width:0.35;stroke-miterlimit:4;stroke-dasharray:none;fill:none;fill-opacity:1;fill-rule: evenodd"/>
<path id="Shape2DView_nwe0049"  d="M 41.17 -1.3199999999999998 L 41.17 -1.3206287790106757 L 41.17 -1.3225072087818175 L 41.17 -1.325611666969163 L 41.17 -1.329903113209758 L 41.17 -1.3353275800771716 L 41.17 -1.341816851753197 L 41.17 -1.349289321881345 L 41.17 -1.3576510198141265 L 41.17 -1.3667967923484663 L 41.17 -1.3766116260882442 L 41.17 -1.3869720938044832 L 41.17 -1.3977479066043685 L 41.17 -1.4088035523896691 L 41.17 -1.42 " stroke="#191919" stroke-width="0.35 px" style="stroke-width:0.35;stroke-miterlimit:4;stroke-dasharray:none;fill:none;fill-opacity:1;fill-rule: evenodd"/>
<path id="Shape2DView_nwe0050"  d="M 41.17 -1.42 L 41.17 -8.24 " stroke="#191919" stroke-width="0.35 px" style="stroke-width:0.35;stroke-miterlimit:4;stroke-dasharray:none;fill:none;fill-opacity:1;fill-rule: evenodd"/>
<path id="Shape2DView_nwe0051"  d="M 41.17 -8.34 L 41.17 -8.24 " stroke="#191919" stroke-width="0.35 px" style="stroke-width:0.35;stroke-miterlimit:4;stroke-dasharray:none;fill:none;fill-opacity:1;fill-rule: evenodd"/>
<path id="Shape2DView_nwe0052"  d="M 39.17 -8.24 L 39.17 -8.34 " stroke="#191919" stroke-width="0.35 px" style="stroke-width:0.35;stroke-miterlimit:4;stroke-dasharray:none;fill:none;fill-opacity:1;fill-rule: evenodd"/>
<path id="Shape2DView_nwe0053"  d="M 41.17 -8.24 L 39.17 -8.24 " stroke="#191919" stroke-width="0.35 px" style="stroke-width:0.35;stroke-miterlimit:4;stroke-dasharray:none;fill:none;fill-opacity:1;fill-rule: evenodd"/>
<path id="Shape2DView_nwe0054"  d="M 39.17 -1.3199999999999998 L 39.17 -1.3206287790106757 L 39.17 -1.3225072087818175 L 39.17 -1.325611666969163 L 39.17 -1.329903113209758 L 39.17 -1.3353275800771716 L 39.17 -1.341816851753197 L 39.17 -1.349289321881345 L 39.17 -1.3576510198141265 L 39.17 -1.3667967923484663 L 39.17 -1.3766116260882442 L 39.17 -1.3869720938044832 L 39.17 -1.3977479066043685 L 39.17 -1.4088035523896691 L 39.17 -1.42 " stroke="#191919" stroke-width="0.35 px" style="stroke-width:0.35;stroke-miterlimit:4;stroke-dasharray:none;fill:none;fill-opacity:1;fill-rule: evenodd"/>
<path id="Shape2DView_nwe0055"  d="M 39.17 -8.24 L 39.17 -1.42 " stroke="#191919" stroke-width="0.35 px" style="stroke-width:0.35;stroke-miterlimit:4;stroke-dasharray:none;fill:none;fill-opacity:1;fill-rule: evenodd"/>
<path id="Shape2DView_nwe0056"  d="M -7.93 -1.32 L -5.93 -1.32 " stroke="#191919" stroke-width="0.35 px" style="stroke-width:0.35;stroke-miterlimit:4;stroke-dasharray:none;fill:none;fill-opacity:1;fill-rule: evenodd"/>
<path id="Shape2DView_nwe0057"  d="M 39.17 -1.32 L 41.17 -1.32 " stroke="#191919" stroke-width="0.35 px" style="stroke-width:0.35;stroke-miterlimit:4;stroke-dasharray:none;fill:none;fill-opacity:1;fill-rule: evenodd"/>
<path id="Shape2DView_nwe0058"  d="M -1.669431920499 -16.64 L -1.669431920499 -16.59 " stroke="#191919" stroke-width="0.35 px" style="stroke-width:0.35;stroke-miterlimit:4;stroke-dasharray:none;fill:none;fill-opacity:1;fill-rule: evenodd"/>
<path id="Shape2DView_nwe0059"  d="M 34.909431920499 -16.64 L 34.909431920499 -16.59 " stroke="#191919" stroke-width="0.35 px" style="stroke-width:0.35;stroke-miterlimit:4;stroke-dasharray:none;fill:none;fill-opacity:1;fill-rule: evenodd"/>
<path id="Shape2DView_nwe0060"  d="M -1.669431920499 -11.44 L -1.669431920499 -16.59 " stroke="#191919" stroke-width="0.35 px" style="stroke-width:0.35;stroke-miterlimit:4;stroke-dasharray:none;fill:none;fill-opacity:1;fill-rule: evenodd"/>
<path id="Shape2DView_nwe0061"  d="M -2.669431920499 -11.44 L -2.6631441303922427 -11.44 L -2.6443598326808235 -11.44 L -2.6133152508073674 -11.44 L -2.570400788401419 -11.44 L -2.5161561197272837 -11.44 L -2.4512634029670295 -11.44 L -2.376538701685547 -11.44 L -2.2929217223577334 -11.44 L -2.2014639970143364 -11.44 L -2.1033156596165576 -11.44 L -1.9997109824541668 -11.44 L -1.891952854455314 -11.44 L -1.7813963966023074 -11.44 L -1.669431920499 -11.44 " stroke="#191919" stroke-width="0.35 px" style="stroke-width:0.35;stroke-miterlimit:4;stroke-dasharray:none;fill:none;fill-opacity:1;fill-rule: evenodd"/>
<path id="Shape2DView_nwe0062"  d="M 34.909431920499 -11.44 L 34.909431920499 -16.59 " stroke="#191919" stroke-width="0.35 px" style="stroke-width:0.35;stroke-miterlimit:4;stroke-dasharray:none;fill:none;fill-opacity:1;fill-rule: evenodd"/>
<path id="Shape2DView_nwe0063"  d="M -1.669431920499 -11.44 L 34.909431920499 -11.44 " stroke="#191919" stroke-width="0.35 px" style="stroke-width:0.35;stroke-miterlimit:4;stroke-dasharray:none;fill:none;fill-opacity:1;fill-rule: evenodd"/>
<path id="Shape2DView_nwe0064"  d="M 34.909431920499 -11.44 L 35.02139639660231 -11.44 L 35.13195285445532 -11.44 L 35.23971098245417 -11.44 L 35.343315659616565 -11.44 L 35.44146399701434 -11.44 L 35.532921722357734 -11.44 L 35.61653870168555 -11.44 L 35.69126340296703 -11.44 L 35.75615611972729 -11.44 L 35.810400788401424 -11.44 L 35.85331525080737 -11.44 L 35.88435983268083 -11.44 L 35.90314413039224 -11.44 L 35.909431920499 -11.44 " stroke="#191919" stroke-width="0.35 px" style="stroke-width:0.35;stroke-miterlimit:4;stroke-dasharray:none;fill:none;fill-opacity:1;fill-rule: evenodd"/>
<path id="Shape2DView_nwe0065"  d="M -1.669431920499 -11.44 L -1.669431920499 -11.372821314338015 L -1.669431920499 -11.306487439626212 L -1.669431920499 -11.2418325628269 L -1.669431920499 -11.179669756529465 L -1.669431920499 -11.120780754090799 L -1.669431920499 -11.06590611888476 L -1.669431920499 -11.015735931288072 L -1.669431920499 -10.970901110519181 L -1.669431920499 -10.93196548046303 L -1.669431920499 -10.899418679258549 L -1.669431920499 -10.873670001814979 L -1.669431920499 -10.855043252690905 L -1.669431920499 -10.843772674064054 L -1.669431920499 -10.84 " stroke="#191919" stroke-width="0.35 px" style="stroke-width:0.35;stroke-miterlimit:4;stroke-dasharray:none;fill:none;fill-opacity:1;fill-rule: evenodd"/>
<path id="Shape2DView_nwe0066"  d="M 34.909431920499 -11.44 L 34.909431920499 -11.372821314338015 L 34.909431920499 -11.306487439626212 L 34.909431920499 -11.2418325628269 L 34.909431920499 -11.179669756529465 L 34.909431920499 -11.120780754090797 L 34.909431920499 -11.06590611888476 L 34.909431920499 -11.015735931288072 L 34.909431920499 -10.970901110519181 L 34.909431920499 -10.93196548046303 L 34.909431920499 -10.899418679258549 L 34.909431920499 -10.873670001814979 L 34.909431920499 -10.855043252690905 L 34.909431920499 -10.843772674064054 L 34.909431920499 -10.84 " stroke="#191919" stroke-width="0.35 px" style="stroke-width:0.35;stroke-miterlimit:4;stroke-dasharray:none;fill:none;fill-opacity:1;fill-rule: evenodd"/>
<path id="Shape2DView_nwe0067"  d="M 42.17 -10.74 L -8.93 -10.74 " stroke="#191919" stroke-width="0.35 px" style="stroke-width:0.35;stroke-miterlimit:4;stroke-dasharray:none;fill:none;fill-opacity:1;fill-rule: evenodd"/>
<path id="Shape2DView_nwe0068"  d="M -8.93 -10.74 L -8.93 -10.751196447610331 L -8.93 -10.762252093395631 L -8.93 -10.773027906195518 L -8.93 -10.783388373911755 L -8.93 -10.793203207651533 L -8.93 -10.802348980185874 L -8.93 -10.810710678118655 L -8.93 -10.818183148246803 L -8.93 -10.824672419922829 L -8.93 -10.830096886790242 L -8.93 -10.834388333030837 L -8.93 -10.837492791218182 L -8.93 -10.839371220989324 L -8.93 -10.84 " stroke="#191919" stroke-width="0.35 px" style="stroke-width:0.35;stroke-miterlimit:4;stroke-dasharray:none;fill:none;fill-opacity:1;fill-rule: evenodd"/>
<path id="Shape2DView_nwe0069"  d="M 42.17 -10.74 L 42.17 -10.751196447610331 L 42.17 -10.762252093395631 L 42.17 -10.773027906195518 L 42.17 -10.783388373911755 L 42.17 -10.793203207651533 L 42.17 -10.802348980185874 L 42.17 -10.810710678118655 L 42.17 -10.818183148246803 L 42.17 -10.824672419922829 L 42.17 -10.830096886790242 L 42.17 -10.834388333030837 L 42.17 -10.837492791218182 L 42.17 -10.839371220989324 L 42.17 -10.84 " stroke="#191919" stroke-width="0.35 px" style="stroke-width:0.35;stroke-miterlimit:4;stroke-dasharray:none;fill:none;fill-opacity:1;fill-rule: evenodd"/>
<path id="Shape2DView_nwe0070"  d="M 43.17 -10.74 L 43.16371220989324 -10.74 L 43.14492791218183 -10.74 L 43.11388333030837 -10.74 L 43.07096886790242 -10.74 L 43.016724199228285 -10.74 L 42.95183148246803 -10.74 L 42.87710678118655 -10.74 L 42.79348980185873 -10.74 L 42.70203207651534 -10.74 L 42.60388373911756 -10.74 L 42.50027906195517 -10.74 L 42.39252093395632 -10.74 L 42.28196447610331 -10.74 L 42.17 -10.74 " stroke="#191919" stroke-width="0.35 px" style="stroke-width:0.35;stroke-miterlimit:4;stroke-dasharray:none;fill:none;fill-opacity:1;fill-rule: evenodd"/>
<path id="Shape2DView_nwe0071"  d="M -8.93 -10.74 L -9.041964476103308 -10.74 L -9.152520933956314 -10.74 L -9.260279061955167 -10.74 L -9.363883739117558 -10.74 L -9.462032076515337 -10.74 L -9.553489801858733 -10.74 L -9.637106781186548 -10.74 L -9.71183148246803 -10.74 L -9.776724199228283 -10.74 L -9.830968867902419 -10.74 L -9.873883330308367 -10.74 L -9.904927912181824 -10.74 L -9.923712209893242 -10.74 L -9.93 -10.74 " stroke="#191919" stroke-width="0.35 px" style="stroke-width:0.35;stroke-miterlimit:4;stroke-dasharray:none;fill:none;fill-opacity:1;fill-rule: evenodd"/>
<path id="Shape2DView_nwe0073"  d="M -8.93 -10.54 L -8.93 -10.74 " stroke="#191919" stroke-width="0.35 px" style="stroke-width:0.35;stroke-miterlimit:4;stroke-dasharray:none;fill:none;fill-opacity:1;fill-rule: evenodd"/>
<path id="Shape2DView_nwe0074"  d="M 42.17 -10.54 L 42.17 -10.74 " stroke="#191919" stroke-width="0.35 px" style="stroke-width:0.35;stroke-miterlimit:4;stroke-dasharray:none;fill:none;fill-opacity:1;fill-rule: evenodd"/>
<path id="Shape2DView_nwe0075"  d="M 42.17 -10.54 L 42.17 -8.54 " stroke="#191919" stroke-width="0.35 px" style="stroke-width:0.35;stroke-miterlimit:4;stroke-dasharray:none;fill:none;fill-opacity:1;fill-rule: evenodd"/>
<path id="Shape2DView_nwe0076"  d="M -8.93 -10.54 L -8.93 -8.54 " stroke="#191919" stroke-width="0.35 px" style="stroke-width:0.35;stroke-miterlimit:4;stroke-dasharray:none;fill:none;fill-opacity:1;fill-rule: evenodd"/>
<path id="Shape2DView_nwe0077"  d="M -7.93 -1.42 L -5.93 -1.42 " stroke="#191919" stroke-width="0.35 px" style="stroke-width:0.35;stroke-miterlimit:4;stroke-dasharray:none;fill:none;fill-opacity:1;fill-rule: evenodd"/>
<path id="Shape2DView_nwe0078"  d="M 39.17 -1.42 L 41.17 -1.42 " stroke="#191919" stroke-width="0.35 px" style="stroke-width:0.35;stroke-miterlimit:4;stroke-dasharray:none;fill:none;fill-opacity:1;fill-rule: evenodd"/>
<path id="Shape2DView_nwe0079"  d="M 42.17 -10.54 L -8.93 -10.54 " stroke="#191919" stroke-width="0.35 px" style="stroke-width:0.35;stroke-miterlimit:4;stroke-dasharray:none;fill:none;fill-opacity:1;fill-rule: evenodd"/>
<path id="Shape2DView_nwe0080"  d="M 42.17 -10.54 L 42.28196447610331 -10.54 L 42.39252093395632 -10.54 L 42.50027906195517 -10.54 L 42.60388373911756 -10.54 L 42.70203207651534 -10.54 L 42.79348980185873 -10.54 L 42.87710678118655 -10.54 L 42.95183148246803 -10.54 L 43.016724199228285 -10.54 L 43.07096886790242 -10.54 L 43.11388333030837 -10.54 L 43.14492791218183 -10.54 L 43.16371220989324 -10.54 L 43.17 -10.54 " stroke="#191919" stroke-width="0.35 px" style="stroke-width:0.35;stroke-miterlimit:4;stroke-dasharray:none;fill:none;fill-opacity:1;fill-rule: evenodd"/>
<path id="Shape2DView_nwe0081"  d="M -8.93 -10.54 L -9.041964476103308 -10.54 L -9.152520933956314 -10.54 L -9.260279061955167 -10.54 L -9.363883739117558 -10.54 L -9.462032076515337 -10.54 L -9.553489801858733 -10.54 L -9.637106781186548 -10.54 L -9.71183148246803 -10.54 L -9.776724199228283 -10.54 L -9.830968867902419 -10.54 L -9.873883330308367 -10.54 L -9.904927912181824 -10.54 L -9.923712209893242 -10.54 L -9.93 -10.54 " stroke="#191919" stroke-width="0.35 px" style="stroke-width:0.35;stroke-miterlimit:4;stroke-dasharray:none;fill:none;fill-opacity:1;fill-rule: evenodd"/>
<path id="Shape2DView_nwe0082"  d="M -2.6194319204990224 -16.640000000000022 L -2.669431920499 -16.59 " stroke="#191919" stroke-width="0.35 px" style="stroke-width:0.35;stroke-miterlimit:4;stroke-dasharray:none;fill:none;fill-opacity:1;fill-rule: evenodd"/>
<path id="Shape2DView_nwe0083"  d="M 35.85943192049902 -16.640000000000025 L 35.909431920499 -16.59 " stroke="#191919" stroke-width="0.35 px" style="stroke-width:0.35;stroke-miterlimit:4;stroke-dasharray:none;fill:none;fill-opacity:1;fill-rule: evenodd"/>
<path id="Shape2DView_nwe0084"  d="M -2.669431920499 -11.44 L -2.669431920499 -16.590000000000003 " stroke="#191919" stroke-width="0.35 px" style="stroke-width:0.35;stroke-miterlimit:4;stroke-dasharray:none;fill:none;fill-opacity:1;fill-rule: evenodd"/>
<path id="Shape2DView_nwe0085"  d="M 35.909431920499 -11.44 L 35.909431920499 -16.590000000000003 " stroke="#191919" stroke-width="0.35 px" style="stroke-width:0.35;stroke-miterlimit:4;stroke-dasharray:none;fill:none;fill-opacity:1;fill-rule: evenodd"/>
<path id="Shape2DView_nwe0086"  d="M -2.669431920499 -11.44 Q -2.677179898175548 -11.372259618494656 -2.684927875852095 -11.304519236989309 Q -2.715431096053708 -11.22567324604557 -2.7459343162553207 -11.14682725510183 Q -2.924673600862664 -10.851785780527216 -3.269431920499 -10.840000000000002 " stroke="#191919" stroke-width="0.35 px" style="stroke-width:0.35;stroke-miterlimit:4;stroke-dasharray:none;fill:none;fill-opacity:1;fill-rule: evenodd"/>
<path id="Shape2DView_nwe0087"  d="M 35.909431920499 -11.44 Q 35.91717989817554 -11.372259618494658 35.924927875852106 -11.30451923698931 Q 35.95543109605372 -11.225673246045575 35.985934316255324 -11.146827255101828 Q 36.164673600862656 -10.851785780527216 36.509431920499004 -10.84 " stroke="#191919" stroke-width="0.35 px" style="stroke-width:0.35;stroke-miterlimit:4;stroke-dasharray:none;fill:none;fill-opacity:1;fill-rule: evenodd"/>
<path id="Shape2DView_nwe0088"  d="M -8.93 -8.34 L -8.93 -8.54 " stroke="#191919" stroke-width="0.35 px" style="stroke-width:0.35;stroke-miterlimit:4;stroke-dasharray:none;fill:none;fill-opacity:1;fill-rule: evenodd"/>
<path id="Shape2DView_nwe0089"  d="M 38.17 -8.34 L 38.17 -8.54 " stroke="#191919" stroke-width="0.35 px" style="stroke-width:0.35;stroke-miterlimit:4;stroke-dasharray:none;fill:none;fill-opacity:1;fill-rule: evenodd"/>
<title>b'Shape2DView'</title>
</g>
<g id="Rectangle" transform="translate(10.461000,2.331000) scale(1,-1)">
<rect fill="#ff0000" id="origin" width="1" height="1" x="0" y="0" />
<title>b'Rectangle'</title>
</g>
</svg>