<?xml version="1.0"?>
<!DOCTYPE svg PUBLIC "-//W3C//DTD SVG 1.1//EN" "http://www.w3.org/Graphics/SVG/1.1/DTD/svg11.dtd">
<svg width="54.162mm" height="21.352000000000046mm" viewBox="0 0 54.162 21.352000000000046" xmlns="http://www.w3.org/2000/svg" version="1.1">
<g id="Shape2DView" transform="translate(42.538500,2.111000) scale(1,-1)">
<path id="Shape2DView_nwe0000"  d="M -33.46007768744 -18.36 L -33.57204216354331 -18.36 L -33.682598621396316 -18.36 L -33.790356749395166 -18.36 L -33.89396142655756 -18.36 L -33.992109763955334 -18.36 L -34.08356748929873 -18.36 L -34.167184468626544 -18.36 L -34.24190916990803 -18.36 L -34.30680188666828 -18.36 L -34.36104655534242 -18.36 L -34.403961017748365 -18.36 L -34.435005599621825 -18.36 L -34.45378989733324 -18.36 L -34.46007768744 -18.36 " stroke="#191919" stroke-width="0.35 px" style="stroke-width:0.35;stroke-miterlimit:4;stroke-dasharray:none;fill:none;fill-opacity:1;fill-rule: evenodd"/>
<path id="Shape2DView_nwe0001"  d="M -33.46007768744 -18.41 L -33.56644393973814 -18.41 L -33.6714725746985 -18.41 L -33.77384279629741 -18.41 L -33.872267239601676 -18.41 L -33.965508160129566 -18.41 L -34.05239299920579 -18.41 L -34.131829129567215 -18.41 L -34.20281759578462 -18.41 L -34.26446567670687 -18.41 L -34.315998111947295 -18.41 L -34.35676685123295 -18.41 L -34.38625920401273 -18.41 L -34.40410428683858 -18.41 L -34.41007768744 -18.41 " stroke="#191919" stroke-width="0.35 px" style="stroke-width:0.35;stroke-miterlimit:4;stroke-dasharray:none;fill:none;fill-opacity:1;fill-rule: evenodd"/>
<path id="Shape2DView_nwe0002"  d="M 2.545077687448 -18.41 L -33.46007768744 -18.41 " stroke="#191919" stroke-width="0.35 px" style="stroke-width:0.35;stroke-miterlimit:4;stroke-dasharray:none;fill:none;fill-opacity:1;fill-rule: evenodd"/>
<path id="Shape2DView_nwe0003"  d="M 2.545077687448 -18.36 L -33.46007768744 -18.36 " stroke="#191919" stroke-width="0.35 px" style="stroke-width:0.35;stroke-miterlimit:4;stroke-dasharray:none;fill:none;fill-opacity:1;fill-rule: evenodd"/>
<path id="Shape2DView_nwe0004"  d="M 3.495077687448 -18.41 L 3.4891042868465805 -18.41 L 3.4712592040207326 -18.41 L 3.441766851240949 -18.41 L 3.4009981119552983 -18.41 L 3.3494656767148703 -18.41 L 3.2878175957926286 -18.41 L 3.2168291295752205 -18.41 L 3.137392999213797 -18.41 L 3.0505081601375696 -18.41 L 2.9572672396096804 -18.41 L 2.858842796305409 -18.41 L 2.756472574706499 -18.41 L 2.6514439397461427 -18.41 L 2.545077687448 -18.41 " stroke="#191919" stroke-width="0.35 px" style="stroke-width:0.35;stroke-miterlimit:4;stroke-dasharray:none;fill:none;fill-opacity:1;fill-rule: evenodd"/>
<path id="Shape2DView_nwe0005"  d="M 3.545077687448 -18.36 L 3.5387898973412426 -18.36 L 3.5200055996298234 -18.36 L 3.4889610177563677 -18.36 L 3.446046555350419 -18.36 L 3.3918018866762845 -18.36 L 3.3269091699160303 -18.36 L 3.252184468634548 -18.36 L 3.1685674893067337 -18.36 L 3.0771097639633367 -18.36 L 2.9789614265655584 -18.36 L 2.875356749403167 -18.36 L 2.7675986214043147 -18.36 L 2.657042163551308 -18.36 L 2.545077687448 -18.36 " stroke="#191919" stroke-width="0.35 px" style="stroke-width:0.35;stroke-miterlimit:4;stroke-dasharray:none;fill:none;fill-opacity:1;fill-rule: evenodd"/>
<path id="Shape2DView_nwe0006"  d="M -34.35620034771 -18.61 L -34.34991255760325 -18.61 L -34.33112825989183 -18.61 L -34.30008367801837 -18.61 L -34.25716921561242 -18.61 L -34.202924546938284 -18.61 L -34.13803183017803 -18.61 L -34.06330712889655 -18.61 L -33.97969014956873 -18.61 L -33.888232424225336 -18.61 L -33.79008408682756 -18.61 L -33.68647940966517 -18.61 L -33.57872128166632 -18.61 L -33.46816482381331 -18.61 L -33.35620034771 -18.61 " stroke="#191919" stroke-width="0.35 px" style="stroke-width:0.35;stroke-miterlimit:4;stroke-dasharray:none;fill:none;fill-opacity:1;fill-rule: evenodd"/>
<path id="Shape2DView_nwe0007"  d="M -33.35620034771 -18.61 L 2.4412003477159985 -18.61 " stroke="#191919" stroke-width="0.35 px" style="stroke-width:0.35;stroke-miterlimit:4;stroke-dasharray:none;fill:none;fill-opacity:1;fill-rule: evenodd"/>
<path id="Shape2DView_nwe0008"  d="M 2.441200347716 -18.61 L 2.5531648238193076 -18.61 L 2.663721281672314 -18.61 L 2.7714794096711666 -18.61 L 2.875084086833558 -18.61 L 2.973232424231336 -18.61 L 3.064690149574733 -18.61 L 3.1483071289025473 -18.61 L 3.2230318301840297 -18.61 L 3.287924546944284 -18.61 L 3.342169215618419 -18.61 L 3.385083678024367 -18.61 L 3.4161282598978233 -18.61 L 3.4349125576092425 -18.61 L 3.441200347716 -18.61 " stroke="#191919" stroke-width="0.35 px" style="stroke-width:0.35;stroke-miterlimit:4;stroke-dasharray:none;fill:none;fill-opacity:1;fill-rule: evenodd"/>
<path id="Shape2DView_nwe0009"  d="M -34.25620034771 -18.71 L -34.25054133661392 -18.71 L -34.23363546867364 -18.71 L -34.20569534498753 -18.71 L -34.16707232882218 -18.71 L -34.11825212701546 -18.71 L -34.05984868193123 -18.71 L -33.992596450777896 -18.71 L -33.91734116938286 -18.71 L -33.8350292165738 -18.71 L -33.7466957129158 -18.71 L -33.653451503469654 -18.71 L -33.55646918827068 -18.71 L -33.45696837620298 -18.71 L -33.35620034771 -18.71 " stroke="#191919" stroke-width="0.35 px" style="stroke-width:0.35;stroke-miterlimit:4;stroke-dasharray:none;fill:none;fill-opacity:1;fill-rule: evenodd"/>
<path id="Shape2DView_nwe0010"  d="M -33.35620034771 -18.71 L 2.4412003477159985 -18.71 " stroke="#191919" stroke-width="0.35 px" style="stroke-width:0.35;stroke-miterlimit:4;stroke-dasharray:none;fill:none;fill-opacity:1;fill-rule: evenodd"/>
<path id="Shape2DView_nwe0011"  d="M 2.441200347716 -18.71 L 2.541968376208977 -18.71 L 2.641469188276683 -18.71 L 2.73845150347565 -18.71 L 2.8316957129218023 -18.71 L 2.920029216579803 -18.71 L 3.00234116938886 -18.71 L 3.0775964507838927 -18.71 L 3.1448486819372268 -18.71 L 3.2032521270214556 -18.71 L 3.252072328828177 -18.71 L 3.2906953449935306 -18.71 L 3.3186354686796413 -18.71 L 3.3355413366199183 -18.71 L 3.3412003477159997 -18.71 " stroke="#191919" stroke-width="0.35 px" style="stroke-width:0.35;stroke-miterlimit:4;stroke-dasharray:none;fill:none;fill-opacity:1;fill-rule: evenodd"/>
<path id="Shape2DView_nwe0012"  d="M -41.0075 -12.61 L -41.10826802849298 -12.61 L -41.20776884056068 -12.61 L -41.304751155759654 -12.61 L -41.3979953652058 -12.61 L -41.4863288688638 -12.61 L -41.56864082167286 -12.61 L -41.643896103067895 -12.61 L -41.71114833422123 -12.61 L -41.76955177930546 -12.61 L -41.81837198111218 -12.61 L -41.85699499727753 -12.61 L -41.88493512096364 -12.61 L -41.90184098890392 -12.61 L -41.9075 -12.61 " stroke="#191919" stroke-width="0.35 px" style="stroke-width:0.35;stroke-miterlimit:4;stroke-dasharray:none;fill:none;fill-opacity:1;fill-rule: evenodd"/>
<path id="Shape2DView_nwe0013"  d="M -41.9075 -12.61 L -41.90184098890392 -12.61 L -41.88493512096364 -12.61 L -41.85699499727753 -12.61 L -41.81837198111218 -12.61 L -41.76955177930546 -12.61 L -41.71114833422123 -12.61 L -41.643896103067895 -12.61 L -41.56864082167286 -12.61 L -41.4863288688638 -12.61 L -41.3979953652058 -12.61 L -41.304751155759654 -12.61 L -41.20776884056068 -12.61 L -41.10826802849298 -12.61 L -41.0075 -12.61 " stroke="#191919" stroke-width="0.35 px" style="stroke-width:0.35;stroke-miterlimit:4;stroke-dasharray:none;fill:none;fill-opacity:1;fill-rule: evenodd"/>
<path id="Shape2DView_nwe0014"  d="M 10.9925 -12.61 L 10.986840988903918 -12.61 L 10.96993512096364 -12.61 L 10.941994997277531 -12.61 L 10.903371981112176 -12.61 L 10.854551779305455 -12.61 L 10.796148334221225 -12.61 L 10.728896103067893 -12.61 L 10.653640821672859 -12.61 L 10.571328868863802 -12.61 L 10.482995365205802 -12.61 L 10.38975115575965 -12.61 L 10.292768840560683 -12.61 L 10.193268028492977 -12.61 L 10.0925 -12.61 " stroke="#191919" stroke-width="0.35 px" style="stroke-width:0.35;stroke-miterlimit:4;stroke-dasharray:none;fill:none;fill-opacity:1;fill-rule: evenodd"/>
<path id="Shape2DView_nwe0015"  d="M 10.0925 -12.61 L -41.0075 -12.61 " stroke="#191919" stroke-width="0.35 px" style="stroke-width:0.35;stroke-miterlimit:4;stroke-dasharray:none;fill:none;fill-opacity:1;fill-rule: evenodd"/>
<path id="Shape2DView_nwe0016"  d="M -42.0075 -12.51 A 0.1 0.1 0 0 1 -41.9075 -12.61" stroke="#191919" stroke-width="0.35 px" style="stroke-width:0.35;stroke-miterlimit:4;stroke-dasharray:none;fill:none;fill-opacity:1;fill-rule: evenodd"/>
<path id="Shape2DView_nwe0017"  d="M 11.0925 -12.51 A 0.1 0.1 0 0 0 10.9925 -12.61" stroke="#191919" stroke-width="0.35 px" style="stroke-width:0.35;stroke-miterlimit:4;stroke-dasharray:none;fill:none;fill-opacity:1;fill-rule: evenodd"/>
<path id="Shape2DView_nwe0019"  d="M -42.0075 -12.31 L -42.0075 -12.51 " stroke="#191919" stroke-width="0.35 px" style="stroke-width:0.35;stroke-miterlimit:4;stroke-dasharray:none;fill:none;fill-opacity:1;fill-rule: evenodd"/>
<path id="Shape2DView_nwe0020"  d="M 11.0925 -12.31 L 11.0925 -12.51 " stroke="#191919" stroke-width="0.35 px" style="stroke-width:0.35;stroke-miterlimit:4;stroke-dasharray:none;fill:none;fill-opacity:1;fill-rule: evenodd"/>
<path id="Shape2DView_nwe0021"  d="M -42.0075 -10.31 L -42.00121220989324 -10.31 L -41.98242791218183 -10.31 L -41.95138333030837 -10.31 L -41.90846886790242 -10.31 L -41.854224199228284 -10.31 L -41.78933148246803 -10.31 L -41.714606781186546 -10.31 L -41.63098980185873 -10.31 L -41.539532076515336 -10.31 L -41.44138373911756 -10.31 L -41.33777906195517 -10.31 L -41.23002093395632 -10.31 L -41.11946447610331 -10.31 L -41.0075 -10.31 " stroke="#191919" stroke-width="0.35 px" style="stroke-width:0.35;stroke-miterlimit:4;stroke-dasharray:none;fill:none;fill-opacity:1;fill-rule: evenodd"/>
<path id="Shape2DView_nwe0022"  d="M -42.0075 -12.31 L -42.0075 -10.31 " stroke="#191919" stroke-width="0.35 px" style="stroke-width:0.35;stroke-miterlimit:4;stroke-dasharray:none;fill:none;fill-opacity:1;fill-rule: evenodd"/>
<path id="Shape2DView_nwe0023"  d="M 5.5925 -10.31 L 10.0925 -10.31 " stroke="#191919" stroke-width="0.35 px" style="stroke-width:0.35;stroke-miterlimit:4;stroke-dasharray:none;fill:none;fill-opacity:1;fill-rule: evenodd"/>
<path id="Shape2DView_nwe0024"  d="M 5.5925 1.58 L 5.5925 -10.31 " stroke="#191919" stroke-width="0.35 px" style="stroke-width:0.35;stroke-miterlimit:4;stroke-dasharray:none;fill:none;fill-opacity:1;fill-rule: evenodd"/>
<path id="Shape2DView_nwe0025"  d="M 5.5925 1.58 L -36.5075 1.58 " stroke="#191919" stroke-width="0.35 px" style="stroke-width:0.35;stroke-miterlimit:4;stroke-dasharray:none;fill:none;fill-opacity:1;fill-rule: evenodd"/>
<path id="Shape2DView_nwe0026"  d="M -36.5075 -10.31 L -36.5075 1.58 " stroke="#191919" stroke-width="0.35 px" style="stroke-width:0.35;stroke-miterlimit:4;stroke-dasharray:none;fill:none;fill-opacity:1;fill-rule: evenodd"/>
<path id="Shape2DView_nwe0027"  d="M -41.0075 -10.31 L -36.5075 -10.31 " stroke="#191919" stroke-width="0.35 px" style="stroke-width:0.35;stroke-miterlimit:4;stroke-dasharray:none;fill:none;fill-opacity:1;fill-rule: evenodd"/>
<path id="Shape2DView_nwe0028"  d="M -42.0075 1.58 L -42.0075 -10.31 " stroke="#191919" stroke-width="0.35 px" style="stroke-width:0.35;stroke-miterlimit:4;stroke-dasharray:none;fill:none;fill-opacity:1;fill-rule: evenodd"/>
<path id="Shape2DView_nwe0029"  d="M 11.0925 -12.31 L 11.0925 -10.31 " stroke="#191919" stroke-width="0.35 px" style="stroke-width:0.35;stroke-miterlimit:4;stroke-dasharray:none;fill:none;fill-opacity:1;fill-rule: evenodd"/>
<path id="Shape2DView_nwe0030"  d="M 10.0925 -10.31 L 10.204464476103308 -10.31 L 10.315020933956314 -10.31 L 10.422779061955167 -10.31 L 10.526383739117557 -10.31 L 10.624532076515337 -10.31 L 10.715989801858733 -10.31 L 10.799606781186547 -10.31 L 10.87433148246803 -10.31 L 10.939224199228283 -10.31 L 10.993468867902418 -10.31 L 11.036383330308366 -10.31 L 11.067427912181824 -10.31 L 11.086212209893242 -10.31 L 11.0925 -10.31 " stroke="#191919" stroke-width="0.35 px" style="stroke-width:0.35;stroke-miterlimit:4;stroke-dasharray:none;fill:none;fill-opacity:1;fill-rule: evenodd"/>
<path id="Shape2DView_nwe0031"  d="M 11.0925 -10.31 L 11.0925 1.58 " stroke="#191919" stroke-width="0.35 px" style="stroke-width:0.35;stroke-miterlimit:4;stroke-dasharray:none;fill:none;fill-opacity:1;fill-rule: evenodd"/>
<path id="Shape2DView_nwe0032"  d="M -37.0075 -10.11 L -37.057644175636355 -10.11 L -37.20556226419516 -10.11 L -37.44383703506394 -10.11 L -37.76052039628253 -10.11 L -38.139732521764884 -10.11 L -38.56245813208737 -10.11 L -39.0075 -10.11 L -39.45254186791263 -10.11 L -39.875267478235116 -10.11 L -40.25447960371747 -10.11 L -40.57116296493606 -10.11 L -40.809437735804835 -10.11 L -40.957355824363646 -10.11 L -41.0075 -10.11 " stroke="#191919" stroke-width="0.35 px" style="stroke-width:0.35;stroke-miterlimit:4;stroke-dasharray:none;fill:none;fill-opacity:1;fill-rule: evenodd"/>
<path id="Shape2DView_nwe0033"  d="M 10.0925 -10.11 L 10.042355824363646 -10.11 L 9.894437735804837 -10.11 L 9.656162964936058 -10.11 L 9.339479603717466 -10.11 L 8.960267478235115 -10.11 L 8.537541867912628 -10.11 L 8.0925 -10.11 L 7.647458132087371 -10.11 L 7.224732521764883 -10.11 L 6.845520396282533 -10.11 L 6.5288370350639395 -10.11 L 6.290562264195161 -10.11 L 6.142644175636352 -10.11 L 6.092499999999999 -10.11 " stroke="#191919" stroke-width="0.35 px" style="stroke-width:0.35;stroke-miterlimit:4;stroke-dasharray:none;fill:none;fill-opacity:1;fill-rule: evenodd"/>
<path id="Shape2DView_nwe0034"  d="M -42.0075 1.58 L -36.5075 1.58 " stroke="#191919" stroke-width="0.35 px" style="stroke-width:0.35;stroke-miterlimit:4;stroke-dasharray:none;fill:none;fill-opacity:1;fill-rule: evenodd"/>
<path id="Shape2DView_nwe0035"  d="M 5.5925 1.58 L 11.092499999999998 1.58 " stroke="#191919" stroke-width="0.35 px" style="stroke-width:0.35;stroke-miterlimit:4;stroke-dasharray:none;fill:none;fill-opacity:1;fill-rule: evenodd"/>
<path id="Shape2DView_nwe0036"  d="M -37.4075 -1.9800000000000004 L -37.4075 -3.58 " stroke="#191919" stroke-width="0.35 px" style="stroke-width:0.35;stroke-miterlimit:4;stroke-dasharray:none;fill:none;fill-opacity:1;fill-rule: evenodd"/>
<path id="Shape2DView_nwe0037"  d="M -40.6075 -1.9800000000000002 A 1.6 1.6 0 0 0 -37.4075 -1.98" stroke="#191919" stroke-width="0.35 px" style="stroke-width:0.35;stroke-miterlimit:4;stroke-dasharray:none;fill:none;fill-opacity:1;fill-rule: evenodd"/>
<path id="Shape2DView_nwe0038"  d="M -40.6075 -3.58 L -40.6075 -1.9800000000000004 " stroke="#191919" stroke-width="0.35 px" style="stroke-width:0.35;stroke-miterlimit:4;stroke-dasharray:none;fill:none;fill-opacity:1;fill-rule: evenodd"/>
<path id="Shape2DView_nwe0039"  d="M -40.007499999999844 -4.828999599679805 A 1.6 1.6 0 0 0 -40.6075 -3.58" stroke="#191919" stroke-width="0.35 px" style="stroke-width:0.35;stroke-miterlimit:4;stroke-dasharray:none;fill:none;fill-opacity:1;fill-rule: evenodd"/>
<path id="Shape2DView_nwe0040"  d="M -37.4075 -3.58 A 1.6 1.6 0 0 0 -38.0075 -4.829" stroke="#191919" stroke-width="0.35 px" style="stroke-width:0.35;stroke-miterlimit:4;stroke-dasharray:none;fill:none;fill-opacity:1;fill-rule: evenodd"/>
<path id="Shape2DView_nwe0041"  d="M 6.4925 -1.9800000000000002 A 1.6 1.6 0 0 0 9.6925 -1.98" stroke="#191919" stroke-width="0.35 px" style="stroke-width:0.35;stroke-miterlimit:4;stroke-dasharray:none;fill:none;fill-opacity:1;fill-rule: evenodd"/>
<path id="Shape2DView_nwe0042"  d="M 6.4925 -3.58 L 6.4925 -1.9800000000000004 " stroke="#191919" stroke-width="0.35 px" style="stroke-width:0.35;stroke-miterlimit:4;stroke-dasharray:none;fill:none;fill-opacity:1;fill-rule: evenodd"/>
<path id="Shape2DView_nwe0043"  d="M 7.0925 -3.58 L 6.4925 -3.58 " stroke="#191919" stroke-width="0.35 px" style="stroke-width:0.35;stroke-miterlimit:4;stroke-dasharray:none;fill:none;fill-opacity:1;fill-rule: evenodd"/>
<path id="Shape2DView_nwe0044"  d="M 9.6925 -3.58 L 9.0925 -3.58 " stroke="#191919" stroke-width="0.35 px" style="stroke-width:0.35;stroke-miterlimit:4;stroke-dasharray:none;fill:none;fill-opacity:1;fill-rule: evenodd"/>
<path id="Shape2DView_nwe0045"  d="M 9.6925 -1.9800000000000004 L 9.6925 -3.58 " stroke="#191919" stroke-width="0.35 px" style="stroke-width:0.35;stroke-miterlimit:4;stroke-dasharray:none;fill:none;fill-opacity:1;fill-rule: evenodd"/>
<path id="Shape2DView_nwe0046"  d="M -37.0075 -10.31 L -37.0075 -10.11 " stroke="#191919" stroke-width="0.35 px" style="stroke-width:0.35;stroke-miterlimit:4;stroke-dasharray:none;fill:none;fill-opacity:1;fill-rule: evenodd"/>
<path id="Shape2DView_nwe0047"  d="M -38.0075 -1.88 L -38.0075 -1.8806287790106757 L -38.0075 -1.8825072087818175 L -38.0075 -1.8856116669691632 L -38.0075 -1.8899031132097581 L -38.0075 -1.8953275800771716 L -38.0075 -1.901816851753197 L -38.0075 -1.9092893218813451 L -38.0075 -1.9176510198141266 L -38.0075 -1.9267967923484663 L -38.0075 -1.9366116260882442 L -38.0075 -1.9469720938044832 L -38.0075 -1.9577479066043686 L -38.0075 -1.9688035523896692 L -38.0075 -1.98 " stroke="#191919" stroke-width="0.35 px" style="stroke-width:0.35;stroke-miterlimit:4;stroke-dasharray:none;fill:none;fill-opacity:1;fill-rule: evenodd"/>
<path id="Shape2DView_nwe0048"  d="M -38.0075 -1.98 L -38.0075 -10.009999999999998 " stroke="#191919" stroke-width="0.35 px" style="stroke-width:0.35;stroke-miterlimit:4;stroke-dasharray:none;fill:none;fill-opacity:1;fill-rule: evenodd"/>
<path id="Shape2DView_nwe0049"  d="M -38.0075 -10.11 L -38.0075 -10.01 " stroke="#191919" stroke-width="0.35 px" style="stroke-width:0.35;stroke-miterlimit:4;stroke-dasharray:none;fill:none;fill-opacity:1;fill-rule: evenodd"/>
<path id="Shape2DView_nwe0050"  d="M -40.0075 -10.01 L -40.0075 -10.11 " stroke="#191919" stroke-width="0.35 px" style="stroke-width:0.35;stroke-miterlimit:4;stroke-dasharray:none;fill:none;fill-opacity:1;fill-rule: evenodd"/>
<path id="Shape2DView_nwe0051"  d="M -38.0075 -10.01 L -40.0075 -10.01 " stroke="#191919" stroke-width="0.35 px" style="stroke-width:0.35;stroke-miterlimit:4;stroke-dasharray:none;fill:none;fill-opacity:1;fill-rule: evenodd"/>
<path id="Shape2DView_nwe0052"  d="M -40.0075 -10.01 L -40.0075 -1.9800000000000004 " stroke="#191919" stroke-width="0.35 px" style="stroke-width:0.35;stroke-miterlimit:4;stroke-dasharray:none;fill:none;fill-opacity:1;fill-rule: evenodd"/>
<path id="Shape2DView_nwe0053"  d="M -40.0075 -1.88 L -40.0075 -1.8806287790106757 L -40.0075 -1.8825072087818175 L -40.0075 -1.8856116669691632 L -40.0075 -1.8899031132097581 L -40.0075 -1.8953275800771716 L -40.0075 -1.901816851753197 L -40.0075 -1.9092893218813451 L -40.0075 -1.9176510198141266 L -40.0075 -1.9267967923484663 L -40.0075 -1.9366116260882442 L -40.0075 -1.9469720938044832 L -40.0075 -1.9577479066043686 L -40.0075 -1.9688035523896692 L -40.0075 -1.98 " stroke="#191919" stroke-width="0.35 px" style="stroke-width:0.35;stroke-miterlimit:4;stroke-dasharray:none;fill:none;fill-opacity:1;fill-rule: evenodd"/>
<path id="Shape2DView_nwe0054"  d="M 10.0925 -10.31 L 10.0925 -10.11 " stroke="#191919" stroke-width="0.35 px" style="stroke-width:0.35;stroke-miterlimit:4;stroke-dasharray:none;fill:none;fill-opacity:1;fill-rule: evenodd"/>
<path id="Shape2DView_nwe0055"  d="M 9.0925 -1.88 L 9.0925 -1.8806287790106757 L 9.0925 -1.8825072087818175 L 9.0925 -1.8856116669691632 L 9.0925 -1.8899031132097581 L 9.0925 -1.8953275800771716 L 9.0925 -1.901816851753197 L 9.0925 -1.9092893218813451 L 9.0925 -1.9176510198141266 L 9.0925 -1.9267967923484663 L 9.0925 -1.9366116260882442 L 9.0925 -1.9469720938044832 L 9.0925 -1.9577479066043686 L 9.0925 -1.9688035523896692 L 9.0925 -1.98 " stroke="#191919" stroke-width="0.35 px" style="stroke-width:0.35;stroke-miterlimit:4;stroke-dasharray:none;fill:none;fill-opacity:1;fill-rule: evenodd"/>
<path id="Shape2DView_nwe0056"  d="M 9.0925 -1.98 L 9.0925 -10.009999999999998 " stroke="#191919" stroke-width="0.35 px" style="stroke-width:0.35;stroke-miterlimit:4;stroke-dasharray:none;fill:none;fill-opacity:1;fill-rule: evenodd"/>
<path id="Shape2DView_nwe0057"  d="M 9.0925 -10.11 L 9.0925 -10.01 " stroke="#191919" stroke-width="0.35 px" style="stroke-width:0.35;stroke-miterlimit:4;stroke-dasharray:none;fill:none;fill-opacity:1;fill-rule: evenodd"/>
<path id="Shape2DView_nwe0058"  d="M 7.0925 -10.01 L 7.0925 -10.11 " stroke="#191919" stroke-width="0.35 px" style="stroke-width:0.35;stroke-miterlimit:4;stroke-dasharray:none;fill:none;fill-opacity:1;fill-rule: evenodd"/>
<path id="Shape2DView_nwe0059"  d="M 9.0925 -10.01 L 7.0925 -10.01 " stroke="#191919" stroke-width="0.35 px" style="stroke-width:0.35;stroke-miterlimit:4;stroke-dasharray:none;fill:none;fill-opacity:1;fill-rule: evenodd"/>
<path id="Shape2DView_nwe0060"  d="M 7.0925 -1.88 L 7.0925 -1.8806287790106757 L 7.0925 -1.8825072087818175 L 7.0925 -1.8856116669691632 L 7.0925 -1.8899031132097581 L 7.0925 -1.8953275800771716 L 7.0925 -1.901816851753197 L 7.0925 -1.9092893218813451 L 7.0925 -1.9176510198141266 L 7.0925 -1.9267967923484663 L 7.0925 -1.9366116260882442 L 7.0925 -1.9469720938044832 L 7.0925 -1.9577479066043686 L 7.0925 -1.9688035523896692 L 7.0925 -1.98 " stroke="#191919" stroke-width="0.35 px" style="stroke-width:0.35;stroke-miterlimit:4;stroke-dasharray:none;fill:none;fill-opacity:1;fill-rule: evenodd"/>
<path id="Shape2DView_nwe0061"  d="M 7.0925 -10.01 L 7.0925 -1.9800000000000004 " stroke="#191919" stroke-width="0.35 px" style="stroke-width:0.35;stroke-miterlimit:4;stroke-dasharray:none;fill:none;fill-opacity:1;fill-rule: evenodd"/>
<path id="Shape2DView_nwe0062"  d="M -40.0075 -1.88 L -38.0075 -1.88 " stroke="#191919" stroke-width="0.35 px" style="stroke-width:0.35;stroke-miterlimit:4;stroke-dasharray:none;fill:none;fill-opacity:1;fill-rule: evenodd"/>
<path id="Shape2DView_nwe0063"  d="M 7.0925 -1.88 L 9.0925 -1.88 " stroke="#191919" stroke-width="0.35 px" style="stroke-width:0.35;stroke-miterlimit:4;stroke-dasharray:none;fill:none;fill-opacity:1;fill-rule: evenodd"/>
<path id="Shape2DView_nwe0064"  d="M -33.46007768744 -18.41 L -33.46007768744 -18.36 " stroke="#191919" stroke-width="0.35 px" style="stroke-width:0.35;stroke-miterlimit:4;stroke-dasharray:none;fill:none;fill-opacity:1;fill-rule: evenodd"/>
<path id="Shape2DView_nwe0065"  d="M 2.545077687448 -18.41 L 2.545077687448 -18.36 " stroke="#191919" stroke-width="0.35 px" style="stroke-width:0.35;stroke-miterlimit:4;stroke-dasharray:none;fill:none;fill-opacity:1;fill-rule: evenodd"/>
<path id="Shape2DView_nwe0066"  d="M -33.46007768744 -13.21 L -33.46007768744 -18.36 " stroke="#191919" stroke-width="0.35 px" style="stroke-width:0.35;stroke-miterlimit:4;stroke-dasharray:none;fill:none;fill-opacity:1;fill-rule: evenodd"/>
<path id="Shape2DView_nwe0067"  d="M -34.46007768744 -13.21 L -34.45378989733324 -13.21 L -34.435005599621825 -13.21 L -34.403961017748365 -13.21 L -34.36104655534242 -13.21 L -34.30680188666828 -13.21 L -34.24190916990803 -13.21 L -34.167184468626544 -13.21 L -34.08356748929873 -13.21 L -33.992109763955334 -13.21 L -33.89396142655756 -13.21 L -33.790356749395166 -13.21 L -33.682598621396316 -13.21 L -33.57204216354331 -13.21 L -33.46007768744 -13.21 " stroke="#191919" stroke-width="0.35 px" style="stroke-width:0.35;stroke-miterlimit:4;stroke-dasharray:none;fill:none;fill-opacity:1;fill-rule: evenodd"/>
<path id="Shape2DView_nwe0068"  d="M 2.545077687448 -13.21 L 2.545077687448 -18.36 " stroke="#191919" stroke-width="0.35 px" style="stroke-width:0.35;stroke-miterlimit:4;stroke-dasharray:none;fill:none;fill-opacity:1;fill-rule: evenodd"/>
<path id="Shape2DView_nwe0069"  d="M -33.46007768744 -13.21 L 2.545077687448 -13.21 " stroke="#191919" stroke-width="0.35 px" style="stroke-width:0.35;stroke-miterlimit:4;stroke-dasharray:none;fill:none;fill-opacity:1;fill-rule: evenodd"/>
<path id="Shape2DView_nwe0070"  d="M -33.35620034771 -18.41 L -33.35620034771 -18.61 " stroke="#191919" stroke-width="0.35 px" style="stroke-width:0.35;stroke-miterlimit:4;stroke-dasharray:none;fill:none;fill-opacity:1;fill-rule: evenodd"/>
<path id="Shape2DView_nwe0071"  d="M 2.441200347716 -18.41 L 2.441200347716 -18.61 " stroke="#191919" stroke-width="0.35 px" style="stroke-width:0.35;stroke-miterlimit:4;stroke-dasharray:none;fill:none;fill-opacity:1;fill-rule: evenodd"/>
<path id="Shape2DView_nwe0072"  d="M -33.46007768744 -13.21 L -33.46007768744 -13.142821314338017 L -33.46007768744 -13.076487439626213 L -33.46007768744 -13.011832562826902 L -33.46007768744 -12.949669756529467 L -33.46007768744 -12.8907807540908 L -33.46007768744 -12.835906118884761 L -33.46007768744 -12.785735931288073 L -33.46007768744 -12.740901110519182 L -33.46007768744 -12.70196548046303 L -33.46007768744 -12.66941867925855 L -33.46007768744 -12.64367000181498 L -33.46007768744 -12.625043252690906 L -33.46007768744 -12.613772674064055 L -33.46007768744 -12.610000000000001 " stroke="#191919" stroke-width="0.35 px" style="stroke-width:0.35;stroke-miterlimit:4;stroke-dasharray:none;fill:none;fill-opacity:1;fill-rule: evenodd"/>
<path id="Shape2DView_nwe0073"  d="M 2.545077687448 -13.21 L 2.6570421635513077 -13.21 L 2.7675986214043142 -13.21 L 2.875356749403167 -13.21 L 2.978961426565558 -13.21 L 3.0771097639633362 -13.21 L 3.1685674893067333 -13.21 L 3.2521844686345474 -13.21 L 3.32690916991603 -13.21 L 3.391801886676284 -13.21 L 3.446046555350419 -13.21 L 3.4889610177563677 -13.21 L 3.5200055996298234 -13.21 L 3.5387898973412426 -13.21 L 3.545077687448 -13.21 " stroke="#191919" stroke-width="0.35 px" style="stroke-width:0.35;stroke-miterlimit:4;stroke-dasharray:none;fill:none;fill-opacity:1;fill-rule: evenodd"/>
<path id="Shape2DView_nwe0074"  d="M 2.545077687448 -13.21 L 2.545077687448 -13.142821314338017 L 2.545077687448 -13.076487439626213 L 2.545077687448 -13.011832562826902 L 2.545077687448 -12.949669756529467 L 2.545077687448 -12.890780754090798 L 2.545077687448 -12.835906118884761 L 2.545077687448 -12.785735931288073 L 2.545077687448 -12.740901110519182 L 2.545077687448 -12.70196548046303 L 2.545077687448 -12.66941867925855 L 2.545077687448 -12.64367000181498 L 2.545077687448 -12.625043252690906 L 2.545077687448 -12.613772674064055 L 2.545077687448 -12.610000000000001 " stroke="#191919" stroke-width="0.35 px" style="stroke-width:0.35;stroke-miterlimit:4;stroke-dasharray:none;fill:none;fill-opacity:1;fill-rule: evenodd"/>
<path id="Shape2DView_nwe0075"  d="M -33.35620034771 -18.61 L -33.35620034771 -18.71 " stroke="#191919" stroke-width="0.35 px" style="stroke-width:0.35;stroke-miterlimit:4;stroke-dasharray:none;fill:none;fill-opacity:1;fill-rule: evenodd"/>
<path id="Shape2DView_nwe0076"  d="M 2.441200347716 -18.61 L 2.441200347716 -18.71 " stroke="#191919" stroke-width="0.35 px" style="stroke-width:0.35;stroke-miterlimit:4;stroke-dasharray:none;fill:none;fill-opacity:1;fill-rule: evenodd"/>
<path id="Shape2DView_nwe0077"  d="M -41.0075 -12.51 L -41.0075 -12.52119644761033 L -41.0075 -12.53225209339563 L -41.0075 -12.543027906195517 L -41.0075 -12.553388373911755 L -41.0075 -12.563203207651533 L -41.0075 -12.572348980185874 L -41.0075 -12.580710678118654 L -41.0075 -12.588183148246802 L -41.0075 -12.594672419922828 L -41.0075 -12.600096886790242 L -41.0075 -12.604388333030837 L -41.0075 -12.607492791218181 L -41.0075 -12.609371220989324 L -41.0075 -12.61 " stroke="#191919" stroke-width="0.35 px" style="stroke-width:0.35;stroke-miterlimit:4;stroke-dasharray:none;fill:none;fill-opacity:1;fill-rule: evenodd"/>
<path id="Shape2DView_nwe0078"  d="M -41.0075 -12.51 L -41.11946447610331 -12.51 L -41.23002093395632 -12.51 L -41.33777906195517 -12.51 L -41.44138373911756 -12.51 L -41.539532076515336 -12.51 L -41.63098980185873 -12.51 L -41.714606781186546 -12.51 L -41.78933148246803 -12.51 L -41.854224199228284 -12.51 L -41.90846886790242 -12.51 L -41.95138333030837 -12.51 L -41.98242791218183 -12.51 L -42.00121220989324 -12.51 L -42.0075 -12.51 " stroke="#191919" stroke-width="0.35 px" style="stroke-width:0.35;stroke-miterlimit:4;stroke-dasharray:none;fill:none;fill-opacity:1;fill-rule: evenodd"/>
<path id="Shape2DView_nwe0079"  d="M 10.0925 -12.51 L -41.0075 -12.51 " stroke="#191919" stroke-width="0.35 px" style="stroke-width:0.35;stroke-miterlimit:4;stroke-dasharray:none;fill:none;fill-opacity:1;fill-rule: evenodd"/>
<path id="Shape2DView_nwe0080"  d="M 10.0925 -12.51 L 10.0925 -12.52119644761033 L 10.0925 -12.53225209339563 L 10.0925 -12.543027906195517 L 10.0925 -12.553388373911755 L 10.0925 -12.563203207651533 L 10.0925 -12.572348980185874 L 10.0925 -12.580710678118654 L 10.0925 -12.588183148246802 L 10.0925 -12.594672419922828 L 10.0925 -12.600096886790242 L 10.0925 -12.604388333030837 L 10.0925 -12.607492791218181 L 10.0925 -12.609371220989324 L 10.0925 -12.61 " stroke="#191919" stroke-width="0.35 px" style="stroke-width:0.35;stroke-miterlimit:4;stroke-dasharray:none;fill:none;fill-opacity:1;fill-rule: evenodd"/>
<path id="Shape2DView_nwe0082"  d="M 11.0925 -12.51 L 11.086212209893242 -12.51 L 11.067427912181824 -12.51 L 11.036383330308366 -12.51 L 10.993468867902418 -12.51 L 10.939224199228283 -12.51 L 10.87433148246803 -12.51 L 10.799606781186547 -12.51 L 10.715989801858733 -12.51 L 10.624532076515337 -12.51 L 10.526383739117557 -12.51 L 10.422779061955167 -12.51 L 10.315020933956314 -12.51 L 10.204464476103308 -12.51 L 10.0925 -12.51 " stroke="#191919" stroke-width="0.35 px" style="stroke-width:0.35;stroke-miterlimit:4;stroke-dasharray:none;fill:none;fill-opacity:1;fill-rule: evenodd"/>
<path id="Shape2DView_nwe0083"  d="M -41.0075 -12.31 L -41.0075 -12.51 " stroke="#191919" stroke-width="0.35 px" style="stroke-width:0.35;stroke-miterlimit:4;stroke-dasharray:none;fill:none;fill-opacity:1;fill-rule: evenodd"/>
<path id="Shape2DView_nwe0084"  d="M 10.0925 -12.31 L 10.0925 -12.51 " stroke="#191919" stroke-width="0.35 px" style="stroke-width:0.35;stroke-miterlimit:4;stroke-dasharray:none;fill:none;fill-opacity:1;fill-rule: evenodd"/>
<path id="Shape2DView_nwe0085"  d="M -41.0075 -12.31 L -41.0075 -10.31 " stroke="#191919" stroke-width="0.35 px" style="stroke-width:0.35;stroke-miterlimit:4;stroke-dasharray:none;fill:none;fill-opacity:1;fill-rule: evenodd"/>
<path id="Shape2DView_nwe0086"  d="M 10.0925 -12.31 L 10.0925 -10.31 " stroke="#191919" stroke-width="0.35 px" style="stroke-width:0.35;stroke-miterlimit:4;stroke-dasharray:none;fill:none;fill-opacity:1;fill-rule: evenodd"/>
<path id="Shape2DView_nwe0087"  d="M -40.0075 -1.98 L -38.0075 -1.98 " stroke="#191919" stroke-width="0.35 px" style="stroke-width:0.35;stroke-miterlimit:4;stroke-dasharray:none;fill:none;fill-opacity:1;fill-rule: evenodd"/>
<path id="Shape2DView_nwe0088"  d="M 7.0925 -1.98 L 9.0925 -1.98 " stroke="#191919" stroke-width="0.35 px" style="stroke-width:0.35;stroke-miterlimit:4;stroke-dasharray:none;fill:none;fill-opacity:1;fill-rule: evenodd"/>
<path id="Shape2DView_nwe0089"  d="M -41.0075 -12.31 L -41.11946447610331 -12.31 L -41.23002093395632 -12.31 L -41.33777906195517 -12.31 L -41.44138373911756 -12.31 L -41.539532076515336 -12.31 L -41.63098980185873 -12.31 L -41.714606781186546 -12.31 L -41.78933148246803 -12.31 L -41.854224199228284 -12.31 L -41.90846886790242 -12.31 L -41.95138333030837 -12.31 L -41.98242791218183 -12.31 L -42.00121220989324 -12.31 L -42.0075 -12.31 " stroke="#191919" stroke-width="0.35 px" style="stroke-width:0.35;stroke-miterlimit:4;stroke-dasharray:none;fill:none;fill-opacity:1;fill-rule: evenodd"/>
<path id="Shape2DView_nwe0090"  d="M 10.0925 -12.31 L -41.0075 -12.31 " stroke="#191919" stroke-width="0.35 px" style="stroke-width:0.35;stroke-miterlimit:4;stroke-dasharray:none;fill:none;fill-opacity:1;fill-rule: evenodd"/>
<path id="Shape2DView_nwe0091"  d="M 10.0925 -12.31 L 10.204464476103308 -12.31 L 10.315020933956314 -12.31 L 10.422779061955167 -12.31 L 10.526383739117557 -12.31 L 10.624532076515337 -12.31 L 10.715989801858733 -12.31 L 10.799606781186547 -12.31 L 10.87433148246803 -12.31 L 10.939224199228283 -12.31 L 10.993468867902418 -12.31 L 11.036383330308366 -12.31 L 11.067427912181824 -12.31 L 11.086212209893242 -12.31 L 11.0925 -12.31 " stroke="#191919" stroke-width="0.35 px" style="stroke-width:0.35;stroke-miterlimit:4;stroke-dasharray:none;fill:none;fill-opacity:1;fill-rule: evenodd"/>
<path id="Shape2DView_nwe0092"  d="M -34.41007768744002 -18.41000000000002 L -34.46007768744 -18.36 " stroke="#191919" stroke-width="0.35 px" style="stroke-width:0.35;stroke-miterlimit:4;stroke-dasharray:none;fill:none;fill-opacity:1;fill-rule: evenodd"/>
<path id="Shape2DView_nwe0093"  d="M -34.46007768744 -13.21 L -34.46007768744 -18.36 " stroke="#191919" stroke-width="0.35 px" style="stroke-width:0.35;stroke-miterlimit:4;stroke-dasharray:none;fill:none;fill-opacity:1;fill-rule: evenodd"/>
<path id="Shape2DView_nwe0094"  d="M 3.4950776874480223 -18.41000000000002 L 3.545077687448 -18.36 " stroke="#191919" stroke-width="0.35 px" style="stroke-width:0.35;stroke-miterlimit:4;stroke-dasharray:none;fill:none;fill-opacity:1;fill-rule: evenodd"/>
<path id="Shape2DView_nwe0095"  d="M -34.35620034771 -18.410000000000004 L -34.35620034771 -18.61 " stroke="#191919" stroke-width="0.35 px" style="stroke-width:0.35;stroke-miterlimit:4;stroke-dasharray:none;fill:none;fill-opacity:1;fill-rule: evenodd"/>
<path id="Shape2DView_nwe0096"  d="M 3.441200347716 -18.410000000000004 L 3.441200347716 -18.61 " stroke="#191919" stroke-width="0.35 px" style="stroke-width:0.35;stroke-miterlimit:4;stroke-dasharray:none;fill:none;fill-opacity:1;fill-rule: evenodd"/>
<path id="Shape2DView_nwe0097"  d="M -34.46007768744 -13.21 Q -34.46782566511655 -13.142259618494656 -34.475573642793094 -13.07451923698931 Q -34.5060768629947 -12.99567324604557 -34.53658008319632 -12.916827255101829 Q -34.715319367803666 -12.621785780527219 -35.06007768744 -12.610000000000001 " stroke="#191919" stroke-width="0.35 px" style="stroke-width:0.35;stroke-miterlimit:4;stroke-dasharray:none;fill:none;fill-opacity:1;fill-rule: evenodd"/>
<path id="Shape2DView_nwe0098"  d="M 3.545077687448 -13.21 L 3.545077687448 -18.36 " stroke="#191919" stroke-width="0.35 px" style="stroke-width:0.35;stroke-miterlimit:4;stroke-dasharray:none;fill:none;fill-opacity:1;fill-rule: evenodd"/>
<path id="Shape2DView_nwe0099"  d="M -34.25620034771004 -18.710000000000047 L -34.35620034771 -18.61 " stroke="#191919" stroke-width="0.35 px" style="stroke-width:0.35;stroke-miterlimit:4;stroke-dasharray:none;fill:none;fill-opacity:1;fill-rule: evenodd"/>
<path id="Shape2DView_nwe0100"  d="M 3.341200347716045 -18.710000000000043 L 3.441200347716 -18.61 " stroke="#191919" stroke-width="0.35 px" style="stroke-width:0.35;stroke-miterlimit:4;stroke-dasharray:none;fill:none;fill-opacity:1;fill-rule: evenodd"/>
<path id="Shape2DView_nwe0101"  d="M 3.545077687448 -13.21 Q 3.55282566580602 -13.142259618652613 3.56057364416404 -13.074519237305225 Q 3.5899336617928608 -12.997733516422098 3.6192936794216806 -12.920947795538973 Q 3.7974120461584695 -12.622129505490129 4.1450776874479995 -12.610000000000001 " stroke="#191919" stroke-width="0.35 px" style="stroke-width:0.35;stroke-miterlimit:4;stroke-dasharray:none;fill:none;fill-opacity:1;fill-rule: evenodd"/>
<path id="Shape2DView_nwe0102"  d="M -41.0075 -10.11 L -41.0075 -10.31 " stroke="#191919" stroke-width="0.35 px" style="stroke-width:0.35;stroke-miterlimit:4;stroke-dasharray:none;fill:none;fill-opacity:1;fill-rule: evenodd"/>
<path id="Shape2DView_nwe0103"  d="M 6.092499999999999 -10.11 L 6.092499999999999 -10.31 " stroke="#191919" stroke-width="0.35 px" style="stroke-width:0.35;stroke-miterlimit:4;stroke-dasharray:none;fill:none;fill-opacity:1;fill-rule: evenodd"/>
<title>b'Shape2DView'</title>
</g>
<g id="Rectangle" transform="translate(42.538500,2.111000) scale(1,-1)">
<rect fill="#ff0000" id="origin" width="1" height="1" x="0" y="0" />
<title>b'Rectangle'</title>
</g>
</svg>