<?xml version="1.0"?>
<!DOCTYPE svg PUBLIC "-//W3C//DTD SVG 1.1//EN" "http://www.w3.org/Graphics/SVG/1.1/DTD/svg11.dtd">
<svg width="54.162mm" height="26.662000000000045mm" viewBox="0 0 54.162 26.662000000000045" xmlns="http://www.w3.org/2000/svg" version="1.1">
<g id="Shape2DView" transform="translate(43.701000,2.331000) scale(1,-1)">
<path id="Shape2DView_nwe0000"  d="M -35.3740820053 -23.8 L -35.36842299420392 -23.8 L -35.35151712626364 -23.8 L -35.32357700257753 -23.8 L -35.28495398641218 -23.8 L -35.23613378460546 -23.8 L -35.177730339521226 -23.8 L -35.11047810836789 -23.8 L -35.035222826972856 -23.8 L -34.9529108741638 -23.8 L -34.8645773705058 -23.8 L -34.77133316105965 -23.8 L -34.67435084586068 -23.8 L -34.57485003379298 -23.8 L -34.4740820053 -23.8 " stroke="#191919" stroke-width="0.35 px" style="stroke-width:0.35;stroke-miterlimit:4;stroke-dasharray:none;fill:none;fill-opacity:1;fill-rule: evenodd"/>
<path id="Shape2DView_nwe0001"  d="M -34.4740820053 -23.8 L 1.2340820053030015 -23.8 " stroke="#191919" stroke-width="0.35 px" style="stroke-width:0.35;stroke-miterlimit:4;stroke-dasharray:none;fill:none;fill-opacity:1;fill-rule: evenodd"/>
<path id="Shape2DView_nwe0002"  d="M 1.234082005303 -23.8 L 1.334850033795977 -23.8 L 1.4343508458636829 -23.8 L 1.5313331610626504 -23.8 L 1.6245773705088022 -23.8 L 1.7129108741668029 -23.8 L 1.79522282697586 -23.8 L 1.8704781083708928 -23.8 L 1.9377303395242267 -23.8 L 1.996133784608456 -23.8 L 2.0449539864151776 -23.8 L 2.083577002580531 -23.8 L 2.1115171262666412 -23.8 L 2.128422994206918 -23.8 L 2.134082005303 -23.8 " stroke="#191919" stroke-width="0.35 px" style="stroke-width:0.35;stroke-miterlimit:4;stroke-dasharray:none;fill:none;fill-opacity:1;fill-rule: evenodd"/>
<path id="Shape2DView_nwe0003"  d="M -35.4740820053 -23.7 L -35.46779421519324 -23.7 L -35.449009917481824 -23.7 L -35.417965335608365 -23.7 L -35.37505087320242 -23.7 L -35.32080620452828 -23.7 L -35.25591348776803 -23.7 L -35.181188786486544 -23.7 L -35.09757180715873 -23.7 L -35.00611408181533 -23.7 L -34.90796574441756 -23.7 L -34.804361067255165 -23.7 L -34.696602939256316 -23.7 L -34.58604648140331 -23.7 L -34.4740820053 -23.7 " stroke="#191919" stroke-width="0.35 px" style="stroke-width:0.35;stroke-miterlimit:4;stroke-dasharray:none;fill:none;fill-opacity:1;fill-rule: evenodd"/>
<path id="Shape2DView_nwe0004"  d="M -34.4740820053 -23.7 L 1.2340820053030015 -23.7 " stroke="#191919" stroke-width="0.35 px" style="stroke-width:0.35;stroke-miterlimit:4;stroke-dasharray:none;fill:none;fill-opacity:1;fill-rule: evenodd"/>
<path id="Shape2DView_nwe0005"  d="M 1.234082005303 -23.7 L 1.3460464814063078 -23.7 L 1.4566029392593143 -23.7 L 1.564361067258167 -23.7 L 1.6679657444205582 -23.7 L 1.7661140818183365 -23.7 L 1.8575718071617335 -23.7 L 1.9411887864895476 -23.7 L 2.0159134877710296 -23.7 L 2.0808062045312843 -23.7 L 2.135050873205419 -23.7 L 2.1779653356113675 -23.7 L 2.2090099174848237 -23.7 L 2.2277942151962424 -23.7 L 2.2340820053029997 -23.7 " stroke="#191919" stroke-width="0.35 px" style="stroke-width:0.35;stroke-miterlimit:4;stroke-dasharray:none;fill:none;fill-opacity:1;fill-rule: evenodd"/>
<path id="Shape2DView_nwe0006"  d="M -34.57943192049 -23.5 L -34.68579817278815 -23.5 L -34.7908268077485 -23.5 L -34.89319702934741 -23.5 L -34.99162147265168 -23.5 L -35.08486239317957 -23.5 L -35.1717472322558 -23.5 L -35.25118336261722 -23.5 L -35.32217182883463 -23.5 L -35.38381990975687 -23.5 L -35.4353523449973 -23.5 L -35.47612108428295 -23.5 L -35.505613437062735 -23.5 L -35.523458519888585 -23.5 L -35.529431920490005 -23.5 " stroke="#191919" stroke-width="0.35 px" style="stroke-width:0.35;stroke-miterlimit:4;stroke-dasharray:none;fill:none;fill-opacity:1;fill-rule: evenodd"/>
<path id="Shape2DView_nwe0007"  d="M 1.339431920499 -23.5 L -34.57943192049 -23.5 " stroke="#191919" stroke-width="0.35 px" style="stroke-width:0.35;stroke-miterlimit:4;stroke-dasharray:none;fill:none;fill-opacity:1;fill-rule: evenodd"/>
<path id="Shape2DView_nwe0008"  d="M 2.289431920499 -23.5 L 2.2834585198975805 -23.5 L 2.2656134370717322 -23.5 L 2.2361210842919492 -23.5 L 2.1953523450062984 -23.5 L 2.1438199097658703 -23.5 L 2.0821718288436286 -23.5 L 2.0111833626262205 -23.5 L 1.931747232264797 -23.5 L 1.8448623931885701 -23.5 L 1.7516214726606805 -23.5 L 1.653197029356409 -23.5 L 1.550826807757499 -23.5 L 1.4457981727971427 -23.5 L 1.339431920499 -23.5 " stroke="#191919" stroke-width="0.35 px" style="stroke-width:0.35;stroke-miterlimit:4;stroke-dasharray:none;fill:none;fill-opacity:1;fill-rule: evenodd"/>
<path id="Shape2DView_nwe0009"  d="M -34.57943192049 -23.45 L -34.69139639659331 -23.45 L -34.80195285444632 -23.45 L -34.90971098244517 -23.45 L -35.01331565960756 -23.45 L -35.11146399700534 -23.45 L -35.202921722348734 -23.45 L -35.28653870167655 -23.45 L -35.36126340295803 -23.45 L -35.426156119718286 -23.45 L -35.48040078839242 -23.45 L -35.52331525079837 -23.45 L -35.55435983267183 -23.45 L -35.57314413038324 -23.45 L -35.57943192049 -23.45 " stroke="#191919" stroke-width="0.35 px" style="stroke-width:0.35;stroke-miterlimit:4;stroke-dasharray:none;fill:none;fill-opacity:1;fill-rule: evenodd"/>
<path id="Shape2DView_nwe0010"  d="M 1.339431920499 -23.45 L -34.57943192049 -23.45 " stroke="#191919" stroke-width="0.35 px" style="stroke-width:0.35;stroke-miterlimit:4;stroke-dasharray:none;fill:none;fill-opacity:1;fill-rule: evenodd"/>
<path id="Shape2DView_nwe0011"  d="M 2.339431920499 -23.45 L 2.3331441303922427 -23.45 L 2.3143598326808235 -23.45 L 2.2833152508073677 -23.45 L 2.240400788401419 -23.45 L 2.1861561197272845 -23.45 L 2.1212634029670303 -23.45 L 2.046538701685548 -23.45 L 1.9629217223577338 -23.45 L 1.8714639970143367 -23.45 L 1.7733156596165585 -23.45 L 1.6697109824541674 -23.45 L 1.5619528544553147 -23.45 L 1.4513963966023082 -23.45 L 1.339431920499 -23.45 " stroke="#191919" stroke-width="0.35 px" style="stroke-width:0.35;stroke-miterlimit:4;stroke-dasharray:none;fill:none;fill-opacity:1;fill-rule: evenodd"/>
<path id="Shape2DView_nwe0012"  d="M 8.93 -17.7 L -42.17 -17.7 " stroke="#191919" stroke-width="0.35 px" style="stroke-width:0.35;stroke-miterlimit:4;stroke-dasharray:none;fill:none;fill-opacity:1;fill-rule: evenodd"/>
<path id="Shape2DView_nwe0013"  d="M -42.17 -17.7 L -42.27076802849298 -17.7 L -42.37026884056068 -17.7 L -42.467251155759655 -17.7 L -42.5604953652058 -17.7 L -42.6488288688638 -17.7 L -42.73114082167286 -17.7 L -42.8063961030679 -17.7 L -42.87364833422123 -17.7 L -42.93205177930546 -17.7 L -42.98087198111218 -17.7 L -43.01949499727753 -17.7 L -43.04743512096364 -17.7 L -43.06434098890392 -17.7 L -43.07 -17.7 " stroke="#191919" stroke-width="0.35 px" style="stroke-width:0.35;stroke-miterlimit:4;stroke-dasharray:none;fill:none;fill-opacity:1;fill-rule: evenodd"/>
<path id="Shape2DView_nwe0014"  d="M -43.07 -17.7 L -43.06434098890392 -17.7 L -43.04743512096364 -17.7 L -43.01949499727753 -17.7 L -42.98087198111218 -17.7 L -42.93205177930546 -17.7 L -42.87364833422123 -17.7 L -42.8063961030679 -17.7 L -42.73114082167286 -17.7 L -42.6488288688638 -17.7 L -42.5604953652058 -17.7 L -42.467251155759655 -17.7 L -42.37026884056068 -17.7 L -42.27076802849298 -17.7 L -42.17 -17.7 " stroke="#191919" stroke-width="0.35 px" style="stroke-width:0.35;stroke-miterlimit:4;stroke-dasharray:none;fill:none;fill-opacity:1;fill-rule: evenodd"/>
<path id="Shape2DView_nwe0015"  d="M 9.83 -17.7 L 9.824340988903918 -17.7 L 9.80743512096364 -17.7 L 9.779494997277531 -17.7 L 9.740871981112177 -17.7 L 9.692051779305455 -17.7 L 9.633648334221226 -17.7 L 9.566396103067893 -17.7 L 9.49114082167286 -17.7 L 9.408828868863802 -17.7 L 9.320495365205803 -17.7 L 9.22725115575965 -17.7 L 9.130268840560683 -17.7 L 9.030768028492977 -17.7 L 8.93 -17.7 " stroke="#191919" stroke-width="0.35 px" style="stroke-width:0.35;stroke-miterlimit:4;stroke-dasharray:none;fill:none;fill-opacity:1;fill-rule: evenodd"/>
<path id="Shape2DView_nwe0016"  d="M 9.93 -17.6 A 0.1 0.1 0 0 0 9.83 -17.7" stroke="#191919" stroke-width="0.35 px" style="stroke-width:0.35;stroke-miterlimit:4;stroke-dasharray:none;fill:none;fill-opacity:1;fill-rule: evenodd"/>
<path id="Shape2DView_nwe0017"  d="M -43.17 -17.6 A 0.1 0.1 0 0 1 -43.07 -17.7" stroke="#191919" stroke-width="0.35 px" style="stroke-width:0.35;stroke-miterlimit:4;stroke-dasharray:none;fill:none;fill-opacity:1;fill-rule: evenodd"/>
<path id="Shape2DView_nwe0018"  d="M 9.93 -17.4 L 9.93 -17.6 " stroke="#191919" stroke-width="0.35 px" style="stroke-width:0.35;stroke-miterlimit:4;stroke-dasharray:none;fill:none;fill-opacity:1;fill-rule: evenodd"/>
<path id="Shape2DView_nwe0019"  d="M -43.17 -17.4 L -43.17 -17.6 " stroke="#191919" stroke-width="0.35 px" style="stroke-width:0.35;stroke-miterlimit:4;stroke-dasharray:none;fill:none;fill-opacity:1;fill-rule: evenodd"/>
<path id="Shape2DView_nwe0020"  d="M 4.43 -15.4 L 8.93 -15.4 " stroke="#191919" stroke-width="0.35 px" style="stroke-width:0.35;stroke-miterlimit:4;stroke-dasharray:none;fill:none;fill-opacity:1;fill-rule: evenodd"/>
<path id="Shape2DView_nwe0021"  d="M 4.43 1.8000000000000007 L 4.43 -15.4 " stroke="#191919" stroke-width="0.35 px" style="stroke-width:0.35;stroke-miterlimit:4;stroke-dasharray:none;fill:none;fill-opacity:1;fill-rule: evenodd"/>
<path id="Shape2DView_nwe0022"  d="M 4.43 1.8 L -37.67 1.8 " stroke="#191919" stroke-width="0.35 px" style="stroke-width:0.35;stroke-miterlimit:4;stroke-dasharray:none;fill:none;fill-opacity:1;fill-rule: evenodd"/>
<path id="Shape2DView_nwe0023"  d="M -37.67 -15.4 L -37.67 1.8000000000000007 " stroke="#191919" stroke-width="0.35 px" style="stroke-width:0.35;stroke-miterlimit:4;stroke-dasharray:none;fill:none;fill-opacity:1;fill-rule: evenodd"/>
<path id="Shape2DView_nwe0024"  d="M -42.17 -15.4 L -37.67 -15.4 " stroke="#191919" stroke-width="0.35 px" style="stroke-width:0.35;stroke-miterlimit:4;stroke-dasharray:none;fill:none;fill-opacity:1;fill-rule: evenodd"/>
<path id="Shape2DView_nwe0025"  d="M 9.93 -17.4 L 9.93 -15.4 " stroke="#191919" stroke-width="0.35 px" style="stroke-width:0.35;stroke-miterlimit:4;stroke-dasharray:none;fill:none;fill-opacity:1;fill-rule: evenodd"/>
<path id="Shape2DView_nwe0026"  d="M 8.93 -15.4 L 9.041964476103308 -15.4 L 9.152520933956314 -15.4 L 9.260279061955167 -15.4 L 9.363883739117558 -15.4 L 9.462032076515337 -15.4 L 9.553489801858733 -15.4 L 9.637106781186548 -15.4 L 9.71183148246803 -15.4 L 9.776724199228283 -15.4 L 9.830968867902419 -15.4 L 9.873883330308367 -15.4 L 9.904927912181824 -15.4 L 9.923712209893242 -15.4 L 9.93 -15.4 " stroke="#191919" stroke-width="0.35 px" style="stroke-width:0.35;stroke-miterlimit:4;stroke-dasharray:none;fill:none;fill-opacity:1;fill-rule: evenodd"/>
<path id="Shape2DView_nwe0027"  d="M -43.17 -15.4 L -43.16371220989324 -15.4 L -43.14492791218183 -15.4 L -43.11388333030837 -15.4 L -43.07096886790242 -15.4 L -43.016724199228285 -15.4 L -42.95183148246803 -15.4 L -42.87710678118655 -15.4 L -42.79348980185873 -15.4 L -42.70203207651534 -15.4 L -42.60388373911756 -15.4 L -42.50027906195517 -15.4 L -42.39252093395632 -15.4 L -42.28196447610331 -15.4 L -42.17 -15.4 " stroke="#191919" stroke-width="0.35 px" style="stroke-width:0.35;stroke-miterlimit:4;stroke-dasharray:none;fill:none;fill-opacity:1;fill-rule: evenodd"/>
<path id="Shape2DView_nwe0028"  d="M -43.17 -17.4 L -43.17 -15.4 " stroke="#191919" stroke-width="0.35 px" style="stroke-width:0.35;stroke-miterlimit:4;stroke-dasharray:none;fill:none;fill-opacity:1;fill-rule: evenodd"/>
<path id="Shape2DView_nwe0029"  d="M 9.93 -15.4 L 9.93 1.8000000000000007 " stroke="#191919" stroke-width="0.35 px" style="stroke-width:0.35;stroke-miterlimit:4;stroke-dasharray:none;fill:none;fill-opacity:1;fill-rule: evenodd"/>
<path id="Shape2DView_nwe0030"  d="M -43.17 1.8000000000000007 L -43.17 -15.4 " stroke="#191919" stroke-width="0.35 px" style="stroke-width:0.35;stroke-miterlimit:4;stroke-dasharray:none;fill:none;fill-opacity:1;fill-rule: evenodd"/>
<path id="Shape2DView_nwe0031"  d="M 8.93 -15.2 L 8.879855824363647 -15.2 L 8.731937735804838 -15.2 L 8.493662964936059 -15.2 L 8.176979603717466 -15.2 L 7.797767478235116 -15.2 L 7.375041867912628 -15.2 L 6.93 -15.2 L 6.484958132087371 -15.2 L 6.062232521764884 -15.2 L 5.683020396282533 -15.2 L 5.36633703506394 -15.2 L 5.128062264195162 -15.2 L 4.980144175636353 -15.2 L 4.93 -15.2 " stroke="#191919" stroke-width="0.35 px" style="stroke-width:0.35;stroke-miterlimit:4;stroke-dasharray:none;fill:none;fill-opacity:1;fill-rule: evenodd"/>
<path id="Shape2DView_nwe0032"  d="M -38.17 -15.2 L -38.22014417563636 -15.2 L -38.36806226419516 -15.2 L -38.606337035063945 -15.2 L -38.92302039628253 -15.2 L -39.302232521764886 -15.2 L -39.72495813208737 -15.2 L -40.17 -15.2 L -40.61504186791263 -15.2 L -41.03776747823512 -15.2 L -41.41697960371747 -15.2 L -41.73366296493606 -15.2 L -41.97193773580484 -15.2 L -42.11985582436365 -15.2 L -42.17 -15.2 " stroke="#191919" stroke-width="0.35 px" style="stroke-width:0.35;stroke-miterlimit:4;stroke-dasharray:none;fill:none;fill-opacity:1;fill-rule: evenodd"/>
<path id="Shape2DView_nwe0033"  d="M -43.17 1.8 L -37.67 1.8 " stroke="#191919" stroke-width="0.35 px" style="stroke-width:0.35;stroke-miterlimit:4;stroke-dasharray:none;fill:none;fill-opacity:1;fill-rule: evenodd"/>
<path id="Shape2DView_nwe0034"  d="M 4.429999999999999 1.8 L 9.93 1.8 " stroke="#191919" stroke-width="0.35 px" style="stroke-width:0.35;stroke-miterlimit:4;stroke-dasharray:none;fill:none;fill-opacity:1;fill-rule: evenodd"/>
<path id="Shape2DView_nwe0035"  d="M 5.33 -1.4200000000000002 A 1.6 1.6 0 0 0 8.53 -1.42" stroke="#191919" stroke-width="0.35 px" style="stroke-width:0.35;stroke-miterlimit:4;stroke-dasharray:none;fill:none;fill-opacity:1;fill-rule: evenodd"/>
<path id="Shape2DView_nwe0036"  d="M 5.33 -3.0199999999999996 L 5.33 -1.42 " stroke="#191919" stroke-width="0.35 px" style="stroke-width:0.35;stroke-miterlimit:4;stroke-dasharray:none;fill:none;fill-opacity:1;fill-rule: evenodd"/>
<path id="Shape2DView_nwe0037"  d="M 5.93 -3.02 L 5.33 -3.02 " stroke="#191919" stroke-width="0.35 px" style="stroke-width:0.35;stroke-miterlimit:4;stroke-dasharray:none;fill:none;fill-opacity:1;fill-rule: evenodd"/>
<path id="Shape2DView_nwe0038"  d="M 8.53 -3.02 L 7.93 -3.02 " stroke="#191919" stroke-width="0.35 px" style="stroke-width:0.35;stroke-miterlimit:4;stroke-dasharray:none;fill:none;fill-opacity:1;fill-rule: evenodd"/>
<path id="Shape2DView_nwe0039"  d="M 8.53 -1.42 L 8.53 -3.0199999999999996 " stroke="#191919" stroke-width="0.35 px" style="stroke-width:0.35;stroke-miterlimit:4;stroke-dasharray:none;fill:none;fill-opacity:1;fill-rule: evenodd"/>
<path id="Shape2DView_nwe0040"  d="M -38.57 -1.42 L -38.57 -3.0199999999999996 " stroke="#191919" stroke-width="0.35 px" style="stroke-width:0.35;stroke-miterlimit:4;stroke-dasharray:none;fill:none;fill-opacity:1;fill-rule: evenodd"/>
<path id="Shape2DView_nwe0041"  d="M -41.77 -1.4200000000000002 A 1.6 1.6 0 0 0 -38.57 -1.42" stroke="#191919" stroke-width="0.35 px" style="stroke-width:0.35;stroke-miterlimit:4;stroke-dasharray:none;fill:none;fill-opacity:1;fill-rule: evenodd"/>
<path id="Shape2DView_nwe0042"  d="M -41.77 -3.0199999999999996 L -41.77 -1.42 " stroke="#191919" stroke-width="0.35 px" style="stroke-width:0.35;stroke-miterlimit:4;stroke-dasharray:none;fill:none;fill-opacity:1;fill-rule: evenodd"/>
<path id="Shape2DView_nwe0043"  d="M -41.169999999999845 -4.268999599679805 A 1.6 1.6 0 0 0 -41.77 -3.02" stroke="#191919" stroke-width="0.35 px" style="stroke-width:0.35;stroke-miterlimit:4;stroke-dasharray:none;fill:none;fill-opacity:1;fill-rule: evenodd"/>
<path id="Shape2DView_nwe0044"  d="M -38.57 -3.02 A 1.6 1.6 0 0 0 -39.17 -4.269" stroke="#191919" stroke-width="0.35 px" style="stroke-width:0.35;stroke-miterlimit:4;stroke-dasharray:none;fill:none;fill-opacity:1;fill-rule: evenodd"/>
<path id="Shape2DView_nwe0045"  d="M 8.93 -15.4 L 8.93 -15.2 " stroke="#191919" stroke-width="0.35 px" style="stroke-width:0.35;stroke-miterlimit:4;stroke-dasharray:none;fill:none;fill-opacity:1;fill-rule: evenodd"/>
<path id="Shape2DView_nwe0046"  d="M 7.93 -1.3199999999999998 L 7.93 -1.3206287790106757 L 7.93 -1.3225072087818175 L 7.93 -1.325611666969163 L 7.93 -1.329903113209758 L 7.93 -1.3353275800771716 L 7.93 -1.341816851753197 L 7.93 -1.349289321881345 L 7.93 -1.3576510198141265 L 7.93 -1.3667967923484663 L 7.93 -1.3766116260882442 L 7.93 -1.3869720938044832 L 7.93 -1.3977479066043685 L 7.93 -1.4088035523896691 L 7.93 -1.42 " stroke="#191919" stroke-width="0.35 px" style="stroke-width:0.35;stroke-miterlimit:4;stroke-dasharray:none;fill:none;fill-opacity:1;fill-rule: evenodd"/>
<path id="Shape2DView_nwe0047"  d="M 7.93 -1.42 L 7.93 -15.1 " stroke="#191919" stroke-width="0.35 px" style="stroke-width:0.35;stroke-miterlimit:4;stroke-dasharray:none;fill:none;fill-opacity:1;fill-rule: evenodd"/>
<path id="Shape2DView_nwe0048"  d="M 7.93 -15.2 L 7.93 -15.1 " stroke="#191919" stroke-width="0.35 px" style="stroke-width:0.35;stroke-miterlimit:4;stroke-dasharray:none;fill:none;fill-opacity:1;fill-rule: evenodd"/>
<path id="Shape2DView_nwe0049"  d="M 5.93 -15.1 L 5.93 -15.2 " stroke="#191919" stroke-width="0.35 px" style="stroke-width:0.35;stroke-miterlimit:4;stroke-dasharray:none;fill:none;fill-opacity:1;fill-rule: evenodd"/>
<path id="Shape2DView_nwe0050"  d="M 7.93 -15.1 L 5.93 -15.1 " stroke="#191919" stroke-width="0.35 px" style="stroke-width:0.35;stroke-miterlimit:4;stroke-dasharray:none;fill:none;fill-opacity:1;fill-rule: evenodd"/>
<path id="Shape2DView_nwe0051"  d="M 5.93 -1.3199999999999998 L 5.93 -1.3206287790106757 L 5.93 -1.3225072087818175 L 5.93 -1.325611666969163 L 5.93 -1.329903113209758 L 5.93 -1.3353275800771716 L 5.93 -1.341816851753197 L 5.93 -1.349289321881345 L 5.93 -1.3576510198141265 L 5.93 -1.3667967923484663 L 5.93 -1.3766116260882442 L 5.93 -1.3869720938044832 L 5.93 -1.3977479066043685 L 5.93 -1.4088035523896691 L 5.93 -1.42 " stroke="#191919" stroke-width="0.35 px" style="stroke-width:0.35;stroke-miterlimit:4;stroke-dasharray:none;fill:none;fill-opacity:1;fill-rule: evenodd"/>
<path id="Shape2DView_nwe0052"  d="M 5.93 -15.1 L 5.93 -1.42 " stroke="#191919" stroke-width="0.35 px" style="stroke-width:0.35;stroke-miterlimit:4;stroke-dasharray:none;fill:none;fill-opacity:1;fill-rule: evenodd"/>
<path id="Shape2DView_nwe0053"  d="M -38.17 -15.4 L -38.17 -15.2 " stroke="#191919" stroke-width="0.35 px" style="stroke-width:0.35;stroke-miterlimit:4;stroke-dasharray:none;fill:none;fill-opacity:1;fill-rule: evenodd"/>
<path id="Shape2DView_nwe0054"  d="M -39.17 -1.3199999999999998 L -39.17 -1.3206287790106757 L -39.17 -1.3225072087818175 L -39.17 -1.325611666969163 L -39.17 -1.329903113209758 L -39.17 -1.3353275800771716 L -39.17 -1.341816851753197 L -39.17 -1.349289321881345 L -39.17 -1.3576510198141265 L -39.17 -1.3667967923484663 L -39.17 -1.3766116260882442 L -39.17 -1.3869720938044832 L -39.17 -1.3977479066043685 L -39.17 -1.4088035523896691 L -39.17 -1.42 " stroke="#191919" stroke-width="0.35 px" style="stroke-width:0.35;stroke-miterlimit:4;stroke-dasharray:none;fill:none;fill-opacity:1;fill-rule: evenodd"/>
<path id="Shape2DView_nwe0055"  d="M -39.17 -1.42 L -39.17 -15.1 " stroke="#191919" stroke-width="0.35 px" style="stroke-width:0.35;stroke-miterlimit:4;stroke-dasharray:none;fill:none;fill-opacity:1;fill-rule: evenodd"/>
<path id="Shape2DView_nwe0056"  d="M -39.17 -15.2 L -39.17 -15.1 " stroke="#191919" stroke-width="0.35 px" style="stroke-width:0.35;stroke-miterlimit:4;stroke-dasharray:none;fill:none;fill-opacity:1;fill-rule: evenodd"/>
<path id="Shape2DView_nwe0057"  d="M -41.17 -15.1 L -41.17 -15.2 " stroke="#191919" stroke-width="0.35 px" style="stroke-width:0.35;stroke-miterlimit:4;stroke-dasharray:none;fill:none;fill-opacity:1;fill-rule: evenodd"/>
<path id="Shape2DView_nwe0058"  d="M -39.17 -15.1 L -41.17 -15.1 " stroke="#191919" stroke-width="0.35 px" style="stroke-width:0.35;stroke-miterlimit:4;stroke-dasharray:none;fill:none;fill-opacity:1;fill-rule: evenodd"/>
<path id="Shape2DView_nwe0059"  d="M -41.17 -15.1 L -41.17 -1.42 " stroke="#191919" stroke-width="0.35 px" style="stroke-width:0.35;stroke-miterlimit:4;stroke-dasharray:none;fill:none;fill-opacity:1;fill-rule: evenodd"/>
<path id="Shape2DView_nwe0060"  d="M -41.17 -1.3199999999999998 L -41.17 -1.3206287790106757 L -41.17 -1.3225072087818175 L -41.17 -1.325611666969163 L -41.17 -1.329903113209758 L -41.17 -1.3353275800771716 L -41.17 -1.341816851753197 L -41.17 -1.349289321881345 L -41.17 -1.3576510198141265 L -41.17 -1.3667967923484663 L -41.17 -1.3766116260882442 L -41.17 -1.3869720938044832 L -41.17 -1.3977479066043685 L -41.17 -1.4088035523896691 L -41.17 -1.42 " stroke="#191919" stroke-width="0.35 px" style="stroke-width:0.35;stroke-miterlimit:4;stroke-dasharray:none;fill:none;fill-opacity:1;fill-rule: evenodd"/>
<path id="Shape2DView_nwe0061"  d="M 5.93 -1.32 L 7.93 -1.32 " stroke="#191919" stroke-width="0.35 px" style="stroke-width:0.35;stroke-miterlimit:4;stroke-dasharray:none;fill:none;fill-opacity:1;fill-rule: evenodd"/>
<path id="Shape2DView_nwe0062"  d="M -41.17 -1.32 L -39.17 -1.32 " stroke="#191919" stroke-width="0.35 px" style="stroke-width:0.35;stroke-miterlimit:4;stroke-dasharray:none;fill:none;fill-opacity:1;fill-rule: evenodd"/>
<path id="Shape2DView_nwe0063"  d="M -34.4740820053 -23.7 L -34.4740820053 -23.8 " stroke="#191919" stroke-width="0.35 px" style="stroke-width:0.35;stroke-miterlimit:4;stroke-dasharray:none;fill:none;fill-opacity:1;fill-rule: evenodd"/>
<path id="Shape2DView_nwe0064"  d="M 1.234082005303 -23.7 L 1.234082005303 -23.8 " stroke="#191919" stroke-width="0.35 px" style="stroke-width:0.35;stroke-miterlimit:4;stroke-dasharray:none;fill:none;fill-opacity:1;fill-rule: evenodd"/>
<path id="Shape2DView_nwe0065"  d="M -34.4740820053 -23.5 L -34.4740820053 -23.7 " stroke="#191919" stroke-width="0.35 px" style="stroke-width:0.35;stroke-miterlimit:4;stroke-dasharray:none;fill:none;fill-opacity:1;fill-rule: evenodd"/>
<path id="Shape2DView_nwe0066"  d="M 1.234082005303 -23.5 L 1.234082005303 -23.7 " stroke="#191919" stroke-width="0.35 px" style="stroke-width:0.35;stroke-miterlimit:4;stroke-dasharray:none;fill:none;fill-opacity:1;fill-rule: evenodd"/>
<path id="Shape2DView_nwe0067"  d="M -34.57943192049 -23.5 L -34.57943192049 -23.45 " stroke="#191919" stroke-width="0.35 px" style="stroke-width:0.35;stroke-miterlimit:4;stroke-dasharray:none;fill:none;fill-opacity:1;fill-rule: evenodd"/>
<path id="Shape2DView_nwe0068"  d="M 1.339431920499 -23.5 L 1.339431920499 -23.45 " stroke="#191919" stroke-width="0.35 px" style="stroke-width:0.35;stroke-miterlimit:4;stroke-dasharray:none;fill:none;fill-opacity:1;fill-rule: evenodd"/>
<path id="Shape2DView_nwe0069"  d="M -34.57943192049 -18.3 L -34.57943192049 -23.45 " stroke="#191919" stroke-width="0.35 px" style="stroke-width:0.35;stroke-miterlimit:4;stroke-dasharray:none;fill:none;fill-opacity:1;fill-rule: evenodd"/>
<path id="Shape2DView_nwe0070"  d="M -35.57943192049 -18.3 L -35.57314413038324 -18.3 L -35.55435983267183 -18.3 L -35.52331525079837 -18.3 L -35.48040078839242 -18.3 L -35.426156119718286 -18.3 L -35.36126340295803 -18.3 L -35.28653870167655 -18.3 L -35.202921722348734 -18.3 L -35.11146399700534 -18.3 L -35.01331565960756 -18.3 L -34.90971098244517 -18.3 L -34.80195285444632 -18.3 L -34.69139639659331 -18.3 L -34.57943192049 -18.3 " stroke="#191919" stroke-width="0.35 px" style="stroke-width:0.35;stroke-miterlimit:4;stroke-dasharray:none;fill:none;fill-opacity:1;fill-rule: evenodd"/>
<path id="Shape2DView_nwe0071"  d="M 1.339431920499 -18.3 L 1.339431920499 -23.45 " stroke="#191919" stroke-width="0.35 px" style="stroke-width:0.35;stroke-miterlimit:4;stroke-dasharray:none;fill:none;fill-opacity:1;fill-rule: evenodd"/>
<path id="Shape2DView_nwe0072"  d="M -34.57943192049 -18.3 L 1.3394319204990026 -18.3 " stroke="#191919" stroke-width="0.35 px" style="stroke-width:0.35;stroke-miterlimit:4;stroke-dasharray:none;fill:none;fill-opacity:1;fill-rule: evenodd"/>
<path id="Shape2DView_nwe0073"  d="M 1.339431920499 -18.3 L 1.4513963966023078 -18.3 L 1.5619528544553143 -18.3 L 1.6697109824541672 -18.3 L 1.773315659616558 -18.3 L 1.8714639970143365 -18.3 L 1.9629217223577333 -18.3 L 2.0465387016855474 -18.3 L 2.12126340296703 -18.3 L 2.186156119727284 -18.3 L 2.240400788401419 -18.3 L 2.2833152508073677 -18.3 L 2.3143598326808235 -18.3 L 2.3331441303922427 -18.3 L 2.339431920499 -18.3 " stroke="#191919" stroke-width="0.35 px" style="stroke-width:0.35;stroke-miterlimit:4;stroke-dasharray:none;fill:none;fill-opacity:1;fill-rule: evenodd"/>
<path id="Shape2DView_nwe0074"  d="M -34.57943192049 -18.3 L -34.57943192049 -18.232821314338015 L -34.57943192049 -18.166487439626213 L -34.57943192049 -18.1018325628269 L -34.57943192049 -18.039669756529467 L -34.57943192049 -17.980780754090798 L -34.57943192049 -17.92590611888476 L -34.57943192049 -17.875735931288073 L -34.57943192049 -17.830901110519182 L -34.57943192049 -17.79196548046303 L -34.57943192049 -17.75941867925855 L -34.57943192049 -17.73367000181498 L -34.57943192049 -17.715043252690908 L -34.57943192049 -17.703772674064055 L -34.57943192049 -17.7 " stroke="#191919" stroke-width="0.35 px" style="stroke-width:0.35;stroke-miterlimit:4;stroke-dasharray:none;fill:none;fill-opacity:1;fill-rule: evenodd"/>
<path id="Shape2DView_nwe0075"  d="M 1.339431920499 -18.3 L 1.339431920499 -18.232821314338015 L 1.339431920499 -18.166487439626213 L 1.339431920499 -18.1018325628269 L 1.339431920499 -18.039669756529467 L 1.339431920499 -17.980780754090798 L 1.339431920499 -17.92590611888476 L 1.339431920499 -17.875735931288073 L 1.339431920499 -17.830901110519182 L 1.339431920499 -17.79196548046303 L 1.339431920499 -17.75941867925855 L 1.339431920499 -17.73367000181498 L 1.339431920499 -17.715043252690908 L 1.339431920499 -17.703772674064055 L 1.339431920499 -17.7 " stroke="#191919" stroke-width="0.35 px" style="stroke-width:0.35;stroke-miterlimit:4;stroke-dasharray:none;fill:none;fill-opacity:1;fill-rule: evenodd"/>
<path id="Shape2DView_nwe0076"  d="M 8.93 -17.6 L -42.17 -17.6 " stroke="#191919" stroke-width="0.35 px" style="stroke-width:0.35;stroke-miterlimit:4;stroke-dasharray:none;fill:none;fill-opacity:1;fill-rule: evenodd"/>
<path id="Shape2DView_nwe0077"  d="M -42.17 -17.6 L -42.17 -17.611196447610332 L -42.17 -17.622252093395634 L -42.17 -17.63302790619552 L -42.17 -17.64338837391176 L -42.17 -17.653203207651536 L -42.17 -17.662348980185875 L -42.17 -17.670710678118656 L -42.17 -17.678183148246806 L -42.17 -17.68467241992283 L -42.17 -17.690096886790244 L -42.17 -17.694388333030837 L -42.17 -17.697492791218185 L -42.17 -17.699371220989327 L -42.17 -17.700000000000003 " stroke="#191919" stroke-width="0.35 px" style="stroke-width:0.35;stroke-miterlimit:4;stroke-dasharray:none;fill:none;fill-opacity:1;fill-rule: evenodd"/>
<path id="Shape2DView_nwe0078"  d="M 8.93 -17.6 L 8.93 -17.611196447610332 L 8.93 -17.622252093395634 L 8.93 -17.63302790619552 L 8.93 -17.64338837391176 L 8.93 -17.653203207651536 L 8.93 -17.662348980185875 L 8.93 -17.670710678118656 L 8.93 -17.678183148246806 L 8.93 -17.68467241992283 L 8.93 -17.690096886790244 L 8.93 -17.694388333030837 L 8.93 -17.697492791218185 L 8.93 -17.699371220989327 L 8.93 -17.700000000000003 " stroke="#191919" stroke-width="0.35 px" style="stroke-width:0.35;stroke-miterlimit:4;stroke-dasharray:none;fill:none;fill-opacity:1;fill-rule: evenodd"/>
<path id="Shape2DView_nwe0079"  d="M 9.93 -17.6 L 9.923712209893242 -17.6 L 9.904927912181824 -17.6 L 9.873883330308367 -17.6 L 9.830968867902419 -17.6 L 9.776724199228283 -17.6 L 9.71183148246803 -17.6 L 9.637106781186548 -17.6 L 9.553489801858733 -17.6 L 9.462032076515337 -17.6 L 9.363883739117558 -17.6 L 9.260279061955167 -17.6 L 9.152520933956314 -17.6 L 9.041964476103308 -17.6 L 8.93 -17.6 " stroke="#191919" stroke-width="0.35 px" style="stroke-width:0.35;stroke-miterlimit:4;stroke-dasharray:none;fill:none;fill-opacity:1;fill-rule: evenodd"/>
<path id="Shape2DView_nwe0080"  d="M -42.17 -17.6 L -42.28196447610331 -17.6 L -42.39252093395632 -17.6 L -42.50027906195517 -17.6 L -42.60388373911756 -17.6 L -42.70203207651534 -17.6 L -42.79348980185873 -17.6 L -42.87710678118655 -17.6 L -42.95183148246803 -17.6 L -43.016724199228285 -17.6 L -43.07096886790242 -17.6 L -43.11388333030837 -17.6 L -43.14492791218183 -17.6 L -43.16371220989324 -17.6 L -43.17 -17.6 " stroke="#191919" stroke-width="0.35 px" style="stroke-width:0.35;stroke-miterlimit:4;stroke-dasharray:none;fill:none;fill-opacity:1;fill-rule: evenodd"/>
<path id="Shape2DView_nwe0081"  d="M -42.17 -17.4 L -42.17 -17.6 " stroke="#191919" stroke-width="0.35 px" style="stroke-width:0.35;stroke-miterlimit:4;stroke-dasharray:none;fill:none;fill-opacity:1;fill-rule: evenodd"/>
<path id="Shape2DView_nwe0082"  d="M 8.93 -17.4 L 8.93 -17.6 " stroke="#191919" stroke-width="0.35 px" style="stroke-width:0.35;stroke-miterlimit:4;stroke-dasharray:none;fill:none;fill-opacity:1;fill-rule: evenodd"/>
<path id="Shape2DView_nwe0083"  d="M 8.93 -17.4 L 8.93 -15.4 " stroke="#191919" stroke-width="0.35 px" style="stroke-width:0.35;stroke-miterlimit:4;stroke-dasharray:none;fill:none;fill-opacity:1;fill-rule: evenodd"/>
<path id="Shape2DView_nwe0084"  d="M -42.17 -17.4 L -42.17 -15.4 " stroke="#191919" stroke-width="0.35 px" style="stroke-width:0.35;stroke-miterlimit:4;stroke-dasharray:none;fill:none;fill-opacity:1;fill-rule: evenodd"/>
<path id="Shape2DView_nwe0085"  d="M 5.93 -1.42 L 7.93 -1.42 " stroke="#191919" stroke-width="0.35 px" style="stroke-width:0.35;stroke-miterlimit:4;stroke-dasharray:none;fill:none;fill-opacity:1;fill-rule: evenodd"/>
<path id="Shape2DView_nwe0086"  d="M -41.17 -1.42 L -39.17 -1.42 " stroke="#191919" stroke-width="0.35 px" style="stroke-width:0.35;stroke-miterlimit:4;stroke-dasharray:none;fill:none;fill-opacity:1;fill-rule: evenodd"/>
<path id="Shape2DView_nwe0087"  d="M 8.93 -17.4 L -42.17 -17.4 " stroke="#191919" stroke-width="0.35 px" style="stroke-width:0.35;stroke-miterlimit:4;stroke-dasharray:none;fill:none;fill-opacity:1;fill-rule: evenodd"/>
<path id="Shape2DView_nwe0088"  d="M 8.93 -17.4 L 9.041964476103308 -17.4 L 9.152520933956314 -17.4 L 9.260279061955167 -17.4 L 9.363883739117558 -17.4 L 9.462032076515337 -17.4 L 9.553489801858733 -17.4 L 9.637106781186548 -17.4 L 9.71183148246803 -17.4 L 9.776724199228283 -17.4 L 9.830968867902419 -17.4 L 9.873883330308367 -17.4 L 9.904927912181824 -17.4 L 9.923712209893242 -17.4 L 9.93 -17.4 " stroke="#191919" stroke-width="0.35 px" style="stroke-width:0.35;stroke-miterlimit:4;stroke-dasharray:none;fill:none;fill-opacity:1;fill-rule: evenodd"/>
<path id="Shape2DView_nwe0089"  d="M -42.17 -17.4 L -42.28196447610331 -17.4 L -42.39252093395632 -17.4 L -42.50027906195517 -17.4 L -42.60388373911756 -17.4 L -42.70203207651534 -17.4 L -42.79348980185873 -17.4 L -42.87710678118655 -17.4 L -42.95183148246803 -17.4 L -43.016724199228285 -17.4 L -43.07096886790242 -17.4 L -43.11388333030837 -17.4 L -43.14492791218183 -17.4 L -43.16371220989324 -17.4 L -43.17 -17.4 " stroke="#191919" stroke-width="0.35 px" style="stroke-width:0.35;stroke-miterlimit:4;stroke-dasharray:none;fill:none;fill-opacity:1;fill-rule: evenodd"/>
<path id="Shape2DView_nwe0090"  d="M -35.37408200530004 -23.800000000000047 L -35.4740820053 -23.7 " stroke="#191919" stroke-width="0.35 px" style="stroke-width:0.35;stroke-miterlimit:4;stroke-dasharray:none;fill:none;fill-opacity:1;fill-rule: evenodd"/>
<path id="Shape2DView_nwe0091"  d="M 2.1340820053030445 -23.800000000000043 L 2.2340820053029997 -23.7 " stroke="#191919" stroke-width="0.35 px" style="stroke-width:0.35;stroke-miterlimit:4;stroke-dasharray:none;fill:none;fill-opacity:1;fill-rule: evenodd"/>
<path id="Shape2DView_nwe0092"  d="M -35.4740820053 -23.5 L -35.4740820053 -23.7 " stroke="#191919" stroke-width="0.35 px" style="stroke-width:0.35;stroke-miterlimit:4;stroke-dasharray:none;fill:none;fill-opacity:1;fill-rule: evenodd"/>
<path id="Shape2DView_nwe0093"  d="M 2.2340820053029997 -23.5 L 2.2340820053029997 -23.7 " stroke="#191919" stroke-width="0.35 px" style="stroke-width:0.35;stroke-miterlimit:4;stroke-dasharray:none;fill:none;fill-opacity:1;fill-rule: evenodd"/>
<path id="Shape2DView_nwe0094"  d="M -35.529431920490026 -23.50000000000002 L -35.57943192049 -23.45 " stroke="#191919" stroke-width="0.35 px" style="stroke-width:0.35;stroke-miterlimit:4;stroke-dasharray:none;fill:none;fill-opacity:1;fill-rule: evenodd"/>
<path id="Shape2DView_nwe0095"  d="M 2.2894319204990223 -23.50000000000002 L 2.339431920499 -23.45 " stroke="#191919" stroke-width="0.35 px" style="stroke-width:0.35;stroke-miterlimit:4;stroke-dasharray:none;fill:none;fill-opacity:1;fill-rule: evenodd"/>
<path id="Shape2DView_nwe0096"  d="M -35.57943192049 -18.3 L -35.57943192049 -23.45 " stroke="#191919" stroke-width="0.35 px" style="stroke-width:0.35;stroke-miterlimit:4;stroke-dasharray:none;fill:none;fill-opacity:1;fill-rule: evenodd"/>
<path id="Shape2DView_nwe0097"  d="M 2.339431920499 -18.3 L 2.339431920499 -23.45 " stroke="#191919" stroke-width="0.35 px" style="stroke-width:0.35;stroke-miterlimit:4;stroke-dasharray:none;fill:none;fill-opacity:1;fill-rule: evenodd"/>
<path id="Shape2DView_nwe0098"  d="M -35.57943192049 -18.3 Q -35.58717989816655 -18.23225961849466 -35.5949278758431 -18.164519236989314 Q -35.62543109604471 -18.085673246045573 -35.655934316246324 -18.00682725510183 Q -35.83467360085368 -17.711785780527222 -36.17943192049 -17.7 " stroke="#191919" stroke-width="0.35 px" style="stroke-width:0.35;stroke-miterlimit:4;stroke-dasharray:none;fill:none;fill-opacity:1;fill-rule: evenodd"/>
<path id="Shape2DView_nwe0099"  d="M 2.339431920499 -18.3 Q 2.392720624478393 -17.753409852259054 2.9394319204989996 -17.7 " stroke="#191919" stroke-width="0.35 px" style="stroke-width:0.35;stroke-miterlimit:4;stroke-dasharray:none;fill:none;fill-opacity:1;fill-rule: evenodd"/>
<path id="Shape2DView_nwe0100"  d="M 5.230018548425556 -17.700000000000003 L 5.2299999999999995 -17.700000000000003 " stroke="#191919" stroke-width="0.35 px" style="stroke-width:0.35;stroke-miterlimit:4;stroke-dasharray:none;fill:none;fill-opacity:1;fill-rule: evenodd"/>
<path id="Shape2DView_nwe0101"  d="M -41.86998145157444 -17.700000000000003 L -41.870000000000005 -17.700000000000003 " stroke="#191919" stroke-width="0.35 px" style="stroke-width:0.35;stroke-miterlimit:4;stroke-dasharray:none;fill:none;fill-opacity:1;fill-rule: evenodd"/>
<path id="Shape2DView_nwe0102"  d="M 4.93 -15.200000000000001 L 4.93 -15.400000000000002 " stroke="#191919" stroke-width="0.35 px" style="stroke-width:0.35;stroke-miterlimit:4;stroke-dasharray:none;fill:none;fill-opacity:1;fill-rule: evenodd"/>
<path id="Shape2DView_nwe0103"  d="M -42.17 -15.200000000000001 L -42.17 -15.400000000000002 " stroke="#191919" stroke-width="0.35 px" style="stroke-width:0.35;stroke-miterlimit:4;stroke-dasharray:none;fill:none;fill-opacity:1;fill-rule: evenodd"/>
<title>b'Shape2DView'</title>
</g>
<g id="Rectangle" transform="translate(43.701000,2.331000) scale(1,-1)">
<rect fill="#ff0000" id="origin" width="1" height="1" x="0" y="0" />
<title>b'Rectangle'</title>
</g>
</svg>