<?xml version="1.0"?>
<!DOCTYPE svg PUBLIC "-//W3C//DTD SVG 1.1//EN" "http://www.w3.org/Graphics/SVG/1.1/DTD/svg11.dtd">
<svg width="39.984mm" height="26.08400000000002mm" viewBox="0 0 39.984 26.08400000000002" xmlns="http://www.w3.org/2000/svg" version="1.1">
<g id="Shape2DView" transform="translate(10.297000,2.192000) scale(1,-1)">
<path id="Shape2DView_nwe0000"  d="M -1.864431920499 -23.5 L -1.9707981727971426 -23.5 L -2.075826807757499 -23.5 L -2.178197029356409 -23.5 L -2.2766214726606804 -23.5 L -2.36986239318857 -23.5 L -2.4567472322647967 -23.5 L -2.53618336262622 -23.5 L -2.6071718288436285 -23.5 L -2.66881990976587 -23.5 L -2.7203523450062983 -23.5 L -2.761121084291949 -23.5 L -2.7906134370717326 -23.5 L -2.8084585198975804 -23.5 L -2.814431920499 -23.5 " stroke="#191919" stroke-width="0.35 px" style="stroke-width:0.35;stroke-miterlimit:4;stroke-dasharray:none;fill:none;fill-opacity:1;fill-rule: evenodd"/>
<path id="Shape2DView_nwe0001"  d="M 21.254431920499 -23.5 L -1.8644319204990012 -23.5 " stroke="#191919" stroke-width="0.35 px" style="stroke-width:0.35;stroke-miterlimit:4;stroke-dasharray:none;fill:none;fill-opacity:1;fill-rule: evenodd"/>
<path id="Shape2DView_nwe0002"  d="M 22.204431920499 -23.5 L 22.19845851989758 -23.5 L 22.180613437071734 -23.5 L 22.15112108429195 -23.5 L 22.1103523450063 -23.5 L 22.058819909765873 -23.5 L 21.99717182884363 -23.5 L 21.926183362626222 -23.5 L 21.8467472322648 -23.5 L 21.759862393188573 -23.5 L 21.666621472660683 -23.5 L 21.568197029356412 -23.5 L 21.4658268077575 -23.5 L 21.360798172797146 -23.5 L 21.254431920499 -23.5 " stroke="#191919" stroke-width="0.35 px" style="stroke-width:0.35;stroke-miterlimit:4;stroke-dasharray:none;fill:none;fill-opacity:1;fill-rule: evenodd"/>
<path id="Shape2DView_nwe0003"  d="M -1.864431920499 -23.45 L -1.976396396602308 -23.45 L -2.0869528544553146 -23.45 L -2.194710982454167 -23.45 L -2.2983156596165584 -23.45 L -2.3964639970143367 -23.45 L -2.4879217223577337 -23.45 L -2.5715387016855473 -23.45 L -2.6462634029670298 -23.45 L -2.711156119727284 -23.45 L -2.7654007884014193 -23.45 L -2.8083152508073677 -23.45 L -2.839359832680824 -23.45 L -2.8581441303922426 -23.45 L -2.8644319204990003 -23.45 " stroke="#191919" stroke-width="0.35 px" style="stroke-width:0.35;stroke-miterlimit:4;stroke-dasharray:none;fill:none;fill-opacity:1;fill-rule: evenodd"/>
<path id="Shape2DView_nwe0004"  d="M 21.254431920499 -23.45 L -1.8644319204990012 -23.45 " stroke="#191919" stroke-width="0.35 px" style="stroke-width:0.35;stroke-miterlimit:4;stroke-dasharray:none;fill:none;fill-opacity:1;fill-rule: evenodd"/>
<path id="Shape2DView_nwe0005"  d="M 22.254431920499 -23.45 L 22.248144130392244 -23.45 L 22.229359832680824 -23.45 L 22.19831525080737 -23.45 L 22.155400788401423 -23.45 L 22.101156119727285 -23.45 L 22.03626340296703 -23.45 L 21.961538701685548 -23.45 L 21.877921722357737 -23.45 L 21.786463997014337 -23.45 L 21.68831565961656 -23.45 L 21.58471098245417 -23.45 L 21.476952854455316 -23.45 L 21.366396396602312 -23.45 L 21.254431920499 -23.45 " stroke="#191919" stroke-width="0.35 px" style="stroke-width:0.35;stroke-miterlimit:4;stroke-dasharray:none;fill:none;fill-opacity:1;fill-rule: evenodd"/>
<path id="Shape2DView_nwe0006"  d="M -8.905 -17.7 L -9.005768028492977 -17.7 L -9.105268840560683 -17.7 L -9.20225115575965 -17.7 L -9.295495365205802 -17.7 L -9.383828868863802 -17.7 L -9.466140821672859 -17.7 L -9.541396103067893 -17.7 L -9.608648334221225 -17.7 L -9.667051779305455 -17.7 L -9.715871981112176 -17.7 L -9.754494997277531 -17.7 L -9.78243512096364 -17.7 L -9.799340988903918 -17.7 L -9.805 -17.7 " stroke="#191919" stroke-width="0.35 px" style="stroke-width:0.35;stroke-miterlimit:4;stroke-dasharray:none;fill:none;fill-opacity:1;fill-rule: evenodd"/>
<path id="Shape2DView_nwe0007"  d="M 29.195 -17.7 L 29.18934098890392 -17.7 L 29.172435120963645 -17.7 L 29.144494997277533 -17.7 L 29.10587198111218 -17.7 L 29.057051779305457 -17.7 L 28.99864833422123 -17.7 L 28.931396103067893 -17.7 L 28.856140821672863 -17.7 L 28.773828868863806 -17.7 L 28.685495365205803 -17.7 L 28.59225115575965 -17.7 L 28.495268840560684 -17.7 L 28.395768028492977 -17.7 L 28.295 -17.7 " stroke="#191919" stroke-width="0.35 px" style="stroke-width:0.35;stroke-miterlimit:4;stroke-dasharray:none;fill:none;fill-opacity:1;fill-rule: evenodd"/>
<path id="Shape2DView_nwe0008"  d="M 28.295 -17.7 L -8.905000000000001 -17.7 " stroke="#191919" stroke-width="0.35 px" style="stroke-width:0.35;stroke-miterlimit:4;stroke-dasharray:none;fill:none;fill-opacity:1;fill-rule: evenodd"/>
<path id="Shape2DView_nwe0009"  d="M -9.905 -17.6 A 0.1 0.1 0 0 1 -9.805 -17.7" stroke="#191919" stroke-width="0.35 px" style="stroke-width:0.35;stroke-miterlimit:4;stroke-dasharray:none;fill:none;fill-opacity:1;fill-rule: evenodd"/>
<path id="Shape2DView_nwe0010"  d="M 29.295 -17.6 A 0.1 0.1 0 0 0 29.195 -17.7" stroke="#191919" stroke-width="0.35 px" style="stroke-width:0.35;stroke-miterlimit:4;stroke-dasharray:none;fill:none;fill-opacity:1;fill-rule: evenodd"/>
<path id="Shape2DView_nwe0011"  d="M -9.905 -17.4 L -9.905 -17.6 " stroke="#191919" stroke-width="0.35 px" style="stroke-width:0.35;stroke-miterlimit:4;stroke-dasharray:none;fill:none;fill-opacity:1;fill-rule: evenodd"/>
<path id="Shape2DView_nwe0012"  d="M 29.295 -17.4 L 29.295 -17.6 " stroke="#191919" stroke-width="0.35 px" style="stroke-width:0.35;stroke-miterlimit:4;stroke-dasharray:none;fill:none;fill-opacity:1;fill-rule: evenodd"/>
<path id="Shape2DView_nwe0013"  d="M -9.905 -15.4 L -9.898712209893242 -15.4 L -9.879927912181824 -15.4 L -9.848883330308366 -15.4 L -9.805968867902418 -15.4 L -9.751724199228283 -15.4 L -9.68683148246803 -15.4 L -9.612106781186547 -15.4 L -9.528489801858733 -15.4 L -9.437032076515337 -15.4 L -9.338883739117557 -15.4 L -9.235279061955167 -15.4 L -9.127520933956314 -15.4 L -9.016964476103308 -15.4 L -8.905 -15.4 " stroke="#191919" stroke-width="0.35 px" style="stroke-width:0.35;stroke-miterlimit:4;stroke-dasharray:none;fill:none;fill-opacity:1;fill-rule: evenodd"/>
<path id="Shape2DView_nwe0014"  d="M -9.905 -17.4 L -9.905 -15.4 " stroke="#191919" stroke-width="0.35 px" style="stroke-width:0.35;stroke-miterlimit:4;stroke-dasharray:none;fill:none;fill-opacity:1;fill-rule: evenodd"/>
<path id="Shape2DView_nwe0015"  d="M 23.795 -15.4 L 28.295 -15.4 " stroke="#191919" stroke-width="0.35 px" style="stroke-width:0.35;stroke-miterlimit:4;stroke-dasharray:none;fill:none;fill-opacity:1;fill-rule: evenodd"/>
<path id="Shape2DView_nwe0016"  d="M 23.795 1.8000000000000007 L 23.795 -15.4 " stroke="#191919" stroke-width="0.35 px" style="stroke-width:0.35;stroke-miterlimit:4;stroke-dasharray:none;fill:none;fill-opacity:1;fill-rule: evenodd"/>
<path id="Shape2DView_nwe0017"  d="M 23.795 1.8 L -4.405000000000001 1.8 " stroke="#191919" stroke-width="0.35 px" style="stroke-width:0.35;stroke-miterlimit:4;stroke-dasharray:none;fill:none;fill-opacity:1;fill-rule: evenodd"/>
<path id="Shape2DView_nwe0018"  d="M -4.405 -15.4 L -4.405 1.8000000000000007 " stroke="#191919" stroke-width="0.35 px" style="stroke-width:0.35;stroke-miterlimit:4;stroke-dasharray:none;fill:none;fill-opacity:1;fill-rule: evenodd"/>
<path id="Shape2DView_nwe0019"  d="M -8.905000000000001 -15.4 L -4.405000000000001 -15.4 " stroke="#191919" stroke-width="0.35 px" style="stroke-width:0.35;stroke-miterlimit:4;stroke-dasharray:none;fill:none;fill-opacity:1;fill-rule: evenodd"/>
<path id="Shape2DView_nwe0020"  d="M -9.905 1.8000000000000007 L -9.905 -15.4 " stroke="#191919" stroke-width="0.35 px" style="stroke-width:0.35;stroke-miterlimit:4;stroke-dasharray:none;fill:none;fill-opacity:1;fill-rule: evenodd"/>
<path id="Shape2DView_nwe0021"  d="M 29.295 -17.4 L 29.295 -15.4 " stroke="#191919" stroke-width="0.35 px" style="stroke-width:0.35;stroke-miterlimit:4;stroke-dasharray:none;fill:none;fill-opacity:1;fill-rule: evenodd"/>
<path id="Shape2DView_nwe0022"  d="M 28.295 -15.4 L 28.406964476103308 -15.4 L 28.517520933956316 -15.4 L 28.62527906195517 -15.4 L 28.72888373911756 -15.4 L 28.827032076515337 -15.4 L 28.918489801858737 -15.4 L 29.002106781186548 -15.4 L 29.07683148246803 -15.4 L 29.141724199228285 -15.4 L 29.195968867902423 -15.4 L 29.23888333030837 -15.4 L 29.269927912181824 -15.4 L 29.288712209893244 -15.4 L 29.295 -15.4 " stroke="#191919" stroke-width="0.35 px" style="stroke-width:0.35;stroke-miterlimit:4;stroke-dasharray:none;fill:none;fill-opacity:1;fill-rule: evenodd"/>
<path id="Shape2DView_nwe0023"  d="M 29.295 -15.4 L 29.295 1.8000000000000007 " stroke="#191919" stroke-width="0.35 px" style="stroke-width:0.35;stroke-miterlimit:4;stroke-dasharray:none;fill:none;fill-opacity:1;fill-rule: evenodd"/>
<path id="Shape2DView_nwe0024"  d="M 28.345 -15.35 L 28.294855824363648 -15.35 L 28.146937735804837 -15.35 L 27.90866296493606 -15.35 L 27.591979603717466 -15.35 L 27.212767478235115 -15.35 L 26.790041867912628 -15.35 L 26.345 -15.35 L 25.89995813208737 -15.35 L 25.477232521764883 -15.35 L 25.098020396282532 -15.35 L 24.781337035063938 -15.35 L 24.54306226419516 -15.35 L 24.39514417563635 -15.35 L 24.345 -15.35 " stroke="#191919" stroke-width="0.35 px" style="stroke-width:0.35;stroke-miterlimit:4;stroke-dasharray:none;fill:none;fill-opacity:1;fill-rule: evenodd"/>
<path id="Shape2DView_nwe0025"  d="M -4.955 -15.35 L -5.005144175636353 -15.35 L -5.153062264195162 -15.35 L -5.39133703506394 -15.35 L -5.708020396282533 -15.35 L -6.087232521764884 -15.35 L -6.509958132087371 -15.35 L -6.955 -15.35 L -7.400041867912629 -15.35 L -7.822767478235116 -15.35 L -8.201979603717467 -15.35 L -8.518662964936059 -15.35 L -8.756937735804838 -15.35 L -8.904855824363647 -15.35 L -8.955 -15.35 " stroke="#191919" stroke-width="0.35 px" style="stroke-width:0.35;stroke-miterlimit:4;stroke-dasharray:none;fill:none;fill-opacity:1;fill-rule: evenodd"/>
<path id="Shape2DView_nwe0026"  d="M -9.905 1.8 L -4.405 1.8 " stroke="#191919" stroke-width="0.35 px" style="stroke-width:0.35;stroke-miterlimit:4;stroke-dasharray:none;fill:none;fill-opacity:1;fill-rule: evenodd"/>
<path id="Shape2DView_nwe0027"  d="M 23.795 1.8 L 29.295 1.8 " stroke="#191919" stroke-width="0.35 px" style="stroke-width:0.35;stroke-miterlimit:4;stroke-dasharray:none;fill:none;fill-opacity:1;fill-rule: evenodd"/>
<path id="Shape2DView_nwe0028"  d="M -5.355 -9.2 L -5.355 -10.8 " stroke="#191919" stroke-width="0.35 px" style="stroke-width:0.35;stroke-miterlimit:4;stroke-dasharray:none;fill:none;fill-opacity:1;fill-rule: evenodd"/>
<path id="Shape2DView_nwe0029"  d="M -8.555 -9.2 A 1.6 1.6 0 0 0 -5.355 -9.2" stroke="#191919" stroke-width="0.35 px" style="stroke-width:0.35;stroke-miterlimit:4;stroke-dasharray:none;fill:none;fill-opacity:1;fill-rule: evenodd"/>
<path id="Shape2DView_nwe0030"  d="M -8.555 -10.8 L -8.555 -9.2 " stroke="#191919" stroke-width="0.35 px" style="stroke-width:0.35;stroke-miterlimit:4;stroke-dasharray:none;fill:none;fill-opacity:1;fill-rule: evenodd"/>
<path id="Shape2DView_nwe0031"  d="M -7.954999999999845 -12.048999599679805 A 1.6 1.6 0 0 0 -8.555 -10.8" stroke="#191919" stroke-width="0.35 px" style="stroke-width:0.35;stroke-miterlimit:4;stroke-dasharray:none;fill:none;fill-opacity:1;fill-rule: evenodd"/>
<path id="Shape2DView_nwe0032"  d="M -5.355 -10.8 A 1.6 1.6 0 0 0 -5.955 -12.049" stroke="#191919" stroke-width="0.35 px" style="stroke-width:0.35;stroke-miterlimit:4;stroke-dasharray:none;fill:none;fill-opacity:1;fill-rule: evenodd"/>
<path id="Shape2DView_nwe0033"  d="M 24.744999999999997 -9.2 A 1.6 1.6 0 0 0 27.945 -9.2" stroke="#191919" stroke-width="0.35 px" style="stroke-width:0.35;stroke-miterlimit:4;stroke-dasharray:none;fill:none;fill-opacity:1;fill-rule: evenodd"/>
<path id="Shape2DView_nwe0034"  d="M 24.745 -10.8 L 24.745 -9.2 " stroke="#191919" stroke-width="0.35 px" style="stroke-width:0.35;stroke-miterlimit:4;stroke-dasharray:none;fill:none;fill-opacity:1;fill-rule: evenodd"/>
<path id="Shape2DView_nwe0035"  d="M 25.345 -10.8 L 24.745 -10.8 " stroke="#191919" stroke-width="0.35 px" style="stroke-width:0.35;stroke-miterlimit:4;stroke-dasharray:none;fill:none;fill-opacity:1;fill-rule: evenodd"/>
<path id="Shape2DView_nwe0036"  d="M 27.945 -10.8 L 27.345 -10.8 " stroke="#191919" stroke-width="0.35 px" style="stroke-width:0.35;stroke-miterlimit:4;stroke-dasharray:none;fill:none;fill-opacity:1;fill-rule: evenodd"/>
<path id="Shape2DView_nwe0037"  d="M 27.945 -9.2 L 27.945 -10.8 " stroke="#191919" stroke-width="0.35 px" style="stroke-width:0.35;stroke-miterlimit:4;stroke-dasharray:none;fill:none;fill-opacity:1;fill-rule: evenodd"/>
<path id="Shape2DView_nwe0038"  d="M 28.345 -15.4 L 28.345 -15.35 " stroke="#191919" stroke-width="0.35 px" style="stroke-width:0.35;stroke-miterlimit:4;stroke-dasharray:none;fill:none;fill-opacity:1;fill-rule: evenodd"/>
<path id="Shape2DView_nwe0039"  d="M -4.955 -15.4 L -4.955 -15.35 " stroke="#191919" stroke-width="0.35 px" style="stroke-width:0.35;stroke-miterlimit:4;stroke-dasharray:none;fill:none;fill-opacity:1;fill-rule: evenodd"/>
<path id="Shape2DView_nwe0040"  d="M -5.955 -9.1 L -5.955 -9.100628779010675 L -5.955 -9.102507208781818 L -5.955 -9.105611666969162 L -5.955 -9.109903113209757 L -5.955 -9.115327580077171 L -5.955 -9.121816851753197 L -5.955 -9.129289321881345 L -5.955 -9.137651019814125 L -5.955 -9.146796792348466 L -5.955 -9.156611626088244 L -5.955 -9.166972093804482 L -5.955 -9.177747906604369 L -5.955 -9.188803552389668 L -5.955 -9.2 " stroke="#191919" stroke-width="0.35 px" style="stroke-width:0.35;stroke-miterlimit:4;stroke-dasharray:none;fill:none;fill-opacity:1;fill-rule: evenodd"/>
<path id="Shape2DView_nwe0041"  d="M -5.955 -9.2 L -5.955 -15.1 " stroke="#191919" stroke-width="0.35 px" style="stroke-width:0.35;stroke-miterlimit:4;stroke-dasharray:none;fill:none;fill-opacity:1;fill-rule: evenodd"/>
<path id="Shape2DView_nwe0042"  d="M -5.955 -15.3 L -5.955 -15.1 " stroke="#191919" stroke-width="0.35 px" style="stroke-width:0.35;stroke-miterlimit:4;stroke-dasharray:none;fill:none;fill-opacity:1;fill-rule: evenodd"/>
<path id="Shape2DView_nwe0043"  d="M -7.955 -15.3 L -5.955 -15.3 " stroke="#191919" stroke-width="0.35 px" style="stroke-width:0.35;stroke-miterlimit:4;stroke-dasharray:none;fill:none;fill-opacity:1;fill-rule: evenodd"/>
<path id="Shape2DView_nwe0044"  d="M -7.955 -15.1 L -7.955 -15.3 " stroke="#191919" stroke-width="0.35 px" style="stroke-width:0.35;stroke-miterlimit:4;stroke-dasharray:none;fill:none;fill-opacity:1;fill-rule: evenodd"/>
<path id="Shape2DView_nwe0045"  d="M -7.955 -15.1 L -7.955 -9.2 " stroke="#191919" stroke-width="0.35 px" style="stroke-width:0.35;stroke-miterlimit:4;stroke-dasharray:none;fill:none;fill-opacity:1;fill-rule: evenodd"/>
<path id="Shape2DView_nwe0046"  d="M -7.955 -9.1 L -7.955 -9.100628779010675 L -7.955 -9.102507208781818 L -7.955 -9.105611666969162 L -7.955 -9.109903113209757 L -7.955 -9.115327580077171 L -7.955 -9.121816851753197 L -7.955 -9.129289321881345 L -7.955 -9.137651019814125 L -7.955 -9.146796792348466 L -7.955 -9.156611626088244 L -7.955 -9.166972093804482 L -7.955 -9.177747906604369 L -7.955 -9.188803552389668 L -7.955 -9.2 " stroke="#191919" stroke-width="0.35 px" style="stroke-width:0.35;stroke-miterlimit:4;stroke-dasharray:none;fill:none;fill-opacity:1;fill-rule: evenodd"/>
<path id="Shape2DView_nwe0047"  d="M 27.345 -9.1 L 27.345 -9.100628779010675 L 27.345 -9.102507208781818 L 27.345 -9.105611666969162 L 27.345 -9.109903113209757 L 27.345 -9.115327580077171 L 27.345 -9.121816851753197 L 27.345 -9.129289321881345 L 27.345 -9.137651019814125 L 27.345 -9.146796792348466 L 27.345 -9.156611626088244 L 27.345 -9.166972093804482 L 27.345 -9.177747906604369 L 27.345 -9.188803552389668 L 27.345 -9.2 " stroke="#191919" stroke-width="0.35 px" style="stroke-width:0.35;stroke-miterlimit:4;stroke-dasharray:none;fill:none;fill-opacity:1;fill-rule: evenodd"/>
<path id="Shape2DView_nwe0048"  d="M 27.345 -9.2 L 27.345 -15.1 " stroke="#191919" stroke-width="0.35 px" style="stroke-width:0.35;stroke-miterlimit:4;stroke-dasharray:none;fill:none;fill-opacity:1;fill-rule: evenodd"/>
<path id="Shape2DView_nwe0049"  d="M 27.345 -15.3 L 27.345 -15.1 " stroke="#191919" stroke-width="0.35 px" style="stroke-width:0.35;stroke-miterlimit:4;stroke-dasharray:none;fill:none;fill-opacity:1;fill-rule: evenodd"/>
<path id="Shape2DView_nwe0050"  d="M 25.345 -15.3 L 27.345 -15.3 " stroke="#191919" stroke-width="0.35 px" style="stroke-width:0.35;stroke-miterlimit:4;stroke-dasharray:none;fill:none;fill-opacity:1;fill-rule: evenodd"/>
<path id="Shape2DView_nwe0051"  d="M 25.345 -9.1 L 25.345 -9.100628779010675 L 25.345 -9.102507208781818 L 25.345 -9.105611666969162 L 25.345 -9.109903113209757 L 25.345 -9.115327580077171 L 25.345 -9.121816851753197 L 25.345 -9.129289321881345 L 25.345 -9.137651019814125 L 25.345 -9.146796792348466 L 25.345 -9.156611626088244 L 25.345 -9.166972093804482 L 25.345 -9.177747906604369 L 25.345 -9.188803552389668 L 25.345 -9.2 " stroke="#191919" stroke-width="0.35 px" style="stroke-width:0.35;stroke-miterlimit:4;stroke-dasharray:none;fill:none;fill-opacity:1;fill-rule: evenodd"/>
<path id="Shape2DView_nwe0052"  d="M 25.345 -15.1 L 25.345 -15.3 " stroke="#191919" stroke-width="0.35 px" style="stroke-width:0.35;stroke-miterlimit:4;stroke-dasharray:none;fill:none;fill-opacity:1;fill-rule: evenodd"/>
<path id="Shape2DView_nwe0053"  d="M 25.345 -15.1 L 25.345 -9.2 " stroke="#191919" stroke-width="0.35 px" style="stroke-width:0.35;stroke-miterlimit:4;stroke-dasharray:none;fill:none;fill-opacity:1;fill-rule: evenodd"/>
<path id="Shape2DView_nwe0054"  d="M -7.955 -9.1 L -5.955 -9.1 " stroke="#191919" stroke-width="0.35 px" style="stroke-width:0.35;stroke-miterlimit:4;stroke-dasharray:none;fill:none;fill-opacity:1;fill-rule: evenodd"/>
<path id="Shape2DView_nwe0055"  d="M -5.955 -15.1 L -7.955 -15.1 " stroke="#191919" stroke-width="0.35 px" style="stroke-width:0.35;stroke-miterlimit:4;stroke-dasharray:none;fill:none;fill-opacity:1;fill-rule: evenodd"/>
<path id="Shape2DView_nwe0056"  d="M 25.345 -9.1 L 27.345 -9.1 " stroke="#191919" stroke-width="0.35 px" style="stroke-width:0.35;stroke-miterlimit:4;stroke-dasharray:none;fill:none;fill-opacity:1;fill-rule: evenodd"/>
<path id="Shape2DView_nwe0057"  d="M 27.345 -15.1 L 25.345 -15.1 " stroke="#191919" stroke-width="0.35 px" style="stroke-width:0.35;stroke-miterlimit:4;stroke-dasharray:none;fill:none;fill-opacity:1;fill-rule: evenodd"/>
<path id="Shape2DView_nwe0058"  d="M -1.864431920499 -23.5 L -1.864431920499 -23.45 " stroke="#191919" stroke-width="0.35 px" style="stroke-width:0.35;stroke-miterlimit:4;stroke-dasharray:none;fill:none;fill-opacity:1;fill-rule: evenodd"/>
<path id="Shape2DView_nwe0059"  d="M 21.254431920499 -23.5 L 21.254431920499 -23.45 " stroke="#191919" stroke-width="0.35 px" style="stroke-width:0.35;stroke-miterlimit:4;stroke-dasharray:none;fill:none;fill-opacity:1;fill-rule: evenodd"/>
<path id="Shape2DView_nwe0060"  d="M -1.864431920499 -18.3 L -1.864431920499 -23.45 " stroke="#191919" stroke-width="0.35 px" style="stroke-width:0.35;stroke-miterlimit:4;stroke-dasharray:none;fill:none;fill-opacity:1;fill-rule: evenodd"/>
<path id="Shape2DView_nwe0061"  d="M -1.864431920499 -18.3 L -1.976396396602308 -18.3 L -2.0869528544553146 -18.3 L -2.194710982454167 -18.3 L -2.2983156596165584 -18.3 L -2.3964639970143367 -18.3 L -2.4879217223577337 -18.3 L -2.5715387016855473 -18.3 L -2.6462634029670298 -18.3 L -2.711156119727284 -18.3 L -2.7654007884014193 -18.3 L -2.8083152508073677 -18.3 L -2.839359832680824 -18.3 L -2.8581441303922426 -18.3 L -2.8644319204990003 -18.3 " stroke="#191919" stroke-width="0.35 px" style="stroke-width:0.35;stroke-miterlimit:4;stroke-dasharray:none;fill:none;fill-opacity:1;fill-rule: evenodd"/>
<path id="Shape2DView_nwe0062"  d="M 21.254431920499 -18.3 L 21.254431920499 -23.45 " stroke="#191919" stroke-width="0.35 px" style="stroke-width:0.35;stroke-miterlimit:4;stroke-dasharray:none;fill:none;fill-opacity:1;fill-rule: evenodd"/>
<path id="Shape2DView_nwe0063"  d="M 21.254431920499 -18.3 L -1.8644319204990012 -18.3 " stroke="#191919" stroke-width="0.35 px" style="stroke-width:0.35;stroke-miterlimit:4;stroke-dasharray:none;fill:none;fill-opacity:1;fill-rule: evenodd"/>
<path id="Shape2DView_nwe0064"  d="M 22.254431920499 -18.3 L 22.248144130392244 -18.3 L 22.229359832680824 -18.3 L 22.19831525080737 -18.3 L 22.15540078840142 -18.3 L 22.101156119727285 -18.3 L 22.03626340296703 -18.3 L 21.961538701685548 -18.3 L 21.877921722357733 -18.3 L 21.786463997014337 -18.3 L 21.68831565961656 -18.3 L 21.58471098245417 -18.3 L 21.476952854455316 -18.3 L 21.36639639660231 -18.3 L 21.254431920499 -18.3 " stroke="#191919" stroke-width="0.35 px" style="stroke-width:0.35;stroke-miterlimit:4;stroke-dasharray:none;fill:none;fill-opacity:1;fill-rule: evenodd"/>
<path id="Shape2DView_nwe0065"  d="M -1.864431920499 -18.3 L -1.864431920499 -18.232821314338015 L -1.864431920499 -18.166487439626213 L -1.864431920499 -18.1018325628269 L -1.864431920499 -18.039669756529467 L -1.864431920499 -17.980780754090798 L -1.864431920499 -17.92590611888476 L -1.864431920499 -17.875735931288073 L -1.864431920499 -17.830901110519182 L -1.864431920499 -17.79196548046303 L -1.864431920499 -17.75941867925855 L -1.864431920499 -17.73367000181498 L -1.864431920499 -17.715043252690908 L -1.864431920499 -17.703772674064055 L -1.864431920499 -17.7 " stroke="#191919" stroke-width="0.35 px" style="stroke-width:0.35;stroke-miterlimit:4;stroke-dasharray:none;fill:none;fill-opacity:1;fill-rule: evenodd"/>
<path id="Shape2DView_nwe0066"  d="M 21.254431920499 -18.3 L 21.254431920499 -18.232821314338015 L 21.254431920499 -18.166487439626213 L 21.254431920499 -18.1018325628269 L 21.254431920499 -18.039669756529467 L 21.254431920499 -17.980780754090798 L 21.254431920499 -17.92590611888476 L 21.254431920499 -17.875735931288073 L 21.254431920499 -17.830901110519182 L 21.254431920499 -17.79196548046303 L 21.254431920499 -17.75941867925855 L 21.254431920499 -17.73367000181498 L 21.254431920499 -17.715043252690908 L 21.254431920499 -17.703772674064055 L 21.254431920499 -17.7 " stroke="#191919" stroke-width="0.35 px" style="stroke-width:0.35;stroke-miterlimit:4;stroke-dasharray:none;fill:none;fill-opacity:1;fill-rule: evenodd"/>
<path id="Shape2DView_nwe0067"  d="M -8.905 -17.6 L -8.905 -17.611196447610332 L -8.905 -17.622252093395634 L -8.905 -17.63302790619552 L -8.905 -17.64338837391176 L -8.905 -17.653203207651536 L -8.905 -17.662348980185875 L -8.905 -17.670710678118656 L -8.905 -17.678183148246806 L -8.905 -17.68467241992283 L -8.905 -17.690096886790244 L -8.905 -17.694388333030837 L -8.905 -17.697492791218185 L -8.905 -17.699371220989327 L -8.905 -17.700000000000003 " stroke="#191919" stroke-width="0.35 px" style="stroke-width:0.35;stroke-miterlimit:4;stroke-dasharray:none;fill:none;fill-opacity:1;fill-rule: evenodd"/>
<path id="Shape2DView_nwe0068"  d="M -8.905 -17.6 L -9.016964476103308 -17.6 L -9.127520933956314 -17.6 L -9.235279061955167 -17.6 L -9.338883739117557 -17.6 L -9.437032076515337 -17.6 L -9.528489801858733 -17.6 L -9.612106781186547 -17.6 L -9.68683148246803 -17.6 L -9.751724199228283 -17.6 L -9.805968867902418 -17.6 L -9.848883330308366 -17.6 L -9.879927912181824 -17.6 L -9.898712209893242 -17.6 L -9.905 -17.6 " stroke="#191919" stroke-width="0.35 px" style="stroke-width:0.35;stroke-miterlimit:4;stroke-dasharray:none;fill:none;fill-opacity:1;fill-rule: evenodd"/>
<path id="Shape2DView_nwe0069"  d="M 28.295 -17.6 L -8.905000000000001 -17.6 " stroke="#191919" stroke-width="0.35 px" style="stroke-width:0.35;stroke-miterlimit:4;stroke-dasharray:none;fill:none;fill-opacity:1;fill-rule: evenodd"/>
<path id="Shape2DView_nwe0070"  d="M 28.295 -17.6 L 28.295 -17.611196447610332 L 28.295 -17.622252093395634 L 28.295 -17.63302790619552 L 28.295 -17.64338837391176 L 28.295 -17.653203207651536 L 28.295 -17.662348980185875 L 28.295 -17.670710678118656 L 28.295 -17.678183148246806 L 28.295 -17.68467241992283 L 28.295 -17.690096886790244 L 28.295 -17.694388333030837 L 28.295 -17.697492791218185 L 28.295 -17.699371220989327 L 28.295 -17.700000000000003 " stroke="#191919" stroke-width="0.35 px" style="stroke-width:0.35;stroke-miterlimit:4;stroke-dasharray:none;fill:none;fill-opacity:1;fill-rule: evenodd"/>
<path id="Shape2DView_nwe0071"  d="M 29.295 -17.6 L 29.288712209893244 -17.6 L 29.269927912181824 -17.6 L 29.23888333030837 -17.6 L 29.195968867902423 -17.6 L 29.141724199228285 -17.6 L 29.07683148246803 -17.6 L 29.002106781186548 -17.6 L 28.918489801858737 -17.6 L 28.827032076515337 -17.6 L 28.72888373911756 -17.6 L 28.62527906195517 -17.6 L 28.517520933956316 -17.6 L 28.406964476103308 -17.6 L 28.295 -17.6 " stroke="#191919" stroke-width="0.35 px" style="stroke-width:0.35;stroke-miterlimit:4;stroke-dasharray:none;fill:none;fill-opacity:1;fill-rule: evenodd"/>
<path id="Shape2DView_nwe0072"  d="M -8.905 -17.4 L -8.905 -17.6 " stroke="#191919" stroke-width="0.35 px" style="stroke-width:0.35;stroke-miterlimit:4;stroke-dasharray:none;fill:none;fill-opacity:1;fill-rule: evenodd"/>
<path id="Shape2DView_nwe0073"  d="M 28.295 -17.4 L 28.295 -17.6 " stroke="#191919" stroke-width="0.35 px" style="stroke-width:0.35;stroke-miterlimit:4;stroke-dasharray:none;fill:none;fill-opacity:1;fill-rule: evenodd"/>
<path id="Shape2DView_nwe0074"  d="M -8.905 -17.4 L -8.905 -15.4 " stroke="#191919" stroke-width="0.35 px" style="stroke-width:0.35;stroke-miterlimit:4;stroke-dasharray:none;fill:none;fill-opacity:1;fill-rule: evenodd"/>
<path id="Shape2DView_nwe0075"  d="M 28.295 -17.4 L 28.295 -15.4 " stroke="#191919" stroke-width="0.35 px" style="stroke-width:0.35;stroke-miterlimit:4;stroke-dasharray:none;fill:none;fill-opacity:1;fill-rule: evenodd"/>
<path id="Shape2DView_nwe0076"  d="M -7.955 -9.2 L -5.955 -9.2 " stroke="#191919" stroke-width="0.35 px" style="stroke-width:0.35;stroke-miterlimit:4;stroke-dasharray:none;fill:none;fill-opacity:1;fill-rule: evenodd"/>
<path id="Shape2DView_nwe0077"  d="M 25.345 -9.2 L 27.345 -9.2 " stroke="#191919" stroke-width="0.35 px" style="stroke-width:0.35;stroke-miterlimit:4;stroke-dasharray:none;fill:none;fill-opacity:1;fill-rule: evenodd"/>
<path id="Shape2DView_nwe0078"  d="M -8.905 -17.4 L -9.016964476103308 -17.4 L -9.127520933956314 -17.4 L -9.235279061955167 -17.4 L -9.338883739117557 -17.4 L -9.437032076515337 -17.4 L -9.528489801858733 -17.4 L -9.612106781186547 -17.4 L -9.68683148246803 -17.4 L -9.751724199228283 -17.4 L -9.805968867902418 -17.4 L -9.848883330308366 -17.4 L -9.879927912181824 -17.4 L -9.898712209893242 -17.4 L -9.905 -17.4 " stroke="#191919" stroke-width="0.35 px" style="stroke-width:0.35;stroke-miterlimit:4;stroke-dasharray:none;fill:none;fill-opacity:1;fill-rule: evenodd"/>
<path id="Shape2DView_nwe0079"  d="M 28.295 -17.4 L -8.905000000000001 -17.4 " stroke="#191919" stroke-width="0.35 px" style="stroke-width:0.35;stroke-miterlimit:4;stroke-dasharray:none;fill:none;fill-opacity:1;fill-rule: evenodd"/>
<path id="Shape2DView_nwe0080"  d="M 28.295 -17.4 L 28.406964476103308 -17.4 L 28.517520933956316 -17.4 L 28.62527906195517 -17.4 L 28.72888373911756 -17.4 L 28.827032076515337 -17.4 L 28.918489801858737 -17.4 L 29.002106781186548 -17.4 L 29.07683148246803 -17.4 L 29.141724199228285 -17.4 L 29.195968867902423 -17.4 L 29.23888333030837 -17.4 L 29.269927912181824 -17.4 L 29.288712209893244 -17.4 L 29.295 -17.4 " stroke="#191919" stroke-width="0.35 px" style="stroke-width:0.35;stroke-miterlimit:4;stroke-dasharray:none;fill:none;fill-opacity:1;fill-rule: evenodd"/>
<path id="Shape2DView_nwe0081"  d="M -2.8144319204990227 -23.50000000000002 L -2.8644319204990003 -23.45 " stroke="#191919" stroke-width="0.35 px" style="stroke-width:0.35;stroke-miterlimit:4;stroke-dasharray:none;fill:none;fill-opacity:1;fill-rule: evenodd"/>
<path id="Shape2DView_nwe0082"  d="M 22.204431920499026 -23.50000000000002 L 22.254431920499 -23.45 " stroke="#191919" stroke-width="0.35 px" style="stroke-width:0.35;stroke-miterlimit:4;stroke-dasharray:none;fill:none;fill-opacity:1;fill-rule: evenodd"/>
<path id="Shape2DView_nwe0083"  d="M -2.8644319204990003 -18.3 L -2.8644319204990003 -23.45 " stroke="#191919" stroke-width="0.35 px" style="stroke-width:0.35;stroke-miterlimit:4;stroke-dasharray:none;fill:none;fill-opacity:1;fill-rule: evenodd"/>
<path id="Shape2DView_nwe0084"  d="M 22.254431920499 -18.3 L 22.254431920499 -23.45 " stroke="#191919" stroke-width="0.35 px" style="stroke-width:0.35;stroke-miterlimit:4;stroke-dasharray:none;fill:none;fill-opacity:1;fill-rule: evenodd"/>
<path id="Shape2DView_nwe0085"  d="M -2.8644319204990003 -18.3 Q -2.8701963356144073 -18.24147290324327 -2.8759607507298135 -18.182945806486536 Q -2.8895631263654464 -18.135430450109492 -2.9031655020010794 -18.087915093732448 Q -3.0633252614058697 -17.719646975273037 -3.464431920499 -17.7 " stroke="#191919" stroke-width="0.35 px" style="stroke-width:0.35;stroke-miterlimit:4;stroke-dasharray:none;fill:none;fill-opacity:1;fill-rule: evenodd"/>
<path id="Shape2DView_nwe0086"  d="M 22.254431920499 -18.3 Q 22.26217989817555 -18.23225961849466 22.269927875852098 -18.164519236989314 Q 22.300431096053707 -18.085673246045573 22.330934316255323 -18.00682725510183 Q 22.509673600862666 -17.711785780527215 22.854431920499003 -17.7 " stroke="#191919" stroke-width="0.35 px" style="stroke-width:0.35;stroke-miterlimit:4;stroke-dasharray:none;fill:none;fill-opacity:1;fill-rule: evenodd"/>
<path id="Shape2DView_nwe0087"  d="M 24.645018548425558 -17.700000000000003 L 24.645 -17.700000000000003 " stroke="#191919" stroke-width="0.35 px" style="stroke-width:0.35;stroke-miterlimit:4;stroke-dasharray:none;fill:none;fill-opacity:1;fill-rule: evenodd"/>
<path id="Shape2DView_nwe0088"  d="M -8.654981451574445 -17.700000000000003 L -8.655000000000001 -17.700000000000003 " stroke="#191919" stroke-width="0.35 px" style="stroke-width:0.35;stroke-miterlimit:4;stroke-dasharray:none;fill:none;fill-opacity:1;fill-rule: evenodd"/>
<path id="Shape2DView_nwe0089"  d="M 24.345 -15.350000000000001 L 24.345 -15.400000000000002 " stroke="#191919" stroke-width="0.35 px" style="stroke-width:0.35;stroke-miterlimit:4;stroke-dasharray:none;fill:none;fill-opacity:1;fill-rule: evenodd"/>
<path id="Shape2DView_nwe0090"  d="M -8.955 -15.350000000000001 L -8.955 -15.400000000000002 " stroke="#191919" stroke-width="0.35 px" style="stroke-width:0.35;stroke-miterlimit:4;stroke-dasharray:none;fill:none;fill-opacity:1;fill-rule: evenodd"/>
<title>b'Shape2DView'</title>
</g>
<g id="Rectangle" transform="translate(10.297000,2.192000) scale(1,-1)">
<rect fill="#ff0000" id="origin" width="1" height="1" x="0" y="0" />
<title>b'Rectangle'</title>
</g>
</svg>