<?xml version="1.0"?>
<!DOCTYPE svg PUBLIC "-//W3C//DTD SVG 1.1//EN" "http://www.w3.org/Graphics/SVG/1.1/DTD/svg11.dtd">
<svg width="39.984mm" height="20.124000000000045mm" viewBox="0 0 39.984 20.124000000000045" xmlns="http://www.w3.org/2000/svg" version="1.1">
<g id="Shape2DView" transform="translate(29.687000,1.392000) scale(1,-1)">
<path id="Shape2DView_nwe0000"  d="M -20.6990820053 -18.34 L -20.799850033792975 -18.34 L -20.89935084586068 -18.34 L -20.99633316105965 -18.34 L -21.0895773705058 -18.34 L -21.177910874163803 -18.34 L -21.26022282697286 -18.34 L -21.33547810836789 -18.34 L -21.402730339521227 -18.34 L -21.461133784605455 -18.34 L -21.509953986412178 -18.34 L -21.54857700257753 -18.34 L -21.576517126263642 -18.34 L -21.593422994203916 -18.34 L -21.599082005299998 -18.34 " stroke="#191919" stroke-width="0.35 px" style="stroke-width:0.35;stroke-miterlimit:4;stroke-dasharray:none;fill:none;fill-opacity:1;fill-rule: evenodd"/>
<path id="Shape2DView_nwe0001"  d="M 1.309082005303 -18.34 L -20.6990820053 -18.34 " stroke="#191919" stroke-width="0.35 px" style="stroke-width:0.35;stroke-miterlimit:4;stroke-dasharray:none;fill:none;fill-opacity:1;fill-rule: evenodd"/>
<path id="Shape2DView_nwe0002"  d="M 2.209082005303 -18.34 L 2.2034229942069183 -18.34 L 2.186517126266641 -18.34 L 2.1585770025805306 -18.34 L 2.1199539864151773 -18.34 L 2.0711337846084557 -18.34 L 2.012730339524227 -18.34 L 1.9454781083708927 -18.34 L 1.8702228269758603 -18.34 L 1.7879108741668028 -18.34 L 1.6995773705088024 -18.34 L 1.6063331610626503 -18.34 L 1.509350845863683 -18.34 L 1.4098500337959772 -18.34 L 1.309082005303 -18.34 " stroke="#191919" stroke-width="0.35 px" style="stroke-width:0.35;stroke-miterlimit:4;stroke-dasharray:none;fill:none;fill-opacity:1;fill-rule: evenodd"/>
<path id="Shape2DView_nwe0003"  d="M -20.6990820053 -18.24 L -20.811046481403306 -18.24 L -20.921602939256314 -18.24 L -21.029361067255167 -18.24 L -21.132965744417557 -18.24 L -21.231114081815335 -18.24 L -21.32257180715873 -18.24 L -21.406188786486545 -18.24 L -21.480913487768028 -18.24 L -21.545806204528283 -18.24 L -21.60005087320242 -18.24 L -21.642965335608366 -18.24 L -21.674009917481822 -18.24 L -21.692794215193242 -18.24 L -21.6990820053 -18.24 " stroke="#191919" stroke-width="0.35 px" style="stroke-width:0.35;stroke-miterlimit:4;stroke-dasharray:none;fill:none;fill-opacity:1;fill-rule: evenodd"/>
<path id="Shape2DView_nwe0004"  d="M 1.309082005303 -18.24 L -20.6990820053 -18.24 " stroke="#191919" stroke-width="0.35 px" style="stroke-width:0.35;stroke-miterlimit:4;stroke-dasharray:none;fill:none;fill-opacity:1;fill-rule: evenodd"/>
<path id="Shape2DView_nwe0005"  d="M 2.309082005303 -18.24 L 2.3027942151962426 -18.24 L 2.2840099174848234 -18.24 L 2.2529653356113677 -18.24 L 2.210050873205419 -18.24 L 2.1558062045312845 -18.24 L 2.09091348777103 -18.24 L 2.016188786489548 -18.24 L 1.9325718071617335 -18.24 L 1.8411140818183367 -18.24 L 1.742965744420558 -18.24 L 1.639361067258167 -18.24 L 1.5316029392593145 -18.24 L 1.421046481406308 -18.24 L 1.309082005303 -18.24 " stroke="#191919" stroke-width="0.35 px" style="stroke-width:0.35;stroke-miterlimit:4;stroke-dasharray:none;fill:none;fill-opacity:1;fill-rule: evenodd"/>
<path id="Shape2DView_nwe0006"  d="M -20.80443192049 -18.04 L -20.91079817278814 -18.04 L -21.0158268077485 -18.04 L -21.11819702934741 -18.04 L -21.21662147265168 -18.04 L -21.309862393179568 -18.04 L -21.396747232255798 -18.04 L -21.47618336261722 -18.04 L -21.547171828834628 -18.04 L -21.60881990975687 -18.04 L -21.6603523449973 -18.04 L -21.70112108428295 -18.04 L -21.730613437062733 -18.04 L -21.74845851988858 -18.04 L -21.75443192049 -18.04 " stroke="#191919" stroke-width="0.35 px" style="stroke-width:0.35;stroke-miterlimit:4;stroke-dasharray:none;fill:none;fill-opacity:1;fill-rule: evenodd"/>
<path id="Shape2DView_nwe0007"  d="M 1.414431920499 -18.04 L -20.80443192049 -18.04 " stroke="#191919" stroke-width="0.35 px" style="stroke-width:0.35;stroke-miterlimit:4;stroke-dasharray:none;fill:none;fill-opacity:1;fill-rule: evenodd"/>
<path id="Shape2DView_nwe0008"  d="M 2.364431920499 -18.04 L 2.3584585198975803 -18.04 L 2.3406134370717324 -18.04 L 2.311121084291949 -18.04 L 2.270352345006298 -18.04 L 2.21881990976587 -18.04 L 2.1571718288436283 -18.04 L 2.0861833626262203 -18.04 L 2.006747232264797 -18.04 L 1.9198623931885699 -18.04 L 1.8266214726606806 -18.04 L 1.728197029356409 -18.04 L 1.6258268077574989 -18.04 L 1.5207981727971427 -18.04 L 1.414431920499 -18.04 " stroke="#191919" stroke-width="0.35 px" style="stroke-width:0.35;stroke-miterlimit:4;stroke-dasharray:none;fill:none;fill-opacity:1;fill-rule: evenodd"/>
<path id="Shape2DView_nwe0009"  d="M -20.80443192049 -17.99 L -20.916396396593306 -17.99 L -21.026952854446314 -17.99 L -21.134710982445167 -17.99 L -21.238315659607558 -17.99 L -21.336463997005335 -17.99 L -21.427921722348735 -17.99 L -21.511538701676546 -17.99 L -21.58626340295803 -17.99 L -21.651156119718284 -17.99 L -21.705400788392417 -17.99 L -21.748315250798367 -17.99 L -21.779359832671823 -17.99 L -21.798144130383243 -17.99 L -21.80443192049 -17.99 " stroke="#191919" stroke-width="0.35 px" style="stroke-width:0.35;stroke-miterlimit:4;stroke-dasharray:none;fill:none;fill-opacity:1;fill-rule: evenodd"/>
<path id="Shape2DView_nwe0010"  d="M 1.414431920499 -17.99 L -20.80443192049 -17.99 " stroke="#191919" stroke-width="0.35 px" style="stroke-width:0.35;stroke-miterlimit:4;stroke-dasharray:none;fill:none;fill-opacity:1;fill-rule: evenodd"/>
<path id="Shape2DView_nwe0011"  d="M 2.414431920499 -17.99 L 2.4081441303922424 -17.99 L 2.3893598326808236 -17.99 L 2.3583152508073675 -17.99 L 2.315400788401419 -17.99 L 2.2611561197272843 -17.99 L 2.19626340296703 -17.99 L 2.1215387016855476 -17.99 L 2.0379217223577335 -17.99 L 1.946463997014337 -17.99 L 1.8483156596165584 -17.99 L 1.7447109824541673 -17.99 L 1.6369528544553147 -17.99 L 1.5263963966023082 -17.99 L 1.414431920499 -17.99 " stroke="#191919" stroke-width="0.35 px" style="stroke-width:0.35;stroke-miterlimit:4;stroke-dasharray:none;fill:none;fill-opacity:1;fill-rule: evenodd"/>
<path id="Shape2DView_nwe0012"  d="M 9.805 -12.24 L 9.799340988903918 -12.24 L 9.78243512096364 -12.24 L 9.754494997277531 -12.24 L 9.715871981112176 -12.24 L 9.667051779305455 -12.24 L 9.608648334221225 -12.24 L 9.541396103067893 -12.24 L 9.466140821672859 -12.24 L 9.383828868863802 -12.24 L 9.295495365205802 -12.24 L 9.20225115575965 -12.24 L 9.105268840560683 -12.24 L 9.005768028492977 -12.24 L 8.905 -12.24 " stroke="#191919" stroke-width="0.35 px" style="stroke-width:0.35;stroke-miterlimit:4;stroke-dasharray:none;fill:none;fill-opacity:1;fill-rule: evenodd"/>
<path id="Shape2DView_nwe0013"  d="M 8.905 -12.24 L -28.295 -12.24 " stroke="#191919" stroke-width="0.35 px" style="stroke-width:0.35;stroke-miterlimit:4;stroke-dasharray:none;fill:none;fill-opacity:1;fill-rule: evenodd"/>
<path id="Shape2DView_nwe0014"  d="M -28.295 -12.24 L -28.395768028492977 -12.24 L -28.495268840560684 -12.24 L -28.59225115575965 -12.24 L -28.685495365205803 -12.24 L -28.773828868863806 -12.24 L -28.856140821672863 -12.24 L -28.931396103067893 -12.24 L -28.99864833422123 -12.24 L -29.057051779305457 -12.24 L -29.10587198111218 -12.24 L -29.144494997277533 -12.24 L -29.172435120963645 -12.24 L -29.18934098890392 -12.24 L -29.195 -12.24 " stroke="#191919" stroke-width="0.35 px" style="stroke-width:0.35;stroke-miterlimit:4;stroke-dasharray:none;fill:none;fill-opacity:1;fill-rule: evenodd"/>
<path id="Shape2DView_nwe0015"  d="M -29.195 -12.24 L -29.18934098890392 -12.24 L -29.172435120963645 -12.24 L -29.144494997277533 -12.24 L -29.10587198111218 -12.24 L -29.057051779305457 -12.24 L -28.99864833422123 -12.24 L -28.931396103067893 -12.24 L -28.856140821672863 -12.24 L -28.773828868863806 -12.24 L -28.685495365205803 -12.24 L -28.59225115575965 -12.24 L -28.495268840560684 -12.24 L -28.395768028492977 -12.24 L -28.295 -12.24 " stroke="#191919" stroke-width="0.35 px" style="stroke-width:0.35;stroke-miterlimit:4;stroke-dasharray:none;fill:none;fill-opacity:1;fill-rule: evenodd"/>
<path id="Shape2DView_nwe0016"  d="M 9.905 -12.14 A 0.1 0.1 0 0 0 9.805 -12.24" stroke="#191919" stroke-width="0.35 px" style="stroke-width:0.35;stroke-miterlimit:4;stroke-dasharray:none;fill:none;fill-opacity:1;fill-rule: evenodd"/>
<path id="Shape2DView_nwe0017"  d="M -29.295 -12.14 A 0.1 0.1 0 0 1 -29.195 -12.24" stroke="#191919" stroke-width="0.35 px" style="stroke-width:0.35;stroke-miterlimit:4;stroke-dasharray:none;fill:none;fill-opacity:1;fill-rule: evenodd"/>
<path id="Shape2DView_nwe0018"  d="M 9.905 -11.94 L 9.905 -12.14 " stroke="#191919" stroke-width="0.35 px" style="stroke-width:0.35;stroke-miterlimit:4;stroke-dasharray:none;fill:none;fill-opacity:1;fill-rule: evenodd"/>
<path id="Shape2DView_nwe0019"  d="M -29.295 -11.94 L -29.295 -12.14 " stroke="#191919" stroke-width="0.35 px" style="stroke-width:0.35;stroke-miterlimit:4;stroke-dasharray:none;fill:none;fill-opacity:1;fill-rule: evenodd"/>
<path id="Shape2DView_nwe0020"  d="M 9.805 -11.84 A 0.1 0.1 0 0 0 9.905 -11.94" stroke="#191919" stroke-width="0.35 px" style="stroke-width:0.35;stroke-miterlimit:4;stroke-dasharray:none;fill:none;fill-opacity:1;fill-rule: evenodd"/>
<path id="Shape2DView_nwe0021"  d="M 9.805 -11.84 L 9.799340988903918 -11.84 L 9.78243512096364 -11.84 L 9.754494997277531 -11.84 L 9.715871981112176 -11.84 L 9.667051779305455 -11.84 L 9.608648334221225 -11.84 L 9.541396103067893 -11.84 L 9.466140821672859 -11.84 L 9.383828868863802 -11.84 L 9.295495365205802 -11.84 L 9.20225115575965 -11.84 L 9.105268840560683 -11.84 L 9.005768028492977 -11.84 L 8.905 -11.84 " stroke="#191919" stroke-width="0.35 px" style="stroke-width:0.35;stroke-miterlimit:4;stroke-dasharray:none;fill:none;fill-opacity:1;fill-rule: evenodd"/>
<path id="Shape2DView_nwe0022"  d="M 8.905 -11.84 L -28.295 -11.84 " stroke="#191919" stroke-width="0.35 px" style="stroke-width:0.35;stroke-miterlimit:4;stroke-dasharray:none;fill:none;fill-opacity:1;fill-rule: evenodd"/>
<path id="Shape2DView_nwe0023"  d="M 8.905 -11.84 L 9.005768028492977 -11.84 L 9.105268840560683 -11.84 L 9.20225115575965 -11.84 L 9.295495365205802 -11.84 L 9.383828868863802 -11.84 L 9.466140821672859 -11.84 L 9.541396103067893 -11.84 L 9.608648334221225 -11.84 L 9.667051779305455 -11.84 L 9.715871981112176 -11.84 L 9.754494997277531 -11.84 L 9.78243512096364 -11.84 L 9.799340988903918 -11.84 L 9.805 -11.84 " stroke="#191919" stroke-width="0.35 px" style="stroke-width:0.35;stroke-miterlimit:4;stroke-dasharray:none;fill:none;fill-opacity:1;fill-rule: evenodd"/>
<path id="Shape2DView_nwe0024"  d="M -28.295 -11.84 L -28.395768028492977 -11.84 L -28.495268840560684 -11.84 L -28.59225115575965 -11.84 L -28.685495365205803 -11.84 L -28.773828868863806 -11.84 L -28.856140821672863 -11.84 L -28.931396103067893 -11.84 L -28.99864833422123 -11.84 L -29.057051779305457 -11.84 L -29.10587198111218 -11.84 L -29.144494997277533 -11.84 L -29.172435120963645 -11.84 L -29.18934098890392 -11.84 L -29.195 -11.84 " stroke="#191919" stroke-width="0.35 px" style="stroke-width:0.35;stroke-miterlimit:4;stroke-dasharray:none;fill:none;fill-opacity:1;fill-rule: evenodd"/>
<path id="Shape2DView_nwe0025"  d="M -29.195 -11.84 A 0.1 0.1 0 0 1 -29.295 -11.94" stroke="#191919" stroke-width="0.35 px" style="stroke-width:0.35;stroke-miterlimit:4;stroke-dasharray:none;fill:none;fill-opacity:1;fill-rule: evenodd"/>
<path id="Shape2DView_nwe0026"  d="M 4.155 -8.84 L 4.155 -11.84 " stroke="#191919" stroke-width="0.35 px" style="stroke-width:0.35;stroke-miterlimit:4;stroke-dasharray:none;fill:none;fill-opacity:1;fill-rule: evenodd"/>
<path id="Shape2DView_nwe0027"  d="M -23.545 -8.84 L -23.545 -11.84 " stroke="#191919" stroke-width="0.35 px" style="stroke-width:0.35;stroke-miterlimit:4;stroke-dasharray:none;fill:none;fill-opacity:1;fill-rule: evenodd"/>
<path id="Shape2DView_nwe0029"  d="M 3.155 -7.84 A 1 1 0 0 0 4.155 -8.84" stroke="#191919" stroke-width="0.35 px" style="stroke-width:0.35;stroke-miterlimit:4;stroke-dasharray:none;fill:none;fill-opacity:1;fill-rule: evenodd"/>
<path id="Shape2DView_nwe0030"  d="M 3.155 -7.84 L -22.545 -7.84 " stroke="#191919" stroke-width="0.35 px" style="stroke-width:0.35;stroke-miterlimit:4;stroke-dasharray:none;fill:none;fill-opacity:1;fill-rule: evenodd"/>
<path id="Shape2DView_nwe0031"  d="M -22.545 -7.84 A 1 1 0 0 1 -23.545 -8.84" stroke="#191919" stroke-width="0.35 px" style="stroke-width:0.35;stroke-miterlimit:4;stroke-dasharray:none;fill:none;fill-opacity:1;fill-rule: evenodd"/>
<path id="Shape2DView_nwe0032"  d="M -2.62 -7.74 L -2.62 -7.84 " stroke="#191919" stroke-width="0.35 px" style="stroke-width:0.35;stroke-miterlimit:4;stroke-dasharray:none;fill:none;fill-opacity:1;fill-rule: evenodd"/>
<path id="Shape2DView_nwe0033"  d="M -4.005 -7.74 L -4.005 -7.84 " stroke="#191919" stroke-width="0.35 px" style="stroke-width:0.35;stroke-miterlimit:4;stroke-dasharray:none;fill:none;fill-opacity:1;fill-rule: evenodd"/>
<path id="Shape2DView_nwe0034"  d="M -5.39 -7.74 L -5.39 -7.84 " stroke="#191919" stroke-width="0.35 px" style="stroke-width:0.35;stroke-miterlimit:4;stroke-dasharray:none;fill:none;fill-opacity:1;fill-rule: evenodd"/>
<path id="Shape2DView_nwe0035"  d="M -9.545 -7.74 L -9.545 -7.84 " stroke="#191919" stroke-width="0.35 px" style="stroke-width:0.35;stroke-miterlimit:4;stroke-dasharray:none;fill:none;fill-opacity:1;fill-rule: evenodd"/>
<path id="Shape2DView_nwe0036"  d="M -6.775 -7.74 L -6.775 -7.84 " stroke="#191919" stroke-width="0.35 px" style="stroke-width:0.35;stroke-miterlimit:4;stroke-dasharray:none;fill:none;fill-opacity:1;fill-rule: evenodd"/>
<path id="Shape2DView_nwe0037"  d="M -8.16 -7.74 L -8.16 -7.84 " stroke="#191919" stroke-width="0.35 px" style="stroke-width:0.35;stroke-miterlimit:4;stroke-dasharray:none;fill:none;fill-opacity:1;fill-rule: evenodd"/>
<path id="Shape2DView_nwe0038"  d="M 0.15 -7.74 L 0.15 -7.84 " stroke="#191919" stroke-width="0.35 px" style="stroke-width:0.35;stroke-miterlimit:4;stroke-dasharray:none;fill:none;fill-opacity:1;fill-rule: evenodd"/>
<path id="Shape2DView_nwe0039"  d="M -1.235 -7.74 L -1.235 -7.84 " stroke="#191919" stroke-width="0.35 px" style="stroke-width:0.35;stroke-miterlimit:4;stroke-dasharray:none;fill:none;fill-opacity:1;fill-rule: evenodd"/>
<path id="Shape2DView_nwe0040"  d="M -13.7 -7.74 L -13.7 -7.84 " stroke="#191919" stroke-width="0.35 px" style="stroke-width:0.35;stroke-miterlimit:4;stroke-dasharray:none;fill:none;fill-opacity:1;fill-rule: evenodd"/>
<path id="Shape2DView_nwe0041"  d="M -12.315 -7.74 L -12.315 -7.84 " stroke="#191919" stroke-width="0.35 px" style="stroke-width:0.35;stroke-miterlimit:4;stroke-dasharray:none;fill:none;fill-opacity:1;fill-rule: evenodd"/>
<path id="Shape2DView_nwe0042"  d="M -10.93 -7.74 L -10.93 -7.84 " stroke="#191919" stroke-width="0.35 px" style="stroke-width:0.35;stroke-miterlimit:4;stroke-dasharray:none;fill:none;fill-opacity:1;fill-rule: evenodd"/>
<path id="Shape2DView_nwe0043"  d="M -17.855 -7.74 L -17.855 -7.84 " stroke="#191919" stroke-width="0.35 px" style="stroke-width:0.35;stroke-miterlimit:4;stroke-dasharray:none;fill:none;fill-opacity:1;fill-rule: evenodd"/>
<path id="Shape2DView_nwe0044"  d="M -16.47 -7.74 L -16.47 -7.84 " stroke="#191919" stroke-width="0.35 px" style="stroke-width:0.35;stroke-miterlimit:4;stroke-dasharray:none;fill:none;fill-opacity:1;fill-rule: evenodd"/>
<path id="Shape2DView_nwe0045"  d="M -15.085 -7.74 L -15.085 -7.84 " stroke="#191919" stroke-width="0.35 px" style="stroke-width:0.35;stroke-miterlimit:4;stroke-dasharray:none;fill:none;fill-opacity:1;fill-rule: evenodd"/>
<path id="Shape2DView_nwe0046"  d="M -19.24 -7.74 L -19.24 -7.84 " stroke="#191919" stroke-width="0.35 px" style="stroke-width:0.35;stroke-miterlimit:4;stroke-dasharray:none;fill:none;fill-opacity:1;fill-rule: evenodd"/>
<path id="Shape2DView_nwe0047"  d="M 2.655 -7.74 L -22.045 -7.74 " stroke="#191919" stroke-width="0.35 px" style="stroke-width:0.35;stroke-miterlimit:4;stroke-dasharray:none;fill:none;fill-opacity:1;fill-rule: evenodd"/>
<path id="Shape2DView_nwe0048"  d="M -22.045 -7.54 L -22.045 -7.74 " stroke="#191919" stroke-width="0.35 px" style="stroke-width:0.35;stroke-miterlimit:4;stroke-dasharray:none;fill:none;fill-opacity:1;fill-rule: evenodd"/>
<path id="Shape2DView_nwe0049"  d="M 2.655 -7.54 L 2.655 -7.74 " stroke="#191919" stroke-width="0.35 px" style="stroke-width:0.35;stroke-miterlimit:4;stroke-dasharray:none;fill:none;fill-opacity:1;fill-rule: evenodd"/>
<path id="Shape2DView_nwe0050"  d="M 2.655 -7.54 L -22.045 -7.54 " stroke="#191919" stroke-width="0.35 px" style="stroke-width:0.35;stroke-miterlimit:4;stroke-dasharray:none;fill:none;fill-opacity:1;fill-rule: evenodd"/>
<path id="Shape2DView_nwe0051"  d="M -2.62 -0.6 L -2.62 -7.54 " stroke="#191919" stroke-width="0.35 px" style="stroke-width:0.35;stroke-miterlimit:4;stroke-dasharray:none;fill:none;fill-opacity:1;fill-rule: evenodd"/>
<path id="Shape2DView_nwe0052"  d="M -4.005 -3.14 L -4.005 -7.540000000000001 " stroke="#191919" stroke-width="0.35 px" style="stroke-width:0.35;stroke-miterlimit:4;stroke-dasharray:none;fill:none;fill-opacity:1;fill-rule: evenodd"/>
<path id="Shape2DView_nwe0053"  d="M -5.39 -0.6 L -5.39 -7.54 " stroke="#191919" stroke-width="0.35 px" style="stroke-width:0.35;stroke-miterlimit:4;stroke-dasharray:none;fill:none;fill-opacity:1;fill-rule: evenodd"/>
<path id="Shape2DView_nwe0054"  d="M -9.545 -3.14 L -9.545 -7.540000000000001 " stroke="#191919" stroke-width="0.35 px" style="stroke-width:0.35;stroke-miterlimit:4;stroke-dasharray:none;fill:none;fill-opacity:1;fill-rule: evenodd"/>
<path id="Shape2DView_nwe0055"  d="M -6.775 -3.14 L -6.775 -7.540000000000001 " stroke="#191919" stroke-width="0.35 px" style="stroke-width:0.35;stroke-miterlimit:4;stroke-dasharray:none;fill:none;fill-opacity:1;fill-rule: evenodd"/>
<path id="Shape2DView_nwe0056"  d="M -8.16 -0.6 L -8.16 -7.54 " stroke="#191919" stroke-width="0.35 px" style="stroke-width:0.35;stroke-miterlimit:4;stroke-dasharray:none;fill:none;fill-opacity:1;fill-rule: evenodd"/>
<path id="Shape2DView_nwe0057"  d="M 0.15 -0.6 L 0.15 -7.54 " stroke="#191919" stroke-width="0.35 px" style="stroke-width:0.35;stroke-miterlimit:4;stroke-dasharray:none;fill:none;fill-opacity:1;fill-rule: evenodd"/>
<path id="Shape2DView_nwe0058"  d="M -1.235 -3.14 L -1.235 -7.540000000000001 " stroke="#191919" stroke-width="0.35 px" style="stroke-width:0.35;stroke-miterlimit:4;stroke-dasharray:none;fill:none;fill-opacity:1;fill-rule: evenodd"/>
<path id="Shape2DView_nwe0059"  d="M -13.7 -0.6 L -13.7 -7.54 " stroke="#191919" stroke-width="0.35 px" style="stroke-width:0.35;stroke-miterlimit:4;stroke-dasharray:none;fill:none;fill-opacity:1;fill-rule: evenodd"/>
<path id="Shape2DView_nwe0060"  d="M -12.315 -3.14 L -12.315 -7.540000000000001 " stroke="#191919" stroke-width="0.35 px" style="stroke-width:0.35;stroke-miterlimit:4;stroke-dasharray:none;fill:none;fill-opacity:1;fill-rule: evenodd"/>
<path id="Shape2DView_nwe0061"  d="M -10.93 -0.6 L -10.93 -7.54 " stroke="#191919" stroke-width="0.35 px" style="stroke-width:0.35;stroke-miterlimit:4;stroke-dasharray:none;fill:none;fill-opacity:1;fill-rule: evenodd"/>
<path id="Shape2DView_nwe0062"  d="M -17.855 -3.14 L -17.855 -7.540000000000001 " stroke="#191919" stroke-width="0.35 px" style="stroke-width:0.35;stroke-miterlimit:4;stroke-dasharray:none;fill:none;fill-opacity:1;fill-rule: evenodd"/>
<path id="Shape2DView_nwe0063"  d="M -16.47 -0.6 L -16.47 -7.54 " stroke="#191919" stroke-width="0.35 px" style="stroke-width:0.35;stroke-miterlimit:4;stroke-dasharray:none;fill:none;fill-opacity:1;fill-rule: evenodd"/>
<path id="Shape2DView_nwe0064"  d="M -15.085 -3.14 L -15.085 -7.540000000000001 " stroke="#191919" stroke-width="0.35 px" style="stroke-width:0.35;stroke-miterlimit:4;stroke-dasharray:none;fill:none;fill-opacity:1;fill-rule: evenodd"/>
<path id="Shape2DView_nwe0065"  d="M -19.24 -0.6 L -19.24 -7.54 " stroke="#191919" stroke-width="0.35 px" style="stroke-width:0.35;stroke-miterlimit:4;stroke-dasharray:none;fill:none;fill-opacity:1;fill-rule: evenodd"/>
<path id="Shape2DView_nwe0066"  d="M -2.62 0.0 L -2.62 -0.00377267406405446 L -2.62 -0.015043252690905784 L -2.62 -0.03367000181497948 L -2.62 -0.05941867925854849 L -2.62 -0.09196548046302955 L -2.62 -0.13090111051918213 L -2.62 -0.17573593128807147 L -2.62 -0.2259061188847598 L -2.62 -0.28078075409079806 L -2.62 -0.3396697565294651 L -2.62 -0.4018325628268997 L -2.62 -0.4664874396262113 L -2.62 -0.5328213143380153 L -2.62 -0.6 " stroke="#191919" stroke-width="0.35 px" style="stroke-width:0.35;stroke-miterlimit:4;stroke-dasharray:none;fill:none;fill-opacity:1;fill-rule: evenodd"/>
<path id="Shape2DView_nwe0067"  d="M -2.62 0.0 A 0.15 0.15 0 0 1 -2.92 1.83697e-17" stroke="#191919" stroke-width="0.35 px" style="stroke-width:0.35;stroke-miterlimit:4;stroke-dasharray:none;fill:none;fill-opacity:1;fill-rule: evenodd"/>
<path id="Shape2DView_nwe0068"  d="M -4.005 -2.54 L -4.005 -2.5437726740640545 L -4.005 -2.555043252690906 L -4.005 -2.5736700018149796 L -4.005 -2.5994186792585485 L -4.005 -2.6319654804630295 L -4.005 -2.6709011105191824 L -4.005 -2.7157359312880716 L -4.005 -2.76590611888476 L -4.005 -2.8207807540907983 L -4.005 -2.879669756529465 L -4.005 -2.9418325628269 L -4.005 -3.0064874396262113 L -4.005 -3.0728213143380154 L -4.005 -3.14 " stroke="#191919" stroke-width="0.35 px" style="stroke-width:0.35;stroke-miterlimit:4;stroke-dasharray:none;fill:none;fill-opacity:1;fill-rule: evenodd"/>
<path id="Shape2DView_nwe0069"  d="M -4.005 -2.54 A 0.15 0.15 0 0 1 -4.305 -2.54" stroke="#191919" stroke-width="0.35 px" style="stroke-width:0.35;stroke-miterlimit:4;stroke-dasharray:none;fill:none;fill-opacity:1;fill-rule: evenodd"/>
<path id="Shape2DView_nwe0070"  d="M -5.39 0.0 L -5.39 -0.00377267406405446 L -5.39 -0.015043252690905784 L -5.39 -0.03367000181497948 L -5.39 -0.05941867925854849 L -5.39 -0.09196548046302955 L -5.39 -0.13090111051918213 L -5.39 -0.17573593128807147 L -5.39 -0.2259061188847598 L -5.39 -0.28078075409079806 L -5.39 -0.3396697565294651 L -5.39 -0.4018325628268997 L -5.39 -0.4664874396262113 L -5.39 -0.5328213143380153 L -5.39 -0.6 " stroke="#191919" stroke-width="0.35 px" style="stroke-width:0.35;stroke-miterlimit:4;stroke-dasharray:none;fill:none;fill-opacity:1;fill-rule: evenodd"/>
<path id="Shape2DView_nwe0071"  d="M -5.39 0.0 A 0.15 0.15 0 0 1 -5.69 1.83697e-17" stroke="#191919" stroke-width="0.35 px" style="stroke-width:0.35;stroke-miterlimit:4;stroke-dasharray:none;fill:none;fill-opacity:1;fill-rule: evenodd"/>
<path id="Shape2DView_nwe0072"  d="M -9.545 -2.54 L -9.545 -2.5437726740640545 L -9.545 -2.555043252690906 L -9.545 -2.5736700018149796 L -9.545 -2.5994186792585485 L -9.545 -2.6319654804630295 L -9.545 -2.6709011105191824 L -9.545 -2.7157359312880716 L -9.545 -2.76590611888476 L -9.545 -2.8207807540907983 L -9.545 -2.879669756529465 L -9.545 -2.9418325628269 L -9.545 -3.0064874396262113 L -9.545 -3.0728213143380154 L -9.545 -3.14 " stroke="#191919" stroke-width="0.35 px" style="stroke-width:0.35;stroke-miterlimit:4;stroke-dasharray:none;fill:none;fill-opacity:1;fill-rule: evenodd"/>
<path id="Shape2DView_nwe0073"  d="M -9.545 -2.54 A 0.15 0.15 0 0 1 -9.845 -2.54" stroke="#191919" stroke-width="0.35 px" style="stroke-width:0.35;stroke-miterlimit:4;stroke-dasharray:none;fill:none;fill-opacity:1;fill-rule: evenodd"/>
<path id="Shape2DView_nwe0074"  d="M -6.775 -2.54 L -6.775 -2.5437726740640545 L -6.775 -2.555043252690906 L -6.775 -2.5736700018149796 L -6.775 -2.5994186792585485 L -6.775 -2.6319654804630295 L -6.775 -2.6709011105191824 L -6.775 -2.7157359312880716 L -6.775 -2.76590611888476 L -6.775 -2.8207807540907983 L -6.775 -2.879669756529465 L -6.775 -2.9418325628269 L -6.775 -3.0064874396262113 L -6.775 -3.0728213143380154 L -6.775 -3.14 " stroke="#191919" stroke-width="0.35 px" style="stroke-width:0.35;stroke-miterlimit:4;stroke-dasharray:none;fill:none;fill-opacity:1;fill-rule: evenodd"/>
<path id="Shape2DView_nwe0075"  d="M -6.7749999999999995 -2.54 A 0.15 0.15 0 0 1 -7.075 -2.54" stroke="#191919" stroke-width="0.35 px" style="stroke-width:0.35;stroke-miterlimit:4;stroke-dasharray:none;fill:none;fill-opacity:1;fill-rule: evenodd"/>
<path id="Shape2DView_nwe0076"  d="M -8.16 0.0 L -8.16 -0.00377267406405446 L -8.16 -0.015043252690905784 L -8.16 -0.03367000181497948 L -8.16 -0.05941867925854849 L -8.16 -0.09196548046302955 L -8.16 -0.13090111051918213 L -8.16 -0.17573593128807147 L -8.16 -0.2259061188847598 L -8.16 -0.28078075409079806 L -8.16 -0.3396697565294651 L -8.16 -0.4018325628268997 L -8.16 -0.4664874396262113 L -8.16 -0.5328213143380153 L -8.16 -0.6 " stroke="#191919" stroke-width="0.35 px" style="stroke-width:0.35;stroke-miterlimit:4;stroke-dasharray:none;fill:none;fill-opacity:1;fill-rule: evenodd"/>
<path id="Shape2DView_nwe0077"  d="M -8.16 0.0 A 0.15 0.15 0 0 1 -8.46 1.83697e-17" stroke="#191919" stroke-width="0.35 px" style="stroke-width:0.35;stroke-miterlimit:4;stroke-dasharray:none;fill:none;fill-opacity:1;fill-rule: evenodd"/>
<path id="Shape2DView_nwe0078"  d="M 0.15 0.0 L 0.15 -0.00377267406405446 L 0.15 -0.015043252690905784 L 0.15 -0.03367000181497948 L 0.15 -0.05941867925854849 L 0.15 -0.09196548046302955 L 0.15 -0.13090111051918213 L 0.15 -0.17573593128807147 L 0.15 -0.2259061188847598 L 0.15 -0.28078075409079806 L 0.15 -0.3396697565294651 L 0.15 -0.4018325628268997 L 0.15 -0.4664874396262113 L 0.15 -0.5328213143380153 L 0.15 -0.6 " stroke="#191919" stroke-width="0.35 px" style="stroke-width:0.35;stroke-miterlimit:4;stroke-dasharray:none;fill:none;fill-opacity:1;fill-rule: evenodd"/>
<path id="Shape2DView_nwe0079"  d="M 0.15 0.0 A 0.15 0.15 0 0 1 -0.15 1.83697e-17" stroke="#191919" stroke-width="0.35 px" style="stroke-width:0.35;stroke-miterlimit:4;stroke-dasharray:none;fill:none;fill-opacity:1;fill-rule: evenodd"/>
<path id="Shape2DView_nwe0080"  d="M -1.235 -2.54 L -1.235 -2.5437726740640545 L -1.235 -2.555043252690906 L -1.235 -2.5736700018149796 L -1.235 -2.5994186792585485 L -1.235 -2.6319654804630295 L -1.235 -2.6709011105191824 L -1.235 -2.7157359312880716 L -1.235 -2.76590611888476 L -1.235 -2.8207807540907983 L -1.235 -2.879669756529465 L -1.235 -2.9418325628269 L -1.235 -3.0064874396262113 L -1.235 -3.0728213143380154 L -1.235 -3.14 " stroke="#191919" stroke-width="0.35 px" style="stroke-width:0.35;stroke-miterlimit:4;stroke-dasharray:none;fill:none;fill-opacity:1;fill-rule: evenodd"/>
<path id="Shape2DView_nwe0081"  d="M -1.235 -2.54 A 0.15 0.15 0 0 1 -1.535 -2.54" stroke="#191919" stroke-width="0.35 px" style="stroke-width:0.35;stroke-miterlimit:4;stroke-dasharray:none;fill:none;fill-opacity:1;fill-rule: evenodd"/>
<path id="Shape2DView_nwe0082"  d="M -13.7 0.0 L -13.7 -0.00377267406405446 L -13.7 -0.015043252690905784 L -13.7 -0.03367000181497948 L -13.7 -0.05941867925854849 L -13.7 -0.09196548046302955 L -13.7 -0.13090111051918213 L -13.7 -0.17573593128807147 L -13.7 -0.2259061188847598 L -13.7 -0.28078075409079806 L -13.7 -0.3396697565294651 L -13.7 -0.4018325628268997 L -13.7 -0.4664874396262113 L -13.7 -0.5328213143380153 L -13.7 -0.6 " stroke="#191919" stroke-width="0.35 px" style="stroke-width:0.35;stroke-miterlimit:4;stroke-dasharray:none;fill:none;fill-opacity:1;fill-rule: evenodd"/>
<path id="Shape2DView_nwe0083"  d="M -13.7 0.0 A 0.15 0.15 0 0 1 -14 1.83697e-17" stroke="#191919" stroke-width="0.35 px" style="stroke-width:0.35;stroke-miterlimit:4;stroke-dasharray:none;fill:none;fill-opacity:1;fill-rule: evenodd"/>
<path id="Shape2DView_nwe0084"  d="M -12.315 -2.54 L -12.315 -2.5437726740640545 L -12.315 -2.555043252690906 L -12.315 -2.5736700018149796 L -12.315 -2.5994186792585485 L -12.315 -2.6319654804630295 L -12.315 -2.6709011105191824 L -12.315 -2.7157359312880716 L -12.315 -2.76590611888476 L -12.315 -2.8207807540907983 L -12.315 -2.879669756529465 L -12.315 -2.9418325628269 L -12.315 -3.0064874396262113 L -12.315 -3.0728213143380154 L -12.315 -3.14 " stroke="#191919" stroke-width="0.35 px" style="stroke-width:0.35;stroke-miterlimit:4;stroke-dasharray:none;fill:none;fill-opacity:1;fill-rule: evenodd"/>
<path id="Shape2DView_nwe0085"  d="M -12.315 -2.54 A 0.15 0.15 0 0 1 -12.615 -2.54" stroke="#191919" stroke-width="0.35 px" style="stroke-width:0.35;stroke-miterlimit:4;stroke-dasharray:none;fill:none;fill-opacity:1;fill-rule: evenodd"/>
<path id="Shape2DView_nwe0086"  d="M -10.93 0.0 L -10.93 -0.00377267406405446 L -10.93 -0.015043252690905784 L -10.93 -0.03367000181497948 L -10.93 -0.05941867925854849 L -10.93 -0.09196548046302955 L -10.93 -0.13090111051918213 L -10.93 -0.17573593128807147 L -10.93 -0.2259061188847598 L -10.93 -0.28078075409079806 L -10.93 -0.3396697565294651 L -10.93 -0.4018325628268997 L -10.93 -0.4664874396262113 L -10.93 -0.5328213143380153 L -10.93 -0.6 " stroke="#191919" stroke-width="0.35 px" style="stroke-width:0.35;stroke-miterlimit:4;stroke-dasharray:none;fill:none;fill-opacity:1;fill-rule: evenodd"/>
<path id="Shape2DView_nwe0087"  d="M -10.93 0.0 A 0.15 0.15 0 0 1 -11.23 1.83697e-17" stroke="#191919" stroke-width="0.35 px" style="stroke-width:0.35;stroke-miterlimit:4;stroke-dasharray:none;fill:none;fill-opacity:1;fill-rule: evenodd"/>
<path id="Shape2DView_nwe0088"  d="M -17.855 -2.54 L -17.855 -2.5437726740640545 L -17.855 -2.555043252690906 L -17.855 -2.5736700018149796 L -17.855 -2.5994186792585485 L -17.855 -2.6319654804630295 L -17.855 -2.6709011105191824 L -17.855 -2.7157359312880716 L -17.855 -2.76590611888476 L -17.855 -2.8207807540907983 L -17.855 -2.879669756529465 L -17.855 -2.9418325628269 L -17.855 -3.0064874396262113 L -17.855 -3.0728213143380154 L -17.855 -3.14 " stroke="#191919" stroke-width="0.35 px" style="stroke-width:0.35;stroke-miterlimit:4;stroke-dasharray:none;fill:none;fill-opacity:1;fill-rule: evenodd"/>
<path id="Shape2DView_nwe0089"  d="M -17.855 -2.54 A 0.15 0.15 0 0 1 -18.155 -2.54" stroke="#191919" stroke-width="0.35 px" style="stroke-width:0.35;stroke-miterlimit:4;stroke-dasharray:none;fill:none;fill-opacity:1;fill-rule: evenodd"/>
<path id="Shape2DView_nwe0090"  d="M -16.47 0.0 L -16.47 -0.00377267406405446 L -16.47 -0.015043252690905784 L -16.47 -0.03367000181497948 L -16.47 -0.05941867925854849 L -16.47 -0.09196548046302955 L -16.47 -0.13090111051918213 L -16.47 -0.17573593128807147 L -16.47 -0.2259061188847598 L -16.47 -0.28078075409079806 L -16.47 -0.3396697565294651 L -16.47 -0.4018325628268997 L -16.47 -0.4664874396262113 L -16.47 -0.5328213143380153 L -16.47 -0.6 " stroke="#191919" stroke-width="0.35 px" style="stroke-width:0.35;stroke-miterlimit:4;stroke-dasharray:none;fill:none;fill-opacity:1;fill-rule: evenodd"/>
<path id="Shape2DView_nwe0091"  d="M -16.470000000000002 0.0 A 0.15 0.15 0 0 1 -16.77 1.83697e-17" stroke="#191919" stroke-width="0.35 px" style="stroke-width:0.35;stroke-miterlimit:4;stroke-dasharray:none;fill:none;fill-opacity:1;fill-rule: evenodd"/>
<path id="Shape2DView_nwe0092"  d="M -15.085 -2.54 L -15.085 -2.5437726740640545 L -15.085 -2.555043252690906 L -15.085 -2.5736700018149796 L -15.085 -2.5994186792585485 L -15.085 -2.6319654804630295 L -15.085 -2.6709011105191824 L -15.085 -2.7157359312880716 L -15.085 -2.76590611888476 L -15.085 -2.8207807540907983 L -15.085 -2.879669756529465 L -15.085 -2.9418325628269 L -15.085 -3.0064874396262113 L -15.085 -3.0728213143380154 L -15.085 -3.14 " stroke="#191919" stroke-width="0.35 px" style="stroke-width:0.35;stroke-miterlimit:4;stroke-dasharray:none;fill:none;fill-opacity:1;fill-rule: evenodd"/>
<path id="Shape2DView_nwe0093"  d="M -15.084999999999999 -2.54 A 0.15 0.15 0 0 1 -15.385 -2.54" stroke="#191919" stroke-width="0.35 px" style="stroke-width:0.35;stroke-miterlimit:4;stroke-dasharray:none;fill:none;fill-opacity:1;fill-rule: evenodd"/>
<path id="Shape2DView_nwe0094"  d="M -19.24 0.0 L -19.24 -0.00377267406405446 L -19.24 -0.015043252690905784 L -19.24 -0.03367000181497948 L -19.24 -0.05941867925854849 L -19.24 -0.09196548046302955 L -19.24 -0.13090111051918213 L -19.24 -0.17573593128807147 L -19.24 -0.2259061188847598 L -19.24 -0.28078075409079806 L -19.24 -0.3396697565294651 L -19.24 -0.4018325628268997 L -19.24 -0.4664874396262113 L -19.24 -0.5328213143380153 L -19.24 -0.6 " stroke="#191919" stroke-width="0.35 px" style="stroke-width:0.35;stroke-miterlimit:4;stroke-dasharray:none;fill:none;fill-opacity:1;fill-rule: evenodd"/>
<path id="Shape2DView_nwe0095"  d="M -19.240000000000002 0.0 A 0.15 0.15 0 0 1 -19.54 1.83697e-17" stroke="#191919" stroke-width="0.35 px" style="stroke-width:0.35;stroke-miterlimit:4;stroke-dasharray:none;fill:none;fill-opacity:1;fill-rule: evenodd"/>
<circle cx="-2.77" cy="1.315192911205e-32" r="0.15" stroke="#191919" stroke-width="0.35 px" style="stroke-width:0.35;stroke-miterlimit:4;stroke-dasharray:none;fill:none"/>
<circle cx="-4.155" cy="-2.54" r="0.15" stroke="#191919" stroke-width="0.35 px" style="stroke-width:0.35;stroke-miterlimit:4;stroke-dasharray:none;fill:none"/>
<circle cx="-5.54" cy="1.315192911205e-32" r="0.15" stroke="#191919" stroke-width="0.35 px" style="stroke-width:0.35;stroke-miterlimit:4;stroke-dasharray:none;fill:none"/>
<circle cx="-9.695" cy="-2.54" r="0.15" stroke="#191919" stroke-width="0.35 px" style="stroke-width:0.35;stroke-miterlimit:4;stroke-dasharray:none;fill:none"/>
<circle cx="-6.925" cy="-2.54" r="0.15" stroke="#191919" stroke-width="0.35 px" style="stroke-width:0.35;stroke-miterlimit:4;stroke-dasharray:none;fill:none"/>
<circle cx="-8.31" cy="1.315192911205e-32" r="0.15" stroke="#191919" stroke-width="0.35 px" style="stroke-width:0.35;stroke-miterlimit:4;stroke-dasharray:none;fill:none"/>
<circle cx="2.282583637792e-32" cy="1.315192911205e-32" r="0.15" stroke="#191919" stroke-width="0.35 px" style="stroke-width:0.35;stroke-miterlimit:4;stroke-dasharray:none;fill:none"/>
<circle cx="-1.385" cy="-2.54" r="0.15" stroke="#191919" stroke-width="0.35 px" style="stroke-width:0.35;stroke-miterlimit:4;stroke-dasharray:none;fill:none"/>
<circle cx="-13.85" cy="1.315192911205e-32" r="0.15" stroke="#191919" stroke-width="0.35 px" style="stroke-width:0.35;stroke-miterlimit:4;stroke-dasharray:none;fill:none"/>
<circle cx="-12.465" cy="-2.54" r="0.15" stroke="#191919" stroke-width="0.35 px" style="stroke-width:0.35;stroke-miterlimit:4;stroke-dasharray:none;fill:none"/>
<circle cx="-11.08" cy="1.315192911205e-32" r="0.15" stroke="#191919" stroke-width="0.35 px" style="stroke-width:0.35;stroke-miterlimit:4;stroke-dasharray:none;fill:none"/>
<circle cx="-18.005" cy="-2.54" r="0.15" stroke="#191919" stroke-width="0.35 px" style="stroke-width:0.35;stroke-miterlimit:4;stroke-dasharray:none;fill:none"/>
<circle cx="-16.62" cy="1.315192911205e-32" r="0.15" stroke="#191919" stroke-width="0.35 px" style="stroke-width:0.35;stroke-miterlimit:4;stroke-dasharray:none;fill:none"/>
<circle cx="-15.235" cy="-2.54" r="0.15" stroke="#191919" stroke-width="0.35 px" style="stroke-width:0.35;stroke-miterlimit:4;stroke-dasharray:none;fill:none"/>
<circle cx="-19.39" cy="1.315192911205e-32" r="0.15" stroke="#191919" stroke-width="0.35 px" style="stroke-width:0.35;stroke-miterlimit:4;stroke-dasharray:none;fill:none"/>
<path id="Shape2DView_nwe0111"  d="M -20.6990820053 -18.24 L -20.6990820053 -18.34 " stroke="#191919" stroke-width="0.35 px" style="stroke-width:0.35;stroke-miterlimit:4;stroke-dasharray:none;fill:none;fill-opacity:1;fill-rule: evenodd"/>
<path id="Shape2DView_nwe0112"  d="M 1.309082005303 -18.24 L 1.309082005303 -18.34 " stroke="#191919" stroke-width="0.35 px" style="stroke-width:0.35;stroke-miterlimit:4;stroke-dasharray:none;fill:none;fill-opacity:1;fill-rule: evenodd"/>
<path id="Shape2DView_nwe0113"  d="M -20.6990820053 -18.04 L -20.6990820053 -18.24 " stroke="#191919" stroke-width="0.35 px" style="stroke-width:0.35;stroke-miterlimit:4;stroke-dasharray:none;fill:none;fill-opacity:1;fill-rule: evenodd"/>
<path id="Shape2DView_nwe0114"  d="M 1.309082005303 -18.04 L 1.309082005303 -18.24 " stroke="#191919" stroke-width="0.35 px" style="stroke-width:0.35;stroke-miterlimit:4;stroke-dasharray:none;fill:none;fill-opacity:1;fill-rule: evenodd"/>
<path id="Shape2DView_nwe0115"  d="M -20.80443192049 -18.04 L -20.80443192049 -17.99 " stroke="#191919" stroke-width="0.35 px" style="stroke-width:0.35;stroke-miterlimit:4;stroke-dasharray:none;fill:none;fill-opacity:1;fill-rule: evenodd"/>
<path id="Shape2DView_nwe0116"  d="M 1.414431920499 -18.04 L 1.414431920499 -17.99 " stroke="#191919" stroke-width="0.35 px" style="stroke-width:0.35;stroke-miterlimit:4;stroke-dasharray:none;fill:none;fill-opacity:1;fill-rule: evenodd"/>
<path id="Shape2DView_nwe0117"  d="M -20.80443192049 -12.84 L -20.80443192049 -17.99 " stroke="#191919" stroke-width="0.35 px" style="stroke-width:0.35;stroke-miterlimit:4;stroke-dasharray:none;fill:none;fill-opacity:1;fill-rule: evenodd"/>
<path id="Shape2DView_nwe0118"  d="M -21.80443192049 -12.84 L -21.798144130383243 -12.84 L -21.779359832671823 -12.84 L -21.748315250798367 -12.84 L -21.705400788392417 -12.84 L -21.651156119718284 -12.84 L -21.58626340295803 -12.84 L -21.511538701676546 -12.84 L -21.42792172234873 -12.84 L -21.336463997005335 -12.84 L -21.238315659607558 -12.84 L -21.134710982445167 -12.84 L -21.026952854446314 -12.84 L -20.916396396593306 -12.84 L -20.80443192049 -12.84 " stroke="#191919" stroke-width="0.35 px" style="stroke-width:0.35;stroke-miterlimit:4;stroke-dasharray:none;fill:none;fill-opacity:1;fill-rule: evenodd"/>
<path id="Shape2DView_nwe0119"  d="M 1.414431920499 -12.84 L 1.414431920499 -17.99 " stroke="#191919" stroke-width="0.35 px" style="stroke-width:0.35;stroke-miterlimit:4;stroke-dasharray:none;fill:none;fill-opacity:1;fill-rule: evenodd"/>
<path id="Shape2DView_nwe0120"  d="M -20.80443192049 -12.84 L 1.4144319204989984 -12.84 " stroke="#191919" stroke-width="0.35 px" style="stroke-width:0.35;stroke-miterlimit:4;stroke-dasharray:none;fill:none;fill-opacity:1;fill-rule: evenodd"/>
<path id="Shape2DView_nwe0121"  d="M 1.414431920499 -12.84 L 1.5263963966023077 -12.84 L 1.6369528544553142 -12.84 L 1.744710982454167 -12.84 L 1.848315659616558 -12.84 L 1.9464639970143365 -12.84 L 2.0379217223577335 -12.84 L 2.121538701685547 -12.84 L 2.1962634029670296 -12.84 L 2.261156119727284 -12.84 L 2.315400788401419 -12.84 L 2.3583152508073675 -12.84 L 2.3893598326808236 -12.84 L 2.4081441303922424 -12.84 L 2.414431920499 -12.84 " stroke="#191919" stroke-width="0.35 px" style="stroke-width:0.35;stroke-miterlimit:4;stroke-dasharray:none;fill:none;fill-opacity:1;fill-rule: evenodd"/>
<path id="Shape2DView_nwe0122"  d="M -20.80443192049 -12.84 L -20.80443192049 -12.772821314338016 L -20.80443192049 -12.706487439626212 L -20.80443192049 -12.6418325628269 L -20.80443192049 -12.579669756529466 L -20.80443192049 -12.520780754090797 L -20.80443192049 -12.46590611888476 L -20.80443192049 -12.415735931288072 L -20.80443192049 -12.370901110519181 L -20.80443192049 -12.33196548046303 L -20.80443192049 -12.29941867925855 L -20.80443192049 -12.27367000181498 L -20.80443192049 -12.255043252690905 L -20.80443192049 -12.243772674064054 L -20.80443192049 -12.24 " stroke="#191919" stroke-width="0.35 px" style="stroke-width:0.35;stroke-miterlimit:4;stroke-dasharray:none;fill:none;fill-opacity:1;fill-rule: evenodd"/>
<path id="Shape2DView_nwe0123"  d="M 1.414431920499 -12.84 L 1.414431920499 -12.772821314338016 L 1.414431920499 -12.706487439626212 L 1.414431920499 -12.6418325628269 L 1.414431920499 -12.579669756529466 L 1.414431920499 -12.520780754090797 L 1.414431920499 -12.46590611888476 L 1.414431920499 -12.415735931288072 L 1.414431920499 -12.370901110519181 L 1.414431920499 -12.33196548046303 L 1.414431920499 -12.29941867925855 L 1.414431920499 -12.27367000181498 L 1.414431920499 -12.255043252690905 L 1.414431920499 -12.243772674064054 L 1.414431920499 -12.24 " stroke="#191919" stroke-width="0.35 px" style="stroke-width:0.35;stroke-miterlimit:4;stroke-dasharray:none;fill:none;fill-opacity:1;fill-rule: evenodd"/>
<path id="Shape2DView_nwe0124"  d="M 9.905 -12.14 L 9.898712209893242 -12.14 L 9.879927912181824 -12.14 L 9.848883330308366 -12.14 L 9.805968867902418 -12.14 L 9.751724199228283 -12.14 L 9.68683148246803 -12.14 L 9.612106781186547 -12.14 L 9.528489801858733 -12.14 L 9.437032076515337 -12.14 L 9.338883739117557 -12.14 L 9.235279061955167 -12.14 L 9.127520933956314 -12.14 L 9.016964476103308 -12.14 L 8.905 -12.14 " stroke="#191919" stroke-width="0.35 px" style="stroke-width:0.35;stroke-miterlimit:4;stroke-dasharray:none;fill:none;fill-opacity:1;fill-rule: evenodd"/>
<path id="Shape2DView_nwe0125"  d="M 8.905 -12.14 L 8.905 -12.151196447610332 L 8.905 -12.162252093395631 L 8.905 -12.173027906195518 L 8.905 -12.183388373911756 L 8.905 -12.193203207651534 L 8.905 -12.202348980185874 L 8.905 -12.210710678118655 L 8.905 -12.218183148246803 L 8.905 -12.224672419922829 L 8.905 -12.230096886790243 L 8.905 -12.234388333030838 L 8.905 -12.237492791218182 L 8.905 -12.239371220989325 L 8.905 -12.24 " stroke="#191919" stroke-width="0.35 px" style="stroke-width:0.35;stroke-miterlimit:4;stroke-dasharray:none;fill:none;fill-opacity:1;fill-rule: evenodd"/>
<path id="Shape2DView_nwe0126"  d="M 8.905 -12.14 L -28.295 -12.14 " stroke="#191919" stroke-width="0.35 px" style="stroke-width:0.35;stroke-miterlimit:4;stroke-dasharray:none;fill:none;fill-opacity:1;fill-rule: evenodd"/>
<path id="Shape2DView_nwe0127"  d="M -28.295 -12.14 L -28.295 -12.151196447610332 L -28.295 -12.162252093395631 L -28.295 -12.173027906195518 L -28.295 -12.183388373911756 L -28.295 -12.193203207651534 L -28.295 -12.202348980185874 L -28.295 -12.210710678118655 L -28.295 -12.218183148246803 L -28.295 -12.224672419922829 L -28.295 -12.230096886790243 L -28.295 -12.234388333030838 L -28.295 -12.237492791218182 L -28.295 -12.239371220989325 L -28.295 -12.24 " stroke="#191919" stroke-width="0.35 px" style="stroke-width:0.35;stroke-miterlimit:4;stroke-dasharray:none;fill:none;fill-opacity:1;fill-rule: evenodd"/>
<path id="Shape2DView_nwe0128"  d="M -28.295 -12.14 L -28.406964476103308 -12.14 L -28.517520933956316 -12.14 L -28.62527906195517 -12.14 L -28.72888373911756 -12.14 L -28.827032076515337 -12.14 L -28.918489801858737 -12.14 L -29.002106781186548 -12.14 L -29.07683148246803 -12.14 L -29.141724199228285 -12.14 L -29.195968867902423 -12.14 L -29.23888333030837 -12.14 L -29.269927912181824 -12.14 L -29.288712209893244 -12.14 L -29.295 -12.14 " stroke="#191919" stroke-width="0.35 px" style="stroke-width:0.35;stroke-miterlimit:4;stroke-dasharray:none;fill:none;fill-opacity:1;fill-rule: evenodd"/>
<path id="Shape2DView_nwe0129"  d="M 9.905 -11.94 L 9.898712209893242 -11.94 L 9.879927912181824 -11.94 L 9.848883330308366 -11.94 L 9.805968867902418 -11.94 L 9.751724199228283 -11.94 L 9.68683148246803 -11.94 L 9.612106781186547 -11.94 L 9.528489801858733 -11.94 L 9.437032076515337 -11.94 L 9.338883739117557 -11.94 L 9.235279061955167 -11.94 L 9.127520933956314 -11.94 L 9.016964476103308 -11.94 L 8.905 -11.94 " stroke="#191919" stroke-width="0.35 px" style="stroke-width:0.35;stroke-miterlimit:4;stroke-dasharray:none;fill:none;fill-opacity:1;fill-rule: evenodd"/>
<path id="Shape2DView_nwe0130"  d="M 8.905 -11.94 L 8.905 -12.14 " stroke="#191919" stroke-width="0.35 px" style="stroke-width:0.35;stroke-miterlimit:4;stroke-dasharray:none;fill:none;fill-opacity:1;fill-rule: evenodd"/>
<path id="Shape2DView_nwe0131"  d="M -28.295 -11.94 L -28.295 -12.14 " stroke="#191919" stroke-width="0.35 px" style="stroke-width:0.35;stroke-miterlimit:4;stroke-dasharray:none;fill:none;fill-opacity:1;fill-rule: evenodd"/>
<path id="Shape2DView_nwe0132"  d="M 8.905 -11.94 L -28.295 -11.94 " stroke="#191919" stroke-width="0.35 px" style="stroke-width:0.35;stroke-miterlimit:4;stroke-dasharray:none;fill:none;fill-opacity:1;fill-rule: evenodd"/>
<path id="Shape2DView_nwe0133"  d="M -28.295 -11.94 L -28.406964476103308 -11.94 L -28.517520933956316 -11.94 L -28.62527906195517 -11.94 L -28.72888373911756 -11.94 L -28.827032076515337 -11.94 L -28.918489801858737 -11.94 L -29.002106781186548 -11.94 L -29.07683148246803 -11.94 L -29.141724199228285 -11.94 L -29.195968867902423 -11.94 L -29.23888333030837 -11.94 L -29.269927912181824 -11.94 L -29.288712209893244 -11.94 L -29.295 -11.94 " stroke="#191919" stroke-width="0.35 px" style="stroke-width:0.35;stroke-miterlimit:4;stroke-dasharray:none;fill:none;fill-opacity:1;fill-rule: evenodd"/>
<path id="Shape2DView_nwe0134"  d="M 8.905 -11.84 L 8.905 -11.840628779010675 L 8.905 -11.842507208781818 L 8.905 -11.845611666969162 L 8.905 -11.849903113209757 L 8.905 -11.855327580077171 L 8.905 -11.861816851753197 L 8.905 -11.869289321881345 L 8.905 -11.877651019814126 L 8.905 -11.886796792348466 L 8.905 -11.896611626088244 L 8.905 -11.906972093804482 L 8.905 -11.917747906604369 L 8.905 -11.928803552389668 L 8.905 -11.94 " stroke="#191919" stroke-width="0.35 px" style="stroke-width:0.35;stroke-miterlimit:4;stroke-dasharray:none;fill:none;fill-opacity:1;fill-rule: evenodd"/>
<path id="Shape2DView_nwe0135"  d="M -28.295 -11.84 L -28.295 -11.840628779010675 L -28.295 -11.842507208781818 L -28.295 -11.845611666969162 L -28.295 -11.849903113209757 L -28.295 -11.855327580077171 L -28.295 -11.861816851753197 L -28.295 -11.869289321881345 L -28.295 -11.877651019814126 L -28.295 -11.886796792348466 L -28.295 -11.896611626088244 L -28.295 -11.906972093804482 L -28.295 -11.917747906604369 L -28.295 -11.928803552389668 L -28.295 -11.94 " stroke="#191919" stroke-width="0.35 px" style="stroke-width:0.35;stroke-miterlimit:4;stroke-dasharray:none;fill:none;fill-opacity:1;fill-rule: evenodd"/>
<path id="Shape2DView_nwe0136"  d="M 4.154999999999999 -8.84 L 4.148712209893242 -8.84 L 4.129927912181824 -8.84 L 4.098883330308367 -8.84 L 4.055968867902419 -8.84 L 4.001724199228284 -8.84 L 3.9368314824680297 -8.84 L 3.8621067811865473 -8.84 L 3.7784898018587336 -8.84 L 3.6870320765153366 -8.84 L 3.588883739117558 -8.84 L 3.485279061955167 -8.84 L 3.377520933956314 -8.84 L 3.2669644761033076 -8.84 L 3.155 -8.84 " stroke="#191919" stroke-width="0.35 px" style="stroke-width:0.35;stroke-miterlimit:4;stroke-dasharray:none;fill:none;fill-opacity:1;fill-rule: evenodd"/>
<path id="Shape2DView_nwe0137"  d="M 3.155 -8.84 L 3.155 -11.84 " stroke="#191919" stroke-width="0.35 px" style="stroke-width:0.35;stroke-miterlimit:4;stroke-dasharray:none;fill:none;fill-opacity:1;fill-rule: evenodd"/>
<path id="Shape2DView_nwe0138"  d="M -22.545 -8.84 L -22.545 -11.84 " stroke="#191919" stroke-width="0.35 px" style="stroke-width:0.35;stroke-miterlimit:4;stroke-dasharray:none;fill:none;fill-opacity:1;fill-rule: evenodd"/>
<path id="Shape2DView_nwe0139"  d="M 3.155 -8.84 L -22.545 -8.84 " stroke="#191919" stroke-width="0.35 px" style="stroke-width:0.35;stroke-miterlimit:4;stroke-dasharray:none;fill:none;fill-opacity:1;fill-rule: evenodd"/>
<path id="Shape2DView_nwe0140"  d="M -22.545 -8.84 L -22.656964476103308 -8.84 L -22.767520933956316 -8.84 L -22.87527906195517 -8.84 L -22.97888373911756 -8.84 L -23.077032076515337 -8.84 L -23.168489801858737 -8.84 L -23.252106781186548 -8.84 L -23.32683148246803 -8.84 L -23.391724199228285 -8.84 L -23.445968867902423 -8.84 L -23.48888333030837 -8.84 L -23.519927912181824 -8.84 L -23.538712209893244 -8.84 L -23.545 -8.84 " stroke="#191919" stroke-width="0.35 px" style="stroke-width:0.35;stroke-miterlimit:4;stroke-dasharray:none;fill:none;fill-opacity:1;fill-rule: evenodd"/>
<path id="Shape2DView_nwe0142"  d="M 3.155 -7.84 L 3.155 -7.846287790106757 L 3.155 -7.865072087818176 L 3.155 -7.896116669691632 L 3.155 -7.939031132097581 L 3.155 -7.993275800771715 L 3.155 -8.05816851753197 L 3.155 -8.132893218813452 L 3.155 -8.216510198141266 L 3.155 -8.307967923484663 L 3.155 -8.406116260882442 L 3.155 -8.509720938044833 L 3.155 -8.617479066043686 L 3.155 -8.728035523896692 L 3.155 -8.84 " stroke="#191919" stroke-width="0.35 px" style="stroke-width:0.35;stroke-miterlimit:4;stroke-dasharray:none;fill:none;fill-opacity:1;fill-rule: evenodd"/>
<path id="Shape2DView_nwe0143"  d="M -22.545 -7.84 L -22.545 -7.846287790106757 L -22.545 -7.865072087818176 L -22.545 -7.896116669691632 L -22.545 -7.939031132097581 L -22.545 -7.993275800771715 L -22.545 -8.05816851753197 L -22.545 -8.132893218813452 L -22.545 -8.216510198141266 L -22.545 -8.307967923484663 L -22.545 -8.406116260882442 L -22.545 -8.509720938044833 L -22.545 -8.617479066043686 L -22.545 -8.728035523896692 L -22.545 -8.84 " stroke="#191919" stroke-width="0.35 px" style="stroke-width:0.35;stroke-miterlimit:4;stroke-dasharray:none;fill:none;fill-opacity:1;fill-rule: evenodd"/>
<path id="Shape2DView_nwe0144"  d="M -2.92 -0.6 L -2.9162391868272737 -0.5999999999999999 L -2.9051453301853627 -0.5999999999999999 L -2.8872747223702047 -0.5999999999999998 L -2.86352347027881 -0.5999999999999998 L -2.835082560867634 -0.5999999999999996 L -2.8033781400934474 -0.5999999999999996 L -2.77 -0.5999999999999996 L -2.736621859906553 -0.5999999999999996 L -2.7049174391323665 -0.5999999999999996 L -2.67647652972119 -0.5999999999999998 L -2.6527252776297954 -0.5999999999999998 L -2.6348546698146373 -0.5999999999999999 L -2.6237608131727264 -0.5999999999999999 L -2.62 -0.6 " stroke="#191919" stroke-width="0.35 px" style="stroke-width:0.35;stroke-miterlimit:4;stroke-dasharray:none;fill:none;fill-opacity:1;fill-rule: evenodd"/>
<path id="Shape2DView_nwe0145"  d="M -4.305000000000001 -3.14 L -4.3012391868272735 -3.14 L -4.290145330185363 -3.14 L -4.272274722370205 -3.14 L -4.24852347027881 -3.1399999999999997 L -4.220082560867634 -3.1399999999999997 L -4.188378140093447 -3.1399999999999997 L -4.155 -3.1399999999999997 L -4.121621859906553 -3.1399999999999997 L -4.089917439132367 -3.1399999999999997 L -4.06147652972119 -3.1399999999999997 L -4.037725277629796 -3.14 L -4.019854669814637 -3.14 L -4.008760813172727 -3.14 L -4.005 -3.14 " stroke="#191919" stroke-width="0.35 px" style="stroke-width:0.35;stroke-miterlimit:4;stroke-dasharray:none;fill:none;fill-opacity:1;fill-rule: evenodd"/>
<path id="Shape2DView_nwe0146"  d="M -5.69 -0.6 L -5.686239186827273 -0.5999999999999999 L -5.675145330185363 -0.5999999999999999 L -5.657274722370205 -0.5999999999999998 L -5.63352347027881 -0.5999999999999998 L -5.605082560867634 -0.5999999999999996 L -5.573378140093447 -0.5999999999999996 L -5.54 -0.5999999999999996 L -5.506621859906553 -0.5999999999999996 L -5.4749174391323665 -0.5999999999999996 L -5.44647652972119 -0.5999999999999998 L -5.422725277629795 -0.5999999999999998 L -5.404854669814637 -0.5999999999999999 L -5.393760813172727 -0.5999999999999999 L -5.39 -0.6 " stroke="#191919" stroke-width="0.35 px" style="stroke-width:0.35;stroke-miterlimit:4;stroke-dasharray:none;fill:none;fill-opacity:1;fill-rule: evenodd"/>
<path id="Shape2DView_nwe0147"  d="M -9.845 -3.14 L -9.841239186827273 -3.14 L -9.830145330185363 -3.14 L -9.812274722370205 -3.14 L -9.788523470278811 -3.1399999999999997 L -9.760082560867634 -3.1399999999999997 L -9.728378140093447 -3.1399999999999997 L -9.695 -3.1399999999999997 L -9.661621859906553 -3.1399999999999997 L -9.629917439132367 -3.1399999999999997 L -9.60147652972119 -3.1399999999999997 L -9.577725277629796 -3.14 L -9.559854669814637 -3.14 L -9.548760813172727 -3.14 L -9.545 -3.14 " stroke="#191919" stroke-width="0.35 px" style="stroke-width:0.35;stroke-miterlimit:4;stroke-dasharray:none;fill:none;fill-opacity:1;fill-rule: evenodd"/>
<path id="Shape2DView_nwe0148"  d="M -7.075 -3.14 L -7.071239186827273 -3.14 L -7.060145330185363 -3.14 L -7.0422747223702045 -3.14 L -7.01852347027881 -3.1399999999999997 L -6.990082560867633 -3.1399999999999997 L -6.958378140093447 -3.1399999999999997 L -6.925 -3.1399999999999997 L -6.891621859906553 -3.1399999999999997 L -6.859917439132366 -3.1399999999999997 L -6.83147652972119 -3.1399999999999997 L -6.807725277629795 -3.14 L -6.789854669814637 -3.14 L -6.778760813172727 -3.14 L -6.7749999999999995 -3.14 " stroke="#191919" stroke-width="0.35 px" style="stroke-width:0.35;stroke-miterlimit:4;stroke-dasharray:none;fill:none;fill-opacity:1;fill-rule: evenodd"/>
<path id="Shape2DView_nwe0149"  d="M -8.46 -0.6 L -8.456239186827274 -0.5999999999999999 L -8.445145330185364 -0.5999999999999999 L -8.427274722370205 -0.5999999999999998 L -8.403523470278811 -0.5999999999999998 L -8.375082560867634 -0.5999999999999996 L -8.343378140093447 -0.5999999999999996 L -8.31 -0.5999999999999996 L -8.276621859906554 -0.5999999999999996 L -8.244917439132367 -0.5999999999999996 L -8.21647652972119 -0.5999999999999998 L -8.192725277629796 -0.5999999999999998 L -8.174854669814637 -0.5999999999999999 L -8.163760813172727 -0.5999999999999999 L -8.16 -0.6 " stroke="#191919" stroke-width="0.35 px" style="stroke-width:0.35;stroke-miterlimit:4;stroke-dasharray:none;fill:none;fill-opacity:1;fill-rule: evenodd"/>
<path id="Shape2DView_nwe0150"  d="M -0.15 -0.6 L -0.14623918682727355 -0.5999999999999999 L -0.13514533018536287 -0.5999999999999999 L -0.11727472237020448 -0.5999999999999998 L -0.09352347027881006 -0.5999999999999998 L -0.06508256086763375 -0.5999999999999996 L -0.033378140093447195 -0.5999999999999996 L -3.6739403974420595e-17 -0.5999999999999996 L 0.033378140093447126 -0.5999999999999996 L 0.06508256086763368 -0.5999999999999996 L 0.09352347027881 -0.5999999999999998 L 0.11727472237020443 -0.5999999999999998 L 0.13514533018536284 -0.5999999999999999 L 0.14623918682727352 -0.5999999999999999 L 0.15 -0.6 " stroke="#191919" stroke-width="0.35 px" style="stroke-width:0.35;stroke-miterlimit:4;stroke-dasharray:none;fill:none;fill-opacity:1;fill-rule: evenodd"/>
<path id="Shape2DView_nwe0151"  d="M -1.535 -3.14 L -1.5312391868272734 -3.14 L -1.520145330185363 -3.14 L -1.5022747223702044 -3.14 L -1.4785234702788101 -3.1399999999999997 L -1.4500825608676338 -3.1399999999999997 L -1.4183781400934472 -3.1399999999999997 L -1.385 -3.1399999999999997 L -1.3516218599065528 -3.1399999999999997 L -1.3199174391323663 -3.1399999999999997 L -1.29147652972119 -3.1399999999999997 L -1.2677252776297956 -3.14 L -1.249854669814637 -3.14 L -1.2387608131727266 -3.14 L -1.235 -3.14 " stroke="#191919" stroke-width="0.35 px" style="stroke-width:0.35;stroke-miterlimit:4;stroke-dasharray:none;fill:none;fill-opacity:1;fill-rule: evenodd"/>
<path id="Shape2DView_nwe0152"  d="M -14.0 -0.6 L -13.996239186827273 -0.5999999999999999 L -13.985145330185363 -0.5999999999999999 L -13.967274722370204 -0.5999999999999998 L -13.94352347027881 -0.5999999999999998 L -13.915082560867633 -0.5999999999999996 L -13.883378140093447 -0.5999999999999996 L -13.85 -0.5999999999999996 L -13.816621859906553 -0.5999999999999996 L -13.784917439132366 -0.5999999999999996 L -13.756476529721189 -0.5999999999999998 L -13.732725277629795 -0.5999999999999998 L -13.714854669814637 -0.5999999999999999 L -13.703760813172726 -0.5999999999999999 L -13.7 -0.6 " stroke="#191919" stroke-width="0.35 px" style="stroke-width:0.35;stroke-miterlimit:4;stroke-dasharray:none;fill:none;fill-opacity:1;fill-rule: evenodd"/>
<path id="Shape2DView_nwe0153"  d="M -12.615 -3.14 L -12.611239186827273 -3.14 L -12.600145330185363 -3.14 L -12.582274722370205 -3.14 L -12.55852347027881 -3.1399999999999997 L -12.530082560867633 -3.1399999999999997 L -12.498378140093447 -3.1399999999999997 L -12.465 -3.1399999999999997 L -12.431621859906553 -3.1399999999999997 L -12.399917439132366 -3.1399999999999997 L -12.371476529721189 -3.1399999999999997 L -12.347725277629795 -3.14 L -12.329854669814637 -3.14 L -12.318760813172727 -3.14 L -12.315 -3.14 " stroke="#191919" stroke-width="0.35 px" style="stroke-width:0.35;stroke-miterlimit:4;stroke-dasharray:none;fill:none;fill-opacity:1;fill-rule: evenodd"/>
<path id="Shape2DView_nwe0154"  d="M -11.23 -0.6 L -11.226239186827273 -0.5999999999999999 L -11.215145330185363 -0.5999999999999999 L -11.197274722370205 -0.5999999999999998 L -11.17352347027881 -0.5999999999999998 L -11.145082560867634 -0.5999999999999996 L -11.113378140093447 -0.5999999999999996 L -11.08 -0.5999999999999996 L -11.046621859906553 -0.5999999999999996 L -11.014917439132367 -0.5999999999999996 L -10.98647652972119 -0.5999999999999998 L -10.962725277629795 -0.5999999999999998 L -10.944854669814637 -0.5999999999999999 L -10.933760813172727 -0.5999999999999999 L -10.93 -0.6 " stroke="#191919" stroke-width="0.35 px" style="stroke-width:0.35;stroke-miterlimit:4;stroke-dasharray:none;fill:none;fill-opacity:1;fill-rule: evenodd"/>
<path id="Shape2DView_nwe0155"  d="M -18.154999999999998 -3.14 L -18.151239186827272 -3.14 L -18.140145330185362 -3.14 L -18.122274722370204 -3.14 L -18.09852347027881 -3.1399999999999997 L -18.070082560867633 -3.1399999999999997 L -18.038378140093446 -3.1399999999999997 L -18.005 -3.1399999999999997 L -17.971621859906552 -3.1399999999999997 L -17.939917439132365 -3.1399999999999997 L -17.911476529721188 -3.1399999999999997 L -17.887725277629794 -3.14 L -17.869854669814636 -3.14 L -17.858760813172726 -3.14 L -17.855 -3.14 " stroke="#191919" stroke-width="0.35 px" style="stroke-width:0.35;stroke-miterlimit:4;stroke-dasharray:none;fill:none;fill-opacity:1;fill-rule: evenodd"/>
<path id="Shape2DView_nwe0156"  d="M -16.77 -0.6 L -16.766239186827274 -0.5999999999999999 L -16.755145330185364 -0.5999999999999999 L -16.737274722370206 -0.5999999999999998 L -16.713523470278812 -0.5999999999999998 L -16.685082560867635 -0.5999999999999996 L -16.653378140093448 -0.5999999999999996 L -16.62 -0.5999999999999996 L -16.586621859906554 -0.5999999999999996 L -16.554917439132367 -0.5999999999999996 L -16.52647652972119 -0.5999999999999998 L -16.502725277629796 -0.5999999999999998 L -16.484854669814638 -0.5999999999999999 L -16.473760813172728 -0.5999999999999999 L -16.470000000000002 -0.6 " stroke="#191919" stroke-width="0.35 px" style="stroke-width:0.35;stroke-miterlimit:4;stroke-dasharray:none;fill:none;fill-opacity:1;fill-rule: evenodd"/>
<path id="Shape2DView_nwe0157"  d="M -15.385 -3.14 L -15.381239186827273 -3.14 L -15.370145330185363 -3.14 L -15.352274722370204 -3.14 L -15.32852347027881 -3.1399999999999997 L -15.300082560867633 -3.1399999999999997 L -15.268378140093446 -3.1399999999999997 L -15.235 -3.1399999999999997 L -15.201621859906552 -3.1399999999999997 L -15.169917439132366 -3.1399999999999997 L -15.141476529721189 -3.1399999999999997 L -15.117725277629795 -3.14 L -15.099854669814636 -3.14 L -15.088760813172726 -3.14 L -15.084999999999999 -3.14 " stroke="#191919" stroke-width="0.35 px" style="stroke-width:0.35;stroke-miterlimit:4;stroke-dasharray:none;fill:none;fill-opacity:1;fill-rule: evenodd"/>
<path id="Shape2DView_nwe0158"  d="M -19.54 -0.6 L -19.536239186827274 -0.5999999999999999 L -19.525145330185364 -0.5999999999999999 L -19.507274722370205 -0.5999999999999998 L -19.48352347027881 -0.5999999999999998 L -19.455082560867634 -0.5999999999999996 L -19.423378140093448 -0.5999999999999996 L -19.39 -0.5999999999999996 L -19.356621859906554 -0.5999999999999996 L -19.324917439132367 -0.5999999999999996 L -19.29647652972119 -0.5999999999999998 L -19.272725277629796 -0.5999999999999998 L -19.254854669814637 -0.5999999999999999 L -19.243760813172727 -0.5999999999999999 L -19.240000000000002 -0.6 " stroke="#191919" stroke-width="0.35 px" style="stroke-width:0.35;stroke-miterlimit:4;stroke-dasharray:none;fill:none;fill-opacity:1;fill-rule: evenodd"/>
<circle cx="-2.77" cy="1.315192911205e-32" r="0.15" stroke="#191919" stroke-width="0.35 px" style="stroke-width:0.35;stroke-miterlimit:4;stroke-dasharray:none;fill:none"/>
<circle cx="-4.155" cy="-2.54" r="0.15" stroke="#191919" stroke-width="0.35 px" style="stroke-width:0.35;stroke-miterlimit:4;stroke-dasharray:none;fill:none"/>
<circle cx="-5.54" cy="1.315192911205e-32" r="0.15" stroke="#191919" stroke-width="0.35 px" style="stroke-width:0.35;stroke-miterlimit:4;stroke-dasharray:none;fill:none"/>
<circle cx="-9.695" cy="-2.54" r="0.15" stroke="#191919" stroke-width="0.35 px" style="stroke-width:0.35;stroke-miterlimit:4;stroke-dasharray:none;fill:none"/>
<circle cx="-6.925" cy="-2.54" r="0.15" stroke="#191919" stroke-width="0.35 px" style="stroke-width:0.35;stroke-miterlimit:4;stroke-dasharray:none;fill:none"/>
<circle cx="-8.31" cy="1.315192911205e-32" r="0.15" stroke="#191919" stroke-width="0.35 px" style="stroke-width:0.35;stroke-miterlimit:4;stroke-dasharray:none;fill:none"/>
<circle cx="2.282583637792e-32" cy="1.315192911205e-32" r="0.15" stroke="#191919" stroke-width="0.35 px" style="stroke-width:0.35;stroke-miterlimit:4;stroke-dasharray:none;fill:none"/>
<circle cx="-1.385" cy="-2.54" r="0.15" stroke="#191919" stroke-width="0.35 px" style="stroke-width:0.35;stroke-miterlimit:4;stroke-dasharray:none;fill:none"/>
<circle cx="-13.85" cy="1.315192911205e-32" r="0.15" stroke="#191919" stroke-width="0.35 px" style="stroke-width:0.35;stroke-miterlimit:4;stroke-dasharray:none;fill:none"/>
<circle cx="-12.465" cy="-2.54" r="0.15" stroke="#191919" stroke-width="0.35 px" style="stroke-width:0.35;stroke-miterlimit:4;stroke-dasharray:none;fill:none"/>
<circle cx="-11.08" cy="1.315192911205e-32" r="0.15" stroke="#191919" stroke-width="0.35 px" style="stroke-width:0.35;stroke-miterlimit:4;stroke-dasharray:none;fill:none"/>
<circle cx="-18.005" cy="-2.54" r="0.15" stroke="#191919" stroke-width="0.35 px" style="stroke-width:0.35;stroke-miterlimit:4;stroke-dasharray:none;fill:none"/>
<circle cx="-16.62" cy="1.315192911205e-32" r="0.15" stroke="#191919" stroke-width="0.35 px" style="stroke-width:0.35;stroke-miterlimit:4;stroke-dasharray:none;fill:none"/>
<circle cx="-15.235" cy="-2.54" r="0.15" stroke="#191919" stroke-width="0.35 px" style="stroke-width:0.35;stroke-miterlimit:4;stroke-dasharray:none;fill:none"/>
<circle cx="-19.39" cy="1.315192911205e-32" r="0.15" stroke="#191919" stroke-width="0.35 px" style="stroke-width:0.35;stroke-miterlimit:4;stroke-dasharray:none;fill:none"/>
<path id="Shape2DView_nwe0174"  d="M -21.599082005300044 -18.340000000000046 L -21.6990820053 -18.24 " stroke="#191919" stroke-width="0.35 px" style="stroke-width:0.35;stroke-miterlimit:4;stroke-dasharray:none;fill:none;fill-opacity:1;fill-rule: evenodd"/>
<path id="Shape2DView_nwe0175"  d="M 2.209082005303045 -18.340000000000042 L 2.309082005303 -18.24 " stroke="#191919" stroke-width="0.35 px" style="stroke-width:0.35;stroke-miterlimit:4;stroke-dasharray:none;fill:none;fill-opacity:1;fill-rule: evenodd"/>
<path id="Shape2DView_nwe0176"  d="M -21.6990820053 -18.04 L -21.6990820053 -18.240000000000002 " stroke="#191919" stroke-width="0.35 px" style="stroke-width:0.35;stroke-miterlimit:4;stroke-dasharray:none;fill:none;fill-opacity:1;fill-rule: evenodd"/>
<path id="Shape2DView_nwe0177"  d="M 2.309082005303 -18.04 L 2.309082005303 -18.240000000000002 " stroke="#191919" stroke-width="0.35 px" style="stroke-width:0.35;stroke-miterlimit:4;stroke-dasharray:none;fill:none;fill-opacity:1;fill-rule: evenodd"/>
<path id="Shape2DView_nwe0178"  d="M -21.75443192049002 -18.04000000000002 L -21.80443192049 -17.99 " stroke="#191919" stroke-width="0.35 px" style="stroke-width:0.35;stroke-miterlimit:4;stroke-dasharray:none;fill:none;fill-opacity:1;fill-rule: evenodd"/>
<path id="Shape2DView_nwe0179"  d="M 2.3644319204990225 -18.04000000000002 L 2.4144319204989997 -17.99 " stroke="#191919" stroke-width="0.35 px" style="stroke-width:0.35;stroke-miterlimit:4;stroke-dasharray:none;fill:none;fill-opacity:1;fill-rule: evenodd"/>
<path id="Shape2DView_nwe0180"  d="M -21.80443192049 -12.84 L -21.80443192049 -17.990000000000002 " stroke="#191919" stroke-width="0.35 px" style="stroke-width:0.35;stroke-miterlimit:4;stroke-dasharray:none;fill:none;fill-opacity:1;fill-rule: evenodd"/>
<path id="Shape2DView_nwe0181"  d="M 2.414431920499 -12.84 L 2.414431920499 -17.990000000000002 " stroke="#191919" stroke-width="0.35 px" style="stroke-width:0.35;stroke-miterlimit:4;stroke-dasharray:none;fill:none;fill-opacity:1;fill-rule: evenodd"/>
<path id="Shape2DView_nwe0182"  d="M -21.80443192049 -12.84 Q -21.812179898848022 -12.77225961865261 -21.81992787720604 -12.704519237305224 Q -21.84928789483486 -12.627733516422095 -21.878647912463684 -12.550947795538972 Q -22.05676627920047 -12.252129505490128 -22.404431920490005 -12.24 " stroke="#191919" stroke-width="0.35 px" style="stroke-width:0.35;stroke-miterlimit:4;stroke-dasharray:none;fill:none;fill-opacity:1;fill-rule: evenodd"/>
<path id="Shape2DView_nwe0183"  d="M 2.414431920499 -12.84 Q 2.42217989885702 -12.77225961865261 2.4299278772150394 -12.704519237305224 Q 2.45928789484386 -12.627733516422095 2.488647912472681 -12.550947795538972 Q 2.666766279209469 -12.252129505490128 3.0144319204989998 -12.24 " stroke="#191919" stroke-width="0.35 px" style="stroke-width:0.35;stroke-miterlimit:4;stroke-dasharray:none;fill:none;fill-opacity:1;fill-rule: evenodd"/>
<path id="Shape2DView_nwe0184"  d="M -2.92 -7.74 L -2.92 -7.84 " stroke="#191919" stroke-width="0.35 px" style="stroke-width:0.35;stroke-miterlimit:4;stroke-dasharray:none;fill:none;fill-opacity:1;fill-rule: evenodd"/>
<path id="Shape2DView_nwe0185"  d="M -4.305000000000001 -7.74 L -4.305000000000001 -7.84 " stroke="#191919" stroke-width="0.35 px" style="stroke-width:0.35;stroke-miterlimit:4;stroke-dasharray:none;fill:none;fill-opacity:1;fill-rule: evenodd"/>
<path id="Shape2DView_nwe0186"  d="M -5.69 -7.74 L -5.69 -7.84 " stroke="#191919" stroke-width="0.35 px" style="stroke-width:0.35;stroke-miterlimit:4;stroke-dasharray:none;fill:none;fill-opacity:1;fill-rule: evenodd"/>
<path id="Shape2DView_nwe0187"  d="M -9.845 -7.74 L -9.845 -7.84 " stroke="#191919" stroke-width="0.35 px" style="stroke-width:0.35;stroke-miterlimit:4;stroke-dasharray:none;fill:none;fill-opacity:1;fill-rule: evenodd"/>
<path id="Shape2DView_nwe0188"  d="M -7.075 -7.74 L -7.075 -7.84 " stroke="#191919" stroke-width="0.35 px" style="stroke-width:0.35;stroke-miterlimit:4;stroke-dasharray:none;fill:none;fill-opacity:1;fill-rule: evenodd"/>
<path id="Shape2DView_nwe0189"  d="M -8.46 -7.74 L -8.46 -7.84 " stroke="#191919" stroke-width="0.35 px" style="stroke-width:0.35;stroke-miterlimit:4;stroke-dasharray:none;fill:none;fill-opacity:1;fill-rule: evenodd"/>
<path id="Shape2DView_nwe0190"  d="M -0.15 -7.74 L -0.15 -7.84 " stroke="#191919" stroke-width="0.35 px" style="stroke-width:0.35;stroke-miterlimit:4;stroke-dasharray:none;fill:none;fill-opacity:1;fill-rule: evenodd"/>
<path id="Shape2DView_nwe0191"  d="M -1.535 -7.74 L -1.535 -7.84 " stroke="#191919" stroke-width="0.35 px" style="stroke-width:0.35;stroke-miterlimit:4;stroke-dasharray:none;fill:none;fill-opacity:1;fill-rule: evenodd"/>
<path id="Shape2DView_nwe0192"  d="M -14.0 -7.74 L -14.0 -7.84 " stroke="#191919" stroke-width="0.35 px" style="stroke-width:0.35;stroke-miterlimit:4;stroke-dasharray:none;fill:none;fill-opacity:1;fill-rule: evenodd"/>
<path id="Shape2DView_nwe0193"  d="M -12.615 -7.74 L -12.615 -7.84 " stroke="#191919" stroke-width="0.35 px" style="stroke-width:0.35;stroke-miterlimit:4;stroke-dasharray:none;fill:none;fill-opacity:1;fill-rule: evenodd"/>
<path id="Shape2DView_nwe0194"  d="M -11.23 -7.74 L -11.23 -7.84 " stroke="#191919" stroke-width="0.35 px" style="stroke-width:0.35;stroke-miterlimit:4;stroke-dasharray:none;fill:none;fill-opacity:1;fill-rule: evenodd"/>
<path id="Shape2DView_nwe0195"  d="M -18.154999999999998 -7.74 L -18.154999999999998 -7.84 " stroke="#191919" stroke-width="0.35 px" style="stroke-width:0.35;stroke-miterlimit:4;stroke-dasharray:none;fill:none;fill-opacity:1;fill-rule: evenodd"/>
<path id="Shape2DView_nwe0196"  d="M -16.77 -7.74 L -16.77 -7.84 " stroke="#191919" stroke-width="0.35 px" style="stroke-width:0.35;stroke-miterlimit:4;stroke-dasharray:none;fill:none;fill-opacity:1;fill-rule: evenodd"/>
<path id="Shape2DView_nwe0197"  d="M -15.385 -7.74 L -15.385 -7.84 " stroke="#191919" stroke-width="0.35 px" style="stroke-width:0.35;stroke-miterlimit:4;stroke-dasharray:none;fill:none;fill-opacity:1;fill-rule: evenodd"/>
<path id="Shape2DView_nwe0198"  d="M -19.54 -7.74 L -19.54 -7.84 " stroke="#191919" stroke-width="0.35 px" style="stroke-width:0.35;stroke-miterlimit:4;stroke-dasharray:none;fill:none;fill-opacity:1;fill-rule: evenodd"/>
<path id="Shape2DView_nwe0199"  d="M -2.92 -0.6 L -2.92 -7.54 " stroke="#191919" stroke-width="0.35 px" style="stroke-width:0.35;stroke-miterlimit:4;stroke-dasharray:none;fill:none;fill-opacity:1;fill-rule: evenodd"/>
<path id="Shape2DView_nwe0200"  d="M -4.305000000000001 -3.14 L -4.305000000000001 -7.540000000000001 " stroke="#191919" stroke-width="0.35 px" style="stroke-width:0.35;stroke-miterlimit:4;stroke-dasharray:none;fill:none;fill-opacity:1;fill-rule: evenodd"/>
<path id="Shape2DView_nwe0201"  d="M -5.69 -0.6 L -5.69 -7.54 " stroke="#191919" stroke-width="0.35 px" style="stroke-width:0.35;stroke-miterlimit:4;stroke-dasharray:none;fill:none;fill-opacity:1;fill-rule: evenodd"/>
<path id="Shape2DView_nwe0202"  d="M -9.845 -3.14 L -9.845 -7.540000000000001 " stroke="#191919" stroke-width="0.35 px" style="stroke-width:0.35;stroke-miterlimit:4;stroke-dasharray:none;fill:none;fill-opacity:1;fill-rule: evenodd"/>
<path id="Shape2DView_nwe0203"  d="M -7.075 -3.14 L -7.075 -7.540000000000001 " stroke="#191919" stroke-width="0.35 px" style="stroke-width:0.35;stroke-miterlimit:4;stroke-dasharray:none;fill:none;fill-opacity:1;fill-rule: evenodd"/>
<path id="Shape2DView_nwe0204"  d="M -8.46 -0.6 L -8.46 -7.54 " stroke="#191919" stroke-width="0.35 px" style="stroke-width:0.35;stroke-miterlimit:4;stroke-dasharray:none;fill:none;fill-opacity:1;fill-rule: evenodd"/>
<path id="Shape2DView_nwe0205"  d="M -0.15 -0.6 L -0.15 -7.54 " stroke="#191919" stroke-width="0.35 px" style="stroke-width:0.35;stroke-miterlimit:4;stroke-dasharray:none;fill:none;fill-opacity:1;fill-rule: evenodd"/>
<path id="Shape2DView_nwe0206"  d="M -1.535 -3.14 L -1.535 -7.540000000000001 " stroke="#191919" stroke-width="0.35 px" style="stroke-width:0.35;stroke-miterlimit:4;stroke-dasharray:none;fill:none;fill-opacity:1;fill-rule: evenodd"/>
<path id="Shape2DView_nwe0207"  d="M -14.0 -0.6 L -14.0 -7.54 " stroke="#191919" stroke-width="0.35 px" style="stroke-width:0.35;stroke-miterlimit:4;stroke-dasharray:none;fill:none;fill-opacity:1;fill-rule: evenodd"/>
<path id="Shape2DView_nwe0208"  d="M -12.615 -3.14 L -12.615 -7.540000000000001 " stroke="#191919" stroke-width="0.35 px" style="stroke-width:0.35;stroke-miterlimit:4;stroke-dasharray:none;fill:none;fill-opacity:1;fill-rule: evenodd"/>
<path id="Shape2DView_nwe0209"  d="M -11.23 -0.6 L -11.23 -7.54 " stroke="#191919" stroke-width="0.35 px" style="stroke-width:0.35;stroke-miterlimit:4;stroke-dasharray:none;fill:none;fill-opacity:1;fill-rule: evenodd"/>
<path id="Shape2DView_nwe0210"  d="M -18.154999999999998 -3.14 L -18.154999999999998 -7.540000000000001 " stroke="#191919" stroke-width="0.35 px" style="stroke-width:0.35;stroke-miterlimit:4;stroke-dasharray:none;fill:none;fill-opacity:1;fill-rule: evenodd"/>
<path id="Shape2DView_nwe0211"  d="M -16.77 -0.6 L -16.77 -7.54 " stroke="#191919" stroke-width="0.35 px" style="stroke-width:0.35;stroke-miterlimit:4;stroke-dasharray:none;fill:none;fill-opacity:1;fill-rule: evenodd"/>
<path id="Shape2DView_nwe0212"  d="M -15.385 -3.14 L -15.385 -7.540000000000001 " stroke="#191919" stroke-width="0.35 px" style="stroke-width:0.35;stroke-miterlimit:4;stroke-dasharray:none;fill:none;fill-opacity:1;fill-rule: evenodd"/>
<path id="Shape2DView_nwe0213"  d="M -19.54 -0.6 L -19.54 -7.54 " stroke="#191919" stroke-width="0.35 px" style="stroke-width:0.35;stroke-miterlimit:4;stroke-dasharray:none;fill:none;fill-opacity:1;fill-rule: evenodd"/>
<path id="Shape2DView_nwe0214"  d="M -2.92 -0.6 Q -2.92 -0.5322596183169359 -2.92 -0.46451923663387196 Q -2.92 -0.3836220177872146 -2.92 -0.302724798940557 Q -2.92 -0.011449216631273684 -2.92 0.0 " stroke="#191919" stroke-width="0.35 px" style="stroke-width:0.35;stroke-miterlimit:4;stroke-dasharray:none;fill:none;fill-opacity:1;fill-rule: evenodd"/>
<path id="Shape2DView_nwe0215"  d="M -4.305000000000001 -3.14 Q -4.3050000000000015 -3.072259618117546 -4.305000000000001 -3.004519236235093 Q -4.3050000000000015 -2.921579958174535 -4.305000000000001 -2.8386406801139783 Q -4.3050000000000015 -2.5511197222086457 -4.305000000000001 -2.54 " stroke="#191919" stroke-width="0.35 px" style="stroke-width:0.35;stroke-miterlimit:4;stroke-dasharray:none;fill:none;fill-opacity:1;fill-rule: evenodd"/>
<path id="Shape2DView_nwe0216"  d="M -5.69 -0.6 Q -5.6899999999999995 -0.5322596183169359 -5.69 -0.46451923663387196 Q -5.69 -0.3836220177872146 -5.69 -0.302724798940557 Q -5.6899999999999995 -0.011449216631273684 -5.69 0.0 " stroke="#191919" stroke-width="0.35 px" style="stroke-width:0.35;stroke-miterlimit:4;stroke-dasharray:none;fill:none;fill-opacity:1;fill-rule: evenodd"/>
<path id="Shape2DView_nwe0217"  d="M -9.845 -3.14 Q -9.845000000000002 -3.072259618117546 -9.845 -3.004519236235093 Q -9.845000000000002 -2.921579958174535 -9.845 -2.8386406801139783 Q -9.845000000000002 -2.5511197222086457 -9.845 -2.54 " stroke="#191919" stroke-width="0.35 px" style="stroke-width:0.35;stroke-miterlimit:4;stroke-dasharray:none;fill:none;fill-opacity:1;fill-rule: evenodd"/>
<path id="Shape2DView_nwe0218"  d="M -7.075 -3.14 Q -7.075 -3.072259618117546 -7.075000000000001 -3.004519236235093 Q -7.075000000000001 -2.921579958174535 -7.075 -2.8386406801139783 Q -7.075000000000001 -2.5511197222086457 -7.075 -2.54 " stroke="#191919" stroke-width="0.35 px" style="stroke-width:0.35;stroke-miterlimit:4;stroke-dasharray:none;fill:none;fill-opacity:1;fill-rule: evenodd"/>
<path id="Shape2DView_nwe0219"  d="M -8.46 -0.6 Q -8.46 -0.5322596183169359 -8.46 -0.46451923663387196 Q -8.46 -0.3836220177872146 -8.46 -0.302724798940557 Q -8.46 -0.011449216631273684 -8.46 0.0 " stroke="#191919" stroke-width="0.35 px" style="stroke-width:0.35;stroke-miterlimit:4;stroke-dasharray:none;fill:none;fill-opacity:1;fill-rule: evenodd"/>
<path id="Shape2DView_nwe0220"  d="M -0.15 -0.6 Q -0.14999999999999997 -0.5322596183169359 -0.15 -0.46451923663387196 Q -0.15000000000000002 -0.3836220177872146 -0.15 -0.302724798940557 Q -0.14999999999999997 -0.011449216631273684 -0.15 0.0 " stroke="#191919" stroke-width="0.35 px" style="stroke-width:0.35;stroke-miterlimit:4;stroke-dasharray:none;fill:none;fill-opacity:1;fill-rule: evenodd"/>
<path id="Shape2DView_nwe0221"  d="M -1.535 -3.14 Q -1.5349999999999997 -3.072259618117546 -1.535 -3.004519236235093 Q -1.5349999999999997 -2.921579958174535 -1.535 -2.8386406801139783 Q -1.5349999999999997 -2.5511197222086457 -1.535 -2.54 " stroke="#191919" stroke-width="0.35 px" style="stroke-width:0.35;stroke-miterlimit:4;stroke-dasharray:none;fill:none;fill-opacity:1;fill-rule: evenodd"/>
<path id="Shape2DView_nwe0222"  d="M -14.0 -0.6 Q -14.0 -0.5322596183169359 -14.0 -0.46451923663387196 Q -14.0 -0.3836220177872146 -14.0 -0.302724798940557 Q -13.999999999999996 -0.011449216631273684 -14.0 0.0 " stroke="#191919" stroke-width="0.35 px" style="stroke-width:0.35;stroke-miterlimit:4;stroke-dasharray:none;fill:none;fill-opacity:1;fill-rule: evenodd"/>
<path id="Shape2DView_nwe0223"  d="M -12.615 -3.14 Q -12.614999999999998 -3.072259618117546 -12.615 -3.004519236235093 Q -12.614999999999998 -2.921579958174535 -12.615 -2.8386406801139783 Q -12.614999999999998 -2.5511197222086457 -12.615 -2.54 " stroke="#191919" stroke-width="0.35 px" style="stroke-width:0.35;stroke-miterlimit:4;stroke-dasharray:none;fill:none;fill-opacity:1;fill-rule: evenodd"/>
<path id="Shape2DView_nwe0224"  d="M -11.23 -0.6 Q -11.229999999999999 -0.5322596183169359 -11.23 -0.46451923663387196 Q -11.23 -0.3836220177872146 -11.23 -0.302724798940557 Q -11.229999999999999 -0.011449216631273684 -11.23 0.0 " stroke="#191919" stroke-width="0.35 px" style="stroke-width:0.35;stroke-miterlimit:4;stroke-dasharray:none;fill:none;fill-opacity:1;fill-rule: evenodd"/>
<path id="Shape2DView_nwe0225"  d="M -18.154999999999998 -3.14 Q -18.154999999999994 -3.072259618117546 -18.154999999999998 -3.004519236235093 Q -18.154999999999994 -2.921579958174535 -18.154999999999998 -2.8386406801139783 Q -18.154999999999994 -2.5511197222086457 -18.154999999999998 -2.54 " stroke="#191919" stroke-width="0.35 px" style="stroke-width:0.35;stroke-miterlimit:4;stroke-dasharray:none;fill:none;fill-opacity:1;fill-rule: evenodd"/>
<path id="Shape2DView_nwe0226"  d="M -16.77 -0.6 Q -16.770000000000003 -0.5322596183169359 -16.77 -0.46451923663387196 Q -16.769999999999996 -0.3836220177872146 -16.77 -0.302724798940557 Q -16.77 -0.011449216631273684 -16.77 0.0 " stroke="#191919" stroke-width="0.35 px" style="stroke-width:0.35;stroke-miterlimit:4;stroke-dasharray:none;fill:none;fill-opacity:1;fill-rule: evenodd"/>
<path id="Shape2DView_nwe0227"  d="M -15.385 -3.14 Q -15.385000000000002 -3.072259618117546 -15.385 -3.004519236235093 Q -15.385000000000002 -2.921579958174535 -15.385 -2.8386406801139783 Q -15.385000000000002 -2.5511197222086457 -15.385 -2.54 " stroke="#191919" stroke-width="0.35 px" style="stroke-width:0.35;stroke-miterlimit:4;stroke-dasharray:none;fill:none;fill-opacity:1;fill-rule: evenodd"/>
<path id="Shape2DView_nwe0228"  d="M -19.54 -0.6 Q -19.54 -0.5322596183169359 -19.54 -0.46451923663387196 Q -19.54 -0.3836220177872146 -19.54 -0.302724798940557 Q -19.539999999999996 -0.011449216631273684 -19.54 0.0 " stroke="#191919" stroke-width="0.35 px" style="stroke-width:0.35;stroke-miterlimit:4;stroke-dasharray:none;fill:none;fill-opacity:1;fill-rule: evenodd"/>
<title>b'Shape2DView'</title>
</g>
<g id="Rectangle" transform="translate(29.687000,1.392000) scale(1,-1)">
<rect fill="#ff0000" id="origin" width="1" height="1" x="0" y="0" />
<title>b'Rectangle'</title>
</g>
</svg>