<?xml version="1.0"?>
<!DOCTYPE svg PUBLIC "-//W3C//DTD SVG 1.1//EN" "http://www.w3.org/Graphics/SVG/1.1/DTD/svg11.dtd">
<svg width="39.983999999999995mm" height="20.774000000000022mm" viewBox="0 0 39.983999999999995 20.774000000000022" xmlns="http://www.w3.org/2000/svg" version="1.1">
<g id="Shape2DView" transform="translate(11.404500,1.972000) scale(1,-1)">
<path id="Shape2DView_nwe0000"  d="M -2.890077687448 -18.41 L -2.9964439397461424 -18.41 L -3.1014725747064986 -18.41 L -3.203842796305409 -18.41 L -3.30226723960968 -18.41 L -3.39550816013757 -18.41 L -3.482392999213797 -18.41 L -3.5618291295752202 -18.41 L -3.6328175957926283 -18.41 L -3.69446567671487 -18.41 L -3.7459981119552985 -18.41 L -3.7867668512409494 -18.41 L -3.8162592040207324 -18.41 L -3.8341042868465807 -18.41 L -3.840077687448 -18.41 " stroke="#191919" stroke-width="0.35 px" style="stroke-width:0.35;stroke-miterlimit:4;stroke-dasharray:none;fill:none;fill-opacity:1;fill-rule: evenodd"/>
<path id="Shape2DView_nwe0001"  d="M 20.065077687448 -18.41 L -2.8900776874479988 -18.41 " stroke="#191919" stroke-width="0.35 px" style="stroke-width:0.35;stroke-miterlimit:4;stroke-dasharray:none;fill:none;fill-opacity:1;fill-rule: evenodd"/>
<path id="Shape2DView_nwe0002"  d="M 21.015077687448 -18.41 L 21.00910428684658 -18.41 L 20.991259204020732 -18.41 L 20.96176685124095 -18.41 L 20.9209981119553 -18.41 L 20.86946567671487 -18.41 L 20.807817595792628 -18.41 L 20.73682912957522 -18.41 L 20.657392999213798 -18.41 L 20.57050816013757 -18.41 L 20.47726723960968 -18.41 L 20.37884279630541 -18.41 L 20.2764725747065 -18.41 L 20.17144393974614 -18.41 L 20.065077687448 -18.41 " stroke="#191919" stroke-width="0.35 px" style="stroke-width:0.35;stroke-miterlimit:4;stroke-dasharray:none;fill:none;fill-opacity:1;fill-rule: evenodd"/>
<path id="Shape2DView_nwe0003"  d="M -2.890077687448 -18.36 L -3.002042163551308 -18.36 L -3.1125986214043144 -18.36 L -3.2203567494031673 -18.36 L -3.323961426565558 -18.36 L -3.422109763963337 -18.36 L -3.513567489306734 -18.36 L -3.5971844686345475 -18.36 L -3.67190916991603 -18.36 L -3.736801886676284 -18.36 L -3.7910465553504196 -18.36 L -3.8339610177563674 -18.36 L -3.8650055996298236 -18.36 L -3.883789897341243 -18.36 L -3.890077687448 -18.36 " stroke="#191919" stroke-width="0.35 px" style="stroke-width:0.35;stroke-miterlimit:4;stroke-dasharray:none;fill:none;fill-opacity:1;fill-rule: evenodd"/>
<path id="Shape2DView_nwe0004"  d="M 20.065077687448 -18.36 L -2.8900776874479988 -18.36 " stroke="#191919" stroke-width="0.35 px" style="stroke-width:0.35;stroke-miterlimit:4;stroke-dasharray:none;fill:none;fill-opacity:1;fill-rule: evenodd"/>
<path id="Shape2DView_nwe0005"  d="M 21.065077687448 -18.36 L 21.058789897341242 -18.36 L 21.040005599629822 -18.36 L 21.008961017756366 -18.36 L 20.96604655535042 -18.36 L 20.911801886676283 -18.36 L 20.846909169916028 -18.36 L 20.772184468634546 -18.36 L 20.688567489306735 -18.36 L 20.597109763963335 -18.36 L 20.498961426565558 -18.36 L 20.395356749403167 -18.36 L 20.287598621404314 -18.36 L 20.177042163551306 -18.36 L 20.065077687448 -18.36 " stroke="#191919" stroke-width="0.35 px" style="stroke-width:0.35;stroke-miterlimit:4;stroke-dasharray:none;fill:none;fill-opacity:1;fill-rule: evenodd"/>
<path id="Shape2DView_nwe0006"  d="M -10.0125 -12.61 L -10.113268028492977 -12.61 L -10.212768840560683 -12.61 L -10.309751155759649 -12.61 L -10.402995365205802 -12.61 L -10.491328868863802 -12.61 L -10.573640821672859 -12.61 L -10.648896103067893 -12.61 L -10.716148334221225 -12.61 L -10.774551779305455 -12.61 L -10.823371981112176 -12.61 L -10.861994997277531 -12.61 L -10.88993512096364 -12.61 L -10.906840988903918 -12.61 L -10.9125 -12.61 " stroke="#191919" stroke-width="0.35 px" style="stroke-width:0.35;stroke-miterlimit:4;stroke-dasharray:none;fill:none;fill-opacity:1;fill-rule: evenodd"/>
<path id="Shape2DView_nwe0007"  d="M 27.1875 -12.61 L 27.288268028492976 -12.61 L 27.387768840560682 -12.61 L 27.48475115575965 -12.61 L 27.5779953652058 -12.61 L 27.666328868863804 -12.61 L 27.74864082167286 -12.61 L 27.82389610306789 -12.61 L 27.891148334221228 -12.61 L 27.949551779305455 -12.61 L 27.99837198111218 -12.61 L 28.03699499727753 -12.61 L 28.064935120963643 -12.61 L 28.081840988903917 -12.61 L 28.0875 -12.61 " stroke="#191919" stroke-width="0.35 px" style="stroke-width:0.35;stroke-miterlimit:4;stroke-dasharray:none;fill:none;fill-opacity:1;fill-rule: evenodd"/>
<path id="Shape2DView_nwe0008"  d="M 28.0875 -12.61 L 28.081840988903917 -12.61 L 28.064935120963643 -12.61 L 28.03699499727753 -12.61 L 27.99837198111218 -12.61 L 27.949551779305455 -12.61 L 27.891148334221228 -12.61 L 27.82389610306789 -12.61 L 27.74864082167286 -12.61 L 27.666328868863804 -12.61 L 27.5779953652058 -12.61 L 27.48475115575965 -12.61 L 27.387768840560682 -12.61 L 27.288268028492976 -12.61 L 27.1875 -12.61 " stroke="#191919" stroke-width="0.35 px" style="stroke-width:0.35;stroke-miterlimit:4;stroke-dasharray:none;fill:none;fill-opacity:1;fill-rule: evenodd"/>
<path id="Shape2DView_nwe0009"  d="M 27.1875 -12.61 L -10.012500000000003 -12.61 " stroke="#191919" stroke-width="0.35 px" style="stroke-width:0.35;stroke-miterlimit:4;stroke-dasharray:none;fill:none;fill-opacity:1;fill-rule: evenodd"/>
<path id="Shape2DView_nwe0010"  d="M -11.0125 -12.51 A 0.1 0.1 0 0 1 -10.9125 -12.61" stroke="#191919" stroke-width="0.35 px" style="stroke-width:0.35;stroke-miterlimit:4;stroke-dasharray:none;fill:none;fill-opacity:1;fill-rule: evenodd"/>
<path id="Shape2DView_nwe0011"  d="M 28.1875 -12.51 A 0.1 0.1 0 0 0 28.0875 -12.61" stroke="#191919" stroke-width="0.35 px" style="stroke-width:0.35;stroke-miterlimit:4;stroke-dasharray:none;fill:none;fill-opacity:1;fill-rule: evenodd"/>
<path id="Shape2DView_nwe0012"  d="M -11.0125 -12.31 L -11.0125 -12.51 " stroke="#191919" stroke-width="0.35 px" style="stroke-width:0.35;stroke-miterlimit:4;stroke-dasharray:none;fill:none;fill-opacity:1;fill-rule: evenodd"/>
<path id="Shape2DView_nwe0013"  d="M 28.1875 -12.31 L 28.1875 -12.51 " stroke="#191919" stroke-width="0.35 px" style="stroke-width:0.35;stroke-miterlimit:4;stroke-dasharray:none;fill:none;fill-opacity:1;fill-rule: evenodd"/>
<path id="Shape2DView_nwe0014"  d="M -11.0125 -10.31 L -11.006212209893242 -10.31 L -10.987427912181824 -10.31 L -10.956383330308366 -10.31 L -10.913468867902418 -10.31 L -10.859224199228283 -10.31 L -10.79433148246803 -10.31 L -10.719606781186547 -10.31 L -10.635989801858733 -10.31 L -10.544532076515337 -10.31 L -10.446383739117557 -10.31 L -10.342779061955166 -10.31 L -10.235020933956314 -10.31 L -10.124464476103308 -10.31 L -10.0125 -10.31 " stroke="#191919" stroke-width="0.35 px" style="stroke-width:0.35;stroke-miterlimit:4;stroke-dasharray:none;fill:none;fill-opacity:1;fill-rule: evenodd"/>
<path id="Shape2DView_nwe0015"  d="M -11.0125 -12.31 L -11.0125 -10.31 " stroke="#191919" stroke-width="0.35 px" style="stroke-width:0.35;stroke-miterlimit:4;stroke-dasharray:none;fill:none;fill-opacity:1;fill-rule: evenodd"/>
<path id="Shape2DView_nwe0016"  d="M 22.6875 -10.31 L 27.1875 -10.31 " stroke="#191919" stroke-width="0.35 px" style="stroke-width:0.35;stroke-miterlimit:4;stroke-dasharray:none;fill:none;fill-opacity:1;fill-rule: evenodd"/>
<path id="Shape2DView_nwe0017"  d="M 22.6875 1.58 L 22.6875 -10.31 " stroke="#191919" stroke-width="0.35 px" style="stroke-width:0.35;stroke-miterlimit:4;stroke-dasharray:none;fill:none;fill-opacity:1;fill-rule: evenodd"/>
<path id="Shape2DView_nwe0018"  d="M 22.6875 1.58 L -5.512500000000003 1.58 " stroke="#191919" stroke-width="0.35 px" style="stroke-width:0.35;stroke-miterlimit:4;stroke-dasharray:none;fill:none;fill-opacity:1;fill-rule: evenodd"/>
<path id="Shape2DView_nwe0019"  d="M -5.5125 -10.31 L -5.5125 1.58 " stroke="#191919" stroke-width="0.35 px" style="stroke-width:0.35;stroke-miterlimit:4;stroke-dasharray:none;fill:none;fill-opacity:1;fill-rule: evenodd"/>
<path id="Shape2DView_nwe0020"  d="M -10.012500000000001 -10.31 L -5.512500000000001 -10.31 " stroke="#191919" stroke-width="0.35 px" style="stroke-width:0.35;stroke-miterlimit:4;stroke-dasharray:none;fill:none;fill-opacity:1;fill-rule: evenodd"/>
<path id="Shape2DView_nwe0021"  d="M -11.0125 1.58 L -11.0125 -10.31 " stroke="#191919" stroke-width="0.35 px" style="stroke-width:0.35;stroke-miterlimit:4;stroke-dasharray:none;fill:none;fill-opacity:1;fill-rule: evenodd"/>
<path id="Shape2DView_nwe0022"  d="M 28.1875 -12.31 L 28.1875 -10.31 " stroke="#191919" stroke-width="0.35 px" style="stroke-width:0.35;stroke-miterlimit:4;stroke-dasharray:none;fill:none;fill-opacity:1;fill-rule: evenodd"/>
<path id="Shape2DView_nwe0023"  d="M 27.1875 -10.31 L 27.299464476103307 -10.31 L 27.410020933956314 -10.31 L 27.517779061955167 -10.31 L 27.621383739117558 -10.31 L 27.719532076515335 -10.31 L 27.810989801858735 -10.31 L 27.894606781186546 -10.31 L 27.96933148246803 -10.31 L 28.034224199228284 -10.31 L 28.08846886790242 -10.31 L 28.131383330308367 -10.31 L 28.162427912181823 -10.31 L 28.181212209893243 -10.31 L 28.1875 -10.31 " stroke="#191919" stroke-width="0.35 px" style="stroke-width:0.35;stroke-miterlimit:4;stroke-dasharray:none;fill:none;fill-opacity:1;fill-rule: evenodd"/>
<path id="Shape2DView_nwe0024"  d="M 28.1875 -10.31 L 28.1875 1.58 " stroke="#191919" stroke-width="0.35 px" style="stroke-width:0.35;stroke-miterlimit:4;stroke-dasharray:none;fill:none;fill-opacity:1;fill-rule: evenodd"/>
<path id="Shape2DView_nwe0025"  d="M 27.2375 -10.11 L 27.18735582436365 -10.11 L 27.03943773580484 -10.11 L 26.80116296493606 -10.11 L 26.484479603717467 -10.11 L 26.105267478235117 -10.11 L 25.68254186791263 -10.11 L 25.2375 -10.11 L 24.792458132087372 -10.11 L 24.369732521764885 -10.11 L 23.990520396282534 -10.11 L 23.67383703506394 -10.11 L 23.435562264195163 -10.11 L 23.287644175636352 -10.11 L 23.2375 -10.11 " stroke="#191919" stroke-width="0.35 px" style="stroke-width:0.35;stroke-miterlimit:4;stroke-dasharray:none;fill:none;fill-opacity:1;fill-rule: evenodd"/>
<path id="Shape2DView_nwe0026"  d="M -6.0625 -10.11 L -6.112644175636353 -10.11 L -6.260562264195162 -10.11 L -6.49883703506394 -10.11 L -6.815520396282533 -10.11 L -7.194732521764884 -10.11 L -7.617458132087371 -10.11 L -8.0625 -10.11 L -8.507541867912629 -10.11 L -8.930267478235116 -10.11 L -9.309479603717467 -10.11 L -9.626162964936059 -10.11 L -9.864437735804838 -10.11 L -10.012355824363647 -10.11 L -10.0625 -10.11 " stroke="#191919" stroke-width="0.35 px" style="stroke-width:0.35;stroke-miterlimit:4;stroke-dasharray:none;fill:none;fill-opacity:1;fill-rule: evenodd"/>
<path id="Shape2DView_nwe0027"  d="M -11.0125 1.58 L -5.5125 1.58 " stroke="#191919" stroke-width="0.35 px" style="stroke-width:0.35;stroke-miterlimit:4;stroke-dasharray:none;fill:none;fill-opacity:1;fill-rule: evenodd"/>
<path id="Shape2DView_nwe0028"  d="M 22.6875 1.58 L 28.1875 1.58 " stroke="#191919" stroke-width="0.35 px" style="stroke-width:0.35;stroke-miterlimit:4;stroke-dasharray:none;fill:none;fill-opacity:1;fill-rule: evenodd"/>
<path id="Shape2DView_nwe0029"  d="M -6.4625 -1.9800000000000004 L -6.4625 -3.58 " stroke="#191919" stroke-width="0.35 px" style="stroke-width:0.35;stroke-miterlimit:4;stroke-dasharray:none;fill:none;fill-opacity:1;fill-rule: evenodd"/>
<path id="Shape2DView_nwe0030"  d="M -9.6625 -1.9800000000000002 A 1.6 1.6 0 0 0 -6.4625 -1.98" stroke="#191919" stroke-width="0.35 px" style="stroke-width:0.35;stroke-miterlimit:4;stroke-dasharray:none;fill:none;fill-opacity:1;fill-rule: evenodd"/>
<path id="Shape2DView_nwe0031"  d="M -9.6625 -3.58 L -9.6625 -1.9800000000000004 " stroke="#191919" stroke-width="0.35 px" style="stroke-width:0.35;stroke-miterlimit:4;stroke-dasharray:none;fill:none;fill-opacity:1;fill-rule: evenodd"/>
<path id="Shape2DView_nwe0032"  d="M -9.062499999999844 -4.828999599679805 A 1.6 1.6 0 0 0 -9.6625 -3.58" stroke="#191919" stroke-width="0.35 px" style="stroke-width:0.35;stroke-miterlimit:4;stroke-dasharray:none;fill:none;fill-opacity:1;fill-rule: evenodd"/>
<path id="Shape2DView_nwe0033"  d="M -6.4625 -3.58 A 1.6 1.6 0 0 0 -7.0625 -4.829" stroke="#191919" stroke-width="0.35 px" style="stroke-width:0.35;stroke-miterlimit:4;stroke-dasharray:none;fill:none;fill-opacity:1;fill-rule: evenodd"/>
<path id="Shape2DView_nwe0034"  d="M 23.6375 -1.9800000000000002 A 1.6 1.6 0 0 0 26.8375 -1.98" stroke="#191919" stroke-width="0.35 px" style="stroke-width:0.35;stroke-miterlimit:4;stroke-dasharray:none;fill:none;fill-opacity:1;fill-rule: evenodd"/>
<path id="Shape2DView_nwe0035"  d="M 23.6375 -3.58 L 23.6375 -1.9800000000000004 " stroke="#191919" stroke-width="0.35 px" style="stroke-width:0.35;stroke-miterlimit:4;stroke-dasharray:none;fill:none;fill-opacity:1;fill-rule: evenodd"/>
<path id="Shape2DView_nwe0036"  d="M 24.2375 -3.58 L 23.6375 -3.58 " stroke="#191919" stroke-width="0.35 px" style="stroke-width:0.35;stroke-miterlimit:4;stroke-dasharray:none;fill:none;fill-opacity:1;fill-rule: evenodd"/>
<path id="Shape2DView_nwe0037"  d="M 26.8375 -3.58 L 26.2375 -3.58 " stroke="#191919" stroke-width="0.35 px" style="stroke-width:0.35;stroke-miterlimit:4;stroke-dasharray:none;fill:none;fill-opacity:1;fill-rule: evenodd"/>
<path id="Shape2DView_nwe0038"  d="M 26.8375 -1.9800000000000004 L 26.8375 -3.58 " stroke="#191919" stroke-width="0.35 px" style="stroke-width:0.35;stroke-miterlimit:4;stroke-dasharray:none;fill:none;fill-opacity:1;fill-rule: evenodd"/>
<path id="Shape2DView_nwe0039"  d="M 27.2375 -10.31 L 27.2375 -10.11 " stroke="#191919" stroke-width="0.35 px" style="stroke-width:0.35;stroke-miterlimit:4;stroke-dasharray:none;fill:none;fill-opacity:1;fill-rule: evenodd"/>
<path id="Shape2DView_nwe0040"  d="M 26.2375 -1.88 L 26.2375 -1.8806287790106757 L 26.2375 -1.8825072087818175 L 26.2375 -1.8856116669691632 L 26.2375 -1.8899031132097581 L 26.2375 -1.8953275800771716 L 26.2375 -1.901816851753197 L 26.2375 -1.9092893218813451 L 26.2375 -1.9176510198141266 L 26.2375 -1.9267967923484663 L 26.2375 -1.9366116260882442 L 26.2375 -1.9469720938044832 L 26.2375 -1.9577479066043686 L 26.2375 -1.9688035523896692 L 26.2375 -1.98 " stroke="#191919" stroke-width="0.35 px" style="stroke-width:0.35;stroke-miterlimit:4;stroke-dasharray:none;fill:none;fill-opacity:1;fill-rule: evenodd"/>
<path id="Shape2DView_nwe0041"  d="M 26.2375 -1.98 L 26.2375 -10.009999999999998 " stroke="#191919" stroke-width="0.35 px" style="stroke-width:0.35;stroke-miterlimit:4;stroke-dasharray:none;fill:none;fill-opacity:1;fill-rule: evenodd"/>
<path id="Shape2DView_nwe0042"  d="M 26.2375 -10.11 L 26.2375 -10.01 " stroke="#191919" stroke-width="0.35 px" style="stroke-width:0.35;stroke-miterlimit:4;stroke-dasharray:none;fill:none;fill-opacity:1;fill-rule: evenodd"/>
<path id="Shape2DView_nwe0043"  d="M 24.2375 -10.01 L 24.2375 -10.11 " stroke="#191919" stroke-width="0.35 px" style="stroke-width:0.35;stroke-miterlimit:4;stroke-dasharray:none;fill:none;fill-opacity:1;fill-rule: evenodd"/>
<path id="Shape2DView_nwe0044"  d="M 26.2375 -10.01 L 24.2375 -10.01 " stroke="#191919" stroke-width="0.35 px" style="stroke-width:0.35;stroke-miterlimit:4;stroke-dasharray:none;fill:none;fill-opacity:1;fill-rule: evenodd"/>
<path id="Shape2DView_nwe0045"  d="M 24.2375 -1.88 L 24.2375 -1.8806287790106757 L 24.2375 -1.8825072087818175 L 24.2375 -1.8856116669691632 L 24.2375 -1.8899031132097581 L 24.2375 -1.8953275800771716 L 24.2375 -1.901816851753197 L 24.2375 -1.9092893218813451 L 24.2375 -1.9176510198141266 L 24.2375 -1.9267967923484663 L 24.2375 -1.9366116260882442 L 24.2375 -1.9469720938044832 L 24.2375 -1.9577479066043686 L 24.2375 -1.9688035523896692 L 24.2375 -1.98 " stroke="#191919" stroke-width="0.35 px" style="stroke-width:0.35;stroke-miterlimit:4;stroke-dasharray:none;fill:none;fill-opacity:1;fill-rule: evenodd"/>
<path id="Shape2DView_nwe0046"  d="M 24.2375 -10.01 L 24.2375 -1.9800000000000004 " stroke="#191919" stroke-width="0.35 px" style="stroke-width:0.35;stroke-miterlimit:4;stroke-dasharray:none;fill:none;fill-opacity:1;fill-rule: evenodd"/>
<path id="Shape2DView_nwe0047"  d="M -6.0625 -10.31 L -6.0625 -10.11 " stroke="#191919" stroke-width="0.35 px" style="stroke-width:0.35;stroke-miterlimit:4;stroke-dasharray:none;fill:none;fill-opacity:1;fill-rule: evenodd"/>
<path id="Shape2DView_nwe0048"  d="M -7.0625 -1.88 L -7.0625 -1.8806287790106757 L -7.0625 -1.8825072087818175 L -7.0625 -1.8856116669691632 L -7.0625 -1.8899031132097581 L -7.0625 -1.8953275800771716 L -7.0625 -1.901816851753197 L -7.0625 -1.9092893218813451 L -7.0625 -1.9176510198141266 L -7.0625 -1.9267967923484663 L -7.0625 -1.9366116260882442 L -7.0625 -1.9469720938044832 L -7.0625 -1.9577479066043686 L -7.0625 -1.9688035523896692 L -7.0625 -1.98 " stroke="#191919" stroke-width="0.35 px" style="stroke-width:0.35;stroke-miterlimit:4;stroke-dasharray:none;fill:none;fill-opacity:1;fill-rule: evenodd"/>
<path id="Shape2DView_nwe0049"  d="M -7.0625 -1.98 L -7.0625 -10.009999999999998 " stroke="#191919" stroke-width="0.35 px" style="stroke-width:0.35;stroke-miterlimit:4;stroke-dasharray:none;fill:none;fill-opacity:1;fill-rule: evenodd"/>
<path id="Shape2DView_nwe0050"  d="M -7.0625 -10.11 L -7.0625 -10.01 " stroke="#191919" stroke-width="0.35 px" style="stroke-width:0.35;stroke-miterlimit:4;stroke-dasharray:none;fill:none;fill-opacity:1;fill-rule: evenodd"/>
<path id="Shape2DView_nwe0051"  d="M -9.0625 -10.01 L -9.0625 -10.11 " stroke="#191919" stroke-width="0.35 px" style="stroke-width:0.35;stroke-miterlimit:4;stroke-dasharray:none;fill:none;fill-opacity:1;fill-rule: evenodd"/>
<path id="Shape2DView_nwe0052"  d="M -7.0625 -10.01 L -9.0625 -10.01 " stroke="#191919" stroke-width="0.35 px" style="stroke-width:0.35;stroke-miterlimit:4;stroke-dasharray:none;fill:none;fill-opacity:1;fill-rule: evenodd"/>
<path id="Shape2DView_nwe0053"  d="M -9.0625 -10.01 L -9.0625 -1.9800000000000004 " stroke="#191919" stroke-width="0.35 px" style="stroke-width:0.35;stroke-miterlimit:4;stroke-dasharray:none;fill:none;fill-opacity:1;fill-rule: evenodd"/>
<path id="Shape2DView_nwe0054"  d="M -9.0625 -1.88 L -9.0625 -1.8806287790106757 L -9.0625 -1.8825072087818175 L -9.0625 -1.8856116669691632 L -9.0625 -1.8899031132097581 L -9.0625 -1.8953275800771716 L -9.0625 -1.901816851753197 L -9.0625 -1.9092893218813451 L -9.0625 -1.9176510198141266 L -9.0625 -1.9267967923484663 L -9.0625 -1.9366116260882442 L -9.0625 -1.9469720938044832 L -9.0625 -1.9577479066043686 L -9.0625 -1.9688035523896692 L -9.0625 -1.98 " stroke="#191919" stroke-width="0.35 px" style="stroke-width:0.35;stroke-miterlimit:4;stroke-dasharray:none;fill:none;fill-opacity:1;fill-rule: evenodd"/>
<path id="Shape2DView_nwe0055"  d="M 24.2375 -1.88 L 26.2375 -1.88 " stroke="#191919" stroke-width="0.35 px" style="stroke-width:0.35;stroke-miterlimit:4;stroke-dasharray:none;fill:none;fill-opacity:1;fill-rule: evenodd"/>
<path id="Shape2DView_nwe0056"  d="M -9.0625 -1.88 L -7.0625 -1.88 " stroke="#191919" stroke-width="0.35 px" style="stroke-width:0.35;stroke-miterlimit:4;stroke-dasharray:none;fill:none;fill-opacity:1;fill-rule: evenodd"/>
<path id="Shape2DView_nwe0057"  d="M -2.890077687448 -18.41 L -2.890077687448 -18.36 " stroke="#191919" stroke-width="0.35 px" style="stroke-width:0.35;stroke-miterlimit:4;stroke-dasharray:none;fill:none;fill-opacity:1;fill-rule: evenodd"/>
<path id="Shape2DView_nwe0058"  d="M 20.065077687448 -18.41 L 20.065077687448 -18.36 " stroke="#191919" stroke-width="0.35 px" style="stroke-width:0.35;stroke-miterlimit:4;stroke-dasharray:none;fill:none;fill-opacity:1;fill-rule: evenodd"/>
<path id="Shape2DView_nwe0059"  d="M -2.890077687448 -13.21 L -2.890077687448 -18.36 " stroke="#191919" stroke-width="0.35 px" style="stroke-width:0.35;stroke-miterlimit:4;stroke-dasharray:none;fill:none;fill-opacity:1;fill-rule: evenodd"/>
<path id="Shape2DView_nwe0060"  d="M -3.890077687448 -13.21 L -3.883789897341243 -13.21 L -3.865005599629824 -13.21 L -3.833961017756368 -13.21 L -3.7910465553504196 -13.21 L -3.7368018866762847 -13.21 L -3.67190916991603 -13.21 L -3.597184468634548 -13.21 L -3.513567489306734 -13.21 L -3.422109763963337 -13.21 L -3.3239614265655586 -13.21 L -3.2203567494031673 -13.21 L -3.112598621404315 -13.21 L -3.0020421635513084 -13.21 L -2.890077687448 -13.21 " stroke="#191919" stroke-width="0.35 px" style="stroke-width:0.35;stroke-miterlimit:4;stroke-dasharray:none;fill:none;fill-opacity:1;fill-rule: evenodd"/>
<path id="Shape2DView_nwe0061"  d="M 20.065077687448 -13.21 L 20.065077687448 -18.36 " stroke="#191919" stroke-width="0.35 px" style="stroke-width:0.35;stroke-miterlimit:4;stroke-dasharray:none;fill:none;fill-opacity:1;fill-rule: evenodd"/>
<path id="Shape2DView_nwe0062"  d="M -2.890077687448 -13.21 L 20.065077687448 -13.21 " stroke="#191919" stroke-width="0.35 px" style="stroke-width:0.35;stroke-miterlimit:4;stroke-dasharray:none;fill:none;fill-opacity:1;fill-rule: evenodd"/>
<path id="Shape2DView_nwe0063"  d="M 20.065077687448 -13.21 L 20.177042163551306 -13.21 L 20.287598621404314 -13.21 L 20.395356749403167 -13.21 L 20.498961426565558 -13.21 L 20.597109763963335 -13.21 L 20.688567489306735 -13.21 L 20.772184468634546 -13.21 L 20.846909169916028 -13.21 L 20.911801886676283 -13.21 L 20.96604655535042 -13.21 L 21.008961017756366 -13.21 L 21.040005599629822 -13.21 L 21.058789897341242 -13.21 L 21.065077687448 -13.21 " stroke="#191919" stroke-width="0.35 px" style="stroke-width:0.35;stroke-miterlimit:4;stroke-dasharray:none;fill:none;fill-opacity:1;fill-rule: evenodd"/>
<path id="Shape2DView_nwe0064"  d="M -2.890077687448 -13.21 L -2.890077687448 -13.142821314338017 L -2.890077687448 -13.076487439626213 L -2.890077687448 -13.011832562826902 L -2.890077687448 -12.949669756529467 L -2.890077687448 -12.8907807540908 L -2.890077687448 -12.835906118884761 L -2.890077687448 -12.785735931288073 L -2.890077687448 -12.740901110519182 L -2.890077687448 -12.70196548046303 L -2.890077687448 -12.66941867925855 L -2.890077687448 -12.64367000181498 L -2.890077687448 -12.625043252690906 L -2.890077687448 -12.613772674064055 L -2.890077687448 -12.610000000000001 " stroke="#191919" stroke-width="0.35 px" style="stroke-width:0.35;stroke-miterlimit:4;stroke-dasharray:none;fill:none;fill-opacity:1;fill-rule: evenodd"/>
<path id="Shape2DView_nwe0065"  d="M 20.065077687448 -13.21 L 20.065077687448 -13.142821314338017 L 20.065077687448 -13.076487439626213 L 20.065077687448 -13.011832562826902 L 20.065077687448 -12.949669756529467 L 20.065077687448 -12.890780754090798 L 20.065077687448 -12.835906118884761 L 20.065077687448 -12.785735931288073 L 20.065077687448 -12.740901110519182 L 20.065077687448 -12.70196548046303 L 20.065077687448 -12.66941867925855 L 20.065077687448 -12.64367000181498 L 20.065077687448 -12.625043252690906 L 20.065077687448 -12.613772674064055 L 20.065077687448 -12.610000000000001 " stroke="#191919" stroke-width="0.35 px" style="stroke-width:0.35;stroke-miterlimit:4;stroke-dasharray:none;fill:none;fill-opacity:1;fill-rule: evenodd"/>
<path id="Shape2DView_nwe0066"  d="M -10.0125 -12.51 L -10.0125 -12.52119644761033 L -10.0125 -12.53225209339563 L -10.0125 -12.543027906195517 L -10.0125 -12.553388373911755 L -10.0125 -12.563203207651533 L -10.0125 -12.572348980185874 L -10.0125 -12.580710678118654 L -10.0125 -12.588183148246802 L -10.0125 -12.594672419922828 L -10.0125 -12.600096886790242 L -10.0125 -12.604388333030837 L -10.0125 -12.607492791218181 L -10.0125 -12.609371220989324 L -10.0125 -12.61 " stroke="#191919" stroke-width="0.35 px" style="stroke-width:0.35;stroke-miterlimit:4;stroke-dasharray:none;fill:none;fill-opacity:1;fill-rule: evenodd"/>
<path id="Shape2DView_nwe0067"  d="M -10.0125 -12.51 L -10.124464476103308 -12.51 L -10.235020933956314 -12.51 L -10.342779061955166 -12.51 L -10.446383739117557 -12.51 L -10.544532076515337 -12.51 L -10.635989801858733 -12.51 L -10.719606781186547 -12.51 L -10.79433148246803 -12.51 L -10.859224199228283 -12.51 L -10.913468867902418 -12.51 L -10.956383330308366 -12.51 L -10.987427912181824 -12.51 L -11.006212209893242 -12.51 L -11.0125 -12.51 " stroke="#191919" stroke-width="0.35 px" style="stroke-width:0.35;stroke-miterlimit:4;stroke-dasharray:none;fill:none;fill-opacity:1;fill-rule: evenodd"/>
<path id="Shape2DView_nwe0068"  d="M 27.1875 -12.51 L -10.012500000000003 -12.51 " stroke="#191919" stroke-width="0.35 px" style="stroke-width:0.35;stroke-miterlimit:4;stroke-dasharray:none;fill:none;fill-opacity:1;fill-rule: evenodd"/>
<path id="Shape2DView_nwe0069"  d="M 27.1875 -12.51 L 27.1875 -12.52119644761033 L 27.1875 -12.53225209339563 L 27.1875 -12.543027906195517 L 27.1875 -12.553388373911755 L 27.1875 -12.563203207651533 L 27.1875 -12.572348980185874 L 27.1875 -12.580710678118654 L 27.1875 -12.588183148246802 L 27.1875 -12.594672419922828 L 27.1875 -12.600096886790242 L 27.1875 -12.604388333030837 L 27.1875 -12.607492791218181 L 27.1875 -12.609371220989324 L 27.1875 -12.61 " stroke="#191919" stroke-width="0.35 px" style="stroke-width:0.35;stroke-miterlimit:4;stroke-dasharray:none;fill:none;fill-opacity:1;fill-rule: evenodd"/>
<path id="Shape2DView_nwe0070"  d="M 28.1875 -12.51 L 28.181212209893243 -12.51 L 28.162427912181823 -12.51 L 28.131383330308367 -12.51 L 28.08846886790242 -12.51 L 28.034224199228284 -12.51 L 27.96933148246803 -12.51 L 27.894606781186546 -12.51 L 27.810989801858735 -12.51 L 27.719532076515335 -12.51 L 27.621383739117558 -12.51 L 27.517779061955167 -12.51 L 27.410020933956314 -12.51 L 27.299464476103307 -12.51 L 27.1875 -12.51 " stroke="#191919" stroke-width="0.35 px" style="stroke-width:0.35;stroke-miterlimit:4;stroke-dasharray:none;fill:none;fill-opacity:1;fill-rule: evenodd"/>
<path id="Shape2DView_nwe0071"  d="M -10.0125 -12.31 L -10.0125 -12.51 " stroke="#191919" stroke-width="0.35 px" style="stroke-width:0.35;stroke-miterlimit:4;stroke-dasharray:none;fill:none;fill-opacity:1;fill-rule: evenodd"/>
<path id="Shape2DView_nwe0072"  d="M 27.1875 -12.31 L 27.1875 -12.51 " stroke="#191919" stroke-width="0.35 px" style="stroke-width:0.35;stroke-miterlimit:4;stroke-dasharray:none;fill:none;fill-opacity:1;fill-rule: evenodd"/>
<path id="Shape2DView_nwe0073"  d="M -10.0125 -12.31 L -10.0125 -10.31 " stroke="#191919" stroke-width="0.35 px" style="stroke-width:0.35;stroke-miterlimit:4;stroke-dasharray:none;fill:none;fill-opacity:1;fill-rule: evenodd"/>
<path id="Shape2DView_nwe0074"  d="M 27.1875 -12.31 L 27.1875 -10.31 " stroke="#191919" stroke-width="0.35 px" style="stroke-width:0.35;stroke-miterlimit:4;stroke-dasharray:none;fill:none;fill-opacity:1;fill-rule: evenodd"/>
<path id="Shape2DView_nwe0075"  d="M 24.2375 -1.98 L 26.2375 -1.98 " stroke="#191919" stroke-width="0.35 px" style="stroke-width:0.35;stroke-miterlimit:4;stroke-dasharray:none;fill:none;fill-opacity:1;fill-rule: evenodd"/>
<path id="Shape2DView_nwe0076"  d="M -9.0625 -1.98 L -7.0625 -1.98 " stroke="#191919" stroke-width="0.35 px" style="stroke-width:0.35;stroke-miterlimit:4;stroke-dasharray:none;fill:none;fill-opacity:1;fill-rule: evenodd"/>
<path id="Shape2DView_nwe0077"  d="M -10.0125 -12.31 L -10.124464476103308 -12.31 L -10.235020933956314 -12.31 L -10.342779061955166 -12.31 L -10.446383739117557 -12.31 L -10.544532076515337 -12.31 L -10.635989801858733 -12.31 L -10.719606781186547 -12.31 L -10.79433148246803 -12.31 L -10.859224199228283 -12.31 L -10.913468867902418 -12.31 L -10.956383330308366 -12.31 L -10.987427912181824 -12.31 L -11.006212209893242 -12.31 L -11.0125 -12.31 " stroke="#191919" stroke-width="0.35 px" style="stroke-width:0.35;stroke-miterlimit:4;stroke-dasharray:none;fill:none;fill-opacity:1;fill-rule: evenodd"/>
<path id="Shape2DView_nwe0078"  d="M 27.1875 -12.31 L -10.012500000000003 -12.31 " stroke="#191919" stroke-width="0.35 px" style="stroke-width:0.35;stroke-miterlimit:4;stroke-dasharray:none;fill:none;fill-opacity:1;fill-rule: evenodd"/>
<path id="Shape2DView_nwe0079"  d="M 27.1875 -12.31 L 27.299464476103307 -12.31 L 27.410020933956314 -12.31 L 27.517779061955167 -12.31 L 27.621383739117558 -12.31 L 27.719532076515335 -12.31 L 27.810989801858735 -12.31 L 27.894606781186546 -12.31 L 27.96933148246803 -12.31 L 28.034224199228284 -12.31 L 28.08846886790242 -12.31 L 28.131383330308367 -12.31 L 28.162427912181823 -12.31 L 28.181212209893243 -12.31 L 28.1875 -12.31 " stroke="#191919" stroke-width="0.35 px" style="stroke-width:0.35;stroke-miterlimit:4;stroke-dasharray:none;fill:none;fill-opacity:1;fill-rule: evenodd"/>
<path id="Shape2DView_nwe0080"  d="M -3.8400776874480225 -18.41000000000002 L -3.890077687448 -18.36 " stroke="#191919" stroke-width="0.35 px" style="stroke-width:0.35;stroke-miterlimit:4;stroke-dasharray:none;fill:none;fill-opacity:1;fill-rule: evenodd"/>
<path id="Shape2DView_nwe0081"  d="M 21.01507768744802 -18.41000000000002 L 21.065077687448 -18.36 " stroke="#191919" stroke-width="0.35 px" style="stroke-width:0.35;stroke-miterlimit:4;stroke-dasharray:none;fill:none;fill-opacity:1;fill-rule: evenodd"/>
<path id="Shape2DView_nwe0082"  d="M -3.890077687448 -13.21 L -3.890077687448 -18.36 " stroke="#191919" stroke-width="0.35 px" style="stroke-width:0.35;stroke-miterlimit:4;stroke-dasharray:none;fill:none;fill-opacity:1;fill-rule: evenodd"/>
<path id="Shape2DView_nwe0083"  d="M 21.065077687448 -13.21 L 21.065077687448 -18.36 " stroke="#191919" stroke-width="0.35 px" style="stroke-width:0.35;stroke-miterlimit:4;stroke-dasharray:none;fill:none;fill-opacity:1;fill-rule: evenodd"/>
<path id="Shape2DView_nwe0084"  d="M -3.890077687448 -13.21 Q -3.8978256658060197 -13.142259618652613 -3.905573644164039 -13.074519237305225 Q -3.9349336617928596 -12.997733516422095 -3.9642936794216816 -12.920947795538973 Q -4.14241204615847 -12.622129505490133 -4.490077687448 -12.610000000000001 " stroke="#191919" stroke-width="0.35 px" style="stroke-width:0.35;stroke-miterlimit:4;stroke-dasharray:none;fill:none;fill-opacity:1;fill-rule: evenodd"/>
<path id="Shape2DView_nwe0085"  d="M 21.065077687448 -13.21 Q 21.072825665806022 -13.142259618652613 21.08057364416404 -13.074519237305225 Q 21.109933661792855 -12.997733516422098 21.13929367942168 -12.920947795538973 Q 21.31741204615846 -12.622129505490133 21.665077687448 -12.610000000000001 " stroke="#191919" stroke-width="0.35 px" style="stroke-width:0.35;stroke-miterlimit:4;stroke-dasharray:none;fill:none;fill-opacity:1;fill-rule: evenodd"/>
<path id="Shape2DView_nwe0086"  d="M 23.2375 -10.11 L 23.2375 -10.31 " stroke="#191919" stroke-width="0.35 px" style="stroke-width:0.35;stroke-miterlimit:4;stroke-dasharray:none;fill:none;fill-opacity:1;fill-rule: evenodd"/>
<path id="Shape2DView_nwe0087"  d="M -10.0625 -10.11 L -10.0625 -10.31 " stroke="#191919" stroke-width="0.35 px" style="stroke-width:0.35;stroke-miterlimit:4;stroke-dasharray:none;fill:none;fill-opacity:1;fill-rule: evenodd"/>
<title>b'Shape2DView'</title>
</g>
<g id="Rectangle" transform="translate(11.404500,1.972000) scale(1,-1)">
<rect fill="#ff0000" id="origin" width="1" height="1" x="0" y="0" />
<title>b'Rectangle'</title>
</g>
</svg>