<?xml version="1.0"?>
<!DOCTYPE svg PUBLIC "-//W3C//DTD SVG 1.1//EN" "http://www.w3.org/Graphics/SVG/1.1/DTD/svg11.dtd">
<svg width="5.1mm" height="2.8000000000000025mm" viewBox="0 0 5.1 2.8000000000000025" xmlns="http://www.w3.org/2000/svg" version="1.1">
<g id="Shape2DView" transform="translate(2.550000,1.400000) scale(1,-1)">
<path id="Shape2DView_nwe0000"  d="M 2.28 0.75 L 2.353333333333 0.75 " stroke="#191919" stroke-width="0.35 px" style="stroke-width:0.35;stroke-miterlimit:4;stroke-dasharray:none;fill:none;fill-opacity:1;fill-rule: evenodd"/>
<path id="Shape2DView_nwe0001"  d="M 2.5 0.75 L 2.49907779078434 0.75 L 2.496322760453326 0.75 L 2.4917695551118753 0.75 L 2.4854754339589884 0.75 L 2.4775195492200974 0.75 L 2.468001950761905 0.75 L 2.4570423279072626 0.75 L 2.444778504272489 0.75 L 2.4313647045554267 0.75 L 2.4169696150703865 0.75 L 2.401774262419868 0.75 L 2.3859697369800004 0.75 L 2.369754789828189 0.75 L 2.353333333333 0.75 " stroke="#191919" stroke-width="0.35 px" style="stroke-width:0.35;stroke-miterlimit:4;stroke-dasharray:none;fill:none;fill-opacity:1;fill-rule: evenodd"/>
<path id="Shape2DView_nwe0002"  d="M 2.5 -0.75 L 2.49907779078434 -0.75 L 2.496322760453326 -0.75 L 2.4917695551118753 -0.75 L 2.4854754339589884 -0.75 L 2.4775195492200974 -0.75 L 2.468001950761905 -0.75 L 2.4570423279072626 -0.75 L 2.444778504272489 -0.75 L 2.4313647045554267 -0.75 L 2.4169696150703865 -0.75 L 2.401774262419868 -0.75 L 2.3859697369800004 -0.75 L 2.369754789828189 -0.75 L 2.353333333333 -0.75 " stroke="#191919" stroke-width="0.35 px" style="stroke-width:0.35;stroke-miterlimit:4;stroke-dasharray:none;fill:none;fill-opacity:1;fill-rule: evenodd"/>
<path id="Shape2DView_nwe0003"  d="M 2.353333333333 -0.75 L 2.28 -0.7499999999999999 " stroke="#191919" stroke-width="0.35 px" style="stroke-width:0.35;stroke-miterlimit:4;stroke-dasharray:none;fill:none;fill-opacity:1;fill-rule: evenodd"/>
<path id="Shape2DView_nwe0004"  d="M 2.5 0.75 L 2.4999999999999996 -0.75 " stroke="#191919" stroke-width="0.35 px" style="stroke-width:0.35;stroke-miterlimit:4;stroke-dasharray:none;fill:none;fill-opacity:1;fill-rule: evenodd"/>
<path id="Shape2DView_nwe0005"  d="M 2.28 -1.35 L 2.2800000000000002 1.35 " stroke="#191919" stroke-width="0.35 px" style="stroke-width:0.35;stroke-miterlimit:4;stroke-dasharray:none;fill:none;fill-opacity:1;fill-rule: evenodd"/>
<path id="Shape2DView_nwe0006"  d="M -2.28 -1.35 L 2.28 -1.3500000000000012 " stroke="#191919" stroke-width="0.35 px" style="stroke-width:0.35;stroke-miterlimit:4;stroke-dasharray:none;fill:none;fill-opacity:1;fill-rule: evenodd"/>
<path id="Shape2DView_nwe0007"  d="M 2.28 1.35 L 2.194199820414 1.264199820414 " stroke="#191919" stroke-width="0.35 px" style="stroke-width:0.35;stroke-miterlimit:4;stroke-dasharray:none;fill:none;fill-opacity:1;fill-rule: evenodd"/>
<path id="Shape2DView_nwe0008"  d="M 2.194199820414 -1.264199820414 L 2.1941998204140005 1.264199820414 " stroke="#191919" stroke-width="0.35 px" style="stroke-width:0.35;stroke-miterlimit:4;stroke-dasharray:none;fill:none;fill-opacity:1;fill-rule: evenodd"/>
<path id="Shape2DView_nwe0009"  d="M 2.28 -1.35 L 2.194199820414 -1.264199820414 " stroke="#191919" stroke-width="0.35 px" style="stroke-width:0.35;stroke-miterlimit:4;stroke-dasharray:none;fill:none;fill-opacity:1;fill-rule: evenodd"/>
<path id="Shape2DView_nwe0010"  d="M 2.28 1.35 L -2.28 1.3500000000000012 " stroke="#191919" stroke-width="0.35 px" style="stroke-width:0.35;stroke-miterlimit:4;stroke-dasharray:none;fill:none;fill-opacity:1;fill-rule: evenodd"/>
<path id="Shape2DView_nwe0011"  d="M -2.28 1.35 L -2.2800000000000002 -1.35 " stroke="#191919" stroke-width="0.35 px" style="stroke-width:0.35;stroke-miterlimit:4;stroke-dasharray:none;fill:none;fill-opacity:1;fill-rule: evenodd"/>
<path id="Shape2DView_nwe0012"  d="M -2.194199820414 -1.264199820414 L 2.194199820414 -1.2641998204140008 " stroke="#191919" stroke-width="0.35 px" style="stroke-width:0.35;stroke-miterlimit:4;stroke-dasharray:none;fill:none;fill-opacity:1;fill-rule: evenodd"/>
<path id="Shape2DView_nwe0013"  d="M -2.28 -1.35 L -2.194199820414 -1.264199820414 " stroke="#191919" stroke-width="0.35 px" style="stroke-width:0.35;stroke-miterlimit:4;stroke-dasharray:none;fill:none;fill-opacity:1;fill-rule: evenodd"/>
<path id="Shape2DView_nwe0014"  d="M -2.28 1.35 L -2.194199820414 1.264199820414 " stroke="#191919" stroke-width="0.35 px" style="stroke-width:0.35;stroke-miterlimit:4;stroke-dasharray:none;fill:none;fill-opacity:1;fill-rule: evenodd"/>
<path id="Shape2DView_nwe0015"  d="M 2.194199820414 1.264199820414 L -2.194199820414 1.2641998204140008 " stroke="#191919" stroke-width="0.35 px" style="stroke-width:0.35;stroke-miterlimit:4;stroke-dasharray:none;fill:none;fill-opacity:1;fill-rule: evenodd"/>
<path id="Shape2DView_nwe0016"  d="M -2.194199820414 1.264199820414 L -2.1941998204140005 -1.264199820414 " stroke="#191919" stroke-width="0.35 px" style="stroke-width:0.35;stroke-miterlimit:4;stroke-dasharray:none;fill:none;fill-opacity:1;fill-rule: evenodd"/>
<path id="Shape2DView_nwe0017"  d="M -1.508399640828 1.178399640828 L -2.108399640828 1.1783996408280002 " stroke="#191919" stroke-width="0.35 px" style="stroke-width:0.35;stroke-miterlimit:4;stroke-dasharray:none;fill:none;fill-opacity:1;fill-rule: evenodd"/>
<path id="Shape2DView_nwe0018"  d="M -2.108399640828 1.178399640828 L -2.1083996408280004 -1.178399640828 " stroke="#191919" stroke-width="0.35 px" style="stroke-width:0.35;stroke-miterlimit:4;stroke-dasharray:none;fill:none;fill-opacity:1;fill-rule: evenodd"/>
<path id="Shape2DView_nwe0019"  d="M -2.108399640828 -1.178399640828 L -1.508399640828 -1.1783996408280002 " stroke="#191919" stroke-width="0.35 px" style="stroke-width:0.35;stroke-miterlimit:4;stroke-dasharray:none;fill:none;fill-opacity:1;fill-rule: evenodd"/>
<path id="Shape2DView_nwe0020"  d="M -1.508399640828 -1.178399640828 L -1.5083996408279996 1.178399640828 " stroke="#191919" stroke-width="0.35 px" style="stroke-width:0.35;stroke-miterlimit:4;stroke-dasharray:none;fill:none;fill-opacity:1;fill-rule: evenodd"/>
<path id="Shape2DView_nwe0021"  d="M -2.5 0.75 L -2.49907779078434 0.75 L -2.496322760453326 0.75 L -2.4917695551118753 0.75 L -2.4854754339589884 0.75 L -2.4775195492200974 0.75 L -2.468001950761905 0.75 L -2.4570423279072626 0.75 L -2.444778504272489 0.75 L -2.4313647045554267 0.75 L -2.4169696150703865 0.75 L -2.401774262419868 0.75 L -2.3859697369800004 0.75 L -2.369754789828189 0.75 L -2.353333333333 0.75 " stroke="#191919" stroke-width="0.35 px" style="stroke-width:0.35;stroke-miterlimit:4;stroke-dasharray:none;fill:none;fill-opacity:1;fill-rule: evenodd"/>
<path id="Shape2DView_nwe0022"  d="M -2.353333333333 0.75 L -2.28 0.75 " stroke="#191919" stroke-width="0.35 px" style="stroke-width:0.35;stroke-miterlimit:4;stroke-dasharray:none;fill:none;fill-opacity:1;fill-rule: evenodd"/>
<path id="Shape2DView_nwe0023"  d="M -2.28 -0.75 L -2.353333333333 -0.75 " stroke="#191919" stroke-width="0.35 px" style="stroke-width:0.35;stroke-miterlimit:4;stroke-dasharray:none;fill:none;fill-opacity:1;fill-rule: evenodd"/>
<path id="Shape2DView_nwe0024"  d="M -2.5 -0.75 L -2.49907779078434 -0.75 L -2.496322760453326 -0.75 L -2.4917695551118753 -0.75 L -2.4854754339589884 -0.75 L -2.4775195492200974 -0.75 L -2.468001950761905 -0.75 L -2.4570423279072626 -0.75 L -2.444778504272489 -0.75 L -2.4313647045554267 -0.75 L -2.4169696150703865 -0.75 L -2.401774262419868 -0.75 L -2.3859697369800004 -0.75 L -2.369754789828189 -0.75 L -2.353333333333 -0.75 " stroke="#191919" stroke-width="0.35 px" style="stroke-width:0.35;stroke-miterlimit:4;stroke-dasharray:none;fill:none;fill-opacity:1;fill-rule: evenodd"/>
<path id="Shape2DView_nwe0025"  d="M -2.5 -0.75 L -2.4999999999999996 0.75 " stroke="#191919" stroke-width="0.35 px" style="stroke-width:0.35;stroke-miterlimit:4;stroke-dasharray:none;fill:none;fill-opacity:1;fill-rule: evenodd"/>
<path id="Shape2DView_nwe0026"  d="M 2.353333333333 0.75 L 2.3533333333329995 -0.75 " stroke="#191919" stroke-width="0.35 px" style="stroke-width:0.35;stroke-miterlimit:4;stroke-dasharray:none;fill:none;fill-opacity:1;fill-rule: evenodd"/>
<path id="Shape2DView_nwe0027"  d="M -2.353333333333 -0.75 L -2.3533333333329995 0.75 " stroke="#191919" stroke-width="0.35 px" style="stroke-width:0.35;stroke-miterlimit:4;stroke-dasharray:none;fill:none;fill-opacity:1;fill-rule: evenodd"/>
<title>b'Shape2DView'</title>
</g>
<g id="Rectangle" transform="translate(2.550000,1.400000) scale(1,-1)">
<rect fill="#ff0000" id="origin" width="1" height="1" x="0" y="0" />
<title>b'Rectangle'</title>
</g>
</svg>