<?xml version="1.0"?>
<!DOCTYPE svg PUBLIC "-//W3C//DTD SVG 1.1//EN" "http://www.w3.org/Graphics/SVG/1.1/DTD/svg11.dtd">
<svg width="8.16mm" height="6.060000000000004mm" viewBox="0 0 8.16 6.060000000000004" xmlns="http://www.w3.org/2000/svg" version="1.1">
<g id="Shape2DView" transform="translate(4.080000,3.030000) scale(1,-1)">
<path id="Shape2DView_nwe0000"  d="M 3.78 1.5 L 3.853333333333 1.5 " stroke="#191919" stroke-width="0.35 px" style="stroke-width:0.35;stroke-miterlimit:4;stroke-dasharray:none;fill:none;fill-opacity:1;fill-rule: evenodd"/>
<path id="Shape2DView_nwe0001"  d="M 4.0 1.5 L 3.99907779078434 1.5 L 3.996322760453326 1.5 L 3.9917695551118753 1.5 L 3.9854754339589884 1.5 L 3.9775195492200974 1.5 L 3.968001950761905 1.5 L 3.9570423279072626 1.5 L 3.944778504272489 1.5 L 3.9313647045554267 1.5 L 3.9169696150703865 1.5 L 3.901774262419868 1.5 L 3.8859697369800004 1.5 L 3.869754789828189 1.5 L 3.853333333333 1.5 " stroke="#191919" stroke-width="0.35 px" style="stroke-width:0.35;stroke-miterlimit:4;stroke-dasharray:none;fill:none;fill-opacity:1;fill-rule: evenodd"/>
<path id="Shape2DView_nwe0002"  d="M 4.0 1.5 L 3.999999999999999 -1.5 " stroke="#191919" stroke-width="0.35 px" style="stroke-width:0.35;stroke-miterlimit:4;stroke-dasharray:none;fill:none;fill-opacity:1;fill-rule: evenodd"/>
<path id="Shape2DView_nwe0003"  d="M 4.0 -1.5 L 3.99907779078434 -1.5 L 3.996322760453326 -1.5 L 3.9917695551118753 -1.5 L 3.9854754339589884 -1.5 L 3.9775195492200974 -1.5 L 3.968001950761905 -1.5 L 3.9570423279072626 -1.5 L 3.944778504272489 -1.5 L 3.9313647045554267 -1.5 L 3.9169696150703865 -1.5 L 3.901774262419868 -1.5 L 3.8859697369800004 -1.5 L 3.869754789828189 -1.5 L 3.853333333333 -1.5 " stroke="#191919" stroke-width="0.35 px" style="stroke-width:0.35;stroke-miterlimit:4;stroke-dasharray:none;fill:none;fill-opacity:1;fill-rule: evenodd"/>
<path id="Shape2DView_nwe0004"  d="M 3.853333333333 -1.5 L 3.78 -1.5 " stroke="#191919" stroke-width="0.35 px" style="stroke-width:0.35;stroke-miterlimit:4;stroke-dasharray:none;fill:none;fill-opacity:1;fill-rule: evenodd"/>
<path id="Shape2DView_nwe0006"  d="M 3.78 -2.95 L 3.780000000000001 2.95 " stroke="#191919" stroke-width="0.35 px" style="stroke-width:0.35;stroke-miterlimit:4;stroke-dasharray:none;fill:none;fill-opacity:1;fill-rule: evenodd"/>
<path id="Shape2DView_nwe0007"  d="M -3.78 -2.95 L 3.78 -2.950000000000002 " stroke="#191919" stroke-width="0.35 px" style="stroke-width:0.35;stroke-miterlimit:4;stroke-dasharray:none;fill:none;fill-opacity:1;fill-rule: evenodd"/>
<path id="Shape2DView_nwe0008"  d="M 3.78 2.95 L 3.690721434755 2.860721434755 " stroke="#191919" stroke-width="0.35 px" style="stroke-width:0.35;stroke-miterlimit:4;stroke-dasharray:none;fill:none;fill-opacity:1;fill-rule: evenodd"/>
<path id="Shape2DView_nwe0009"  d="M 3.690721434755 -2.860721434755 L 3.6907214347550013 2.860721434755 " stroke="#191919" stroke-width="0.35 px" style="stroke-width:0.35;stroke-miterlimit:4;stroke-dasharray:none;fill:none;fill-opacity:1;fill-rule: evenodd"/>
<path id="Shape2DView_nwe0010"  d="M 3.78 -2.95 L 3.690721434755 -2.860721434755 " stroke="#191919" stroke-width="0.35 px" style="stroke-width:0.35;stroke-miterlimit:4;stroke-dasharray:none;fill:none;fill-opacity:1;fill-rule: evenodd"/>
<path id="Shape2DView_nwe0011"  d="M 3.78 2.95 L -3.78 2.950000000000002 " stroke="#191919" stroke-width="0.35 px" style="stroke-width:0.35;stroke-miterlimit:4;stroke-dasharray:none;fill:none;fill-opacity:1;fill-rule: evenodd"/>
<path id="Shape2DView_nwe0012"  d="M -3.78 2.95 L -3.780000000000001 -2.95 " stroke="#191919" stroke-width="0.35 px" style="stroke-width:0.35;stroke-miterlimit:4;stroke-dasharray:none;fill:none;fill-opacity:1;fill-rule: evenodd"/>
<path id="Shape2DView_nwe0013"  d="M -3.690721434755 -2.860721434755 L 3.690721434755 -2.8607214347550016 " stroke="#191919" stroke-width="0.35 px" style="stroke-width:0.35;stroke-miterlimit:4;stroke-dasharray:none;fill:none;fill-opacity:1;fill-rule: evenodd"/>
<path id="Shape2DView_nwe0014"  d="M -3.78 -2.95 L -3.690721434755 -2.860721434755 " stroke="#191919" stroke-width="0.35 px" style="stroke-width:0.35;stroke-miterlimit:4;stroke-dasharray:none;fill:none;fill-opacity:1;fill-rule: evenodd"/>
<path id="Shape2DView_nwe0015"  d="M -3.78 2.95 L -3.690721434755 2.860721434755 " stroke="#191919" stroke-width="0.35 px" style="stroke-width:0.35;stroke-miterlimit:4;stroke-dasharray:none;fill:none;fill-opacity:1;fill-rule: evenodd"/>
<path id="Shape2DView_nwe0016"  d="M 3.690721434755 2.860721434755 L -3.690721434755 2.8607214347550016 " stroke="#191919" stroke-width="0.35 px" style="stroke-width:0.35;stroke-miterlimit:4;stroke-dasharray:none;fill:none;fill-opacity:1;fill-rule: evenodd"/>
<path id="Shape2DView_nwe0017"  d="M -3.690721434755 2.860721434755 L -3.6907214347550013 -2.860721434755 " stroke="#191919" stroke-width="0.35 px" style="stroke-width:0.35;stroke-miterlimit:4;stroke-dasharray:none;fill:none;fill-opacity:1;fill-rule: evenodd"/>
<path id="Shape2DView_nwe0018"  d="M -3.001442869511 2.771442869511 L -3.601442869511 2.771442869511 " stroke="#191919" stroke-width="0.35 px" style="stroke-width:0.35;stroke-miterlimit:4;stroke-dasharray:none;fill:none;fill-opacity:1;fill-rule: evenodd"/>
<path id="Shape2DView_nwe0019"  d="M -3.601442869511 2.771442869511 L -3.6014428695110015 -2.771442869511 " stroke="#191919" stroke-width="0.35 px" style="stroke-width:0.35;stroke-miterlimit:4;stroke-dasharray:none;fill:none;fill-opacity:1;fill-rule: evenodd"/>
<path id="Shape2DView_nwe0020"  d="M -3.601442869511 -2.771442869511 L -3.001442869511 -2.771442869511 " stroke="#191919" stroke-width="0.35 px" style="stroke-width:0.35;stroke-miterlimit:4;stroke-dasharray:none;fill:none;fill-opacity:1;fill-rule: evenodd"/>
<path id="Shape2DView_nwe0021"  d="M -3.001442869511 -2.771442869511 L -3.0014428695109987 2.771442869511 " stroke="#191919" stroke-width="0.35 px" style="stroke-width:0.35;stroke-miterlimit:4;stroke-dasharray:none;fill:none;fill-opacity:1;fill-rule: evenodd"/>
<path id="Shape2DView_nwe0022"  d="M -4.0 1.5 L -3.99907779078434 1.5 L -3.996322760453326 1.5 L -3.9917695551118753 1.5 L -3.9854754339589884 1.5 L -3.9775195492200974 1.5 L -3.968001950761905 1.5 L -3.9570423279072626 1.5 L -3.944778504272489 1.5 L -3.9313647045554267 1.5 L -3.9169696150703865 1.5 L -3.901774262419868 1.5 L -3.8859697369800004 1.5 L -3.869754789828189 1.5 L -3.853333333333 1.5 " stroke="#191919" stroke-width="0.35 px" style="stroke-width:0.35;stroke-miterlimit:4;stroke-dasharray:none;fill:none;fill-opacity:1;fill-rule: evenodd"/>
<path id="Shape2DView_nwe0023"  d="M -3.853333333333 1.5 L -3.78 1.5 " stroke="#191919" stroke-width="0.35 px" style="stroke-width:0.35;stroke-miterlimit:4;stroke-dasharray:none;fill:none;fill-opacity:1;fill-rule: evenodd"/>
<path id="Shape2DView_nwe0024"  d="M -3.78 -1.5 L -3.853333333333 -1.5 " stroke="#191919" stroke-width="0.35 px" style="stroke-width:0.35;stroke-miterlimit:4;stroke-dasharray:none;fill:none;fill-opacity:1;fill-rule: evenodd"/>
<path id="Shape2DView_nwe0025"  d="M -4.0 -1.5 L -3.99907779078434 -1.5 L -3.996322760453326 -1.5 L -3.9917695551118753 -1.5 L -3.9854754339589884 -1.5 L -3.9775195492200974 -1.5 L -3.968001950761905 -1.5 L -3.9570423279072626 -1.5 L -3.944778504272489 -1.5 L -3.9313647045554267 -1.5 L -3.9169696150703865 -1.5 L -3.901774262419868 -1.5 L -3.8859697369800004 -1.5 L -3.869754789828189 -1.5 L -3.853333333333 -1.5 " stroke="#191919" stroke-width="0.35 px" style="stroke-width:0.35;stroke-miterlimit:4;stroke-dasharray:none;fill:none;fill-opacity:1;fill-rule: evenodd"/>
<path id="Shape2DView_nwe0026"  d="M -4.0 -1.5 L -3.9999999999999996 1.5 " stroke="#191919" stroke-width="0.35 px" style="stroke-width:0.35;stroke-miterlimit:4;stroke-dasharray:none;fill:none;fill-opacity:1;fill-rule: evenodd"/>
<path id="Shape2DView_nwe0028"  d="M 3.853333333333 1.5 L 3.853333333332999 -1.5 " stroke="#191919" stroke-width="0.35 px" style="stroke-width:0.35;stroke-miterlimit:4;stroke-dasharray:none;fill:none;fill-opacity:1;fill-rule: evenodd"/>
<path id="Shape2DView_nwe0029"  d="M -3.853333333333 -1.5 L -3.8533333333329995 1.5 " stroke="#191919" stroke-width="0.35 px" style="stroke-width:0.35;stroke-miterlimit:4;stroke-dasharray:none;fill:none;fill-opacity:1;fill-rule: evenodd"/>
<title>b'Shape2DView'</title>
</g>
<g id="Rectangle" transform="translate(4.080000,3.030000) scale(1,-1)">
<rect fill="#ff0000" id="origin" width="1" height="1" x="0" y="0" />
<title>b'Rectangle'</title>
</g>
</svg>