<?xml version="1.0"?>
<!DOCTYPE svg PUBLIC "-//W3C//DTD SVG 1.1//EN" "http://www.w3.org/Graphics/SVG/1.1/DTD/svg11.dtd">
<svg width="2.04mm" height="1.6150000000000002mm" viewBox="0 0 2.04 1.6150000000000002" xmlns="http://www.w3.org/2000/svg" version="1.1">
<g id="Shape2DView" transform="translate(1.020000,1.020000) scale(1,-1)">
<path id="Shape2DView_nwe0000"  d="M 0.65 0.45 L 0.9 0.44999999999999996 " stroke="#191919" stroke-width="0.35 px" style="stroke-width:0.35;stroke-miterlimit:4;stroke-dasharray:none;fill:none;fill-opacity:1;fill-rule: evenodd"/>
<path id="Shape2DView_nwe0001"  d="M 0.65 -0.45 L 0.9 -0.45000000000000007 " stroke="#191919" stroke-width="0.35 px" style="stroke-width:0.35;stroke-miterlimit:4;stroke-dasharray:none;fill:none;fill-opacity:1;fill-rule: evenodd"/>
<path id="Shape2DView_nwe0002"  d="M 1.0 0.45 L 0.9993712209893243 0.45 L 0.9974927912181824 0.45 L 0.9943883330308367 0.45 L 0.990096886790242 0.45 L 0.9846724199228285 0.45 L 0.9781831482468031 0.45 L 0.9707106781186547 0.45 L 0.9623489801858733 0.45 L 0.9532032076515337 0.45 L 0.9433883739117559 0.45 L 0.9330279061955168 0.45 L 0.9222520933956315 0.45 L 0.9111964476103308 0.45 L 0.9 0.45 " stroke="#191919" stroke-width="0.35 px" style="stroke-width:0.35;stroke-miterlimit:4;stroke-dasharray:none;fill:none;fill-opacity:1;fill-rule: evenodd"/>
<path id="Shape2DView_nwe0003"  d="M 0.55 0.45 L 0.5506287790106758 0.45 L 0.5525072087818177 0.45 L 0.5556116669691633 0.45 L 0.559903113209758 0.45 L 0.5653275800771715 0.45 L 0.571816851753197 0.45 L 0.5792893218813453 0.45 L 0.5876510198141267 0.45 L 0.5967967923484664 0.45 L 0.6066116260882441 0.45 L 0.6169720938044833 0.45 L 0.6277479066043685 0.45 L 0.6388035523896692 0.45 L 0.65 0.45 " stroke="#191919" stroke-width="0.35 px" style="stroke-width:0.35;stroke-miterlimit:4;stroke-dasharray:none;fill:none;fill-opacity:1;fill-rule: evenodd"/>
<path id="Shape2DView_nwe0004"  d="M 0.55 0.45 L 0.5499999999999998 -0.45 " stroke="#191919" stroke-width="0.35 px" style="stroke-width:0.35;stroke-miterlimit:4;stroke-dasharray:none;fill:none;fill-opacity:1;fill-rule: evenodd"/>
<path id="Shape2DView_nwe0005"  d="M 0.55 -0.45 L 0.5506287790106758 -0.45 L 0.5525072087818177 -0.45 L 0.5556116669691633 -0.45 L 0.559903113209758 -0.45 L 0.5653275800771715 -0.45 L 0.571816851753197 -0.45 L 0.5792893218813453 -0.45 L 0.5876510198141267 -0.45 L 0.5967967923484664 -0.45 L 0.6066116260882441 -0.45 L 0.6169720938044833 -0.45 L 0.6277479066043685 -0.45 L 0.6388035523896692 -0.45 L 0.65 -0.45 " stroke="#191919" stroke-width="0.35 px" style="stroke-width:0.35;stroke-miterlimit:4;stroke-dasharray:none;fill:none;fill-opacity:1;fill-rule: evenodd"/>
<path id="Shape2DView_nwe0006"  d="M 1.0 -0.45 L 0.9993712209893243 -0.45 L 0.9974927912181824 -0.45 L 0.9943883330308367 -0.45 L 0.990096886790242 -0.45 L 0.9846724199228285 -0.45 L 0.9781831482468031 -0.45 L 0.9707106781186547 -0.45 L 0.9623489801858733 -0.45 L 0.9532032076515337 -0.45 L 0.9433883739117559 -0.45 L 0.9330279061955168 -0.45 L 0.9222520933956315 -0.45 L 0.9111964476103308 -0.45 L 0.9 -0.45 " stroke="#191919" stroke-width="0.35 px" style="stroke-width:0.35;stroke-miterlimit:4;stroke-dasharray:none;fill:none;fill-opacity:1;fill-rule: evenodd"/>
<path id="Shape2DView_nwe0007"  d="M 1.0 0.45 L 0.9999999999999998 -0.45 " stroke="#191919" stroke-width="0.35 px" style="stroke-width:0.35;stroke-miterlimit:4;stroke-dasharray:none;fill:none;fill-opacity:1;fill-rule: evenodd"/>
<path id="Shape2DView_nwe0008"  d="M 0.95 0.555 L 0.95 0.45 " stroke="#191919" stroke-width="0.35 px" style="stroke-width:0.35;stroke-miterlimit:4;stroke-dasharray:none;fill:none;fill-opacity:1;fill-rule: evenodd"/>
<path id="Shape2DView_nwe0009"  d="M -0.55 -0.45 L -0.5499999999999999 0.45 " stroke="#191919" stroke-width="0.35 px" style="stroke-width:0.35;stroke-miterlimit:4;stroke-dasharray:none;fill:none;fill-opacity:1;fill-rule: evenodd"/>
<path id="Shape2DView_nwe0010"  d="M -0.3 -0.525 L -0.3 0.5250000000000001 " stroke="#191919" stroke-width="0.35 px" style="stroke-width:0.35;stroke-miterlimit:4;stroke-dasharray:none;fill:none;fill-opacity:1;fill-rule: evenodd"/>
<path id="Shape2DView_nwe0011"  d="M -0.3 -0.525 L -0.5 -0.525 " stroke="#191919" stroke-width="0.35 px" style="stroke-width:0.35;stroke-miterlimit:4;stroke-dasharray:none;fill:none;fill-opacity:1;fill-rule: evenodd"/>
<path id="Shape2DView_nwe0012"  d="M -0.5 -0.525 L -0.5 0.5250000000000001 " stroke="#191919" stroke-width="0.35 px" style="stroke-width:0.35;stroke-miterlimit:4;stroke-dasharray:none;fill:none;fill-opacity:1;fill-rule: evenodd"/>
<path id="Shape2DView_nwe0013"  d="M -0.3 0.525 L -0.5 0.525 " stroke="#191919" stroke-width="0.35 px" style="stroke-width:0.35;stroke-miterlimit:4;stroke-dasharray:none;fill:none;fill-opacity:1;fill-rule: evenodd"/>
<path id="Shape2DView_nwe0014"  d="M 0.95 -0.45000000000000007 L 0.95 -0.555 " stroke="#191919" stroke-width="0.35 px" style="stroke-width:0.35;stroke-miterlimit:4;stroke-dasharray:none;fill:none;fill-opacity:1;fill-rule: evenodd"/>
<path id="Shape2DView_nwe0015"  d="M -1.0 -0.45 L -0.9993712209893243 -0.45 L -0.9974927912181824 -0.45 L -0.9943883330308367 -0.45 L -0.990096886790242 -0.45 L -0.9846724199228285 -0.45 L -0.9781831482468031 -0.45 L -0.9707106781186547 -0.45 L -0.9623489801858733 -0.45 L -0.9532032076515337 -0.45 L -0.9433883739117559 -0.45 L -0.9330279061955168 -0.45 L -0.9222520933956315 -0.45 L -0.9111964476103308 -0.45 L -0.9 -0.45 " stroke="#191919" stroke-width="0.35 px" style="stroke-width:0.35;stroke-miterlimit:4;stroke-dasharray:none;fill:none;fill-opacity:1;fill-rule: evenodd"/>
<path id="Shape2DView_nwe0016"  d="M -0.65 -0.45 L -0.9 -0.44999999999999996 " stroke="#191919" stroke-width="0.35 px" style="stroke-width:0.35;stroke-miterlimit:4;stroke-dasharray:none;fill:none;fill-opacity:1;fill-rule: evenodd"/>
<path id="Shape2DView_nwe0017"  d="M -0.55 -0.45 L -0.5506287790106758 -0.45 L -0.5525072087818177 -0.45 L -0.5556116669691633 -0.45 L -0.559903113209758 -0.45 L -0.5653275800771715 -0.45 L -0.571816851753197 -0.45 L -0.5792893218813453 -0.45 L -0.5876510198141267 -0.45 L -0.5967967923484664 -0.45 L -0.6066116260882441 -0.45 L -0.6169720938044833 -0.45 L -0.6277479066043685 -0.45 L -0.6388035523896692 -0.45 L -0.65 -0.45 " stroke="#191919" stroke-width="0.35 px" style="stroke-width:0.35;stroke-miterlimit:4;stroke-dasharray:none;fill:none;fill-opacity:1;fill-rule: evenodd"/>
<path id="Shape2DView_nwe0018"  d="M -1.0 0.45 L -0.9993712209893243 0.45 L -0.9974927912181824 0.45 L -0.9943883330308367 0.45 L -0.990096886790242 0.45 L -0.9846724199228285 0.45 L -0.9781831482468031 0.45 L -0.9707106781186547 0.45 L -0.9623489801858733 0.45 L -0.9532032076515337 0.45 L -0.9433883739117559 0.45 L -0.9330279061955168 0.45 L -0.9222520933956315 0.45 L -0.9111964476103308 0.45 L -0.9 0.45 " stroke="#191919" stroke-width="0.35 px" style="stroke-width:0.35;stroke-miterlimit:4;stroke-dasharray:none;fill:none;fill-opacity:1;fill-rule: evenodd"/>
<path id="Shape2DView_nwe0019"  d="M -0.65 0.45 L -0.9 0.45000000000000007 " stroke="#191919" stroke-width="0.35 px" style="stroke-width:0.35;stroke-miterlimit:4;stroke-dasharray:none;fill:none;fill-opacity:1;fill-rule: evenodd"/>
<path id="Shape2DView_nwe0020"  d="M -0.55 0.45 L -0.5506287790106758 0.45 L -0.5525072087818177 0.45 L -0.5556116669691633 0.45 L -0.559903113209758 0.45 L -0.5653275800771715 0.45 L -0.571816851753197 0.45 L -0.5792893218813453 0.45 L -0.5876510198141267 0.45 L -0.5967967923484664 0.45 L -0.6066116260882441 0.45 L -0.6169720938044833 0.45 L -0.6277479066043685 0.45 L -0.6388035523896692 0.45 L -0.65 0.45 " stroke="#191919" stroke-width="0.35 px" style="stroke-width:0.35;stroke-miterlimit:4;stroke-dasharray:none;fill:none;fill-opacity:1;fill-rule: evenodd"/>
<path id="Shape2DView_nwe0021"  d="M 0.93 0.5750000000000001 A 0.02 0.02 0 0 1 0.9500000000000001 0.555 " stroke="#191919" stroke-width="0.35 px" style="stroke-width:0.35;stroke-miterlimit:4;stroke-dasharray:none;fill:none;fill-opacity:1;fill-rule: evenodd"/>
<path id="Shape2DView_nwe0022"  d="M -0.95 -0.555 L -0.95 -0.45 " stroke="#191919" stroke-width="0.35 px" style="stroke-width:0.35;stroke-miterlimit:4;stroke-dasharray:none;fill:none;fill-opacity:1;fill-rule: evenodd"/>
<path id="Shape2DView_nwe0023"  d="M -0.93 -0.575 L 0.9299999999999999 -0.575 " stroke="#191919" stroke-width="0.35 px" style="stroke-width:0.35;stroke-miterlimit:4;stroke-dasharray:none;fill:none;fill-opacity:1;fill-rule: evenodd"/>
<path id="Shape2DView_nwe0024"  d="M -0.95 0.45000000000000007 L -0.95 0.555 " stroke="#191919" stroke-width="0.35 px" style="stroke-width:0.35;stroke-miterlimit:4;stroke-dasharray:none;fill:none;fill-opacity:1;fill-rule: evenodd"/>
<path id="Shape2DView_nwe0025"  d="M -0.93 0.575 L 0.9299999999999999 0.575 " stroke="#191919" stroke-width="0.35 px" style="stroke-width:0.35;stroke-miterlimit:4;stroke-dasharray:none;fill:none;fill-opacity:1;fill-rule: evenodd"/>
<path id="Shape2DView_nwe0026"  d="M 0.93 -0.5750000000000001 A 0.02 0.02 0 0 0 0.9500000000000001 -0.555 " stroke="#191919" stroke-width="0.35 px" style="stroke-width:0.35;stroke-miterlimit:4;stroke-dasharray:none;fill:none;fill-opacity:1;fill-rule: evenodd"/>
<path id="Shape2DView_nwe0027"  d="M -1.0 -0.45 L -0.9999999999999999 0.45 " stroke="#191919" stroke-width="0.35 px" style="stroke-width:0.35;stroke-miterlimit:4;stroke-dasharray:none;fill:none;fill-opacity:1;fill-rule: evenodd"/>
<path id="Shape2DView_nwe0028"  d="M -0.9500000000000001 -0.555 A 0.02 0.02 0 0 0 -0.93 -0.5750000000000001 " stroke="#191919" stroke-width="0.35 px" style="stroke-width:0.35;stroke-miterlimit:4;stroke-dasharray:none;fill:none;fill-opacity:1;fill-rule: evenodd"/>
<path id="Shape2DView_nwe0029"  d="M -0.9500000000000001 0.555 A 0.02 0.02 0 0 1 -0.93 0.5750000000000001 " stroke="#191919" stroke-width="0.35 px" style="stroke-width:0.35;stroke-miterlimit:4;stroke-dasharray:none;fill:none;fill-opacity:1;fill-rule: evenodd"/>
<path id="Shape2DView_nwe0030"  d="M 0.65 0.45 L 0.6499999999999998 -0.45 " stroke="#191919" stroke-width="0.35 px" style="stroke-width:0.35;stroke-miterlimit:4;stroke-dasharray:none;fill:none;fill-opacity:1;fill-rule: evenodd"/>
<path id="Shape2DView_nwe0031"  d="M 0.9 0.45 L 0.8999999999999998 -0.45 " stroke="#191919" stroke-width="0.35 px" style="stroke-width:0.35;stroke-miterlimit:4;stroke-dasharray:none;fill:none;fill-opacity:1;fill-rule: evenodd"/>
<path id="Shape2DView_nwe0032"  d="M 0.93 0.555 L 0.9322392895220663 0.555 L 0.9344504186791264 0.555 L 0.9366055812391034 0.555 L 0.9386776747823512 0.555 L 0.9406406415303068 0.555 L 0.9424697960371747 0.555 L 0.944142135623731 0.555 L 0.9456366296493607 0.555 L 0.9469344839845657 0.555 L 0.9480193773580484 0.555 L 0.9488776666061673 0.555 L 0.9494985582436365 0.555 L 0.9498742441978649 0.555 L 0.9500000000000001 0.555 " stroke="#191919" stroke-width="0.35 px" style="stroke-width:0.35;stroke-miterlimit:4;stroke-dasharray:none;fill:none;fill-opacity:1;fill-rule: evenodd"/>
<path id="Shape2DView_nwe0033"  d="M 0.93 0.555 L 0.93 0.45 " stroke="#191919" stroke-width="0.35 px" style="stroke-width:0.35;stroke-miterlimit:4;stroke-dasharray:none;fill:none;fill-opacity:1;fill-rule: evenodd"/>
<path id="Shape2DView_nwe0034"  d="M -0.93 -0.555 L -0.93 -0.45 " stroke="#191919" stroke-width="0.35 px" style="stroke-width:0.35;stroke-miterlimit:4;stroke-dasharray:none;fill:none;fill-opacity:1;fill-rule: evenodd"/>
<path id="Shape2DView_nwe0035"  d="M -0.93 -0.555 L 0.9299999999999999 -0.555 " stroke="#191919" stroke-width="0.35 px" style="stroke-width:0.35;stroke-miterlimit:4;stroke-dasharray:none;fill:none;fill-opacity:1;fill-rule: evenodd"/>
<path id="Shape2DView_nwe0036"  d="M 0.93 -0.45000000000000007 L 0.93 -0.555 " stroke="#191919" stroke-width="0.35 px" style="stroke-width:0.35;stroke-miterlimit:4;stroke-dasharray:none;fill:none;fill-opacity:1;fill-rule: evenodd"/>
<path id="Shape2DView_nwe0037"  d="M -0.93 0.555 L 0.9299999999999999 0.555 " stroke="#191919" stroke-width="0.35 px" style="stroke-width:0.35;stroke-miterlimit:4;stroke-dasharray:none;fill:none;fill-opacity:1;fill-rule: evenodd"/>
<path id="Shape2DView_nwe0038"  d="M -0.93 0.45000000000000007 L -0.93 0.555 " stroke="#191919" stroke-width="0.35 px" style="stroke-width:0.35;stroke-miterlimit:4;stroke-dasharray:none;fill:none;fill-opacity:1;fill-rule: evenodd"/>
<path id="Shape2DView_nwe0039"  d="M 0.93 -0.555 L 0.9322392895220663 -0.555 L 0.9344504186791264 -0.555 L 0.9366055812391034 -0.555 L 0.9386776747823512 -0.555 L 0.9406406415303068 -0.555 L 0.9424697960371747 -0.555 L 0.944142135623731 -0.555 L 0.9456366296493607 -0.555 L 0.9469344839845657 -0.555 L 0.9480193773580484 -0.555 L 0.9488776666061673 -0.555 L 0.9494985582436365 -0.555 L 0.9498742441978649 -0.555 L 0.9500000000000001 -0.555 " stroke="#191919" stroke-width="0.35 px" style="stroke-width:0.35;stroke-miterlimit:4;stroke-dasharray:none;fill:none;fill-opacity:1;fill-rule: evenodd"/>
<path id="Shape2DView_nwe0041"  d="M 0.93 0.5750000000000001 L 0.93 0.5748742441978649 L 0.93 0.5744985582436365 L 0.93 0.5738776666061673 L 0.93 0.5730193773580484 L 0.93 0.5719344839845657 L 0.93 0.5706366296493607 L 0.93 0.569142135623731 L 0.93 0.5674697960371747 L 0.93 0.5656406415303068 L 0.93 0.5636776747823512 L 0.93 0.5616055812391034 L 0.93 0.5594504186791264 L 0.93 0.5572392895220663 L 0.93 0.555 " stroke="#191919" stroke-width="0.35 px" style="stroke-width:0.35;stroke-miterlimit:4;stroke-dasharray:none;fill:none;fill-opacity:1;fill-rule: evenodd"/>
<path id="Shape2DView_nwe0042"  d="M -0.9500000000000001 -0.555 L -0.9498742441978649 -0.555 L -0.9494985582436365 -0.555 L -0.9488776666061673 -0.555 L -0.9480193773580484 -0.555 L -0.9469344839845657 -0.555 L -0.9456366296493607 -0.555 L -0.944142135623731 -0.555 L -0.9424697960371747 -0.555 L -0.9406406415303068 -0.555 L -0.9386776747823512 -0.555 L -0.9366055812391034 -0.555 L -0.9344504186791264 -0.555 L -0.9322392895220663 -0.555 L -0.93 -0.555 " stroke="#191919" stroke-width="0.35 px" style="stroke-width:0.35;stroke-miterlimit:4;stroke-dasharray:none;fill:none;fill-opacity:1;fill-rule: evenodd"/>
<path id="Shape2DView_nwe0043"  d="M 0.93 -0.555 L 0.93 -0.5572392895220663 L 0.93 -0.5594504186791264 L 0.93 -0.5616055812391034 L 0.93 -0.5636776747823512 L 0.93 -0.5656406415303068 L 0.93 -0.5674697960371747 L 0.93 -0.569142135623731 L 0.93 -0.5706366296493607 L 0.93 -0.5719344839845657 L 0.93 -0.5730193773580484 L 0.93 -0.5738776666061673 L 0.93 -0.5744985582436365 L 0.93 -0.5748742441978649 L 0.93 -0.5750000000000001 " stroke="#191919" stroke-width="0.35 px" style="stroke-width:0.35;stroke-miterlimit:4;stroke-dasharray:none;fill:none;fill-opacity:1;fill-rule: evenodd"/>
<path id="Shape2DView_nwe0044"  d="M -0.93 -0.5750000000000001 L -0.93 -0.5748742441978649 L -0.93 -0.5744985582436365 L -0.93 -0.5738776666061673 L -0.93 -0.5730193773580484 L -0.93 -0.5719344839845657 L -0.93 -0.5706366296493607 L -0.93 -0.569142135623731 L -0.93 -0.5674697960371747 L -0.93 -0.5656406415303068 L -0.93 -0.5636776747823512 L -0.93 -0.5616055812391034 L -0.93 -0.5594504186791264 L -0.93 -0.5572392895220663 L -0.93 -0.555 " stroke="#191919" stroke-width="0.35 px" style="stroke-width:0.35;stroke-miterlimit:4;stroke-dasharray:none;fill:none;fill-opacity:1;fill-rule: evenodd"/>
<path id="Shape2DView_nwe0045"  d="M -0.65 -0.45 L -0.6499999999999999 0.45 " stroke="#191919" stroke-width="0.35 px" style="stroke-width:0.35;stroke-miterlimit:4;stroke-dasharray:none;fill:none;fill-opacity:1;fill-rule: evenodd"/>
<path id="Shape2DView_nwe0046"  d="M -0.9500000000000001 0.555 L -0.9498742441978649 0.555 L -0.9494985582436365 0.555 L -0.9488776666061673 0.555 L -0.9480193773580484 0.555 L -0.9469344839845657 0.555 L -0.9456366296493607 0.555 L -0.944142135623731 0.555 L -0.9424697960371747 0.555 L -0.9406406415303068 0.555 L -0.9386776747823512 0.555 L -0.9366055812391034 0.555 L -0.9344504186791264 0.555 L -0.9322392895220663 0.555 L -0.93 0.555 " stroke="#191919" stroke-width="0.35 px" style="stroke-width:0.35;stroke-miterlimit:4;stroke-dasharray:none;fill:none;fill-opacity:1;fill-rule: evenodd"/>
<path id="Shape2DView_nwe0047"  d="M -0.93 0.555 L -0.93 0.5572392895220663 L -0.93 0.5594504186791264 L -0.93 0.5616055812391034 L -0.93 0.5636776747823512 L -0.93 0.5656406415303068 L -0.93 0.5674697960371747 L -0.93 0.569142135623731 L -0.93 0.5706366296493607 L -0.93 0.5719344839845657 L -0.93 0.5730193773580484 L -0.93 0.5738776666061673 L -0.93 0.5744985582436365 L -0.93 0.5748742441978649 L -0.93 0.5750000000000001 " stroke="#191919" stroke-width="0.35 px" style="stroke-width:0.35;stroke-miterlimit:4;stroke-dasharray:none;fill:none;fill-opacity:1;fill-rule: evenodd"/>
<path id="Shape2DView_nwe0049"  d="M -0.9 -0.45 L -0.8999999999999999 0.45 " stroke="#191919" stroke-width="0.35 px" style="stroke-width:0.35;stroke-miterlimit:4;stroke-dasharray:none;fill:none;fill-opacity:1;fill-rule: evenodd"/>
<title>b'Shape2DView'</title>
</g>
<g id="Rectangle" transform="translate(1.020000,1.020000) scale(1,-1)">
<rect fill="#ff0000" id="origin" width="1" height="1" x="0" y="0" />
<title>b'Rectangle'</title>
</g>
</svg>