<?xml version="1.0"?>
<!DOCTYPE svg PUBLIC "-//W3C//DTD SVG 1.1//EN" "http://www.w3.org/Graphics/SVG/1.1/DTD/svg11.dtd">
<svg width="7.14mm" height="3.740000000000002mm" viewBox="0 0 7.14 3.740000000000002" xmlns="http://www.w3.org/2000/svg" version="1.1">
<g id="Shape2DView" transform="translate(3.570000,1.870000) scale(1,-1)">
<path id="Shape2DView_nwe0000"  d="M 3.5 1.47 L 2.7 1.4699999999999998 " stroke="#191919" stroke-width="0.35 px" style="stroke-width:0.35;stroke-miterlimit:4;stroke-dasharray:none;fill:none;fill-opacity:1;fill-rule: evenodd"/>
<path id="Shape2DView_nwe0001"  d="M 2.7 1.47 L 2.6944017761948347 1.47 L 2.6888739533021844 1.47 L 2.683486046902242 1.47 L 2.678305813044122 1.47 L 2.673398396174233 1.47 L 2.6688255099070637 1.47 L 2.664644660940673 1.47 L 2.6609084258765985 1.47 L 2.657663790038586 1.47 L 2.654951556604879 1.47 L 2.6528058334845817 1.47 L 2.651253604390909 1.47 L 2.650314389505338 1.47 L 2.6500000000000004 1.47 " stroke="#191919" stroke-width="0.35 px" style="stroke-width:0.35;stroke-miterlimit:4;stroke-dasharray:none;fill:none;fill-opacity:1;fill-rule: evenodd"/>
<path id="Shape2DView_nwe0002"  d="M 2.6500000000000004 1.47 L 2.6487424419786487 1.47 L 2.644985582436365 1.47 L 2.6387766660616734 1.47 L 2.630193773580484 1.47 L 2.619344839845657 1.47 L 2.606366296493606 1.47 L 2.5914213562373094 1.47 L 2.5746979603717466 1.47 L 2.5564064153030674 1.47 L 2.5367767478235117 1.47 L 2.5160558123910337 1.47 L 2.494504186791263 1.47 L 2.4723928952206617 1.47 L 2.45 1.47 " stroke="#191919" stroke-width="0.35 px" style="stroke-width:0.35;stroke-miterlimit:4;stroke-dasharray:none;fill:none;fill-opacity:1;fill-rule: evenodd"/>
<path id="Shape2DView_nwe0003"  d="M 2.45 1.47 L 2.2 1.47 " stroke="#191919" stroke-width="0.35 px" style="stroke-width:0.35;stroke-miterlimit:4;stroke-dasharray:none;fill:none;fill-opacity:1;fill-rule: evenodd"/>
<path id="Shape2DView_nwe0004"  d="M 3.5 1.07 L 2.7 1.0699999999999998 " stroke="#191919" stroke-width="0.35 px" style="stroke-width:0.35;stroke-miterlimit:4;stroke-dasharray:none;fill:none;fill-opacity:1;fill-rule: evenodd"/>
<path id="Shape2DView_nwe0005"  d="M 2.7 1.07 L 2.6944017761948347 1.07 L 2.6888739533021844 1.07 L 2.683486046902242 1.07 L 2.678305813044122 1.07 L 2.673398396174233 1.07 L 2.6688255099070637 1.07 L 2.664644660940673 1.07 L 2.6609084258765985 1.07 L 2.657663790038586 1.07 L 2.654951556604879 1.07 L 2.6528058334845817 1.07 L 2.651253604390909 1.07 L 2.650314389505338 1.07 L 2.6500000000000004 1.07 " stroke="#191919" stroke-width="0.35 px" style="stroke-width:0.35;stroke-miterlimit:4;stroke-dasharray:none;fill:none;fill-opacity:1;fill-rule: evenodd"/>
<path id="Shape2DView_nwe0006"  d="M 2.6500000000000004 1.07 L 2.6487424419786487 1.07 L 2.644985582436365 1.07 L 2.6387766660616734 1.07 L 2.630193773580484 1.07 L 2.619344839845657 1.07 L 2.606366296493606 1.07 L 2.5914213562373094 1.07 L 2.5746979603717466 1.07 L 2.5564064153030674 1.07 L 2.5367767478235117 1.07 L 2.5160558123910337 1.07 L 2.494504186791263 1.07 L 2.4723928952206617 1.07 L 2.45 1.07 " stroke="#191919" stroke-width="0.35 px" style="stroke-width:0.35;stroke-miterlimit:4;stroke-dasharray:none;fill:none;fill-opacity:1;fill-rule: evenodd"/>
<path id="Shape2DView_nwe0007"  d="M 2.45 1.07 L 2.2 1.07 " stroke="#191919" stroke-width="0.35 px" style="stroke-width:0.35;stroke-miterlimit:4;stroke-dasharray:none;fill:none;fill-opacity:1;fill-rule: evenodd"/>
<path id="Shape2DView_nwe0008"  d="M 2.2 1.625 L 2.2 1.47 " stroke="#191919" stroke-width="0.35 px" style="stroke-width:0.35;stroke-miterlimit:4;stroke-dasharray:none;fill:none;fill-opacity:1;fill-rule: evenodd"/>
<path id="Shape2DView_nwe0009"  d="M 2.125 1.47 L 2.125 1.07 " stroke="#191919" stroke-width="0.35 px" style="stroke-width:0.35;stroke-miterlimit:4;stroke-dasharray:none;fill:none;fill-opacity:1;fill-rule: evenodd"/>
<path id="Shape2DView_nwe0010"  d="M 2.65 1.47 L 2.65 1.07 " stroke="#191919" stroke-width="0.35 px" style="stroke-width:0.35;stroke-miterlimit:4;stroke-dasharray:none;fill:none;fill-opacity:1;fill-rule: evenodd"/>
<path id="Shape2DView_nwe0011"  d="M 3.5 1.47 L 3.5 1.07 " stroke="#191919" stroke-width="0.35 px" style="stroke-width:0.35;stroke-miterlimit:4;stroke-dasharray:none;fill:none;fill-opacity:1;fill-rule: evenodd"/>
<path id="Shape2DView_nwe0012"  d="M 2.2 1.07 L 2.2000000000000006 -1.0700000000000003 " stroke="#191919" stroke-width="0.35 px" style="stroke-width:0.35;stroke-miterlimit:4;stroke-dasharray:none;fill:none;fill-opacity:1;fill-rule: evenodd"/>
<path id="Shape2DView_nwe0013"  d="M 2.200000000000001 -1.4699999999999998 L 2.200000000000001 -1.625 " stroke="#191919" stroke-width="0.35 px" style="stroke-width:0.35;stroke-miterlimit:4;stroke-dasharray:none;fill:none;fill-opacity:1;fill-rule: evenodd"/>
<path id="Shape2DView_nwe0014"  d="M 2.025 1.8 L 2.2 1.6249999999999998 " stroke="#191919" stroke-width="0.35 px" style="stroke-width:0.35;stroke-miterlimit:4;stroke-dasharray:none;fill:none;fill-opacity:1;fill-rule: evenodd"/>
<path id="Shape2DView_nwe0015"  d="M 2.2 1.625 L 2.125 1.5875 " stroke="#191919" stroke-width="0.35 px" style="stroke-width:0.35;stroke-miterlimit:4;stroke-dasharray:none;fill:none;fill-opacity:1;fill-rule: evenodd"/>
<path id="Shape2DView_nwe0016"  d="M 2.125 1.5875 L 2.125 1.47 " stroke="#191919" stroke-width="0.35 px" style="stroke-width:0.35;stroke-miterlimit:4;stroke-dasharray:none;fill:none;fill-opacity:1;fill-rule: evenodd"/>
<path id="Shape2DView_nwe0017"  d="M 2.125 1.07 L 2.1250000000000004 -1.0699999999999998 " stroke="#191919" stroke-width="0.35 px" style="stroke-width:0.35;stroke-miterlimit:4;stroke-dasharray:none;fill:none;fill-opacity:1;fill-rule: evenodd"/>
<path id="Shape2DView_nwe0018"  d="M 2.1250000000000004 -1.0699999999999998 L 2.125000000000001 -1.4700000000000002 " stroke="#191919" stroke-width="0.35 px" style="stroke-width:0.35;stroke-miterlimit:4;stroke-dasharray:none;fill:none;fill-opacity:1;fill-rule: evenodd"/>
<path id="Shape2DView_nwe0019"  d="M 2.125000000000001 -1.4700000000000002 L 2.125000000000001 -1.5875 " stroke="#191919" stroke-width="0.35 px" style="stroke-width:0.35;stroke-miterlimit:4;stroke-dasharray:none;fill:none;fill-opacity:1;fill-rule: evenodd"/>
<path id="Shape2DView_nwe0020"  d="M 2.125 -1.5875 L 1.875246040038 -1.462623020019 " stroke="#191919" stroke-width="0.35 px" style="stroke-width:0.35;stroke-miterlimit:4;stroke-dasharray:none;fill:none;fill-opacity:1;fill-rule: evenodd"/>
<path id="Shape2DView_nwe0021"  d="M 1.875246040038 1.462623020019 L 1.8752460400380007 -1.462623020019 " stroke="#191919" stroke-width="0.35 px" style="stroke-width:0.35;stroke-miterlimit:4;stroke-dasharray:none;fill:none;fill-opacity:1;fill-rule: evenodd"/>
<path id="Shape2DView_nwe0022"  d="M 2.125 1.5875 L 1.875246040038 1.462623020019 " stroke="#191919" stroke-width="0.35 px" style="stroke-width:0.35;stroke-miterlimit:4;stroke-dasharray:none;fill:none;fill-opacity:1;fill-rule: evenodd"/>
<path id="Shape2DView_nwe0023"  d="M 3.5 -1.07 L 2.7 -1.0700000000000003 " stroke="#191919" stroke-width="0.35 px" style="stroke-width:0.35;stroke-miterlimit:4;stroke-dasharray:none;fill:none;fill-opacity:1;fill-rule: evenodd"/>
<path id="Shape2DView_nwe0024"  d="M 2.7 -1.07 L 2.6944017761948347 -1.07 L 2.6888739533021844 -1.07 L 2.683486046902242 -1.07 L 2.678305813044122 -1.07 L 2.673398396174233 -1.07 L 2.6688255099070637 -1.07 L 2.664644660940673 -1.07 L 2.6609084258765985 -1.07 L 2.657663790038586 -1.07 L 2.654951556604879 -1.07 L 2.6528058334845817 -1.07 L 2.651253604390909 -1.07 L 2.650314389505338 -1.07 L 2.6500000000000004 -1.07 " stroke="#191919" stroke-width="0.35 px" style="stroke-width:0.35;stroke-miterlimit:4;stroke-dasharray:none;fill:none;fill-opacity:1;fill-rule: evenodd"/>
<path id="Shape2DView_nwe0025"  d="M 2.6500000000000004 -1.07 L 2.6487424419786487 -1.07 L 2.644985582436365 -1.07 L 2.6387766660616734 -1.07 L 2.630193773580484 -1.07 L 2.619344839845657 -1.07 L 2.606366296493606 -1.07 L 2.5914213562373094 -1.07 L 2.5746979603717466 -1.07 L 2.5564064153030674 -1.07 L 2.5367767478235117 -1.07 L 2.5160558123910337 -1.07 L 2.494504186791263 -1.07 L 2.4723928952206617 -1.07 L 2.45 -1.07 " stroke="#191919" stroke-width="0.35 px" style="stroke-width:0.35;stroke-miterlimit:4;stroke-dasharray:none;fill:none;fill-opacity:1;fill-rule: evenodd"/>
<path id="Shape2DView_nwe0026"  d="M 2.45 -1.07 L 2.2 -1.07 " stroke="#191919" stroke-width="0.35 px" style="stroke-width:0.35;stroke-miterlimit:4;stroke-dasharray:none;fill:none;fill-opacity:1;fill-rule: evenodd"/>
<path id="Shape2DView_nwe0027"  d="M 2.2 -1.625 L 2.025 -1.8000000000000003 " stroke="#191919" stroke-width="0.35 px" style="stroke-width:0.35;stroke-miterlimit:4;stroke-dasharray:none;fill:none;fill-opacity:1;fill-rule: evenodd"/>
<path id="Shape2DView_nwe0028"  d="M 3.5 -1.47 L 2.7 -1.4700000000000002 " stroke="#191919" stroke-width="0.35 px" style="stroke-width:0.35;stroke-miterlimit:4;stroke-dasharray:none;fill:none;fill-opacity:1;fill-rule: evenodd"/>
<path id="Shape2DView_nwe0029"  d="M 2.7 -1.47 L 2.6944017761948347 -1.47 L 2.6888739533021844 -1.47 L 2.683486046902242 -1.47 L 2.678305813044122 -1.47 L 2.673398396174233 -1.47 L 2.6688255099070637 -1.47 L 2.664644660940673 -1.47 L 2.6609084258765985 -1.47 L 2.657663790038586 -1.47 L 2.654951556604879 -1.47 L 2.6528058334845817 -1.47 L 2.651253604390909 -1.47 L 2.650314389505338 -1.47 L 2.6500000000000004 -1.47 " stroke="#191919" stroke-width="0.35 px" style="stroke-width:0.35;stroke-miterlimit:4;stroke-dasharray:none;fill:none;fill-opacity:1;fill-rule: evenodd"/>
<path id="Shape2DView_nwe0030"  d="M 2.6500000000000004 -1.47 L 2.6487424419786487 -1.47 L 2.644985582436365 -1.47 L 2.6387766660616734 -1.47 L 2.630193773580484 -1.47 L 2.619344839845657 -1.47 L 2.606366296493606 -1.47 L 2.5914213562373094 -1.47 L 2.5746979603717466 -1.47 L 2.5564064153030674 -1.47 L 2.5367767478235117 -1.47 L 2.5160558123910337 -1.47 L 2.494504186791263 -1.47 L 2.4723928952206617 -1.47 L 2.45 -1.47 " stroke="#191919" stroke-width="0.35 px" style="stroke-width:0.35;stroke-miterlimit:4;stroke-dasharray:none;fill:none;fill-opacity:1;fill-rule: evenodd"/>
<path id="Shape2DView_nwe0031"  d="M 2.45 -1.47 L 2.2 -1.47 " stroke="#191919" stroke-width="0.35 px" style="stroke-width:0.35;stroke-miterlimit:4;stroke-dasharray:none;fill:none;fill-opacity:1;fill-rule: evenodd"/>
<path id="Shape2DView_nwe0032"  d="M 2.2 -1.625 L 2.125 -1.5875 " stroke="#191919" stroke-width="0.35 px" style="stroke-width:0.35;stroke-miterlimit:4;stroke-dasharray:none;fill:none;fill-opacity:1;fill-rule: evenodd"/>
<path id="Shape2DView_nwe0033"  d="M 1.9875 1.725 L 2.125 1.5875 " stroke="#191919" stroke-width="0.35 px" style="stroke-width:0.35;stroke-miterlimit:4;stroke-dasharray:none;fill:none;fill-opacity:1;fill-rule: evenodd"/>
<path id="Shape2DView_nwe0034"  d="M 2.025 1.8 L 1.9875 1.725 " stroke="#191919" stroke-width="0.35 px" style="stroke-width:0.35;stroke-miterlimit:4;stroke-dasharray:none;fill:none;fill-opacity:1;fill-rule: evenodd"/>
<path id="Shape2DView_nwe0035"  d="M -2.025 1.8 L 2.025 1.800000000000001 " stroke="#191919" stroke-width="0.35 px" style="stroke-width:0.35;stroke-miterlimit:4;stroke-dasharray:none;fill:none;fill-opacity:1;fill-rule: evenodd"/>
<path id="Shape2DView_nwe0036"  d="M 1.862623020019 1.475246040038 L 1.875246040038 1.462623020019 " stroke="#191919" stroke-width="0.35 px" style="stroke-width:0.35;stroke-miterlimit:4;stroke-dasharray:none;fill:none;fill-opacity:1;fill-rule: evenodd"/>
<path id="Shape2DView_nwe0037"  d="M 1.9875 1.725 L 1.862623020019 1.475246040038 " stroke="#191919" stroke-width="0.35 px" style="stroke-width:0.35;stroke-miterlimit:4;stroke-dasharray:none;fill:none;fill-opacity:1;fill-rule: evenodd"/>
<path id="Shape2DView_nwe0038"  d="M -1.862623020019 1.475246040038 L 1.862623020019 1.475246040038001 " stroke="#191919" stroke-width="0.35 px" style="stroke-width:0.35;stroke-miterlimit:4;stroke-dasharray:none;fill:none;fill-opacity:1;fill-rule: evenodd"/>
<path id="Shape2DView_nwe0039"  d="M 1.875246040038 -1.462623020019 L 1.862623020019 -1.475246040038 " stroke="#191919" stroke-width="0.35 px" style="stroke-width:0.35;stroke-miterlimit:4;stroke-dasharray:none;fill:none;fill-opacity:1;fill-rule: evenodd"/>
<path id="Shape2DView_nwe0040"  d="M 1.862623020019 -1.475246040038 L -1.862623020019 -1.475246040038001 " stroke="#191919" stroke-width="0.35 px" style="stroke-width:0.35;stroke-miterlimit:4;stroke-dasharray:none;fill:none;fill-opacity:1;fill-rule: evenodd"/>
<path id="Shape2DView_nwe0041"  d="M -1.862623020019 -1.475246040038 L -1.875246040038 -1.462623020019 " stroke="#191919" stroke-width="0.35 px" style="stroke-width:0.35;stroke-miterlimit:4;stroke-dasharray:none;fill:none;fill-opacity:1;fill-rule: evenodd"/>
<path id="Shape2DView_nwe0042"  d="M -1.875246040038 -1.462623020019 L -1.8752460400380007 1.462623020019 " stroke="#191919" stroke-width="0.35 px" style="stroke-width:0.35;stroke-miterlimit:4;stroke-dasharray:none;fill:none;fill-opacity:1;fill-rule: evenodd"/>
<path id="Shape2DView_nwe0043"  d="M -1.875246040038 1.462623020019 L -1.862623020019 1.475246040038 " stroke="#191919" stroke-width="0.35 px" style="stroke-width:0.35;stroke-miterlimit:4;stroke-dasharray:none;fill:none;fill-opacity:1;fill-rule: evenodd"/>
<circle cx="-1.225246040038" cy="0.825246040038" r="0.25" stroke="#191919" stroke-width="0.35 px" style="stroke-width:0.35;stroke-miterlimit:4;stroke-dasharray:none;fill:none"/>
<path id="Shape2DView_nwe0045"  d="M 2.125 -1.5875 L 1.9874999999999998 -1.725 " stroke="#191919" stroke-width="0.35 px" style="stroke-width:0.35;stroke-miterlimit:4;stroke-dasharray:none;fill:none;fill-opacity:1;fill-rule: evenodd"/>
<path id="Shape2DView_nwe0046"  d="M 1.9875 -1.725 L 1.862623020019 -1.475246040038 " stroke="#191919" stroke-width="0.35 px" style="stroke-width:0.35;stroke-miterlimit:4;stroke-dasharray:none;fill:none;fill-opacity:1;fill-rule: evenodd"/>
<path id="Shape2DView_nwe0047"  d="M 2.65 -1.07 L 2.65 -1.47 " stroke="#191919" stroke-width="0.35 px" style="stroke-width:0.35;stroke-miterlimit:4;stroke-dasharray:none;fill:none;fill-opacity:1;fill-rule: evenodd"/>
<path id="Shape2DView_nwe0048"  d="M 3.5 -1.07 L 3.5 -1.47 " stroke="#191919" stroke-width="0.35 px" style="stroke-width:0.35;stroke-miterlimit:4;stroke-dasharray:none;fill:none;fill-opacity:1;fill-rule: evenodd"/>
<path id="Shape2DView_nwe0049"  d="M 2.025 -1.8 L -2.025 -1.800000000000001 " stroke="#191919" stroke-width="0.35 px" style="stroke-width:0.35;stroke-miterlimit:4;stroke-dasharray:none;fill:none;fill-opacity:1;fill-rule: evenodd"/>
<path id="Shape2DView_nwe0050"  d="M -2.025 -1.8 L -2.2 -1.6249999999999998 " stroke="#191919" stroke-width="0.35 px" style="stroke-width:0.35;stroke-miterlimit:4;stroke-dasharray:none;fill:none;fill-opacity:1;fill-rule: evenodd"/>
<path id="Shape2DView_nwe0051"  d="M -2.2 -1.625 L -2.2 -1.47 " stroke="#191919" stroke-width="0.35 px" style="stroke-width:0.35;stroke-miterlimit:4;stroke-dasharray:none;fill:none;fill-opacity:1;fill-rule: evenodd"/>
<path id="Shape2DView_nwe0052"  d="M -2.200000000000001 1.4699999999999998 L -2.200000000000001 1.625 " stroke="#191919" stroke-width="0.35 px" style="stroke-width:0.35;stroke-miterlimit:4;stroke-dasharray:none;fill:none;fill-opacity:1;fill-rule: evenodd"/>
<path id="Shape2DView_nwe0053"  d="M -2.2 -1.07 L -2.2000000000000006 1.0700000000000003 " stroke="#191919" stroke-width="0.35 px" style="stroke-width:0.35;stroke-miterlimit:4;stroke-dasharray:none;fill:none;fill-opacity:1;fill-rule: evenodd"/>
<path id="Shape2DView_nwe0054"  d="M -2.2 1.625 L -2.025 1.8000000000000003 " stroke="#191919" stroke-width="0.35 px" style="stroke-width:0.35;stroke-miterlimit:4;stroke-dasharray:none;fill:none;fill-opacity:1;fill-rule: evenodd"/>
<path id="Shape2DView_nwe0055"  d="M 2.025 -1.8 L 1.9875 -1.725 " stroke="#191919" stroke-width="0.35 px" style="stroke-width:0.35;stroke-miterlimit:4;stroke-dasharray:none;fill:none;fill-opacity:1;fill-rule: evenodd"/>
<path id="Shape2DView_nwe0056"  d="M -1.9875 1.725 L 1.9875 1.725000000000001 " stroke="#191919" stroke-width="0.35 px" style="stroke-width:0.35;stroke-miterlimit:4;stroke-dasharray:none;fill:none;fill-opacity:1;fill-rule: evenodd"/>
<path id="Shape2DView_nwe0057"  d="M -2.025 1.8 L -1.9875 1.725 " stroke="#191919" stroke-width="0.35 px" style="stroke-width:0.35;stroke-miterlimit:4;stroke-dasharray:none;fill:none;fill-opacity:1;fill-rule: evenodd"/>
<path id="Shape2DView_nwe0058"  d="M -1.9875 1.725 L -1.862623020019 1.475246040038 " stroke="#191919" stroke-width="0.35 px" style="stroke-width:0.35;stroke-miterlimit:4;stroke-dasharray:none;fill:none;fill-opacity:1;fill-rule: evenodd"/>
<path id="Shape2DView_nwe0059"  d="M -2.125 1.5875 L -1.9874999999999998 1.725 " stroke="#191919" stroke-width="0.35 px" style="stroke-width:0.35;stroke-miterlimit:4;stroke-dasharray:none;fill:none;fill-opacity:1;fill-rule: evenodd"/>
<path id="Shape2DView_nwe0060"  d="M -2.125 1.5875 L -1.875246040038 1.462623020019 " stroke="#191919" stroke-width="0.35 px" style="stroke-width:0.35;stroke-miterlimit:4;stroke-dasharray:none;fill:none;fill-opacity:1;fill-rule: evenodd"/>
<path id="Shape2DView_nwe0061"  d="M -2.125 -1.5875 L -2.125 -1.47 " stroke="#191919" stroke-width="0.35 px" style="stroke-width:0.35;stroke-miterlimit:4;stroke-dasharray:none;fill:none;fill-opacity:1;fill-rule: evenodd"/>
<path id="Shape2DView_nwe0062"  d="M -2.125 -1.47 L -2.125 -1.07 " stroke="#191919" stroke-width="0.35 px" style="stroke-width:0.35;stroke-miterlimit:4;stroke-dasharray:none;fill:none;fill-opacity:1;fill-rule: evenodd"/>
<path id="Shape2DView_nwe0063"  d="M -2.125 -1.07 L -2.1250000000000004 1.0699999999999998 " stroke="#191919" stroke-width="0.35 px" style="stroke-width:0.35;stroke-miterlimit:4;stroke-dasharray:none;fill:none;fill-opacity:1;fill-rule: evenodd"/>
<path id="Shape2DView_nwe0064"  d="M -2.1250000000000004 1.0699999999999998 L -2.125000000000001 1.4700000000000002 " stroke="#191919" stroke-width="0.35 px" style="stroke-width:0.35;stroke-miterlimit:4;stroke-dasharray:none;fill:none;fill-opacity:1;fill-rule: evenodd"/>
<path id="Shape2DView_nwe0065"  d="M -2.125000000000001 1.4700000000000002 L -2.125000000000001 1.5875 " stroke="#191919" stroke-width="0.35 px" style="stroke-width:0.35;stroke-miterlimit:4;stroke-dasharray:none;fill:none;fill-opacity:1;fill-rule: evenodd"/>
<path id="Shape2DView_nwe0066"  d="M -2.125 -1.5875 L -1.875246040038 -1.462623020019 " stroke="#191919" stroke-width="0.35 px" style="stroke-width:0.35;stroke-miterlimit:4;stroke-dasharray:none;fill:none;fill-opacity:1;fill-rule: evenodd"/>
<path id="Shape2DView_nwe0067"  d="M -1.9875 -1.725 L -2.125 -1.5875 " stroke="#191919" stroke-width="0.35 px" style="stroke-width:0.35;stroke-miterlimit:4;stroke-dasharray:none;fill:none;fill-opacity:1;fill-rule: evenodd"/>
<path id="Shape2DView_nwe0068"  d="M -1.9875 -1.725 L -1.862623020019 -1.475246040038 " stroke="#191919" stroke-width="0.35 px" style="stroke-width:0.35;stroke-miterlimit:4;stroke-dasharray:none;fill:none;fill-opacity:1;fill-rule: evenodd"/>
<path id="Shape2DView_nwe0069"  d="M 1.9875 -1.725 L -1.9875 -1.725000000000001 " stroke="#191919" stroke-width="0.35 px" style="stroke-width:0.35;stroke-miterlimit:4;stroke-dasharray:none;fill:none;fill-opacity:1;fill-rule: evenodd"/>
<path id="Shape2DView_nwe0070"  d="M -2.025 -1.8 L -1.9875 -1.725 " stroke="#191919" stroke-width="0.35 px" style="stroke-width:0.35;stroke-miterlimit:4;stroke-dasharray:none;fill:none;fill-opacity:1;fill-rule: evenodd"/>
<path id="Shape2DView_nwe0071"  d="M -2.2 -1.625 L -2.125 -1.5875 " stroke="#191919" stroke-width="0.35 px" style="stroke-width:0.35;stroke-miterlimit:4;stroke-dasharray:none;fill:none;fill-opacity:1;fill-rule: evenodd"/>
<path id="Shape2DView_nwe0072"  d="M -3.5 -1.47 L -2.7 -1.47 " stroke="#191919" stroke-width="0.35 px" style="stroke-width:0.35;stroke-miterlimit:4;stroke-dasharray:none;fill:none;fill-opacity:1;fill-rule: evenodd"/>
<path id="Shape2DView_nwe0073"  d="M -2.7 -1.47 L -2.6944017761948347 -1.47 L -2.6888739533021844 -1.47 L -2.683486046902242 -1.47 L -2.678305813044122 -1.47 L -2.673398396174233 -1.47 L -2.6688255099070637 -1.47 L -2.664644660940673 -1.47 L -2.6609084258765985 -1.47 L -2.657663790038586 -1.47 L -2.654951556604879 -1.47 L -2.6528058334845817 -1.47 L -2.651253604390909 -1.47 L -2.650314389505338 -1.47 L -2.6500000000000004 -1.47 " stroke="#191919" stroke-width="0.35 px" style="stroke-width:0.35;stroke-miterlimit:4;stroke-dasharray:none;fill:none;fill-opacity:1;fill-rule: evenodd"/>
<path id="Shape2DView_nwe0074"  d="M -2.6500000000000004 -1.47 L -2.6487424419786487 -1.47 L -2.644985582436365 -1.47 L -2.6387766660616734 -1.47 L -2.630193773580484 -1.47 L -2.619344839845657 -1.47 L -2.606366296493606 -1.47 L -2.5914213562373094 -1.47 L -2.5746979603717466 -1.47 L -2.5564064153030674 -1.47 L -2.5367767478235117 -1.47 L -2.5160558123910337 -1.47 L -2.494504186791263 -1.47 L -2.4723928952206617 -1.47 L -2.45 -1.47 " stroke="#191919" stroke-width="0.35 px" style="stroke-width:0.35;stroke-miterlimit:4;stroke-dasharray:none;fill:none;fill-opacity:1;fill-rule: evenodd"/>
<path id="Shape2DView_nwe0075"  d="M -2.45 -1.47 L -2.2 -1.47 " stroke="#191919" stroke-width="0.35 px" style="stroke-width:0.35;stroke-miterlimit:4;stroke-dasharray:none;fill:none;fill-opacity:1;fill-rule: evenodd"/>
<path id="Shape2DView_nwe0076"  d="M -3.5 1.47 L -2.7 1.47 " stroke="#191919" stroke-width="0.35 px" style="stroke-width:0.35;stroke-miterlimit:4;stroke-dasharray:none;fill:none;fill-opacity:1;fill-rule: evenodd"/>
<path id="Shape2DView_nwe0077"  d="M -2.7 1.47 L -2.6944017761948347 1.47 L -2.6888739533021844 1.47 L -2.683486046902242 1.47 L -2.678305813044122 1.47 L -2.673398396174233 1.47 L -2.6688255099070637 1.47 L -2.664644660940673 1.47 L -2.6609084258765985 1.47 L -2.657663790038586 1.47 L -2.654951556604879 1.47 L -2.6528058334845817 1.47 L -2.651253604390909 1.47 L -2.650314389505338 1.47 L -2.6500000000000004 1.47 " stroke="#191919" stroke-width="0.35 px" style="stroke-width:0.35;stroke-miterlimit:4;stroke-dasharray:none;fill:none;fill-opacity:1;fill-rule: evenodd"/>
<path id="Shape2DView_nwe0078"  d="M -2.6500000000000004 1.47 L -2.6487424419786487 1.47 L -2.644985582436365 1.47 L -2.6387766660616734 1.47 L -2.630193773580484 1.47 L -2.619344839845657 1.47 L -2.606366296493606 1.47 L -2.5914213562373094 1.47 L -2.5746979603717466 1.47 L -2.5564064153030674 1.47 L -2.5367767478235117 1.47 L -2.5160558123910337 1.47 L -2.494504186791263 1.47 L -2.4723928952206617 1.47 L -2.45 1.47 " stroke="#191919" stroke-width="0.35 px" style="stroke-width:0.35;stroke-miterlimit:4;stroke-dasharray:none;fill:none;fill-opacity:1;fill-rule: evenodd"/>
<path id="Shape2DView_nwe0079"  d="M -2.45 1.47 L -2.2 1.47 " stroke="#191919" stroke-width="0.35 px" style="stroke-width:0.35;stroke-miterlimit:4;stroke-dasharray:none;fill:none;fill-opacity:1;fill-rule: evenodd"/>
<path id="Shape2DView_nwe0080"  d="M -2.2 1.625 L -2.125 1.5875 " stroke="#191919" stroke-width="0.35 px" style="stroke-width:0.35;stroke-miterlimit:4;stroke-dasharray:none;fill:none;fill-opacity:1;fill-rule: evenodd"/>
<path id="Shape2DView_nwe0081"  d="M -3.5 -1.07 L -2.7 -1.07 " stroke="#191919" stroke-width="0.35 px" style="stroke-width:0.35;stroke-miterlimit:4;stroke-dasharray:none;fill:none;fill-opacity:1;fill-rule: evenodd"/>
<path id="Shape2DView_nwe0082"  d="M -2.7 -1.07 L -2.6944017761948347 -1.07 L -2.6888739533021844 -1.07 L -2.683486046902242 -1.07 L -2.678305813044122 -1.07 L -2.673398396174233 -1.07 L -2.6688255099070637 -1.07 L -2.664644660940673 -1.07 L -2.6609084258765985 -1.07 L -2.657663790038586 -1.07 L -2.654951556604879 -1.07 L -2.6528058334845817 -1.07 L -2.651253604390909 -1.07 L -2.650314389505338 -1.07 L -2.6500000000000004 -1.07 " stroke="#191919" stroke-width="0.35 px" style="stroke-width:0.35;stroke-miterlimit:4;stroke-dasharray:none;fill:none;fill-opacity:1;fill-rule: evenodd"/>
<path id="Shape2DView_nwe0083"  d="M -2.6500000000000004 -1.07 L -2.6487424419786487 -1.07 L -2.644985582436365 -1.07 L -2.6387766660616734 -1.07 L -2.630193773580484 -1.07 L -2.619344839845657 -1.07 L -2.606366296493606 -1.07 L -2.5914213562373094 -1.07 L -2.5746979603717466 -1.07 L -2.5564064153030674 -1.07 L -2.5367767478235117 -1.07 L -2.5160558123910337 -1.07 L -2.494504186791263 -1.07 L -2.4723928952206617 -1.07 L -2.45 -1.07 " stroke="#191919" stroke-width="0.35 px" style="stroke-width:0.35;stroke-miterlimit:4;stroke-dasharray:none;fill:none;fill-opacity:1;fill-rule: evenodd"/>
<path id="Shape2DView_nwe0084"  d="M -2.45 -1.07 L -2.2 -1.07 " stroke="#191919" stroke-width="0.35 px" style="stroke-width:0.35;stroke-miterlimit:4;stroke-dasharray:none;fill:none;fill-opacity:1;fill-rule: evenodd"/>
<path id="Shape2DView_nwe0085"  d="M -3.5 1.07 L -2.7 1.07 " stroke="#191919" stroke-width="0.35 px" style="stroke-width:0.35;stroke-miterlimit:4;stroke-dasharray:none;fill:none;fill-opacity:1;fill-rule: evenodd"/>
<path id="Shape2DView_nwe0086"  d="M -2.7 1.07 L -2.6944017761948347 1.07 L -2.6888739533021844 1.07 L -2.683486046902242 1.07 L -2.678305813044122 1.07 L -2.673398396174233 1.07 L -2.6688255099070637 1.07 L -2.664644660940673 1.07 L -2.6609084258765985 1.07 L -2.657663790038586 1.07 L -2.654951556604879 1.07 L -2.6528058334845817 1.07 L -2.651253604390909 1.07 L -2.650314389505338 1.07 L -2.6500000000000004 1.07 " stroke="#191919" stroke-width="0.35 px" style="stroke-width:0.35;stroke-miterlimit:4;stroke-dasharray:none;fill:none;fill-opacity:1;fill-rule: evenodd"/>
<path id="Shape2DView_nwe0087"  d="M -2.6500000000000004 1.07 L -2.6487424419786487 1.07 L -2.644985582436365 1.07 L -2.6387766660616734 1.07 L -2.630193773580484 1.07 L -2.619344839845657 1.07 L -2.606366296493606 1.07 L -2.5914213562373094 1.07 L -2.5746979603717466 1.07 L -2.5564064153030674 1.07 L -2.5367767478235117 1.07 L -2.5160558123910337 1.07 L -2.494504186791263 1.07 L -2.4723928952206617 1.07 L -2.45 1.07 " stroke="#191919" stroke-width="0.35 px" style="stroke-width:0.35;stroke-miterlimit:4;stroke-dasharray:none;fill:none;fill-opacity:1;fill-rule: evenodd"/>
<path id="Shape2DView_nwe0088"  d="M -2.45 1.07 L -2.2 1.07 " stroke="#191919" stroke-width="0.35 px" style="stroke-width:0.35;stroke-miterlimit:4;stroke-dasharray:none;fill:none;fill-opacity:1;fill-rule: evenodd"/>
<path id="Shape2DView_nwe0089"  d="M -2.65 -1.47 L -2.65 -1.07 " stroke="#191919" stroke-width="0.35 px" style="stroke-width:0.35;stroke-miterlimit:4;stroke-dasharray:none;fill:none;fill-opacity:1;fill-rule: evenodd"/>
<path id="Shape2DView_nwe0090"  d="M -3.5 -1.47 L -3.5 -1.07 " stroke="#191919" stroke-width="0.35 px" style="stroke-width:0.35;stroke-miterlimit:4;stroke-dasharray:none;fill:none;fill-opacity:1;fill-rule: evenodd"/>
<path id="Shape2DView_nwe0091"  d="M -2.65 1.07 L -2.65 1.47 " stroke="#191919" stroke-width="0.35 px" style="stroke-width:0.35;stroke-miterlimit:4;stroke-dasharray:none;fill:none;fill-opacity:1;fill-rule: evenodd"/>
<path id="Shape2DView_nwe0092"  d="M -3.5 1.07 L -3.5 1.47 " stroke="#191919" stroke-width="0.35 px" style="stroke-width:0.35;stroke-miterlimit:4;stroke-dasharray:none;fill:none;fill-opacity:1;fill-rule: evenodd"/>
<path id="Shape2DView_nwe0093"  d="M 2.45 1.47 L 2.45 1.07 " stroke="#191919" stroke-width="0.35 px" style="stroke-width:0.35;stroke-miterlimit:4;stroke-dasharray:none;fill:none;fill-opacity:1;fill-rule: evenodd"/>
<path id="Shape2DView_nwe0094"  d="M 2.7 1.47 L 2.7 1.07 " stroke="#191919" stroke-width="0.35 px" style="stroke-width:0.35;stroke-miterlimit:4;stroke-dasharray:none;fill:none;fill-opacity:1;fill-rule: evenodd"/>
<path id="Shape2DView_nwe0095"  d="M 2.45 -1.07 L 2.45 -1.47 " stroke="#191919" stroke-width="0.35 px" style="stroke-width:0.35;stroke-miterlimit:4;stroke-dasharray:none;fill:none;fill-opacity:1;fill-rule: evenodd"/>
<path id="Shape2DView_nwe0096"  d="M 2.7 -1.07 L 2.7 -1.47 " stroke="#191919" stroke-width="0.35 px" style="stroke-width:0.35;stroke-miterlimit:4;stroke-dasharray:none;fill:none;fill-opacity:1;fill-rule: evenodd"/>
<path id="Shape2DView_nwe0097"  d="M -2.45 -1.47 L -2.45 -1.07 " stroke="#191919" stroke-width="0.35 px" style="stroke-width:0.35;stroke-miterlimit:4;stroke-dasharray:none;fill:none;fill-opacity:1;fill-rule: evenodd"/>
<path id="Shape2DView_nwe0098"  d="M -2.45 1.07 L -2.45 1.47 " stroke="#191919" stroke-width="0.35 px" style="stroke-width:0.35;stroke-miterlimit:4;stroke-dasharray:none;fill:none;fill-opacity:1;fill-rule: evenodd"/>
<path id="Shape2DView_nwe0099"  d="M -2.7 -1.47 L -2.7 -1.07 " stroke="#191919" stroke-width="0.35 px" style="stroke-width:0.35;stroke-miterlimit:4;stroke-dasharray:none;fill:none;fill-opacity:1;fill-rule: evenodd"/>
<path id="Shape2DView_nwe0100"  d="M -2.7 1.07 L -2.7 1.47 " stroke="#191919" stroke-width="0.35 px" style="stroke-width:0.35;stroke-miterlimit:4;stroke-dasharray:none;fill:none;fill-opacity:1;fill-rule: evenodd"/>
<path id="Shape2DView_nwe0101"  d="M 2.2 1.07 L 2.125 1.07 " stroke="#191919" stroke-width="0.35 px" style="stroke-width:0.35;stroke-miterlimit:4;stroke-dasharray:none;fill:none;fill-opacity:1;fill-rule: evenodd"/>
<path id="Shape2DView_nwe0102"  d="M 2.2 1.47 L 2.125 1.47 " stroke="#191919" stroke-width="0.35 px" style="stroke-width:0.35;stroke-miterlimit:4;stroke-dasharray:none;fill:none;fill-opacity:1;fill-rule: evenodd"/>
<path id="Shape2DView_nwe0103"  d="M 2.2 -1.07 L 2.125 -1.07 " stroke="#191919" stroke-width="0.35 px" style="stroke-width:0.35;stroke-miterlimit:4;stroke-dasharray:none;fill:none;fill-opacity:1;fill-rule: evenodd"/>
<path id="Shape2DView_nwe0104"  d="M 2.2 -1.47 L 2.125 -1.47 " stroke="#191919" stroke-width="0.35 px" style="stroke-width:0.35;stroke-miterlimit:4;stroke-dasharray:none;fill:none;fill-opacity:1;fill-rule: evenodd"/>
<path id="Shape2DView_nwe0105"  d="M -2.2 -1.47 L -2.125 -1.47 " stroke="#191919" stroke-width="0.35 px" style="stroke-width:0.35;stroke-miterlimit:4;stroke-dasharray:none;fill:none;fill-opacity:1;fill-rule: evenodd"/>
<path id="Shape2DView_nwe0106"  d="M -2.2 1.47 L -2.125 1.47 " stroke="#191919" stroke-width="0.35 px" style="stroke-width:0.35;stroke-miterlimit:4;stroke-dasharray:none;fill:none;fill-opacity:1;fill-rule: evenodd"/>
<path id="Shape2DView_nwe0107"  d="M -2.2 -1.07 L -2.125 -1.07 " stroke="#191919" stroke-width="0.35 px" style="stroke-width:0.35;stroke-miterlimit:4;stroke-dasharray:none;fill:none;fill-opacity:1;fill-rule: evenodd"/>
<path id="Shape2DView_nwe0108"  d="M -2.2 1.07 L -2.125 1.07 " stroke="#191919" stroke-width="0.35 px" style="stroke-width:0.35;stroke-miterlimit:4;stroke-dasharray:none;fill:none;fill-opacity:1;fill-rule: evenodd"/>
<title>b'Shape2DView'</title>
</g>
<g id="Rectangle" transform="translate(3.570000,1.870000) scale(1,-1)">
<rect fill="#ff0000" id="origin" width="1" height="1" x="0" y="0" />
<title>b'Rectangle'</title>
</g>
</svg>