<?xml version="1.0"?>
<!DOCTYPE svg PUBLIC "-//W3C//DTD SVG 1.1//EN" "http://www.w3.org/Graphics/SVG/1.1/DTD/svg11.dtd">
<svg width="6.12mm" height="5.0200000000000005mm" viewBox="0 0 6.12 5.0200000000000005" xmlns="http://www.w3.org/2000/svg" version="1.1">
<g id="Shape2DView" transform="translate(3.060000,2.510000) scale(1,-1)">
<path id="Shape2DView_nwe0000"  d="M 3.0 2.3475 L 2.57 2.3475 " stroke="#191919" stroke-width="0.35 px" style="stroke-width:0.35;stroke-miterlimit:4;stroke-dasharray:none;fill:none;fill-opacity:1;fill-rule: evenodd"/>
<path id="Shape2DView_nwe0001"  d="M 2.5700000000000016 2.3475 L 2.5588035523896706 2.3475 L 2.54774790660437 2.3475 L 2.5369720938044846 2.3475 L 2.526611626088245 2.3475 L 2.516796792348467 2.3475 L 2.5076510198141273 2.3475 L 2.4992893218813457 2.3475 L 2.4918168517531973 2.3475 L 2.485327580077172 2.3475 L 2.479903113209758 2.3475 L 2.4756116669691632 2.3475 L 2.4725072087818174 2.3475 L 2.4706287790106756 2.3475 L 2.4699999999999998 2.3475 " stroke="#191919" stroke-width="0.35 px" style="stroke-width:0.35;stroke-miterlimit:4;stroke-dasharray:none;fill:none;fill-opacity:1;fill-rule: evenodd"/>
<path id="Shape2DView_nwe0002"  d="M 2.4699999999999998 2.3475 L 2.4679879071658375 2.3475 L 2.4619769318981835 2.3475 L 2.4520426656986776 2.3475 L 2.4383100377287743 2.3475 L 2.4209517437530508 2.3475 L 2.4001860743897696 2.3475 L 2.376274169979695 2.3475 L 2.349516736594795 2.3475 L 2.3202502644849075 2.3475 L 2.288842796517619 2.3475 L 2.2556892998256535 2.3475 L 2.2212066988660206 2.3475 L 2.1858286323530587 2.3475 L 2.15 2.3475 " stroke="#191919" stroke-width="0.35 px" style="stroke-width:0.35;stroke-miterlimit:4;stroke-dasharray:none;fill:none;fill-opacity:1;fill-rule: evenodd"/>
<path id="Shape2DView_nwe0003"  d="M 2.15 2.3475 L 1.95 2.3475 " stroke="#191919" stroke-width="0.35 px" style="stroke-width:0.35;stroke-miterlimit:4;stroke-dasharray:none;fill:none;fill-opacity:1;fill-rule: evenodd"/>
<path id="Shape2DView_nwe0004"  d="M 3.0 2.0975 L 2.57 2.0975 " stroke="#191919" stroke-width="0.35 px" style="stroke-width:0.35;stroke-miterlimit:4;stroke-dasharray:none;fill:none;fill-opacity:1;fill-rule: evenodd"/>
<path id="Shape2DView_nwe0005"  d="M 2.5700000000000016 2.0975 L 2.5588035523896706 2.0975 L 2.54774790660437 2.0975 L 2.5369720938044846 2.0975 L 2.526611626088245 2.0975 L 2.516796792348467 2.0975 L 2.5076510198141273 2.0975 L 2.4992893218813457 2.0975 L 2.4918168517531973 2.0975 L 2.485327580077172 2.0975 L 2.479903113209758 2.0975 L 2.4756116669691632 2.0975 L 2.4725072087818174 2.0975 L 2.4706287790106756 2.0975 L 2.4699999999999998 2.0975 " stroke="#191919" stroke-width="0.35 px" style="stroke-width:0.35;stroke-miterlimit:4;stroke-dasharray:none;fill:none;fill-opacity:1;fill-rule: evenodd"/>
<path id="Shape2DView_nwe0006"  d="M 2.4699999999999998 2.0975 L 2.4679879071658375 2.0975 L 2.4619769318981835 2.0975 L 2.4520426656986776 2.0975 L 2.4383100377287743 2.0975 L 2.4209517437530508 2.0975 L 2.4001860743897696 2.0975 L 2.376274169979695 2.0975 L 2.349516736594795 2.0975 L 2.3202502644849075 2.0975 L 2.288842796517619 2.0975 L 2.2556892998256535 2.0975 L 2.2212066988660206 2.0975 L 2.1858286323530587 2.0975 L 2.15 2.0975 " stroke="#191919" stroke-width="0.35 px" style="stroke-width:0.35;stroke-miterlimit:4;stroke-dasharray:none;fill:none;fill-opacity:1;fill-rule: evenodd"/>
<path id="Shape2DView_nwe0007"  d="M 2.15 2.0975 L 1.95 2.0975 " stroke="#191919" stroke-width="0.35 px" style="stroke-width:0.35;stroke-miterlimit:4;stroke-dasharray:none;fill:none;fill-opacity:1;fill-rule: evenodd"/>
<path id="Shape2DView_nwe0008"  d="M 1.9499999999999988 2.3475 L 1.9499999999999988 2.45 " stroke="#191919" stroke-width="0.35 px" style="stroke-width:0.35;stroke-miterlimit:4;stroke-dasharray:none;fill:none;fill-opacity:1;fill-rule: evenodd"/>
<path id="Shape2DView_nwe0009"  d="M 1.899999999999999 2.0975000000000006 L 1.8999999999999988 2.3475000000000006 " stroke="#191919" stroke-width="0.35 px" style="stroke-width:0.35;stroke-miterlimit:4;stroke-dasharray:none;fill:none;fill-opacity:1;fill-rule: evenodd"/>
<path id="Shape2DView_nwe0010"  d="M 2.47 2.3475 L 2.47 2.0975 " stroke="#191919" stroke-width="0.35 px" style="stroke-width:0.35;stroke-miterlimit:4;stroke-dasharray:none;fill:none;fill-opacity:1;fill-rule: evenodd"/>
<path id="Shape2DView_nwe0012"  d="M 3.0 2.3475 L 3.0 2.0975 " stroke="#191919" stroke-width="0.35 px" style="stroke-width:0.35;stroke-miterlimit:4;stroke-dasharray:none;fill:none;fill-opacity:1;fill-rule: evenodd"/>
<path id="Shape2DView_nwe0013"  d="M 1.949999999999999 1.7124999999999995 L 1.9499999999999988 2.0975 " stroke="#191919" stroke-width="0.35 px" style="stroke-width:0.35;stroke-miterlimit:4;stroke-dasharray:none;fill:none;fill-opacity:1;fill-rule: evenodd"/>
<path id="Shape2DView_nwe0014"  d="M 1.95 -2.45 L 1.95 -2.3475 " stroke="#191919" stroke-width="0.35 px" style="stroke-width:0.35;stroke-miterlimit:4;stroke-dasharray:none;fill:none;fill-opacity:1;fill-rule: evenodd"/>
<path id="Shape2DView_nwe0015"  d="M 1.95 -2.0975 L 1.9499999999999997 -1.7125 " stroke="#191919" stroke-width="0.35 px" style="stroke-width:0.35;stroke-miterlimit:4;stroke-dasharray:none;fill:none;fill-opacity:1;fill-rule: evenodd"/>
<path id="Shape2DView_nwe0016"  d="M 1.9499999999999997 -1.4625 L 1.9499999999999997 -1.0775 " stroke="#191919" stroke-width="0.35 px" style="stroke-width:0.35;stroke-miterlimit:4;stroke-dasharray:none;fill:none;fill-opacity:1;fill-rule: evenodd"/>
<path id="Shape2DView_nwe0017"  d="M 1.949999999999999 1.0774999999999997 L 1.949999999999999 1.4625 " stroke="#191919" stroke-width="0.35 px" style="stroke-width:0.35;stroke-miterlimit:4;stroke-dasharray:none;fill:none;fill-opacity:1;fill-rule: evenodd"/>
<path id="Shape2DView_nwe0018"  d="M 1.9499999999999995 -0.8275000000000001 L 1.9499999999999995 -0.4424999999999999 " stroke="#191919" stroke-width="0.35 px" style="stroke-width:0.35;stroke-miterlimit:4;stroke-dasharray:none;fill:none;fill-opacity:1;fill-rule: evenodd"/>
<path id="Shape2DView_nwe0019"  d="M 1.9499999999999993 0.4424999999999999 L 1.9499999999999993 0.8275000000000001 " stroke="#191919" stroke-width="0.35 px" style="stroke-width:0.35;stroke-miterlimit:4;stroke-dasharray:none;fill:none;fill-opacity:1;fill-rule: evenodd"/>
<path id="Shape2DView_nwe0020"  d="M 1.9499999999999995 -0.1924999999999999 L 1.9499999999999993 0.1924999999999999 " stroke="#191919" stroke-width="0.35 px" style="stroke-width:0.35;stroke-miterlimit:4;stroke-dasharray:none;fill:none;fill-opacity:1;fill-rule: evenodd"/>
<path id="Shape2DView_nwe0021"  d="M 1.95 2.45 L 1.9 2.4 " stroke="#191919" stroke-width="0.35 px" style="stroke-width:0.35;stroke-miterlimit:4;stroke-dasharray:none;fill:none;fill-opacity:1;fill-rule: evenodd"/>
<path id="Shape2DView_nwe0022"  d="M 1.8999999999999988 2.3475000000000006 L 1.8999999999999988 2.4 " stroke="#191919" stroke-width="0.35 px" style="stroke-width:0.35;stroke-miterlimit:4;stroke-dasharray:none;fill:none;fill-opacity:1;fill-rule: evenodd"/>
<path id="Shape2DView_nwe0023"  d="M 1.95 2.45 L -1.95 2.4499999999999993 " stroke="#191919" stroke-width="0.35 px" style="stroke-width:0.35;stroke-miterlimit:4;stroke-dasharray:none;fill:none;fill-opacity:1;fill-rule: evenodd"/>
<path id="Shape2DView_nwe0024"  d="M 1.9 -2.4 L 1.9 -2.3475 " stroke="#191919" stroke-width="0.35 px" style="stroke-width:0.35;stroke-miterlimit:4;stroke-dasharray:none;fill:none;fill-opacity:1;fill-rule: evenodd"/>
<path id="Shape2DView_nwe0025"  d="M 1.9 -2.3475 L 1.9 -2.0975 " stroke="#191919" stroke-width="0.35 px" style="stroke-width:0.35;stroke-miterlimit:4;stroke-dasharray:none;fill:none;fill-opacity:1;fill-rule: evenodd"/>
<path id="Shape2DView_nwe0026"  d="M 1.9 -2.0975 L 1.8999999999999997 -1.7125 " stroke="#191919" stroke-width="0.35 px" style="stroke-width:0.35;stroke-miterlimit:4;stroke-dasharray:none;fill:none;fill-opacity:1;fill-rule: evenodd"/>
<path id="Shape2DView_nwe0027"  d="M 1.8999999999999997 -1.7125 L 1.8999999999999997 -1.4625 " stroke="#191919" stroke-width="0.35 px" style="stroke-width:0.35;stroke-miterlimit:4;stroke-dasharray:none;fill:none;fill-opacity:1;fill-rule: evenodd"/>
<path id="Shape2DView_nwe0028"  d="M 1.8999999999999997 -1.4625 L 1.8999999999999997 -1.0775 " stroke="#191919" stroke-width="0.35 px" style="stroke-width:0.35;stroke-miterlimit:4;stroke-dasharray:none;fill:none;fill-opacity:1;fill-rule: evenodd"/>
<path id="Shape2DView_nwe0029"  d="M 1.8999999999999997 -1.0775 L 1.8999999999999995 -0.8275000000000001 " stroke="#191919" stroke-width="0.35 px" style="stroke-width:0.35;stroke-miterlimit:4;stroke-dasharray:none;fill:none;fill-opacity:1;fill-rule: evenodd"/>
<path id="Shape2DView_nwe0030"  d="M 1.8999999999999995 -0.8275000000000001 L 1.8999999999999995 -0.4424999999999999 " stroke="#191919" stroke-width="0.35 px" style="stroke-width:0.35;stroke-miterlimit:4;stroke-dasharray:none;fill:none;fill-opacity:1;fill-rule: evenodd"/>
<path id="Shape2DView_nwe0031"  d="M 1.8999999999999995 -0.4424999999999999 L 1.8999999999999995 -0.1924999999999999 " stroke="#191919" stroke-width="0.35 px" style="stroke-width:0.35;stroke-miterlimit:4;stroke-dasharray:none;fill:none;fill-opacity:1;fill-rule: evenodd"/>
<path id="Shape2DView_nwe0032"  d="M 1.8999999999999995 -0.1924999999999999 L 1.8999999999999992 0.1924999999999999 " stroke="#191919" stroke-width="0.35 px" style="stroke-width:0.35;stroke-miterlimit:4;stroke-dasharray:none;fill:none;fill-opacity:1;fill-rule: evenodd"/>
<path id="Shape2DView_nwe0033"  d="M 1.8999999999999992 0.1924999999999999 L 1.8999999999999992 0.4424999999999999 " stroke="#191919" stroke-width="0.35 px" style="stroke-width:0.35;stroke-miterlimit:4;stroke-dasharray:none;fill:none;fill-opacity:1;fill-rule: evenodd"/>
<path id="Shape2DView_nwe0034"  d="M 1.8999999999999992 0.4424999999999999 L 1.8999999999999992 0.8275000000000001 " stroke="#191919" stroke-width="0.35 px" style="stroke-width:0.35;stroke-miterlimit:4;stroke-dasharray:none;fill:none;fill-opacity:1;fill-rule: evenodd"/>
<path id="Shape2DView_nwe0035"  d="M 1.8999999999999992 0.8275000000000001 L 1.8999999999999992 1.0775000000000001 " stroke="#191919" stroke-width="0.35 px" style="stroke-width:0.35;stroke-miterlimit:4;stroke-dasharray:none;fill:none;fill-opacity:1;fill-rule: evenodd"/>
<path id="Shape2DView_nwe0036"  d="M 1.8999999999999992 1.0775000000000001 L 1.899999999999999 1.4625 " stroke="#191919" stroke-width="0.35 px" style="stroke-width:0.35;stroke-miterlimit:4;stroke-dasharray:none;fill:none;fill-opacity:1;fill-rule: evenodd"/>
<path id="Shape2DView_nwe0037"  d="M 1.899999999999999 1.4625 L 1.899999999999999 1.7125 " stroke="#191919" stroke-width="0.35 px" style="stroke-width:0.35;stroke-miterlimit:4;stroke-dasharray:none;fill:none;fill-opacity:1;fill-rule: evenodd"/>
<path id="Shape2DView_nwe0038"  d="M 1.899999999999999 1.7125 L 1.899999999999999 2.0975000000000006 " stroke="#191919" stroke-width="0.35 px" style="stroke-width:0.35;stroke-miterlimit:4;stroke-dasharray:none;fill:none;fill-opacity:1;fill-rule: evenodd"/>
<path id="Shape2DView_nwe0039"  d="M 1.9 2.4 L 1.79053337074 2.29053337074 " stroke="#191919" stroke-width="0.35 px" style="stroke-width:0.35;stroke-miterlimit:4;stroke-dasharray:none;fill:none;fill-opacity:1;fill-rule: evenodd"/>
<path id="Shape2DView_nwe0040"  d="M 1.79053337074 -2.29053337074 L 1.7905333707399989 2.29053337074 " stroke="#191919" stroke-width="0.35 px" style="stroke-width:0.35;stroke-miterlimit:4;stroke-dasharray:none;fill:none;fill-opacity:1;fill-rule: evenodd"/>
<path id="Shape2DView_nwe0041"  d="M 1.9 -2.4 L 1.79053337074 -2.29053337074 " stroke="#191919" stroke-width="0.35 px" style="stroke-width:0.35;stroke-miterlimit:4;stroke-dasharray:none;fill:none;fill-opacity:1;fill-rule: evenodd"/>
<path id="Shape2DView_nwe0042"  d="M 3.0 1.7125 L 2.57 1.7125 " stroke="#191919" stroke-width="0.35 px" style="stroke-width:0.35;stroke-miterlimit:4;stroke-dasharray:none;fill:none;fill-opacity:1;fill-rule: evenodd"/>
<path id="Shape2DView_nwe0043"  d="M 2.5700000000000016 1.7125 L 2.5588035523896706 1.7125 L 2.54774790660437 1.7125 L 2.5369720938044846 1.7125 L 2.526611626088245 1.7125 L 2.516796792348467 1.7125 L 2.5076510198141273 1.7125 L 2.4992893218813457 1.7125 L 2.4918168517531973 1.7125 L 2.485327580077172 1.7125 L 2.479903113209758 1.7125 L 2.4756116669691632 1.7125 L 2.4725072087818174 1.7125 L 2.4706287790106756 1.7125 L 2.4699999999999998 1.7125 " stroke="#191919" stroke-width="0.35 px" style="stroke-width:0.35;stroke-miterlimit:4;stroke-dasharray:none;fill:none;fill-opacity:1;fill-rule: evenodd"/>
<path id="Shape2DView_nwe0044"  d="M 2.4699999999999998 1.7125 L 2.4679879071658375 1.7125 L 2.4619769318981835 1.7125 L 2.4520426656986776 1.7125 L 2.4383100377287743 1.7125 L 2.4209517437530508 1.7125 L 2.4001860743897696 1.7125 L 2.376274169979695 1.7125 L 2.349516736594795 1.7125 L 2.3202502644849075 1.7125 L 2.288842796517619 1.7125 L 2.2556892998256535 1.7125 L 2.2212066988660206 1.7125 L 2.1858286323530587 1.7125 L 2.15 1.7125 " stroke="#191919" stroke-width="0.35 px" style="stroke-width:0.35;stroke-miterlimit:4;stroke-dasharray:none;fill:none;fill-opacity:1;fill-rule: evenodd"/>
<path id="Shape2DView_nwe0045"  d="M 2.15 1.7125 L 1.95 1.7125 " stroke="#191919" stroke-width="0.35 px" style="stroke-width:0.35;stroke-miterlimit:4;stroke-dasharray:none;fill:none;fill-opacity:1;fill-rule: evenodd"/>
<path id="Shape2DView_nwe0046"  d="M -1.95 -2.45 L 1.95 -2.4499999999999993 " stroke="#191919" stroke-width="0.35 px" style="stroke-width:0.35;stroke-miterlimit:4;stroke-dasharray:none;fill:none;fill-opacity:1;fill-rule: evenodd"/>
<path id="Shape2DView_nwe0047"  d="M 1.95 -2.45 L 1.9 -2.4 " stroke="#191919" stroke-width="0.35 px" style="stroke-width:0.35;stroke-miterlimit:4;stroke-dasharray:none;fill:none;fill-opacity:1;fill-rule: evenodd"/>
<path id="Shape2DView_nwe0048"  d="M 3.0 -2.3475 L 2.57 -2.3475 " stroke="#191919" stroke-width="0.35 px" style="stroke-width:0.35;stroke-miterlimit:4;stroke-dasharray:none;fill:none;fill-opacity:1;fill-rule: evenodd"/>
<path id="Shape2DView_nwe0049"  d="M 2.5700000000000016 -2.3475 L 2.5588035523896706 -2.3475 L 2.54774790660437 -2.3475 L 2.5369720938044846 -2.3475 L 2.526611626088245 -2.3475 L 2.516796792348467 -2.3475 L 2.5076510198141273 -2.3475 L 2.4992893218813457 -2.3475 L 2.4918168517531973 -2.3475 L 2.485327580077172 -2.3475 L 2.479903113209758 -2.3475 L 2.4756116669691632 -2.3475 L 2.4725072087818174 -2.3475 L 2.4706287790106756 -2.3475 L 2.4699999999999998 -2.3475 " stroke="#191919" stroke-width="0.35 px" style="stroke-width:0.35;stroke-miterlimit:4;stroke-dasharray:none;fill:none;fill-opacity:1;fill-rule: evenodd"/>
<path id="Shape2DView_nwe0050"  d="M 2.4699999999999998 -2.3475 L 2.4679879071658375 -2.3475 L 2.4619769318981835 -2.3475 L 2.4520426656986776 -2.3475 L 2.4383100377287743 -2.3475 L 2.4209517437530508 -2.3475 L 2.4001860743897696 -2.3475 L 2.376274169979695 -2.3475 L 2.349516736594795 -2.3475 L 2.3202502644849075 -2.3475 L 2.288842796517619 -2.3475 L 2.2556892998256535 -2.3475 L 2.2212066988660206 -2.3475 L 2.1858286323530587 -2.3475 L 2.15 -2.3475 " stroke="#191919" stroke-width="0.35 px" style="stroke-width:0.35;stroke-miterlimit:4;stroke-dasharray:none;fill:none;fill-opacity:1;fill-rule: evenodd"/>
<path id="Shape2DView_nwe0051"  d="M 2.15 -2.3475 L 1.95 -2.3475 " stroke="#191919" stroke-width="0.35 px" style="stroke-width:0.35;stroke-miterlimit:4;stroke-dasharray:none;fill:none;fill-opacity:1;fill-rule: evenodd"/>
<path id="Shape2DView_nwe0052"  d="M 3.0 -2.0975 L 2.57 -2.0975 " stroke="#191919" stroke-width="0.35 px" style="stroke-width:0.35;stroke-miterlimit:4;stroke-dasharray:none;fill:none;fill-opacity:1;fill-rule: evenodd"/>
<path id="Shape2DView_nwe0053"  d="M 2.5700000000000016 -2.0975 L 2.5588035523896706 -2.0975 L 2.54774790660437 -2.0975 L 2.5369720938044846 -2.0975 L 2.526611626088245 -2.0975 L 2.516796792348467 -2.0975 L 2.5076510198141273 -2.0975 L 2.4992893218813457 -2.0975 L 2.4918168517531973 -2.0975 L 2.485327580077172 -2.0975 L 2.479903113209758 -2.0975 L 2.4756116669691632 -2.0975 L 2.4725072087818174 -2.0975 L 2.4706287790106756 -2.0975 L 2.4699999999999998 -2.0975 " stroke="#191919" stroke-width="0.35 px" style="stroke-width:0.35;stroke-miterlimit:4;stroke-dasharray:none;fill:none;fill-opacity:1;fill-rule: evenodd"/>
<path id="Shape2DView_nwe0054"  d="M 2.4699999999999998 -2.0975 L 2.4679879071658375 -2.0975 L 2.4619769318981835 -2.0975 L 2.4520426656986776 -2.0975 L 2.4383100377287743 -2.0975 L 2.4209517437530508 -2.0975 L 2.4001860743897696 -2.0975 L 2.376274169979695 -2.0975 L 2.349516736594795 -2.0975 L 2.3202502644849075 -2.0975 L 2.288842796517619 -2.0975 L 2.2556892998256535 -2.0975 L 2.2212066988660206 -2.0975 L 2.1858286323530587 -2.0975 L 2.15 -2.0975 " stroke="#191919" stroke-width="0.35 px" style="stroke-width:0.35;stroke-miterlimit:4;stroke-dasharray:none;fill:none;fill-opacity:1;fill-rule: evenodd"/>
<path id="Shape2DView_nwe0055"  d="M 2.15 -2.0975 L 1.95 -2.0975 " stroke="#191919" stroke-width="0.35 px" style="stroke-width:0.35;stroke-miterlimit:4;stroke-dasharray:none;fill:none;fill-opacity:1;fill-rule: evenodd"/>
<path id="Shape2DView_nwe0056"  d="M 3.0 -1.7125 L 2.57 -1.7125 " stroke="#191919" stroke-width="0.35 px" style="stroke-width:0.35;stroke-miterlimit:4;stroke-dasharray:none;fill:none;fill-opacity:1;fill-rule: evenodd"/>
<path id="Shape2DView_nwe0057"  d="M 2.5700000000000016 -1.7125 L 2.5588035523896706 -1.7125 L 2.54774790660437 -1.7125 L 2.5369720938044846 -1.7125 L 2.526611626088245 -1.7125 L 2.516796792348467 -1.7125 L 2.5076510198141273 -1.7125 L 2.4992893218813457 -1.7125 L 2.4918168517531973 -1.7125 L 2.485327580077172 -1.7125 L 2.479903113209758 -1.7125 L 2.4756116669691632 -1.7125 L 2.4725072087818174 -1.7125 L 2.4706287790106756 -1.7125 L 2.4699999999999998 -1.7125 " stroke="#191919" stroke-width="0.35 px" style="stroke-width:0.35;stroke-miterlimit:4;stroke-dasharray:none;fill:none;fill-opacity:1;fill-rule: evenodd"/>
<path id="Shape2DView_nwe0058"  d="M 2.4699999999999998 -1.7125 L 2.4679879071658375 -1.7125 L 2.4619769318981835 -1.7125 L 2.4520426656986776 -1.7125 L 2.4383100377287743 -1.7125 L 2.4209517437530508 -1.7125 L 2.4001860743897696 -1.7125 L 2.376274169979695 -1.7125 L 2.349516736594795 -1.7125 L 2.3202502644849075 -1.7125 L 2.288842796517619 -1.7125 L 2.2556892998256535 -1.7125 L 2.2212066988660206 -1.7125 L 2.1858286323530587 -1.7125 L 2.15 -1.7125 " stroke="#191919" stroke-width="0.35 px" style="stroke-width:0.35;stroke-miterlimit:4;stroke-dasharray:none;fill:none;fill-opacity:1;fill-rule: evenodd"/>
<path id="Shape2DView_nwe0059"  d="M 2.15 -1.7125 L 1.95 -1.7125 " stroke="#191919" stroke-width="0.35 px" style="stroke-width:0.35;stroke-miterlimit:4;stroke-dasharray:none;fill:none;fill-opacity:1;fill-rule: evenodd"/>
<path id="Shape2DView_nwe0060"  d="M 3.0 -1.4625 L 2.57 -1.4625 " stroke="#191919" stroke-width="0.35 px" style="stroke-width:0.35;stroke-miterlimit:4;stroke-dasharray:none;fill:none;fill-opacity:1;fill-rule: evenodd"/>
<path id="Shape2DView_nwe0061"  d="M 2.5700000000000016 -1.4625 L 2.5588035523896706 -1.4625 L 2.54774790660437 -1.4625 L 2.5369720938044846 -1.4625 L 2.526611626088245 -1.4625 L 2.516796792348467 -1.4625 L 2.5076510198141273 -1.4625 L 2.4992893218813457 -1.4625 L 2.4918168517531973 -1.4625 L 2.485327580077172 -1.4625 L 2.479903113209758 -1.4625 L 2.4756116669691632 -1.4625 L 2.4725072087818174 -1.4625 L 2.4706287790106756 -1.4625 L 2.4699999999999998 -1.4625 " stroke="#191919" stroke-width="0.35 px" style="stroke-width:0.35;stroke-miterlimit:4;stroke-dasharray:none;fill:none;fill-opacity:1;fill-rule: evenodd"/>
<path id="Shape2DView_nwe0062"  d="M 2.4699999999999998 -1.4625 L 2.4679879071658375 -1.4625 L 2.4619769318981835 -1.4625 L 2.4520426656986776 -1.4625 L 2.4383100377287743 -1.4625 L 2.4209517437530508 -1.4625 L 2.4001860743897696 -1.4625 L 2.376274169979695 -1.4625 L 2.349516736594795 -1.4625 L 2.3202502644849075 -1.4625 L 2.288842796517619 -1.4625 L 2.2556892998256535 -1.4625 L 2.2212066988660206 -1.4625 L 2.1858286323530587 -1.4625 L 2.15 -1.4625 " stroke="#191919" stroke-width="0.35 px" style="stroke-width:0.35;stroke-miterlimit:4;stroke-dasharray:none;fill:none;fill-opacity:1;fill-rule: evenodd"/>
<path id="Shape2DView_nwe0063"  d="M 2.15 -1.4625 L 1.95 -1.4625 " stroke="#191919" stroke-width="0.35 px" style="stroke-width:0.35;stroke-miterlimit:4;stroke-dasharray:none;fill:none;fill-opacity:1;fill-rule: evenodd"/>
<path id="Shape2DView_nwe0064"  d="M 3.0 1.4625 L 2.57 1.4625 " stroke="#191919" stroke-width="0.35 px" style="stroke-width:0.35;stroke-miterlimit:4;stroke-dasharray:none;fill:none;fill-opacity:1;fill-rule: evenodd"/>
<path id="Shape2DView_nwe0065"  d="M 2.5700000000000016 1.4625 L 2.5588035523896706 1.4625 L 2.54774790660437 1.4625 L 2.5369720938044846 1.4625 L 2.526611626088245 1.4625 L 2.516796792348467 1.4625 L 2.5076510198141273 1.4625 L 2.4992893218813457 1.4625 L 2.4918168517531973 1.4625 L 2.485327580077172 1.4625 L 2.479903113209758 1.4625 L 2.4756116669691632 1.4625 L 2.4725072087818174 1.4625 L 2.4706287790106756 1.4625 L 2.4699999999999998 1.4625 " stroke="#191919" stroke-width="0.35 px" style="stroke-width:0.35;stroke-miterlimit:4;stroke-dasharray:none;fill:none;fill-opacity:1;fill-rule: evenodd"/>
<path id="Shape2DView_nwe0066"  d="M 2.4699999999999998 1.4625 L 2.4679879071658375 1.4625 L 2.4619769318981835 1.4625 L 2.4520426656986776 1.4625 L 2.4383100377287743 1.4625 L 2.4209517437530508 1.4625 L 2.4001860743897696 1.4625 L 2.376274169979695 1.4625 L 2.349516736594795 1.4625 L 2.3202502644849075 1.4625 L 2.288842796517619 1.4625 L 2.2556892998256535 1.4625 L 2.2212066988660206 1.4625 L 2.1858286323530587 1.4625 L 2.15 1.4625 " stroke="#191919" stroke-width="0.35 px" style="stroke-width:0.35;stroke-miterlimit:4;stroke-dasharray:none;fill:none;fill-opacity:1;fill-rule: evenodd"/>
<path id="Shape2DView_nwe0067"  d="M 2.15 1.4625 L 1.95 1.4625 " stroke="#191919" stroke-width="0.35 px" style="stroke-width:0.35;stroke-miterlimit:4;stroke-dasharray:none;fill:none;fill-opacity:1;fill-rule: evenodd"/>
<path id="Shape2DView_nwe0068"  d="M 3.0 -1.0775 L 2.57 -1.0775 " stroke="#191919" stroke-width="0.35 px" style="stroke-width:0.35;stroke-miterlimit:4;stroke-dasharray:none;fill:none;fill-opacity:1;fill-rule: evenodd"/>
<path id="Shape2DView_nwe0069"  d="M 2.5700000000000016 -1.0775 L 2.5588035523896706 -1.0775 L 2.54774790660437 -1.0775 L 2.5369720938044846 -1.0775 L 2.526611626088245 -1.0775 L 2.516796792348467 -1.0775 L 2.5076510198141273 -1.0775 L 2.4992893218813457 -1.0775 L 2.4918168517531973 -1.0775 L 2.485327580077172 -1.0775 L 2.479903113209758 -1.0775 L 2.4756116669691632 -1.0775 L 2.4725072087818174 -1.0775 L 2.4706287790106756 -1.0775 L 2.4699999999999998 -1.0775 " stroke="#191919" stroke-width="0.35 px" style="stroke-width:0.35;stroke-miterlimit:4;stroke-dasharray:none;fill:none;fill-opacity:1;fill-rule: evenodd"/>
<path id="Shape2DView_nwe0070"  d="M 2.4699999999999998 -1.0775 L 2.4679879071658375 -1.0775 L 2.4619769318981835 -1.0775 L 2.4520426656986776 -1.0775 L 2.4383100377287743 -1.0775 L 2.4209517437530508 -1.0775 L 2.4001860743897696 -1.0775 L 2.376274169979695 -1.0775 L 2.349516736594795 -1.0775 L 2.3202502644849075 -1.0775 L 2.288842796517619 -1.0775 L 2.2556892998256535 -1.0775 L 2.2212066988660206 -1.0775 L 2.1858286323530587 -1.0775 L 2.15 -1.0775 " stroke="#191919" stroke-width="0.35 px" style="stroke-width:0.35;stroke-miterlimit:4;stroke-dasharray:none;fill:none;fill-opacity:1;fill-rule: evenodd"/>
<path id="Shape2DView_nwe0071"  d="M 2.15 -1.0775 L 1.95 -1.0775 " stroke="#191919" stroke-width="0.35 px" style="stroke-width:0.35;stroke-miterlimit:4;stroke-dasharray:none;fill:none;fill-opacity:1;fill-rule: evenodd"/>
<path id="Shape2DView_nwe0072"  d="M 3.0 1.0775 L 2.57 1.0775 " stroke="#191919" stroke-width="0.35 px" style="stroke-width:0.35;stroke-miterlimit:4;stroke-dasharray:none;fill:none;fill-opacity:1;fill-rule: evenodd"/>
<path id="Shape2DView_nwe0073"  d="M 2.5700000000000016 1.0775 L 2.5588035523896706 1.0775 L 2.54774790660437 1.0775 L 2.5369720938044846 1.0775 L 2.526611626088245 1.0775 L 2.516796792348467 1.0775 L 2.5076510198141273 1.0775 L 2.4992893218813457 1.0775 L 2.4918168517531973 1.0775 L 2.485327580077172 1.0775 L 2.479903113209758 1.0775 L 2.4756116669691632 1.0775 L 2.4725072087818174 1.0775 L 2.4706287790106756 1.0775 L 2.4699999999999998 1.0775 " stroke="#191919" stroke-width="0.35 px" style="stroke-width:0.35;stroke-miterlimit:4;stroke-dasharray:none;fill:none;fill-opacity:1;fill-rule: evenodd"/>
<path id="Shape2DView_nwe0074"  d="M 2.4699999999999998 1.0775 L 2.4679879071658375 1.0775 L 2.4619769318981835 1.0775 L 2.4520426656986776 1.0775 L 2.4383100377287743 1.0775 L 2.4209517437530508 1.0775 L 2.4001860743897696 1.0775 L 2.376274169979695 1.0775 L 2.349516736594795 1.0775 L 2.3202502644849075 1.0775 L 2.288842796517619 1.0775 L 2.2556892998256535 1.0775 L 2.2212066988660206 1.0775 L 2.1858286323530587 1.0775 L 2.15 1.0775 " stroke="#191919" stroke-width="0.35 px" style="stroke-width:0.35;stroke-miterlimit:4;stroke-dasharray:none;fill:none;fill-opacity:1;fill-rule: evenodd"/>
<path id="Shape2DView_nwe0075"  d="M 2.15 1.0775 L 1.95 1.0775 " stroke="#191919" stroke-width="0.35 px" style="stroke-width:0.35;stroke-miterlimit:4;stroke-dasharray:none;fill:none;fill-opacity:1;fill-rule: evenodd"/>
<path id="Shape2DView_nwe0076"  d="M 3.0 -0.8275 L 2.57 -0.8275000000000001 " stroke="#191919" stroke-width="0.35 px" style="stroke-width:0.35;stroke-miterlimit:4;stroke-dasharray:none;fill:none;fill-opacity:1;fill-rule: evenodd"/>
<path id="Shape2DView_nwe0077"  d="M 2.5700000000000016 -0.8275 L 2.5588035523896706 -0.8275 L 2.54774790660437 -0.8275 L 2.5369720938044846 -0.8275 L 2.526611626088245 -0.8275 L 2.516796792348467 -0.8275 L 2.5076510198141273 -0.8275 L 2.4992893218813457 -0.8275 L 2.4918168517531973 -0.8275 L 2.485327580077172 -0.8275 L 2.479903113209758 -0.8275 L 2.4756116669691632 -0.8275 L 2.4725072087818174 -0.8275 L 2.4706287790106756 -0.8275 L 2.4699999999999998 -0.8275 " stroke="#191919" stroke-width="0.35 px" style="stroke-width:0.35;stroke-miterlimit:4;stroke-dasharray:none;fill:none;fill-opacity:1;fill-rule: evenodd"/>
<path id="Shape2DView_nwe0078"  d="M 2.4699999999999998 -0.8274999999999999 L 2.4679879071658375 -0.8274999999999999 L 2.4619769318981835 -0.8274999999999999 L 2.4520426656986776 -0.8274999999999999 L 2.4383100377287743 -0.8274999999999999 L 2.4209517437530508 -0.8274999999999999 L 2.4001860743897696 -0.8274999999999999 L 2.376274169979695 -0.8275 L 2.349516736594795 -0.8275 L 2.3202502644849075 -0.8275 L 2.288842796517619 -0.8275 L 2.2556892998256535 -0.8275 L 2.2212066988660206 -0.8275 L 2.1858286323530587 -0.8275 L 2.15 -0.8275 " stroke="#191919" stroke-width="0.35 px" style="stroke-width:0.35;stroke-miterlimit:4;stroke-dasharray:none;fill:none;fill-opacity:1;fill-rule: evenodd"/>
<path id="Shape2DView_nwe0079"  d="M 2.15 -0.8275 L 1.95 -0.8275 " stroke="#191919" stroke-width="0.35 px" style="stroke-width:0.35;stroke-miterlimit:4;stroke-dasharray:none;fill:none;fill-opacity:1;fill-rule: evenodd"/>
<path id="Shape2DView_nwe0080"  d="M 3.0 0.8275 L 2.57 0.8274999999999999 " stroke="#191919" stroke-width="0.35 px" style="stroke-width:0.35;stroke-miterlimit:4;stroke-dasharray:none;fill:none;fill-opacity:1;fill-rule: evenodd"/>
<path id="Shape2DView_nwe0081"  d="M 2.5700000000000016 0.8275 L 2.5588035523896706 0.8275 L 2.54774790660437 0.8275 L 2.5369720938044846 0.8275 L 2.526611626088245 0.8275 L 2.516796792348467 0.8275 L 2.5076510198141273 0.8275 L 2.4992893218813457 0.8275 L 2.4918168517531973 0.8275 L 2.485327580077172 0.8275 L 2.479903113209758 0.8275 L 2.4756116669691632 0.8275 L 2.4725072087818174 0.8275 L 2.4706287790106756 0.8275 L 2.4699999999999998 0.8275 " stroke="#191919" stroke-width="0.35 px" style="stroke-width:0.35;stroke-miterlimit:4;stroke-dasharray:none;fill:none;fill-opacity:1;fill-rule: evenodd"/>
<path id="Shape2DView_nwe0082"  d="M 2.4699999999999998 0.8275000000000001 L 2.4679879071658375 0.8275000000000001 L 2.4619769318981835 0.8275000000000001 L 2.4520426656986776 0.8275000000000001 L 2.4383100377287743 0.8275000000000001 L 2.4209517437530508 0.8275000000000001 L 2.4001860743897696 0.8275000000000001 L 2.376274169979695 0.8275 L 2.349516736594795 0.8275 L 2.3202502644849075 0.8275 L 2.288842796517619 0.8275 L 2.2556892998256535 0.8275 L 2.2212066988660206 0.8275 L 2.1858286323530587 0.8275 L 2.15 0.8275 " stroke="#191919" stroke-width="0.35 px" style="stroke-width:0.35;stroke-miterlimit:4;stroke-dasharray:none;fill:none;fill-opacity:1;fill-rule: evenodd"/>
<path id="Shape2DView_nwe0083"  d="M 2.15 0.8275 L 1.95 0.8275 " stroke="#191919" stroke-width="0.35 px" style="stroke-width:0.35;stroke-miterlimit:4;stroke-dasharray:none;fill:none;fill-opacity:1;fill-rule: evenodd"/>
<path id="Shape2DView_nwe0084"  d="M 3.0 -0.4425 L 2.57 -0.4425000000000001 " stroke="#191919" stroke-width="0.35 px" style="stroke-width:0.35;stroke-miterlimit:4;stroke-dasharray:none;fill:none;fill-opacity:1;fill-rule: evenodd"/>
<path id="Shape2DView_nwe0085"  d="M 2.5700000000000016 -0.4425 L 2.5588035523896706 -0.4425 L 2.54774790660437 -0.4425 L 2.5369720938044846 -0.4425 L 2.526611626088245 -0.4425 L 2.516796792348467 -0.4425 L 2.5076510198141273 -0.4425 L 2.4992893218813457 -0.4425 L 2.4918168517531973 -0.4425 L 2.485327580077172 -0.4425 L 2.479903113209758 -0.4425 L 2.4756116669691632 -0.4425 L 2.4725072087818174 -0.4425 L 2.4706287790106756 -0.4425 L 2.4699999999999998 -0.4425 " stroke="#191919" stroke-width="0.35 px" style="stroke-width:0.35;stroke-miterlimit:4;stroke-dasharray:none;fill:none;fill-opacity:1;fill-rule: evenodd"/>
<path id="Shape2DView_nwe0086"  d="M 2.4699999999999998 -0.44249999999999995 L 2.4679879071658375 -0.44249999999999995 L 2.4619769318981835 -0.44249999999999995 L 2.4520426656986776 -0.44249999999999995 L 2.4383100377287743 -0.44249999999999995 L 2.4209517437530508 -0.44249999999999995 L 2.4001860743897696 -0.44249999999999995 L 2.376274169979695 -0.44249999999999995 L 2.349516736594795 -0.44249999999999995 L 2.3202502644849075 -0.44249999999999995 L 2.288842796517619 -0.44249999999999995 L 2.2556892998256535 -0.4425 L 2.2212066988660206 -0.4425 L 2.1858286323530587 -0.4425 L 2.15 -0.4425 " stroke="#191919" stroke-width="0.35 px" style="stroke-width:0.35;stroke-miterlimit:4;stroke-dasharray:none;fill:none;fill-opacity:1;fill-rule: evenodd"/>
<path id="Shape2DView_nwe0087"  d="M 2.15 -0.4425 L 1.95 -0.44250000000000006 " stroke="#191919" stroke-width="0.35 px" style="stroke-width:0.35;stroke-miterlimit:4;stroke-dasharray:none;fill:none;fill-opacity:1;fill-rule: evenodd"/>
<path id="Shape2DView_nwe0088"  d="M 3.0 0.4425 L 2.57 0.4424999999999999 " stroke="#191919" stroke-width="0.35 px" style="stroke-width:0.35;stroke-miterlimit:4;stroke-dasharray:none;fill:none;fill-opacity:1;fill-rule: evenodd"/>
<path id="Shape2DView_nwe0089"  d="M 2.5700000000000016 0.4425 L 2.5588035523896706 0.4425 L 2.54774790660437 0.4425 L 2.5369720938044846 0.4425 L 2.526611626088245 0.4425 L 2.516796792348467 0.4425 L 2.5076510198141273 0.4425 L 2.4992893218813457 0.4425 L 2.4918168517531973 0.4425 L 2.485327580077172 0.4425 L 2.479903113209758 0.4425 L 2.4756116669691632 0.4425 L 2.4725072087818174 0.4425 L 2.4706287790106756 0.4425 L 2.4699999999999998 0.4425 " stroke="#191919" stroke-width="0.35 px" style="stroke-width:0.35;stroke-miterlimit:4;stroke-dasharray:none;fill:none;fill-opacity:1;fill-rule: evenodd"/>
<path id="Shape2DView_nwe0090"  d="M 2.4699999999999998 0.44250000000000006 L 2.4679879071658375 0.44250000000000006 L 2.4619769318981835 0.44250000000000006 L 2.4520426656986776 0.44250000000000006 L 2.4383100377287743 0.44250000000000006 L 2.4209517437530508 0.44250000000000006 L 2.4001860743897696 0.44250000000000006 L 2.376274169979695 0.44250000000000006 L 2.349516736594795 0.44250000000000006 L 2.3202502644849075 0.44250000000000006 L 2.288842796517619 0.44250000000000006 L 2.2556892998256535 0.4425 L 2.2212066988660206 0.4425 L 2.1858286323530587 0.4425 L 2.15 0.4425 " stroke="#191919" stroke-width="0.35 px" style="stroke-width:0.35;stroke-miterlimit:4;stroke-dasharray:none;fill:none;fill-opacity:1;fill-rule: evenodd"/>
<path id="Shape2DView_nwe0091"  d="M 2.15 0.4425 L 1.95 0.44249999999999995 " stroke="#191919" stroke-width="0.35 px" style="stroke-width:0.35;stroke-miterlimit:4;stroke-dasharray:none;fill:none;fill-opacity:1;fill-rule: evenodd"/>
<path id="Shape2DView_nwe0092"  d="M 3.0 -0.1925 L 2.57 -0.1925000000000001 " stroke="#191919" stroke-width="0.35 px" style="stroke-width:0.35;stroke-miterlimit:4;stroke-dasharray:none;fill:none;fill-opacity:1;fill-rule: evenodd"/>
<path id="Shape2DView_nwe0093"  d="M 2.5700000000000016 -0.1925 L 2.5588035523896706 -0.1925 L 2.54774790660437 -0.1925 L 2.5369720938044846 -0.1925 L 2.526611626088245 -0.1925 L 2.516796792348467 -0.1925 L 2.5076510198141273 -0.1925 L 2.4992893218813457 -0.19250000000000003 L 2.4918168517531973 -0.19250000000000003 L 2.485327580077172 -0.19250000000000003 L 2.479903113209758 -0.19250000000000003 L 2.4756116669691632 -0.19250000000000003 L 2.4725072087818174 -0.19250000000000003 L 2.4706287790106756 -0.19250000000000003 L 2.4699999999999998 -0.19250000000000003 " stroke="#191919" stroke-width="0.35 px" style="stroke-width:0.35;stroke-miterlimit:4;stroke-dasharray:none;fill:none;fill-opacity:1;fill-rule: evenodd"/>
<path id="Shape2DView_nwe0094"  d="M 2.4699999999999998 -0.19249999999999992 L 2.4679879071658375 -0.19249999999999992 L 2.4619769318981835 -0.19249999999999995 L 2.4520426656986776 -0.19249999999999995 L 2.4383100377287743 -0.19249999999999995 L 2.4209517437530508 -0.19249999999999995 L 2.4001860743897696 -0.19249999999999995 L 2.376274169979695 -0.19249999999999995 L 2.349516736594795 -0.19249999999999995 L 2.3202502644849075 -0.19249999999999998 L 2.288842796517619 -0.19249999999999998 L 2.2556892998256535 -0.19249999999999998 L 2.2212066988660206 -0.19249999999999998 L 2.1858286323530587 -0.1925 L 2.15 -0.1925 " stroke="#191919" stroke-width="0.35 px" style="stroke-width:0.35;stroke-miterlimit:4;stroke-dasharray:none;fill:none;fill-opacity:1;fill-rule: evenodd"/>
<path id="Shape2DView_nwe0095"  d="M 2.15 -0.1925 L 1.95 -0.19250000000000006 " stroke="#191919" stroke-width="0.35 px" style="stroke-width:0.35;stroke-miterlimit:4;stroke-dasharray:none;fill:none;fill-opacity:1;fill-rule: evenodd"/>
<path id="Shape2DView_nwe0096"  d="M 3.0 0.1925 L 2.57 0.19249999999999992 " stroke="#191919" stroke-width="0.35 px" style="stroke-width:0.35;stroke-miterlimit:4;stroke-dasharray:none;fill:none;fill-opacity:1;fill-rule: evenodd"/>
<path id="Shape2DView_nwe0097"  d="M 2.5700000000000016 0.1925 L 2.5588035523896706 0.1925 L 2.54774790660437 0.1925 L 2.5369720938044846 0.1925 L 2.526611626088245 0.1925 L 2.516796792348467 0.1925 L 2.5076510198141273 0.1925 L 2.4992893218813457 0.19249999999999998 L 2.4918168517531973 0.19249999999999998 L 2.485327580077172 0.19249999999999998 L 2.479903113209758 0.19249999999999998 L 2.4756116669691632 0.19249999999999998 L 2.4725072087818174 0.19249999999999998 L 2.4706287790106756 0.19249999999999998 L 2.4699999999999998 0.19249999999999998 " stroke="#191919" stroke-width="0.35 px" style="stroke-width:0.35;stroke-miterlimit:4;stroke-dasharray:none;fill:none;fill-opacity:1;fill-rule: evenodd"/>
<path id="Shape2DView_nwe0098"  d="M 2.4699999999999998 0.1925000000000001 L 2.4679879071658375 0.1925000000000001 L 2.4619769318981835 0.19250000000000006 L 2.4520426656986776 0.19250000000000006 L 2.4383100377287743 0.19250000000000006 L 2.4209517437530508 0.19250000000000006 L 2.4001860743897696 0.19250000000000006 L 2.376274169979695 0.19250000000000006 L 2.349516736594795 0.19250000000000006 L 2.3202502644849075 0.19250000000000003 L 2.288842796517619 0.19250000000000003 L 2.2556892998256535 0.19250000000000003 L 2.2212066988660206 0.19250000000000003 L 2.1858286323530587 0.1925 L 2.15 0.1925 " stroke="#191919" stroke-width="0.35 px" style="stroke-width:0.35;stroke-miterlimit:4;stroke-dasharray:none;fill:none;fill-opacity:1;fill-rule: evenodd"/>
<path id="Shape2DView_nwe0099"  d="M 2.15 0.1925 L 1.95 0.19249999999999995 " stroke="#191919" stroke-width="0.35 px" style="stroke-width:0.35;stroke-miterlimit:4;stroke-dasharray:none;fill:none;fill-opacity:1;fill-rule: evenodd"/>
<path id="Shape2DView_nwe0100"  d="M -1.95 2.45 L -1.9 2.4 " stroke="#191919" stroke-width="0.35 px" style="stroke-width:0.35;stroke-miterlimit:4;stroke-dasharray:none;fill:none;fill-opacity:1;fill-rule: evenodd"/>
<path id="Shape2DView_nwe0101"  d="M 1.9 2.4 L -1.9 2.399999999999999 " stroke="#191919" stroke-width="0.35 px" style="stroke-width:0.35;stroke-miterlimit:4;stroke-dasharray:none;fill:none;fill-opacity:1;fill-rule: evenodd"/>
<path id="Shape2DView_nwe0102"  d="M -1.95 2.45 L -1.95 2.3475 " stroke="#191919" stroke-width="0.35 px" style="stroke-width:0.35;stroke-miterlimit:4;stroke-dasharray:none;fill:none;fill-opacity:1;fill-rule: evenodd"/>
<path id="Shape2DView_nwe0103"  d="M -1.9 -2.4 L 1.9 -2.399999999999999 " stroke="#191919" stroke-width="0.35 px" style="stroke-width:0.35;stroke-miterlimit:4;stroke-dasharray:none;fill:none;fill-opacity:1;fill-rule: evenodd"/>
<path id="Shape2DView_nwe0104"  d="M -1.79053337074 -2.29053337074 L 1.79053337074 -2.290533370739999 " stroke="#191919" stroke-width="0.35 px" style="stroke-width:0.35;stroke-miterlimit:4;stroke-dasharray:none;fill:none;fill-opacity:1;fill-rule: evenodd"/>
<path id="Shape2DView_nwe0105"  d="M -1.9 -2.4 L -1.79053337074 -2.29053337074 " stroke="#191919" stroke-width="0.35 px" style="stroke-width:0.35;stroke-miterlimit:4;stroke-dasharray:none;fill:none;fill-opacity:1;fill-rule: evenodd"/>
<path id="Shape2DView_nwe0106"  d="M -1.79053337074 2.29053337074 L -1.7905333707399989 -2.29053337074 " stroke="#191919" stroke-width="0.35 px" style="stroke-width:0.35;stroke-miterlimit:4;stroke-dasharray:none;fill:none;fill-opacity:1;fill-rule: evenodd"/>
<path id="Shape2DView_nwe0107"  d="M 1.79053337074 2.29053337074 L -1.79053337074 2.290533370739999 " stroke="#191919" stroke-width="0.35 px" style="stroke-width:0.35;stroke-miterlimit:4;stroke-dasharray:none;fill:none;fill-opacity:1;fill-rule: evenodd"/>
<circle cx="-1.09053337074" cy="1.59053337074" r="0.25" stroke="#191919" stroke-width="0.35 px" style="stroke-width:0.35;stroke-miterlimit:4;stroke-dasharray:none;fill:none"/>
<path id="Shape2DView_nwe0109"  d="M -1.9 2.4 L -1.79053337074 2.29053337074 " stroke="#191919" stroke-width="0.35 px" style="stroke-width:0.35;stroke-miterlimit:4;stroke-dasharray:none;fill:none;fill-opacity:1;fill-rule: evenodd"/>
<path id="Shape2DView_nwe0110"  d="M 2.47 1.7125 L 2.47 1.4625 " stroke="#191919" stroke-width="0.35 px" style="stroke-width:0.35;stroke-miterlimit:4;stroke-dasharray:none;fill:none;fill-opacity:1;fill-rule: evenodd"/>
<path id="Shape2DView_nwe0112"  d="M 3.0 1.7125 L 3.0 1.4625 " stroke="#191919" stroke-width="0.35 px" style="stroke-width:0.35;stroke-miterlimit:4;stroke-dasharray:none;fill:none;fill-opacity:1;fill-rule: evenodd"/>
<path id="Shape2DView_nwe0113"  d="M -1.9499999999999988 -2.3475 L -1.9499999999999988 -2.45 " stroke="#191919" stroke-width="0.35 px" style="stroke-width:0.35;stroke-miterlimit:4;stroke-dasharray:none;fill:none;fill-opacity:1;fill-rule: evenodd"/>
<path id="Shape2DView_nwe0114"  d="M -1.95 2.0975 L -1.9499999999999997 1.7125 " stroke="#191919" stroke-width="0.35 px" style="stroke-width:0.35;stroke-miterlimit:4;stroke-dasharray:none;fill:none;fill-opacity:1;fill-rule: evenodd"/>
<path id="Shape2DView_nwe0115"  d="M -1.949999999999999 -1.7124999999999995 L -1.9499999999999988 -2.0975 " stroke="#191919" stroke-width="0.35 px" style="stroke-width:0.35;stroke-miterlimit:4;stroke-dasharray:none;fill:none;fill-opacity:1;fill-rule: evenodd"/>
<path id="Shape2DView_nwe0116"  d="M -1.9499999999999997 1.4625 L -1.9499999999999997 1.0775 " stroke="#191919" stroke-width="0.35 px" style="stroke-width:0.35;stroke-miterlimit:4;stroke-dasharray:none;fill:none;fill-opacity:1;fill-rule: evenodd"/>
<path id="Shape2DView_nwe0117"  d="M -1.949999999999999 -1.0774999999999997 L -1.949999999999999 -1.4625 " stroke="#191919" stroke-width="0.35 px" style="stroke-width:0.35;stroke-miterlimit:4;stroke-dasharray:none;fill:none;fill-opacity:1;fill-rule: evenodd"/>
<path id="Shape2DView_nwe0118"  d="M -1.9499999999999995 0.8275000000000001 L -1.9499999999999995 0.4424999999999999 " stroke="#191919" stroke-width="0.35 px" style="stroke-width:0.35;stroke-miterlimit:4;stroke-dasharray:none;fill:none;fill-opacity:1;fill-rule: evenodd"/>
<path id="Shape2DView_nwe0119"  d="M -1.9499999999999993 -0.4424999999999999 L -1.9499999999999993 -0.8275000000000001 " stroke="#191919" stroke-width="0.35 px" style="stroke-width:0.35;stroke-miterlimit:4;stroke-dasharray:none;fill:none;fill-opacity:1;fill-rule: evenodd"/>
<path id="Shape2DView_nwe0120"  d="M -1.9499999999999995 0.1924999999999999 L -1.9499999999999993 -0.1924999999999999 " stroke="#191919" stroke-width="0.35 px" style="stroke-width:0.35;stroke-miterlimit:4;stroke-dasharray:none;fill:none;fill-opacity:1;fill-rule: evenodd"/>
<path id="Shape2DView_nwe0121"  d="M -1.95 -2.45 L -1.9 -2.4 " stroke="#191919" stroke-width="0.35 px" style="stroke-width:0.35;stroke-miterlimit:4;stroke-dasharray:none;fill:none;fill-opacity:1;fill-rule: evenodd"/>
<path id="Shape2DView_nwe0122"  d="M 2.47 -2.0975 L 2.47 -2.3475 " stroke="#191919" stroke-width="0.35 px" style="stroke-width:0.35;stroke-miterlimit:4;stroke-dasharray:none;fill:none;fill-opacity:1;fill-rule: evenodd"/>
<path id="Shape2DView_nwe0124"  d="M 3.0 -2.0975 L 3.0 -2.3475 " stroke="#191919" stroke-width="0.35 px" style="stroke-width:0.35;stroke-miterlimit:4;stroke-dasharray:none;fill:none;fill-opacity:1;fill-rule: evenodd"/>
<path id="Shape2DView_nwe0125"  d="M 2.47 -1.4625 L 2.47 -1.7125 " stroke="#191919" stroke-width="0.35 px" style="stroke-width:0.35;stroke-miterlimit:4;stroke-dasharray:none;fill:none;fill-opacity:1;fill-rule: evenodd"/>
<path id="Shape2DView_nwe0127"  d="M 3.0 -1.4625 L 3.0 -1.7125 " stroke="#191919" stroke-width="0.35 px" style="stroke-width:0.35;stroke-miterlimit:4;stroke-dasharray:none;fill:none;fill-opacity:1;fill-rule: evenodd"/>
<path id="Shape2DView_nwe0128"  d="M 2.47 -0.8275 L 2.47 -1.0775 " stroke="#191919" stroke-width="0.35 px" style="stroke-width:0.35;stroke-miterlimit:4;stroke-dasharray:none;fill:none;fill-opacity:1;fill-rule: evenodd"/>
<path id="Shape2DView_nwe0130"  d="M 3.0 -0.8275 L 3.0 -1.0775 " stroke="#191919" stroke-width="0.35 px" style="stroke-width:0.35;stroke-miterlimit:4;stroke-dasharray:none;fill:none;fill-opacity:1;fill-rule: evenodd"/>
<path id="Shape2DView_nwe0131"  d="M 2.47 1.0775 L 2.47 0.8275 " stroke="#191919" stroke-width="0.35 px" style="stroke-width:0.35;stroke-miterlimit:4;stroke-dasharray:none;fill:none;fill-opacity:1;fill-rule: evenodd"/>
<path id="Shape2DView_nwe0133"  d="M 3.0 1.0775 L 3.0 0.8275 " stroke="#191919" stroke-width="0.35 px" style="stroke-width:0.35;stroke-miterlimit:4;stroke-dasharray:none;fill:none;fill-opacity:1;fill-rule: evenodd"/>
<path id="Shape2DView_nwe0134"  d="M 2.47 -0.1925 L 2.47 -0.4425 " stroke="#191919" stroke-width="0.35 px" style="stroke-width:0.35;stroke-miterlimit:4;stroke-dasharray:none;fill:none;fill-opacity:1;fill-rule: evenodd"/>
<path id="Shape2DView_nwe0136"  d="M 3.0 -0.1925 L 3.0 -0.4425 " stroke="#191919" stroke-width="0.35 px" style="stroke-width:0.35;stroke-miterlimit:4;stroke-dasharray:none;fill:none;fill-opacity:1;fill-rule: evenodd"/>
<path id="Shape2DView_nwe0137"  d="M 2.47 0.4425 L 2.47 0.1925 " stroke="#191919" stroke-width="0.35 px" style="stroke-width:0.35;stroke-miterlimit:4;stroke-dasharray:none;fill:none;fill-opacity:1;fill-rule: evenodd"/>
<path id="Shape2DView_nwe0139"  d="M 3.0 0.4425 L 3.0 0.1925 " stroke="#191919" stroke-width="0.35 px" style="stroke-width:0.35;stroke-miterlimit:4;stroke-dasharray:none;fill:none;fill-opacity:1;fill-rule: evenodd"/>
<path id="Shape2DView_nwe0140"  d="M -1.9 2.4 L -1.9 2.3475 " stroke="#191919" stroke-width="0.35 px" style="stroke-width:0.35;stroke-miterlimit:4;stroke-dasharray:none;fill:none;fill-opacity:1;fill-rule: evenodd"/>
<path id="Shape2DView_nwe0141"  d="M -3.0 2.3475 L -2.57 2.3475 " stroke="#191919" stroke-width="0.35 px" style="stroke-width:0.35;stroke-miterlimit:4;stroke-dasharray:none;fill:none;fill-opacity:1;fill-rule: evenodd"/>
<path id="Shape2DView_nwe0142"  d="M -2.5700000000000016 2.3475 L -2.5588035523896706 2.3475 L -2.54774790660437 2.3475 L -2.5369720938044846 2.3475 L -2.526611626088245 2.3475 L -2.516796792348467 2.3475 L -2.5076510198141273 2.3475 L -2.4992893218813457 2.3475 L -2.4918168517531973 2.3475 L -2.485327580077172 2.3475 L -2.479903113209758 2.3475 L -2.4756116669691632 2.3475 L -2.4725072087818174 2.3475 L -2.4706287790106756 2.3475 L -2.4699999999999998 2.3475 " stroke="#191919" stroke-width="0.35 px" style="stroke-width:0.35;stroke-miterlimit:4;stroke-dasharray:none;fill:none;fill-opacity:1;fill-rule: evenodd"/>
<path id="Shape2DView_nwe0143"  d="M -2.4699999999999998 2.3475 L -2.4679879071658375 2.3475 L -2.4619769318981835 2.3475 L -2.4520426656986776 2.3475 L -2.4383100377287743 2.3475 L -2.4209517437530508 2.3475 L -2.4001860743897696 2.3475 L -2.376274169979695 2.3475 L -2.349516736594795 2.3475 L -2.3202502644849075 2.3475 L -2.288842796517619 2.3475 L -2.2556892998256535 2.3475 L -2.2212066988660206 2.3475 L -2.1858286323530587 2.3475 L -2.15 2.3475 " stroke="#191919" stroke-width="0.35 px" style="stroke-width:0.35;stroke-miterlimit:4;stroke-dasharray:none;fill:none;fill-opacity:1;fill-rule: evenodd"/>
<path id="Shape2DView_nwe0144"  d="M -2.15 2.3475 L -1.95 2.3475 " stroke="#191919" stroke-width="0.35 px" style="stroke-width:0.35;stroke-miterlimit:4;stroke-dasharray:none;fill:none;fill-opacity:1;fill-rule: evenodd"/>
<path id="Shape2DView_nwe0145"  d="M -1.9 2.3475 L -1.9 2.0975 " stroke="#191919" stroke-width="0.35 px" style="stroke-width:0.35;stroke-miterlimit:4;stroke-dasharray:none;fill:none;fill-opacity:1;fill-rule: evenodd"/>
<path id="Shape2DView_nwe0146"  d="M -1.9 2.0975 L -1.8999999999999997 1.7125 " stroke="#191919" stroke-width="0.35 px" style="stroke-width:0.35;stroke-miterlimit:4;stroke-dasharray:none;fill:none;fill-opacity:1;fill-rule: evenodd"/>
<path id="Shape2DView_nwe0147"  d="M -1.8999999999999997 1.7125 L -1.8999999999999997 1.4625 " stroke="#191919" stroke-width="0.35 px" style="stroke-width:0.35;stroke-miterlimit:4;stroke-dasharray:none;fill:none;fill-opacity:1;fill-rule: evenodd"/>
<path id="Shape2DView_nwe0148"  d="M -1.8999999999999997 1.4625 L -1.8999999999999997 1.0775 " stroke="#191919" stroke-width="0.35 px" style="stroke-width:0.35;stroke-miterlimit:4;stroke-dasharray:none;fill:none;fill-opacity:1;fill-rule: evenodd"/>
<path id="Shape2DView_nwe0149"  d="M -1.8999999999999997 1.0775 L -1.8999999999999995 0.8275000000000001 " stroke="#191919" stroke-width="0.35 px" style="stroke-width:0.35;stroke-miterlimit:4;stroke-dasharray:none;fill:none;fill-opacity:1;fill-rule: evenodd"/>
<path id="Shape2DView_nwe0150"  d="M -1.8999999999999995 0.8275000000000001 L -1.8999999999999995 0.4424999999999999 " stroke="#191919" stroke-width="0.35 px" style="stroke-width:0.35;stroke-miterlimit:4;stroke-dasharray:none;fill:none;fill-opacity:1;fill-rule: evenodd"/>
<path id="Shape2DView_nwe0151"  d="M -1.8999999999999995 0.4424999999999999 L -1.8999999999999995 0.1924999999999999 " stroke="#191919" stroke-width="0.35 px" style="stroke-width:0.35;stroke-miterlimit:4;stroke-dasharray:none;fill:none;fill-opacity:1;fill-rule: evenodd"/>
<path id="Shape2DView_nwe0152"  d="M -1.8999999999999995 0.1924999999999999 L -1.8999999999999992 -0.1924999999999999 " stroke="#191919" stroke-width="0.35 px" style="stroke-width:0.35;stroke-miterlimit:4;stroke-dasharray:none;fill:none;fill-opacity:1;fill-rule: evenodd"/>
<path id="Shape2DView_nwe0153"  d="M -1.8999999999999992 -0.1924999999999999 L -1.8999999999999992 -0.4424999999999999 " stroke="#191919" stroke-width="0.35 px" style="stroke-width:0.35;stroke-miterlimit:4;stroke-dasharray:none;fill:none;fill-opacity:1;fill-rule: evenodd"/>
<path id="Shape2DView_nwe0154"  d="M -1.8999999999999992 -0.4424999999999999 L -1.8999999999999992 -0.8275000000000001 " stroke="#191919" stroke-width="0.35 px" style="stroke-width:0.35;stroke-miterlimit:4;stroke-dasharray:none;fill:none;fill-opacity:1;fill-rule: evenodd"/>
<path id="Shape2DView_nwe0155"  d="M -1.8999999999999992 -0.8275000000000001 L -1.8999999999999992 -1.0775000000000001 " stroke="#191919" stroke-width="0.35 px" style="stroke-width:0.35;stroke-miterlimit:4;stroke-dasharray:none;fill:none;fill-opacity:1;fill-rule: evenodd"/>
<path id="Shape2DView_nwe0156"  d="M -1.8999999999999992 -1.0775000000000001 L -1.899999999999999 -1.4625 " stroke="#191919" stroke-width="0.35 px" style="stroke-width:0.35;stroke-miterlimit:4;stroke-dasharray:none;fill:none;fill-opacity:1;fill-rule: evenodd"/>
<path id="Shape2DView_nwe0157"  d="M -1.899999999999999 -1.4625 L -1.899999999999999 -1.7125 " stroke="#191919" stroke-width="0.35 px" style="stroke-width:0.35;stroke-miterlimit:4;stroke-dasharray:none;fill:none;fill-opacity:1;fill-rule: evenodd"/>
<path id="Shape2DView_nwe0158"  d="M -1.899999999999999 -1.7125 L -1.899999999999999 -2.0975000000000006 " stroke="#191919" stroke-width="0.35 px" style="stroke-width:0.35;stroke-miterlimit:4;stroke-dasharray:none;fill:none;fill-opacity:1;fill-rule: evenodd"/>
<path id="Shape2DView_nwe0159"  d="M -1.899999999999999 -2.0975000000000006 L -1.8999999999999988 -2.3475000000000006 " stroke="#191919" stroke-width="0.35 px" style="stroke-width:0.35;stroke-miterlimit:4;stroke-dasharray:none;fill:none;fill-opacity:1;fill-rule: evenodd"/>
<path id="Shape2DView_nwe0160"  d="M -1.8999999999999988 -2.3475000000000006 L -1.8999999999999988 -2.4 " stroke="#191919" stroke-width="0.35 px" style="stroke-width:0.35;stroke-miterlimit:4;stroke-dasharray:none;fill:none;fill-opacity:1;fill-rule: evenodd"/>
<path id="Shape2DView_nwe0161"  d="M -3.0 -2.3475 L -2.57 -2.3475 " stroke="#191919" stroke-width="0.35 px" style="stroke-width:0.35;stroke-miterlimit:4;stroke-dasharray:none;fill:none;fill-opacity:1;fill-rule: evenodd"/>
<path id="Shape2DView_nwe0162"  d="M -2.5700000000000016 -2.3475 L -2.5588035523896706 -2.3475 L -2.54774790660437 -2.3475 L -2.5369720938044846 -2.3475 L -2.526611626088245 -2.3475 L -2.516796792348467 -2.3475 L -2.5076510198141273 -2.3475 L -2.4992893218813457 -2.3475 L -2.4918168517531973 -2.3475 L -2.485327580077172 -2.3475 L -2.479903113209758 -2.3475 L -2.4756116669691632 -2.3475 L -2.4725072087818174 -2.3475 L -2.4706287790106756 -2.3475 L -2.4699999999999998 -2.3475 " stroke="#191919" stroke-width="0.35 px" style="stroke-width:0.35;stroke-miterlimit:4;stroke-dasharray:none;fill:none;fill-opacity:1;fill-rule: evenodd"/>
<path id="Shape2DView_nwe0163"  d="M -2.4699999999999998 -2.3475 L -2.4679879071658375 -2.3475 L -2.4619769318981835 -2.3475 L -2.4520426656986776 -2.3475 L -2.4383100377287743 -2.3475 L -2.4209517437530508 -2.3475 L -2.4001860743897696 -2.3475 L -2.376274169979695 -2.3475 L -2.349516736594795 -2.3475 L -2.3202502644849075 -2.3475 L -2.288842796517619 -2.3475 L -2.2556892998256535 -2.3475 L -2.2212066988660206 -2.3475 L -2.1858286323530587 -2.3475 L -2.15 -2.3475 " stroke="#191919" stroke-width="0.35 px" style="stroke-width:0.35;stroke-miterlimit:4;stroke-dasharray:none;fill:none;fill-opacity:1;fill-rule: evenodd"/>
<path id="Shape2DView_nwe0164"  d="M -2.15 -2.3475 L -1.95 -2.3475 " stroke="#191919" stroke-width="0.35 px" style="stroke-width:0.35;stroke-miterlimit:4;stroke-dasharray:none;fill:none;fill-opacity:1;fill-rule: evenodd"/>
<path id="Shape2DView_nwe0165"  d="M -3.0 2.0975 L -2.57 2.0975 " stroke="#191919" stroke-width="0.35 px" style="stroke-width:0.35;stroke-miterlimit:4;stroke-dasharray:none;fill:none;fill-opacity:1;fill-rule: evenodd"/>
<path id="Shape2DView_nwe0166"  d="M -2.5700000000000016 2.0975 L -2.5588035523896706 2.0975 L -2.54774790660437 2.0975 L -2.5369720938044846 2.0975 L -2.526611626088245 2.0975 L -2.516796792348467 2.0975 L -2.5076510198141273 2.0975 L -2.4992893218813457 2.0975 L -2.4918168517531973 2.0975 L -2.485327580077172 2.0975 L -2.479903113209758 2.0975 L -2.4756116669691632 2.0975 L -2.4725072087818174 2.0975 L -2.4706287790106756 2.0975 L -2.4699999999999998 2.0975 " stroke="#191919" stroke-width="0.35 px" style="stroke-width:0.35;stroke-miterlimit:4;stroke-dasharray:none;fill:none;fill-opacity:1;fill-rule: evenodd"/>
<path id="Shape2DView_nwe0167"  d="M -2.4699999999999998 2.0975 L -2.4679879071658375 2.0975 L -2.4619769318981835 2.0975 L -2.4520426656986776 2.0975 L -2.4383100377287743 2.0975 L -2.4209517437530508 2.0975 L -2.4001860743897696 2.0975 L -2.376274169979695 2.0975 L -2.349516736594795 2.0975 L -2.3202502644849075 2.0975 L -2.288842796517619 2.0975 L -2.2556892998256535 2.0975 L -2.2212066988660206 2.0975 L -2.1858286323530587 2.0975 L -2.15 2.0975 " stroke="#191919" stroke-width="0.35 px" style="stroke-width:0.35;stroke-miterlimit:4;stroke-dasharray:none;fill:none;fill-opacity:1;fill-rule: evenodd"/>
<path id="Shape2DView_nwe0168"  d="M -2.15 2.0975 L -1.95 2.0975 " stroke="#191919" stroke-width="0.35 px" style="stroke-width:0.35;stroke-miterlimit:4;stroke-dasharray:none;fill:none;fill-opacity:1;fill-rule: evenodd"/>
<path id="Shape2DView_nwe0169"  d="M -3.0 -2.0975 L -2.57 -2.0975 " stroke="#191919" stroke-width="0.35 px" style="stroke-width:0.35;stroke-miterlimit:4;stroke-dasharray:none;fill:none;fill-opacity:1;fill-rule: evenodd"/>
<path id="Shape2DView_nwe0170"  d="M -2.5700000000000016 -2.0975 L -2.5588035523896706 -2.0975 L -2.54774790660437 -2.0975 L -2.5369720938044846 -2.0975 L -2.526611626088245 -2.0975 L -2.516796792348467 -2.0975 L -2.5076510198141273 -2.0975 L -2.4992893218813457 -2.0975 L -2.4918168517531973 -2.0975 L -2.485327580077172 -2.0975 L -2.479903113209758 -2.0975 L -2.4756116669691632 -2.0975 L -2.4725072087818174 -2.0975 L -2.4706287790106756 -2.0975 L -2.4699999999999998 -2.0975 " stroke="#191919" stroke-width="0.35 px" style="stroke-width:0.35;stroke-miterlimit:4;stroke-dasharray:none;fill:none;fill-opacity:1;fill-rule: evenodd"/>
<path id="Shape2DView_nwe0171"  d="M -2.4699999999999998 -2.0975 L -2.4679879071658375 -2.0975 L -2.4619769318981835 -2.0975 L -2.4520426656986776 -2.0975 L -2.4383100377287743 -2.0975 L -2.4209517437530508 -2.0975 L -2.4001860743897696 -2.0975 L -2.376274169979695 -2.0975 L -2.349516736594795 -2.0975 L -2.3202502644849075 -2.0975 L -2.288842796517619 -2.0975 L -2.2556892998256535 -2.0975 L -2.2212066988660206 -2.0975 L -2.1858286323530587 -2.0975 L -2.15 -2.0975 " stroke="#191919" stroke-width="0.35 px" style="stroke-width:0.35;stroke-miterlimit:4;stroke-dasharray:none;fill:none;fill-opacity:1;fill-rule: evenodd"/>
<path id="Shape2DView_nwe0172"  d="M -2.15 -2.0975 L -1.95 -2.0975 " stroke="#191919" stroke-width="0.35 px" style="stroke-width:0.35;stroke-miterlimit:4;stroke-dasharray:none;fill:none;fill-opacity:1;fill-rule: evenodd"/>
<path id="Shape2DView_nwe0173"  d="M -3.0 1.7125 L -2.57 1.7125 " stroke="#191919" stroke-width="0.35 px" style="stroke-width:0.35;stroke-miterlimit:4;stroke-dasharray:none;fill:none;fill-opacity:1;fill-rule: evenodd"/>
<path id="Shape2DView_nwe0174"  d="M -2.5700000000000016 1.7125 L -2.5588035523896706 1.7125 L -2.54774790660437 1.7125 L -2.5369720938044846 1.7125 L -2.526611626088245 1.7125 L -2.516796792348467 1.7125 L -2.5076510198141273 1.7125 L -2.4992893218813457 1.7125 L -2.4918168517531973 1.7125 L -2.485327580077172 1.7125 L -2.479903113209758 1.7125 L -2.4756116669691632 1.7125 L -2.4725072087818174 1.7125 L -2.4706287790106756 1.7125 L -2.4699999999999998 1.7125 " stroke="#191919" stroke-width="0.35 px" style="stroke-width:0.35;stroke-miterlimit:4;stroke-dasharray:none;fill:none;fill-opacity:1;fill-rule: evenodd"/>
<path id="Shape2DView_nwe0175"  d="M -2.4699999999999998 1.7125 L -2.4679879071658375 1.7125 L -2.4619769318981835 1.7125 L -2.4520426656986776 1.7125 L -2.4383100377287743 1.7125 L -2.4209517437530508 1.7125 L -2.4001860743897696 1.7125 L -2.376274169979695 1.7125 L -2.349516736594795 1.7125 L -2.3202502644849075 1.7125 L -2.288842796517619 1.7125 L -2.2556892998256535 1.7125 L -2.2212066988660206 1.7125 L -2.1858286323530587 1.7125 L -2.15 1.7125 " stroke="#191919" stroke-width="0.35 px" style="stroke-width:0.35;stroke-miterlimit:4;stroke-dasharray:none;fill:none;fill-opacity:1;fill-rule: evenodd"/>
<path id="Shape2DView_nwe0176"  d="M -2.15 1.7125 L -1.95 1.7125 " stroke="#191919" stroke-width="0.35 px" style="stroke-width:0.35;stroke-miterlimit:4;stroke-dasharray:none;fill:none;fill-opacity:1;fill-rule: evenodd"/>
<path id="Shape2DView_nwe0177"  d="M -3.0 -1.7125 L -2.57 -1.7125 " stroke="#191919" stroke-width="0.35 px" style="stroke-width:0.35;stroke-miterlimit:4;stroke-dasharray:none;fill:none;fill-opacity:1;fill-rule: evenodd"/>
<path id="Shape2DView_nwe0178"  d="M -2.5700000000000016 -1.7125 L -2.5588035523896706 -1.7125 L -2.54774790660437 -1.7125 L -2.5369720938044846 -1.7125 L -2.526611626088245 -1.7125 L -2.516796792348467 -1.7125 L -2.5076510198141273 -1.7125 L -2.4992893218813457 -1.7125 L -2.4918168517531973 -1.7125 L -2.485327580077172 -1.7125 L -2.479903113209758 -1.7125 L -2.4756116669691632 -1.7125 L -2.4725072087818174 -1.7125 L -2.4706287790106756 -1.7125 L -2.4699999999999998 -1.7125 " stroke="#191919" stroke-width="0.35 px" style="stroke-width:0.35;stroke-miterlimit:4;stroke-dasharray:none;fill:none;fill-opacity:1;fill-rule: evenodd"/>
<path id="Shape2DView_nwe0179"  d="M -2.4699999999999998 -1.7125 L -2.4679879071658375 -1.7125 L -2.4619769318981835 -1.7125 L -2.4520426656986776 -1.7125 L -2.4383100377287743 -1.7125 L -2.4209517437530508 -1.7125 L -2.4001860743897696 -1.7125 L -2.376274169979695 -1.7125 L -2.349516736594795 -1.7125 L -2.3202502644849075 -1.7125 L -2.288842796517619 -1.7125 L -2.2556892998256535 -1.7125 L -2.2212066988660206 -1.7125 L -2.1858286323530587 -1.7125 L -2.15 -1.7125 " stroke="#191919" stroke-width="0.35 px" style="stroke-width:0.35;stroke-miterlimit:4;stroke-dasharray:none;fill:none;fill-opacity:1;fill-rule: evenodd"/>
<path id="Shape2DView_nwe0180"  d="M -2.15 -1.7125 L -1.95 -1.7125 " stroke="#191919" stroke-width="0.35 px" style="stroke-width:0.35;stroke-miterlimit:4;stroke-dasharray:none;fill:none;fill-opacity:1;fill-rule: evenodd"/>
<path id="Shape2DView_nwe0181"  d="M -3.0 1.4625 L -2.57 1.4625 " stroke="#191919" stroke-width="0.35 px" style="stroke-width:0.35;stroke-miterlimit:4;stroke-dasharray:none;fill:none;fill-opacity:1;fill-rule: evenodd"/>
<path id="Shape2DView_nwe0182"  d="M -2.5700000000000016 1.4625 L -2.5588035523896706 1.4625 L -2.54774790660437 1.4625 L -2.5369720938044846 1.4625 L -2.526611626088245 1.4625 L -2.516796792348467 1.4625 L -2.5076510198141273 1.4625 L -2.4992893218813457 1.4625 L -2.4918168517531973 1.4625 L -2.485327580077172 1.4625 L -2.479903113209758 1.4625 L -2.4756116669691632 1.4625 L -2.4725072087818174 1.4625 L -2.4706287790106756 1.4625 L -2.4699999999999998 1.4625 " stroke="#191919" stroke-width="0.35 px" style="stroke-width:0.35;stroke-miterlimit:4;stroke-dasharray:none;fill:none;fill-opacity:1;fill-rule: evenodd"/>
<path id="Shape2DView_nwe0183"  d="M -2.4699999999999998 1.4625 L -2.4679879071658375 1.4625 L -2.4619769318981835 1.4625 L -2.4520426656986776 1.4625 L -2.4383100377287743 1.4625 L -2.4209517437530508 1.4625 L -2.4001860743897696 1.4625 L -2.376274169979695 1.4625 L -2.349516736594795 1.4625 L -2.3202502644849075 1.4625 L -2.288842796517619 1.4625 L -2.2556892998256535 1.4625 L -2.2212066988660206 1.4625 L -2.1858286323530587 1.4625 L -2.15 1.4625 " stroke="#191919" stroke-width="0.35 px" style="stroke-width:0.35;stroke-miterlimit:4;stroke-dasharray:none;fill:none;fill-opacity:1;fill-rule: evenodd"/>
<path id="Shape2DView_nwe0184"  d="M -2.15 1.4625 L -1.95 1.4625 " stroke="#191919" stroke-width="0.35 px" style="stroke-width:0.35;stroke-miterlimit:4;stroke-dasharray:none;fill:none;fill-opacity:1;fill-rule: evenodd"/>
<path id="Shape2DView_nwe0185"  d="M -3.0 -1.4625 L -2.57 -1.4625 " stroke="#191919" stroke-width="0.35 px" style="stroke-width:0.35;stroke-miterlimit:4;stroke-dasharray:none;fill:none;fill-opacity:1;fill-rule: evenodd"/>
<path id="Shape2DView_nwe0186"  d="M -2.5700000000000016 -1.4625 L -2.5588035523896706 -1.4625 L -2.54774790660437 -1.4625 L -2.5369720938044846 -1.4625 L -2.526611626088245 -1.4625 L -2.516796792348467 -1.4625 L -2.5076510198141273 -1.4625 L -2.4992893218813457 -1.4625 L -2.4918168517531973 -1.4625 L -2.485327580077172 -1.4625 L -2.479903113209758 -1.4625 L -2.4756116669691632 -1.4625 L -2.4725072087818174 -1.4625 L -2.4706287790106756 -1.4625 L -2.4699999999999998 -1.4625 " stroke="#191919" stroke-width="0.35 px" style="stroke-width:0.35;stroke-miterlimit:4;stroke-dasharray:none;fill:none;fill-opacity:1;fill-rule: evenodd"/>
<path id="Shape2DView_nwe0187"  d="M -2.4699999999999998 -1.4625 L -2.4679879071658375 -1.4625 L -2.4619769318981835 -1.4625 L -2.4520426656986776 -1.4625 L -2.4383100377287743 -1.4625 L -2.4209517437530508 -1.4625 L -2.4001860743897696 -1.4625 L -2.376274169979695 -1.4625 L -2.349516736594795 -1.4625 L -2.3202502644849075 -1.4625 L -2.288842796517619 -1.4625 L -2.2556892998256535 -1.4625 L -2.2212066988660206 -1.4625 L -2.1858286323530587 -1.4625 L -2.15 -1.4625 " stroke="#191919" stroke-width="0.35 px" style="stroke-width:0.35;stroke-miterlimit:4;stroke-dasharray:none;fill:none;fill-opacity:1;fill-rule: evenodd"/>
<path id="Shape2DView_nwe0188"  d="M -2.15 -1.4625 L -1.95 -1.4625 " stroke="#191919" stroke-width="0.35 px" style="stroke-width:0.35;stroke-miterlimit:4;stroke-dasharray:none;fill:none;fill-opacity:1;fill-rule: evenodd"/>
<path id="Shape2DView_nwe0189"  d="M -3.0 1.0775 L -2.57 1.0775 " stroke="#191919" stroke-width="0.35 px" style="stroke-width:0.35;stroke-miterlimit:4;stroke-dasharray:none;fill:none;fill-opacity:1;fill-rule: evenodd"/>
<path id="Shape2DView_nwe0190"  d="M -2.5700000000000016 1.0775 L -2.5588035523896706 1.0775 L -2.54774790660437 1.0775 L -2.5369720938044846 1.0775 L -2.526611626088245 1.0775 L -2.516796792348467 1.0775 L -2.5076510198141273 1.0775 L -2.4992893218813457 1.0775 L -2.4918168517531973 1.0775 L -2.485327580077172 1.0775 L -2.479903113209758 1.0775 L -2.4756116669691632 1.0775 L -2.4725072087818174 1.0775 L -2.4706287790106756 1.0775 L -2.4699999999999998 1.0775 " stroke="#191919" stroke-width="0.35 px" style="stroke-width:0.35;stroke-miterlimit:4;stroke-dasharray:none;fill:none;fill-opacity:1;fill-rule: evenodd"/>
<path id="Shape2DView_nwe0191"  d="M -2.4699999999999998 1.0775 L -2.4679879071658375 1.0775 L -2.4619769318981835 1.0775 L -2.4520426656986776 1.0775 L -2.4383100377287743 1.0775 L -2.4209517437530508 1.0775 L -2.4001860743897696 1.0775 L -2.376274169979695 1.0775 L -2.349516736594795 1.0775 L -2.3202502644849075 1.0775 L -2.288842796517619 1.0775 L -2.2556892998256535 1.0775 L -2.2212066988660206 1.0775 L -2.1858286323530587 1.0775 L -2.15 1.0775 " stroke="#191919" stroke-width="0.35 px" style="stroke-width:0.35;stroke-miterlimit:4;stroke-dasharray:none;fill:none;fill-opacity:1;fill-rule: evenodd"/>
<path id="Shape2DView_nwe0192"  d="M -2.15 1.0775 L -1.95 1.0775 " stroke="#191919" stroke-width="0.35 px" style="stroke-width:0.35;stroke-miterlimit:4;stroke-dasharray:none;fill:none;fill-opacity:1;fill-rule: evenodd"/>
<path id="Shape2DView_nwe0193"  d="M -3.0 -1.0775 L -2.57 -1.0775 " stroke="#191919" stroke-width="0.35 px" style="stroke-width:0.35;stroke-miterlimit:4;stroke-dasharray:none;fill:none;fill-opacity:1;fill-rule: evenodd"/>
<path id="Shape2DView_nwe0194"  d="M -2.5700000000000016 -1.0775 L -2.5588035523896706 -1.0775 L -2.54774790660437 -1.0775 L -2.5369720938044846 -1.0775 L -2.526611626088245 -1.0775 L -2.516796792348467 -1.0775 L -2.5076510198141273 -1.0775 L -2.4992893218813457 -1.0775 L -2.4918168517531973 -1.0775 L -2.485327580077172 -1.0775 L -2.479903113209758 -1.0775 L -2.4756116669691632 -1.0775 L -2.4725072087818174 -1.0775 L -2.4706287790106756 -1.0775 L -2.4699999999999998 -1.0775 " stroke="#191919" stroke-width="0.35 px" style="stroke-width:0.35;stroke-miterlimit:4;stroke-dasharray:none;fill:none;fill-opacity:1;fill-rule: evenodd"/>
<path id="Shape2DView_nwe0195"  d="M -2.4699999999999998 -1.0775 L -2.4679879071658375 -1.0775 L -2.4619769318981835 -1.0775 L -2.4520426656986776 -1.0775 L -2.4383100377287743 -1.0775 L -2.4209517437530508 -1.0775 L -2.4001860743897696 -1.0775 L -2.376274169979695 -1.0775 L -2.349516736594795 -1.0775 L -2.3202502644849075 -1.0775 L -2.288842796517619 -1.0775 L -2.2556892998256535 -1.0775 L -2.2212066988660206 -1.0775 L -2.1858286323530587 -1.0775 L -2.15 -1.0775 " stroke="#191919" stroke-width="0.35 px" style="stroke-width:0.35;stroke-miterlimit:4;stroke-dasharray:none;fill:none;fill-opacity:1;fill-rule: evenodd"/>
<path id="Shape2DView_nwe0196"  d="M -2.15 -1.0775 L -1.95 -1.0775 " stroke="#191919" stroke-width="0.35 px" style="stroke-width:0.35;stroke-miterlimit:4;stroke-dasharray:none;fill:none;fill-opacity:1;fill-rule: evenodd"/>
<path id="Shape2DView_nwe0197"  d="M -3.0 0.8275 L -2.57 0.8275 " stroke="#191919" stroke-width="0.35 px" style="stroke-width:0.35;stroke-miterlimit:4;stroke-dasharray:none;fill:none;fill-opacity:1;fill-rule: evenodd"/>
<path id="Shape2DView_nwe0198"  d="M -2.5700000000000016 0.8275 L -2.5588035523896706 0.8275 L -2.54774790660437 0.8275 L -2.5369720938044846 0.8275 L -2.526611626088245 0.8275 L -2.516796792348467 0.8275 L -2.5076510198141273 0.8275 L -2.4992893218813457 0.8275 L -2.4918168517531973 0.8275 L -2.485327580077172 0.8275 L -2.479903113209758 0.8275 L -2.4756116669691632 0.8275 L -2.4725072087818174 0.8275 L -2.4706287790106756 0.8275 L -2.4699999999999998 0.8275 " stroke="#191919" stroke-width="0.35 px" style="stroke-width:0.35;stroke-miterlimit:4;stroke-dasharray:none;fill:none;fill-opacity:1;fill-rule: evenodd"/>
<path id="Shape2DView_nwe0199"  d="M -2.4699999999999998 0.8275 L -2.4679879071658375 0.8275 L -2.4619769318981835 0.8275 L -2.4520426656986776 0.8275 L -2.4383100377287743 0.8275 L -2.4209517437530508 0.8275 L -2.4001860743897696 0.8275 L -2.376274169979695 0.8275 L -2.349516736594795 0.8275 L -2.3202502644849075 0.8275 L -2.288842796517619 0.8275 L -2.2556892998256535 0.8275 L -2.2212066988660206 0.8275 L -2.1858286323530587 0.8275 L -2.15 0.8275 " stroke="#191919" stroke-width="0.35 px" style="stroke-width:0.35;stroke-miterlimit:4;stroke-dasharray:none;fill:none;fill-opacity:1;fill-rule: evenodd"/>
<path id="Shape2DView_nwe0200"  d="M -2.15 0.8275 L -1.95 0.8275 " stroke="#191919" stroke-width="0.35 px" style="stroke-width:0.35;stroke-miterlimit:4;stroke-dasharray:none;fill:none;fill-opacity:1;fill-rule: evenodd"/>
<path id="Shape2DView_nwe0201"  d="M -3.0 -0.8275 L -2.57 -0.8275 " stroke="#191919" stroke-width="0.35 px" style="stroke-width:0.35;stroke-miterlimit:4;stroke-dasharray:none;fill:none;fill-opacity:1;fill-rule: evenodd"/>
<path id="Shape2DView_nwe0202"  d="M -2.5700000000000016 -0.8275 L -2.5588035523896706 -0.8275 L -2.54774790660437 -0.8275 L -2.5369720938044846 -0.8275 L -2.526611626088245 -0.8275 L -2.516796792348467 -0.8275 L -2.5076510198141273 -0.8275 L -2.4992893218813457 -0.8275 L -2.4918168517531973 -0.8275 L -2.485327580077172 -0.8275 L -2.479903113209758 -0.8275 L -2.4756116669691632 -0.8275 L -2.4725072087818174 -0.8275 L -2.4706287790106756 -0.8275 L -2.4699999999999998 -0.8275 " stroke="#191919" stroke-width="0.35 px" style="stroke-width:0.35;stroke-miterlimit:4;stroke-dasharray:none;fill:none;fill-opacity:1;fill-rule: evenodd"/>
<path id="Shape2DView_nwe0203"  d="M -2.4699999999999998 -0.8275 L -2.4679879071658375 -0.8275 L -2.4619769318981835 -0.8275 L -2.4520426656986776 -0.8275 L -2.4383100377287743 -0.8275 L -2.4209517437530508 -0.8275 L -2.4001860743897696 -0.8275 L -2.376274169979695 -0.8275 L -2.349516736594795 -0.8275 L -2.3202502644849075 -0.8275 L -2.288842796517619 -0.8275 L -2.2556892998256535 -0.8275 L -2.2212066988660206 -0.8275 L -2.1858286323530587 -0.8275 L -2.15 -0.8275 " stroke="#191919" stroke-width="0.35 px" style="stroke-width:0.35;stroke-miterlimit:4;stroke-dasharray:none;fill:none;fill-opacity:1;fill-rule: evenodd"/>
<path id="Shape2DView_nwe0204"  d="M -2.15 -0.8275 L -1.95 -0.8275 " stroke="#191919" stroke-width="0.35 px" style="stroke-width:0.35;stroke-miterlimit:4;stroke-dasharray:none;fill:none;fill-opacity:1;fill-rule: evenodd"/>
<path id="Shape2DView_nwe0205"  d="M -3.0 0.4425 L -2.57 0.44250000000000006 " stroke="#191919" stroke-width="0.35 px" style="stroke-width:0.35;stroke-miterlimit:4;stroke-dasharray:none;fill:none;fill-opacity:1;fill-rule: evenodd"/>
<path id="Shape2DView_nwe0206"  d="M -2.5700000000000016 0.4425 L -2.5588035523896706 0.4425 L -2.54774790660437 0.4425 L -2.5369720938044846 0.4425 L -2.526611626088245 0.4425 L -2.516796792348467 0.4425 L -2.5076510198141273 0.4425 L -2.4992893218813457 0.4425 L -2.4918168517531973 0.4425 L -2.485327580077172 0.4425 L -2.479903113209758 0.4425 L -2.4756116669691632 0.4425 L -2.4725072087818174 0.4425 L -2.4706287790106756 0.4425 L -2.4699999999999998 0.4425 " stroke="#191919" stroke-width="0.35 px" style="stroke-width:0.35;stroke-miterlimit:4;stroke-dasharray:none;fill:none;fill-opacity:1;fill-rule: evenodd"/>
<path id="Shape2DView_nwe0207"  d="M -2.4699999999999998 0.44249999999999995 L -2.4679879071658375 0.44249999999999995 L -2.4619769318981835 0.44249999999999995 L -2.4520426656986776 0.44249999999999995 L -2.4383100377287743 0.44249999999999995 L -2.4209517437530508 0.4425 L -2.4001860743897696 0.4425 L -2.376274169979695 0.4425 L -2.349516736594795 0.4425 L -2.3202502644849075 0.4425 L -2.288842796517619 0.4425 L -2.2556892998256535 0.4425 L -2.2212066988660206 0.4425 L -2.1858286323530587 0.4425 L -2.15 0.4425 " stroke="#191919" stroke-width="0.35 px" style="stroke-width:0.35;stroke-miterlimit:4;stroke-dasharray:none;fill:none;fill-opacity:1;fill-rule: evenodd"/>
<path id="Shape2DView_nwe0208"  d="M -2.15 0.4425 L -1.95 0.4425 " stroke="#191919" stroke-width="0.35 px" style="stroke-width:0.35;stroke-miterlimit:4;stroke-dasharray:none;fill:none;fill-opacity:1;fill-rule: evenodd"/>
<path id="Shape2DView_nwe0209"  d="M -3.0 -0.4425 L -2.57 -0.44249999999999995 " stroke="#191919" stroke-width="0.35 px" style="stroke-width:0.35;stroke-miterlimit:4;stroke-dasharray:none;fill:none;fill-opacity:1;fill-rule: evenodd"/>
<path id="Shape2DView_nwe0210"  d="M -2.5700000000000016 -0.4425 L -2.5588035523896706 -0.4425 L -2.54774790660437 -0.4425 L -2.5369720938044846 -0.4425 L -2.526611626088245 -0.4425 L -2.516796792348467 -0.4425 L -2.5076510198141273 -0.4425 L -2.4992893218813457 -0.4425 L -2.4918168517531973 -0.4425 L -2.485327580077172 -0.4425 L -2.479903113209758 -0.4425 L -2.4756116669691632 -0.4425 L -2.4725072087818174 -0.4425 L -2.4706287790106756 -0.4425 L -2.4699999999999998 -0.4425 " stroke="#191919" stroke-width="0.35 px" style="stroke-width:0.35;stroke-miterlimit:4;stroke-dasharray:none;fill:none;fill-opacity:1;fill-rule: evenodd"/>
<path id="Shape2DView_nwe0211"  d="M -2.4699999999999998 -0.44250000000000006 L -2.4679879071658375 -0.44250000000000006 L -2.4619769318981835 -0.44250000000000006 L -2.4520426656986776 -0.44250000000000006 L -2.4383100377287743 -0.44250000000000006 L -2.4209517437530508 -0.4425 L -2.4001860743897696 -0.4425 L -2.376274169979695 -0.4425 L -2.349516736594795 -0.4425 L -2.3202502644849075 -0.4425 L -2.288842796517619 -0.4425 L -2.2556892998256535 -0.4425 L -2.2212066988660206 -0.4425 L -2.1858286323530587 -0.4425 L -2.15 -0.4425 " stroke="#191919" stroke-width="0.35 px" style="stroke-width:0.35;stroke-miterlimit:4;stroke-dasharray:none;fill:none;fill-opacity:1;fill-rule: evenodd"/>
<path id="Shape2DView_nwe0212"  d="M -2.15 -0.4425 L -1.95 -0.4425 " stroke="#191919" stroke-width="0.35 px" style="stroke-width:0.35;stroke-miterlimit:4;stroke-dasharray:none;fill:none;fill-opacity:1;fill-rule: evenodd"/>
<path id="Shape2DView_nwe0213"  d="M -3.0 0.1925 L -2.57 0.19250000000000006 " stroke="#191919" stroke-width="0.35 px" style="stroke-width:0.35;stroke-miterlimit:4;stroke-dasharray:none;fill:none;fill-opacity:1;fill-rule: evenodd"/>
<path id="Shape2DView_nwe0214"  d="M -2.5700000000000016 0.1925 L -2.5588035523896706 0.1925 L -2.54774790660437 0.1925 L -2.5369720938044846 0.1925 L -2.526611626088245 0.1925 L -2.516796792348467 0.1925 L -2.5076510198141273 0.1925 L -2.4992893218813457 0.1925 L -2.4918168517531973 0.1925 L -2.485327580077172 0.1925 L -2.479903113209758 0.1925 L -2.4756116669691632 0.1925 L -2.4725072087818174 0.1925 L -2.4706287790106756 0.1925 L -2.4699999999999998 0.1925 " stroke="#191919" stroke-width="0.35 px" style="stroke-width:0.35;stroke-miterlimit:4;stroke-dasharray:none;fill:none;fill-opacity:1;fill-rule: evenodd"/>
<path id="Shape2DView_nwe0215"  d="M -2.4699999999999998 0.19249999999999998 L -2.4679879071658375 0.19249999999999998 L -2.4619769318981835 0.19249999999999998 L -2.4520426656986776 0.19249999999999998 L -2.4383100377287743 0.19249999999999998 L -2.4209517437530508 0.19249999999999998 L -2.4001860743897696 0.19249999999999998 L -2.376274169979695 0.19249999999999998 L -2.349516736594795 0.19249999999999998 L -2.3202502644849075 0.19249999999999998 L -2.288842796517619 0.1925 L -2.2556892998256535 0.1925 L -2.2212066988660206 0.1925 L -2.1858286323530587 0.1925 L -2.15 0.1925 " stroke="#191919" stroke-width="0.35 px" style="stroke-width:0.35;stroke-miterlimit:4;stroke-dasharray:none;fill:none;fill-opacity:1;fill-rule: evenodd"/>
<path id="Shape2DView_nwe0216"  d="M -2.15 0.1925 L -1.95 0.19250000000000003 " stroke="#191919" stroke-width="0.35 px" style="stroke-width:0.35;stroke-miterlimit:4;stroke-dasharray:none;fill:none;fill-opacity:1;fill-rule: evenodd"/>
<path id="Shape2DView_nwe0217"  d="M -3.0 -0.1925 L -2.57 -0.19249999999999995 " stroke="#191919" stroke-width="0.35 px" style="stroke-width:0.35;stroke-miterlimit:4;stroke-dasharray:none;fill:none;fill-opacity:1;fill-rule: evenodd"/>
<path id="Shape2DView_nwe0218"  d="M -2.5700000000000016 -0.1925 L -2.5588035523896706 -0.1925 L -2.54774790660437 -0.1925 L -2.5369720938044846 -0.1925 L -2.526611626088245 -0.1925 L -2.516796792348467 -0.1925 L -2.5076510198141273 -0.1925 L -2.4992893218813457 -0.1925 L -2.4918168517531973 -0.1925 L -2.485327580077172 -0.1925 L -2.479903113209758 -0.1925 L -2.4756116669691632 -0.1925 L -2.4725072087818174 -0.1925 L -2.4706287790106756 -0.1925 L -2.4699999999999998 -0.1925 " stroke="#191919" stroke-width="0.35 px" style="stroke-width:0.35;stroke-miterlimit:4;stroke-dasharray:none;fill:none;fill-opacity:1;fill-rule: evenodd"/>
<path id="Shape2DView_nwe0219"  d="M -2.4699999999999998 -0.19250000000000003 L -2.4679879071658375 -0.19250000000000003 L -2.4619769318981835 -0.19250000000000003 L -2.4520426656986776 -0.19250000000000003 L -2.4383100377287743 -0.19250000000000003 L -2.4209517437530508 -0.19250000000000003 L -2.4001860743897696 -0.19250000000000003 L -2.376274169979695 -0.19250000000000003 L -2.349516736594795 -0.19250000000000003 L -2.3202502644849075 -0.19250000000000003 L -2.288842796517619 -0.1925 L -2.2556892998256535 -0.1925 L -2.2212066988660206 -0.1925 L -2.1858286323530587 -0.1925 L -2.15 -0.1925 " stroke="#191919" stroke-width="0.35 px" style="stroke-width:0.35;stroke-miterlimit:4;stroke-dasharray:none;fill:none;fill-opacity:1;fill-rule: evenodd"/>
<path id="Shape2DView_nwe0220"  d="M -2.15 -0.1925 L -1.95 -0.19249999999999998 " stroke="#191919" stroke-width="0.35 px" style="stroke-width:0.35;stroke-miterlimit:4;stroke-dasharray:none;fill:none;fill-opacity:1;fill-rule: evenodd"/>
<path id="Shape2DView_nwe0221"  d="M -2.47 2.0975 L -2.47 2.3475 " stroke="#191919" stroke-width="0.35 px" style="stroke-width:0.35;stroke-miterlimit:4;stroke-dasharray:none;fill:none;fill-opacity:1;fill-rule: evenodd"/>
<path id="Shape2DView_nwe0223"  d="M -3.0 2.0975 L -3.0 2.3475 " stroke="#191919" stroke-width="0.35 px" style="stroke-width:0.35;stroke-miterlimit:4;stroke-dasharray:none;fill:none;fill-opacity:1;fill-rule: evenodd"/>
<path id="Shape2DView_nwe0224"  d="M -2.47 -2.3475 L -2.47 -2.0975 " stroke="#191919" stroke-width="0.35 px" style="stroke-width:0.35;stroke-miterlimit:4;stroke-dasharray:none;fill:none;fill-opacity:1;fill-rule: evenodd"/>
<path id="Shape2DView_nwe0225"  d="M -3.0 -2.3475 L -3.0 -2.0975 " stroke="#191919" stroke-width="0.35 px" style="stroke-width:0.35;stroke-miterlimit:4;stroke-dasharray:none;fill:none;fill-opacity:1;fill-rule: evenodd"/>
<path id="Shape2DView_nwe0226"  d="M -2.47 1.4625 L -2.47 1.7125 " stroke="#191919" stroke-width="0.35 px" style="stroke-width:0.35;stroke-miterlimit:4;stroke-dasharray:none;fill:none;fill-opacity:1;fill-rule: evenodd"/>
<path id="Shape2DView_nwe0228"  d="M -3.0 1.4625 L -3.0 1.7125 " stroke="#191919" stroke-width="0.35 px" style="stroke-width:0.35;stroke-miterlimit:4;stroke-dasharray:none;fill:none;fill-opacity:1;fill-rule: evenodd"/>
<path id="Shape2DView_nwe0229"  d="M -2.47 -1.7125 L -2.47 -1.4625 " stroke="#191919" stroke-width="0.35 px" style="stroke-width:0.35;stroke-miterlimit:4;stroke-dasharray:none;fill:none;fill-opacity:1;fill-rule: evenodd"/>
<path id="Shape2DView_nwe0231"  d="M -3.0 -1.7125 L -3.0 -1.4625 " stroke="#191919" stroke-width="0.35 px" style="stroke-width:0.35;stroke-miterlimit:4;stroke-dasharray:none;fill:none;fill-opacity:1;fill-rule: evenodd"/>
<path id="Shape2DView_nwe0232"  d="M -2.47 0.8275 L -2.47 1.0775 " stroke="#191919" stroke-width="0.35 px" style="stroke-width:0.35;stroke-miterlimit:4;stroke-dasharray:none;fill:none;fill-opacity:1;fill-rule: evenodd"/>
<path id="Shape2DView_nwe0234"  d="M -3.0 0.8275 L -3.0 1.0775 " stroke="#191919" stroke-width="0.35 px" style="stroke-width:0.35;stroke-miterlimit:4;stroke-dasharray:none;fill:none;fill-opacity:1;fill-rule: evenodd"/>
<path id="Shape2DView_nwe0235"  d="M -2.47 -1.0775 L -2.47 -0.8275 " stroke="#191919" stroke-width="0.35 px" style="stroke-width:0.35;stroke-miterlimit:4;stroke-dasharray:none;fill:none;fill-opacity:1;fill-rule: evenodd"/>
<path id="Shape2DView_nwe0237"  d="M -3.0 -1.0775 L -3.0 -0.8275 " stroke="#191919" stroke-width="0.35 px" style="stroke-width:0.35;stroke-miterlimit:4;stroke-dasharray:none;fill:none;fill-opacity:1;fill-rule: evenodd"/>
<path id="Shape2DView_nwe0238"  d="M -2.47 0.1925 L -2.47 0.4425 " stroke="#191919" stroke-width="0.35 px" style="stroke-width:0.35;stroke-miterlimit:4;stroke-dasharray:none;fill:none;fill-opacity:1;fill-rule: evenodd"/>
<path id="Shape2DView_nwe0240"  d="M -3.0 0.1925 L -3.0 0.4425 " stroke="#191919" stroke-width="0.35 px" style="stroke-width:0.35;stroke-miterlimit:4;stroke-dasharray:none;fill:none;fill-opacity:1;fill-rule: evenodd"/>
<path id="Shape2DView_nwe0241"  d="M -2.47 -0.4425 L -2.47 -0.1925 " stroke="#191919" stroke-width="0.35 px" style="stroke-width:0.35;stroke-miterlimit:4;stroke-dasharray:none;fill:none;fill-opacity:1;fill-rule: evenodd"/>
<path id="Shape2DView_nwe0243"  d="M -3.0 -0.4425 L -3.0 -0.1925 " stroke="#191919" stroke-width="0.35 px" style="stroke-width:0.35;stroke-miterlimit:4;stroke-dasharray:none;fill:none;fill-opacity:1;fill-rule: evenodd"/>
<path id="Shape2DView_nwe0244"  d="M 2.15 2.3475 L 2.15 2.0975 " stroke="#191919" stroke-width="0.35 px" style="stroke-width:0.35;stroke-miterlimit:4;stroke-dasharray:none;fill:none;fill-opacity:1;fill-rule: evenodd"/>
<path id="Shape2DView_nwe0245"  d="M 2.57 2.3475 L 2.57 2.0975 " stroke="#191919" stroke-width="0.35 px" style="stroke-width:0.35;stroke-miterlimit:4;stroke-dasharray:none;fill:none;fill-opacity:1;fill-rule: evenodd"/>
<path id="Shape2DView_nwe0246"  d="M 2.15 -2.0975 L 2.15 -2.3475 " stroke="#191919" stroke-width="0.35 px" style="stroke-width:0.35;stroke-miterlimit:4;stroke-dasharray:none;fill:none;fill-opacity:1;fill-rule: evenodd"/>
<path id="Shape2DView_nwe0247"  d="M 2.15 -1.4625 L 2.15 -1.7125 " stroke="#191919" stroke-width="0.35 px" style="stroke-width:0.35;stroke-miterlimit:4;stroke-dasharray:none;fill:none;fill-opacity:1;fill-rule: evenodd"/>
<path id="Shape2DView_nwe0248"  d="M 2.15 -0.8275 L 2.15 -1.0775 " stroke="#191919" stroke-width="0.35 px" style="stroke-width:0.35;stroke-miterlimit:4;stroke-dasharray:none;fill:none;fill-opacity:1;fill-rule: evenodd"/>
<path id="Shape2DView_nwe0249"  d="M 2.15 1.7125 L 2.15 1.4625 " stroke="#191919" stroke-width="0.35 px" style="stroke-width:0.35;stroke-miterlimit:4;stroke-dasharray:none;fill:none;fill-opacity:1;fill-rule: evenodd"/>
<path id="Shape2DView_nwe0250"  d="M 2.15 -0.1925 L 2.15 -0.4425 " stroke="#191919" stroke-width="0.35 px" style="stroke-width:0.35;stroke-miterlimit:4;stroke-dasharray:none;fill:none;fill-opacity:1;fill-rule: evenodd"/>
<path id="Shape2DView_nwe0251"  d="M 2.15 1.0775 L 2.15 0.8275 " stroke="#191919" stroke-width="0.35 px" style="stroke-width:0.35;stroke-miterlimit:4;stroke-dasharray:none;fill:none;fill-opacity:1;fill-rule: evenodd"/>
<path id="Shape2DView_nwe0252"  d="M 2.15 0.4425 L 2.15 0.1925 " stroke="#191919" stroke-width="0.35 px" style="stroke-width:0.35;stroke-miterlimit:4;stroke-dasharray:none;fill:none;fill-opacity:1;fill-rule: evenodd"/>
<path id="Shape2DView_nwe0253"  d="M 2.57 1.7125 L 2.57 1.4625 " stroke="#191919" stroke-width="0.35 px" style="stroke-width:0.35;stroke-miterlimit:4;stroke-dasharray:none;fill:none;fill-opacity:1;fill-rule: evenodd"/>
<path id="Shape2DView_nwe0254"  d="M 2.57 -2.0975 L 2.57 -2.3475 " stroke="#191919" stroke-width="0.35 px" style="stroke-width:0.35;stroke-miterlimit:4;stroke-dasharray:none;fill:none;fill-opacity:1;fill-rule: evenodd"/>
<path id="Shape2DView_nwe0255"  d="M 2.57 -1.4625 L 2.57 -1.7125 " stroke="#191919" stroke-width="0.35 px" style="stroke-width:0.35;stroke-miterlimit:4;stroke-dasharray:none;fill:none;fill-opacity:1;fill-rule: evenodd"/>
<path id="Shape2DView_nwe0256"  d="M 2.57 -0.8275 L 2.57 -1.0775 " stroke="#191919" stroke-width="0.35 px" style="stroke-width:0.35;stroke-miterlimit:4;stroke-dasharray:none;fill:none;fill-opacity:1;fill-rule: evenodd"/>
<path id="Shape2DView_nwe0257"  d="M 2.57 1.0775 L 2.57 0.8275 " stroke="#191919" stroke-width="0.35 px" style="stroke-width:0.35;stroke-miterlimit:4;stroke-dasharray:none;fill:none;fill-opacity:1;fill-rule: evenodd"/>
<path id="Shape2DView_nwe0258"  d="M 2.57 -0.1925 L 2.57 -0.4425 " stroke="#191919" stroke-width="0.35 px" style="stroke-width:0.35;stroke-miterlimit:4;stroke-dasharray:none;fill:none;fill-opacity:1;fill-rule: evenodd"/>
<path id="Shape2DView_nwe0259"  d="M 2.57 0.4425 L 2.57 0.1925 " stroke="#191919" stroke-width="0.35 px" style="stroke-width:0.35;stroke-miterlimit:4;stroke-dasharray:none;fill:none;fill-opacity:1;fill-rule: evenodd"/>
<path id="Shape2DView_nwe0260"  d="M -2.15 2.0975 L -2.15 2.3475 " stroke="#191919" stroke-width="0.35 px" style="stroke-width:0.35;stroke-miterlimit:4;stroke-dasharray:none;fill:none;fill-opacity:1;fill-rule: evenodd"/>
<path id="Shape2DView_nwe0261"  d="M -2.57 2.0975 L -2.57 2.3475 " stroke="#191919" stroke-width="0.35 px" style="stroke-width:0.35;stroke-miterlimit:4;stroke-dasharray:none;fill:none;fill-opacity:1;fill-rule: evenodd"/>
<path id="Shape2DView_nwe0262"  d="M -2.15 1.4625 L -2.15 1.7125 " stroke="#191919" stroke-width="0.35 px" style="stroke-width:0.35;stroke-miterlimit:4;stroke-dasharray:none;fill:none;fill-opacity:1;fill-rule: evenodd"/>
<path id="Shape2DView_nwe0263"  d="M -2.15 -2.3475 L -2.15 -2.0975 " stroke="#191919" stroke-width="0.35 px" style="stroke-width:0.35;stroke-miterlimit:4;stroke-dasharray:none;fill:none;fill-opacity:1;fill-rule: evenodd"/>
<path id="Shape2DView_nwe0264"  d="M -2.15 0.8275 L -2.15 1.0775 " stroke="#191919" stroke-width="0.35 px" style="stroke-width:0.35;stroke-miterlimit:4;stroke-dasharray:none;fill:none;fill-opacity:1;fill-rule: evenodd"/>
<path id="Shape2DView_nwe0265"  d="M -2.15 -1.7125 L -2.15 -1.4625 " stroke="#191919" stroke-width="0.35 px" style="stroke-width:0.35;stroke-miterlimit:4;stroke-dasharray:none;fill:none;fill-opacity:1;fill-rule: evenodd"/>
<path id="Shape2DView_nwe0266"  d="M -2.15 0.1925 L -2.15 0.4425 " stroke="#191919" stroke-width="0.35 px" style="stroke-width:0.35;stroke-miterlimit:4;stroke-dasharray:none;fill:none;fill-opacity:1;fill-rule: evenodd"/>
<path id="Shape2DView_nwe0267"  d="M -2.15 -1.0775 L -2.15 -0.8275 " stroke="#191919" stroke-width="0.35 px" style="stroke-width:0.35;stroke-miterlimit:4;stroke-dasharray:none;fill:none;fill-opacity:1;fill-rule: evenodd"/>
<path id="Shape2DView_nwe0268"  d="M -2.15 -0.4425 L -2.15 -0.1925 " stroke="#191919" stroke-width="0.35 px" style="stroke-width:0.35;stroke-miterlimit:4;stroke-dasharray:none;fill:none;fill-opacity:1;fill-rule: evenodd"/>
<path id="Shape2DView_nwe0269"  d="M -2.57 -2.3475 L -2.57 -2.0975 " stroke="#191919" stroke-width="0.35 px" style="stroke-width:0.35;stroke-miterlimit:4;stroke-dasharray:none;fill:none;fill-opacity:1;fill-rule: evenodd"/>
<path id="Shape2DView_nwe0270"  d="M -2.57 1.4625 L -2.57 1.7125 " stroke="#191919" stroke-width="0.35 px" style="stroke-width:0.35;stroke-miterlimit:4;stroke-dasharray:none;fill:none;fill-opacity:1;fill-rule: evenodd"/>
<path id="Shape2DView_nwe0271"  d="M -2.57 -1.7125 L -2.57 -1.4625 " stroke="#191919" stroke-width="0.35 px" style="stroke-width:0.35;stroke-miterlimit:4;stroke-dasharray:none;fill:none;fill-opacity:1;fill-rule: evenodd"/>
<path id="Shape2DView_nwe0272"  d="M -2.57 0.8275 L -2.57 1.0775 " stroke="#191919" stroke-width="0.35 px" style="stroke-width:0.35;stroke-miterlimit:4;stroke-dasharray:none;fill:none;fill-opacity:1;fill-rule: evenodd"/>
<path id="Shape2DView_nwe0273"  d="M -2.57 -1.0775 L -2.57 -0.8275 " stroke="#191919" stroke-width="0.35 px" style="stroke-width:0.35;stroke-miterlimit:4;stroke-dasharray:none;fill:none;fill-opacity:1;fill-rule: evenodd"/>
<path id="Shape2DView_nwe0274"  d="M -2.57 0.1925 L -2.57 0.4425 " stroke="#191919" stroke-width="0.35 px" style="stroke-width:0.35;stroke-miterlimit:4;stroke-dasharray:none;fill:none;fill-opacity:1;fill-rule: evenodd"/>
<path id="Shape2DView_nwe0275"  d="M -2.57 -0.4425 L -2.57 -0.1925 " stroke="#191919" stroke-width="0.35 px" style="stroke-width:0.35;stroke-miterlimit:4;stroke-dasharray:none;fill:none;fill-opacity:1;fill-rule: evenodd"/>
<path id="Shape2DView_nwe0276"  d="M 1.95 2.0975 L 1.9 2.0975 " stroke="#191919" stroke-width="0.35 px" style="stroke-width:0.35;stroke-miterlimit:4;stroke-dasharray:none;fill:none;fill-opacity:1;fill-rule: evenodd"/>
<path id="Shape2DView_nwe0277"  d="M 1.95 2.3475 L 1.9 2.3475 " stroke="#191919" stroke-width="0.35 px" style="stroke-width:0.35;stroke-miterlimit:4;stroke-dasharray:none;fill:none;fill-opacity:1;fill-rule: evenodd"/>
<path id="Shape2DView_nwe0278"  d="M 1.95 1.7125 L 1.9 1.7125 " stroke="#191919" stroke-width="0.35 px" style="stroke-width:0.35;stroke-miterlimit:4;stroke-dasharray:none;fill:none;fill-opacity:1;fill-rule: evenodd"/>
<path id="Shape2DView_nwe0279"  d="M 1.95 -2.3475 L 1.9 -2.3475 " stroke="#191919" stroke-width="0.35 px" style="stroke-width:0.35;stroke-miterlimit:4;stroke-dasharray:none;fill:none;fill-opacity:1;fill-rule: evenodd"/>
<path id="Shape2DView_nwe0280"  d="M 1.95 -2.0975 L 1.9 -2.0975 " stroke="#191919" stroke-width="0.35 px" style="stroke-width:0.35;stroke-miterlimit:4;stroke-dasharray:none;fill:none;fill-opacity:1;fill-rule: evenodd"/>
<path id="Shape2DView_nwe0281"  d="M 1.95 -1.7125 L 1.9 -1.7125 " stroke="#191919" stroke-width="0.35 px" style="stroke-width:0.35;stroke-miterlimit:4;stroke-dasharray:none;fill:none;fill-opacity:1;fill-rule: evenodd"/>
<path id="Shape2DView_nwe0282"  d="M 1.95 -1.4625 L 1.9 -1.4625 " stroke="#191919" stroke-width="0.35 px" style="stroke-width:0.35;stroke-miterlimit:4;stroke-dasharray:none;fill:none;fill-opacity:1;fill-rule: evenodd"/>
<path id="Shape2DView_nwe0283"  d="M 1.95 -1.0775 L 1.9 -1.0775 " stroke="#191919" stroke-width="0.35 px" style="stroke-width:0.35;stroke-miterlimit:4;stroke-dasharray:none;fill:none;fill-opacity:1;fill-rule: evenodd"/>
<path id="Shape2DView_nwe0284"  d="M 1.95 1.0775 L 1.9 1.0775 " stroke="#191919" stroke-width="0.35 px" style="stroke-width:0.35;stroke-miterlimit:4;stroke-dasharray:none;fill:none;fill-opacity:1;fill-rule: evenodd"/>
<path id="Shape2DView_nwe0285"  d="M 1.95 1.4625 L 1.9 1.4625 " stroke="#191919" stroke-width="0.35 px" style="stroke-width:0.35;stroke-miterlimit:4;stroke-dasharray:none;fill:none;fill-opacity:1;fill-rule: evenodd"/>
<path id="Shape2DView_nwe0286"  d="M 1.95 -0.8275 L 1.9 -0.8275 " stroke="#191919" stroke-width="0.35 px" style="stroke-width:0.35;stroke-miterlimit:4;stroke-dasharray:none;fill:none;fill-opacity:1;fill-rule: evenodd"/>
<path id="Shape2DView_nwe0287"  d="M 1.95 -0.44250000000000006 L 1.9 -0.44250000000000006 " stroke="#191919" stroke-width="0.35 px" style="stroke-width:0.35;stroke-miterlimit:4;stroke-dasharray:none;fill:none;fill-opacity:1;fill-rule: evenodd"/>
<path id="Shape2DView_nwe0288"  d="M 1.95 0.44249999999999995 L 1.9 0.44249999999999995 " stroke="#191919" stroke-width="0.35 px" style="stroke-width:0.35;stroke-miterlimit:4;stroke-dasharray:none;fill:none;fill-opacity:1;fill-rule: evenodd"/>
<path id="Shape2DView_nwe0289"  d="M 1.95 0.8275 L 1.9 0.8275 " stroke="#191919" stroke-width="0.35 px" style="stroke-width:0.35;stroke-miterlimit:4;stroke-dasharray:none;fill:none;fill-opacity:1;fill-rule: evenodd"/>
<path id="Shape2DView_nwe0290"  d="M 1.95 -0.19250000000000006 L 1.9 -0.19250000000000006 " stroke="#191919" stroke-width="0.35 px" style="stroke-width:0.35;stroke-miterlimit:4;stroke-dasharray:none;fill:none;fill-opacity:1;fill-rule: evenodd"/>
<path id="Shape2DView_nwe0291"  d="M 1.95 0.19249999999999995 L 1.9 0.19249999999999995 " stroke="#191919" stroke-width="0.35 px" style="stroke-width:0.35;stroke-miterlimit:4;stroke-dasharray:none;fill:none;fill-opacity:1;fill-rule: evenodd"/>
<path id="Shape2DView_nwe0292"  d="M -1.95 2.3475 L -1.9 2.3475 " stroke="#191919" stroke-width="0.35 px" style="stroke-width:0.35;stroke-miterlimit:4;stroke-dasharray:none;fill:none;fill-opacity:1;fill-rule: evenodd"/>
<path id="Shape2DView_nwe0293"  d="M -1.95 -2.3475 L -1.9 -2.3475 " stroke="#191919" stroke-width="0.35 px" style="stroke-width:0.35;stroke-miterlimit:4;stroke-dasharray:none;fill:none;fill-opacity:1;fill-rule: evenodd"/>
<path id="Shape2DView_nwe0294"  d="M -1.95 2.0975 L -1.9 2.0975 " stroke="#191919" stroke-width="0.35 px" style="stroke-width:0.35;stroke-miterlimit:4;stroke-dasharray:none;fill:none;fill-opacity:1;fill-rule: evenodd"/>
<path id="Shape2DView_nwe0295"  d="M -1.95 1.7125 L -1.9 1.7125 " stroke="#191919" stroke-width="0.35 px" style="stroke-width:0.35;stroke-miterlimit:4;stroke-dasharray:none;fill:none;fill-opacity:1;fill-rule: evenodd"/>
<path id="Shape2DView_nwe0296"  d="M -1.95 -1.7125 L -1.9 -1.7125 " stroke="#191919" stroke-width="0.35 px" style="stroke-width:0.35;stroke-miterlimit:4;stroke-dasharray:none;fill:none;fill-opacity:1;fill-rule: evenodd"/>
<path id="Shape2DView_nwe0297"  d="M -1.95 -2.0975 L -1.9 -2.0975 " stroke="#191919" stroke-width="0.35 px" style="stroke-width:0.35;stroke-miterlimit:4;stroke-dasharray:none;fill:none;fill-opacity:1;fill-rule: evenodd"/>
<path id="Shape2DView_nwe0298"  d="M -1.95 1.4625 L -1.9 1.4625 " stroke="#191919" stroke-width="0.35 px" style="stroke-width:0.35;stroke-miterlimit:4;stroke-dasharray:none;fill:none;fill-opacity:1;fill-rule: evenodd"/>
<path id="Shape2DView_nwe0299"  d="M -1.95 1.0775 L -1.9 1.0775 " stroke="#191919" stroke-width="0.35 px" style="stroke-width:0.35;stroke-miterlimit:4;stroke-dasharray:none;fill:none;fill-opacity:1;fill-rule: evenodd"/>
<path id="Shape2DView_nwe0300"  d="M -1.95 -1.0775 L -1.9 -1.0775 " stroke="#191919" stroke-width="0.35 px" style="stroke-width:0.35;stroke-miterlimit:4;stroke-dasharray:none;fill:none;fill-opacity:1;fill-rule: evenodd"/>
<path id="Shape2DView_nwe0301"  d="M -1.95 -1.4625 L -1.9 -1.4625 " stroke="#191919" stroke-width="0.35 px" style="stroke-width:0.35;stroke-miterlimit:4;stroke-dasharray:none;fill:none;fill-opacity:1;fill-rule: evenodd"/>
<path id="Shape2DView_nwe0302"  d="M -1.95 0.8275 L -1.9 0.8275 " stroke="#191919" stroke-width="0.35 px" style="stroke-width:0.35;stroke-miterlimit:4;stroke-dasharray:none;fill:none;fill-opacity:1;fill-rule: evenodd"/>
<path id="Shape2DView_nwe0303"  d="M -1.95 0.4425 L -1.9 0.4425 " stroke="#191919" stroke-width="0.35 px" style="stroke-width:0.35;stroke-miterlimit:4;stroke-dasharray:none;fill:none;fill-opacity:1;fill-rule: evenodd"/>
<path id="Shape2DView_nwe0304"  d="M -1.95 -0.4425 L -1.9 -0.4425 " stroke="#191919" stroke-width="0.35 px" style="stroke-width:0.35;stroke-miterlimit:4;stroke-dasharray:none;fill:none;fill-opacity:1;fill-rule: evenodd"/>
<path id="Shape2DView_nwe0305"  d="M -1.95 -0.8275 L -1.9 -0.8275 " stroke="#191919" stroke-width="0.35 px" style="stroke-width:0.35;stroke-miterlimit:4;stroke-dasharray:none;fill:none;fill-opacity:1;fill-rule: evenodd"/>
<path id="Shape2DView_nwe0306"  d="M -1.95 0.19250000000000003 L -1.9 0.19250000000000003 " stroke="#191919" stroke-width="0.35 px" style="stroke-width:0.35;stroke-miterlimit:4;stroke-dasharray:none;fill:none;fill-opacity:1;fill-rule: evenodd"/>
<path id="Shape2DView_nwe0307"  d="M -1.95 -0.19249999999999998 L -1.9 -0.19249999999999998 " stroke="#191919" stroke-width="0.35 px" style="stroke-width:0.35;stroke-miterlimit:4;stroke-dasharray:none;fill:none;fill-opacity:1;fill-rule: evenodd"/>
<title>b'Shape2DView'</title>
</g>
<g id="Rectangle" transform="translate(3.060000,2.510000) scale(1,-1)">
<rect fill="#ff0000" id="origin" width="1" height="1" x="0" y="0" />
<title>b'Rectangle'</title>
</g>
</svg>