<?xml version="1.0"?>
<!DOCTYPE svg PUBLIC "-//W3C//DTD SVG 1.1//EN" "http://www.w3.org/Graphics/SVG/1.1/DTD/svg11.dtd">
<svg width="10.71mm" height="3.81mm" viewBox="0 0 10.71 3.81" xmlns="http://www.w3.org/2000/svg" version="1.1">
<g id="Shape2DView" transform="translate(5.355000,1.905000) scale(1,-1)">
<path id="Shape2DView_nwe0000"  d="M 5.25 1.495 L 4.2 1.4950000000000003 " stroke="#191919" stroke-width="0.35 px" style="stroke-width:0.35;stroke-miterlimit:4;stroke-dasharray:none;fill:none;fill-opacity:1;fill-rule: evenodd"/>
<path id="Shape2DView_nwe0001"  d="M 4.2 1.495 L 4.188803552389669 1.495 L 4.177747906604369 1.495 L 4.166972093804484 1.495 L 4.156611626088244 1.495 L 4.146796792348466 1.495 L 4.137651019814127 1.495 L 4.129289321881346 1.495 L 4.121816851753197 1.495 L 4.115327580077172 1.495 L 4.109903113209758 1.495 L 4.105611666969163 1.495 L 4.102507208781818 1.495 L 4.100628779010676 1.495 L 4.1000000000000005 1.495 " stroke="#191919" stroke-width="0.35 px" style="stroke-width:0.35;stroke-miterlimit:4;stroke-dasharray:none;fill:none;fill-opacity:1;fill-rule: evenodd"/>
<path id="Shape2DView_nwe0002"  d="M 4.1 1.495 L 4.098742441978649 1.495 L 4.094985582436365 1.495 L 4.088776666061674 1.495 L 4.080193773580484 1.495 L 4.069344839845657 1.495 L 4.056366296493606 1.495 L 4.04142135623731 1.495 L 4.024697960371747 1.495 L 4.006406415303068 1.495 L 3.986776747823512 1.495 L 3.9660558123910334 1.495 L 3.9445041867912627 1.495 L 3.9223928952206615 1.495 L 3.9 1.495 " stroke="#191919" stroke-width="0.35 px" style="stroke-width:0.35;stroke-miterlimit:4;stroke-dasharray:none;fill:none;fill-opacity:1;fill-rule: evenodd"/>
<path id="Shape2DView_nwe0003"  d="M 3.9 1.495 L 3.8 1.495 " stroke="#191919" stroke-width="0.35 px" style="stroke-width:0.35;stroke-miterlimit:4;stroke-dasharray:none;fill:none;fill-opacity:1;fill-rule: evenodd"/>
<path id="Shape2DView_nwe0004"  d="M 5.25 1.045 L 4.2 1.0450000000000002 " stroke="#191919" stroke-width="0.35 px" style="stroke-width:0.35;stroke-miterlimit:4;stroke-dasharray:none;fill:none;fill-opacity:1;fill-rule: evenodd"/>
<path id="Shape2DView_nwe0005"  d="M 4.2 1.045 L 4.188803552389669 1.045 L 4.177747906604369 1.045 L 4.166972093804484 1.045 L 4.156611626088244 1.045 L 4.146796792348466 1.045 L 4.137651019814127 1.045 L 4.129289321881346 1.045 L 4.121816851753197 1.045 L 4.115327580077172 1.045 L 4.109903113209758 1.045 L 4.105611666969163 1.045 L 4.102507208781818 1.045 L 4.100628779010676 1.045 L 4.1000000000000005 1.045 " stroke="#191919" stroke-width="0.35 px" style="stroke-width:0.35;stroke-miterlimit:4;stroke-dasharray:none;fill:none;fill-opacity:1;fill-rule: evenodd"/>
<path id="Shape2DView_nwe0006"  d="M 4.1 1.045 L 4.098742441978649 1.045 L 4.094985582436365 1.045 L 4.088776666061674 1.045 L 4.080193773580484 1.045 L 4.069344839845657 1.045 L 4.056366296493606 1.045 L 4.04142135623731 1.045 L 4.024697960371747 1.045 L 4.006406415303068 1.045 L 3.986776747823512 1.045 L 3.9660558123910334 1.045 L 3.9445041867912627 1.045 L 3.9223928952206615 1.045 L 3.9 1.045 " stroke="#191919" stroke-width="0.35 px" style="stroke-width:0.35;stroke-miterlimit:4;stroke-dasharray:none;fill:none;fill-opacity:1;fill-rule: evenodd"/>
<path id="Shape2DView_nwe0007"  d="M 3.9 1.045 L 3.8 1.045 " stroke="#191919" stroke-width="0.35 px" style="stroke-width:0.35;stroke-miterlimit:4;stroke-dasharray:none;fill:none;fill-opacity:1;fill-rule: evenodd"/>
<path id="Shape2DView_nwe0008"  d="M 3.8 1.625 L 3.8 1.495 " stroke="#191919" stroke-width="0.35 px" style="stroke-width:0.35;stroke-miterlimit:4;stroke-dasharray:none;fill:none;fill-opacity:1;fill-rule: evenodd"/>
<path id="Shape2DView_nwe0009"  d="M 3.725 1.495 L 3.725 1.045 " stroke="#191919" stroke-width="0.35 px" style="stroke-width:0.35;stroke-miterlimit:4;stroke-dasharray:none;fill:none;fill-opacity:1;fill-rule: evenodd"/>
<path id="Shape2DView_nwe0010"  d="M 4.1 1.495 L 4.1 1.045 " stroke="#191919" stroke-width="0.35 px" style="stroke-width:0.35;stroke-miterlimit:4;stroke-dasharray:none;fill:none;fill-opacity:1;fill-rule: evenodd"/>
<path id="Shape2DView_nwe0011"  d="M 5.25 1.495 L 5.25 1.045 " stroke="#191919" stroke-width="0.35 px" style="stroke-width:0.35;stroke-miterlimit:4;stroke-dasharray:none;fill:none;fill-opacity:1;fill-rule: evenodd"/>
<path id="Shape2DView_nwe0012"  d="M 3.8 1.045 L 3.7999999999999994 -1.045 " stroke="#191919" stroke-width="0.35 px" style="stroke-width:0.35;stroke-miterlimit:4;stroke-dasharray:none;fill:none;fill-opacity:1;fill-rule: evenodd"/>
<path id="Shape2DView_nwe0013"  d="M 3.799999999999999 -1.495 L 3.799999999999999 -1.625 " stroke="#191919" stroke-width="0.35 px" style="stroke-width:0.35;stroke-miterlimit:4;stroke-dasharray:none;fill:none;fill-opacity:1;fill-rule: evenodd"/>
<path id="Shape2DView_nwe0014"  d="M 3.625 1.8 L 3.8 1.625 " stroke="#191919" stroke-width="0.35 px" style="stroke-width:0.35;stroke-miterlimit:4;stroke-dasharray:none;fill:none;fill-opacity:1;fill-rule: evenodd"/>
<path id="Shape2DView_nwe0015"  d="M 3.8 1.625 L 3.725 1.5875 " stroke="#191919" stroke-width="0.35 px" style="stroke-width:0.35;stroke-miterlimit:4;stroke-dasharray:none;fill:none;fill-opacity:1;fill-rule: evenodd"/>
<path id="Shape2DView_nwe0016"  d="M 3.725 1.5875 L 3.725 1.495 " stroke="#191919" stroke-width="0.35 px" style="stroke-width:0.35;stroke-miterlimit:4;stroke-dasharray:none;fill:none;fill-opacity:1;fill-rule: evenodd"/>
<path id="Shape2DView_nwe0017"  d="M 3.725 1.045 L 3.7249999999999996 -1.045 " stroke="#191919" stroke-width="0.35 px" style="stroke-width:0.35;stroke-miterlimit:4;stroke-dasharray:none;fill:none;fill-opacity:1;fill-rule: evenodd"/>
<path id="Shape2DView_nwe0018"  d="M 3.7249999999999996 -1.045 L 3.724999999999999 -1.495 " stroke="#191919" stroke-width="0.35 px" style="stroke-width:0.35;stroke-miterlimit:4;stroke-dasharray:none;fill:none;fill-opacity:1;fill-rule: evenodd"/>
<path id="Shape2DView_nwe0019"  d="M 3.724999999999999 -1.495 L 3.724999999999999 -1.5875 " stroke="#191919" stroke-width="0.35 px" style="stroke-width:0.35;stroke-miterlimit:4;stroke-dasharray:none;fill:none;fill-opacity:1;fill-rule: evenodd"/>
<path id="Shape2DView_nwe0020"  d="M 3.725 -1.5875 L 3.653727001854 -1.551863500927 " stroke="#191919" stroke-width="0.35 px" style="stroke-width:0.35;stroke-miterlimit:4;stroke-dasharray:none;fill:none;fill-opacity:1;fill-rule: evenodd"/>
<path id="Shape2DView_nwe0021"  d="M 3.653727001854 1.551863500927 L 3.653727001853999 -1.551863500927 " stroke="#191919" stroke-width="0.35 px" style="stroke-width:0.35;stroke-miterlimit:4;stroke-dasharray:none;fill:none;fill-opacity:1;fill-rule: evenodd"/>
<path id="Shape2DView_nwe0022"  d="M 3.725 1.5875 L 3.653727001854 1.551863500927 " stroke="#191919" stroke-width="0.35 px" style="stroke-width:0.35;stroke-miterlimit:4;stroke-dasharray:none;fill:none;fill-opacity:1;fill-rule: evenodd"/>
<path id="Shape2DView_nwe0023"  d="M 5.25 -1.045 L 4.2 -1.0449999999999997 " stroke="#191919" stroke-width="0.35 px" style="stroke-width:0.35;stroke-miterlimit:4;stroke-dasharray:none;fill:none;fill-opacity:1;fill-rule: evenodd"/>
<path id="Shape2DView_nwe0024"  d="M 4.2 -1.045 L 4.188803552389669 -1.045 L 4.177747906604369 -1.045 L 4.166972093804484 -1.045 L 4.156611626088244 -1.045 L 4.146796792348466 -1.045 L 4.137651019814127 -1.045 L 4.129289321881346 -1.045 L 4.121816851753197 -1.045 L 4.115327580077172 -1.045 L 4.109903113209758 -1.045 L 4.105611666969163 -1.045 L 4.102507208781818 -1.045 L 4.100628779010676 -1.045 L 4.1000000000000005 -1.045 " stroke="#191919" stroke-width="0.35 px" style="stroke-width:0.35;stroke-miterlimit:4;stroke-dasharray:none;fill:none;fill-opacity:1;fill-rule: evenodd"/>
<path id="Shape2DView_nwe0025"  d="M 4.1 -1.045 L 4.098742441978649 -1.045 L 4.094985582436365 -1.045 L 4.088776666061674 -1.045 L 4.080193773580484 -1.045 L 4.069344839845657 -1.045 L 4.056366296493606 -1.045 L 4.04142135623731 -1.045 L 4.024697960371747 -1.045 L 4.006406415303068 -1.045 L 3.986776747823512 -1.045 L 3.9660558123910334 -1.045 L 3.9445041867912627 -1.045 L 3.9223928952206615 -1.045 L 3.9 -1.045 " stroke="#191919" stroke-width="0.35 px" style="stroke-width:0.35;stroke-miterlimit:4;stroke-dasharray:none;fill:none;fill-opacity:1;fill-rule: evenodd"/>
<path id="Shape2DView_nwe0026"  d="M 3.9 -1.045 L 3.8 -1.045 " stroke="#191919" stroke-width="0.35 px" style="stroke-width:0.35;stroke-miterlimit:4;stroke-dasharray:none;fill:none;fill-opacity:1;fill-rule: evenodd"/>
<path id="Shape2DView_nwe0027"  d="M 3.8 -1.625 L 3.625 -1.7999999999999998 " stroke="#191919" stroke-width="0.35 px" style="stroke-width:0.35;stroke-miterlimit:4;stroke-dasharray:none;fill:none;fill-opacity:1;fill-rule: evenodd"/>
<path id="Shape2DView_nwe0028"  d="M 5.25 -1.495 L 4.2 -1.4949999999999999 " stroke="#191919" stroke-width="0.35 px" style="stroke-width:0.35;stroke-miterlimit:4;stroke-dasharray:none;fill:none;fill-opacity:1;fill-rule: evenodd"/>
<path id="Shape2DView_nwe0029"  d="M 4.2 -1.495 L 4.188803552389669 -1.495 L 4.177747906604369 -1.495 L 4.166972093804484 -1.495 L 4.156611626088244 -1.495 L 4.146796792348466 -1.495 L 4.137651019814127 -1.495 L 4.129289321881346 -1.495 L 4.121816851753197 -1.495 L 4.115327580077172 -1.495 L 4.109903113209758 -1.495 L 4.105611666969163 -1.495 L 4.102507208781818 -1.495 L 4.100628779010676 -1.495 L 4.1000000000000005 -1.495 " stroke="#191919" stroke-width="0.35 px" style="stroke-width:0.35;stroke-miterlimit:4;stroke-dasharray:none;fill:none;fill-opacity:1;fill-rule: evenodd"/>
<path id="Shape2DView_nwe0030"  d="M 4.1 -1.495 L 4.098742441978649 -1.495 L 4.094985582436365 -1.495 L 4.088776666061674 -1.495 L 4.080193773580484 -1.495 L 4.069344839845657 -1.495 L 4.056366296493606 -1.495 L 4.04142135623731 -1.495 L 4.024697960371747 -1.495 L 4.006406415303068 -1.495 L 3.986776747823512 -1.495 L 3.9660558123910334 -1.495 L 3.9445041867912627 -1.495 L 3.9223928952206615 -1.495 L 3.9 -1.495 " stroke="#191919" stroke-width="0.35 px" style="stroke-width:0.35;stroke-miterlimit:4;stroke-dasharray:none;fill:none;fill-opacity:1;fill-rule: evenodd"/>
<path id="Shape2DView_nwe0031"  d="M 3.9 -1.495 L 3.8 -1.495 " stroke="#191919" stroke-width="0.35 px" style="stroke-width:0.35;stroke-miterlimit:4;stroke-dasharray:none;fill:none;fill-opacity:1;fill-rule: evenodd"/>
<path id="Shape2DView_nwe0032"  d="M 3.8 -1.625 L 3.725 -1.5875 " stroke="#191919" stroke-width="0.35 px" style="stroke-width:0.35;stroke-miterlimit:4;stroke-dasharray:none;fill:none;fill-opacity:1;fill-rule: evenodd"/>
<path id="Shape2DView_nwe0033"  d="M 3.5875 1.725 L 3.725 1.5875 " stroke="#191919" stroke-width="0.35 px" style="stroke-width:0.35;stroke-miterlimit:4;stroke-dasharray:none;fill:none;fill-opacity:1;fill-rule: evenodd"/>
<path id="Shape2DView_nwe0034"  d="M 3.625 1.8 L 3.5875 1.725 " stroke="#191919" stroke-width="0.35 px" style="stroke-width:0.35;stroke-miterlimit:4;stroke-dasharray:none;fill:none;fill-opacity:1;fill-rule: evenodd"/>
<path id="Shape2DView_nwe0035"  d="M -3.625 1.8 L 3.625 1.7999999999999985 " stroke="#191919" stroke-width="0.35 px" style="stroke-width:0.35;stroke-miterlimit:4;stroke-dasharray:none;fill:none;fill-opacity:1;fill-rule: evenodd"/>
<path id="Shape2DView_nwe0036"  d="M 3.551863500927 1.653727001854 L 3.653727001854 1.5518635009269999 " stroke="#191919" stroke-width="0.35 px" style="stroke-width:0.35;stroke-miterlimit:4;stroke-dasharray:none;fill:none;fill-opacity:1;fill-rule: evenodd"/>
<path id="Shape2DView_nwe0037"  d="M 3.5875 1.725 L 3.551863500927 1.653727001854 " stroke="#191919" stroke-width="0.35 px" style="stroke-width:0.35;stroke-miterlimit:4;stroke-dasharray:none;fill:none;fill-opacity:1;fill-rule: evenodd"/>
<path id="Shape2DView_nwe0038"  d="M -3.551863500927 1.653727001854 L 3.551863500927 1.6537270018539985 " stroke="#191919" stroke-width="0.35 px" style="stroke-width:0.35;stroke-miterlimit:4;stroke-dasharray:none;fill:none;fill-opacity:1;fill-rule: evenodd"/>
<path id="Shape2DView_nwe0039"  d="M 3.653727001854 -1.551863500927 L 3.551863500927 -1.6537270018540002 " stroke="#191919" stroke-width="0.35 px" style="stroke-width:0.35;stroke-miterlimit:4;stroke-dasharray:none;fill:none;fill-opacity:1;fill-rule: evenodd"/>
<path id="Shape2DView_nwe0040"  d="M 3.551863500927 -1.653727001854 L -3.551863500927 -1.6537270018539985 " stroke="#191919" stroke-width="0.35 px" style="stroke-width:0.35;stroke-miterlimit:4;stroke-dasharray:none;fill:none;fill-opacity:1;fill-rule: evenodd"/>
<path id="Shape2DView_nwe0041"  d="M -3.551863500927 -1.653727001854 L -3.653727001854 -1.5518635009269999 " stroke="#191919" stroke-width="0.35 px" style="stroke-width:0.35;stroke-miterlimit:4;stroke-dasharray:none;fill:none;fill-opacity:1;fill-rule: evenodd"/>
<path id="Shape2DView_nwe0042"  d="M -3.653727001854 -1.551863500927 L -3.653727001853999 1.551863500927 " stroke="#191919" stroke-width="0.35 px" style="stroke-width:0.35;stroke-miterlimit:4;stroke-dasharray:none;fill:none;fill-opacity:1;fill-rule: evenodd"/>
<path id="Shape2DView_nwe0043"  d="M -3.653727001854 1.551863500927 L -3.551863500927 1.6537270018540002 " stroke="#191919" stroke-width="0.35 px" style="stroke-width:0.35;stroke-miterlimit:4;stroke-dasharray:none;fill:none;fill-opacity:1;fill-rule: evenodd"/>
<circle cx="-3.153727001854" cy="1.153727001854" r="0.1" stroke="#191919" stroke-width="0.35 px" style="stroke-width:0.35;stroke-miterlimit:4;stroke-dasharray:none;fill:none"/>
<path id="Shape2DView_nwe0045"  d="M 3.725 -1.5875 L 3.5875 -1.725 " stroke="#191919" stroke-width="0.35 px" style="stroke-width:0.35;stroke-miterlimit:4;stroke-dasharray:none;fill:none;fill-opacity:1;fill-rule: evenodd"/>
<path id="Shape2DView_nwe0046"  d="M 3.5875 -1.725 L 3.551863500927 -1.653727001854 " stroke="#191919" stroke-width="0.35 px" style="stroke-width:0.35;stroke-miterlimit:4;stroke-dasharray:none;fill:none;fill-opacity:1;fill-rule: evenodd"/>
<path id="Shape2DView_nwe0047"  d="M 4.1 -1.045 L 4.1 -1.495 " stroke="#191919" stroke-width="0.35 px" style="stroke-width:0.35;stroke-miterlimit:4;stroke-dasharray:none;fill:none;fill-opacity:1;fill-rule: evenodd"/>
<path id="Shape2DView_nwe0049"  d="M 5.25 -1.045 L 5.25 -1.495 " stroke="#191919" stroke-width="0.35 px" style="stroke-width:0.35;stroke-miterlimit:4;stroke-dasharray:none;fill:none;fill-opacity:1;fill-rule: evenodd"/>
<path id="Shape2DView_nwe0050"  d="M 3.625 -1.8 L -3.625 -1.7999999999999985 " stroke="#191919" stroke-width="0.35 px" style="stroke-width:0.35;stroke-miterlimit:4;stroke-dasharray:none;fill:none;fill-opacity:1;fill-rule: evenodd"/>
<path id="Shape2DView_nwe0051"  d="M -3.625 -1.8 L -3.8 -1.625 " stroke="#191919" stroke-width="0.35 px" style="stroke-width:0.35;stroke-miterlimit:4;stroke-dasharray:none;fill:none;fill-opacity:1;fill-rule: evenodd"/>
<path id="Shape2DView_nwe0052"  d="M -3.8 -1.625 L -3.8 -1.495 " stroke="#191919" stroke-width="0.35 px" style="stroke-width:0.35;stroke-miterlimit:4;stroke-dasharray:none;fill:none;fill-opacity:1;fill-rule: evenodd"/>
<path id="Shape2DView_nwe0053"  d="M -3.799999999999999 1.495 L -3.799999999999999 1.625 " stroke="#191919" stroke-width="0.35 px" style="stroke-width:0.35;stroke-miterlimit:4;stroke-dasharray:none;fill:none;fill-opacity:1;fill-rule: evenodd"/>
<path id="Shape2DView_nwe0054"  d="M -3.8 -1.045 L -3.7999999999999994 1.045 " stroke="#191919" stroke-width="0.35 px" style="stroke-width:0.35;stroke-miterlimit:4;stroke-dasharray:none;fill:none;fill-opacity:1;fill-rule: evenodd"/>
<path id="Shape2DView_nwe0055"  d="M -3.8 1.625 L -3.625 1.7999999999999998 " stroke="#191919" stroke-width="0.35 px" style="stroke-width:0.35;stroke-miterlimit:4;stroke-dasharray:none;fill:none;fill-opacity:1;fill-rule: evenodd"/>
<path id="Shape2DView_nwe0056"  d="M 3.625 -1.8 L 3.5875 -1.725 " stroke="#191919" stroke-width="0.35 px" style="stroke-width:0.35;stroke-miterlimit:4;stroke-dasharray:none;fill:none;fill-opacity:1;fill-rule: evenodd"/>
<path id="Shape2DView_nwe0057"  d="M -3.5875 1.725 L 3.5875 1.7249999999999985 " stroke="#191919" stroke-width="0.35 px" style="stroke-width:0.35;stroke-miterlimit:4;stroke-dasharray:none;fill:none;fill-opacity:1;fill-rule: evenodd"/>
<path id="Shape2DView_nwe0058"  d="M -3.625 1.8 L -3.5875 1.725 " stroke="#191919" stroke-width="0.35 px" style="stroke-width:0.35;stroke-miterlimit:4;stroke-dasharray:none;fill:none;fill-opacity:1;fill-rule: evenodd"/>
<path id="Shape2DView_nwe0059"  d="M -3.5875 1.725 L -3.551863500927 1.653727001854 " stroke="#191919" stroke-width="0.35 px" style="stroke-width:0.35;stroke-miterlimit:4;stroke-dasharray:none;fill:none;fill-opacity:1;fill-rule: evenodd"/>
<path id="Shape2DView_nwe0060"  d="M -3.725 1.5875 L -3.5875 1.725 " stroke="#191919" stroke-width="0.35 px" style="stroke-width:0.35;stroke-miterlimit:4;stroke-dasharray:none;fill:none;fill-opacity:1;fill-rule: evenodd"/>
<path id="Shape2DView_nwe0061"  d="M -3.725 1.5875 L -3.653727001854 1.551863500927 " stroke="#191919" stroke-width="0.35 px" style="stroke-width:0.35;stroke-miterlimit:4;stroke-dasharray:none;fill:none;fill-opacity:1;fill-rule: evenodd"/>
<path id="Shape2DView_nwe0062"  d="M -3.725 -1.5875 L -3.725 -1.495 " stroke="#191919" stroke-width="0.35 px" style="stroke-width:0.35;stroke-miterlimit:4;stroke-dasharray:none;fill:none;fill-opacity:1;fill-rule: evenodd"/>
<path id="Shape2DView_nwe0063"  d="M -3.725 -1.495 L -3.725 -1.045 " stroke="#191919" stroke-width="0.35 px" style="stroke-width:0.35;stroke-miterlimit:4;stroke-dasharray:none;fill:none;fill-opacity:1;fill-rule: evenodd"/>
<path id="Shape2DView_nwe0064"  d="M -3.725 -1.045 L -3.7249999999999996 1.045 " stroke="#191919" stroke-width="0.35 px" style="stroke-width:0.35;stroke-miterlimit:4;stroke-dasharray:none;fill:none;fill-opacity:1;fill-rule: evenodd"/>
<path id="Shape2DView_nwe0065"  d="M -3.7249999999999996 1.045 L -3.724999999999999 1.495 " stroke="#191919" stroke-width="0.35 px" style="stroke-width:0.35;stroke-miterlimit:4;stroke-dasharray:none;fill:none;fill-opacity:1;fill-rule: evenodd"/>
<path id="Shape2DView_nwe0066"  d="M -3.724999999999999 1.495 L -3.724999999999999 1.5875 " stroke="#191919" stroke-width="0.35 px" style="stroke-width:0.35;stroke-miterlimit:4;stroke-dasharray:none;fill:none;fill-opacity:1;fill-rule: evenodd"/>
<path id="Shape2DView_nwe0067"  d="M -3.725 -1.5875 L -3.653727001854 -1.551863500927 " stroke="#191919" stroke-width="0.35 px" style="stroke-width:0.35;stroke-miterlimit:4;stroke-dasharray:none;fill:none;fill-opacity:1;fill-rule: evenodd"/>
<path id="Shape2DView_nwe0068"  d="M -3.5875 -1.725 L -3.725 -1.5875 " stroke="#191919" stroke-width="0.35 px" style="stroke-width:0.35;stroke-miterlimit:4;stroke-dasharray:none;fill:none;fill-opacity:1;fill-rule: evenodd"/>
<path id="Shape2DView_nwe0069"  d="M -3.5875 -1.725 L -3.551863500927 -1.653727001854 " stroke="#191919" stroke-width="0.35 px" style="stroke-width:0.35;stroke-miterlimit:4;stroke-dasharray:none;fill:none;fill-opacity:1;fill-rule: evenodd"/>
<path id="Shape2DView_nwe0070"  d="M 3.5875 -1.725 L -3.5875 -1.7249999999999985 " stroke="#191919" stroke-width="0.35 px" style="stroke-width:0.35;stroke-miterlimit:4;stroke-dasharray:none;fill:none;fill-opacity:1;fill-rule: evenodd"/>
<path id="Shape2DView_nwe0071"  d="M -3.625 -1.8 L -3.5875 -1.725 " stroke="#191919" stroke-width="0.35 px" style="stroke-width:0.35;stroke-miterlimit:4;stroke-dasharray:none;fill:none;fill-opacity:1;fill-rule: evenodd"/>
<path id="Shape2DView_nwe0072"  d="M -3.8 -1.625 L -3.725 -1.5875 " stroke="#191919" stroke-width="0.35 px" style="stroke-width:0.35;stroke-miterlimit:4;stroke-dasharray:none;fill:none;fill-opacity:1;fill-rule: evenodd"/>
<path id="Shape2DView_nwe0073"  d="M -5.25 -1.495 L -4.2 -1.4950000000000006 " stroke="#191919" stroke-width="0.35 px" style="stroke-width:0.35;stroke-miterlimit:4;stroke-dasharray:none;fill:none;fill-opacity:1;fill-rule: evenodd"/>
<path id="Shape2DView_nwe0074"  d="M -4.2 -1.495 L -4.188803552389669 -1.495 L -4.177747906604369 -1.495 L -4.166972093804484 -1.495 L -4.156611626088244 -1.495 L -4.146796792348466 -1.495 L -4.137651019814127 -1.495 L -4.129289321881346 -1.495 L -4.121816851753197 -1.495 L -4.115327580077172 -1.495 L -4.109903113209758 -1.495 L -4.105611666969163 -1.495 L -4.102507208781818 -1.495 L -4.100628779010676 -1.495 L -4.1000000000000005 -1.495 " stroke="#191919" stroke-width="0.35 px" style="stroke-width:0.35;stroke-miterlimit:4;stroke-dasharray:none;fill:none;fill-opacity:1;fill-rule: evenodd"/>
<path id="Shape2DView_nwe0075"  d="M -4.1 -1.495 L -4.098742441978649 -1.495 L -4.094985582436365 -1.495 L -4.088776666061674 -1.495 L -4.080193773580484 -1.495 L -4.069344839845657 -1.495 L -4.056366296493606 -1.495 L -4.04142135623731 -1.495 L -4.024697960371747 -1.495 L -4.006406415303068 -1.495 L -3.986776747823512 -1.495 L -3.9660558123910334 -1.495 L -3.9445041867912627 -1.495 L -3.9223928952206615 -1.495 L -3.9 -1.495 " stroke="#191919" stroke-width="0.35 px" style="stroke-width:0.35;stroke-miterlimit:4;stroke-dasharray:none;fill:none;fill-opacity:1;fill-rule: evenodd"/>
<path id="Shape2DView_nwe0076"  d="M -3.9 -1.495 L -3.8 -1.495 " stroke="#191919" stroke-width="0.35 px" style="stroke-width:0.35;stroke-miterlimit:4;stroke-dasharray:none;fill:none;fill-opacity:1;fill-rule: evenodd"/>
<path id="Shape2DView_nwe0077"  d="M -5.25 1.495 L -4.2 1.4949999999999997 " stroke="#191919" stroke-width="0.35 px" style="stroke-width:0.35;stroke-miterlimit:4;stroke-dasharray:none;fill:none;fill-opacity:1;fill-rule: evenodd"/>
<path id="Shape2DView_nwe0078"  d="M -4.2 1.495 L -4.188803552389669 1.495 L -4.177747906604369 1.495 L -4.166972093804484 1.495 L -4.156611626088244 1.495 L -4.146796792348466 1.495 L -4.137651019814127 1.495 L -4.129289321881346 1.495 L -4.121816851753197 1.495 L -4.115327580077172 1.495 L -4.109903113209758 1.495 L -4.105611666969163 1.495 L -4.102507208781818 1.495 L -4.100628779010676 1.495 L -4.1000000000000005 1.495 " stroke="#191919" stroke-width="0.35 px" style="stroke-width:0.35;stroke-miterlimit:4;stroke-dasharray:none;fill:none;fill-opacity:1;fill-rule: evenodd"/>
<path id="Shape2DView_nwe0079"  d="M -4.1 1.495 L -4.098742441978649 1.495 L -4.094985582436365 1.495 L -4.088776666061674 1.495 L -4.080193773580484 1.495 L -4.069344839845657 1.495 L -4.056366296493606 1.495 L -4.04142135623731 1.495 L -4.024697960371747 1.495 L -4.006406415303068 1.495 L -3.986776747823512 1.495 L -3.9660558123910334 1.495 L -3.9445041867912627 1.495 L -3.9223928952206615 1.495 L -3.9 1.495 " stroke="#191919" stroke-width="0.35 px" style="stroke-width:0.35;stroke-miterlimit:4;stroke-dasharray:none;fill:none;fill-opacity:1;fill-rule: evenodd"/>
<path id="Shape2DView_nwe0080"  d="M -3.9 1.495 L -3.8 1.495 " stroke="#191919" stroke-width="0.35 px" style="stroke-width:0.35;stroke-miterlimit:4;stroke-dasharray:none;fill:none;fill-opacity:1;fill-rule: evenodd"/>
<path id="Shape2DView_nwe0081"  d="M -3.8 1.625 L -3.725 1.5875 " stroke="#191919" stroke-width="0.35 px" style="stroke-width:0.35;stroke-miterlimit:4;stroke-dasharray:none;fill:none;fill-opacity:1;fill-rule: evenodd"/>
<path id="Shape2DView_nwe0082"  d="M -5.25 -1.045 L -4.2 -1.0450000000000004 " stroke="#191919" stroke-width="0.35 px" style="stroke-width:0.35;stroke-miterlimit:4;stroke-dasharray:none;fill:none;fill-opacity:1;fill-rule: evenodd"/>
<path id="Shape2DView_nwe0083"  d="M -4.2 -1.045 L -4.188803552389669 -1.045 L -4.177747906604369 -1.045 L -4.166972093804484 -1.045 L -4.156611626088244 -1.045 L -4.146796792348466 -1.045 L -4.137651019814127 -1.045 L -4.129289321881346 -1.045 L -4.121816851753197 -1.045 L -4.115327580077172 -1.045 L -4.109903113209758 -1.045 L -4.105611666969163 -1.045 L -4.102507208781818 -1.045 L -4.100628779010676 -1.045 L -4.1000000000000005 -1.045 " stroke="#191919" stroke-width="0.35 px" style="stroke-width:0.35;stroke-miterlimit:4;stroke-dasharray:none;fill:none;fill-opacity:1;fill-rule: evenodd"/>
<path id="Shape2DView_nwe0084"  d="M -4.1 -1.045 L -4.098742441978649 -1.045 L -4.094985582436365 -1.045 L -4.088776666061674 -1.045 L -4.080193773580484 -1.045 L -4.069344839845657 -1.045 L -4.056366296493606 -1.045 L -4.04142135623731 -1.045 L -4.024697960371747 -1.045 L -4.006406415303068 -1.045 L -3.986776747823512 -1.045 L -3.9660558123910334 -1.045 L -3.9445041867912627 -1.045 L -3.9223928952206615 -1.045 L -3.9 -1.045 " stroke="#191919" stroke-width="0.35 px" style="stroke-width:0.35;stroke-miterlimit:4;stroke-dasharray:none;fill:none;fill-opacity:1;fill-rule: evenodd"/>
<path id="Shape2DView_nwe0085"  d="M -3.9 -1.045 L -3.8 -1.045 " stroke="#191919" stroke-width="0.35 px" style="stroke-width:0.35;stroke-miterlimit:4;stroke-dasharray:none;fill:none;fill-opacity:1;fill-rule: evenodd"/>
<path id="Shape2DView_nwe0086"  d="M -5.25 1.045 L -4.2 1.0449999999999995 " stroke="#191919" stroke-width="0.35 px" style="stroke-width:0.35;stroke-miterlimit:4;stroke-dasharray:none;fill:none;fill-opacity:1;fill-rule: evenodd"/>
<path id="Shape2DView_nwe0087"  d="M -4.2 1.045 L -4.188803552389669 1.045 L -4.177747906604369 1.045 L -4.166972093804484 1.045 L -4.156611626088244 1.045 L -4.146796792348466 1.045 L -4.137651019814127 1.045 L -4.129289321881346 1.045 L -4.121816851753197 1.045 L -4.115327580077172 1.045 L -4.109903113209758 1.045 L -4.105611666969163 1.045 L -4.102507208781818 1.045 L -4.100628779010676 1.045 L -4.1000000000000005 1.045 " stroke="#191919" stroke-width="0.35 px" style="stroke-width:0.35;stroke-miterlimit:4;stroke-dasharray:none;fill:none;fill-opacity:1;fill-rule: evenodd"/>
<path id="Shape2DView_nwe0088"  d="M -4.1 1.045 L -4.098742441978649 1.045 L -4.094985582436365 1.045 L -4.088776666061674 1.045 L -4.080193773580484 1.045 L -4.069344839845657 1.045 L -4.056366296493606 1.045 L -4.04142135623731 1.045 L -4.024697960371747 1.045 L -4.006406415303068 1.045 L -3.986776747823512 1.045 L -3.9660558123910334 1.045 L -3.9445041867912627 1.045 L -3.9223928952206615 1.045 L -3.9 1.045 " stroke="#191919" stroke-width="0.35 px" style="stroke-width:0.35;stroke-miterlimit:4;stroke-dasharray:none;fill:none;fill-opacity:1;fill-rule: evenodd"/>
<path id="Shape2DView_nwe0089"  d="M -3.9 1.045 L -3.8 1.045 " stroke="#191919" stroke-width="0.35 px" style="stroke-width:0.35;stroke-miterlimit:4;stroke-dasharray:none;fill:none;fill-opacity:1;fill-rule: evenodd"/>
<path id="Shape2DView_nwe0090"  d="M -4.1 -1.495 L -4.1 -1.045 " stroke="#191919" stroke-width="0.35 px" style="stroke-width:0.35;stroke-miterlimit:4;stroke-dasharray:none;fill:none;fill-opacity:1;fill-rule: evenodd"/>
<path id="Shape2DView_nwe0091"  d="M -5.25 -1.495 L -5.25 -1.045 " stroke="#191919" stroke-width="0.35 px" style="stroke-width:0.35;stroke-miterlimit:4;stroke-dasharray:none;fill:none;fill-opacity:1;fill-rule: evenodd"/>
<path id="Shape2DView_nwe0092"  d="M -4.1 1.045 L -4.1 1.495 " stroke="#191919" stroke-width="0.35 px" style="stroke-width:0.35;stroke-miterlimit:4;stroke-dasharray:none;fill:none;fill-opacity:1;fill-rule: evenodd"/>
<path id="Shape2DView_nwe0094"  d="M -5.25 1.045 L -5.25 1.495 " stroke="#191919" stroke-width="0.35 px" style="stroke-width:0.35;stroke-miterlimit:4;stroke-dasharray:none;fill:none;fill-opacity:1;fill-rule: evenodd"/>
<path id="Shape2DView_nwe0095"  d="M 3.9 1.495 L 3.9 1.045 " stroke="#191919" stroke-width="0.35 px" style="stroke-width:0.35;stroke-miterlimit:4;stroke-dasharray:none;fill:none;fill-opacity:1;fill-rule: evenodd"/>
<path id="Shape2DView_nwe0096"  d="M 4.2 1.495 L 4.2 1.045 " stroke="#191919" stroke-width="0.35 px" style="stroke-width:0.35;stroke-miterlimit:4;stroke-dasharray:none;fill:none;fill-opacity:1;fill-rule: evenodd"/>
<path id="Shape2DView_nwe0097"  d="M 3.9 -1.045 L 3.9 -1.495 " stroke="#191919" stroke-width="0.35 px" style="stroke-width:0.35;stroke-miterlimit:4;stroke-dasharray:none;fill:none;fill-opacity:1;fill-rule: evenodd"/>
<path id="Shape2DView_nwe0098"  d="M 4.2 -1.045 L 4.2 -1.495 " stroke="#191919" stroke-width="0.35 px" style="stroke-width:0.35;stroke-miterlimit:4;stroke-dasharray:none;fill:none;fill-opacity:1;fill-rule: evenodd"/>
<path id="Shape2DView_nwe0099"  d="M -3.9 -1.495 L -3.9 -1.045 " stroke="#191919" stroke-width="0.35 px" style="stroke-width:0.35;stroke-miterlimit:4;stroke-dasharray:none;fill:none;fill-opacity:1;fill-rule: evenodd"/>
<path id="Shape2DView_nwe0100"  d="M -3.9 1.045 L -3.9 1.495 " stroke="#191919" stroke-width="0.35 px" style="stroke-width:0.35;stroke-miterlimit:4;stroke-dasharray:none;fill:none;fill-opacity:1;fill-rule: evenodd"/>
<path id="Shape2DView_nwe0101"  d="M -4.2 -1.495 L -4.2 -1.045 " stroke="#191919" stroke-width="0.35 px" style="stroke-width:0.35;stroke-miterlimit:4;stroke-dasharray:none;fill:none;fill-opacity:1;fill-rule: evenodd"/>
<path id="Shape2DView_nwe0102"  d="M -4.2 1.045 L -4.2 1.495 " stroke="#191919" stroke-width="0.35 px" style="stroke-width:0.35;stroke-miterlimit:4;stroke-dasharray:none;fill:none;fill-opacity:1;fill-rule: evenodd"/>
<path id="Shape2DView_nwe0103"  d="M 3.8 1.045 L 3.725 1.045 " stroke="#191919" stroke-width="0.35 px" style="stroke-width:0.35;stroke-miterlimit:4;stroke-dasharray:none;fill:none;fill-opacity:1;fill-rule: evenodd"/>
<path id="Shape2DView_nwe0104"  d="M 3.8 1.495 L 3.725 1.495 " stroke="#191919" stroke-width="0.35 px" style="stroke-width:0.35;stroke-miterlimit:4;stroke-dasharray:none;fill:none;fill-opacity:1;fill-rule: evenodd"/>
<path id="Shape2DView_nwe0105"  d="M 3.8 -1.045 L 3.725 -1.045 " stroke="#191919" stroke-width="0.35 px" style="stroke-width:0.35;stroke-miterlimit:4;stroke-dasharray:none;fill:none;fill-opacity:1;fill-rule: evenodd"/>
<path id="Shape2DView_nwe0106"  d="M 3.8 -1.495 L 3.725 -1.495 " stroke="#191919" stroke-width="0.35 px" style="stroke-width:0.35;stroke-miterlimit:4;stroke-dasharray:none;fill:none;fill-opacity:1;fill-rule: evenodd"/>
<path id="Shape2DView_nwe0107"  d="M -3.8 -1.495 L -3.725 -1.495 " stroke="#191919" stroke-width="0.35 px" style="stroke-width:0.35;stroke-miterlimit:4;stroke-dasharray:none;fill:none;fill-opacity:1;fill-rule: evenodd"/>
<path id="Shape2DView_nwe0108"  d="M -3.8 1.495 L -3.725 1.495 " stroke="#191919" stroke-width="0.35 px" style="stroke-width:0.35;stroke-miterlimit:4;stroke-dasharray:none;fill:none;fill-opacity:1;fill-rule: evenodd"/>
<path id="Shape2DView_nwe0109"  d="M -3.8 -1.045 L -3.725 -1.045 " stroke="#191919" stroke-width="0.35 px" style="stroke-width:0.35;stroke-miterlimit:4;stroke-dasharray:none;fill:none;fill-opacity:1;fill-rule: evenodd"/>
<path id="Shape2DView_nwe0110"  d="M -3.8 1.045 L -3.725 1.045 " stroke="#191919" stroke-width="0.35 px" style="stroke-width:0.35;stroke-miterlimit:4;stroke-dasharray:none;fill:none;fill-opacity:1;fill-rule: evenodd"/>
<title>b'Shape2DView'</title>
</g>
<g id="Rectangle" transform="translate(5.355000,1.905000) scale(1,-1)">
<rect fill="#ff0000" id="origin" width="1" height="1" x="0" y="0" />
<title>b'Rectangle'</title>
</g>
</svg>