<?xml version="1.0"?>
<!DOCTYPE svg PUBLIC "-//W3C//DTD SVG 1.1//EN" "http://www.w3.org/Graphics/SVG/1.1/DTD/svg11.dtd">
<svg width="6.21792mm" height="4.210920000000002mm" viewBox="0 0 6.21792 4.210920000000002" xmlns="http://www.w3.org/2000/svg" version="1.1">
<g id="Shape2DView" transform="translate(3.108960,2.105460) scale(1,-1)">
<path id="Shape2DView_nwe0000"  d="M 3.048 1.4605 L 2.655 1.4605 " stroke="#191919" stroke-width="0.35 px" style="stroke-width:0.35;stroke-miterlimit:4;stroke-dasharray:none;fill:none;fill-opacity:1;fill-rule: evenodd"/>
<path id="Shape2DView_nwe0001"  d="M 2.655 1.4605 L 2.6382053285845037 1.4605 L 2.621621859906553 1.4605 L 2.6054581407067245 1.4605 L 2.5899174391323663 1.4605 L 2.575195188522699 1.4605 L 2.56147652972119 1.4605 L 2.548933982822018 1.4605 L 2.537725277629795 1.4605 L 2.5279913701157573 1.4605 L 2.519854669814637 1.4605 L 2.5134175004537447 1.4605 L 2.508760813172726 1.4605 L 2.5059431685160134 1.4605 L 2.505 1.4605 " stroke="#191919" stroke-width="0.35 px" style="stroke-width:0.35;stroke-miterlimit:4;stroke-dasharray:none;fill:none;fill-opacity:1;fill-rule: evenodd"/>
<path id="Shape2DView_nwe0002"  d="M 2.505 1.4605 L 2.5027992734626348 1.4605 L 2.496224769263638 1.4605 L 2.485359165607928 1.4605 L 2.4703391037658466 1.4605 L 2.451353469729899 1.4605 L 2.4286410188638103 1.4605 L 2.4024873734152914 1.4605 L 2.3732214306505566 1.4605 L 2.3412112267803677 1.4605 L 2.3068593086911453 1.4605 L 2.270597671684308 1.4605 L 2.23288232688471 1.4605 L 2.1941875666361574 1.4605 L 2.155 1.4605 " stroke="#191919" stroke-width="0.35 px" style="stroke-width:0.35;stroke-miterlimit:4;stroke-dasharray:none;fill:none;fill-opacity:1;fill-rule: evenodd"/>
<path id="Shape2DView_nwe0003"  d="M 2.155 1.4605 L 1.905 1.4605 " stroke="#191919" stroke-width="0.35 px" style="stroke-width:0.35;stroke-miterlimit:4;stroke-dasharray:none;fill:none;fill-opacity:1;fill-rule: evenodd"/>
<path id="Shape2DView_nwe0004"  d="M 3.048 1.0795 L 2.655 1.0795 " stroke="#191919" stroke-width="0.35 px" style="stroke-width:0.35;stroke-miterlimit:4;stroke-dasharray:none;fill:none;fill-opacity:1;fill-rule: evenodd"/>
<path id="Shape2DView_nwe0005"  d="M 2.655 1.0795 L 2.6382053285845037 1.0795 L 2.621621859906553 1.0795 L 2.6054581407067245 1.0795 L 2.5899174391323663 1.0795 L 2.575195188522699 1.0795 L 2.56147652972119 1.0795 L 2.548933982822018 1.0795 L 2.537725277629795 1.0795 L 2.5279913701157573 1.0795 L 2.519854669814637 1.0795 L 2.5134175004537447 1.0795 L 2.508760813172726 1.0795 L 2.5059431685160134 1.0795 L 2.505 1.0795 " stroke="#191919" stroke-width="0.35 px" style="stroke-width:0.35;stroke-miterlimit:4;stroke-dasharray:none;fill:none;fill-opacity:1;fill-rule: evenodd"/>
<path id="Shape2DView_nwe0006"  d="M 2.505 1.0795 L 2.5027992734626348 1.0795 L 2.496224769263638 1.0795 L 2.485359165607928 1.0795 L 2.4703391037658466 1.0795 L 2.451353469729899 1.0795 L 2.4286410188638103 1.0795 L 2.4024873734152914 1.0795 L 2.3732214306505566 1.0795 L 2.3412112267803677 1.0795 L 2.3068593086911453 1.0795 L 2.270597671684308 1.0795 L 2.23288232688471 1.0795 L 2.1941875666361574 1.0795 L 2.155 1.0795 " stroke="#191919" stroke-width="0.35 px" style="stroke-width:0.35;stroke-miterlimit:4;stroke-dasharray:none;fill:none;fill-opacity:1;fill-rule: evenodd"/>
<path id="Shape2DView_nwe0007"  d="M 2.155 1.0795 L 1.905 1.0795 " stroke="#191919" stroke-width="0.35 px" style="stroke-width:0.35;stroke-miterlimit:4;stroke-dasharray:none;fill:none;fill-opacity:1;fill-rule: evenodd"/>
<path id="Shape2DView_nwe0008"  d="M 1.905 1.8445 L 1.905 1.4605 " stroke="#191919" stroke-width="0.35 px" style="stroke-width:0.35;stroke-miterlimit:4;stroke-dasharray:none;fill:none;fill-opacity:1;fill-rule: evenodd"/>
<path id="Shape2DView_nwe0009"  d="M 1.855 1.4605 L 1.8550000000000002 1.0795 " stroke="#191919" stroke-width="0.35 px" style="stroke-width:0.35;stroke-miterlimit:4;stroke-dasharray:none;fill:none;fill-opacity:1;fill-rule: evenodd"/>
<path id="Shape2DView_nwe0010"  d="M 2.505 1.4605 L 2.505 1.0795 " stroke="#191919" stroke-width="0.35 px" style="stroke-width:0.35;stroke-miterlimit:4;stroke-dasharray:none;fill:none;fill-opacity:1;fill-rule: evenodd"/>
<path id="Shape2DView_nwe0011"  d="M 3.048 1.4605 L 3.048 1.0795 " stroke="#191919" stroke-width="0.35 px" style="stroke-width:0.35;stroke-miterlimit:4;stroke-dasharray:none;fill:none;fill-opacity:1;fill-rule: evenodd"/>
<path id="Shape2DView_nwe0012"  d="M 1.9050000000000002 1.0795 L 1.9050000000000007 -1.0795 " stroke="#191919" stroke-width="0.35 px" style="stroke-width:0.35;stroke-miterlimit:4;stroke-dasharray:none;fill:none;fill-opacity:1;fill-rule: evenodd"/>
<path id="Shape2DView_nwe0013"  d="M 1.9050000000000007 -1.4604999999999997 L 1.905000000000001 -1.8445 " stroke="#191919" stroke-width="0.35 px" style="stroke-width:0.35;stroke-miterlimit:4;stroke-dasharray:none;fill:none;fill-opacity:1;fill-rule: evenodd"/>
<path id="Shape2DView_nwe0014"  d="M 1.705 2.0445 L 1.9050000000000002 1.8445 " stroke="#191919" stroke-width="0.35 px" style="stroke-width:0.35;stroke-miterlimit:4;stroke-dasharray:none;fill:none;fill-opacity:1;fill-rule: evenodd"/>
<path id="Shape2DView_nwe0015"  d="M 1.905 1.8445 L 1.855 1.8195 " stroke="#191919" stroke-width="0.35 px" style="stroke-width:0.35;stroke-miterlimit:4;stroke-dasharray:none;fill:none;fill-opacity:1;fill-rule: evenodd"/>
<path id="Shape2DView_nwe0016"  d="M 1.855 1.8195 L 1.855 1.4605 " stroke="#191919" stroke-width="0.35 px" style="stroke-width:0.35;stroke-miterlimit:4;stroke-dasharray:none;fill:none;fill-opacity:1;fill-rule: evenodd"/>
<path id="Shape2DView_nwe0017"  d="M 1.8550000000000002 1.0795 L 1.8550000000000006 -1.0795000000000001 " stroke="#191919" stroke-width="0.35 px" style="stroke-width:0.35;stroke-miterlimit:4;stroke-dasharray:none;fill:none;fill-opacity:1;fill-rule: evenodd"/>
<path id="Shape2DView_nwe0018"  d="M 1.8550000000000006 -1.0795000000000001 L 1.8550000000000006 -1.4605 " stroke="#191919" stroke-width="0.35 px" style="stroke-width:0.35;stroke-miterlimit:4;stroke-dasharray:none;fill:none;fill-opacity:1;fill-rule: evenodd"/>
<path id="Shape2DView_nwe0019"  d="M 1.8550000000000006 -1.4605 L 1.8550000000000009 -1.8195 " stroke="#191919" stroke-width="0.35 px" style="stroke-width:0.35;stroke-miterlimit:4;stroke-dasharray:none;fill:none;fill-opacity:1;fill-rule: evenodd"/>
<path id="Shape2DView_nwe0020"  d="M 1.855 -1.8195 L 1.663699094497 -1.723849547248 " stroke="#191919" stroke-width="0.35 px" style="stroke-width:0.35;stroke-miterlimit:4;stroke-dasharray:none;fill:none;fill-opacity:1;fill-rule: evenodd"/>
<path id="Shape2DView_nwe0021"  d="M 1.663699094497 1.723849547248 L 1.6636990944970007 -1.723849547248 " stroke="#191919" stroke-width="0.35 px" style="stroke-width:0.35;stroke-miterlimit:4;stroke-dasharray:none;fill:none;fill-opacity:1;fill-rule: evenodd"/>
<path id="Shape2DView_nwe0022"  d="M 1.855 1.8195 L 1.663699094497 1.723849547248 " stroke="#191919" stroke-width="0.35 px" style="stroke-width:0.35;stroke-miterlimit:4;stroke-dasharray:none;fill:none;fill-opacity:1;fill-rule: evenodd"/>
<path id="Shape2DView_nwe0023"  d="M 3.048 -1.0795 L 2.655 -1.0795 " stroke="#191919" stroke-width="0.35 px" style="stroke-width:0.35;stroke-miterlimit:4;stroke-dasharray:none;fill:none;fill-opacity:1;fill-rule: evenodd"/>
<path id="Shape2DView_nwe0024"  d="M 2.655 -1.0795 L 2.6382053285845037 -1.0795 L 2.621621859906553 -1.0795 L 2.6054581407067245 -1.0795 L 2.5899174391323663 -1.0795 L 2.575195188522699 -1.0795 L 2.56147652972119 -1.0795 L 2.548933982822018 -1.0795 L 2.537725277629795 -1.0795 L 2.5279913701157573 -1.0795 L 2.519854669814637 -1.0795 L 2.5134175004537447 -1.0795 L 2.508760813172726 -1.0795 L 2.5059431685160134 -1.0795 L 2.505 -1.0795 " stroke="#191919" stroke-width="0.35 px" style="stroke-width:0.35;stroke-miterlimit:4;stroke-dasharray:none;fill:none;fill-opacity:1;fill-rule: evenodd"/>
<path id="Shape2DView_nwe0025"  d="M 2.505 -1.0795 L 2.5027992734626348 -1.0795 L 2.496224769263638 -1.0795 L 2.485359165607928 -1.0795 L 2.4703391037658466 -1.0795 L 2.451353469729899 -1.0795 L 2.4286410188638103 -1.0795 L 2.4024873734152914 -1.0795 L 2.3732214306505566 -1.0795 L 2.3412112267803677 -1.0795 L 2.3068593086911453 -1.0795 L 2.270597671684308 -1.0795 L 2.23288232688471 -1.0795 L 2.1941875666361574 -1.0795 L 2.155 -1.0795 " stroke="#191919" stroke-width="0.35 px" style="stroke-width:0.35;stroke-miterlimit:4;stroke-dasharray:none;fill:none;fill-opacity:1;fill-rule: evenodd"/>
<path id="Shape2DView_nwe0026"  d="M 2.155 -1.0795 L 1.905 -1.0795 " stroke="#191919" stroke-width="0.35 px" style="stroke-width:0.35;stroke-miterlimit:4;stroke-dasharray:none;fill:none;fill-opacity:1;fill-rule: evenodd"/>
<path id="Shape2DView_nwe0027"  d="M 1.905 -1.8445 L 1.7049999999999998 -2.0445 " stroke="#191919" stroke-width="0.35 px" style="stroke-width:0.35;stroke-miterlimit:4;stroke-dasharray:none;fill:none;fill-opacity:1;fill-rule: evenodd"/>
<path id="Shape2DView_nwe0028"  d="M 3.048 -1.4605 L 2.655 -1.4605 " stroke="#191919" stroke-width="0.35 px" style="stroke-width:0.35;stroke-miterlimit:4;stroke-dasharray:none;fill:none;fill-opacity:1;fill-rule: evenodd"/>
<path id="Shape2DView_nwe0029"  d="M 2.655 -1.4605 L 2.6382053285845037 -1.4605 L 2.621621859906553 -1.4605 L 2.6054581407067245 -1.4605 L 2.5899174391323663 -1.4605 L 2.575195188522699 -1.4605 L 2.56147652972119 -1.4605 L 2.548933982822018 -1.4605 L 2.537725277629795 -1.4605 L 2.5279913701157573 -1.4605 L 2.519854669814637 -1.4605 L 2.5134175004537447 -1.4605 L 2.508760813172726 -1.4605 L 2.5059431685160134 -1.4605 L 2.505 -1.4605 " stroke="#191919" stroke-width="0.35 px" style="stroke-width:0.35;stroke-miterlimit:4;stroke-dasharray:none;fill:none;fill-opacity:1;fill-rule: evenodd"/>
<path id="Shape2DView_nwe0030"  d="M 2.505 -1.4605 L 2.5027992734626348 -1.4605 L 2.496224769263638 -1.4605 L 2.485359165607928 -1.4605 L 2.4703391037658466 -1.4605 L 2.451353469729899 -1.4605 L 2.4286410188638103 -1.4605 L 2.4024873734152914 -1.4605 L 2.3732214306505566 -1.4605 L 2.3412112267803677 -1.4605 L 2.3068593086911453 -1.4605 L 2.270597671684308 -1.4605 L 2.23288232688471 -1.4605 L 2.1941875666361574 -1.4605 L 2.155 -1.4605 " stroke="#191919" stroke-width="0.35 px" style="stroke-width:0.35;stroke-miterlimit:4;stroke-dasharray:none;fill:none;fill-opacity:1;fill-rule: evenodd"/>
<path id="Shape2DView_nwe0031"  d="M 2.155 -1.4605 L 1.905 -1.4605 " stroke="#191919" stroke-width="0.35 px" style="stroke-width:0.35;stroke-miterlimit:4;stroke-dasharray:none;fill:none;fill-opacity:1;fill-rule: evenodd"/>
<path id="Shape2DView_nwe0032"  d="M 1.905 -1.8445 L 1.855 -1.8195 " stroke="#191919" stroke-width="0.35 px" style="stroke-width:0.35;stroke-miterlimit:4;stroke-dasharray:none;fill:none;fill-opacity:1;fill-rule: evenodd"/>
<path id="Shape2DView_nwe0033"  d="M 1.68 1.9945 L 1.855 1.8195 " stroke="#191919" stroke-width="0.35 px" style="stroke-width:0.35;stroke-miterlimit:4;stroke-dasharray:none;fill:none;fill-opacity:1;fill-rule: evenodd"/>
<path id="Shape2DView_nwe0034"  d="M 1.705 2.0445 L 1.68 1.9945 " stroke="#191919" stroke-width="0.35 px" style="stroke-width:0.35;stroke-miterlimit:4;stroke-dasharray:none;fill:none;fill-opacity:1;fill-rule: evenodd"/>
<path id="Shape2DView_nwe0035"  d="M -1.705 2.0445 L 1.705 2.044500000000001 " stroke="#191919" stroke-width="0.35 px" style="stroke-width:0.35;stroke-miterlimit:4;stroke-dasharray:none;fill:none;fill-opacity:1;fill-rule: evenodd"/>
<path id="Shape2DView_nwe0036"  d="M 1.584349547248 1.803199094497 L 1.663699094497 1.723849547248 " stroke="#191919" stroke-width="0.35 px" style="stroke-width:0.35;stroke-miterlimit:4;stroke-dasharray:none;fill:none;fill-opacity:1;fill-rule: evenodd"/>
<path id="Shape2DView_nwe0037"  d="M 1.68 1.9945 L 1.584349547248 1.803199094497 " stroke="#191919" stroke-width="0.35 px" style="stroke-width:0.35;stroke-miterlimit:4;stroke-dasharray:none;fill:none;fill-opacity:1;fill-rule: evenodd"/>
<path id="Shape2DView_nwe0038"  d="M -1.584349547248 1.803199094497 L 1.584349547248 1.8031990944970007 " stroke="#191919" stroke-width="0.35 px" style="stroke-width:0.35;stroke-miterlimit:4;stroke-dasharray:none;fill:none;fill-opacity:1;fill-rule: evenodd"/>
<path id="Shape2DView_nwe0039"  d="M -1.663699094497 1.723849547248 L -1.584349547248 1.803199094497 " stroke="#191919" stroke-width="0.35 px" style="stroke-width:0.35;stroke-miterlimit:4;stroke-dasharray:none;fill:none;fill-opacity:1;fill-rule: evenodd"/>
<path id="Shape2DView_nwe0040"  d="M -1.663699094497 -1.723849547248 L -1.6636990944970007 1.723849547248 " stroke="#191919" stroke-width="0.35 px" style="stroke-width:0.35;stroke-miterlimit:4;stroke-dasharray:none;fill:none;fill-opacity:1;fill-rule: evenodd"/>
<path id="Shape2DView_nwe0041"  d="M -1.584349547248 -1.803199094497 L -1.663699094497 -1.723849547248 " stroke="#191919" stroke-width="0.35 px" style="stroke-width:0.35;stroke-miterlimit:4;stroke-dasharray:none;fill:none;fill-opacity:1;fill-rule: evenodd"/>
<path id="Shape2DView_nwe0042"  d="M 1.584349547248 -1.803199094497 L -1.584349547248 -1.8031990944970007 " stroke="#191919" stroke-width="0.35 px" style="stroke-width:0.35;stroke-miterlimit:4;stroke-dasharray:none;fill:none;fill-opacity:1;fill-rule: evenodd"/>
<path id="Shape2DView_nwe0043"  d="M 1.663699094497 -1.723849547248 L 1.584349547248 -1.803199094497 " stroke="#191919" stroke-width="0.35 px" style="stroke-width:0.35;stroke-miterlimit:4;stroke-dasharray:none;fill:none;fill-opacity:1;fill-rule: evenodd"/>
<circle cx="-1.063699094497" cy="1.203199094497" r="0.25" stroke="#191919" stroke-width="0.35 px" style="stroke-width:0.35;stroke-miterlimit:4;stroke-dasharray:none;fill:none"/>
<path id="Shape2DView_nwe0045"  d="M 1.855 -1.8195 L 1.68 -1.9945 " stroke="#191919" stroke-width="0.35 px" style="stroke-width:0.35;stroke-miterlimit:4;stroke-dasharray:none;fill:none;fill-opacity:1;fill-rule: evenodd"/>
<path id="Shape2DView_nwe0046"  d="M 1.68 -1.9945 L 1.584349547248 -1.803199094497 " stroke="#191919" stroke-width="0.35 px" style="stroke-width:0.35;stroke-miterlimit:4;stroke-dasharray:none;fill:none;fill-opacity:1;fill-rule: evenodd"/>
<path id="Shape2DView_nwe0047"  d="M 2.505 -1.0795 L 2.505 -1.4605 " stroke="#191919" stroke-width="0.35 px" style="stroke-width:0.35;stroke-miterlimit:4;stroke-dasharray:none;fill:none;fill-opacity:1;fill-rule: evenodd"/>
<path id="Shape2DView_nwe0048"  d="M 3.048 -1.0795 L 3.048 -1.4605 " stroke="#191919" stroke-width="0.35 px" style="stroke-width:0.35;stroke-miterlimit:4;stroke-dasharray:none;fill:none;fill-opacity:1;fill-rule: evenodd"/>
<path id="Shape2DView_nwe0049"  d="M 1.705 -2.0445 L -1.705 -2.044500000000001 " stroke="#191919" stroke-width="0.35 px" style="stroke-width:0.35;stroke-miterlimit:4;stroke-dasharray:none;fill:none;fill-opacity:1;fill-rule: evenodd"/>
<path id="Shape2DView_nwe0050"  d="M -1.705 -2.0445 L -1.9050000000000002 -1.8445 " stroke="#191919" stroke-width="0.35 px" style="stroke-width:0.35;stroke-miterlimit:4;stroke-dasharray:none;fill:none;fill-opacity:1;fill-rule: evenodd"/>
<path id="Shape2DView_nwe0051"  d="M -1.905 -1.8445 L -1.905 -1.4605 " stroke="#191919" stroke-width="0.35 px" style="stroke-width:0.35;stroke-miterlimit:4;stroke-dasharray:none;fill:none;fill-opacity:1;fill-rule: evenodd"/>
<path id="Shape2DView_nwe0052"  d="M -1.9050000000000007 1.4604999999999997 L -1.905000000000001 1.8445 " stroke="#191919" stroke-width="0.35 px" style="stroke-width:0.35;stroke-miterlimit:4;stroke-dasharray:none;fill:none;fill-opacity:1;fill-rule: evenodd"/>
<path id="Shape2DView_nwe0053"  d="M -1.9050000000000002 -1.0795 L -1.9050000000000007 1.0795 " stroke="#191919" stroke-width="0.35 px" style="stroke-width:0.35;stroke-miterlimit:4;stroke-dasharray:none;fill:none;fill-opacity:1;fill-rule: evenodd"/>
<path id="Shape2DView_nwe0054"  d="M -1.905 1.8445 L -1.7049999999999998 2.0445 " stroke="#191919" stroke-width="0.35 px" style="stroke-width:0.35;stroke-miterlimit:4;stroke-dasharray:none;fill:none;fill-opacity:1;fill-rule: evenodd"/>
<path id="Shape2DView_nwe0055"  d="M 1.705 -2.0445 L 1.68 -1.9945 " stroke="#191919" stroke-width="0.35 px" style="stroke-width:0.35;stroke-miterlimit:4;stroke-dasharray:none;fill:none;fill-opacity:1;fill-rule: evenodd"/>
<path id="Shape2DView_nwe0056"  d="M -1.68 1.9945 L 1.68 1.9945000000000006 " stroke="#191919" stroke-width="0.35 px" style="stroke-width:0.35;stroke-miterlimit:4;stroke-dasharray:none;fill:none;fill-opacity:1;fill-rule: evenodd"/>
<path id="Shape2DView_nwe0057"  d="M -1.705 2.0445 L -1.68 1.9945 " stroke="#191919" stroke-width="0.35 px" style="stroke-width:0.35;stroke-miterlimit:4;stroke-dasharray:none;fill:none;fill-opacity:1;fill-rule: evenodd"/>
<path id="Shape2DView_nwe0058"  d="M -1.68 1.9945 L -1.584349547248 1.803199094497 " stroke="#191919" stroke-width="0.35 px" style="stroke-width:0.35;stroke-miterlimit:4;stroke-dasharray:none;fill:none;fill-opacity:1;fill-rule: evenodd"/>
<path id="Shape2DView_nwe0059"  d="M -1.855 1.8195 L -1.68 1.9945 " stroke="#191919" stroke-width="0.35 px" style="stroke-width:0.35;stroke-miterlimit:4;stroke-dasharray:none;fill:none;fill-opacity:1;fill-rule: evenodd"/>
<path id="Shape2DView_nwe0060"  d="M -1.855 1.8195 L -1.663699094497 1.723849547248 " stroke="#191919" stroke-width="0.35 px" style="stroke-width:0.35;stroke-miterlimit:4;stroke-dasharray:none;fill:none;fill-opacity:1;fill-rule: evenodd"/>
<path id="Shape2DView_nwe0061"  d="M -1.855 -1.8195 L -1.855 -1.4605 " stroke="#191919" stroke-width="0.35 px" style="stroke-width:0.35;stroke-miterlimit:4;stroke-dasharray:none;fill:none;fill-opacity:1;fill-rule: evenodd"/>
<path id="Shape2DView_nwe0062"  d="M -1.855 -1.4605 L -1.8550000000000002 -1.0795 " stroke="#191919" stroke-width="0.35 px" style="stroke-width:0.35;stroke-miterlimit:4;stroke-dasharray:none;fill:none;fill-opacity:1;fill-rule: evenodd"/>
<path id="Shape2DView_nwe0063"  d="M -1.8550000000000002 -1.0795 L -1.8550000000000006 1.0795000000000001 " stroke="#191919" stroke-width="0.35 px" style="stroke-width:0.35;stroke-miterlimit:4;stroke-dasharray:none;fill:none;fill-opacity:1;fill-rule: evenodd"/>
<path id="Shape2DView_nwe0064"  d="M -1.8550000000000006 1.0795000000000001 L -1.8550000000000006 1.4605 " stroke="#191919" stroke-width="0.35 px" style="stroke-width:0.35;stroke-miterlimit:4;stroke-dasharray:none;fill:none;fill-opacity:1;fill-rule: evenodd"/>
<path id="Shape2DView_nwe0065"  d="M -1.8550000000000006 1.4605 L -1.8550000000000009 1.8195 " stroke="#191919" stroke-width="0.35 px" style="stroke-width:0.35;stroke-miterlimit:4;stroke-dasharray:none;fill:none;fill-opacity:1;fill-rule: evenodd"/>
<path id="Shape2DView_nwe0066"  d="M -1.855 -1.8195 L -1.663699094497 -1.723849547248 " stroke="#191919" stroke-width="0.35 px" style="stroke-width:0.35;stroke-miterlimit:4;stroke-dasharray:none;fill:none;fill-opacity:1;fill-rule: evenodd"/>
<path id="Shape2DView_nwe0067"  d="M -1.68 -1.9945 L -1.855 -1.8195 " stroke="#191919" stroke-width="0.35 px" style="stroke-width:0.35;stroke-miterlimit:4;stroke-dasharray:none;fill:none;fill-opacity:1;fill-rule: evenodd"/>
<path id="Shape2DView_nwe0068"  d="M -1.68 -1.9945 L -1.584349547248 -1.803199094497 " stroke="#191919" stroke-width="0.35 px" style="stroke-width:0.35;stroke-miterlimit:4;stroke-dasharray:none;fill:none;fill-opacity:1;fill-rule: evenodd"/>
<path id="Shape2DView_nwe0069"  d="M 1.68 -1.9945 L -1.68 -1.9945000000000006 " stroke="#191919" stroke-width="0.35 px" style="stroke-width:0.35;stroke-miterlimit:4;stroke-dasharray:none;fill:none;fill-opacity:1;fill-rule: evenodd"/>
<path id="Shape2DView_nwe0070"  d="M -1.705 -2.0445 L -1.68 -1.9945 " stroke="#191919" stroke-width="0.35 px" style="stroke-width:0.35;stroke-miterlimit:4;stroke-dasharray:none;fill:none;fill-opacity:1;fill-rule: evenodd"/>
<path id="Shape2DView_nwe0071"  d="M -1.905 -1.8445 L -1.855 -1.8195 " stroke="#191919" stroke-width="0.35 px" style="stroke-width:0.35;stroke-miterlimit:4;stroke-dasharray:none;fill:none;fill-opacity:1;fill-rule: evenodd"/>
<path id="Shape2DView_nwe0072"  d="M -3.048 -1.4605 L -2.655 -1.4605 " stroke="#191919" stroke-width="0.35 px" style="stroke-width:0.35;stroke-miterlimit:4;stroke-dasharray:none;fill:none;fill-opacity:1;fill-rule: evenodd"/>
<path id="Shape2DView_nwe0073"  d="M -2.655 -1.4605 L -2.6382053285845037 -1.4605 L -2.621621859906553 -1.4605 L -2.6054581407067245 -1.4605 L -2.5899174391323663 -1.4605 L -2.575195188522699 -1.4605 L -2.56147652972119 -1.4605 L -2.548933982822018 -1.4605 L -2.537725277629795 -1.4605 L -2.5279913701157573 -1.4605 L -2.519854669814637 -1.4605 L -2.5134175004537447 -1.4605 L -2.508760813172726 -1.4605 L -2.5059431685160134 -1.4605 L -2.505 -1.4605 " stroke="#191919" stroke-width="0.35 px" style="stroke-width:0.35;stroke-miterlimit:4;stroke-dasharray:none;fill:none;fill-opacity:1;fill-rule: evenodd"/>
<path id="Shape2DView_nwe0074"  d="M -2.505 -1.4605 L -2.5027992734626348 -1.4605 L -2.496224769263638 -1.4605 L -2.485359165607928 -1.4605 L -2.4703391037658466 -1.4605 L -2.451353469729899 -1.4605 L -2.4286410188638103 -1.4605 L -2.4024873734152914 -1.4605 L -2.3732214306505566 -1.4605 L -2.3412112267803677 -1.4605 L -2.3068593086911453 -1.4605 L -2.270597671684308 -1.4605 L -2.23288232688471 -1.4605 L -2.1941875666361574 -1.4605 L -2.155 -1.4605 " stroke="#191919" stroke-width="0.35 px" style="stroke-width:0.35;stroke-miterlimit:4;stroke-dasharray:none;fill:none;fill-opacity:1;fill-rule: evenodd"/>
<path id="Shape2DView_nwe0075"  d="M -2.155 -1.4605 L -1.905 -1.4605 " stroke="#191919" stroke-width="0.35 px" style="stroke-width:0.35;stroke-miterlimit:4;stroke-dasharray:none;fill:none;fill-opacity:1;fill-rule: evenodd"/>
<path id="Shape2DView_nwe0076"  d="M -3.048 1.4605 L -2.655 1.4605 " stroke="#191919" stroke-width="0.35 px" style="stroke-width:0.35;stroke-miterlimit:4;stroke-dasharray:none;fill:none;fill-opacity:1;fill-rule: evenodd"/>
<path id="Shape2DView_nwe0077"  d="M -2.655 1.4605 L -2.6382053285845037 1.4605 L -2.621621859906553 1.4605 L -2.6054581407067245 1.4605 L -2.5899174391323663 1.4605 L -2.575195188522699 1.4605 L -2.56147652972119 1.4605 L -2.548933982822018 1.4605 L -2.537725277629795 1.4605 L -2.5279913701157573 1.4605 L -2.519854669814637 1.4605 L -2.5134175004537447 1.4605 L -2.508760813172726 1.4605 L -2.5059431685160134 1.4605 L -2.505 1.4605 " stroke="#191919" stroke-width="0.35 px" style="stroke-width:0.35;stroke-miterlimit:4;stroke-dasharray:none;fill:none;fill-opacity:1;fill-rule: evenodd"/>
<path id="Shape2DView_nwe0078"  d="M -2.505 1.4605 L -2.5027992734626348 1.4605 L -2.496224769263638 1.4605 L -2.485359165607928 1.4605 L -2.4703391037658466 1.4605 L -2.451353469729899 1.4605 L -2.4286410188638103 1.4605 L -2.4024873734152914 1.4605 L -2.3732214306505566 1.4605 L -2.3412112267803677 1.4605 L -2.3068593086911453 1.4605 L -2.270597671684308 1.4605 L -2.23288232688471 1.4605 L -2.1941875666361574 1.4605 L -2.155 1.4605 " stroke="#191919" stroke-width="0.35 px" style="stroke-width:0.35;stroke-miterlimit:4;stroke-dasharray:none;fill:none;fill-opacity:1;fill-rule: evenodd"/>
<path id="Shape2DView_nwe0079"  d="M -2.155 1.4605 L -1.905 1.4605 " stroke="#191919" stroke-width="0.35 px" style="stroke-width:0.35;stroke-miterlimit:4;stroke-dasharray:none;fill:none;fill-opacity:1;fill-rule: evenodd"/>
<path id="Shape2DView_nwe0080"  d="M -1.905 1.8445 L -1.855 1.8195 " stroke="#191919" stroke-width="0.35 px" style="stroke-width:0.35;stroke-miterlimit:4;stroke-dasharray:none;fill:none;fill-opacity:1;fill-rule: evenodd"/>
<path id="Shape2DView_nwe0081"  d="M -3.048 -1.0795 L -2.655 -1.0795 " stroke="#191919" stroke-width="0.35 px" style="stroke-width:0.35;stroke-miterlimit:4;stroke-dasharray:none;fill:none;fill-opacity:1;fill-rule: evenodd"/>
<path id="Shape2DView_nwe0082"  d="M -2.655 -1.0795 L -2.6382053285845037 -1.0795 L -2.621621859906553 -1.0795 L -2.6054581407067245 -1.0795 L -2.5899174391323663 -1.0795 L -2.575195188522699 -1.0795 L -2.56147652972119 -1.0795 L -2.548933982822018 -1.0795 L -2.537725277629795 -1.0795 L -2.5279913701157573 -1.0795 L -2.519854669814637 -1.0795 L -2.5134175004537447 -1.0795 L -2.508760813172726 -1.0795 L -2.5059431685160134 -1.0795 L -2.505 -1.0795 " stroke="#191919" stroke-width="0.35 px" style="stroke-width:0.35;stroke-miterlimit:4;stroke-dasharray:none;fill:none;fill-opacity:1;fill-rule: evenodd"/>
<path id="Shape2DView_nwe0083"  d="M -2.505 -1.0795 L -2.5027992734626348 -1.0795 L -2.496224769263638 -1.0795 L -2.485359165607928 -1.0795 L -2.4703391037658466 -1.0795 L -2.451353469729899 -1.0795 L -2.4286410188638103 -1.0795 L -2.4024873734152914 -1.0795 L -2.3732214306505566 -1.0795 L -2.3412112267803677 -1.0795 L -2.3068593086911453 -1.0795 L -2.270597671684308 -1.0795 L -2.23288232688471 -1.0795 L -2.1941875666361574 -1.0795 L -2.155 -1.0795 " stroke="#191919" stroke-width="0.35 px" style="stroke-width:0.35;stroke-miterlimit:4;stroke-dasharray:none;fill:none;fill-opacity:1;fill-rule: evenodd"/>
<path id="Shape2DView_nwe0084"  d="M -2.155 -1.0795 L -1.905 -1.0795 " stroke="#191919" stroke-width="0.35 px" style="stroke-width:0.35;stroke-miterlimit:4;stroke-dasharray:none;fill:none;fill-opacity:1;fill-rule: evenodd"/>
<path id="Shape2DView_nwe0085"  d="M -3.048 1.0795 L -2.655 1.0795 " stroke="#191919" stroke-width="0.35 px" style="stroke-width:0.35;stroke-miterlimit:4;stroke-dasharray:none;fill:none;fill-opacity:1;fill-rule: evenodd"/>
<path id="Shape2DView_nwe0086"  d="M -2.655 1.0795 L -2.6382053285845037 1.0795 L -2.621621859906553 1.0795 L -2.6054581407067245 1.0795 L -2.5899174391323663 1.0795 L -2.575195188522699 1.0795 L -2.56147652972119 1.0795 L -2.548933982822018 1.0795 L -2.537725277629795 1.0795 L -2.5279913701157573 1.0795 L -2.519854669814637 1.0795 L -2.5134175004537447 1.0795 L -2.508760813172726 1.0795 L -2.5059431685160134 1.0795 L -2.505 1.0795 " stroke="#191919" stroke-width="0.35 px" style="stroke-width:0.35;stroke-miterlimit:4;stroke-dasharray:none;fill:none;fill-opacity:1;fill-rule: evenodd"/>
<path id="Shape2DView_nwe0087"  d="M -2.505 1.0795 L -2.5027992734626348 1.0795 L -2.496224769263638 1.0795 L -2.485359165607928 1.0795 L -2.4703391037658466 1.0795 L -2.451353469729899 1.0795 L -2.4286410188638103 1.0795 L -2.4024873734152914 1.0795 L -2.3732214306505566 1.0795 L -2.3412112267803677 1.0795 L -2.3068593086911453 1.0795 L -2.270597671684308 1.0795 L -2.23288232688471 1.0795 L -2.1941875666361574 1.0795 L -2.155 1.0795 " stroke="#191919" stroke-width="0.35 px" style="stroke-width:0.35;stroke-miterlimit:4;stroke-dasharray:none;fill:none;fill-opacity:1;fill-rule: evenodd"/>
<path id="Shape2DView_nwe0088"  d="M -2.155 1.0795 L -1.905 1.0795 " stroke="#191919" stroke-width="0.35 px" style="stroke-width:0.35;stroke-miterlimit:4;stroke-dasharray:none;fill:none;fill-opacity:1;fill-rule: evenodd"/>
<path id="Shape2DView_nwe0089"  d="M -2.505 -1.4605 L -2.505 -1.0795 " stroke="#191919" stroke-width="0.35 px" style="stroke-width:0.35;stroke-miterlimit:4;stroke-dasharray:none;fill:none;fill-opacity:1;fill-rule: evenodd"/>
<path id="Shape2DView_nwe0091"  d="M -3.048 -1.4605 L -3.048 -1.0795 " stroke="#191919" stroke-width="0.35 px" style="stroke-width:0.35;stroke-miterlimit:4;stroke-dasharray:none;fill:none;fill-opacity:1;fill-rule: evenodd"/>
<path id="Shape2DView_nwe0092"  d="M -2.505 1.0795 L -2.505 1.4605 " stroke="#191919" stroke-width="0.35 px" style="stroke-width:0.35;stroke-miterlimit:4;stroke-dasharray:none;fill:none;fill-opacity:1;fill-rule: evenodd"/>
<path id="Shape2DView_nwe0094"  d="M -3.048 1.0795 L -3.048 1.4605 " stroke="#191919" stroke-width="0.35 px" style="stroke-width:0.35;stroke-miterlimit:4;stroke-dasharray:none;fill:none;fill-opacity:1;fill-rule: evenodd"/>
<path id="Shape2DView_nwe0095"  d="M 2.155 1.4605 L 2.155 1.0795 " stroke="#191919" stroke-width="0.35 px" style="stroke-width:0.35;stroke-miterlimit:4;stroke-dasharray:none;fill:none;fill-opacity:1;fill-rule: evenodd"/>
<path id="Shape2DView_nwe0096"  d="M 2.655 1.4605 L 2.655 1.0795 " stroke="#191919" stroke-width="0.35 px" style="stroke-width:0.35;stroke-miterlimit:4;stroke-dasharray:none;fill:none;fill-opacity:1;fill-rule: evenodd"/>
<path id="Shape2DView_nwe0097"  d="M 2.155 -1.0795 L 2.155 -1.4605 " stroke="#191919" stroke-width="0.35 px" style="stroke-width:0.35;stroke-miterlimit:4;stroke-dasharray:none;fill:none;fill-opacity:1;fill-rule: evenodd"/>
<path id="Shape2DView_nwe0098"  d="M 2.655 -1.0795 L 2.655 -1.4605 " stroke="#191919" stroke-width="0.35 px" style="stroke-width:0.35;stroke-miterlimit:4;stroke-dasharray:none;fill:none;fill-opacity:1;fill-rule: evenodd"/>
<path id="Shape2DView_nwe0099"  d="M -2.155 -1.4605 L -2.155 -1.0795 " stroke="#191919" stroke-width="0.35 px" style="stroke-width:0.35;stroke-miterlimit:4;stroke-dasharray:none;fill:none;fill-opacity:1;fill-rule: evenodd"/>
<path id="Shape2DView_nwe0100"  d="M -2.155 1.0795 L -2.155 1.4605 " stroke="#191919" stroke-width="0.35 px" style="stroke-width:0.35;stroke-miterlimit:4;stroke-dasharray:none;fill:none;fill-opacity:1;fill-rule: evenodd"/>
<path id="Shape2DView_nwe0101"  d="M -2.655 -1.4605 L -2.655 -1.0795 " stroke="#191919" stroke-width="0.35 px" style="stroke-width:0.35;stroke-miterlimit:4;stroke-dasharray:none;fill:none;fill-opacity:1;fill-rule: evenodd"/>
<path id="Shape2DView_nwe0102"  d="M -2.655 1.0795 L -2.655 1.4605 " stroke="#191919" stroke-width="0.35 px" style="stroke-width:0.35;stroke-miterlimit:4;stroke-dasharray:none;fill:none;fill-opacity:1;fill-rule: evenodd"/>
<path id="Shape2DView_nwe0103"  d="M 1.905 1.0795 L 1.855 1.0795 " stroke="#191919" stroke-width="0.35 px" style="stroke-width:0.35;stroke-miterlimit:4;stroke-dasharray:none;fill:none;fill-opacity:1;fill-rule: evenodd"/>
<path id="Shape2DView_nwe0104"  d="M 1.905 1.4605 L 1.855 1.4605 " stroke="#191919" stroke-width="0.35 px" style="stroke-width:0.35;stroke-miterlimit:4;stroke-dasharray:none;fill:none;fill-opacity:1;fill-rule: evenodd"/>
<path id="Shape2DView_nwe0105"  d="M 1.905 -1.0795 L 1.855 -1.0795 " stroke="#191919" stroke-width="0.35 px" style="stroke-width:0.35;stroke-miterlimit:4;stroke-dasharray:none;fill:none;fill-opacity:1;fill-rule: evenodd"/>
<path id="Shape2DView_nwe0106"  d="M 1.905 -1.4605 L 1.855 -1.4605 " stroke="#191919" stroke-width="0.35 px" style="stroke-width:0.35;stroke-miterlimit:4;stroke-dasharray:none;fill:none;fill-opacity:1;fill-rule: evenodd"/>
<path id="Shape2DView_nwe0107"  d="M -1.905 -1.4605 L -1.855 -1.4605 " stroke="#191919" stroke-width="0.35 px" style="stroke-width:0.35;stroke-miterlimit:4;stroke-dasharray:none;fill:none;fill-opacity:1;fill-rule: evenodd"/>
<path id="Shape2DView_nwe0108"  d="M -1.905 1.4605 L -1.855 1.4605 " stroke="#191919" stroke-width="0.35 px" style="stroke-width:0.35;stroke-miterlimit:4;stroke-dasharray:none;fill:none;fill-opacity:1;fill-rule: evenodd"/>
<path id="Shape2DView_nwe0109"  d="M -1.905 -1.0795 L -1.855 -1.0795 " stroke="#191919" stroke-width="0.35 px" style="stroke-width:0.35;stroke-miterlimit:4;stroke-dasharray:none;fill:none;fill-opacity:1;fill-rule: evenodd"/>
<path id="Shape2DView_nwe0110"  d="M -1.905 1.0795 L -1.855 1.0795 " stroke="#191919" stroke-width="0.35 px" style="stroke-width:0.35;stroke-miterlimit:4;stroke-dasharray:none;fill:none;fill-opacity:1;fill-rule: evenodd"/>
<title>b'Shape2DView'</title>
</g>
<g id="Rectangle" transform="translate(3.108960,2.105460) scale(1,-1)">
<rect fill="#ff0000" id="origin" width="1" height="1" x="0" y="0" />
<title>b'Rectangle'</title>
</g>
</svg>