<?xml version="1.0"?>
<!DOCTYPE svg PUBLIC "-//W3C//DTD SVG 1.1//EN" "http://www.w3.org/Graphics/SVG/1.1/DTD/svg11.dtd">
<svg width="7.14mm" height="2.7400000000000007mm" viewBox="0 0 7.14 2.7400000000000007" xmlns="http://www.w3.org/2000/svg" version="1.1">
<g id="Shape2DView" transform="translate(3.570000,1.370000) scale(1,-1)">
<path id="Shape2DView_nwe0000"  d="M 3.5 0.835 L 2.8 0.8350000000000001 " stroke="#191919" stroke-width="0.35 px" style="stroke-width:0.35;stroke-miterlimit:4;stroke-dasharray:none;fill:none;fill-opacity:1;fill-rule: evenodd"/>
<path id="Shape2DView_nwe0001"  d="M 2.8 0.835 L 2.788803552389669 0.835 L 2.777747906604368 0.835 L 2.7669720938044833 0.835 L 2.756611626088244 0.835 L 2.746796792348466 0.835 L 2.7376510198141264 0.835 L 2.729289321881345 0.835 L 2.721816851753197 0.835 L 2.7153275800771715 0.835 L 2.7099031132097577 0.835 L 2.705611666969163 0.835 L 2.7025072087818174 0.835 L 2.7006287790106756 0.835 L 2.6999999999999997 0.835 " stroke="#191919" stroke-width="0.35 px" style="stroke-width:0.35;stroke-miterlimit:4;stroke-dasharray:none;fill:none;fill-opacity:1;fill-rule: evenodd"/>
<path id="Shape2DView_nwe0002"  d="M 2.6999999999999997 0.8349999999999999 L 2.6981136629679727 0.8349999999999999 L 2.692478373654547 0.8349999999999999 L 2.68316499909251 0.8349999999999999 L 2.6702906603707257 0.8349999999999999 L 2.654017259768485 0.8349999999999999 L 2.6345494447404088 0.835 L 2.612132034355964 0.835 L 2.5870469405576197 0.835 L 2.559609622954601 0.835 L 2.5301651217352674 0.835 L 2.49908371858655 0.835 L 2.4667562801868943 0.835 L 2.433589342830992 0.835 L 2.4 0.835 " stroke="#191919" stroke-width="0.35 px" style="stroke-width:0.35;stroke-miterlimit:4;stroke-dasharray:none;fill:none;fill-opacity:1;fill-rule: evenodd"/>
<path id="Shape2DView_nwe0003"  d="M 2.4 0.835 L 2.2 0.835 " stroke="#191919" stroke-width="0.35 px" style="stroke-width:0.35;stroke-miterlimit:4;stroke-dasharray:none;fill:none;fill-opacity:1;fill-rule: evenodd"/>
<path id="Shape2DView_nwe0004"  d="M 3.5 0.435 L 2.8 0.43500000000000016 " stroke="#191919" stroke-width="0.35 px" style="stroke-width:0.35;stroke-miterlimit:4;stroke-dasharray:none;fill:none;fill-opacity:1;fill-rule: evenodd"/>
<path id="Shape2DView_nwe0005"  d="M 2.8 0.435 L 2.788803552389669 0.435 L 2.777747906604368 0.435 L 2.7669720938044833 0.435 L 2.756611626088244 0.435 L 2.746796792348466 0.435 L 2.7376510198141264 0.435 L 2.729289321881345 0.435 L 2.721816851753197 0.435 L 2.7153275800771715 0.435 L 2.7099031132097577 0.435 L 2.705611666969163 0.435 L 2.7025072087818174 0.435 L 2.7006287790106756 0.435 L 2.6999999999999997 0.435 " stroke="#191919" stroke-width="0.35 px" style="stroke-width:0.35;stroke-miterlimit:4;stroke-dasharray:none;fill:none;fill-opacity:1;fill-rule: evenodd"/>
<path id="Shape2DView_nwe0006"  d="M 2.6999999999999997 0.43499999999999994 L 2.6981136629679727 0.43499999999999994 L 2.692478373654547 0.43499999999999994 L 2.68316499909251 0.43499999999999994 L 2.6702906603707257 0.43499999999999994 L 2.654017259768485 0.43499999999999994 L 2.6345494447404088 0.43499999999999994 L 2.612132034355964 0.43499999999999994 L 2.5870469405576197 0.43499999999999994 L 2.559609622954601 0.43499999999999994 L 2.5301651217352674 0.43499999999999994 L 2.49908371858655 0.435 L 2.4667562801868943 0.435 L 2.433589342830992 0.435 L 2.4 0.435 " stroke="#191919" stroke-width="0.35 px" style="stroke-width:0.35;stroke-miterlimit:4;stroke-dasharray:none;fill:none;fill-opacity:1;fill-rule: evenodd"/>
<path id="Shape2DView_nwe0007"  d="M 2.4 0.435 L 2.2 0.43500000000000005 " stroke="#191919" stroke-width="0.35 px" style="stroke-width:0.35;stroke-miterlimit:4;stroke-dasharray:none;fill:none;fill-opacity:1;fill-rule: evenodd"/>
<path id="Shape2DView_nwe0008"  d="M 2.2 1.125 L 2.2 0.835 " stroke="#191919" stroke-width="0.35 px" style="stroke-width:0.35;stroke-miterlimit:4;stroke-dasharray:none;fill:none;fill-opacity:1;fill-rule: evenodd"/>
<path id="Shape2DView_nwe0009"  d="M 2.125 0.835 L 2.125 0.43500000000000005 " stroke="#191919" stroke-width="0.35 px" style="stroke-width:0.35;stroke-miterlimit:4;stroke-dasharray:none;fill:none;fill-opacity:1;fill-rule: evenodd"/>
<path id="Shape2DView_nwe0010"  d="M 2.7 0.835 L 2.7 0.435 " stroke="#191919" stroke-width="0.35 px" style="stroke-width:0.35;stroke-miterlimit:4;stroke-dasharray:none;fill:none;fill-opacity:1;fill-rule: evenodd"/>
<path id="Shape2DView_nwe0011"  d="M 3.5 0.835 L 3.5 0.435 " stroke="#191919" stroke-width="0.35 px" style="stroke-width:0.35;stroke-miterlimit:4;stroke-dasharray:none;fill:none;fill-opacity:1;fill-rule: evenodd"/>
<path id="Shape2DView_nwe0012"  d="M 2.2 0.43500000000000005 L 2.1999999999999997 -0.43500000000000005 " stroke="#191919" stroke-width="0.35 px" style="stroke-width:0.35;stroke-miterlimit:4;stroke-dasharray:none;fill:none;fill-opacity:1;fill-rule: evenodd"/>
<path id="Shape2DView_nwe0013"  d="M 2.1999999999999997 -0.835 L 2.1999999999999997 -1.125 " stroke="#191919" stroke-width="0.35 px" style="stroke-width:0.35;stroke-miterlimit:4;stroke-dasharray:none;fill:none;fill-opacity:1;fill-rule: evenodd"/>
<path id="Shape2DView_nwe0014"  d="M 2.025 1.3 L 2.2 1.1249999999999998 " stroke="#191919" stroke-width="0.35 px" style="stroke-width:0.35;stroke-miterlimit:4;stroke-dasharray:none;fill:none;fill-opacity:1;fill-rule: evenodd"/>
<path id="Shape2DView_nwe0015"  d="M 2.2 1.125 L 2.125 1.0875 " stroke="#191919" stroke-width="0.35 px" style="stroke-width:0.35;stroke-miterlimit:4;stroke-dasharray:none;fill:none;fill-opacity:1;fill-rule: evenodd"/>
<path id="Shape2DView_nwe0016"  d="M 2.125 1.0875 L 2.125 0.835 " stroke="#191919" stroke-width="0.35 px" style="stroke-width:0.35;stroke-miterlimit:4;stroke-dasharray:none;fill:none;fill-opacity:1;fill-rule: evenodd"/>
<path id="Shape2DView_nwe0017"  d="M 2.125 0.43500000000000005 L 2.1249999999999996 -0.43500000000000005 " stroke="#191919" stroke-width="0.35 px" style="stroke-width:0.35;stroke-miterlimit:4;stroke-dasharray:none;fill:none;fill-opacity:1;fill-rule: evenodd"/>
<path id="Shape2DView_nwe0018"  d="M 2.1249999999999996 -0.43500000000000005 L 2.1249999999999996 -0.835 " stroke="#191919" stroke-width="0.35 px" style="stroke-width:0.35;stroke-miterlimit:4;stroke-dasharray:none;fill:none;fill-opacity:1;fill-rule: evenodd"/>
<path id="Shape2DView_nwe0019"  d="M 2.1249999999999996 -0.835 L 2.1249999999999996 -1.0875 " stroke="#191919" stroke-width="0.35 px" style="stroke-width:0.35;stroke-miterlimit:4;stroke-dasharray:none;fill:none;fill-opacity:1;fill-rule: evenodd"/>
<path id="Shape2DView_nwe0020"  d="M 2.125 -1.0875 L 1.933699094497 -0.991849547248 " stroke="#191919" stroke-width="0.35 px" style="stroke-width:0.35;stroke-miterlimit:4;stroke-dasharray:none;fill:none;fill-opacity:1;fill-rule: evenodd"/>
<path id="Shape2DView_nwe0021"  d="M 1.933699094497 0.991849547248 L 1.9336990944969996 -0.991849547248 " stroke="#191919" stroke-width="0.35 px" style="stroke-width:0.35;stroke-miterlimit:4;stroke-dasharray:none;fill:none;fill-opacity:1;fill-rule: evenodd"/>
<path id="Shape2DView_nwe0022"  d="M 2.125 1.0875 L 1.933699094497 0.991849547248 " stroke="#191919" stroke-width="0.35 px" style="stroke-width:0.35;stroke-miterlimit:4;stroke-dasharray:none;fill:none;fill-opacity:1;fill-rule: evenodd"/>
<path id="Shape2DView_nwe0023"  d="M 3.5 -0.435 L 2.8 -0.43499999999999983 " stroke="#191919" stroke-width="0.35 px" style="stroke-width:0.35;stroke-miterlimit:4;stroke-dasharray:none;fill:none;fill-opacity:1;fill-rule: evenodd"/>
<path id="Shape2DView_nwe0024"  d="M 2.8 -0.435 L 2.788803552389669 -0.435 L 2.777747906604368 -0.435 L 2.7669720938044833 -0.435 L 2.756611626088244 -0.435 L 2.746796792348466 -0.435 L 2.7376510198141264 -0.435 L 2.729289321881345 -0.435 L 2.721816851753197 -0.435 L 2.7153275800771715 -0.435 L 2.7099031132097577 -0.435 L 2.705611666969163 -0.435 L 2.7025072087818174 -0.435 L 2.7006287790106756 -0.435 L 2.6999999999999997 -0.435 " stroke="#191919" stroke-width="0.35 px" style="stroke-width:0.35;stroke-miterlimit:4;stroke-dasharray:none;fill:none;fill-opacity:1;fill-rule: evenodd"/>
<path id="Shape2DView_nwe0025"  d="M 2.6999999999999997 -0.43500000000000005 L 2.6981136629679727 -0.43500000000000005 L 2.692478373654547 -0.43500000000000005 L 2.68316499909251 -0.43500000000000005 L 2.6702906603707257 -0.43500000000000005 L 2.654017259768485 -0.43500000000000005 L 2.6345494447404088 -0.43500000000000005 L 2.612132034355964 -0.43500000000000005 L 2.5870469405576197 -0.43500000000000005 L 2.559609622954601 -0.43500000000000005 L 2.5301651217352674 -0.43500000000000005 L 2.49908371858655 -0.435 L 2.4667562801868943 -0.435 L 2.433589342830992 -0.435 L 2.4 -0.435 " stroke="#191919" stroke-width="0.35 px" style="stroke-width:0.35;stroke-miterlimit:4;stroke-dasharray:none;fill:none;fill-opacity:1;fill-rule: evenodd"/>
<path id="Shape2DView_nwe0026"  d="M 2.4 -0.435 L 2.2 -0.43499999999999994 " stroke="#191919" stroke-width="0.35 px" style="stroke-width:0.35;stroke-miterlimit:4;stroke-dasharray:none;fill:none;fill-opacity:1;fill-rule: evenodd"/>
<path id="Shape2DView_nwe0027"  d="M 2.2 -1.125 L 2.025 -1.3000000000000003 " stroke="#191919" stroke-width="0.35 px" style="stroke-width:0.35;stroke-miterlimit:4;stroke-dasharray:none;fill:none;fill-opacity:1;fill-rule: evenodd"/>
<path id="Shape2DView_nwe0028"  d="M 3.5 -0.835 L 2.8 -0.8349999999999999 " stroke="#191919" stroke-width="0.35 px" style="stroke-width:0.35;stroke-miterlimit:4;stroke-dasharray:none;fill:none;fill-opacity:1;fill-rule: evenodd"/>
<path id="Shape2DView_nwe0029"  d="M 2.8 -0.835 L 2.788803552389669 -0.835 L 2.777747906604368 -0.835 L 2.7669720938044833 -0.835 L 2.756611626088244 -0.835 L 2.746796792348466 -0.835 L 2.7376510198141264 -0.835 L 2.729289321881345 -0.835 L 2.721816851753197 -0.835 L 2.7153275800771715 -0.835 L 2.7099031132097577 -0.835 L 2.705611666969163 -0.835 L 2.7025072087818174 -0.835 L 2.7006287790106756 -0.835 L 2.6999999999999997 -0.835 " stroke="#191919" stroke-width="0.35 px" style="stroke-width:0.35;stroke-miterlimit:4;stroke-dasharray:none;fill:none;fill-opacity:1;fill-rule: evenodd"/>
<path id="Shape2DView_nwe0030"  d="M 2.6999999999999997 -0.8350000000000001 L 2.6981136629679727 -0.8350000000000001 L 2.692478373654547 -0.8350000000000001 L 2.68316499909251 -0.8350000000000001 L 2.6702906603707257 -0.8350000000000001 L 2.654017259768485 -0.8350000000000001 L 2.6345494447404088 -0.835 L 2.612132034355964 -0.835 L 2.5870469405576197 -0.835 L 2.559609622954601 -0.835 L 2.5301651217352674 -0.835 L 2.49908371858655 -0.835 L 2.4667562801868943 -0.835 L 2.433589342830992 -0.835 L 2.4 -0.835 " stroke="#191919" stroke-width="0.35 px" style="stroke-width:0.35;stroke-miterlimit:4;stroke-dasharray:none;fill:none;fill-opacity:1;fill-rule: evenodd"/>
<path id="Shape2DView_nwe0031"  d="M 2.4 -0.835 L 2.2 -0.835 " stroke="#191919" stroke-width="0.35 px" style="stroke-width:0.35;stroke-miterlimit:4;stroke-dasharray:none;fill:none;fill-opacity:1;fill-rule: evenodd"/>
<path id="Shape2DView_nwe0032"  d="M 2.2 -1.125 L 2.125 -1.0875 " stroke="#191919" stroke-width="0.35 px" style="stroke-width:0.35;stroke-miterlimit:4;stroke-dasharray:none;fill:none;fill-opacity:1;fill-rule: evenodd"/>
<path id="Shape2DView_nwe0033"  d="M 1.9875 1.225 L 2.125 1.0875 " stroke="#191919" stroke-width="0.35 px" style="stroke-width:0.35;stroke-miterlimit:4;stroke-dasharray:none;fill:none;fill-opacity:1;fill-rule: evenodd"/>
<path id="Shape2DView_nwe0034"  d="M 2.025 1.3 L 1.9875 1.225 " stroke="#191919" stroke-width="0.35 px" style="stroke-width:0.35;stroke-miterlimit:4;stroke-dasharray:none;fill:none;fill-opacity:1;fill-rule: evenodd"/>
<path id="Shape2DView_nwe0035"  d="M -2.025 1.3 L 2.025 1.2999999999999992 " stroke="#191919" stroke-width="0.35 px" style="stroke-width:0.35;stroke-miterlimit:4;stroke-dasharray:none;fill:none;fill-opacity:1;fill-rule: evenodd"/>
<path id="Shape2DView_nwe0036"  d="M 2.125 -1.0875 L 1.9874999999999998 -1.225 " stroke="#191919" stroke-width="0.35 px" style="stroke-width:0.35;stroke-miterlimit:4;stroke-dasharray:none;fill:none;fill-opacity:1;fill-rule: evenodd"/>
<path id="Shape2DView_nwe0037"  d="M 1.9875 -1.225 L 1.891849547248 -1.033699094497 " stroke="#191919" stroke-width="0.35 px" style="stroke-width:0.35;stroke-miterlimit:4;stroke-dasharray:none;fill:none;fill-opacity:1;fill-rule: evenodd"/>
<path id="Shape2DView_nwe0038"  d="M 1.933699094497 -0.991849547248 L 1.891849547248 -1.0336990944970001 " stroke="#191919" stroke-width="0.35 px" style="stroke-width:0.35;stroke-miterlimit:4;stroke-dasharray:none;fill:none;fill-opacity:1;fill-rule: evenodd"/>
<path id="Shape2DView_nwe0039"  d="M -1.891849547248 1.033699094497 L 1.891849547248 1.033699094496999 " stroke="#191919" stroke-width="0.35 px" style="stroke-width:0.35;stroke-miterlimit:4;stroke-dasharray:none;fill:none;fill-opacity:1;fill-rule: evenodd"/>
<path id="Shape2DView_nwe0040"  d="M 1.891849547248 1.033699094497 L 1.933699094497 0.9918495472479999 " stroke="#191919" stroke-width="0.35 px" style="stroke-width:0.35;stroke-miterlimit:4;stroke-dasharray:none;fill:none;fill-opacity:1;fill-rule: evenodd"/>
<path id="Shape2DView_nwe0041"  d="M 1.891849547248 -1.033699094497 L -1.891849547248 -1.033699094496999 " stroke="#191919" stroke-width="0.35 px" style="stroke-width:0.35;stroke-miterlimit:4;stroke-dasharray:none;fill:none;fill-opacity:1;fill-rule: evenodd"/>
<path id="Shape2DView_nwe0042"  d="M -1.891849547248 -1.033699094497 L -1.933699094497 -0.9918495472479999 " stroke="#191919" stroke-width="0.35 px" style="stroke-width:0.35;stroke-miterlimit:4;stroke-dasharray:none;fill:none;fill-opacity:1;fill-rule: evenodd"/>
<path id="Shape2DView_nwe0043"  d="M -1.933699094497 -0.991849547248 L -1.9336990944969996 0.991849547248 " stroke="#191919" stroke-width="0.35 px" style="stroke-width:0.35;stroke-miterlimit:4;stroke-dasharray:none;fill:none;fill-opacity:1;fill-rule: evenodd"/>
<path id="Shape2DView_nwe0044"  d="M -1.933699094497 0.991849547248 L -1.891849547248 1.0336990944970001 " stroke="#191919" stroke-width="0.35 px" style="stroke-width:0.35;stroke-miterlimit:4;stroke-dasharray:none;fill:none;fill-opacity:1;fill-rule: evenodd"/>
<circle cx="-1.233699094497" cy="0.333699094497" r="0.25" stroke="#191919" stroke-width="0.35 px" style="stroke-width:0.35;stroke-miterlimit:4;stroke-dasharray:none;fill:none"/>
<path id="Shape2DView_nwe0046"  d="M 1.9875 1.225 L 1.891849547248 1.033699094497 " stroke="#191919" stroke-width="0.35 px" style="stroke-width:0.35;stroke-miterlimit:4;stroke-dasharray:none;fill:none;fill-opacity:1;fill-rule: evenodd"/>
<path id="Shape2DView_nwe0047"  d="M 2.7 -0.435 L 2.7 -0.835 " stroke="#191919" stroke-width="0.35 px" style="stroke-width:0.35;stroke-miterlimit:4;stroke-dasharray:none;fill:none;fill-opacity:1;fill-rule: evenodd"/>
<path id="Shape2DView_nwe0048"  d="M 3.5 -0.435 L 3.5 -0.835 " stroke="#191919" stroke-width="0.35 px" style="stroke-width:0.35;stroke-miterlimit:4;stroke-dasharray:none;fill:none;fill-opacity:1;fill-rule: evenodd"/>
<path id="Shape2DView_nwe0049"  d="M 2.025 -1.3 L -2.025 -1.2999999999999992 " stroke="#191919" stroke-width="0.35 px" style="stroke-width:0.35;stroke-miterlimit:4;stroke-dasharray:none;fill:none;fill-opacity:1;fill-rule: evenodd"/>
<path id="Shape2DView_nwe0050"  d="M -2.025 -1.3 L -2.2 -1.1249999999999998 " stroke="#191919" stroke-width="0.35 px" style="stroke-width:0.35;stroke-miterlimit:4;stroke-dasharray:none;fill:none;fill-opacity:1;fill-rule: evenodd"/>
<path id="Shape2DView_nwe0051"  d="M -2.2 -1.125 L -2.2 -0.835 " stroke="#191919" stroke-width="0.35 px" style="stroke-width:0.35;stroke-miterlimit:4;stroke-dasharray:none;fill:none;fill-opacity:1;fill-rule: evenodd"/>
<path id="Shape2DView_nwe0052"  d="M -2.2 -0.43500000000000005 L -2.1999999999999997 0.43500000000000005 " stroke="#191919" stroke-width="0.35 px" style="stroke-width:0.35;stroke-miterlimit:4;stroke-dasharray:none;fill:none;fill-opacity:1;fill-rule: evenodd"/>
<path id="Shape2DView_nwe0053"  d="M -2.1999999999999997 0.835 L -2.1999999999999997 1.125 " stroke="#191919" stroke-width="0.35 px" style="stroke-width:0.35;stroke-miterlimit:4;stroke-dasharray:none;fill:none;fill-opacity:1;fill-rule: evenodd"/>
<path id="Shape2DView_nwe0054"  d="M -2.2 1.125 L -2.025 1.3000000000000003 " stroke="#191919" stroke-width="0.35 px" style="stroke-width:0.35;stroke-miterlimit:4;stroke-dasharray:none;fill:none;fill-opacity:1;fill-rule: evenodd"/>
<path id="Shape2DView_nwe0055"  d="M 2.025 -1.3 L 1.9875 -1.225 " stroke="#191919" stroke-width="0.35 px" style="stroke-width:0.35;stroke-miterlimit:4;stroke-dasharray:none;fill:none;fill-opacity:1;fill-rule: evenodd"/>
<path id="Shape2DView_nwe0056"  d="M -1.9875 1.225 L 1.9875 1.2249999999999992 " stroke="#191919" stroke-width="0.35 px" style="stroke-width:0.35;stroke-miterlimit:4;stroke-dasharray:none;fill:none;fill-opacity:1;fill-rule: evenodd"/>
<path id="Shape2DView_nwe0057"  d="M -2.025 1.3 L -1.9875 1.225 " stroke="#191919" stroke-width="0.35 px" style="stroke-width:0.35;stroke-miterlimit:4;stroke-dasharray:none;fill:none;fill-opacity:1;fill-rule: evenodd"/>
<path id="Shape2DView_nwe0058"  d="M 1.9875 -1.225 L -1.9875 -1.2249999999999992 " stroke="#191919" stroke-width="0.35 px" style="stroke-width:0.35;stroke-miterlimit:4;stroke-dasharray:none;fill:none;fill-opacity:1;fill-rule: evenodd"/>
<path id="Shape2DView_nwe0059"  d="M -1.9875 -1.225 L -1.891849547248 -1.033699094497 " stroke="#191919" stroke-width="0.35 px" style="stroke-width:0.35;stroke-miterlimit:4;stroke-dasharray:none;fill:none;fill-opacity:1;fill-rule: evenodd"/>
<path id="Shape2DView_nwe0060"  d="M -1.9875 1.225 L -1.891849547248 1.033699094497 " stroke="#191919" stroke-width="0.35 px" style="stroke-width:0.35;stroke-miterlimit:4;stroke-dasharray:none;fill:none;fill-opacity:1;fill-rule: evenodd"/>
<path id="Shape2DView_nwe0061"  d="M -2.125 1.0875 L -1.9874999999999998 1.225 " stroke="#191919" stroke-width="0.35 px" style="stroke-width:0.35;stroke-miterlimit:4;stroke-dasharray:none;fill:none;fill-opacity:1;fill-rule: evenodd"/>
<path id="Shape2DView_nwe0062"  d="M -2.125 1.0875 L -1.933699094497 0.991849547248 " stroke="#191919" stroke-width="0.35 px" style="stroke-width:0.35;stroke-miterlimit:4;stroke-dasharray:none;fill:none;fill-opacity:1;fill-rule: evenodd"/>
<path id="Shape2DView_nwe0063"  d="M -2.125 -1.0875 L -2.125 -0.835 " stroke="#191919" stroke-width="0.35 px" style="stroke-width:0.35;stroke-miterlimit:4;stroke-dasharray:none;fill:none;fill-opacity:1;fill-rule: evenodd"/>
<path id="Shape2DView_nwe0064"  d="M -2.125 -0.835 L -2.125 -0.43500000000000005 " stroke="#191919" stroke-width="0.35 px" style="stroke-width:0.35;stroke-miterlimit:4;stroke-dasharray:none;fill:none;fill-opacity:1;fill-rule: evenodd"/>
<path id="Shape2DView_nwe0065"  d="M -2.125 -0.43500000000000005 L -2.1249999999999996 0.43500000000000005 " stroke="#191919" stroke-width="0.35 px" style="stroke-width:0.35;stroke-miterlimit:4;stroke-dasharray:none;fill:none;fill-opacity:1;fill-rule: evenodd"/>
<path id="Shape2DView_nwe0066"  d="M -2.1249999999999996 0.43500000000000005 L -2.1249999999999996 0.835 " stroke="#191919" stroke-width="0.35 px" style="stroke-width:0.35;stroke-miterlimit:4;stroke-dasharray:none;fill:none;fill-opacity:1;fill-rule: evenodd"/>
<path id="Shape2DView_nwe0067"  d="M -2.1249999999999996 0.835 L -2.1249999999999996 1.0875 " stroke="#191919" stroke-width="0.35 px" style="stroke-width:0.35;stroke-miterlimit:4;stroke-dasharray:none;fill:none;fill-opacity:1;fill-rule: evenodd"/>
<path id="Shape2DView_nwe0068"  d="M -2.125 -1.0875 L -1.933699094497 -0.991849547248 " stroke="#191919" stroke-width="0.35 px" style="stroke-width:0.35;stroke-miterlimit:4;stroke-dasharray:none;fill:none;fill-opacity:1;fill-rule: evenodd"/>
<path id="Shape2DView_nwe0069"  d="M -1.9875 -1.225 L -2.125 -1.0875 " stroke="#191919" stroke-width="0.35 px" style="stroke-width:0.35;stroke-miterlimit:4;stroke-dasharray:none;fill:none;fill-opacity:1;fill-rule: evenodd"/>
<path id="Shape2DView_nwe0070"  d="M -2.025 -1.3 L -1.9875 -1.225 " stroke="#191919" stroke-width="0.35 px" style="stroke-width:0.35;stroke-miterlimit:4;stroke-dasharray:none;fill:none;fill-opacity:1;fill-rule: evenodd"/>
<path id="Shape2DView_nwe0071"  d="M -2.2 -1.125 L -2.125 -1.0875 " stroke="#191919" stroke-width="0.35 px" style="stroke-width:0.35;stroke-miterlimit:4;stroke-dasharray:none;fill:none;fill-opacity:1;fill-rule: evenodd"/>
<path id="Shape2DView_nwe0072"  d="M -3.5 -0.835 L -2.8 -0.8350000000000002 " stroke="#191919" stroke-width="0.35 px" style="stroke-width:0.35;stroke-miterlimit:4;stroke-dasharray:none;fill:none;fill-opacity:1;fill-rule: evenodd"/>
<path id="Shape2DView_nwe0073"  d="M -2.8 -0.835 L -2.788803552389669 -0.835 L -2.777747906604368 -0.835 L -2.7669720938044833 -0.835 L -2.756611626088244 -0.835 L -2.746796792348466 -0.835 L -2.7376510198141264 -0.835 L -2.729289321881345 -0.835 L -2.721816851753197 -0.835 L -2.7153275800771715 -0.835 L -2.7099031132097577 -0.835 L -2.705611666969163 -0.835 L -2.7025072087818174 -0.835 L -2.7006287790106756 -0.835 L -2.6999999999999997 -0.835 " stroke="#191919" stroke-width="0.35 px" style="stroke-width:0.35;stroke-miterlimit:4;stroke-dasharray:none;fill:none;fill-opacity:1;fill-rule: evenodd"/>
<path id="Shape2DView_nwe0074"  d="M -2.6999999999999997 -0.8349999999999999 L -2.6981136629679727 -0.8349999999999999 L -2.692478373654547 -0.8349999999999999 L -2.68316499909251 -0.8349999999999999 L -2.6702906603707257 -0.8349999999999999 L -2.654017259768485 -0.8349999999999999 L -2.6345494447404088 -0.8349999999999999 L -2.612132034355964 -0.8349999999999999 L -2.5870469405576197 -0.8349999999999999 L -2.559609622954601 -0.835 L -2.5301651217352674 -0.835 L -2.49908371858655 -0.835 L -2.4667562801868943 -0.835 L -2.433589342830992 -0.835 L -2.4 -0.835 " stroke="#191919" stroke-width="0.35 px" style="stroke-width:0.35;stroke-miterlimit:4;stroke-dasharray:none;fill:none;fill-opacity:1;fill-rule: evenodd"/>
<path id="Shape2DView_nwe0075"  d="M -2.4 -0.835 L -2.2 -0.8350000000000001 " stroke="#191919" stroke-width="0.35 px" style="stroke-width:0.35;stroke-miterlimit:4;stroke-dasharray:none;fill:none;fill-opacity:1;fill-rule: evenodd"/>
<path id="Shape2DView_nwe0076"  d="M -3.5 -0.435 L -2.8 -0.4350000000000002 " stroke="#191919" stroke-width="0.35 px" style="stroke-width:0.35;stroke-miterlimit:4;stroke-dasharray:none;fill:none;fill-opacity:1;fill-rule: evenodd"/>
<path id="Shape2DView_nwe0077"  d="M -2.8 -0.435 L -2.788803552389669 -0.435 L -2.777747906604368 -0.435 L -2.7669720938044833 -0.435 L -2.756611626088244 -0.435 L -2.746796792348466 -0.435 L -2.7376510198141264 -0.435 L -2.729289321881345 -0.435 L -2.721816851753197 -0.435 L -2.7153275800771715 -0.43500000000000005 L -2.7099031132097577 -0.43500000000000005 L -2.705611666969163 -0.43500000000000005 L -2.7025072087818174 -0.43500000000000005 L -2.7006287790106756 -0.43500000000000005 L -2.6999999999999997 -0.43500000000000005 " stroke="#191919" stroke-width="0.35 px" style="stroke-width:0.35;stroke-miterlimit:4;stroke-dasharray:none;fill:none;fill-opacity:1;fill-rule: evenodd"/>
<path id="Shape2DView_nwe0078"  d="M -2.6999999999999997 -0.4349999999999999 L -2.6981136629679727 -0.4349999999999999 L -2.692478373654547 -0.4349999999999999 L -2.68316499909251 -0.4349999999999999 L -2.6702906603707257 -0.4349999999999999 L -2.654017259768485 -0.4349999999999999 L -2.6345494447404088 -0.43499999999999994 L -2.612132034355964 -0.43499999999999994 L -2.5870469405576197 -0.43499999999999994 L -2.559609622954601 -0.43499999999999994 L -2.5301651217352674 -0.43499999999999994 L -2.49908371858655 -0.43499999999999994 L -2.4667562801868943 -0.435 L -2.433589342830992 -0.435 L -2.4 -0.435 " stroke="#191919" stroke-width="0.35 px" style="stroke-width:0.35;stroke-miterlimit:4;stroke-dasharray:none;fill:none;fill-opacity:1;fill-rule: evenodd"/>
<path id="Shape2DView_nwe0079"  d="M -2.4 -0.435 L -2.2 -0.43500000000000005 " stroke="#191919" stroke-width="0.35 px" style="stroke-width:0.35;stroke-miterlimit:4;stroke-dasharray:none;fill:none;fill-opacity:1;fill-rule: evenodd"/>
<path id="Shape2DView_nwe0080"  d="M -3.5 0.435 L -2.8 0.4349999999999998 " stroke="#191919" stroke-width="0.35 px" style="stroke-width:0.35;stroke-miterlimit:4;stroke-dasharray:none;fill:none;fill-opacity:1;fill-rule: evenodd"/>
<path id="Shape2DView_nwe0081"  d="M -2.8 0.435 L -2.788803552389669 0.435 L -2.777747906604368 0.435 L -2.7669720938044833 0.435 L -2.756611626088244 0.435 L -2.746796792348466 0.435 L -2.7376510198141264 0.435 L -2.729289321881345 0.435 L -2.721816851753197 0.435 L -2.7153275800771715 0.43499999999999994 L -2.7099031132097577 0.43499999999999994 L -2.705611666969163 0.43499999999999994 L -2.7025072087818174 0.43499999999999994 L -2.7006287790106756 0.43499999999999994 L -2.6999999999999997 0.43499999999999994 " stroke="#191919" stroke-width="0.35 px" style="stroke-width:0.35;stroke-miterlimit:4;stroke-dasharray:none;fill:none;fill-opacity:1;fill-rule: evenodd"/>
<path id="Shape2DView_nwe0082"  d="M -2.6999999999999997 0.4350000000000001 L -2.6981136629679727 0.4350000000000001 L -2.692478373654547 0.4350000000000001 L -2.68316499909251 0.4350000000000001 L -2.6702906603707257 0.4350000000000001 L -2.654017259768485 0.4350000000000001 L -2.6345494447404088 0.43500000000000005 L -2.612132034355964 0.43500000000000005 L -2.5870469405576197 0.43500000000000005 L -2.559609622954601 0.43500000000000005 L -2.5301651217352674 0.43500000000000005 L -2.49908371858655 0.43500000000000005 L -2.4667562801868943 0.435 L -2.433589342830992 0.435 L -2.4 0.435 " stroke="#191919" stroke-width="0.35 px" style="stroke-width:0.35;stroke-miterlimit:4;stroke-dasharray:none;fill:none;fill-opacity:1;fill-rule: evenodd"/>
<path id="Shape2DView_nwe0083"  d="M -2.4 0.435 L -2.2 0.43499999999999994 " stroke="#191919" stroke-width="0.35 px" style="stroke-width:0.35;stroke-miterlimit:4;stroke-dasharray:none;fill:none;fill-opacity:1;fill-rule: evenodd"/>
<path id="Shape2DView_nwe0084"  d="M -3.5 0.835 L -2.8 0.8349999999999997 " stroke="#191919" stroke-width="0.35 px" style="stroke-width:0.35;stroke-miterlimit:4;stroke-dasharray:none;fill:none;fill-opacity:1;fill-rule: evenodd"/>
<path id="Shape2DView_nwe0085"  d="M -2.8 0.835 L -2.788803552389669 0.835 L -2.777747906604368 0.835 L -2.7669720938044833 0.835 L -2.756611626088244 0.835 L -2.746796792348466 0.835 L -2.7376510198141264 0.835 L -2.729289321881345 0.835 L -2.721816851753197 0.835 L -2.7153275800771715 0.835 L -2.7099031132097577 0.835 L -2.705611666969163 0.835 L -2.7025072087818174 0.835 L -2.7006287790106756 0.835 L -2.6999999999999997 0.835 " stroke="#191919" stroke-width="0.35 px" style="stroke-width:0.35;stroke-miterlimit:4;stroke-dasharray:none;fill:none;fill-opacity:1;fill-rule: evenodd"/>
<path id="Shape2DView_nwe0086"  d="M -2.6999999999999997 0.8350000000000001 L -2.6981136629679727 0.8350000000000001 L -2.692478373654547 0.8350000000000001 L -2.68316499909251 0.8350000000000001 L -2.6702906603707257 0.8350000000000001 L -2.654017259768485 0.8350000000000001 L -2.6345494447404088 0.8350000000000001 L -2.612132034355964 0.8350000000000001 L -2.5870469405576197 0.8350000000000001 L -2.559609622954601 0.835 L -2.5301651217352674 0.835 L -2.49908371858655 0.835 L -2.4667562801868943 0.835 L -2.433589342830992 0.835 L -2.4 0.835 " stroke="#191919" stroke-width="0.35 px" style="stroke-width:0.35;stroke-miterlimit:4;stroke-dasharray:none;fill:none;fill-opacity:1;fill-rule: evenodd"/>
<path id="Shape2DView_nwe0087"  d="M -2.4 0.835 L -2.2 0.8349999999999999 " stroke="#191919" stroke-width="0.35 px" style="stroke-width:0.35;stroke-miterlimit:4;stroke-dasharray:none;fill:none;fill-opacity:1;fill-rule: evenodd"/>
<path id="Shape2DView_nwe0088"  d="M -2.2 1.125 L -2.125 1.0875 " stroke="#191919" stroke-width="0.35 px" style="stroke-width:0.35;stroke-miterlimit:4;stroke-dasharray:none;fill:none;fill-opacity:1;fill-rule: evenodd"/>
<path id="Shape2DView_nwe0089"  d="M -2.7 -0.835 L -2.7 -0.435 " stroke="#191919" stroke-width="0.35 px" style="stroke-width:0.35;stroke-miterlimit:4;stroke-dasharray:none;fill:none;fill-opacity:1;fill-rule: evenodd"/>
<path id="Shape2DView_nwe0091"  d="M -3.5 -0.835 L -3.5 -0.435 " stroke="#191919" stroke-width="0.35 px" style="stroke-width:0.35;stroke-miterlimit:4;stroke-dasharray:none;fill:none;fill-opacity:1;fill-rule: evenodd"/>
<path id="Shape2DView_nwe0092"  d="M -2.7 0.435 L -2.7 0.835 " stroke="#191919" stroke-width="0.35 px" style="stroke-width:0.35;stroke-miterlimit:4;stroke-dasharray:none;fill:none;fill-opacity:1;fill-rule: evenodd"/>
<path id="Shape2DView_nwe0093"  d="M -3.5 0.435 L -3.5 0.835 " stroke="#191919" stroke-width="0.35 px" style="stroke-width:0.35;stroke-miterlimit:4;stroke-dasharray:none;fill:none;fill-opacity:1;fill-rule: evenodd"/>
<path id="Shape2DView_nwe0094"  d="M 2.4 0.835 L 2.4 0.435 " stroke="#191919" stroke-width="0.35 px" style="stroke-width:0.35;stroke-miterlimit:4;stroke-dasharray:none;fill:none;fill-opacity:1;fill-rule: evenodd"/>
<path id="Shape2DView_nwe0095"  d="M 2.8 0.835 L 2.8 0.435 " stroke="#191919" stroke-width="0.35 px" style="stroke-width:0.35;stroke-miterlimit:4;stroke-dasharray:none;fill:none;fill-opacity:1;fill-rule: evenodd"/>
<path id="Shape2DView_nwe0096"  d="M 2.4 -0.435 L 2.4 -0.835 " stroke="#191919" stroke-width="0.35 px" style="stroke-width:0.35;stroke-miterlimit:4;stroke-dasharray:none;fill:none;fill-opacity:1;fill-rule: evenodd"/>
<path id="Shape2DView_nwe0097"  d="M 2.8 -0.435 L 2.8 -0.835 " stroke="#191919" stroke-width="0.35 px" style="stroke-width:0.35;stroke-miterlimit:4;stroke-dasharray:none;fill:none;fill-opacity:1;fill-rule: evenodd"/>
<path id="Shape2DView_nwe0098"  d="M -2.4 -0.835 L -2.4 -0.435 " stroke="#191919" stroke-width="0.35 px" style="stroke-width:0.35;stroke-miterlimit:4;stroke-dasharray:none;fill:none;fill-opacity:1;fill-rule: evenodd"/>
<path id="Shape2DView_nwe0099"  d="M -2.4 0.435 L -2.4 0.835 " stroke="#191919" stroke-width="0.35 px" style="stroke-width:0.35;stroke-miterlimit:4;stroke-dasharray:none;fill:none;fill-opacity:1;fill-rule: evenodd"/>
<path id="Shape2DView_nwe0100"  d="M -2.8 -0.835 L -2.8 -0.435 " stroke="#191919" stroke-width="0.35 px" style="stroke-width:0.35;stroke-miterlimit:4;stroke-dasharray:none;fill:none;fill-opacity:1;fill-rule: evenodd"/>
<path id="Shape2DView_nwe0101"  d="M -2.8 0.435 L -2.8 0.835 " stroke="#191919" stroke-width="0.35 px" style="stroke-width:0.35;stroke-miterlimit:4;stroke-dasharray:none;fill:none;fill-opacity:1;fill-rule: evenodd"/>
<path id="Shape2DView_nwe0102"  d="M 2.2 0.43500000000000005 L 2.125 0.43500000000000005 " stroke="#191919" stroke-width="0.35 px" style="stroke-width:0.35;stroke-miterlimit:4;stroke-dasharray:none;fill:none;fill-opacity:1;fill-rule: evenodd"/>
<path id="Shape2DView_nwe0103"  d="M 2.2 0.835 L 2.125 0.8350000000000001 " stroke="#191919" stroke-width="0.35 px" style="stroke-width:0.35;stroke-miterlimit:4;stroke-dasharray:none;fill:none;fill-opacity:1;fill-rule: evenodd"/>
<path id="Shape2DView_nwe0104"  d="M 2.2 -0.43499999999999994 L 2.125 -0.43499999999999994 " stroke="#191919" stroke-width="0.35 px" style="stroke-width:0.35;stroke-miterlimit:4;stroke-dasharray:none;fill:none;fill-opacity:1;fill-rule: evenodd"/>
<path id="Shape2DView_nwe0105"  d="M 2.2 -0.835 L 2.125 -0.8349999999999999 " stroke="#191919" stroke-width="0.35 px" style="stroke-width:0.35;stroke-miterlimit:4;stroke-dasharray:none;fill:none;fill-opacity:1;fill-rule: evenodd"/>
<path id="Shape2DView_nwe0106"  d="M -2.2 -0.8350000000000001 L -2.125 -0.8350000000000001 " stroke="#191919" stroke-width="0.35 px" style="stroke-width:0.35;stroke-miterlimit:4;stroke-dasharray:none;fill:none;fill-opacity:1;fill-rule: evenodd"/>
<path id="Shape2DView_nwe0107"  d="M -2.2 -0.43500000000000005 L -2.125 -0.4350000000000001 " stroke="#191919" stroke-width="0.35 px" style="stroke-width:0.35;stroke-miterlimit:4;stroke-dasharray:none;fill:none;fill-opacity:1;fill-rule: evenodd"/>
<path id="Shape2DView_nwe0108"  d="M -2.2 0.43499999999999994 L -2.125 0.4349999999999999 " stroke="#191919" stroke-width="0.35 px" style="stroke-width:0.35;stroke-miterlimit:4;stroke-dasharray:none;fill:none;fill-opacity:1;fill-rule: evenodd"/>
<path id="Shape2DView_nwe0109"  d="M -2.2 0.8349999999999999 L -2.125 0.8349999999999999 " stroke="#191919" stroke-width="0.35 px" style="stroke-width:0.35;stroke-miterlimit:4;stroke-dasharray:none;fill:none;fill-opacity:1;fill-rule: evenodd"/>
<title>b'Shape2DView'</title>
</g>
<g id="Rectangle" transform="translate(3.570000,1.370000) scale(1,-1)">
<rect fill="#ff0000" id="origin" width="1" height="1" x="0" y="0" />
<title>b'Rectangle'</title>
</g>
</svg>