<?xml version="1.0"?>
<!DOCTYPE svg PUBLIC "-//W3C//DTD SVG 1.1//EN" "http://www.w3.org/Graphics/SVG/1.1/DTD/svg11.dtd">
<svg width="9.996mm" height="5.296mm" viewBox="0 0 9.996 5.296" xmlns="http://www.w3.org/2000/svg" version="1.1">
<g id="Shape2DView" transform="translate(4.998000,2.648000) scale(1,-1)">
<path id="Shape2DView_nwe0000"  d="M 4.9 1.67 L 4.0 1.6700000000000002 " stroke="#191919" stroke-width="0.35 px" style="stroke-width:0.35;stroke-miterlimit:4;stroke-dasharray:none;fill:none;fill-opacity:1;fill-rule: evenodd"/>
<path id="Shape2DView_nwe0001"  d="M 3.9999999999999973 1.67 L 3.9888035523896668 1.67 L 3.977747906604366 1.67 L 3.9669720938044812 1.67 L 3.9566116260882427 1.67 L 3.946796792348465 1.67 L 3.9376510198141252 1.67 L 3.9292893218813445 1.67 L 3.921816851753196 1.67 L 3.915327580077171 1.67 L 3.909903113209758 1.67 L 3.905611666969163 1.67 L 3.9025072087818176 1.67 L 3.9006287790106757 1.67 L 3.9 1.67 " stroke="#191919" stroke-width="0.35 px" style="stroke-width:0.35;stroke-miterlimit:4;stroke-dasharray:none;fill:none;fill-opacity:1;fill-rule: evenodd"/>
<path id="Shape2DView_nwe0002"  d="M 3.9 1.67 L 3.8977992734626348 1.67 L 3.891224769263638 1.67 L 3.880359165607928 1.67 L 3.865339103765846 1.67 L 3.846353469729899 1.67 L 3.82364101886381 1.67 L 3.7974873734152914 1.67 L 3.7682214306505566 1.67 L 3.7362112267803673 1.67 L 3.701859308691145 1.67 L 3.665597671684308 1.67 L 3.6278823268847096 1.67 L 3.5891875666361575 1.67 L 3.55 1.67 " stroke="#191919" stroke-width="0.35 px" style="stroke-width:0.35;stroke-miterlimit:4;stroke-dasharray:none;fill:none;fill-opacity:1;fill-rule: evenodd"/>
<path id="Shape2DView_nwe0003"  d="M 3.55 1.67 L 3.35 1.67 " stroke="#191919" stroke-width="0.35 px" style="stroke-width:0.35;stroke-miterlimit:4;stroke-dasharray:none;fill:none;fill-opacity:1;fill-rule: evenodd"/>
<path id="Shape2DView_nwe0004"  d="M 4.9 0.87 L 4.0 0.8700000000000002 " stroke="#191919" stroke-width="0.35 px" style="stroke-width:0.35;stroke-miterlimit:4;stroke-dasharray:none;fill:none;fill-opacity:1;fill-rule: evenodd"/>
<path id="Shape2DView_nwe0005"  d="M 3.9999999999999973 0.87 L 3.9888035523896668 0.87 L 3.977747906604366 0.87 L 3.9669720938044812 0.87 L 3.9566116260882427 0.87 L 3.946796792348465 0.87 L 3.9376510198141252 0.87 L 3.9292893218813445 0.87 L 3.921816851753196 0.87 L 3.915327580077171 0.87 L 3.909903113209758 0.87 L 3.905611666969163 0.87 L 3.9025072087818176 0.87 L 3.9006287790106757 0.87 L 3.9 0.87 " stroke="#191919" stroke-width="0.35 px" style="stroke-width:0.35;stroke-miterlimit:4;stroke-dasharray:none;fill:none;fill-opacity:1;fill-rule: evenodd"/>
<path id="Shape2DView_nwe0006"  d="M 3.9 0.8699999999999999 L 3.8977992734626348 0.8699999999999999 L 3.891224769263638 0.8699999999999999 L 3.880359165607928 0.8699999999999999 L 3.865339103765846 0.8699999999999999 L 3.846353469729899 0.8699999999999999 L 3.82364101886381 0.8699999999999999 L 3.7974873734152914 0.87 L 3.7682214306505566 0.87 L 3.7362112267803673 0.87 L 3.701859308691145 0.87 L 3.665597671684308 0.87 L 3.6278823268847096 0.87 L 3.5891875666361575 0.87 L 3.55 0.87 " stroke="#191919" stroke-width="0.35 px" style="stroke-width:0.35;stroke-miterlimit:4;stroke-dasharray:none;fill:none;fill-opacity:1;fill-rule: evenodd"/>
<path id="Shape2DView_nwe0007"  d="M 3.55 0.87 L 3.35 0.87 " stroke="#191919" stroke-width="0.35 px" style="stroke-width:0.35;stroke-miterlimit:4;stroke-dasharray:none;fill:none;fill-opacity:1;fill-rule: evenodd"/>
<path id="Shape2DView_nwe0008"  d="M 3.35 2.375 L 3.35 1.67 " stroke="#191919" stroke-width="0.35 px" style="stroke-width:0.35;stroke-miterlimit:4;stroke-dasharray:none;fill:none;fill-opacity:1;fill-rule: evenodd"/>
<path id="Shape2DView_nwe0009"  d="M 3.275 1.67 L 3.2749999999999995 0.8700000000000001 " stroke="#191919" stroke-width="0.35 px" style="stroke-width:0.35;stroke-miterlimit:4;stroke-dasharray:none;fill:none;fill-opacity:1;fill-rule: evenodd"/>
<path id="Shape2DView_nwe0010"  d="M 3.9 1.67 L 3.9 0.87 " stroke="#191919" stroke-width="0.35 px" style="stroke-width:0.35;stroke-miterlimit:4;stroke-dasharray:none;fill:none;fill-opacity:1;fill-rule: evenodd"/>
<path id="Shape2DView_nwe0011"  d="M 4.9 1.67 L 4.9 0.87 " stroke="#191919" stroke-width="0.35 px" style="stroke-width:0.35;stroke-miterlimit:4;stroke-dasharray:none;fill:none;fill-opacity:1;fill-rule: evenodd"/>
<path id="Shape2DView_nwe0012"  d="M 3.3499999999999996 0.8700000000000001 L 3.349999999999999 -0.8700000000000001 " stroke="#191919" stroke-width="0.35 px" style="stroke-width:0.35;stroke-miterlimit:4;stroke-dasharray:none;fill:none;fill-opacity:1;fill-rule: evenodd"/>
<path id="Shape2DView_nwe0013"  d="M 3.349999999999999 -1.67 L 3.349999999999999 -2.375 " stroke="#191919" stroke-width="0.35 px" style="stroke-width:0.35;stroke-miterlimit:4;stroke-dasharray:none;fill:none;fill-opacity:1;fill-rule: evenodd"/>
<path id="Shape2DView_nwe0014"  d="M 3.175 2.55 L 3.35 2.3749999999999996 " stroke="#191919" stroke-width="0.35 px" style="stroke-width:0.35;stroke-miterlimit:4;stroke-dasharray:none;fill:none;fill-opacity:1;fill-rule: evenodd"/>
<path id="Shape2DView_nwe0015"  d="M 3.35 2.375 L 3.275 2.3375 " stroke="#191919" stroke-width="0.35 px" style="stroke-width:0.35;stroke-miterlimit:4;stroke-dasharray:none;fill:none;fill-opacity:1;fill-rule: evenodd"/>
<path id="Shape2DView_nwe0016"  d="M 3.275 2.3375 L 3.275 1.67 " stroke="#191919" stroke-width="0.35 px" style="stroke-width:0.35;stroke-miterlimit:4;stroke-dasharray:none;fill:none;fill-opacity:1;fill-rule: evenodd"/>
<path id="Shape2DView_nwe0017"  d="M 3.2749999999999995 0.8700000000000001 L 3.274999999999999 -0.8700000000000001 " stroke="#191919" stroke-width="0.35 px" style="stroke-width:0.35;stroke-miterlimit:4;stroke-dasharray:none;fill:none;fill-opacity:1;fill-rule: evenodd"/>
<path id="Shape2DView_nwe0018"  d="M 3.274999999999999 -0.8700000000000001 L 3.274999999999999 -1.6700000000000004 " stroke="#191919" stroke-width="0.35 px" style="stroke-width:0.35;stroke-miterlimit:4;stroke-dasharray:none;fill:none;fill-opacity:1;fill-rule: evenodd"/>
<path id="Shape2DView_nwe0019"  d="M 3.274999999999999 -1.6700000000000004 L 3.274999999999999 -2.3375 " stroke="#191919" stroke-width="0.35 px" style="stroke-width:0.35;stroke-miterlimit:4;stroke-dasharray:none;fill:none;fill-opacity:1;fill-rule: evenodd"/>
<path id="Shape2DView_nwe0020"  d="M 3.275 -2.3375 L 2.924281673244 -2.162140836622 " stroke="#191919" stroke-width="0.35 px" style="stroke-width:0.35;stroke-miterlimit:4;stroke-dasharray:none;fill:none;fill-opacity:1;fill-rule: evenodd"/>
<path id="Shape2DView_nwe0021"  d="M 2.924281673243999 -2.124281673244001 L 2.924281673243999 -2.162140836622 " stroke="#191919" stroke-width="0.35 px" style="stroke-width:0.35;stroke-miterlimit:4;stroke-dasharray:none;fill:none;fill-opacity:1;fill-rule: evenodd"/>
<path id="Shape2DView_nwe0022"  d="M 2.924281673244 2.1242816732439986 L 2.924281673243999 -2.124281673244001 " stroke="#191919" stroke-width="0.35 px" style="stroke-width:0.35;stroke-miterlimit:4;stroke-dasharray:none;fill:none;fill-opacity:1;fill-rule: evenodd"/>
<path id="Shape2DView_nwe0023"  d="M 2.924281673244 2.162140836622 L 2.924281673244 2.1242816732439986 " stroke="#191919" stroke-width="0.35 px" style="stroke-width:0.35;stroke-miterlimit:4;stroke-dasharray:none;fill:none;fill-opacity:1;fill-rule: evenodd"/>
<path id="Shape2DView_nwe0024"  d="M 3.275 2.3375 L 2.924281673244 2.162140836622 " stroke="#191919" stroke-width="0.35 px" style="stroke-width:0.35;stroke-miterlimit:4;stroke-dasharray:none;fill:none;fill-opacity:1;fill-rule: evenodd"/>
<path id="Shape2DView_nwe0025"  d="M 4.9 -0.87 L 4.0 -0.8699999999999998 " stroke="#191919" stroke-width="0.35 px" style="stroke-width:0.35;stroke-miterlimit:4;stroke-dasharray:none;fill:none;fill-opacity:1;fill-rule: evenodd"/>
<path id="Shape2DView_nwe0026"  d="M 3.9999999999999973 -0.87 L 3.9888035523896668 -0.87 L 3.977747906604366 -0.87 L 3.9669720938044812 -0.87 L 3.9566116260882427 -0.87 L 3.946796792348465 -0.87 L 3.9376510198141252 -0.87 L 3.9292893218813445 -0.87 L 3.921816851753196 -0.87 L 3.915327580077171 -0.87 L 3.909903113209758 -0.87 L 3.905611666969163 -0.87 L 3.9025072087818176 -0.87 L 3.9006287790106757 -0.87 L 3.9 -0.87 " stroke="#191919" stroke-width="0.35 px" style="stroke-width:0.35;stroke-miterlimit:4;stroke-dasharray:none;fill:none;fill-opacity:1;fill-rule: evenodd"/>
<path id="Shape2DView_nwe0027"  d="M 3.9 -0.8700000000000001 L 3.8977992734626348 -0.8700000000000001 L 3.891224769263638 -0.8700000000000001 L 3.880359165607928 -0.8700000000000001 L 3.865339103765846 -0.8700000000000001 L 3.846353469729899 -0.8700000000000001 L 3.82364101886381 -0.8700000000000001 L 3.7974873734152914 -0.87 L 3.7682214306505566 -0.87 L 3.7362112267803673 -0.87 L 3.701859308691145 -0.87 L 3.665597671684308 -0.87 L 3.6278823268847096 -0.87 L 3.5891875666361575 -0.87 L 3.55 -0.87 " stroke="#191919" stroke-width="0.35 px" style="stroke-width:0.35;stroke-miterlimit:4;stroke-dasharray:none;fill:none;fill-opacity:1;fill-rule: evenodd"/>
<path id="Shape2DView_nwe0028"  d="M 3.55 -0.87 L 3.35 -0.87 " stroke="#191919" stroke-width="0.35 px" style="stroke-width:0.35;stroke-miterlimit:4;stroke-dasharray:none;fill:none;fill-opacity:1;fill-rule: evenodd"/>
<path id="Shape2DView_nwe0029"  d="M 3.35 -2.375 L 3.175 -2.5500000000000003 " stroke="#191919" stroke-width="0.35 px" style="stroke-width:0.35;stroke-miterlimit:4;stroke-dasharray:none;fill:none;fill-opacity:1;fill-rule: evenodd"/>
<path id="Shape2DView_nwe0030"  d="M 4.9 -1.67 L 4.0 -1.6699999999999997 " stroke="#191919" stroke-width="0.35 px" style="stroke-width:0.35;stroke-miterlimit:4;stroke-dasharray:none;fill:none;fill-opacity:1;fill-rule: evenodd"/>
<path id="Shape2DView_nwe0031"  d="M 3.9999999999999973 -1.67 L 3.9888035523896668 -1.67 L 3.977747906604366 -1.67 L 3.9669720938044812 -1.67 L 3.9566116260882427 -1.67 L 3.946796792348465 -1.67 L 3.9376510198141252 -1.67 L 3.9292893218813445 -1.67 L 3.921816851753196 -1.67 L 3.915327580077171 -1.67 L 3.909903113209758 -1.67 L 3.905611666969163 -1.67 L 3.9025072087818176 -1.67 L 3.9006287790106757 -1.67 L 3.9 -1.67 " stroke="#191919" stroke-width="0.35 px" style="stroke-width:0.35;stroke-miterlimit:4;stroke-dasharray:none;fill:none;fill-opacity:1;fill-rule: evenodd"/>
<path id="Shape2DView_nwe0032"  d="M 3.9 -1.67 L 3.8977992734626348 -1.67 L 3.891224769263638 -1.67 L 3.880359165607928 -1.67 L 3.865339103765846 -1.67 L 3.846353469729899 -1.67 L 3.82364101886381 -1.67 L 3.7974873734152914 -1.67 L 3.7682214306505566 -1.67 L 3.7362112267803673 -1.67 L 3.701859308691145 -1.67 L 3.665597671684308 -1.67 L 3.6278823268847096 -1.67 L 3.5891875666361575 -1.67 L 3.55 -1.67 " stroke="#191919" stroke-width="0.35 px" style="stroke-width:0.35;stroke-miterlimit:4;stroke-dasharray:none;fill:none;fill-opacity:1;fill-rule: evenodd"/>
<path id="Shape2DView_nwe0033"  d="M 3.55 -1.67 L 3.35 -1.67 " stroke="#191919" stroke-width="0.35 px" style="stroke-width:0.35;stroke-miterlimit:4;stroke-dasharray:none;fill:none;fill-opacity:1;fill-rule: evenodd"/>
<path id="Shape2DView_nwe0034"  d="M 3.35 -2.375 L 3.275 -2.3375 " stroke="#191919" stroke-width="0.35 px" style="stroke-width:0.35;stroke-miterlimit:4;stroke-dasharray:none;fill:none;fill-opacity:1;fill-rule: evenodd"/>
<path id="Shape2DView_nwe0035"  d="M 3.1375 2.475 L 3.2750000000000004 2.3375 " stroke="#191919" stroke-width="0.35 px" style="stroke-width:0.35;stroke-miterlimit:4;stroke-dasharray:none;fill:none;fill-opacity:1;fill-rule: evenodd"/>
<path id="Shape2DView_nwe0036"  d="M 3.175 2.55 L 3.1375 2.475 " stroke="#191919" stroke-width="0.35 px" style="stroke-width:0.35;stroke-miterlimit:4;stroke-dasharray:none;fill:none;fill-opacity:1;fill-rule: evenodd"/>
<path id="Shape2DView_nwe0037"  d="M -3.175 2.55 L 3.175 2.5499999999999985 " stroke="#191919" stroke-width="0.35 px" style="stroke-width:0.35;stroke-miterlimit:4;stroke-dasharray:none;fill:none;fill-opacity:1;fill-rule: evenodd"/>
<path id="Shape2DView_nwe0038"  d="M 2.962140836622 2.124281673244 L 2.924281673244 2.162140836622 " stroke="#191919" stroke-width="0.35 px" style="stroke-width:0.35;stroke-miterlimit:4;stroke-dasharray:none;fill:none;fill-opacity:1;fill-rule: evenodd"/>
<path id="Shape2DView_nwe0039"  d="M 3.1375 2.475 L 2.962140836622 2.124281673244 " stroke="#191919" stroke-width="0.35 px" style="stroke-width:0.35;stroke-miterlimit:4;stroke-dasharray:none;fill:none;fill-opacity:1;fill-rule: evenodd"/>
<path id="Shape2DView_nwe0040"  d="M 2.924281673244 -2.162140836622 L 2.962140836622 -2.124281673244 " stroke="#191919" stroke-width="0.35 px" style="stroke-width:0.35;stroke-miterlimit:4;stroke-dasharray:none;fill:none;fill-opacity:1;fill-rule: evenodd"/>
<path id="Shape2DView_nwe0041"  d="M 2.962140836622 -2.124281673244 L 2.924281673243998 -2.124281673244 " stroke="#191919" stroke-width="0.35 px" style="stroke-width:0.35;stroke-miterlimit:4;stroke-dasharray:none;fill:none;fill-opacity:1;fill-rule: evenodd"/>
<path id="Shape2DView_nwe0042"  d="M 2.924281673244 2.1242816732439986 L 2.962140836622 2.1242816732439986 " stroke="#191919" stroke-width="0.35 px" style="stroke-width:0.35;stroke-miterlimit:4;stroke-dasharray:none;fill:none;fill-opacity:1;fill-rule: evenodd"/>
<path id="Shape2DView_nwe0043"  d="M -2.924281673243999 2.124281673244 L 2.924281673244 2.1242816732439986 " stroke="#191919" stroke-width="0.35 px" style="stroke-width:0.35;stroke-miterlimit:4;stroke-dasharray:none;fill:none;fill-opacity:1;fill-rule: evenodd"/>
<path id="Shape2DView_nwe0044"  d="M -2.924281673244 -2.1242816732439995 L -2.924281673243999 2.124281673244 " stroke="#191919" stroke-width="0.35 px" style="stroke-width:0.35;stroke-miterlimit:4;stroke-dasharray:none;fill:none;fill-opacity:1;fill-rule: evenodd"/>
<path id="Shape2DView_nwe0045"  d="M 2.924281673243998 -2.124281673244 L -2.9242816732440007 -2.1242816732439986 " stroke="#191919" stroke-width="0.35 px" style="stroke-width:0.35;stroke-miterlimit:4;stroke-dasharray:none;fill:none;fill-opacity:1;fill-rule: evenodd"/>
<circle cx="-2.224281673244" cy="1.424281673244" r="0.25" stroke="#191919" stroke-width="0.35 px" style="stroke-width:0.35;stroke-miterlimit:4;stroke-dasharray:none;fill:none"/>
<path id="Shape2DView_nwe0047"  d="M 3.275 -2.3375 L 3.1374999999999997 -2.475 " stroke="#191919" stroke-width="0.35 px" style="stroke-width:0.35;stroke-miterlimit:4;stroke-dasharray:none;fill:none;fill-opacity:1;fill-rule: evenodd"/>
<path id="Shape2DView_nwe0048"  d="M 3.1375 -2.475 L 2.962140836622 -2.124281673244 " stroke="#191919" stroke-width="0.35 px" style="stroke-width:0.35;stroke-miterlimit:4;stroke-dasharray:none;fill:none;fill-opacity:1;fill-rule: evenodd"/>
<path id="Shape2DView_nwe0049"  d="M 3.9 -0.87 L 3.9 -1.67 " stroke="#191919" stroke-width="0.35 px" style="stroke-width:0.35;stroke-miterlimit:4;stroke-dasharray:none;fill:none;fill-opacity:1;fill-rule: evenodd"/>
<path id="Shape2DView_nwe0050"  d="M 4.9 -0.87 L 4.9 -1.67 " stroke="#191919" stroke-width="0.35 px" style="stroke-width:0.35;stroke-miterlimit:4;stroke-dasharray:none;fill:none;fill-opacity:1;fill-rule: evenodd"/>
<path id="Shape2DView_nwe0051"  d="M 3.175 -2.55 L -3.175 -2.5499999999999985 " stroke="#191919" stroke-width="0.35 px" style="stroke-width:0.35;stroke-miterlimit:4;stroke-dasharray:none;fill:none;fill-opacity:1;fill-rule: evenodd"/>
<path id="Shape2DView_nwe0052"  d="M -3.175 -2.55 L -3.35 -2.3749999999999996 " stroke="#191919" stroke-width="0.35 px" style="stroke-width:0.35;stroke-miterlimit:4;stroke-dasharray:none;fill:none;fill-opacity:1;fill-rule: evenodd"/>
<path id="Shape2DView_nwe0053"  d="M -3.35 -2.375 L -3.35 -1.67 " stroke="#191919" stroke-width="0.35 px" style="stroke-width:0.35;stroke-miterlimit:4;stroke-dasharray:none;fill:none;fill-opacity:1;fill-rule: evenodd"/>
<path id="Shape2DView_nwe0054"  d="M -3.349999999999999 1.67 L -3.349999999999999 2.375 " stroke="#191919" stroke-width="0.35 px" style="stroke-width:0.35;stroke-miterlimit:4;stroke-dasharray:none;fill:none;fill-opacity:1;fill-rule: evenodd"/>
<path id="Shape2DView_nwe0055"  d="M -3.3499999999999996 -0.8700000000000001 L -3.349999999999999 0.8700000000000001 " stroke="#191919" stroke-width="0.35 px" style="stroke-width:0.35;stroke-miterlimit:4;stroke-dasharray:none;fill:none;fill-opacity:1;fill-rule: evenodd"/>
<path id="Shape2DView_nwe0056"  d="M -3.35 2.375 L -3.175 2.5500000000000003 " stroke="#191919" stroke-width="0.35 px" style="stroke-width:0.35;stroke-miterlimit:4;stroke-dasharray:none;fill:none;fill-opacity:1;fill-rule: evenodd"/>
<path id="Shape2DView_nwe0057"  d="M 3.175 -2.55 L 3.1375 -2.475 " stroke="#191919" stroke-width="0.35 px" style="stroke-width:0.35;stroke-miterlimit:4;stroke-dasharray:none;fill:none;fill-opacity:1;fill-rule: evenodd"/>
<path id="Shape2DView_nwe0058"  d="M -3.1375 2.475 L 3.1375 2.4749999999999988 " stroke="#191919" stroke-width="0.35 px" style="stroke-width:0.35;stroke-miterlimit:4;stroke-dasharray:none;fill:none;fill-opacity:1;fill-rule: evenodd"/>
<path id="Shape2DView_nwe0059"  d="M -3.175 2.55 L -3.1375 2.475 " stroke="#191919" stroke-width="0.35 px" style="stroke-width:0.35;stroke-miterlimit:4;stroke-dasharray:none;fill:none;fill-opacity:1;fill-rule: evenodd"/>
<path id="Shape2DView_nwe0060"  d="M -2.962140836622 2.124281673244 L -2.924281673243999 2.124281673244 " stroke="#191919" stroke-width="0.35 px" style="stroke-width:0.35;stroke-miterlimit:4;stroke-dasharray:none;fill:none;fill-opacity:1;fill-rule: evenodd"/>
<path id="Shape2DView_nwe0061"  d="M -3.1375 2.475 L -2.962140836622 2.124281673244 " stroke="#191919" stroke-width="0.35 px" style="stroke-width:0.35;stroke-miterlimit:4;stroke-dasharray:none;fill:none;fill-opacity:1;fill-rule: evenodd"/>
<path id="Shape2DView_nwe0062"  d="M -2.924281673243999 2.124281673244 L -2.924281673243999 2.162140836622 " stroke="#191919" stroke-width="0.35 px" style="stroke-width:0.35;stroke-miterlimit:4;stroke-dasharray:none;fill:none;fill-opacity:1;fill-rule: evenodd"/>
<path id="Shape2DView_nwe0063"  d="M -2.924281673244 2.162140836622 L -2.962140836622 2.124281673244 " stroke="#191919" stroke-width="0.35 px" style="stroke-width:0.35;stroke-miterlimit:4;stroke-dasharray:none;fill:none;fill-opacity:1;fill-rule: evenodd"/>
<path id="Shape2DView_nwe0064"  d="M -3.275 2.3375 L -3.1374999999999997 2.475 " stroke="#191919" stroke-width="0.35 px" style="stroke-width:0.35;stroke-miterlimit:4;stroke-dasharray:none;fill:none;fill-opacity:1;fill-rule: evenodd"/>
<path id="Shape2DView_nwe0065"  d="M -3.275 2.3375 L -2.924281673244 2.162140836622 " stroke="#191919" stroke-width="0.35 px" style="stroke-width:0.35;stroke-miterlimit:4;stroke-dasharray:none;fill:none;fill-opacity:1;fill-rule: evenodd"/>
<path id="Shape2DView_nwe0066"  d="M -3.275 -2.3375 L -3.275 -1.67 " stroke="#191919" stroke-width="0.35 px" style="stroke-width:0.35;stroke-miterlimit:4;stroke-dasharray:none;fill:none;fill-opacity:1;fill-rule: evenodd"/>
<path id="Shape2DView_nwe0067"  d="M -3.275 -1.67 L -3.2749999999999995 -0.8700000000000001 " stroke="#191919" stroke-width="0.35 px" style="stroke-width:0.35;stroke-miterlimit:4;stroke-dasharray:none;fill:none;fill-opacity:1;fill-rule: evenodd"/>
<path id="Shape2DView_nwe0068"  d="M -3.2749999999999995 -0.8700000000000001 L -3.274999999999999 0.8700000000000001 " stroke="#191919" stroke-width="0.35 px" style="stroke-width:0.35;stroke-miterlimit:4;stroke-dasharray:none;fill:none;fill-opacity:1;fill-rule: evenodd"/>
<path id="Shape2DView_nwe0069"  d="M -3.274999999999999 0.8700000000000001 L -3.274999999999999 1.6700000000000004 " stroke="#191919" stroke-width="0.35 px" style="stroke-width:0.35;stroke-miterlimit:4;stroke-dasharray:none;fill:none;fill-opacity:1;fill-rule: evenodd"/>
<path id="Shape2DView_nwe0070"  d="M -3.274999999999999 1.6700000000000004 L -3.274999999999999 2.3375 " stroke="#191919" stroke-width="0.35 px" style="stroke-width:0.35;stroke-miterlimit:4;stroke-dasharray:none;fill:none;fill-opacity:1;fill-rule: evenodd"/>
<path id="Shape2DView_nwe0071"  d="M -2.924281673244 -2.162140836622 L -2.924281673244 -2.1242816732439995 " stroke="#191919" stroke-width="0.35 px" style="stroke-width:0.35;stroke-miterlimit:4;stroke-dasharray:none;fill:none;fill-opacity:1;fill-rule: evenodd"/>
<path id="Shape2DView_nwe0072"  d="M -3.275 -2.3375 L -2.924281673244 -2.162140836622 " stroke="#191919" stroke-width="0.35 px" style="stroke-width:0.35;stroke-miterlimit:4;stroke-dasharray:none;fill:none;fill-opacity:1;fill-rule: evenodd"/>
<path id="Shape2DView_nwe0073"  d="M -2.9242816732440007 -2.1242816732439986 L -2.962140836622 -2.1242816732439986 " stroke="#191919" stroke-width="0.35 px" style="stroke-width:0.35;stroke-miterlimit:4;stroke-dasharray:none;fill:none;fill-opacity:1;fill-rule: evenodd"/>
<path id="Shape2DView_nwe0074"  d="M -2.962140836622 -2.124281673244 L -2.924281673244 -2.162140836622 " stroke="#191919" stroke-width="0.35 px" style="stroke-width:0.35;stroke-miterlimit:4;stroke-dasharray:none;fill:none;fill-opacity:1;fill-rule: evenodd"/>
<path id="Shape2DView_nwe0075"  d="M -3.1375 -2.475 L -3.2750000000000004 -2.3375 " stroke="#191919" stroke-width="0.35 px" style="stroke-width:0.35;stroke-miterlimit:4;stroke-dasharray:none;fill:none;fill-opacity:1;fill-rule: evenodd"/>
<path id="Shape2DView_nwe0076"  d="M -3.1375 -2.475 L -2.962140836622 -2.124281673244 " stroke="#191919" stroke-width="0.35 px" style="stroke-width:0.35;stroke-miterlimit:4;stroke-dasharray:none;fill:none;fill-opacity:1;fill-rule: evenodd"/>
<path id="Shape2DView_nwe0077"  d="M 3.1375 -2.475 L -3.1375 -2.4749999999999988 " stroke="#191919" stroke-width="0.35 px" style="stroke-width:0.35;stroke-miterlimit:4;stroke-dasharray:none;fill:none;fill-opacity:1;fill-rule: evenodd"/>
<path id="Shape2DView_nwe0078"  d="M -3.175 -2.55 L -3.1375 -2.475 " stroke="#191919" stroke-width="0.35 px" style="stroke-width:0.35;stroke-miterlimit:4;stroke-dasharray:none;fill:none;fill-opacity:1;fill-rule: evenodd"/>
<path id="Shape2DView_nwe0079"  d="M -3.35 -2.375 L -3.275 -2.3375 " stroke="#191919" stroke-width="0.35 px" style="stroke-width:0.35;stroke-miterlimit:4;stroke-dasharray:none;fill:none;fill-opacity:1;fill-rule: evenodd"/>
<path id="Shape2DView_nwe0080"  d="M -4.9 -1.67 L -4.0 -1.6700000000000002 " stroke="#191919" stroke-width="0.35 px" style="stroke-width:0.35;stroke-miterlimit:4;stroke-dasharray:none;fill:none;fill-opacity:1;fill-rule: evenodd"/>
<path id="Shape2DView_nwe0081"  d="M -3.9999999999999973 -1.67 L -3.9888035523896668 -1.67 L -3.977747906604366 -1.67 L -3.9669720938044812 -1.67 L -3.9566116260882427 -1.67 L -3.946796792348465 -1.67 L -3.9376510198141252 -1.67 L -3.9292893218813445 -1.67 L -3.921816851753196 -1.67 L -3.915327580077171 -1.67 L -3.909903113209758 -1.67 L -3.905611666969163 -1.67 L -3.9025072087818176 -1.67 L -3.9006287790106757 -1.67 L -3.9 -1.67 " stroke="#191919" stroke-width="0.35 px" style="stroke-width:0.35;stroke-miterlimit:4;stroke-dasharray:none;fill:none;fill-opacity:1;fill-rule: evenodd"/>
<path id="Shape2DView_nwe0082"  d="M -3.9 -1.6699999999999997 L -3.8977992734626348 -1.6699999999999997 L -3.891224769263638 -1.6699999999999997 L -3.880359165607928 -1.6699999999999997 L -3.865339103765846 -1.67 L -3.846353469729899 -1.67 L -3.82364101886381 -1.67 L -3.7974873734152914 -1.67 L -3.7682214306505566 -1.67 L -3.7362112267803673 -1.67 L -3.701859308691145 -1.67 L -3.665597671684308 -1.67 L -3.6278823268847096 -1.67 L -3.5891875666361575 -1.67 L -3.55 -1.67 " stroke="#191919" stroke-width="0.35 px" style="stroke-width:0.35;stroke-miterlimit:4;stroke-dasharray:none;fill:none;fill-opacity:1;fill-rule: evenodd"/>
<path id="Shape2DView_nwe0083"  d="M -3.55 -1.67 L -3.35 -1.67 " stroke="#191919" stroke-width="0.35 px" style="stroke-width:0.35;stroke-miterlimit:4;stroke-dasharray:none;fill:none;fill-opacity:1;fill-rule: evenodd"/>
<path id="Shape2DView_nwe0084"  d="M -4.9 1.67 L -4.0 1.6699999999999997 " stroke="#191919" stroke-width="0.35 px" style="stroke-width:0.35;stroke-miterlimit:4;stroke-dasharray:none;fill:none;fill-opacity:1;fill-rule: evenodd"/>
<path id="Shape2DView_nwe0085"  d="M -3.9999999999999973 1.67 L -3.9888035523896668 1.67 L -3.977747906604366 1.67 L -3.9669720938044812 1.67 L -3.9566116260882427 1.67 L -3.946796792348465 1.67 L -3.9376510198141252 1.67 L -3.9292893218813445 1.67 L -3.921816851753196 1.67 L -3.915327580077171 1.67 L -3.909903113209758 1.67 L -3.905611666969163 1.67 L -3.9025072087818176 1.67 L -3.9006287790106757 1.67 L -3.9 1.67 " stroke="#191919" stroke-width="0.35 px" style="stroke-width:0.35;stroke-miterlimit:4;stroke-dasharray:none;fill:none;fill-opacity:1;fill-rule: evenodd"/>
<path id="Shape2DView_nwe0086"  d="M -3.9 1.6700000000000002 L -3.8977992734626348 1.6700000000000002 L -3.891224769263638 1.6700000000000002 L -3.880359165607928 1.6700000000000002 L -3.865339103765846 1.67 L -3.846353469729899 1.67 L -3.82364101886381 1.67 L -3.7974873734152914 1.67 L -3.7682214306505566 1.67 L -3.7362112267803673 1.67 L -3.701859308691145 1.67 L -3.665597671684308 1.67 L -3.6278823268847096 1.67 L -3.5891875666361575 1.67 L -3.55 1.67 " stroke="#191919" stroke-width="0.35 px" style="stroke-width:0.35;stroke-miterlimit:4;stroke-dasharray:none;fill:none;fill-opacity:1;fill-rule: evenodd"/>
<path id="Shape2DView_nwe0087"  d="M -3.55 1.67 L -3.35 1.67 " stroke="#191919" stroke-width="0.35 px" style="stroke-width:0.35;stroke-miterlimit:4;stroke-dasharray:none;fill:none;fill-opacity:1;fill-rule: evenodd"/>
<path id="Shape2DView_nwe0088"  d="M -3.35 2.375 L -3.275 2.3375 " stroke="#191919" stroke-width="0.35 px" style="stroke-width:0.35;stroke-miterlimit:4;stroke-dasharray:none;fill:none;fill-opacity:1;fill-rule: evenodd"/>
<path id="Shape2DView_nwe0089"  d="M -4.9 -0.87 L -4.0 -0.8700000000000003 " stroke="#191919" stroke-width="0.35 px" style="stroke-width:0.35;stroke-miterlimit:4;stroke-dasharray:none;fill:none;fill-opacity:1;fill-rule: evenodd"/>
<path id="Shape2DView_nwe0090"  d="M -3.9999999999999973 -0.87 L -3.9888035523896668 -0.87 L -3.977747906604366 -0.87 L -3.9669720938044812 -0.87 L -3.9566116260882427 -0.87 L -3.946796792348465 -0.87 L -3.9376510198141252 -0.87 L -3.9292893218813445 -0.87 L -3.921816851753196 -0.87 L -3.915327580077171 -0.87 L -3.909903113209758 -0.87 L -3.905611666969163 -0.87 L -3.9025072087818176 -0.87 L -3.9006287790106757 -0.87 L -3.9 -0.87 " stroke="#191919" stroke-width="0.35 px" style="stroke-width:0.35;stroke-miterlimit:4;stroke-dasharray:none;fill:none;fill-opacity:1;fill-rule: evenodd"/>
<path id="Shape2DView_nwe0091"  d="M -3.9 -0.8699999999999999 L -3.8977992734626348 -0.8699999999999999 L -3.891224769263638 -0.8699999999999999 L -3.880359165607928 -0.8699999999999999 L -3.865339103765846 -0.8699999999999999 L -3.846353469729899 -0.8699999999999999 L -3.82364101886381 -0.8699999999999999 L -3.7974873734152914 -0.8699999999999999 L -3.7682214306505566 -0.8699999999999999 L -3.7362112267803673 -0.8699999999999999 L -3.701859308691145 -0.87 L -3.665597671684308 -0.87 L -3.6278823268847096 -0.87 L -3.5891875666361575 -0.87 L -3.55 -0.87 " stroke="#191919" stroke-width="0.35 px" style="stroke-width:0.35;stroke-miterlimit:4;stroke-dasharray:none;fill:none;fill-opacity:1;fill-rule: evenodd"/>
<path id="Shape2DView_nwe0092"  d="M -3.55 -0.87 L -3.35 -0.8700000000000001 " stroke="#191919" stroke-width="0.35 px" style="stroke-width:0.35;stroke-miterlimit:4;stroke-dasharray:none;fill:none;fill-opacity:1;fill-rule: evenodd"/>
<path id="Shape2DView_nwe0093"  d="M -4.9 0.87 L -4.0 0.8699999999999997 " stroke="#191919" stroke-width="0.35 px" style="stroke-width:0.35;stroke-miterlimit:4;stroke-dasharray:none;fill:none;fill-opacity:1;fill-rule: evenodd"/>
<path id="Shape2DView_nwe0094"  d="M -3.9999999999999973 0.87 L -3.9888035523896668 0.87 L -3.977747906604366 0.87 L -3.9669720938044812 0.87 L -3.9566116260882427 0.87 L -3.946796792348465 0.87 L -3.9376510198141252 0.87 L -3.9292893218813445 0.87 L -3.921816851753196 0.87 L -3.915327580077171 0.87 L -3.909903113209758 0.87 L -3.905611666969163 0.87 L -3.9025072087818176 0.87 L -3.9006287790106757 0.87 L -3.9 0.87 " stroke="#191919" stroke-width="0.35 px" style="stroke-width:0.35;stroke-miterlimit:4;stroke-dasharray:none;fill:none;fill-opacity:1;fill-rule: evenodd"/>
<path id="Shape2DView_nwe0095"  d="M -3.9 0.8700000000000001 L -3.8977992734626348 0.8700000000000001 L -3.891224769263638 0.8700000000000001 L -3.880359165607928 0.8700000000000001 L -3.865339103765846 0.8700000000000001 L -3.846353469729899 0.8700000000000001 L -3.82364101886381 0.8700000000000001 L -3.7974873734152914 0.8700000000000001 L -3.7682214306505566 0.8700000000000001 L -3.7362112267803673 0.8700000000000001 L -3.701859308691145 0.87 L -3.665597671684308 0.87 L -3.6278823268847096 0.87 L -3.5891875666361575 0.87 L -3.55 0.87 " stroke="#191919" stroke-width="0.35 px" style="stroke-width:0.35;stroke-miterlimit:4;stroke-dasharray:none;fill:none;fill-opacity:1;fill-rule: evenodd"/>
<path id="Shape2DView_nwe0096"  d="M -3.55 0.87 L -3.35 0.8699999999999999 " stroke="#191919" stroke-width="0.35 px" style="stroke-width:0.35;stroke-miterlimit:4;stroke-dasharray:none;fill:none;fill-opacity:1;fill-rule: evenodd"/>
<path id="Shape2DView_nwe0097"  d="M -3.9 -1.67 L -3.8999999999999995 -0.87 " stroke="#191919" stroke-width="0.35 px" style="stroke-width:0.35;stroke-miterlimit:4;stroke-dasharray:none;fill:none;fill-opacity:1;fill-rule: evenodd"/>
<path id="Shape2DView_nwe0098"  d="M -4.9 -1.67 L -4.9 -0.87 " stroke="#191919" stroke-width="0.35 px" style="stroke-width:0.35;stroke-miterlimit:4;stroke-dasharray:none;fill:none;fill-opacity:1;fill-rule: evenodd"/>
<path id="Shape2DView_nwe0099"  d="M -3.9 0.87 L -3.8999999999999995 1.67 " stroke="#191919" stroke-width="0.35 px" style="stroke-width:0.35;stroke-miterlimit:4;stroke-dasharray:none;fill:none;fill-opacity:1;fill-rule: evenodd"/>
<path id="Shape2DView_nwe0100"  d="M -4.9 0.87 L -4.9 1.67 " stroke="#191919" stroke-width="0.35 px" style="stroke-width:0.35;stroke-miterlimit:4;stroke-dasharray:none;fill:none;fill-opacity:1;fill-rule: evenodd"/>
<path id="Shape2DView_nwe0101"  d="M 3.55 1.67 L 3.55 0.87 " stroke="#191919" stroke-width="0.35 px" style="stroke-width:0.35;stroke-miterlimit:4;stroke-dasharray:none;fill:none;fill-opacity:1;fill-rule: evenodd"/>
<path id="Shape2DView_nwe0102"  d="M 4.0 1.67 L 4.0 0.87 " stroke="#191919" stroke-width="0.35 px" style="stroke-width:0.35;stroke-miterlimit:4;stroke-dasharray:none;fill:none;fill-opacity:1;fill-rule: evenodd"/>
<path id="Shape2DView_nwe0103"  d="M 3.55 -0.87 L 3.55 -1.67 " stroke="#191919" stroke-width="0.35 px" style="stroke-width:0.35;stroke-miterlimit:4;stroke-dasharray:none;fill:none;fill-opacity:1;fill-rule: evenodd"/>
<path id="Shape2DView_nwe0104"  d="M 4.0 -0.87 L 4.0 -1.67 " stroke="#191919" stroke-width="0.35 px" style="stroke-width:0.35;stroke-miterlimit:4;stroke-dasharray:none;fill:none;fill-opacity:1;fill-rule: evenodd"/>
<path id="Shape2DView_nwe0105"  d="M -3.55 -1.67 L -3.5499999999999994 -0.87 " stroke="#191919" stroke-width="0.35 px" style="stroke-width:0.35;stroke-miterlimit:4;stroke-dasharray:none;fill:none;fill-opacity:1;fill-rule: evenodd"/>
<path id="Shape2DView_nwe0106"  d="M -3.55 0.87 L -3.5499999999999994 1.67 " stroke="#191919" stroke-width="0.35 px" style="stroke-width:0.35;stroke-miterlimit:4;stroke-dasharray:none;fill:none;fill-opacity:1;fill-rule: evenodd"/>
<path id="Shape2DView_nwe0107"  d="M -4.0 -1.67 L -3.9999999999999996 -0.87 " stroke="#191919" stroke-width="0.35 px" style="stroke-width:0.35;stroke-miterlimit:4;stroke-dasharray:none;fill:none;fill-opacity:1;fill-rule: evenodd"/>
<path id="Shape2DView_nwe0108"  d="M -4.0 0.87 L -3.9999999999999996 1.67 " stroke="#191919" stroke-width="0.35 px" style="stroke-width:0.35;stroke-miterlimit:4;stroke-dasharray:none;fill:none;fill-opacity:1;fill-rule: evenodd"/>
<path id="Shape2DView_nwe0109"  d="M 3.35 0.87 L 3.275 0.8700000000000001 " stroke="#191919" stroke-width="0.35 px" style="stroke-width:0.35;stroke-miterlimit:4;stroke-dasharray:none;fill:none;fill-opacity:1;fill-rule: evenodd"/>
<path id="Shape2DView_nwe0110"  d="M 3.35 1.67 L 3.275 1.67 " stroke="#191919" stroke-width="0.35 px" style="stroke-width:0.35;stroke-miterlimit:4;stroke-dasharray:none;fill:none;fill-opacity:1;fill-rule: evenodd"/>
<path id="Shape2DView_nwe0111"  d="M 3.35 -0.87 L 3.275 -0.8699999999999999 " stroke="#191919" stroke-width="0.35 px" style="stroke-width:0.35;stroke-miterlimit:4;stroke-dasharray:none;fill:none;fill-opacity:1;fill-rule: evenodd"/>
<path id="Shape2DView_nwe0112"  d="M 3.35 -1.67 L 3.275 -1.67 " stroke="#191919" stroke-width="0.35 px" style="stroke-width:0.35;stroke-miterlimit:4;stroke-dasharray:none;fill:none;fill-opacity:1;fill-rule: evenodd"/>
<path id="Shape2DView_nwe0113"  d="M -3.35 -1.67 L -3.275 -1.67 " stroke="#191919" stroke-width="0.35 px" style="stroke-width:0.35;stroke-miterlimit:4;stroke-dasharray:none;fill:none;fill-opacity:1;fill-rule: evenodd"/>
<path id="Shape2DView_nwe0114"  d="M -3.35 1.67 L -3.275 1.67 " stroke="#191919" stroke-width="0.35 px" style="stroke-width:0.35;stroke-miterlimit:4;stroke-dasharray:none;fill:none;fill-opacity:1;fill-rule: evenodd"/>
<path id="Shape2DView_nwe0115"  d="M -3.35 -0.8700000000000001 L -3.275 -0.8700000000000001 " stroke="#191919" stroke-width="0.35 px" style="stroke-width:0.35;stroke-miterlimit:4;stroke-dasharray:none;fill:none;fill-opacity:1;fill-rule: evenodd"/>
<path id="Shape2DView_nwe0116"  d="M -3.35 0.8699999999999999 L -3.275 0.8699999999999999 " stroke="#191919" stroke-width="0.35 px" style="stroke-width:0.35;stroke-miterlimit:4;stroke-dasharray:none;fill:none;fill-opacity:1;fill-rule: evenodd"/>
<title>b'Shape2DView'</title>
</g>
<g id="Rectangle" transform="translate(4.998000,2.648000) scale(1,-1)">
<rect fill="#ff0000" id="origin" width="1" height="1" x="0" y="0" />
<title>b'Rectangle'</title>
</g>
</svg>