<?xml version="1.0"?>
<!DOCTYPE svg PUBLIC "-//W3C//DTD SVG 1.1//EN" "http://www.w3.org/Graphics/SVG/1.1/DTD/svg11.dtd">
<svg width="11.9748mm" height="4.8347999999999995mm" viewBox="0 0 11.9748 4.8347999999999995" xmlns="http://www.w3.org/2000/svg" version="1.1">
<g id="Shape2DView" transform="translate(5.987400,2.417400) scale(1,-1)">
<path id="Shape2DView_nwe0000"  d="M 5.87 1.495 L 3.8 1.4950000000000006 " stroke="#191919" stroke-width="0.35 px" style="stroke-width:0.35;stroke-miterlimit:4;stroke-dasharray:none;fill:none;fill-opacity:1;fill-rule: evenodd"/>
<path id="Shape2DView_nwe0001"  d="M 3.799999999999999 1.495 L 3.7888035523896684 1.495 L 3.7777479066043678 1.495 L 3.7669720938044824 1.495 L 3.7566116260882434 1.495 L 3.7467967923484657 1.495 L 3.737651019814126 1.495 L 3.7292893218813448 1.495 L 3.7218168517531964 1.495 L 3.7153275800771715 1.495 L 3.7099031132097577 1.495 L 3.7056116669691628 1.495 L 3.7025072087818174 1.495 L 3.7006287790106756 1.495 L 3.6999999999999997 1.495 " stroke="#191919" stroke-width="0.35 px" style="stroke-width:0.35;stroke-miterlimit:4;stroke-dasharray:none;fill:none;fill-opacity:1;fill-rule: evenodd"/>
<path id="Shape2DView_nwe0002"  d="M 3.7 1.495 L 3.6987424419786485 1.495 L 3.6949855824363644 1.495 L 3.688776666061673 1.495 L 3.6801937735804837 1.495 L 3.6693448398456567 1.495 L 3.656366296493606 1.495 L 3.6414213562373092 1.495 L 3.6246979603717464 1.495 L 3.6064064153030673 1.495 L 3.5867767478235115 1.495 L 3.566055812391033 1.495 L 3.544504186791263 1.495 L 3.5223928952206616 1.495 L 3.5 1.495 " stroke="#191919" stroke-width="0.35 px" style="stroke-width:0.35;stroke-miterlimit:4;stroke-dasharray:none;fill:none;fill-opacity:1;fill-rule: evenodd"/>
<path id="Shape2DView_nwe0003"  d="M 3.5 1.495 L 3.4 1.495 " stroke="#191919" stroke-width="0.35 px" style="stroke-width:0.35;stroke-miterlimit:4;stroke-dasharray:none;fill:none;fill-opacity:1;fill-rule: evenodd"/>
<path id="Shape2DView_nwe0004"  d="M 5.87 1.045 L 3.8 1.0450000000000004 " stroke="#191919" stroke-width="0.35 px" style="stroke-width:0.35;stroke-miterlimit:4;stroke-dasharray:none;fill:none;fill-opacity:1;fill-rule: evenodd"/>
<path id="Shape2DView_nwe0005"  d="M 3.799999999999999 1.045 L 3.7888035523896684 1.045 L 3.7777479066043678 1.045 L 3.7669720938044824 1.045 L 3.7566116260882434 1.045 L 3.7467967923484657 1.045 L 3.737651019814126 1.045 L 3.7292893218813448 1.045 L 3.7218168517531964 1.045 L 3.7153275800771715 1.045 L 3.7099031132097577 1.045 L 3.7056116669691628 1.045 L 3.7025072087818174 1.045 L 3.7006287790106756 1.045 L 3.6999999999999997 1.045 " stroke="#191919" stroke-width="0.35 px" style="stroke-width:0.35;stroke-miterlimit:4;stroke-dasharray:none;fill:none;fill-opacity:1;fill-rule: evenodd"/>
<path id="Shape2DView_nwe0006"  d="M 3.7 1.045 L 3.6987424419786485 1.045 L 3.6949855824363644 1.045 L 3.688776666061673 1.045 L 3.6801937735804837 1.045 L 3.6693448398456567 1.045 L 3.656366296493606 1.045 L 3.6414213562373092 1.045 L 3.6246979603717464 1.045 L 3.6064064153030673 1.045 L 3.5867767478235115 1.045 L 3.566055812391033 1.045 L 3.544504186791263 1.045 L 3.5223928952206616 1.045 L 3.5 1.045 " stroke="#191919" stroke-width="0.35 px" style="stroke-width:0.35;stroke-miterlimit:4;stroke-dasharray:none;fill:none;fill-opacity:1;fill-rule: evenodd"/>
<path id="Shape2DView_nwe0007"  d="M 3.5 1.045 L 3.4 1.045 " stroke="#191919" stroke-width="0.35 px" style="stroke-width:0.35;stroke-miterlimit:4;stroke-dasharray:none;fill:none;fill-opacity:1;fill-rule: evenodd"/>
<path id="Shape2DView_nwe0008"  d="M 3.4 2.125 L 3.4 1.495 " stroke="#191919" stroke-width="0.35 px" style="stroke-width:0.35;stroke-miterlimit:4;stroke-dasharray:none;fill:none;fill-opacity:1;fill-rule: evenodd"/>
<path id="Shape2DView_nwe0009"  d="M 3.325 1.495 L 3.3249999999999997 1.045 " stroke="#191919" stroke-width="0.35 px" style="stroke-width:0.35;stroke-miterlimit:4;stroke-dasharray:none;fill:none;fill-opacity:1;fill-rule: evenodd"/>
<path id="Shape2DView_nwe0010"  d="M 3.7 1.495 L 3.7 1.045 " stroke="#191919" stroke-width="0.35 px" style="stroke-width:0.35;stroke-miterlimit:4;stroke-dasharray:none;fill:none;fill-opacity:1;fill-rule: evenodd"/>
<path id="Shape2DView_nwe0012"  d="M 5.87 1.495 L 5.87 1.045 " stroke="#191919" stroke-width="0.35 px" style="stroke-width:0.35;stroke-miterlimit:4;stroke-dasharray:none;fill:none;fill-opacity:1;fill-rule: evenodd"/>
<path id="Shape2DView_nwe0013"  d="M 3.3999999999999995 1.045 L 3.3999999999999995 0.2250000000000001 " stroke="#191919" stroke-width="0.35 px" style="stroke-width:0.35;stroke-miterlimit:4;stroke-dasharray:none;fill:none;fill-opacity:1;fill-rule: evenodd"/>
<path id="Shape2DView_nwe0014"  d="M 3.399999999999999 -1.495 L 3.399999999999999 -2.125 " stroke="#191919" stroke-width="0.35 px" style="stroke-width:0.35;stroke-miterlimit:4;stroke-dasharray:none;fill:none;fill-opacity:1;fill-rule: evenodd"/>
<path id="Shape2DView_nwe0015"  d="M 3.3999999999999995 -0.2250000000000001 L 3.399999999999999 -1.045 " stroke="#191919" stroke-width="0.35 px" style="stroke-width:0.35;stroke-miterlimit:4;stroke-dasharray:none;fill:none;fill-opacity:1;fill-rule: evenodd"/>
<path id="Shape2DView_nwe0016"  d="M 3.225 2.3 L 3.4 2.125 " stroke="#191919" stroke-width="0.35 px" style="stroke-width:0.35;stroke-miterlimit:4;stroke-dasharray:none;fill:none;fill-opacity:1;fill-rule: evenodd"/>
<path id="Shape2DView_nwe0017"  d="M 3.4 2.125 L 3.325 2.0875 " stroke="#191919" stroke-width="0.35 px" style="stroke-width:0.35;stroke-miterlimit:4;stroke-dasharray:none;fill:none;fill-opacity:1;fill-rule: evenodd"/>
<path id="Shape2DView_nwe0018"  d="M 3.325 2.0875 L 3.325 1.495 " stroke="#191919" stroke-width="0.35 px" style="stroke-width:0.35;stroke-miterlimit:4;stroke-dasharray:none;fill:none;fill-opacity:1;fill-rule: evenodd"/>
<path id="Shape2DView_nwe0019"  d="M 3.3249999999999997 1.045 L 3.3249999999999997 0.2250000000000001 " stroke="#191919" stroke-width="0.35 px" style="stroke-width:0.35;stroke-miterlimit:4;stroke-dasharray:none;fill:none;fill-opacity:1;fill-rule: evenodd"/>
<path id="Shape2DView_nwe0020"  d="M 3.3249999999999997 0.2250000000000001 L 3.3249999999999997 -0.2250000000000001 " stroke="#191919" stroke-width="0.35 px" style="stroke-width:0.35;stroke-miterlimit:4;stroke-dasharray:none;fill:none;fill-opacity:1;fill-rule: evenodd"/>
<path id="Shape2DView_nwe0021"  d="M 3.3249999999999997 -0.2250000000000001 L 3.3249999999999993 -1.045 " stroke="#191919" stroke-width="0.35 px" style="stroke-width:0.35;stroke-miterlimit:4;stroke-dasharray:none;fill:none;fill-opacity:1;fill-rule: evenodd"/>
<path id="Shape2DView_nwe0022"  d="M 3.3249999999999993 -1.045 L 3.3249999999999993 -1.495 " stroke="#191919" stroke-width="0.35 px" style="stroke-width:0.35;stroke-miterlimit:4;stroke-dasharray:none;fill:none;fill-opacity:1;fill-rule: evenodd"/>
<path id="Shape2DView_nwe0023"  d="M 3.3249999999999993 -1.495 L 3.3249999999999993 -2.0875 " stroke="#191919" stroke-width="0.35 px" style="stroke-width:0.35;stroke-miterlimit:4;stroke-dasharray:none;fill:none;fill-opacity:1;fill-rule: evenodd"/>
<path id="Shape2DView_nwe0024"  d="M 3.325 -2.0875 L 3.214130891773 -2.032065445886 " stroke="#191919" stroke-width="0.35 px" style="stroke-width:0.35;stroke-miterlimit:4;stroke-dasharray:none;fill:none;fill-opacity:1;fill-rule: evenodd"/>
<path id="Shape2DView_nwe0025"  d="M 3.214130891773 2.032065445886 L 3.214130891772999 -2.032065445886 " stroke="#191919" stroke-width="0.35 px" style="stroke-width:0.35;stroke-miterlimit:4;stroke-dasharray:none;fill:none;fill-opacity:1;fill-rule: evenodd"/>
<path id="Shape2DView_nwe0026"  d="M 3.325 2.0875 L 3.214130891773 2.032065445886 " stroke="#191919" stroke-width="0.35 px" style="stroke-width:0.35;stroke-miterlimit:4;stroke-dasharray:none;fill:none;fill-opacity:1;fill-rule: evenodd"/>
<path id="Shape2DView_nwe0027"  d="M 5.87 0.225 L 3.8 0.22500000000000048 " stroke="#191919" stroke-width="0.35 px" style="stroke-width:0.35;stroke-miterlimit:4;stroke-dasharray:none;fill:none;fill-opacity:1;fill-rule: evenodd"/>
<path id="Shape2DView_nwe0028"  d="M 3.799999999999999 0.225 L 3.7888035523896684 0.225 L 3.7777479066043678 0.225 L 3.7669720938044824 0.225 L 3.7566116260882434 0.225 L 3.7467967923484657 0.225 L 3.737651019814126 0.225 L 3.7292893218813448 0.22500000000000003 L 3.7218168517531964 0.22500000000000003 L 3.7153275800771715 0.22500000000000003 L 3.7099031132097577 0.22500000000000003 L 3.7056116669691628 0.22500000000000003 L 3.7025072087818174 0.22500000000000003 L 3.7006287790106756 0.22500000000000003 L 3.6999999999999997 0.22500000000000003 " stroke="#191919" stroke-width="0.35 px" style="stroke-width:0.35;stroke-miterlimit:4;stroke-dasharray:none;fill:none;fill-opacity:1;fill-rule: evenodd"/>
<path id="Shape2DView_nwe0029"  d="M 3.7 0.22499999999999995 L 3.6987424419786485 0.22499999999999995 L 3.6949855824363644 0.22499999999999995 L 3.688776666061673 0.22499999999999995 L 3.6801937735804837 0.22499999999999998 L 3.6693448398456567 0.22499999999999998 L 3.656366296493606 0.22499999999999998 L 3.6414213562373092 0.22499999999999998 L 3.6246979603717464 0.22499999999999998 L 3.6064064153030673 0.22499999999999998 L 3.5867767478235115 0.22499999999999998 L 3.566055812391033 0.22499999999999998 L 3.544504186791263 0.225 L 3.5223928952206616 0.225 L 3.5 0.225 " stroke="#191919" stroke-width="0.35 px" style="stroke-width:0.35;stroke-miterlimit:4;stroke-dasharray:none;fill:none;fill-opacity:1;fill-rule: evenodd"/>
<path id="Shape2DView_nwe0030"  d="M 3.5 0.225 L 3.4 0.22500000000000003 " stroke="#191919" stroke-width="0.35 px" style="stroke-width:0.35;stroke-miterlimit:4;stroke-dasharray:none;fill:none;fill-opacity:1;fill-rule: evenodd"/>
<path id="Shape2DView_nwe0031"  d="M 3.4 -2.125 L 3.225 -2.3 " stroke="#191919" stroke-width="0.35 px" style="stroke-width:0.35;stroke-miterlimit:4;stroke-dasharray:none;fill:none;fill-opacity:1;fill-rule: evenodd"/>
<path id="Shape2DView_nwe0032"  d="M 5.87 -1.495 L 3.8 -1.4949999999999997 " stroke="#191919" stroke-width="0.35 px" style="stroke-width:0.35;stroke-miterlimit:4;stroke-dasharray:none;fill:none;fill-opacity:1;fill-rule: evenodd"/>
<path id="Shape2DView_nwe0033"  d="M 3.799999999999999 -1.495 L 3.7888035523896684 -1.495 L 3.7777479066043678 -1.495 L 3.7669720938044824 -1.495 L 3.7566116260882434 -1.495 L 3.7467967923484657 -1.495 L 3.737651019814126 -1.495 L 3.7292893218813448 -1.495 L 3.7218168517531964 -1.495 L 3.7153275800771715 -1.495 L 3.7099031132097577 -1.495 L 3.7056116669691628 -1.495 L 3.7025072087818174 -1.495 L 3.7006287790106756 -1.495 L 3.6999999999999997 -1.495 " stroke="#191919" stroke-width="0.35 px" style="stroke-width:0.35;stroke-miterlimit:4;stroke-dasharray:none;fill:none;fill-opacity:1;fill-rule: evenodd"/>
<path id="Shape2DView_nwe0034"  d="M 3.7 -1.495 L 3.6987424419786485 -1.495 L 3.6949855824363644 -1.495 L 3.688776666061673 -1.495 L 3.6801937735804837 -1.495 L 3.6693448398456567 -1.495 L 3.656366296493606 -1.495 L 3.6414213562373092 -1.495 L 3.6246979603717464 -1.495 L 3.6064064153030673 -1.495 L 3.5867767478235115 -1.495 L 3.566055812391033 -1.495 L 3.544504186791263 -1.495 L 3.5223928952206616 -1.495 L 3.5 -1.495 " stroke="#191919" stroke-width="0.35 px" style="stroke-width:0.35;stroke-miterlimit:4;stroke-dasharray:none;fill:none;fill-opacity:1;fill-rule: evenodd"/>
<path id="Shape2DView_nwe0035"  d="M 3.5 -1.495 L 3.4 -1.495 " stroke="#191919" stroke-width="0.35 px" style="stroke-width:0.35;stroke-miterlimit:4;stroke-dasharray:none;fill:none;fill-opacity:1;fill-rule: evenodd"/>
<path id="Shape2DView_nwe0036"  d="M 3.4 -2.125 L 3.325 -2.0875 " stroke="#191919" stroke-width="0.35 px" style="stroke-width:0.35;stroke-miterlimit:4;stroke-dasharray:none;fill:none;fill-opacity:1;fill-rule: evenodd"/>
<path id="Shape2DView_nwe0037"  d="M 5.87 -1.045 L 3.8 -1.0449999999999995 " stroke="#191919" stroke-width="0.35 px" style="stroke-width:0.35;stroke-miterlimit:4;stroke-dasharray:none;fill:none;fill-opacity:1;fill-rule: evenodd"/>
<path id="Shape2DView_nwe0038"  d="M 3.799999999999999 -1.045 L 3.7888035523896684 -1.045 L 3.7777479066043678 -1.045 L 3.7669720938044824 -1.045 L 3.7566116260882434 -1.045 L 3.7467967923484657 -1.045 L 3.737651019814126 -1.045 L 3.7292893218813448 -1.045 L 3.7218168517531964 -1.045 L 3.7153275800771715 -1.045 L 3.7099031132097577 -1.045 L 3.7056116669691628 -1.045 L 3.7025072087818174 -1.045 L 3.7006287790106756 -1.045 L 3.6999999999999997 -1.045 " stroke="#191919" stroke-width="0.35 px" style="stroke-width:0.35;stroke-miterlimit:4;stroke-dasharray:none;fill:none;fill-opacity:1;fill-rule: evenodd"/>
<path id="Shape2DView_nwe0039"  d="M 3.7 -1.045 L 3.6987424419786485 -1.045 L 3.6949855824363644 -1.045 L 3.688776666061673 -1.045 L 3.6801937735804837 -1.045 L 3.6693448398456567 -1.045 L 3.656366296493606 -1.045 L 3.6414213562373092 -1.045 L 3.6246979603717464 -1.045 L 3.6064064153030673 -1.045 L 3.5867767478235115 -1.045 L 3.566055812391033 -1.045 L 3.544504186791263 -1.045 L 3.5223928952206616 -1.045 L 3.5 -1.045 " stroke="#191919" stroke-width="0.35 px" style="stroke-width:0.35;stroke-miterlimit:4;stroke-dasharray:none;fill:none;fill-opacity:1;fill-rule: evenodd"/>
<path id="Shape2DView_nwe0040"  d="M 3.5 -1.045 L 3.4 -1.045 " stroke="#191919" stroke-width="0.35 px" style="stroke-width:0.35;stroke-miterlimit:4;stroke-dasharray:none;fill:none;fill-opacity:1;fill-rule: evenodd"/>
<path id="Shape2DView_nwe0041"  d="M 5.87 -0.225 L 3.8 -0.22499999999999953 " stroke="#191919" stroke-width="0.35 px" style="stroke-width:0.35;stroke-miterlimit:4;stroke-dasharray:none;fill:none;fill-opacity:1;fill-rule: evenodd"/>
<path id="Shape2DView_nwe0042"  d="M 3.799999999999999 -0.225 L 3.7888035523896684 -0.225 L 3.7777479066043678 -0.225 L 3.7669720938044824 -0.225 L 3.7566116260882434 -0.225 L 3.7467967923484657 -0.225 L 3.737651019814126 -0.225 L 3.7292893218813448 -0.22499999999999998 L 3.7218168517531964 -0.22499999999999998 L 3.7153275800771715 -0.22499999999999998 L 3.7099031132097577 -0.22499999999999998 L 3.7056116669691628 -0.22499999999999998 L 3.7025072087818174 -0.22499999999999998 L 3.7006287790106756 -0.22499999999999998 L 3.6999999999999997 -0.22499999999999998 " stroke="#191919" stroke-width="0.35 px" style="stroke-width:0.35;stroke-miterlimit:4;stroke-dasharray:none;fill:none;fill-opacity:1;fill-rule: evenodd"/>
<path id="Shape2DView_nwe0043"  d="M 3.7 -0.22500000000000006 L 3.6987424419786485 -0.22500000000000006 L 3.6949855824363644 -0.22500000000000006 L 3.688776666061673 -0.22500000000000006 L 3.6801937735804837 -0.22500000000000003 L 3.6693448398456567 -0.22500000000000003 L 3.656366296493606 -0.22500000000000003 L 3.6414213562373092 -0.22500000000000003 L 3.6246979603717464 -0.22500000000000003 L 3.6064064153030673 -0.22500000000000003 L 3.5867767478235115 -0.22500000000000003 L 3.566055812391033 -0.22500000000000003 L 3.544504186791263 -0.225 L 3.5223928952206616 -0.225 L 3.5 -0.225 " stroke="#191919" stroke-width="0.35 px" style="stroke-width:0.35;stroke-miterlimit:4;stroke-dasharray:none;fill:none;fill-opacity:1;fill-rule: evenodd"/>
<path id="Shape2DView_nwe0044"  d="M 3.5 -0.225 L 3.4 -0.22499999999999998 " stroke="#191919" stroke-width="0.35 px" style="stroke-width:0.35;stroke-miterlimit:4;stroke-dasharray:none;fill:none;fill-opacity:1;fill-rule: evenodd"/>
<path id="Shape2DView_nwe0045"  d="M 3.1875 2.225 L 3.325 2.0875 " stroke="#191919" stroke-width="0.35 px" style="stroke-width:0.35;stroke-miterlimit:4;stroke-dasharray:none;fill:none;fill-opacity:1;fill-rule: evenodd"/>
<path id="Shape2DView_nwe0046"  d="M 3.225 2.3 L 3.1875 2.225 " stroke="#191919" stroke-width="0.35 px" style="stroke-width:0.35;stroke-miterlimit:4;stroke-dasharray:none;fill:none;fill-opacity:1;fill-rule: evenodd"/>
<path id="Shape2DView_nwe0047"  d="M -3.225 2.3 L 3.225 2.2999999999999985 " stroke="#191919" stroke-width="0.35 px" style="stroke-width:0.35;stroke-miterlimit:4;stroke-dasharray:none;fill:none;fill-opacity:1;fill-rule: evenodd"/>
<path id="Shape2DView_nwe0048"  d="M 3.132065445886 2.114130891773 L 3.2141308917730003 2.032065445886 " stroke="#191919" stroke-width="0.35 px" style="stroke-width:0.35;stroke-miterlimit:4;stroke-dasharray:none;fill:none;fill-opacity:1;fill-rule: evenodd"/>
<path id="Shape2DView_nwe0049"  d="M 3.1875 2.225 L 3.132065445886 2.114130891773 " stroke="#191919" stroke-width="0.35 px" style="stroke-width:0.35;stroke-miterlimit:4;stroke-dasharray:none;fill:none;fill-opacity:1;fill-rule: evenodd"/>
<path id="Shape2DView_nwe0050"  d="M -3.132065445886 2.114130891773 L 3.132065445886 2.114130891772999 " stroke="#191919" stroke-width="0.35 px" style="stroke-width:0.35;stroke-miterlimit:4;stroke-dasharray:none;fill:none;fill-opacity:1;fill-rule: evenodd"/>
<path id="Shape2DView_nwe0051"  d="M 3.214130891773 -2.032065445886 L 3.1320654458859996 -2.114130891773 " stroke="#191919" stroke-width="0.35 px" style="stroke-width:0.35;stroke-miterlimit:4;stroke-dasharray:none;fill:none;fill-opacity:1;fill-rule: evenodd"/>
<path id="Shape2DView_nwe0052"  d="M 3.132065445886 -2.114130891773 L -3.132065445886 -2.114130891772999 " stroke="#191919" stroke-width="0.35 px" style="stroke-width:0.35;stroke-miterlimit:4;stroke-dasharray:none;fill:none;fill-opacity:1;fill-rule: evenodd"/>
<path id="Shape2DView_nwe0053"  d="M -3.132065445886 -2.114130891773 L -3.2141308917730003 -2.032065445886 " stroke="#191919" stroke-width="0.35 px" style="stroke-width:0.35;stroke-miterlimit:4;stroke-dasharray:none;fill:none;fill-opacity:1;fill-rule: evenodd"/>
<path id="Shape2DView_nwe0054"  d="M -3.214130891773 -2.032065445886 L -3.214130891772999 2.032065445886 " stroke="#191919" stroke-width="0.35 px" style="stroke-width:0.35;stroke-miterlimit:4;stroke-dasharray:none;fill:none;fill-opacity:1;fill-rule: evenodd"/>
<path id="Shape2DView_nwe0055"  d="M -3.214130891773 2.032065445886 L -3.1320654458859996 2.114130891773 " stroke="#191919" stroke-width="0.35 px" style="stroke-width:0.35;stroke-miterlimit:4;stroke-dasharray:none;fill:none;fill-opacity:1;fill-rule: evenodd"/>
<circle cx="-2.314130891773" cy="1.214130891773" r="0.2" stroke="#191919" stroke-width="0.35 px" style="stroke-width:0.35;stroke-miterlimit:4;stroke-dasharray:none;fill:none"/>
<path id="Shape2DView_nwe0057"  d="M 3.325 -2.0875 L 3.1875 -2.225 " stroke="#191919" stroke-width="0.35 px" style="stroke-width:0.35;stroke-miterlimit:4;stroke-dasharray:none;fill:none;fill-opacity:1;fill-rule: evenodd"/>
<path id="Shape2DView_nwe0058"  d="M 3.1875 -2.225 L 3.132065445886 -2.114130891773 " stroke="#191919" stroke-width="0.35 px" style="stroke-width:0.35;stroke-miterlimit:4;stroke-dasharray:none;fill:none;fill-opacity:1;fill-rule: evenodd"/>
<path id="Shape2DView_nwe0059"  d="M 3.7 0.225 L 3.7 -0.225 " stroke="#191919" stroke-width="0.35 px" style="stroke-width:0.35;stroke-miterlimit:4;stroke-dasharray:none;fill:none;fill-opacity:1;fill-rule: evenodd"/>
<path id="Shape2DView_nwe0060"  d="M 5.87 0.225 L 5.87 -0.225 " stroke="#191919" stroke-width="0.35 px" style="stroke-width:0.35;stroke-miterlimit:4;stroke-dasharray:none;fill:none;fill-opacity:1;fill-rule: evenodd"/>
<path id="Shape2DView_nwe0061"  d="M 3.225 -2.3 L -3.225 -2.2999999999999985 " stroke="#191919" stroke-width="0.35 px" style="stroke-width:0.35;stroke-miterlimit:4;stroke-dasharray:none;fill:none;fill-opacity:1;fill-rule: evenodd"/>
<path id="Shape2DView_nwe0062"  d="M -3.225 -2.3 L -3.4 -2.125 " stroke="#191919" stroke-width="0.35 px" style="stroke-width:0.35;stroke-miterlimit:4;stroke-dasharray:none;fill:none;fill-opacity:1;fill-rule: evenodd"/>
<path id="Shape2DView_nwe0063"  d="M -3.4 -2.125 L -3.4 -1.495 " stroke="#191919" stroke-width="0.35 px" style="stroke-width:0.35;stroke-miterlimit:4;stroke-dasharray:none;fill:none;fill-opacity:1;fill-rule: evenodd"/>
<path id="Shape2DView_nwe0064"  d="M -3.399999999999999 1.495 L -3.399999999999999 2.125 " stroke="#191919" stroke-width="0.35 px" style="stroke-width:0.35;stroke-miterlimit:4;stroke-dasharray:none;fill:none;fill-opacity:1;fill-rule: evenodd"/>
<path id="Shape2DView_nwe0065"  d="M -3.3999999999999995 -1.045 L -3.3999999999999995 -0.2250000000000001 " stroke="#191919" stroke-width="0.35 px" style="stroke-width:0.35;stroke-miterlimit:4;stroke-dasharray:none;fill:none;fill-opacity:1;fill-rule: evenodd"/>
<path id="Shape2DView_nwe0066"  d="M -3.3999999999999995 0.2250000000000001 L -3.399999999999999 1.045 " stroke="#191919" stroke-width="0.35 px" style="stroke-width:0.35;stroke-miterlimit:4;stroke-dasharray:none;fill:none;fill-opacity:1;fill-rule: evenodd"/>
<path id="Shape2DView_nwe0067"  d="M -3.4 2.125 L -3.225 2.3 " stroke="#191919" stroke-width="0.35 px" style="stroke-width:0.35;stroke-miterlimit:4;stroke-dasharray:none;fill:none;fill-opacity:1;fill-rule: evenodd"/>
<path id="Shape2DView_nwe0068"  d="M 3.225 -2.3 L 3.1875 -2.225 " stroke="#191919" stroke-width="0.35 px" style="stroke-width:0.35;stroke-miterlimit:4;stroke-dasharray:none;fill:none;fill-opacity:1;fill-rule: evenodd"/>
<path id="Shape2DView_nwe0069"  d="M 3.7 -1.045 L 3.7 -1.495 " stroke="#191919" stroke-width="0.35 px" style="stroke-width:0.35;stroke-miterlimit:4;stroke-dasharray:none;fill:none;fill-opacity:1;fill-rule: evenodd"/>
<path id="Shape2DView_nwe0071"  d="M 5.87 -1.045 L 5.87 -1.495 " stroke="#191919" stroke-width="0.35 px" style="stroke-width:0.35;stroke-miterlimit:4;stroke-dasharray:none;fill:none;fill-opacity:1;fill-rule: evenodd"/>
<path id="Shape2DView_nwe0072"  d="M -3.1875 2.225 L 3.1875 2.2249999999999988 " stroke="#191919" stroke-width="0.35 px" style="stroke-width:0.35;stroke-miterlimit:4;stroke-dasharray:none;fill:none;fill-opacity:1;fill-rule: evenodd"/>
<path id="Shape2DView_nwe0073"  d="M -3.225 2.3 L -3.1875 2.225 " stroke="#191919" stroke-width="0.35 px" style="stroke-width:0.35;stroke-miterlimit:4;stroke-dasharray:none;fill:none;fill-opacity:1;fill-rule: evenodd"/>
<path id="Shape2DView_nwe0074"  d="M -3.1875 2.225 L -3.132065445886 2.114130891773 " stroke="#191919" stroke-width="0.35 px" style="stroke-width:0.35;stroke-miterlimit:4;stroke-dasharray:none;fill:none;fill-opacity:1;fill-rule: evenodd"/>
<path id="Shape2DView_nwe0075"  d="M -3.325 2.0875 L -3.1875 2.225 " stroke="#191919" stroke-width="0.35 px" style="stroke-width:0.35;stroke-miterlimit:4;stroke-dasharray:none;fill:none;fill-opacity:1;fill-rule: evenodd"/>
<path id="Shape2DView_nwe0076"  d="M -3.325 2.0875 L -3.214130891773 2.032065445886 " stroke="#191919" stroke-width="0.35 px" style="stroke-width:0.35;stroke-miterlimit:4;stroke-dasharray:none;fill:none;fill-opacity:1;fill-rule: evenodd"/>
<path id="Shape2DView_nwe0077"  d="M -3.325 -2.0875 L -3.325 -1.495 " stroke="#191919" stroke-width="0.35 px" style="stroke-width:0.35;stroke-miterlimit:4;stroke-dasharray:none;fill:none;fill-opacity:1;fill-rule: evenodd"/>
<path id="Shape2DView_nwe0078"  d="M -3.325 -1.495 L -3.3249999999999997 -1.045 " stroke="#191919" stroke-width="0.35 px" style="stroke-width:0.35;stroke-miterlimit:4;stroke-dasharray:none;fill:none;fill-opacity:1;fill-rule: evenodd"/>
<path id="Shape2DView_nwe0079"  d="M -3.3249999999999997 -1.045 L -3.3249999999999997 -0.2250000000000001 " stroke="#191919" stroke-width="0.35 px" style="stroke-width:0.35;stroke-miterlimit:4;stroke-dasharray:none;fill:none;fill-opacity:1;fill-rule: evenodd"/>
<path id="Shape2DView_nwe0080"  d="M -3.3249999999999997 -0.2250000000000001 L -3.3249999999999997 0.2250000000000001 " stroke="#191919" stroke-width="0.35 px" style="stroke-width:0.35;stroke-miterlimit:4;stroke-dasharray:none;fill:none;fill-opacity:1;fill-rule: evenodd"/>
<path id="Shape2DView_nwe0081"  d="M -3.3249999999999997 0.2250000000000001 L -3.3249999999999993 1.045 " stroke="#191919" stroke-width="0.35 px" style="stroke-width:0.35;stroke-miterlimit:4;stroke-dasharray:none;fill:none;fill-opacity:1;fill-rule: evenodd"/>
<path id="Shape2DView_nwe0082"  d="M -3.3249999999999993 1.045 L -3.3249999999999993 1.495 " stroke="#191919" stroke-width="0.35 px" style="stroke-width:0.35;stroke-miterlimit:4;stroke-dasharray:none;fill:none;fill-opacity:1;fill-rule: evenodd"/>
<path id="Shape2DView_nwe0083"  d="M -3.3249999999999993 1.495 L -3.3249999999999993 2.0875 " stroke="#191919" stroke-width="0.35 px" style="stroke-width:0.35;stroke-miterlimit:4;stroke-dasharray:none;fill:none;fill-opacity:1;fill-rule: evenodd"/>
<path id="Shape2DView_nwe0084"  d="M -3.325 -2.0875 L -3.214130891773 -2.032065445886 " stroke="#191919" stroke-width="0.35 px" style="stroke-width:0.35;stroke-miterlimit:4;stroke-dasharray:none;fill:none;fill-opacity:1;fill-rule: evenodd"/>
<path id="Shape2DView_nwe0085"  d="M -3.1875 -2.225 L -3.325 -2.0875 " stroke="#191919" stroke-width="0.35 px" style="stroke-width:0.35;stroke-miterlimit:4;stroke-dasharray:none;fill:none;fill-opacity:1;fill-rule: evenodd"/>
<path id="Shape2DView_nwe0086"  d="M -3.1875 -2.225 L -3.132065445886 -2.114130891773 " stroke="#191919" stroke-width="0.35 px" style="stroke-width:0.35;stroke-miterlimit:4;stroke-dasharray:none;fill:none;fill-opacity:1;fill-rule: evenodd"/>
<path id="Shape2DView_nwe0087"  d="M 3.1875 -2.225 L -3.1875 -2.2249999999999988 " stroke="#191919" stroke-width="0.35 px" style="stroke-width:0.35;stroke-miterlimit:4;stroke-dasharray:none;fill:none;fill-opacity:1;fill-rule: evenodd"/>
<path id="Shape2DView_nwe0088"  d="M -3.225 -2.3 L -3.1875 -2.225 " stroke="#191919" stroke-width="0.35 px" style="stroke-width:0.35;stroke-miterlimit:4;stroke-dasharray:none;fill:none;fill-opacity:1;fill-rule: evenodd"/>
<path id="Shape2DView_nwe0089"  d="M -3.4 -2.125 L -3.325 -2.0875 " stroke="#191919" stroke-width="0.35 px" style="stroke-width:0.35;stroke-miterlimit:4;stroke-dasharray:none;fill:none;fill-opacity:1;fill-rule: evenodd"/>
<path id="Shape2DView_nwe0090"  d="M -5.87 -1.495 L -3.8 -1.4950000000000008 " stroke="#191919" stroke-width="0.35 px" style="stroke-width:0.35;stroke-miterlimit:4;stroke-dasharray:none;fill:none;fill-opacity:1;fill-rule: evenodd"/>
<path id="Shape2DView_nwe0091"  d="M -3.799999999999999 -1.495 L -3.7888035523896684 -1.495 L -3.7777479066043678 -1.495 L -3.7669720938044824 -1.495 L -3.7566116260882434 -1.495 L -3.7467967923484657 -1.495 L -3.737651019814126 -1.495 L -3.7292893218813448 -1.495 L -3.7218168517531964 -1.495 L -3.7153275800771715 -1.495 L -3.7099031132097577 -1.495 L -3.7056116669691628 -1.495 L -3.7025072087818174 -1.495 L -3.7006287790106756 -1.495 L -3.6999999999999997 -1.495 " stroke="#191919" stroke-width="0.35 px" style="stroke-width:0.35;stroke-miterlimit:4;stroke-dasharray:none;fill:none;fill-opacity:1;fill-rule: evenodd"/>
<path id="Shape2DView_nwe0092"  d="M -3.7 -1.495 L -3.6987424419786485 -1.495 L -3.6949855824363644 -1.495 L -3.688776666061673 -1.495 L -3.6801937735804837 -1.495 L -3.6693448398456567 -1.495 L -3.656366296493606 -1.495 L -3.6414213562373092 -1.495 L -3.6246979603717464 -1.495 L -3.6064064153030673 -1.495 L -3.5867767478235115 -1.495 L -3.566055812391033 -1.495 L -3.544504186791263 -1.495 L -3.5223928952206616 -1.495 L -3.5 -1.495 " stroke="#191919" stroke-width="0.35 px" style="stroke-width:0.35;stroke-miterlimit:4;stroke-dasharray:none;fill:none;fill-opacity:1;fill-rule: evenodd"/>
<path id="Shape2DView_nwe0093"  d="M -3.5 -1.495 L -3.4 -1.495 " stroke="#191919" stroke-width="0.35 px" style="stroke-width:0.35;stroke-miterlimit:4;stroke-dasharray:none;fill:none;fill-opacity:1;fill-rule: evenodd"/>
<path id="Shape2DView_nwe0094"  d="M -5.87 1.495 L -3.8 1.4949999999999994 " stroke="#191919" stroke-width="0.35 px" style="stroke-width:0.35;stroke-miterlimit:4;stroke-dasharray:none;fill:none;fill-opacity:1;fill-rule: evenodd"/>
<path id="Shape2DView_nwe0095"  d="M -3.799999999999999 1.495 L -3.7888035523896684 1.495 L -3.7777479066043678 1.495 L -3.7669720938044824 1.495 L -3.7566116260882434 1.495 L -3.7467967923484657 1.495 L -3.737651019814126 1.495 L -3.7292893218813448 1.495 L -3.7218168517531964 1.495 L -3.7153275800771715 1.495 L -3.7099031132097577 1.495 L -3.7056116669691628 1.495 L -3.7025072087818174 1.495 L -3.7006287790106756 1.495 L -3.6999999999999997 1.495 " stroke="#191919" stroke-width="0.35 px" style="stroke-width:0.35;stroke-miterlimit:4;stroke-dasharray:none;fill:none;fill-opacity:1;fill-rule: evenodd"/>
<path id="Shape2DView_nwe0096"  d="M -3.7 1.495 L -3.6987424419786485 1.495 L -3.6949855824363644 1.495 L -3.688776666061673 1.495 L -3.6801937735804837 1.495 L -3.6693448398456567 1.495 L -3.656366296493606 1.495 L -3.6414213562373092 1.495 L -3.6246979603717464 1.495 L -3.6064064153030673 1.495 L -3.5867767478235115 1.495 L -3.566055812391033 1.495 L -3.544504186791263 1.495 L -3.5223928952206616 1.495 L -3.5 1.495 " stroke="#191919" stroke-width="0.35 px" style="stroke-width:0.35;stroke-miterlimit:4;stroke-dasharray:none;fill:none;fill-opacity:1;fill-rule: evenodd"/>
<path id="Shape2DView_nwe0097"  d="M -3.5 1.495 L -3.4 1.495 " stroke="#191919" stroke-width="0.35 px" style="stroke-width:0.35;stroke-miterlimit:4;stroke-dasharray:none;fill:none;fill-opacity:1;fill-rule: evenodd"/>
<path id="Shape2DView_nwe0098"  d="M -3.4 2.125 L -3.325 2.0875 " stroke="#191919" stroke-width="0.35 px" style="stroke-width:0.35;stroke-miterlimit:4;stroke-dasharray:none;fill:none;fill-opacity:1;fill-rule: evenodd"/>
<path id="Shape2DView_nwe0099"  d="M -5.87 -1.045 L -3.8 -1.0450000000000006 " stroke="#191919" stroke-width="0.35 px" style="stroke-width:0.35;stroke-miterlimit:4;stroke-dasharray:none;fill:none;fill-opacity:1;fill-rule: evenodd"/>
<path id="Shape2DView_nwe0100"  d="M -3.799999999999999 -1.045 L -3.7888035523896684 -1.045 L -3.7777479066043678 -1.045 L -3.7669720938044824 -1.045 L -3.7566116260882434 -1.045 L -3.7467967923484657 -1.045 L -3.737651019814126 -1.045 L -3.7292893218813448 -1.045 L -3.7218168517531964 -1.045 L -3.7153275800771715 -1.045 L -3.7099031132097577 -1.045 L -3.7056116669691628 -1.045 L -3.7025072087818174 -1.045 L -3.7006287790106756 -1.045 L -3.6999999999999997 -1.045 " stroke="#191919" stroke-width="0.35 px" style="stroke-width:0.35;stroke-miterlimit:4;stroke-dasharray:none;fill:none;fill-opacity:1;fill-rule: evenodd"/>
<path id="Shape2DView_nwe0101"  d="M -3.7 -1.045 L -3.6987424419786485 -1.045 L -3.6949855824363644 -1.045 L -3.688776666061673 -1.045 L -3.6801937735804837 -1.045 L -3.6693448398456567 -1.045 L -3.656366296493606 -1.045 L -3.6414213562373092 -1.045 L -3.6246979603717464 -1.045 L -3.6064064153030673 -1.045 L -3.5867767478235115 -1.045 L -3.566055812391033 -1.045 L -3.544504186791263 -1.045 L -3.5223928952206616 -1.045 L -3.5 -1.045 " stroke="#191919" stroke-width="0.35 px" style="stroke-width:0.35;stroke-miterlimit:4;stroke-dasharray:none;fill:none;fill-opacity:1;fill-rule: evenodd"/>
<path id="Shape2DView_nwe0102"  d="M -3.5 -1.045 L -3.4 -1.045 " stroke="#191919" stroke-width="0.35 px" style="stroke-width:0.35;stroke-miterlimit:4;stroke-dasharray:none;fill:none;fill-opacity:1;fill-rule: evenodd"/>
<path id="Shape2DView_nwe0103"  d="M -5.87 1.045 L -3.8 1.0449999999999993 " stroke="#191919" stroke-width="0.35 px" style="stroke-width:0.35;stroke-miterlimit:4;stroke-dasharray:none;fill:none;fill-opacity:1;fill-rule: evenodd"/>
<path id="Shape2DView_nwe0104"  d="M -3.799999999999999 1.045 L -3.7888035523896684 1.045 L -3.7777479066043678 1.045 L -3.7669720938044824 1.045 L -3.7566116260882434 1.045 L -3.7467967923484657 1.045 L -3.737651019814126 1.045 L -3.7292893218813448 1.045 L -3.7218168517531964 1.045 L -3.7153275800771715 1.045 L -3.7099031132097577 1.045 L -3.7056116669691628 1.045 L -3.7025072087818174 1.045 L -3.7006287790106756 1.045 L -3.6999999999999997 1.045 " stroke="#191919" stroke-width="0.35 px" style="stroke-width:0.35;stroke-miterlimit:4;stroke-dasharray:none;fill:none;fill-opacity:1;fill-rule: evenodd"/>
<path id="Shape2DView_nwe0105"  d="M -3.7 1.045 L -3.6987424419786485 1.045 L -3.6949855824363644 1.045 L -3.688776666061673 1.045 L -3.6801937735804837 1.045 L -3.6693448398456567 1.045 L -3.656366296493606 1.045 L -3.6414213562373092 1.045 L -3.6246979603717464 1.045 L -3.6064064153030673 1.045 L -3.5867767478235115 1.045 L -3.566055812391033 1.045 L -3.544504186791263 1.045 L -3.5223928952206616 1.045 L -3.5 1.045 " stroke="#191919" stroke-width="0.35 px" style="stroke-width:0.35;stroke-miterlimit:4;stroke-dasharray:none;fill:none;fill-opacity:1;fill-rule: evenodd"/>
<path id="Shape2DView_nwe0106"  d="M -3.5 1.045 L -3.4 1.045 " stroke="#191919" stroke-width="0.35 px" style="stroke-width:0.35;stroke-miterlimit:4;stroke-dasharray:none;fill:none;fill-opacity:1;fill-rule: evenodd"/>
<path id="Shape2DView_nwe0107"  d="M -5.87 -0.225 L -3.8 -0.22500000000000073 " stroke="#191919" stroke-width="0.35 px" style="stroke-width:0.35;stroke-miterlimit:4;stroke-dasharray:none;fill:none;fill-opacity:1;fill-rule: evenodd"/>
<path id="Shape2DView_nwe0108"  d="M -3.799999999999999 -0.225 L -3.7888035523896684 -0.225 L -3.7777479066043678 -0.225 L -3.7669720938044824 -0.225 L -3.7566116260882434 -0.22500000000000003 L -3.7467967923484657 -0.22500000000000003 L -3.737651019814126 -0.22500000000000003 L -3.7292893218813448 -0.22500000000000003 L -3.7218168517531964 -0.22500000000000003 L -3.7153275800771715 -0.22500000000000003 L -3.7099031132097577 -0.22500000000000003 L -3.7056116669691628 -0.22500000000000003 L -3.7025072087818174 -0.22500000000000003 L -3.7006287790106756 -0.22500000000000003 L -3.6999999999999997 -0.22500000000000003 " stroke="#191919" stroke-width="0.35 px" style="stroke-width:0.35;stroke-miterlimit:4;stroke-dasharray:none;fill:none;fill-opacity:1;fill-rule: evenodd"/>
<path id="Shape2DView_nwe0109"  d="M -3.7 -0.22499999999999995 L -3.6987424419786485 -0.22499999999999995 L -3.6949855824363644 -0.22499999999999995 L -3.688776666061673 -0.22499999999999995 L -3.6801937735804837 -0.22499999999999995 L -3.6693448398456567 -0.22499999999999995 L -3.656366296493606 -0.22499999999999995 L -3.6414213562373092 -0.22499999999999995 L -3.6246979603717464 -0.22499999999999995 L -3.6064064153030673 -0.22499999999999998 L -3.5867767478235115 -0.22499999999999998 L -3.566055812391033 -0.22499999999999998 L -3.544504186791263 -0.22499999999999998 L -3.5223928952206616 -0.225 L -3.5 -0.225 " stroke="#191919" stroke-width="0.35 px" style="stroke-width:0.35;stroke-miterlimit:4;stroke-dasharray:none;fill:none;fill-opacity:1;fill-rule: evenodd"/>
<path id="Shape2DView_nwe0110"  d="M -3.5 -0.225 L -3.4 -0.22500000000000003 " stroke="#191919" stroke-width="0.35 px" style="stroke-width:0.35;stroke-miterlimit:4;stroke-dasharray:none;fill:none;fill-opacity:1;fill-rule: evenodd"/>
<path id="Shape2DView_nwe0111"  d="M -5.87 0.225 L -3.8 0.22499999999999928 " stroke="#191919" stroke-width="0.35 px" style="stroke-width:0.35;stroke-miterlimit:4;stroke-dasharray:none;fill:none;fill-opacity:1;fill-rule: evenodd"/>
<path id="Shape2DView_nwe0112"  d="M -3.799999999999999 0.225 L -3.7888035523896684 0.225 L -3.7777479066043678 0.225 L -3.7669720938044824 0.225 L -3.7566116260882434 0.22499999999999998 L -3.7467967923484657 0.22499999999999998 L -3.737651019814126 0.22499999999999998 L -3.7292893218813448 0.22499999999999998 L -3.7218168517531964 0.22499999999999998 L -3.7153275800771715 0.22499999999999998 L -3.7099031132097577 0.22499999999999998 L -3.7056116669691628 0.22499999999999998 L -3.7025072087818174 0.22499999999999998 L -3.7006287790106756 0.22499999999999998 L -3.6999999999999997 0.22499999999999998 " stroke="#191919" stroke-width="0.35 px" style="stroke-width:0.35;stroke-miterlimit:4;stroke-dasharray:none;fill:none;fill-opacity:1;fill-rule: evenodd"/>
<path id="Shape2DView_nwe0113"  d="M -3.7 0.22500000000000006 L -3.6987424419786485 0.22500000000000006 L -3.6949855824363644 0.22500000000000006 L -3.688776666061673 0.22500000000000006 L -3.6801937735804837 0.22500000000000006 L -3.6693448398456567 0.22500000000000006 L -3.656366296493606 0.22500000000000006 L -3.6414213562373092 0.22500000000000006 L -3.6246979603717464 0.22500000000000006 L -3.6064064153030673 0.22500000000000003 L -3.5867767478235115 0.22500000000000003 L -3.566055812391033 0.22500000000000003 L -3.544504186791263 0.22500000000000003 L -3.5223928952206616 0.225 L -3.5 0.225 " stroke="#191919" stroke-width="0.35 px" style="stroke-width:0.35;stroke-miterlimit:4;stroke-dasharray:none;fill:none;fill-opacity:1;fill-rule: evenodd"/>
<path id="Shape2DView_nwe0114"  d="M -3.5 0.225 L -3.4 0.22499999999999998 " stroke="#191919" stroke-width="0.35 px" style="stroke-width:0.35;stroke-miterlimit:4;stroke-dasharray:none;fill:none;fill-opacity:1;fill-rule: evenodd"/>
<path id="Shape2DView_nwe0115"  d="M -3.7 -1.495 L -3.7 -1.045 " stroke="#191919" stroke-width="0.35 px" style="stroke-width:0.35;stroke-miterlimit:4;stroke-dasharray:none;fill:none;fill-opacity:1;fill-rule: evenodd"/>
<path id="Shape2DView_nwe0117"  d="M -5.87 -1.495 L -5.87 -1.045 " stroke="#191919" stroke-width="0.35 px" style="stroke-width:0.35;stroke-miterlimit:4;stroke-dasharray:none;fill:none;fill-opacity:1;fill-rule: evenodd"/>
<path id="Shape2DView_nwe0118"  d="M -3.7 1.045 L -3.7 1.495 " stroke="#191919" stroke-width="0.35 px" style="stroke-width:0.35;stroke-miterlimit:4;stroke-dasharray:none;fill:none;fill-opacity:1;fill-rule: evenodd"/>
<path id="Shape2DView_nwe0120"  d="M -5.87 1.045 L -5.87 1.495 " stroke="#191919" stroke-width="0.35 px" style="stroke-width:0.35;stroke-miterlimit:4;stroke-dasharray:none;fill:none;fill-opacity:1;fill-rule: evenodd"/>
<path id="Shape2DView_nwe0121"  d="M -3.7 -0.225 L -3.7 0.225 " stroke="#191919" stroke-width="0.35 px" style="stroke-width:0.35;stroke-miterlimit:4;stroke-dasharray:none;fill:none;fill-opacity:1;fill-rule: evenodd"/>
<path id="Shape2DView_nwe0122"  d="M -5.87 -0.225 L -5.87 0.225 " stroke="#191919" stroke-width="0.35 px" style="stroke-width:0.35;stroke-miterlimit:4;stroke-dasharray:none;fill:none;fill-opacity:1;fill-rule: evenodd"/>
<path id="Shape2DView_nwe0123"  d="M 3.5 1.495 L 3.5 1.045 " stroke="#191919" stroke-width="0.35 px" style="stroke-width:0.35;stroke-miterlimit:4;stroke-dasharray:none;fill:none;fill-opacity:1;fill-rule: evenodd"/>
<path id="Shape2DView_nwe0124"  d="M 3.8 1.495 L 3.8 1.045 " stroke="#191919" stroke-width="0.35 px" style="stroke-width:0.35;stroke-miterlimit:4;stroke-dasharray:none;fill:none;fill-opacity:1;fill-rule: evenodd"/>
<path id="Shape2DView_nwe0125"  d="M 3.5 0.225 L 3.5 -0.225 " stroke="#191919" stroke-width="0.35 px" style="stroke-width:0.35;stroke-miterlimit:4;stroke-dasharray:none;fill:none;fill-opacity:1;fill-rule: evenodd"/>
<path id="Shape2DView_nwe0126"  d="M 3.5 -1.045 L 3.5 -1.495 " stroke="#191919" stroke-width="0.35 px" style="stroke-width:0.35;stroke-miterlimit:4;stroke-dasharray:none;fill:none;fill-opacity:1;fill-rule: evenodd"/>
<path id="Shape2DView_nwe0127"  d="M 3.8 0.225 L 3.8 -0.225 " stroke="#191919" stroke-width="0.35 px" style="stroke-width:0.35;stroke-miterlimit:4;stroke-dasharray:none;fill:none;fill-opacity:1;fill-rule: evenodd"/>
<path id="Shape2DView_nwe0128"  d="M 3.8 -1.045 L 3.8 -1.495 " stroke="#191919" stroke-width="0.35 px" style="stroke-width:0.35;stroke-miterlimit:4;stroke-dasharray:none;fill:none;fill-opacity:1;fill-rule: evenodd"/>
<path id="Shape2DView_nwe0129"  d="M -3.5 -1.495 L -3.5 -1.045 " stroke="#191919" stroke-width="0.35 px" style="stroke-width:0.35;stroke-miterlimit:4;stroke-dasharray:none;fill:none;fill-opacity:1;fill-rule: evenodd"/>
<path id="Shape2DView_nwe0130"  d="M -3.5 -0.225 L -3.5 0.225 " stroke="#191919" stroke-width="0.35 px" style="stroke-width:0.35;stroke-miterlimit:4;stroke-dasharray:none;fill:none;fill-opacity:1;fill-rule: evenodd"/>
<path id="Shape2DView_nwe0131"  d="M -3.5 1.045 L -3.5 1.495 " stroke="#191919" stroke-width="0.35 px" style="stroke-width:0.35;stroke-miterlimit:4;stroke-dasharray:none;fill:none;fill-opacity:1;fill-rule: evenodd"/>
<path id="Shape2DView_nwe0132"  d="M -3.8 -1.495 L -3.8 -1.045 " stroke="#191919" stroke-width="0.35 px" style="stroke-width:0.35;stroke-miterlimit:4;stroke-dasharray:none;fill:none;fill-opacity:1;fill-rule: evenodd"/>
<path id="Shape2DView_nwe0133"  d="M -3.8 1.045 L -3.8 1.495 " stroke="#191919" stroke-width="0.35 px" style="stroke-width:0.35;stroke-miterlimit:4;stroke-dasharray:none;fill:none;fill-opacity:1;fill-rule: evenodd"/>
<path id="Shape2DView_nwe0134"  d="M -3.8 -0.225 L -3.8 0.225 " stroke="#191919" stroke-width="0.35 px" style="stroke-width:0.35;stroke-miterlimit:4;stroke-dasharray:none;fill:none;fill-opacity:1;fill-rule: evenodd"/>
<path id="Shape2DView_nwe0135"  d="M 3.4 1.045 L 3.325 1.045 " stroke="#191919" stroke-width="0.35 px" style="stroke-width:0.35;stroke-miterlimit:4;stroke-dasharray:none;fill:none;fill-opacity:1;fill-rule: evenodd"/>
<path id="Shape2DView_nwe0136"  d="M 3.4 1.495 L 3.325 1.495 " stroke="#191919" stroke-width="0.35 px" style="stroke-width:0.35;stroke-miterlimit:4;stroke-dasharray:none;fill:none;fill-opacity:1;fill-rule: evenodd"/>
<path id="Shape2DView_nwe0137"  d="M 3.4 0.22500000000000003 L 3.325 0.22500000000000003 " stroke="#191919" stroke-width="0.35 px" style="stroke-width:0.35;stroke-miterlimit:4;stroke-dasharray:none;fill:none;fill-opacity:1;fill-rule: evenodd"/>
<path id="Shape2DView_nwe0138"  d="M 3.4 -1.495 L 3.325 -1.495 " stroke="#191919" stroke-width="0.35 px" style="stroke-width:0.35;stroke-miterlimit:4;stroke-dasharray:none;fill:none;fill-opacity:1;fill-rule: evenodd"/>
<path id="Shape2DView_nwe0139"  d="M 3.4 -0.22499999999999998 L 3.325 -0.22499999999999998 " stroke="#191919" stroke-width="0.35 px" style="stroke-width:0.35;stroke-miterlimit:4;stroke-dasharray:none;fill:none;fill-opacity:1;fill-rule: evenodd"/>
<path id="Shape2DView_nwe0140"  d="M 3.4 -1.045 L 3.325 -1.045 " stroke="#191919" stroke-width="0.35 px" style="stroke-width:0.35;stroke-miterlimit:4;stroke-dasharray:none;fill:none;fill-opacity:1;fill-rule: evenodd"/>
<path id="Shape2DView_nwe0141"  d="M -3.4 -1.495 L -3.325 -1.495 " stroke="#191919" stroke-width="0.35 px" style="stroke-width:0.35;stroke-miterlimit:4;stroke-dasharray:none;fill:none;fill-opacity:1;fill-rule: evenodd"/>
<path id="Shape2DView_nwe0142"  d="M -3.4 1.495 L -3.325 1.495 " stroke="#191919" stroke-width="0.35 px" style="stroke-width:0.35;stroke-miterlimit:4;stroke-dasharray:none;fill:none;fill-opacity:1;fill-rule: evenodd"/>
<path id="Shape2DView_nwe0143"  d="M -3.4 -1.045 L -3.325 -1.045 " stroke="#191919" stroke-width="0.35 px" style="stroke-width:0.35;stroke-miterlimit:4;stroke-dasharray:none;fill:none;fill-opacity:1;fill-rule: evenodd"/>
<path id="Shape2DView_nwe0144"  d="M -3.4 -0.22500000000000003 L -3.325 -0.22500000000000006 " stroke="#191919" stroke-width="0.35 px" style="stroke-width:0.35;stroke-miterlimit:4;stroke-dasharray:none;fill:none;fill-opacity:1;fill-rule: evenodd"/>
<path id="Shape2DView_nwe0145"  d="M -3.4 0.22499999999999998 L -3.325 0.22499999999999995 " stroke="#191919" stroke-width="0.35 px" style="stroke-width:0.35;stroke-miterlimit:4;stroke-dasharray:none;fill:none;fill-opacity:1;fill-rule: evenodd"/>
<path id="Shape2DView_nwe0146"  d="M -3.4 1.045 L -3.325 1.045 " stroke="#191919" stroke-width="0.35 px" style="stroke-width:0.35;stroke-miterlimit:4;stroke-dasharray:none;fill:none;fill-opacity:1;fill-rule: evenodd"/>
<title>b'Shape2DView'</title>
</g>
<g id="Rectangle" transform="translate(5.987400,2.417400) scale(1,-1)">
<rect fill="#ff0000" id="origin" width="1" height="1" x="0" y="0" />
<title>b'Rectangle'</title>
</g>
</svg>