<?xml version="1.0"?>
<!DOCTYPE svg PUBLIC "-//W3C//DTD SVG 1.1//EN" "http://www.w3.org/Graphics/SVG/1.1/DTD/svg11.dtd">
<svg width="2.856mm" height="3.106mm" viewBox="0 0 2.856 3.106" xmlns="http://www.w3.org/2000/svg" version="1.1">
<g id="Shape2DView" transform="translate(1.428000,1.553000) scale(1,-1)">
<path id="Shape2DView_nwe0000"  d="M 1.4 1.15 L 1.225 1.15 " stroke="#191919" stroke-width="0.35 px" style="stroke-width:0.35;stroke-miterlimit:4;stroke-dasharray:none;fill:none;fill-opacity:1;fill-rule: evenodd"/>
<path id="Shape2DView_nwe0001"  d="M 1.2249999999999999 1.15 L 1.213803552389669 1.15 L 1.2027479066043685 1.15 L 1.191972093804483 1.15 L 1.181611626088244 1.15 L 1.1717967923484662 1.15 L 1.1626510198141267 1.15 L 1.1542893218813453 1.15 L 1.1468168517531971 1.15 L 1.1403275800771717 1.15 L 1.1349031132097582 1.15 L 1.1306116669691633 1.15 L 1.1275072087818176 1.15 L 1.1256287790106758 1.15 L 1.125 1.15 " stroke="#191919" stroke-width="0.35 px" style="stroke-width:0.35;stroke-miterlimit:4;stroke-dasharray:none;fill:none;fill-opacity:1;fill-rule: evenodd"/>
<path id="Shape2DView_nwe0002"  d="M 1.125 1.15 L 1.1237424419786486 1.15 L 1.1199855824363647 1.15 L 1.1137766660616735 1.15 L 1.1051937735804838 1.15 L 1.0943448398456568 1.15 L 1.081366296493606 1.15 L 1.0664213562373095 1.15 L 1.0496979603717467 1.15 L 1.0314064153030673 1.15 L 1.0117767478235116 1.15 L 0.9910558123910334 1.15 L 0.9695041867912628 1.15 L 0.9473928952206615 1.15 L 0.925 1.15 " stroke="#191919" stroke-width="0.35 px" style="stroke-width:0.35;stroke-miterlimit:4;stroke-dasharray:none;fill:none;fill-opacity:1;fill-rule: evenodd"/>
<path id="Shape2DView_nwe0003"  d="M 0.925 1.15 L 0.825 1.15 " stroke="#191919" stroke-width="0.35 px" style="stroke-width:0.35;stroke-miterlimit:4;stroke-dasharray:none;fill:none;fill-opacity:1;fill-rule: evenodd"/>
<path id="Shape2DView_nwe0004"  d="M 1.4 0.75 L 1.225 0.75 " stroke="#191919" stroke-width="0.35 px" style="stroke-width:0.35;stroke-miterlimit:4;stroke-dasharray:none;fill:none;fill-opacity:1;fill-rule: evenodd"/>
<path id="Shape2DView_nwe0005"  d="M 1.2249999999999999 0.75 L 1.213803552389669 0.75 L 1.2027479066043685 0.75 L 1.191972093804483 0.75 L 1.181611626088244 0.75 L 1.1717967923484662 0.75 L 1.1626510198141267 0.75 L 1.1542893218813453 0.75 L 1.1468168517531971 0.75 L 1.1403275800771717 0.75 L 1.1349031132097582 0.75 L 1.1306116669691633 0.75 L 1.1275072087818176 0.75 L 1.1256287790106758 0.75 L 1.125 0.75 " stroke="#191919" stroke-width="0.35 px" style="stroke-width:0.35;stroke-miterlimit:4;stroke-dasharray:none;fill:none;fill-opacity:1;fill-rule: evenodd"/>
<path id="Shape2DView_nwe0006"  d="M 1.125 0.75 L 1.1237424419786486 0.75 L 1.1199855824363647 0.75 L 1.1137766660616735 0.75 L 1.1051937735804838 0.75 L 1.0943448398456568 0.75 L 1.081366296493606 0.75 L 1.0664213562373095 0.75 L 1.0496979603717467 0.75 L 1.0314064153030673 0.75 L 1.0117767478235116 0.75 L 0.9910558123910334 0.75 L 0.9695041867912628 0.75 L 0.9473928952206615 0.75 L 0.925 0.75 " stroke="#191919" stroke-width="0.35 px" style="stroke-width:0.35;stroke-miterlimit:4;stroke-dasharray:none;fill:none;fill-opacity:1;fill-rule: evenodd"/>
<path id="Shape2DView_nwe0007"  d="M 0.925 0.75 L 0.825 0.75 " stroke="#191919" stroke-width="0.35 px" style="stroke-width:0.35;stroke-miterlimit:4;stroke-dasharray:none;fill:none;fill-opacity:1;fill-rule: evenodd"/>
<path id="Shape2DView_nwe0008"  d="M 0.825 1.35 L 0.825 1.15 " stroke="#191919" stroke-width="0.35 px" style="stroke-width:0.35;stroke-miterlimit:4;stroke-dasharray:none;fill:none;fill-opacity:1;fill-rule: evenodd"/>
<path id="Shape2DView_nwe0009"  d="M 0.75 1.15 L 0.7499999999999999 0.75 " stroke="#191919" stroke-width="0.35 px" style="stroke-width:0.35;stroke-miterlimit:4;stroke-dasharray:none;fill:none;fill-opacity:1;fill-rule: evenodd"/>
<path id="Shape2DView_nwe0010"  d="M 1.125 1.15 L 1.125 0.75 " stroke="#191919" stroke-width="0.35 px" style="stroke-width:0.35;stroke-miterlimit:4;stroke-dasharray:none;fill:none;fill-opacity:1;fill-rule: evenodd"/>
<path id="Shape2DView_nwe0011"  d="M 1.4 1.15 L 1.4 0.75 " stroke="#191919" stroke-width="0.35 px" style="stroke-width:0.35;stroke-miterlimit:4;stroke-dasharray:none;fill:none;fill-opacity:1;fill-rule: evenodd"/>
<path id="Shape2DView_nwe0012"  d="M 0.8249999999999998 0.75 L 0.8249999999999995 -0.75 " stroke="#191919" stroke-width="0.35 px" style="stroke-width:0.35;stroke-miterlimit:4;stroke-dasharray:none;fill:none;fill-opacity:1;fill-rule: evenodd"/>
<path id="Shape2DView_nwe0013"  d="M 0.8249999999999994 -1.15 L 0.8249999999999994 -1.35 " stroke="#191919" stroke-width="0.35 px" style="stroke-width:0.35;stroke-miterlimit:4;stroke-dasharray:none;fill:none;fill-opacity:1;fill-rule: evenodd"/>
<path id="Shape2DView_nwe0014"  d="M 0.65 1.525 L 0.825 1.35 " stroke="#191919" stroke-width="0.35 px" style="stroke-width:0.35;stroke-miterlimit:4;stroke-dasharray:none;fill:none;fill-opacity:1;fill-rule: evenodd"/>
<path id="Shape2DView_nwe0015"  d="M 0.825 1.35 L 0.75 1.3125 " stroke="#191919" stroke-width="0.35 px" style="stroke-width:0.35;stroke-miterlimit:4;stroke-dasharray:none;fill:none;fill-opacity:1;fill-rule: evenodd"/>
<path id="Shape2DView_nwe0016"  d="M 0.75 1.3125 L 0.75 1.15 " stroke="#191919" stroke-width="0.35 px" style="stroke-width:0.35;stroke-miterlimit:4;stroke-dasharray:none;fill:none;fill-opacity:1;fill-rule: evenodd"/>
<path id="Shape2DView_nwe0017"  d="M 0.7499999999999999 0.75 L 0.7499999999999996 -0.75 " stroke="#191919" stroke-width="0.35 px" style="stroke-width:0.35;stroke-miterlimit:4;stroke-dasharray:none;fill:none;fill-opacity:1;fill-rule: evenodd"/>
<path id="Shape2DView_nwe0018"  d="M 0.7499999999999996 -0.75 L 0.7499999999999994 -1.15 " stroke="#191919" stroke-width="0.35 px" style="stroke-width:0.35;stroke-miterlimit:4;stroke-dasharray:none;fill:none;fill-opacity:1;fill-rule: evenodd"/>
<path id="Shape2DView_nwe0019"  d="M 0.7499999999999994 -1.15 L 0.7499999999999994 -1.3125 " stroke="#191919" stroke-width="0.35 px" style="stroke-width:0.35;stroke-miterlimit:4;stroke-dasharray:none;fill:none;fill-opacity:1;fill-rule: evenodd"/>
<path id="Shape2DView_nwe0020"  d="M 0.75 -1.3125 L 0.678727001854 -1.276863500927 " stroke="#191919" stroke-width="0.35 px" style="stroke-width:0.35;stroke-miterlimit:4;stroke-dasharray:none;fill:none;fill-opacity:1;fill-rule: evenodd"/>
<path id="Shape2DView_nwe0021"  d="M 0.678727001854 1.276863500927 L 0.6787270018539995 -1.276863500927 " stroke="#191919" stroke-width="0.35 px" style="stroke-width:0.35;stroke-miterlimit:4;stroke-dasharray:none;fill:none;fill-opacity:1;fill-rule: evenodd"/>
<path id="Shape2DView_nwe0022"  d="M 0.75 1.3125 L 0.678727001854 1.276863500927 " stroke="#191919" stroke-width="0.35 px" style="stroke-width:0.35;stroke-miterlimit:4;stroke-dasharray:none;fill:none;fill-opacity:1;fill-rule: evenodd"/>
<path id="Shape2DView_nwe0023"  d="M 1.4 -0.75 L 1.225 -0.75 " stroke="#191919" stroke-width="0.35 px" style="stroke-width:0.35;stroke-miterlimit:4;stroke-dasharray:none;fill:none;fill-opacity:1;fill-rule: evenodd"/>
<path id="Shape2DView_nwe0024"  d="M 1.2249999999999999 -0.75 L 1.213803552389669 -0.75 L 1.2027479066043685 -0.75 L 1.191972093804483 -0.75 L 1.181611626088244 -0.75 L 1.1717967923484662 -0.75 L 1.1626510198141267 -0.75 L 1.1542893218813453 -0.75 L 1.1468168517531971 -0.75 L 1.1403275800771717 -0.75 L 1.1349031132097582 -0.75 L 1.1306116669691633 -0.75 L 1.1275072087818176 -0.75 L 1.1256287790106758 -0.75 L 1.125 -0.75 " stroke="#191919" stroke-width="0.35 px" style="stroke-width:0.35;stroke-miterlimit:4;stroke-dasharray:none;fill:none;fill-opacity:1;fill-rule: evenodd"/>
<path id="Shape2DView_nwe0025"  d="M 1.125 -0.75 L 1.1237424419786486 -0.75 L 1.1199855824363647 -0.75 L 1.1137766660616735 -0.75 L 1.1051937735804838 -0.75 L 1.0943448398456568 -0.75 L 1.081366296493606 -0.75 L 1.0664213562373095 -0.75 L 1.0496979603717467 -0.75 L 1.0314064153030673 -0.75 L 1.0117767478235116 -0.75 L 0.9910558123910334 -0.75 L 0.9695041867912628 -0.75 L 0.9473928952206615 -0.75 L 0.925 -0.75 " stroke="#191919" stroke-width="0.35 px" style="stroke-width:0.35;stroke-miterlimit:4;stroke-dasharray:none;fill:none;fill-opacity:1;fill-rule: evenodd"/>
<path id="Shape2DView_nwe0026"  d="M 0.925 -0.75 L 0.825 -0.75 " stroke="#191919" stroke-width="0.35 px" style="stroke-width:0.35;stroke-miterlimit:4;stroke-dasharray:none;fill:none;fill-opacity:1;fill-rule: evenodd"/>
<path id="Shape2DView_nwe0027"  d="M 0.825 -1.35 L 0.65 -1.525 " stroke="#191919" stroke-width="0.35 px" style="stroke-width:0.35;stroke-miterlimit:4;stroke-dasharray:none;fill:none;fill-opacity:1;fill-rule: evenodd"/>
<path id="Shape2DView_nwe0028"  d="M 1.4 -1.15 L 1.225 -1.15 " stroke="#191919" stroke-width="0.35 px" style="stroke-width:0.35;stroke-miterlimit:4;stroke-dasharray:none;fill:none;fill-opacity:1;fill-rule: evenodd"/>
<path id="Shape2DView_nwe0029"  d="M 1.2249999999999999 -1.15 L 1.213803552389669 -1.15 L 1.2027479066043685 -1.15 L 1.191972093804483 -1.15 L 1.181611626088244 -1.15 L 1.1717967923484662 -1.15 L 1.1626510198141267 -1.15 L 1.1542893218813453 -1.15 L 1.1468168517531971 -1.15 L 1.1403275800771717 -1.15 L 1.1349031132097582 -1.15 L 1.1306116669691633 -1.15 L 1.1275072087818176 -1.15 L 1.1256287790106758 -1.15 L 1.125 -1.15 " stroke="#191919" stroke-width="0.35 px" style="stroke-width:0.35;stroke-miterlimit:4;stroke-dasharray:none;fill:none;fill-opacity:1;fill-rule: evenodd"/>
<path id="Shape2DView_nwe0030"  d="M 1.125 -1.15 L 1.1237424419786486 -1.15 L 1.1199855824363647 -1.15 L 1.1137766660616735 -1.15 L 1.1051937735804838 -1.15 L 1.0943448398456568 -1.15 L 1.081366296493606 -1.15 L 1.0664213562373095 -1.15 L 1.0496979603717467 -1.15 L 1.0314064153030673 -1.15 L 1.0117767478235116 -1.15 L 0.9910558123910334 -1.15 L 0.9695041867912628 -1.15 L 0.9473928952206615 -1.15 L 0.925 -1.15 " stroke="#191919" stroke-width="0.35 px" style="stroke-width:0.35;stroke-miterlimit:4;stroke-dasharray:none;fill:none;fill-opacity:1;fill-rule: evenodd"/>
<path id="Shape2DView_nwe0031"  d="M 0.925 -1.15 L 0.825 -1.15 " stroke="#191919" stroke-width="0.35 px" style="stroke-width:0.35;stroke-miterlimit:4;stroke-dasharray:none;fill:none;fill-opacity:1;fill-rule: evenodd"/>
<path id="Shape2DView_nwe0032"  d="M 0.825 -1.35 L 0.75 -1.3125 " stroke="#191919" stroke-width="0.35 px" style="stroke-width:0.35;stroke-miterlimit:4;stroke-dasharray:none;fill:none;fill-opacity:1;fill-rule: evenodd"/>
<path id="Shape2DView_nwe0033"  d="M 0.6125 1.45 L 0.75 1.3125 " stroke="#191919" stroke-width="0.35 px" style="stroke-width:0.35;stroke-miterlimit:4;stroke-dasharray:none;fill:none;fill-opacity:1;fill-rule: evenodd"/>
<path id="Shape2DView_nwe0034"  d="M 0.65 1.525 L 0.6125 1.45 " stroke="#191919" stroke-width="0.35 px" style="stroke-width:0.35;stroke-miterlimit:4;stroke-dasharray:none;fill:none;fill-opacity:1;fill-rule: evenodd"/>
<path id="Shape2DView_nwe0035"  d="M -0.65 1.525 L 0.65 1.5249999999999997 " stroke="#191919" stroke-width="0.35 px" style="stroke-width:0.35;stroke-miterlimit:4;stroke-dasharray:none;fill:none;fill-opacity:1;fill-rule: evenodd"/>
<path id="Shape2DView_nwe0036"  d="M 0.576863500927 1.378727001854 L 0.6787270018540001 1.276863500927 " stroke="#191919" stroke-width="0.35 px" style="stroke-width:0.35;stroke-miterlimit:4;stroke-dasharray:none;fill:none;fill-opacity:1;fill-rule: evenodd"/>
<path id="Shape2DView_nwe0037"  d="M 0.6125 1.45 L 0.576863500927 1.378727001854 " stroke="#191919" stroke-width="0.35 px" style="stroke-width:0.35;stroke-miterlimit:4;stroke-dasharray:none;fill:none;fill-opacity:1;fill-rule: evenodd"/>
<path id="Shape2DView_nwe0038"  d="M -0.576863500927 1.378727001854 L 0.576863500927 1.3787270018539999 " stroke="#191919" stroke-width="0.35 px" style="stroke-width:0.35;stroke-miterlimit:4;stroke-dasharray:none;fill:none;fill-opacity:1;fill-rule: evenodd"/>
<path id="Shape2DView_nwe0039"  d="M -0.678727001854 1.276863500927 L -0.5768635009269999 1.378727001854 " stroke="#191919" stroke-width="0.35 px" style="stroke-width:0.35;stroke-miterlimit:4;stroke-dasharray:none;fill:none;fill-opacity:1;fill-rule: evenodd"/>
<path id="Shape2DView_nwe0040"  d="M -0.678727001854 -1.276863500927 L -0.6787270018539995 1.276863500927 " stroke="#191919" stroke-width="0.35 px" style="stroke-width:0.35;stroke-miterlimit:4;stroke-dasharray:none;fill:none;fill-opacity:1;fill-rule: evenodd"/>
<path id="Shape2DView_nwe0041"  d="M -0.576863500927 -1.378727001854 L -0.6787270018540001 -1.276863500927 " stroke="#191919" stroke-width="0.35 px" style="stroke-width:0.35;stroke-miterlimit:4;stroke-dasharray:none;fill:none;fill-opacity:1;fill-rule: evenodd"/>
<path id="Shape2DView_nwe0042"  d="M 0.576863500927 -1.378727001854 L -0.576863500927 -1.3787270018539999 " stroke="#191919" stroke-width="0.35 px" style="stroke-width:0.35;stroke-miterlimit:4;stroke-dasharray:none;fill:none;fill-opacity:1;fill-rule: evenodd"/>
<path id="Shape2DView_nwe0043"  d="M 0.678727001854 -1.276863500927 L 0.5768635009269999 -1.378727001854 " stroke="#191919" stroke-width="0.35 px" style="stroke-width:0.35;stroke-miterlimit:4;stroke-dasharray:none;fill:none;fill-opacity:1;fill-rule: evenodd"/>
<circle cx="-0.528727001854" cy="1.228727001854" r="0.05" stroke="#191919" stroke-width="0.35 px" style="stroke-width:0.35;stroke-miterlimit:4;stroke-dasharray:none;fill:none"/>
<path id="Shape2DView_nwe0045"  d="M 0.75 -1.3125 L 0.6125 -1.45 " stroke="#191919" stroke-width="0.35 px" style="stroke-width:0.35;stroke-miterlimit:4;stroke-dasharray:none;fill:none;fill-opacity:1;fill-rule: evenodd"/>
<path id="Shape2DView_nwe0046"  d="M 0.6125 -1.45 L 0.576863500927 -1.378727001854 " stroke="#191919" stroke-width="0.35 px" style="stroke-width:0.35;stroke-miterlimit:4;stroke-dasharray:none;fill:none;fill-opacity:1;fill-rule: evenodd"/>
<path id="Shape2DView_nwe0047"  d="M 1.125 -0.75 L 1.125 -1.15 " stroke="#191919" stroke-width="0.35 px" style="stroke-width:0.35;stroke-miterlimit:4;stroke-dasharray:none;fill:none;fill-opacity:1;fill-rule: evenodd"/>
<path id="Shape2DView_nwe0048"  d="M 1.4 -0.75 L 1.4 -1.15 " stroke="#191919" stroke-width="0.35 px" style="stroke-width:0.35;stroke-miterlimit:4;stroke-dasharray:none;fill:none;fill-opacity:1;fill-rule: evenodd"/>
<path id="Shape2DView_nwe0049"  d="M 0.65 -1.525 L -0.65 -1.5249999999999997 " stroke="#191919" stroke-width="0.35 px" style="stroke-width:0.35;stroke-miterlimit:4;stroke-dasharray:none;fill:none;fill-opacity:1;fill-rule: evenodd"/>
<path id="Shape2DView_nwe0050"  d="M -0.65 -1.525 L -0.825 -1.35 " stroke="#191919" stroke-width="0.35 px" style="stroke-width:0.35;stroke-miterlimit:4;stroke-dasharray:none;fill:none;fill-opacity:1;fill-rule: evenodd"/>
<path id="Shape2DView_nwe0051"  d="M -0.825 -1.35 L -0.825 -1.15 " stroke="#191919" stroke-width="0.35 px" style="stroke-width:0.35;stroke-miterlimit:4;stroke-dasharray:none;fill:none;fill-opacity:1;fill-rule: evenodd"/>
<path id="Shape2DView_nwe0052"  d="M -0.8249999999999994 1.15 L -0.8249999999999994 1.35 " stroke="#191919" stroke-width="0.35 px" style="stroke-width:0.35;stroke-miterlimit:4;stroke-dasharray:none;fill:none;fill-opacity:1;fill-rule: evenodd"/>
<path id="Shape2DView_nwe0053"  d="M -0.8249999999999998 -0.75 L -0.8249999999999997 -0.19999999999999996 " stroke="#191919" stroke-width="0.35 px" style="stroke-width:0.35;stroke-miterlimit:4;stroke-dasharray:none;fill:none;fill-opacity:1;fill-rule: evenodd"/>
<path id="Shape2DView_nwe0054"  d="M -0.8249999999999996 0.19999999999999996 L -0.8249999999999995 0.75 " stroke="#191919" stroke-width="0.35 px" style="stroke-width:0.35;stroke-miterlimit:4;stroke-dasharray:none;fill:none;fill-opacity:1;fill-rule: evenodd"/>
<path id="Shape2DView_nwe0055"  d="M -0.825 1.35 L -0.65 1.525 " stroke="#191919" stroke-width="0.35 px" style="stroke-width:0.35;stroke-miterlimit:4;stroke-dasharray:none;fill:none;fill-opacity:1;fill-rule: evenodd"/>
<path id="Shape2DView_nwe0056"  d="M 0.65 -1.525 L 0.6125 -1.45 " stroke="#191919" stroke-width="0.35 px" style="stroke-width:0.35;stroke-miterlimit:4;stroke-dasharray:none;fill:none;fill-opacity:1;fill-rule: evenodd"/>
<path id="Shape2DView_nwe0057"  d="M -0.6125 1.45 L 0.6125 1.4499999999999997 " stroke="#191919" stroke-width="0.35 px" style="stroke-width:0.35;stroke-miterlimit:4;stroke-dasharray:none;fill:none;fill-opacity:1;fill-rule: evenodd"/>
<path id="Shape2DView_nwe0058"  d="M -0.65 1.525 L -0.6125 1.45 " stroke="#191919" stroke-width="0.35 px" style="stroke-width:0.35;stroke-miterlimit:4;stroke-dasharray:none;fill:none;fill-opacity:1;fill-rule: evenodd"/>
<path id="Shape2DView_nwe0059"  d="M -0.6125 1.45 L -0.576863500927 1.378727001854 " stroke="#191919" stroke-width="0.35 px" style="stroke-width:0.35;stroke-miterlimit:4;stroke-dasharray:none;fill:none;fill-opacity:1;fill-rule: evenodd"/>
<path id="Shape2DView_nwe0060"  d="M -0.75 1.3125 L -0.6125 1.45 " stroke="#191919" stroke-width="0.35 px" style="stroke-width:0.35;stroke-miterlimit:4;stroke-dasharray:none;fill:none;fill-opacity:1;fill-rule: evenodd"/>
<path id="Shape2DView_nwe0061"  d="M -0.75 1.3125 L -0.678727001854 1.276863500927 " stroke="#191919" stroke-width="0.35 px" style="stroke-width:0.35;stroke-miterlimit:4;stroke-dasharray:none;fill:none;fill-opacity:1;fill-rule: evenodd"/>
<path id="Shape2DView_nwe0062"  d="M -0.75 -1.3125 L -0.75 -1.15 " stroke="#191919" stroke-width="0.35 px" style="stroke-width:0.35;stroke-miterlimit:4;stroke-dasharray:none;fill:none;fill-opacity:1;fill-rule: evenodd"/>
<path id="Shape2DView_nwe0063"  d="M -0.75 -1.15 L -0.7499999999999999 -0.75 " stroke="#191919" stroke-width="0.35 px" style="stroke-width:0.35;stroke-miterlimit:4;stroke-dasharray:none;fill:none;fill-opacity:1;fill-rule: evenodd"/>
<path id="Shape2DView_nwe0064"  d="M -0.7499999999999999 -0.75 L -0.7499999999999998 -0.19999999999999996 " stroke="#191919" stroke-width="0.35 px" style="stroke-width:0.35;stroke-miterlimit:4;stroke-dasharray:none;fill:none;fill-opacity:1;fill-rule: evenodd"/>
<path id="Shape2DView_nwe0065"  d="M -0.7499999999999998 -0.19999999999999996 L -0.7499999999999997 0.19999999999999996 " stroke="#191919" stroke-width="0.35 px" style="stroke-width:0.35;stroke-miterlimit:4;stroke-dasharray:none;fill:none;fill-opacity:1;fill-rule: evenodd"/>
<path id="Shape2DView_nwe0066"  d="M -0.7499999999999997 0.19999999999999996 L -0.7499999999999996 0.75 " stroke="#191919" stroke-width="0.35 px" style="stroke-width:0.35;stroke-miterlimit:4;stroke-dasharray:none;fill:none;fill-opacity:1;fill-rule: evenodd"/>
<path id="Shape2DView_nwe0067"  d="M -0.7499999999999996 0.75 L -0.7499999999999994 1.15 " stroke="#191919" stroke-width="0.35 px" style="stroke-width:0.35;stroke-miterlimit:4;stroke-dasharray:none;fill:none;fill-opacity:1;fill-rule: evenodd"/>
<path id="Shape2DView_nwe0068"  d="M -0.7499999999999994 1.15 L -0.7499999999999994 1.3125 " stroke="#191919" stroke-width="0.35 px" style="stroke-width:0.35;stroke-miterlimit:4;stroke-dasharray:none;fill:none;fill-opacity:1;fill-rule: evenodd"/>
<path id="Shape2DView_nwe0069"  d="M -0.75 -1.3125 L -0.678727001854 -1.276863500927 " stroke="#191919" stroke-width="0.35 px" style="stroke-width:0.35;stroke-miterlimit:4;stroke-dasharray:none;fill:none;fill-opacity:1;fill-rule: evenodd"/>
<path id="Shape2DView_nwe0070"  d="M -0.6125 -1.45 L -0.75 -1.3125 " stroke="#191919" stroke-width="0.35 px" style="stroke-width:0.35;stroke-miterlimit:4;stroke-dasharray:none;fill:none;fill-opacity:1;fill-rule: evenodd"/>
<path id="Shape2DView_nwe0071"  d="M -0.6125 -1.45 L -0.576863500927 -1.378727001854 " stroke="#191919" stroke-width="0.35 px" style="stroke-width:0.35;stroke-miterlimit:4;stroke-dasharray:none;fill:none;fill-opacity:1;fill-rule: evenodd"/>
<path id="Shape2DView_nwe0072"  d="M 0.6125 -1.45 L -0.6125 -1.4499999999999997 " stroke="#191919" stroke-width="0.35 px" style="stroke-width:0.35;stroke-miterlimit:4;stroke-dasharray:none;fill:none;fill-opacity:1;fill-rule: evenodd"/>
<path id="Shape2DView_nwe0073"  d="M -0.65 -1.525 L -0.6125 -1.45 " stroke="#191919" stroke-width="0.35 px" style="stroke-width:0.35;stroke-miterlimit:4;stroke-dasharray:none;fill:none;fill-opacity:1;fill-rule: evenodd"/>
<path id="Shape2DView_nwe0074"  d="M -0.825 -1.35 L -0.75 -1.3125 " stroke="#191919" stroke-width="0.35 px" style="stroke-width:0.35;stroke-miterlimit:4;stroke-dasharray:none;fill:none;fill-opacity:1;fill-rule: evenodd"/>
<path id="Shape2DView_nwe0075"  d="M -1.4 -1.15 L -1.225 -1.15 " stroke="#191919" stroke-width="0.35 px" style="stroke-width:0.35;stroke-miterlimit:4;stroke-dasharray:none;fill:none;fill-opacity:1;fill-rule: evenodd"/>
<path id="Shape2DView_nwe0076"  d="M -1.2249999999999999 -1.15 L -1.213803552389669 -1.15 L -1.2027479066043685 -1.15 L -1.191972093804483 -1.15 L -1.181611626088244 -1.15 L -1.1717967923484662 -1.15 L -1.1626510198141267 -1.15 L -1.1542893218813453 -1.15 L -1.1468168517531971 -1.15 L -1.1403275800771717 -1.15 L -1.1349031132097582 -1.15 L -1.1306116669691633 -1.15 L -1.1275072087818176 -1.15 L -1.1256287790106758 -1.15 L -1.125 -1.15 " stroke="#191919" stroke-width="0.35 px" style="stroke-width:0.35;stroke-miterlimit:4;stroke-dasharray:none;fill:none;fill-opacity:1;fill-rule: evenodd"/>
<path id="Shape2DView_nwe0077"  d="M -1.125 -1.15 L -1.1237424419786486 -1.15 L -1.1199855824363647 -1.15 L -1.1137766660616735 -1.15 L -1.1051937735804838 -1.15 L -1.0943448398456568 -1.15 L -1.081366296493606 -1.15 L -1.0664213562373095 -1.15 L -1.0496979603717467 -1.15 L -1.0314064153030673 -1.15 L -1.0117767478235116 -1.15 L -0.9910558123910334 -1.15 L -0.9695041867912628 -1.15 L -0.9473928952206615 -1.15 L -0.925 -1.15 " stroke="#191919" stroke-width="0.35 px" style="stroke-width:0.35;stroke-miterlimit:4;stroke-dasharray:none;fill:none;fill-opacity:1;fill-rule: evenodd"/>
<path id="Shape2DView_nwe0078"  d="M -0.925 -1.15 L -0.825 -1.15 " stroke="#191919" stroke-width="0.35 px" style="stroke-width:0.35;stroke-miterlimit:4;stroke-dasharray:none;fill:none;fill-opacity:1;fill-rule: evenodd"/>
<path id="Shape2DView_nwe0079"  d="M -1.4 1.15 L -1.225 1.15 " stroke="#191919" stroke-width="0.35 px" style="stroke-width:0.35;stroke-miterlimit:4;stroke-dasharray:none;fill:none;fill-opacity:1;fill-rule: evenodd"/>
<path id="Shape2DView_nwe0080"  d="M -1.2249999999999999 1.15 L -1.213803552389669 1.15 L -1.2027479066043685 1.15 L -1.191972093804483 1.15 L -1.181611626088244 1.15 L -1.1717967923484662 1.15 L -1.1626510198141267 1.15 L -1.1542893218813453 1.15 L -1.1468168517531971 1.15 L -1.1403275800771717 1.15 L -1.1349031132097582 1.15 L -1.1306116669691633 1.15 L -1.1275072087818176 1.15 L -1.1256287790106758 1.15 L -1.125 1.15 " stroke="#191919" stroke-width="0.35 px" style="stroke-width:0.35;stroke-miterlimit:4;stroke-dasharray:none;fill:none;fill-opacity:1;fill-rule: evenodd"/>
<path id="Shape2DView_nwe0081"  d="M -1.125 1.15 L -1.1237424419786486 1.15 L -1.1199855824363647 1.15 L -1.1137766660616735 1.15 L -1.1051937735804838 1.15 L -1.0943448398456568 1.15 L -1.081366296493606 1.15 L -1.0664213562373095 1.15 L -1.0496979603717467 1.15 L -1.0314064153030673 1.15 L -1.0117767478235116 1.15 L -0.9910558123910334 1.15 L -0.9695041867912628 1.15 L -0.9473928952206615 1.15 L -0.925 1.15 " stroke="#191919" stroke-width="0.35 px" style="stroke-width:0.35;stroke-miterlimit:4;stroke-dasharray:none;fill:none;fill-opacity:1;fill-rule: evenodd"/>
<path id="Shape2DView_nwe0082"  d="M -0.925 1.15 L -0.825 1.15 " stroke="#191919" stroke-width="0.35 px" style="stroke-width:0.35;stroke-miterlimit:4;stroke-dasharray:none;fill:none;fill-opacity:1;fill-rule: evenodd"/>
<path id="Shape2DView_nwe0083"  d="M -0.825 1.35 L -0.75 1.3125 " stroke="#191919" stroke-width="0.35 px" style="stroke-width:0.35;stroke-miterlimit:4;stroke-dasharray:none;fill:none;fill-opacity:1;fill-rule: evenodd"/>
<path id="Shape2DView_nwe0084"  d="M -1.4 -0.75 L -1.225 -0.7500000000000001 " stroke="#191919" stroke-width="0.35 px" style="stroke-width:0.35;stroke-miterlimit:4;stroke-dasharray:none;fill:none;fill-opacity:1;fill-rule: evenodd"/>
<path id="Shape2DView_nwe0085"  d="M -1.2249999999999999 -0.75 L -1.213803552389669 -0.75 L -1.2027479066043685 -0.75 L -1.191972093804483 -0.75 L -1.181611626088244 -0.75 L -1.1717967923484662 -0.75 L -1.1626510198141267 -0.75 L -1.1542893218813453 -0.75 L -1.1468168517531971 -0.75 L -1.1403275800771717 -0.75 L -1.1349031132097582 -0.75 L -1.1306116669691633 -0.75 L -1.1275072087818176 -0.75 L -1.1256287790106758 -0.75 L -1.125 -0.75 " stroke="#191919" stroke-width="0.35 px" style="stroke-width:0.35;stroke-miterlimit:4;stroke-dasharray:none;fill:none;fill-opacity:1;fill-rule: evenodd"/>
<path id="Shape2DView_nwe0086"  d="M -1.125 -0.7499999999999999 L -1.1237424419786486 -0.7499999999999999 L -1.1199855824363647 -0.7499999999999999 L -1.1137766660616735 -0.7499999999999999 L -1.1051937735804838 -0.7499999999999999 L -1.0943448398456568 -0.7499999999999999 L -1.081366296493606 -0.75 L -1.0664213562373095 -0.75 L -1.0496979603717467 -0.75 L -1.0314064153030673 -0.75 L -1.0117767478235116 -0.75 L -0.9910558123910334 -0.75 L -0.9695041867912628 -0.75 L -0.9473928952206615 -0.75 L -0.925 -0.75 " stroke="#191919" stroke-width="0.35 px" style="stroke-width:0.35;stroke-miterlimit:4;stroke-dasharray:none;fill:none;fill-opacity:1;fill-rule: evenodd"/>
<path id="Shape2DView_nwe0087"  d="M -0.925 -0.75 L -0.825 -0.75 " stroke="#191919" stroke-width="0.35 px" style="stroke-width:0.35;stroke-miterlimit:4;stroke-dasharray:none;fill:none;fill-opacity:1;fill-rule: evenodd"/>
<path id="Shape2DView_nwe0088"  d="M -1.4 0.75 L -1.225 0.7499999999999999 " stroke="#191919" stroke-width="0.35 px" style="stroke-width:0.35;stroke-miterlimit:4;stroke-dasharray:none;fill:none;fill-opacity:1;fill-rule: evenodd"/>
<path id="Shape2DView_nwe0089"  d="M -1.2249999999999999 0.75 L -1.213803552389669 0.75 L -1.2027479066043685 0.75 L -1.191972093804483 0.75 L -1.181611626088244 0.75 L -1.1717967923484662 0.75 L -1.1626510198141267 0.75 L -1.1542893218813453 0.75 L -1.1468168517531971 0.75 L -1.1403275800771717 0.75 L -1.1349031132097582 0.75 L -1.1306116669691633 0.75 L -1.1275072087818176 0.75 L -1.1256287790106758 0.75 L -1.125 0.75 " stroke="#191919" stroke-width="0.35 px" style="stroke-width:0.35;stroke-miterlimit:4;stroke-dasharray:none;fill:none;fill-opacity:1;fill-rule: evenodd"/>
<path id="Shape2DView_nwe0090"  d="M -1.125 0.7500000000000001 L -1.1237424419786486 0.7500000000000001 L -1.1199855824363647 0.7500000000000001 L -1.1137766660616735 0.7500000000000001 L -1.1051937735804838 0.7500000000000001 L -1.0943448398456568 0.7500000000000001 L -1.081366296493606 0.75 L -1.0664213562373095 0.75 L -1.0496979603717467 0.75 L -1.0314064153030673 0.75 L -1.0117767478235116 0.75 L -0.9910558123910334 0.75 L -0.9695041867912628 0.75 L -0.9473928952206615 0.75 L -0.925 0.75 " stroke="#191919" stroke-width="0.35 px" style="stroke-width:0.35;stroke-miterlimit:4;stroke-dasharray:none;fill:none;fill-opacity:1;fill-rule: evenodd"/>
<path id="Shape2DView_nwe0091"  d="M -0.925 0.75 L -0.825 0.75 " stroke="#191919" stroke-width="0.35 px" style="stroke-width:0.35;stroke-miterlimit:4;stroke-dasharray:none;fill:none;fill-opacity:1;fill-rule: evenodd"/>
<path id="Shape2DView_nwe0092"  d="M -1.4 -0.2 L -1.225 -0.20000000000000007 " stroke="#191919" stroke-width="0.35 px" style="stroke-width:0.35;stroke-miterlimit:4;stroke-dasharray:none;fill:none;fill-opacity:1;fill-rule: evenodd"/>
<path id="Shape2DView_nwe0093"  d="M -1.2249999999999999 -0.2 L -1.213803552389669 -0.2 L -1.2027479066043685 -0.2 L -1.191972093804483 -0.2 L -1.181611626088244 -0.20000000000000004 L -1.1717967923484662 -0.20000000000000004 L -1.1626510198141267 -0.20000000000000004 L -1.1542893218813453 -0.20000000000000004 L -1.1468168517531971 -0.20000000000000004 L -1.1403275800771717 -0.20000000000000004 L -1.1349031132097582 -0.20000000000000004 L -1.1306116669691633 -0.20000000000000004 L -1.1275072087818176 -0.20000000000000004 L -1.1256287790106758 -0.20000000000000004 L -1.125 -0.20000000000000004 " stroke="#191919" stroke-width="0.35 px" style="stroke-width:0.35;stroke-miterlimit:4;stroke-dasharray:none;fill:none;fill-opacity:1;fill-rule: evenodd"/>
<path id="Shape2DView_nwe0094"  d="M -1.125 -0.19999999999999996 L -1.1237424419786486 -0.19999999999999996 L -1.1199855824363647 -0.19999999999999996 L -1.1137766660616735 -0.19999999999999996 L -1.1051937735804838 -0.19999999999999996 L -1.0943448398456568 -0.19999999999999996 L -1.081366296493606 -0.19999999999999996 L -1.0664213562373095 -0.19999999999999996 L -1.0496979603717467 -0.19999999999999996 L -1.0314064153030673 -0.19999999999999998 L -1.0117767478235116 -0.19999999999999998 L -0.9910558123910334 -0.19999999999999998 L -0.9695041867912628 -0.19999999999999998 L -0.9473928952206615 -0.2 L -0.925 -0.2 " stroke="#191919" stroke-width="0.35 px" style="stroke-width:0.35;stroke-miterlimit:4;stroke-dasharray:none;fill:none;fill-opacity:1;fill-rule: evenodd"/>
<path id="Shape2DView_nwe0095"  d="M -0.925 -0.2 L -0.825 -0.20000000000000004 " stroke="#191919" stroke-width="0.35 px" style="stroke-width:0.35;stroke-miterlimit:4;stroke-dasharray:none;fill:none;fill-opacity:1;fill-rule: evenodd"/>
<path id="Shape2DView_nwe0096"  d="M -1.4 0.2 L -1.225 0.19999999999999996 " stroke="#191919" stroke-width="0.35 px" style="stroke-width:0.35;stroke-miterlimit:4;stroke-dasharray:none;fill:none;fill-opacity:1;fill-rule: evenodd"/>
<path id="Shape2DView_nwe0097"  d="M -1.2249999999999999 0.2 L -1.213803552389669 0.2 L -1.2027479066043685 0.2 L -1.191972093804483 0.2 L -1.181611626088244 0.19999999999999998 L -1.1717967923484662 0.19999999999999998 L -1.1626510198141267 0.19999999999999998 L -1.1542893218813453 0.19999999999999998 L -1.1468168517531971 0.19999999999999998 L -1.1403275800771717 0.19999999999999998 L -1.1349031132097582 0.19999999999999998 L -1.1306116669691633 0.19999999999999998 L -1.1275072087818176 0.19999999999999998 L -1.1256287790106758 0.19999999999999998 L -1.125 0.19999999999999998 " stroke="#191919" stroke-width="0.35 px" style="stroke-width:0.35;stroke-miterlimit:4;stroke-dasharray:none;fill:none;fill-opacity:1;fill-rule: evenodd"/>
<path id="Shape2DView_nwe0098"  d="M -1.125 0.20000000000000007 L -1.1237424419786486 0.20000000000000007 L -1.1199855824363647 0.20000000000000007 L -1.1137766660616735 0.20000000000000007 L -1.1051937735804838 0.20000000000000007 L -1.0943448398456568 0.20000000000000007 L -1.081366296493606 0.20000000000000007 L -1.0664213562373095 0.20000000000000007 L -1.0496979603717467 0.20000000000000007 L -1.0314064153030673 0.20000000000000004 L -1.0117767478235116 0.20000000000000004 L -0.9910558123910334 0.20000000000000004 L -0.9695041867912628 0.20000000000000004 L -0.9473928952206615 0.2 L -0.925 0.2 " stroke="#191919" stroke-width="0.35 px" style="stroke-width:0.35;stroke-miterlimit:4;stroke-dasharray:none;fill:none;fill-opacity:1;fill-rule: evenodd"/>
<path id="Shape2DView_nwe0099"  d="M -0.925 0.2 L -0.825 0.19999999999999998 " stroke="#191919" stroke-width="0.35 px" style="stroke-width:0.35;stroke-miterlimit:4;stroke-dasharray:none;fill:none;fill-opacity:1;fill-rule: evenodd"/>
<path id="Shape2DView_nwe0100"  d="M -1.125 -1.15 L -1.1249999999999998 -0.75 " stroke="#191919" stroke-width="0.35 px" style="stroke-width:0.35;stroke-miterlimit:4;stroke-dasharray:none;fill:none;fill-opacity:1;fill-rule: evenodd"/>
<path id="Shape2DView_nwe0101"  d="M -1.4 -1.15 L -1.3999999999999997 -0.75 " stroke="#191919" stroke-width="0.35 px" style="stroke-width:0.35;stroke-miterlimit:4;stroke-dasharray:none;fill:none;fill-opacity:1;fill-rule: evenodd"/>
<path id="Shape2DView_nwe0102"  d="M -1.125 0.75 L -1.1249999999999998 1.15 " stroke="#191919" stroke-width="0.35 px" style="stroke-width:0.35;stroke-miterlimit:4;stroke-dasharray:none;fill:none;fill-opacity:1;fill-rule: evenodd"/>
<path id="Shape2DView_nwe0103"  d="M -1.4 0.75 L -1.3999999999999997 1.15 " stroke="#191919" stroke-width="0.35 px" style="stroke-width:0.35;stroke-miterlimit:4;stroke-dasharray:none;fill:none;fill-opacity:1;fill-rule: evenodd"/>
<path id="Shape2DView_nwe0104"  d="M -1.125 -0.2 L -1.1249999999999998 0.2 " stroke="#191919" stroke-width="0.35 px" style="stroke-width:0.35;stroke-miterlimit:4;stroke-dasharray:none;fill:none;fill-opacity:1;fill-rule: evenodd"/>
<path id="Shape2DView_nwe0105"  d="M -1.4 -0.2 L -1.3999999999999997 0.2 " stroke="#191919" stroke-width="0.35 px" style="stroke-width:0.35;stroke-miterlimit:4;stroke-dasharray:none;fill:none;fill-opacity:1;fill-rule: evenodd"/>
<path id="Shape2DView_nwe0106"  d="M 0.925 1.15 L 0.9249999999999999 0.75 " stroke="#191919" stroke-width="0.35 px" style="stroke-width:0.35;stroke-miterlimit:4;stroke-dasharray:none;fill:none;fill-opacity:1;fill-rule: evenodd"/>
<path id="Shape2DView_nwe0107"  d="M 1.225 1.15 L 1.225 0.75 " stroke="#191919" stroke-width="0.35 px" style="stroke-width:0.35;stroke-miterlimit:4;stroke-dasharray:none;fill:none;fill-opacity:1;fill-rule: evenodd"/>
<path id="Shape2DView_nwe0108"  d="M 0.925 -0.75 L 0.9249999999999999 -1.15 " stroke="#191919" stroke-width="0.35 px" style="stroke-width:0.35;stroke-miterlimit:4;stroke-dasharray:none;fill:none;fill-opacity:1;fill-rule: evenodd"/>
<path id="Shape2DView_nwe0109"  d="M 1.225 -0.75 L 1.225 -1.15 " stroke="#191919" stroke-width="0.35 px" style="stroke-width:0.35;stroke-miterlimit:4;stroke-dasharray:none;fill:none;fill-opacity:1;fill-rule: evenodd"/>
<path id="Shape2DView_nwe0110"  d="M -0.925 -1.15 L -0.9249999999999999 -0.75 " stroke="#191919" stroke-width="0.35 px" style="stroke-width:0.35;stroke-miterlimit:4;stroke-dasharray:none;fill:none;fill-opacity:1;fill-rule: evenodd"/>
<path id="Shape2DView_nwe0111"  d="M -0.925 -0.2 L -0.9249999999999999 0.2 " stroke="#191919" stroke-width="0.35 px" style="stroke-width:0.35;stroke-miterlimit:4;stroke-dasharray:none;fill:none;fill-opacity:1;fill-rule: evenodd"/>
<path id="Shape2DView_nwe0112"  d="M -0.925 0.75 L -0.9249999999999999 1.15 " stroke="#191919" stroke-width="0.35 px" style="stroke-width:0.35;stroke-miterlimit:4;stroke-dasharray:none;fill:none;fill-opacity:1;fill-rule: evenodd"/>
<path id="Shape2DView_nwe0113"  d="M -1.225 -1.15 L -1.2249999999999999 -0.75 " stroke="#191919" stroke-width="0.35 px" style="stroke-width:0.35;stroke-miterlimit:4;stroke-dasharray:none;fill:none;fill-opacity:1;fill-rule: evenodd"/>
<path id="Shape2DView_nwe0114"  d="M -1.225 0.75 L -1.2249999999999999 1.15 " stroke="#191919" stroke-width="0.35 px" style="stroke-width:0.35;stroke-miterlimit:4;stroke-dasharray:none;fill:none;fill-opacity:1;fill-rule: evenodd"/>
<path id="Shape2DView_nwe0115"  d="M -1.225 -0.2 L -1.2249999999999999 0.2 " stroke="#191919" stroke-width="0.35 px" style="stroke-width:0.35;stroke-miterlimit:4;stroke-dasharray:none;fill:none;fill-opacity:1;fill-rule: evenodd"/>
<path id="Shape2DView_nwe0116"  d="M 0.825 0.75 L 0.75 0.75 " stroke="#191919" stroke-width="0.35 px" style="stroke-width:0.35;stroke-miterlimit:4;stroke-dasharray:none;fill:none;fill-opacity:1;fill-rule: evenodd"/>
<path id="Shape2DView_nwe0117"  d="M 0.825 1.15 L 0.75 1.15 " stroke="#191919" stroke-width="0.35 px" style="stroke-width:0.35;stroke-miterlimit:4;stroke-dasharray:none;fill:none;fill-opacity:1;fill-rule: evenodd"/>
<path id="Shape2DView_nwe0118"  d="M 0.825 -0.75 L 0.75 -0.75 " stroke="#191919" stroke-width="0.35 px" style="stroke-width:0.35;stroke-miterlimit:4;stroke-dasharray:none;fill:none;fill-opacity:1;fill-rule: evenodd"/>
<path id="Shape2DView_nwe0119"  d="M 0.825 -1.15 L 0.75 -1.15 " stroke="#191919" stroke-width="0.35 px" style="stroke-width:0.35;stroke-miterlimit:4;stroke-dasharray:none;fill:none;fill-opacity:1;fill-rule: evenodd"/>
<path id="Shape2DView_nwe0120"  d="M -0.825 -1.15 L -0.75 -1.15 " stroke="#191919" stroke-width="0.35 px" style="stroke-width:0.35;stroke-miterlimit:4;stroke-dasharray:none;fill:none;fill-opacity:1;fill-rule: evenodd"/>
<path id="Shape2DView_nwe0121"  d="M -0.825 1.15 L -0.75 1.15 " stroke="#191919" stroke-width="0.35 px" style="stroke-width:0.35;stroke-miterlimit:4;stroke-dasharray:none;fill:none;fill-opacity:1;fill-rule: evenodd"/>
<path id="Shape2DView_nwe0122"  d="M -0.825 -0.75 L -0.75 -0.7500000000000001 " stroke="#191919" stroke-width="0.35 px" style="stroke-width:0.35;stroke-miterlimit:4;stroke-dasharray:none;fill:none;fill-opacity:1;fill-rule: evenodd"/>
<path id="Shape2DView_nwe0123"  d="M -0.825 -0.20000000000000004 L -0.75 -0.20000000000000007 " stroke="#191919" stroke-width="0.35 px" style="stroke-width:0.35;stroke-miterlimit:4;stroke-dasharray:none;fill:none;fill-opacity:1;fill-rule: evenodd"/>
<path id="Shape2DView_nwe0124"  d="M -0.825 0.19999999999999998 L -0.75 0.19999999999999996 " stroke="#191919" stroke-width="0.35 px" style="stroke-width:0.35;stroke-miterlimit:4;stroke-dasharray:none;fill:none;fill-opacity:1;fill-rule: evenodd"/>
<path id="Shape2DView_nwe0125"  d="M -0.825 0.75 L -0.75 0.7499999999999999 " stroke="#191919" stroke-width="0.35 px" style="stroke-width:0.35;stroke-miterlimit:4;stroke-dasharray:none;fill:none;fill-opacity:1;fill-rule: evenodd"/>
<title>b'Shape2DView'</title>
</g>
<g id="Rectangle" transform="translate(1.428000,1.553000) scale(1,-1)">
<rect fill="#ff0000" id="origin" width="1" height="1" x="0" y="0" />
<title>b'Rectangle'</title>
</g>
</svg>