<?xml version="1.0"?>
<!DOCTYPE svg PUBLIC "-//W3C//DTD SVG 1.1//EN" "http://www.w3.org/Graphics/SVG/1.1/DTD/svg11.dtd">
<svg width="16.473mm" height="19.323mm" viewBox="0 0 16.473 19.323" xmlns="http://www.w3.org/2000/svg" version="1.1">
<g id="Shape2DView" transform="translate(8.236500,9.661500) scale(1,-1)">
<path id="Shape2DView_nwe0000"  d="M -8.075 -8.145 L -8.075 -7.095 " stroke="#191919" stroke-width="0.35 px" style="stroke-width:0.35;stroke-miterlimit:4;stroke-dasharray:none;fill:none;fill-opacity:1;fill-rule: evenodd"/>
<path id="Shape2DView_nwe0001"  d="M 8.075 -8.145 L 7.45 -8.145 " stroke="#191919" stroke-width="0.35 px" style="stroke-width:0.35;stroke-miterlimit:4;stroke-dasharray:none;fill:none;fill-opacity:1;fill-rule: evenodd"/>
<path id="Shape2DView_nwe0002"  d="M -7.449999999999999 -8.145 L -8.075 -8.145 " stroke="#191919" stroke-width="0.35 px" style="stroke-width:0.35;stroke-miterlimit:4;stroke-dasharray:none;fill:none;fill-opacity:1;fill-rule: evenodd"/>
<path id="Shape2DView_nwe0003"  d="M -8.075 -7.095 L -7.45 -7.095 " stroke="#191919" stroke-width="0.35 px" style="stroke-width:0.35;stroke-miterlimit:4;stroke-dasharray:none;fill:none;fill-opacity:1;fill-rule: evenodd"/>
<path id="Shape2DView_nwe0004"  d="M 7.449999999999999 -7.095 L 8.075 -7.095 " stroke="#191919" stroke-width="0.35 px" style="stroke-width:0.35;stroke-miterlimit:4;stroke-dasharray:none;fill:none;fill-opacity:1;fill-rule: evenodd"/>
<path id="Shape2DView_nwe0005"  d="M 8.075 -7.095 L 8.075 -8.145 " stroke="#191919" stroke-width="0.35 px" style="stroke-width:0.35;stroke-miterlimit:4;stroke-dasharray:none;fill:none;fill-opacity:1;fill-rule: evenodd"/>
<path id="Shape2DView_nwe0006"  d="M -8.075 8.145 L -7.45 8.145 " stroke="#191919" stroke-width="0.35 px" style="stroke-width:0.35;stroke-miterlimit:4;stroke-dasharray:none;fill:none;fill-opacity:1;fill-rule: evenodd"/>
<path id="Shape2DView_nwe0007"  d="M 7.449999999999999 8.145 L 8.075 8.145 " stroke="#191919" stroke-width="0.35 px" style="stroke-width:0.35;stroke-miterlimit:4;stroke-dasharray:none;fill:none;fill-opacity:1;fill-rule: evenodd"/>
<path id="Shape2DView_nwe0008"  d="M -7.449999999999999 7.095 L -8.075 7.095 " stroke="#191919" stroke-width="0.35 px" style="stroke-width:0.35;stroke-miterlimit:4;stroke-dasharray:none;fill:none;fill-opacity:1;fill-rule: evenodd"/>
<path id="Shape2DView_nwe0009"  d="M -8.075 7.095 L -8.075 8.145 " stroke="#191919" stroke-width="0.35 px" style="stroke-width:0.35;stroke-miterlimit:4;stroke-dasharray:none;fill:none;fill-opacity:1;fill-rule: evenodd"/>
<path id="Shape2DView_nwe0010"  d="M 8.075 7.095 L 7.45 7.095 " stroke="#191919" stroke-width="0.35 px" style="stroke-width:0.35;stroke-miterlimit:4;stroke-dasharray:none;fill:none;fill-opacity:1;fill-rule: evenodd"/>
<path id="Shape2DView_nwe0011"  d="M -8.075 5.605 L -7.45 5.605 " stroke="#191919" stroke-width="0.35 px" style="stroke-width:0.35;stroke-miterlimit:4;stroke-dasharray:none;fill:none;fill-opacity:1;fill-rule: evenodd"/>
<path id="Shape2DView_nwe0012"  d="M -7.45 4.555 L -8.075 4.555 " stroke="#191919" stroke-width="0.35 px" style="stroke-width:0.35;stroke-miterlimit:4;stroke-dasharray:none;fill:none;fill-opacity:1;fill-rule: evenodd"/>
<path id="Shape2DView_nwe0013"  d="M -8.075 4.555 L -8.075 5.605 " stroke="#191919" stroke-width="0.35 px" style="stroke-width:0.35;stroke-miterlimit:4;stroke-dasharray:none;fill:none;fill-opacity:1;fill-rule: evenodd"/>
<path id="Shape2DView_nwe0014"  d="M -8.075 -4.555 L -7.45 -4.555 " stroke="#191919" stroke-width="0.35 px" style="stroke-width:0.35;stroke-miterlimit:4;stroke-dasharray:none;fill:none;fill-opacity:1;fill-rule: evenodd"/>
<path id="Shape2DView_nwe0015"  d="M 7.449999999999999 -4.555 L 8.075 -4.555 " stroke="#191919" stroke-width="0.35 px" style="stroke-width:0.35;stroke-miterlimit:4;stroke-dasharray:none;fill:none;fill-opacity:1;fill-rule: evenodd"/>
<path id="Shape2DView_nwe0016"  d="M -7.449999999999999 -5.605 L -8.075 -5.605 " stroke="#191919" stroke-width="0.35 px" style="stroke-width:0.35;stroke-miterlimit:4;stroke-dasharray:none;fill:none;fill-opacity:1;fill-rule: evenodd"/>
<path id="Shape2DView_nwe0017"  d="M -8.075 -5.605 L -8.075 -4.555 " stroke="#191919" stroke-width="0.35 px" style="stroke-width:0.35;stroke-miterlimit:4;stroke-dasharray:none;fill:none;fill-opacity:1;fill-rule: evenodd"/>
<path id="Shape2DView_nwe0018"  d="M 8.075 -5.605 L 7.45 -5.605 " stroke="#191919" stroke-width="0.35 px" style="stroke-width:0.35;stroke-miterlimit:4;stroke-dasharray:none;fill:none;fill-opacity:1;fill-rule: evenodd"/>
<path id="Shape2DView_nwe0019"  d="M -7.45 8.55 L -7.45 -8.55 " stroke="#191919" stroke-width="0.35 px" style="stroke-width:0.35;stroke-miterlimit:4;stroke-dasharray:none;fill:none;fill-opacity:1;fill-rule: evenodd"/>
<path id="Shape2DView_nwe0020"  d="M 8.075 -4.555 L 8.075 -5.605 " stroke="#191919" stroke-width="0.35 px" style="stroke-width:0.35;stroke-miterlimit:4;stroke-dasharray:none;fill:none;fill-opacity:1;fill-rule: evenodd"/>
<path id="Shape2DView_nwe0021"  d="M 8.075 8.145 L 8.075 7.095 " stroke="#191919" stroke-width="0.35 px" style="stroke-width:0.35;stroke-miterlimit:4;stroke-dasharray:none;fill:none;fill-opacity:1;fill-rule: evenodd"/>
<path id="Shape2DView_nwe0022"  d="M 7.45 -8.55 L 7.45 8.55 " stroke="#191919" stroke-width="0.35 px" style="stroke-width:0.35;stroke-miterlimit:4;stroke-dasharray:none;fill:none;fill-opacity:1;fill-rule: evenodd"/>
<path id="Shape2DView_nwe0023"  d="M -6.5 -9.5 L 6.5 -9.5 " stroke="#191919" stroke-width="0.35 px" style="stroke-width:0.35;stroke-miterlimit:4;stroke-dasharray:none;fill:none;fill-opacity:1;fill-rule: evenodd"/>
<path id="Shape2DView_nwe0024"  d="M 6.5 9.5 L -6.5 9.5 " stroke="#191919" stroke-width="0.35 px" style="stroke-width:0.35;stroke-miterlimit:4;stroke-dasharray:none;fill:none;fill-opacity:1;fill-rule: evenodd"/>
<path id="Shape2DView_nwe0025"  d="M -7.45 -8.55 A 0.95 0.95 0 0 1 -6.5 -9.5" stroke="#191919" stroke-width="0.35 px" style="stroke-width:0.35;stroke-miterlimit:4;stroke-dasharray:none;fill:none;fill-opacity:1;fill-rule: evenodd"/>
<path id="Shape2DView_nwe0026"  d="M -6.5 9.5 A 0.95 0.95 0 0 1 -7.45 8.55" stroke="#191919" stroke-width="0.35 px" style="stroke-width:0.35;stroke-miterlimit:4;stroke-dasharray:none;fill:none;fill-opacity:1;fill-rule: evenodd"/>
<path id="Shape2DView_nwe0027"  d="M 6.5 -9.5 A 0.95 0.95 0 0 1 7.45 -8.55" stroke="#191919" stroke-width="0.35 px" style="stroke-width:0.35;stroke-miterlimit:4;stroke-dasharray:none;fill:none;fill-opacity:1;fill-rule: evenodd"/>
<path id="Shape2DView_nwe0028"  d="M 7.45 8.55 A 0.95 0.95 0 0 1 6.5 9.5" stroke="#191919" stroke-width="0.35 px" style="stroke-width:0.35;stroke-miterlimit:4;stroke-dasharray:none;fill:none;fill-opacity:1;fill-rule: evenodd"/>
<path id="Shape2DView_nwe0031"  d="M -7.449999999999999 -8.55 L -7.4470132996992895 -8.55 L -7.438090758286366 -8.55 L -7.423344581896474 -8.55 L -7.402960212253649 -8.55 L -7.377193994633434 -8.55 L -7.346369954172314 -8.55 L -7.31087572106361 -8.55 L -7.271157655882898 -8.55 L -7.2277152363447845 -8.55 L -7.1810947760808395 -8.55 L -7.131882554428704 -8.55 L -7.080697443629249 -8.55 L -7.028183126149071 -8.55 L -6.975 -8.55 " stroke="#191919" stroke-width="0.35 px" style="stroke-width:0.35;stroke-miterlimit:4;stroke-dasharray:none;fill:none;fill-opacity:1;fill-rule: evenodd"/>
<path id="Shape2DView_nwe0032"  d="M -6.975 8.55 L -6.975 -8.55 " stroke="#191919" stroke-width="0.35 px" style="stroke-width:0.35;stroke-miterlimit:4;stroke-dasharray:none;fill:none;fill-opacity:1;fill-rule: evenodd"/>
<path id="Shape2DView_nwe0033"  d="M -7.449999999999999 8.55 L -7.4470132996992895 8.55 L -7.438090758286366 8.55 L -7.423344581896474 8.55 L -7.402960212253649 8.55 L -7.377193994633434 8.55 L -7.346369954172314 8.55 L -7.31087572106361 8.55 L -7.271157655882898 8.55 L -7.2277152363447845 8.55 L -7.1810947760808395 8.55 L -7.131882554428704 8.55 L -7.080697443629249 8.55 L -7.028183126149071 8.55 L -6.975 8.55 " stroke="#191919" stroke-width="0.35 px" style="stroke-width:0.35;stroke-miterlimit:4;stroke-dasharray:none;fill:none;fill-opacity:1;fill-rule: evenodd"/>
<path id="Shape2DView_nwe0036"  d="M 7.449999999999999 8.55 L 7.4470132996992895 8.55 L 7.438090758286366 8.55 L 7.423344581896474 8.55 L 7.402960212253649 8.55 L 7.377193994633434 8.55 L 7.346369954172314 8.55 L 7.31087572106361 8.55 L 7.271157655882898 8.55 L 7.2277152363447845 8.55 L 7.1810947760808395 8.55 L 7.131882554428704 8.55 L 7.080697443629249 8.55 L 7.028183126149071 8.55 L 6.975 8.55 " stroke="#191919" stroke-width="0.35 px" style="stroke-width:0.35;stroke-miterlimit:4;stroke-dasharray:none;fill:none;fill-opacity:1;fill-rule: evenodd"/>
<path id="Shape2DView_nwe0037"  d="M 6.975 -8.55 L 6.975 8.55 " stroke="#191919" stroke-width="0.35 px" style="stroke-width:0.35;stroke-miterlimit:4;stroke-dasharray:none;fill:none;fill-opacity:1;fill-rule: evenodd"/>
<path id="Shape2DView_nwe0038"  d="M 7.449999999999999 -8.55 L 7.4470132996992895 -8.55 L 7.438090758286366 -8.55 L 7.423344581896474 -8.55 L 7.402960212253649 -8.55 L 7.377193994633434 -8.55 L 7.346369954172314 -8.55 L 7.31087572106361 -8.55 L 7.271157655882898 -8.55 L 7.2277152363447845 -8.55 L 7.1810947760808395 -8.55 L 7.131882554428704 -8.55 L 7.080697443629249 -8.55 L 7.028183126149071 -8.55 L 6.975 -8.55 " stroke="#191919" stroke-width="0.35 px" style="stroke-width:0.35;stroke-miterlimit:4;stroke-dasharray:none;fill:none;fill-opacity:1;fill-rule: evenodd"/>
<path id="Shape2DView_nwe0039"  d="M -6.5 -9.5 L -6.5 -9.49701329969929 L -6.5 -9.488090758286367 L -6.5 -9.473344581896475 L -6.5 -9.45296021225365 L -6.5 -9.427193994633436 L -6.5 -9.396369954172314 L -6.5 -9.36087572106361 L -6.5 -9.3211576558829 L -6.5 -9.277715236344786 L -6.5 -9.231094776080841 L -6.5 -9.181882554428705 L -6.5 -9.13069744362925 L -6.5 -9.07818312614907 L -6.5 -9.025 " stroke="#191919" stroke-width="0.35 px" style="stroke-width:0.35;stroke-miterlimit:4;stroke-dasharray:none;fill:none;fill-opacity:1;fill-rule: evenodd"/>
<path id="Shape2DView_nwe0040"  d="M -6.975 -8.55 A 0.475 0.475 0 0 1 -6.5 -9.025" stroke="#191919" stroke-width="0.35 px" style="stroke-width:0.35;stroke-miterlimit:4;stroke-dasharray:none;fill:none;fill-opacity:1;fill-rule: evenodd"/>
<path id="Shape2DView_nwe0041"  d="M -6.5 9.5 L -6.5 9.49701329969929 L -6.5 9.488090758286367 L -6.5 9.473344581896475 L -6.5 9.45296021225365 L -6.5 9.427193994633436 L -6.5 9.396369954172314 L -6.5 9.36087572106361 L -6.5 9.3211576558829 L -6.5 9.277715236344786 L -6.5 9.231094776080841 L -6.5 9.181882554428705 L -6.5 9.13069744362925 L -6.5 9.07818312614907 L -6.5 9.025 " stroke="#191919" stroke-width="0.35 px" style="stroke-width:0.35;stroke-miterlimit:4;stroke-dasharray:none;fill:none;fill-opacity:1;fill-rule: evenodd"/>
<path id="Shape2DView_nwe0042"  d="M -6.5 9.025 A 0.475 0.475 0 0 1 -6.975 8.55" stroke="#191919" stroke-width="0.35 px" style="stroke-width:0.35;stroke-miterlimit:4;stroke-dasharray:none;fill:none;fill-opacity:1;fill-rule: evenodd"/>
<path id="Shape2DView_nwe0043"  d="M 6.5 9.025 L -6.5 9.025 " stroke="#191919" stroke-width="0.35 px" style="stroke-width:0.35;stroke-miterlimit:4;stroke-dasharray:none;fill:none;fill-opacity:1;fill-rule: evenodd"/>
<path id="Shape2DView_nwe0044"  d="M -6.5 -9.025 L 6.5 -9.025 " stroke="#191919" stroke-width="0.35 px" style="stroke-width:0.35;stroke-miterlimit:4;stroke-dasharray:none;fill:none;fill-opacity:1;fill-rule: evenodd"/>
<path id="Shape2DView_nwe0045"  d="M 6.5 -9.025 A 0.475 0.475 0 0 1 6.975 -8.55" stroke="#191919" stroke-width="0.35 px" style="stroke-width:0.35;stroke-miterlimit:4;stroke-dasharray:none;fill:none;fill-opacity:1;fill-rule: evenodd"/>
<path id="Shape2DView_nwe0046"  d="M 6.975 8.55 A 0.475 0.475 0 0 1 6.5 9.025" stroke="#191919" stroke-width="0.35 px" style="stroke-width:0.35;stroke-miterlimit:4;stroke-dasharray:none;fill:none;fill-opacity:1;fill-rule: evenodd"/>
<path id="Shape2DView_nwe0047"  d="M 6.5 -9.5 L 6.5 -9.49701329969929 L 6.5 -9.488090758286367 L 6.5 -9.473344581896475 L 6.5 -9.45296021225365 L 6.5 -9.427193994633436 L 6.5 -9.396369954172314 L 6.5 -9.36087572106361 L 6.5 -9.3211576558829 L 6.5 -9.277715236344786 L 6.5 -9.231094776080841 L 6.5 -9.181882554428705 L 6.5 -9.13069744362925 L 6.5 -9.07818312614907 L 6.5 -9.025 " stroke="#191919" stroke-width="0.35 px" style="stroke-width:0.35;stroke-miterlimit:4;stroke-dasharray:none;fill:none;fill-opacity:1;fill-rule: evenodd"/>
<path id="Shape2DView_nwe0048"  d="M 6.5 9.5 L 6.5 9.49701329969929 L 6.5 9.488090758286367 L 6.5 9.473344581896475 L 6.5 9.45296021225365 L 6.5 9.427193994633436 L 6.5 9.396369954172314 L 6.5 9.36087572106361 L 6.5 9.3211576558829 L 6.5 9.277715236344786 L 6.5 9.231094776080841 L 6.5 9.181882554428705 L 6.5 9.13069744362925 L 6.5 9.07818312614907 L 6.5 9.025 " stroke="#191919" stroke-width="0.35 px" style="stroke-width:0.35;stroke-miterlimit:4;stroke-dasharray:none;fill:none;fill-opacity:1;fill-rule: evenodd"/>
<title>b'Shape2DView'</title>
</g>
<g id="Rectangle" transform="translate(8.236500,9.661500) scale(1,-1)">
<rect fill="#ff0000" id="origin" width="1" height="1" x="0" y="0" />
<title>b'Rectangle'</title>
</g>
</svg>