<?xml version="1.0"?>
<!DOCTYPE svg PUBLIC "-//W3C//DTD SVG 1.1//EN" "http://www.w3.org/Graphics/SVG/1.1/DTD/svg11.dtd">
<svg width="9.384mm" height="22.034mm" viewBox="0 0 9.384 22.034" xmlns="http://www.w3.org/2000/svg" version="1.1">
<g id="Shape2DView" transform="translate(6.092000,2.127000) scale(1,-1)">
<path id="Shape2DView_nwe0000"  d="M -6.0 -19.565 L -6.0 1.7850000000000001 " stroke="#191919" stroke-width="0.35 px" style="stroke-width:0.35;stroke-miterlimit:4;stroke-dasharray:none;fill:none;fill-opacity:1;fill-rule: evenodd"/>
<path id="Shape2DView_nwe0001"  d="M 3.2 1.785 L 3.2 -19.565 " stroke="#191919" stroke-width="0.35 px" style="stroke-width:0.35;stroke-miterlimit:4;stroke-dasharray:none;fill:none;fill-opacity:1;fill-rule: evenodd"/>
<path id="Shape2DView_nwe0002"  d="M -6.0 1.785 A 0.25 0.25 0 0 0 -5.75 2.035" stroke="#191919" stroke-width="0.35 px" style="stroke-width:0.35;stroke-miterlimit:4;stroke-dasharray:none;fill:none;fill-opacity:1;fill-rule: evenodd"/>
<path id="Shape2DView_nwe0003"  d="M -5.75 2.035 L 2.9499999999999993 2.035 " stroke="#191919" stroke-width="0.35 px" style="stroke-width:0.35;stroke-miterlimit:4;stroke-dasharray:none;fill:none;fill-opacity:1;fill-rule: evenodd"/>
<path id="Shape2DView_nwe0004"  d="M -5.75 -19.815 A 0.25 0.25 0 0 0 -6 -19.565" stroke="#191919" stroke-width="0.35 px" style="stroke-width:0.35;stroke-miterlimit:4;stroke-dasharray:none;fill:none;fill-opacity:1;fill-rule: evenodd"/>
<path id="Shape2DView_nwe0005"  d="M 2.95 -19.815 L -5.749999999999999 -19.815 " stroke="#191919" stroke-width="0.35 px" style="stroke-width:0.35;stroke-miterlimit:4;stroke-dasharray:none;fill:none;fill-opacity:1;fill-rule: evenodd"/>
<path id="Shape2DView_nwe0006"  d="M 2.9500000000000006 2.035 A 0.25 0.25 0 0 0 3.2 1.785" stroke="#191919" stroke-width="0.35 px" style="stroke-width:0.35;stroke-miterlimit:4;stroke-dasharray:none;fill:none;fill-opacity:1;fill-rule: evenodd"/>
<path id="Shape2DView_nwe0007"  d="M 3.2 -19.565 A 0.25 0.25 0 0 0 2.95 -19.815" stroke="#191919" stroke-width="0.35 px" style="stroke-width:0.35;stroke-miterlimit:4;stroke-dasharray:none;fill:none;fill-opacity:1;fill-rule: evenodd"/>
<path id="Shape2DView_nwe0009"  d="M -5.75 -19.565 L -5.75 1.7850000000000001 " stroke="#191919" stroke-width="0.35 px" style="stroke-width:0.35;stroke-miterlimit:4;stroke-dasharray:none;fill:none;fill-opacity:1;fill-rule: evenodd"/>
<path id="Shape2DView_nwe0010"  d="M -5.75 1.785 L -5.777991119025827 1.785 L -5.805630233489079 1.785 L -5.832569765488792 1.785 L -5.8584709347793895 1.785 L -5.883008019128834 1.785 L -5.905872450464684 1.785 L -5.9267766952966365 1.785 L -5.945457870617007 1.785 L -5.961681049807071 1.785 L -5.975242216975605 1.785 L -5.985970832577092 1.785 L -5.993731978045456 1.785 L -5.998428052473311 1.785 L -6.0 1.785 " stroke="#191919" stroke-width="0.35 px" style="stroke-width:0.35;stroke-miterlimit:4;stroke-dasharray:none;fill:none;fill-opacity:1;fill-rule: evenodd"/>
<path id="Shape2DView_nwe0011"  d="M -5.75 -19.565 L -5.777991119025827 -19.565 L -5.805630233489079 -19.565 L -5.832569765488792 -19.565 L -5.8584709347793895 -19.565 L -5.883008019128834 -19.565 L -5.905872450464683 -19.565 L -5.9267766952966365 -19.565 L -5.945457870617007 -19.565 L -5.961681049807071 -19.565 L -5.975242216975605 -19.565 L -5.985970832577092 -19.565 L -5.993731978045456 -19.565 L -5.998428052473311 -19.565 L -6.0 -19.565 " stroke="#191919" stroke-width="0.35 px" style="stroke-width:0.35;stroke-miterlimit:4;stroke-dasharray:none;fill:none;fill-opacity:1;fill-rule: evenodd"/>
<path id="Shape2DView_nwe0014"  d="M 2.95 1.785 L 2.95 -19.565 " stroke="#191919" stroke-width="0.35 px" style="stroke-width:0.35;stroke-miterlimit:4;stroke-dasharray:none;fill:none;fill-opacity:1;fill-rule: evenodd"/>
<path id="Shape2DView_nwe0015"  d="M 2.95 -19.565 L 2.9779911190258272 -19.565 L 3.0056302334890788 -19.565 L 3.032569765488792 -19.565 L 3.0584709347793897 -19.565 L 3.0830080191288345 -19.565 L 3.1058724504646835 -19.565 L 3.126776695296637 -19.565 L 3.1454578706170078 -19.565 L 3.161681049807071 -19.565 L 3.175242216975605 -19.565 L 3.185970832577092 -19.565 L 3.1937319780454563 -19.565 L 3.198428052473311 -19.565 L 3.2 -19.565 " stroke="#191919" stroke-width="0.35 px" style="stroke-width:0.35;stroke-miterlimit:4;stroke-dasharray:none;fill:none;fill-opacity:1;fill-rule: evenodd"/>
<path id="Shape2DView_nwe0016"  d="M 2.95 1.785 L 2.9779911190258272 1.785 L 3.0056302334890788 1.785 L 3.032569765488792 1.7849999999999997 L 3.0584709347793897 1.7849999999999997 L 3.083008019128834 1.7849999999999997 L 3.1058724504646835 1.7849999999999997 L 3.126776695296637 1.7849999999999997 L 3.1454578706170078 1.7849999999999995 L 3.161681049807071 1.7849999999999995 L 3.175242216975605 1.7849999999999995 L 3.185970832577092 1.7849999999999995 L 3.193731978045456 1.7849999999999995 L 3.198428052473311 1.7849999999999995 L 3.2 1.7849999999999995 " stroke="#191919" stroke-width="0.35 px" style="stroke-width:0.35;stroke-miterlimit:4;stroke-dasharray:none;fill:none;fill-opacity:1;fill-rule: evenodd"/>
<path id="Shape2DView_nwe0018"  d="M -5.75 1.785 L -5.75 1.812991119025827 L -5.75 1.8406302334890785 L -5.75 1.8675697654887917 L -5.75 1.8934709347793894 L -5.75 1.918008019128834 L -5.75 1.9408724504646833 L -5.75 1.9617766952966367 L -5.75 1.9804578706170073 L -5.75 1.996681049807071 L -5.75 2.010242216975605 L -5.75 2.020970832577092 L -5.75 2.028731978045456 L -5.75 2.0334280524733104 L -5.75 2.035 " stroke="#191919" stroke-width="0.35 px" style="stroke-width:0.35;stroke-miterlimit:4;stroke-dasharray:none;fill:none;fill-opacity:1;fill-rule: evenodd"/>
<path id="Shape2DView_nwe0019"  d="M -5.75 -19.565 L -5.75 -19.59299111902583 L -5.75 -19.62063023348908 L -5.75 -19.647569765488793 L -5.75 -19.67347093477939 L -5.75 -19.698008019128835 L -5.75 -19.720872450464686 L -5.75 -19.74177669529664 L -5.75 -19.76045787061701 L -5.75 -19.776681049807074 L -5.75 -19.790242216975606 L -5.75 -19.800970832577093 L -5.75 -19.808731978045458 L -5.75 -19.813428052473313 L -5.75 -19.815 " stroke="#191919" stroke-width="0.35 px" style="stroke-width:0.35;stroke-miterlimit:4;stroke-dasharray:none;fill:none;fill-opacity:1;fill-rule: evenodd"/>
<path id="Shape2DView_nwe0020"  d="M -5.75 1.785 L 2.9499999999999993 1.785 " stroke="#191919" stroke-width="0.35 px" style="stroke-width:0.35;stroke-miterlimit:4;stroke-dasharray:none;fill:none;fill-opacity:1;fill-rule: evenodd"/>
<path id="Shape2DView_nwe0021"  d="M 2.95 -19.565 L -5.749999999999999 -19.565 " stroke="#191919" stroke-width="0.35 px" style="stroke-width:0.35;stroke-miterlimit:4;stroke-dasharray:none;fill:none;fill-opacity:1;fill-rule: evenodd"/>
<path id="Shape2DView_nwe0022"  d="M 2.95 1.785 L 2.95 1.812991119025827 L 2.95 1.8406302334890785 L 2.95 1.8675697654887917 L 2.95 1.8934709347793894 L 2.95 1.918008019128834 L 2.95 1.9408724504646833 L 2.95 1.9617766952966367 L 2.95 1.9804578706170073 L 2.95 1.996681049807071 L 2.95 2.010242216975605 L 2.95 2.020970832577092 L 2.95 2.028731978045456 L 2.95 2.0334280524733104 L 2.95 2.035 " stroke="#191919" stroke-width="0.35 px" style="stroke-width:0.35;stroke-miterlimit:4;stroke-dasharray:none;fill:none;fill-opacity:1;fill-rule: evenodd"/>
<path id="Shape2DView_nwe0023"  d="M 2.95 -19.565 L 2.95 -19.59299111902583 L 2.95 -19.62063023348908 L 2.95 -19.647569765488793 L 2.95 -19.67347093477939 L 2.95 -19.698008019128835 L 2.95 -19.720872450464686 L 2.95 -19.74177669529664 L 2.95 -19.76045787061701 L 2.95 -19.776681049807074 L 2.95 -19.790242216975606 L 2.95 -19.800970832577093 L 2.95 -19.808731978045458 L 2.95 -19.813428052473313 L 2.95 -19.815 " stroke="#191919" stroke-width="0.35 px" style="stroke-width:0.35;stroke-miterlimit:4;stroke-dasharray:none;fill:none;fill-opacity:1;fill-rule: evenodd"/>
<title>b'Shape2DView'</title>
</g>
<g id="Rectangle" transform="translate(6.092000,2.127000) scale(1,-1)">
<rect fill="#ff0000" id="origin" width="1" height="1" x="0" y="0" />
<title>b'Rectangle'</title>
</g>
</svg>