<?xml version="1.0"?>
<!DOCTYPE svg PUBLIC "-//W3C//DTD SVG 1.1//EN" "http://www.w3.org/Graphics/SVG/1.1/DTD/svg11.dtd">
<svg width="11.832mm" height="8.732mm" viewBox="0 0 11.832 8.732" xmlns="http://www.w3.org/2000/svg" version="1.1">
<g id="Shape2DView" transform="translate(2.116000,6.616000) scale(1,-1)">
<path id="Shape2DView_nwe0000"  d="M 9.6 6.075 L 9.6 -1.5750000000000002 " stroke="#191919" stroke-width="0.35 px" style="stroke-width:0.35;stroke-miterlimit:4;stroke-dasharray:none;fill:none;fill-opacity:1;fill-rule: evenodd"/>
<path id="Shape2DView_nwe0001"  d="M -1.575 6.5 L 9.175 6.5 " stroke="#191919" stroke-width="0.35 px" style="stroke-width:0.35;stroke-miterlimit:4;stroke-dasharray:none;fill:none;fill-opacity:1;fill-rule: evenodd"/>
<path id="Shape2DView_nwe0002"  d="M 9.175 -2.0 L -1.5749999999999993 -2.0 " stroke="#191919" stroke-width="0.35 px" style="stroke-width:0.35;stroke-miterlimit:4;stroke-dasharray:none;fill:none;fill-opacity:1;fill-rule: evenodd"/>
<path id="Shape2DView_nwe0003"  d="M -2.0 -1.575 L -2.0 6.075 " stroke="#191919" stroke-width="0.35 px" style="stroke-width:0.35;stroke-miterlimit:4;stroke-dasharray:none;fill:none;fill-opacity:1;fill-rule: evenodd"/>
<path id="Shape2DView_nwe0004"  d="M 9.175 6.5 A 0.425 0.425 0 0 0 9.6 6.075" stroke="#191919" stroke-width="0.35 px" style="stroke-width:0.35;stroke-miterlimit:4;stroke-dasharray:none;fill:none;fill-opacity:1;fill-rule: evenodd"/>
<path id="Shape2DView_nwe0005"  d="M 9.600000000000001 -1.5749999999999995 A 0.425 0.425 0 0 0 9.175 -2" stroke="#191919" stroke-width="0.35 px" style="stroke-width:0.35;stroke-miterlimit:4;stroke-dasharray:none;fill:none;fill-opacity:1;fill-rule: evenodd"/>
<path id="Shape2DView_nwe0006"  d="M -2.0 6.075000000000001 A 0.425 0.425 0 0 0 -1.575 6.5" stroke="#191919" stroke-width="0.35 px" style="stroke-width:0.35;stroke-miterlimit:4;stroke-dasharray:none;fill:none;fill-opacity:1;fill-rule: evenodd"/>
<path id="Shape2DView_nwe0007"  d="M -1.575 -2.0 A 0.425 0.425 0 0 0 -2 -1.575" stroke="#191919" stroke-width="0.35 px" style="stroke-width:0.35;stroke-miterlimit:4;stroke-dasharray:none;fill:none;fill-opacity:1;fill-rule: evenodd"/>
<path id="Shape2DView_nwe0012"  d="M 9.6 6.075 L 9.598663844602314 6.075 L 9.594672181338638 6.075 L 9.588075207690528 6.075 L 9.578955884429263 6.075 L 9.56742889233601 6.075 L 9.553639190024455 6.075 L 9.53776019100214 6.075 L 9.51999158289498 6.075 L 9.500556816259508 6.075 L 9.47970029456248 6.075 L 9.457684300665472 6.075 L 9.434785698465715 6.075 L 9.411292451171953 6.075 L 9.3875 6.075 " stroke="#191919" stroke-width="0.35 px" style="stroke-width:0.35;stroke-miterlimit:4;stroke-dasharray:none;fill:none;fill-opacity:1;fill-rule: evenodd"/>
<path id="Shape2DView_nwe0013"  d="M 9.3875 6.075 L 9.3875 -1.5750000000000002 " stroke="#191919" stroke-width="0.35 px" style="stroke-width:0.35;stroke-miterlimit:4;stroke-dasharray:none;fill:none;fill-opacity:1;fill-rule: evenodd"/>
<path id="Shape2DView_nwe0014"  d="M 9.6 -1.575 L 9.598663844602314 -1.575 L 9.594672181338638 -1.575 L 9.588075207690528 -1.575 L 9.578955884429263 -1.575 L 9.56742889233601 -1.575 L 9.553639190024455 -1.575 L 9.53776019100214 -1.575 L 9.51999158289498 -1.575 L 9.500556816259508 -1.575 L 9.47970029456248 -1.575 L 9.457684300665472 -1.575 L 9.434785698465715 -1.575 L 9.411292451171953 -1.575 L 9.3875 -1.575 " stroke="#191919" stroke-width="0.35 px" style="stroke-width:0.35;stroke-miterlimit:4;stroke-dasharray:none;fill:none;fill-opacity:1;fill-rule: evenodd"/>
<path id="Shape2DView_nwe0015"  d="M 9.175 6.2875000000000005 A 0.2125 0.2125 0 0 0 9.3875 6.075" stroke="#191919" stroke-width="0.35 px" style="stroke-width:0.35;stroke-miterlimit:4;stroke-dasharray:none;fill:none;fill-opacity:1;fill-rule: evenodd"/>
<path id="Shape2DView_nwe0016"  d="M 9.175 6.5 L 9.175 6.498663844602314 L 9.175 6.494672181338637 L 9.175 6.488075207690528 L 9.175 6.478955884429264 L 9.175 6.46742889233601 L 9.175 6.453639190024456 L 9.175 6.437760191002141 L 9.175 6.419991582894981 L 9.175 6.400556816259509 L 9.175 6.379700294562481 L 9.175 6.357684300665473 L 9.175 6.3347856984657165 L 9.175 6.311292451171952 L 9.175 6.2875 " stroke="#191919" stroke-width="0.35 px" style="stroke-width:0.35;stroke-miterlimit:4;stroke-dasharray:none;fill:none;fill-opacity:1;fill-rule: evenodd"/>
<path id="Shape2DView_nwe0017"  d="M 9.387500000000001 -1.5749999999999997 A 0.2125 0.2125 0 0 0 9.175 -1.7875" stroke="#191919" stroke-width="0.35 px" style="stroke-width:0.35;stroke-miterlimit:4;stroke-dasharray:none;fill:none;fill-opacity:1;fill-rule: evenodd"/>
<path id="Shape2DView_nwe0018"  d="M 9.175 -2.0 L 9.175 -1.9986638446023142 L 9.175 -1.9946721813386377 L 9.175 -1.9880752076905281 L 9.175 -1.978955884429264 L 9.175 -1.9674288923360104 L 9.175 -1.9536391900244565 L 9.175 -1.9377601910021414 L 9.175 -1.919991582894981 L 9.175 -1.900556816259509 L 9.175 -1.8797002945624812 L 9.175 -1.857684300665473 L 9.175 -1.834785698465717 L 9.175 -1.811292451171953 L 9.175 -1.7875 " stroke="#191919" stroke-width="0.35 px" style="stroke-width:0.35;stroke-miterlimit:4;stroke-dasharray:none;fill:none;fill-opacity:1;fill-rule: evenodd"/>
<path id="Shape2DView_nwe0019"  d="M -1.575 6.5 L -1.575 6.498663844602314 L -1.575 6.494672181338637 L -1.575 6.488075207690528 L -1.575 6.478955884429264 L -1.575 6.46742889233601 L -1.575 6.453639190024456 L -1.575 6.437760191002141 L -1.575 6.419991582894981 L -1.575 6.400556816259509 L -1.575 6.379700294562481 L -1.575 6.357684300665473 L -1.575 6.3347856984657165 L -1.575 6.311292451171952 L -1.575 6.2875 " stroke="#191919" stroke-width="0.35 px" style="stroke-width:0.35;stroke-miterlimit:4;stroke-dasharray:none;fill:none;fill-opacity:1;fill-rule: evenodd"/>
<path id="Shape2DView_nwe0020"  d="M -1.575 6.2875 L 9.175 6.2875 " stroke="#191919" stroke-width="0.35 px" style="stroke-width:0.35;stroke-miterlimit:4;stroke-dasharray:none;fill:none;fill-opacity:1;fill-rule: evenodd"/>
<path id="Shape2DView_nwe0021"  d="M 9.175 -1.7875 L -1.5749999999999993 -1.7875 " stroke="#191919" stroke-width="0.35 px" style="stroke-width:0.35;stroke-miterlimit:4;stroke-dasharray:none;fill:none;fill-opacity:1;fill-rule: evenodd"/>
<path id="Shape2DView_nwe0022"  d="M -1.575 -2.0 L -1.575 -1.9986638446023142 L -1.575 -1.9946721813386377 L -1.575 -1.9880752076905281 L -1.575 -1.978955884429264 L -1.575 -1.9674288923360104 L -1.575 -1.9536391900244565 L -1.575 -1.9377601910021414 L -1.575 -1.919991582894981 L -1.575 -1.900556816259509 L -1.575 -1.8797002945624812 L -1.575 -1.857684300665473 L -1.575 -1.834785698465717 L -1.575 -1.811292451171953 L -1.575 -1.7875 " stroke="#191919" stroke-width="0.35 px" style="stroke-width:0.35;stroke-miterlimit:4;stroke-dasharray:none;fill:none;fill-opacity:1;fill-rule: evenodd"/>
<path id="Shape2DView_nwe0023"  d="M -1.7874999999999999 6.075 A 0.2125 0.2125 0 0 0 -1.575 6.2875" stroke="#191919" stroke-width="0.35 px" style="stroke-width:0.35;stroke-miterlimit:4;stroke-dasharray:none;fill:none;fill-opacity:1;fill-rule: evenodd"/>
<path id="Shape2DView_nwe0024"  d="M -2.0 6.075 L -1.9986638446023142 6.075 L -1.9946721813386377 6.075 L -1.9880752076905281 6.075 L -1.978955884429264 6.075 L -1.9674288923360104 6.075 L -1.9536391900244565 6.075 L -1.9377601910021414 6.075 L -1.919991582894981 6.075 L -1.900556816259509 6.075 L -1.8797002945624812 6.075 L -1.857684300665473 6.075 L -1.834785698465717 6.075 L -1.811292451171953 6.075 L -1.7875 6.075 " stroke="#191919" stroke-width="0.35 px" style="stroke-width:0.35;stroke-miterlimit:4;stroke-dasharray:none;fill:none;fill-opacity:1;fill-rule: evenodd"/>
<path id="Shape2DView_nwe0025"  d="M -1.575 -1.7874999999999999 A 0.2125 0.2125 0 0 0 -1.7875 -1.575" stroke="#191919" stroke-width="0.35 px" style="stroke-width:0.35;stroke-miterlimit:4;stroke-dasharray:none;fill:none;fill-opacity:1;fill-rule: evenodd"/>
<path id="Shape2DView_nwe0026"  d="M -2.0 -1.5750000000000002 L -1.9986638446023142 -1.5750000000000002 L -1.9946721813386377 -1.5750000000000002 L -1.9880752076905281 -1.5750000000000002 L -1.978955884429264 -1.5750000000000002 L -1.9674288923360104 -1.5750000000000002 L -1.9536391900244565 -1.5750000000000002 L -1.9377601910021414 -1.5750000000000002 L -1.919991582894981 -1.5750000000000002 L -1.900556816259509 -1.5750000000000002 L -1.8797002945624812 -1.575 L -1.857684300665473 -1.575 L -1.834785698465717 -1.575 L -1.811292451171953 -1.575 L -1.7875 -1.575 " stroke="#191919" stroke-width="0.35 px" style="stroke-width:0.35;stroke-miterlimit:4;stroke-dasharray:none;fill:none;fill-opacity:1;fill-rule: evenodd"/>
<path id="Shape2DView_nwe0027"  d="M -1.7875 -1.575 L -1.7875 6.075 " stroke="#191919" stroke-width="0.35 px" style="stroke-width:0.35;stroke-miterlimit:4;stroke-dasharray:none;fill:none;fill-opacity:1;fill-rule: evenodd"/>
<title>b'Shape2DView'</title>
</g>
<g id="Rectangle" transform="translate(2.116000,6.616000) scale(1,-1)">
<rect fill="#ff0000" id="origin" width="1" height="1" x="0" y="0" />
<title>b'Rectangle'</title>
</g>
</svg>