<?xml version="1.0"?>
<!DOCTYPE svg PUBLIC "-//W3C//DTD SVG 1.1//EN" "http://www.w3.org/Graphics/SVG/1.1/DTD/svg11.dtd">
<svg width="25.907999999999998mm" height="51.308mm" viewBox="0 0 25.907999999999998 51.308" xmlns="http://www.w3.org/2000/svg" version="1.1">
<g id="Shape2DView" transform="translate(10.374000,15.454000) scale(1,-1)">
<path id="Shape2DView_nwe0000"  d="M 15.28 14.2 L 15.28 -34.599999999999994 " stroke="#191919" stroke-width="0.35 px" style="stroke-width:0.35;stroke-miterlimit:4;stroke-dasharray:none;fill:none;fill-opacity:1;fill-rule: evenodd"/>
<path id="Shape2DView_nwe0001"  d="M -9.12 15.2 L 14.28 15.2 " stroke="#191919" stroke-width="0.35 px" style="stroke-width:0.35;stroke-miterlimit:4;stroke-dasharray:none;fill:none;fill-opacity:1;fill-rule: evenodd"/>
<path id="Shape2DView_nwe0002"  d="M 14.28 -35.6 L -9.12 -35.6 " stroke="#191919" stroke-width="0.35 px" style="stroke-width:0.35;stroke-miterlimit:4;stroke-dasharray:none;fill:none;fill-opacity:1;fill-rule: evenodd"/>
<path id="Shape2DView_nwe0003"  d="M -10.12 -34.6 L -10.12 14.199999999999996 " stroke="#191919" stroke-width="0.35 px" style="stroke-width:0.35;stroke-miterlimit:4;stroke-dasharray:none;fill:none;fill-opacity:1;fill-rule: evenodd"/>
<path id="Shape2DView_nwe0004"  d="M 14.28 15.2 A 1 1 0 0 0 15.28 14.2" stroke="#191919" stroke-width="0.35 px" style="stroke-width:0.35;stroke-miterlimit:4;stroke-dasharray:none;fill:none;fill-opacity:1;fill-rule: evenodd"/>
<path id="Shape2DView_nwe0005"  d="M 15.28 -34.6 A 1 1 0 0 0 14.28 -35.6" stroke="#191919" stroke-width="0.35 px" style="stroke-width:0.35;stroke-miterlimit:4;stroke-dasharray:none;fill:none;fill-opacity:1;fill-rule: evenodd"/>
<path id="Shape2DView_nwe0006"  d="M -10.12 14.2 A 1 1 0 0 0 -9.12 15.2" stroke="#191919" stroke-width="0.35 px" style="stroke-width:0.35;stroke-miterlimit:4;stroke-dasharray:none;fill:none;fill-opacity:1;fill-rule: evenodd"/>
<path id="Shape2DView_nwe0007"  d="M -9.12 -35.6 A 1 1 0 0 0 -10.12 -34.6" stroke="#191919" stroke-width="0.35 px" style="stroke-width:0.35;stroke-miterlimit:4;stroke-dasharray:none;fill:none;fill-opacity:1;fill-rule: evenodd"/>
<path id="Shape2DView_nwe0008"  d="M 13.28 -34.6 L -8.12 -34.6 " stroke="#191919" stroke-width="0.35 px" style="stroke-width:0.35;stroke-miterlimit:4;stroke-dasharray:none;fill:none;fill-opacity:1;fill-rule: evenodd"/>
<path id="Shape2DView_nwe0009"  d="M -8.12 -34.6 A 1 1 0 0 0 -9.12 -33.6" stroke="#191919" stroke-width="0.35 px" style="stroke-width:0.35;stroke-miterlimit:4;stroke-dasharray:none;fill:none;fill-opacity:1;fill-rule: evenodd"/>
<path id="Shape2DView_nwe0010"  d="M -9.12 -33.6 L -9.12 13.199999999999996 " stroke="#191919" stroke-width="0.35 px" style="stroke-width:0.35;stroke-miterlimit:4;stroke-dasharray:none;fill:none;fill-opacity:1;fill-rule: evenodd"/>
<path id="Shape2DView_nwe0011"  d="M -9.12 13.2 A 1 1 0 0 0 -8.12 14.2" stroke="#191919" stroke-width="0.35 px" style="stroke-width:0.35;stroke-miterlimit:4;stroke-dasharray:none;fill:none;fill-opacity:1;fill-rule: evenodd"/>
<path id="Shape2DView_nwe0012"  d="M -8.12 14.2 L 13.28 14.2 " stroke="#191919" stroke-width="0.35 px" style="stroke-width:0.35;stroke-miterlimit:4;stroke-dasharray:none;fill:none;fill-opacity:1;fill-rule: evenodd"/>
<path id="Shape2DView_nwe0013"  d="M 14.28 13.2 A 1 1 0 0 1 13.28 14.2" stroke="#191919" stroke-width="0.35 px" style="stroke-width:0.35;stroke-miterlimit:4;stroke-dasharray:none;fill:none;fill-opacity:1;fill-rule: evenodd"/>
<path id="Shape2DView_nwe0014"  d="M 14.28 13.2 L 14.28 -33.599999999999994 " stroke="#191919" stroke-width="0.35 px" style="stroke-width:0.35;stroke-miterlimit:4;stroke-dasharray:none;fill:none;fill-opacity:1;fill-rule: evenodd"/>
<path id="Shape2DView_nwe0015"  d="M 13.28 -34.6 A 1 1 0 0 1 14.28 -33.6" stroke="#191919" stroke-width="0.35 px" style="stroke-width:0.35;stroke-miterlimit:4;stroke-dasharray:none;fill:none;fill-opacity:1;fill-rule: evenodd"/>
<path id="Shape2DView_nwe0020"  d="M 15.28 14.2 L 15.27685610494662 14.2 L 15.26746395609091 14.2 L 15.251941665154183 14.2 L 15.23048443395121 14.2 L 15.203362099614141 14.2 L 15.170915741234014 14.2 L 15.133553390593272 14.2 L 15.091744900929367 14.2 L 15.046016038257667 14.2 L 14.996941869558778 14.2 L 14.945139530977583 14.2 L 14.891260466978157 14.2 L 14.835982238051653 14.2 L 14.78 14.2 " stroke="#191919" stroke-width="0.35 px" style="stroke-width:0.35;stroke-miterlimit:4;stroke-dasharray:none;fill:none;fill-opacity:1;fill-rule: evenodd"/>
<path id="Shape2DView_nwe0021"  d="M 14.78 14.2 L 14.78 -34.599999999999994 " stroke="#191919" stroke-width="0.35 px" style="stroke-width:0.35;stroke-miterlimit:4;stroke-dasharray:none;fill:none;fill-opacity:1;fill-rule: evenodd"/>
<path id="Shape2DView_nwe0022"  d="M 15.28 -34.6 L 15.27685610494662 -34.6 L 15.26746395609091 -34.6 L 15.251941665154183 -34.6 L 15.23048443395121 -34.6 L 15.203362099614141 -34.6 L 15.170915741234014 -34.6 L 15.133553390593272 -34.6 L 15.091744900929367 -34.6 L 15.046016038257667 -34.6 L 14.996941869558778 -34.6 L 14.945139530977583 -34.6 L 14.891260466978157 -34.6 L 14.835982238051653 -34.6 L 14.78 -34.6 " stroke="#191919" stroke-width="0.35 px" style="stroke-width:0.35;stroke-miterlimit:4;stroke-dasharray:none;fill:none;fill-opacity:1;fill-rule: evenodd"/>
<path id="Shape2DView_nwe0023"  d="M 14.28 14.7 A 0.5 0.5 0 0 0 14.78 14.2" stroke="#191919" stroke-width="0.35 px" style="stroke-width:0.35;stroke-miterlimit:4;stroke-dasharray:none;fill:none;fill-opacity:1;fill-rule: evenodd"/>
<path id="Shape2DView_nwe0024"  d="M 14.28 15.2 L 14.28 15.19685610494662 L 14.28 15.18746395609091 L 14.28 15.171941665154183 L 14.28 15.15048443395121 L 14.28 15.123362099614141 L 14.28 15.090915741234014 L 14.28 15.053553390593272 L 14.28 15.011744900929367 L 14.28 14.966016038257667 L 14.28 14.916941869558778 L 14.28 14.865139530977583 L 14.28 14.811260466978156 L 14.28 14.755982238051653 L 14.28 14.7 " stroke="#191919" stroke-width="0.35 px" style="stroke-width:0.35;stroke-miterlimit:4;stroke-dasharray:none;fill:none;fill-opacity:1;fill-rule: evenodd"/>
<path id="Shape2DView_nwe0025"  d="M 14.78 -34.6 A 0.5 0.5 0 0 0 14.28 -35.1" stroke="#191919" stroke-width="0.35 px" style="stroke-width:0.35;stroke-miterlimit:4;stroke-dasharray:none;fill:none;fill-opacity:1;fill-rule: evenodd"/>
<path id="Shape2DView_nwe0026"  d="M 14.28 -35.6 L 14.28 -35.596856104946625 L 14.28 -35.587463956090915 L 14.28 -35.571941665154185 L 14.28 -35.55048443395121 L 14.28 -35.52336209961415 L 14.28 -35.49091574123402 L 14.28 -35.45355339059328 L 14.28 -35.41174490092937 L 14.28 -35.36601603825767 L 14.28 -35.31694186955878 L 14.28 -35.265139530977585 L 14.28 -35.21126046697816 L 14.28 -35.15598223805166 L 14.28 -35.1 " stroke="#191919" stroke-width="0.35 px" style="stroke-width:0.35;stroke-miterlimit:4;stroke-dasharray:none;fill:none;fill-opacity:1;fill-rule: evenodd"/>
<path id="Shape2DView_nwe0027"  d="M -9.12 15.2 L -9.12 15.19685610494662 L -9.12 15.18746395609091 L -9.12 15.171941665154183 L -9.12 15.15048443395121 L -9.12 15.123362099614141 L -9.12 15.090915741234014 L -9.12 15.053553390593272 L -9.12 15.011744900929367 L -9.12 14.966016038257667 L -9.12 14.916941869558778 L -9.12 14.865139530977583 L -9.12 14.811260466978156 L -9.12 14.755982238051653 L -9.12 14.7 " stroke="#191919" stroke-width="0.35 px" style="stroke-width:0.35;stroke-miterlimit:4;stroke-dasharray:none;fill:none;fill-opacity:1;fill-rule: evenodd"/>
<path id="Shape2DView_nwe0028"  d="M -9.12 14.7 L 14.28 14.7 " stroke="#191919" stroke-width="0.35 px" style="stroke-width:0.35;stroke-miterlimit:4;stroke-dasharray:none;fill:none;fill-opacity:1;fill-rule: evenodd"/>
<path id="Shape2DView_nwe0029"  d="M 14.28 -35.1 L -9.12 -35.1 " stroke="#191919" stroke-width="0.35 px" style="stroke-width:0.35;stroke-miterlimit:4;stroke-dasharray:none;fill:none;fill-opacity:1;fill-rule: evenodd"/>
<path id="Shape2DView_nwe0030"  d="M -9.12 -35.6 L -9.12 -35.596856104946625 L -9.12 -35.587463956090915 L -9.12 -35.571941665154185 L -9.12 -35.55048443395121 L -9.12 -35.52336209961415 L -9.12 -35.49091574123402 L -9.12 -35.45355339059328 L -9.12 -35.41174490092937 L -9.12 -35.36601603825767 L -9.12 -35.31694186955878 L -9.12 -35.265139530977585 L -9.12 -35.21126046697816 L -9.12 -35.15598223805166 L -9.12 -35.1 " stroke="#191919" stroke-width="0.35 px" style="stroke-width:0.35;stroke-miterlimit:4;stroke-dasharray:none;fill:none;fill-opacity:1;fill-rule: evenodd"/>
<path id="Shape2DView_nwe0031"  d="M -9.62 14.2 A 0.5 0.5 0 0 0 -9.12 14.7" stroke="#191919" stroke-width="0.35 px" style="stroke-width:0.35;stroke-miterlimit:4;stroke-dasharray:none;fill:none;fill-opacity:1;fill-rule: evenodd"/>
<path id="Shape2DView_nwe0032"  d="M -10.12 14.2 L -10.11685610494662 14.2 L -10.10746395609091 14.2 L -10.091941665154183 14.2 L -10.07048443395121 14.2 L -10.043362099614141 14.2 L -10.010915741234014 14.2 L -9.973553390593272 14.2 L -9.931744900929367 14.2 L -9.886016038257667 14.2 L -9.836941869558778 14.2 L -9.785139530977583 14.2 L -9.731260466978156 14.2 L -9.675982238051652 14.2 L -9.62 14.2 " stroke="#191919" stroke-width="0.35 px" style="stroke-width:0.35;stroke-miterlimit:4;stroke-dasharray:none;fill:none;fill-opacity:1;fill-rule: evenodd"/>
<path id="Shape2DView_nwe0033"  d="M -9.12 -35.1 A 0.5 0.5 0 0 0 -9.62 -34.6" stroke="#191919" stroke-width="0.35 px" style="stroke-width:0.35;stroke-miterlimit:4;stroke-dasharray:none;fill:none;fill-opacity:1;fill-rule: evenodd"/>
<path id="Shape2DView_nwe0034"  d="M -10.12 -34.6 L -10.11685610494662 -34.6 L -10.10746395609091 -34.6 L -10.091941665154183 -34.6 L -10.07048443395121 -34.6 L -10.043362099614141 -34.6 L -10.010915741234014 -34.6 L -9.973553390593272 -34.6 L -9.931744900929367 -34.6 L -9.886016038257667 -34.6 L -9.836941869558778 -34.6 L -9.785139530977583 -34.6 L -9.731260466978156 -34.6 L -9.675982238051652 -34.6 L -9.62 -34.6 " stroke="#191919" stroke-width="0.35 px" style="stroke-width:0.35;stroke-miterlimit:4;stroke-dasharray:none;fill:none;fill-opacity:1;fill-rule: evenodd"/>
<path id="Shape2DView_nwe0035"  d="M -9.62 -34.6 L -9.62 14.199999999999996 " stroke="#191919" stroke-width="0.35 px" style="stroke-width:0.35;stroke-miterlimit:4;stroke-dasharray:none;fill:none;fill-opacity:1;fill-rule: evenodd"/>
<title>b'Shape2DView'</title>
</g>
<g id="Rectangle" transform="translate(10.374000,15.454000) scale(1,-1)">
<rect fill="#ff0000" id="origin" width="1" height="1" x="0" y="0" />
<title>b'Rectangle'</title>
</g>
</svg>