<?xml version="1.0"?>
<!DOCTYPE svg PUBLIC "-//W3C//DTD SVG 1.1//EN" "http://www.w3.org/Graphics/SVG/1.1/DTD/svg11.dtd">
<svg width="9.853200000000001mm" height="20.0132mm" viewBox="0 0 9.853200000000001 20.0132" xmlns="http://www.w3.org/2000/svg" version="1.1">
<g id="Shape2DView" transform="translate(1.116600,2.386600) scale(1,-1)">
<path id="Shape2DView_nwe0000"  d="M 8.64 2.04 L 8.64 -17.28 " stroke="#191919" stroke-width="0.35 px" style="stroke-width:0.35;stroke-miterlimit:4;stroke-dasharray:none;fill:none;fill-opacity:1;fill-rule: evenodd"/>
<path id="Shape2DView_nwe0001"  d="M -0.77 2.29 L 8.39 2.29 " stroke="#191919" stroke-width="0.35 px" style="stroke-width:0.35;stroke-miterlimit:4;stroke-dasharray:none;fill:none;fill-opacity:1;fill-rule: evenodd"/>
<path id="Shape2DView_nwe0002"  d="M 8.39 -17.53 L -0.7699999999999996 -17.53 " stroke="#191919" stroke-width="0.35 px" style="stroke-width:0.35;stroke-miterlimit:4;stroke-dasharray:none;fill:none;fill-opacity:1;fill-rule: evenodd"/>
<path id="Shape2DView_nwe0003"  d="M -1.02 -17.28 L -1.02 2.039999999999999 " stroke="#191919" stroke-width="0.35 px" style="stroke-width:0.35;stroke-miterlimit:4;stroke-dasharray:none;fill:none;fill-opacity:1;fill-rule: evenodd"/>
<path id="Shape2DView_nwe0004"  d="M 8.39 2.29 A 0.25 0.25 0 0 0 8.64 2.04" stroke="#191919" stroke-width="0.35 px" style="stroke-width:0.35;stroke-miterlimit:4;stroke-dasharray:none;fill:none;fill-opacity:1;fill-rule: evenodd"/>
<path id="Shape2DView_nwe0005"  d="M 8.64 -17.28 A 0.25 0.25 0 0 0 8.39 -17.53" stroke="#191919" stroke-width="0.35 px" style="stroke-width:0.35;stroke-miterlimit:4;stroke-dasharray:none;fill:none;fill-opacity:1;fill-rule: evenodd"/>
<path id="Shape2DView_nwe0006"  d="M -1.02 2.04 A 0.25 0.25 0 0 0 -0.77 2.29" stroke="#191919" stroke-width="0.35 px" style="stroke-width:0.35;stroke-miterlimit:4;stroke-dasharray:none;fill:none;fill-opacity:1;fill-rule: evenodd"/>
<path id="Shape2DView_nwe0007"  d="M -0.7700000000000002 -17.53 A 0.25 0.25 0 0 0 -1.02 -17.28" stroke="#191919" stroke-width="0.35 px" style="stroke-width:0.35;stroke-miterlimit:4;stroke-dasharray:none;fill:none;fill-opacity:1;fill-rule: evenodd"/>
<path id="Shape2DView_nwe0012"  d="M 8.64 2.04 L 8.63842805247331 2.04 L 8.633731978045457 2.04 L 8.625970832577092 2.04 L 8.615242216975606 2.04 L 8.601681049807071 2.04 L 8.585457870617008 2.04 L 8.566776695296637 2.04 L 8.545872450464683 2.04 L 8.523008019128834 2.04 L 8.498470934779391 2.04 L 8.472569765488792 2.04 L 8.44563023348908 2.04 L 8.417991119025828 2.04 L 8.39 2.04 " stroke="#191919" stroke-width="0.35 px" style="stroke-width:0.35;stroke-miterlimit:4;stroke-dasharray:none;fill:none;fill-opacity:1;fill-rule: evenodd"/>
<path id="Shape2DView_nwe0013"  d="M 8.39 2.04 L 8.39 -17.28 " stroke="#191919" stroke-width="0.35 px" style="stroke-width:0.35;stroke-miterlimit:4;stroke-dasharray:none;fill:none;fill-opacity:1;fill-rule: evenodd"/>
<path id="Shape2DView_nwe0014"  d="M 8.64 -17.28 L 8.63842805247331 -17.28 L 8.633731978045457 -17.28 L 8.625970832577092 -17.28 L 8.615242216975606 -17.28 L 8.601681049807071 -17.28 L 8.585457870617008 -17.28 L 8.566776695296637 -17.28 L 8.545872450464683 -17.28 L 8.523008019128834 -17.28 L 8.498470934779391 -17.28 L 8.472569765488792 -17.28 L 8.44563023348908 -17.28 L 8.417991119025828 -17.28 L 8.39 -17.28 " stroke="#191919" stroke-width="0.35 px" style="stroke-width:0.35;stroke-miterlimit:4;stroke-dasharray:none;fill:none;fill-opacity:1;fill-rule: evenodd"/>
<path id="Shape2DView_nwe0015"  d="M 8.39 2.29 L 8.39 2.2884280524733107 L 8.39 2.283731978045456 L 8.39 2.2759708325770918 L 8.39 2.265242216975605 L 8.39 2.251681049807071 L 8.39 2.2354578706170076 L 8.39 2.216776695296637 L 8.39 2.1958724504646834 L 8.39 2.1730080191288343 L 8.39 2.1484709347793896 L 8.39 2.122569765488792 L 8.39 2.0956302334890786 L 8.39 2.067991119025827 L 8.39 2.04 " stroke="#191919" stroke-width="0.35 px" style="stroke-width:0.35;stroke-miterlimit:4;stroke-dasharray:none;fill:none;fill-opacity:1;fill-rule: evenodd"/>
<path id="Shape2DView_nwe0016"  d="M 8.39 -17.53 L 8.39 -17.528428052473313 L 8.39 -17.523731978045458 L 8.39 -17.515970832577093 L 8.39 -17.505242216975606 L 8.39 -17.491681049807074 L 8.39 -17.47545787061701 L 8.39 -17.45677669529664 L 8.39 -17.435872450464686 L 8.39 -17.413008019128835 L 8.39 -17.38847093477939 L 8.39 -17.362569765488793 L 8.39 -17.33563023348908 L 8.39 -17.30799111902583 L 8.39 -17.28 " stroke="#191919" stroke-width="0.35 px" style="stroke-width:0.35;stroke-miterlimit:4;stroke-dasharray:none;fill:none;fill-opacity:1;fill-rule: evenodd"/>
<path id="Shape2DView_nwe0017"  d="M -0.77 2.29 L -0.77 2.2884280524733107 L -0.77 2.283731978045456 L -0.77 2.2759708325770918 L -0.77 2.265242216975605 L -0.77 2.251681049807071 L -0.77 2.2354578706170076 L -0.77 2.216776695296637 L -0.77 2.1958724504646834 L -0.77 2.1730080191288343 L -0.77 2.1484709347793896 L -0.77 2.122569765488792 L -0.77 2.0956302334890786 L -0.77 2.067991119025827 L -0.77 2.04 " stroke="#191919" stroke-width="0.35 px" style="stroke-width:0.35;stroke-miterlimit:4;stroke-dasharray:none;fill:none;fill-opacity:1;fill-rule: evenodd"/>
<path id="Shape2DView_nwe0018"  d="M -0.77 2.04 L 8.39 2.04 " stroke="#191919" stroke-width="0.35 px" style="stroke-width:0.35;stroke-miterlimit:4;stroke-dasharray:none;fill:none;fill-opacity:1;fill-rule: evenodd"/>
<path id="Shape2DView_nwe0019"  d="M 8.39 -17.28 L -0.7699999999999996 -17.28 " stroke="#191919" stroke-width="0.35 px" style="stroke-width:0.35;stroke-miterlimit:4;stroke-dasharray:none;fill:none;fill-opacity:1;fill-rule: evenodd"/>
<path id="Shape2DView_nwe0020"  d="M -0.77 -17.53 L -0.77 -17.528428052473313 L -0.77 -17.523731978045458 L -0.77 -17.515970832577093 L -0.77 -17.505242216975606 L -0.77 -17.491681049807074 L -0.77 -17.47545787061701 L -0.77 -17.45677669529664 L -0.77 -17.435872450464686 L -0.77 -17.413008019128835 L -0.77 -17.38847093477939 L -0.77 -17.362569765488793 L -0.77 -17.33563023348908 L -0.77 -17.30799111902583 L -0.77 -17.28 " stroke="#191919" stroke-width="0.35 px" style="stroke-width:0.35;stroke-miterlimit:4;stroke-dasharray:none;fill:none;fill-opacity:1;fill-rule: evenodd"/>
<path id="Shape2DView_nwe0021"  d="M -1.02 2.04 L -1.0184280524733107 2.04 L -1.013731978045456 2.04 L -1.005970832577092 2.04 L -0.9952422169756048 2.04 L -0.981681049807071 2.04 L -0.9654578706170075 2.04 L -0.9467766952966369 2.04 L -0.9258724504646834 2.04 L -0.9030080191288341 2.04 L -0.8784709347793895 2.04 L -0.8525697654887918 2.04 L -0.8256302334890786 2.04 L -0.797991119025827 2.04 L -0.77 2.04 " stroke="#191919" stroke-width="0.35 px" style="stroke-width:0.35;stroke-miterlimit:4;stroke-dasharray:none;fill:none;fill-opacity:1;fill-rule: evenodd"/>
<path id="Shape2DView_nwe0022"  d="M -1.02 -17.28 L -1.0184280524733107 -17.28 L -1.013731978045456 -17.28 L -1.005970832577092 -17.28 L -0.9952422169756048 -17.28 L -0.981681049807071 -17.28 L -0.9654578706170075 -17.28 L -0.9467766952966369 -17.28 L -0.9258724504646834 -17.28 L -0.9030080191288341 -17.28 L -0.8784709347793895 -17.28 L -0.8525697654887918 -17.28 L -0.8256302334890786 -17.28 L -0.797991119025827 -17.28 L -0.77 -17.28 " stroke="#191919" stroke-width="0.35 px" style="stroke-width:0.35;stroke-miterlimit:4;stroke-dasharray:none;fill:none;fill-opacity:1;fill-rule: evenodd"/>
<path id="Shape2DView_nwe0023"  d="M -0.77 -17.28 L -0.77 2.039999999999999 " stroke="#191919" stroke-width="0.35 px" style="stroke-width:0.35;stroke-miterlimit:4;stroke-dasharray:none;fill:none;fill-opacity:1;fill-rule: evenodd"/>
<title>b'Shape2DView'</title>
</g>
<g id="Rectangle" transform="translate(1.116600,2.386600) scale(1,-1)">
<rect fill="#ff0000" id="origin" width="1" height="1" x="0" y="0" />
<title>b'Rectangle'</title>
</g>
</svg>