<?xml version="1.0"?>
<!DOCTYPE svg PUBLIC "-//W3C//DTD SVG 1.1//EN" "http://www.w3.org/Graphics/SVG/1.1/DTD/svg11.dtd">
<svg width="11.832mm" height="8.732mm" viewBox="0 0 11.832 8.732" xmlns="http://www.w3.org/2000/svg" version="1.1">
<g id="Shape2DView" transform="translate(3.426000,6.616000) scale(1,-1)">
<path id="Shape2DView_nwe0000"  d="M 8.29 6.075 L 8.29 -1.5750000000000002 " stroke="#191919" stroke-width="0.35 px" style="stroke-width:0.35;stroke-miterlimit:4;stroke-dasharray:none;fill:none;fill-opacity:1;fill-rule: evenodd"/>
<path id="Shape2DView_nwe0001"  d="M -2.885 6.5 L 7.865 6.5 " stroke="#191919" stroke-width="0.35 px" style="stroke-width:0.35;stroke-miterlimit:4;stroke-dasharray:none;fill:none;fill-opacity:1;fill-rule: evenodd"/>
<path id="Shape2DView_nwe0002"  d="M 7.865 -2.0 L -2.885 -2.0 " stroke="#191919" stroke-width="0.35 px" style="stroke-width:0.35;stroke-miterlimit:4;stroke-dasharray:none;fill:none;fill-opacity:1;fill-rule: evenodd"/>
<path id="Shape2DView_nwe0003"  d="M -3.31 -1.575 L -3.31 6.075 " stroke="#191919" stroke-width="0.35 px" style="stroke-width:0.35;stroke-miterlimit:4;stroke-dasharray:none;fill:none;fill-opacity:1;fill-rule: evenodd"/>
<path id="Shape2DView_nwe0004"  d="M 7.865 6.5 A 0.425 0.425 0 0 0 8.29 6.075" stroke="#191919" stroke-width="0.35 px" style="stroke-width:0.35;stroke-miterlimit:4;stroke-dasharray:none;fill:none;fill-opacity:1;fill-rule: evenodd"/>
<path id="Shape2DView_nwe0005"  d="M 8.290000000000001 -1.5749999999999995 A 0.425 0.425 0 0 0 7.865 -2" stroke="#191919" stroke-width="0.35 px" style="stroke-width:0.35;stroke-miterlimit:4;stroke-dasharray:none;fill:none;fill-opacity:1;fill-rule: evenodd"/>
<path id="Shape2DView_nwe0006"  d="M -3.3099999999999996 6.075000000000001 A 0.425 0.425 0 0 0 -2.885 6.5" stroke="#191919" stroke-width="0.35 px" style="stroke-width:0.35;stroke-miterlimit:4;stroke-dasharray:none;fill:none;fill-opacity:1;fill-rule: evenodd"/>
<path id="Shape2DView_nwe0007"  d="M -2.8850000000000002 -2.0 A 0.425 0.425 0 0 0 -3.31 -1.575" stroke="#191919" stroke-width="0.35 px" style="stroke-width:0.35;stroke-miterlimit:4;stroke-dasharray:none;fill:none;fill-opacity:1;fill-rule: evenodd"/>
<path id="Shape2DView_nwe0012"  d="M 8.290000000000001 6.075 L 8.288663844602315 6.075 L 8.284672181338639 6.075 L 8.278075207690529 6.075 L 8.268955884429264 6.075 L 8.25742889233601 6.075 L 8.243639190024457 6.075 L 8.227760191002142 6.075 L 8.20999158289498 6.075 L 8.190556816259509 6.075 L 8.169700294562482 6.075 L 8.147684300665473 6.075 L 8.124785698465717 6.075 L 8.101292451171954 6.075 L 8.0775 6.075 " stroke="#191919" stroke-width="0.35 px" style="stroke-width:0.35;stroke-miterlimit:4;stroke-dasharray:none;fill:none;fill-opacity:1;fill-rule: evenodd"/>
<path id="Shape2DView_nwe0013"  d="M 8.0775 6.075 L 8.0775 -1.5750000000000002 " stroke="#191919" stroke-width="0.35 px" style="stroke-width:0.35;stroke-miterlimit:4;stroke-dasharray:none;fill:none;fill-opacity:1;fill-rule: evenodd"/>
<path id="Shape2DView_nwe0014"  d="M 8.290000000000001 -1.575 L 8.288663844602315 -1.575 L 8.284672181338639 -1.575 L 8.278075207690529 -1.575 L 8.268955884429264 -1.575 L 8.25742889233601 -1.575 L 8.243639190024457 -1.575 L 8.227760191002142 -1.575 L 8.20999158289498 -1.575 L 8.190556816259509 -1.575 L 8.169700294562482 -1.575 L 8.147684300665473 -1.575 L 8.124785698465717 -1.575 L 8.101292451171954 -1.575 L 8.0775 -1.575 " stroke="#191919" stroke-width="0.35 px" style="stroke-width:0.35;stroke-miterlimit:4;stroke-dasharray:none;fill:none;fill-opacity:1;fill-rule: evenodd"/>
<path id="Shape2DView_nwe0015"  d="M 7.865 6.2875000000000005 A 0.2125 0.2125 0 0 0 8.0775 6.075" stroke="#191919" stroke-width="0.35 px" style="stroke-width:0.35;stroke-miterlimit:4;stroke-dasharray:none;fill:none;fill-opacity:1;fill-rule: evenodd"/>
<path id="Shape2DView_nwe0016"  d="M 7.865 6.5 L 7.865 6.498663844602314 L 7.865 6.494672181338637 L 7.865 6.488075207690528 L 7.865 6.478955884429264 L 7.865 6.46742889233601 L 7.865 6.453639190024456 L 7.865 6.437760191002141 L 7.865 6.419991582894981 L 7.865 6.400556816259509 L 7.865 6.379700294562481 L 7.865 6.357684300665473 L 7.865 6.3347856984657165 L 7.865 6.311292451171952 L 7.865 6.2875 " stroke="#191919" stroke-width="0.35 px" style="stroke-width:0.35;stroke-miterlimit:4;stroke-dasharray:none;fill:none;fill-opacity:1;fill-rule: evenodd"/>
<path id="Shape2DView_nwe0017"  d="M 8.0775 -1.5749999999999997 A 0.2125 0.2125 0 0 0 7.865 -1.7875" stroke="#191919" stroke-width="0.35 px" style="stroke-width:0.35;stroke-miterlimit:4;stroke-dasharray:none;fill:none;fill-opacity:1;fill-rule: evenodd"/>
<path id="Shape2DView_nwe0018"  d="M 7.865 -2.0 L 7.865 -1.9986638446023142 L 7.865 -1.9946721813386377 L 7.865 -1.9880752076905281 L 7.865 -1.978955884429264 L 7.865 -1.9674288923360104 L 7.865 -1.9536391900244565 L 7.865 -1.9377601910021414 L 7.865 -1.919991582894981 L 7.865 -1.900556816259509 L 7.865 -1.8797002945624812 L 7.865 -1.857684300665473 L 7.865 -1.834785698465717 L 7.865 -1.811292451171953 L 7.865 -1.7875 " stroke="#191919" stroke-width="0.35 px" style="stroke-width:0.35;stroke-miterlimit:4;stroke-dasharray:none;fill:none;fill-opacity:1;fill-rule: evenodd"/>
<path id="Shape2DView_nwe0019"  d="M -2.885 6.5 L -2.885 6.498663844602314 L -2.885 6.494672181338637 L -2.885 6.488075207690528 L -2.885 6.478955884429264 L -2.885 6.46742889233601 L -2.885 6.453639190024456 L -2.885 6.437760191002141 L -2.885 6.419991582894981 L -2.885 6.400556816259509 L -2.885 6.379700294562481 L -2.885 6.357684300665473 L -2.885 6.3347856984657165 L -2.885 6.311292451171952 L -2.885 6.2875 " stroke="#191919" stroke-width="0.35 px" style="stroke-width:0.35;stroke-miterlimit:4;stroke-dasharray:none;fill:none;fill-opacity:1;fill-rule: evenodd"/>
<path id="Shape2DView_nwe0020"  d="M -2.885 6.2875 L 7.865 6.2875 " stroke="#191919" stroke-width="0.35 px" style="stroke-width:0.35;stroke-miterlimit:4;stroke-dasharray:none;fill:none;fill-opacity:1;fill-rule: evenodd"/>
<path id="Shape2DView_nwe0021"  d="M 7.865 -1.7875 L -2.885 -1.7875 " stroke="#191919" stroke-width="0.35 px" style="stroke-width:0.35;stroke-miterlimit:4;stroke-dasharray:none;fill:none;fill-opacity:1;fill-rule: evenodd"/>
<path id="Shape2DView_nwe0022"  d="M -2.885 -2.0 L -2.885 -1.9986638446023142 L -2.885 -1.9946721813386377 L -2.885 -1.9880752076905281 L -2.885 -1.978955884429264 L -2.885 -1.9674288923360104 L -2.885 -1.9536391900244565 L -2.885 -1.9377601910021414 L -2.885 -1.919991582894981 L -2.885 -1.900556816259509 L -2.885 -1.8797002945624812 L -2.885 -1.857684300665473 L -2.885 -1.834785698465717 L -2.885 -1.811292451171953 L -2.885 -1.7875 " stroke="#191919" stroke-width="0.35 px" style="stroke-width:0.35;stroke-miterlimit:4;stroke-dasharray:none;fill:none;fill-opacity:1;fill-rule: evenodd"/>
<path id="Shape2DView_nwe0023"  d="M -3.0974999999999997 6.075 A 0.2125 0.2125 0 0 0 -2.885 6.2875" stroke="#191919" stroke-width="0.35 px" style="stroke-width:0.35;stroke-miterlimit:4;stroke-dasharray:none;fill:none;fill-opacity:1;fill-rule: evenodd"/>
<path id="Shape2DView_nwe0024"  d="M -3.31 6.075 L -3.308663844602314 6.075 L -3.3046721813386375 6.075 L -3.298075207690528 6.075 L -3.288955884429264 6.075 L -3.2774288923360104 6.075 L -3.2636391900244566 6.075 L -3.2477601910021416 6.075 L -3.2299915828949812 6.075 L -3.2105568162595093 6.075 L -3.1897002945624813 6.075 L -3.1676843006654734 6.075 L -3.144785698465717 6.075 L -3.121292451171953 6.075 L -3.0975 6.075 " stroke="#191919" stroke-width="0.35 px" style="stroke-width:0.35;stroke-miterlimit:4;stroke-dasharray:none;fill:none;fill-opacity:1;fill-rule: evenodd"/>
<path id="Shape2DView_nwe0025"  d="M -2.8850000000000002 -1.7874999999999999 A 0.2125 0.2125 0 0 0 -3.0975 -1.575" stroke="#191919" stroke-width="0.35 px" style="stroke-width:0.35;stroke-miterlimit:4;stroke-dasharray:none;fill:none;fill-opacity:1;fill-rule: evenodd"/>
<path id="Shape2DView_nwe0026"  d="M -3.31 -1.575 L -3.308663844602314 -1.575 L -3.3046721813386375 -1.575 L -3.298075207690528 -1.575 L -3.288955884429264 -1.575 L -3.2774288923360104 -1.575 L -3.2636391900244566 -1.575 L -3.2477601910021416 -1.575 L -3.2299915828949812 -1.575 L -3.2105568162595093 -1.575 L -3.1897002945624813 -1.575 L -3.1676843006654734 -1.575 L -3.144785698465717 -1.575 L -3.121292451171953 -1.575 L -3.0975 -1.575 " stroke="#191919" stroke-width="0.35 px" style="stroke-width:0.35;stroke-miterlimit:4;stroke-dasharray:none;fill:none;fill-opacity:1;fill-rule: evenodd"/>
<path id="Shape2DView_nwe0027"  d="M -3.0975 -1.575 L -3.0975 6.075 " stroke="#191919" stroke-width="0.35 px" style="stroke-width:0.35;stroke-miterlimit:4;stroke-dasharray:none;fill:none;fill-opacity:1;fill-rule: evenodd"/>
<title>b'Shape2DView'</title>
</g>
<g id="Rectangle" transform="translate(3.426000,6.616000) scale(1,-1)">
<rect fill="#ff0000" id="origin" width="1" height="1" x="0" y="0" />
<title>b'Rectangle'</title>
</g>
</svg>