<?xml version="1.0"?>
<!DOCTYPE svg PUBLIC "-//W3C//DTD SVG 1.1//EN" "http://www.w3.org/Graphics/SVG/1.1/DTD/svg11.dtd">
<svg width="6.222mm" height="5.122mm" viewBox="0 0 6.222 5.122" xmlns="http://www.w3.org/2000/svg" version="1.1">
<g id="Shape2DView" transform="translate(3.111000,2.561000) scale(1,-1)">
<path id="Shape2DView_nwe0000"  d="M 1.75 2.499999999999999 L -1.7500000000000058 2.4999999999999947 " stroke="#191919" stroke-width="0.35 px" style="stroke-width:0.35;stroke-miterlimit:4;stroke-dasharray:none;fill:none;fill-opacity:1;fill-rule: evenodd"/>
<path id="Shape2DView_nwe0001"  d="M -1.75 -2.499999999999999 L 1.7500000000000058 -2.4999999999999947 " stroke="#191919" stroke-width="0.35 px" style="stroke-width:0.35;stroke-miterlimit:4;stroke-dasharray:none;fill:none;fill-opacity:1;fill-rule: evenodd"/>
<path id="Shape2DView_nwe0002"  d="M 1.8 -2.5 L 2.4 -2.499999999999999 " stroke="#191919" stroke-width="0.35 px" style="stroke-width:0.35;stroke-miterlimit:4;stroke-dasharray:none;fill:none;fill-opacity:1;fill-rule: evenodd"/>
<path id="Shape2DView_nwe0003"  d="M 1.8 -2.5 L 1.7944017761948345 -2.5 L 1.7888739533021842 -2.5 L 1.7834860469022418 -2.5 L 1.778305813044122 -2.5 L 1.7733983961742332 -2.5 L 1.7688255099070633 -2.5 L 1.7646446609406727 -2.5 L 1.7609084258765986 -2.5 L 1.7576637900385859 -2.5 L 1.754951556604879 -2.5 L 1.7528058334845817 -2.5 L 1.7512536043909088 -2.5 L 1.750314389505338 -2.5 L 1.75 -2.5 " stroke="#191919" stroke-width="0.35 px" style="stroke-width:0.35;stroke-miterlimit:4;stroke-dasharray:none;fill:none;fill-opacity:1;fill-rule: evenodd"/>
<path id="Shape2DView_nwe0004"  d="M 2.525 -1.325 L 2.449999999999999 -1.325 " stroke="#191919" stroke-width="0.35 px" style="stroke-width:0.35;stroke-miterlimit:4;stroke-dasharray:none;fill:none;fill-opacity:1;fill-rule: evenodd"/>
<path id="Shape2DView_nwe0005"  d="M 2.525 -1.675 L 2.4499999999999993 -1.675 " stroke="#191919" stroke-width="0.35 px" style="stroke-width:0.35;stroke-miterlimit:4;stroke-dasharray:none;fill:none;fill-opacity:1;fill-rule: evenodd"/>
<path id="Shape2DView_nwe0006"  d="M 3.05 -1.675 L 2.825 -1.6750000000000003 " stroke="#191919" stroke-width="0.35 px" style="stroke-width:0.35;stroke-miterlimit:4;stroke-dasharray:none;fill:none;fill-opacity:1;fill-rule: evenodd"/>
<path id="Shape2DView_nwe0007"  d="M 2.825 -1.675 L 2.8166026642922524 -1.675 L 2.8083109299532767 -1.675 L 2.8002290703533625 -1.675 L 2.7924587195661834 -1.675 L 2.78509759426135 -1.675 L 2.778238264860595 -1.675 L 2.771966991411009 -1.675 L 2.766362638814898 -1.675 L 2.761495685057879 -1.675 L 2.7574273349073186 -1.675 L 2.754208750226873 -1.675 L 2.7518804065863636 -1.675 L 2.750471584258007 -1.675 L 2.75 -1.675 " stroke="#191919" stroke-width="0.35 px" style="stroke-width:0.35;stroke-miterlimit:4;stroke-dasharray:none;fill:none;fill-opacity:1;fill-rule: evenodd"/>
<path id="Shape2DView_nwe0008"  d="M 2.75 -1.6749999999999998 L 2.7485852472259795 -1.6749999999999998 L 2.74435878024091 -1.6749999999999998 L 2.737373749319383 -1.6749999999999998 L 2.727717995278044 -1.6749999999999998 L 2.7155129448263637 -1.6749999999999998 L 2.700912083555307 -1.6749999999999998 L 2.6840990257669732 -1.6749999999999998 L 2.665285205418215 -1.6749999999999998 L 2.6447072172159505 -1.6749999999999998 L 2.6226238413014507 -1.6749999999999998 L 2.5993127889399124 -1.675 L 2.575067210140171 -1.675 L 2.5501920071232442 -1.675 L 2.525 -1.675 " stroke="#191919" stroke-width="0.35 px" style="stroke-width:0.35;stroke-miterlimit:4;stroke-dasharray:none;fill:none;fill-opacity:1;fill-rule: evenodd"/>
<path id="Shape2DView_nwe0009"  d="M 3.05 -1.325 L 2.825 -1.3250000000000002 " stroke="#191919" stroke-width="0.35 px" style="stroke-width:0.35;stroke-miterlimit:4;stroke-dasharray:none;fill:none;fill-opacity:1;fill-rule: evenodd"/>
<path id="Shape2DView_nwe0010"  d="M 2.825 -1.325 L 2.8166026642922524 -1.325 L 2.8083109299532767 -1.325 L 2.8002290703533625 -1.325 L 2.7924587195661834 -1.325 L 2.78509759426135 -1.325 L 2.778238264860595 -1.325 L 2.771966991411009 -1.325 L 2.766362638814898 -1.325 L 2.761495685057879 -1.325 L 2.7574273349073186 -1.325 L 2.754208750226873 -1.325 L 2.7518804065863636 -1.325 L 2.750471584258007 -1.325 L 2.75 -1.325 " stroke="#191919" stroke-width="0.35 px" style="stroke-width:0.35;stroke-miterlimit:4;stroke-dasharray:none;fill:none;fill-opacity:1;fill-rule: evenodd"/>
<path id="Shape2DView_nwe0011"  d="M 2.75 -1.3249999999999997 L 2.7485852472259795 -1.3249999999999997 L 2.74435878024091 -1.3249999999999997 L 2.737373749319383 -1.3249999999999997 L 2.727717995278044 -1.3249999999999997 L 2.7155129448263637 -1.3249999999999997 L 2.700912083555307 -1.3249999999999997 L 2.6840990257669732 -1.3249999999999997 L 2.665285205418215 -1.3249999999999997 L 2.6447072172159505 -1.3249999999999997 L 2.6226238413014507 -1.3249999999999997 L 2.5993127889399124 -1.325 L 2.575067210140171 -1.325 L 2.5501920071232442 -1.325 L 2.525 -1.325 " stroke="#191919" stroke-width="0.35 px" style="stroke-width:0.35;stroke-miterlimit:4;stroke-dasharray:none;fill:none;fill-opacity:1;fill-rule: evenodd"/>
<path id="Shape2DView_nwe0012"  d="M 3.05 -0.675 L 2.825 -0.6750000000000003 " stroke="#191919" stroke-width="0.35 px" style="stroke-width:0.35;stroke-miterlimit:4;stroke-dasharray:none;fill:none;fill-opacity:1;fill-rule: evenodd"/>
<path id="Shape2DView_nwe0013"  d="M 2.825 -0.675 L 2.8166026642922524 -0.675 L 2.8083109299532767 -0.675 L 2.8002290703533625 -0.675 L 2.7924587195661834 -0.675 L 2.78509759426135 -0.675 L 2.778238264860595 -0.6750000000000002 L 2.771966991411009 -0.6750000000000002 L 2.766362638814898 -0.6750000000000002 L 2.761495685057879 -0.6750000000000002 L 2.7574273349073186 -0.6750000000000002 L 2.754208750226873 -0.6750000000000002 L 2.7518804065863636 -0.6750000000000002 L 2.750471584258007 -0.6750000000000002 L 2.75 -0.6750000000000002 " stroke="#191919" stroke-width="0.35 px" style="stroke-width:0.35;stroke-miterlimit:4;stroke-dasharray:none;fill:none;fill-opacity:1;fill-rule: evenodd"/>
<path id="Shape2DView_nwe0014"  d="M 2.75 -0.6749999999999998 L 2.7485852472259795 -0.6749999999999998 L 2.74435878024091 -0.6749999999999998 L 2.737373749319383 -0.6749999999999998 L 2.727717995278044 -0.6749999999999998 L 2.7155129448263637 -0.6749999999999998 L 2.700912083555307 -0.6749999999999998 L 2.6840990257669732 -0.6749999999999998 L 2.665285205418215 -0.6749999999999998 L 2.6447072172159505 -0.6749999999999999 L 2.6226238413014507 -0.6749999999999999 L 2.5993127889399124 -0.6749999999999999 L 2.575067210140171 -0.6749999999999999 L 2.5501920071232442 -0.675 L 2.525 -0.675 " stroke="#191919" stroke-width="0.35 px" style="stroke-width:0.35;stroke-miterlimit:4;stroke-dasharray:none;fill:none;fill-opacity:1;fill-rule: evenodd"/>
<path id="Shape2DView_nwe0015"  d="M 2.525 -0.675 L 2.449999999999998 -0.6750000000000002 " stroke="#191919" stroke-width="0.35 px" style="stroke-width:0.35;stroke-miterlimit:4;stroke-dasharray:none;fill:none;fill-opacity:1;fill-rule: evenodd"/>
<path id="Shape2DView_nwe0016"  d="M 3.05 -0.325 L 2.825 -0.3250000000000003 " stroke="#191919" stroke-width="0.35 px" style="stroke-width:0.35;stroke-miterlimit:4;stroke-dasharray:none;fill:none;fill-opacity:1;fill-rule: evenodd"/>
<path id="Shape2DView_nwe0017"  d="M 2.825 -0.325 L 2.8166026642922524 -0.325 L 2.8083109299532767 -0.325 L 2.8002290703533625 -0.32500000000000007 L 2.7924587195661834 -0.32500000000000007 L 2.78509759426135 -0.32500000000000007 L 2.778238264860595 -0.32500000000000007 L 2.771966991411009 -0.32500000000000007 L 2.766362638814898 -0.32500000000000007 L 2.761495685057879 -0.32500000000000007 L 2.7574273349073186 -0.32500000000000007 L 2.754208750226873 -0.3250000000000001 L 2.7518804065863636 -0.3250000000000001 L 2.750471584258007 -0.3250000000000001 L 2.75 -0.3250000000000001 " stroke="#191919" stroke-width="0.35 px" style="stroke-width:0.35;stroke-miterlimit:4;stroke-dasharray:none;fill:none;fill-opacity:1;fill-rule: evenodd"/>
<path id="Shape2DView_nwe0018"  d="M 2.75 -0.32499999999999973 L 2.7485852472259795 -0.32499999999999973 L 2.74435878024091 -0.32499999999999973 L 2.737373749319383 -0.32499999999999973 L 2.727717995278044 -0.3249999999999998 L 2.7155129448263637 -0.3249999999999998 L 2.700912083555307 -0.3249999999999998 L 2.6840990257669732 -0.32499999999999984 L 2.665285205418215 -0.32499999999999984 L 2.6447072172159505 -0.32499999999999984 L 2.6226238413014507 -0.3249999999999999 L 2.5993127889399124 -0.3249999999999999 L 2.575067210140171 -0.32499999999999996 L 2.5501920071232442 -0.32499999999999996 L 2.525 -0.325 " stroke="#191919" stroke-width="0.35 px" style="stroke-width:0.35;stroke-miterlimit:4;stroke-dasharray:none;fill:none;fill-opacity:1;fill-rule: evenodd"/>
<path id="Shape2DView_nwe0019"  d="M 2.525 -0.325 L 2.4499999999999975 -0.3250000000000001 " stroke="#191919" stroke-width="0.35 px" style="stroke-width:0.35;stroke-miterlimit:4;stroke-dasharray:none;fill:none;fill-opacity:1;fill-rule: evenodd"/>
<path id="Shape2DView_nwe0020"  d="M 2.525 1.675 L 2.4499999999999953 1.675 " stroke="#191919" stroke-width="0.35 px" style="stroke-width:0.35;stroke-miterlimit:4;stroke-dasharray:none;fill:none;fill-opacity:1;fill-rule: evenodd"/>
<path id="Shape2DView_nwe0021"  d="M 2.525 1.325 L 2.4499999999999957 1.325 " stroke="#191919" stroke-width="0.35 px" style="stroke-width:0.35;stroke-miterlimit:4;stroke-dasharray:none;fill:none;fill-opacity:1;fill-rule: evenodd"/>
<path id="Shape2DView_nwe0022"  d="M 3.05 1.325 L 2.825 1.3249999999999997 " stroke="#191919" stroke-width="0.35 px" style="stroke-width:0.35;stroke-miterlimit:4;stroke-dasharray:none;fill:none;fill-opacity:1;fill-rule: evenodd"/>
<path id="Shape2DView_nwe0023"  d="M 2.825 1.325 L 2.8166026642922524 1.325 L 2.8083109299532767 1.325 L 2.8002290703533625 1.325 L 2.7924587195661834 1.325 L 2.78509759426135 1.325 L 2.778238264860595 1.325 L 2.771966991411009 1.325 L 2.766362638814898 1.325 L 2.761495685057879 1.325 L 2.7574273349073186 1.325 L 2.754208750226873 1.325 L 2.7518804065863636 1.325 L 2.750471584258007 1.325 L 2.75 1.325 " stroke="#191919" stroke-width="0.35 px" style="stroke-width:0.35;stroke-miterlimit:4;stroke-dasharray:none;fill:none;fill-opacity:1;fill-rule: evenodd"/>
<path id="Shape2DView_nwe0024"  d="M 2.75 1.3250000000000002 L 2.7485852472259795 1.3250000000000002 L 2.74435878024091 1.3250000000000002 L 2.737373749319383 1.3250000000000002 L 2.727717995278044 1.3250000000000002 L 2.7155129448263637 1.3250000000000002 L 2.700912083555307 1.3250000000000002 L 2.6840990257669732 1.3250000000000002 L 2.665285205418215 1.3250000000000002 L 2.6447072172159505 1.3250000000000002 L 2.6226238413014507 1.3250000000000002 L 2.5993127889399124 1.325 L 2.575067210140171 1.325 L 2.5501920071232442 1.325 L 2.525 1.325 " stroke="#191919" stroke-width="0.35 px" style="stroke-width:0.35;stroke-miterlimit:4;stroke-dasharray:none;fill:none;fill-opacity:1;fill-rule: evenodd"/>
<path id="Shape2DView_nwe0025"  d="M 3.05 1.675 L 2.825 1.6749999999999998 " stroke="#191919" stroke-width="0.35 px" style="stroke-width:0.35;stroke-miterlimit:4;stroke-dasharray:none;fill:none;fill-opacity:1;fill-rule: evenodd"/>
<path id="Shape2DView_nwe0026"  d="M 2.825 1.675 L 2.8166026642922524 1.675 L 2.8083109299532767 1.675 L 2.8002290703533625 1.675 L 2.7924587195661834 1.675 L 2.78509759426135 1.675 L 2.778238264860595 1.675 L 2.771966991411009 1.675 L 2.766362638814898 1.675 L 2.761495685057879 1.675 L 2.7574273349073186 1.675 L 2.754208750226873 1.675 L 2.7518804065863636 1.675 L 2.750471584258007 1.675 L 2.75 1.675 " stroke="#191919" stroke-width="0.35 px" style="stroke-width:0.35;stroke-miterlimit:4;stroke-dasharray:none;fill:none;fill-opacity:1;fill-rule: evenodd"/>
<path id="Shape2DView_nwe0027"  d="M 2.75 1.6750000000000003 L 2.7485852472259795 1.6750000000000003 L 2.74435878024091 1.6750000000000003 L 2.737373749319383 1.6750000000000003 L 2.727717995278044 1.6750000000000003 L 2.7155129448263637 1.6750000000000003 L 2.700912083555307 1.6750000000000003 L 2.6840990257669732 1.6750000000000003 L 2.665285205418215 1.6750000000000003 L 2.6447072172159505 1.6750000000000003 L 2.6226238413014507 1.6750000000000003 L 2.5993127889399124 1.675 L 2.575067210140171 1.675 L 2.5501920071232442 1.675 L 2.525 1.675 " stroke="#191919" stroke-width="0.35 px" style="stroke-width:0.35;stroke-miterlimit:4;stroke-dasharray:none;fill:none;fill-opacity:1;fill-rule: evenodd"/>
<path id="Shape2DView_nwe0028"  d="M 3.05 0.325 L 2.825 0.32499999999999973 " stroke="#191919" stroke-width="0.35 px" style="stroke-width:0.35;stroke-miterlimit:4;stroke-dasharray:none;fill:none;fill-opacity:1;fill-rule: evenodd"/>
<path id="Shape2DView_nwe0029"  d="M 2.825 0.325 L 2.8166026642922524 0.325 L 2.8083109299532767 0.325 L 2.8002290703533625 0.32499999999999996 L 2.7924587195661834 0.32499999999999996 L 2.78509759426135 0.32499999999999996 L 2.778238264860595 0.32499999999999996 L 2.771966991411009 0.32499999999999996 L 2.766362638814898 0.32499999999999996 L 2.761495685057879 0.32499999999999996 L 2.7574273349073186 0.32499999999999996 L 2.754208750226873 0.3249999999999999 L 2.7518804065863636 0.3249999999999999 L 2.750471584258007 0.3249999999999999 L 2.75 0.3249999999999999 " stroke="#191919" stroke-width="0.35 px" style="stroke-width:0.35;stroke-miterlimit:4;stroke-dasharray:none;fill:none;fill-opacity:1;fill-rule: evenodd"/>
<path id="Shape2DView_nwe0030"  d="M 2.75 0.3250000000000003 L 2.7485852472259795 0.3250000000000003 L 2.74435878024091 0.3250000000000003 L 2.737373749319383 0.3250000000000003 L 2.727717995278044 0.32500000000000023 L 2.7155129448263637 0.32500000000000023 L 2.700912083555307 0.32500000000000023 L 2.6840990257669732 0.3250000000000002 L 2.665285205418215 0.3250000000000002 L 2.6447072172159505 0.3250000000000002 L 2.6226238413014507 0.3250000000000001 L 2.5993127889399124 0.3250000000000001 L 2.575067210140171 0.32500000000000007 L 2.5501920071232442 0.32500000000000007 L 2.525 0.325 " stroke="#191919" stroke-width="0.35 px" style="stroke-width:0.35;stroke-miterlimit:4;stroke-dasharray:none;fill:none;fill-opacity:1;fill-rule: evenodd"/>
<path id="Shape2DView_nwe0031"  d="M 2.525 0.325 L 2.4499999999999966 0.3249999999999999 " stroke="#191919" stroke-width="0.35 px" style="stroke-width:0.35;stroke-miterlimit:4;stroke-dasharray:none;fill:none;fill-opacity:1;fill-rule: evenodd"/>
<path id="Shape2DView_nwe0032"  d="M 3.05 0.675 L 2.825 0.6749999999999998 " stroke="#191919" stroke-width="0.35 px" style="stroke-width:0.35;stroke-miterlimit:4;stroke-dasharray:none;fill:none;fill-opacity:1;fill-rule: evenodd"/>
<path id="Shape2DView_nwe0033"  d="M 2.825 0.675 L 2.8166026642922524 0.675 L 2.8083109299532767 0.675 L 2.8002290703533625 0.675 L 2.7924587195661834 0.675 L 2.78509759426135 0.675 L 2.778238264860595 0.6749999999999999 L 2.771966991411009 0.6749999999999999 L 2.766362638814898 0.6749999999999999 L 2.761495685057879 0.6749999999999999 L 2.7574273349073186 0.6749999999999999 L 2.754208750226873 0.6749999999999999 L 2.7518804065863636 0.6749999999999999 L 2.750471584258007 0.6749999999999999 L 2.75 0.6749999999999999 " stroke="#191919" stroke-width="0.35 px" style="stroke-width:0.35;stroke-miterlimit:4;stroke-dasharray:none;fill:none;fill-opacity:1;fill-rule: evenodd"/>
<path id="Shape2DView_nwe0034"  d="M 2.75 0.6750000000000003 L 2.7485852472259795 0.6750000000000003 L 2.74435878024091 0.6750000000000003 L 2.737373749319383 0.6750000000000003 L 2.727717995278044 0.6750000000000003 L 2.7155129448263637 0.6750000000000003 L 2.700912083555307 0.6750000000000003 L 2.6840990257669732 0.6750000000000003 L 2.665285205418215 0.6750000000000003 L 2.6447072172159505 0.6750000000000002 L 2.6226238413014507 0.6750000000000002 L 2.5993127889399124 0.6750000000000002 L 2.575067210140171 0.6750000000000002 L 2.5501920071232442 0.675 L 2.525 0.675 " stroke="#191919" stroke-width="0.35 px" style="stroke-width:0.35;stroke-miterlimit:4;stroke-dasharray:none;fill:none;fill-opacity:1;fill-rule: evenodd"/>
<path id="Shape2DView_nwe0035"  d="M 2.525 0.675 L 2.449999999999996 0.6749999999999999 " stroke="#191919" stroke-width="0.35 px" style="stroke-width:0.35;stroke-miterlimit:4;stroke-dasharray:none;fill:none;fill-opacity:1;fill-rule: evenodd"/>
<path id="Shape2DView_nwe0036"  d="M 1.8 2.5 L 1.7944017761948345 2.5 L 1.7888739533021842 2.5 L 1.7834860469022418 2.5 L 1.778305813044122 2.5 L 1.7733983961742332 2.5 L 1.7688255099070633 2.5 L 1.7646446609406727 2.5 L 1.7609084258765986 2.5 L 1.7576637900385859 2.5 L 1.754951556604879 2.5 L 1.7528058334845817 2.5 L 1.7512536043909088 2.5 L 1.750314389505338 2.5 L 1.75 2.5 " stroke="#191919" stroke-width="0.35 px" style="stroke-width:0.35;stroke-miterlimit:4;stroke-dasharray:none;fill:none;fill-opacity:1;fill-rule: evenodd"/>
<path id="Shape2DView_nwe0037"  d="M 2.4 2.5 L 1.8 2.499999999999999 " stroke="#191919" stroke-width="0.35 px" style="stroke-width:0.35;stroke-miterlimit:4;stroke-dasharray:none;fill:none;fill-opacity:1;fill-rule: evenodd"/>
<path id="Shape2DView_nwe0038"  d="M -1.8 2.5 L -2.4 2.499999999999999 " stroke="#191919" stroke-width="0.35 px" style="stroke-width:0.35;stroke-miterlimit:4;stroke-dasharray:none;fill:none;fill-opacity:1;fill-rule: evenodd"/>
<path id="Shape2DView_nwe0039"  d="M -1.8 2.5 L -1.7944017761948345 2.5 L -1.7888739533021842 2.5 L -1.7834860469022418 2.5 L -1.778305813044122 2.5 L -1.7733983961742332 2.5 L -1.7688255099070633 2.5 L -1.7646446609406727 2.5 L -1.7609084258765986 2.5 L -1.7576637900385859 2.5 L -1.754951556604879 2.5 L -1.7528058334845817 2.5 L -1.7512536043909088 2.5 L -1.750314389505338 2.5 L -1.75 2.5 " stroke="#191919" stroke-width="0.35 px" style="stroke-width:0.35;stroke-miterlimit:4;stroke-dasharray:none;fill:none;fill-opacity:1;fill-rule: evenodd"/>
<path id="Shape2DView_nwe0040"  d="M -3.05 -0.325 L -2.825 -0.32499999999999973 " stroke="#191919" stroke-width="0.35 px" style="stroke-width:0.35;stroke-miterlimit:4;stroke-dasharray:none;fill:none;fill-opacity:1;fill-rule: evenodd"/>
<path id="Shape2DView_nwe0041"  d="M -2.825 -0.325 L -2.8166026642922524 -0.325 L -2.8083109299532767 -0.325 L -2.8002290703533625 -0.32499999999999996 L -2.7924587195661834 -0.32499999999999996 L -2.78509759426135 -0.32499999999999996 L -2.778238264860595 -0.32499999999999996 L -2.771966991411009 -0.32499999999999996 L -2.766362638814898 -0.32499999999999996 L -2.761495685057879 -0.3249999999999999 L -2.7574273349073186 -0.3249999999999999 L -2.754208750226873 -0.3249999999999999 L -2.7518804065863636 -0.3249999999999999 L -2.750471584258007 -0.3249999999999999 L -2.75 -0.3249999999999999 " stroke="#191919" stroke-width="0.35 px" style="stroke-width:0.35;stroke-miterlimit:4;stroke-dasharray:none;fill:none;fill-opacity:1;fill-rule: evenodd"/>
<path id="Shape2DView_nwe0042"  d="M -2.75 -0.3250000000000003 L -2.7485852472259795 -0.3250000000000003 L -2.74435878024091 -0.3250000000000003 L -2.737373749319383 -0.3250000000000003 L -2.727717995278044 -0.3250000000000003 L -2.7155129448263637 -0.3250000000000003 L -2.700912083555307 -0.32500000000000023 L -2.6840990257669732 -0.32500000000000023 L -2.665285205418215 -0.3250000000000002 L -2.6447072172159505 -0.3250000000000002 L -2.6226238413014507 -0.3250000000000001 L -2.5993127889399124 -0.3250000000000001 L -2.575067210140171 -0.32500000000000007 L -2.5501920071232442 -0.32500000000000007 L -2.525 -0.325 " stroke="#191919" stroke-width="0.35 px" style="stroke-width:0.35;stroke-miterlimit:4;stroke-dasharray:none;fill:none;fill-opacity:1;fill-rule: evenodd"/>
<path id="Shape2DView_nwe0043"  d="M -2.525 -0.325 L -2.4499999999999966 -0.3249999999999999 " stroke="#191919" stroke-width="0.35 px" style="stroke-width:0.35;stroke-miterlimit:4;stroke-dasharray:none;fill:none;fill-opacity:1;fill-rule: evenodd"/>
<path id="Shape2DView_nwe0044"  d="M -3.05 -0.675 L -2.825 -0.6749999999999997 " stroke="#191919" stroke-width="0.35 px" style="stroke-width:0.35;stroke-miterlimit:4;stroke-dasharray:none;fill:none;fill-opacity:1;fill-rule: evenodd"/>
<path id="Shape2DView_nwe0045"  d="M -2.825 -0.675 L -2.8166026642922524 -0.675 L -2.8083109299532767 -0.675 L -2.8002290703533625 -0.675 L -2.7924587195661834 -0.675 L -2.78509759426135 -0.675 L -2.778238264860595 -0.6749999999999999 L -2.771966991411009 -0.6749999999999999 L -2.766362638814898 -0.6749999999999999 L -2.761495685057879 -0.6749999999999999 L -2.7574273349073186 -0.6749999999999999 L -2.754208750226873 -0.6749999999999999 L -2.7518804065863636 -0.6749999999999999 L -2.750471584258007 -0.6749999999999999 L -2.75 -0.6749999999999999 " stroke="#191919" stroke-width="0.35 px" style="stroke-width:0.35;stroke-miterlimit:4;stroke-dasharray:none;fill:none;fill-opacity:1;fill-rule: evenodd"/>
<path id="Shape2DView_nwe0046"  d="M -2.75 -0.6750000000000004 L -2.7485852472259795 -0.6750000000000004 L -2.74435878024091 -0.6750000000000004 L -2.737373749319383 -0.6750000000000004 L -2.727717995278044 -0.6750000000000003 L -2.7155129448263637 -0.6750000000000003 L -2.700912083555307 -0.6750000000000003 L -2.6840990257669732 -0.6750000000000003 L -2.665285205418215 -0.6750000000000003 L -2.6447072172159505 -0.6750000000000002 L -2.6226238413014507 -0.6750000000000002 L -2.5993127889399124 -0.6750000000000002 L -2.575067210140171 -0.6750000000000002 L -2.5501920071232442 -0.675 L -2.525 -0.675 " stroke="#191919" stroke-width="0.35 px" style="stroke-width:0.35;stroke-miterlimit:4;stroke-dasharray:none;fill:none;fill-opacity:1;fill-rule: evenodd"/>
<path id="Shape2DView_nwe0047"  d="M -2.525 -0.675 L -2.4499999999999957 -0.6749999999999999 " stroke="#191919" stroke-width="0.35 px" style="stroke-width:0.35;stroke-miterlimit:4;stroke-dasharray:none;fill:none;fill-opacity:1;fill-rule: evenodd"/>
<path id="Shape2DView_nwe0048"  d="M -3.05 0.675 L -2.825 0.6750000000000004 " stroke="#191919" stroke-width="0.35 px" style="stroke-width:0.35;stroke-miterlimit:4;stroke-dasharray:none;fill:none;fill-opacity:1;fill-rule: evenodd"/>
<path id="Shape2DView_nwe0049"  d="M -2.825 0.675 L -2.8166026642922524 0.675 L -2.8083109299532767 0.675 L -2.8002290703533625 0.675 L -2.7924587195661834 0.675 L -2.78509759426135 0.675 L -2.778238264860595 0.6750000000000002 L -2.771966991411009 0.6750000000000002 L -2.766362638814898 0.6750000000000002 L -2.761495685057879 0.6750000000000002 L -2.7574273349073186 0.6750000000000002 L -2.754208750226873 0.6750000000000002 L -2.7518804065863636 0.6750000000000002 L -2.750471584258007 0.6750000000000002 L -2.75 0.6750000000000002 " stroke="#191919" stroke-width="0.35 px" style="stroke-width:0.35;stroke-miterlimit:4;stroke-dasharray:none;fill:none;fill-opacity:1;fill-rule: evenodd"/>
<path id="Shape2DView_nwe0050"  d="M -2.75 0.6749999999999997 L -2.7485852472259795 0.6749999999999997 L -2.74435878024091 0.6749999999999997 L -2.737373749319383 0.6749999999999997 L -2.727717995278044 0.6749999999999998 L -2.7155129448263637 0.6749999999999998 L -2.700912083555307 0.6749999999999998 L -2.6840990257669732 0.6749999999999998 L -2.665285205418215 0.6749999999999998 L -2.6447072172159505 0.6749999999999999 L -2.6226238413014507 0.6749999999999999 L -2.5993127889399124 0.6749999999999999 L -2.575067210140171 0.6749999999999999 L -2.5501920071232442 0.675 L -2.525 0.675 " stroke="#191919" stroke-width="0.35 px" style="stroke-width:0.35;stroke-miterlimit:4;stroke-dasharray:none;fill:none;fill-opacity:1;fill-rule: evenodd"/>
<path id="Shape2DView_nwe0051"  d="M -2.525 0.675 L -2.449999999999998 0.6750000000000002 " stroke="#191919" stroke-width="0.35 px" style="stroke-width:0.35;stroke-miterlimit:4;stroke-dasharray:none;fill:none;fill-opacity:1;fill-rule: evenodd"/>
<path id="Shape2DView_nwe0052"  d="M -3.05 0.325 L -2.825 0.3250000000000003 " stroke="#191919" stroke-width="0.35 px" style="stroke-width:0.35;stroke-miterlimit:4;stroke-dasharray:none;fill:none;fill-opacity:1;fill-rule: evenodd"/>
<path id="Shape2DView_nwe0053"  d="M -2.825 0.325 L -2.8166026642922524 0.325 L -2.8083109299532767 0.325 L -2.8002290703533625 0.32500000000000007 L -2.7924587195661834 0.32500000000000007 L -2.78509759426135 0.32500000000000007 L -2.778238264860595 0.32500000000000007 L -2.771966991411009 0.32500000000000007 L -2.766362638814898 0.32500000000000007 L -2.761495685057879 0.3250000000000001 L -2.7574273349073186 0.3250000000000001 L -2.754208750226873 0.3250000000000001 L -2.7518804065863636 0.3250000000000001 L -2.750471584258007 0.3250000000000001 L -2.75 0.3250000000000001 " stroke="#191919" stroke-width="0.35 px" style="stroke-width:0.35;stroke-miterlimit:4;stroke-dasharray:none;fill:none;fill-opacity:1;fill-rule: evenodd"/>
<path id="Shape2DView_nwe0054"  d="M -2.75 0.32499999999999973 L -2.7485852472259795 0.32499999999999973 L -2.74435878024091 0.32499999999999973 L -2.737373749319383 0.32499999999999973 L -2.727717995278044 0.32499999999999973 L -2.7155129448263637 0.32499999999999973 L -2.700912083555307 0.3249999999999998 L -2.6840990257669732 0.3249999999999998 L -2.665285205418215 0.32499999999999984 L -2.6447072172159505 0.32499999999999984 L -2.6226238413014507 0.3249999999999999 L -2.5993127889399124 0.3249999999999999 L -2.575067210140171 0.32499999999999996 L -2.5501920071232442 0.32499999999999996 L -2.525 0.325 " stroke="#191919" stroke-width="0.35 px" style="stroke-width:0.35;stroke-miterlimit:4;stroke-dasharray:none;fill:none;fill-opacity:1;fill-rule: evenodd"/>
<path id="Shape2DView_nwe0055"  d="M -2.525 0.325 L -2.449999999999997 0.3250000000000001 " stroke="#191919" stroke-width="0.35 px" style="stroke-width:0.35;stroke-miterlimit:4;stroke-dasharray:none;fill:none;fill-opacity:1;fill-rule: evenodd"/>
<path id="Shape2DView_nwe0056"  d="M -3.05 1.675 L -2.825 1.6750000000000003 " stroke="#191919" stroke-width="0.35 px" style="stroke-width:0.35;stroke-miterlimit:4;stroke-dasharray:none;fill:none;fill-opacity:1;fill-rule: evenodd"/>
<path id="Shape2DView_nwe0057"  d="M -2.825 1.675 L -2.8166026642922524 1.675 L -2.8083109299532767 1.675 L -2.8002290703533625 1.675 L -2.7924587195661834 1.675 L -2.78509759426135 1.675 L -2.778238264860595 1.675 L -2.771966991411009 1.675 L -2.766362638814898 1.675 L -2.761495685057879 1.675 L -2.7574273349073186 1.675 L -2.754208750226873 1.675 L -2.7518804065863636 1.675 L -2.750471584258007 1.675 L -2.75 1.675 " stroke="#191919" stroke-width="0.35 px" style="stroke-width:0.35;stroke-miterlimit:4;stroke-dasharray:none;fill:none;fill-opacity:1;fill-rule: evenodd"/>
<path id="Shape2DView_nwe0058"  d="M -2.75 1.6749999999999998 L -2.7485852472259795 1.6749999999999998 L -2.74435878024091 1.6749999999999998 L -2.737373749319383 1.6749999999999998 L -2.727717995278044 1.6749999999999998 L -2.7155129448263637 1.6749999999999998 L -2.700912083555307 1.6749999999999998 L -2.6840990257669732 1.6749999999999998 L -2.665285205418215 1.6749999999999998 L -2.6447072172159505 1.6749999999999998 L -2.6226238413014507 1.6749999999999998 L -2.5993127889399124 1.675 L -2.575067210140171 1.675 L -2.5501920071232442 1.675 L -2.525 1.675 " stroke="#191919" stroke-width="0.35 px" style="stroke-width:0.35;stroke-miterlimit:4;stroke-dasharray:none;fill:none;fill-opacity:1;fill-rule: evenodd"/>
<path id="Shape2DView_nwe0059"  d="M -2.525 1.675 L -2.4499999999999993 1.675 " stroke="#191919" stroke-width="0.35 px" style="stroke-width:0.35;stroke-miterlimit:4;stroke-dasharray:none;fill:none;fill-opacity:1;fill-rule: evenodd"/>
<path id="Shape2DView_nwe0060"  d="M -3.05 1.325 L -2.825 1.3250000000000002 " stroke="#191919" stroke-width="0.35 px" style="stroke-width:0.35;stroke-miterlimit:4;stroke-dasharray:none;fill:none;fill-opacity:1;fill-rule: evenodd"/>
<path id="Shape2DView_nwe0061"  d="M -2.825 1.325 L -2.8166026642922524 1.325 L -2.8083109299532767 1.325 L -2.8002290703533625 1.325 L -2.7924587195661834 1.325 L -2.78509759426135 1.325 L -2.778238264860595 1.325 L -2.771966991411009 1.325 L -2.766362638814898 1.325 L -2.761495685057879 1.325 L -2.7574273349073186 1.325 L -2.754208750226873 1.325 L -2.7518804065863636 1.325 L -2.750471584258007 1.325 L -2.75 1.325 " stroke="#191919" stroke-width="0.35 px" style="stroke-width:0.35;stroke-miterlimit:4;stroke-dasharray:none;fill:none;fill-opacity:1;fill-rule: evenodd"/>
<path id="Shape2DView_nwe0062"  d="M -2.75 1.3249999999999997 L -2.7485852472259795 1.3249999999999997 L -2.74435878024091 1.3249999999999997 L -2.737373749319383 1.3249999999999997 L -2.727717995278044 1.3249999999999997 L -2.7155129448263637 1.3249999999999997 L -2.700912083555307 1.3249999999999997 L -2.6840990257669732 1.3249999999999997 L -2.665285205418215 1.3249999999999997 L -2.6447072172159505 1.3249999999999997 L -2.6226238413014507 1.3249999999999997 L -2.5993127889399124 1.325 L -2.575067210140171 1.325 L -2.5501920071232442 1.325 L -2.525 1.325 " stroke="#191919" stroke-width="0.35 px" style="stroke-width:0.35;stroke-miterlimit:4;stroke-dasharray:none;fill:none;fill-opacity:1;fill-rule: evenodd"/>
<path id="Shape2DView_nwe0063"  d="M -2.525 1.325 L -2.4499999999999984 1.325 " stroke="#191919" stroke-width="0.35 px" style="stroke-width:0.35;stroke-miterlimit:4;stroke-dasharray:none;fill:none;fill-opacity:1;fill-rule: evenodd"/>
<path id="Shape2DView_nwe0064"  d="M -3.05 -1.675 L -2.825 -1.6749999999999998 " stroke="#191919" stroke-width="0.35 px" style="stroke-width:0.35;stroke-miterlimit:4;stroke-dasharray:none;fill:none;fill-opacity:1;fill-rule: evenodd"/>
<path id="Shape2DView_nwe0065"  d="M -2.825 -1.675 L -2.8166026642922524 -1.675 L -2.8083109299532767 -1.675 L -2.8002290703533625 -1.675 L -2.7924587195661834 -1.675 L -2.78509759426135 -1.675 L -2.778238264860595 -1.675 L -2.771966991411009 -1.675 L -2.766362638814898 -1.675 L -2.761495685057879 -1.675 L -2.7574273349073186 -1.675 L -2.754208750226873 -1.675 L -2.7518804065863636 -1.675 L -2.750471584258007 -1.675 L -2.75 -1.675 " stroke="#191919" stroke-width="0.35 px" style="stroke-width:0.35;stroke-miterlimit:4;stroke-dasharray:none;fill:none;fill-opacity:1;fill-rule: evenodd"/>
<path id="Shape2DView_nwe0066"  d="M -2.75 -1.6750000000000003 L -2.7485852472259795 -1.6750000000000003 L -2.74435878024091 -1.6750000000000003 L -2.737373749319383 -1.6750000000000003 L -2.727717995278044 -1.6750000000000003 L -2.7155129448263637 -1.6750000000000003 L -2.700912083555307 -1.6750000000000003 L -2.6840990257669732 -1.6750000000000003 L -2.665285205418215 -1.6750000000000003 L -2.6447072172159505 -1.6750000000000003 L -2.6226238413014507 -1.6750000000000003 L -2.5993127889399124 -1.675 L -2.575067210140171 -1.675 L -2.5501920071232442 -1.675 L -2.525 -1.675 " stroke="#191919" stroke-width="0.35 px" style="stroke-width:0.35;stroke-miterlimit:4;stroke-dasharray:none;fill:none;fill-opacity:1;fill-rule: evenodd"/>
<path id="Shape2DView_nwe0067"  d="M -2.525 -1.675 L -2.4499999999999944 -1.675 " stroke="#191919" stroke-width="0.35 px" style="stroke-width:0.35;stroke-miterlimit:4;stroke-dasharray:none;fill:none;fill-opacity:1;fill-rule: evenodd"/>
<path id="Shape2DView_nwe0068"  d="M -2.525 -1.325 L -2.4499999999999953 -1.325 " stroke="#191919" stroke-width="0.35 px" style="stroke-width:0.35;stroke-miterlimit:4;stroke-dasharray:none;fill:none;fill-opacity:1;fill-rule: evenodd"/>
<path id="Shape2DView_nwe0069"  d="M -3.05 -1.325 L -2.825 -1.3249999999999997 " stroke="#191919" stroke-width="0.35 px" style="stroke-width:0.35;stroke-miterlimit:4;stroke-dasharray:none;fill:none;fill-opacity:1;fill-rule: evenodd"/>
<path id="Shape2DView_nwe0070"  d="M -2.825 -1.325 L -2.8166026642922524 -1.325 L -2.8083109299532767 -1.325 L -2.8002290703533625 -1.325 L -2.7924587195661834 -1.325 L -2.78509759426135 -1.325 L -2.778238264860595 -1.325 L -2.771966991411009 -1.325 L -2.766362638814898 -1.325 L -2.761495685057879 -1.325 L -2.7574273349073186 -1.325 L -2.754208750226873 -1.325 L -2.7518804065863636 -1.325 L -2.750471584258007 -1.325 L -2.75 -1.325 " stroke="#191919" stroke-width="0.35 px" style="stroke-width:0.35;stroke-miterlimit:4;stroke-dasharray:none;fill:none;fill-opacity:1;fill-rule: evenodd"/>
<path id="Shape2DView_nwe0071"  d="M -2.75 -1.3250000000000002 L -2.7485852472259795 -1.3250000000000002 L -2.74435878024091 -1.3250000000000002 L -2.737373749319383 -1.3250000000000002 L -2.727717995278044 -1.3250000000000002 L -2.7155129448263637 -1.3250000000000002 L -2.700912083555307 -1.3250000000000002 L -2.6840990257669732 -1.3250000000000002 L -2.665285205418215 -1.3250000000000002 L -2.6447072172159505 -1.3250000000000002 L -2.6226238413014507 -1.3250000000000002 L -2.5993127889399124 -1.325 L -2.575067210140171 -1.325 L -2.5501920071232442 -1.325 L -2.525 -1.325 " stroke="#191919" stroke-width="0.35 px" style="stroke-width:0.35;stroke-miterlimit:4;stroke-dasharray:none;fill:none;fill-opacity:1;fill-rule: evenodd"/>
<path id="Shape2DView_nwe0072"  d="M -1.8 -2.5 L -1.7944017761948345 -2.5 L -1.7888739533021842 -2.5 L -1.7834860469022418 -2.5 L -1.778305813044122 -2.5 L -1.7733983961742332 -2.5 L -1.7688255099070633 -2.5 L -1.7646446609406727 -2.5 L -1.7609084258765986 -2.5 L -1.7576637900385859 -2.5 L -1.754951556604879 -2.5 L -1.7528058334845817 -2.5 L -1.7512536043909088 -2.5 L -1.750314389505338 -2.5 L -1.75 -2.5 " stroke="#191919" stroke-width="0.35 px" style="stroke-width:0.35;stroke-miterlimit:4;stroke-dasharray:none;fill:none;fill-opacity:1;fill-rule: evenodd"/>
<path id="Shape2DView_nwe0073"  d="M -2.4 -2.5 L -1.8 -2.499999999999999 " stroke="#191919" stroke-width="0.35 px" style="stroke-width:0.35;stroke-miterlimit:4;stroke-dasharray:none;fill:none;fill-opacity:1;fill-rule: evenodd"/>
<path id="Shape2DView_nwe0074"  d="M 2.4 -2.499999999999997 L 2.4055982238051654 -2.4996856104946588 L 2.4111260466978157 -2.4987463956090883 L 2.416513953097758 -2.497194166515415 L 2.421694186955878 -2.495048443395118 L 2.426601603825767 -2.4923362099614117 L 2.431174490092937 -2.489091574123399 L 2.435355339059327 -2.4853553390593253 L 2.4390915741234016 -2.481174490092935 L 2.442336209961414 -2.476601603825765 L 2.445048443395121 -2.4716941869558764 L 2.4471941665154184 -2.4665139530977576 L 2.448746395609091 -2.461126046697815 L 2.449685610494662 -2.4555982238051652 L 2.4499999999999997 -2.45 " stroke="#191919" stroke-width="0.35 px" style="stroke-width:0.35;stroke-miterlimit:4;stroke-dasharray:none;fill:none;fill-opacity:1;fill-rule: evenodd"/>
<path id="Shape2DView_nwe0075"  d="M 1.75 2.5 L 1.750000000000006 -2.5 " stroke="#191919" stroke-width="0.35 px" style="stroke-width:0.35;stroke-miterlimit:4;stroke-dasharray:none;fill:none;fill-opacity:1;fill-rule: evenodd"/>
<path id="Shape2DView_nwe0076"  d="M 2.45 -2.45 L 2.4499999999999944 2.45 " stroke="#191919" stroke-width="0.35 px" style="stroke-width:0.35;stroke-miterlimit:4;stroke-dasharray:none;fill:none;fill-opacity:1;fill-rule: evenodd"/>
<path id="Shape2DView_nwe0077"  d="M 2.75 -1.325 L 2.7500000000000004 -1.675 " stroke="#191919" stroke-width="0.35 px" style="stroke-width:0.35;stroke-miterlimit:4;stroke-dasharray:none;fill:none;fill-opacity:1;fill-rule: evenodd"/>
<path id="Shape2DView_nwe0079"  d="M 3.05 -1.325 L 3.0500000000000003 -1.675 " stroke="#191919" stroke-width="0.35 px" style="stroke-width:0.35;stroke-miterlimit:4;stroke-dasharray:none;fill:none;fill-opacity:1;fill-rule: evenodd"/>
<path id="Shape2DView_nwe0080"  d="M 2.75 -0.325 L 2.7500000000000004 -0.675 " stroke="#191919" stroke-width="0.35 px" style="stroke-width:0.35;stroke-miterlimit:4;stroke-dasharray:none;fill:none;fill-opacity:1;fill-rule: evenodd"/>
<path id="Shape2DView_nwe0082"  d="M 3.05 -0.325 L 3.0500000000000003 -0.675 " stroke="#191919" stroke-width="0.35 px" style="stroke-width:0.35;stroke-miterlimit:4;stroke-dasharray:none;fill:none;fill-opacity:1;fill-rule: evenodd"/>
<path id="Shape2DView_nwe0083"  d="M 2.75 1.675 L 2.7500000000000004 1.325 " stroke="#191919" stroke-width="0.35 px" style="stroke-width:0.35;stroke-miterlimit:4;stroke-dasharray:none;fill:none;fill-opacity:1;fill-rule: evenodd"/>
<path id="Shape2DView_nwe0085"  d="M 3.05 1.675 L 3.0500000000000003 1.325 " stroke="#191919" stroke-width="0.35 px" style="stroke-width:0.35;stroke-miterlimit:4;stroke-dasharray:none;fill:none;fill-opacity:1;fill-rule: evenodd"/>
<path id="Shape2DView_nwe0086"  d="M 2.75 0.675 L 2.7500000000000004 0.325 " stroke="#191919" stroke-width="0.35 px" style="stroke-width:0.35;stroke-miterlimit:4;stroke-dasharray:none;fill:none;fill-opacity:1;fill-rule: evenodd"/>
<path id="Shape2DView_nwe0087"  d="M 3.05 0.675 L 3.0500000000000003 0.325 " stroke="#191919" stroke-width="0.35 px" style="stroke-width:0.35;stroke-miterlimit:4;stroke-dasharray:none;fill:none;fill-opacity:1;fill-rule: evenodd"/>
<path id="Shape2DView_nwe0088"  d="M 2.4499999999999997 2.45 L 2.449685610494662 2.4555982238051652 L 2.448746395609091 2.461126046697815 L 2.4471941665154184 2.4665139530977576 L 2.445048443395121 2.471694186955877 L 2.442336209961414 2.4766016038257654 L 2.439091574123401 2.481174490092935 L 2.435355339059327 2.4853553390593253 L 2.4311744900929364 2.489091574123399 L 2.4266016038257665 2.4923362099614117 L 2.421694186955878 2.495048443395118 L 2.416513953097758 2.4971941665154156 L 2.4111260466978157 2.4987463956090883 L 2.4055982238051654 2.4996856104946588 L 2.4 2.499999999999997 " stroke="#191919" stroke-width="0.35 px" style="stroke-width:0.35;stroke-miterlimit:4;stroke-dasharray:none;fill:none;fill-opacity:1;fill-rule: evenodd"/>
<path id="Shape2DView_nwe0089"  d="M 2.4 2.499999999999997 L 2.4055982238051654 2.4996856104946588 L 2.4111260466978157 2.4987463956090883 L 2.416513953097758 2.4971941665154156 L 2.421694186955878 2.495048443395118 L 2.4266016038257665 2.4923362099614117 L 2.4311744900929364 2.489091574123399 L 2.435355339059327 2.4853553390593253 L 2.439091574123401 2.481174490092935 L 2.442336209961414 2.4766016038257654 L 2.445048443395121 2.471694186955877 L 2.4471941665154184 2.4665139530977576 L 2.448746395609091 2.461126046697815 L 2.449685610494662 2.4555982238051652 L 2.4499999999999997 2.45 " stroke="#191919" stroke-width="0.35 px" style="stroke-width:0.35;stroke-miterlimit:4;stroke-dasharray:none;fill:none;fill-opacity:1;fill-rule: evenodd"/>
<path id="Shape2DView_nwe0090"  d="M 1.75 2.3999999999999995 L -1.75 2.3999999999999946 " stroke="#191919" stroke-width="0.35 px" style="stroke-width:0.35;stroke-miterlimit:4;stroke-dasharray:none;fill:none;fill-opacity:1;fill-rule: evenodd"/>
<path id="Shape2DView_nwe0091"  d="M -2.4 2.499999999999997 L -2.4055982238051654 2.4996856104946588 L -2.4111260466978157 2.4987463956090883 L -2.416513953097758 2.497194166515415 L -2.421694186955878 2.495048443395118 L -2.426601603825767 2.4923362099614117 L -2.431174490092937 2.489091574123399 L -2.435355339059327 2.4853553390593253 L -2.4390915741234016 2.481174490092935 L -2.442336209961414 2.476601603825765 L -2.445048443395121 2.4716941869558764 L -2.4471941665154184 2.4665139530977576 L -2.448746395609091 2.461126046697815 L -2.449685610494662 2.4555982238051652 L -2.4499999999999997 2.45 " stroke="#191919" stroke-width="0.35 px" style="stroke-width:0.35;stroke-miterlimit:4;stroke-dasharray:none;fill:none;fill-opacity:1;fill-rule: evenodd"/>
<path id="Shape2DView_nwe0092"  d="M -1.75 -2.5 L -1.7500000000000067 2.5 " stroke="#191919" stroke-width="0.35 px" style="stroke-width:0.35;stroke-miterlimit:4;stroke-dasharray:none;fill:none;fill-opacity:1;fill-rule: evenodd"/>
<path id="Shape2DView_nwe0093"  d="M -2.45 2.45 L -2.4499999999999935 -2.45 " stroke="#191919" stroke-width="0.35 px" style="stroke-width:0.35;stroke-miterlimit:4;stroke-dasharray:none;fill:none;fill-opacity:1;fill-rule: evenodd"/>
<path id="Shape2DView_nwe0094"  d="M -2.75 -0.675 L -2.7500000000000004 -0.325 " stroke="#191919" stroke-width="0.35 px" style="stroke-width:0.35;stroke-miterlimit:4;stroke-dasharray:none;fill:none;fill-opacity:1;fill-rule: evenodd"/>
<path id="Shape2DView_nwe0095"  d="M -3.05 -0.675 L -3.0500000000000003 -0.325 " stroke="#191919" stroke-width="0.35 px" style="stroke-width:0.35;stroke-miterlimit:4;stroke-dasharray:none;fill:none;fill-opacity:1;fill-rule: evenodd"/>
<path id="Shape2DView_nwe0096"  d="M -2.75 0.325 L -2.7500000000000004 0.675 " stroke="#191919" stroke-width="0.35 px" style="stroke-width:0.35;stroke-miterlimit:4;stroke-dasharray:none;fill:none;fill-opacity:1;fill-rule: evenodd"/>
<path id="Shape2DView_nwe0097"  d="M -3.05 0.325 L -3.0500000000000003 0.675 " stroke="#191919" stroke-width="0.35 px" style="stroke-width:0.35;stroke-miterlimit:4;stroke-dasharray:none;fill:none;fill-opacity:1;fill-rule: evenodd"/>
<path id="Shape2DView_nwe0098"  d="M -2.75 1.325 L -2.7500000000000004 1.675 " stroke="#191919" stroke-width="0.35 px" style="stroke-width:0.35;stroke-miterlimit:4;stroke-dasharray:none;fill:none;fill-opacity:1;fill-rule: evenodd"/>
<path id="Shape2DView_nwe0099"  d="M -3.05 1.325 L -3.0500000000000003 1.675 " stroke="#191919" stroke-width="0.35 px" style="stroke-width:0.35;stroke-miterlimit:4;stroke-dasharray:none;fill:none;fill-opacity:1;fill-rule: evenodd"/>
<path id="Shape2DView_nwe0100"  d="M -2.75 -1.675 L -2.7500000000000004 -1.325 " stroke="#191919" stroke-width="0.35 px" style="stroke-width:0.35;stroke-miterlimit:4;stroke-dasharray:none;fill:none;fill-opacity:1;fill-rule: evenodd"/>
<path id="Shape2DView_nwe0101"  d="M -3.05 -1.675 L -3.0500000000000003 -1.325 " stroke="#191919" stroke-width="0.35 px" style="stroke-width:0.35;stroke-miterlimit:4;stroke-dasharray:none;fill:none;fill-opacity:1;fill-rule: evenodd"/>
<path id="Shape2DView_nwe0102"  d="M -2.4499999999999997 -2.45 L -2.449685610494662 -2.4555982238051652 L -2.448746395609091 -2.461126046697815 L -2.4471941665154184 -2.4665139530977576 L -2.445048443395121 -2.471694186955877 L -2.442336209961414 -2.4766016038257654 L -2.439091574123401 -2.481174490092935 L -2.435355339059327 -2.4853553390593253 L -2.4311744900929364 -2.489091574123399 L -2.4266016038257665 -2.4923362099614117 L -2.421694186955878 -2.495048443395118 L -2.416513953097758 -2.4971941665154156 L -2.4111260466978157 -2.4987463956090883 L -2.4055982238051654 -2.4996856104946588 L -2.4 -2.499999999999997 " stroke="#191919" stroke-width="0.35 px" style="stroke-width:0.35;stroke-miterlimit:4;stroke-dasharray:none;fill:none;fill-opacity:1;fill-rule: evenodd"/>
<path id="Shape2DView_nwe0103"  d="M -2.4 -2.499999999999997 L -2.4055982238051654 -2.4996856104946588 L -2.4111260466978157 -2.4987463956090883 L -2.416513953097758 -2.4971941665154156 L -2.421694186955878 -2.495048443395118 L -2.4266016038257665 -2.4923362099614117 L -2.4311744900929364 -2.489091574123399 L -2.435355339059327 -2.4853553390593253 L -2.439091574123401 -2.481174490092935 L -2.442336209961414 -2.4766016038257654 L -2.445048443395121 -2.471694186955877 L -2.4471941665154184 -2.4665139530977576 L -2.448746395609091 -2.461126046697815 L -2.449685610494662 -2.4555982238051652 L -2.4499999999999997 -2.45 " stroke="#191919" stroke-width="0.35 px" style="stroke-width:0.35;stroke-miterlimit:4;stroke-dasharray:none;fill:none;fill-opacity:1;fill-rule: evenodd"/>
<path id="Shape2DView_nwe0104"  d="M -1.75 -2.3999999999999995 L 1.75 -2.3999999999999946 " stroke="#191919" stroke-width="0.35 px" style="stroke-width:0.35;stroke-miterlimit:4;stroke-dasharray:none;fill:none;fill-opacity:1;fill-rule: evenodd"/>
<path id="Shape2DView_nwe0105"  d="M -1.1249999999999993 -1.7 L -1.1249999999999993 -1.75 " stroke="#191919" stroke-width="0.35 px" style="stroke-width:0.35;stroke-miterlimit:4;stroke-dasharray:none;fill:none;fill-opacity:1;fill-rule: evenodd"/>
<path id="Shape2DView_nwe0106"  d="M -1.125 -1.75 L 1.125 -1.7499999999999971 " stroke="#191919" stroke-width="0.35 px" style="stroke-width:0.35;stroke-miterlimit:4;stroke-dasharray:none;fill:none;fill-opacity:1;fill-rule: evenodd"/>
<path id="Shape2DView_nwe0107"  d="M 1.125 -1.75 L 1.125 -1.7 " stroke="#191919" stroke-width="0.35 px" style="stroke-width:0.35;stroke-miterlimit:4;stroke-dasharray:none;fill:none;fill-opacity:1;fill-rule: evenodd"/>
<path id="Shape2DView_nwe0108"  d="M 1.125 -1.6999999999999968 L 1.225 -1.6999999999999966 " stroke="#191919" stroke-width="0.35 px" style="stroke-width:0.35;stroke-miterlimit:4;stroke-dasharray:none;fill:none;fill-opacity:1;fill-rule: evenodd"/>
<path id="Shape2DView_nwe0109"  d="M 1.225 -1.7 L 1.2249999999999956 1.7 " stroke="#191919" stroke-width="0.35 px" style="stroke-width:0.35;stroke-miterlimit:4;stroke-dasharray:none;fill:none;fill-opacity:1;fill-rule: evenodd"/>
<path id="Shape2DView_nwe0110"  d="M 1.225 1.7 L 1.125 1.6999999999999997 " stroke="#191919" stroke-width="0.35 px" style="stroke-width:0.35;stroke-miterlimit:4;stroke-dasharray:none;fill:none;fill-opacity:1;fill-rule: evenodd"/>
<path id="Shape2DView_nwe0111"  d="M 1.1249999999999993 1.7 L 1.1249999999999993 1.75 " stroke="#191919" stroke-width="0.35 px" style="stroke-width:0.35;stroke-miterlimit:4;stroke-dasharray:none;fill:none;fill-opacity:1;fill-rule: evenodd"/>
<path id="Shape2DView_nwe0112"  d="M 1.125 1.75 L -1.125 1.7499999999999971 " stroke="#191919" stroke-width="0.35 px" style="stroke-width:0.35;stroke-miterlimit:4;stroke-dasharray:none;fill:none;fill-opacity:1;fill-rule: evenodd"/>
<path id="Shape2DView_nwe0113"  d="M -1.125 1.75 L -1.125 1.7 " stroke="#191919" stroke-width="0.35 px" style="stroke-width:0.35;stroke-miterlimit:4;stroke-dasharray:none;fill:none;fill-opacity:1;fill-rule: evenodd"/>
<path id="Shape2DView_nwe0114"  d="M -1.125 1.6999999999999968 L -1.225 1.6999999999999966 " stroke="#191919" stroke-width="0.35 px" style="stroke-width:0.35;stroke-miterlimit:4;stroke-dasharray:none;fill:none;fill-opacity:1;fill-rule: evenodd"/>
<path id="Shape2DView_nwe0115"  d="M -1.225 1.7 L -1.2249999999999956 -1.7 " stroke="#191919" stroke-width="0.35 px" style="stroke-width:0.35;stroke-miterlimit:4;stroke-dasharray:none;fill:none;fill-opacity:1;fill-rule: evenodd"/>
<path id="Shape2DView_nwe0116"  d="M -1.225 -1.7 L -1.125 -1.6999999999999997 " stroke="#191919" stroke-width="0.35 px" style="stroke-width:0.35;stroke-miterlimit:4;stroke-dasharray:none;fill:none;fill-opacity:1;fill-rule: evenodd"/>
<path id="Shape2DView_nwe0117"  d="M -0.635 -1.25 L -0.6349999999999993 -1.75 " stroke="#191919" stroke-width="0.35 px" style="stroke-width:0.35;stroke-miterlimit:4;stroke-dasharray:none;fill:none;fill-opacity:1;fill-rule: evenodd"/>
<path id="Shape2DView_nwe0118"  d="M -1.125 -1.7 L -0.9349999999999999 -1.51 " stroke="#191919" stroke-width="0.35 px" style="stroke-width:0.35;stroke-miterlimit:4;stroke-dasharray:none;fill:none;fill-opacity:1;fill-rule: evenodd"/>
<path id="Shape2DView_nwe0119"  d="M -0.9349999999999988 -1.51 L -0.9349999999999993 -1.25 " stroke="#191919" stroke-width="0.35 px" style="stroke-width:0.35;stroke-miterlimit:4;stroke-dasharray:none;fill:none;fill-opacity:1;fill-rule: evenodd"/>
<path id="Shape2DView_nwe0120"  d="M -1.2249999999999999 -1.7 L -1.035 -1.51 " stroke="#191919" stroke-width="0.35 px" style="stroke-width:0.35;stroke-miterlimit:4;stroke-dasharray:none;fill:none;fill-opacity:1;fill-rule: evenodd"/>
<path id="Shape2DView_nwe0121"  d="M -1.035 -1.5099999999999998 L -0.935 -1.5099999999999996 " stroke="#191919" stroke-width="0.35 px" style="stroke-width:0.35;stroke-miterlimit:4;stroke-dasharray:none;fill:none;fill-opacity:1;fill-rule: evenodd"/>
<path id="Shape2DView_nwe0122"  d="M 0.025 -1.25 L 0.025000000000000668 -1.75 " stroke="#191919" stroke-width="0.35 px" style="stroke-width:0.35;stroke-miterlimit:4;stroke-dasharray:none;fill:none;fill-opacity:1;fill-rule: evenodd"/>
<path id="Shape2DView_nwe0123"  d="M 0.625 -1.75 L 0.6249999999999993 -1.25 " stroke="#191919" stroke-width="0.35 px" style="stroke-width:0.35;stroke-miterlimit:4;stroke-dasharray:none;fill:none;fill-opacity:1;fill-rule: evenodd"/>
<path id="Shape2DView_nwe0124"  d="M 0.625 -1.25 L 0.025000000000000022 -1.2500000000000009 " stroke="#191919" stroke-width="0.35 px" style="stroke-width:0.35;stroke-miterlimit:4;stroke-dasharray:none;fill:none;fill-opacity:1;fill-rule: evenodd"/>
<path id="Shape2DView_nwe0125"  d="M 0.635 -1.75 L 0.6349999999999993 -1.25 " stroke="#191919" stroke-width="0.35 px" style="stroke-width:0.35;stroke-miterlimit:4;stroke-dasharray:none;fill:none;fill-opacity:1;fill-rule: evenodd"/>
<path id="Shape2DView_nwe0126"  d="M 1.1249999999999998 -1.7 L 0.935 -1.51 " stroke="#191919" stroke-width="0.35 px" style="stroke-width:0.35;stroke-miterlimit:4;stroke-dasharray:none;fill:none;fill-opacity:1;fill-rule: evenodd"/>
<path id="Shape2DView_nwe0127"  d="M 0.9350000000000009 -1.51 L 0.9350000000000005 -1.25 " stroke="#191919" stroke-width="0.35 px" style="stroke-width:0.35;stroke-miterlimit:4;stroke-dasharray:none;fill:none;fill-opacity:1;fill-rule: evenodd"/>
<path id="Shape2DView_nwe0128"  d="M -1.2249999999999999 1.7 L -1.0350000000000001 1.51 " stroke="#191919" stroke-width="0.35 px" style="stroke-width:0.35;stroke-miterlimit:4;stroke-dasharray:none;fill:none;fill-opacity:1;fill-rule: evenodd"/>
<path id="Shape2DView_nwe0129"  d="M -1.0349999999999997 1.51 L -1.0349999999999957 -1.51 " stroke="#191919" stroke-width="0.35 px" style="stroke-width:0.35;stroke-miterlimit:4;stroke-dasharray:none;fill:none;fill-opacity:1;fill-rule: evenodd"/>
<path id="Shape2DView_nwe0130"  d="M -0.935 1.51 L -1.1249999999999998 1.7 " stroke="#191919" stroke-width="0.35 px" style="stroke-width:0.35;stroke-miterlimit:4;stroke-dasharray:none;fill:none;fill-opacity:1;fill-rule: evenodd"/>
<path id="Shape2DView_nwe0131"  d="M -0.935 1.5099999999999971 L -1.0349999999999997 1.509999999999997 " stroke="#191919" stroke-width="0.35 px" style="stroke-width:0.35;stroke-miterlimit:4;stroke-dasharray:none;fill:none;fill-opacity:1;fill-rule: evenodd"/>
<path id="Shape2DView_nwe0132"  d="M 1.2249999999999999 -1.7 L 1.0350000000000001 -1.51 " stroke="#191919" stroke-width="0.35 px" style="stroke-width:0.35;stroke-miterlimit:4;stroke-dasharray:none;fill:none;fill-opacity:1;fill-rule: evenodd"/>
<path id="Shape2DView_nwe0133"  d="M 0.935 -1.5099999999999971 L 1.0349999999999997 -1.509999999999997 " stroke="#191919" stroke-width="0.35 px" style="stroke-width:0.35;stroke-miterlimit:4;stroke-dasharray:none;fill:none;fill-opacity:1;fill-rule: evenodd"/>
<path id="Shape2DView_nwe0134"  d="M -0.635 1.75 L -0.6349999999999993 1.25 " stroke="#191919" stroke-width="0.35 px" style="stroke-width:0.35;stroke-miterlimit:4;stroke-dasharray:none;fill:none;fill-opacity:1;fill-rule: evenodd"/>
<path id="Shape2DView_nwe0135"  d="M -0.9350000000000005 1.25 L -0.9350000000000009 1.51 " stroke="#191919" stroke-width="0.35 px" style="stroke-width:0.35;stroke-miterlimit:4;stroke-dasharray:none;fill:none;fill-opacity:1;fill-rule: evenodd"/>
<path id="Shape2DView_nwe0136"  d="M 1.2249999999999999 1.7 L 1.035 1.51 " stroke="#191919" stroke-width="0.35 px" style="stroke-width:0.35;stroke-miterlimit:4;stroke-dasharray:none;fill:none;fill-opacity:1;fill-rule: evenodd"/>
<path id="Shape2DView_nwe0137"  d="M 1.0349999999999997 -1.51 L 1.0349999999999957 1.51 " stroke="#191919" stroke-width="0.35 px" style="stroke-width:0.35;stroke-miterlimit:4;stroke-dasharray:none;fill:none;fill-opacity:1;fill-rule: evenodd"/>
<path id="Shape2DView_nwe0138"  d="M 0.635 1.25 L 0.6349999999999993 1.75 " stroke="#191919" stroke-width="0.35 px" style="stroke-width:0.35;stroke-miterlimit:4;stroke-dasharray:none;fill:none;fill-opacity:1;fill-rule: evenodd"/>
<path id="Shape2DView_nwe0139"  d="M 0.625 1.25 L 0.6249999999999993 1.75 " stroke="#191919" stroke-width="0.35 px" style="stroke-width:0.35;stroke-miterlimit:4;stroke-dasharray:none;fill:none;fill-opacity:1;fill-rule: evenodd"/>
<path id="Shape2DView_nwe0140"  d="M 0.025 1.75 L 0.025000000000000668 1.25 " stroke="#191919" stroke-width="0.35 px" style="stroke-width:0.35;stroke-miterlimit:4;stroke-dasharray:none;fill:none;fill-opacity:1;fill-rule: evenodd"/>
<path id="Shape2DView_nwe0141"  d="M 0.025 1.25 L 0.625 1.2500000000000009 " stroke="#191919" stroke-width="0.35 px" style="stroke-width:0.35;stroke-miterlimit:4;stroke-dasharray:none;fill:none;fill-opacity:1;fill-rule: evenodd"/>
<path id="Shape2DView_nwe0142"  d="M 0.9349999999999993 1.25 L 0.9349999999999988 1.51 " stroke="#191919" stroke-width="0.35 px" style="stroke-width:0.35;stroke-miterlimit:4;stroke-dasharray:none;fill:none;fill-opacity:1;fill-rule: evenodd"/>
<path id="Shape2DView_nwe0143"  d="M 0.9349999999999999 1.51 L 1.125 1.7 " stroke="#191919" stroke-width="0.35 px" style="stroke-width:0.35;stroke-miterlimit:4;stroke-dasharray:none;fill:none;fill-opacity:1;fill-rule: evenodd"/>
<path id="Shape2DView_nwe0144"  d="M 1.035 1.5099999999999998 L 0.935 1.5099999999999996 " stroke="#191919" stroke-width="0.35 px" style="stroke-width:0.35;stroke-miterlimit:4;stroke-dasharray:none;fill:none;fill-opacity:1;fill-rule: evenodd"/>
<path id="Shape2DView_nwe0145"  d="M 0.025000000000000022 -1.2500000000000007 L -0.935 -1.250000000000002 " stroke="#191919" stroke-width="0.35 px" style="stroke-width:0.35;stroke-miterlimit:4;stroke-dasharray:none;fill:none;fill-opacity:1;fill-rule: evenodd"/>
<path id="Shape2DView_nwe0146"  d="M 0.625 1.2500000000000016 L 0.935 1.250000000000002 " stroke="#191919" stroke-width="0.35 px" style="stroke-width:0.35;stroke-miterlimit:4;stroke-dasharray:none;fill:none;fill-opacity:1;fill-rule: evenodd"/>
<path id="Shape2DView_nwe0147"  d="M -0.935 1.2499999999999996 L 0.025000000000000022 1.2500000000000009 " stroke="#191919" stroke-width="0.35 px" style="stroke-width:0.35;stroke-miterlimit:4;stroke-dasharray:none;fill:none;fill-opacity:1;fill-rule: evenodd"/>
<path id="Shape2DView_nwe0148"  d="M 0.935 -1.2499999999999996 L 0.625 -1.25 " stroke="#191919" stroke-width="0.35 px" style="stroke-width:0.35;stroke-miterlimit:4;stroke-dasharray:none;fill:none;fill-opacity:1;fill-rule: evenodd"/>
<path id="Shape2DView_nwe0149"  d="M 0.935 -0.2499999999999995 L 0.625 -0.24999999999999992 " stroke="#191919" stroke-width="0.35 px" style="stroke-width:0.35;stroke-miterlimit:4;stroke-dasharray:none;fill:none;fill-opacity:1;fill-rule: evenodd"/>
<path id="Shape2DView_nwe0150"  d="M 0.9350000000000005 -0.75 L 0.9349999999999999 -0.25 " stroke="#191919" stroke-width="0.35 px" style="stroke-width:0.35;stroke-miterlimit:4;stroke-dasharray:none;fill:none;fill-opacity:1;fill-rule: evenodd"/>
<path id="Shape2DView_nwe0151"  d="M 0.625 -0.7499999999999984 L 0.935 -0.749999999999998 " stroke="#191919" stroke-width="0.35 px" style="stroke-width:0.35;stroke-miterlimit:4;stroke-dasharray:none;fill:none;fill-opacity:1;fill-rule: evenodd"/>
<path id="Shape2DView_nwe0152"  d="M -0.935 -0.7500000000000004 L 0.025000000000000022 -0.7499999999999992 " stroke="#191919" stroke-width="0.35 px" style="stroke-width:0.35;stroke-miterlimit:4;stroke-dasharray:none;fill:none;fill-opacity:1;fill-rule: evenodd"/>
<path id="Shape2DView_nwe0153"  d="M -0.9349999999999993 -0.75 L -0.9349999999999999 -0.25 " stroke="#191919" stroke-width="0.35 px" style="stroke-width:0.35;stroke-miterlimit:4;stroke-dasharray:none;fill:none;fill-opacity:1;fill-rule: evenodd"/>
<path id="Shape2DView_nwe0154"  d="M 0.025000000000000022 -0.2500000000000007 L -0.935 -0.250000000000002 " stroke="#191919" stroke-width="0.35 px" style="stroke-width:0.35;stroke-miterlimit:4;stroke-dasharray:none;fill:none;fill-opacity:1;fill-rule: evenodd"/>
<path id="Shape2DView_nwe0155"  d="M 0.935 0.7500000000000004 L 0.625 0.7500000000000001 " stroke="#191919" stroke-width="0.35 px" style="stroke-width:0.35;stroke-miterlimit:4;stroke-dasharray:none;fill:none;fill-opacity:1;fill-rule: evenodd"/>
<path id="Shape2DView_nwe0156"  d="M 0.9349999999999999 0.25 L 0.9349999999999993 0.75 " stroke="#191919" stroke-width="0.35 px" style="stroke-width:0.35;stroke-miterlimit:4;stroke-dasharray:none;fill:none;fill-opacity:1;fill-rule: evenodd"/>
<path id="Shape2DView_nwe0157"  d="M 0.625 0.25000000000000155 L 0.935 0.250000000000002 " stroke="#191919" stroke-width="0.35 px" style="stroke-width:0.35;stroke-miterlimit:4;stroke-dasharray:none;fill:none;fill-opacity:1;fill-rule: evenodd"/>
<path id="Shape2DView_nwe0158"  d="M -0.935 0.2499999999999995 L 0.025000000000000022 0.2500000000000008 " stroke="#191919" stroke-width="0.35 px" style="stroke-width:0.35;stroke-miterlimit:4;stroke-dasharray:none;fill:none;fill-opacity:1;fill-rule: evenodd"/>
<path id="Shape2DView_nwe0159"  d="M -0.9349999999999999 0.25 L -0.9350000000000005 0.75 " stroke="#191919" stroke-width="0.35 px" style="stroke-width:0.35;stroke-miterlimit:4;stroke-dasharray:none;fill:none;fill-opacity:1;fill-rule: evenodd"/>
<path id="Shape2DView_nwe0160"  d="M 0.025000000000000022 0.7499999999999993 L -0.935 0.749999999999998 " stroke="#191919" stroke-width="0.35 px" style="stroke-width:0.35;stroke-miterlimit:4;stroke-dasharray:none;fill:none;fill-opacity:1;fill-rule: evenodd"/>
<path id="Shape2DView_nwe0161"  d="M 0.635 -0.75 L 0.6349999999999993 -0.25 " stroke="#191919" stroke-width="0.35 px" style="stroke-width:0.35;stroke-miterlimit:4;stroke-dasharray:none;fill:none;fill-opacity:1;fill-rule: evenodd"/>
<path id="Shape2DView_nwe0162"  d="M 0.625 -0.25 L 0.025000000000000022 -0.2500000000000008 " stroke="#191919" stroke-width="0.35 px" style="stroke-width:0.35;stroke-miterlimit:4;stroke-dasharray:none;fill:none;fill-opacity:1;fill-rule: evenodd"/>
<path id="Shape2DView_nwe0163"  d="M 0.025 -0.75 L 0.625 -0.7499999999999992 " stroke="#191919" stroke-width="0.35 px" style="stroke-width:0.35;stroke-miterlimit:4;stroke-dasharray:none;fill:none;fill-opacity:1;fill-rule: evenodd"/>
<path id="Shape2DView_nwe0164"  d="M -0.635 -0.25 L -0.6349999999999993 -0.75 " stroke="#191919" stroke-width="0.35 px" style="stroke-width:0.35;stroke-miterlimit:4;stroke-dasharray:none;fill:none;fill-opacity:1;fill-rule: evenodd"/>
<path id="Shape2DView_nwe0165"  d="M 0.635 0.25 L 0.6349999999999993 0.75 " stroke="#191919" stroke-width="0.35 px" style="stroke-width:0.35;stroke-miterlimit:4;stroke-dasharray:none;fill:none;fill-opacity:1;fill-rule: evenodd"/>
<path id="Shape2DView_nwe0166"  d="M 0.625 0.75 L 0.025000000000000022 0.7499999999999992 " stroke="#191919" stroke-width="0.35 px" style="stroke-width:0.35;stroke-miterlimit:4;stroke-dasharray:none;fill:none;fill-opacity:1;fill-rule: evenodd"/>
<path id="Shape2DView_nwe0167"  d="M 0.025 0.25 L 0.625 0.2500000000000008 " stroke="#191919" stroke-width="0.35 px" style="stroke-width:0.35;stroke-miterlimit:4;stroke-dasharray:none;fill:none;fill-opacity:1;fill-rule: evenodd"/>
<path id="Shape2DView_nwe0168"  d="M -0.635 0.75 L -0.6349999999999993 0.25 " stroke="#191919" stroke-width="0.35 px" style="stroke-width:0.35;stroke-miterlimit:4;stroke-dasharray:none;fill:none;fill-opacity:1;fill-rule: evenodd"/>
<path id="Shape2DView_nwe0169"  d="M 0.625 -0.75 L 0.6249999999999993 -0.25 " stroke="#191919" stroke-width="0.35 px" style="stroke-width:0.35;stroke-miterlimit:4;stroke-dasharray:none;fill:none;fill-opacity:1;fill-rule: evenodd"/>
<path id="Shape2DView_nwe0170"  d="M 0.025 -0.25 L 0.025000000000000668 -0.75 " stroke="#191919" stroke-width="0.35 px" style="stroke-width:0.35;stroke-miterlimit:4;stroke-dasharray:none;fill:none;fill-opacity:1;fill-rule: evenodd"/>
<path id="Shape2DView_nwe0171"  d="M 0.625 0.25 L 0.6249999999999993 0.75 " stroke="#191919" stroke-width="0.35 px" style="stroke-width:0.35;stroke-miterlimit:4;stroke-dasharray:none;fill:none;fill-opacity:1;fill-rule: evenodd"/>
<path id="Shape2DView_nwe0172"  d="M 0.025 0.75 L 0.025000000000000668 0.25 " stroke="#191919" stroke-width="0.35 px" style="stroke-width:0.35;stroke-miterlimit:4;stroke-dasharray:none;fill:none;fill-opacity:1;fill-rule: evenodd"/>
<path id="Shape2DView_nwe0173"  d="M 2.525 -1.325 L 2.5250000000000004 -1.675 " stroke="#191919" stroke-width="0.35 px" style="stroke-width:0.35;stroke-miterlimit:4;stroke-dasharray:none;fill:none;fill-opacity:1;fill-rule: evenodd"/>
<path id="Shape2DView_nwe0174"  d="M 2.525 -0.325 L 2.5250000000000004 -0.675 " stroke="#191919" stroke-width="0.35 px" style="stroke-width:0.35;stroke-miterlimit:4;stroke-dasharray:none;fill:none;fill-opacity:1;fill-rule: evenodd"/>
<path id="Shape2DView_nwe0175"  d="M 2.525 1.675 L 2.5250000000000004 1.325 " stroke="#191919" stroke-width="0.35 px" style="stroke-width:0.35;stroke-miterlimit:4;stroke-dasharray:none;fill:none;fill-opacity:1;fill-rule: evenodd"/>
<path id="Shape2DView_nwe0176"  d="M 2.525 0.675 L 2.5250000000000004 0.325 " stroke="#191919" stroke-width="0.35 px" style="stroke-width:0.35;stroke-miterlimit:4;stroke-dasharray:none;fill:none;fill-opacity:1;fill-rule: evenodd"/>
<path id="Shape2DView_nwe0177"  d="M -2.525 -0.675 L -2.5250000000000004 -0.325 " stroke="#191919" stroke-width="0.35 px" style="stroke-width:0.35;stroke-miterlimit:4;stroke-dasharray:none;fill:none;fill-opacity:1;fill-rule: evenodd"/>
<path id="Shape2DView_nwe0178"  d="M -2.525 0.325 L -2.5250000000000004 0.675 " stroke="#191919" stroke-width="0.35 px" style="stroke-width:0.35;stroke-miterlimit:4;stroke-dasharray:none;fill:none;fill-opacity:1;fill-rule: evenodd"/>
<path id="Shape2DView_nwe0179"  d="M -2.525 1.325 L -2.5250000000000004 1.675 " stroke="#191919" stroke-width="0.35 px" style="stroke-width:0.35;stroke-miterlimit:4;stroke-dasharray:none;fill:none;fill-opacity:1;fill-rule: evenodd"/>
<path id="Shape2DView_nwe0180"  d="M -2.525 -1.675 L -2.5250000000000004 -1.325 " stroke="#191919" stroke-width="0.35 px" style="stroke-width:0.35;stroke-miterlimit:4;stroke-dasharray:none;fill:none;fill-opacity:1;fill-rule: evenodd"/>
<path id="Shape2DView_nwe0181"  d="M 2.4 -2.5 L 2.3999999999999937 2.5 " stroke="#191919" stroke-width="0.35 px" style="stroke-width:0.35;stroke-miterlimit:4;stroke-dasharray:none;fill:none;fill-opacity:1;fill-rule: evenodd"/>
<path id="Shape2DView_nwe0182"  d="M 1.8 2.5 L 1.800000000000006 -2.5 " stroke="#191919" stroke-width="0.35 px" style="stroke-width:0.35;stroke-miterlimit:4;stroke-dasharray:none;fill:none;fill-opacity:1;fill-rule: evenodd"/>
<path id="Shape2DView_nwe0183"  d="M 2.825 -1.325 L 2.8250000000000006 -1.675 " stroke="#191919" stroke-width="0.35 px" style="stroke-width:0.35;stroke-miterlimit:4;stroke-dasharray:none;fill:none;fill-opacity:1;fill-rule: evenodd"/>
<path id="Shape2DView_nwe0184"  d="M 2.825 -0.325 L 2.8250000000000006 -0.675 " stroke="#191919" stroke-width="0.35 px" style="stroke-width:0.35;stroke-miterlimit:4;stroke-dasharray:none;fill:none;fill-opacity:1;fill-rule: evenodd"/>
<path id="Shape2DView_nwe0185"  d="M 2.825 1.675 L 2.8250000000000006 1.325 " stroke="#191919" stroke-width="0.35 px" style="stroke-width:0.35;stroke-miterlimit:4;stroke-dasharray:none;fill:none;fill-opacity:1;fill-rule: evenodd"/>
<path id="Shape2DView_nwe0186"  d="M 2.825 0.675 L 2.8250000000000006 0.325 " stroke="#191919" stroke-width="0.35 px" style="stroke-width:0.35;stroke-miterlimit:4;stroke-dasharray:none;fill:none;fill-opacity:1;fill-rule: evenodd"/>
<path id="Shape2DView_nwe0187"  d="M -2.4 2.5 L -2.3999999999999932 -2.5 " stroke="#191919" stroke-width="0.35 px" style="stroke-width:0.35;stroke-miterlimit:4;stroke-dasharray:none;fill:none;fill-opacity:1;fill-rule: evenodd"/>
<path id="Shape2DView_nwe0188"  d="M -1.8 -2.5 L -1.8000000000000067 2.5 " stroke="#191919" stroke-width="0.35 px" style="stroke-width:0.35;stroke-miterlimit:4;stroke-dasharray:none;fill:none;fill-opacity:1;fill-rule: evenodd"/>
<path id="Shape2DView_nwe0189"  d="M -2.825 -0.675 L -2.8250000000000006 -0.325 " stroke="#191919" stroke-width="0.35 px" style="stroke-width:0.35;stroke-miterlimit:4;stroke-dasharray:none;fill:none;fill-opacity:1;fill-rule: evenodd"/>
<path id="Shape2DView_nwe0190"  d="M -2.825 0.325 L -2.8250000000000006 0.675 " stroke="#191919" stroke-width="0.35 px" style="stroke-width:0.35;stroke-miterlimit:4;stroke-dasharray:none;fill:none;fill-opacity:1;fill-rule: evenodd"/>
<path id="Shape2DView_nwe0191"  d="M -2.825 1.325 L -2.8250000000000006 1.675 " stroke="#191919" stroke-width="0.35 px" style="stroke-width:0.35;stroke-miterlimit:4;stroke-dasharray:none;fill:none;fill-opacity:1;fill-rule: evenodd"/>
<path id="Shape2DView_nwe0192"  d="M -2.825 -1.675 L -2.8250000000000006 -1.325 " stroke="#191919" stroke-width="0.35 px" style="stroke-width:0.35;stroke-miterlimit:4;stroke-dasharray:none;fill:none;fill-opacity:1;fill-rule: evenodd"/>
<path id="Shape2DView_nwe0193"  d="M -1.75 1.4166666666670003 L -1.683333333333 1.4166666666670005 " stroke="#191919" stroke-width="0.35 px" style="stroke-width:0.35;stroke-miterlimit:4;stroke-dasharray:none;fill:none;fill-opacity:1;fill-rule: evenodd"/>
<path id="Shape2DView_nwe0194"  d="M -1.683333333333 1.416666666667 L -1.6833333333330003 1.583333333333 " stroke="#191919" stroke-width="0.35 px" style="stroke-width:0.35;stroke-miterlimit:4;stroke-dasharray:none;fill:none;fill-opacity:1;fill-rule: evenodd"/>
<path id="Shape2DView_nwe0195"  d="M -1.683333333333 1.583333333333 L -1.75 1.583333333333 " stroke="#191919" stroke-width="0.35 px" style="stroke-width:0.35;stroke-miterlimit:4;stroke-dasharray:none;fill:none;fill-opacity:1;fill-rule: evenodd"/>
<title>b'Shape2DView'</title>
</g>
<g id="Rectangle" transform="translate(3.111000,2.561000) scale(1,-1)">
<rect fill="#ff0000" id="origin" width="1" height="1" x="0" y="0" />
<title>b'Rectangle'</title>
</g>
</svg>