<?xml version="1.0"?>
<!DOCTYPE svg PUBLIC "-//W3C//DTD SVG 1.1//EN" "http://www.w3.org/Graphics/SVG/1.1/DTD/svg11.dtd">
<svg width="5.712000000000001mm" height="13.142mm" viewBox="0 0 5.712000000000001 13.142" xmlns="http://www.w3.org/2000/svg" version="1.1">
<g id="Shape2DView" transform="translate(2.856000,6.571000) scale(1,-1)">
<path id="Shape2DView_nwe0000"  d="M -2.7 -6.515 L 2.7 -6.514999999999993 " stroke="#191919" stroke-width="0.35 px" style="stroke-width:0.35;stroke-miterlimit:4;stroke-dasharray:none;fill:none;fill-opacity:1;fill-rule: evenodd"/>
<path id="Shape2DView_nwe0001"  d="M 2.8000000000000003 -5.28 L 2.799446988867948 -5.28 L 2.797790673883456 -5.28 L 2.7950391969187427 -5.28 L 2.7912060832839503 -5.28 L 2.786310175241395 -5.28 L 2.780375539383512 -5.28 L 2.7734313483298045 -5.28 L 2.7655117373243243 -5.28 L 2.756655636438605 -5.28 L 2.7469065792048806 -5.28 L 2.7363124886202828 -5.28 L 2.7249254415739426 -5.28 L 2.712801412854996 -5.28 L 2.6999999999998603 -5.28 " stroke="#191919" stroke-width="0.35 px" style="stroke-width:0.35;stroke-miterlimit:4;stroke-dasharray:none;fill:none;fill-opacity:1;fill-rule: evenodd"/>
<path id="Shape2DView_nwe0002"  d="M 2.8000000000000003 -4.88 L 2.799446988867948 -4.88 L 2.797790673883456 -4.88 L 2.7950391969187427 -4.88 L 2.7912060832839503 -4.88 L 2.786310175241395 -4.88 L 2.780375539383512 -4.88 L 2.7734313483298045 -4.88 L 2.7655117373243243 -4.88 L 2.756655636438605 -4.88 L 2.7469065792048806 -4.88 L 2.7363124886202828 -4.88 L 2.7249254415739426 -4.88 L 2.712801412854996 -4.88 L 2.6999999999998603 -4.88 " stroke="#191919" stroke-width="0.35 px" style="stroke-width:0.35;stroke-miterlimit:4;stroke-dasharray:none;fill:none;fill-opacity:1;fill-rule: evenodd"/>
<path id="Shape2DView_nwe0003"  d="M 2.8000000000000003 -4.01 L 2.799446988867948 -4.01 L 2.797790673883456 -4.01 L 2.7950391969187427 -4.01 L 2.7912060832839503 -4.01 L 2.786310175241395 -4.01 L 2.780375539383512 -4.01 L 2.7734313483298045 -4.01 L 2.7655117373243243 -4.01 L 2.756655636438605 -4.01 L 2.7469065792048806 -4.01 L 2.7363124886202828 -4.01 L 2.7249254415739426 -4.01 L 2.712801412854996 -4.01 L 2.6999999999998603 -4.01 " stroke="#191919" stroke-width="0.35 px" style="stroke-width:0.35;stroke-miterlimit:4;stroke-dasharray:none;fill:none;fill-opacity:1;fill-rule: evenodd"/>
<path id="Shape2DView_nwe0004"  d="M 2.8000000000000003 -3.6099999999999994 L 2.799446988867948 -3.6099999999999994 L 2.797790673883456 -3.6099999999999994 L 2.7950391969187427 -3.6099999999999994 L 2.7912060832839503 -3.6099999999999994 L 2.786310175241395 -3.6099999999999994 L 2.780375539383512 -3.6099999999999994 L 2.7734313483298045 -3.6099999999999994 L 2.7655117373243243 -3.6099999999999994 L 2.756655636438605 -3.61 L 2.7469065792048806 -3.61 L 2.7363124886202828 -3.61 L 2.7249254415739426 -3.61 L 2.712801412854996 -3.61 L 2.6999999999998603 -3.61 " stroke="#191919" stroke-width="0.35 px" style="stroke-width:0.35;stroke-miterlimit:4;stroke-dasharray:none;fill:none;fill-opacity:1;fill-rule: evenodd"/>
<path id="Shape2DView_nwe0005"  d="M 2.8000000000000003 -2.7399999999999998 L 2.799446988867948 -2.7399999999999998 L 2.797790673883456 -2.7399999999999998 L 2.7950391969187427 -2.7399999999999998 L 2.7912060832839503 -2.7399999999999998 L 2.786310175241395 -2.7399999999999998 L 2.780375539383512 -2.7399999999999998 L 2.7734313483298045 -2.7399999999999998 L 2.7655117373243243 -2.7399999999999998 L 2.756655636438605 -2.74 L 2.7469065792048806 -2.74 L 2.7363124886202828 -2.74 L 2.7249254415739426 -2.74 L 2.712801412854996 -2.74 L 2.6999999999998603 -2.74 " stroke="#191919" stroke-width="0.35 px" style="stroke-width:0.35;stroke-miterlimit:4;stroke-dasharray:none;fill:none;fill-opacity:1;fill-rule: evenodd"/>
<path id="Shape2DView_nwe0006"  d="M 2.8000000000000003 -2.3399999999999994 L 2.799446988867948 -2.3399999999999994 L 2.797790673883456 -2.3399999999999994 L 2.7950391969187427 -2.3399999999999994 L 2.7912060832839503 -2.3399999999999994 L 2.786310175241395 -2.3399999999999994 L 2.780375539383512 -2.3399999999999994 L 2.7734313483298045 -2.3399999999999994 L 2.7655117373243243 -2.3399999999999994 L 2.756655636438605 -2.34 L 2.7469065792048806 -2.34 L 2.7363124886202828 -2.34 L 2.7249254415739426 -2.34 L 2.712801412854996 -2.34 L 2.6999999999998603 -2.34 " stroke="#191919" stroke-width="0.35 px" style="stroke-width:0.35;stroke-miterlimit:4;stroke-dasharray:none;fill:none;fill-opacity:1;fill-rule: evenodd"/>
<path id="Shape2DView_nwe0007"  d="M 2.8000000000000003 -1.4699999999999998 L 2.799446988867948 -1.4699999999999998 L 2.797790673883456 -1.4699999999999998 L 2.7950391969187427 -1.4699999999999998 L 2.7912060832839503 -1.4699999999999998 L 2.786310175241395 -1.4699999999999998 L 2.780375539383512 -1.4699999999999998 L 2.7734313483298045 -1.4699999999999998 L 2.7655117373243243 -1.4699999999999998 L 2.756655636438605 -1.4699999999999998 L 2.7469065792048806 -1.4699999999999998 L 2.7363124886202828 -1.4699999999999998 L 2.7249254415739426 -1.4699999999999998 L 2.712801412854996 -1.4699999999999998 L 2.6999999999998603 -1.4699999999999998 " stroke="#191919" stroke-width="0.35 px" style="stroke-width:0.35;stroke-miterlimit:4;stroke-dasharray:none;fill:none;fill-opacity:1;fill-rule: evenodd"/>
<path id="Shape2DView_nwe0008"  d="M 2.8000000000000003 -1.0699999999999998 L 2.799446988867948 -1.0699999999999998 L 2.797790673883456 -1.0699999999999998 L 2.7950391969187427 -1.0699999999999998 L 2.7912060832839503 -1.0699999999999998 L 2.786310175241395 -1.0699999999999998 L 2.780375539383512 -1.0699999999999998 L 2.7734313483298045 -1.0699999999999998 L 2.7655117373243243 -1.0699999999999998 L 2.756655636438605 -1.0699999999999998 L 2.7469065792048806 -1.0699999999999998 L 2.7363124886202828 -1.0699999999999998 L 2.7249254415739426 -1.0699999999999998 L 2.712801412854996 -1.0699999999999998 L 2.6999999999998603 -1.0699999999999998 " stroke="#191919" stroke-width="0.35 px" style="stroke-width:0.35;stroke-miterlimit:4;stroke-dasharray:none;fill:none;fill-opacity:1;fill-rule: evenodd"/>
<path id="Shape2DView_nwe0009"  d="M 2.8000000000000003 -0.19999999999999973 L 2.799446988867948 -0.19999999999999973 L 2.797790673883456 -0.19999999999999973 L 2.7950391969187427 -0.19999999999999973 L 2.7912060832839503 -0.19999999999999976 L 2.786310175241395 -0.19999999999999976 L 2.780375539383512 -0.19999999999999976 L 2.7734313483298045 -0.19999999999999976 L 2.7655117373243243 -0.1999999999999998 L 2.756655636438605 -0.1999999999999998 L 2.7469065792048806 -0.19999999999999982 L 2.7363124886202828 -0.19999999999999982 L 2.7249254415739426 -0.19999999999999982 L 2.712801412854996 -0.19999999999999984 L 2.6999999999998603 -0.19999999999999987 " stroke="#191919" stroke-width="0.35 px" style="stroke-width:0.35;stroke-miterlimit:4;stroke-dasharray:none;fill:none;fill-opacity:1;fill-rule: evenodd"/>
<path id="Shape2DView_nwe0010"  d="M 2.8000000000000003 0.2000000000000003 L 2.799446988867948 0.2000000000000003 L 2.797790673883456 0.2000000000000003 L 2.7950391969187427 0.2000000000000003 L 2.7912060832839503 0.20000000000000026 L 2.786310175241395 0.20000000000000026 L 2.780375539383512 0.20000000000000026 L 2.7734313483298045 0.20000000000000026 L 2.7655117373243243 0.20000000000000023 L 2.756655636438605 0.20000000000000023 L 2.7469065792048806 0.2000000000000002 L 2.7363124886202828 0.2000000000000002 L 2.7249254415739426 0.2000000000000002 L 2.712801412854996 0.20000000000000018 L 2.6999999999998603 0.20000000000000015 " stroke="#191919" stroke-width="0.35 px" style="stroke-width:0.35;stroke-miterlimit:4;stroke-dasharray:none;fill:none;fill-opacity:1;fill-rule: evenodd"/>
<path id="Shape2DView_nwe0011"  d="M 2.8000000000000003 1.0700000000000003 L 2.799446988867948 1.0700000000000003 L 2.797790673883456 1.0700000000000003 L 2.7950391969187427 1.0700000000000003 L 2.7912060832839503 1.0700000000000003 L 2.786310175241395 1.0700000000000003 L 2.780375539383512 1.0700000000000003 L 2.7734313483298045 1.0700000000000003 L 2.7655117373243243 1.0700000000000003 L 2.756655636438605 1.0700000000000003 L 2.7469065792048806 1.0700000000000003 L 2.7363124886202828 1.0700000000000003 L 2.7249254415739426 1.0700000000000003 L 2.712801412854996 1.0700000000000003 L 2.6999999999998603 1.0700000000000003 " stroke="#191919" stroke-width="0.35 px" style="stroke-width:0.35;stroke-miterlimit:4;stroke-dasharray:none;fill:none;fill-opacity:1;fill-rule: evenodd"/>
<path id="Shape2DView_nwe0012"  d="M 2.8000000000000003 1.4700000000000002 L 2.799446988867948 1.4700000000000002 L 2.797790673883456 1.4700000000000002 L 2.7950391969187427 1.4700000000000002 L 2.7912060832839503 1.4700000000000002 L 2.786310175241395 1.4700000000000002 L 2.780375539383512 1.4700000000000002 L 2.7734313483298045 1.4700000000000002 L 2.7655117373243243 1.4700000000000002 L 2.756655636438605 1.4700000000000002 L 2.7469065792048806 1.4700000000000002 L 2.7363124886202828 1.4700000000000002 L 2.7249254415739426 1.4700000000000002 L 2.712801412854996 1.4700000000000002 L 2.6999999999998603 1.4700000000000002 " stroke="#191919" stroke-width="0.35 px" style="stroke-width:0.35;stroke-miterlimit:4;stroke-dasharray:none;fill:none;fill-opacity:1;fill-rule: evenodd"/>
<path id="Shape2DView_nwe0013"  d="M 2.8000000000000003 2.3400000000000003 L 2.799446988867948 2.3400000000000003 L 2.797790673883456 2.3400000000000003 L 2.7950391969187427 2.3400000000000003 L 2.7912060832839503 2.3400000000000003 L 2.786310175241395 2.3400000000000003 L 2.780375539383512 2.3400000000000003 L 2.7734313483298045 2.3400000000000003 L 2.7655117373243243 2.3400000000000003 L 2.756655636438605 2.34 L 2.7469065792048806 2.34 L 2.7363124886202828 2.34 L 2.7249254415739426 2.34 L 2.712801412854996 2.34 L 2.6999999999998603 2.34 " stroke="#191919" stroke-width="0.35 px" style="stroke-width:0.35;stroke-miterlimit:4;stroke-dasharray:none;fill:none;fill-opacity:1;fill-rule: evenodd"/>
<path id="Shape2DView_nwe0014"  d="M 2.8000000000000003 2.7400000000000007 L 2.799446988867948 2.7400000000000007 L 2.797790673883456 2.7400000000000007 L 2.7950391969187427 2.7400000000000007 L 2.7912060832839503 2.7400000000000007 L 2.786310175241395 2.7400000000000007 L 2.780375539383512 2.7400000000000007 L 2.7734313483298045 2.7400000000000007 L 2.7655117373243243 2.7400000000000007 L 2.756655636438605 2.74 L 2.7469065792048806 2.74 L 2.7363124886202828 2.74 L 2.7249254415739426 2.74 L 2.712801412854996 2.74 L 2.6999999999998603 2.74 " stroke="#191919" stroke-width="0.35 px" style="stroke-width:0.35;stroke-miterlimit:4;stroke-dasharray:none;fill:none;fill-opacity:1;fill-rule: evenodd"/>
<path id="Shape2DView_nwe0015"  d="M 2.8000000000000003 3.6100000000000003 L 2.799446988867948 3.6100000000000003 L 2.797790673883456 3.6100000000000003 L 2.7950391969187427 3.6100000000000003 L 2.7912060832839503 3.6100000000000003 L 2.786310175241395 3.6100000000000003 L 2.780375539383512 3.6100000000000003 L 2.7734313483298045 3.6100000000000003 L 2.7655117373243243 3.6100000000000003 L 2.756655636438605 3.61 L 2.7469065792048806 3.61 L 2.7363124886202828 3.61 L 2.7249254415739426 3.61 L 2.712801412854996 3.61 L 2.6999999999998603 3.61 " stroke="#191919" stroke-width="0.35 px" style="stroke-width:0.35;stroke-miterlimit:4;stroke-dasharray:none;fill:none;fill-opacity:1;fill-rule: evenodd"/>
<path id="Shape2DView_nwe0016"  d="M 2.8000000000000003 4.01 L 2.799446988867948 4.01 L 2.797790673883456 4.01 L 2.7950391969187427 4.01 L 2.7912060832839503 4.01 L 2.786310175241395 4.01 L 2.780375539383512 4.01 L 2.7734313483298045 4.01 L 2.7655117373243243 4.01 L 2.756655636438605 4.01 L 2.7469065792048806 4.01 L 2.7363124886202828 4.01 L 2.7249254415739426 4.01 L 2.712801412854996 4.01 L 2.6999999999998603 4.01 " stroke="#191919" stroke-width="0.35 px" style="stroke-width:0.35;stroke-miterlimit:4;stroke-dasharray:none;fill:none;fill-opacity:1;fill-rule: evenodd"/>
<path id="Shape2DView_nwe0017"  d="M 2.8000000000000003 4.88 L 2.799446988867948 4.88 L 2.797790673883456 4.88 L 2.7950391969187427 4.88 L 2.7912060832839503 4.88 L 2.786310175241395 4.88 L 2.780375539383512 4.88 L 2.7734313483298045 4.88 L 2.7655117373243243 4.88 L 2.756655636438605 4.88 L 2.7469065792048806 4.88 L 2.7363124886202828 4.88 L 2.7249254415739426 4.88 L 2.712801412854996 4.88 L 2.6999999999998603 4.88 " stroke="#191919" stroke-width="0.35 px" style="stroke-width:0.35;stroke-miterlimit:4;stroke-dasharray:none;fill:none;fill-opacity:1;fill-rule: evenodd"/>
<path id="Shape2DView_nwe0018"  d="M 2.8000000000000003 5.28 L 2.799446988867948 5.28 L 2.797790673883456 5.28 L 2.7950391969187427 5.28 L 2.7912060832839503 5.28 L 2.786310175241395 5.28 L 2.780375539383512 5.28 L 2.7734313483298045 5.28 L 2.7655117373243243 5.28 L 2.756655636438605 5.28 L 2.7469065792048806 5.28 L 2.7363124886202828 5.28 L 2.7249254415739426 5.28 L 2.712801412854996 5.28 L 2.6999999999998603 5.28 " stroke="#191919" stroke-width="0.35 px" style="stroke-width:0.35;stroke-miterlimit:4;stroke-dasharray:none;fill:none;fill-opacity:1;fill-rule: evenodd"/>
<path id="Shape2DView_nwe0019"  d="M -2.8000000000000003 5.28 L -2.799446988867948 5.28 L -2.797790673883456 5.28 L -2.7950391969187427 5.28 L -2.7912060832839503 5.28 L -2.786310175241395 5.28 L -2.780375539383512 5.28 L -2.7734313483298045 5.28 L -2.7655117373243243 5.28 L -2.756655636438605 5.28 L -2.7469065792048806 5.28 L -2.7363124886202828 5.28 L -2.7249254415739426 5.28 L -2.712801412854996 5.28 L -2.6999999999998603 5.28 " stroke="#191919" stroke-width="0.35 px" style="stroke-width:0.35;stroke-miterlimit:4;stroke-dasharray:none;fill:none;fill-opacity:1;fill-rule: evenodd"/>
<path id="Shape2DView_nwe0020"  d="M -2.8000000000000003 4.88 L -2.799446988867948 4.88 L -2.797790673883456 4.88 L -2.7950391969187427 4.88 L -2.7912060832839503 4.88 L -2.786310175241395 4.88 L -2.780375539383512 4.88 L -2.7734313483298045 4.88 L -2.7655117373243243 4.88 L -2.756655636438605 4.88 L -2.7469065792048806 4.88 L -2.7363124886202828 4.88 L -2.7249254415739426 4.88 L -2.712801412854996 4.88 L -2.6999999999998603 4.88 " stroke="#191919" stroke-width="0.35 px" style="stroke-width:0.35;stroke-miterlimit:4;stroke-dasharray:none;fill:none;fill-opacity:1;fill-rule: evenodd"/>
<path id="Shape2DView_nwe0021"  d="M -2.8000000000000003 4.01 L -2.799446988867948 4.01 L -2.797790673883456 4.01 L -2.7950391969187427 4.01 L -2.7912060832839503 4.01 L -2.786310175241395 4.01 L -2.780375539383512 4.01 L -2.7734313483298045 4.01 L -2.7655117373243243 4.01 L -2.756655636438605 4.01 L -2.7469065792048806 4.01 L -2.7363124886202828 4.01 L -2.7249254415739426 4.01 L -2.712801412854996 4.01 L -2.6999999999998603 4.01 " stroke="#191919" stroke-width="0.35 px" style="stroke-width:0.35;stroke-miterlimit:4;stroke-dasharray:none;fill:none;fill-opacity:1;fill-rule: evenodd"/>
<path id="Shape2DView_nwe0022"  d="M -2.8000000000000003 3.6099999999999994 L -2.799446988867948 3.6099999999999994 L -2.797790673883456 3.6099999999999994 L -2.7950391969187427 3.6099999999999994 L -2.7912060832839503 3.6099999999999994 L -2.786310175241395 3.6099999999999994 L -2.780375539383512 3.6099999999999994 L -2.7734313483298045 3.6099999999999994 L -2.7655117373243243 3.6099999999999994 L -2.756655636438605 3.6099999999999994 L -2.7469065792048806 3.6099999999999994 L -2.7363124886202828 3.61 L -2.7249254415739426 3.61 L -2.712801412854996 3.61 L -2.6999999999998603 3.61 " stroke="#191919" stroke-width="0.35 px" style="stroke-width:0.35;stroke-miterlimit:4;stroke-dasharray:none;fill:none;fill-opacity:1;fill-rule: evenodd"/>
<path id="Shape2DView_nwe0023"  d="M -2.8000000000000003 2.7399999999999998 L -2.799446988867948 2.7399999999999998 L -2.797790673883456 2.7399999999999998 L -2.7950391969187427 2.7399999999999998 L -2.7912060832839503 2.7399999999999998 L -2.786310175241395 2.7399999999999998 L -2.780375539383512 2.7399999999999998 L -2.7734313483298045 2.7399999999999998 L -2.7655117373243243 2.7399999999999998 L -2.756655636438605 2.7399999999999998 L -2.7469065792048806 2.7399999999999998 L -2.7363124886202828 2.74 L -2.7249254415739426 2.74 L -2.712801412854996 2.74 L -2.6999999999998603 2.74 " stroke="#191919" stroke-width="0.35 px" style="stroke-width:0.35;stroke-miterlimit:4;stroke-dasharray:none;fill:none;fill-opacity:1;fill-rule: evenodd"/>
<path id="Shape2DView_nwe0024"  d="M -2.8000000000000003 2.3399999999999994 L -2.799446988867948 2.3399999999999994 L -2.797790673883456 2.3399999999999994 L -2.7950391969187427 2.3399999999999994 L -2.7912060832839503 2.3399999999999994 L -2.786310175241395 2.3399999999999994 L -2.780375539383512 2.3399999999999994 L -2.7734313483298045 2.3399999999999994 L -2.7655117373243243 2.3399999999999994 L -2.756655636438605 2.3399999999999994 L -2.7469065792048806 2.3399999999999994 L -2.7363124886202828 2.34 L -2.7249254415739426 2.34 L -2.712801412854996 2.34 L -2.6999999999998603 2.34 " stroke="#191919" stroke-width="0.35 px" style="stroke-width:0.35;stroke-miterlimit:4;stroke-dasharray:none;fill:none;fill-opacity:1;fill-rule: evenodd"/>
<path id="Shape2DView_nwe0025"  d="M -2.8000000000000003 1.4699999999999998 L -2.799446988867948 1.4699999999999998 L -2.797790673883456 1.4699999999999998 L -2.7950391969187427 1.4699999999999998 L -2.7912060832839503 1.4699999999999998 L -2.786310175241395 1.4699999999999998 L -2.780375539383512 1.4699999999999998 L -2.7734313483298045 1.4699999999999998 L -2.7655117373243243 1.4699999999999998 L -2.756655636438605 1.4699999999999998 L -2.7469065792048806 1.4699999999999998 L -2.7363124886202828 1.4699999999999998 L -2.7249254415739426 1.4699999999999998 L -2.712801412854996 1.4699999999999998 L -2.6999999999998603 1.4699999999999998 " stroke="#191919" stroke-width="0.35 px" style="stroke-width:0.35;stroke-miterlimit:4;stroke-dasharray:none;fill:none;fill-opacity:1;fill-rule: evenodd"/>
<path id="Shape2DView_nwe0026"  d="M -2.8000000000000003 1.0699999999999998 L -2.799446988867948 1.0699999999999998 L -2.797790673883456 1.0699999999999998 L -2.7950391969187427 1.0699999999999998 L -2.7912060832839503 1.0699999999999998 L -2.786310175241395 1.0699999999999998 L -2.780375539383512 1.0699999999999998 L -2.7734313483298045 1.0699999999999998 L -2.7655117373243243 1.0699999999999998 L -2.756655636438605 1.0699999999999998 L -2.7469065792048806 1.0699999999999998 L -2.7363124886202828 1.0699999999999998 L -2.7249254415739426 1.0699999999999998 L -2.712801412854996 1.0699999999999998 L -2.6999999999998603 1.0699999999999998 " stroke="#191919" stroke-width="0.35 px" style="stroke-width:0.35;stroke-miterlimit:4;stroke-dasharray:none;fill:none;fill-opacity:1;fill-rule: evenodd"/>
<path id="Shape2DView_nwe0027"  d="M -2.8000000000000003 0.1999999999999997 L -2.799446988867948 0.1999999999999997 L -2.797790673883456 0.1999999999999997 L -2.7950391969187427 0.1999999999999997 L -2.7912060832839503 0.19999999999999973 L -2.786310175241395 0.19999999999999973 L -2.780375539383512 0.19999999999999973 L -2.7734313483298045 0.19999999999999973 L -2.7655117373243243 0.19999999999999976 L -2.756655636438605 0.19999999999999976 L -2.7469065792048806 0.1999999999999998 L -2.7363124886202828 0.1999999999999998 L -2.7249254415739426 0.19999999999999982 L -2.712801412854996 0.19999999999999982 L -2.6999999999998603 0.19999999999999984 " stroke="#191919" stroke-width="0.35 px" style="stroke-width:0.35;stroke-miterlimit:4;stroke-dasharray:none;fill:none;fill-opacity:1;fill-rule: evenodd"/>
<path id="Shape2DView_nwe0028"  d="M -2.8000000000000003 -0.20000000000000032 L -2.799446988867948 -0.20000000000000032 L -2.797790673883456 -0.20000000000000032 L -2.7950391969187427 -0.20000000000000032 L -2.7912060832839503 -0.2000000000000003 L -2.786310175241395 -0.2000000000000003 L -2.780375539383512 -0.2000000000000003 L -2.7734313483298045 -0.2000000000000003 L -2.7655117373243243 -0.20000000000000026 L -2.756655636438605 -0.20000000000000026 L -2.7469065792048806 -0.20000000000000023 L -2.7363124886202828 -0.20000000000000023 L -2.7249254415739426 -0.2000000000000002 L -2.712801412854996 -0.2000000000000002 L -2.6999999999998603 -0.20000000000000018 " stroke="#191919" stroke-width="0.35 px" style="stroke-width:0.35;stroke-miterlimit:4;stroke-dasharray:none;fill:none;fill-opacity:1;fill-rule: evenodd"/>
<path id="Shape2DView_nwe0029"  d="M -2.8000000000000003 -1.0700000000000003 L -2.799446988867948 -1.0700000000000003 L -2.797790673883456 -1.0700000000000003 L -2.7950391969187427 -1.0700000000000003 L -2.7912060832839503 -1.0700000000000003 L -2.786310175241395 -1.0700000000000003 L -2.780375539383512 -1.0700000000000003 L -2.7734313483298045 -1.0700000000000003 L -2.7655117373243243 -1.0700000000000003 L -2.756655636438605 -1.0700000000000003 L -2.7469065792048806 -1.0700000000000003 L -2.7363124886202828 -1.0700000000000003 L -2.7249254415739426 -1.0700000000000003 L -2.712801412854996 -1.0700000000000003 L -2.6999999999998603 -1.0700000000000003 " stroke="#191919" stroke-width="0.35 px" style="stroke-width:0.35;stroke-miterlimit:4;stroke-dasharray:none;fill:none;fill-opacity:1;fill-rule: evenodd"/>
<path id="Shape2DView_nwe0030"  d="M -2.8000000000000003 -1.4700000000000002 L -2.799446988867948 -1.4700000000000002 L -2.797790673883456 -1.4700000000000002 L -2.7950391969187427 -1.4700000000000002 L -2.7912060832839503 -1.4700000000000002 L -2.786310175241395 -1.4700000000000002 L -2.780375539383512 -1.4700000000000002 L -2.7734313483298045 -1.4700000000000002 L -2.7655117373243243 -1.4700000000000002 L -2.756655636438605 -1.4700000000000002 L -2.7469065792048806 -1.4700000000000002 L -2.7363124886202828 -1.4700000000000002 L -2.7249254415739426 -1.4700000000000002 L -2.712801412854996 -1.4700000000000002 L -2.6999999999998603 -1.4700000000000002 " stroke="#191919" stroke-width="0.35 px" style="stroke-width:0.35;stroke-miterlimit:4;stroke-dasharray:none;fill:none;fill-opacity:1;fill-rule: evenodd"/>
<path id="Shape2DView_nwe0031"  d="M -2.8000000000000003 -2.3400000000000003 L -2.799446988867948 -2.3400000000000003 L -2.797790673883456 -2.3400000000000003 L -2.7950391969187427 -2.3400000000000003 L -2.7912060832839503 -2.3400000000000003 L -2.786310175241395 -2.3400000000000003 L -2.780375539383512 -2.3400000000000003 L -2.7734313483298045 -2.3400000000000003 L -2.7655117373243243 -2.3400000000000003 L -2.756655636438605 -2.3400000000000003 L -2.7469065792048806 -2.3400000000000003 L -2.7363124886202828 -2.34 L -2.7249254415739426 -2.34 L -2.712801412854996 -2.34 L -2.6999999999998603 -2.34 " stroke="#191919" stroke-width="0.35 px" style="stroke-width:0.35;stroke-miterlimit:4;stroke-dasharray:none;fill:none;fill-opacity:1;fill-rule: evenodd"/>
<path id="Shape2DView_nwe0032"  d="M -2.8000000000000003 -2.7400000000000007 L -2.799446988867948 -2.7400000000000007 L -2.797790673883456 -2.7400000000000007 L -2.7950391969187427 -2.7400000000000007 L -2.7912060832839503 -2.7400000000000007 L -2.786310175241395 -2.7400000000000007 L -2.780375539383512 -2.7400000000000007 L -2.7734313483298045 -2.7400000000000007 L -2.7655117373243243 -2.7400000000000007 L -2.756655636438605 -2.7400000000000007 L -2.7469065792048806 -2.7400000000000007 L -2.7363124886202828 -2.74 L -2.7249254415739426 -2.74 L -2.712801412854996 -2.74 L -2.6999999999998603 -2.74 " stroke="#191919" stroke-width="0.35 px" style="stroke-width:0.35;stroke-miterlimit:4;stroke-dasharray:none;fill:none;fill-opacity:1;fill-rule: evenodd"/>
<path id="Shape2DView_nwe0033"  d="M -2.8000000000000003 -3.6100000000000003 L -2.799446988867948 -3.6100000000000003 L -2.797790673883456 -3.6100000000000003 L -2.7950391969187427 -3.6100000000000003 L -2.7912060832839503 -3.6100000000000003 L -2.786310175241395 -3.6100000000000003 L -2.780375539383512 -3.6100000000000003 L -2.7734313483298045 -3.6100000000000003 L -2.7655117373243243 -3.6100000000000003 L -2.756655636438605 -3.6100000000000003 L -2.7469065792048806 -3.6100000000000003 L -2.7363124886202828 -3.61 L -2.7249254415739426 -3.61 L -2.712801412854996 -3.61 L -2.6999999999998603 -3.61 " stroke="#191919" stroke-width="0.35 px" style="stroke-width:0.35;stroke-miterlimit:4;stroke-dasharray:none;fill:none;fill-opacity:1;fill-rule: evenodd"/>
<path id="Shape2DView_nwe0034"  d="M -2.8000000000000003 -4.01 L -2.799446988867948 -4.01 L -2.797790673883456 -4.01 L -2.7950391969187427 -4.01 L -2.7912060832839503 -4.01 L -2.786310175241395 -4.01 L -2.780375539383512 -4.01 L -2.7734313483298045 -4.01 L -2.7655117373243243 -4.01 L -2.756655636438605 -4.01 L -2.7469065792048806 -4.01 L -2.7363124886202828 -4.01 L -2.7249254415739426 -4.01 L -2.712801412854996 -4.01 L -2.6999999999998603 -4.01 " stroke="#191919" stroke-width="0.35 px" style="stroke-width:0.35;stroke-miterlimit:4;stroke-dasharray:none;fill:none;fill-opacity:1;fill-rule: evenodd"/>
<path id="Shape2DView_nwe0035"  d="M -2.8000000000000003 -4.88 L -2.799446988867948 -4.88 L -2.797790673883456 -4.88 L -2.7950391969187427 -4.88 L -2.7912060832839503 -4.88 L -2.786310175241395 -4.88 L -2.780375539383512 -4.88 L -2.7734313483298045 -4.88 L -2.7655117373243243 -4.88 L -2.756655636438605 -4.88 L -2.7469065792048806 -4.88 L -2.7363124886202828 -4.88 L -2.7249254415739426 -4.88 L -2.712801412854996 -4.88 L -2.6999999999998603 -4.88 " stroke="#191919" stroke-width="0.35 px" style="stroke-width:0.35;stroke-miterlimit:4;stroke-dasharray:none;fill:none;fill-opacity:1;fill-rule: evenodd"/>
<path id="Shape2DView_nwe0036"  d="M -2.8000000000000003 -5.28 L -2.799446988867948 -5.28 L -2.797790673883456 -5.28 L -2.7950391969187427 -5.28 L -2.7912060832839503 -5.28 L -2.786310175241395 -5.28 L -2.780375539383512 -5.28 L -2.7734313483298045 -5.28 L -2.7655117373243243 -5.28 L -2.756655636438605 -5.28 L -2.7469065792048806 -5.28 L -2.7363124886202828 -5.28 L -2.7249254415739426 -5.28 L -2.712801412854996 -5.28 L -2.6999999999998603 -5.28 " stroke="#191919" stroke-width="0.35 px" style="stroke-width:0.35;stroke-miterlimit:4;stroke-dasharray:none;fill:none;fill-opacity:1;fill-rule: evenodd"/>
<path id="Shape2DView_nwe0037"  d="M 2.7 -6.515 L 2.699999999999983 6.515 " stroke="#191919" stroke-width="0.35 px" style="stroke-width:0.35;stroke-miterlimit:4;stroke-dasharray:none;fill:none;fill-opacity:1;fill-rule: evenodd"/>
<path id="Shape2DView_nwe0038"  d="M 2.7 -6.515 L 2.625 -6.44 " stroke="#191919" stroke-width="0.35 px" style="stroke-width:0.35;stroke-miterlimit:4;stroke-dasharray:none;fill:none;fill-opacity:1;fill-rule: evenodd"/>
<path id="Shape2DView_nwe0039"  d="M -2.625 -6.44 L 2.625 -6.439999999999993 " stroke="#191919" stroke-width="0.35 px" style="stroke-width:0.35;stroke-miterlimit:4;stroke-dasharray:none;fill:none;fill-opacity:1;fill-rule: evenodd"/>
<path id="Shape2DView_nwe0040"  d="M -2.7 -6.515 L -2.625 -6.44 " stroke="#191919" stroke-width="0.35 px" style="stroke-width:0.35;stroke-miterlimit:4;stroke-dasharray:none;fill:none;fill-opacity:1;fill-rule: evenodd"/>
<path id="Shape2DView_nwe0041"  d="M -2.7 6.515 L -2.699999999999983 -6.515 " stroke="#191919" stroke-width="0.35 px" style="stroke-width:0.35;stroke-miterlimit:4;stroke-dasharray:none;fill:none;fill-opacity:1;fill-rule: evenodd"/>
<path id="Shape2DView_nwe0042"  d="M 2.8 -4.88 L 2.8000000000000003 -5.28 " stroke="#191919" stroke-width="0.35 px" style="stroke-width:0.35;stroke-miterlimit:4;stroke-dasharray:none;fill:none;fill-opacity:1;fill-rule: evenodd"/>
<path id="Shape2DView_nwe0043"  d="M 2.8 -3.61 L 2.8000000000000003 -4.01 " stroke="#191919" stroke-width="0.35 px" style="stroke-width:0.35;stroke-miterlimit:4;stroke-dasharray:none;fill:none;fill-opacity:1;fill-rule: evenodd"/>
<path id="Shape2DView_nwe0045"  d="M 2.8 -2.34 L 2.8000000000000003 -2.74 " stroke="#191919" stroke-width="0.35 px" style="stroke-width:0.35;stroke-miterlimit:4;stroke-dasharray:none;fill:none;fill-opacity:1;fill-rule: evenodd"/>
<path id="Shape2DView_nwe0046"  d="M 2.8 -1.07 L 2.8000000000000003 -1.47 " stroke="#191919" stroke-width="0.35 px" style="stroke-width:0.35;stroke-miterlimit:4;stroke-dasharray:none;fill:none;fill-opacity:1;fill-rule: evenodd"/>
<path id="Shape2DView_nwe0047"  d="M 2.8 0.2 L 2.8000000000000003 -0.2 " stroke="#191919" stroke-width="0.35 px" style="stroke-width:0.35;stroke-miterlimit:4;stroke-dasharray:none;fill:none;fill-opacity:1;fill-rule: evenodd"/>
<path id="Shape2DView_nwe0048"  d="M 2.8 1.47 L 2.8000000000000003 1.07 " stroke="#191919" stroke-width="0.35 px" style="stroke-width:0.35;stroke-miterlimit:4;stroke-dasharray:none;fill:none;fill-opacity:1;fill-rule: evenodd"/>
<path id="Shape2DView_nwe0049"  d="M 2.8 2.74 L 2.8000000000000003 2.34 " stroke="#191919" stroke-width="0.35 px" style="stroke-width:0.35;stroke-miterlimit:4;stroke-dasharray:none;fill:none;fill-opacity:1;fill-rule: evenodd"/>
<path id="Shape2DView_nwe0050"  d="M 2.8 4.01 L 2.8000000000000003 3.61 " stroke="#191919" stroke-width="0.35 px" style="stroke-width:0.35;stroke-miterlimit:4;stroke-dasharray:none;fill:none;fill-opacity:1;fill-rule: evenodd"/>
<path id="Shape2DView_nwe0051"  d="M 2.8 5.28 L 2.8000000000000003 4.88 " stroke="#191919" stroke-width="0.35 px" style="stroke-width:0.35;stroke-miterlimit:4;stroke-dasharray:none;fill:none;fill-opacity:1;fill-rule: evenodd"/>
<path id="Shape2DView_nwe0052"  d="M 2.7 6.515 L -2.7 6.514999999999993 " stroke="#191919" stroke-width="0.35 px" style="stroke-width:0.35;stroke-miterlimit:4;stroke-dasharray:none;fill:none;fill-opacity:1;fill-rule: evenodd"/>
<path id="Shape2DView_nwe0053"  d="M -2.8 4.88 L -2.8000000000000003 5.28 " stroke="#191919" stroke-width="0.35 px" style="stroke-width:0.35;stroke-miterlimit:4;stroke-dasharray:none;fill:none;fill-opacity:1;fill-rule: evenodd"/>
<path id="Shape2DView_nwe0055"  d="M -2.8 3.61 L -2.8000000000000003 4.01 " stroke="#191919" stroke-width="0.35 px" style="stroke-width:0.35;stroke-miterlimit:4;stroke-dasharray:none;fill:none;fill-opacity:1;fill-rule: evenodd"/>
<path id="Shape2DView_nwe0056"  d="M -2.8 2.34 L -2.8000000000000003 2.74 " stroke="#191919" stroke-width="0.35 px" style="stroke-width:0.35;stroke-miterlimit:4;stroke-dasharray:none;fill:none;fill-opacity:1;fill-rule: evenodd"/>
<path id="Shape2DView_nwe0057"  d="M -2.8 1.07 L -2.8000000000000003 1.47 " stroke="#191919" stroke-width="0.35 px" style="stroke-width:0.35;stroke-miterlimit:4;stroke-dasharray:none;fill:none;fill-opacity:1;fill-rule: evenodd"/>
<path id="Shape2DView_nwe0058"  d="M -2.8 -0.2 L -2.8000000000000003 0.2 " stroke="#191919" stroke-width="0.35 px" style="stroke-width:0.35;stroke-miterlimit:4;stroke-dasharray:none;fill:none;fill-opacity:1;fill-rule: evenodd"/>
<path id="Shape2DView_nwe0059"  d="M -2.8 -1.47 L -2.8000000000000003 -1.07 " stroke="#191919" stroke-width="0.35 px" style="stroke-width:0.35;stroke-miterlimit:4;stroke-dasharray:none;fill:none;fill-opacity:1;fill-rule: evenodd"/>
<path id="Shape2DView_nwe0060"  d="M -2.8 -2.74 L -2.8000000000000003 -2.34 " stroke="#191919" stroke-width="0.35 px" style="stroke-width:0.35;stroke-miterlimit:4;stroke-dasharray:none;fill:none;fill-opacity:1;fill-rule: evenodd"/>
<path id="Shape2DView_nwe0061"  d="M -2.8 -4.01 L -2.8000000000000003 -3.61 " stroke="#191919" stroke-width="0.35 px" style="stroke-width:0.35;stroke-miterlimit:4;stroke-dasharray:none;fill:none;fill-opacity:1;fill-rule: evenodd"/>
<path id="Shape2DView_nwe0062"  d="M -2.8 -5.28 L -2.8000000000000003 -4.88 " stroke="#191919" stroke-width="0.35 px" style="stroke-width:0.35;stroke-miterlimit:4;stroke-dasharray:none;fill:none;fill-opacity:1;fill-rule: evenodd"/>
<path id="Shape2DView_nwe0063"  d="M 2.7 6.515 L 2.625 6.44 " stroke="#191919" stroke-width="0.35 px" style="stroke-width:0.35;stroke-miterlimit:4;stroke-dasharray:none;fill:none;fill-opacity:1;fill-rule: evenodd"/>
<path id="Shape2DView_nwe0064"  d="M 2.625 -6.44 L 2.6249999999999827 6.44 " stroke="#191919" stroke-width="0.35 px" style="stroke-width:0.35;stroke-miterlimit:4;stroke-dasharray:none;fill:none;fill-opacity:1;fill-rule: evenodd"/>
<path id="Shape2DView_nwe0065"  d="M 2.625 -6.44 L 2.396501696205 -6.211501696205 " stroke="#191919" stroke-width="0.35 px" style="stroke-width:0.35;stroke-miterlimit:4;stroke-dasharray:none;fill:none;fill-opacity:1;fill-rule: evenodd"/>
<path id="Shape2DView_nwe0066"  d="M -2.396501696205 -6.211501696205 L 2.396501696205 -6.211501696204993 " stroke="#191919" stroke-width="0.35 px" style="stroke-width:0.35;stroke-miterlimit:4;stroke-dasharray:none;fill:none;fill-opacity:1;fill-rule: evenodd"/>
<path id="Shape2DView_nwe0067"  d="M -2.625 -6.44 L -2.396501696205 -6.211501696205 " stroke="#191919" stroke-width="0.35 px" style="stroke-width:0.35;stroke-miterlimit:4;stroke-dasharray:none;fill:none;fill-opacity:1;fill-rule: evenodd"/>
<path id="Shape2DView_nwe0068"  d="M -2.625 6.44 L -2.6249999999999827 -6.44 " stroke="#191919" stroke-width="0.35 px" style="stroke-width:0.35;stroke-miterlimit:4;stroke-dasharray:none;fill:none;fill-opacity:1;fill-rule: evenodd"/>
<path id="Shape2DView_nwe0069"  d="M -2.7 6.515 L -2.625 6.44 " stroke="#191919" stroke-width="0.35 px" style="stroke-width:0.35;stroke-miterlimit:4;stroke-dasharray:none;fill:none;fill-opacity:1;fill-rule: evenodd"/>
<path id="Shape2DView_nwe0070"  d="M 2.625 6.44 L -2.625 6.439999999999993 " stroke="#191919" stroke-width="0.35 px" style="stroke-width:0.35;stroke-miterlimit:4;stroke-dasharray:none;fill:none;fill-opacity:1;fill-rule: evenodd"/>
<path id="Shape2DView_nwe0071"  d="M 2.625 6.44 L 2.396501696205 6.211501696205 " stroke="#191919" stroke-width="0.35 px" style="stroke-width:0.35;stroke-miterlimit:4;stroke-dasharray:none;fill:none;fill-opacity:1;fill-rule: evenodd"/>
<path id="Shape2DView_nwe0072"  d="M 2.396501696205 -6.211501696205 L 2.3965016962049837 6.211501696205 " stroke="#191919" stroke-width="0.35 px" style="stroke-width:0.35;stroke-miterlimit:4;stroke-dasharray:none;fill:none;fill-opacity:1;fill-rule: evenodd"/>
<path id="Shape2DView_nwe0073"  d="M -2.396501696205 6.211501696205 L -2.3965016962049837 -6.211501696205 " stroke="#191919" stroke-width="0.35 px" style="stroke-width:0.35;stroke-miterlimit:4;stroke-dasharray:none;fill:none;fill-opacity:1;fill-rule: evenodd"/>
<path id="Shape2DView_nwe0074"  d="M 2.396501696205 6.211501696205 L -2.396501696205 6.211501696204993 " stroke="#191919" stroke-width="0.35 px" style="stroke-width:0.35;stroke-miterlimit:4;stroke-dasharray:none;fill:none;fill-opacity:1;fill-rule: evenodd"/>
<path id="Shape2DView_nwe0075"  d="M -1.125 0.35 L -1.1249999999999991 -0.35 " stroke="#191919" stroke-width="0.35 px" style="stroke-width:0.35;stroke-miterlimit:4;stroke-dasharray:none;fill:none;fill-opacity:1;fill-rule: evenodd"/>
<path id="Shape2DView_nwe0076"  d="M -1.125 -0.35 L 1.125 -0.349999999999997 " stroke="#191919" stroke-width="0.35 px" style="stroke-width:0.35;stroke-miterlimit:4;stroke-dasharray:none;fill:none;fill-opacity:1;fill-rule: evenodd"/>
<path id="Shape2DView_nwe0077"  d="M 1.125 -0.35 L 1.1249999999999991 0.35 " stroke="#191919" stroke-width="0.35 px" style="stroke-width:0.35;stroke-miterlimit:4;stroke-dasharray:none;fill:none;fill-opacity:1;fill-rule: evenodd"/>
<path id="Shape2DView_nwe0078"  d="M 1.125 0.35 L -1.125 0.349999999999997 " stroke="#191919" stroke-width="0.35 px" style="stroke-width:0.35;stroke-miterlimit:4;stroke-dasharray:none;fill:none;fill-opacity:1;fill-rule: evenodd"/>
<path id="Shape2DView_nwe0079"  d="M 1.125 -1.62 L 1.1249999999999991 -0.92 " stroke="#191919" stroke-width="0.35 px" style="stroke-width:0.35;stroke-miterlimit:4;stroke-dasharray:none;fill:none;fill-opacity:1;fill-rule: evenodd"/>
<path id="Shape2DView_nwe0080"  d="M 1.125 -0.92 L -1.125 -0.920000000000003 " stroke="#191919" stroke-width="0.35 px" style="stroke-width:0.35;stroke-miterlimit:4;stroke-dasharray:none;fill:none;fill-opacity:1;fill-rule: evenodd"/>
<path id="Shape2DView_nwe0081"  d="M -1.125 -0.92 L -1.1249999999999991 -1.62 " stroke="#191919" stroke-width="0.35 px" style="stroke-width:0.35;stroke-miterlimit:4;stroke-dasharray:none;fill:none;fill-opacity:1;fill-rule: evenodd"/>
<path id="Shape2DView_nwe0082"  d="M -1.125 -1.62 L 1.125 -1.6199999999999972 " stroke="#191919" stroke-width="0.35 px" style="stroke-width:0.35;stroke-miterlimit:4;stroke-dasharray:none;fill:none;fill-opacity:1;fill-rule: evenodd"/>
<path id="Shape2DView_nwe0083"  d="M -1.125 1.62 L -1.1249999999999991 0.92 " stroke="#191919" stroke-width="0.35 px" style="stroke-width:0.35;stroke-miterlimit:4;stroke-dasharray:none;fill:none;fill-opacity:1;fill-rule: evenodd"/>
<path id="Shape2DView_nwe0084"  d="M -1.125 0.92 L 1.125 0.920000000000003 " stroke="#191919" stroke-width="0.35 px" style="stroke-width:0.35;stroke-miterlimit:4;stroke-dasharray:none;fill:none;fill-opacity:1;fill-rule: evenodd"/>
<path id="Shape2DView_nwe0085"  d="M 1.125 0.92 L 1.1249999999999991 1.62 " stroke="#191919" stroke-width="0.35 px" style="stroke-width:0.35;stroke-miterlimit:4;stroke-dasharray:none;fill:none;fill-opacity:1;fill-rule: evenodd"/>
<path id="Shape2DView_nwe0086"  d="M 1.125 1.62 L -1.125 1.6199999999999972 " stroke="#191919" stroke-width="0.35 px" style="stroke-width:0.35;stroke-miterlimit:4;stroke-dasharray:none;fill:none;fill-opacity:1;fill-rule: evenodd"/>
<path id="Shape2DView_nwe0087"  d="M 1.125 -5.43 L 1.1249999999999991 -4.73 " stroke="#191919" stroke-width="0.35 px" style="stroke-width:0.35;stroke-miterlimit:4;stroke-dasharray:none;fill:none;fill-opacity:1;fill-rule: evenodd"/>
<path id="Shape2DView_nwe0088"  d="M 1.125 -4.73 L -1.125 -4.730000000000003 " stroke="#191919" stroke-width="0.35 px" style="stroke-width:0.35;stroke-miterlimit:4;stroke-dasharray:none;fill:none;fill-opacity:1;fill-rule: evenodd"/>
<path id="Shape2DView_nwe0089"  d="M -1.125 -4.73 L -1.1249999999999991 -5.43 " stroke="#191919" stroke-width="0.35 px" style="stroke-width:0.35;stroke-miterlimit:4;stroke-dasharray:none;fill:none;fill-opacity:1;fill-rule: evenodd"/>
<path id="Shape2DView_nwe0090"  d="M -1.125 -5.43 L 1.125 -5.429999999999997 " stroke="#191919" stroke-width="0.35 px" style="stroke-width:0.35;stroke-miterlimit:4;stroke-dasharray:none;fill:none;fill-opacity:1;fill-rule: evenodd"/>
<path id="Shape2DView_nwe0091"  d="M 1.125 -4.16 L 1.1249999999999991 -3.46 " stroke="#191919" stroke-width="0.35 px" style="stroke-width:0.35;stroke-miterlimit:4;stroke-dasharray:none;fill:none;fill-opacity:1;fill-rule: evenodd"/>
<path id="Shape2DView_nwe0092"  d="M 1.125 -3.46 L -1.125 -3.460000000000003 " stroke="#191919" stroke-width="0.35 px" style="stroke-width:0.35;stroke-miterlimit:4;stroke-dasharray:none;fill:none;fill-opacity:1;fill-rule: evenodd"/>
<path id="Shape2DView_nwe0093"  d="M -1.125 -3.46 L -1.1249999999999991 -4.16 " stroke="#191919" stroke-width="0.35 px" style="stroke-width:0.35;stroke-miterlimit:4;stroke-dasharray:none;fill:none;fill-opacity:1;fill-rule: evenodd"/>
<path id="Shape2DView_nwe0094"  d="M -1.125 -4.16 L 1.125 -4.1599999999999975 " stroke="#191919" stroke-width="0.35 px" style="stroke-width:0.35;stroke-miterlimit:4;stroke-dasharray:none;fill:none;fill-opacity:1;fill-rule: evenodd"/>
<path id="Shape2DView_nwe0095"  d="M -1.125 -2.19 L -1.1249999999999991 -2.89 " stroke="#191919" stroke-width="0.35 px" style="stroke-width:0.35;stroke-miterlimit:4;stroke-dasharray:none;fill:none;fill-opacity:1;fill-rule: evenodd"/>
<path id="Shape2DView_nwe0096"  d="M -1.125 -2.89 L 1.125 -2.889999999999997 " stroke="#191919" stroke-width="0.35 px" style="stroke-width:0.35;stroke-miterlimit:4;stroke-dasharray:none;fill:none;fill-opacity:1;fill-rule: evenodd"/>
<path id="Shape2DView_nwe0097"  d="M 1.125 -2.89 L 1.1249999999999991 -2.19 " stroke="#191919" stroke-width="0.35 px" style="stroke-width:0.35;stroke-miterlimit:4;stroke-dasharray:none;fill:none;fill-opacity:1;fill-rule: evenodd"/>
<path id="Shape2DView_nwe0098"  d="M 1.125 -2.19 L -1.125 -2.190000000000003 " stroke="#191919" stroke-width="0.35 px" style="stroke-width:0.35;stroke-miterlimit:4;stroke-dasharray:none;fill:none;fill-opacity:1;fill-rule: evenodd"/>
<path id="Shape2DView_nwe0099"  d="M 1.125 4.16 L -1.125 4.1599999999999975 " stroke="#191919" stroke-width="0.35 px" style="stroke-width:0.35;stroke-miterlimit:4;stroke-dasharray:none;fill:none;fill-opacity:1;fill-rule: evenodd"/>
<path id="Shape2DView_nwe0100"  d="M -1.125 4.16 L -1.1249999999999991 3.46 " stroke="#191919" stroke-width="0.35 px" style="stroke-width:0.35;stroke-miterlimit:4;stroke-dasharray:none;fill:none;fill-opacity:1;fill-rule: evenodd"/>
<path id="Shape2DView_nwe0101"  d="M -1.125 3.46 L 1.125 3.460000000000003 " stroke="#191919" stroke-width="0.35 px" style="stroke-width:0.35;stroke-miterlimit:4;stroke-dasharray:none;fill:none;fill-opacity:1;fill-rule: evenodd"/>
<path id="Shape2DView_nwe0102"  d="M 1.125 3.46 L 1.1249999999999991 4.16 " stroke="#191919" stroke-width="0.35 px" style="stroke-width:0.35;stroke-miterlimit:4;stroke-dasharray:none;fill:none;fill-opacity:1;fill-rule: evenodd"/>
<path id="Shape2DView_nwe0103"  d="M -1.125 2.89 L -1.1249999999999991 2.19 " stroke="#191919" stroke-width="0.35 px" style="stroke-width:0.35;stroke-miterlimit:4;stroke-dasharray:none;fill:none;fill-opacity:1;fill-rule: evenodd"/>
<path id="Shape2DView_nwe0104"  d="M -1.125 2.19 L 1.125 2.190000000000003 " stroke="#191919" stroke-width="0.35 px" style="stroke-width:0.35;stroke-miterlimit:4;stroke-dasharray:none;fill:none;fill-opacity:1;fill-rule: evenodd"/>
<path id="Shape2DView_nwe0105"  d="M 1.125 2.19 L 1.1249999999999991 2.89 " stroke="#191919" stroke-width="0.35 px" style="stroke-width:0.35;stroke-miterlimit:4;stroke-dasharray:none;fill:none;fill-opacity:1;fill-rule: evenodd"/>
<path id="Shape2DView_nwe0106"  d="M 1.125 2.89 L -1.125 2.889999999999997 " stroke="#191919" stroke-width="0.35 px" style="stroke-width:0.35;stroke-miterlimit:4;stroke-dasharray:none;fill:none;fill-opacity:1;fill-rule: evenodd"/>
<path id="Shape2DView_nwe0107"  d="M 1.125 4.73 L 1.1249999999999991 5.43 " stroke="#191919" stroke-width="0.35 px" style="stroke-width:0.35;stroke-miterlimit:4;stroke-dasharray:none;fill:none;fill-opacity:1;fill-rule: evenodd"/>
<path id="Shape2DView_nwe0108"  d="M 1.125 5.43 L -1.125 5.429999999999997 " stroke="#191919" stroke-width="0.35 px" style="stroke-width:0.35;stroke-miterlimit:4;stroke-dasharray:none;fill:none;fill-opacity:1;fill-rule: evenodd"/>
<path id="Shape2DView_nwe0109"  d="M -1.125 5.43 L -1.1249999999999991 4.73 " stroke="#191919" stroke-width="0.35 px" style="stroke-width:0.35;stroke-miterlimit:4;stroke-dasharray:none;fill:none;fill-opacity:1;fill-rule: evenodd"/>
<path id="Shape2DView_nwe0110"  d="M -1.125 4.73 L 1.125 4.730000000000003 " stroke="#191919" stroke-width="0.35 px" style="stroke-width:0.35;stroke-miterlimit:4;stroke-dasharray:none;fill:none;fill-opacity:1;fill-rule: evenodd"/>
<path id="Shape2DView_nwe0111"  d="M -2.625 6.44 L -2.396501696205 6.211501696205 " stroke="#191919" stroke-width="0.35 px" style="stroke-width:0.35;stroke-miterlimit:4;stroke-dasharray:none;fill:none;fill-opacity:1;fill-rule: evenodd"/>
<path id="Shape2DView_nwe0112"  d="M -0.635 0.35 L -0.6349999999999991 -0.35 " stroke="#191919" stroke-width="0.35 px" style="stroke-width:0.35;stroke-miterlimit:4;stroke-dasharray:none;fill:none;fill-opacity:1;fill-rule: evenodd"/>
<path id="Shape2DView_nwe0113"  d="M 0.635 -0.35 L 0.6349999999999991 0.35 " stroke="#191919" stroke-width="0.35 px" style="stroke-width:0.35;stroke-miterlimit:4;stroke-dasharray:none;fill:none;fill-opacity:1;fill-rule: evenodd"/>
<path id="Shape2DView_nwe0114"  d="M 0.625 -0.35 L 0.6249999999999991 0.35 " stroke="#191919" stroke-width="0.35 px" style="stroke-width:0.35;stroke-miterlimit:4;stroke-dasharray:none;fill:none;fill-opacity:1;fill-rule: evenodd"/>
<path id="Shape2DView_nwe0115"  d="M 0.025 0.35 L 0.025000000000000935 -0.35 " stroke="#191919" stroke-width="0.35 px" style="stroke-width:0.35;stroke-miterlimit:4;stroke-dasharray:none;fill:none;fill-opacity:1;fill-rule: evenodd"/>
<path id="Shape2DView_nwe0116"  d="M 0.635 -1.62 L 0.6349999999999991 -0.92 " stroke="#191919" stroke-width="0.35 px" style="stroke-width:0.35;stroke-miterlimit:4;stroke-dasharray:none;fill:none;fill-opacity:1;fill-rule: evenodd"/>
<path id="Shape2DView_nwe0117"  d="M -0.635 -0.92 L -0.6349999999999991 -1.62 " stroke="#191919" stroke-width="0.35 px" style="stroke-width:0.35;stroke-miterlimit:4;stroke-dasharray:none;fill:none;fill-opacity:1;fill-rule: evenodd"/>
<path id="Shape2DView_nwe0118"  d="M 0.025 -0.92 L 0.025000000000000935 -1.62 " stroke="#191919" stroke-width="0.35 px" style="stroke-width:0.35;stroke-miterlimit:4;stroke-dasharray:none;fill:none;fill-opacity:1;fill-rule: evenodd"/>
<path id="Shape2DView_nwe0119"  d="M 0.625 -1.62 L 0.6249999999999991 -0.92 " stroke="#191919" stroke-width="0.35 px" style="stroke-width:0.35;stroke-miterlimit:4;stroke-dasharray:none;fill:none;fill-opacity:1;fill-rule: evenodd"/>
<path id="Shape2DView_nwe0120"  d="M -0.635 1.62 L -0.6349999999999991 0.92 " stroke="#191919" stroke-width="0.35 px" style="stroke-width:0.35;stroke-miterlimit:4;stroke-dasharray:none;fill:none;fill-opacity:1;fill-rule: evenodd"/>
<path id="Shape2DView_nwe0121"  d="M 0.635 0.92 L 0.6349999999999991 1.62 " stroke="#191919" stroke-width="0.35 px" style="stroke-width:0.35;stroke-miterlimit:4;stroke-dasharray:none;fill:none;fill-opacity:1;fill-rule: evenodd"/>
<path id="Shape2DView_nwe0122"  d="M 0.625 0.92 L 0.6249999999999991 1.62 " stroke="#191919" stroke-width="0.35 px" style="stroke-width:0.35;stroke-miterlimit:4;stroke-dasharray:none;fill:none;fill-opacity:1;fill-rule: evenodd"/>
<path id="Shape2DView_nwe0123"  d="M 0.025 1.62 L 0.025000000000000935 0.92 " stroke="#191919" stroke-width="0.35 px" style="stroke-width:0.35;stroke-miterlimit:4;stroke-dasharray:none;fill:none;fill-opacity:1;fill-rule: evenodd"/>
<path id="Shape2DView_nwe0124"  d="M 0.635 -5.43 L 0.6349999999999991 -4.73 " stroke="#191919" stroke-width="0.35 px" style="stroke-width:0.35;stroke-miterlimit:4;stroke-dasharray:none;fill:none;fill-opacity:1;fill-rule: evenodd"/>
<path id="Shape2DView_nwe0125"  d="M -0.635 -4.73 L -0.6349999999999991 -5.43 " stroke="#191919" stroke-width="0.35 px" style="stroke-width:0.35;stroke-miterlimit:4;stroke-dasharray:none;fill:none;fill-opacity:1;fill-rule: evenodd"/>
<path id="Shape2DView_nwe0126"  d="M 0.02500000000001 -4.73 L 0.025000000000010934 -5.43 " stroke="#191919" stroke-width="0.35 px" style="stroke-width:0.35;stroke-miterlimit:4;stroke-dasharray:none;fill:none;fill-opacity:1;fill-rule: evenodd"/>
<path id="Shape2DView_nwe0127"  d="M 0.625 -5.43 L 0.6249999999999991 -4.73 " stroke="#191919" stroke-width="0.35 px" style="stroke-width:0.35;stroke-miterlimit:4;stroke-dasharray:none;fill:none;fill-opacity:1;fill-rule: evenodd"/>
<path id="Shape2DView_nwe0128"  d="M 0.635 -4.16 L 0.6349999999999991 -3.46 " stroke="#191919" stroke-width="0.35 px" style="stroke-width:0.35;stroke-miterlimit:4;stroke-dasharray:none;fill:none;fill-opacity:1;fill-rule: evenodd"/>
<path id="Shape2DView_nwe0129"  d="M -0.635 -3.46 L -0.6349999999999991 -4.16 " stroke="#191919" stroke-width="0.35 px" style="stroke-width:0.35;stroke-miterlimit:4;stroke-dasharray:none;fill:none;fill-opacity:1;fill-rule: evenodd"/>
<path id="Shape2DView_nwe0130"  d="M 0.025 -3.46 L 0.025000000000000935 -4.16 " stroke="#191919" stroke-width="0.35 px" style="stroke-width:0.35;stroke-miterlimit:4;stroke-dasharray:none;fill:none;fill-opacity:1;fill-rule: evenodd"/>
<path id="Shape2DView_nwe0131"  d="M 0.625 -4.16 L 0.6249999999999991 -3.46 " stroke="#191919" stroke-width="0.35 px" style="stroke-width:0.35;stroke-miterlimit:4;stroke-dasharray:none;fill:none;fill-opacity:1;fill-rule: evenodd"/>
<path id="Shape2DView_nwe0132"  d="M -0.635 -2.19 L -0.6349999999999991 -2.89 " stroke="#191919" stroke-width="0.35 px" style="stroke-width:0.35;stroke-miterlimit:4;stroke-dasharray:none;fill:none;fill-opacity:1;fill-rule: evenodd"/>
<path id="Shape2DView_nwe0133"  d="M 0.635 -2.89 L 0.6349999999999991 -2.19 " stroke="#191919" stroke-width="0.35 px" style="stroke-width:0.35;stroke-miterlimit:4;stroke-dasharray:none;fill:none;fill-opacity:1;fill-rule: evenodd"/>
<path id="Shape2DView_nwe0134"  d="M 0.625 -2.89 L 0.6249999999999991 -2.19 " stroke="#191919" stroke-width="0.35 px" style="stroke-width:0.35;stroke-miterlimit:4;stroke-dasharray:none;fill:none;fill-opacity:1;fill-rule: evenodd"/>
<path id="Shape2DView_nwe0135"  d="M 0.025 -2.19 L 0.025000000000000935 -2.89 " stroke="#191919" stroke-width="0.35 px" style="stroke-width:0.35;stroke-miterlimit:4;stroke-dasharray:none;fill:none;fill-opacity:1;fill-rule: evenodd"/>
<path id="Shape2DView_nwe0136"  d="M 0.635 3.46 L 0.6349999999999991 4.16 " stroke="#191919" stroke-width="0.35 px" style="stroke-width:0.35;stroke-miterlimit:4;stroke-dasharray:none;fill:none;fill-opacity:1;fill-rule: evenodd"/>
<path id="Shape2DView_nwe0137"  d="M 0.625 3.46 L 0.6249999999999991 4.16 " stroke="#191919" stroke-width="0.35 px" style="stroke-width:0.35;stroke-miterlimit:4;stroke-dasharray:none;fill:none;fill-opacity:1;fill-rule: evenodd"/>
<path id="Shape2DView_nwe0138"  d="M 0.02499999999999 4.16 L 0.024999999999990932 3.46 " stroke="#191919" stroke-width="0.35 px" style="stroke-width:0.35;stroke-miterlimit:4;stroke-dasharray:none;fill:none;fill-opacity:1;fill-rule: evenodd"/>
<path id="Shape2DView_nwe0139"  d="M -0.635 4.16 L -0.6349999999999991 3.46 " stroke="#191919" stroke-width="0.35 px" style="stroke-width:0.35;stroke-miterlimit:4;stroke-dasharray:none;fill:none;fill-opacity:1;fill-rule: evenodd"/>
<path id="Shape2DView_nwe0140"  d="M -0.635 2.89 L -0.6349999999999991 2.19 " stroke="#191919" stroke-width="0.35 px" style="stroke-width:0.35;stroke-miterlimit:4;stroke-dasharray:none;fill:none;fill-opacity:1;fill-rule: evenodd"/>
<path id="Shape2DView_nwe0141"  d="M 0.635 2.19 L 0.6349999999999991 2.89 " stroke="#191919" stroke-width="0.35 px" style="stroke-width:0.35;stroke-miterlimit:4;stroke-dasharray:none;fill:none;fill-opacity:1;fill-rule: evenodd"/>
<path id="Shape2DView_nwe0142"  d="M 0.625 2.19 L 0.6249999999999991 2.89 " stroke="#191919" stroke-width="0.35 px" style="stroke-width:0.35;stroke-miterlimit:4;stroke-dasharray:none;fill:none;fill-opacity:1;fill-rule: evenodd"/>
<path id="Shape2DView_nwe0143"  d="M 0.025 2.89 L 0.025000000000000935 2.19 " stroke="#191919" stroke-width="0.35 px" style="stroke-width:0.35;stroke-miterlimit:4;stroke-dasharray:none;fill:none;fill-opacity:1;fill-rule: evenodd"/>
<path id="Shape2DView_nwe0144"  d="M 0.635 4.73 L 0.6349999999999991 5.43 " stroke="#191919" stroke-width="0.35 px" style="stroke-width:0.35;stroke-miterlimit:4;stroke-dasharray:none;fill:none;fill-opacity:1;fill-rule: evenodd"/>
<path id="Shape2DView_nwe0145"  d="M -0.635 5.43 L -0.6349999999999991 4.73 " stroke="#191919" stroke-width="0.35 px" style="stroke-width:0.35;stroke-miterlimit:4;stroke-dasharray:none;fill:none;fill-opacity:1;fill-rule: evenodd"/>
<path id="Shape2DView_nwe0146"  d="M 0.02499999999999 5.43 L 0.024999999999990932 4.73 " stroke="#191919" stroke-width="0.35 px" style="stroke-width:0.35;stroke-miterlimit:4;stroke-dasharray:none;fill:none;fill-opacity:1;fill-rule: evenodd"/>
<path id="Shape2DView_nwe0147"  d="M 0.625 4.73 L 0.6249999999999991 5.43 " stroke="#191919" stroke-width="0.35 px" style="stroke-width:0.35;stroke-miterlimit:4;stroke-dasharray:none;fill:none;fill-opacity:1;fill-rule: evenodd"/>
<path id="Shape2DView_nwe0148"  d="M -1.746501696205 4.73 L -1.7465016962050002 4.963333333333 " stroke="#191919" stroke-width="0.35 px" style="stroke-width:0.35;stroke-miterlimit:4;stroke-dasharray:none;fill:none;fill-opacity:1;fill-rule: evenodd"/>
<path id="Shape2DView_nwe0149"  d="M -1.746501696205 4.963333333333 L -1.513168362871 4.963333333332999 " stroke="#191919" stroke-width="0.35 px" style="stroke-width:0.35;stroke-miterlimit:4;stroke-dasharray:none;fill:none;fill-opacity:1;fill-rule: evenodd"/>
<path id="Shape2DView_nwe0150"  d="M -1.513168362871 4.963333333333 L -1.5131683628710002 5.196666666667 " stroke="#191919" stroke-width="0.35 px" style="stroke-width:0.35;stroke-miterlimit:4;stroke-dasharray:none;fill:none;fill-opacity:1;fill-rule: evenodd"/>
<path id="Shape2DView_nwe0151"  d="M -1.513168362871 5.196666666667 L -1.746501696205 5.196666666666999 " stroke="#191919" stroke-width="0.35 px" style="stroke-width:0.35;stroke-miterlimit:4;stroke-dasharray:none;fill:none;fill-opacity:1;fill-rule: evenodd"/>
<path id="Shape2DView_nwe0152"  d="M -1.746501696205 5.196666666667 L -1.7465016962050002 5.43 " stroke="#191919" stroke-width="0.35 px" style="stroke-width:0.35;stroke-miterlimit:4;stroke-dasharray:none;fill:none;fill-opacity:1;fill-rule: evenodd"/>
<path id="Shape2DView_nwe0153"  d="M -1.746501696205 5.43 L -2.096501696205 5.08 " stroke="#191919" stroke-width="0.35 px" style="stroke-width:0.35;stroke-miterlimit:4;stroke-dasharray:none;fill:none;fill-opacity:1;fill-rule: evenodd"/>
<path id="Shape2DView_nwe0154"  d="M -2.096501696205 5.08 L -1.746501696205 4.73 " stroke="#191919" stroke-width="0.35 px" style="stroke-width:0.35;stroke-miterlimit:4;stroke-dasharray:none;fill:none;fill-opacity:1;fill-rule: evenodd"/>
<title>b'Shape2DView'</title>
</g>
<g id="Rectangle" transform="translate(2.856000,6.571000) scale(1,-1)">
<rect fill="#ff0000" id="origin" width="1" height="1" x="0" y="0" />
<title>b'Rectangle'</title>
</g>
</svg>