<?xml version="1.0"?>
<!DOCTYPE svg PUBLIC "-//W3C//DTD SVG 1.1//EN" "http://www.w3.org/Graphics/SVG/1.1/DTD/svg11.dtd">
<svg width="19.7268mm" height="7.2868mm" viewBox="0 0 19.7268 7.2868" xmlns="http://www.w3.org/2000/svg" version="1.1">
<g id="Shape2DView" transform="translate(9.863400,3.643400) scale(1,-1)">
<path id="Shape2DView_nwe0000"  d="M 9.67 -3.35 L 9.67 3.35 " stroke="#191919" stroke-width="0.35 px" style="stroke-width:0.35;stroke-miterlimit:4;stroke-dasharray:none;fill:none;fill-opacity:1;fill-rule: evenodd"/>
<path id="Shape2DView_nwe0001"  d="M 7.87 3.4499999999999997 L 7.87 3.449458787927351 L 7.87 3.447837104446121 L 7.87 3.4451408007208304 L 7.87 3.441379605232331 L 7.87 3.4365670886766613 L 7.87 3.430720615000887 L 7.87 3.42386127875258 L 7.87 3.416013828968993 L 7.87 3.4072065798805418 L 7.87 3.3974713087507835 L 7.87 3.3868431412214903 L 7.87 3.375360424576509 L 7.87 3.363064589381674 L 7.87 3.34999999999999 " stroke="#191919" stroke-width="0.35 px" style="stroke-width:0.35;stroke-miterlimit:4;stroke-dasharray:none;fill:none;fill-opacity:1;fill-rule: evenodd"/>
<path id="Shape2DView_nwe0002"  d="M 7.37 3.4499999999999997 L 7.37 3.449458787927351 L 7.37 3.447837104446121 L 7.37 3.4451408007208304 L 7.37 3.441379605232331 L 7.37 3.4365670886766613 L 7.37 3.430720615000887 L 7.37 3.42386127875258 L 7.37 3.416013828968993 L 7.37 3.4072065798805418 L 7.37 3.3974713087507835 L 7.37 3.3868431412214903 L 7.37 3.375360424576509 L 7.37 3.363064589381674 L 7.37 3.34999999999999 " stroke="#191919" stroke-width="0.35 px" style="stroke-width:0.35;stroke-miterlimit:4;stroke-dasharray:none;fill:none;fill-opacity:1;fill-rule: evenodd"/>
<path id="Shape2DView_nwe0003"  d="M 5.33 3.4499999999999997 L 5.33 3.449458787927351 L 5.33 3.447837104446121 L 5.33 3.4451408007208304 L 5.33 3.441379605232331 L 5.33 3.4365670886766613 L 5.33 3.430720615000887 L 5.33 3.42386127875258 L 5.33 3.416013828968993 L 5.33 3.4072065798805418 L 5.33 3.3974713087507835 L 5.33 3.3868431412214903 L 5.33 3.375360424576509 L 5.33 3.363064589381674 L 5.33 3.34999999999999 " stroke="#191919" stroke-width="0.35 px" style="stroke-width:0.35;stroke-miterlimit:4;stroke-dasharray:none;fill:none;fill-opacity:1;fill-rule: evenodd"/>
<path id="Shape2DView_nwe0004"  d="M 4.83 3.4499999999999997 L 4.83 3.449458787927351 L 4.83 3.447837104446121 L 4.83 3.4451408007208304 L 4.83 3.441379605232331 L 4.83 3.4365670886766613 L 4.83 3.430720615000887 L 4.83 3.42386127875258 L 4.83 3.416013828968993 L 4.83 3.4072065798805418 L 4.83 3.3974713087507835 L 4.83 3.3868431412214903 L 4.83 3.375360424576509 L 4.83 3.363064589381674 L 4.83 3.34999999999999 " stroke="#191919" stroke-width="0.35 px" style="stroke-width:0.35;stroke-miterlimit:4;stroke-dasharray:none;fill:none;fill-opacity:1;fill-rule: evenodd"/>
<path id="Shape2DView_nwe0005"  d="M 2.79 3.4499999999999997 L 2.79 3.449458787927351 L 2.79 3.447837104446121 L 2.79 3.4451408007208304 L 2.79 3.441379605232331 L 2.79 3.4365670886766613 L 2.79 3.430720615000887 L 2.79 3.42386127875258 L 2.79 3.416013828968993 L 2.79 3.4072065798805418 L 2.79 3.3974713087507835 L 2.79 3.3868431412214903 L 2.79 3.375360424576509 L 2.79 3.363064589381674 L 2.79 3.34999999999999 " stroke="#191919" stroke-width="0.35 px" style="stroke-width:0.35;stroke-miterlimit:4;stroke-dasharray:none;fill:none;fill-opacity:1;fill-rule: evenodd"/>
<path id="Shape2DView_nwe0006"  d="M 2.29 3.4499999999999997 L 2.29 3.449458787927351 L 2.29 3.447837104446121 L 2.29 3.4451408007208304 L 2.29 3.441379605232331 L 2.29 3.4365670886766613 L 2.29 3.430720615000887 L 2.29 3.42386127875258 L 2.29 3.416013828968993 L 2.29 3.4072065798805418 L 2.29 3.3974713087507835 L 2.29 3.3868431412214903 L 2.29 3.375360424576509 L 2.29 3.363064589381674 L 2.29 3.34999999999999 " stroke="#191919" stroke-width="0.35 px" style="stroke-width:0.35;stroke-miterlimit:4;stroke-dasharray:none;fill:none;fill-opacity:1;fill-rule: evenodd"/>
<path id="Shape2DView_nwe0007"  d="M 0.25000000000000006 3.4499999999999997 L 0.25000000000000006 3.449458787927351 L 0.25000000000000006 3.447837104446121 L 0.25000000000000006 3.4451408007208304 L 0.25000000000000006 3.441379605232331 L 0.25000000000000006 3.4365670886766613 L 0.25000000000000006 3.430720615000887 L 0.25000000000000006 3.42386127875258 L 0.25000000000000006 3.416013828968993 L 0.25000000000000006 3.4072065798805418 L 0.25000000000000006 3.3974713087507835 L 0.25000000000000006 3.3868431412214903 L 0.25000000000000006 3.375360424576509 L 0.25000000000000006 3.363064589381674 L 0.25000000000000006 3.34999999999999 " stroke="#191919" stroke-width="0.35 px" style="stroke-width:0.35;stroke-miterlimit:4;stroke-dasharray:none;fill:none;fill-opacity:1;fill-rule: evenodd"/>
<path id="Shape2DView_nwe0008"  d="M -0.24999999999999992 3.4499999999999997 L -0.24999999999999992 3.449458787927351 L -0.24999999999999992 3.447837104446121 L -0.24999999999999992 3.4451408007208304 L -0.24999999999999992 3.441379605232331 L -0.24999999999999992 3.4365670886766613 L -0.24999999999999994 3.430720615000887 L -0.24999999999999994 3.42386127875258 L -0.24999999999999994 3.416013828968993 L -0.24999999999999994 3.4072065798805418 L -0.24999999999999994 3.3974713087507835 L -0.24999999999999994 3.3868431412214903 L -0.24999999999999994 3.375360424576509 L -0.24999999999999994 3.363064589381674 L -0.24999999999999994 3.34999999999999 " stroke="#191919" stroke-width="0.35 px" style="stroke-width:0.35;stroke-miterlimit:4;stroke-dasharray:none;fill:none;fill-opacity:1;fill-rule: evenodd"/>
<path id="Shape2DView_nwe0009"  d="M -2.29 3.4499999999999997 L -2.29 3.449458787927351 L -2.29 3.447837104446121 L -2.29 3.4451408007208304 L -2.29 3.441379605232331 L -2.29 3.4365670886766613 L -2.29 3.430720615000887 L -2.29 3.42386127875258 L -2.29 3.416013828968993 L -2.29 3.4072065798805418 L -2.29 3.3974713087507835 L -2.29 3.3868431412214903 L -2.29 3.375360424576509 L -2.29 3.363064589381674 L -2.29 3.34999999999999 " stroke="#191919" stroke-width="0.35 px" style="stroke-width:0.35;stroke-miterlimit:4;stroke-dasharray:none;fill:none;fill-opacity:1;fill-rule: evenodd"/>
<path id="Shape2DView_nwe0010"  d="M -2.79 3.4499999999999997 L -2.79 3.449458787927351 L -2.79 3.447837104446121 L -2.79 3.4451408007208304 L -2.79 3.441379605232331 L -2.79 3.4365670886766613 L -2.79 3.430720615000887 L -2.79 3.42386127875258 L -2.79 3.416013828968993 L -2.79 3.4072065798805418 L -2.79 3.3974713087507835 L -2.79 3.3868431412214903 L -2.79 3.375360424576509 L -2.79 3.363064589381674 L -2.79 3.34999999999999 " stroke="#191919" stroke-width="0.35 px" style="stroke-width:0.35;stroke-miterlimit:4;stroke-dasharray:none;fill:none;fill-opacity:1;fill-rule: evenodd"/>
<path id="Shape2DView_nwe0011"  d="M -4.83 3.4499999999999997 L -4.83 3.449458787927351 L -4.83 3.447837104446121 L -4.83 3.4451408007208304 L -4.83 3.441379605232331 L -4.83 3.4365670886766613 L -4.83 3.430720615000887 L -4.83 3.42386127875258 L -4.83 3.416013828968993 L -4.83 3.4072065798805418 L -4.83 3.3974713087507835 L -4.83 3.3868431412214903 L -4.83 3.375360424576509 L -4.83 3.363064589381674 L -4.83 3.34999999999999 " stroke="#191919" stroke-width="0.35 px" style="stroke-width:0.35;stroke-miterlimit:4;stroke-dasharray:none;fill:none;fill-opacity:1;fill-rule: evenodd"/>
<path id="Shape2DView_nwe0012"  d="M -5.33 3.4499999999999997 L -5.33 3.449458787927351 L -5.33 3.447837104446121 L -5.33 3.4451408007208304 L -5.33 3.441379605232331 L -5.33 3.4365670886766613 L -5.33 3.430720615000887 L -5.33 3.42386127875258 L -5.33 3.416013828968993 L -5.33 3.4072065798805418 L -5.33 3.3974713087507835 L -5.33 3.3868431412214903 L -5.33 3.375360424576509 L -5.33 3.363064589381674 L -5.33 3.34999999999999 " stroke="#191919" stroke-width="0.35 px" style="stroke-width:0.35;stroke-miterlimit:4;stroke-dasharray:none;fill:none;fill-opacity:1;fill-rule: evenodd"/>
<path id="Shape2DView_nwe0013"  d="M -7.37 3.4499999999999997 L -7.37 3.449458787927351 L -7.37 3.447837104446121 L -7.37 3.4451408007208304 L -7.37 3.441379605232331 L -7.37 3.4365670886766613 L -7.37 3.430720615000887 L -7.37 3.42386127875258 L -7.37 3.416013828968993 L -7.37 3.4072065798805418 L -7.37 3.3974713087507835 L -7.37 3.3868431412214903 L -7.37 3.375360424576509 L -7.37 3.363064589381674 L -7.37 3.34999999999999 " stroke="#191919" stroke-width="0.35 px" style="stroke-width:0.35;stroke-miterlimit:4;stroke-dasharray:none;fill:none;fill-opacity:1;fill-rule: evenodd"/>
<path id="Shape2DView_nwe0014"  d="M -7.87 3.4499999999999997 L -7.87 3.449458787927351 L -7.87 3.447837104446121 L -7.87 3.4451408007208304 L -7.87 3.441379605232331 L -7.87 3.4365670886766613 L -7.87 3.430720615000887 L -7.87 3.42386127875258 L -7.87 3.416013828968993 L -7.87 3.4072065798805418 L -7.87 3.3974713087507835 L -7.87 3.3868431412214903 L -7.87 3.375360424576509 L -7.87 3.363064589381674 L -7.87 3.34999999999999 " stroke="#191919" stroke-width="0.35 px" style="stroke-width:0.35;stroke-miterlimit:4;stroke-dasharray:none;fill:none;fill-opacity:1;fill-rule: evenodd"/>
<path id="Shape2DView_nwe0015"  d="M -7.87 -3.4499999999999997 L -7.87 -3.449458787927351 L -7.87 -3.447837104446121 L -7.87 -3.4451408007208304 L -7.87 -3.441379605232331 L -7.87 -3.4365670886766613 L -7.87 -3.430720615000887 L -7.87 -3.42386127875258 L -7.87 -3.416013828968993 L -7.87 -3.4072065798805418 L -7.87 -3.3974713087507835 L -7.87 -3.3868431412214903 L -7.87 -3.375360424576509 L -7.87 -3.363064589381674 L -7.87 -3.34999999999999 " stroke="#191919" stroke-width="0.35 px" style="stroke-width:0.35;stroke-miterlimit:4;stroke-dasharray:none;fill:none;fill-opacity:1;fill-rule: evenodd"/>
<path id="Shape2DView_nwe0016"  d="M -7.37 -3.4499999999999997 L -7.37 -3.449458787927351 L -7.37 -3.447837104446121 L -7.37 -3.4451408007208304 L -7.37 -3.441379605232331 L -7.37 -3.4365670886766613 L -7.37 -3.430720615000887 L -7.37 -3.42386127875258 L -7.37 -3.416013828968993 L -7.37 -3.4072065798805418 L -7.37 -3.3974713087507835 L -7.37 -3.3868431412214903 L -7.37 -3.375360424576509 L -7.37 -3.363064589381674 L -7.37 -3.34999999999999 " stroke="#191919" stroke-width="0.35 px" style="stroke-width:0.35;stroke-miterlimit:4;stroke-dasharray:none;fill:none;fill-opacity:1;fill-rule: evenodd"/>
<path id="Shape2DView_nwe0017"  d="M -5.33 -3.4499999999999997 L -5.33 -3.449458787927351 L -5.33 -3.447837104446121 L -5.33 -3.4451408007208304 L -5.33 -3.441379605232331 L -5.33 -3.4365670886766613 L -5.33 -3.430720615000887 L -5.33 -3.42386127875258 L -5.33 -3.416013828968993 L -5.33 -3.4072065798805418 L -5.33 -3.3974713087507835 L -5.33 -3.3868431412214903 L -5.33 -3.375360424576509 L -5.33 -3.363064589381674 L -5.33 -3.34999999999999 " stroke="#191919" stroke-width="0.35 px" style="stroke-width:0.35;stroke-miterlimit:4;stroke-dasharray:none;fill:none;fill-opacity:1;fill-rule: evenodd"/>
<path id="Shape2DView_nwe0018"  d="M -4.83 -3.4499999999999997 L -4.83 -3.449458787927351 L -4.83 -3.447837104446121 L -4.83 -3.4451408007208304 L -4.83 -3.441379605232331 L -4.83 -3.4365670886766613 L -4.83 -3.430720615000887 L -4.83 -3.42386127875258 L -4.83 -3.416013828968993 L -4.83 -3.4072065798805418 L -4.83 -3.3974713087507835 L -4.83 -3.3868431412214903 L -4.83 -3.375360424576509 L -4.83 -3.363064589381674 L -4.83 -3.34999999999999 " stroke="#191919" stroke-width="0.35 px" style="stroke-width:0.35;stroke-miterlimit:4;stroke-dasharray:none;fill:none;fill-opacity:1;fill-rule: evenodd"/>
<path id="Shape2DView_nwe0019"  d="M -2.79 -3.4499999999999997 L -2.79 -3.449458787927351 L -2.79 -3.447837104446121 L -2.79 -3.4451408007208304 L -2.79 -3.441379605232331 L -2.79 -3.4365670886766613 L -2.79 -3.430720615000887 L -2.79 -3.42386127875258 L -2.79 -3.416013828968993 L -2.79 -3.4072065798805418 L -2.79 -3.3974713087507835 L -2.79 -3.3868431412214903 L -2.79 -3.375360424576509 L -2.79 -3.363064589381674 L -2.79 -3.34999999999999 " stroke="#191919" stroke-width="0.35 px" style="stroke-width:0.35;stroke-miterlimit:4;stroke-dasharray:none;fill:none;fill-opacity:1;fill-rule: evenodd"/>
<path id="Shape2DView_nwe0020"  d="M -2.29 -3.4499999999999997 L -2.29 -3.449458787927351 L -2.29 -3.447837104446121 L -2.29 -3.4451408007208304 L -2.29 -3.441379605232331 L -2.29 -3.4365670886766613 L -2.29 -3.430720615000887 L -2.29 -3.42386127875258 L -2.29 -3.416013828968993 L -2.29 -3.4072065798805418 L -2.29 -3.3974713087507835 L -2.29 -3.3868431412214903 L -2.29 -3.375360424576509 L -2.29 -3.363064589381674 L -2.29 -3.34999999999999 " stroke="#191919" stroke-width="0.35 px" style="stroke-width:0.35;stroke-miterlimit:4;stroke-dasharray:none;fill:none;fill-opacity:1;fill-rule: evenodd"/>
<path id="Shape2DView_nwe0021"  d="M -0.25000000000000006 -3.4499999999999997 L -0.25000000000000006 -3.449458787927351 L -0.25000000000000006 -3.447837104446121 L -0.25000000000000006 -3.4451408007208304 L -0.25000000000000006 -3.441379605232331 L -0.25000000000000006 -3.4365670886766613 L -0.25000000000000006 -3.430720615000887 L -0.25000000000000006 -3.42386127875258 L -0.25000000000000006 -3.416013828968993 L -0.25000000000000006 -3.4072065798805418 L -0.25000000000000006 -3.3974713087507835 L -0.25000000000000006 -3.3868431412214903 L -0.25 -3.375360424576509 L -0.25 -3.363064589381674 L -0.25 -3.34999999999999 " stroke="#191919" stroke-width="0.35 px" style="stroke-width:0.35;stroke-miterlimit:4;stroke-dasharray:none;fill:none;fill-opacity:1;fill-rule: evenodd"/>
<path id="Shape2DView_nwe0022"  d="M 0.24999999999999997 -3.4499999999999997 L 0.24999999999999997 -3.449458787927351 L 0.24999999999999997 -3.447837104446121 L 0.24999999999999997 -3.4451408007208304 L 0.24999999999999997 -3.441379605232331 L 0.24999999999999997 -3.4365670886766613 L 0.24999999999999997 -3.430720615000887 L 0.24999999999999997 -3.42386127875258 L 0.24999999999999997 -3.416013828968993 L 0.24999999999999997 -3.4072065798805418 L 0.24999999999999997 -3.3974713087507835 L 0.24999999999999997 -3.3868431412214903 L 0.24999999999999997 -3.375360424576509 L 0.24999999999999997 -3.363064589381674 L 0.24999999999999997 -3.34999999999999 " stroke="#191919" stroke-width="0.35 px" style="stroke-width:0.35;stroke-miterlimit:4;stroke-dasharray:none;fill:none;fill-opacity:1;fill-rule: evenodd"/>
<path id="Shape2DView_nwe0023"  d="M 2.29 -3.4499999999999997 L 2.29 -3.449458787927351 L 2.29 -3.447837104446121 L 2.29 -3.4451408007208304 L 2.29 -3.441379605232331 L 2.29 -3.4365670886766613 L 2.29 -3.430720615000887 L 2.29 -3.42386127875258 L 2.29 -3.416013828968993 L 2.29 -3.4072065798805418 L 2.29 -3.3974713087507835 L 2.29 -3.3868431412214903 L 2.29 -3.375360424576509 L 2.29 -3.363064589381674 L 2.29 -3.34999999999999 " stroke="#191919" stroke-width="0.35 px" style="stroke-width:0.35;stroke-miterlimit:4;stroke-dasharray:none;fill:none;fill-opacity:1;fill-rule: evenodd"/>
<path id="Shape2DView_nwe0024"  d="M 2.79 -3.4499999999999997 L 2.79 -3.449458787927351 L 2.79 -3.447837104446121 L 2.79 -3.4451408007208304 L 2.79 -3.441379605232331 L 2.79 -3.4365670886766613 L 2.79 -3.430720615000887 L 2.79 -3.42386127875258 L 2.79 -3.416013828968993 L 2.79 -3.4072065798805418 L 2.79 -3.3974713087507835 L 2.79 -3.3868431412214903 L 2.79 -3.375360424576509 L 2.79 -3.363064589381674 L 2.79 -3.34999999999999 " stroke="#191919" stroke-width="0.35 px" style="stroke-width:0.35;stroke-miterlimit:4;stroke-dasharray:none;fill:none;fill-opacity:1;fill-rule: evenodd"/>
<path id="Shape2DView_nwe0025"  d="M 4.83 -3.4499999999999997 L 4.83 -3.449458787927351 L 4.83 -3.447837104446121 L 4.83 -3.4451408007208304 L 4.83 -3.441379605232331 L 4.83 -3.4365670886766613 L 4.83 -3.430720615000887 L 4.83 -3.42386127875258 L 4.83 -3.416013828968993 L 4.83 -3.4072065798805418 L 4.83 -3.3974713087507835 L 4.83 -3.3868431412214903 L 4.83 -3.375360424576509 L 4.83 -3.363064589381674 L 4.83 -3.34999999999999 " stroke="#191919" stroke-width="0.35 px" style="stroke-width:0.35;stroke-miterlimit:4;stroke-dasharray:none;fill:none;fill-opacity:1;fill-rule: evenodd"/>
<path id="Shape2DView_nwe0026"  d="M 5.33 -3.4499999999999997 L 5.33 -3.449458787927351 L 5.33 -3.447837104446121 L 5.33 -3.4451408007208304 L 5.33 -3.441379605232331 L 5.33 -3.4365670886766613 L 5.33 -3.430720615000887 L 5.33 -3.42386127875258 L 5.33 -3.416013828968993 L 5.33 -3.4072065798805418 L 5.33 -3.3974713087507835 L 5.33 -3.3868431412214903 L 5.33 -3.375360424576509 L 5.33 -3.363064589381674 L 5.33 -3.34999999999999 " stroke="#191919" stroke-width="0.35 px" style="stroke-width:0.35;stroke-miterlimit:4;stroke-dasharray:none;fill:none;fill-opacity:1;fill-rule: evenodd"/>
<path id="Shape2DView_nwe0027"  d="M 7.37 -3.4499999999999997 L 7.37 -3.449458787927351 L 7.37 -3.447837104446121 L 7.37 -3.4451408007208304 L 7.37 -3.441379605232331 L 7.37 -3.4365670886766613 L 7.37 -3.430720615000887 L 7.37 -3.42386127875258 L 7.37 -3.416013828968993 L 7.37 -3.4072065798805418 L 7.37 -3.3974713087507835 L 7.37 -3.3868431412214903 L 7.37 -3.375360424576509 L 7.37 -3.363064589381674 L 7.37 -3.34999999999999 " stroke="#191919" stroke-width="0.35 px" style="stroke-width:0.35;stroke-miterlimit:4;stroke-dasharray:none;fill:none;fill-opacity:1;fill-rule: evenodd"/>
<path id="Shape2DView_nwe0028"  d="M 7.87 -3.4499999999999997 L 7.87 -3.449458787927351 L 7.87 -3.447837104446121 L 7.87 -3.4451408007208304 L 7.87 -3.441379605232331 L 7.87 -3.4365670886766613 L 7.87 -3.430720615000887 L 7.87 -3.42386127875258 L 7.87 -3.416013828968993 L 7.87 -3.4072065798805418 L 7.87 -3.3974713087507835 L 7.87 -3.3868431412214903 L 7.87 -3.375360424576509 L 7.87 -3.363064589381674 L 7.87 -3.34999999999999 " stroke="#191919" stroke-width="0.35 px" style="stroke-width:0.35;stroke-miterlimit:4;stroke-dasharray:none;fill:none;fill-opacity:1;fill-rule: evenodd"/>
<path id="Shape2DView_nwe0029"  d="M 9.67 3.35 L -9.67 3.3500000000000023 " stroke="#191919" stroke-width="0.35 px" style="stroke-width:0.35;stroke-miterlimit:4;stroke-dasharray:none;fill:none;fill-opacity:1;fill-rule: evenodd"/>
<path id="Shape2DView_nwe0030"  d="M 9.67 3.35 L 9.57 3.25 " stroke="#191919" stroke-width="0.35 px" style="stroke-width:0.35;stroke-miterlimit:4;stroke-dasharray:none;fill:none;fill-opacity:1;fill-rule: evenodd"/>
<path id="Shape2DView_nwe0031"  d="M 9.57 -3.25 L 9.57 3.25 " stroke="#191919" stroke-width="0.35 px" style="stroke-width:0.35;stroke-miterlimit:4;stroke-dasharray:none;fill:none;fill-opacity:1;fill-rule: evenodd"/>
<path id="Shape2DView_nwe0032"  d="M 9.67 -3.35 L 9.57 -3.25 " stroke="#191919" stroke-width="0.35 px" style="stroke-width:0.35;stroke-miterlimit:4;stroke-dasharray:none;fill:none;fill-opacity:1;fill-rule: evenodd"/>
<path id="Shape2DView_nwe0033"  d="M -9.67 -3.35 L 9.67 -3.3500000000000023 " stroke="#191919" stroke-width="0.35 px" style="stroke-width:0.35;stroke-miterlimit:4;stroke-dasharray:none;fill:none;fill-opacity:1;fill-rule: evenodd"/>
<path id="Shape2DView_nwe0034"  d="M 7.37 3.45 L 7.87 3.45 " stroke="#191919" stroke-width="0.35 px" style="stroke-width:0.35;stroke-miterlimit:4;stroke-dasharray:none;fill:none;fill-opacity:1;fill-rule: evenodd"/>
<path id="Shape2DView_nwe0035"  d="M 4.83 3.45 L 5.33 3.45 " stroke="#191919" stroke-width="0.35 px" style="stroke-width:0.35;stroke-miterlimit:4;stroke-dasharray:none;fill:none;fill-opacity:1;fill-rule: evenodd"/>
<path id="Shape2DView_nwe0036"  d="M 2.29 3.45 L 2.79 3.45 " stroke="#191919" stroke-width="0.35 px" style="stroke-width:0.35;stroke-miterlimit:4;stroke-dasharray:none;fill:none;fill-opacity:1;fill-rule: evenodd"/>
<path id="Shape2DView_nwe0037"  d="M -0.25 3.45 L 0.25 3.45 " stroke="#191919" stroke-width="0.35 px" style="stroke-width:0.35;stroke-miterlimit:4;stroke-dasharray:none;fill:none;fill-opacity:1;fill-rule: evenodd"/>
<path id="Shape2DView_nwe0038"  d="M -2.79 3.45 L -2.29 3.45 " stroke="#191919" stroke-width="0.35 px" style="stroke-width:0.35;stroke-miterlimit:4;stroke-dasharray:none;fill:none;fill-opacity:1;fill-rule: evenodd"/>
<path id="Shape2DView_nwe0039"  d="M -5.33 3.45 L -4.83 3.45 " stroke="#191919" stroke-width="0.35 px" style="stroke-width:0.35;stroke-miterlimit:4;stroke-dasharray:none;fill:none;fill-opacity:1;fill-rule: evenodd"/>
<path id="Shape2DView_nwe0040"  d="M -7.87 3.45 L -7.37 3.45 " stroke="#191919" stroke-width="0.35 px" style="stroke-width:0.35;stroke-miterlimit:4;stroke-dasharray:none;fill:none;fill-opacity:1;fill-rule: evenodd"/>
<path id="Shape2DView_nwe0041"  d="M -9.67 3.35 L -9.67 -3.35 " stroke="#191919" stroke-width="0.35 px" style="stroke-width:0.35;stroke-miterlimit:4;stroke-dasharray:none;fill:none;fill-opacity:1;fill-rule: evenodd"/>
<path id="Shape2DView_nwe0042"  d="M -7.37 -3.45 L -7.87 -3.45 " stroke="#191919" stroke-width="0.35 px" style="stroke-width:0.35;stroke-miterlimit:4;stroke-dasharray:none;fill:none;fill-opacity:1;fill-rule: evenodd"/>
<path id="Shape2DView_nwe0043"  d="M -4.83 -3.45 L -5.33 -3.45 " stroke="#191919" stroke-width="0.35 px" style="stroke-width:0.35;stroke-miterlimit:4;stroke-dasharray:none;fill:none;fill-opacity:1;fill-rule: evenodd"/>
<path id="Shape2DView_nwe0044"  d="M -2.29 -3.45 L -2.79 -3.45 " stroke="#191919" stroke-width="0.35 px" style="stroke-width:0.35;stroke-miterlimit:4;stroke-dasharray:none;fill:none;fill-opacity:1;fill-rule: evenodd"/>
<path id="Shape2DView_nwe0045"  d="M 0.25 -3.45 L -0.25 -3.45 " stroke="#191919" stroke-width="0.35 px" style="stroke-width:0.35;stroke-miterlimit:4;stroke-dasharray:none;fill:none;fill-opacity:1;fill-rule: evenodd"/>
<path id="Shape2DView_nwe0046"  d="M 2.79 -3.45 L 2.29 -3.45 " stroke="#191919" stroke-width="0.35 px" style="stroke-width:0.35;stroke-miterlimit:4;stroke-dasharray:none;fill:none;fill-opacity:1;fill-rule: evenodd"/>
<path id="Shape2DView_nwe0047"  d="M 5.33 -3.45 L 4.83 -3.45 " stroke="#191919" stroke-width="0.35 px" style="stroke-width:0.35;stroke-miterlimit:4;stroke-dasharray:none;fill:none;fill-opacity:1;fill-rule: evenodd"/>
<path id="Shape2DView_nwe0048"  d="M 7.87 -3.45 L 7.37 -3.45 " stroke="#191919" stroke-width="0.35 px" style="stroke-width:0.35;stroke-miterlimit:4;stroke-dasharray:none;fill:none;fill-opacity:1;fill-rule: evenodd"/>
<path id="Shape2DView_nwe0049"  d="M -9.67 3.35 L -9.57 3.25 " stroke="#191919" stroke-width="0.35 px" style="stroke-width:0.35;stroke-miterlimit:4;stroke-dasharray:none;fill:none;fill-opacity:1;fill-rule: evenodd"/>
<path id="Shape2DView_nwe0050"  d="M 9.57 3.25 L -9.57 3.250000000000002 " stroke="#191919" stroke-width="0.35 px" style="stroke-width:0.35;stroke-miterlimit:4;stroke-dasharray:none;fill:none;fill-opacity:1;fill-rule: evenodd"/>
<path id="Shape2DView_nwe0051"  d="M 9.57 3.25 L 9.272420813662 2.952420813662 " stroke="#191919" stroke-width="0.35 px" style="stroke-width:0.35;stroke-miterlimit:4;stroke-dasharray:none;fill:none;fill-opacity:1;fill-rule: evenodd"/>
<path id="Shape2DView_nwe0052"  d="M 9.272420813662 -2.952420813662 L 9.272420813662 2.952420813662 " stroke="#191919" stroke-width="0.35 px" style="stroke-width:0.35;stroke-miterlimit:4;stroke-dasharray:none;fill:none;fill-opacity:1;fill-rule: evenodd"/>
<path id="Shape2DView_nwe0053"  d="M 9.57 -3.25 L 9.272420813662 -2.952420813662 " stroke="#191919" stroke-width="0.35 px" style="stroke-width:0.35;stroke-miterlimit:4;stroke-dasharray:none;fill:none;fill-opacity:1;fill-rule: evenodd"/>
<path id="Shape2DView_nwe0054"  d="M -9.57 -3.25 L 9.57 -3.250000000000002 " stroke="#191919" stroke-width="0.35 px" style="stroke-width:0.35;stroke-miterlimit:4;stroke-dasharray:none;fill:none;fill-opacity:1;fill-rule: evenodd"/>
<path id="Shape2DView_nwe0055"  d="M -9.67 -3.35 L -9.57 -3.25 " stroke="#191919" stroke-width="0.35 px" style="stroke-width:0.35;stroke-miterlimit:4;stroke-dasharray:none;fill:none;fill-opacity:1;fill-rule: evenodd"/>
<path id="Shape2DView_nwe0056"  d="M -9.57 3.25 L -9.57 -3.25 " stroke="#191919" stroke-width="0.35 px" style="stroke-width:0.35;stroke-miterlimit:4;stroke-dasharray:none;fill:none;fill-opacity:1;fill-rule: evenodd"/>
<path id="Shape2DView_nwe0057"  d="M -9.57 3.25 L -9.272420813662 2.952420813662 " stroke="#191919" stroke-width="0.35 px" style="stroke-width:0.35;stroke-miterlimit:4;stroke-dasharray:none;fill:none;fill-opacity:1;fill-rule: evenodd"/>
<path id="Shape2DView_nwe0058"  d="M 9.272420813662 2.952420813662 L -9.272420813662 2.9524208136620023 " stroke="#191919" stroke-width="0.35 px" style="stroke-width:0.35;stroke-miterlimit:4;stroke-dasharray:none;fill:none;fill-opacity:1;fill-rule: evenodd"/>
<path id="Shape2DView_nwe0059"  d="M -9.272420813662 -2.952420813662 L 9.272420813662 -2.9524208136620023 " stroke="#191919" stroke-width="0.35 px" style="stroke-width:0.35;stroke-miterlimit:4;stroke-dasharray:none;fill:none;fill-opacity:1;fill-rule: evenodd"/>
<path id="Shape2DView_nwe0060"  d="M -9.272420813662 2.952420813662 L -9.272420813662 -2.952420813662 " stroke="#191919" stroke-width="0.35 px" style="stroke-width:0.35;stroke-miterlimit:4;stroke-dasharray:none;fill:none;fill-opacity:1;fill-rule: evenodd"/>
<path id="Shape2DView_nwe0061"  d="M -5.68 -1.5 L -4.48 -1.5000000000000002 " stroke="#191919" stroke-width="0.35 px" style="stroke-width:0.35;stroke-miterlimit:4;stroke-dasharray:none;fill:none;fill-opacity:1;fill-rule: evenodd"/>
<path id="Shape2DView_nwe0062"  d="M -4.48 -1.5 L -4.48 4.440892098500626e-16 " stroke="#191919" stroke-width="0.35 px" style="stroke-width:0.35;stroke-miterlimit:4;stroke-dasharray:none;fill:none;fill-opacity:1;fill-rule: evenodd"/>
<path id="Shape2DView_nwe0063"  d="M -4.63 1.5 L -5.53 1.5000000000000002 " stroke="#191919" stroke-width="0.35 px" style="stroke-width:0.35;stroke-miterlimit:4;stroke-dasharray:none;fill:none;fill-opacity:1;fill-rule: evenodd"/>
<path id="Shape2DView_nwe0064"  d="M -5.68 6.661338147750939e-16 L -5.68 -1.5 " stroke="#191919" stroke-width="0.35 px" style="stroke-width:0.35;stroke-miterlimit:4;stroke-dasharray:none;fill:none;fill-opacity:1;fill-rule: evenodd"/>
<path id="Shape2DView_nwe0065"  d="M -1.94 -1.5 L -1.9399999999999997 2.220446049250313e-16 " stroke="#191919" stroke-width="0.35 px" style="stroke-width:0.35;stroke-miterlimit:4;stroke-dasharray:none;fill:none;fill-opacity:1;fill-rule: evenodd"/>
<path id="Shape2DView_nwe0066"  d="M -2.09 1.5 L -2.99 1.5000000000000002 " stroke="#191919" stroke-width="0.35 px" style="stroke-width:0.35;stroke-miterlimit:4;stroke-dasharray:none;fill:none;fill-opacity:1;fill-rule: evenodd"/>
<path id="Shape2DView_nwe0067"  d="M -3.14 4.440892098500626e-16 L -3.1400000000000006 -1.5 " stroke="#191919" stroke-width="0.35 px" style="stroke-width:0.35;stroke-miterlimit:4;stroke-dasharray:none;fill:none;fill-opacity:1;fill-rule: evenodd"/>
<path id="Shape2DView_nwe0068"  d="M -3.14 -1.5 L -1.94 -1.5000000000000002 " stroke="#191919" stroke-width="0.35 px" style="stroke-width:0.35;stroke-miterlimit:4;stroke-dasharray:none;fill:none;fill-opacity:1;fill-rule: evenodd"/>
<path id="Shape2DView_nwe0069"  d="M 0.45 1.5 L -0.45000000000000007 1.5000000000000002 " stroke="#191919" stroke-width="0.35 px" style="stroke-width:0.35;stroke-miterlimit:4;stroke-dasharray:none;fill:none;fill-opacity:1;fill-rule: evenodd"/>
<path id="Shape2DView_nwe0070"  d="M -0.6000000000000002 0.0 L -0.6000000000000003 -1.5 " stroke="#191919" stroke-width="0.35 px" style="stroke-width:0.35;stroke-miterlimit:4;stroke-dasharray:none;fill:none;fill-opacity:1;fill-rule: evenodd"/>
<path id="Shape2DView_nwe0071"  d="M -0.6 -1.5 L 0.6 -1.5000000000000002 " stroke="#191919" stroke-width="0.35 px" style="stroke-width:0.35;stroke-miterlimit:4;stroke-dasharray:none;fill:none;fill-opacity:1;fill-rule: evenodd"/>
<path id="Shape2DView_nwe0072"  d="M 0.6 -1.5 L 0.6000000000000002 0.0 " stroke="#191919" stroke-width="0.35 px" style="stroke-width:0.35;stroke-miterlimit:4;stroke-dasharray:none;fill:none;fill-opacity:1;fill-rule: evenodd"/>
<path id="Shape2DView_nwe0073"  d="M 4.48 -1.5 L 5.68 -1.5000000000000002 " stroke="#191919" stroke-width="0.35 px" style="stroke-width:0.35;stroke-miterlimit:4;stroke-dasharray:none;fill:none;fill-opacity:1;fill-rule: evenodd"/>
<path id="Shape2DView_nwe0074"  d="M 5.68 -1.5 L 5.68 -6.661338147750939e-16 " stroke="#191919" stroke-width="0.35 px" style="stroke-width:0.35;stroke-miterlimit:4;stroke-dasharray:none;fill:none;fill-opacity:1;fill-rule: evenodd"/>
<path id="Shape2DView_nwe0075"  d="M 5.53 1.5 L 4.63 1.5000000000000002 " stroke="#191919" stroke-width="0.35 px" style="stroke-width:0.35;stroke-miterlimit:4;stroke-dasharray:none;fill:none;fill-opacity:1;fill-rule: evenodd"/>
<path id="Shape2DView_nwe0076"  d="M 4.48 -4.440892098500626e-16 L 4.48 -1.5 " stroke="#191919" stroke-width="0.35 px" style="stroke-width:0.35;stroke-miterlimit:4;stroke-dasharray:none;fill:none;fill-opacity:1;fill-rule: evenodd"/>
<path id="Shape2DView_nwe0077"  d="M 1.94 -1.5 L 3.14 -1.5000000000000002 " stroke="#191919" stroke-width="0.35 px" style="stroke-width:0.35;stroke-miterlimit:4;stroke-dasharray:none;fill:none;fill-opacity:1;fill-rule: evenodd"/>
<path id="Shape2DView_nwe0078"  d="M 3.14 -1.5 L 3.14 -4.440892098500626e-16 " stroke="#191919" stroke-width="0.35 px" style="stroke-width:0.35;stroke-miterlimit:4;stroke-dasharray:none;fill:none;fill-opacity:1;fill-rule: evenodd"/>
<path id="Shape2DView_nwe0079"  d="M 2.99 1.5 L 2.09 1.5000000000000002 " stroke="#191919" stroke-width="0.35 px" style="stroke-width:0.35;stroke-miterlimit:4;stroke-dasharray:none;fill:none;fill-opacity:1;fill-rule: evenodd"/>
<path id="Shape2DView_nwe0080"  d="M 1.9399999999999997 -2.220446049250313e-16 L 1.9399999999999995 -1.5 " stroke="#191919" stroke-width="0.35 px" style="stroke-width:0.35;stroke-miterlimit:4;stroke-dasharray:none;fill:none;fill-opacity:1;fill-rule: evenodd"/>
<path id="Shape2DView_nwe0081"  d="M -7.17 1.5 L -8.07 1.5000000000000002 " stroke="#191919" stroke-width="0.35 px" style="stroke-width:0.35;stroke-miterlimit:4;stroke-dasharray:none;fill:none;fill-opacity:1;fill-rule: evenodd"/>
<path id="Shape2DView_nwe0082"  d="M -8.22 1.1102230246251565e-15 L -8.22 -1.5 " stroke="#191919" stroke-width="0.35 px" style="stroke-width:0.35;stroke-miterlimit:4;stroke-dasharray:none;fill:none;fill-opacity:1;fill-rule: evenodd"/>
<path id="Shape2DView_nwe0083"  d="M -8.22 -1.5 L -7.02 -1.5000000000000002 " stroke="#191919" stroke-width="0.35 px" style="stroke-width:0.35;stroke-miterlimit:4;stroke-dasharray:none;fill:none;fill-opacity:1;fill-rule: evenodd"/>
<path id="Shape2DView_nwe0084"  d="M -7.02 -1.5 L -7.02 8.881784197001252e-16 " stroke="#191919" stroke-width="0.35 px" style="stroke-width:0.35;stroke-miterlimit:4;stroke-dasharray:none;fill:none;fill-opacity:1;fill-rule: evenodd"/>
<path id="Shape2DView_nwe0085"  d="M 8.07 1.5 L 7.17 1.5000000000000002 " stroke="#191919" stroke-width="0.35 px" style="stroke-width:0.35;stroke-miterlimit:4;stroke-dasharray:none;fill:none;fill-opacity:1;fill-rule: evenodd"/>
<path id="Shape2DView_nwe0086"  d="M 7.02 -8.881784197001252e-16 L 7.02 -1.5 " stroke="#191919" stroke-width="0.35 px" style="stroke-width:0.35;stroke-miterlimit:4;stroke-dasharray:none;fill:none;fill-opacity:1;fill-rule: evenodd"/>
<path id="Shape2DView_nwe0087"  d="M 7.02 -1.5 L 8.22 -1.5000000000000002 " stroke="#191919" stroke-width="0.35 px" style="stroke-width:0.35;stroke-miterlimit:4;stroke-dasharray:none;fill:none;fill-opacity:1;fill-rule: evenodd"/>
<path id="Shape2DView_nwe0088"  d="M 8.22 -1.5 L 8.22 -1.1102230246251565e-15 " stroke="#191919" stroke-width="0.35 px" style="stroke-width:0.35;stroke-miterlimit:4;stroke-dasharray:none;fill:none;fill-opacity:1;fill-rule: evenodd"/>
<path id="Shape2DView_nwe0089"  d="M -9.57 -3.25 L -9.272420813662 -2.952420813662 " stroke="#191919" stroke-width="0.35 px" style="stroke-width:0.35;stroke-miterlimit:4;stroke-dasharray:none;fill:none;fill-opacity:1;fill-rule: evenodd"/>
<path id="Shape2DView_nwe0090"  d="M -5.68 1.5 L -5.68 6.661338147750939e-16 " stroke="#191919" stroke-width="0.35 px" style="stroke-width:0.35;stroke-miterlimit:4;stroke-dasharray:none;fill:none;fill-opacity:1;fill-rule: evenodd"/>
<path id="Shape2DView_nwe0091"  d="M -4.48 5.48641766018e-16 L -4.48 1.5 " stroke="#191919" stroke-width="0.35 px" style="stroke-width:0.35;stroke-miterlimit:4;stroke-dasharray:none;fill:none;fill-opacity:1;fill-rule: evenodd"/>
<path id="Shape2DView_nwe0092"  d="M -5.53 1.5000000000000002 L -5.68 1.5000000000000002 " stroke="#191919" stroke-width="0.35 px" style="stroke-width:0.35;stroke-miterlimit:4;stroke-dasharray:none;fill:none;fill-opacity:1;fill-rule: evenodd"/>
<path id="Shape2DView_nwe0093"  d="M -4.48 1.5 L -4.63 1.5 " stroke="#191919" stroke-width="0.35 px" style="stroke-width:0.35;stroke-miterlimit:4;stroke-dasharray:none;fill:none;fill-opacity:1;fill-rule: evenodd"/>
<path id="Shape2DView_nwe0094"  d="M -1.94 2.375814790346e-16 L -1.9399999999999997 1.5 " stroke="#191919" stroke-width="0.35 px" style="stroke-width:0.35;stroke-miterlimit:4;stroke-dasharray:none;fill:none;fill-opacity:1;fill-rule: evenodd"/>
<path id="Shape2DView_nwe0095"  d="M -1.94 1.5 L -2.09 1.5 " stroke="#191919" stroke-width="0.35 px" style="stroke-width:0.35;stroke-miterlimit:4;stroke-dasharray:none;fill:none;fill-opacity:1;fill-rule: evenodd"/>
<path id="Shape2DView_nwe0096"  d="M -3.14 1.5 L -3.14 4.440892098500626e-16 " stroke="#191919" stroke-width="0.35 px" style="stroke-width:0.35;stroke-miterlimit:4;stroke-dasharray:none;fill:none;fill-opacity:1;fill-rule: evenodd"/>
<path id="Shape2DView_nwe0097"  d="M -2.99 1.5000000000000002 L -3.14 1.5000000000000002 " stroke="#191919" stroke-width="0.35 px" style="stroke-width:0.35;stroke-miterlimit:4;stroke-dasharray:none;fill:none;fill-opacity:1;fill-rule: evenodd"/>
<path id="Shape2DView_nwe0098"  d="M 0.6 1.5 L 0.45 1.5 " stroke="#191919" stroke-width="0.35 px" style="stroke-width:0.35;stroke-miterlimit:4;stroke-dasharray:none;fill:none;fill-opacity:1;fill-rule: evenodd"/>
<path id="Shape2DView_nwe0099"  d="M 0.6 -7.347880794884e-17 L 0.6000000000000002 1.5 " stroke="#191919" stroke-width="0.35 px" style="stroke-width:0.35;stroke-miterlimit:4;stroke-dasharray:none;fill:none;fill-opacity:1;fill-rule: evenodd"/>
<path id="Shape2DView_nwe0100"  d="M -0.45000000000000007 1.5000000000000002 L -0.6 1.5000000000000002 " stroke="#191919" stroke-width="0.35 px" style="stroke-width:0.35;stroke-miterlimit:4;stroke-dasharray:none;fill:none;fill-opacity:1;fill-rule: evenodd"/>
<path id="Shape2DView_nwe0101"  d="M -0.6 1.5 L -0.6000000000000002 0.0 " stroke="#191919" stroke-width="0.35 px" style="stroke-width:0.35;stroke-miterlimit:4;stroke-dasharray:none;fill:none;fill-opacity:1;fill-rule: evenodd"/>
<path id="Shape2DView_nwe0102"  d="M 4.48 1.5 L 4.48 -4.440892098500626e-16 " stroke="#191919" stroke-width="0.35 px" style="stroke-width:0.35;stroke-miterlimit:4;stroke-dasharray:none;fill:none;fill-opacity:1;fill-rule: evenodd"/>
<path id="Shape2DView_nwe0103"  d="M 5.68 -6.955993819157e-16 L 5.68 1.5 " stroke="#191919" stroke-width="0.35 px" style="stroke-width:0.35;stroke-miterlimit:4;stroke-dasharray:none;fill:none;fill-opacity:1;fill-rule: evenodd"/>
<path id="Shape2DView_nwe0104"  d="M 4.63 1.5000000000000002 L 4.48 1.5000000000000002 " stroke="#191919" stroke-width="0.35 px" style="stroke-width:0.35;stroke-miterlimit:4;stroke-dasharray:none;fill:none;fill-opacity:1;fill-rule: evenodd"/>
<path id="Shape2DView_nwe0105"  d="M 5.68 1.5 L 5.53 1.5 " stroke="#191919" stroke-width="0.35 px" style="stroke-width:0.35;stroke-miterlimit:4;stroke-dasharray:none;fill:none;fill-opacity:1;fill-rule: evenodd"/>
<path id="Shape2DView_nwe0106"  d="M 1.94 1.5 L 1.9399999999999997 -2.220446049250313e-16 " stroke="#191919" stroke-width="0.35 px" style="stroke-width:0.35;stroke-miterlimit:4;stroke-dasharray:none;fill:none;fill-opacity:1;fill-rule: evenodd"/>
<path id="Shape2DView_nwe0107"  d="M 3.14 -3.845390949323e-16 L 3.14 1.5 " stroke="#191919" stroke-width="0.35 px" style="stroke-width:0.35;stroke-miterlimit:4;stroke-dasharray:none;fill:none;fill-opacity:1;fill-rule: evenodd"/>
<path id="Shape2DView_nwe0108"  d="M 2.09 1.5000000000000002 L 1.94 1.5000000000000002 " stroke="#191919" stroke-width="0.35 px" style="stroke-width:0.35;stroke-miterlimit:4;stroke-dasharray:none;fill:none;fill-opacity:1;fill-rule: evenodd"/>
<path id="Shape2DView_nwe0109"  d="M 3.14 1.5 L 2.99 1.5 " stroke="#191919" stroke-width="0.35 px" style="stroke-width:0.35;stroke-miterlimit:4;stroke-dasharray:none;fill:none;fill-opacity:1;fill-rule: evenodd"/>
<path id="Shape2DView_nwe0110"  d="M -7.02 1.5 L -7.17 1.5 " stroke="#191919" stroke-width="0.35 px" style="stroke-width:0.35;stroke-miterlimit:4;stroke-dasharray:none;fill:none;fill-opacity:1;fill-rule: evenodd"/>
<path id="Shape2DView_nwe0111"  d="M -7.02 7.771561172376e-16 L -7.02 1.5 " stroke="#191919" stroke-width="0.35 px" style="stroke-width:0.35;stroke-miterlimit:4;stroke-dasharray:none;fill:none;fill-opacity:1;fill-rule: evenodd"/>
<path id="Shape2DView_nwe0112"  d="M -8.07 1.5000000000000002 L -8.22 1.5000000000000002 " stroke="#191919" stroke-width="0.35 px" style="stroke-width:0.35;stroke-miterlimit:4;stroke-dasharray:none;fill:none;fill-opacity:1;fill-rule: evenodd"/>
<path id="Shape2DView_nwe0113"  d="M -8.22 1.5 L -8.22 8.881784197001252e-16 " stroke="#191919" stroke-width="0.35 px" style="stroke-width:0.35;stroke-miterlimit:4;stroke-dasharray:none;fill:none;fill-opacity:1;fill-rule: evenodd"/>
<path id="Shape2DView_nwe0114"  d="M 8.22 1.5 L 8.07 1.5 " stroke="#191919" stroke-width="0.35 px" style="stroke-width:0.35;stroke-miterlimit:4;stroke-dasharray:none;fill:none;fill-opacity:1;fill-rule: evenodd"/>
<path id="Shape2DView_nwe0115"  d="M 8.22 -1.006659668899e-15 L 8.22 1.5 " stroke="#191919" stroke-width="0.35 px" style="stroke-width:0.35;stroke-miterlimit:4;stroke-dasharray:none;fill:none;fill-opacity:1;fill-rule: evenodd"/>
<path id="Shape2DView_nwe0116"  d="M 7.17 1.5000000000000002 L 7.02 1.5000000000000002 " stroke="#191919" stroke-width="0.35 px" style="stroke-width:0.35;stroke-miterlimit:4;stroke-dasharray:none;fill:none;fill-opacity:1;fill-rule: evenodd"/>
<path id="Shape2DView_nwe0117"  d="M 7.02 1.5 L 7.02 -8.881784197001252e-16 " stroke="#191919" stroke-width="0.35 px" style="stroke-width:0.35;stroke-miterlimit:4;stroke-dasharray:none;fill:none;fill-opacity:1;fill-rule: evenodd"/>
<path id="Shape2DView_nwe0118"  d="M -5.68 6.661338147751e-16 L -5.53 6.477641127878951e-16 " stroke="#191919" stroke-width="0.35 px" style="stroke-width:0.35;stroke-miterlimit:4;stroke-dasharray:none;fill:none;fill-opacity:1;fill-rule: evenodd"/>
<path id="Shape2DView_nwe0119"  d="M -4.63 5.375459008646651e-16 L -4.48 5.191761988774602e-16 " stroke="#191919" stroke-width="0.35 px" style="stroke-width:0.35;stroke-miterlimit:4;stroke-dasharray:none;fill:none;fill-opacity:1;fill-rule: evenodd"/>
<path id="Shape2DView_nwe0120"  d="M -4.63 1.5000000000000002 A 0.75 0.75 0 0 0 -5.53 1.5" stroke="#191919" stroke-width="0.35 px" style="stroke-width:0.35;stroke-miterlimit:4;stroke-dasharray:none;fill:none;fill-opacity:1;fill-rule: evenodd"/>
<path id="Shape2DView_nwe0121"  d="M -5.529999999999996 3.219646771412954e-15 A 0.75 0.75 0 0 0 -4.63 4.10783e-15" stroke="#191919" stroke-width="0.35 px" style="stroke-width:0.35;stroke-miterlimit:4;stroke-dasharray:none;fill:none;fill-opacity:1;fill-rule: evenodd"/>
<path id="Shape2DView_nwe0122"  d="M -2.09 2.0447899347706495e-16 L -1.94 1.8610929148985997e-16 " stroke="#191919" stroke-width="0.35 px" style="stroke-width:0.35;stroke-miterlimit:4;stroke-dasharray:none;fill:none;fill-opacity:1;fill-rule: evenodd"/>
<path id="Shape2DView_nwe0123"  d="M -2.09 1.5000000000000002 A 0.75 0.75 0 0 0 -2.99 1.5" stroke="#191919" stroke-width="0.35 px" style="stroke-width:0.35;stroke-miterlimit:4;stroke-dasharray:none;fill:none;fill-opacity:1;fill-rule: evenodd"/>
<path id="Shape2DView_nwe0124"  d="M -3.14 3.330669073875e-16 L -2.99 3.1469720540029497e-16 " stroke="#191919" stroke-width="0.35 px" style="stroke-width:0.35;stroke-miterlimit:4;stroke-dasharray:none;fill:none;fill-opacity:1;fill-rule: evenodd"/>
<path id="Shape2DView_nwe0125"  d="M -2.989999999999996 2.7755575615628914e-15 A 0.75 0.75 0 0 0 -2.09 3.66374e-15" stroke="#191919" stroke-width="0.35 px" style="stroke-width:0.35;stroke-miterlimit:4;stroke-dasharray:none;fill:none;fill-opacity:1;fill-rule: evenodd"/>
<path id="Shape2DView_nwe0126"  d="M 0.45 1.5 A 0.75 0.75 0 0 0 -0.45 1.5" stroke="#191919" stroke-width="0.35 px" style="stroke-width:0.35;stroke-miterlimit:4;stroke-dasharray:none;fill:none;fill-opacity:1;fill-rule: evenodd"/>
<path id="Shape2DView_nwe0127"  d="M 0.45000000000000007 -1.7565611447934997e-17 L 0.6 -3.593531343513998e-17 " stroke="#191919" stroke-width="0.35 px" style="stroke-width:0.35;stroke-miterlimit:4;stroke-dasharray:none;fill:none;fill-opacity:1;fill-rule: evenodd"/>
<path id="Shape2DView_nwe0128"  d="M -0.6 1.110223024625e-16 L -0.45 9.2652600475295e-17 " stroke="#191919" stroke-width="0.35 px" style="stroke-width:0.35;stroke-miterlimit:4;stroke-dasharray:none;fill:none;fill-opacity:1;fill-rule: evenodd"/>
<path id="Shape2DView_nwe0129"  d="M -0.44999999999999624 2.7755575615628914e-15 A 0.75 0.75 0 0 0 0.45 3.66374e-15" stroke="#191919" stroke-width="0.35 px" style="stroke-width:0.35;stroke-miterlimit:4;stroke-dasharray:none;fill:none;fill-opacity:1;fill-rule: evenodd"/>
<path id="Shape2DView_nwe0130"  d="M 4.48 -5.551115123126e-16 L 4.63 -5.734812142998049e-16 " stroke="#191919" stroke-width="0.35 px" style="stroke-width:0.35;stroke-miterlimit:4;stroke-dasharray:none;fill:none;fill-opacity:1;fill-rule: evenodd"/>
<path id="Shape2DView_nwe0131"  d="M 5.53 -6.836994262230349e-16 L 5.68 -7.020691282102398e-16 " stroke="#191919" stroke-width="0.35 px" style="stroke-width:0.35;stroke-miterlimit:4;stroke-dasharray:none;fill:none;fill-opacity:1;fill-rule: evenodd"/>
<path id="Shape2DView_nwe0132"  d="M 5.53 1.5000000000000002 A 0.75 0.75 0 0 0 4.63 1.5" stroke="#191919" stroke-width="0.35 px" style="stroke-width:0.35;stroke-miterlimit:4;stroke-dasharray:none;fill:none;fill-opacity:1;fill-rule: evenodd"/>
<path id="Shape2DView_nwe0133"  d="M 4.6300000000000034 2.3314683517128287e-15 A 0.75 0.75 0 0 0 5.53 3.44169e-15" stroke="#191919" stroke-width="0.35 px" style="stroke-width:0.35;stroke-miterlimit:4;stroke-dasharray:none;fill:none;fill-opacity:1;fill-rule: evenodd"/>
<path id="Shape2DView_nwe0134"  d="M 1.94 -2.22044604925e-16 L 2.09 -2.40414306912205e-16 " stroke="#191919" stroke-width="0.35 px" style="stroke-width:0.35;stroke-miterlimit:4;stroke-dasharray:none;fill:none;fill-opacity:1;fill-rule: evenodd"/>
<path id="Shape2DView_nwe0135"  d="M 2.99 -3.50632518835435e-16 L 3.14 -3.6900222082264e-16 " stroke="#191919" stroke-width="0.35 px" style="stroke-width:0.35;stroke-miterlimit:4;stroke-dasharray:none;fill:none;fill-opacity:1;fill-rule: evenodd"/>
<path id="Shape2DView_nwe0136"  d="M 2.99 1.5000000000000002 A 0.75 0.75 0 0 0 2.09 1.5" stroke="#191919" stroke-width="0.35 px" style="stroke-width:0.35;stroke-miterlimit:4;stroke-dasharray:none;fill:none;fill-opacity:1;fill-rule: evenodd"/>
<path id="Shape2DView_nwe0137"  d="M 2.0900000000000034 2.3314683517128287e-15 A 0.75 0.75 0 0 0 2.99 3.66374e-15" stroke="#191919" stroke-width="0.35 px" style="stroke-width:0.35;stroke-miterlimit:4;stroke-dasharray:none;fill:none;fill-opacity:1;fill-rule: evenodd"/>
<path id="Shape2DView_nwe0138"  d="M -7.17 1.5000000000000002 A 0.75 0.75 0 0 0 -8.07 1.5" stroke="#191919" stroke-width="0.35 px" style="stroke-width:0.35;stroke-miterlimit:4;stroke-dasharray:none;fill:none;fill-opacity:1;fill-rule: evenodd"/>
<path id="Shape2DView_nwe0139"  d="M -7.17 8.70612808252165e-16 L -7.02 8.522431062649599e-16 " stroke="#191919" stroke-width="0.35 px" style="stroke-width:0.35;stroke-miterlimit:4;stroke-dasharray:none;fill:none;fill-opacity:1;fill-rule: evenodd"/>
<path id="Shape2DView_nwe0140"  d="M -8.22 9.992007221626e-16 L -8.07 9.80831020175395e-16 " stroke="#191919" stroke-width="0.35 px" style="stroke-width:0.35;stroke-miterlimit:4;stroke-dasharray:none;fill:none;fill-opacity:1;fill-rule: evenodd"/>
<path id="Shape2DView_nwe0141"  d="M -8.069999999999995 3.219646771412954e-15 A 0.75 0.75 0 0 0 -7.17 4.10783e-15" stroke="#191919" stroke-width="0.35 px" style="stroke-width:0.35;stroke-miterlimit:4;stroke-dasharray:none;fill:none;fill-opacity:1;fill-rule: evenodd"/>
<path id="Shape2DView_nwe0142"  d="M 8.07 1.5000000000000002 A 0.75 0.75 0 0 0 7.17 1.5" stroke="#191919" stroke-width="0.35 px" style="stroke-width:0.35;stroke-miterlimit:4;stroke-dasharray:none;fill:none;fill-opacity:1;fill-rule: evenodd"/>
<path id="Shape2DView_nwe0143"  d="M 8.07 -1.0167663336105351e-15 L 8.22 -1.03513603559774e-15 " stroke="#191919" stroke-width="0.35 px" style="stroke-width:0.35;stroke-miterlimit:4;stroke-dasharray:none;fill:none;fill-opacity:1;fill-rule: evenodd"/>
<path id="Shape2DView_nwe0144"  d="M 7.02 -8.881784197001e-16 L 7.17 -9.06548121687305e-16 " stroke="#191919" stroke-width="0.35 px" style="stroke-width:0.35;stroke-miterlimit:4;stroke-dasharray:none;fill:none;fill-opacity:1;fill-rule: evenodd"/>
<path id="Shape2DView_nwe0145"  d="M 7.1700000000000035 2.3314683517128287e-15 A 0.75 0.75 0 0 0 8.07 3.44169e-15" stroke="#191919" stroke-width="0.35 px" style="stroke-width:0.35;stroke-miterlimit:4;stroke-dasharray:none;fill:none;fill-opacity:1;fill-rule: evenodd"/>
<path id="Shape2DView_nwe0146"  d="M -8.17 -2.102420813662 L -7.62 -2.652420813662 " stroke="#191919" stroke-width="0.35 px" style="stroke-width:0.35;stroke-miterlimit:4;stroke-dasharray:none;fill:none;fill-opacity:1;fill-rule: evenodd"/>
<path id="Shape2DView_nwe0147"  d="M -7.62 -2.652420813662 L -7.07 -2.102420813662 " stroke="#191919" stroke-width="0.35 px" style="stroke-width:0.35;stroke-miterlimit:4;stroke-dasharray:none;fill:none;fill-opacity:1;fill-rule: evenodd"/>
<path id="Shape2DView_nwe0148"  d="M -7.07 -2.102420813662 L -7.436666666667 -2.102420813662 " stroke="#191919" stroke-width="0.35 px" style="stroke-width:0.35;stroke-miterlimit:4;stroke-dasharray:none;fill:none;fill-opacity:1;fill-rule: evenodd"/>
<path id="Shape2DView_nwe0149"  d="M -7.436666666667 -2.102420813662 L -7.436666666667 -1.735754146995 " stroke="#191919" stroke-width="0.35 px" style="stroke-width:0.35;stroke-miterlimit:4;stroke-dasharray:none;fill:none;fill-opacity:1;fill-rule: evenodd"/>
<path id="Shape2DView_nwe0150"  d="M -7.436666666667 -1.735754146995 L -7.803333333333 -1.735754146995 " stroke="#191919" stroke-width="0.35 px" style="stroke-width:0.35;stroke-miterlimit:4;stroke-dasharray:none;fill:none;fill-opacity:1;fill-rule: evenodd"/>
<path id="Shape2DView_nwe0151"  d="M -7.803333333333 -1.735754146995 L -7.803333333333 -2.102420813662 " stroke="#191919" stroke-width="0.35 px" style="stroke-width:0.35;stroke-miterlimit:4;stroke-dasharray:none;fill:none;fill-opacity:1;fill-rule: evenodd"/>
<path id="Shape2DView_nwe0152"  d="M -7.803333333333 -2.102420813662 L -8.17 -2.102420813662 " stroke="#191919" stroke-width="0.35 px" style="stroke-width:0.35;stroke-miterlimit:4;stroke-dasharray:none;fill:none;fill-opacity:1;fill-rule: evenodd"/>
<title>b'Shape2DView'</title>
</g>
<g id="Rectangle" transform="translate(9.863400,3.643400) scale(1,-1)">
<rect fill="#ff0000" id="origin" width="1" height="1" x="0" y="0" />
<title>b'Rectangle'</title>
</g>
</svg>