<?xml version="1.0"?>
<!DOCTYPE svg PUBLIC "-//W3C//DTD SVG 1.1//EN" "http://www.w3.org/Graphics/SVG/1.1/DTD/svg11.dtd">
<svg width="5.712000000000001mm" height="9.332mm" viewBox="0 0 5.712000000000001 9.332" xmlns="http://www.w3.org/2000/svg" version="1.1">
<g id="Shape2DView" transform="translate(2.856000,4.666000) scale(1,-1)">
<path id="Shape2DView_nwe0000"  d="M -2.7 -4.61 L 2.7 -4.609999999999993 " stroke="#191919" stroke-width="0.35 px" style="stroke-width:0.35;stroke-miterlimit:4;stroke-dasharray:none;fill:none;fill-opacity:1;fill-rule: evenodd"/>
<path id="Shape2DView_nwe0001"  d="M 2.8000000000000003 -3.3749999999999996 L 2.799446988867948 -3.3749999999999996 L 2.797790673883456 -3.3749999999999996 L 2.7950391969187427 -3.3749999999999996 L 2.7912060832839503 -3.3749999999999996 L 2.786310175241395 -3.3749999999999996 L 2.780375539383512 -3.3749999999999996 L 2.7734313483298045 -3.3749999999999996 L 2.7655117373243243 -3.3749999999999996 L 2.756655636438605 -3.375 L 2.7469065792048806 -3.375 L 2.7363124886202828 -3.375 L 2.7249254415739426 -3.375 L 2.712801412854996 -3.375 L 2.6999999999998603 -3.375 " stroke="#191919" stroke-width="0.35 px" style="stroke-width:0.35;stroke-miterlimit:4;stroke-dasharray:none;fill:none;fill-opacity:1;fill-rule: evenodd"/>
<path id="Shape2DView_nwe0002"  d="M 2.8000000000000003 -2.9749999999999996 L 2.799446988867948 -2.9749999999999996 L 2.797790673883456 -2.9749999999999996 L 2.7950391969187427 -2.9749999999999996 L 2.7912060832839503 -2.9749999999999996 L 2.786310175241395 -2.9749999999999996 L 2.780375539383512 -2.9749999999999996 L 2.7734313483298045 -2.9749999999999996 L 2.7655117373243243 -2.9749999999999996 L 2.756655636438605 -2.975 L 2.7469065792048806 -2.975 L 2.7363124886202828 -2.975 L 2.7249254415739426 -2.975 L 2.712801412854996 -2.975 L 2.6999999999998603 -2.975 " stroke="#191919" stroke-width="0.35 px" style="stroke-width:0.35;stroke-miterlimit:4;stroke-dasharray:none;fill:none;fill-opacity:1;fill-rule: evenodd"/>
<path id="Shape2DView_nwe0003"  d="M 2.8000000000000003 -2.1049999999999995 L 2.799446988867948 -2.1049999999999995 L 2.797790673883456 -2.1049999999999995 L 2.7950391969187427 -2.1049999999999995 L 2.7912060832839503 -2.1049999999999995 L 2.786310175241395 -2.1049999999999995 L 2.780375539383512 -2.1049999999999995 L 2.7734313483298045 -2.1049999999999995 L 2.7655117373243243 -2.1049999999999995 L 2.756655636438605 -2.105 L 2.7469065792048806 -2.105 L 2.7363124886202828 -2.105 L 2.7249254415739426 -2.105 L 2.712801412854996 -2.105 L 2.6999999999998603 -2.105 " stroke="#191919" stroke-width="0.35 px" style="stroke-width:0.35;stroke-miterlimit:4;stroke-dasharray:none;fill:none;fill-opacity:1;fill-rule: evenodd"/>
<path id="Shape2DView_nwe0004"  d="M 2.8000000000000003 -1.7049999999999998 L 2.799446988867948 -1.7049999999999998 L 2.797790673883456 -1.7049999999999998 L 2.7950391969187427 -1.7049999999999998 L 2.7912060832839503 -1.7049999999999998 L 2.786310175241395 -1.7049999999999998 L 2.780375539383512 -1.7049999999999998 L 2.7734313483298045 -1.7049999999999998 L 2.7655117373243243 -1.7049999999999998 L 2.756655636438605 -1.7049999999999998 L 2.7469065792048806 -1.7049999999999998 L 2.7363124886202828 -1.7049999999999998 L 2.7249254415739426 -1.7049999999999998 L 2.712801412854996 -1.7049999999999998 L 2.6999999999998603 -1.7049999999999998 " stroke="#191919" stroke-width="0.35 px" style="stroke-width:0.35;stroke-miterlimit:4;stroke-dasharray:none;fill:none;fill-opacity:1;fill-rule: evenodd"/>
<path id="Shape2DView_nwe0005"  d="M 2.8000000000000003 -0.8349999999999997 L 2.799446988867948 -0.8349999999999997 L 2.797790673883456 -0.8349999999999997 L 2.7950391969187427 -0.8349999999999997 L 2.7912060832839503 -0.8349999999999997 L 2.786310175241395 -0.8349999999999997 L 2.780375539383512 -0.8349999999999997 L 2.7734313483298045 -0.8349999999999997 L 2.7655117373243243 -0.8349999999999997 L 2.756655636438605 -0.8349999999999997 L 2.7469065792048806 -0.8349999999999997 L 2.7363124886202828 -0.8349999999999997 L 2.7249254415739426 -0.8349999999999997 L 2.712801412854996 -0.8349999999999997 L 2.6999999999998603 -0.8349999999999999 " stroke="#191919" stroke-width="0.35 px" style="stroke-width:0.35;stroke-miterlimit:4;stroke-dasharray:none;fill:none;fill-opacity:1;fill-rule: evenodd"/>
<path id="Shape2DView_nwe0006"  d="M 2.8000000000000003 -0.4349999999999997 L 2.799446988867948 -0.4349999999999997 L 2.797790673883456 -0.4349999999999997 L 2.7950391969187427 -0.4349999999999997 L 2.7912060832839503 -0.4349999999999997 L 2.786310175241395 -0.4349999999999997 L 2.780375539383512 -0.4349999999999998 L 2.7734313483298045 -0.4349999999999998 L 2.7655117373243243 -0.4349999999999998 L 2.756655636438605 -0.4349999999999998 L 2.7469065792048806 -0.4349999999999998 L 2.7363124886202828 -0.4349999999999998 L 2.7249254415739426 -0.43499999999999983 L 2.712801412854996 -0.43499999999999983 L 2.6999999999998603 -0.43499999999999983 " stroke="#191919" stroke-width="0.35 px" style="stroke-width:0.35;stroke-miterlimit:4;stroke-dasharray:none;fill:none;fill-opacity:1;fill-rule: evenodd"/>
<path id="Shape2DView_nwe0007"  d="M 2.8000000000000003 0.4350000000000003 L 2.799446988867948 0.4350000000000003 L 2.797790673883456 0.4350000000000003 L 2.7950391969187427 0.4350000000000003 L 2.7912060832839503 0.4350000000000003 L 2.786310175241395 0.4350000000000003 L 2.780375539383512 0.4350000000000002 L 2.7734313483298045 0.4350000000000002 L 2.7655117373243243 0.4350000000000002 L 2.756655636438605 0.4350000000000002 L 2.7469065792048806 0.4350000000000002 L 2.7363124886202828 0.4350000000000002 L 2.7249254415739426 0.43500000000000016 L 2.712801412854996 0.43500000000000016 L 2.6999999999998603 0.43500000000000016 " stroke="#191919" stroke-width="0.35 px" style="stroke-width:0.35;stroke-miterlimit:4;stroke-dasharray:none;fill:none;fill-opacity:1;fill-rule: evenodd"/>
<path id="Shape2DView_nwe0008"  d="M 2.8000000000000003 0.8350000000000002 L 2.799446988867948 0.8350000000000002 L 2.797790673883456 0.8350000000000002 L 2.7950391969187427 0.8350000000000002 L 2.7912060832839503 0.8350000000000002 L 2.786310175241395 0.8350000000000002 L 2.780375539383512 0.8350000000000002 L 2.7734313483298045 0.8350000000000002 L 2.7655117373243243 0.8350000000000002 L 2.756655636438605 0.8350000000000002 L 2.7469065792048806 0.8350000000000002 L 2.7363124886202828 0.8350000000000002 L 2.7249254415739426 0.8350000000000002 L 2.712801412854996 0.8350000000000002 L 2.6999999999998603 0.8350000000000001 " stroke="#191919" stroke-width="0.35 px" style="stroke-width:0.35;stroke-miterlimit:4;stroke-dasharray:none;fill:none;fill-opacity:1;fill-rule: evenodd"/>
<path id="Shape2DView_nwe0009"  d="M 2.8000000000000003 1.7050000000000003 L 2.799446988867948 1.7050000000000003 L 2.797790673883456 1.7050000000000003 L 2.7950391969187427 1.7050000000000003 L 2.7912060832839503 1.7050000000000003 L 2.786310175241395 1.7050000000000003 L 2.780375539383512 1.7050000000000003 L 2.7734313483298045 1.7050000000000003 L 2.7655117373243243 1.7050000000000003 L 2.756655636438605 1.7050000000000003 L 2.7469065792048806 1.7050000000000003 L 2.7363124886202828 1.7050000000000003 L 2.7249254415739426 1.7050000000000003 L 2.712801412854996 1.7050000000000003 L 2.6999999999998603 1.7050000000000003 " stroke="#191919" stroke-width="0.35 px" style="stroke-width:0.35;stroke-miterlimit:4;stroke-dasharray:none;fill:none;fill-opacity:1;fill-rule: evenodd"/>
<path id="Shape2DView_nwe0010"  d="M 2.8000000000000003 2.1050000000000004 L 2.799446988867948 2.1050000000000004 L 2.797790673883456 2.1050000000000004 L 2.7950391969187427 2.1050000000000004 L 2.7912060832839503 2.1050000000000004 L 2.786310175241395 2.1050000000000004 L 2.780375539383512 2.1050000000000004 L 2.7734313483298045 2.1050000000000004 L 2.7655117373243243 2.1050000000000004 L 2.756655636438605 2.105 L 2.7469065792048806 2.105 L 2.7363124886202828 2.105 L 2.7249254415739426 2.105 L 2.712801412854996 2.105 L 2.6999999999998603 2.105 " stroke="#191919" stroke-width="0.35 px" style="stroke-width:0.35;stroke-miterlimit:4;stroke-dasharray:none;fill:none;fill-opacity:1;fill-rule: evenodd"/>
<path id="Shape2DView_nwe0011"  d="M 2.8000000000000003 2.9750000000000005 L 2.799446988867948 2.9750000000000005 L 2.797790673883456 2.9750000000000005 L 2.7950391969187427 2.9750000000000005 L 2.7912060832839503 2.9750000000000005 L 2.786310175241395 2.9750000000000005 L 2.780375539383512 2.9750000000000005 L 2.7734313483298045 2.9750000000000005 L 2.7655117373243243 2.9750000000000005 L 2.756655636438605 2.975 L 2.7469065792048806 2.975 L 2.7363124886202828 2.975 L 2.7249254415739426 2.975 L 2.712801412854996 2.975 L 2.6999999999998603 2.975 " stroke="#191919" stroke-width="0.35 px" style="stroke-width:0.35;stroke-miterlimit:4;stroke-dasharray:none;fill:none;fill-opacity:1;fill-rule: evenodd"/>
<path id="Shape2DView_nwe0012"  d="M 2.8000000000000003 3.3750000000000004 L 2.799446988867948 3.3750000000000004 L 2.797790673883456 3.3750000000000004 L 2.7950391969187427 3.3750000000000004 L 2.7912060832839503 3.3750000000000004 L 2.786310175241395 3.3750000000000004 L 2.780375539383512 3.3750000000000004 L 2.7734313483298045 3.3750000000000004 L 2.7655117373243243 3.3750000000000004 L 2.756655636438605 3.375 L 2.7469065792048806 3.375 L 2.7363124886202828 3.375 L 2.7249254415739426 3.375 L 2.712801412854996 3.375 L 2.6999999999998603 3.375 " stroke="#191919" stroke-width="0.35 px" style="stroke-width:0.35;stroke-miterlimit:4;stroke-dasharray:none;fill:none;fill-opacity:1;fill-rule: evenodd"/>
<path id="Shape2DView_nwe0013"  d="M -2.8000000000000003 3.3749999999999996 L -2.799446988867948 3.3749999999999996 L -2.797790673883456 3.3749999999999996 L -2.7950391969187427 3.3749999999999996 L -2.7912060832839503 3.3749999999999996 L -2.786310175241395 3.3749999999999996 L -2.780375539383512 3.3749999999999996 L -2.7734313483298045 3.3749999999999996 L -2.7655117373243243 3.3749999999999996 L -2.756655636438605 3.3749999999999996 L -2.7469065792048806 3.3749999999999996 L -2.7363124886202828 3.375 L -2.7249254415739426 3.375 L -2.712801412854996 3.375 L -2.6999999999998603 3.375 " stroke="#191919" stroke-width="0.35 px" style="stroke-width:0.35;stroke-miterlimit:4;stroke-dasharray:none;fill:none;fill-opacity:1;fill-rule: evenodd"/>
<path id="Shape2DView_nwe0014"  d="M -2.8000000000000003 2.9749999999999996 L -2.799446988867948 2.9749999999999996 L -2.797790673883456 2.9749999999999996 L -2.7950391969187427 2.9749999999999996 L -2.7912060832839503 2.9749999999999996 L -2.786310175241395 2.9749999999999996 L -2.780375539383512 2.9749999999999996 L -2.7734313483298045 2.9749999999999996 L -2.7655117373243243 2.9749999999999996 L -2.756655636438605 2.9749999999999996 L -2.7469065792048806 2.9749999999999996 L -2.7363124886202828 2.975 L -2.7249254415739426 2.975 L -2.712801412854996 2.975 L -2.6999999999998603 2.975 " stroke="#191919" stroke-width="0.35 px" style="stroke-width:0.35;stroke-miterlimit:4;stroke-dasharray:none;fill:none;fill-opacity:1;fill-rule: evenodd"/>
<path id="Shape2DView_nwe0015"  d="M -2.8000000000000003 2.1049999999999995 L -2.799446988867948 2.1049999999999995 L -2.797790673883456 2.1049999999999995 L -2.7950391969187427 2.1049999999999995 L -2.7912060832839503 2.1049999999999995 L -2.786310175241395 2.1049999999999995 L -2.780375539383512 2.1049999999999995 L -2.7734313483298045 2.1049999999999995 L -2.7655117373243243 2.1049999999999995 L -2.756655636438605 2.1049999999999995 L -2.7469065792048806 2.1049999999999995 L -2.7363124886202828 2.105 L -2.7249254415739426 2.105 L -2.712801412854996 2.105 L -2.6999999999998603 2.105 " stroke="#191919" stroke-width="0.35 px" style="stroke-width:0.35;stroke-miterlimit:4;stroke-dasharray:none;fill:none;fill-opacity:1;fill-rule: evenodd"/>
<path id="Shape2DView_nwe0016"  d="M -2.8000000000000003 1.7049999999999998 L -2.799446988867948 1.7049999999999998 L -2.797790673883456 1.7049999999999998 L -2.7950391969187427 1.7049999999999998 L -2.7912060832839503 1.7049999999999998 L -2.786310175241395 1.7049999999999998 L -2.780375539383512 1.7049999999999998 L -2.7734313483298045 1.7049999999999998 L -2.7655117373243243 1.7049999999999998 L -2.756655636438605 1.7049999999999998 L -2.7469065792048806 1.7049999999999998 L -2.7363124886202828 1.7049999999999998 L -2.7249254415739426 1.7049999999999998 L -2.712801412854996 1.7049999999999998 L -2.6999999999998603 1.7049999999999998 " stroke="#191919" stroke-width="0.35 px" style="stroke-width:0.35;stroke-miterlimit:4;stroke-dasharray:none;fill:none;fill-opacity:1;fill-rule: evenodd"/>
<path id="Shape2DView_nwe0017"  d="M -2.8000000000000003 0.8349999999999996 L -2.799446988867948 0.8349999999999996 L -2.797790673883456 0.8349999999999996 L -2.7950391969187427 0.8349999999999996 L -2.7912060832839503 0.8349999999999996 L -2.786310175241395 0.8349999999999996 L -2.780375539383512 0.8349999999999997 L -2.7734313483298045 0.8349999999999997 L -2.7655117373243243 0.8349999999999997 L -2.756655636438605 0.8349999999999997 L -2.7469065792048806 0.8349999999999997 L -2.7363124886202828 0.8349999999999997 L -2.7249254415739426 0.8349999999999997 L -2.712801412854996 0.8349999999999997 L -2.6999999999998603 0.8349999999999999 " stroke="#191919" stroke-width="0.35 px" style="stroke-width:0.35;stroke-miterlimit:4;stroke-dasharray:none;fill:none;fill-opacity:1;fill-rule: evenodd"/>
<path id="Shape2DView_nwe0018"  d="M -2.8000000000000003 0.4349999999999997 L -2.799446988867948 0.4349999999999997 L -2.797790673883456 0.4349999999999997 L -2.7950391969187427 0.4349999999999997 L -2.7912060832839503 0.4349999999999997 L -2.786310175241395 0.4349999999999997 L -2.780375539383512 0.4349999999999997 L -2.7734313483298045 0.4349999999999997 L -2.7655117373243243 0.4349999999999997 L -2.756655636438605 0.4349999999999998 L -2.7469065792048806 0.4349999999999998 L -2.7363124886202828 0.4349999999999998 L -2.7249254415739426 0.4349999999999998 L -2.712801412854996 0.43499999999999983 L -2.6999999999998603 0.43499999999999983 " stroke="#191919" stroke-width="0.35 px" style="stroke-width:0.35;stroke-miterlimit:4;stroke-dasharray:none;fill:none;fill-opacity:1;fill-rule: evenodd"/>
<path id="Shape2DView_nwe0019"  d="M -2.8000000000000003 -0.4350000000000003 L -2.799446988867948 -0.4350000000000003 L -2.797790673883456 -0.4350000000000003 L -2.7950391969187427 -0.4350000000000003 L -2.7912060832839503 -0.4350000000000003 L -2.786310175241395 -0.4350000000000003 L -2.780375539383512 -0.4350000000000003 L -2.7734313483298045 -0.4350000000000003 L -2.7655117373243243 -0.4350000000000003 L -2.756655636438605 -0.4350000000000002 L -2.7469065792048806 -0.4350000000000002 L -2.7363124886202828 -0.4350000000000002 L -2.7249254415739426 -0.4350000000000002 L -2.712801412854996 -0.43500000000000016 L -2.6999999999998603 -0.43500000000000016 " stroke="#191919" stroke-width="0.35 px" style="stroke-width:0.35;stroke-miterlimit:4;stroke-dasharray:none;fill:none;fill-opacity:1;fill-rule: evenodd"/>
<path id="Shape2DView_nwe0020"  d="M -2.8000000000000003 -0.8350000000000003 L -2.799446988867948 -0.8350000000000003 L -2.797790673883456 -0.8350000000000003 L -2.7950391969187427 -0.8350000000000003 L -2.7912060832839503 -0.8350000000000003 L -2.786310175241395 -0.8350000000000003 L -2.780375539383512 -0.8350000000000002 L -2.7734313483298045 -0.8350000000000002 L -2.7655117373243243 -0.8350000000000002 L -2.756655636438605 -0.8350000000000002 L -2.7469065792048806 -0.8350000000000002 L -2.7363124886202828 -0.8350000000000002 L -2.7249254415739426 -0.8350000000000002 L -2.712801412854996 -0.8350000000000002 L -2.6999999999998603 -0.8350000000000001 " stroke="#191919" stroke-width="0.35 px" style="stroke-width:0.35;stroke-miterlimit:4;stroke-dasharray:none;fill:none;fill-opacity:1;fill-rule: evenodd"/>
<path id="Shape2DView_nwe0021"  d="M -2.8000000000000003 -1.7050000000000003 L -2.799446988867948 -1.7050000000000003 L -2.797790673883456 -1.7050000000000003 L -2.7950391969187427 -1.7050000000000003 L -2.7912060832839503 -1.7050000000000003 L -2.786310175241395 -1.7050000000000003 L -2.780375539383512 -1.7050000000000003 L -2.7734313483298045 -1.7050000000000003 L -2.7655117373243243 -1.7050000000000003 L -2.756655636438605 -1.7050000000000003 L -2.7469065792048806 -1.7050000000000003 L -2.7363124886202828 -1.7050000000000003 L -2.7249254415739426 -1.7050000000000003 L -2.712801412854996 -1.7050000000000003 L -2.6999999999998603 -1.7050000000000003 " stroke="#191919" stroke-width="0.35 px" style="stroke-width:0.35;stroke-miterlimit:4;stroke-dasharray:none;fill:none;fill-opacity:1;fill-rule: evenodd"/>
<path id="Shape2DView_nwe0022"  d="M -2.8000000000000003 -2.1050000000000004 L -2.799446988867948 -2.1050000000000004 L -2.797790673883456 -2.1050000000000004 L -2.7950391969187427 -2.1050000000000004 L -2.7912060832839503 -2.1050000000000004 L -2.786310175241395 -2.1050000000000004 L -2.780375539383512 -2.1050000000000004 L -2.7734313483298045 -2.1050000000000004 L -2.7655117373243243 -2.1050000000000004 L -2.756655636438605 -2.1050000000000004 L -2.7469065792048806 -2.1050000000000004 L -2.7363124886202828 -2.105 L -2.7249254415739426 -2.105 L -2.712801412854996 -2.105 L -2.6999999999998603 -2.105 " stroke="#191919" stroke-width="0.35 px" style="stroke-width:0.35;stroke-miterlimit:4;stroke-dasharray:none;fill:none;fill-opacity:1;fill-rule: evenodd"/>
<path id="Shape2DView_nwe0023"  d="M -2.8000000000000003 -2.9750000000000005 L -2.799446988867948 -2.9750000000000005 L -2.797790673883456 -2.9750000000000005 L -2.7950391969187427 -2.9750000000000005 L -2.7912060832839503 -2.9750000000000005 L -2.786310175241395 -2.9750000000000005 L -2.780375539383512 -2.9750000000000005 L -2.7734313483298045 -2.9750000000000005 L -2.7655117373243243 -2.9750000000000005 L -2.756655636438605 -2.9750000000000005 L -2.7469065792048806 -2.9750000000000005 L -2.7363124886202828 -2.975 L -2.7249254415739426 -2.975 L -2.712801412854996 -2.975 L -2.6999999999998603 -2.975 " stroke="#191919" stroke-width="0.35 px" style="stroke-width:0.35;stroke-miterlimit:4;stroke-dasharray:none;fill:none;fill-opacity:1;fill-rule: evenodd"/>
<path id="Shape2DView_nwe0024"  d="M -2.8000000000000003 -3.3750000000000004 L -2.799446988867948 -3.3750000000000004 L -2.797790673883456 -3.3750000000000004 L -2.7950391969187427 -3.3750000000000004 L -2.7912060832839503 -3.3750000000000004 L -2.786310175241395 -3.3750000000000004 L -2.780375539383512 -3.3750000000000004 L -2.7734313483298045 -3.3750000000000004 L -2.7655117373243243 -3.3750000000000004 L -2.756655636438605 -3.3750000000000004 L -2.7469065792048806 -3.3750000000000004 L -2.7363124886202828 -3.375 L -2.7249254415739426 -3.375 L -2.712801412854996 -3.375 L -2.6999999999998603 -3.375 " stroke="#191919" stroke-width="0.35 px" style="stroke-width:0.35;stroke-miterlimit:4;stroke-dasharray:none;fill:none;fill-opacity:1;fill-rule: evenodd"/>
<path id="Shape2DView_nwe0025"  d="M 2.7 -4.61 L 2.6999999999999877 4.61 " stroke="#191919" stroke-width="0.35 px" style="stroke-width:0.35;stroke-miterlimit:4;stroke-dasharray:none;fill:none;fill-opacity:1;fill-rule: evenodd"/>
<path id="Shape2DView_nwe0026"  d="M 2.7 -4.61 L 2.625 -4.535 " stroke="#191919" stroke-width="0.35 px" style="stroke-width:0.35;stroke-miterlimit:4;stroke-dasharray:none;fill:none;fill-opacity:1;fill-rule: evenodd"/>
<path id="Shape2DView_nwe0027"  d="M -2.625 -4.535 L 2.625 -4.534999999999993 " stroke="#191919" stroke-width="0.35 px" style="stroke-width:0.35;stroke-miterlimit:4;stroke-dasharray:none;fill:none;fill-opacity:1;fill-rule: evenodd"/>
<path id="Shape2DView_nwe0028"  d="M -2.7 -4.61 L -2.625 -4.535 " stroke="#191919" stroke-width="0.35 px" style="stroke-width:0.35;stroke-miterlimit:4;stroke-dasharray:none;fill:none;fill-opacity:1;fill-rule: evenodd"/>
<path id="Shape2DView_nwe0029"  d="M -2.7 4.61 L -2.6999999999999877 -4.61 " stroke="#191919" stroke-width="0.35 px" style="stroke-width:0.35;stroke-miterlimit:4;stroke-dasharray:none;fill:none;fill-opacity:1;fill-rule: evenodd"/>
<path id="Shape2DView_nwe0030"  d="M 2.8 -2.975 L 2.8000000000000003 -3.375 " stroke="#191919" stroke-width="0.35 px" style="stroke-width:0.35;stroke-miterlimit:4;stroke-dasharray:none;fill:none;fill-opacity:1;fill-rule: evenodd"/>
<path id="Shape2DView_nwe0031"  d="M 2.8 -1.705 L 2.8000000000000003 -2.105 " stroke="#191919" stroke-width="0.35 px" style="stroke-width:0.35;stroke-miterlimit:4;stroke-dasharray:none;fill:none;fill-opacity:1;fill-rule: evenodd"/>
<path id="Shape2DView_nwe0033"  d="M 2.8 -0.435 L 2.8000000000000003 -0.835 " stroke="#191919" stroke-width="0.35 px" style="stroke-width:0.35;stroke-miterlimit:4;stroke-dasharray:none;fill:none;fill-opacity:1;fill-rule: evenodd"/>
<path id="Shape2DView_nwe0034"  d="M 2.8 0.835 L 2.8000000000000003 0.435 " stroke="#191919" stroke-width="0.35 px" style="stroke-width:0.35;stroke-miterlimit:4;stroke-dasharray:none;fill:none;fill-opacity:1;fill-rule: evenodd"/>
<path id="Shape2DView_nwe0036"  d="M 2.8 2.105 L 2.8000000000000003 1.705 " stroke="#191919" stroke-width="0.35 px" style="stroke-width:0.35;stroke-miterlimit:4;stroke-dasharray:none;fill:none;fill-opacity:1;fill-rule: evenodd"/>
<path id="Shape2DView_nwe0037"  d="M 2.8 3.375 L 2.8000000000000003 2.975 " stroke="#191919" stroke-width="0.35 px" style="stroke-width:0.35;stroke-miterlimit:4;stroke-dasharray:none;fill:none;fill-opacity:1;fill-rule: evenodd"/>
<path id="Shape2DView_nwe0039"  d="M 2.7 4.61 L -2.7 4.609999999999993 " stroke="#191919" stroke-width="0.35 px" style="stroke-width:0.35;stroke-miterlimit:4;stroke-dasharray:none;fill:none;fill-opacity:1;fill-rule: evenodd"/>
<path id="Shape2DView_nwe0040"  d="M -2.8 2.975 L -2.8000000000000003 3.375 " stroke="#191919" stroke-width="0.35 px" style="stroke-width:0.35;stroke-miterlimit:4;stroke-dasharray:none;fill:none;fill-opacity:1;fill-rule: evenodd"/>
<path id="Shape2DView_nwe0041"  d="M -2.8 1.705 L -2.8000000000000003 2.105 " stroke="#191919" stroke-width="0.35 px" style="stroke-width:0.35;stroke-miterlimit:4;stroke-dasharray:none;fill:none;fill-opacity:1;fill-rule: evenodd"/>
<path id="Shape2DView_nwe0042"  d="M -2.8 0.435 L -2.8000000000000003 0.835 " stroke="#191919" stroke-width="0.35 px" style="stroke-width:0.35;stroke-miterlimit:4;stroke-dasharray:none;fill:none;fill-opacity:1;fill-rule: evenodd"/>
<path id="Shape2DView_nwe0043"  d="M -2.8 -0.835 L -2.8000000000000003 -0.435 " stroke="#191919" stroke-width="0.35 px" style="stroke-width:0.35;stroke-miterlimit:4;stroke-dasharray:none;fill:none;fill-opacity:1;fill-rule: evenodd"/>
<path id="Shape2DView_nwe0044"  d="M -2.8 -2.105 L -2.8000000000000003 -1.705 " stroke="#191919" stroke-width="0.35 px" style="stroke-width:0.35;stroke-miterlimit:4;stroke-dasharray:none;fill:none;fill-opacity:1;fill-rule: evenodd"/>
<path id="Shape2DView_nwe0046"  d="M -2.8 -3.375 L -2.8000000000000003 -2.975 " stroke="#191919" stroke-width="0.35 px" style="stroke-width:0.35;stroke-miterlimit:4;stroke-dasharray:none;fill:none;fill-opacity:1;fill-rule: evenodd"/>
<path id="Shape2DView_nwe0047"  d="M 2.7 4.61 L 2.625 4.535 " stroke="#191919" stroke-width="0.35 px" style="stroke-width:0.35;stroke-miterlimit:4;stroke-dasharray:none;fill:none;fill-opacity:1;fill-rule: evenodd"/>
<path id="Shape2DView_nwe0048"  d="M 2.625 -4.535 L 2.624999999999988 4.535 " stroke="#191919" stroke-width="0.35 px" style="stroke-width:0.35;stroke-miterlimit:4;stroke-dasharray:none;fill:none;fill-opacity:1;fill-rule: evenodd"/>
<path id="Shape2DView_nwe0049"  d="M 2.625 -4.535 L 2.396501696205 -4.306501696205 " stroke="#191919" stroke-width="0.35 px" style="stroke-width:0.35;stroke-miterlimit:4;stroke-dasharray:none;fill:none;fill-opacity:1;fill-rule: evenodd"/>
<path id="Shape2DView_nwe0050"  d="M -2.396501696205 -4.306501696205 L 2.396501696205 -4.306501696204994 " stroke="#191919" stroke-width="0.35 px" style="stroke-width:0.35;stroke-miterlimit:4;stroke-dasharray:none;fill:none;fill-opacity:1;fill-rule: evenodd"/>
<path id="Shape2DView_nwe0051"  d="M -2.625 -4.535 L -2.396501696205 -4.306501696205 " stroke="#191919" stroke-width="0.35 px" style="stroke-width:0.35;stroke-miterlimit:4;stroke-dasharray:none;fill:none;fill-opacity:1;fill-rule: evenodd"/>
<path id="Shape2DView_nwe0052"  d="M -2.625 4.535 L -2.624999999999988 -4.535 " stroke="#191919" stroke-width="0.35 px" style="stroke-width:0.35;stroke-miterlimit:4;stroke-dasharray:none;fill:none;fill-opacity:1;fill-rule: evenodd"/>
<path id="Shape2DView_nwe0053"  d="M -2.7 4.61 L -2.625 4.535 " stroke="#191919" stroke-width="0.35 px" style="stroke-width:0.35;stroke-miterlimit:4;stroke-dasharray:none;fill:none;fill-opacity:1;fill-rule: evenodd"/>
<path id="Shape2DView_nwe0054"  d="M 2.625 4.535 L -2.625 4.534999999999993 " stroke="#191919" stroke-width="0.35 px" style="stroke-width:0.35;stroke-miterlimit:4;stroke-dasharray:none;fill:none;fill-opacity:1;fill-rule: evenodd"/>
<path id="Shape2DView_nwe0055"  d="M 2.625 4.535 L 2.396501696205 4.306501696205 " stroke="#191919" stroke-width="0.35 px" style="stroke-width:0.35;stroke-miterlimit:4;stroke-dasharray:none;fill:none;fill-opacity:1;fill-rule: evenodd"/>
<path id="Shape2DView_nwe0056"  d="M 2.396501696205 -4.306501696205 L 2.3965016962049885 4.306501696205 " stroke="#191919" stroke-width="0.35 px" style="stroke-width:0.35;stroke-miterlimit:4;stroke-dasharray:none;fill:none;fill-opacity:1;fill-rule: evenodd"/>
<path id="Shape2DView_nwe0057"  d="M -2.396501696205 4.306501696205 L -2.3965016962049885 -4.306501696205 " stroke="#191919" stroke-width="0.35 px" style="stroke-width:0.35;stroke-miterlimit:4;stroke-dasharray:none;fill:none;fill-opacity:1;fill-rule: evenodd"/>
<path id="Shape2DView_nwe0058"  d="M 2.396501696205 4.306501696205 L -2.396501696205 4.306501696204994 " stroke="#191919" stroke-width="0.35 px" style="stroke-width:0.35;stroke-miterlimit:4;stroke-dasharray:none;fill:none;fill-opacity:1;fill-rule: evenodd"/>
<path id="Shape2DView_nwe0059"  d="M -1.125 -1.555 L -1.1249999999999991 -2.255 " stroke="#191919" stroke-width="0.35 px" style="stroke-width:0.35;stroke-miterlimit:4;stroke-dasharray:none;fill:none;fill-opacity:1;fill-rule: evenodd"/>
<path id="Shape2DView_nwe0060"  d="M -1.125 -2.255 L 1.125 -2.254999999999997 " stroke="#191919" stroke-width="0.35 px" style="stroke-width:0.35;stroke-miterlimit:4;stroke-dasharray:none;fill:none;fill-opacity:1;fill-rule: evenodd"/>
<path id="Shape2DView_nwe0061"  d="M 1.125 -2.255 L 1.1249999999999991 -1.555 " stroke="#191919" stroke-width="0.35 px" style="stroke-width:0.35;stroke-miterlimit:4;stroke-dasharray:none;fill:none;fill-opacity:1;fill-rule: evenodd"/>
<path id="Shape2DView_nwe0062"  d="M 1.125 -1.555 L -1.125 -1.5550000000000028 " stroke="#191919" stroke-width="0.35 px" style="stroke-width:0.35;stroke-miterlimit:4;stroke-dasharray:none;fill:none;fill-opacity:1;fill-rule: evenodd"/>
<path id="Shape2DView_nwe0063"  d="M 1.125 -0.985 L 1.1249999999999991 -0.28500000000000003 " stroke="#191919" stroke-width="0.35 px" style="stroke-width:0.35;stroke-miterlimit:4;stroke-dasharray:none;fill:none;fill-opacity:1;fill-rule: evenodd"/>
<path id="Shape2DView_nwe0064"  d="M 1.125 -0.285 L -1.125 -0.285000000000003 " stroke="#191919" stroke-width="0.35 px" style="stroke-width:0.35;stroke-miterlimit:4;stroke-dasharray:none;fill:none;fill-opacity:1;fill-rule: evenodd"/>
<path id="Shape2DView_nwe0065"  d="M -1.125 -0.285 L -1.1249999999999991 -0.9849999999999999 " stroke="#191919" stroke-width="0.35 px" style="stroke-width:0.35;stroke-miterlimit:4;stroke-dasharray:none;fill:none;fill-opacity:1;fill-rule: evenodd"/>
<path id="Shape2DView_nwe0066"  d="M -1.125 -0.985 L 1.125 -0.984999999999997 " stroke="#191919" stroke-width="0.35 px" style="stroke-width:0.35;stroke-miterlimit:4;stroke-dasharray:none;fill:none;fill-opacity:1;fill-rule: evenodd"/>
<path id="Shape2DView_nwe0067"  d="M -1.125 -3.525 L 1.125 -3.524999999999997 " stroke="#191919" stroke-width="0.35 px" style="stroke-width:0.35;stroke-miterlimit:4;stroke-dasharray:none;fill:none;fill-opacity:1;fill-rule: evenodd"/>
<path id="Shape2DView_nwe0068"  d="M 1.125 -3.525 L 1.1249999999999991 -2.825 " stroke="#191919" stroke-width="0.35 px" style="stroke-width:0.35;stroke-miterlimit:4;stroke-dasharray:none;fill:none;fill-opacity:1;fill-rule: evenodd"/>
<path id="Shape2DView_nwe0069"  d="M 1.125 -2.825 L -1.125 -2.8250000000000033 " stroke="#191919" stroke-width="0.35 px" style="stroke-width:0.35;stroke-miterlimit:4;stroke-dasharray:none;fill:none;fill-opacity:1;fill-rule: evenodd"/>
<path id="Shape2DView_nwe0070"  d="M -1.125 -2.825 L -1.1249999999999991 -3.525 " stroke="#191919" stroke-width="0.35 px" style="stroke-width:0.35;stroke-miterlimit:4;stroke-dasharray:none;fill:none;fill-opacity:1;fill-rule: evenodd"/>
<path id="Shape2DView_nwe0071"  d="M 1.125 1.555 L 1.1249999999999991 2.255 " stroke="#191919" stroke-width="0.35 px" style="stroke-width:0.35;stroke-miterlimit:4;stroke-dasharray:none;fill:none;fill-opacity:1;fill-rule: evenodd"/>
<path id="Shape2DView_nwe0072"  d="M 1.125 2.255 L -1.125 2.254999999999997 " stroke="#191919" stroke-width="0.35 px" style="stroke-width:0.35;stroke-miterlimit:4;stroke-dasharray:none;fill:none;fill-opacity:1;fill-rule: evenodd"/>
<path id="Shape2DView_nwe0073"  d="M -1.125 2.255 L -1.1249999999999991 1.555 " stroke="#191919" stroke-width="0.35 px" style="stroke-width:0.35;stroke-miterlimit:4;stroke-dasharray:none;fill:none;fill-opacity:1;fill-rule: evenodd"/>
<path id="Shape2DView_nwe0074"  d="M -1.125 1.555 L 1.125 1.5550000000000028 " stroke="#191919" stroke-width="0.35 px" style="stroke-width:0.35;stroke-miterlimit:4;stroke-dasharray:none;fill:none;fill-opacity:1;fill-rule: evenodd"/>
<path id="Shape2DView_nwe0075"  d="M 1.125 0.285 L 1.1249999999999991 0.9849999999999999 " stroke="#191919" stroke-width="0.35 px" style="stroke-width:0.35;stroke-miterlimit:4;stroke-dasharray:none;fill:none;fill-opacity:1;fill-rule: evenodd"/>
<path id="Shape2DView_nwe0076"  d="M 1.125 0.985 L -1.125 0.984999999999997 " stroke="#191919" stroke-width="0.35 px" style="stroke-width:0.35;stroke-miterlimit:4;stroke-dasharray:none;fill:none;fill-opacity:1;fill-rule: evenodd"/>
<path id="Shape2DView_nwe0077"  d="M -1.125 0.985 L -1.1249999999999991 0.28500000000000003 " stroke="#191919" stroke-width="0.35 px" style="stroke-width:0.35;stroke-miterlimit:4;stroke-dasharray:none;fill:none;fill-opacity:1;fill-rule: evenodd"/>
<path id="Shape2DView_nwe0078"  d="M -1.125 0.285 L 1.125 0.285000000000003 " stroke="#191919" stroke-width="0.35 px" style="stroke-width:0.35;stroke-miterlimit:4;stroke-dasharray:none;fill:none;fill-opacity:1;fill-rule: evenodd"/>
<path id="Shape2DView_nwe0079"  d="M -1.125 3.525 L -1.1249999999999991 2.825 " stroke="#191919" stroke-width="0.35 px" style="stroke-width:0.35;stroke-miterlimit:4;stroke-dasharray:none;fill:none;fill-opacity:1;fill-rule: evenodd"/>
<path id="Shape2DView_nwe0080"  d="M -1.125 2.825 L 1.125 2.8250000000000033 " stroke="#191919" stroke-width="0.35 px" style="stroke-width:0.35;stroke-miterlimit:4;stroke-dasharray:none;fill:none;fill-opacity:1;fill-rule: evenodd"/>
<path id="Shape2DView_nwe0081"  d="M 1.125 2.825 L 1.1249999999999991 3.525 " stroke="#191919" stroke-width="0.35 px" style="stroke-width:0.35;stroke-miterlimit:4;stroke-dasharray:none;fill:none;fill-opacity:1;fill-rule: evenodd"/>
<path id="Shape2DView_nwe0082"  d="M 1.125 3.525 L -1.125 3.524999999999997 " stroke="#191919" stroke-width="0.35 px" style="stroke-width:0.35;stroke-miterlimit:4;stroke-dasharray:none;fill:none;fill-opacity:1;fill-rule: evenodd"/>
<path id="Shape2DView_nwe0083"  d="M -2.625 4.535 L -2.396501696205 4.306501696205 " stroke="#191919" stroke-width="0.35 px" style="stroke-width:0.35;stroke-miterlimit:4;stroke-dasharray:none;fill:none;fill-opacity:1;fill-rule: evenodd"/>
<path id="Shape2DView_nwe0084"  d="M -0.635 -1.555 L -0.6349999999999991 -2.255 " stroke="#191919" stroke-width="0.35 px" style="stroke-width:0.35;stroke-miterlimit:4;stroke-dasharray:none;fill:none;fill-opacity:1;fill-rule: evenodd"/>
<path id="Shape2DView_nwe0085"  d="M 0.635 -2.255 L 0.6349999999999991 -1.555 " stroke="#191919" stroke-width="0.35 px" style="stroke-width:0.35;stroke-miterlimit:4;stroke-dasharray:none;fill:none;fill-opacity:1;fill-rule: evenodd"/>
<path id="Shape2DView_nwe0086"  d="M 0.625 -2.255 L 0.6249999999999991 -1.555 " stroke="#191919" stroke-width="0.35 px" style="stroke-width:0.35;stroke-miterlimit:4;stroke-dasharray:none;fill:none;fill-opacity:1;fill-rule: evenodd"/>
<path id="Shape2DView_nwe0087"  d="M 0.025 -1.555 L 0.025000000000000935 -2.255 " stroke="#191919" stroke-width="0.35 px" style="stroke-width:0.35;stroke-miterlimit:4;stroke-dasharray:none;fill:none;fill-opacity:1;fill-rule: evenodd"/>
<path id="Shape2DView_nwe0088"  d="M 0.635 -0.985 L 0.6349999999999991 -0.28500000000000003 " stroke="#191919" stroke-width="0.35 px" style="stroke-width:0.35;stroke-miterlimit:4;stroke-dasharray:none;fill:none;fill-opacity:1;fill-rule: evenodd"/>
<path id="Shape2DView_nwe0089"  d="M -0.635 -0.285 L -0.6349999999999991 -0.9849999999999999 " stroke="#191919" stroke-width="0.35 px" style="stroke-width:0.35;stroke-miterlimit:4;stroke-dasharray:none;fill:none;fill-opacity:1;fill-rule: evenodd"/>
<path id="Shape2DView_nwe0090"  d="M 0.025 -0.285 L 0.025000000000000935 -0.9849999999999999 " stroke="#191919" stroke-width="0.35 px" style="stroke-width:0.35;stroke-miterlimit:4;stroke-dasharray:none;fill:none;fill-opacity:1;fill-rule: evenodd"/>
<path id="Shape2DView_nwe0091"  d="M 0.625 -0.985 L 0.6249999999999991 -0.28500000000000003 " stroke="#191919" stroke-width="0.35 px" style="stroke-width:0.35;stroke-miterlimit:4;stroke-dasharray:none;fill:none;fill-opacity:1;fill-rule: evenodd"/>
<path id="Shape2DView_nwe0092"  d="M -0.635 -2.825 L -0.6349999999999991 -3.525 " stroke="#191919" stroke-width="0.35 px" style="stroke-width:0.35;stroke-miterlimit:4;stroke-dasharray:none;fill:none;fill-opacity:1;fill-rule: evenodd"/>
<path id="Shape2DView_nwe0093"  d="M 0.025 -2.825 L 0.025000000000000935 -3.525 " stroke="#191919" stroke-width="0.35 px" style="stroke-width:0.35;stroke-miterlimit:4;stroke-dasharray:none;fill:none;fill-opacity:1;fill-rule: evenodd"/>
<path id="Shape2DView_nwe0094"  d="M 0.625 -3.525 L 0.6249999999999991 -2.825 " stroke="#191919" stroke-width="0.35 px" style="stroke-width:0.35;stroke-miterlimit:4;stroke-dasharray:none;fill:none;fill-opacity:1;fill-rule: evenodd"/>
<path id="Shape2DView_nwe0095"  d="M 0.635 -3.525 L 0.6349999999999991 -2.825 " stroke="#191919" stroke-width="0.35 px" style="stroke-width:0.35;stroke-miterlimit:4;stroke-dasharray:none;fill:none;fill-opacity:1;fill-rule: evenodd"/>
<path id="Shape2DView_nwe0096"  d="M 0.635 1.555 L 0.6349999999999991 2.255 " stroke="#191919" stroke-width="0.35 px" style="stroke-width:0.35;stroke-miterlimit:4;stroke-dasharray:none;fill:none;fill-opacity:1;fill-rule: evenodd"/>
<path id="Shape2DView_nwe0097"  d="M -0.635 2.255 L -0.6349999999999991 1.555 " stroke="#191919" stroke-width="0.35 px" style="stroke-width:0.35;stroke-miterlimit:4;stroke-dasharray:none;fill:none;fill-opacity:1;fill-rule: evenodd"/>
<path id="Shape2DView_nwe0098"  d="M 0.025 2.255 L 0.025000000000000935 1.555 " stroke="#191919" stroke-width="0.35 px" style="stroke-width:0.35;stroke-miterlimit:4;stroke-dasharray:none;fill:none;fill-opacity:1;fill-rule: evenodd"/>
<path id="Shape2DView_nwe0099"  d="M 0.625 1.555 L 0.6249999999999991 2.255 " stroke="#191919" stroke-width="0.35 px" style="stroke-width:0.35;stroke-miterlimit:4;stroke-dasharray:none;fill:none;fill-opacity:1;fill-rule: evenodd"/>
<path id="Shape2DView_nwe0100"  d="M 0.635 0.285 L 0.6349999999999991 0.9849999999999999 " stroke="#191919" stroke-width="0.35 px" style="stroke-width:0.35;stroke-miterlimit:4;stroke-dasharray:none;fill:none;fill-opacity:1;fill-rule: evenodd"/>
<path id="Shape2DView_nwe0101"  d="M -0.635 0.985 L -0.6349999999999991 0.28500000000000003 " stroke="#191919" stroke-width="0.35 px" style="stroke-width:0.35;stroke-miterlimit:4;stroke-dasharray:none;fill:none;fill-opacity:1;fill-rule: evenodd"/>
<path id="Shape2DView_nwe0102"  d="M 0.025 0.985 L 0.025000000000000935 0.28500000000000003 " stroke="#191919" stroke-width="0.35 px" style="stroke-width:0.35;stroke-miterlimit:4;stroke-dasharray:none;fill:none;fill-opacity:1;fill-rule: evenodd"/>
<path id="Shape2DView_nwe0103"  d="M 0.625 0.285 L 0.6249999999999991 0.9849999999999999 " stroke="#191919" stroke-width="0.35 px" style="stroke-width:0.35;stroke-miterlimit:4;stroke-dasharray:none;fill:none;fill-opacity:1;fill-rule: evenodd"/>
<path id="Shape2DView_nwe0104"  d="M -0.635 3.525 L -0.6349999999999991 2.825 " stroke="#191919" stroke-width="0.35 px" style="stroke-width:0.35;stroke-miterlimit:4;stroke-dasharray:none;fill:none;fill-opacity:1;fill-rule: evenodd"/>
<path id="Shape2DView_nwe0105"  d="M 0.635 2.825 L 0.6349999999999991 3.525 " stroke="#191919" stroke-width="0.35 px" style="stroke-width:0.35;stroke-miterlimit:4;stroke-dasharray:none;fill:none;fill-opacity:1;fill-rule: evenodd"/>
<path id="Shape2DView_nwe0106"  d="M 0.625 2.825 L 0.6249999999999991 3.525 " stroke="#191919" stroke-width="0.35 px" style="stroke-width:0.35;stroke-miterlimit:4;stroke-dasharray:none;fill:none;fill-opacity:1;fill-rule: evenodd"/>
<path id="Shape2DView_nwe0107"  d="M 0.025 3.525 L 0.025000000000000935 2.825 " stroke="#191919" stroke-width="0.35 px" style="stroke-width:0.35;stroke-miterlimit:4;stroke-dasharray:none;fill:none;fill-opacity:1;fill-rule: evenodd"/>
<path id="Shape2DView_nwe0108"  d="M -1.746501696205 3.058333333333 L -1.513168362871 3.058333333333 " stroke="#191919" stroke-width="0.35 px" style="stroke-width:0.35;stroke-miterlimit:4;stroke-dasharray:none;fill:none;fill-opacity:1;fill-rule: evenodd"/>
<path id="Shape2DView_nwe0109"  d="M -1.513168362871 3.058333333333 L -1.5131683628710002 3.291666666667 " stroke="#191919" stroke-width="0.35 px" style="stroke-width:0.35;stroke-miterlimit:4;stroke-dasharray:none;fill:none;fill-opacity:1;fill-rule: evenodd"/>
<path id="Shape2DView_nwe0110"  d="M -1.513168362871 3.291666666667 L -1.746501696205 3.291666666666999 " stroke="#191919" stroke-width="0.35 px" style="stroke-width:0.35;stroke-miterlimit:4;stroke-dasharray:none;fill:none;fill-opacity:1;fill-rule: evenodd"/>
<path id="Shape2DView_nwe0111"  d="M -1.746501696205 3.291666666667 L -1.7465016962050002 3.525 " stroke="#191919" stroke-width="0.35 px" style="stroke-width:0.35;stroke-miterlimit:4;stroke-dasharray:none;fill:none;fill-opacity:1;fill-rule: evenodd"/>
<path id="Shape2DView_nwe0112"  d="M -1.746501696205 3.525 L -2.096501696205 3.175 " stroke="#191919" stroke-width="0.35 px" style="stroke-width:0.35;stroke-miterlimit:4;stroke-dasharray:none;fill:none;fill-opacity:1;fill-rule: evenodd"/>
<path id="Shape2DView_nwe0113"  d="M -2.096501696205 3.175 L -1.746501696205 2.825 " stroke="#191919" stroke-width="0.35 px" style="stroke-width:0.35;stroke-miterlimit:4;stroke-dasharray:none;fill:none;fill-opacity:1;fill-rule: evenodd"/>
<path id="Shape2DView_nwe0114"  d="M -1.746501696205 2.825 L -1.7465016962050002 3.058333333333 " stroke="#191919" stroke-width="0.35 px" style="stroke-width:0.35;stroke-miterlimit:4;stroke-dasharray:none;fill:none;fill-opacity:1;fill-rule: evenodd"/>
<title>b'Shape2DView'</title>
</g>
<g id="Rectangle" transform="translate(2.856000,4.666000) scale(1,-1)">
<rect fill="#ff0000" id="origin" width="1" height="1" x="0" y="0" />
<title>b'Rectangle'</title>
</g>
</svg>