<?xml version="1.0"?>
<!DOCTYPE svg PUBLIC "-//W3C//DTD SVG 1.1//EN" "http://www.w3.org/Graphics/SVG/1.1/DTD/svg11.dtd">
<svg width="4.08mm" height="2.580000000014mm" viewBox="0 0 4.08 2.580000000014" xmlns="http://www.w3.org/2000/svg" version="1.1">
<g id="Shape2DView" transform="translate(2.040000,1.290000) scale(1,-1)">
<path id="Shape2DView_nwe0000"  d="M 1.0999999999960002 1.249999999986 L -1.0999999999960002 1.249999999986 " stroke="#191919" stroke-width="0.35 px" style="stroke-width:0.35;stroke-miterlimit:4;stroke-dasharray:none;fill:none;fill-opacity:1;fill-rule: evenodd"/>
<path id="Shape2DView_nwe0001"  d="M -1.100000012817 1.2499999999999996 A 0.135 0.135 0 0 1 -1.20111 1.20445" stroke="#191919" stroke-width="0.35 px" style="stroke-width:0.35;stroke-miterlimit:4;stroke-dasharray:none;fill:none;fill-opacity:1;fill-rule: evenodd"/>
<path id="Shape2DView_nwe0002"  d="M -1.099999983316 1.249999999987 L -1.1998713526 1.150126682971 " stroke="#191919" stroke-width="0.35 px" style="stroke-width:0.35;stroke-miterlimit:4;stroke-dasharray:none;fill:none;fill-opacity:1;fill-rule: evenodd"/>
<path id="Shape2DView_nwe0003"  d="M 1.199871351113 1.150127 L 1.100000025776 1.249999999986 " stroke="#191919" stroke-width="0.35 px" style="stroke-width:0.35;stroke-miterlimit:4;stroke-dasharray:none;fill:none;fill-opacity:1;fill-rule: evenodd"/>
<path id="Shape2DView_nwe0004"  d="M 1.100000012817 1.2499999999999996 A 0.135 0.135 0 0 0 1.20111 1.20445" stroke="#191919" stroke-width="0.35 px" style="stroke-width:0.35;stroke-miterlimit:4;stroke-dasharray:none;fill:none;fill-opacity:1;fill-rule: evenodd"/>
<path id="Shape2DView_nwe0005"  d="M 0.73 1.25 L -0.73 1.25 " stroke="#191919" stroke-width="0.35 px" style="stroke-width:0.35;stroke-miterlimit:4;stroke-dasharray:none;fill:none;fill-opacity:1;fill-rule: evenodd"/>
<path id="Shape2DView_nwe0006"  d="M -1.201109012103 1.204453711851 L -1.2492855867264483 1.15 " stroke="#191919" stroke-width="0.35 px" style="stroke-width:0.35;stroke-miterlimit:4;stroke-dasharray:none;fill:none;fill-opacity:1;fill-rule: evenodd"/>
<path id="Shape2DView_nwe0007"  d="M -1.48 1.15 L -1.1998713526 1.15 " stroke="#191919" stroke-width="0.35 px" style="stroke-width:0.35;stroke-miterlimit:4;stroke-dasharray:none;fill:none;fill-opacity:1;fill-rule: evenodd"/>
<path id="Shape2DView_nwe0008"  d="M -1.400126990544 1.0498729964839997 A 0.099873 0.099873 0 0 1 -1.5 0.95" stroke="#191919" stroke-width="0.35 px" style="stroke-width:0.35;stroke-miterlimit:4;stroke-dasharray:none;fill:none;fill-opacity:1;fill-rule: evenodd"/>
<path id="Shape2DView_nwe0009"  d="M -1.400126990544 1.049872996484 L -1.299744336918 1.049872996484 " stroke="#191919" stroke-width="0.35 px" style="stroke-width:0.35;stroke-miterlimit:4;stroke-dasharray:none;fill:none;fill-opacity:1;fill-rule: evenodd"/>
<path id="Shape2DView_nwe0010"  d="M -1.299744336918 1.0498729964840012 A 0.099873 0.099873 0 0 1 -1.19987 1.14975" stroke="#191919" stroke-width="0.35 px" style="stroke-width:0.35;stroke-miterlimit:4;stroke-dasharray:none;fill:none;fill-opacity:1;fill-rule: evenodd"/>
<path id="Shape2DView_nwe0011"  d="M -1.1998713526 1.149745759576 L -1.1998713526 1.150126682971 " stroke="#191919" stroke-width="0.35 px" style="stroke-width:0.35;stroke-miterlimit:4;stroke-dasharray:none;fill:none;fill-opacity:1;fill-rule: evenodd"/>
<path id="Shape2DView_nwe0012"  d="M 1.199871351113 1.149746129943 L 1.199871351113 1.15012638683 " stroke="#191919" stroke-width="0.35 px" style="stroke-width:0.35;stroke-miterlimit:4;stroke-dasharray:none;fill:none;fill-opacity:1;fill-rule: evenodd"/>
<path id="Shape2DView_nwe0013"  d="M 1.1998713511130805 1.149746129943 A 0.099873 0.099873 0 0 1 1.29974 1.04987" stroke="#191919" stroke-width="0.35 px" style="stroke-width:0.35;stroke-miterlimit:4;stroke-dasharray:none;fill:none;fill-opacity:1;fill-rule: evenodd"/>
<path id="Shape2DView_nwe0014"  d="M 1.400127009927 1.04987300309 L 1.299744461947 1.04987300309 " stroke="#191919" stroke-width="0.35 px" style="stroke-width:0.35;stroke-miterlimit:4;stroke-dasharray:none;fill:none;fill-opacity:1;fill-rule: evenodd"/>
<path id="Shape2DView_nwe0015"  d="M 1.5 0.95000000309 A 0.099873 0.099873 0 0 1 1.40013 1.04987" stroke="#191919" stroke-width="0.35 px" style="stroke-width:0.35;stroke-miterlimit:4;stroke-dasharray:none;fill:none;fill-opacity:1;fill-rule: evenodd"/>
<path id="Shape2DView_nwe0016"  d="M 1.5 -0.95 L 1.5 0.95 " stroke="#191919" stroke-width="0.35 px" style="stroke-width:0.35;stroke-miterlimit:4;stroke-dasharray:none;fill:none;fill-opacity:1;fill-rule: evenodd"/>
<path id="Shape2DView_nwe0017"  d="M 1.400127010196 -1.0498730060609995 A 0.099873 0.099873 0 0 1 1.5 -0.95" stroke="#191919" stroke-width="0.35 px" style="stroke-width:0.35;stroke-miterlimit:4;stroke-dasharray:none;fill:none;fill-opacity:1;fill-rule: evenodd"/>
<path id="Shape2DView_nwe0018"  d="M 1.400127010196 -1.049873006061 L 1.299745996014 -1.049873006061 " stroke="#191919" stroke-width="0.35 px" style="stroke-width:0.35;stroke-miterlimit:4;stroke-dasharray:none;fill:none;fill-opacity:1;fill-rule: evenodd"/>
<path id="Shape2DView_nwe0019"  d="M 1.299745996014 -1.0498730060610006 A 0.099873 0.099873 0 0 1 1.19987 -1.14975" stroke="#191919" stroke-width="0.35 px" style="stroke-width:0.35;stroke-miterlimit:4;stroke-dasharray:none;fill:none;fill-opacity:1;fill-rule: evenodd"/>
<path id="Shape2DView_nwe0020"  d="M 1.19987300578 -1.149748190311 L 1.19987300578 -1.150127327636 " stroke="#191919" stroke-width="0.35 px" style="stroke-width:0.35;stroke-miterlimit:4;stroke-dasharray:none;fill:none;fill-opacity:1;fill-rule: evenodd"/>
<path id="Shape2DView_nwe0021"  d="M -1.199872999906 -1.15012731088 L -1.199872999906 -1.149745755484 " stroke="#191919" stroke-width="0.35 px" style="stroke-width:0.35;stroke-miterlimit:4;stroke-dasharray:none;fill:none;fill-opacity:1;fill-rule: evenodd"/>
<path id="Shape2DView_nwe0022"  d="M -1.199872999905301 -1.149745755484 A 0.099873 0.099873 0 0 1 -1.29975 -1.04987" stroke="#191919" stroke-width="0.35 px" style="stroke-width:0.35;stroke-miterlimit:4;stroke-dasharray:none;fill:none;fill-opacity:1;fill-rule: evenodd"/>
<path id="Shape2DView_nwe0023"  d="M -1.299745989866 -1.049873000675 L -1.400126979856 -1.049873000675 " stroke="#191919" stroke-width="0.35 px" style="stroke-width:0.35;stroke-miterlimit:4;stroke-dasharray:none;fill:none;fill-opacity:1;fill-rule: evenodd"/>
<path id="Shape2DView_nwe0024"  d="M -1.5 -0.95 A 0.099873 0.099873 0 0 1 -1.40013 -1.04987" stroke="#191919" stroke-width="0.35 px" style="stroke-width:0.35;stroke-miterlimit:4;stroke-dasharray:none;fill:none;fill-opacity:1;fill-rule: evenodd"/>
<path id="Shape2DView_nwe0025"  d="M -1.5 -0.95 L -1.5 0.95 " stroke="#191919" stroke-width="0.35 px" style="stroke-width:0.35;stroke-miterlimit:4;stroke-dasharray:none;fill:none;fill-opacity:1;fill-rule: evenodd"/>
<path id="Shape2DView_nwe0026"  d="M 1.201109012103 1.204453711851 L 1.2492855867264483 1.15 " stroke="#191919" stroke-width="0.35 px" style="stroke-width:0.35;stroke-miterlimit:4;stroke-dasharray:none;fill:none;fill-opacity:1;fill-rule: evenodd"/>
<path id="Shape2DView_nwe0027"  d="M 1.199871351113 1.15 L 1.48 1.15 " stroke="#191919" stroke-width="0.35 px" style="stroke-width:0.35;stroke-miterlimit:4;stroke-dasharray:none;fill:none;fill-opacity:1;fill-rule: evenodd"/>
<path id="Shape2DView_nwe0028"  d="M 1.100000005781 -1.25 L 1.19987300578 -1.150127327636 " stroke="#191919" stroke-width="0.35 px" style="stroke-width:0.35;stroke-miterlimit:4;stroke-dasharray:none;fill:none;fill-opacity:1;fill-rule: evenodd"/>
<path id="Shape2DView_nwe0029"  d="M -1.199872999905 -1.15012731088 L -1.0999999999056316 -1.25 " stroke="#191919" stroke-width="0.35 px" style="stroke-width:0.35;stroke-miterlimit:4;stroke-dasharray:none;fill:none;fill-opacity:1;fill-rule: evenodd"/>
<path id="Shape2DView_nwe0030"  d="M 1.1 -1.250000000014 L -1.1000000000000005 -1.250000000014 " stroke="#191919" stroke-width="0.35 px" style="stroke-width:0.35;stroke-miterlimit:4;stroke-dasharray:none;fill:none;fill-opacity:1;fill-rule: evenodd"/>
<path id="Shape2DView_nwe0031"  d="M 1.5 1.13 L 1.5 -1.13 " stroke="#191919" stroke-width="0.35 px" style="stroke-width:0.35;stroke-miterlimit:4;stroke-dasharray:none;fill:none;fill-opacity:1;fill-rule: evenodd"/>
<path id="Shape2DView_nwe0032"  d="M -1.5 -1.13 L -1.5 1.13 " stroke="#191919" stroke-width="0.35 px" style="stroke-width:0.35;stroke-miterlimit:4;stroke-dasharray:none;fill:none;fill-opacity:1;fill-rule: evenodd"/>
<path id="Shape2DView_nwe0033"  d="M -1.5 1.13 A 0.02 0.02 0 0 1 -1.48 1.15 " stroke="#191919" stroke-width="0.35 px" style="stroke-width:0.35;stroke-miterlimit:4;stroke-dasharray:none;fill:none;fill-opacity:1;fill-rule: evenodd"/>
<path id="Shape2DView_nwe0035"  d="M 1.48 1.15 A 0.02 0.02 0 0 1 1.5 1.13 " stroke="#191919" stroke-width="0.35 px" style="stroke-width:0.35;stroke-miterlimit:4;stroke-dasharray:none;fill:none;fill-opacity:1;fill-rule: evenodd"/>
<circle cx="0.0" cy="0.0" r="0.75" stroke="#191919" stroke-width="0.35 px" style="stroke-width:0.35;stroke-miterlimit:4;stroke-dasharray:none;fill:none"/>
<path id="Shape2DView_nwe0037"  d="M 1.5 1.13 A 0.02 0.02 0 0 0 1.48 1.15 " stroke="#191919" stroke-width="0.35 px" style="stroke-width:0.35;stroke-miterlimit:4;stroke-dasharray:none;fill:none;fill-opacity:1;fill-rule: evenodd"/>
<path id="Shape2DView_nwe0038"  d="M 1.5 0.7 L 2.0 0.7 " stroke="#191919" stroke-width="0.35 px" style="stroke-width:0.35;stroke-miterlimit:4;stroke-dasharray:none;fill:none;fill-opacity:1;fill-rule: evenodd"/>
<path id="Shape2DView_nwe0039"  d="M 1.5 -0.7 L 2.0 -0.7 " stroke="#191919" stroke-width="0.35 px" style="stroke-width:0.35;stroke-miterlimit:4;stroke-dasharray:none;fill:none;fill-opacity:1;fill-rule: evenodd"/>
<path id="Shape2DView_nwe0040"  d="M -2.0 -0.7 L -1.5 -0.7 " stroke="#191919" stroke-width="0.35 px" style="stroke-width:0.35;stroke-miterlimit:4;stroke-dasharray:none;fill:none;fill-opacity:1;fill-rule: evenodd"/>
<path id="Shape2DView_nwe0041"  d="M -2.0 0.7 L -1.5 0.7 " stroke="#191919" stroke-width="0.35 px" style="stroke-width:0.35;stroke-miterlimit:4;stroke-dasharray:none;fill:none;fill-opacity:1;fill-rule: evenodd"/>
<path id="Shape2DView_nwe0042"  d="M -1.1998729999060003 -1.15 L -1.48 -1.15 " stroke="#191919" stroke-width="0.35 px" style="stroke-width:0.35;stroke-miterlimit:4;stroke-dasharray:none;fill:none;fill-opacity:1;fill-rule: evenodd"/>
<path id="Shape2DView_nwe0043"  d="M 1.48 -1.15 L 1.19987300578 -1.15 " stroke="#191919" stroke-width="0.35 px" style="stroke-width:0.35;stroke-miterlimit:4;stroke-dasharray:none;fill:none;fill-opacity:1;fill-rule: evenodd"/>
<path id="Shape2DView_nwe0044"  d="M -1.100000012819 -1.2499999999999996 A 0.135 0.135 0 0 0 -1.20111 -1.20445" stroke="#191919" stroke-width="0.35 px" style="stroke-width:0.35;stroke-miterlimit:4;stroke-dasharray:none;fill:none;fill-opacity:1;fill-rule: evenodd"/>
<path id="Shape2DView_nwe0045"  d="M 1.100000012819 -1.2499999999999996 A 0.135 0.135 0 0 1 1.20111 -1.20445" stroke="#191919" stroke-width="0.35 px" style="stroke-width:0.35;stroke-miterlimit:4;stroke-dasharray:none;fill:none;fill-opacity:1;fill-rule: evenodd"/>
<path id="Shape2DView_nwe0046"  d="M 1.201109012103 -1.204453711851 L 1.2492855867264483 -1.15 " stroke="#191919" stroke-width="0.35 px" style="stroke-width:0.35;stroke-miterlimit:4;stroke-dasharray:none;fill:none;fill-opacity:1;fill-rule: evenodd"/>
<path id="Shape2DView_nwe0047"  d="M -1.201109012103 -1.204453711851 L -1.2492855867264483 -1.15 " stroke="#191919" stroke-width="0.35 px" style="stroke-width:0.35;stroke-miterlimit:4;stroke-dasharray:none;fill:none;fill-opacity:1;fill-rule: evenodd"/>
<path id="Shape2DView_nwe0048"  d="M 1.5 -1.13 A 0.02 0.02 0 0 1 1.48 -1.15 " stroke="#191919" stroke-width="0.35 px" style="stroke-width:0.35;stroke-miterlimit:4;stroke-dasharray:none;fill:none;fill-opacity:1;fill-rule: evenodd"/>
<path id="Shape2DView_nwe0049"  d="M 1.48 -1.15 A 0.02 0.02 0 0 0 1.5 -1.13 " stroke="#191919" stroke-width="0.35 px" style="stroke-width:0.35;stroke-miterlimit:4;stroke-dasharray:none;fill:none;fill-opacity:1;fill-rule: evenodd"/>
<path id="Shape2DView_nwe0050"  d="M 1.99 0.69 L 1.991119644761033 0.6911196447610329 L 1.992225209339563 0.692225209339563 L 1.9933027906195515 0.6933027906195514 L 1.9943388373911752 0.6943388373911752 L 1.995320320765153 0.6953203207651529 L 1.996234898018587 0.6962348980185868 L 1.997071067811865 0.6970710678118649 L 1.9978183148246798 0.6978183148246797 L 1.9984672419922822 0.6984672419922823 L 1.9990096886790236 0.6990096886790236 L 1.999438833303083 0.699438833303083 L 1.9997492791218177 0.6997492791218175 L 1.9999371220989317 0.6999371220989317 L 1.9999999999999993 0.6999999999999993 " stroke="#191919" stroke-width="0.35 px" style="stroke-width:0.35;stroke-miterlimit:4;stroke-dasharray:none;fill:none;fill-opacity:1;fill-rule: evenodd"/>
<path id="Shape2DView_nwe0051"  d="M 2.0 0.7 L 2.0 -0.7 " stroke="#191919" stroke-width="0.35 px" style="stroke-width:0.35;stroke-miterlimit:4;stroke-dasharray:none;fill:none;fill-opacity:1;fill-rule: evenodd"/>
<path id="Shape2DView_nwe0052"  d="M 1.99 -0.69 L 1.991119644761033 -0.6911196447610329 L 1.992225209339563 -0.6922252093395629 L 1.9933027906195515 -0.6933027906195514 L 1.9943388373911752 -0.6943388373911752 L 1.995320320765153 -0.6953203207651529 L 1.996234898018587 -0.6962348980185868 L 1.997071067811865 -0.6970710678118649 L 1.9978183148246798 -0.6978183148246797 L 1.9984672419922822 -0.6984672419922822 L 1.9990096886790236 -0.6990096886790236 L 1.999438833303083 -0.699438833303083 L 1.9997492791218177 -0.6997492791218175 L 1.9999371220989317 -0.6999371220989317 L 1.9999999999999993 -0.6999999999999993 " stroke="#191919" stroke-width="0.35 px" style="stroke-width:0.35;stroke-miterlimit:4;stroke-dasharray:none;fill:none;fill-opacity:1;fill-rule: evenodd"/>
<path id="Shape2DView_nwe0053"  d="M -1.48 -1.15 A 0.02 0.02 0 0 1 -1.5 -1.13 " stroke="#191919" stroke-width="0.35 px" style="stroke-width:0.35;stroke-miterlimit:4;stroke-dasharray:none;fill:none;fill-opacity:1;fill-rule: evenodd"/>
<path id="Shape2DView_nwe0054"  d="M -1.5 -1.13 A 0.02 0.02 0 0 0 -1.48 -1.15 " stroke="#191919" stroke-width="0.35 px" style="stroke-width:0.35;stroke-miterlimit:4;stroke-dasharray:none;fill:none;fill-opacity:1;fill-rule: evenodd"/>
<path id="Shape2DView_nwe0055"  d="M -1.9999999999999993 -0.6999999999999993 L -1.9999371220989317 -0.6999371220989317 L -1.9997492791218177 -0.6997492791218175 L -1.999438833303083 -0.699438833303083 L -1.9990096886790236 -0.6990096886790236 L -1.9984672419922822 -0.6984672419922822 L -1.9978183148246798 -0.6978183148246797 L -1.997071067811865 -0.6970710678118649 L -1.996234898018587 -0.6962348980185868 L -1.995320320765153 -0.6953203207651529 L -1.9943388373911752 -0.6943388373911752 L -1.9933027906195515 -0.6933027906195514 L -1.992225209339563 -0.6922252093395629 L -1.991119644761033 -0.6911196447610329 L -1.99 -0.69 " stroke="#191919" stroke-width="0.35 px" style="stroke-width:0.35;stroke-miterlimit:4;stroke-dasharray:none;fill:none;fill-opacity:1;fill-rule: evenodd"/>
<path id="Shape2DView_nwe0056"  d="M -2.0 0.7 L -2.0 -0.7 " stroke="#191919" stroke-width="0.35 px" style="stroke-width:0.35;stroke-miterlimit:4;stroke-dasharray:none;fill:none;fill-opacity:1;fill-rule: evenodd"/>
<path id="Shape2DView_nwe0057"  d="M -1.9999999999999993 0.6999999999999993 L -1.9999371220989317 0.6999371220989317 L -1.9997492791218177 0.6997492791218175 L -1.999438833303083 0.699438833303083 L -1.9990096886790236 0.6990096886790236 L -1.9984672419922822 0.6984672419922823 L -1.9978183148246798 0.6978183148246797 L -1.997071067811865 0.697071067811865 L -1.996234898018587 0.6962348980185868 L -1.995320320765153 0.6953203207651529 L -1.9943388373911752 0.6943388373911752 L -1.9933027906195515 0.6933027906195514 L -1.992225209339563 0.692225209339563 L -1.991119644761033 0.6911196447610329 L -1.99 0.69 " stroke="#191919" stroke-width="0.35 px" style="stroke-width:0.35;stroke-miterlimit:4;stroke-dasharray:none;fill:none;fill-opacity:1;fill-rule: evenodd"/>
<path id="Shape2DView_nwe0058"  d="M 1.1998713511119998 1.150000012142 L -1.1998713525999998 1.150000012142 " stroke="#191919" stroke-width="0.35 px" style="stroke-width:0.35;stroke-miterlimit:4;stroke-dasharray:none;fill:none;fill-opacity:1;fill-rule: evenodd"/>
<path id="Shape2DView_nwe0059"  d="M 1.1998730057799998 -1.150000038385 L -1.1998729999049997 -1.150000038385 " stroke="#191919" stroke-width="0.35 px" style="stroke-width:0.35;stroke-miterlimit:4;stroke-dasharray:none;fill:none;fill-opacity:1;fill-rule: evenodd"/>
<path id="Shape2DView_nwe0060"  d="M -1.48 1.13 L -1.20184281149 1.13 " stroke="#191919" stroke-width="0.35 px" style="stroke-width:0.35;stroke-miterlimit:4;stroke-dasharray:none;fill:none;fill-opacity:1;fill-rule: evenodd"/>
<path id="Shape2DView_nwe0061"  d="M 1.2018428113349997 1.13 L 1.48 1.13 " stroke="#191919" stroke-width="0.35 px" style="stroke-width:0.35;stroke-miterlimit:4;stroke-dasharray:none;fill:none;fill-opacity:1;fill-rule: evenodd"/>
<path id="Shape2DView_nwe0062"  d="M 1.48 1.13 L 1.48 1.132239289522066 L 1.48 1.1344504186791262 L 1.48 1.1366055812391032 L 1.48 1.138677674782351 L 1.48 1.1406406415303065 L 1.48 1.1424697960371746 L 1.48 1.144142135623731 L 1.48 1.1456366296493605 L 1.48 1.1469344839845657 L 1.48 1.1480193773580483 L 1.48 1.1488776666061673 L 1.48 1.1494985582436363 L 1.48 1.1498742441978647 L 1.48 1.15 " stroke="#191919" stroke-width="0.35 px" style="stroke-width:0.35;stroke-miterlimit:4;stroke-dasharray:none;fill:none;fill-opacity:1;fill-rule: evenodd"/>
<path id="Shape2DView_nwe0063"  d="M -1.48 1.13 L -1.48 1.132239289522066 L -1.48 1.1344504186791262 L -1.48 1.1366055812391032 L -1.48 1.138677674782351 L -1.48 1.1406406415303065 L -1.48 1.1424697960371746 L -1.48 1.144142135623731 L -1.48 1.1456366296493605 L -1.48 1.1469344839845657 L -1.48 1.1480193773580483 L -1.48 1.1488776666061673 L -1.48 1.1494985582436363 L -1.48 1.1498742441978647 L -1.48 1.15 " stroke="#191919" stroke-width="0.35 px" style="stroke-width:0.35;stroke-miterlimit:4;stroke-dasharray:none;fill:none;fill-opacity:1;fill-rule: evenodd"/>
<circle cx="0.0" cy="0.0" r="0.75" stroke="#191919" stroke-width="0.35 px" style="stroke-width:0.35;stroke-miterlimit:4;stroke-dasharray:none;fill:none"/>
<path id="Shape2DView_nwe0069"  d="M -1.48 1.13 L -1.4822392895220662 1.13 L -1.4844504186791263 1.13 L -1.4866055812391032 1.13 L -1.4886776747823511 1.13 L -1.4906406415303066 1.13 L -1.4924697960371747 1.13 L -1.494142135623731 1.13 L -1.4956366296493606 1.13 L -1.4969344839845657 1.13 L -1.4980193773580484 1.13 L -1.4988776666061674 1.13 L -1.4994985582436364 1.13 L -1.4998742441978647 1.13 L -1.5 1.13 " stroke="#191919" stroke-width="0.35 px" style="stroke-width:0.35;stroke-miterlimit:4;stroke-dasharray:none;fill:none;fill-opacity:1;fill-rule: evenodd"/>
<path id="Shape2DView_nwe0070"  d="M -1.48 1.009957648206 L -1.48 1.13 " stroke="#191919" stroke-width="0.35 px" style="stroke-width:0.35;stroke-miterlimit:4;stroke-dasharray:none;fill:none;fill-opacity:1;fill-rule: evenodd"/>
<path id="Shape2DView_nwe0071"  d="M 1.48 1.13 L 1.48 1.009957654812 " stroke="#191919" stroke-width="0.35 px" style="stroke-width:0.35;stroke-miterlimit:4;stroke-dasharray:none;fill:none;fill-opacity:1;fill-rule: evenodd"/>
<path id="Shape2DView_nwe0072"  d="M 1.48 1.13 L 1.4822392895220662 1.13 L 1.4844504186791263 1.13 L 1.4866055812391032 1.13 L 1.4886776747823511 1.13 L 1.4906406415303066 1.13 L 1.4924697960371747 1.13 L 1.494142135623731 1.13 L 1.4956366296493606 1.13 L 1.4969344839845657 1.13 L 1.4980193773580484 1.13 L 1.4988776666061674 1.13 L 1.4994985582436364 1.13 L 1.4998742441978647 1.13 L 1.5 1.13 " stroke="#191919" stroke-width="0.35 px" style="stroke-width:0.35;stroke-miterlimit:4;stroke-dasharray:none;fill:none;fill-opacity:1;fill-rule: evenodd"/>
<path id="Shape2DView_nwe0073"  d="M -1.48 -1.13 L -1.48 -1.009957652397 " stroke="#191919" stroke-width="0.35 px" style="stroke-width:0.35;stroke-miterlimit:4;stroke-dasharray:none;fill:none;fill-opacity:1;fill-rule: evenodd"/>
<path id="Shape2DView_nwe0074"  d="M -1.2018444596399998 -1.13 L -1.48 -1.13 " stroke="#191919" stroke-width="0.35 px" style="stroke-width:0.35;stroke-miterlimit:4;stroke-dasharray:none;fill:none;fill-opacity:1;fill-rule: evenodd"/>
<path id="Shape2DView_nwe0075"  d="M 1.48 -1.009957657783 L 1.48 -1.13 " stroke="#191919" stroke-width="0.35 px" style="stroke-width:0.35;stroke-miterlimit:4;stroke-dasharray:none;fill:none;fill-opacity:1;fill-rule: evenodd"/>
<path id="Shape2DView_nwe0076"  d="M 1.48 -1.13 L 1.201844466602 -1.13 " stroke="#191919" stroke-width="0.35 px" style="stroke-width:0.35;stroke-miterlimit:4;stroke-dasharray:none;fill:none;fill-opacity:1;fill-rule: evenodd"/>
<circle cx="0.0" cy="0.0" r="0.65" stroke="#191919" stroke-width="0.35 px" style="stroke-width:0.35;stroke-miterlimit:4;stroke-dasharray:none;fill:none"/>
<path id="Shape2DView_nwe0078"  d="M 1.48 -1.13 L 1.4822392895220662 -1.13 L 1.4844504186791263 -1.13 L 1.4866055812391032 -1.13 L 1.4886776747823511 -1.13 L 1.4906406415303066 -1.13 L 1.4924697960371747 -1.13 L 1.494142135623731 -1.13 L 1.4956366296493606 -1.13 L 1.4969344839845657 -1.13 L 1.4980193773580484 -1.13 L 1.4988776666061674 -1.13 L 1.4994985582436364 -1.13 L 1.4998742441978647 -1.13 L 1.5 -1.13 " stroke="#191919" stroke-width="0.35 px" style="stroke-width:0.35;stroke-miterlimit:4;stroke-dasharray:none;fill:none;fill-opacity:1;fill-rule: evenodd"/>
<path id="Shape2DView_nwe0081"  d="M 1.5 0.69 L 1.99 0.69 " stroke="#191919" stroke-width="0.35 px" style="stroke-width:0.35;stroke-miterlimit:4;stroke-dasharray:none;fill:none;fill-opacity:1;fill-rule: evenodd"/>
<path id="Shape2DView_nwe0082"  d="M 1.5 -0.69 L 1.99 -0.69 " stroke="#191919" stroke-width="0.35 px" style="stroke-width:0.35;stroke-miterlimit:4;stroke-dasharray:none;fill:none;fill-opacity:1;fill-rule: evenodd"/>
<path id="Shape2DView_nwe0083"  d="M 1.99 0.69 L 1.99 -0.69 " stroke="#191919" stroke-width="0.35 px" style="stroke-width:0.35;stroke-miterlimit:4;stroke-dasharray:none;fill:none;fill-opacity:1;fill-rule: evenodd"/>
<path id="Shape2DView_nwe0086"  d="M -1.48 -1.13 L -1.4822392895220662 -1.13 L -1.4844504186791263 -1.13 L -1.4866055812391032 -1.13 L -1.4886776747823511 -1.13 L -1.4906406415303066 -1.13 L -1.4924697960371747 -1.13 L -1.494142135623731 -1.13 L -1.4956366296493606 -1.13 L -1.4969344839845657 -1.13 L -1.4980193773580484 -1.13 L -1.4988776666061674 -1.13 L -1.4994985582436364 -1.13 L -1.4998742441978647 -1.13 L -1.5 -1.13 " stroke="#191919" stroke-width="0.35 px" style="stroke-width:0.35;stroke-miterlimit:4;stroke-dasharray:none;fill:none;fill-opacity:1;fill-rule: evenodd"/>
<path id="Shape2DView_nwe0087"  d="M -1.99 0.69 L -1.5 0.69 " stroke="#191919" stroke-width="0.35 px" style="stroke-width:0.35;stroke-miterlimit:4;stroke-dasharray:none;fill:none;fill-opacity:1;fill-rule: evenodd"/>
<path id="Shape2DView_nwe0088"  d="M -1.99 0.69 L -1.99 -0.69 " stroke="#191919" stroke-width="0.35 px" style="stroke-width:0.35;stroke-miterlimit:4;stroke-dasharray:none;fill:none;fill-opacity:1;fill-rule: evenodd"/>
<path id="Shape2DView_nwe0089"  d="M -1.99 -0.69 L -1.5 -0.69 " stroke="#191919" stroke-width="0.35 px" style="stroke-width:0.35;stroke-miterlimit:4;stroke-dasharray:none;fill:none;fill-opacity:1;fill-rule: evenodd"/>
<path id="Shape2DView_nwe0090"  d="M -1.48 -1.13 L -1.48 -1.132239289522066 L -1.48 -1.1344504186791262 L -1.48 -1.1366055812391032 L -1.48 -1.138677674782351 L -1.48 -1.1406406415303065 L -1.48 -1.1424697960371746 L -1.48 -1.144142135623731 L -1.48 -1.1456366296493605 L -1.48 -1.1469344839845657 L -1.48 -1.1480193773580483 L -1.48 -1.1488776666061673 L -1.48 -1.1494985582436363 L -1.48 -1.1498742441978647 L -1.48 -1.15 " stroke="#191919" stroke-width="0.35 px" style="stroke-width:0.35;stroke-miterlimit:4;stroke-dasharray:none;fill:none;fill-opacity:1;fill-rule: evenodd"/>
<path id="Shape2DView_nwe0091"  d="M 1.48 -1.13 L 1.48 -1.132239289522066 L 1.48 -1.1344504186791262 L 1.48 -1.1366055812391032 L 1.48 -1.138677674782351 L 1.48 -1.1406406415303065 L 1.48 -1.1424697960371746 L 1.48 -1.144142135623731 L 1.48 -1.1456366296493605 L 1.48 -1.1469344839845657 L 1.48 -1.1480193773580483 L 1.48 -1.1488776666061673 L 1.48 -1.1494985582436363 L 1.48 -1.1498742441978647 L 1.48 -1.15 " stroke="#191919" stroke-width="0.35 px" style="stroke-width:0.35;stroke-miterlimit:4;stroke-dasharray:none;fill:none;fill-opacity:1;fill-rule: evenodd"/>
<path id="Shape2DView_nwe0092"  d="M 0.75 0.0 L 0.7493712209893243 0.0 L 0.7474927912181824 0.0 L 0.7443883330308367 0.0 L 0.740096886790242 0.0 L 0.7346724199228285 0.0 L 0.728183148246803 0.0 L 0.7207106781186547 0.0 L 0.7123489801858733 0.0 L 0.7032032076515337 0.0 L 0.6933883739117559 0.0 L 0.6830279061955168 0.0 L 0.6722520933956315 0.0 L 0.6611964476103308 0.0 L 0.65 0.0 " stroke="#191919" stroke-width="0.35 px" style="stroke-width:0.35;stroke-miterlimit:4;stroke-dasharray:none;fill:none;fill-opacity:1;fill-rule: evenodd"/>
<title>b'Shape2DView'</title>
</g>
<g id="Rectangle" transform="translate(2.040000,1.290000) scale(1,-1)">
<rect fill="#ff0000" id="origin" width="1" height="1" x="0" y="0" />
<title>b'Rectangle'</title>
</g>
</svg>