<?xml version="1.0"?>
<!DOCTYPE svg PUBLIC "-//W3C//DTD SVG 1.1//EN" "http://www.w3.org/Graphics/SVG/1.1/DTD/svg11.dtd">
<svg width="5.61mm" height="12.11000000000064mm" viewBox="0 0 5.61 12.11000000000064" xmlns="http://www.w3.org/2000/svg" version="1.1">
<g id="Shape2DView" transform="translate(2.805000,2.245000) scale(1,-1)">
<path id="Shape2DView_nwe0000"  d="M -2.25 2.19 L 2.75 2.19 " stroke="#191919" stroke-width="0.35 px" style="stroke-width:0.35;stroke-miterlimit:4;stroke-dasharray:none;fill:none;fill-opacity:1;fill-rule: evenodd"/>
<path id="Shape2DView_nwe0001"  d="M -2.75 -1.2699999999999996 L -2.75 1.0 " stroke="#191919" stroke-width="0.35 px" style="stroke-width:0.35;stroke-miterlimit:4;stroke-dasharray:none;fill:none;fill-opacity:1;fill-rule: evenodd"/>
<path id="Shape2DView_nwe0002"  d="M 2.75 2.19 L 2.75 -9.81 " stroke="#191919" stroke-width="0.35 px" style="stroke-width:0.35;stroke-miterlimit:4;stroke-dasharray:none;fill:none;fill-opacity:1;fill-rule: evenodd"/>
<path id="Shape2DView_nwe0003"  d="M 2.75 -9.81 L -2.25 -9.81 " stroke="#191919" stroke-width="0.35 px" style="stroke-width:0.35;stroke-miterlimit:4;stroke-dasharray:none;fill:none;fill-opacity:1;fill-rule: evenodd"/>
<path id="Shape2DView_nwe0004"  d="M -2.1 -6.27 L -2.25 -6.27 " stroke="#191919" stroke-width="0.35 px" style="stroke-width:0.35;stroke-miterlimit:4;stroke-dasharray:none;fill:none;fill-opacity:1;fill-rule: evenodd"/>
<path id="Shape2DView_nwe0005"  d="M -1.6 -6.27 L -2.1 -6.27 " stroke="#191919" stroke-width="0.35 px" style="stroke-width:0.35;stroke-miterlimit:4;stroke-dasharray:none;fill:none;fill-opacity:1;fill-rule: evenodd"/>
<path id="Shape2DView_nwe0006"  d="M -1.6000000000000003 -5.27 L -1.6000000000000005 -6.27 " stroke="#191919" stroke-width="0.35 px" style="stroke-width:0.35;stroke-miterlimit:4;stroke-dasharray:none;fill:none;fill-opacity:1;fill-rule: evenodd"/>
<path id="Shape2DView_nwe0007"  d="M -1.6 -5.27 L -2.1 -5.27 " stroke="#191919" stroke-width="0.35 px" style="stroke-width:0.35;stroke-miterlimit:4;stroke-dasharray:none;fill:none;fill-opacity:1;fill-rule: evenodd"/>
<path id="Shape2DView_nwe0008"  d="M -2.1 -5.27 L -2.25 -5.27 " stroke="#191919" stroke-width="0.35 px" style="stroke-width:0.35;stroke-miterlimit:4;stroke-dasharray:none;fill:none;fill-opacity:1;fill-rule: evenodd"/>
<path id="Shape2DView_nwe0009"  d="M -2.1 -4.27 L -2.25 -4.27 " stroke="#191919" stroke-width="0.35 px" style="stroke-width:0.35;stroke-miterlimit:4;stroke-dasharray:none;fill:none;fill-opacity:1;fill-rule: evenodd"/>
<path id="Shape2DView_nwe0010"  d="M -1.6 -4.27 L -2.1 -4.27 " stroke="#191919" stroke-width="0.35 px" style="stroke-width:0.35;stroke-miterlimit:4;stroke-dasharray:none;fill:none;fill-opacity:1;fill-rule: evenodd"/>
<path id="Shape2DView_nwe0011"  d="M -1.6 -3.27 L -1.6000000000000003 -4.27 " stroke="#191919" stroke-width="0.35 px" style="stroke-width:0.35;stroke-miterlimit:4;stroke-dasharray:none;fill:none;fill-opacity:1;fill-rule: evenodd"/>
<path id="Shape2DView_nwe0012"  d="M -1.6 -3.27 L -2.1 -3.27 " stroke="#191919" stroke-width="0.35 px" style="stroke-width:0.35;stroke-miterlimit:4;stroke-dasharray:none;fill:none;fill-opacity:1;fill-rule: evenodd"/>
<path id="Shape2DView_nwe0013"  d="M -2.1 -3.27 L -2.25 -3.27 " stroke="#191919" stroke-width="0.35 px" style="stroke-width:0.35;stroke-miterlimit:4;stroke-dasharray:none;fill:none;fill-opacity:1;fill-rule: evenodd"/>
<path id="Shape2DView_nwe0014"  d="M -2.1 -2.27 L -2.25 -2.27 " stroke="#191919" stroke-width="0.35 px" style="stroke-width:0.35;stroke-miterlimit:4;stroke-dasharray:none;fill:none;fill-opacity:1;fill-rule: evenodd"/>
<path id="Shape2DView_nwe0015"  d="M -1.6 -2.27 L -2.1 -2.27 " stroke="#191919" stroke-width="0.35 px" style="stroke-width:0.35;stroke-miterlimit:4;stroke-dasharray:none;fill:none;fill-opacity:1;fill-rule: evenodd"/>
<path id="Shape2DView_nwe0016"  d="M -1.5999999999999999 -1.27 L -1.6 -2.27 " stroke="#191919" stroke-width="0.35 px" style="stroke-width:0.35;stroke-miterlimit:4;stroke-dasharray:none;fill:none;fill-opacity:1;fill-rule: evenodd"/>
<path id="Shape2DView_nwe0017"  d="M -1.6 -1.27 L -2.1 -1.2699999999999998 " stroke="#191919" stroke-width="0.35 px" style="stroke-width:0.35;stroke-miterlimit:4;stroke-dasharray:none;fill:none;fill-opacity:1;fill-rule: evenodd"/>
<path id="Shape2DView_nwe0018"  d="M -2.1 -1.2699999999999998 L -2.25 -1.2699999999999998 " stroke="#191919" stroke-width="0.35 px" style="stroke-width:0.35;stroke-miterlimit:4;stroke-dasharray:none;fill:none;fill-opacity:1;fill-rule: evenodd"/>
<path id="Shape2DView_nwe0019"  d="M -2.25 2.19000000000032 L -2.305982238051654 2.1868561049469393 L -2.361260466978157 2.1774639560912235 L -2.4151395309775836 2.161941665154486 L -2.466941869558779 2.1404844339514977 L -2.516016038257668 2.113362099614413 L -2.5617449009293667 2.080915741234265 L -2.603553390593274 2.0435533905935 L -2.6409157412340147 2.001744900929566 L -2.673362099614142 1.9560160382578384 L -2.7004844339512095 1.906941869558918 L -2.721941665154184 1.8551395309776892 L -2.7374639560909118 1.8012604669782284 L -2.7468561049466214 1.7459822380516898 L -2.75 1.69 " stroke="#191919" stroke-width="0.35 px" style="stroke-width:0.35;stroke-miterlimit:4;stroke-dasharray:none;fill:none;fill-opacity:1;fill-rule: evenodd"/>
<path id="Shape2DView_nwe0020"  d="M -2.25 2.19 A 0.5 0.5 0 0 1 -2.6 2.04707" stroke="#191919" stroke-width="0.35 px" style="stroke-width:0.35;stroke-miterlimit:4;stroke-dasharray:none;fill:none;fill-opacity:1;fill-rule: evenodd"/>
<path id="Shape2DView_nwe0021"  d="M -2.6000000000000716 2.0470714214270727 A 0.5 0.5 0 0 1 -2.75 1.69" stroke="#191919" stroke-width="0.35 px" style="stroke-width:0.35;stroke-miterlimit:4;stroke-dasharray:none;fill:none;fill-opacity:1;fill-rule: evenodd"/>
<path id="Shape2DView_nwe0022"  d="M -2.75 -9.31 L -2.75 -8.5 " stroke="#191919" stroke-width="0.35 px" style="stroke-width:0.35;stroke-miterlimit:4;stroke-dasharray:none;fill:none;fill-opacity:1;fill-rule: evenodd"/>
<path id="Shape2DView_nwe0023"  d="M -2.75 -9.31 L -2.75 -6.27 " stroke="#191919" stroke-width="0.35 px" style="stroke-width:0.35;stroke-miterlimit:4;stroke-dasharray:none;fill:none;fill-opacity:1;fill-rule: evenodd"/>
<path id="Shape2DView_nwe0024"  d="M -2.75 -6.27 L -2.75 -5.27 " stroke="#191919" stroke-width="0.35 px" style="stroke-width:0.35;stroke-miterlimit:4;stroke-dasharray:none;fill:none;fill-opacity:1;fill-rule: evenodd"/>
<path id="Shape2DView_nwe0025"  d="M -2.75 -5.27 L -2.75 -4.27 " stroke="#191919" stroke-width="0.35 px" style="stroke-width:0.35;stroke-miterlimit:4;stroke-dasharray:none;fill:none;fill-opacity:1;fill-rule: evenodd"/>
<path id="Shape2DView_nwe0026"  d="M -2.75 -4.27 L -2.75 -3.27 " stroke="#191919" stroke-width="0.35 px" style="stroke-width:0.35;stroke-miterlimit:4;stroke-dasharray:none;fill:none;fill-opacity:1;fill-rule: evenodd"/>
<path id="Shape2DView_nwe0027"  d="M -2.75 -3.2699999999999996 L -2.75 -2.2699999999999996 " stroke="#191919" stroke-width="0.35 px" style="stroke-width:0.35;stroke-miterlimit:4;stroke-dasharray:none;fill:none;fill-opacity:1;fill-rule: evenodd"/>
<path id="Shape2DView_nwe0028"  d="M -2.75 -2.27 L -2.75 -1.2700000000000005 " stroke="#191919" stroke-width="0.35 px" style="stroke-width:0.35;stroke-miterlimit:4;stroke-dasharray:none;fill:none;fill-opacity:1;fill-rule: evenodd"/>
<path id="Shape2DView_nwe0029"  d="M -2.75 -1.2699999999999996 L -2.75 1.6899999999999995 " stroke="#191919" stroke-width="0.35 px" style="stroke-width:0.35;stroke-miterlimit:4;stroke-dasharray:none;fill:none;fill-opacity:1;fill-rule: evenodd"/>
<path id="Shape2DView_nwe0030"  d="M -2.75 0.9999999999999996 L -2.75 1.69 " stroke="#191919" stroke-width="0.35 px" style="stroke-width:0.35;stroke-miterlimit:4;stroke-dasharray:none;fill:none;fill-opacity:1;fill-rule: evenodd"/>
<path id="Shape2DView_nwe0033"  d="M -2.25 -9.81000000000032 L -2.305982238051654 -9.80685610494694 L -2.361260466978157 -9.797463956091224 L -2.4151395309775836 -9.781941665154486 L -2.466941869558779 -9.760484433951499 L -2.516016038257668 -9.733362099614414 L -2.5617449009293667 -9.700915741234265 L -2.603553390593274 -9.663553390593501 L -2.6409157412340147 -9.621744900929567 L -2.673362099614142 -9.576016038257839 L -2.7004844339512095 -9.526941869558918 L -2.721941665154184 -9.475139530977689 L -2.7374639560909118 -9.421260466978229 L -2.7468561049466214 -9.365982238051691 L -2.75 -9.31 " stroke="#191919" stroke-width="0.35 px" style="stroke-width:0.35;stroke-miterlimit:4;stroke-dasharray:none;fill:none;fill-opacity:1;fill-rule: evenodd"/>
<path id="Shape2DView_nwe0034"  d="M -2.6000000000000716 -9.667071421427073 A 0.5 0.5 0 0 1 -2.25 -9.81" stroke="#191919" stroke-width="0.35 px" style="stroke-width:0.35;stroke-miterlimit:4;stroke-dasharray:none;fill:none;fill-opacity:1;fill-rule: evenodd"/>
<path id="Shape2DView_nwe0035"  d="M -2.75 -9.31 A 0.5 0.5 0 0 1 -2.6 -9.66707" stroke="#191919" stroke-width="0.35 px" style="stroke-width:0.35;stroke-miterlimit:4;stroke-dasharray:none;fill:none;fill-opacity:1;fill-rule: evenodd"/>
<path id="Shape2DView_nwe0036"  d="M -2.6000000000000716 -1.27 L -2.579696832188469 -1.27 L -2.5583825588818616 -1.27 L -2.5361225461279586 -1.27 L -2.512985060343106 -1.27 L -2.489041058954655 -1.27 L -2.4643639727906046 -1.27 L -2.439029480883887 -1.27 L -2.4131152783819214 -1.27 L -2.386700838273193 -1.27 L -2.359867167661604 -1.27 L -2.3326965593360374 -1.27 L -2.305272339397015 -1.27 L -2.2776786117144234 -1.27 L -2.25 -1.27 " stroke="#191919" stroke-width="0.35 px" style="stroke-width:0.35;stroke-miterlimit:4;stroke-dasharray:none;fill:none;fill-opacity:1;fill-rule: evenodd"/>
<path id="Shape2DView_nwe0037"  d="M -2.75 -1.27 L -2.749193253648296 -1.27 L -2.746775617951888 -1.27 L -2.742754894585887 -1.27 L -2.73714405836592 -1.27 L -2.729961215378589 -1.27 L -2.7212295445533936 -1.27 L -2.710977222864664 -1.27 L -2.699237334404875 -1.27 L -2.686047763622765 -1.27 L -2.6714510730707692 -1.27 L -2.655494366056287 -1.27 L -2.638229134639995 -1.27 L -2.619711093471719 -1.27 L -2.6000000000000716 -1.27 " stroke="#191919" stroke-width="0.35 px" style="stroke-width:0.35;stroke-miterlimit:4;stroke-dasharray:none;fill:none;fill-opacity:1;fill-rule: evenodd"/>
<path id="Shape2DView_nwe0038"  d="M -2.6000000000000716 -6.27 L -2.579696832188469 -6.27 L -2.5583825588818616 -6.27 L -2.5361225461279586 -6.27 L -2.512985060343106 -6.27 L -2.489041058954655 -6.27 L -2.4643639727906046 -6.27 L -2.439029480883887 -6.27 L -2.4131152783819214 -6.27 L -2.386700838273193 -6.27 L -2.359867167661604 -6.27 L -2.3326965593360374 -6.27 L -2.305272339397015 -6.27 L -2.2776786117144234 -6.27 L -2.25 -6.27 " stroke="#191919" stroke-width="0.35 px" style="stroke-width:0.35;stroke-miterlimit:4;stroke-dasharray:none;fill:none;fill-opacity:1;fill-rule: evenodd"/>
<path id="Shape2DView_nwe0039"  d="M -2.75 -6.27 L -2.749193253648296 -6.27 L -2.746775617951888 -6.27 L -2.742754894585887 -6.27 L -2.73714405836592 -6.27 L -2.729961215378589 -6.27 L -2.7212295445533936 -6.27 L -2.710977222864664 -6.27 L -2.699237334404875 -6.27 L -2.686047763622765 -6.27 L -2.6714510730707692 -6.27 L -2.655494366056287 -6.27 L -2.638229134639995 -6.27 L -2.619711093471719 -6.27 L -2.6000000000000716 -6.27 " stroke="#191919" stroke-width="0.35 px" style="stroke-width:0.35;stroke-miterlimit:4;stroke-dasharray:none;fill:none;fill-opacity:1;fill-rule: evenodd"/>
<path id="Shape2DView_nwe0040"  d="M -2.6000000000000716 -2.27 L -2.579696832188469 -2.27 L -2.5583825588818616 -2.27 L -2.5361225461279586 -2.27 L -2.512985060343106 -2.27 L -2.489041058954655 -2.27 L -2.4643639727906046 -2.27 L -2.439029480883887 -2.27 L -2.4131152783819214 -2.27 L -2.386700838273193 -2.27 L -2.359867167661604 -2.27 L -2.3326965593360374 -2.27 L -2.305272339397015 -2.27 L -2.2776786117144234 -2.27 L -2.25 -2.27 " stroke="#191919" stroke-width="0.35 px" style="stroke-width:0.35;stroke-miterlimit:4;stroke-dasharray:none;fill:none;fill-opacity:1;fill-rule: evenodd"/>
<path id="Shape2DView_nwe0041"  d="M -2.6000000000000716 -3.27 L -2.579696832188469 -3.27 L -2.5583825588818616 -3.27 L -2.5361225461279586 -3.27 L -2.512985060343106 -3.27 L -2.489041058954655 -3.27 L -2.4643639727906046 -3.27 L -2.439029480883887 -3.27 L -2.4131152783819214 -3.27 L -2.386700838273193 -3.27 L -2.359867167661604 -3.27 L -2.3326965593360374 -3.27 L -2.305272339397015 -3.27 L -2.2776786117144234 -3.27 L -2.25 -3.27 " stroke="#191919" stroke-width="0.35 px" style="stroke-width:0.35;stroke-miterlimit:4;stroke-dasharray:none;fill:none;fill-opacity:1;fill-rule: evenodd"/>
<path id="Shape2DView_nwe0042"  d="M -2.75 -2.27 L -2.749193253648296 -2.27 L -2.746775617951888 -2.27 L -2.742754894585887 -2.27 L -2.73714405836592 -2.27 L -2.729961215378589 -2.27 L -2.7212295445533936 -2.27 L -2.710977222864664 -2.27 L -2.699237334404875 -2.27 L -2.686047763622765 -2.27 L -2.6714510730707692 -2.27 L -2.655494366056287 -2.27 L -2.638229134639995 -2.27 L -2.619711093471719 -2.27 L -2.6000000000000716 -2.27 " stroke="#191919" stroke-width="0.35 px" style="stroke-width:0.35;stroke-miterlimit:4;stroke-dasharray:none;fill:none;fill-opacity:1;fill-rule: evenodd"/>
<path id="Shape2DView_nwe0043"  d="M -2.75 -3.27 L -2.749193253648296 -3.27 L -2.746775617951888 -3.27 L -2.742754894585887 -3.27 L -2.73714405836592 -3.27 L -2.729961215378589 -3.27 L -2.7212295445533936 -3.27 L -2.710977222864664 -3.27 L -2.699237334404875 -3.27 L -2.686047763622765 -3.27 L -2.6714510730707692 -3.27 L -2.655494366056287 -3.27 L -2.638229134639995 -3.27 L -2.619711093471719 -3.27 L -2.6000000000000716 -3.27 " stroke="#191919" stroke-width="0.35 px" style="stroke-width:0.35;stroke-miterlimit:4;stroke-dasharray:none;fill:none;fill-opacity:1;fill-rule: evenodd"/>
<path id="Shape2DView_nwe0044"  d="M -2.6000000000000716 -5.27 L -2.579696832188469 -5.27 L -2.5583825588818616 -5.27 L -2.5361225461279586 -5.27 L -2.512985060343106 -5.27 L -2.489041058954655 -5.27 L -2.4643639727906046 -5.27 L -2.439029480883887 -5.27 L -2.4131152783819214 -5.27 L -2.386700838273193 -5.27 L -2.359867167661604 -5.27 L -2.3326965593360374 -5.27 L -2.305272339397015 -5.27 L -2.2776786117144234 -5.27 L -2.25 -5.27 " stroke="#191919" stroke-width="0.35 px" style="stroke-width:0.35;stroke-miterlimit:4;stroke-dasharray:none;fill:none;fill-opacity:1;fill-rule: evenodd"/>
<path id="Shape2DView_nwe0045"  d="M -2.6000000000000716 -4.27 L -2.579696832188469 -4.27 L -2.5583825588818616 -4.27 L -2.5361225461279586 -4.27 L -2.512985060343106 -4.27 L -2.489041058954655 -4.27 L -2.4643639727906046 -4.27 L -2.439029480883887 -4.27 L -2.4131152783819214 -4.27 L -2.386700838273193 -4.27 L -2.359867167661604 -4.27 L -2.3326965593360374 -4.27 L -2.305272339397015 -4.27 L -2.2776786117144234 -4.27 L -2.25 -4.27 " stroke="#191919" stroke-width="0.35 px" style="stroke-width:0.35;stroke-miterlimit:4;stroke-dasharray:none;fill:none;fill-opacity:1;fill-rule: evenodd"/>
<path id="Shape2DView_nwe0046"  d="M -2.75 -4.27 L -2.749193253648296 -4.27 L -2.746775617951888 -4.27 L -2.742754894585887 -4.27 L -2.73714405836592 -4.27 L -2.729961215378589 -4.27 L -2.7212295445533936 -4.27 L -2.710977222864664 -4.27 L -2.699237334404875 -4.27 L -2.686047763622765 -4.27 L -2.6714510730707692 -4.27 L -2.655494366056287 -4.27 L -2.638229134639995 -4.27 L -2.619711093471719 -4.27 L -2.6000000000000716 -4.27 " stroke="#191919" stroke-width="0.35 px" style="stroke-width:0.35;stroke-miterlimit:4;stroke-dasharray:none;fill:none;fill-opacity:1;fill-rule: evenodd"/>
<path id="Shape2DView_nwe0047"  d="M -2.75 -5.27 L -2.749193253648296 -5.27 L -2.746775617951888 -5.27 L -2.742754894585887 -5.27 L -2.73714405836592 -5.27 L -2.729961215378589 -5.27 L -2.7212295445533936 -5.27 L -2.710977222864664 -5.27 L -2.699237334404875 -5.27 L -2.686047763622765 -5.27 L -2.6714510730707692 -5.27 L -2.655494366056287 -5.27 L -2.638229134639995 -5.27 L -2.619711093471719 -5.27 L -2.6000000000000716 -5.27 " stroke="#191919" stroke-width="0.35 px" style="stroke-width:0.35;stroke-miterlimit:4;stroke-dasharray:none;fill:none;fill-opacity:1;fill-rule: evenodd"/>
<path id="Shape2DView_nwe0048"  d="M -2.6 -1.27 L -2.6 -2.27 " stroke="#191919" stroke-width="0.35 px" style="stroke-width:0.35;stroke-miterlimit:4;stroke-dasharray:none;fill:none;fill-opacity:1;fill-rule: evenodd"/>
<path id="Shape2DView_nwe0049"  d="M -2.6 -5.27 L -2.6 -6.27 " stroke="#191919" stroke-width="0.35 px" style="stroke-width:0.35;stroke-miterlimit:4;stroke-dasharray:none;fill:none;fill-opacity:1;fill-rule: evenodd"/>
<path id="Shape2DView_nwe0050"  d="M -2.6 -3.27 L -2.6 -4.27 " stroke="#191919" stroke-width="0.35 px" style="stroke-width:0.35;stroke-miterlimit:4;stroke-dasharray:none;fill:none;fill-opacity:1;fill-rule: evenodd"/>
<path id="Shape2DView_nwe0051"  d="M -2.2 -2.2699999999999996 L -2.2 -1.2699999999999996 " stroke="#191919" stroke-width="0.35 px" style="stroke-width:0.35;stroke-miterlimit:4;stroke-dasharray:none;fill:none;fill-opacity:1;fill-rule: evenodd"/>
<path id="Shape2DView_nwe0052"  d="M -2.2 -6.27 L -2.2 -5.27 " stroke="#191919" stroke-width="0.35 px" style="stroke-width:0.35;stroke-miterlimit:4;stroke-dasharray:none;fill:none;fill-opacity:1;fill-rule: evenodd"/>
<path id="Shape2DView_nwe0053"  d="M -2.2 -4.27 L -2.2 -3.2699999999999996 " stroke="#191919" stroke-width="0.35 px" style="stroke-width:0.35;stroke-miterlimit:4;stroke-dasharray:none;fill:none;fill-opacity:1;fill-rule: evenodd"/>
<path id="Shape2DView_nwe0054"  d="M -2.4 -2.2699999999999996 L -2.4 -1.2699999999999996 " stroke="#191919" stroke-width="0.35 px" style="stroke-width:0.35;stroke-miterlimit:4;stroke-dasharray:none;fill:none;fill-opacity:1;fill-rule: evenodd"/>
<path id="Shape2DView_nwe0055"  d="M -2.4 -4.27 L -2.4 -3.2699999999999996 " stroke="#191919" stroke-width="0.35 px" style="stroke-width:0.35;stroke-miterlimit:4;stroke-dasharray:none;fill:none;fill-opacity:1;fill-rule: evenodd"/>
<path id="Shape2DView_nwe0056"  d="M -2.4 -6.27 L -2.4 -5.27 " stroke="#191919" stroke-width="0.35 px" style="stroke-width:0.35;stroke-miterlimit:4;stroke-dasharray:none;fill:none;fill-opacity:1;fill-rule: evenodd"/>
<path id="Shape2DView_nwe0057"  d="M -2.25 -1.2699999999999996 L -2.25 2.1899999999999995 " stroke="#191919" stroke-width="0.35 px" style="stroke-width:0.35;stroke-miterlimit:4;stroke-dasharray:none;fill:none;fill-opacity:1;fill-rule: evenodd"/>
<path id="Shape2DView_nwe0058"  d="M -2.25 -9.81 L -2.25 -6.27 " stroke="#191919" stroke-width="0.35 px" style="stroke-width:0.35;stroke-miterlimit:4;stroke-dasharray:none;fill:none;fill-opacity:1;fill-rule: evenodd"/>
<path id="Shape2DView_nwe0059"  d="M -2.25 -5.27 L -2.25 -4.27 " stroke="#191919" stroke-width="0.35 px" style="stroke-width:0.35;stroke-miterlimit:4;stroke-dasharray:none;fill:none;fill-opacity:1;fill-rule: evenodd"/>
<path id="Shape2DView_nwe0060"  d="M -2.25 -3.2699999999999996 L -2.25 -2.2699999999999996 " stroke="#191919" stroke-width="0.35 px" style="stroke-width:0.35;stroke-miterlimit:4;stroke-dasharray:none;fill:none;fill-opacity:1;fill-rule: evenodd"/>
<title>b'Shape2DView'</title>
</g>
<g id="Rectangle" transform="translate(2.805000,2.245000) scale(1,-1)">
<rect fill="#ff0000" id="origin" width="1" height="1" x="0" y="0" />
<title>b'Rectangle'</title>
</g>
</svg>