<?xml version="1.0"?>
<!DOCTYPE svg PUBLIC "-//W3C//DTD SVG 1.1//EN" "http://www.w3.org/Graphics/SVG/1.1/DTD/svg11.dtd">
<svg width="18.87000000000055mm" height="29.77000000000027mm" viewBox="0 0 18.87000000000055 29.77000000000027" xmlns="http://www.w3.org/2000/svg" version="1.1">
<g id="Shape2DView" transform="translate(1.815000,29.285000) scale(1,-1)">
<path id="Shape2DView_nwe0000"  d="M 16.87 4.5 L 16.87 24.1 " stroke="#191919" stroke-width="0.35 px" style="stroke-width:0.35;stroke-miterlimit:4;stroke-dasharray:none;fill:none;fill-opacity:1;fill-rule: evenodd"/>
<path id="Shape2DView_nwe0001"  d="M 16.87 24.1 L 13.315071655172 24.1 " stroke="#191919" stroke-width="0.35 px" style="stroke-width:0.35;stroke-miterlimit:4;stroke-dasharray:none;fill:none;fill-opacity:1;fill-rule: evenodd"/>
<path id="Shape2DView_nwe0002"  d="M 16.87000000000027 24.100000000000268 L 16.868742441978917 24.098742441978914 L 16.864985582436628 24.094985582436625 L 16.858776666061928 24.088776666061925 L 16.850193773580727 24.080193773580724 L 16.839344839845886 24.069344839845883 L 16.82636629649382 24.056366296493817 L 16.811421356237503 24.0414213562375 L 16.794697960371916 24.024697960371913 L 16.776406415303214 24.00640641530321 L 16.75677674782363 23.986776747823626 L 16.736055812391125 23.966055812391122 L 16.714504186791324 23.94450418679132 L 16.692392895220692 23.92239289522069 L 16.67 23.9 " stroke="#191919" stroke-width="0.35 px" style="stroke-width:0.35;stroke-miterlimit:4;stroke-dasharray:none;fill:none;fill-opacity:1;fill-rule: evenodd"/>
<path id="Shape2DView_nwe0003"  d="M 16.87000000000027 4.499999999999731 L 16.868742441978917 4.501257558021084 L 16.864985582436628 4.505014417563372 L 16.858776666061928 4.511223333938072 L 16.850193773580727 4.5198062264192735 L 16.839344839845886 4.530655160154115 L 16.82636629649382 4.543633703506184 L 16.811421356237503 4.5585786437625 L 16.794697960371916 4.5753020396280855 L 16.776406415303214 4.59359358469679 L 16.75677674782363 4.613223252176372 L 16.736055812391125 4.633944187608877 L 16.714504186791324 4.6554958132086774 L 16.692392895220692 4.677607104779308 L 16.67 4.7 " stroke="#191919" stroke-width="0.35 px" style="stroke-width:0.35;stroke-miterlimit:4;stroke-dasharray:none;fill:none;fill-opacity:1;fill-rule: evenodd"/>
<path id="Shape2DView_nwe0004"  d="M -1.63 4.5 L 16.87 4.5 " stroke="#191919" stroke-width="0.35 px" style="stroke-width:0.35;stroke-miterlimit:4;stroke-dasharray:none;fill:none;fill-opacity:1;fill-rule: evenodd"/>
<path id="Shape2DView_nwe0005"  d="M 13.290174624834002 24.08793852415718 L 13.291887723031449 24.089585469233427 L 13.2936152331957 24.091114561157227 L 13.295356081444247 24.092524849390003 L 13.297109185603151 24.093815457245814 L 13.29887345587976 24.094985582436365 L 13.300647795540156 24.096034497569708 L 13.302431101590935 24.09696155060244 L 13.30422226546486 24.097766165245023 L 13.306020173709987 24.098447841320034 L 13.307823708681829 24.099006155073077 L 13.309631749238124 24.099440759436234 L 13.311443171435775 24.099751384243785 L 13.313256849229536 24.099937836400162 L 13.315071655172 24.099999999999998 " stroke="#191919" stroke-width="0.35 px" style="stroke-width:0.35;stroke-miterlimit:4;stroke-dasharray:none;fill:none;fill-opacity:1;fill-rule: evenodd"/>
<path id="Shape2DView_nwe0006"  d="M 13.102236100677 23.9 L 13.119667249226545 23.917431148549543 L 13.136965736210412 23.93472963553341 L 13.153999909697543 23.95176380902054 L 13.170640129342186 23.968404028665184 L 13.186759753025205 23.9845236523482 L 13.202236100677078 24.000000000000078 L 13.216951387947303 24.0147152872703 L 13.230793622614415 24.02855752193741 L 13.24365745691443 24.04142135623743 L 13.255444989300933 24.05320888862393 L 13.266066509534951 24.06383040885795 L 13.275441181434056 24.073205080757056 L 13.283497658084515 24.08126155740751 L 13.290174624834384 24.08793852415738 " stroke="#191919" stroke-width="0.35 px" style="stroke-width:0.35;stroke-miterlimit:4;stroke-dasharray:none;fill:none;fill-opacity:1;fill-rule: evenodd"/>
<path id="Shape2DView_nwe0007"  d="M 14.73455556881 29.072727272727 L 14.73455556881 24.1 " stroke="#191919" stroke-width="0.35 px" style="stroke-width:0.35;stroke-miterlimit:4;stroke-dasharray:none;fill:none;fill-opacity:1;fill-rule: evenodd"/>
<path id="Shape2DView_nwe0008"  d="M 13.308481191830603 28.71653571370822 L 14.734555568809911 29.07272727272718 " stroke="#191919" stroke-width="0.35 px" style="stroke-width:0.35;stroke-miterlimit:4;stroke-dasharray:none;fill:none;fill-opacity:1;fill-rule: evenodd"/>
<path id="Shape2DView_nwe0009"  d="M 13.290174624834002 28.70529559657218 L 13.291441366073984 28.706526084236625 L 13.292716157495928 28.70769212728254 L 13.293998564813869 28.70879332847151 L 13.295288151147316 28.709829312654925 L 13.296584477170091 28.710799726901808 L 13.29788710125999 28.71170424061902 L 13.29919557964923 28.71254254566391 L 13.300509466575635 28.71331435644928 L 13.301828314434488 28.714019410040667 L 13.303151673931021 28.71465746624593 L 13.30447909423348 28.71522830769708 L 13.305810123126705 28.715731739924312 L 13.307144307166185 28.71616759142228 L 13.308481191832545 28.716535713708502 " stroke="#191919" stroke-width="0.35 px" style="stroke-width:0.35;stroke-miterlimit:4;stroke-dasharray:none;fill:none;fill-opacity:1;fill-rule: evenodd"/>
<path id="Shape2DView_nwe0010"  d="M 15.82 29.072727272727533 L 15.82 29.100000000000257 " stroke="#191919" stroke-width="0.35 px" style="stroke-width:0.35;stroke-miterlimit:4;stroke-dasharray:none;fill:none;fill-opacity:1;fill-rule: evenodd"/>
<path id="Shape2DView_nwe0011"  d="M 15.82 29.072727272727 L 15.82 24.1 " stroke="#191919" stroke-width="0.35 px" style="stroke-width:0.35;stroke-miterlimit:4;stroke-dasharray:none;fill:none;fill-opacity:1;fill-rule: evenodd"/>
<path id="Shape2DView_nwe0012"  d="M 14.73455556881 29.072727272727 L 15.82 29.072727272727 " stroke="#191919" stroke-width="0.35 px" style="stroke-width:0.35;stroke-miterlimit:4;stroke-dasharray:none;fill:none;fill-opacity:1;fill-rule: evenodd"/>
<path id="Shape2DView_nwe0013"  d="M -1.43 4.7 L -1.4523928952206917 4.677607104779309 L -1.4745041867913227 4.6554958132086774 L -1.4960558123911223 4.633944187608877 L -1.5167767478236285 4.613223252176372 L -1.5364064153032104 4.59359358469679 L -1.5546979603719147 4.5753020396280855 L -1.5714213562375 4.5585786437625 L -1.5863662964938166 4.543633703506184 L -1.599344839845885 4.530655160154115 L -1.6101937735807264 4.5198062264192735 L -1.6187766660619278 4.511223333938072 L -1.6249855824366273 4.505014417563372 L -1.628742441978916 4.501257558021084 L -1.6300000000002695 4.499999999999731 " stroke="#191919" stroke-width="0.35 px" style="stroke-width:0.35;stroke-miterlimit:4;stroke-dasharray:none;fill:none;fill-opacity:1;fill-rule: evenodd"/>
<path id="Shape2DView_nwe0014"  d="M -1.63 24.1 L -1.63 4.5 " stroke="#191919" stroke-width="0.35 px" style="stroke-width:0.35;stroke-miterlimit:4;stroke-dasharray:none;fill:none;fill-opacity:1;fill-rule: evenodd"/>
<path id="Shape2DView_nwe0015"  d="M 1.924928344828 24.1 L -1.63 24.1 " stroke="#191919" stroke-width="0.35 px" style="stroke-width:0.35;stroke-miterlimit:4;stroke-dasharray:none;fill:none;fill-opacity:1;fill-rule: evenodd"/>
<path id="Shape2DView_nwe0016"  d="M -0.58 24.1 L -0.58 29.072727272727 " stroke="#191919" stroke-width="0.35 px" style="stroke-width:0.35;stroke-miterlimit:4;stroke-dasharray:none;fill:none;fill-opacity:1;fill-rule: evenodd"/>
<path id="Shape2DView_nwe0017"  d="M -0.58 29.09999999999989 L -0.58 29.072727272727168 " stroke="#191919" stroke-width="0.35 px" style="stroke-width:0.35;stroke-miterlimit:4;stroke-dasharray:none;fill:none;fill-opacity:1;fill-rule: evenodd"/>
<path id="Shape2DView_nwe0018"  d="M 15.64 0.3 L 15.64 4.5 " stroke="#191919" stroke-width="0.35 px" style="stroke-width:0.35;stroke-miterlimit:4;stroke-dasharray:none;fill:none;fill-opacity:1;fill-rule: evenodd"/>
<path id="Shape2DView_nwe0019"  d="M 14.84 4.5 L 14.84 0.2999999999999998 " stroke="#191919" stroke-width="0.35 px" style="stroke-width:0.35;stroke-miterlimit:4;stroke-dasharray:none;fill:none;fill-opacity:1;fill-rule: evenodd"/>
<path id="Shape2DView_nwe0020"  d="M 15.64 0.3 L 15.64 0.23282131433801528 L 15.64 0.16648743962621135 L 15.64 0.10183256282689973 L 15.64 0.03966975652946514 L 15.64 -0.019219245909201932 L 15.64 -0.07409388111524007 L 15.64 -0.12426406871192847 L 15.64 -0.16909888948081786 L 15.64 -0.20803451953697044 L 15.64 -0.2405813207414515 L 15.64 -0.2663299981850205 L 15.64 -0.2849567473090942 L 15.64 -0.29622732593594553 L 15.64 -0.3 " stroke="#191919" stroke-width="0.35 px" style="stroke-width:0.35;stroke-miterlimit:4;stroke-dasharray:none;fill:none;fill-opacity:1;fill-rule: evenodd"/>
<path id="Shape2DView_nwe0021"  d="M 14.84 0.3 L 14.84 0.23282131433801528 L 14.84 0.16648743962621135 L 14.84 0.10183256282689973 L 14.84 0.03966975652946514 L 14.84 -0.019219245909201932 L 14.84 -0.07409388111524007 L 14.84 -0.12426406871192847 L 14.84 -0.16909888948081786 L 14.84 -0.20803451953697044 L 14.84 -0.2405813207414515 L 14.84 -0.2663299981850205 L 14.84 -0.2849567473090942 L 14.84 -0.29622732593594553 L 14.84 -0.3 " stroke="#191919" stroke-width="0.35 px" style="stroke-width:0.35;stroke-miterlimit:4;stroke-dasharray:none;fill:none;fill-opacity:1;fill-rule: evenodd"/>
<path id="Shape2DView_nwe0022"  d="M 12.3 0.3 L 12.3 0.23282131433801528 L 12.3 0.16648743962621135 L 12.3 0.10183256282689973 L 12.3 0.03966975652946514 L 12.3 -0.019219245909201932 L 12.3 -0.07409388111524007 L 12.3 -0.12426406871192847 L 12.3 -0.16909888948081786 L 12.3 -0.20803451953697044 L 12.3 -0.2405813207414515 L 12.3 -0.2663299981850205 L 12.3 -0.2849567473090942 L 12.3 -0.29622732593594553 L 12.3 -0.3 " stroke="#191919" stroke-width="0.35 px" style="stroke-width:0.35;stroke-miterlimit:4;stroke-dasharray:none;fill:none;fill-opacity:1;fill-rule: evenodd"/>
<path id="Shape2DView_nwe0023"  d="M 12.3 4.5 L 12.3 0.2999999999999998 " stroke="#191919" stroke-width="0.35 px" style="stroke-width:0.35;stroke-miterlimit:4;stroke-dasharray:none;fill:none;fill-opacity:1;fill-rule: evenodd"/>
<path id="Shape2DView_nwe0024"  d="M 13.1 0.3 L 13.1 4.5 " stroke="#191919" stroke-width="0.35 px" style="stroke-width:0.35;stroke-miterlimit:4;stroke-dasharray:none;fill:none;fill-opacity:1;fill-rule: evenodd"/>
<path id="Shape2DView_nwe0025"  d="M 13.1 0.3 L 13.1 0.23282131433801528 L 13.1 0.16648743962621135 L 13.1 0.10183256282689973 L 13.1 0.03966975652946514 L 13.1 -0.019219245909201932 L 13.1 -0.07409388111524007 L 13.1 -0.12426406871192847 L 13.1 -0.16909888948081786 L 13.1 -0.20803451953697044 L 13.1 -0.2405813207414515 L 13.1 -0.2663299981850205 L 13.1 -0.2849567473090942 L 13.1 -0.29622732593594553 L 13.1 -0.3 " stroke="#191919" stroke-width="0.35 px" style="stroke-width:0.35;stroke-miterlimit:4;stroke-dasharray:none;fill:none;fill-opacity:1;fill-rule: evenodd"/>
<path id="Shape2DView_nwe0026"  d="M 5.48 0.3 L 5.48 0.23282131433801528 L 5.48 0.16648743962621135 L 5.48 0.10183256282689973 L 5.48 0.03966975652946514 L 5.48 -0.019219245909201932 L 5.48 -0.07409388111524007 L 5.48 -0.12426406871192847 L 5.48 -0.16909888948081786 L 5.48 -0.20803451953697044 L 5.48 -0.2405813207414515 L 5.48 -0.2663299981850205 L 5.48 -0.2849567473090942 L 5.48 -0.29622732593594553 L 5.48 -0.3 " stroke="#191919" stroke-width="0.35 px" style="stroke-width:0.35;stroke-miterlimit:4;stroke-dasharray:none;fill:none;fill-opacity:1;fill-rule: evenodd"/>
<path id="Shape2DView_nwe0027"  d="M 5.48 0.3 L 5.48 4.5 " stroke="#191919" stroke-width="0.35 px" style="stroke-width:0.35;stroke-miterlimit:4;stroke-dasharray:none;fill:none;fill-opacity:1;fill-rule: evenodd"/>
<path id="Shape2DView_nwe0028"  d="M 4.68 0.3 L 4.68 0.23282131433801528 L 4.68 0.16648743962621135 L 4.68 0.10183256282689973 L 4.68 0.03966975652946514 L 4.68 -0.019219245909201932 L 4.68 -0.07409388111524007 L 4.68 -0.12426406871192847 L 4.68 -0.16909888948081786 L 4.68 -0.20803451953697044 L 4.68 -0.2405813207414515 L 4.68 -0.2663299981850205 L 4.68 -0.2849567473090942 L 4.68 -0.29622732593594553 L 4.68 -0.3 " stroke="#191919" stroke-width="0.35 px" style="stroke-width:0.35;stroke-miterlimit:4;stroke-dasharray:none;fill:none;fill-opacity:1;fill-rule: evenodd"/>
<path id="Shape2DView_nwe0029"  d="M 4.68 4.5 L 4.68 0.2999999999999998 " stroke="#191919" stroke-width="0.35 px" style="stroke-width:0.35;stroke-miterlimit:4;stroke-dasharray:none;fill:none;fill-opacity:1;fill-rule: evenodd"/>
<path id="Shape2DView_nwe0030"  d="M 0.4 0.3 L 0.4 0.23282131433801528 L 0.4 0.16648743962621135 L 0.4 0.10183256282689973 L 0.4 0.03966975652946514 L 0.4 -0.019219245909201932 L 0.4 -0.07409388111524007 L 0.4 -0.12426406871192847 L 0.4 -0.16909888948081786 L 0.4 -0.20803451953697044 L 0.4 -0.2405813207414515 L 0.4 -0.2663299981850205 L 0.4 -0.2849567473090942 L 0.4 -0.29622732593594553 L 0.4 -0.3 " stroke="#191919" stroke-width="0.35 px" style="stroke-width:0.35;stroke-miterlimit:4;stroke-dasharray:none;fill:none;fill-opacity:1;fill-rule: evenodd"/>
<path id="Shape2DView_nwe0031"  d="M 0.4 0.3 L 0.4 4.5 " stroke="#191919" stroke-width="0.35 px" style="stroke-width:0.35;stroke-miterlimit:4;stroke-dasharray:none;fill:none;fill-opacity:1;fill-rule: evenodd"/>
<path id="Shape2DView_nwe0032"  d="M -0.4 0.3 L -0.4 0.23282131433801528 L -0.4 0.16648743962621135 L -0.4 0.10183256282689973 L -0.4 0.03966975652946514 L -0.4 -0.019219245909201932 L -0.4 -0.07409388111524007 L -0.4 -0.12426406871192847 L -0.4 -0.16909888948081786 L -0.4 -0.20803451953697044 L -0.4 -0.2405813207414515 L -0.4 -0.2663299981850205 L -0.4 -0.2849567473090942 L -0.4 -0.29622732593594553 L -0.4 -0.3 " stroke="#191919" stroke-width="0.35 px" style="stroke-width:0.35;stroke-miterlimit:4;stroke-dasharray:none;fill:none;fill-opacity:1;fill-rule: evenodd"/>
<path id="Shape2DView_nwe0033"  d="M -0.4 4.5 L -0.4 0.2999999999999998 " stroke="#191919" stroke-width="0.35 px" style="stroke-width:0.35;stroke-miterlimit:4;stroke-dasharray:none;fill:none;fill-opacity:1;fill-rule: evenodd"/>
<path id="Shape2DView_nwe0034"  d="M 13.102236100677 28.517357072415 L 13.119667249226545 28.534788220964543 L 13.136965736210412 28.552086707948412 L 13.153999909697543 28.56912088143554 L 13.170640129342186 28.585761101080184 L 13.186759753025205 28.601880724763202 L 13.202236100677078 28.61735707241508 L 13.216951387947303 28.6320723596853 L 13.230793622614415 28.645914594352412 L 13.24365745691443 28.65877842865243 L 13.255444989300933 28.670565961038932 L 13.266066509534951 28.68118748127295 L 13.275441181434056 28.690562153172056 L 13.283497658084515 28.698618629822512 L 13.290174624834384 28.70529559657238 " stroke="#191919" stroke-width="0.35 px" style="stroke-width:0.35;stroke-miterlimit:4;stroke-dasharray:none;fill:none;fill-opacity:1;fill-rule: evenodd"/>
<path id="Shape2DView_nwe0035"  d="M 15.82 29.1 L -0.5799999999999983 29.1 " stroke="#191919" stroke-width="0.35 px" style="stroke-width:0.35;stroke-miterlimit:4;stroke-dasharray:none;fill:none;fill-opacity:1;fill-rule: evenodd"/>
<path id="Shape2DView_nwe0036"  d="M -0.5800000000000001 29.072727272727 L 0.5054444311899999 29.072727272727 " stroke="#191919" stroke-width="0.35 px" style="stroke-width:0.35;stroke-miterlimit:4;stroke-dasharray:none;fill:none;fill-opacity:1;fill-rule: evenodd"/>
<path id="Shape2DView_nwe0037"  d="M 0.5054444311878461 29.072727272726784 L 1.9315188081671553 28.716535713707817 " stroke="#191919" stroke-width="0.35 px" style="stroke-width:0.35;stroke-miterlimit:4;stroke-dasharray:none;fill:none;fill-opacity:1;fill-rule: evenodd"/>
<path id="Shape2DView_nwe0038"  d="M 1.9498253751659977 28.70529559657218 L 1.9485586339260152 28.706526084236625 L 1.947283842504071 28.70769212728254 L 1.9460014351861306 28.70879332847151 L 1.9447118488526827 28.70982931265493 L 1.9434155228299077 28.710799726901808 L 1.9421128987400098 28.71170424061902 L 1.9408044203507697 28.71254254566391 L 1.9394905334243653 28.71331435644928 L 1.9381716855655122 28.714019410040667 L 1.9368483260689777 28.71465746624593 L 1.9355209057665186 28.71522830769708 L 1.9341898768732955 28.715731739924312 L 1.932855692833815 28.71616759142228 L 1.9315188081674548 28.716535713708502 " stroke="#191919" stroke-width="0.35 px" style="stroke-width:0.35;stroke-miterlimit:4;stroke-dasharray:none;fill:none;fill-opacity:1;fill-rule: evenodd"/>
<path id="Shape2DView_nwe0039"  d="M 2.137763899323 28.517357072415 L 2.1203327507734557 28.534788220964543 L 2.103034263789589 28.552086707948412 L 2.086000090302458 28.56912088143554 L 2.069359870657815 28.585761101080184 L 2.053240246974796 28.601880724763202 L 2.037763899322922 28.61735707241508 L 2.023048612052699 28.6320723596853 L 2.0092063773855857 28.645914594352412 L 1.9963425430855695 28.65877842865243 L 1.9845550106990681 28.670565961038932 L 1.9739334904650496 28.68118748127295 L 1.9645588185659444 28.690562153172056 L 1.9565023419154857 28.698618629822512 L 1.9498253751656176 28.70529559657238 " stroke="#191919" stroke-width="0.35 px" style="stroke-width:0.35;stroke-miterlimit:4;stroke-dasharray:none;fill:none;fill-opacity:1;fill-rule: evenodd"/>
<path id="Shape2DView_nwe0040"  d="M -1.43 23.9 L -1.4523928952206917 23.92239289522069 L -1.4745041867913227 23.94450418679132 L -1.4960558123911223 23.966055812391122 L -1.5167767478236285 23.986776747823626 L -1.5364064153032104 24.00640641530321 L -1.5546979603719147 24.024697960371913 L -1.5714213562375 24.0414213562375 L -1.5863662964938166 24.056366296493817 L -1.599344839845885 24.069344839845883 L -1.6101937735807264 24.080193773580724 L -1.6187766660619278 24.088776666061925 L -1.6249855824366273 24.094985582436625 L -1.628742441978916 24.098742441978914 L -1.6300000000002695 24.100000000000268 " stroke="#191919" stroke-width="0.35 px" style="stroke-width:0.35;stroke-miterlimit:4;stroke-dasharray:none;fill:none;fill-opacity:1;fill-rule: evenodd"/>
<path id="Shape2DView_nwe0041"  d="M 2.137763899323 23.9 L 2.1203327507734557 23.917431148549543 L 2.103034263789589 23.93472963553341 L 2.086000090302458 23.95176380902054 L 2.069359870657815 23.968404028665184 L 2.053240246974796 23.9845236523482 L 2.037763899322922 24.000000000000078 L 2.023048612052699 24.0147152872703 L 2.0092063773855857 24.02855752193741 L 1.9963425430855695 24.04142135623743 L 1.9845550106990681 24.05320888862393 L 1.9739334904650496 24.06383040885795 L 1.9645588185659444 24.073205080757056 L 1.9565023419154857 24.08126155740751 L 1.9498253751656176 24.08793852415738 " stroke="#191919" stroke-width="0.35 px" style="stroke-width:0.35;stroke-miterlimit:4;stroke-dasharray:none;fill:none;fill-opacity:1;fill-rule: evenodd"/>
<path id="Shape2DView_nwe0042"  d="M 1.9498253751659977 24.08793852415718 L 1.94811227696855 24.089585469233427 L 1.9463847668043 24.091114561157227 L 1.9446439185557531 24.092524849390003 L 1.9428908143968489 24.093815457245814 L 1.941126544120241 24.094985582436365 L 1.9393522044598441 24.096034497569708 L 1.9375688984090649 24.09696155060244 L 1.9357777345351403 24.097766165245023 L 1.9339798262900134 24.098447841320034 L 1.9321762913181713 24.099006155073077 L 1.9303682507618767 24.099440759436234 L 1.9285568285642256 24.099751384243785 L 1.9267431507704649 24.099937836400162 L 1.924928344828 24.099999999999998 " stroke="#191919" stroke-width="0.35 px" style="stroke-width:0.35;stroke-miterlimit:4;stroke-dasharray:none;fill:none;fill-opacity:1;fill-rule: evenodd"/>
<circle cx="7.62" cy="25.9" r="1.6" stroke="#191919" stroke-width="0.35 px" style="stroke-width:0.35;stroke-miterlimit:4;stroke-dasharray:none;fill:none"/>
<path id="Shape2DView_nwe0044"  d="M 0.50544443119 24.1 L 0.50544443119 29.072727272727 " stroke="#191919" stroke-width="0.35 px" style="stroke-width:0.35;stroke-miterlimit:4;stroke-dasharray:none;fill:none;fill-opacity:1;fill-rule: evenodd"/>
<path id="Shape2DView_nwe0045"  d="M 14.84 -0.3 L 15.64 -0.3 " stroke="#191919" stroke-width="0.35 px" style="stroke-width:0.35;stroke-miterlimit:4;stroke-dasharray:none;fill:none;fill-opacity:1;fill-rule: evenodd"/>
<path id="Shape2DView_nwe0046"  d="M 12.3 -0.3 L 13.1 -0.3 " stroke="#191919" stroke-width="0.35 px" style="stroke-width:0.35;stroke-miterlimit:4;stroke-dasharray:none;fill:none;fill-opacity:1;fill-rule: evenodd"/>
<path id="Shape2DView_nwe0047"  d="M 4.68 -0.3 L 5.48 -0.3 " stroke="#191919" stroke-width="0.35 px" style="stroke-width:0.35;stroke-miterlimit:4;stroke-dasharray:none;fill:none;fill-opacity:1;fill-rule: evenodd"/>
<path id="Shape2DView_nwe0048"  d="M -0.4 -0.3 L 0.4 -0.3 " stroke="#191919" stroke-width="0.35 px" style="stroke-width:0.35;stroke-miterlimit:4;stroke-dasharray:none;fill:none;fill-opacity:1;fill-rule: evenodd"/>
<path id="Shape2DView_nwe0049"  d="M 16.67 4.7 L 16.67 23.9 " stroke="#191919" stroke-width="0.35 px" style="stroke-width:0.35;stroke-miterlimit:4;stroke-dasharray:none;fill:none;fill-opacity:1;fill-rule: evenodd"/>
<path id="Shape2DView_nwe0050"  d="M 16.67 23.9 L 13.102236100677 23.9 " stroke="#191919" stroke-width="0.35 px" style="stroke-width:0.35;stroke-miterlimit:4;stroke-dasharray:none;fill:none;fill-opacity:1;fill-rule: evenodd"/>
<path id="Shape2DView_nwe0051"  d="M 13.290174624834 24.087938524157 L 13.290174624834 28.705295596572 " stroke="#191919" stroke-width="0.35 px" style="stroke-width:0.35;stroke-miterlimit:4;stroke-dasharray:none;fill:none;fill-opacity:1;fill-rule: evenodd"/>
<path id="Shape2DView_nwe0052"  d="M -1.43 4.7 L 16.67 4.7 " stroke="#191919" stroke-width="0.35 px" style="stroke-width:0.35;stroke-miterlimit:4;stroke-dasharray:none;fill:none;fill-opacity:1;fill-rule: evenodd"/>
<path id="Shape2DView_nwe0053"  d="M 13.102236100677 23.9 L 13.102236100677 28.517357072415 " stroke="#191919" stroke-width="0.35 px" style="stroke-width:0.35;stroke-miterlimit:4;stroke-dasharray:none;fill:none;fill-opacity:1;fill-rule: evenodd"/>
<path id="Shape2DView_nwe0054"  d="M 13.102236100677 28.517357072415 L 2.1377638993229997 28.517357072415 " stroke="#191919" stroke-width="0.35 px" style="stroke-width:0.35;stroke-miterlimit:4;stroke-dasharray:none;fill:none;fill-opacity:1;fill-rule: evenodd"/>
<path id="Shape2DView_nwe0055"  d="M 2.137763899323 28.517357072415 L 2.137763899323 23.9 " stroke="#191919" stroke-width="0.35 px" style="stroke-width:0.35;stroke-miterlimit:4;stroke-dasharray:none;fill:none;fill-opacity:1;fill-rule: evenodd"/>
<path id="Shape2DView_nwe0056"  d="M 2.137763899323 23.9 L -1.4299999999999997 23.9 " stroke="#191919" stroke-width="0.35 px" style="stroke-width:0.35;stroke-miterlimit:4;stroke-dasharray:none;fill:none;fill-opacity:1;fill-rule: evenodd"/>
<path id="Shape2DView_nwe0057"  d="M -1.43 23.9 L -1.43 4.699999999999999 " stroke="#191919" stroke-width="0.35 px" style="stroke-width:0.35;stroke-miterlimit:4;stroke-dasharray:none;fill:none;fill-opacity:1;fill-rule: evenodd"/>
<circle cx="7.62" cy="25.9" r="1.8" stroke="#191919" stroke-width="0.35 px" style="stroke-width:0.35;stroke-miterlimit:4;stroke-dasharray:none;fill:none"/>
<circle cx="7.62" cy="25.9" r="1.6" stroke="#191919" stroke-width="0.35 px" style="stroke-width:0.35;stroke-miterlimit:4;stroke-dasharray:none;fill:none"/>
<path id="Shape2DView_nwe0060"  d="M 14.84 0.3 L 15.64 0.3 " stroke="#191919" stroke-width="0.35 px" style="stroke-width:0.35;stroke-miterlimit:4;stroke-dasharray:none;fill:none;fill-opacity:1;fill-rule: evenodd"/>
<path id="Shape2DView_nwe0061"  d="M 12.3 0.3 L 13.1 0.3 " stroke="#191919" stroke-width="0.35 px" style="stroke-width:0.35;stroke-miterlimit:4;stroke-dasharray:none;fill:none;fill-opacity:1;fill-rule: evenodd"/>
<path id="Shape2DView_nwe0062"  d="M 4.68 0.3 L 5.48 0.3 " stroke="#191919" stroke-width="0.35 px" style="stroke-width:0.35;stroke-miterlimit:4;stroke-dasharray:none;fill:none;fill-opacity:1;fill-rule: evenodd"/>
<path id="Shape2DView_nwe0063"  d="M -0.4 0.3 L 0.4 0.3 " stroke="#191919" stroke-width="0.35 px" style="stroke-width:0.35;stroke-miterlimit:4;stroke-dasharray:none;fill:none;fill-opacity:1;fill-rule: evenodd"/>
<path id="Shape2DView_nwe0064"  d="M 13.308481191833 28.716535713708 L 1.9315188081670005 28.716535713708 " stroke="#191919" stroke-width="0.35 px" style="stroke-width:0.35;stroke-miterlimit:4;stroke-dasharray:none;fill:none;fill-opacity:1;fill-rule: evenodd"/>
<path id="Shape2DView_nwe0065"  d="M 1.949825375166 28.705295596572 L 1.949825375166 24.087938524157 " stroke="#191919" stroke-width="0.35 px" style="stroke-width:0.35;stroke-miterlimit:4;stroke-dasharray:none;fill:none;fill-opacity:1;fill-rule: evenodd"/>
<path id="Shape2DView_nwe0066"  d="M 9.42 25.9 L 9.397607104779338 25.9 L 9.375495813208737 25.9 L 9.353944187608967 25.9 L 9.333223252176488 25.9 L 9.313593584696932 25.9 L 9.295302039628254 25.9 L 9.27857864376269 25.9 L 9.263633703506393 25.9 L 9.250655160154343 25.9 L 9.239806226419516 25.9 L 9.231223333938326 25.9 L 9.225014417563635 25.9 L 9.221257558021351 25.9 L 9.22 25.9 " stroke="#191919" stroke-width="0.35 px" style="stroke-width:0.35;stroke-miterlimit:4;stroke-dasharray:none;fill:none;fill-opacity:1;fill-rule: evenodd"/>
<title>b'Shape2DView'</title>
</g>
<g id="Rectangle" transform="translate(1.815000,29.285000) scale(1,-1)">
<rect fill="#ff0000" id="origin" width="1" height="1" x="0" y="0" />
<title>b'Rectangle'</title>
</g>
</svg>