<?xml version="1.0"?>
<!DOCTYPE svg PUBLIC "-//W3C//DTD SVG 1.1//EN" "http://www.w3.org/Graphics/SVG/1.1/DTD/svg11.dtd">
<svg width="31.620000000000548mm" height="5.69500000000001mm" viewBox="0 0 31.620000000000548 5.69500000000001" xmlns="http://www.w3.org/2000/svg" version="1.1">
<g id="Shape2DView" transform="translate(1.530000,5.110000) scale(1,-1)">
<path id="Shape2DView_nwe0000"  d="M -1.02 -2.775557561563e-17 L 3.7300000000000004 -2.775557561563e-17 " stroke="#191919" stroke-width="0.35 px" style="stroke-width:0.35;stroke-miterlimit:4;stroke-dasharray:none;fill:none;fill-opacity:1;fill-rule: evenodd"/>
<path id="Shape2DView_nwe0001"  d="M 3.73 0.0 L 3.9763218474272772 0.0 L 4.219546054703891 0.0 L 4.456613936301368 0.0 L 4.684544226058628 0.0 L 4.90047056833374 0.0 L 5.101677564089214 0.0 L 5.285634918610405 0.0 L 5.450029261429666 0.0 L 5.592793238302225 0.0 L 5.712131509385323 0.0 L 5.806543326678408 0.0 L 5.874841406800012 0.0 L 5.916166861765134 0.0 L 5.93 0.0 " stroke="#191919" stroke-width="0.35 px" style="stroke-width:0.35;stroke-miterlimit:4;stroke-dasharray:none;fill:none;fill-opacity:1;fill-rule: evenodd"/>
<path id="Shape2DView_nwe0002"  d="M 5.93 -2.775557561563e-17 L 22.63 -2.775557561563e-17 " stroke="#191919" stroke-width="0.35 px" style="stroke-width:0.35;stroke-miterlimit:4;stroke-dasharray:none;fill:none;fill-opacity:1;fill-rule: evenodd"/>
<path id="Shape2DView_nwe0003"  d="M 22.63 0.0 L 22.643833138234864 0.0 L 22.685158593199986 0.0 L 22.75345667332159 0.0 L 22.847868490614676 0.0 L 22.967206761697774 0.0 L 23.109970738570333 0.0 L 23.274365081389593 0.0 L 23.458322435910784 0.0 L 23.659529431666257 0.0 L 23.87545577394137 0.0 L 24.10338606369863 0.0 L 24.340453945296108 0.0 L 24.58367815257272 0.0 L 24.83 0.0 " stroke="#191919" stroke-width="0.35 px" style="stroke-width:0.35;stroke-miterlimit:4;stroke-dasharray:none;fill:none;fill-opacity:1;fill-rule: evenodd"/>
<path id="Shape2DView_nwe0004"  d="M 24.83 -2.775557561563e-17 L 29.58 -2.775557561563e-17 " stroke="#191919" stroke-width="0.35 px" style="stroke-width:0.35;stroke-miterlimit:4;stroke-dasharray:none;fill:none;fill-opacity:1;fill-rule: evenodd"/>
<path id="Shape2DView_nwe0005"  d="M 3.7300000000000004 -2.775557561563e-17 L 24.83 -2.775557561563e-17 " stroke="#191919" stroke-width="0.35 px" style="stroke-width:0.35;stroke-miterlimit:4;stroke-dasharray:none;fill:none;fill-opacity:1;fill-rule: evenodd"/>
<path id="Shape2DView_nwe0006"  d="M -1.02 0.0 L -1.0423928952206918 0.001257558021351468 L -1.0645041867913227 0.005014417563635271 L -1.0860558123911224 0.011223333938326474 L -1.1067767478236286 0.019806226419516182 L -1.1264064153032107 0.030655160154343164 L -1.1446979603719147 0.043633703506394006 L -1.1614213562375 0.05857864376269048 L -1.1763662964938166 0.07530203962825328 L -1.189344839845885 0.09359358469693267 L -1.2001937735807267 0.11322325217648836 L -1.208776666061928 0.13394418760896656 L -1.2149855824366274 0.15549581320873712 L -1.2187424419789163 0.17760710477933842 L -1.2200000000002693 0.19999999999999998 " stroke="#191919" stroke-width="0.35 px" style="stroke-width:0.35;stroke-miterlimit:4;stroke-dasharray:none;fill:none;fill-opacity:1;fill-rule: evenodd"/>
<path id="Shape2DView_nwe0008"  d="M 5.93 0.0 A 0.2 0.2 0 0 0 5.73 0.2" stroke="#191919" stroke-width="0.35 px" style="stroke-width:0.35;stroke-miterlimit:4;stroke-dasharray:none;fill:none;fill-opacity:1;fill-rule: evenodd"/>
<path id="Shape2DView_nwe0009"  d="M 29.58 0.0 L 29.60239289522069 0.001257558021351468 L 29.62450418679132 0.005014417563635271 L 29.646055812391122 0.011223333938326474 L 29.666776747823626 0.019806226419516182 L 29.68640641530321 0.030655160154343164 L 29.704697960371913 0.043633703506394006 L 29.7214213562375 0.05857864376269048 L 29.736366296493816 0.07530203962825328 L 29.749344839845882 0.09359358469693267 L 29.760193773580724 0.11322325217648836 L 29.768776666061925 0.13394418760896656 L 29.774985582436624 0.15549581320873712 L 29.778742441978913 0.17760710477933842 L 29.780000000000268 0.19999999999999998 " stroke="#191919" stroke-width="0.35 px" style="stroke-width:0.35;stroke-miterlimit:4;stroke-dasharray:none;fill:none;fill-opacity:1;fill-rule: evenodd"/>
<path id="Shape2DView_nwe0010"  d="M 5.93 0.0 L 5.907607104779308 0.001257558021351468 L 5.885495813208677 0.005014417563635271 L 5.863944187608878 0.011223333938326474 L 5.843223252176371 0.019806226419516154 L 5.8235935846967894 0.030655160154343164 L 5.805302039628085 0.043633703506394006 L 5.7885786437624995 0.05857864376269048 L 5.773633703506183 0.07530203962825327 L 5.760655160154115 0.09359358469693264 L 5.749806226419273 0.11322325217648833 L 5.741223333938072 0.13394418760896654 L 5.735014417563372 0.15549581320873707 L 5.731257558021084 0.1776071047793384 L 5.72999999999973 0.19999999999999996 " stroke="#191919" stroke-width="0.35 px" style="stroke-width:0.35;stroke-miterlimit:4;stroke-dasharray:none;fill:none;fill-opacity:1;fill-rule: evenodd"/>
<path id="Shape2DView_nwe0011"  d="M 29.58 0.0 L 29.60239289522069 0.001257558021351468 L 29.62450418679132 0.005014417563635271 L 29.646055812391122 0.011223333938326474 L 29.666776747823626 0.019806226419516154 L 29.68640641530321 0.030655160154343164 L 29.704697960371913 0.043633703506394006 L 29.7214213562375 0.05857864376269048 L 29.736366296493816 0.07530203962825327 L 29.749344839845882 0.09359358469693264 L 29.760193773580724 0.11322325217648833 L 29.768776666061925 0.13394418760896654 L 29.774985582436624 0.15549581320873707 L 29.778742441978913 0.1776071047793384 L 29.780000000000268 0.19999999999999996 " stroke="#191919" stroke-width="0.35 px" style="stroke-width:0.35;stroke-miterlimit:4;stroke-dasharray:none;fill:none;fill-opacity:1;fill-rule: evenodd"/>
<path id="Shape2DView_nwe0012"  d="M 22.63 0.0 L 22.65239289522069 0.001257558021351468 L 22.67450418679132 0.005014417563635271 L 22.696055812391123 0.011223333938326474 L 22.716776747823626 0.019806226419516182 L 22.73640641530321 0.030655160154343164 L 22.754697960371914 0.043633703506394006 L 22.7714213562375 0.05857864376269048 L 22.786366296493817 0.07530203962825328 L 22.799344839845883 0.09359358469693267 L 22.810193773580725 0.11322325217648836 L 22.818776666061925 0.13394418760896656 L 22.824985582436625 0.15549581320873712 L 22.828742441978914 0.17760710477933842 L 22.83000000000027 0.19999999999999998 " stroke="#191919" stroke-width="0.35 px" style="stroke-width:0.35;stroke-miterlimit:4;stroke-dasharray:none;fill:none;fill-opacity:1;fill-rule: evenodd"/>
<path id="Shape2DView_nwe0013"  d="M 22.63 0.0 A 0.2 0.2 0 0 1 22.83 0.2" stroke="#191919" stroke-width="0.35 px" style="stroke-width:0.35;stroke-miterlimit:4;stroke-dasharray:none;fill:none;fill-opacity:1;fill-rule: evenodd"/>
<path id="Shape2DView_nwe0014"  d="M -1.22 3.1 L -1.22 0.20000000000000018 " stroke="#191919" stroke-width="0.35 px" style="stroke-width:0.35;stroke-miterlimit:4;stroke-dasharray:none;fill:none;fill-opacity:1;fill-rule: evenodd"/>
<path id="Shape2DView_nwe0015"  d="M -1.22 4.8 L -1.22 3.1 " stroke="#191919" stroke-width="0.35 px" style="stroke-width:0.35;stroke-miterlimit:4;stroke-dasharray:none;fill:none;fill-opacity:1;fill-rule: evenodd"/>
<path id="Shape2DView_nwe0016"  d="M 5.73 3.1 L 5.73 0.20000000000000018 " stroke="#191919" stroke-width="0.35 px" style="stroke-width:0.35;stroke-miterlimit:4;stroke-dasharray:none;fill:none;fill-opacity:1;fill-rule: evenodd"/>
<path id="Shape2DView_nwe0017"  d="M 29.78 0.19999999999999996 L 29.78 3.1 " stroke="#191919" stroke-width="0.35 px" style="stroke-width:0.35;stroke-miterlimit:4;stroke-dasharray:none;fill:none;fill-opacity:1;fill-rule: evenodd"/>
<path id="Shape2DView_nwe0018"  d="M 29.78 3.1 L 29.78 4.8 " stroke="#191919" stroke-width="0.35 px" style="stroke-width:0.35;stroke-miterlimit:4;stroke-dasharray:none;fill:none;fill-opacity:1;fill-rule: evenodd"/>
<path id="Shape2DView_nwe0019"  d="M 22.83 0.20000000000000018 L 22.83 3.1 " stroke="#191919" stroke-width="0.35 px" style="stroke-width:0.35;stroke-miterlimit:4;stroke-dasharray:none;fill:none;fill-opacity:1;fill-rule: evenodd"/>
<path id="Shape2DView_nwe0020"  d="M 22.83 3.1 L 29.78 3.1 " stroke="#191919" stroke-width="0.35 px" style="stroke-width:0.35;stroke-miterlimit:4;stroke-dasharray:none;fill:none;fill-opacity:1;fill-rule: evenodd"/>
<path id="Shape2DView_nwe0021"  d="M 29.78 4.8 L -1.2199999999999989 4.8 " stroke="#191919" stroke-width="0.35 px" style="stroke-width:0.35;stroke-miterlimit:4;stroke-dasharray:none;fill:none;fill-opacity:1;fill-rule: evenodd"/>
<path id="Shape2DView_nwe0022"  d="M -1.2200000000000006 3.1 L 5.73 3.1 " stroke="#191919" stroke-width="0.35 px" style="stroke-width:0.35;stroke-miterlimit:4;stroke-dasharray:none;fill:none;fill-opacity:1;fill-rule: evenodd"/>
<path id="Shape2DView_nwe0023"  d="M 17.125 -0.10996072029759707 L 17.125 -0.1316478177024421 L 17.125 -0.15202233864316334 L 17.125 -0.17101851830930198 L 17.125 -0.18857504089574967 L 17.125 -0.20463523751769824 L 17.125 -0.21914726912627674 L 17.125 -0.2320642938344596 L 17.125 -0.24334461811315244 L 17.125 -0.2529518313694262 L 17.125 -0.2608549234725067 L 17.125 -0.26702838484817093 L 17.125 -0.2714522888184653 L 17.125 -0.27411235592096994 L 17.125 -0.275 " stroke="#191919" stroke-width="0.35 px" style="stroke-width:0.35;stroke-miterlimit:4;stroke-dasharray:none;fill:none;fill-opacity:1;fill-rule: evenodd"/>
<path id="Shape2DView_nwe0024"  d="M 17.125 -0.1099607202979638 L 17.125 -5.551115123125783e-17 " stroke="#191919" stroke-width="0.35 px" style="stroke-width:0.35;stroke-miterlimit:4;stroke-dasharray:none;fill:none;fill-opacity:1;fill-rule: evenodd"/>
<path id="Shape2DView_nwe0025"  d="M 16.475 -0.10996072029759707 L 16.475 -0.1316478177024421 L 16.475 -0.15202233864316334 L 16.475 -0.17101851830930198 L 16.475 -0.18857504089574967 L 16.475 -0.20463523751769824 L 16.475 -0.21914726912627674 L 16.475 -0.2320642938344596 L 16.475 -0.24334461811315244 L 16.475 -0.2529518313694262 L 16.475 -0.2608549234725067 L 16.475 -0.26702838484817093 L 16.475 -0.2714522888184653 L 16.475 -0.27411235592096994 L 16.475 -0.275 " stroke="#191919" stroke-width="0.35 px" style="stroke-width:0.35;stroke-miterlimit:4;stroke-dasharray:none;fill:none;fill-opacity:1;fill-rule: evenodd"/>
<path id="Shape2DView_nwe0026"  d="M 16.475 -0.1099607202979638 L 16.475 -5.551115123125783e-17 " stroke="#191919" stroke-width="0.35 px" style="stroke-width:0.35;stroke-miterlimit:4;stroke-dasharray:none;fill:none;fill-opacity:1;fill-rule: evenodd"/>
<path id="Shape2DView_nwe0027"  d="M 13.765 -0.10996072029759707 L 13.765 -0.1316478177024421 L 13.765 -0.15202233864316334 L 13.765 -0.17101851830930198 L 13.765 -0.18857504089574967 L 13.765 -0.20463523751769824 L 13.765 -0.21914726912627674 L 13.765 -0.2320642938344596 L 13.765 -0.24334461811315244 L 13.765 -0.2529518313694262 L 13.765 -0.2608549234725067 L 13.765 -0.26702838484817093 L 13.765 -0.2714522888184653 L 13.765 -0.27411235592096994 L 13.765 -0.275 " stroke="#191919" stroke-width="0.35 px" style="stroke-width:0.35;stroke-miterlimit:4;stroke-dasharray:none;fill:none;fill-opacity:1;fill-rule: evenodd"/>
<path id="Shape2DView_nwe0028"  d="M 13.765 -0.1099607202979638 L 13.765 -5.551115123125783e-17 " stroke="#191919" stroke-width="0.35 px" style="stroke-width:0.35;stroke-miterlimit:4;stroke-dasharray:none;fill:none;fill-opacity:1;fill-rule: evenodd"/>
<path id="Shape2DView_nwe0029"  d="M 13.115 -0.10996072029759707 L 13.115 -0.1316478177024421 L 13.115 -0.15202233864316334 L 13.115 -0.17101851830930198 L 13.115 -0.18857504089574967 L 13.115 -0.20463523751769824 L 13.115 -0.21914726912627674 L 13.115 -0.2320642938344596 L 13.115 -0.24334461811315244 L 13.115 -0.2529518313694262 L 13.115 -0.2608549234725067 L 13.115 -0.26702838484817093 L 13.115 -0.2714522888184653 L 13.115 -0.27411235592096994 L 13.115 -0.275 " stroke="#191919" stroke-width="0.35 px" style="stroke-width:0.35;stroke-miterlimit:4;stroke-dasharray:none;fill:none;fill-opacity:1;fill-rule: evenodd"/>
<path id="Shape2DView_nwe0030"  d="M 13.115 -0.1099607202979638 L 13.115 -5.551115123125783e-17 " stroke="#191919" stroke-width="0.35 px" style="stroke-width:0.35;stroke-miterlimit:4;stroke-dasharray:none;fill:none;fill-opacity:1;fill-rule: evenodd"/>
<path id="Shape2DView_nwe0031"  d="M 3.685 -0.10996072029759707 L 3.685 -0.1316478177024421 L 3.685 -0.15202233864316334 L 3.685 -0.17101851830930198 L 3.685 -0.18857504089574967 L 3.685 -0.20463523751769824 L 3.685 -0.21914726912627674 L 3.685 -0.2320642938344596 L 3.685 -0.24334461811315244 L 3.685 -0.2529518313694262 L 3.685 -0.2608549234725067 L 3.685 -0.26702838484817093 L 3.685 -0.2714522888184653 L 3.685 -0.27411235592096994 L 3.685 -0.275 " stroke="#191919" stroke-width="0.35 px" style="stroke-width:0.35;stroke-miterlimit:4;stroke-dasharray:none;fill:none;fill-opacity:1;fill-rule: evenodd"/>
<path id="Shape2DView_nwe0032"  d="M 3.685 -0.1099607202979638 L 3.685 -5.551115123125783e-17 " stroke="#191919" stroke-width="0.35 px" style="stroke-width:0.35;stroke-miterlimit:4;stroke-dasharray:none;fill:none;fill-opacity:1;fill-rule: evenodd"/>
<path id="Shape2DView_nwe0033"  d="M 3.035 -0.10996072029759707 L 3.035 -0.1316478177024421 L 3.035 -0.15202233864316334 L 3.035 -0.17101851830930198 L 3.035 -0.18857504089574967 L 3.035 -0.20463523751769824 L 3.035 -0.21914726912627674 L 3.035 -0.2320642938344596 L 3.035 -0.24334461811315244 L 3.035 -0.2529518313694262 L 3.035 -0.2608549234725067 L 3.035 -0.26702838484817093 L 3.035 -0.2714522888184653 L 3.035 -0.27411235592096994 L 3.035 -0.275 " stroke="#191919" stroke-width="0.35 px" style="stroke-width:0.35;stroke-miterlimit:4;stroke-dasharray:none;fill:none;fill-opacity:1;fill-rule: evenodd"/>
<path id="Shape2DView_nwe0034"  d="M 3.035 -0.1099607202979638 L 3.035 -5.551115123125783e-17 " stroke="#191919" stroke-width="0.35 px" style="stroke-width:0.35;stroke-miterlimit:4;stroke-dasharray:none;fill:none;fill-opacity:1;fill-rule: evenodd"/>
<path id="Shape2DView_nwe0035"  d="M 7.045 -0.10996072029759707 L 7.045 -0.1316478177024421 L 7.045 -0.15202233864316334 L 7.045 -0.17101851830930198 L 7.045 -0.18857504089574967 L 7.045 -0.20463523751769824 L 7.045 -0.21914726912627674 L 7.045 -0.2320642938344596 L 7.045 -0.24334461811315244 L 7.045 -0.2529518313694262 L 7.045 -0.2608549234725067 L 7.045 -0.26702838484817093 L 7.045 -0.2714522888184653 L 7.045 -0.27411235592096994 L 7.045 -0.275 " stroke="#191919" stroke-width="0.35 px" style="stroke-width:0.35;stroke-miterlimit:4;stroke-dasharray:none;fill:none;fill-opacity:1;fill-rule: evenodd"/>
<path id="Shape2DView_nwe0036"  d="M 7.045 -0.1099607202979638 L 7.045 -5.551115123125783e-17 " stroke="#191919" stroke-width="0.35 px" style="stroke-width:0.35;stroke-miterlimit:4;stroke-dasharray:none;fill:none;fill-opacity:1;fill-rule: evenodd"/>
<path id="Shape2DView_nwe0037"  d="M 6.395 -0.10996072029759707 L 6.395 -0.1316478177024421 L 6.395 -0.15202233864316334 L 6.395 -0.17101851830930198 L 6.395 -0.18857504089574967 L 6.395 -0.20463523751769824 L 6.395 -0.21914726912627674 L 6.395 -0.2320642938344596 L 6.395 -0.24334461811315244 L 6.395 -0.2529518313694262 L 6.395 -0.2608549234725067 L 6.395 -0.26702838484817093 L 6.395 -0.2714522888184653 L 6.395 -0.27411235592096994 L 6.395 -0.275 " stroke="#191919" stroke-width="0.35 px" style="stroke-width:0.35;stroke-miterlimit:4;stroke-dasharray:none;fill:none;fill-opacity:1;fill-rule: evenodd"/>
<path id="Shape2DView_nwe0038"  d="M 6.395 -0.1099607202979638 L 6.395 -5.551115123125783e-17 " stroke="#191919" stroke-width="0.35 px" style="stroke-width:0.35;stroke-miterlimit:4;stroke-dasharray:none;fill:none;fill-opacity:1;fill-rule: evenodd"/>
<path id="Shape2DView_nwe0039"  d="M 10.405 -0.10996072029759707 L 10.405 -0.1316478177024421 L 10.405 -0.15202233864316334 L 10.405 -0.17101851830930198 L 10.405 -0.18857504089574967 L 10.405 -0.20463523751769824 L 10.405 -0.21914726912627674 L 10.405 -0.2320642938344596 L 10.405 -0.24334461811315244 L 10.405 -0.2529518313694262 L 10.405 -0.2608549234725067 L 10.405 -0.26702838484817093 L 10.405 -0.2714522888184653 L 10.405 -0.27411235592096994 L 10.405 -0.275 " stroke="#191919" stroke-width="0.35 px" style="stroke-width:0.35;stroke-miterlimit:4;stroke-dasharray:none;fill:none;fill-opacity:1;fill-rule: evenodd"/>
<path id="Shape2DView_nwe0040"  d="M 10.405 -0.1099607202979638 L 10.405 -5.551115123125783e-17 " stroke="#191919" stroke-width="0.35 px" style="stroke-width:0.35;stroke-miterlimit:4;stroke-dasharray:none;fill:none;fill-opacity:1;fill-rule: evenodd"/>
<path id="Shape2DView_nwe0041"  d="M 9.755 -0.10996072029759707 L 9.755 -0.1316478177024421 L 9.755 -0.15202233864316334 L 9.755 -0.17101851830930198 L 9.755 -0.18857504089574967 L 9.755 -0.20463523751769824 L 9.755 -0.21914726912627674 L 9.755 -0.2320642938344596 L 9.755 -0.24334461811315244 L 9.755 -0.2529518313694262 L 9.755 -0.2608549234725067 L 9.755 -0.26702838484817093 L 9.755 -0.2714522888184653 L 9.755 -0.27411235592096994 L 9.755 -0.275 " stroke="#191919" stroke-width="0.35 px" style="stroke-width:0.35;stroke-miterlimit:4;stroke-dasharray:none;fill:none;fill-opacity:1;fill-rule: evenodd"/>
<path id="Shape2DView_nwe0042"  d="M 9.755 -0.1099607202979638 L 9.755 -5.551115123125783e-17 " stroke="#191919" stroke-width="0.35 px" style="stroke-width:0.35;stroke-miterlimit:4;stroke-dasharray:none;fill:none;fill-opacity:1;fill-rule: evenodd"/>
<path id="Shape2DView_nwe0043"  d="M 23.195 -0.10996072029759707 L 23.195 -0.1316478177024421 L 23.195 -0.15202233864316334 L 23.195 -0.17101851830930198 L 23.195 -0.18857504089574967 L 23.195 -0.20463523751769824 L 23.195 -0.21914726912627674 L 23.195 -0.2320642938344596 L 23.195 -0.24334461811315244 L 23.195 -0.2529518313694262 L 23.195 -0.2608549234725067 L 23.195 -0.26702838484817093 L 23.195 -0.2714522888184653 L 23.195 -0.27411235592096994 L 23.195 -0.275 " stroke="#191919" stroke-width="0.35 px" style="stroke-width:0.35;stroke-miterlimit:4;stroke-dasharray:none;fill:none;fill-opacity:1;fill-rule: evenodd"/>
<path id="Shape2DView_nwe0044"  d="M 23.195 -0.1099607202979638 L 23.195 0.0 " stroke="#191919" stroke-width="0.35 px" style="stroke-width:0.35;stroke-miterlimit:4;stroke-dasharray:none;fill:none;fill-opacity:1;fill-rule: evenodd"/>
<path id="Shape2DView_nwe0045"  d="M 23.845 -0.10996072029759707 L 23.845 -0.1316478177024421 L 23.845 -0.15202233864316334 L 23.845 -0.17101851830930198 L 23.845 -0.18857504089574967 L 23.845 -0.20463523751769824 L 23.845 -0.21914726912627674 L 23.845 -0.2320642938344596 L 23.845 -0.24334461811315244 L 23.845 -0.2529518313694262 L 23.845 -0.2608549234725067 L 23.845 -0.26702838484817093 L 23.845 -0.2714522888184653 L 23.845 -0.27411235592096994 L 23.845 -0.275 " stroke="#191919" stroke-width="0.35 px" style="stroke-width:0.35;stroke-miterlimit:4;stroke-dasharray:none;fill:none;fill-opacity:1;fill-rule: evenodd"/>
<path id="Shape2DView_nwe0046"  d="M 23.845 -0.1099607202979638 L 23.845 0.0 " stroke="#191919" stroke-width="0.35 px" style="stroke-width:0.35;stroke-miterlimit:4;stroke-dasharray:none;fill:none;fill-opacity:1;fill-rule: evenodd"/>
<path id="Shape2DView_nwe0047"  d="M 20.485 -0.10996072029759707 L 20.485 -0.1316478177024421 L 20.485 -0.15202233864316334 L 20.485 -0.17101851830930198 L 20.485 -0.18857504089574967 L 20.485 -0.20463523751769824 L 20.485 -0.21914726912627674 L 20.485 -0.2320642938344596 L 20.485 -0.24334461811315244 L 20.485 -0.2529518313694262 L 20.485 -0.2608549234725067 L 20.485 -0.26702838484817093 L 20.485 -0.2714522888184653 L 20.485 -0.27411235592096994 L 20.485 -0.275 " stroke="#191919" stroke-width="0.35 px" style="stroke-width:0.35;stroke-miterlimit:4;stroke-dasharray:none;fill:none;fill-opacity:1;fill-rule: evenodd"/>
<path id="Shape2DView_nwe0048"  d="M 20.485 -0.1099607202979638 L 20.485 -5.551115123125783e-17 " stroke="#191919" stroke-width="0.35 px" style="stroke-width:0.35;stroke-miterlimit:4;stroke-dasharray:none;fill:none;fill-opacity:1;fill-rule: evenodd"/>
<path id="Shape2DView_nwe0049"  d="M 19.835 -0.10996072029759707 L 19.835 -0.1316478177024421 L 19.835 -0.15202233864316334 L 19.835 -0.17101851830930198 L 19.835 -0.18857504089574967 L 19.835 -0.20463523751769824 L 19.835 -0.21914726912627674 L 19.835 -0.2320642938344596 L 19.835 -0.24334461811315244 L 19.835 -0.2529518313694262 L 19.835 -0.2608549234725067 L 19.835 -0.26702838484817093 L 19.835 -0.2714522888184653 L 19.835 -0.27411235592096994 L 19.835 -0.275 " stroke="#191919" stroke-width="0.35 px" style="stroke-width:0.35;stroke-miterlimit:4;stroke-dasharray:none;fill:none;fill-opacity:1;fill-rule: evenodd"/>
<path id="Shape2DView_nwe0050"  d="M 19.835 -0.1099607202979638 L 19.835 -5.551115123125783e-17 " stroke="#191919" stroke-width="0.35 px" style="stroke-width:0.35;stroke-miterlimit:4;stroke-dasharray:none;fill:none;fill-opacity:1;fill-rule: evenodd"/>
<path id="Shape2DView_nwe0051"  d="M 26.555 -0.10996072029759707 L 26.555 -0.1316478177024421 L 26.555 -0.15202233864316334 L 26.555 -0.17101851830930198 L 26.555 -0.18857504089574967 L 26.555 -0.20463523751769824 L 26.555 -0.21914726912627674 L 26.555 -0.2320642938344596 L 26.555 -0.24334461811315244 L 26.555 -0.2529518313694262 L 26.555 -0.2608549234725067 L 26.555 -0.26702838484817093 L 26.555 -0.2714522888184653 L 26.555 -0.27411235592096994 L 26.555 -0.275 " stroke="#191919" stroke-width="0.35 px" style="stroke-width:0.35;stroke-miterlimit:4;stroke-dasharray:none;fill:none;fill-opacity:1;fill-rule: evenodd"/>
<path id="Shape2DView_nwe0052"  d="M 26.555 -0.1099607202979638 L 26.555 -5.551115123125783e-17 " stroke="#191919" stroke-width="0.35 px" style="stroke-width:0.35;stroke-miterlimit:4;stroke-dasharray:none;fill:none;fill-opacity:1;fill-rule: evenodd"/>
<path id="Shape2DView_nwe0053"  d="M 27.205 -0.10996072029759707 L 27.205 -0.1316478177024421 L 27.205 -0.15202233864316334 L 27.205 -0.17101851830930198 L 27.205 -0.18857504089574967 L 27.205 -0.20463523751769824 L 27.205 -0.21914726912627674 L 27.205 -0.2320642938344596 L 27.205 -0.24334461811315244 L 27.205 -0.2529518313694262 L 27.205 -0.2608549234725067 L 27.205 -0.26702838484817093 L 27.205 -0.2714522888184653 L 27.205 -0.27411235592096994 L 27.205 -0.275 " stroke="#191919" stroke-width="0.35 px" style="stroke-width:0.35;stroke-miterlimit:4;stroke-dasharray:none;fill:none;fill-opacity:1;fill-rule: evenodd"/>
<path id="Shape2DView_nwe0054"  d="M 27.205 -0.1099607202979638 L 27.205 -5.551115123125783e-17 " stroke="#191919" stroke-width="0.35 px" style="stroke-width:0.35;stroke-miterlimit:4;stroke-dasharray:none;fill:none;fill-opacity:1;fill-rule: evenodd"/>
<path id="Shape2DView_nwe0055"  d="M 0.325 -0.10996072029759707 L 0.325 -0.1316478177024421 L 0.325 -0.15202233864316334 L 0.325 -0.17101851830930198 L 0.325 -0.18857504089574967 L 0.325 -0.20463523751769824 L 0.325 -0.21914726912627674 L 0.325 -0.2320642938344596 L 0.325 -0.24334461811315244 L 0.325 -0.2529518313694262 L 0.325 -0.2608549234725067 L 0.325 -0.26702838484817093 L 0.325 -0.2714522888184653 L 0.325 -0.27411235592096994 L 0.325 -0.275 " stroke="#191919" stroke-width="0.35 px" style="stroke-width:0.35;stroke-miterlimit:4;stroke-dasharray:none;fill:none;fill-opacity:1;fill-rule: evenodd"/>
<path id="Shape2DView_nwe0056"  d="M 0.325 -0.1099607202979638 L 0.325 -5.551115123125783e-17 " stroke="#191919" stroke-width="0.35 px" style="stroke-width:0.35;stroke-miterlimit:4;stroke-dasharray:none;fill:none;fill-opacity:1;fill-rule: evenodd"/>
<path id="Shape2DView_nwe0057"  d="M -0.325 -0.10996072029759707 L -0.325 -0.1316478177024421 L -0.325 -0.15202233864316334 L -0.325 -0.17101851830930198 L -0.325 -0.18857504089574967 L -0.325 -0.20463523751769824 L -0.325 -0.21914726912627674 L -0.325 -0.2320642938344596 L -0.325 -0.24334461811315244 L -0.325 -0.2529518313694262 L -0.325 -0.2608549234725067 L -0.325 -0.26702838484817093 L -0.325 -0.2714522888184653 L -0.325 -0.27411235592096994 L -0.325 -0.275 " stroke="#191919" stroke-width="0.35 px" style="stroke-width:0.35;stroke-miterlimit:4;stroke-dasharray:none;fill:none;fill-opacity:1;fill-rule: evenodd"/>
<path id="Shape2DView_nwe0058"  d="M -0.325 -0.1099607202979638 L -0.325 -5.551115123125783e-17 " stroke="#191919" stroke-width="0.35 px" style="stroke-width:0.35;stroke-miterlimit:4;stroke-dasharray:none;fill:none;fill-opacity:1;fill-rule: evenodd"/>
<path id="Shape2DView_nwe0059"  d="M 16.475 -0.275 L 17.125 -0.275 " stroke="#191919" stroke-width="0.35 px" style="stroke-width:0.35;stroke-miterlimit:4;stroke-dasharray:none;fill:none;fill-opacity:1;fill-rule: evenodd"/>
<path id="Shape2DView_nwe0060"  d="M 13.115 -0.275 L 13.765 -0.275 " stroke="#191919" stroke-width="0.35 px" style="stroke-width:0.35;stroke-miterlimit:4;stroke-dasharray:none;fill:none;fill-opacity:1;fill-rule: evenodd"/>
<path id="Shape2DView_nwe0061"  d="M 3.035 -0.275 L 3.685 -0.275 " stroke="#191919" stroke-width="0.35 px" style="stroke-width:0.35;stroke-miterlimit:4;stroke-dasharray:none;fill:none;fill-opacity:1;fill-rule: evenodd"/>
<path id="Shape2DView_nwe0062"  d="M 6.395 -0.275 L 7.045 -0.275 " stroke="#191919" stroke-width="0.35 px" style="stroke-width:0.35;stroke-miterlimit:4;stroke-dasharray:none;fill:none;fill-opacity:1;fill-rule: evenodd"/>
<path id="Shape2DView_nwe0063"  d="M 9.755 -0.275 L 10.405 -0.275 " stroke="#191919" stroke-width="0.35 px" style="stroke-width:0.35;stroke-miterlimit:4;stroke-dasharray:none;fill:none;fill-opacity:1;fill-rule: evenodd"/>
<path id="Shape2DView_nwe0064"  d="M 23.195 -0.275 L 23.845 -0.275 " stroke="#191919" stroke-width="0.35 px" style="stroke-width:0.35;stroke-miterlimit:4;stroke-dasharray:none;fill:none;fill-opacity:1;fill-rule: evenodd"/>
<path id="Shape2DView_nwe0065"  d="M 19.835 -0.275 L 20.485 -0.275 " stroke="#191919" stroke-width="0.35 px" style="stroke-width:0.35;stroke-miterlimit:4;stroke-dasharray:none;fill:none;fill-opacity:1;fill-rule: evenodd"/>
<path id="Shape2DView_nwe0066"  d="M 26.555 -0.275 L 27.205 -0.275 " stroke="#191919" stroke-width="0.35 px" style="stroke-width:0.35;stroke-miterlimit:4;stroke-dasharray:none;fill:none;fill-opacity:1;fill-rule: evenodd"/>
<path id="Shape2DView_nwe0067"  d="M -0.325 -0.275 L 0.325 -0.275 " stroke="#191919" stroke-width="0.35 px" style="stroke-width:0.35;stroke-miterlimit:4;stroke-dasharray:none;fill:none;fill-opacity:1;fill-rule: evenodd"/>
<path id="Shape2DView_nwe0068"  d="M 3.73 0.0 L 3.73 0.001257558021351468 L 3.73 0.005014417563635271 L 3.73 0.011223333938326474 L 3.73 0.019806226419516182 L 3.73 0.030655160154343164 L 3.73 0.043633703506394034 L 3.73 0.05857864376269048 L 3.73 0.07530203962825328 L 3.73 0.09359358469693269 L 3.73 0.11322325217648838 L 3.73 0.1339441876089666 L 3.73 0.15549581320873712 L 3.73 0.17760710477933844 L 3.73 0.2 " stroke="#191919" stroke-width="0.35 px" style="stroke-width:0.35;stroke-miterlimit:4;stroke-dasharray:none;fill:none;fill-opacity:1;fill-rule: evenodd"/>
<path id="Shape2DView_nwe0069"  d="M -1.22 0.2 L 3.7300000000000004 0.2 " stroke="#191919" stroke-width="0.35 px" style="stroke-width:0.35;stroke-miterlimit:4;stroke-dasharray:none;fill:none;fill-opacity:1;fill-rule: evenodd"/>
<path id="Shape2DView_nwe0070"  d="M 3.73 0.2 L 3.9539289522066157 0.2 L 4.175041867912629 0.2 L 4.390558123910334 0.2 L 4.597767478235117 0.2 L 4.794064153030673 0.2 L 4.976979603717467 0.2 L 5.1442135623730945 0.2 L 5.293662964936059 0.2 L 5.423448398456568 0.2 L 5.5319377358048385 0.2 L 5.617766660616735 0.2 L 5.679855824363647 0.2 L 5.717424419786485 0.2 L 5.73 0.2 " stroke="#191919" stroke-width="0.35 px" style="stroke-width:0.35;stroke-miterlimit:4;stroke-dasharray:none;fill:none;fill-opacity:1;fill-rule: evenodd"/>
<path id="Shape2DView_nwe0071"  d="M 5.73 0.2 L 22.83 0.2 " stroke="#191919" stroke-width="0.35 px" style="stroke-width:0.35;stroke-miterlimit:4;stroke-dasharray:none;fill:none;fill-opacity:1;fill-rule: evenodd"/>
<path id="Shape2DView_nwe0072"  d="M 24.83 0.2 L 29.78 0.2 " stroke="#191919" stroke-width="0.35 px" style="stroke-width:0.35;stroke-miterlimit:4;stroke-dasharray:none;fill:none;fill-opacity:1;fill-rule: evenodd"/>
<path id="Shape2DView_nwe0073"  d="M 24.83 0.0 L 24.83 0.001257558021351468 L 24.83 0.005014417563635271 L 24.83 0.011223333938326474 L 24.83 0.019806226419516182 L 24.83 0.030655160154343164 L 24.83 0.043633703506394006 L 24.83 0.05857864376269048 L 24.83 0.07530203962825328 L 24.83 0.09359358469693267 L 24.83 0.11322325217648836 L 24.83 0.13394418760896656 L 24.83 0.15549581320873712 L 24.83 0.17760710477933842 L 24.83 0.19999999999999998 " stroke="#191919" stroke-width="0.35 px" style="stroke-width:0.35;stroke-miterlimit:4;stroke-dasharray:none;fill:none;fill-opacity:1;fill-rule: evenodd"/>
<path id="Shape2DView_nwe0075"  d="M 22.83 0.2 L 22.842575580213513 0.2 L 22.88014417563635 0.2 L 22.942233339383264 0.2 L 23.02806226419516 0.2 L 23.13655160154343 0.2 L 23.266337035063938 0.2 L 23.415786437626902 0.2 L 23.58302039628253 0.2 L 23.765935846969324 0.2 L 23.962232521764882 0.2 L 24.169441876089664 0.2 L 24.38495813208737 0.2 L 24.60607104779338 0.2 L 24.83 0.2 " stroke="#191919" stroke-width="0.35 px" style="stroke-width:0.35;stroke-miterlimit:4;stroke-dasharray:none;fill:none;fill-opacity:1;fill-rule: evenodd"/>
<path id="Shape2DView_nwe0076"  d="M 3.73 3.1 L 3.73 0.20000000000000018 " stroke="#191919" stroke-width="0.35 px" style="stroke-width:0.35;stroke-miterlimit:4;stroke-dasharray:none;fill:none;fill-opacity:1;fill-rule: evenodd"/>
<path id="Shape2DView_nwe0077"  d="M 24.83 3.1 L 24.83 0.20000000000000018 " stroke="#191919" stroke-width="0.35 px" style="stroke-width:0.35;stroke-miterlimit:4;stroke-dasharray:none;fill:none;fill-opacity:1;fill-rule: evenodd"/>
<path id="Shape2DView_nwe0078"  d="M 16.475 -0.109960720298 L 17.125 -0.109960720298 " stroke="#191919" stroke-width="0.35 px" style="stroke-width:0.35;stroke-miterlimit:4;stroke-dasharray:none;fill:none;fill-opacity:1;fill-rule: evenodd"/>
<path id="Shape2DView_nwe0079"  d="M 13.115 -0.109960720298 L 13.765 -0.109960720298 " stroke="#191919" stroke-width="0.35 px" style="stroke-width:0.35;stroke-miterlimit:4;stroke-dasharray:none;fill:none;fill-opacity:1;fill-rule: evenodd"/>
<path id="Shape2DView_nwe0080"  d="M 3.035 -0.109960720298 L 3.685 -0.109960720298 " stroke="#191919" stroke-width="0.35 px" style="stroke-width:0.35;stroke-miterlimit:4;stroke-dasharray:none;fill:none;fill-opacity:1;fill-rule: evenodd"/>
<path id="Shape2DView_nwe0081"  d="M 6.395 -0.109960720298 L 7.045 -0.109960720298 " stroke="#191919" stroke-width="0.35 px" style="stroke-width:0.35;stroke-miterlimit:4;stroke-dasharray:none;fill:none;fill-opacity:1;fill-rule: evenodd"/>
<path id="Shape2DView_nwe0082"  d="M 9.755 -0.109960720298 L 10.405 -0.109960720298 " stroke="#191919" stroke-width="0.35 px" style="stroke-width:0.35;stroke-miterlimit:4;stroke-dasharray:none;fill:none;fill-opacity:1;fill-rule: evenodd"/>
<path id="Shape2DView_nwe0083"  d="M 23.195 -0.109960720298 L 23.845 -0.109960720298 " stroke="#191919" stroke-width="0.35 px" style="stroke-width:0.35;stroke-miterlimit:4;stroke-dasharray:none;fill:none;fill-opacity:1;fill-rule: evenodd"/>
<path id="Shape2DView_nwe0084"  d="M 19.835 -0.109960720298 L 20.485 -0.109960720298 " stroke="#191919" stroke-width="0.35 px" style="stroke-width:0.35;stroke-miterlimit:4;stroke-dasharray:none;fill:none;fill-opacity:1;fill-rule: evenodd"/>
<path id="Shape2DView_nwe0085"  d="M 26.555 -0.109960720298 L 27.205 -0.109960720298 " stroke="#191919" stroke-width="0.35 px" style="stroke-width:0.35;stroke-miterlimit:4;stroke-dasharray:none;fill:none;fill-opacity:1;fill-rule: evenodd"/>
<path id="Shape2DView_nwe0086"  d="M -0.325 -0.109960720298 L 0.325 -0.109960720298 " stroke="#191919" stroke-width="0.35 px" style="stroke-width:0.35;stroke-miterlimit:4;stroke-dasharray:none;fill:none;fill-opacity:1;fill-rule: evenodd"/>
<title>b'Shape2DView'</title>
</g>
<g id="Rectangle" transform="translate(1.530000,5.110000) scale(1,-1)">
<rect fill="#ff0000" id="origin" width="1" height="1" x="0" y="0" />
<title>b'Rectangle'</title>
</g>
</svg>