<?xml version="1.0"?>
<!DOCTYPE svg PUBLIC "-//W3C//DTD SVG 1.1//EN" "http://www.w3.org/Graphics/SVG/1.1/DTD/svg11.dtd">
<svg width="104.0604mm" height="14.040400000000336mm" viewBox="0 0 104.0604 14.040400000000336" xmlns="http://www.w3.org/2000/svg" version="1.1">
<g id="Shape2DView" transform="translate(10.120200,3.020200) scale(1,-1)">
<path id="Shape2DView_nwe0000"  d="M -9.1 2.0 L 92.92 2.0 " stroke="#191919" stroke-width="0.35 px" style="stroke-width:0.35;stroke-miterlimit:4;stroke-dasharray:none;fill:none;fill-opacity:1;fill-rule: evenodd"/>
<path id="Shape2DView_nwe0001"  d="M 92.92 -7.0 L 92.92 2.0 " stroke="#191919" stroke-width="0.35 px" style="stroke-width:0.35;stroke-miterlimit:4;stroke-dasharray:none;fill:none;fill-opacity:1;fill-rule: evenodd"/>
<path id="Shape2DView_nwe0002"  d="M -9.1 -7.0 L -9.1 2.0 " stroke="#191919" stroke-width="0.35 px" style="stroke-width:0.35;stroke-miterlimit:4;stroke-dasharray:none;fill:none;fill-opacity:1;fill-rule: evenodd"/>
<path id="Shape2DView_nwe0003"  d="M -9.1 -10.0 L -9.1 -8.5 " stroke="#191919" stroke-width="0.35 px" style="stroke-width:0.35;stroke-miterlimit:4;stroke-dasharray:none;fill:none;fill-opacity:1;fill-rule: evenodd"/>
<path id="Shape2DView_nwe0004"  d="M -9.1 -8.5 L -9.1 -7.0 " stroke="#191919" stroke-width="0.35 px" style="stroke-width:0.35;stroke-miterlimit:4;stroke-dasharray:none;fill:none;fill-opacity:1;fill-rule: evenodd"/>
<path id="Shape2DView_nwe0005"  d="M 92.92 -10.0 L 92.92 -8.5 " stroke="#191919" stroke-width="0.35 px" style="stroke-width:0.35;stroke-miterlimit:4;stroke-dasharray:none;fill:none;fill-opacity:1;fill-rule: evenodd"/>
<path id="Shape2DView_nwe0006"  d="M 92.92 -8.5 L 92.92 -7.0 " stroke="#191919" stroke-width="0.35 px" style="stroke-width:0.35;stroke-miterlimit:4;stroke-dasharray:none;fill:none;fill-opacity:1;fill-rule: evenodd"/>
<path id="Shape2DView_nwe0007"  d="M -9.1 -7.0 L 92.92 -7.0 " stroke="#191919" stroke-width="0.35 px" style="stroke-width:0.35;stroke-miterlimit:4;stroke-dasharray:none;fill:none;fill-opacity:1;fill-rule: evenodd"/>
<path id="Shape2DView_nwe0008"  d="M 90.92 -10.0 L 92.92 -10.0 " stroke="#191919" stroke-width="0.35 px" style="stroke-width:0.35;stroke-miterlimit:4;stroke-dasharray:none;fill:none;fill-opacity:1;fill-rule: evenodd"/>
<path id="Shape2DView_nwe0009"  d="M 88.92 -10.0 L 90.92 -10.0 " stroke="#191919" stroke-width="0.35 px" style="stroke-width:0.35;stroke-miterlimit:4;stroke-dasharray:none;fill:none;fill-opacity:1;fill-rule: evenodd"/>
<path id="Shape2DView_nwe0010"  d="M 84.82 -10.0 L 88.92 -10.0 " stroke="#191919" stroke-width="0.35 px" style="stroke-width:0.35;stroke-miterlimit:4;stroke-dasharray:none;fill:none;fill-opacity:1;fill-rule: evenodd"/>
<path id="Shape2DView_nwe0011"  d="M 82.8200000000024 -10.0 L 82.95989208235126 -10.0 L 83.10114866312406 -10.0 L 83.24354564906709 -10.0 L 83.38685713775702 -10.0 L 83.53085577597871 -10.0 L 83.67531312040444 -10.0 L 83.8200000000026 -10.0 L 83.96468687960073 -10.0 L 84.10914422402647 -10.0 L 84.25314286224813 -10.0 L 84.39645435093803 -10.0 L 84.53885133688101 -10.0 L 84.68010791765379 -10.0 L 84.8200000000026 -10.0 " stroke="#191919" stroke-width="0.35 px" style="stroke-width:0.35;stroke-miterlimit:4;stroke-dasharray:none;fill:none;fill-opacity:1;fill-rule: evenodd"/>
<path id="Shape2DView_nwe0012"  d="M 75.20000000000087 -10.0 L 75.33989208234983 -10.0 L 75.48114866312275 -10.0 L 75.62354564906589 -10.0 L 75.76685713775593 -10.0 L 75.91085577597775 -10.0 L 76.05531312040361 -10.0 L 76.20000000000188 -10.0 L 76.34468687960015 -10.0 L 76.48914422402599 -10.0 L 76.6331428622478 -10.0 L 76.77645435093781 -10.0 L 76.91885133688092 -10.0 L 77.06010791765382 -10.0 L 77.20000000000275 -10.0 " stroke="#191919" stroke-width="0.35 px" style="stroke-width:0.35;stroke-miterlimit:4;stroke-dasharray:none;fill:none;fill-opacity:1;fill-rule: evenodd"/>
<path id="Shape2DView_nwe0013"  d="M 67.58000000000034 -10.0 L 67.71989208234926 -10.0 L 67.86114866312214 -10.0 L 68.00354564906523 -10.0 L 68.14685713775525 -10.0 L 68.29085577597702 -10.0 L 68.43531312040284 -10.0 L 68.58000000000106 -10.0 L 68.7246868795993 -10.0 L 68.86914422402512 -10.0 L 69.01314286224688 -10.0 L 69.15645435093687 -10.0 L 69.29885133687995 -10.0 L 69.44010791765282 -10.0 L 69.58000000000172 -10.0 " stroke="#191919" stroke-width="0.35 px" style="stroke-width:0.35;stroke-miterlimit:4;stroke-dasharray:none;fill:none;fill-opacity:1;fill-rule: evenodd"/>
<path id="Shape2DView_nwe0014"  d="M 59.96000000000149 -10.0 L 60.099892082350344 -10.0 L 60.24114866312315 -10.0 L 60.383545649066164 -10.0 L 60.52685713775609 -10.0 L 60.67085577597777 -10.0 L 60.8153131204035 -10.0 L 60.96000000000165 -10.0 L 61.1046868795998 -10.0 L 61.249144224025514 -10.0 L 61.39314286224719 -10.0 L 61.53645435093709 -10.0 L 61.678851336880086 -10.0 L 61.82010791765286 -10.0 L 61.96000000000168 -10.0 " stroke="#191919" stroke-width="0.35 px" style="stroke-width:0.35;stroke-miterlimit:4;stroke-dasharray:none;fill:none;fill-opacity:1;fill-rule: evenodd"/>
<path id="Shape2DView_nwe0015"  d="M 52.34000000000096 -10.0 L 52.47989208234986 -10.0 L 52.62114866312271 -10.0 L 52.76354564906577 -10.0 L 52.90685713775574 -10.0 L 53.050855775977475 -10.0 L 53.195313120403256 -10.0 L 53.34000000000145 -10.0 L 53.48468687959964 -10.0 L 53.62914422402542 -10.0 L 53.77314286224714 -10.0 L 53.916454350937094 -10.0 L 54.05885133688013 -10.0 L 54.20010791765296 -10.0 L 54.34000000000182 -10.0 " stroke="#191919" stroke-width="0.35 px" style="stroke-width:0.35;stroke-miterlimit:4;stroke-dasharray:none;fill:none;fill-opacity:1;fill-rule: evenodd"/>
<path id="Shape2DView_nwe0016"  d="M 44.71999999999943 -10.0 L 44.85989208234842 -10.0 L 45.00114866312137 -10.0 L 45.14354564906453 -10.0 L 45.2868571377546 -10.0 L 45.43085577597645 -10.0 L 45.575313120402335 -10.0 L 45.72000000000064 -10.0 L 45.86468687959895 -10.0 L 46.00914422402484 -10.0 L 46.15314286224667 -10.0 L 46.29645435093674 -10.0 L 46.43885133687989 -10.0 L 46.580107917652825 -10.0 L 46.7200000000018 -10.0 " stroke="#191919" stroke-width="0.35 px" style="stroke-width:0.35;stroke-miterlimit:4;stroke-dasharray:none;fill:none;fill-opacity:1;fill-rule: evenodd"/>
<path id="Shape2DView_nwe0017"  d="M 37.10000000000057 -10.0 L 37.23989208234942 -10.0 L 37.38114866312223 -10.0 L 37.523545649065255 -10.0 L 37.66685713775519 -10.0 L 37.81085577597688 -10.0 L 37.95531312040262 -10.0 L 38.10000000000078 -10.0 L 38.24468687959894 -10.0 L 38.389144224024676 -10.0 L 38.533142862246365 -10.0 L 38.67645435093629 -10.0 L 38.8188513368793 -10.0 L 38.960107917652095 -10.0 L 39.10000000000093 -10.0 " stroke="#191919" stroke-width="0.35 px" style="stroke-width:0.35;stroke-miterlimit:4;stroke-dasharray:none;fill:none;fill-opacity:1;fill-rule: evenodd"/>
<path id="Shape2DView_nwe0018"  d="M 29.480000000000047 -10.0 L 29.619892082348933 -10.0 L 29.761148663121773 -10.0 L 29.903545649064824 -10.0 L 30.046857137754788 -10.0 L 30.19085577597652 -10.0 L 30.335313120402297 -10.0 L 30.480000000000494 -10.0 L 30.624686879598688 -10.0 L 30.769144224024462 -10.0 L 30.91314286224619 -10.0 L 31.05645435093615 -10.0 L 31.198851336879194 -10.0 L 31.340107917652027 -10.0 L 31.480000000000903 -10.0 " stroke="#191919" stroke-width="0.35 px" style="stroke-width:0.35;stroke-miterlimit:4;stroke-dasharray:none;fill:none;fill-opacity:1;fill-rule: evenodd"/>
<path id="Shape2DView_nwe0019"  d="M 21.859999999999516 -10.0 L 21.999892082348445 -10.0 L 22.14114866312133 -10.0 L 22.28354564906443 -10.0 L 22.42685713775444 -10.0 L 22.57085577597622 -10.0 L 22.715313120402044 -10.0 L 22.86000000000029 -10.0 L 23.004686879598534 -10.0 L 23.149144224024358 -10.0 L 23.293142862246135 -10.0 L 23.436454350936142 -10.0 L 23.578851336879236 -10.0 L 23.72010791765212 -10.0 L 23.86000000000104 -10.0 " stroke="#191919" stroke-width="0.35 px" style="stroke-width:0.35;stroke-miterlimit:4;stroke-dasharray:none;fill:none;fill-opacity:1;fill-rule: evenodd"/>
<path id="Shape2DView_nwe0020"  d="M 14.239999999999654 -10.0 L 14.379892082348572 -10.0 L 14.521148663121448 -10.0 L 14.663545649064535 -10.0 L 14.806857137754534 -10.0 L 14.9508557759763 -10.0 L 15.095313120402114 -10.0 L 15.240000000000348 -10.0 L 15.384686879598581 -10.0 L 15.529144224024392 -10.0 L 15.673142862246156 -10.0 L 15.816454350936153 -10.0 L 15.958851336879235 -10.0 L 16.100107917652103 -10.0 L 16.240000000001015 -10.0 " stroke="#191919" stroke-width="0.35 px" style="stroke-width:0.35;stroke-miterlimit:4;stroke-dasharray:none;fill:none;fill-opacity:1;fill-rule: evenodd"/>
<path id="Shape2DView_nwe0021"  d="M 6.619999999999128 -10.0 L 6.759892082348004 -10.0 L 6.901148663120837 -10.0 L 7.0435456490638835 -10.0 L 7.186857137753843 -10.0 L 7.33085577597557 -10.0 L 7.475313120401344 -10.0 L 7.619999999999541 -10.0 L 7.764686879597738 -10.0 L 7.909144224023515 -10.0 L 8.053142862245245 -10.0 L 8.19645435093521 -10.0 L 8.338851336878264 -10.0 L 8.480107917651104 -10.0 L 8.619999999999989 -10.0 " stroke="#191919" stroke-width="0.35 px" style="stroke-width:0.35;stroke-miterlimit:4;stroke-dasharray:none;fill:none;fill-opacity:1;fill-rule: evenodd"/>
<path id="Shape2DView_nwe0022"  d="M -1.000000000000066 -10.0 L -0.8601079176512296 -10.0 L -0.7188513368784384 -10.0 L -0.5764543509354358 -10.0 L -0.43314286224552134 -10.0 L -0.28914422402384155 -10.0 L -0.1446868795981151 -10.0 L 3.241851231905457e-14 -10.0 L 0.14468687959817972 -10.0 L 0.2891442240239057 -10.0 L 0.43314286224558596 -10.0 L 0.5764543509355009 -10.0 L 0.7188513368785019 -10.0 L 0.8601079176512936 -10.0 L 1.0000000000001275 -10.0 " stroke="#191919" stroke-width="0.35 px" style="stroke-width:0.35;stroke-miterlimit:4;stroke-dasharray:none;fill:none;fill-opacity:1;fill-rule: evenodd"/>
<path id="Shape2DView_nwe0023"  d="M -5.1 -10.0 L -1.0 -10.0 " stroke="#191919" stroke-width="0.35 px" style="stroke-width:0.35;stroke-miterlimit:4;stroke-dasharray:none;fill:none;fill-opacity:1;fill-rule: evenodd"/>
<path id="Shape2DView_nwe0024"  d="M -7.1 -10.0 L -5.1 -10.0 " stroke="#191919" stroke-width="0.35 px" style="stroke-width:0.35;stroke-miterlimit:4;stroke-dasharray:none;fill:none;fill-opacity:1;fill-rule: evenodd"/>
<path id="Shape2DView_nwe0025"  d="M -9.1 -10.0 L -7.1 -10.0 " stroke="#191919" stroke-width="0.35 px" style="stroke-width:0.35;stroke-miterlimit:4;stroke-dasharray:none;fill:none;fill-opacity:1;fill-rule: evenodd"/>
<path id="Shape2DView_nwe0026"  d="M -6.849999999999651 -8.499999999999844 L -7.1000000000001835 -9.999999999999767 " stroke="#191919" stroke-width="0.35 px" style="stroke-width:0.35;stroke-miterlimit:4;stroke-dasharray:none;fill:none;fill-opacity:1;fill-rule: evenodd"/>
<path id="Shape2DView_nwe0027"  d="M -9.1 -8.5 L -6.85 -8.5 " stroke="#191919" stroke-width="0.35 px" style="stroke-width:0.35;stroke-miterlimit:4;stroke-dasharray:none;fill:none;fill-opacity:1;fill-rule: evenodd"/>
<path id="Shape2DView_nwe0028"  d="M -6.85 -8.5 L -5.35 -8.5 " stroke="#191919" stroke-width="0.35 px" style="stroke-width:0.35;stroke-miterlimit:4;stroke-dasharray:none;fill:none;fill-opacity:1;fill-rule: evenodd"/>
<path id="Shape2DView_nwe0029"  d="M -5.35 -8.5 L -0.75 -8.5 " stroke="#191919" stroke-width="0.35 px" style="stroke-width:0.35;stroke-miterlimit:4;stroke-dasharray:none;fill:none;fill-opacity:1;fill-rule: evenodd"/>
<path id="Shape2DView_nwe0030"  d="M -0.75 -8.5 L 0.75 -8.5 " stroke="#191919" stroke-width="0.35 px" style="stroke-width:0.35;stroke-miterlimit:4;stroke-dasharray:none;fill:none;fill-opacity:1;fill-rule: evenodd"/>
<path id="Shape2DView_nwe0031"  d="M 0.75 -8.5 L 6.869999999999999 -8.5 " stroke="#191919" stroke-width="0.35 px" style="stroke-width:0.35;stroke-miterlimit:4;stroke-dasharray:none;fill:none;fill-opacity:1;fill-rule: evenodd"/>
<path id="Shape2DView_nwe0032"  d="M 6.869999999999999 -8.5 L 8.37 -8.5 " stroke="#191919" stroke-width="0.35 px" style="stroke-width:0.35;stroke-miterlimit:4;stroke-dasharray:none;fill:none;fill-opacity:1;fill-rule: evenodd"/>
<path id="Shape2DView_nwe0033"  d="M 8.37 -8.5 L 14.49 -8.5 " stroke="#191919" stroke-width="0.35 px" style="stroke-width:0.35;stroke-miterlimit:4;stroke-dasharray:none;fill:none;fill-opacity:1;fill-rule: evenodd"/>
<path id="Shape2DView_nwe0034"  d="M 14.49 -8.5 L 15.99 -8.5 " stroke="#191919" stroke-width="0.35 px" style="stroke-width:0.35;stroke-miterlimit:4;stroke-dasharray:none;fill:none;fill-opacity:1;fill-rule: evenodd"/>
<path id="Shape2DView_nwe0035"  d="M 15.99 -8.5 L 22.11 -8.5 " stroke="#191919" stroke-width="0.35 px" style="stroke-width:0.35;stroke-miterlimit:4;stroke-dasharray:none;fill:none;fill-opacity:1;fill-rule: evenodd"/>
<path id="Shape2DView_nwe0036"  d="M 22.11 -8.5 L 23.61 -8.5 " stroke="#191919" stroke-width="0.35 px" style="stroke-width:0.35;stroke-miterlimit:4;stroke-dasharray:none;fill:none;fill-opacity:1;fill-rule: evenodd"/>
<path id="Shape2DView_nwe0037"  d="M 23.61 -8.5 L 29.729999999999997 -8.5 " stroke="#191919" stroke-width="0.35 px" style="stroke-width:0.35;stroke-miterlimit:4;stroke-dasharray:none;fill:none;fill-opacity:1;fill-rule: evenodd"/>
<path id="Shape2DView_nwe0038"  d="M 29.729999999999997 -8.5 L 31.229999999999997 -8.5 " stroke="#191919" stroke-width="0.35 px" style="stroke-width:0.35;stroke-miterlimit:4;stroke-dasharray:none;fill:none;fill-opacity:1;fill-rule: evenodd"/>
<path id="Shape2DView_nwe0039"  d="M 31.229999999999997 -8.5 L 37.35 -8.5 " stroke="#191919" stroke-width="0.35 px" style="stroke-width:0.35;stroke-miterlimit:4;stroke-dasharray:none;fill:none;fill-opacity:1;fill-rule: evenodd"/>
<path id="Shape2DView_nwe0040"  d="M 37.35 -8.5 L 38.85 -8.5 " stroke="#191919" stroke-width="0.35 px" style="stroke-width:0.35;stroke-miterlimit:4;stroke-dasharray:none;fill:none;fill-opacity:1;fill-rule: evenodd"/>
<path id="Shape2DView_nwe0041"  d="M 38.85 -8.5 L 44.97 -8.5 " stroke="#191919" stroke-width="0.35 px" style="stroke-width:0.35;stroke-miterlimit:4;stroke-dasharray:none;fill:none;fill-opacity:1;fill-rule: evenodd"/>
<path id="Shape2DView_nwe0042"  d="M 44.97 -8.5 L 46.47 -8.5 " stroke="#191919" stroke-width="0.35 px" style="stroke-width:0.35;stroke-miterlimit:4;stroke-dasharray:none;fill:none;fill-opacity:1;fill-rule: evenodd"/>
<path id="Shape2DView_nwe0043"  d="M 46.47 -8.5 L 52.59 -8.5 " stroke="#191919" stroke-width="0.35 px" style="stroke-width:0.35;stroke-miterlimit:4;stroke-dasharray:none;fill:none;fill-opacity:1;fill-rule: evenodd"/>
<path id="Shape2DView_nwe0044"  d="M 52.59 -8.5 L 54.09 -8.5 " stroke="#191919" stroke-width="0.35 px" style="stroke-width:0.35;stroke-miterlimit:4;stroke-dasharray:none;fill:none;fill-opacity:1;fill-rule: evenodd"/>
<path id="Shape2DView_nwe0045"  d="M 54.09 -8.5 L 60.21 -8.5 " stroke="#191919" stroke-width="0.35 px" style="stroke-width:0.35;stroke-miterlimit:4;stroke-dasharray:none;fill:none;fill-opacity:1;fill-rule: evenodd"/>
<path id="Shape2DView_nwe0046"  d="M 60.21 -8.5 L 61.71 -8.5 " stroke="#191919" stroke-width="0.35 px" style="stroke-width:0.35;stroke-miterlimit:4;stroke-dasharray:none;fill:none;fill-opacity:1;fill-rule: evenodd"/>
<path id="Shape2DView_nwe0047"  d="M 61.71 -8.5 L 67.83 -8.5 " stroke="#191919" stroke-width="0.35 px" style="stroke-width:0.35;stroke-miterlimit:4;stroke-dasharray:none;fill:none;fill-opacity:1;fill-rule: evenodd"/>
<path id="Shape2DView_nwe0048"  d="M 67.83 -8.5 L 69.33 -8.5 " stroke="#191919" stroke-width="0.35 px" style="stroke-width:0.35;stroke-miterlimit:4;stroke-dasharray:none;fill:none;fill-opacity:1;fill-rule: evenodd"/>
<path id="Shape2DView_nwe0049"  d="M 69.33 -8.5 L 75.45 -8.5 " stroke="#191919" stroke-width="0.35 px" style="stroke-width:0.35;stroke-miterlimit:4;stroke-dasharray:none;fill:none;fill-opacity:1;fill-rule: evenodd"/>
<path id="Shape2DView_nwe0050"  d="M 75.45 -8.5 L 76.95 -8.5 " stroke="#191919" stroke-width="0.35 px" style="stroke-width:0.35;stroke-miterlimit:4;stroke-dasharray:none;fill:none;fill-opacity:1;fill-rule: evenodd"/>
<path id="Shape2DView_nwe0051"  d="M 76.95 -8.5 L 83.07 -8.5 " stroke="#191919" stroke-width="0.35 px" style="stroke-width:0.35;stroke-miterlimit:4;stroke-dasharray:none;fill:none;fill-opacity:1;fill-rule: evenodd"/>
<path id="Shape2DView_nwe0052"  d="M 83.07 -8.5 L 84.57 -8.5 " stroke="#191919" stroke-width="0.35 px" style="stroke-width:0.35;stroke-miterlimit:4;stroke-dasharray:none;fill:none;fill-opacity:1;fill-rule: evenodd"/>
<path id="Shape2DView_nwe0053"  d="M 84.57 -8.5 L 89.17 -8.5 " stroke="#191919" stroke-width="0.35 px" style="stroke-width:0.35;stroke-miterlimit:4;stroke-dasharray:none;fill:none;fill-opacity:1;fill-rule: evenodd"/>
<path id="Shape2DView_nwe0054"  d="M 89.17 -8.5 L 90.67 -8.5 " stroke="#191919" stroke-width="0.35 px" style="stroke-width:0.35;stroke-miterlimit:4;stroke-dasharray:none;fill:none;fill-opacity:1;fill-rule: evenodd"/>
<path id="Shape2DView_nwe0055"  d="M 90.67 -8.5 L 92.92 -8.5 " stroke="#191919" stroke-width="0.35 px" style="stroke-width:0.35;stroke-miterlimit:4;stroke-dasharray:none;fill:none;fill-opacity:1;fill-rule: evenodd"/>
<path id="Shape2DView_nwe0056"  d="M 90.92000000000267 -9.999999999999547 L 90.67000000000213 -8.499999999999623 " stroke="#191919" stroke-width="0.35 px" style="stroke-width:0.35;stroke-miterlimit:4;stroke-dasharray:none;fill:none;fill-opacity:1;fill-rule: evenodd"/>
<path id="Shape2DView_nwe0057"  d="M -5.1000000000000165 -10.000000000000071 L -5.3500000000005485 -8.500000000000147 " stroke="#191919" stroke-width="0.35 px" style="stroke-width:0.35;stroke-miterlimit:4;stroke-dasharray:none;fill:none;fill-opacity:1;fill-rule: evenodd"/>
<path id="Shape2DView_nwe0058"  d="M -0.7499999999995435 -8.500000000000135 L -1.0000000000000757 -10.000000000000059 " stroke="#191919" stroke-width="0.35 px" style="stroke-width:0.35;stroke-miterlimit:4;stroke-dasharray:none;fill:none;fill-opacity:1;fill-rule: evenodd"/>
<path id="Shape2DView_nwe0059"  d="M 89.17000000000276 -8.500000000000052 L 88.92000000000223 -9.999999999999975 " stroke="#191919" stroke-width="0.35 px" style="stroke-width:0.35;stroke-miterlimit:4;stroke-dasharray:none;fill:none;fill-opacity:1;fill-rule: evenodd"/>
<path id="Shape2DView_nwe0060"  d="M 84.82000000000251 -9.9999999999995 L 84.57000000000197 -8.499999999999577 " stroke="#191919" stroke-width="0.35 px" style="stroke-width:0.35;stroke-miterlimit:4;stroke-dasharray:none;fill:none;fill-opacity:1;fill-rule: evenodd"/>
<path id="Shape2DView_nwe0061"  d="M 1.000000000000147 -10.000000000000117 L 0.7499999999996148 -8.500000000000194 " stroke="#191919" stroke-width="0.35 px" style="stroke-width:0.35;stroke-miterlimit:4;stroke-dasharray:none;fill:none;fill-opacity:1;fill-rule: evenodd"/>
<path id="Shape2DView_nwe0062"  d="M 1.0 -10.0 L 6.619999999999999 -10.0 " stroke="#191919" stroke-width="0.35 px" style="stroke-width:0.35;stroke-miterlimit:4;stroke-dasharray:none;fill:none;fill-opacity:1;fill-rule: evenodd"/>
<path id="Shape2DView_nwe0063"  d="M 6.869999999999793 -8.49999999999928 L 6.61999999999926 -9.999999999999204 " stroke="#191919" stroke-width="0.35 px" style="stroke-width:0.35;stroke-miterlimit:4;stroke-dasharray:none;fill:none;fill-opacity:1;fill-rule: evenodd"/>
<path id="Shape2DView_nwe0064"  d="M 8.619999999999989 -10.000000000000002 L 8.369999999999457 -8.500000000000078 " stroke="#191919" stroke-width="0.35 px" style="stroke-width:0.35;stroke-miterlimit:4;stroke-dasharray:none;fill:none;fill-opacity:1;fill-rule: evenodd"/>
<path id="Shape2DView_nwe0065"  d="M 8.62 -10.0 L 14.24 -10.0 " stroke="#191919" stroke-width="0.35 px" style="stroke-width:0.35;stroke-miterlimit:4;stroke-dasharray:none;fill:none;fill-opacity:1;fill-rule: evenodd"/>
<path id="Shape2DView_nwe0066"  d="M 14.490000000000196 -8.500000000000028 L 14.239999999999663 -9.999999999999952 " stroke="#191919" stroke-width="0.35 px" style="stroke-width:0.35;stroke-miterlimit:4;stroke-dasharray:none;fill:none;fill-opacity:1;fill-rule: evenodd"/>
<path id="Shape2DView_nwe0067"  d="M 77.20000000000267 -9.999999999999616 L 76.95000000000213 -8.499999999999693 " stroke="#191919" stroke-width="0.35 px" style="stroke-width:0.35;stroke-miterlimit:4;stroke-dasharray:none;fill:none;fill-opacity:1;fill-rule: evenodd"/>
<path id="Shape2DView_nwe0068"  d="M 77.2 -10.0 L 82.82 -10.0 " stroke="#191919" stroke-width="0.35 px" style="stroke-width:0.35;stroke-miterlimit:4;stroke-dasharray:none;fill:none;fill-opacity:1;fill-rule: evenodd"/>
<path id="Shape2DView_nwe0069"  d="M 83.07000000000288 -8.500000000000416 L 82.82000000000235 -10.000000000000338 " stroke="#191919" stroke-width="0.35 px" style="stroke-width:0.35;stroke-miterlimit:4;stroke-dasharray:none;fill:none;fill-opacity:1;fill-rule: evenodd"/>
<path id="Shape2DView_nwe0070"  d="M 16.240000000001004 -9.999999999999924 L 15.990000000000473 -8.500000000000002 " stroke="#191919" stroke-width="0.35 px" style="stroke-width:0.35;stroke-miterlimit:4;stroke-dasharray:none;fill:none;fill-opacity:1;fill-rule: evenodd"/>
<path id="Shape2DView_nwe0071"  d="M 16.239999999999995 -10.0 L 21.86 -10.0 " stroke="#191919" stroke-width="0.35 px" style="stroke-width:0.35;stroke-miterlimit:4;stroke-dasharray:none;fill:none;fill-opacity:1;fill-rule: evenodd"/>
<path id="Shape2DView_nwe0072"  d="M 22.110000000000227 -8.499999999998998 L 21.859999999999697 -9.999999999998922 " stroke="#191919" stroke-width="0.35 px" style="stroke-width:0.35;stroke-miterlimit:4;stroke-dasharray:none;fill:none;fill-opacity:1;fill-rule: evenodd"/>
<path id="Shape2DView_nwe0073"  d="M 69.58000000000166 -9.999999999999691 L 69.33000000000114 -8.499999999999769 " stroke="#191919" stroke-width="0.35 px" style="stroke-width:0.35;stroke-miterlimit:4;stroke-dasharray:none;fill:none;fill-opacity:1;fill-rule: evenodd"/>
<path id="Shape2DView_nwe0074"  d="M 69.58 -10.0 L 75.2 -10.0 " stroke="#191919" stroke-width="0.35 px" style="stroke-width:0.35;stroke-miterlimit:4;stroke-dasharray:none;fill:none;fill-opacity:1;fill-rule: evenodd"/>
<path id="Shape2DView_nwe0075"  d="M 75.45000000000144 -8.499999999999861 L 75.20000000000091 -9.999999999999787 " stroke="#191919" stroke-width="0.35 px" style="stroke-width:0.35;stroke-miterlimit:4;stroke-dasharray:none;fill:none;fill-opacity:1;fill-rule: evenodd"/>
<path id="Shape2DView_nwe0076"  d="M 23.860000000000984 -9.999999999999652 L 23.610000000000454 -8.499999999999728 " stroke="#191919" stroke-width="0.35 px" style="stroke-width:0.35;stroke-miterlimit:4;stroke-dasharray:none;fill:none;fill-opacity:1;fill-rule: evenodd"/>
<path id="Shape2DView_nwe0077"  d="M 23.86 -10.0 L 29.479999999999997 -10.0 " stroke="#191919" stroke-width="0.35 px" style="stroke-width:0.35;stroke-miterlimit:4;stroke-dasharray:none;fill:none;fill-opacity:1;fill-rule: evenodd"/>
<path id="Shape2DView_nwe0078"  d="M 29.73000000000069 -8.49999999999941 L 29.480000000000157 -9.999999999999332 " stroke="#191919" stroke-width="0.35 px" style="stroke-width:0.35;stroke-miterlimit:4;stroke-dasharray:none;fill:none;fill-opacity:1;fill-rule: evenodd"/>
<path id="Shape2DView_nwe0079"  d="M 61.96000000000168 -9.999999999999966 L 61.710000000001145 -8.500000000000043 " stroke="#191919" stroke-width="0.35 px" style="stroke-width:0.35;stroke-miterlimit:4;stroke-dasharray:none;fill:none;fill-opacity:1;fill-rule: evenodd"/>
<path id="Shape2DView_nwe0080"  d="M 61.96 -10.0 L 67.58 -10.0 " stroke="#191919" stroke-width="0.35 px" style="stroke-width:0.35;stroke-miterlimit:4;stroke-dasharray:none;fill:none;fill-opacity:1;fill-rule: evenodd"/>
<path id="Shape2DView_nwe0081"  d="M 67.83000000000104 -8.499999999999115 L 67.58000000000051 -9.999999999999039 " stroke="#191919" stroke-width="0.35 px" style="stroke-width:0.35;stroke-miterlimit:4;stroke-dasharray:none;fill:none;fill-opacity:1;fill-rule: evenodd"/>
<path id="Shape2DView_nwe0082"  d="M 31.480000000000885 -9.999999999999872 L 31.230000000000352 -8.49999999999995 " stroke="#191919" stroke-width="0.35 px" style="stroke-width:0.35;stroke-miterlimit:4;stroke-dasharray:none;fill:none;fill-opacity:1;fill-rule: evenodd"/>
<path id="Shape2DView_nwe0083"  d="M 31.479999999999997 -10.0 L 37.1 -10.0 " stroke="#191919" stroke-width="0.35 px" style="stroke-width:0.35;stroke-miterlimit:4;stroke-dasharray:none;fill:none;fill-opacity:1;fill-rule: evenodd"/>
<path id="Shape2DView_nwe0084"  d="M 37.35000000000109 -8.500000000000156 L 37.10000000000056 -10.00000000000008 " stroke="#191919" stroke-width="0.35 px" style="stroke-width:0.35;stroke-miterlimit:4;stroke-dasharray:none;fill:none;fill-opacity:1;fill-rule: evenodd"/>
<path id="Shape2DView_nwe0085"  d="M 54.34000000000177 -9.999999999999744 L 54.09000000000124 -8.499999999999822 " stroke="#191919" stroke-width="0.35 px" style="stroke-width:0.35;stroke-miterlimit:4;stroke-dasharray:none;fill:none;fill-opacity:1;fill-rule: evenodd"/>
<path id="Shape2DView_nwe0086"  d="M 54.34 -10.0 L 59.96 -10.0 " stroke="#191919" stroke-width="0.35 px" style="stroke-width:0.35;stroke-miterlimit:4;stroke-dasharray:none;fill:none;fill-opacity:1;fill-rule: evenodd"/>
<path id="Shape2DView_nwe0087"  d="M 60.21000000000198 -8.500000000000286 L 59.96000000000146 -10.00000000000021 " stroke="#191919" stroke-width="0.35 px" style="stroke-width:0.35;stroke-miterlimit:4;stroke-dasharray:none;fill:none;fill-opacity:1;fill-rule: evenodd"/>
<path id="Shape2DView_nwe0088"  d="M 39.100000000000925 -9.999999999999936 L 38.85000000000039 -8.500000000000012 " stroke="#191919" stroke-width="0.35 px" style="stroke-width:0.35;stroke-miterlimit:4;stroke-dasharray:none;fill:none;fill-opacity:1;fill-rule: evenodd"/>
<path id="Shape2DView_nwe0089"  d="M 39.1 -10.0 L 44.72 -10.0 " stroke="#191919" stroke-width="0.35 px" style="stroke-width:0.35;stroke-miterlimit:4;stroke-dasharray:none;fill:none;fill-opacity:1;fill-rule: evenodd"/>
<path id="Shape2DView_nwe0090"  d="M 44.97000000000015 -8.499999999998987 L 44.719999999999615 -9.999999999998911 " stroke="#191919" stroke-width="0.35 px" style="stroke-width:0.35;stroke-miterlimit:4;stroke-dasharray:none;fill:none;fill-opacity:1;fill-rule: evenodd"/>
<path id="Shape2DView_nwe0091"  d="M 46.72000000000174 -9.99999999999968 L 46.47000000000121 -8.499999999999758 " stroke="#191919" stroke-width="0.35 px" style="stroke-width:0.35;stroke-miterlimit:4;stroke-dasharray:none;fill:none;fill-opacity:1;fill-rule: evenodd"/>
<path id="Shape2DView_nwe0092"  d="M 46.72 -10.0 L 52.34 -10.0 " stroke="#191919" stroke-width="0.35 px" style="stroke-width:0.35;stroke-miterlimit:4;stroke-dasharray:none;fill:none;fill-opacity:1;fill-rule: evenodd"/>
<path id="Shape2DView_nwe0093"  d="M 52.59000000000158 -8.499999999999538 L 52.34000000000105 -9.99999999999946 " stroke="#191919" stroke-width="0.35 px" style="stroke-width:0.35;stroke-miterlimit:4;stroke-dasharray:none;fill:none;fill-opacity:1;fill-rule: evenodd"/>
<title>b'Shape2DView'</title>
</g>
<g id="Rectangle" transform="translate(10.120200,3.020200) scale(1,-1)">
<rect fill="#ff0000" id="origin" width="1" height="1" x="0" y="0" />
<title>b'Rectangle'</title>
</g>
</svg>