<?xml version="1.0"?>
<!DOCTYPE svg PUBLIC "-//W3C//DTD SVG 1.1//EN" "http://www.w3.org/Graphics/SVG/1.1/DTD/svg11.dtd">
<svg width="85.49640000000001mm" height="13.676400000000106mm" viewBox="0 0 85.49640000000001 13.676400000000106" xmlns="http://www.w3.org/2000/svg" version="1.1">
<g id="Shape2DView" transform="translate(4.648200,2.838200) scale(1,-1)">
<path id="Shape2DView_nwe0000"  d="M -3.81 2.0 L 80.01 2.0 " stroke="#191919" stroke-width="0.35 px" style="stroke-width:0.35;stroke-miterlimit:4;stroke-dasharray:none;fill:none;fill-opacity:1;fill-rule: evenodd"/>
<path id="Shape2DView_nwe0001"  d="M 80.01 -7.0 L 80.01 2.0 " stroke="#191919" stroke-width="0.35 px" style="stroke-width:0.35;stroke-miterlimit:4;stroke-dasharray:none;fill:none;fill-opacity:1;fill-rule: evenodd"/>
<path id="Shape2DView_nwe0002"  d="M -3.81 -7.0 L -3.81 2.0 " stroke="#191919" stroke-width="0.35 px" style="stroke-width:0.35;stroke-miterlimit:4;stroke-dasharray:none;fill:none;fill-opacity:1;fill-rule: evenodd"/>
<path id="Shape2DView_nwe0003"  d="M -3.81 -10.0 L -3.81 -8.5 " stroke="#191919" stroke-width="0.35 px" style="stroke-width:0.35;stroke-miterlimit:4;stroke-dasharray:none;fill:none;fill-opacity:1;fill-rule: evenodd"/>
<path id="Shape2DView_nwe0004"  d="M -3.81 -8.5 L -3.81 -7.0 " stroke="#191919" stroke-width="0.35 px" style="stroke-width:0.35;stroke-miterlimit:4;stroke-dasharray:none;fill:none;fill-opacity:1;fill-rule: evenodd"/>
<path id="Shape2DView_nwe0005"  d="M 80.01 -10.0 L 80.01 -8.5 " stroke="#191919" stroke-width="0.35 px" style="stroke-width:0.35;stroke-miterlimit:4;stroke-dasharray:none;fill:none;fill-opacity:1;fill-rule: evenodd"/>
<path id="Shape2DView_nwe0006"  d="M 80.01 -8.5 L 80.01 -7.0 " stroke="#191919" stroke-width="0.35 px" style="stroke-width:0.35;stroke-miterlimit:4;stroke-dasharray:none;fill:none;fill-opacity:1;fill-rule: evenodd"/>
<path id="Shape2DView_nwe0007"  d="M -3.81 -7.0 L 80.01 -7.0 " stroke="#191919" stroke-width="0.35 px" style="stroke-width:0.35;stroke-miterlimit:4;stroke-dasharray:none;fill:none;fill-opacity:1;fill-rule: evenodd"/>
<path id="Shape2DView_nwe0008"  d="M 77.2 -10.0 L 80.01 -10.0 " stroke="#191919" stroke-width="0.35 px" style="stroke-width:0.35;stroke-miterlimit:4;stroke-dasharray:none;fill:none;fill-opacity:1;fill-rule: evenodd"/>
<path id="Shape2DView_nwe0009"  d="M 75.20000000000074 -10.0 L 75.33989208234965 -10.0 L 75.48114866312253 -10.0 L 75.6235456490656 -10.0 L 75.76685713775561 -10.0 L 75.91085577597737 -10.0 L 76.05531312040317 -10.0 L 76.20000000000138 -10.0 L 76.3446868795996 -10.0 L 76.48914422402541 -10.0 L 76.63314286224715 -10.0 L 76.77645435093713 -10.0 L 76.9188513368802 -10.0 L 77.06010791765304 -10.0 L 77.20000000000194 -10.0 " stroke="#191919" stroke-width="0.35 px" style="stroke-width:0.35;stroke-miterlimit:4;stroke-dasharray:none;fill:none;fill-opacity:1;fill-rule: evenodd"/>
<path id="Shape2DView_nwe0010"  d="M 67.58000000000021 -10.0 L 67.71989208234916 -10.0 L 67.86114866312207 -10.0 L 68.00354564906519 -10.0 L 68.1468571377552 -10.0 L 68.29085577597701 -10.0 L 68.43531312040284 -10.0 L 68.5800000000011 -10.0 L 68.72468687959936 -10.0 L 68.86914422402519 -10.0 L 69.01314286224698 -10.0 L 69.15645435093698 -10.0 L 69.29885133688009 -10.0 L 69.44010791765297 -10.0 L 69.5800000000019 -10.0 " stroke="#191919" stroke-width="0.35 px" style="stroke-width:0.35;stroke-miterlimit:4;stroke-dasharray:none;fill:none;fill-opacity:1;fill-rule: evenodd"/>
<path id="Shape2DView_nwe0011"  d="M 59.96000000000136 -10.0 L 60.09989208235023 -10.0 L 60.24114866312306 -10.0 L 60.3835456490661 -10.0 L 60.526857137756046 -10.0 L 60.670855775977756 -10.0 L 60.81531312040351 -10.0 L 60.960000000001685 -10.0 L 61.10468687959985 -10.0 L 61.2491442240256 -10.0 L 61.393142862247295 -10.0 L 61.53645435093723 -10.0 L 61.678851336880236 -10.0 L 61.82010791765304 -10.0 L 61.960000000001884 -10.0 " stroke="#191919" stroke-width="0.35 px" style="stroke-width:0.35;stroke-miterlimit:4;stroke-dasharray:none;fill:none;fill-opacity:1;fill-rule: evenodd"/>
<path id="Shape2DView_nwe0012"  d="M 52.33999999999983 -10.0 L 52.47989208234881 -10.0 L 52.62114866312175 -10.0 L 52.763545649064895 -10.0 L 52.90685713775496 -10.0 L 53.05085577597679 -10.0 L 53.195313120402666 -10.0 L 53.34000000000096 -10.0 L 53.48468687959926 -10.0 L 53.629144224025126 -10.0 L 53.77314286224695 -10.0 L 53.916454350937 -10.0 L 54.05885133688014 -10.0 L 54.20010791765306 -10.0 L 54.34000000000202 -10.0 " stroke="#191919" stroke-width="0.35 px" style="stroke-width:0.35;stroke-miterlimit:4;stroke-dasharray:none;fill:none;fill-opacity:1;fill-rule: evenodd"/>
<path id="Shape2DView_nwe0013"  d="M 44.719999999999295 -10.0 L 44.85989208234823 -10.0 L 45.00114866312113 -10.0 L 45.14354564906424 -10.0 L 45.28685713775426 -10.0 L 45.430855775976056 -10.0 L 45.57531312040189 -10.0 L 45.72000000000015 -10.0 L 45.86468687959841 -10.0 L 46.00914422402424 -10.0 L 46.15314286224603 -10.0 L 46.29645435093605 -10.0 L 46.43885133687916 -10.0 L 46.58010791765205 -10.0 L 46.72000000000099 -10.0 " stroke="#191919" stroke-width="0.35 px" style="stroke-width:0.35;stroke-miterlimit:4;stroke-dasharray:none;fill:none;fill-opacity:1;fill-rule: evenodd"/>
<path id="Shape2DView_nwe0014"  d="M 37.100000000000435 -10.0 L 37.23989208234931 -10.0 L 37.38114866312214 -10.0 L 37.523545649065184 -10.0 L 37.666857137755144 -10.0 L 37.81085577597686 -10.0 L 37.95531312040263 -10.0 L 38.10000000000081 -10.0 L 38.244686879598994 -10.0 L 38.389144224024754 -10.0 L 38.533142862246464 -10.0 L 38.67645435093641 -10.0 L 38.81885133687945 -10.0 L 38.96010791765226 -10.0 L 39.100000000001124 -10.0 " stroke="#191919" stroke-width="0.35 px" style="stroke-width:0.35;stroke-miterlimit:4;stroke-dasharray:none;fill:none;fill-opacity:1;fill-rule: evenodd"/>
<path id="Shape2DView_nwe0015"  d="M 29.47999999999991 -10.0 L 29.61989208234882 -10.0 L 29.761148663121688 -10.0 L 29.903545649064764 -10.0 L 30.046857137754753 -10.0 L 30.19085577597651 -10.0 L 30.335313120402308 -10.0 L 30.48000000000053 -10.0 L 30.62468687959875 -10.0 L 30.76914422402455 -10.0 L 30.9131428622463 -10.0 L 31.056454350936285 -10.0 L 31.198851336879354 -10.0 L 31.34010791765221 -10.0 L 31.480000000001105 -10.0 " stroke="#191919" stroke-width="0.35 px" style="stroke-width:0.35;stroke-miterlimit:4;stroke-dasharray:none;fill:none;fill-opacity:1;fill-rule: evenodd"/>
<path id="Shape2DView_nwe0016"  d="M 21.86000000000005 -10.0 L 21.999892082348957 -10.0 L 22.141148663121825 -10.0 L 22.2835456490649 -10.0 L 22.426857137754894 -10.0 L 22.57085577597665 -10.0 L 22.71531312040245 -10.0 L 22.86000000000067 -10.0 L 23.004686879598893 -10.0 L 23.149144224024692 -10.0 L 23.29314286224644 -10.0 L 23.436454350936426 -10.0 L 23.57885133687949 -10.0 L 23.720107917652346 -10.0 L 23.860000000001243 -10.0 " stroke="#191919" stroke-width="0.35 px" style="stroke-width:0.35;stroke-miterlimit:4;stroke-dasharray:none;fill:none;fill-opacity:1;fill-rule: evenodd"/>
<path id="Shape2DView_nwe0017"  d="M 14.239999999999522 -10.0 L 14.37989208234839 -10.0 L 14.521148663121215 -10.0 L 14.66354564906425 -10.0 L 14.8068571377542 -10.0 L 14.950855775975917 -10.0 L 15.095313120401679 -10.0 L 15.239999999999863 -10.0 L 15.384686879598048 -10.0 L 15.529144224023812 -10.0 L 15.673142862245529 -10.0 L 15.81645435093548 -10.0 L 15.958851336878519 -10.0 L 16.100107917651346 -10.0 L 16.240000000000215 -10.0 " stroke="#191919" stroke-width="0.35 px" style="stroke-width:0.35;stroke-miterlimit:4;stroke-dasharray:none;fill:none;fill-opacity:1;fill-rule: evenodd"/>
<path id="Shape2DView_nwe0018"  d="M 6.62000000000016 -10.0 L 6.759892082348999 -10.0 L 6.901148663121793 -10.0 L 7.043545649064797 -10.0 L 7.186857137754713 -10.0 L 7.330855775976394 -10.0 L 7.475313120402121 -10.0 L 7.620000000000268 -10.0 L 7.764686879598416 -10.0 L 7.909144224024142 -10.0 L 8.05314286224582 -10.0 L 8.196454350935733 -10.0 L 8.338851336878733 -10.0 L 8.480107917651523 -10.0 L 8.620000000000354 -10.0 " stroke="#191919" stroke-width="0.35 px" style="stroke-width:0.35;stroke-miterlimit:4;stroke-dasharray:none;fill:none;fill-opacity:1;fill-rule: evenodd"/>
<path id="Shape2DView_nwe0019"  d="M -0.9999999999998678 -10.0 L -0.8601079176510291 -10.0 L -0.7188513368782361 -10.0 L -0.5764543509352322 -10.0 L -0.4331428622453166 -10.0 L -0.28914422402363593 -10.0 L -0.14468687959790882 -10.0 L 2.3869795029440866e-13 -10.0 L 0.14468687959838555 -10.0 L 0.2891442240241111 -10.0 L 0.43314286224579024 -10.0 L 0.5764543509357036 -10.0 L 0.7188513368787044 -10.0 L 0.8601079176514934 -10.0 L 1.000000000000326 -10.0 " stroke="#191919" stroke-width="0.35 px" style="stroke-width:0.35;stroke-miterlimit:4;stroke-dasharray:none;fill:none;fill-opacity:1;fill-rule: evenodd"/>
<path id="Shape2DView_nwe0020"  d="M -3.81 -10.0 L -1.0 -10.0 " stroke="#191919" stroke-width="0.35 px" style="stroke-width:0.35;stroke-miterlimit:4;stroke-dasharray:none;fill:none;fill-opacity:1;fill-rule: evenodd"/>
<path id="Shape2DView_nwe0021"  d="M -0.7499999999993384 -8.500000000000096 L -0.9999999999998707 -10.000000000000018 " stroke="#191919" stroke-width="0.35 px" style="stroke-width:0.35;stroke-miterlimit:4;stroke-dasharray:none;fill:none;fill-opacity:1;fill-rule: evenodd"/>
<path id="Shape2DView_nwe0022"  d="M -3.81 -8.5 L -0.75 -8.5 " stroke="#191919" stroke-width="0.35 px" style="stroke-width:0.35;stroke-miterlimit:4;stroke-dasharray:none;fill:none;fill-opacity:1;fill-rule: evenodd"/>
<path id="Shape2DView_nwe0023"  d="M -0.75 -8.5 L 0.7500000000000004 -8.5 " stroke="#191919" stroke-width="0.35 px" style="stroke-width:0.35;stroke-miterlimit:4;stroke-dasharray:none;fill:none;fill-opacity:1;fill-rule: evenodd"/>
<path id="Shape2DView_nwe0024"  d="M 0.7500000000000004 -8.5 L 6.869999999999999 -8.5 " stroke="#191919" stroke-width="0.35 px" style="stroke-width:0.35;stroke-miterlimit:4;stroke-dasharray:none;fill:none;fill-opacity:1;fill-rule: evenodd"/>
<path id="Shape2DView_nwe0025"  d="M 6.869999999999999 -8.5 L 8.37 -8.5 " stroke="#191919" stroke-width="0.35 px" style="stroke-width:0.35;stroke-miterlimit:4;stroke-dasharray:none;fill:none;fill-opacity:1;fill-rule: evenodd"/>
<path id="Shape2DView_nwe0026"  d="M 8.37 -8.5 L 14.49 -8.5 " stroke="#191919" stroke-width="0.35 px" style="stroke-width:0.35;stroke-miterlimit:4;stroke-dasharray:none;fill:none;fill-opacity:1;fill-rule: evenodd"/>
<path id="Shape2DView_nwe0027"  d="M 14.49 -8.5 L 15.99 -8.5 " stroke="#191919" stroke-width="0.35 px" style="stroke-width:0.35;stroke-miterlimit:4;stroke-dasharray:none;fill:none;fill-opacity:1;fill-rule: evenodd"/>
<path id="Shape2DView_nwe0028"  d="M 15.99 -8.5 L 22.11 -8.5 " stroke="#191919" stroke-width="0.35 px" style="stroke-width:0.35;stroke-miterlimit:4;stroke-dasharray:none;fill:none;fill-opacity:1;fill-rule: evenodd"/>
<path id="Shape2DView_nwe0029"  d="M 22.11 -8.5 L 23.61 -8.5 " stroke="#191919" stroke-width="0.35 px" style="stroke-width:0.35;stroke-miterlimit:4;stroke-dasharray:none;fill:none;fill-opacity:1;fill-rule: evenodd"/>
<path id="Shape2DView_nwe0030"  d="M 23.61 -8.5 L 29.73 -8.5 " stroke="#191919" stroke-width="0.35 px" style="stroke-width:0.35;stroke-miterlimit:4;stroke-dasharray:none;fill:none;fill-opacity:1;fill-rule: evenodd"/>
<path id="Shape2DView_nwe0031"  d="M 29.73 -8.5 L 31.23 -8.5 " stroke="#191919" stroke-width="0.35 px" style="stroke-width:0.35;stroke-miterlimit:4;stroke-dasharray:none;fill:none;fill-opacity:1;fill-rule: evenodd"/>
<path id="Shape2DView_nwe0032"  d="M 31.23 -8.5 L 37.35 -8.5 " stroke="#191919" stroke-width="0.35 px" style="stroke-width:0.35;stroke-miterlimit:4;stroke-dasharray:none;fill:none;fill-opacity:1;fill-rule: evenodd"/>
<path id="Shape2DView_nwe0033"  d="M 37.35 -8.5 L 38.85 -8.5 " stroke="#191919" stroke-width="0.35 px" style="stroke-width:0.35;stroke-miterlimit:4;stroke-dasharray:none;fill:none;fill-opacity:1;fill-rule: evenodd"/>
<path id="Shape2DView_nwe0034"  d="M 38.85 -8.5 L 44.97 -8.5 " stroke="#191919" stroke-width="0.35 px" style="stroke-width:0.35;stroke-miterlimit:4;stroke-dasharray:none;fill:none;fill-opacity:1;fill-rule: evenodd"/>
<path id="Shape2DView_nwe0035"  d="M 44.97 -8.5 L 46.47 -8.5 " stroke="#191919" stroke-width="0.35 px" style="stroke-width:0.35;stroke-miterlimit:4;stroke-dasharray:none;fill:none;fill-opacity:1;fill-rule: evenodd"/>
<path id="Shape2DView_nwe0036"  d="M 46.47 -8.5 L 52.59 -8.5 " stroke="#191919" stroke-width="0.35 px" style="stroke-width:0.35;stroke-miterlimit:4;stroke-dasharray:none;fill:none;fill-opacity:1;fill-rule: evenodd"/>
<path id="Shape2DView_nwe0037"  d="M 52.59 -8.5 L 54.09 -8.5 " stroke="#191919" stroke-width="0.35 px" style="stroke-width:0.35;stroke-miterlimit:4;stroke-dasharray:none;fill:none;fill-opacity:1;fill-rule: evenodd"/>
<path id="Shape2DView_nwe0038"  d="M 54.09 -8.5 L 60.209999999999994 -8.5 " stroke="#191919" stroke-width="0.35 px" style="stroke-width:0.35;stroke-miterlimit:4;stroke-dasharray:none;fill:none;fill-opacity:1;fill-rule: evenodd"/>
<path id="Shape2DView_nwe0039"  d="M 60.209999999999994 -8.5 L 61.709999999999994 -8.5 " stroke="#191919" stroke-width="0.35 px" style="stroke-width:0.35;stroke-miterlimit:4;stroke-dasharray:none;fill:none;fill-opacity:1;fill-rule: evenodd"/>
<path id="Shape2DView_nwe0040"  d="M 61.709999999999994 -8.5 L 67.83 -8.5 " stroke="#191919" stroke-width="0.35 px" style="stroke-width:0.35;stroke-miterlimit:4;stroke-dasharray:none;fill:none;fill-opacity:1;fill-rule: evenodd"/>
<path id="Shape2DView_nwe0041"  d="M 67.83 -8.5 L 69.33 -8.5 " stroke="#191919" stroke-width="0.35 px" style="stroke-width:0.35;stroke-miterlimit:4;stroke-dasharray:none;fill:none;fill-opacity:1;fill-rule: evenodd"/>
<path id="Shape2DView_nwe0042"  d="M 69.33 -8.5 L 75.45 -8.5 " stroke="#191919" stroke-width="0.35 px" style="stroke-width:0.35;stroke-miterlimit:4;stroke-dasharray:none;fill:none;fill-opacity:1;fill-rule: evenodd"/>
<path id="Shape2DView_nwe0043"  d="M 75.45 -8.5 L 76.95 -8.5 " stroke="#191919" stroke-width="0.35 px" style="stroke-width:0.35;stroke-miterlimit:4;stroke-dasharray:none;fill:none;fill-opacity:1;fill-rule: evenodd"/>
<path id="Shape2DView_nwe0044"  d="M 76.95 -8.5 L 80.01 -8.5 " stroke="#191919" stroke-width="0.35 px" style="stroke-width:0.35;stroke-miterlimit:4;stroke-dasharray:none;fill:none;fill-opacity:1;fill-rule: evenodd"/>
<path id="Shape2DView_nwe0045"  d="M 77.20000000000189 -9.999999999999797 L 76.95000000000137 -8.499999999999872 " stroke="#191919" stroke-width="0.35 px" style="stroke-width:0.35;stroke-miterlimit:4;stroke-dasharray:none;fill:none;fill-opacity:1;fill-rule: evenodd"/>
<path id="Shape2DView_nwe0046"  d="M 1.0000000000002958 -9.999999999999819 L 0.7499999999997636 -8.499999999999895 " stroke="#191919" stroke-width="0.35 px" style="stroke-width:0.35;stroke-miterlimit:4;stroke-dasharray:none;fill:none;fill-opacity:1;fill-rule: evenodd"/>
<path id="Shape2DView_nwe0047"  d="M 1.0000000000000004 -10.0 L 6.619999999999999 -10.0 " stroke="#191919" stroke-width="0.35 px" style="stroke-width:0.35;stroke-miterlimit:4;stroke-dasharray:none;fill:none;fill-opacity:1;fill-rule: evenodd"/>
<path id="Shape2DView_nwe0048"  d="M 6.8700000000007 -8.500000000000032 L 6.620000000000168 -9.999999999999956 " stroke="#191919" stroke-width="0.35 px" style="stroke-width:0.35;stroke-miterlimit:4;stroke-dasharray:none;fill:none;fill-opacity:1;fill-rule: evenodd"/>
<path id="Shape2DView_nwe0049"  d="M 8.620000000000335 -9.999999999999883 L 8.369999999999802 -8.49999999999996 " stroke="#191919" stroke-width="0.35 px" style="stroke-width:0.35;stroke-miterlimit:4;stroke-dasharray:none;fill:none;fill-opacity:1;fill-rule: evenodd"/>
<path id="Shape2DView_nwe0050"  d="M 8.62 -10.0 L 14.24 -10.0 " stroke="#191919" stroke-width="0.35 px" style="stroke-width:0.35;stroke-miterlimit:4;stroke-dasharray:none;fill:none;fill-opacity:1;fill-rule: evenodd"/>
<path id="Shape2DView_nwe0051"  d="M 14.490000000000121 -8.499999999999673 L 14.239999999999588 -9.999999999999597 " stroke="#191919" stroke-width="0.35 px" style="stroke-width:0.35;stroke-miterlimit:4;stroke-dasharray:none;fill:none;fill-opacity:1;fill-rule: evenodd"/>
<path id="Shape2DView_nwe0052"  d="M 69.58000000000186 -9.999999999999734 L 69.33000000000133 -8.499999999999808 " stroke="#191919" stroke-width="0.35 px" style="stroke-width:0.35;stroke-miterlimit:4;stroke-dasharray:none;fill:none;fill-opacity:1;fill-rule: evenodd"/>
<path id="Shape2DView_nwe0053"  d="M 69.58 -10.0 L 75.2 -10.0 " stroke="#191919" stroke-width="0.35 px" style="stroke-width:0.35;stroke-miterlimit:4;stroke-dasharray:none;fill:none;fill-opacity:1;fill-rule: evenodd"/>
<path id="Shape2DView_nwe0054"  d="M 75.45000000000137 -8.499999999999506 L 75.20000000000084 -9.999999999999432 " stroke="#191919" stroke-width="0.35 px" style="stroke-width:0.35;stroke-miterlimit:4;stroke-dasharray:none;fill:none;fill-opacity:1;fill-rule: evenodd"/>
<path id="Shape2DView_nwe0055"  d="M 16.240000000000233 -10.000000000000105 L 15.9899999999997 -8.500000000000181 " stroke="#191919" stroke-width="0.35 px" style="stroke-width:0.35;stroke-miterlimit:4;stroke-dasharray:none;fill:none;fill-opacity:1;fill-rule: evenodd"/>
<path id="Shape2DView_nwe0056"  d="M 16.24 -10.0 L 21.86 -10.0 " stroke="#191919" stroke-width="0.35 px" style="stroke-width:0.35;stroke-miterlimit:4;stroke-dasharray:none;fill:none;fill-opacity:1;fill-rule: evenodd"/>
<path id="Shape2DView_nwe0057"  d="M 22.11000000000058 -8.500000000000083 L 21.860000000000046 -10.000000000000007 " stroke="#191919" stroke-width="0.35 px" style="stroke-width:0.35;stroke-miterlimit:4;stroke-dasharray:none;fill:none;fill-opacity:1;fill-rule: evenodd"/>
<path id="Shape2DView_nwe0058"  d="M 61.96000000000183 -9.99999999999967 L 61.710000000001294 -8.499999999999744 " stroke="#191919" stroke-width="0.35 px" style="stroke-width:0.35;stroke-miterlimit:4;stroke-dasharray:none;fill:none;fill-opacity:1;fill-rule: evenodd"/>
<path id="Shape2DView_nwe0059"  d="M 61.959999999999994 -10.0 L 67.58 -10.0 " stroke="#191919" stroke-width="0.35 px" style="stroke-width:0.35;stroke-miterlimit:4;stroke-dasharray:none;fill:none;fill-opacity:1;fill-rule: evenodd"/>
<path id="Shape2DView_nwe0060"  d="M 67.83000000000096 -8.499999999998762 L 67.58000000000044 -9.999999999998685 " stroke="#191919" stroke-width="0.35 px" style="stroke-width:0.35;stroke-miterlimit:4;stroke-dasharray:none;fill:none;fill-opacity:1;fill-rule: evenodd"/>
<path id="Shape2DView_nwe0061"  d="M 23.86000000000119 -9.999999999999691 L 23.61000000000066 -8.499999999999767 " stroke="#191919" stroke-width="0.35 px" style="stroke-width:0.35;stroke-miterlimit:4;stroke-dasharray:none;fill:none;fill-opacity:1;fill-rule: evenodd"/>
<path id="Shape2DView_nwe0062"  d="M 23.86 -10.0 L 29.48 -10.0 " stroke="#191919" stroke-width="0.35 px" style="stroke-width:0.35;stroke-miterlimit:4;stroke-dasharray:none;fill:none;fill-opacity:1;fill-rule: evenodd"/>
<path id="Shape2DView_nwe0063"  d="M 29.730000000000615 -8.499999999999055 L 29.480000000000082 -9.999999999998977 " stroke="#191919" stroke-width="0.35 px" style="stroke-width:0.35;stroke-miterlimit:4;stroke-dasharray:none;fill:none;fill-opacity:1;fill-rule: evenodd"/>
<path id="Shape2DView_nwe0064"  d="M 54.34000000000198 -9.999999999999783 L 54.090000000001446 -8.499999999999861 " stroke="#191919" stroke-width="0.35 px" style="stroke-width:0.35;stroke-miterlimit:4;stroke-dasharray:none;fill:none;fill-opacity:1;fill-rule: evenodd"/>
<path id="Shape2DView_nwe0065"  d="M 54.34 -10.0 L 59.96 -10.0 " stroke="#191919" stroke-width="0.35 px" style="stroke-width:0.35;stroke-miterlimit:4;stroke-dasharray:none;fill:none;fill-opacity:1;fill-rule: evenodd"/>
<path id="Shape2DView_nwe0066"  d="M 60.21000000000191 -8.49999999999993 L 59.96000000000138 -9.999999999999854 " stroke="#191919" stroke-width="0.35 px" style="stroke-width:0.35;stroke-miterlimit:4;stroke-dasharray:none;fill:none;fill-opacity:1;fill-rule: evenodd"/>
<path id="Shape2DView_nwe0067"  d="M 31.480000000001088 -9.999999999999911 L 31.230000000000558 -8.49999999999999 " stroke="#191919" stroke-width="0.35 px" style="stroke-width:0.35;stroke-miterlimit:4;stroke-dasharray:none;fill:none;fill-opacity:1;fill-rule: evenodd"/>
<path id="Shape2DView_nwe0068"  d="M 31.48 -10.0 L 37.1 -10.0 " stroke="#191919" stroke-width="0.35 px" style="stroke-width:0.35;stroke-miterlimit:4;stroke-dasharray:none;fill:none;fill-opacity:1;fill-rule: evenodd"/>
<path id="Shape2DView_nwe0069"  d="M 37.35000000000102 -8.499999999999801 L 37.100000000000485 -9.999999999999725 " stroke="#191919" stroke-width="0.35 px" style="stroke-width:0.35;stroke-miterlimit:4;stroke-dasharray:none;fill:none;fill-opacity:1;fill-rule: evenodd"/>
<path id="Shape2DView_nwe0070"  d="M 46.720000000000965 -9.999999999999861 L 46.47000000000043 -8.499999999999938 " stroke="#191919" stroke-width="0.35 px" style="stroke-width:0.35;stroke-miterlimit:4;stroke-dasharray:none;fill:none;fill-opacity:1;fill-rule: evenodd"/>
<path id="Shape2DView_nwe0071"  d="M 46.72 -10.0 L 52.34 -10.0 " stroke="#191919" stroke-width="0.35 px" style="stroke-width:0.35;stroke-miterlimit:4;stroke-dasharray:none;fill:none;fill-opacity:1;fill-rule: evenodd"/>
<path id="Shape2DView_nwe0072"  d="M 52.59000000000048 -8.499999999999378 L 52.33999999999995 -9.999999999999302 " stroke="#191919" stroke-width="0.35 px" style="stroke-width:0.35;stroke-miterlimit:4;stroke-dasharray:none;fill:none;fill-opacity:1;fill-rule: evenodd"/>
<path id="Shape2DView_nwe0073"  d="M 39.10000000000113 -9.999999999999975 L 38.8500000000006 -8.500000000000053 " stroke="#191919" stroke-width="0.35 px" style="stroke-width:0.35;stroke-miterlimit:4;stroke-dasharray:none;fill:none;fill-opacity:1;fill-rule: evenodd"/>
<path id="Shape2DView_nwe0074"  d="M 39.1 -10.0 L 44.72 -10.0 " stroke="#191919" stroke-width="0.35 px" style="stroke-width:0.35;stroke-miterlimit:4;stroke-dasharray:none;fill:none;fill-opacity:1;fill-rule: evenodd"/>
<path id="Shape2DView_nwe0075"  d="M 44.97000000000007 -8.499999999998632 L 44.71999999999954 -9.999999999998554 " stroke="#191919" stroke-width="0.35 px" style="stroke-width:0.35;stroke-miterlimit:4;stroke-dasharray:none;fill:none;fill-opacity:1;fill-rule: evenodd"/>
<title>b'Shape2DView'</title>
</g>
<g id="Rectangle" transform="translate(4.648200,2.838200) scale(1,-1)">
<rect fill="#ff0000" id="origin" width="1" height="1" x="0" y="0" />
<title>b'Rectangle'</title>
</g>
</svg>