<?xml version="1.0"?>
<!DOCTYPE svg PUBLIC "-//W3C//DTD SVG 1.1//EN" "http://www.w3.org/Graphics/SVG/1.1/DTD/svg11.dtd">
<svg width="3.57mm" height="2.870000000000001mm" viewBox="0 0 3.57 2.870000000000001" xmlns="http://www.w3.org/2000/svg" version="1.1">
<g id="Shape2DView" transform="translate(1.785000,1.435000) scale(1,-1)">
<path id="Shape2DView_nwe0000"  d="M 1.75 1.1 L 1.7499999999999993 -1.1 " stroke="#191919" stroke-width="0.35 px" style="stroke-width:0.35;stroke-miterlimit:4;stroke-dasharray:none;fill:none;fill-opacity:1;fill-rule: evenodd"/>
<path id="Shape2DView_nwe0001"  d="M 1.62 1.1 L 1.663333333333 1.1 " stroke="#191919" stroke-width="0.35 px" style="stroke-width:0.35;stroke-miterlimit:4;stroke-dasharray:none;fill:none;fill-opacity:1;fill-rule: evenodd"/>
<path id="Shape2DView_nwe0002"  d="M 1.74999999999967 1.1 L 1.7494550581904178 1.1 L 1.7478270857220948 1.1 L 1.7451365552930618 1.1 L 1.741417301884546 1.1 L 1.7367160972661209 1.1 L 1.7310920618135652 1.1 L 1.7246159210358365 1.1 L 1.717369116160759 1.1 L 1.709442779964331 1.1 L 1.70093659072319 1.1 L 1.691957518702449 1.1 L 1.682618480942548 1.1 L 1.6730369212619538 1.1 L 1.663333333333 1.1 " stroke="#191919" stroke-width="0.35 px" style="stroke-width:0.35;stroke-miterlimit:4;stroke-dasharray:none;fill:none;fill-opacity:1;fill-rule: evenodd"/>
<path id="Shape2DView_nwe0004"  d="M 1.74999999999967 -1.1 L 1.7494550581904178 -1.1 L 1.7478270857220948 -1.1 L 1.7451365552930618 -1.1 L 1.741417301884546 -1.1 L 1.7367160972661209 -1.1 L 1.7310920618135652 -1.1 L 1.7246159210358365 -1.1 L 1.717369116160759 -1.1 L 1.709442779964331 -1.1 L 1.70093659072319 -1.1 L 1.691957518702449 -1.1 L 1.682618480942548 -1.1 L 1.6730369212619538 -1.1 L 1.663333333333 -1.1 " stroke="#191919" stroke-width="0.35 px" style="stroke-width:0.35;stroke-miterlimit:4;stroke-dasharray:none;fill:none;fill-opacity:1;fill-rule: evenodd"/>
<path id="Shape2DView_nwe0005"  d="M 1.663333333333 -1.1 L 1.62 -1.1 " stroke="#191919" stroke-width="0.35 px" style="stroke-width:0.35;stroke-miterlimit:4;stroke-dasharray:none;fill:none;fill-opacity:1;fill-rule: evenodd"/>
<path id="Shape2DView_nwe0006"  d="M 1.62 -1.4 L 1.6200000000000008 1.4 " stroke="#191919" stroke-width="0.35 px" style="stroke-width:0.35;stroke-miterlimit:4;stroke-dasharray:none;fill:none;fill-opacity:1;fill-rule: evenodd"/>
<path id="Shape2DView_nwe0007"  d="M -1.62 -1.4 L 1.62 -1.4000000000000006 " stroke="#191919" stroke-width="0.35 px" style="stroke-width:0.35;stroke-miterlimit:4;stroke-dasharray:none;fill:none;fill-opacity:1;fill-rule: evenodd"/>
<path id="Shape2DView_nwe0008"  d="M 1.62 1.4 L 1.538837667959 1.318837667959 " stroke="#191919" stroke-width="0.35 px" style="stroke-width:0.35;stroke-miterlimit:4;stroke-dasharray:none;fill:none;fill-opacity:1;fill-rule: evenodd"/>
<path id="Shape2DView_nwe0009"  d="M 1.538837667959 -1.318837667959 L 1.5388376679590006 1.318837667959 " stroke="#191919" stroke-width="0.35 px" style="stroke-width:0.35;stroke-miterlimit:4;stroke-dasharray:none;fill:none;fill-opacity:1;fill-rule: evenodd"/>
<path id="Shape2DView_nwe0010"  d="M 1.62 -1.4 L 1.538837667959 -1.318837667959 " stroke="#191919" stroke-width="0.35 px" style="stroke-width:0.35;stroke-miterlimit:4;stroke-dasharray:none;fill:none;fill-opacity:1;fill-rule: evenodd"/>
<path id="Shape2DView_nwe0011"  d="M 1.62 1.4 L -1.62 1.4000000000000006 " stroke="#191919" stroke-width="0.35 px" style="stroke-width:0.35;stroke-miterlimit:4;stroke-dasharray:none;fill:none;fill-opacity:1;fill-rule: evenodd"/>
<path id="Shape2DView_nwe0012"  d="M -1.62 1.4 L -1.6200000000000008 -1.4 " stroke="#191919" stroke-width="0.35 px" style="stroke-width:0.35;stroke-miterlimit:4;stroke-dasharray:none;fill:none;fill-opacity:1;fill-rule: evenodd"/>
<path id="Shape2DView_nwe0013"  d="M -1.74999999999967 1.1 L -1.7494550581904178 1.1 L -1.7478270857220948 1.1 L -1.7451365552930618 1.1 L -1.741417301884546 1.1 L -1.7367160972661209 1.1 L -1.7310920618135652 1.1 L -1.7246159210358365 1.1 L -1.717369116160759 1.1 L -1.709442779964331 1.1 L -1.70093659072319 1.1 L -1.691957518702449 1.1 L -1.682618480942548 1.1 L -1.6730369212619538 1.1 L -1.663333333333 1.1 " stroke="#191919" stroke-width="0.35 px" style="stroke-width:0.35;stroke-miterlimit:4;stroke-dasharray:none;fill:none;fill-opacity:1;fill-rule: evenodd"/>
<path id="Shape2DView_nwe0014"  d="M -1.663333333333 1.1 L -1.62 1.1 " stroke="#191919" stroke-width="0.35 px" style="stroke-width:0.35;stroke-miterlimit:4;stroke-dasharray:none;fill:none;fill-opacity:1;fill-rule: evenodd"/>
<path id="Shape2DView_nwe0015"  d="M -1.62 -1.1 L -1.663333333333 -1.1 " stroke="#191919" stroke-width="0.35 px" style="stroke-width:0.35;stroke-miterlimit:4;stroke-dasharray:none;fill:none;fill-opacity:1;fill-rule: evenodd"/>
<path id="Shape2DView_nwe0016"  d="M -1.74999999999967 -1.1 L -1.7494550581904178 -1.1 L -1.7478270857220948 -1.1 L -1.7451365552930618 -1.1 L -1.741417301884546 -1.1 L -1.7367160972661209 -1.1 L -1.7310920618135652 -1.1 L -1.7246159210358365 -1.1 L -1.717369116160759 -1.1 L -1.709442779964331 -1.1 L -1.70093659072319 -1.1 L -1.691957518702449 -1.1 L -1.682618480942548 -1.1 L -1.6730369212619538 -1.1 L -1.663333333333 -1.1 " stroke="#191919" stroke-width="0.35 px" style="stroke-width:0.35;stroke-miterlimit:4;stroke-dasharray:none;fill:none;fill-opacity:1;fill-rule: evenodd"/>
<path id="Shape2DView_nwe0017"  d="M -1.138837667959 -1.318837667959 L 1.538837667959 -1.3188376679590006 " stroke="#191919" stroke-width="0.35 px" style="stroke-width:0.35;stroke-miterlimit:4;stroke-dasharray:none;fill:none;fill-opacity:1;fill-rule: evenodd"/>
<path id="Shape2DView_nwe0018"  d="M -1.566876692757 -1.346876692757 L -1.1388376679589998 -1.318837667959 " stroke="#191919" stroke-width="0.35 px" style="stroke-width:0.35;stroke-miterlimit:4;stroke-dasharray:none;fill:none;fill-opacity:1;fill-rule: evenodd"/>
<path id="Shape2DView_nwe0019"  d="M -1.62 -1.4 L -1.5668766927566573 -1.3468766927566573 " stroke="#191919" stroke-width="0.35 px" style="stroke-width:0.35;stroke-miterlimit:4;stroke-dasharray:none;fill:none;fill-opacity:1;fill-rule: evenodd"/>
<path id="Shape2DView_nwe0020"  d="M -1.62 1.4 L -1.5668766927566573 1.3468766927566573 " stroke="#191919" stroke-width="0.35 px" style="stroke-width:0.35;stroke-miterlimit:4;stroke-dasharray:none;fill:none;fill-opacity:1;fill-rule: evenodd"/>
<path id="Shape2DView_nwe0021"  d="M -1.566876692757 1.346876692757 L -1.1388376679589998 1.318837667959 " stroke="#191919" stroke-width="0.35 px" style="stroke-width:0.35;stroke-miterlimit:4;stroke-dasharray:none;fill:none;fill-opacity:1;fill-rule: evenodd"/>
<path id="Shape2DView_nwe0022"  d="M 1.538837667959 1.318837667959 L -1.138837667959 1.3188376679590006 " stroke="#191919" stroke-width="0.35 px" style="stroke-width:0.35;stroke-miterlimit:4;stroke-dasharray:none;fill:none;fill-opacity:1;fill-rule: evenodd"/>
<path id="Shape2DView_nwe0023"  d="M -1.138837667959 1.318837667959 Q -1.138837667959 1.1331040272732906e-13 -1.138837667959 -1.3188376679590001 " stroke="#191919" stroke-width="0.35 px" style="stroke-width:0.35;stroke-miterlimit:4;stroke-dasharray:none;fill:none;fill-opacity:1;fill-rule: evenodd"/>
<path id="Shape2DView_nwe0024"  d="M -0.457675335919 1.237675335919 L -1.057675335919 1.2376753359190003 " stroke="#191919" stroke-width="0.35 px" style="stroke-width:0.35;stroke-miterlimit:4;stroke-dasharray:none;fill:none;fill-opacity:1;fill-rule: evenodd"/>
<path id="Shape2DView_nwe0025"  d="M -1.057675335919 1.237675335919 L -1.0576753359190005 -1.237675335919 " stroke="#191919" stroke-width="0.35 px" style="stroke-width:0.35;stroke-miterlimit:4;stroke-dasharray:none;fill:none;fill-opacity:1;fill-rule: evenodd"/>
<path id="Shape2DView_nwe0026"  d="M -1.057675335919 -1.237675335919 L -0.457675335919 -1.2376753359190003 " stroke="#191919" stroke-width="0.35 px" style="stroke-width:0.35;stroke-miterlimit:4;stroke-dasharray:none;fill:none;fill-opacity:1;fill-rule: evenodd"/>
<path id="Shape2DView_nwe0027"  d="M -0.457675335919 -1.237675335919 L -0.45767533591899945 1.237675335919 " stroke="#191919" stroke-width="0.35 px" style="stroke-width:0.35;stroke-miterlimit:4;stroke-dasharray:none;fill:none;fill-opacity:1;fill-rule: evenodd"/>
<path id="Shape2DView_nwe0028"  d="M -1.566876692757 1.3468766927567501 Q -1.566876692757 3.479165162094e-16 -1.5668766927570001 -1.3468766927569862 " stroke="#191919" stroke-width="0.35 px" style="stroke-width:0.35;stroke-miterlimit:4;stroke-dasharray:none;fill:none;fill-opacity:1;fill-rule: evenodd"/>
<path id="Shape2DView_nwe0029"  d="M -1.75 -1.1 L -1.7499999999999998 -0.5 " stroke="#191919" stroke-width="0.35 px" style="stroke-width:0.35;stroke-miterlimit:4;stroke-dasharray:none;fill:none;fill-opacity:1;fill-rule: evenodd"/>
<path id="Shape2DView_nwe0030"  d="M -1.7499999999999996 0.5 L -1.7499999999999996 1.1 " stroke="#191919" stroke-width="0.35 px" style="stroke-width:0.35;stroke-miterlimit:4;stroke-dasharray:none;fill:none;fill-opacity:1;fill-rule: evenodd"/>
<path id="Shape2DView_nwe0031"  d="M -1.663333333333 0.5 L -1.62 0.49999999999999994 " stroke="#191919" stroke-width="0.35 px" style="stroke-width:0.35;stroke-miterlimit:4;stroke-dasharray:none;fill:none;fill-opacity:1;fill-rule: evenodd"/>
<path id="Shape2DView_nwe0033"  d="M -1.74999999999967 0.5 L -1.7494550581904178 0.5 L -1.7478270857220948 0.5 L -1.7451365552930618 0.5 L -1.741417301884546 0.5 L -1.7367160972661209 0.5 L -1.7310920618135652 0.5 L -1.7246159210358365 0.5 L -1.717369116160759 0.5 L -1.709442779964331 0.5 L -1.70093659072319 0.5 L -1.691957518702449 0.5 L -1.682618480942548 0.5 L -1.6730369212619538 0.5 L -1.663333333333 0.5 " stroke="#191919" stroke-width="0.35 px" style="stroke-width:0.35;stroke-miterlimit:4;stroke-dasharray:none;fill:none;fill-opacity:1;fill-rule: evenodd"/>
<path id="Shape2DView_nwe0035"  d="M -1.75 -0.5 L -1.7499999999999998 0.5 " stroke="#191919" stroke-width="0.35 px" style="stroke-width:0.35;stroke-miterlimit:4;stroke-dasharray:none;fill:none;fill-opacity:1;fill-rule: evenodd"/>
<path id="Shape2DView_nwe0036"  d="M -1.74999999999967 -0.5 L -1.7494550581904178 -0.5 L -1.7478270857220948 -0.5 L -1.7451365552930618 -0.5 L -1.741417301884546 -0.5 L -1.7367160972661209 -0.5 L -1.7310920618135652 -0.5 L -1.7246159210358365 -0.5 L -1.717369116160759 -0.5 L -1.709442779964331 -0.5 L -1.70093659072319 -0.5 L -1.691957518702449 -0.5 L -1.682618480942548 -0.5 L -1.6730369212619538 -0.5 L -1.663333333333 -0.5 " stroke="#191919" stroke-width="0.35 px" style="stroke-width:0.35;stroke-miterlimit:4;stroke-dasharray:none;fill:none;fill-opacity:1;fill-rule: evenodd"/>
<path id="Shape2DView_nwe0037"  d="M -1.62 -0.5 L -1.663333333333 -0.5 " stroke="#191919" stroke-width="0.35 px" style="stroke-width:0.35;stroke-miterlimit:4;stroke-dasharray:none;fill:none;fill-opacity:1;fill-rule: evenodd"/>
<path id="Shape2DView_nwe0038"  d="M 1.663333333333 1.1 L 1.6633333333329994 -1.1 " stroke="#191919" stroke-width="0.35 px" style="stroke-width:0.35;stroke-miterlimit:4;stroke-dasharray:none;fill:none;fill-opacity:1;fill-rule: evenodd"/>
<path id="Shape2DView_nwe0039"  d="M -1.6633333333329996 0.5 L -1.6633333333329996 1.1 " stroke="#191919" stroke-width="0.35 px" style="stroke-width:0.35;stroke-miterlimit:4;stroke-dasharray:none;fill:none;fill-opacity:1;fill-rule: evenodd"/>
<path id="Shape2DView_nwe0040"  d="M -1.663333333333 -1.1 L -1.6633333333329998 -0.5 " stroke="#191919" stroke-width="0.35 px" style="stroke-width:0.35;stroke-miterlimit:4;stroke-dasharray:none;fill:none;fill-opacity:1;fill-rule: evenodd"/>
<title>b'Shape2DView'</title>
</g>
<g id="Rectangle" transform="translate(1.785000,1.435000) scale(1,-1)">
<rect fill="#ff0000" id="origin" width="1" height="1" x="0" y="0" />
<title>b'Rectangle'</title>
</g>
</svg>