<?xml version="1.0"?>
<!DOCTYPE svg PUBLIC "-//W3C//DTD SVG 1.1//EN" "http://www.w3.org/Graphics/SVG/1.1/DTD/svg11.dtd">
<svg width="2.091mm" height="1.716mm" viewBox="0 0 2.091 1.716" xmlns="http://www.w3.org/2000/svg" version="1.1">
<g id="Shape2DView" transform="translate(1.045500,1.020500) scale(1,-1)">
<path id="Shape2DView_nwe0000"  d="M 0.925 0.5 L 0.958333333333 0.5 " stroke="#191919" stroke-width="0.35 px" style="stroke-width:0.35;stroke-miterlimit:4;stroke-dasharray:none;fill:none;fill-opacity:1;fill-rule: evenodd"/>
<path id="Shape2DView_nwe0001"  d="M 1.02499999999967 0.5 L 1.0245808139925527 0.5 L 1.023328527478458 0.5 L 1.0212588886868943 0.5 L 1.0183979245264976 0.5 L 1.014781613281555 0.5 L 1.0104554321642045 0.5 L 1.0054737854121054 0.5 L 0.9998993201235843 0.5 L 0.9938021384340242 0.5 L 0.9872589159408386 0.5 L 0.9803519374633456 0.5 L 0.9731680622634217 0.5 L 0.9657976317398875 0.5 L 0.958333333333 0.5 " stroke="#191919" stroke-width="0.35 px" style="stroke-width:0.35;stroke-miterlimit:4;stroke-dasharray:none;fill:none;fill-opacity:1;fill-rule: evenodd"/>
<path id="Shape2DView_nwe0002"  d="M 1.025 0.5 L 1.025 -0.5 " stroke="#191919" stroke-width="0.35 px" style="stroke-width:0.35;stroke-miterlimit:4;stroke-dasharray:none;fill:none;fill-opacity:1;fill-rule: evenodd"/>
<path id="Shape2DView_nwe0003"  d="M 1.02499999999967 -0.5 L 1.0245808139925527 -0.5 L 1.023328527478458 -0.5 L 1.0212588886868943 -0.5 L 1.0183979245264976 -0.5 L 1.014781613281555 -0.5 L 1.0104554321642045 -0.5 L 1.0054737854121054 -0.5 L 0.9998993201235843 -0.5 L 0.9938021384340242 -0.5 L 0.9872589159408386 -0.5 L 0.9803519374633456 -0.5 L 0.9731680622634217 -0.5 L 0.9657976317398875 -0.5 L 0.958333333333 -0.5 " stroke="#191919" stroke-width="0.35 px" style="stroke-width:0.35;stroke-miterlimit:4;stroke-dasharray:none;fill:none;fill-opacity:1;fill-rule: evenodd"/>
<path id="Shape2DView_nwe0004"  d="M 0.958333333333 -0.5 L 0.925 -0.5 " stroke="#191919" stroke-width="0.35 px" style="stroke-width:0.35;stroke-miterlimit:4;stroke-dasharray:none;fill:none;fill-opacity:1;fill-rule: evenodd"/>
<path id="Shape2DView_nwe0006"  d="M 0.925 -0.675 L 0.9249999999999997 0.675 " stroke="#191919" stroke-width="0.35 px" style="stroke-width:0.35;stroke-miterlimit:4;stroke-dasharray:none;fill:none;fill-opacity:1;fill-rule: evenodd"/>
<path id="Shape2DView_nwe0007"  d="M -0.925 -0.675 L 0.925 -0.6749999999999996 " stroke="#191919" stroke-width="0.35 px" style="stroke-width:0.35;stroke-miterlimit:4;stroke-dasharray:none;fill:none;fill-opacity:1;fill-rule: evenodd"/>
<path id="Shape2DView_nwe0008"  d="M 0.925 0.675 L 0.867026905685 0.617026905685 " stroke="#191919" stroke-width="0.35 px" style="stroke-width:0.35;stroke-miterlimit:4;stroke-dasharray:none;fill:none;fill-opacity:1;fill-rule: evenodd"/>
<path id="Shape2DView_nwe0009"  d="M 0.867026905685 -0.617026905685 L 0.8670269056849997 0.617026905685 " stroke="#191919" stroke-width="0.35 px" style="stroke-width:0.35;stroke-miterlimit:4;stroke-dasharray:none;fill:none;fill-opacity:1;fill-rule: evenodd"/>
<path id="Shape2DView_nwe0010"  d="M 0.925 -0.675 L 0.867026905685 -0.617026905685 " stroke="#191919" stroke-width="0.35 px" style="stroke-width:0.35;stroke-miterlimit:4;stroke-dasharray:none;fill:none;fill-opacity:1;fill-rule: evenodd"/>
<path id="Shape2DView_nwe0011"  d="M 0.925 0.675 L -0.925 0.6749999999999996 " stroke="#191919" stroke-width="0.35 px" style="stroke-width:0.35;stroke-miterlimit:4;stroke-dasharray:none;fill:none;fill-opacity:1;fill-rule: evenodd"/>
<path id="Shape2DView_nwe0012"  d="M -0.925 0.675 L -0.9249999999999997 -0.675 " stroke="#191919" stroke-width="0.35 px" style="stroke-width:0.35;stroke-miterlimit:4;stroke-dasharray:none;fill:none;fill-opacity:1;fill-rule: evenodd"/>
<path id="Shape2DView_nwe0013"  d="M -1.02499999999967 0.5 L -1.0245808139925527 0.5 L -1.023328527478458 0.5 L -1.0212588886868943 0.5 L -1.0183979245264976 0.5 L -1.014781613281555 0.5 L -1.0104554321642045 0.5 L -1.0054737854121054 0.5 L -0.9998993201235843 0.5 L -0.9938021384340242 0.5 L -0.9872589159408386 0.5 L -0.9803519374633456 0.5 L -0.9731680622634217 0.5 L -0.9657976317398875 0.5 L -0.958333333333 0.5 " stroke="#191919" stroke-width="0.35 px" style="stroke-width:0.35;stroke-miterlimit:4;stroke-dasharray:none;fill:none;fill-opacity:1;fill-rule: evenodd"/>
<path id="Shape2DView_nwe0014"  d="M -0.958333333333 0.5 L -0.925 0.5 " stroke="#191919" stroke-width="0.35 px" style="stroke-width:0.35;stroke-miterlimit:4;stroke-dasharray:none;fill:none;fill-opacity:1;fill-rule: evenodd"/>
<path id="Shape2DView_nwe0015"  d="M -0.925 -0.5 L -0.958333333333 -0.5 " stroke="#191919" stroke-width="0.35 px" style="stroke-width:0.35;stroke-miterlimit:4;stroke-dasharray:none;fill:none;fill-opacity:1;fill-rule: evenodd"/>
<path id="Shape2DView_nwe0016"  d="M -1.02499999999967 -0.5 L -1.0245808139925527 -0.5 L -1.023328527478458 -0.5 L -1.0212588886868943 -0.5 L -1.0183979245264976 -0.5 L -1.014781613281555 -0.5 L -1.0104554321642045 -0.5 L -1.0054737854121054 -0.5 L -0.9998993201235843 -0.5 L -0.9938021384340242 -0.5 L -0.9872589159408386 -0.5 L -0.9803519374633456 -0.5 L -0.9731680622634217 -0.5 L -0.9657976317398875 -0.5 L -0.958333333333 -0.5 " stroke="#191919" stroke-width="0.35 px" style="stroke-width:0.35;stroke-miterlimit:4;stroke-dasharray:none;fill:none;fill-opacity:1;fill-rule: evenodd"/>
<path id="Shape2DView_nwe0017"  d="M -0.867026905685 -0.617026905685 L 0.867026905685 -0.6170269056849996 " stroke="#191919" stroke-width="0.35 px" style="stroke-width:0.35;stroke-miterlimit:4;stroke-dasharray:none;fill:none;fill-opacity:1;fill-rule: evenodd"/>
<path id="Shape2DView_nwe0018"  d="M -0.925 -0.675 L -0.867026905685 -0.617026905685 " stroke="#191919" stroke-width="0.35 px" style="stroke-width:0.35;stroke-miterlimit:4;stroke-dasharray:none;fill:none;fill-opacity:1;fill-rule: evenodd"/>
<path id="Shape2DView_nwe0019"  d="M -0.925 0.675 L -0.867026905685 0.617026905685 " stroke="#191919" stroke-width="0.35 px" style="stroke-width:0.35;stroke-miterlimit:4;stroke-dasharray:none;fill:none;fill-opacity:1;fill-rule: evenodd"/>
<path id="Shape2DView_nwe0020"  d="M 0.867026905685 0.617026905685 L -0.867026905685 0.6170269056849996 " stroke="#191919" stroke-width="0.35 px" style="stroke-width:0.35;stroke-miterlimit:4;stroke-dasharray:none;fill:none;fill-opacity:1;fill-rule: evenodd"/>
<path id="Shape2DView_nwe0021"  d="M -0.867026905685 0.617026905685 L -0.8670269056849997 -0.617026905685 " stroke="#191919" stroke-width="0.35 px" style="stroke-width:0.35;stroke-miterlimit:4;stroke-dasharray:none;fill:none;fill-opacity:1;fill-rule: evenodd"/>
<path id="Shape2DView_nwe0022"  d="M -0.809053811371 0.559053811371 L -0.8090538113709997 -0.559053811371 " stroke="#191919" stroke-width="0.35 px" style="stroke-width:0.35;stroke-miterlimit:4;stroke-dasharray:none;fill:none;fill-opacity:1;fill-rule: evenodd"/>
<path id="Shape2DView_nwe0023"  d="M -0.809053811371 -0.559053811371 L -0.509053811371 -0.5590538113709999 " stroke="#191919" stroke-width="0.35 px" style="stroke-width:0.35;stroke-miterlimit:4;stroke-dasharray:none;fill:none;fill-opacity:1;fill-rule: evenodd"/>
<path id="Shape2DView_nwe0024"  d="M -0.509053811371 -0.559053811371 L -0.5090538113710003 0.559053811371 " stroke="#191919" stroke-width="0.35 px" style="stroke-width:0.35;stroke-miterlimit:4;stroke-dasharray:none;fill:none;fill-opacity:1;fill-rule: evenodd"/>
<path id="Shape2DView_nwe0025"  d="M -0.509053811371 0.559053811371 L -0.809053811371 0.5590538113709999 " stroke="#191919" stroke-width="0.35 px" style="stroke-width:0.35;stroke-miterlimit:4;stroke-dasharray:none;fill:none;fill-opacity:1;fill-rule: evenodd"/>
<path id="Shape2DView_nwe0026"  d="M -1.025 -0.5 L -1.025 -0.25 " stroke="#191919" stroke-width="0.35 px" style="stroke-width:0.35;stroke-miterlimit:4;stroke-dasharray:none;fill:none;fill-opacity:1;fill-rule: evenodd"/>
<path id="Shape2DView_nwe0027"  d="M -1.0250000000000001 0.25 L -1.0250000000000001 0.5 " stroke="#191919" stroke-width="0.35 px" style="stroke-width:0.35;stroke-miterlimit:4;stroke-dasharray:none;fill:none;fill-opacity:1;fill-rule: evenodd"/>
<path id="Shape2DView_nwe0028"  d="M -0.958333333333 0.25 L -0.925 0.25 " stroke="#191919" stroke-width="0.35 px" style="stroke-width:0.35;stroke-miterlimit:4;stroke-dasharray:none;fill:none;fill-opacity:1;fill-rule: evenodd"/>
<path id="Shape2DView_nwe0030"  d="M -1.02499999999967 0.24999999999999997 L -1.0245808139925527 0.24999999999999997 L -1.023328527478458 0.24999999999999997 L -1.0212588886868943 0.24999999999999997 L -1.0183979245264976 0.25 L -1.014781613281555 0.25 L -1.0104554321642045 0.25 L -1.0054737854121054 0.25 L -0.9998993201235843 0.25 L -0.9938021384340242 0.25 L -0.9872589159408386 0.25 L -0.9803519374633456 0.25 L -0.9731680622634217 0.25 L -0.9657976317398875 0.25 L -0.958333333333 0.25 " stroke="#191919" stroke-width="0.35 px" style="stroke-width:0.35;stroke-miterlimit:4;stroke-dasharray:none;fill:none;fill-opacity:1;fill-rule: evenodd"/>
<path id="Shape2DView_nwe0032"  d="M -1.025 -0.25 L -1.025 0.25 " stroke="#191919" stroke-width="0.35 px" style="stroke-width:0.35;stroke-miterlimit:4;stroke-dasharray:none;fill:none;fill-opacity:1;fill-rule: evenodd"/>
<path id="Shape2DView_nwe0033"  d="M -1.02499999999967 -0.25 L -1.0245808139925527 -0.25 L -1.023328527478458 -0.25 L -1.0212588886868943 -0.25 L -1.0183979245264976 -0.25 L -1.014781613281555 -0.25 L -1.0104554321642045 -0.25 L -1.0054737854121054 -0.25 L -0.9998993201235843 -0.25 L -0.9938021384340242 -0.25 L -0.9872589159408386 -0.25 L -0.9803519374633456 -0.25 L -0.9731680622634217 -0.25 L -0.9657976317398875 -0.25 L -0.958333333333 -0.25 " stroke="#191919" stroke-width="0.35 px" style="stroke-width:0.35;stroke-miterlimit:4;stroke-dasharray:none;fill:none;fill-opacity:1;fill-rule: evenodd"/>
<path id="Shape2DView_nwe0034"  d="M -0.925 -0.25 L -0.958333333333 -0.25 " stroke="#191919" stroke-width="0.35 px" style="stroke-width:0.35;stroke-miterlimit:4;stroke-dasharray:none;fill:none;fill-opacity:1;fill-rule: evenodd"/>
<path id="Shape2DView_nwe0035"  d="M 0.958333333333 0.5 L 0.9583333333330001 -0.5 " stroke="#191919" stroke-width="0.35 px" style="stroke-width:0.35;stroke-miterlimit:4;stroke-dasharray:none;fill:none;fill-opacity:1;fill-rule: evenodd"/>
<path id="Shape2DView_nwe0036"  d="M -0.9583333333330001 0.25 L -0.9583333333330002 0.5 " stroke="#191919" stroke-width="0.35 px" style="stroke-width:0.35;stroke-miterlimit:4;stroke-dasharray:none;fill:none;fill-opacity:1;fill-rule: evenodd"/>
<path id="Shape2DView_nwe0037"  d="M -0.958333333333 -0.5 L -0.958333333333 -0.25 " stroke="#191919" stroke-width="0.35 px" style="stroke-width:0.35;stroke-miterlimit:4;stroke-dasharray:none;fill:none;fill-opacity:1;fill-rule: evenodd"/>
<title>b'Shape2DView'</title>
</g>
<g id="Rectangle" transform="translate(1.045500,1.020500) scale(1,-1)">
<rect fill="#ff0000" id="origin" width="1" height="1" x="0" y="0" />
<title>b'Rectangle'</title>
</g>
</svg>