<?xml version="1.0"?>
<!DOCTYPE svg PUBLIC "-//W3C//DTD SVG 1.1//EN" "http://www.w3.org/Graphics/SVG/1.1/DTD/svg11.dtd">
<svg width="6.426mm" height="3.6260000000000026mm" viewBox="0 0 6.426 3.6260000000000026" xmlns="http://www.w3.org/2000/svg" version="1.1">
<g id="Shape2DView" transform="translate(3.213000,1.813000) scale(1,-1)">
<path id="Shape2DView_nwe0000"  d="M 3.02 1.1 L 3.063333333333 1.1 " stroke="#191919" stroke-width="0.35 px" style="stroke-width:0.35;stroke-miterlimit:4;stroke-dasharray:none;fill:none;fill-opacity:1;fill-rule: evenodd"/>
<path id="Shape2DView_nwe0001"  d="M 3.14999999999967 1.1 L 3.1494550581904175 1.1 L 3.1478270857220947 1.1 L 3.1451365552930617 1.1 L 3.141417301884546 1.1 L 3.1367160972661208 1.1 L 3.131092061813565 1.1 L 3.1246159210358364 1.1 L 3.117369116160759 1.1 L 3.109442779964331 1.1 L 3.10093659072319 1.1 L 3.091957518702449 1.1 L 3.082618480942548 1.1 L 3.0730369212619535 1.1 L 3.063333333333 1.1 " stroke="#191919" stroke-width="0.35 px" style="stroke-width:0.35;stroke-miterlimit:4;stroke-dasharray:none;fill:none;fill-opacity:1;fill-rule: evenodd"/>
<path id="Shape2DView_nwe0002"  d="M 3.15 1.1 L 3.149999999999999 -1.1 " stroke="#191919" stroke-width="0.35 px" style="stroke-width:0.35;stroke-miterlimit:4;stroke-dasharray:none;fill:none;fill-opacity:1;fill-rule: evenodd"/>
<path id="Shape2DView_nwe0003"  d="M 3.14999999999967 -1.1 L 3.1494550581904175 -1.1 L 3.1478270857220947 -1.1 L 3.1451365552930617 -1.1 L 3.141417301884546 -1.1 L 3.1367160972661208 -1.1 L 3.131092061813565 -1.1 L 3.1246159210358364 -1.1 L 3.117369116160759 -1.1 L 3.109442779964331 -1.1 L 3.10093659072319 -1.1 L 3.091957518702449 -1.1 L 3.082618480942548 -1.1 L 3.0730369212619535 -1.1 L 3.063333333333 -1.1 " stroke="#191919" stroke-width="0.35 px" style="stroke-width:0.35;stroke-miterlimit:4;stroke-dasharray:none;fill:none;fill-opacity:1;fill-rule: evenodd"/>
<path id="Shape2DView_nwe0004"  d="M 3.063333333333 -1.1 L 3.02 -1.1 " stroke="#191919" stroke-width="0.35 px" style="stroke-width:0.35;stroke-miterlimit:4;stroke-dasharray:none;fill:none;fill-opacity:1;fill-rule: evenodd"/>
<path id="Shape2DView_nwe0006"  d="M 3.02 -1.75 L 3.020000000000001 1.75 " stroke="#191919" stroke-width="0.35 px" style="stroke-width:0.35;stroke-miterlimit:4;stroke-dasharray:none;fill:none;fill-opacity:1;fill-rule: evenodd"/>
<path id="Shape2DView_nwe0007"  d="M -3.02 -1.75 L 3.02 -1.7500000000000013 " stroke="#191919" stroke-width="0.35 px" style="stroke-width:0.35;stroke-miterlimit:4;stroke-dasharray:none;fill:none;fill-opacity:1;fill-rule: evenodd"/>
<path id="Shape2DView_nwe0008"  d="M 3.02 1.75 L 2.962026905685 1.692026905685 " stroke="#191919" stroke-width="0.35 px" style="stroke-width:0.35;stroke-miterlimit:4;stroke-dasharray:none;fill:none;fill-opacity:1;fill-rule: evenodd"/>
<path id="Shape2DView_nwe0009"  d="M 2.962026905685 -1.692026905685 L 2.962026905685001 1.692026905685 " stroke="#191919" stroke-width="0.35 px" style="stroke-width:0.35;stroke-miterlimit:4;stroke-dasharray:none;fill:none;fill-opacity:1;fill-rule: evenodd"/>
<path id="Shape2DView_nwe0010"  d="M 3.02 -1.75 L 2.962026905685 -1.692026905685 " stroke="#191919" stroke-width="0.35 px" style="stroke-width:0.35;stroke-miterlimit:4;stroke-dasharray:none;fill:none;fill-opacity:1;fill-rule: evenodd"/>
<path id="Shape2DView_nwe0011"  d="M 3.02 1.75 L -3.02 1.7500000000000013 " stroke="#191919" stroke-width="0.35 px" style="stroke-width:0.35;stroke-miterlimit:4;stroke-dasharray:none;fill:none;fill-opacity:1;fill-rule: evenodd"/>
<path id="Shape2DView_nwe0012"  d="M -3.02 1.75 L -3.020000000000001 -1.75 " stroke="#191919" stroke-width="0.35 px" style="stroke-width:0.35;stroke-miterlimit:4;stroke-dasharray:none;fill:none;fill-opacity:1;fill-rule: evenodd"/>
<path id="Shape2DView_nwe0013"  d="M -3.14999999999967 1.1 L -3.1494550581904175 1.1 L -3.1478270857220947 1.1 L -3.1451365552930617 1.1 L -3.141417301884546 1.1 L -3.1367160972661208 1.1 L -3.131092061813565 1.1 L -3.1246159210358364 1.1 L -3.117369116160759 1.1 L -3.109442779964331 1.1 L -3.10093659072319 1.1 L -3.091957518702449 1.1 L -3.082618480942548 1.1 L -3.0730369212619535 1.1 L -3.063333333333 1.1 " stroke="#191919" stroke-width="0.35 px" style="stroke-width:0.35;stroke-miterlimit:4;stroke-dasharray:none;fill:none;fill-opacity:1;fill-rule: evenodd"/>
<path id="Shape2DView_nwe0014"  d="M -3.063333333333 1.1 L -3.02 1.1 " stroke="#191919" stroke-width="0.35 px" style="stroke-width:0.35;stroke-miterlimit:4;stroke-dasharray:none;fill:none;fill-opacity:1;fill-rule: evenodd"/>
<path id="Shape2DView_nwe0015"  d="M -3.02 -1.1 L -3.063333333333 -1.1 " stroke="#191919" stroke-width="0.35 px" style="stroke-width:0.35;stroke-miterlimit:4;stroke-dasharray:none;fill:none;fill-opacity:1;fill-rule: evenodd"/>
<path id="Shape2DView_nwe0016"  d="M -3.14999999999967 -1.1 L -3.1494550581904175 -1.1 L -3.1478270857220947 -1.1 L -3.1451365552930617 -1.1 L -3.141417301884546 -1.1 L -3.1367160972661208 -1.1 L -3.131092061813565 -1.1 L -3.1246159210358364 -1.1 L -3.117369116160759 -1.1 L -3.109442779964331 -1.1 L -3.10093659072319 -1.1 L -3.091957518702449 -1.1 L -3.082618480942548 -1.1 L -3.0730369212619535 -1.1 L -3.063333333333 -1.1 " stroke="#191919" stroke-width="0.35 px" style="stroke-width:0.35;stroke-miterlimit:4;stroke-dasharray:none;fill:none;fill-opacity:1;fill-rule: evenodd"/>
<path id="Shape2DView_nwe0017"  d="M -2.962026905685 -1.692026905685 L 2.962026905685 -1.6920269056850012 " stroke="#191919" stroke-width="0.35 px" style="stroke-width:0.35;stroke-miterlimit:4;stroke-dasharray:none;fill:none;fill-opacity:1;fill-rule: evenodd"/>
<path id="Shape2DView_nwe0018"  d="M -3.02 -1.75 L -2.962026905685 -1.692026905685 " stroke="#191919" stroke-width="0.35 px" style="stroke-width:0.35;stroke-miterlimit:4;stroke-dasharray:none;fill:none;fill-opacity:1;fill-rule: evenodd"/>
<path id="Shape2DView_nwe0019"  d="M -3.02 1.75 L -2.962026905685 1.692026905685 " stroke="#191919" stroke-width="0.35 px" style="stroke-width:0.35;stroke-miterlimit:4;stroke-dasharray:none;fill:none;fill-opacity:1;fill-rule: evenodd"/>
<path id="Shape2DView_nwe0020"  d="M 2.962026905685 1.692026905685 L -2.962026905685 1.6920269056850012 " stroke="#191919" stroke-width="0.35 px" style="stroke-width:0.35;stroke-miterlimit:4;stroke-dasharray:none;fill:none;fill-opacity:1;fill-rule: evenodd"/>
<path id="Shape2DView_nwe0021"  d="M -2.962026905685 1.692026905685 L -2.962026905685001 -1.692026905685 " stroke="#191919" stroke-width="0.35 px" style="stroke-width:0.35;stroke-miterlimit:4;stroke-dasharray:none;fill:none;fill-opacity:1;fill-rule: evenodd"/>
<path id="Shape2DView_nwe0022"  d="M -2.304053811371 -1.634053811371 L -2.304053811370999 1.634053811371 " stroke="#191919" stroke-width="0.35 px" style="stroke-width:0.35;stroke-miterlimit:4;stroke-dasharray:none;fill:none;fill-opacity:1;fill-rule: evenodd"/>
<path id="Shape2DView_nwe0023"  d="M -2.304053811371 1.634053811371 L -2.904053811371 1.6340538113710001 " stroke="#191919" stroke-width="0.35 px" style="stroke-width:0.35;stroke-miterlimit:4;stroke-dasharray:none;fill:none;fill-opacity:1;fill-rule: evenodd"/>
<path id="Shape2DView_nwe0024"  d="M -2.904053811371 1.634053811371 L -2.904053811371001 -1.634053811371 " stroke="#191919" stroke-width="0.35 px" style="stroke-width:0.35;stroke-miterlimit:4;stroke-dasharray:none;fill:none;fill-opacity:1;fill-rule: evenodd"/>
<path id="Shape2DView_nwe0025"  d="M -2.904053811371 -1.634053811371 L -2.304053811371 -1.6340538113710001 " stroke="#191919" stroke-width="0.35 px" style="stroke-width:0.35;stroke-miterlimit:4;stroke-dasharray:none;fill:none;fill-opacity:1;fill-rule: evenodd"/>
<path id="Shape2DView_nwe0026"  d="M -3.15 -1.1 L -3.1499999999999995 1.1 " stroke="#191919" stroke-width="0.35 px" style="stroke-width:0.35;stroke-miterlimit:4;stroke-dasharray:none;fill:none;fill-opacity:1;fill-rule: evenodd"/>
<path id="Shape2DView_nwe0028"  d="M 3.063333333333 1.1 L 3.063333333332999 -1.1 " stroke="#191919" stroke-width="0.35 px" style="stroke-width:0.35;stroke-miterlimit:4;stroke-dasharray:none;fill:none;fill-opacity:1;fill-rule: evenodd"/>
<path id="Shape2DView_nwe0029"  d="M -3.063333333333 -1.1 L -3.0633333333329995 1.1 " stroke="#191919" stroke-width="0.35 px" style="stroke-width:0.35;stroke-miterlimit:4;stroke-dasharray:none;fill:none;fill-opacity:1;fill-rule: evenodd"/>
<title>b'Shape2DView'</title>
</g>
<g id="Rectangle" transform="translate(3.213000,1.813000) scale(1,-1)">
<rect fill="#ff0000" id="origin" width="1" height="1" x="0" y="0" />
<title>b'Rectangle'</title>
</g>
</svg>