<?xml version="1.0"?>
<!DOCTYPE svg PUBLIC "-//W3C//DTD SVG 1.1//EN" "http://www.w3.org/Graphics/SVG/1.1/DTD/svg11.dtd">
<svg width="3.5700000000000003mm" height="2.8699999999999997mm" viewBox="0 0 3.5700000000000003 2.8699999999999997" xmlns="http://www.w3.org/2000/svg" version="1.1">
<g id="Shape2DView" transform="translate(1.785000,1.435000) scale(1,-1)">
<path id="Shape2DView_nwe0000"  d="M 1.62 0.75 L 1.663333333333 0.75 " stroke="#191919" stroke-width="0.35 px" style="stroke-width:0.35;stroke-miterlimit:4;stroke-dasharray:none;fill:none;fill-opacity:1;fill-rule: evenodd"/>
<path id="Shape2DView_nwe0001"  d="M 1.74999999999967 0.75 L 1.7494550581904178 0.75 L 1.7478270857220948 0.75 L 1.7451365552930618 0.75 L 1.741417301884546 0.75 L 1.7367160972661209 0.75 L 1.7310920618135652 0.75 L 1.7246159210358365 0.75 L 1.717369116160759 0.75 L 1.709442779964331 0.75 L 1.70093659072319 0.75 L 1.691957518702449 0.75 L 1.682618480942548 0.75 L 1.6730369212619538 0.75 L 1.663333333333 0.75 " stroke="#191919" stroke-width="0.35 px" style="stroke-width:0.35;stroke-miterlimit:4;stroke-dasharray:none;fill:none;fill-opacity:1;fill-rule: evenodd"/>
<path id="Shape2DView_nwe0002"  d="M 1.75 0.75 L 1.7500000000000002 -0.75 " stroke="#191919" stroke-width="0.35 px" style="stroke-width:0.35;stroke-miterlimit:4;stroke-dasharray:none;fill:none;fill-opacity:1;fill-rule: evenodd"/>
<path id="Shape2DView_nwe0003"  d="M 1.74999999999967 -0.75 L 1.7494550581904178 -0.75 L 1.7478270857220948 -0.75 L 1.7451365552930618 -0.75 L 1.741417301884546 -0.75 L 1.7367160972661209 -0.75 L 1.7310920618135652 -0.75 L 1.7246159210358365 -0.75 L 1.717369116160759 -0.75 L 1.709442779964331 -0.75 L 1.70093659072319 -0.75 L 1.691957518702449 -0.75 L 1.682618480942548 -0.75 L 1.6730369212619538 -0.75 L 1.663333333333 -0.75 " stroke="#191919" stroke-width="0.35 px" style="stroke-width:0.35;stroke-miterlimit:4;stroke-dasharray:none;fill:none;fill-opacity:1;fill-rule: evenodd"/>
<path id="Shape2DView_nwe0004"  d="M 1.663333333333 -0.75 L 1.62 -0.75 " stroke="#191919" stroke-width="0.35 px" style="stroke-width:0.35;stroke-miterlimit:4;stroke-dasharray:none;fill:none;fill-opacity:1;fill-rule: evenodd"/>
<path id="Shape2DView_nwe0006"  d="M 1.62 -1.4 L 1.6199999999999994 1.4 " stroke="#191919" stroke-width="0.35 px" style="stroke-width:0.35;stroke-miterlimit:4;stroke-dasharray:none;fill:none;fill-opacity:1;fill-rule: evenodd"/>
<path id="Shape2DView_nwe0007"  d="M -1.62 -1.4 L 1.62 -1.3999999999999992 " stroke="#191919" stroke-width="0.35 px" style="stroke-width:0.35;stroke-miterlimit:4;stroke-dasharray:none;fill:none;fill-opacity:1;fill-rule: evenodd"/>
<path id="Shape2DView_nwe0008"  d="M 1.62 1.4 L 1.562026905685 1.342026905685 " stroke="#191919" stroke-width="0.35 px" style="stroke-width:0.35;stroke-miterlimit:4;stroke-dasharray:none;fill:none;fill-opacity:1;fill-rule: evenodd"/>
<path id="Shape2DView_nwe0009"  d="M 1.562026905685 -1.342026905685 L 1.5620269056849994 1.342026905685 " stroke="#191919" stroke-width="0.35 px" style="stroke-width:0.35;stroke-miterlimit:4;stroke-dasharray:none;fill:none;fill-opacity:1;fill-rule: evenodd"/>
<path id="Shape2DView_nwe0010"  d="M 1.62 -1.4 L 1.562026905685 -1.342026905685 " stroke="#191919" stroke-width="0.35 px" style="stroke-width:0.35;stroke-miterlimit:4;stroke-dasharray:none;fill:none;fill-opacity:1;fill-rule: evenodd"/>
<path id="Shape2DView_nwe0011"  d="M 1.62 1.4 L -1.62 1.3999999999999992 " stroke="#191919" stroke-width="0.35 px" style="stroke-width:0.35;stroke-miterlimit:4;stroke-dasharray:none;fill:none;fill-opacity:1;fill-rule: evenodd"/>
<path id="Shape2DView_nwe0012"  d="M -1.62 1.4 L -1.6199999999999994 -1.4 " stroke="#191919" stroke-width="0.35 px" style="stroke-width:0.35;stroke-miterlimit:4;stroke-dasharray:none;fill:none;fill-opacity:1;fill-rule: evenodd"/>
<path id="Shape2DView_nwe0013"  d="M -1.74999999999967 0.75 L -1.7494550581904178 0.75 L -1.7478270857220948 0.75 L -1.7451365552930618 0.75 L -1.741417301884546 0.75 L -1.7367160972661209 0.75 L -1.7310920618135652 0.75 L -1.7246159210358365 0.75 L -1.717369116160759 0.75 L -1.709442779964331 0.75 L -1.70093659072319 0.75 L -1.691957518702449 0.75 L -1.682618480942548 0.75 L -1.6730369212619538 0.75 L -1.663333333333 0.75 " stroke="#191919" stroke-width="0.35 px" style="stroke-width:0.35;stroke-miterlimit:4;stroke-dasharray:none;fill:none;fill-opacity:1;fill-rule: evenodd"/>
<path id="Shape2DView_nwe0014"  d="M -1.663333333333 0.75 L -1.62 0.75 " stroke="#191919" stroke-width="0.35 px" style="stroke-width:0.35;stroke-miterlimit:4;stroke-dasharray:none;fill:none;fill-opacity:1;fill-rule: evenodd"/>
<path id="Shape2DView_nwe0015"  d="M -1.62 -0.75 L -1.663333333333 -0.75 " stroke="#191919" stroke-width="0.35 px" style="stroke-width:0.35;stroke-miterlimit:4;stroke-dasharray:none;fill:none;fill-opacity:1;fill-rule: evenodd"/>
<path id="Shape2DView_nwe0016"  d="M -1.74999999999967 -0.75 L -1.7494550581904178 -0.75 L -1.7478270857220948 -0.75 L -1.7451365552930618 -0.75 L -1.741417301884546 -0.75 L -1.7367160972661209 -0.75 L -1.7310920618135652 -0.75 L -1.7246159210358365 -0.75 L -1.717369116160759 -0.75 L -1.709442779964331 -0.75 L -1.70093659072319 -0.75 L -1.691957518702449 -0.75 L -1.682618480942548 -0.75 L -1.6730369212619538 -0.75 L -1.663333333333 -0.75 " stroke="#191919" stroke-width="0.35 px" style="stroke-width:0.35;stroke-miterlimit:4;stroke-dasharray:none;fill:none;fill-opacity:1;fill-rule: evenodd"/>
<path id="Shape2DView_nwe0017"  d="M -1.062026905685 -1.342026905685 L 1.562026905685 -1.3420269056849994 " stroke="#191919" stroke-width="0.35 px" style="stroke-width:0.35;stroke-miterlimit:4;stroke-dasharray:none;fill:none;fill-opacity:1;fill-rule: evenodd"/>
<path id="Shape2DView_nwe0018"  d="M -1.597075686682 -1.377075686682 L -1.0620269056849998 -1.342026905685 " stroke="#191919" stroke-width="0.35 px" style="stroke-width:0.35;stroke-miterlimit:4;stroke-dasharray:none;fill:none;fill-opacity:1;fill-rule: evenodd"/>
<path id="Shape2DView_nwe0019"  d="M -1.62 -1.4 L -1.5970756866820146 -1.3770756866820144 " stroke="#191919" stroke-width="0.35 px" style="stroke-width:0.35;stroke-miterlimit:4;stroke-dasharray:none;fill:none;fill-opacity:1;fill-rule: evenodd"/>
<path id="Shape2DView_nwe0020"  d="M -1.62 1.4 L -1.5970756866820146 1.3770756866820144 " stroke="#191919" stroke-width="0.35 px" style="stroke-width:0.35;stroke-miterlimit:4;stroke-dasharray:none;fill:none;fill-opacity:1;fill-rule: evenodd"/>
<path id="Shape2DView_nwe0021"  d="M -1.597075686682 1.377075686682 L -1.0620269056849998 1.342026905685 " stroke="#191919" stroke-width="0.35 px" style="stroke-width:0.35;stroke-miterlimit:4;stroke-dasharray:none;fill:none;fill-opacity:1;fill-rule: evenodd"/>
<path id="Shape2DView_nwe0022"  d="M 1.562026905685 1.342026905685 L -1.062026905685 1.3420269056849994 " stroke="#191919" stroke-width="0.35 px" style="stroke-width:0.35;stroke-miterlimit:4;stroke-dasharray:none;fill:none;fill-opacity:1;fill-rule: evenodd"/>
<path id="Shape2DView_nwe0023"  d="M -1.062026905685 1.342026905685 Q -1.062026905685 2.643718577388654e-14 -1.062026905685 -1.3420269056850007 " stroke="#191919" stroke-width="0.35 px" style="stroke-width:0.35;stroke-miterlimit:4;stroke-dasharray:none;fill:none;fill-opacity:1;fill-rule: evenodd"/>
<path id="Shape2DView_nwe0024"  d="M -0.404053811371 -1.284053811371 L -0.40405381137100055 1.284053811371 " stroke="#191919" stroke-width="0.35 px" style="stroke-width:0.35;stroke-miterlimit:4;stroke-dasharray:none;fill:none;fill-opacity:1;fill-rule: evenodd"/>
<path id="Shape2DView_nwe0025"  d="M -0.404053811371 1.284053811371 L -1.004053811371 1.2840538113709998 " stroke="#191919" stroke-width="0.35 px" style="stroke-width:0.35;stroke-miterlimit:4;stroke-dasharray:none;fill:none;fill-opacity:1;fill-rule: evenodd"/>
<path id="Shape2DView_nwe0026"  d="M -1.004053811371 1.284053811371 L -1.0040538113709994 -1.284053811371 " stroke="#191919" stroke-width="0.35 px" style="stroke-width:0.35;stroke-miterlimit:4;stroke-dasharray:none;fill:none;fill-opacity:1;fill-rule: evenodd"/>
<path id="Shape2DView_nwe0027"  d="M -1.004053811371 -1.284053811371 L -0.40405381137099994 -1.2840538113709998 " stroke="#191919" stroke-width="0.35 px" style="stroke-width:0.35;stroke-miterlimit:4;stroke-dasharray:none;fill:none;fill-opacity:1;fill-rule: evenodd"/>
<path id="Shape2DView_nwe0028"  d="M -1.597075686682 1.3770756866819398 Q -1.597075686682 -3.546220398847e-16 -1.597075686682 -1.3770756866819966 " stroke="#191919" stroke-width="0.35 px" style="stroke-width:0.35;stroke-miterlimit:4;stroke-dasharray:none;fill:none;fill-opacity:1;fill-rule: evenodd"/>
<path id="Shape2DView_nwe0029"  d="M -1.75 -0.75 L -1.7500000000000002 0.75 " stroke="#191919" stroke-width="0.35 px" style="stroke-width:0.35;stroke-miterlimit:4;stroke-dasharray:none;fill:none;fill-opacity:1;fill-rule: evenodd"/>
<path id="Shape2DView_nwe0031"  d="M 1.663333333333 0.75 L 1.6633333333330003 -0.75 " stroke="#191919" stroke-width="0.35 px" style="stroke-width:0.35;stroke-miterlimit:4;stroke-dasharray:none;fill:none;fill-opacity:1;fill-rule: evenodd"/>
<path id="Shape2DView_nwe0032"  d="M -1.663333333333 -0.75 L -1.6633333333330003 0.75 " stroke="#191919" stroke-width="0.35 px" style="stroke-width:0.35;stroke-miterlimit:4;stroke-dasharray:none;fill:none;fill-opacity:1;fill-rule: evenodd"/>
<title>b'Shape2DView'</title>
</g>
<g id="Rectangle" transform="translate(1.785000,1.435000) scale(1,-1)">
<rect fill="#ff0000" id="origin" width="1" height="1" x="0" y="0" />
<title>b'Rectangle'</title>
</g>
</svg>