<?xml version="1.0"?>
<!DOCTYPE svg PUBLIC "-//W3C//DTD SVG 1.1//EN" "http://www.w3.org/Graphics/SVG/1.1/DTD/svg11.dtd">
<svg width="7.752mm" height="4.752000000000003mm" viewBox="0 0 7.752 4.752000000000003" xmlns="http://www.w3.org/2000/svg" version="1.1">
<g id="Shape2DView" transform="translate(3.876000,2.376000) scale(1,-1)">
<path id="Shape2DView_nwe0000"  d="M 3.67 1.2 L 3.713333333333 1.2 " stroke="#191919" stroke-width="0.35 px" style="stroke-width:0.35;stroke-miterlimit:4;stroke-dasharray:none;fill:none;fill-opacity:1;fill-rule: evenodd"/>
<path id="Shape2DView_nwe0001"  d="M 3.79999999999967 1.2 L 3.7994550581904174 1.2 L 3.7978270857220946 1.2 L 3.7951365552930616 1.2 L 3.791417301884546 1.2 L 3.7867160972661207 1.2 L 3.781092061813565 1.2 L 3.7746159210358363 1.2 L 3.7673691161607588 1.2 L 3.759442779964331 1.2 L 3.7509365907231897 1.2 L 3.7419575187024487 1.2 L 3.732618480942548 1.2 L 3.7230369212619534 1.2 L 3.713333333333 1.2 " stroke="#191919" stroke-width="0.35 px" style="stroke-width:0.35;stroke-miterlimit:4;stroke-dasharray:none;fill:none;fill-opacity:1;fill-rule: evenodd"/>
<path id="Shape2DView_nwe0002"  d="M 3.8 1.2 L 3.799999999999999 -1.2 " stroke="#191919" stroke-width="0.35 px" style="stroke-width:0.35;stroke-miterlimit:4;stroke-dasharray:none;fill:none;fill-opacity:1;fill-rule: evenodd"/>
<path id="Shape2DView_nwe0003"  d="M 3.79999999999967 -1.2 L 3.7994550581904174 -1.2 L 3.7978270857220946 -1.2 L 3.7951365552930616 -1.2 L 3.791417301884546 -1.2 L 3.7867160972661207 -1.2 L 3.781092061813565 -1.2 L 3.7746159210358363 -1.2 L 3.7673691161607588 -1.2 L 3.759442779964331 -1.2 L 3.7509365907231897 -1.2 L 3.7419575187024487 -1.2 L 3.732618480942548 -1.2 L 3.7230369212619534 -1.2 L 3.713333333333 -1.2 " stroke="#191919" stroke-width="0.35 px" style="stroke-width:0.35;stroke-miterlimit:4;stroke-dasharray:none;fill:none;fill-opacity:1;fill-rule: evenodd"/>
<path id="Shape2DView_nwe0004"  d="M 3.713333333333 -1.2 L 3.67 -1.2 " stroke="#191919" stroke-width="0.35 px" style="stroke-width:0.35;stroke-miterlimit:4;stroke-dasharray:none;fill:none;fill-opacity:1;fill-rule: evenodd"/>
<path id="Shape2DView_nwe0006"  d="M 3.67 -2.3 L 3.670000000000001 2.3 " stroke="#191919" stroke-width="0.35 px" style="stroke-width:0.35;stroke-miterlimit:4;stroke-dasharray:none;fill:none;fill-opacity:1;fill-rule: evenodd"/>
<path id="Shape2DView_nwe0007"  d="M -3.67 -2.3 L 3.67 -2.3000000000000016 " stroke="#191919" stroke-width="0.35 px" style="stroke-width:0.35;stroke-miterlimit:4;stroke-dasharray:none;fill:none;fill-opacity:1;fill-rule: evenodd"/>
<path id="Shape2DView_nwe0008"  d="M 3.67 2.3 L 3.503810462964 2.133810462964 " stroke="#191919" stroke-width="0.35 px" style="stroke-width:0.35;stroke-miterlimit:4;stroke-dasharray:none;fill:none;fill-opacity:1;fill-rule: evenodd"/>
<path id="Shape2DView_nwe0009"  d="M 3.503810462964 -2.133810462964 L 3.503810462964001 2.133810462964 " stroke="#191919" stroke-width="0.35 px" style="stroke-width:0.35;stroke-miterlimit:4;stroke-dasharray:none;fill:none;fill-opacity:1;fill-rule: evenodd"/>
<path id="Shape2DView_nwe0010"  d="M 3.67 -2.3 L 3.503810462964 -2.133810462964 " stroke="#191919" stroke-width="0.35 px" style="stroke-width:0.35;stroke-miterlimit:4;stroke-dasharray:none;fill:none;fill-opacity:1;fill-rule: evenodd"/>
<path id="Shape2DView_nwe0011"  d="M 3.67 2.3 L -3.67 2.3000000000000016 " stroke="#191919" stroke-width="0.35 px" style="stroke-width:0.35;stroke-miterlimit:4;stroke-dasharray:none;fill:none;fill-opacity:1;fill-rule: evenodd"/>
<path id="Shape2DView_nwe0012"  d="M -3.67 2.3 L -3.670000000000001 -2.3 " stroke="#191919" stroke-width="0.35 px" style="stroke-width:0.35;stroke-miterlimit:4;stroke-dasharray:none;fill:none;fill-opacity:1;fill-rule: evenodd"/>
<path id="Shape2DView_nwe0013"  d="M -3.79999999999967 1.2 L -3.7994550581904174 1.2 L -3.7978270857220946 1.2 L -3.7951365552930616 1.2 L -3.791417301884546 1.2 L -3.7867160972661207 1.2 L -3.781092061813565 1.2 L -3.7746159210358363 1.2 L -3.7673691161607588 1.2 L -3.759442779964331 1.2 L -3.7509365907231897 1.2 L -3.7419575187024487 1.2 L -3.732618480942548 1.2 L -3.7230369212619534 1.2 L -3.713333333333 1.2 " stroke="#191919" stroke-width="0.35 px" style="stroke-width:0.35;stroke-miterlimit:4;stroke-dasharray:none;fill:none;fill-opacity:1;fill-rule: evenodd"/>
<path id="Shape2DView_nwe0014"  d="M -3.713333333333 1.2 L -3.67 1.2 " stroke="#191919" stroke-width="0.35 px" style="stroke-width:0.35;stroke-miterlimit:4;stroke-dasharray:none;fill:none;fill-opacity:1;fill-rule: evenodd"/>
<path id="Shape2DView_nwe0015"  d="M -3.67 -1.2 L -3.713333333333 -1.2 " stroke="#191919" stroke-width="0.35 px" style="stroke-width:0.35;stroke-miterlimit:4;stroke-dasharray:none;fill:none;fill-opacity:1;fill-rule: evenodd"/>
<path id="Shape2DView_nwe0016"  d="M -3.79999999999967 -1.2 L -3.7994550581904174 -1.2 L -3.7978270857220946 -1.2 L -3.7951365552930616 -1.2 L -3.791417301884546 -1.2 L -3.7867160972661207 -1.2 L -3.781092061813565 -1.2 L -3.7746159210358363 -1.2 L -3.7673691161607588 -1.2 L -3.759442779964331 -1.2 L -3.7509365907231897 -1.2 L -3.7419575187024487 -1.2 L -3.732618480942548 -1.2 L -3.7230369212619534 -1.2 L -3.713333333333 -1.2 " stroke="#191919" stroke-width="0.35 px" style="stroke-width:0.35;stroke-miterlimit:4;stroke-dasharray:none;fill:none;fill-opacity:1;fill-rule: evenodd"/>
<path id="Shape2DView_nwe0017"  d="M -3.003810462964 -2.133810462964 L 3.503810462964 -2.133810462964002 " stroke="#191919" stroke-width="0.35 px" style="stroke-width:0.35;stroke-miterlimit:4;stroke-dasharray:none;fill:none;fill-opacity:1;fill-rule: evenodd"/>
<path id="Shape2DView_nwe0018"  d="M -3.538859243961 -2.168859243961 L -3.003810462964 -2.133810462964 " stroke="#191919" stroke-width="0.35 px" style="stroke-width:0.35;stroke-miterlimit:4;stroke-dasharray:none;fill:none;fill-opacity:1;fill-rule: evenodd"/>
<path id="Shape2DView_nwe0019"  d="M -3.67 -2.3 L -3.538859243960945 -2.168859243960945 " stroke="#191919" stroke-width="0.35 px" style="stroke-width:0.35;stroke-miterlimit:4;stroke-dasharray:none;fill:none;fill-opacity:1;fill-rule: evenodd"/>
<path id="Shape2DView_nwe0020"  d="M -3.67 2.3 L -3.538859243960945 2.168859243960945 " stroke="#191919" stroke-width="0.35 px" style="stroke-width:0.35;stroke-miterlimit:4;stroke-dasharray:none;fill:none;fill-opacity:1;fill-rule: evenodd"/>
<path id="Shape2DView_nwe0021"  d="M -3.538859243961 2.168859243961 L -3.003810462964 2.133810462964 " stroke="#191919" stroke-width="0.35 px" style="stroke-width:0.35;stroke-miterlimit:4;stroke-dasharray:none;fill:none;fill-opacity:1;fill-rule: evenodd"/>
<path id="Shape2DView_nwe0022"  d="M 3.503810462964 2.133810462964 L -3.003810462964 2.1338104629640013 " stroke="#191919" stroke-width="0.35 px" style="stroke-width:0.35;stroke-miterlimit:4;stroke-dasharray:none;fill:none;fill-opacity:1;fill-rule: evenodd"/>
<path id="Shape2DView_nwe0023"  d="M -3.003810462964 2.133810462964 Q -3.003810462964 2.863681514142513e-14 -3.003810462964 -2.133810462964 " stroke="#191919" stroke-width="0.35 px" style="stroke-width:0.35;stroke-miterlimit:4;stroke-dasharray:none;fill:none;fill-opacity:1;fill-rule: evenodd"/>
<path id="Shape2DView_nwe0024"  d="M -2.837620925929 1.967620925929 L -2.837620925929001 -1.967620925929 " stroke="#191919" stroke-width="0.35 px" style="stroke-width:0.35;stroke-miterlimit:4;stroke-dasharray:none;fill:none;fill-opacity:1;fill-rule: evenodd"/>
<path id="Shape2DView_nwe0025"  d="M -2.837620925929 -1.967620925929 L -1.637620925929 -1.9676209259290003 " stroke="#191919" stroke-width="0.35 px" style="stroke-width:0.35;stroke-miterlimit:4;stroke-dasharray:none;fill:none;fill-opacity:1;fill-rule: evenodd"/>
<path id="Shape2DView_nwe0026"  d="M -1.637620925929 -1.967620925929 L -1.637620925928999 1.967620925929 " stroke="#191919" stroke-width="0.35 px" style="stroke-width:0.35;stroke-miterlimit:4;stroke-dasharray:none;fill:none;fill-opacity:1;fill-rule: evenodd"/>
<path id="Shape2DView_nwe0027"  d="M -1.637620925929 1.967620925929 L -2.837620925929 1.9676209259290003 " stroke="#191919" stroke-width="0.35 px" style="stroke-width:0.35;stroke-miterlimit:4;stroke-dasharray:none;fill:none;fill-opacity:1;fill-rule: evenodd"/>
<path id="Shape2DView_nwe0028"  d="M -3.538859243961 2.16885924396144 Q -3.538859243961 7.857846027107e-16 -3.5388592439609994 -2.168859243961496 " stroke="#191919" stroke-width="0.35 px" style="stroke-width:0.35;stroke-miterlimit:4;stroke-dasharray:none;fill:none;fill-opacity:1;fill-rule: evenodd"/>
<path id="Shape2DView_nwe0029"  d="M -3.8 -1.2 L -3.8 -0.5 " stroke="#191919" stroke-width="0.35 px" style="stroke-width:0.35;stroke-miterlimit:4;stroke-dasharray:none;fill:none;fill-opacity:1;fill-rule: evenodd"/>
<path id="Shape2DView_nwe0030"  d="M -3.7999999999999994 0.5 L -3.7999999999999994 1.2 " stroke="#191919" stroke-width="0.35 px" style="stroke-width:0.35;stroke-miterlimit:4;stroke-dasharray:none;fill:none;fill-opacity:1;fill-rule: evenodd"/>
<path id="Shape2DView_nwe0031"  d="M -3.713333333333 0.5 L -3.67 0.49999999999999994 " stroke="#191919" stroke-width="0.35 px" style="stroke-width:0.35;stroke-miterlimit:4;stroke-dasharray:none;fill:none;fill-opacity:1;fill-rule: evenodd"/>
<path id="Shape2DView_nwe0033"  d="M -3.79999999999967 0.5 L -3.7994550581904174 0.5 L -3.7978270857220946 0.5 L -3.7951365552930616 0.5 L -3.791417301884546 0.5 L -3.7867160972661207 0.5 L -3.781092061813565 0.5 L -3.7746159210358363 0.5 L -3.7673691161607588 0.5 L -3.759442779964331 0.5 L -3.7509365907231897 0.5 L -3.7419575187024487 0.5 L -3.732618480942548 0.5 L -3.7230369212619534 0.5 L -3.713333333333 0.5 " stroke="#191919" stroke-width="0.35 px" style="stroke-width:0.35;stroke-miterlimit:4;stroke-dasharray:none;fill:none;fill-opacity:1;fill-rule: evenodd"/>
<path id="Shape2DView_nwe0035"  d="M -3.8 -0.5 L -3.8 0.5 " stroke="#191919" stroke-width="0.35 px" style="stroke-width:0.35;stroke-miterlimit:4;stroke-dasharray:none;fill:none;fill-opacity:1;fill-rule: evenodd"/>
<path id="Shape2DView_nwe0036"  d="M -3.79999999999967 -0.5 L -3.7994550581904174 -0.5 L -3.7978270857220946 -0.5 L -3.7951365552930616 -0.5 L -3.791417301884546 -0.5 L -3.7867160972661207 -0.5 L -3.781092061813565 -0.5 L -3.7746159210358363 -0.5 L -3.7673691161607588 -0.5 L -3.759442779964331 -0.5 L -3.7509365907231897 -0.5 L -3.7419575187024487 -0.5 L -3.732618480942548 -0.5 L -3.7230369212619534 -0.5 L -3.713333333333 -0.5 " stroke="#191919" stroke-width="0.35 px" style="stroke-width:0.35;stroke-miterlimit:4;stroke-dasharray:none;fill:none;fill-opacity:1;fill-rule: evenodd"/>
<path id="Shape2DView_nwe0037"  d="M -3.67 -0.5 L -3.713333333333 -0.5 " stroke="#191919" stroke-width="0.35 px" style="stroke-width:0.35;stroke-miterlimit:4;stroke-dasharray:none;fill:none;fill-opacity:1;fill-rule: evenodd"/>
<path id="Shape2DView_nwe0038"  d="M 3.713333333333 1.2 L 3.713333333332999 -1.2 " stroke="#191919" stroke-width="0.35 px" style="stroke-width:0.35;stroke-miterlimit:4;stroke-dasharray:none;fill:none;fill-opacity:1;fill-rule: evenodd"/>
<path id="Shape2DView_nwe0039"  d="M -3.7133333333329994 0.5 L -3.7133333333329994 1.2 " stroke="#191919" stroke-width="0.35 px" style="stroke-width:0.35;stroke-miterlimit:4;stroke-dasharray:none;fill:none;fill-opacity:1;fill-rule: evenodd"/>
<path id="Shape2DView_nwe0040"  d="M -3.713333333333 -1.2 L -3.713333333333 -0.5 " stroke="#191919" stroke-width="0.35 px" style="stroke-width:0.35;stroke-miterlimit:4;stroke-dasharray:none;fill:none;fill-opacity:1;fill-rule: evenodd"/>
<title>b'Shape2DView'</title>
</g>
<g id="Rectangle" transform="translate(3.876000,2.376000) scale(1,-1)">
<rect fill="#ff0000" id="origin" width="1" height="1" x="0" y="0" />
<title>b'Rectangle'</title>
</g>
</svg>