<?xml version="1.0"?>
<!DOCTYPE svg PUBLIC "-//W3C//DTD SVG 1.1//EN" "http://www.w3.org/Graphics/SVG/1.1/DTD/svg11.dtd">
<svg width="6.12mm" height="3.320000000000003mm" viewBox="0 0 6.12 3.320000000000003" xmlns="http://www.w3.org/2000/svg" version="1.1">
<g id="Shape2DView" transform="translate(3.060000,1.660000) scale(1,-1)">
<path id="Shape2DView_nwe0000"  d="M 2.87 1.1 L 2.913333333333 1.1 " stroke="#191919" stroke-width="0.35 px" style="stroke-width:0.35;stroke-miterlimit:4;stroke-dasharray:none;fill:none;fill-opacity:1;fill-rule: evenodd"/>
<path id="Shape2DView_nwe0001"  d="M 2.99999999999967 1.1 L 2.9994550581904176 1.1 L 2.9978270857220948 1.1 L 2.9951365552930618 1.1 L 2.991417301884546 1.1 L 2.986716097266121 1.1 L 2.9810920618135652 1.1 L 2.9746159210358365 1.1 L 2.967369116160759 1.1 L 2.959442779964331 1.1 L 2.95093659072319 1.1 L 2.941957518702449 1.1 L 2.932618480942548 1.1 L 2.9230369212619536 1.1 L 2.913333333333 1.1 " stroke="#191919" stroke-width="0.35 px" style="stroke-width:0.35;stroke-miterlimit:4;stroke-dasharray:none;fill:none;fill-opacity:1;fill-rule: evenodd"/>
<path id="Shape2DView_nwe0002"  d="M 3.0 1.1 L 2.999999999999999 -1.1 " stroke="#191919" stroke-width="0.35 px" style="stroke-width:0.35;stroke-miterlimit:4;stroke-dasharray:none;fill:none;fill-opacity:1;fill-rule: evenodd"/>
<path id="Shape2DView_nwe0003"  d="M 2.99999999999967 -1.1 L 2.9994550581904176 -1.1 L 2.9978270857220948 -1.1 L 2.9951365552930618 -1.1 L 2.991417301884546 -1.1 L 2.986716097266121 -1.1 L 2.9810920618135652 -1.1 L 2.9746159210358365 -1.1 L 2.967369116160759 -1.1 L 2.959442779964331 -1.1 L 2.95093659072319 -1.1 L 2.941957518702449 -1.1 L 2.932618480942548 -1.1 L 2.9230369212619536 -1.1 L 2.913333333333 -1.1 " stroke="#191919" stroke-width="0.35 px" style="stroke-width:0.35;stroke-miterlimit:4;stroke-dasharray:none;fill:none;fill-opacity:1;fill-rule: evenodd"/>
<path id="Shape2DView_nwe0004"  d="M 2.913333333333 -1.1 L 2.87 -1.1 " stroke="#191919" stroke-width="0.35 px" style="stroke-width:0.35;stroke-miterlimit:4;stroke-dasharray:none;fill:none;fill-opacity:1;fill-rule: evenodd"/>
<path id="Shape2DView_nwe0006"  d="M 2.87 -1.6 L 2.870000000000001 1.6 " stroke="#191919" stroke-width="0.35 px" style="stroke-width:0.35;stroke-miterlimit:4;stroke-dasharray:none;fill:none;fill-opacity:1;fill-rule: evenodd"/>
<path id="Shape2DView_nwe0007"  d="M -2.87 -1.6 L 2.87 -1.6000000000000014 " stroke="#191919" stroke-width="0.35 px" style="stroke-width:0.35;stroke-miterlimit:4;stroke-dasharray:none;fill:none;fill-opacity:1;fill-rule: evenodd"/>
<path id="Shape2DView_nwe0008"  d="M 2.87 1.6 L 2.761783557279 1.491783557279 " stroke="#191919" stroke-width="0.35 px" style="stroke-width:0.35;stroke-miterlimit:4;stroke-dasharray:none;fill:none;fill-opacity:1;fill-rule: evenodd"/>
<path id="Shape2DView_nwe0009"  d="M 2.761783557279 -1.491783557279 L 2.7617835572790006 1.491783557279 " stroke="#191919" stroke-width="0.35 px" style="stroke-width:0.35;stroke-miterlimit:4;stroke-dasharray:none;fill:none;fill-opacity:1;fill-rule: evenodd"/>
<path id="Shape2DView_nwe0010"  d="M 2.87 -1.6 L 2.761783557279 -1.491783557279 " stroke="#191919" stroke-width="0.35 px" style="stroke-width:0.35;stroke-miterlimit:4;stroke-dasharray:none;fill:none;fill-opacity:1;fill-rule: evenodd"/>
<path id="Shape2DView_nwe0011"  d="M 2.87 1.6 L -2.87 1.6000000000000014 " stroke="#191919" stroke-width="0.35 px" style="stroke-width:0.35;stroke-miterlimit:4;stroke-dasharray:none;fill:none;fill-opacity:1;fill-rule: evenodd"/>
<path id="Shape2DView_nwe0012"  d="M -2.87 1.6 L -2.870000000000001 -1.6 " stroke="#191919" stroke-width="0.35 px" style="stroke-width:0.35;stroke-miterlimit:4;stroke-dasharray:none;fill:none;fill-opacity:1;fill-rule: evenodd"/>
<path id="Shape2DView_nwe0013"  d="M -2.99999999999967 1.1 L -2.9994550581904176 1.1 L -2.9978270857220948 1.1 L -2.9951365552930618 1.1 L -2.991417301884546 1.1 L -2.986716097266121 1.1 L -2.9810920618135652 1.1 L -2.9746159210358365 1.1 L -2.967369116160759 1.1 L -2.959442779964331 1.1 L -2.95093659072319 1.1 L -2.941957518702449 1.1 L -2.932618480942548 1.1 L -2.9230369212619536 1.1 L -2.913333333333 1.1 " stroke="#191919" stroke-width="0.35 px" style="stroke-width:0.35;stroke-miterlimit:4;stroke-dasharray:none;fill:none;fill-opacity:1;fill-rule: evenodd"/>
<path id="Shape2DView_nwe0014"  d="M -2.913333333333 1.1 L -2.87 1.1 " stroke="#191919" stroke-width="0.35 px" style="stroke-width:0.35;stroke-miterlimit:4;stroke-dasharray:none;fill:none;fill-opacity:1;fill-rule: evenodd"/>
<path id="Shape2DView_nwe0015"  d="M -2.87 -1.1 L -2.913333333333 -1.1 " stroke="#191919" stroke-width="0.35 px" style="stroke-width:0.35;stroke-miterlimit:4;stroke-dasharray:none;fill:none;fill-opacity:1;fill-rule: evenodd"/>
<path id="Shape2DView_nwe0016"  d="M -2.99999999999967 -1.1 L -2.9994550581904176 -1.1 L -2.9978270857220948 -1.1 L -2.9951365552930618 -1.1 L -2.991417301884546 -1.1 L -2.986716097266121 -1.1 L -2.9810920618135652 -1.1 L -2.9746159210358365 -1.1 L -2.967369116160759 -1.1 L -2.959442779964331 -1.1 L -2.95093659072319 -1.1 L -2.941957518702449 -1.1 L -2.932618480942548 -1.1 L -2.9230369212619536 -1.1 L -2.913333333333 -1.1 " stroke="#191919" stroke-width="0.35 px" style="stroke-width:0.35;stroke-miterlimit:4;stroke-dasharray:none;fill:none;fill-opacity:1;fill-rule: evenodd"/>
<path id="Shape2DView_nwe0017"  d="M -2.261783557279 -1.491783557279 L 2.761783557279 -1.4917835572790012 " stroke="#191919" stroke-width="0.35 px" style="stroke-width:0.35;stroke-miterlimit:4;stroke-dasharray:none;fill:none;fill-opacity:1;fill-rule: evenodd"/>
<path id="Shape2DView_nwe0018"  d="M -2.796832338276 -1.526832338276 L -2.261783557279 -1.491783557279 " stroke="#191919" stroke-width="0.35 px" style="stroke-width:0.35;stroke-miterlimit:4;stroke-dasharray:none;fill:none;fill-opacity:1;fill-rule: evenodd"/>
<path id="Shape2DView_nwe0019"  d="M -2.87 -1.6 L -2.796832338275908 -1.5268323382759075 " stroke="#191919" stroke-width="0.35 px" style="stroke-width:0.35;stroke-miterlimit:4;stroke-dasharray:none;fill:none;fill-opacity:1;fill-rule: evenodd"/>
<path id="Shape2DView_nwe0020"  d="M -2.87 1.6 L -2.796832338275908 1.5268323382759075 " stroke="#191919" stroke-width="0.35 px" style="stroke-width:0.35;stroke-miterlimit:4;stroke-dasharray:none;fill:none;fill-opacity:1;fill-rule: evenodd"/>
<path id="Shape2DView_nwe0021"  d="M -2.796832338276 1.526832338276 L -2.261783557279 1.491783557279 " stroke="#191919" stroke-width="0.35 px" style="stroke-width:0.35;stroke-miterlimit:4;stroke-dasharray:none;fill:none;fill-opacity:1;fill-rule: evenodd"/>
<path id="Shape2DView_nwe0022"  d="M 2.761783557279 1.491783557279 L -2.261783557279 1.491783557279001 " stroke="#191919" stroke-width="0.35 px" style="stroke-width:0.35;stroke-miterlimit:4;stroke-dasharray:none;fill:none;fill-opacity:1;fill-rule: evenodd"/>
<path id="Shape2DView_nwe0023"  d="M -2.261783557279 1.4917835572790001 Q -2.2617835572789997 2.739822257957769e-14 -2.2617835572789997 -1.491783557279 " stroke="#191919" stroke-width="0.35 px" style="stroke-width:0.35;stroke-miterlimit:4;stroke-dasharray:none;fill:none;fill-opacity:1;fill-rule: evenodd"/>
<path id="Shape2DView_nwe0024"  d="M -2.153567114558 1.383567114558 L -2.1535671145580007 -1.383567114558 " stroke="#191919" stroke-width="0.35 px" style="stroke-width:0.35;stroke-miterlimit:4;stroke-dasharray:none;fill:none;fill-opacity:1;fill-rule: evenodd"/>
<path id="Shape2DView_nwe0025"  d="M -2.153567114558 -1.383567114558 L -1.553567114558 -1.3835671145580002 " stroke="#191919" stroke-width="0.35 px" style="stroke-width:0.35;stroke-miterlimit:4;stroke-dasharray:none;fill:none;fill-opacity:1;fill-rule: evenodd"/>
<path id="Shape2DView_nwe0026"  d="M -1.553567114558 -1.383567114558 L -1.5535671145579992 1.383567114558 " stroke="#191919" stroke-width="0.35 px" style="stroke-width:0.35;stroke-miterlimit:4;stroke-dasharray:none;fill:none;fill-opacity:1;fill-rule: evenodd"/>
<path id="Shape2DView_nwe0027"  d="M -1.553567114558 1.383567114558 L -2.153567114558 1.3835671145580002 " stroke="#191919" stroke-width="0.35 px" style="stroke-width:0.35;stroke-miterlimit:4;stroke-dasharray:none;fill:none;fill-opacity:1;fill-rule: evenodd"/>
<path id="Shape2DView_nwe0028"  d="M -2.796832338276 1.5268323382764117 Q -2.796832338276 6.210215315941e-16 -2.796832338276 -1.5268323382764681 " stroke="#191919" stroke-width="0.35 px" style="stroke-width:0.35;stroke-miterlimit:4;stroke-dasharray:none;fill:none;fill-opacity:1;fill-rule: evenodd"/>
<path id="Shape2DView_nwe0029"  d="M -3.0 -1.1 L -3.0 -0.5 " stroke="#191919" stroke-width="0.35 px" style="stroke-width:0.35;stroke-miterlimit:4;stroke-dasharray:none;fill:none;fill-opacity:1;fill-rule: evenodd"/>
<path id="Shape2DView_nwe0030"  d="M -2.9999999999999996 0.5 L -2.9999999999999996 1.1 " stroke="#191919" stroke-width="0.35 px" style="stroke-width:0.35;stroke-miterlimit:4;stroke-dasharray:none;fill:none;fill-opacity:1;fill-rule: evenodd"/>
<path id="Shape2DView_nwe0031"  d="M -2.913333333333 0.5 L -2.87 0.49999999999999994 " stroke="#191919" stroke-width="0.35 px" style="stroke-width:0.35;stroke-miterlimit:4;stroke-dasharray:none;fill:none;fill-opacity:1;fill-rule: evenodd"/>
<path id="Shape2DView_nwe0033"  d="M -2.99999999999967 0.5 L -2.9994550581904176 0.5 L -2.9978270857220948 0.5 L -2.9951365552930618 0.5 L -2.991417301884546 0.5 L -2.986716097266121 0.5 L -2.9810920618135652 0.5 L -2.9746159210358365 0.5 L -2.967369116160759 0.5 L -2.959442779964331 0.5 L -2.95093659072319 0.5 L -2.941957518702449 0.5 L -2.932618480942548 0.5 L -2.9230369212619536 0.5 L -2.913333333333 0.5 " stroke="#191919" stroke-width="0.35 px" style="stroke-width:0.35;stroke-miterlimit:4;stroke-dasharray:none;fill:none;fill-opacity:1;fill-rule: evenodd"/>
<path id="Shape2DView_nwe0035"  d="M -3.0 -0.5 L -3.0 0.5 " stroke="#191919" stroke-width="0.35 px" style="stroke-width:0.35;stroke-miterlimit:4;stroke-dasharray:none;fill:none;fill-opacity:1;fill-rule: evenodd"/>
<path id="Shape2DView_nwe0036"  d="M -2.99999999999967 -0.5 L -2.9994550581904176 -0.5 L -2.9978270857220948 -0.5 L -2.9951365552930618 -0.5 L -2.991417301884546 -0.5 L -2.986716097266121 -0.5 L -2.9810920618135652 -0.5 L -2.9746159210358365 -0.5 L -2.967369116160759 -0.5 L -2.959442779964331 -0.5 L -2.95093659072319 -0.5 L -2.941957518702449 -0.5 L -2.932618480942548 -0.5 L -2.9230369212619536 -0.5 L -2.913333333333 -0.5 " stroke="#191919" stroke-width="0.35 px" style="stroke-width:0.35;stroke-miterlimit:4;stroke-dasharray:none;fill:none;fill-opacity:1;fill-rule: evenodd"/>
<path id="Shape2DView_nwe0037"  d="M -2.87 -0.5 L -2.913333333333 -0.5 " stroke="#191919" stroke-width="0.35 px" style="stroke-width:0.35;stroke-miterlimit:4;stroke-dasharray:none;fill:none;fill-opacity:1;fill-rule: evenodd"/>
<path id="Shape2DView_nwe0038"  d="M 2.913333333333 1.1 L 2.913333333332999 -1.1 " stroke="#191919" stroke-width="0.35 px" style="stroke-width:0.35;stroke-miterlimit:4;stroke-dasharray:none;fill:none;fill-opacity:1;fill-rule: evenodd"/>
<path id="Shape2DView_nwe0039"  d="M -2.9133333333329996 0.5 L -2.9133333333329996 1.1 " stroke="#191919" stroke-width="0.35 px" style="stroke-width:0.35;stroke-miterlimit:4;stroke-dasharray:none;fill:none;fill-opacity:1;fill-rule: evenodd"/>
<path id="Shape2DView_nwe0040"  d="M -2.913333333333 -1.1 L -2.913333333333 -0.5 " stroke="#191919" stroke-width="0.35 px" style="stroke-width:0.35;stroke-miterlimit:4;stroke-dasharray:none;fill:none;fill-opacity:1;fill-rule: evenodd"/>
<title>b'Shape2DView'</title>
</g>
<g id="Rectangle" transform="translate(3.060000,1.660000) scale(1,-1)">
<rect fill="#ff0000" id="origin" width="1" height="1" x="0" y="0" />
<title>b'Rectangle'</title>
</g>
</svg>