<?xml version="1.0"?>
<!DOCTYPE svg PUBLIC "-//W3C//DTD SVG 1.1//EN" "http://www.w3.org/Graphics/SVG/1.1/DTD/svg11.dtd">
<svg width="15.809999999999999mm" height="4.71mm" viewBox="0 0 15.809999999999999 4.71" xmlns="http://www.w3.org/2000/svg" version="1.1">
<g id="Shape2DView" transform="translate(4.155000,1.421665) scale(1,-1)">
<path id="Shape2DView_nwe0000"  d="M 11.5 -0.8796764634150003 L 11.5 -0.9869935365850002 " stroke="#191919" stroke-width="0.35 px" style="stroke-width:0.35;stroke-miterlimit:4;stroke-dasharray:none;fill:none;fill-opacity:1;fill-rule: evenodd"/>
<path id="Shape2DView_nwe0001"  d="M 11.5 -0.879676463415 A 2.14634 2.14634 0 0 1 9.35366 1.26667" stroke="#191919" stroke-width="0.35 px" style="stroke-width:0.35;stroke-miterlimit:4;stroke-dasharray:none;fill:none;fill-opacity:1;fill-rule: evenodd"/>
<path id="Shape2DView_nwe0002"  d="M 9.353658536585 1.266665 L 9.213163117652666 1.266665 L 8.798721887818715 1.266665 L 8.13111666090288 1.266665 L 7.243823950659383 1.266665 L 6.181336318591524 1.266665 L 4.996931331133169 1.266665 L 3.7500000000000004 1.266665 L 2.503068668866832 1.266665 L 1.3186636814084767 1.266665 L 0.2561760493406182 1.266665 L -0.6311166609028804 1.266665 L -1.2987218878187132 1.266665 L -1.713163117652667 1.266665 L -1.8536585365849998 1.266665 " stroke="#191919" stroke-width="0.35 px" style="stroke-width:0.35;stroke-miterlimit:4;stroke-dasharray:none;fill:none;fill-opacity:1;fill-rule: evenodd"/>
<path id="Shape2DView_nwe0003"  d="M 11.5 -0.986993536585 A 2.14634 2.14634 0 0 0 9.35366 -3.13334" stroke="#191919" stroke-width="0.35 px" style="stroke-width:0.35;stroke-miterlimit:4;stroke-dasharray:none;fill:none;fill-opacity:1;fill-rule: evenodd"/>
<path id="Shape2DView_nwe0004"  d="M 9.353658536585 -3.133335 L 9.213163117652666 -3.133335 L 8.798721887818715 -3.133335 L 8.13111666090288 -3.133335 L 7.243823950659383 -3.133335 L 6.181336318591524 -3.133335 L 4.996931331133169 -3.133335 L 3.7500000000000004 -3.133335 L 2.503068668866832 -3.133335 L 1.3186636814084767 -3.133335 L 0.2561760493406182 -3.133335 L -0.6311166609028804 -3.133335 L -1.2987218878187132 -3.133335 L -1.713163117652667 -3.133335 L -1.8536585365849998 -3.133335 " stroke="#191919" stroke-width="0.35 px" style="stroke-width:0.35;stroke-miterlimit:4;stroke-dasharray:none;fill:none;fill-opacity:1;fill-rule: evenodd"/>
<path id="Shape2DView_nwe0005"  d="M 11.5 -0.879676463415 L 11.305691319409133 -0.879676463415 L 10.732508726243747 -0.879676463415 L 9.80919398912723 -0.879676463415 L 8.582045964405186 -0.879676463415 L 7.112598978161076 -0.879676463415 L 5.474537238161437 -0.879676463415 L 3.7500000000000004 -0.879676463415 L 2.025462761838564 -0.879676463415 L 0.387401021838925 -0.879676463415 L -1.082045964405184 -0.879676463415 L -2.3091939891272313 -0.879676463415 L -3.232508726243747 -0.879676463415 L -3.8056913194091333 -0.879676463415 L -4.0 -0.879676463415 " stroke="#191919" stroke-width="0.35 px" style="stroke-width:0.35;stroke-miterlimit:4;stroke-dasharray:none;fill:none;fill-opacity:1;fill-rule: evenodd"/>
<path id="Shape2DView_nwe0006"  d="M 11.5 -0.986993536585 L 11.305691319409133 -0.986993536585 L 10.732508726243747 -0.986993536585 L 9.80919398912723 -0.986993536585 L 8.582045964405186 -0.986993536585 L 7.112598978161076 -0.986993536585 L 5.474537238161437 -0.986993536585 L 3.7500000000000004 -0.986993536585 L 2.025462761838564 -0.986993536585 L 0.387401021838925 -0.986993536585 L -1.082045964405184 -0.986993536585 L -2.3091939891272313 -0.986993536585 L -3.232508726243747 -0.986993536585 L -3.8056913194091333 -0.986993536585 L -4.0 -0.986993536585 " stroke="#191919" stroke-width="0.35 px" style="stroke-width:0.35;stroke-miterlimit:4;stroke-dasharray:none;fill:none;fill-opacity:1;fill-rule: evenodd"/>
<path id="Shape2DView_nwe0007"  d="M -4.0 -0.9869935365850002 L -4.0 -0.8796764634150003 " stroke="#191919" stroke-width="0.35 px" style="stroke-width:0.35;stroke-miterlimit:4;stroke-dasharray:none;fill:none;fill-opacity:1;fill-rule: evenodd"/>
<path id="Shape2DView_nwe0008"  d="M -4.0 -0.879676463415 C -4.029587934790941 0.2670873921569721 -3.0007376715226433 1.2961928971437349 -1.8536585365849998 1.2666650000000002 " stroke="#191919" stroke-width="0.35 px" style="stroke-width:0.35;stroke-miterlimit:4;stroke-dasharray:none;fill:none;fill-opacity:1;fill-rule: evenodd"/>
<path id="Shape2DView_nwe0009"  d="M -4.0 -0.986993536585 C -4.029587934791004 -2.1337573921567383 -3.000737671522786 -3.1628628971437394 -1.8536585365849996 -3.133335 " stroke="#191919" stroke-width="0.35 px" style="stroke-width:0.35;stroke-miterlimit:4;stroke-dasharray:none;fill:none;fill-opacity:1;fill-rule: evenodd"/>
<title>b'Shape2DView'</title>
</g>
<g id="Rectangle" transform="translate(4.155000,1.421665) scale(1,-1)">
<rect fill="#ff0000" id="origin" width="1" height="1" x="0" y="0" />
<title>b'Rectangle'</title>
</g>
</svg>