<?xml version="1.0"?>
<!DOCTYPE svg PUBLIC "-//W3C//DTD SVG 1.1//EN" "http://www.w3.org/Graphics/SVG/1.1/DTD/svg11.dtd">
<svg width="21.93mm" height="6.03mm" viewBox="0 0 21.93 6.03" xmlns="http://www.w3.org/2000/svg" version="1.1">
<g id="Shape2DView" transform="translate(5.965000,1.815000) scale(1,-1)">
<path id="Shape2DView_nwe0000"  d="M 15.75 -1.1317073170729999 L 15.75 -1.268292682927 " stroke="#191919" stroke-width="0.35 px" style="stroke-width:0.35;stroke-miterlimit:4;stroke-dasharray:none;fill:none;fill-opacity:1;fill-rule: evenodd"/>
<path id="Shape2DView_nwe0001"  d="M 15.75 -1.131707317073 A 2.73171 2.73171 0 0 1 13.0183 1.6" stroke="#191919" stroke-width="0.35 px" style="stroke-width:0.35;stroke-miterlimit:4;stroke-dasharray:none;fill:none;fill-opacity:1;fill-rule: evenodd"/>
<path id="Shape2DView_nwe0002"  d="M 13.018292682927 1.6 L 12.817257344628812 1.6 L 12.224232081046988 1.6 L 11.268953655155372 1.6 L 9.999323716123488 1.6 L 8.479006810607324 1.6 L 6.784237976539998 1.6 L 5.000000000000001 1.6 L 3.2157620234600026 1.6 L 1.5209931893926774 1.6 L 0.000676283876512862 1.6 L -1.2689536551553715 1.6 L -2.2242320810469884 1.6 L -2.8172573446288123 1.6 L -3.018292682926999 1.6 " stroke="#191919" stroke-width="0.35 px" style="stroke-width:0.35;stroke-miterlimit:4;stroke-dasharray:none;fill:none;fill-opacity:1;fill-rule: evenodd"/>
<path id="Shape2DView_nwe0003"  d="M 15.75 -1.268292682927 A 2.73171 2.73171 0 0 0 13.0183 -4" stroke="#191919" stroke-width="0.35 px" style="stroke-width:0.35;stroke-miterlimit:4;stroke-dasharray:none;fill:none;fill-opacity:1;fill-rule: evenodd"/>
<path id="Shape2DView_nwe0004"  d="M 13.018292682927 -4.0 L 12.817257344628812 -4.0 L 12.224232081046988 -4.0 L 11.268953655155372 -4.0 L 9.999323716123488 -4.0 L 8.479006810607324 -4.0 L 6.784237976539998 -4.0 L 5.000000000000001 -4.0 L 3.2157620234600026 -4.0 L 1.5209931893926774 -4.0 L 0.000676283876512862 -4.0 L -1.2689536551553715 -4.0 L -2.2242320810469884 -4.0 L -2.8172573446288123 -4.0 L -3.018292682926999 -4.0 " stroke="#191919" stroke-width="0.35 px" style="stroke-width:0.35;stroke-miterlimit:4;stroke-dasharray:none;fill:none;fill-opacity:1;fill-rule: evenodd"/>
<path id="Shape2DView_nwe0005"  d="M 15.75 -1.131707317073 L 15.480475055954605 -1.131707317073 L 14.685415329951006 -1.131707317073 L 13.40468843653132 -1.131707317073 L 11.702515369981386 -1.131707317073 L 9.66425019551375 -1.131707317073 L 7.39210004003038 -1.131707317073 L 5.000000000000001 -1.131707317073 L 2.607899959969621 -1.131707317073 L 0.3357498044862508 -1.131707317073 L -1.702515369981385 -1.131707317073 L -3.4046884365313197 -1.131707317073 L -4.685415329951004 -1.131707317073 L -5.480475055954605 -1.131707317073 L -5.75 -1.131707317073 " stroke="#191919" stroke-width="0.35 px" style="stroke-width:0.35;stroke-miterlimit:4;stroke-dasharray:none;fill:none;fill-opacity:1;fill-rule: evenodd"/>
<path id="Shape2DView_nwe0006"  d="M 15.75 -1.268292682927 L 15.480475055954605 -1.268292682927 L 14.685415329951006 -1.268292682927 L 13.40468843653132 -1.268292682927 L 11.702515369981386 -1.268292682927 L 9.66425019551375 -1.268292682927 L 7.39210004003038 -1.268292682927 L 5.000000000000001 -1.268292682927 L 2.607899959969621 -1.268292682927 L 0.3357498044862508 -1.268292682927 L -1.702515369981385 -1.268292682927 L -3.4046884365313197 -1.268292682927 L -4.685415329951004 -1.268292682927 L -5.480475055954605 -1.268292682927 L -5.75 -1.268292682927 " stroke="#191919" stroke-width="0.35 px" style="stroke-width:0.35;stroke-miterlimit:4;stroke-dasharray:none;fill:none;fill-opacity:1;fill-rule: evenodd"/>
<path id="Shape2DView_nwe0007"  d="M -5.75 -1.268292682927 L -5.75 -1.1317073170729999 " stroke="#191919" stroke-width="0.35 px" style="stroke-width:0.35;stroke-miterlimit:4;stroke-dasharray:none;fill:none;fill-opacity:1;fill-rule: evenodd"/>
<path id="Shape2DView_nwe0008"  d="M -5.75 -1.131707317073 C -5.787649448981136 0.3278388895642237 -4.478187871852607 1.637584904276457 -3.018292682926999 1.5999999999999999 " stroke="#191919" stroke-width="0.35 px" style="stroke-width:0.35;stroke-miterlimit:4;stroke-dasharray:none;fill:none;fill-opacity:1;fill-rule: evenodd"/>
<path id="Shape2DView_nwe0009"  d="M -5.75 -1.268292682927 C -5.787649448981226 -2.727838889563919 -4.478187871852686 -4.037584904276546 -3.018292682926999 -4.0 " stroke="#191919" stroke-width="0.35 px" style="stroke-width:0.35;stroke-miterlimit:4;stroke-dasharray:none;fill:none;fill-opacity:1;fill-rule: evenodd"/>
<title>b'Shape2DView'</title>
</g>
<g id="Rectangle" transform="translate(5.965000,1.815000) scale(1,-1)">
<rect fill="#ff0000" id="origin" width="1" height="1" x="0" y="0" />
<title>b'Rectangle'</title>
</g>
</svg>