<?xml version="1.0"?>
<!DOCTYPE svg PUBLIC "-//W3C//DTD SVG 1.1//EN" "http://www.w3.org/Graphics/SVG/1.1/DTD/svg11.dtd">
<svg width="12.239999999999998mm" height="5.34mm" viewBox="0 0 12.239999999999998 5.34" xmlns="http://www.w3.org/2000/svg" version="1.1">
<g id="Shape2DView" transform="translate(2.370000,1.520000) scale(1,-1)">
<path id="Shape2DView_nwe0000"  d="M 9.75 -1.087804878049 L 9.75 -1.2121951219510003 " stroke="#191919" stroke-width="0.35 px" style="stroke-width:0.35;stroke-miterlimit:4;stroke-dasharray:none;fill:none;fill-opacity:1;fill-rule: evenodd"/>
<path id="Shape2DView_nwe0001"  d="M 9.75 -1.087804878049 A 2.4878 2.4878 0 0 1 7.2622 1.4" stroke="#191919" stroke-width="0.35 px" style="stroke-width:0.35;stroke-miterlimit:4;stroke-dasharray:none;fill:none;fill-opacity:1;fill-rule: evenodd"/>
<path id="Shape2DView_nwe0002"  d="M 7.262195121951001 1.4 L 7.174137057418874 1.4 L 6.914378462876591 1.4 L 6.495944718911933 1.4 L 5.93981784067444 1.4 L 5.273884352022549 1.4 L 4.531536938773348 1.4 L 3.75 1.4 L 2.968463061226652 1.4 L 2.226115647977452 1.4 L 1.5601821593255605 1.4 L 1.0040552810880667 1.4 L 0.585621537123409 1.4 L 0.3258629425811259 1.4 L 0.23780487804899986 1.4 " stroke="#191919" stroke-width="0.35 px" style="stroke-width:0.35;stroke-miterlimit:4;stroke-dasharray:none;fill:none;fill-opacity:1;fill-rule: evenodd"/>
<path id="Shape2DView_nwe0003"  d="M 9.75 -1.212195121951 A 2.4878 2.4878 0 0 0 7.2622 -3.7" stroke="#191919" stroke-width="0.35 px" style="stroke-width:0.35;stroke-miterlimit:4;stroke-dasharray:none;fill:none;fill-opacity:1;fill-rule: evenodd"/>
<path id="Shape2DView_nwe0004"  d="M 7.262195121951001 -3.7 L 7.174137057418874 -3.7 L 6.914378462876591 -3.7 L 6.495944718911933 -3.7 L 5.93981784067444 -3.7 L 5.273884352022549 -3.7 L 4.531536938773348 -3.7 L 3.75 -3.7 L 2.968463061226652 -3.7 L 2.226115647977452 -3.7 L 1.5601821593255605 -3.7 L 1.0040552810880667 -3.7 L 0.585621537123409 -3.7 L 0.3258629425811259 -3.7 L 0.23780487804899986 -3.7 " stroke="#191919" stroke-width="0.35 px" style="stroke-width:0.35;stroke-miterlimit:4;stroke-dasharray:none;fill:none;fill-opacity:1;fill-rule: evenodd"/>
<path id="Shape2DView_nwe0005"  d="M 9.75 -1.087804878049 L 9.599567473090943 -1.087804878049 L 9.155813207414514 -1.087804878049 L 8.440988894808179 -1.087804878049 L 7.490938811152402 -1.087804878049 L 6.353302434705349 -1.087804878049 L 5.085125603737887 -1.087804878049 L 3.7500000000000004 -1.087804878049 L 2.414874396262114 -1.087804878049 L 1.1466975652946516 -1.087804878049 L 0.009061188847598878 -1.087804878049 L -0.9409888948081786 -1.087804878049 L -1.6558132074145142 -1.087804878049 L -2.099567473090942 -1.087804878049 L -2.25 -1.087804878049 " stroke="#191919" stroke-width="0.35 px" style="stroke-width:0.35;stroke-miterlimit:4;stroke-dasharray:none;fill:none;fill-opacity:1;fill-rule: evenodd"/>
<path id="Shape2DView_nwe0006"  d="M 9.75 -1.212195121951 L 9.599567473090943 -1.212195121951 L 9.155813207414514 -1.212195121951 L 8.440988894808179 -1.212195121951 L 7.490938811152402 -1.212195121951 L 6.353302434705349 -1.212195121951 L 5.085125603737887 -1.212195121951 L 3.7500000000000004 -1.212195121951 L 2.414874396262114 -1.212195121951 L 1.1466975652946516 -1.212195121951 L 0.009061188847598878 -1.212195121951 L -0.9409888948081786 -1.212195121951 L -1.6558132074145142 -1.212195121951 L -2.099567473090942 -1.212195121951 L -2.25 -1.212195121951 " stroke="#191919" stroke-width="0.35 px" style="stroke-width:0.35;stroke-miterlimit:4;stroke-dasharray:none;fill:none;fill-opacity:1;fill-rule: evenodd"/>
<path id="Shape2DView_nwe0007"  d="M -2.25 -1.2121951219510003 L -2.25 -1.087804878049 " stroke="#191919" stroke-width="0.35 px" style="stroke-width:0.35;stroke-miterlimit:4;stroke-dasharray:none;fill:none;fill-opacity:1;fill-rule: evenodd"/>
<path id="Shape2DView_nwe0008"  d="M -2.25 -1.087804878049 C -2.2842900322842548 0.2414165605156521 -1.091749628270943 1.4342277421541176 0.23780487804899986 1.4 " stroke="#191919" stroke-width="0.35 px" style="stroke-width:0.35;stroke-miterlimit:4;stroke-dasharray:none;fill:none;fill-opacity:1;fill-rule: evenodd"/>
<path id="Shape2DView_nwe0009"  d="M -2.25 -1.2121951219509999 C -2.2842875711117796 -2.5414250152028504 -1.0917428613790858 -3.7342282157132347 0.23780487804899986 -3.7 " stroke="#191919" stroke-width="0.35 px" style="stroke-width:0.35;stroke-miterlimit:4;stroke-dasharray:none;fill:none;fill-opacity:1;fill-rule: evenodd"/>
<title>b'Shape2DView'</title>
</g>
<g id="Rectangle" transform="translate(2.370000,1.520000) scale(1,-1)">
<rect fill="#ff0000" id="origin" width="1" height="1" x="0" y="0" />
<title>b'Rectangle'</title>
</g>
</svg>