<?xml version="1.0"?>
<!DOCTYPE svg PUBLIC "-//W3C//DTD SVG 1.1//EN" "http://www.w3.org/Graphics/SVG/1.1/DTD/svg11.dtd">
<svg width="15.809999999999999mm" height="5.51mm" viewBox="0 0 15.809999999999999 5.51" xmlns="http://www.w3.org/2000/svg" version="1.1">
<g id="Shape2DView" transform="translate(4.155000,1.605000) scale(1,-1)">
<path id="Shape2DView_nwe0000"  d="M 11.5 -1.0865853658540001 L 11.5 -1.2134146341460001 " stroke="#191919" stroke-width="0.35 px" style="stroke-width:0.35;stroke-miterlimit:4;stroke-dasharray:none;fill:none;fill-opacity:1;fill-rule: evenodd"/>
<path id="Shape2DView_nwe0001"  d="M 11.5 -1.086585365854 A 2.53659 2.53659 0 0 1 8.96341 1.45" stroke="#191919" stroke-width="0.35 px" style="stroke-width:0.35;stroke-miterlimit:4;stroke-dasharray:none;fill:none;fill-opacity:1;fill-rule: evenodd"/>
<path id="Shape2DView_nwe0002"  d="M 8.963414634146 1.45 L 8.832703444606125 1.45 L 8.447124280832426 1.45 L 7.826011692134888 1.45 L 7.000510857251111 1.45 L 6.012015835033463 1.45 L 4.910093893491686 1.45 L 3.7500000000000004 1.45 L 2.589906106508315 1.45 L 1.4879841649665377 1.45 L 0.4994891427488888 1.45 L -0.32601169213488834 1.45 L -0.9471242808324254 1.45 L -1.3327034446061257 1.45 L -1.463414634146 1.45 " stroke="#191919" stroke-width="0.35 px" style="stroke-width:0.35;stroke-miterlimit:4;stroke-dasharray:none;fill:none;fill-opacity:1;fill-rule: evenodd"/>
<path id="Shape2DView_nwe0003"  d="M 11.5 -1.213414634146 A 2.53659 2.53659 0 0 0 8.96341 -3.75" stroke="#191919" stroke-width="0.35 px" style="stroke-width:0.35;stroke-miterlimit:4;stroke-dasharray:none;fill:none;fill-opacity:1;fill-rule: evenodd"/>
<path id="Shape2DView_nwe0004"  d="M 8.963414634146 -3.75 L 8.832703444606125 -3.75 L 8.447124280832426 -3.75 L 7.826011692134888 -3.75 L 7.000510857251111 -3.75 L 6.012015835033463 -3.75 L 4.910093893491686 -3.75 L 3.7500000000000004 -3.75 L 2.589906106508315 -3.75 L 1.4879841649665377 -3.75 L 0.4994891427488888 -3.75 L -0.32601169213488834 -3.75 L -0.9471242808324254 -3.75 L -1.3327034446061257 -3.75 L -1.463414634146 -3.75 " stroke="#191919" stroke-width="0.35 px" style="stroke-width:0.35;stroke-miterlimit:4;stroke-dasharray:none;fill:none;fill-opacity:1;fill-rule: evenodd"/>
<path id="Shape2DView_nwe0005"  d="M 11.5 -1.086585365854 L 11.305691319409133 -1.086585365854 L 10.732508726243747 -1.086585365854 L 9.80919398912723 -1.086585365854 L 8.582045964405186 -1.086585365854 L 7.112598978161076 -1.086585365854 L 5.474537238161437 -1.086585365854 L 3.7500000000000004 -1.086585365854 L 2.025462761838564 -1.086585365854 L 0.387401021838925 -1.086585365854 L -1.082045964405184 -1.086585365854 L -2.3091939891272313 -1.086585365854 L -3.232508726243747 -1.086585365854 L -3.8056913194091333 -1.086585365854 L -4.0 -1.086585365854 " stroke="#191919" stroke-width="0.35 px" style="stroke-width:0.35;stroke-miterlimit:4;stroke-dasharray:none;fill:none;fill-opacity:1;fill-rule: evenodd"/>
<path id="Shape2DView_nwe0006"  d="M 11.5 -1.213414634146 L 11.305691319409133 -1.213414634146 L 10.732508726243747 -1.213414634146 L 9.80919398912723 -1.213414634146 L 8.582045964405186 -1.213414634146 L 7.112598978161076 -1.213414634146 L 5.474537238161437 -1.213414634146 L 3.7500000000000004 -1.213414634146 L 2.025462761838564 -1.213414634146 L 0.387401021838925 -1.213414634146 L -1.082045964405184 -1.213414634146 L -2.3091939891272313 -1.213414634146 L -3.232508726243747 -1.213414634146 L -3.8056913194091333 -1.213414634146 L -4.0 -1.213414634146 " stroke="#191919" stroke-width="0.35 px" style="stroke-width:0.35;stroke-miterlimit:4;stroke-dasharray:none;fill:none;fill-opacity:1;fill-rule: evenodd"/>
<path id="Shape2DView_nwe0007"  d="M -4.0 -1.2134146341460001 L -4.0 -1.0865853658540001 " stroke="#191919" stroke-width="0.35 px" style="stroke-width:0.35;stroke-miterlimit:4;stroke-dasharray:none;fill:none;fill-opacity:1;fill-rule: evenodd"/>
<path id="Shape2DView_nwe0008"  d="M -4.0 -1.086585365854 C -4.034962387375098 0.2686992231205242 -2.8190388553451426 1.4848988642965515 -1.463414634146 1.4500000000000002 " stroke="#191919" stroke-width="0.35 px" style="stroke-width:0.35;stroke-miterlimit:4;stroke-dasharray:none;fill:none;fill-opacity:1;fill-rule: evenodd"/>
<path id="Shape2DView_nwe0009"  d="M -4.0 -1.213414634146 C -4.034962387375141 -2.568699223120434 -2.8190388553451635 -3.7848988642965598 -1.463414634146 -3.75 " stroke="#191919" stroke-width="0.35 px" style="stroke-width:0.35;stroke-miterlimit:4;stroke-dasharray:none;fill:none;fill-opacity:1;fill-rule: evenodd"/>
<title>b'Shape2DView'</title>
</g>
<g id="Rectangle" transform="translate(4.155000,1.605000) scale(1,-1)">
<rect fill="#ff0000" id="origin" width="1" height="1" x="0" y="0" />
<title>b'Rectangle'</title>
</g>
</svg>