<?xml version="1.0"?>
<!DOCTYPE svg PUBLIC "-//W3C//DTD SVG 1.1//EN" "http://www.w3.org/Graphics/SVG/1.1/DTD/svg11.dtd">
<svg width="15.809999999999999mm" height="6.41mm" viewBox="0 0 15.809999999999999 6.41" xmlns="http://www.w3.org/2000/svg" version="1.1">
<g id="Shape2DView" transform="translate(4.155000,1.755000) scale(1,-1)">
<path id="Shape2DView_nwe0000"  d="M 11.5 -1.375609756098 L 11.5 -1.5243902439019998 " stroke="#191919" stroke-width="0.35 px" style="stroke-width:0.35;stroke-miterlimit:4;stroke-dasharray:none;fill:none;fill-opacity:1;fill-rule: evenodd"/>
<path id="Shape2DView_nwe0001"  d="M 11.5 -1.375609756098 A 2.97561 2.97561 0 0 1 8.52439 1.6" stroke="#191919" stroke-width="0.35 px" style="stroke-width:0.35;stroke-miterlimit:4;stroke-dasharray:none;fill:none;fill-opacity:1;fill-rule: evenodd"/>
<path id="Shape2DView_nwe0002"  d="M 8.524390243902001 1.6 L 8.404686312428645 1.6 L 8.05157697297274 1.6 L 7.482768602270799 1.6 L 6.7267836271667285 1.6 L 5.821530291030591 1.6 L 4.8124017761449895 1.6 L 3.7500000000000004 1.6 L 2.6875982238550113 1.6 L 1.67846970896941 1.6 L 0.7732163728332715 1.6 L 0.017231397729200904 1.6 L -0.5515769729727396 1.6 L -0.9046863124286446 1.6 L -1.0243902439020003 1.6 " stroke="#191919" stroke-width="0.35 px" style="stroke-width:0.35;stroke-miterlimit:4;stroke-dasharray:none;fill:none;fill-opacity:1;fill-rule: evenodd"/>
<path id="Shape2DView_nwe0003"  d="M 11.5 -1.524390243902 A 2.97561 2.97561 0 0 0 8.52439 -4.5" stroke="#191919" stroke-width="0.35 px" style="stroke-width:0.35;stroke-miterlimit:4;stroke-dasharray:none;fill:none;fill-opacity:1;fill-rule: evenodd"/>
<path id="Shape2DView_nwe0004"  d="M 8.524390243902001 -4.5 L 8.404686312428645 -4.5 L 8.05157697297274 -4.5 L 7.482768602270799 -4.5 L 6.7267836271667285 -4.5 L 5.821530291030591 -4.5 L 4.8124017761449895 -4.5 L 3.7500000000000004 -4.5 L 2.6875982238550113 -4.5 L 1.67846970896941 -4.5 L 0.7732163728332715 -4.5 L 0.017231397729200904 -4.5 L -0.5515769729727396 -4.5 L -0.9046863124286446 -4.5 L -1.0243902439020003 -4.5 " stroke="#191919" stroke-width="0.35 px" style="stroke-width:0.35;stroke-miterlimit:4;stroke-dasharray:none;fill:none;fill-opacity:1;fill-rule: evenodd"/>
<path id="Shape2DView_nwe0005"  d="M 11.5 -1.375609756098 L 11.305691319409133 -1.375609756098 L 10.732508726243747 -1.375609756098 L 9.80919398912723 -1.375609756098 L 8.582045964405186 -1.375609756098 L 7.112598978161076 -1.375609756098 L 5.474537238161437 -1.375609756098 L 3.7500000000000004 -1.375609756098 L 2.025462761838564 -1.375609756098 L 0.387401021838925 -1.375609756098 L -1.082045964405184 -1.375609756098 L -2.3091939891272313 -1.375609756098 L -3.232508726243747 -1.375609756098 L -3.8056913194091333 -1.375609756098 L -4.0 -1.375609756098 " stroke="#191919" stroke-width="0.35 px" style="stroke-width:0.35;stroke-miterlimit:4;stroke-dasharray:none;fill:none;fill-opacity:1;fill-rule: evenodd"/>
<path id="Shape2DView_nwe0006"  d="M 11.5 -1.524390243902 L 11.305691319409133 -1.524390243902 L 10.732508726243747 -1.524390243902 L 9.80919398912723 -1.524390243902 L 8.582045964405186 -1.524390243902 L 7.112598978161076 -1.524390243902 L 5.474537238161437 -1.524390243902 L 3.7500000000000004 -1.524390243902 L 2.025462761838564 -1.524390243902 L 0.387401021838925 -1.524390243902 L -1.082045964405184 -1.524390243902 L -2.3091939891272313 -1.524390243902 L -3.232508726243747 -1.524390243902 L -3.8056913194091333 -1.524390243902 L -4.0 -1.524390243902 " stroke="#191919" stroke-width="0.35 px" style="stroke-width:0.35;stroke-miterlimit:4;stroke-dasharray:none;fill:none;fill-opacity:1;fill-rule: evenodd"/>
<path id="Shape2DView_nwe0007"  d="M -4.0 -1.5243902439019998 L -4.0 -1.375609756098 " stroke="#191919" stroke-width="0.35 px" style="stroke-width:0.35;stroke-miterlimit:4;stroke-dasharray:none;fill:none;fill-opacity:1;fill-rule: evenodd"/>
<path id="Shape2DView_nwe0008"  d="M -4.0 -1.375609756098 C -4.041008454175775 0.21426270002177877 -2.6146244980282054 1.6409421881521695 -1.0243902439020003 1.6 " stroke="#191919" stroke-width="0.35 px" style="stroke-width:0.35;stroke-miterlimit:4;stroke-dasharray:none;fill:none;fill-opacity:1;fill-rule: evenodd"/>
<path id="Shape2DView_nwe0009"  d="M -4.0 -1.5243902439020003 C -4.041003320088435 -3.1142820142303997 -2.6146083338331083 -4.540943467631342 -1.0243902439020003 -4.5 " stroke="#191919" stroke-width="0.35 px" style="stroke-width:0.35;stroke-miterlimit:4;stroke-dasharray:none;fill:none;fill-opacity:1;fill-rule: evenodd"/>
<title>b'Shape2DView'</title>
</g>
<g id="Rectangle" transform="translate(4.155000,1.755000) scale(1,-1)">
<rect fill="#ff0000" id="origin" width="1" height="1" x="0" y="0" />
<title>b'Rectangle'</title>
</g>
</svg>