<?xml version="1.0"?>
<!DOCTYPE svg PUBLIC "-//W3C//DTD SVG 1.1//EN" "http://www.w3.org/Graphics/SVG/1.1/DTD/svg11.dtd">
<svg width="7.140000000000001mm" height="5.04mm" viewBox="0 0 7.140000000000001 5.04" xmlns="http://www.w3.org/2000/svg" version="1.1">
<g id="Shape2DView" transform="translate(1.070000,1.520000) scale(1,-1)">
<path id="Shape2DView_nwe0000"  d="M 6.0 -0.9402439024389999 L 6.0 -1.059756097561 " stroke="#191919" stroke-width="0.35 px" style="stroke-width:0.35;stroke-miterlimit:4;stroke-dasharray:none;fill:none;fill-opacity:1;fill-rule: evenodd"/>
<path id="Shape2DView_nwe0001"  d="M 6.0 -0.940243902439 A 2.39024 2.39024 0 0 1 3.60976 1.45" stroke="#191919" stroke-width="0.35 px" style="stroke-width:0.35;stroke-miterlimit:4;stroke-dasharray:none;fill:none;fill-opacity:1;fill-rule: evenodd"/>
<path id="Shape2DView_nwe0002"  d="M 3.609756097561 1.45 L 3.5819321952261935 1.45 L 3.4998556948673407 1.45 L 3.367642254934052 1.45 L 3.191921609379829 1.45 L 2.9815051251182765 1.45 L 2.7469439632929884 1.45 L 2.5 1.45 L 2.2530560367070116 1.45 L 2.018494874881724 1.45 L 1.808078390620171 1.45 L 1.6323577450659479 1.45 L 1.5001443051326593 1.45 L 1.4180678047738062 1.45 L 1.390243902439 1.45 " stroke="#191919" stroke-width="0.35 px" style="stroke-width:0.35;stroke-miterlimit:4;stroke-dasharray:none;fill:none;fill-opacity:1;fill-rule: evenodd"/>
<path id="Shape2DView_nwe0003"  d="M 6.0 -1.059756097561 A 2.39024 2.39024 0 0 0 3.60976 -3.45" stroke="#191919" stroke-width="0.35 px" style="stroke-width:0.35;stroke-miterlimit:4;stroke-dasharray:none;fill:none;fill-opacity:1;fill-rule: evenodd"/>
<path id="Shape2DView_nwe0004"  d="M 3.609756097561 -3.45 L 3.5819321952261935 -3.45 L 3.4998556948673407 -3.45 L 3.367642254934052 -3.45 L 3.191921609379829 -3.45 L 2.9815051251182765 -3.45 L 2.7469439632929884 -3.45 L 2.5 -3.45 L 2.2530560367070116 -3.45 L 2.018494874881724 -3.45 L 1.808078390620171 -3.45 L 1.6323577450659479 -3.45 L 1.5001443051326593 -3.45 L 1.4180678047738062 -3.45 L 1.390243902439 -3.45 " stroke="#191919" stroke-width="0.35 px" style="stroke-width:0.35;stroke-miterlimit:4;stroke-dasharray:none;fill:none;fill-opacity:1;fill-rule: evenodd"/>
<path id="Shape2DView_nwe0005"  d="M 6.0 -0.940243902439 L 5.912247692636383 -0.940243902439 L 5.6533910376584675 -0.940243902439 L 5.2364101886381045 -0.940243902439 L 4.682214306505568 -0.940243902439 L 4.018593086911453 -0.940243902439 L 3.2788232688471006 -0.940243902439 L 2.5 -0.940243902439 L 1.7211767311528998 -0.940243902439 L 0.9814069130885468 -0.940243902439 L 0.31778569349443275 -0.940243902439 L -0.23641018863810448 -0.940243902439 L -0.6533910376584666 -0.940243902439 L -0.9122476926363827 -0.940243902439 L -1.0 -0.940243902439 " stroke="#191919" stroke-width="0.35 px" style="stroke-width:0.35;stroke-miterlimit:4;stroke-dasharray:none;fill:none;fill-opacity:1;fill-rule: evenodd"/>
<path id="Shape2DView_nwe0006"  d="M 6.0 -1.059756097561 L 5.912247692636383 -1.059756097561 L 5.6533910376584675 -1.059756097561 L 5.2364101886381045 -1.059756097561 L 4.682214306505568 -1.059756097561 L 4.018593086911453 -1.059756097561 L 3.2788232688471006 -1.059756097561 L 2.5 -1.059756097561 L 1.7211767311528998 -1.059756097561 L 0.9814069130885468 -1.059756097561 L 0.31778569349443275 -1.059756097561 L -0.23641018863810448 -1.059756097561 L -0.6533910376584666 -1.059756097561 L -0.9122476926363827 -1.059756097561 L -1.0 -1.059756097561 " stroke="#191919" stroke-width="0.35 px" style="stroke-width:0.35;stroke-miterlimit:4;stroke-dasharray:none;fill:none;fill-opacity:1;fill-rule: evenodd"/>
<path id="Shape2DView_nwe0007"  d="M -1.0 -1.059756097561 L -1.0 -0.9402439024389999 " stroke="#191919" stroke-width="0.35 px" style="stroke-width:0.35;stroke-miterlimit:4;stroke-dasharray:none;fill:none;fill-opacity:1;fill-rule: evenodd"/>
<path id="Shape2DView_nwe0008"  d="M -1.0 -0.940243902439 C -1.0329269836118784 0.3369952389927764 0.11300476100775142 1.4829269836118404 1.3902439024390003 1.4499999999999997 " stroke="#191919" stroke-width="0.35 px" style="stroke-width:0.35;stroke-miterlimit:4;stroke-dasharray:none;fill:none;fill-opacity:1;fill-rule: evenodd"/>
<path id="Shape2DView_nwe0009"  d="M -1.0 -1.0597560975610003 C -1.032926983611827 -2.336995238992719 0.11300476100776574 -3.4829269836118857 1.3902439024389994 -3.45 " stroke="#191919" stroke-width="0.35 px" style="stroke-width:0.35;stroke-miterlimit:4;stroke-dasharray:none;fill:none;fill-opacity:1;fill-rule: evenodd"/>
<title>b'Shape2DView'</title>
</g>
<g id="Rectangle" transform="translate(1.070000,1.520000) scale(1,-1)">
<rect fill="#ff0000" id="origin" width="1" height="1" x="0" y="0" />
<title>b'Rectangle'</title>
</g>
</svg>