<?xml version="1.0"?>
<!DOCTYPE svg PUBLIC "-//W3C//DTD SVG 1.1//EN" "http://www.w3.org/Graphics/SVG/1.1/DTD/svg11.dtd">
<svg width="7.140000000000001mm" height="4.9399999999999995mm" viewBox="0 0 7.140000000000001 4.9399999999999995" xmlns="http://www.w3.org/2000/svg" version="1.1">
<g id="Shape2DView" transform="translate(1.070000,1.320000) scale(1,-1)">
<path id="Shape2DView_nwe0000"  d="M 6.0 -1.091463414634 L 6.0 -1.2085365853659997 " stroke="#191919" stroke-width="0.35 px" style="stroke-width:0.35;stroke-miterlimit:4;stroke-dasharray:none;fill:none;fill-opacity:1;fill-rule: evenodd"/>
<path id="Shape2DView_nwe0001"  d="M 6.0 -1.091463414634 A 2.34146 2.34146 0 0 1 3.65854 1.25" stroke="#191919" stroke-width="0.35 px" style="stroke-width:0.35;stroke-miterlimit:4;stroke-dasharray:none;fill:none;fill-opacity:1;fill-rule: evenodd"/>
<path id="Shape2DView_nwe0002"  d="M 3.658536585366 1.25 L 3.6294896543571333 1.25 L 3.5438053957407396 1.25 L 3.405780376030149 1.25 L 3.222335746055941 1.25 L 3.002670185563088 1.25 L 2.7577986429982015 1.25 L 2.5 1.25 L 2.2422013570017985 1.25 L 1.9973298144369118 1.25 L 1.777664253944059 1.25 L 1.5942196239698512 1.25 L 1.4561946042592608 1.25 L 1.3705103456428667 1.25 L 1.341463414634 1.25 " stroke="#191919" stroke-width="0.35 px" style="stroke-width:0.35;stroke-miterlimit:4;stroke-dasharray:none;fill:none;fill-opacity:1;fill-rule: evenodd"/>
<path id="Shape2DView_nwe0003"  d="M 6.0 -1.208536585366 A 2.34146 2.34146 0 0 0 3.65854 -3.55" stroke="#191919" stroke-width="0.35 px" style="stroke-width:0.35;stroke-miterlimit:4;stroke-dasharray:none;fill:none;fill-opacity:1;fill-rule: evenodd"/>
<path id="Shape2DView_nwe0004"  d="M 3.658536585366 -3.55 L 3.6294896543571333 -3.55 L 3.5438053957407396 -3.55 L 3.405780376030149 -3.55 L 3.222335746055941 -3.55 L 3.002670185563088 -3.55 L 2.7577986429982015 -3.55 L 2.5 -3.55 L 2.2422013570017985 -3.55 L 1.9973298144369118 -3.55 L 1.777664253944059 -3.55 L 1.5942196239698512 -3.55 L 1.4561946042592608 -3.55 L 1.3705103456428667 -3.55 L 1.341463414634 -3.55 " stroke="#191919" stroke-width="0.35 px" style="stroke-width:0.35;stroke-miterlimit:4;stroke-dasharray:none;fill:none;fill-opacity:1;fill-rule: evenodd"/>
<path id="Shape2DView_nwe0005"  d="M 0.27 -8.589033614809998e-33 A 0.27 0.27 0 0 1 -0.0399554 0.267027" stroke="#191919" stroke-width="0.35 px" style="stroke-width:0.35;stroke-miterlimit:4;stroke-dasharray:none;fill:none;fill-opacity:1;fill-rule: evenodd"/>
<path id="Shape2DView_nwe0006"  d="M 6.0 -1.091463414634 L 5.912247692636383 -1.091463414634 L 5.6533910376584675 -1.091463414634 L 5.2364101886381045 -1.091463414634 L 4.682214306505568 -1.091463414634 L 4.018593086911453 -1.091463414634 L 3.2788232688471006 -1.091463414634 L 2.5 -1.091463414634 L 1.7211767311528998 -1.091463414634 L 0.9814069130885468 -1.091463414634 L 0.31778569349443275 -1.091463414634 L -0.23641018863810448 -1.091463414634 L -0.6533910376584666 -1.091463414634 L -0.9122476926363827 -1.091463414634 L -1.0 -1.091463414634 " stroke="#191919" stroke-width="0.35 px" style="stroke-width:0.35;stroke-miterlimit:4;stroke-dasharray:none;fill:none;fill-opacity:1;fill-rule: evenodd"/>
<path id="Shape2DView_nwe0007"  d="M 6.0 -1.208536585366 L 5.912247692636383 -1.208536585366 L 5.6533910376584675 -1.208536585366 L 5.2364101886381045 -1.208536585366 L 4.682214306505568 -1.208536585366 L 4.018593086911453 -1.208536585366 L 3.2788232688471006 -1.208536585366 L 2.5 -1.208536585366 L 1.7211767311528998 -1.208536585366 L 0.9814069130885468 -1.208536585366 L 0.31778569349443275 -1.208536585366 L -0.23641018863810448 -1.208536585366 L -0.6533910376584666 -1.208536585366 L -0.9122476926363827 -1.208536585366 L -1.0 -1.208536585366 " stroke="#191919" stroke-width="0.35 px" style="stroke-width:0.35;stroke-miterlimit:4;stroke-dasharray:none;fill:none;fill-opacity:1;fill-rule: evenodd"/>
<path id="Shape2DView_nwe0009"  d="M -1.0 -1.2085365853659997 L -1.0 -1.091463414634 " stroke="#191919" stroke-width="0.35 px" style="stroke-width:0.35;stroke-miterlimit:4;stroke-dasharray:none;fill:none;fill-opacity:1;fill-rule: evenodd"/>
<path id="Shape2DView_nwe0010"  d="M -1.0 -1.091463414634 C -1.032255004738772 0.15970962181630224 0.09029037818397512 1.282255004738786 1.3414634146340005 1.25 " stroke="#191919" stroke-width="0.35 px" style="stroke-width:0.35;stroke-miterlimit:4;stroke-dasharray:none;fill:none;fill-opacity:1;fill-rule: evenodd"/>
<path id="Shape2DView_nwe0011"  d="M -1.0 -1.2085365853659997 C -1.0322550047387136 -2.4597096218165198 0.09029037818415098 -3.5822550047388035 1.3414634146339997 -3.55 " stroke="#191919" stroke-width="0.35 px" style="stroke-width:0.35;stroke-miterlimit:4;stroke-dasharray:none;fill:none;fill-opacity:1;fill-rule: evenodd"/>
<title>b'Shape2DView'</title>
</g>
<g id="Rectangle" transform="translate(1.070000,1.320000) scale(1,-1)">
<rect fill="#ff0000" id="origin" width="1" height="1" x="0" y="0" />
<title>b'Rectangle'</title>
</g>
</svg>