<?xml version="1.0"?>
<!DOCTYPE svg PUBLIC "-//W3C//DTD SVG 1.1//EN" "http://www.w3.org/Graphics/SVG/1.1/DTD/svg11.dtd">
<svg width="15.809999999999999mm" height="4.21mm" viewBox="0 0 15.809999999999999 4.21" xmlns="http://www.w3.org/2000/svg" version="1.1">
<g id="Shape2DView" transform="translate(4.155000,1.405000) scale(1,-1)">
<path id="Shape2DView_nwe0000"  d="M 11.5 -0.65243902439 L 11.5 -0.7475609756099999 " stroke="#191919" stroke-width="0.35 px" style="stroke-width:0.35;stroke-miterlimit:4;stroke-dasharray:none;fill:none;fill-opacity:1;fill-rule: evenodd"/>
<path id="Shape2DView_nwe0001"  d="M 11.5 -0.65243902439 A 1.90244 1.90244 0 0 1 9.59756 1.25" stroke="#191919" stroke-width="0.35 px" style="stroke-width:0.35;stroke-miterlimit:4;stroke-dasharray:none;fill:none;fill-opacity:1;fill-rule: evenodd"/>
<path id="Shape2DView_nwe0002"  d="M 9.597560975610001 1.25 L 9.450950413307364 1.25 L 9.018470392185709 1.25 L 8.321807266383365 1.25 L 7.3958946340399425 1.25 L 6.287161620815583 1.25 L 5.051204729659235 1.25 L 3.7500000000000004 1.25 L 2.4487952703407663 1.25 L 1.2128383791844173 1.25 L 0.10410536596005837 1.25 L -0.8218072663833649 1.25 L -1.5184703921857068 1.25 L -1.950950413307365 1.25 L -2.0975609756100004 1.25 " stroke="#191919" stroke-width="0.35 px" style="stroke-width:0.35;stroke-miterlimit:4;stroke-dasharray:none;fill:none;fill-opacity:1;fill-rule: evenodd"/>
<path id="Shape2DView_nwe0003"  d="M 11.5 -0.74756097561 A 1.90244 1.90244 0 0 0 9.59756 -2.65" stroke="#191919" stroke-width="0.35 px" style="stroke-width:0.35;stroke-miterlimit:4;stroke-dasharray:none;fill:none;fill-opacity:1;fill-rule: evenodd"/>
<path id="Shape2DView_nwe0004"  d="M 9.597560975610001 -2.65 L 9.450950413307364 -2.65 L 9.018470392185709 -2.65 L 8.321807266383365 -2.65 L 7.3958946340399425 -2.65 L 6.287161620815583 -2.65 L 5.051204729659235 -2.65 L 3.7500000000000004 -2.65 L 2.4487952703407663 -2.65 L 1.2128383791844173 -2.65 L 0.10410536596005837 -2.65 L -0.8218072663833649 -2.65 L -1.5184703921857068 -2.65 L -1.950950413307365 -2.65 L -2.0975609756100004 -2.65 " stroke="#191919" stroke-width="0.35 px" style="stroke-width:0.35;stroke-miterlimit:4;stroke-dasharray:none;fill:none;fill-opacity:1;fill-rule: evenodd"/>
<path id="Shape2DView_nwe0005"  d="M 7.86 -1.4 A 0.36 0.36 0 1 1 7.85062 -1.48164" stroke="#191919" stroke-width="0.35 px" style="stroke-width:0.35;stroke-miterlimit:4;stroke-dasharray:none;fill:none;fill-opacity:1;fill-rule: evenodd"/>
<path id="Shape2DView_nwe0006"  d="M 7.850619746602342 -1.4816443096149978 A 0.36 0.36 0 0 1 7.86 -1.4" stroke="#191919" stroke-width="0.35 px" style="stroke-width:0.35;stroke-miterlimit:4;stroke-dasharray:none;fill:none;fill-opacity:1;fill-rule: evenodd"/>
<path id="Shape2DView_nwe0007"  d="M 11.5 -0.65243902439 L 11.305691319409133 -0.65243902439 L 10.732508726243747 -0.65243902439 L 9.80919398912723 -0.65243902439 L 8.582045964405186 -0.65243902439 L 7.112598978161076 -0.65243902439 L 5.474537238161437 -0.65243902439 L 3.7500000000000004 -0.65243902439 L 2.025462761838564 -0.65243902439 L 0.387401021838925 -0.65243902439 L -1.082045964405184 -0.65243902439 L -2.3091939891272313 -0.65243902439 L -3.232508726243747 -0.65243902439 L -3.8056913194091333 -0.65243902439 L -4.0 -0.65243902439 " stroke="#191919" stroke-width="0.35 px" style="stroke-width:0.35;stroke-miterlimit:4;stroke-dasharray:none;fill:none;fill-opacity:1;fill-rule: evenodd"/>
<path id="Shape2DView_nwe0008"  d="M 11.5 -0.74756097561 L 11.305691319409133 -0.74756097561 L 10.732508726243747 -0.74756097561 L 9.80919398912723 -0.74756097561 L 8.582045964405186 -0.74756097561 L 7.112598978161076 -0.74756097561 L 5.474537238161437 -0.74756097561 L 3.7500000000000004 -0.74756097561 L 2.025462761838564 -0.74756097561 L 0.387401021838925 -0.74756097561 L -1.082045964405184 -0.74756097561 L -2.3091939891272313 -0.74756097561 L -3.232508726243747 -0.74756097561 L -3.8056913194091333 -0.74756097561 L -4.0 -0.74756097561 " stroke="#191919" stroke-width="0.35 px" style="stroke-width:0.35;stroke-miterlimit:4;stroke-dasharray:none;fill:none;fill-opacity:1;fill-rule: evenodd"/>
<path id="Shape2DView_nwe0011"  d="M -4.0 -0.7475609756099999 L -4.0 -0.65243902439 " stroke="#191919" stroke-width="0.35 px" style="stroke-width:0.35;stroke-miterlimit:4;stroke-dasharray:none;fill:none;fill-opacity:1;fill-rule: evenodd"/>
<path id="Shape2DView_nwe0012"  d="M -4.0 -0.65243902439 C -4.02623020140635 0.3639957168932437 -3.114301415372709 1.2761710589888218 -2.0975609756100004 1.25 " stroke="#191919" stroke-width="0.35 px" style="stroke-width:0.35;stroke-miterlimit:4;stroke-dasharray:none;fill:none;fill-opacity:1;fill-rule: evenodd"/>
<path id="Shape2DView_nwe0013"  d="M -4.0 -0.7475609756099999 C -4.026230201406402 -1.7639957168930847 -3.1143014153727444 -2.6761710589888628 -2.0975609756100004 -2.65 " stroke="#191919" stroke-width="0.35 px" style="stroke-width:0.35;stroke-miterlimit:4;stroke-dasharray:none;fill:none;fill-opacity:1;fill-rule: evenodd"/>
<title>b'Shape2DView'</title>
</g>
<g id="Rectangle" transform="translate(4.155000,1.405000) scale(1,-1)">
<rect fill="#ff0000" id="origin" width="1" height="1" x="0" y="0" />
<title>b'Rectangle'</title>
</g>
</svg>