<?xml version="1.0"?>
<!DOCTYPE svg PUBLIC "-//W3C//DTD SVG 1.1//EN" "http://www.w3.org/Graphics/SVG/1.1/DTD/svg11.dtd">
<svg width="21.93mm" height="5.03mm" viewBox="0 0 21.93 5.03" xmlns="http://www.w3.org/2000/svg" version="1.1">
<g id="Shape2DView" transform="translate(5.965000,1.665000) scale(1,-1)">
<path id="Shape2DView_nwe0000"  d="M 15.75 -0.7939024390240002 L 15.75 -0.906097560976 " stroke="#191919" stroke-width="0.35 px" style="stroke-width:0.35;stroke-miterlimit:4;stroke-dasharray:none;fill:none;fill-opacity:1;fill-rule: evenodd"/>
<path id="Shape2DView_nwe0001"  d="M 15.75 -0.793902439024 A 2.2439 2.2439 0 0 1 13.5061 1.45" stroke="#191919" stroke-width="0.35 px" style="stroke-width:0.35;stroke-miterlimit:4;stroke-dasharray:none;fill:none;fill-opacity:1;fill-rule: evenodd"/>
<path id="Shape2DView_nwe0002"  d="M 13.506097560976 1.45 L 13.292831935937235 1.45 L 12.663729089780077 1.45 L 11.650334866115559 1.45 L 10.303465082883983 1.45 L 8.690657415055009 1.45 L 6.892784773591908 1.45 L 5.000000000000001 1.45 L 3.1072152264080932 1.45 L 1.309342584944992 1.45 L -0.30346508288398244 1.45 L -1.6503348661155588 1.45 L -2.663729089780075 1.45 L -3.292831935937235 1.45 L -3.5060975609760003 1.45 " stroke="#191919" stroke-width="0.35 px" style="stroke-width:0.35;stroke-miterlimit:4;stroke-dasharray:none;fill:none;fill-opacity:1;fill-rule: evenodd"/>
<path id="Shape2DView_nwe0003"  d="M 15.75 -0.906097560976 A 2.2439 2.2439 0 0 0 13.5061 -3.15" stroke="#191919" stroke-width="0.35 px" style="stroke-width:0.35;stroke-miterlimit:4;stroke-dasharray:none;fill:none;fill-opacity:1;fill-rule: evenodd"/>
<path id="Shape2DView_nwe0004"  d="M 13.506097560976 -3.15 L 13.292831935937235 -3.15 L 12.663729089780077 -3.15 L 11.650334866115559 -3.15 L 10.303465082883983 -3.15 L 8.690657415055009 -3.15 L 6.892784773591908 -3.15 L 5.000000000000001 -3.15 L 3.1072152264080932 -3.15 L 1.309342584944992 -3.15 L -0.30346508288398244 -3.15 L -1.6503348661155588 -3.15 L -2.663729089780075 -3.15 L -3.292831935937235 -3.15 L -3.5060975609760003 -3.15 " stroke="#191919" stroke-width="0.35 px" style="stroke-width:0.35;stroke-miterlimit:4;stroke-dasharray:none;fill:none;fill-opacity:1;fill-rule: evenodd"/>
<path id="Shape2DView_nwe0005"  d="M 15.75 -0.793902439024 L 15.480475055954605 -0.793902439024 L 14.685415329951006 -0.793902439024 L 13.40468843653132 -0.793902439024 L 11.702515369981386 -0.793902439024 L 9.66425019551375 -0.793902439024 L 7.39210004003038 -0.793902439024 L 5.000000000000001 -0.793902439024 L 2.607899959969621 -0.793902439024 L 0.3357498044862508 -0.793902439024 L -1.702515369981385 -0.793902439024 L -3.4046884365313197 -0.793902439024 L -4.685415329951004 -0.793902439024 L -5.480475055954605 -0.793902439024 L -5.75 -0.793902439024 " stroke="#191919" stroke-width="0.35 px" style="stroke-width:0.35;stroke-miterlimit:4;stroke-dasharray:none;fill:none;fill-opacity:1;fill-rule: evenodd"/>
<path id="Shape2DView_nwe0006"  d="M 15.75 -0.906097560976 L 15.480475055954605 -0.906097560976 L 14.685415329951006 -0.906097560976 L 13.40468843653132 -0.906097560976 L 11.702515369981386 -0.906097560976 L 9.66425019551375 -0.906097560976 L 7.39210004003038 -0.906097560976 L 5.000000000000001 -0.906097560976 L 2.607899959969621 -0.906097560976 L 0.3357498044862508 -0.906097560976 L -1.702515369981385 -0.906097560976 L -3.4046884365313197 -0.906097560976 L -4.685415329951004 -0.906097560976 L -5.480475055954605 -0.906097560976 L -5.75 -0.906097560976 " stroke="#191919" stroke-width="0.35 px" style="stroke-width:0.35;stroke-miterlimit:4;stroke-dasharray:none;fill:none;fill-opacity:1;fill-rule: evenodd"/>
<path id="Shape2DView_nwe0007"  d="M -5.75 -0.906097560976 L -5.75 -0.7939024390240002 " stroke="#191919" stroke-width="0.35 px" style="stroke-width:0.35;stroke-miterlimit:4;stroke-dasharray:none;fill:none;fill-opacity:1;fill-rule: evenodd"/>
<path id="Shape2DView_nwe0008"  d="M -5.75 -0.793902439024 C -5.780930457442162 0.40499532746392086 -4.705310079812884 1.4808710474896851 -3.506097560976001 1.4500000000000002 " stroke="#191919" stroke-width="0.35 px" style="stroke-width:0.35;stroke-miterlimit:4;stroke-dasharray:none;fill:none;fill-opacity:1;fill-rule: evenodd"/>
<path id="Shape2DView_nwe0009"  d="M -5.75 -0.9060975609759998 C -5.780930457442174 -2.104995327463797 -4.70531007981308 -3.180871047489617 -3.5060975609760003 -3.1500000000000004 " stroke="#191919" stroke-width="0.35 px" style="stroke-width:0.35;stroke-miterlimit:4;stroke-dasharray:none;fill:none;fill-opacity:1;fill-rule: evenodd"/>
<title>b'Shape2DView'</title>
</g>
<g id="Rectangle" transform="translate(5.965000,1.665000) scale(1,-1)">
<rect fill="#ff0000" id="origin" width="1" height="1" x="0" y="0" />
<title>b'Rectangle'</title>
</g>
</svg>