<?xml version="1.0"?>
<!DOCTYPE svg PUBLIC "-//W3C//DTD SVG 1.1//EN" "http://www.w3.org/Graphics/SVG/1.1/DTD/svg11.dtd">
<svg width="9.18mm" height="3.88mm" viewBox="0 0 9.18 3.88" xmlns="http://www.w3.org/2000/svg" version="1.1">
<g id="Shape2DView" transform="translate(2.090000,1.190000) scale(1,-1)">
<path id="Shape2DView_nwe0000"  d="M 7.0 -0.7048780487799999 L 7.0 -0.7951219512200001 " stroke="#191919" stroke-width="0.35 px" style="stroke-width:0.35;stroke-miterlimit:4;stroke-dasharray:none;fill:none;fill-opacity:1;fill-rule: evenodd"/>
<path id="Shape2DView_nwe0001"  d="M 7.0 -0.70487804878 A 1.80488 1.80488 0 0 1 5.19512 1.1" stroke="#191919" stroke-width="0.35 px" style="stroke-width:0.35;stroke-miterlimit:4;stroke-dasharray:none;fill:none;fill-opacity:1;fill-rule: evenodd"/>
<path id="Shape2DView_nwe0002"  d="M 5.19512195122 1.1 L 5.1275496169783175 1.1 L 4.928220973249642 1.1 L 4.607131190554462 1.1 L 4.180381051351281 1.1 L 3.669369589573143 1.1 L 3.099721053711639 1.1 L 2.5 1.1 L 1.9002789462883614 1.1 L 1.3306304104268574 1.1 L 0.8196189486487191 1.1 L 0.39286880944553815 1.1 L 0.07177902675035819 1.1 L -0.12754961697831746 1.1 L -0.19512195121999998 1.1 " stroke="#191919" stroke-width="0.35 px" style="stroke-width:0.35;stroke-miterlimit:4;stroke-dasharray:none;fill:none;fill-opacity:1;fill-rule: evenodd"/>
<path id="Shape2DView_nwe0003"  d="M 7.0 -0.79512195122 A 1.80488 1.80488 0 0 0 5.19512 -2.6" stroke="#191919" stroke-width="0.35 px" style="stroke-width:0.35;stroke-miterlimit:4;stroke-dasharray:none;fill:none;fill-opacity:1;fill-rule: evenodd"/>
<path id="Shape2DView_nwe0004"  d="M 5.19512195122 -2.6 L 5.1275496169783175 -2.6 L 4.928220973249642 -2.6 L 4.607131190554462 -2.6 L 4.180381051351281 -2.6 L 3.669369589573143 -2.6 L 3.099721053711639 -2.6 L 2.5 -2.6 L 1.9002789462883614 -2.6 L 1.3306304104268574 -2.6 L 0.8196189486487191 -2.6 L 0.39286880944553815 -2.6 L 0.07177902675035819 -2.6 L -0.12754961697831746 -2.6 L -0.19512195121999998 -2.6 " stroke="#191919" stroke-width="0.35 px" style="stroke-width:0.35;stroke-miterlimit:4;stroke-dasharray:none;fill:none;fill-opacity:1;fill-rule: evenodd"/>
<path id="Shape2DView_nwe0005"  d="M 7.0 -0.70487804878 L 6.887175604818206 -0.70487804878 L 6.5543599055608865 -0.70487804878 L 6.018241671106134 -0.70487804878 L 5.305704108364301 -0.70487804878 L 4.452476826029011 -0.70487804878 L 3.501344202803415 -0.70487804878 L 2.5000000000000004 -0.70487804878 L 1.4986557971965855 -0.70487804878 L 0.5475231739709887 -0.70487804878 L -0.3057041083643006 -0.70487804878 L -1.018241671106134 -0.70487804878 L -1.5543599055608857 -0.70487804878 L -1.8871756048182062 -0.70487804878 L -2.0 -0.70487804878 " stroke="#191919" stroke-width="0.35 px" style="stroke-width:0.35;stroke-miterlimit:4;stroke-dasharray:none;fill:none;fill-opacity:1;fill-rule: evenodd"/>
<path id="Shape2DView_nwe0006"  d="M 7.0 -0.79512195122 L 6.887175604818206 -0.79512195122 L 6.5543599055608865 -0.79512195122 L 6.018241671106134 -0.79512195122 L 5.305704108364301 -0.79512195122 L 4.452476826029011 -0.79512195122 L 3.501344202803415 -0.79512195122 L 2.5000000000000004 -0.79512195122 L 1.4986557971965855 -0.79512195122 L 0.5475231739709887 -0.79512195122 L -0.3057041083643006 -0.79512195122 L -1.018241671106134 -0.79512195122 L -1.5543599055608857 -0.79512195122 L -1.8871756048182062 -0.79512195122 L -2.0 -0.79512195122 " stroke="#191919" stroke-width="0.35 px" style="stroke-width:0.35;stroke-miterlimit:4;stroke-dasharray:none;fill:none;fill-opacity:1;fill-rule: evenodd"/>
<path id="Shape2DView_nwe0007"  d="M -2.0 -0.7951219512200001 L -2.0 -0.7048780487799999 " stroke="#191919" stroke-width="0.35 px" style="stroke-width:0.35;stroke-miterlimit:4;stroke-dasharray:none;fill:none;fill-opacity:1;fill-rule: evenodd"/>
<path id="Shape2DView_nwe0008"  d="M -2.0 -0.70487804878 C -2.0248874495490616 0.25942419597691935 -1.159727342291121 1.1248284139819757 -0.19512195121999998 1.0999999999999999 " stroke="#191919" stroke-width="0.35 px" style="stroke-width:0.35;stroke-miterlimit:4;stroke-dasharray:none;fill:none;fill-opacity:1;fill-rule: evenodd"/>
<path id="Shape2DView_nwe0009"  d="M -2.0 -0.7951219512200001 C -2.0248874495490448 -1.7594241959769776 -1.1597273422911059 -2.6248284139819607 -0.1951219512200002 -2.6 " stroke="#191919" stroke-width="0.35 px" style="stroke-width:0.35;stroke-miterlimit:4;stroke-dasharray:none;fill:none;fill-opacity:1;fill-rule: evenodd"/>
<title>b'Shape2DView'</title>
</g>
<g id="Rectangle" transform="translate(2.090000,1.190000) scale(1,-1)">
<rect fill="#ff0000" id="origin" width="1" height="1" x="0" y="0" />
<title>b'Rectangle'</title>
</g>
</svg>