<?xml version="1.0"?>
<!DOCTYPE svg PUBLIC "-//W3C//DTD SVG 1.1//EN" "http://www.w3.org/Graphics/SVG/1.1/DTD/svg11.dtd">
<svg width="9.18mm" height="4.28mm" viewBox="0 0 9.18 4.28" xmlns="http://www.w3.org/2000/svg" version="1.1">
<g id="Shape2DView" transform="translate(2.090000,1.240000) scale(1,-1)">
<path id="Shape2DView_nwe0000"  d="M 7.0 -0.8500000000000001 L 7.0 -0.9499999999999997 " stroke="#191919" stroke-width="0.35 px" style="stroke-width:0.35;stroke-miterlimit:4;stroke-dasharray:none;fill:none;fill-opacity:1;fill-rule: evenodd"/>
<path id="Shape2DView_nwe0001"  d="M 7.0 -0.85 A 2 2 0 0 1 5 1.15" stroke="#191919" stroke-width="0.35 px" style="stroke-width:0.35;stroke-miterlimit:4;stroke-dasharray:none;fill:none;fill-opacity:1;fill-rule: evenodd"/>
<path id="Shape2DView_nwe0002"  d="M 5.0 1.15 L 4.937319780454559 1.15 L 4.7524221697560485 1.15 L 4.454578706170075 1.15 L 4.058724504646834 1.15 L 3.584709347793895 1.15 L 3.056302334890786 1.15 L 2.5 1.15 L 1.9436976651092142 1.15 L 1.4152906522061048 1.15 L 0.9412754953531663 1.15 L 0.5454212938299254 1.15 L 0.2475778302439524 1.15 L 0.06268021954544079 1.15 L 0.0 1.15 " stroke="#191919" stroke-width="0.35 px" style="stroke-width:0.35;stroke-miterlimit:4;stroke-dasharray:none;fill:none;fill-opacity:1;fill-rule: evenodd"/>
<path id="Shape2DView_nwe0003"  d="M 7.0 -0.95 A 2 2 0 0 0 5 -2.95" stroke="#191919" stroke-width="0.35 px" style="stroke-width:0.35;stroke-miterlimit:4;stroke-dasharray:none;fill:none;fill-opacity:1;fill-rule: evenodd"/>
<path id="Shape2DView_nwe0004"  d="M 5.0 -2.95 L 4.937319780454559 -2.95 L 4.7524221697560485 -2.95 L 4.454578706170075 -2.95 L 4.058724504646834 -2.95 L 3.584709347793895 -2.95 L 3.056302334890786 -2.95 L 2.5 -2.95 L 1.9436976651092142 -2.95 L 1.4152906522061048 -2.95 L 0.9412754953531663 -2.95 L 0.5454212938299254 -2.95 L 0.2475778302439524 -2.95 L 0.06268021954544079 -2.95 L 0.0 -2.95 " stroke="#191919" stroke-width="0.35 px" style="stroke-width:0.35;stroke-miterlimit:4;stroke-dasharray:none;fill:none;fill-opacity:1;fill-rule: evenodd"/>
<path id="Shape2DView_nwe0005"  d="M 7.0 -0.85 L 6.887175604818206 -0.85 L 6.5543599055608865 -0.85 L 6.018241671106134 -0.85 L 5.305704108364301 -0.85 L 4.452476826029011 -0.85 L 3.501344202803415 -0.85 L 2.5000000000000004 -0.85 L 1.4986557971965855 -0.85 L 0.5475231739709887 -0.85 L -0.3057041083643006 -0.85 L -1.018241671106134 -0.85 L -1.5543599055608857 -0.85 L -1.8871756048182062 -0.85 L -2.0 -0.85 " stroke="#191919" stroke-width="0.35 px" style="stroke-width:0.35;stroke-miterlimit:4;stroke-dasharray:none;fill:none;fill-opacity:1;fill-rule: evenodd"/>
<path id="Shape2DView_nwe0006"  d="M 7.0 -0.95 L 6.887175604818206 -0.95 L 6.5543599055608865 -0.95 L 6.018241671106134 -0.95 L 5.305704108364301 -0.95 L 4.452476826029011 -0.95 L 3.501344202803415 -0.95 L 2.5000000000000004 -0.95 L 1.4986557971965855 -0.95 L 0.5475231739709887 -0.95 L -0.3057041083643006 -0.95 L -1.018241671106134 -0.95 L -1.5543599055608857 -0.95 L -1.8871756048182062 -0.95 L -2.0 -0.95 " stroke="#191919" stroke-width="0.35 px" style="stroke-width:0.35;stroke-miterlimit:4;stroke-dasharray:none;fill:none;fill-opacity:1;fill-rule: evenodd"/>
<path id="Shape2DView_nwe0007"  d="M -2.0 -0.9499999999999997 L -2.0 -0.8500000000000001 " stroke="#191919" stroke-width="0.35 px" style="stroke-width:0.35;stroke-miterlimit:4;stroke-dasharray:none;fill:none;fill-opacity:1;fill-rule: evenodd"/>
<path id="Shape2DView_nwe0008"  d="M -2.0 -0.85 C -2.027570573073489 0.21857545966696265 -1.0688692077346937 1.1775146884000742 -2.220446049250313e-16 1.15 " stroke="#191919" stroke-width="0.35 px" style="stroke-width:0.35;stroke-miterlimit:4;stroke-dasharray:none;fill:none;fill-opacity:1;fill-rule: evenodd"/>
<path id="Shape2DView_nwe0009"  d="M -2.0 -0.9500000000000002 C -2.027572868171592 -2.018567698058372 -1.0688750558822966 -2.977513861105816 2.220446049250313e-16 -2.95 " stroke="#191919" stroke-width="0.35 px" style="stroke-width:0.35;stroke-miterlimit:4;stroke-dasharray:none;fill:none;fill-opacity:1;fill-rule: evenodd"/>
<title>b'Shape2DView'</title>
</g>
<g id="Rectangle" transform="translate(2.090000,1.240000) scale(1,-1)">
<rect fill="#ff0000" id="origin" width="1" height="1" x="0" y="0" />
<title>b'Rectangle'</title>
</g>
</svg>