<?xml version="1.0"?>
<!DOCTYPE svg PUBLIC "-//W3C//DTD SVG 1.1//EN" "http://www.w3.org/Graphics/SVG/1.1/DTD/svg11.dtd">
<svg width="12.239999999999998mm" height="4.44mm" viewBox="0 0 12.239999999999998 4.44" xmlns="http://www.w3.org/2000/svg" version="1.1">
<g id="Shape2DView" transform="translate(2.370000,1.403335) scale(1,-1)">
<path id="Shape2DView_nwe0000"  d="M 9.75 -0.7654454878049999 L 9.75 -0.8678845121950001 " stroke="#191919" stroke-width="0.35 px" style="stroke-width:0.35;stroke-miterlimit:4;stroke-dasharray:none;fill:none;fill-opacity:1;fill-rule: evenodd"/>
<path id="Shape2DView_nwe0001"  d="M 9.75 -0.765445487805 A 2.04878 2.04878 0 0 1 7.70122 1.28334" stroke="#191919" stroke-width="0.35 px" style="stroke-width:0.35;stroke-miterlimit:4;stroke-dasharray:none;fill:none;fill-opacity:1;fill-rule: evenodd"/>
<path id="Shape2DView_nwe0002"  d="M 7.701219512194999 1.283335 L 7.602154189596355 1.283335 L 7.309925770736278 1.283335 L 6.839187808776022 1.283335 L 6.213545070758823 1.283335 L 5.464369896025421 1.283335 L 4.629229056120044 1.283335 L 3.7500000000000004 1.283335 L 2.870770943879956 1.283335 L 2.0356301039745794 1.283335 L 1.2864549292411782 1.283335 L 0.6608121912239779 1.283335 L 0.19007422926372275 1.283335 L -0.1021541895963547 1.283335 L -0.20121951219499978 1.283335 " stroke="#191919" stroke-width="0.35 px" style="stroke-width:0.35;stroke-miterlimit:4;stroke-dasharray:none;fill:none;fill-opacity:1;fill-rule: evenodd"/>
<path id="Shape2DView_nwe0003"  d="M -0.20121951219499978 1.283335 L -0.1021541895963547 1.283335 L 0.1900742292637223 1.283335 L 0.6608121912239775 1.283335 L 1.2864549292411773 1.283335 L 2.0356301039745786 1.283335 L 2.870770943879955 1.283335 L 3.749999999999999 1.283335 L 4.629229056120043 1.283335 L 5.46436989602542 1.283335 L 6.213545070758821 1.283335 L 6.839187808776021 1.283335 L 7.309925770736277 1.283335 L 7.602154189596354 1.283335 L 7.701219512194999 1.283335 " stroke="#191919" stroke-width="0.35 px" style="stroke-width:0.35;stroke-miterlimit:4;stroke-dasharray:none;fill:none;fill-opacity:1;fill-rule: evenodd"/>
<path id="Shape2DView_nwe0004"  d="M 9.75 -0.867884512195 A 2.04878 2.04878 0 0 0 7.70122 -2.91667" stroke="#191919" stroke-width="0.35 px" style="stroke-width:0.35;stroke-miterlimit:4;stroke-dasharray:none;fill:none;fill-opacity:1;fill-rule: evenodd"/>
<path id="Shape2DView_nwe0005"  d="M 7.701219512194999 -2.916665 L 7.602154189596355 -2.916665 L 7.309925770736278 -2.916665 L 6.839187808776022 -2.916665 L 6.213545070758823 -2.916665 L 5.464369896025421 -2.916665 L 4.629229056120044 -2.916665 L 3.7500000000000004 -2.916665 L 2.870770943879956 -2.916665 L 2.0356301039745794 -2.916665 L 1.2864549292411782 -2.916665 L 0.6608121912239779 -2.916665 L 0.19007422926372275 -2.916665 L -0.1021541895963547 -2.916665 L -0.20121951219499978 -2.916665 " stroke="#191919" stroke-width="0.35 px" style="stroke-width:0.35;stroke-miterlimit:4;stroke-dasharray:none;fill:none;fill-opacity:1;fill-rule: evenodd"/>
<path id="Shape2DView_nwe0006"  d="M 9.75 -0.765445487805 L 9.599567473090943 -0.765445487805 L 9.155813207414514 -0.765445487805 L 8.440988894808179 -0.765445487805 L 7.490938811152402 -0.765445487805 L 6.353302434705349 -0.765445487805 L 5.085125603737887 -0.765445487805 L 3.7500000000000004 -0.765445487805 L 2.414874396262114 -0.765445487805 L 1.1466975652946516 -0.765445487805 L 0.009061188847598878 -0.765445487805 L -0.9409888948081786 -0.765445487805 L -1.6558132074145142 -0.765445487805 L -2.099567473090942 -0.765445487805 L -2.25 -0.765445487805 " stroke="#191919" stroke-width="0.35 px" style="stroke-width:0.35;stroke-miterlimit:4;stroke-dasharray:none;fill:none;fill-opacity:1;fill-rule: evenodd"/>
<path id="Shape2DView_nwe0007"  d="M 9.75 -0.867884512195 L 9.599567473090943 -0.867884512195 L 9.155813207414514 -0.867884512195 L 8.440988894808179 -0.867884512195 L 7.490938811152402 -0.867884512195 L 6.353302434705349 -0.867884512195 L 5.085125603737887 -0.867884512195 L 3.7500000000000004 -0.867884512195 L 2.414874396262114 -0.867884512195 L 1.1466975652946516 -0.867884512195 L 0.009061188847598878 -0.867884512195 L -0.9409888948081786 -0.867884512195 L -1.6558132074145142 -0.867884512195 L -2.099567473090942 -0.867884512195 L -2.25 -0.867884512195 " stroke="#191919" stroke-width="0.35 px" style="stroke-width:0.35;stroke-miterlimit:4;stroke-dasharray:none;fill:none;fill-opacity:1;fill-rule: evenodd"/>
<path id="Shape2DView_nwe0008"  d="M -2.25 -0.8678845121950001 L -2.25 -0.7654454878049999 " stroke="#191919" stroke-width="0.35 px" style="stroke-width:0.35;stroke-miterlimit:4;stroke-dasharray:none;fill:none;fill-opacity:1;fill-rule: evenodd"/>
<path id="Shape2DView_nwe0009"  d="M -2.25 -0.765445487805 C -2.2782453802386384 0.32918481063763366 -1.2961647216152525 1.311519916274156 -0.20121951219499934 1.2833350000000001 " stroke="#191919" stroke-width="0.35 px" style="stroke-width:0.35;stroke-miterlimit:4;stroke-dasharray:none;fill:none;fill-opacity:1;fill-rule: evenodd"/>
<path id="Shape2DView_nwe0010"  d="M -2.25 -0.8678845121949998 C -2.27824538023866 -1.9625148106375607 -1.2961647216152825 -2.9448499162741673 -0.20121951219499956 -2.916665 " stroke="#191919" stroke-width="0.35 px" style="stroke-width:0.35;stroke-miterlimit:4;stroke-dasharray:none;fill:none;fill-opacity:1;fill-rule: evenodd"/>
<title>b'Shape2DView'</title>
</g>
<g id="Rectangle" transform="translate(2.370000,1.403335) scale(1,-1)">
<rect fill="#ff0000" id="origin" width="1" height="1" x="0" y="0" />
<title>b'Rectangle'</title>
</g>
</svg>