<?xml version="1.0"?>
<!DOCTYPE svg PUBLIC "-//W3C//DTD SVG 1.1//EN" "http://www.w3.org/Graphics/SVG/1.1/DTD/svg11.dtd">
<svg width="12.24mm" height="6.4399999999999995mm" viewBox="0 0 12.24 6.4399999999999995" xmlns="http://www.w3.org/2000/svg" version="1.1">
<g id="Shape2DView" transform="translate(2.370000,1.720000) scale(1,-1)">
<path id="Shape2DView_nwe0000"  d="M 9.75 -1.4243902439020002 L 9.75 -1.5756097560979998 " stroke="#191919" stroke-width="0.35 px" style="stroke-width:0.35;stroke-miterlimit:4;stroke-dasharray:none;fill:none;fill-opacity:1;fill-rule: evenodd"/>
<path id="Shape2DView_nwe0001"  d="M 9.75 -1.424390243902 A 3.02439 3.02439 0 0 1 6.72561 1.6" stroke="#191919" stroke-width="0.35 px" style="stroke-width:0.35;stroke-miterlimit:4;stroke-dasharray:none;fill:none;fill-opacity:1;fill-rule: evenodd"/>
<path id="Shape2DView_nwe0002"  d="M 6.725609756098001 1.6 L 6.651005006980489 1.6 L 6.430931753271009 1.6 L 6.076425386856432 1.6 L 5.6052623372384565 1.6 L 5.041068687130485 1.6 L 4.412135462016448 1.6 L 3.75 1.6 L 3.0878645379835525 1.6 L 2.458931312869515 1.6 L 1.8947376627615435 1.6 L 1.4235746131435678 1.6 L 1.0690682467289916 1.6 L 0.8489949930195113 1.6 L 0.7743902439019998 1.6 " stroke="#191919" stroke-width="0.35 px" style="stroke-width:0.35;stroke-miterlimit:4;stroke-dasharray:none;fill:none;fill-opacity:1;fill-rule: evenodd"/>
<path id="Shape2DView_nwe0003"  d="M 9.75 -1.575609756098 A 3.02439 3.02439 0 0 0 6.72561 -4.6" stroke="#191919" stroke-width="0.35 px" style="stroke-width:0.35;stroke-miterlimit:4;stroke-dasharray:none;fill:none;fill-opacity:1;fill-rule: evenodd"/>
<path id="Shape2DView_nwe0004"  d="M 6.725609756098001 -4.6 L 6.651005006980489 -4.6 L 6.430931753271009 -4.6 L 6.076425386856432 -4.6 L 5.6052623372384565 -4.6 L 5.041068687130485 -4.6 L 4.412135462016448 -4.6 L 3.75 -4.6 L 3.0878645379835525 -4.6 L 2.458931312869515 -4.6 L 1.8947376627615435 -4.6 L 1.4235746131435678 -4.6 L 1.0690682467289916 -4.6 L 0.8489949930195113 -4.6 L 0.7743902439019998 -4.6 " stroke="#191919" stroke-width="0.35 px" style="stroke-width:0.35;stroke-miterlimit:4;stroke-dasharray:none;fill:none;fill-opacity:1;fill-rule: evenodd"/>
<path id="Shape2DView_nwe0005"  d="M 9.75 -1.424390243902 L 9.599567473090943 -1.424390243902 L 9.155813207414514 -1.424390243902 L 8.440988894808179 -1.424390243902 L 7.490938811152402 -1.424390243902 L 6.353302434705349 -1.424390243902 L 5.085125603737887 -1.424390243902 L 3.7500000000000004 -1.424390243902 L 2.414874396262114 -1.424390243902 L 1.1466975652946516 -1.424390243902 L 0.009061188847598878 -1.424390243902 L -0.9409888948081786 -1.424390243902 L -1.6558132074145142 -1.424390243902 L -2.099567473090942 -1.424390243902 L -2.25 -1.424390243902 " stroke="#191919" stroke-width="0.35 px" style="stroke-width:0.35;stroke-miterlimit:4;stroke-dasharray:none;fill:none;fill-opacity:1;fill-rule: evenodd"/>
<path id="Shape2DView_nwe0006"  d="M 9.75 -1.575609756098 L 9.599567473090943 -1.575609756098 L 9.155813207414514 -1.575609756098 L 8.440988894808179 -1.575609756098 L 7.490938811152402 -1.575609756098 L 6.353302434705349 -1.575609756098 L 5.085125603737887 -1.575609756098 L 3.7500000000000004 -1.575609756098 L 2.414874396262114 -1.575609756098 L 1.1466975652946516 -1.575609756098 L 0.009061188847598878 -1.575609756098 L -0.9409888948081786 -1.575609756098 L -1.6558132074145142 -1.575609756098 L -2.099567473090942 -1.575609756098 L -2.25 -1.575609756098 " stroke="#191919" stroke-width="0.35 px" style="stroke-width:0.35;stroke-miterlimit:4;stroke-dasharray:none;fill:none;fill-opacity:1;fill-rule: evenodd"/>
<path id="Shape2DView_nwe0007"  d="M -2.25 -1.5756097560979998 L -2.25 -1.4243902439020002 " stroke="#191919" stroke-width="0.35 px" style="stroke-width:0.35;stroke-miterlimit:4;stroke-dasharray:none;fill:none;fill-opacity:1;fill-rule: evenodd"/>
<path id="Shape2DView_nwe0008"  d="M -2.250000000000001 -1.424390243902 C -2.291662709239787 0.19170826225136142 -0.8417082622516507 1.6416627092397487 0.7743902439019994 1.6 " stroke="#191919" stroke-width="0.35 px" style="stroke-width:0.35;stroke-miterlimit:4;stroke-dasharray:none;fill:none;fill-opacity:1;fill-rule: evenodd"/>
<path id="Shape2DView_nwe0009"  d="M -2.249999999999999 -1.5756097560980002 C -2.2916627092396684 -3.1917082622519377 -0.8417082622512078 -4.641662709239767 0.7743902439020003 -4.6 " stroke="#191919" stroke-width="0.35 px" style="stroke-width:0.35;stroke-miterlimit:4;stroke-dasharray:none;fill:none;fill-opacity:1;fill-rule: evenodd"/>
<title>b'Shape2DView'</title>
</g>
<g id="Rectangle" transform="translate(2.370000,1.720000) scale(1,-1)">
<rect fill="#ff0000" id="origin" width="1" height="1" x="0" y="0" />
<title>b'Rectangle'</title>
</g>
</svg>