<?xml version="1.0"?>
<!DOCTYPE svg PUBLIC "-//W3C//DTD SVG 1.1//EN" "http://www.w3.org/Graphics/SVG/1.1/DTD/svg11.dtd">
<svg width="9.18mm" height="4.18mm" viewBox="0 0 9.18 4.18" xmlns="http://www.w3.org/2000/svg" version="1.1">
<g id="Shape2DView" transform="translate(2.090000,1.140000) scale(1,-1)">
<path id="Shape2DView_nwe0000"  d="M 7.0 -0.901219512195 L 7.0 -0.9987804878049997 " stroke="#191919" stroke-width="0.35 px" style="stroke-width:0.35;stroke-miterlimit:4;stroke-dasharray:none;fill:none;fill-opacity:1;fill-rule: evenodd"/>
<path id="Shape2DView_nwe0001"  d="M 7.0 -0.901219512195 A 1.95122 1.95122 0 0 1 5.04878 1.05" stroke="#191919" stroke-width="0.35 px" style="stroke-width:0.35;stroke-miterlimit:4;stroke-dasharray:none;fill:none;fill-opacity:1;fill-rule: evenodd"/>
<path id="Shape2DView_nwe0002"  d="M 5.048780487805001 1.05 L 4.984877239585499 1.05 L 4.7963718706294465 1.05 L 4.492716827266172 1.05 L 4.089138641322946 1.05 L 3.6058744082387073 1.05 L 3.0671570145959994 1.05 L 2.5 1.05 L 1.932842985404001 1.05 L 1.394125591761293 1.05 L 0.9108613586770544 1.05 L 0.5072831727338285 1.05 L 0.20362812937055352 1.05 L 0.015122760414501002 1.05 L -0.04878048780500022 1.05 " stroke="#191919" stroke-width="0.35 px" style="stroke-width:0.35;stroke-miterlimit:4;stroke-dasharray:none;fill:none;fill-opacity:1;fill-rule: evenodd"/>
<path id="Shape2DView_nwe0003"  d="M 7.0 -0.998780487805 A 1.95122 1.95122 0 0 0 5.04878 -2.95" stroke="#191919" stroke-width="0.35 px" style="stroke-width:0.35;stroke-miterlimit:4;stroke-dasharray:none;fill:none;fill-opacity:1;fill-rule: evenodd"/>
<path id="Shape2DView_nwe0004"  d="M 5.048780487805001 -2.95 L 4.984877239585499 -2.95 L 4.7963718706294465 -2.95 L 4.492716827266172 -2.95 L 4.089138641322946 -2.95 L 3.6058744082387073 -2.95 L 3.0671570145959994 -2.95 L 2.5 -2.95 L 1.932842985404001 -2.95 L 1.394125591761293 -2.95 L 0.9108613586770544 -2.95 L 0.5072831727338285 -2.95 L 0.20362812937055352 -2.95 L 0.015122760414501002 -2.95 L -0.04878048780500022 -2.95 " stroke="#191919" stroke-width="0.35 px" style="stroke-width:0.35;stroke-miterlimit:4;stroke-dasharray:none;fill:none;fill-opacity:1;fill-rule: evenodd"/>
<path id="Shape2DView_nwe0005"  d="M 7.0 -0.901219512195 L 6.887175604818206 -0.901219512195 L 6.5543599055608865 -0.901219512195 L 6.018241671106134 -0.901219512195 L 5.305704108364301 -0.901219512195 L 4.452476826029011 -0.901219512195 L 3.501344202803415 -0.901219512195 L 2.5000000000000004 -0.901219512195 L 1.4986557971965855 -0.901219512195 L 0.5475231739709887 -0.901219512195 L -0.3057041083643006 -0.901219512195 L -1.018241671106134 -0.901219512195 L -1.5543599055608857 -0.901219512195 L -1.8871756048182062 -0.901219512195 L -2.0 -0.901219512195 " stroke="#191919" stroke-width="0.35 px" style="stroke-width:0.35;stroke-miterlimit:4;stroke-dasharray:none;fill:none;fill-opacity:1;fill-rule: evenodd"/>
<path id="Shape2DView_nwe0006"  d="M 7.0 -0.998780487805 L 6.887175604818206 -0.998780487805 L 6.5543599055608865 -0.998780487805 L 6.018241671106134 -0.998780487805 L 5.305704108364301 -0.998780487805 L 4.452476826029011 -0.998780487805 L 3.501344202803415 -0.998780487805 L 2.5000000000000004 -0.998780487805 L 1.4986557971965855 -0.998780487805 L 0.5475231739709887 -0.998780487805 L -0.3057041083643006 -0.998780487805 L -1.018241671106134 -0.998780487805 L -1.5543599055608857 -0.998780487805 L -1.8871756048182062 -0.998780487805 L -2.0 -0.998780487805 " stroke="#191919" stroke-width="0.35 px" style="stroke-width:0.35;stroke-miterlimit:4;stroke-dasharray:none;fill:none;fill-opacity:1;fill-rule: evenodd"/>
<path id="Shape2DView_nwe0007"  d="M -2.0 -0.9987804878049997 L -2.0 -0.901219512195 " stroke="#191919" stroke-width="0.35 px" style="stroke-width:0.35;stroke-miterlimit:4;stroke-dasharray:none;fill:none;fill-opacity:1;fill-rule: evenodd"/>
<path id="Shape2DView_nwe0008"  d="M -2.0 -0.901219512195 C -2.0269027743963224 0.14127762780452272 -1.0915912293487409 1.0768420959347476 -0.04878048780500044 1.05 " stroke="#191919" stroke-width="0.35 px" style="stroke-width:0.35;stroke-miterlimit:4;stroke-dasharray:none;fill:none;fill-opacity:1;fill-rule: evenodd"/>
<path id="Shape2DView_nwe0009"  d="M -2.0 -0.998780487805 C -2.0269027743962824 -2.0412776278046616 -1.0915912293486736 -2.9768420959347344 -0.04878048780500022 -2.95 " stroke="#191919" stroke-width="0.35 px" style="stroke-width:0.35;stroke-miterlimit:4;stroke-dasharray:none;fill:none;fill-opacity:1;fill-rule: evenodd"/>
<title>b'Shape2DView'</title>
</g>
<g id="Rectangle" transform="translate(2.090000,1.140000) scale(1,-1)">
<rect fill="#ff0000" id="origin" width="1" height="1" x="0" y="0" />
<title>b'Rectangle'</title>
</g>
</svg>