<?xml version="1.0"?>
<!DOCTYPE svg PUBLIC "-//W3C//DTD SVG 1.1//EN" "http://www.w3.org/Graphics/SVG/1.1/DTD/svg11.dtd">
<svg width="21.93mm" height="8.830000000000002mm" viewBox="0 0 21.93 8.830000000000002" xmlns="http://www.w3.org/2000/svg" version="1.1">
<g id="Shape2DView" transform="translate(5.965000,2.165000) scale(1,-1)">
<path id="Shape2DView_nwe0000"  d="M 15.75 -2.1475609756099994 L 15.75 -2.3524390243899997 " stroke="#191919" stroke-width="0.35 px" style="stroke-width:0.35;stroke-miterlimit:4;stroke-dasharray:none;fill:none;fill-opacity:1;fill-rule: evenodd"/>
<path id="Shape2DView_nwe0001"  d="M 15.75 -2.14756097561 A 4.09756 4.09756 0 0 1 11.6524 1.95" stroke="#191919" stroke-width="0.35 px" style="stroke-width:0.35;stroke-miterlimit:4;stroke-dasharray:none;fill:none;fill-opacity:1;fill-rule: evenodd"/>
<path id="Shape2DView_nwe0002"  d="M 11.652439024389999 1.95 L 11.485648488965431 1.95 L 10.993640456594532 1.95 L 10.201086264467008 1.95 L 9.147727889194229 1.95 L 7.886385118153894 1.95 L 6.480306944794696 1.95 L 5.0 1.95 L 3.5196930552053045 1.95 L 2.113614881846107 1.95 L 0.8522721108057727 1.95 L -0.2010862644670075 1.95 L -0.9936404565945312 1.95 L -1.4856484889654302 1.95 L -1.6524390243899996 1.95 " stroke="#191919" stroke-width="0.35 px" style="stroke-width:0.35;stroke-miterlimit:4;stroke-dasharray:none;fill:none;fill-opacity:1;fill-rule: evenodd"/>
<path id="Shape2DView_nwe0003"  d="M 15.75 -2.35243902439 A 4.09756 4.09756 0 0 0 11.6524 -6.45" stroke="#191919" stroke-width="0.35 px" style="stroke-width:0.35;stroke-miterlimit:4;stroke-dasharray:none;fill:none;fill-opacity:1;fill-rule: evenodd"/>
<path id="Shape2DView_nwe0004"  d="M 11.652439024389999 -6.45 L 11.485648488965431 -6.45 L 10.993640456594532 -6.45 L 10.201086264467008 -6.45 L 9.147727889194229 -6.45 L 7.886385118153894 -6.45 L 6.480306944794696 -6.45 L 5.0 -6.45 L 3.5196930552053045 -6.45 L 2.113614881846107 -6.45 L 0.8522721108057727 -6.45 L -0.2010862644670075 -6.45 L -0.9936404565945312 -6.45 L -1.4856484889654302 -6.45 L -1.6524390243899996 -6.45 " stroke="#191919" stroke-width="0.35 px" style="stroke-width:0.35;stroke-miterlimit:4;stroke-dasharray:none;fill:none;fill-opacity:1;fill-rule: evenodd"/>
<path id="Shape2DView_nwe0005"  d="M 15.75 -2.14756097561 L 15.480475055954605 -2.14756097561 L 14.685415329951006 -2.14756097561 L 13.40468843653132 -2.14756097561 L 11.702515369981386 -2.14756097561 L 9.66425019551375 -2.14756097561 L 7.39210004003038 -2.14756097561 L 5.000000000000001 -2.14756097561 L 2.607899959969621 -2.14756097561 L 0.3357498044862508 -2.14756097561 L -1.702515369981385 -2.14756097561 L -3.4046884365313197 -2.14756097561 L -4.685415329951004 -2.14756097561 L -5.480475055954605 -2.14756097561 L -5.75 -2.14756097561 " stroke="#191919" stroke-width="0.35 px" style="stroke-width:0.35;stroke-miterlimit:4;stroke-dasharray:none;fill:none;fill-opacity:1;fill-rule: evenodd"/>
<path id="Shape2DView_nwe0006"  d="M 15.75 -2.35243902439 L 15.480475055954605 -2.35243902439 L 14.685415329951006 -2.35243902439 L 13.40468843653132 -2.35243902439 L 11.702515369981386 -2.35243902439 L 9.66425019551375 -2.35243902439 L 7.39210004003038 -2.35243902439 L 5.000000000000001 -2.35243902439 L 2.607899959969621 -2.35243902439 L 0.3357498044862508 -2.35243902439 L -1.702515369981385 -2.35243902439 L -3.4046884365313197 -2.35243902439 L -4.685415329951004 -2.35243902439 L -5.480475055954605 -2.35243902439 L -5.75 -2.35243902439 " stroke="#191919" stroke-width="0.35 px" style="stroke-width:0.35;stroke-miterlimit:4;stroke-dasharray:none;fill:none;fill-opacity:1;fill-rule: evenodd"/>
<path id="Shape2DView_nwe0007"  d="M -5.75 -2.3524390243899997 L -5.75 -2.1475609756099994 " stroke="#191919" stroke-width="0.35 px" style="stroke-width:0.35;stroke-miterlimit:4;stroke-dasharray:none;fill:none;fill-opacity:1;fill-rule: evenodd"/>
<path id="Shape2DView_nwe0008"  d="M -5.75 -2.14756097561 C -5.806467614199923 0.04178381057902599 -3.842258173866471 2.0063816878632124 -1.6524390243899982 1.9500000000000006 " stroke="#191919" stroke-width="0.35 px" style="stroke-width:0.35;stroke-miterlimit:4;stroke-dasharray:none;fill:none;fill-opacity:1;fill-rule: evenodd"/>
<path id="Shape2DView_nwe0009"  d="M -5.75 -2.3524390243899997 C -5.806513897508431 -4.54162573395786 -3.8423816106705697 -6.5063650288014765 -1.6524390243899987 -6.450000000000001 " stroke="#191919" stroke-width="0.35 px" style="stroke-width:0.35;stroke-miterlimit:4;stroke-dasharray:none;fill:none;fill-opacity:1;fill-rule: evenodd"/>
<title>b'Shape2DView'</title>
</g>
<g id="Rectangle" transform="translate(5.965000,2.165000) scale(1,-1)">
<rect fill="#ff0000" id="origin" width="1" height="1" x="0" y="0" />
<title>b'Rectangle'</title>
</g>
</svg>