<?xml version="1.0"?>
<!DOCTYPE svg PUBLIC "-//W3C//DTD SVG 1.1//EN" "http://www.w3.org/Graphics/SVG/1.1/DTD/svg11.dtd">
<svg width="15.809999999999999mm" height="5.3100000000000005mm" viewBox="0 0 15.809999999999999 5.3100000000000005" xmlns="http://www.w3.org/2000/svg" version="1.1">
<g id="Shape2DView" transform="translate(4.155000,1.555000) scale(1,-1)">
<path id="Shape2DView_nwe0000"  d="M 11.5 -1.0390243902439997 L 11.5 -1.160975609756 " stroke="#191919" stroke-width="0.35 px" style="stroke-width:0.35;stroke-miterlimit:4;stroke-dasharray:none;fill:none;fill-opacity:1;fill-rule: evenodd"/>
<path id="Shape2DView_nwe0001"  d="M 11.5 -1.039024390244 A 2.43902 2.43902 0 0 1 9.06098 1.4" stroke="#191919" stroke-width="0.35 px" style="stroke-width:0.35;stroke-miterlimit:4;stroke-dasharray:none;fill:none;fill-opacity:1;fill-rule: evenodd"/>
<path id="Shape2DView_nwe0002"  d="M 9.060975609756 1.4 L 8.927818362868006 1.4 L 8.535023682579224 1.4 L 7.902287934327083 1.4 L 7.0613391306033355 1.4 L 6.054345955923087 1.4 L 4.931803252902112 1.4 L 3.7500000000000004 1.4 L 2.568196747097889 1.4 L 1.445654044076914 1.4 L 0.43866086939666493 1.4 L -0.40228793432708265 1.4 L -1.0350236825792232 1.4 L -1.4278183628680052 1.4 L -1.5609756097560004 1.4 " stroke="#191919" stroke-width="0.35 px" style="stroke-width:0.35;stroke-miterlimit:4;stroke-dasharray:none;fill:none;fill-opacity:1;fill-rule: evenodd"/>
<path id="Shape2DView_nwe0003"  d="M -1.5609756097560004 1.4 L -1.4278183628680052 1.4 L -1.035023682579224 1.4 L -0.40228793432708265 1.4 L 0.43866086939666404 1.4 L 1.4456540440769126 1.4 L 2.5681967470978875 1.4 L 3.749999999999999 1.4 L 4.93180325290211 1.4 L 6.054345955923086 1.4 L 7.061339130603335 1.4 L 7.902287934327082 1.4 L 8.535023682579222 1.4 L 8.927818362868004 1.4 L 9.060975609756 1.4 " stroke="#191919" stroke-width="0.35 px" style="stroke-width:0.35;stroke-miterlimit:4;stroke-dasharray:none;fill:none;fill-opacity:1;fill-rule: evenodd"/>
<path id="Shape2DView_nwe0004"  d="M 11.5 -1.160975609756 A 2.43902 2.43902 0 0 0 9.06098 -3.6" stroke="#191919" stroke-width="0.35 px" style="stroke-width:0.35;stroke-miterlimit:4;stroke-dasharray:none;fill:none;fill-opacity:1;fill-rule: evenodd"/>
<path id="Shape2DView_nwe0005"  d="M 9.060975609756 -3.6 L 8.927818362868006 -3.6 L 8.535023682579224 -3.6 L 7.902287934327083 -3.6 L 7.0613391306033355 -3.6 L 6.054345955923087 -3.6 L 4.931803252902112 -3.6 L 3.7500000000000004 -3.6 L 2.568196747097889 -3.6 L 1.445654044076914 -3.6 L 0.43866086939666493 -3.6 L -0.40228793432708265 -3.6 L -1.0350236825792232 -3.6 L -1.4278183628680052 -3.6 L -1.5609756097560004 -3.6 " stroke="#191919" stroke-width="0.35 px" style="stroke-width:0.35;stroke-miterlimit:4;stroke-dasharray:none;fill:none;fill-opacity:1;fill-rule: evenodd"/>
<path id="Shape2DView_nwe0006"  d="M 11.5 -1.039024390244 L 11.305691319409133 -1.039024390244 L 10.732508726243747 -1.039024390244 L 9.80919398912723 -1.039024390244 L 8.582045964405186 -1.039024390244 L 7.112598978161076 -1.039024390244 L 5.474537238161437 -1.039024390244 L 3.7500000000000004 -1.039024390244 L 2.025462761838564 -1.039024390244 L 0.387401021838925 -1.039024390244 L -1.082045964405184 -1.039024390244 L -2.3091939891272313 -1.039024390244 L -3.232508726243747 -1.039024390244 L -3.8056913194091333 -1.039024390244 L -4.0 -1.039024390244 " stroke="#191919" stroke-width="0.35 px" style="stroke-width:0.35;stroke-miterlimit:4;stroke-dasharray:none;fill:none;fill-opacity:1;fill-rule: evenodd"/>
<path id="Shape2DView_nwe0007"  d="M 11.5 -1.160975609756 L 11.305691319409133 -1.160975609756 L 10.732508726243747 -1.160975609756 L 9.80919398912723 -1.160975609756 L 8.582045964405186 -1.160975609756 L 7.112598978161076 -1.160975609756 L 5.474537238161437 -1.160975609756 L 3.7500000000000004 -1.160975609756 L 2.025462761838564 -1.160975609756 L 0.387401021838925 -1.160975609756 L -1.082045964405184 -1.160975609756 L -2.3091939891272313 -1.160975609756 L -3.232508726243747 -1.160975609756 L -3.8056913194091333 -1.160975609756 L -4.0 -1.160975609756 " stroke="#191919" stroke-width="0.35 px" style="stroke-width:0.35;stroke-miterlimit:4;stroke-dasharray:none;fill:none;fill-opacity:1;fill-rule: evenodd"/>
<path id="Shape2DView_nwe0008"  d="M -4.0 -1.160975609756 L -4.0 -1.0390243902439997 " stroke="#191919" stroke-width="0.35 px" style="stroke-width:0.35;stroke-miterlimit:4;stroke-dasharray:none;fill:none;fill-opacity:1;fill-rule: evenodd"/>
<path id="Shape2DView_nwe0009"  d="M -4.0 -1.039024390244 C -4.033617677180109 0.2641338980424811 -2.86446040103342 1.4335566200995469 -1.5609756097559992 1.4000000000000001 " stroke="#191919" stroke-width="0.35 px" style="stroke-width:0.35;stroke-miterlimit:4;stroke-dasharray:none;fill:none;fill-opacity:1;fill-rule: evenodd"/>
<path id="Shape2DView_nwe0010"  d="M -4.0 -1.160975609756 C -4.033617677180036 -2.464133898042726 -2.864460401033333 -3.6335566200994944 -1.5609756097559995 -3.6 " stroke="#191919" stroke-width="0.35 px" style="stroke-width:0.35;stroke-miterlimit:4;stroke-dasharray:none;fill:none;fill-opacity:1;fill-rule: evenodd"/>
<title>b'Shape2DView'</title>
</g>
<g id="Rectangle" transform="translate(4.155000,1.555000) scale(1,-1)">
<rect fill="#ff0000" id="origin" width="1" height="1" x="0" y="0" />
<title>b'Rectangle'</title>
</g>
</svg>