<?xml version="1.0"?>
<!DOCTYPE svg PUBLIC "-//W3C//DTD SVG 1.1//EN" "http://www.w3.org/Graphics/SVG/1.1/DTD/svg11.dtd">
<svg width="7.140000000000001mm" height="3.54mm" viewBox="0 0 7.140000000000001 3.54" xmlns="http://www.w3.org/2000/svg" version="1.1">
<g id="Shape2DView" transform="translate(1.070000,1.120000) scale(1,-1)">
<path id="Shape2DView_nwe0000"  d="M 6.0 -0.6085365853659999 L 6.0 -0.691463414634 " stroke="#191919" stroke-width="0.35 px" style="stroke-width:0.35;stroke-miterlimit:4;stroke-dasharray:none;fill:none;fill-opacity:1;fill-rule: evenodd"/>
<path id="Shape2DView_nwe0001"  d="M 6.0 -0.608536585366 A 1.65854 1.65854 0 0 1 4.34146 1.05" stroke="#191919" stroke-width="0.35 px" style="stroke-width:0.35;stroke-miterlimit:4;stroke-dasharray:none;fill:none;fill-opacity:1;fill-rule: evenodd"/>
<path id="Shape2DView_nwe0002"  d="M 4.341463414634 1.05 L 4.295294082188337 1.05 L 4.159101207966518 1.05 L 3.9397140713739405 1.05 L 3.64813365952026 1.05 L 3.2989810317895865 1.05 L 2.9097641588707415 1.05 L 2.5 1.05 L 2.0902358411292585 1.05 L 1.701018968210414 1.05 L 1.3518663404797404 1.05 L 1.0602859286260595 1.05 L 0.8408987920334821 1.05 L 0.7047059178116626 1.05 L 0.6585365853659999 1.05 " stroke="#191919" stroke-width="0.35 px" style="stroke-width:0.35;stroke-miterlimit:4;stroke-dasharray:none;fill:none;fill-opacity:1;fill-rule: evenodd"/>
<path id="Shape2DView_nwe0003"  d="M 6.0 -0.691463414634 A 1.65854 1.65854 0 0 0 4.34146 -2.35" stroke="#191919" stroke-width="0.35 px" style="stroke-width:0.35;stroke-miterlimit:4;stroke-dasharray:none;fill:none;fill-opacity:1;fill-rule: evenodd"/>
<path id="Shape2DView_nwe0004"  d="M 4.341463414634 -2.35 L 4.295294082188337 -2.35 L 4.159101207966518 -2.35 L 3.9397140713739405 -2.35 L 3.64813365952026 -2.35 L 3.2989810317895865 -2.35 L 2.9097641588707415 -2.35 L 2.5 -2.35 L 2.0902358411292585 -2.35 L 1.701018968210414 -2.35 L 1.3518663404797404 -2.35 L 1.0602859286260595 -2.35 L 0.8408987920334821 -2.35 L 0.7047059178116626 -2.35 L 0.6585365853659999 -2.35 " stroke="#191919" stroke-width="0.35 px" style="stroke-width:0.35;stroke-miterlimit:4;stroke-dasharray:none;fill:none;fill-opacity:1;fill-rule: evenodd"/>
<path id="Shape2DView_nwe0005"  d="M 0.6585365853659999 -2.35 L 0.7047059178116626 -2.35 L 0.8408987920334818 -2.35 L 1.0602859286260593 -2.35 L 1.3518663404797402 -2.35 L 1.7010189682104135 -2.35 L 2.090235841129258 -2.35 L 2.4999999999999996 -2.35 L 2.909764158870741 -2.35 L 3.298981031789586 -2.35 L 3.6481336595202594 -2.35 L 3.93971407137394 -2.35 L 4.159101207966518 -2.35 L 4.295294082188337 -2.35 L 4.341463414634 -2.35 " stroke="#191919" stroke-width="0.35 px" style="stroke-width:0.35;stroke-miterlimit:4;stroke-dasharray:none;fill:none;fill-opacity:1;fill-rule: evenodd"/>
<path id="Shape2DView_nwe0006"  d="M 6.0 -0.608536585366 L 5.912247692636383 -0.608536585366 L 5.6533910376584675 -0.608536585366 L 5.2364101886381045 -0.608536585366 L 4.682214306505568 -0.608536585366 L 4.018593086911453 -0.608536585366 L 3.2788232688471006 -0.608536585366 L 2.5 -0.608536585366 L 1.7211767311528998 -0.608536585366 L 0.9814069130885468 -0.608536585366 L 0.31778569349443275 -0.608536585366 L -0.23641018863810448 -0.608536585366 L -0.6533910376584666 -0.608536585366 L -0.9122476926363827 -0.608536585366 L -1.0 -0.608536585366 " stroke="#191919" stroke-width="0.35 px" style="stroke-width:0.35;stroke-miterlimit:4;stroke-dasharray:none;fill:none;fill-opacity:1;fill-rule: evenodd"/>
<path id="Shape2DView_nwe0007"  d="M 6.0 -0.691463414634 L 5.912247692636383 -0.691463414634 L 5.6533910376584675 -0.691463414634 L 5.2364101886381045 -0.691463414634 L 4.682214306505568 -0.691463414634 L 4.018593086911453 -0.691463414634 L 3.2788232688471006 -0.691463414634 L 2.5 -0.691463414634 L 1.7211767311528998 -0.691463414634 L 0.9814069130885468 -0.691463414634 L 0.31778569349443275 -0.691463414634 L -0.23641018863810448 -0.691463414634 L -0.6533910376584666 -0.691463414634 L -0.9122476926363827 -0.691463414634 L -1.0 -0.691463414634 " stroke="#191919" stroke-width="0.35 px" style="stroke-width:0.35;stroke-miterlimit:4;stroke-dasharray:none;fill:none;fill-opacity:1;fill-rule: evenodd"/>
<path id="Shape2DView_nwe0008"  d="M -1.0 -0.691463414634 L -1.0 -0.6085365853659999 " stroke="#191919" stroke-width="0.35 px" style="stroke-width:0.35;stroke-miterlimit:4;stroke-dasharray:none;fill:none;fill-opacity:1;fill-rule: evenodd"/>
<path id="Shape2DView_nwe0009"  d="M -1.0 -0.608536585366 C -1.0228721767931057 0.27757100727275014 -0.2278627288781818 1.0728154307257247 0.6585365853659998 1.0499999999999998 " stroke="#191919" stroke-width="0.35 px" style="stroke-width:0.35;stroke-miterlimit:4;stroke-dasharray:none;fill:none;fill-opacity:1;fill-rule: evenodd"/>
<path id="Shape2DView_nwe0010"  d="M -1.0 -0.691463414634 C -1.0228721577732556 -1.5775710332021302 -0.2278626548929228 -2.3728153963519176 0.6585365853659999 -2.3499999999999996 " stroke="#191919" stroke-width="0.35 px" style="stroke-width:0.35;stroke-miterlimit:4;stroke-dasharray:none;fill:none;fill-opacity:1;fill-rule: evenodd"/>
<title>b'Shape2DView'</title>
</g>
<g id="Rectangle" transform="translate(1.070000,1.120000) scale(1,-1)">
<rect fill="#ff0000" id="origin" width="1" height="1" x="0" y="0" />
<title>b'Rectangle'</title>
</g>
</svg>