<?xml version="1.0"?>
<!DOCTYPE svg PUBLIC "-//W3C//DTD SVG 1.1//EN" "http://www.w3.org/Graphics/SVG/1.1/DTD/svg11.dtd">
<svg width="12.239999999999998mm" height="4.94mm" viewBox="0 0 12.239999999999998 4.94" xmlns="http://www.w3.org/2000/svg" version="1.1">
<g id="Shape2DView" transform="translate(2.370000,1.470000) scale(1,-1)">
<path id="Shape2DView_nwe0000"  d="M 9.75 -0.9426829268290002 L 9.75 -1.0573170731709998 " stroke="#191919" stroke-width="0.35 px" style="stroke-width:0.35;stroke-miterlimit:4;stroke-dasharray:none;fill:none;fill-opacity:1;fill-rule: evenodd"/>
<path id="Shape2DView_nwe0001"  d="M 9.75 -0.942682926829 A 2.29268 2.29268 0 0 1 7.45732 1.35" stroke="#191919" stroke-width="0.35 px" style="stroke-width:0.35;stroke-miterlimit:4;stroke-dasharray:none;fill:none;fill-opacity:1;fill-rule: evenodd"/>
<path id="Shape2DView_nwe0002"  d="M 7.457317073171 1.35 L 7.364366893942632 1.35 L 7.090177266370186 1.35 L 6.648497203296321 1.35 L 6.061474387378887 1.35 L 5.3585445938017955 1.35 L 4.574955657594201 1.35 L 3.7500000000000004 1.35 L 2.9250443424057995 1.35 L 2.141455406198205 1.35 L 1.4385256126211132 1.35 L 0.8515027967036795 1.35 L 0.40982273362981436 1.35 L 0.13563310605736767 1.35 L 0.04268292682899988 1.35 " stroke="#191919" stroke-width="0.35 px" style="stroke-width:0.35;stroke-miterlimit:4;stroke-dasharray:none;fill:none;fill-opacity:1;fill-rule: evenodd"/>
<path id="Shape2DView_nwe0003"  d="M 9.75 -1.057317073171 A 2.29268 2.29268 0 0 0 7.45732 -3.35" stroke="#191919" stroke-width="0.35 px" style="stroke-width:0.35;stroke-miterlimit:4;stroke-dasharray:none;fill:none;fill-opacity:1;fill-rule: evenodd"/>
<path id="Shape2DView_nwe0004"  d="M 7.457317073171 -3.35 L 7.364366893942632 -3.35 L 7.090177266370186 -3.35 L 6.648497203296321 -3.35 L 6.061474387378887 -3.35 L 5.3585445938017955 -3.35 L 4.574955657594201 -3.35 L 3.7500000000000004 -3.35 L 2.9250443424057995 -3.35 L 2.141455406198205 -3.35 L 1.4385256126211132 -3.35 L 0.8515027967036795 -3.35 L 0.40982273362981436 -3.35 L 0.13563310605736767 -3.35 L 0.04268292682899988 -3.35 " stroke="#191919" stroke-width="0.35 px" style="stroke-width:0.35;stroke-miterlimit:4;stroke-dasharray:none;fill:none;fill-opacity:1;fill-rule: evenodd"/>
<path id="Shape2DView_nwe0005"  d="M 7.86 -2.0 A 0.36 0.36 0 0 1 7.73643 -1.72852" stroke="#191919" stroke-width="0.35 px" style="stroke-width:0.35;stroke-miterlimit:4;stroke-dasharray:none;fill:none;fill-opacity:1;fill-rule: evenodd"/>
<path id="Shape2DView_nwe0006"  d="M 9.75 -0.942682926829 L 9.599567473090943 -0.942682926829 L 9.155813207414514 -0.942682926829 L 8.440988894808179 -0.942682926829 L 7.490938811152402 -0.942682926829 L 6.353302434705349 -0.942682926829 L 5.085125603737887 -0.942682926829 L 3.7500000000000004 -0.942682926829 L 2.414874396262114 -0.942682926829 L 1.1466975652946516 -0.942682926829 L 0.009061188847598878 -0.942682926829 L -0.9409888948081786 -0.942682926829 L -1.6558132074145142 -0.942682926829 L -2.099567473090942 -0.942682926829 L -2.25 -0.942682926829 " stroke="#191919" stroke-width="0.35 px" style="stroke-width:0.35;stroke-miterlimit:4;stroke-dasharray:none;fill:none;fill-opacity:1;fill-rule: evenodd"/>
<path id="Shape2DView_nwe0007"  d="M 9.75 -1.057317073171 L 9.599567473090943 -1.057317073171 L 9.155813207414514 -1.057317073171 L 8.440988894808179 -1.057317073171 L 7.490938811152402 -1.057317073171 L 6.353302434705349 -1.057317073171 L 5.085125603737887 -1.057317073171 L 3.7500000000000004 -1.057317073171 L 2.414874396262114 -1.057317073171 L 1.1466975652946516 -1.057317073171 L 0.009061188847598878 -1.057317073171 L -0.9409888948081786 -1.057317073171 L -1.6558132074145142 -1.057317073171 L -2.099567473090942 -1.057317073171 L -2.25 -1.057317073171 " stroke="#191919" stroke-width="0.35 px" style="stroke-width:0.35;stroke-miterlimit:4;stroke-dasharray:none;fill:none;fill-opacity:1;fill-rule: evenodd"/>
<path id="Shape2DView_nwe0009"  d="M -2.25 -1.0573170731709998 L -2.25 -0.9426829268290002 " stroke="#191919" stroke-width="0.35 px" style="stroke-width:0.35;stroke-miterlimit:4;stroke-dasharray:none;fill:none;fill-opacity:1;fill-rule: evenodd"/>
<path id="Shape2DView_nwe0010"  d="M -2.25 -0.942682926829 C -2.2816028607184347 0.282277815524398 -1.1825994523767196 1.3815421452413938 0.042682926829000545 1.3499999999999999 " stroke="#191919" stroke-width="0.35 px" style="stroke-width:0.35;stroke-miterlimit:4;stroke-dasharray:none;fill:none;fill-opacity:1;fill-rule: evenodd"/>
<path id="Shape2DView_nwe0011"  d="M -2.25 -1.0573170731710002 C -2.2815835886044953 -2.282391374316136 -1.18246752538709 -3.3815739270573624 0.04268292682900032 -3.3499999999999996 " stroke="#191919" stroke-width="0.35 px" style="stroke-width:0.35;stroke-miterlimit:4;stroke-dasharray:none;fill:none;fill-opacity:1;fill-rule: evenodd"/>
<title>b'Shape2DView'</title>
</g>
<g id="Rectangle" transform="translate(2.370000,1.470000) scale(1,-1)">
<rect fill="#ff0000" id="origin" width="1" height="1" x="0" y="0" />
<title>b'Rectangle'</title>
</g>
</svg>