<?xml version="1.0"?>
<!DOCTYPE svg PUBLIC "-//W3C//DTD SVG 1.1//EN" "http://www.w3.org/Graphics/SVG/1.1/DTD/svg11.dtd">
<svg width="21.93mm" height="7.529999999999999mm" viewBox="0 0 21.93 7.529999999999999" xmlns="http://www.w3.org/2000/svg" version="1.1">
<g id="Shape2DView" transform="translate(5.965000,2.015000) scale(1,-1)">
<path id="Shape2DView_nwe0000"  d="M 15.75 -1.6634146341459999 L 15.75 -1.8365853658539997 " stroke="#191919" stroke-width="0.35 px" style="stroke-width:0.35;stroke-miterlimit:4;stroke-dasharray:none;fill:none;fill-opacity:1;fill-rule: evenodd"/>
<path id="Shape2DView_nwe0001"  d="M 15.75 -1.663414634146 A 3.46341 3.46341 0 0 1 12.2866 1.8" stroke="#191919" stroke-width="0.35 px" style="stroke-width:0.35;stroke-miterlimit:4;stroke-dasharray:none;fill:none;fill-opacity:1;fill-rule: evenodd"/>
<path id="Shape2DView_nwe0002"  d="M 12.286585365854 1.8 L 12.10389545766667 1.8 L 11.564986567947813 1.8 L 10.696881838715484 1.8 L 9.543111665983059 1.8 L 8.161530903936015 1.8 L 6.621417780962245 1.8 L 5.000000000000001 1.8 L 3.3785822190377557 1.8 L 1.8384690960639865 1.8 L 0.4568883340169423 1.8 L -0.696881838715484 1.8 L -1.5649865679478125 1.8 L -2.1038954576666695 1.8 L -2.286585365854 1.8 " stroke="#191919" stroke-width="0.35 px" style="stroke-width:0.35;stroke-miterlimit:4;stroke-dasharray:none;fill:none;fill-opacity:1;fill-rule: evenodd"/>
<path id="Shape2DView_nwe0003"  d="M 15.75 -1.836585365854 A 3.46341 3.46341 0 0 0 12.2866 -5.3" stroke="#191919" stroke-width="0.35 px" style="stroke-width:0.35;stroke-miterlimit:4;stroke-dasharray:none;fill:none;fill-opacity:1;fill-rule: evenodd"/>
<path id="Shape2DView_nwe0004"  d="M 12.286585365854 -5.3 L 12.10389545766667 -5.3 L 11.564986567947813 -5.3 L 10.696881838715484 -5.3 L 9.543111665983059 -5.3 L 8.161530903936015 -5.3 L 6.621417780962245 -5.3 L 5.000000000000001 -5.3 L 3.3785822190377557 -5.3 L 1.8384690960639865 -5.3 L 0.4568883340169423 -5.3 L -0.696881838715484 -5.3 L -1.5649865679478125 -5.3 L -2.1038954576666695 -5.3 L -2.286585365854 -5.3 " stroke="#191919" stroke-width="0.35 px" style="stroke-width:0.35;stroke-miterlimit:4;stroke-dasharray:none;fill:none;fill-opacity:1;fill-rule: evenodd"/>
<path id="Shape2DView_nwe0005"  d="M 15.75 -1.663414634146 L 15.480475055954605 -1.663414634146 L 14.685415329951006 -1.663414634146 L 13.40468843653132 -1.663414634146 L 11.702515369981386 -1.663414634146 L 9.66425019551375 -1.663414634146 L 7.39210004003038 -1.663414634146 L 5.000000000000001 -1.663414634146 L 2.607899959969621 -1.663414634146 L 0.3357498044862508 -1.663414634146 L -1.702515369981385 -1.663414634146 L -3.4046884365313197 -1.663414634146 L -4.685415329951004 -1.663414634146 L -5.480475055954605 -1.663414634146 L -5.75 -1.663414634146 " stroke="#191919" stroke-width="0.35 px" style="stroke-width:0.35;stroke-miterlimit:4;stroke-dasharray:none;fill:none;fill-opacity:1;fill-rule: evenodd"/>
<path id="Shape2DView_nwe0006"  d="M 15.75 -1.836585365854 L 15.480475055954605 -1.836585365854 L 14.685415329951006 -1.836585365854 L 13.40468843653132 -1.836585365854 L 11.702515369981386 -1.836585365854 L 9.66425019551375 -1.836585365854 L 7.39210004003038 -1.836585365854 L 5.000000000000001 -1.836585365854 L 2.607899959969621 -1.836585365854 L 0.3357498044862508 -1.836585365854 L -1.702515369981385 -1.836585365854 L -3.4046884365313197 -1.836585365854 L -4.685415329951004 -1.836585365854 L -5.480475055954605 -1.836585365854 L -5.75 -1.836585365854 " stroke="#191919" stroke-width="0.35 px" style="stroke-width:0.35;stroke-miterlimit:4;stroke-dasharray:none;fill:none;fill-opacity:1;fill-rule: evenodd"/>
<path id="Shape2DView_nwe0007"  d="M -5.75 -1.8365853658539997 L -5.75 -1.6634146341459999 " stroke="#191919" stroke-width="0.35 px" style="stroke-width:0.35;stroke-miterlimit:4;stroke-dasharray:none;fill:none;fill-opacity:1;fill-rule: evenodd"/>
<path id="Shape2DView_nwe0008"  d="M -5.75 -1.663414634146 C -5.797731159667725 0.1870925598124064 -4.137513879751065 1.8476539539085253 -2.2865853658540005 1.7999999999999998 " stroke="#191919" stroke-width="0.35 px" style="stroke-width:0.35;stroke-miterlimit:4;stroke-dasharray:none;fill:none;fill-opacity:1;fill-rule: evenodd"/>
<path id="Shape2DView_nwe0009"  d="M -5.75 -1.836585365854 C -5.797737131833148 -3.6870698351313904 -4.137534141814225 -5.347650200050002 -2.286585365854 -5.3 " stroke="#191919" stroke-width="0.35 px" style="stroke-width:0.35;stroke-miterlimit:4;stroke-dasharray:none;fill:none;fill-opacity:1;fill-rule: evenodd"/>
<title>b'Shape2DView'</title>
</g>
<g id="Rectangle" transform="translate(5.965000,2.015000) scale(1,-1)">
<rect fill="#ff0000" id="origin" width="1" height="1" x="0" y="0" />
<title>b'Rectangle'</title>
</g>
</svg>