<?xml version="1.0"?>
<!DOCTYPE svg PUBLIC "-//W3C//DTD SVG 1.1//EN" "http://www.w3.org/Graphics/SVG/1.1/DTD/svg11.dtd">
<svg width="21.93mm" height="7.93mm" viewBox="0 0 21.93 7.93" xmlns="http://www.w3.org/2000/svg" version="1.1">
<g id="Shape2DView" transform="translate(5.965000,2.015000) scale(1,-1)">
<path id="Shape2DView_nwe0000"  d="M 15.75 -1.8585365853659999 L 15.75 -2.0414634146340003 " stroke="#191919" stroke-width="0.35 px" style="stroke-width:0.35;stroke-miterlimit:4;stroke-dasharray:none;fill:none;fill-opacity:1;fill-rule: evenodd"/>
<path id="Shape2DView_nwe0001"  d="M 15.75 -1.858536585366 A 3.65854 3.65854 0 0 1 12.0915 1.8" stroke="#191919" stroke-width="0.35 px" style="stroke-width:0.35;stroke-miterlimit:4;stroke-dasharray:none;fill:none;fill-opacity:1;fill-rule: evenodd"/>
<path id="Shape2DView_nwe0002"  d="M 12.091463414634 1.8 L 11.913665621142911 1.8 L 11.389187764454219 1.8 L 10.544329354331097 1.8 L 9.421455119278612 1.8 L 8.076870662156766 1.8 L 6.577999062141393 1.8 L 5.0 1.8 L 3.4220009378586083 1.8 L 1.9231293378432341 1.8 L 0.57854488072139 1.8 L -0.5443293543310972 1.8 L -1.3891877644542179 1.8 L -1.9136656211429113 1.8 L -2.091463414634 1.8 " stroke="#191919" stroke-width="0.35 px" style="stroke-width:0.35;stroke-miterlimit:4;stroke-dasharray:none;fill:none;fill-opacity:1;fill-rule: evenodd"/>
<path id="Shape2DView_nwe0003"  d="M 15.75 -2.041463414634 A 3.65854 3.65854 0 0 0 12.0915 -5.7" stroke="#191919" stroke-width="0.35 px" style="stroke-width:0.35;stroke-miterlimit:4;stroke-dasharray:none;fill:none;fill-opacity:1;fill-rule: evenodd"/>
<path id="Shape2DView_nwe0004"  d="M 12.091463414634 -5.7 L 11.913665621142911 -5.7 L 11.389187764454219 -5.7 L 10.544329354331097 -5.7 L 9.421455119278612 -5.7 L 8.076870662156766 -5.7 L 6.577999062141393 -5.7 L 5.0 -5.7 L 3.4220009378586083 -5.7 L 1.9231293378432341 -5.7 L 0.57854488072139 -5.7 L -0.5443293543310972 -5.7 L -1.3891877644542179 -5.7 L -1.9136656211429113 -5.7 L -2.091463414634 -5.7 " stroke="#191919" stroke-width="0.35 px" style="stroke-width:0.35;stroke-miterlimit:4;stroke-dasharray:none;fill:none;fill-opacity:1;fill-rule: evenodd"/>
<path id="Shape2DView_nwe0005"  d="M 15.75 -1.858536585366 L 15.480475055954605 -1.858536585366 L 14.685415329951006 -1.858536585366 L 13.40468843653132 -1.858536585366 L 11.702515369981386 -1.858536585366 L 9.66425019551375 -1.858536585366 L 7.39210004003038 -1.858536585366 L 5.000000000000001 -1.858536585366 L 2.607899959969621 -1.858536585366 L 0.3357498044862508 -1.858536585366 L -1.702515369981385 -1.858536585366 L -3.4046884365313197 -1.858536585366 L -4.685415329951004 -1.858536585366 L -5.480475055954605 -1.858536585366 L -5.75 -1.858536585366 " stroke="#191919" stroke-width="0.35 px" style="stroke-width:0.35;stroke-miterlimit:4;stroke-dasharray:none;fill:none;fill-opacity:1;fill-rule: evenodd"/>
<path id="Shape2DView_nwe0006"  d="M 15.75 -2.041463414634 L 15.480475055954605 -2.041463414634 L 14.685415329951006 -2.041463414634 L 13.40468843653132 -2.041463414634 L 11.702515369981386 -2.041463414634 L 9.66425019551375 -2.041463414634 L 7.39210004003038 -2.041463414634 L 5.000000000000001 -2.041463414634 L 2.607899959969621 -2.041463414634 L 0.3357498044862508 -2.041463414634 L -1.702515369981385 -2.041463414634 L -3.4046884365313197 -2.041463414634 L -4.685415329951004 -2.041463414634 L -5.480475055954605 -2.041463414634 L -5.75 -2.041463414634 " stroke="#191919" stroke-width="0.35 px" style="stroke-width:0.35;stroke-miterlimit:4;stroke-dasharray:none;fill:none;fill-opacity:1;fill-rule: evenodd"/>
<path id="Shape2DView_nwe0007"  d="M -5.75 -2.0414634146340003 L -5.75 -1.8585365853659999 " stroke="#191919" stroke-width="0.35 px" style="stroke-width:0.35;stroke-miterlimit:4;stroke-dasharray:none;fill:none;fill-opacity:1;fill-rule: evenodd"/>
<path id="Shape2DView_nwe0008"  d="M -5.75 -1.858536585366 C -5.800420454824384 0.0962240046807917 -4.046669623707966 1.8503389572743871 -2.091463414633999 1.7999999999999998 " stroke="#191919" stroke-width="0.35 px" style="stroke-width:0.35;stroke-miterlimit:4;stroke-dasharray:none;fill:none;fill-opacity:1;fill-rule: evenodd"/>
<path id="Shape2DView_nwe0009"  d="M -5.75 -2.041463414634 C -5.800398029438552 -3.996360560346481 -4.046507855345092 -5.750378589602163 -2.0914634146339997 -5.699999999999999 " stroke="#191919" stroke-width="0.35 px" style="stroke-width:0.35;stroke-miterlimit:4;stroke-dasharray:none;fill:none;fill-opacity:1;fill-rule: evenodd"/>
<title>b'Shape2DView'</title>
</g>
<g id="Rectangle" transform="translate(5.965000,2.015000) scale(1,-1)">
<rect fill="#ff0000" id="origin" width="1" height="1" x="0" y="0" />
<title>b'Rectangle'</title>
</g>
</svg>