<?xml version="1.0"?>
<!DOCTYPE svg PUBLIC "-//W3C//DTD SVG 1.1//EN" "http://www.w3.org/Graphics/SVG/1.1/DTD/svg11.dtd">
<svg width="15.809999999999999mm" height="7.510000000000001mm" viewBox="0 0 15.809999999999999 7.510000000000001" xmlns="http://www.w3.org/2000/svg" version="1.1">
<g id="Shape2DView" transform="translate(4.155000,1.905000) scale(1,-1)">
<path id="Shape2DView_nwe0000"  d="M 11.5 -1.7621951219509997 L 11.5 -1.937804878049 " stroke="#191919" stroke-width="0.35 px" style="stroke-width:0.35;stroke-miterlimit:4;stroke-dasharray:none;fill:none;fill-opacity:1;fill-rule: evenodd"/>
<path id="Shape2DView_nwe0001"  d="M 11.5 -1.762195121951 A 3.5122 3.5122 0 0 1 7.9878 1.75" stroke="#191919" stroke-width="0.35 px" style="stroke-width:0.35;stroke-miterlimit:4;stroke-dasharray:none;fill:none;fill-opacity:1;fill-rule: evenodd"/>
<path id="Shape2DView_nwe0002"  d="M 7.987804878049 1.75 L 7.881554261990259 1.75 L 7.568130263367157 1.75 L 7.063249270215298 1.75 L 6.392228123730746 1.75 L 5.588714626138528 1.75 L 4.693000299388089 1.75 L 3.7500000000000004 1.75 L 2.806999700611912 1.75 L 1.9112853738614726 1.75 L 1.1077718762692546 1.75 L 0.436750729784702 1.75 L -0.06813026336715655 1.75 L -0.3815542619902592 1.75 L -0.4878048780490003 1.75 " stroke="#191919" stroke-width="0.35 px" style="stroke-width:0.35;stroke-miterlimit:4;stroke-dasharray:none;fill:none;fill-opacity:1;fill-rule: evenodd"/>
<path id="Shape2DView_nwe0003"  d="M 11.5 -1.937804878049 A 3.5122 3.5122 0 0 0 7.9878 -5.45" stroke="#191919" stroke-width="0.35 px" style="stroke-width:0.35;stroke-miterlimit:4;stroke-dasharray:none;fill:none;fill-opacity:1;fill-rule: evenodd"/>
<path id="Shape2DView_nwe0004"  d="M 7.987804878049 -5.45 L 7.881554261990259 -5.45 L 7.568130263367157 -5.45 L 7.063249270215298 -5.45 L 6.392228123730746 -5.45 L 5.588714626138528 -5.45 L 4.693000299388089 -5.45 L 3.7500000000000004 -5.45 L 2.806999700611912 -5.45 L 1.9112853738614726 -5.45 L 1.1077718762692546 -5.45 L 0.436750729784702 -5.45 L -0.06813026336715655 -5.45 L -0.3815542619902592 -5.45 L -0.4878048780490003 -5.45 " stroke="#191919" stroke-width="0.35 px" style="stroke-width:0.35;stroke-miterlimit:4;stroke-dasharray:none;fill:none;fill-opacity:1;fill-rule: evenodd"/>
<path id="Shape2DView_nwe0005"  d="M 7.790562431004225 -3.4874594775368353 A 0.36 0.36 0 1 1 7.86 -3.7" stroke="#191919" stroke-width="0.35 px" style="stroke-width:0.35;stroke-miterlimit:4;stroke-dasharray:none;fill:none;fill-opacity:1;fill-rule: evenodd"/>
<path id="Shape2DView_nwe0006"  d="M 11.5 -1.762195121951 L 11.305691319409133 -1.762195121951 L 10.732508726243747 -1.762195121951 L 9.80919398912723 -1.762195121951 L 8.582045964405186 -1.762195121951 L 7.112598978161076 -1.762195121951 L 5.474537238161437 -1.762195121951 L 3.7500000000000004 -1.762195121951 L 2.025462761838564 -1.762195121951 L 0.387401021838925 -1.762195121951 L -1.082045964405184 -1.762195121951 L -2.3091939891272313 -1.762195121951 L -3.232508726243747 -1.762195121951 L -3.8056913194091333 -1.762195121951 L -4.0 -1.762195121951 " stroke="#191919" stroke-width="0.35 px" style="stroke-width:0.35;stroke-miterlimit:4;stroke-dasharray:none;fill:none;fill-opacity:1;fill-rule: evenodd"/>
<path id="Shape2DView_nwe0007"  d="M 11.5 -1.937804878049 L 11.305691319409133 -1.937804878049 L 10.732508726243747 -1.937804878049 L 9.80919398912723 -1.937804878049 L 8.582045964405186 -1.937804878049 L 7.112598978161076 -1.937804878049 L 5.474537238161437 -1.937804878049 L 3.7500000000000004 -1.937804878049 L 2.025462761838564 -1.937804878049 L 0.387401021838925 -1.937804878049 L -1.082045964405184 -1.937804878049 L -2.3091939891272313 -1.937804878049 L -3.232508726243747 -1.937804878049 L -3.8056913194091333 -1.937804878049 L -4.0 -1.937804878049 " stroke="#191919" stroke-width="0.35 px" style="stroke-width:0.35;stroke-miterlimit:4;stroke-dasharray:none;fill:none;fill-opacity:1;fill-rule: evenodd"/>
<path id="Shape2DView_nwe0009"  d="M -4.0 -1.937804878049 L -4.0 -1.7621951219509997 " stroke="#191919" stroke-width="0.35 px" style="stroke-width:0.35;stroke-miterlimit:4;stroke-dasharray:none;fill:none;fill-opacity:1;fill-rule: evenodd"/>
<path id="Shape2DView_nwe0010"  d="M -4.0 -1.762195121951 C -4.048400806880494 0.11438618748563613 -2.3647926334533382 1.7983272119719602 -0.4878048780490003 1.7500000000000002 " stroke="#191919" stroke-width="0.35 px" style="stroke-width:0.35;stroke-miterlimit:4;stroke-dasharray:none;fill:none;fill-opacity:1;fill-rule: evenodd"/>
<path id="Shape2DView_nwe0011"  d="M -4.0 -1.937804878049 C -4.048409673705617 -3.814352197227396 -2.3648235719821002 -5.49832157066113 -0.4878048780490003 -5.45 " stroke="#191919" stroke-width="0.35 px" style="stroke-width:0.35;stroke-miterlimit:4;stroke-dasharray:none;fill:none;fill-opacity:1;fill-rule: evenodd"/>
<title>b'Shape2DView'</title>
</g>
<g id="Rectangle" transform="translate(4.155000,1.905000) scale(1,-1)">
<rect fill="#ff0000" id="origin" width="1" height="1" x="0" y="0" />
<title>b'Rectangle'</title>
</g>
</svg>