<?xml version="1.0"?>
<!DOCTYPE svg PUBLIC "-//W3C//DTD SVG 1.1//EN" "http://www.w3.org/Graphics/SVG/1.1/DTD/svg11.dtd">
<svg width="7.140000000000001mm" height="3.6399999999999997mm" viewBox="0 0 7.140000000000001 3.6399999999999997" xmlns="http://www.w3.org/2000/svg" version="1.1">
<g id="Shape2DView" transform="translate(1.070000,1.170000) scale(1,-1)">
<path id="Shape2DView_nwe0000"  d="M 6.0 -0.607317073171 L 6.0 -0.692682926829 " stroke="#191919" stroke-width="0.35 px" style="stroke-width:0.35;stroke-miterlimit:4;stroke-dasharray:none;fill:none;fill-opacity:1;fill-rule: evenodd"/>
<path id="Shape2DView_nwe0001"  d="M 6.0 -0.607317073171 A 1.70732 1.70732 0 0 1 4.29268 1.1" stroke="#191919" stroke-width="0.35 px" style="stroke-width:0.35;stroke-miterlimit:4;stroke-dasharray:none;fill:none;fill-opacity:1;fill-rule: evenodd"/>
<path id="Shape2DView_nwe0002"  d="M 4.292682926829 1.1 L 4.247736623057397 1.1 L 4.1151515070931195 1.1 L 3.9015759502778438 1.1 L 3.6177195228441477 1.1 L 3.2778159713447748 1.1 L 2.8989094791655283 1.1 L 2.5 1.1 L 2.1010905208344717 1.1 L 1.7221840286552257 1.1 L 1.3822804771558523 1.1 L 1.0984240497221562 1.1 L 0.8848484929068807 1.1 L 0.7522633769426021 1.1 L 0.7073170731709999 1.1 " stroke="#191919" stroke-width="0.35 px" style="stroke-width:0.35;stroke-miterlimit:4;stroke-dasharray:none;fill:none;fill-opacity:1;fill-rule: evenodd"/>
<path id="Shape2DView_nwe0003"  d="M 6.0 -0.692682926829 A 1.70732 1.70732 0 0 0 4.29268 -2.4" stroke="#191919" stroke-width="0.35 px" style="stroke-width:0.35;stroke-miterlimit:4;stroke-dasharray:none;fill:none;fill-opacity:1;fill-rule: evenodd"/>
<path id="Shape2DView_nwe0004"  d="M 4.292682926829 -2.4 L 4.247736623057397 -2.4 L 4.1151515070931195 -2.4 L 3.9015759502778438 -2.4 L 3.6177195228441477 -2.4 L 3.2778159713447748 -2.4 L 2.8989094791655283 -2.4 L 2.5 -2.4 L 2.1010905208344717 -2.4 L 1.7221840286552257 -2.4 L 1.3822804771558523 -2.4 L 1.0984240497221562 -2.4 L 0.8848484929068807 -2.4 L 0.7522633769426021 -2.4 L 0.7073170731709999 -2.4 " stroke="#191919" stroke-width="0.35 px" style="stroke-width:0.35;stroke-miterlimit:4;stroke-dasharray:none;fill:none;fill-opacity:1;fill-rule: evenodd"/>
<path id="Shape2DView_nwe0005"  d="M 6.0 -0.607317073171 L 5.912247692636383 -0.607317073171 L 5.6533910376584675 -0.607317073171 L 5.2364101886381045 -0.607317073171 L 4.682214306505568 -0.607317073171 L 4.018593086911453 -0.607317073171 L 3.2788232688471006 -0.607317073171 L 2.5 -0.607317073171 L 1.7211767311528998 -0.607317073171 L 0.9814069130885468 -0.607317073171 L 0.31778569349443275 -0.607317073171 L -0.23641018863810448 -0.607317073171 L -0.6533910376584666 -0.607317073171 L -0.9122476926363827 -0.607317073171 L -1.0 -0.607317073171 " stroke="#191919" stroke-width="0.35 px" style="stroke-width:0.35;stroke-miterlimit:4;stroke-dasharray:none;fill:none;fill-opacity:1;fill-rule: evenodd"/>
<path id="Shape2DView_nwe0006"  d="M 6.0 -0.692682926829 L 5.912247692636383 -0.692682926829 L 5.6533910376584675 -0.692682926829 L 5.2364101886381045 -0.692682926829 L 4.682214306505568 -0.692682926829 L 4.018593086911453 -0.692682926829 L 3.2788232688471006 -0.692682926829 L 2.5 -0.692682926829 L 1.7211767311528998 -0.692682926829 L 0.9814069130885468 -0.692682926829 L 0.31778569349443275 -0.692682926829 L -0.23641018863810448 -0.692682926829 L -0.6533910376584666 -0.692682926829 L -0.9122476926363827 -0.692682926829 L -1.0 -0.692682926829 " stroke="#191919" stroke-width="0.35 px" style="stroke-width:0.35;stroke-miterlimit:4;stroke-dasharray:none;fill:none;fill-opacity:1;fill-rule: evenodd"/>
<path id="Shape2DView_nwe0007"  d="M -1.0 -0.692682926829 L -1.0 -0.607317073171 " stroke="#191919" stroke-width="0.35 px" style="stroke-width:0.35;stroke-miterlimit:4;stroke-dasharray:none;fill:none;fill-opacity:1;fill-rule: evenodd"/>
<path id="Shape2DView_nwe0008"  d="M -1.0 -0.607317073171 C -1.0235198680116504 0.3049740042895968 -0.20502559682391927 1.1235136721400991 0.707317073171 1.0999999999999999 " stroke="#191919" stroke-width="0.35 px" style="stroke-width:0.35;stroke-miterlimit:4;stroke-dasharray:none;fill:none;fill-opacity:1;fill-rule: evenodd"/>
<path id="Shape2DView_nwe0009"  d="M -1.0 -0.692682926829 C -1.0235190386923023 -1.6049646869592926 -0.20504306545188516 -2.4235081890064953 0.7073170731709999 -2.4 " stroke="#191919" stroke-width="0.35 px" style="stroke-width:0.35;stroke-miterlimit:4;stroke-dasharray:none;fill:none;fill-opacity:1;fill-rule: evenodd"/>
<title>b'Shape2DView'</title>
</g>
<g id="Rectangle" transform="translate(1.070000,1.170000) scale(1,-1)">
<rect fill="#ff0000" id="origin" width="1" height="1" x="0" y="0" />
<title>b'Rectangle'</title>
</g>
</svg>