<?xml version="1.0"?>
<!DOCTYPE svg PUBLIC "-//W3C//DTD SVG 1.1//EN" "http://www.w3.org/Graphics/SVG/1.1/DTD/svg11.dtd">
<svg width="21.93mm" height="5.13mm" viewBox="0 0 21.93 5.13" xmlns="http://www.w3.org/2000/svg" version="1.1">
<g id="Shape2DView" transform="translate(5.965000,1.615000) scale(1,-1)">
<path id="Shape2DView_nwe0000"  d="M 15.75 -0.892682926829 L 15.75 -1.007317073171 " stroke="#191919" stroke-width="0.35 px" style="stroke-width:0.35;stroke-miterlimit:4;stroke-dasharray:none;fill:none;fill-opacity:1;fill-rule: evenodd"/>
<path id="Shape2DView_nwe0001"  d="M 15.75 -0.892682926829 A 2.29268 2.29268 0 0 1 13.4573 1.4" stroke="#191919" stroke-width="0.35 px" style="stroke-width:0.35;stroke-miterlimit:4;stroke-dasharray:none;fill:none;fill-opacity:1;fill-rule: evenodd"/>
<path id="Shape2DView_nwe0002"  d="M 13.457317073171 1.4 L 13.245274476806294 1.4 L 12.619779388906677 1.4 L 11.61219674501946 1.4 L 10.27305094620787 1.4 L 8.669492354610197 1.4 L 6.8819300938866945 1.4 L 5.000000000000001 1.4 L 3.1180699061133064 1.4 L 1.3305076453898041 1.4 L -0.27305094620787074 1.4 L -1.6121967450194612 1.4 L -2.619779388906675 1.4 L -3.245274476806294 1.4 L -3.4573170731709997 1.4 " stroke="#191919" stroke-width="0.35 px" style="stroke-width:0.35;stroke-miterlimit:4;stroke-dasharray:none;fill:none;fill-opacity:1;fill-rule: evenodd"/>
<path id="Shape2DView_nwe0003"  d="M 15.75 -1.007317073171 A 2.29268 2.29268 0 0 0 13.4573 -3.3" stroke="#191919" stroke-width="0.35 px" style="stroke-width:0.35;stroke-miterlimit:4;stroke-dasharray:none;fill:none;fill-opacity:1;fill-rule: evenodd"/>
<path id="Shape2DView_nwe0004"  d="M 13.457317073171 -3.3 L 13.245274476806294 -3.3 L 12.619779388906677 -3.3 L 11.61219674501946 -3.3 L 10.27305094620787 -3.3 L 8.669492354610197 -3.3 L 6.8819300938866945 -3.3 L 5.000000000000001 -3.3 L 3.1180699061133064 -3.3 L 1.3305076453898041 -3.3 L -0.27305094620787074 -3.3 L -1.6121967450194612 -3.3 L -2.619779388906675 -3.3 L -3.245274476806294 -3.3 L -3.4573170731709997 -3.3 " stroke="#191919" stroke-width="0.35 px" style="stroke-width:0.35;stroke-miterlimit:4;stroke-dasharray:none;fill:none;fill-opacity:1;fill-rule: evenodd"/>
<path id="Shape2DView_nwe0005"  d="M 15.75 -0.892682926829 L 15.480475055954605 -0.892682926829 L 14.685415329951006 -0.892682926829 L 13.40468843653132 -0.892682926829 L 11.702515369981386 -0.892682926829 L 9.66425019551375 -0.892682926829 L 7.39210004003038 -0.892682926829 L 5.000000000000001 -0.892682926829 L 2.607899959969621 -0.892682926829 L 0.3357498044862508 -0.892682926829 L -1.702515369981385 -0.892682926829 L -3.4046884365313197 -0.892682926829 L -4.685415329951004 -0.892682926829 L -5.480475055954605 -0.892682926829 L -5.75 -0.892682926829 " stroke="#191919" stroke-width="0.35 px" style="stroke-width:0.35;stroke-miterlimit:4;stroke-dasharray:none;fill:none;fill-opacity:1;fill-rule: evenodd"/>
<path id="Shape2DView_nwe0006"  d="M 15.75 -1.007317073171 L 15.480475055954605 -1.007317073171 L 14.685415329951006 -1.007317073171 L 13.40468843653132 -1.007317073171 L 11.702515369981386 -1.007317073171 L 9.66425019551375 -1.007317073171 L 7.39210004003038 -1.007317073171 L 5.000000000000001 -1.007317073171 L 2.607899959969621 -1.007317073171 L 0.3357498044862508 -1.007317073171 L -1.702515369981385 -1.007317073171 L -3.4046884365313197 -1.007317073171 L -4.685415329951004 -1.007317073171 L -5.480475055954605 -1.007317073171 L -5.75 -1.007317073171 " stroke="#191919" stroke-width="0.35 px" style="stroke-width:0.35;stroke-miterlimit:4;stroke-dasharray:none;fill:none;fill-opacity:1;fill-rule: evenodd"/>
<path id="Shape2DView_nwe0007"  d="M -5.75 -1.007317073171 L -5.75 -0.892682926829 " stroke="#191919" stroke-width="0.35 px" style="stroke-width:0.35;stroke-miterlimit:4;stroke-dasharray:none;fill:none;fill-opacity:1;fill-rule: evenodd"/>
<path id="Shape2DView_nwe0008"  d="M -5.75 -0.892682926829 C -5.781602874413175 0.3322777832066003 -4.682599544165074 1.4315421700076778 -3.4573170731709997 1.4 " stroke="#191919" stroke-width="0.35 px" style="stroke-width:0.35;stroke-miterlimit:4;stroke-dasharray:none;fill:none;fill-opacity:1;fill-rule: evenodd"/>
<path id="Shape2DView_nwe0009"  d="M -5.75 -1.007317073171 C -5.781602860718401 -2.2322778155244936 -4.682599452376695 -3.331542145241373 -3.4573170731709997 -3.2999999999999994 " stroke="#191919" stroke-width="0.35 px" style="stroke-width:0.35;stroke-miterlimit:4;stroke-dasharray:none;fill:none;fill-opacity:1;fill-rule: evenodd"/>
<title>b'Shape2DView'</title>
</g>
<g id="Rectangle" transform="translate(5.965000,1.615000) scale(1,-1)">
<rect fill="#ff0000" id="origin" width="1" height="1" x="0" y="0" />
<title>b'Rectangle'</title>
</g>
</svg>