<?xml version="1.0"?>
<!DOCTYPE svg PUBLIC "-//W3C//DTD SVG 1.1//EN" "http://www.w3.org/Graphics/SVG/1.1/DTD/svg11.dtd">
<svg width="7.140000000000001mm" height="3.84mm" viewBox="0 0 7.140000000000001 3.84" xmlns="http://www.w3.org/2000/svg" version="1.1">
<g id="Shape2DView" transform="translate(1.070000,1.095000) scale(1,-1)">
<path id="Shape2DView_nwe0000"  d="M 6.0 -0.7798780487800001 L 6.0 -0.87012195122 " stroke="#191919" stroke-width="0.35 px" style="stroke-width:0.35;stroke-miterlimit:4;stroke-dasharray:none;fill:none;fill-opacity:1;fill-rule: evenodd"/>
<path id="Shape2DView_nwe0001"  d="M 6.0 -0.77987804878 A 1.80488 1.80488 0 0 1 4.19512 1.025" stroke="#191919" stroke-width="0.35 px" style="stroke-width:0.35;stroke-miterlimit:4;stroke-dasharray:none;fill:none;fill-opacity:1;fill-rule: evenodd"/>
<path id="Shape2DView_nwe0002"  d="M 4.19512195122 1.025 L 4.152621704796494 1.025 L 4.027252105347223 1.025 L 3.825299708086432 1.025 L 3.5568912494925478 1.025 L 3.235485850455585 1.025 L 2.8772001197553245 1.025 L 2.5 1.025 L 2.122799880244676 1.025 L 1.7645141495444157 1.025 L 1.4431087505074525 1.025 L 1.174700291913568 1.025 L 0.972747894652777 1.025 L 0.8473782952035063 1.025 L 0.80487804878 1.025 " stroke="#191919" stroke-width="0.35 px" style="stroke-width:0.35;stroke-miterlimit:4;stroke-dasharray:none;fill:none;fill-opacity:1;fill-rule: evenodd"/>
<path id="Shape2DView_nwe0003"  d="M 6.0 -0.87012195122 A 1.80488 1.80488 0 0 0 4.19512 -2.675" stroke="#191919" stroke-width="0.35 px" style="stroke-width:0.35;stroke-miterlimit:4;stroke-dasharray:none;fill:none;fill-opacity:1;fill-rule: evenodd"/>
<path id="Shape2DView_nwe0004"  d="M 4.19512195122 -2.675 L 4.152621704796494 -2.675 L 4.027252105347223 -2.675 L 3.825299708086432 -2.675 L 3.5568912494925478 -2.675 L 3.235485850455585 -2.675 L 2.8772001197553245 -2.675 L 2.5 -2.675 L 2.122799880244676 -2.675 L 1.7645141495444157 -2.675 L 1.4431087505074525 -2.675 L 1.174700291913568 -2.675 L 0.972747894652777 -2.675 L 0.8473782952035063 -2.675 L 0.80487804878 -2.675 " stroke="#191919" stroke-width="0.35 px" style="stroke-width:0.35;stroke-miterlimit:4;stroke-dasharray:none;fill:none;fill-opacity:1;fill-rule: evenodd"/>
<path id="Shape2DView_nwe0005"  d="M 6.0 -0.77987804878 L 5.912247692636383 -0.77987804878 L 5.6533910376584675 -0.77987804878 L 5.2364101886381045 -0.77987804878 L 4.682214306505568 -0.77987804878 L 4.018593086911453 -0.77987804878 L 3.2788232688471006 -0.77987804878 L 2.5 -0.77987804878 L 1.7211767311528998 -0.77987804878 L 0.9814069130885468 -0.77987804878 L 0.31778569349443275 -0.77987804878 L -0.23641018863810448 -0.77987804878 L -0.6533910376584666 -0.77987804878 L -0.9122476926363827 -0.77987804878 L -1.0 -0.77987804878 " stroke="#191919" stroke-width="0.35 px" style="stroke-width:0.35;stroke-miterlimit:4;stroke-dasharray:none;fill:none;fill-opacity:1;fill-rule: evenodd"/>
<path id="Shape2DView_nwe0006"  d="M 6.0 -0.87012195122 L 5.912247692636383 -0.87012195122 L 5.6533910376584675 -0.87012195122 L 5.2364101886381045 -0.87012195122 L 4.682214306505568 -0.87012195122 L 4.018593086911453 -0.87012195122 L 3.2788232688471006 -0.87012195122 L 2.5 -0.87012195122 L 1.7211767311528998 -0.87012195122 L 0.9814069130885468 -0.87012195122 L 0.31778569349443275 -0.87012195122 L -0.23641018863810448 -0.87012195122 L -0.6533910376584666 -0.87012195122 L -0.9122476926363827 -0.87012195122 L -1.0 -0.87012195122 " stroke="#191919" stroke-width="0.35 px" style="stroke-width:0.35;stroke-miterlimit:4;stroke-dasharray:none;fill:none;fill-opacity:1;fill-rule: evenodd"/>
<path id="Shape2DView_nwe0007"  d="M -1.0 -0.87012195122 L -1.0 -0.7798780487800001 " stroke="#191919" stroke-width="0.35 px" style="stroke-width:0.35;stroke-miterlimit:4;stroke-dasharray:none;fill:none;fill-opacity:1;fill-rule: evenodd"/>
<path id="Shape2DView_nwe0008"  d="M -1.0 -0.77987804878 C -1.0248632373143531 0.18456783285502049 -0.1595678328548925 1.0498632373145078 0.8048780487800001 1.0249999999999995 " stroke="#191919" stroke-width="0.35 px" style="stroke-width:0.35;stroke-miterlimit:4;stroke-dasharray:none;fill:none;fill-opacity:1;fill-rule: evenodd"/>
<path id="Shape2DView_nwe0009"  d="M -1.0 -0.87012195122 C -1.0248632373144009 -1.8345678328553052 -0.1595678328546407 -2.6998632373145 0.8048780487799998 -2.6749999999999994 " stroke="#191919" stroke-width="0.35 px" style="stroke-width:0.35;stroke-miterlimit:4;stroke-dasharray:none;fill:none;fill-opacity:1;fill-rule: evenodd"/>
<title>b'Shape2DView'</title>
</g>
<g id="Rectangle" transform="translate(1.070000,1.095000) scale(1,-1)">
<rect fill="#ff0000" id="origin" width="1" height="1" x="0" y="0" />
<title>b'Rectangle'</title>
</g>
</svg>