<?xml version="1.0"?>
<!DOCTYPE svg PUBLIC "-//W3C//DTD SVG 1.1//EN" "http://www.w3.org/Graphics/SVG/1.1/DTD/svg11.dtd">
<svg width="15.81mm" height="11.309999999999999mm" viewBox="0 0 15.81 11.309999999999999" xmlns="http://www.w3.org/2000/svg" version="1.1">
<g id="Shape2DView" transform="translate(4.155000,2.305000) scale(1,-1)">
<path id="Shape2DView_nwe0000"  d="M 11.5 -3.2158536585370006 L 11.5 -3.4841463414629996 " stroke="#191919" stroke-width="0.35 px" style="stroke-width:0.35;stroke-miterlimit:4;stroke-dasharray:none;fill:none;fill-opacity:1;fill-rule: evenodd"/>
<path id="Shape2DView_nwe0001"  d="M 11.5 -3.215853658537 A 5.36585 5.36585 0 0 1 6.13415 2.15" stroke="#191919" stroke-width="0.35 px" style="stroke-width:0.35;stroke-miterlimit:4;stroke-dasharray:none;fill:none;fill-opacity:1;fill-rule: evenodd"/>
<path id="Shape2DView_nwe0002"  d="M 6.1341463414629995 2.15 L 6.074370815018456 2.15 L 5.898041630181614 2.15 L 5.614000668566747 2.15 L 5.236490930040991 2.15 L 4.784442329237413 2.15 L 4.280522470590877 2.15 L 3.75 2.15 L 3.219477529409123 2.15 L 2.7155576707625873 2.15 L 2.26350906995901 2.15 L 1.885999331433253 2.15 L 1.6019583698183868 2.15 L 1.4256291849815441 2.15 L 1.365853658537 2.15 " stroke="#191919" stroke-width="0.35 px" style="stroke-width:0.35;stroke-miterlimit:4;stroke-dasharray:none;fill:none;fill-opacity:1;fill-rule: evenodd"/>
<path id="Shape2DView_nwe0003"  d="M 11.5 -3.484146341463 A 5.36585 5.36585 0 0 0 6.13415 -8.85" stroke="#191919" stroke-width="0.35 px" style="stroke-width:0.35;stroke-miterlimit:4;stroke-dasharray:none;fill:none;fill-opacity:1;fill-rule: evenodd"/>
<path id="Shape2DView_nwe0004"  d="M 6.1341463414629995 -8.85 L 6.074370815018456 -8.85 L 5.898041630181614 -8.85 L 5.614000668566747 -8.85 L 5.236490930040991 -8.85 L 4.784442329237413 -8.85 L 4.280522470590877 -8.85 L 3.75 -8.85 L 3.219477529409123 -8.85 L 2.7155576707625873 -8.85 L 2.26350906995901 -8.85 L 1.885999331433253 -8.85 L 1.6019583698183868 -8.85 L 1.4256291849815441 -8.85 L 1.365853658537 -8.85 " stroke="#191919" stroke-width="0.35 px" style="stroke-width:0.35;stroke-miterlimit:4;stroke-dasharray:none;fill:none;fill-opacity:1;fill-rule: evenodd"/>
<path id="Shape2DView_nwe0005"  d="M 11.5 -3.215853658537 L 11.305691319409133 -3.215853658537 L 10.732508726243747 -3.215853658537 L 9.80919398912723 -3.215853658537 L 8.582045964405186 -3.215853658537 L 7.112598978161076 -3.215853658537 L 5.474537238161437 -3.215853658537 L 3.7500000000000004 -3.215853658537 L 2.025462761838564 -3.215853658537 L 0.387401021838925 -3.215853658537 L -1.082045964405184 -3.215853658537 L -2.3091939891272313 -3.215853658537 L -3.232508726243747 -3.215853658537 L -3.8056913194091333 -3.215853658537 L -4.0 -3.215853658537 " stroke="#191919" stroke-width="0.35 px" style="stroke-width:0.35;stroke-miterlimit:4;stroke-dasharray:none;fill:none;fill-opacity:1;fill-rule: evenodd"/>
<path id="Shape2DView_nwe0006"  d="M 11.5 -3.484146341463 L 11.305691319409133 -3.484146341463 L 10.732508726243747 -3.484146341463 L 9.80919398912723 -3.484146341463 L 8.582045964405186 -3.484146341463 L 7.112598978161076 -3.484146341463 L 5.474537238161437 -3.484146341463 L 3.7500000000000004 -3.484146341463 L 2.025462761838564 -3.484146341463 L 0.387401021838925 -3.484146341463 L -1.082045964405184 -3.484146341463 L -2.3091939891272313 -3.484146341463 L -3.232508726243747 -3.484146341463 L -3.8056913194091333 -3.484146341463 L -4.0 -3.484146341463 " stroke="#191919" stroke-width="0.35 px" style="stroke-width:0.35;stroke-miterlimit:4;stroke-dasharray:none;fill:none;fill-opacity:1;fill-rule: evenodd"/>
<path id="Shape2DView_nwe0007"  d="M -4.0 -3.4841463414629996 L -4.0 -3.2158536585370006 " stroke="#191919" stroke-width="0.35 px" style="stroke-width:0.35;stroke-miterlimit:4;stroke-dasharray:none;fill:none;fill-opacity:1;fill-rule: evenodd"/>
<path id="Shape2DView_nwe0008"  d="M -3.999999999999999 -3.215853658537 C -4.073937863076961 -0.3486062442497605 -1.5013937557440062 2.223937863077425 1.3658536585370005 2.1500000000000004 " stroke="#191919" stroke-width="0.35 px" style="stroke-width:0.35;stroke-miterlimit:4;stroke-dasharray:none;fill:none;fill-opacity:1;fill-rule: evenodd"/>
<path id="Shape2DView_nwe0009"  d="M -4.000000000000001 -3.484146341463 C -4.073937863076761 -6.351393755749842 -1.501393755744234 -8.92393786307741 1.3658536585370005 -8.85 " stroke="#191919" stroke-width="0.35 px" style="stroke-width:0.35;stroke-miterlimit:4;stroke-dasharray:none;fill:none;fill-opacity:1;fill-rule: evenodd"/>
<title>b'Shape2DView'</title>
</g>
<g id="Rectangle" transform="translate(4.155000,2.305000) scale(1,-1)">
<rect fill="#ff0000" id="origin" width="1" height="1" x="0" y="0" />
<title>b'Rectangle'</title>
</g>
</svg>