<?xml version="1.0"?>
<!DOCTYPE svg PUBLIC "-//W3C//DTD SVG 1.1//EN" "http://www.w3.org/Graphics/SVG/1.1/DTD/svg11.dtd">
<svg width="7.140000000000001mm" height="5.24mm" viewBox="0 0 7.140000000000001 5.24" xmlns="http://www.w3.org/2000/svg" version="1.1">
<g id="Shape2DView" transform="translate(1.070000,1.370000) scale(1,-1)">
<path id="Shape2DView_nwe0000"  d="M 6.0 -1.1878048780490003 L 6.0 -1.3121951219510002 " stroke="#191919" stroke-width="0.35 px" style="stroke-width:0.35;stroke-miterlimit:4;stroke-dasharray:none;fill:none;fill-opacity:1;fill-rule: evenodd"/>
<path id="Shape2DView_nwe0001"  d="M 6.0 -1.187804878049 A 2.4878 2.4878 0 0 1 3.5122 1.3" stroke="#191919" stroke-width="0.35 px" style="stroke-width:0.35;stroke-miterlimit:4;stroke-dasharray:none;fill:none;fill-opacity:1;fill-rule: evenodd"/>
<path id="Shape2DView_nwe0002"  d="M 3.5121951219509997 1.3 L 3.486817276964315 1.3 L 3.4119562931205434 1.3 L 3.2913660127418582 1.3 L 3.1310933360276056 1.3 L 2.9391750042286526 1.3 L 2.725234603882562 1.3 L 2.5 1.3 L 2.274765396117438 1.3 L 2.0608249957713474 1.3 L 1.8689066639723944 1.3 L 1.7086339872581415 1.3 L 1.5880437068794566 1.3 L 1.5131827230356854 1.3 L 1.487804878049 1.3 " stroke="#191919" stroke-width="0.35 px" style="stroke-width:0.35;stroke-miterlimit:4;stroke-dasharray:none;fill:none;fill-opacity:1;fill-rule: evenodd"/>
<path id="Shape2DView_nwe0003"  d="M 6.0 -1.312195121951 A 2.4878 2.4878 0 0 0 3.5122 -3.8" stroke="#191919" stroke-width="0.35 px" style="stroke-width:0.35;stroke-miterlimit:4;stroke-dasharray:none;fill:none;fill-opacity:1;fill-rule: evenodd"/>
<path id="Shape2DView_nwe0004"  d="M 3.5121951219509997 -3.8 L 3.486817276964315 -3.8 L 3.4119562931205434 -3.8 L 3.2913660127418582 -3.8 L 3.1310933360276056 -3.8 L 2.9391750042286526 -3.8 L 2.725234603882562 -3.8 L 2.5 -3.8 L 2.274765396117438 -3.8 L 2.0608249957713474 -3.8 L 1.8689066639723944 -3.8 L 1.7086339872581415 -3.8 L 1.5880437068794566 -3.8 L 1.5131827230356854 -3.8 L 1.487804878049 -3.8 " stroke="#191919" stroke-width="0.35 px" style="stroke-width:0.35;stroke-miterlimit:4;stroke-dasharray:none;fill:none;fill-opacity:1;fill-rule: evenodd"/>
<path id="Shape2DView_nwe0005"  d="M 5.27 -2.5 A 0.27 0.27 0 0 1 5.13694 -2.26731" stroke="#191919" stroke-width="0.35 px" style="stroke-width:0.35;stroke-miterlimit:4;stroke-dasharray:none;fill:none;fill-opacity:1;fill-rule: evenodd"/>
<path id="Shape2DView_nwe0006"  d="M 6.0 -1.187804878049 L 5.912247692636383 -1.187804878049 L 5.6533910376584675 -1.187804878049 L 5.2364101886381045 -1.187804878049 L 4.682214306505568 -1.187804878049 L 4.018593086911453 -1.187804878049 L 3.2788232688471006 -1.187804878049 L 2.5 -1.187804878049 L 1.7211767311528998 -1.187804878049 L 0.9814069130885468 -1.187804878049 L 0.31778569349443275 -1.187804878049 L -0.23641018863810448 -1.187804878049 L -0.6533910376584666 -1.187804878049 L -0.9122476926363827 -1.187804878049 L -1.0 -1.187804878049 " stroke="#191919" stroke-width="0.35 px" style="stroke-width:0.35;stroke-miterlimit:4;stroke-dasharray:none;fill:none;fill-opacity:1;fill-rule: evenodd"/>
<path id="Shape2DView_nwe0007"  d="M 6.0 -1.312195121951 L 5.912247692636383 -1.312195121951 L 5.6533910376584675 -1.312195121951 L 5.2364101886381045 -1.312195121951 L 4.682214306505568 -1.312195121951 L 4.018593086911453 -1.312195121951 L 3.2788232688471006 -1.312195121951 L 2.5 -1.312195121951 L 1.7211767311528998 -1.312195121951 L 0.9814069130885468 -1.312195121951 L 0.31778569349443275 -1.312195121951 L -0.23641018863810448 -1.312195121951 L -0.6533910376584666 -1.312195121951 L -0.9122476926363827 -1.312195121951 L -1.0 -1.312195121951 " stroke="#191919" stroke-width="0.35 px" style="stroke-width:0.35;stroke-miterlimit:4;stroke-dasharray:none;fill:none;fill-opacity:1;fill-rule: evenodd"/>
<path id="Shape2DView_nwe0009"  d="M -1.0 -1.3121951219510002 L -1.0 -1.1878048780490003 " stroke="#191919" stroke-width="0.35 px" style="stroke-width:0.35;stroke-miterlimit:4;stroke-dasharray:none;fill:none;fill-opacity:1;fill-rule: evenodd"/>
<path id="Shape2DView_nwe0010"  d="M -1.0 -1.187804878049 C -1.0342709413679447 0.1415664733445029 0.15843352665610205 1.334270941367934 1.4878048780490007 1.2999999999999998 " stroke="#191919" stroke-width="0.35 px" style="stroke-width:0.35;stroke-miterlimit:4;stroke-dasharray:none;fill:none;fill-opacity:1;fill-rule: evenodd"/>
<path id="Shape2DView_nwe0011"  d="M -1.0 -1.312195121951 C -1.0342709413679747 -2.6415664733441875 0.15843352665600846 -3.8342709413680023 1.4878048780489999 -3.8 " stroke="#191919" stroke-width="0.35 px" style="stroke-width:0.35;stroke-miterlimit:4;stroke-dasharray:none;fill:none;fill-opacity:1;fill-rule: evenodd"/>
<title>b'Shape2DView'</title>
</g>
<g id="Rectangle" transform="translate(1.070000,1.370000) scale(1,-1)">
<rect fill="#ff0000" id="origin" width="1" height="1" x="0" y="0" />
<title>b'Rectangle'</title>
</g>
</svg>