<?xml version="1.0"?>
<!DOCTYPE svg PUBLIC "-//W3C//DTD SVG 1.1//EN" "http://www.w3.org/Graphics/SVG/1.1/DTD/svg11.dtd">
<svg width="12.239999999999998mm" height="6.04mm" viewBox="0 0 12.239999999999998 6.04" xmlns="http://www.w3.org/2000/svg" version="1.1">
<g id="Shape2DView" transform="translate(2.370000,1.670000) scale(1,-1)">
<path id="Shape2DView_nwe0000"  d="M 9.75 -1.279268292683 L 9.75 -1.4207317073170003 " stroke="#191919" stroke-width="0.35 px" style="stroke-width:0.35;stroke-miterlimit:4;stroke-dasharray:none;fill:none;fill-opacity:1;fill-rule: evenodd"/>
<path id="Shape2DView_nwe0001"  d="M 9.75 -1.279268292683 A 2.82927 2.82927 0 0 1 6.92073 1.55" stroke="#191919" stroke-width="0.35 px" style="stroke-width:0.35;stroke-miterlimit:4;stroke-dasharray:none;fill:none;fill-opacity:1;fill-rule: evenodd"/>
<path id="Shape2DView_nwe0002"  d="M 6.920731707317 1.55 L 6.841234843503272 1.55 L 6.6067305567637025 1.55 L 6.228977871240037 1.55 L 5.726918883942281 1.55 L 5.125728928909299 1.55 L 4.455554180837078 1.55 L 3.75 1.55 L 3.044445819162922 1.55 L 2.3742710710907016 1.55 L 1.77308111605772 1.55 L 1.2710221287599626 1.55 L 0.8932694432362984 1.55 L 0.6587651564967283 1.55 L 0.579268292683 1.55 " stroke="#191919" stroke-width="0.35 px" style="stroke-width:0.35;stroke-miterlimit:4;stroke-dasharray:none;fill:none;fill-opacity:1;fill-rule: evenodd"/>
<path id="Shape2DView_nwe0003"  d="M 9.75 -1.420731707317 A 2.82927 2.82927 0 0 0 6.92073 -4.25" stroke="#191919" stroke-width="0.35 px" style="stroke-width:0.35;stroke-miterlimit:4;stroke-dasharray:none;fill:none;fill-opacity:1;fill-rule: evenodd"/>
<path id="Shape2DView_nwe0004"  d="M 6.920731707317 -4.25 L 6.841234843503272 -4.25 L 6.6067305567637025 -4.25 L 6.228977871240037 -4.25 L 5.726918883942281 -4.25 L 5.125728928909299 -4.25 L 4.455554180837078 -4.25 L 3.75 -4.25 L 3.044445819162922 -4.25 L 2.3742710710907016 -4.25 L 1.77308111605772 -4.25 L 1.2710221287599626 -4.25 L 0.8932694432362984 -4.25 L 0.6587651564967283 -4.25 L 0.579268292683 -4.25 " stroke="#191919" stroke-width="0.35 px" style="stroke-width:0.35;stroke-miterlimit:4;stroke-dasharray:none;fill:none;fill-opacity:1;fill-rule: evenodd"/>
<path id="Shape2DView_nwe0005"  d="M 9.75 -1.279268292683 L 9.599567473090943 -1.279268292683 L 9.155813207414514 -1.279268292683 L 8.440988894808179 -1.279268292683 L 7.490938811152402 -1.279268292683 L 6.353302434705349 -1.279268292683 L 5.085125603737887 -1.279268292683 L 3.7500000000000004 -1.279268292683 L 2.414874396262114 -1.279268292683 L 1.1466975652946516 -1.279268292683 L 0.009061188847598878 -1.279268292683 L -0.9409888948081786 -1.279268292683 L -1.6558132074145142 -1.279268292683 L -2.099567473090942 -1.279268292683 L -2.25 -1.279268292683 " stroke="#191919" stroke-width="0.35 px" style="stroke-width:0.35;stroke-miterlimit:4;stroke-dasharray:none;fill:none;fill-opacity:1;fill-rule: evenodd"/>
<path id="Shape2DView_nwe0006"  d="M 9.75 -1.420731707317 L 9.599567473090943 -1.420731707317 L 9.155813207414514 -1.420731707317 L 8.440988894808179 -1.420731707317 L 7.490938811152402 -1.420731707317 L 6.353302434705349 -1.420731707317 L 5.085125603737887 -1.420731707317 L 3.7500000000000004 -1.420731707317 L 2.414874396262114 -1.420731707317 L 1.1466975652946516 -1.420731707317 L 0.009061188847598878 -1.420731707317 L -0.9409888948081786 -1.420731707317 L -1.6558132074145142 -1.420731707317 L -2.099567473090942 -1.420731707317 L -2.25 -1.420731707317 " stroke="#191919" stroke-width="0.35 px" style="stroke-width:0.35;stroke-miterlimit:4;stroke-dasharray:none;fill:none;fill-opacity:1;fill-rule: evenodd"/>
<path id="Shape2DView_nwe0007"  d="M -2.25 -1.4207317073170003 L -2.25 -1.279268292683 " stroke="#191919" stroke-width="0.35 px" style="stroke-width:0.35;stroke-miterlimit:4;stroke-dasharray:none;fill:none;fill-opacity:1;fill-rule: evenodd"/>
<path id="Shape2DView_nwe0008"  d="M -2.25 -1.279268292683 C -2.28899164237593 0.2324137437998531 -0.932757681255267 1.5889286597135472 0.5792682926830002 1.55 " stroke="#191919" stroke-width="0.35 px" style="stroke-width:0.35;stroke-miterlimit:4;stroke-dasharray:none;fill:none;fill-opacity:1;fill-rule: evenodd"/>
<path id="Shape2DView_nwe0009"  d="M -2.25 -1.420731707317 C -2.2889904987989302 -2.932535121375612 -0.9325656765589401 -4.28898331014326 0.5792682926830004 -4.25 " stroke="#191919" stroke-width="0.35 px" style="stroke-width:0.35;stroke-miterlimit:4;stroke-dasharray:none;fill:none;fill-opacity:1;fill-rule: evenodd"/>
<title>b'Shape2DView'</title>
</g>
<g id="Rectangle" transform="translate(2.370000,1.670000) scale(1,-1)">
<rect fill="#ff0000" id="origin" width="1" height="1" x="0" y="0" />
<title>b'Rectangle'</title>
</g>
</svg>