<?xml version="1.0"?>
<!DOCTYPE svg PUBLIC "-//W3C//DTD SVG 1.1//EN" "http://www.w3.org/Graphics/SVG/1.1/DTD/svg11.dtd">
<svg width="9.18mm" height="4.68mm" viewBox="0 0 9.18 4.68" xmlns="http://www.w3.org/2000/svg" version="1.1">
<g id="Shape2DView" transform="translate(2.090000,1.290000) scale(1,-1)">
<path id="Shape2DView_nwe0000"  d="M 7.0 -0.99512195122 L 7.0 -1.10487804878 " stroke="#191919" stroke-width="0.35 px" style="stroke-width:0.35;stroke-miterlimit:4;stroke-dasharray:none;fill:none;fill-opacity:1;fill-rule: evenodd"/>
<path id="Shape2DView_nwe0001"  d="M 7.0 -0.99512195122 A 2.19512 2.19512 0 0 1 4.80488 1.2" stroke="#191919" stroke-width="0.35 px" style="stroke-width:0.35;stroke-miterlimit:4;stroke-dasharray:none;fill:none;fill-opacity:1;fill-rule: evenodd"/>
<path id="Shape2DView_nwe0002"  d="M 4.80487804878 1.2 L 4.747089943930801 1.2 L 4.576623366262453 1.2 L 4.302026221785687 1.2 L 3.9370679579423866 1.2 L 3.5000491060146484 1.2 L 3.0128836160699333 1.2 L 2.5 1.2 L 1.987116383930067 1.2 L 1.4999508939853523 1.2 L 1.0629320420576136 1.2 L 0.6979737782143127 1.2 L 0.42337663373754664 1.2 L 0.25291005606919903 1.2 L 0.19512195121999998 1.2 " stroke="#191919" stroke-width="0.35 px" style="stroke-width:0.35;stroke-miterlimit:4;stroke-dasharray:none;fill:none;fill-opacity:1;fill-rule: evenodd"/>
<path id="Shape2DView_nwe0003"  d="M 7.0 -1.10487804878 A 2.19512 2.19512 0 0 0 4.80488 -3.3" stroke="#191919" stroke-width="0.35 px" style="stroke-width:0.35;stroke-miterlimit:4;stroke-dasharray:none;fill:none;fill-opacity:1;fill-rule: evenodd"/>
<path id="Shape2DView_nwe0004"  d="M 4.80487804878 -3.3 L 4.747089943930801 -3.3 L 4.576623366262453 -3.3 L 4.302026221785687 -3.3 L 3.9370679579423866 -3.3 L 3.5000491060146484 -3.3 L 3.0128836160699333 -3.3 L 2.5 -3.3 L 1.987116383930067 -3.3 L 1.4999508939853523 -3.3 L 1.0629320420576136 -3.3 L 0.6979737782143127 -3.3 L 0.42337663373754664 -3.3 L 0.25291005606919903 -3.3 L 0.19512195121999998 -3.3 " stroke="#191919" stroke-width="0.35 px" style="stroke-width:0.35;stroke-miterlimit:4;stroke-dasharray:none;fill:none;fill-opacity:1;fill-rule: evenodd"/>
<path id="Shape2DView_nwe0005"  d="M 7.0 -0.99512195122 L 6.887175604818206 -0.99512195122 L 6.5543599055608865 -0.99512195122 L 6.018241671106134 -0.99512195122 L 5.305704108364301 -0.99512195122 L 4.452476826029011 -0.99512195122 L 3.501344202803415 -0.99512195122 L 2.5000000000000004 -0.99512195122 L 1.4986557971965855 -0.99512195122 L 0.5475231739709887 -0.99512195122 L -0.3057041083643006 -0.99512195122 L -1.018241671106134 -0.99512195122 L -1.5543599055608857 -0.99512195122 L -1.8871756048182062 -0.99512195122 L -2.0 -0.99512195122 " stroke="#191919" stroke-width="0.35 px" style="stroke-width:0.35;stroke-miterlimit:4;stroke-dasharray:none;fill:none;fill-opacity:1;fill-rule: evenodd"/>
<path id="Shape2DView_nwe0006"  d="M 7.0 -1.10487804878 L 6.887175604818206 -1.10487804878 L 6.5543599055608865 -1.10487804878 L 6.018241671106134 -1.10487804878 L 5.305704108364301 -1.10487804878 L 4.452476826029011 -1.10487804878 L 3.501344202803415 -1.10487804878 L 2.5000000000000004 -1.10487804878 L 1.4986557971965855 -1.10487804878 L 0.5475231739709887 -1.10487804878 L -0.3057041083643006 -1.10487804878 L -1.018241671106134 -1.10487804878 L -1.5543599055608857 -1.10487804878 L -1.8871756048182062 -1.10487804878 L -2.0 -1.10487804878 " stroke="#191919" stroke-width="0.35 px" style="stroke-width:0.35;stroke-miterlimit:4;stroke-dasharray:none;fill:none;fill-opacity:1;fill-rule: evenodd"/>
<path id="Shape2DView_nwe0007"  d="M -2.0 -1.10487804878 L -2.0 -0.99512195122 " stroke="#191919" stroke-width="0.35 px" style="stroke-width:0.35;stroke-miterlimit:4;stroke-dasharray:none;fill:none;fill-opacity:1;fill-rule: evenodd"/>
<path id="Shape2DView_nwe0008"  d="M -2.0 -0.99512195122 C -2.0302603903263665 0.17770469713712067 -0.9780271900441007 1.2301989726632712 0.1951219512200002 1.2 " stroke="#191919" stroke-width="0.35 px" style="stroke-width:0.35;stroke-miterlimit:4;stroke-dasharray:none;fill:none;fill-opacity:1;fill-rule: evenodd"/>
<path id="Shape2DView_nwe0009"  d="M -2.0 -1.1048780487799998 C -2.0302753322242615 -2.2776571595680597 -0.9780610663011823 -3.3301959539197714 0.19512195121999998 -3.3 " stroke="#191919" stroke-width="0.35 px" style="stroke-width:0.35;stroke-miterlimit:4;stroke-dasharray:none;fill:none;fill-opacity:1;fill-rule: evenodd"/>
<title>b'Shape2DView'</title>
</g>
<g id="Rectangle" transform="translate(2.090000,1.290000) scale(1,-1)">
<rect fill="#ff0000" id="origin" width="1" height="1" x="0" y="0" />
<title>b'Rectangle'</title>
</g>
</svg>