<?xml version="1.0"?>
<!DOCTYPE svg PUBLIC "-//W3C//DTD SVG 1.1//EN" "http://www.w3.org/Graphics/SVG/1.1/DTD/svg11.dtd">
<svg width="21.93mm" height="4.7299999999999995mm" viewBox="0 0 21.93 4.7299999999999995" xmlns="http://www.w3.org/2000/svg" version="1.1">
<g id="Shape2DView" transform="translate(5.965000,1.615000) scale(1,-1)">
<path id="Shape2DView_nwe0000"  d="M 15.75 -0.6975609756100001 L 15.75 -0.8024390243899999 " stroke="#191919" stroke-width="0.35 px" style="stroke-width:0.35;stroke-miterlimit:4;stroke-dasharray:none;fill:none;fill-opacity:1;fill-rule: evenodd"/>
<path id="Shape2DView_nwe0001"  d="M 15.75 -0.69756097561 A 2.09756 2.09756 0 0 1 13.6524 1.4" stroke="#191919" stroke-width="0.35 px" style="stroke-width:0.35;stroke-miterlimit:4;stroke-dasharray:none;fill:none;fill-opacity:1;fill-rule: evenodd"/>
<path id="Shape2DView_nwe0002"  d="M 13.65243902439 1.4 L 13.435504313329078 1.4 L 12.795578192399372 1.4 L 11.764749229403067 1.4 L 10.394707492911696 1.4 L 8.75415259638901 1.4 L 6.925348812707325 1.4 L 5.000000000000001 1.4 L 3.074651187292676 1.4 L 1.2458474036109903 1.4 L -0.39470749291169493 1.4 L -1.7647492294030673 1.4 L -2.79557819239937 1.4 L -3.435504313329078 1.4 L -3.6524390243900005 1.4 " stroke="#191919" stroke-width="0.35 px" style="stroke-width:0.35;stroke-miterlimit:4;stroke-dasharray:none;fill:none;fill-opacity:1;fill-rule: evenodd"/>
<path id="Shape2DView_nwe0003"  d="M 15.75 -0.80243902439 A 2.09756 2.09756 0 0 0 13.6524 -2.9" stroke="#191919" stroke-width="0.35 px" style="stroke-width:0.35;stroke-miterlimit:4;stroke-dasharray:none;fill:none;fill-opacity:1;fill-rule: evenodd"/>
<path id="Shape2DView_nwe0004"  d="M 13.65243902439 -2.9 L 13.435504313329078 -2.9 L 12.795578192399372 -2.9 L 11.764749229403067 -2.9 L 10.394707492911696 -2.9 L 8.75415259638901 -2.9 L 6.925348812707325 -2.9 L 5.000000000000001 -2.9 L 3.074651187292676 -2.9 L 1.2458474036109903 -2.9 L -0.39470749291169493 -2.9 L -1.7647492294030673 -2.9 L -2.79557819239937 -2.9 L -3.435504313329078 -2.9 L -3.6524390243900005 -2.9 " stroke="#191919" stroke-width="0.35 px" style="stroke-width:0.35;stroke-miterlimit:4;stroke-dasharray:none;fill:none;fill-opacity:1;fill-rule: evenodd"/>
<path id="Shape2DView_nwe0005"  d="M 15.75 -0.69756097561 L 15.480475055954605 -0.69756097561 L 14.685415329951006 -0.69756097561 L 13.40468843653132 -0.69756097561 L 11.702515369981386 -0.69756097561 L 9.66425019551375 -0.69756097561 L 7.39210004003038 -0.69756097561 L 5.000000000000001 -0.69756097561 L 2.607899959969621 -0.69756097561 L 0.3357498044862508 -0.69756097561 L -1.702515369981385 -0.69756097561 L -3.4046884365313197 -0.69756097561 L -4.685415329951004 -0.69756097561 L -5.480475055954605 -0.69756097561 L -5.75 -0.69756097561 " stroke="#191919" stroke-width="0.35 px" style="stroke-width:0.35;stroke-miterlimit:4;stroke-dasharray:none;fill:none;fill-opacity:1;fill-rule: evenodd"/>
<path id="Shape2DView_nwe0006"  d="M 15.75 -0.80243902439 L 15.480475055954605 -0.80243902439 L 14.685415329951006 -0.80243902439 L 13.40468843653132 -0.80243902439 L 11.702515369981386 -0.80243902439 L 9.66425019551375 -0.80243902439 L 7.39210004003038 -0.80243902439 L 5.000000000000001 -0.80243902439 L 2.607899959969621 -0.80243902439 L 0.3357498044862508 -0.80243902439 L -1.702515369981385 -0.80243902439 L -3.4046884365313197 -0.80243902439 L -4.685415329951004 -0.80243902439 L -5.480475055954605 -0.80243902439 L -5.75 -0.80243902439 " stroke="#191919" stroke-width="0.35 px" style="stroke-width:0.35;stroke-miterlimit:4;stroke-dasharray:none;fill:none;fill-opacity:1;fill-rule: evenodd"/>
<path id="Shape2DView_nwe0007"  d="M -5.75 -0.8024390243899999 L -5.75 -0.6975609756100001 " stroke="#191919" stroke-width="0.35 px" style="stroke-width:0.35;stroke-miterlimit:4;stroke-dasharray:none;fill:none;fill-opacity:1;fill-rule: evenodd"/>
<path id="Shape2DView_nwe0008"  d="M -5.75 -0.69756097561 C -5.778915479239382 0.4231400873212082 -4.773448152831434 1.4288568217094686 -3.65243902439 1.4 " stroke="#191919" stroke-width="0.35 px" style="stroke-width:0.35;stroke-miterlimit:4;stroke-dasharray:none;fill:none;fill-opacity:1;fill-rule: evenodd"/>
<path id="Shape2DView_nwe0009"  d="M -5.75 -0.8024390243899999 C -5.77891547923946 -1.9231400873209292 -4.773448152831614 -2.92885682170947 -3.6524390243900005 -2.9000000000000004 " stroke="#191919" stroke-width="0.35 px" style="stroke-width:0.35;stroke-miterlimit:4;stroke-dasharray:none;fill:none;fill-opacity:1;fill-rule: evenodd"/>
<title>b'Shape2DView'</title>
</g>
<g id="Rectangle" transform="translate(5.965000,1.615000) scale(1,-1)">
<rect fill="#ff0000" id="origin" width="1" height="1" x="0" y="0" />
<title>b'Rectangle'</title>
</g>
</svg>