<?xml version="1.0"?>
<!DOCTYPE svg PUBLIC "-//W3C//DTD SVG 1.1//EN" "http://www.w3.org/Graphics/SVG/1.1/DTD/svg11.dtd">
<svg width="7.140000000000001mm" height="4.14mm" viewBox="0 0 7.140000000000001 4.14" xmlns="http://www.w3.org/2000/svg" version="1.1">
<g id="Shape2DView" transform="translate(1.070000,1.170000) scale(1,-1)">
<path id="Shape2DView_nwe0000"  d="M 6.0 -0.8512195121950001 L 6.0 -0.9487804878050001 " stroke="#191919" stroke-width="0.35 px" style="stroke-width:0.35;stroke-miterlimit:4;stroke-dasharray:none;fill:none;fill-opacity:1;fill-rule: evenodd"/>
<path id="Shape2DView_nwe0001"  d="M 6.0 -0.851219512195 A 1.95122 1.95122 0 0 1 4.04878 1.1" stroke="#191919" stroke-width="0.35 px" style="stroke-width:0.35;stroke-miterlimit:4;stroke-dasharray:none;fill:none;fill-opacity:1;fill-rule: evenodd"/>
<path id="Shape2DView_nwe0002"  d="M 4.048780487805 1.1 L 4.009949327403675 1.1 L 3.8954030027270274 1.1 L 3.7108853447981414 1.1 L 3.465648839464212 1.1 L 3.1719906691211492 1.1 L 2.8446360806396846 1.1 L 2.5 1.1 L 2.1553639193603154 1.1 L 1.8280093308788512 1.1 L 1.534351160535788 1.1 L 1.2891146552018584 1.1 L 1.1045969972729728 1.1 L 0.990050672596325 1.1 L 0.951219512195 1.1 " stroke="#191919" stroke-width="0.35 px" style="stroke-width:0.35;stroke-miterlimit:4;stroke-dasharray:none;fill:none;fill-opacity:1;fill-rule: evenodd"/>
<path id="Shape2DView_nwe0003"  d="M 6.0 -0.948780487805 A 1.95122 1.95122 0 0 0 4.04878 -2.9" stroke="#191919" stroke-width="0.35 px" style="stroke-width:0.35;stroke-miterlimit:4;stroke-dasharray:none;fill:none;fill-opacity:1;fill-rule: evenodd"/>
<path id="Shape2DView_nwe0004"  d="M 4.048780487805 -2.9 L 4.009949327403675 -2.9 L 3.8954030027270274 -2.9 L 3.7108853447981414 -2.9 L 3.465648839464212 -2.9 L 3.1719906691211492 -2.9 L 2.8446360806396846 -2.9 L 2.5 -2.9 L 2.1553639193603154 -2.9 L 1.8280093308788512 -2.9 L 1.534351160535788 -2.9 L 1.2891146552018584 -2.9 L 1.1045969972729728 -2.9 L 0.990050672596325 -2.9 L 0.951219512195 -2.9 " stroke="#191919" stroke-width="0.35 px" style="stroke-width:0.35;stroke-miterlimit:4;stroke-dasharray:none;fill:none;fill-opacity:1;fill-rule: evenodd"/>
<path id="Shape2DView_nwe0005"  d="M 6.0 -0.851219512195 L 5.912247692636383 -0.851219512195 L 5.6533910376584675 -0.851219512195 L 5.2364101886381045 -0.851219512195 L 4.682214306505568 -0.851219512195 L 4.018593086911453 -0.851219512195 L 3.2788232688471006 -0.851219512195 L 2.5 -0.851219512195 L 1.7211767311528998 -0.851219512195 L 0.9814069130885468 -0.851219512195 L 0.31778569349443275 -0.851219512195 L -0.23641018863810448 -0.851219512195 L -0.6533910376584666 -0.851219512195 L -0.9122476926363827 -0.851219512195 L -1.0 -0.851219512195 " stroke="#191919" stroke-width="0.35 px" style="stroke-width:0.35;stroke-miterlimit:4;stroke-dasharray:none;fill:none;fill-opacity:1;fill-rule: evenodd"/>
<path id="Shape2DView_nwe0006"  d="M 6.0 -0.948780487805 L 5.912247692636383 -0.948780487805 L 5.6533910376584675 -0.948780487805 L 5.2364101886381045 -0.948780487805 L 4.682214306505568 -0.948780487805 L 4.018593086911453 -0.948780487805 L 3.2788232688471006 -0.948780487805 L 2.5 -0.948780487805 L 1.7211767311528998 -0.948780487805 L 0.9814069130885468 -0.948780487805 L 0.31778569349443275 -0.948780487805 L -0.23641018863810448 -0.948780487805 L -0.6533910376584666 -0.948780487805 L -0.9122476926363827 -0.948780487805 L -1.0 -0.948780487805 " stroke="#191919" stroke-width="0.35 px" style="stroke-width:0.35;stroke-miterlimit:4;stroke-dasharray:none;fill:none;fill-opacity:1;fill-rule: evenodd"/>
<path id="Shape2DView_nwe0007"  d="M -1.0 -0.9487804878050001 L -1.0 -0.8512195121950001 " stroke="#191919" stroke-width="0.35 px" style="stroke-width:0.35;stroke-miterlimit:4;stroke-dasharray:none;fill:none;fill-opacity:1;fill-rule: evenodd"/>
<path id="Shape2DView_nwe0008"  d="M -1.0 -0.851219512195 C -1.0268791738572005 0.19142468439242596 -0.09142468439193391 1.1268791738571828 0.9512195121950002 1.1 " stroke="#191919" stroke-width="0.35 px" style="stroke-width:0.35;stroke-miterlimit:4;stroke-dasharray:none;fill:none;fill-opacity:1;fill-rule: evenodd"/>
<path id="Shape2DView_nwe0009"  d="M -1.0 -0.9487804878050001 C -1.0268791738571048 -1.9914246843925143 -0.09142468439190427 -2.9268791738572006 0.9512195121950002 -2.8999999999999995 " stroke="#191919" stroke-width="0.35 px" style="stroke-width:0.35;stroke-miterlimit:4;stroke-dasharray:none;fill:none;fill-opacity:1;fill-rule: evenodd"/>
<title>b'Shape2DView'</title>
</g>
<g id="Rectangle" transform="translate(1.070000,1.170000) scale(1,-1)">
<rect fill="#ff0000" id="origin" width="1" height="1" x="0" y="0" />
<title>b'Rectangle'</title>
</g>
</svg>