<?xml version="1.0"?>
<!DOCTYPE svg PUBLIC "-//W3C//DTD SVG 1.1//EN" "http://www.w3.org/Graphics/SVG/1.1/DTD/svg11.dtd">
<svg width="9.18mm" height="5.58mm" viewBox="0 0 9.18 5.58" xmlns="http://www.w3.org/2000/svg" version="1.1">
<g id="Shape2DView" transform="translate(2.090000,1.390000) scale(1,-1)">
<path id="Shape2DView_nwe0000"  d="M 7.0 -1.334146341463 L 7.0 -1.465853658537 " stroke="#191919" stroke-width="0.35 px" style="stroke-width:0.35;stroke-miterlimit:4;stroke-dasharray:none;fill:none;fill-opacity:1;fill-rule: evenodd"/>
<path id="Shape2DView_nwe0001"  d="M 7.0 -1.334146341463 A 2.63415 2.63415 0 0 1 4.36585 1.3" stroke="#191919" stroke-width="0.35 px" style="stroke-width:0.35;stroke-miterlimit:4;stroke-dasharray:none;fill:none;fill-opacity:1;fill-rule: evenodd"/>
<path id="Shape2DView_nwe0002"  d="M 4.3658536585370005 1.3 L 4.319072811754294 1.3 L 4.181076058403668 1.3 L 3.95878313192238 1.3 L 3.6633407278586274 1.3 L 3.309563562012209 1.3 L 2.9151914987234595 1.3 L 2.5 1.3 L 2.084808501276541 1.3 L 1.690436437987791 1.3 L 1.3366592721413728 1.3 L 1.0412168680776202 1.3 L 0.8189239415963323 1.3 L 0.6809271882457053 1.3 L 0.634146341463 1.3 " stroke="#191919" stroke-width="0.35 px" style="stroke-width:0.35;stroke-miterlimit:4;stroke-dasharray:none;fill:none;fill-opacity:1;fill-rule: evenodd"/>
<path id="Shape2DView_nwe0003"  d="M 7.0 -1.465853658537 A 2.63415 2.63415 0 0 0 4.36585 -4.1" stroke="#191919" stroke-width="0.35 px" style="stroke-width:0.35;stroke-miterlimit:4;stroke-dasharray:none;fill:none;fill-opacity:1;fill-rule: evenodd"/>
<path id="Shape2DView_nwe0004"  d="M 4.3658536585370005 -4.1 L 4.319072811754294 -4.1 L 4.181076058403668 -4.1 L 3.95878313192238 -4.1 L 3.6633407278586274 -4.1 L 3.309563562012209 -4.1 L 2.9151914987234595 -4.1 L 2.5 -4.1 L 2.084808501276541 -4.1 L 1.690436437987791 -4.1 L 1.3366592721413728 -4.1 L 1.0412168680776202 -4.1 L 0.8189239415963323 -4.1 L 0.6809271882457053 -4.1 L 0.634146341463 -4.1 " stroke="#191919" stroke-width="0.35 px" style="stroke-width:0.35;stroke-miterlimit:4;stroke-dasharray:none;fill:none;fill-opacity:1;fill-rule: evenodd"/>
<path id="Shape2DView_nwe0005"  d="M 7.0 -1.334146341463 L 6.887175604818206 -1.334146341463 L 6.5543599055608865 -1.334146341463 L 6.018241671106134 -1.334146341463 L 5.305704108364301 -1.334146341463 L 4.452476826029011 -1.334146341463 L 3.501344202803415 -1.334146341463 L 2.5000000000000004 -1.334146341463 L 1.4986557971965855 -1.334146341463 L 0.5475231739709887 -1.334146341463 L -0.3057041083643006 -1.334146341463 L -1.018241671106134 -1.334146341463 L -1.5543599055608857 -1.334146341463 L -1.8871756048182062 -1.334146341463 L -2.0 -1.334146341463 " stroke="#191919" stroke-width="0.35 px" style="stroke-width:0.35;stroke-miterlimit:4;stroke-dasharray:none;fill:none;fill-opacity:1;fill-rule: evenodd"/>
<path id="Shape2DView_nwe0006"  d="M 7.0 -1.465853658537 L 6.887175604818206 -1.465853658537 L 6.5543599055608865 -1.465853658537 L 6.018241671106134 -1.465853658537 L 5.305704108364301 -1.465853658537 L 4.452476826029011 -1.465853658537 L 3.501344202803415 -1.465853658537 L 2.5000000000000004 -1.465853658537 L 1.4986557971965855 -1.465853658537 L 0.5475231739709887 -1.465853658537 L -0.3057041083643006 -1.465853658537 L -1.018241671106134 -1.465853658537 L -1.5543599055608857 -1.465853658537 L -1.8871756048182062 -1.465853658537 L -2.0 -1.465853658537 " stroke="#191919" stroke-width="0.35 px" style="stroke-width:0.35;stroke-miterlimit:4;stroke-dasharray:none;fill:none;fill-opacity:1;fill-rule: evenodd"/>
<path id="Shape2DView_nwe0007"  d="M -2.0 -1.465853658537 L -2.0 -1.334146341463 " stroke="#191919" stroke-width="0.35 px" style="stroke-width:0.35;stroke-miterlimit:4;stroke-dasharray:none;fill:none;fill-opacity:1;fill-rule: evenodd"/>
<path id="Shape2DView_nwe0008"  d="M -1.9999999999999991 -1.334146341463 C -2.0362868780247663 0.07342332486877041 -0.7734233248690433 1.3362868780247992 0.6341463414629995 1.3000000000000003 " stroke="#191919" stroke-width="0.35 px" style="stroke-width:0.35;stroke-miterlimit:4;stroke-dasharray:none;fill:none;fill-opacity:1;fill-rule: evenodd"/>
<path id="Shape2DView_nwe0009"  d="M -2.000000000000001 -1.4658536585370001 C -2.0362868780248538 -2.873423324868881 -0.7734233248688536 -4.136286878024845 0.6341463414629978 -4.1 " stroke="#191919" stroke-width="0.35 px" style="stroke-width:0.35;stroke-miterlimit:4;stroke-dasharray:none;fill:none;fill-opacity:1;fill-rule: evenodd"/>
<title>b'Shape2DView'</title>
</g>
<g id="Rectangle" transform="translate(2.090000,1.390000) scale(1,-1)">
<rect fill="#ff0000" id="origin" width="1" height="1" x="0" y="0" />
<title>b'Rectangle'</title>
</g>
</svg>