<?xml version="1.0"?>
<!DOCTYPE svg PUBLIC "-//W3C//DTD SVG 1.1//EN" "http://www.w3.org/Graphics/SVG/1.1/DTD/svg11.dtd">
<svg width="9.18mm" height="3.58mm" viewBox="0 0 9.18 3.58" xmlns="http://www.w3.org/2000/svg" version="1.1">
<g id="Shape2DView" transform="translate(2.090000,1.165000) scale(1,-1)">
<path id="Shape2DView_nwe0000"  d="M 7.0 -0.583536585366 L 7.0 -0.666463414634 " stroke="#191919" stroke-width="0.35 px" style="stroke-width:0.35;stroke-miterlimit:4;stroke-dasharray:none;fill:none;fill-opacity:1;fill-rule: evenodd"/>
<path id="Shape2DView_nwe0001"  d="M 7.0 -0.583536585366 A 1.65854 1.65854 0 0 1 5.34146 1.075" stroke="#191919" stroke-width="0.35 px" style="stroke-width:0.35;stroke-miterlimit:4;stroke-dasharray:none;fill:none;fill-opacity:1;fill-rule: evenodd"/>
<path id="Shape2DView_nwe0002"  d="M 5.341463414634 1.075 L 5.270221994370161 1.075 L 5.060070075868937 1.075 L 4.72154555384197 1.075 L 4.271623461378994 1.075 L 3.7328647709071445 1.075 L 3.132285092827056 1.075 L 2.5 1.075 L 1.8677149071729442 1.075 L 1.2671352290928557 1.075 L 0.728376538621007 1.075 L 0.2784544461580296 1.075 L -0.06007007586893698 1.075 L -0.27022199437016114 1.075 L -0.3414634146340001 1.075 " stroke="#191919" stroke-width="0.35 px" style="stroke-width:0.35;stroke-miterlimit:4;stroke-dasharray:none;fill:none;fill-opacity:1;fill-rule: evenodd"/>
<path id="Shape2DView_nwe0003"  d="M 7.0 -0.666463414634 A 1.65854 1.65854 0 0 0 5.34146 -2.325" stroke="#191919" stroke-width="0.35 px" style="stroke-width:0.35;stroke-miterlimit:4;stroke-dasharray:none;fill:none;fill-opacity:1;fill-rule: evenodd"/>
<path id="Shape2DView_nwe0004"  d="M 5.341463414634 -2.325 L 5.270221994370161 -2.325 L 5.060070075868937 -2.325 L 4.72154555384197 -2.325 L 4.271623461378994 -2.325 L 3.7328647709071445 -2.325 L 3.132285092827056 -2.325 L 2.5 -2.325 L 1.8677149071729442 -2.325 L 1.2671352290928557 -2.325 L 0.728376538621007 -2.325 L 0.2784544461580296 -2.325 L -0.06007007586893698 -2.325 L -0.27022199437016114 -2.325 L -0.3414634146340001 -2.325 " stroke="#191919" stroke-width="0.35 px" style="stroke-width:0.35;stroke-miterlimit:4;stroke-dasharray:none;fill:none;fill-opacity:1;fill-rule: evenodd"/>
<path id="Shape2DView_nwe0005"  d="M -0.3414634146340001 -2.325 L -0.27022199437016114 -2.325 L -0.06007007586893742 -2.325 L 0.27845444615802917 -2.325 L 0.7283765386210064 -2.325 L 1.2671352290928553 -2.325 L 1.8677149071729435 -2.325 L 2.4999999999999996 -2.325 L 3.1322850928270554 -2.325 L 3.7328647709071436 -2.325 L 4.271623461378993 -2.325 L 4.72154555384197 -2.325 L 5.060070075868937 -2.325 L 5.270221994370161 -2.325 L 5.341463414634 -2.325 " stroke="#191919" stroke-width="0.35 px" style="stroke-width:0.35;stroke-miterlimit:4;stroke-dasharray:none;fill:none;fill-opacity:1;fill-rule: evenodd"/>
<path id="Shape2DView_nwe0006"  d="M 7.0 -0.583536585366 L 6.887175604818206 -0.583536585366 L 6.5543599055608865 -0.583536585366 L 6.018241671106134 -0.583536585366 L 5.305704108364301 -0.583536585366 L 4.452476826029011 -0.583536585366 L 3.501344202803415 -0.583536585366 L 2.5000000000000004 -0.583536585366 L 1.4986557971965855 -0.583536585366 L 0.5475231739709887 -0.583536585366 L -0.3057041083643006 -0.583536585366 L -1.018241671106134 -0.583536585366 L -1.5543599055608857 -0.583536585366 L -1.8871756048182062 -0.583536585366 L -2.0 -0.583536585366 " stroke="#191919" stroke-width="0.35 px" style="stroke-width:0.35;stroke-miterlimit:4;stroke-dasharray:none;fill:none;fill-opacity:1;fill-rule: evenodd"/>
<path id="Shape2DView_nwe0007"  d="M 7.0 -0.666463414634 L 6.887175604818206 -0.666463414634 L 6.5543599055608865 -0.666463414634 L 6.018241671106134 -0.666463414634 L 5.305704108364301 -0.666463414634 L 4.452476826029011 -0.666463414634 L 3.501344202803415 -0.666463414634 L 2.5000000000000004 -0.666463414634 L 1.4986557971965855 -0.666463414634 L 0.5475231739709887 -0.666463414634 L -0.3057041083643006 -0.666463414634 L -1.018241671106134 -0.666463414634 L -1.5543599055608857 -0.666463414634 L -1.8871756048182062 -0.666463414634 L -2.0 -0.666463414634 " stroke="#191919" stroke-width="0.35 px" style="stroke-width:0.35;stroke-miterlimit:4;stroke-dasharray:none;fill:none;fill-opacity:1;fill-rule: evenodd"/>
<path id="Shape2DView_nwe0008"  d="M -2.0 -0.666463414634 L -2.0 -0.583536585366 " stroke="#191919" stroke-width="0.35 px" style="stroke-width:0.35;stroke-miterlimit:4;stroke-dasharray:none;fill:none;fill-opacity:1;fill-rule: evenodd"/>
<path id="Shape2DView_nwe0009"  d="M -2.0 -0.583536585366 C -2.022871910270971 0.3025716905506461 -1.227862381102119 1.0978148869491882 -0.3414634146340001 1.075 " stroke="#191919" stroke-width="0.35 px" style="stroke-width:0.35;stroke-miterlimit:4;stroke-dasharray:none;fill:none;fill-opacity:1;fill-rule: evenodd"/>
<path id="Shape2DView_nwe0010"  d="M -2.0 -0.666463414634 C -2.022874444404112 -1.552563949695045 -1.2278674773307032 -2.3478145086626014 -0.3414634146340001 -2.325 " stroke="#191919" stroke-width="0.35 px" style="stroke-width:0.35;stroke-miterlimit:4;stroke-dasharray:none;fill:none;fill-opacity:1;fill-rule: evenodd"/>
<title>b'Shape2DView'</title>
</g>
<g id="Rectangle" transform="translate(2.090000,1.165000) scale(1,-1)">
<rect fill="#ff0000" id="origin" width="1" height="1" x="0" y="0" />
<title>b'Rectangle'</title>
</g>
</svg>