<?xml version="1.0"?>
<!DOCTYPE svg PUBLIC "-//W3C//DTD SVG 1.1//EN" "http://www.w3.org/Graphics/SVG/1.1/DTD/svg11.dtd">
<svg width="21.93mm" height="5.33mm" viewBox="0 0 21.93 5.33" xmlns="http://www.w3.org/2000/svg" version="1.1">
<g id="Shape2DView" transform="translate(5.965000,1.615000) scale(1,-1)">
<path id="Shape2DView_nwe0000"  d="M 15.75 -0.990243902439 L 15.75 -1.1097560975609997 " stroke="#191919" stroke-width="0.35 px" style="stroke-width:0.35;stroke-miterlimit:4;stroke-dasharray:none;fill:none;fill-opacity:1;fill-rule: evenodd"/>
<path id="Shape2DView_nwe0001"  d="M 15.75 -0.990243902439 A 2.39024 2.39024 0 0 1 13.3598 1.4" stroke="#191919" stroke-width="0.35 px" style="stroke-width:0.35;stroke-miterlimit:4;stroke-dasharray:none;fill:none;fill-opacity:1;fill-rule: evenodd"/>
<path id="Shape2DView_nwe0002"  d="M 13.359756097561 1.4 L 13.150159558544415 1.4 L 12.53187998715988 1.4 L 11.535920502827269 1.4 L 10.212222672855649 1.4 L 8.627162233720574 1.4 L 6.860220734476268 1.4 L 5.000000000000001 1.4 L 3.1397792655237327 1.4 L 1.3728377662794276 1.4 L -0.21222267285564733 1.4 L -1.5359205028272687 1.4 L -2.531879987159879 1.4 L -3.1501595585444147 1.4 L -3.359756097561 1.4 " stroke="#191919" stroke-width="0.35 px" style="stroke-width:0.35;stroke-miterlimit:4;stroke-dasharray:none;fill:none;fill-opacity:1;fill-rule: evenodd"/>
<path id="Shape2DView_nwe0003"  d="M 15.75 -1.109756097561 A 2.39024 2.39024 0 0 0 13.3598 -3.5" stroke="#191919" stroke-width="0.35 px" style="stroke-width:0.35;stroke-miterlimit:4;stroke-dasharray:none;fill:none;fill-opacity:1;fill-rule: evenodd"/>
<path id="Shape2DView_nwe0004"  d="M 13.359756097561 -3.5 L 13.150159558544415 -3.5 L 12.53187998715988 -3.5 L 11.535920502827269 -3.5 L 10.212222672855649 -3.5 L 8.627162233720574 -3.5 L 6.860220734476268 -3.5 L 5.000000000000001 -3.5 L 3.1397792655237327 -3.5 L 1.3728377662794276 -3.5 L -0.21222267285564733 -3.5 L -1.5359205028272687 -3.5 L -2.531879987159879 -3.5 L -3.1501595585444147 -3.5 L -3.359756097561 -3.5 " stroke="#191919" stroke-width="0.35 px" style="stroke-width:0.35;stroke-miterlimit:4;stroke-dasharray:none;fill:none;fill-opacity:1;fill-rule: evenodd"/>
<path id="Shape2DView_nwe0005"  d="M 10.45 -2.1 A 0.45 0.45 0 0 1 10.2046 -1.69921" stroke="#191919" stroke-width="0.35 px" style="stroke-width:0.35;stroke-miterlimit:4;stroke-dasharray:none;fill:none;fill-opacity:1;fill-rule: evenodd"/>
<path id="Shape2DView_nwe0006"  d="M 15.75 -0.990243902439 L 15.480475055954605 -0.990243902439 L 14.685415329951006 -0.990243902439 L 13.40468843653132 -0.990243902439 L 11.702515369981386 -0.990243902439 L 9.66425019551375 -0.990243902439 L 7.39210004003038 -0.990243902439 L 5.000000000000001 -0.990243902439 L 2.607899959969621 -0.990243902439 L 0.3357498044862508 -0.990243902439 L -1.702515369981385 -0.990243902439 L -3.4046884365313197 -0.990243902439 L -4.685415329951004 -0.990243902439 L -5.480475055954605 -0.990243902439 L -5.75 -0.990243902439 " stroke="#191919" stroke-width="0.35 px" style="stroke-width:0.35;stroke-miterlimit:4;stroke-dasharray:none;fill:none;fill-opacity:1;fill-rule: evenodd"/>
<path id="Shape2DView_nwe0007"  d="M 15.75 -1.109756097561 L 15.480475055954605 -1.109756097561 L 14.685415329951006 -1.109756097561 L 13.40468843653132 -1.109756097561 L 11.702515369981386 -1.109756097561 L 9.66425019551375 -1.109756097561 L 7.39210004003038 -1.109756097561 L 5.000000000000001 -1.109756097561 L 2.607899959969621 -1.109756097561 L 0.3357498044862508 -1.109756097561 L -1.702515369981385 -1.109756097561 L -3.4046884365313197 -1.109756097561 L -4.685415329951004 -1.109756097561 L -5.480475055954605 -1.109756097561 L -5.75 -1.109756097561 " stroke="#191919" stroke-width="0.35 px" style="stroke-width:0.35;stroke-miterlimit:4;stroke-dasharray:none;fill:none;fill-opacity:1;fill-rule: evenodd"/>
<path id="Shape2DView_nwe0009"  d="M -5.75 -1.1097560975609997 L -5.75 -0.990243902439 " stroke="#191919" stroke-width="0.35 px" style="stroke-width:0.35;stroke-miterlimit:4;stroke-dasharray:none;fill:none;fill-opacity:1;fill-rule: evenodd"/>
<path id="Shape2DView_nwe0010"  d="M -5.75 -0.990243902439 C -5.782945322062753 0.2868512357008762 -4.637171173632501 1.4328854981331058 -3.3597560975609997 1.4 " stroke="#191919" stroke-width="0.35 px" style="stroke-width:0.35;stroke-miterlimit:4;stroke-dasharray:none;fill:none;fill-opacity:1;fill-rule: evenodd"/>
<path id="Shape2DView_nwe0011"  d="M -5.75 -1.1097560975610001 C -5.782945322062623 -2.3868512357013736 -4.63717117363214 -3.532885498133128 -3.359756097561 -3.5 " stroke="#191919" stroke-width="0.35 px" style="stroke-width:0.35;stroke-miterlimit:4;stroke-dasharray:none;fill:none;fill-opacity:1;fill-rule: evenodd"/>
<title>b'Shape2DView'</title>
</g>
<g id="Rectangle" transform="translate(5.965000,1.615000) scale(1,-1)">
<rect fill="#ff0000" id="origin" width="1" height="1" x="0" y="0" />
<title>b'Rectangle'</title>
</g>
</svg>