<?xml version="1.0"?>
<!DOCTYPE svg PUBLIC "-//W3C//DTD SVG 1.1//EN" "http://www.w3.org/Graphics/SVG/1.1/DTD/svg11.dtd">
<svg width="7.140000000000001mm" height="4.64mm" viewBox="0 0 7.140000000000001 4.64" xmlns="http://www.w3.org/2000/svg" version="1.1">
<g id="Shape2DView" transform="translate(1.070000,1.270000) scale(1,-1)">
<path id="Shape2DView_nwe0000"  d="M 6.0 -0.99512195122 L 6.0 -1.10487804878 " stroke="#191919" stroke-width="0.35 px" style="stroke-width:0.35;stroke-miterlimit:4;stroke-dasharray:none;fill:none;fill-opacity:1;fill-rule: evenodd"/>
<path id="Shape2DView_nwe0001"  d="M 6.0 -0.99512195122 A 2.19512 2.19512 0 0 1 3.80488 1.2" stroke="#191919" stroke-width="0.35 px" style="stroke-width:0.35;stroke-miterlimit:4;stroke-dasharray:none;fill:none;fill-opacity:1;fill-rule: evenodd"/>
<path id="Shape2DView_nwe0002"  d="M 3.80487804878 1.2 L 3.7721620317489775 1.2 L 3.6756544983600343 1.2 L 3.520194739317658 1.2 L 3.3135781560836532 1.2 L 3.06616536689709 1.2 L 2.790362682113619 1.2 L 2.5 1.2 L 2.209637317886381 1.2 L 1.9338346331029101 1.2 L 1.686421843916347 1.2 L 1.4798052606823424 1.2 L 1.324345501639966 1.2 L 1.2278379682510228 1.2 L 1.19512195122 1.2 " stroke="#191919" stroke-width="0.35 px" style="stroke-width:0.35;stroke-miterlimit:4;stroke-dasharray:none;fill:none;fill-opacity:1;fill-rule: evenodd"/>
<path id="Shape2DView_nwe0003"  d="M 6.0 -1.10487804878 A 2.19512 2.19512 0 0 0 3.80488 -3.3" stroke="#191919" stroke-width="0.35 px" style="stroke-width:0.35;stroke-miterlimit:4;stroke-dasharray:none;fill:none;fill-opacity:1;fill-rule: evenodd"/>
<path id="Shape2DView_nwe0004"  d="M 3.80487804878 -3.3 L 3.7721620317489775 -3.3 L 3.6756544983600343 -3.3 L 3.520194739317658 -3.3 L 3.3135781560836532 -3.3 L 3.06616536689709 -3.3 L 2.790362682113619 -3.3 L 2.5 -3.3 L 2.209637317886381 -3.3 L 1.9338346331029101 -3.3 L 1.686421843916347 -3.3 L 1.4798052606823424 -3.3 L 1.324345501639966 -3.3 L 1.2278379682510228 -3.3 L 1.19512195122 -3.3 " stroke="#191919" stroke-width="0.35 px" style="stroke-width:0.35;stroke-miterlimit:4;stroke-dasharray:none;fill:none;fill-opacity:1;fill-rule: evenodd"/>
<path id="Shape2DView_nwe0005"  d="M 6.0 -0.99512195122 L 5.912247692636383 -0.99512195122 L 5.6533910376584675 -0.99512195122 L 5.2364101886381045 -0.99512195122 L 4.682214306505568 -0.99512195122 L 4.018593086911453 -0.99512195122 L 3.2788232688471006 -0.99512195122 L 2.5 -0.99512195122 L 1.7211767311528998 -0.99512195122 L 0.9814069130885468 -0.99512195122 L 0.31778569349443275 -0.99512195122 L -0.23641018863810448 -0.99512195122 L -0.6533910376584666 -0.99512195122 L -0.9122476926363827 -0.99512195122 L -1.0 -0.99512195122 " stroke="#191919" stroke-width="0.35 px" style="stroke-width:0.35;stroke-miterlimit:4;stroke-dasharray:none;fill:none;fill-opacity:1;fill-rule: evenodd"/>
<path id="Shape2DView_nwe0006"  d="M 6.0 -1.10487804878 L 5.912247692636383 -1.10487804878 L 5.6533910376584675 -1.10487804878 L 5.2364101886381045 -1.10487804878 L 4.682214306505568 -1.10487804878 L 4.018593086911453 -1.10487804878 L 3.2788232688471006 -1.10487804878 L 2.5 -1.10487804878 L 1.7211767311528998 -1.10487804878 L 0.9814069130885468 -1.10487804878 L 0.31778569349443275 -1.10487804878 L -0.23641018863810448 -1.10487804878 L -0.6533910376584666 -1.10487804878 L -0.9122476926363827 -1.10487804878 L -1.0 -1.10487804878 " stroke="#191919" stroke-width="0.35 px" style="stroke-width:0.35;stroke-miterlimit:4;stroke-dasharray:none;fill:none;fill-opacity:1;fill-rule: evenodd"/>
<path id="Shape2DView_nwe0007"  d="M -1.0 -1.10487804878 L -1.0 -0.99512195122 " stroke="#191919" stroke-width="0.35 px" style="stroke-width:0.35;stroke-miterlimit:4;stroke-dasharray:none;fill:none;fill-opacity:1;fill-rule: evenodd"/>
<path id="Shape2DView_nwe0008"  d="M -1.0 -0.99512195122 C -1.0302390681368634 0.17785277028439403 0.022147229715828498 1.2302390681374238 1.1951219512200004 1.2000000000000002 " stroke="#191919" stroke-width="0.35 px" style="stroke-width:0.35;stroke-miterlimit:4;stroke-dasharray:none;fill:none;fill-opacity:1;fill-rule: evenodd"/>
<path id="Shape2DView_nwe0009"  d="M -1.0 -1.1048780487799998 C -1.030239068136897 -2.2778527702842433 0.022147229715756722 -3.3302390681374567 1.1951219512199993 -3.3 " stroke="#191919" stroke-width="0.35 px" style="stroke-width:0.35;stroke-miterlimit:4;stroke-dasharray:none;fill:none;fill-opacity:1;fill-rule: evenodd"/>
<title>b'Shape2DView'</title>
</g>
<g id="Rectangle" transform="translate(1.070000,1.270000) scale(1,-1)">
<rect fill="#ff0000" id="origin" width="1" height="1" x="0" y="0" />
<title>b'Rectangle'</title>
</g>
</svg>