<?xml version="1.0"?>
<!DOCTYPE svg PUBLIC "-//W3C//DTD SVG 1.1//EN" "http://www.w3.org/Graphics/SVG/1.1/DTD/svg11.dtd">
<svg width="23.7048mm" height="16.876596557363122mm" viewBox="0 0 23.7048 16.876596557363122" xmlns="http://www.w3.org/2000/svg" version="1.1">
<g id="Shape2DView" transform="translate(11.852360,7.994196) scale(1,-1)">
<path id="Shape2DView_nwe0000"  d="M -10.599960000000001 -2.53184 L -10.600588779010677 -2.53184 L -10.60246720878182 -2.53184 L -10.605571666969164 -2.53184 L -10.609863113209759 -2.53184 L -10.615287580077172 -2.53184 L -10.621776851753198 -2.53184 L -10.629249321881346 -2.53184 L -10.637611019814127 -2.53184 L -10.646756792348468 -2.53184 L -10.656571626088246 -2.53184 L -10.666932093804483 -2.53184 L -10.67770790660437 -2.53184 L -10.68876355238967 -2.53184 L -10.69996 -2.53184 " stroke="#191919" stroke-width="0.35 px" style="stroke-width:0.35;stroke-miterlimit:4;stroke-dasharray:none;fill:none;fill-opacity:1;fill-rule: evenodd"/>
<path id="Shape2DView_nwe0001"  d="M -10.599960000000001 -0.50184 L -10.600588779010677 -0.50184 L -10.60246720878182 -0.50184 L -10.605571666969164 -0.50184 L -10.609863113209759 -0.50184 L -10.615287580077172 -0.50184 L -10.621776851753198 -0.50184 L -10.629249321881346 -0.50184 L -10.637611019814127 -0.50184 L -10.646756792348468 -0.50184 L -10.656571626088246 -0.50184 L -10.666932093804483 -0.50184 L -10.67770790660437 -0.50184 L -10.68876355238967 -0.50184 L -10.69996 -0.50184 " stroke="#191919" stroke-width="0.35 px" style="stroke-width:0.35;stroke-miterlimit:4;stroke-dasharray:none;fill:none;fill-opacity:1;fill-rule: evenodd"/>
<path id="Shape2DView_nwe0002"  d="M -10.59996 4.479588927149 L -10.599960000000001 -4.520411072851 " stroke="#191919" stroke-width="0.35 px" style="stroke-width:0.35;stroke-miterlimit:4;stroke-dasharray:none;fill:none;fill-opacity:1;fill-rule: evenodd"/>
<path id="Shape2DView_nwe0003"  d="M -10.69996 -2.53184 L -11.61996 -2.53184 " stroke="#191919" stroke-width="0.35 px" style="stroke-width:0.35;stroke-miterlimit:4;stroke-dasharray:none;fill:none;fill-opacity:1;fill-rule: evenodd"/>
<path id="Shape2DView_nwe0004"  d="M -11.61996 -2.53184 L -11.61996 -0.5018400000000001 " stroke="#191919" stroke-width="0.35 px" style="stroke-width:0.35;stroke-miterlimit:4;stroke-dasharray:none;fill:none;fill-opacity:1;fill-rule: evenodd"/>
<path id="Shape2DView_nwe0005"  d="M -11.61996 -0.50184 L -10.69996 -0.5018400000000002 " stroke="#191919" stroke-width="0.35 px" style="stroke-width:0.35;stroke-miterlimit:4;stroke-dasharray:none;fill:none;fill-opacity:1;fill-rule: evenodd"/>
<path id="Shape2DView_nwe0006"  d="M -9.99996 4.479588927149 L -10.067138685661984 4.479588927149 L -10.133472560373788 4.479588927149 L -10.1981274371731 4.479588927149 L -10.260290243470534 4.479588927149 L -10.319179245909202 4.479588927149 L -10.37405388111524 4.479588927149 L -10.424224068711927 4.479588927149 L -10.469058889480818 4.479588927149 L -10.50799451953697 4.479588927149 L -10.54054132074145 4.479588927149 L -10.56628999818502 4.479588927149 L -10.584916747309094 4.479588927149 L -10.596187325935945 4.479588927149 L -10.59996 4.479588927149 " stroke="#191919" stroke-width="0.35 px" style="stroke-width:0.35;stroke-miterlimit:4;stroke-dasharray:none;fill:none;fill-opacity:1;fill-rule: evenodd"/>
<path id="Shape2DView_nwe0007"  d="M -9.99996 -4.520411072851 L -10.067138685661984 -4.520411072851 L -10.133472560373788 -4.520411072851 L -10.1981274371731 -4.520411072851 L -10.260290243470534 -4.520411072851 L -10.319179245909202 -4.520411072851 L -10.37405388111524 -4.520411072851 L -10.424224068711927 -4.520411072851 L -10.469058889480818 -4.520411072851 L -10.50799451953697 -4.520411072851 L -10.54054132074145 -4.520411072851 L -10.56628999818502 -4.520411072851 L -10.584916747309094 -4.520411072851 L -10.596187325935945 -4.520411072851 L -10.59996 -4.520411072851 " stroke="#191919" stroke-width="0.35 px" style="stroke-width:0.35;stroke-miterlimit:4;stroke-dasharray:none;fill:none;fill-opacity:1;fill-rule: evenodd"/>
<path id="Shape2DView_nwe0008"  d="M -10.599960000000001 0.51816 L -10.600588779010677 0.51816 L -10.60246720878182 0.51816 L -10.605571666969164 0.51816 L -10.609863113209759 0.51816 L -10.615287580077172 0.51816 L -10.621776851753198 0.51816 L -10.629249321881346 0.51816 L -10.637611019814127 0.51816 L -10.646756792348468 0.51816 L -10.656571626088246 0.51816 L -10.666932093804483 0.51816 L -10.67770790660437 0.51816 L -10.68876355238967 0.51816 L -10.69996 0.51816 " stroke="#191919" stroke-width="0.35 px" style="stroke-width:0.35;stroke-miterlimit:4;stroke-dasharray:none;fill:none;fill-opacity:1;fill-rule: evenodd"/>
<path id="Shape2DView_nwe0009"  d="M -10.599960000000001 2.54816 L -10.600588779010677 2.54816 L -10.60246720878182 2.54816 L -10.605571666969164 2.54816 L -10.609863113209759 2.54816 L -10.615287580077172 2.54816 L -10.621776851753198 2.54816 L -10.629249321881346 2.54816 L -10.637611019814127 2.54816 L -10.646756792348468 2.54816 L -10.656571626088246 2.54816 L -10.666932093804483 2.54816 L -10.67770790660437 2.54816 L -10.68876355238967 2.54816 L -10.69996 2.54816 " stroke="#191919" stroke-width="0.35 px" style="stroke-width:0.35;stroke-miterlimit:4;stroke-dasharray:none;fill:none;fill-opacity:1;fill-rule: evenodd"/>
<path id="Shape2DView_nwe0010"  d="M 7.27004 7.34816 L -7.269959999999999 7.348160000000004 " stroke="#191919" stroke-width="0.35 px" style="stroke-width:0.35;stroke-miterlimit:4;stroke-dasharray:none;fill:none;fill-opacity:1;fill-rule: evenodd"/>
<path id="Shape2DView_nwe0011"  d="M -9.99996 -4.520411072851 L -8.81330825330336 -7.611744561772139 " stroke="#191919" stroke-width="0.35 px" style="stroke-width:0.35;stroke-miterlimit:4;stroke-dasharray:none;fill:none;fill-opacity:1;fill-rule: evenodd"/>
<path id="Shape2DView_nwe0012"  d="M -8.813308253303035 -7.611744561772014 A 1.62102 1.62102 0 0 1 -6.32369 -8.32488" stroke="#191919" stroke-width="0.35 px" style="stroke-width:0.35;stroke-miterlimit:4;stroke-dasharray:none;fill:none;fill-opacity:1;fill-rule: evenodd"/>
<path id="Shape2DView_nwe0013"  d="M 6.3237676282461655 -8.324881471459108 A 10.5 10.5 0 0 1 -6.32369 -8.32488" stroke="#191919" stroke-width="0.35 px" style="stroke-width:0.35;stroke-miterlimit:4;stroke-dasharray:none;fill:none;fill-opacity:1;fill-rule: evenodd"/>
<path id="Shape2DView_nwe0014"  d="M 6.323767628248447 -8.32488147145608 A 1.62102 1.62102 0 0 1 8.81339 -7.61174" stroke="#191919" stroke-width="0.35 px" style="stroke-width:0.35;stroke-miterlimit:4;stroke-dasharray:none;fill:none;fill-opacity:1;fill-rule: evenodd"/>
<path id="Shape2DView_nwe0015"  d="M 10.00004 -4.520411072851 L 8.81338825330336 -7.611744561772139 " stroke="#191919" stroke-width="0.35 px" style="stroke-width:0.35;stroke-miterlimit:4;stroke-dasharray:none;fill:none;fill-opacity:1;fill-rule: evenodd"/>
<path id="Shape2DView_nwe0016"  d="M -4.02496 0.008160000000006 L -4.024960000000001 -4.99184 " stroke="#191919" stroke-width="0.35 px" style="stroke-width:0.35;stroke-miterlimit:4;stroke-dasharray:none;fill:none;fill-opacity:1;fill-rule: evenodd"/>
<path id="Shape2DView_nwe0017"  d="M -7.07496 -4.99184 L -7.07496 0.00816000000000816 " stroke="#191919" stroke-width="0.35 px" style="stroke-width:0.35;stroke-miterlimit:4;stroke-dasharray:none;fill:none;fill-opacity:1;fill-rule: evenodd"/>
<path id="Shape2DView_nwe0018"  d="M -4.024959999999964 0.008159999999944212 A 3 3 0 1 1 -7.07496 0.00816" stroke="#191919" stroke-width="0.35 px" style="stroke-width:0.35;stroke-miterlimit:4;stroke-dasharray:none;fill:none;fill-opacity:1;fill-rule: evenodd"/>
<path id="Shape2DView_nwe0019"  d="M 7.07504 0.008160000000004 L 7.0750399999999996 -4.99184 " stroke="#191919" stroke-width="0.35 px" style="stroke-width:0.35;stroke-miterlimit:4;stroke-dasharray:none;fill:none;fill-opacity:1;fill-rule: evenodd"/>
<path id="Shape2DView_nwe0020"  d="M 4.02504 -4.99184 L 4.025040000000001 0.008160000000006384 " stroke="#191919" stroke-width="0.35 px" style="stroke-width:0.35;stroke-miterlimit:4;stroke-dasharray:none;fill:none;fill-opacity:1;fill-rule: evenodd"/>
<path id="Shape2DView_nwe0021"  d="M 7.075040000000036 0.008159999999944212 A 3 3 0 1 1 4.02504 0.00816" stroke="#191919" stroke-width="0.35 px" style="stroke-width:0.35;stroke-miterlimit:4;stroke-dasharray:none;fill:none;fill-opacity:1;fill-rule: evenodd"/>
<path id="Shape2DView_nwe0022"  d="M 0.17504 3.19816 L 1.30004 3.1981599999999997 " stroke="#191919" stroke-width="0.35 px" style="stroke-width:0.35;stroke-miterlimit:4;stroke-dasharray:none;fill:none;fill-opacity:1;fill-rule: evenodd"/>
<path id="Shape2DView_nwe0023"  d="M 1.30004 3.19816 L 1.30004 2.84816 " stroke="#191919" stroke-width="0.35 px" style="stroke-width:0.35;stroke-miterlimit:4;stroke-dasharray:none;fill:none;fill-opacity:1;fill-rule: evenodd"/>
<path id="Shape2DView_nwe0024"  d="M 1.30004 2.84816 L 0.17504000000000008 2.8481600000000005 " stroke="#191919" stroke-width="0.35 px" style="stroke-width:0.35;stroke-miterlimit:4;stroke-dasharray:none;fill:none;fill-opacity:1;fill-rule: evenodd"/>
<path id="Shape2DView_nwe0025"  d="M 0.17504 2.84816 L 0.17503999999999975 1.72316 " stroke="#191919" stroke-width="0.35 px" style="stroke-width:0.35;stroke-miterlimit:4;stroke-dasharray:none;fill:none;fill-opacity:1;fill-rule: evenodd"/>
<path id="Shape2DView_nwe0026"  d="M 0.17504 1.72316 L -0.17495999999999998 1.72316 " stroke="#191919" stroke-width="0.35 px" style="stroke-width:0.35;stroke-miterlimit:4;stroke-dasharray:none;fill:none;fill-opacity:1;fill-rule: evenodd"/>
<path id="Shape2DView_nwe0027"  d="M -0.17496 1.72316 L -0.17495999999999975 2.84816 " stroke="#191919" stroke-width="0.35 px" style="stroke-width:0.35;stroke-miterlimit:4;stroke-dasharray:none;fill:none;fill-opacity:1;fill-rule: evenodd"/>
<path id="Shape2DView_nwe0028"  d="M -0.17496 2.84816 L -1.29996 2.8481600000000005 " stroke="#191919" stroke-width="0.35 px" style="stroke-width:0.35;stroke-miterlimit:4;stroke-dasharray:none;fill:none;fill-opacity:1;fill-rule: evenodd"/>
<path id="Shape2DView_nwe0029"  d="M -1.29996 2.84816 L -1.29996 3.19816 " stroke="#191919" stroke-width="0.35 px" style="stroke-width:0.35;stroke-miterlimit:4;stroke-dasharray:none;fill:none;fill-opacity:1;fill-rule: evenodd"/>
<path id="Shape2DView_nwe0030"  d="M -1.29996 3.19816 L -0.17496 3.1981599999999997 " stroke="#191919" stroke-width="0.35 px" style="stroke-width:0.35;stroke-miterlimit:4;stroke-dasharray:none;fill:none;fill-opacity:1;fill-rule: evenodd"/>
<path id="Shape2DView_nwe0031"  d="M -0.17496 3.19816 L -0.17495999999999975 4.32316 " stroke="#191919" stroke-width="0.35 px" style="stroke-width:0.35;stroke-miterlimit:4;stroke-dasharray:none;fill:none;fill-opacity:1;fill-rule: evenodd"/>
<path id="Shape2DView_nwe0032"  d="M -0.17496 4.32316 L 0.17503999999999997 4.32316 " stroke="#191919" stroke-width="0.35 px" style="stroke-width:0.35;stroke-miterlimit:4;stroke-dasharray:none;fill:none;fill-opacity:1;fill-rule: evenodd"/>
<path id="Shape2DView_nwe0033"  d="M 0.17504 4.32316 L 0.17503999999999975 3.19816 " stroke="#191919" stroke-width="0.35 px" style="stroke-width:0.35;stroke-miterlimit:4;stroke-dasharray:none;fill:none;fill-opacity:1;fill-rule: evenodd"/>
<path id="Shape2DView_nwe0034"  d="M -10.69996 0.51816 L -11.61996 0.5181600000000002 " stroke="#191919" stroke-width="0.35 px" style="stroke-width:0.35;stroke-miterlimit:4;stroke-dasharray:none;fill:none;fill-opacity:1;fill-rule: evenodd"/>
<path id="Shape2DView_nwe0035"  d="M -11.61996 0.51816 L -11.61996 2.54816 " stroke="#191919" stroke-width="0.35 px" style="stroke-width:0.35;stroke-miterlimit:4;stroke-dasharray:none;fill:none;fill-opacity:1;fill-rule: evenodd"/>
<path id="Shape2DView_nwe0036"  d="M -11.61996 2.54816 L -10.69996 2.54816 " stroke="#191919" stroke-width="0.35 px" style="stroke-width:0.35;stroke-miterlimit:4;stroke-dasharray:none;fill:none;fill-opacity:1;fill-rule: evenodd"/>
<path id="Shape2DView_nwe0037"  d="M -9.99996 4.479588927149 L -10.048623342020727 4.52590150590084 L -10.096674714280418 4.571631677103691 L -10.143509842892845 4.616204357321415 L -10.188539748941338 4.659059019238601 L -10.231198155230373 4.6996567406167875 L -10.270948607549885 4.737486981554298 L -10.307291220898204 4.772074004821724 L -10.339768965826 4.802982858533621 L -10.367973415846778 4.829824845920827 L -10.391549883636927 4.852262413417864 L -10.410201881434599 4.870013395594877 L -10.423694849545347 4.882854563551629 L -10.431859106066375 4.890624432150446 L -10.43459198073492 4.893225290785515 " stroke="#191919" stroke-width="0.35 px" style="stroke-width:0.35;stroke-miterlimit:4;stroke-dasharray:none;fill:none;fill-opacity:1;fill-rule: evenodd"/>
<path id="Shape2DView_nwe0038"  d="M 10.00004 -4.520411072851 L 10.067218685661985 -4.520411072851 L 10.133552560373788 -4.520411072851 L 10.198207437173101 -4.520411072851 L 10.260370243470534 -4.520411072851 L 10.319259245909203 -4.520411072851 L 10.37413388111524 -4.520411072851 L 10.424304068711928 -4.520411072851 L 10.469138889480819 -4.520411072851 L 10.50807451953697 -4.520411072851 L 10.540621320741451 -4.520411072851 L 10.56636999818502 -4.520411072851 L 10.584996747309095 -4.520411072851 L 10.596267325935946 -4.520411072851 L 10.60004 -4.520411072851 " stroke="#191919" stroke-width="0.35 px" style="stroke-width:0.35;stroke-miterlimit:4;stroke-dasharray:none;fill:none;fill-opacity:1;fill-rule: evenodd"/>
<path id="Shape2DView_nwe0039"  d="M 10.60004 -4.520411072851 L 10.600040000000002 4.479588927149 " stroke="#191919" stroke-width="0.35 px" style="stroke-width:0.35;stroke-miterlimit:4;stroke-dasharray:none;fill:none;fill-opacity:1;fill-rule: evenodd"/>
<path id="Shape2DView_nwe0040"  d="M 10.00004 4.479588927149 L 10.067218685661985 4.479588927149 L 10.133552560373788 4.479588927149 L 10.198207437173101 4.479588927149 L 10.260370243470534 4.479588927149 L 10.319259245909203 4.479588927149 L 10.37413388111524 4.479588927149 L 10.424304068711928 4.479588927149 L 10.469138889480819 4.479588927149 L 10.50807451953697 4.479588927149 L 10.540621320741451 4.479588927149 L 10.56636999818502 4.479588927149 L 10.584996747309095 4.479588927149 L 10.596267325935946 4.479588927149 L 10.60004 4.479588927149 " stroke="#191919" stroke-width="0.35 px" style="stroke-width:0.35;stroke-miterlimit:4;stroke-dasharray:none;fill:none;fill-opacity:1;fill-rule: evenodd"/>
<path id="Shape2DView_nwe0041"  d="M 10.00004 4.479588927149 L 10.048703342020728 4.52590150590084 L 10.096754714280419 4.571631677103691 L 10.143589842892846 4.616204357321415 L 10.188619748941338 4.659059019238601 L 10.231278155230374 4.6996567406167875 L 10.271028607549885 4.737486981554298 L 10.307371220898204 4.772074004821724 L 10.339848965826 4.802982858533621 L 10.368053415846779 4.829824845920827 L 10.391629883636927 4.852262413417864 L 10.4102818814346 4.870013395594877 L 10.423774849545348 4.882854563551629 L 10.431939106066375 4.890624432150446 L 10.43467198073492 4.893225290785515 " stroke="#191919" stroke-width="0.35 px" style="stroke-width:0.35;stroke-miterlimit:4;stroke-dasharray:none;fill:none;fill-opacity:1;fill-rule: evenodd"/>
<path id="Shape2DView_nwe0042"  d="M 10.434671980735 4.893225290785 L 7.704671980734215 7.761796363635252 " stroke="#191919" stroke-width="0.35 px" style="stroke-width:0.35;stroke-miterlimit:4;stroke-dasharray:none;fill:none;fill-opacity:1;fill-rule: evenodd"/>
<path id="Shape2DView_nwe0043"  d="M 7.27004 7.34816 L 7.318703342020728 7.39447257875184 L 7.366754714280417 7.440202749954691 L 7.413589842892846 7.484775430172415 L 7.458619748941338 7.527630092089601 L 7.501278155230374 7.568227813467788 L 7.541028607549885 7.606058054405298 L 7.577371220898203 7.640645077672724 L 7.609848965825999 7.671553931384621 L 7.6380534158467785 7.698395918771827 L 7.661629883636928 7.720833486268864 L 7.680281881434599 7.738584468445877 L 7.693774849545347 7.7514256364026295 L 7.7019391060663756 7.759195505001446 L 7.704671980734921 7.761796363636515 " stroke="#191919" stroke-width="0.35 px" style="stroke-width:0.35;stroke-miterlimit:4;stroke-dasharray:none;fill:none;fill-opacity:1;fill-rule: evenodd"/>
<path id="Shape2DView_nwe0044"  d="M -7.26996 7.34816 L -7.318623342020729 7.39447257875184 L -7.366674714280418 7.440202749954691 L -7.4135098428928465 7.484775430172415 L -7.458539748941338 7.527630092089601 L -7.501198155230374 7.568227813467788 L -7.540948607549885 7.606058054405298 L -7.5772912208982035 7.640645077672724 L -7.6097689658259995 7.671553931384621 L -7.637973415846779 7.698395918771827 L -7.661549883636928 7.720833486268864 L -7.680201881434599 7.738584468445877 L -7.693694849545348 7.7514256364026295 L -7.701859106066376 7.759195505001446 L -7.7045919807349215 7.761796363636515 " stroke="#191919" stroke-width="0.35 px" style="stroke-width:0.35;stroke-miterlimit:4;stroke-dasharray:none;fill:none;fill-opacity:1;fill-rule: evenodd"/>
<path id="Shape2DView_nwe0045"  d="M -7.704591980735 7.761796363636 L -10.434591980733408 4.893225290788244 " stroke="#191919" stroke-width="0.35 px" style="stroke-width:0.35;stroke-miterlimit:4;stroke-dasharray:none;fill:none;fill-opacity:1;fill-rule: evenodd"/>
<path id="Shape2DView_nwe0046"  d="M -4.024960000000001 0.008159999999944212 L -4.024960000000001 0.6552976149774752 " stroke="#191919" stroke-width="0.35 px" style="stroke-width:0.35;stroke-miterlimit:4;stroke-dasharray:none;fill:none;fill-opacity:1;fill-rule: evenodd"/>
<path id="Shape2DView_nwe0047"  d="M -7.07496 0.655297614978 L -7.07496 0.008159999999945544 " stroke="#191919" stroke-width="0.35 px" style="stroke-width:0.35;stroke-miterlimit:4;stroke-dasharray:none;fill:none;fill-opacity:1;fill-rule: evenodd"/>
<path id="Shape2DView_nwe0048"  d="M 7.075040000000001 0.008159999999944212 L 7.075040000000001 0.6552976149774752 " stroke="#191919" stroke-width="0.35 px" style="stroke-width:0.35;stroke-miterlimit:4;stroke-dasharray:none;fill:none;fill-opacity:1;fill-rule: evenodd"/>
<path id="Shape2DView_nwe0049"  d="M 4.02504 0.655297614978 L 4.02504 0.008159999999945544 " stroke="#191919" stroke-width="0.35 px" style="stroke-width:0.35;stroke-miterlimit:4;stroke-dasharray:none;fill:none;fill-opacity:1;fill-rule: evenodd"/>
<path id="Shape2DView_nwe0050"  d="M -4.02496 0.6552976149780683 L -4.02496 0.6788311080520691 L -4.02496 0.7025625838928665 L -4.02496 0.7264772901607832 L -4.02496 0.7505603606135126 L -4.02496 0.7747968243475102 L -4.02496 0.7991716151044457 L -4.02496 0.8236695806369319 L -4.02496 0.8482754921277069 L -4.02496 0.8729740536564157 L -4.02496 0.8977499117081038 L -4.02496 0.922587664717516 L -4.02496 0.9474718726432629 L -4.02496 0.9723870665659071 L -4.02496 0.997317758304 " stroke="#191919" stroke-width="0.35 px" style="stroke-width:0.35;stroke-miterlimit:4;stroke-dasharray:none;fill:none;fill-opacity:1;fill-rule: evenodd"/>
<path id="Shape2DView_nwe0051"  d="M -7.07496 0.6552976149780683 L -7.07496 0.6788311080520691 L -7.07496 0.7025625838928665 L -7.07496 0.7264772901607832 L -7.07496 0.7505603606135126 L -7.07496 0.7747968243475102 L -7.07496 0.7991716151044457 L -7.07496 0.8236695806369319 L -7.07496 0.8482754921277069 L -7.07496 0.8729740536564157 L -7.07496 0.8977499117081038 L -7.07496 0.922587664717516 L -7.07496 0.9474718726432629 L -7.07496 0.9723870665659071 L -7.07496 0.997317758304 " stroke="#191919" stroke-width="0.35 px" style="stroke-width:0.35;stroke-miterlimit:4;stroke-dasharray:none;fill:none;fill-opacity:1;fill-rule: evenodd"/>
<path id="Shape2DView_nwe0052"  d="M 7.07504 0.6552976149780683 L 7.07504 0.6788311080520691 L 7.07504 0.7025625838928665 L 7.07504 0.7264772901607832 L 7.07504 0.7505603606135126 L 7.07504 0.7747968243475102 L 7.07504 0.7991716151044457 L 7.07504 0.8236695806369319 L 7.07504 0.8482754921277069 L 7.07504 0.8729740536564157 L 7.07504 0.8977499117081038 L 7.07504 0.922587664717516 L 7.07504 0.9474718726432629 L 7.07504 0.9723870665659071 L 7.07504 0.997317758304 " stroke="#191919" stroke-width="0.35 px" style="stroke-width:0.35;stroke-miterlimit:4;stroke-dasharray:none;fill:none;fill-opacity:1;fill-rule: evenodd"/>
<path id="Shape2DView_nwe0053"  d="M 4.02504 0.6552976149780683 L 4.02504 0.6788311080520691 L 4.02504 0.7025625838928665 L 4.02504 0.7264772901607832 L 4.02504 0.7505603606135126 L 4.02504 0.7747968243475102 L 4.02504 0.7991716151044457 L 4.02504 0.8236695806369319 L 4.02504 0.8482754921277069 L 4.02504 0.8729740536564157 L 4.02504 0.8977499117081038 L 4.02504 0.922587664717516 L 4.02504 0.9474718726432629 L 4.02504 0.9723870665659071 L 4.02504 0.997317758304 " stroke="#191919" stroke-width="0.35 px" style="stroke-width:0.35;stroke-miterlimit:4;stroke-dasharray:none;fill:none;fill-opacity:1;fill-rule: evenodd"/>
<path id="Shape2DView_nwe0054"  d="M -4.02496 0.997317758304 L -4.02496 1.497317758304 " stroke="#191919" stroke-width="0.35 px" style="stroke-width:0.35;stroke-miterlimit:4;stroke-dasharray:none;fill:none;fill-opacity:1;fill-rule: evenodd"/>
<path id="Shape2DView_nwe0055"  d="M -7.07496 1.497317758304 L -7.07496 0.997317758304 " stroke="#191919" stroke-width="0.35 px" style="stroke-width:0.35;stroke-miterlimit:4;stroke-dasharray:none;fill:none;fill-opacity:1;fill-rule: evenodd"/>
<path id="Shape2DView_nwe0056"  d="M 7.07504 0.997317758304 L 7.07504 1.497317758304 " stroke="#191919" stroke-width="0.35 px" style="stroke-width:0.35;stroke-miterlimit:4;stroke-dasharray:none;fill:none;fill-opacity:1;fill-rule: evenodd"/>
<path id="Shape2DView_nwe0057"  d="M 4.02504 1.497317758304 L 4.02504 0.997317758304 " stroke="#191919" stroke-width="0.35 px" style="stroke-width:0.35;stroke-miterlimit:4;stroke-dasharray:none;fill:none;fill-opacity:1;fill-rule: evenodd"/>
<path id="Shape2DView_nwe0058"  d="M 10.60004 -0.50184 L 10.600668779010675 -0.50184 L 10.602547208781818 -0.50184 L 10.605651666969163 -0.50184 L 10.609943113209757 -0.50184 L 10.615367580077171 -0.50184 L 10.621856851753197 -0.50184 L 10.629329321881345 -0.50184 L 10.637691019814126 -0.50184 L 10.646836792348466 -0.50184 L 10.656651626088244 -0.50184 L 10.667012093804482 -0.50184 L 10.677787906604369 -0.50184 L 10.688843552389669 -0.50184 L 10.70004 -0.50184 " stroke="#191919" stroke-width="0.35 px" style="stroke-width:0.35;stroke-miterlimit:4;stroke-dasharray:none;fill:none;fill-opacity:1;fill-rule: evenodd"/>
<path id="Shape2DView_nwe0059"  d="M 10.60004 -2.53184 L 10.600668779010675 -2.53184 L 10.602547208781818 -2.53184 L 10.605651666969163 -2.53184 L 10.609943113209757 -2.53184 L 10.615367580077171 -2.53184 L 10.621856851753197 -2.53184 L 10.629329321881345 -2.53184 L 10.637691019814126 -2.53184 L 10.646836792348466 -2.53184 L 10.656651626088244 -2.53184 L 10.667012093804482 -2.53184 L 10.677787906604369 -2.53184 L 10.688843552389669 -2.53184 L 10.70004 -2.53184 " stroke="#191919" stroke-width="0.35 px" style="stroke-width:0.35;stroke-miterlimit:4;stroke-dasharray:none;fill:none;fill-opacity:1;fill-rule: evenodd"/>
<path id="Shape2DView_nwe0060"  d="M 10.60004 2.54816 L 10.600668779010675 2.54816 L 10.602547208781818 2.54816 L 10.605651666969163 2.54816 L 10.609943113209757 2.54816 L 10.615367580077171 2.54816 L 10.621856851753197 2.54816 L 10.629329321881345 2.54816 L 10.637691019814126 2.54816 L 10.646836792348466 2.54816 L 10.656651626088244 2.54816 L 10.667012093804482 2.54816 L 10.677787906604369 2.54816 L 10.688843552389669 2.54816 L 10.70004 2.54816 " stroke="#191919" stroke-width="0.35 px" style="stroke-width:0.35;stroke-miterlimit:4;stroke-dasharray:none;fill:none;fill-opacity:1;fill-rule: evenodd"/>
<path id="Shape2DView_nwe0061"  d="M 10.60004 0.51816 L 10.600668779010675 0.51816 L 10.602547208781818 0.51816 L 10.605651666969163 0.51816 L 10.609943113209757 0.51816 L 10.615367580077171 0.51816 L 10.621856851753197 0.51816 L 10.629329321881345 0.51816 L 10.637691019814126 0.51816 L 10.646836792348466 0.51816 L 10.656651626088244 0.51816 L 10.667012093804482 0.51816 L 10.677787906604369 0.51816 L 10.688843552389669 0.51816 L 10.70004 0.51816 " stroke="#191919" stroke-width="0.35 px" style="stroke-width:0.35;stroke-miterlimit:4;stroke-dasharray:none;fill:none;fill-opacity:1;fill-rule: evenodd"/>
<path id="Shape2DView_nwe0062"  d="M -4.02496 1.4973177583039998 A 1.5 1.5 0 0 1 -5.52496 2.99732" stroke="#191919" stroke-width="0.35 px" style="stroke-width:0.35;stroke-miterlimit:4;stroke-dasharray:none;fill:none;fill-opacity:1;fill-rule: evenodd"/>
<path id="Shape2DView_nwe0063"  d="M -5.52496 2.997317758304 L -5.57496 2.997317758304 " stroke="#191919" stroke-width="0.35 px" style="stroke-width:0.35;stroke-miterlimit:4;stroke-dasharray:none;fill:none;fill-opacity:1;fill-rule: evenodd"/>
<path id="Shape2DView_nwe0064"  d="M -5.57496 2.997317758304 A 1.5 1.5 0 0 1 -7.07496 1.49732" stroke="#191919" stroke-width="0.35 px" style="stroke-width:0.35;stroke-miterlimit:4;stroke-dasharray:none;fill:none;fill-opacity:1;fill-rule: evenodd"/>
<path id="Shape2DView_nwe0065"  d="M 7.07504 1.4973177583039994 A 1.5 1.5 0 0 1 5.57504 2.99732" stroke="#191919" stroke-width="0.35 px" style="stroke-width:0.35;stroke-miterlimit:4;stroke-dasharray:none;fill:none;fill-opacity:1;fill-rule: evenodd"/>
<path id="Shape2DView_nwe0066"  d="M 5.57504 2.9973177583040003 L 5.52504 2.9973177583040003 " stroke="#191919" stroke-width="0.35 px" style="stroke-width:0.35;stroke-miterlimit:4;stroke-dasharray:none;fill:none;fill-opacity:1;fill-rule: evenodd"/>
<path id="Shape2DView_nwe0067"  d="M 4.02504 1.497317758304 A 1.5 1.5 0 0 0 5.52504 2.99732" stroke="#191919" stroke-width="0.35 px" style="stroke-width:0.35;stroke-miterlimit:4;stroke-dasharray:none;fill:none;fill-opacity:1;fill-rule: evenodd"/>
<path id="Shape2DView_nwe0068"  d="M 10.70004 -2.53184 L 11.62004 -2.53184 " stroke="#191919" stroke-width="0.35 px" style="stroke-width:0.35;stroke-miterlimit:4;stroke-dasharray:none;fill:none;fill-opacity:1;fill-rule: evenodd"/>
<path id="Shape2DView_nwe0069"  d="M 11.62004 -2.53184 L 11.62004 -0.5018400000000001 " stroke="#191919" stroke-width="0.35 px" style="stroke-width:0.35;stroke-miterlimit:4;stroke-dasharray:none;fill:none;fill-opacity:1;fill-rule: evenodd"/>
<path id="Shape2DView_nwe0070"  d="M 11.62004 -0.50184 L 10.70004 -0.5018399999999997 " stroke="#191919" stroke-width="0.35 px" style="stroke-width:0.35;stroke-miterlimit:4;stroke-dasharray:none;fill:none;fill-opacity:1;fill-rule: evenodd"/>
<path id="Shape2DView_nwe0071"  d="M 10.70004 0.51816 L 11.62004 0.5181599999999997 " stroke="#191919" stroke-width="0.35 px" style="stroke-width:0.35;stroke-miterlimit:4;stroke-dasharray:none;fill:none;fill-opacity:1;fill-rule: evenodd"/>
<path id="Shape2DView_nwe0072"  d="M 11.62004 0.51816 L 11.62004 2.54816 " stroke="#191919" stroke-width="0.35 px" style="stroke-width:0.35;stroke-miterlimit:4;stroke-dasharray:none;fill:none;fill-opacity:1;fill-rule: evenodd"/>
<path id="Shape2DView_nwe0073"  d="M 11.62004 2.54816 L 10.70004 2.54816 " stroke="#191919" stroke-width="0.35 px" style="stroke-width:0.35;stroke-miterlimit:4;stroke-dasharray:none;fill:none;fill-opacity:1;fill-rule: evenodd"/>
<path id="Shape2DView_nwe0074"  d="M -10.69996 -2.53184 L -10.69996 -0.5018400000000001 " stroke="#191919" stroke-width="0.35 px" style="stroke-width:0.35;stroke-miterlimit:4;stroke-dasharray:none;fill:none;fill-opacity:1;fill-rule: evenodd"/>
<path id="Shape2DView_nwe0075"  d="M -9.99996 4.479588927149 L -9.999960000000002 -4.520411072851 " stroke="#191919" stroke-width="0.35 px" style="stroke-width:0.35;stroke-miterlimit:4;stroke-dasharray:none;fill:none;fill-opacity:1;fill-rule: evenodd"/>
<path id="Shape2DView_nwe0076"  d="M -10.69996 0.51816 L -10.69996 2.54816 " stroke="#191919" stroke-width="0.35 px" style="stroke-width:0.35;stroke-miterlimit:4;stroke-dasharray:none;fill:none;fill-opacity:1;fill-rule: evenodd"/>
<path id="Shape2DView_nwe0077"  d="M 10.00004 -4.520411072851 L 10.000040000000002 4.479588927149 " stroke="#191919" stroke-width="0.35 px" style="stroke-width:0.35;stroke-miterlimit:4;stroke-dasharray:none;fill:none;fill-opacity:1;fill-rule: evenodd"/>
<path id="Shape2DView_nwe0078"  d="M 10.00004 4.479588927149 L 7.270039999999215 7.348159999999252 " stroke="#191919" stroke-width="0.35 px" style="stroke-width:0.35;stroke-miterlimit:4;stroke-dasharray:none;fill:none;fill-opacity:1;fill-rule: evenodd"/>
<path id="Shape2DView_nwe0079"  d="M -7.26996 7.34816 L -9.999960000000785 4.479588927149747 " stroke="#191919" stroke-width="0.35 px" style="stroke-width:0.35;stroke-miterlimit:4;stroke-dasharray:none;fill:none;fill-opacity:1;fill-rule: evenodd"/>
<path id="Shape2DView_nwe0080"  d="M -4.02496 -4.99184 L -7.07496 -4.99184 " stroke="#191919" stroke-width="0.35 px" style="stroke-width:0.35;stroke-miterlimit:4;stroke-dasharray:none;fill:none;fill-opacity:1;fill-rule: evenodd"/>
<path id="Shape2DView_nwe0081"  d="M 7.07504 -4.99184 L 4.02504 -4.991839999999999 " stroke="#191919" stroke-width="0.35 px" style="stroke-width:0.35;stroke-miterlimit:4;stroke-dasharray:none;fill:none;fill-opacity:1;fill-rule: evenodd"/>
<path id="Shape2DView_nwe0082"  d="M -4.02496 -4.513011799344 L -7.07496 -4.513011799344 " stroke="#191919" stroke-width="0.35 px" style="stroke-width:0.35;stroke-miterlimit:4;stroke-dasharray:none;fill:none;fill-opacity:1;fill-rule: evenodd"/>
<path id="Shape2DView_nwe0083"  d="M 7.07504 -4.513011799344 L 4.02504 -4.5130117993439995 " stroke="#191919" stroke-width="0.35 px" style="stroke-width:0.35;stroke-miterlimit:4;stroke-dasharray:none;fill:none;fill-opacity:1;fill-rule: evenodd"/>
<path id="Shape2DView_nwe0084"  d="M -4.02496 0.655297614978 L -7.07496 0.6552976149779999 " stroke="#191919" stroke-width="0.35 px" style="stroke-width:0.35;stroke-miterlimit:4;stroke-dasharray:none;fill:none;fill-opacity:1;fill-rule: evenodd"/>
<path id="Shape2DView_nwe0085"  d="M 7.07504 0.655297614978 L 4.02504 0.6552976149780007 " stroke="#191919" stroke-width="0.35 px" style="stroke-width:0.35;stroke-miterlimit:4;stroke-dasharray:none;fill:none;fill-opacity:1;fill-rule: evenodd"/>
<path id="Shape2DView_nwe0086"  d="M -4.02496 0.997317758304 L -7.07496 0.9973177583039999 " stroke="#191919" stroke-width="0.35 px" style="stroke-width:0.35;stroke-miterlimit:4;stroke-dasharray:none;fill:none;fill-opacity:1;fill-rule: evenodd"/>
<path id="Shape2DView_nwe0087"  d="M 7.07504 0.997317758304 L 4.02504 0.9973177583040007 " stroke="#191919" stroke-width="0.35 px" style="stroke-width:0.35;stroke-miterlimit:4;stroke-dasharray:none;fill:none;fill-opacity:1;fill-rule: evenodd"/>
<path id="Shape2DView_nwe0088"  d="M 10.70004 -0.50184 L 10.70004 -2.53184 " stroke="#191919" stroke-width="0.35 px" style="stroke-width:0.35;stroke-miterlimit:4;stroke-dasharray:none;fill:none;fill-opacity:1;fill-rule: evenodd"/>
<path id="Shape2DView_nwe0089"  d="M 10.70004 2.54816 L 10.70004 0.51816 " stroke="#191919" stroke-width="0.35 px" style="stroke-width:0.35;stroke-miterlimit:4;stroke-dasharray:none;fill:none;fill-opacity:1;fill-rule: evenodd"/>
<title>b'Shape2DView'</title>
</g>
<g id="Rectangle" transform="translate(11.852360,7.994196) scale(1,-1)">
<rect fill="#ff0000" id="origin" width="1" height="1" x="0" y="0" />
<title>b'Rectangle'</title>
</g>
</svg>