<?xml version="1.0"?>
<!DOCTYPE svg PUBLIC "-//W3C//DTD SVG 1.1//EN" "http://www.w3.org/Graphics/SVG/1.1/DTD/svg11.dtd">
<svg width="32.4972mm" height="16.63720000000012mm" viewBox="0 0 32.4972 16.63720000000012" xmlns="http://www.w3.org/2000/svg" version="1.1">
<g id="Shape2DView" transform="translate(16.248600,8.318600) scale(1,-1)">
<path id="Shape2DView_nwe0000"  d="M -10.0 -8.0 L -6.222397046155 -8.0 " stroke="#191919" stroke-width="0.35 px" style="stroke-width:0.35;stroke-miterlimit:4;stroke-dasharray:none;fill:none;fill-opacity:1;fill-rule: evenodd"/>
<path id="Shape2DView_nwe0001"  d="M -6.222397046155 -8.0 L 6.222397046154999 -8.0 " stroke="#191919" stroke-width="0.35 px" style="stroke-width:0.35;stroke-miterlimit:4;stroke-dasharray:none;fill:none;fill-opacity:1;fill-rule: evenodd"/>
<path id="Shape2DView_nwe0002"  d="M 6.222397046155 -8.0 L 11.0 -8.0 " stroke="#191919" stroke-width="0.35 px" style="stroke-width:0.35;stroke-miterlimit:4;stroke-dasharray:none;fill:none;fill-opacity:1;fill-rule: evenodd"/>
<path id="Shape2DView_nwe0003"  d="M 11.0 -8.0 L 11.0 -3.5 " stroke="#191919" stroke-width="0.35 px" style="stroke-width:0.35;stroke-miterlimit:4;stroke-dasharray:none;fill:none;fill-opacity:1;fill-rule: evenodd"/>
<path id="Shape2DView_nwe0004"  d="M 10.999999999999941 -7.999999999999943 L 10.998616686176456 -7.998616686176457 L 10.994484140679944 -7.994484140679946 L 10.987654332667786 -7.987654332667787 L 10.97821315093848 -7.978213150938481 L 10.966279323830173 -7.966279323830174 L 10.95200292614292 -7.952002926142922 L 10.935563491861 -7.935563491861 L 10.917167756408885 -7.917167756408886 L 10.897047056833342 -7.897047056833344 L 10.875454422605838 -7.875454422605838 L 10.852661393630116 -7.852661393630118 L 10.828954605470376 -7.8289546054703765 L 10.80463218474272 -7.804632184742721 L 10.78 -7.78 " stroke="#191919" stroke-width="0.35 px" style="stroke-width:0.35;stroke-miterlimit:4;stroke-dasharray:none;fill:none;fill-opacity:1;fill-rule: evenodd"/>
<path id="Shape2DView_nwe0005"  d="M 6.833566070876 -7.779999984253 Q 6.332189205147431 -7.964933644812698 6.222397046155 -8.0 " stroke="#191919" stroke-width="0.35 px" style="stroke-width:0.35;stroke-miterlimit:4;stroke-dasharray:none;fill:none;fill-opacity:1;fill-rule: evenodd"/>
<path id="Shape2DView_nwe0006"  d="M -10.0 -8.0 L -11.0 -7.0 " stroke="#191919" stroke-width="0.35 px" style="stroke-width:0.35;stroke-miterlimit:4;stroke-dasharray:none;fill:none;fill-opacity:1;fill-rule: evenodd"/>
<path id="Shape2DView_nwe0007"  d="M 6.222397046155 8.0 L -6.222397046154999 8.0 " stroke="#191919" stroke-width="0.35 px" style="stroke-width:0.35;stroke-miterlimit:4;stroke-dasharray:none;fill:none;fill-opacity:1;fill-rule: evenodd"/>
<path id="Shape2DView_nwe0008"  d="M 10.018751847814 0.5 L 10.018751847814 1.5 " stroke="#191919" stroke-width="0.35 px" style="stroke-width:0.35;stroke-miterlimit:4;stroke-dasharray:none;fill:none;fill-opacity:1;fill-rule: evenodd"/>
<path id="Shape2DView_nwe0009"  d="M 10.018751847814 -1.5 L 10.018751847814 -0.5 " stroke="#191919" stroke-width="0.35 px" style="stroke-width:0.35;stroke-miterlimit:4;stroke-dasharray:none;fill:none;fill-opacity:1;fill-rule: evenodd"/>
<path id="Shape2DView_nwe0010"  d="M -6.833565954141 -7.780000086787 Q -6.332189170695523 -7.9649336118948995 -6.222397046155 -8.0 " stroke="#191919" stroke-width="0.35 px" style="stroke-width:0.35;stroke-miterlimit:4;stroke-dasharray:none;fill:none;fill-opacity:1;fill-rule: evenodd"/>
<path id="Shape2DView_nwe0011"  d="M -9.999999999999961 -7.999999999999696 L -9.999427012653255 -7.998616686176211 L -9.997715256261479 -7.994484140679705 L -9.994886257154441 -7.987654332667554 L -9.990975591637337 -7.978213150938259 L -9.986032438598066 -7.966279323829966 L -9.980118961054181 -7.952002926142729 L -9.973309524416875 -7.935563491860826 L -9.965689761302789 -7.917167756408732 L -9.957355494654173 -7.8970470568332125 L -9.94841153270979 -7.875454422605731 L -9.938970350980492 -7.8526613936300365 L -9.929150677804431 -7.828954605470321 L -9.919076001269303 -7.804632184742694 L -9.908873016278 -7.78 " stroke="#191919" stroke-width="0.35 px" style="stroke-width:0.35;stroke-miterlimit:4;stroke-dasharray:none;fill:none;fill-opacity:1;fill-rule: evenodd"/>
<path id="Shape2DView_nwe0012"  d="M 10.999999999999941 -3.4999999999999427 L 10.998616686176456 -3.4986166861764563 L 10.994484140679944 -3.4944841406799454 L 10.987654332667786 -3.4876543326677867 L 10.97821315093848 -3.4782131509384806 L 10.966279323830173 -3.466279323830174 L 10.95200292614292 -3.4520029261429217 L 10.935563491861 -3.435563491861 L 10.917167756408885 -3.4171677564088854 L 10.897047056833342 -3.3970470568333435 L 10.875454422605838 -3.375454422605838 L 10.852661393630116 -3.3526613936301177 L 10.828954605470376 -3.3289546054703765 L 10.80463218474272 -3.3046321847427214 L 10.78 -3.28 " stroke="#191919" stroke-width="0.35 px" style="stroke-width:0.35;stroke-miterlimit:4;stroke-dasharray:none;fill:none;fill-opacity:1;fill-rule: evenodd"/>
<path id="Shape2DView_nwe0013"  d="M 11.0 -3.5 L 14.2 -3.5 " stroke="#191919" stroke-width="0.35 px" style="stroke-width:0.35;stroke-miterlimit:4;stroke-dasharray:none;fill:none;fill-opacity:1;fill-rule: evenodd"/>
<path id="Shape2DView_nwe0014"  d="M 10.135 -2.482359061871982e-15 A 10.135 10.135 0 0 0 6.2224 -8" stroke="#191919" stroke-width="0.35 px" style="stroke-width:0.35;stroke-miterlimit:4;stroke-dasharray:none;fill:none;fill-opacity:1;fill-rule: evenodd"/>
<path id="Shape2DView_nwe0015"  d="M 11.0 8.0 L 6.222397046155 8.0 " stroke="#191919" stroke-width="0.35 px" style="stroke-width:0.35;stroke-miterlimit:4;stroke-dasharray:none;fill:none;fill-opacity:1;fill-rule: evenodd"/>
<path id="Shape2DView_nwe0016"  d="M -6.222397046155 8.0 L -11.0 8.0 " stroke="#191919" stroke-width="0.35 px" style="stroke-width:0.35;stroke-miterlimit:4;stroke-dasharray:none;fill:none;fill-opacity:1;fill-rule: evenodd"/>
<path id="Shape2DView_nwe0017"  d="M 6.222397046156976 7.999999999998559 A 10.135 10.135 0 0 0 10.135 1.77636e-15" stroke="#191919" stroke-width="0.35 px" style="stroke-width:0.35;stroke-miterlimit:4;stroke-dasharray:none;fill:none;fill-opacity:1;fill-rule: evenodd"/>
<path id="Shape2DView_nwe0018"  d="M 6.833566052866 7.78 Q 6.332189199828752 7.964933639795593 6.222397046155 8.0 " stroke="#191919" stroke-width="0.35 px" style="stroke-width:0.35;stroke-miterlimit:4;stroke-dasharray:none;fill:none;fill-opacity:1;fill-rule: evenodd"/>
<path id="Shape2DView_nwe0019"  d="M -10.78 -6.908873016278 L -10.804632184742694 -6.919076001269304 L -10.82895460547032 -6.929150677804433 L -10.852661393630036 -6.938970350980493 L -10.87545442260573 -6.948411532709789 L -10.89704705683321 -6.957355494654174 L -10.91716775640873 -6.96568976130279 L -10.935563491860824 -6.973309524416876 L -10.952002926142727 -6.980118961054181 L -10.966279323829964 -6.986032438598067 L -10.978213150938258 -6.990975591637338 L -10.987654332667553 -6.994886257154442 L -10.994484140679704 -6.997715256261479 L -10.998616686176211 -6.999427012653256 L -10.999999999999694 -6.999999999999962 " stroke="#191919" stroke-width="0.35 px" style="stroke-width:0.35;stroke-miterlimit:4;stroke-dasharray:none;fill:none;fill-opacity:1;fill-rule: evenodd"/>
<path id="Shape2DView_nwe0020"  d="M -11.0 -3.5 L -11.0 -7.0 " stroke="#191919" stroke-width="0.35 px" style="stroke-width:0.35;stroke-miterlimit:4;stroke-dasharray:none;fill:none;fill-opacity:1;fill-rule: evenodd"/>
<path id="Shape2DView_nwe0021"  d="M -9.835 1.5 L -9.885 1.5 " stroke="#191919" stroke-width="0.35 px" style="stroke-width:0.35;stroke-miterlimit:4;stroke-dasharray:none;fill:none;fill-opacity:1;fill-rule: evenodd"/>
<path id="Shape2DView_nwe0022"  d="M -8.835 1.5 L -9.835 1.5 " stroke="#191919" stroke-width="0.35 px" style="stroke-width:0.35;stroke-miterlimit:4;stroke-dasharray:none;fill:none;fill-opacity:1;fill-rule: evenodd"/>
<path id="Shape2DView_nwe0023"  d="M -9.885 1.5 L -9.885 -1.5 " stroke="#191919" stroke-width="0.35 px" style="stroke-width:0.35;stroke-miterlimit:4;stroke-dasharray:none;fill:none;fill-opacity:1;fill-rule: evenodd"/>
<path id="Shape2DView_nwe0024"  d="M -9.835 -1.5 L -8.835 -1.5 " stroke="#191919" stroke-width="0.35 px" style="stroke-width:0.35;stroke-miterlimit:4;stroke-dasharray:none;fill:none;fill-opacity:1;fill-rule: evenodd"/>
<path id="Shape2DView_nwe0025"  d="M -9.885 -1.5 L -9.835 -1.5 " stroke="#191919" stroke-width="0.35 px" style="stroke-width:0.35;stroke-miterlimit:4;stroke-dasharray:none;fill:none;fill-opacity:1;fill-rule: evenodd"/>
<path id="Shape2DView_nwe0026"  d="M 9.785 1.5 L 9.785 -1.5 " stroke="#191919" stroke-width="0.35 px" style="stroke-width:0.35;stroke-miterlimit:4;stroke-dasharray:none;fill:none;fill-opacity:1;fill-rule: evenodd"/>
<path id="Shape2DView_nwe0027"  d="M 9.785000000000187 -0.5 L 6.445319530102537 -0.5 " stroke="#191919" stroke-width="0.35 px" style="stroke-width:0.35;stroke-miterlimit:4;stroke-dasharray:none;fill:none;fill-opacity:1;fill-rule: evenodd"/>
<path id="Shape2DView_nwe0028"  d="M 6.41111751577 -0.5 L 6.445319530102658 -0.5 " stroke="#191919" stroke-width="0.35 px" style="stroke-width:0.35;stroke-miterlimit:4;stroke-dasharray:none;fill:none;fill-opacity:1;fill-rule: evenodd"/>
<path id="Shape2DView_nwe0029"  d="M 5.988255836416384 -0.9500000000000001 A 0.45 0.422862 90 0 0 6.41112 -0.5" stroke="#191919" stroke-width="0.35 px" style="stroke-width:0.35;stroke-miterlimit:4;stroke-dasharray:none;fill:none;fill-opacity:1;fill-rule: evenodd"/>
<path id="Shape2DView_nwe0030"  d="M 5.988255836416 -0.95 L 5.988255836416 -1.05 " stroke="#191919" stroke-width="0.35 px" style="stroke-width:0.35;stroke-miterlimit:4;stroke-dasharray:none;fill:none;fill-opacity:1;fill-rule: evenodd"/>
<path id="Shape2DView_nwe0031"  d="M 6.41111751577 -1.5 A 0.45 0.422862 90 0 0 5.98826 -1.05" stroke="#191919" stroke-width="0.35 px" style="stroke-width:0.35;stroke-miterlimit:4;stroke-dasharray:none;fill:none;fill-opacity:1;fill-rule: evenodd"/>
<path id="Shape2DView_nwe0032"  d="M 9.884999999999618 -1.5 L 10.018751847813798 -1.5 " stroke="#191919" stroke-width="0.35 px" style="stroke-width:0.35;stroke-miterlimit:4;stroke-dasharray:none;fill:none;fill-opacity:1;fill-rule: evenodd"/>
<path id="Shape2DView_nwe0033"  d="M 9.785 -1.5 L 9.885 -1.5 " stroke="#191919" stroke-width="0.35 px" style="stroke-width:0.35;stroke-miterlimit:4;stroke-dasharray:none;fill:none;fill-opacity:1;fill-rule: evenodd"/>
<path id="Shape2DView_nwe0034"  d="M 6.445319530102179 -1.5 L 9.784999999999828 -1.5 " stroke="#191919" stroke-width="0.35 px" style="stroke-width:0.35;stroke-miterlimit:4;stroke-dasharray:none;fill:none;fill-opacity:1;fill-rule: evenodd"/>
<path id="Shape2DView_nwe0035"  d="M 6.41111751577 -1.5 L 6.445319530102658 -1.5 " stroke="#191919" stroke-width="0.35 px" style="stroke-width:0.35;stroke-miterlimit:4;stroke-dasharray:none;fill:none;fill-opacity:1;fill-rule: evenodd"/>
<path id="Shape2DView_nwe0036"  d="M 10.018751847814157 -0.5 L 9.884999999999977 -0.5 " stroke="#191919" stroke-width="0.35 px" style="stroke-width:0.35;stroke-miterlimit:4;stroke-dasharray:none;fill:none;fill-opacity:1;fill-rule: evenodd"/>
<path id="Shape2DView_nwe0037"  d="M 9.885 -1.5 L 9.885 1.5 " stroke="#191919" stroke-width="0.35 px" style="stroke-width:0.35;stroke-miterlimit:4;stroke-dasharray:none;fill:none;fill-opacity:1;fill-rule: evenodd"/>
<path id="Shape2DView_nwe0038"  d="M 9.884999999999618 0.5 L 10.018751847813798 0.5 " stroke="#191919" stroke-width="0.35 px" style="stroke-width:0.35;stroke-miterlimit:4;stroke-dasharray:none;fill:none;fill-opacity:1;fill-rule: evenodd"/>
<path id="Shape2DView_nwe0039"  d="M 10.018751847814157 1.5 L 9.884999999999977 1.5 " stroke="#191919" stroke-width="0.35 px" style="stroke-width:0.35;stroke-miterlimit:4;stroke-dasharray:none;fill:none;fill-opacity:1;fill-rule: evenodd"/>
<path id="Shape2DView_nwe0040"  d="M 9.785000000000187 1.5 L 6.445319530102537 1.5 " stroke="#191919" stroke-width="0.35 px" style="stroke-width:0.35;stroke-miterlimit:4;stroke-dasharray:none;fill:none;fill-opacity:1;fill-rule: evenodd"/>
<path id="Shape2DView_nwe0041"  d="M 9.885 1.5 L 9.785 1.5 " stroke="#191919" stroke-width="0.35 px" style="stroke-width:0.35;stroke-miterlimit:4;stroke-dasharray:none;fill:none;fill-opacity:1;fill-rule: evenodd"/>
<path id="Shape2DView_nwe0042"  d="M 6.41111751577 1.5 L 6.445319530102658 1.5 " stroke="#191919" stroke-width="0.35 px" style="stroke-width:0.35;stroke-miterlimit:4;stroke-dasharray:none;fill:none;fill-opacity:1;fill-rule: evenodd"/>
<path id="Shape2DView_nwe0043"  d="M 5.988255836416384 1.05 A 0.45 0.422862 90 0 0 6.41112 1.5" stroke="#191919" stroke-width="0.35 px" style="stroke-width:0.35;stroke-miterlimit:4;stroke-dasharray:none;fill:none;fill-opacity:1;fill-rule: evenodd"/>
<path id="Shape2DView_nwe0044"  d="M 5.988255836416 1.05 L 5.988255836416 0.95 " stroke="#191919" stroke-width="0.35 px" style="stroke-width:0.35;stroke-miterlimit:4;stroke-dasharray:none;fill:none;fill-opacity:1;fill-rule: evenodd"/>
<path id="Shape2DView_nwe0045"  d="M 6.41111751577 0.49999999999999994 A 0.45 0.422862 90 0 0 5.98826 0.95" stroke="#191919" stroke-width="0.35 px" style="stroke-width:0.35;stroke-miterlimit:4;stroke-dasharray:none;fill:none;fill-opacity:1;fill-rule: evenodd"/>
<path id="Shape2DView_nwe0046"  d="M 6.41111751577 0.5 L 6.445319530102658 0.5 " stroke="#191919" stroke-width="0.35 px" style="stroke-width:0.35;stroke-miterlimit:4;stroke-dasharray:none;fill:none;fill-opacity:1;fill-rule: evenodd"/>
<path id="Shape2DView_nwe0047"  d="M 6.445319530102179 0.5 L 9.784999999999828 0.5 " stroke="#191919" stroke-width="0.35 px" style="stroke-width:0.35;stroke-miterlimit:4;stroke-dasharray:none;fill:none;fill-opacity:1;fill-rule: evenodd"/>
<path id="Shape2DView_nwe0048"  d="M -6.222397046156976 -7.999999999998559 A 10.135 10.135 0 0 0 -6.2224 8" stroke="#191919" stroke-width="0.35 px" style="stroke-width:0.35;stroke-miterlimit:4;stroke-dasharray:none;fill:none;fill-opacity:1;fill-rule: evenodd"/>
<path id="Shape2DView_nwe0049"  d="M -6.833565954142 7.780000086786 Q -6.33218917069553 7.964933611895937 -6.222397046155 8.0 " stroke="#191919" stroke-width="0.35 px" style="stroke-width:0.35;stroke-miterlimit:4;stroke-dasharray:none;fill:none;fill-opacity:1;fill-rule: evenodd"/>
<path id="Shape2DView_nwe0050"  d="M 13.98 -3.28 L 14.004632184742722 -3.304632184742721 L 14.028954605470377 -3.328954605470376 L 14.052661393630117 -3.3526613936301177 L 14.075454422605839 -3.375454422605838 L 14.097047056833343 -3.3970470568333435 L 14.117167756408886 -3.4171677564088854 L 14.135563491861001 -3.4355634918609996 L 14.152002926142922 -3.4520029261429217 L 14.166279323830175 -3.466279323830174 L 14.17821315093848 -3.4782131509384806 L 14.187654332667787 -3.4876543326677867 L 14.194484140679945 -3.4944841406799454 L 14.198616686176457 -3.4986166861764563 L 14.199999999999942 -3.4999999999999427 " stroke="#191919" stroke-width="0.35 px" style="stroke-width:0.35;stroke-miterlimit:4;stroke-dasharray:none;fill:none;fill-opacity:1;fill-rule: evenodd"/>
<path id="Shape2DView_nwe0051"  d="M 14.2 -3.5 L 14.2 3.5 " stroke="#191919" stroke-width="0.35 px" style="stroke-width:0.35;stroke-miterlimit:4;stroke-dasharray:none;fill:none;fill-opacity:1;fill-rule: evenodd"/>
<path id="Shape2DView_nwe0052"  d="M 10.78 7.78 L 10.80463218474272 7.804632184742721 L 10.828954605470376 7.8289546054703765 L 10.852661393630116 7.852661393630118 L 10.875454422605838 7.875454422605838 L 10.897047056833342 7.897047056833344 L 10.917167756408885 7.917167756408886 L 10.935563491861 7.935563491861 L 10.95200292614292 7.952002926142922 L 10.966279323830173 7.966279323830174 L 10.97821315093848 7.978213150938481 L 10.987654332667786 7.987654332667787 L 10.994484140679944 7.994484140679946 L 10.998616686176456 7.998616686176457 L 10.999999999999941 7.999999999999943 " stroke="#191919" stroke-width="0.35 px" style="stroke-width:0.35;stroke-miterlimit:4;stroke-dasharray:none;fill:none;fill-opacity:1;fill-rule: evenodd"/>
<path id="Shape2DView_nwe0053"  d="M 10.78 3.28 L 10.80463218474272 3.304632184742721 L 10.828954605470376 3.328954605470376 L 10.852661393630116 3.3526613936301177 L 10.875454422605838 3.375454422605838 L 10.897047056833342 3.3970470568333435 L 10.917167756408885 3.4171677564088854 L 10.935563491861 3.4355634918609996 L 10.95200292614292 3.4520029261429217 L 10.966279323830173 3.466279323830174 L 10.97821315093848 3.4782131509384806 L 10.987654332667786 3.4876543326677867 L 10.994484140679944 3.4944841406799454 L 10.998616686176456 3.4986166861764563 L 10.999999999999941 3.4999999999999427 " stroke="#191919" stroke-width="0.35 px" style="stroke-width:0.35;stroke-miterlimit:4;stroke-dasharray:none;fill:none;fill-opacity:1;fill-rule: evenodd"/>
<path id="Shape2DView_nwe0054"  d="M 11.0 3.5 L 11.0 8.0 " stroke="#191919" stroke-width="0.35 px" style="stroke-width:0.35;stroke-miterlimit:4;stroke-dasharray:none;fill:none;fill-opacity:1;fill-rule: evenodd"/>
<path id="Shape2DView_nwe0055"  d="M 13.98 3.28 L 14.004632184742722 3.304632184742721 L 14.028954605470377 3.328954605470376 L 14.052661393630117 3.3526613936301177 L 14.075454422605839 3.375454422605838 L 14.097047056833343 3.3970470568333435 L 14.117167756408886 3.4171677564088854 L 14.135563491861001 3.4355634918609996 L 14.152002926142922 3.4520029261429217 L 14.166279323830175 3.466279323830174 L 14.17821315093848 3.4782131509384806 L 14.187654332667787 3.4876543326677867 L 14.194484140679945 3.4944841406799454 L 14.198616686176457 3.4986166861764563 L 14.199999999999942 3.4999999999999427 " stroke="#191919" stroke-width="0.35 px" style="stroke-width:0.35;stroke-miterlimit:4;stroke-dasharray:none;fill:none;fill-opacity:1;fill-rule: evenodd"/>
<path id="Shape2DView_nwe0056"  d="M 14.2 3.5 L 11.0 3.5 " stroke="#191919" stroke-width="0.35 px" style="stroke-width:0.35;stroke-miterlimit:4;stroke-dasharray:none;fill:none;fill-opacity:1;fill-rule: evenodd"/>
<path id="Shape2DView_nwe0057"  d="M -11.0 8.0 L -11.0 3.5 " stroke="#191919" stroke-width="0.35 px" style="stroke-width:0.35;stroke-miterlimit:4;stroke-dasharray:none;fill:none;fill-opacity:1;fill-rule: evenodd"/>
<path id="Shape2DView_nwe0058"  d="M -10.78 7.78 L -10.80463218474272 7.804632184742721 L -10.828954605470376 7.8289546054703765 L -10.852661393630116 7.852661393630118 L -10.875454422605838 7.875454422605838 L -10.897047056833342 7.897047056833344 L -10.917167756408885 7.917167756408886 L -10.935563491861 7.935563491861 L -10.95200292614292 7.952002926142922 L -10.966279323830173 7.966279323830174 L -10.97821315093848 7.978213150938481 L -10.987654332667786 7.987654332667787 L -10.994484140679944 7.994484140679946 L -10.998616686176456 7.998616686176457 L -10.999999999999941 7.999999999999943 " stroke="#191919" stroke-width="0.35 px" style="stroke-width:0.35;stroke-miterlimit:4;stroke-dasharray:none;fill:none;fill-opacity:1;fill-rule: evenodd"/>
<path id="Shape2DView_nwe0059"  d="M -10.78 -3.28 L -10.80463218474272 -3.304632184742721 L -10.828954605470376 -3.328954605470376 L -10.852661393630116 -3.3526613936301177 L -10.875454422605838 -3.375454422605838 L -10.897047056833342 -3.3970470568333435 L -10.917167756408885 -3.4171677564088854 L -10.935563491861 -3.4355634918609996 L -10.95200292614292 -3.4520029261429217 L -10.966279323830173 -3.466279323830174 L -10.97821315093848 -3.4782131509384806 L -10.987654332667786 -3.4876543326677867 L -10.994484140679944 -3.4944841406799454 L -10.998616686176456 -3.4986166861764563 L -10.999999999999941 -3.4999999999999427 " stroke="#191919" stroke-width="0.35 px" style="stroke-width:0.35;stroke-miterlimit:4;stroke-dasharray:none;fill:none;fill-opacity:1;fill-rule: evenodd"/>
<path id="Shape2DView_nwe0060"  d="M -14.2 -3.5 L -11.0 -3.5 " stroke="#191919" stroke-width="0.35 px" style="stroke-width:0.35;stroke-miterlimit:4;stroke-dasharray:none;fill:none;fill-opacity:1;fill-rule: evenodd"/>
<path id="Shape2DView_nwe0061"  d="M -8.835 -1.5 L -8.835 1.5 " stroke="#191919" stroke-width="0.35 px" style="stroke-width:0.35;stroke-miterlimit:4;stroke-dasharray:none;fill:none;fill-opacity:1;fill-rule: evenodd"/>
<path id="Shape2DView_nwe0062"  d="M -9.835 1.5 L -9.835 -1.5 " stroke="#191919" stroke-width="0.35 px" style="stroke-width:0.35;stroke-miterlimit:4;stroke-dasharray:none;fill:none;fill-opacity:1;fill-rule: evenodd"/>
<path id="Shape2DView_nwe0063"  d="M 6.022457850748385 -0.9500000000000001 A 0.45 0.422862 90 0 0 6.44532 -0.5" stroke="#191919" stroke-width="0.35 px" style="stroke-width:0.35;stroke-miterlimit:4;stroke-dasharray:none;fill:none;fill-opacity:1;fill-rule: evenodd"/>
<path id="Shape2DView_nwe0064"  d="M 6.022457850749 -0.95 L 6.022457850749 -1.05 " stroke="#191919" stroke-width="0.35 px" style="stroke-width:0.35;stroke-miterlimit:4;stroke-dasharray:none;fill:none;fill-opacity:1;fill-rule: evenodd"/>
<path id="Shape2DView_nwe0065"  d="M 6.445319530102 -1.5 A 0.45 0.422862 90 0 0 6.02246 -1.05" stroke="#191919" stroke-width="0.35 px" style="stroke-width:0.35;stroke-miterlimit:4;stroke-dasharray:none;fill:none;fill-opacity:1;fill-rule: evenodd"/>
<path id="Shape2DView_nwe0066"  d="M 6.022457850748385 1.05 A 0.45 0.422862 90 0 0 6.44532 1.5" stroke="#191919" stroke-width="0.35 px" style="stroke-width:0.35;stroke-miterlimit:4;stroke-dasharray:none;fill:none;fill-opacity:1;fill-rule: evenodd"/>
<path id="Shape2DView_nwe0067"  d="M 6.022457850749 1.05 L 6.022457850749 0.95 " stroke="#191919" stroke-width="0.35 px" style="stroke-width:0.35;stroke-miterlimit:4;stroke-dasharray:none;fill:none;fill-opacity:1;fill-rule: evenodd"/>
<path id="Shape2DView_nwe0068"  d="M 6.445319530102 0.49999999999999994 A 0.45 0.422862 90 0 0 6.02246 0.95" stroke="#191919" stroke-width="0.35 px" style="stroke-width:0.35;stroke-miterlimit:4;stroke-dasharray:none;fill:none;fill-opacity:1;fill-rule: evenodd"/>
<path id="Shape2DView_nwe0069"  d="M -13.98 -3.28 L -14.004632184742722 -3.304632184742721 L -14.028954605470377 -3.328954605470376 L -14.052661393630117 -3.3526613936301177 L -14.075454422605839 -3.375454422605838 L -14.097047056833343 -3.3970470568333435 L -14.117167756408886 -3.4171677564088854 L -14.135563491861001 -3.4355634918609996 L -14.152002926142922 -3.4520029261429217 L -14.166279323830175 -3.466279323830174 L -14.17821315093848 -3.4782131509384806 L -14.187654332667787 -3.4876543326677867 L -14.194484140679945 -3.4944841406799454 L -14.198616686176457 -3.4986166861764563 L -14.199999999999942 -3.4999999999999427 " stroke="#191919" stroke-width="0.35 px" style="stroke-width:0.35;stroke-miterlimit:4;stroke-dasharray:none;fill:none;fill-opacity:1;fill-rule: evenodd"/>
<path id="Shape2DView_nwe0070"  d="M -13.98 3.28 L -14.004632184742722 3.304632184742721 L -14.028954605470377 3.328954605470376 L -14.052661393630117 3.3526613936301177 L -14.075454422605839 3.375454422605838 L -14.097047056833343 3.3970470568333435 L -14.117167756408886 3.4171677564088854 L -14.135563491861001 3.4355634918609996 L -14.152002926142922 3.4520029261429217 L -14.166279323830175 3.466279323830174 L -14.17821315093848 3.4782131509384806 L -14.187654332667787 3.4876543326677867 L -14.194484140679945 3.4944841406799454 L -14.198616686176457 3.4986166861764563 L -14.199999999999942 3.4999999999999427 " stroke="#191919" stroke-width="0.35 px" style="stroke-width:0.35;stroke-miterlimit:4;stroke-dasharray:none;fill:none;fill-opacity:1;fill-rule: evenodd"/>
<path id="Shape2DView_nwe0071"  d="M -14.2 3.5 L -14.2 -3.5 " stroke="#191919" stroke-width="0.35 px" style="stroke-width:0.35;stroke-miterlimit:4;stroke-dasharray:none;fill:none;fill-opacity:1;fill-rule: evenodd"/>
<path id="Shape2DView_nwe0072"  d="M -10.78 3.28 L -10.80463218474272 3.304632184742721 L -10.828954605470376 3.328954605470376 L -10.852661393630116 3.3526613936301177 L -10.875454422605838 3.375454422605838 L -10.897047056833342 3.3970470568333435 L -10.917167756408885 3.4171677564088854 L -10.935563491861 3.4355634918609996 L -10.95200292614292 3.4520029261429217 L -10.966279323830173 3.466279323830174 L -10.97821315093848 3.4782131509384806 L -10.987654332667786 3.4876543326677867 L -10.994484140679944 3.4944841406799454 L -10.998616686176456 3.4986166861764563 L -10.999999999999941 3.4999999999999427 " stroke="#191919" stroke-width="0.35 px" style="stroke-width:0.35;stroke-miterlimit:4;stroke-dasharray:none;fill:none;fill-opacity:1;fill-rule: evenodd"/>
<path id="Shape2DView_nwe0073"  d="M -11.0 3.5 L -14.2 3.5 " stroke="#191919" stroke-width="0.35 px" style="stroke-width:0.35;stroke-miterlimit:4;stroke-dasharray:none;fill:none;fill-opacity:1;fill-rule: evenodd"/>
<path id="Shape2DView_nwe0074"  d="M -14.2 1.805 L -15.93 1.805 " stroke="#191919" stroke-width="0.35 px" style="stroke-width:0.35;stroke-miterlimit:4;stroke-dasharray:none;fill:none;fill-opacity:1;fill-rule: evenodd"/>
<path id="Shape2DView_nwe0075"  d="M -15.93 1.805 L -15.93 -1.805 " stroke="#191919" stroke-width="0.35 px" style="stroke-width:0.35;stroke-miterlimit:4;stroke-dasharray:none;fill:none;fill-opacity:1;fill-rule: evenodd"/>
<path id="Shape2DView_nwe0076"  d="M -15.93 -1.805 L -14.2 -1.805 " stroke="#191919" stroke-width="0.35 px" style="stroke-width:0.35;stroke-miterlimit:4;stroke-dasharray:none;fill:none;fill-opacity:1;fill-rule: evenodd"/>
<path id="Shape2DView_nwe0077"  d="M 14.2 -1.805 L 15.93 -1.805 " stroke="#191919" stroke-width="0.35 px" style="stroke-width:0.35;stroke-miterlimit:4;stroke-dasharray:none;fill:none;fill-opacity:1;fill-rule: evenodd"/>
<path id="Shape2DView_nwe0078"  d="M 15.93 -1.805 L 15.93 1.805 " stroke="#191919" stroke-width="0.35 px" style="stroke-width:0.35;stroke-miterlimit:4;stroke-dasharray:none;fill:none;fill-opacity:1;fill-rule: evenodd"/>
<path id="Shape2DView_nwe0079"  d="M 15.93 1.805 L 14.2 1.805 " stroke="#191919" stroke-width="0.35 px" style="stroke-width:0.35;stroke-miterlimit:4;stroke-dasharray:none;fill:none;fill-opacity:1;fill-rule: evenodd"/>
<path id="Shape2DView_nwe0080"  d="M 6.833566052948 -7.78 L 10.78 -7.78 " stroke="#191919" stroke-width="0.35 px" style="stroke-width:0.35;stroke-miterlimit:4;stroke-dasharray:none;fill:none;fill-opacity:1;fill-rule: evenodd"/>
<path id="Shape2DView_nwe0083"  d="M -9.908873016278 -7.78 L -6.833566052948 -7.78 " stroke="#191919" stroke-width="0.35 px" style="stroke-width:0.35;stroke-miterlimit:4;stroke-dasharray:none;fill:none;fill-opacity:1;fill-rule: evenodd"/>
<path id="Shape2DView_nwe0085"  d="M 10.78 -7.78 L 10.78 -3.2799999999999994 " stroke="#191919" stroke-width="0.35 px" style="stroke-width:0.35;stroke-miterlimit:4;stroke-dasharray:none;fill:none;fill-opacity:1;fill-rule: evenodd"/>
<path id="Shape2DView_nwe0086"  d="M 10.355 -2.5362435210344725e-15 A 10.355 10.355 0 0 0 6.83357 -7.78" stroke="#191919" stroke-width="0.35 px" style="stroke-width:0.35;stroke-miterlimit:4;stroke-dasharray:none;fill:none;fill-opacity:1;fill-rule: evenodd"/>
<path id="Shape2DView_nwe0087"  d="M 6.833566052947894 7.779999999999881 A 10.355 10.355 0 0 0 10.355 3.55271e-15" stroke="#191919" stroke-width="0.35 px" style="stroke-width:0.35;stroke-miterlimit:4;stroke-dasharray:none;fill:none;fill-opacity:1;fill-rule: evenodd"/>
<path id="Shape2DView_nwe0088"  d="M 10.78 -3.28 L 13.98 -3.28 " stroke="#191919" stroke-width="0.35 px" style="stroke-width:0.35;stroke-miterlimit:4;stroke-dasharray:none;fill:none;fill-opacity:1;fill-rule: evenodd"/>
<path id="Shape2DView_nwe0089"  d="M 13.98 -3.28 L 13.98 3.2799999999999994 " stroke="#191919" stroke-width="0.35 px" style="stroke-width:0.35;stroke-miterlimit:4;stroke-dasharray:none;fill:none;fill-opacity:1;fill-rule: evenodd"/>
<path id="Shape2DView_nwe0090"  d="M 13.98 3.28 L 10.78 3.28 " stroke="#191919" stroke-width="0.35 px" style="stroke-width:0.35;stroke-miterlimit:4;stroke-dasharray:none;fill:none;fill-opacity:1;fill-rule: evenodd"/>
<path id="Shape2DView_nwe0091"  d="M 10.78 3.28 L 10.78 7.78 " stroke="#191919" stroke-width="0.35 px" style="stroke-width:0.35;stroke-miterlimit:4;stroke-dasharray:none;fill:none;fill-opacity:1;fill-rule: evenodd"/>
<path id="Shape2DView_nwe0092"  d="M 10.78 7.78 L 6.833566052948 7.78 " stroke="#191919" stroke-width="0.35 px" style="stroke-width:0.35;stroke-miterlimit:4;stroke-dasharray:none;fill:none;fill-opacity:1;fill-rule: evenodd"/>
<path id="Shape2DView_nwe0093"  d="M -9.908873016278 -7.78 L -10.78 -6.908873016278 " stroke="#191919" stroke-width="0.35 px" style="stroke-width:0.35;stroke-miterlimit:4;stroke-dasharray:none;fill:none;fill-opacity:1;fill-rule: evenodd"/>
<path id="Shape2DView_nwe0094"  d="M -10.78 -3.28 L -10.78 -6.908873016278 " stroke="#191919" stroke-width="0.35 px" style="stroke-width:0.35;stroke-miterlimit:4;stroke-dasharray:none;fill:none;fill-opacity:1;fill-rule: evenodd"/>
<path id="Shape2DView_nwe0095"  d="M -6.833566052947894 -7.779999999999881 A 10.355 10.355 0 0 0 -6.83357 7.78" stroke="#191919" stroke-width="0.35 px" style="stroke-width:0.35;stroke-miterlimit:4;stroke-dasharray:none;fill:none;fill-opacity:1;fill-rule: evenodd"/>
<path id="Shape2DView_nwe0096"  d="M -6.833566052948 7.78 L -10.78 7.78 " stroke="#191919" stroke-width="0.35 px" style="stroke-width:0.35;stroke-miterlimit:4;stroke-dasharray:none;fill:none;fill-opacity:1;fill-rule: evenodd"/>
<path id="Shape2DView_nwe0097"  d="M -10.78 7.78 L -10.78 3.2799999999999994 " stroke="#191919" stroke-width="0.35 px" style="stroke-width:0.35;stroke-miterlimit:4;stroke-dasharray:none;fill:none;fill-opacity:1;fill-rule: evenodd"/>
<path id="Shape2DView_nwe0098"  d="M -10.78 3.28 L -13.98 3.28 " stroke="#191919" stroke-width="0.35 px" style="stroke-width:0.35;stroke-miterlimit:4;stroke-dasharray:none;fill:none;fill-opacity:1;fill-rule: evenodd"/>
<path id="Shape2DView_nwe0099"  d="M -13.98 3.28 L -13.98 -3.2799999999999994 " stroke="#191919" stroke-width="0.35 px" style="stroke-width:0.35;stroke-miterlimit:4;stroke-dasharray:none;fill:none;fill-opacity:1;fill-rule: evenodd"/>
<path id="Shape2DView_nwe0100"  d="M -13.98 -3.28 L -10.78 -3.28 " stroke="#191919" stroke-width="0.35 px" style="stroke-width:0.35;stroke-miterlimit:4;stroke-dasharray:none;fill:none;fill-opacity:1;fill-rule: evenodd"/>
<path id="Shape2DView_nwe0101"  d="M 5.988255836416 -0.95 L 6.022457850748776 -0.95 " stroke="#191919" stroke-width="0.35 px" style="stroke-width:0.35;stroke-miterlimit:4;stroke-dasharray:none;fill:none;fill-opacity:1;fill-rule: evenodd"/>
<path id="Shape2DView_nwe0102"  d="M 5.988255836416 -1.05 L 6.022457850748776 -1.05 " stroke="#191919" stroke-width="0.35 px" style="stroke-width:0.35;stroke-miterlimit:4;stroke-dasharray:none;fill:none;fill-opacity:1;fill-rule: evenodd"/>
<path id="Shape2DView_nwe0103"  d="M 5.988255836416 1.05 L 6.022457850748776 1.05 " stroke="#191919" stroke-width="0.35 px" style="stroke-width:0.35;stroke-miterlimit:4;stroke-dasharray:none;fill:none;fill-opacity:1;fill-rule: evenodd"/>
<path id="Shape2DView_nwe0104"  d="M 5.988255836416 0.95 L 6.022457850748776 0.95 " stroke="#191919" stroke-width="0.35 px" style="stroke-width:0.35;stroke-miterlimit:4;stroke-dasharray:none;fill:none;fill-opacity:1;fill-rule: evenodd"/>
<path id="Shape2DView_nwe0105"  d="M 10.355 1.724453912999e-15 L 10.330367815257272 1.7203518302017698e-15 L 10.306045394529612 1.7163013334757987e-15 L 10.282338606369864 1.7123533601675687e-15 L 10.259545577394137 1.7085575583320981e-15 L 10.237952943166626 1.7049616623798438e-15 L 10.21783224359108 1.7016108927887924e-15 L 10.19943650813896 1.6985473874307136e-15 L 10.182997073857035 1.6958096716629721e-15 L 10.168720676169778 1.6934321738498073e-15 L 10.156786849061469 1.6914447924056758e-15 L 10.147345667332159 1.6898725198053432e-15 L 10.140515859319999 1.6887351282890126e-15 L 10.136383313823487 1.6880469212149316e-15 L 10.135 1.687816553186364e-15 " stroke="#191919" stroke-width="0.35 px" style="stroke-width:0.35;stroke-miterlimit:4;stroke-dasharray:none;fill:none;fill-opacity:1;fill-rule: evenodd"/>
<title>b'Shape2DView'</title>
</g>
<g id="Rectangle" transform="translate(16.248600,8.318600) scale(1,-1)">
<rect fill="#ff0000" id="origin" width="1" height="1" x="0" y="0" />
<title>b'Rectangle'</title>
</g>
</svg>