<?xml version="1.0"?>
<!DOCTYPE svg PUBLIC "-//W3C//DTD SVG 1.1//EN" "http://www.w3.org/Graphics/SVG/1.1/DTD/svg11.dtd">
<svg width="31.5996mm" height="28.360502172691326mm" viewBox="0 0 31.5996 28.360502172691326" xmlns="http://www.w3.org/2000/svg" version="1.1">
<g id="Shape2DView" transform="translate(2.209800,14.180251) scale(1,-1)">
<path id="Shape2DView_nwe0000"  d="M -1.9 2.9 L -1.9 -2.9 " stroke="#191919" stroke-width="0.35 px" style="stroke-width:0.35;stroke-miterlimit:4;stroke-dasharray:none;fill:none;fill-opacity:1;fill-rule: evenodd"/>
<path id="Shape2DView_nwe0001"  d="M 2.217453784022 2.9 L -1.9000000000000004 2.9 " stroke="#191919" stroke-width="0.35 px" style="stroke-width:0.35;stroke-miterlimit:4;stroke-dasharray:none;fill:none;fill-opacity:1;fill-rule: evenodd"/>
<path id="Shape2DView_nwe0002"  d="M -1.9 -2.9 L 2.2174537840220006 -2.9 " stroke="#191919" stroke-width="0.35 px" style="stroke-width:0.35;stroke-miterlimit:4;stroke-dasharray:none;fill:none;fill-opacity:1;fill-rule: evenodd"/>
<path id="Shape2DView_nwe0003"  d="M 25.118392216824134 -7.013362394975148 L 26.061445767795202 -7.680201955889052 " stroke="#191919" stroke-width="0.35 px" style="stroke-width:0.35;stroke-miterlimit:4;stroke-dasharray:none;fill:none;fill-opacity:1;fill-rule: evenodd"/>
<path id="Shape2DView_nwe0004"  d="M 3.40373973456 -2.9 L 3.99933484118 -2.9 " stroke="#191919" stroke-width="0.35 px" style="stroke-width:0.35;stroke-miterlimit:4;stroke-dasharray:none;fill:none;fill-opacity:1;fill-rule: evenodd"/>
<path id="Shape2DView_nwe0005"  d="M 3.9993348411801772 -2.8999999999999555 A 11.57 11.57 0 0 0 3.78707 -1.9" stroke="#191919" stroke-width="0.35 px" style="stroke-width:0.35;stroke-miterlimit:4;stroke-dasharray:none;fill:none;fill-opacity:1;fill-rule: evenodd"/>
<path id="Shape2DView_nwe0006"  d="M -0.9000000000000004 -1.9 L 3.787073118608 -1.9 " stroke="#191919" stroke-width="0.35 px" style="stroke-width:0.35;stroke-miterlimit:4;stroke-dasharray:none;fill:none;fill-opacity:1;fill-rule: evenodd"/>
<path id="Shape2DView_nwe0007"  d="M -0.9 1.8999999999999997 L -0.9 -1.9 " stroke="#191919" stroke-width="0.35 px" style="stroke-width:0.35;stroke-miterlimit:4;stroke-dasharray:none;fill:none;fill-opacity:1;fill-rule: evenodd"/>
<path id="Shape2DView_nwe0008"  d="M 3.787073118608 1.9 L -0.8999999999999999 1.9 " stroke="#191919" stroke-width="0.35 px" style="stroke-width:0.35;stroke-miterlimit:4;stroke-dasharray:none;fill:none;fill-opacity:1;fill-rule: evenodd"/>
<path id="Shape2DView_nwe0009"  d="M 3.7870731186080047 1.8999999999999984 A 11.57 11.57 0 0 0 3.99933 2.9" stroke="#191919" stroke-width="0.35 px" style="stroke-width:0.35;stroke-miterlimit:4;stroke-dasharray:none;fill:none;fill-opacity:1;fill-rule: evenodd"/>
<path id="Shape2DView_nwe0010"  d="M 3.9993348411799996 2.9 L 3.4037397345600002 2.9 " stroke="#191919" stroke-width="0.35 px" style="stroke-width:0.35;stroke-miterlimit:4;stroke-dasharray:none;fill:none;fill-opacity:1;fill-rule: evenodd"/>
<path id="Shape2DView_nwe0011"  d="M 26.061445767789493 7.680201955897132 L 25.118392216818428 7.013362394983228 " stroke="#191919" stroke-width="0.35 px" style="stroke-width:0.35;stroke-miterlimit:4;stroke-dasharray:none;fill:none;fill-opacity:1;fill-rule: evenodd"/>
<path id="Shape2DView_nwe0012"  d="M 26.532972543276898 8.013621736351924 A 13.88 13.88 0 0 0 26.533 -8.01362" stroke="#191919" stroke-width="0.35 px" style="stroke-width:0.35;stroke-miterlimit:4;stroke-dasharray:none;fill:none;fill-opacity:1;fill-rule: evenodd"/>
<path id="Shape2DView_nwe0013"  d="M 26.061445767791 7.680201955895 L 26.11424001617694 7.717533126936357 L 26.16637034625749 7.7543948368418185 L 26.217181188885167 7.790323528221662 L 26.266033568232785 7.824867376935472 L 26.312313137285244 7.857591974042867 L 26.355437903609673 7.888085788747966 L 26.394865548247974 7.91596534363793 L 26.430100245692365 7.9408800371339225 L 26.460698899178833 7.96251655250939 L 26.486276712886042 7.980602798029687 L 26.50651203096602 7.994911328663512 L 26.521150382553113 8.005262206336141 L 26.530007681882743 8.011525262755123 L 26.532972543276713 8.013621736352079 " stroke="#191919" stroke-width="0.35 px" style="stroke-width:0.35;stroke-miterlimit:4;stroke-dasharray:none;fill:none;fill-opacity:1;fill-rule: evenodd"/>
<path id="Shape2DView_nwe0014"  d="M 26.532972543276898 8.013621736351924 A 13.88 13.88 0 0 1 1.62633 2.9" stroke="#191919" stroke-width="0.35 px" style="stroke-width:0.35;stroke-miterlimit:4;stroke-dasharray:none;fill:none;fill-opacity:1;fill-rule: evenodd"/>
<path id="Shape2DView_nwe0015"  d="M 24.646865441334285 6.679942614523921 L 24.649830302728255 6.682039088120876 L 24.658687602057885 6.6883021445398585 L 24.673325953644976 6.698653022212488 L 24.693561271724956 6.712961552846313 L 24.719139085432165 6.7310477983666095 L 24.749737738918633 6.752684313742077 L 24.784972436363024 6.77759900723807 L 24.824400081001325 6.805478562128034 L 24.867524847325754 6.835972376833133 L 24.913804416378213 6.868696973940527 L 24.96265679572583 6.903240822654338 L 25.013467638353507 6.939169514034181 L 25.06559796843406 6.976031223939643 L 25.11839221682 7.013362394981 " stroke="#191919" stroke-width="0.35 px" style="stroke-width:0.35;stroke-miterlimit:4;stroke-dasharray:none;fill:none;fill-opacity:1;fill-rule: evenodd"/>
<path id="Shape2DView_nwe0016"  d="M 3.9993348411801772 2.899999999999955 A 11.57 11.57 0 0 0 24.6469 6.67994" stroke="#191919" stroke-width="0.35 px" style="stroke-width:0.35;stroke-miterlimit:4;stroke-dasharray:none;fill:none;fill-opacity:1;fill-rule: evenodd"/>
<path id="Shape2DView_nwe0017"  d="M 24.646865441333844 6.679942614523893 A 11.57 11.57 0 0 0 24.6469 -6.67994" stroke="#191919" stroke-width="0.35 px" style="stroke-width:0.35;stroke-miterlimit:4;stroke-dasharray:none;fill:none;fill-opacity:1;fill-rule: evenodd"/>
<path id="Shape2DView_nwe0018"  d="M 24.646865441333844 -6.679942614523892 A 11.57 11.57 0 0 0 3.99933 -2.9" stroke="#191919" stroke-width="0.35 px" style="stroke-width:0.35;stroke-miterlimit:4;stroke-dasharray:none;fill:none;fill-opacity:1;fill-rule: evenodd"/>
<path id="Shape2DView_nwe0019"  d="M 25.11839221682 -7.013362394981 L 25.06559796843406 -6.976031223939643 L 25.013467638353507 -6.939169514034181 L 24.96265679572583 -6.903240822654338 L 24.913804416378213 -6.868696973940527 L 24.867524847325754 -6.835972376833133 L 24.824400081001325 -6.805478562128034 L 24.784972436363024 -6.77759900723807 L 24.749737738918633 -6.752684313742077 L 24.719139085432165 -6.7310477983666095 L 24.693561271724956 -6.712961552846313 L 24.673325953644976 -6.698653022212488 L 24.658687602057885 -6.6883021445398585 L 24.649830302728255 -6.682039088120876 L 24.646865441334285 -6.679942614523921 " stroke="#191919" stroke-width="0.35 px" style="stroke-width:0.35;stroke-miterlimit:4;stroke-dasharray:none;fill:none;fill-opacity:1;fill-rule: evenodd"/>
<path id="Shape2DView_nwe0020"  d="M 26.532972543276713 -8.013621736352079 L 26.530007681882743 -8.011525262755123 L 26.521150382553113 -8.005262206336141 L 26.50651203096602 -7.994911328663512 L 26.486276712886042 -7.980602798029687 L 26.460698899178833 -7.96251655250939 L 26.430100245692365 -7.9408800371339225 L 26.394865548247974 -7.91596534363793 L 26.355437903609673 -7.888085788747966 L 26.312313137285244 -7.857591974042867 L 26.266033568232785 -7.824867376935472 L 26.217181188885167 -7.790323528221662 L 26.16637034625749 -7.7543948368418185 L 26.11424001617694 -7.717533126936357 L 26.061445767791 -7.680201955895 " stroke="#191919" stroke-width="0.35 px" style="stroke-width:0.35;stroke-miterlimit:4;stroke-dasharray:none;fill:none;fill-opacity:1;fill-rule: evenodd"/>
<path id="Shape2DView_nwe0021"  d="M 1.6263343197203906 -2.8999999999999155 A 13.88 13.88 0 0 1 26.533 -8.01362" stroke="#191919" stroke-width="0.35 px" style="stroke-width:0.35;stroke-miterlimit:4;stroke-dasharray:none;fill:none;fill-opacity:1;fill-rule: evenodd"/>
<path id="Shape2DView_nwe0022"  d="M 0.0 1.0 L 10.133333333332669 1.0 " stroke="#191919" stroke-width="0.35 px" style="stroke-width:0.35;stroke-miterlimit:4;stroke-dasharray:none;fill:none;fill-opacity:1;fill-rule: evenodd"/>
<path id="Shape2DView_nwe0023"  d="M 10.133333333333 1.0 L 19.2 1.0 " stroke="#191919" stroke-width="0.35 px" style="stroke-width:0.35;stroke-miterlimit:4;stroke-dasharray:none;fill:none;fill-opacity:1;fill-rule: evenodd"/>
<path id="Shape2DView_nwe0024"  d="M 19.2 1.0 L 20.2 1.0 " stroke="#191919" stroke-width="0.35 px" style="stroke-width:0.35;stroke-miterlimit:4;stroke-dasharray:none;fill:none;fill-opacity:1;fill-rule: evenodd"/>
<path id="Shape2DView_nwe0025"  d="M 20.2 1.0 L 20.3 1.0 " stroke="#191919" stroke-width="0.35 px" style="stroke-width:0.35;stroke-miterlimit:4;stroke-dasharray:none;fill:none;fill-opacity:1;fill-rule: evenodd"/>
<path id="Shape2DView_nwe0026"  d="M 0.0 1.0 L 0.0 -1.0 " stroke="#191919" stroke-width="0.35 px" style="stroke-width:0.35;stroke-miterlimit:4;stroke-dasharray:none;fill:none;fill-opacity:1;fill-rule: evenodd"/>
<path id="Shape2DView_nwe0027"  d="M 0.0 -1.0 L 10.133333333332669 -1.0 " stroke="#191919" stroke-width="0.35 px" style="stroke-width:0.35;stroke-miterlimit:4;stroke-dasharray:none;fill:none;fill-opacity:1;fill-rule: evenodd"/>
<path id="Shape2DView_nwe0028"  d="M 10.133333333333 -1.0 L 19.2 -1.0 " stroke="#191919" stroke-width="0.35 px" style="stroke-width:0.35;stroke-miterlimit:4;stroke-dasharray:none;fill:none;fill-opacity:1;fill-rule: evenodd"/>
<path id="Shape2DView_nwe0029"  d="M 19.2 -1.0 L 20.2 -1.0 " stroke="#191919" stroke-width="0.35 px" style="stroke-width:0.35;stroke-miterlimit:4;stroke-dasharray:none;fill:none;fill-opacity:1;fill-rule: evenodd"/>
<path id="Shape2DView_nwe0030"  d="M 20.2 -1.0 L 20.3 -1.0 " stroke="#191919" stroke-width="0.35 px" style="stroke-width:0.35;stroke-miterlimit:4;stroke-dasharray:none;fill:none;fill-opacity:1;fill-rule: evenodd"/>
<path id="Shape2DView_nwe0031"  d="M 23.299 0.0 A 8.099 8.099 0 0 1 7.16297 1" stroke="#191919" stroke-width="0.35 px" style="stroke-width:0.35;stroke-miterlimit:4;stroke-dasharray:none;fill:none;fill-opacity:1;fill-rule: evenodd"/>
<path id="Shape2DView_nwe0032"  d="M 7.162973124345047 -0.999999999999998 A 8.099 8.099 0 0 1 23.299 -1.98368e-15" stroke="#191919" stroke-width="0.35 px" style="stroke-width:0.35;stroke-miterlimit:4;stroke-dasharray:none;fill:none;fill-opacity:1;fill-rule: evenodd"/>
<path id="Shape2DView_nwe0033"  d="M 20.3 1.0 L 20.3 -1.0 " stroke="#191919" stroke-width="0.35 px" style="stroke-width:0.35;stroke-miterlimit:4;stroke-dasharray:none;fill:none;fill-opacity:1;fill-rule: evenodd"/>
<path id="Shape2DView_nwe0034"  d="M 20.2 1.0 L 20.2 -1.0 " stroke="#191919" stroke-width="0.35 px" style="stroke-width:0.35;stroke-miterlimit:4;stroke-dasharray:none;fill:none;fill-opacity:1;fill-rule: evenodd"/>
<path id="Shape2DView_nwe0035"  d="M 19.2 1.0 L 19.2 -1.0 " stroke="#191919" stroke-width="0.35 px" style="stroke-width:0.35;stroke-miterlimit:4;stroke-dasharray:none;fill:none;fill-opacity:1;fill-rule: evenodd"/>
<path id="Shape2DView_nwe0036"  d="M 10.133333333333 1.0 L 10.133333333333 -1.0 " stroke="#191919" stroke-width="0.35 px" style="stroke-width:0.35;stroke-miterlimit:4;stroke-dasharray:none;fill:none;fill-opacity:1;fill-rule: evenodd"/>
<path id="Shape2DView_nwe0037"  d="M 18.52382926757678 -1.0000000000000007 A 3.471 3.471 0 0 0 11.8762 -1" stroke="#191919" stroke-width="0.35 px" style="stroke-width:0.35;stroke-miterlimit:4;stroke-dasharray:none;fill:none;fill-opacity:1;fill-rule: evenodd"/>
<path id="Shape2DView_nwe0038"  d="M 11.876170732423219 1.0000000000000002 A 3.471 3.471 0 0 0 18.5238 1" stroke="#191919" stroke-width="0.35 px" style="stroke-width:0.35;stroke-miterlimit:4;stroke-dasharray:none;fill:none;fill-opacity:1;fill-rule: evenodd"/>
<path id="Shape2DView_nwe0039"  d="M 26.06144576779105 7.680201955895034 A 13.3025 13.3025 0 0 1 2.21745 2.9" stroke="#191919" stroke-width="0.35 px" style="stroke-width:0.35;stroke-miterlimit:4;stroke-dasharray:none;fill:none;fill-opacity:1;fill-rule: evenodd"/>
<path id="Shape2DView_nwe0040"  d="M 2.2174537840221706 -2.8999999999999604 A 13.3025 13.3025 0 0 1 26.0614 -7.6802" stroke="#191919" stroke-width="0.35 px" style="stroke-width:0.35;stroke-miterlimit:4;stroke-dasharray:none;fill:none;fill-opacity:1;fill-rule: evenodd"/>
<path id="Shape2DView_nwe0041"  d="M 25.118392216819693 -7.013362394980782 A 12.1475 12.1475 0 0 0 3.40374 -2.9" stroke="#191919" stroke-width="0.35 px" style="stroke-width:0.35;stroke-miterlimit:4;stroke-dasharray:none;fill:none;fill-opacity:1;fill-rule: evenodd"/>
<path id="Shape2DView_nwe0042"  d="M 3.40373973455994 2.900000000000011 A 12.1475 12.1475 0 0 0 25.1184 7.01336" stroke="#191919" stroke-width="0.35 px" style="stroke-width:0.35;stroke-miterlimit:4;stroke-dasharray:none;fill:none;fill-opacity:1;fill-rule: evenodd"/>
<title>b'Shape2DView'</title>
</g>
<g id="Rectangle" transform="translate(2.209800,14.180251) scale(1,-1)">
<rect fill="#ff0000" id="origin" width="1" height="1" x="0" y="0" />
<title>b'Rectangle'</title>
</g>
</svg>