<?xml version="1.0"?>
<!DOCTYPE svg PUBLIC "-//W3C//DTD SVG 1.1//EN" "http://www.w3.org/Graphics/SVG/1.1/DTD/svg11.dtd">
<svg width="109.956mm" height="18.355999999999998mm" viewBox="0 0 109.956 18.355999999999998" xmlns="http://www.w3.org/2000/svg" version="1.1">
<g id="Shape2DView" transform="translate(3.978000,9.178000) scale(1,-1)">
<path id="Shape2DView_nwe0000"  d="M -2.9 -8.1 L -0.8999999999999999 -8.1 " stroke="#191919" stroke-width="0.35 px" style="stroke-width:0.35;stroke-miterlimit:4;stroke-dasharray:none;fill:none;fill-opacity:1;fill-rule: evenodd"/>
<path id="Shape2DView_nwe0001"  d="M -0.8999999999999999 -8.1 L 9.88 -8.1 " stroke="#191919" stroke-width="0.35 px" style="stroke-width:0.35;stroke-miterlimit:4;stroke-dasharray:none;fill:none;fill-opacity:1;fill-rule: evenodd"/>
<path id="Shape2DView_nwe0002"  d="M 9.88 -8.1 L 24.05 -8.1 " stroke="#191919" stroke-width="0.35 px" style="stroke-width:0.35;stroke-miterlimit:4;stroke-dasharray:none;fill:none;fill-opacity:1;fill-rule: evenodd"/>
<path id="Shape2DView_nwe0003"  d="M 24.05 -8.1 L 77.95 -8.1 " stroke="#191919" stroke-width="0.35 px" style="stroke-width:0.35;stroke-miterlimit:4;stroke-dasharray:none;fill:none;fill-opacity:1;fill-rule: evenodd"/>
<path id="Shape2DView_nwe0004"  d="M 77.95 -8.1 L 92.12 -8.1 " stroke="#191919" stroke-width="0.35 px" style="stroke-width:0.35;stroke-miterlimit:4;stroke-dasharray:none;fill:none;fill-opacity:1;fill-rule: evenodd"/>
<path id="Shape2DView_nwe0005"  d="M 92.12 -8.1 L 102.9 -8.1 " stroke="#191919" stroke-width="0.35 px" style="stroke-width:0.35;stroke-miterlimit:4;stroke-dasharray:none;fill:none;fill-opacity:1;fill-rule: evenodd"/>
<path id="Shape2DView_nwe0006"  d="M 102.9 -8.1 L 104.9 -8.1 " stroke="#191919" stroke-width="0.35 px" style="stroke-width:0.35;stroke-miterlimit:4;stroke-dasharray:none;fill:none;fill-opacity:1;fill-rule: evenodd"/>
<path id="Shape2DView_nwe0007"  d="M -2.9 -5.006789626622976 L -2.9 -5.404099379518804 L -2.9 -5.779994726332484 L -2.9 -6.132708122061098 L -2.9 -6.460581028482859 L -2.9 -6.7620717129792345 L -2.9 -7.035762498110677 L -2.9 -7.280366427856839 L -2.9 -7.494733319175065 L -2.9 -7.67785517042141 L -2.9 -7.828870901202516 L -2.9 -7.947070401370527 L -2.9 -8.031897870121737 L -2.9 -8.082954429497763 L -2.9 -8.1 " stroke="#191919" stroke-width="0.35 px" style="stroke-width:0.35;stroke-miterlimit:4;stroke-dasharray:none;fill:none;fill-opacity:1;fill-rule: evenodd"/>
<path id="Shape2DView_nwe0008"  d="M -2.9 -5.006789626623 L -2.9 5.006789626623 " stroke="#191919" stroke-width="0.35 px" style="stroke-width:0.35;stroke-miterlimit:4;stroke-dasharray:none;fill:none;fill-opacity:1;fill-rule: evenodd"/>
<path id="Shape2DView_nwe0009"  d="M -2.9 8.1 L -2.9 8.082954429497763 L -2.9 8.031897870121735 L -2.9 7.947070401370525 L -2.9 7.828870901202515 L -2.9 7.677855170421409 L -2.9 7.494733319175063 L -2.9 7.280366427856837 L -2.9 7.0357624981106754 L -2.9 6.762071712979233 L -2.9 6.460581028482858 L -2.9 6.132708122061098 L -2.9 5.779994726332484 L -2.9 5.404099379518805 L -2.9 5.006789626622977 " stroke="#191919" stroke-width="0.35 px" style="stroke-width:0.35;stroke-miterlimit:4;stroke-dasharray:none;fill:none;fill-opacity:1;fill-rule: evenodd"/>
<path id="Shape2DView_nwe0010"  d="M -0.9 -7.250000000000091 L -0.9 -7.36506891930815 L -0.9 -7.4721871556654325 L -0.9 -7.571223987026464 L -0.9 -7.662058553511426 L -0.9 -7.744580004897852 L -0.9 -7.818687635897012 L -0.9 -7.884291009049902 L -0.9 -7.94131006509285 L -0.9 -7.989675220658072 L -0.9 -8.029327453189932 L -0.9 -8.060218372973289 L -0.9 -8.082310282186011 L -0.9 -8.095576220903641 L -0.9 -8.1 " stroke="#191919" stroke-width="0.35 px" style="stroke-width:0.35;stroke-miterlimit:4;stroke-dasharray:none;fill:none;fill-opacity:1;fill-rule: evenodd"/>
<path id="Shape2DView_nwe0011"  d="M -0.9 -5.006789626622976 L -0.9 -5.204284921595997 L -0.9 -5.3968499638902 L -0.9 -5.584266716713616 L -0.9 -5.766322972559319 L -0.9 -5.942812593482907 L -0.9 -6.113535744507567 L -0.9 -6.278299119892442 L -0.9 -6.436916162008094 L -0.9 -6.589207272571253 L -0.9 -6.73500001599965 L -0.9 -6.874129314656707 L -0.9 -7.006437635765 L -0.9 -7.131775169776846 L -0.9 -7.250000000000091 " stroke="#191919" stroke-width="0.35 px" style="stroke-width:0.35;stroke-miterlimit:4;stroke-dasharray:none;fill:none;fill-opacity:1;fill-rule: evenodd"/>
<path id="Shape2DView_nwe0012"  d="M -0.8999999999999999 -5.006789626623 L -2.9 -5.006789626623 " stroke="#191919" stroke-width="0.35 px" style="stroke-width:0.35;stroke-miterlimit:4;stroke-dasharray:none;fill:none;fill-opacity:1;fill-rule: evenodd"/>
<path id="Shape2DView_nwe0013"  d="M 104.9 8.1 L 104.9 8.082954429497763 L 104.9 8.031897870121735 L 104.9 7.947070401370525 L 104.9 7.828870901202515 L 104.9 7.677855170421409 L 104.9 7.494733319175063 L 104.9 7.280366427856837 L 104.9 7.0357624981106754 L 104.9 6.762071712979233 L 104.9 6.460581028482858 L 104.9 6.132708122061098 L 104.9 5.779994726332484 L 104.9 5.404099379518805 L 104.9 5.006789626622977 " stroke="#191919" stroke-width="0.35 px" style="stroke-width:0.35;stroke-miterlimit:4;stroke-dasharray:none;fill:none;fill-opacity:1;fill-rule: evenodd"/>
<path id="Shape2DView_nwe0014"  d="M 104.9 5.006789626623 L 104.9 -5.006789626623 " stroke="#191919" stroke-width="0.35 px" style="stroke-width:0.35;stroke-miterlimit:4;stroke-dasharray:none;fill:none;fill-opacity:1;fill-rule: evenodd"/>
<path id="Shape2DView_nwe0015"  d="M 104.9 -5.006789626622976 L 104.9 -5.404099379518804 L 104.9 -5.779994726332484 L 104.9 -6.132708122061098 L 104.9 -6.460581028482859 L 104.9 -6.7620717129792345 L 104.9 -7.035762498110677 L 104.9 -7.280366427856839 L 104.9 -7.494733319175065 L 104.9 -7.67785517042141 L 104.9 -7.828870901202516 L 104.9 -7.947070401370527 L 104.9 -8.031897870121737 L 104.9 -8.082954429497763 L 104.9 -8.1 " stroke="#191919" stroke-width="0.35 px" style="stroke-width:0.35;stroke-miterlimit:4;stroke-dasharray:none;fill:none;fill-opacity:1;fill-rule: evenodd"/>
<path id="Shape2DView_nwe0016"  d="M 102.9 -7.243790444236 L -0.9 -7.243790444236 " stroke="#191919" stroke-width="0.35 px" style="stroke-width:0.35;stroke-miterlimit:4;stroke-dasharray:none;fill:none;fill-opacity:1;fill-rule: evenodd"/>
<path id="Shape2DView_nwe0017"  d="M 102.9 -7.250000000000091 L 102.9 -7.36506891930815 L 102.9 -7.4721871556654325 L 102.9 -7.571223987026464 L 102.9 -7.662058553511426 L 102.9 -7.744580004897852 L 102.9 -7.818687635897012 L 102.9 -7.884291009049902 L 102.9 -7.94131006509285 L 102.9 -7.989675220658072 L 102.9 -8.029327453189932 L 102.9 -8.060218372973289 L 102.9 -8.082310282186011 L 102.9 -8.095576220903641 L 102.9 -8.1 " stroke="#191919" stroke-width="0.35 px" style="stroke-width:0.35;stroke-miterlimit:4;stroke-dasharray:none;fill:none;fill-opacity:1;fill-rule: evenodd"/>
<path id="Shape2DView_nwe0018"  d="M 104.9 -5.006789626623 L 102.9 -5.006789626623 " stroke="#191919" stroke-width="0.35 px" style="stroke-width:0.35;stroke-miterlimit:4;stroke-dasharray:none;fill:none;fill-opacity:1;fill-rule: evenodd"/>
<path id="Shape2DView_nwe0019"  d="M 102.9 -5.006789626622976 L 102.9 -5.204284921595997 L 102.9 -5.3968499638902 L 102.9 -5.584266716713616 L 102.9 -5.766322972559319 L 102.9 -5.942812593482907 L 102.9 -6.113535744507567 L 102.9 -6.278299119892442 L 102.9 -6.436916162008094 L 102.9 -6.589207272571253 L 102.9 -6.73500001599965 L 102.9 -6.874129314656707 L 102.9 -7.006437635765 L 102.9 -7.131775169776846 L 102.9 -7.250000000000091 " stroke="#191919" stroke-width="0.35 px" style="stroke-width:0.35;stroke-miterlimit:4;stroke-dasharray:none;fill:none;fill-opacity:1;fill-rule: evenodd"/>
<path id="Shape2DView_nwe0020"  d="M 24.05 -8.1 L 24.05 -8.095576220903641 L 24.05 -8.082310282186013 L 24.05 -8.06021837297329 L 24.05 -8.029327453189936 L 24.05 -7.989675220658076 L 24.05 -7.941310065092854 L 24.05 -7.884291009049907 L 24.05 -7.818687635897019 L 24.05 -7.744580004897859 L 24.05 -7.662058553511433 L 24.05 -7.571223987026472 L 24.05 -7.4721871556654405 L 24.05 -7.365068919308159 L 24.05 -7.2500000000000915 " stroke="#191919" stroke-width="0.35 px" style="stroke-width:0.35;stroke-miterlimit:4;stroke-dasharray:none;fill:none;fill-opacity:1;fill-rule: evenodd"/>
<path id="Shape2DView_nwe0021"  d="M 24.05 -7.25 L 9.88 -7.25 " stroke="#191919" stroke-width="0.35 px" style="stroke-width:0.35;stroke-miterlimit:4;stroke-dasharray:none;fill:none;fill-opacity:1;fill-rule: evenodd"/>
<path id="Shape2DView_nwe0022"  d="M 9.88 -8.1 L 9.88 -8.095576220903641 L 9.88 -8.082310282186013 L 9.88 -8.06021837297329 L 9.88 -8.029327453189936 L 9.88 -7.989675220658076 L 9.88 -7.941310065092854 L 9.88 -7.884291009049907 L 9.88 -7.818687635897019 L 9.88 -7.744580004897859 L 9.88 -7.662058553511433 L 9.88 -7.571223987026472 L 9.88 -7.4721871556654405 L 9.88 -7.365068919308159 L 9.88 -7.2500000000000915 " stroke="#191919" stroke-width="0.35 px" style="stroke-width:0.35;stroke-miterlimit:4;stroke-dasharray:none;fill:none;fill-opacity:1;fill-rule: evenodd"/>
<path id="Shape2DView_nwe0023"  d="M 92.12 -8.1 L 92.12 -8.095576220903641 L 92.12 -8.082310282186013 L 92.12 -8.06021837297329 L 92.12 -8.029327453189936 L 92.12 -7.989675220658076 L 92.12 -7.941310065092854 L 92.12 -7.884291009049907 L 92.12 -7.818687635897019 L 92.12 -7.744580004897859 L 92.12 -7.662058553511433 L 92.12 -7.571223987026472 L 92.12 -7.4721871556654405 L 92.12 -7.365068919308159 L 92.12 -7.2500000000000915 " stroke="#191919" stroke-width="0.35 px" style="stroke-width:0.35;stroke-miterlimit:4;stroke-dasharray:none;fill:none;fill-opacity:1;fill-rule: evenodd"/>
<path id="Shape2DView_nwe0024"  d="M 92.12 -7.25 L 77.95 -7.25 " stroke="#191919" stroke-width="0.35 px" style="stroke-width:0.35;stroke-miterlimit:4;stroke-dasharray:none;fill:none;fill-opacity:1;fill-rule: evenodd"/>
<path id="Shape2DView_nwe0025"  d="M 77.95 -8.1 L 77.95 -8.095576220903641 L 77.95 -8.082310282186013 L 77.95 -8.06021837297329 L 77.95 -8.029327453189936 L 77.95 -7.989675220658076 L 77.95 -7.941310065092854 L 77.95 -7.884291009049907 L 77.95 -7.818687635897019 L 77.95 -7.744580004897859 L 77.95 -7.662058553511433 L 77.95 -7.571223987026472 L 77.95 -7.4721871556654405 L 77.95 -7.365068919308159 L 77.95 -7.2500000000000915 " stroke="#191919" stroke-width="0.35 px" style="stroke-width:0.35;stroke-miterlimit:4;stroke-dasharray:none;fill:none;fill-opacity:1;fill-rule: evenodd"/>
<path id="Shape2DView_nwe0026"  d="M 102.9 8.1 L 104.9 8.1 " stroke="#191919" stroke-width="0.35 px" style="stroke-width:0.35;stroke-miterlimit:4;stroke-dasharray:none;fill:none;fill-opacity:1;fill-rule: evenodd"/>
<path id="Shape2DView_nwe0027"  d="M 92.12 8.1 L 102.9 8.1 " stroke="#191919" stroke-width="0.35 px" style="stroke-width:0.35;stroke-miterlimit:4;stroke-dasharray:none;fill:none;fill-opacity:1;fill-rule: evenodd"/>
<path id="Shape2DView_nwe0028"  d="M 77.95 8.1 L 92.12 8.1 " stroke="#191919" stroke-width="0.35 px" style="stroke-width:0.35;stroke-miterlimit:4;stroke-dasharray:none;fill:none;fill-opacity:1;fill-rule: evenodd"/>
<path id="Shape2DView_nwe0029"  d="M 24.05 8.1 L 77.95 8.1 " stroke="#191919" stroke-width="0.35 px" style="stroke-width:0.35;stroke-miterlimit:4;stroke-dasharray:none;fill:none;fill-opacity:1;fill-rule: evenodd"/>
<path id="Shape2DView_nwe0030"  d="M 9.88 8.1 L 24.05 8.1 " stroke="#191919" stroke-width="0.35 px" style="stroke-width:0.35;stroke-miterlimit:4;stroke-dasharray:none;fill:none;fill-opacity:1;fill-rule: evenodd"/>
<path id="Shape2DView_nwe0031"  d="M 9.879999999999995 8.1 L -0.9000000000000057 8.1 " stroke="#191919" stroke-width="0.35 px" style="stroke-width:0.35;stroke-miterlimit:4;stroke-dasharray:none;fill:none;fill-opacity:1;fill-rule: evenodd"/>
<path id="Shape2DView_nwe0032"  d="M -2.9 8.1 L -0.8999999999999999 8.1 " stroke="#191919" stroke-width="0.35 px" style="stroke-width:0.35;stroke-miterlimit:4;stroke-dasharray:none;fill:none;fill-opacity:1;fill-rule: evenodd"/>
<path id="Shape2DView_nwe0033"  d="M -0.8999999999999999 5.006789626623 L -2.9 5.006789626623 " stroke="#191919" stroke-width="0.35 px" style="stroke-width:0.35;stroke-miterlimit:4;stroke-dasharray:none;fill:none;fill-opacity:1;fill-rule: evenodd"/>
<path id="Shape2DView_nwe0034"  d="M -0.9 7.250000000000091 L -0.9 7.131775169776854 L -0.9 7.006437635765008 L -0.9 6.874129314656715 L -0.9 6.735000015999658 L -0.9 6.58920727257126 L -0.9 6.436916162008102 L -0.9 6.278299119892449 L -0.9 6.113535744507575 L -0.9 5.942812593482914 L -0.9 5.766322972559326 L -0.9 5.584266716713623 L -0.9 5.396849963890205 L -0.9 5.2042849215960025 L -0.9 5.006789626622977 " stroke="#191919" stroke-width="0.35 px" style="stroke-width:0.35;stroke-miterlimit:4;stroke-dasharray:none;fill:none;fill-opacity:1;fill-rule: evenodd"/>
<path id="Shape2DView_nwe0035"  d="M -0.9 8.1 L -0.9 8.095576220903641 L -0.9 8.082310282186013 L -0.9 8.06021837297329 L -0.9 8.029327453189936 L -0.9 7.989675220658074 L -0.9 7.9413100650928525 L -0.9 7.884291009049904 L -0.9 7.818687635897016 L -0.9 7.744580004897855 L -0.9 7.662058553511429 L -0.9 7.571223987026466 L -0.9 7.472187155665433 L -0.9 7.365068919308151 L -0.9 7.250000000000091 " stroke="#191919" stroke-width="0.35 px" style="stroke-width:0.35;stroke-miterlimit:4;stroke-dasharray:none;fill:none;fill-opacity:1;fill-rule: evenodd"/>
<path id="Shape2DView_nwe0036"  d="M -0.9 5.006789626623 L -0.9 -5.006789626623 " stroke="#191919" stroke-width="0.35 px" style="stroke-width:0.35;stroke-miterlimit:4;stroke-dasharray:none;fill:none;fill-opacity:1;fill-rule: evenodd"/>
<path id="Shape2DView_nwe0037"  d="M 77.1 -4.75 C 77.00999018368343 -3.974754968624299 76.59332351701697 -3.558088301957633 75.8500000000007 -3.500000000000001 C 75.1326267127414 -3.463710935839939 74.46554468980895 -4.212803425067628 74.61788881845932 -4.960717906981754 C 74.75840840109682 -5.597085632706429 75.16911212827709 -5.943512997045848 75.85000000000011 -6.0 C 76.61482786489692 -5.9328995787866345 77.03149453156352 -5.516232912119958 77.10000000000001 -4.75 " stroke="#191919" stroke-width="0.35 px" style="stroke-width:0.35;stroke-miterlimit:4;stroke-dasharray:none;fill:none;fill-opacity:1;fill-rule: evenodd"/>
<path id="Shape2DView_nwe0038"  d="M 77.1 4.75 C 77.03199292957069 5.515831683006745 76.61532626290426 5.932498349673414 75.8500000000005 6.0 C 75.16805601242643 5.94318213482492 74.75724873813635 5.596146599856221 74.61757817713024 4.958893395093892 C 74.46651949265537 4.2114516168073495 75.13331708272771 3.4638010657996183 75.84999999999933 3.5 C 76.59263247518471 3.5573884738802803 77.00929914185161 3.9740551405469473 77.1 4.75 " stroke="#191919" stroke-width="0.35 px" style="stroke-width:0.35;stroke-miterlimit:4;stroke-dasharray:none;fill:none;fill-opacity:1;fill-rule: evenodd"/>
<path id="Shape2DView_nwe0039"  d="M 27.4 4.75 C 27.331992929571186 5.515831683005478 26.91532626290479 5.932498349672145 26.15000000000081 6.0 C 25.468056012430004 5.9431821348261105 25.05724873813985 5.596146599857799 24.917578177130345 4.958893395095051 C 24.766519492652616 4.2114516168197955 25.433317082722613 3.4638010657971936 26.15 3.5 C 26.892632475186467 3.5573884738814145 27.30929914185315 3.9740551405480833 27.4 4.75 " stroke="#191919" stroke-width="0.35 px" style="stroke-width:0.35;stroke-miterlimit:4;stroke-dasharray:none;fill:none;fill-opacity:1;fill-rule: evenodd"/>
<path id="Shape2DView_nwe0040"  d="M 27.4 -4.75 C 27.3099901836815 -3.974754968622767 26.89332351701485 -3.5580883019561016 26.15 -3.5 C 25.43262671274192 -3.4637109358430127 24.76554468981165 -4.212803425058503 24.91788881845952 -4.960717906982918 C 25.057429708412545 -5.596376680458101 25.468133435592655 -5.942804044797129 26.149999999999807 -6.0 C 26.914827864897582 -5.932899578785733 27.331494531564335 -5.516232912119068 27.4 -4.75 " stroke="#191919" stroke-width="0.35 px" style="stroke-width:0.35;stroke-miterlimit:4;stroke-dasharray:none;fill:none;fill-opacity:1;fill-rule: evenodd"/>
<path id="Shape2DView_nwe0041"  d="M 104.9 5.006789626623 L 102.9 5.006789626623 " stroke="#191919" stroke-width="0.35 px" style="stroke-width:0.35;stroke-miterlimit:4;stroke-dasharray:none;fill:none;fill-opacity:1;fill-rule: evenodd"/>
<path id="Shape2DView_nwe0042"  d="M 102.9 -5.006789626623 L 102.9 5.006789626623 " stroke="#191919" stroke-width="0.35 px" style="stroke-width:0.35;stroke-miterlimit:4;stroke-dasharray:none;fill:none;fill-opacity:1;fill-rule: evenodd"/>
<path id="Shape2DView_nwe0043"  d="M 102.9 7.250000000000091 L 102.9 7.131775169776854 L 102.9 7.006437635765008 L 102.9 6.874129314656715 L 102.9 6.735000015999658 L 102.9 6.58920727257126 L 102.9 6.436916162008102 L 102.9 6.278299119892449 L 102.9 6.113535744507575 L 102.9 5.942812593482914 L 102.9 5.766322972559326 L 102.9 5.584266716713623 L 102.9 5.396849963890205 L 102.9 5.2042849215960025 L 102.9 5.006789626622977 " stroke="#191919" stroke-width="0.35 px" style="stroke-width:0.35;stroke-miterlimit:4;stroke-dasharray:none;fill:none;fill-opacity:1;fill-rule: evenodd"/>
<path id="Shape2DView_nwe0044"  d="M 102.9 8.1 L 102.9 8.095576220903641 L 102.9 8.082310282186013 L 102.9 8.06021837297329 L 102.9 8.029327453189936 L 102.9 7.989675220658074 L 102.9 7.9413100650928525 L 102.9 7.884291009049904 L 102.9 7.818687635897016 L 102.9 7.744580004897855 L 102.9 7.662058553511429 L 102.9 7.571223987026466 L 102.9 7.472187155665433 L 102.9 7.365068919308151 L 102.9 7.250000000000091 " stroke="#191919" stroke-width="0.35 px" style="stroke-width:0.35;stroke-miterlimit:4;stroke-dasharray:none;fill:none;fill-opacity:1;fill-rule: evenodd"/>
<path id="Shape2DView_nwe0045"  d="M 102.9 7.243790444236 L -0.9 7.243790444236 " stroke="#191919" stroke-width="0.35 px" style="stroke-width:0.35;stroke-miterlimit:4;stroke-dasharray:none;fill:none;fill-opacity:1;fill-rule: evenodd"/>
<path id="Shape2DView_nwe0046"  d="M 92.12 7.25 L 77.95 7.25 " stroke="#191919" stroke-width="0.35 px" style="stroke-width:0.35;stroke-miterlimit:4;stroke-dasharray:none;fill:none;fill-opacity:1;fill-rule: evenodd"/>
<path id="Shape2DView_nwe0047"  d="M 24.049999999999997 7.25 L 9.879999999999995 7.25 " stroke="#191919" stroke-width="0.35 px" style="stroke-width:0.35;stroke-miterlimit:4;stroke-dasharray:none;fill:none;fill-opacity:1;fill-rule: evenodd"/>
<path id="Shape2DView_nwe0048"  d="M 77.95 7.25000000000009 L 77.95 7.365068919308151 L 77.95 7.472187155665434 L 77.95 7.571223987026467 L 77.95 7.66205855351143 L 77.95 7.744580004897857 L 77.95 7.818687635897018 L 77.95 7.884291009049908 L 77.95 7.941310065092855 L 77.95 7.989675220658078 L 77.95 8.029327453189937 L 77.95 8.060218372973292 L 77.95 8.082310282186015 L 77.95 8.095576220903641 L 77.95 8.1 " stroke="#191919" stroke-width="0.35 px" style="stroke-width:0.35;stroke-miterlimit:4;stroke-dasharray:none;fill:none;fill-opacity:1;fill-rule: evenodd"/>
<path id="Shape2DView_nwe0050"  d="M 92.12 7.25000000000009 L 92.12 7.365068919308151 L 92.12 7.472187155665434 L 92.12 7.571223987026467 L 92.12 7.66205855351143 L 92.12 7.744580004897857 L 92.12 7.818687635897018 L 92.12 7.884291009049908 L 92.12 7.941310065092855 L 92.12 7.989675220658078 L 92.12 8.029327453189937 L 92.12 8.060218372973292 L 92.12 8.082310282186015 L 92.12 8.095576220903641 L 92.12 8.1 " stroke="#191919" stroke-width="0.35 px" style="stroke-width:0.35;stroke-miterlimit:4;stroke-dasharray:none;fill:none;fill-opacity:1;fill-rule: evenodd"/>
<path id="Shape2DView_nwe0051"  d="M 24.05 7.25 L 9.88 7.25 " stroke="#191919" stroke-width="0.35 px" style="stroke-width:0.35;stroke-miterlimit:4;stroke-dasharray:none;fill:none;fill-opacity:1;fill-rule: evenodd"/>
<path id="Shape2DView_nwe0052"  d="M 24.05 7.25000000000009 L 24.05 7.365068919308151 L 24.05 7.472187155665434 L 24.05 7.571223987026467 L 24.05 7.66205855351143 L 24.05 7.744580004897857 L 24.05 7.818687635897018 L 24.05 7.884291009049908 L 24.05 7.941310065092855 L 24.05 7.989675220658078 L 24.05 8.029327453189937 L 24.05 8.060218372973292 L 24.05 8.082310282186015 L 24.05 8.095576220903641 L 24.05 8.1 " stroke="#191919" stroke-width="0.35 px" style="stroke-width:0.35;stroke-miterlimit:4;stroke-dasharray:none;fill:none;fill-opacity:1;fill-rule: evenodd"/>
<path id="Shape2DView_nwe0053"  d="M 9.88 7.25000000000009 L 9.88 7.365068919308151 L 9.88 7.472187155665434 L 9.88 7.571223987026467 L 9.88 7.66205855351143 L 9.88 7.744580004897857 L 9.88 7.818687635897018 L 9.88 7.884291009049908 L 9.88 7.941310065092855 L 9.88 7.989675220658078 L 9.88 8.029327453189937 L 9.88 8.060218372973292 L 9.88 8.082310282186015 L 9.88 8.095576220903641 L 9.88 8.1 " stroke="#191919" stroke-width="0.35 px" style="stroke-width:0.35;stroke-miterlimit:4;stroke-dasharray:none;fill:none;fill-opacity:1;fill-rule: evenodd"/>
<path id="Shape2DView_nwe0054"  d="M -0.85 3.625 L -0.9 3.625 " stroke="#191919" stroke-width="0.35 px" style="stroke-width:0.35;stroke-miterlimit:4;stroke-dasharray:none;fill:none;fill-opacity:1;fill-rule: evenodd"/>
<path id="Shape2DView_nwe0055"  d="M -0.9 -3.625 L -0.85 -3.625 " stroke="#191919" stroke-width="0.35 px" style="stroke-width:0.35;stroke-miterlimit:4;stroke-dasharray:none;fill:none;fill-opacity:1;fill-rule: evenodd"/>
<path id="Shape2DView_nwe0056"  d="M -0.85 -3.625 L -0.85 3.625 " stroke="#191919" stroke-width="0.35 px" style="stroke-width:0.35;stroke-miterlimit:4;stroke-dasharray:none;fill:none;fill-opacity:1;fill-rule: evenodd"/>
<path id="Shape2DView_nwe0057"  d="M 101.15 0.0 L 101.15 0.2164646537996912 L 101.15 0.43020713898213364 L 101.15 0.6385395197798797 L 101.15 0.8388418956271344 L 101.15 1.0285953479294734 L 101.15 1.205413616926677 L 101.15 1.367073110293756 L 101.15 1.511540866104597 L 101.15 1.6370001185077339 L 101.15 1.7418731446110434 L 101.15 1.8248411052625293 L 101.15 1.8848606302178674 L 101.15 1.9211769391266045 L 101.15 1.933333333333 " stroke="#191919" stroke-width="0.35 px" style="stroke-width:0.35;stroke-miterlimit:4;stroke-dasharray:none;fill:none;fill-opacity:1;fill-rule: evenodd"/>
<path id="Shape2DView_nwe0058"  d="M 101.15 -1.933333333333 L 101.15 -1.9211769391266045 L 101.15 -1.8848606302178674 L 101.15 -1.8248411052625293 L 101.15 -1.7418731446110436 L 101.15 -1.637000118507734 L 101.15 -1.5115408661045973 L 101.15 -1.3670731102937566 L 101.15 -1.2054136169266774 L 101.15 -1.0285953479294738 L 101.15 -0.8388418956271348 L 101.15 -0.6385395197798801 L 101.15 -0.43020713898213414 L 101.15 -0.21646465379969165 L 101.15 -4.735300956702283e-16 " stroke="#191919" stroke-width="0.35 px" style="stroke-width:0.35;stroke-miterlimit:4;stroke-dasharray:none;fill:none;fill-opacity:1;fill-rule: evenodd"/>
<path id="Shape2DView_nwe0059"  d="M 100.9 0.0 L 100.9 0.2164646537996912 L 100.9 0.43020713898213364 L 100.9 0.6385395197798797 L 100.9 0.8388418956271344 L 100.9 1.0285953479294734 L 100.9 1.205413616926677 L 100.9 1.367073110293756 L 100.9 1.511540866104597 L 100.9 1.6370001185077339 L 100.9 1.7418731446110434 L 100.9 1.8248411052625293 L 100.9 1.8848606302178674 L 100.9 1.9211769391266045 L 100.9 1.933333333333 " stroke="#191919" stroke-width="0.35 px" style="stroke-width:0.35;stroke-miterlimit:4;stroke-dasharray:none;fill:none;fill-opacity:1;fill-rule: evenodd"/>
<path id="Shape2DView_nwe0060"  d="M 100.9 -1.933333333333 L 100.9 -1.9211769391266045 L 100.9 -1.8848606302178674 L 100.9 -1.8248411052625293 L 100.9 -1.7418731446110436 L 100.9 -1.637000118507734 L 100.9 -1.5115408661045973 L 100.9 -1.3670731102937566 L 100.9 -1.2054136169266774 L 100.9 -1.0285953479294738 L 100.9 -0.8388418956271348 L 100.9 -0.6385395197798801 L 100.9 -0.43020713898213414 L 100.9 -0.21646465379969165 L 100.9 -4.735300956702283e-16 " stroke="#191919" stroke-width="0.35 px" style="stroke-width:0.35;stroke-miterlimit:4;stroke-dasharray:none;fill:none;fill-opacity:1;fill-rule: evenodd"/>
<path id="Shape2DView_nwe0061"  d="M 101.65 0.0 L 101.65 0.3246969806995928 L 101.65 0.6453107084733117 L 101.65 0.9578092796699845 L 101.65 1.2582628434409184 L 101.65 1.542893021894476 L 101.65 1.8081204253903271 L 101.65 2.0506096654409878 L 101.65 2.2673112991572864 L 101.65 2.455500177762024 L 101.65 2.6128097169170155 L 101.65 2.737261657894266 L 101.65 2.8272909453272885 L 101.65 2.8817654086904034 L 101.65 2.9 " stroke="#191919" stroke-width="0.35 px" style="stroke-width:0.35;stroke-miterlimit:4;stroke-dasharray:none;fill:none;fill-opacity:1;fill-rule: evenodd"/>
<path id="Shape2DView_nwe0062"  d="M 101.65 -2.9 L 101.65 -2.8817654086904034 L 101.65 -2.8272909453272885 L 101.65 -2.737261657894266 L 101.65 -2.612809716917016 L 101.65 -2.455500177762024 L 101.65 -2.267311299157287 L 101.65 -2.050609665440988 L 101.65 -1.8081204253903278 L 101.65 -1.5428930218944767 L 101.65 -1.258262843440919 L 101.65 -0.9578092796699852 L 101.65 -0.6453107084733124 L 101.65 -0.32469698069959346 L 101.65 -7.102951435054649e-16 " stroke="#191919" stroke-width="0.35 px" style="stroke-width:0.35;stroke-miterlimit:4;stroke-dasharray:none;fill:none;fill-opacity:1;fill-rule: evenodd"/>
<path id="Shape2DView_nwe0063"  d="M 101.4 0.0 L 101.4 0.3246969806995928 L 101.4 0.6453107084733117 L 101.4 0.9578092796699845 L 101.4 1.2582628434409184 L 101.4 1.542893021894476 L 101.4 1.8081204253903271 L 101.4 2.0506096654409878 L 101.4 2.2673112991572864 L 101.4 2.455500177762024 L 101.4 2.6128097169170155 L 101.4 2.737261657894266 L 101.4 2.8272909453272885 L 101.4 2.8817654086904034 L 101.4 2.9 " stroke="#191919" stroke-width="0.35 px" style="stroke-width:0.35;stroke-miterlimit:4;stroke-dasharray:none;fill:none;fill-opacity:1;fill-rule: evenodd"/>
<path id="Shape2DView_nwe0064"  d="M 101.4 -2.9 L 101.4 -2.8817654086904034 L 101.4 -2.8272909453272885 L 101.4 -2.737261657894266 L 101.4 -2.612809716917016 L 101.4 -2.455500177762024 L 101.4 -2.267311299157287 L 101.4 -2.050609665440988 L 101.4 -1.8081204253903278 L 101.4 -1.5428930218944767 L 101.4 -1.258262843440919 L 101.4 -0.9578092796699852 L 101.4 -0.6453107084733124 L 101.4 -0.32469698069959346 L 101.4 -7.102951435054649e-16 " stroke="#191919" stroke-width="0.35 px" style="stroke-width:0.35;stroke-miterlimit:4;stroke-dasharray:none;fill:none;fill-opacity:1;fill-rule: evenodd"/>
<path id="Shape2DView_nwe0065"  d="M 102.15 0.0 L 102.15 0.4329293075994944 L 102.15 0.8604142779644899 L 102.15 1.2770790395600895 L 102.15 1.6776837912547027 L 102.15 2.057190695859479 L 102.15 2.4108272338539773 L 102.15 2.734146220588219 L 102.15 3.023081732209976 L 102.15 3.274000237016314 L 102.15 3.483746289222988 L 102.15 3.6496822105260027 L 102.15 3.7697212604367096 L 102.15 3.842353878254203 L 102.15 3.866666666667 " stroke="#191919" stroke-width="0.35 px" style="stroke-width:0.35;stroke-miterlimit:4;stroke-dasharray:none;fill:none;fill-opacity:1;fill-rule: evenodd"/>
<path id="Shape2DView_nwe0066"  d="M 102.15 -3.866666666667 L 102.15 -3.842353878254203 L 102.15 -3.7697212604367096 L 102.15 -3.6496822105260027 L 102.15 -3.4837462892229882 L 102.15 -3.2740002370163146 L 102.15 -3.0230817322099766 L 102.15 -2.73414622058822 L 102.15 -2.4108272338539782 L 102.15 -2.0571906958594797 L 102.15 -1.6776837912547036 L 102.15 -1.2770790395600904 L 102.15 -0.8604142779644909 L 102.15 -0.43292930759949527 L 102.15 -9.470601913407015e-16 " stroke="#191919" stroke-width="0.35 px" style="stroke-width:0.35;stroke-miterlimit:4;stroke-dasharray:none;fill:none;fill-opacity:1;fill-rule: evenodd"/>
<path id="Shape2DView_nwe0067"  d="M 101.9 0.0 L 101.9 0.4329293075994944 L 101.9 0.8604142779644899 L 101.9 1.2770790395600895 L 101.9 1.6776837912547027 L 101.9 2.057190695859479 L 101.9 2.4108272338539773 L 101.9 2.734146220588219 L 101.9 3.023081732209976 L 101.9 3.274000237016314 L 101.9 3.483746289222988 L 101.9 3.6496822105260027 L 101.9 3.7697212604367096 L 101.9 3.842353878254203 L 101.9 3.866666666667 " stroke="#191919" stroke-width="0.35 px" style="stroke-width:0.35;stroke-miterlimit:4;stroke-dasharray:none;fill:none;fill-opacity:1;fill-rule: evenodd"/>
<path id="Shape2DView_nwe0068"  d="M 101.9 -3.866666666667 L 101.9 -3.842353878254203 L 101.9 -3.7697212604367096 L 101.9 -3.6496822105260027 L 101.9 -3.4837462892229882 L 101.9 -3.2740002370163146 L 101.9 -3.0230817322099766 L 101.9 -2.73414622058822 L 101.9 -2.4108272338539782 L 101.9 -2.0571906958594797 L 101.9 -1.6776837912547036 L 101.9 -1.2770790395600904 L 101.9 -0.8604142779644909 L 101.9 -0.43292930759949527 L 101.9 -9.470601913407015e-16 " stroke="#191919" stroke-width="0.35 px" style="stroke-width:0.35;stroke-miterlimit:4;stroke-dasharray:none;fill:none;fill-opacity:1;fill-rule: evenodd"/>
<path id="Shape2DView_nwe0069"  d="M 102.65 0.0 L 102.65 0.541161634499284 L 102.65 1.0755178474554454 L 102.65 1.5963487994498642 L 102.65 2.097104739068053 L 102.65 2.5714883698239492 L 102.65 3.013534042317004 L 102.65 3.4176827757347437 L 102.65 3.7788521652618834 L 102.65 4.092500296269757 L 102.65 4.354682861528059 L 102.65 4.562102763156795 L 102.65 4.712151575545156 L 102.65 4.802942347817008 L 102.65 4.833333333333 " stroke="#191919" stroke-width="0.35 px" style="stroke-width:0.35;stroke-miterlimit:4;stroke-dasharray:none;fill:none;fill-opacity:1;fill-rule: evenodd"/>
<path id="Shape2DView_nwe0070"  d="M 102.65 -4.833333333333 L 102.65 -4.802942347817008 L 102.65 -4.712151575545156 L 102.65 -4.562102763156795 L 102.65 -4.354682861528059 L 102.65 -4.092500296269758 L 102.65 -3.778852165261884 L 102.65 -3.4176827757347445 L 102.65 -3.013534042317005 L 102.65 -2.5714883698239506 L 102.65 -2.097104739068054 L 102.65 -1.5963487994498653 L 102.65 -1.0755178474554465 L 102.65 -0.5411616344992851 L 102.65 -1.183825239175693e-15 " stroke="#191919" stroke-width="0.35 px" style="stroke-width:0.35;stroke-miterlimit:4;stroke-dasharray:none;fill:none;fill-opacity:1;fill-rule: evenodd"/>
<path id="Shape2DView_nwe0071"  d="M 102.4 0.0 L 102.4 0.541161634499284 L 102.4 1.0755178474554454 L 102.4 1.5963487994498642 L 102.4 2.097104739068053 L 102.4 2.5714883698239492 L 102.4 3.013534042317004 L 102.4 3.4176827757347437 L 102.4 3.7788521652618834 L 102.4 4.092500296269757 L 102.4 4.354682861528059 L 102.4 4.562102763156795 L 102.4 4.712151575545156 L 102.4 4.802942347817008 L 102.4 4.833333333333 " stroke="#191919" stroke-width="0.35 px" style="stroke-width:0.35;stroke-miterlimit:4;stroke-dasharray:none;fill:none;fill-opacity:1;fill-rule: evenodd"/>
<path id="Shape2DView_nwe0072"  d="M 102.4 -4.833333333333 L 102.4 -4.802942347817008 L 102.4 -4.712151575545156 L 102.4 -4.562102763156795 L 102.4 -4.354682861528059 L 102.4 -4.092500296269758 L 102.4 -3.778852165261884 L 102.4 -3.4176827757347445 L 102.4 -3.013534042317005 L 102.4 -2.5714883698239506 L 102.4 -2.097104739068054 L 102.4 -1.5963487994498653 L 102.4 -1.0755178474554465 L 102.4 -0.5411616344992851 L 102.4 -1.183825239175693e-15 " stroke="#191919" stroke-width="0.35 px" style="stroke-width:0.35;stroke-miterlimit:4;stroke-dasharray:none;fill:none;fill-opacity:1;fill-rule: evenodd"/>
<path id="Shape2DView_nwe0073"  d="M 101.15 0.0 L 101.15 0.3594291071815324 L 101.15 0.7063259804414986 L 101.15 1.0285953479293686 L 101.15 1.3150006263567635 L 101.15 1.5555557075485016 L 101.15 1.7418731446109363 L 101.15 1.867456597491802 L 101.15 1.9279273412165914 L 101.15 1.921176939126646 L 101.15 1.847440757853008 L 101.15 1.7092897607754958 L 101.15 1.511540866104905 L 101.15 1.2610889951378892 L 101.15 0.9666666666669997 " stroke="#191919" stroke-width="0.35 px" style="stroke-width:0.35;stroke-miterlimit:4;stroke-dasharray:none;fill:none;fill-opacity:1;fill-rule: evenodd"/>
<path id="Shape2DView_nwe0074"  d="M 101.15 -0.966666666667 L 101.15 -1.2610889951378896 L 101.15 -1.5115408661049052 L 101.15 -1.7092897607754962 L 101.15 -1.8474407578530088 L 101.15 -1.9211769391266462 L 101.15 -1.9279273412165912 L 101.15 -1.8674565974918014 L 101.15 -1.7418731446109348 L 101.15 -1.5555557075484996 L 101.15 -1.3150006263567602 L 101.15 -1.0285953479293648 L 101.15 -0.7063259804414936 L 101.15 -0.3594291071815267 L 101.15 -4.735300956702283e-16 " stroke="#191919" stroke-width="0.35 px" style="stroke-width:0.35;stroke-miterlimit:4;stroke-dasharray:none;fill:none;fill-opacity:1;fill-rule: evenodd"/>
<path id="Shape2DView_nwe0075"  d="M 100.9 0.0 L 100.9 0.3594291071815324 L 100.9 0.7063259804414986 L 100.9 1.0285953479293686 L 100.9 1.3150006263567635 L 100.9 1.5555557075485016 L 100.9 1.7418731446109363 L 100.9 1.867456597491802 L 100.9 1.9279273412165914 L 100.9 1.921176939126646 L 100.9 1.847440757853008 L 100.9 1.7092897607754958 L 100.9 1.511540866104905 L 100.9 1.2610889951378892 L 100.9 0.9666666666669997 " stroke="#191919" stroke-width="0.35 px" style="stroke-width:0.35;stroke-miterlimit:4;stroke-dasharray:none;fill:none;fill-opacity:1;fill-rule: evenodd"/>
<path id="Shape2DView_nwe0076"  d="M 100.9 -0.966666666667 L 100.9 -1.2610889951378896 L 100.9 -1.5115408661049052 L 100.9 -1.7092897607754962 L 100.9 -1.8474407578530088 L 100.9 -1.9211769391266462 L 100.9 -1.9279273412165912 L 100.9 -1.8674565974918014 L 100.9 -1.7418731446109348 L 100.9 -1.5555557075484996 L 100.9 -1.3150006263567602 L 100.9 -1.0285953479293648 L 100.9 -0.7063259804414936 L 100.9 -0.3594291071815267 L 100.9 -4.735300956702283e-16 " stroke="#191919" stroke-width="0.35 px" style="stroke-width:0.35;stroke-miterlimit:4;stroke-dasharray:none;fill:none;fill-opacity:1;fill-rule: evenodd"/>
<path id="Shape2DView_nwe0077"  d="M 101.65 0.0 L 101.65 0.4971329931405546 L 101.65 0.9795480093177661 L 101.65 1.4329628077774799 L 101.65 1.8439537199025493 L 101.65 2.200353066499955 L 101.65 2.4916093906248777 L 101.65 2.7090998409919553 L 101.65 2.846385457639934 L 101.65 2.899401801935485 L 101.65 2.866579287178893 L 101.65 2.7488896473381956 L 101.65 2.5498171681717303 L 101.65 2.2752555324622437 L 101.65 1.9333333333329998 " stroke="#191919" stroke-width="0.35 px" style="stroke-width:0.35;stroke-miterlimit:4;stroke-dasharray:none;fill:none;fill-opacity:1;fill-rule: evenodd"/>
<path id="Shape2DView_nwe0078"  d="M 101.65 -1.9333333333330003 L 101.65 -2.275255532462243 L 101.65 -2.5498171681717303 L 101.65 -2.748889647338195 L 101.65 -2.866579287178893 L 101.65 -2.899401801935485 L 101.65 -2.846385457639934 L 101.65 -2.7090998409919553 L 101.65 -2.491609390624878 L 101.65 -2.2003530664999555 L 101.65 -1.84395371990255 L 101.65 -1.4329628077774805 L 101.65 -0.9795480093177668 L 101.65 -0.4971329931405553 L 101.65 -7.102951435054649e-16 " stroke="#191919" stroke-width="0.35 px" style="stroke-width:0.35;stroke-miterlimit:4;stroke-dasharray:none;fill:none;fill-opacity:1;fill-rule: evenodd"/>
<path id="Shape2DView_nwe0079"  d="M 101.4 0.0 L 101.4 0.4971329931405546 L 101.4 0.9795480093177661 L 101.4 1.4329628077774799 L 101.4 1.8439537199025493 L 101.4 2.200353066499955 L 101.4 2.4916093906248777 L 101.4 2.7090998409919553 L 101.4 2.846385457639934 L 101.4 2.899401801935485 L 101.4 2.866579287178893 L 101.4 2.7488896473381956 L 101.4 2.5498171681717303 L 101.4 2.2752555324622437 L 101.4 1.9333333333329998 " stroke="#191919" stroke-width="0.35 px" style="stroke-width:0.35;stroke-miterlimit:4;stroke-dasharray:none;fill:none;fill-opacity:1;fill-rule: evenodd"/>
<path id="Shape2DView_nwe0080"  d="M 101.4 -1.9333333333330003 L 101.4 -2.275255532462243 L 101.4 -2.5498171681717303 L 101.4 -2.748889647338195 L 101.4 -2.866579287178893 L 101.4 -2.899401801935485 L 101.4 -2.846385457639934 L 101.4 -2.7090998409919553 L 101.4 -2.491609390624878 L 101.4 -2.2003530664999555 L 101.4 -1.84395371990255 L 101.4 -1.4329628077774805 L 101.4 -0.9795480093177668 L 101.4 -0.4971329931405553 L 101.4 -7.102951435054649e-16 " stroke="#191919" stroke-width="0.35 px" style="stroke-width:0.35;stroke-miterlimit:4;stroke-dasharray:none;fill:none;fill-opacity:1;fill-rule: evenodd"/>
<path id="Shape2DView_nwe0081"  d="M 102.15 0.0 L 102.15 0.6306216551028301 L 102.15 1.24435639380569 L 102.15 1.8247695010296276 L 102.15 2.3563185551977317 L 102.15 2.8247696263972153 L 102.15 3.2175784354825536 L 102.15 3.52422626736282 L 102.15 3.7365016433180998 L 102.15 3.848720209665764 L 102.15 3.8578769545526628 L 102.15 3.763726676780661 L 102.15 3.568790551854762 L 102.15 3.278288619426825 L 102.15 2.8999999999999995 " stroke="#191919" stroke-width="0.35 px" style="stroke-width:0.35;stroke-miterlimit:4;stroke-dasharray:none;fill:none;fill-opacity:1;fill-rule: evenodd"/>
<path id="Shape2DView_nwe0082"  d="M 102.15 -2.9 L 102.15 -3.2782886194268253 L 102.15 -3.5687905518547622 L 102.15 -3.7637266767806614 L 102.15 -3.8578769545526628 L 102.15 -3.848720209665764 L 102.15 -3.7365016433180993 L 102.15 -3.5242262673628195 L 102.15 -3.2175784354825527 L 102.15 -2.824769626397214 L 102.15 -2.3563185551977304 L 102.15 -1.824769501029626 L 102.15 -1.244356393805688 L 102.15 -0.6306216551028277 L 102.15 -9.470601913407015e-16 " stroke="#191919" stroke-width="0.35 px" style="stroke-width:0.35;stroke-miterlimit:4;stroke-dasharray:none;fill:none;fill-opacity:1;fill-rule: evenodd"/>
<path id="Shape2DView_nwe0083"  d="M 101.9 0.0 L 101.9 0.6306216551028301 L 101.9 1.24435639380569 L 101.9 1.8247695010296276 L 101.9 2.3563185551977317 L 101.9 2.8247696263972153 L 101.9 3.2175784354825536 L 101.9 3.52422626736282 L 101.9 3.7365016433180998 L 101.9 3.848720209665764 L 101.9 3.8578769545526628 L 101.9 3.763726676780661 L 101.9 3.568790551854762 L 101.9 3.278288619426825 L 101.9 2.8999999999999995 " stroke="#191919" stroke-width="0.35 px" style="stroke-width:0.35;stroke-miterlimit:4;stroke-dasharray:none;fill:none;fill-opacity:1;fill-rule: evenodd"/>
<path id="Shape2DView_nwe0084"  d="M 101.9 -2.9 L 101.9 -3.2782886194268253 L 101.9 -3.5687905518547622 L 101.9 -3.7637266767806614 L 101.9 -3.8578769545526628 L 101.9 -3.848720209665764 L 101.9 -3.7365016433180993 L 101.9 -3.5242262673628195 L 101.9 -3.2175784354825527 L 101.9 -2.824769626397214 L 101.9 -2.3563185551977304 L 101.9 -1.824769501029626 L 101.9 -1.244356393805688 L 101.9 -0.6306216551028277 L 101.9 -9.470601913407015e-16 " stroke="#191919" stroke-width="0.35 px" style="stroke-width:0.35;stroke-miterlimit:4;stroke-dasharray:none;fill:none;fill-opacity:1;fill-rule: evenodd"/>
<path id="Shape2DView_nwe0085"  d="M 102.65 0.0 L 102.65 0.7612765402194218 L 102.65 1.5035487424523901 L 102.65 2.208286688772997 L 102.65 2.857897458059708 L 102.65 3.436164311759661 L 102.65 3.928651524937855 L 102.65 4.323064756499072 L 102.65 4.609557962380587 L 102.65 4.7809791900030865 L 102.65 4.8330491180218536 L 102.65 4.764467884351671 L 102.65 4.576947535634377 L 102.65 4.27516928808785 L 102.65 3.8666666666670007 " stroke="#191919" stroke-width="0.35 px" style="stroke-width:0.35;stroke-miterlimit:4;stroke-dasharray:none;fill:none;fill-opacity:1;fill-rule: evenodd"/>
<path id="Shape2DView_nwe0086"  d="M 102.65 -3.866666666667 L 102.65 -4.2751692880878505 L 102.65 -4.576947535634378 L 102.65 -4.764467884351671 L 102.65 -4.8330491180218536 L 102.65 -4.780979190003086 L 102.65 -4.609557962380587 L 102.65 -4.323064756499071 L 102.65 -3.9286515249378535 L 102.65 -3.436164311759659 L 102.65 -2.857897458059706 L 102.65 -2.2082866887729953 L 102.65 -1.5035487424523877 L 102.65 -0.7612765402194189 L 102.65 -1.183825239175693e-15 " stroke="#191919" stroke-width="0.35 px" style="stroke-width:0.35;stroke-miterlimit:4;stroke-dasharray:none;fill:none;fill-opacity:1;fill-rule: evenodd"/>
<path id="Shape2DView_nwe0087"  d="M 102.4 0.0 L 102.4 0.7612765402194218 L 102.4 1.5035487424523901 L 102.4 2.208286688772997 L 102.4 2.857897458059708 L 102.4 3.436164311759661 L 102.4 3.928651524937855 L 102.4 4.323064756499072 L 102.4 4.609557962380587 L 102.4 4.7809791900030865 L 102.4 4.8330491180218536 L 102.4 4.764467884351671 L 102.4 4.576947535634377 L 102.4 4.27516928808785 L 102.4 3.8666666666670007 " stroke="#191919" stroke-width="0.35 px" style="stroke-width:0.35;stroke-miterlimit:4;stroke-dasharray:none;fill:none;fill-opacity:1;fill-rule: evenodd"/>
<path id="Shape2DView_nwe0088"  d="M 102.4 -3.866666666667 L 102.4 -4.2751692880878505 L 102.4 -4.576947535634378 L 102.4 -4.764467884351671 L 102.4 -4.8330491180218536 L 102.4 -4.780979190003086 L 102.4 -4.609557962380587 L 102.4 -4.323064756499071 L 102.4 -3.9286515249378535 L 102.4 -3.436164311759659 L 102.4 -2.857897458059706 L 102.4 -2.2082866887729953 L 102.4 -1.5035487424523877 L 102.4 -0.7612765402194189 L 102.4 -1.183825239175693e-15 " stroke="#191919" stroke-width="0.35 px" style="stroke-width:0.35;stroke-miterlimit:4;stroke-dasharray:none;fill:none;fill-opacity:1;fill-rule: evenodd"/>
<path id="Shape2DView_nwe0089"  d="M 100.9 0.0 L 101.15 0.0 " stroke="#191919" stroke-width="0.35 px" style="stroke-width:0.35;stroke-miterlimit:4;stroke-dasharray:none;fill:none;fill-opacity:1;fill-rule: evenodd"/>
<path id="Shape2DView_nwe0090"  d="M 101.4 0.0 L 101.65 0.0 " stroke="#191919" stroke-width="0.35 px" style="stroke-width:0.35;stroke-miterlimit:4;stroke-dasharray:none;fill:none;fill-opacity:1;fill-rule: evenodd"/>
<path id="Shape2DView_nwe0091"  d="M 101.9 0.0 L 102.15 0.0 " stroke="#191919" stroke-width="0.35 px" style="stroke-width:0.35;stroke-miterlimit:4;stroke-dasharray:none;fill:none;fill-opacity:1;fill-rule: evenodd"/>
<path id="Shape2DView_nwe0092"  d="M 102.4 0.0 L 102.65 0.0 " stroke="#191919" stroke-width="0.35 px" style="stroke-width:0.35;stroke-miterlimit:4;stroke-dasharray:none;fill:none;fill-opacity:1;fill-rule: evenodd"/>
<path id="Shape2DView_nwe0095"  d="M 101.15 1.933333333333 L 100.9 1.933333333333 " stroke="#191919" stroke-width="0.35 px" style="stroke-width:0.35;stroke-miterlimit:4;stroke-dasharray:none;fill:none;fill-opacity:1;fill-rule: evenodd"/>
<path id="Shape2DView_nwe0096"  d="M 101.15 -1.933333333333 L 100.9 -1.933333333333 " stroke="#191919" stroke-width="0.35 px" style="stroke-width:0.35;stroke-miterlimit:4;stroke-dasharray:none;fill:none;fill-opacity:1;fill-rule: evenodd"/>
<path id="Shape2DView_nwe0097"  d="M 101.65 2.9 L 101.4 2.9 " stroke="#191919" stroke-width="0.35 px" style="stroke-width:0.35;stroke-miterlimit:4;stroke-dasharray:none;fill:none;fill-opacity:1;fill-rule: evenodd"/>
<path id="Shape2DView_nwe0098"  d="M 101.65 -2.9 L 101.4 -2.9 " stroke="#191919" stroke-width="0.35 px" style="stroke-width:0.35;stroke-miterlimit:4;stroke-dasharray:none;fill:none;fill-opacity:1;fill-rule: evenodd"/>
<path id="Shape2DView_nwe0099"  d="M 102.15 3.866666666667 L 101.9 3.866666666667 " stroke="#191919" stroke-width="0.35 px" style="stroke-width:0.35;stroke-miterlimit:4;stroke-dasharray:none;fill:none;fill-opacity:1;fill-rule: evenodd"/>
<path id="Shape2DView_nwe0100"  d="M 102.15 -3.866666666667 L 101.9 -3.866666666667 " stroke="#191919" stroke-width="0.35 px" style="stroke-width:0.35;stroke-miterlimit:4;stroke-dasharray:none;fill:none;fill-opacity:1;fill-rule: evenodd"/>
<path id="Shape2DView_nwe0101"  d="M 102.65 4.833333333333 L 102.4 4.833333333333 " stroke="#191919" stroke-width="0.35 px" style="stroke-width:0.35;stroke-miterlimit:4;stroke-dasharray:none;fill:none;fill-opacity:1;fill-rule: evenodd"/>
<path id="Shape2DView_nwe0102"  d="M 102.65 -4.833333333333 L 102.4 -4.833333333333 " stroke="#191919" stroke-width="0.35 px" style="stroke-width:0.35;stroke-miterlimit:4;stroke-dasharray:none;fill:none;fill-opacity:1;fill-rule: evenodd"/>
<title>b'Shape2DView'</title>
</g>
<g id="Rectangle" transform="translate(3.978000,9.178000) scale(1,-1)">
<rect fill="#ff0000" id="origin" width="1" height="1" x="0" y="0" />
<title>b'Rectangle'</title>
</g>
</svg>