<?xml version="1.0"?>
<!DOCTYPE svg PUBLIC "-//W3C//DTD SVG 1.1//EN" "http://www.w3.org/Graphics/SVG/1.1/DTD/svg11.dtd">
<svg width="50.989799999999995mm" height="13.9998mm" viewBox="0 0 50.989799999999995 13.9998" xmlns="http://www.w3.org/2000/svg" version="1.1">
<g id="Shape2DView" transform="translate(3.144900,6.999900) scale(1,-1)">
<path id="Shape2DView_nwe0000"  d="M -2.645 -6.5 L -0.645 -6.5 " stroke="#191919" stroke-width="0.35 px" style="stroke-width:0.35;stroke-miterlimit:4;stroke-dasharray:none;fill:none;fill-opacity:1;fill-rule: evenodd"/>
<path id="Shape2DView_nwe0001"  d="M -0.645 -6.5 L 4.354000000000001 -6.5 " stroke="#191919" stroke-width="0.35 px" style="stroke-width:0.35;stroke-miterlimit:4;stroke-dasharray:none;fill:none;fill-opacity:1;fill-rule: evenodd"/>
<path id="Shape2DView_nwe0002"  d="M 4.354000000000001 -6.5 L 9.8525 -6.5 " stroke="#191919" stroke-width="0.35 px" style="stroke-width:0.35;stroke-miterlimit:4;stroke-dasharray:none;fill:none;fill-opacity:1;fill-rule: evenodd"/>
<path id="Shape2DView_nwe0003"  d="M 9.8525 -6.5 L 34.8475 -6.5 " stroke="#191919" stroke-width="0.35 px" style="stroke-width:0.35;stroke-miterlimit:4;stroke-dasharray:none;fill:none;fill-opacity:1;fill-rule: evenodd"/>
<path id="Shape2DView_nwe0004"  d="M 34.8475 -6.5 L 40.346 -6.5 " stroke="#191919" stroke-width="0.35 px" style="stroke-width:0.35;stroke-miterlimit:4;stroke-dasharray:none;fill:none;fill-opacity:1;fill-rule: evenodd"/>
<path id="Shape2DView_nwe0005"  d="M 40.346 -6.5 L 45.345 -6.5 " stroke="#191919" stroke-width="0.35 px" style="stroke-width:0.35;stroke-miterlimit:4;stroke-dasharray:none;fill:none;fill-opacity:1;fill-rule: evenodd"/>
<path id="Shape2DView_nwe0006"  d="M 45.345 -6.5 L 47.345 -6.5 " stroke="#191919" stroke-width="0.35 px" style="stroke-width:0.35;stroke-miterlimit:4;stroke-dasharray:none;fill:none;fill-opacity:1;fill-rule: evenodd"/>
<path id="Shape2DView_nwe0007"  d="M -2.645 -1.2499999999999998 L -2.645 -1.8378134995423658 L -2.645 -2.4182349032706503 L -2.645 -2.983965075264627 L -2.645 -3.52788963036718 L -2.645 -4.0431684017055165 L -2.645 -4.523321459758351 L -2.645 -4.962310601229374 L -2.645 -5.354615282957156 L -2.645 -5.695302045948492 L -2.645 -5.9800865564877 L -2.645 -6.20538748411893 L -2.645 -6.368371538954574 L -2.645 -6.466989101939523 L -2.645 -6.5 " stroke="#191919" stroke-width="0.35 px" style="stroke-width:0.35;stroke-miterlimit:4;stroke-dasharray:none;fill:none;fill-opacity:1;fill-rule: evenodd"/>
<path id="Shape2DView_nwe0008"  d="M -2.645 -1.25 L -2.645 1.25 " stroke="#191919" stroke-width="0.35 px" style="stroke-width:0.35;stroke-miterlimit:4;stroke-dasharray:none;fill:none;fill-opacity:1;fill-rule: evenodd"/>
<path id="Shape2DView_nwe0009"  d="M -2.645 6.5 L -2.645 6.466989101939523 L -2.645 6.368371538954574 L -2.645 6.20538748411893 L -2.645 5.9800865564877 L -2.645 5.695302045948492 L -2.645 5.354615282957156 L -2.645 4.962310601229374 L -2.645 4.5233214597583515 L -2.645 4.0431684017055165 L -2.645 3.5278896303671803 L -2.645 2.983965075264628 L -2.645 2.418234903270651 L -2.645 1.8378134995423665 L -2.645 1.2500000000000002 " stroke="#191919" stroke-width="0.35 px" style="stroke-width:0.35;stroke-miterlimit:4;stroke-dasharray:none;fill:none;fill-opacity:1;fill-rule: evenodd"/>
<path id="Shape2DView_nwe0010"  d="M -0.645 -5.249999999999931 L -0.645 -5.415986547151022 L -0.645 -5.571424597188409 L -0.645 -5.7159205727916635 L -0.645 -5.8491086025484895 L -0.645 -5.970651447360403 L -0.645 -6.08024135434986 L -0.645 -6.177600836106739 L -0.645 -6.2624833733010625 L -0.645 -6.334674038882906 L -0.645 -6.393990042289 L -0.645 -6.4402811922780545 L -0.645 -6.4734302772228745 L -0.645 -6.493353361896378 L -0.645 -6.5 " stroke="#191919" stroke-width="0.35 px" style="stroke-width:0.35;stroke-miterlimit:4;stroke-dasharray:none;fill:none;fill-opacity:1;fill-rule: evenodd"/>
<path id="Shape2DView_nwe0011"  d="M -0.645 -1.2499999999999998 L -0.645 -1.5746361028576739 L -0.645 -1.8980297309334215 L -0.645 -2.2189431647500104 L -0.645 -2.536148177239691 L -0.645 -2.848430734518832 L -0.645 -3.1545956423412016 L -0.645 -3.453471120446591 L -0.645 -3.7439132872974423 L -0.645 -4.024810538039144 L -0.645 -4.295087798928241 L -0.645 -4.553710641945711 L -0.645 -4.799689243847464 L -0.645 -5.032082174499678 L -0.645 -5.249999999999931 " stroke="#191919" stroke-width="0.35 px" style="stroke-width:0.35;stroke-miterlimit:4;stroke-dasharray:none;fill:none;fill-opacity:1;fill-rule: evenodd"/>
<path id="Shape2DView_nwe0012"  d="M 47.345 6.5 L 47.345 6.466989101939523 L 47.345 6.368371538954574 L 47.345 6.20538748411893 L 47.345 5.9800865564877 L 47.345 5.695302045948492 L 47.345 5.354615282957156 L 47.345 4.962310601229374 L 47.345 4.5233214597583515 L 47.345 4.0431684017055165 L 47.345 3.5278896303671803 L 47.345 2.983965075264628 L 47.345 2.418234903270651 L 47.345 1.8378134995423665 L 47.345 1.2500000000000002 " stroke="#191919" stroke-width="0.35 px" style="stroke-width:0.35;stroke-miterlimit:4;stroke-dasharray:none;fill:none;fill-opacity:1;fill-rule: evenodd"/>
<path id="Shape2DView_nwe0013"  d="M 47.345 1.25 L 47.345 -1.25 " stroke="#191919" stroke-width="0.35 px" style="stroke-width:0.35;stroke-miterlimit:4;stroke-dasharray:none;fill:none;fill-opacity:1;fill-rule: evenodd"/>
<path id="Shape2DView_nwe0014"  d="M 47.345 -1.2499999999999998 L 47.345 -1.8378134995423658 L 47.345 -2.4182349032706503 L 47.345 -2.983965075264627 L 47.345 -3.52788963036718 L 47.345 -4.0431684017055165 L 47.345 -4.523321459758351 L 47.345 -4.962310601229374 L 47.345 -5.354615282957156 L 47.345 -5.695302045948492 L 47.345 -5.9800865564877 L 47.345 -6.20538748411893 L 47.345 -6.368371538954574 L 47.345 -6.466989101939523 L 47.345 -6.5 " stroke="#191919" stroke-width="0.35 px" style="stroke-width:0.35;stroke-miterlimit:4;stroke-dasharray:none;fill:none;fill-opacity:1;fill-rule: evenodd"/>
<path id="Shape2DView_nwe0015"  d="M 45.345 -5.241421562897 L -0.645 -5.241421562897 " stroke="#191919" stroke-width="0.35 px" style="stroke-width:0.35;stroke-miterlimit:4;stroke-dasharray:none;fill:none;fill-opacity:1;fill-rule: evenodd"/>
<path id="Shape2DView_nwe0016"  d="M 45.345 -5.249999999999931 L 45.345 -5.415986547151022 L 45.345 -5.571424597188409 L 45.345 -5.7159205727916635 L 45.345 -5.8491086025484895 L 45.345 -5.970651447360403 L 45.345 -6.08024135434986 L 45.345 -6.177600836106739 L 45.345 -6.2624833733010625 L 45.345 -6.334674038882906 L 45.345 -6.393990042289 L 45.345 -6.4402811922780545 L 45.345 -6.4734302772228745 L 45.345 -6.493353361896378 L 45.345 -6.5 " stroke="#191919" stroke-width="0.35 px" style="stroke-width:0.35;stroke-miterlimit:4;stroke-dasharray:none;fill:none;fill-opacity:1;fill-rule: evenodd"/>
<path id="Shape2DView_nwe0017"  d="M 45.345 -1.2499999999999998 L 45.345 -1.5746361028576739 L 45.345 -1.8980297309334215 L 45.345 -2.2189431647500104 L 45.345 -2.536148177239691 L 45.345 -2.848430734518832 L 45.345 -3.1545956423412016 L 45.345 -3.453471120446591 L 45.345 -3.7439132872974423 L 45.345 -4.024810538039144 L 45.345 -4.295087798928241 L 45.345 -4.553710641945711 L 45.345 -4.799689243847464 L 45.345 -5.032082174499678 L 45.345 -5.249999999999931 " stroke="#191919" stroke-width="0.35 px" style="stroke-width:0.35;stroke-miterlimit:4;stroke-dasharray:none;fill:none;fill-opacity:1;fill-rule: evenodd"/>
<path id="Shape2DView_nwe0018"  d="M 9.8525 -6.5 L 9.8525 -6.493353361896378 L 9.8525 -6.473430277222873 L 9.8525 -6.440281192278052 L 9.8525 -6.393990042288999 L 9.8525 -6.334674038882903 L 9.8525 -6.262483373301059 L 9.8525 -6.177600836106735 L 9.8525 -6.080241354349855 L 9.8525 -5.970651447360397 L 9.8525 -5.849108602548483 L 9.8525 -5.715920572791656 L 9.8525 -5.571424597188403 L 9.8525 -5.415986547151014 L 9.8525 -5.249999999999931 " stroke="#191919" stroke-width="0.35 px" style="stroke-width:0.35;stroke-miterlimit:4;stroke-dasharray:none;fill:none;fill-opacity:1;fill-rule: evenodd"/>
<path id="Shape2DView_nwe0019"  d="M 9.8525 -5.25 L 4.354 -5.25 " stroke="#191919" stroke-width="0.35 px" style="stroke-width:0.35;stroke-miterlimit:4;stroke-dasharray:none;fill:none;fill-opacity:1;fill-rule: evenodd"/>
<path id="Shape2DView_nwe0020"  d="M 4.354 -6.5 L 4.354 -6.493353361896378 L 4.354 -6.473430277222873 L 4.354 -6.440281192278052 L 4.354 -6.393990042288999 L 4.354 -6.334674038882903 L 4.354 -6.262483373301059 L 4.354 -6.177600836106735 L 4.354 -6.080241354349855 L 4.354 -5.970651447360397 L 4.354 -5.849108602548483 L 4.354 -5.715920572791656 L 4.354 -5.571424597188403 L 4.354 -5.415986547151014 L 4.354 -5.249999999999931 " stroke="#191919" stroke-width="0.35 px" style="stroke-width:0.35;stroke-miterlimit:4;stroke-dasharray:none;fill:none;fill-opacity:1;fill-rule: evenodd"/>
<path id="Shape2DView_nwe0021"  d="M 40.346 -6.5 L 40.346 -6.493353361896378 L 40.346 -6.473430277222873 L 40.346 -6.440281192278052 L 40.346 -6.393990042288999 L 40.346 -6.334674038882903 L 40.346 -6.262483373301059 L 40.346 -6.177600836106735 L 40.346 -6.080241354349855 L 40.346 -5.970651447360397 L 40.346 -5.849108602548483 L 40.346 -5.715920572791656 L 40.346 -5.571424597188403 L 40.346 -5.415986547151014 L 40.346 -5.249999999999931 " stroke="#191919" stroke-width="0.35 px" style="stroke-width:0.35;stroke-miterlimit:4;stroke-dasharray:none;fill:none;fill-opacity:1;fill-rule: evenodd"/>
<path id="Shape2DView_nwe0022"  d="M 40.346 -5.25 L 34.8475 -5.25 " stroke="#191919" stroke-width="0.35 px" style="stroke-width:0.35;stroke-miterlimit:4;stroke-dasharray:none;fill:none;fill-opacity:1;fill-rule: evenodd"/>
<path id="Shape2DView_nwe0023"  d="M 34.8475 -6.5 L 34.8475 -6.493353361896378 L 34.8475 -6.473430277222873 L 34.8475 -6.440281192278052 L 34.8475 -6.393990042288999 L 34.8475 -6.334674038882903 L 34.8475 -6.262483373301059 L 34.8475 -6.177600836106735 L 34.8475 -6.080241354349855 L 34.8475 -5.970651447360397 L 34.8475 -5.849108602548483 L 34.8475 -5.715920572791656 L 34.8475 -5.571424597188403 L 34.8475 -5.415986547151014 L 34.8475 -5.249999999999931 " stroke="#191919" stroke-width="0.35 px" style="stroke-width:0.35;stroke-miterlimit:4;stroke-dasharray:none;fill:none;fill-opacity:1;fill-rule: evenodd"/>
<path id="Shape2DView_nwe0024"  d="M 45.345 6.5 L 47.345 6.5 " stroke="#191919" stroke-width="0.35 px" style="stroke-width:0.35;stroke-miterlimit:4;stroke-dasharray:none;fill:none;fill-opacity:1;fill-rule: evenodd"/>
<path id="Shape2DView_nwe0025"  d="M 40.346 6.5 L 45.345 6.5 " stroke="#191919" stroke-width="0.35 px" style="stroke-width:0.35;stroke-miterlimit:4;stroke-dasharray:none;fill:none;fill-opacity:1;fill-rule: evenodd"/>
<path id="Shape2DView_nwe0026"  d="M 34.8475 6.5 L 40.346 6.5 " stroke="#191919" stroke-width="0.35 px" style="stroke-width:0.35;stroke-miterlimit:4;stroke-dasharray:none;fill:none;fill-opacity:1;fill-rule: evenodd"/>
<path id="Shape2DView_nwe0027"  d="M 9.8525 6.5 L 34.8475 6.5 " stroke="#191919" stroke-width="0.35 px" style="stroke-width:0.35;stroke-miterlimit:4;stroke-dasharray:none;fill:none;fill-opacity:1;fill-rule: evenodd"/>
<path id="Shape2DView_nwe0028"  d="M 4.354 6.5 L 9.8525 6.5 " stroke="#191919" stroke-width="0.35 px" style="stroke-width:0.35;stroke-miterlimit:4;stroke-dasharray:none;fill:none;fill-opacity:1;fill-rule: evenodd"/>
<path id="Shape2DView_nwe0029"  d="M 4.353999999999999 6.5 L -0.6450000000000031 6.5 " stroke="#191919" stroke-width="0.35 px" style="stroke-width:0.35;stroke-miterlimit:4;stroke-dasharray:none;fill:none;fill-opacity:1;fill-rule: evenodd"/>
<path id="Shape2DView_nwe0030"  d="M -2.645 6.5 L -0.645 6.5 " stroke="#191919" stroke-width="0.35 px" style="stroke-width:0.35;stroke-miterlimit:4;stroke-dasharray:none;fill:none;fill-opacity:1;fill-rule: evenodd"/>
<path id="Shape2DView_nwe0031"  d="M -0.645 1.25 L -0.645 -1.25 " stroke="#191919" stroke-width="0.35 px" style="stroke-width:0.35;stroke-miterlimit:4;stroke-dasharray:none;fill:none;fill-opacity:1;fill-rule: evenodd"/>
<path id="Shape2DView_nwe0032"  d="M -0.645 5.249999999999931 L -0.645 5.032082174499682 L -0.645 4.799689243847468 L -0.645 4.553710641945715 L -0.645 4.295087798928245 L -0.645 4.024810538039145 L -0.645 3.743913287297443 L -0.645 3.45347112044659 L -0.645 3.154595642341202 L -0.645 2.848430734518833 L -0.645 2.536148177239691 L -0.645 2.2189431647500113 L -0.645 1.8980297309334222 L -0.645 1.5746361028576745 L -0.645 1.2500000000000002 " stroke="#191919" stroke-width="0.35 px" style="stroke-width:0.35;stroke-miterlimit:4;stroke-dasharray:none;fill:none;fill-opacity:1;fill-rule: evenodd"/>
<path id="Shape2DView_nwe0033"  d="M -0.645 6.5 L -0.645 6.493353361896378 L -0.645 6.473430277222873 L -0.645 6.440281192278053 L -0.645 6.393990042288999 L -0.645 6.334674038882905 L -0.645 6.262483373301061 L -0.645 6.177600836106738 L -0.645 6.080241354349859 L -0.645 5.970651447360402 L -0.645 5.8491086025484895 L -0.645 5.7159205727916635 L -0.645 5.571424597188411 L -0.645 5.4159865471510225 L -0.645 5.249999999999931 " stroke="#191919" stroke-width="0.35 px" style="stroke-width:0.35;stroke-miterlimit:4;stroke-dasharray:none;fill:none;fill-opacity:1;fill-rule: evenodd"/>
<path id="Shape2DView_nwe0034"  d="M 45.345 5.249999999999931 L 45.345 5.032082174499682 L 45.345 4.799689243847468 L 45.345 4.553710641945715 L 45.345 4.295087798928245 L 45.345 4.024810538039145 L 45.345 3.743913287297443 L 45.345 3.45347112044659 L 45.345 3.154595642341202 L 45.345 2.848430734518833 L 45.345 2.536148177239691 L 45.345 2.2189431647500113 L 45.345 1.8980297309334222 L 45.345 1.5746361028576745 L 45.345 1.2500000000000002 " stroke="#191919" stroke-width="0.35 px" style="stroke-width:0.35;stroke-miterlimit:4;stroke-dasharray:none;fill:none;fill-opacity:1;fill-rule: evenodd"/>
<path id="Shape2DView_nwe0035"  d="M 45.345 6.5 L 45.345 6.493353361896378 L 45.345 6.473430277222873 L 45.345 6.440281192278053 L 45.345 6.393990042288999 L 45.345 6.334674038882905 L 45.345 6.262483373301061 L 45.345 6.177600836106738 L 45.345 6.080241354349859 L 45.345 5.970651447360402 L 45.345 5.8491086025484895 L 45.345 5.7159205727916635 L 45.345 5.571424597188411 L 45.345 5.4159865471510225 L 45.345 5.249999999999931 " stroke="#191919" stroke-width="0.35 px" style="stroke-width:0.35;stroke-miterlimit:4;stroke-dasharray:none;fill:none;fill-opacity:1;fill-rule: evenodd"/>
<path id="Shape2DView_nwe0036"  d="M 45.345 -1.25 L 45.345 1.25 " stroke="#191919" stroke-width="0.35 px" style="stroke-width:0.35;stroke-miterlimit:4;stroke-dasharray:none;fill:none;fill-opacity:1;fill-rule: evenodd"/>
<path id="Shape2DView_nwe0037"  d="M 45.345 5.241421562897 L -0.645 5.241421562897 " stroke="#191919" stroke-width="0.35 px" style="stroke-width:0.35;stroke-miterlimit:4;stroke-dasharray:none;fill:none;fill-opacity:1;fill-rule: evenodd"/>
<path id="Shape2DView_nwe0038"  d="M 34.8475 5.249999999999931 L 34.8475 5.415986547151024 L 34.8475 5.571424597188412 L 34.8475 5.715920572791665 L 34.8475 5.849108602548492 L 34.8475 5.970651447360405 L 34.8475 6.0802413543498615 L 34.8475 6.17760083610674 L 34.8475 6.262483373301063 L 34.8475 6.334674038882906 L 34.8475 6.393990042289002 L 34.8475 6.4402811922780545 L 34.8475 6.4734302772228745 L 34.8475 6.493353361896378 L 34.8475 6.5 " stroke="#191919" stroke-width="0.35 px" style="stroke-width:0.35;stroke-miterlimit:4;stroke-dasharray:none;fill:none;fill-opacity:1;fill-rule: evenodd"/>
<path id="Shape2DView_nwe0039"  d="M 40.346 5.25 L 34.8475 5.25 " stroke="#191919" stroke-width="0.35 px" style="stroke-width:0.35;stroke-miterlimit:4;stroke-dasharray:none;fill:none;fill-opacity:1;fill-rule: evenodd"/>
<path id="Shape2DView_nwe0040"  d="M 40.346 5.249999999999931 L 40.346 5.415986547151024 L 40.346 5.571424597188412 L 40.346 5.715920572791665 L 40.346 5.849108602548492 L 40.346 5.970651447360405 L 40.346 6.0802413543498615 L 40.346 6.17760083610674 L 40.346 6.262483373301063 L 40.346 6.334674038882906 L 40.346 6.393990042289002 L 40.346 6.4402811922780545 L 40.346 6.4734302772228745 L 40.346 6.493353361896378 L 40.346 6.5 " stroke="#191919" stroke-width="0.35 px" style="stroke-width:0.35;stroke-miterlimit:4;stroke-dasharray:none;fill:none;fill-opacity:1;fill-rule: evenodd"/>
<path id="Shape2DView_nwe0041"  d="M 9.8525 5.25 L 4.354 5.25 " stroke="#191919" stroke-width="0.35 px" style="stroke-width:0.35;stroke-miterlimit:4;stroke-dasharray:none;fill:none;fill-opacity:1;fill-rule: evenodd"/>
<path id="Shape2DView_nwe0042"  d="M 9.8525 5.249999999999931 L 9.8525 5.415986547151024 L 9.8525 5.571424597188412 L 9.8525 5.715920572791665 L 9.8525 5.849108602548492 L 9.8525 5.970651447360405 L 9.8525 6.0802413543498615 L 9.8525 6.17760083610674 L 9.8525 6.262483373301063 L 9.8525 6.334674038882906 L 9.8525 6.393990042289002 L 9.8525 6.4402811922780545 L 9.8525 6.4734302772228745 L 9.8525 6.493353361896378 L 9.8525 6.5 " stroke="#191919" stroke-width="0.35 px" style="stroke-width:0.35;stroke-miterlimit:4;stroke-dasharray:none;fill:none;fill-opacity:1;fill-rule: evenodd"/>
<path id="Shape2DView_nwe0043"  d="M 4.354 5.249999999999931 L 4.354 5.415986547151024 L 4.354 5.571424597188412 L 4.354 5.715920572791665 L 4.354 5.849108602548492 L 4.354 5.970651447360405 L 4.354 6.0802413543498615 L 4.354 6.17760083610674 L 4.354 6.262483373301063 L 4.354 6.334674038882906 L 4.354 6.393990042289002 L 4.354 6.4402811922780545 L 4.354 6.4734302772228745 L 4.354 6.493353361896378 L 4.354 6.5 " stroke="#191919" stroke-width="0.35 px" style="stroke-width:0.35;stroke-miterlimit:4;stroke-dasharray:none;fill:none;fill-opacity:1;fill-rule: evenodd"/>
<path id="Shape2DView_nwe0044"  d="M -0.595 2.625 L -0.645 2.625 " stroke="#191919" stroke-width="0.35 px" style="stroke-width:0.35;stroke-miterlimit:4;stroke-dasharray:none;fill:none;fill-opacity:1;fill-rule: evenodd"/>
<path id="Shape2DView_nwe0045"  d="M -0.645 -2.625 L -0.595 -2.625 " stroke="#191919" stroke-width="0.35 px" style="stroke-width:0.35;stroke-miterlimit:4;stroke-dasharray:none;fill:none;fill-opacity:1;fill-rule: evenodd"/>
<path id="Shape2DView_nwe0046"  d="M -0.595 -2.625 L -0.595 2.625 " stroke="#191919" stroke-width="0.35 px" style="stroke-width:0.35;stroke-miterlimit:4;stroke-dasharray:none;fill:none;fill-opacity:1;fill-rule: evenodd"/>
<path id="Shape2DView_nwe0047"  d="M 43.595 0.0 L 43.595 0.15675026654463098 L 43.595 0.3115293075388401 L 43.595 0.4623906867372339 L 43.595 0.6074372347645813 L 43.595 0.7448449071214711 L 43.595 0.8728857226022269 L 43.595 0.9899494936611664 L 43.595 1.0945640754552417 L 43.595 1.1854138789195976 L 43.595 1.2613564150633867 L 43.595 1.3214366624317144 L 43.595 1.364899077054553 L 43.595 1.3911970938505396 L 43.595 1.4 " stroke="#191919" stroke-width="0.35 px" style="stroke-width:0.35;stroke-miterlimit:4;stroke-dasharray:none;fill:none;fill-opacity:1;fill-rule: evenodd"/>
<path id="Shape2DView_nwe0048"  d="M 43.595 -1.4 L 43.595 -1.3911970938505396 L 43.595 -1.364899077054553 L 43.595 -1.3214366624317144 L 43.595 -1.261356415063387 L 43.595 -1.1854138789195978 L 43.595 -1.0945640754552417 L 43.595 -0.9899494936611667 L 43.595 -0.8728857226022272 L 43.595 -0.7448449071214714 L 43.595 -0.6074372347645817 L 43.595 -0.4623906867372342 L 43.595 -0.3115293075388405 L 43.595 -0.1567502665446313 L 43.595 -3.429011037612589e-16 " stroke="#191919" stroke-width="0.35 px" style="stroke-width:0.35;stroke-miterlimit:4;stroke-dasharray:none;fill:none;fill-opacity:1;fill-rule: evenodd"/>
<path id="Shape2DView_nwe0049"  d="M 43.345 0.0 L 43.345 0.15675026654463098 L 43.345 0.3115293075388401 L 43.345 0.4623906867372339 L 43.345 0.6074372347645813 L 43.345 0.7448449071214711 L 43.345 0.8728857226022269 L 43.345 0.9899494936611664 L 43.345 1.0945640754552417 L 43.345 1.1854138789195976 L 43.345 1.2613564150633867 L 43.345 1.3214366624317144 L 43.345 1.364899077054553 L 43.345 1.3911970938505396 L 43.345 1.4 " stroke="#191919" stroke-width="0.35 px" style="stroke-width:0.35;stroke-miterlimit:4;stroke-dasharray:none;fill:none;fill-opacity:1;fill-rule: evenodd"/>
<path id="Shape2DView_nwe0050"  d="M 43.345 -1.4 L 43.345 -1.3911970938505396 L 43.345 -1.364899077054553 L 43.345 -1.3214366624317144 L 43.345 -1.261356415063387 L 43.345 -1.1854138789195978 L 43.345 -1.0945640754552417 L 43.345 -0.9899494936611667 L 43.345 -0.8728857226022272 L 43.345 -0.7448449071214714 L 43.345 -0.6074372347645817 L 43.345 -0.4623906867372342 L 43.345 -0.3115293075388405 L 43.345 -0.1567502665446313 L 43.345 -3.429011037612589e-16 " stroke="#191919" stroke-width="0.35 px" style="stroke-width:0.35;stroke-miterlimit:4;stroke-dasharray:none;fill:none;fill-opacity:1;fill-rule: evenodd"/>
<path id="Shape2DView_nwe0051"  d="M 44.095 0.0 L 44.095 0.2351253998169465 L 44.095 0.46729396130826023 L 44.095 0.693586030105851 L 44.095 0.9111558521468721 L 44.095 1.1172673606822068 L 44.095 1.3093285839033404 L 44.095 1.4849242404917498 L 44.095 1.6418461131828626 L 44.095 1.7781208183793968 L 44.095 1.8920346225950804 L 44.095 1.982154993647572 L 44.095 2.04734861558183 L 44.095 2.0867956407758097 L 44.095 2.1 " stroke="#191919" stroke-width="0.35 px" style="stroke-width:0.35;stroke-miterlimit:4;stroke-dasharray:none;fill:none;fill-opacity:1;fill-rule: evenodd"/>
<path id="Shape2DView_nwe0052"  d="M 44.095 -2.1 L 44.095 -2.0867956407758097 L 44.095 -2.04734861558183 L 44.095 -1.982154993647572 L 44.095 -1.8920346225950806 L 44.095 -1.778120818379397 L 44.095 -1.641846113182863 L 44.095 -1.4849242404917502 L 44.095 -1.3093285839033408 L 44.095 -1.1172673606822072 L 44.095 -0.9111558521468726 L 44.095 -0.6935860301058514 L 44.095 -0.4672939613082608 L 44.095 -0.235125399816947 L 44.095 -5.143516556418884e-16 " stroke="#191919" stroke-width="0.35 px" style="stroke-width:0.35;stroke-miterlimit:4;stroke-dasharray:none;fill:none;fill-opacity:1;fill-rule: evenodd"/>
<path id="Shape2DView_nwe0053"  d="M 43.845 0.0 L 43.845 0.2351253998169465 L 43.845 0.46729396130826023 L 43.845 0.693586030105851 L 43.845 0.9111558521468721 L 43.845 1.1172673606822068 L 43.845 1.3093285839033404 L 43.845 1.4849242404917498 L 43.845 1.6418461131828626 L 43.845 1.7781208183793968 L 43.845 1.8920346225950804 L 43.845 1.982154993647572 L 43.845 2.04734861558183 L 43.845 2.0867956407758097 L 43.845 2.1 " stroke="#191919" stroke-width="0.35 px" style="stroke-width:0.35;stroke-miterlimit:4;stroke-dasharray:none;fill:none;fill-opacity:1;fill-rule: evenodd"/>
<path id="Shape2DView_nwe0054"  d="M 43.845 -2.1 L 43.845 -2.0867956407758097 L 43.845 -2.04734861558183 L 43.845 -1.982154993647572 L 43.845 -1.8920346225950806 L 43.845 -1.778120818379397 L 43.845 -1.641846113182863 L 43.845 -1.4849242404917502 L 43.845 -1.3093285839033408 L 43.845 -1.1172673606822072 L 43.845 -0.9111558521468726 L 43.845 -0.6935860301058514 L 43.845 -0.4672939613082608 L 43.845 -0.235125399816947 L 43.845 -5.143516556418884e-16 " stroke="#191919" stroke-width="0.35 px" style="stroke-width:0.35;stroke-miterlimit:4;stroke-dasharray:none;fill:none;fill-opacity:1;fill-rule: evenodd"/>
<path id="Shape2DView_nwe0055"  d="M 44.595 0.0 L 44.595 0.31350053308926196 L 44.595 0.6230586150776802 L 44.595 0.9247813734744678 L 44.595 1.2148744695291627 L 44.595 1.4896898142429422 L 44.595 1.7457714452044537 L 44.595 1.9798989873223327 L 44.595 2.1891281509104834 L 44.595 2.370827757839195 L 44.595 2.5227128301267734 L 44.595 2.642873324863429 L 44.595 2.729798154109106 L 44.595 2.782394187701079 L 44.595 2.8 " stroke="#191919" stroke-width="0.35 px" style="stroke-width:0.35;stroke-miterlimit:4;stroke-dasharray:none;fill:none;fill-opacity:1;fill-rule: evenodd"/>
<path id="Shape2DView_nwe0056"  d="M 44.595 -2.8 L 44.595 -2.782394187701079 L 44.595 -2.729798154109106 L 44.595 -2.642873324863429 L 44.595 -2.522712830126774 L 44.595 -2.3708277578391956 L 44.595 -2.1891281509104834 L 44.595 -1.9798989873223334 L 44.595 -1.7457714452044544 L 44.595 -1.489689814242943 L 44.595 -1.2148744695291633 L 44.595 -0.9247813734744684 L 44.595 -0.623058615077681 L 44.595 -0.3135005330892626 L 44.595 -6.858022075225178e-16 " stroke="#191919" stroke-width="0.35 px" style="stroke-width:0.35;stroke-miterlimit:4;stroke-dasharray:none;fill:none;fill-opacity:1;fill-rule: evenodd"/>
<path id="Shape2DView_nwe0057"  d="M 44.345 0.0 L 44.345 0.31350053308926196 L 44.345 0.6230586150776802 L 44.345 0.9247813734744678 L 44.345 1.2148744695291627 L 44.345 1.4896898142429422 L 44.345 1.7457714452044537 L 44.345 1.9798989873223327 L 44.345 2.1891281509104834 L 44.345 2.370827757839195 L 44.345 2.5227128301267734 L 44.345 2.642873324863429 L 44.345 2.729798154109106 L 44.345 2.782394187701079 L 44.345 2.8 " stroke="#191919" stroke-width="0.35 px" style="stroke-width:0.35;stroke-miterlimit:4;stroke-dasharray:none;fill:none;fill-opacity:1;fill-rule: evenodd"/>
<path id="Shape2DView_nwe0058"  d="M 44.345 -2.8 L 44.345 -2.782394187701079 L 44.345 -2.729798154109106 L 44.345 -2.642873324863429 L 44.345 -2.522712830126774 L 44.345 -2.3708277578391956 L 44.345 -2.1891281509104834 L 44.345 -1.9798989873223334 L 44.345 -1.7457714452044544 L 44.345 -1.489689814242943 L 44.345 -1.2148744695291633 L 44.345 -0.9247813734744684 L 44.345 -0.623058615077681 L 44.345 -0.3135005330892626 L 44.345 -6.858022075225178e-16 " stroke="#191919" stroke-width="0.35 px" style="stroke-width:0.35;stroke-miterlimit:4;stroke-dasharray:none;fill:none;fill-opacity:1;fill-rule: evenodd"/>
<path id="Shape2DView_nwe0059"  d="M 45.095 0.0 L 45.095 0.3918756663615775 L 45.095 0.7788232688471004 L 45.095 1.1559767168430848 L 45.095 1.5185930869114534 L 45.095 1.8621122678036781 L 45.095 2.1822143065055672 L 45.095 2.474873734152916 L 45.095 2.7364101886381045 L 45.095 2.9635346972989947 L 45.095 3.153391037658467 L 45.095 3.3035916560792864 L 45.095 3.4122476926363827 L 45.095 3.477992734626349 L 45.095 3.5 " stroke="#191919" stroke-width="0.35 px" style="stroke-width:0.35;stroke-miterlimit:4;stroke-dasharray:none;fill:none;fill-opacity:1;fill-rule: evenodd"/>
<path id="Shape2DView_nwe0060"  d="M 45.095 -3.5 L 45.095 -3.477992734626349 L 45.095 -3.4122476926363827 L 45.095 -3.3035916560792864 L 45.095 -3.1533910376584675 L 45.095 -2.9635346972989947 L 45.095 -2.7364101886381045 L 45.095 -2.474873734152917 L 45.095 -2.182214306505568 L 45.095 -1.8621122678036788 L 45.095 -1.5185930869114541 L 45.095 -1.1559767168430857 L 45.095 -0.7788232688471013 L 45.095 -0.39187566636157833 L 45.095 -8.572527594031472e-16 " stroke="#191919" stroke-width="0.35 px" style="stroke-width:0.35;stroke-miterlimit:4;stroke-dasharray:none;fill:none;fill-opacity:1;fill-rule: evenodd"/>
<path id="Shape2DView_nwe0061"  d="M 44.845 0.0 L 44.845 0.3918756663615775 L 44.845 0.7788232688471004 L 44.845 1.1559767168430848 L 44.845 1.5185930869114534 L 44.845 1.8621122678036781 L 44.845 2.1822143065055672 L 44.845 2.474873734152916 L 44.845 2.7364101886381045 L 44.845 2.9635346972989947 L 44.845 3.153391037658467 L 44.845 3.3035916560792864 L 44.845 3.4122476926363827 L 44.845 3.477992734626349 L 44.845 3.5 " stroke="#191919" stroke-width="0.35 px" style="stroke-width:0.35;stroke-miterlimit:4;stroke-dasharray:none;fill:none;fill-opacity:1;fill-rule: evenodd"/>
<path id="Shape2DView_nwe0062"  d="M 44.845 -3.5 L 44.845 -3.477992734626349 L 44.845 -3.4122476926363827 L 44.845 -3.3035916560792864 L 44.845 -3.1533910376584675 L 44.845 -2.9635346972989947 L 44.845 -2.7364101886381045 L 44.845 -2.474873734152917 L 44.845 -2.182214306505568 L 44.845 -1.8621122678036788 L 44.845 -1.5185930869114541 L 44.845 -1.1559767168430857 L 44.845 -0.7788232688471013 L 44.845 -0.39187566636157833 L 44.845 -8.572527594031472e-16 " stroke="#191919" stroke-width="0.35 px" style="stroke-width:0.35;stroke-miterlimit:4;stroke-dasharray:none;fill:none;fill-opacity:1;fill-rule: evenodd"/>
<path id="Shape2DView_nwe0063"  d="M 43.595 0.0 L 43.595 0.2602762500280804 L 43.595 0.511477434112953 L 43.595 0.7448449071214711 L 43.595 0.9522418328792872 L 43.595 1.1264368916733356 L 43.595 1.261356415063387 L 43.595 1.3522961568046956 L 43.595 1.3960853160536522 L 43.595 1.3911970938505394 L 43.595 1.3378019281005966 L 43.595 1.2377615509064532 L 43.595 1.0945640754552413 L 43.595 0.9132023757893692 L 43.595 0.6999999999999998 " stroke="#191919" stroke-width="0.35 px" style="stroke-width:0.35;stroke-miterlimit:4;stroke-dasharray:none;fill:none;fill-opacity:1;fill-rule: evenodd"/>
<path id="Shape2DView_nwe0064"  d="M 43.595 -0.7000000000000001 L 43.595 -0.9132023757893696 L 43.595 -1.0945640754552415 L 43.595 -1.2377615509064537 L 43.595 -1.3378019281005973 L 43.595 -1.3911970938505398 L 43.595 -1.396085316053652 L 43.595 -1.3522961568046952 L 43.595 -1.2613564150633858 L 43.595 -1.126436891673334 L 43.595 -0.9522418328792849 L 43.595 -0.7448449071214682 L 43.595 -0.5114774341129494 L 43.595 -0.26027625002807625 L 43.595 -3.429011037612589e-16 " stroke="#191919" stroke-width="0.35 px" style="stroke-width:0.35;stroke-miterlimit:4;stroke-dasharray:none;fill:none;fill-opacity:1;fill-rule: evenodd"/>
<path id="Shape2DView_nwe0065"  d="M 43.345 0.0 L 43.345 0.2602762500280804 L 43.345 0.511477434112953 L 43.345 0.7448449071214711 L 43.345 0.9522418328792872 L 43.345 1.1264368916733356 L 43.345 1.261356415063387 L 43.345 1.3522961568046956 L 43.345 1.3960853160536522 L 43.345 1.3911970938505394 L 43.345 1.3378019281005966 L 43.345 1.2377615509064532 L 43.345 1.0945640754552413 L 43.345 0.9132023757893692 L 43.345 0.6999999999999998 " stroke="#191919" stroke-width="0.35 px" style="stroke-width:0.35;stroke-miterlimit:4;stroke-dasharray:none;fill:none;fill-opacity:1;fill-rule: evenodd"/>
<path id="Shape2DView_nwe0066"  d="M 43.345 -0.7000000000000001 L 43.345 -0.9132023757893696 L 43.345 -1.0945640754552415 L 43.345 -1.2377615509064537 L 43.345 -1.3378019281005973 L 43.345 -1.3911970938505398 L 43.345 -1.396085316053652 L 43.345 -1.3522961568046952 L 43.345 -1.2613564150633858 L 43.345 -1.126436891673334 L 43.345 -0.9522418328792849 L 43.345 -0.7448449071214682 L 43.345 -0.5114774341129494 L 43.345 -0.26027625002807625 L 43.345 -3.429011037612589e-16 " stroke="#191919" stroke-width="0.35 px" style="stroke-width:0.35;stroke-miterlimit:4;stroke-dasharray:none;fill:none;fill-opacity:1;fill-rule: evenodd"/>
<path id="Shape2DView_nwe0067"  d="M 44.095 0.0 L 44.095 0.35999285710175816 L 44.095 0.7093278688162699 L 44.095 1.037662722873287 L 44.095 1.335276831653499 L 44.095 1.5933591171205816 L 44.095 1.8042688690731166 L 44.095 1.961761953821703 L 44.095 2.061175676221986 L 44.095 2.099566822091209 L 44.095 2.0757987941640614 L 44.095 1.9905752618656714 L 44.095 1.8464193286762134 L 44.095 1.6475988338521572 L 44.095 1.3999999999999997 " stroke="#191919" stroke-width="0.35 px" style="stroke-width:0.35;stroke-miterlimit:4;stroke-dasharray:none;fill:none;fill-opacity:1;fill-rule: evenodd"/>
<path id="Shape2DView_nwe0068"  d="M 44.095 -1.4000000000000001 L 44.095 -1.6475988338521568 L 44.095 -1.8464193286762136 L 44.095 -1.9905752618656718 L 44.095 -2.0757987941640614 L 44.095 -2.099566822091209 L 44.095 -2.061175676221985 L 44.095 -1.961761953821701 L 44.095 -1.8042688690731135 L 44.095 -1.5933591171205772 L 44.095 -1.335276831653493 L 44.095 -1.03766272287328 L 44.095 -0.7093278688162612 L 44.095 -0.35999285710174833 L 44.095 -5.143516556418884e-16 " stroke="#191919" stroke-width="0.35 px" style="stroke-width:0.35;stroke-miterlimit:4;stroke-dasharray:none;fill:none;fill-opacity:1;fill-rule: evenodd"/>
<path id="Shape2DView_nwe0069"  d="M 43.845 0.0 L 43.845 0.35999285710175816 L 43.845 0.7093278688162699 L 43.845 1.037662722873287 L 43.845 1.335276831653499 L 43.845 1.5933591171205816 L 43.845 1.8042688690731166 L 43.845 1.961761953821703 L 43.845 2.061175676221986 L 43.845 2.099566822091209 L 43.845 2.0757987941640614 L 43.845 1.9905752618656714 L 43.845 1.8464193286762134 L 43.845 1.6475988338521572 L 43.845 1.3999999999999997 " stroke="#191919" stroke-width="0.35 px" style="stroke-width:0.35;stroke-miterlimit:4;stroke-dasharray:none;fill:none;fill-opacity:1;fill-rule: evenodd"/>
<path id="Shape2DView_nwe0070"  d="M 43.845 -1.4000000000000001 L 43.845 -1.6475988338521568 L 43.845 -1.8464193286762136 L 43.845 -1.9905752618656718 L 43.845 -2.0757987941640614 L 43.845 -2.099566822091209 L 43.845 -2.061175676221985 L 43.845 -1.961761953821701 L 43.845 -1.8042688690731135 L 43.845 -1.5933591171205772 L 43.845 -1.335276831653493 L 43.845 -1.03766272287328 L 43.845 -0.7093278688162612 L 43.845 -0.35999285710174833 L 43.845 -5.143516556418884e-16 " stroke="#191919" stroke-width="0.35 px" style="stroke-width:0.35;stroke-miterlimit:4;stroke-dasharray:none;fill:none;fill-opacity:1;fill-rule: evenodd"/>
<path id="Shape2DView_nwe0071"  d="M 44.595 0.0 L 44.595 0.4566570605916457 L 44.595 0.9010856644798674 L 44.595 1.321384811090254 L 44.595 1.7062996434188373 L 44.595 2.0455228329080843 L 44.595 2.3299705912112376 L 44.595 2.552025917745213 L 44.595 2.7057425692990393 L 44.595 2.7870042897577094 L 44.595 2.7936350360551487 L 44.595 2.725457248703052 L 44.595 2.5842966065153856 L 44.595 2.3739331382055626 L 44.595 2.1 " stroke="#191919" stroke-width="0.35 px" style="stroke-width:0.35;stroke-miterlimit:4;stroke-dasharray:none;fill:none;fill-opacity:1;fill-rule: evenodd"/>
<path id="Shape2DView_nwe0072"  d="M 44.595 -2.1000000000000005 L 44.595 -2.373933138205563 L 44.595 -2.5842966065153856 L 44.595 -2.725457248703052 L 44.595 -2.7936350360551487 L 44.595 -2.7870042897577094 L 44.595 -2.7057425692990393 L 44.595 -2.552025917745213 L 44.595 -2.3299705912112376 L 44.595 -2.0455228329080843 L 44.595 -1.7062996434188378 L 44.595 -1.3213848110902544 L 44.595 -0.901085664479868 L 44.595 -0.4566570605916463 L 44.595 -6.858022075225178e-16 " stroke="#191919" stroke-width="0.35 px" style="stroke-width:0.35;stroke-miterlimit:4;stroke-dasharray:none;fill:none;fill-opacity:1;fill-rule: evenodd"/>
<path id="Shape2DView_nwe0073"  d="M 44.345 0.0 L 44.345 0.4566570605916457 L 44.345 0.9010856644798674 L 44.345 1.321384811090254 L 44.345 1.7062996434188373 L 44.345 2.0455228329080843 L 44.345 2.3299705912112376 L 44.345 2.552025917745213 L 44.345 2.7057425692990393 L 44.345 2.7870042897577094 L 44.345 2.7936350360551487 L 44.345 2.725457248703052 L 44.345 2.5842966065153856 L 44.345 2.3739331382055626 L 44.345 2.1 " stroke="#191919" stroke-width="0.35 px" style="stroke-width:0.35;stroke-miterlimit:4;stroke-dasharray:none;fill:none;fill-opacity:1;fill-rule: evenodd"/>
<path id="Shape2DView_nwe0074"  d="M 44.345 -2.1000000000000005 L 44.345 -2.373933138205563 L 44.345 -2.5842966065153856 L 44.345 -2.725457248703052 L 44.345 -2.7936350360551487 L 44.345 -2.7870042897577094 L 44.345 -2.7057425692990393 L 44.345 -2.552025917745213 L 44.345 -2.3299705912112376 L 44.345 -2.0455228329080843 L 44.345 -1.7062996434188378 L 44.345 -1.3213848110902544 L 44.345 -0.901085664479868 L 44.345 -0.4566570605916463 L 44.345 -6.858022075225178e-16 " stroke="#191919" stroke-width="0.35 px" style="stroke-width:0.35;stroke-miterlimit:4;stroke-dasharray:none;fill:none;fill-opacity:1;fill-rule: evenodd"/>
<path id="Shape2DView_nwe0075"  d="M 45.095 0.0 L 45.095 0.5512692187796704 L 45.095 1.0887766755691455 L 45.095 1.5991041539393154 L 45.095 2.069511952388374 L 45.095 2.4882569154125216 L 45.095 2.844885587024341 L 45.095 3.130495168499706 L 45.095 3.3379557658621595 L 45.095 3.462088378968059 L 45.095 3.4997941889126127 L 45.095 3.4501319162548003 L 45.095 3.3143413189076827 L 45.095 3.0958122430979986 L 45.095 2.7999999999999994 " stroke="#191919" stroke-width="0.35 px" style="stroke-width:0.35;stroke-miterlimit:4;stroke-dasharray:none;fill:none;fill-opacity:1;fill-rule: evenodd"/>
<path id="Shape2DView_nwe0076"  d="M 45.095 -2.8 L 45.095 -3.0958122430979986 L 45.095 -3.314341318907683 L 45.095 -3.4501319162548008 L 45.095 -3.4997941889126127 L 45.095 -3.4620883789680583 L 45.095 -3.337955765862157 L 45.095 -3.1304951684997016 L 45.095 -2.8448855870243346 L 45.095 -2.4882569154125136 L 45.095 -2.0695119523883636 L 45.095 -1.599104153939303 L 45.095 -1.088776675569131 L 45.095 -0.5512692187796541 L 45.095 -8.572527594031472e-16 " stroke="#191919" stroke-width="0.35 px" style="stroke-width:0.35;stroke-miterlimit:4;stroke-dasharray:none;fill:none;fill-opacity:1;fill-rule: evenodd"/>
<path id="Shape2DView_nwe0077"  d="M 44.845 0.0 L 44.845 0.5512692187796704 L 44.845 1.0887766755691455 L 44.845 1.5991041539393154 L 44.845 2.069511952388374 L 44.845 2.4882569154125216 L 44.845 2.844885587024341 L 44.845 3.130495168499706 L 44.845 3.3379557658621595 L 44.845 3.462088378968059 L 44.845 3.4997941889126127 L 44.845 3.4501319162548003 L 44.845 3.3143413189076827 L 44.845 3.0958122430979986 L 44.845 2.7999999999999994 " stroke="#191919" stroke-width="0.35 px" style="stroke-width:0.35;stroke-miterlimit:4;stroke-dasharray:none;fill:none;fill-opacity:1;fill-rule: evenodd"/>
<path id="Shape2DView_nwe0078"  d="M 44.845 -2.8 L 44.845 -3.0958122430979986 L 44.845 -3.314341318907683 L 44.845 -3.4501319162548008 L 44.845 -3.4997941889126127 L 44.845 -3.4620883789680583 L 44.845 -3.337955765862157 L 44.845 -3.1304951684997016 L 44.845 -2.8448855870243346 L 44.845 -2.4882569154125136 L 44.845 -2.0695119523883636 L 44.845 -1.599104153939303 L 44.845 -1.088776675569131 L 44.845 -0.5512692187796541 L 44.845 -8.572527594031472e-16 " stroke="#191919" stroke-width="0.35 px" style="stroke-width:0.35;stroke-miterlimit:4;stroke-dasharray:none;fill:none;fill-opacity:1;fill-rule: evenodd"/>
<path id="Shape2DView_nwe0079"  d="M -0.645 -1.25 L -2.645 -1.25 " stroke="#191919" stroke-width="0.35 px" style="stroke-width:0.35;stroke-miterlimit:4;stroke-dasharray:none;fill:none;fill-opacity:1;fill-rule: evenodd"/>
<path id="Shape2DView_nwe0080"  d="M 47.345 -1.25 L 45.345 -1.25 " stroke="#191919" stroke-width="0.35 px" style="stroke-width:0.35;stroke-miterlimit:4;stroke-dasharray:none;fill:none;fill-opacity:1;fill-rule: evenodd"/>
<path id="Shape2DView_nwe0081"  d="M -2.645 1.25 L -0.645 1.25 " stroke="#191919" stroke-width="0.35 px" style="stroke-width:0.35;stroke-miterlimit:4;stroke-dasharray:none;fill:none;fill-opacity:1;fill-rule: evenodd"/>
<path id="Shape2DView_nwe0082"  d="M 45.345 1.25 L 47.345 1.25 " stroke="#191919" stroke-width="0.35 px" style="stroke-width:0.35;stroke-miterlimit:4;stroke-dasharray:none;fill:none;fill-opacity:1;fill-rule: evenodd"/>
<path id="Shape2DView_nwe0083"  d="M 43.345 0.0 L 43.595 0.0 " stroke="#191919" stroke-width="0.35 px" style="stroke-width:0.35;stroke-miterlimit:4;stroke-dasharray:none;fill:none;fill-opacity:1;fill-rule: evenodd"/>
<path id="Shape2DView_nwe0084"  d="M 43.845 0.0 L 44.095 0.0 " stroke="#191919" stroke-width="0.35 px" style="stroke-width:0.35;stroke-miterlimit:4;stroke-dasharray:none;fill:none;fill-opacity:1;fill-rule: evenodd"/>
<path id="Shape2DView_nwe0085"  d="M 44.345 0.0 L 44.595 0.0 " stroke="#191919" stroke-width="0.35 px" style="stroke-width:0.35;stroke-miterlimit:4;stroke-dasharray:none;fill:none;fill-opacity:1;fill-rule: evenodd"/>
<path id="Shape2DView_nwe0086"  d="M 44.845 0.0 L 45.095 0.0 " stroke="#191919" stroke-width="0.35 px" style="stroke-width:0.35;stroke-miterlimit:4;stroke-dasharray:none;fill:none;fill-opacity:1;fill-rule: evenodd"/>
<path id="Shape2DView_nwe0087"  d="M 43.595 1.4 L 43.345 1.4 " stroke="#191919" stroke-width="0.35 px" style="stroke-width:0.35;stroke-miterlimit:4;stroke-dasharray:none;fill:none;fill-opacity:1;fill-rule: evenodd"/>
<path id="Shape2DView_nwe0088"  d="M 43.595 -1.4 L 43.345 -1.4 " stroke="#191919" stroke-width="0.35 px" style="stroke-width:0.35;stroke-miterlimit:4;stroke-dasharray:none;fill:none;fill-opacity:1;fill-rule: evenodd"/>
<path id="Shape2DView_nwe0089"  d="M 44.095 2.1 L 43.845 2.1 " stroke="#191919" stroke-width="0.35 px" style="stroke-width:0.35;stroke-miterlimit:4;stroke-dasharray:none;fill:none;fill-opacity:1;fill-rule: evenodd"/>
<path id="Shape2DView_nwe0090"  d="M 44.095 -2.1 L 43.845 -2.1 " stroke="#191919" stroke-width="0.35 px" style="stroke-width:0.35;stroke-miterlimit:4;stroke-dasharray:none;fill:none;fill-opacity:1;fill-rule: evenodd"/>
<path id="Shape2DView_nwe0091"  d="M 44.595 2.8 L 44.345 2.8 " stroke="#191919" stroke-width="0.35 px" style="stroke-width:0.35;stroke-miterlimit:4;stroke-dasharray:none;fill:none;fill-opacity:1;fill-rule: evenodd"/>
<path id="Shape2DView_nwe0092"  d="M 44.595 -2.8 L 44.345 -2.8 " stroke="#191919" stroke-width="0.35 px" style="stroke-width:0.35;stroke-miterlimit:4;stroke-dasharray:none;fill:none;fill-opacity:1;fill-rule: evenodd"/>
<path id="Shape2DView_nwe0093"  d="M 45.095 3.5 L 44.845 3.5 " stroke="#191919" stroke-width="0.35 px" style="stroke-width:0.35;stroke-miterlimit:4;stroke-dasharray:none;fill:none;fill-opacity:1;fill-rule: evenodd"/>
<path id="Shape2DView_nwe0094"  d="M 45.095 -3.5 L 44.845 -3.5 " stroke="#191919" stroke-width="0.35 px" style="stroke-width:0.35;stroke-miterlimit:4;stroke-dasharray:none;fill:none;fill-opacity:1;fill-rule: evenodd"/>
<title>b'Shape2DView'</title>
</g>
<g id="Rectangle" transform="translate(3.144900,6.999900) scale(1,-1)">
<rect fill="#ff0000" id="origin" width="1" height="1" x="0" y="0" />
<title>b'Rectangle'</title>
</g>
</svg>