<?xml version="1.0"?>
<!DOCTYPE svg PUBLIC "-//W3C//DTD SVG 1.1//EN" "http://www.w3.org/Graphics/SVG/1.1/DTD/svg11.dtd">
<svg width="19.074mm" height="4.082928768092737mm" viewBox="0 0 19.074 4.082928768092737" xmlns="http://www.w3.org/2000/svg" version="1.1">
<g id="Shape2DView" transform="translate(4.437000,1.187000) scale(1,-1)">
<path id="Shape2DView_nwe0000"  d="M 14.45 -0.922857142857 L 14.45 -0.977142857143 " stroke="#191919" stroke-width="0.35 px" style="stroke-width:0.35;stroke-miterlimit:4;stroke-dasharray:none;fill:none;fill-opacity:1;fill-rule: evenodd"/>
<path id="Shape2DView_nwe0001"  d="M 14.450000000000001 -0.922857142857 A 0.542857 0.542857 0 0 1 13.9071 -0.38" stroke="#191919" stroke-width="0.35 px" style="stroke-width:0.35;stroke-miterlimit:4;stroke-dasharray:none;fill:none;fill-opacity:1;fill-rule: evenodd"/>
<path id="Shape2DView_nwe0002"  d="M 13.907142857143 -0.38 L 13.686329398001487 -0.38 L 13.034961529455007 -0.38 L 11.98570155630783 -0.38 L 10.59116375494165 -0.38 L 8.9212760737997 -0.38 L 7.059773654058144 -0.38 L 5.1000000000000005 -0.38 L 3.1402263459418567 -0.38 L 1.2787239262003007 -0.38 L -0.39116375494165023 -0.38 L -1.7857015563078322 -0.38 L -2.834961529455006 -0.38 L -3.4863293980014873 -0.38 L -3.707142857143001 -0.38 " stroke="#191919" stroke-width="0.35 px" style="stroke-width:0.35;stroke-miterlimit:4;stroke-dasharray:none;fill:none;fill-opacity:1;fill-rule: evenodd"/>
<path id="Shape2DView_nwe0003"  d="M 14.450000000000001 -0.977142857143 A 0.542857 0.542857 0 0 0 13.9071 -1.52" stroke="#191919" stroke-width="0.35 px" style="stroke-width:0.35;stroke-miterlimit:4;stroke-dasharray:none;fill:none;fill-opacity:1;fill-rule: evenodd"/>
<path id="Shape2DView_nwe0004"  d="M 13.907142857143 -1.52 L 13.686329398001487 -1.52 L 13.034961529455007 -1.52 L 11.98570155630783 -1.52 L 10.59116375494165 -1.52 L 8.9212760737997 -1.52 L 7.059773654058144 -1.52 L 5.1000000000000005 -1.52 L 3.1402263459418567 -1.52 L 1.2787239262003007 -1.52 L -0.39116375494165023 -1.52 L -1.7857015563078322 -1.52 L -2.834961529455006 -1.52 L -3.4863293980014873 -1.52 L -3.707142857143001 -1.52 " stroke="#191919" stroke-width="0.35 px" style="stroke-width:0.35;stroke-miterlimit:4;stroke-dasharray:none;fill:none;fill-opacity:1;fill-rule: evenodd"/>
<path id="Shape2DView_nwe0005"  d="M -0.8039623828292433 0.09871416815840392 L -0.7878547559904557 0.18810870118872636 L -0.7618393984711108 0.27513765815838986 L -0.7262434684864768 0.35870659943812394 L -0.68151460550935 0.4377645971035067 L -0.628215300943958 0.5113174509633773 L -0.5670158244701883 0.5784401912040881 L -0.4986857950134614 0.638288710421591 L -0.42408450234020223 0.6901103787618061 L -0.3441501009904553 0.7332535086777232 L -0.2598878124402137 0.7671755502784223 L -0.17235728385811538 0.7914499142087477 L -0.08265926242747566 0.8057713362579616 L 0.00807824718821068 0.8099597162343126 L 0.09871416815839708 0.8039623828294431 " stroke="#191919" stroke-width="0.35 px" style="stroke-width:0.35;stroke-miterlimit:4;stroke-dasharray:none;fill:none;fill-opacity:1;fill-rule: evenodd"/>
<path id="Shape2DView_nwe0006"  d="M -0.7153320907101526 -0.380000000000005 L -0.7312171566304287 -0.3484558362964538 L -0.7457120411152776 -0.3162491924660442 L -0.7587891866612454 -0.28344129940023494 L -0.7704237311534302 -0.25009453107844115 L -0.7805935551330418 -0.21627228598335993 L -0.7892793238506562 -0.18203886656852258 L -0.7964645240252132 -0.14745935700722884 L -0.8021354952388711 -0.11259949945528315 L -0.8062814559080321 -0.07752556906278431 L -0.8088945237811632 -0.04230424797259093 L -0.8099697309244379 -0.007002498545017957 L -0.8095050331667145 0.028312563950213004 L -0.8075013139858902 0.06357379893273309 L -0.8039623828292433 0.09871416815840373 " stroke="#191919" stroke-width="0.35 px" style="stroke-width:0.35;stroke-miterlimit:4;stroke-dasharray:none;fill:none;fill-opacity:1;fill-rule: evenodd"/>
<path id="Shape2DView_nwe0007"  d="M 11.003962382829243 -1.9987141681584037 L 10.987854755990455 -2.0881087011887263 L 10.96183939847111 -2.17513765815839 L 10.926243468486476 -2.2587065994381237 L 10.881514605509349 -2.3377645971035066 L 10.828215300943958 -2.4113174509633772 L 10.767015824470187 -2.478440191204088 L 10.69868579501346 -2.538288710421591 L 10.624084502340201 -2.590110378761806 L 10.544150100990455 -2.633253508677723 L 10.459887812440213 -2.6671755502784222 L 10.372357283858115 -2.6914499142087474 L 10.282659262427474 -2.7057713362579614 L 10.191921752811789 -2.7099597162343123 L 10.101285831841603 -2.703962382829443 " stroke="#191919" stroke-width="0.35 px" style="stroke-width:0.35;stroke-miterlimit:4;stroke-dasharray:none;fill:none;fill-opacity:1;fill-rule: evenodd"/>
<path id="Shape2DView_nwe0008"  d="M 10.915332090710152 -1.5199999999999956 L 10.931217156630428 -1.5515441637035468 L 10.945712041115277 -1.5837508075339564 L 10.958789186661244 -1.6165587005997657 L 10.97042373115343 -1.6499054689215593 L 10.98059355513304 -1.6837277140166407 L 10.989279323850656 -1.717961133431478 L 10.996464524025212 -1.752540642992772 L 11.002135495238871 -1.7874005005447176 L 11.00628145590803 -1.8224744309372163 L 11.008894523781162 -1.8576957520274098 L 11.009969730924437 -1.8929975014549827 L 11.009505033166715 -1.9283125639502137 L 11.00750131398589 -1.9635737989327338 L 11.003962382829243 -1.9987141681584037 " stroke="#191919" stroke-width="0.35 px" style="stroke-width:0.35;stroke-miterlimit:4;stroke-dasharray:none;fill:none;fill-opacity:1;fill-rule: evenodd"/>
<path id="Shape2DView_nwe0009"  d="M 0.8039623828294815 -0.09871416815808333 A 0.81 0.81 0 1 1 -0.715332 -0.38" stroke="#191919" stroke-width="0.35 px" style="stroke-width:0.35;stroke-miterlimit:4;stroke-dasharray:none;fill:none;fill-opacity:1;fill-rule: evenodd"/>
<path id="Shape2DView_nwe0010"  d="M 9.396037617170517 -1.8012858318419165 A 0.81 0.81 0 1 1 10.9153 -1.52" stroke="#191919" stroke-width="0.35 px" style="stroke-width:0.35;stroke-miterlimit:4;stroke-dasharray:none;fill:none;fill-opacity:1;fill-rule: evenodd"/>
<path id="Shape2DView_nwe0011"  d="M 14.45 -0.922857142857 L 14.21557597890005 -0.922857142857 L 13.524058914887618 -0.922857142857 L 12.410124361076079 -0.922857142857 L 10.929629647379159 -0.922857142857 L 9.156812960749168 -0.922857142857 L 7.18057073249154 -0.922857142857 L 5.1000000000000005 -0.922857142857 L 3.019429267508461 -0.922857142857 L 1.0431870392508316 -0.922857142857 L -0.7296296473791584 -0.922857142857 L -2.210124361076079 -0.922857142857 L -3.324058914887617 -0.922857142857 L -4.015575978900051 -0.922857142857 L -4.25 -0.922857142857 " stroke="#191919" stroke-width="0.35 px" style="stroke-width:0.35;stroke-miterlimit:4;stroke-dasharray:none;fill:none;fill-opacity:1;fill-rule: evenodd"/>
<path id="Shape2DView_nwe0012"  d="M 14.45 -0.977142857143 L 14.21557597890005 -0.977142857143 L 13.524058914887618 -0.977142857143 L 12.410124361076079 -0.977142857143 L 10.929629647379159 -0.977142857143 L 9.156812960749168 -0.977142857143 L 7.18057073249154 -0.977142857143 L 5.1000000000000005 -0.977142857143 L 3.019429267508461 -0.977142857143 L 1.0431870392508316 -0.977142857143 L -0.7296296473791584 -0.977142857143 L -2.210124361076079 -0.977142857143 L -3.324058914887617 -0.977142857143 L -4.015575978900051 -0.977142857143 L -4.25 -0.977142857143 " stroke="#191919" stroke-width="0.35 px" style="stroke-width:0.35;stroke-miterlimit:4;stroke-dasharray:none;fill:none;fill-opacity:1;fill-rule: evenodd"/>
<path id="Shape2DView_nwe0015"  d="M 4.891315814679433 0.21550489407843865 A 0.81 0.547337 -97 0 1 4.27552 -0.38" stroke="#191919" stroke-width="0.35 px" style="stroke-width:0.35;stroke-miterlimit:4;stroke-dasharray:none;fill:none;fill-opacity:1;fill-rule: evenodd"/>
<path id="Shape2DView_nwe0016"  d="M 5.32855574523864 -0.38000000000004075 A 0.441818 0.298547 -97 0 1 4.82743 -0.38" stroke="#191919" stroke-width="0.35 px" style="stroke-width:0.35;stroke-miterlimit:4;stroke-dasharray:none;fill:none;fill-opacity:1;fill-rule: evenodd"/>
<path id="Shape2DView_nwe0017"  d="M 5.308684185320568 -2.1155048940784384 A 0.81 0.547337 83 0 1 5.92448 -1.52" stroke="#191919" stroke-width="0.35 px" style="stroke-width:0.35;stroke-miterlimit:4;stroke-dasharray:none;fill:none;fill-opacity:1;fill-rule: evenodd"/>
<path id="Shape2DView_nwe0018"  d="M 4.87144425476136 -1.5199999999999594 A 0.441818 0.298547 83 0 1 5.37257 -1.52" stroke="#191919" stroke-width="0.35 px" style="stroke-width:0.35;stroke-miterlimit:4;stroke-dasharray:none;fill:none;fill-opacity:1;fill-rule: evenodd"/>
<path id="Shape2DView_nwe0019"  d="M -4.25 -0.977142857143 L -4.25 -0.922857142857 " stroke="#191919" stroke-width="0.35 px" style="stroke-width:0.35;stroke-miterlimit:4;stroke-dasharray:none;fill:none;fill-opacity:1;fill-rule: evenodd"/>
<path id="Shape2DView_nwe0020"  d="M -4.250000000000002 -0.922857142857 Q -4.2447845767469765 -0.8699040553258038 -4.239569153493951 -0.8169509677946076 Q -4.2280079393545 -0.7759579969761887 -4.216446725215048 -0.73496502615777 Q -4.072790417749842 -0.39822597289627415 -3.7071428571426748 -0.37999999999999995 " stroke="#191919" stroke-width="0.35 px" style="stroke-width:0.35;stroke-miterlimit:4;stroke-dasharray:none;fill:none;fill-opacity:1;fill-rule: evenodd"/>
<path id="Shape2DView_nwe0021"  d="M -4.250000000000002 -0.977142857143 Q -4.2447845767469765 -1.0300959446741962 -4.239569153493951 -1.0830490322053925 Q -4.2280079393545 -1.1240420030238112 -4.216446725215048 -1.1650349738422299 Q -4.07279041774984 -1.5017740271037263 -3.707142857142674 -1.52 " stroke="#191919" stroke-width="0.35 px" style="stroke-width:0.35;stroke-miterlimit:4;stroke-dasharray:none;fill:none;fill-opacity:1;fill-rule: evenodd"/>
<path id="Shape2DView_nwe0022"  d="M 4.891315814681243 0.2155048940788309 L 0.09871416815824062 0.8039623828294622 " stroke="#191919" stroke-width="0.35 px" style="stroke-width:0.35;stroke-miterlimit:4;stroke-dasharray:none;fill:none;fill-opacity:1;fill-rule: evenodd"/>
<path id="Shape2DView_nwe0023"  d="M 5.44790065173325 -0.38000001827657603 Q 5.3641205005121435 0.10889500614073452 4.891315814679131 0.21550489407847573 " stroke="#191919" stroke-width="0.35 px" style="stroke-width:0.35;stroke-miterlimit:4;stroke-dasharray:none;fill:none;fill-opacity:1;fill-rule: evenodd"/>
<path id="Shape2DView_nwe0024"  d="M 5.308684185318757 -2.1155048940788306 L 10.101285831841759 -2.703962382829462 " stroke="#191919" stroke-width="0.35 px" style="stroke-width:0.35;stroke-miterlimit:4;stroke-dasharray:none;fill:none;fill-opacity:1;fill-rule: evenodd"/>
<path id="Shape2DView_nwe0025"  d="M 4.752099348266743 -1.519999981723383 Q 4.835879499487807 -2.008895006140702 5.308684185320869 -2.1155048940784758 " stroke="#191919" stroke-width="0.35 px" style="stroke-width:0.35;stroke-miterlimit:4;stroke-dasharray:none;fill:none;fill-opacity:1;fill-rule: evenodd"/>
<title>b'Shape2DView'</title>
</g>
<g id="Rectangle" transform="translate(4.437000,1.187000) scale(1,-1)">
<rect fill="#ff0000" id="origin" width="1" height="1" x="0" y="0" />
<title>b'Rectangle'</title>
</g>
</svg>