<?xml version="1.0"?>
<!DOCTYPE svg PUBLIC "-//W3C//DTD SVG 1.1//EN" "http://www.w3.org/Graphics/SVG/1.1/DTD/svg11.dtd">
<svg width="11.628mm" height="3.6754468892763006mm" viewBox="0 0 11.628 3.6754468892763006" xmlns="http://www.w3.org/2000/svg" version="1.1">
<g id="Shape2DView" transform="translate(3.264000,1.114000) scale(1,-1)">
<path id="Shape2DView_nwe0000"  d="M 8.25 -0.63 L 8.25 -1.17 " stroke="#191919" stroke-width="0.35 px" style="stroke-width:0.35;stroke-miterlimit:4;stroke-dasharray:none;fill:none;fill-opacity:1;fill-rule: evenodd"/>
<path id="Shape2DView_nwe0001"  d="M 7.25 -0.36 L 7.331734067555415 -0.36 L 7.412440281788109 -0.36 L 7.491103715227272 -0.36 L 7.566735129555817 -0.36 L 7.638383415856196 -0.36 L 7.705147555356875 -0.36 L 7.76618795026618 -0.36 L 7.8207369822016615 -0.36 L 7.868108665436647 -0.36 L 7.907707273568766 -0.36 L 7.939034831125109 -0.36 L 7.961697375892731 -0.36 L 7.975409913222067 -0.36 L 7.98 -0.36 " stroke="#191919" stroke-width="0.35 px" style="stroke-width:0.35;stroke-miterlimit:4;stroke-dasharray:none;fill:none;fill-opacity:1;fill-rule: evenodd"/>
<path id="Shape2DView_nwe0002"  d="M 7.98 -0.36 L 7.975409913222067 -0.36 L 7.961697375892731 -0.36 L 7.939034831125109 -0.36 L 7.907707273568766 -0.36 L 7.868108665436647 -0.36 L 7.8207369822016615 -0.36 L 7.76618795026618 -0.36 L 7.705147555356875 -0.36 L 7.638383415856196 -0.36 L 7.566735129555817 -0.36 L 7.491103715227272 -0.36 L 7.412440281788109 -0.36 L 7.331734067555415 -0.36 L 7.25 -0.36 " stroke="#191919" stroke-width="0.35 px" style="stroke-width:0.35;stroke-miterlimit:4;stroke-dasharray:none;fill:none;fill-opacity:1;fill-rule: evenodd"/>
<path id="Shape2DView_nwe0003"  d="M 7.25 -0.36 L -2.1500000000000004 -0.36 " stroke="#191919" stroke-width="0.35 px" style="stroke-width:0.35;stroke-miterlimit:4;stroke-dasharray:none;fill:none;fill-opacity:1;fill-rule: evenodd"/>
<path id="Shape2DView_nwe0004"  d="M -2.1499999999999995 -0.36 L -2.2317340675554145 -0.36 L -2.3124402817881093 -0.36 L -2.3911037152272714 -0.36 L -2.466735129555817 -0.36 L -2.5383834158561953 -0.36 L -2.6051475553568753 -0.36 L -2.6661879502661794 -0.36 L -2.7207369822016614 -0.36 L -2.768108665436647 -0.36 L -2.8077072735687656 -0.36 L -2.839034831125108 -0.36 L -2.861697375892731 -0.36 L -2.875409913222067 -0.36 L -2.88 -0.36 " stroke="#191919" stroke-width="0.35 px" style="stroke-width:0.35;stroke-miterlimit:4;stroke-dasharray:none;fill:none;fill-opacity:1;fill-rule: evenodd"/>
<path id="Shape2DView_nwe0005"  d="M 7.98 -0.36 A 0.27 0.27 0 0 0 8.25 -0.63" stroke="#191919" stroke-width="0.35 px" style="stroke-width:0.35;stroke-miterlimit:4;stroke-dasharray:none;fill:none;fill-opacity:1;fill-rule: evenodd"/>
<path id="Shape2DView_nwe0006"  d="M 7.25 -1.44 L 7.331734067555415 -1.44 L 7.412440281788109 -1.44 L 7.491103715227272 -1.44 L 7.566735129555817 -1.44 L 7.638383415856196 -1.44 L 7.705147555356875 -1.44 L 7.76618795026618 -1.44 L 7.8207369822016615 -1.44 L 7.868108665436647 -1.44 L 7.907707273568766 -1.44 L 7.939034831125109 -1.44 L 7.961697375892731 -1.44 L 7.975409913222067 -1.44 L 7.98 -1.44 " stroke="#191919" stroke-width="0.35 px" style="stroke-width:0.35;stroke-miterlimit:4;stroke-dasharray:none;fill:none;fill-opacity:1;fill-rule: evenodd"/>
<path id="Shape2DView_nwe0007"  d="M 8.25 -1.17 A 0.27 0.27 0 0 0 7.98 -1.44" stroke="#191919" stroke-width="0.35 px" style="stroke-width:0.35;stroke-miterlimit:4;stroke-dasharray:none;fill:none;fill-opacity:1;fill-rule: evenodd"/>
<path id="Shape2DView_nwe0008"  d="M -2.15 -1.44 L 7.25 -1.44 " stroke="#191919" stroke-width="0.35 px" style="stroke-width:0.35;stroke-miterlimit:4;stroke-dasharray:none;fill:none;fill-opacity:1;fill-rule: evenodd"/>
<path id="Shape2DView_nwe0009"  d="M -2.88 -1.44 L -2.875409913222067 -1.44 L -2.861697375892731 -1.44 L -2.839034831125108 -1.44 L -2.807707273568766 -1.44 L -2.7681086654366474 -1.44 L -2.720736982201662 -1.44 L -2.6661879502661794 -1.44 L -2.6051475553568753 -1.44 L -2.5383834158561958 -1.44 L -2.4667351295558175 -1.44 L -2.391103715227272 -1.44 L -2.3124402817881093 -1.44 L -2.2317340675554145 -1.44 L -2.15 -1.44 " stroke="#191919" stroke-width="0.35 px" style="stroke-width:0.35;stroke-miterlimit:4;stroke-dasharray:none;fill:none;fill-opacity:1;fill-rule: evenodd"/>
<path id="Shape2DView_nwe0010"  d="M 5.745154998566665 -1.8792150732131478 L 5.732229125177552 -1.950951426879463 L 5.711352603711449 -2.020789478768711 L 5.682787968538631 -2.087850974857403 L 5.646894436519984 -2.151292577922237 L 5.6041233896465545 -2.2103164729949976 L 5.555012698649117 -2.264180400348683 L 5.500179958961649 -2.3122069898442428 L 5.440314724100418 -2.3537922792530925 L 5.376169834128421 -2.38841330943257 L 5.30855194825479 -2.4156347008405787 L 5.238311400627196 -2.4351141286859432 L 5.1663315068865705 -2.4466066278612812 L 5.09351745596041 -2.4499676735213596 L 5.020784926786807 -2.445154998566878 " stroke="#191919" stroke-width="0.35 px" style="stroke-width:0.35;stroke-miterlimit:4;stroke-dasharray:none;fill:none;fill-opacity:1;fill-rule: evenodd"/>
<path id="Shape2DView_nwe0011"  d="M 5.641202365109157 -1.439999999999856 L 5.658735687847005 -1.467863836467679 L 5.674835723563192 -1.4965796794619683 L 5.68946117192065 -1.5260738661650892 L 5.702574515241927 -1.5562707371267228 L 5.714142114750762 -1.5870928303479572 L 5.724134296863369 -1.6184610799893353 L 5.732525429308081 -1.6502950191931256 L 5.739293986878096 -1.6825129864995332 L 5.744422606648631 -1.7150323353273413 L 5.7478981325168705 -1.7477696459816177 L 5.749711648950429 -1.7806409396446397 L 5.749858503857763 -1.813561893801098 L 5.748338320521873 -1.8464480585449643 L 5.745154998566665 -1.8792150732131476 " stroke="#191919" stroke-width="0.35 px" style="stroke-width:0.35;stroke-miterlimit:4;stroke-dasharray:none;fill:none;fill-opacity:1;fill-rule: evenodd"/>
<path id="Shape2DView_nwe0012"  d="M -0.6451549985666652 0.07921507321314772 L -0.6322291251775524 0.1509514268794629 L -0.611352603711449 0.22078947876871083 L -0.582787968538631 0.28785097485740274 L -0.5468944365199842 0.35129257792223695 L -0.5041233896465553 0.4103164729949976 L -0.45501269864911714 0.4641804003486832 L -0.4001799589616493 0.5122069898442425 L -0.340314724100418 0.5537922792530925 L -0.2761698341284218 0.5884133094325701 L -0.2085519482547905 0.6156347008405788 L -0.13831140062719632 0.6351141286859434 L -0.06633150688657125 0.6466066278612814 L 0.006482544039589214 0.6499676735213596 L 0.0792150732131922 0.6451549985668782 " stroke="#191919" stroke-width="0.35 px" style="stroke-width:0.35;stroke-miterlimit:4;stroke-dasharray:none;fill:none;fill-opacity:1;fill-rule: evenodd"/>
<path id="Shape2DView_nwe0013"  d="M -0.5412023651091574 -0.3600000000001441 L -0.5587356878470057 -0.332136163532321 L -0.5748357235631927 -0.3034203205380317 L -0.5894611719206501 -0.2739261338349109 L -0.6025745152419272 -0.24372926287327715 L -0.6141421147507623 -0.2129071696520427 L -0.624134296863369 -0.18153892001066474 L -0.6325254293080819 -0.14970498080687447 L -0.6392939868780961 -0.11748701350046675 L -0.644422606648631 -0.08496766467265876 L -0.6478981325168708 -0.05223035401838237 L -0.6497116489504291 -0.019359060355360364 L -0.6498585038577638 0.01356189380109786 L -0.6483383205218736 0.04644805854496429 L -0.6451549985666652 0.07921507321314757 " stroke="#191919" stroke-width="0.35 px" style="stroke-width:0.35;stroke-miterlimit:4;stroke-dasharray:none;fill:none;fill-opacity:1;fill-rule: evenodd"/>
<path id="Shape2DView_nwe0014"  d="M -2.88 -0.36 A 0.27 0.27 0 0 1 -3.15 -0.63" stroke="#191919" stroke-width="0.35 px" style="stroke-width:0.35;stroke-miterlimit:4;stroke-dasharray:none;fill:none;fill-opacity:1;fill-rule: evenodd"/>
<path id="Shape2DView_nwe0015"  d="M -3.15 -1.17 A 0.27 0.27 0 0 1 -2.88 -1.44" stroke="#191919" stroke-width="0.35 px" style="stroke-width:0.35;stroke-miterlimit:4;stroke-dasharray:none;fill:none;fill-opacity:1;fill-rule: evenodd"/>
<path id="Shape2DView_nwe0016"  d="M -3.15 -0.63 L -3.15 -1.17 " stroke="#191919" stroke-width="0.35 px" style="stroke-width:0.35;stroke-miterlimit:4;stroke-dasharray:none;fill:none;fill-opacity:1;fill-rule: evenodd"/>
<path id="Shape2DView_nwe0019"  d="M 7.25 -1.17 L 7.361964476103308 -1.17 L 7.472520933956314 -1.17 L 7.580279061955167 -1.17 L 7.683883739117558 -1.17 L 7.782032076515336 -1.17 L 7.873489801858733 -1.17 L 7.957106781186548 -1.17 L 8.03183148246803 -1.17 L 8.096724199228284 -1.17 L 8.150968867902419 -1.17 L 8.193883330308367 -1.17 L 8.224927912181824 -1.17 L 8.243712209893243 -1.17 L 8.25 -1.17 " stroke="#191919" stroke-width="0.35 px" style="stroke-width:0.35;stroke-miterlimit:4;stroke-dasharray:none;fill:none;fill-opacity:1;fill-rule: evenodd"/>
<path id="Shape2DView_nwe0020"  d="M 8.25 -0.63 L 8.243712209893243 -0.63 L 8.224927912181824 -0.63 L 8.193883330308367 -0.63 L 8.150968867902419 -0.63 L 8.096724199228284 -0.63 L 8.03183148246803 -0.63 L 7.957106781186548 -0.63 L 7.873489801858733 -0.63 L 7.782032076515336 -0.63 L 7.683883739117558 -0.63 L 7.580279061955167 -0.63 L 7.472520933956314 -0.63 L 7.361964476103308 -0.63 L 7.25 -0.63 " stroke="#191919" stroke-width="0.35 px" style="stroke-width:0.35;stroke-miterlimit:4;stroke-dasharray:none;fill:none;fill-opacity:1;fill-rule: evenodd"/>
<path id="Shape2DView_nwe0021"  d="M 7.25 -0.63 L 7.25 -1.17 " stroke="#191919" stroke-width="0.35 px" style="stroke-width:0.35;stroke-miterlimit:4;stroke-dasharray:none;fill:none;fill-opacity:1;fill-rule: evenodd"/>
<path id="Shape2DView_nwe0022"  d="M 7.25 -0.36 L 7.25 -0.3616977033288245 L 7.25 -0.36676946371090763 L 7.25 -0.37515150081674076 L 7.25 -0.38673840566634676 L 7.25 -0.4013844662083632 L 7.25 -0.4189054997336319 L 7.25 -0.4390811690796321 L 7.25 -0.46165775349814187 L 7.25 -0.48635133934085906 L 7.25 -0.5128513904382592 L 7.25 -0.5408246532721048 L 7.25 -0.5699193478317951 L 7.25 -0.5997695914521068 L 7.25 -0.6299999999999999 " stroke="#191919" stroke-width="0.35 px" style="stroke-width:0.35;stroke-miterlimit:4;stroke-dasharray:none;fill:none;fill-opacity:1;fill-rule: evenodd"/>
<path id="Shape2DView_nwe0023"  d="M 7.25 -1.17 L 7.25 -1.200230408547893 L 7.25 -1.2300806521682048 L 7.25 -1.259175346727895 L 7.25 -1.2871486095617406 L 7.25 -1.3136486606591409 L 7.25 -1.338342246501858 L 7.25 -1.3609188309203677 L 7.25 -1.381094500266368 L 7.25 -1.3986155337916366 L 7.25 -1.413261594333653 L 7.25 -1.424848499183259 L 7.25 -1.4332305362890922 L 7.25 -1.4383022966711754 L 7.25 -1.44 " stroke="#191919" stroke-width="0.35 px" style="stroke-width:0.35;stroke-miterlimit:4;stroke-dasharray:none;fill:none;fill-opacity:1;fill-rule: evenodd"/>
<path id="Shape2DView_nwe0024"  d="M -2.15 -1.17 L 7.25 -1.17 " stroke="#191919" stroke-width="0.35 px" style="stroke-width:0.35;stroke-miterlimit:4;stroke-dasharray:none;fill:none;fill-opacity:1;fill-rule: evenodd"/>
<path id="Shape2DView_nwe0025"  d="M -2.15 -0.63 L -2.15 -1.17 " stroke="#191919" stroke-width="0.35 px" style="stroke-width:0.35;stroke-miterlimit:4;stroke-dasharray:none;fill:none;fill-opacity:1;fill-rule: evenodd"/>
<path id="Shape2DView_nwe0026"  d="M 7.25 -0.63 L -2.1500000000000004 -0.63 " stroke="#191919" stroke-width="0.35 px" style="stroke-width:0.35;stroke-miterlimit:4;stroke-dasharray:none;fill:none;fill-opacity:1;fill-rule: evenodd"/>
<path id="Shape2DView_nwe0028"  d="M -2.15 -0.36 L -2.15 -0.3616977033288245 L -2.15 -0.36676946371090763 L -2.15 -0.37515150081674076 L -2.15 -0.3867384056663468 L -2.15 -0.40138446620836327 L -2.15 -0.41890549973363195 L -2.15 -0.4390811690796321 L -2.15 -0.4616577534981419 L -2.15 -0.4863513393408591 L -2.15 -0.5128513904382593 L -2.15 -0.5408246532721048 L -2.15 -0.5699193478317951 L -2.15 -0.5997695914521068 L -2.15 -0.63 " stroke="#191919" stroke-width="0.35 px" style="stroke-width:0.35;stroke-miterlimit:4;stroke-dasharray:none;fill:none;fill-opacity:1;fill-rule: evenodd"/>
<path id="Shape2DView_nwe0029"  d="M -2.1499999999999995 -0.63 L -2.2619644761033073 -0.63 L -2.372520933956314 -0.63 L -2.4802790619551667 -0.63 L -2.5838837391175575 -0.63 L -2.6820320765153363 -0.63 L -2.7734898018587333 -0.63 L -2.8571067811865474 -0.63 L -2.9318314824680294 -0.63 L -2.996724199228284 -0.63 L -3.050968867902419 -0.63 L -3.0938833303083673 -0.63 L -3.1249279121818234 -0.63 L -3.1437122098932426 -0.63 L -3.15 -0.63 " stroke="#191919" stroke-width="0.35 px" style="stroke-width:0.35;stroke-miterlimit:4;stroke-dasharray:none;fill:none;fill-opacity:1;fill-rule: evenodd"/>
<path id="Shape2DView_nwe0030"  d="M 2.4146686523503496 0.3583973563438589 A 0.65 0.484407 -97 0 1 1.84859 -0.36" stroke="#191919" stroke-width="0.35 px" style="stroke-width:0.35;stroke-miterlimit:4;stroke-dasharray:none;fill:none;fill-opacity:1;fill-rule: evenodd"/>
<path id="Shape2DView_nwe0031"  d="M 2.790840398323074 -0.35999999999983884 A 0.354545 0.264222 -97 0 1 2.79325 -0.342967" stroke="#191919" stroke-width="0.35 px" style="stroke-width:0.35;stroke-miterlimit:4;stroke-dasharray:none;fill:none;fill-opacity:1;fill-rule: evenodd"/>
<path id="Shape2DView_nwe0032"  d="M 2.7932451368078715 -0.3429673776170665 A 0.354545 0.264222 -97 1 1 2.26581 -0.36" stroke="#191919" stroke-width="0.35 px" style="stroke-width:0.35;stroke-miterlimit:4;stroke-dasharray:none;fill:none;fill-opacity:1;fill-rule: evenodd"/>
<path id="Shape2DView_nwe0033"  d="M -2.15 -1.17 L -2.15 -1.200230408547893 L -2.15 -1.2300806521682048 L -2.15 -1.259175346727895 L -2.15 -1.2871486095617406 L -2.15 -1.3136486606591409 L -2.15 -1.338342246501858 L -2.15 -1.3609188309203677 L -2.15 -1.381094500266368 L -2.15 -1.3986155337916366 L -2.15 -1.413261594333653 L -2.15 -1.424848499183259 L -2.15 -1.4332305362890922 L -2.15 -1.4383022966711754 L -2.15 -1.44 " stroke="#191919" stroke-width="0.35 px" style="stroke-width:0.35;stroke-miterlimit:4;stroke-dasharray:none;fill:none;fill-opacity:1;fill-rule: evenodd"/>
<path id="Shape2DView_nwe0034"  d="M 2.6853313476496505 -2.1583973563438588 A 0.65 0.484407 83 0 1 3.25141 -1.44" stroke="#191919" stroke-width="0.35 px" style="stroke-width:0.35;stroke-miterlimit:4;stroke-dasharray:none;fill:none;fill-opacity:1;fill-rule: evenodd"/>
<path id="Shape2DView_nwe0035"  d="M 2.3067548631921286 -1.4570326223829335 A 0.354545 0.264222 83 1 1 2.83419 -1.44" stroke="#191919" stroke-width="0.35 px" style="stroke-width:0.35;stroke-miterlimit:4;stroke-dasharray:none;fill:none;fill-opacity:1;fill-rule: evenodd"/>
<path id="Shape2DView_nwe0036"  d="M 2.3091596016769262 -1.4400000000001612 A 0.354545 0.264222 83 0 1 2.30675 -1.45703" stroke="#191919" stroke-width="0.35 px" style="stroke-width:0.35;stroke-miterlimit:4;stroke-dasharray:none;fill:none;fill-opacity:1;fill-rule: evenodd"/>
<path id="Shape2DView_nwe0038"  d="M -3.15 -1.17 L -3.1437122098932426 -1.17 L -3.1249279121818234 -1.17 L -3.0938833303083673 -1.17 L -3.050968867902419 -1.17 L -2.996724199228284 -1.17 L -2.93183148246803 -1.17 L -2.8571067811865474 -1.17 L -2.7734898018587337 -1.17 L -2.6820320765153367 -1.17 L -2.583883739117558 -1.17 L -2.480279061955167 -1.17 L -2.3725209339563142 -1.17 L -2.2619644761033078 -1.17 L -2.15 -1.17 " stroke="#191919" stroke-width="0.35 px" style="stroke-width:0.35;stroke-miterlimit:4;stroke-dasharray:none;fill:none;fill-opacity:1;fill-rule: evenodd"/>
<path id="Shape2DView_nwe0039"  d="M 2.8909583013373004 -0.35496504561863573 L 2.8904294787313614 -0.35490011436717006 L 2.88884491816797 -0.3547055547941701 L 2.886210334531722 -0.35438206859923177 L 2.8825352297260434 -0.3539308224693947 L 2.8778328584035684 -0.35335344387136275 L 2.8721201801618426 -0.3526520151818735 L 2.8654177983767473 -0.3518290661773877 L 2.857749885894252 -0.3508875649101834 L 2.8491440978485008 -0.34983090700376335 L 2.8396314719206575 -0.34866290340618056 L 2.8292463163982373 -0.3473877666454529 L 2.818026086438656 -0.3460100956366373 L 2.806011248983257 -0.34453485909535775 L 2.7932451368090265 -0.342967377617609 " stroke="#191919" stroke-width="0.35 px" style="stroke-width:0.35;stroke-miterlimit:4;stroke-dasharray:none;fill:none;fill-opacity:1;fill-rule: evenodd"/>
<path id="Shape2DView_nwe0040"  d="M 2.2090416986627 -1.4450349543813643 L 2.2095705212686387 -1.44509988563283 L 2.2111550818320307 -1.4452944452058298 L 2.213789665468278 -1.4456179314007682 L 2.2174647702739567 -1.4460691775306054 L 2.222167141596432 -1.4466465561286372 L 2.2278798198381575 -1.4473479848181265 L 2.234582201623253 -1.4481709338226123 L 2.2422501141057483 -1.4491124350898166 L 2.2508559021514993 -1.4501690929962368 L 2.2603685280793426 -1.4513370965938195 L 2.2707536836017628 -1.452612233354547 L 2.281973913561344 -1.4539899043633626 L 2.2939887510167427 -1.4554651409046424 L 2.3067548631909736 -1.457032622382391 " stroke="#191919" stroke-width="0.35 px" style="stroke-width:0.35;stroke-miterlimit:4;stroke-dasharray:none;fill:none;fill-opacity:1;fill-rule: evenodd"/>
<path id="Shape2DView_nwe0041"  d="M 2.4146686523504646 0.35839735634337816 L 0.07921507321330318 0.6451549985668645 " stroke="#191919" stroke-width="0.35 px" style="stroke-width:0.35;stroke-miterlimit:4;stroke-dasharray:none;fill:none;fill-opacity:1;fill-rule: evenodd"/>
<path id="Shape2DView_nwe0042"  d="M 2.890958301336166 -0.3549650456177459 L 2.890323264288254 -0.3599999963650852 " stroke="#191919" stroke-width="0.35 px" style="stroke-width:0.35;stroke-miterlimit:4;stroke-dasharray:none;fill:none;fill-opacity:1;fill-rule: evenodd"/>
<path id="Shape2DView_nwe0043"  d="M 2.890958301336166 -0.3549650456177459 C 2.8734311597249578 0.1313571447617082 2.792902217548277 0.22889683856234955 2.4146686523503496 0.35839735634385905 " stroke="#191919" stroke-width="0.35 px" style="stroke-width:0.35;stroke-miterlimit:4;stroke-dasharray:none;fill:none;fill-opacity:1;fill-rule: evenodd"/>
<path id="Shape2DView_nwe0044"  d="M 2.685331347649535 -2.1583973563433783 L 5.020784926786696 -2.445154998566865 " stroke="#191919" stroke-width="0.35 px" style="stroke-width:0.35;stroke-miterlimit:4;stroke-dasharray:none;fill:none;fill-opacity:1;fill-rule: evenodd"/>
<path id="Shape2DView_nwe0045"  d="M 2.2090416986638335 -1.445034954382254 C 2.2265688402750414 -1.9313571447617075 2.307097782451723 -2.0288968385623503 2.685331347649651 -2.158397356343859 " stroke="#191919" stroke-width="0.35 px" style="stroke-width:0.35;stroke-miterlimit:4;stroke-dasharray:none;fill:none;fill-opacity:1;fill-rule: evenodd"/>
<path id="Shape2DView_nwe0046"  d="M 2.2090416986638335 -1.445034954382254 L 2.2096767357117475 -1.4400000036349072 " stroke="#191919" stroke-width="0.35 px" style="stroke-width:0.35;stroke-miterlimit:4;stroke-dasharray:none;fill:none;fill-opacity:1;fill-rule: evenodd"/>
<title>b'Shape2DView'</title>
</g>
<g id="Rectangle" transform="translate(3.264000,1.114000) scale(1,-1)">
<rect fill="#ff0000" id="origin" width="1" height="1" x="0" y="0" />
<title>b'Rectangle'</title>
</g>
</svg>