<?xml version="1.0"?>
<!DOCTYPE svg PUBLIC "-//W3C//DTD SVG 1.1//EN" "http://www.w3.org/Graphics/SVG/1.1/DTD/svg11.dtd">
<svg width="8.466000000000001mm" height="3.275744201922133mm" viewBox="0 0 8.466000000000001 3.275744201922133" xmlns="http://www.w3.org/2000/svg" version="1.1">
<g id="Shape2DView" transform="translate(1.683000,1.083000) scale(1,-1)">
<path id="Shape2DView_nwe0000"  d="M 6.7 -0.777142857143 L 6.7 -0.822857142857 " stroke="#191919" stroke-width="0.35 px" style="stroke-width:0.35;stroke-miterlimit:4;stroke-dasharray:none;fill:none;fill-opacity:1;fill-rule: evenodd"/>
<path id="Shape2DView_nwe0001"  d="M 6.7 -0.777142857143 A 0.457143 0.457143 0 0 1 6.24286 -0.32" stroke="#191919" stroke-width="0.35 px" style="stroke-width:0.35;stroke-miterlimit:4;stroke-dasharray:none;fill:none;fill-opacity:1;fill-rule: evenodd"/>
<path id="Shape2DView_nwe0002"  d="M 6.242857142857 -0.32 L 6.150269504271309 -0.32 L 5.877149319325233 -0.32 L 5.437191974542541 -0.32 L 4.85245876829252 -0.32 L 4.152270665169778 -0.32 L 3.3717380203957865 -0.32 L 2.5500000000000003 -0.32 L 1.7282619796042136 -0.32 L 0.9477293348302223 -0.32 L 0.24754123170748032 -0.32 L -0.3371919745425416 -0.32 L -0.7771493193252335 -0.32 L -1.0502695042713097 -0.32 L -1.1428571428570002 -0.32 " stroke="#191919" stroke-width="0.35 px" style="stroke-width:0.35;stroke-miterlimit:4;stroke-dasharray:none;fill:none;fill-opacity:1;fill-rule: evenodd"/>
<path id="Shape2DView_nwe0003"  d="M 6.7 -0.822857142857 A 0.457143 0.457143 0 0 0 6.24286 -1.28" stroke="#191919" stroke-width="0.35 px" style="stroke-width:0.35;stroke-miterlimit:4;stroke-dasharray:none;fill:none;fill-opacity:1;fill-rule: evenodd"/>
<path id="Shape2DView_nwe0004"  d="M 6.242857142857 -1.28 L 6.150269504271309 -1.28 L 5.877149319325233 -1.28 L 5.437191974542541 -1.28 L 4.85245876829252 -1.28 L 4.152270665169778 -1.28 L 3.3717380203957865 -1.28 L 2.5500000000000003 -1.28 L 1.7282619796042136 -1.28 L 0.9477293348302223 -1.28 L 0.24754123170748032 -1.28 L -0.3371919745425416 -1.28 L -0.7771493193252335 -1.28 L -1.0502695042713097 -1.28 L -1.1428571428570002 -1.28 " stroke="#191919" stroke-width="0.35 px" style="stroke-width:0.35;stroke-miterlimit:4;stroke-dasharray:none;fill:none;fill-opacity:1;fill-rule: evenodd"/>
<path id="Shape2DView_nwe0005"  d="M -0.5061985373367575 0.06215336513680414 L -0.4960566982160378 0.11843881185959922 L -0.4796766582964509 0.1732348218034605 L -0.4572644060839064 0.22585230334995846 L -0.42910178865386844 0.27562956113927184 L -0.39554296726085103 0.3219406172732625 L -0.35700996355515313 0.3642030833507447 L -0.3139873524157435 0.40188548433954024 L -0.26701616814000045 0.43451394218337663 L -0.21668710062350743 0.46167813509339534 L -0.16363306709188963 0.48303645758272123 L -0.10852125279947425 0.49832031635366353 L -0.052044720787607975 0.5073375080142762 L 0.005086303785212867 0.5099746361475307 L 0.062153365136792434 0.5061985373370538 " stroke="#191919" stroke-width="0.35 px" style="stroke-width:0.35;stroke-miterlimit:4;stroke-dasharray:none;fill:none;fill-opacity:1;fill-rule: evenodd"/>
<path id="Shape2DView_nwe0006"  d="M -0.3971145930331066 -0.31999999999997053 L -0.41475168746606167 -0.2967844971420648 L -0.43103334169520763 -0.27259907987163107 L -0.44590634603052104 -0.24752278798019983 L -0.4593220943574598 -0.2216375727056304 L -0.4712367429854591 -0.19502802890920418 L -0.48161135393246185 -0.16778111861315445 L -0.4904120221772197 -0.13998588680213325 L -0.4976099864634918 -0.11173317041739826 L -0.5031817232940294 -0.08311530149474813 L -0.5071090238071608 -0.054225805416375034 L -0.5093790532847429 -0.025159095262769764 L -0.509984393097001 0.0039898367364390105 L -0.5089230649471778 0.03312572964434899 L -0.5061985373367575 0.062153365136804015 " stroke="#191919" stroke-width="0.35 px" style="stroke-width:0.35;stroke-miterlimit:4;stroke-dasharray:none;fill:none;fill-opacity:1;fill-rule: evenodd"/>
<path id="Shape2DView_nwe0007"  d="M 5.606198537336757 -1.6621533651368043 L 5.596056698216038 -1.7184388118595992 L 5.57967665829645 -1.7732348218034606 L 5.557264406083906 -1.8258523033499585 L 5.529101788653868 -1.875629561139272 L 5.4955429672608505 -1.9219406172732625 L 5.457009963555153 -1.964203083350745 L 5.413987352415743 -2.00188548433954 L 5.36701616814 -2.0345139421833767 L 5.316687100623507 -2.0616781350933953 L 5.263633067091889 -2.0830364575827214 L 5.208521252799474 -2.0983203163536635 L 5.1520447207876074 -2.107337508014276 L 5.094913696214787 -2.109974636147531 L 5.037846634863207 -2.106198537337054 " stroke="#191919" stroke-width="0.35 px" style="stroke-width:0.35;stroke-miterlimit:4;stroke-dasharray:none;fill:none;fill-opacity:1;fill-rule: evenodd"/>
<path id="Shape2DView_nwe0008"  d="M 5.497114593033106 -1.2800000000000296 L 5.514751687466061 -1.3032155028579353 L 5.531033341695207 -1.327400920128369 L 5.54590634603052 -1.3524772120198003 L 5.5593220943574595 -1.3783624272943698 L 5.571236742985459 -1.404971971090796 L 5.581611353932462 -1.4322188813868457 L 5.590412022177219 -1.4600141131978668 L 5.597609986463492 -1.4882668295826018 L 5.603181723294029 -1.516884698505252 L 5.60710902380716 -1.545774194583625 L 5.6093790532847425 -1.5748409047372303 L 5.609984393097001 -1.6039898367364391 L 5.608923064947177 -1.633125729644349 L 5.606198537336757 -1.6621533651368041 " stroke="#191919" stroke-width="0.35 px" style="stroke-width:0.35;stroke-miterlimit:4;stroke-dasharray:none;fill:none;fill-opacity:1;fill-rule: evenodd"/>
<path id="Shape2DView_nwe0009"  d="M 0.5061985373370809 -0.062153365136570986 A 0.51 0.51 0 1 1 -0.397115 -0.32" stroke="#191919" stroke-width="0.35 px" style="stroke-width:0.35;stroke-miterlimit:4;stroke-dasharray:none;fill:none;fill-opacity:1;fill-rule: evenodd"/>
<path id="Shape2DView_nwe0010"  d="M 4.593801462662919 -1.5378466348634292 A 0.51 0.51 0 1 1 5.49711 -1.28" stroke="#191919" stroke-width="0.35 px" style="stroke-width:0.35;stroke-miterlimit:4;stroke-dasharray:none;fill:none;fill-opacity:1;fill-rule: evenodd"/>
<path id="Shape2DView_nwe0011"  d="M 6.7 -0.777142857143 L 6.595950835554568 -0.777142857143 L 6.28902080179504 -0.777142857143 L 5.794600652242323 -0.777142857143 L 5.137482677713745 -0.777142857143 L 4.3506175173378665 -0.777142857143 L 3.473461875918705 -0.777142857143 L 2.5500000000000003 -0.777142857143 L 1.6265381240812953 -0.777142857143 L 0.7493824826621338 -0.777142857143 L -0.03748267771374447 -0.777142857143 L -0.694600652242324 -0.777142857143 L -1.1890208017950394 -0.777142857143 L -1.4959508355545683 -0.777142857143 L -1.6000000000000005 -0.777142857143 " stroke="#191919" stroke-width="0.35 px" style="stroke-width:0.35;stroke-miterlimit:4;stroke-dasharray:none;fill:none;fill-opacity:1;fill-rule: evenodd"/>
<path id="Shape2DView_nwe0012"  d="M 6.7 -0.822857142857 L 6.595950835554568 -0.822857142857 L 6.28902080179504 -0.822857142857 L 5.794600652242323 -0.822857142857 L 5.137482677713745 -0.822857142857 L 4.3506175173378665 -0.822857142857 L 3.473461875918705 -0.822857142857 L 2.5500000000000003 -0.822857142857 L 1.6265381240812953 -0.822857142857 L 0.7493824826621338 -0.822857142857 L -0.03748267771374447 -0.822857142857 L -0.694600652242324 -0.822857142857 L -1.1890208017950394 -0.822857142857 L -1.4959508355545683 -0.822857142857 L -1.6000000000000005 -0.822857142857 " stroke="#191919" stroke-width="0.35 px" style="stroke-width:0.35;stroke-miterlimit:4;stroke-dasharray:none;fill:none;fill-opacity:1;fill-rule: evenodd"/>
<path id="Shape2DView_nwe0015"  d="M 2.414676880902584 0.21734497044007933 A 0.51 0.321894 -97 0 1 2.0275 -0.32" stroke="#191919" stroke-width="0.35 px" style="stroke-width:0.35;stroke-miterlimit:4;stroke-dasharray:none;fill:none;fill-opacity:1;fill-rule: evenodd"/>
<path id="Shape2DView_nwe0016"  d="M 2.7065850145290726 -0.31999999999999457 A 0.278182 0.175579 -97 1 1 2.35404 -0.32" stroke="#191919" stroke-width="0.35 px" style="stroke-width:0.35;stroke-miterlimit:4;stroke-dasharray:none;fill:none;fill-opacity:1;fill-rule: evenodd"/>
<path id="Shape2DView_nwe0017"  d="M 2.685323119097416 -1.8173449704400793 A 0.51 0.321894 83 0 1 3.0725 -1.28" stroke="#191919" stroke-width="0.35 px" style="stroke-width:0.35;stroke-miterlimit:4;stroke-dasharray:none;fill:none;fill-opacity:1;fill-rule: evenodd"/>
<path id="Shape2DView_nwe0018"  d="M 2.3934149854709275 -1.2800000000000054 A 0.278182 0.175579 83 1 1 2.74596 -1.28" stroke="#191919" stroke-width="0.35 px" style="stroke-width:0.35;stroke-miterlimit:4;stroke-dasharray:none;fill:none;fill-opacity:1;fill-rule: evenodd"/>
<path id="Shape2DView_nwe0019"  d="M -1.6000000000000005 -0.822857142857 L -1.6000000000000005 -0.777142857143 " stroke="#191919" stroke-width="0.35 px" style="stroke-width:0.35;stroke-miterlimit:4;stroke-dasharray:none;fill:none;fill-opacity:1;fill-rule: evenodd"/>
<path id="Shape2DView_nwe0020"  d="M -1.6000000000000005 -0.777142857143 Q -1.5631662003709448 -0.3644700910728606 -1.1428571428566792 -0.31999999999999995 " stroke="#191919" stroke-width="0.35 px" style="stroke-width:0.35;stroke-miterlimit:4;stroke-dasharray:none;fill:none;fill-opacity:1;fill-rule: evenodd"/>
<path id="Shape2DView_nwe0021"  d="M -1.6000000000000005 -0.822857142857 Q -1.5631662003709448 -1.235529908927139 -1.14285714285668 -1.2800000000000002 " stroke="#191919" stroke-width="0.35 px" style="stroke-width:0.35;stroke-miterlimit:4;stroke-dasharray:none;fill:none;fill-opacity:1;fill-rule: evenodd"/>
<path id="Shape2DView_nwe0022"  d="M 2.4146768809033845 0.21734497044002404 L 0.062153365136666146 0.5061985373370693 " stroke="#191919" stroke-width="0.35 px" style="stroke-width:0.35;stroke-miterlimit:4;stroke-dasharray:none;fill:none;fill-opacity:1;fill-rule: evenodd"/>
<path id="Shape2DView_nwe0023"  d="M 2.7588960016510864 -0.31999999634052806 Q 2.787190229014976 0.11447118657504796 2.414676880902598 0.21734497044007767 " stroke="#191919" stroke-width="0.35 px" style="stroke-width:0.35;stroke-miterlimit:4;stroke-dasharray:none;fill:none;fill-opacity:1;fill-rule: evenodd"/>
<path id="Shape2DView_nwe0024"  d="M 2.685323119096615 -1.8173449704400244 L 5.037846634863334 -2.1061985373370695 " stroke="#191919" stroke-width="0.35 px" style="stroke-width:0.35;stroke-miterlimit:4;stroke-dasharray:none;fill:none;fill-opacity:1;fill-rule: evenodd"/>
<path id="Shape2DView_nwe0025"  d="M 2.3411039983489133 -1.2800000036594719 Q 2.3128097709850244 -1.7144711865750553 2.6853231190974016 -1.8173449704400775 " stroke="#191919" stroke-width="0.35 px" style="stroke-width:0.35;stroke-miterlimit:4;stroke-dasharray:none;fill:none;fill-opacity:1;fill-rule: evenodd"/>
<title>b'Shape2DView'</title>
</g>
<g id="Rectangle" transform="translate(1.683000,1.083000) scale(1,-1)">
<rect fill="#ff0000" id="origin" width="1" height="1" x="0" y="0" />
<title>b'Rectangle'</title>
</g>
</svg>