<?xml version="1.0"?>
<!DOCTYPE svg PUBLIC "-//W3C//DTD SVG 1.1//EN" "http://www.w3.org/Graphics/SVG/1.1/DTD/svg11.dtd">
<svg width="24.887999999999998mm" height="9.888mm" viewBox="0 0 24.887999999999998 9.888" xmlns="http://www.w3.org/2000/svg" version="1.1">
<g id="Shape2DView" transform="translate(1.144000,4.944000) scale(1,-1)">
<path id="Shape2DView_nwe0000"  d="M 23.5 -4.5 L 23.5 4.5 " stroke="#191919" stroke-width="0.35 px" style="stroke-width:0.35;stroke-miterlimit:4;stroke-dasharray:none;fill:none;fill-opacity:1;fill-rule: evenodd"/>
<path id="Shape2DView_nwe0001"  d="M 23.5 4.5 A 0.2 0.2 0 0 1 23.3 4.7" stroke="#191919" stroke-width="0.35 px" style="stroke-width:0.35;stroke-miterlimit:4;stroke-dasharray:none;fill:none;fill-opacity:1;fill-rule: evenodd"/>
<path id="Shape2DView_nwe0002"  d="M 23.3 4.7 L -0.6999999999999993 4.7 " stroke="#191919" stroke-width="0.35 px" style="stroke-width:0.35;stroke-miterlimit:4;stroke-dasharray:none;fill:none;fill-opacity:1;fill-rule: evenodd"/>
<path id="Shape2DView_nwe0003"  d="M 23.3 -4.7 A 0.2 0.2 0 0 1 23.5 -4.5" stroke="#191919" stroke-width="0.35 px" style="stroke-width:0.35;stroke-miterlimit:4;stroke-dasharray:none;fill:none;fill-opacity:1;fill-rule: evenodd"/>
<path id="Shape2DView_nwe0004"  d="M 7.3 -2.5 L 7.3 2.5 " stroke="#191919" stroke-width="0.35 px" style="stroke-width:0.35;stroke-miterlimit:4;stroke-dasharray:none;fill:none;fill-opacity:1;fill-rule: evenodd"/>
<path id="Shape2DView_nwe0005"  d="M 7.3 2.5 L 15.3 2.5 " stroke="#191919" stroke-width="0.35 px" style="stroke-width:0.35;stroke-miterlimit:4;stroke-dasharray:none;fill:none;fill-opacity:1;fill-rule: evenodd"/>
<path id="Shape2DView_nwe0006"  d="M 15.3 2.5 L 15.3 -2.5 " stroke="#191919" stroke-width="0.35 px" style="stroke-width:0.35;stroke-miterlimit:4;stroke-dasharray:none;fill:none;fill-opacity:1;fill-rule: evenodd"/>
<path id="Shape2DView_nwe0007"  d="M 15.3 -2.5 L 7.3 -2.5 " stroke="#191919" stroke-width="0.35 px" style="stroke-width:0.35;stroke-miterlimit:4;stroke-dasharray:none;fill:none;fill-opacity:1;fill-rule: evenodd"/>
<path id="Shape2DView_nwe0008"  d="M -0.7 -4.7 L 23.3 -4.7 " stroke="#191919" stroke-width="0.35 px" style="stroke-width:0.35;stroke-miterlimit:4;stroke-dasharray:none;fill:none;fill-opacity:1;fill-rule: evenodd"/>
<path id="Shape2DView_nwe0009"  d="M -0.9 4.5 L -0.9 -4.5 " stroke="#191919" stroke-width="0.35 px" style="stroke-width:0.35;stroke-miterlimit:4;stroke-dasharray:none;fill:none;fill-opacity:1;fill-rule: evenodd"/>
<path id="Shape2DView_nwe0010"  d="M -0.7 4.7 A 0.2 0.2 0 0 1 -0.9 4.5" stroke="#191919" stroke-width="0.35 px" style="stroke-width:0.35;stroke-miterlimit:4;stroke-dasharray:none;fill:none;fill-opacity:1;fill-rule: evenodd"/>
<path id="Shape2DView_nwe0011"  d="M -0.8999999999999999 -4.5 A 0.2 0.2 0 0 1 -0.7 -4.7" stroke="#191919" stroke-width="0.35 px" style="stroke-width:0.35;stroke-miterlimit:4;stroke-dasharray:none;fill:none;fill-opacity:1;fill-rule: evenodd"/>
<path id="Shape2DView_nwe0013"  d="M 23.5 4.5 L 23.49874244197865 4.5 L 23.494985582436364 4.5 L 23.488776666061675 4.5 L 23.480193773580485 4.5 L 23.469344839845657 4.5 L 23.456366296493606 4.5 L 23.44142135623731 4.5 L 23.42469796037175 4.5 L 23.406406415303067 4.5 L 23.38677674782351 4.5 L 23.366055812391036 4.5 L 23.344504186791262 4.5 L 23.322392895220663 4.5 L 23.3 4.5 " stroke="#191919" stroke-width="0.35 px" style="stroke-width:0.35;stroke-miterlimit:4;stroke-dasharray:none;fill:none;fill-opacity:1;fill-rule: evenodd"/>
<path id="Shape2DView_nwe0014"  d="M 23.3 -4.5 L 23.3 4.5 " stroke="#191919" stroke-width="0.35 px" style="stroke-width:0.35;stroke-miterlimit:4;stroke-dasharray:none;fill:none;fill-opacity:1;fill-rule: evenodd"/>
<path id="Shape2DView_nwe0015"  d="M 23.5 -4.5 L 23.49874244197865 -4.5 L 23.494985582436364 -4.5 L 23.488776666061675 -4.5 L 23.480193773580485 -4.5 L 23.469344839845657 -4.5 L 23.456366296493606 -4.5 L 23.44142135623731 -4.5 L 23.42469796037175 -4.5 L 23.406406415303067 -4.5 L 23.38677674782351 -4.5 L 23.366055812391036 -4.5 L 23.344504186791262 -4.5 L 23.322392895220663 -4.5 L 23.3 -4.5 " stroke="#191919" stroke-width="0.35 px" style="stroke-width:0.35;stroke-miterlimit:4;stroke-dasharray:none;fill:none;fill-opacity:1;fill-rule: evenodd"/>
<path id="Shape2DView_nwe0017"  d="M 23.3 4.7 L 23.3 4.6987424419786485 L 23.3 4.694985582436365 L 23.3 4.688776666061673 L 23.3 4.680193773580484 L 23.3 4.669344839845657 L 23.3 4.656366296493606 L 23.3 4.641421356237309 L 23.3 4.624697960371747 L 23.3 4.606406415303067 L 23.3 4.586776747823512 L 23.3 4.566055812391033 L 23.3 4.544504186791263 L 23.3 4.522392895220662 L 23.3 4.5 " stroke="#191919" stroke-width="0.35 px" style="stroke-width:0.35;stroke-miterlimit:4;stroke-dasharray:none;fill:none;fill-opacity:1;fill-rule: evenodd"/>
<path id="Shape2DView_nwe0018"  d="M 23.3 -4.7 L 23.3 -4.6987424419786485 L 23.3 -4.694985582436365 L 23.3 -4.688776666061673 L 23.3 -4.680193773580484 L 23.3 -4.669344839845657 L 23.3 -4.656366296493606 L 23.3 -4.641421356237309 L 23.3 -4.624697960371747 L 23.3 -4.606406415303067 L 23.3 -4.586776747823512 L 23.3 -4.566055812391033 L 23.3 -4.544504186791263 L 23.3 -4.522392895220662 L 23.3 -4.5 " stroke="#191919" stroke-width="0.35 px" style="stroke-width:0.35;stroke-miterlimit:4;stroke-dasharray:none;fill:none;fill-opacity:1;fill-rule: evenodd"/>
<path id="Shape2DView_nwe0019"  d="M -0.7 -4.5 L 23.3 -4.5 " stroke="#191919" stroke-width="0.35 px" style="stroke-width:0.35;stroke-miterlimit:4;stroke-dasharray:none;fill:none;fill-opacity:1;fill-rule: evenodd"/>
<path id="Shape2DView_nwe0020"  d="M 23.3 4.5 L -0.6999999999999993 4.5 " stroke="#191919" stroke-width="0.35 px" style="stroke-width:0.35;stroke-miterlimit:4;stroke-dasharray:none;fill:none;fill-opacity:1;fill-rule: evenodd"/>
<path id="Shape2DView_nwe0021"  d="M -0.7 4.5 L -0.7 -4.5 " stroke="#191919" stroke-width="0.35 px" style="stroke-width:0.35;stroke-miterlimit:4;stroke-dasharray:none;fill:none;fill-opacity:1;fill-rule: evenodd"/>
<path id="Shape2DView_nwe0024"  d="M -0.7 4.7 L -0.7 4.6987424419786485 L -0.7 4.694985582436365 L -0.7 4.688776666061673 L -0.7 4.680193773580484 L -0.7 4.669344839845657 L -0.7 4.656366296493606 L -0.7 4.641421356237309 L -0.7 4.624697960371747 L -0.7 4.606406415303067 L -0.7 4.586776747823512 L -0.7 4.566055812391033 L -0.7 4.544504186791263 L -0.7 4.522392895220662 L -0.7 4.5 " stroke="#191919" stroke-width="0.35 px" style="stroke-width:0.35;stroke-miterlimit:4;stroke-dasharray:none;fill:none;fill-opacity:1;fill-rule: evenodd"/>
<path id="Shape2DView_nwe0025"  d="M -0.7 -4.7 L -0.7 -4.6987424419786485 L -0.7 -4.694985582436365 L -0.7 -4.688776666061673 L -0.7 -4.680193773580484 L -0.7 -4.669344839845657 L -0.7 -4.656366296493606 L -0.7 -4.641421356237309 L -0.7 -4.624697960371747 L -0.7 -4.606406415303067 L -0.7 -4.586776747823512 L -0.7 -4.566055812391033 L -0.7 -4.544504186791263 L -0.7 -4.522392895220662 L -0.7 -4.5 " stroke="#191919" stroke-width="0.35 px" style="stroke-width:0.35;stroke-miterlimit:4;stroke-dasharray:none;fill:none;fill-opacity:1;fill-rule: evenodd"/>
<path id="Shape2DView_nwe0026"  d="M -0.8999999999999999 -4.5 L -0.8987424419786485 -4.5 L -0.8949855824363647 -4.5 L -0.8887766660616735 -4.5 L -0.8801937735804838 -4.5 L -0.8693448398456568 -4.5 L -0.856366296493606 -4.5 L -0.8414213562373095 -4.5 L -0.8246979603717467 -4.5 L -0.8064064153030672 -4.5 L -0.7867767478235116 -4.5 L -0.7660558123910334 -4.5 L -0.7445041867912628 -4.5 L -0.7223928952206615 -4.5 L -0.7 -4.5 " stroke="#191919" stroke-width="0.35 px" style="stroke-width:0.35;stroke-miterlimit:4;stroke-dasharray:none;fill:none;fill-opacity:1;fill-rule: evenodd"/>
<path id="Shape2DView_nwe0027"  d="M -0.8999999999999999 4.5 L -0.8987424419786485 4.5 L -0.8949855824363647 4.5 L -0.8887766660616735 4.5 L -0.8801937735804838 4.5 L -0.8693448398456568 4.5 L -0.856366296493606 4.5 L -0.8414213562373095 4.5 L -0.8246979603717467 4.5 L -0.8064064153030672 4.5 L -0.7867767478235116 4.5 L -0.7660558123910334 4.5 L -0.7445041867912628 4.5 L -0.7223928952206615 4.5 L -0.7 4.5 " stroke="#191919" stroke-width="0.35 px" style="stroke-width:0.35;stroke-miterlimit:4;stroke-dasharray:none;fill:none;fill-opacity:1;fill-rule: evenodd"/>
<title>b'Shape2DView'</title>
</g>
<g id="Rectangle" transform="translate(1.144000,4.944000) scale(1,-1)">
<rect fill="#ff0000" id="origin" width="1" height="1" x="0" y="0" />
<title>b'Rectangle'</title>
</g>
</svg>