<?xml version="1.0"?>
<!DOCTYPE svg PUBLIC "-//W3C//DTD SVG 1.1//EN" "http://www.w3.org/Graphics/SVG/1.1/DTD/svg11.dtd">
<svg width="32.13mm" height="12.630000000000539mm" viewBox="0 0 32.13 12.630000000000539" xmlns="http://www.w3.org/2000/svg" version="1.1">
<g id="Shape2DView" transform="translate(0.565000,6.315000) scale(1,-1)">
<path id="Shape2DView_nwe0000"  d="M -0.25 -4.1420284885549234 L -0.25 -4.360427484155073 L -0.25 -4.565454036469883 L -0.25 -4.756479375509993 L -0.25 -4.932917669835328 L -0.25 -5.094227823167418 L -0.25 -5.239915133809095 L -0.25 -5.369532811782535 L -0.25 -5.482683349032902 L -0.25 -5.579019738495504 L -0.25 -5.658246538287844 L -0.25 -5.720120777762949 L -0.25 -5.764452702645302 L -0.25 -5.791106356964218 L -0.25 -5.8 " stroke="#191919" stroke-width="0.35 px" style="stroke-width:0.35;stroke-miterlimit:4;stroke-dasharray:none;fill:none;fill-opacity:1;fill-rule: evenodd"/>
<path id="Shape2DView_nwe0001"  d="M -0.25 -4.142028488555 L -0.25 4.142028488555 " stroke="#191919" stroke-width="0.35 px" style="stroke-width:0.35;stroke-miterlimit:4;stroke-dasharray:none;fill:none;fill-opacity:1;fill-rule: evenodd"/>
<path id="Shape2DView_nwe0002"  d="M -0.25 5.8 L -0.25 5.791106356964218 L -0.25 5.764452702645304 L -0.25 5.720120777762951 L -0.25 5.658246538287845 L -0.25 5.579019738495505 L -0.25 5.4826833490329046 L -0.25 5.369532811782537 L -0.25 5.239915133809098 L -0.25 5.0942278231674205 L -0.25 4.932917669835331 L -0.25 4.756479375509994 L -0.25 4.565454036469885 L -0.25 4.360427484155076 L -0.25 4.142028488554925 " stroke="#191919" stroke-width="0.35 px" style="stroke-width:0.35;stroke-miterlimit:4;stroke-dasharray:none;fill:none;fill-opacity:1;fill-rule: evenodd"/>
<path id="Shape2DView_nwe0003"  d="M -0.25 -5.8 L -0.24874244197864853 -5.822392895220691 L -0.24498558243636476 -5.8445041867913226 L -0.23877666606167353 -5.866055812391123 L -0.23019377358048382 -5.886776747823628 L -0.21934483984565684 -5.90640641530321 L -0.206366296493606 -5.9246979603719145 L -0.19142135623730955 -5.9414213562375 L -0.17469796037174673 -5.956366296493816 L -0.15640641530306734 -5.969344839845885 L -0.13677674782351165 -5.9801937735807265 L -0.11605581239103345 -5.988776666061928 L -0.0945041867912629 -5.994985582436628 L -0.0723928952206616 -5.998742441978916 L -0.05000000000000003 -6.000000000000269 " stroke="#191919" stroke-width="0.35 px" style="stroke-width:0.35;stroke-miterlimit:4;stroke-dasharray:none;fill:none;fill-opacity:1;fill-rule: evenodd"/>
<path id="Shape2DView_nwe0004"  d="M -0.25 5.8 L -0.24874244197864853 5.822392895220691 L -0.24498558243636476 5.8445041867913226 L -0.23877666606167353 5.866055812391123 L -0.23019377358048387 5.886776747823628 L -0.21934483984565684 5.90640641530321 L -0.206366296493606 5.9246979603719145 L -0.19142135623730955 5.9414213562375 L -0.17469796037174673 5.956366296493816 L -0.15640641530306737 5.969344839845885 L -0.13677674782351168 5.9801937735807265 L -0.11605581239103346 5.988776666061928 L -0.09450418679126293 5.994985582436628 L -0.07239289522066163 5.998742441978916 L -0.05000000000000005 6.000000000000269 " stroke="#191919" stroke-width="0.35 px" style="stroke-width:0.35;stroke-miterlimit:4;stroke-dasharray:none;fill:none;fill-opacity:1;fill-rule: evenodd"/>
<path id="Shape2DView_nwe0005"  d="M -0.05 4.417736977232 Q -0.23639779751128853 4.389184994896736 -0.25 4.142028488554999 " stroke="#191919" stroke-width="0.35 px" style="stroke-width:0.35;stroke-miterlimit:4;stroke-dasharray:none;fill:none;fill-opacity:1;fill-rule: evenodd"/>
<path id="Shape2DView_nwe0006"  d="M -0.05 6.0 A 0.2 0.2 0 0 1 -0.25 5.8" stroke="#191919" stroke-width="0.35 px" style="stroke-width:0.35;stroke-miterlimit:4;stroke-dasharray:none;fill:none;fill-opacity:1;fill-rule: evenodd"/>
<path id="Shape2DView_nwe0007"  d="M 26.25 4.142028488555 L 26.25 -8.881784197001252e-16 " stroke="#191919" stroke-width="0.35 px" style="stroke-width:0.35;stroke-miterlimit:4;stroke-dasharray:none;fill:none;fill-opacity:1;fill-rule: evenodd"/>
<path id="Shape2DView_nwe0008"  d="M 26.25 4.142028488555 Q 26.23639778036395 4.389185012826838 26.05 4.417736977232 " stroke="#191919" stroke-width="0.35 px" style="stroke-width:0.35;stroke-miterlimit:4;stroke-dasharray:none;fill:none;fill-opacity:1;fill-rule: evenodd"/>
<path id="Shape2DView_nwe0009"  d="M 26.05 4.417736977232 L -0.04999999999999999 4.417736977232 " stroke="#191919" stroke-width="0.35 px" style="stroke-width:0.35;stroke-miterlimit:4;stroke-dasharray:none;fill:none;fill-opacity:1;fill-rule: evenodd"/>
<path id="Shape2DView_nwe0010"  d="M -0.05 -4.417736977232 Q -0.2363977975113687 -4.389184994896446 -0.25 -4.142028488554999 " stroke="#191919" stroke-width="0.35 px" style="stroke-width:0.35;stroke-miterlimit:4;stroke-dasharray:none;fill:none;fill-opacity:1;fill-rule: evenodd"/>
<path id="Shape2DView_nwe0011"  d="M 26.05 -4.417736977232 L -0.04999999999999999 -4.417736977232 " stroke="#191919" stroke-width="0.35 px" style="stroke-width:0.35;stroke-miterlimit:4;stroke-dasharray:none;fill:none;fill-opacity:1;fill-rule: evenodd"/>
<path id="Shape2DView_nwe0012"  d="M 26.25 -4.142028488555 Q 26.23639778036395 -4.389185012826838 26.05 -4.417736977232 " stroke="#191919" stroke-width="0.35 px" style="stroke-width:0.35;stroke-miterlimit:4;stroke-dasharray:none;fill:none;fill-opacity:1;fill-rule: evenodd"/>
<path id="Shape2DView_nwe0013"  d="M 26.25 -8.881784197001252e-16 L 26.25 -4.142028488555 " stroke="#191919" stroke-width="0.35 px" style="stroke-width:0.35;stroke-miterlimit:4;stroke-dasharray:none;fill:none;fill-opacity:1;fill-rule: evenodd"/>
<path id="Shape2DView_nwe0014"  d="M -0.05 -6.0 A 0.2 0.2 0 0 0 -0.25 -5.8" stroke="#191919" stroke-width="0.35 px" style="stroke-width:0.35;stroke-miterlimit:4;stroke-dasharray:none;fill:none;fill-opacity:1;fill-rule: evenodd"/>
<path id="Shape2DView_nwe0015"  d="M -0.04999999999999999 6.0 L 26.05 6.0 " stroke="#191919" stroke-width="0.35 px" style="stroke-width:0.35;stroke-miterlimit:4;stroke-dasharray:none;fill:none;fill-opacity:1;fill-rule: evenodd"/>
<path id="Shape2DView_nwe0016"  d="M 26.25 5.8 L 26.25 5.791106356964218 L 26.25 5.764452702645304 L 26.25 5.720120777762951 L 26.25 5.658246538287845 L 26.25 5.579019738495505 L 26.25 5.4826833490329046 L 26.25 5.369532811782537 L 26.25 5.239915133809098 L 26.25 5.0942278231674205 L 26.25 4.932917669835331 L 26.25 4.756479375509994 L 26.25 4.565454036469885 L 26.25 4.360427484155076 L 26.25 4.142028488554925 " stroke="#191919" stroke-width="0.35 px" style="stroke-width:0.35;stroke-miterlimit:4;stroke-dasharray:none;fill:none;fill-opacity:1;fill-rule: evenodd"/>
<path id="Shape2DView_nwe0017"  d="M 26.25 4.142028488555 L 26.25 4.2611269911565826 L 26.25 4.372313695656042 L 26.25 4.475382157429818 L 26.25 4.570141005307338 L 26.25 4.656414296897223 L 26.25 4.734041845266278 L 26.25 4.802879516364724 L 26.25 4.8627994966454215 L 26.25 4.913690530380191 L 26.25 4.955458126232599 L 26.25 4.988024732703643 L 26.25 5.0113298821246035 L 26.25 5.025330302929687 L 26.25 5.03 " stroke="#191919" stroke-width="0.35 px" style="stroke-width:0.35;stroke-miterlimit:4;stroke-dasharray:none;fill:none;fill-opacity:1;fill-rule: evenodd"/>
<path id="Shape2DView_nwe0018"  d="M 26.25 -4.1420284885549234 L 26.25 -4.360427484155073 L 26.25 -4.565454036469883 L 26.25 -4.756479375509993 L 26.25 -4.932917669835328 L 26.25 -5.094227823167418 L 26.25 -5.239915133809095 L 26.25 -5.369532811782535 L 26.25 -5.482683349032902 L 26.25 -5.579019738495504 L 26.25 -5.658246538287844 L 26.25 -5.720120777762949 L 26.25 -5.764452702645302 L 26.25 -5.791106356964218 L 26.25 -5.8 " stroke="#191919" stroke-width="0.35 px" style="stroke-width:0.35;stroke-miterlimit:4;stroke-dasharray:none;fill:none;fill-opacity:1;fill-rule: evenodd"/>
<path id="Shape2DView_nwe0019"  d="M 26.25 -5.8 A 0.2 0.2 0 0 0 26.05 -6" stroke="#191919" stroke-width="0.35 px" style="stroke-width:0.35;stroke-miterlimit:4;stroke-dasharray:none;fill:none;fill-opacity:1;fill-rule: evenodd"/>
<path id="Shape2DView_nwe0020"  d="M -0.04999999999999999 -6.0 L 26.05 -6.0 " stroke="#191919" stroke-width="0.35 px" style="stroke-width:0.35;stroke-miterlimit:4;stroke-dasharray:none;fill:none;fill-opacity:1;fill-rule: evenodd"/>
<path id="Shape2DView_nwe0021"  d="M 26.25 5.8 A 0.2 0.2 0 0 1 26.05 6" stroke="#191919" stroke-width="0.35 px" style="stroke-width:0.35;stroke-miterlimit:4;stroke-dasharray:none;fill:none;fill-opacity:1;fill-rule: evenodd"/>
<path id="Shape2DView_nwe0022"  d="M 26.25 5.8 L 26.24874244197865 5.822392895220691 L 26.244985582436364 5.8445041867913226 L 26.238776666061675 5.866055812391123 L 26.230193773580485 5.886776747823628 L 26.219344839845657 5.90640641530321 L 26.206366296493606 5.9246979603719145 L 26.19142135623731 5.9414213562375 L 26.17469796037175 5.956366296493816 L 26.156406415303067 5.969344839845885 L 26.13677674782351 5.9801937735807265 L 26.116055812391036 5.988776666061928 L 26.094504186791262 5.994985582436628 L 26.072392895220663 5.998742441978916 L 26.05 6.000000000000269 " stroke="#191919" stroke-width="0.35 px" style="stroke-width:0.35;stroke-miterlimit:4;stroke-dasharray:none;fill:none;fill-opacity:1;fill-rule: evenodd"/>
<path id="Shape2DView_nwe0023"  d="M 26.25 -5.8 L 26.24874244197865 -5.822392895220691 L 26.244985582436364 -5.8445041867913226 L 26.238776666061675 -5.866055812391123 L 26.230193773580485 -5.886776747823628 L 26.219344839845657 -5.90640641530321 L 26.206366296493606 -5.9246979603719145 L 26.19142135623731 -5.9414213562375 L 26.17469796037175 -5.956366296493816 L 26.156406415303067 -5.969344839845885 L 26.13677674782351 -5.9801937735807265 L 26.116055812391036 -5.988776666061928 L 26.094504186791262 -5.994985582436628 L 26.072392895220663 -5.998742441978916 L 26.05 -6.000000000000269 " stroke="#191919" stroke-width="0.35 px" style="stroke-width:0.35;stroke-miterlimit:4;stroke-dasharray:none;fill:none;fill-opacity:1;fill-rule: evenodd"/>
<path id="Shape2DView_nwe0024"  d="M 31.25 5.03 L 26.25 5.03 " stroke="#191919" stroke-width="0.35 px" style="stroke-width:0.35;stroke-miterlimit:4;stroke-dasharray:none;fill:none;fill-opacity:1;fill-rule: evenodd"/>
<path id="Shape2DView_nwe0025"  d="M 31.25 3.0799866998555933e-16 L 31.25 -0.5631813147996383 L 31.25 -1.1192802978002612 L 31.25 -1.66130368163449 L 31.25 -2.1824352077613174 L 31.25 -2.6761213448721426 L 31.25 -3.1361537033494296 L 31.25 -3.556747109368334 L 31.25 -3.93261235681419 L 31.25 -4.259022722118269 L 31.25 -4.531873405549168 L 31.25 -4.747733151451089 L 31.25 -4.903887398274573 L 31.25 -4.9983724157630105 L 31.25 -5.03 " stroke="#191919" stroke-width="0.35 px" style="stroke-width:0.35;stroke-miterlimit:4;stroke-dasharray:none;fill:none;fill-opacity:1;fill-rule: evenodd"/>
<path id="Shape2DView_nwe0026"  d="M 31.25 5.03 L 31.25 4.9983724157630105 L 31.25 4.903887398274573 L 31.25 4.747733151451089 L 31.25 4.5318734055491685 L 31.25 4.259022722118269 L 31.25 3.93261235681419 L 31.25 3.5567471093683345 L 31.25 3.13615370334943 L 31.25 2.676121344872143 L 31.25 2.182435207761318 L 31.25 1.6613036816344908 L 31.25 1.1192802978002618 L 31.25 0.5631813147996388 L 31.25 3.0799866998555933e-16 " stroke="#191919" stroke-width="0.35 px" style="stroke-width:0.35;stroke-miterlimit:4;stroke-dasharray:none;fill:none;fill-opacity:1;fill-rule: evenodd"/>
<path id="Shape2DView_nwe0028"  d="M -0.05 6.0 L -0.05 5.9915471157625975 L -0.05 5.966212280134367 L -0.05 5.9240668772595555 L -0.05 5.865229657208708 L -0.05 5.78986640138514 L -0.05 5.698189455414594 L -0.05 5.5904571308342454 L -0.05 5.466972977266862 L -0.05 5.328084927130865 L -0.05 5.174184315296172 L -0.05 5.005704776448085 L -0.05 4.823121023266022 L -0.05 4.626947508859743 L -0.05 4.41773697723182 " stroke="#191919" stroke-width="0.35 px" style="stroke-width:0.35;stroke-miterlimit:4;stroke-dasharray:none;fill:none;fill-opacity:1;fill-rule: evenodd"/>
<path id="Shape2DView_nwe0029"  d="M -0.05 -4.41773697723182 L -0.05 -4.626947508859741 L -0.05 -4.823121023266021 L -0.05 -5.005704776448083 L -0.05 -5.17418431529617 L -0.05 -5.328084927130862 L -0.05 -5.4669729772668605 L -0.05 -5.590457130834244 L -0.05 -5.6981894554145915 L -0.05 -5.789866401385138 L -0.05 -5.865229657208707 L -0.05 -5.924066877259554 L -0.05 -5.966212280134366 L -0.05 -5.991547115762597 L -0.05 -6.0 " stroke="#191919" stroke-width="0.35 px" style="stroke-width:0.35;stroke-miterlimit:4;stroke-dasharray:none;fill:none;fill-opacity:1;fill-rule: evenodd"/>
<path id="Shape2DView_nwe0030"  d="M 26.05 6.0 L 26.05 5.9915471157625975 L 26.05 5.966212280134367 L 26.05 5.9240668772595555 L 26.05 5.865229657208708 L 26.05 5.78986640138514 L 26.05 5.698189455414594 L 26.05 5.5904571308342454 L 26.05 5.466972977266862 L 26.05 5.328084927130865 L 26.05 5.174184315296172 L 26.05 5.005704776448085 L 26.05 4.823121023266022 L 26.05 4.626947508859743 L 26.05 4.41773697723182 " stroke="#191919" stroke-width="0.35 px" style="stroke-width:0.35;stroke-miterlimit:4;stroke-dasharray:none;fill:none;fill-opacity:1;fill-rule: evenodd"/>
<path id="Shape2DView_nwe0031"  d="M 26.05 -4.41773697723182 L 26.05 -4.626947508859741 L 26.05 -4.823121023266021 L 26.05 -5.005704776448083 L 26.05 -5.17418431529617 L 26.05 -5.328084927130862 L 26.05 -5.4669729772668605 L 26.05 -5.590457130834244 L 26.05 -5.6981894554145915 L 26.05 -5.789866401385138 L 26.05 -5.865229657208707 L 26.05 -5.924066877259554 L 26.05 -5.966212280134366 L 26.05 -5.991547115762597 L 26.05 -6.0 " stroke="#191919" stroke-width="0.35 px" style="stroke-width:0.35;stroke-miterlimit:4;stroke-dasharray:none;fill:none;fill-opacity:1;fill-rule: evenodd"/>
<path id="Shape2DView_nwe0032"  d="M 31.25 -5.03 L 26.25 -5.03 " stroke="#191919" stroke-width="0.35 px" style="stroke-width:0.35;stroke-miterlimit:4;stroke-dasharray:none;fill:none;fill-opacity:1;fill-rule: evenodd"/>
<title>b'Shape2DView'</title>
</g>
<g id="Rectangle" transform="translate(0.565000,6.315000) scale(1,-1)">
<rect fill="#ff0000" id="origin" width="1" height="1" x="0" y="0" />
<title>b'Rectangle'</title>
</g>
</svg>