<?xml version="1.0"?>
<!DOCTYPE svg PUBLIC "-//W3C//DTD SVG 1.1//EN" "http://www.w3.org/Graphics/SVG/1.1/DTD/svg11.dtd">
<svg width="21.624000000000002mm" height="4.132928768092738mm" viewBox="0 0 21.624000000000002 4.132928768092738" xmlns="http://www.w3.org/2000/svg" version="1.1">
<g id="Shape2DView" transform="translate(5.712000,1.212000) scale(1,-1)">
<path id="Shape2DView_nwe0000"  d="M 15.7 -0.922857142857 L 15.7 -0.977142857143 " stroke="#191919" stroke-width="0.35 px" style="stroke-width:0.35;stroke-miterlimit:4;stroke-dasharray:none;fill:none;fill-opacity:1;fill-rule: evenodd"/>
<path id="Shape2DView_nwe0001"  d="M 15.700000000000001 -0.922857142857 A 0.542857 0.542857 0 0 1 15.1571 -0.38" stroke="#191919" stroke-width="0.35 px" style="stroke-width:0.35;stroke-miterlimit:4;stroke-dasharray:none;fill:none;fill-opacity:1;fill-rule: evenodd"/>
<path id="Shape2DView_nwe0002"  d="M 15.157142857143 -0.38 L 14.904989288228766 -0.38 L 14.16117261433303 -0.38 L 12.962990909392868 -0.38 L 11.370526007265067 -0.38 L 9.463630747696648 -0.38 L 7.337924821503536 -0.38 L 5.1000000000000005 -0.38 L 2.8620751784964633 -0.38 L 0.7363692523033532 -0.38 L -1.1705260072650665 -0.38 L -2.7629909093928697 -0.38 L -3.96117261433303 -0.38 L -4.7049892882287665 -0.38 L -4.957142857143001 -0.38 " stroke="#191919" stroke-width="0.35 px" style="stroke-width:0.35;stroke-miterlimit:4;stroke-dasharray:none;fill:none;fill-opacity:1;fill-rule: evenodd"/>
<path id="Shape2DView_nwe0003"  d="M 15.700000000000001 -0.977142857143 A 0.542857 0.542857 0 0 0 15.1571 -1.52" stroke="#191919" stroke-width="0.35 px" style="stroke-width:0.35;stroke-miterlimit:4;stroke-dasharray:none;fill:none;fill-opacity:1;fill-rule: evenodd"/>
<path id="Shape2DView_nwe0004"  d="M 15.157142857143 -1.52 L 14.904989288228766 -1.52 L 14.16117261433303 -1.52 L 12.962990909392868 -1.52 L 11.370526007265067 -1.52 L 9.463630747696648 -1.52 L 7.337924821503536 -1.52 L 5.1000000000000005 -1.52 L 2.8620751784964633 -1.52 L 0.7363692523033532 -1.52 L -1.1705260072650665 -1.52 L -2.7629909093928697 -1.52 L -3.96117261433303 -1.52 L -4.7049892882287665 -1.52 L -4.957142857143001 -1.52 " stroke="#191919" stroke-width="0.35 px" style="stroke-width:0.35;stroke-miterlimit:4;stroke-dasharray:none;fill:none;fill-opacity:1;fill-rule: evenodd"/>
<path id="Shape2DView_nwe0005"  d="M 4.255422679817409 -0.38 L 3.886368673613203 -0.38 L 3.514820447356463 -0.38 L 3.1419488198674252 -0.38 L 2.76892878025422 -0.38 L 2.3969357852996835 -0.38 L 2.0271420553744446 -0.38 L 1.6607128805485538 -0.38 L 1.2988029485418053 -0.38 L 0.9425527060840704 -0.38 L 0.593084765151688 -0.38 L 0.25150036540454135 -0.38 L -0.08112409602865078 -0.38 L -0.40374045648152324 -0.38 L -0.715332090709119 -0.38 " stroke="#191919" stroke-width="0.35 px" style="stroke-width:0.35;stroke-miterlimit:4;stroke-dasharray:none;fill:none;fill-opacity:1;fill-rule: evenodd"/>
<path id="Shape2DView_nwe0006"  d="M 5.481111424044874 -0.38 L 5.343256595105 -0.38 " stroke="#191919" stroke-width="0.35 px" style="stroke-width:0.35;stroke-miterlimit:4;stroke-dasharray:none;fill:none;fill-opacity:1;fill-rule: evenodd"/>
<path id="Shape2DView_nwe0007"  d="M -0.8039623828295913 0.09871416815843996 L -0.7878547559908008 0.18810870118876208 L -0.761839398471449 0.2751376581584248 L -0.7262434684868035 0.35870659943815764 L -0.6815146055096609 0.4377645971035388 L -0.6282153009442496 0.5113174509634074 L -0.5670158244704568 0.5784401912041157 L -0.49868579501370336 0.6382887104216158 L -0.42408450234041467 0.6901103787618281 L -0.3441501009906356 0.7332535086777415 L -0.2598878124403596 0.7671755502784372 L -0.1723572838582249 0.7914499142087589 L -0.0826592624275475 0.8057713362579688 L 0.008078247188177429 0.8099597162343157 L 0.09871416815840282 0.8039623828294422 " stroke="#191919" stroke-width="0.35 px" style="stroke-width:0.35;stroke-miterlimit:4;stroke-dasharray:none;fill:none;fill-opacity:1;fill-rule: evenodd"/>
<path id="Shape2DView_nwe0008"  d="M -0.7153320907103742 -0.38000000000010087 L -0.7312171566306683 -0.34845583629654253 L -0.7457120411155341 -0.31624919246612515 L -0.7587891866615174 -0.28344129940030777 L -0.7704237311537165 -0.2500945310785054 L -0.780593555133341 -0.21627228598341508 L -0.789279323850967 -0.18203886656856838 L -0.7964645240255339 -0.14745935700726495 L -0.8021354952392001 -0.1125994994553094 L -0.8062814559083683 -0.07752556906280053 L -0.8088945237815048 -0.04230424797259698 L -0.8099697309247834 -0.007002498545013766 L -0.8095050331670626 0.028312563950227396 L -0.807501313986239 0.06357379893275764 L -0.8039623828295913 0.09871416815843977 " stroke="#191919" stroke-width="0.35 px" style="stroke-width:0.35;stroke-miterlimit:4;stroke-dasharray:none;fill:none;fill-opacity:1;fill-rule: evenodd"/>
<path id="Shape2DView_nwe0009"  d="M 11.00396238282959 -1.99871416815844 L 10.9878547559908 -2.088108701188762 L 10.961839398471449 -2.1751376581584245 L 10.926243468486803 -2.2587065994381574 L 10.88151460550966 -2.3377645971035386 L 10.82821530094425 -2.4113174509634074 L 10.767015824470455 -2.4784401912041156 L 10.698685795013702 -2.538288710421616 L 10.624084502340414 -2.5901103787618283 L 10.544150100990635 -2.6332535086777416 L 10.459887812440359 -2.6671755502784373 L 10.372357283858225 -2.691449914208759 L 10.282659262427547 -2.7057713362579685 L 10.191921752811822 -2.709959716234316 L 10.101285831841597 -2.703962382829442 " stroke="#191919" stroke-width="0.35 px" style="stroke-width:0.35;stroke-miterlimit:4;stroke-dasharray:none;fill:none;fill-opacity:1;fill-rule: evenodd"/>
<path id="Shape2DView_nwe0010"  d="M 10.915332090710374 -1.5199999999999003 L 10.931217156630668 -1.5515441637034588 L 10.945712041115534 -1.583750807533876 L 10.958789186661518 -1.6165587005996935 L 10.970423731153716 -1.649905468921496 L 10.980593555133341 -1.6837277140165863 L 10.989279323850967 -1.7179611334314329 L 10.996464524025534 -1.7525406429927364 L 11.0021354952392 -1.7874005005446918 L 11.006281455908368 -1.8224744309372007 L 11.008894523781503 -1.8576957520274044 L 11.009969730924782 -1.8929975014549876 L 11.009505033167061 -1.9283125639502288 L 11.007501313986237 -1.963573798932759 L 11.00396238282959 -1.9987141681584397 " stroke="#191919" stroke-width="0.35 px" style="stroke-width:0.35;stroke-miterlimit:4;stroke-dasharray:none;fill:none;fill-opacity:1;fill-rule: evenodd"/>
<path id="Shape2DView_nwe0011"  d="M 0.8039623828294815 -0.09871416815808333 A 0.81 0.81 0 1 1 -0.715332 -0.38" stroke="#191919" stroke-width="0.35 px" style="stroke-width:0.35;stroke-miterlimit:4;stroke-dasharray:none;fill:none;fill-opacity:1;fill-rule: evenodd"/>
<path id="Shape2DView_nwe0012"  d="M 9.396037617170517 -1.8012858318419165 A 0.81 0.81 0 1 1 10.9153 -1.52" stroke="#191919" stroke-width="0.35 px" style="stroke-width:0.35;stroke-miterlimit:4;stroke-dasharray:none;fill:none;fill-opacity:1;fill-rule: evenodd"/>
<path id="Shape2DView_nwe0013"  d="M 15.7 -0.922857142857 L 15.43423586912733 -0.922857142857 L 14.650269999765642 -0.922857142857 L 13.387413714161115 -0.922857142857 L 11.708991899702575 -0.922857142857 L 9.699167634646116 -0.922857142857 L 7.458721899936933 -0.922857142857 L 5.1000000000000005 -0.922857142857 L 2.741278100063068 -0.922857142857 L 0.500832365353884 -0.922857142857 L -1.5089918997025746 -0.922857142857 L -3.1874137141611154 -0.922857142857 L -4.450269999765641 -0.922857142857 L -5.23423586912733 -0.922857142857 L -5.5 -0.922857142857 " stroke="#191919" stroke-width="0.35 px" style="stroke-width:0.35;stroke-miterlimit:4;stroke-dasharray:none;fill:none;fill-opacity:1;fill-rule: evenodd"/>
<path id="Shape2DView_nwe0014"  d="M 15.7 -0.977142857143 L 15.43423586912733 -0.977142857143 L 14.650269999765642 -0.977142857143 L 13.387413714161115 -0.977142857143 L 11.708991899702575 -0.977142857143 L 9.699167634646116 -0.977142857143 L 7.458721899936933 -0.977142857143 L 5.1000000000000005 -0.977142857143 L 2.741278100063068 -0.977142857143 L 0.500832365353884 -0.977142857143 L -1.5089918997025746 -0.977142857143 L -3.1874137141611154 -0.977142857143 L -4.450269999765641 -0.977142857143 L -5.23423586912733 -0.977142857143 L -5.5 -0.977142857143 " stroke="#191919" stroke-width="0.35 px" style="stroke-width:0.35;stroke-miterlimit:4;stroke-dasharray:none;fill:none;fill-opacity:1;fill-rule: evenodd"/>
<path id="Shape2DView_nwe0017"  d="M 4.907312388808803 0.2135407617483931 A 0.81 0.583663 -97 0 1 4.25542 -0.38" stroke="#191919" stroke-width="0.35 px" style="stroke-width:0.35;stroke-miterlimit:4;stroke-dasharray:none;fill:none;fill-opacity:1;fill-rule: evenodd"/>
<path id="Shape2DView_nwe0018"  d="M 5.3432565951049185 -0.3799999999998478 A 0.441818 0.318362 -97 0 1 4.80901 -0.38" stroke="#191919" stroke-width="0.35 px" style="stroke-width:0.35;stroke-miterlimit:4;stroke-dasharray:none;fill:none;fill-opacity:1;fill-rule: evenodd"/>
<path id="Shape2DView_nwe0019"  d="M 5.292687611191197 -2.1135407617483932 A 0.81 0.583663 83 0 1 5.94458 -1.52" stroke="#191919" stroke-width="0.35 px" style="stroke-width:0.35;stroke-miterlimit:4;stroke-dasharray:none;fill:none;fill-opacity:1;fill-rule: evenodd"/>
<path id="Shape2DView_nwe0020"  d="M 4.856743404895082 -1.520000000000152 A 0.441818 0.318362 83 0 1 5.39099 -1.52" stroke="#191919" stroke-width="0.35 px" style="stroke-width:0.35;stroke-miterlimit:4;stroke-dasharray:none;fill:none;fill-opacity:1;fill-rule: evenodd"/>
<path id="Shape2DView_nwe0021"  d="M -5.5 -0.977142857143 L -5.5 -0.922857142857 " stroke="#191919" stroke-width="0.35 px" style="stroke-width:0.35;stroke-miterlimit:4;stroke-dasharray:none;fill:none;fill-opacity:1;fill-rule: evenodd"/>
<path id="Shape2DView_nwe0022"  d="M -5.500000000000002 -0.922857142857 Q -5.494784577330093 -0.8699040552098187 -5.489569154660183 -0.8169509675626374 Q -5.473299779082648 -0.7640665399530213 -5.457030403505115 -0.7111821123434052 Q -5.3064279389913 -0.3956449051227303 -4.957142857142735 -0.37999999999999995 " stroke="#191919" stroke-width="0.35 px" style="stroke-width:0.35;stroke-miterlimit:4;stroke-dasharray:none;fill:none;fill-opacity:1;fill-rule: evenodd"/>
<path id="Shape2DView_nwe0023"  d="M -5.500000000000002 -0.977142857143 Q -5.494784577330093 -1.0300959447901812 -5.489569154660183 -1.0830490324373625 Q -5.473299779082648 -1.1359334600469786 -5.457030403505115 -1.1888178876565947 Q -5.306427938991299 -1.5043550948772693 -4.9571428571427365 -1.52 " stroke="#191919" stroke-width="0.35 px" style="stroke-width:0.35;stroke-miterlimit:4;stroke-dasharray:none;fill:none;fill-opacity:1;fill-rule: evenodd"/>
<path id="Shape2DView_nwe0024"  d="M 4.907312388810227 0.21354076174831116 L 0.09871416815825075 0.8039623828294609 " stroke="#191919" stroke-width="0.35 px" style="stroke-width:0.35;stroke-miterlimit:4;stroke-dasharray:none;fill:none;fill-opacity:1;fill-rule: evenodd"/>
<path id="Shape2DView_nwe0025"  d="M 5.481111423629429 -0.38000000732070516 Q 5.427699323348564 0.06954845515503305 4.907312388808155 0.2135407617484727 " stroke="#191919" stroke-width="0.35 px" style="stroke-width:0.35;stroke-miterlimit:4;stroke-dasharray:none;fill:none;fill-opacity:1;fill-rule: evenodd"/>
<path id="Shape2DView_nwe0026"  d="M 5.292687611189772 -2.113540761748311 L 10.101285831841748 -2.703962382829461 " stroke="#191919" stroke-width="0.35 px" style="stroke-width:0.35;stroke-miterlimit:4;stroke-dasharray:none;fill:none;fill-opacity:1;fill-rule: evenodd"/>
<path id="Shape2DView_nwe0027"  d="M 4.718888576370571 -1.5199999926792942 Q 4.772300676651435 -1.9695484551550324 5.2926876111918455 -2.1135407617484727 " stroke="#191919" stroke-width="0.35 px" style="stroke-width:0.35;stroke-miterlimit:4;stroke-dasharray:none;fill:none;fill-opacity:1;fill-rule: evenodd"/>
<title>b'Shape2DView'</title>
</g>
<g id="Rectangle" transform="translate(5.712000,1.212000) scale(1,-1)">
<rect fill="#ff0000" id="origin" width="1" height="1" x="0" y="0" />
<title>b'Rectangle'</title>
</g>
</svg>