<?xml version="1.0"?>
<!DOCTYPE svg PUBLIC "-//W3C//DTD SVG 1.1//EN" "http://www.w3.org/Graphics/SVG/1.1/DTD/svg11.dtd">
<svg width="14.270331967054023mm" height="8.299810430726549mm" viewBox="0 0 14.270331967054023 8.299810430726549" xmlns="http://www.w3.org/2000/svg" version="1.1">
<g id="Shape2DView" transform="translate(0.785166,4.149905) scale(1,-1)">
<path id="Shape2DView_nwe0000"  d="M 3.2 5.668798763735621e-15 L 3.2 -0.4489775491742591 L 3.2 -0.8923089451648156 L 3.2 -1.324419038440215 L 3.2 -1.7398737938614035 L 3.2 -2.1334486268264956 L 3.2 -2.500194105453518 L 3.2 -2.8354981925580525 L 3.2 -3.135144244696797 L 3.2 -3.395364038905417 L 3.2 -3.6128851602886978 L 3.2 -3.7849721545365513 L 3.2 -3.90946092784911 L 3.2 -3.9847859616719004 L 3.2 -4.009999999999998 " stroke="#191919" stroke-width="0.35 px" style="stroke-width:0.35;stroke-miterlimit:4;stroke-dasharray:none;fill:none;fill-opacity:1;fill-rule: evenodd"/>
<path id="Shape2DView_nwe0001"  d="M 3.2 4.010000000000002 L 3.2 3.9847859616719044 L 3.2 3.909460927849114 L 3.2 3.7849721545365558 L 3.2 3.6128851602887027 L 3.2 3.3953640389054214 L 3.2 3.1351442446968014 L 3.2 2.835498192558058 L 3.2 2.5001941054535237 L 3.2 2.1334486268265023 L 3.2 1.7398737938614108 L 3.2 1.324419038440223 L 3.2 0.8923089451648237 L 3.2 0.4489775491742676 L 3.2 6.650965496651798e-15 " stroke="#191919" stroke-width="0.35 px" style="stroke-width:0.35;stroke-miterlimit:4;stroke-dasharray:none;fill:none;fill-opacity:1;fill-rule: evenodd"/>
<path id="Shape2DView_nwe0002"  d="M 5.45 5.668798763735621e-15 L 5.45 -0.4489775491742591 L 5.45 -0.8923089451648156 L 5.45 -1.324419038440215 L 5.45 -1.7398737938614035 L 5.45 -2.1334486268264956 L 5.45 -2.500194105453518 L 5.45 -2.8354981925580525 L 5.45 -3.135144244696797 L 5.45 -3.395364038905417 L 5.45 -3.6128851602886978 L 5.45 -3.7849721545365513 L 5.45 -3.90946092784911 L 5.45 -3.9847859616719004 L 5.45 -4.009999999999998 " stroke="#191919" stroke-width="0.35 px" style="stroke-width:0.35;stroke-miterlimit:4;stroke-dasharray:none;fill:none;fill-opacity:1;fill-rule: evenodd"/>
<path id="Shape2DView_nwe0003"  d="M 5.45 4.010000000000002 L 5.45 3.9847859616719044 L 5.45 3.909460927849114 L 5.45 3.7849721545365558 L 5.45 3.6128851602887027 L 5.45 3.3953640389054214 L 5.45 3.1351442446968014 L 5.45 2.835498192558058 L 5.45 2.5001941054535237 L 5.45 2.1334486268265023 L 5.45 1.7398737938614108 L 5.45 1.324419038440223 L 5.45 0.8923089451648237 L 5.45 0.4489775491742676 L 5.45 6.650965496651798e-15 " stroke="#191919" stroke-width="0.35 px" style="stroke-width:0.35;stroke-miterlimit:4;stroke-dasharray:none;fill:none;fill-opacity:1;fill-rule: evenodd"/>
<path id="Shape2DView_nwe0004"  d="M 1.85 5.6621374255882005e-15 L 1.85 -0.44785790441322604 L 1.85 -0.8900837358252526 L 1.85 -1.3211162478206635 L 1.85 -1.735534956470228 L 1.85 -2.1281283060613423 L 1.85 -2.493959207434931 L 1.85 -2.828427124746187 L 1.85 -3.127325929872117 L 1.85 -3.3868967969131343 L 1.85 -3.603875471609674 L 1.85 -3.775533321233468 L 1.85 -3.8997116487272923 L 1.85 -3.974848839572968 L 1.85 -3.9999999999999982 " stroke="#191919" stroke-width="0.35 px" style="stroke-width:0.35;stroke-miterlimit:4;stroke-dasharray:none;fill:none;fill-opacity:1;fill-rule: evenodd"/>
<path id="Shape2DView_nwe0005"  d="M 1.85 4.000000000000002 L 1.85 3.974848839572972 L 1.85 3.8997116487272963 L 1.85 3.7755333212334725 L 1.85 3.603875471609679 L 1.85 3.3868967969131387 L 1.85 3.1273259298721214 L 1.85 2.8284271247461925 L 1.85 2.4939592074349366 L 1.85 2.128128306061349 L 1.85 1.7355349564702354 L 1.85 1.3211162478206715 L 1.85 0.8900837358252607 L 1.85 0.44785790441323453 L 1.85 6.641854864906083e-15 " stroke="#191919" stroke-width="0.35 px" style="stroke-width:0.35;stroke-miterlimit:4;stroke-dasharray:none;fill:none;fill-opacity:1;fill-rule: evenodd"/>
<path id="Shape2DView_nwe0006"  d="M 10.85 5.6621374255882005e-15 L 10.85 -0.44785790441322604 L 10.85 -0.8900837358252526 L 10.85 -1.3211162478206635 L 10.85 -1.735534956470228 L 10.85 -2.1281283060613423 L 10.85 -2.493959207434931 L 10.85 -2.828427124746187 L 10.85 -3.127325929872117 L 10.85 -3.3868967969131343 L 10.85 -3.603875471609674 L 10.85 -3.775533321233468 L 10.85 -3.8997116487272923 L 10.85 -3.974848839572968 L 10.85 -3.9999999999999982 " stroke="#191919" stroke-width="0.35 px" style="stroke-width:0.35;stroke-miterlimit:4;stroke-dasharray:none;fill:none;fill-opacity:1;fill-rule: evenodd"/>
<path id="Shape2DView_nwe0007"  d="M 10.85 4.000000000000002 L 10.85 3.974848839572972 L 10.85 3.8997116487272963 L 10.85 3.7755333212334725 L 10.85 3.603875471609679 L 10.85 3.3868967969131387 L 10.85 3.1273259298721214 L 10.85 2.8284271247461925 L 10.85 2.4939592074349366 L 10.85 2.128128306061349 L 10.85 1.7355349564702354 L 10.85 1.3211162478206715 L 10.85 0.8900837358252607 L 10.85 0.44785790441323453 L 10.85 6.641854864906083e-15 " stroke="#191919" stroke-width="0.35 px" style="stroke-width:0.35;stroke-miterlimit:4;stroke-dasharray:none;fill:none;fill-opacity:1;fill-rule: evenodd"/>
<path id="Shape2DView_nwe0008"  d="M -2.1898205945620806e-14 0.6500000000000011 A 0.65 0.65 0 0 1 2.0664e-14 -0.65" stroke="#191919" stroke-width="0.35 px" style="stroke-width:0.35;stroke-miterlimit:4;stroke-dasharray:none;fill:none;fill-opacity:1;fill-rule: evenodd"/>
<path id="Shape2DView_nwe0009"  d="M 12.699999999999978 -0.6499999999999989 A 0.65 0.65 0 0 1 12.7 0.65" stroke="#191919" stroke-width="0.35 px" style="stroke-width:0.35;stroke-miterlimit:4;stroke-dasharray:none;fill:none;fill-opacity:1;fill-rule: evenodd"/>
<path id="Shape2DView_nwe0010"  d="M 1.3 -0.6499999999999986 L 1.3 -0.633703142918184 L 1.2999999999999998 -0.585629764136571 L 1.2999999999999998 -0.5081904636042179 L 1.2999999999999998 -0.4052683712081754 L 1.2999999999999998 -0.2820244304264114 L 1.2999999999999998 -0.14463860707160295 L 1.2999999999999996 1.428414841325094e-15 L 1.2999999999999998 0.1446386070716058 L 1.2999999999999998 0.2820244304264142 L 1.2999999999999998 0.40526837120817827 L 1.2999999999999998 0.5081904636042208 L 1.2999999999999998 0.585629764136574 L 1.3 0.6337031429181867 L 1.3 0.6500000000000015 " stroke="#191919" stroke-width="0.35 px" style="stroke-width:0.35;stroke-miterlimit:4;stroke-dasharray:none;fill:none;fill-opacity:1;fill-rule: evenodd"/>
<path id="Shape2DView_nwe0011"  d="M 11.4 0.6500000000000015 L 11.4 0.6337031429181869 L 11.4 0.585629764136574 L 11.4 0.508190463604221 L 11.4 0.4052683712081784 L 11.4 0.2820244304264144 L 11.4 0.144638607071606 L 11.4 1.6672209671588278e-15 L 11.4 -0.1446386070716027 L 11.4 -0.2820244304264112 L 11.4 -0.40526837120817516 L 11.4 -0.5081904636042177 L 11.4 -0.5856297641365709 L 11.4 -0.633703142918184 L 11.4 -0.6499999999999986 " stroke="#191919" stroke-width="0.35 px" style="stroke-width:0.35;stroke-miterlimit:4;stroke-dasharray:none;fill:none;fill-opacity:1;fill-rule: evenodd"/>
<path id="Shape2DView_nwe0012"  d="M 3.2 5.668798763736e-15 L 5.45 5.668798763736e-15 " stroke="#191919" stroke-width="0.35 px" style="stroke-width:0.35;stroke-miterlimit:4;stroke-dasharray:none;fill:none;fill-opacity:1;fill-rule: evenodd"/>
<path id="Shape2DView_nwe0013"  d="M 1.85 5.662137425588e-15 L 3.2 5.662137425588e-15 " stroke="#191919" stroke-width="0.35 px" style="stroke-width:0.35;stroke-miterlimit:4;stroke-dasharray:none;fill:none;fill-opacity:1;fill-rule: evenodd"/>
<path id="Shape2DView_nwe0014"  d="M 5.45 5.662137425588e-15 L 10.85 5.662137425588e-15 " stroke="#191919" stroke-width="0.35 px" style="stroke-width:0.35;stroke-miterlimit:4;stroke-dasharray:none;fill:none;fill-opacity:1;fill-rule: evenodd"/>
<path id="Shape2DView_nwe0015"  d="M 3.2 -4.009999999999998 L 5.45 -4.009999999999998 " stroke="#191919" stroke-width="0.35 px" style="stroke-width:0.35;stroke-miterlimit:4;stroke-dasharray:none;fill:none;fill-opacity:1;fill-rule: evenodd"/>
<path id="Shape2DView_nwe0016"  d="M 3.2 4.010000000000002 L 5.45 4.010000000000002 " stroke="#191919" stroke-width="0.35 px" style="stroke-width:0.35;stroke-miterlimit:4;stroke-dasharray:none;fill:none;fill-opacity:1;fill-rule: evenodd"/>
<path id="Shape2DView_nwe0017"  d="M 1.85 -3.9999999999999982 L 3.2 -3.9999999999999982 " stroke="#191919" stroke-width="0.35 px" style="stroke-width:0.35;stroke-miterlimit:4;stroke-dasharray:none;fill:none;fill-opacity:1;fill-rule: evenodd"/>
<path id="Shape2DView_nwe0018"  d="M 1.85 4.000000000000002 L 3.2 4.000000000000002 " stroke="#191919" stroke-width="0.35 px" style="stroke-width:0.35;stroke-miterlimit:4;stroke-dasharray:none;fill:none;fill-opacity:1;fill-rule: evenodd"/>
<path id="Shape2DView_nwe0019"  d="M 5.45 -3.9999999999999982 L 10.85 -3.9999999999999982 " stroke="#191919" stroke-width="0.35 px" style="stroke-width:0.35;stroke-miterlimit:4;stroke-dasharray:none;fill:none;fill-opacity:1;fill-rule: evenodd"/>
<path id="Shape2DView_nwe0020"  d="M 5.45 4.000000000000002 L 10.85 4.000000000000002 " stroke="#191919" stroke-width="0.35 px" style="stroke-width:0.35;stroke-miterlimit:4;stroke-dasharray:none;fill:none;fill-opacity:1;fill-rule: evenodd"/>
<path id="Shape2DView_nwe0021"  d="M 1.3000000000000005 -0.6499999999999986 L 1.85 -0.6499999999999986 " stroke="#191919" stroke-width="0.35 px" style="stroke-width:0.35;stroke-miterlimit:4;stroke-dasharray:none;fill:none;fill-opacity:1;fill-rule: evenodd"/>
<path id="Shape2DView_nwe0022"  d="M 1.3000000000000005 0.6500000000000015 L 1.85 0.6500000000000015 " stroke="#191919" stroke-width="0.35 px" style="stroke-width:0.35;stroke-miterlimit:4;stroke-dasharray:none;fill:none;fill-opacity:1;fill-rule: evenodd"/>
<path id="Shape2DView_nwe0023"  d="M 10.85 -0.6499999999999986 L 11.4 -0.6499999999999986 " stroke="#191919" stroke-width="0.35 px" style="stroke-width:0.35;stroke-miterlimit:4;stroke-dasharray:none;fill:none;fill-opacity:1;fill-rule: evenodd"/>
<path id="Shape2DView_nwe0024"  d="M 10.85 0.6500000000000015 L 11.4 0.6500000000000015 " stroke="#191919" stroke-width="0.35 px" style="stroke-width:0.35;stroke-miterlimit:4;stroke-dasharray:none;fill:none;fill-opacity:1;fill-rule: evenodd"/>
<path id="Shape2DView_nwe0025"  d="M 1.2999999999999996 -0.6499999999999986 Q 0.11557121922088731 -0.6499999999999988 2.0650148258027912e-14 -0.649999999999999 " stroke="#191919" stroke-width="0.35 px" style="stroke-width:0.35;stroke-miterlimit:4;stroke-dasharray:none;fill:none;fill-opacity:1;fill-rule: evenodd"/>
<path id="Shape2DView_nwe0026"  d="M 1.2999999999999996 0.6500000000000015 Q 0.1264620097721072 0.6500000000000014 -2.220446049250313e-14 0.650000000000001 " stroke="#191919" stroke-width="0.35 px" style="stroke-width:0.35;stroke-miterlimit:4;stroke-dasharray:none;fill:none;fill-opacity:1;fill-rule: evenodd"/>
<path id="Shape2DView_nwe0027"  d="M 11.4 0.6500000000000015 Q 12.584371364968696 0.6500000000000014 12.700000000000022 0.650000000000001 " stroke="#191919" stroke-width="0.35 px" style="stroke-width:0.35;stroke-miterlimit:4;stroke-dasharray:none;fill:none;fill-opacity:1;fill-rule: evenodd"/>
<path id="Shape2DView_nwe0028"  d="M 11.4 -0.6499999999999986 Q 12.584428780784616 -0.6499999999999988 12.69999999999998 -0.649999999999999 " stroke="#191919" stroke-width="0.35 px" style="stroke-width:0.35;stroke-miterlimit:4;stroke-dasharray:none;fill:none;fill-opacity:1;fill-rule: evenodd"/>
<title>b'Shape2DView'</title>
</g>
<g id="Rectangle" transform="translate(0.785166,4.149905) scale(1,-1)">
<rect fill="#ff0000" id="origin" width="1" height="1" x="0" y="0" />
<title>b'Rectangle'</title>
</g>
</svg>