<?xml version="1.0"?>
<!DOCTYPE svg PUBLIC "-//W3C//DTD SVG 1.1//EN" "http://www.w3.org/Graphics/SVG/1.1/DTD/svg11.dtd">
<svg width="14.06781935673802mm" height="9.825839595230159mm" viewBox="0 0 14.06781935673802 9.825839595230159" xmlns="http://www.w3.org/2000/svg" version="1.1">
<g id="Shape2DView" transform="translate(0.683910,4.912920) scale(1,-1)">
<path id="Shape2DView_nwe0000"  d="M -1.87735002501736e-14 0.5500000000000014 A 0.55 0.55 0 0 1 1.74849e-14 -0.55" stroke="#191919" stroke-width="0.35 px" style="stroke-width:0.35;stroke-miterlimit:4;stroke-dasharray:none;fill:none;fill-opacity:1;fill-rule: evenodd"/>
<path id="Shape2DView_nwe0001"  d="M 2.54 6.681322162194505e-15 L 2.54 -0.5335107286322556 L 2.54 -1.060312250301832 L 2.54 -1.5737797302163654 L 2.54 -2.067456016895159 L 2.54 -2.535132844595574 L 2.54 -2.970928905856861 L 2.54 -3.369363812353895 L 2.54 -3.725427013960159 L 2.54 -4.03464080932277 L 2.54 -4.293116655555024 L 2.54 -4.497604068919368 L 2.54 -4.645531501546386 L 2.54 -4.735038680141297 L 2.54 -4.764999999999997 " stroke="#191919" stroke-width="0.35 px" style="stroke-width:0.35;stroke-miterlimit:4;stroke-dasharray:none;fill:none;fill-opacity:1;fill-rule: evenodd"/>
<path id="Shape2DView_nwe0002"  d="M 2.54 4.765000000000002 L 2.54 4.735038680141304 L 2.54 4.645531501546392 L 2.54 4.497604068919374 L 2.54 4.29311665555503 L 2.54 4.034640809322777 L 2.54 3.7254270139601644 L 2.54 3.369363812353902 L 2.54 2.9709289058568684 L 2.54 2.535132844595582 L 2.54 2.0674560168951674 L 2.54 1.5737797302163747 L 2.54 1.0603122503018418 L 2.54 0.5335107286322656 L 2.54 7.848410561781933e-15 " stroke="#191919" stroke-width="0.35 px" style="stroke-width:0.35;stroke-miterlimit:4;stroke-dasharray:none;fill:none;fill-opacity:1;fill-rule: evenodd"/>
<path id="Shape2DView_nwe0003"  d="M 3.683 6.687983500342323e-15 L 3.683 -0.5346303733932887 L 3.683 -1.0625374596413952 L 3.683 -1.5770825208359174 L 3.683 -2.071794854286335 L 3.683 -2.5404531653607276 L 3.683 -2.9771638038754484 L 3.683 -3.3764348801657613 L 3.683 -3.73324532878484 L 3.683 -4.043108051315054 L 3.683 -4.302126344234049 L 3.683 -4.5070429022224525 L 3.683 -4.655280780668205 L 3.683 -4.74497580224023 L 3.683 -4.774999999999998 " stroke="#191919" stroke-width="0.35 px" style="stroke-width:0.35;stroke-miterlimit:4;stroke-dasharray:none;fill:none;fill-opacity:1;fill-rule: evenodd"/>
<path id="Shape2DView_nwe0004"  d="M 3.683 4.775000000000003 L 3.683 4.744975802240237 L 3.683 4.65528078066821 L 3.683 4.507042902222459 L 3.683 4.302126344234055 L 3.683 4.043108051315061 L 3.683 3.7332453287848453 L 3.683 3.3764348801657675 L 3.683 2.9771638038754564 L 3.683 2.5404531653607356 L 3.683 2.0717948542863436 L 3.683 1.5770825208359265 L 3.683 1.062537459641405 L 3.683 0.5346303733932987 L 3.683 7.857521193528045e-15 " stroke="#191919" stroke-width="0.35 px" style="stroke-width:0.35;stroke-miterlimit:4;stroke-dasharray:none;fill:none;fill-opacity:1;fill-rule: evenodd"/>
<path id="Shape2DView_nwe0005"  d="M 5.588 6.687983500342323e-15 L 5.588 -0.5346303733932887 L 5.588 -1.0625374596413952 L 5.588 -1.5770825208359174 L 5.588 -2.071794854286335 L 5.588 -2.5404531653607276 L 5.588 -2.9771638038754484 L 5.588 -3.3764348801657613 L 5.588 -3.73324532878484 L 5.588 -4.043108051315054 L 5.588 -4.302126344234049 L 5.588 -4.5070429022224525 L 5.588 -4.655280780668205 L 5.588 -4.74497580224023 L 5.588 -4.774999999999998 " stroke="#191919" stroke-width="0.35 px" style="stroke-width:0.35;stroke-miterlimit:4;stroke-dasharray:none;fill:none;fill-opacity:1;fill-rule: evenodd"/>
<path id="Shape2DView_nwe0006"  d="M 5.588 4.775000000000003 L 5.588 4.744975802240237 L 5.588 4.65528078066821 L 5.588 4.507042902222459 L 5.588 4.302126344234055 L 5.588 4.043108051315061 L 5.588 3.7332453287848453 L 5.588 3.3764348801657675 L 5.588 2.9771638038754564 L 5.588 2.5404531653607356 L 5.588 2.0717948542863436 L 5.588 1.5770825208359265 L 5.588 1.062537459641405 L 5.588 0.5346303733932987 L 5.588 7.857521193528045e-15 " stroke="#191919" stroke-width="0.35 px" style="stroke-width:0.35;stroke-miterlimit:4;stroke-dasharray:none;fill:none;fill-opacity:1;fill-rule: evenodd"/>
<path id="Shape2DView_nwe0007"  d="M 10.16 6.681322162194505e-15 L 10.16 -0.5335107286322556 L 10.16 -1.060312250301832 L 10.16 -1.5737797302163654 L 10.16 -2.067456016895159 L 10.16 -2.535132844595574 L 10.16 -2.970928905856861 L 10.16 -3.369363812353895 L 10.16 -3.725427013960159 L 10.16 -4.03464080932277 L 10.16 -4.293116655555024 L 10.16 -4.497604068919368 L 10.16 -4.645531501546386 L 10.16 -4.735038680141297 L 10.16 -4.764999999999997 " stroke="#191919" stroke-width="0.35 px" style="stroke-width:0.35;stroke-miterlimit:4;stroke-dasharray:none;fill:none;fill-opacity:1;fill-rule: evenodd"/>
<path id="Shape2DView_nwe0008"  d="M 10.16 4.765000000000002 L 10.16 4.735038680141304 L 10.16 4.645531501546392 L 10.16 4.497604068919374 L 10.16 4.29311665555503 L 10.16 4.034640809322777 L 10.16 3.7254270139601644 L 10.16 3.369363812353902 L 10.16 2.9709289058568684 L 10.16 2.535132844595582 L 10.16 2.0674560168951674 L 10.16 1.5737797302163747 L 10.16 1.0603122503018418 L 10.16 0.5335107286322656 L 10.16 7.848410561781933e-15 " stroke="#191919" stroke-width="0.35 px" style="stroke-width:0.35;stroke-miterlimit:4;stroke-dasharray:none;fill:none;fill-opacity:1;fill-rule: evenodd"/>
<path id="Shape2DView_nwe0009"  d="M 12.699999999999982 -0.5499999999999987 A 0.55 0.55 0 0 1 12.7 0.55" stroke="#191919" stroke-width="0.35 px" style="stroke-width:0.35;stroke-miterlimit:4;stroke-dasharray:none;fill:none;fill-opacity:1;fill-rule: evenodd"/>
<path id="Shape2DView_nwe0011"  d="M 1.1 -0.5499999999999984 L 1.1 -0.5362103517000014 L 1.1 -0.49553287734632895 L 1.1 -0.4300073153574148 L 1.1 -0.34291939102230184 L 1.1 -0.2386360565146554 L 1.1 -0.12238651367597132 L 1.1 1.600567439582541e-15 L 1.1 0.12238651367597454 L 1.1 0.23863605651465858 L 1.1 0.3429193910223051 L 1.1 0.430007315357418 L 1.1 0.49553287734633217 L 1.1 0.5362103517000046 L 1.1 0.5500000000000017 " stroke="#191919" stroke-width="0.35 px" style="stroke-width:0.35;stroke-miterlimit:4;stroke-dasharray:none;fill:none;fill-opacity:1;fill-rule: evenodd"/>
<path id="Shape2DView_nwe0012"  d="M 11.6 0.5500000000000017 L 11.6 0.5362103517000048 L 11.6 0.4955328773463322 L 11.6 0.43000731535741815 L 11.6 0.34291939102230523 L 11.6 0.23863605651465877 L 11.6 0.12238651367597472 L 11.6 1.8026341614418542e-15 L 11.6 -0.12238651367597113 L 11.6 -0.2386360565146552 L 11.6 -0.3429193910223017 L 11.6 -0.4300073153574147 L 11.6 -0.49553287734632884 L 11.6 -0.5362103517000014 L 11.6 -0.5499999999999984 " stroke="#191919" stroke-width="0.35 px" style="stroke-width:0.35;stroke-miterlimit:4;stroke-dasharray:none;fill:none;fill-opacity:1;fill-rule: evenodd"/>
<path id="Shape2DView_nwe0013"  d="M 2.54 6.681322162194e-15 L 3.683 6.681322162194e-15 " stroke="#191919" stroke-width="0.35 px" style="stroke-width:0.35;stroke-miterlimit:4;stroke-dasharray:none;fill:none;fill-opacity:1;fill-rule: evenodd"/>
<path id="Shape2DView_nwe0014"  d="M 3.683 6.687983500342e-15 L 5.588 6.687983500342e-15 " stroke="#191919" stroke-width="0.35 px" style="stroke-width:0.35;stroke-miterlimit:4;stroke-dasharray:none;fill:none;fill-opacity:1;fill-rule: evenodd"/>
<path id="Shape2DView_nwe0015"  d="M 5.588 6.681322162194e-15 L 10.16 6.681322162194e-15 " stroke="#191919" stroke-width="0.35 px" style="stroke-width:0.35;stroke-miterlimit:4;stroke-dasharray:none;fill:none;fill-opacity:1;fill-rule: evenodd"/>
<path id="Shape2DView_nwe0016"  d="M 1.1 -0.5499999999999985 Q 0.09779348648906983 -0.5499999999999984 1.7541523789077473e-14 -0.5499999999999987 " stroke="#191919" stroke-width="0.35 px" style="stroke-width:0.35;stroke-miterlimit:4;stroke-dasharray:none;fill:none;fill-opacity:1;fill-rule: evenodd"/>
<path id="Shape2DView_nwe0017"  d="M 1.1 0.5500000000000016 Q 0.10700628771574905 0.5500000000000017 -1.887379141862766e-14 0.5500000000000014 " stroke="#191919" stroke-width="0.35 px" style="stroke-width:0.35;stroke-miterlimit:4;stroke-dasharray:none;fill:none;fill-opacity:1;fill-rule: evenodd"/>
<path id="Shape2DView_nwe0018"  d="M 1.1 -0.5499999999999984 L 2.54 -0.5499999999999984 " stroke="#191919" stroke-width="0.35 px" style="stroke-width:0.35;stroke-miterlimit:4;stroke-dasharray:none;fill:none;fill-opacity:1;fill-rule: evenodd"/>
<path id="Shape2DView_nwe0019"  d="M 1.1 0.5500000000000017 L 2.54 0.5500000000000017 " stroke="#191919" stroke-width="0.35 px" style="stroke-width:0.35;stroke-miterlimit:4;stroke-dasharray:none;fill:none;fill-opacity:1;fill-rule: evenodd"/>
<path id="Shape2DView_nwe0020"  d="M 2.54 -4.764999999999997 L 3.683 -4.764999999999997 " stroke="#191919" stroke-width="0.35 px" style="stroke-width:0.35;stroke-miterlimit:4;stroke-dasharray:none;fill:none;fill-opacity:1;fill-rule: evenodd"/>
<path id="Shape2DView_nwe0021"  d="M 2.54 4.765000000000002 L 3.683 4.765000000000002 " stroke="#191919" stroke-width="0.35 px" style="stroke-width:0.35;stroke-miterlimit:4;stroke-dasharray:none;fill:none;fill-opacity:1;fill-rule: evenodd"/>
<path id="Shape2DView_nwe0022"  d="M 3.683 -4.774999999999998 L 5.588 -4.774999999999998 " stroke="#191919" stroke-width="0.35 px" style="stroke-width:0.35;stroke-miterlimit:4;stroke-dasharray:none;fill:none;fill-opacity:1;fill-rule: evenodd"/>
<path id="Shape2DView_nwe0023"  d="M 3.683 4.775000000000003 L 5.588 4.775000000000003 " stroke="#191919" stroke-width="0.35 px" style="stroke-width:0.35;stroke-miterlimit:4;stroke-dasharray:none;fill:none;fill-opacity:1;fill-rule: evenodd"/>
<path id="Shape2DView_nwe0024"  d="M 5.588 -4.764999999999997 L 10.16 -4.764999999999997 " stroke="#191919" stroke-width="0.35 px" style="stroke-width:0.35;stroke-miterlimit:4;stroke-dasharray:none;fill:none;fill-opacity:1;fill-rule: evenodd"/>
<path id="Shape2DView_nwe0025"  d="M 5.588 4.765000000000002 L 10.16 4.765000000000002 " stroke="#191919" stroke-width="0.35 px" style="stroke-width:0.35;stroke-miterlimit:4;stroke-dasharray:none;fill:none;fill-opacity:1;fill-rule: evenodd"/>
<path id="Shape2DView_nwe0026"  d="M 10.16 -0.5499999999999984 L 11.6 -0.5499999999999984 " stroke="#191919" stroke-width="0.35 px" style="stroke-width:0.35;stroke-miterlimit:4;stroke-dasharray:none;fill:none;fill-opacity:1;fill-rule: evenodd"/>
<path id="Shape2DView_nwe0027"  d="M 10.16 0.5500000000000017 L 11.6 0.5500000000000017 " stroke="#191919" stroke-width="0.35 px" style="stroke-width:0.35;stroke-miterlimit:4;stroke-dasharray:none;fill:none;fill-opacity:1;fill-rule: evenodd"/>
<path id="Shape2DView_nwe0028"  d="M 11.6 0.5500000000000016 Q 12.60219866308542 0.5500000000000015 12.700000000000019 0.5500000000000014 " stroke="#191919" stroke-width="0.35 px" style="stroke-width:0.35;stroke-miterlimit:4;stroke-dasharray:none;fill:none;fill-opacity:1;fill-rule: evenodd"/>
<path id="Shape2DView_nwe0029"  d="M 11.6 -0.5499999999999985 Q 12.602206447891941 -0.5499999999999983 12.699999999999982 -0.5499999999999988 " stroke="#191919" stroke-width="0.35 px" style="stroke-width:0.35;stroke-miterlimit:4;stroke-dasharray:none;fill:none;fill-opacity:1;fill-rule: evenodd"/>
<title>b'Shape2DView'</title>
</g>
<g id="Rectangle" transform="translate(0.683910,4.912920) scale(1,-1)">
<rect fill="#ff0000" id="origin" width="1" height="1" x="0" y="0" />
<title>b'Rectangle'</title>
</g>
</svg>