<?xml version="1.0"?>
<!DOCTYPE svg PUBLIC "-//W3C//DTD SVG 1.1//EN" "http://www.w3.org/Graphics/SVG/1.1/DTD/svg11.dtd">
<svg width="8.37993783094801mm" height="2.884312506489177mm" viewBox="0 0 8.37993783094801 2.884312506489177" xmlns="http://www.w3.org/2000/svg" version="1.1">
<g id="Shape2DView" transform="translate(0.379969,1.442156) scale(1,-1)">
<path id="Shape2DView_nwe0000"  d="M -1.0240091045549236e-14 0.3000000000000007 A 0.3 0.3 0 0 1 9.53722e-15 -0.3" stroke="#191919" stroke-width="0.35 px" style="stroke-width:0.35;stroke-miterlimit:4;stroke-dasharray:none;fill:none;fill-opacity:1;fill-rule: evenodd"/>
<path id="Shape2DView_nwe0001"  d="M 1.21 2.13162820728035e-15 L 1.21 -0.1511520427394636 L 1.21 -0.3004032608410226 L 1.21 -0.4458767336394738 L 1.21 -0.5857430478087019 L 1.21 -0.718243303295703 L 1.21 -0.841711232509289 L 1.21 -0.9545941546018383 L 1.21 -1.0554725013318391 L 1.21 -1.1430776689581827 L 1.21 -1.2163079716682648 L 1.21 -1.2742424959162952 L 1.21 -1.3161526814454612 L 1.21 -1.3415114833558766 L 1.21 -1.3499999999999992 " stroke="#191919" stroke-width="0.35 px" style="stroke-width:0.35;stroke-miterlimit:4;stroke-dasharray:none;fill:none;fill-opacity:1;fill-rule: evenodd"/>
<path id="Shape2DView_nwe0002"  d="M 1.21 1.350000000000001 L 1.21 1.3415114833558786 L 1.21 1.3161526814454627 L 1.21 1.2742424959162972 L 1.21 1.216307971668267 L 1.21 1.1430776689581847 L 1.21 1.0554725013318416 L 1.21 0.9545941546018402 L 1.21 0.8417112325092915 L 1.21 0.7182433032957055 L 1.21 0.5857430478087047 L 1.21 0.44587673363947683 L 1.21 0.30040326084102575 L 1.21 0.1511520427394669 L 1.21 2.4622828430501356e-15 " stroke="#191919" stroke-width="0.35 px" style="stroke-width:0.35;stroke-miterlimit:4;stroke-dasharray:none;fill:none;fill-opacity:1;fill-rule: evenodd"/>
<path id="Shape2DView_nwe0003"  d="M 1.99 2.1382895454280643e-15 L 1.99 -0.15227168750049666 L 1.99 -0.3026284701805857 L 1.99 -0.44917952425902546 L 1.99 -0.5900818851998775 L 1.99 -0.7235636240608564 L 1.99 -0.8479461305278764 L 1.99 -0.9616652224137037 L 1.99 -1.0632908161565195 L 1.99 -1.1515449109504656 L 1.99 -1.225317660347289 L 1.99 -1.283681329219379 L 1.99 -1.3259019605672795 L 1.99 -1.3514486054548092 L 1.99 -1.3599999999999992 " stroke="#191919" stroke-width="0.35 px" style="stroke-width:0.35;stroke-miterlimit:4;stroke-dasharray:none;fill:none;fill-opacity:1;fill-rule: evenodd"/>
<path id="Shape2DView_nwe0004"  d="M 1.99 1.360000000000001 L 1.99 1.351448605454811 L 1.99 1.325901960567281 L 1.99 1.283681329219381 L 1.99 1.2253176603472913 L 1.99 1.1515449109504676 L 1.99 1.0632908161565218 L 1.99 0.9616652224137057 L 1.99 0.8479461305278788 L 1.99 0.723563624060859 L 1.99 0.5900818851998803 L 1.99 0.4491795242590285 L 1.99 0.30262847018058886 L 1.99 0.15227168750049996 L 1.99 2.4713934747961444e-15 " stroke="#191919" stroke-width="0.35 px" style="stroke-width:0.35;stroke-miterlimit:4;stroke-dasharray:none;fill:none;fill-opacity:1;fill-rule: evenodd"/>
<path id="Shape2DView_nwe0005"  d="M 3.29 2.1382895454280643e-15 L 3.29 -0.15227168750049666 L 3.29 -0.3026284701805857 L 3.29 -0.44917952425902546 L 3.29 -0.5900818851998775 L 3.29 -0.7235636240608564 L 3.29 -0.8479461305278764 L 3.29 -0.9616652224137037 L 3.29 -1.0632908161565195 L 3.29 -1.1515449109504656 L 3.29 -1.225317660347289 L 3.29 -1.283681329219379 L 3.29 -1.3259019605672795 L 3.29 -1.3514486054548092 L 3.29 -1.3599999999999992 " stroke="#191919" stroke-width="0.35 px" style="stroke-width:0.35;stroke-miterlimit:4;stroke-dasharray:none;fill:none;fill-opacity:1;fill-rule: evenodd"/>
<path id="Shape2DView_nwe0006"  d="M 3.29 1.360000000000001 L 3.29 1.351448605454811 L 3.29 1.325901960567281 L 3.29 1.283681329219381 L 3.29 1.2253176603472913 L 3.29 1.1515449109504676 L 3.29 1.0632908161565218 L 3.29 0.9616652224137057 L 3.29 0.8479461305278788 L 3.29 0.723563624060859 L 3.29 0.5900818851998803 L 3.29 0.4491795242590285 L 3.29 0.30262847018058886 L 3.29 0.15227168750049996 L 3.29 2.4713934747961444e-15 " stroke="#191919" stroke-width="0.35 px" style="stroke-width:0.35;stroke-miterlimit:4;stroke-dasharray:none;fill:none;fill-opacity:1;fill-rule: evenodd"/>
<path id="Shape2DView_nwe0007"  d="M 6.41 2.13162820728035e-15 L 6.41 -0.1511520427394636 L 6.41 -0.3004032608410226 L 6.41 -0.4458767336394738 L 6.41 -0.5857430478087019 L 6.41 -0.718243303295703 L 6.41 -0.841711232509289 L 6.41 -0.9545941546018383 L 6.41 -1.0554725013318391 L 6.41 -1.1430776689581827 L 6.41 -1.2163079716682648 L 6.41 -1.2742424959162952 L 6.41 -1.3161526814454612 L 6.41 -1.3415114833558766 L 6.41 -1.3499999999999992 " stroke="#191919" stroke-width="0.35 px" style="stroke-width:0.35;stroke-miterlimit:4;stroke-dasharray:none;fill:none;fill-opacity:1;fill-rule: evenodd"/>
<path id="Shape2DView_nwe0008"  d="M 6.41 1.350000000000001 L 6.41 1.3415114833558786 L 6.41 1.3161526814454627 L 6.41 1.2742424959162972 L 6.41 1.216307971668267 L 6.41 1.1430776689581847 L 6.41 1.0554725013318416 L 6.41 0.9545941546018402 L 6.41 0.8417112325092915 L 6.41 0.7182433032957055 L 6.41 0.5857430478087047 L 6.41 0.44587673363947683 L 6.41 0.30040326084102575 L 6.41 0.1511520427394669 L 6.41 2.4622828430501356e-15 " stroke="#191919" stroke-width="0.35 px" style="stroke-width:0.35;stroke-miterlimit:4;stroke-dasharray:none;fill:none;fill-opacity:1;fill-rule: evenodd"/>
<path id="Shape2DView_nwe0009"  d="M 7.61999999999999 -0.29999999999999927 A 0.3 0.3 0 0 1 7.62 0.3" stroke="#191919" stroke-width="0.35 px" style="stroke-width:0.35;stroke-miterlimit:4;stroke-dasharray:none;fill:none;fill-opacity:1;fill-rule: evenodd"/>
<path id="Shape2DView_nwe0011"  d="M 0.6 -0.29999999999999916 L 0.6 -0.29247837365454626 L 0.6 -0.27029066037072486 L 0.6 -0.23454944474040806 L 0.6 -0.1870469405576192 L 0.6 -0.1301651217352666 L 0.6 -0.06675628018689346 L 0.6 8.480063024900588e-16 L 0.6 0.06675628018689518 L 0.6 0.13016512173526829 L 0.6 0.18704694055762092 L 0.6 0.23454944474040976 L 0.6 0.2702906603707266 L 0.6 0.2924783736545479 L 0.6 0.3000000000000008 " stroke="#191919" stroke-width="0.35 px" style="stroke-width:0.35;stroke-miterlimit:4;stroke-dasharray:none;fill:none;fill-opacity:1;fill-rule: evenodd"/>
<path id="Shape2DView_nwe0012"  d="M 7.02 0.3000000000000008 L 7.02 0.29247837365454793 L 7.02 0.27029066037072663 L 7.02 0.23454944474040984 L 7.02 0.187046940557621 L 7.02 0.13016512173526837 L 7.02 0.06675628018689528 L 7.02 9.582245144133206e-16 L 7.02 -0.06675628018689335 L 7.02 -0.13016512173526648 L 7.02 -0.18704694055761908 L 7.02 -0.234549444740408 L 7.02 -0.2702906603707248 L 7.02 -0.29247837365454626 L 7.02 -0.29999999999999916 " stroke="#191919" stroke-width="0.35 px" style="stroke-width:0.35;stroke-miterlimit:4;stroke-dasharray:none;fill:none;fill-opacity:1;fill-rule: evenodd"/>
<path id="Shape2DView_nwe0013"  d="M 1.21 2.13162820728e-15 L 1.99 2.13162820728e-15 " stroke="#191919" stroke-width="0.35 px" style="stroke-width:0.35;stroke-miterlimit:4;stroke-dasharray:none;fill:none;fill-opacity:1;fill-rule: evenodd"/>
<path id="Shape2DView_nwe0014"  d="M 1.99 2.138289545428e-15 L 3.29 2.138289545428e-15 " stroke="#191919" stroke-width="0.35 px" style="stroke-width:0.35;stroke-miterlimit:4;stroke-dasharray:none;fill:none;fill-opacity:1;fill-rule: evenodd"/>
<path id="Shape2DView_nwe0015"  d="M 3.29 2.13162820728e-15 L 6.41 2.13162820728e-15 " stroke="#191919" stroke-width="0.35 px" style="stroke-width:0.35;stroke-miterlimit:4;stroke-dasharray:none;fill:none;fill-opacity:1;fill-rule: evenodd"/>
<path id="Shape2DView_nwe0016"  d="M 0.6 -0.29999999999999916 Q 0.05334177306821847 -0.2999999999999991 9.547918011776346e-15 -0.29999999999999927 " stroke="#191919" stroke-width="0.35 px" style="stroke-width:0.35;stroke-miterlimit:4;stroke-dasharray:none;fill:none;fill-opacity:1;fill-rule: evenodd"/>
<path id="Shape2DView_nwe0017"  d="M 0.6 0.3000000000000008 Q 0.05836701206123246 0.3000000000000009 -1.0325074129013956e-14 0.3000000000000007 " stroke="#191919" stroke-width="0.35 px" style="stroke-width:0.35;stroke-miterlimit:4;stroke-dasharray:none;fill:none;fill-opacity:1;fill-rule: evenodd"/>
<path id="Shape2DView_nwe0018"  d="M 0.6 -0.29999999999999916 L 1.21 -0.29999999999999916 " stroke="#191919" stroke-width="0.35 px" style="stroke-width:0.35;stroke-miterlimit:4;stroke-dasharray:none;fill:none;fill-opacity:1;fill-rule: evenodd"/>
<path id="Shape2DView_nwe0019"  d="M 0.6 0.3000000000000008 L 1.21 0.3000000000000008 " stroke="#191919" stroke-width="0.35 px" style="stroke-width:0.35;stroke-miterlimit:4;stroke-dasharray:none;fill:none;fill-opacity:1;fill-rule: evenodd"/>
<path id="Shape2DView_nwe0020"  d="M 1.21 -1.3499999999999992 L 1.99 -1.3499999999999992 " stroke="#191919" stroke-width="0.35 px" style="stroke-width:0.35;stroke-miterlimit:4;stroke-dasharray:none;fill:none;fill-opacity:1;fill-rule: evenodd"/>
<path id="Shape2DView_nwe0021"  d="M 1.21 1.350000000000001 L 1.99 1.350000000000001 " stroke="#191919" stroke-width="0.35 px" style="stroke-width:0.35;stroke-miterlimit:4;stroke-dasharray:none;fill:none;fill-opacity:1;fill-rule: evenodd"/>
<path id="Shape2DView_nwe0022"  d="M 1.99 -1.3599999999999992 L 3.29 -1.3599999999999992 " stroke="#191919" stroke-width="0.35 px" style="stroke-width:0.35;stroke-miterlimit:4;stroke-dasharray:none;fill:none;fill-opacity:1;fill-rule: evenodd"/>
<path id="Shape2DView_nwe0023"  d="M 1.99 1.360000000000001 L 3.29 1.360000000000001 " stroke="#191919" stroke-width="0.35 px" style="stroke-width:0.35;stroke-miterlimit:4;stroke-dasharray:none;fill:none;fill-opacity:1;fill-rule: evenodd"/>
<path id="Shape2DView_nwe0024"  d="M 3.29 -1.3499999999999992 L 6.41 -1.3499999999999992 " stroke="#191919" stroke-width="0.35 px" style="stroke-width:0.35;stroke-miterlimit:4;stroke-dasharray:none;fill:none;fill-opacity:1;fill-rule: evenodd"/>
<path id="Shape2DView_nwe0025"  d="M 3.29 1.350000000000001 L 6.41 1.350000000000001 " stroke="#191919" stroke-width="0.35 px" style="stroke-width:0.35;stroke-miterlimit:4;stroke-dasharray:none;fill:none;fill-opacity:1;fill-rule: evenodd"/>
<path id="Shape2DView_nwe0026"  d="M 6.41 -0.29999999999999916 L 7.02 -0.29999999999999916 " stroke="#191919" stroke-width="0.35 px" style="stroke-width:0.35;stroke-miterlimit:4;stroke-dasharray:none;fill:none;fill-opacity:1;fill-rule: evenodd"/>
<path id="Shape2DView_nwe0027"  d="M 6.41 0.3000000000000008 L 7.02 0.3000000000000008 " stroke="#191919" stroke-width="0.35 px" style="stroke-width:0.35;stroke-miterlimit:4;stroke-dasharray:none;fill:none;fill-opacity:1;fill-rule: evenodd"/>
<path id="Shape2DView_nwe0028"  d="M 7.02 0.3000000000000008 Q 7.561632987938769 0.3000000000000009 7.62000000000001 0.3000000000000007 " stroke="#191919" stroke-width="0.35 px" style="stroke-width:0.35;stroke-miterlimit:4;stroke-dasharray:none;fill:none;fill-opacity:1;fill-rule: evenodd"/>
<path id="Shape2DView_nwe0029"  d="M 7.02 -0.29999999999999916 Q 7.566658226933145 -0.2999999999999991 7.61999999999999 -0.29999999999999927 " stroke="#191919" stroke-width="0.35 px" style="stroke-width:0.35;stroke-miterlimit:4;stroke-dasharray:none;fill:none;fill-opacity:1;fill-rule: evenodd"/>
<title>b'Shape2DView'</title>
</g>
<g id="Rectangle" transform="translate(0.379969,1.442156) scale(1,-1)">
<rect fill="#ff0000" id="origin" width="1" height="1" x="0" y="0" />
<title>b'Rectangle'</title>
</g>
</svg>