<?xml version="1.0"?>
<!DOCTYPE svg PUBLIC "-//W3C//DTD SVG 1.1//EN" "http://www.w3.org/Graphics/SVG/1.1/DTD/svg11.dtd">
<svg width="10.920109678369013mm" height="2.019119797615078mm" viewBox="0 0 10.920109678369013 2.019119797615078" xmlns="http://www.w3.org/2000/svg" version="1.1">
<g id="Shape2DView" transform="translate(0.380055,1.107060) scale(1,-1)">
<path id="Shape2DView_nwe0000"  d="M -9.3867501250868e-15 0.27500000000000063 A 0.275 0.275 0 0 1 8.74245e-15 -0.275" stroke="#191919" stroke-width="0.35 px" style="stroke-width:0.35;stroke-miterlimit:4;stroke-dasharray:none;fill:none;fill-opacity:1;fill-rule: evenodd"/>
<path id="Shape2DView_nwe0001"  d="M 3.56 1.0949574580365063e-15 L 3.56 -0.03848778866051102 L 3.56 -0.07649157104748207 L 3.56 -0.11353342754708771 L 3.56 -0.1491475353216597 L 3.56 -0.18288602630214607 L 3.56 -0.21432461938893882 L 3.56 -0.24306795603287493 L 3.56 -0.26875457209838455 L 3.56 -0.291061443484722 L 3.56 -0.30970804834145593 L 3.56 -0.32445989479350074 L 3.56 -0.3351314698125013 L 3.56 -0.3415885721508016 L 3.56 -0.34374999999999944 " stroke="#191919" stroke-width="0.35 px" style="stroke-width:0.35;stroke-miterlimit:4;stroke-dasharray:none;fill:none;fill-opacity:1;fill-rule: evenodd"/>
<path id="Shape2DView_nwe0002"  d="M 3.56 0.34375000000000056 L 3.56 0.3415885721508027 L 3.56 0.3351314698125024 L 3.56 0.3244598947935019 L 3.56 0.30970804834145715 L 3.56 0.29106144348472324 L 3.56 0.26875457209838577 L 3.56 0.2430679560328763 L 3.56 0.2143246193889402 L 3.56 0.1828860263021475 L 3.56 0.1491475353216612 L 3.56 0.11353342754708924 L 3.56 0.07649157104748364 L 3.56 0.03848778866051264 L 3.56 1.1791519254778867e-15 " stroke="#191919" stroke-width="0.35 px" style="stroke-width:0.35;stroke-miterlimit:4;stroke-dasharray:none;fill:none;fill-opacity:1;fill-rule: evenodd"/>
<path id="Shape2DView_nwe0003"  d="M 3.71 6.461498003318e-16 L 3.71 -0.07165726470611639 L 3.71 -0.14241339773204056 L 3.71 -0.21137859965130631 L 3.71 -0.2776855930352366 L 3.71 -0.3405005289698148 L 3.71 -0.3990334731895888 L 3.71 -0.45254833995938976 L 3.71 -0.5003721487795385 L 3.71 -0.5419034875061013 L 3.71 -0.5766200754575477 L 3.71 -0.6040853313973547 L 3.71 -0.6239538637963666 L 3.71 -0.6359758143316748 L 3.71 -0.6399999999999996 " stroke="#191919" stroke-width="0.35 px" style="stroke-width:0.35;stroke-miterlimit:4;stroke-dasharray:none;fill:none;fill-opacity:1;fill-rule: evenodd"/>
<path id="Shape2DView_nwe0004"  d="M 3.71 0.6400000000000005 L 3.71 0.6359758143316756 L 3.71 0.6239538637963674 L 3.71 0.6040853313973557 L 3.71 0.5766200754575486 L 3.71 0.5419034875061022 L 3.71 0.5003721487795394 L 3.71 0.4525483399593907 L 3.71 0.39903347318958976 L 3.71 0.34050052896981564 L 3.71 0.27768559303523743 L 3.71 0.2113785996513072 L 3.71 0.14241339773204145 L 3.71 0.07165726470611726 L 3.71 8.029045906226612e-16 " stroke="#191919" stroke-width="0.35 px" style="stroke-width:0.35;stroke-miterlimit:4;stroke-dasharray:none;fill:none;fill-opacity:1;fill-rule: evenodd"/>
<path id="Shape2DView_nwe0005"  d="M 4.016 1.402211680101215e-15 L 4.016 -0.09013140326316145 L 4.016 -0.17912935183483175 L 4.016 -0.2658746448739082 L 4.016 -0.3492764099896331 L 4.016 -0.4282858215948448 L 4.016 -0.5019092904962793 L 4.016 -0.5692209588551698 L 4.016 -0.6293743433867629 L 4.016 -0.6816129803787678 L 4.016 -0.7252799386614467 L 4.016 -0.7598260808982351 L 4.016 -0.7848169693063672 L 4.016 -0.7999383289640597 L 4.016 -0.8049999999999995 " stroke="#191919" stroke-width="0.35 px" style="stroke-width:0.35;stroke-miterlimit:4;stroke-dasharray:none;fill:none;fill-opacity:1;fill-rule: evenodd"/>
<path id="Shape2DView_nwe0006"  d="M 4.016 0.8050000000000006 L 4.016 0.7999383289640609 L 4.016 0.7848169693063687 L 4.016 0.7598260808982366 L 4.016 0.7252799386614481 L 4.016 0.6816129803787695 L 4.016 0.6293743433867648 L 4.016 0.5692209588551715 L 4.016 0.5019092904962813 L 4.016 0.4282858215948468 L 4.016 0.3492764099896351 L 4.016 0.2658746448739104 L 4.016 0.179129351834834 L 4.016 0.09013140326316371 L 4.016 1.5993798147639389e-15 " stroke="#191919" stroke-width="0.35 px" style="stroke-width:0.35;stroke-miterlimit:4;stroke-dasharray:none;fill:none;fill-opacity:1;fill-rule: evenodd"/>
<path id="Shape2DView_nwe0007"  d="M 4.516 1.402211680101215e-15 L 4.516 -0.09013140326316145 L 4.516 -0.17912935183483175 L 4.516 -0.2658746448739082 L 4.516 -0.3492764099896331 L 4.516 -0.4282858215948448 L 4.516 -0.5019092904962793 L 4.516 -0.5692209588551698 L 4.516 -0.6293743433867629 L 4.516 -0.6816129803787678 L 4.516 -0.7252799386614467 L 4.516 -0.7598260808982351 L 4.516 -0.7848169693063672 L 4.516 -0.7999383289640597 L 4.516 -0.8049999999999995 " stroke="#191919" stroke-width="0.35 px" style="stroke-width:0.35;stroke-miterlimit:4;stroke-dasharray:none;fill:none;fill-opacity:1;fill-rule: evenodd"/>
<path id="Shape2DView_nwe0008"  d="M 4.516 0.8050000000000006 L 4.516 0.7999383289640609 L 4.516 0.7848169693063687 L 4.516 0.7598260808982366 L 4.516 0.7252799386614481 L 4.516 0.6816129803787695 L 4.516 0.6293743433867648 L 4.516 0.5692209588551715 L 4.516 0.5019092904962813 L 4.516 0.4282858215948468 L 4.516 0.3492764099896351 L 4.516 0.2658746448739104 L 4.516 0.179129351834834 L 4.516 0.09013140326316371 L 4.516 1.5993798147639389e-15 " stroke="#191919" stroke-width="0.35 px" style="stroke-width:0.35;stroke-miterlimit:4;stroke-dasharray:none;fill:none;fill-opacity:1;fill-rule: evenodd"/>
<path id="Shape2DView_nwe0009"  d="M 6.45 6.461498003318e-16 L 6.45 -0.07165726470611639 L 6.45 -0.14241339773204056 L 6.45 -0.21137859965130631 L 6.45 -0.2776855930352366 L 6.45 -0.3405005289698148 L 6.45 -0.3990334731895888 L 6.45 -0.45254833995938976 L 6.45 -0.5003721487795385 L 6.45 -0.5419034875061013 L 6.45 -0.5766200754575477 L 6.45 -0.6040853313973547 L 6.45 -0.6239538637963666 L 6.45 -0.6359758143316748 L 6.45 -0.6399999999999996 " stroke="#191919" stroke-width="0.35 px" style="stroke-width:0.35;stroke-miterlimit:4;stroke-dasharray:none;fill:none;fill-opacity:1;fill-rule: evenodd"/>
<path id="Shape2DView_nwe0010"  d="M 6.45 0.6400000000000005 L 6.45 0.6359758143316756 L 6.45 0.6239538637963674 L 6.45 0.6040853313973557 L 6.45 0.5766200754575486 L 6.45 0.5419034875061022 L 6.45 0.5003721487795394 L 6.45 0.4525483399593907 L 6.45 0.39903347318958976 L 6.45 0.34050052896981564 L 6.45 0.27768559303523743 L 6.45 0.2113785996513072 L 6.45 0.14241339773204145 L 6.45 0.07165726470611726 L 6.45 8.029045906226612e-16 " stroke="#191919" stroke-width="0.35 px" style="stroke-width:0.35;stroke-miterlimit:4;stroke-dasharray:none;fill:none;fill-opacity:1;fill-rule: evenodd"/>
<path id="Shape2DView_nwe0011"  d="M 6.6 1.0949574580365063e-15 L 6.6 -0.03848778866051102 L 6.6 -0.07649157104748207 L 6.6 -0.11353342754708771 L 6.6 -0.1491475353216597 L 6.6 -0.18288602630214607 L 6.6 -0.21432461938893882 L 6.6 -0.24306795603287493 L 6.6 -0.26875457209838455 L 6.6 -0.291061443484722 L 6.6 -0.30970804834145593 L 6.6 -0.32445989479350074 L 6.6 -0.3351314698125013 L 6.6 -0.3415885721508016 L 6.6 -0.34374999999999944 " stroke="#191919" stroke-width="0.35 px" style="stroke-width:0.35;stroke-miterlimit:4;stroke-dasharray:none;fill:none;fill-opacity:1;fill-rule: evenodd"/>
<path id="Shape2DView_nwe0012"  d="M 6.6 0.34375000000000056 L 6.6 0.3415885721508027 L 6.6 0.3351314698125024 L 6.6 0.3244598947935019 L 6.6 0.30970804834145715 L 6.6 0.29106144348472324 L 6.6 0.26875457209838577 L 6.6 0.2430679560328763 L 6.6 0.2143246193889402 L 6.6 0.1828860263021475 L 6.6 0.1491475353216612 L 6.6 0.11353342754708924 L 6.6 0.07649157104748364 L 6.6 0.03848778866051264 L 6.6 1.1791519254778867e-15 " stroke="#191919" stroke-width="0.35 px" style="stroke-width:0.35;stroke-miterlimit:4;stroke-dasharray:none;fill:none;fill-opacity:1;fill-rule: evenodd"/>
<path id="Shape2DView_nwe0013"  d="M 10.159999999999991 -0.2749999999999994 A 0.275 0.275 0 0 1 10.16 0.275" stroke="#191919" stroke-width="0.35 px" style="stroke-width:0.35;stroke-miterlimit:4;stroke-dasharray:none;fill:none;fill-opacity:1;fill-rule: evenodd"/>
<path id="Shape2DView_nwe0015"  d="M 0.55 -0.2749999999999993 L 0.55 -0.2681051758500008 L 0.55 -0.24776643867316456 L 0.55 -0.2150036576787075 L 0.55 -0.171459695511151 L 0.55 -0.11931802825732776 L 0.55 -0.06119325683798573 L 0.55 7.264538886538706e-16 L 0.55 0.0611932568379872 L 0.55 0.11931802825732922 L 0.55 0.17145969551115248 L 0.55 0.2150036576787089 L 0.55 0.247766438673166 L 0.55 0.2681051758500022 L 0.55 0.27500000000000074 " stroke="#191919" stroke-width="0.35 px" style="stroke-width:0.35;stroke-miterlimit:4;stroke-dasharray:none;fill:none;fill-opacity:1;fill-rule: evenodd"/>
<path id="Shape2DView_nwe0016"  d="M 3.87 6.994405055138e-16 L 3.87 -0.08957158088264561 L 3.87 -0.17801674716505086 L 3.87 -0.26422324956413296 L 3.87 -0.3471069912940459 L 3.87 -0.4256256612122687 L 3.87 -0.49879184148698624 L 3.87 -0.5656854249492375 L 3.87 -0.6254651859744234 L 3.87 -0.6773793593826268 L 3.87 -0.7207750943219349 L 3.87 -0.7551066642466936 L 3.87 -0.7799423297454584 L 3.87 -0.7949697679145937 L 3.87 -0.7999999999999996 " stroke="#191919" stroke-width="0.35 px" style="stroke-width:0.35;stroke-miterlimit:4;stroke-dasharray:none;fill:none;fill-opacity:1;fill-rule: evenodd"/>
<path id="Shape2DView_nwe0017"  d="M 3.87 0.8000000000000005 L 3.87 0.7949697679145945 L 3.87 0.7799423297454593 L 3.87 0.7551066642466945 L 3.87 0.7207750943219356 L 3.87 0.6773793593826276 L 3.87 0.6254651859744241 L 3.87 0.5656854249492383 L 3.87 0.49879184148698713 L 3.87 0.4256256612122695 L 3.87 0.3471069912940467 L 3.87 0.2642232495641339 L 3.87 0.17801674716505173 L 3.87 0.08957158088264647 L 3.87 8.953839933773765e-16 " stroke="#191919" stroke-width="0.35 px" style="stroke-width:0.35;stroke-miterlimit:4;stroke-dasharray:none;fill:none;fill-opacity:1;fill-rule: evenodd"/>
<path id="Shape2DView_nwe0018"  d="M 6.29 6.994405055138e-16 L 6.29 -0.08957158088264562 L 6.29 -0.17801674716505086 L 6.29 -0.264223249564133 L 6.29 -0.34710699129404593 L 6.29 -0.4256256612122687 L 6.29 -0.49879184148698624 L 6.29 -0.5656854249492375 L 6.29 -0.6254651859744234 L 6.29 -0.6773793593826268 L 6.29 -0.7207750943219349 L 6.29 -0.7551066642466936 L 6.29 -0.7799423297454584 L 6.29 -0.7949697679145937 L 6.29 -0.7999999999999996 " stroke="#191919" stroke-width="0.35 px" style="stroke-width:0.35;stroke-miterlimit:4;stroke-dasharray:none;fill:none;fill-opacity:1;fill-rule: evenodd"/>
<path id="Shape2DView_nwe0019"  d="M 6.29 0.8000000000000005 L 6.29 0.7949697679145945 L 6.29 0.7799423297454593 L 6.29 0.7551066642466945 L 6.29 0.7207750943219356 L 6.29 0.6773793593826276 L 6.29 0.6254651859744241 L 6.29 0.5656854249492383 L 6.29 0.49879184148698713 L 6.29 0.4256256612122695 L 6.29 0.3471069912940467 L 6.29 0.2642232495641339 L 6.29 0.17801674716505173 L 6.29 0.08957158088264647 L 6.29 8.953839933773765e-16 " stroke="#191919" stroke-width="0.35 px" style="stroke-width:0.35;stroke-miterlimit:4;stroke-dasharray:none;fill:none;fill-opacity:1;fill-rule: evenodd"/>
<path id="Shape2DView_nwe0020"  d="M 9.61 0.27500000000000074 L 9.61 0.26810517585000226 L 9.61 0.24776643867316603 L 9.61 0.215003657678709 L 9.61 0.17145969551115253 L 9.61 0.11931802825732932 L 9.61 0.06119325683798729 L 9.61 8.274872495835273e-16 L 9.61 -0.061193256837985634 L 9.61 -0.11931802825732767 L 9.61 -0.17145969551115092 L 9.61 -0.21500365767870744 L 9.61 -0.2477664386731645 L 9.61 -0.2681051758500008 L 9.61 -0.2749999999999993 " stroke="#191919" stroke-width="0.35 px" style="stroke-width:0.35;stroke-miterlimit:4;stroke-dasharray:none;fill:none;fill-opacity:1;fill-rule: evenodd"/>
<path id="Shape2DView_nwe0021"  d="M 3.56 1.094957458037e-15 L 3.71 1.094957458037e-15 " stroke="#191919" stroke-width="0.35 px" style="stroke-width:0.35;stroke-miterlimit:4;stroke-dasharray:none;fill:none;fill-opacity:1;fill-rule: evenodd"/>
<path id="Shape2DView_nwe0022"  d="M 3.87 6.994405055138e-16 L 3.852085683823471 6.991054247449746e-16 L 3.83439665056699 6.981043962735843e-16 L 3.8171553500871735 6.964500086134675e-16 L 3.800578601741191 6.941630666493482e-16 L 3.784874867757546 6.912723300033395e-16 L 3.7702416317026026 6.878141513660098e-16 L 3.7568629150101525 6.838320193402054e-16 L 3.7449069628051155 6.793760115466374e-16 L 3.7345241281234745 6.745021648687461e-16 L 3.725844981135613 6.692717707563776e-16 L 3.7189786671506613 6.637506044502403e-16 L 3.7140115340509086 6.5800809782008925e-16 L 3.711006046417081 6.521164662186785e-16 L 3.71 6.461498003318e-16 " stroke="#191919" stroke-width="0.35 px" style="stroke-width:0.35;stroke-miterlimit:4;stroke-dasharray:none;fill:none;fill-opacity:1;fill-rule: evenodd"/>
<path id="Shape2DView_nwe0023"  d="M 3.87 6.994405055138e-16 L 4.016 6.994405055138e-16 " stroke="#191919" stroke-width="0.35 px" style="stroke-width:0.35;stroke-miterlimit:4;stroke-dasharray:none;fill:none;fill-opacity:1;fill-rule: evenodd"/>
<path id="Shape2DView_nwe0024"  d="M 4.516 1.402211680102e-15 L 4.016 1.402211680102e-15 " stroke="#191919" stroke-width="0.35 px" style="stroke-width:0.35;stroke-miterlimit:4;stroke-dasharray:none;fill:none;fill-opacity:1;fill-rule: evenodd"/>
<path id="Shape2DView_nwe0025"  d="M 4.516 6.994405055138e-16 L 6.29 6.994405055138e-16 " stroke="#191919" stroke-width="0.35 px" style="stroke-width:0.35;stroke-miterlimit:4;stroke-dasharray:none;fill:none;fill-opacity:1;fill-rule: evenodd"/>
<path id="Shape2DView_nwe0026"  d="M 6.45 6.461498003318e-16 L 6.448993953582919 6.521164662186785e-16 L 6.445988465949092 6.5800809782008925e-16 L 6.441021332849338 6.637506044502403e-16 L 6.434155018864387 6.692717707563776e-16 L 6.425475871876525 6.745021648687461e-16 L 6.415093037194885 6.793760115466374e-16 L 6.403137084989847 6.838320193402053e-16 L 6.3897583682973975 6.878141513660098e-16 L 6.375125132242454 6.912723300033395e-16 L 6.359421398258809 6.941630666493482e-16 L 6.342844649912827 6.964500086134675e-16 L 6.325603349433011 6.981043962735843e-16 L 6.30791431617653 6.991054247449746e-16 L 6.29 6.994405055138e-16 " stroke="#191919" stroke-width="0.35 px" style="stroke-width:0.35;stroke-miterlimit:4;stroke-dasharray:none;fill:none;fill-opacity:1;fill-rule: evenodd"/>
<path id="Shape2DView_nwe0027"  d="M 6.45 1.094957458037e-15 L 6.6 1.094957458037e-15 " stroke="#191919" stroke-width="0.35 px" style="stroke-width:0.35;stroke-miterlimit:4;stroke-dasharray:none;fill:none;fill-opacity:1;fill-rule: evenodd"/>
<path id="Shape2DView_nwe0028"  d="M 0.55 -0.2749999999999993 Q 0.04889661177975374 -0.27499999999999936 8.770761894538737e-15 -0.2749999999999994 " stroke="#191919" stroke-width="0.35 px" style="stroke-width:0.35;stroke-miterlimit:4;stroke-dasharray:none;fill:none;fill-opacity:1;fill-rule: evenodd"/>
<path id="Shape2DView_nwe0029"  d="M 0.55 0.27500000000000074 Q 0.05350308871127357 0.2750000000000007 -9.43689570931383e-15 0.27500000000000063 " stroke="#191919" stroke-width="0.35 px" style="stroke-width:0.35;stroke-miterlimit:4;stroke-dasharray:none;fill:none;fill-opacity:1;fill-rule: evenodd"/>
<path id="Shape2DView_nwe0030"  d="M 0.55 -0.2749999999999993 L 3.5599999999999996 -0.2749999999999993 " stroke="#191919" stroke-width="0.35 px" style="stroke-width:0.35;stroke-miterlimit:4;stroke-dasharray:none;fill:none;fill-opacity:1;fill-rule: evenodd"/>
<path id="Shape2DView_nwe0031"  d="M 0.55 0.27500000000000074 L 3.5599999999999996 0.27500000000000074 " stroke="#191919" stroke-width="0.35 px" style="stroke-width:0.35;stroke-miterlimit:4;stroke-dasharray:none;fill:none;fill-opacity:1;fill-rule: evenodd"/>
<path id="Shape2DView_nwe0032"  d="M 3.56 -0.34374999999999944 L 3.71 -0.34374999999999944 " stroke="#191919" stroke-width="0.35 px" style="stroke-width:0.35;stroke-miterlimit:4;stroke-dasharray:none;fill:none;fill-opacity:1;fill-rule: evenodd"/>
<path id="Shape2DView_nwe0033"  d="M 3.56 0.34375000000000056 L 3.71 0.34375000000000056 " stroke="#191919" stroke-width="0.35 px" style="stroke-width:0.35;stroke-miterlimit:4;stroke-dasharray:none;fill:none;fill-opacity:1;fill-rule: evenodd"/>
<path id="Shape2DView_nwe0034"  d="M 3.87 -0.7999999999999996 Q 3.725564524349173 -0.7871081776505698 3.71 -0.6399999999999995 " stroke="#191919" stroke-width="0.35 px" style="stroke-width:0.35;stroke-miterlimit:4;stroke-dasharray:none;fill:none;fill-opacity:1;fill-rule: evenodd"/>
<path id="Shape2DView_nwe0035"  d="M 3.87 0.8000000000000005 Q 3.725564524349173 0.7871081776505707 3.71 0.6400000000000003 " stroke="#191919" stroke-width="0.35 px" style="stroke-width:0.35;stroke-miterlimit:4;stroke-dasharray:none;fill:none;fill-opacity:1;fill-rule: evenodd"/>
<path id="Shape2DView_nwe0036"  d="M 3.87 -0.7999999999999996 L 4.016 -0.7999999999999996 " stroke="#191919" stroke-width="0.35 px" style="stroke-width:0.35;stroke-miterlimit:4;stroke-dasharray:none;fill:none;fill-opacity:1;fill-rule: evenodd"/>
<path id="Shape2DView_nwe0037"  d="M 3.87 0.8000000000000005 L 4.016 0.8000000000000005 " stroke="#191919" stroke-width="0.35 px" style="stroke-width:0.35;stroke-miterlimit:4;stroke-dasharray:none;fill:none;fill-opacity:1;fill-rule: evenodd"/>
<path id="Shape2DView_nwe0038"  d="M 4.516 0.8050000000000006 L 4.016 0.8050000000000006 " stroke="#191919" stroke-width="0.35 px" style="stroke-width:0.35;stroke-miterlimit:4;stroke-dasharray:none;fill:none;fill-opacity:1;fill-rule: evenodd"/>
<path id="Shape2DView_nwe0039"  d="M 4.516 -0.8049999999999995 L 4.016 -0.8049999999999995 " stroke="#191919" stroke-width="0.35 px" style="stroke-width:0.35;stroke-miterlimit:4;stroke-dasharray:none;fill:none;fill-opacity:1;fill-rule: evenodd"/>
<path id="Shape2DView_nwe0040"  d="M 4.516 -0.7999999999999996 L 6.29 -0.7999999999999996 " stroke="#191919" stroke-width="0.35 px" style="stroke-width:0.35;stroke-miterlimit:4;stroke-dasharray:none;fill:none;fill-opacity:1;fill-rule: evenodd"/>
<path id="Shape2DView_nwe0041"  d="M 4.516 0.8000000000000005 L 6.29 0.8000000000000005 " stroke="#191919" stroke-width="0.35 px" style="stroke-width:0.35;stroke-miterlimit:4;stroke-dasharray:none;fill:none;fill-opacity:1;fill-rule: evenodd"/>
<path id="Shape2DView_nwe0042"  d="M 6.29 -0.7999999999999996 Q 6.434435475650828 -0.7871081776505698 6.45 -0.6399999999999995 " stroke="#191919" stroke-width="0.35 px" style="stroke-width:0.35;stroke-miterlimit:4;stroke-dasharray:none;fill:none;fill-opacity:1;fill-rule: evenodd"/>
<path id="Shape2DView_nwe0043"  d="M 6.29 0.8000000000000005 Q 6.4344354756508295 0.7871081776505707 6.45 0.6400000000000003 " stroke="#191919" stroke-width="0.35 px" style="stroke-width:0.35;stroke-miterlimit:4;stroke-dasharray:none;fill:none;fill-opacity:1;fill-rule: evenodd"/>
<path id="Shape2DView_nwe0044"  d="M 6.45 -0.34374999999999944 L 6.6 -0.34374999999999944 " stroke="#191919" stroke-width="0.35 px" style="stroke-width:0.35;stroke-miterlimit:4;stroke-dasharray:none;fill:none;fill-opacity:1;fill-rule: evenodd"/>
<path id="Shape2DView_nwe0045"  d="M 6.45 0.34375000000000056 L 6.6 0.34375000000000056 " stroke="#191919" stroke-width="0.35 px" style="stroke-width:0.35;stroke-miterlimit:4;stroke-dasharray:none;fill:none;fill-opacity:1;fill-rule: evenodd"/>
<path id="Shape2DView_nwe0046"  d="M 6.6 -0.2749999999999993 L 9.61 -0.2749999999999993 " stroke="#191919" stroke-width="0.35 px" style="stroke-width:0.35;stroke-miterlimit:4;stroke-dasharray:none;fill:none;fill-opacity:1;fill-rule: evenodd"/>
<path id="Shape2DView_nwe0047"  d="M 6.6 0.27500000000000074 L 9.61 0.27500000000000074 " stroke="#191919" stroke-width="0.35 px" style="stroke-width:0.35;stroke-miterlimit:4;stroke-dasharray:none;fill:none;fill-opacity:1;fill-rule: evenodd"/>
<path id="Shape2DView_nwe0048"  d="M 9.61 0.27500000000000074 L 9.717299711542351 0.27500000000000074 L 9.963900725603592 0.27500000000000074 L 10.160000000000009 0.27500000000000063 " stroke="#191919" stroke-width="0.35 px" style="stroke-width:0.35;stroke-miterlimit:4;stroke-dasharray:none;fill:none;fill-opacity:1;fill-rule: evenodd"/>
<path id="Shape2DView_nwe0049"  d="M 9.61 -0.2749999999999993 Q 10.111101381349894 -0.27499999999999936 10.15999999999999 -0.2749999999999994 " stroke="#191919" stroke-width="0.35 px" style="stroke-width:0.35;stroke-miterlimit:4;stroke-dasharray:none;fill:none;fill-opacity:1;fill-rule: evenodd"/>
<title>b'Shape2DView'</title>
</g>
<g id="Rectangle" transform="translate(0.380055,1.107060) scale(1,-1)">
<rect fill="#ff0000" id="origin" width="1" height="1" x="0" y="0" />
<title>b'Rectangle'</title>
</g>
</svg>