<?xml version="1.0"?>
<!DOCTYPE svg PUBLIC "-//W3C//DTD SVG 1.1//EN" "http://www.w3.org/Graphics/SVG/1.1/DTD/svg11.dtd">
<svg width="6.458057979117575mm" height="2.142064831571295mm" viewBox="0 0 6.458057979117575 2.142064831571295" xmlns="http://www.w3.org/2000/svg" version="1.1">
<g id="Shape2DView" transform="translate(1.066566,1.071032) scale(1,-1)">
<path id="Shape2DView_nwe0000"  d="M 0.9785703858180057 -0.24999999999999814 A 1.01 1.01 0 1 0 0.97857 0.25" stroke="#191919" stroke-width="0.35 px" style="stroke-width:0.35;stroke-miterlimit:4;stroke-dasharray:none;fill:none;fill-opacity:1;fill-rule: evenodd"/>
<path id="Shape2DView_nwe0001"  d="M 0.9682458365518541 -0.24999999999999814 A 1 1 0 1 0 0.968246 0.25" stroke="#191919" stroke-width="0.35 px" style="stroke-width:0.35;stroke-miterlimit:4;stroke-dasharray:none;fill:none;fill-opacity:1;fill-rule: evenodd"/>
<circle cx="0.0" cy="9.992007221626e-16" r="0.25" stroke="#191919" stroke-width="0.35 px" style="stroke-width:0.35;stroke-miterlimit:4;stroke-dasharray:none;fill:none"/>
<path id="Shape2DView_nwe0003"  d="M -8.533409204624363e-15 0.2500000000000011 A 0.25 0.25 0 0 1 7.94768e-15 -0.25" stroke="#191919" stroke-width="0.35 px" style="stroke-width:0.35;stroke-miterlimit:4;stroke-dasharray:none;fill:none;fill-opacity:1;fill-rule: evenodd"/>
<path id="Shape2DView_nwe0004"  d="M 5.079999999999992 -0.2499999999999989 A 0.25 0.25 0 0 1 5.08 0.25" stroke="#191919" stroke-width="0.35 px" style="stroke-width:0.35;stroke-miterlimit:4;stroke-dasharray:none;fill:none;fill-opacity:1;fill-rule: evenodd"/>
<path id="Shape2DView_nwe0006"  d="M 0.7599342076785329 -0.24999999999999883 A 0.8 0.8 0 1 0 0.759934 0.25" stroke="#191919" stroke-width="0.35 px" style="stroke-width:0.35;stroke-miterlimit:4;stroke-dasharray:none;fill:none;fill-opacity:1;fill-rule: evenodd"/>
<path id="Shape2DView_nwe0008"  d="M 0.5 -0.24999999999999878 L 0.5 -0.24373197804545468 L 0.5 -0.22524221697560357 L 0.49999999999999994 -0.19545787061700623 L 0.49999999999999994 -0.15587245046468215 L 0.49999999999999994 -0.10847093477938831 L 0.49999999999999994 -0.055630233489077384 L 0.49999999999999994 1.2155241383618823e-15 L 0.49999999999999994 0.05563023348907982 L 0.49999999999999994 0.10847093477939075 L 0.49999999999999994 0.15587245046468462 L 0.49999999999999994 0.19545787061700864 L 0.5 0.225242216975606 L 0.5 0.2437319780454571 L 0.5 0.2500000000000012 " stroke="#191919" stroke-width="0.35 px" style="stroke-width:0.35;stroke-miterlimit:4;stroke-dasharray:none;fill:none;fill-opacity:1;fill-rule: evenodd"/>
<path id="Shape2DView_nwe0009"  d="M 4.58 0.2500000000000012 L 4.58 0.24373197804545713 L 4.58 0.22524221697560604 L 4.58 0.19545787061700873 L 4.58 0.15587245046468468 L 4.58 0.10847093477939083 L 4.58 0.0556302334890799 L 4.58 1.3073726482979337e-15 L 4.58 -0.055630233489077294 L 4.58 -0.10847093477938823 L 4.58 -0.15587245046468207 L 4.58 -0.19545787061700617 L 4.58 -0.2252422169756035 L 4.58 -0.24373197804545468 L 4.58 -0.24999999999999878 " stroke="#191919" stroke-width="0.35 px" style="stroke-width:0.35;stroke-miterlimit:4;stroke-dasharray:none;fill:none;fill-opacity:1;fill-rule: evenodd"/>
<path id="Shape2DView_nwe0010"  d="M 0.5 -0.24999999999999878 Q 0.04445145303959186 -0.24999999999999878 7.993605777301127e-15 -0.2499999999999989 " stroke="#191919" stroke-width="0.35 px" style="stroke-width:0.35;stroke-miterlimit:4;stroke-dasharray:none;fill:none;fill-opacity:1;fill-rule: evenodd"/>
<path id="Shape2DView_nwe0011"  d="M 0.5 0.2500000000000012 Q 0.04863916642778204 0.2500000000000013 -8.548717289613705e-15 0.2500000000000011 " stroke="#191919" stroke-width="0.35 px" style="stroke-width:0.35;stroke-miterlimit:4;stroke-dasharray:none;fill:none;fill-opacity:1;fill-rule: evenodd"/>
<path id="Shape2DView_nwe0012"  d="M 0.5 -0.24999999999999878 L 4.58 -0.24999999999999878 " stroke="#191919" stroke-width="0.35 px" style="stroke-width:0.35;stroke-miterlimit:4;stroke-dasharray:none;fill:none;fill-opacity:1;fill-rule: evenodd"/>
<path id="Shape2DView_nwe0013"  d="M 0.5 0.2500000000000012 L 4.58 0.2500000000000012 " stroke="#191919" stroke-width="0.35 px" style="stroke-width:0.35;stroke-miterlimit:4;stroke-dasharray:none;fill:none;fill-opacity:1;fill-rule: evenodd"/>
<path id="Shape2DView_nwe0014"  d="M 4.58 0.2500000000000012 Q 5.0313608335722195 0.2500000000000013 5.080000000000009 0.2500000000000011 " stroke="#191919" stroke-width="0.35 px" style="stroke-width:0.35;stroke-miterlimit:4;stroke-dasharray:none;fill:none;fill-opacity:1;fill-rule: evenodd"/>
<path id="Shape2DView_nwe0015"  d="M 4.579999999999999 -0.24999999999999872 Q 5.035545588040142 -0.24999999999999878 5.079999999999992 -0.2499999999999989 " stroke="#191919" stroke-width="0.35 px" style="stroke-width:0.35;stroke-miterlimit:4;stroke-dasharray:none;fill:none;fill-opacity:1;fill-rule: evenodd"/>
<title>b'Shape2DView'</title>
</g>
<g id="Rectangle" transform="translate(1.066566,1.071032) scale(1,-1)">
<rect fill="#ff0000" id="origin" width="1" height="1" x="0" y="0" />
<title>b'Rectangle'</title>
</g>
</svg>