<?xml version="1.0"?>
<!DOCTYPE svg PUBLIC "-//W3C//DTD SVG 1.1//EN" "http://www.w3.org/Graphics/SVG/1.1/DTD/svg11.dtd">
<svg width="8.354691338398412mm" height="5.509649599286376mm" viewBox="0 0 8.354691338398412 5.509649599286376" xmlns="http://www.w3.org/2000/svg" version="1.1">
<g id="Shape2DView" transform="translate(2.746064,2.754825) scale(1,-1)">
<path id="Shape2DView_nwe0000"  d="M 2.636877888716123 -0.4499999999999968 A 2.675 2.675 0 1 0 2.63688 0.45" stroke="#191919" stroke-width="0.35 px" style="stroke-width:0.35;stroke-miterlimit:4;stroke-dasharray:none;fill:none;fill-opacity:1;fill-rule: evenodd"/>
<path id="Shape2DView_nwe0001"  d="M 2.6267327614357727 -0.4499999999999975 A 2.665 2.665 0 1 0 2.62673 0.45" stroke="#191919" stroke-width="0.35 px" style="stroke-width:0.35;stroke-miterlimit:4;stroke-dasharray:none;fill:none;fill-opacity:1;fill-rule: evenodd"/>
<circle cx="0.0" cy="2.224886941349e-15" r="0.45" stroke="#191919" stroke-width="0.35 px" style="stroke-width:0.35;stroke-miterlimit:4;stroke-dasharray:none;fill:none"/>
<path id="Shape2DView_nwe0003"  d="M -1.5360136568323856e-14 0.45000000000000234 A 0.45 0.45 0 0 1 1.43058e-14 -0.45" stroke="#191919" stroke-width="0.35 px" style="stroke-width:0.35;stroke-miterlimit:4;stroke-dasharray:none;fill:none;fill-opacity:1;fill-rule: evenodd"/>
<path id="Shape2DView_nwe0004"  d="M 5.079999999999986 -0.4499999999999977 A 0.45 0.45 0 0 1 5.08 0.45" stroke="#191919" stroke-width="0.35 px" style="stroke-width:0.35;stroke-miterlimit:4;stroke-dasharray:none;fill:none;fill-opacity:1;fill-rule: evenodd"/>
<path id="Shape2DView_nwe0006"  d="M 0.9 -0.44999999999999746 L 0.9 -0.4387175604818181 L 0.9 -0.4054359905560861 L 0.9 -0.3518241671106109 L 0.8999999999999999 -0.2805704108364276 L 0.8999999999999999 -0.19524768260289865 L 0.8999999999999999 -0.10013442028033895 L 0.8999999999999999 2.5254512485369882e-15 L 0.8999999999999999 0.10013442028034401 L 0.8999999999999999 0.19524768260290368 L 0.8999999999999999 0.28057041083643264 L 0.9 0.3518241671106159 L 0.9 0.4054359905560912 L 0.9 0.43871756048182314 L 0.9 0.45000000000000256 " stroke="#191919" stroke-width="0.35 px" style="stroke-width:0.35;stroke-miterlimit:4;stroke-dasharray:none;fill:none;fill-opacity:1;fill-rule: evenodd"/>
<path id="Shape2DView_nwe0007"  d="M 4.18 0.45000000000000256 L 4.18 0.4387175604818232 L 4.18 0.40543599055609125 L 4.18 0.3518241671106161 L 4.18 0.28057041083643275 L 4.18 0.19524768260290382 L 4.18 0.10013442028034417 L 4.18 2.690778566421881e-15 L 4.18 -0.1001344202803388 L 4.18 -0.1952476826028985 L 4.18 -0.2805704108364274 L 4.18 -0.35182416711061076 L 4.18 -0.405435990556086 L 4.18 -0.4387175604818181 L 4.18 -0.44999999999999746 " stroke="#191919" stroke-width="0.35 px" style="stroke-width:0.35;stroke-miterlimit:4;stroke-dasharray:none;fill:none;fill-opacity:1;fill-rule: evenodd"/>
<path id="Shape2DView_nwe0008"  d="M 0.9 -0.44999999999999746 Q 0.08001278432892567 -0.4499999999999974 1.432187701766452e-14 -0.4499999999999977 " stroke="#191919" stroke-width="0.35 px" style="stroke-width:0.35;stroke-miterlimit:4;stroke-dasharray:none;fill:none;fill-opacity:1;fill-rule: evenodd"/>
<path id="Shape2DView_nwe0009"  d="M 0.9 0.45000000000000256 Q 0.08755057041825659 0.4500000000000025 -1.5432100042289676e-14 0.45000000000000234 " stroke="#191919" stroke-width="0.35 px" style="stroke-width:0.35;stroke-miterlimit:4;stroke-dasharray:none;fill:none;fill-opacity:1;fill-rule: evenodd"/>
<path id="Shape2DView_nwe0010"  d="M 0.9000000000000001 -0.44999999999999746 L 4.18 -0.44999999999999746 " stroke="#191919" stroke-width="0.35 px" style="stroke-width:0.35;stroke-miterlimit:4;stroke-dasharray:none;fill:none;fill-opacity:1;fill-rule: evenodd"/>
<path id="Shape2DView_nwe0011"  d="M 0.9000000000000001 0.45000000000000256 L 4.18 0.45000000000000256 " stroke="#191919" stroke-width="0.35 px" style="stroke-width:0.35;stroke-miterlimit:4;stroke-dasharray:none;fill:none;fill-opacity:1;fill-rule: evenodd"/>
<path id="Shape2DView_nwe0012"  d="M 4.18 0.45000000000000256 Q 4.992449429581747 0.4500000000000025 5.080000000000016 0.45000000000000234 " stroke="#191919" stroke-width="0.35 px" style="stroke-width:0.35;stroke-miterlimit:4;stroke-dasharray:none;fill:none;fill-opacity:1;fill-rule: evenodd"/>
<path id="Shape2DView_nwe0013"  d="M 4.18 -0.44999999999999746 Q 4.999987215670537 -0.4499999999999974 5.079999999999986 -0.4499999999999977 " stroke="#191919" stroke-width="0.35 px" style="stroke-width:0.35;stroke-miterlimit:4;stroke-dasharray:none;fill:none;fill-opacity:1;fill-rule: evenodd"/>
<title>b'Shape2DView'</title>
</g>
<g id="Rectangle" transform="translate(2.746064,2.754825) scale(1,-1)">
<rect fill="#ff0000" id="origin" width="1" height="1" x="0" y="0" />
<title>b'Rectangle'</title>
</g>
</svg>