<?xml version="1.0"?>
<!DOCTYPE svg PUBLIC "-//W3C//DTD SVG 1.1//EN" "http://www.w3.org/Graphics/SVG/1.1/DTD/svg11.dtd">
<svg width="13.966563051580017mm" height="5.503854177481961mm" viewBox="0 0 13.966563051580017 5.503854177481961" xmlns="http://www.w3.org/2000/svg" version="1.1">
<g id="Shape2DView" transform="translate(0.633282,2.751927) scale(1,-1)">
<path id="Shape2DView_nwe0000"  d="M 3.0145 3.810285420512986e-15 L 3.0145 -0.29278710501014643 L 3.0145 -0.5818922422957589 L 3.0145 -0.8636797470127588 L 3.0145 -1.1346059777924116 L 3.0145 -1.3912638800876025 L 3.0145 -1.6304258318605858 L 3.0145 -1.8490842328028199 L 3.0145 -2.044489326653897 L 3.0145 -2.2141837809819616 L 3.0145 -2.3560335895648246 L 3.0145 -2.46825490875638 L 3.0145 -2.5494364903554674 L 3.0145 -2.5985574288708277 L 3.0145 -2.614999999999999 " stroke="#191919" stroke-width="0.35 px" style="stroke-width:0.35;stroke-miterlimit:4;stroke-dasharray:none;fill:none;fill-opacity:1;fill-rule: evenodd"/>
<path id="Shape2DView_nwe0001"  d="M 3.0145 2.6150000000000015 L 3.0145 2.5985574288708313 L 3.0145 2.54943649035547 L 3.0145 2.468254908756383 L 3.0145 2.3560335895648277 L 3.0145 2.214183780981965 L 3.0145 2.0444893266538995 L 3.0145 1.8490842328028236 L 3.0145 1.6304258318605904 L 3.0145 1.3912638800876072 L 3.0145 1.1346059777924165 L 3.0145 0.8636797470127641 L 3.0145 0.5818922422957643 L 3.0145 0.2927871050101522 L 3.0145 4.450775696467052e-15 " stroke="#191919" stroke-width="0.35 px" style="stroke-width:0.35;stroke-miterlimit:4;stroke-dasharray:none;fill:none;fill-opacity:1;fill-rule: evenodd"/>
<path id="Shape2DView_nwe0002"  d="M 5.397 3.810285420512986e-15 L 5.397 -0.29278710501014643 L 5.397 -0.5818922422957589 L 5.397 -0.8636797470127588 L 5.397 -1.1346059777924116 L 5.397 -1.3912638800876025 L 5.397 -1.6304258318605858 L 5.397 -1.8490842328028199 L 5.397 -2.044489326653897 L 5.397 -2.2141837809819616 L 5.397 -2.3560335895648246 L 5.397 -2.46825490875638 L 5.397 -2.5494364903554674 L 5.397 -2.5985574288708277 L 5.397 -2.614999999999999 " stroke="#191919" stroke-width="0.35 px" style="stroke-width:0.35;stroke-miterlimit:4;stroke-dasharray:none;fill:none;fill-opacity:1;fill-rule: evenodd"/>
<path id="Shape2DView_nwe0003"  d="M 5.397 2.6150000000000015 L 5.397 2.5985574288708313 L 5.397 2.54943649035547 L 5.397 2.468254908756383 L 5.397 2.3560335895648277 L 5.397 2.214183780981965 L 5.397 2.0444893266538995 L 5.397 1.8490842328028236 L 5.397 1.6304258318605904 L 5.397 1.3912638800876072 L 5.397 1.1346059777924165 L 5.397 0.8636797470127641 L 5.397 0.5818922422957643 L 5.397 0.2927871050101522 L 5.397 4.450775696467052e-15 " stroke="#191919" stroke-width="0.35 px" style="stroke-width:0.35;stroke-miterlimit:4;stroke-dasharray:none;fill:none;fill-opacity:1;fill-rule: evenodd"/>
<path id="Shape2DView_nwe0004"  d="M 1.585 3.803624082365388e-15 L 1.585 -0.2916674602491134 L 1.585 -0.5796670329561957 L 1.585 -0.8603769563932071 L 1.585 -1.1302671404012359 L 1.585 -1.385943559322449 L 1.585 -1.6241909338419982 L 1.585 -1.8420131649909541 L 1.585 -2.036671011829216 L 1.585 -2.2057165389896785 L 1.585 -2.3470239008858003 L 1.585 -2.4588160754532957 L 1.585 -2.539687211233649 L 1.585 -2.588620306771895 L 1.585 -2.6049999999999986 " stroke="#191919" stroke-width="0.35 px" style="stroke-width:0.35;stroke-miterlimit:4;stroke-dasharray:none;fill:none;fill-opacity:1;fill-rule: evenodd"/>
<path id="Shape2DView_nwe0005"  d="M 1.585 2.6050000000000013 L 1.585 2.5886203067718982 L 1.585 2.5396872112336517 L 1.585 2.4588160754532993 L 1.585 2.3470239008858034 L 1.585 2.205716538989682 L 1.585 2.036671011829219 L 1.585 1.8420131649909581 L 1.585 1.6241909338420029 L 1.585 1.3859435593224536 L 1.585 1.1302671404012408 L 1.585 0.8603769563932123 L 1.585 0.579667032956201 L 1.585 0.29166746024911905 L 1.585 4.4416650647211585e-15 " stroke="#191919" stroke-width="0.35 px" style="stroke-width:0.35;stroke-miterlimit:4;stroke-dasharray:none;fill:none;fill-opacity:1;fill-rule: evenodd"/>
<path id="Shape2DView_nwe0006"  d="M 11.115 3.803624082365388e-15 L 11.115 -0.2916674602491134 L 11.115 -0.5796670329561957 L 11.115 -0.8603769563932071 L 11.115 -1.1302671404012359 L 11.115 -1.385943559322449 L 11.115 -1.6241909338419982 L 11.115 -1.8420131649909541 L 11.115 -2.036671011829216 L 11.115 -2.2057165389896785 L 11.115 -2.3470239008858003 L 11.115 -2.4588160754532957 L 11.115 -2.539687211233649 L 11.115 -2.588620306771895 L 11.115 -2.6049999999999986 " stroke="#191919" stroke-width="0.35 px" style="stroke-width:0.35;stroke-miterlimit:4;stroke-dasharray:none;fill:none;fill-opacity:1;fill-rule: evenodd"/>
<path id="Shape2DView_nwe0007"  d="M 11.115 2.6050000000000013 L 11.115 2.5886203067718982 L 11.115 2.5396872112336517 L 11.115 2.4588160754532993 L 11.115 2.3470239008858034 L 11.115 2.205716538989682 L 11.115 2.036671011829219 L 11.115 1.8420131649909581 L 11.115 1.6241909338420029 L 11.115 1.3859435593224536 L 11.115 1.1302671404012408 L 11.115 0.8603769563932123 L 11.115 0.579667032956201 L 11.115 0.29166746024911905 L 11.115 4.4416650647211585e-15 " stroke="#191919" stroke-width="0.35 px" style="stroke-width:0.35;stroke-miterlimit:4;stroke-dasharray:none;fill:none;fill-opacity:1;fill-rule: evenodd"/>
<path id="Shape2DView_nwe0008"  d="M -1.7066818409248727e-14 0.5000000000000009 A 0.5 0.5 0 0 1 1.58954e-14 -0.5" stroke="#191919" stroke-width="0.35 px" style="stroke-width:0.35;stroke-miterlimit:4;stroke-dasharray:none;fill:none;fill-opacity:1;fill-rule: evenodd"/>
<path id="Shape2DView_nwe0009"  d="M 12.699999999999983 -0.4999999999999991 A 0.5 0.5 0 0 1 12.7 0.5" stroke="#191919" stroke-width="0.35 px" style="stroke-width:0.35;stroke-miterlimit:4;stroke-dasharray:none;fill:none;fill-opacity:1;fill-rule: evenodd"/>
<path id="Shape2DView_nwe0010"  d="M 1.0 -0.4999999999999989 L 1.0 -0.4874639560909107 L 1.0 -0.45048443395120846 L 0.9999999999999999 -0.3909157412340138 L 0.9999999999999999 -0.31174490092936563 L 0.9999999999999999 -0.21694186955877792 L 0.9999999999999999 -0.11126046697815607 L 0.9999999999999999 1.1220953306897647e-15 L 0.9999999999999999 0.11126046697815833 L 0.9999999999999999 0.2169418695587802 L 0.9999999999999999 0.3117449009293679 L 0.9999999999999999 0.39091574123401596 L 1.0 0.4504844339512107 L 1.0 0.48746395609091286 L 1.0 0.5000000000000011 " stroke="#191919" stroke-width="0.35 px" style="stroke-width:0.35;stroke-miterlimit:4;stroke-dasharray:none;fill:none;fill-opacity:1;fill-rule: evenodd"/>
<path id="Shape2DView_nwe0011"  d="M 11.7 0.5000000000000011 L 11.7 0.4874639560909129 L 11.7 0.45048443395121074 L 11.7 0.3909157412340161 L 11.7 0.311744900929368 L 11.7 0.21694186955878036 L 11.7 0.1112604669781585 L 11.7 1.3057923505618676e-15 L 11.7 -0.11126046697815589 L 11.7 -0.21694186955877776 L 11.7 -0.31174490092936546 L 11.7 -0.3909157412340137 L 11.7 -0.45048443395120835 L 11.7 -0.4874639560909107 L 11.7 -0.4999999999999989 " stroke="#191919" stroke-width="0.35 px" style="stroke-width:0.35;stroke-miterlimit:4;stroke-dasharray:none;fill:none;fill-opacity:1;fill-rule: evenodd"/>
<path id="Shape2DView_nwe0012"  d="M 3.0145 3.810285420514e-15 L 5.397 3.810285420514e-15 " stroke="#191919" stroke-width="0.35 px" style="stroke-width:0.35;stroke-miterlimit:4;stroke-dasharray:none;fill:none;fill-opacity:1;fill-rule: evenodd"/>
<path id="Shape2DView_nwe0013"  d="M 1.585 3.803624082366e-15 L 3.0145 3.803624082366e-15 " stroke="#191919" stroke-width="0.35 px" style="stroke-width:0.35;stroke-miterlimit:4;stroke-dasharray:none;fill:none;fill-opacity:1;fill-rule: evenodd"/>
<path id="Shape2DView_nwe0014"  d="M 5.397 3.803624082366e-15 L 11.115000000000002 3.803624082366e-15 " stroke="#191919" stroke-width="0.35 px" style="stroke-width:0.35;stroke-miterlimit:4;stroke-dasharray:none;fill:none;fill-opacity:1;fill-rule: evenodd"/>
<path id="Shape2DView_nwe0015"  d="M 3.0145 -2.614999999999999 L 5.397 -2.614999999999999 " stroke="#191919" stroke-width="0.35 px" style="stroke-width:0.35;stroke-miterlimit:4;stroke-dasharray:none;fill:none;fill-opacity:1;fill-rule: evenodd"/>
<path id="Shape2DView_nwe0016"  d="M 3.0145 2.6150000000000015 L 5.397 2.6150000000000015 " stroke="#191919" stroke-width="0.35 px" style="stroke-width:0.35;stroke-miterlimit:4;stroke-dasharray:none;fill:none;fill-opacity:1;fill-rule: evenodd"/>
<path id="Shape2DView_nwe0017"  d="M 1.585 -2.6049999999999986 L 3.0145 -2.6049999999999986 " stroke="#191919" stroke-width="0.35 px" style="stroke-width:0.35;stroke-miterlimit:4;stroke-dasharray:none;fill:none;fill-opacity:1;fill-rule: evenodd"/>
<path id="Shape2DView_nwe0018"  d="M 1.585 2.6050000000000013 L 3.0145 2.6050000000000013 " stroke="#191919" stroke-width="0.35 px" style="stroke-width:0.35;stroke-miterlimit:4;stroke-dasharray:none;fill:none;fill-opacity:1;fill-rule: evenodd"/>
<path id="Shape2DView_nwe0019"  d="M 5.397 -2.6049999999999986 L 11.115000000000002 -2.6049999999999986 " stroke="#191919" stroke-width="0.35 px" style="stroke-width:0.35;stroke-miterlimit:4;stroke-dasharray:none;fill:none;fill-opacity:1;fill-rule: evenodd"/>
<path id="Shape2DView_nwe0020"  d="M 5.397 2.6050000000000013 L 11.115000000000002 2.6050000000000013 " stroke="#191919" stroke-width="0.35 px" style="stroke-width:0.35;stroke-miterlimit:4;stroke-dasharray:none;fill:none;fill-opacity:1;fill-rule: evenodd"/>
<path id="Shape2DView_nwe0021"  d="M 1.0 -0.4999999999999989 L 1.585 -0.4999999999999989 " stroke="#191919" stroke-width="0.35 px" style="stroke-width:0.35;stroke-miterlimit:4;stroke-dasharray:none;fill:none;fill-opacity:1;fill-rule: evenodd"/>
<path id="Shape2DView_nwe0022"  d="M 1.0 0.5000000000000011 L 1.585 0.5000000000000011 " stroke="#191919" stroke-width="0.35 px" style="stroke-width:0.35;stroke-miterlimit:4;stroke-dasharray:none;fill:none;fill-opacity:1;fill-rule: evenodd"/>
<path id="Shape2DView_nwe0023"  d="M 11.115 -0.4999999999999989 L 11.7 -0.4999999999999989 " stroke="#191919" stroke-width="0.35 px" style="stroke-width:0.35;stroke-miterlimit:4;stroke-dasharray:none;fill:none;fill-opacity:1;fill-rule: evenodd"/>
<path id="Shape2DView_nwe0024"  d="M 11.115 0.5000000000000011 L 11.7 0.5000000000000011 " stroke="#191919" stroke-width="0.35 px" style="stroke-width:0.35;stroke-miterlimit:4;stroke-dasharray:none;fill:none;fill-opacity:1;fill-rule: evenodd"/>
<path id="Shape2DView_nwe0025"  d="M 1.0 -0.4999999999999989 Q 0.0889031334942415 -0.4999999999999989 1.5987211554602254e-14 -0.4999999999999991 " stroke="#191919" stroke-width="0.35 px" style="stroke-width:0.35;stroke-miterlimit:4;stroke-dasharray:none;fill:none;fill-opacity:1;fill-rule: evenodd"/>
<path id="Shape2DView_nwe0026"  d="M 1.0 0.5000000000000011 Q 0.09727842826808164 0.5000000000000012 -1.709743457922741e-14 0.5000000000000009 " stroke="#191919" stroke-width="0.35 px" style="stroke-width:0.35;stroke-miterlimit:4;stroke-dasharray:none;fill:none;fill-opacity:1;fill-rule: evenodd"/>
<path id="Shape2DView_nwe0027"  d="M 11.7 0.5000000000000011 Q 12.60272157173192 0.5000000000000012 12.700000000000017 0.5000000000000009 " stroke="#191919" stroke-width="0.35 px" style="stroke-width:0.35;stroke-miterlimit:4;stroke-dasharray:none;fill:none;fill-opacity:1;fill-rule: evenodd"/>
<path id="Shape2DView_nwe0028"  d="M 11.7 -0.4999999999999989 Q 12.611096866505411 -0.4999999999999989 12.699999999999985 -0.4999999999999991 " stroke="#191919" stroke-width="0.35 px" style="stroke-width:0.35;stroke-miterlimit:4;stroke-dasharray:none;fill:none;fill-opacity:1;fill-rule: evenodd"/>
<title>b'Shape2DView'</title>
</g>
<g id="Rectangle" transform="translate(0.633282,2.751927) scale(1,-1)">
<rect fill="#ff0000" id="origin" width="1" height="1" x="0" y="0" />
<title>b'Rectangle'</title>
</g>
</svg>