<?xml version="1.0"?>
<!DOCTYPE svg PUBLIC "-//W3C//DTD SVG 1.1//EN" "http://www.w3.org/Graphics/SVG/1.1/DTD/svg11.dtd">
<svg width="14.270331967054023mm" height="5.49981043072655mm" viewBox="0 0 14.270331967054023 5.49981043072655" xmlns="http://www.w3.org/2000/svg" version="1.1">
<g id="Shape2DView" transform="translate(0.785166,2.749905) scale(1,-1)">
<path id="Shape2DView_nwe0000"  d="M 3.025 3.803624082365684e-15 L 3.025 -0.2922272826296299 L 3.025 -0.5807796376259773 L 3.025 -0.8620283517029829 L 3.025 -1.1324365590968237 L 3.025 -1.3886037197050256 L 3.025 -1.6273083828512918 L 3.025 -1.8455486988968868 L 3.025 -2.040580169241556 L 3.025 -2.20995015998582 L 3.025 -2.351528745225312 L 3.025 -2.4635354921048376 L 3.025 -2.544561850794558 L 3.025 -2.5935888678213614 L 3.025 -2.6099999999999985 " stroke="#191919" stroke-width="0.35 px" style="stroke-width:0.35;stroke-miterlimit:4;stroke-dasharray:none;fill:none;fill-opacity:1;fill-rule: evenodd"/>
<path id="Shape2DView_nwe0001"  d="M 3.025 2.610000000000001 L 3.025 2.5935888678213646 L 3.025 2.544561850794561 L 3.025 2.4635354921048407 L 3.025 2.3515287452253153 L 3.025 2.2099501599858233 L 3.025 2.0405801692415593 L 3.025 1.8455486988968908 L 3.025 1.6273083828512964 L 3.025 1.3886037197050303 L 3.025 1.1324365590968286 L 3.025 0.8620283517029882 L 3.025 0.5807796376259826 L 3.025 0.2922272826296356 L 3.025 4.442889711520603e-15 " stroke="#191919" stroke-width="0.35 px" style="stroke-width:0.35;stroke-miterlimit:4;stroke-dasharray:none;fill:none;fill-opacity:1;fill-rule: evenodd"/>
<path id="Shape2DView_nwe0002"  d="M 5.4 3.803624082365684e-15 L 5.4 -0.2922272826296299 L 5.4 -0.5807796376259773 L 5.4 -0.8620283517029829 L 5.4 -1.1324365590968237 L 5.4 -1.3886037197050256 L 5.4 -1.6273083828512918 L 5.4 -1.8455486988968868 L 5.4 -2.040580169241556 L 5.4 -2.20995015998582 L 5.4 -2.351528745225312 L 5.4 -2.4635354921048376 L 5.4 -2.544561850794558 L 5.4 -2.5935888678213614 L 5.4 -2.6099999999999985 " stroke="#191919" stroke-width="0.35 px" style="stroke-width:0.35;stroke-miterlimit:4;stroke-dasharray:none;fill:none;fill-opacity:1;fill-rule: evenodd"/>
<path id="Shape2DView_nwe0003"  d="M 5.4 2.610000000000001 L 5.4 2.5935888678213646 L 5.4 2.544561850794561 L 5.4 2.4635354921048407 L 5.4 2.3515287452253153 L 5.4 2.2099501599858233 L 5.4 2.0405801692415593 L 5.4 1.8455486988968908 L 5.4 1.6273083828512964 L 5.4 1.3886037197050303 L 5.4 1.1324365590968286 L 5.4 0.8620283517029882 L 5.4 0.5807796376259826 L 5.4 0.2922272826296356 L 5.4 4.442889711520603e-15 " stroke="#191919" stroke-width="0.35 px" style="stroke-width:0.35;stroke-miterlimit:4;stroke-dasharray:none;fill:none;fill-opacity:1;fill-rule: evenodd"/>
<path id="Shape2DView_nwe0004"  d="M 1.6 3.79696274421776e-15 L 1.6 -0.29110763786859684 L 1.6 -0.5785544282864141 L 1.6 -0.8587255610834312 L 1.6 -1.1280977217056483 L 1.6 -1.3832833989398723 L 1.6 -1.6210734848327046 L 1.6 -1.8384776310850215 L 1.6 -2.032761854416876 L 1.6 -2.201482917993537 L 1.6 -2.3425190565462883 L 1.6 -2.4540966588017543 L 1.6 -2.53481257167274 L 1.6 -2.5836517457224293 L 1.6 -2.5999999999999988 " stroke="#191919" stroke-width="0.35 px" style="stroke-width:0.35;stroke-miterlimit:4;stroke-dasharray:none;fill:none;fill-opacity:1;fill-rule: evenodd"/>
<path id="Shape2DView_nwe0005"  d="M 1.6 2.6000000000000014 L 1.6 2.5836517457224324 L 1.6 2.5348125716727425 L 1.6 2.4540966588017574 L 1.6 2.342519056546291 L 1.6 2.2014829179935407 L 1.6 2.0327618544168793 L 1.6 1.8384776310850255 L 1.6 1.6210734848327093 L 1.6 1.383283398939877 L 1.6 1.1280977217056531 L 1.6 0.8587255610834366 L 1.6 0.5785544282864196 L 1.6 0.29110763786860255 L 1.6 4.433779079774384e-15 " stroke="#191919" stroke-width="0.35 px" style="stroke-width:0.35;stroke-miterlimit:4;stroke-dasharray:none;fill:none;fill-opacity:1;fill-rule: evenodd"/>
<path id="Shape2DView_nwe0006"  d="M 11.1 3.79696274421776e-15 L 11.1 -0.29110763786859684 L 11.1 -0.5785544282864141 L 11.1 -0.8587255610834312 L 11.1 -1.1280977217056483 L 11.1 -1.3832833989398723 L 11.1 -1.6210734848327046 L 11.1 -1.8384776310850215 L 11.1 -2.032761854416876 L 11.1 -2.201482917993537 L 11.1 -2.3425190565462883 L 11.1 -2.4540966588017543 L 11.1 -2.53481257167274 L 11.1 -2.5836517457224293 L 11.1 -2.5999999999999988 " stroke="#191919" stroke-width="0.35 px" style="stroke-width:0.35;stroke-miterlimit:4;stroke-dasharray:none;fill:none;fill-opacity:1;fill-rule: evenodd"/>
<path id="Shape2DView_nwe0007"  d="M 11.1 2.6000000000000014 L 11.1 2.5836517457224324 L 11.1 2.5348125716727425 L 11.1 2.4540966588017574 L 11.1 2.342519056546291 L 11.1 2.2014829179935407 L 11.1 2.0327618544168793 L 11.1 1.8384776310850255 L 11.1 1.6210734848327093 L 11.1 1.383283398939877 L 11.1 1.1280977217056531 L 11.1 0.8587255610834366 L 11.1 0.5785544282864196 L 11.1 0.29110763786860255 L 11.1 4.433779079774384e-15 " stroke="#191919" stroke-width="0.35 px" style="stroke-width:0.35;stroke-miterlimit:4;stroke-dasharray:none;fill:none;fill-opacity:1;fill-rule: evenodd"/>
<path id="Shape2DView_nwe0008"  d="M -2.2186863932023346e-14 0.6500000000000009 A 0.65 0.65 0 0 1 2.0664e-14 -0.65" stroke="#191919" stroke-width="0.35 px" style="stroke-width:0.35;stroke-miterlimit:4;stroke-dasharray:none;fill:none;fill-opacity:1;fill-rule: evenodd"/>
<path id="Shape2DView_nwe0009"  d="M 12.699999999999978 -0.6499999999999991 A 0.65 0.65 0 0 1 12.7 0.65" stroke="#191919" stroke-width="0.35 px" style="stroke-width:0.35;stroke-miterlimit:4;stroke-dasharray:none;fill:none;fill-opacity:1;fill-rule: evenodd"/>
<path id="Shape2DView_nwe0010"  d="M 1.3 -0.6499999999999989 L 1.3 -0.6337031429181843 L 1.3 -0.5856297641365713 L 1.3 -0.5081904636042183 L 1.3 -0.4052683712081757 L 1.3 -0.28202443042641173 L 1.2999999999999998 -0.14463860707160325 L 1.2999999999999998 1.117552394430094e-15 L 1.2999999999999998 0.1446386070716055 L 1.3 0.28202443042641384 L 1.3 0.40526837120817794 L 1.3 0.5081904636042205 L 1.3 0.5856297641365736 L 1.3 0.6337031429181864 L 1.3 0.6500000000000011 " stroke="#191919" stroke-width="0.35 px" style="stroke-width:0.35;stroke-miterlimit:4;stroke-dasharray:none;fill:none;fill-opacity:1;fill-rule: evenodd"/>
<path id="Shape2DView_nwe0011"  d="M 11.4 0.6500000000000011 L 11.4 0.6337031429181865 L 11.4 0.5856297641365736 L 11.4 0.5081904636042207 L 11.4 0.40526837120817805 L 11.4 0.28202443042641406 L 11.4 0.1446386070716057 L 11.4 1.356358520263828e-15 L 11.4 -0.144638607071603 L 11.4 -0.2820244304264115 L 11.4 -0.4052683712081755 L 11.4 -0.508190463604218 L 11.4 -0.5856297641365712 L 11.4 -0.6337031429181843 L 11.4 -0.6499999999999989 " stroke="#191919" stroke-width="0.35 px" style="stroke-width:0.35;stroke-miterlimit:4;stroke-dasharray:none;fill:none;fill-opacity:1;fill-rule: evenodd"/>
<path id="Shape2DView_nwe0012"  d="M 3.025 3.803624082366e-15 L 5.4 3.803624082366e-15 " stroke="#191919" stroke-width="0.35 px" style="stroke-width:0.35;stroke-miterlimit:4;stroke-dasharray:none;fill:none;fill-opacity:1;fill-rule: evenodd"/>
<path id="Shape2DView_nwe0013"  d="M 1.6 3.796962744218e-15 L 3.025 3.796962744218e-15 " stroke="#191919" stroke-width="0.35 px" style="stroke-width:0.35;stroke-miterlimit:4;stroke-dasharray:none;fill:none;fill-opacity:1;fill-rule: evenodd"/>
<path id="Shape2DView_nwe0014"  d="M 5.4 3.796962744218e-15 L 11.1 3.796962744218e-15 " stroke="#191919" stroke-width="0.35 px" style="stroke-width:0.35;stroke-miterlimit:4;stroke-dasharray:none;fill:none;fill-opacity:1;fill-rule: evenodd"/>
<path id="Shape2DView_nwe0015"  d="M 3.025 -2.6099999999999985 L 5.4 -2.6099999999999985 " stroke="#191919" stroke-width="0.35 px" style="stroke-width:0.35;stroke-miterlimit:4;stroke-dasharray:none;fill:none;fill-opacity:1;fill-rule: evenodd"/>
<path id="Shape2DView_nwe0016"  d="M 3.025 2.610000000000001 L 5.4 2.610000000000001 " stroke="#191919" stroke-width="0.35 px" style="stroke-width:0.35;stroke-miterlimit:4;stroke-dasharray:none;fill:none;fill-opacity:1;fill-rule: evenodd"/>
<path id="Shape2DView_nwe0017"  d="M 1.6 -2.5999999999999988 L 3.025 -2.5999999999999988 " stroke="#191919" stroke-width="0.35 px" style="stroke-width:0.35;stroke-miterlimit:4;stroke-dasharray:none;fill:none;fill-opacity:1;fill-rule: evenodd"/>
<path id="Shape2DView_nwe0018"  d="M 1.6 2.6000000000000014 L 3.025 2.6000000000000014 " stroke="#191919" stroke-width="0.35 px" style="stroke-width:0.35;stroke-miterlimit:4;stroke-dasharray:none;fill:none;fill-opacity:1;fill-rule: evenodd"/>
<path id="Shape2DView_nwe0019"  d="M 5.4 -2.5999999999999988 L 11.1 -2.5999999999999988 " stroke="#191919" stroke-width="0.35 px" style="stroke-width:0.35;stroke-miterlimit:4;stroke-dasharray:none;fill:none;fill-opacity:1;fill-rule: evenodd"/>
<path id="Shape2DView_nwe0020"  d="M 5.4 2.6000000000000014 L 11.1 2.6000000000000014 " stroke="#191919" stroke-width="0.35 px" style="stroke-width:0.35;stroke-miterlimit:4;stroke-dasharray:none;fill:none;fill-opacity:1;fill-rule: evenodd"/>
<path id="Shape2DView_nwe0021"  d="M 1.3000000000000003 -0.6499999999999989 L 1.6 -0.6499999999999989 " stroke="#191919" stroke-width="0.35 px" style="stroke-width:0.35;stroke-miterlimit:4;stroke-dasharray:none;fill:none;fill-opacity:1;fill-rule: evenodd"/>
<path id="Shape2DView_nwe0022"  d="M 1.3000000000000003 0.6500000000000011 L 1.6 0.6500000000000011 " stroke="#191919" stroke-width="0.35 px" style="stroke-width:0.35;stroke-miterlimit:4;stroke-dasharray:none;fill:none;fill-opacity:1;fill-rule: evenodd"/>
<path id="Shape2DView_nwe0023"  d="M 11.1 -0.6499999999999989 L 11.4 -0.6499999999999989 " stroke="#191919" stroke-width="0.35 px" style="stroke-width:0.35;stroke-miterlimit:4;stroke-dasharray:none;fill:none;fill-opacity:1;fill-rule: evenodd"/>
<path id="Shape2DView_nwe0024"  d="M 11.1 0.6500000000000011 L 11.4 0.6500000000000011 " stroke="#191919" stroke-width="0.35 px" style="stroke-width:0.35;stroke-miterlimit:4;stroke-dasharray:none;fill:none;fill-opacity:1;fill-rule: evenodd"/>
<path id="Shape2DView_nwe0025"  d="M 1.3 -0.6499999999999988 Q 0.11557121921910174 -0.6499999999999989 2.0650148258027912e-14 -0.6499999999999992 " stroke="#191919" stroke-width="0.35 px" style="stroke-width:0.35;stroke-miterlimit:4;stroke-dasharray:none;fill:none;fill-opacity:1;fill-rule: evenodd"/>
<path id="Shape2DView_nwe0026"  d="M 1.3 0.6500000000000012 Q 0.12646200977210564 0.650000000000001 -2.220446049250313e-14 0.6500000000000008 " stroke="#191919" stroke-width="0.35 px" style="stroke-width:0.35;stroke-miterlimit:4;stroke-dasharray:none;fill:none;fill-opacity:1;fill-rule: evenodd"/>
<path id="Shape2DView_nwe0027"  d="M 11.4 0.6500000000000012 Q 12.58441119961758 0.6500000000000012 12.700000000000022 0.6500000000000009 " stroke="#191919" stroke-width="0.35 px" style="stroke-width:0.35;stroke-miterlimit:4;stroke-dasharray:none;fill:none;fill-opacity:1;fill-rule: evenodd"/>
<path id="Shape2DView_nwe0028"  d="M 11.4 -0.6499999999999988 Q 12.584428780784329 -0.6499999999999989 12.69999999999998 -0.6499999999999992 " stroke="#191919" stroke-width="0.35 px" style="stroke-width:0.35;stroke-miterlimit:4;stroke-dasharray:none;fill:none;fill-opacity:1;fill-rule: evenodd"/>
<title>b'Shape2DView'</title>
</g>
<g id="Rectangle" transform="translate(0.785166,2.749905) scale(1,-1)">
<rect fill="#ff0000" id="origin" width="1" height="1" x="0" y="0" />
<title>b'Rectangle'</title>
</g>
</svg>