<?xml version="1.0"?>
<!DOCTYPE svg PUBLIC "-//W3C//DTD SVG 1.1//EN" "http://www.w3.org/Graphics/SVG/1.1/DTD/svg11.dtd">
<svg width="16.861131967054025mm" height="5.550610430726549mm" viewBox="0 0 16.861131967054025 5.550610430726549" xmlns="http://www.w3.org/2000/svg" version="1.1">
<g id="Shape2DView" transform="translate(0.810566,2.775305) scale(1,-1)">
<path id="Shape2DView_nwe0000"  d="M 4.295 3.803624082365684e-15 L 4.295 -0.2922272826296299 L 4.295 -0.5807796376259773 L 4.295 -0.8620283517029829 L 4.295 -1.1324365590968237 L 4.295 -1.3886037197050256 L 4.295 -1.6273083828512918 L 4.295 -1.8455486988968868 L 4.295 -2.040580169241556 L 4.295 -2.20995015998582 L 4.295 -2.351528745225312 L 4.295 -2.4635354921048376 L 4.295 -2.544561850794558 L 4.295 -2.5935888678213614 L 4.295 -2.6099999999999985 " stroke="#191919" stroke-width="0.35 px" style="stroke-width:0.35;stroke-miterlimit:4;stroke-dasharray:none;fill:none;fill-opacity:1;fill-rule: evenodd"/>
<path id="Shape2DView_nwe0001"  d="M 4.295 2.610000000000001 L 4.295 2.5935888678213646 L 4.295 2.544561850794561 L 4.295 2.4635354921048407 L 4.295 2.3515287452253153 L 4.295 2.2099501599858233 L 4.295 2.0405801692415593 L 4.295 1.8455486988968908 L 4.295 1.6273083828512964 L 4.295 1.3886037197050303 L 4.295 1.1324365590968286 L 4.295 0.8620283517029882 L 4.295 0.5807796376259826 L 4.295 0.2922272826296356 L 4.295 4.442889711520603e-15 " stroke="#191919" stroke-width="0.35 px" style="stroke-width:0.35;stroke-miterlimit:4;stroke-dasharray:none;fill:none;fill-opacity:1;fill-rule: evenodd"/>
<path id="Shape2DView_nwe0002"  d="M 6.67 3.803624082365684e-15 L 6.67 -0.2922272826296299 L 6.67 -0.5807796376259773 L 6.67 -0.8620283517029829 L 6.67 -1.1324365590968237 L 6.67 -1.3886037197050256 L 6.67 -1.6273083828512918 L 6.67 -1.8455486988968868 L 6.67 -2.040580169241556 L 6.67 -2.20995015998582 L 6.67 -2.351528745225312 L 6.67 -2.4635354921048376 L 6.67 -2.544561850794558 L 6.67 -2.5935888678213614 L 6.67 -2.6099999999999985 " stroke="#191919" stroke-width="0.35 px" style="stroke-width:0.35;stroke-miterlimit:4;stroke-dasharray:none;fill:none;fill-opacity:1;fill-rule: evenodd"/>
<path id="Shape2DView_nwe0003"  d="M 6.67 2.610000000000001 L 6.67 2.5935888678213646 L 6.67 2.544561850794561 L 6.67 2.4635354921048407 L 6.67 2.3515287452253153 L 6.67 2.2099501599858233 L 6.67 2.0405801692415593 L 6.67 1.8455486988968908 L 6.67 1.6273083828512964 L 6.67 1.3886037197050303 L 6.67 1.1324365590968286 L 6.67 0.8620283517029882 L 6.67 0.5807796376259826 L 6.67 0.2922272826296356 L 6.67 4.442889711520603e-15 " stroke="#191919" stroke-width="0.35 px" style="stroke-width:0.35;stroke-miterlimit:4;stroke-dasharray:none;fill:none;fill-opacity:1;fill-rule: evenodd"/>
<path id="Shape2DView_nwe0004"  d="M 2.87 3.79696274421776e-15 L 2.87 -0.29110763786859684 L 2.87 -0.5785544282864141 L 2.87 -0.8587255610834312 L 2.87 -1.1280977217056483 L 2.87 -1.3832833989398723 L 2.87 -1.6210734848327046 L 2.87 -1.8384776310850215 L 2.87 -2.032761854416876 L 2.87 -2.201482917993537 L 2.87 -2.3425190565462883 L 2.87 -2.4540966588017543 L 2.87 -2.53481257167274 L 2.87 -2.5836517457224293 L 2.87 -2.5999999999999988 " stroke="#191919" stroke-width="0.35 px" style="stroke-width:0.35;stroke-miterlimit:4;stroke-dasharray:none;fill:none;fill-opacity:1;fill-rule: evenodd"/>
<path id="Shape2DView_nwe0005"  d="M 2.87 2.6000000000000014 L 2.87 2.5836517457224324 L 2.87 2.5348125716727425 L 2.87 2.4540966588017574 L 2.87 2.342519056546291 L 2.87 2.2014829179935407 L 2.87 2.0327618544168793 L 2.87 1.8384776310850255 L 2.87 1.6210734848327093 L 2.87 1.383283398939877 L 2.87 1.1280977217056531 L 2.87 0.8587255610834366 L 2.87 0.5785544282864196 L 2.87 0.29110763786860255 L 2.87 4.433779079774384e-15 " stroke="#191919" stroke-width="0.35 px" style="stroke-width:0.35;stroke-miterlimit:4;stroke-dasharray:none;fill:none;fill-opacity:1;fill-rule: evenodd"/>
<path id="Shape2DView_nwe0006"  d="M 12.37 3.79696274421776e-15 L 12.37 -0.29110763786859684 L 12.37 -0.5785544282864141 L 12.37 -0.8587255610834312 L 12.37 -1.1280977217056483 L 12.37 -1.3832833989398723 L 12.37 -1.6210734848327046 L 12.37 -1.8384776310850215 L 12.37 -2.032761854416876 L 12.37 -2.201482917993537 L 12.37 -2.3425190565462883 L 12.37 -2.4540966588017543 L 12.37 -2.53481257167274 L 12.37 -2.5836517457224293 L 12.37 -2.5999999999999988 " stroke="#191919" stroke-width="0.35 px" style="stroke-width:0.35;stroke-miterlimit:4;stroke-dasharray:none;fill:none;fill-opacity:1;fill-rule: evenodd"/>
<path id="Shape2DView_nwe0007"  d="M 12.37 2.6000000000000014 L 12.37 2.5836517457224324 L 12.37 2.5348125716727425 L 12.37 2.4540966588017574 L 12.37 2.342519056546291 L 12.37 2.2014829179935407 L 12.37 2.0327618544168793 L 12.37 1.8384776310850255 L 12.37 1.6210734848327093 L 12.37 1.383283398939877 L 12.37 1.1280977217056531 L 12.37 0.8587255610834366 L 12.37 0.5785544282864196 L 12.37 0.29110763786860255 L 12.37 4.433779079774384e-15 " stroke="#191919" stroke-width="0.35 px" style="stroke-width:0.35;stroke-miterlimit:4;stroke-dasharray:none;fill:none;fill-opacity:1;fill-rule: evenodd"/>
<path id="Shape2DView_nwe0008"  d="M -2.2186863932023346e-14 0.6500000000000009 A 0.65 0.65 0 0 1 2.0664e-14 -0.65" stroke="#191919" stroke-width="0.35 px" style="stroke-width:0.35;stroke-miterlimit:4;stroke-dasharray:none;fill:none;fill-opacity:1;fill-rule: evenodd"/>
<path id="Shape2DView_nwe0009"  d="M 15.239999999999979 -0.6499999999999991 A 0.65 0.65 0 0 1 15.24 0.65" stroke="#191919" stroke-width="0.35 px" style="stroke-width:0.35;stroke-miterlimit:4;stroke-dasharray:none;fill:none;fill-opacity:1;fill-rule: evenodd"/>
<path id="Shape2DView_nwe0010"  d="M 1.3 -0.6499999999999989 L 1.3 -0.6337031429181843 L 1.3 -0.5856297641365713 L 1.3 -0.5081904636042183 L 1.3 -0.4052683712081757 L 1.3 -0.28202443042641173 L 1.2999999999999998 -0.14463860707160325 L 1.2999999999999998 1.117552394430094e-15 L 1.2999999999999998 0.1446386070716055 L 1.3 0.28202443042641384 L 1.3 0.40526837120817794 L 1.3 0.5081904636042205 L 1.3 0.5856297641365736 L 1.3 0.6337031429181864 L 1.3 0.6500000000000011 " stroke="#191919" stroke-width="0.35 px" style="stroke-width:0.35;stroke-miterlimit:4;stroke-dasharray:none;fill:none;fill-opacity:1;fill-rule: evenodd"/>
<path id="Shape2DView_nwe0011"  d="M 13.94 0.6500000000000011 L 13.94 0.6337031429181865 L 13.94 0.5856297641365736 L 13.94 0.5081904636042207 L 13.94 0.40526837120817805 L 13.94 0.28202443042641406 L 13.94 0.1446386070716057 L 13.94 1.356358520263828e-15 L 13.94 -0.144638607071603 L 13.94 -0.2820244304264115 L 13.94 -0.4052683712081755 L 13.94 -0.508190463604218 L 13.94 -0.5856297641365712 L 13.94 -0.6337031429181843 L 13.94 -0.6499999999999989 " stroke="#191919" stroke-width="0.35 px" style="stroke-width:0.35;stroke-miterlimit:4;stroke-dasharray:none;fill:none;fill-opacity:1;fill-rule: evenodd"/>
<path id="Shape2DView_nwe0012"  d="M 4.295 3.803624082366e-15 L 6.67 3.803624082366e-15 " stroke="#191919" stroke-width="0.35 px" style="stroke-width:0.35;stroke-miterlimit:4;stroke-dasharray:none;fill:none;fill-opacity:1;fill-rule: evenodd"/>
<path id="Shape2DView_nwe0013"  d="M 2.87 3.796962744218e-15 L 4.295 3.796962744218e-15 " stroke="#191919" stroke-width="0.35 px" style="stroke-width:0.35;stroke-miterlimit:4;stroke-dasharray:none;fill:none;fill-opacity:1;fill-rule: evenodd"/>
<path id="Shape2DView_nwe0014"  d="M 6.67 3.796962744218e-15 L 12.370000000000001 3.796962744218e-15 " stroke="#191919" stroke-width="0.35 px" style="stroke-width:0.35;stroke-miterlimit:4;stroke-dasharray:none;fill:none;fill-opacity:1;fill-rule: evenodd"/>
<path id="Shape2DView_nwe0015"  d="M 4.295 -2.6099999999999985 L 6.67 -2.6099999999999985 " stroke="#191919" stroke-width="0.35 px" style="stroke-width:0.35;stroke-miterlimit:4;stroke-dasharray:none;fill:none;fill-opacity:1;fill-rule: evenodd"/>
<path id="Shape2DView_nwe0016"  d="M 4.295 2.610000000000001 L 6.67 2.610000000000001 " stroke="#191919" stroke-width="0.35 px" style="stroke-width:0.35;stroke-miterlimit:4;stroke-dasharray:none;fill:none;fill-opacity:1;fill-rule: evenodd"/>
<path id="Shape2DView_nwe0017"  d="M 2.87 -2.5999999999999988 L 4.295 -2.5999999999999988 " stroke="#191919" stroke-width="0.35 px" style="stroke-width:0.35;stroke-miterlimit:4;stroke-dasharray:none;fill:none;fill-opacity:1;fill-rule: evenodd"/>
<path id="Shape2DView_nwe0018"  d="M 2.87 2.6000000000000014 L 4.295 2.6000000000000014 " stroke="#191919" stroke-width="0.35 px" style="stroke-width:0.35;stroke-miterlimit:4;stroke-dasharray:none;fill:none;fill-opacity:1;fill-rule: evenodd"/>
<path id="Shape2DView_nwe0019"  d="M 6.67 -2.5999999999999988 L 12.370000000000001 -2.5999999999999988 " stroke="#191919" stroke-width="0.35 px" style="stroke-width:0.35;stroke-miterlimit:4;stroke-dasharray:none;fill:none;fill-opacity:1;fill-rule: evenodd"/>
<path id="Shape2DView_nwe0020"  d="M 6.67 2.6000000000000014 L 12.370000000000001 2.6000000000000014 " stroke="#191919" stroke-width="0.35 px" style="stroke-width:0.35;stroke-miterlimit:4;stroke-dasharray:none;fill:none;fill-opacity:1;fill-rule: evenodd"/>
<path id="Shape2DView_nwe0021"  d="M 1.3000000000000003 -0.6499999999999989 L 2.87 -0.6499999999999989 " stroke="#191919" stroke-width="0.35 px" style="stroke-width:0.35;stroke-miterlimit:4;stroke-dasharray:none;fill:none;fill-opacity:1;fill-rule: evenodd"/>
<path id="Shape2DView_nwe0022"  d="M 1.3000000000000003 0.6500000000000011 L 2.87 0.6500000000000011 " stroke="#191919" stroke-width="0.35 px" style="stroke-width:0.35;stroke-miterlimit:4;stroke-dasharray:none;fill:none;fill-opacity:1;fill-rule: evenodd"/>
<path id="Shape2DView_nwe0023"  d="M 12.37 -0.6499999999999989 L 13.94 -0.6499999999999989 " stroke="#191919" stroke-width="0.35 px" style="stroke-width:0.35;stroke-miterlimit:4;stroke-dasharray:none;fill:none;fill-opacity:1;fill-rule: evenodd"/>
<path id="Shape2DView_nwe0024"  d="M 12.37 0.6500000000000011 L 13.94 0.6500000000000011 " stroke="#191919" stroke-width="0.35 px" style="stroke-width:0.35;stroke-miterlimit:4;stroke-dasharray:none;fill:none;fill-opacity:1;fill-rule: evenodd"/>
<path id="Shape2DView_nwe0025"  d="M 1.3 -0.6499999999999988 Q 0.11557121921910174 -0.6499999999999989 2.0650148258027912e-14 -0.6499999999999992 " stroke="#191919" stroke-width="0.35 px" style="stroke-width:0.35;stroke-miterlimit:4;stroke-dasharray:none;fill:none;fill-opacity:1;fill-rule: evenodd"/>
<path id="Shape2DView_nwe0026"  d="M 1.3 0.6500000000000012 Q 0.12646200977210564 0.650000000000001 -2.220446049250313e-14 0.6500000000000008 " stroke="#191919" stroke-width="0.35 px" style="stroke-width:0.35;stroke-miterlimit:4;stroke-dasharray:none;fill:none;fill-opacity:1;fill-rule: evenodd"/>
<path id="Shape2DView_nwe0027"  d="M 13.94 0.6500000000000012 Q 15.12441119961758 0.6500000000000012 15.240000000000022 0.6500000000000009 " stroke="#191919" stroke-width="0.35 px" style="stroke-width:0.35;stroke-miterlimit:4;stroke-dasharray:none;fill:none;fill-opacity:1;fill-rule: evenodd"/>
<path id="Shape2DView_nwe0028"  d="M 13.94 -0.6499999999999988 Q 15.124428780784463 -0.6499999999999989 15.239999999999979 -0.6499999999999992 " stroke="#191919" stroke-width="0.35 px" style="stroke-width:0.35;stroke-miterlimit:4;stroke-dasharray:none;fill:none;fill-opacity:1;fill-rule: evenodd"/>
<title>b'Shape2DView'</title>
</g>
<g id="Rectangle" transform="translate(0.810566,2.775305) scale(1,-1)">
<rect fill="#ff0000" id="origin" width="1" height="1" x="0" y="0" />
<title>b'Rectangle'</title>
</g>
</svg>