<?xml version="1.0"?>
<!DOCTYPE svg PUBLIC "-//W3C//DTD SVG 1.1//EN" "http://www.w3.org/Graphics/SVG/1.1/DTD/svg11.dtd">
<svg width="8.801206473254428mm" height="6.470605461710962mm" viewBox="0 0 8.801206473254428 6.470605461710962" xmlns="http://www.w3.org/2000/svg" version="1.1">
<g id="Shape2DView" transform="translate(3.236286,3.235303) scale(1,-1)">
<path id="Shape2DView_nwe0000"  d="M 3.1244999599935985 -0.3999999999999941 A 3.15 3.15 0 1 0 3.1245 0.4" stroke="#191919" stroke-width="0.35 px" style="stroke-width:0.35;stroke-miterlimit:4;stroke-dasharray:none;fill:none;fill-opacity:1;fill-rule: evenodd"/>
<circle cx="0.0" cy="7.156069109601e-15" r="0.4" stroke="#191919" stroke-width="0.35 px" style="stroke-width:0.35;stroke-miterlimit:4;stroke-dasharray:none;fill:none"/>
<path id="Shape2DView_nwe0002"  d="M -1.3653454727398982e-14 0.4000000000000044 A 0.4 0.4 0 0 1 1.27163e-14 -0.4" stroke="#191919" stroke-width="0.35 px" style="stroke-width:0.35;stroke-miterlimit:4;stroke-dasharray:none;fill:none;fill-opacity:1;fill-rule: evenodd"/>
<path id="Shape2DView_nwe0003"  d="M 5.080000001868878 -0.39999999999999564 A 0.4 0.4 0 1 1 4.68 4.52124e-15" stroke="#191919" stroke-width="0.35 px" style="stroke-width:0.35;stroke-miterlimit:4;stroke-dasharray:none;fill:none;fill-opacity:1;fill-rule: evenodd"/>
<path id="Shape2DView_nwe0005"  d="M 0.799988519469 -0.39999999999999547 A 0.4 5.7402655328281685e-06 -90.0 0 1 0.799988519469 0.4000000000000046 " stroke="#191919" stroke-width="0.35 px" style="stroke-width:0.35;stroke-miterlimit:4;stroke-dasharray:none;fill:none;fill-opacity:1;fill-rule: evenodd"/>
<path id="Shape2DView_nwe0006"  d="M 4.28 0.4000000000000046 L 4.28 0.38997116487273403 L 4.28 0.36038754716097227 L 4.28 0.3127325929872166 L 4.28 0.2493959207434981 L 4.28 0.17355349564702793 L 4.28 0.08900837358253044 L 4.28 4.689718114898894e-15 L 4.28 -0.08900837358252109 L 4.28 -0.17355349564701858 L 4.28 -0.24939592074348874 L 4.28 -0.3127325929872073 L 4.28 -0.36038754716096305 L 4.28 -0.38997116487272493 L 4.28 -0.39999999999999547 " stroke="#191919" stroke-width="0.35 px" style="stroke-width:0.35;stroke-miterlimit:4;stroke-dasharray:none;fill:none;fill-opacity:1;fill-rule: evenodd"/>
<path id="Shape2DView_nwe0007"  d="M 0.7999885194690651 -0.39999999999999547 Q 0.07112136506345657 -0.39999999999999536 1.27675647831893e-14 -0.39999999999999564 " stroke="#191919" stroke-width="0.35 px" style="stroke-width:0.35;stroke-miterlimit:4;stroke-dasharray:none;fill:none;fill-opacity:1;fill-rule: evenodd"/>
<path id="Shape2DView_nwe0008"  d="M 0.7999885194690651 0.4000000000000046 Q 0.07112073387702728 0.4000000000000046 -1.3655743202889425e-14 0.40000000000000435 " stroke="#191919" stroke-width="0.35 px" style="stroke-width:0.35;stroke-miterlimit:4;stroke-dasharray:none;fill:none;fill-opacity:1;fill-rule: evenodd"/>
<path id="Shape2DView_nwe0009"  d="M 0.7999885194670483 -0.39999999999999547 L 4.28 -0.39999999999999547 " stroke="#191919" stroke-width="0.35 px" style="stroke-width:0.35;stroke-miterlimit:4;stroke-dasharray:none;fill:none;fill-opacity:1;fill-rule: evenodd"/>
<path id="Shape2DView_nwe0010"  d="M 0.7999885194670483 0.4000000000000046 L 4.28 0.4000000000000046 " stroke="#191919" stroke-width="0.35 px" style="stroke-width:0.35;stroke-miterlimit:4;stroke-dasharray:none;fill:none;fill-opacity:1;fill-rule: evenodd"/>
<path id="Shape2DView_nwe0011"  d="M 4.28 0.4000000000000046 Q 4.441738829902089 0.4000000000000046 4.603477659804179 0.4000000000000046 Q 4.650739968819294 0.4000000000000046 4.698002277834409 0.4000000000000046 Q 5.066436549655769 0.4000000000000142 5.0800001021321 0.39999999999999136 " stroke="#191919" stroke-width="0.35 px" style="stroke-width:0.35;stroke-miterlimit:4;stroke-dasharray:none;fill:none;fill-opacity:1;fill-rule: evenodd"/>
<path id="Shape2DView_nwe0012"  d="M 4.28 -0.39999999999999547 Q 4.91829657321958 -0.3999999999999954 5.069145092708446 -0.3999999999999956 Q 5.0745725463407405 -0.39999999999999564 5.079999999973035 -0.3999999999999956 " stroke="#191919" stroke-width="0.35 px" style="stroke-width:0.35;stroke-miterlimit:4;stroke-dasharray:none;fill:none;fill-opacity:1;fill-rule: evenodd"/>
<title>b'Shape2DView'</title>
</g>
<g id="Rectangle" transform="translate(3.236286,3.235303) scale(1,-1)">
<rect fill="#ff0000" id="origin" width="1" height="1" x="0" y="0" />
<title>b'Rectangle'</title>
</g>
</svg>