<?xml version="1.0"?>
<!DOCTYPE svg PUBLIC "-//W3C//DTD SVG 1.1//EN" "http://www.w3.org/Graphics/SVG/1.1/DTD/svg11.dtd">
<svg width="13.839832282467054mm" height="11.262145391646506mm" viewBox="0 0 13.839832282467054 11.262145391646506" xmlns="http://www.w3.org/2000/svg" version="1.1">
<g id="Shape2DView" transform="translate(5.635685,5.631073) scale(1,-1)">
<path id="Shape2DView_nwe0000"  d="M 5.48155999693518 -0.449999999999992 A 5.5 5.5 0 1 0 5.48156 0.45" stroke="#191919" stroke-width="0.35 px" style="stroke-width:0.35;stroke-miterlimit:4;stroke-dasharray:none;fill:none;fill-opacity:1;fill-rule: evenodd"/>
<circle cx="0.0" cy="1.159701874483e-14" r="0.45" stroke="#191919" stroke-width="0.35 px" style="stroke-width:0.35;stroke-miterlimit:4;stroke-dasharray:none;fill:none"/>
<path id="Shape2DView_nwe0002"  d="M -1.5360136568323856e-14 0.4500000000000067 A 0.45 0.45 0 0 1 1.43058e-14 -0.45" stroke="#191919" stroke-width="0.35 px" style="stroke-width:0.35;stroke-miterlimit:4;stroke-dasharray:none;fill:none;fill-opacity:1;fill-rule: evenodd"/>
<path id="Shape2DView_nwe0003"  d="M 7.17 6.694242793219631e-15 A 0.45 0.45 0 0 1 7.62 -0.45" stroke="#191919" stroke-width="0.35 px" style="stroke-width:0.35;stroke-miterlimit:4;stroke-dasharray:none;fill:none;fill-opacity:1;fill-rule: evenodd"/>
<path id="Shape2DView_nwe0004"  d="M 7.620000003071097 -0.44999999999999335 A 0.45 0.45 0 1 1 7.17 6.80446e-15" stroke="#191919" stroke-width="0.35 px" style="stroke-width:0.35;stroke-miterlimit:4;stroke-dasharray:none;fill:none;fill-opacity:1;fill-rule: evenodd"/>
<path id="Shape2DView_nwe0006"  d="M 0.899991017598 -0.4499999999999932 A 0.45 4.491200890797278e-06 -90.0 0 1 0.899991017598 0.45000000000000684 " stroke="#191919" stroke-width="0.35 px" style="stroke-width:0.35;stroke-miterlimit:4;stroke-dasharray:none;fill:none;fill-opacity:1;fill-rule: evenodd"/>
<path id="Shape2DView_nwe0007"  d="M 6.72 0.45000000000000684 L 6.72 0.4387175604818275 L 6.72 0.4054359905560955 L 6.72 0.35182416711062037 L 6.72 0.280570410836437 L 6.72 0.19524768260290812 L 6.72 0.10013442028034847 L 6.72 6.994003009868881e-15 L 6.72 -0.1001344202803345 L 6.72 -0.19524768260289418 L 6.72 -0.28057041083642315 L 6.72 -0.3518241671106065 L 6.72 -0.4054359905560817 L 6.72 -0.4387175604818138 L 6.72 -0.4499999999999932 " stroke="#191919" stroke-width="0.35 px" style="stroke-width:0.35;stroke-miterlimit:4;stroke-dasharray:none;fill:none;fill-opacity:1;fill-rule: evenodd"/>
<path id="Shape2DView_nwe0008"  d="M 0.8999910175977811 -0.4499999999999931 Q 0.08001146378585167 -0.4499999999999932 1.432187701766452e-14 -0.44999999999999335 " stroke="#191919" stroke-width="0.35 px" style="stroke-width:0.35;stroke-miterlimit:4;stroke-dasharray:none;fill:none;fill-opacity:1;fill-rule: evenodd"/>
<path id="Shape2DView_nwe0009"  d="M 0.8999910175977811 0.4500000000000069 Q 0.08001137229357724 0.45000000000000695 -1.5432100042289676e-14 0.4500000000000067 " stroke="#191919" stroke-width="0.35 px" style="stroke-width:0.35;stroke-miterlimit:4;stroke-dasharray:none;fill:none;fill-opacity:1;fill-rule: evenodd"/>
<path id="Shape2DView_nwe0010"  d="M 0.8999910175964735 -0.4499999999999932 L 6.72 -0.4499999999999932 " stroke="#191919" stroke-width="0.35 px" style="stroke-width:0.35;stroke-miterlimit:4;stroke-dasharray:none;fill:none;fill-opacity:1;fill-rule: evenodd"/>
<path id="Shape2DView_nwe0011"  d="M 0.8999910175964735 0.45000000000000684 L 6.72 0.45000000000000684 " stroke="#191919" stroke-width="0.35 px" style="stroke-width:0.35;stroke-miterlimit:4;stroke-dasharray:none;fill:none;fill-opacity:1;fill-rule: evenodd"/>
<path id="Shape2DView_nwe0012"  d="M 6.72 0.4500000000000069 Q 7.53992807800134 0.45000000000001283 7.6200000798988325 0.44999999999999957 " stroke="#191919" stroke-width="0.35 px" style="stroke-width:0.35;stroke-miterlimit:4;stroke-dasharray:none;fill:none;fill-opacity:1;fill-rule: evenodd"/>
<path id="Shape2DView_nwe0013"  d="M 6.72 -0.4499999999999931 Q 7.53997971382595 -0.4499999999999932 7.619999999979196 -0.44999999999999335 " stroke="#191919" stroke-width="0.35 px" style="stroke-width:0.35;stroke-miterlimit:4;stroke-dasharray:none;fill:none;fill-opacity:1;fill-rule: evenodd"/>
<path id="Shape2DView_nwe0014"  d="M 7.619999999979196 -0.44999999999999335 L 7.620000003071096 -0.44999999999999335 " stroke="#191919" stroke-width="0.35 px" style="stroke-width:0.35;stroke-miterlimit:4;stroke-dasharray:none;fill:none;fill-opacity:1;fill-rule: evenodd"/>
<title>b'Shape2DView'</title>
</g>
<g id="Rectangle" transform="translate(5.635685,5.631073) scale(1,-1)">
<rect fill="#ff0000" id="origin" width="1" height="1" x="0" y="0" />
<title>b'Rectangle'</title>
</g>
</svg>