<?xml version="1.0"?>
<!DOCTYPE svg PUBLIC "-//W3C//DTD SVG 1.1//EN" "http://www.w3.org/Graphics/SVG/1.1/DTD/svg11.dtd">
<svg width="11.123136375441131mm" height="6.001300621637778mm" viewBox="0 0 11.123136375441131 6.001300621637778" xmlns="http://www.w3.org/2000/svg" version="1.1">
<g id="Shape2DView" transform="translate(2.995452,3.000650) scale(1,-1)">
<path id="Shape2DView_nwe0000"  d="M 2.8722813232690143 -0.39999999999999636 A 2.9 2.9 0 1 0 2.87228 0.4" stroke="#191919" stroke-width="0.35 px" style="stroke-width:0.35;stroke-miterlimit:4;stroke-dasharray:none;fill:none;fill-opacity:1;fill-rule: evenodd"/>
<circle cx="0.0" cy="5.734216520418e-15" r="0.4" stroke="#191919" stroke-width="0.35 px" style="stroke-width:0.35;stroke-miterlimit:4;stroke-dasharray:none;fill:none"/>
<path id="Shape2DView_nwe0002"  d="M -1.3653454727398982e-14 0.4000000000000037 A 0.4 0.4 0 0 1 1.27163e-14 -0.4" stroke="#191919" stroke-width="0.35 px" style="stroke-width:0.35;stroke-miterlimit:4;stroke-dasharray:none;fill:none;fill-opacity:1;fill-rule: evenodd"/>
<path id="Shape2DView_nwe0003"  d="M 7.619878117521582 -0.3999999814308227 A 0.4 0.4 0 0 1 7.62 -0.4" stroke="#191919" stroke-width="0.35 px" style="stroke-width:0.35;stroke-miterlimit:4;stroke-dasharray:none;fill:none;fill-opacity:1;fill-rule: evenodd"/>
<path id="Shape2DView_nwe0004"  d="M 7.6200000024687204 -0.39999999999999636 A 0.4 0.4 0 1 1 7.22 3.81069e-15" stroke="#191919" stroke-width="0.35 px" style="stroke-width:0.35;stroke-miterlimit:4;stroke-dasharray:none;fill:none;fill-opacity:1;fill-rule: evenodd"/>
<path id="Shape2DView_nwe0006"  d="M 0.799993121555 -0.3999999999999962 A 0.4 3.439222583199327e-06 -90.0 0 1 0.799993121555 0.40000000000000385 " stroke="#191919" stroke-width="0.35 px" style="stroke-width:0.35;stroke-miterlimit:4;stroke-dasharray:none;fill:none;fill-opacity:1;fill-rule: evenodd"/>
<path id="Shape2DView_nwe0007"  d="M 6.82 0.40000000000000385 L 6.82 0.3899711648727333 L 6.82 0.36038754716097154 L 6.82 0.3127325929872159 L 6.82 0.24939592074349737 L 6.82 0.1735534956470272 L 6.82 0.08900837358252973 L 6.82 3.979175379138894e-15 L 6.82 -0.0890083735825218 L 6.82 -0.1735534956470193 L 6.82 -0.24939592074348946 L 6.82 -0.312732592987208 L 6.82 -0.3603875471609638 L 6.82 -0.38997116487272565 L 6.82 -0.3999999999999962 " stroke="#191919" stroke-width="0.35 px" style="stroke-width:0.35;stroke-miterlimit:4;stroke-dasharray:none;fill:none;fill-opacity:1;fill-rule: evenodd"/>
<path id="Shape2DView_nwe0008"  d="M 0.7999931215551662 -0.3999999999999962 Q 0.07112190920660105 -0.39999999999999625 1.27675647831893e-14 -0.39999999999999636 " stroke="#191919" stroke-width="0.35 px" style="stroke-width:0.35;stroke-miterlimit:4;stroke-dasharray:none;fill:none;fill-opacity:1;fill-rule: evenodd"/>
<path id="Shape2DView_nwe0009"  d="M 0.7999931215551663 0.40000000000000385 Q 0.07112097254404237 0.4000000000000038 -1.3655743202889425e-14 0.4000000000000037 " stroke="#191919" stroke-width="0.35 px" style="stroke-width:0.35;stroke-miterlimit:4;stroke-dasharray:none;fill:none;fill-opacity:1;fill-rule: evenodd"/>
<path id="Shape2DView_nwe0010"  d="M 0.7999931215538311 -0.3999999999999962 L 6.82 -0.3999999999999962 " stroke="#191919" stroke-width="0.35 px" style="stroke-width:0.35;stroke-miterlimit:4;stroke-dasharray:none;fill:none;fill-opacity:1;fill-rule: evenodd"/>
<path id="Shape2DView_nwe0011"  d="M 0.7999931215538311 0.40000000000000385 L 6.82 0.40000000000000385 " stroke="#191919" stroke-width="0.35 px" style="stroke-width:0.35;stroke-miterlimit:4;stroke-dasharray:none;fill:none;fill-opacity:1;fill-rule: evenodd"/>
<path id="Shape2DView_nwe0012"  d="M 6.82 0.40000000000000385 Q 7.548864681374269 0.400000000000008 7.620000061179258 0.399999999999999 " stroke="#191919" stroke-width="0.35 px" style="stroke-width:0.35;stroke-miterlimit:4;stroke-dasharray:none;fill:none;fill-opacity:1;fill-rule: evenodd"/>
<path id="Shape2DView_nwe0013"  d="M 6.82 -0.3999999999999962 Q 7.4625362775387245 -0.39999999999999625 7.610151640875867 -0.39999999999999636 Q 7.6150758204277125 -0.39999999999999636 7.619999999979558 -0.39999999999999636 " stroke="#191919" stroke-width="0.35 px" style="stroke-width:0.35;stroke-miterlimit:4;stroke-dasharray:none;fill:none;fill-opacity:1;fill-rule: evenodd"/>
<path id="Shape2DView_nwe0014"  d="M 7.619999999979558 -0.39999999999999636 L 7.6200000024687204 -0.39999999999999636 " stroke="#191919" stroke-width="0.35 px" style="stroke-width:0.35;stroke-miterlimit:4;stroke-dasharray:none;fill:none;fill-opacity:1;fill-rule: evenodd"/>
<title>b'Shape2DView'</title>
</g>
<g id="Rectangle" transform="translate(2.995452,3.000650) scale(1,-1)">
<rect fill="#ff0000" id="origin" width="1" height="1" x="0" y="0" />
<title>b'Rectangle'</title>
</g>
</svg>