<?xml version="1.0"?>
<!DOCTYPE svg PUBLIC "-//W3C//DTD SVG 1.1//EN" "http://www.w3.org/Graphics/SVG/1.1/DTD/svg11.dtd">
<svg width="16.457885655656447mm" height="4.822703640320912mm" viewBox="0 0 16.457885655656447 4.822703640320912" xmlns="http://www.w3.org/2000/svg" version="1.1">
<g id="Shape2DView" transform="translate(0.608071,2.411352) scale(1,-1)">
<path id="Shape2DView_nwe0000"  d="M 1.315 3.064215547965775e-15 L 1.315 -0.25192007123243976 L 1.315 -0.5006721014017047 L 1.315 -0.7431278893991234 L 1.315 -0.9762384130145035 L 1.315 -1.197072172159505 L 1.315 -1.4028520541821483 L 1.315 -1.5909902576697303 L 1.315 -1.7591208355530656 L 1.315 -1.9051294482636378 L 1.315 -2.027179952780442 L 1.315 -2.1237374931938255 L 1.315 -2.1935878024091022 L 1.315 -2.2358524722597943 L 1.315 -2.249999999999999 " stroke="#191919" stroke-width="0.35 px" style="stroke-width:0.35;stroke-miterlimit:4;stroke-dasharray:none;fill:none;fill-opacity:1;fill-rule: evenodd"/>
<path id="Shape2DView_nwe0001"  d="M 1.315 2.250000000000001 L 1.315 2.235852472259797 L 1.315 2.193587802409104 L 1.315 2.123737493193828 L 1.315 2.027179952780444 L 1.315 1.9051294482636407 L 1.315 1.7591208355530685 L 1.315 1.5909902576697332 L 1.315 1.402852054182152 L 1.315 1.197072172159509 L 1.315 0.9762384130145072 L 1.315 0.7431278893991274 L 1.315 0.500672101401709 L 1.315 0.2519200712324443 L 1.315 3.6153066075820835e-15 " stroke="#191919" stroke-width="0.35 px" style="stroke-width:0.35;stroke-miterlimit:4;stroke-dasharray:none;fill:none;fill-opacity:1;fill-rule: evenodd"/>
<path id="Shape2DView_nwe0002"  d="M 1.12 2.0150547896947e-15 L 1.12 -0.07557602136973086 L 1.12 -0.15020163042051035 L 1.12 -0.22293836681973597 L 1.12 -0.29287152390435 L 1.12 -0.35912165164785054 L 1.12 -0.42085561625464357 L 1.12 -0.47729707730091825 L 1.12 -0.5277362506659189 L 1.12 -0.5715388344790906 L 1.12 -0.6081539858341317 L 1.12 -0.637121247958147 L 1.12 -0.6580763407227299 L 1.12 -0.6707557416779377 L 1.12 -0.674999999999999 " stroke="#191919" stroke-width="0.35 px" style="stroke-width:0.35;stroke-miterlimit:4;stroke-dasharray:none;fill:none;fill-opacity:1;fill-rule: evenodd"/>
<path id="Shape2DView_nwe0003"  d="M 1.12 0.675000000000001 L 1.12 0.6707557416779397 L 1.12 0.658076340722732 L 1.12 0.6371212479581491 L 1.12 0.6081539858341339 L 1.12 0.5715388344790928 L 1.12 0.527736250665921 L 1.12 0.47729707730092064 L 1.12 0.4208556162546461 L 1.12 0.3591216516478532 L 1.12 0.2928715239043528 L 1.12 0.22293836681973878 L 1.12 0.1502016304205132 L 1.12 0.07557602136973379 L 1.12 2.1803821075795927e-15 " stroke="#191919" stroke-width="0.35 px" style="stroke-width:0.35;stroke-miterlimit:4;stroke-dasharray:none;fill:none;fill-opacity:1;fill-rule: evenodd"/>
<path id="Shape2DView_nwe0004"  d="M 1.835 3.064215547965775e-15 L 1.835 -0.25192007123243976 L 1.835 -0.5006721014017047 L 1.835 -0.7431278893991234 L 1.835 -0.9762384130145035 L 1.835 -1.197072172159505 L 1.835 -1.4028520541821483 L 1.835 -1.5909902576697303 L 1.835 -1.7591208355530656 L 1.835 -1.9051294482636378 L 1.835 -2.027179952780442 L 1.835 -2.1237374931938255 L 1.835 -2.1935878024091022 L 1.835 -2.2358524722597943 L 1.835 -2.249999999999999 " stroke="#191919" stroke-width="0.35 px" style="stroke-width:0.35;stroke-miterlimit:4;stroke-dasharray:none;fill:none;fill-opacity:1;fill-rule: evenodd"/>
<path id="Shape2DView_nwe0005"  d="M 1.835 2.250000000000001 L 1.835 2.235852472259797 L 1.835 2.193587802409104 L 1.835 2.123737493193828 L 1.835 2.027179952780444 L 1.835 1.9051294482636407 L 1.835 1.7591208355530685 L 1.835 1.5909902576697332 L 1.835 1.402852054182152 L 1.835 1.197072172159509 L 1.835 0.9762384130145072 L 1.835 0.7431278893991274 L 1.835 0.500672101401709 L 1.835 0.2519200712324443 L 1.835 3.6153066075820835e-15 " stroke="#191919" stroke-width="0.35 px" style="stroke-width:0.35;stroke-miterlimit:4;stroke-dasharray:none;fill:none;fill-opacity:1;fill-rule: evenodd"/>
<path id="Shape2DView_nwe0006"  d="M 2.033 2.8477220581638727e-15 L 2.033 -0.2155316164988649 L 2.033 -0.42835279786590263 L 2.033 -0.6357871942636943 L 2.033 -0.8352261978012971 L 2.033 -1.0241617472920206 L 2.033 -1.2002178685780602 L 2.033 -1.3611805537841024 L 2.033 -1.505025603750956 L 2.033 -1.6299440835144456 L 2.033 -1.7343650707121554 L 2.033 -1.8169754108436063 L 2.033 -1.876736230950009 L 2.033 -1.9128960040444907 L 2.033 -1.924999999999999 " stroke="#191919" stroke-width="0.35 px" style="stroke-width:0.35;stroke-miterlimit:4;stroke-dasharray:none;fill:none;fill-opacity:1;fill-rule: evenodd"/>
<path id="Shape2DView_nwe0007"  d="M 2.033 1.9250000000000012 L 2.033 1.9128960040444931 L 2.033 1.8767362309500117 L 2.033 1.816975410843609 L 2.033 1.7343650707121583 L 2.033 1.6299440835144483 L 2.033 1.5050256037509588 L 2.033 1.3611805537841055 L 2.033 1.2002178685780636 L 2.033 1.0241617472920246 L 2.033 0.8352261978013009 L 2.033 0.6357871942636981 L 2.033 0.42835279786590685 L 2.033 0.21553161649886926 L 2.033 3.3192110758356036e-15 " stroke="#191919" stroke-width="0.35 px" style="stroke-width:0.35;stroke-miterlimit:4;stroke-dasharray:none;fill:none;fill-opacity:1;fill-rule: evenodd"/>
<path id="Shape2DView_nwe0008"  d="M 3.102353827913 3.330669073875e-15 Q 3.1023538279130003 1.7538620757975707 3.102353827912999 1.9249999997128366 " stroke="#191919" stroke-width="0.35 px" style="stroke-width:0.35;stroke-miterlimit:4;stroke-dasharray:none;fill:none;fill-opacity:1;fill-rule: evenodd"/>
<path id="Shape2DView_nwe0009"  d="M 3.102353827913 -1.9249999999999121 Q 3.1023538279129994 -1.7538633079174395 3.102353827913 3.1086244689504383e-15 " stroke="#191919" stroke-width="0.35 px" style="stroke-width:0.35;stroke-miterlimit:4;stroke-dasharray:none;fill:none;fill-opacity:1;fill-rule: evenodd"/>
<path id="Shape2DView_nwe0010"  d="M -1.5360136568323856e-14 0.4500000000000008 A 0.45 0.45 0 0 1 1.43058e-14 -0.45" stroke="#191919" stroke-width="0.35 px" style="stroke-width:0.35;stroke-miterlimit:4;stroke-dasharray:none;fill:none;fill-opacity:1;fill-rule: evenodd"/>
<path id="Shape2DView_nwe0011"  d="M 3.639751435245 3.330669073875e-15 Q 3.6397514352449987 1.7538620757974313 3.639751435245001 1.9249999997128366 " stroke="#191919" stroke-width="0.35 px" style="stroke-width:0.35;stroke-miterlimit:4;stroke-dasharray:none;fill:none;fill-opacity:1;fill-rule: evenodd"/>
<path id="Shape2DView_nwe0012"  d="M 3.639751435245 -1.9249999999999121 Q 3.6397514352449996 -1.7538633079174395 3.639751435245 3.1086244689504383e-15 " stroke="#191919" stroke-width="0.35 px" style="stroke-width:0.35;stroke-miterlimit:4;stroke-dasharray:none;fill:none;fill-opacity:1;fill-rule: evenodd"/>
<path id="Shape2DView_nwe0013"  d="M 4.197090670018 3.330669073875e-15 Q 4.197090670018001 1.753862075797508 4.197090670018 1.9249999997128366 " stroke="#191919" stroke-width="0.35 px" style="stroke-width:0.35;stroke-miterlimit:4;stroke-dasharray:none;fill:none;fill-opacity:1;fill-rule: evenodd"/>
<path id="Shape2DView_nwe0014"  d="M 4.197090670018 -1.9249999999999121 Q 4.197090670018001 -1.7538633079174395 4.197090670018 3.1086244689504383e-15 " stroke="#191919" stroke-width="0.35 px" style="stroke-width:0.35;stroke-miterlimit:4;stroke-dasharray:none;fill:none;fill-opacity:1;fill-rule: evenodd"/>
<path id="Shape2DView_nwe0015"  d="M 4.73448827735 3.330669073875e-15 Q 4.73448827735 1.7538620757976067 4.73448827735 1.9249999997128366 " stroke="#191919" stroke-width="0.35 px" style="stroke-width:0.35;stroke-miterlimit:4;stroke-dasharray:none;fill:none;fill-opacity:1;fill-rule: evenodd"/>
<path id="Shape2DView_nwe0016"  d="M 4.73448827735 -1.9249999999999121 Q 4.73448827735 -1.7538633079174395 4.73448827735 3.1086244689504383e-15 " stroke="#191919" stroke-width="0.35 px" style="stroke-width:0.35;stroke-miterlimit:4;stroke-dasharray:none;fill:none;fill-opacity:1;fill-rule: evenodd"/>
<path id="Shape2DView_nwe0017"  d="M 5.291827512124 3.330669073875e-15 Q 5.291827512124 1.7538620757975294 5.291827512124 1.9249999997128366 " stroke="#191919" stroke-width="0.35 px" style="stroke-width:0.35;stroke-miterlimit:4;stroke-dasharray:none;fill:none;fill-opacity:1;fill-rule: evenodd"/>
<path id="Shape2DView_nwe0018"  d="M 5.291827512124 -1.9249999999999121 Q 5.291827512124 -1.7538633079174395 5.291827512124 3.1086244689504383e-15 " stroke="#191919" stroke-width="0.35 px" style="stroke-width:0.35;stroke-miterlimit:4;stroke-dasharray:none;fill:none;fill-opacity:1;fill-rule: evenodd"/>
<path id="Shape2DView_nwe0019"  d="M 5.829225119455 3.330669073875e-15 Q 5.829225119455 1.753862075797648 5.829225119455 1.9249999997128366 " stroke="#191919" stroke-width="0.35 px" style="stroke-width:0.35;stroke-miterlimit:4;stroke-dasharray:none;fill:none;fill-opacity:1;fill-rule: evenodd"/>
<path id="Shape2DView_nwe0020"  d="M 5.829225119455 -1.9249999999999121 Q 5.829225119454999 -1.7538633079174395 5.829225119455 3.1086244689504383e-15 " stroke="#191919" stroke-width="0.35 px" style="stroke-width:0.35;stroke-miterlimit:4;stroke-dasharray:none;fill:none;fill-opacity:1;fill-rule: evenodd"/>
<path id="Shape2DView_nwe0021"  d="M 6.386564354229 3.330669073875e-15 Q 6.386564354228999 1.753862075797648 6.386564354229 1.9249999997128366 " stroke="#191919" stroke-width="0.35 px" style="stroke-width:0.35;stroke-miterlimit:4;stroke-dasharray:none;fill:none;fill-opacity:1;fill-rule: evenodd"/>
<path id="Shape2DView_nwe0022"  d="M 6.386564354229 -1.9249999999999121 Q 6.386564354229 -1.7538633079174395 6.386564354229 3.1086244689504383e-15 " stroke="#191919" stroke-width="0.35 px" style="stroke-width:0.35;stroke-miterlimit:4;stroke-dasharray:none;fill:none;fill-opacity:1;fill-rule: evenodd"/>
<path id="Shape2DView_nwe0023"  d="M 6.92396196156 3.330669073875e-15 Q 6.923961961560174 1.7538620757975294 6.92396196156 1.9249999997128366 " stroke="#191919" stroke-width="0.35 px" style="stroke-width:0.35;stroke-miterlimit:4;stroke-dasharray:none;fill:none;fill-opacity:1;fill-rule: evenodd"/>
<path id="Shape2DView_nwe0024"  d="M 6.92396196156 -1.9249999999999121 Q 6.92396196156 -1.7538633079174395 6.92396196156 3.1086244689504383e-15 " stroke="#191919" stroke-width="0.35 px" style="stroke-width:0.35;stroke-miterlimit:4;stroke-dasharray:none;fill:none;fill-opacity:1;fill-rule: evenodd"/>
<path id="Shape2DView_nwe0025"  d="M 7.481301196334 3.330669073875e-15 Q 7.481301196333999 1.7538620757976067 7.481301196334 1.9249999997128366 " stroke="#191919" stroke-width="0.35 px" style="stroke-width:0.35;stroke-miterlimit:4;stroke-dasharray:none;fill:none;fill-opacity:1;fill-rule: evenodd"/>
<path id="Shape2DView_nwe0026"  d="M 7.481301196334 -1.9249999999999121 Q 7.481301196334 -1.7538633079174395 7.481301196334 3.1086244689504383e-15 " stroke="#191919" stroke-width="0.35 px" style="stroke-width:0.35;stroke-miterlimit:4;stroke-dasharray:none;fill:none;fill-opacity:1;fill-rule: evenodd"/>
<path id="Shape2DView_nwe0027"  d="M 8.018698803666 3.330669073875e-15 Q 8.018698803665998 1.7538620757975707 8.018698803666004 1.9249999997128366 " stroke="#191919" stroke-width="0.35 px" style="stroke-width:0.35;stroke-miterlimit:4;stroke-dasharray:none;fill:none;fill-opacity:1;fill-rule: evenodd"/>
<path id="Shape2DView_nwe0028"  d="M 8.018698803666 -1.9249999999999121 Q 8.018698803666002 -1.7538633079174395 8.018698803666 3.1086244689504383e-15 " stroke="#191919" stroke-width="0.35 px" style="stroke-width:0.35;stroke-miterlimit:4;stroke-dasharray:none;fill:none;fill-opacity:1;fill-rule: evenodd"/>
<path id="Shape2DView_nwe0029"  d="M 8.576038038439 3.330669073875e-15 Q 8.576038038439076 1.7538620757976693 8.576038038439 1.9249999997128366 " stroke="#191919" stroke-width="0.35 px" style="stroke-width:0.35;stroke-miterlimit:4;stroke-dasharray:none;fill:none;fill-opacity:1;fill-rule: evenodd"/>
<path id="Shape2DView_nwe0030"  d="M 8.576038038439 -1.9249999999999121 Q 8.576038038438998 -1.7538633079174395 8.576038038439 3.1086244689504383e-15 " stroke="#191919" stroke-width="0.35 px" style="stroke-width:0.35;stroke-miterlimit:4;stroke-dasharray:none;fill:none;fill-opacity:1;fill-rule: evenodd"/>
<path id="Shape2DView_nwe0031"  d="M 9.113435645771 3.330669073875e-15 Q 9.113435645771002 1.7538620757975707 9.113435645771 1.9249999997128366 " stroke="#191919" stroke-width="0.35 px" style="stroke-width:0.35;stroke-miterlimit:4;stroke-dasharray:none;fill:none;fill-opacity:1;fill-rule: evenodd"/>
<path id="Shape2DView_nwe0032"  d="M 9.113435645771 -1.9249999999999121 Q 9.113435645771 -1.7538633079174395 9.113435645771 3.1086244689504383e-15 " stroke="#191919" stroke-width="0.35 px" style="stroke-width:0.35;stroke-miterlimit:4;stroke-dasharray:none;fill:none;fill-opacity:1;fill-rule: evenodd"/>
<path id="Shape2DView_nwe0033"  d="M 9.670774880545 3.330669073875e-15 Q 9.670774880545 1.7538620757975294 9.670774880545 1.9249999997128366 " stroke="#191919" stroke-width="0.35 px" style="stroke-width:0.35;stroke-miterlimit:4;stroke-dasharray:none;fill:none;fill-opacity:1;fill-rule: evenodd"/>
<path id="Shape2DView_nwe0034"  d="M 9.670774880545 -1.9249999999999121 Q 9.670774880545 -1.7538633079174395 9.670774880545 3.1086244689504383e-15 " stroke="#191919" stroke-width="0.35 px" style="stroke-width:0.35;stroke-miterlimit:4;stroke-dasharray:none;fill:none;fill-opacity:1;fill-rule: evenodd"/>
<path id="Shape2DView_nwe0035"  d="M 10.208172487876 3.330669073875e-15 Q 10.208172487876002 1.753862075797508 10.208172487876 1.9249999997128366 " stroke="#191919" stroke-width="0.35 px" style="stroke-width:0.35;stroke-miterlimit:4;stroke-dasharray:none;fill:none;fill-opacity:1;fill-rule: evenodd"/>
<path id="Shape2DView_nwe0036"  d="M 10.208172487875995 -1.9249999999999121 Q 10.208172487876004 -1.753863307921562 10.208172487876 3.3306690738754696e-15 " stroke="#191919" stroke-width="0.35 px" style="stroke-width:0.35;stroke-miterlimit:4;stroke-dasharray:none;fill:none;fill-opacity:1;fill-rule: evenodd"/>
<path id="Shape2DView_nwe0037"  d="M 10.76551172265 3.330669073875e-15 Q 10.765511722649999 1.7538620757975294 10.76551172265 1.9249999997128366 " stroke="#191919" stroke-width="0.35 px" style="stroke-width:0.35;stroke-miterlimit:4;stroke-dasharray:none;fill:none;fill-opacity:1;fill-rule: evenodd"/>
<path id="Shape2DView_nwe0038"  d="M 10.76551172265 -1.9249999999999121 Q 10.76551172265 -1.7538633079174395 10.76551172265 3.1086244689504383e-15 " stroke="#191919" stroke-width="0.35 px" style="stroke-width:0.35;stroke-miterlimit:4;stroke-dasharray:none;fill:none;fill-opacity:1;fill-rule: evenodd"/>
<path id="Shape2DView_nwe0039"  d="M 11.302909329982 3.330669073875e-15 Q 11.302909329982 1.753862075797648 11.302909329982 1.9249999997128366 " stroke="#191919" stroke-width="0.35 px" style="stroke-width:0.35;stroke-miterlimit:4;stroke-dasharray:none;fill:none;fill-opacity:1;fill-rule: evenodd"/>
<path id="Shape2DView_nwe0040"  d="M 11.302909329982 -1.9249999999999121 Q 11.302909329982002 -1.7538633079174395 11.302909329982 3.1086244689504383e-15 " stroke="#191919" stroke-width="0.35 px" style="stroke-width:0.35;stroke-miterlimit:4;stroke-dasharray:none;fill:none;fill-opacity:1;fill-rule: evenodd"/>
<path id="Shape2DView_nwe0041"  d="M 11.860248564755 3.330669073875e-15 Q 11.860248564755002 1.753862075797648 11.860248564755 1.9249999997128366 " stroke="#191919" stroke-width="0.35 px" style="stroke-width:0.35;stroke-miterlimit:4;stroke-dasharray:none;fill:none;fill-opacity:1;fill-rule: evenodd"/>
<path id="Shape2DView_nwe0042"  d="M 11.860248564755 -1.9249999999999121 Q 11.860248564755 -1.7538633079174395 11.860248564755 3.1086244689504383e-15 " stroke="#191919" stroke-width="0.35 px" style="stroke-width:0.35;stroke-miterlimit:4;stroke-dasharray:none;fill:none;fill-opacity:1;fill-rule: evenodd"/>
<path id="Shape2DView_nwe0043"  d="M 12.397646172087 3.330669073875e-15 Q 12.397646172087 1.753862075797648 12.397646172087 1.9249999997128366 " stroke="#191919" stroke-width="0.35 px" style="stroke-width:0.35;stroke-miterlimit:4;stroke-dasharray:none;fill:none;fill-opacity:1;fill-rule: evenodd"/>
<path id="Shape2DView_nwe0044"  d="M 12.397646172087 -1.9249999999999121 Q 12.397646172086999 -1.7538633079174395 12.397646172087 3.1086244689504383e-15 " stroke="#191919" stroke-width="0.35 px" style="stroke-width:0.35;stroke-miterlimit:4;stroke-dasharray:none;fill:none;fill-opacity:1;fill-rule: evenodd"/>
<path id="Shape2DView_nwe0045"  d="M 13.145 2.8477220581638727e-15 L 13.145 -0.2155316164988649 L 13.145 -0.42835279786590263 L 13.145 -0.6357871942636943 L 13.145 -0.8352261978012971 L 13.145 -1.0241617472920206 L 13.145 -1.2002178685780602 L 13.145 -1.3611805537841024 L 13.145 -1.505025603750956 L 13.145 -1.6299440835144456 L 13.145 -1.7343650707121554 L 13.145 -1.8169754108436063 L 13.145 -1.876736230950009 L 13.145 -1.9128960040444907 L 13.145 -1.924999999999999 " stroke="#191919" stroke-width="0.35 px" style="stroke-width:0.35;stroke-miterlimit:4;stroke-dasharray:none;fill:none;fill-opacity:1;fill-rule: evenodd"/>
<path id="Shape2DView_nwe0046"  d="M 13.145 1.9250000000000012 L 13.145 1.9128960040444931 L 13.145 1.8767362309500117 L 13.145 1.816975410843609 L 13.145 1.7343650707121583 L 13.145 1.6299440835144483 L 13.145 1.5050256037509588 L 13.145 1.3611805537841055 L 13.145 1.2002178685780636 L 13.145 1.0241617472920246 L 13.145 0.8352261978013009 L 13.145 0.6357871942636981 L 13.145 0.42835279786590685 L 13.145 0.21553161649886926 L 13.145 3.3192110758356036e-15 " stroke="#191919" stroke-width="0.35 px" style="stroke-width:0.35;stroke-miterlimit:4;stroke-dasharray:none;fill:none;fill-opacity:1;fill-rule: evenodd"/>
<path id="Shape2DView_nwe0047"  d="M 13.405 3.064215547965775e-15 L 13.405 -0.25192007123243976 L 13.405 -0.5006721014017047 L 13.405 -0.7431278893991234 L 13.405 -0.9762384130145035 L 13.405 -1.197072172159505 L 13.405 -1.4028520541821483 L 13.405 -1.5909902576697303 L 13.405 -1.7591208355530656 L 13.405 -1.9051294482636378 L 13.405 -2.027179952780442 L 13.405 -2.1237374931938255 L 13.405 -2.1935878024091022 L 13.405 -2.2358524722597943 L 13.405 -2.249999999999999 " stroke="#191919" stroke-width="0.35 px" style="stroke-width:0.35;stroke-miterlimit:4;stroke-dasharray:none;fill:none;fill-opacity:1;fill-rule: evenodd"/>
<path id="Shape2DView_nwe0048"  d="M 13.405 2.250000000000001 L 13.405 2.235852472259797 L 13.405 2.193587802409104 L 13.405 2.123737493193828 L 13.405 2.027179952780444 L 13.405 1.9051294482636407 L 13.405 1.7591208355530685 L 13.405 1.5909902576697332 L 13.405 1.402852054182152 L 13.405 1.197072172159509 L 13.405 0.9762384130145072 L 13.405 0.7431278893991274 L 13.405 0.500672101401709 L 13.405 0.2519200712324443 L 13.405 3.6153066075820835e-15 " stroke="#191919" stroke-width="0.35 px" style="stroke-width:0.35;stroke-miterlimit:4;stroke-dasharray:none;fill:none;fill-opacity:1;fill-rule: evenodd"/>
<path id="Shape2DView_nwe0049"  d="M 13.925 3.064215547965775e-15 L 13.925 -0.25192007123243976 L 13.925 -0.5006721014017047 L 13.925 -0.7431278893991234 L 13.925 -0.9762384130145035 L 13.925 -1.197072172159505 L 13.925 -1.4028520541821483 L 13.925 -1.5909902576697303 L 13.925 -1.7591208355530656 L 13.925 -1.9051294482636378 L 13.925 -2.027179952780442 L 13.925 -2.1237374931938255 L 13.925 -2.1935878024091022 L 13.925 -2.2358524722597943 L 13.925 -2.249999999999999 " stroke="#191919" stroke-width="0.35 px" style="stroke-width:0.35;stroke-miterlimit:4;stroke-dasharray:none;fill:none;fill-opacity:1;fill-rule: evenodd"/>
<path id="Shape2DView_nwe0050"  d="M 13.925 2.250000000000001 L 13.925 2.235852472259797 L 13.925 2.193587802409104 L 13.925 2.123737493193828 L 13.925 2.027179952780444 L 13.925 1.9051294482636407 L 13.925 1.7591208355530685 L 13.925 1.5909902576697332 L 13.925 1.402852054182152 L 13.925 1.197072172159509 L 13.925 0.9762384130145072 L 13.925 0.7431278893991274 L 13.925 0.500672101401709 L 13.925 0.2519200712324443 L 13.925 3.6153066075820835e-15 " stroke="#191919" stroke-width="0.35 px" style="stroke-width:0.35;stroke-miterlimit:4;stroke-dasharray:none;fill:none;fill-opacity:1;fill-rule: evenodd"/>
<path id="Shape2DView_nwe0051"  d="M 14.12 2.0150547896947e-15 L 14.12 -0.07557602136973086 L 14.12 -0.15020163042051035 L 14.12 -0.22293836681973597 L 14.12 -0.29287152390435 L 14.12 -0.35912165164785054 L 14.12 -0.42085561625464357 L 14.12 -0.47729707730091825 L 14.12 -0.5277362506659189 L 14.12 -0.5715388344790906 L 14.12 -0.6081539858341317 L 14.12 -0.637121247958147 L 14.12 -0.6580763407227299 L 14.12 -0.6707557416779377 L 14.12 -0.674999999999999 " stroke="#191919" stroke-width="0.35 px" style="stroke-width:0.35;stroke-miterlimit:4;stroke-dasharray:none;fill:none;fill-opacity:1;fill-rule: evenodd"/>
<path id="Shape2DView_nwe0052"  d="M 14.12 0.675000000000001 L 14.12 0.6707557416779397 L 14.12 0.658076340722732 L 14.12 0.6371212479581491 L 14.12 0.6081539858341339 L 14.12 0.5715388344790928 L 14.12 0.527736250665921 L 14.12 0.47729707730092064 L 14.12 0.4208556162546461 L 14.12 0.3591216516478532 L 14.12 0.2928715239043528 L 14.12 0.22293836681973878 L 14.12 0.1502016304205132 L 14.12 0.07557602136973379 L 14.12 2.1803821075795927e-15 " stroke="#191919" stroke-width="0.35 px" style="stroke-width:0.35;stroke-miterlimit:4;stroke-dasharray:none;fill:none;fill-opacity:1;fill-rule: evenodd"/>
<path id="Shape2DView_nwe0053"  d="M 14.790000000000001 8.211629929530309e-16 A 0.45 0.45 0 0 1 15.24 -0.45" stroke="#191919" stroke-width="0.35 px" style="stroke-width:0.35;stroke-miterlimit:4;stroke-dasharray:none;fill:none;fill-opacity:1;fill-rule: evenodd"/>
<path id="Shape2DView_nwe0054"  d="M 15.240000002696041 -0.44999999999999923 A 0.45 0.45 0 1 1 14.79 9.31381e-16" stroke="#191919" stroke-width="0.35 px" style="stroke-width:0.35;stroke-miterlimit:4;stroke-dasharray:none;fill:none;fill-opacity:1;fill-rule: evenodd"/>
<path id="Shape2DView_nwe0055"  d="M 0.8999926367929998 -0.44999999999999907 A 0.45 3.6816036791576315e-06 -90.0 0 1 0.8999926367929998 0.45000000000000095 " stroke="#191919" stroke-width="0.35 px" style="stroke-width:0.35;stroke-miterlimit:4;stroke-dasharray:none;fill:none;fill-opacity:1;fill-rule: evenodd"/>
<path id="Shape2DView_nwe0056"  d="M 14.34 0.45000000000000095 L 14.34 0.4387175604818216 L 14.34 0.40543599055608964 L 14.34 0.3518241671106145 L 14.34 0.28057041083643114 L 14.34 0.19524768260290226 L 14.34 0.1001344202803426 L 14.34 1.1209232096017807e-15 L 14.34 -0.10013442028034036 L 14.34 -0.19524768260290004 L 14.34 -0.28057041083642903 L 14.34 -0.3518241671106124 L 14.34 -0.4054359905560876 L 14.34 -0.4387175604818197 L 14.34 -0.44999999999999907 " stroke="#191919" stroke-width="0.35 px" style="stroke-width:0.35;stroke-miterlimit:4;stroke-dasharray:none;fill:none;fill-opacity:1;fill-rule: evenodd"/>
<path id="Shape2DView_nwe0057"  d="M 1.3149999999945123 3.06421554796179e-15 L 1.3007083823605967 2.989305679439865e-15 L 1.2864726041014194 2.9143910930809627e-15 L 1.272292668726692 2.8394718073550054e-15 L 1.2581685797324837 2.7645478407330734e-15 L 1.244100340600994 2.6896192116873923e-15 L 1.2300879548007515 2.614685938691346e-15 L 1.2161314257864149 2.5397480402194633e-15 L 1.2022307569989152 2.4648055347474067e-15 L 1.1883859518654276 2.3898584407519833e-15 L 1.1745970137993424 2.3149067767111207e-15 L 1.1608639462002657 2.2399505611038857e-15 L 1.1471867524540187 2.1649898124104557e-15 L 1.1335654359326952 2.0900245491121346e-15 L 1.1199999999944907 2.0150547896909963e-15 " stroke="#191919" stroke-width="0.35 px" style="stroke-width:0.35;stroke-miterlimit:4;stroke-dasharray:none;fill:none;fill-opacity:1;fill-rule: evenodd"/>
<path id="Shape2DView_nwe0058"  d="M 1.315 3.064215547965e-15 L 1.835 3.064215547965e-15 " stroke="#191919" stroke-width="0.35 px" style="stroke-width:0.35;stroke-miterlimit:4;stroke-dasharray:none;fill:none;fill-opacity:1;fill-rule: evenodd"/>
<path id="Shape2DView_nwe0059"  d="M 1.8350000000003746 3.064215547965778e-15 L 1.8443609443547335 3.0470687946012236e-15 L 1.8545030315736406 3.0301203134580605e-15 L 1.8654168149004617 3.013385891047805e-15 L 1.8770921287891094 2.9968811144988766e-15 L 1.8895180983726498 2.980621357038107e-15 L 1.9026831495926009 2.9646217636714842e-15 L 1.9165750199794864 2.9488972370774726e-15 L 1.9311807700746018 2.933462423726046e-15 L 1.9464867954823601 2.918331700236364e-15 L 1.9624788395419828 2.9035191599857974e-15 L 1.9791420066067398 2.8890385999827787e-15 L 1.9964607759183675 2.874903508015702e-15 L 2.014419016063739 2.8611270500898408e-15 L 2.033000000000327 2.847722058163992e-15 " stroke="#191919" stroke-width="0.35 px" style="stroke-width:0.35;stroke-miterlimit:4;stroke-dasharray:none;fill:none;fill-opacity:1;fill-rule: evenodd"/>
<path id="Shape2DView_nwe0060"  d="M 2.033 2.847722058164e-15 L 3.102353827913 2.847722058164e-15 " stroke="#191919" stroke-width="0.35 px" style="stroke-width:0.35;stroke-miterlimit:4;stroke-dasharray:none;fill:none;fill-opacity:1;fill-rule: evenodd"/>
<path id="Shape2DView_nwe0061"  d="M 3.639751435244462 2.8477220581632365e-15 L 3.6243670556999867 2.882100637748498e-15 L 3.5991745636542376 2.913806918750061e-15 L 3.5651493903209306 2.9416132617544206e-15 L 3.523608960592416 2.9644430295294803e-15 L 3.4761616835024176 2.9814122734746306e-15 L 3.4246446760378286 2.991863959335889e-15 L 3.371052631579 2.995393406996396e-15 L 3.3174605871201717 2.991863959335889e-15 L 3.2659435796555822 2.981412273474631e-15 L 3.2184963025655837 2.9644430295294803e-15 L 3.1769558728370697 2.941613261754421e-15 L 3.1429306995037622 2.913806918750061e-15 L 3.117738207458013 2.882100637748498e-15 L 3.1023538279135376 2.8477220581632365e-15 " stroke="#191919" stroke-width="0.35 px" style="stroke-width:0.35;stroke-miterlimit:4;stroke-dasharray:none;fill:none;fill-opacity:1;fill-rule: evenodd"/>
<path id="Shape2DView_nwe0062"  d="M 3.639751435245 2.847722058164e-15 L 4.197090670018 2.847722058164e-15 " stroke="#191919" stroke-width="0.35 px" style="stroke-width:0.35;stroke-miterlimit:4;stroke-dasharray:none;fill:none;fill-opacity:1;fill-rule: evenodd"/>
<path id="Shape2DView_nwe0063"  d="M 4.734488277349462 2.8477220581632365e-15 L 4.719103897804986 2.882100637748498e-15 L 4.693911405759237 2.913806918750061e-15 L 4.65988623242593 2.9416132617544206e-15 L 4.618345802697416 2.9644430295294803e-15 L 4.570898525607418 2.9814122734746306e-15 L 4.519381518142828 2.991863959335889e-15 L 4.465789473684 2.995393406996396e-15 L 4.412197429225172 2.991863959335889e-15 L 4.360680421760582 2.981412273474631e-15 L 4.313233144670583 2.9644430295294803e-15 L 4.271692714942069 2.941613261754421e-15 L 4.237667541608762 2.9138069187500614e-15 L 4.212475049563013 2.882100637748498e-15 L 4.197090670018538 2.8477220581632365e-15 " stroke="#191919" stroke-width="0.35 px" style="stroke-width:0.35;stroke-miterlimit:4;stroke-dasharray:none;fill:none;fill-opacity:1;fill-rule: evenodd"/>
<path id="Shape2DView_nwe0064"  d="M 4.73448827735 2.847722058164e-15 L 5.291827512124 2.847722058164e-15 " stroke="#191919" stroke-width="0.35 px" style="stroke-width:0.35;stroke-miterlimit:4;stroke-dasharray:none;fill:none;fill-opacity:1;fill-rule: evenodd"/>
<path id="Shape2DView_nwe0065"  d="M 5.829225119454462 2.8477220581632365e-15 L 5.813840739909992 2.8821006377484895e-15 L 5.788648247864252 2.913806918750046e-15 L 5.754623074530959 2.9416132617544017e-15 L 5.713082644802461 2.9644430295294602e-15 L 5.66563536771248 2.9814122734746132e-15 L 5.614118360247908 2.9918639593358783e-15 L 5.560526315789095 2.995393406996396e-15 L 5.506934271330278 2.991863959335903e-15 L 5.455417263865695 2.981412273474662e-15 L 5.407969986775696 2.964443029529531e-15 L 5.366429557047175 2.9416132617544912e-15 L 5.332404383713852 2.9138069187501517e-15 L 5.3072118916680795 2.8821006377486067e-15 L 5.291827512123573 2.8477220581633607e-15 " stroke="#191919" stroke-width="0.35 px" style="stroke-width:0.35;stroke-miterlimit:4;stroke-dasharray:none;fill:none;fill-opacity:1;fill-rule: evenodd"/>
<path id="Shape2DView_nwe0066"  d="M 5.829225119455 2.847722058164e-15 L 6.386564354229 2.847722058164e-15 " stroke="#191919" stroke-width="0.35 px" style="stroke-width:0.35;stroke-miterlimit:4;stroke-dasharray:none;fill:none;fill-opacity:1;fill-rule: evenodd"/>
<path id="Shape2DView_nwe0067"  d="M 6.923961961560463 2.8477220581632365e-15 L 6.908577582015987 2.882100637748498e-15 L 6.883385089970237 2.913806918750061e-15 L 6.849359916636931 2.9416132617544206e-15 L 6.807819486908416 2.9644430295294803e-15 L 6.760372209818418 2.9814122734746306e-15 L 6.708855202353829 2.991863959335889e-15 L 6.655263157895 2.995393406996396e-15 L 6.601671113436171 2.991863959335889e-15 L 6.550154105971583 2.981412273474631e-15 L 6.502706828881584 2.9644430295294803e-15 L 6.461166399153069 2.941613261754421e-15 L 6.427141225819763 2.913806918750061e-15 L 6.401948733774013 2.882100637748498e-15 L 6.386564354229537 2.8477220581632365e-15 " stroke="#191919" stroke-width="0.35 px" style="stroke-width:0.35;stroke-miterlimit:4;stroke-dasharray:none;fill:none;fill-opacity:1;fill-rule: evenodd"/>
<path id="Shape2DView_nwe0068"  d="M 6.923961961561 2.847722058164e-15 L 7.481301196334 2.847722058164e-15 " stroke="#191919" stroke-width="0.35 px" style="stroke-width:0.35;stroke-miterlimit:4;stroke-dasharray:none;fill:none;fill-opacity:1;fill-rule: evenodd"/>
<path id="Shape2DView_nwe0069"  d="M 8.018698803665462 2.8477220581632365e-15 L 8.003314424120987 2.882100637748498e-15 L 7.978121932075237 2.913806918750061e-15 L 7.944096758741931 2.9416132617544206e-15 L 7.902556329013416 2.9644430295294803e-15 L 7.855109051923418 2.9814122734746306e-15 L 7.803592044458829 2.991863959335889e-15 L 7.75 2.995393406996396e-15 L 7.696407955541171 2.991863959335889e-15 L 7.644890948076583 2.981412273474631e-15 L 7.597443670986584 2.9644430295294803e-15 L 7.555903241258069 2.941613261754421e-15 L 7.521878067924763 2.913806918750061e-15 L 7.496685575879013 2.882100637748498e-15 L 7.481301196334537 2.8477220581632365e-15 " stroke="#191919" stroke-width="0.35 px" style="stroke-width:0.35;stroke-miterlimit:4;stroke-dasharray:none;fill:none;fill-opacity:1;fill-rule: evenodd"/>
<path id="Shape2DView_nwe0070"  d="M 8.018698803666 2.847722058164e-15 L 8.576038038439 2.847722058164e-15 " stroke="#191919" stroke-width="0.35 px" style="stroke-width:0.35;stroke-miterlimit:4;stroke-dasharray:none;fill:none;fill-opacity:1;fill-rule: evenodd"/>
<path id="Shape2DView_nwe0071"  d="M 9.113435645770462 2.8477220581632365e-15 L 9.098051266225987 2.882100637748498e-15 L 9.072858774180238 2.913806918750061e-15 L 9.03883360084693 2.9416132617544206e-15 L 8.997293171118416 2.9644430295294803e-15 L 8.949845894028417 2.9814122734746306e-15 L 8.898328886563828 2.991863959335889e-15 L 8.844736842105 2.995393406996396e-15 L 8.791144797646172 2.991863959335889e-15 L 8.739627790181583 2.981412273474631e-15 L 8.692180513091584 2.9644430295294803e-15 L 8.65064008336307 2.941613261754421e-15 L 8.616614910029762 2.913806918750061e-15 L 8.591422417984013 2.882100637748498e-15 L 8.576038038439538 2.8477220581632365e-15 " stroke="#191919" stroke-width="0.35 px" style="stroke-width:0.35;stroke-miterlimit:4;stroke-dasharray:none;fill:none;fill-opacity:1;fill-rule: evenodd"/>
<path id="Shape2DView_nwe0072"  d="M 9.113435645771 2.847722058164e-15 L 9.670774880545 2.847722058164e-15 " stroke="#191919" stroke-width="0.35 px" style="stroke-width:0.35;stroke-miterlimit:4;stroke-dasharray:none;fill:none;fill-opacity:1;fill-rule: evenodd"/>
<path id="Shape2DView_nwe0073"  d="M 10.208172487876427 2.8477220581633607e-15 L 10.19278810833192 2.8821006377486067e-15 L 10.167595616286148 2.9138069187501517e-15 L 10.133570442952825 2.9416132617544912e-15 L 10.092030013224305 2.964443029529531e-15 L 10.044582736134306 2.981412273474662e-15 L 9.993065728669722 2.991863959335903e-15 L 9.939473684210906 2.995393406996396e-15 L 9.885881639752093 2.9918639593358783e-15 L 9.834364632287521 2.9814122734746136e-15 L 9.78691735519754 2.9644430295294602e-15 L 9.74537692546904 2.9416132617544017e-15 L 9.711351752135748 2.913806918750046e-15 L 9.686159260090008 2.8821006377484895e-15 L 9.670774880545538 2.8477220581632365e-15 " stroke="#191919" stroke-width="0.35 px" style="stroke-width:0.35;stroke-miterlimit:4;stroke-dasharray:none;fill:none;fill-opacity:1;fill-rule: evenodd"/>
<path id="Shape2DView_nwe0074"  d="M 10.208172487876 2.847722058164e-15 L 10.76551172265 2.847722058164e-15 " stroke="#191919" stroke-width="0.35 px" style="stroke-width:0.35;stroke-miterlimit:4;stroke-dasharray:none;fill:none;fill-opacity:1;fill-rule: evenodd"/>
<path id="Shape2DView_nwe0075"  d="M 11.302909329981462 2.8477220581632365e-15 L 11.287524950436987 2.882100637748498e-15 L 11.262332458391239 2.913806918750061e-15 L 11.22830728505793 2.9416132617544206e-15 L 11.186766855329417 2.9644430295294803e-15 L 11.139319578239418 2.9814122734746306e-15 L 11.087802570774828 2.991863959335889e-15 L 11.034210526316 2.995393406996396e-15 L 10.980618481857173 2.991863959335889e-15 L 10.929101474392583 2.981412273474631e-15 L 10.881654197302584 2.9644430295294803e-15 L 10.84011376757407 2.941613261754421e-15 L 10.806088594240762 2.913806918750061e-15 L 10.780896102195014 2.882100637748498e-15 L 10.765511722650539 2.8477220581632365e-15 " stroke="#191919" stroke-width="0.35 px" style="stroke-width:0.35;stroke-miterlimit:4;stroke-dasharray:none;fill:none;fill-opacity:1;fill-rule: evenodd"/>
<path id="Shape2DView_nwe0076"  d="M 11.302909329982 2.847722058164e-15 L 11.860248564755 2.847722058164e-15 " stroke="#191919" stroke-width="0.35 px" style="stroke-width:0.35;stroke-miterlimit:4;stroke-dasharray:none;fill:none;fill-opacity:1;fill-rule: evenodd"/>
<path id="Shape2DView_nwe0077"  d="M 12.397646172086462 2.8477220581632365e-15 L 12.382261792541987 2.882100637748498e-15 L 12.357069300496239 2.913806918750061e-15 L 12.32304412716293 2.9416132617544206e-15 L 12.281503697434417 2.9644430295294803e-15 L 12.234056420344418 2.9814122734746306e-15 L 12.182539412879828 2.991863959335889e-15 L 12.128947368421 2.995393406996396e-15 L 12.075355323962173 2.991863959335889e-15 L 12.023838316497583 2.981412273474631e-15 L 11.976391039407584 2.9644430295294803e-15 L 11.93485060967907 2.941613261754421e-15 L 11.900825436345762 2.913806918750061e-15 L 11.875632944300014 2.882100637748498e-15 L 11.860248564755539 2.8477220581632365e-15 " stroke="#191919" stroke-width="0.35 px" style="stroke-width:0.35;stroke-miterlimit:4;stroke-dasharray:none;fill:none;fill-opacity:1;fill-rule: evenodd"/>
<path id="Shape2DView_nwe0078"  d="M 12.397646172087 2.847722058164e-15 L 13.145 2.847722058164e-15 " stroke="#191919" stroke-width="0.35 px" style="stroke-width:0.35;stroke-miterlimit:4;stroke-dasharray:none;fill:none;fill-opacity:1;fill-rule: evenodd"/>
<path id="Shape2DView_nwe0079"  d="M 13.144999999999865 2.8477220581634936e-15 L 13.167794534299611 2.860650544694757e-15 L 13.190009857873834 2.8740189403171216e-15 L 13.211626845487366 2.887815736140826e-15 L 13.232626887014174 2.9020290544651583e-15 L 13.252991903458858 2.9166466590040027e-15 L 13.272704362520921 2.9316559654200936e-15 L 13.291747293688365 2.9470440521589055e-15 L 13.31010430284766 2.9627976715728585e-15 L 13.327759586397482 2.978903261326254e-15 L 13.344697944854076 2.9953469560711278e-15 L 13.360904795936536 3.012114599383969e-15 L 13.376366187120734 3.0291917559530247e-15 L 13.391068807651083 3.0465637240056993e-15 L 13.40499999999981 3.0642155479653553e-15 " stroke="#191919" stroke-width="0.35 px" style="stroke-width:0.35;stroke-miterlimit:4;stroke-dasharray:none;fill:none;fill-opacity:1;fill-rule: evenodd"/>
<path id="Shape2DView_nwe0080"  d="M 13.405 3.064215547965e-15 L 13.925 3.064215547965e-15 " stroke="#191919" stroke-width="0.35 px" style="stroke-width:0.35;stroke-miterlimit:4;stroke-dasharray:none;fill:none;fill-opacity:1;fill-rule: evenodd"/>
<path id="Shape2DView_nwe0081"  d="M 14.120000000054802 2.015054789694912e-15 L 14.106434564116654 2.090024549115754e-15 L 14.092813247595302 2.1649898124141192e-15 L 14.079136053849055 2.239950561107584e-15 L 14.065402986249978 2.314906776714863e-15 L 14.051614048183865 2.3898584407557635e-15 L 14.037769243050377 2.464805534751228e-15 L 14.023868574262877 2.5397480402233193e-15 L 14.009912045248512 2.614685938695246e-15 L 13.99589965944827 2.689619211691327e-15 L 13.98183142031678 2.7645478407370492e-15 L 13.967707331322572 2.8394718073590255e-15 L 13.953527395947845 2.9143910930850238e-15 L 13.939291617688639 2.9893056794439703e-15 L 13.925000000054723 3.0642155479659426e-15 " stroke="#191919" stroke-width="0.35 px" style="stroke-width:0.35;stroke-miterlimit:4;stroke-dasharray:none;fill:none;fill-opacity:1;fill-rule: evenodd"/>
<path id="Shape2DView_nwe0082"  d="M 1.3149999999945123 -2.2500000000007288 L 1.1199999999944907 -0.6750000000007081 " stroke="#191919" stroke-width="0.35 px" style="stroke-width:0.35;stroke-miterlimit:4;stroke-dasharray:none;fill:none;fill-opacity:1;fill-rule: evenodd"/>
<path id="Shape2DView_nwe0083"  d="M 1.3149999999945123 2.2500000000007305 L 1.1199999999944907 0.6750000000007099 " stroke="#191919" stroke-width="0.35 px" style="stroke-width:0.35;stroke-miterlimit:4;stroke-dasharray:none;fill:none;fill-opacity:1;fill-rule: evenodd"/>
<path id="Shape2DView_nwe0084"  d="M 1.315 -2.249999999999999 L 1.835 -2.249999999999999 " stroke="#191919" stroke-width="0.35 px" style="stroke-width:0.35;stroke-miterlimit:4;stroke-dasharray:none;fill:none;fill-opacity:1;fill-rule: evenodd"/>
<path id="Shape2DView_nwe0085"  d="M 1.315 2.250000000000001 L 1.835 2.250000000000001 " stroke="#191919" stroke-width="0.35 px" style="stroke-width:0.35;stroke-miterlimit:4;stroke-dasharray:none;fill:none;fill-opacity:1;fill-rule: evenodd"/>
<path id="Shape2DView_nwe0086"  d="M 1.8350000000003746 -2.2500000000001283 L 2.033000000000327 -1.9250000000003111 " stroke="#191919" stroke-width="0.35 px" style="stroke-width:0.35;stroke-miterlimit:4;stroke-dasharray:none;fill:none;fill-opacity:1;fill-rule: evenodd"/>
<path id="Shape2DView_nwe0087"  d="M 1.8350000000003746 2.25000000000013 L 2.033000000000327 1.925000000000313 " stroke="#191919" stroke-width="0.35 px" style="stroke-width:0.35;stroke-miterlimit:4;stroke-dasharray:none;fill:none;fill-opacity:1;fill-rule: evenodd"/>
<path id="Shape2DView_nwe0088"  d="M 0.8999926367917488 -0.44999999999999907 L 1.12 -0.44999999999999907 " stroke="#191919" stroke-width="0.35 px" style="stroke-width:0.35;stroke-miterlimit:4;stroke-dasharray:none;fill:none;fill-opacity:1;fill-rule: evenodd"/>
<path id="Shape2DView_nwe0089"  d="M 0.8999926367917488 0.45000000000000095 L 1.12 0.45000000000000095 " stroke="#191919" stroke-width="0.35 px" style="stroke-width:0.35;stroke-miterlimit:4;stroke-dasharray:none;fill:none;fill-opacity:1;fill-rule: evenodd"/>
<path id="Shape2DView_nwe0090"  d="M 2.033 -1.924999999999999 L 3.102353827913 -1.924999999999999 " stroke="#191919" stroke-width="0.35 px" style="stroke-width:0.35;stroke-miterlimit:4;stroke-dasharray:none;fill:none;fill-opacity:1;fill-rule: evenodd"/>
<path id="Shape2DView_nwe0091"  d="M 2.033 1.9250000000000012 L 3.102353827913 1.9250000000000012 " stroke="#191919" stroke-width="0.35 px" style="stroke-width:0.35;stroke-miterlimit:4;stroke-dasharray:none;fill:none;fill-opacity:1;fill-rule: evenodd"/>
<path id="Shape2DView_nwe0092"  d="M 0.899992636793358 -0.449999999999999 Q 0.08001121320524934 -0.44999999999999896 1.432187701766452e-14 -0.44999999999999923 " stroke="#191919" stroke-width="0.35 px" style="stroke-width:0.35;stroke-miterlimit:4;stroke-dasharray:none;fill:none;fill-opacity:1;fill-rule: evenodd"/>
<path id="Shape2DView_nwe0093"  d="M 0.899992636793358 0.450000000000001 Q 0.08001121320743049 0.45000000000000095 -1.5432100042289676e-14 0.4500000000000008 " stroke="#191919" stroke-width="0.35 px" style="stroke-width:0.35;stroke-miterlimit:4;stroke-dasharray:none;fill:none;fill-opacity:1;fill-rule: evenodd"/>
<path id="Shape2DView_nwe0094"  d="M 3.639751435244462 1.9249999999998972 Q 3.376304834361556 2.3575046624005056 3.1023538279135376 1.9249999999998975 " stroke="#191919" stroke-width="0.35 px" style="stroke-width:0.35;stroke-miterlimit:4;stroke-dasharray:none;fill:none;fill-opacity:1;fill-rule: evenodd"/>
<path id="Shape2DView_nwe0095"  d="M 3.639751435244462 -1.9249999999998955 Q 3.376304834361556 -2.357504662400504 3.1023538279135376 -1.9249999999998955 " stroke="#191919" stroke-width="0.35 px" style="stroke-width:0.35;stroke-miterlimit:4;stroke-dasharray:none;fill:none;fill-opacity:1;fill-rule: evenodd"/>
<path id="Shape2DView_nwe0096"  d="M 3.639751435245 -1.924999999999999 L 4.197090670018 -1.924999999999999 " stroke="#191919" stroke-width="0.35 px" style="stroke-width:0.35;stroke-miterlimit:4;stroke-dasharray:none;fill:none;fill-opacity:1;fill-rule: evenodd"/>
<path id="Shape2DView_nwe0097"  d="M 3.639751435245 1.9250000000000012 L 4.197090670018 1.9250000000000012 " stroke="#191919" stroke-width="0.35 px" style="stroke-width:0.35;stroke-miterlimit:4;stroke-dasharray:none;fill:none;fill-opacity:1;fill-rule: evenodd"/>
<path id="Shape2DView_nwe0098"  d="M 4.734488277349462 1.9249999999998972 Q 4.471041676466554 2.3575046624005056 4.197090670018538 1.924999999999897 " stroke="#191919" stroke-width="0.35 px" style="stroke-width:0.35;stroke-miterlimit:4;stroke-dasharray:none;fill:none;fill-opacity:1;fill-rule: evenodd"/>
<path id="Shape2DView_nwe0099"  d="M 4.734488277349462 -1.9249999999998955 Q 4.471041676466554 -2.357504662400504 4.197090670018538 -1.9249999999998957 " stroke="#191919" stroke-width="0.35 px" style="stroke-width:0.35;stroke-miterlimit:4;stroke-dasharray:none;fill:none;fill-opacity:1;fill-rule: evenodd"/>
<path id="Shape2DView_nwe0100"  d="M 4.73448827735 -1.924999999999999 L 5.291827512124 -1.924999999999999 " stroke="#191919" stroke-width="0.35 px" style="stroke-width:0.35;stroke-miterlimit:4;stroke-dasharray:none;fill:none;fill-opacity:1;fill-rule: evenodd"/>
<path id="Shape2DView_nwe0101"  d="M 4.73448827735 1.9250000000000012 L 5.291827512124 1.9250000000000012 " stroke="#191919" stroke-width="0.35 px" style="stroke-width:0.35;stroke-miterlimit:4;stroke-dasharray:none;fill:none;fill-opacity:1;fill-rule: evenodd"/>
<path id="Shape2DView_nwe0102"  d="M 5.829225119454462 1.9249999999998972 Q 5.565778518571721 2.3575046624004203 5.2918275121235725 1.9250000000000838 " stroke="#191919" stroke-width="0.35 px" style="stroke-width:0.35;stroke-miterlimit:4;stroke-dasharray:none;fill:none;fill-opacity:1;fill-rule: evenodd"/>
<path id="Shape2DView_nwe0103"  d="M 5.829225119454462 -1.9249999999998955 Q 5.565778518571721 -2.3575046624004186 5.2918275121235725 -1.925000000000082 " stroke="#191919" stroke-width="0.35 px" style="stroke-width:0.35;stroke-miterlimit:4;stroke-dasharray:none;fill:none;fill-opacity:1;fill-rule: evenodd"/>
<path id="Shape2DView_nwe0104"  d="M 5.829225119455 -1.924999999999999 L 6.386564354229 -1.924999999999999 " stroke="#191919" stroke-width="0.35 px" style="stroke-width:0.35;stroke-miterlimit:4;stroke-dasharray:none;fill:none;fill-opacity:1;fill-rule: evenodd"/>
<path id="Shape2DView_nwe0105"  d="M 5.829225119455 1.9250000000000012 L 6.386564354229 1.9250000000000012 " stroke="#191919" stroke-width="0.35 px" style="stroke-width:0.35;stroke-miterlimit:4;stroke-dasharray:none;fill:none;fill-opacity:1;fill-rule: evenodd"/>
<path id="Shape2DView_nwe0106"  d="M 6.923961961560426 1.9250000000000838 Q 6.660515360677255 2.3575046624004257 6.386564354229537 1.9249999999998972 " stroke="#191919" stroke-width="0.35 px" style="stroke-width:0.35;stroke-miterlimit:4;stroke-dasharray:none;fill:none;fill-opacity:1;fill-rule: evenodd"/>
<path id="Shape2DView_nwe0107"  d="M 6.923961961560426 -1.925000000000082 Q 6.660515360677255 -2.357504662400424 6.386564354229537 -1.9249999999998955 " stroke="#191919" stroke-width="0.35 px" style="stroke-width:0.35;stroke-miterlimit:4;stroke-dasharray:none;fill:none;fill-opacity:1;fill-rule: evenodd"/>
<path id="Shape2DView_nwe0108"  d="M 6.92396196156 -1.924999999999999 L 7.481301196334 -1.924999999999999 " stroke="#191919" stroke-width="0.35 px" style="stroke-width:0.35;stroke-miterlimit:4;stroke-dasharray:none;fill:none;fill-opacity:1;fill-rule: evenodd"/>
<path id="Shape2DView_nwe0109"  d="M 6.92396196156 1.9250000000000012 L 7.481301196334 1.9250000000000012 " stroke="#191919" stroke-width="0.35 px" style="stroke-width:0.35;stroke-miterlimit:4;stroke-dasharray:none;fill:none;fill-opacity:1;fill-rule: evenodd"/>
<path id="Shape2DView_nwe0110"  d="M 8.018698803665462 1.9249999999998972 Q 7.755252202782556 2.3575046624005056 7.481301196334538 1.924999999999897 " stroke="#191919" stroke-width="0.35 px" style="stroke-width:0.35;stroke-miterlimit:4;stroke-dasharray:none;fill:none;fill-opacity:1;fill-rule: evenodd"/>
<path id="Shape2DView_nwe0111"  d="M 8.018698803665462 -1.9249999999998955 Q 7.755252202782556 -2.357504662400504 7.481301196334538 -1.9249999999998952 " stroke="#191919" stroke-width="0.35 px" style="stroke-width:0.35;stroke-miterlimit:4;stroke-dasharray:none;fill:none;fill-opacity:1;fill-rule: evenodd"/>
<path id="Shape2DView_nwe0112"  d="M 8.018698803666 -1.924999999999999 L 8.576038038439 -1.924999999999999 " stroke="#191919" stroke-width="0.35 px" style="stroke-width:0.35;stroke-miterlimit:4;stroke-dasharray:none;fill:none;fill-opacity:1;fill-rule: evenodd"/>
<path id="Shape2DView_nwe0113"  d="M 8.018698803666 1.9250000000000012 L 8.576038038439 1.9250000000000012 " stroke="#191919" stroke-width="0.35 px" style="stroke-width:0.35;stroke-miterlimit:4;stroke-dasharray:none;fill:none;fill-opacity:1;fill-rule: evenodd"/>
<path id="Shape2DView_nwe0114"  d="M 9.113435645770462 1.9249999999998972 Q 8.849989044887554 2.3575046624005056 8.576038038439538 1.9249999999998975 " stroke="#191919" stroke-width="0.35 px" style="stroke-width:0.35;stroke-miterlimit:4;stroke-dasharray:none;fill:none;fill-opacity:1;fill-rule: evenodd"/>
<path id="Shape2DView_nwe0115"  d="M 9.113435645770462 -1.9249999999998955 Q 8.849989044887554 -2.357504662400504 8.576038038439538 -1.9249999999998955 " stroke="#191919" stroke-width="0.35 px" style="stroke-width:0.35;stroke-miterlimit:4;stroke-dasharray:none;fill:none;fill-opacity:1;fill-rule: evenodd"/>
<path id="Shape2DView_nwe0116"  d="M 9.113435645771 -1.924999999999999 L 9.670774880545 -1.924999999999999 " stroke="#191919" stroke-width="0.35 px" style="stroke-width:0.35;stroke-miterlimit:4;stroke-dasharray:none;fill:none;fill-opacity:1;fill-rule: evenodd"/>
<path id="Shape2DView_nwe0117"  d="M 9.113435645771 1.9250000000000012 L 9.670774880545 1.9250000000000012 " stroke="#191919" stroke-width="0.35 px" style="stroke-width:0.35;stroke-miterlimit:4;stroke-dasharray:none;fill:none;fill-opacity:1;fill-rule: evenodd"/>
<path id="Shape2DView_nwe0118"  d="M 10.208172487876427 1.9250000000000838 Q 9.944725886993385 2.357504662400424 9.670774880545538 1.9249999999998972 " stroke="#191919" stroke-width="0.35 px" style="stroke-width:0.35;stroke-miterlimit:4;stroke-dasharray:none;fill:none;fill-opacity:1;fill-rule: evenodd"/>
<path id="Shape2DView_nwe0119"  d="M 10.208172487876427 -1.925000000000082 Q 9.944725886993385 -2.357504662400423 9.670774880545538 -1.9249999999998957 " stroke="#191919" stroke-width="0.35 px" style="stroke-width:0.35;stroke-miterlimit:4;stroke-dasharray:none;fill:none;fill-opacity:1;fill-rule: evenodd"/>
<path id="Shape2DView_nwe0120"  d="M 10.208172487876 -1.924999999999999 L 10.76551172265 -1.924999999999999 " stroke="#191919" stroke-width="0.35 px" style="stroke-width:0.35;stroke-miterlimit:4;stroke-dasharray:none;fill:none;fill-opacity:1;fill-rule: evenodd"/>
<path id="Shape2DView_nwe0121"  d="M 10.208172487876 1.9250000000000012 L 10.76551172265 1.9250000000000012 " stroke="#191919" stroke-width="0.35 px" style="stroke-width:0.35;stroke-miterlimit:4;stroke-dasharray:none;fill:none;fill-opacity:1;fill-rule: evenodd"/>
<path id="Shape2DView_nwe0122"  d="M 11.302909329981462 1.9249999999998972 Q 11.03946272909856 2.3575046624005056 10.765511722650539 1.924999999999897 " stroke="#191919" stroke-width="0.35 px" style="stroke-width:0.35;stroke-miterlimit:4;stroke-dasharray:none;fill:none;fill-opacity:1;fill-rule: evenodd"/>
<path id="Shape2DView_nwe0123"  d="M 11.302909329981462 -1.9249999999998955 Q 11.03946272909856 -2.357504662400504 10.765511722650539 -1.9249999999998957 " stroke="#191919" stroke-width="0.35 px" style="stroke-width:0.35;stroke-miterlimit:4;stroke-dasharray:none;fill:none;fill-opacity:1;fill-rule: evenodd"/>
<path id="Shape2DView_nwe0124"  d="M 11.302909329982 -1.924999999999999 L 11.860248564755 -1.924999999999999 " stroke="#191919" stroke-width="0.35 px" style="stroke-width:0.35;stroke-miterlimit:4;stroke-dasharray:none;fill:none;fill-opacity:1;fill-rule: evenodd"/>
<path id="Shape2DView_nwe0125"  d="M 11.302909329982 1.9250000000000012 L 11.860248564755 1.9250000000000012 " stroke="#191919" stroke-width="0.35 px" style="stroke-width:0.35;stroke-miterlimit:4;stroke-dasharray:none;fill:none;fill-opacity:1;fill-rule: evenodd"/>
<path id="Shape2DView_nwe0126"  d="M 12.397646172086462 1.9249999999998972 Q 12.13419957120356 2.3575046624005056 11.860248564755539 1.924999999999897 " stroke="#191919" stroke-width="0.35 px" style="stroke-width:0.35;stroke-miterlimit:4;stroke-dasharray:none;fill:none;fill-opacity:1;fill-rule: evenodd"/>
<path id="Shape2DView_nwe0127"  d="M 12.397646172086462 -1.9249999999998955 Q 12.13419957120356 -2.357504662400504 11.860248564755539 -1.9249999999998957 " stroke="#191919" stroke-width="0.35 px" style="stroke-width:0.35;stroke-miterlimit:4;stroke-dasharray:none;fill:none;fill-opacity:1;fill-rule: evenodd"/>
<path id="Shape2DView_nwe0128"  d="M 12.397646172087 -1.924999999999999 L 13.145 -1.924999999999999 " stroke="#191919" stroke-width="0.35 px" style="stroke-width:0.35;stroke-miterlimit:4;stroke-dasharray:none;fill:none;fill-opacity:1;fill-rule: evenodd"/>
<path id="Shape2DView_nwe0129"  d="M 12.397646172087 1.9250000000000012 L 13.145 1.9250000000000012 " stroke="#191919" stroke-width="0.35 px" style="stroke-width:0.35;stroke-miterlimit:4;stroke-dasharray:none;fill:none;fill-opacity:1;fill-rule: evenodd"/>
<path id="Shape2DView_nwe0130"  d="M 13.144999999999865 -1.9250000000001637 L 13.40499999999981 -2.2500000000000946 " stroke="#191919" stroke-width="0.35 px" style="stroke-width:0.35;stroke-miterlimit:4;stroke-dasharray:none;fill:none;fill-opacity:1;fill-rule: evenodd"/>
<path id="Shape2DView_nwe0131"  d="M 13.144999999999865 1.9250000000001655 L 13.40499999999981 2.2500000000000964 " stroke="#191919" stroke-width="0.35 px" style="stroke-width:0.35;stroke-miterlimit:4;stroke-dasharray:none;fill:none;fill-opacity:1;fill-rule: evenodd"/>
<path id="Shape2DView_nwe0132"  d="M 13.405 -2.249999999999999 L 13.925 -2.249999999999999 " stroke="#191919" stroke-width="0.35 px" style="stroke-width:0.35;stroke-miterlimit:4;stroke-dasharray:none;fill:none;fill-opacity:1;fill-rule: evenodd"/>
<path id="Shape2DView_nwe0133"  d="M 13.405 2.250000000000001 L 13.925 2.250000000000001 " stroke="#191919" stroke-width="0.35 px" style="stroke-width:0.35;stroke-miterlimit:4;stroke-dasharray:none;fill:none;fill-opacity:1;fill-rule: evenodd"/>
<path id="Shape2DView_nwe0134"  d="M 14.120000000054802 -0.6750000000065914 L 13.925000000054723 -2.25000000000696 " stroke="#191919" stroke-width="0.35 px" style="stroke-width:0.35;stroke-miterlimit:4;stroke-dasharray:none;fill:none;fill-opacity:1;fill-rule: evenodd"/>
<path id="Shape2DView_nwe0135"  d="M 14.120000000054802 0.6750000000065932 L 13.925000000054723 2.250000000006962 " stroke="#191919" stroke-width="0.35 px" style="stroke-width:0.35;stroke-miterlimit:4;stroke-dasharray:none;fill:none;fill-opacity:1;fill-rule: evenodd"/>
<path id="Shape2DView_nwe0136"  d="M 14.12 -0.44999999999999907 L 14.34 -0.44999999999999907 " stroke="#191919" stroke-width="0.35 px" style="stroke-width:0.35;stroke-miterlimit:4;stroke-dasharray:none;fill:none;fill-opacity:1;fill-rule: evenodd"/>
<path id="Shape2DView_nwe0137"  d="M 14.12 0.45000000000000095 L 14.34 0.45000000000000095 " stroke="#191919" stroke-width="0.35 px" style="stroke-width:0.35;stroke-miterlimit:4;stroke-dasharray:none;fill:none;fill-opacity:1;fill-rule: evenodd"/>
<path id="Shape2DView_nwe0138"  d="M 14.34 0.450000000000001 Q 15.160018522508185 0.45000000000000506 15.240000065490555 0.449999999999996 " stroke="#191919" stroke-width="0.35 px" style="stroke-width:0.35;stroke-miterlimit:4;stroke-dasharray:none;fill:none;fill-opacity:1;fill-rule: evenodd"/>
<path id="Shape2DView_nwe0139"  d="M 14.34 -0.449999999999999 Q 15.160035561089872 -0.44999999999999907 15.2399999999765 -0.44999999999999923 " stroke="#191919" stroke-width="0.35 px" style="stroke-width:0.35;stroke-miterlimit:4;stroke-dasharray:none;fill:none;fill-opacity:1;fill-rule: evenodd"/>
<path id="Shape2DView_nwe0140"  d="M 15.239999999976503 -0.44999999999999923 L 15.24000000269604 -0.44999999999999923 " stroke="#191919" stroke-width="0.35 px" style="stroke-width:0.35;stroke-miterlimit:4;stroke-dasharray:none;fill:none;fill-opacity:1;fill-rule: evenodd"/>
<title>b'Shape2DView'</title>
</g>
<g id="Rectangle" transform="translate(0.608071,2.411352) scale(1,-1)">
<rect fill="#ff0000" id="origin" width="1" height="1" x="0" y="0" />
<title>b'Rectangle'</title>
</g>
</svg>