<?xml version="1.0"?>
<!DOCTYPE svg PUBLIC "-//W3C//DTD SVG 1.1//EN" "http://www.w3.org/Graphics/SVG/1.1/DTD/svg11.dtd">
<svg width="11.986262833819007mm" height="7.73481638524946mm" viewBox="0 0 11.986262833819007 7.73481638524946" xmlns="http://www.w3.org/2000/svg" version="1.1">
<g id="Shape2DView" transform="translate(3.851667,3.867408) scale(1,-1)">
<path id="Shape2DView_nwe0000"  d="M 3.728605637500431 -0.3999999999999959 A 3.75 3.75 0 1 0 3.72861 0.4" stroke="#191919" stroke-width="0.35 px" style="stroke-width:0.35;stroke-miterlimit:4;stroke-dasharray:none;fill:none;fill-opacity:1;fill-rule: evenodd"/>
<circle cx="0.0" cy="7.15498513899e-15" r="0.4" stroke="#191919" stroke-width="0.35 px" style="stroke-width:0.35;stroke-miterlimit:4;stroke-dasharray:none;fill:none"/>
<path id="Shape2DView_nwe0002"  d="M -1.2765276307698857e-14 0.4000000000000044 A 0.4 0.4 0 0 1 1.27163e-14 -0.4" stroke="#191919" stroke-width="0.35 px" style="stroke-width:0.35;stroke-miterlimit:4;stroke-dasharray:none;fill:none;fill-opacity:1;fill-rule: evenodd"/>
<path id="Shape2DView_nwe0003"  d="M 7.619999999999988 -0.39999999999999564 A 0.4 0.4 0 0 1 7.62 0.4" stroke="#191919" stroke-width="0.35 px" style="stroke-width:0.35;stroke-miterlimit:4;stroke-dasharray:none;fill:none;fill-opacity:1;fill-rule: evenodd"/>
<path id="Shape2DView_nwe0005"  d="M 0.800010962126 -0.39999999999999547 A 0.4 5.48106289646065e-06 90.0 0 0 0.800010962126 0.4000000000000046 " stroke="#191919" stroke-width="0.35 px" style="stroke-width:0.35;stroke-miterlimit:4;stroke-dasharray:none;fill:none;fill-opacity:1;fill-rule: evenodd"/>
<path id="Shape2DView_nwe0006"  d="M 6.82 0.4000000000000046 L 6.82 0.38997116487273403 L 6.82 0.36038754716097227 L 6.82 0.3127325929872166 L 6.82 0.2493959207434981 L 6.82 0.17355349564702793 L 6.82 0.08900837358253044 L 6.82 4.689718114898894e-15 L 6.82 -0.08900837358252109 L 6.82 -0.17355349564701858 L 6.82 -0.24939592074348874 L 6.82 -0.3127325929872073 L 6.82 -0.36038754716096305 L 6.82 -0.38997116487272493 L 6.82 -0.39999999999999547 " stroke="#191919" stroke-width="0.35 px" style="stroke-width:0.35;stroke-miterlimit:4;stroke-dasharray:none;fill:none;fill-opacity:1;fill-rule: evenodd"/>
<path id="Shape2DView_nwe0007"  d="M 0.8000109621262065 -0.39999999999999547 Q 0.688413352643803 -0.39999999999999547 0.5768157431613994 -0.39999999999999547 Q 0.49846861986332347 -0.39999999999999547 0.4201214965652475 -0.3999999999999955 Q 0.016641172710089358 -0.3999999999999956 1.2878587085651816e-14 -0.3999999999999957 " stroke="#191919" stroke-width="0.35 px" style="stroke-width:0.35;stroke-miterlimit:4;stroke-dasharray:none;fill:none;fill-opacity:1;fill-rule: evenodd"/>
<path id="Shape2DView_nwe0008"  d="M 0.8000109621262065 0.4000000000000046 Q 0.7127527839662888 0.4000000000000046 0.6254946058063711 0.4000000000000046 Q 0.5396018030699835 0.40000000000000474 0.45370900033359574 0.4000000000000046 Q 0.019659067048781592 0.4000000000000046 -1.2878587085651816e-14 0.4000000000000044 " stroke="#191919" stroke-width="0.35 px" style="stroke-width:0.35;stroke-miterlimit:4;stroke-dasharray:none;fill:none;fill-opacity:1;fill-rule: evenodd"/>
<path id="Shape2DView_nwe0009"  d="M 0.8000109621278635 -0.39999999999999547 L 6.82 -0.39999999999999547 " stroke="#191919" stroke-width="0.35 px" style="stroke-width:0.35;stroke-miterlimit:4;stroke-dasharray:none;fill:none;fill-opacity:1;fill-rule: evenodd"/>
<path id="Shape2DView_nwe0010"  d="M 0.8000109621278635 0.4000000000000046 L 6.82 0.4000000000000046 " stroke="#191919" stroke-width="0.35 px" style="stroke-width:0.35;stroke-miterlimit:4;stroke-dasharray:none;fill:none;fill-opacity:1;fill-rule: evenodd"/>
<path id="Shape2DView_nwe0011"  d="M 6.82 0.4000000000000046 Q 7.542183088677196 0.4000000000000047 7.620000000000013 0.4000000000000044 " stroke="#191919" stroke-width="0.35 px" style="stroke-width:0.35;stroke-miterlimit:4;stroke-dasharray:none;fill:none;fill-opacity:1;fill-rule: evenodd"/>
<path id="Shape2DView_nwe0012"  d="M 6.82 -0.39999999999999547 Q 7.548877560015171 -0.39999999999999536 7.619999999999987 -0.39999999999999564 " stroke="#191919" stroke-width="0.35 px" style="stroke-width:0.35;stroke-miterlimit:4;stroke-dasharray:none;fill:none;fill-opacity:1;fill-rule: evenodd"/>
<title>b'Shape2DView'</title>
</g>
<g id="Rectangle" transform="translate(3.851667,3.867408) scale(1,-1)">
<rect fill="#ff0000" id="origin" width="1" height="1" x="0" y="0" />
<title>b'Rectangle'</title>
</g>
</svg>