<?xml version="1.0"?>
<!DOCTYPE svg PUBLIC "-//W3C//DTD SVG 1.1//EN" "http://www.w3.org/Graphics/SVG/1.1/DTD/svg11.dtd">
<svg width="9.44801094128822mm" height="7.6672324848604285mm" viewBox="0 0 9.44801094128822 7.6672324848604285" xmlns="http://www.w3.org/2000/svg" version="1.1">
<g id="Shape2DView" transform="translate(3.828664,3.833616) scale(1,-1)">
<path id="Shape2DView_nwe0000"  d="M 3.722902093797256 -0.449999999999994 A 3.75 3.75 0 1 0 3.7229 0.45" stroke="#191919" stroke-width="0.35 px" style="stroke-width:0.35;stroke-miterlimit:4;stroke-dasharray:none;fill:none;fill-opacity:1;fill-rule: evenodd"/>
<circle cx="0.0" cy="1.071133413956e-14" r="0.45" stroke="#191919" stroke-width="0.35 px" style="stroke-width:0.35;stroke-miterlimit:4;stroke-dasharray:none;fill:none"/>
<path id="Shape2DView_nwe0002"  d="M -1.5360136568323856e-14 0.45000000000000623 A 0.45 0.45 0 0 1 1.43058e-14 -0.45" stroke="#191919" stroke-width="0.35 px" style="stroke-width:0.35;stroke-miterlimit:4;stroke-dasharray:none;fill:none;fill-opacity:1;fill-rule: evenodd"/>
<path id="Shape2DView_nwe0003"  d="M 5.079999999999986 -0.4499999999999938 A 0.45 0.45 0 0 1 5.08 0.45" stroke="#191919" stroke-width="0.35 px" style="stroke-width:0.35;stroke-miterlimit:4;stroke-dasharray:none;fill:none;fill-opacity:1;fill-rule: evenodd"/>
<path id="Shape2DView_nwe0005"  d="M 0.900013123182 -0.4499999999999936 A 0.45 6.561590756019983e-06 90.0 0 0 0.900013123182 0.4500000000000064 " stroke="#191919" stroke-width="0.35 px" style="stroke-width:0.35;stroke-miterlimit:4;stroke-dasharray:none;fill:none;fill-opacity:1;fill-rule: evenodd"/>
<path id="Shape2DView_nwe0006"  d="M 4.18 0.4500000000000064 L 4.18 0.43871756048182703 L 4.18 0.4054359905560951 L 4.18 0.3518241671106199 L 4.18 0.2805704108364366 L 4.18 0.19524768260290767 L 4.18 0.10013442028034802 L 4.18 6.549913800018881e-15 L 4.18 -0.10013442028033494 L 4.18 -0.19524768260289463 L 4.18 -0.2805704108364236 L 4.18 -0.35182416711060693 L 4.18 -0.40543599055608215 L 4.18 -0.43871756048181426 L 4.18 -0.4499999999999936 " stroke="#191919" stroke-width="0.35 px" style="stroke-width:0.35;stroke-miterlimit:4;stroke-dasharray:none;fill:none;fill-opacity:1;fill-rule: evenodd"/>
<path id="Shape2DView_nwe0007"  d="M 0.9000131231824873 -0.44999999999999357 Q 0.7710756326009162 -0.44999999999999357 0.642138142019345 -0.4499999999999936 Q 0.5359483534376152 -0.4499999999999936 0.4297585648558852 -0.4499999999999937 Q 0.015259628498817845 -0.4499999999999937 1.432187701766452e-14 -0.44999999999999385 " stroke="#191919" stroke-width="0.35 px" style="stroke-width:0.35;stroke-miterlimit:4;stroke-dasharray:none;fill:none;fill-opacity:1;fill-rule: evenodd"/>
<path id="Shape2DView_nwe0008"  d="M 0.9000131231824873 0.45000000000000645 Q 0.6679065894103248 0.4500000000000064 0.4358000556381623 0.45000000000000634 Q 0.015722891700279407 0.4500000000000063 -1.5432100042289676e-14 0.4500000000000062 " stroke="#191919" stroke-width="0.35 px" style="stroke-width:0.35;stroke-miterlimit:4;stroke-dasharray:none;fill:none;fill-opacity:1;fill-rule: evenodd"/>
<path id="Shape2DView_nwe0009"  d="M 0.900013123184231 -0.4499999999999936 L 4.18 -0.4499999999999936 " stroke="#191919" stroke-width="0.35 px" style="stroke-width:0.35;stroke-miterlimit:4;stroke-dasharray:none;fill:none;fill-opacity:1;fill-rule: evenodd"/>
<path id="Shape2DView_nwe0010"  d="M 0.900013123184231 0.4500000000000064 L 4.18 0.4500000000000064 " stroke="#191919" stroke-width="0.35 px" style="stroke-width:0.35;stroke-miterlimit:4;stroke-dasharray:none;fill:none;fill-opacity:1;fill-rule: evenodd"/>
<path id="Shape2DView_nwe0011"  d="M 4.18 0.45000000000000645 Q 4.992456377014519 0.4500000000000065 5.080000000000014 0.45000000000000623 " stroke="#191919" stroke-width="0.35 px" style="stroke-width:0.35;stroke-miterlimit:4;stroke-dasharray:none;fill:none;fill-opacity:1;fill-rule: evenodd"/>
<path id="Shape2DView_nwe0012"  d="M 4.18 -0.44999999999999357 Q 4.999987215999482 -0.44999999999999374 5.079999999999984 -0.4499999999999938 " stroke="#191919" stroke-width="0.35 px" style="stroke-width:0.35;stroke-miterlimit:4;stroke-dasharray:none;fill:none;fill-opacity:1;fill-rule: evenodd"/>
<title>b'Shape2DView'</title>
</g>
<g id="Rectangle" transform="translate(3.828664,3.833616) scale(1,-1)">
<rect fill="#ff0000" id="origin" width="1" height="1" x="0" y="0" />
<title>b'Rectangle'</title>
</g>
</svg>