<?xml version="1.0"?>
<!DOCTYPE svg PUBLIC "-//W3C//DTD SVG 1.1//EN" "http://www.w3.org/Graphics/SVG/1.1/DTD/svg11.dtd">
<svg width="31.798394136106012mm" height="7.723497924259149mm" viewBox="0 0 31.798394136106012 7.723497924259149" xmlns="http://www.w3.org/2000/svg" version="1.1">
<g id="Shape2DView" transform="translate(0.659197,3.861749) scale(1,-1)">
<path id="Shape2DView_nwe0000"  d="M 3.600000000001 4.796163466380781e-15 L 3.600000000001 -0.39747389016673834 L 3.600000000001 -0.7899493155449118 L 3.600000000001 -1.1724906699408393 L 3.600000000001 -1.5402872738673277 L 3.600000000001 -1.8887138716294414 L 3.600000000001 -2.2133887965985006 L 3.600000000001 -2.510229073212241 L 3.600000000001 -2.7755017627615035 L 3.600000000001 -3.005870907260406 L 3.600000000001 -3.1984394810535854 L 3.600000000001 -3.3507858225947027 L 3.600000000001 -3.4609940882454713 L 3.600000000001 -3.527678345121009 L 3.600000000001 -3.549999999999998 " stroke="#191919" stroke-width="0.35 px" style="stroke-width:0.35;stroke-miterlimit:4;stroke-dasharray:none;fill:none;fill-opacity:1;fill-rule: evenodd"/>
<path id="Shape2DView_nwe0001"  d="M 3.600000000001 3.5500000000000016 L 3.600000000001 3.527678345121013 L 3.600000000001 3.4609940882454757 L 3.600000000001 3.3507858225947067 L 3.600000000001 3.19843948105359 L 3.600000000001 3.005870907260411 L 3.600000000001 2.7755017627615075 L 3.600000000001 2.510229073212246 L 3.600000000001 2.2133887965985064 L 3.600000000001 1.888713871629447 L 3.600000000001 1.5402872738673334 L 3.600000000001 1.1724906699408455 L 3.600000000001 0.7899493155449187 L 3.600000000001 0.3974738901667454 L 3.600000000001 5.665662693775401e-15 " stroke="#191919" stroke-width="0.35 px" style="stroke-width:0.35;stroke-miterlimit:4;stroke-dasharray:none;fill:none;fill-opacity:1;fill-rule: evenodd"/>
<path id="Shape2DView_nwe0002"  d="M 3.240000000001 2.781108676686375e-15 L 3.240000000001 -0.05878134995423393 L 3.240000000001 -0.11682349032706246 L 3.240000000001 -0.17339650752646024 L 3.240000000001 -0.22778896303671564 L 3.240000000001 -0.2793168401705495 L 3.240000000001 -0.32733214597583293 L 3.240000000001 -0.3712310601229354 L 3.240000000001 -0.4104615282957137 L 3.240000000001 -0.4445302045948474 L 3.240000000001 -0.4730086556487683 L 3.240000000001 -0.49553874841189127 L 3.240000000001 -0.5118371538954558 L 3.240000000001 -0.5216989101939508 L 3.240000000001 -0.5249999999999984 " stroke="#191919" stroke-width="0.35 px" style="stroke-width:0.35;stroke-miterlimit:4;stroke-dasharray:none;fill:none;fill-opacity:1;fill-rule: evenodd"/>
<path id="Shape2DView_nwe0003"  d="M 3.240000000001 0.5250000000000017 L 3.240000000001 0.521698910193954 L 3.240000000001 0.511837153895459 L 3.240000000001 0.4955387484118946 L 3.240000000001 0.4730086556487716 L 3.240000000001 0.44453020459485076 L 3.240000000001 0.4104615282957172 L 3.240000000001 0.371231060122939 L 3.240000000001 0.3273321459758366 L 3.240000000001 0.2793168401705532 L 3.240000000001 0.22778896303671953 L 3.240000000001 0.1733965075264642 L 3.240000000001 0.11682349032706658 L 3.240000000001 0.05878134995423814 L 3.240000000001 2.909696590596847e-15 " stroke="#191919" stroke-width="0.35 px" style="stroke-width:0.35;stroke-miterlimit:4;stroke-dasharray:none;fill:none;fill-opacity:1;fill-rule: evenodd"/>
<path id="Shape2DView_nwe0004"  d="M 4.56 4.796163466380781e-15 L 4.56 -0.39747389016673834 L 4.56 -0.7899493155449118 L 4.56 -1.1724906699408393 L 4.56 -1.5402872738673277 L 4.56 -1.8887138716294414 L 4.56 -2.2133887965985006 L 4.56 -2.510229073212241 L 4.56 -2.7755017627615035 L 4.56 -3.005870907260406 L 4.56 -3.1984394810535854 L 4.56 -3.3507858225947027 L 4.56 -3.4609940882454713 L 4.56 -3.527678345121009 L 4.56 -3.549999999999998 " stroke="#191919" stroke-width="0.35 px" style="stroke-width:0.35;stroke-miterlimit:4;stroke-dasharray:none;fill:none;fill-opacity:1;fill-rule: evenodd"/>
<path id="Shape2DView_nwe0005"  d="M 4.56 3.5500000000000016 L 4.56 3.527678345121013 L 4.56 3.4609940882454757 L 4.56 3.3507858225947067 L 4.56 3.19843948105359 L 4.56 3.005870907260411 L 4.56 2.7755017627615075 L 4.56 2.510229073212246 L 4.56 2.2133887965985064 L 4.56 1.888713871629447 L 4.56 1.5402872738673334 L 4.56 1.1724906699408455 L 4.56 0.7899493155449187 L 4.56 0.3974738901667454 L 4.56 5.665662693775401e-15 " stroke="#191919" stroke-width="0.35 px" style="stroke-width:0.35;stroke-miterlimit:4;stroke-dasharray:none;fill:none;fill-opacity:1;fill-rule: evenodd"/>
<path id="Shape2DView_nwe0006"  d="M 4.92 4.3964831775158354e-15 L 4.92 -0.330295204504754 L 4.92 -0.6564367551711235 L 4.92 -0.9743232327677391 L 4.92 -1.279957030396793 L 4.92 -1.5694946257202396 L 4.92 -1.8392949154832612 L 4.92 -2.085965004500313 L 4.92 -2.306402873280686 L 4.92 -2.4978363877234364 L 4.92 -2.6578581603121343 L 4.92 -2.7844558244096826 L 4.92 -2.876037340936378 L 4.92 -2.931451019185064 L 4.92 -2.9499999999999984 " stroke="#191919" stroke-width="0.35 px" style="stroke-width:0.35;stroke-miterlimit:4;stroke-dasharray:none;fill:none;fill-opacity:1;fill-rule: evenodd"/>
<path id="Shape2DView_nwe0007"  d="M 4.92 2.950000000000002 L 4.92 2.931451019185068 L 4.92 2.8760373409363815 L 4.92 2.7844558244096866 L 4.92 2.6578581603121387 L 4.92 2.4978363877234404 L 4.92 2.3064028732806903 L 4.92 2.0859650045003173 L 4.92 1.8392949154832663 L 4.92 1.5694946257202453 L 4.92 1.2799570303967986 L 4.92 0.9743232327677456 L 4.92 0.65643675517113 L 4.92 0.3302952045047607 L 4.92 5.119024789012774e-15 " stroke="#191919" stroke-width="0.35 px" style="stroke-width:0.35;stroke-miterlimit:4;stroke-dasharray:none;fill:none;fill-opacity:1;fill-rule: evenodd"/>
<path id="Shape2DView_nwe0008"  d="M 6.89973014384 4.884981308351e-15 C 6.899730143839996 1.576333732135012 6.899730143840001 2.9906485178274984 6.899730143840002 2.9499999995604176 " stroke="#191919" stroke-width="0.35 px" style="stroke-width:0.35;stroke-miterlimit:4;stroke-dasharray:none;fill:none;fill-opacity:1;fill-rule: evenodd"/>
<path id="Shape2DView_nwe0009"  d="M 6.899730143839998 -2.949999999999865 C 6.899730143840003 -2.990648584824662 6.899730143839997 -1.5763361828763398 6.89973014384 4.884981308350689e-15 " stroke="#191919" stroke-width="0.35 px" style="stroke-width:0.35;stroke-miterlimit:4;stroke-dasharray:none;fill:none;fill-opacity:1;fill-rule: evenodd"/>
<path id="Shape2DView_nwe0010"  d="M -1.1946772886474108e-14 0.3500000000000011 A 0.35 0.35 0 0 1 1.11268e-14 -0.35" stroke="#191919" stroke-width="0.35 px" style="stroke-width:0.35;stroke-miterlimit:4;stroke-dasharray:none;fill:none;fill-opacity:1;fill-rule: evenodd"/>
<path id="Shape2DView_nwe0011"  d="M 7.891848803529 4.884981308351e-15 C 7.891848803528997 1.5763337321351358 7.891848803529 2.9906485178274584 7.891848803529002 2.9499999995604176 " stroke="#191919" stroke-width="0.35 px" style="stroke-width:0.35;stroke-miterlimit:4;stroke-dasharray:none;fill:none;fill-opacity:1;fill-rule: evenodd"/>
<path id="Shape2DView_nwe0012"  d="M 7.891848803529 -2.949999999999865 C 7.891848803529 -2.990648584824662 7.8918488035289975 -1.5763361828763398 7.891848803529 4.884981308350689e-15 " stroke="#191919" stroke-width="0.35 px" style="stroke-width:0.35;stroke-miterlimit:4;stroke-dasharray:none;fill:none;fill-opacity:1;fill-rule: evenodd"/>
<path id="Shape2DView_nwe0013"  d="M 8.920782775419 4.884981308351e-15 C 8.920782775418994 1.576333732135012 8.920782775419003 2.9906485178274984 8.920782775419 2.9499999995604176 " stroke="#191919" stroke-width="0.35 px" style="stroke-width:0.35;stroke-miterlimit:4;stroke-dasharray:none;fill:none;fill-opacity:1;fill-rule: evenodd"/>
<path id="Shape2DView_nwe0014"  d="M 8.920782775419 -2.949999999999865 C 8.920782775418996 -2.990648584824662 8.920782775419001 -1.5763361828763398 8.920782775419 4.884981308350689e-15 " stroke="#191919" stroke-width="0.35 px" style="stroke-width:0.35;stroke-miterlimit:4;stroke-dasharray:none;fill:none;fill-opacity:1;fill-rule: evenodd"/>
<path id="Shape2DView_nwe0015"  d="M 9.912901435108 4.884981308351e-15 C 9.912901435107994 1.576333732135012 9.912901435108 2.9906485178274984 9.912901435108 2.9499999995604176 " stroke="#191919" stroke-width="0.35 px" style="stroke-width:0.35;stroke-miterlimit:4;stroke-dasharray:none;fill:none;fill-opacity:1;fill-rule: evenodd"/>
<path id="Shape2DView_nwe0016"  d="M 9.912901435108 -2.949999999999865 C 9.912901435107996 -2.9906485848264084 9.912901435107997 -1.576336182866172 9.912901435108 4.884981308350689e-15 " stroke="#191919" stroke-width="0.35 px" style="stroke-width:0.35;stroke-miterlimit:4;stroke-dasharray:none;fill:none;fill-opacity:1;fill-rule: evenodd"/>
<path id="Shape2DView_nwe0017"  d="M 10.941835406998 4.884981308351e-15 C 10.941835406997999 1.576333732135012 10.941835406998 2.9906485178274984 10.941835406997997 2.9499999995604176 " stroke="#191919" stroke-width="0.35 px" style="stroke-width:0.35;stroke-miterlimit:4;stroke-dasharray:none;fill:none;fill-opacity:1;fill-rule: evenodd"/>
<path id="Shape2DView_nwe0018"  d="M 10.941835406998 -2.949999999999865 C 10.941835406997997 -2.990648584824662 10.941835406998004 -1.5763361828763398 10.941835406998 4.884981308350689e-15 " stroke="#191919" stroke-width="0.35 px" style="stroke-width:0.35;stroke-miterlimit:4;stroke-dasharray:none;fill:none;fill-opacity:1;fill-rule: evenodd"/>
<path id="Shape2DView_nwe0019"  d="M 11.933954066687 4.884981308351e-15 C 11.933954066686994 1.576333732135012 11.933954066687004 2.9906485178274984 11.933954066687 2.9499999995604176 " stroke="#191919" stroke-width="0.35 px" style="stroke-width:0.35;stroke-miterlimit:4;stroke-dasharray:none;fill:none;fill-opacity:1;fill-rule: evenodd"/>
<path id="Shape2DView_nwe0020"  d="M 11.933954066687 -2.949999999999865 C 11.933954066686995 -2.9906485848264084 11.933954066687003 -1.576336182866172 11.933954066687 4.884981308350689e-15 " stroke="#191919" stroke-width="0.35 px" style="stroke-width:0.35;stroke-miterlimit:4;stroke-dasharray:none;fill:none;fill-opacity:1;fill-rule: evenodd"/>
<path id="Shape2DView_nwe0021"  d="M 12.962888038577 4.884981308351e-15 C 12.962888038576992 1.576333732135012 12.962888038577002 2.9906485178274984 12.962888038577004 2.9499999995604176 " stroke="#191919" stroke-width="0.35 px" style="stroke-width:0.35;stroke-miterlimit:4;stroke-dasharray:none;fill:none;fill-opacity:1;fill-rule: evenodd"/>
<path id="Shape2DView_nwe0022"  d="M 12.962888038577 -2.949999999999865 C 12.962888038576997 -2.990648584824662 12.962888038577 -1.5763361828763398 12.962888038577 4.884981308350689e-15 " stroke="#191919" stroke-width="0.35 px" style="stroke-width:0.35;stroke-miterlimit:4;stroke-dasharray:none;fill:none;fill-opacity:1;fill-rule: evenodd"/>
<path id="Shape2DView_nwe0023"  d="M 13.955006698266 4.884981308351e-15 C 13.955006698265999 1.5763337321347235 13.955006698265997 2.9906485178276303 13.955006698266 2.9499999995604176 " stroke="#191919" stroke-width="0.35 px" style="stroke-width:0.35;stroke-miterlimit:4;stroke-dasharray:none;fill:none;fill-opacity:1;fill-rule: evenodd"/>
<path id="Shape2DView_nwe0024"  d="M 13.955006698266 -2.949999999999865 C 13.955006698265999 -2.990648584824662 13.955006698266 -1.5763361828763398 13.955006698266 4.884981308350689e-15 " stroke="#191919" stroke-width="0.35 px" style="stroke-width:0.35;stroke-miterlimit:4;stroke-dasharray:none;fill:none;fill-opacity:1;fill-rule: evenodd"/>
<path id="Shape2DView_nwe0025"  d="M 14.983940670156 4.884981308351e-15 C 14.983940670155993 1.5763337321321118 14.983940670156002 2.9906485178345195 14.983940670156004 2.9499999995604176 " stroke="#191919" stroke-width="0.35 px" style="stroke-width:0.35;stroke-miterlimit:4;stroke-dasharray:none;fill:none;fill-opacity:1;fill-rule: evenodd"/>
<path id="Shape2DView_nwe0026"  d="M 14.983940670156 -2.949999999999865 C 14.983940670156 -2.990648584824662 14.983940670155997 -1.5763361828763398 14.983940670156 4.884981308350689e-15 " stroke="#191919" stroke-width="0.35 px" style="stroke-width:0.35;stroke-miterlimit:4;stroke-dasharray:none;fill:none;fill-opacity:1;fill-rule: evenodd"/>
<path id="Shape2DView_nwe0027"  d="M 15.976059329844 4.884981308351e-15 C 15.976059329843991 1.5763337321324011 15.976059329844002 2.9906485178343862 15.976059329844004 2.9499999995604176 " stroke="#191919" stroke-width="0.35 px" style="stroke-width:0.35;stroke-miterlimit:4;stroke-dasharray:none;fill:none;fill-opacity:1;fill-rule: evenodd"/>
<path id="Shape2DView_nwe0028"  d="M 15.976059329844 -2.949999999999865 C 15.976059329843995 -2.9906485848264084 15.976059329844002 -1.576336182866172 15.976059329844 4.884981308350689e-15 " stroke="#191919" stroke-width="0.35 px" style="stroke-width:0.35;stroke-miterlimit:4;stroke-dasharray:none;fill:none;fill-opacity:1;fill-rule: evenodd"/>
<path id="Shape2DView_nwe0029"  d="M 17.004993301734 4.884981308351e-15 C 17.004993301733997 1.576333732135301 17.004993301733997 2.9906485178273665 17.004993301734 2.9499999995604176 " stroke="#191919" stroke-width="0.35 px" style="stroke-width:0.35;stroke-miterlimit:4;stroke-dasharray:none;fill:none;fill-opacity:1;fill-rule: evenodd"/>
<path id="Shape2DView_nwe0030"  d="M 17.004993301734 -2.949999999999865 C 17.004993301733993 -2.9906485848264084 17.004993301733997 -1.576336182866172 17.004993301734 4.884981308350689e-15 " stroke="#191919" stroke-width="0.35 px" style="stroke-width:0.35;stroke-miterlimit:4;stroke-dasharray:none;fill:none;fill-opacity:1;fill-rule: evenodd"/>
<path id="Shape2DView_nwe0031"  d="M 17.997111961423 4.884981308351e-15 C 17.997111961422995 1.576333732135012 17.99711196142299 2.9906485178274984 17.997111961423006 2.9499999995604176 " stroke="#191919" stroke-width="0.35 px" style="stroke-width:0.35;stroke-miterlimit:4;stroke-dasharray:none;fill:none;fill-opacity:1;fill-rule: evenodd"/>
<path id="Shape2DView_nwe0032"  d="M 17.997111961423 -2.949999999999865 C 17.997111961422988 -2.990648584824662 17.997111961423006 -1.5763361828763398 17.997111961423 4.884981308350689e-15 " stroke="#191919" stroke-width="0.35 px" style="stroke-width:0.35;stroke-miterlimit:4;stroke-dasharray:none;fill:none;fill-opacity:1;fill-rule: evenodd"/>
<path id="Shape2DView_nwe0033"  d="M 19.026045933313 4.884981308351e-15 C 19.026045933312993 1.5763337321351358 19.026045933313 2.9906485178274584 19.026045933313 2.9499999995604176 " stroke="#191919" stroke-width="0.35 px" style="stroke-width:0.35;stroke-miterlimit:4;stroke-dasharray:none;fill:none;fill-opacity:1;fill-rule: evenodd"/>
<path id="Shape2DView_nwe0034"  d="M 19.026045933313 -2.949999999999865 C 19.026045933312997 -2.9906485848264084 19.026045933312997 -1.576336182866172 19.026045933313 4.884981308350689e-15 " stroke="#191919" stroke-width="0.35 px" style="stroke-width:0.35;stroke-miterlimit:4;stroke-dasharray:none;fill:none;fill-opacity:1;fill-rule: evenodd"/>
<path id="Shape2DView_nwe0035"  d="M 20.018164593002 4.884981308351e-15 C 20.01816459300199 1.576333732135301 20.018164593002 2.9906485178273665 20.018164593002 2.9499999995604176 " stroke="#191919" stroke-width="0.35 px" style="stroke-width:0.35;stroke-miterlimit:4;stroke-dasharray:none;fill:none;fill-opacity:1;fill-rule: evenodd"/>
<path id="Shape2DView_nwe0036"  d="M 20.018164593002 -2.949999999999865 C 20.018164593001995 -2.990648584824662 20.018164593001995 -1.5763361828763398 20.018164593002 4.884981308350689e-15 " stroke="#191919" stroke-width="0.35 px" style="stroke-width:0.35;stroke-miterlimit:4;stroke-dasharray:none;fill:none;fill-opacity:1;fill-rule: evenodd"/>
<path id="Shape2DView_nwe0037"  d="M 21.047098564892 4.884981308351e-15 C 21.04709856489199 1.576333732135012 21.047098564892003 2.9906485178274984 21.047098564892 2.9499999995604176 " stroke="#191919" stroke-width="0.35 px" style="stroke-width:0.35;stroke-miterlimit:4;stroke-dasharray:none;fill:none;fill-opacity:1;fill-rule: evenodd"/>
<path id="Shape2DView_nwe0038"  d="M 21.047098564892 -2.949999999999865 C 21.047098564891996 -2.990648584824662 21.047098564892 -1.5763361828763398 21.047098564892 4.884981308350689e-15 " stroke="#191919" stroke-width="0.35 px" style="stroke-width:0.35;stroke-miterlimit:4;stroke-dasharray:none;fill:none;fill-opacity:1;fill-rule: evenodd"/>
<path id="Shape2DView_nwe0039"  d="M 22.039217224581 4.884981308351e-15 C 22.039217224580987 1.5763337321324011 22.039217224581005 2.9906485178343862 22.039217224581 2.9499999995604176 " stroke="#191919" stroke-width="0.35 px" style="stroke-width:0.35;stroke-miterlimit:4;stroke-dasharray:none;fill:none;fill-opacity:1;fill-rule: evenodd"/>
<path id="Shape2DView_nwe0040"  d="M 22.039217224581 -2.949999999999865 C 22.039217224580998 -2.9906485848264084 22.039217224581 -1.576336182866172 22.039217224581 4.884981308350689e-15 " stroke="#191919" stroke-width="0.35 px" style="stroke-width:0.35;stroke-miterlimit:4;stroke-dasharray:none;fill:none;fill-opacity:1;fill-rule: evenodd"/>
<path id="Shape2DView_nwe0041"  d="M 23.068151196471 4.884981308351e-15 C 23.068151196470982 1.576333732135301 23.068151196471007 2.9906485178273665 23.068151196471 2.9499999995604176 " stroke="#191919" stroke-width="0.35 px" style="stroke-width:0.35;stroke-miterlimit:4;stroke-dasharray:none;fill:none;fill-opacity:1;fill-rule: evenodd"/>
<path id="Shape2DView_nwe0042"  d="M 23.068151196471 -2.949999999999865 C 23.068151196470993 -2.990648584824662 23.068151196471003 -1.5763361828763398 23.068151196471 4.884981308350689e-15 " stroke="#191919" stroke-width="0.35 px" style="stroke-width:0.35;stroke-miterlimit:4;stroke-dasharray:none;fill:none;fill-opacity:1;fill-rule: evenodd"/>
<path id="Shape2DView_nwe0043"  d="M 24.06026985616 4.884981308351e-15 C 24.060269856159994 1.576333732135301 24.060269856159998 2.9906485178273665 24.06026985616001 2.9499999995604176 " stroke="#191919" stroke-width="0.35 px" style="stroke-width:0.35;stroke-miterlimit:4;stroke-dasharray:none;fill:none;fill-opacity:1;fill-rule: evenodd"/>
<path id="Shape2DView_nwe0044"  d="M 24.06026985615999 -2.949999999999865 C 24.060269856160005 -2.990648584824662 24.060269856159994 -1.5763361828763398 24.06026985616 4.884981308350689e-15 " stroke="#191919" stroke-width="0.35 px" style="stroke-width:0.35;stroke-miterlimit:4;stroke-dasharray:none;fill:none;fill-opacity:1;fill-rule: evenodd"/>
<path id="Shape2DView_nwe0045"  d="M 25.56 4.3964831775158354e-15 L 25.56 -0.3302952045047541 L 25.56 -0.6564367551711237 L 25.56 -0.9743232327677391 L 25.56 -1.2799570303967933 L 25.56 -1.56949462572024 L 25.56 -1.8392949154832614 L 25.56 -2.0859650045003133 L 25.56 -2.306402873280686 L 25.56 -2.4978363877234364 L 25.56 -2.6578581603121347 L 25.56 -2.7844558244096826 L 25.56 -2.8760373409363784 L 25.56 -2.931451019185064 L 25.56 -2.9499999999999984 " stroke="#191919" stroke-width="0.35 px" style="stroke-width:0.35;stroke-miterlimit:4;stroke-dasharray:none;fill:none;fill-opacity:1;fill-rule: evenodd"/>
<path id="Shape2DView_nwe0046"  d="M 25.56 2.950000000000002 L 25.56 2.931451019185068 L 25.56 2.8760373409363815 L 25.56 2.7844558244096866 L 25.56 2.6578581603121387 L 25.56 2.4978363877234404 L 25.56 2.3064028732806903 L 25.56 2.0859650045003173 L 25.56 1.8392949154832663 L 25.56 1.5694946257202453 L 25.56 1.2799570303967986 L 25.56 0.9743232327677456 L 25.56 0.65643675517113 L 25.56 0.3302952045047607 L 25.56 5.119024789012774e-15 " stroke="#191919" stroke-width="0.35 px" style="stroke-width:0.35;stroke-miterlimit:4;stroke-dasharray:none;fill:none;fill-opacity:1;fill-rule: evenodd"/>
<path id="Shape2DView_nwe0047"  d="M 25.92 4.796163466380781e-15 L 25.92 -0.39747389016673834 L 25.92 -0.7899493155449118 L 25.92 -1.1724906699408393 L 25.92 -1.5402872738673277 L 25.92 -1.8887138716294414 L 25.92 -2.2133887965985006 L 25.92 -2.510229073212241 L 25.92 -2.7755017627615035 L 25.92 -3.005870907260406 L 25.92 -3.1984394810535854 L 25.92 -3.3507858225947027 L 25.92 -3.4609940882454713 L 25.92 -3.527678345121009 L 25.92 -3.549999999999998 " stroke="#191919" stroke-width="0.35 px" style="stroke-width:0.35;stroke-miterlimit:4;stroke-dasharray:none;fill:none;fill-opacity:1;fill-rule: evenodd"/>
<path id="Shape2DView_nwe0048"  d="M 25.92 3.5500000000000016 L 25.92 3.527678345121013 L 25.92 3.4609940882454757 L 25.92 3.3507858225947067 L 25.92 3.19843948105359 L 25.92 3.005870907260411 L 25.92 2.7755017627615075 L 25.92 2.510229073212246 L 25.92 2.2133887965985064 L 25.92 1.888713871629447 L 25.92 1.5402872738673334 L 25.92 1.1724906699408455 L 25.92 0.7899493155449187 L 25.92 0.3974738901667454 L 25.92 5.665662693775401e-15 " stroke="#191919" stroke-width="0.35 px" style="stroke-width:0.35;stroke-miterlimit:4;stroke-dasharray:none;fill:none;fill-opacity:1;fill-rule: evenodd"/>
<path id="Shape2DView_nwe0049"  d="M 26.88 4.796163466380781e-15 L 26.88 -0.39747389016673834 L 26.88 -0.7899493155449118 L 26.88 -1.1724906699408393 L 26.88 -1.5402872738673277 L 26.88 -1.8887138716294414 L 26.88 -2.2133887965985006 L 26.88 -2.510229073212241 L 26.88 -2.7755017627615035 L 26.88 -3.005870907260406 L 26.88 -3.1984394810535854 L 26.88 -3.3507858225947027 L 26.88 -3.4609940882454713 L 26.88 -3.527678345121009 L 26.88 -3.549999999999998 " stroke="#191919" stroke-width="0.35 px" style="stroke-width:0.35;stroke-miterlimit:4;stroke-dasharray:none;fill:none;fill-opacity:1;fill-rule: evenodd"/>
<path id="Shape2DView_nwe0050"  d="M 26.88 3.5500000000000016 L 26.88 3.527678345121013 L 26.88 3.4609940882454757 L 26.88 3.3507858225947067 L 26.88 3.19843948105359 L 26.88 3.005870907260411 L 26.88 2.7755017627615075 L 26.88 2.510229073212246 L 26.88 2.2133887965985064 L 26.88 1.888713871629447 L 26.88 1.5402872738673334 L 26.88 1.1724906699408455 L 26.88 0.7899493155449187 L 26.88 0.3974738901667454 L 26.88 5.665662693775401e-15 " stroke="#191919" stroke-width="0.35 px" style="stroke-width:0.35;stroke-miterlimit:4;stroke-dasharray:none;fill:none;fill-opacity:1;fill-rule: evenodd"/>
<path id="Shape2DView_nwe0051"  d="M 27.24 2.78110867668701e-15 L 27.24 -0.05878134995434589 L 27.24 -0.11682349032728498 L 27.24 -0.1733965075267905 L 27.24 -0.22778896303714952 L 27.24 -0.2793168401710815 L 27.24 -0.32733214597645643 L 27.24 -0.3712310601236425 L 27.24 -0.4104615282964955 L 27.24 -0.4445302045956941 L 27.24 -0.47300865564966926 L 27.24 -0.49553874841283513 L 27.24 -0.5118371538964307 L 27.24 -0.5216989101949444 L 27.24 -0.5250000000009983 " stroke="#191919" stroke-width="0.35 px" style="stroke-width:0.35;stroke-miterlimit:4;stroke-dasharray:none;fill:none;fill-opacity:1;fill-rule: evenodd"/>
<path id="Shape2DView_nwe0052"  d="M 27.24 0.5250000000010017 L 27.24 0.5216989101949476 L 27.24 0.5118371538964339 L 27.24 0.49553874841283846 L 27.24 0.47300865564967254 L 27.24 0.4445302045956975 L 27.24 0.410461528296499 L 27.24 0.3712310601236461 L 27.24 0.3273321459764601 L 27.24 0.2793168401710852 L 27.24 0.2277889630371534 L 27.24 0.17339650752679447 L 27.24 0.1168234903272891 L 27.24 0.0587813499543501 L 27.24 2.9096965905977268e-15 " stroke="#191919" stroke-width="0.35 px" style="stroke-width:0.35;stroke-miterlimit:4;stroke-dasharray:none;fill:none;fill-opacity:1;fill-rule: evenodd"/>
<path id="Shape2DView_nwe0053"  d="M 30.47999999999999 -0.34999999999999887 A 0.35 0.35 0 0 1 30.48 0.35" stroke="#191919" stroke-width="0.35 px" style="stroke-width:0.35;stroke-miterlimit:4;stroke-dasharray:none;fill:none;fill-opacity:1;fill-rule: evenodd"/>
<path id="Shape2DView_nwe0054"  d="M 0.700007215293 -0.3499999999999987 A 0.35 3.607646408103057e-06 90.0 0 0 0.700007215293 0.35000000000000125 " stroke="#191919" stroke-width="0.35 px" style="stroke-width:0.35;stroke-miterlimit:4;stroke-dasharray:none;fill:none;fill-opacity:1;fill-rule: evenodd"/>
<path id="Shape2DView_nwe0055"  d="M 29.78 0.35000000000000125 A 0.35 3.6076464081450567e-06 89.99999999999999 0 1 29.78 -0.3499999999999987 " stroke="#191919" stroke-width="0.35 px" style="stroke-width:0.35;stroke-miterlimit:4;stroke-dasharray:none;fill:none;fill-opacity:1;fill-rule: evenodd"/>
<path id="Shape2DView_nwe0056"  d="M 3.6000000000018986 4.796163466376955e-15 L 3.5729844205073675 4.652335771811113e-15 L 3.5461689498246756 4.508491461324e-15 L 3.51955361098436 4.364630658457088e-15 L 3.493138426845235 4.220753486766019e-15 L 3.4669234200940764 4.076860069820486e-15 L 3.440908613245824 3.932950531204132e-15 L 3.4150940286434093 3.789024994514461e-15 L 3.3894796884578398 3.645083583362697e-15 L 3.3640656146881156 3.5011264213737098e-15 L 3.338851829161257 3.3571536321858964e-15 L 3.3138383535323044 3.213165339451077e-15 L 3.289025209284148 3.069161666834381e-15 L 3.2644124177277263 2.925142738014147e-15 L 3.24000000000197 2.781108676682238e-15 " stroke="#191919" stroke-width="0.35 px" style="stroke-width:0.35;stroke-miterlimit:4;stroke-dasharray:none;fill:none;fill-opacity:1;fill-rule: evenodd"/>
<path id="Shape2DView_nwe0057"  d="M 3.600000000001 4.796163466381e-15 L 4.56 4.796163466381e-15 " stroke="#191919" stroke-width="0.35 px" style="stroke-width:0.35;stroke-miterlimit:4;stroke-dasharray:none;fill:none;fill-opacity:1;fill-rule: evenodd"/>
<path id="Shape2DView_nwe0058"  d="M 4.559999999999607 4.796163466380659e-15 L 4.576873129374265 4.7645549777655566e-15 L 4.595189189620901 4.733304926670379e-15 L 4.614931053950209 4.702442534064791e-15 L 4.636080262346974 4.671996658430828e-15 L 4.6586170388314665 4.641995768778208e-15 L 4.682520309951358 4.612467918023831e-15 L 4.707767724486866 4.58344071676035e-15 L 4.734335674350692 4.554941307438348e-15 L 4.7621993166632315 4.526996338986261e-15 L 4.791332596982388 4.49963194189178e-15 L 4.821708273666288 4.472873703768023e-15 L 4.85329794334611 4.4467466454273454e-15 L 4.886072067485208 4.421275197485136e-15 L 4.919999999999698 4.3964831775154986e-15 " stroke="#191919" stroke-width="0.35 px" style="stroke-width:0.35;stroke-miterlimit:4;stroke-dasharray:none;fill:none;fill-opacity:1;fill-rule: evenodd"/>
<path id="Shape2DView_nwe0059"  d="M 4.92 4.396483177516e-15 L 6.89973014384 4.396483177516e-15 " stroke="#191919" stroke-width="0.35 px" style="stroke-width:0.35;stroke-miterlimit:4;stroke-dasharray:none;fill:none;fill-opacity:1;fill-rule: evenodd"/>
<path id="Shape2DView_nwe0060"  d="M 7.891848803528764 4.3964831775153795e-15 L 7.863446872062 4.459951324442116e-15 L 7.816937655977473 4.51848599706048e-15 L 7.754121951362046 4.5698207841455355e-15 L 7.677431927247753 4.611968047730332e-15 L 7.589836954158394 4.643295882706051e-15 L 7.494728632685162 4.6625913027576444e-15 L 7.395789473684095 4.6691072061309106e-15 L 7.296850314683025 4.66259130275767e-15 L 7.201741993209782 4.6432958827061e-15 L 7.114147020120406 4.6119680477304024e-15 L 7.037456996006089 4.5698207841456254e-15 L 6.974641291390633 4.518485997060586e-15 L 6.928132075306072 4.4599513244422335e-15 L 6.899730143839272 4.396483177515504e-15 " stroke="#191919" stroke-width="0.35 px" style="stroke-width:0.35;stroke-miterlimit:4;stroke-dasharray:none;fill:none;fill-opacity:1;fill-rule: evenodd"/>
<path id="Shape2DView_nwe0061"  d="M 7.891848803529 4.396483177516e-15 L 8.920782775419 4.396483177516e-15 " stroke="#191919" stroke-width="0.35 px" style="stroke-width:0.35;stroke-miterlimit:4;stroke-dasharray:none;fill:none;fill-opacity:1;fill-rule: evenodd"/>
<path id="Shape2DView_nwe0062"  d="M 9.912901435107763 4.3964831775153795e-15 L 9.884499503640999 4.459951324442116e-15 L 9.837990287556472 4.51848599706048e-15 L 9.775174582941045 4.5698207841455355e-15 L 9.69848455882675 4.611968047730332e-15 L 9.610889585737393 4.643295882706051e-15 L 9.515781264264161 4.6625913027576444e-15 L 9.416842105263095 4.6691072061309106e-15 L 9.317902946262024 4.66259130275767e-15 L 9.222794624788781 4.6432958827061e-15 L 9.135199651699406 4.6119680477304024e-15 L 9.058509627585089 4.5698207841456254e-15 L 8.99569392296963 4.518485997060586e-15 L 8.94918470688507 4.4599513244422335e-15 L 8.920782775418271 4.396483177515504e-15 " stroke="#191919" stroke-width="0.35 px" style="stroke-width:0.35;stroke-miterlimit:4;stroke-dasharray:none;fill:none;fill-opacity:1;fill-rule: evenodd"/>
<path id="Shape2DView_nwe0063"  d="M 9.912901435108 4.396483177516e-15 L 10.941835406998 4.396483177516e-15 " stroke="#191919" stroke-width="0.35 px" style="stroke-width:0.35;stroke-miterlimit:4;stroke-dasharray:none;fill:none;fill-opacity:1;fill-rule: evenodd"/>
<path id="Shape2DView_nwe0064"  d="M 11.933954066686765 4.3964831775153795e-15 L 11.90555213522 4.459951324442116e-15 L 11.859042919135474 4.51848599706048e-15 L 11.796227214520046 4.5698207841455355e-15 L 11.719537190405752 4.611968047730332e-15 L 11.631942217316395 4.643295882706051e-15 L 11.536833895843163 4.6625913027576444e-15 L 11.437894736842097 4.6691072061309106e-15 L 11.338955577841025 4.66259130275767e-15 L 11.243847256367783 4.6432958827061e-15 L 11.156252283278405 4.6119680477304024e-15 L 11.07956225916409 4.5698207841456254e-15 L 11.016746554548632 4.518485997060586e-15 L 10.970237338464074 4.4599513244422335e-15 L 10.941835406997273 4.396483177515504e-15 " stroke="#191919" stroke-width="0.35 px" style="stroke-width:0.35;stroke-miterlimit:4;stroke-dasharray:none;fill:none;fill-opacity:1;fill-rule: evenodd"/>
<path id="Shape2DView_nwe0065"  d="M 11.933954066687 4.396483177516e-15 L 12.962888038577 4.396483177516e-15 " stroke="#191919" stroke-width="0.35 px" style="stroke-width:0.35;stroke-miterlimit:4;stroke-dasharray:none;fill:none;fill-opacity:1;fill-rule: evenodd"/>
<path id="Shape2DView_nwe0066"  d="M 13.955006698265764 4.3964831775153795e-15 L 13.926604766799 4.459951324442116e-15 L 13.880095550714474 4.51848599706048e-15 L 13.817279846099046 4.5698207841455355e-15 L 13.740589821984752 4.611968047730332e-15 L 13.652994848895394 4.643295882706051e-15 L 13.557886527422163 4.6625913027576444e-15 L 13.458947368421097 4.6691072061309106e-15 L 13.360008209420025 4.66259130275767e-15 L 13.264899887946783 4.6432958827061e-15 L 13.177304914857405 4.6119680477304024e-15 L 13.10061489074309 4.5698207841456254e-15 L 13.037799186127632 4.518485997060586e-15 L 12.991289970043074 4.4599513244422335e-15 L 12.962888038576272 4.396483177515504e-15 " stroke="#191919" stroke-width="0.35 px" style="stroke-width:0.35;stroke-miterlimit:4;stroke-dasharray:none;fill:none;fill-opacity:1;fill-rule: evenodd"/>
<path id="Shape2DView_nwe0067"  d="M 13.955006698266 4.396483177516e-15 L 14.983940670156 4.396483177516e-15 " stroke="#191919" stroke-width="0.35 px" style="stroke-width:0.35;stroke-miterlimit:4;stroke-dasharray:none;fill:none;fill-opacity:1;fill-rule: evenodd"/>
<path id="Shape2DView_nwe0068"  d="M 15.976059329844729 4.396483177515504e-15 L 15.947657398377933 4.459951324442225e-15 L 15.901148182293383 4.518485997060571e-15 L 15.838332477677941 4.5698207841456065e-15 L 15.76164245356364 4.611968047730383e-15 L 15.67404748047428 4.643295882706083e-15 L 15.578939159001056 4.6625913027576586e-15 L 15.48 4.6691072061309106e-15 L 15.381060840998945 4.6625913027576586e-15 L 15.28595251952572 4.643295882706083e-15 L 15.19835754643636 4.611968047730383e-15 L 15.12166752232206 4.5698207841456065e-15 L 15.058851817706618 4.518485997060571e-15 L 15.012342601622068 4.459951324442225e-15 L 14.983940670155272 4.396483177515504e-15 " stroke="#191919" stroke-width="0.35 px" style="stroke-width:0.35;stroke-miterlimit:4;stroke-dasharray:none;fill:none;fill-opacity:1;fill-rule: evenodd"/>
<path id="Shape2DView_nwe0069"  d="M 15.976059329844 4.396483177516e-15 L 17.004993301734 4.396483177516e-15 " stroke="#191919" stroke-width="0.35 px" style="stroke-width:0.35;stroke-miterlimit:4;stroke-dasharray:none;fill:none;fill-opacity:1;fill-rule: evenodd"/>
<path id="Shape2DView_nwe0070"  d="M 17.997111961423727 4.396483177515504e-15 L 17.968710029956927 4.4599513244422335e-15 L 17.92220081387237 4.518485997060586e-15 L 17.859385109256912 4.5698207841456254e-15 L 17.782695085142596 4.6119680477304024e-15 L 17.69510011205322 4.6432958827061e-15 L 17.599991790579974 4.66259130275767e-15 L 17.501052631578904 4.6691072061309106e-15 L 17.402113472577838 4.6625913027576444e-15 L 17.307005151104608 4.643295882706051e-15 L 17.21941017801525 4.611968047730332e-15 L 17.142720153900957 4.5698207841455355e-15 L 17.07990444928553 4.51848599706048e-15 L 17.033395233201 4.459951324442116e-15 L 17.004993301734235 4.3964831775153795e-15 " stroke="#191919" stroke-width="0.35 px" style="stroke-width:0.35;stroke-miterlimit:4;stroke-dasharray:none;fill:none;fill-opacity:1;fill-rule: evenodd"/>
<path id="Shape2DView_nwe0071"  d="M 17.997111961423 4.396483177516e-15 L 19.026045933313 4.396483177516e-15 " stroke="#191919" stroke-width="0.35 px" style="stroke-width:0.35;stroke-miterlimit:4;stroke-dasharray:none;fill:none;fill-opacity:1;fill-rule: evenodd"/>
<path id="Shape2DView_nwe0072"  d="M 20.018164593002727 4.396483177515504e-15 L 19.989762661535927 4.4599513244422335e-15 L 19.94325344545137 4.518485997060586e-15 L 19.880437740835912 4.5698207841456254e-15 L 19.803747716721595 4.6119680477304024e-15 L 19.716152743632218 4.6432958827061e-15 L 19.621044422158974 4.66259130275767e-15 L 19.522105263157904 4.6691072061309106e-15 L 19.423166104156838 4.6625913027576444e-15 L 19.328057782683608 4.643295882706051e-15 L 19.24046280959425 4.611968047730332e-15 L 19.163772785479956 4.5698207841455355e-15 L 19.10095708086453 4.51848599706048e-15 L 19.054447864780002 4.459951324442116e-15 L 19.026045933313235 4.3964831775153795e-15 " stroke="#191919" stroke-width="0.35 px" style="stroke-width:0.35;stroke-miterlimit:4;stroke-dasharray:none;fill:none;fill-opacity:1;fill-rule: evenodd"/>
<path id="Shape2DView_nwe0073"  d="M 20.018164593002 4.396483177516e-15 L 21.047098564892003 4.396483177516e-15 " stroke="#191919" stroke-width="0.35 px" style="stroke-width:0.35;stroke-miterlimit:4;stroke-dasharray:none;fill:none;fill-opacity:1;fill-rule: evenodd"/>
<path id="Shape2DView_nwe0074"  d="M 22.039217224581726 4.396483177515503e-15 L 22.010815293114927 4.4599513244422335e-15 L 21.96430607703037 4.518485997060586e-15 L 21.901490372414912 4.5698207841456254e-15 L 21.824800348300595 4.6119680477304024e-15 L 21.737205375211218 4.6432958827061e-15 L 21.642097053737977 4.662591302757669e-15 L 21.543157894736904 4.6691072061309106e-15 L 21.444218735735838 4.6625913027576444e-15 L 21.349110414262608 4.643295882706051e-15 L 21.26151544117325 4.611968047730332e-15 L 21.184825417058956 4.5698207841455355e-15 L 21.12200971244353 4.518485997060481e-15 L 21.075500496359002 4.459951324442117e-15 L 21.047098564892234 4.3964831775153795e-15 " stroke="#191919" stroke-width="0.35 px" style="stroke-width:0.35;stroke-miterlimit:4;stroke-dasharray:none;fill:none;fill-opacity:1;fill-rule: evenodd"/>
<path id="Shape2DView_nwe0075"  d="M 22.039217224581 4.396483177516e-15 L 23.068151196471 4.396483177516e-15 " stroke="#191919" stroke-width="0.35 px" style="stroke-width:0.35;stroke-miterlimit:4;stroke-dasharray:none;fill:none;fill-opacity:1;fill-rule: evenodd"/>
<path id="Shape2DView_nwe0076"  d="M 24.060269856160726 4.396483177515503e-15 L 24.031867924693927 4.4599513244422335e-15 L 23.98535870860937 4.518485997060586e-15 L 23.922543003993912 4.5698207841456254e-15 L 23.845852979879595 4.6119680477304024e-15 L 23.758258006790218 4.6432958827061e-15 L 23.663149685316977 4.662591302757669e-15 L 23.564210526315904 4.6691072061309106e-15 L 23.465271367314838 4.6625913027576444e-15 L 23.370163045841608 4.643295882706051e-15 L 23.282568072752248 4.611968047730332e-15 L 23.205878048637956 4.5698207841455355e-15 L 23.14306234402253 4.518485997060481e-15 L 23.096553127938 4.459951324442117e-15 L 23.068151196471234 4.3964831775153795e-15 " stroke="#191919" stroke-width="0.35 px" style="stroke-width:0.35;stroke-miterlimit:4;stroke-dasharray:none;fill:none;fill-opacity:1;fill-rule: evenodd"/>
<path id="Shape2DView_nwe0077"  d="M 24.060269856160005 4.396483177516e-15 L 25.560000000000002 4.396483177516e-15 " stroke="#191919" stroke-width="0.35 px" style="stroke-width:0.35;stroke-miterlimit:4;stroke-dasharray:none;fill:none;fill-opacity:1;fill-rule: evenodd"/>
<path id="Shape2DView_nwe0078"  d="M 25.5600000000003 4.396483177515498e-15 L 25.59392793251479 4.421275197485136e-15 L 25.62670205665389 4.4467466454273454e-15 L 25.65829172633371 4.472873703768023e-15 L 25.68866740301761 4.4996319418917805e-15 L 25.71780068333677 4.526996338986262e-15 L 25.745664325649308 4.55494130743835e-15 L 25.772232275513137 4.583440716760352e-15 L 25.797479690048643 4.612467918023834e-15 L 25.821382961168535 4.6419957687782115e-15 L 25.843919737653028 4.671996658430831e-15 L 25.865068946049792 4.702442534064795e-15 L 25.8848108103791 4.7333049266703835e-15 L 25.903126870625737 4.764554977765561e-15 L 25.920000000000393 4.796163466380659e-15 " stroke="#191919" stroke-width="0.35 px" style="stroke-width:0.35;stroke-miterlimit:4;stroke-dasharray:none;fill:none;fill-opacity:1;fill-rule: evenodd"/>
<path id="Shape2DView_nwe0079"  d="M 25.92 4.796163466381e-15 L 26.88 4.796163466381e-15 " stroke="#191919" stroke-width="0.35 px" style="stroke-width:0.35;stroke-miterlimit:4;stroke-dasharray:none;fill:none;fill-opacity:1;fill-rule: evenodd"/>
<path id="Shape2DView_nwe0080"  d="M 27.24000000008681 2.78110867668948e-15 L 27.215587582360968 2.925142738021777e-15 L 27.190974790804546 3.0691616668419824e-15 L 27.166161646556418 3.213165339458653e-15 L 27.14114817092741 3.3571536321934473e-15 L 27.11593438540058 3.5011264213812323e-15 L 27.090520311630854 3.645083583370191e-15 L 27.064905971445256 3.78902499452193e-15 L 27.03909138684284 3.932950531211576e-15 L 27.01307657999456 4.076860069827901e-15 L 26.98686157324343 4.220753486773409e-15 L 26.960446389104277 4.364630658464453e-15 L 26.93383105026399 4.508491461331337e-15 L 26.90701557958124 4.652335771818421e-15 L 26.88000000008671 4.796163466384244e-15 " stroke="#191919" stroke-width="0.35 px" style="stroke-width:0.35;stroke-miterlimit:4;stroke-dasharray:none;fill:none;fill-opacity:1;fill-rule: evenodd"/>
<path id="Shape2DView_nwe0081"  d="M 3.6000000000018986 -3.5499999999999408 L 3.24000000000197 -0.5249999999998853 " stroke="#191919" stroke-width="0.35 px" style="stroke-width:0.35;stroke-miterlimit:4;stroke-dasharray:none;fill:none;fill-opacity:1;fill-rule: evenodd"/>
<path id="Shape2DView_nwe0082"  d="M 3.6000000000018986 3.5499999999999443 L 3.24000000000197 0.5249999999998889 " stroke="#191919" stroke-width="0.35 px" style="stroke-width:0.35;stroke-miterlimit:4;stroke-dasharray:none;fill:none;fill-opacity:1;fill-rule: evenodd"/>
<path id="Shape2DView_nwe0083"  d="M 3.600000000001 -3.549999999999998 L 4.56 -3.549999999999998 " stroke="#191919" stroke-width="0.35 px" style="stroke-width:0.35;stroke-miterlimit:4;stroke-dasharray:none;fill:none;fill-opacity:1;fill-rule: evenodd"/>
<path id="Shape2DView_nwe0084"  d="M 3.600000000001 3.5500000000000016 L 4.56 3.5500000000000016 " stroke="#191919" stroke-width="0.35 px" style="stroke-width:0.35;stroke-miterlimit:4;stroke-dasharray:none;fill:none;fill-opacity:1;fill-rule: evenodd"/>
<path id="Shape2DView_nwe0085"  d="M 4.559999999999607 -3.5499999999998653 L 4.919999999999698 -2.9499999999997137 " stroke="#191919" stroke-width="0.35 px" style="stroke-width:0.35;stroke-miterlimit:4;stroke-dasharray:none;fill:none;fill-opacity:1;fill-rule: evenodd"/>
<path id="Shape2DView_nwe0086"  d="M 4.559999999999607 3.549999999999869 L 4.919999999999698 2.9499999999997173 " stroke="#191919" stroke-width="0.35 px" style="stroke-width:0.35;stroke-miterlimit:4;stroke-dasharray:none;fill:none;fill-opacity:1;fill-rule: evenodd"/>
<path id="Shape2DView_nwe0087"  d="M 0.700007215293 -0.3499999999999987 L 3.2399999999999993 -0.3499999999999987 " stroke="#191919" stroke-width="0.35 px" style="stroke-width:0.35;stroke-miterlimit:4;stroke-dasharray:none;fill:none;fill-opacity:1;fill-rule: evenodd"/>
<path id="Shape2DView_nwe0088"  d="M 0.7000072152930003 0.35000000000000125 L 3.24 0.35000000000000125 " stroke="#191919" stroke-width="0.35 px" style="stroke-width:0.35;stroke-miterlimit:4;stroke-dasharray:none;fill:none;fill-opacity:1;fill-rule: evenodd"/>
<path id="Shape2DView_nwe0089"  d="M 4.92 -2.9499999999999984 L 6.89973014384 -2.9499999999999984 " stroke="#191919" stroke-width="0.35 px" style="stroke-width:0.35;stroke-miterlimit:4;stroke-dasharray:none;fill:none;fill-opacity:1;fill-rule: evenodd"/>
<path id="Shape2DView_nwe0090"  d="M 4.92 2.950000000000002 L 6.89973014384 2.950000000000002 " stroke="#191919" stroke-width="0.35 px" style="stroke-width:0.35;stroke-miterlimit:4;stroke-dasharray:none;fill:none;fill-opacity:1;fill-rule: evenodd"/>
<path id="Shape2DView_nwe0091"  d="M 0.7000072152931835 -0.3499999999999987 Q 0.06809646702211186 -0.3499999999999987 1.1213252548714081e-14 -0.34999999999999887 " stroke="#191919" stroke-width="0.35 px" style="stroke-width:0.35;stroke-miterlimit:4;stroke-dasharray:none;fill:none;fill-opacity:1;fill-rule: evenodd"/>
<path id="Shape2DView_nwe0092"  d="M 0.7000072152931835 0.35000000000000125 Q 0.06809646702212901 0.35000000000000114 -1.199040866595169e-14 0.3500000000000011 " stroke="#191919" stroke-width="0.35 px" style="stroke-width:0.35;stroke-miterlimit:4;stroke-dasharray:none;fill:none;fill-opacity:1;fill-rule: evenodd"/>
<path id="Shape2DView_nwe0093"  d="M 7.891848803528764 2.949999999999956 Q 7.812470814602725 3.2756313679143085 7.485924647545362 3.351158694040534 Q 7.368683515092021 3.344681998819449 7.251442382638681 3.338205303598363 Q 6.967498969722456 3.242029247948513 6.899730143839272 2.9500000000001427 " stroke="#191919" stroke-width="0.35 px" style="stroke-width:0.35;stroke-miterlimit:4;stroke-dasharray:none;fill:none;fill-opacity:1;fill-rule: evenodd"/>
<path id="Shape2DView_nwe0094"  d="M 7.891848803528764 -2.9499999999999527 Q 7.812470814602714 -3.2756313679143125 7.485924647545362 -3.3511586940405325 Q 7.3686835150920205 -3.3446819988194463 7.251442382638682 -3.3382053035983597 Q 6.967498969722457 -3.2420292479485093 6.899730143839273 -2.950000000000139 " stroke="#191919" stroke-width="0.35 px" style="stroke-width:0.35;stroke-miterlimit:4;stroke-dasharray:none;fill:none;fill-opacity:1;fill-rule: evenodd"/>
<path id="Shape2DView_nwe0095"  d="M 7.891848803529 -2.9499999999999984 L 8.920782775419 -2.9499999999999984 " stroke="#191919" stroke-width="0.35 px" style="stroke-width:0.35;stroke-miterlimit:4;stroke-dasharray:none;fill:none;fill-opacity:1;fill-rule: evenodd"/>
<path id="Shape2DView_nwe0096"  d="M 7.891848803529 2.950000000000002 L 8.920782775419 2.950000000000002 " stroke="#191919" stroke-width="0.35 px" style="stroke-width:0.35;stroke-miterlimit:4;stroke-dasharray:none;fill:none;fill-opacity:1;fill-rule: evenodd"/>
<path id="Shape2DView_nwe0097"  d="M 9.912901435107763 2.949999999999956 Q 9.83352344961125 3.2756313868300584 9.50697727422316 3.3511586670078213 Q 9.393083037810413 3.345654644190222 9.279188801397662 3.3401506213726218 Q 8.989920103716015 3.246185503740472 8.92078277541827 2.9500000000001427 " stroke="#191919" stroke-width="0.35 px" style="stroke-width:0.35;stroke-miterlimit:4;stroke-dasharray:none;fill:none;fill-opacity:1;fill-rule: evenodd"/>
<path id="Shape2DView_nwe0098"  d="M 9.912901435107763 -2.9499999999999527 Q 9.833523449611263 -3.2756313868300433 9.50697727422316 -3.3511586670078177 Q 9.393083037810415 -3.345654644190218 9.279188801397662 -3.340150621372618 Q 8.989920103716013 -3.2461855037404677 8.92078277541827 -2.950000000000139 " stroke="#191919" stroke-width="0.35 px" style="stroke-width:0.35;stroke-miterlimit:4;stroke-dasharray:none;fill:none;fill-opacity:1;fill-rule: evenodd"/>
<path id="Shape2DView_nwe0099"  d="M 9.912901435108 -2.9499999999999984 L 10.941835406998 -2.9499999999999984 " stroke="#191919" stroke-width="0.35 px" style="stroke-width:0.35;stroke-miterlimit:4;stroke-dasharray:none;fill:none;fill-opacity:1;fill-rule: evenodd"/>
<path id="Shape2DView_nwe0100"  d="M 9.912901435108 2.950000000000002 L 10.941835406998 2.950000000000002 " stroke="#191919" stroke-width="0.35 px" style="stroke-width:0.35;stroke-miterlimit:4;stroke-dasharray:none;fill:none;fill-opacity:1;fill-rule: evenodd"/>
<path id="Shape2DView_nwe0101"  d="M 11.933954066686765 2.949999999999956 Q 11.85457608119027 3.2756313868300415 11.528029905802164 3.3511586670078217 Q 11.414135669389413 3.3456546441902217 11.300241432976668 3.3401506213726218 Q 11.010972735295015 3.246185503740472 10.941835406997274 2.9500000000001427 " stroke="#191919" stroke-width="0.35 px" style="stroke-width:0.35;stroke-miterlimit:4;stroke-dasharray:none;fill:none;fill-opacity:1;fill-rule: evenodd"/>
<path id="Shape2DView_nwe0102"  d="M 11.933954066686765 -2.9499999999999527 Q 11.854576081190253 -3.2756313868300513 11.528029905802164 -3.3511586670078177 Q 11.414135669389413 -3.345654644190218 11.300241432976668 -3.340150621372618 Q 11.010972735295011 -3.2461855037404677 10.941835406997274 -2.950000000000139 " stroke="#191919" stroke-width="0.35 px" style="stroke-width:0.35;stroke-miterlimit:4;stroke-dasharray:none;fill:none;fill-opacity:1;fill-rule: evenodd"/>
<path id="Shape2DView_nwe0103"  d="M 11.933954066687 -2.9499999999999984 L 12.962888038577 -2.9499999999999984 " stroke="#191919" stroke-width="0.35 px" style="stroke-width:0.35;stroke-miterlimit:4;stroke-dasharray:none;fill:none;fill-opacity:1;fill-rule: evenodd"/>
<path id="Shape2DView_nwe0104"  d="M 11.933954066687 2.950000000000002 L 12.962888038577 2.950000000000002 " stroke="#191919" stroke-width="0.35 px" style="stroke-width:0.35;stroke-miterlimit:4;stroke-dasharray:none;fill:none;fill-opacity:1;fill-rule: evenodd"/>
<path id="Shape2DView_nwe0105"  d="M 13.955006698265764 2.949999999999956 Q 13.875628712769274 3.2756313868300415 13.54908253738116 3.3511586670078217 Q 13.435188300968413 3.3456546441902217 13.321294064555667 3.3401506213726218 Q 13.032025366874016 3.246185503740472 12.962888038576274 2.9500000000001427 " stroke="#191919" stroke-width="0.35 px" style="stroke-width:0.35;stroke-miterlimit:4;stroke-dasharray:none;fill:none;fill-opacity:1;fill-rule: evenodd"/>
<path id="Shape2DView_nwe0106"  d="M 13.955006698265764 -2.9499999999999527 Q 13.875628712769256 -3.2756313868300513 13.54908253738116 -3.3511586670078177 Q 13.435188300968413 -3.345654644190218 13.321294064555667 -3.340150621372618 Q 13.032025366874013 -3.2461855037404677 12.962888038576274 -2.950000000000139 " stroke="#191919" stroke-width="0.35 px" style="stroke-width:0.35;stroke-miterlimit:4;stroke-dasharray:none;fill:none;fill-opacity:1;fill-rule: evenodd"/>
<path id="Shape2DView_nwe0107"  d="M 13.955006698266 -2.9499999999999984 L 14.983940670156 -2.9499999999999984 " stroke="#191919" stroke-width="0.35 px" style="stroke-width:0.35;stroke-miterlimit:4;stroke-dasharray:none;fill:none;fill-opacity:1;fill-rule: evenodd"/>
<path id="Shape2DView_nwe0108"  d="M 13.955006698266 2.950000000000002 L 14.983940670156 2.950000000000002 " stroke="#191919" stroke-width="0.35 px" style="stroke-width:0.35;stroke-miterlimit:4;stroke-dasharray:none;fill:none;fill-opacity:1;fill-rule: evenodd"/>
<path id="Shape2DView_nwe0109"  d="M 15.976059329844729 2.9500000000001427 Q 15.89668134737094 3.275631403502748 15.570135164640092 3.351158643180846 Q 15.459600924168885 3.346581025174694 15.34906668369768 3.342003407168542 Q 15.054469282169897 3.2503545515164367 14.983940670155272 2.9500000000001427 " stroke="#191919" stroke-width="0.35 px" style="stroke-width:0.35;stroke-miterlimit:4;stroke-dasharray:none;fill:none;fill-opacity:1;fill-rule: evenodd"/>
<path id="Shape2DView_nwe0110"  d="M 15.976059329844729 -2.950000000000139 Q 15.896681347370944 -3.275631403502739 15.570135164640092 -3.3511586431808427 Q 15.459600924168885 -3.3465810251746904 15.34906668369768 -3.3420034071685385 Q 15.0544692821699 -3.250354551516434 14.983940670155272 -2.950000000000139 " stroke="#191919" stroke-width="0.35 px" style="stroke-width:0.35;stroke-miterlimit:4;stroke-dasharray:none;fill:none;fill-opacity:1;fill-rule: evenodd"/>
<path id="Shape2DView_nwe0111"  d="M 15.976059329844 -2.9499999999999984 L 17.004993301734 -2.9499999999999984 " stroke="#191919" stroke-width="0.35 px" style="stroke-width:0.35;stroke-miterlimit:4;stroke-dasharray:none;fill:none;fill-opacity:1;fill-rule: evenodd"/>
<path id="Shape2DView_nwe0112"  d="M 15.976059329844 2.950000000000002 L 17.004993301734 2.950000000000002 " stroke="#191919" stroke-width="0.35 px" style="stroke-width:0.35;stroke-miterlimit:4;stroke-dasharray:none;fill:none;fill-opacity:1;fill-rule: evenodd"/>
<path id="Shape2DView_nwe0113"  d="M 17.997111961423727 2.9500000000001427 Q 17.893192950862506 3.109496587878304 17.789273940301296 3.2689931757564663 Q 17.170117624649965 3.504485796170341 17.00499330173424 2.9499999999999567 " stroke="#191919" stroke-width="0.35 px" style="stroke-width:0.35;stroke-miterlimit:4;stroke-dasharray:none;fill:none;fill-opacity:1;fill-rule: evenodd"/>
<path id="Shape2DView_nwe0114"  d="M 17.997111961423727 -2.950000000000139 Q 17.893192950862506 -3.1094965878783007 17.789273940301296 -3.2689931757564623 Q 17.17011762464997 -3.504485796170337 17.00499330173424 -2.9499999999999527 " stroke="#191919" stroke-width="0.35 px" style="stroke-width:0.35;stroke-miterlimit:4;stroke-dasharray:none;fill:none;fill-opacity:1;fill-rule: evenodd"/>
<path id="Shape2DView_nwe0115"  d="M 17.997111961423 -2.9499999999999984 L 19.026045933313 -2.9499999999999984 " stroke="#191919" stroke-width="0.35 px" style="stroke-width:0.35;stroke-miterlimit:4;stroke-dasharray:none;fill:none;fill-opacity:1;fill-rule: evenodd"/>
<path id="Shape2DView_nwe0116"  d="M 17.997111961423 2.950000000000002 L 19.026045933313 2.950000000000002 " stroke="#191919" stroke-width="0.35 px" style="stroke-width:0.35;stroke-miterlimit:4;stroke-dasharray:none;fill:none;fill-opacity:1;fill-rule: evenodd"/>
<path id="Shape2DView_nwe0117"  d="M 20.018164593002727 2.9500000000001427 Q 19.91424558244151 3.1094965878783043 19.810326571880292 3.268993175756466 Q 19.191170256228972 3.504485796170341 19.026045933313235 2.9499999999999558 " stroke="#191919" stroke-width="0.35 px" style="stroke-width:0.35;stroke-miterlimit:4;stroke-dasharray:none;fill:none;fill-opacity:1;fill-rule: evenodd"/>
<path id="Shape2DView_nwe0118"  d="M 20.018164593002727 -2.950000000000139 Q 19.91424558244151 -3.1094965878783007 19.810326571880292 -3.2689931757564623 Q 19.19117025622897 -3.5044857961703375 19.026045933313235 -2.9499999999999527 " stroke="#191919" stroke-width="0.35 px" style="stroke-width:0.35;stroke-miterlimit:4;stroke-dasharray:none;fill:none;fill-opacity:1;fill-rule: evenodd"/>
<path id="Shape2DView_nwe0119"  d="M 20.018164593002 -2.9499999999999984 L 21.047098564892003 -2.9499999999999984 " stroke="#191919" stroke-width="0.35 px" style="stroke-width:0.35;stroke-miterlimit:4;stroke-dasharray:none;fill:none;fill-opacity:1;fill-rule: evenodd"/>
<path id="Shape2DView_nwe0120"  d="M 20.018164593002 2.950000000000002 L 21.047098564892003 2.950000000000002 " stroke="#191919" stroke-width="0.35 px" style="stroke-width:0.35;stroke-miterlimit:4;stroke-dasharray:none;fill:none;fill-opacity:1;fill-rule: evenodd"/>
<path id="Shape2DView_nwe0121"  d="M 22.039217224581726 2.950000000000142 Q 22.00093329729677 3.042818324345979 21.96264937001183 3.135636648691817 Q 21.679882235539047 3.483593509715889 21.278265281204725 3.2842589476374306 Q 21.16268192304848 3.117129473818693 21.047098564892238 2.949999999999956 " stroke="#191919" stroke-width="0.35 px" style="stroke-width:0.35;stroke-miterlimit:4;stroke-dasharray:none;fill:none;fill-opacity:1;fill-rule: evenodd"/>
<path id="Shape2DView_nwe0122"  d="M 22.039217224581726 -2.9500000000001383 Q 22.00093329729677 -3.0428183243459763 21.962649370011828 -3.135636648691815 Q 21.679882235539047 -3.4835935097158837 21.278265281204725 -3.284258947637427 Q 21.16268192304848 -3.1171294738186903 21.047098564892238 -2.9499999999999527 " stroke="#191919" stroke-width="0.35 px" style="stroke-width:0.35;stroke-miterlimit:4;stroke-dasharray:none;fill:none;fill-opacity:1;fill-rule: evenodd"/>
<path id="Shape2DView_nwe0123"  d="M 22.039217224581 -2.9499999999999984 L 23.068151196471 -2.9499999999999984 " stroke="#191919" stroke-width="0.35 px" style="stroke-width:0.35;stroke-miterlimit:4;stroke-dasharray:none;fill:none;fill-opacity:1;fill-rule: evenodd"/>
<path id="Shape2DView_nwe0124"  d="M 22.039217224581 2.950000000000002 L 23.068151196471 2.950000000000002 " stroke="#191919" stroke-width="0.35 px" style="stroke-width:0.35;stroke-miterlimit:4;stroke-dasharray:none;fill:none;fill-opacity:1;fill-rule: evenodd"/>
<path id="Shape2DView_nwe0125"  d="M 24.060269856160726 2.950000000000142 Q 24.02198592887578 3.042818324345979 23.983702001590824 3.135636648691817 Q 23.700934867118058 3.483593509715889 23.29931791278372 3.2842589476374306 Q 23.183734554627478 3.117129473818693 23.068151196471234 2.949999999999956 " stroke="#191919" stroke-width="0.35 px" style="stroke-width:0.35;stroke-miterlimit:4;stroke-dasharray:none;fill:none;fill-opacity:1;fill-rule: evenodd"/>
<path id="Shape2DView_nwe0126"  d="M 24.060269856160726 -2.9500000000001383 Q 24.02198592887578 -3.0428183243459763 23.983702001590824 -3.135636648691815 Q 23.70093486711805 -3.4835935097158837 23.29931791278372 -3.284258947637427 Q 23.183734554627478 -3.1171294738186903 23.068151196471234 -2.9499999999999527 " stroke="#191919" stroke-width="0.35 px" style="stroke-width:0.35;stroke-miterlimit:4;stroke-dasharray:none;fill:none;fill-opacity:1;fill-rule: evenodd"/>
<path id="Shape2DView_nwe0127"  d="M 24.060269856160005 -2.9499999999999984 L 25.560000000000002 -2.9499999999999984 " stroke="#191919" stroke-width="0.35 px" style="stroke-width:0.35;stroke-miterlimit:4;stroke-dasharray:none;fill:none;fill-opacity:1;fill-rule: evenodd"/>
<path id="Shape2DView_nwe0128"  d="M 24.060269856160005 2.950000000000002 L 25.560000000000002 2.950000000000002 " stroke="#191919" stroke-width="0.35 px" style="stroke-width:0.35;stroke-miterlimit:4;stroke-dasharray:none;fill:none;fill-opacity:1;fill-rule: evenodd"/>
<path id="Shape2DView_nwe0129"  d="M 25.5600000000003 -2.949999999999713 L 25.920000000000393 -3.5499999999998644 " stroke="#191919" stroke-width="0.35 px" style="stroke-width:0.35;stroke-miterlimit:4;stroke-dasharray:none;fill:none;fill-opacity:1;fill-rule: evenodd"/>
<path id="Shape2DView_nwe0130"  d="M 25.5600000000003 2.9499999999997164 L 25.920000000000393 3.549999999999868 " stroke="#191919" stroke-width="0.35 px" style="stroke-width:0.35;stroke-miterlimit:4;stroke-dasharray:none;fill:none;fill-opacity:1;fill-rule: evenodd"/>
<path id="Shape2DView_nwe0131"  d="M 25.92 -3.549999999999998 L 26.88 -3.549999999999998 " stroke="#191919" stroke-width="0.35 px" style="stroke-width:0.35;stroke-miterlimit:4;stroke-dasharray:none;fill:none;fill-opacity:1;fill-rule: evenodd"/>
<path id="Shape2DView_nwe0132"  d="M 25.92 3.5500000000000016 L 26.88 3.5500000000000016 " stroke="#191919" stroke-width="0.35 px" style="stroke-width:0.35;stroke-miterlimit:4;stroke-dasharray:none;fill:none;fill-opacity:1;fill-rule: evenodd"/>
<path id="Shape2DView_nwe0133"  d="M 27.24000000008681 -0.5250000000107566 L 26.88000000008671 -3.5500000000108867 " stroke="#191919" stroke-width="0.35 px" style="stroke-width:0.35;stroke-miterlimit:4;stroke-dasharray:none;fill:none;fill-opacity:1;fill-rule: evenodd"/>
<path id="Shape2DView_nwe0134"  d="M 27.24000000008681 0.5250000000107602 L 26.88000000008671 3.5500000000108902 " stroke="#191919" stroke-width="0.35 px" style="stroke-width:0.35;stroke-miterlimit:4;stroke-dasharray:none;fill:none;fill-opacity:1;fill-rule: evenodd"/>
<path id="Shape2DView_nwe0135"  d="M 27.23999999999999 -0.3499999999999987 L 29.779999999999998 -0.3499999999999987 " stroke="#191919" stroke-width="0.35 px" style="stroke-width:0.35;stroke-miterlimit:4;stroke-dasharray:none;fill:none;fill-opacity:1;fill-rule: evenodd"/>
<path id="Shape2DView_nwe0136"  d="M 27.24 0.35000000000000125 L 29.779999999999998 0.35000000000000125 " stroke="#191919" stroke-width="0.35 px" style="stroke-width:0.35;stroke-miterlimit:4;stroke-dasharray:none;fill:none;fill-opacity:1;fill-rule: evenodd"/>
<path id="Shape2DView_nwe0137"  d="M 29.77999999997489 0.35000000000000125 Q 30.411908966180672 0.35000000000000114 30.48000000000001 0.3500000000000011 " stroke="#191919" stroke-width="0.35 px" style="stroke-width:0.35;stroke-miterlimit:4;stroke-dasharray:none;fill:none;fill-opacity:1;fill-rule: evenodd"/>
<path id="Shape2DView_nwe0138"  d="M 29.77999999997489 -0.3499999999999987 Q 30.411908966180683 -0.3499999999999987 30.47999999999999 -0.34999999999999887 " stroke="#191919" stroke-width="0.35 px" style="stroke-width:0.35;stroke-miterlimit:4;stroke-dasharray:none;fill:none;fill-opacity:1;fill-rule: evenodd"/>
<title>b'Shape2DView'</title>
</g>
<g id="Rectangle" transform="translate(0.659197,3.861749) scale(1,-1)">
<rect fill="#ff0000" id="origin" width="1" height="1" x="0" y="0" />
<title>b'Rectangle'</title>
</g>
</svg>