<?xml version="1.0"?>
<!DOCTYPE svg PUBLIC "-//W3C//DTD SVG 1.1//EN" "http://www.w3.org/Graphics/SVG/1.1/DTD/svg11.dtd">
<svg width="21.435194136106013mm" height="12.420297924243252mm" viewBox="0 0 21.435194136106013 12.420297924243252" xmlns="http://www.w3.org/2000/svg" version="1.1">
<g id="Shape2DView" transform="translate(0.557597,6.210149) scale(1,-1)">
<path id="Shape2DView_nwe0000"  d="M 1.6725 8.060219158778e-15 L 1.6725 -0.6717868566198395 L 1.6725 -1.3351256037378794 L 1.6725 -1.981674371730996 L 1.6725 -2.6033024347053426 L 1.6725 -3.1921924590920137 L 1.6725 -3.7409388111523962 L 1.6725 -4.242640687119281 L 1.6725 -4.690988894808175 L 1.6725 -5.080345195369701 L 1.6725 -5.405813207414511 L 1.6725 -5.663299981850202 L 1.6725 -5.849567473090939 L 1.6725 -5.962273259359452 L 1.6725 -5.999999999999997 " stroke="#191919" stroke-width="0.35 px" style="stroke-width:0.35;stroke-miterlimit:4;stroke-dasharray:none;fill:none;fill-opacity:1;fill-rule: evenodd"/>
<path id="Shape2DView_nwe0001"  d="M 1.6725 6.000000000000003 L 1.6725 5.962273259359458 L 1.6725 5.849567473090944 L 1.6725 5.6632999818502086 L 1.6725 5.405813207414518 L 1.6725 5.080345195369708 L 1.6725 4.690988894808182 L 1.6725 4.242640687119288 L 1.6725 3.740938811152405 L 1.6725 3.1921924590920234 L 1.6725 2.6033024347053524 L 1.6725 1.9816743717310066 L 1.6725 1.3351256037378905 L 1.6725 0.6717868566198513 L 1.6725 9.529795317754823e-15 " stroke="#191919" stroke-width="0.35 px" style="stroke-width:0.35;stroke-miterlimit:4;stroke-dasharray:none;fill:none;fill-opacity:1;fill-rule: evenodd"/>
<path id="Shape2DView_nwe0002"  d="M 1.41 4.4131365228848e-15 L 1.41 -0.05878134995423235 L 1.41 -0.11682349032706094 L 1.41 -0.17339650752645874 L 1.41 -0.22778896303671423 L 1.41 -0.2793168401705481 L 1.41 -0.3273321459758316 L 1.41 -0.3712310601229341 L 1.41 -0.4104615282957125 L 1.41 -0.4445302045948462 L 1.41 -0.47300865564876715 L 1.41 -0.49553874841189016 L 1.41 -0.5118371538954548 L 1.41 -0.5216989101939496 L 1.41 -0.5249999999999974 " stroke="#191919" stroke-width="0.35 px" style="stroke-width:0.35;stroke-miterlimit:4;stroke-dasharray:none;fill:none;fill-opacity:1;fill-rule: evenodd"/>
<path id="Shape2DView_nwe0003"  d="M 1.41 0.5250000000000027 L 1.41 0.5216989101939551 L 1.41 0.51183715389546 L 1.41 0.4955387484118957 L 1.41 0.47300865564877276 L 1.41 0.4445302045948519 L 1.41 0.41046152829571836 L 1.41 0.37123106012294016 L 1.41 0.3273321459758378 L 1.41 0.2793168401705544 L 1.41 0.2277889630367207 L 1.41 0.1733965075264654 L 1.41 0.11682349032706774 L 1.41 0.0587813499542393 L 1.41 4.541724436795272e-15 " stroke="#191919" stroke-width="0.35 px" style="stroke-width:0.35;stroke-miterlimit:4;stroke-dasharray:none;fill:none;fill-opacity:1;fill-rule: evenodd"/>
<path id="Shape2DView_nwe0004"  d="M 2.3725 8.060219158778e-15 L 2.3725 -0.6717868566198395 L 2.3725 -1.3351256037378794 L 2.3725 -1.981674371730996 L 2.3725 -2.6033024347053426 L 2.3725 -3.1921924590920137 L 2.3725 -3.7409388111523962 L 2.3725 -4.242640687119281 L 2.3725 -4.690988894808175 L 2.3725 -5.080345195369701 L 2.3725 -5.405813207414511 L 2.3725 -5.663299981850202 L 2.3725 -5.849567473090939 L 2.3725 -5.962273259359452 L 2.3725 -5.999999999999997 " stroke="#191919" stroke-width="0.35 px" style="stroke-width:0.35;stroke-miterlimit:4;stroke-dasharray:none;fill:none;fill-opacity:1;fill-rule: evenodd"/>
<path id="Shape2DView_nwe0005"  d="M 2.3725 6.000000000000003 L 2.3725 5.962273259359458 L 2.3725 5.849567473090944 L 2.3725 5.6632999818502086 L 2.3725 5.405813207414518 L 2.3725 5.080345195369708 L 2.3725 4.690988894808182 L 2.3725 4.242640687119288 L 2.3725 3.740938811152405 L 2.3725 3.1921924590920234 L 2.3725 2.6033024347053524 L 2.3725 1.9816743717310066 L 2.3725 1.3351256037378905 L 2.3725 0.6717868566198513 L 2.3725 9.529795317754823e-15 " stroke="#191919" stroke-width="0.35 px" style="stroke-width:0.35;stroke-miterlimit:4;stroke-dasharray:none;fill:none;fill-opacity:1;fill-rule: evenodd"/>
<path id="Shape2DView_nwe0006"  d="M 2.635 7.768785614814113e-15 L 2.635 -0.6228023983246427 L 2.635 -1.237772695131992 L 2.635 -1.8371772821256103 L 2.635 -2.413478298841411 L 2.635 -2.959428425616554 L 2.635 -3.4681620228392003 L 2.635 -3.9332814703501664 L 2.635 -4.348937621228412 L 2.635 -4.709903358207327 L 2.635 -5.011639327707203 L 2.635 -5.250351024840292 L 2.635 -5.423036511511391 L 2.635 -5.527524167531158 L 2.635 -5.562499999999997 " stroke="#191919" stroke-width="0.35 px" style="stroke-width:0.35;stroke-miterlimit:4;stroke-dasharray:none;fill:none;fill-opacity:1;fill-rule: evenodd"/>
<path id="Shape2DView_nwe0007"  d="M 2.635 5.562500000000003 L 2.635 5.527524167531165 L 2.635 5.4230365115113965 L 2.635 5.250351024840298 L 2.635 5.011639327707209 L 2.635 4.709903358207334 L 2.635 4.348937621228419 L 2.635 3.933281470350174 L 2.635 3.468162022839209 L 2.635 2.9594284256165637 L 2.635 2.413478298841421 L 2.635 1.8371772821256211 L 2.635 1.237772695132003 L 2.635 0.622802398324654 L 2.635 9.131205178865544e-15 " stroke="#191919" stroke-width="0.35 px" style="stroke-width:0.35;stroke-miterlimit:4;stroke-dasharray:none;fill:none;fill-opacity:1;fill-rule: evenodd"/>
<path id="Shape2DView_nwe0008"  d="M 4.078553229883 8.881784197001e-15 C 4.078553229882998 2.972324198301737 4.078553229882999 5.639146569645386 4.078553229883 5.5624999991707345 " stroke="#191919" stroke-width="0.35 px" style="stroke-width:0.35;stroke-miterlimit:4;stroke-dasharray:none;fill:none;fill-opacity:1;fill-rule: evenodd"/>
<path id="Shape2DView_nwe0009"  d="M 4.078553229883 -5.562499999999747 C 4.078553229882998 -5.639146695964096 4.078553229883001 -2.9723288193882667 4.078553229883 8.881784197001252e-15 " stroke="#191919" stroke-width="0.35 px" style="stroke-width:0.35;stroke-miterlimit:4;stroke-dasharray:none;fill:none;fill-opacity:1;fill-rule: evenodd"/>
<path id="Shape2DView_nwe0010"  d="M -1.1946772886474108e-14 0.35000000000000164 A 0.35 0.35 0 0 1 1.11268e-14 -0.35" stroke="#191919" stroke-width="0.35 px" style="stroke-width:0.35;stroke-miterlimit:4;stroke-dasharray:none;fill:none;fill-opacity:1;fill-rule: evenodd"/>
<path id="Shape2DView_nwe0011"  d="M 4.801973085906 8.881784197001e-15 C 4.801973085905999 2.9723241983001683 4.801973085906001 5.639146569646122 4.801973085906 5.562499999170735 " stroke="#191919" stroke-width="0.35 px" style="stroke-width:0.35;stroke-miterlimit:4;stroke-dasharray:none;fill:none;fill-opacity:1;fill-rule: evenodd"/>
<path id="Shape2DView_nwe0012"  d="M 4.801973085906 -5.562499999999747 C 4.801973085906 -5.639146695964096 4.801973085906 -2.9723288193882667 4.801973085906 8.881784197001252e-15 " stroke="#191919" stroke-width="0.35 px" style="stroke-width:0.35;stroke-miterlimit:4;stroke-dasharray:none;fill:none;fill-opacity:1;fill-rule: evenodd"/>
<path id="Shape2DView_nwe0013"  d="M 5.552237440409 8.881784197001e-15 C 5.552237440408997 2.972324198299933 5.552237440409002 5.639146569646196 5.552237440409 5.5624999991707345 " stroke="#191919" stroke-width="0.35 px" style="stroke-width:0.35;stroke-miterlimit:4;stroke-dasharray:none;fill:none;fill-opacity:1;fill-rule: evenodd"/>
<path id="Shape2DView_nwe0014"  d="M 5.552237440408997 -5.562499999999747 C 5.5522374404090025 -5.639146695964096 5.552237440408999 -2.9723288193882667 5.552237440409 8.881784197001252e-15 " stroke="#191919" stroke-width="0.35 px" style="stroke-width:0.35;stroke-miterlimit:4;stroke-dasharray:none;fill:none;fill-opacity:1;fill-rule: evenodd"/>
<path id="Shape2DView_nwe0015"  d="M 6.275657296433 8.881784197001e-15 C 6.275657296432996 2.972324198301506 6.2756572964330015 5.639146569645461 6.275657296433 5.562499999170735 " stroke="#191919" stroke-width="0.35 px" style="stroke-width:0.35;stroke-miterlimit:4;stroke-dasharray:none;fill:none;fill-opacity:1;fill-rule: evenodd"/>
<path id="Shape2DView_nwe0016"  d="M 6.275657296433 -5.562499999999747 C 6.275657296432998 -5.639146695964096 6.275657296433 -2.9723288193882667 6.275657296433 8.881784197001252e-15 " stroke="#191919" stroke-width="0.35 px" style="stroke-width:0.35;stroke-miterlimit:4;stroke-dasharray:none;fill:none;fill-opacity:1;fill-rule: evenodd"/>
<path id="Shape2DView_nwe0017"  d="M 7.025921650936 8.881784197001e-15 C 7.025921650935998 2.9723241983015036 7.0259216509360005 5.639146569645461 7.025921650935998 5.5624999991707345 " stroke="#191919" stroke-width="0.35 px" style="stroke-width:0.35;stroke-miterlimit:4;stroke-dasharray:none;fill:none;fill-opacity:1;fill-rule: evenodd"/>
<path id="Shape2DView_nwe0018"  d="M 7.025921650936 -5.562499999999747 C 7.025921650935996 -5.639146695964096 7.025921650936001 -2.9723288193882667 7.025921650936 8.881784197001252e-15 " stroke="#191919" stroke-width="0.35 px" style="stroke-width:0.35;stroke-miterlimit:4;stroke-dasharray:none;fill:none;fill-opacity:1;fill-rule: evenodd"/>
<path id="Shape2DView_nwe0019"  d="M 7.749341506959 8.881784197001e-15 C 7.749341506958996 2.972324198301739 7.749341506959002 5.639146569645386 7.749341506959 5.562499999170735 " stroke="#191919" stroke-width="0.35 px" style="stroke-width:0.35;stroke-miterlimit:4;stroke-dasharray:none;fill:none;fill-opacity:1;fill-rule: evenodd"/>
<path id="Shape2DView_nwe0020"  d="M 7.749341506959 -5.562499999999747 C 7.749341506959 -5.639146695964096 7.749341506958998 -2.9723288193882667 7.749341506959 8.881784197001252e-15 " stroke="#191919" stroke-width="0.35 px" style="stroke-width:0.35;stroke-miterlimit:4;stroke-dasharray:none;fill:none;fill-opacity:1;fill-rule: evenodd"/>
<path id="Shape2DView_nwe0021"  d="M 8.499605861462 8.881784197001e-15 C 8.499605861461998 2.972324198300956 8.499605861461998 5.63914656964571 8.499605861462 5.5624999991707345 " stroke="#191919" stroke-width="0.35 px" style="stroke-width:0.35;stroke-miterlimit:4;stroke-dasharray:none;fill:none;fill-opacity:1;fill-rule: evenodd"/>
<path id="Shape2DView_nwe0022"  d="M 8.499605861462 -5.562499999999747 C 8.499605861461998 -5.639146695964096 8.499605861462001 -2.9723288193882667 8.499605861462 8.881784197001252e-15 " stroke="#191919" stroke-width="0.35 px" style="stroke-width:0.35;stroke-miterlimit:4;stroke-dasharray:none;fill:none;fill-opacity:1;fill-rule: evenodd"/>
<path id="Shape2DView_nwe0023"  d="M 9.223025717485 8.881784197001e-15 C 9.223025717484994 2.9723241983001683 9.223025717484997 5.639146569646122 9.223025717485003 5.562499999170735 " stroke="#191919" stroke-width="0.35 px" style="stroke-width:0.35;stroke-miterlimit:4;stroke-dasharray:none;fill:none;fill-opacity:1;fill-rule: evenodd"/>
<path id="Shape2DView_nwe0024"  d="M 9.223025717485 -5.562499999999747 C 9.223025717484997 -5.639146695964096 9.223025717485 -2.9723288193882667 9.223025717485 8.881784197001252e-15 " stroke="#191919" stroke-width="0.35 px" style="stroke-width:0.35;stroke-miterlimit:4;stroke-dasharray:none;fill:none;fill-opacity:1;fill-rule: evenodd"/>
<path id="Shape2DView_nwe0025"  d="M 9.973290071988 8.881784197001e-15 C 9.973290071987995 2.9723241983004764 9.973290071988002 5.639146569645948 9.973290071988 5.5624999991707345 " stroke="#191919" stroke-width="0.35 px" style="stroke-width:0.35;stroke-miterlimit:4;stroke-dasharray:none;fill:none;fill-opacity:1;fill-rule: evenodd"/>
<path id="Shape2DView_nwe0026"  d="M 9.973290071988 -5.562499999999747 C 9.973290071987998 -5.639146695960803 9.973290071988 -2.972328819407442 9.973290071988 8.881784197001252e-15 " stroke="#191919" stroke-width="0.35 px" style="stroke-width:0.35;stroke-miterlimit:4;stroke-dasharray:none;fill:none;fill-opacity:1;fill-rule: evenodd"/>
<path id="Shape2DView_nwe0027"  d="M 10.696709928012 8.881784197001e-15 C 10.696709928011995 2.972324198300959 10.696709928012 5.639146569645709 10.696709928012 5.562499999170735 " stroke="#191919" stroke-width="0.35 px" style="stroke-width:0.35;stroke-miterlimit:4;stroke-dasharray:none;fill:none;fill-opacity:1;fill-rule: evenodd"/>
<path id="Shape2DView_nwe0028"  d="M 10.696709928012 -5.562499999999747 C 10.696709928011995 -5.639146695960803 10.696709928012003 -2.972328819407442 10.696709928012 8.881784197001252e-15 " stroke="#191919" stroke-width="0.35 px" style="stroke-width:0.35;stroke-miterlimit:4;stroke-dasharray:none;fill:none;fill-opacity:1;fill-rule: evenodd"/>
<path id="Shape2DView_nwe0029"  d="M 11.446974282515 8.881784197001e-15 C 11.446974282514997 2.972324198302047 11.446974282514999 5.639146569645213 11.446974282515 5.5624999991707345 " stroke="#191919" stroke-width="0.35 px" style="stroke-width:0.35;stroke-miterlimit:4;stroke-dasharray:none;fill:none;fill-opacity:1;fill-rule: evenodd"/>
<path id="Shape2DView_nwe0030"  d="M 11.446974282515 -5.562499999999747 C 11.446974282514999 -5.639146695964096 11.446974282515002 -2.9723288193882667 11.446974282515 8.881784197001252e-15 " stroke="#191919" stroke-width="0.35 px" style="stroke-width:0.35;stroke-miterlimit:4;stroke-dasharray:none;fill:none;fill-opacity:1;fill-rule: evenodd"/>
<path id="Shape2DView_nwe0031"  d="M 12.170394138538 8.881784197001e-15 C 12.170394138537995 2.972324198299935 12.170394138538004 5.639146569646196 12.170394138538 5.562499999170735 " stroke="#191919" stroke-width="0.35 px" style="stroke-width:0.35;stroke-miterlimit:4;stroke-dasharray:none;fill:none;fill-opacity:1;fill-rule: evenodd"/>
<path id="Shape2DView_nwe0032"  d="M 12.170394138538 -5.562499999999747 C 12.170394138537999 -5.639146695964096 12.170394138538002 -2.9723288193882667 12.170394138538 8.881784197001252e-15 " stroke="#191919" stroke-width="0.35 px" style="stroke-width:0.35;stroke-miterlimit:4;stroke-dasharray:none;fill:none;fill-opacity:1;fill-rule: evenodd"/>
<path id="Shape2DView_nwe0033"  d="M 12.920658493041 8.881784197001e-15 C 12.920658493040996 2.972324198300956 12.920658493041001 5.63914656964571 12.920658493041 5.5624999991707345 " stroke="#191919" stroke-width="0.35 px" style="stroke-width:0.35;stroke-miterlimit:4;stroke-dasharray:none;fill:none;fill-opacity:1;fill-rule: evenodd"/>
<path id="Shape2DView_nwe0034"  d="M 12.920658493041 -5.562499999999747 C 12.920658493041 -5.639146695960803 12.920658493041 -2.972328819407442 12.920658493041 8.881784197001252e-15 " stroke="#191919" stroke-width="0.35 px" style="stroke-width:0.35;stroke-miterlimit:4;stroke-dasharray:none;fill:none;fill-opacity:1;fill-rule: evenodd"/>
<path id="Shape2DView_nwe0035"  d="M 13.644078349064 8.881784197001e-15 C 13.644078349063994 2.972324198300959 13.644078349064 5.639146569645709 13.644078349064 5.562499999170735 " stroke="#191919" stroke-width="0.35 px" style="stroke-width:0.35;stroke-miterlimit:4;stroke-dasharray:none;fill:none;fill-opacity:1;fill-rule: evenodd"/>
<path id="Shape2DView_nwe0036"  d="M 13.644078349064 -5.562499999999747 C 13.644078349063996 -5.639146695964096 13.644078349063998 -2.9723288193882667 13.644078349064 8.881784197001252e-15 " stroke="#191919" stroke-width="0.35 px" style="stroke-width:0.35;stroke-miterlimit:4;stroke-dasharray:none;fill:none;fill-opacity:1;fill-rule: evenodd"/>
<path id="Shape2DView_nwe0037"  d="M 14.394342703567 8.881784197001e-15 C 14.394342703566995 2.9723241983025277 14.394342703566995 5.639146569644975 14.394342703567004 5.5624999991707345 " stroke="#191919" stroke-width="0.35 px" style="stroke-width:0.35;stroke-miterlimit:4;stroke-dasharray:none;fill:none;fill-opacity:1;fill-rule: evenodd"/>
<path id="Shape2DView_nwe0038"  d="M 14.394342703567 -5.562499999999747 C 14.394342703566991 -5.639146695964096 14.394342703567006 -2.9723288193882667 14.394342703567 8.881784197001252e-15 " stroke="#191919" stroke-width="0.35 px" style="stroke-width:0.35;stroke-miterlimit:4;stroke-dasharray:none;fill:none;fill-opacity:1;fill-rule: evenodd"/>
<path id="Shape2DView_nwe0039"  d="M 15.117762559591 8.881784197001e-15 C 15.117762559590995 2.972324198301506 15.117762559591 5.639146569645461 15.117762559591 5.562499999170735 " stroke="#191919" stroke-width="0.35 px" style="stroke-width:0.35;stroke-miterlimit:4;stroke-dasharray:none;fill:none;fill-opacity:1;fill-rule: evenodd"/>
<path id="Shape2DView_nwe0040"  d="M 15.117762559591 -5.562499999999747 C 15.117762559590998 -5.639146695960803 15.117762559590997 -2.972328819407442 15.117762559591 8.881784197001252e-15 " stroke="#191919" stroke-width="0.35 px" style="stroke-width:0.35;stroke-miterlimit:4;stroke-dasharray:none;fill:none;fill-opacity:1;fill-rule: evenodd"/>
<path id="Shape2DView_nwe0041"  d="M 15.868026914094 8.881784197001e-15 C 15.86802691409399 2.972324198302047 15.868026914094004 5.639146569645213 15.868026914094 5.5624999991707345 " stroke="#191919" stroke-width="0.35 px" style="stroke-width:0.35;stroke-miterlimit:4;stroke-dasharray:none;fill:none;fill-opacity:1;fill-rule: evenodd"/>
<path id="Shape2DView_nwe0042"  d="M 15.868026914093994 -5.562499999999747 C 15.868026914094003 -5.639146695964096 15.868026914093992 -2.9723288193882667 15.868026914094 8.881784197001252e-15 " stroke="#191919" stroke-width="0.35 px" style="stroke-width:0.35;stroke-miterlimit:4;stroke-dasharray:none;fill:none;fill-opacity:1;fill-rule: evenodd"/>
<path id="Shape2DView_nwe0043"  d="M 16.591446770117 8.881784197001e-15 C 16.591446770117 2.972324198301506 16.591446770116995 5.639146569645461 16.591446770117 5.562499999170735 " stroke="#191919" stroke-width="0.35 px" style="stroke-width:0.35;stroke-miterlimit:4;stroke-dasharray:none;fill:none;fill-opacity:1;fill-rule: evenodd"/>
<path id="Shape2DView_nwe0044"  d="M 16.591446770117 -5.562499999999747 C 16.591446770116995 -5.639146695964096 16.591446770117 -2.9723288193882667 16.591446770117 8.881784197001252e-15 " stroke="#191919" stroke-width="0.35 px" style="stroke-width:0.35;stroke-miterlimit:4;stroke-dasharray:none;fill:none;fill-opacity:1;fill-rule: evenodd"/>
<path id="Shape2DView_nwe0045"  d="M 17.684999999997 7.768785614813202e-15 L 17.684999999997 -0.6228023983245307 L 17.684999999997 -1.2377726951317696 L 17.684999999997 -1.83717728212528 L 17.684999999997 -2.4134782988409773 L 17.684999999997 -2.959428425616022 L 17.684999999997 -3.4681620228385768 L 17.684999999997 -3.9332814703494594 L 17.684999999997 -4.3489376212276305 L 17.684999999997 -4.70990335820648 L 17.684999999997 -5.011639327706302 L 17.684999999997 -5.250351024839348 L 17.684999999997 -5.423036511510416 L 17.684999999997 -5.5275241675301645 L 17.684999999997 -5.562499999998997 " stroke="#191919" stroke-width="0.35 px" style="stroke-width:0.35;stroke-miterlimit:4;stroke-dasharray:none;fill:none;fill-opacity:1;fill-rule: evenodd"/>
<path id="Shape2DView_nwe0046"  d="M 17.684999999997 5.562499999999003 L 17.684999999997 5.527524167530171 L 17.684999999997 5.423036511510421 L 17.684999999997 5.250351024839354 L 17.684999999997 5.011639327706308 L 17.684999999997 4.709903358206487 L 17.684999999997 4.348937621227638 L 17.684999999997 3.933281470349467 L 17.684999999997 3.4681620228385857 L 17.684999999997 2.9594284256160317 L 17.684999999997 2.4134782988409866 L 17.684999999997 1.8371772821252907 L 17.684999999997 1.2377726951317805 L 17.684999999997 0.6228023983245421 L 17.684999999997 9.131205178864388e-15 " stroke="#191919" stroke-width="0.35 px" style="stroke-width:0.35;stroke-miterlimit:4;stroke-dasharray:none;fill:none;fill-opacity:1;fill-rule: evenodd"/>
<path id="Shape2DView_nwe0047"  d="M 17.947499999997 8.060219158777708e-15 L 17.947499999997 -0.6717868566197276 L 17.947499999997 -1.3351256037376569 L 17.947499999997 -1.9816743717306655 L 17.947499999997 -2.6033024347049087 L 17.947499999997 -3.1921924590914816 L 17.947499999997 -3.7409388111517727 L 17.947499999997 -4.242640687118574 L 17.947499999997 -4.6909888948073935 L 17.947499999997 -5.080345195368855 L 17.947499999997 -5.40581320741361 L 17.947499999997 -5.663299981849258 L 17.947499999997 -5.849567473089964 L 17.947499999997 -5.962273259358458 L 17.947499999997 -5.999999999998997 " stroke="#191919" stroke-width="0.35 px" style="stroke-width:0.35;stroke-miterlimit:4;stroke-dasharray:none;fill:none;fill-opacity:1;fill-rule: evenodd"/>
<path id="Shape2DView_nwe0048"  d="M 17.947499999997 5.999999999999003 L 17.947499999997 5.962273259358465 L 17.947499999997 5.8495674730899685 L 17.947499999997 5.663299981849264 L 17.947499999997 5.405813207413617 L 17.947499999997 5.080345195368861 L 17.947499999997 4.6909888948074006 L 17.947499999997 4.242640687118581 L 17.947499999997 3.740938811151781 L 17.947499999997 3.192192459091491 L 17.947499999997 2.6033024347049185 L 17.947499999997 1.9816743717306764 L 17.947499999997 1.335125603737668 L 17.947499999997 0.6717868566197394 L 17.947499999997 9.529795317754287e-15 " stroke="#191919" stroke-width="0.35 px" style="stroke-width:0.35;stroke-miterlimit:4;stroke-dasharray:none;fill:none;fill-opacity:1;fill-rule: evenodd"/>
<path id="Shape2DView_nwe0049"  d="M 18.6475 8.060219158778e-15 L 18.6475 -0.6717868566198395 L 18.6475 -1.3351256037378794 L 18.6475 -1.981674371730996 L 18.6475 -2.6033024347053426 L 18.6475 -3.1921924590920137 L 18.6475 -3.7409388111523962 L 18.6475 -4.242640687119281 L 18.6475 -4.690988894808175 L 18.6475 -5.080345195369701 L 18.6475 -5.405813207414511 L 18.6475 -5.663299981850202 L 18.6475 -5.849567473090939 L 18.6475 -5.962273259359452 L 18.6475 -5.999999999999997 " stroke="#191919" stroke-width="0.35 px" style="stroke-width:0.35;stroke-miterlimit:4;stroke-dasharray:none;fill:none;fill-opacity:1;fill-rule: evenodd"/>
<path id="Shape2DView_nwe0050"  d="M 18.6475 6.000000000000003 L 18.6475 5.962273259359458 L 18.6475 5.849567473090944 L 18.6475 5.6632999818502086 L 18.6475 5.405813207414518 L 18.6475 5.080345195369708 L 18.6475 4.690988894808182 L 18.6475 4.242640687119288 L 18.6475 3.740938811152405 L 18.6475 3.1921924590920234 L 18.6475 2.6033024347053524 L 18.6475 1.9816743717310066 L 18.6475 1.3351256037378905 L 18.6475 0.6717868566198513 L 18.6475 9.529795317754823e-15 " stroke="#191919" stroke-width="0.35 px" style="stroke-width:0.35;stroke-miterlimit:4;stroke-dasharray:none;fill:none;fill-opacity:1;fill-rule: evenodd"/>
<path id="Shape2DView_nwe0051"  d="M 18.91 4.4131365228848e-15 L 18.91 -0.05878134995423235 L 18.91 -0.11682349032706094 L 18.91 -0.17339650752645874 L 18.91 -0.22778896303671423 L 18.91 -0.2793168401705481 L 18.91 -0.3273321459758316 L 18.91 -0.3712310601229341 L 18.91 -0.4104615282957125 L 18.91 -0.4445302045948462 L 18.91 -0.47300865564876715 L 18.91 -0.49553874841189016 L 18.91 -0.5118371538954548 L 18.91 -0.5216989101939496 L 18.91 -0.5249999999999974 " stroke="#191919" stroke-width="0.35 px" style="stroke-width:0.35;stroke-miterlimit:4;stroke-dasharray:none;fill:none;fill-opacity:1;fill-rule: evenodd"/>
<path id="Shape2DView_nwe0052"  d="M 18.91 0.5250000000000027 L 18.91 0.5216989101939551 L 18.91 0.51183715389546 L 18.91 0.4955387484118957 L 18.91 0.47300865564877276 L 18.91 0.4445302045948519 L 18.91 0.41046152829571836 L 18.91 0.37123106012294016 L 18.91 0.3273321459758378 L 18.91 0.2793168401705544 L 18.91 0.2277889630367207 L 18.91 0.1733965075264654 L 18.91 0.11682349032706774 L 18.91 0.0587813499542393 L 18.91 4.541724436795272e-15 " stroke="#191919" stroke-width="0.35 px" style="stroke-width:0.35;stroke-miterlimit:4;stroke-dasharray:none;fill:none;fill-opacity:1;fill-rule: evenodd"/>
<path id="Shape2DView_nwe0053"  d="M 20.31999999999999 -0.3499999999999983 A 0.35 0.35 0 0 1 20.32 0.35" stroke="#191919" stroke-width="0.35 px" style="stroke-width:0.35;stroke-miterlimit:4;stroke-dasharray:none;fill:none;fill-opacity:1;fill-rule: evenodd"/>
<path id="Shape2DView_nwe0054"  d="M 0.7000071861900004 -0.3499999999999982 A 0.35 3.593095111050595e-06 90.0 0 0 0.7000071861900004 0.35000000000000175 " stroke="#191919" stroke-width="0.35 px" style="stroke-width:0.35;stroke-miterlimit:4;stroke-dasharray:none;fill:none;fill-opacity:1;fill-rule: evenodd"/>
<path id="Shape2DView_nwe0055"  d="M 19.62 0.35000000000000175 L 19.62 0.34122476926364004 L 19.62 0.3153391037658485 L 19.62 0.27364101886381226 L 19.62 0.2182214306505586 L 19.62 0.15185930869114725 L 19.62 0.07788232688471194 L 19.62 1.9191395495869074e-15 L 19.62 -0.07788232688470811 L 19.62 -0.15185930869114342 L 19.62 -0.2182214306505548 L 19.62 -0.27364101886380854 L 19.62 -0.3153391037658448 L 19.62 -0.3412247692636365 L 19.62 -0.3499999999999982 " stroke="#191919" stroke-width="0.35 px" style="stroke-width:0.35;stroke-miterlimit:4;stroke-dasharray:none;fill:none;fill-opacity:1;fill-rule: evenodd"/>
<path id="Shape2DView_nwe0056"  d="M 1.6725000000008379 8.060219158778844e-15 L 1.6494093608363585 7.799861788030445e-15 L 1.6269862721214565 7.539478527523718e-15 L 1.6052307992599424 7.279070136746724e-15 L 1.5841430057083699 7.018637375260824e-15 L 1.5637229529757803 6.75818100269846e-15 L 1.5439707006235892 6.497701778760948e-15 L 1.524886306265273 6.237200463216258e-15 L 1.5064698255663984 5.976677815896789e-15 L 1.4887213122443086 5.7161345966971735e-15 L 1.471640818067982 5.455571565572034e-15 L 1.4552283928579755 5.194989482533792e-15 L 1.4394840844861676 4.934389107650429e-15 L 1.424407938875703 4.673771201043295e-15 L 1.4100000000007924 4.413136522885201e-15 " stroke="#191919" stroke-width="0.35 px" style="stroke-width:0.35;stroke-miterlimit:4;stroke-dasharray:none;fill:none;fill-opacity:1;fill-rule: evenodd"/>
<path id="Shape2DView_nwe0057"  d="M 1.6725 8.060219158779e-15 L 2.3725 8.060219158779e-15 " stroke="#191919" stroke-width="0.35 px" style="stroke-width:0.35;stroke-miterlimit:4;stroke-dasharray:none;fill:none;fill-opacity:1;fill-rule: evenodd"/>
<path id="Shape2DView_nwe0058"  d="M 2.3724999999998513 8.060219158778554e-15 L 2.3848033235022053 8.03717130249671e-15 L 2.3981587840987086 8.014384806906479e-15 L 2.4125538935054935 7.991880978964907e-15 L 2.4279751912948 7.969680861315145e-15 L 2.444408257481407 7.947805212610113e-15 L 2.461837726006326 7.926274488101716e-15 L 2.480247299105131 7.905108820513763e-15 L 2.4996197625475025 7.884328001216473e-15 L 2.519937001733727 7.863951461720161e-15 L 2.541180018633109 7.843998255505437e-15 L 2.56332894954845 7.824487040206868e-15 L 2.586363083689984 7.805436060166792e-15 L 2.610260882541407 7.7868631293756e-15 L 2.634999999999885 7.768785614814409e-15 " stroke="#191919" stroke-width="0.35 px" style="stroke-width:0.35;stroke-miterlimit:4;stroke-dasharray:none;fill:none;fill-opacity:1;fill-rule: evenodd"/>
<path id="Shape2DView_nwe0059"  d="M 2.635 7.768785614815e-15 L 4.078553229883 7.768785614815e-15 " stroke="#191919" stroke-width="0.35 px" style="stroke-width:0.35;stroke-miterlimit:4;stroke-dasharray:none;fill:none;fill-opacity:1;fill-rule: evenodd"/>
<path id="Shape2DView_nwe0060"  d="M 4.8019730859069965 7.768785614814386e-15 L 4.781263344212435 7.815064471948484e-15 L 4.747350374150749 7.857746004066054e-15 L 4.701547256201946 7.895177619648915e-15 L 4.645627446951886 7.925909999346162e-15 L 4.5817561124075095 7.948753212349284e-15 L 4.512406294666561 7.962822789470224e-15 L 4.440263157894905 7.967573969013212e-15 L 4.368120021123253 7.9628227894702e-15 L 4.298770203382316 7.948753212349235e-15 L 4.234898868837956 7.925909999346091e-15 L 4.17897905958792 7.895177619648825e-15 L 4.133175941639147 7.85774600406595e-15 L 4.0992629715774935 7.815064471948367e-15 L 4.078553229882967 7.768785614814261e-15 " stroke="#191919" stroke-width="0.35 px" style="stroke-width:0.35;stroke-miterlimit:4;stroke-dasharray:none;fill:none;fill-opacity:1;fill-rule: evenodd"/>
<path id="Shape2DView_nwe0061"  d="M 4.801973085906 7.768785614815e-15 L 5.552237440409 7.768785614815e-15 " stroke="#191919" stroke-width="0.35 px" style="stroke-width:0.35;stroke-miterlimit:4;stroke-dasharray:none;fill:none;fill-opacity:1;fill-rule: evenodd"/>
<path id="Shape2DView_nwe0062"  d="M 6.275657296433033 7.768785614814261e-15 L 6.254947554738501 7.815064471948375e-15 L 6.221034584676839 7.857746004065964e-15 L 6.175231466728051 7.895177619648844e-15 L 6.119311657477999 7.925909999346112e-15 L 6.055440322933622 7.948753212349252e-15 L 5.986090505192667 7.96282278947021e-15 L 5.913947368421 7.967573969013212e-15 L 5.841804231649332 7.96282278947021e-15 L 5.7724544139083775 7.948753212349252e-15 L 5.708583079364001 7.925909999346112e-15 L 5.6526632701139485 7.895177619648844e-15 L 5.606860152165161 7.857746004065964e-15 L 5.572947182103499 7.815064471948375e-15 L 5.552237440408967 7.768785614814261e-15 " stroke="#191919" stroke-width="0.35 px" style="stroke-width:0.35;stroke-miterlimit:4;stroke-dasharray:none;fill:none;fill-opacity:1;fill-rule: evenodd"/>
<path id="Shape2DView_nwe0063"  d="M 6.275657296433 7.768785614815e-15 L 7.025921650936 7.768785614815e-15 " stroke="#191919" stroke-width="0.35 px" style="stroke-width:0.35;stroke-miterlimit:4;stroke-dasharray:none;fill:none;fill-opacity:1;fill-rule: evenodd"/>
<path id="Shape2DView_nwe0064"  d="M 7.749341506959033 7.768785614814261e-15 L 7.728631765264507 7.815064471948367e-15 L 7.694718795202854 7.85774600406595e-15 L 7.64891567725408 7.895177619648825e-15 L 7.592995868004044 7.925909999346091e-15 L 7.529124533459685 7.948753212349235e-15 L 7.459774715718748 7.9628227894702e-15 L 7.387631578947095 7.967573969013212e-15 L 7.315488442175439 7.962822789470224e-15 L 7.246138624434491 7.948753212349284e-15 L 7.182267289890114 7.925909999346162e-15 L 7.126347480640055 7.895177619648915e-15 L 7.080544362691252 7.857746004066054e-15 L 7.046631392629566 7.815064471948484e-15 L 7.025921650935004 7.768785614814386e-15 " stroke="#191919" stroke-width="0.35 px" style="stroke-width:0.35;stroke-miterlimit:4;stroke-dasharray:none;fill:none;fill-opacity:1;fill-rule: evenodd"/>
<path id="Shape2DView_nwe0065"  d="M 7.749341506959 7.768785614815e-15 L 8.499605861462 7.768785614815e-15 " stroke="#191919" stroke-width="0.35 px" style="stroke-width:0.35;stroke-miterlimit:4;stroke-dasharray:none;fill:none;fill-opacity:1;fill-rule: evenodd"/>
<path id="Shape2DView_nwe0066"  d="M 9.223025717485998 7.768785614814386e-15 L 9.202315975791434 7.815064471948484e-15 L 9.168403005729749 7.857746004066055e-15 L 9.122599887780947 7.895177619648915e-15 L 9.066680078530887 7.925909999346162e-15 L 9.00280874398651 7.948753212349284e-15 L 8.933458926245562 7.962822789470224e-15 L 8.861315789473904 7.967573969013212e-15 L 8.789172652702252 7.9628227894702e-15 L 8.719822834961315 7.948753212349235e-15 L 8.655951500416956 7.925909999346091e-15 L 8.60003169116692 7.895177619648825e-15 L 8.554228573218147 7.85774600406595e-15 L 8.520315603156494 7.815064471948367e-15 L 8.499605861461967 7.768785614814261e-15 " stroke="#191919" stroke-width="0.35 px" style="stroke-width:0.35;stroke-miterlimit:4;stroke-dasharray:none;fill:none;fill-opacity:1;fill-rule: evenodd"/>
<path id="Shape2DView_nwe0067"  d="M 9.223025717485 7.768785614815e-15 L 9.973290071988 7.768785614815e-15 " stroke="#191919" stroke-width="0.35 px" style="stroke-width:0.35;stroke-miterlimit:4;stroke-dasharray:none;fill:none;fill-opacity:1;fill-rule: evenodd"/>
<path id="Shape2DView_nwe0068"  d="M 10.696709928012034 7.768785614814261e-15 L 10.676000186317502 7.815064471948375e-15 L 10.64208721625584 7.857746004065964e-15 L 10.596284098307052 7.895177619648844e-15 L 10.540364289056999 7.925909999346112e-15 L 10.476492954512622 7.948753212349252e-15 L 10.40714313677167 7.96282278947021e-15 L 10.335 7.967573969013212e-15 L 10.262856863228333 7.96282278947021e-15 L 10.193507045487378 7.948753212349252e-15 L 10.129635710943 7.925909999346112e-15 L 10.07371590169295 7.895177619648844e-15 L 10.027912783744162 7.857746004065964e-15 L 9.9939998136825 7.815064471948375e-15 L 9.973290071987968 7.768785614814261e-15 " stroke="#191919" stroke-width="0.35 px" style="stroke-width:0.35;stroke-miterlimit:4;stroke-dasharray:none;fill:none;fill-opacity:1;fill-rule: evenodd"/>
<path id="Shape2DView_nwe0069"  d="M 10.696709928012 7.768785614815e-15 L 11.446974282515 7.768785614815e-15 " stroke="#191919" stroke-width="0.35 px" style="stroke-width:0.35;stroke-miterlimit:4;stroke-dasharray:none;fill:none;fill-opacity:1;fill-rule: evenodd"/>
<path id="Shape2DView_nwe0070"  d="M 12.170394138538033 7.768785614814261e-15 L 12.149684396843506 7.815064471948367e-15 L 12.115771426781853 7.85774600406595e-15 L 12.06996830883308 7.895177619648825e-15 L 12.014048499583044 7.925909999346091e-15 L 11.950177165038685 7.948753212349235e-15 L 11.880827347297748 7.9628227894702e-15 L 11.808684210526096 7.967573969013212e-15 L 11.736541073754438 7.962822789470224e-15 L 11.66719125601349 7.948753212349284e-15 L 11.603319921469113 7.925909999346162e-15 L 11.547400112219053 7.895177619648915e-15 L 11.501596994270251 7.857746004066054e-15 L 11.467684024208566 7.815064471948484e-15 L 11.446974282514002 7.768785614814386e-15 " stroke="#191919" stroke-width="0.35 px" style="stroke-width:0.35;stroke-miterlimit:4;stroke-dasharray:none;fill:none;fill-opacity:1;fill-rule: evenodd"/>
<path id="Shape2DView_nwe0071"  d="M 12.170394138538 7.768785614815e-15 L 12.920658493041 7.768785614815e-15 " stroke="#191919" stroke-width="0.35 px" style="stroke-width:0.35;stroke-miterlimit:4;stroke-dasharray:none;fill:none;fill-opacity:1;fill-rule: evenodd"/>
<path id="Shape2DView_nwe0072"  d="M 13.644078349064998 7.768785614814386e-15 L 13.623368607370434 7.815064471948484e-15 L 13.589455637308749 7.857746004066055e-15 L 13.543652519359947 7.895177619648915e-15 L 13.487732710109887 7.925909999346162e-15 L 13.42386137556551 7.948753212349284e-15 L 13.354511557824562 7.962822789470224e-15 L 13.282368421052904 7.967573969013212e-15 L 13.210225284281252 7.9628227894702e-15 L 13.140875466540315 7.948753212349235e-15 L 13.077004131995956 7.925909999346091e-15 L 13.02108432274592 7.895177619648825e-15 L 12.975281204797147 7.85774600406595e-15 L 12.941368234735494 7.815064471948367e-15 L 12.920658493040968 7.768785614814261e-15 " stroke="#191919" stroke-width="0.35 px" style="stroke-width:0.35;stroke-miterlimit:4;stroke-dasharray:none;fill:none;fill-opacity:1;fill-rule: evenodd"/>
<path id="Shape2DView_nwe0073"  d="M 13.644078349064 7.768785614815e-15 L 14.394342703567 7.768785614815e-15 " stroke="#191919" stroke-width="0.35 px" style="stroke-width:0.35;stroke-miterlimit:4;stroke-dasharray:none;fill:none;fill-opacity:1;fill-rule: evenodd"/>
<path id="Shape2DView_nwe0074"  d="M 15.117762559591032 7.768785614814261e-15 L 15.0970528178965 7.815064471948375e-15 L 15.063139847834838 7.857746004065964e-15 L 15.01733672988605 7.895177619648844e-15 L 14.961416920635997 7.925909999346112e-15 L 14.89754558609162 7.948753212349252e-15 L 14.828195768350668 7.96282278947021e-15 L 14.756052631579 7.967573969013212e-15 L 14.683909494807331 7.96282278947021e-15 L 14.614559677066378 7.948753212349252e-15 L 14.550688342522001 7.925909999346112e-15 L 14.494768533271948 7.895177619648844e-15 L 14.44896541532316 7.857746004065964e-15 L 14.415052445261498 7.815064471948375e-15 L 14.394342703566966 7.768785614814261e-15 " stroke="#191919" stroke-width="0.35 px" style="stroke-width:0.35;stroke-miterlimit:4;stroke-dasharray:none;fill:none;fill-opacity:1;fill-rule: evenodd"/>
<path id="Shape2DView_nwe0075"  d="M 15.117762559591 7.768785614815e-15 L 15.868026914094 7.768785614815e-15 " stroke="#191919" stroke-width="0.35 px" style="stroke-width:0.35;stroke-miterlimit:4;stroke-dasharray:none;fill:none;fill-opacity:1;fill-rule: evenodd"/>
<path id="Shape2DView_nwe0076"  d="M 16.591446770117035 7.768785614814261e-15 L 16.570737028422506 7.815064471948367e-15 L 16.536824058360857 7.85774600406595e-15 L 16.49102094041208 7.895177619648825e-15 L 16.435101131162046 7.925909999346091e-15 L 16.371229796617687 7.948753212349235e-15 L 16.301879978876748 7.9628227894702e-15 L 16.229736842105098 7.967573969013212e-15 L 16.15759370533344 7.962822789470224e-15 L 16.08824388759249 7.948753212349284e-15 L 16.024372553048114 7.92590999934616e-15 L 15.968452743798055 7.895177619648915e-15 L 15.922649625849253 7.857746004066054e-15 L 15.888736655787566 7.815064471948484e-15 L 15.868026914093004 7.768785614814386e-15 " stroke="#191919" stroke-width="0.35 px" style="stroke-width:0.35;stroke-miterlimit:4;stroke-dasharray:none;fill:none;fill-opacity:1;fill-rule: evenodd"/>
<path id="Shape2DView_nwe0077"  d="M 16.591446770117 7.768785614815e-15 L 17.684999999997 7.768785614815e-15 " stroke="#191919" stroke-width="0.35 px" style="stroke-width:0.35;stroke-miterlimit:4;stroke-dasharray:none;fill:none;fill-opacity:1;fill-rule: evenodd"/>
<path id="Shape2DView_nwe0078"  d="M 17.68499999999633 7.768785614814564e-15 L 17.70973911745476 7.786863129375748e-15 L 17.73363691630613 7.805436060166932e-15 L 17.756671050447608 7.824487040207e-15 L 17.77881998136289 7.843998255505564e-15 L 17.80006299826221 7.863951461720282e-15 L 17.82038023744837 7.884328001216586e-15 L 17.83975270089067 7.905108820513872e-15 L 17.858162273989404 7.92627448810182e-15 L 17.875591742514246 7.94780521261021e-15 L 17.892024808700775 7.969680861315238e-15 L 17.907446106489996 7.991880978964994e-15 L 17.921841215896695 8.014384806906559e-15 L 17.93519667649311 8.037171302496782e-15 L 17.94749999999537 8.060219158778618e-15 " stroke="#191919" stroke-width="0.35 px" style="stroke-width:0.35;stroke-miterlimit:4;stroke-dasharray:none;fill:none;fill-opacity:1;fill-rule: evenodd"/>
<path id="Shape2DView_nwe0079"  d="M 17.947499999997 8.060219158779e-15 L 18.6475 8.060219158779e-15 " stroke="#191919" stroke-width="0.35 px" style="stroke-width:0.35;stroke-miterlimit:4;stroke-dasharray:none;fill:none;fill-opacity:1;fill-rule: evenodd"/>
<path id="Shape2DView_nwe0080"  d="M 18.910000000049166 4.413136522886392e-15 L 18.895592061174256 4.673771201044859e-15 L 18.88051591556379 4.934389107652029e-15 L 18.864771607191983 5.194989482535423e-15 L 18.848359181981976 5.4555715655737e-15 L 18.83127868780565 5.716134596698873e-15 L 18.81353017448353 5.976677815898523e-15 L 18.795113693784657 6.237200463218025e-15 L 18.77602929942637 6.4977017787627485e-15 L 18.75627704707412 6.758181002700293e-15 L 18.73585699434156 7.01863737526269e-15 L 18.714769200789988 7.279070136748626e-15 L 18.693013727928445 7.539478527525654e-15 L 18.670590639213543 7.799861788032414e-15 L 18.647500000049064 8.060219158780845e-15 " stroke="#191919" stroke-width="0.35 px" style="stroke-width:0.35;stroke-miterlimit:4;stroke-dasharray:none;fill:none;fill-opacity:1;fill-rule: evenodd"/>
<path id="Shape2DView_nwe0081"  d="M 1.6725000000008379 -5.999999999999933 L 1.4100000000007924 -0.5249999999999782 " stroke="#191919" stroke-width="0.35 px" style="stroke-width:0.35;stroke-miterlimit:4;stroke-dasharray:none;fill:none;fill-opacity:1;fill-rule: evenodd"/>
<path id="Shape2DView_nwe0082"  d="M 1.6725000000008379 5.999999999999939 L 1.4100000000007924 0.5249999999999835 " stroke="#191919" stroke-width="0.35 px" style="stroke-width:0.35;stroke-miterlimit:4;stroke-dasharray:none;fill:none;fill-opacity:1;fill-rule: evenodd"/>
<path id="Shape2DView_nwe0083"  d="M 1.6725 -5.999999999999997 L 2.3725 -5.999999999999997 " stroke="#191919" stroke-width="0.35 px" style="stroke-width:0.35;stroke-miterlimit:4;stroke-dasharray:none;fill:none;fill-opacity:1;fill-rule: evenodd"/>
<path id="Shape2DView_nwe0084"  d="M 1.6725 6.000000000000003 L 2.3725 6.000000000000003 " stroke="#191919" stroke-width="0.35 px" style="stroke-width:0.35;stroke-miterlimit:4;stroke-dasharray:none;fill:none;fill-opacity:1;fill-rule: evenodd"/>
<path id="Shape2DView_nwe0085"  d="M 2.3724999999998513 -5.999999999999948 L 2.634999999999885 -5.562499999999891 " stroke="#191919" stroke-width="0.35 px" style="stroke-width:0.35;stroke-miterlimit:4;stroke-dasharray:none;fill:none;fill-opacity:1;fill-rule: evenodd"/>
<path id="Shape2DView_nwe0086"  d="M 2.3724999999998513 5.999999999999953 L 2.634999999999885 5.562499999999896 " stroke="#191919" stroke-width="0.35 px" style="stroke-width:0.35;stroke-miterlimit:4;stroke-dasharray:none;fill:none;fill-opacity:1;fill-rule: evenodd"/>
<path id="Shape2DView_nwe0087"  d="M 0.7000071861912214 -0.3499999999999982 L 1.41 -0.3499999999999982 " stroke="#191919" stroke-width="0.35 px" style="stroke-width:0.35;stroke-miterlimit:4;stroke-dasharray:none;fill:none;fill-opacity:1;fill-rule: evenodd"/>
<path id="Shape2DView_nwe0088"  d="M 0.7000071861912214 0.35000000000000175 L 1.41 0.35000000000000175 " stroke="#191919" stroke-width="0.35 px" style="stroke-width:0.35;stroke-miterlimit:4;stroke-dasharray:none;fill:none;fill-opacity:1;fill-rule: evenodd"/>
<path id="Shape2DView_nwe0089"  d="M 2.635 -5.562499999999997 L 4.078553229883 -5.562499999999997 " stroke="#191919" stroke-width="0.35 px" style="stroke-width:0.35;stroke-miterlimit:4;stroke-dasharray:none;fill:none;fill-opacity:1;fill-rule: evenodd"/>
<path id="Shape2DView_nwe0090"  d="M 2.635 5.562500000000003 L 4.078553229883 5.562500000000003 " stroke="#191919" stroke-width="0.35 px" style="stroke-width:0.35;stroke-miterlimit:4;stroke-dasharray:none;fill:none;fill-opacity:1;fill-rule: evenodd"/>
<path id="Shape2DView_nwe0091"  d="M 0.7000071861897782 -0.34999999999999815 Q 0.06809646054671026 -0.3499999999999982 1.1213252548714081e-14 -0.3499999999999983 " stroke="#191919" stroke-width="0.35 px" style="stroke-width:0.35;stroke-miterlimit:4;stroke-dasharray:none;fill:none;fill-opacity:1;fill-rule: evenodd"/>
<path id="Shape2DView_nwe0092"  d="M 0.7000071861897782 0.3500000000000018 Q 0.6588688045615014 0.35000000000000175 0.6177304229332248 0.35000000000000187 Q 0.0463217758068768 0.35000000000000175 -1.199040866595169e-14 0.35000000000000164 " stroke="#191919" stroke-width="0.35 px" style="stroke-width:0.35;stroke-miterlimit:4;stroke-dasharray:none;fill:none;fill-opacity:1;fill-rule: evenodd"/>
<path id="Shape2DView_nwe0093"  d="M 4.8019730859069965 5.562500000000196 Q 4.774057315674497 5.630179755208182 4.746141545441997 5.697859510416169 Q 4.7024172698999 5.743522667547456 4.6586929943578035 5.789185824678741 Q 4.2453010897004315 5.991451570898721 4.078553229882966 5.562500000000009 " stroke="#191919" stroke-width="0.35 px" style="stroke-width:0.35;stroke-miterlimit:4;stroke-dasharray:none;fill:none;fill-opacity:1;fill-rule: evenodd"/>
<path id="Shape2DView_nwe0094"  d="M 4.8019730859069965 -5.562500000000191 Q 4.774057315674497 -5.630179755208177 4.746141545441997 -5.697859510416163 Q 4.7024172698999 -5.74352266754745 4.6586929943578035 -5.789185824678737 Q 4.2453010897004315 -5.991451570898715 4.078553229882966 -5.562500000000004 " stroke="#191919" stroke-width="0.35 px" style="stroke-width:0.35;stroke-miterlimit:4;stroke-dasharray:none;fill:none;fill-opacity:1;fill-rule: evenodd"/>
<path id="Shape2DView_nwe0095"  d="M 4.801973085906 -5.562499999999997 L 5.552237440409 -5.562499999999997 " stroke="#191919" stroke-width="0.35 px" style="stroke-width:0.35;stroke-miterlimit:4;stroke-dasharray:none;fill:none;fill-opacity:1;fill-rule: evenodd"/>
<path id="Shape2DView_nwe0096"  d="M 4.801973085906 5.562500000000003 L 5.552237440409 5.562500000000003 " stroke="#191919" stroke-width="0.35 px" style="stroke-width:0.35;stroke-miterlimit:4;stroke-dasharray:none;fill:none;fill-opacity:1;fill-rule: evenodd"/>
<path id="Shape2DView_nwe0097"  d="M 6.275657296433033 5.56250000000001 Q 6.24774152620056 5.630179755208022 6.219825755968088 5.697859510416034 Q 6.176101480426002 5.743522667547348 6.132377204883915 5.78918582467866 Q 5.718985300226505 5.991451570898807 5.552237440408967 5.56250000000001 " stroke="#191919" stroke-width="0.35 px" style="stroke-width:0.35;stroke-miterlimit:4;stroke-dasharray:none;fill:none;fill-opacity:1;fill-rule: evenodd"/>
<path id="Shape2DView_nwe0098"  d="M 6.275657296433033 -5.562500000000004 Q 6.24774152620056 -5.630179755208016 6.219825755968088 -5.697859510416029 Q 6.176101480426002 -5.743522667547342 6.132377204883915 -5.789185824678655 Q 5.718985300226505 -5.991451570898803 5.552237440408967 -5.562500000000004 " stroke="#191919" stroke-width="0.35 px" style="stroke-width:0.35;stroke-miterlimit:4;stroke-dasharray:none;fill:none;fill-opacity:1;fill-rule: evenodd"/>
<path id="Shape2DView_nwe0099"  d="M 6.275657296433 -5.562499999999997 L 7.025921650936 -5.562499999999997 " stroke="#191919" stroke-width="0.35 px" style="stroke-width:0.35;stroke-miterlimit:4;stroke-dasharray:none;fill:none;fill-opacity:1;fill-rule: evenodd"/>
<path id="Shape2DView_nwe0100"  d="M 6.275657296433 5.562500000000003 L 7.025921650936 5.562500000000003 " stroke="#191919" stroke-width="0.35 px" style="stroke-width:0.35;stroke-miterlimit:4;stroke-dasharray:none;fill:none;fill-opacity:1;fill-rule: evenodd"/>
<path id="Shape2DView_nwe0101"  d="M 7.749341506959032 5.56250000000001 Q 7.737289792727555 5.601249514896503 7.725238078496076 5.639999029792999 Q 7.67754129731312 5.705054202392615 7.629844516130163 5.770109374992232 Q 7.209476273159016 6.010742794793478 7.025921650935003 5.5625000000001945 " stroke="#191919" stroke-width="0.35 px" style="stroke-width:0.35;stroke-miterlimit:4;stroke-dasharray:none;fill:none;fill-opacity:1;fill-rule: evenodd"/>
<path id="Shape2DView_nwe0102"  d="M 7.749341506959032 -5.562500000000004 Q 7.737289792727555 -5.6012495148965 7.725238078496076 -5.639999029792993 Q 7.67754129731312 -5.70505420239261 7.629844516130163 -5.770109374992226 Q 7.209476273159016 -6.010742794793472 7.025921650935003 -5.562500000000189 " stroke="#191919" stroke-width="0.35 px" style="stroke-width:0.35;stroke-miterlimit:4;stroke-dasharray:none;fill:none;fill-opacity:1;fill-rule: evenodd"/>
<path id="Shape2DView_nwe0103"  d="M 7.749341506959 -5.562499999999997 L 8.499605861462 -5.562499999999997 " stroke="#191919" stroke-width="0.35 px" style="stroke-width:0.35;stroke-miterlimit:4;stroke-dasharray:none;fill:none;fill-opacity:1;fill-rule: evenodd"/>
<path id="Shape2DView_nwe0104"  d="M 7.749341506959 5.562500000000003 L 8.499605861462 5.562500000000003 " stroke="#191919" stroke-width="0.35 px" style="stroke-width:0.35;stroke-miterlimit:4;stroke-dasharray:none;fill:none;fill-opacity:1;fill-rule: evenodd"/>
<path id="Shape2DView_nwe0105"  d="M 9.223025717485998 5.562500000000196 Q 9.14932875967704 5.6773355222350785 9.07563180186808 5.792171044469962 Q 9.035516528193122 5.813912880944079 8.99540125451817 5.835654717418197 Q 8.620767522777646 5.929112347621002 8.49960586146197 5.562500000000008 " stroke="#191919" stroke-width="0.35 px" style="stroke-width:0.35;stroke-miterlimit:4;stroke-dasharray:none;fill:none;fill-opacity:1;fill-rule: evenodd"/>
<path id="Shape2DView_nwe0106"  d="M 9.223025717485998 -5.562500000000191 Q 9.14932875967704 -5.677335522235073 9.07563180186808 -5.792171044469958 Q 9.035516528193124 -5.813912880944075 8.99540125451817 -5.835654717418191 Q 8.620767522777646 -5.929112347620999 8.49960586146197 -5.562500000000003 " stroke="#191919" stroke-width="0.35 px" style="stroke-width:0.35;stroke-miterlimit:4;stroke-dasharray:none;fill:none;fill-opacity:1;fill-rule: evenodd"/>
<path id="Shape2DView_nwe0107"  d="M 9.223025717485 -5.562499999999997 L 9.973290071988 -5.562499999999997 " stroke="#191919" stroke-width="0.35 px" style="stroke-width:0.35;stroke-miterlimit:4;stroke-dasharray:none;fill:none;fill-opacity:1;fill-rule: evenodd"/>
<path id="Shape2DView_nwe0108"  d="M 9.223025717485 5.562500000000003 L 9.973290071988 5.562500000000003 " stroke="#191919" stroke-width="0.35 px" style="stroke-width:0.35;stroke-miterlimit:4;stroke-dasharray:none;fill:none;fill-opacity:1;fill-rule: evenodd"/>
<path id="Shape2DView_nwe0109"  d="M 10.696709928012034 5.56250000000001 Q 10.670196162037284 5.628060048347152 10.643682396062534 5.693620096694293 Q 10.598556116262722 5.741402960686478 10.553429836462916 5.78918582467866 Q 10.140037931805502 5.991451570898809 9.973290071987968 5.562500000000008 " stroke="#191919" stroke-width="0.35 px" style="stroke-width:0.35;stroke-miterlimit:4;stroke-dasharray:none;fill:none;fill-opacity:1;fill-rule: evenodd"/>
<path id="Shape2DView_nwe0110"  d="M 10.696709928012034 -5.562500000000004 Q 10.670196162037284 -5.6280600483471455 10.643682396062534 -5.693620096694287 Q 10.598556116262724 -5.7414029606864725 10.553429836462916 -5.789185824678655 Q 10.140037931805502 -5.991451570898803 9.973290071987968 -5.562500000000003 " stroke="#191919" stroke-width="0.35 px" style="stroke-width:0.35;stroke-miterlimit:4;stroke-dasharray:none;fill:none;fill-opacity:1;fill-rule: evenodd"/>
<path id="Shape2DView_nwe0111"  d="M 10.696709928012 -5.562499999999997 L 11.446974282515 -5.562499999999997 " stroke="#191919" stroke-width="0.35 px" style="stroke-width:0.35;stroke-miterlimit:4;stroke-dasharray:none;fill:none;fill-opacity:1;fill-rule: evenodd"/>
<path id="Shape2DView_nwe0112"  d="M 10.696709928012 5.562500000000003 L 11.446974282515 5.562500000000003 " stroke="#191919" stroke-width="0.35 px" style="stroke-width:0.35;stroke-miterlimit:4;stroke-dasharray:none;fill:none;fill-opacity:1;fill-rule: evenodd"/>
<path id="Shape2DView_nwe0113"  d="M 12.170394138538033 5.562500000000008 C 12.118419355213483 5.950542232171815 11.499146841792474 5.950778414408891 11.446974282514002 5.562500000000196 " stroke="#191919" stroke-width="0.35 px" style="stroke-width:0.35;stroke-miterlimit:4;stroke-dasharray:none;fill:none;fill-opacity:1;fill-rule: evenodd"/>
<path id="Shape2DView_nwe0114"  d="M 12.170394138538033 -5.562500000000003 C 12.118419355213486 -5.950542232171805 11.499146841792484 -5.950778414408892 11.446974282514002 -5.562500000000191 " stroke="#191919" stroke-width="0.35 px" style="stroke-width:0.35;stroke-miterlimit:4;stroke-dasharray:none;fill:none;fill-opacity:1;fill-rule: evenodd"/>
<path id="Shape2DView_nwe0115"  d="M 12.170394138538 -5.562499999999997 L 12.920658493041 -5.562499999999997 " stroke="#191919" stroke-width="0.35 px" style="stroke-width:0.35;stroke-miterlimit:4;stroke-dasharray:none;fill:none;fill-opacity:1;fill-rule: evenodd"/>
<path id="Shape2DView_nwe0116"  d="M 12.170394138538 5.562500000000003 L 12.920658493041 5.562500000000003 " stroke="#191919" stroke-width="0.35 px" style="stroke-width:0.35;stroke-miterlimit:4;stroke-dasharray:none;fill:none;fill-opacity:1;fill-rule: evenodd"/>
<path id="Shape2DView_nwe0117"  d="M 13.644078349064998 5.562500000000196 Q 13.570381391256038 5.677335522235079 13.496684433447081 5.792171044469961 Q 13.456569159772126 5.813912880944079 13.416453886097168 5.835654717418197 Q 13.041820154356648 5.929112347621002 12.920658493040968 5.562500000000008 " stroke="#191919" stroke-width="0.35 px" style="stroke-width:0.35;stroke-miterlimit:4;stroke-dasharray:none;fill:none;fill-opacity:1;fill-rule: evenodd"/>
<path id="Shape2DView_nwe0118"  d="M 13.644078349064998 -5.562500000000191 Q 13.570381391256038 -5.677335522235074 13.496684433447081 -5.792171044469956 Q 13.456569159772126 -5.813912880944073 13.416453886097168 -5.835654717418191 Q 13.04182015435665 -5.929112347620997 12.920658493040968 -5.562500000000003 " stroke="#191919" stroke-width="0.35 px" style="stroke-width:0.35;stroke-miterlimit:4;stroke-dasharray:none;fill:none;fill-opacity:1;fill-rule: evenodd"/>
<path id="Shape2DView_nwe0119"  d="M 13.644078349064 -5.562499999999997 L 14.394342703567 -5.562499999999997 " stroke="#191919" stroke-width="0.35 px" style="stroke-width:0.35;stroke-miterlimit:4;stroke-dasharray:none;fill:none;fill-opacity:1;fill-rule: evenodd"/>
<path id="Shape2DView_nwe0120"  d="M 13.644078349064 5.562500000000003 L 14.394342703567 5.562500000000003 " stroke="#191919" stroke-width="0.35 px" style="stroke-width:0.35;stroke-miterlimit:4;stroke-dasharray:none;fill:none;fill-opacity:1;fill-rule: evenodd"/>
<path id="Shape2DView_nwe0121"  d="M 15.117762559591032 5.562500000000008 Q 15.089846789358557 5.6301797552080215 15.061931019126085 5.697859510416032 Q 15.018206743583999 5.743522667547346 14.974482468041915 5.78918582467866 Q 14.561090563384502 5.991451570898807 14.394342703566966 5.56250000000001 " stroke="#191919" stroke-width="0.35 px" style="stroke-width:0.35;stroke-miterlimit:4;stroke-dasharray:none;fill:none;fill-opacity:1;fill-rule: evenodd"/>
<path id="Shape2DView_nwe0122"  d="M 15.117762559591032 -5.562500000000003 Q 15.089846789358564 -5.630179755208015 15.061931019126087 -5.697859510416028 Q 15.018206743583999 -5.7435226675473405 14.974482468041915 -5.789185824678655 Q 14.5610905633845 -5.991451570898802 14.394342703566966 -5.562500000000004 " stroke="#191919" stroke-width="0.35 px" style="stroke-width:0.35;stroke-miterlimit:4;stroke-dasharray:none;fill:none;fill-opacity:1;fill-rule: evenodd"/>
<path id="Shape2DView_nwe0123"  d="M 15.117762559591 -5.562499999999997 L 15.868026914094 -5.562499999999997 " stroke="#191919" stroke-width="0.35 px" style="stroke-width:0.35;stroke-miterlimit:4;stroke-dasharray:none;fill:none;fill-opacity:1;fill-rule: evenodd"/>
<path id="Shape2DView_nwe0124"  d="M 15.117762559591 5.562500000000003 L 15.868026914094 5.562500000000003 " stroke="#191919" stroke-width="0.35 px" style="stroke-width:0.35;stroke-miterlimit:4;stroke-dasharray:none;fill:none;fill-opacity:1;fill-rule: evenodd"/>
<path id="Shape2DView_nwe0125"  d="M 16.591446770117035 5.56250000000001 Q 16.56353099988457 5.630179755208009 16.5356152296521 5.6978595104160075 Q 16.49189095411003 5.743522667547316 16.448166678567958 5.789185824678628 Q 16.034774773910684 5.991451570898821 15.868026914093004 5.5625000000001945 " stroke="#191919" stroke-width="0.35 px" style="stroke-width:0.35;stroke-miterlimit:4;stroke-dasharray:none;fill:none;fill-opacity:1;fill-rule: evenodd"/>
<path id="Shape2DView_nwe0126"  d="M 16.591446770117035 -5.562500000000004 Q 16.56353099988457 -5.630179755208005 16.5356152296521 -5.697859510416003 Q 16.491890954110026 -5.743522667547312 16.44816667856796 -5.789185824678623 Q 16.03477477391069 -5.991451570898818 15.868026914093008 -5.562500000000189 " stroke="#191919" stroke-width="0.35 px" style="stroke-width:0.35;stroke-miterlimit:4;stroke-dasharray:none;fill:none;fill-opacity:1;fill-rule: evenodd"/>
<path id="Shape2DView_nwe0127"  d="M 16.591446770117 -5.562499999999997 L 17.684999999997 -5.562499999999997 " stroke="#191919" stroke-width="0.35 px" style="stroke-width:0.35;stroke-miterlimit:4;stroke-dasharray:none;fill:none;fill-opacity:1;fill-rule: evenodd"/>
<path id="Shape2DView_nwe0128"  d="M 16.591446770117 5.562500000000003 L 17.684999999997 5.562500000000003 " stroke="#191919" stroke-width="0.35 px" style="stroke-width:0.35;stroke-miterlimit:4;stroke-dasharray:none;fill:none;fill-opacity:1;fill-rule: evenodd"/>
<path id="Shape2DView_nwe0129"  d="M 17.68499999999633 -5.562499999999626 L 17.947499999995365 -5.99999999999955 " stroke="#191919" stroke-width="0.35 px" style="stroke-width:0.35;stroke-miterlimit:4;stroke-dasharray:none;fill:none;fill-opacity:1;fill-rule: evenodd"/>
<path id="Shape2DView_nwe0130"  d="M 17.68499999999633 5.562499999999631 L 17.947499999995365 5.999999999999555 " stroke="#191919" stroke-width="0.35 px" style="stroke-width:0.35;stroke-miterlimit:4;stroke-dasharray:none;fill:none;fill-opacity:1;fill-rule: evenodd"/>
<path id="Shape2DView_nwe0131"  d="M 17.947499999997 -5.999999999999997 L 18.6475 -5.999999999999997 " stroke="#191919" stroke-width="0.35 px" style="stroke-width:0.35;stroke-miterlimit:4;stroke-dasharray:none;fill:none;fill-opacity:1;fill-rule: evenodd"/>
<path id="Shape2DView_nwe0132"  d="M 17.947499999997 6.000000000000003 L 18.6475 6.000000000000003 " stroke="#191919" stroke-width="0.35 px" style="stroke-width:0.35;stroke-miterlimit:4;stroke-dasharray:none;fill:none;fill-opacity:1;fill-rule: evenodd"/>
<path id="Shape2DView_nwe0133"  d="M 18.910000000049166 -0.5250000000017669 L 18.647500000049064 -6.000000000002937 " stroke="#191919" stroke-width="0.35 px" style="stroke-width:0.35;stroke-miterlimit:4;stroke-dasharray:none;fill:none;fill-opacity:1;fill-rule: evenodd"/>
<path id="Shape2DView_nwe0134"  d="M 18.910000000049166 0.5250000000017723 L 18.647500000049064 6.0000000000029425 " stroke="#191919" stroke-width="0.35 px" style="stroke-width:0.35;stroke-miterlimit:4;stroke-dasharray:none;fill:none;fill-opacity:1;fill-rule: evenodd"/>
<path id="Shape2DView_nwe0135"  d="M 18.91 -0.3499999999999982 L 19.62 -0.3499999999999982 " stroke="#191919" stroke-width="0.35 px" style="stroke-width:0.35;stroke-miterlimit:4;stroke-dasharray:none;fill:none;fill-opacity:1;fill-rule: evenodd"/>
<path id="Shape2DView_nwe0136"  d="M 18.91 0.35000000000000175 L 19.62 0.35000000000000175 " stroke="#191919" stroke-width="0.35 px" style="stroke-width:0.35;stroke-miterlimit:4;stroke-dasharray:none;fill:none;fill-opacity:1;fill-rule: evenodd"/>
<path id="Shape2DView_nwe0137"  d="M 19.62 0.3500000000000018 Q 20.25190894269482 0.35000000000000175 20.32000000000001 0.35000000000000164 " stroke="#191919" stroke-width="0.35 px" style="stroke-width:0.35;stroke-miterlimit:4;stroke-dasharray:none;fill:none;fill-opacity:1;fill-rule: evenodd"/>
<path id="Shape2DView_nwe0138"  d="M 19.62 -0.34999999999999815 Q 20.257767897513475 -0.3499999999999982 20.31999999999999 -0.34999999999999826 " stroke="#191919" stroke-width="0.35 px" style="stroke-width:0.35;stroke-miterlimit:4;stroke-dasharray:none;fill:none;fill-opacity:1;fill-rule: evenodd"/>
<title>b'Shape2DView'</title>
</g>
<g id="Rectangle" transform="translate(0.557597,6.210149) scale(1,-1)">
<rect fill="#ff0000" id="origin" width="1" height="1" x="0" y="0" />
<title>b'Rectangle'</title>
</g>
</svg>