<?xml version="1.0"?>
<!DOCTYPE svg PUBLIC "-//W3C//DTD SVG 1.1//EN" "http://www.w3.org/Graphics/SVG/1.1/DTD/svg11.dtd">
<svg width="11.392006473288976mm" height="6.510609727940324mm" viewBox="0 0 11.392006473288976 6.510609727940324" xmlns="http://www.w3.org/2000/svg" version="1.1">
<g id="Shape2DView" transform="translate(3.261686,3.255305) scale(1,-1)">
<path id="Shape2DView_nwe0000"  d="M 3.1244999599935985 -0.3999999999999941 A 3.15 3.15 0 1 0 3.1245 0.4" stroke="#191919" stroke-width="0.35 px" style="stroke-width:0.35;stroke-miterlimit:4;stroke-dasharray:none;fill:none;fill-opacity:1;fill-rule: evenodd"/>
<circle cx="0.0" cy="7.156069109601e-15" r="0.4" stroke="#191919" stroke-width="0.35 px" style="stroke-width:0.35;stroke-miterlimit:4;stroke-dasharray:none;fill:none"/>
<path id="Shape2DView_nwe0002"  d="M -1.3653454727398982e-14 0.4000000000000044 A 0.4 0.4 0 0 1 1.27163e-14 -0.4" stroke="#191919" stroke-width="0.35 px" style="stroke-width:0.35;stroke-miterlimit:4;stroke-dasharray:none;fill:none;fill-opacity:1;fill-rule: evenodd"/>
<path id="Shape2DView_nwe0003"  d="M 7.619878117516914 -0.3999999814308206 A 0.4 0.4 0 0 1 7.62 -0.4" stroke="#191919" stroke-width="0.35 px" style="stroke-width:0.35;stroke-miterlimit:4;stroke-dasharray:none;fill:none;fill-opacity:1;fill-rule: evenodd"/>
<path id="Shape2DView_nwe0004"  d="M 7.620000002468361 -0.39999999999999564 A 0.4 0.4 0 1 1 7.22 4.52124e-15" stroke="#191919" stroke-width="0.35 px" style="stroke-width:0.35;stroke-miterlimit:4;stroke-dasharray:none;fill:none;fill-opacity:1;fill-rule: evenodd"/>
<path id="Shape2DView_nwe0006"  d="M 0.799993121277 -0.39999999999999547 A 0.4 3.4393613863017165e-06 -90.0 0 1 0.799993121277 0.4000000000000046 " stroke="#191919" stroke-width="0.35 px" style="stroke-width:0.35;stroke-miterlimit:4;stroke-dasharray:none;fill:none;fill-opacity:1;fill-rule: evenodd"/>
<path id="Shape2DView_nwe0007"  d="M 6.82 0.4000000000000046 L 6.82 0.38997116487273403 L 6.82 0.36038754716097227 L 6.82 0.3127325929872166 L 6.82 0.2493959207434981 L 6.82 0.17355349564702793 L 6.82 0.08900837358253044 L 6.82 4.689718114898894e-15 L 6.82 -0.08900837358252109 L 6.82 -0.17355349564701858 L 6.82 -0.24939592074348874 L 6.82 -0.3127325929872073 L 6.82 -0.36038754716096305 L 6.82 -0.38997116487272493 L 6.82 -0.39999999999999547 " stroke="#191919" stroke-width="0.35 px" style="stroke-width:0.35;stroke-miterlimit:4;stroke-dasharray:none;fill:none;fill-opacity:1;fill-rule: evenodd"/>
<path id="Shape2DView_nwe0008"  d="M 0.7999931212767721 -0.39999999999999547 Q 0.07112293371848283 -0.39999999999999536 1.27675647831893e-14 -0.39999999999999564 " stroke="#191919" stroke-width="0.35 px" style="stroke-width:0.35;stroke-miterlimit:4;stroke-dasharray:none;fill:none;fill-opacity:1;fill-rule: evenodd"/>
<path id="Shape2DView_nwe0009"  d="M 0.799993121276772 0.4000000000000046 Q 0.0711206133759959 0.4000000000000047 -1.3655743202889425e-14 0.4000000000000044 " stroke="#191919" stroke-width="0.35 px" style="stroke-width:0.35;stroke-miterlimit:4;stroke-dasharray:none;fill:none;fill-opacity:1;fill-rule: evenodd"/>
<path id="Shape2DView_nwe0010"  d="M 0.799993121275831 -0.39999999999999547 L 6.82 -0.39999999999999547 " stroke="#191919" stroke-width="0.35 px" style="stroke-width:0.35;stroke-miterlimit:4;stroke-dasharray:none;fill:none;fill-opacity:1;fill-rule: evenodd"/>
<path id="Shape2DView_nwe0011"  d="M 0.799993121275831 0.4000000000000046 L 6.82 0.4000000000000046 " stroke="#191919" stroke-width="0.35 px" style="stroke-width:0.35;stroke-miterlimit:4;stroke-dasharray:none;fill:none;fill-opacity:1;fill-rule: evenodd"/>
<path id="Shape2DView_nwe0012"  d="M 6.82 0.4000000000000046 Q 7.5488059450446965 0.4000000000000087 7.620000061182761 0.39999999999999974 " stroke="#191919" stroke-width="0.35 px" style="stroke-width:0.35;stroke-miterlimit:4;stroke-dasharray:none;fill:none;fill-opacity:1;fill-rule: evenodd"/>
<path id="Shape2DView_nwe0013"  d="M 6.82 -0.39999999999999547 Q 7.46253627770658 -0.3999999999999954 7.61015164091472 -0.3999999999999956 Q 7.615075820447139 -0.39999999999999564 7.619999999979558 -0.3999999999999956 " stroke="#191919" stroke-width="0.35 px" style="stroke-width:0.35;stroke-miterlimit:4;stroke-dasharray:none;fill:none;fill-opacity:1;fill-rule: evenodd"/>
<path id="Shape2DView_nwe0014"  d="M 7.619999999979558 -0.39999999999999564 L 7.620000002468361 -0.39999999999999564 " stroke="#191919" stroke-width="0.35 px" style="stroke-width:0.35;stroke-miterlimit:4;stroke-dasharray:none;fill:none;fill-opacity:1;fill-rule: evenodd"/>
<title>b'Shape2DView'</title>
</g>
<g id="Rectangle" transform="translate(3.261686,3.255305) scale(1,-1)">
<rect fill="#ff0000" id="origin" width="1" height="1" x="0" y="0" />
<title>b'Rectangle'</title>
</g>
</svg>