<?xml version="1.0"?>
<!DOCTYPE svg PUBLIC "-//W3C//DTD SVG 1.1//EN" "http://www.w3.org/Graphics/SVG/1.1/DTD/svg11.dtd">
<svg width="21.538031693919024mm" height="6.722314346949392mm" viewBox="0 0 21.538031693919024 6.722314346949392" xmlns="http://www.w3.org/2000/svg" version="1.1">
<g id="Shape2DView" transform="translate(0.608241,3.361157) scale(1,-1)">
<path id="Shape2DView_nwe0000"  d="M 2.4 4.263256414560865e-15 L 2.4 -0.35268809972541576 L 2.4 -0.7009409419623865 L 2.4 -1.0403790451587727 L 2.4 -1.3667337782203048 L 2.4 -1.6759010410233068 L 2.4 -1.9639928758550076 L 2.4 -2.2273863607376225 L 2.4 -2.462769169774292 L 2.4 -2.667181227569093 L 2.4 -2.8380519338926185 L 2.4 -2.9732324904713563 L 2.4 -3.071022923372743 L 2.4 -3.1301934611637123 L 2.4 -3.1499999999999986 " stroke="#191919" stroke-width="0.35 px" style="stroke-width:0.35;stroke-miterlimit:4;stroke-dasharray:none;fill:none;fill-opacity:1;fill-rule: evenodd"/>
<path id="Shape2DView_nwe0001"  d="M 2.4 3.1500000000000012 L 2.4 3.1301934611637154 L 2.4 3.0710229233727455 L 2.4 2.9732324904713594 L 2.4 2.838051933892622 L 2.4 2.6671812275690967 L 2.4 2.4627691697742957 L 2.4 2.227386360737626 L 2.4 1.9639928758550127 L 2.4 1.6759010410233124 L 2.4 1.3667337782203102 L 2.4 1.0403790451587787 L 2.4 0.7009409419623926 L 2.4 0.3526880997254219 L 2.4 5.034783898023698e-15 " stroke="#191919" stroke-width="0.35 px" style="stroke-width:0.35;stroke-miterlimit:4;stroke-dasharray:none;fill:none;fill-opacity:1;fill-rule: evenodd"/>
<path id="Shape2DView_nwe0002"  d="M 2.16 2.5646151868846e-15 L 2.16 -0.06717868566198223 L 2.16 -0.13351256037378625 L 2.16 -0.19816743717309795 L 2.16 -0.2603302434705327 L 2.16 -0.31921924590919987 L 2.16 -0.37409388111523817 L 2.16 -0.4242640687119266 L 2.16 -0.469098889480816 L 2.16 -0.5080345195369689 L 2.16 -0.5405813207414499 L 2.16 -0.5663299981850191 L 2.16 -0.5849567473090926 L 2.16 -0.5962273259359441 L 2.16 -0.5999999999999985 " stroke="#191919" stroke-width="0.35 px" style="stroke-width:0.35;stroke-miterlimit:4;stroke-dasharray:none;fill:none;fill-opacity:1;fill-rule: evenodd"/>
<path id="Shape2DView_nwe0003"  d="M 2.16 0.6000000000000014 L 2.16 0.596227325935947 L 2.16 0.5849567473090956 L 2.16 0.5663299981850219 L 2.16 0.5405813207414529 L 2.16 0.508034519536972 L 2.16 0.4690988894808194 L 2.16 0.42426406871193006 L 2.16 0.37409388111524167 L 2.16 0.31921924590920353 L 2.16 0.26033024347053646 L 2.16 0.19816743717310184 L 2.16 0.13351256037379025 L 2.16 0.06717868566198634 L 2.16 2.7115728027822823e-15 " stroke="#191919" stroke-width="0.35 px" style="stroke-width:0.35;stroke-miterlimit:4;stroke-dasharray:none;fill:none;fill-opacity:1;fill-rule: evenodd"/>
<path id="Shape2DView_nwe0004"  d="M 3.04 4.263256414560865e-15 L 3.04 -0.35268809972541576 L 3.04 -0.7009409419623865 L 3.04 -1.0403790451587727 L 3.04 -1.3667337782203048 L 3.04 -1.6759010410233068 L 3.04 -1.9639928758550076 L 3.04 -2.2273863607376225 L 3.04 -2.462769169774292 L 3.04 -2.667181227569093 L 3.04 -2.8380519338926185 L 3.04 -2.9732324904713563 L 3.04 -3.071022923372743 L 3.04 -3.1301934611637123 L 3.04 -3.1499999999999986 " stroke="#191919" stroke-width="0.35 px" style="stroke-width:0.35;stroke-miterlimit:4;stroke-dasharray:none;fill:none;fill-opacity:1;fill-rule: evenodd"/>
<path id="Shape2DView_nwe0005"  d="M 3.04 3.1500000000000012 L 3.04 3.1301934611637154 L 3.04 3.0710229233727455 L 3.04 2.9732324904713594 L 3.04 2.838051933892622 L 3.04 2.6671812275690967 L 3.04 2.4627691697742957 L 3.04 2.227386360737626 L 3.04 1.9639928758550127 L 3.04 1.6759010410233124 L 3.04 1.3667337782203102 L 3.04 1.0403790451587787 L 3.04 0.7009409419623926 L 3.04 0.3526880997254219 L 3.04 5.034783898023698e-15 " stroke="#191919" stroke-width="0.35 px" style="stroke-width:0.35;stroke-miterlimit:4;stroke-dasharray:none;fill:none;fill-opacity:1;fill-rule: evenodd"/>
<path id="Shape2DView_nwe0006"  d="M 3.238 3.996802888650775e-15 L 3.238 -0.3079023092840928 L 3.238 -0.6119325683798611 L 3.238 -0.908267420376706 L 3.238 -1.1931802825732816 L 3.238 -1.4630882104171723 L 3.238 -1.7145969551115146 L 3.238 -1.9445436482630034 L 3.238 -2.15003657678708 L 3.238 -2.3284915478777797 L 3.238 -2.477664386731651 L 3.238 -2.5956791583480094 L 3.238 -2.6810517585000135 L 3.238 -2.7327085772064152 L 3.238 -2.7499999999999987 " stroke="#191919" stroke-width="0.35 px" style="stroke-width:0.35;stroke-miterlimit:4;stroke-dasharray:none;fill:none;fill-opacity:1;fill-rule: evenodd"/>
<path id="Shape2DView_nwe0007"  d="M 3.238 2.7500000000000013 L 3.238 2.732708577206419 L 3.238 2.681051758500016 L 3.238 2.5956791583480125 L 3.238 2.477664386731654 L 3.238 2.3284915478777832 L 3.238 2.150036576787084 L 3.238 1.9445436482630076 L 3.238 1.7145969551115194 L 3.238 1.4630882104171778 L 3.238 1.193180282573287 L 3.238 0.9082674203767117 L 3.238 0.6119325683798668 L 3.238 0.30790230928409884 L 3.238 4.670358628181819e-15 " stroke="#191919" stroke-width="0.35 px" style="stroke-width:0.35;stroke-miterlimit:4;stroke-dasharray:none;fill:none;fill-opacity:1;fill-rule: evenodd"/>
<path id="Shape2DView_nwe0008"  d="M 4.599820095893 4.884981308351e-15 C 4.599820095892997 1.4694636486005728 4.5998200958930004 2.787892686110371 4.599820095893 2.7499999995900626 " stroke="#191919" stroke-width="0.35 px" style="stroke-width:0.35;stroke-miterlimit:4;stroke-dasharray:none;fill:none;fill-opacity:1;fill-rule: evenodd"/>
<path id="Shape2DView_nwe0009"  d="M 4.599820095893 -2.7499999999998748 C 4.599820095892998 -2.7878927485666685 4.599820095893 -1.4694659331800526 4.599820095893 4.884981308350689e-15 " stroke="#191919" stroke-width="0.35 px" style="stroke-width:0.35;stroke-miterlimit:4;stroke-dasharray:none;fill:none;fill-opacity:1;fill-rule: evenodd"/>
<path id="Shape2DView_nwe0010"  d="M -1.3653454727398982e-14 0.400000000000001 A 0.4 0.4 0 0 1 1.27163e-14 -0.4" stroke="#191919" stroke-width="0.35 px" style="stroke-width:0.35;stroke-miterlimit:4;stroke-dasharray:none;fill:none;fill-opacity:1;fill-rule: evenodd"/>
<path id="Shape2DView_nwe0011"  d="M 5.261232535686 4.884981308351e-15 C 5.261232535685998 1.4694636486003043 5.261232535686 2.787892686110493 5.261232535686 2.7499999995900626 " stroke="#191919" stroke-width="0.35 px" style="stroke-width:0.35;stroke-miterlimit:4;stroke-dasharray:none;fill:none;fill-opacity:1;fill-rule: evenodd"/>
<path id="Shape2DView_nwe0012"  d="M 5.261232535686 -2.7499999999998748 C 5.261232535685999 -2.7878927485666685 5.261232535686002 -1.4694659331800526 5.261232535686 4.884981308350689e-15 " stroke="#191919" stroke-width="0.35 px" style="stroke-width:0.35;stroke-miterlimit:4;stroke-dasharray:none;fill:none;fill-opacity:1;fill-rule: evenodd"/>
<path id="Shape2DView_nwe0013"  d="M 5.947188516946 4.884981308351e-15 C 5.947188516945998 1.4694636486000345 5.947188516946001 2.787892686110616 5.947188516946 2.7499999995900626 " stroke="#191919" stroke-width="0.35 px" style="stroke-width:0.35;stroke-miterlimit:4;stroke-dasharray:none;fill:none;fill-opacity:1;fill-rule: evenodd"/>
<path id="Shape2DView_nwe0014"  d="M 5.947188516946 -2.7499999999998748 C 5.947188516945999 -2.7878927485666685 5.947188516946 -1.4694659331800526 5.947188516946 4.884981308350689e-15 " stroke="#191919" stroke-width="0.35 px" style="stroke-width:0.35;stroke-miterlimit:4;stroke-dasharray:none;fill:none;fill-opacity:1;fill-rule: evenodd"/>
<path id="Shape2DView_nwe0015"  d="M 6.608600956738 4.884981308351e-15 C 6.608600956737997 1.4694636485978712 6.608600956738 2.787892686116915 6.608600956738 2.7499999995900626 " stroke="#191919" stroke-width="0.35 px" style="stroke-width:0.35;stroke-miterlimit:4;stroke-dasharray:none;fill:none;fill-opacity:1;fill-rule: evenodd"/>
<path id="Shape2DView_nwe0016"  d="M 6.608600956737997 -2.7499999999998748 C 6.608600956738004 -2.7878927485666685 6.608600956737996 -1.4694659331800526 6.608600956738 4.884981308350689e-15 " stroke="#191919" stroke-width="0.35 px" style="stroke-width:0.35;stroke-miterlimit:4;stroke-dasharray:none;fill:none;fill-opacity:1;fill-rule: evenodd"/>
<path id="Shape2DView_nwe0017"  d="M 7.294556937998 4.884981308351e-15 C 7.294556937997997 1.4694636485976003 7.294556937997999 2.7878926861170377 7.294556937998002 2.7499999995900626 " stroke="#191919" stroke-width="0.35 px" style="stroke-width:0.35;stroke-miterlimit:4;stroke-dasharray:none;fill:none;fill-opacity:1;fill-rule: evenodd"/>
<path id="Shape2DView_nwe0018"  d="M 7.294556937998 -2.7499999999998748 C 7.294556937997999 -2.7878927485666685 7.294556937998 -1.4694659331800526 7.294556937998 4.884981308350689e-15 " stroke="#191919" stroke-width="0.35 px" style="stroke-width:0.35;stroke-miterlimit:4;stroke-dasharray:none;fill:none;fill-opacity:1;fill-rule: evenodd"/>
<path id="Shape2DView_nwe0019"  d="M 7.955969377791 4.884981308351e-15 C 7.955969377790997 1.4694636486008101 7.955969377791 2.787892686110254 7.955969377791 2.749999999590062 " stroke="#191919" stroke-width="0.35 px" style="stroke-width:0.35;stroke-miterlimit:4;stroke-dasharray:none;fill:none;fill-opacity:1;fill-rule: evenodd"/>
<path id="Shape2DView_nwe0020"  d="M 7.955969377791 -2.7499999999998748 C 7.955969377791001 -2.7878927485666685 7.955969377790996 -1.4694659331800526 7.955969377791 4.884981308350689e-15 " stroke="#191919" stroke-width="0.35 px" style="stroke-width:0.35;stroke-miterlimit:4;stroke-dasharray:none;fill:none;fill-opacity:1;fill-rule: evenodd"/>
<path id="Shape2DView_nwe0021"  d="M 8.641925359051 4.884981308351e-15 C 8.641925359050996 1.4694636486003039 8.641925359051 2.7878926861104936 8.641925359051 2.7499999995900626 " stroke="#191919" stroke-width="0.35 px" style="stroke-width:0.35;stroke-miterlimit:4;stroke-dasharray:none;fill:none;fill-opacity:1;fill-rule: evenodd"/>
<path id="Shape2DView_nwe0022"  d="M 8.641925359051 -2.7499999999998748 C 8.641925359050994 -2.7878927485666685 8.641925359051003 -1.4694659331800526 8.641925359051 4.884981308350689e-15 " stroke="#191919" stroke-width="0.35 px" style="stroke-width:0.35;stroke-miterlimit:4;stroke-dasharray:none;fill:none;fill-opacity:1;fill-rule: evenodd"/>
<path id="Shape2DView_nwe0023"  d="M 9.303337798844 4.884981308351e-15 C 9.303337798843998 1.4694636485978712 9.303337798843998 2.787892686116915 9.303337798844003 2.7499999995900626 " stroke="#191919" stroke-width="0.35 px" style="stroke-width:0.35;stroke-miterlimit:4;stroke-dasharray:none;fill:none;fill-opacity:1;fill-rule: evenodd"/>
<path id="Shape2DView_nwe0024"  d="M 9.303337798844 -2.7499999999998748 C 9.303337798843996 -2.7878927485666685 9.303337798844 -1.4694659331800526 9.303337798844 4.884981308350689e-15 " stroke="#191919" stroke-width="0.35 px" style="stroke-width:0.35;stroke-miterlimit:4;stroke-dasharray:none;fill:none;fill-opacity:1;fill-rule: evenodd"/>
<path id="Shape2DView_nwe0025"  d="M 9.989293780104 4.884981308351e-15 C 9.989293780103994 1.4694636485996446 9.989293780104001 2.7878926861108186 9.989293780104 2.7499999995900626 " stroke="#191919" stroke-width="0.35 px" style="stroke-width:0.35;stroke-miterlimit:4;stroke-dasharray:none;fill:none;fill-opacity:1;fill-rule: evenodd"/>
<path id="Shape2DView_nwe0026"  d="M 9.989293780104 -2.7499999999998748 C 9.989293780103997 -2.7878927485666685 9.989293780104 -1.4694659331800526 9.989293780104 4.884981308350689e-15 " stroke="#191919" stroke-width="0.35 px" style="stroke-width:0.35;stroke-miterlimit:4;stroke-dasharray:none;fill:none;fill-opacity:1;fill-rule: evenodd"/>
<path id="Shape2DView_nwe0027"  d="M 10.650706219896 4.884981308351e-15 C 10.650706219896 1.4694636486003043 10.650706219895996 2.787892686110493 10.650706219896003 2.7499999995900626 " stroke="#191919" stroke-width="0.35 px" style="stroke-width:0.35;stroke-miterlimit:4;stroke-dasharray:none;fill:none;fill-opacity:1;fill-rule: evenodd"/>
<path id="Shape2DView_nwe0028"  d="M 10.650706219896 -2.7499999999998748 C 10.650706219895994 -2.7878927485666685 10.650706219896001 -1.4694659331800526 10.650706219896 4.884981308350689e-15 " stroke="#191919" stroke-width="0.35 px" style="stroke-width:0.35;stroke-miterlimit:4;stroke-dasharray:none;fill:none;fill-opacity:1;fill-rule: evenodd"/>
<path id="Shape2DView_nwe0029"  d="M 11.336662201156 4.884981308351e-15 C 11.336662201155995 1.4694636485976003 11.336662201156 2.7878926861170377 11.336662201156 2.7499999995900626 " stroke="#191919" stroke-width="0.35 px" style="stroke-width:0.35;stroke-miterlimit:4;stroke-dasharray:none;fill:none;fill-opacity:1;fill-rule: evenodd"/>
<path id="Shape2DView_nwe0030"  d="M 11.336662201156 -2.7499999999998748 C 11.336662201155997 -2.7878927485666685 11.336662201155999 -1.4694659331800526 11.336662201156 4.884981308350689e-15 " stroke="#191919" stroke-width="0.35 px" style="stroke-width:0.35;stroke-miterlimit:4;stroke-dasharray:none;fill:none;fill-opacity:1;fill-rule: evenodd"/>
<path id="Shape2DView_nwe0031"  d="M 11.998074640949 4.884981308351e-15 C 11.998074640948996 1.4694636485978712 11.998074640949001 2.787892686116915 11.998074640949 2.7499999995900626 " stroke="#191919" stroke-width="0.35 px" style="stroke-width:0.35;stroke-miterlimit:4;stroke-dasharray:none;fill:none;fill-opacity:1;fill-rule: evenodd"/>
<path id="Shape2DView_nwe0032"  d="M 11.998074640949 -2.7499999999998748 C 11.998074640948998 -2.7878927485666685 11.998074640949 -1.4694659331800526 11.998074640949 4.884981308350689e-15 " stroke="#191919" stroke-width="0.35 px" style="stroke-width:0.35;stroke-miterlimit:4;stroke-dasharray:none;fill:none;fill-opacity:1;fill-rule: evenodd"/>
<path id="Shape2DView_nwe0033"  d="M 12.684030622209 4.884981308351e-15 C 12.684030622208995 1.46946364860042 12.684030622209002 2.787892686110455 12.684030622209 2.7499999995900626 " stroke="#191919" stroke-width="0.35 px" style="stroke-width:0.35;stroke-miterlimit:4;stroke-dasharray:none;fill:none;fill-opacity:1;fill-rule: evenodd"/>
<path id="Shape2DView_nwe0034"  d="M 12.684030622209 -2.7499999999998748 C 12.684030622208997 -2.7878927485666685 12.684030622209 -1.4694659331800526 12.684030622209 4.884981308350689e-15 " stroke="#191919" stroke-width="0.35 px" style="stroke-width:0.35;stroke-miterlimit:4;stroke-dasharray:none;fill:none;fill-opacity:1;fill-rule: evenodd"/>
<path id="Shape2DView_nwe0035"  d="M 13.345443062002 4.884981308351e-15 C 13.345443062001994 1.4694636485978712 13.345443062001996 2.787892686116915 13.345443062002003 2.7499999995900626 " stroke="#191919" stroke-width="0.35 px" style="stroke-width:0.35;stroke-miterlimit:4;stroke-dasharray:none;fill:none;fill-opacity:1;fill-rule: evenodd"/>
<path id="Shape2DView_nwe0036"  d="M 13.345443062002 -2.7499999999998748 C 13.345443062001998 -2.7878927485666685 13.345443062002001 -1.4694659331800526 13.345443062002 4.884981308350689e-15 " stroke="#191919" stroke-width="0.35 px" style="stroke-width:0.35;stroke-miterlimit:4;stroke-dasharray:none;fill:none;fill-opacity:1;fill-rule: evenodd"/>
<path id="Shape2DView_nwe0037"  d="M 14.031399043262 4.884981308351e-15 C 14.031399043261997 1.4694636486000345 14.031399043261999 2.787892686110616 14.031399043262004 2.7499999995900626 " stroke="#191919" stroke-width="0.35 px" style="stroke-width:0.35;stroke-miterlimit:4;stroke-dasharray:none;fill:none;fill-opacity:1;fill-rule: evenodd"/>
<path id="Shape2DView_nwe0038"  d="M 14.031399043262 -2.7499999999998748 C 14.031399043261997 -2.7878927485666685 14.031399043261999 -1.4694659331800526 14.031399043262 4.884981308350689e-15 " stroke="#191919" stroke-width="0.35 px" style="stroke-width:0.35;stroke-miterlimit:4;stroke-dasharray:none;fill:none;fill-opacity:1;fill-rule: evenodd"/>
<path id="Shape2DView_nwe0039"  d="M 14.692811483054 4.884981308351e-15 C 14.692811483053989 1.4694636485985304 14.692811483054001 2.78789268611659 14.692811483054003 2.7499999995900626 " stroke="#191919" stroke-width="0.35 px" style="stroke-width:0.35;stroke-miterlimit:4;stroke-dasharray:none;fill:none;fill-opacity:1;fill-rule: evenodd"/>
<path id="Shape2DView_nwe0040"  d="M 14.692811483054 -2.7499999999998748 C 14.692811483053994 -2.7878927485666685 14.692811483054003 -1.4694659331800526 14.692811483054 4.884981308350689e-15 " stroke="#191919" stroke-width="0.35 px" style="stroke-width:0.35;stroke-miterlimit:4;stroke-dasharray:none;fill:none;fill-opacity:1;fill-rule: evenodd"/>
<path id="Shape2DView_nwe0041"  d="M 15.378767464314 4.884981308351e-15 C 15.378767464313999 1.46946364860042 15.378767464313999 2.787892686110455 15.378767464313997 2.7499999995900626 " stroke="#191919" stroke-width="0.35 px" style="stroke-width:0.35;stroke-miterlimit:4;stroke-dasharray:none;fill:none;fill-opacity:1;fill-rule: evenodd"/>
<path id="Shape2DView_nwe0042"  d="M 15.378767464314 -2.7499999999998748 C 15.378767464313993 -2.7878927485666685 15.378767464314006 -1.4694659331800526 15.378767464314 4.884981308350689e-15 " stroke="#191919" stroke-width="0.35 px" style="stroke-width:0.35;stroke-miterlimit:4;stroke-dasharray:none;fill:none;fill-opacity:1;fill-rule: evenodd"/>
<path id="Shape2DView_nwe0043"  d="M 16.040179904107 4.884981308351e-15 C 16.04017990410699 1.4694636486003043 16.040179904107 2.787892686110493 16.040179904107 2.7499999995900626 " stroke="#191919" stroke-width="0.35 px" style="stroke-width:0.35;stroke-miterlimit:4;stroke-dasharray:none;fill:none;fill-opacity:1;fill-rule: evenodd"/>
<path id="Shape2DView_nwe0044"  d="M 16.040179904107 -2.7499999999998748 C 16.040179904106992 -2.7878927485666685 16.040179904107003 -1.4694659331800526 16.040179904107 4.884981308350689e-15 " stroke="#191919" stroke-width="0.35 px" style="stroke-width:0.35;stroke-miterlimit:4;stroke-dasharray:none;fill:none;fill-opacity:1;fill-rule: evenodd"/>
<path id="Shape2DView_nwe0045"  d="M 16.96 3.996802888650775e-15 L 16.96 -0.3079023092840928 L 16.96 -0.6119325683798611 L 16.96 -0.908267420376706 L 16.96 -1.1931802825732816 L 16.96 -1.4630882104171723 L 16.96 -1.7145969551115146 L 16.96 -1.9445436482630034 L 16.96 -2.15003657678708 L 16.96 -2.3284915478777797 L 16.96 -2.477664386731651 L 16.96 -2.5956791583480094 L 16.96 -2.6810517585000135 L 16.96 -2.7327085772064152 L 16.96 -2.7499999999999987 " stroke="#191919" stroke-width="0.35 px" style="stroke-width:0.35;stroke-miterlimit:4;stroke-dasharray:none;fill:none;fill-opacity:1;fill-rule: evenodd"/>
<path id="Shape2DView_nwe0046"  d="M 16.96 2.7500000000000013 L 16.96 2.732708577206419 L 16.96 2.681051758500016 L 16.96 2.5956791583480125 L 16.96 2.477664386731654 L 16.96 2.3284915478777832 L 16.96 2.150036576787084 L 16.96 1.9445436482630076 L 16.96 1.7145969551115194 L 16.96 1.4630882104171778 L 16.96 1.193180282573287 L 16.96 0.9082674203767117 L 16.96 0.6119325683798668 L 16.96 0.30790230928409884 L 16.96 4.670358628181819e-15 " stroke="#191919" stroke-width="0.35 px" style="stroke-width:0.35;stroke-miterlimit:4;stroke-dasharray:none;fill:none;fill-opacity:1;fill-rule: evenodd"/>
<path id="Shape2DView_nwe0047"  d="M 17.28 4.263256414560865e-15 L 17.28 -0.35268809972541576 L 17.28 -0.7009409419623865 L 17.28 -1.0403790451587727 L 17.28 -1.3667337782203048 L 17.28 -1.6759010410233068 L 17.28 -1.9639928758550076 L 17.28 -2.2273863607376225 L 17.28 -2.462769169774292 L 17.28 -2.667181227569093 L 17.28 -2.8380519338926185 L 17.28 -2.9732324904713563 L 17.28 -3.071022923372743 L 17.28 -3.1301934611637123 L 17.28 -3.1499999999999986 " stroke="#191919" stroke-width="0.35 px" style="stroke-width:0.35;stroke-miterlimit:4;stroke-dasharray:none;fill:none;fill-opacity:1;fill-rule: evenodd"/>
<path id="Shape2DView_nwe0048"  d="M 17.28 3.1500000000000012 L 17.28 3.1301934611637154 L 17.28 3.0710229233727455 L 17.28 2.9732324904713594 L 17.28 2.838051933892622 L 17.28 2.6671812275690967 L 17.28 2.4627691697742957 L 17.28 2.227386360737626 L 17.28 1.9639928758550127 L 17.28 1.6759010410233124 L 17.28 1.3667337782203102 L 17.28 1.0403790451587787 L 17.28 0.7009409419623926 L 17.28 0.3526880997254219 L 17.28 5.034783898023698e-15 " stroke="#191919" stroke-width="0.35 px" style="stroke-width:0.35;stroke-miterlimit:4;stroke-dasharray:none;fill:none;fill-opacity:1;fill-rule: evenodd"/>
<path id="Shape2DView_nwe0049"  d="M 17.92 4.263256414560865e-15 L 17.92 -0.35268809972541576 L 17.92 -0.7009409419623865 L 17.92 -1.0403790451587727 L 17.92 -1.3667337782203048 L 17.92 -1.6759010410233068 L 17.92 -1.9639928758550076 L 17.92 -2.2273863607376225 L 17.92 -2.462769169774292 L 17.92 -2.667181227569093 L 17.92 -2.8380519338926185 L 17.92 -2.9732324904713563 L 17.92 -3.071022923372743 L 17.92 -3.1301934611637123 L 17.92 -3.1499999999999986 " stroke="#191919" stroke-width="0.35 px" style="stroke-width:0.35;stroke-miterlimit:4;stroke-dasharray:none;fill:none;fill-opacity:1;fill-rule: evenodd"/>
<path id="Shape2DView_nwe0050"  d="M 17.92 3.1500000000000012 L 17.92 3.1301934611637154 L 17.92 3.0710229233727455 L 17.92 2.9732324904713594 L 17.92 2.838051933892622 L 17.92 2.6671812275690967 L 17.92 2.4627691697742957 L 17.92 2.227386360737626 L 17.92 1.9639928758550127 L 17.92 1.6759010410233124 L 17.92 1.3667337782203102 L 17.92 1.0403790451587787 L 17.92 0.7009409419623926 L 17.92 0.3526880997254219 L 17.92 5.034783898023698e-15 " stroke="#191919" stroke-width="0.35 px" style="stroke-width:0.35;stroke-miterlimit:4;stroke-dasharray:none;fill:none;fill-opacity:1;fill-rule: evenodd"/>
<path id="Shape2DView_nwe0051"  d="M 18.16 2.5646151868846e-15 L 18.16 -0.06717868566198223 L 18.16 -0.13351256037378625 L 18.16 -0.19816743717309795 L 18.16 -0.2603302434705327 L 18.16 -0.31921924590919987 L 18.16 -0.37409388111523817 L 18.16 -0.4242640687119266 L 18.16 -0.469098889480816 L 18.16 -0.5080345195369689 L 18.16 -0.5405813207414499 L 18.16 -0.5663299981850191 L 18.16 -0.5849567473090926 L 18.16 -0.5962273259359441 L 18.16 -0.5999999999999985 " stroke="#191919" stroke-width="0.35 px" style="stroke-width:0.35;stroke-miterlimit:4;stroke-dasharray:none;fill:none;fill-opacity:1;fill-rule: evenodd"/>
<path id="Shape2DView_nwe0052"  d="M 18.16 0.6000000000000014 L 18.16 0.596227325935947 L 18.16 0.5849567473090956 L 18.16 0.5663299981850219 L 18.16 0.5405813207414529 L 18.16 0.508034519536972 L 18.16 0.4690988894808194 L 18.16 0.42426406871193006 L 18.16 0.37409388111524167 L 18.16 0.31921924590920353 L 18.16 0.26033024347053646 L 18.16 0.19816743717310184 L 18.16 0.13351256037379025 L 18.16 0.06717868566198634 L 18.16 2.7115728027822823e-15 " stroke="#191919" stroke-width="0.35 px" style="stroke-width:0.35;stroke-miterlimit:4;stroke-dasharray:none;fill:none;fill-opacity:1;fill-rule: evenodd"/>
<path id="Shape2DView_nwe0053"  d="M 20.319878116555934 -0.39999998143053117 A 0.4 0.4 0 0 1 20.32 -0.4" stroke="#191919" stroke-width="0.35 px" style="stroke-width:0.35;stroke-miterlimit:4;stroke-dasharray:none;fill:none;fill-opacity:1;fill-rule: evenodd"/>
<path id="Shape2DView_nwe0054"  d="M 20.32000000243438 -0.399999999999999 A 0.4 0.4 0 1 1 19.92 1.13506e-15" stroke="#191919" stroke-width="0.35 px" style="stroke-width:0.35;stroke-miterlimit:4;stroke-dasharray:none;fill:none;fill-opacity:1;fill-rule: evenodd"/>
<path id="Shape2DView_nwe0055"  d="M 0.7999932772809998 -0.39999999999999886 A 0.4 3.361359746666963e-06 -90.0 0 1 0.7999932772809998 0.4000000000000012 " stroke="#191919" stroke-width="0.35 px" style="stroke-width:0.35;stroke-miterlimit:4;stroke-dasharray:none;fill:none;fill-opacity:1;fill-rule: evenodd"/>
<path id="Shape2DView_nwe0056"  d="M 19.52 0.4000000000000012 L 19.52 0.38997116487273065 L 19.52 0.3603875471609689 L 19.52 0.31273259298721323 L 19.52 0.2493959207434947 L 19.52 0.17355349564702455 L 19.52 0.08900837358252706 L 19.52 1.3035378897918942e-15 L 19.52 -0.08900837358252447 L 19.52 -0.17355349564702197 L 19.52 -0.24939592074349212 L 19.52 -0.3127325929872107 L 19.52 -0.36038754716096644 L 19.52 -0.3899711648727283 L 19.52 -0.39999999999999886 " stroke="#191919" stroke-width="0.35 px" style="stroke-width:0.35;stroke-miterlimit:4;stroke-dasharray:none;fill:none;fill-opacity:1;fill-rule: evenodd"/>
<path id="Shape2DView_nwe0057"  d="M 2.3999999999991246 4.263256414555793e-15 L 2.3821887520635983 4.141967310300789e-15 L 2.3644803112603654 4.0206715264279736e-15 L 2.3468746832347733 3.899369101604986e-15 L 2.3293718735992 3.778060074501573e-15 L 2.311971887933339 3.656744483789599e-15 L 2.2946747317841414 3.535422368143011e-15 L 2.277480410665646 3.4140937662378414e-15 L 2.260388930059264 3.2927587167521868e-15 L 2.243400295413551 3.171417258366207e-15 L 2.226514512144263 3.050069429762091e-15 L 2.2097315856343585 2.9287152696240723e-15 L 2.1930515212341106 2.8073548166383916e-15 L 2.1764743242608233 2.6859881094933088e-15 L 2.1599999999991724 2.5646151868792547e-15 " stroke="#191919" stroke-width="0.35 px" style="stroke-width:0.35;stroke-miterlimit:4;stroke-dasharray:none;fill:none;fill-opacity:1;fill-rule: evenodd"/>
<path id="Shape2DView_nwe0058"  d="M 2.4 4.263256414561e-15 L 3.04 4.263256414561e-15 " stroke="#191919" stroke-width="0.35 px" style="stroke-width:0.35;stroke-miterlimit:4;stroke-dasharray:none;fill:none;fill-opacity:1;fill-rule: evenodd"/>
<path id="Shape2DView_nwe0059"  d="M 3.040000000000304 4.263256414561076e-15 L 3.048148518216377 4.2425498790430876e-15 L 3.0572649752370102 4.222023184839319e-15 L 3.0673404564192777 4.201696404237596e-15 L 3.0783651093263336 4.181589414037701e-15 L 3.090328153361742 4.161721876114587e-15 L 3.1032178903114227 4.1421132181917675e-15 L 3.117021715782895 4.122782614843669e-15 L 3.131726131530642 4.10374896874553e-15 L 3.1473167586555446 4.085030892189187e-15 L 3.1637783516654663 4.066646688882799e-15 L 3.1810948133832517 4.048614336052343e-15 L 3.1992492106875563 4.0309514668623526e-15 L 3.218223791071113 4.013675353173106e-15 L 3.2380000000002434 3.996802888651117e-15 " stroke="#191919" stroke-width="0.35 px" style="stroke-width:0.35;stroke-miterlimit:4;stroke-dasharray:none;fill:none;fill-opacity:1;fill-rule: evenodd"/>
<path id="Shape2DView_nwe0060"  d="M 3.238 3.996802888651e-15 L 4.599820095893 3.996802888651e-15 " stroke="#191919" stroke-width="0.35 px" style="stroke-width:0.35;stroke-miterlimit:4;stroke-dasharray:none;fill:none;fill-opacity:1;fill-rule: evenodd"/>
<path id="Shape2DView_nwe0061"  d="M 5.261232535685194 3.996802888650503e-15 L 5.24229791470738 4.039114986601624e-15 L 5.2112917706510675 4.0781381016805e-15 L 5.1694146342408285 4.11236129307051e-15 L 5.1182879514980195 4.140459468793687e-15 L 5.059891302771838 4.161344692110819e-15 L 4.996485755123078 4.17420830547854e-15 L 4.930526315789095 4.178552241060718e-15 L 4.864566876455108 4.1742083054785656e-15 L 4.801161328806336 4.161344692110867e-15 L 4.742764680080137 4.140459468793757e-15 L 4.691637997337305 4.1123612930706e-15 L 4.649760860927038 4.078138101680606e-15 L 4.618754716870692 4.039114986601741e-15 L 4.5998200958928415 3.996802888650627e-15 " stroke="#191919" stroke-width="0.35 px" style="stroke-width:0.35;stroke-miterlimit:4;stroke-dasharray:none;fill:none;fill-opacity:1;fill-rule: evenodd"/>
<path id="Shape2DView_nwe0062"  d="M 5.261232535686 3.996802888651e-15 L 5.947188516946 3.996802888651e-15 " stroke="#191919" stroke-width="0.35 px" style="stroke-width:0.35;stroke-miterlimit:4;stroke-dasharray:none;fill:none;fill-opacity:1;fill-rule: evenodd"/>
<path id="Shape2DView_nwe0063"  d="M 6.608600956738158 3.996802888650627e-15 L 6.589666335760313 4.0391149866017325e-15 L 6.558660191703977 4.078138101680591e-15 L 6.516783055293724 4.1123612930705805e-15 L 6.465656372550907 4.140459468793737e-15 L 6.407259723824725 4.16134469211085e-15 L 6.343854176175972 4.1742083054785545e-15 L 6.277894736842 4.178552241060718e-15 L 6.211935297508028 4.1742083054785545e-15 L 6.148529749859274 4.16134469211085e-15 L 6.090133101133093 4.140459468793737e-15 L 6.039006418390276 4.1123612930705805e-15 L 5.997129281980023 4.078138101680591e-15 L 5.966123137923686 4.0391149866017325e-15 L 5.947188516945841 3.996802888650627e-15 " stroke="#191919" stroke-width="0.35 px" style="stroke-width:0.35;stroke-miterlimit:4;stroke-dasharray:none;fill:none;fill-opacity:1;fill-rule: evenodd"/>
<path id="Shape2DView_nwe0064"  d="M 6.608600956738 3.996802888651e-15 L 7.294556937997999 3.996802888651e-15 " stroke="#191919" stroke-width="0.35 px" style="stroke-width:0.35;stroke-miterlimit:4;stroke-dasharray:none;fill:none;fill-opacity:1;fill-rule: evenodd"/>
<path id="Shape2DView_nwe0065"  d="M 7.955969377791158 3.996802888650627e-15 L 7.937034756813308 4.0391149866017404e-15 L 7.906028612756962 4.078138101680606e-15 L 7.864151476346694 4.1123612930706e-15 L 7.813024793603862 4.140459468793757e-15 L 7.754628144877663 4.161344692110867e-15 L 7.691222597228892 4.174208305478565e-15 L 7.625263157894905 4.178552241060718e-15 L 7.559303718560922 4.17420830547854e-15 L 7.495898170912161 4.161344692110819e-15 L 7.43750152218598 4.140459468793687e-15 L 7.386374839443171 4.11236129307051e-15 L 7.344497703032933 4.078138101680501e-15 L 7.31349155897662 4.039114986601624e-15 L 7.294556937998806 3.996802888650503e-15 " stroke="#191919" stroke-width="0.35 px" style="stroke-width:0.35;stroke-miterlimit:4;stroke-dasharray:none;fill:none;fill-opacity:1;fill-rule: evenodd"/>
<path id="Shape2DView_nwe0066"  d="M 7.955969377791 3.996802888651e-15 L 8.641925359051 3.996802888651e-15 " stroke="#191919" stroke-width="0.35 px" style="stroke-width:0.35;stroke-miterlimit:4;stroke-dasharray:none;fill:none;fill-opacity:1;fill-rule: evenodd"/>
<path id="Shape2DView_nwe0067"  d="M 9.303337798843195 3.996802888650503e-15 L 9.28440317786538 4.039114986601624e-15 L 9.253397033809067 4.078138101680501e-15 L 9.21151989739883 4.11236129307051e-15 L 9.16039321465602 4.140459468793687e-15 L 9.10199656592984 4.161344692110819e-15 L 9.038591018281078 4.17420830547854e-15 L 8.972631578947095 4.178552241060718e-15 L 8.906672139613109 4.174208305478565e-15 L 8.843266591964337 4.161344692110867e-15 L 8.784869943238139 4.140459468793757e-15 L 8.733743260495306 4.1123612930706e-15 L 8.691866124085038 4.078138101680606e-15 L 8.660859980028691 4.0391149866017404e-15 L 8.641925359050843 3.996802888650627e-15 " stroke="#191919" stroke-width="0.35 px" style="stroke-width:0.35;stroke-miterlimit:4;stroke-dasharray:none;fill:none;fill-opacity:1;fill-rule: evenodd"/>
<path id="Shape2DView_nwe0068"  d="M 9.303337798844 3.996802888651e-15 L 9.989293780104 3.996802888651e-15 " stroke="#191919" stroke-width="0.35 px" style="stroke-width:0.35;stroke-miterlimit:4;stroke-dasharray:none;fill:none;fill-opacity:1;fill-rule: evenodd"/>
<path id="Shape2DView_nwe0069"  d="M 10.650706219896158 3.996802888650627e-15 L 10.631771598918315 4.0391149866017325e-15 L 10.600765454861978 4.078138101680591e-15 L 10.558888318451723 4.1123612930705805e-15 L 10.507761635708908 4.140459468793737e-15 L 10.449364986982726 4.16134469211085e-15 L 10.385959439333972 4.1742083054785545e-15 L 10.32 4.178552241060718e-15 L 10.254040560666029 4.1742083054785545e-15 L 10.190635013017275 4.16134469211085e-15 L 10.132238364291092 4.140459468793737e-15 L 10.081111681548277 4.1123612930705805e-15 L 10.039234545138022 4.078138101680591e-15 L 10.008228401081686 4.0391149866017325e-15 L 9.989293780103843 3.996802888650627e-15 " stroke="#191919" stroke-width="0.35 px" style="stroke-width:0.35;stroke-miterlimit:4;stroke-dasharray:none;fill:none;fill-opacity:1;fill-rule: evenodd"/>
<path id="Shape2DView_nwe0070"  d="M 10.650706219896 3.996802888651e-15 L 11.336662201156 3.996802888651e-15 " stroke="#191919" stroke-width="0.35 px" style="stroke-width:0.35;stroke-miterlimit:4;stroke-dasharray:none;fill:none;fill-opacity:1;fill-rule: evenodd"/>
<path id="Shape2DView_nwe0071"  d="M 11.998074640949158 3.996802888650627e-15 L 11.97914001997131 4.039114986601741e-15 L 11.948133875914962 4.078138101680606e-15 L 11.906256739504695 4.1123612930706e-15 L 11.855130056761862 4.140459468793757e-15 L 11.796733408035664 4.161344692110867e-15 L 11.733327860386892 4.174208305478565e-15 L 11.667368421052906 4.178552241060718e-15 L 11.601408981718922 4.17420830547854e-15 L 11.538003434070163 4.161344692110819e-15 L 11.47960678534398 4.140459468793687e-15 L 11.428480102601172 4.11236129307051e-15 L 11.386602966190933 4.078138101680501e-15 L 11.35559682213462 4.039114986601624e-15 L 11.336662201156805 3.996802888650503e-15 " stroke="#191919" stroke-width="0.35 px" style="stroke-width:0.35;stroke-miterlimit:4;stroke-dasharray:none;fill:none;fill-opacity:1;fill-rule: evenodd"/>
<path id="Shape2DView_nwe0072"  d="M 11.998074640949 3.996802888651e-15 L 12.684030622209 3.996802888651e-15 " stroke="#191919" stroke-width="0.35 px" style="stroke-width:0.35;stroke-miterlimit:4;stroke-dasharray:none;fill:none;fill-opacity:1;fill-rule: evenodd"/>
<path id="Shape2DView_nwe0073"  d="M 13.345443062001195 3.996802888650503e-15 L 13.32650844102338 4.039114986601624e-15 L 13.295502296967067 4.078138101680501e-15 L 13.25362516055683 4.11236129307051e-15 L 13.20249847781402 4.140459468793687e-15 L 13.14410182908784 4.161344692110819e-15 L 13.080696281439078 4.17420830547854e-15 L 13.014736842105096 4.178552241060718e-15 L 12.948777402771109 4.1742083054785656e-15 L 12.885371855122337 4.161344692110867e-15 L 12.826975206396138 4.140459468793758e-15 L 12.775848523653305 4.1123612930706e-15 L 12.733971387243038 4.078138101680607e-15 L 12.702965243186691 4.039114986601741e-15 L 12.684030622208843 3.996802888650627e-15 " stroke="#191919" stroke-width="0.35 px" style="stroke-width:0.35;stroke-miterlimit:4;stroke-dasharray:none;fill:none;fill-opacity:1;fill-rule: evenodd"/>
<path id="Shape2DView_nwe0074"  d="M 13.345443062002 3.996802888651e-15 L 14.031399043262 3.996802888651e-15 " stroke="#191919" stroke-width="0.35 px" style="stroke-width:0.35;stroke-miterlimit:4;stroke-dasharray:none;fill:none;fill-opacity:1;fill-rule: evenodd"/>
<path id="Shape2DView_nwe0075"  d="M 14.692811483054157 3.996802888650627e-15 L 14.673876862076314 4.0391149866017325e-15 L 14.642870718019978 4.078138101680591e-15 L 14.600993581609723 4.1123612930705805e-15 L 14.549866898866908 4.140459468793737e-15 L 14.491470250140726 4.16134469211085e-15 L 14.428064702491971 4.1742083054785545e-15 L 14.362105263158 4.178552241060718e-15 L 14.296145823824029 4.1742083054785545e-15 L 14.232740276175274 4.16134469211085e-15 L 14.174343627449092 4.140459468793737e-15 L 14.123216944706277 4.112361293070581e-15 L 14.081339808296022 4.078138101680591e-15 L 14.050333664239687 4.0391149866017325e-15 L 14.031399043261843 3.996802888650627e-15 " stroke="#191919" stroke-width="0.35 px" style="stroke-width:0.35;stroke-miterlimit:4;stroke-dasharray:none;fill:none;fill-opacity:1;fill-rule: evenodd"/>
<path id="Shape2DView_nwe0076"  d="M 14.692811483054 3.996802888651e-15 L 15.378767464314 3.996802888651e-15 " stroke="#191919" stroke-width="0.35 px" style="stroke-width:0.35;stroke-miterlimit:4;stroke-dasharray:none;fill:none;fill-opacity:1;fill-rule: evenodd"/>
<path id="Shape2DView_nwe0077"  d="M 16.04017990410716 3.996802888650627e-15 L 16.021245283129307 4.039114986601741e-15 L 15.990239139072962 4.078138101680606e-15 L 15.948362002662694 4.1123612930706e-15 L 15.897235319919861 4.140459468793757e-15 L 15.838838671193663 4.161344692110867e-15 L 15.775433123544891 4.174208305478565e-15 L 15.709473684210906 4.178552241060718e-15 L 15.643514244876922 4.17420830547854e-15 L 15.580108697228162 4.161344692110819e-15 L 15.52171204850198 4.140459468793687e-15 L 15.470585365759172 4.11236129307051e-15 L 15.428708229348933 4.078138101680501e-15 L 15.39770208529262 4.039114986601624e-15 L 15.378767464314805 3.996802888650503e-15 " stroke="#191919" stroke-width="0.35 px" style="stroke-width:0.35;stroke-miterlimit:4;stroke-dasharray:none;fill:none;fill-opacity:1;fill-rule: evenodd"/>
<path id="Shape2DView_nwe0078"  d="M 16.040179904107 3.996802888651e-15 L 16.96 3.996802888651e-15 " stroke="#191919" stroke-width="0.35 px" style="stroke-width:0.35;stroke-miterlimit:4;stroke-dasharray:none;fill:none;fill-opacity:1;fill-rule: evenodd"/>
<path id="Shape2DView_nwe0079"  d="M 16.959999999999784 3.996802888650878e-15 L 16.988054811445625 4.012714872073971e-15 L 17.01539674815236 4.029168282070726e-15 L 17.042002271369014 4.046148953853746e-15 L 17.067848476325082 4.0636422687144615e-15 L 17.092913111949308 4.081633166608423e-15 L 17.11717460002569 4.100106159120533e-15 L 17.140612053770237 4.11904534279907e-15 L 17.163205295812443 4.138434412847011e-15 L 17.18493487556607 4.158256677158881e-15 L 17.205782085974185 4.178495070691032e-15 L 17.225728979614136 4.19913217015299e-15 L 17.24475838414853 4.22015020900721e-15 L 17.26285391710896 4.2415310927643476e-15 L 17.279999999999696 4.263256414560846e-15 " stroke="#191919" stroke-width="0.35 px" style="stroke-width:0.35;stroke-miterlimit:4;stroke-dasharray:none;fill:none;fill-opacity:1;fill-rule: evenodd"/>
<path id="Shape2DView_nwe0080"  d="M 17.28 4.263256414561e-15 L 17.92 4.263256414561e-15 " stroke="#191919" stroke-width="0.35 px" style="stroke-width:0.35;stroke-miterlimit:4;stroke-dasharray:none;fill:none;fill-opacity:1;fill-rule: evenodd"/>
<path id="Shape2DView_nwe0081"  d="M 18.160000000050104 2.5646151868822082e-15 L 18.143525675788396 2.6859881094964547e-15 L 18.126948478815166 2.807354816641544e-15 L 18.11026841441486 2.9287152696272215e-15 L 18.093485487904957 3.05006942976524e-15 L 18.07659970463567 3.1714172583693593e-15 L 18.0596110699899 3.292758716755339e-15 L 18.042519589383517 3.414093766240997e-15 L 18.02532526826502 3.5354223681461695e-15 L 18.008028112115824 3.6567444837927576e-15 L 17.990628126449963 3.7780600745047315e-15 L 17.973125316814333 3.8993691016081445e-15 L 17.95551968878874 4.020671526431135e-15 L 17.937811247985508 4.141967310303954e-15 L 17.92000000004998 4.26325641455897e-15 " stroke="#191919" stroke-width="0.35 px" style="stroke-width:0.35;stroke-miterlimit:4;stroke-dasharray:none;fill:none;fill-opacity:1;fill-rule: evenodd"/>
<path id="Shape2DView_nwe0082"  d="M 2.3999999999991246 -3.1500000000001287 L 2.1599999999991724 -0.6000000000000782 " stroke="#191919" stroke-width="0.35 px" style="stroke-width:0.35;stroke-miterlimit:4;stroke-dasharray:none;fill:none;fill-opacity:1;fill-rule: evenodd"/>
<path id="Shape2DView_nwe0083"  d="M 2.3999999999991246 3.1500000000001314 L 2.1599999999991724 0.6000000000000809 " stroke="#191919" stroke-width="0.35 px" style="stroke-width:0.35;stroke-miterlimit:4;stroke-dasharray:none;fill:none;fill-opacity:1;fill-rule: evenodd"/>
<path id="Shape2DView_nwe0084"  d="M 2.4 -3.1499999999999986 L 3.04 -3.1499999999999986 " stroke="#191919" stroke-width="0.35 px" style="stroke-width:0.35;stroke-miterlimit:4;stroke-dasharray:none;fill:none;fill-opacity:1;fill-rule: evenodd"/>
<path id="Shape2DView_nwe0085"  d="M 2.4 3.1500000000000012 L 3.04 3.1500000000000012 " stroke="#191919" stroke-width="0.35 px" style="stroke-width:0.35;stroke-miterlimit:4;stroke-dasharray:none;fill:none;fill-opacity:1;fill-rule: evenodd"/>
<path id="Shape2DView_nwe0086"  d="M 3.040000000000304 -3.1500000000000736 L 3.238000000000244 -2.750000000000195 " stroke="#191919" stroke-width="0.35 px" style="stroke-width:0.35;stroke-miterlimit:4;stroke-dasharray:none;fill:none;fill-opacity:1;fill-rule: evenodd"/>
<path id="Shape2DView_nwe0087"  d="M 3.040000000000304 3.1500000000000763 L 3.238000000000244 2.7500000000001976 " stroke="#191919" stroke-width="0.35 px" style="stroke-width:0.35;stroke-miterlimit:4;stroke-dasharray:none;fill:none;fill-opacity:1;fill-rule: evenodd"/>
<path id="Shape2DView_nwe0088"  d="M 0.7999932772798576 -0.39999999999999886 L 2.16 -0.39999999999999886 " stroke="#191919" stroke-width="0.35 px" style="stroke-width:0.35;stroke-miterlimit:4;stroke-dasharray:none;fill:none;fill-opacity:1;fill-rule: evenodd"/>
<path id="Shape2DView_nwe0089"  d="M 0.7999932772798576 0.4000000000000012 L 2.16 0.4000000000000012 " stroke="#191919" stroke-width="0.35 px" style="stroke-width:0.35;stroke-miterlimit:4;stroke-dasharray:none;fill:none;fill-opacity:1;fill-rule: evenodd"/>
<path id="Shape2DView_nwe0090"  d="M 3.238 -2.7499999999999987 L 4.599820095893 -2.7499999999999987 " stroke="#191919" stroke-width="0.35 px" style="stroke-width:0.35;stroke-miterlimit:4;stroke-dasharray:none;fill:none;fill-opacity:1;fill-rule: evenodd"/>
<path id="Shape2DView_nwe0091"  d="M 3.238 2.7500000000000013 L 4.599820095893 2.7500000000000013 " stroke="#191919" stroke-width="0.35 px" style="stroke-width:0.35;stroke-miterlimit:4;stroke-dasharray:none;fill:none;fill-opacity:1;fill-rule: evenodd"/>
<path id="Shape2DView_nwe0092"  d="M 0.7999932772814928 -0.3999999999999989 Q 0.07112100577066516 -0.3999999999999988 1.27675647831893e-14 -0.399999999999999 " stroke="#191919" stroke-width="0.35 px" style="stroke-width:0.35;stroke-miterlimit:4;stroke-dasharray:none;fill:none;fill-opacity:1;fill-rule: evenodd"/>
<path id="Shape2DView_nwe0093"  d="M 0.7999932772814928 0.4000000000000012 Q 0.07112100577568742 0.40000000000000113 -1.3655743202889425e-14 0.400000000000001 " stroke="#191919" stroke-width="0.35 px" style="stroke-width:0.35;stroke-miterlimit:4;stroke-dasharray:none;fill:none;fill-opacity:1;fill-rule: evenodd"/>
<path id="Shape2DView_nwe0094"  d="M 5.261232535685194 2.749999999999845 Q 5.236991553281121 2.809940729686271 5.2127505708770485 2.8698814593726967 Q 5.132934655924636 2.9348114576486637 5.053118740972224 2.9997414559246303 Q 4.710596527390505 3.085188331486835 4.5998200958928415 2.7500000000000315 " stroke="#191919" stroke-width="0.35 px" style="stroke-width:0.35;stroke-miterlimit:4;stroke-dasharray:none;fill:none;fill-opacity:1;fill-rule: evenodd"/>
<path id="Shape2DView_nwe0095"  d="M 5.261232535685194 -2.7499999999998423 Q 5.236991553281121 -2.809940729686268 5.2127505708770485 -2.869881459372694 Q 5.132934655924637 -2.934811457648662 5.053118740972224 -2.9997414559246276 Q 4.710596527390505 -3.0851883314868322 4.5998200958928415 -2.750000000000029 " stroke="#191919" stroke-width="0.35 px" style="stroke-width:0.35;stroke-miterlimit:4;stroke-dasharray:none;fill:none;fill-opacity:1;fill-rule: evenodd"/>
<path id="Shape2DView_nwe0096"  d="M 5.261232535686 -2.7499999999999987 L 5.947188516946 -2.7499999999999987 " stroke="#191919" stroke-width="0.35 px" style="stroke-width:0.35;stroke-miterlimit:4;stroke-dasharray:none;fill:none;fill-opacity:1;fill-rule: evenodd"/>
<path id="Shape2DView_nwe0097"  d="M 5.261232535686 2.7500000000000013 L 5.947188516946 2.7500000000000013 " stroke="#191919" stroke-width="0.35 px" style="stroke-width:0.35;stroke-miterlimit:4;stroke-dasharray:none;fill:none;fill-opacity:1;fill-rule: evenodd"/>
<path id="Shape2DView_nwe0098"  d="M 6.608600956738158 2.7500000000000315 Q 6.583078002255693 2.8118786571292556 6.557555047773228 2.873757314258481 Q 6.5000125069642 2.926828986981309 6.442469966155171 2.9799006597041386 Q 6.078610118296091 3.1153244517244127 5.947188516945841 2.7500000000000324 " stroke="#191919" stroke-width="0.35 px" style="stroke-width:0.35;stroke-miterlimit:4;stroke-dasharray:none;fill:none;fill-opacity:1;fill-rule: evenodd"/>
<path id="Shape2DView_nwe0099"  d="M 6.608600956738158 -2.750000000000029 Q 6.583078002255693 -2.8118786571292533 6.557555047773228 -2.8737573142584782 Q 6.500012506964202 -2.9268289869813073 6.442469966155171 -2.979900659704136 Q 6.078610118296091 -3.11532445172441 5.947188516945841 -2.7500000000000298 " stroke="#191919" stroke-width="0.35 px" style="stroke-width:0.35;stroke-miterlimit:4;stroke-dasharray:none;fill:none;fill-opacity:1;fill-rule: evenodd"/>
<path id="Shape2DView_nwe0100"  d="M 6.608600956738 -2.7499999999999987 L 7.294556937997999 -2.7499999999999987 " stroke="#191919" stroke-width="0.35 px" style="stroke-width:0.35;stroke-miterlimit:4;stroke-dasharray:none;fill:none;fill-opacity:1;fill-rule: evenodd"/>
<path id="Shape2DView_nwe0101"  d="M 6.608600956738 2.7500000000000013 L 7.294556937997999 2.7500000000000013 " stroke="#191919" stroke-width="0.35 px" style="stroke-width:0.35;stroke-miterlimit:4;stroke-dasharray:none;fill:none;fill-opacity:1;fill-rule: evenodd"/>
<path id="Shape2DView_nwe0102"  d="M 7.955969377791158 2.7500000000000315 Q 7.972356388430278 2.8902481853941584 7.68077495091989 3.0182359750657546 Q 7.379358792194676 3.0400637235268544 7.294556937998806 2.749999999999846 " stroke="#191919" stroke-width="0.35 px" style="stroke-width:0.35;stroke-miterlimit:4;stroke-dasharray:none;fill:none;fill-opacity:1;fill-rule: evenodd"/>
<path id="Shape2DView_nwe0103"  d="M 7.955969377791158 -2.750000000000029 Q 7.972356388430278 -2.8902481853941557 7.68077495091989 -3.0182359750657537 Q 7.379358792194678 -3.040063723526851 7.294556937998806 -2.7499999999998437 " stroke="#191919" stroke-width="0.35 px" style="stroke-width:0.35;stroke-miterlimit:4;stroke-dasharray:none;fill:none;fill-opacity:1;fill-rule: evenodd"/>
<path id="Shape2DView_nwe0104"  d="M 7.955969377791 -2.7499999999999987 L 8.641925359051 -2.7499999999999987 " stroke="#191919" stroke-width="0.35 px" style="stroke-width:0.35;stroke-miterlimit:4;stroke-dasharray:none;fill:none;fill-opacity:1;fill-rule: evenodd"/>
<path id="Shape2DView_nwe0105"  d="M 7.955969377791 2.7500000000000013 L 8.641925359051 2.7500000000000013 " stroke="#191919" stroke-width="0.35 px" style="stroke-width:0.35;stroke-miterlimit:4;stroke-dasharray:none;fill:none;fill-opacity:1;fill-rule: evenodd"/>
<path id="Shape2DView_nwe0106"  d="M 9.303337798843195 2.749999999999846 Q 9.277814801913541 2.811878628631225 9.252291804983894 2.8737572572626044 Q 9.221426269762933 2.9083012580815613 9.190560734541972 2.9428452589005176 Q 8.807109876902476 3.156901186116226 8.641925359050843 2.7500000000000315 " stroke="#191919" stroke-width="0.35 px" style="stroke-width:0.35;stroke-miterlimit:4;stroke-dasharray:none;fill:none;fill-opacity:1;fill-rule: evenodd"/>
<path id="Shape2DView_nwe0107"  d="M 9.303337798843195 -2.7499999999998432 Q 9.277814801913545 -2.8118786286312227 9.252291804983894 -2.873757257262602 Q 9.221426269762933 -2.9083012580815586 9.190560734541972 -2.942845258900515 Q 8.807109876902476 -3.1569011861162224 8.641925359050843 -2.7500000000000284 " stroke="#191919" stroke-width="0.35 px" style="stroke-width:0.35;stroke-miterlimit:4;stroke-dasharray:none;fill:none;fill-opacity:1;fill-rule: evenodd"/>
<path id="Shape2DView_nwe0108"  d="M 9.303337798844 -2.7499999999999987 L 9.989293780104 -2.7499999999999987 " stroke="#191919" stroke-width="0.35 px" style="stroke-width:0.35;stroke-miterlimit:4;stroke-dasharray:none;fill:none;fill-opacity:1;fill-rule: evenodd"/>
<path id="Shape2DView_nwe0109"  d="M 9.303337798844 2.7500000000000013 L 9.989293780104 2.7500000000000013 " stroke="#191919" stroke-width="0.35 px" style="stroke-width:0.35;stroke-miterlimit:4;stroke-dasharray:none;fill:none;fill-opacity:1;fill-rule: evenodd"/>
<path id="Shape2DView_nwe0110"  d="M 10.650706219896158 2.7500000000000324 Q 10.625183265413693 2.8118786571292573 10.599660310931228 2.873757314258481 Q 10.5421177701222 2.9268289869813096 10.484575229313172 2.9799006597041386 Q 10.12071538145409 3.1153244517244136 9.989293780103843 2.7500000000000315 " stroke="#191919" stroke-width="0.35 px" style="stroke-width:0.35;stroke-miterlimit:4;stroke-dasharray:none;fill:none;fill-opacity:1;fill-rule: evenodd"/>
<path id="Shape2DView_nwe0111"  d="M 10.650706219896158 -2.7500000000000298 Q 10.625183265413693 -2.811878657129254 10.599660310931228 -2.8737573142584787 Q 10.5421177701222 -2.926828986981308 10.484575229313172 -2.979900659704136 Q 10.12071538145409 -3.115324451724411 9.989293780103843 -2.750000000000029 " stroke="#191919" stroke-width="0.35 px" style="stroke-width:0.35;stroke-miterlimit:4;stroke-dasharray:none;fill:none;fill-opacity:1;fill-rule: evenodd"/>
<path id="Shape2DView_nwe0112"  d="M 10.650706219896 -2.7499999999999987 L 11.336662201156 -2.7499999999999987 " stroke="#191919" stroke-width="0.35 px" style="stroke-width:0.35;stroke-miterlimit:4;stroke-dasharray:none;fill:none;fill-opacity:1;fill-rule: evenodd"/>
<path id="Shape2DView_nwe0113"  d="M 10.650706219896 2.7500000000000013 L 11.336662201156 2.7500000000000013 " stroke="#191919" stroke-width="0.35 px" style="stroke-width:0.35;stroke-miterlimit:4;stroke-dasharray:none;fill:none;fill-opacity:1;fill-rule: evenodd"/>
<path id="Shape2DView_nwe0114"  d="M 11.998074640949158 2.7500000000000324 Q 11.973833523037483 2.8099406414005186 11.949592405125802 2.869881282801005 Q 11.890768027745962 2.9248909712525872 11.83194365036612 2.979900659704167 Q 11.46808380250691 3.115324451724385 11.336662201156805 2.749999999999846 " stroke="#191919" stroke-width="0.35 px" style="stroke-width:0.35;stroke-miterlimit:4;stroke-dasharray:none;fill:none;fill-opacity:1;fill-rule: evenodd"/>
<path id="Shape2DView_nwe0115"  d="M 11.998074640949158 -2.7500000000000298 Q 11.973833523037483 -2.8099406414005164 11.949592405125802 -2.8698812828010025 Q 11.89076802774596 -2.9248909712525837 11.83194365036612 -2.9799006597041644 Q 11.46808380250691 -3.1153244517243825 11.336662201156805 -2.7499999999998432 " stroke="#191919" stroke-width="0.35 px" style="stroke-width:0.35;stroke-miterlimit:4;stroke-dasharray:none;fill:none;fill-opacity:1;fill-rule: evenodd"/>
<path id="Shape2DView_nwe0116"  d="M 11.998074640949 -2.7499999999999987 L 12.684030622209 -2.7499999999999987 " stroke="#191919" stroke-width="0.35 px" style="stroke-width:0.35;stroke-miterlimit:4;stroke-dasharray:none;fill:none;fill-opacity:1;fill-rule: evenodd"/>
<path id="Shape2DView_nwe0117"  d="M 11.998074640949 2.7500000000000013 L 12.684030622209 2.7500000000000013 " stroke="#191919" stroke-width="0.35 px" style="stroke-width:0.35;stroke-miterlimit:4;stroke-dasharray:none;fill:none;fill-opacity:1;fill-rule: evenodd"/>
<path id="Shape2DView_nwe0118"  d="M 13.345443062001195 2.749999999999846 Q 13.319920062484757 2.8118786268945155 13.294397062968319 2.8737572537891856 Q 13.268751982737303 2.9036826245989507 13.243106902506288 2.933607995408717 Q 12.857218026237634 3.1656361588500816 12.684030622208843 2.7500000000000324 " stroke="#191919" stroke-width="0.35 px" style="stroke-width:0.35;stroke-miterlimit:4;stroke-dasharray:none;fill:none;fill-opacity:1;fill-rule: evenodd"/>
<path id="Shape2DView_nwe0119"  d="M 13.345443062001195 -2.7499999999998432 Q 13.319920062484758 -2.8118786268945133 13.294397062968322 -2.873757253789183 Q 13.268751982737303 -2.9036826245989475 13.243106902506288 -2.9336079954087144 Q 12.857218026237636 -3.16563615885008 12.684030622208843 -2.75000000000003 " stroke="#191919" stroke-width="0.35 px" style="stroke-width:0.35;stroke-miterlimit:4;stroke-dasharray:none;fill:none;fill-opacity:1;fill-rule: evenodd"/>
<path id="Shape2DView_nwe0120"  d="M 13.345443062002 -2.7499999999999987 L 14.031399043262 -2.7499999999999987 " stroke="#191919" stroke-width="0.35 px" style="stroke-width:0.35;stroke-miterlimit:4;stroke-dasharray:none;fill:none;fill-opacity:1;fill-rule: evenodd"/>
<path id="Shape2DView_nwe0121"  d="M 13.345443062002 2.7500000000000013 L 14.031399043262 2.7500000000000013 " stroke="#191919" stroke-width="0.35 px" style="stroke-width:0.35;stroke-miterlimit:4;stroke-dasharray:none;fill:none;fill-opacity:1;fill-rule: evenodd"/>
<path id="Shape2DView_nwe0122"  d="M 14.692811483054157 2.7500000000000324 Q 14.667288528571692 2.811878657129257 14.641765574089227 2.873757314258482 Q 14.584223033280205 2.9268289869813113 14.526680492471172 2.9799006597041386 Q 14.162820644612093 3.1153244517244127 14.031399043261843 2.7500000000000324 " stroke="#191919" stroke-width="0.35 px" style="stroke-width:0.35;stroke-miterlimit:4;stroke-dasharray:none;fill:none;fill-opacity:1;fill-rule: evenodd"/>
<path id="Shape2DView_nwe0123"  d="M 14.692811483054157 -2.7500000000000298 Q 14.667288528571692 -2.8118786571292547 14.641765574089227 -2.873757314258479 Q 14.584223033280205 -2.9268289869813082 14.526680492471172 -2.979900659704136 Q 14.16282064461209 -3.11532445172441 14.031399043261843 -2.7500000000000298 " stroke="#191919" stroke-width="0.35 px" style="stroke-width:0.35;stroke-miterlimit:4;stroke-dasharray:none;fill:none;fill-opacity:1;fill-rule: evenodd"/>
<path id="Shape2DView_nwe0124"  d="M 14.692811483054 -2.7499999999999987 L 15.378767464314 -2.7499999999999987 " stroke="#191919" stroke-width="0.35 px" style="stroke-width:0.35;stroke-miterlimit:4;stroke-dasharray:none;fill:none;fill-opacity:1;fill-rule: evenodd"/>
<path id="Shape2DView_nwe0125"  d="M 14.692811483054 2.7500000000000013 L 15.378767464314 2.7500000000000013 " stroke="#191919" stroke-width="0.35 px" style="stroke-width:0.35;stroke-miterlimit:4;stroke-dasharray:none;fill:none;fill-opacity:1;fill-rule: evenodd"/>
<path id="Shape2DView_nwe0126"  d="M 16.04017990410716 2.7500000000000324 Q 16.015938786195477 2.8099406414005186 15.991697668283802 2.869881282801005 Q 15.932873290903963 2.9248909712525863 15.87404891352412 2.979900659704167 Q 15.51018906566491 3.115324451724385 15.378767464314805 2.749999999999846 " stroke="#191919" stroke-width="0.35 px" style="stroke-width:0.35;stroke-miterlimit:4;stroke-dasharray:none;fill:none;fill-opacity:1;fill-rule: evenodd"/>
<path id="Shape2DView_nwe0127"  d="M 16.04017990410716 -2.7500000000000298 Q 16.015938786195477 -2.8099406414005164 15.991697668283802 -2.8698812828010025 Q 15.932873290903968 -2.924890971252584 15.87404891352412 -2.9799006597041644 Q 15.51018906566491 -3.1153244517243825 15.378767464314805 -2.7499999999998432 " stroke="#191919" stroke-width="0.35 px" style="stroke-width:0.35;stroke-miterlimit:4;stroke-dasharray:none;fill:none;fill-opacity:1;fill-rule: evenodd"/>
<path id="Shape2DView_nwe0128"  d="M 16.040179904107 -2.7499999999999987 L 16.96 -2.7499999999999987 " stroke="#191919" stroke-width="0.35 px" style="stroke-width:0.35;stroke-miterlimit:4;stroke-dasharray:none;fill:none;fill-opacity:1;fill-rule: evenodd"/>
<path id="Shape2DView_nwe0129"  d="M 16.040179904107 2.7500000000000013 L 16.96 2.7500000000000013 " stroke="#191919" stroke-width="0.35 px" style="stroke-width:0.35;stroke-miterlimit:4;stroke-dasharray:none;fill:none;fill-opacity:1;fill-rule: evenodd"/>
<path id="Shape2DView_nwe0130"  d="M 16.959999999999784 -2.7500000000002607 L 17.279999999999696 -3.1500000000001527 " stroke="#191919" stroke-width="0.35 px" style="stroke-width:0.35;stroke-miterlimit:4;stroke-dasharray:none;fill:none;fill-opacity:1;fill-rule: evenodd"/>
<path id="Shape2DView_nwe0131"  d="M 16.959999999999784 2.7500000000002633 L 17.279999999999696 3.1500000000001553 " stroke="#191919" stroke-width="0.35 px" style="stroke-width:0.35;stroke-miterlimit:4;stroke-dasharray:none;fill:none;fill-opacity:1;fill-rule: evenodd"/>
<path id="Shape2DView_nwe0132"  d="M 17.28 -3.1499999999999986 L 17.92 -3.1499999999999986 " stroke="#191919" stroke-width="0.35 px" style="stroke-width:0.35;stroke-miterlimit:4;stroke-dasharray:none;fill:none;fill-opacity:1;fill-rule: evenodd"/>
<path id="Shape2DView_nwe0133"  d="M 17.28 3.1500000000000012 L 17.92 3.1500000000000012 " stroke="#191919" stroke-width="0.35 px" style="stroke-width:0.35;stroke-miterlimit:4;stroke-dasharray:none;fill:none;fill-opacity:1;fill-rule: evenodd"/>
<path id="Shape2DView_nwe0134"  d="M 18.160000000050104 -0.600000000004512 L 17.92000000004998 -3.1500000000049 " stroke="#191919" stroke-width="0.35 px" style="stroke-width:0.35;stroke-miterlimit:4;stroke-dasharray:none;fill:none;fill-opacity:1;fill-rule: evenodd"/>
<path id="Shape2DView_nwe0135"  d="M 18.160000000050104 0.6000000000045147 L 17.92000000004998 3.1500000000049027 " stroke="#191919" stroke-width="0.35 px" style="stroke-width:0.35;stroke-miterlimit:4;stroke-dasharray:none;fill:none;fill-opacity:1;fill-rule: evenodd"/>
<path id="Shape2DView_nwe0136"  d="M 18.16 -0.39999999999999886 L 19.52 -0.39999999999999886 " stroke="#191919" stroke-width="0.35 px" style="stroke-width:0.35;stroke-miterlimit:4;stroke-dasharray:none;fill:none;fill-opacity:1;fill-rule: evenodd"/>
<path id="Shape2DView_nwe0137"  d="M 18.16 0.4000000000000012 L 19.52 0.4000000000000012 " stroke="#191919" stroke-width="0.35 px" style="stroke-width:0.35;stroke-miterlimit:4;stroke-dasharray:none;fill:none;fill-opacity:1;fill-rule: evenodd"/>
<path id="Shape2DView_nwe0138"  d="M 19.52 0.4000000000000012 Q 19.658447532678252 0.40000000000000113 19.796895065356498 0.4000000000000012 Q 19.867447961674415 0.40000000000000113 19.938000857992332 0.4000000000000012 Q 20.306436473161913 0.40000000000000435 20.320000059793976 0.3999999999999965 " stroke="#191919" stroke-width="0.35 px" style="stroke-width:0.35;stroke-miterlimit:4;stroke-dasharray:none;fill:none;fill-opacity:1;fill-rule: evenodd"/>
<path id="Shape2DView_nwe0139"  d="M 19.52 -0.39999999999999886 Q 20.162536182821874 -0.3999999999999989 20.310151618952105 -0.399999999999999 Q 20.315075809465817 -0.399999999999999 20.31999999997953 -0.399999999999999 " stroke="#191919" stroke-width="0.35 px" style="stroke-width:0.35;stroke-miterlimit:4;stroke-dasharray:none;fill:none;fill-opacity:1;fill-rule: evenodd"/>
<path id="Shape2DView_nwe0140"  d="M 20.31999999997953 -0.399999999999999 L 20.320000002434384 -0.399999999999999 " stroke="#191919" stroke-width="0.35 px" style="stroke-width:0.35;stroke-miterlimit:4;stroke-dasharray:none;fill:none;fill-opacity:1;fill-rule: evenodd"/>
<title>b'Shape2DView'</title>
</g>
<g id="Rectangle" transform="translate(0.608241,3.361157) scale(1,-1)">
<rect fill="#ff0000" id="origin" width="1" height="1" x="0" y="0" />
<title>b'Rectangle'</title>
</g>
</svg>