<?xml version="1.0"?>
<!DOCTYPE svg PUBLIC "-//W3C//DTD SVG 1.1//EN" "http://www.w3.org/Graphics/SVG/1.1/DTD/svg11.dtd">
<svg width="21.539352924912478mm" height="7.922340253442399mm" viewBox="0 0 21.539352924912478 7.922340253442399" xmlns="http://www.w3.org/2000/svg" version="1.1">
<g id="Shape2DView" transform="translate(0.608254,3.961170) scale(1,-1)">
<path id="Shape2DView_nwe0000"  d="M 2.4 5.062616992291e-15 L 2.4 -0.4198667853873997 L 2.4 -0.8344535023361747 L 2.4 -1.2385464823318724 L 2.4 -1.627064021690839 L 2.4 -1.9951202869325082 L 2.4 -2.3380867569702475 L 2.4 -2.6516504294495506 L 2.4 -2.9318680592551094 L 2.4 -3.1752157471060634 L 2.4 -3.3786332546340696 L 2.4 -3.539562488656377 L 2.4 -3.655979670681836 L 2.4 -3.7264207870996575 L 2.4 -3.7499999999999982 " stroke="#191919" stroke-width="0.35 px" style="stroke-width:0.35;stroke-miterlimit:4;stroke-dasharray:none;fill:none;fill-opacity:1;fill-rule: evenodd"/>
<path id="Shape2DView_nwe0001"  d="M 2.4 3.7500000000000018 L 2.4 3.7264207870996615 L 2.4 3.6559796706818406 L 2.4 3.5395624886563803 L 2.4 3.3786332546340736 L 2.4 3.175215747106068 L 2.4 2.9318680592551143 L 2.4 2.6516504294495555 L 2.4 2.3380867569702533 L 2.4 1.9951202869325146 L 2.4 1.6270640216908456 L 2.4 1.2385464823318793 L 2.4 0.8344535023361815 L 2.4 0.4198667853874071 L 2.4 5.9811020916515155e-15 " stroke="#191919" stroke-width="0.35 px" style="stroke-width:0.35;stroke-miterlimit:4;stroke-dasharray:none;fill:none;fill-opacity:1;fill-rule: evenodd"/>
<path id="Shape2DView_nwe0002"  d="M 2.16 2.9642954757495998e-15 L 2.16 -0.06717868566198183 L 2.16 -0.13351256037378587 L 2.16 -0.19816743717309757 L 2.16 -0.26033024347053235 L 2.16 -0.3192192459091995 L 2.16 -0.3740938811152378 L 2.16 -0.42426406871192623 L 2.16 -0.4690988894808157 L 2.16 -0.5080345195369685 L 2.16 -0.5405813207414496 L 2.16 -0.5663299981850187 L 2.16 -0.5849567473090923 L 2.16 -0.5962273259359439 L 2.16 -0.5999999999999983 " stroke="#191919" stroke-width="0.35 px" style="stroke-width:0.35;stroke-miterlimit:4;stroke-dasharray:none;fill:none;fill-opacity:1;fill-rule: evenodd"/>
<path id="Shape2DView_nwe0003"  d="M 2.16 0.6000000000000016 L 2.16 0.5962273259359471 L 2.16 0.5849567473090959 L 2.16 0.5663299981850222 L 2.16 0.540581320741453 L 2.16 0.5080345195369721 L 2.16 0.4690988894808194 L 2.16 0.42426406871193006 L 2.16 0.37409388111524167 L 2.16 0.3192192459092034 L 2.16 0.26033024347053635 L 2.16 0.19816743717310176 L 2.16 0.13351256037379017 L 2.16 0.06717868566198623 L 2.16 3.1112530916472824e-15 " stroke="#191919" stroke-width="0.35 px" style="stroke-width:0.35;stroke-miterlimit:4;stroke-dasharray:none;fill:none;fill-opacity:1;fill-rule: evenodd"/>
<path id="Shape2DView_nwe0004"  d="M 3.04 5.062616992291e-15 L 3.04 -0.4198667853873997 L 3.04 -0.8344535023361747 L 3.04 -1.2385464823318724 L 3.04 -1.627064021690839 L 3.04 -1.9951202869325082 L 3.04 -2.3380867569702475 L 3.04 -2.6516504294495506 L 3.04 -2.9318680592551094 L 3.04 -3.1752157471060634 L 3.04 -3.3786332546340696 L 3.04 -3.539562488656377 L 3.04 -3.655979670681836 L 3.04 -3.7264207870996575 L 3.04 -3.7499999999999982 " stroke="#191919" stroke-width="0.35 px" style="stroke-width:0.35;stroke-miterlimit:4;stroke-dasharray:none;fill:none;fill-opacity:1;fill-rule: evenodd"/>
<path id="Shape2DView_nwe0005"  d="M 3.04 3.7500000000000018 L 3.04 3.7264207870996615 L 3.04 3.6559796706818406 L 3.04 3.5395624886563803 L 3.04 3.3786332546340736 L 3.04 3.175215747106068 L 3.04 2.9318680592551143 L 3.04 2.6516504294495555 L 3.04 2.3380867569702533 L 3.04 1.9951202869325146 L 3.04 1.6270640216908456 L 3.04 1.2385464823318793 L 3.04 0.8344535023361815 L 3.04 0.4198667853874071 L 3.04 5.9811020916515155e-15 " stroke="#191919" stroke-width="0.35 px" style="stroke-width:0.35;stroke-miterlimit:4;stroke-dasharray:none;fill:none;fill-opacity:1;fill-rule: evenodd"/>
<path id="Shape2DView_nwe0006"  d="M 3.238 4.7961634663808304e-15 L 3.238 -0.3750809949460768 L 3.238 -0.745445128753649 L 3.238 -1.1064348575498058 L 3.238 -1.453510526043816 L 3.238 -1.7823074563263739 L 3.238 -2.088690836226754 L 3.238 -2.3688077169749318 L 3.238 -2.619135466267898 L 3.238 -2.8365260674147494 L 3.238 -3.0182457074731017 L 3.238 -3.1620091565330295 L 3.238 -3.266008505809107 L 3.238 -3.3289359031423604 L 3.238 -3.3499999999999983 " stroke="#191919" stroke-width="0.35 px" style="stroke-width:0.35;stroke-miterlimit:4;stroke-dasharray:none;fill:none;fill-opacity:1;fill-rule: evenodd"/>
<path id="Shape2DView_nwe0007"  d="M 3.238 3.350000000000002 L 3.238 3.328935903142365 L 3.238 3.2660085058091113 L 3.238 3.1620091565330335 L 3.238 3.018245707473106 L 3.238 2.8365260674147543 L 3.238 2.619135466267902 L 3.238 2.3688077169749366 L 3.238 2.0886908362267596 L 3.238 1.78230745632638 L 3.238 1.4535105260438224 L 3.238 1.1064348575498124 L 3.238 0.7454451287536559 L 3.238 0.37508099494608393 L 3.238 5.616676821809556e-15 " stroke="#191919" stroke-width="0.35 px" style="stroke-width:0.35;stroke-miterlimit:4;stroke-dasharray:none;fill:none;fill-opacity:1;fill-rule: evenodd"/>
<path id="Shape2DView_nwe0008"  d="M 4.599820095893 5.329070518201e-15 C 4.599820095892997 1.7900738992030616 4.5998200958930004 3.396160181261008 4.599820095893 3.3499999995007945 " stroke="#191919" stroke-width="0.35 px" style="stroke-width:0.35;stroke-miterlimit:4;stroke-dasharray:none;fill:none;fill-opacity:1;fill-rule: evenodd"/>
<path id="Shape2DView_nwe0009"  d="M 4.599820095892997 -3.3499999999998473 C 4.599820095893003 -3.3961602573436216 4.599820095892997 -1.7900766822490657 4.599820095893 5.329070518200751e-15 " stroke="#191919" stroke-width="0.35 px" style="stroke-width:0.35;stroke-miterlimit:4;stroke-dasharray:none;fill:none;fill-opacity:1;fill-rule: evenodd"/>
<path id="Shape2DView_nwe0010"  d="M -1.3653454727398982e-14 0.40000000000000113 A 0.4 0.4 0 0 1 1.27163e-14 -0.4" stroke="#191919" stroke-width="0.35 px" style="stroke-width:0.35;stroke-miterlimit:4;stroke-dasharray:none;fill:none;fill-opacity:1;fill-rule: evenodd"/>
<path id="Shape2DView_nwe0011"  d="M 5.261232535686 5.329070518201e-15 C 5.261232535685998 1.7900738992022587 5.261232535686 3.396160181261406 5.261232535686 3.349999999500795 " stroke="#191919" stroke-width="0.35 px" style="stroke-width:0.35;stroke-miterlimit:4;stroke-dasharray:none;fill:none;fill-opacity:1;fill-rule: evenodd"/>
<path id="Shape2DView_nwe0012"  d="M 5.261232535686 -3.3499999999998473 C 5.261232535685999 -3.3961602573436216 5.261232535686002 -1.7900766822490657 5.261232535686 5.329070518200751e-15 " stroke="#191919" stroke-width="0.35 px" style="stroke-width:0.35;stroke-miterlimit:4;stroke-dasharray:none;fill:none;fill-opacity:1;fill-rule: evenodd"/>
<path id="Shape2DView_nwe0013"  d="M 5.947188516946 5.329070518201e-15 C 5.947188516945998 1.7900738992029204 5.947188516946001 3.3961601812610533 5.947188516946 3.3499999995007945 " stroke="#191919" stroke-width="0.35 px" style="stroke-width:0.35;stroke-miterlimit:4;stroke-dasharray:none;fill:none;fill-opacity:1;fill-rule: evenodd"/>
<path id="Shape2DView_nwe0014"  d="M 5.947188516946 -3.3499999999998473 C 5.947188516945999 -3.3961602573436216 5.947188516946 -1.7900766822490657 5.947188516946 5.329070518200751e-15 " stroke="#191919" stroke-width="0.35 px" style="stroke-width:0.35;stroke-miterlimit:4;stroke-dasharray:none;fill:none;fill-opacity:1;fill-rule: evenodd"/>
<path id="Shape2DView_nwe0015"  d="M 6.608600956738 5.329070518201e-15 C 6.608600956737997 1.7900738992021183 6.608600956738 3.39616018126145 6.608600956738 3.349999999500795 " stroke="#191919" stroke-width="0.35 px" style="stroke-width:0.35;stroke-miterlimit:4;stroke-dasharray:none;fill:none;fill-opacity:1;fill-rule: evenodd"/>
<path id="Shape2DView_nwe0016"  d="M 6.608600956737997 -3.3499999999998473 C 6.608600956738004 -3.3961602573436216 6.608600956737996 -1.7900766822490657 6.608600956738 5.329070518200751e-15 " stroke="#191919" stroke-width="0.35 px" style="stroke-width:0.35;stroke-miterlimit:4;stroke-dasharray:none;fill:none;fill-opacity:1;fill-rule: evenodd"/>
<path id="Shape2DView_nwe0017"  d="M 7.294556937998 5.329070518201e-15 C 7.294556937997997 1.7900738992035325 7.294556937997999 3.3961601812608118 7.294556937998002 3.349999999500795 " stroke="#191919" stroke-width="0.35 px" style="stroke-width:0.35;stroke-miterlimit:4;stroke-dasharray:none;fill:none;fill-opacity:1;fill-rule: evenodd"/>
<path id="Shape2DView_nwe0018"  d="M 7.294556937998 -3.3499999999998473 C 7.294556937997999 -3.3961602573436216 7.294556937998 -1.7900766822490657 7.294556937998 5.329070518200751e-15 " stroke="#191919" stroke-width="0.35 px" style="stroke-width:0.35;stroke-miterlimit:4;stroke-dasharray:none;fill:none;fill-opacity:1;fill-rule: evenodd"/>
<path id="Shape2DView_nwe0019"  d="M 7.955969377791 5.329070518201e-15 C 7.955969377790997 1.7900738992013159 7.955969377791 3.3961601812618443 7.955969377791 3.349999999500799 " stroke="#191919" stroke-width="0.35 px" style="stroke-width:0.35;stroke-miterlimit:4;stroke-dasharray:none;fill:none;fill-opacity:1;fill-rule: evenodd"/>
<path id="Shape2DView_nwe0020"  d="M 7.955969377791 -3.3499999999998473 C 7.955969377791001 -3.3961602573436216 7.955969377790996 -1.7900766822490657 7.955969377791 5.329070518200751e-15 " stroke="#191919" stroke-width="0.35 px" style="stroke-width:0.35;stroke-miterlimit:4;stroke-dasharray:none;fill:none;fill-opacity:1;fill-rule: evenodd"/>
<path id="Shape2DView_nwe0021"  d="M 8.641925359051 5.329070518201e-15 C 8.641925359050996 1.7900738992024456 8.641925359051 3.3961601812613007 8.641925359051 3.349999999500795 " stroke="#191919" stroke-width="0.35 px" style="stroke-width:0.35;stroke-miterlimit:4;stroke-dasharray:none;fill:none;fill-opacity:1;fill-rule: evenodd"/>
<path id="Shape2DView_nwe0022"  d="M 8.641925359051 -3.3499999999998473 C 8.641925359050994 -3.3961602573436216 8.641925359051003 -1.7900766822490657 8.641925359051 5.329070518200751e-15 " stroke="#191919" stroke-width="0.35 px" style="stroke-width:0.35;stroke-miterlimit:4;stroke-dasharray:none;fill:none;fill-opacity:1;fill-rule: evenodd"/>
<path id="Shape2DView_nwe0023"  d="M 9.303337798844 5.329070518201e-15 C 9.303337798843998 1.790073899201642 9.303337798843998 3.396160181261699 9.303337798844003 3.349999999500795 " stroke="#191919" stroke-width="0.35 px" style="stroke-width:0.35;stroke-miterlimit:4;stroke-dasharray:none;fill:none;fill-opacity:1;fill-rule: evenodd"/>
<path id="Shape2DView_nwe0024"  d="M 9.303337798844 -3.3499999999998473 C 9.303337798843996 -3.3961602573436216 9.303337798844 -1.7900766822490657 9.303337798844 5.329070518200751e-15 " stroke="#191919" stroke-width="0.35 px" style="stroke-width:0.35;stroke-miterlimit:4;stroke-dasharray:none;fill:none;fill-opacity:1;fill-rule: evenodd"/>
<path id="Shape2DView_nwe0025"  d="M 9.989293780104 5.329070518201e-15 C 9.989293780103994 1.7900738992030616 9.989293780104001 3.396160181261008 9.989293780104 3.3499999995007945 " stroke="#191919" stroke-width="0.35 px" style="stroke-width:0.35;stroke-miterlimit:4;stroke-dasharray:none;fill:none;fill-opacity:1;fill-rule: evenodd"/>
<path id="Shape2DView_nwe0026"  d="M 9.989293780104 -3.3499999999998473 C 9.989293780103997 -3.3961602573436216 9.989293780104 -1.7900766822490657 9.989293780104 5.329070518200751e-15 " stroke="#191919" stroke-width="0.35 px" style="stroke-width:0.35;stroke-miterlimit:4;stroke-dasharray:none;fill:none;fill-opacity:1;fill-rule: evenodd"/>
<path id="Shape2DView_nwe0027"  d="M 10.650706219896 5.329070518201e-15 C 10.650706219895996 1.7900738992015008 10.650706219895998 3.3961601812617443 10.650706219896 3.349999999500795 " stroke="#191919" stroke-width="0.35 px" style="stroke-width:0.35;stroke-miterlimit:4;stroke-dasharray:none;fill:none;fill-opacity:1;fill-rule: evenodd"/>
<path id="Shape2DView_nwe0028"  d="M 10.650706219896 -3.3499999999998473 C 10.650706219895994 -3.3961602573436216 10.650706219896001 -1.7900766822490657 10.650706219896 5.329070518200751e-15 " stroke="#191919" stroke-width="0.35 px" style="stroke-width:0.35;stroke-miterlimit:4;stroke-dasharray:none;fill:none;fill-opacity:1;fill-rule: evenodd"/>
<path id="Shape2DView_nwe0029"  d="M 11.336662201156 5.329070518201e-15 C 11.336662201155995 1.7900738992030616 11.336662201156 3.396160181261008 11.336662201156 3.3499999995007945 " stroke="#191919" stroke-width="0.35 px" style="stroke-width:0.35;stroke-miterlimit:4;stroke-dasharray:none;fill:none;fill-opacity:1;fill-rule: evenodd"/>
<path id="Shape2DView_nwe0030"  d="M 11.336662201156 -3.3499999999998473 C 11.336662201155997 -3.3961602573436216 11.336662201155999 -1.7900766822490657 11.336662201156 5.329070518200751e-15 " stroke="#191919" stroke-width="0.35 px" style="stroke-width:0.35;stroke-miterlimit:4;stroke-dasharray:none;fill:none;fill-opacity:1;fill-rule: evenodd"/>
<path id="Shape2DView_nwe0031"  d="M 11.998074640949 5.329070518201e-15 C 11.998074640948996 1.7900738992021183 11.998074640949001 3.39616018126145 11.998074640949 3.349999999500795 " stroke="#191919" stroke-width="0.35 px" style="stroke-width:0.35;stroke-miterlimit:4;stroke-dasharray:none;fill:none;fill-opacity:1;fill-rule: evenodd"/>
<path id="Shape2DView_nwe0032"  d="M 11.998074640949 -3.3499999999998473 C 11.998074640948998 -3.3961602573436216 11.998074640949 -1.7900766822490657 11.998074640949 5.329070518200751e-15 " stroke="#191919" stroke-width="0.35 px" style="stroke-width:0.35;stroke-miterlimit:4;stroke-dasharray:none;fill:none;fill-opacity:1;fill-rule: evenodd"/>
<path id="Shape2DView_nwe0033"  d="M 12.684030622209 5.329070518201e-15 C 12.684030622208995 1.790073899202734 12.684030622209002 3.396160181261999 12.684030622209 3.3499999995007252 " stroke="#191919" stroke-width="0.35 px" style="stroke-width:0.35;stroke-miterlimit:4;stroke-dasharray:none;fill:none;fill-opacity:1;fill-rule: evenodd"/>
<path id="Shape2DView_nwe0034"  d="M 12.684030622208995 -3.3499999999998473 C 12.68403062220901 -3.3961602573436216 12.684030622208995 -1.7900766822490657 12.684030622209 5.329070518200751e-15 " stroke="#191919" stroke-width="0.35 px" style="stroke-width:0.35;stroke-miterlimit:4;stroke-dasharray:none;fill:none;fill-opacity:1;fill-rule: evenodd"/>
<path id="Shape2DView_nwe0035"  d="M 13.345443062002 5.329070518201e-15 C 13.345443062001994 1.7900738992021183 13.345443062001996 3.39616018126145 13.345443062002003 3.349999999500795 " stroke="#191919" stroke-width="0.35 px" style="stroke-width:0.35;stroke-miterlimit:4;stroke-dasharray:none;fill:none;fill-opacity:1;fill-rule: evenodd"/>
<path id="Shape2DView_nwe0036"  d="M 13.345443062002 -3.3499999999998473 C 13.345443062001998 -3.3961602573436216 13.345443062002001 -1.7900766822490657 13.345443062002 5.329070518200751e-15 " stroke="#191919" stroke-width="0.35 px" style="stroke-width:0.35;stroke-miterlimit:4;stroke-dasharray:none;fill:none;fill-opacity:1;fill-rule: evenodd"/>
<path id="Shape2DView_nwe0037"  d="M 14.031399043262 5.329070518201e-15 C 14.031399043261997 1.7900738992025933 14.031399043261999 3.3961601812620428 14.031399043262004 3.3499999995007252 " stroke="#191919" stroke-width="0.35 px" style="stroke-width:0.35;stroke-miterlimit:4;stroke-dasharray:none;fill:none;fill-opacity:1;fill-rule: evenodd"/>
<path id="Shape2DView_nwe0038"  d="M 14.031399043262 -3.3499999999998473 C 14.031399043261997 -3.3961602573436216 14.031399043261999 -1.7900766822490657 14.031399043262 5.329070518200751e-15 " stroke="#191919" stroke-width="0.35 px" style="stroke-width:0.35;stroke-miterlimit:4;stroke-dasharray:none;fill:none;fill-opacity:1;fill-rule: evenodd"/>
<path id="Shape2DView_nwe0039"  d="M 14.692811483054 5.329070518201e-15 C 14.692811483053989 1.7900738992024354 14.692811483054001 3.396160181261547 14.692811483054003 3.3499999995007954 " stroke="#191919" stroke-width="0.35 px" style="stroke-width:0.35;stroke-miterlimit:4;stroke-dasharray:none;fill:none;fill-opacity:1;fill-rule: evenodd"/>
<path id="Shape2DView_nwe0040"  d="M 14.692811483053994 -3.3499999999998473 C 14.692811483054 -3.3961602573436216 14.692811483053998 -1.7900766822490657 14.692811483054 5.329070518200751e-15 " stroke="#191919" stroke-width="0.35 px" style="stroke-width:0.35;stroke-miterlimit:4;stroke-dasharray:none;fill:none;fill-opacity:1;fill-rule: evenodd"/>
<path id="Shape2DView_nwe0041"  d="M 15.378767464314 5.329070518201e-15 C 15.378767464313999 1.790073899202586 15.378767464313999 3.3961601812612567 15.378767464313997 3.349999999500795 " stroke="#191919" stroke-width="0.35 px" style="stroke-width:0.35;stroke-miterlimit:4;stroke-dasharray:none;fill:none;fill-opacity:1;fill-rule: evenodd"/>
<path id="Shape2DView_nwe0042"  d="M 15.378767464314 -3.3499999999998473 C 15.378767464313993 -3.3961602573436216 15.378767464314006 -1.7900766822490657 15.378767464314 5.329070518200751e-15 " stroke="#191919" stroke-width="0.35 px" style="stroke-width:0.35;stroke-miterlimit:4;stroke-dasharray:none;fill:none;fill-opacity:1;fill-rule: evenodd"/>
<path id="Shape2DView_nwe0043"  d="M 16.040179904107 5.329070518201e-15 C 16.04017990410699 1.7900738992015008 16.040179904107 3.3961601812617443 16.040179904107 3.349999999500795 " stroke="#191919" stroke-width="0.35 px" style="stroke-width:0.35;stroke-miterlimit:4;stroke-dasharray:none;fill:none;fill-opacity:1;fill-rule: evenodd"/>
<path id="Shape2DView_nwe0044"  d="M 16.040179904107 -3.3499999999998473 C 16.040179904106992 -3.3961602573436216 16.040179904107003 -1.7900766822490657 16.040179904107 5.329070518200751e-15 " stroke="#191919" stroke-width="0.35 px" style="stroke-width:0.35;stroke-miterlimit:4;stroke-dasharray:none;fill:none;fill-opacity:1;fill-rule: evenodd"/>
<path id="Shape2DView_nwe0045"  d="M 16.96 4.7961634663808304e-15 L 16.96 -0.3750809949460768 L 16.96 -0.745445128753649 L 16.96 -1.1064348575498058 L 16.96 -1.453510526043816 L 16.96 -1.7823074563263739 L 16.96 -2.088690836226754 L 16.96 -2.3688077169749318 L 16.96 -2.619135466267898 L 16.96 -2.8365260674147494 L 16.96 -3.0182457074731017 L 16.96 -3.1620091565330295 L 16.96 -3.266008505809107 L 16.96 -3.3289359031423604 L 16.96 -3.3499999999999983 " stroke="#191919" stroke-width="0.35 px" style="stroke-width:0.35;stroke-miterlimit:4;stroke-dasharray:none;fill:none;fill-opacity:1;fill-rule: evenodd"/>
<path id="Shape2DView_nwe0046"  d="M 16.96 3.350000000000002 L 16.96 3.328935903142365 L 16.96 3.2660085058091113 L 16.96 3.1620091565330335 L 16.96 3.018245707473106 L 16.96 2.8365260674147543 L 16.96 2.619135466267902 L 16.96 2.3688077169749366 L 16.96 2.0886908362267596 L 16.96 1.78230745632638 L 16.96 1.4535105260438224 L 16.96 1.1064348575498124 L 16.96 0.7454451287536559 L 16.96 0.37508099494608393 L 16.96 5.616676821809556e-15 " stroke="#191919" stroke-width="0.35 px" style="stroke-width:0.35;stroke-miterlimit:4;stroke-dasharray:none;fill:none;fill-opacity:1;fill-rule: evenodd"/>
<path id="Shape2DView_nwe0047"  d="M 17.28 5.062616992291e-15 L 17.28 -0.4198667853873997 L 17.28 -0.8344535023361747 L 17.28 -1.2385464823318724 L 17.28 -1.627064021690839 L 17.28 -1.9951202869325082 L 17.28 -2.3380867569702475 L 17.28 -2.6516504294495506 L 17.28 -2.9318680592551094 L 17.28 -3.1752157471060634 L 17.28 -3.3786332546340696 L 17.28 -3.539562488656377 L 17.28 -3.655979670681836 L 17.28 -3.7264207870996575 L 17.28 -3.7499999999999982 " stroke="#191919" stroke-width="0.35 px" style="stroke-width:0.35;stroke-miterlimit:4;stroke-dasharray:none;fill:none;fill-opacity:1;fill-rule: evenodd"/>
<path id="Shape2DView_nwe0048"  d="M 17.28 3.7500000000000018 L 17.28 3.7264207870996615 L 17.28 3.6559796706818406 L 17.28 3.5395624886563803 L 17.28 3.3786332546340736 L 17.28 3.175215747106068 L 17.28 2.9318680592551143 L 17.28 2.6516504294495555 L 17.28 2.3380867569702533 L 17.28 1.9951202869325146 L 17.28 1.6270640216908456 L 17.28 1.2385464823318793 L 17.28 0.8344535023361815 L 17.28 0.4198667853874071 L 17.28 5.9811020916515155e-15 " stroke="#191919" stroke-width="0.35 px" style="stroke-width:0.35;stroke-miterlimit:4;stroke-dasharray:none;fill:none;fill-opacity:1;fill-rule: evenodd"/>
<path id="Shape2DView_nwe0049"  d="M 17.92 5.062616992291e-15 L 17.92 -0.4198667853873997 L 17.92 -0.8344535023361747 L 17.92 -1.2385464823318724 L 17.92 -1.627064021690839 L 17.92 -1.9951202869325082 L 17.92 -2.3380867569702475 L 17.92 -2.6516504294495506 L 17.92 -2.9318680592551094 L 17.92 -3.1752157471060634 L 17.92 -3.3786332546340696 L 17.92 -3.539562488656377 L 17.92 -3.655979670681836 L 17.92 -3.7264207870996575 L 17.92 -3.7499999999999982 " stroke="#191919" stroke-width="0.35 px" style="stroke-width:0.35;stroke-miterlimit:4;stroke-dasharray:none;fill:none;fill-opacity:1;fill-rule: evenodd"/>
<path id="Shape2DView_nwe0050"  d="M 17.92 3.7500000000000018 L 17.92 3.7264207870996615 L 17.92 3.6559796706818406 L 17.92 3.5395624886563803 L 17.92 3.3786332546340736 L 17.92 3.175215747106068 L 17.92 2.9318680592551143 L 17.92 2.6516504294495555 L 17.92 2.3380867569702533 L 17.92 1.9951202869325146 L 17.92 1.6270640216908456 L 17.92 1.2385464823318793 L 17.92 0.8344535023361815 L 17.92 0.4198667853874071 L 17.92 5.9811020916515155e-15 " stroke="#191919" stroke-width="0.35 px" style="stroke-width:0.35;stroke-miterlimit:4;stroke-dasharray:none;fill:none;fill-opacity:1;fill-rule: evenodd"/>
<path id="Shape2DView_nwe0051"  d="M 18.16 2.9642954757495998e-15 L 18.16 -0.06717868566198183 L 18.16 -0.13351256037378587 L 18.16 -0.19816743717309757 L 18.16 -0.26033024347053235 L 18.16 -0.3192192459091995 L 18.16 -0.3740938811152378 L 18.16 -0.42426406871192623 L 18.16 -0.4690988894808157 L 18.16 -0.5080345195369685 L 18.16 -0.5405813207414496 L 18.16 -0.5663299981850187 L 18.16 -0.5849567473090923 L 18.16 -0.5962273259359439 L 18.16 -0.5999999999999983 " stroke="#191919" stroke-width="0.35 px" style="stroke-width:0.35;stroke-miterlimit:4;stroke-dasharray:none;fill:none;fill-opacity:1;fill-rule: evenodd"/>
<path id="Shape2DView_nwe0052"  d="M 18.16 0.6000000000000016 L 18.16 0.5962273259359471 L 18.16 0.5849567473090959 L 18.16 0.5663299981850222 L 18.16 0.540581320741453 L 18.16 0.5080345195369721 L 18.16 0.4690988894808194 L 18.16 0.42426406871193006 L 18.16 0.37409388111524167 L 18.16 0.3192192459092034 L 18.16 0.26033024347053635 L 18.16 0.19816743717310176 L 18.16 0.13351256037379017 L 18.16 0.06717868566198623 L 18.16 3.1112530916472824e-15 " stroke="#191919" stroke-width="0.35 px" style="stroke-width:0.35;stroke-miterlimit:4;stroke-dasharray:none;fill:none;fill-opacity:1;fill-rule: evenodd"/>
<path id="Shape2DView_nwe0053"  d="M 20.319865631134043 -0.3999999774312581 A 0.4 0.4 0 0 1 20.3202 0.4" stroke="#191919" stroke-width="0.35 px" style="stroke-width:0.35;stroke-miterlimit:4;stroke-dasharray:none;fill:none;fill-opacity:1;fill-rule: evenodd"/>
<path id="Shape2DView_nwe0054"  d="M 0.799989196554 -0.39999999999999875 A 0.4 5.401723183859011e-06 -90.0 0 1 0.799989196554 0.4000000000000013 " stroke="#191919" stroke-width="0.35 px" style="stroke-width:0.35;stroke-miterlimit:4;stroke-dasharray:none;fill:none;fill-opacity:1;fill-rule: evenodd"/>
<path id="Shape2DView_nwe0055"  d="M 19.52 0.4000000000000013 A 0.4 5.4017231838110106e-06 89.99999999999999 0 0 19.52 -0.39999999999999875 " stroke="#191919" stroke-width="0.35 px" style="stroke-width:0.35;stroke-miterlimit:4;stroke-dasharray:none;fill:none;fill-opacity:1;fill-rule: evenodd"/>
<path id="Shape2DView_nwe0056"  d="M 2.4000000000007162 5.062616992289819e-15 L 2.3818262976075744 4.912790176354007e-15 L 2.3638111518497453 4.762954863718248e-15 L 2.3459545716793855 4.6131111288389675e-15 L 2.3282565659698093 4.4632590461767865e-15 L 2.3107171435155465 4.313398690196461e-15 L 2.2933363130322846 4.163530135366864e-15 L 2.2761140831569264 4.0136534561609455e-15 L 2.2590504624476466 3.863768727055686e-15 L 2.2421454593836643 3.713876022532072e-15 L 2.2253990823654703 3.563975417075047e-15 L 2.208811339714714 3.4140669851734914e-15 L 2.1923822396741457 3.2641508013201673e-15 L 2.1761117904078446 3.1142269400116813e-15 L 2.160000000000821 2.964295475748187e-15 " stroke="#191919" stroke-width="0.35 px" style="stroke-width:0.35;stroke-miterlimit:4;stroke-dasharray:none;fill:none;fill-opacity:1;fill-rule: evenodd"/>
<path id="Shape2DView_nwe0057"  d="M 2.4 5.062616992291e-15 L 3.04 5.062616992291e-15 " stroke="#191919" stroke-width="0.35 px" style="stroke-width:0.35;stroke-miterlimit:4;stroke-dasharray:none;fill:none;fill-opacity:1;fill-rule: evenodd"/>
<path id="Shape2DView_nwe0058"  d="M 3.040000000000304 5.062616992291076e-15 L 3.048148518216377 5.041910456773088e-15 L 3.0572649752370102 5.021383762569319e-15 L 3.0673404564192777 5.0010569819675964e-15 L 3.0783651093263336 4.9809499917677014e-15 L 3.090328153361742 4.961082453844587e-15 L 3.1032178903114227 4.941473795921768e-15 L 3.117021715782895 4.922143192573669e-15 L 3.131726131530642 4.9031095464755306e-15 L 3.1473167586555446 4.884391469919187e-15 L 3.1637783516654663 4.866007266612799e-15 L 3.1810948133832517 4.847974913782343e-15 L 3.1992492106875563 4.830312044592353e-15 L 3.218223791071113 4.813035930903106e-15 L 3.238000000000243 4.7961634663811175e-15 " stroke="#191919" stroke-width="0.35 px" style="stroke-width:0.35;stroke-miterlimit:4;stroke-dasharray:none;fill:none;fill-opacity:1;fill-rule: evenodd"/>
<path id="Shape2DView_nwe0059"  d="M 3.238 4.796163466381e-15 L 4.599820095893 4.796163466381e-15 " stroke="#191919" stroke-width="0.35 px" style="stroke-width:0.35;stroke-miterlimit:4;stroke-dasharray:none;fill:none;fill-opacity:1;fill-rule: evenodd"/>
<path id="Shape2DView_nwe0060"  d="M 5.261232535685194 4.796163466380503e-15 L 5.24229791470738 4.838475564331624e-15 L 5.2112917706510675 4.8774986794105e-15 L 5.1694146342408285 4.9117218708005105e-15 L 5.1182879514980195 4.939820046523687e-15 L 5.059891302771838 4.960705269840819e-15 L 4.996485755123078 4.9735688832085405e-15 L 4.930526315789095 4.977912818790718e-15 L 4.864566876455108 4.973568883208565e-15 L 4.801161328806336 4.960705269840867e-15 L 4.742764680080137 4.939820046523757e-15 L 4.691637997337305 4.9117218708006005e-15 L 4.649760860927038 4.877498679410606e-15 L 4.618754716870692 4.8384755643317414e-15 L 4.5998200958928415 4.796163466380627e-15 " stroke="#191919" stroke-width="0.35 px" style="stroke-width:0.35;stroke-miterlimit:4;stroke-dasharray:none;fill:none;fill-opacity:1;fill-rule: evenodd"/>
<path id="Shape2DView_nwe0061"  d="M 5.261232535686 4.796163466381e-15 L 5.947188516946 4.796163466381e-15 " stroke="#191919" stroke-width="0.35 px" style="stroke-width:0.35;stroke-miterlimit:4;stroke-dasharray:none;fill:none;fill-opacity:1;fill-rule: evenodd"/>
<path id="Shape2DView_nwe0062"  d="M 6.608600956738158 4.796163466380627e-15 L 6.589666335760313 4.838475564331733e-15 L 6.558660191703977 4.877498679410591e-15 L 6.516783055293724 4.911721870800581e-15 L 6.465656372550907 4.9398200465237376e-15 L 6.407259723824725 4.96070526984085e-15 L 6.343854176175972 4.973568883208555e-15 L 6.277894736842 4.977912818790718e-15 L 6.211935297508028 4.973568883208555e-15 L 6.148529749859274 4.96070526984085e-15 L 6.090133101133093 4.9398200465237376e-15 L 6.039006418390276 4.911721870800581e-15 L 5.997129281980023 4.877498679410591e-15 L 5.966123137923686 4.838475564331733e-15 L 5.947188516945841 4.796163466380627e-15 " stroke="#191919" stroke-width="0.35 px" style="stroke-width:0.35;stroke-miterlimit:4;stroke-dasharray:none;fill:none;fill-opacity:1;fill-rule: evenodd"/>
<path id="Shape2DView_nwe0063"  d="M 6.608600956738 4.796163466381e-15 L 7.294556937997999 4.796163466381e-15 " stroke="#191919" stroke-width="0.35 px" style="stroke-width:0.35;stroke-miterlimit:4;stroke-dasharray:none;fill:none;fill-opacity:1;fill-rule: evenodd"/>
<path id="Shape2DView_nwe0064"  d="M 7.955969377791158 4.796163466380627e-15 L 7.937034756813308 4.838475564331741e-15 L 7.906028612756962 4.877498679410606e-15 L 7.864151476346694 4.9117218708006005e-15 L 7.813024793603862 4.939820046523757e-15 L 7.754628144877663 4.960705269840867e-15 L 7.691222597228892 4.973568883208565e-15 L 7.625263157894905 4.977912818790718e-15 L 7.559303718560922 4.9735688832085405e-15 L 7.495898170912161 4.960705269840819e-15 L 7.43750152218598 4.939820046523687e-15 L 7.386374839443171 4.9117218708005105e-15 L 7.344497703032933 4.877498679410501e-15 L 7.31349155897662 4.838475564331624e-15 L 7.294556937998806 4.796163466380503e-15 " stroke="#191919" stroke-width="0.35 px" style="stroke-width:0.35;stroke-miterlimit:4;stroke-dasharray:none;fill:none;fill-opacity:1;fill-rule: evenodd"/>
<path id="Shape2DView_nwe0065"  d="M 7.955969377791 4.796163466381e-15 L 8.641925359051 4.796163466381e-15 " stroke="#191919" stroke-width="0.35 px" style="stroke-width:0.35;stroke-miterlimit:4;stroke-dasharray:none;fill:none;fill-opacity:1;fill-rule: evenodd"/>
<path id="Shape2DView_nwe0066"  d="M 9.303337798843195 4.796163466380503e-15 L 9.28440317786538 4.838475564331624e-15 L 9.253397033809067 4.877498679410501e-15 L 9.21151989739883 4.9117218708005105e-15 L 9.16039321465602 4.939820046523687e-15 L 9.10199656592984 4.960705269840819e-15 L 9.038591018281078 4.9735688832085405e-15 L 8.972631578947095 4.977912818790718e-15 L 8.906672139613109 4.973568883208565e-15 L 8.843266591964337 4.960705269840867e-15 L 8.784869943238139 4.939820046523757e-15 L 8.733743260495306 4.9117218708006005e-15 L 8.691866124085038 4.877498679410606e-15 L 8.660859980028691 4.838475564331741e-15 L 8.641925359050843 4.796163466380627e-15 " stroke="#191919" stroke-width="0.35 px" style="stroke-width:0.35;stroke-miterlimit:4;stroke-dasharray:none;fill:none;fill-opacity:1;fill-rule: evenodd"/>
<path id="Shape2DView_nwe0067"  d="M 9.303337798844 4.796163466381e-15 L 9.989293780104 4.796163466381e-15 " stroke="#191919" stroke-width="0.35 px" style="stroke-width:0.35;stroke-miterlimit:4;stroke-dasharray:none;fill:none;fill-opacity:1;fill-rule: evenodd"/>
<path id="Shape2DView_nwe0068"  d="M 10.650706219896158 4.796163466380627e-15 L 10.631771598918315 4.838475564331733e-15 L 10.600765454861978 4.877498679410591e-15 L 10.558888318451723 4.911721870800581e-15 L 10.507761635708908 4.9398200465237376e-15 L 10.449364986982726 4.96070526984085e-15 L 10.385959439333972 4.973568883208555e-15 L 10.32 4.977912818790718e-15 L 10.254040560666029 4.973568883208555e-15 L 10.190635013017275 4.96070526984085e-15 L 10.132238364291092 4.9398200465237376e-15 L 10.081111681548277 4.911721870800581e-15 L 10.039234545138022 4.877498679410591e-15 L 10.008228401081686 4.838475564331733e-15 L 9.989293780103843 4.796163466380627e-15 " stroke="#191919" stroke-width="0.35 px" style="stroke-width:0.35;stroke-miterlimit:4;stroke-dasharray:none;fill:none;fill-opacity:1;fill-rule: evenodd"/>
<path id="Shape2DView_nwe0069"  d="M 10.650706219896 4.796163466381e-15 L 11.336662201156 4.796163466381e-15 " stroke="#191919" stroke-width="0.35 px" style="stroke-width:0.35;stroke-miterlimit:4;stroke-dasharray:none;fill:none;fill-opacity:1;fill-rule: evenodd"/>
<path id="Shape2DView_nwe0070"  d="M 11.998074640949158 4.796163466380627e-15 L 11.97914001997131 4.8384755643317414e-15 L 11.948133875914962 4.877498679410606e-15 L 11.906256739504695 4.9117218708006005e-15 L 11.855130056761862 4.939820046523757e-15 L 11.796733408035664 4.960705269840867e-15 L 11.733327860386892 4.973568883208565e-15 L 11.667368421052906 4.977912818790718e-15 L 11.601408981718922 4.9735688832085405e-15 L 11.538003434070163 4.960705269840819e-15 L 11.47960678534398 4.939820046523687e-15 L 11.428480102601172 4.9117218708005105e-15 L 11.386602966190933 4.877498679410501e-15 L 11.35559682213462 4.838475564331624e-15 L 11.336662201156805 4.796163466380503e-15 " stroke="#191919" stroke-width="0.35 px" style="stroke-width:0.35;stroke-miterlimit:4;stroke-dasharray:none;fill:none;fill-opacity:1;fill-rule: evenodd"/>
<path id="Shape2DView_nwe0071"  d="M 11.998074640949 4.796163466381e-15 L 12.684030622209 4.796163466381e-15 " stroke="#191919" stroke-width="0.35 px" style="stroke-width:0.35;stroke-miterlimit:4;stroke-dasharray:none;fill:none;fill-opacity:1;fill-rule: evenodd"/>
<path id="Shape2DView_nwe0072"  d="M 13.345443062001195 4.796163466380503e-15 L 13.32650844102338 4.838475564331624e-15 L 13.295502296967067 4.877498679410501e-15 L 13.25362516055683 4.9117218708005105e-15 L 13.20249847781402 4.939820046523687e-15 L 13.14410182908784 4.960705269840819e-15 L 13.080696281439078 4.9735688832085405e-15 L 13.014736842105096 4.977912818790718e-15 L 12.948777402771109 4.973568883208565e-15 L 12.885371855122337 4.960705269840867e-15 L 12.826975206396138 4.939820046523758e-15 L 12.775848523653305 4.9117218708006005e-15 L 12.733971387243038 4.877498679410607e-15 L 12.702965243186691 4.8384755643317414e-15 L 12.684030622208843 4.796163466380627e-15 " stroke="#191919" stroke-width="0.35 px" style="stroke-width:0.35;stroke-miterlimit:4;stroke-dasharray:none;fill:none;fill-opacity:1;fill-rule: evenodd"/>
<path id="Shape2DView_nwe0073"  d="M 13.345443062002 4.796163466381e-15 L 14.031399043262 4.796163466381e-15 " stroke="#191919" stroke-width="0.35 px" style="stroke-width:0.35;stroke-miterlimit:4;stroke-dasharray:none;fill:none;fill-opacity:1;fill-rule: evenodd"/>
<path id="Shape2DView_nwe0074"  d="M 14.692811483054157 4.796163466380627e-15 L 14.673876862076314 4.838475564331733e-15 L 14.642870718019978 4.877498679410591e-15 L 14.600993581609723 4.911721870800581e-15 L 14.549866898866908 4.9398200465237376e-15 L 14.491470250140726 4.96070526984085e-15 L 14.428064702491971 4.973568883208555e-15 L 14.362105263158 4.977912818790718e-15 L 14.296145823824029 4.973568883208555e-15 L 14.232740276175274 4.96070526984085e-15 L 14.174343627449092 4.9398200465237376e-15 L 14.123216944706277 4.911721870800581e-15 L 14.081339808296022 4.877498679410591e-15 L 14.050333664239687 4.838475564331733e-15 L 14.031399043261843 4.796163466380627e-15 " stroke="#191919" stroke-width="0.35 px" style="stroke-width:0.35;stroke-miterlimit:4;stroke-dasharray:none;fill:none;fill-opacity:1;fill-rule: evenodd"/>
<path id="Shape2DView_nwe0075"  d="M 14.692811483054 4.796163466381e-15 L 15.378767464314 4.796163466381e-15 " stroke="#191919" stroke-width="0.35 px" style="stroke-width:0.35;stroke-miterlimit:4;stroke-dasharray:none;fill:none;fill-opacity:1;fill-rule: evenodd"/>
<path id="Shape2DView_nwe0076"  d="M 16.04017990410716 4.796163466380627e-15 L 16.021245283129307 4.8384755643317414e-15 L 15.990239139072962 4.877498679410606e-15 L 15.948362002662694 4.9117218708006005e-15 L 15.897235319919861 4.939820046523757e-15 L 15.838838671193663 4.960705269840867e-15 L 15.775433123544891 4.973568883208565e-15 L 15.709473684210906 4.977912818790718e-15 L 15.643514244876922 4.9735688832085405e-15 L 15.580108697228162 4.960705269840819e-15 L 15.52171204850198 4.939820046523687e-15 L 15.470585365759172 4.9117218708005105e-15 L 15.428708229348933 4.877498679410501e-15 L 15.39770208529262 4.838475564331624e-15 L 15.378767464314805 4.796163466380503e-15 " stroke="#191919" stroke-width="0.35 px" style="stroke-width:0.35;stroke-miterlimit:4;stroke-dasharray:none;fill:none;fill-opacity:1;fill-rule: evenodd"/>
<path id="Shape2DView_nwe0077"  d="M 16.040179904107 4.796163466381e-15 L 16.96 4.796163466381e-15 " stroke="#191919" stroke-width="0.35 px" style="stroke-width:0.35;stroke-miterlimit:4;stroke-dasharray:none;fill:none;fill-opacity:1;fill-rule: evenodd"/>
<path id="Shape2DView_nwe0078"  d="M 16.959999999999784 4.796163466380878e-15 L 16.988054811445625 4.81207544980397e-15 L 17.01539674815236 4.828528859800726e-15 L 17.042002271369014 4.845509531583746e-15 L 17.067848476325082 4.863002846444461e-15 L 17.092913111949308 4.880993744338422e-15 L 17.11717460002569 4.8994667368505325e-15 L 17.140612053770237 4.9184059205290694e-15 L 17.163205295812443 4.937794990577011e-15 L 17.18493487556607 4.95761725488888e-15 L 17.205782085974185 4.977855648421032e-15 L 17.225728979614136 4.998492747882989e-15 L 17.24475838414853 5.01951078673721e-15 L 17.26285391710896 5.040891670494347e-15 L 17.279999999999696 5.062616992290846e-15 " stroke="#191919" stroke-width="0.35 px" style="stroke-width:0.35;stroke-miterlimit:4;stroke-dasharray:none;fill:none;fill-opacity:1;fill-rule: evenodd"/>
<path id="Shape2DView_nwe0079"  d="M 17.28 5.062616992291e-15 L 17.92 5.062616992291e-15 " stroke="#191919" stroke-width="0.35 px" style="stroke-width:0.35;stroke-miterlimit:4;stroke-dasharray:none;fill:none;fill-opacity:1;fill-rule: evenodd"/>
<path id="Shape2DView_nwe0080"  d="M 18.16000000007864 2.964295475751964e-15 L 18.143888209671616 3.114226940015225e-15 L 18.127617760405258 3.2641508013237613e-15 L 18.111188660364746 3.414066985177139e-15 L 18.094600917713933 3.563975417078749e-15 L 18.07785454069574 3.7138760225358204e-15 L 18.060949537631757 3.863768727059488e-15 L 18.04388591692242 4.0136534561648015e-15 L 18.02666368704712 4.163530135370773e-15 L 18.0092828565638 4.313398690200421e-15 L 17.991743434109537 4.4632590461808e-15 L 17.974045428399904 4.613111128843035e-15 L 17.956188848229544 4.762954863722366e-15 L 17.938173702471715 4.9127901763581785e-15 L 17.920000000078574 5.062616992294041e-15 " stroke="#191919" stroke-width="0.35 px" style="stroke-width:0.35;stroke-miterlimit:4;stroke-dasharray:none;fill:none;fill-opacity:1;fill-rule: evenodd"/>
<path id="Shape2DView_nwe0081"  d="M 2.4000000000007162 -3.7500000000000315 L 2.160000000000821 -0.5999999999999299 " stroke="#191919" stroke-width="0.35 px" style="stroke-width:0.35;stroke-miterlimit:4;stroke-dasharray:none;fill:none;fill-opacity:1;fill-rule: evenodd"/>
<path id="Shape2DView_nwe0082"  d="M 2.4000000000007162 3.750000000000035 L 2.160000000000821 0.5999999999999335 " stroke="#191919" stroke-width="0.35 px" style="stroke-width:0.35;stroke-miterlimit:4;stroke-dasharray:none;fill:none;fill-opacity:1;fill-rule: evenodd"/>
<path id="Shape2DView_nwe0083"  d="M 2.4 -3.7499999999999982 L 3.04 -3.7499999999999982 " stroke="#191919" stroke-width="0.35 px" style="stroke-width:0.35;stroke-miterlimit:4;stroke-dasharray:none;fill:none;fill-opacity:1;fill-rule: evenodd"/>
<path id="Shape2DView_nwe0084"  d="M 2.4 3.7500000000000018 L 3.04 3.7500000000000018 " stroke="#191919" stroke-width="0.35 px" style="stroke-width:0.35;stroke-miterlimit:4;stroke-dasharray:none;fill:none;fill-opacity:1;fill-rule: evenodd"/>
<path id="Shape2DView_nwe0085"  d="M 3.040000000000304 -3.7500000000000724 L 3.238000000000243 -3.3500000000001946 " stroke="#191919" stroke-width="0.35 px" style="stroke-width:0.35;stroke-miterlimit:4;stroke-dasharray:none;fill:none;fill-opacity:1;fill-rule: evenodd"/>
<path id="Shape2DView_nwe0086"  d="M 3.040000000000304 3.750000000000076 L 3.238000000000243 3.350000000000198 " stroke="#191919" stroke-width="0.35 px" style="stroke-width:0.35;stroke-miterlimit:4;stroke-dasharray:none;fill:none;fill-opacity:1;fill-rule: evenodd"/>
<path id="Shape2DView_nwe0087"  d="M 0.7999891965539999 -0.39999999999999875 L 2.16 -0.39999999999999875 " stroke="#191919" stroke-width="0.35 px" style="stroke-width:0.35;stroke-miterlimit:4;stroke-dasharray:none;fill:none;fill-opacity:1;fill-rule: evenodd"/>
<path id="Shape2DView_nwe0088"  d="M 0.7999891965540001 0.4000000000000013 L 2.1600000000000006 0.4000000000000013 " stroke="#191919" stroke-width="0.35 px" style="stroke-width:0.35;stroke-miterlimit:4;stroke-dasharray:none;fill:none;fill-opacity:1;fill-rule: evenodd"/>
<path id="Shape2DView_nwe0089"  d="M 3.238 -3.3499999999999983 L 4.599820095893 -3.3499999999999983 " stroke="#191919" stroke-width="0.35 px" style="stroke-width:0.35;stroke-miterlimit:4;stroke-dasharray:none;fill:none;fill-opacity:1;fill-rule: evenodd"/>
<path id="Shape2DView_nwe0090"  d="M 3.238 3.350000000000002 L 4.599820095893 3.350000000000002 " stroke="#191919" stroke-width="0.35 px" style="stroke-width:0.35;stroke-miterlimit:4;stroke-dasharray:none;fill:none;fill-opacity:1;fill-rule: evenodd"/>
<path id="Shape2DView_nwe0091"  d="M 0.7999891965543676 -0.3999999999999987 Q 0.07112013505398057 -0.39999999999999886 1.27675647831893e-14 -0.3999999999999989 " stroke="#191919" stroke-width="0.35 px" style="stroke-width:0.35;stroke-miterlimit:4;stroke-dasharray:none;fill:none;fill-opacity:1;fill-rule: evenodd"/>
<path id="Shape2DView_nwe0092"  d="M 0.7999891965543676 0.4000000000000013 Q 0.07112013505536646 0.4000000000000013 -1.3655743202889425e-14 0.40000000000000113 " stroke="#191919" stroke-width="0.35 px" style="stroke-width:0.35;stroke-miterlimit:4;stroke-dasharray:none;fill:none;fill-opacity:1;fill-rule: evenodd"/>
<path id="Shape2DView_nwe0093"  d="M 5.261232535685194 3.349999999999846 Q 5.236991553281121 3.409940729686271 5.2127505708770485 3.4698814593726968 Q 5.132934655924636 3.5348114576486633 5.053118740972224 3.599741455924631 Q 4.710596527390505 3.6851883314868346 4.5998200958928415 3.3500000000000316 " stroke="#191919" stroke-width="0.35 px" style="stroke-width:0.35;stroke-miterlimit:4;stroke-dasharray:none;fill:none;fill-opacity:1;fill-rule: evenodd"/>
<path id="Shape2DView_nwe0094"  d="M 5.261232535685194 -3.3499999999998424 Q 5.236991553281121 -3.4099407296862676 5.2127505708770485 -3.469881459372693 Q 5.132934655924636 -3.53481145764866 5.053118740972224 -3.5997414559246272 Q 4.710596527390505 -3.685188331486832 4.5998200958928415 -3.3500000000000285 " stroke="#191919" stroke-width="0.35 px" style="stroke-width:0.35;stroke-miterlimit:4;stroke-dasharray:none;fill:none;fill-opacity:1;fill-rule: evenodd"/>
<path id="Shape2DView_nwe0095"  d="M 5.261232535686 -3.3499999999999983 L 5.947188516946 -3.3499999999999983 " stroke="#191919" stroke-width="0.35 px" style="stroke-width:0.35;stroke-miterlimit:4;stroke-dasharray:none;fill:none;fill-opacity:1;fill-rule: evenodd"/>
<path id="Shape2DView_nwe0096"  d="M 5.261232535686 3.350000000000002 L 5.947188516946 3.350000000000002 " stroke="#191919" stroke-width="0.35 px" style="stroke-width:0.35;stroke-miterlimit:4;stroke-dasharray:none;fill:none;fill-opacity:1;fill-rule: evenodd"/>
<path id="Shape2DView_nwe0097"  d="M 6.608600956738158 3.350000000000032 Q 6.583078002255693 3.4118786571292565 6.557555047773228 3.4737573142584814 Q 6.5000125069642 3.52682898698131 6.442469966155171 3.579900659704139 Q 6.078610118296091 3.7153244517244133 5.947188516945841 3.350000000000033 " stroke="#191919" stroke-width="0.35 px" style="stroke-width:0.35;stroke-miterlimit:4;stroke-dasharray:none;fill:none;fill-opacity:1;fill-rule: evenodd"/>
<path id="Shape2DView_nwe0098"  d="M 6.608600956738158 -3.3500000000000285 Q 6.583078002255694 -3.411878657129253 6.557555047773226 -3.473757314258478 Q 6.5000125069641985 -3.5268289869813065 6.442469966155171 -3.5799006597041356 Q 6.078610118296091 -3.7153244517244093 5.947188516945841 -3.3500000000000294 " stroke="#191919" stroke-width="0.35 px" style="stroke-width:0.35;stroke-miterlimit:4;stroke-dasharray:none;fill:none;fill-opacity:1;fill-rule: evenodd"/>
<path id="Shape2DView_nwe0099"  d="M 6.608600956738 -3.3499999999999983 L 7.294556937997999 -3.3499999999999983 " stroke="#191919" stroke-width="0.35 px" style="stroke-width:0.35;stroke-miterlimit:4;stroke-dasharray:none;fill:none;fill-opacity:1;fill-rule: evenodd"/>
<path id="Shape2DView_nwe0100"  d="M 6.608600956738 3.350000000000002 L 7.294556937997999 3.350000000000002 " stroke="#191919" stroke-width="0.35 px" style="stroke-width:0.35;stroke-miterlimit:4;stroke-dasharray:none;fill:none;fill-opacity:1;fill-rule: evenodd"/>
<path id="Shape2DView_nwe0101"  d="M 7.955969377791158 3.350000000000032 Q 7.972356388430281 3.4902481853941603 7.68077495091989 3.618235975065754 Q 7.379358792194678 3.6400637235268554 7.294556937998807 3.349999999999846 " stroke="#191919" stroke-width="0.35 px" style="stroke-width:0.35;stroke-miterlimit:4;stroke-dasharray:none;fill:none;fill-opacity:1;fill-rule: evenodd"/>
<path id="Shape2DView_nwe0102"  d="M 7.955969377791158 -3.3500000000000285 Q 7.972356388430278 -3.4902481853941563 7.68077495091989 -3.618235975065753 Q 7.3793587921946795 -3.64006372352685 7.294556937998806 -3.349999999999843 " stroke="#191919" stroke-width="0.35 px" style="stroke-width:0.35;stroke-miterlimit:4;stroke-dasharray:none;fill:none;fill-opacity:1;fill-rule: evenodd"/>
<path id="Shape2DView_nwe0103"  d="M 7.955969377791 -3.3499999999999983 L 8.641925359051 -3.3499999999999983 " stroke="#191919" stroke-width="0.35 px" style="stroke-width:0.35;stroke-miterlimit:4;stroke-dasharray:none;fill:none;fill-opacity:1;fill-rule: evenodd"/>
<path id="Shape2DView_nwe0104"  d="M 7.955969377791 3.350000000000002 L 8.641925359051 3.350000000000002 " stroke="#191919" stroke-width="0.35 px" style="stroke-width:0.35;stroke-miterlimit:4;stroke-dasharray:none;fill:none;fill-opacity:1;fill-rule: evenodd"/>
<path id="Shape2DView_nwe0105"  d="M 9.303337798843195 3.3499999999998464 Q 9.277814801913541 3.411878628631226 9.252291804983894 3.473757257262605 Q 9.221426269762933 3.508301258081562 9.19056073454197 3.542845258900518 Q 8.807109876902475 3.756901186116226 8.641925359050841 3.3500000000000325 " stroke="#191919" stroke-width="0.35 px" style="stroke-width:0.35;stroke-miterlimit:4;stroke-dasharray:none;fill:none;fill-opacity:1;fill-rule: evenodd"/>
<path id="Shape2DView_nwe0106"  d="M 9.303337798843195 -3.349999999999843 Q 9.277814801913541 -3.4118786286312215 9.252291804983894 -3.473757257262601 Q 9.221426269762933 -3.5083012580815574 9.190560734541972 -3.5428452589005146 Q 8.807109876902476 -3.756901186116222 8.641925359050843 -3.3500000000000285 " stroke="#191919" stroke-width="0.35 px" style="stroke-width:0.35;stroke-miterlimit:4;stroke-dasharray:none;fill:none;fill-opacity:1;fill-rule: evenodd"/>
<path id="Shape2DView_nwe0107"  d="M 9.303337798844 -3.3499999999999983 L 9.989293780104 -3.3499999999999983 " stroke="#191919" stroke-width="0.35 px" style="stroke-width:0.35;stroke-miterlimit:4;stroke-dasharray:none;fill:none;fill-opacity:1;fill-rule: evenodd"/>
<path id="Shape2DView_nwe0108"  d="M 9.303337798844 3.350000000000002 L 9.989293780104 3.350000000000002 " stroke="#191919" stroke-width="0.35 px" style="stroke-width:0.35;stroke-miterlimit:4;stroke-dasharray:none;fill:none;fill-opacity:1;fill-rule: evenodd"/>
<path id="Shape2DView_nwe0109"  d="M 10.650706219896158 3.3500000000000325 Q 10.625183265413693 3.4118786571292556 10.599660310931228 3.473757314258481 Q 10.5421177701222 3.52682898698131 10.484575229313172 3.579900659704139 Q 10.12071538145409 3.715324451724415 9.989293780103843 3.350000000000032 " stroke="#191919" stroke-width="0.35 px" style="stroke-width:0.35;stroke-miterlimit:4;stroke-dasharray:none;fill:none;fill-opacity:1;fill-rule: evenodd"/>
<path id="Shape2DView_nwe0110"  d="M 10.650706219896158 -3.350000000000029 Q 10.625183265413693 -3.411878657129252 10.599660310931228 -3.4737573142584774 Q 10.5421177701222 -3.526828986981306 10.484575229313172 -3.579900659704136 Q 10.12071538145409 -3.71532445172441 9.989293780103843 -3.350000000000029 " stroke="#191919" stroke-width="0.35 px" style="stroke-width:0.35;stroke-miterlimit:4;stroke-dasharray:none;fill:none;fill-opacity:1;fill-rule: evenodd"/>
<path id="Shape2DView_nwe0111"  d="M 10.650706219896 -3.3499999999999983 L 11.336662201156 -3.3499999999999983 " stroke="#191919" stroke-width="0.35 px" style="stroke-width:0.35;stroke-miterlimit:4;stroke-dasharray:none;fill:none;fill-opacity:1;fill-rule: evenodd"/>
<path id="Shape2DView_nwe0112"  d="M 10.650706219896 3.350000000000002 L 11.336662201156 3.350000000000002 " stroke="#191919" stroke-width="0.35 px" style="stroke-width:0.35;stroke-miterlimit:4;stroke-dasharray:none;fill:none;fill-opacity:1;fill-rule: evenodd"/>
<path id="Shape2DView_nwe0113"  d="M 11.998074640949158 3.3500000000000325 Q 11.97383352303748 3.4099406414005182 11.949592405125806 3.469881282801006 Q 11.890768027745963 3.524890971252587 11.83194365036612 3.5799006597041676 Q 11.46808380250691 3.715324451724385 11.336662201156805 3.3499999999998464 " stroke="#191919" stroke-width="0.35 px" style="stroke-width:0.35;stroke-miterlimit:4;stroke-dasharray:none;fill:none;fill-opacity:1;fill-rule: evenodd"/>
<path id="Shape2DView_nwe0114"  d="M 11.998074640949158 -3.350000000000029 Q 11.973833523037483 -3.4099406414005156 11.949592405125802 -3.4698812828010017 Q 11.89076802774596 -3.5248909712525833 11.83194365036612 -3.579900659704164 Q 11.46808380250691 -3.715324451724382 11.336662201156805 -3.349999999999843 " stroke="#191919" stroke-width="0.35 px" style="stroke-width:0.35;stroke-miterlimit:4;stroke-dasharray:none;fill:none;fill-opacity:1;fill-rule: evenodd"/>
<path id="Shape2DView_nwe0115"  d="M 11.998074640949 -3.3499999999999983 L 12.684030622209 -3.3499999999999983 " stroke="#191919" stroke-width="0.35 px" style="stroke-width:0.35;stroke-miterlimit:4;stroke-dasharray:none;fill:none;fill-opacity:1;fill-rule: evenodd"/>
<path id="Shape2DView_nwe0116"  d="M 11.998074640949 3.350000000000002 L 12.684030622209 3.350000000000002 " stroke="#191919" stroke-width="0.35 px" style="stroke-width:0.35;stroke-miterlimit:4;stroke-dasharray:none;fill:none;fill-opacity:1;fill-rule: evenodd"/>
<path id="Shape2DView_nwe0117"  d="M 13.345443062001195 3.3499999999998464 Q 13.319920062484757 3.4118786268945156 13.294397062968319 3.4737572537891857 Q 13.268751982737303 3.5036826245989516 13.243106902506288 3.5336079954087176 Q 12.857218026237636 3.765636158850082 12.684030622208843 3.3500000000000334 " stroke="#191919" stroke-width="0.35 px" style="stroke-width:0.35;stroke-miterlimit:4;stroke-dasharray:none;fill:none;fill-opacity:1;fill-rule: evenodd"/>
<path id="Shape2DView_nwe0118"  d="M 13.345443062001195 -3.349999999999843 Q 13.319920062484757 -3.411878626894512 13.294397062968319 -3.473757253789182 Q 13.268751982737303 -3.503682624598948 13.243106902506288 -3.533607995408714 Q 12.857218026237636 -3.7656361588500786 12.684030622208843 -3.3500000000000294 " stroke="#191919" stroke-width="0.35 px" style="stroke-width:0.35;stroke-miterlimit:4;stroke-dasharray:none;fill:none;fill-opacity:1;fill-rule: evenodd"/>
<path id="Shape2DView_nwe0119"  d="M 13.345443062002 -3.3499999999999983 L 14.031399043262 -3.3499999999999983 " stroke="#191919" stroke-width="0.35 px" style="stroke-width:0.35;stroke-miterlimit:4;stroke-dasharray:none;fill:none;fill-opacity:1;fill-rule: evenodd"/>
<path id="Shape2DView_nwe0120"  d="M 13.345443062002 3.350000000000002 L 14.031399043262 3.350000000000002 " stroke="#191919" stroke-width="0.35 px" style="stroke-width:0.35;stroke-miterlimit:4;stroke-dasharray:none;fill:none;fill-opacity:1;fill-rule: evenodd"/>
<path id="Shape2DView_nwe0121"  d="M 14.692811483054157 3.3500000000000325 Q 14.667288528571692 3.4118786571292574 14.641765574089227 3.4737573142584814 Q 14.5842230332802 3.52682898698131 14.526680492471172 3.579900659704139 Q 14.162820644612093 3.7153244517244133 14.031399043261843 3.350000000000033 " stroke="#191919" stroke-width="0.35 px" style="stroke-width:0.35;stroke-miterlimit:4;stroke-dasharray:none;fill:none;fill-opacity:1;fill-rule: evenodd"/>
<path id="Shape2DView_nwe0122"  d="M 14.692811483054157 -3.350000000000029 Q 14.667288528571692 -3.411878657129254 14.641765574089227 -3.4737573142584783 Q 14.584223033280196 -3.5268289869813065 14.526680492471172 -3.5799006597041356 Q 14.16282064461209 -3.7153244517244097 14.031399043261843 -3.3500000000000294 " stroke="#191919" stroke-width="0.35 px" style="stroke-width:0.35;stroke-miterlimit:4;stroke-dasharray:none;fill:none;fill-opacity:1;fill-rule: evenodd"/>
<path id="Shape2DView_nwe0123"  d="M 14.692811483054 -3.3499999999999983 L 15.378767464314 -3.3499999999999983 " stroke="#191919" stroke-width="0.35 px" style="stroke-width:0.35;stroke-miterlimit:4;stroke-dasharray:none;fill:none;fill-opacity:1;fill-rule: evenodd"/>
<path id="Shape2DView_nwe0124"  d="M 14.692811483054 3.350000000000002 L 15.378767464314 3.350000000000002 " stroke="#191919" stroke-width="0.35 px" style="stroke-width:0.35;stroke-miterlimit:4;stroke-dasharray:none;fill:none;fill-opacity:1;fill-rule: evenodd"/>
<path id="Shape2DView_nwe0125"  d="M 16.04017990410716 3.3500000000000325 Q 16.015938786195477 3.4099406414005187 15.991697668283802 3.4698812828010057 Q 15.932873290903968 3.5248909712525887 15.87404891352412 3.5799006597041676 Q 15.51018906566491 3.7153244517243844 15.378767464314805 3.3499999999998464 " stroke="#191919" stroke-width="0.35 px" style="stroke-width:0.35;stroke-miterlimit:4;stroke-dasharray:none;fill:none;fill-opacity:1;fill-rule: evenodd"/>
<path id="Shape2DView_nwe0126"  d="M 16.04017990410716 -3.350000000000029 Q 16.015938786195477 -3.409940641400515 15.991697668283802 -3.469881282801002 Q 15.932873290903963 -3.524890971252584 15.87404891352412 -3.579900659704164 Q 15.51018906566491 -3.7153244517243826 15.378767464314805 -3.349999999999843 " stroke="#191919" stroke-width="0.35 px" style="stroke-width:0.35;stroke-miterlimit:4;stroke-dasharray:none;fill:none;fill-opacity:1;fill-rule: evenodd"/>
<path id="Shape2DView_nwe0127"  d="M 16.040179904107 -3.3499999999999983 L 16.96 -3.3499999999999983 " stroke="#191919" stroke-width="0.35 px" style="stroke-width:0.35;stroke-miterlimit:4;stroke-dasharray:none;fill:none;fill-opacity:1;fill-rule: evenodd"/>
<path id="Shape2DView_nwe0128"  d="M 16.040179904107 3.350000000000002 L 16.96 3.350000000000002 " stroke="#191919" stroke-width="0.35 px" style="stroke-width:0.35;stroke-miterlimit:4;stroke-dasharray:none;fill:none;fill-opacity:1;fill-rule: evenodd"/>
<path id="Shape2DView_nwe0129"  d="M 16.959999999999784 -3.3500000000002594 L 17.279999999999696 -3.7500000000001514 " stroke="#191919" stroke-width="0.35 px" style="stroke-width:0.35;stroke-miterlimit:4;stroke-dasharray:none;fill:none;fill-opacity:1;fill-rule: evenodd"/>
<path id="Shape2DView_nwe0130"  d="M 16.959999999999784 3.350000000000263 L 17.279999999999696 3.750000000000155 " stroke="#191919" stroke-width="0.35 px" style="stroke-width:0.35;stroke-miterlimit:4;stroke-dasharray:none;fill:none;fill-opacity:1;fill-rule: evenodd"/>
<path id="Shape2DView_nwe0131"  d="M 17.28 -3.7499999999999982 L 17.92 -3.7499999999999982 " stroke="#191919" stroke-width="0.35 px" style="stroke-width:0.35;stroke-miterlimit:4;stroke-dasharray:none;fill:none;fill-opacity:1;fill-rule: evenodd"/>
<path id="Shape2DView_nwe0132"  d="M 17.28 3.7500000000000018 L 17.92 3.7500000000000018 " stroke="#191919" stroke-width="0.35 px" style="stroke-width:0.35;stroke-miterlimit:4;stroke-dasharray:none;fill:none;fill-opacity:1;fill-rule: evenodd"/>
<path id="Shape2DView_nwe0133"  d="M 18.16000000007864 -0.6000000000056 L 17.920000000078574 -3.7500000000063696 " stroke="#191919" stroke-width="0.35 px" style="stroke-width:0.35;stroke-miterlimit:4;stroke-dasharray:none;fill:none;fill-opacity:1;fill-rule: evenodd"/>
<path id="Shape2DView_nwe0134"  d="M 18.16000000007864 0.6000000000056036 L 17.920000000078574 3.750000000006373 " stroke="#191919" stroke-width="0.35 px" style="stroke-width:0.35;stroke-miterlimit:4;stroke-dasharray:none;fill:none;fill-opacity:1;fill-rule: evenodd"/>
<path id="Shape2DView_nwe0135"  d="M 18.159999999999997 -0.39999999999999875 L 19.519999999999996 -0.39999999999999875 " stroke="#191919" stroke-width="0.35 px" style="stroke-width:0.35;stroke-miterlimit:4;stroke-dasharray:none;fill:none;fill-opacity:1;fill-rule: evenodd"/>
<path id="Shape2DView_nwe0136"  d="M 18.16 0.4000000000000013 L 19.52 0.4000000000000013 " stroke="#191919" stroke-width="0.35 px" style="stroke-width:0.35;stroke-miterlimit:4;stroke-dasharray:none;fill:none;fill-opacity:1;fill-rule: evenodd"/>
<path id="Shape2DView_nwe0137"  d="M 19.5200000000376 0.4000000000000013 Q 20.410758010922443 0.4000000000000013 20.319999998262272 0.40000000000000113 " stroke="#191919" stroke-width="0.35 px" style="stroke-width:0.35;stroke-miterlimit:4;stroke-dasharray:none;fill:none;fill-opacity:1;fill-rule: evenodd"/>
<path id="Shape2DView_nwe0138"  d="M 19.5200000000376 -0.39999999999999875 Q 20.158298358299987 -0.39999999999999875 20.309145527123135 -0.3999999999999989 Q 20.31457276354778 -0.39999999999999886 20.319999999972424 -0.3999999999999989 " stroke="#191919" stroke-width="0.35 px" style="stroke-width:0.35;stroke-miterlimit:4;stroke-dasharray:none;fill:none;fill-opacity:1;fill-rule: evenodd"/>
<path id="Shape2DView_nwe0139"  d="M 20.320000001737785 -0.3999999999999989 C 20.820702867689327 -0.4358928646369121 20.85107838736437 0.41338041228345185 20.319999998262272 0.40000000000000113 " stroke="#191919" stroke-width="0.35 px" style="stroke-width:0.35;stroke-miterlimit:4;stroke-dasharray:none;fill:none;fill-opacity:1;fill-rule: evenodd"/>
<title>b'Shape2DView'</title>
</g>
<g id="Rectangle" transform="translate(0.608254,3.961170) scale(1,-1)">
<rect fill="#ff0000" id="origin" width="1" height="1" x="0" y="0" />
<title>b'Rectangle'</title>
</g>
</svg>