<?xml version="1.0"?>
<!DOCTYPE svg PUBLIC "-//W3C//DTD SVG 1.1//EN" "http://www.w3.org/Graphics/SVG/1.1/DTD/svg11.dtd">
<svg width="12.038812423913441mm" height="7.735281051293082mm" viewBox="0 0 12.038812423913441 7.735281051293082" xmlns="http://www.w3.org/2000/svg" version="1.1">
<g id="Shape2DView" transform="translate(3.852322,3.867641) scale(1,-1)">
<path id="Shape2DView_nwe0000"  d="M 3.722902093797256 -0.449999999999994 A 3.75 3.75 0 1 0 3.7229 0.45" stroke="#191919" stroke-width="0.35 px" style="stroke-width:0.35;stroke-miterlimit:4;stroke-dasharray:none;fill:none;fill-opacity:1;fill-rule: evenodd"/>
<circle cx="0.0" cy="1.071133413956e-14" r="0.45" stroke="#191919" stroke-width="0.35 px" style="stroke-width:0.35;stroke-miterlimit:4;stroke-dasharray:none;fill:none"/>
<path id="Shape2DView_nwe0002"  d="M -1.5360136568323856e-14 0.45000000000000623 A 0.45 0.45 0 0 1 1.43058e-14 -0.45" stroke="#191919" stroke-width="0.35 px" style="stroke-width:0.35;stroke-miterlimit:4;stroke-dasharray:none;fill:none;fill-opacity:1;fill-rule: evenodd"/>
<path id="Shape2DView_nwe0003"  d="M 7.17 6.2501535833696305e-15 A 0.45 0.45 0 0 1 7.62 -0.45" stroke="#191919" stroke-width="0.35 px" style="stroke-width:0.35;stroke-miterlimit:4;stroke-dasharray:none;fill:none;fill-opacity:1;fill-rule: evenodd"/>
<path id="Shape2DView_nwe0004"  d="M 7.620000003071097 -0.4499999999999938 A 0.45 0.45 0 1 1 7.17 6.36037e-15" stroke="#191919" stroke-width="0.35 px" style="stroke-width:0.35;stroke-miterlimit:4;stroke-dasharray:none;fill:none;fill-opacity:1;fill-rule: evenodd"/>
<path id="Shape2DView_nwe0006"  d="M 0.899991017596 -0.4499999999999936 A 0.45 4.4912017776878774e-06 -90.0 0 1 0.899991017596 0.4500000000000064 " stroke="#191919" stroke-width="0.35 px" style="stroke-width:0.35;stroke-miterlimit:4;stroke-dasharray:none;fill:none;fill-opacity:1;fill-rule: evenodd"/>
<path id="Shape2DView_nwe0007"  d="M 6.72 0.4500000000000064 L 6.72 0.43871756048182703 L 6.72 0.4054359905560951 L 6.72 0.3518241671106199 L 6.72 0.2805704108364366 L 6.72 0.19524768260290767 L 6.72 0.10013442028034802 L 6.72 6.549913800018881e-15 L 6.72 -0.10013442028033494 L 6.72 -0.19524768260289463 L 6.72 -0.2805704108364236 L 6.72 -0.35182416711060693 L 6.72 -0.40543599055608215 L 6.72 -0.43871756048181426 L 6.72 -0.4499999999999936 " stroke="#191919" stroke-width="0.35 px" style="stroke-width:0.35;stroke-miterlimit:4;stroke-dasharray:none;fill:none;fill-opacity:1;fill-rule: evenodd"/>
<path id="Shape2DView_nwe0008"  d="M 0.8999910175955551 -0.44999999999999357 Q 0.08001151719920357 -0.4499999999999936 1.432187701766452e-14 -0.4499999999999938 " stroke="#191919" stroke-width="0.35 px" style="stroke-width:0.35;stroke-miterlimit:4;stroke-dasharray:none;fill:none;fill-opacity:1;fill-rule: evenodd"/>
<path id="Shape2DView_nwe0009"  d="M 0.8999910175955551 0.45000000000000645 Q 0.08001419273532462 0.4500000000000064 -1.5432100042289676e-14 0.45000000000000623 " stroke="#191919" stroke-width="0.35 px" style="stroke-width:0.35;stroke-miterlimit:4;stroke-dasharray:none;fill:none;fill-opacity:1;fill-rule: evenodd"/>
<path id="Shape2DView_nwe0010"  d="M 0.8999910175944734 -0.4499999999999936 L 6.72 -0.4499999999999936 " stroke="#191919" stroke-width="0.35 px" style="stroke-width:0.35;stroke-miterlimit:4;stroke-dasharray:none;fill:none;fill-opacity:1;fill-rule: evenodd"/>
<path id="Shape2DView_nwe0011"  d="M 0.8999910175944734 0.4500000000000064 L 6.72 0.4500000000000064 " stroke="#191919" stroke-width="0.35 px" style="stroke-width:0.35;stroke-miterlimit:4;stroke-dasharray:none;fill:none;fill-opacity:1;fill-rule: evenodd"/>
<path id="Shape2DView_nwe0012"  d="M 6.72 0.45000000000000645 Q 7.539912379500617 0.4500000000000124 7.6200000798988485 0.4499999999999991 " stroke="#191919" stroke-width="0.35 px" style="stroke-width:0.35;stroke-miterlimit:4;stroke-dasharray:none;fill:none;fill-opacity:1;fill-rule: evenodd"/>
<path id="Shape2DView_nwe0013"  d="M 6.72 -0.44999999999999357 Q 7.539963713194844 -0.44999999999999374 7.619999999979196 -0.4499999999999938 " stroke="#191919" stroke-width="0.35 px" style="stroke-width:0.35;stroke-miterlimit:4;stroke-dasharray:none;fill:none;fill-opacity:1;fill-rule: evenodd"/>
<path id="Shape2DView_nwe0014"  d="M 7.619999999979196 -0.4499999999999938 L 7.620000003071096 -0.4499999999999938 " stroke="#191919" stroke-width="0.35 px" style="stroke-width:0.35;stroke-miterlimit:4;stroke-dasharray:none;fill:none;fill-opacity:1;fill-rule: evenodd"/>
<title>b'Shape2DView'</title>
</g>
<g id="Rectangle" transform="translate(3.852322,3.867641) scale(1,-1)">
<rect fill="#ff0000" id="origin" width="1" height="1" x="0" y="0" />
<title>b'Rectangle'</title>
</g>
</svg>