<?xml version="1.0"?>
<!DOCTYPE svg PUBLIC "-//W3C//DTD SVG 1.1//EN" "http://www.w3.org/Graphics/SVG/1.1/DTD/svg11.dtd">
<svg width="26.81930674642202mm" height="8.525868759752214mm" viewBox="0 0 26.81930674642202 8.525868759752214" xmlns="http://www.w3.org/2000/svg" version="1.1">
<g id="Shape2DView" transform="translate(0.709653,4.262934) scale(1,-1)">
<path id="Shape2DView_nwe0000"  d="M 3.0 5.3956838996782e-15 L 3.0 -0.4478579044132263 L 3.0 -0.8900837358252529 L 3.0 -1.321116247820664 L 3.0 -1.7355349564702283 L 3.0 -2.1281283060613423 L 3.0 -2.493959207434931 L 3.0 -2.828427124746187 L 3.0 -3.127325929872117 L 3.0 -3.3868967969131343 L 3.0 -3.6038754716096744 L 3.0 -3.775533321233468 L 3.0 -3.8997116487272923 L 3.0 -3.974848839572968 L 3.0 -3.9999999999999982 " stroke="#191919" stroke-width="0.35 px" style="stroke-width:0.35;stroke-miterlimit:4;stroke-dasharray:none;fill:none;fill-opacity:1;fill-rule: evenodd"/>
<path id="Shape2DView_nwe0001"  d="M 3.0 4.000000000000002 L 3.0 3.974848839572972 L 3.0 3.8997116487272963 L 3.0 3.7755333212334725 L 3.0 3.6038754716096784 L 3.0 3.3868967969131387 L 3.0 3.1273259298721214 L 3.0 2.8284271247461925 L 3.0 2.4939592074349366 L 3.0 2.128128306061349 L 3.0 1.7355349564702351 L 3.0 1.321116247820671 L 3.0 0.8900837358252603 L 3.0 0.44785790441323425 L 3.0 6.375401338996083e-15 " stroke="#191919" stroke-width="0.35 px" style="stroke-width:0.35;stroke-miterlimit:4;stroke-dasharray:none;fill:none;fill-opacity:1;fill-rule: evenodd"/>
<path id="Shape2DView_nwe0002"  d="M 2.7 3.18078896555065e-15 L 2.7 -0.07557602136972974 L 2.7 -0.15020163042050924 L 2.7 -0.22293836681973495 L 2.7 -0.292871523904349 L 2.7 -0.3591216516478496 L 2.7 -0.4208556162546427 L 2.7 -0.47729707730091725 L 2.7 -0.5277362506659179 L 2.7 -0.5715388344790897 L 2.7 -0.608153985834131 L 2.7 -0.6371212479581463 L 2.7 -0.6580763407227291 L 2.7 -0.6707557416779371 L 2.7 -0.6749999999999983 " stroke="#191919" stroke-width="0.35 px" style="stroke-width:0.35;stroke-miterlimit:4;stroke-dasharray:none;fill:none;fill-opacity:1;fill-rule: evenodd"/>
<path id="Shape2DView_nwe0003"  d="M 2.7 0.6750000000000018 L 2.7 0.6707557416779405 L 2.7 0.6580763407227327 L 2.7 0.6371212479581498 L 2.7 0.6081539858341345 L 2.7 0.5715388344790936 L 2.7 0.5277362506659218 L 2.7 0.47729707730092125 L 2.7 0.42085561625464674 L 2.7 0.35912165164785376 L 2.7 0.2928715239043533 L 2.7 0.22293836681973933 L 2.7 0.1502016304205138 L 2.7 0.07557602136973435 L 2.7 3.3461162834355428e-15 " stroke="#191919" stroke-width="0.35 px" style="stroke-width:0.35;stroke-miterlimit:4;stroke-dasharray:none;fill:none;fill-opacity:1;fill-rule: evenodd"/>
<path id="Shape2DView_nwe0004"  d="M 3.8 5.3956838996782e-15 L 3.8 -0.4478579044132263 L 3.8 -0.8900837358252529 L 3.8 -1.321116247820664 L 3.8 -1.7355349564702283 L 3.8 -2.1281283060613423 L 3.8 -2.493959207434931 L 3.8 -2.828427124746187 L 3.8 -3.127325929872117 L 3.8 -3.3868967969131343 L 3.8 -3.6038754716096744 L 3.8 -3.775533321233468 L 3.8 -3.8997116487272923 L 3.8 -3.974848839572968 L 3.8 -3.9999999999999982 " stroke="#191919" stroke-width="0.35 px" style="stroke-width:0.35;stroke-miterlimit:4;stroke-dasharray:none;fill:none;fill-opacity:1;fill-rule: evenodd"/>
<path id="Shape2DView_nwe0005"  d="M 3.8 4.000000000000002 L 3.8 3.974848839572972 L 3.8 3.8997116487272963 L 3.8 3.7755333212334725 L 3.8 3.6038754716096784 L 3.8 3.3868967969131387 L 3.8 3.1273259298721214 L 3.8 2.8284271247461925 L 3.8 2.4939592074349366 L 3.8 2.128128306061349 L 3.8 1.7355349564702351 L 3.8 1.321116247820671 L 3.8 0.8900837358252603 L 3.8 0.44785790441323425 L 3.8 6.375401338996083e-15 " stroke="#191919" stroke-width="0.35 px" style="stroke-width:0.35;stroke-miterlimit:4;stroke-dasharray:none;fill:none;fill-opacity:1;fill-rule: evenodd"/>
<path id="Shape2DView_nwe0006"  d="M 3.998 5.0626169922903e-15 L 3.998 -0.39187566636157267 L 3.998 -0.778823268847096 L 3.998 -1.1559767168430806 L 3.998 -1.5185930869114495 L 3.998 -1.8621122678036743 L 3.998 -2.182214306505564 L 3.998 -2.4748737341529137 L 3.998 -2.736410188638102 L 3.998 -2.963534697298992 L 3.998 -3.153391037658465 L 3.998 -3.3035916560792846 L 3.998 -3.4122476926363805 L 3.998 -3.477992734626347 L 3.998 -3.4999999999999982 " stroke="#191919" stroke-width="0.35 px" style="stroke-width:0.35;stroke-miterlimit:4;stroke-dasharray:none;fill:none;fill-opacity:1;fill-rule: evenodd"/>
<path id="Shape2DView_nwe0007"  d="M 3.998 3.5000000000000018 L 3.998 3.477992734626351 L 3.998 3.4122476926363845 L 3.998 3.3035916560792886 L 3.998 3.153391037658469 L 3.998 2.963534697298997 L 3.998 2.7364101886381067 L 3.998 2.4748737341529186 L 3.998 2.18221430650557 L 3.998 1.8621122678036806 L 3.998 1.518593086911456 L 3.998 1.1559767168430877 L 3.998 0.7788232688471031 L 3.998 0.39187566636158033 L 3.998 5.9198697516934474e-15 " stroke="#191919" stroke-width="0.35 px" style="stroke-width:0.35;stroke-miterlimit:4;stroke-dasharray:none;fill:none;fill-opacity:1;fill-rule: evenodd"/>
<path id="Shape2DView_nwe0008"  d="M 5.749775119866 5.773159728051e-15 C 5.749775119865996 1.8702264618526814 5.749775119866002 3.5482270550574126 5.749775119866 3.499999999478371 " stroke="#191919" stroke-width="0.35 px" style="stroke-width:0.35;stroke-miterlimit:4;stroke-dasharray:none;fill:none;fill-opacity:1;fill-rule: evenodd"/>
<path id="Shape2DView_nwe0009"  d="M 5.749775119865998 -3.49999999999984 C 5.749775119866001 -3.548227134539139 5.749775119865999 -1.8702293695022851 5.749775119866 5.773159728050814e-15 " stroke="#191919" stroke-width="0.35 px" style="stroke-width:0.35;stroke-miterlimit:4;stroke-dasharray:none;fill:none;fill-opacity:1;fill-rule: evenodd"/>
<path id="Shape2DView_nwe0010"  d="M -1.5360136568323856e-14 0.4500000000000012 A 0.45 0.45 0 0 1 1.43058e-14 -0.45" stroke="#191919" stroke-width="0.35 px" style="stroke-width:0.35;stroke-miterlimit:4;stroke-dasharray:none;fill:none;fill-opacity:1;fill-rule: evenodd"/>
<path id="Shape2DView_nwe0011"  d="M 6.576540669607 5.773159728051e-15 C 6.576540669606995 1.8702264618559745 6.576540669607001 3.5482270550491326 6.5765406696070015 3.499999999478371 " stroke="#191919" stroke-width="0.35 px" style="stroke-width:0.35;stroke-miterlimit:4;stroke-dasharray:none;fill:none;fill-opacity:1;fill-rule: evenodd"/>
<path id="Shape2DView_nwe0012"  d="M 6.576540669607 -3.49999999999984 C 6.576540669607 -3.5482271345370675 6.576540669606997 -1.870229369514351 6.576540669607 5.329070518200751e-15 " stroke="#191919" stroke-width="0.35 px" style="stroke-width:0.35;stroke-miterlimit:4;stroke-dasharray:none;fill:none;fill-opacity:1;fill-rule: evenodd"/>
<path id="Shape2DView_nwe0013"  d="M 7.433985646182 5.773159728051e-15 C 7.433985646181995 1.8702264618525335 7.433985646182002 3.5482270550574606 7.433985646182 3.499999999478371 " stroke="#191919" stroke-width="0.35 px" style="stroke-width:0.35;stroke-miterlimit:4;stroke-dasharray:none;fill:none;fill-opacity:1;fill-rule: evenodd"/>
<path id="Shape2DView_nwe0014"  d="M 7.433985646182 -3.49999999999984 C 7.433985646181998 -3.548227134539139 7.433985646182001 -1.8702293695022851 7.433985646182 5.773159728050814e-15 " stroke="#191919" stroke-width="0.35 px" style="stroke-width:0.35;stroke-miterlimit:4;stroke-dasharray:none;fill:none;fill-opacity:1;fill-rule: evenodd"/>
<path id="Shape2DView_nwe0015"  d="M 8.260751195923 5.773159728051e-15 C 8.260751195922996 1.8702264618525346 8.260751195923 3.548227055057462 8.260751195923 3.499999999478371 " stroke="#191919" stroke-width="0.35 px" style="stroke-width:0.35;stroke-miterlimit:4;stroke-dasharray:none;fill:none;fill-opacity:1;fill-rule: evenodd"/>
<path id="Shape2DView_nwe0016"  d="M 8.260751195923 -3.49999999999984 C 8.260751195922996 -3.548227134539139 8.260751195923003 -1.8702293695022851 8.260751195923 5.773159728050814e-15 " stroke="#191919" stroke-width="0.35 px" style="stroke-width:0.35;stroke-miterlimit:4;stroke-dasharray:none;fill:none;fill-opacity:1;fill-rule: evenodd"/>
<path id="Shape2DView_nwe0017"  d="M 9.118196172498 5.773159728051e-15 C 9.118196172497994 1.870226461853024 9.118196172498003 3.5482270550572568 9.118196172498 3.499999999478371 " stroke="#191919" stroke-width="0.35 px" style="stroke-width:0.35;stroke-miterlimit:4;stroke-dasharray:none;fill:none;fill-opacity:1;fill-rule: evenodd"/>
<path id="Shape2DView_nwe0018"  d="M 9.118196172498 -3.49999999999984 C 9.118196172497994 -3.548227134539139 9.118196172498003 -1.8702293695022851 9.118196172498 5.773159728050814e-15 " stroke="#191919" stroke-width="0.35 px" style="stroke-width:0.35;stroke-miterlimit:4;stroke-dasharray:none;fill:none;fill-opacity:1;fill-rule: evenodd"/>
<path id="Shape2DView_nwe0019"  d="M 9.944961722239 5.773159728051e-15 C 9.944961722238995 1.8702264618526816 9.944961722239 3.548227055057414 9.944961722239 3.499999999478371 " stroke="#191919" stroke-width="0.35 px" style="stroke-width:0.35;stroke-miterlimit:4;stroke-dasharray:none;fill:none;fill-opacity:1;fill-rule: evenodd"/>
<path id="Shape2DView_nwe0020"  d="M 9.944961722239 -3.49999999999984 C 9.944961722238997 -3.548227134539139 9.944961722238997 -1.8702293695022851 9.944961722239 5.773159728050814e-15 " stroke="#191919" stroke-width="0.35 px" style="stroke-width:0.35;stroke-miterlimit:4;stroke-dasharray:none;fill:none;fill-opacity:1;fill-rule: evenodd"/>
<path id="Shape2DView_nwe0021"  d="M 10.802406698814 5.773159728051e-15 C 10.802406698813995 1.870226461852037 10.802406698814 3.548227055057719 10.802406698814 3.499999999478371 " stroke="#191919" stroke-width="0.35 px" style="stroke-width:0.35;stroke-miterlimit:4;stroke-dasharray:none;fill:none;fill-opacity:1;fill-rule: evenodd"/>
<path id="Shape2DView_nwe0022"  d="M 10.802406698814 -3.49999999999984 C 10.802406698813995 -3.5482271345370675 10.802406698814 -1.870229369514351 10.802406698814 5.329070518200751e-15 " stroke="#191919" stroke-width="0.35 px" style="stroke-width:0.35;stroke-miterlimit:4;stroke-dasharray:none;fill:none;fill-opacity:1;fill-rule: evenodd"/>
<path id="Shape2DView_nwe0023"  d="M 11.629172248555 5.773159728051e-15 C 11.629172248554994 1.870226461851889 11.629172248555 3.5482270550577684 11.629172248555003 3.499999999478371 " stroke="#191919" stroke-width="0.35 px" style="stroke-width:0.35;stroke-miterlimit:4;stroke-dasharray:none;fill:none;fill-opacity:1;fill-rule: evenodd"/>
<path id="Shape2DView_nwe0024"  d="M 11.629172248555 -3.49999999999984 C 11.629172248554998 -3.548227134539139 11.629172248555 -1.8702293695022851 11.629172248555 5.773159728050814e-15 " stroke="#191919" stroke-width="0.35 px" style="stroke-width:0.35;stroke-miterlimit:4;stroke-dasharray:none;fill:none;fill-opacity:1;fill-rule: evenodd"/>
<path id="Shape2DView_nwe0025"  d="M 12.48661722513 5.773159728051e-15 C 12.486617225129999 1.8702264618526814 12.48661722513 3.5482270550574126 12.48661722513 3.499999999478371 " stroke="#191919" stroke-width="0.35 px" style="stroke-width:0.35;stroke-miterlimit:4;stroke-dasharray:none;fill:none;fill-opacity:1;fill-rule: evenodd"/>
<path id="Shape2DView_nwe0026"  d="M 12.486617225129995 -3.49999999999984 C 12.486617225130006 -3.548227134539139 12.486617225129999 -1.8702293695022851 12.48661722513 5.773159728050814e-15 " stroke="#191919" stroke-width="0.35 px" style="stroke-width:0.35;stroke-miterlimit:4;stroke-dasharray:none;fill:none;fill-opacity:1;fill-rule: evenodd"/>
<path id="Shape2DView_nwe0027"  d="M 13.31338277487 5.773159728051e-15 C 13.313382774869996 1.8702264618520368 13.313382774869998 3.5482270550577204 13.31338277487 3.499999999478371 " stroke="#191919" stroke-width="0.35 px" style="stroke-width:0.35;stroke-miterlimit:4;stroke-dasharray:none;fill:none;fill-opacity:1;fill-rule: evenodd"/>
<path id="Shape2DView_nwe0028"  d="M 13.31338277487 -3.49999999999984 C 13.313382774869993 -3.548227134539139 13.313382774870002 -1.8702293695022851 13.31338277487 5.773159728050814e-15 " stroke="#191919" stroke-width="0.35 px" style="stroke-width:0.35;stroke-miterlimit:4;stroke-dasharray:none;fill:none;fill-opacity:1;fill-rule: evenodd"/>
<path id="Shape2DView_nwe0029"  d="M 14.170827751445 5.773159728051e-15 C 14.170827751444998 1.8702264618525335 14.170827751444996 3.5482270550574606 14.170827751445 3.499999999478371 " stroke="#191919" stroke-width="0.35 px" style="stroke-width:0.35;stroke-miterlimit:4;stroke-dasharray:none;fill:none;fill-opacity:1;fill-rule: evenodd"/>
<path id="Shape2DView_nwe0030"  d="M 14.170827751445 -3.49999999999984 C 14.170827751444994 -3.548227134539139 14.170827751445 -1.8702293695022851 14.170827751445 5.773159728050814e-15 " stroke="#191919" stroke-width="0.35 px" style="stroke-width:0.35;stroke-miterlimit:4;stroke-dasharray:none;fill:none;fill-opacity:1;fill-rule: evenodd"/>
<path id="Shape2DView_nwe0031"  d="M 14.997593301186 5.773159728051e-15 C 14.997593301185992 1.8702264618556323 14.997593301186004 3.548227055049287 14.997593301186 3.499999999478371 " stroke="#191919" stroke-width="0.35 px" style="stroke-width:0.35;stroke-miterlimit:4;stroke-dasharray:none;fill:none;fill-opacity:1;fill-rule: evenodd"/>
<path id="Shape2DView_nwe0032"  d="M 14.997593301186 -3.49999999999984 C 14.997593301185999 -3.548227134539139 14.997593301186 -1.8702293695022851 14.997593301186 5.773159728050814e-15 " stroke="#191919" stroke-width="0.35 px" style="stroke-width:0.35;stroke-miterlimit:4;stroke-dasharray:none;fill:none;fill-opacity:1;fill-rule: evenodd"/>
<path id="Shape2DView_nwe0033"  d="M 15.855038277761 5.773159728051e-15 C 15.855038277760993 1.8702264618557798 15.855038277761004 3.548227055049239 15.855038277761 3.499999999478371 " stroke="#191919" stroke-width="0.35 px" style="stroke-width:0.35;stroke-miterlimit:4;stroke-dasharray:none;fill:none;fill-opacity:1;fill-rule: evenodd"/>
<path id="Shape2DView_nwe0034"  d="M 15.855038277761 -3.49999999999984 C 15.855038277760997 -3.5482271345370675 15.855038277761002 -1.870229369514351 15.855038277761 5.329070518200751e-15 " stroke="#191919" stroke-width="0.35 px" style="stroke-width:0.35;stroke-miterlimit:4;stroke-dasharray:none;fill:none;fill-opacity:1;fill-rule: evenodd"/>
<path id="Shape2DView_nwe0035"  d="M 16.681803827502 5.773159728051e-15 C 16.681803827501994 1.8702264618557787 16.681803827502 3.5482270550492405 16.681803827502 3.4999999994783706 " stroke="#191919" stroke-width="0.35 px" style="stroke-width:0.35;stroke-miterlimit:4;stroke-dasharray:none;fill:none;fill-opacity:1;fill-rule: evenodd"/>
<path id="Shape2DView_nwe0036"  d="M 16.681803827502 -3.49999999999984 C 16.681803827501994 -3.548227134539139 16.681803827502005 -1.8702293695022851 16.681803827502 5.773159728050814e-15 " stroke="#191919" stroke-width="0.35 px" style="stroke-width:0.35;stroke-miterlimit:4;stroke-dasharray:none;fill:none;fill-opacity:1;fill-rule: evenodd"/>
<path id="Shape2DView_nwe0037"  d="M 17.539248804077 5.773159728051e-15 C 17.53924880407699 1.8702264618557798 17.539248804077 3.548227055049239 17.539248804077 3.499999999478371 " stroke="#191919" stroke-width="0.35 px" style="stroke-width:0.35;stroke-miterlimit:4;stroke-dasharray:none;fill:none;fill-opacity:1;fill-rule: evenodd"/>
<path id="Shape2DView_nwe0038"  d="M 17.539248804077 -3.49999999999984 C 17.539248804076994 -3.548227134539139 17.539248804076998 -1.8702293695022851 17.539248804077 5.773159728050814e-15 " stroke="#191919" stroke-width="0.35 px" style="stroke-width:0.35;stroke-miterlimit:4;stroke-dasharray:none;fill:none;fill-opacity:1;fill-rule: evenodd"/>
<path id="Shape2DView_nwe0039"  d="M 18.366014353818 5.773159728051e-15 C 18.366014353817985 1.8702264618525346 18.366014353818002 3.548227055057462 18.366014353818 3.499999999478371 " stroke="#191919" stroke-width="0.35 px" style="stroke-width:0.35;stroke-miterlimit:4;stroke-dasharray:none;fill:none;fill-opacity:1;fill-rule: evenodd"/>
<path id="Shape2DView_nwe0040"  d="M 18.366014353817988 -3.49999999999984 C 18.366014353818002 -3.548227134539139 18.36601435381799 -1.8702293695022851 18.366014353818 5.773159728050814e-15 " stroke="#191919" stroke-width="0.35 px" style="stroke-width:0.35;stroke-miterlimit:4;stroke-dasharray:none;fill:none;fill-opacity:1;fill-rule: evenodd"/>
<path id="Shape2DView_nwe0041"  d="M 19.223459330393 5.773159728051e-15 C 19.223459330392988 1.8702264618526814 19.223459330393005 3.5482270550574126 19.223459330393 3.499999999478371 " stroke="#191919" stroke-width="0.35 px" style="stroke-width:0.35;stroke-miterlimit:4;stroke-dasharray:none;fill:none;fill-opacity:1;fill-rule: evenodd"/>
<path id="Shape2DView_nwe0042"  d="M 19.223459330393 -3.49999999999984 C 19.22345933039299 -3.5482271345370675 19.223459330393002 -1.870229369514351 19.223459330393 5.329070518200751e-15 " stroke="#191919" stroke-width="0.35 px" style="stroke-width:0.35;stroke-miterlimit:4;stroke-dasharray:none;fill:none;fill-opacity:1;fill-rule: evenodd"/>
<path id="Shape2DView_nwe0043"  d="M 20.050224880134 5.773159728051e-15 C 20.050224880133996 1.8702264618556323 20.050224880133996 3.548227055049287 20.050224880134 3.499999999478371 " stroke="#191919" stroke-width="0.35 px" style="stroke-width:0.35;stroke-miterlimit:4;stroke-dasharray:none;fill:none;fill-opacity:1;fill-rule: evenodd"/>
<path id="Shape2DView_nwe0044"  d="M 20.050224880134 -3.49999999999984 C 20.050224880133992 -3.548227134539139 20.050224880134003 -1.8702293695022851 20.050224880134 5.773159728050814e-15 " stroke="#191919" stroke-width="0.35 px" style="stroke-width:0.35;stroke-miterlimit:4;stroke-dasharray:none;fill:none;fill-opacity:1;fill-rule: evenodd"/>
<path id="Shape2DView_nwe0045"  d="M 21.2 5.0626169922903e-15 L 21.2 -0.39187566636157267 L 21.2 -0.778823268847096 L 21.2 -1.1559767168430806 L 21.2 -1.5185930869114495 L 21.2 -1.8621122678036743 L 21.2 -2.182214306505564 L 21.2 -2.4748737341529137 L 21.2 -2.736410188638102 L 21.2 -2.963534697298992 L 21.2 -3.153391037658465 L 21.2 -3.3035916560792846 L 21.2 -3.4122476926363805 L 21.2 -3.477992734626347 L 21.2 -3.4999999999999982 " stroke="#191919" stroke-width="0.35 px" style="stroke-width:0.35;stroke-miterlimit:4;stroke-dasharray:none;fill:none;fill-opacity:1;fill-rule: evenodd"/>
<path id="Shape2DView_nwe0046"  d="M 21.2 3.5000000000000018 L 21.2 3.477992734626351 L 21.2 3.4122476926363845 L 21.2 3.3035916560792886 L 21.2 3.153391037658469 L 21.2 2.963534697298997 L 21.2 2.7364101886381067 L 21.2 2.4748737341529186 L 21.2 2.18221430650557 L 21.2 1.8621122678036806 L 21.2 1.518593086911456 L 21.2 1.1559767168430877 L 21.2 0.7788232688471031 L 21.2 0.39187566636158033 L 21.2 5.9198697516934474e-15 " stroke="#191919" stroke-width="0.35 px" style="stroke-width:0.35;stroke-miterlimit:4;stroke-dasharray:none;fill:none;fill-opacity:1;fill-rule: evenodd"/>
<path id="Shape2DView_nwe0047"  d="M 21.6 5.3956838996782e-15 L 21.6 -0.4478579044132263 L 21.6 -0.8900837358252529 L 21.6 -1.321116247820664 L 21.6 -1.7355349564702283 L 21.6 -2.1281283060613423 L 21.6 -2.493959207434931 L 21.6 -2.828427124746187 L 21.6 -3.127325929872117 L 21.6 -3.3868967969131343 L 21.6 -3.6038754716096744 L 21.6 -3.775533321233468 L 21.6 -3.8997116487272923 L 21.6 -3.974848839572968 L 21.6 -3.9999999999999982 " stroke="#191919" stroke-width="0.35 px" style="stroke-width:0.35;stroke-miterlimit:4;stroke-dasharray:none;fill:none;fill-opacity:1;fill-rule: evenodd"/>
<path id="Shape2DView_nwe0048"  d="M 21.6 4.000000000000002 L 21.6 3.974848839572972 L 21.6 3.8997116487272963 L 21.6 3.7755333212334725 L 21.6 3.6038754716096784 L 21.6 3.3868967969131387 L 21.6 3.1273259298721214 L 21.6 2.8284271247461925 L 21.6 2.4939592074349366 L 21.6 2.128128306061349 L 21.6 1.7355349564702351 L 21.6 1.321116247820671 L 21.6 0.8900837358252603 L 21.6 0.44785790441323425 L 21.6 6.375401338996083e-15 " stroke="#191919" stroke-width="0.35 px" style="stroke-width:0.35;stroke-miterlimit:4;stroke-dasharray:none;fill:none;fill-opacity:1;fill-rule: evenodd"/>
<path id="Shape2DView_nwe0049"  d="M 22.4 5.3956838996782e-15 L 22.4 -0.4478579044132263 L 22.4 -0.8900837358252529 L 22.4 -1.321116247820664 L 22.4 -1.7355349564702283 L 22.4 -2.1281283060613423 L 22.4 -2.493959207434931 L 22.4 -2.828427124746187 L 22.4 -3.127325929872117 L 22.4 -3.3868967969131343 L 22.4 -3.6038754716096744 L 22.4 -3.775533321233468 L 22.4 -3.8997116487272923 L 22.4 -3.974848839572968 L 22.4 -3.9999999999999982 " stroke="#191919" stroke-width="0.35 px" style="stroke-width:0.35;stroke-miterlimit:4;stroke-dasharray:none;fill:none;fill-opacity:1;fill-rule: evenodd"/>
<path id="Shape2DView_nwe0050"  d="M 22.4 4.000000000000002 L 22.4 3.974848839572972 L 22.4 3.8997116487272963 L 22.4 3.7755333212334725 L 22.4 3.6038754716096784 L 22.4 3.3868967969131387 L 22.4 3.1273259298721214 L 22.4 2.8284271247461925 L 22.4 2.4939592074349366 L 22.4 2.128128306061349 L 22.4 1.7355349564702351 L 22.4 1.321116247820671 L 22.4 0.8900837358252603 L 22.4 0.44785790441323425 L 22.4 6.375401338996083e-15 " stroke="#191919" stroke-width="0.35 px" style="stroke-width:0.35;stroke-miterlimit:4;stroke-dasharray:none;fill:none;fill-opacity:1;fill-rule: evenodd"/>
<path id="Shape2DView_nwe0051"  d="M 22.7 3.18078896555065e-15 L 22.7 -0.07557602136972974 L 22.7 -0.15020163042050924 L 22.7 -0.22293836681973495 L 22.7 -0.292871523904349 L 22.7 -0.3591216516478496 L 22.7 -0.4208556162546427 L 22.7 -0.47729707730091725 L 22.7 -0.5277362506659179 L 22.7 -0.5715388344790897 L 22.7 -0.608153985834131 L 22.7 -0.6371212479581463 L 22.7 -0.6580763407227291 L 22.7 -0.6707557416779371 L 22.7 -0.6749999999999983 " stroke="#191919" stroke-width="0.35 px" style="stroke-width:0.35;stroke-miterlimit:4;stroke-dasharray:none;fill:none;fill-opacity:1;fill-rule: evenodd"/>
<path id="Shape2DView_nwe0052"  d="M 22.7 0.6750000000000018 L 22.7 0.6707557416779405 L 22.7 0.6580763407227327 L 22.7 0.6371212479581498 L 22.7 0.6081539858341345 L 22.7 0.5715388344790936 L 22.7 0.5277362506659218 L 22.7 0.47729707730092125 L 22.7 0.42085561625464674 L 22.7 0.35912165164785376 L 22.7 0.2928715239043533 L 22.7 0.22293836681973933 L 22.7 0.1502016304205138 L 22.7 0.07557602136973435 L 22.7 3.3461162834355428e-15 " stroke="#191919" stroke-width="0.35 px" style="stroke-width:0.35;stroke-miterlimit:4;stroke-dasharray:none;fill:none;fill-opacity:1;fill-rule: evenodd"/>
<path id="Shape2DView_nwe0053"  d="M 25.399999999999984 -0.44999999999999885 A 0.45 0.45 0 0 1 25.4 0.45" stroke="#191919" stroke-width="0.35 px" style="stroke-width:0.35;stroke-miterlimit:4;stroke-dasharray:none;fill:none;fill-opacity:1;fill-rule: evenodd"/>
<path id="Shape2DView_nwe0054"  d="M 0.9000079267170004 -0.4499999999999987 A 0.45 3.963358519243601e-06 90.0 0 0 0.9000079267170004 0.45000000000000134 " stroke="#191919" stroke-width="0.35 px" style="stroke-width:0.35;stroke-miterlimit:4;stroke-dasharray:none;fill:none;fill-opacity:1;fill-rule: evenodd"/>
<path id="Shape2DView_nwe0055"  d="M 24.5 0.45000000000000134 L 24.5 0.438717560481822 L 24.5 0.40543599055609003 L 24.5 0.35182416711061487 L 24.5 0.2805704108364315 L 24.5 0.19524768260290265 L 24.5 0.10013442028034299 L 24.5 1.5095012682208808e-15 L 24.5 -0.10013442028033998 L 24.5 -0.19524768260289965 L 24.5 -0.28057041083642864 L 24.5 -0.351824167110612 L 24.5 -0.4054359905560872 L 24.5 -0.4387175604818193 L 24.5 -0.4499999999999987 " stroke="#191919" stroke-width="0.35 px" style="stroke-width:0.35;stroke-miterlimit:4;stroke-dasharray:none;fill:none;fill-opacity:1;fill-rule: evenodd"/>
<path id="Shape2DView_nwe0056"  d="M 3.0000000000044054 5.395683899675512e-15 L 2.977005247223815 5.2375733846764335e-15 L 2.9542513544353426 5.079447408096856e-15 L 2.931738345067515 4.9213061327506564e-15 L 2.9094662423007662 4.763149721467475e-15 L 2.8874350690674078 4.604978337092515e-15 L 2.865644848051886 4.446792142486429e-15 L 2.844095601690384 4.288591300525095e-15 L 2.8227873521709625 4.130375974099479e-15 L 2.8017201214336467 3.972146326115459e-15 L 2.7808939311701977 3.813902519493664e-15 L 2.7603088028242553 3.655644717169302e-15 L 2.7399647575912525 3.497373082091984e-15 L 2.71986181641833 3.33908777722557e-15 L 2.700000000004451 3.180788965548335e-15 " stroke="#191919" stroke-width="0.35 px" style="stroke-width:0.35;stroke-miterlimit:4;stroke-dasharray:none;fill:none;fill-opacity:1;fill-rule: evenodd"/>
<path id="Shape2DView_nwe0057"  d="M 3.0 5.395683899678e-15 L 3.8 5.395683899678e-15 " stroke="#191919" stroke-width="0.35 px" style="stroke-width:0.35;stroke-miterlimit:4;stroke-dasharray:none;fill:none;fill-opacity:1;fill-rule: evenodd"/>
<path id="Shape2DView_nwe0058"  d="M 3.7999999999995877 5.39568389967835e-15 L 3.806528411266414 5.370251561602469e-15 L 3.8142732289315835 5.344971140622128e-15 L 3.823226546095888 5.319868446220424e-15 L 3.8333792220694547 5.294969106434465e-15 L 3.844720891703729 5.2702985416909864e-15 L 3.8572399759735463 5.245881938853937e-15 L 3.870923693798474 5.221744225510511e-15 L 3.8857580750913763 5.197910044521881e-15 L 3.9017279750208598 5.174403728864618e-15 L 3.918817089473056 5.15124927678848e-15 L 3.9370079716969393 5.128470327315936e-15 L 3.956282050116202 5.106090136108428e-15 L 3.9766196472894917 5.084131551724022e-15 L 3.997999999999656 5.062616992290685e-15 " stroke="#191919" stroke-width="0.35 px" style="stroke-width:0.35;stroke-miterlimit:4;stroke-dasharray:none;fill:none;fill-opacity:1;fill-rule: evenodd"/>
<path id="Shape2DView_nwe0059"  d="M 3.998 5.062616992291e-15 L 5.749775119866 5.062616992291e-15 " stroke="#191919" stroke-width="0.35 px" style="stroke-width:0.35;stroke-miterlimit:4;stroke-dasharray:none;fill:none;fill-opacity:1;fill-rule: evenodd"/>
<path id="Shape2DView_nwe0060"  d="M 6.576540669607443 5.062616992291066e-15 L 6.552872393385118 5.115507114729987e-15 L 6.514114713314665 5.164286008578596e-15 L 6.461768292801803 5.2070649978161125e-15 L 6.3978599393732285 5.24218771747008e-15 L 6.324864128465441 5.2682942466164836e-15 L 6.2456071939044335 5.284373763326117e-15 L 6.163157894736905 5.289803682803815e-15 L 6.08070859556938 5.284373763326093e-15 L 6.001451661008384 5.268294246616435e-15 L 5.928455850100614 5.24218771747001e-15 L 5.864547496672063 5.207064997816023e-15 L 5.81220107615923 5.164286008578491e-15 L 5.77344339608881 5.11550711472987e-15 L 5.749775119866521 5.062616992290941e-15 " stroke="#191919" stroke-width="0.35 px" style="stroke-width:0.35;stroke-miterlimit:4;stroke-dasharray:none;fill:none;fill-opacity:1;fill-rule: evenodd"/>
<path id="Shape2DView_nwe0061"  d="M 6.576540669607 5.062616992291e-15 L 7.433985646182 5.062616992291e-15 " stroke="#191919" stroke-width="0.35 px" style="stroke-width:0.35;stroke-miterlimit:4;stroke-dasharray:none;fill:none;fill-opacity:1;fill-rule: evenodd"/>
<path id="Shape2DView_nwe0062"  d="M 8.260751195923444 5.062616992291066e-15 L 8.237082919701118 5.115507114729987e-15 L 8.198325239630664 5.164286008578596e-15 L 8.145978819117802 5.2070649978161125e-15 L 8.082070465689227 5.24218771747008e-15 L 8.00907465478144 5.2682942466164836e-15 L 7.929817720220433 5.284373763326117e-15 L 7.847368421052905 5.289803682803815e-15 L 7.76491912188538 5.284373763326093e-15 L 7.685662187324384 5.268294246616435e-15 L 7.612666376416614 5.24218771747001e-15 L 7.548758022988063 5.207064997816023e-15 L 7.49641160247523 5.164286008578491e-15 L 7.45765392240481 5.11550711472987e-15 L 7.433985646182521 5.062616992290941e-15 " stroke="#191919" stroke-width="0.35 px" style="stroke-width:0.35;stroke-miterlimit:4;stroke-dasharray:none;fill:none;fill-opacity:1;fill-rule: evenodd"/>
<path id="Shape2DView_nwe0063"  d="M 8.260751195923 5.062616992291e-15 L 9.118196172498 5.062616992291e-15 " stroke="#191919" stroke-width="0.35 px" style="stroke-width:0.35;stroke-miterlimit:4;stroke-dasharray:none;fill:none;fill-opacity:1;fill-rule: evenodd"/>
<path id="Shape2DView_nwe0064"  d="M 9.94496172223848 5.062616992290941e-15 L 9.921293446016191 5.11550711472987e-15 L 9.88253576594577 5.16428600857849e-15 L 9.830189345432938 5.207064997816023e-15 L 9.766280992004386 5.24218771747001e-15 L 9.693285181096616 5.268294246616435e-15 L 9.61402824653562 5.284373763326093e-15 L 9.531578947368095 5.289803682803815e-15 L 9.449129648200566 5.284373763326117e-15 L 9.36987271363956 5.2682942466164836e-15 L 9.296876902731773 5.24218771747008e-15 L 9.232968549303198 5.207064997816113e-15 L 9.180622128790336 5.164286008578596e-15 L 9.141864448719883 5.115507114729987e-15 L 9.118196172497557 5.062616992291065e-15 " stroke="#191919" stroke-width="0.35 px" style="stroke-width:0.35;stroke-miterlimit:4;stroke-dasharray:none;fill:none;fill-opacity:1;fill-rule: evenodd"/>
<path id="Shape2DView_nwe0065"  d="M 9.944961722239 5.062616992291e-15 L 10.802406698814 5.062616992291e-15 " stroke="#191919" stroke-width="0.35 px" style="stroke-width:0.35;stroke-miterlimit:4;stroke-dasharray:none;fill:none;fill-opacity:1;fill-rule: evenodd"/>
<path id="Shape2DView_nwe0066"  d="M 11.629172248554479 5.062616992290941e-15 L 11.60550397233219 5.11550711472987e-15 L 11.566746292261769 5.16428600857849e-15 L 11.514399871748937 5.207064997816023e-15 L 11.450491518320385 5.24218771747001e-15 L 11.377495707412615 5.268294246616435e-15 L 11.29823877285162 5.284373763326093e-15 L 11.215789473684096 5.289803682803815e-15 L 11.133340174516565 5.284373763326117e-15 L 11.05408323995556 5.2682942466164836e-15 L 10.981087429047772 5.24218771747008e-15 L 10.917179075619197 5.207064997816113e-15 L 10.864832655106335 5.164286008578596e-15 L 10.826074975035882 5.115507114729987e-15 L 10.802406698813556 5.062616992291066e-15 " stroke="#191919" stroke-width="0.35 px" style="stroke-width:0.35;stroke-miterlimit:4;stroke-dasharray:none;fill:none;fill-opacity:1;fill-rule: evenodd"/>
<path id="Shape2DView_nwe0067"  d="M 11.629172248555 5.062616992291e-15 L 12.48661722513 5.062616992291e-15 " stroke="#191919" stroke-width="0.35 px" style="stroke-width:0.35;stroke-miterlimit:4;stroke-dasharray:none;fill:none;fill-opacity:1;fill-rule: evenodd"/>
<path id="Shape2DView_nwe0068"  d="M 13.313382774870444 5.062616992291066e-15 L 13.289714498648124 5.115507114729979e-15 L 13.25095681857768 5.164286008578581e-15 L 13.198610398064831 5.2070649978160935e-15 L 13.134702044636274 5.24218771747006e-15 L 13.061706233728504 5.268294246616466e-15 L 12.982449299167515 5.284373763326106e-15 L 12.9 5.289803682803815e-15 L 12.817550700832486 5.284373763326106e-15 L 12.738293766271497 5.268294246616466e-15 L 12.665297955363727 5.24218771747006e-15 L 12.601389601935168 5.2070649978160935e-15 L 12.54904318142232 5.164286008578581e-15 L 12.510285501351877 5.115507114729978e-15 L 12.486617225129557 5.062616992291066e-15 " stroke="#191919" stroke-width="0.35 px" style="stroke-width:0.35;stroke-miterlimit:4;stroke-dasharray:none;fill:none;fill-opacity:1;fill-rule: evenodd"/>
<path id="Shape2DView_nwe0069"  d="M 13.31338277487 5.062616992291e-15 L 14.170827751445 5.062616992291e-15 " stroke="#191919" stroke-width="0.35 px" style="stroke-width:0.35;stroke-miterlimit:4;stroke-dasharray:none;fill:none;fill-opacity:1;fill-rule: evenodd"/>
<path id="Shape2DView_nwe0070"  d="M 14.997593301186443 5.062616992291065e-15 L 14.973925024964117 5.115507114729987e-15 L 14.935167344893664 5.164286008578596e-15 L 14.882820924380802 5.2070649978161125e-15 L 14.818912570952229 5.24218771747008e-15 L 14.745916760044441 5.2682942466164836e-15 L 14.666659825483434 5.284373763326117e-15 L 14.584210526315905 5.289803682803815e-15 L 14.50176122714838 5.284373763326093e-15 L 14.422504292587384 5.2682942466164354e-15 L 14.349508481679614 5.24218771747001e-15 L 14.285600128251062 5.207064997816023e-15 L 14.23325370773823 5.164286008578491e-15 L 14.194496027667808 5.11550711472987e-15 L 14.17082775144552 5.062616992290941e-15 " stroke="#191919" stroke-width="0.35 px" style="stroke-width:0.35;stroke-miterlimit:4;stroke-dasharray:none;fill:none;fill-opacity:1;fill-rule: evenodd"/>
<path id="Shape2DView_nwe0071"  d="M 14.997593301186 5.062616992291e-15 L 15.855038277761 5.062616992291e-15 " stroke="#191919" stroke-width="0.35 px" style="stroke-width:0.35;stroke-miterlimit:4;stroke-dasharray:none;fill:none;fill-opacity:1;fill-rule: evenodd"/>
<path id="Shape2DView_nwe0072"  d="M 16.681803827502442 5.062616992291065e-15 L 16.658135551280118 5.115507114729987e-15 L 16.619377871209664 5.164286008578596e-15 L 16.567031450696803 5.2070649978161125e-15 L 16.50312309726823 5.24218771747008e-15 L 16.43012728636044 5.2682942466164836e-15 L 16.350870351799433 5.284373763326117e-15 L 16.268421052631904 5.289803682803815e-15 L 16.18597175346438 5.284373763326093e-15 L 16.106714818903384 5.2682942466164354e-15 L 16.033719007995614 5.24218771747001e-15 L 15.969810654567063 5.207064997816023e-15 L 15.917464234054231 5.164286008578491e-15 L 15.87870655398381 5.11550711472987e-15 L 15.85503827776152 5.062616992290941e-15 " stroke="#191919" stroke-width="0.35 px" style="stroke-width:0.35;stroke-miterlimit:4;stroke-dasharray:none;fill:none;fill-opacity:1;fill-rule: evenodd"/>
<path id="Shape2DView_nwe0073"  d="M 16.681803827502 5.062616992291e-15 L 17.539248804077 5.062616992291e-15 " stroke="#191919" stroke-width="0.35 px" style="stroke-width:0.35;stroke-miterlimit:4;stroke-dasharray:none;fill:none;fill-opacity:1;fill-rule: evenodd"/>
<path id="Shape2DView_nwe0074"  d="M 18.366014353817476 5.062616992290941e-15 L 18.342346077595188 5.11550711472987e-15 L 18.30358839752477 5.16428600857849e-15 L 18.251241977011937 5.207064997816023e-15 L 18.187333623583385 5.242187717470009e-15 L 18.114337812675615 5.268294246616435e-15 L 18.03508087811462 5.284373763326093e-15 L 17.952631578947095 5.289803682803815e-15 L 17.870182279779566 5.284373763326117e-15 L 17.790925345218557 5.2682942466164836e-15 L 17.71792953431077 5.24218771747008e-15 L 17.654021180882197 5.207064997816113e-15 L 17.601674760369335 5.164286008578596e-15 L 17.56291708029888 5.115507114729987e-15 L 17.539248804076557 5.062616992291066e-15 " stroke="#191919" stroke-width="0.35 px" style="stroke-width:0.35;stroke-miterlimit:4;stroke-dasharray:none;fill:none;fill-opacity:1;fill-rule: evenodd"/>
<path id="Shape2DView_nwe0075"  d="M 18.366014353818 5.062616992291e-15 L 19.223459330393 5.062616992291e-15 " stroke="#191919" stroke-width="0.35 px" style="stroke-width:0.35;stroke-miterlimit:4;stroke-dasharray:none;fill:none;fill-opacity:1;fill-rule: evenodd"/>
<path id="Shape2DView_nwe0076"  d="M 20.050224880133477 5.062616992290941e-15 L 20.02655660391119 5.11550711472987e-15 L 19.98779892384077 5.16428600857849e-15 L 19.935452503327937 5.207064997816023e-15 L 19.871544149899385 5.24218771747001e-15 L 19.798548338991615 5.268294246616435e-15 L 19.71929140443062 5.284373763326093e-15 L 19.636842105263096 5.289803682803815e-15 L 19.554392806095567 5.284373763326117e-15 L 19.475135871534558 5.2682942466164836e-15 L 19.40214006062677 5.24218771747008e-15 L 19.338231707198197 5.207064997816113e-15 L 19.285885286685335 5.164286008578596e-15 L 19.24712760661488 5.115507114729987e-15 L 19.223459330392558 5.062616992291065e-15 " stroke="#191919" stroke-width="0.35 px" style="stroke-width:0.35;stroke-miterlimit:4;stroke-dasharray:none;fill:none;fill-opacity:1;fill-rule: evenodd"/>
<path id="Shape2DView_nwe0077"  d="M 20.050224880134 5.062616992291e-15 L 21.2 5.062616992291e-15 " stroke="#191919" stroke-width="0.35 px" style="stroke-width:0.35;stroke-miterlimit:4;stroke-dasharray:none;fill:none;fill-opacity:1;fill-rule: evenodd"/>
<path id="Shape2DView_nwe0078"  d="M 21.19999999999989 5.062616992291219e-15 L 21.235068514307194 5.0825069715700876e-15 L 21.269245935190618 5.103073734066035e-15 L 21.30250283921144 5.124299573794813e-15 L 21.33481059540653 5.146166217370711e-15 L 21.366141389936818 5.168654839738167e-15 L 21.396468250032303 5.1917460803783084e-15 L 21.42576506721299 5.215420059976483e-15 L 21.454006619765753 5.239656397536413e-15 L 21.481168594457788 5.2644342279262545e-15 L 21.507227607467936 5.289732219841447e-15 L 21.53216122451788 5.315528594168898e-15 L 21.555947980185877 5.341801142736678e-15 L 21.578567396386415 5.3685272474331036e-15 L 21.599999999999845 5.395683899678732e-15 " stroke="#191919" stroke-width="0.35 px" style="stroke-width:0.35;stroke-miterlimit:4;stroke-dasharray:none;fill:none;fill-opacity:1;fill-rule: evenodd"/>
<path id="Shape2DView_nwe0079"  d="M 21.6 5.395683899678e-15 L 22.4 5.395683899678e-15 " stroke="#191919" stroke-width="0.35 px" style="stroke-width:0.35;stroke-miterlimit:4;stroke-dasharray:none;fill:none;fill-opacity:1;fill-rule: evenodd"/>
<path id="Shape2DView_nwe0080"  d="M 22.700000000094917 3.1807889655538478e-15 L 22.68013818368098 3.3390877772314674e-15 L 22.66003524250803 3.497373082097924e-15 L 22.639691197275027 3.655644717175285e-15 L 22.619106068929085 3.81390251949969e-15 L 22.598279878665636 3.972146326121522e-15 L 22.57721264792829 4.130375974105583e-15 L 22.55590439840887 4.2885913005312405e-15 L 22.53435515204734 4.446792142492617e-15 L 22.51256493103179 4.604978337098747e-15 L 22.49053375779843 4.7631497214737414e-15 L 22.468261655031682 4.9213061327569705e-15 L 22.445748645663826 5.079447408103208e-15 L 22.422994752875354 5.23757338468283e-15 L 22.400000000094764 5.395683899681946e-15 " stroke="#191919" stroke-width="0.35 px" style="stroke-width:0.35;stroke-miterlimit:4;stroke-dasharray:none;fill:none;fill-opacity:1;fill-rule: evenodd"/>
<path id="Shape2DView_nwe0081"  d="M 3.0000000000044054 -3.999999999999563 L 2.700000000004451 -0.6749999999996099 " stroke="#191919" stroke-width="0.35 px" style="stroke-width:0.35;stroke-miterlimit:4;stroke-dasharray:none;fill:none;fill-opacity:1;fill-rule: evenodd"/>
<path id="Shape2DView_nwe0082"  d="M 3.0000000000044054 3.9999999999995666 L 2.700000000004451 0.6749999999996135 " stroke="#191919" stroke-width="0.35 px" style="stroke-width:0.35;stroke-miterlimit:4;stroke-dasharray:none;fill:none;fill-opacity:1;fill-rule: evenodd"/>
<path id="Shape2DView_nwe0083"  d="M 3.0 -3.9999999999999982 L 3.8 -3.9999999999999982 " stroke="#191919" stroke-width="0.35 px" style="stroke-width:0.35;stroke-miterlimit:4;stroke-dasharray:none;fill:none;fill-opacity:1;fill-rule: evenodd"/>
<path id="Shape2DView_nwe0084"  d="M 3.0 4.000000000000002 L 3.8 4.000000000000002 " stroke="#191919" stroke-width="0.35 px" style="stroke-width:0.35;stroke-miterlimit:4;stroke-dasharray:none;fill:none;fill-opacity:1;fill-rule: evenodd"/>
<path id="Shape2DView_nwe0085"  d="M 3.7999999999995877 -3.9999999999999343 L 3.9979999999996556 -3.499999999999763 " stroke="#191919" stroke-width="0.35 px" style="stroke-width:0.35;stroke-miterlimit:4;stroke-dasharray:none;fill:none;fill-opacity:1;fill-rule: evenodd"/>
<path id="Shape2DView_nwe0086"  d="M 3.7999999999995877 3.999999999999938 L 3.9979999999996556 3.4999999999997664 " stroke="#191919" stroke-width="0.35 px" style="stroke-width:0.35;stroke-miterlimit:4;stroke-dasharray:none;fill:none;fill-opacity:1;fill-rule: evenodd"/>
<path id="Shape2DView_nwe0087"  d="M 0.9000079267183471 -0.4499999999999987 L 2.7 -0.4499999999999987 " stroke="#191919" stroke-width="0.35 px" style="stroke-width:0.35;stroke-miterlimit:4;stroke-dasharray:none;fill:none;fill-opacity:1;fill-rule: evenodd"/>
<path id="Shape2DView_nwe0088"  d="M 0.9000079267183471 0.45000000000000134 L 2.7 0.45000000000000134 " stroke="#191919" stroke-width="0.35 px" style="stroke-width:0.35;stroke-miterlimit:4;stroke-dasharray:none;fill:none;fill-opacity:1;fill-rule: evenodd"/>
<path id="Shape2DView_nwe0089"  d="M 3.998 -3.4999999999999982 L 5.749775119866 -3.4999999999999982 " stroke="#191919" stroke-width="0.35 px" style="stroke-width:0.35;stroke-miterlimit:4;stroke-dasharray:none;fill:none;fill-opacity:1;fill-rule: evenodd"/>
<path id="Shape2DView_nwe0090"  d="M 3.998 3.5000000000000018 L 5.749775119866 3.5000000000000018 " stroke="#191919" stroke-width="0.35 px" style="stroke-width:0.35;stroke-miterlimit:4;stroke-dasharray:none;fill:none;fill-opacity:1;fill-rule: evenodd"/>
<path id="Shape2DView_nwe0091"  d="M 0.900007926716961 -0.4499999999999986 Q 0.08755233403631174 -0.44999999999999873 1.432187701766452e-14 -0.44999999999999885 " stroke="#191919" stroke-width="0.35 px" style="stroke-width:0.35;stroke-miterlimit:4;stroke-dasharray:none;fill:none;fill-opacity:1;fill-rule: evenodd"/>
<path id="Shape2DView_nwe0092"  d="M 0.900007926716961 0.4500000000000014 Q 0.08755233403633406 0.45000000000000123 -1.5432100042289676e-14 0.4500000000000012 " stroke="#191919" stroke-width="0.35 px" style="stroke-width:0.35;stroke-miterlimit:4;stroke-dasharray:none;fill:none;fill-opacity:1;fill-rule: evenodd"/>
<path id="Shape2DView_nwe0093"  d="M 6.576540669607442 3.500000000000088 C 6.51731130272929 3.9433231170941503 5.80944082657618 3.9438706191277415 5.749775119866521 3.4999999999999014 " stroke="#191919" stroke-width="0.35 px" style="stroke-width:0.35;stroke-miterlimit:4;stroke-dasharray:none;fill:none;fill-opacity:1;fill-rule: evenodd"/>
<path id="Shape2DView_nwe0094"  d="M 6.576540669607442 -3.5000000000000844 C 6.517311302729338 -3.943323117094097 5.809440826576189 -3.943870619127775 5.749775119866521 -3.499999999999898 " stroke="#191919" stroke-width="0.35 px" style="stroke-width:0.35;stroke-miterlimit:4;stroke-dasharray:none;fill:none;fill-opacity:1;fill-rule: evenodd"/>
<path id="Shape2DView_nwe0095"  d="M 6.576540669607 -3.4999999999999982 L 7.433985646182 -3.4999999999999982 " stroke="#191919" stroke-width="0.35 px" style="stroke-width:0.35;stroke-miterlimit:4;stroke-dasharray:none;fill:none;fill-opacity:1;fill-rule: evenodd"/>
<path id="Shape2DView_nwe0096"  d="M 6.576540669607 3.5000000000000018 L 7.433985646182 3.5000000000000018 " stroke="#191919" stroke-width="0.35 px" style="stroke-width:0.35;stroke-miterlimit:4;stroke-dasharray:none;fill:none;fill-opacity:1;fill-rule: evenodd"/>
<path id="Shape2DView_nwe0097"  d="M 8.260751195923444 3.500000000000088 Q 8.208654457081764 3.7296123101108702 7.989731087265325 3.8162561638205785 Q 7.847368573140134 3.8162557405262345 7.705006059014941 3.8162553172318914 Q 7.486080936591074 3.729611500122956 7.433985646182521 3.4999999999999014 " stroke="#191919" stroke-width="0.35 px" style="stroke-width:0.35;stroke-miterlimit:4;stroke-dasharray:none;fill:none;fill-opacity:1;fill-rule: evenodd"/>
<path id="Shape2DView_nwe0098"  d="M 8.260751195923444 -3.5000000000000844 Q 8.20865445708176 -3.7296123101108685 7.989731087265325 -3.816256163820575 Q 7.847368573140132 -3.816255740526232 7.705006059014941 -3.816255317231888 Q 7.486080936591074 -3.7296115001229526 7.433985646182521 -3.499999999999898 " stroke="#191919" stroke-width="0.35 px" style="stroke-width:0.35;stroke-miterlimit:4;stroke-dasharray:none;fill:none;fill-opacity:1;fill-rule: evenodd"/>
<path id="Shape2DView_nwe0099"  d="M 8.260751195923 -3.4999999999999982 L 9.118196172498 -3.4999999999999982 " stroke="#191919" stroke-width="0.35 px" style="stroke-width:0.35;stroke-miterlimit:4;stroke-dasharray:none;fill:none;fill-opacity:1;fill-rule: evenodd"/>
<path id="Shape2DView_nwe0100"  d="M 8.260751195923 3.5000000000000018 L 9.118196172498 3.5000000000000018 " stroke="#191919" stroke-width="0.35 px" style="stroke-width:0.35;stroke-miterlimit:4;stroke-dasharray:none;fill:none;fill-opacity:1;fill-rule: evenodd"/>
<path id="Shape2DView_nwe0101"  d="M 9.94496172223848 3.4999999999999014 C 9.885655220688243 3.9433906591823873 9.177854934447915 3.9438195118508084 9.118196172497557 3.500000000000087 " stroke="#191919" stroke-width="0.35 px" style="stroke-width:0.35;stroke-miterlimit:4;stroke-dasharray:none;fill:none;fill-opacity:1;fill-rule: evenodd"/>
<path id="Shape2DView_nwe0102"  d="M 9.94496172223848 -3.499999999999898 C 9.885655220688209 -3.9433906591824153 9.177854934447904 -3.9438195118507764 9.118196172497557 -3.5000000000000835 " stroke="#191919" stroke-width="0.35 px" style="stroke-width:0.35;stroke-miterlimit:4;stroke-dasharray:none;fill:none;fill-opacity:1;fill-rule: evenodd"/>
<path id="Shape2DView_nwe0103"  d="M 9.944961722239 -3.4999999999999982 L 10.802406698814 -3.4999999999999982 " stroke="#191919" stroke-width="0.35 px" style="stroke-width:0.35;stroke-miterlimit:4;stroke-dasharray:none;fill:none;fill-opacity:1;fill-rule: evenodd"/>
<path id="Shape2DView_nwe0104"  d="M 9.944961722239 3.5000000000000018 L 10.802406698814 3.5000000000000018 " stroke="#191919" stroke-width="0.35 px" style="stroke-width:0.35;stroke-miterlimit:4;stroke-dasharray:none;fill:none;fill-opacity:1;fill-rule: evenodd"/>
<path id="Shape2DView_nwe0105"  d="M 11.629172248554479 3.4999999999999014 C 11.569866091391702 3.943390403744955 10.862065116062256 3.9438195925823605 10.802406698813556 3.500000000000088 " stroke="#191919" stroke-width="0.35 px" style="stroke-width:0.35;stroke-miterlimit:4;stroke-dasharray:none;fill:none;fill-opacity:1;fill-rule: evenodd"/>
<path id="Shape2DView_nwe0106"  d="M 11.629172248554479 -3.499999999999898 C 11.569866091391766 -3.943390403744893 10.862065116062245 -3.943819592582399 10.802406698813556 -3.5000000000000844 " stroke="#191919" stroke-width="0.35 px" style="stroke-width:0.35;stroke-miterlimit:4;stroke-dasharray:none;fill:none;fill-opacity:1;fill-rule: evenodd"/>
<path id="Shape2DView_nwe0107"  d="M 11.629172248555 -3.4999999999999982 L 12.48661722513 -3.4999999999999982 " stroke="#191919" stroke-width="0.35 px" style="stroke-width:0.35;stroke-miterlimit:4;stroke-dasharray:none;fill:none;fill-opacity:1;fill-rule: evenodd"/>
<path id="Shape2DView_nwe0108"  d="M 11.629172248555 3.5000000000000018 L 12.48661722513 3.5000000000000018 " stroke="#191919" stroke-width="0.35 px" style="stroke-width:0.35;stroke-miterlimit:4;stroke-dasharray:none;fill:none;fill-opacity:1;fill-rule: evenodd"/>
<path id="Shape2DView_nwe0109"  d="M 13.313382774870444 3.500000000000088 C 13.25415340799217 3.9433231170941685 12.546282931839366 3.943870619127692 12.486617225129557 3.500000000000088 " stroke="#191919" stroke-width="0.35 px" style="stroke-width:0.35;stroke-miterlimit:4;stroke-dasharray:none;fill:none;fill-opacity:1;fill-rule: evenodd"/>
<path id="Shape2DView_nwe0110"  d="M 13.313382774870444 -3.5000000000000844 C 13.254153407992222 -3.943323117094119 12.546282931839377 -3.943870619127727 12.486617225129557 -3.5000000000000844 " stroke="#191919" stroke-width="0.35 px" style="stroke-width:0.35;stroke-miterlimit:4;stroke-dasharray:none;fill:none;fill-opacity:1;fill-rule: evenodd"/>
<path id="Shape2DView_nwe0111"  d="M 13.31338277487 -3.4999999999999982 L 14.170827751445 -3.4999999999999982 " stroke="#191919" stroke-width="0.35 px" style="stroke-width:0.35;stroke-miterlimit:4;stroke-dasharray:none;fill:none;fill-opacity:1;fill-rule: evenodd"/>
<path id="Shape2DView_nwe0112"  d="M 13.31338277487 3.5000000000000018 L 14.170827751445 3.5000000000000018 " stroke="#191919" stroke-width="0.35 px" style="stroke-width:0.35;stroke-miterlimit:4;stroke-dasharray:none;fill:none;fill-opacity:1;fill-rule: evenodd"/>
<path id="Shape2DView_nwe0113"  d="M 14.997593301186445 3.5000000000000866 C 14.938388909597013 3.9433008559236495 14.230493494536017 3.9438869715535536 14.170827751445518 3.4999999999999014 " stroke="#191919" stroke-width="0.35 px" style="stroke-width:0.35;stroke-miterlimit:4;stroke-dasharray:none;fill:none;fill-opacity:1;fill-rule: evenodd"/>
<path id="Shape2DView_nwe0114"  d="M 14.997593301186445 -3.500000000000084 C 14.938388909596986 -3.943300855923666 14.230493494535995 -3.9438869715535283 14.17082775144552 -3.499999999999898 " stroke="#191919" stroke-width="0.35 px" style="stroke-width:0.35;stroke-miterlimit:4;stroke-dasharray:none;fill:none;fill-opacity:1;fill-rule: evenodd"/>
<path id="Shape2DView_nwe0115"  d="M 14.997593301186 -3.4999999999999982 L 15.855038277761 -3.4999999999999982 " stroke="#191919" stroke-width="0.35 px" style="stroke-width:0.35;stroke-miterlimit:4;stroke-dasharray:none;fill:none;fill-opacity:1;fill-rule: evenodd"/>
<path id="Shape2DView_nwe0116"  d="M 14.997593301186 3.5000000000000018 L 15.855038277761 3.5000000000000018 " stroke="#191919" stroke-width="0.35 px" style="stroke-width:0.35;stroke-miterlimit:4;stroke-dasharray:none;fill:none;fill-opacity:1;fill-rule: evenodd"/>
<path id="Shape2DView_nwe0117"  d="M 16.681803827502442 3.5000000000000866 C 16.622421964003337 3.943455926667159 15.914687349360632 3.9437699123488734 15.855038277761523 3.4999999999999014 " stroke="#191919" stroke-width="0.35 px" style="stroke-width:0.35;stroke-miterlimit:4;stroke-dasharray:none;fill:none;fill-opacity:1;fill-rule: evenodd"/>
<path id="Shape2DView_nwe0118"  d="M 16.681803827502442 -3.500000000000084 C 16.622421964003298 -3.9434559266671894 15.91468734936063 -3.9437699123488414 15.85503827776152 -3.499999999999898 " stroke="#191919" stroke-width="0.35 px" style="stroke-width:0.35;stroke-miterlimit:4;stroke-dasharray:none;fill:none;fill-opacity:1;fill-rule: evenodd"/>
<path id="Shape2DView_nwe0119"  d="M 16.681803827502 -3.4999999999999982 L 17.539248804077 -3.4999999999999982 " stroke="#191919" stroke-width="0.35 px" style="stroke-width:0.35;stroke-miterlimit:4;stroke-dasharray:none;fill:none;fill-opacity:1;fill-rule: evenodd"/>
<path id="Shape2DView_nwe0120"  d="M 16.681803827502 3.5000000000000018 L 17.539248804077 3.5000000000000018 " stroke="#191919" stroke-width="0.35 px" style="stroke-width:0.35;stroke-miterlimit:4;stroke-dasharray:none;fill:none;fill-opacity:1;fill-rule: evenodd"/>
<path id="Shape2DView_nwe0121"  d="M 18.366014353817476 3.4999999999999014 Q 18.335712879107426 3.5749257513731765 18.30541140439738 3.6498515027464524 Q 17.823079227429478 4.082376851063952 17.539248804076557 3.500000000000088 " stroke="#191919" stroke-width="0.35 px" style="stroke-width:0.35;stroke-miterlimit:4;stroke-dasharray:none;fill:none;fill-opacity:1;fill-rule: evenodd"/>
<path id="Shape2DView_nwe0122"  d="M 18.366014353817476 -3.499999999999898 Q 18.335712879107426 -3.574925751373173 18.30541140439738 -3.649851502746449 Q 17.823079227429478 -4.082376851063948 17.539248804076557 -3.5000000000000844 " stroke="#191919" stroke-width="0.35 px" style="stroke-width:0.35;stroke-miterlimit:4;stroke-dasharray:none;fill:none;fill-opacity:1;fill-rule: evenodd"/>
<path id="Shape2DView_nwe0123"  d="M 18.366014353818 -3.4999999999999982 L 19.223459330393 -3.4999999999999982 " stroke="#191919" stroke-width="0.35 px" style="stroke-width:0.35;stroke-miterlimit:4;stroke-dasharray:none;fill:none;fill-opacity:1;fill-rule: evenodd"/>
<path id="Shape2DView_nwe0124"  d="M 18.366014353818 3.5000000000000018 L 19.223459330393 3.5000000000000018 " stroke="#191919" stroke-width="0.35 px" style="stroke-width:0.35;stroke-miterlimit:4;stroke-dasharray:none;fill:none;fill-opacity:1;fill-rule: evenodd"/>
<path id="Shape2DView_nwe0125"  d="M 20.050224880133477 3.4999999999999014 C 20.03860746936584 3.534796915055466 20.026990058598212 3.569593830111036 20.01537264783058 3.6043907451666026 C 19.864720683485242 3.963839732479834 19.275817836120584 3.8862100150431322 19.223459330392558 3.500000000000087 " stroke="#191919" stroke-width="0.35 px" style="stroke-width:0.35;stroke-miterlimit:4;stroke-dasharray:none;fill:none;fill-opacity:1;fill-rule: evenodd"/>
<path id="Shape2DView_nwe0126"  d="M 20.050224880133477 -3.499999999999898 C 20.03860746936584 -3.534796915055463 20.026990058598212 -3.569593830111032 20.01537264783058 -3.6043907451665995 C 19.864720683485242 -3.963839732479829 19.275817836120584 -3.886210015043132 19.223459330392558 -3.5000000000000835 " stroke="#191919" stroke-width="0.35 px" style="stroke-width:0.35;stroke-miterlimit:4;stroke-dasharray:none;fill:none;fill-opacity:1;fill-rule: evenodd"/>
<path id="Shape2DView_nwe0127"  d="M 20.050224880134 -3.4999999999999982 L 21.2 -3.4999999999999982 " stroke="#191919" stroke-width="0.35 px" style="stroke-width:0.35;stroke-miterlimit:4;stroke-dasharray:none;fill:none;fill-opacity:1;fill-rule: evenodd"/>
<path id="Shape2DView_nwe0128"  d="M 20.050224880134 3.5000000000000018 L 21.2 3.5000000000000018 " stroke="#191919" stroke-width="0.35 px" style="stroke-width:0.35;stroke-miterlimit:4;stroke-dasharray:none;fill:none;fill-opacity:1;fill-rule: evenodd"/>
<path id="Shape2DView_nwe0129"  d="M 21.19999999999989 -3.5000000000001332 L 21.599999999999845 -4.000000000000078 " stroke="#191919" stroke-width="0.35 px" style="stroke-width:0.35;stroke-miterlimit:4;stroke-dasharray:none;fill:none;fill-opacity:1;fill-rule: evenodd"/>
<path id="Shape2DView_nwe0130"  d="M 21.19999999999989 3.500000000000137 L 21.599999999999845 4.000000000000082 " stroke="#191919" stroke-width="0.35 px" style="stroke-width:0.35;stroke-miterlimit:4;stroke-dasharray:none;fill:none;fill-opacity:1;fill-rule: evenodd"/>
<path id="Shape2DView_nwe0131"  d="M 21.6 -3.9999999999999982 L 22.4 -3.9999999999999982 " stroke="#191919" stroke-width="0.35 px" style="stroke-width:0.35;stroke-miterlimit:4;stroke-dasharray:none;fill:none;fill-opacity:1;fill-rule: evenodd"/>
<path id="Shape2DView_nwe0132"  d="M 21.6 4.000000000000002 L 22.4 4.000000000000002 " stroke="#191919" stroke-width="0.35 px" style="stroke-width:0.35;stroke-miterlimit:4;stroke-dasharray:none;fill:none;fill-opacity:1;fill-rule: evenodd"/>
<path id="Shape2DView_nwe0133"  d="M 22.700000000094917 -0.6750000000078806 L 22.400000000094764 -4.000000000009223 " stroke="#191919" stroke-width="0.35 px" style="stroke-width:0.35;stroke-miterlimit:4;stroke-dasharray:none;fill:none;fill-opacity:1;fill-rule: evenodd"/>
<path id="Shape2DView_nwe0134"  d="M 22.700000000094917 0.6750000000078842 L 22.400000000094764 4.000000000009226 " stroke="#191919" stroke-width="0.35 px" style="stroke-width:0.35;stroke-miterlimit:4;stroke-dasharray:none;fill:none;fill-opacity:1;fill-rule: evenodd"/>
<path id="Shape2DView_nwe0135"  d="M 22.7 -0.4499999999999987 L 24.5 -0.4499999999999987 " stroke="#191919" stroke-width="0.35 px" style="stroke-width:0.35;stroke-miterlimit:4;stroke-dasharray:none;fill:none;fill-opacity:1;fill-rule: evenodd"/>
<path id="Shape2DView_nwe0136"  d="M 22.7 0.45000000000000134 L 24.5 0.45000000000000134 " stroke="#191919" stroke-width="0.35 px" style="stroke-width:0.35;stroke-miterlimit:4;stroke-dasharray:none;fill:none;fill-opacity:1;fill-rule: evenodd"/>
<path id="Shape2DView_nwe0137"  d="M 24.5 0.4500000000000014 Q 25.312453626001723 0.45000000000000123 25.400000000000013 0.4500000000000012 " stroke="#191919" stroke-width="0.35 px" style="stroke-width:0.35;stroke-miterlimit:4;stroke-dasharray:none;fill:none;fill-opacity:1;fill-rule: evenodd"/>
<path id="Shape2DView_nwe0138"  d="M 24.5 -0.4499999999999986 Q 25.31998721587389 -0.44999999999999873 25.399999999999984 -0.44999999999999885 " stroke="#191919" stroke-width="0.35 px" style="stroke-width:0.35;stroke-miterlimit:4;stroke-dasharray:none;fill:none;fill-opacity:1;fill-rule: evenodd"/>
<title>b'Shape2DView'</title>
</g>
<g id="Rectangle" transform="translate(0.709653,4.262934) scale(1,-1)">
<rect fill="#ff0000" id="origin" width="1" height="1" x="0" y="0" />
<title>b'Rectangle'</title>
</g>
</svg>