<?xml version="1.0"?>
<!DOCTYPE svg PUBLIC "-//W3C//DTD SVG 1.1//EN" "http://www.w3.org/Graphics/SVG/1.1/DTD/svg11.dtd">
<svg width="16.253594136106013mm" height="4.81869792424144mm" viewBox="0 0 16.253594136106013 4.81869792424144" xmlns="http://www.w3.org/2000/svg" version="1.1">
<g id="Shape2DView" transform="translate(0.506797,2.409349) scale(1,-1)">
<path id="Shape2DView_nwe0000"  d="M 0.83 3.064215547965775e-15 L 0.83 -0.25192007123243976 L 0.83 -0.5006721014017047 L 0.83 -0.7431278893991234 L 0.83 -0.9762384130145035 L 0.83 -1.197072172159505 L 0.83 -1.4028520541821483 L 0.83 -1.5909902576697303 L 0.83 -1.7591208355530656 L 0.83 -1.9051294482636378 L 0.83 -2.027179952780442 L 0.83 -2.1237374931938255 L 0.83 -2.1935878024091022 L 0.83 -2.2358524722597943 L 0.83 -2.249999999999999 " stroke="#191919" stroke-width="0.35 px" style="stroke-width:0.35;stroke-miterlimit:4;stroke-dasharray:none;fill:none;fill-opacity:1;fill-rule: evenodd"/>
<path id="Shape2DView_nwe0001"  d="M 0.83 2.250000000000001 L 0.83 2.235852472259797 L 0.83 2.193587802409104 L 0.83 2.123737493193828 L 0.83 2.027179952780444 L 0.83 1.9051294482636407 L 0.83 1.7591208355530685 L 0.83 1.5909902576697332 L 0.83 1.402852054182152 L 0.83 1.197072172159509 L 0.83 0.9762384130145072 L 0.83 0.7431278893991274 L 0.83 0.500672101401709 L 0.83 0.2519200712324443 L 0.83 3.6153066075820835e-15 " stroke="#191919" stroke-width="0.35 px" style="stroke-width:0.35;stroke-miterlimit:4;stroke-dasharray:none;fill:none;fill-opacity:1;fill-rule: evenodd"/>
<path id="Shape2DView_nwe0002"  d="M 0.62 1.91513471747875e-15 L 0.62 -0.05878134995423478 L 0.62 -0.1168234903270633 L 0.62 -0.173396507526461 L 0.62 -0.2277889630367164 L 0.62 -0.2793168401705502 L 0.62 -0.32733214597583365 L 0.62 -0.37123106012293605 L 0.62 -0.41046152829571436 L 0.62 -0.44453020459484793 L 0.62 -0.4730086556487688 L 0.62 -0.49553874841189177 L 0.62 -0.5118371538954564 L 0.62 -0.5216989101939513 L 0.62 -0.524999999999999 " stroke="#191919" stroke-width="0.35 px" style="stroke-width:0.35;stroke-miterlimit:4;stroke-dasharray:none;fill:none;fill-opacity:1;fill-rule: evenodd"/>
<path id="Shape2DView_nwe0003"  d="M 0.62 0.525000000000001 L 0.62 0.5216989101939534 L 0.62 0.5118371538954585 L 0.62 0.49553874841189405 L 0.62 0.47300865564877115 L 0.62 0.44453020459485026 L 0.62 0.41046152829571675 L 0.62 0.37123106012293855 L 0.62 0.32733214597583615 L 0.62 0.2793168401705528 L 0.62 0.22778896303671914 L 0.62 0.17339650752646382 L 0.62 0.11682349032706617 L 0.62 0.058781349954237734 L 0.62 2.0437226313892222e-15 " stroke="#191919" stroke-width="0.35 px" style="stroke-width:0.35;stroke-miterlimit:4;stroke-dasharray:none;fill:none;fill-opacity:1;fill-rule: evenodd"/>
<path id="Shape2DView_nwe0004"  d="M 1.39 3.064215547965775e-15 L 1.39 -0.25192007123243976 L 1.39 -0.5006721014017047 L 1.39 -0.7431278893991234 L 1.39 -0.9762384130145035 L 1.39 -1.197072172159505 L 1.39 -1.4028520541821483 L 1.39 -1.5909902576697303 L 1.39 -1.7591208355530656 L 1.39 -1.9051294482636378 L 1.39 -2.027179952780442 L 1.39 -2.1237374931938255 L 1.39 -2.1935878024091022 L 1.39 -2.2358524722597943 L 1.39 -2.249999999999999 " stroke="#191919" stroke-width="0.35 px" style="stroke-width:0.35;stroke-miterlimit:4;stroke-dasharray:none;fill:none;fill-opacity:1;fill-rule: evenodd"/>
<path id="Shape2DView_nwe0005"  d="M 1.39 2.250000000000001 L 1.39 2.235852472259797 L 1.39 2.193587802409104 L 1.39 2.123737493193828 L 1.39 2.027179952780444 L 1.39 1.9051294482636407 L 1.39 1.7591208355530685 L 1.39 1.5909902576697332 L 1.39 1.402852054182152 L 1.39 1.197072172159509 L 1.39 0.9762384130145072 L 1.39 0.7431278893991274 L 1.39 0.500672101401709 L 1.39 0.2519200712324443 L 1.39 3.6153066075820835e-15 " stroke="#191919" stroke-width="0.35 px" style="stroke-width:0.35;stroke-miterlimit:4;stroke-dasharray:none;fill:none;fill-opacity:1;fill-rule: evenodd"/>
<path id="Shape2DView_nwe0006"  d="M 1.588 2.83106871279451e-15 L 1.588 -0.2127325045962822 L 1.588 -0.4227897745169948 L 1.588 -0.6275302177148151 L 1.588 -0.8243791043233581 L 1.588 -1.0108609453791373 L 1.588 -1.1846306235315918 L 1.588 -1.3435028842544385 L 1.588 -1.485479816689255 L 1.588 -1.6087759785337383 L 1.588 -1.7118408490145949 L 1.588 -1.793378327585897 L 1.588 -1.8523630331454635 L 1.588 -1.8880531987971596 L 1.588 -1.8999999999999988 " stroke="#191919" stroke-width="0.35 px" style="stroke-width:0.35;stroke-miterlimit:4;stroke-dasharray:none;fill:none;fill-opacity:1;fill-rule: evenodd"/>
<path id="Shape2DView_nwe0007"  d="M 1.588 1.900000000000001 L 1.588 1.888053198797162 L 1.588 1.852363033145466 L 1.588 1.7933783275858997 L 1.588 1.7118408490145975 L 1.588 1.6087759785337412 L 1.588 1.485479816689258 L 1.588 1.3435028842544416 L 1.588 1.184630623531595 L 1.588 1.010860945379141 L 1.588 0.8243791043233619 L 1.588 0.627530217714819 L 1.588 0.42278977451699895 L 1.588 0.21273250459628654 L 1.588 3.2964344964705044e-15 " stroke="#191919" stroke-width="0.35 px" style="stroke-width:0.35;stroke-miterlimit:4;stroke-dasharray:none;fill:none;fill-opacity:1;fill-rule: evenodd"/>
<path id="Shape2DView_nwe0008"  d="M -1.2568497780264195e-14 0.3500000000000008 A 0.35 0.35 0 0 1 1.23702e-14 -0.35" stroke="#191919" stroke-width="0.35 px" style="stroke-width:0.35;stroke-miterlimit:4;stroke-dasharray:none;fill:none;fill-opacity:1;fill-rule: evenodd"/>
<path id="Shape2DView_nwe0009"  d="M 2.754842583907 3.330669073875e-15 Q 2.7548425839070005 1.7310846462394416 2.754842583907 1.899999999716331 " stroke="#191919" stroke-width="0.35 px" style="stroke-width:0.35;stroke-miterlimit:4;stroke-dasharray:none;fill:none;fill-opacity:1;fill-rule: evenodd"/>
<path id="Shape2DView_nwe0010"  d="M 2.754842583907 -1.8999999999999133 Q 2.754842583907 -1.73108586235971 2.754842583907 3.3306690738754696e-15 " stroke="#191919" stroke-width="0.35 px" style="stroke-width:0.35;stroke-miterlimit:4;stroke-dasharray:none;fill:none;fill-opacity:1;fill-rule: evenodd"/>
<path id="Shape2DView_nwe0011"  d="M 3.333578468725 3.330669073875e-15 Q 3.3335784687249994 1.7310846462394416 3.3335784687250007 1.899999999716331 " stroke="#191919" stroke-width="0.35 px" style="stroke-width:0.35;stroke-miterlimit:4;stroke-dasharray:none;fill:none;fill-opacity:1;fill-rule: evenodd"/>
<path id="Shape2DView_nwe0012"  d="M 3.333578468725 -1.8999999999999133 Q 3.3335784687250003 -1.73108586235971 3.333578468725 3.3306690738754696e-15 " stroke="#191919" stroke-width="0.35 px" style="stroke-width:0.35;stroke-miterlimit:4;stroke-dasharray:none;fill:none;fill-opacity:1;fill-rule: evenodd"/>
<path id="Shape2DView_nwe0013"  d="M 3.933789952328 3.330669073875e-15 Q 3.9337899523279996 1.7310846462395388 3.933789952328001 1.899999999716331 " stroke="#191919" stroke-width="0.35 px" style="stroke-width:0.35;stroke-miterlimit:4;stroke-dasharray:none;fill:none;fill-opacity:1;fill-rule: evenodd"/>
<path id="Shape2DView_nwe0014"  d="M 3.933789952328 -1.8999999999999133 Q 3.9337899523279996 -1.73108586235971 3.933789952328 3.3306690738754696e-15 " stroke="#191919" stroke-width="0.35 px" style="stroke-width:0.35;stroke-miterlimit:4;stroke-dasharray:none;fill:none;fill-opacity:1;fill-rule: evenodd"/>
<path id="Shape2DView_nwe0015"  d="M 4.512525837146 3.330669073875e-15 Q 4.512525837145999 1.7310846462394007 4.5125258371460015 1.899999999716331 " stroke="#191919" stroke-width="0.35 px" style="stroke-width:0.35;stroke-miterlimit:4;stroke-dasharray:none;fill:none;fill-opacity:1;fill-rule: evenodd"/>
<path id="Shape2DView_nwe0016"  d="M 4.512525837145997 -1.8999999999999133 Q 4.512525837146001 -1.7310858623637788 4.512525837146 3.3306690738754696e-15 " stroke="#191919" stroke-width="0.35 px" style="stroke-width:0.35;stroke-miterlimit:4;stroke-dasharray:none;fill:none;fill-opacity:1;fill-rule: evenodd"/>
<path id="Shape2DView_nwe0017"  d="M 5.112737320749 3.330669073875e-15 Q 5.112737320749 1.7310846462396148 5.112737320749 1.899999999716331 " stroke="#191919" stroke-width="0.35 px" style="stroke-width:0.35;stroke-miterlimit:4;stroke-dasharray:none;fill:none;fill-opacity:1;fill-rule: evenodd"/>
<path id="Shape2DView_nwe0018"  d="M 5.112737320749 -1.8999999999999133 Q 5.112737320749 -1.73108586235971 5.112737320749 3.3306690738754696e-15 " stroke="#191919" stroke-width="0.35 px" style="stroke-width:0.35;stroke-miterlimit:4;stroke-dasharray:none;fill:none;fill-opacity:1;fill-rule: evenodd"/>
<path id="Shape2DView_nwe0019"  d="M 5.691473205567 3.330669073875e-15 Q 5.691473205567 1.7310846462394416 5.691473205567 1.899999999716331 " stroke="#191919" stroke-width="0.35 px" style="stroke-width:0.35;stroke-miterlimit:4;stroke-dasharray:none;fill:none;fill-opacity:1;fill-rule: evenodd"/>
<path id="Shape2DView_nwe0020"  d="M 5.691473205567 -1.8999999999999133 Q 5.691473205567001 -1.73108586235971 5.691473205567 3.3306690738754696e-15 " stroke="#191919" stroke-width="0.35 px" style="stroke-width:0.35;stroke-miterlimit:4;stroke-dasharray:none;fill:none;fill-opacity:1;fill-rule: evenodd"/>
<path id="Shape2DView_nwe0021"  d="M 6.29168468917 3.330669073875e-15 Q 6.291684689169999 1.7310846462394416 6.29168468917 1.899999999716331 " stroke="#191919" stroke-width="0.35 px" style="stroke-width:0.35;stroke-miterlimit:4;stroke-dasharray:none;fill:none;fill-opacity:1;fill-rule: evenodd"/>
<path id="Shape2DView_nwe0022"  d="M 6.29168468917 -1.8999999999999133 Q 6.291684689170001 -1.73108586235971 6.29168468917 3.3306690738754696e-15 " stroke="#191919" stroke-width="0.35 px" style="stroke-width:0.35;stroke-miterlimit:4;stroke-dasharray:none;fill:none;fill-opacity:1;fill-rule: evenodd"/>
<path id="Shape2DView_nwe0023"  d="M 6.870420573988 3.330669073875e-15 Q 6.870420573987998 1.7310846462395388 6.870420573988002 1.899999999716331 " stroke="#191919" stroke-width="0.35 px" style="stroke-width:0.35;stroke-miterlimit:4;stroke-dasharray:none;fill:none;fill-opacity:1;fill-rule: evenodd"/>
<path id="Shape2DView_nwe0024"  d="M 6.870420573988 -1.8999999999999133 Q 6.8704205739879995 -1.73108586235971 6.870420573988 3.3306690738754696e-15 " stroke="#191919" stroke-width="0.35 px" style="stroke-width:0.35;stroke-miterlimit:4;stroke-dasharray:none;fill:none;fill-opacity:1;fill-rule: evenodd"/>
<path id="Shape2DView_nwe0025"  d="M 7.470632057591 3.330669073875e-15 Q 7.470632057591001 1.731084646239539 7.470632057590998 1.8999999997163308 " stroke="#191919" stroke-width="0.35 px" style="stroke-width:0.35;stroke-miterlimit:4;stroke-dasharray:none;fill:none;fill-opacity:1;fill-rule: evenodd"/>
<path id="Shape2DView_nwe0026"  d="M 7.470632057591 -1.8999999999999133 Q 7.470632057591 -1.7310858623637788 7.470632057591 3.3306690738754696e-15 " stroke="#191919" stroke-width="0.35 px" style="stroke-width:0.35;stroke-miterlimit:4;stroke-dasharray:none;fill:none;fill-opacity:1;fill-rule: evenodd"/>
<path id="Shape2DView_nwe0027"  d="M 8.049367942409 3.330669073875e-15 Q 8.049367942409003 1.731084646239539 8.049367942409 1.8999999997163308 " stroke="#191919" stroke-width="0.35 px" style="stroke-width:0.35;stroke-miterlimit:4;stroke-dasharray:none;fill:none;fill-opacity:1;fill-rule: evenodd"/>
<path id="Shape2DView_nwe0028"  d="M 8.049367942409 -1.8999999999999133 Q 8.049367942409003 -1.73108586235971 8.049367942409 3.3306690738754696e-15 " stroke="#191919" stroke-width="0.35 px" style="stroke-width:0.35;stroke-miterlimit:4;stroke-dasharray:none;fill:none;fill-opacity:1;fill-rule: evenodd"/>
<path id="Shape2DView_nwe0029"  d="M 8.649579426012 3.330669073875e-15 Q 8.649579426012 1.7310846462395388 8.649579426012 1.899999999716331 " stroke="#191919" stroke-width="0.35 px" style="stroke-width:0.35;stroke-miterlimit:4;stroke-dasharray:none;fill:none;fill-opacity:1;fill-rule: evenodd"/>
<path id="Shape2DView_nwe0030"  d="M 8.649579426012 -1.8999999999999133 Q 8.649579426012 -1.7310858623637788 8.649579426012 3.3306690738754696e-15 " stroke="#191919" stroke-width="0.35 px" style="stroke-width:0.35;stroke-miterlimit:4;stroke-dasharray:none;fill:none;fill-opacity:1;fill-rule: evenodd"/>
<path id="Shape2DView_nwe0031"  d="M 9.22831531083 3.330669073875e-15 Q 9.228315310830002 1.731084646239539 9.22831531083 1.8999999997163308 " stroke="#191919" stroke-width="0.35 px" style="stroke-width:0.35;stroke-miterlimit:4;stroke-dasharray:none;fill:none;fill-opacity:1;fill-rule: evenodd"/>
<path id="Shape2DView_nwe0032"  d="M 9.22831531083 -1.8999999999999133 Q 9.22831531083 -1.73108586235971 9.22831531083 3.3306690738754696e-15 " stroke="#191919" stroke-width="0.35 px" style="stroke-width:0.35;stroke-miterlimit:4;stroke-dasharray:none;fill:none;fill-opacity:1;fill-rule: evenodd"/>
<path id="Shape2DView_nwe0033"  d="M 9.828526794433 3.330669073875e-15 Q 9.828526794433 1.7310846462394416 9.828526794433 1.899999999716331 " stroke="#191919" stroke-width="0.35 px" style="stroke-width:0.35;stroke-miterlimit:4;stroke-dasharray:none;fill:none;fill-opacity:1;fill-rule: evenodd"/>
<path id="Shape2DView_nwe0034"  d="M 9.828526794433 -1.8999999999999133 Q 9.828526794433 -1.73108586235971 9.828526794433 3.3306690738754696e-15 " stroke="#191919" stroke-width="0.35 px" style="stroke-width:0.35;stroke-miterlimit:4;stroke-dasharray:none;fill:none;fill-opacity:1;fill-rule: evenodd"/>
<path id="Shape2DView_nwe0035"  d="M 10.407262679251 3.330669073875e-15 Q 10.407262679251001 1.7310846462393248 10.407262679251 1.899999999716331 " stroke="#191919" stroke-width="0.35 px" style="stroke-width:0.35;stroke-miterlimit:4;stroke-dasharray:none;fill:none;fill-opacity:1;fill-rule: evenodd"/>
<path id="Shape2DView_nwe0036"  d="M 10.407262679251 -1.8999999999999133 Q 10.407262679251 -1.7310858623637788 10.407262679251 3.3306690738754696e-15 " stroke="#191919" stroke-width="0.35 px" style="stroke-width:0.35;stroke-miterlimit:4;stroke-dasharray:none;fill:none;fill-opacity:1;fill-rule: evenodd"/>
<path id="Shape2DView_nwe0037"  d="M 11.007474162854 3.330669073875e-15 Q 11.007474162853999 1.7310846462394984 11.007474162854004 1.899999999716331 " stroke="#191919" stroke-width="0.35 px" style="stroke-width:0.35;stroke-miterlimit:4;stroke-dasharray:none;fill:none;fill-opacity:1;fill-rule: evenodd"/>
<path id="Shape2DView_nwe0038"  d="M 11.007474162854 -1.8999999999999133 Q 11.007474162854002 -1.73108586235971 11.007474162854 3.3306690738754696e-15 " stroke="#191919" stroke-width="0.35 px" style="stroke-width:0.35;stroke-miterlimit:4;stroke-dasharray:none;fill:none;fill-opacity:1;fill-rule: evenodd"/>
<path id="Shape2DView_nwe0039"  d="M 11.586210047672 3.330669073875e-15 Q 11.586210047671994 1.731084646239539 11.586210047672003 1.8999999997163308 " stroke="#191919" stroke-width="0.35 px" style="stroke-width:0.35;stroke-miterlimit:4;stroke-dasharray:none;fill:none;fill-opacity:1;fill-rule: evenodd"/>
<path id="Shape2DView_nwe0040"  d="M 11.586210047672 -1.8999999999999133 Q 11.586210047671997 -1.73108586235971 11.586210047672 3.3306690738754696e-15 " stroke="#191919" stroke-width="0.35 px" style="stroke-width:0.35;stroke-miterlimit:4;stroke-dasharray:none;fill:none;fill-opacity:1;fill-rule: evenodd"/>
<path id="Shape2DView_nwe0041"  d="M 12.186421531275 3.330669073875e-15 Q 12.186421531275005 1.7310846462395038 12.186421531274997 1.899999999716331 " stroke="#191919" stroke-width="0.35 px" style="stroke-width:0.35;stroke-miterlimit:4;stroke-dasharray:none;fill:none;fill-opacity:1;fill-rule: evenodd"/>
<path id="Shape2DView_nwe0042"  d="M 12.186421531275 -1.8999999999999133 Q 12.186421531275002 -1.73108586235971 12.186421531275 3.3306690738754696e-15 " stroke="#191919" stroke-width="0.35 px" style="stroke-width:0.35;stroke-miterlimit:4;stroke-dasharray:none;fill:none;fill-opacity:1;fill-rule: evenodd"/>
<path id="Shape2DView_nwe0043"  d="M 12.765157416093 3.330669073875e-15 Q 12.765157416092999 1.7310846462395388 12.765157416093 1.899999999716331 " stroke="#191919" stroke-width="0.35 px" style="stroke-width:0.35;stroke-miterlimit:4;stroke-dasharray:none;fill:none;fill-opacity:1;fill-rule: evenodd"/>
<path id="Shape2DView_nwe0044"  d="M 12.765157416093 -1.8999999999999133 Q 12.765157416093 -1.73108586235971 12.765157416093 3.3306690738754696e-15 " stroke="#191919" stroke-width="0.35 px" style="stroke-width:0.35;stroke-miterlimit:4;stroke-dasharray:none;fill:none;fill-opacity:1;fill-rule: evenodd"/>
<path id="Shape2DView_nwe0045"  d="M 13.57 2.83106871279451e-15 L 13.57 -0.21273250459628223 L 13.57 -0.42278977451699484 L 13.57 -0.6275302177148151 L 13.57 -0.8243791043233583 L 13.57 -1.0108609453791375 L 13.57 -1.184630623531592 L 13.57 -1.3435028842544388 L 13.57 -1.485479816689255 L 13.57 -1.6087759785337385 L 13.57 -1.711840849014595 L 13.57 -1.793378327585897 L 13.57 -1.8523630331454637 L 13.57 -1.8880531987971598 L 13.57 -1.8999999999999988 " stroke="#191919" stroke-width="0.35 px" style="stroke-width:0.35;stroke-miterlimit:4;stroke-dasharray:none;fill:none;fill-opacity:1;fill-rule: evenodd"/>
<path id="Shape2DView_nwe0046"  d="M 13.57 1.900000000000001 L 13.57 1.888053198797162 L 13.57 1.852363033145466 L 13.57 1.7933783275858997 L 13.57 1.7118408490145975 L 13.57 1.6087759785337412 L 13.57 1.485479816689258 L 13.57 1.3435028842544416 L 13.57 1.184630623531595 L 13.57 1.010860945379141 L 13.57 0.8243791043233619 L 13.57 0.627530217714819 L 13.57 0.42278977451699895 L 13.57 0.21273250459628654 L 13.57 3.2964344964705044e-15 " stroke="#191919" stroke-width="0.35 px" style="stroke-width:0.35;stroke-miterlimit:4;stroke-dasharray:none;fill:none;fill-opacity:1;fill-rule: evenodd"/>
<path id="Shape2DView_nwe0047"  d="M 13.85 3.064215547965775e-15 L 13.85 -0.25192007123243976 L 13.85 -0.5006721014017047 L 13.85 -0.7431278893991234 L 13.85 -0.9762384130145035 L 13.85 -1.197072172159505 L 13.85 -1.4028520541821483 L 13.85 -1.5909902576697303 L 13.85 -1.7591208355530656 L 13.85 -1.9051294482636378 L 13.85 -2.027179952780442 L 13.85 -2.1237374931938255 L 13.85 -2.1935878024091022 L 13.85 -2.2358524722597943 L 13.85 -2.249999999999999 " stroke="#191919" stroke-width="0.35 px" style="stroke-width:0.35;stroke-miterlimit:4;stroke-dasharray:none;fill:none;fill-opacity:1;fill-rule: evenodd"/>
<path id="Shape2DView_nwe0048"  d="M 13.85 2.250000000000001 L 13.85 2.235852472259797 L 13.85 2.193587802409104 L 13.85 2.123737493193828 L 13.85 2.027179952780444 L 13.85 1.9051294482636407 L 13.85 1.7591208355530685 L 13.85 1.5909902576697332 L 13.85 1.402852054182152 L 13.85 1.197072172159509 L 13.85 0.9762384130145072 L 13.85 0.7431278893991274 L 13.85 0.500672101401709 L 13.85 0.2519200712324443 L 13.85 3.6153066075820835e-15 " stroke="#191919" stroke-width="0.35 px" style="stroke-width:0.35;stroke-miterlimit:4;stroke-dasharray:none;fill:none;fill-opacity:1;fill-rule: evenodd"/>
<path id="Shape2DView_nwe0049"  d="M 14.41 3.064215547965775e-15 L 14.41 -0.25192007123243976 L 14.41 -0.5006721014017047 L 14.41 -0.7431278893991234 L 14.41 -0.9762384130145035 L 14.41 -1.197072172159505 L 14.41 -1.4028520541821483 L 14.41 -1.5909902576697303 L 14.41 -1.7591208355530656 L 14.41 -1.9051294482636378 L 14.41 -2.027179952780442 L 14.41 -2.1237374931938255 L 14.41 -2.1935878024091022 L 14.41 -2.2358524722597943 L 14.41 -2.249999999999999 " stroke="#191919" stroke-width="0.35 px" style="stroke-width:0.35;stroke-miterlimit:4;stroke-dasharray:none;fill:none;fill-opacity:1;fill-rule: evenodd"/>
<path id="Shape2DView_nwe0050"  d="M 14.41 2.250000000000001 L 14.41 2.235852472259797 L 14.41 2.193587802409104 L 14.41 2.123737493193828 L 14.41 2.027179952780444 L 14.41 1.9051294482636407 L 14.41 1.7591208355530685 L 14.41 1.5909902576697332 L 14.41 1.402852054182152 L 14.41 1.197072172159509 L 14.41 0.9762384130145072 L 14.41 0.7431278893991274 L 14.41 0.500672101401709 L 14.41 0.2519200712324443 L 14.41 3.6153066075820835e-15 " stroke="#191919" stroke-width="0.35 px" style="stroke-width:0.35;stroke-miterlimit:4;stroke-dasharray:none;fill:none;fill-opacity:1;fill-rule: evenodd"/>
<path id="Shape2DView_nwe0051"  d="M 14.62 1.91513471747875e-15 L 14.62 -0.05878134995423478 L 14.62 -0.1168234903270633 L 14.62 -0.173396507526461 L 14.62 -0.2277889630367164 L 14.62 -0.2793168401705502 L 14.62 -0.32733214597583365 L 14.62 -0.37123106012293605 L 14.62 -0.41046152829571436 L 14.62 -0.44453020459484793 L 14.62 -0.4730086556487688 L 14.62 -0.49553874841189177 L 14.62 -0.5118371538954564 L 14.62 -0.5216989101939513 L 14.62 -0.524999999999999 " stroke="#191919" stroke-width="0.35 px" style="stroke-width:0.35;stroke-miterlimit:4;stroke-dasharray:none;fill:none;fill-opacity:1;fill-rule: evenodd"/>
<path id="Shape2DView_nwe0052"  d="M 14.62 0.525000000000001 L 14.62 0.5216989101939534 L 14.62 0.5118371538954585 L 14.62 0.49553874841189405 L 14.62 0.47300865564877115 L 14.62 0.44453020459485026 L 14.62 0.41046152829571675 L 14.62 0.37123106012293855 L 14.62 0.32733214597583615 L 14.62 0.2793168401705528 L 14.62 0.22778896303671914 L 14.62 0.17339650752646382 L 14.62 0.11682349032706617 L 14.62 0.058781349954237734 L 14.62 2.0437226313892222e-15 " stroke="#191919" stroke-width="0.35 px" style="stroke-width:0.35;stroke-miterlimit:4;stroke-dasharray:none;fill:none;fill-opacity:1;fill-rule: evenodd"/>
<path id="Shape2DView_nwe0053"  d="M 15.239999999999986 -0.34999999999999915 A 0.35 0.35 0 0 1 15.24 0.35" stroke="#191919" stroke-width="0.35 px" style="stroke-width:0.35;stroke-miterlimit:4;stroke-dasharray:none;fill:none;fill-opacity:1;fill-rule: evenodd"/>
<path id="Shape2DView_nwe0054"  d="M 0.8300000000033947 3.064215547967334e-15 L 0.8145695261025026 2.9821735677835078e-15 L 0.7992052614066552 2.9001260739758558e-15 L 0.7839072103556646 2.8180730902539334e-15 L 0.7686753773703003 2.7360146403288927e-15 L 0.7535097668521189 2.6539507479134664e-15 L 0.7384103831836626 2.5718814367219524e-15 L 0.7233772307282038 2.489806730470217e-15 L 0.7084103138298872 2.407726652875685e-15 L 0.6935096368137863 2.3256412276573437e-15 L 0.6786752039858754 2.2435504785357068e-15 L 0.6639070196328305 2.161454429232838e-15 L 0.6492050880222848 2.079353103472334e-15 L 0.6345694134026871 1.9972465249793166e-15 L 0.6200000000034152 1.915134717480345e-15 " stroke="#191919" stroke-width="0.35 px" style="stroke-width:0.35;stroke-miterlimit:4;stroke-dasharray:none;fill:none;fill-opacity:1;fill-rule: evenodd"/>
<path id="Shape2DView_nwe0055"  d="M 0.83 3.064215547965e-15 L 1.39 3.064215547965e-15 " stroke="#191919" stroke-width="0.35 px" style="stroke-width:0.35;stroke-miterlimit:4;stroke-dasharray:none;fill:none;fill-opacity:1;fill-rule: evenodd"/>
<path id="Shape2DView_nwe0056"  d="M 1.3900000000000534 3.0642155479651762e-15 L 1.3989571577479454 3.0458801770420695e-15 L 1.4087577787611272 3.0277372641972724e-15 L 1.4193925648782408 3.009804022190152e-15 L 1.4308514265389212 2.9920974648586715e-15 L 1.4431234923560834 2.974634390977821e-15 L 1.4561971194299554 2.9574313683220855e-15 L 1.4700599043940659 2.9405047179470683e-15 L 1.484698695182714 2.9238704987051852e-15 L 1.5000996035087537 2.907544492010122e-15 L 1.516248018039854 2.891542186864502e-15 L 1.5331286182607338 2.8758787651649776e-15 L 1.550725389008225 2.8605690872986796e-15 L 1.5690216356653668 2.8456276780446967e-15 L 1.5880000000001206 2.8310687127939528e-15 " stroke="#191919" stroke-width="0.35 px" style="stroke-width:0.35;stroke-miterlimit:4;stroke-dasharray:none;fill:none;fill-opacity:1;fill-rule: evenodd"/>
<path id="Shape2DView_nwe0057"  d="M 1.588 2.831068712794e-15 L 2.754842583907 2.831068712794e-15 " stroke="#191919" stroke-width="0.35 px" style="stroke-width:0.35;stroke-miterlimit:4;stroke-dasharray:none;fill:none;fill-opacity:1;fill-rule: evenodd"/>
<path id="Shape2DView_nwe0058"  d="M 3.333578468725016 2.831068712794408e-15 L 3.317010675369409 2.8680917985016093e-15 L 3.289880299320126 2.902237024195596e-15 L 3.2532378049611697 2.9321823166618245e-15 L 3.208501957561224 2.956768220419576e-15 L 3.157404889925837 2.9750427908220418e-15 L 3.101925035733201 2.9862984525187784e-15 L 3.044210526316 2.9900993961531702e-15 L 2.9864960168987995 2.9862984525187784e-15 L 2.9310161627061633 2.9750427908220418e-15 L 2.8799190950707763 2.956768220419576e-15 L 2.8351832476708307 2.9321823166618245e-15 L 2.7985407533118742 2.902237024195596e-15 L 2.7714103772625913 2.8680917985016093e-15 L 2.7548425839069846 2.831068712794408e-15 " stroke="#191919" stroke-width="0.35 px" style="stroke-width:0.35;stroke-miterlimit:4;stroke-dasharray:none;fill:none;fill-opacity:1;fill-rule: evenodd"/>
<path id="Shape2DView_nwe0059"  d="M 3.333578468725 2.831068712794e-15 L 3.933789952328 2.831068712794e-15 " stroke="#191919" stroke-width="0.35 px" style="stroke-width:0.35;stroke-miterlimit:4;stroke-dasharray:none;fill:none;fill-opacity:1;fill-rule: evenodd"/>
<path id="Shape2DView_nwe0060"  d="M 4.512525837146015 2.8310687127944075e-15 L 4.4959580437904085 2.8680917985016093e-15 L 4.468827667741126 2.902237024195596e-15 L 4.4321851733821696 2.9321823166618245e-15 L 4.387449325982224 2.956768220419576e-15 L 4.336352258346837 2.9750427908220418e-15 L 4.2808724041542 2.9862984525187784e-15 L 4.223157894737 2.9900993961531702e-15 L 4.165443385319799 2.9862984525187784e-15 L 4.109963531127162 2.9750427908220418e-15 L 4.058866463491776 2.956768220419576e-15 L 4.014130616091831 2.9321823166618245e-15 L 3.9774881217328737 2.902237024195596e-15 L 3.9503577456835908 2.8680917985016093e-15 L 3.933789952327984 2.831068712794408e-15 " stroke="#191919" stroke-width="0.35 px" style="stroke-width:0.35;stroke-miterlimit:4;stroke-dasharray:none;fill:none;fill-opacity:1;fill-rule: evenodd"/>
<path id="Shape2DView_nwe0061"  d="M 4.512525837146 2.831068712794e-15 L 5.112737320749 2.831068712794e-15 " stroke="#191919" stroke-width="0.35 px" style="stroke-width:0.35;stroke-miterlimit:4;stroke-dasharray:none;fill:none;fill-opacity:1;fill-rule: evenodd"/>
<path id="Shape2DView_nwe0062"  d="M 5.691473205567015 2.8310687127944075e-15 L 5.674905412211409 2.8680917985016093e-15 L 5.647775036162126 2.902237024195596e-15 L 5.61113254180317 2.9321823166618245e-15 L 5.566396694403224 2.956768220419576e-15 L 5.515299626767837 2.9750427908220418e-15 L 5.459819772575201 2.9862984525187784e-15 L 5.402105263158 2.9900993961531702e-15 L 5.344390753740799 2.9862984525187784e-15 L 5.288910899548163 2.9750427908220418e-15 L 5.237813831912776 2.956768220419576e-15 L 5.193077984512831 2.9321823166618245e-15 L 5.156435490153874 2.902237024195596e-15 L 5.129305114104591 2.8680917985016093e-15 L 5.112737320748985 2.831068712794408e-15 " stroke="#191919" stroke-width="0.35 px" style="stroke-width:0.35;stroke-miterlimit:4;stroke-dasharray:none;fill:none;fill-opacity:1;fill-rule: evenodd"/>
<path id="Shape2DView_nwe0063"  d="M 5.691473205567 2.831068712794e-15 L 6.29168468917 2.831068712794e-15 " stroke="#191919" stroke-width="0.35 px" style="stroke-width:0.35;stroke-miterlimit:4;stroke-dasharray:none;fill:none;fill-opacity:1;fill-rule: evenodd"/>
<path id="Shape2DView_nwe0064"  d="M 6.8704205739880155 2.8310687127944075e-15 L 6.853852780632409 2.8680917985016093e-15 L 6.826722404583126 2.902237024195596e-15 L 6.79007991022417 2.9321823166618245e-15 L 6.745344062824224 2.956768220419576e-15 L 6.694246995188838 2.9750427908220418e-15 L 6.638767140996201 2.9862984525187784e-15 L 6.581052631579 2.9900993961531702e-15 L 6.5233381221618 2.9862984525187784e-15 L 6.467858267969163 2.9750427908220418e-15 L 6.416761200333776 2.956768220419576e-15 L 6.372025352933831 2.9321823166618245e-15 L 6.335382858574874 2.902237024195596e-15 L 6.3082524825255915 2.8680917985016093e-15 L 6.291684689169985 2.831068712794408e-15 " stroke="#191919" stroke-width="0.35 px" style="stroke-width:0.35;stroke-miterlimit:4;stroke-dasharray:none;fill:none;fill-opacity:1;fill-rule: evenodd"/>
<path id="Shape2DView_nwe0065"  d="M 6.870420573988 2.831068712794e-15 L 7.470632057591 2.831068712794e-15 " stroke="#191919" stroke-width="0.35 px" style="stroke-width:0.35;stroke-miterlimit:4;stroke-dasharray:none;fill:none;fill-opacity:1;fill-rule: evenodd"/>
<path id="Shape2DView_nwe0066"  d="M 8.049367942409015 2.8310687127944075e-15 L 8.032800149053408 2.8680917985016093e-15 L 8.005669773004126 2.902237024195596e-15 L 7.96902727864517 2.9321823166618245e-15 L 7.924291431245224 2.956768220419576e-15 L 7.873194363609837 2.9750427908220418e-15 L 7.8177145094172005 2.9862984525187784e-15 L 7.76 2.9900993961531702e-15 L 7.702285490582799 2.9862984525187787e-15 L 7.646805636390163 2.9750427908220418e-15 L 7.595708568754776 2.956768220419576e-15 L 7.550972721354831 2.9321823166618245e-15 L 7.514330226995874 2.9022370241955963e-15 L 7.487199850946591 2.8680917985016093e-15 L 7.470632057590985 2.831068712794408e-15 " stroke="#191919" stroke-width="0.35 px" style="stroke-width:0.35;stroke-miterlimit:4;stroke-dasharray:none;fill:none;fill-opacity:1;fill-rule: evenodd"/>
<path id="Shape2DView_nwe0067"  d="M 8.049367942409 2.831068712794e-15 L 8.649579426012 2.831068712794e-15 " stroke="#191919" stroke-width="0.35 px" style="stroke-width:0.35;stroke-miterlimit:4;stroke-dasharray:none;fill:none;fill-opacity:1;fill-rule: evenodd"/>
<path id="Shape2DView_nwe0068"  d="M 9.228315310830014 2.8310687127944075e-15 L 9.211747517474407 2.8680917985016093e-15 L 9.184617141425125 2.902237024195596e-15 L 9.14797464706617 2.9321823166618245e-15 L 9.103238799666224 2.956768220419576e-15 L 9.052141732030837 2.9750427908220418e-15 L 8.9966618778382 2.9862984525187784e-15 L 8.938947368421 2.9900993961531702e-15 L 8.881232859003799 2.9862984525187787e-15 L 8.825753004811162 2.9750427908220418e-15 L 8.774655937175776 2.956768220419576e-15 L 8.72992008977583 2.9321823166618245e-15 L 8.693277595416873 2.9022370241955963e-15 L 8.666147219367591 2.8680917985016093e-15 L 8.649579426011984 2.831068712794408e-15 " stroke="#191919" stroke-width="0.35 px" style="stroke-width:0.35;stroke-miterlimit:4;stroke-dasharray:none;fill:none;fill-opacity:1;fill-rule: evenodd"/>
<path id="Shape2DView_nwe0069"  d="M 9.22831531083 2.831068712794e-15 L 9.828526794433 2.831068712794e-15 " stroke="#191919" stroke-width="0.35 px" style="stroke-width:0.35;stroke-miterlimit:4;stroke-dasharray:none;fill:none;fill-opacity:1;fill-rule: evenodd"/>
<path id="Shape2DView_nwe0070"  d="M 10.407262679251016 2.831068712794408e-15 L 10.390694885895408 2.8680917985016093e-15 L 10.363564509846126 2.9022370241955963e-15 L 10.32692201548717 2.9321823166618245e-15 L 10.282186168087225 2.956768220419576e-15 L 10.231089100451838 2.9750427908220418e-15 L 10.175609246259201 2.9862984525187784e-15 L 10.117894736842 2.9900993961531702e-15 L 10.0601802274248 2.9862984525187784e-15 L 10.004700373232163 2.9750427908220418e-15 L 9.953603305596776 2.956768220419576e-15 L 9.90886745819683 2.9321823166618245e-15 L 9.872224963837875 2.902237024195596e-15 L 9.845094587788592 2.8680917985016093e-15 L 9.828526794432985 2.8310687127944075e-15 " stroke="#191919" stroke-width="0.35 px" style="stroke-width:0.35;stroke-miterlimit:4;stroke-dasharray:none;fill:none;fill-opacity:1;fill-rule: evenodd"/>
<path id="Shape2DView_nwe0071"  d="M 10.407262679251001 2.831068712794e-15 L 11.007474162854002 2.831068712794e-15 " stroke="#191919" stroke-width="0.35 px" style="stroke-width:0.35;stroke-miterlimit:4;stroke-dasharray:none;fill:none;fill-opacity:1;fill-rule: evenodd"/>
<path id="Shape2DView_nwe0072"  d="M 11.586210047672015 2.831068712794408e-15 L 11.569642254316408 2.8680917985016093e-15 L 11.542511878267126 2.9022370241955963e-15 L 11.50586938390817 2.9321823166618245e-15 L 11.461133536508225 2.956768220419576e-15 L 11.410036468872837 2.9750427908220418e-15 L 11.3545566146802 2.9862984525187784e-15 L 11.296842105263 2.9900993961531702e-15 L 11.2391275958458 2.9862984525187784e-15 L 11.183647741653163 2.9750427908220418e-15 L 11.132550674017775 2.956768220419576e-15 L 11.08781482661783 2.9321823166618245e-15 L 11.051172332258874 2.9022370241955963e-15 L 11.024041956209592 2.8680917985016093e-15 L 11.007474162853985 2.831068712794408e-15 " stroke="#191919" stroke-width="0.35 px" style="stroke-width:0.35;stroke-miterlimit:4;stroke-dasharray:none;fill:none;fill-opacity:1;fill-rule: evenodd"/>
<path id="Shape2DView_nwe0073"  d="M 11.586210047672001 2.831068712794e-15 L 12.186421531275002 2.831068712794e-15 " stroke="#191919" stroke-width="0.35 px" style="stroke-width:0.35;stroke-miterlimit:4;stroke-dasharray:none;fill:none;fill-opacity:1;fill-rule: evenodd"/>
<path id="Shape2DView_nwe0074"  d="M 12.765157416093015 2.8310687127944075e-15 L 12.748589622737407 2.8680917985016093e-15 L 12.721459246688125 2.902237024195596e-15 L 12.68481675232917 2.9321823166618245e-15 L 12.640080904929224 2.956768220419576e-15 L 12.588983837293837 2.9750427908220418e-15 L 12.5335039831012 2.9862984525187784e-15 L 12.475789473684 2.9900993961531702e-15 L 12.418074964266799 2.9862984525187787e-15 L 12.362595110074162 2.9750427908220418e-15 L 12.311498042438776 2.956768220419576e-15 L 12.26676219503883 2.9321823166618245e-15 L 12.230119700679873 2.9022370241955963e-15 L 12.202989324630591 2.8680917985016093e-15 L 12.186421531274984 2.831068712794408e-15 " stroke="#191919" stroke-width="0.35 px" style="stroke-width:0.35;stroke-miterlimit:4;stroke-dasharray:none;fill:none;fill-opacity:1;fill-rule: evenodd"/>
<path id="Shape2DView_nwe0075"  d="M 12.765157416093 2.831068712794e-15 L 13.57 2.831068712794e-15 " stroke="#191919" stroke-width="0.35 px" style="stroke-width:0.35;stroke-miterlimit:4;stroke-dasharray:none;fill:none;fill-opacity:1;fill-rule: evenodd"/>
<path id="Shape2DView_nwe0076"  d="M 13.57000000000005 2.8310687127944505e-15 L 13.59454796001517 2.8449916982896614e-15 L 13.618472154633569 2.859388432036827e-15 L 13.64175198744815 2.8742465198469747e-15 L 13.664367416784717 2.889553170350106e-15 L 13.686298972955923 2.905295206007328e-15 L 13.707527775022765 2.9214590744554297e-15 L 13.728035547049249 2.9380308601741552e-15 L 13.747804633836187 2.9549962964661094e-15 L 13.766818016120617 2.9723407777390015e-15 L 13.785059325227722 2.99004937207964e-15 L 13.802512857162686 3.0081068341088586e-15 L 13.819163586130287 3.026497618106308e-15 L 13.834997177470667 3.045205891393809e-15 L 13.850000000000069 3.0642155479657517e-15 " stroke="#191919" stroke-width="0.35 px" style="stroke-width:0.35;stroke-miterlimit:4;stroke-dasharray:none;fill:none;fill-opacity:1;fill-rule: evenodd"/>
<path id="Shape2DView_nwe0077"  d="M 13.85 3.064215547965e-15 L 14.41 3.064215547965e-15 " stroke="#191919" stroke-width="0.35 px" style="stroke-width:0.35;stroke-miterlimit:4;stroke-dasharray:none;fill:none;fill-opacity:1;fill-rule: evenodd"/>
<path id="Shape2DView_nwe0078"  d="M 14.620000000016233 1.9151347174818408e-15 L 14.605430586616961 1.9972465249807586e-15 L 14.590794911997392 2.079353103473792e-15 L 14.576092980386846 2.1614544292343115e-15 L 14.561324796033773 2.243550478537193e-15 L 14.546490363205834 2.3256412276588457e-15 L 14.531589686189761 2.4077266528772092e-15 L 14.516622769291473 2.4898067304717506e-15 L 14.501589616835986 2.5718814367235018e-15 L 14.486490233167473 2.6539507479150346e-15 L 14.47132462264932 2.7360146403304767e-15 L 14.456092789663956 2.81807309025553e-15 L 14.440794738612936 2.900126073977465e-15 L 14.425430473917089 2.982173567785133e-15 L 14.410000000016197 3.0642155479689687e-15 " stroke="#191919" stroke-width="0.35 px" style="stroke-width:0.35;stroke-miterlimit:4;stroke-dasharray:none;fill:none;fill-opacity:1;fill-rule: evenodd"/>
<path id="Shape2DView_nwe0079"  d="M 0.8300000000033947 -2.2499999999995812 L 0.6200000000034152 -0.5249999999995691 " stroke="#191919" stroke-width="0.35 px" style="stroke-width:0.35;stroke-miterlimit:4;stroke-dasharray:none;fill:none;fill-opacity:1;fill-rule: evenodd"/>
<path id="Shape2DView_nwe0080"  d="M 0.8300000000033947 2.249999999999583 L 0.6200000000034152 0.5249999999995709 " stroke="#191919" stroke-width="0.35 px" style="stroke-width:0.35;stroke-miterlimit:4;stroke-dasharray:none;fill:none;fill-opacity:1;fill-rule: evenodd"/>
<path id="Shape2DView_nwe0081"  d="M 0.83 -2.249999999999999 L 1.39 -2.249999999999999 " stroke="#191919" stroke-width="0.35 px" style="stroke-width:0.35;stroke-miterlimit:4;stroke-dasharray:none;fill:none;fill-opacity:1;fill-rule: evenodd"/>
<path id="Shape2DView_nwe0082"  d="M 0.83 2.250000000000001 L 1.39 2.250000000000001 " stroke="#191919" stroke-width="0.35 px" style="stroke-width:0.35;stroke-miterlimit:4;stroke-dasharray:none;fill:none;fill-opacity:1;fill-rule: evenodd"/>
<path id="Shape2DView_nwe0083"  d="M 1.3900000000000534 -2.2500000000000147 L 1.5880000000001204 -1.9000000000001074 " stroke="#191919" stroke-width="0.35 px" style="stroke-width:0.35;stroke-miterlimit:4;stroke-dasharray:none;fill:none;fill-opacity:1;fill-rule: evenodd"/>
<path id="Shape2DView_nwe0084"  d="M 1.3900000000000534 2.2500000000000164 L 1.5880000000001204 1.9000000000001092 " stroke="#191919" stroke-width="0.35 px" style="stroke-width:0.35;stroke-miterlimit:4;stroke-dasharray:none;fill:none;fill-opacity:1;fill-rule: evenodd"/>
<path id="Shape2DView_nwe0085"  d="M 0.6199999999529223 -0.349999999999999 Q 0.0467197137007615 -0.349999999999999 1.2434497875801753e-14 -0.34999999999999915 " stroke="#191919" stroke-width="0.35 px" style="stroke-width:0.35;stroke-miterlimit:4;stroke-dasharray:none;fill:none;fill-opacity:1;fill-rule: evenodd"/>
<path id="Shape2DView_nwe0086"  d="M 0.6199999999526913 0.350000000000001 Q 0.04671971370060274 0.350000000000001 -1.2656542480726785e-14 0.3500000000000008 " stroke="#191919" stroke-width="0.35 px" style="stroke-width:0.35;stroke-miterlimit:4;stroke-dasharray:none;fill:none;fill-opacity:1;fill-rule: evenodd"/>
<path id="Shape2DView_nwe0087"  d="M 1.588 -1.8999999999999988 L 2.754842583907 -1.8999999999999988 " stroke="#191919" stroke-width="0.35 px" style="stroke-width:0.35;stroke-miterlimit:4;stroke-dasharray:none;fill:none;fill-opacity:1;fill-rule: evenodd"/>
<path id="Shape2DView_nwe0088"  d="M 1.588 1.900000000000001 L 2.754842583907 1.900000000000001 " stroke="#191919" stroke-width="0.35 px" style="stroke-width:0.35;stroke-miterlimit:4;stroke-dasharray:none;fill:none;fill-opacity:1;fill-rule: evenodd"/>
<path id="Shape2DView_nwe0089"  d="M 3.3335784687250163 1.9000000000000035 Q 3.3134655390082584 1.9507369490529343 3.293352609291501 2.0014738981058655 Q 2.9564031104947492 2.30998361357441 2.7548425839069846 1.9000000000000037 " stroke="#191919" stroke-width="0.35 px" style="stroke-width:0.35;stroke-miterlimit:4;stroke-dasharray:none;fill:none;fill-opacity:1;fill-rule: evenodd"/>
<path id="Shape2DView_nwe0090"  d="M 3.3335784687250163 -1.9000000000000017 Q 3.3134655390082584 -1.9507369490529325 3.293352609291501 -2.0014738981058637 Q 2.9564031104947492 -2.309983613574407 2.7548425839069846 -1.9000000000000017 " stroke="#191919" stroke-width="0.35 px" style="stroke-width:0.35;stroke-miterlimit:4;stroke-dasharray:none;fill:none;fill-opacity:1;fill-rule: evenodd"/>
<path id="Shape2DView_nwe0091"  d="M 3.333578468725 -1.8999999999999988 L 3.933789952328 -1.8999999999999988 " stroke="#191919" stroke-width="0.35 px" style="stroke-width:0.35;stroke-miterlimit:4;stroke-dasharray:none;fill:none;fill-opacity:1;fill-rule: evenodd"/>
<path id="Shape2DView_nwe0092"  d="M 3.333578468725 1.900000000000001 L 3.933789952328 1.900000000000001 " stroke="#191919" stroke-width="0.35 px" style="stroke-width:0.35;stroke-miterlimit:4;stroke-dasharray:none;fill:none;fill-opacity:1;fill-rule: evenodd"/>
<path id="Shape2DView_nwe0093"  d="M 4.512525837146015 1.9000000000000037 Q 4.223286699484955 2.36576525803115 3.9337899523279845 1.9000000000000044 " stroke="#191919" stroke-width="0.35 px" style="stroke-width:0.35;stroke-miterlimit:4;stroke-dasharray:none;fill:none;fill-opacity:1;fill-rule: evenodd"/>
<path id="Shape2DView_nwe0094"  d="M 4.512525837146015 -1.900000000000002 Q 4.223286699484943 -2.36576525803115 3.933789952327984 -1.9000000000000026 " stroke="#191919" stroke-width="0.35 px" style="stroke-width:0.35;stroke-miterlimit:4;stroke-dasharray:none;fill:none;fill-opacity:1;fill-rule: evenodd"/>
<path id="Shape2DView_nwe0095"  d="M 4.512525837146 -1.8999999999999988 L 5.112737320749 -1.8999999999999988 " stroke="#191919" stroke-width="0.35 px" style="stroke-width:0.35;stroke-miterlimit:4;stroke-dasharray:none;fill:none;fill-opacity:1;fill-rule: evenodd"/>
<path id="Shape2DView_nwe0096"  d="M 4.512525837146 1.900000000000001 L 5.112737320749 1.900000000000001 " stroke="#191919" stroke-width="0.35 px" style="stroke-width:0.35;stroke-miterlimit:4;stroke-dasharray:none;fill:none;fill-opacity:1;fill-rule: evenodd"/>
<path id="Shape2DView_nwe0097"  d="M 5.691473205567015 1.9000000000000037 Q 5.402234067905967 2.3657652580311455 5.112737320748985 1.9000000000000044 " stroke="#191919" stroke-width="0.35 px" style="stroke-width:0.35;stroke-miterlimit:4;stroke-dasharray:none;fill:none;fill-opacity:1;fill-rule: evenodd"/>
<path id="Shape2DView_nwe0098"  d="M 5.691473205567015 -1.900000000000002 Q 5.402234067905953 -2.365765258031148 5.112737320748985 -1.9000000000000024 " stroke="#191919" stroke-width="0.35 px" style="stroke-width:0.35;stroke-miterlimit:4;stroke-dasharray:none;fill:none;fill-opacity:1;fill-rule: evenodd"/>
<path id="Shape2DView_nwe0099"  d="M 5.691473205567 -1.8999999999999988 L 6.29168468917 -1.8999999999999988 " stroke="#191919" stroke-width="0.35 px" style="stroke-width:0.35;stroke-miterlimit:4;stroke-dasharray:none;fill:none;fill-opacity:1;fill-rule: evenodd"/>
<path id="Shape2DView_nwe0100"  d="M 5.691473205567 1.900000000000001 L 6.29168468917 1.900000000000001 " stroke="#191919" stroke-width="0.35 px" style="stroke-width:0.35;stroke-miterlimit:4;stroke-dasharray:none;fill:none;fill-opacity:1;fill-rule: evenodd"/>
<path id="Shape2DView_nwe0101"  d="M 6.8704205739880155 1.9000000000000035 Q 6.850307644271258 1.9507369490529343 6.8301947145545014 2.0014738981058655 Q 6.49324521575775 2.30998361357441 6.291684689169985 1.9000000000000035 " stroke="#191919" stroke-width="0.35 px" style="stroke-width:0.35;stroke-miterlimit:4;stroke-dasharray:none;fill:none;fill-opacity:1;fill-rule: evenodd"/>
<path id="Shape2DView_nwe0102"  d="M 6.8704205739880155 -1.9000000000000017 Q 6.850307644271258 -1.9507369490529325 6.8301947145545014 -2.0014738981058637 Q 6.49324521575775 -2.309983613574408 6.291684689169985 -1.9000000000000017 " stroke="#191919" stroke-width="0.35 px" style="stroke-width:0.35;stroke-miterlimit:4;stroke-dasharray:none;fill:none;fill-opacity:1;fill-rule: evenodd"/>
<path id="Shape2DView_nwe0103"  d="M 6.870420573988 -1.8999999999999988 L 7.470632057591 -1.8999999999999988 " stroke="#191919" stroke-width="0.35 px" style="stroke-width:0.35;stroke-miterlimit:4;stroke-dasharray:none;fill:none;fill-opacity:1;fill-rule: evenodd"/>
<path id="Shape2DView_nwe0104"  d="M 6.870420573988 1.900000000000001 L 7.470632057591 1.900000000000001 " stroke="#191919" stroke-width="0.35 px" style="stroke-width:0.35;stroke-miterlimit:4;stroke-dasharray:none;fill:none;fill-opacity:1;fill-rule: evenodd"/>
<path id="Shape2DView_nwe0105"  d="M 8.049367942409015 1.9000000000000035 Q 8.011825012580658 1.9731842318562587 7.974282082752303 2.0463684637125144 Q 7.634381158897994 2.276251120747081 7.470632057590985 1.9000000000000035 " stroke="#191919" stroke-width="0.35 px" style="stroke-width:0.35;stroke-miterlimit:4;stroke-dasharray:none;fill:none;fill-opacity:1;fill-rule: evenodd"/>
<path id="Shape2DView_nwe0106"  d="M 8.049367942409015 -1.9000000000000017 Q 8.011825012580658 -1.973184231856257 7.974282082752303 -2.0463684637125126 Q 7.634381158897994 -2.2762511207470792 7.470632057590985 -1.9000000000000017 " stroke="#191919" stroke-width="0.35 px" style="stroke-width:0.35;stroke-miterlimit:4;stroke-dasharray:none;fill:none;fill-opacity:1;fill-rule: evenodd"/>
<path id="Shape2DView_nwe0107"  d="M 8.049367942409 -1.8999999999999988 L 8.649579426012 -1.8999999999999988 " stroke="#191919" stroke-width="0.35 px" style="stroke-width:0.35;stroke-miterlimit:4;stroke-dasharray:none;fill:none;fill-opacity:1;fill-rule: evenodd"/>
<path id="Shape2DView_nwe0108"  d="M 8.049367942409 1.900000000000001 L 8.649579426012 1.900000000000001 " stroke="#191919" stroke-width="0.35 px" style="stroke-width:0.35;stroke-miterlimit:4;stroke-dasharray:none;fill:none;fill-opacity:1;fill-rule: evenodd"/>
<path id="Shape2DView_nwe0109"  d="M 9.228315310830014 1.9000000000000035 Q 9.21032725070651 1.9472701643339645 9.192339190583004 1.994540328667926 Q 8.856978622813386 2.3145858091993867 8.649579426011984 1.9000000000000044 " stroke="#191919" stroke-width="0.35 px" style="stroke-width:0.35;stroke-miterlimit:4;stroke-dasharray:none;fill:none;fill-opacity:1;fill-rule: evenodd"/>
<path id="Shape2DView_nwe0110"  d="M 9.228315310830014 -1.9000000000000017 Q 9.21032725070651 -1.9472701643339627 9.192339190583004 -1.9945403286679242 Q 8.856978622813386 -2.314585809199385 8.649579426011984 -1.9000000000000026 " stroke="#191919" stroke-width="0.35 px" style="stroke-width:0.35;stroke-miterlimit:4;stroke-dasharray:none;fill:none;fill-opacity:1;fill-rule: evenodd"/>
<path id="Shape2DView_nwe0111"  d="M 9.22831531083 -1.8999999999999988 L 9.828526794433 -1.8999999999999988 " stroke="#191919" stroke-width="0.35 px" style="stroke-width:0.35;stroke-miterlimit:4;stroke-dasharray:none;fill:none;fill-opacity:1;fill-rule: evenodd"/>
<path id="Shape2DView_nwe0112"  d="M 9.22831531083 1.900000000000001 L 9.828526794433 1.900000000000001 " stroke="#191919" stroke-width="0.35 px" style="stroke-width:0.35;stroke-miterlimit:4;stroke-dasharray:none;fill:none;fill-opacity:1;fill-rule: evenodd"/>
<path id="Shape2DView_nwe0113"  d="M 10.407262679251017 1.9000000000000041 Q 10.118027394586312 2.365764166778555 9.828526794432985 1.9000000000000037 " stroke="#191919" stroke-width="0.35 px" style="stroke-width:0.35;stroke-miterlimit:4;stroke-dasharray:none;fill:none;fill-opacity:1;fill-rule: evenodd"/>
<path id="Shape2DView_nwe0114"  d="M 10.407262679251017 -1.9000000000000024 Q 10.11802739458634 -2.3657641667785443 9.828526794432985 -1.9000000000000017 " stroke="#191919" stroke-width="0.35 px" style="stroke-width:0.35;stroke-miterlimit:4;stroke-dasharray:none;fill:none;fill-opacity:1;fill-rule: evenodd"/>
<path id="Shape2DView_nwe0115"  d="M 10.407262679251001 -1.8999999999999988 L 11.007474162854002 -1.8999999999999988 " stroke="#191919" stroke-width="0.35 px" style="stroke-width:0.35;stroke-miterlimit:4;stroke-dasharray:none;fill:none;fill-opacity:1;fill-rule: evenodd"/>
<path id="Shape2DView_nwe0116"  d="M 10.407262679251001 1.900000000000001 L 11.007474162854002 1.900000000000001 " stroke="#191919" stroke-width="0.35 px" style="stroke-width:0.35;stroke-miterlimit:4;stroke-dasharray:none;fill:none;fill-opacity:1;fill-rule: evenodd"/>
<path id="Shape2DView_nwe0117"  d="M 11.586210047672013 1.9000000000000041 Q 11.29697476300735 2.365764166778543 11.007474162853985 1.9000000000000046 " stroke="#191919" stroke-width="0.35 px" style="stroke-width:0.35;stroke-miterlimit:4;stroke-dasharray:none;fill:none;fill-opacity:1;fill-rule: evenodd"/>
<path id="Shape2DView_nwe0118"  d="M 11.586210047672013 -1.9000000000000024 Q 11.29697476300736 -2.365764166778539 11.007474162853986 -1.9000000000000026 " stroke="#191919" stroke-width="0.35 px" style="stroke-width:0.35;stroke-miterlimit:4;stroke-dasharray:none;fill:none;fill-opacity:1;fill-rule: evenodd"/>
<path id="Shape2DView_nwe0119"  d="M 11.586210047672001 -1.8999999999999988 L 12.186421531275002 -1.8999999999999988 " stroke="#191919" stroke-width="0.35 px" style="stroke-width:0.35;stroke-miterlimit:4;stroke-dasharray:none;fill:none;fill-opacity:1;fill-rule: evenodd"/>
<path id="Shape2DView_nwe0120"  d="M 11.586210047672001 1.900000000000001 L 12.186421531275002 1.900000000000001 " stroke="#191919" stroke-width="0.35 px" style="stroke-width:0.35;stroke-miterlimit:4;stroke-dasharray:none;fill:none;fill-opacity:1;fill-rule: evenodd"/>
<path id="Shape2DView_nwe0121"  d="M 12.765157416093015 1.9000000000000035 Q 12.747169355969511 1.9472701643339645 12.729181295846004 1.994540328667926 Q 12.393820728076387 2.3145858091993867 12.186421531274984 1.9000000000000044 " stroke="#191919" stroke-width="0.35 px" style="stroke-width:0.35;stroke-miterlimit:4;stroke-dasharray:none;fill:none;fill-opacity:1;fill-rule: evenodd"/>
<path id="Shape2DView_nwe0122"  d="M 12.765157416093015 -1.9000000000000017 Q 12.747169355969511 -1.9472701643339627 12.729181295846004 -1.9945403286679242 Q 12.393820728076387 -2.314585809199386 12.186421531274984 -1.9000000000000026 " stroke="#191919" stroke-width="0.35 px" style="stroke-width:0.35;stroke-miterlimit:4;stroke-dasharray:none;fill:none;fill-opacity:1;fill-rule: evenodd"/>
<path id="Shape2DView_nwe0123"  d="M 12.765157416093 -1.8999999999999988 L 13.57 -1.8999999999999988 " stroke="#191919" stroke-width="0.35 px" style="stroke-width:0.35;stroke-miterlimit:4;stroke-dasharray:none;fill:none;fill-opacity:1;fill-rule: evenodd"/>
<path id="Shape2DView_nwe0124"  d="M 12.765157416093 1.900000000000001 L 13.57 1.900000000000001 " stroke="#191919" stroke-width="0.35 px" style="stroke-width:0.35;stroke-miterlimit:4;stroke-dasharray:none;fill:none;fill-opacity:1;fill-rule: evenodd"/>
<path id="Shape2DView_nwe0125"  d="M 13.57000000000005 -1.8999999999999404 L 13.850000000000069 -2.249999999999964 " stroke="#191919" stroke-width="0.35 px" style="stroke-width:0.35;stroke-miterlimit:4;stroke-dasharray:none;fill:none;fill-opacity:1;fill-rule: evenodd"/>
<path id="Shape2DView_nwe0126"  d="M 13.57000000000005 1.8999999999999422 L 13.850000000000069 2.249999999999966 " stroke="#191919" stroke-width="0.35 px" style="stroke-width:0.35;stroke-miterlimit:4;stroke-dasharray:none;fill:none;fill-opacity:1;fill-rule: evenodd"/>
<path id="Shape2DView_nwe0127"  d="M 13.85 -2.249999999999999 L 14.41 -2.249999999999999 " stroke="#191919" stroke-width="0.35 px" style="stroke-width:0.35;stroke-miterlimit:4;stroke-dasharray:none;fill:none;fill-opacity:1;fill-rule: evenodd"/>
<path id="Shape2DView_nwe0128"  d="M 13.85 2.250000000000001 L 14.41 2.250000000000001 " stroke="#191919" stroke-width="0.35 px" style="stroke-width:0.35;stroke-miterlimit:4;stroke-dasharray:none;fill:none;fill-opacity:1;fill-rule: evenodd"/>
<path id="Shape2DView_nwe0129"  d="M 14.620000000016233 -0.5250000000019139 L 14.410000000016197 -2.2500000000020326 " stroke="#191919" stroke-width="0.35 px" style="stroke-width:0.35;stroke-miterlimit:4;stroke-dasharray:none;fill:none;fill-opacity:1;fill-rule: evenodd"/>
<path id="Shape2DView_nwe0130"  d="M 14.620000000016233 0.5250000000019157 L 14.410000000016197 2.2500000000020344 " stroke="#191919" stroke-width="0.35 px" style="stroke-width:0.35;stroke-miterlimit:4;stroke-dasharray:none;fill:none;fill-opacity:1;fill-rule: evenodd"/>
<path id="Shape2DView_nwe0131"  d="M 14.62000000004665 -0.349999999999999 Q 15.193280286298911 -0.349999999999999 15.239999999999986 -0.34999999999999915 " stroke="#191919" stroke-width="0.35 px" style="stroke-width:0.35;stroke-miterlimit:4;stroke-dasharray:none;fill:none;fill-opacity:1;fill-rule: evenodd"/>
<path id="Shape2DView_nwe0132"  d="M 14.620000000049464 0.350000000000001 Q 15.193280286299583 0.350000000000001 15.24000000000001 0.3500000000000008 " stroke="#191919" stroke-width="0.35 px" style="stroke-width:0.35;stroke-miterlimit:4;stroke-dasharray:none;fill:none;fill-opacity:1;fill-rule: evenodd"/>
<title>b'Shape2DView'</title>
</g>
<g id="Rectangle" transform="translate(0.506797,2.409349) scale(1,-1)">
<rect fill="#ff0000" id="origin" width="1" height="1" x="0" y="0" />
<title>b'Rectangle'</title>
</g>
</svg>