<?xml version="1.0"?>
<!DOCTYPE svg PUBLIC "-//W3C//DTD SVG 1.1//EN" "http://www.w3.org/Graphics/SVG/1.1/DTD/svg11.dtd">
<svg width="29.411885655669316mm" height="8.076703640308331mm" viewBox="0 0 29.411885655669316 8.076703640308331" xmlns="http://www.w3.org/2000/svg" version="1.1">
<g id="Shape2DView" transform="translate(0.735071,4.038352) scale(1,-1)">
<path id="Shape2DView_nwe0000"  d="M 2.33 5.062616992291e-15 L 2.33 -0.4198667853873997 L 2.33 -0.8344535023361747 L 2.33 -1.2385464823318724 L 2.33 -1.627064021690839 L 2.33 -1.9951202869325082 L 2.33 -2.3380867569702475 L 2.33 -2.6516504294495506 L 2.33 -2.9318680592551094 L 2.33 -3.1752157471060634 L 2.33 -3.3786332546340696 L 2.33 -3.539562488656377 L 2.33 -3.655979670681836 L 2.33 -3.7264207870996575 L 2.33 -3.7499999999999982 " stroke="#191919" stroke-width="0.35 px" style="stroke-width:0.35;stroke-miterlimit:4;stroke-dasharray:none;fill:none;fill-opacity:1;fill-rule: evenodd"/>
<path id="Shape2DView_nwe0001"  d="M 2.33 3.7500000000000018 L 2.33 3.7264207870996615 L 2.33 3.6559796706818406 L 2.33 3.5395624886563803 L 2.33 3.3786332546340736 L 2.33 3.175215747106068 L 2.33 2.9318680592551143 L 2.33 2.6516504294495555 L 2.33 2.3380867569702533 L 2.33 1.9951202869325146 L 2.33 1.6270640216908456 L 2.33 1.2385464823318793 L 2.33 0.8344535023361815 L 2.33 0.4198667853874071 L 2.33 5.9811020916515155e-15 " stroke="#191919" stroke-width="0.35 px" style="stroke-width:0.35;stroke-miterlimit:4;stroke-dasharray:none;fill:none;fill-opacity:1;fill-rule: evenodd"/>
<path id="Shape2DView_nwe0002"  d="M 1.97 3.014255511857275e-15 L 1.97 -0.0755760213697299 L 1.97 -0.1502016304205094 L 1.97 -0.2229383668197351 L 1.97 -0.2928715239043492 L 1.97 -0.35912165164784976 L 1.97 -0.42085561625464285 L 1.97 -0.47729707730091736 L 1.97 -0.5277362506659181 L 1.97 -0.5715388344790899 L 1.97 -0.6081539858341312 L 1.97 -0.6371212479581464 L 1.97 -0.6580763407227292 L 1.97 -0.6707557416779372 L 1.97 -0.6749999999999984 " stroke="#191919" stroke-width="0.35 px" style="stroke-width:0.35;stroke-miterlimit:4;stroke-dasharray:none;fill:none;fill-opacity:1;fill-rule: evenodd"/>
<path id="Shape2DView_nwe0003"  d="M 1.97 0.6750000000000017 L 1.97 0.6707557416779404 L 1.97 0.6580763407227328 L 1.97 0.6371212479581498 L 1.97 0.6081539858341347 L 1.97 0.5715388344790936 L 1.97 0.5277362506659219 L 1.97 0.4772970773009216 L 1.97 0.420855616254647 L 1.97 0.35912165164785415 L 1.97 0.2928715239043537 L 1.97 0.22293836681973975 L 1.97 0.1502016304205142 L 1.97 0.07557602136973478 L 1.97 3.1795828297421677e-15 " stroke="#191919" stroke-width="0.35 px" style="stroke-width:0.35;stroke-miterlimit:4;stroke-dasharray:none;fill:none;fill-opacity:1;fill-rule: evenodd"/>
<path id="Shape2DView_nwe0004"  d="M 3.29 5.062616992291e-15 L 3.29 -0.4198667853873997 L 3.29 -0.8344535023361747 L 3.29 -1.2385464823318724 L 3.29 -1.627064021690839 L 3.29 -1.9951202869325082 L 3.29 -2.3380867569702475 L 3.29 -2.6516504294495506 L 3.29 -2.9318680592551094 L 3.29 -3.1752157471060634 L 3.29 -3.3786332546340696 L 3.29 -3.539562488656377 L 3.29 -3.655979670681836 L 3.29 -3.7264207870996575 L 3.29 -3.7499999999999982 " stroke="#191919" stroke-width="0.35 px" style="stroke-width:0.35;stroke-miterlimit:4;stroke-dasharray:none;fill:none;fill-opacity:1;fill-rule: evenodd"/>
<path id="Shape2DView_nwe0005"  d="M 3.29 3.7500000000000018 L 3.29 3.7264207870996615 L 3.29 3.6559796706818406 L 3.29 3.5395624886563803 L 3.29 3.3786332546340736 L 3.29 3.175215747106068 L 3.29 2.9318680592551143 L 3.29 2.6516504294495555 L 3.29 2.3380867569702533 L 3.29 1.9951202869325146 L 3.29 1.6270640216908456 L 3.29 1.2385464823318793 L 3.29 0.8344535023361815 L 3.29 0.4198667853874071 L 3.29 5.9811020916515155e-15 " stroke="#191919" stroke-width="0.35 px" style="stroke-width:0.35;stroke-miterlimit:4;stroke-dasharray:none;fill:none;fill-opacity:1;fill-rule: evenodd"/>
<path id="Shape2DView_nwe0006"  d="M 3.488 4.66293670342585e-15 L 3.488 -0.3526880997254153 L 3.488 -0.7009409419623862 L 3.488 -1.0403790451587722 L 3.488 -1.3667337782203044 L 3.488 -1.6759010410233066 L 3.488 -1.9639928758550074 L 3.488 -2.2273863607376216 L 3.488 -2.4627691697742917 L 3.488 -2.6671812275690923 L 3.488 -2.838051933892618 L 3.488 -2.973232490471356 L 3.488 -3.0710229233727424 L 3.488 -3.130193461163712 L 3.488 -3.149999999999998 " stroke="#191919" stroke-width="0.35 px" style="stroke-width:0.35;stroke-miterlimit:4;stroke-dasharray:none;fill:none;fill-opacity:1;fill-rule: evenodd"/>
<path id="Shape2DView_nwe0007"  d="M 3.488 3.1500000000000017 L 3.488 3.130193461163716 L 3.488 3.071022923372746 L 3.488 2.97323249047136 L 3.488 2.8380519338926224 L 3.488 2.6671812275690976 L 3.488 2.462769169774296 L 3.488 2.227386360737627 L 3.488 1.963992875855013 L 3.488 1.6759010410233126 L 3.488 1.3667337782203106 L 3.488 1.040379045158779 L 3.488 0.700940941962393 L 3.488 0.35268809972542237 L 3.488 5.434464186888683e-15 " stroke="#191919" stroke-width="0.35 px" style="stroke-width:0.35;stroke-miterlimit:4;stroke-dasharray:none;fill:none;fill-opacity:1;fill-rule: evenodd"/>
<path id="Shape2DView_nwe0008"  d="M 5.62973014384 5.773159728051e-15 C 5.629730143839998 1.6832038156690088 5.629730143840001 3.1934043495452675 5.62973014384 3.149999999530378 " stroke="#191919" stroke-width="0.35 px" style="stroke-width:0.35;stroke-miterlimit:4;stroke-dasharray:none;fill:none;fill-opacity:1;fill-rule: evenodd"/>
<path id="Shape2DView_nwe0009"  d="M 5.62973014384 -3.149999999999856 C 5.629730143839997 -3.193404421083223 5.62973014384 -1.6832064325634062 5.62973014384 5.773159728050814e-15 " stroke="#191919" stroke-width="0.35 px" style="stroke-width:0.35;stroke-miterlimit:4;stroke-dasharray:none;fill:none;fill-opacity:1;fill-rule: evenodd"/>
<path id="Shape2DView_nwe0010"  d="M -1.5360136568323856e-14 0.4500000000000011 A 0.45 0.45 0 0 1 1.43058e-14 -0.45" stroke="#191919" stroke-width="0.35 px" style="stroke-width:0.35;stroke-miterlimit:4;stroke-dasharray:none;fill:none;fill-opacity:1;fill-rule: evenodd"/>
<path id="Shape2DView_nwe0011"  d="M 6.621848803529 5.773159728051e-15 C 6.621848803528997 1.6832038156682956 6.621848803529 3.1934043495455855 6.621848803529 3.149999999530378 " stroke="#191919" stroke-width="0.35 px" style="stroke-width:0.35;stroke-miterlimit:4;stroke-dasharray:none;fill:none;fill-opacity:1;fill-rule: evenodd"/>
<path id="Shape2DView_nwe0012"  d="M 6.621848803529 -3.149999999999856 C 6.621848803528999 -3.193404421083223 6.621848803528999 -1.6832064325634062 6.621848803529 5.773159728050814e-15 " stroke="#191919" stroke-width="0.35 px" style="stroke-width:0.35;stroke-miterlimit:4;stroke-dasharray:none;fill:none;fill-opacity:1;fill-rule: evenodd"/>
<path id="Shape2DView_nwe0013"  d="M 7.650782775419 5.773159728051e-15 C 7.650782775418995 1.683203815669324 7.650782775419 3.1934043495450757 7.650782775419 3.149999999530378 " stroke="#191919" stroke-width="0.35 px" style="stroke-width:0.35;stroke-miterlimit:4;stroke-dasharray:none;fill:none;fill-opacity:1;fill-rule: evenodd"/>
<path id="Shape2DView_nwe0014"  d="M 7.650782775419 -3.149999999999856 C 7.650782775418997 -3.193404421083223 7.6507827754190005 -1.6832064325634062 7.650782775419 5.773159728050814e-15 " stroke="#191919" stroke-width="0.35 px" style="stroke-width:0.35;stroke-miterlimit:4;stroke-dasharray:none;fill:none;fill-opacity:1;fill-rule: evenodd"/>
<path id="Shape2DView_nwe0015"  d="M 8.642901435108 5.773159728051e-15 C 8.642901435107992 1.683203815669324 8.642901435108001 3.1934043495450757 8.642901435108003 3.149999999530378 " stroke="#191919" stroke-width="0.35 px" style="stroke-width:0.35;stroke-miterlimit:4;stroke-dasharray:none;fill:none;fill-opacity:1;fill-rule: evenodd"/>
<path id="Shape2DView_nwe0016"  d="M 8.642901435108 -3.149999999999856 C 8.642901435107996 -3.193404421083223 8.642901435108001 -1.6832064325634062 8.642901435108 5.773159728050814e-15 " stroke="#191919" stroke-width="0.35 px" style="stroke-width:0.35;stroke-miterlimit:4;stroke-dasharray:none;fill:none;fill-opacity:1;fill-rule: evenodd"/>
<path id="Shape2DView_nwe0017"  d="M 9.671835406998 5.773159728051e-15 C 9.671835406997994 1.6832038156657798 9.671835406998003 3.1934043495528055 9.671835406998 3.149999999530378 " stroke="#191919" stroke-width="0.35 px" style="stroke-width:0.35;stroke-miterlimit:4;stroke-dasharray:none;fill:none;fill-opacity:1;fill-rule: evenodd"/>
<path id="Shape2DView_nwe0018"  d="M 9.671835406998 -3.149999999999856 C 9.671835406998 -3.193404421083223 9.671835406997998 -1.6832064325634062 9.671835406998 5.773159728050814e-15 " stroke="#191919" stroke-width="0.35 px" style="stroke-width:0.35;stroke-miterlimit:4;stroke-dasharray:none;fill:none;fill-opacity:1;fill-rule: evenodd"/>
<path id="Shape2DView_nwe0019"  d="M 10.663954066687 5.773159728051e-15 C 10.663954066686996 1.6832038156685678 10.663954066686998 3.1934043495454496 10.663954066687 3.149999999530378 " stroke="#191919" stroke-width="0.35 px" style="stroke-width:0.35;stroke-miterlimit:4;stroke-dasharray:none;fill:none;fill-opacity:1;fill-rule: evenodd"/>
<path id="Shape2DView_nwe0020"  d="M 10.663954066687 -3.149999999999856 C 10.663954066686994 -3.1934044210836587 10.663954066687001 -1.6832064325631 10.663954066687 5.329070518200751e-15 " stroke="#191919" stroke-width="0.35 px" style="stroke-width:0.35;stroke-miterlimit:4;stroke-dasharray:none;fill:none;fill-opacity:1;fill-rule: evenodd"/>
<path id="Shape2DView_nwe0021"  d="M 11.692888038577 5.773159728051e-15 C 11.692888038576994 1.6832038156662206 11.692888038576998 3.1934043495526225 11.692888038577 3.149999999530378 " stroke="#191919" stroke-width="0.35 px" style="stroke-width:0.35;stroke-miterlimit:4;stroke-dasharray:none;fill:none;fill-opacity:1;fill-rule: evenodd"/>
<path id="Shape2DView_nwe0022"  d="M 11.692888038577 -3.149999999999856 C 11.692888038576996 -3.193404421083223 11.692888038577001 -1.6832064325634062 11.692888038577 5.773159728050814e-15 " stroke="#191919" stroke-width="0.35 px" style="stroke-width:0.35;stroke-miterlimit:4;stroke-dasharray:none;fill:none;fill-opacity:1;fill-rule: evenodd"/>
<path id="Shape2DView_nwe0023"  d="M 12.685006698266 5.773159728051e-15 C 12.685006698265996 1.683203815669324 12.685006698265997 3.1934043495450757 12.685006698266 3.149999999530378 " stroke="#191919" stroke-width="0.35 px" style="stroke-width:0.35;stroke-miterlimit:4;stroke-dasharray:none;fill:none;fill-opacity:1;fill-rule: evenodd"/>
<path id="Shape2DView_nwe0024"  d="M 12.685006698265994 -3.149999999999856 C 12.685006698265997 -3.193404421083223 12.685006698266001 -1.6832064325634062 12.685006698266 5.773159728050814e-15 " stroke="#191919" stroke-width="0.35 px" style="stroke-width:0.35;stroke-miterlimit:4;stroke-dasharray:none;fill:none;fill-opacity:1;fill-rule: evenodd"/>
<path id="Shape2DView_nwe0025"  d="M 13.713940670156 5.773159728051e-15 C 13.713940670155994 1.6832038156660887 13.713940670155997 3.1934043495526647 13.713940670156 3.149999999530378 " stroke="#191919" stroke-width="0.35 px" style="stroke-width:0.35;stroke-miterlimit:4;stroke-dasharray:none;fill:none;fill-opacity:1;fill-rule: evenodd"/>
<path id="Shape2DView_nwe0026"  d="M 13.713940670155994 -3.149999999999856 C 13.713940670156 -3.193404421083223 13.713940670156001 -1.6832064325634062 13.713940670156 5.773159728050814e-15 " stroke="#191919" stroke-width="0.35 px" style="stroke-width:0.35;stroke-miterlimit:4;stroke-dasharray:none;fill:none;fill-opacity:1;fill-rule: evenodd"/>
<path id="Shape2DView_nwe0027"  d="M 14.706059329844 5.773159728051e-15 C 14.706059329843997 1.6832038156676794 14.706059329844 3.193404349545866 14.706059329844004 3.149999999530378 " stroke="#191919" stroke-width="0.35 px" style="stroke-width:0.35;stroke-miterlimit:4;stroke-dasharray:none;fill:none;fill-opacity:1;fill-rule: evenodd"/>
<path id="Shape2DView_nwe0028"  d="M 14.706059329844 -3.149999999999856 C 14.706059329843999 -3.193404421083223 14.706059329844 -1.6832064325634062 14.706059329844 5.773159728050814e-15 " stroke="#191919" stroke-width="0.35 px" style="stroke-width:0.35;stroke-miterlimit:4;stroke-dasharray:none;fill:none;fill-opacity:1;fill-rule: evenodd"/>
<path id="Shape2DView_nwe0029"  d="M 15.734993301734 5.773159728051e-15 C 15.734993301733997 1.6832038156687437 15.734993301734002 3.193404349545352 15.734993301734 3.149999999530378 " stroke="#191919" stroke-width="0.35 px" style="stroke-width:0.35;stroke-miterlimit:4;stroke-dasharray:none;fill:none;fill-opacity:1;fill-rule: evenodd"/>
<path id="Shape2DView_nwe0030"  d="M 15.734993301734 -3.149999999999856 C 15.734993301733997 -3.193404421083223 15.734993301734 -1.6832064325634062 15.734993301734 5.773159728050814e-15 " stroke="#191919" stroke-width="0.35 px" style="stroke-width:0.35;stroke-miterlimit:4;stroke-dasharray:none;fill:none;fill-opacity:1;fill-rule: evenodd"/>
<path id="Shape2DView_nwe0031"  d="M 16.727111961423 5.773159728051e-15 C 16.727111961422988 1.6832038156688756 16.727111961423006 3.19340434954531 16.727111961423 3.149999999530378 " stroke="#191919" stroke-width="0.35 px" style="stroke-width:0.35;stroke-miterlimit:4;stroke-dasharray:none;fill:none;fill-opacity:1;fill-rule: evenodd"/>
<path id="Shape2DView_nwe0032"  d="M 16.727111961423 -3.149999999999856 C 16.727111961422988 -3.193404421083223 16.727111961423002 -1.6832064325634062 16.727111961423 5.773159728050814e-15 " stroke="#191919" stroke-width="0.35 px" style="stroke-width:0.35;stroke-miterlimit:4;stroke-dasharray:none;fill:none;fill-opacity:1;fill-rule: evenodd"/>
<path id="Shape2DView_nwe0033"  d="M 17.756045933313 5.773159728051e-15 C 17.75604593331299 1.6832038156690088 17.756045933312997 3.1934043495452675 17.756045933313008 3.149999999530378 " stroke="#191919" stroke-width="0.35 px" style="stroke-width:0.35;stroke-miterlimit:4;stroke-dasharray:none;fill:none;fill-opacity:1;fill-rule: evenodd"/>
<path id="Shape2DView_nwe0034"  d="M 17.756045933313 -3.149999999999856 C 17.756045933312997 -3.193404421083223 17.756045933313 -1.6832064325634062 17.756045933313 5.773159728050814e-15 " stroke="#191919" stroke-width="0.35 px" style="stroke-width:0.35;stroke-miterlimit:4;stroke-dasharray:none;fill:none;fill-opacity:1;fill-rule: evenodd"/>
<path id="Shape2DView_nwe0035"  d="M 18.748164593002 5.773159728051e-15 C 18.74816459300199 1.6832038156687437 18.748164593002002 3.193404349545352 18.748164593002 3.149999999530378 " stroke="#191919" stroke-width="0.35 px" style="stroke-width:0.35;stroke-miterlimit:4;stroke-dasharray:none;fill:none;fill-opacity:1;fill-rule: evenodd"/>
<path id="Shape2DView_nwe0036"  d="M 18.748164593001988 -3.149999999999856 C 18.748164593002002 -3.193404421083223 18.748164593001995 -1.6832064325634062 18.748164593002 5.773159728050814e-15 " stroke="#191919" stroke-width="0.35 px" style="stroke-width:0.35;stroke-miterlimit:4;stroke-dasharray:none;fill:none;fill-opacity:1;fill-rule: evenodd"/>
<path id="Shape2DView_nwe0037"  d="M 19.777098564892 5.773159728051e-15 C 19.777098564891986 1.6832038156657798 19.777098564892004 3.1934043495528055 19.777098564892 3.149999999530378 " stroke="#191919" stroke-width="0.35 px" style="stroke-width:0.35;stroke-miterlimit:4;stroke-dasharray:none;fill:none;fill-opacity:1;fill-rule: evenodd"/>
<path id="Shape2DView_nwe0038"  d="M 19.77709856489199 -3.149999999999856 C 19.777098564892015 -3.193404421083223 19.77709856489199 -1.6832064325634062 19.777098564892 5.773159728050814e-15 " stroke="#191919" stroke-width="0.35 px" style="stroke-width:0.35;stroke-miterlimit:4;stroke-dasharray:none;fill:none;fill-opacity:1;fill-rule: evenodd"/>
<path id="Shape2DView_nwe0039"  d="M 20.769217224581 5.773159728051e-15 C 20.769217224580995 1.6832038156685678 20.769217224580995 3.1934043495454496 20.769217224581 3.149999999530378 " stroke="#191919" stroke-width="0.35 px" style="stroke-width:0.35;stroke-miterlimit:4;stroke-dasharray:none;fill:none;fill-opacity:1;fill-rule: evenodd"/>
<path id="Shape2DView_nwe0040"  d="M 20.769217224581 -3.149999999999856 C 20.769217224580984 -3.1934044210836587 20.76921722458101 -1.6832064325631 20.769217224581 5.329070518200751e-15 " stroke="#191919" stroke-width="0.35 px" style="stroke-width:0.35;stroke-miterlimit:4;stroke-dasharray:none;fill:none;fill-opacity:1;fill-rule: evenodd"/>
<path id="Shape2DView_nwe0041"  d="M 21.798151196471 5.773159728051e-15 C 21.798151196470993 1.6832038156691844 21.798151196471004 3.193404349545168 21.798151196471 3.1499999995303773 " stroke="#191919" stroke-width="0.35 px" style="stroke-width:0.35;stroke-miterlimit:4;stroke-dasharray:none;fill:none;fill-opacity:1;fill-rule: evenodd"/>
<path id="Shape2DView_nwe0042"  d="M 21.798151196471 -3.149999999999856 C 21.79815119647099 -3.193404421083223 21.798151196471 -1.6832064325634062 21.798151196471 5.773159728050814e-15 " stroke="#191919" stroke-width="0.35 px" style="stroke-width:0.35;stroke-miterlimit:4;stroke-dasharray:none;fill:none;fill-opacity:1;fill-rule: evenodd"/>
<path id="Shape2DView_nwe0043"  d="M 22.79026985616 5.773159728051e-15 C 22.790269856159988 1.683203815669324 22.790269856159995 3.1934043495450757 22.790269856160005 3.149999999530378 " stroke="#191919" stroke-width="0.35 px" style="stroke-width:0.35;stroke-miterlimit:4;stroke-dasharray:none;fill:none;fill-opacity:1;fill-rule: evenodd"/>
<path id="Shape2DView_nwe0044"  d="M 22.79026985616 -3.149999999999856 C 22.79026985615999 -3.193404421083223 22.790269856160005 -1.6832064325634062 22.79026985616 5.773159728050814e-15 " stroke="#191919" stroke-width="0.35 px" style="stroke-width:0.35;stroke-miterlimit:4;stroke-dasharray:none;fill:none;fill-opacity:1;fill-rule: evenodd"/>
<path id="Shape2DView_nwe0045"  d="M 24.169999999955 4.662936703416505e-15 L 24.169999999955 -0.3526880997238478 L 24.169999999955 -0.7009409419592709 L 24.169999999955 -1.0403790451541484 L 24.169999999955 -1.36673377821423 L 24.169999999955 -1.6759010410158581 L 24.169999999955 -1.9639928758462786 L 24.169999999955 -2.2273863607277224 L 24.169999999955 -2.4627691697633463 L 24.169999999955 -2.667181227557238 L 24.169999999955 -2.8380519338800045 L 24.169999999955 -2.9732324904581415 L 24.169999999955 -3.0710229233590933 L 24.169999999955 -3.1301934611498 L 24.169999999955 -3.1499999999859982 " stroke="#191919" stroke-width="0.35 px" style="stroke-width:0.35;stroke-miterlimit:4;stroke-dasharray:none;fill:none;fill-opacity:1;fill-rule: evenodd"/>
<path id="Shape2DView_nwe0046"  d="M 24.169999999955 3.1499999999860018 L 24.169999999955 3.130193461149804 L 24.169999999955 3.071022923359097 L 24.169999999955 2.9732324904581455 L 24.169999999955 2.838051933880009 L 24.169999999955 2.6671812275572435 L 24.169999999955 2.4627691697633503 L 24.169999999955 2.2273863607277278 L 24.169999999955 1.9639928758462841 L 24.169999999955 1.6759010410158641 L 24.169999999955 1.3667337782142361 L 24.169999999955 1.0403790451541552 L 24.169999999955 0.7009409419592777 L 24.169999999955 0.3526880997238549 L 24.169999999955 5.4344641868759085e-15 " stroke="#191919" stroke-width="0.35 px" style="stroke-width:0.35;stroke-miterlimit:4;stroke-dasharray:none;fill:none;fill-opacity:1;fill-rule: evenodd"/>
<path id="Shape2DView_nwe0047"  d="M 24.649999999952 5.0626169922804446e-15 L 24.649999999952 -0.41986678538560823 L 24.649999999952 -0.8344535023326143 L 24.649999999952 -1.238546482326588 L 24.649999999952 -1.6270640216838967 L 24.649999999952 -1.9951202869239957 L 24.649999999952 -2.3380867569602715 L 24.649999999952 -2.651650429438237 L 24.649999999952 -2.9318680592426 L 24.649999999952 -3.1752157470925155 L 24.649999999952 -3.378633254619654 L 24.649999999952 -3.539562488641274 L 24.649999999952 -3.6559796706662375 L 24.649999999952 -3.7264207870837582 L 24.649999999952 -3.749999999983998 " stroke="#191919" stroke-width="0.35 px" style="stroke-width:0.35;stroke-miterlimit:4;stroke-dasharray:none;fill:none;fill-opacity:1;fill-rule: evenodd"/>
<path id="Shape2DView_nwe0048"  d="M 24.649999999952 3.7499999999840017 L 24.649999999952 3.7264207870837622 L 24.649999999952 3.6559796706662415 L 24.649999999952 3.539562488641278 L 24.649999999952 3.378633254619658 L 24.649999999952 3.17521574709252 L 24.649999999952 2.9318680592426047 L 24.649999999952 2.6516504294382415 L 24.649999999952 2.3380867569602772 L 24.649999999952 1.9951202869240021 L 24.649999999952 1.6270640216839034 L 24.649999999952 1.2385464823265948 L 24.649999999952 0.8344535023326212 L 24.649999999952 0.41986678538561567 L 24.649999999952 5.98110209163704e-15 " stroke="#191919" stroke-width="0.35 px" style="stroke-width:0.35;stroke-miterlimit:4;stroke-dasharray:none;fill:none;fill-opacity:1;fill-rule: evenodd"/>
<path id="Shape2DView_nwe0049"  d="M 25.61 5.062616992291e-15 L 25.61 -0.4198667853873997 L 25.61 -0.8344535023361747 L 25.61 -1.2385464823318724 L 25.61 -1.627064021690839 L 25.61 -1.9951202869325082 L 25.61 -2.3380867569702475 L 25.61 -2.6516504294495506 L 25.61 -2.9318680592551094 L 25.61 -3.1752157471060634 L 25.61 -3.3786332546340696 L 25.61 -3.539562488656377 L 25.61 -3.655979670681836 L 25.61 -3.7264207870996575 L 25.61 -3.7499999999999982 " stroke="#191919" stroke-width="0.35 px" style="stroke-width:0.35;stroke-miterlimit:4;stroke-dasharray:none;fill:none;fill-opacity:1;fill-rule: evenodd"/>
<path id="Shape2DView_nwe0050"  d="M 25.61 3.7500000000000018 L 25.61 3.7264207870996615 L 25.61 3.6559796706818406 L 25.61 3.5395624886563803 L 25.61 3.3786332546340736 L 25.61 3.175215747106068 L 25.61 2.9318680592551143 L 25.61 2.6516504294495555 L 25.61 2.3380867569702533 L 25.61 1.9951202869325146 L 25.61 1.6270640216908456 L 25.61 1.2385464823318793 L 25.61 0.8344535023361815 L 25.61 0.4198667853874071 L 25.61 5.9811020916515155e-15 " stroke="#191919" stroke-width="0.35 px" style="stroke-width:0.35;stroke-miterlimit:4;stroke-dasharray:none;fill:none;fill-opacity:1;fill-rule: evenodd"/>
<path id="Shape2DView_nwe0051"  d="M 25.97 3.014255511857275e-15 L 25.97 -0.0755760213697299 L 25.97 -0.1502016304205094 L 25.97 -0.2229383668197351 L 25.97 -0.2928715239043492 L 25.97 -0.35912165164784976 L 25.97 -0.42085561625464285 L 25.97 -0.47729707730091736 L 25.97 -0.5277362506659181 L 25.97 -0.5715388344790899 L 25.97 -0.6081539858341312 L 25.97 -0.6371212479581464 L 25.97 -0.6580763407227292 L 25.97 -0.6707557416779372 L 25.97 -0.6749999999999984 " stroke="#191919" stroke-width="0.35 px" style="stroke-width:0.35;stroke-miterlimit:4;stroke-dasharray:none;fill:none;fill-opacity:1;fill-rule: evenodd"/>
<path id="Shape2DView_nwe0052"  d="M 25.97 0.6750000000000017 L 25.97 0.6707557416779404 L 25.97 0.6580763407227328 L 25.97 0.6371212479581498 L 25.97 0.6081539858341347 L 25.97 0.5715388344790936 L 25.97 0.5277362506659219 L 25.97 0.4772970773009216 L 25.97 0.420855616254647 L 25.97 0.35912165164785415 L 25.97 0.2928715239043537 L 25.97 0.22293836681973975 L 25.97 0.1502016304205142 L 25.97 0.07557602136973478 L 25.97 3.1795828297421677e-15 " stroke="#191919" stroke-width="0.35 px" style="stroke-width:0.35;stroke-miterlimit:4;stroke-dasharray:none;fill:none;fill-opacity:1;fill-rule: evenodd"/>
<path id="Shape2DView_nwe0053"  d="M 27.490000000000002 1.154229900340631e-15 A 0.45 0.45 0 0 1 27.94 -0.45" stroke="#191919" stroke-width="0.35 px" style="stroke-width:0.35;stroke-miterlimit:4;stroke-dasharray:none;fill:none;fill-opacity:1;fill-rule: evenodd"/>
<path id="Shape2DView_nwe0054"  d="M 27.94000000291929 -0.4499999999999989 A 0.45 0.45 0 1 1 27.49 1.26445e-15" stroke="#191919" stroke-width="0.35 px" style="stroke-width:0.35;stroke-miterlimit:4;stroke-dasharray:none;fill:none;fill-opacity:1;fill-rule: evenodd"/>
<path id="Shape2DView_nwe0055"  d="M 0.899991648234 -0.44999999999999873 A 0.45 4.175882767199014e-06 -90.0 0 1 0.899991648234 0.4500000000000013 " stroke="#191919" stroke-width="0.35 px" style="stroke-width:0.35;stroke-miterlimit:4;stroke-dasharray:none;fill:none;fill-opacity:1;fill-rule: evenodd"/>
<path id="Shape2DView_nwe0056"  d="M 27.04 0.4500000000000013 A 0.45 4.175882767144114e-06 89.99999999999999 0 0 27.04 -0.44999999999999873 " stroke="#191919" stroke-width="0.35 px" style="stroke-width:0.35;stroke-miterlimit:4;stroke-dasharray:none;fill:none;fill-opacity:1;fill-rule: evenodd"/>
<path id="Shape2DView_nwe0057"  d="M 2.3300000000046452 5.0626169922893185e-15 L 2.3032840723221284 4.916384521804201e-15 L 2.2767221919236817 4.770139599550152e-15 L 2.2503143718880096 4.623882297536241e-15 L 2.2240606252179873 4.477612687777639e-15 L 2.1979609648404903 4.331330842295559e-15 L 2.1720154036067356 4.185036833117248e-15 L 2.1462239542920543 4.03873073227595e-15 L 2.120586629595664 3.892412611810845e-15 L 2.0951034421411237 3.746082543767049e-15 L 2.069774404475993 3.59974060019555e-15 L 2.044599529071945 3.4533868531531856e-15 L 2.0195788283248817 3.307021374702607e-15 L 1.9947123145544765 3.1606442369122407e-15 L 1.9700000000046884 3.0142555118559754e-15 " stroke="#191919" stroke-width="0.35 px" style="stroke-width:0.35;stroke-miterlimit:4;stroke-dasharray:none;fill:none;fill-opacity:1;fill-rule: evenodd"/>
<path id="Shape2DView_nwe0058"  d="M 2.33 5.062616992291e-15 L 3.29 5.062616992291e-15 " stroke="#191919" stroke-width="0.35 px" style="stroke-width:0.35;stroke-miterlimit:4;stroke-dasharray:none;fill:none;fill-opacity:1;fill-rule: evenodd"/>
<path id="Shape2DView_nwe0059"  d="M 3.2900000000004406 5.062616992290914e-15 L 3.294906058291911 5.032472384104623e-15 L 3.301276563599331 5.002449566011562e-15 L 3.309104819125588 4.9725800985727605e-15 L 3.3183825956586364 4.942895381144106e-15 L 3.329100140222204 4.913426618868738e-15 L 3.341246186328307 4.884204789873603e-15 L 3.354807965820798 4.855260612704662e-15 L 3.369771222297496 4.8266245140349576e-15 L 3.38612022609679 4.79832659667952e-15 L 3.403837790832959 4.770396607950707e-15 L 3.4229052914628295 4.742863908387262e-15 L 3.44330268386478 4.715757440889955e-15 L 3.465008525909502 4.689105700296248e-15 L 3.4880000000003784 4.662936703425981e-15 " stroke="#191919" stroke-width="0.35 px" style="stroke-width:0.35;stroke-miterlimit:4;stroke-dasharray:none;fill:none;fill-opacity:1;fill-rule: evenodd"/>
<path id="Shape2DView_nwe0060"  d="M 3.488 4.662936703426e-15 L 5.62973014384 4.662936703426e-15 " stroke="#191919" stroke-width="0.35 px" style="stroke-width:0.35;stroke-miterlimit:4;stroke-dasharray:none;fill:none;fill-opacity:1;fill-rule: evenodd"/>
<path id="Shape2DView_nwe0061"  d="M 6.6218488035287635 4.662936703425379e-15 L 6.593446872062 4.7264048503521155e-15 L 6.546937655977472 4.7849395229704795e-15 L 6.484121951362045 4.836274310055535e-15 L 6.407431927247752 4.878421573640332e-15 L 6.319836954158394 4.909749408616051e-15 L 6.224728632685162 4.929044828667644e-15 L 6.125789473684095 4.93556073204091e-15 L 6.026850314683024 4.929044828667669e-15 L 5.931741993209782 4.9097494086160996e-15 L 5.844147020120405 4.878421573640402e-15 L 5.767456996006088 4.836274310055625e-15 L 5.704641291390632 4.784939522970585e-15 L 5.658132075306072 4.726404850352233e-15 L 5.6297301438392715 4.662936703425504e-15 " stroke="#191919" stroke-width="0.35 px" style="stroke-width:0.35;stroke-miterlimit:4;stroke-dasharray:none;fill:none;fill-opacity:1;fill-rule: evenodd"/>
<path id="Shape2DView_nwe0062"  d="M 6.621848803529 4.662936703426e-15 L 7.650782775419 4.662936703426e-15 " stroke="#191919" stroke-width="0.35 px" style="stroke-width:0.35;stroke-miterlimit:4;stroke-dasharray:none;fill:none;fill-opacity:1;fill-rule: evenodd"/>
<path id="Shape2DView_nwe0063"  d="M 8.642901435107763 4.662936703425379e-15 L 8.614499503641 4.7264048503521155e-15 L 8.567990287556473 4.7849395229704795e-15 L 8.505174582941045 4.836274310055535e-15 L 8.428484558826751 4.878421573640332e-15 L 8.340889585737393 4.909749408616051e-15 L 8.245781264264162 4.929044828667644e-15 L 8.146842105263095 4.93556073204091e-15 L 8.047902946262024 4.929044828667669e-15 L 7.9527946247887815 4.9097494086160996e-15 L 7.865199651699405 4.878421573640402e-15 L 7.788509627585088 4.836274310055625e-15 L 7.725693922969632 4.784939522970585e-15 L 7.679184706885072 4.726404850352233e-15 L 7.650782775418271 4.662936703425504e-15 " stroke="#191919" stroke-width="0.35 px" style="stroke-width:0.35;stroke-miterlimit:4;stroke-dasharray:none;fill:none;fill-opacity:1;fill-rule: evenodd"/>
<path id="Shape2DView_nwe0064"  d="M 8.642901435108 4.662936703426e-15 L 9.671835406998 4.662936703426e-15 " stroke="#191919" stroke-width="0.35 px" style="stroke-width:0.35;stroke-miterlimit:4;stroke-dasharray:none;fill:none;fill-opacity:1;fill-rule: evenodd"/>
<path id="Shape2DView_nwe0065"  d="M 10.663954066686763 4.662936703425379e-15 L 10.63555213522 4.7264048503521155e-15 L 10.589042919135473 4.7849395229704795e-15 L 10.526227214520045 4.836274310055535e-15 L 10.449537190405751 4.878421573640332e-15 L 10.361942217316393 4.909749408616051e-15 L 10.266833895843162 4.929044828667644e-15 L 10.167894736842095 4.93556073204091e-15 L 10.068955577841024 4.929044828667669e-15 L 9.973847256367781 4.9097494086160996e-15 L 9.886252283278406 4.878421573640402e-15 L 9.809562259164089 4.836274310055625e-15 L 9.746746554548631 4.784939522970585e-15 L 9.70023733846407 4.726404850352233e-15 L 9.671835406997271 4.662936703425504e-15 " stroke="#191919" stroke-width="0.35 px" style="stroke-width:0.35;stroke-miterlimit:4;stroke-dasharray:none;fill:none;fill-opacity:1;fill-rule: evenodd"/>
<path id="Shape2DView_nwe0066"  d="M 10.663954066687 4.662936703426e-15 L 11.692888038577 4.662936703426e-15 " stroke="#191919" stroke-width="0.35 px" style="stroke-width:0.35;stroke-miterlimit:4;stroke-dasharray:none;fill:none;fill-opacity:1;fill-rule: evenodd"/>
<path id="Shape2DView_nwe0067"  d="M 12.685006698265763 4.662936703425379e-15 L 12.656604766799 4.7264048503521155e-15 L 12.610095550714473 4.7849395229704795e-15 L 12.547279846099045 4.836274310055535e-15 L 12.47058982198475 4.878421573640332e-15 L 12.382994848895393 4.909749408616051e-15 L 12.287886527422161 4.929044828667644e-15 L 12.188947368421095 4.93556073204091e-15 L 12.090008209420024 4.929044828667669e-15 L 11.994899887946781 4.9097494086160996e-15 L 11.907304914857406 4.878421573640402e-15 L 11.830614890743089 4.836274310055625e-15 L 11.76779918612763 4.784939522970585e-15 L 11.72128997004307 4.726404850352233e-15 L 11.692888038576271 4.662936703425504e-15 " stroke="#191919" stroke-width="0.35 px" style="stroke-width:0.35;stroke-miterlimit:4;stroke-dasharray:none;fill:none;fill-opacity:1;fill-rule: evenodd"/>
<path id="Shape2DView_nwe0068"  d="M 12.685006698266 4.662936703426e-15 L 13.713940670156 4.662936703426e-15 " stroke="#191919" stroke-width="0.35 px" style="stroke-width:0.35;stroke-miterlimit:4;stroke-dasharray:none;fill:none;fill-opacity:1;fill-rule: evenodd"/>
<path id="Shape2DView_nwe0069"  d="M 14.706059329844729 4.662936703425504e-15 L 14.677657398377933 4.726404850352224e-15 L 14.631148182293384 4.78493952297057e-15 L 14.568332477677941 4.836274310055606e-15 L 14.49164245356364 4.878421573640382e-15 L 14.404047480474281 4.909749408616082e-15 L 14.308939159001056 4.929044828667658e-15 L 14.21 4.93556073204091e-15 L 14.111060840998945 4.929044828667658e-15 L 14.01595251952572 4.909749408616082e-15 L 13.928357546436361 4.878421573640382e-15 L 13.85166752232206 4.836274310055606e-15 L 13.788851817706618 4.78493952297057e-15 L 13.742342601622068 4.726404850352224e-15 L 13.713940670155273 4.662936703425504e-15 " stroke="#191919" stroke-width="0.35 px" style="stroke-width:0.35;stroke-miterlimit:4;stroke-dasharray:none;fill:none;fill-opacity:1;fill-rule: evenodd"/>
<path id="Shape2DView_nwe0070"  d="M 14.706059329844 4.662936703426e-15 L 15.734993301734 4.662936703426e-15 " stroke="#191919" stroke-width="0.35 px" style="stroke-width:0.35;stroke-miterlimit:4;stroke-dasharray:none;fill:none;fill-opacity:1;fill-rule: evenodd"/>
<path id="Shape2DView_nwe0071"  d="M 16.727111961423727 4.662936703425504e-15 L 16.698710029956928 4.726404850352233e-15 L 16.65220081387237 4.784939522970585e-15 L 16.589385109256913 4.836274310055625e-15 L 16.512695085142596 4.878421573640402e-15 L 16.42510011205322 4.9097494086160996e-15 L 16.329991790579975 4.929044828667669e-15 L 16.231052631578905 4.93556073204091e-15 L 16.13211347257784 4.929044828667644e-15 L 16.03700515110461 4.909749408616051e-15 L 15.949410178015249 4.878421573640332e-15 L 15.872720153900955 4.836274310055535e-15 L 15.809904449285527 4.7849395229704795e-15 L 15.763395233201 4.7264048503521155e-15 L 15.734993301734237 4.662936703425379e-15 " stroke="#191919" stroke-width="0.35 px" style="stroke-width:0.35;stroke-miterlimit:4;stroke-dasharray:none;fill:none;fill-opacity:1;fill-rule: evenodd"/>
<path id="Shape2DView_nwe0072"  d="M 16.727111961423 4.662936703426e-15 L 17.756045933313 4.662936703426e-15 " stroke="#191919" stroke-width="0.35 px" style="stroke-width:0.35;stroke-miterlimit:4;stroke-dasharray:none;fill:none;fill-opacity:1;fill-rule: evenodd"/>
<path id="Shape2DView_nwe0073"  d="M 18.748164593002727 4.662936703425504e-15 L 18.719762661535928 4.726404850352233e-15 L 18.67325344545137 4.784939522970585e-15 L 18.610437740835913 4.836274310055625e-15 L 18.533747716721596 4.878421573640402e-15 L 18.44615274363222 4.9097494086160996e-15 L 18.351044422158974 4.929044828667669e-15 L 18.252105263157905 4.93556073204091e-15 L 18.15316610415684 4.929044828667644e-15 L 18.05805778268361 4.909749408616051e-15 L 17.97046280959425 4.878421573640332e-15 L 17.893772785479957 4.836274310055535e-15 L 17.83095708086453 4.7849395229704795e-15 L 17.78444786478 4.7264048503521155e-15 L 17.756045933313235 4.662936703425379e-15 " stroke="#191919" stroke-width="0.35 px" style="stroke-width:0.35;stroke-miterlimit:4;stroke-dasharray:none;fill:none;fill-opacity:1;fill-rule: evenodd"/>
<path id="Shape2DView_nwe0074"  d="M 18.748164593002 4.662936703426e-15 L 19.777098564892 4.662936703426e-15 " stroke="#191919" stroke-width="0.35 px" style="stroke-width:0.35;stroke-miterlimit:4;stroke-dasharray:none;fill:none;fill-opacity:1;fill-rule: evenodd"/>
<path id="Shape2DView_nwe0075"  d="M 20.769217224581727 4.662936703425504e-15 L 20.740815293114927 4.726404850352233e-15 L 20.69430607703037 4.784939522970585e-15 L 20.631490372414913 4.836274310055625e-15 L 20.554800348300596 4.878421573640402e-15 L 20.46720537521122 4.9097494086160996e-15 L 20.372097053737974 4.929044828667669e-15 L 20.273157894736904 4.93556073204091e-15 L 20.17421873573584 4.929044828667644e-15 L 20.07911041426261 4.909749408616051e-15 L 19.99151544117325 4.878421573640332e-15 L 19.914825417058957 4.836274310055535e-15 L 19.85200971244353 4.7849395229704795e-15 L 19.805500496359002 4.7264048503521155e-15 L 19.777098564892235 4.662936703425379e-15 " stroke="#191919" stroke-width="0.35 px" style="stroke-width:0.35;stroke-miterlimit:4;stroke-dasharray:none;fill:none;fill-opacity:1;fill-rule: evenodd"/>
<path id="Shape2DView_nwe0076"  d="M 20.769217224581 4.662936703426e-15 L 21.798151196471 4.662936703426e-15 " stroke="#191919" stroke-width="0.35 px" style="stroke-width:0.35;stroke-miterlimit:4;stroke-dasharray:none;fill:none;fill-opacity:1;fill-rule: evenodd"/>
<path id="Shape2DView_nwe0077"  d="M 22.790269856160727 4.662936703425504e-15 L 22.761867924693927 4.726404850352233e-15 L 22.71535870860937 4.784939522970585e-15 L 22.652543003993912 4.836274310055625e-15 L 22.575852979879595 4.878421573640402e-15 L 22.48825800679022 4.9097494086160996e-15 L 22.393149685316974 4.929044828667669e-15 L 22.294210526315904 4.93556073204091e-15 L 22.195271367314838 4.929044828667644e-15 L 22.100163045841608 4.909749408616051e-15 L 22.01256807275225 4.878421573640332e-15 L 21.935878048637957 4.836274310055535e-15 L 21.87306234402253 4.7849395229704795e-15 L 21.826553127938 4.7264048503521155e-15 L 21.798151196471235 4.662936703425379e-15 " stroke="#191919" stroke-width="0.35 px" style="stroke-width:0.35;stroke-miterlimit:4;stroke-dasharray:none;fill:none;fill-opacity:1;fill-rule: evenodd"/>
<path id="Shape2DView_nwe0078"  d="M 22.79026985616 4.662936703426e-15 L 24.169999999955 4.662936703426e-15 " stroke="#191919" stroke-width="0.35 px" style="stroke-width:0.35;stroke-miterlimit:4;stroke-dasharray:none;fill:none;fill-opacity:1;fill-rule: evenodd"/>
<path id="Shape2DView_nwe0079"  d="M 24.16999999994346 4.6629367034261395e-15 L 24.212082217110964 4.686804678560759e-15 L 24.253095122169753 4.711484793555885e-15 L 24.293003406993375 4.7369558012304174e-15 L 24.331772714426066 4.763195773521502e-15 L 24.36936966786094 4.790182120362461e-15 L 24.405761899973992 4.817891609130647e-15 L 24.44091808058923 4.846300384648475e-15 L 24.474807943650905 4.875383989720409e-15 L 24.507402313279645 4.905117386188232e-15 L 24.538673128890057 4.935474976486473e-15 L 24.568593469348162 4.966430625679415e-15 L 24.59713757614787 4.997957683960742e-15 L 24.624280875586564 5.030029009596431e-15 L 24.649999999920663 5.0626169922911526e-15 " stroke="#191919" stroke-width="0.35 px" style="stroke-width:0.35;stroke-miterlimit:4;stroke-dasharray:none;fill:none;fill-opacity:1;fill-rule: evenodd"/>
<path id="Shape2DView_nwe0080"  d="M 24.649999999952 5.062616992291e-15 L 25.61 5.062616992291e-15 " stroke="#191919" stroke-width="0.35 px" style="stroke-width:0.35;stroke-miterlimit:4;stroke-dasharray:none;fill:none;fill-opacity:1;fill-rule: evenodd"/>
<path id="Shape2DView_nwe0081"  d="M 25.970000000004575 3.0142555118566064e-15 L 25.945287685454844 3.1606442369126193e-15 L 25.92042117168444 3.307021374703017e-15 L 25.895400470937318 3.453386853153621e-15 L 25.87022559553327 3.599740600196014e-15 L 25.84489655786814 3.746082543767544e-15 L 25.8194133704136 3.892412611811366e-15 L 25.79377604571721 4.038730732276499e-15 L 25.76798459640247 4.185036833117826e-15 L 25.742039035168716 4.331330842296165e-15 L 25.71593937479122 4.4776126877782704e-15 L 25.68968562812114 4.6238822975369034e-15 L 25.663277808085468 4.770139599550837e-15 L 25.636715927686964 4.916384521804914e-15 L 25.610000000004504 5.062616992290063e-15 " stroke="#191919" stroke-width="0.35 px" style="stroke-width:0.35;stroke-miterlimit:4;stroke-dasharray:none;fill:none;fill-opacity:1;fill-rule: evenodd"/>
<path id="Shape2DView_nwe0082"  d="M 2.3300000000046452 -3.7499999999994276 L 1.9700000000046884 -0.6749999999994247 " stroke="#191919" stroke-width="0.35 px" style="stroke-width:0.35;stroke-miterlimit:4;stroke-dasharray:none;fill:none;fill-opacity:1;fill-rule: evenodd"/>
<path id="Shape2DView_nwe0083"  d="M 2.3300000000046452 3.749999999999431 L 1.9700000000046884 0.6749999999994283 " stroke="#191919" stroke-width="0.35 px" style="stroke-width:0.35;stroke-miterlimit:4;stroke-dasharray:none;fill:none;fill-opacity:1;fill-rule: evenodd"/>
<path id="Shape2DView_nwe0084"  d="M 2.33 -3.7499999999999982 L 3.29 -3.7499999999999982 " stroke="#191919" stroke-width="0.35 px" style="stroke-width:0.35;stroke-miterlimit:4;stroke-dasharray:none;fill:none;fill-opacity:1;fill-rule: evenodd"/>
<path id="Shape2DView_nwe0085"  d="M 2.33 3.7500000000000018 L 3.29 3.7500000000000018 " stroke="#191919" stroke-width="0.35 px" style="stroke-width:0.35;stroke-miterlimit:4;stroke-dasharray:none;fill:none;fill-opacity:1;fill-rule: evenodd"/>
<path id="Shape2DView_nwe0086"  d="M 3.2900000000004406 -3.7500000000000386 L 3.488000000000379 -3.150000000000228 " stroke="#191919" stroke-width="0.35 px" style="stroke-width:0.35;stroke-miterlimit:4;stroke-dasharray:none;fill:none;fill-opacity:1;fill-rule: evenodd"/>
<path id="Shape2DView_nwe0087"  d="M 3.2900000000004406 3.750000000000042 L 3.488000000000379 3.1500000000002317 " stroke="#191919" stroke-width="0.35 px" style="stroke-width:0.35;stroke-miterlimit:4;stroke-dasharray:none;fill:none;fill-opacity:1;fill-rule: evenodd"/>
<path id="Shape2DView_nwe0088"  d="M 0.899991648234 -0.44999999999999873 L 1.9699999999999998 -0.44999999999999873 " stroke="#191919" stroke-width="0.35 px" style="stroke-width:0.35;stroke-miterlimit:4;stroke-dasharray:none;fill:none;fill-opacity:1;fill-rule: evenodd"/>
<path id="Shape2DView_nwe0089"  d="M 0.8999916482340002 0.4500000000000013 L 1.9700000000000002 0.4500000000000013 " stroke="#191919" stroke-width="0.35 px" style="stroke-width:0.35;stroke-miterlimit:4;stroke-dasharray:none;fill:none;fill-opacity:1;fill-rule: evenodd"/>
<path id="Shape2DView_nwe0090"  d="M 3.488 -3.149999999999998 L 5.62973014384 -3.149999999999998 " stroke="#191919" stroke-width="0.35 px" style="stroke-width:0.35;stroke-miterlimit:4;stroke-dasharray:none;fill:none;fill-opacity:1;fill-rule: evenodd"/>
<path id="Shape2DView_nwe0091"  d="M 3.488 3.1500000000000017 L 5.62973014384 3.1500000000000017 " stroke="#191919" stroke-width="0.35 px" style="stroke-width:0.35;stroke-miterlimit:4;stroke-dasharray:none;fill:none;fill-opacity:1;fill-rule: evenodd"/>
<path id="Shape2DView_nwe0092"  d="M 0.8999916482335344 -0.4499999999999987 Q 0.08001100227416574 -0.44999999999999873 1.432187701766452e-14 -0.4499999999999989 " stroke="#191919" stroke-width="0.35 px" style="stroke-width:0.35;stroke-miterlimit:4;stroke-dasharray:none;fill:none;fill-opacity:1;fill-rule: evenodd"/>
<path id="Shape2DView_nwe0093"  d="M 0.8999916482335344 0.45000000000000134 Q 0.08001100227046437 0.4500000000000014 -1.5432100042289676e-14 0.4500000000000011 " stroke="#191919" stroke-width="0.35 px" style="stroke-width:0.35;stroke-miterlimit:4;stroke-dasharray:none;fill:none;fill-opacity:1;fill-rule: evenodd"/>
<path id="Shape2DView_nwe0094"  d="M 6.6218488035287635 3.1499999999999564 Q 6.542470814602723 3.4756313679143105 6.215924647545362 3.5511586940405357 Q 6.09868351509202 3.544681998819449 5.98144238263868 3.5382053035983634 Q 5.697498969722458 3.442029247948513 5.6297301438392715 3.150000000000143 " stroke="#191919" stroke-width="0.35 px" style="stroke-width:0.35;stroke-miterlimit:4;stroke-dasharray:none;fill:none;fill-opacity:1;fill-rule: evenodd"/>
<path id="Shape2DView_nwe0095"  d="M 6.6218488035287635 -3.149999999999953 Q 6.542470814602724 -3.4756313679143016 6.2159246475453624 -3.5511586940405326 Q 6.098683515092022 -3.5446819988194465 5.98144238263868 -3.53820530359836 Q 5.697498969722458 -3.4420292479485095 5.6297301438392715 -3.1500000000001394 " stroke="#191919" stroke-width="0.35 px" style="stroke-width:0.35;stroke-miterlimit:4;stroke-dasharray:none;fill:none;fill-opacity:1;fill-rule: evenodd"/>
<path id="Shape2DView_nwe0096"  d="M 6.621848803529 -3.149999999999998 L 7.650782775419 -3.149999999999998 " stroke="#191919" stroke-width="0.35 px" style="stroke-width:0.35;stroke-miterlimit:4;stroke-dasharray:none;fill:none;fill-opacity:1;fill-rule: evenodd"/>
<path id="Shape2DView_nwe0097"  d="M 6.621848803529 3.1500000000000017 L 7.650782775419 3.1500000000000017 " stroke="#191919" stroke-width="0.35 px" style="stroke-width:0.35;stroke-miterlimit:4;stroke-dasharray:none;fill:none;fill-opacity:1;fill-rule: evenodd"/>
<path id="Shape2DView_nwe0098"  d="M 8.642901435107763 3.1499999999999564 Q 8.56352344961125 3.475631386830059 8.236977274223161 3.5511586670078215 Q 8.123083037810414 3.545654644190222 8.009188801397665 3.540150621372622 Q 7.719920103716016 3.4461855037404723 7.650782775418271 3.150000000000143 " stroke="#191919" stroke-width="0.35 px" style="stroke-width:0.35;stroke-miterlimit:4;stroke-dasharray:none;fill:none;fill-opacity:1;fill-rule: evenodd"/>
<path id="Shape2DView_nwe0099"  d="M 8.642901435107763 -3.149999999999953 Q 8.563523449611264 -3.475631386830044 8.236977274223161 -3.551158667007818 Q 8.123083037810414 -3.5456546441902184 8.009188801397665 -3.5401506213726184 Q 7.719920103716014 -3.446185503740468 7.650782775418271 -3.1500000000001394 " stroke="#191919" stroke-width="0.35 px" style="stroke-width:0.35;stroke-miterlimit:4;stroke-dasharray:none;fill:none;fill-opacity:1;fill-rule: evenodd"/>
<path id="Shape2DView_nwe0100"  d="M 8.642901435108 -3.149999999999998 L 9.671835406998 -3.149999999999998 " stroke="#191919" stroke-width="0.35 px" style="stroke-width:0.35;stroke-miterlimit:4;stroke-dasharray:none;fill:none;fill-opacity:1;fill-rule: evenodd"/>
<path id="Shape2DView_nwe0101"  d="M 8.642901435108 3.1500000000000017 L 9.671835406998 3.1500000000000017 " stroke="#191919" stroke-width="0.35 px" style="stroke-width:0.35;stroke-miterlimit:4;stroke-dasharray:none;fill:none;fill-opacity:1;fill-rule: evenodd"/>
<path id="Shape2DView_nwe0102"  d="M 10.663954066686763 3.1499999999999564 Q 10.58457608119025 3.475631386830059 10.258029905802161 3.5511586670078215 Q 10.144135669389414 3.545654644190222 10.030241432976663 3.540150621372622 Q 9.740972735295015 3.446185503740473 9.67183540699727 3.150000000000143 " stroke="#191919" stroke-width="0.35 px" style="stroke-width:0.35;stroke-miterlimit:4;stroke-dasharray:none;fill:none;fill-opacity:1;fill-rule: evenodd"/>
<path id="Shape2DView_nwe0103"  d="M 10.663954066686763 -3.149999999999953 Q 10.584576081190264 -3.475631386830044 10.258029905802161 -3.551158667007818 Q 10.144135669389415 -3.5456546441902184 10.030241432976663 -3.5401506213726184 Q 9.740972735295014 -3.4461855037404687 9.67183540699727 -3.1500000000001394 " stroke="#191919" stroke-width="0.35 px" style="stroke-width:0.35;stroke-miterlimit:4;stroke-dasharray:none;fill:none;fill-opacity:1;fill-rule: evenodd"/>
<path id="Shape2DView_nwe0104"  d="M 10.663954066687 -3.149999999999998 L 11.692888038577 -3.149999999999998 " stroke="#191919" stroke-width="0.35 px" style="stroke-width:0.35;stroke-miterlimit:4;stroke-dasharray:none;fill:none;fill-opacity:1;fill-rule: evenodd"/>
<path id="Shape2DView_nwe0105"  d="M 10.663954066687 3.1500000000000017 L 11.692888038577 3.1500000000000017 " stroke="#191919" stroke-width="0.35 px" style="stroke-width:0.35;stroke-miterlimit:4;stroke-dasharray:none;fill:none;fill-opacity:1;fill-rule: evenodd"/>
<path id="Shape2DView_nwe0106"  d="M 12.685006698265763 3.1499999999999564 Q 12.605628712769251 3.475631386830059 12.27908253738116 3.5511586670078215 Q 12.165188300968415 3.545654644190222 12.051294064555663 3.540150621372622 Q 11.762025366874015 3.446185503740473 11.69288803857627 3.150000000000143 " stroke="#191919" stroke-width="0.35 px" style="stroke-width:0.35;stroke-miterlimit:4;stroke-dasharray:none;fill:none;fill-opacity:1;fill-rule: evenodd"/>
<path id="Shape2DView_nwe0107"  d="M 12.685006698265763 -3.149999999999953 Q 12.605628712769265 -3.475631386830044 12.27908253738116 -3.551158667007818 Q 12.165188300968417 -3.5456546441902184 12.051294064555663 -3.5401506213726184 Q 11.762025366874013 -3.4461855037404687 11.69288803857627 -3.1500000000001394 " stroke="#191919" stroke-width="0.35 px" style="stroke-width:0.35;stroke-miterlimit:4;stroke-dasharray:none;fill:none;fill-opacity:1;fill-rule: evenodd"/>
<path id="Shape2DView_nwe0108"  d="M 12.685006698266 -3.149999999999998 L 13.713940670156 -3.149999999999998 " stroke="#191919" stroke-width="0.35 px" style="stroke-width:0.35;stroke-miterlimit:4;stroke-dasharray:none;fill:none;fill-opacity:1;fill-rule: evenodd"/>
<path id="Shape2DView_nwe0109"  d="M 12.685006698266 3.1500000000000017 L 13.713940670156 3.1500000000000017 " stroke="#191919" stroke-width="0.35 px" style="stroke-width:0.35;stroke-miterlimit:4;stroke-dasharray:none;fill:none;fill-opacity:1;fill-rule: evenodd"/>
<path id="Shape2DView_nwe0110"  d="M 14.706059329844729 3.150000000000143 Q 14.626681347370942 3.4756314035027467 14.300135164640093 3.5511586431808464 Q 14.189600924168891 3.546581025174695 14.07906668369768 3.5420034071685422 Q 13.784469282169898 3.4503545515164378 13.713940670155273 3.150000000000142 " stroke="#191919" stroke-width="0.35 px" style="stroke-width:0.35;stroke-miterlimit:4;stroke-dasharray:none;fill:none;fill-opacity:1;fill-rule: evenodd"/>
<path id="Shape2DView_nwe0111"  d="M 14.706059329844729 -3.1500000000001394 Q 14.626681347370946 -3.4756314035027396 14.300135164640093 -3.551158643180843 Q 14.189600924168882 -3.5465810251746905 14.07906668369768 -3.5420034071685387 Q 13.784469282169903 -3.450354551516434 13.713940670155273 -3.1500000000001385 " stroke="#191919" stroke-width="0.35 px" style="stroke-width:0.35;stroke-miterlimit:4;stroke-dasharray:none;fill:none;fill-opacity:1;fill-rule: evenodd"/>
<path id="Shape2DView_nwe0112"  d="M 14.706059329844 -3.149999999999998 L 15.734993301734 -3.149999999999998 " stroke="#191919" stroke-width="0.35 px" style="stroke-width:0.35;stroke-miterlimit:4;stroke-dasharray:none;fill:none;fill-opacity:1;fill-rule: evenodd"/>
<path id="Shape2DView_nwe0113"  d="M 14.706059329844 3.1500000000000017 L 15.734993301734 3.1500000000000017 " stroke="#191919" stroke-width="0.35 px" style="stroke-width:0.35;stroke-miterlimit:4;stroke-dasharray:none;fill:none;fill-opacity:1;fill-rule: evenodd"/>
<path id="Shape2DView_nwe0114"  d="M 16.727111961423727 3.150000000000143 Q 16.659341735277586 3.442030661532552 16.375399725632153 3.5382053136879854 Q 16.234399526672817 3.5391779675302772 16.09339932771348 3.5401506213725704 Q 15.804130630031866 3.446185503740311 15.734993301734239 3.1499999999999564 " stroke="#191919" stroke-width="0.35 px" style="stroke-width:0.35;stroke-miterlimit:4;stroke-dasharray:none;fill:none;fill-opacity:1;fill-rule: evenodd"/>
<path id="Shape2DView_nwe0115"  d="M 16.727111961423727 -3.1500000000001394 Q 16.659341735277607 -3.4420306615325376 16.375399725632153 -3.5382053136879827 Q 16.234399526672817 -3.539177967530276 16.09339932771348 -3.540150621372567 Q 15.80413063003187 -3.446185503740307 15.734993301734239 -3.149999999999953 " stroke="#191919" stroke-width="0.35 px" style="stroke-width:0.35;stroke-miterlimit:4;stroke-dasharray:none;fill:none;fill-opacity:1;fill-rule: evenodd"/>
<path id="Shape2DView_nwe0116"  d="M 16.727111961423 -3.149999999999998 L 17.756045933313 -3.149999999999998 " stroke="#191919" stroke-width="0.35 px" style="stroke-width:0.35;stroke-miterlimit:4;stroke-dasharray:none;fill:none;fill-opacity:1;fill-rule: evenodd"/>
<path id="Shape2DView_nwe0117"  d="M 16.727111961423 3.1500000000000017 L 17.756045933313 3.1500000000000017 " stroke="#191919" stroke-width="0.35 px" style="stroke-width:0.35;stroke-miterlimit:4;stroke-dasharray:none;fill:none;fill-opacity:1;fill-rule: evenodd"/>
<path id="Shape2DView_nwe0118"  d="M 18.748164593002727 3.150000000000143 Q 18.644245582441506 3.3094965878783045 18.540326571880296 3.4689931757564665 Q 17.921170256228965 3.7044857961703417 17.75604593331324 3.149999999999957 " stroke="#191919" stroke-width="0.35 px" style="stroke-width:0.35;stroke-miterlimit:4;stroke-dasharray:none;fill:none;fill-opacity:1;fill-rule: evenodd"/>
<path id="Shape2DView_nwe0119"  d="M 18.748164593002727 -3.1500000000001394 Q 18.644245582441506 -3.309496587878301 18.540326571880296 -3.4689931757564625 Q 17.92117025622897 -3.7044857961703377 17.75604593331324 -3.149999999999953 " stroke="#191919" stroke-width="0.35 px" style="stroke-width:0.35;stroke-miterlimit:4;stroke-dasharray:none;fill:none;fill-opacity:1;fill-rule: evenodd"/>
<path id="Shape2DView_nwe0120"  d="M 18.748164593002 -3.149999999999998 L 19.777098564892 -3.149999999999998 " stroke="#191919" stroke-width="0.35 px" style="stroke-width:0.35;stroke-miterlimit:4;stroke-dasharray:none;fill:none;fill-opacity:1;fill-rule: evenodd"/>
<path id="Shape2DView_nwe0121"  d="M 18.748164593002 3.1500000000000017 L 19.777098564892 3.1500000000000017 " stroke="#191919" stroke-width="0.35 px" style="stroke-width:0.35;stroke-miterlimit:4;stroke-dasharray:none;fill:none;fill-opacity:1;fill-rule: evenodd"/>
<path id="Shape2DView_nwe0122"  d="M 20.769217224581727 3.150000000000143 Q 20.66529821402051 3.3094965878783045 20.561379203459293 3.468993175756466 Q 19.94222288780797 3.7044857961703412 19.777098564892235 3.149999999999956 " stroke="#191919" stroke-width="0.35 px" style="stroke-width:0.35;stroke-miterlimit:4;stroke-dasharray:none;fill:none;fill-opacity:1;fill-rule: evenodd"/>
<path id="Shape2DView_nwe0123"  d="M 20.769217224581727 -3.1500000000001394 Q 20.66529821402051 -3.309496587878301 20.561379203459293 -3.4689931757564625 Q 19.94222288780797 -3.7044857961703377 19.777098564892235 -3.149999999999953 " stroke="#191919" stroke-width="0.35 px" style="stroke-width:0.35;stroke-miterlimit:4;stroke-dasharray:none;fill:none;fill-opacity:1;fill-rule: evenodd"/>
<path id="Shape2DView_nwe0124"  d="M 20.769217224581 -3.149999999999998 L 21.798151196471 -3.149999999999998 " stroke="#191919" stroke-width="0.35 px" style="stroke-width:0.35;stroke-miterlimit:4;stroke-dasharray:none;fill:none;fill-opacity:1;fill-rule: evenodd"/>
<path id="Shape2DView_nwe0125"  d="M 20.769217224581 3.1500000000000017 L 21.798151196471 3.1500000000000017 " stroke="#191919" stroke-width="0.35 px" style="stroke-width:0.35;stroke-miterlimit:4;stroke-dasharray:none;fill:none;fill-opacity:1;fill-rule: evenodd"/>
<path id="Shape2DView_nwe0126"  d="M 22.790269856160727 3.150000000000143 Q 22.686350845599513 3.3094965878783045 22.582431835038296 3.4689931757564665 Q 21.96327551938697 3.7044857961703417 21.798151196471238 3.149999999999957 " stroke="#191919" stroke-width="0.35 px" style="stroke-width:0.35;stroke-miterlimit:4;stroke-dasharray:none;fill:none;fill-opacity:1;fill-rule: evenodd"/>
<path id="Shape2DView_nwe0127"  d="M 22.790269856160727 -3.1500000000001394 Q 22.686350845599513 -3.309496587878301 22.582431835038296 -3.4689931757564625 Q 21.96327551938697 -3.7044857961703377 21.798151196471238 -3.149999999999953 " stroke="#191919" stroke-width="0.35 px" style="stroke-width:0.35;stroke-miterlimit:4;stroke-dasharray:none;fill:none;fill-opacity:1;fill-rule: evenodd"/>
<path id="Shape2DView_nwe0128"  d="M 22.79026985616 -3.149999999999998 L 24.169999999955 -3.149999999999998 " stroke="#191919" stroke-width="0.35 px" style="stroke-width:0.35;stroke-miterlimit:4;stroke-dasharray:none;fill:none;fill-opacity:1;fill-rule: evenodd"/>
<path id="Shape2DView_nwe0129"  d="M 22.79026985616 3.1500000000000017 L 24.169999999955 3.1500000000000017 " stroke="#191919" stroke-width="0.35 px" style="stroke-width:0.35;stroke-miterlimit:4;stroke-dasharray:none;fill:none;fill-opacity:1;fill-rule: evenodd"/>
<path id="Shape2DView_nwe0130"  d="M 24.16999999994346 -3.149999999999961 L 24.649999999920663 -3.749999999999891 " stroke="#191919" stroke-width="0.35 px" style="stroke-width:0.35;stroke-miterlimit:4;stroke-dasharray:none;fill:none;fill-opacity:1;fill-rule: evenodd"/>
<path id="Shape2DView_nwe0131"  d="M 24.16999999994346 3.1499999999999644 L 24.649999999920663 3.7499999999998948 " stroke="#191919" stroke-width="0.35 px" style="stroke-width:0.35;stroke-miterlimit:4;stroke-dasharray:none;fill:none;fill-opacity:1;fill-rule: evenodd"/>
<path id="Shape2DView_nwe0132"  d="M 24.649999999952 -3.7499999999999982 L 25.61 -3.7499999999999982 " stroke="#191919" stroke-width="0.35 px" style="stroke-width:0.35;stroke-miterlimit:4;stroke-dasharray:none;fill:none;fill-opacity:1;fill-rule: evenodd"/>
<path id="Shape2DView_nwe0133"  d="M 24.649999999952 3.7500000000000018 L 25.61 3.7500000000000018 " stroke="#191919" stroke-width="0.35 px" style="stroke-width:0.35;stroke-miterlimit:4;stroke-dasharray:none;fill:none;fill-opacity:1;fill-rule: evenodd"/>
<path id="Shape2DView_nwe0134"  d="M 25.970000000004575 -0.6750000000005048 L 25.610000000004504 -3.750000000000543 " stroke="#191919" stroke-width="0.35 px" style="stroke-width:0.35;stroke-miterlimit:4;stroke-dasharray:none;fill:none;fill-opacity:1;fill-rule: evenodd"/>
<path id="Shape2DView_nwe0135"  d="M 25.970000000004575 0.6750000000005083 L 25.610000000004504 3.7500000000005467 " stroke="#191919" stroke-width="0.35 px" style="stroke-width:0.35;stroke-miterlimit:4;stroke-dasharray:none;fill:none;fill-opacity:1;fill-rule: evenodd"/>
<path id="Shape2DView_nwe0136"  d="M 25.969999999999995 -0.44999999999999873 L 27.04 -0.44999999999999873 " stroke="#191919" stroke-width="0.35 px" style="stroke-width:0.35;stroke-miterlimit:4;stroke-dasharray:none;fill:none;fill-opacity:1;fill-rule: evenodd"/>
<path id="Shape2DView_nwe0137"  d="M 25.970000000000002 0.4500000000000013 L 27.04 0.4500000000000013 " stroke="#191919" stroke-width="0.35 px" style="stroke-width:0.35;stroke-miterlimit:4;stroke-dasharray:none;fill:none;fill-opacity:1;fill-rule: evenodd"/>
<path id="Shape2DView_nwe0138"  d="M 27.040000000029067 0.45000000000000134 C 27.35124417760767 0.44999999999999696 27.910652117488343 0.4500000000000097 27.940000074286203 0.449999999999995 " stroke="#191919" stroke-width="0.35 px" style="stroke-width:0.35;stroke-miterlimit:4;stroke-dasharray:none;fill:none;fill-opacity:1;fill-rule: evenodd"/>
<path id="Shape2DView_nwe0139"  d="M 27.040000000029067 -0.4499999999999987 Q 27.859912696763487 -0.44999999999999885 27.939999999979047 -0.4499999999999989 " stroke="#191919" stroke-width="0.35 px" style="stroke-width:0.35;stroke-miterlimit:4;stroke-dasharray:none;fill:none;fill-opacity:1;fill-rule: evenodd"/>
<path id="Shape2DView_nwe0140"  d="M 27.939999999979047 -0.4499999999999989 L 27.940000002919287 -0.4499999999999989 " stroke="#191919" stroke-width="0.35 px" style="stroke-width:0.35;stroke-miterlimit:4;stroke-dasharray:none;fill:none;fill-opacity:1;fill-rule: evenodd"/>
<title>b'Shape2DView'</title>
</g>
<g id="Rectangle" transform="translate(0.735071,4.038352) scale(1,-1)">
<rect fill="#ff0000" id="origin" width="1" height="1" x="0" y="0" />
<title>b'Rectangle'</title>
</g>
</svg>