<?xml version="1.0"?>
<!DOCTYPE svg PUBLIC "-//W3C//DTD SVG 1.1//EN" "http://www.w3.org/Graphics/SVG/1.1/DTD/svg11.dtd">
<svg width="4.977878016368966mm" height="4.0945407136826795mm" viewBox="0 0 4.977878016368966 4.0945407136826795" xmlns="http://www.w3.org/2000/svg" version="1.1">
<g id="Shape2DView" transform="translate(2.041627,2.047270) scale(1,-1)">
<path id="Shape2DView_nwe0000"  d="M 1.9691368667515214 -0.3499999999999969 A 2 2 0 1 0 1.96914 0.35" stroke="#191919" stroke-width="0.35 px" style="stroke-width:0.35;stroke-miterlimit:4;stroke-dasharray:none;fill:none;fill-opacity:1;fill-rule: evenodd"/>
<circle cx="0.0" cy="4.268567913204e-15" r="0.35" stroke="#191919" stroke-width="0.35 px" style="stroke-width:0.35;stroke-miterlimit:4;stroke-dasharray:none;fill:none"/>
<path id="Shape2DView_nwe0002"  d="M 0.0002539471380735475 0.34999990787263513 A 0.35 0.35 0 0 1 -1.19468e-14 0.35" stroke="#191919" stroke-width="0.35 px" style="stroke-width:0.35;stroke-miterlimit:4;stroke-dasharray:none;fill:none;fill-opacity:1;fill-rule: evenodd"/>
<path id="Shape2DView_nwe0003"  d="M -1.1946772886474108e-14 0.35000000000000286 A 0.35 0.35 0 0 1 1.11268e-14 -0.35" stroke="#191919" stroke-width="0.35 px" style="stroke-width:0.35;stroke-miterlimit:4;stroke-dasharray:none;fill:none;fill-opacity:1;fill-rule: evenodd"/>
<path id="Shape2DView_nwe0004"  d="M 2.539999999999989 -0.3499999999999971 A 0.35 0.35 0 0 1 2.54 0.35" stroke="#191919" stroke-width="0.35 px" style="stroke-width:0.35;stroke-miterlimit:4;stroke-dasharray:none;fill:none;fill-opacity:1;fill-rule: evenodd"/>
<path id="Shape2DView_nwe0007"  d="M 0.700011670287 -0.3499999999999969 A 0.35 5.835143656195145e-06 90.0 0 0 0.700011670287 0.35000000000000303 " stroke="#191919" stroke-width="0.35 px" style="stroke-width:0.35;stroke-miterlimit:4;stroke-dasharray:none;fill:none;fill-opacity:1;fill-rule: evenodd"/>
<path id="Shape2DView_nwe0008"  d="M 1.84 0.35000000000000303 L 1.84 0.3412247692636413 L 1.84 0.3153391037658498 L 1.84 0.27364101886381353 L 1.84 0.21822143065055985 L 1.84 0.1518593086911485 L 1.84 0.07788232688471318 L 1.84 3.1625893371449074e-15 L 1.84 -0.07788232688470688 L 1.84 -0.15185930869114217 L 1.84 -0.21822143065055355 L 1.84 -0.27364101886380726 L 1.84 -0.3153391037658435 L 1.84 -0.3412247692636352 L 1.84 -0.3499999999999969 " stroke="#191919" stroke-width="0.35 px" style="stroke-width:0.35;stroke-miterlimit:4;stroke-dasharray:none;fill:none;fill-opacity:1;fill-rule: evenodd"/>
<path id="Shape2DView_nwe0009"  d="M 0.7000116702866875 -0.3499999999999969 Q 0.06809745822890484 -0.3499999999999969 1.1213252548714081e-14 -0.3499999999999971 " stroke="#191919" stroke-width="0.35 px" style="stroke-width:0.35;stroke-miterlimit:4;stroke-dasharray:none;fill:none;fill-opacity:1;fill-rule: evenodd"/>
<path id="Shape2DView_nwe0010"  d="M 0.7000116702866875 0.35000000000000303 Q 0.5559796919052593 0.35000000000000303 0.41194771352383097 0.3500000000000031 Q 0.01864518077513644 0.35000000000000286 -1.199040866595169e-14 0.3500000000000029 " stroke="#191919" stroke-width="0.35 px" style="stroke-width:0.35;stroke-miterlimit:4;stroke-dasharray:none;fill:none;fill-opacity:1;fill-rule: evenodd"/>
<path id="Shape2DView_nwe0011"  d="M 0.7000116702889827 -0.3499999999999969 L 1.8400000000000003 -0.3499999999999969 " stroke="#191919" stroke-width="0.35 px" style="stroke-width:0.35;stroke-miterlimit:4;stroke-dasharray:none;fill:none;fill-opacity:1;fill-rule: evenodd"/>
<path id="Shape2DView_nwe0012"  d="M 0.7000116702889827 0.35000000000000303 L 1.8400000000000003 0.35000000000000303 " stroke="#191919" stroke-width="0.35 px" style="stroke-width:0.35;stroke-miterlimit:4;stroke-dasharray:none;fill:none;fill-opacity:1;fill-rule: evenodd"/>
<path id="Shape2DView_nwe0013"  d="M 1.84 0.35000000000000303 Q 2.47191131657752 0.3500000000000029 2.5400000000000116 0.35000000000000286 " stroke="#191919" stroke-width="0.35 px" style="stroke-width:0.35;stroke-miterlimit:4;stroke-dasharray:none;fill:none;fill-opacity:1;fill-rule: evenodd"/>
<path id="Shape2DView_nwe0014"  d="M 1.84 -0.3499999999999969 Q 2.477767897594833 -0.349999999999997 2.539999999999989 -0.34999999999999704 " stroke="#191919" stroke-width="0.35 px" style="stroke-width:0.35;stroke-miterlimit:4;stroke-dasharray:none;fill:none;fill-opacity:1;fill-rule: evenodd"/>
<title>b'Shape2DView'</title>
</g>
<g id="Rectangle" transform="translate(2.041627,2.047270) scale(1,-1)">
<rect fill="#ff0000" id="origin" width="1" height="1" x="0" y="0" />
<title>b'Rectangle'</title>
</g>
</svg>