<?xml version="1.0"?>
<!DOCTYPE svg PUBLIC "-//W3C//DTD SVG 1.1//EN" "http://www.w3.org/Graphics/SVG/1.1/DTD/svg11.dtd">
<svg width="10.51304676517039mm" height="4.700517658699445mm" viewBox="0 0 10.51304676517039 4.700517658699445" xmlns="http://www.w3.org/2000/svg" version="1.1">
<g id="Shape2DView" transform="translate(2.341515,2.350259) scale(1,-1)">
<path id="Shape2DView_nwe0000"  d="M 2.2045407685048595 -0.4499999999999976 A 2.25 2.25 0 1 0 2.20454 0.45" stroke="#191919" stroke-width="0.35 px" style="stroke-width:0.35;stroke-miterlimit:4;stroke-dasharray:none;fill:none;fill-opacity:1;fill-rule: evenodd"/>
<circle cx="0.0" cy="5.826058589812e-15" r="0.45" stroke="#191919" stroke-width="0.35 px" style="stroke-width:0.35;stroke-miterlimit:4;stroke-dasharray:none;fill:none"/>
<path id="Shape2DView_nwe0002"  d="M -1.5360136568323856e-14 0.4500000000000038 A 0.45 0.45 0 0 1 1.43058e-14 -0.45" stroke="#191919" stroke-width="0.35 px" style="stroke-width:0.35;stroke-miterlimit:4;stroke-dasharray:none;fill:none;fill-opacity:1;fill-rule: evenodd"/>
<path id="Shape2DView_nwe0003"  d="M 7.619773371044775 -0.4499999429325667 A 0.45 0.45 0 0 1 7.62 -0.45" stroke="#191919" stroke-width="0.35 px" style="stroke-width:0.35;stroke-miterlimit:4;stroke-dasharray:none;fill:none;fill-opacity:1;fill-rule: evenodd"/>
<path id="Shape2DView_nwe0004"  d="M 7.620000003071097 -0.44999999999999624 A 0.45 0.45 0 1 1 7.17 3.91788e-15" stroke="#191919" stroke-width="0.35 px" style="stroke-width:0.35;stroke-miterlimit:4;stroke-dasharray:none;fill:none;fill-opacity:1;fill-rule: evenodd"/>
<path id="Shape2DView_nwe0006"  d="M 0.899991017597 -0.44999999999999607 A 0.45 4.4912016210131774e-06 -90.0 0 1 0.899991017597 0.45000000000000395 " stroke="#191919" stroke-width="0.35 px" style="stroke-width:0.35;stroke-miterlimit:4;stroke-dasharray:none;fill:none;fill-opacity:1;fill-rule: evenodd"/>
<path id="Shape2DView_nwe0007"  d="M 6.72 0.45000000000000395 L 6.72 0.4387175604818246 L 6.72 0.40543599055609264 L 6.72 0.3518241671106175 L 6.72 0.28057041083643414 L 6.72 0.19524768260290523 L 6.72 0.10013442028034558 L 6.72 4.107423145843881e-15 L 6.72 -0.10013442028033738 L 6.72 -0.19524768260289707 L 6.72 -0.28057041083642603 L 6.72 -0.3518241671106094 L 6.72 -0.4054359905560846 L 6.72 -0.4387175604818167 L 6.72 -0.44999999999999607 " stroke="#191919" stroke-width="0.35 px" style="stroke-width:0.35;stroke-miterlimit:4;stroke-dasharray:none;fill:none;fill-opacity:1;fill-rule: evenodd"/>
<path id="Shape2DView_nwe0008"  d="M 0.8999910175972416 -0.449999999999996 Q 0.08001086771359495 -0.44999999999999607 1.432187701766452e-14 -0.44999999999999624 " stroke="#191919" stroke-width="0.35 px" style="stroke-width:0.35;stroke-miterlimit:4;stroke-dasharray:none;fill:none;fill-opacity:1;fill-rule: evenodd"/>
<path id="Shape2DView_nwe0009"  d="M 0.8999910175972416 0.450000000000004 Q 0.08001086771439797 0.45000000000000406 -1.5432100042289676e-14 0.4500000000000038 " stroke="#191919" stroke-width="0.35 px" style="stroke-width:0.35;stroke-miterlimit:4;stroke-dasharray:none;fill:none;fill-opacity:1;fill-rule: evenodd"/>
<path id="Shape2DView_nwe0010"  d="M 0.8999910175954734 -0.44999999999999607 L 6.72 -0.44999999999999607 " stroke="#191919" stroke-width="0.35 px" style="stroke-width:0.35;stroke-miterlimit:4;stroke-dasharray:none;fill:none;fill-opacity:1;fill-rule: evenodd"/>
<path id="Shape2DView_nwe0011"  d="M 0.8999910175954734 0.45000000000000395 L 6.72 0.45000000000000395 " stroke="#191919" stroke-width="0.35 px" style="stroke-width:0.35;stroke-miterlimit:4;stroke-dasharray:none;fill:none;fill-opacity:1;fill-rule: evenodd"/>
<path id="Shape2DView_nwe0012"  d="M 6.72 0.450000000000004 Q 7.5399052323502636 0.45000000000000984 7.620000079898846 0.4499999999999967 " stroke="#191919" stroke-width="0.35 px" style="stroke-width:0.35;stroke-miterlimit:4;stroke-dasharray:none;fill:none;fill-opacity:1;fill-rule: evenodd"/>
<path id="Shape2DView_nwe0013"  d="M 6.72 -0.449999999999996 Q 6.8889380273689405 -0.449999999999996 7.057876054737882 -0.44999999999999607 Q 7.114958818289113 -0.44999999999999607 7.172041581840343 -0.44999999999999607 Q 7.533945845409104 -0.4499999999999962 7.608920771141573 -0.4499999999999962 Q 7.614460385560385 -0.4499999999999962 7.619999999979196 -0.4499999999999962 " stroke="#191919" stroke-width="0.35 px" style="stroke-width:0.35;stroke-miterlimit:4;stroke-dasharray:none;fill:none;fill-opacity:1;fill-rule: evenodd"/>
<path id="Shape2DView_nwe0014"  d="M 7.619999999979196 -0.44999999999999624 L 7.620000003071096 -0.44999999999999624 " stroke="#191919" stroke-width="0.35 px" style="stroke-width:0.35;stroke-miterlimit:4;stroke-dasharray:none;fill:none;fill-opacity:1;fill-rule: evenodd"/>
<title>b'Shape2DView'</title>
</g>
<g id="Rectangle" transform="translate(2.341515,2.350259) scale(1,-1)">
<rect fill="#ff0000" id="origin" width="1" height="1" x="0" y="0" />
<title>b'Rectangle'</title>
</g>
</svg>