<?xml version="1.0"?>
<!DOCTYPE svg PUBLIC "-//W3C//DTD SVG 1.1//EN" "http://www.w3.org/Graphics/SVG/1.1/DTD/svg11.dtd">
<svg width="10.411023802011673mm" height="4.702543117088235mm" viewBox="0 0 10.411023802011673 4.702543117088235" xmlns="http://www.w3.org/2000/svg" version="1.1">
<g id="Shape2DView" transform="translate(2.340157,2.351272) scale(1,-1)">
<path id="Shape2DView_nwe0000"  d="M 2.2226110770892866 -0.34999999999999687 A 2.25 2.25 0 1 0 2.22261 0.35" stroke="#191919" stroke-width="0.35 px" style="stroke-width:0.35;stroke-miterlimit:4;stroke-dasharray:none;fill:none;fill-opacity:1;fill-rule: evenodd"/>
<circle cx="0.0" cy="4.93476678109e-15" r="0.35" stroke="#191919" stroke-width="0.35 px" style="stroke-width:0.35;stroke-miterlimit:4;stroke-dasharray:none;fill:none"/>
<path id="Shape2DView_nwe0002"  d="M -1.1946772886474108e-14 0.3500000000000032 A 0.35 0.35 0 0 1 1.11268e-14 -0.35" stroke="#191919" stroke-width="0.35 px" style="stroke-width:0.35;stroke-miterlimit:4;stroke-dasharray:none;fill:none;fill-opacity:1;fill-rule: evenodd"/>
<path id="Shape2DView_nwe0003"  d="M 7.6198824186541625 -0.3499999802494635 A 0.35 0.35 0 1 1 7.27 3.34823e-15" stroke="#191919" stroke-width="0.35 px" style="stroke-width:0.35;stroke-miterlimit:4;stroke-dasharray:none;fill:none;fill-opacity:1;fill-rule: evenodd"/>
<path id="Shape2DView_nwe0005"  d="M 0.699992038855 -0.3499999999999966 A 0.35 3.980572566877801e-06 -90.0 0 1 0.699992038855 0.35000000000000336 " stroke="#191919" stroke-width="0.35 px" style="stroke-width:0.35;stroke-miterlimit:4;stroke-dasharray:none;fill:none;fill-opacity:1;fill-rule: evenodd"/>
<path id="Shape2DView_nwe0006"  d="M 6.92 0.35000000000000336 L 6.92 0.34122476926364165 L 6.92 0.3153391037658501 L 6.92 0.27364101886381387 L 6.92 0.21822143065056018 L 6.92 0.15185930869114883 L 6.92 0.07788232688471351 L 6.92 3.4956562445539074e-15 L 6.92 -0.07788232688470655 L 6.92 -0.15185930869114184 L 6.92 -0.21822143065055322 L 6.92 -0.27364101886380693 L 6.92 -0.3153391037658432 L 6.92 -0.3412247692636349 L 6.92 -0.3499999999999966 " stroke="#191919" stroke-width="0.35 px" style="stroke-width:0.35;stroke-miterlimit:4;stroke-dasharray:none;fill:none;fill-opacity:1;fill-rule: evenodd"/>
<path id="Shape2DView_nwe0007"  d="M 0.6999920388551342 -0.3499999999999966 Q 0.06223040391846163 -0.34999999999999665 1.1213252548714081e-14 -0.3499999999999967 " stroke="#191919" stroke-width="0.35 px" style="stroke-width:0.35;stroke-miterlimit:4;stroke-dasharray:none;fill:none;fill-opacity:1;fill-rule: evenodd"/>
<path id="Shape2DView_nwe0008"  d="M 0.6999920388551342 0.35000000000000336 Q 0.06223040391793305 0.3500000000000033 -1.199040866595169e-14 0.35000000000000325 " stroke="#191919" stroke-width="0.35 px" style="stroke-width:0.35;stroke-miterlimit:4;stroke-dasharray:none;fill:none;fill-opacity:1;fill-rule: evenodd"/>
<path id="Shape2DView_nwe0009"  d="M 0.6999920388536469 -0.3499999999999966 L 6.92 -0.3499999999999966 " stroke="#191919" stroke-width="0.35 px" style="stroke-width:0.35;stroke-miterlimit:4;stroke-dasharray:none;fill:none;fill-opacity:1;fill-rule: evenodd"/>
<path id="Shape2DView_nwe0010"  d="M 0.6999920388536469 0.35000000000000336 L 6.92 0.35000000000000336 " stroke="#191919" stroke-width="0.35 px" style="stroke-width:0.35;stroke-miterlimit:4;stroke-dasharray:none;fill:none;fill-opacity:1;fill-rule: evenodd"/>
<path id="Shape2DView_nwe0011"  d="M 7.619793022241891 0.34999991574811234 L 7.620000070818066 0.34999999999999604 " stroke="#191919" stroke-width="0.35 px" style="stroke-width:0.35;stroke-miterlimit:4;stroke-dasharray:none;fill:none;fill-opacity:1;fill-rule: evenodd"/>
<path id="Shape2DView_nwe0012"  d="M 6.92 0.35000000000000336 Q 6.996350678713951 0.3500000000000033 7.0727013574279045 0.35000000000000336 Q 7.132826304139875 0.35000000000000336 7.192951250851847 0.35000000000000336 Q 7.599826495799227 0.35000000000000864 7.620000070818067 0.34999999999999604 " stroke="#191919" stroke-width="0.35 px" style="stroke-width:0.35;stroke-miterlimit:4;stroke-dasharray:none;fill:none;fill-opacity:1;fill-rule: evenodd"/>
<path id="Shape2DView_nwe0013"  d="M 6.92 -0.3499999999999966 Q 7.478508148128163 -0.34999999999999665 7.610501649856117 -0.34999999999999676 Q 7.615250824915624 -0.34999999999999676 7.619999999975134 -0.34999999999999676 " stroke="#191919" stroke-width="0.35 px" style="stroke-width:0.35;stroke-miterlimit:4;stroke-dasharray:none;fill:none;fill-opacity:1;fill-rule: evenodd"/>
<title>b'Shape2DView'</title>
</g>
<g id="Rectangle" transform="translate(2.340157,2.351272) scale(1,-1)">
<rect fill="#ff0000" id="origin" width="1" height="1" x="0" y="0" />
<title>b'Rectangle'</title>
</g>
</svg>