<?xml version="1.0"?>
<!DOCTYPE svg PUBLIC "-//W3C//DTD SVG 1.1//EN" "http://www.w3.org/Graphics/SVG/1.1/DTD/svg11.dtd">
<svg width="16.253594136106013mm" height="4.818697924252297mm" viewBox="0 0 16.253594136106013 4.818697924252297" xmlns="http://www.w3.org/2000/svg" version="1.1">
<g id="Shape2DView" transform="translate(0.506797,2.409349) scale(1,-1)">
<path id="Shape2DView_nwe0000"  d="M 2.285 3.064215547965775e-15 L 2.285 -0.25192007123243976 L 2.285 -0.5006721014017047 L 2.285 -0.7431278893991234 L 2.285 -0.9762384130145035 L 2.285 -1.197072172159505 L 2.285 -1.4028520541821483 L 2.285 -1.5909902576697303 L 2.285 -1.7591208355530656 L 2.285 -1.9051294482636378 L 2.285 -2.027179952780442 L 2.285 -2.1237374931938255 L 2.285 -2.1935878024091022 L 2.285 -2.2358524722597943 L 2.285 -2.249999999999999 " stroke="#191919" stroke-width="0.35 px" style="stroke-width:0.35;stroke-miterlimit:4;stroke-dasharray:none;fill:none;fill-opacity:1;fill-rule: evenodd"/>
<path id="Shape2DView_nwe0001"  d="M 2.285 2.250000000000001 L 2.285 2.235852472259797 L 2.285 2.193587802409104 L 2.285 2.123737493193828 L 2.285 2.027179952780444 L 2.285 1.9051294482636407 L 2.285 1.7591208355530685 L 2.285 1.5909902576697332 L 2.285 1.402852054182152 L 2.285 1.197072172159509 L 2.285 0.9762384130145072 L 2.285 0.7431278893991274 L 2.285 0.500672101401709 L 2.285 0.2519200712324443 L 2.285 3.6153066075820835e-15 " stroke="#191919" stroke-width="0.35 px" style="stroke-width:0.35;stroke-miterlimit:4;stroke-dasharray:none;fill:none;fill-opacity:1;fill-rule: evenodd"/>
<path id="Shape2DView_nwe0002"  d="M 2.12 1.91513471747875e-15 L 2.12 -0.05878134995423478 L 2.12 -0.1168234903270633 L 2.12 -0.173396507526461 L 2.12 -0.2277889630367164 L 2.12 -0.2793168401705502 L 2.12 -0.32733214597583365 L 2.12 -0.37123106012293605 L 2.12 -0.41046152829571436 L 2.12 -0.44453020459484793 L 2.12 -0.4730086556487688 L 2.12 -0.49553874841189177 L 2.12 -0.5118371538954564 L 2.12 -0.5216989101939513 L 2.12 -0.524999999999999 " stroke="#191919" stroke-width="0.35 px" style="stroke-width:0.35;stroke-miterlimit:4;stroke-dasharray:none;fill:none;fill-opacity:1;fill-rule: evenodd"/>
<path id="Shape2DView_nwe0003"  d="M 2.12 0.525000000000001 L 2.12 0.5216989101939534 L 2.12 0.5118371538954585 L 2.12 0.49553874841189405 L 2.12 0.47300865564877115 L 2.12 0.44453020459485026 L 2.12 0.41046152829571675 L 2.12 0.37123106012293855 L 2.12 0.32733214597583615 L 2.12 0.2793168401705528 L 2.12 0.22778896303671914 L 2.12 0.17339650752646382 L 2.12 0.11682349032706617 L 2.12 0.058781349954237734 L 2.12 2.0437226313892222e-15 " stroke="#191919" stroke-width="0.35 px" style="stroke-width:0.35;stroke-miterlimit:4;stroke-dasharray:none;fill:none;fill-opacity:1;fill-rule: evenodd"/>
<path id="Shape2DView_nwe0004"  d="M 2.725 3.064215547965775e-15 L 2.725 -0.25192007123243976 L 2.725 -0.5006721014017047 L 2.725 -0.7431278893991234 L 2.725 -0.9762384130145035 L 2.725 -1.197072172159505 L 2.725 -1.4028520541821483 L 2.725 -1.5909902576697303 L 2.725 -1.7591208355530656 L 2.725 -1.9051294482636378 L 2.725 -2.027179952780442 L 2.725 -2.1237374931938255 L 2.725 -2.1935878024091022 L 2.725 -2.2358524722597943 L 2.725 -2.249999999999999 " stroke="#191919" stroke-width="0.35 px" style="stroke-width:0.35;stroke-miterlimit:4;stroke-dasharray:none;fill:none;fill-opacity:1;fill-rule: evenodd"/>
<path id="Shape2DView_nwe0005"  d="M 2.725 2.250000000000001 L 2.725 2.235852472259797 L 2.725 2.193587802409104 L 2.725 2.123737493193828 L 2.725 2.027179952780444 L 2.725 1.9051294482636407 L 2.725 1.7591208355530685 L 2.725 1.5909902576697332 L 2.725 1.402852054182152 L 2.725 1.197072172159509 L 2.725 0.9762384130145072 L 2.725 0.7431278893991274 L 2.725 0.500672101401709 L 2.725 0.2519200712324443 L 2.725 3.6153066075820835e-15 " stroke="#191919" stroke-width="0.35 px" style="stroke-width:0.35;stroke-miterlimit:4;stroke-dasharray:none;fill:none;fill-opacity:1;fill-rule: evenodd"/>
<path id="Shape2DView_nwe0006"  d="M 2.923 2.8810287489027028e-15 L 2.923 -0.22112984030403027 L 2.923 -0.4394788445637184 L 2.923 -0.6523011473614526 L 2.923 -0.8569203847571751 L 2.923 -1.0507633511177876 L 2.923 -1.231392358670997 L 2.923 -1.3965358928434297 L 2.923 -1.5441171778743576 L 2.923 -1.6722802934758598 L 2.923 -1.7794135141072764 L 2.923 -1.8641695773590248 L 2.923 -1.9254826265591003 L 2.923 -1.9625816145391528 L 2.923 -1.974999999999999 " stroke="#191919" stroke-width="0.35 px" style="stroke-width:0.35;stroke-miterlimit:4;stroke-dasharray:none;fill:none;fill-opacity:1;fill-rule: evenodd"/>
<path id="Shape2DView_nwe0007"  d="M 2.923 1.9750000000000012 L 2.923 1.9625816145391553 L 2.923 1.925482626559103 L 2.923 1.8641695773590274 L 2.923 1.7794135141072793 L 2.923 1.6722802934758625 L 2.923 1.5441171778743603 L 2.923 1.3965358928434328 L 2.923 1.2313923586710003 L 2.923 1.0507633511177914 L 2.923 0.8569203847571788 L 2.923 0.6523011473614566 L 2.923 0.43947884456372255 L 2.923 0.22112984030403465 L 2.923 3.3647642345659075e-15 " stroke="#191919" stroke-width="0.35 px" style="stroke-width:0.35;stroke-miterlimit:4;stroke-dasharray:none;fill:none;fill-opacity:1;fill-rule: evenodd"/>
<path id="Shape2DView_nwe0008"  d="M 3.797376315927 3.552713678801e-15 Q 3.797376315927 1.7994169349065217 3.797376315927 1.9749999997056507 " stroke="#191919" stroke-width="0.35 px" style="stroke-width:0.35;stroke-miterlimit:4;stroke-dasharray:none;fill:none;fill-opacity:1;fill-rule: evenodd"/>
<path id="Shape2DView_nwe0009"  d="M 3.797376315927 -1.97499999999991 Q 3.797376315927 -1.799418199031705 3.797376315927 3.552713678800501e-15 " stroke="#191919" stroke-width="0.35 px" style="stroke-width:0.35;stroke-miterlimit:4;stroke-dasharray:none;fill:none;fill-opacity:1;fill-rule: evenodd"/>
<path id="Shape2DView_nwe0010"  d="M -1.1946772886474108e-14 0.3500000000000008 A 0.35 0.35 0 0 1 1.11268e-14 -0.35" stroke="#191919" stroke-width="0.35 px" style="stroke-width:0.35;stroke-miterlimit:4;stroke-dasharray:none;fill:none;fill-opacity:1;fill-rule: evenodd"/>
<path id="Shape2DView_nwe0011"  d="M 4.252097368284 3.552713678801e-15 Q 4.252097368284 1.7994169349085916 4.252097368284 1.9749999997056507 " stroke="#191919" stroke-width="0.35 px" style="stroke-width:0.35;stroke-miterlimit:4;stroke-dasharray:none;fill:none;fill-opacity:1;fill-rule: evenodd"/>
<path id="Shape2DView_nwe0012"  d="M 4.252097368283997 -1.97499999999991 Q 4.252097368284002 -1.799418199031705 4.252097368284 3.552713678800501e-15 " stroke="#191919" stroke-width="0.35 px" style="stroke-width:0.35;stroke-miterlimit:4;stroke-dasharray:none;fill:none;fill-opacity:1;fill-rule: evenodd"/>
<path id="Shape2DView_nwe0013"  d="M 4.7236921054 3.552713678801e-15 Q 4.7236921054 1.7994169349064848 4.7236921054 1.9749999997056507 " stroke="#191919" stroke-width="0.35 px" style="stroke-width:0.35;stroke-miterlimit:4;stroke-dasharray:none;fill:none;fill-opacity:1;fill-rule: evenodd"/>
<path id="Shape2DView_nwe0014"  d="M 4.7236921054 -1.97499999999991 Q 4.7236921054 -1.799418199031705 4.7236921054 3.552713678800501e-15 " stroke="#191919" stroke-width="0.35 px" style="stroke-width:0.35;stroke-miterlimit:4;stroke-dasharray:none;fill:none;fill-opacity:1;fill-rule: evenodd"/>
<path id="Shape2DView_nwe0015"  d="M 5.178413157758 3.552713678801e-15 Q 5.1784131577579995 1.799416934908814 5.178413157758 1.9749999997056507 " stroke="#191919" stroke-width="0.35 px" style="stroke-width:0.35;stroke-miterlimit:4;stroke-dasharray:none;fill:none;fill-opacity:1;fill-rule: evenodd"/>
<path id="Shape2DView_nwe0016"  d="M 5.178413157758 -1.97499999999991 Q 5.178413157758 -1.799418199031705 5.178413157758 3.552713678800501e-15 " stroke="#191919" stroke-width="0.35 px" style="stroke-width:0.35;stroke-miterlimit:4;stroke-dasharray:none;fill:none;fill-opacity:1;fill-rule: evenodd"/>
<path id="Shape2DView_nwe0017"  d="M 5.650007894874 3.552713678801e-15 Q 5.650007894873999 1.7994169349065217 5.650007894874 1.9749999997056507 " stroke="#191919" stroke-width="0.35 px" style="stroke-width:0.35;stroke-miterlimit:4;stroke-dasharray:none;fill:none;fill-opacity:1;fill-rule: evenodd"/>
<path id="Shape2DView_nwe0018"  d="M 5.650007894874 -1.97499999999991 Q 5.650007894874001 -1.799418199031705 5.650007894874 3.552713678800501e-15 " stroke="#191919" stroke-width="0.35 px" style="stroke-width:0.35;stroke-miterlimit:4;stroke-dasharray:none;fill:none;fill-opacity:1;fill-rule: evenodd"/>
<path id="Shape2DView_nwe0019"  d="M 6.104728947231 3.552713678801e-15 Q 6.104728947230999 1.7994169349086337 6.104728947231002 1.9749999997056507 " stroke="#191919" stroke-width="0.35 px" style="stroke-width:0.35;stroke-miterlimit:4;stroke-dasharray:none;fill:none;fill-opacity:1;fill-rule: evenodd"/>
<path id="Shape2DView_nwe0020"  d="M 6.104728947231 -1.97499999999991 Q 6.104728947230999 -1.799418199031705 6.104728947231 3.552713678800501e-15 " stroke="#191919" stroke-width="0.35 px" style="stroke-width:0.35;stroke-miterlimit:4;stroke-dasharray:none;fill:none;fill-opacity:1;fill-rule: evenodd"/>
<path id="Shape2DView_nwe0021"  d="M 6.576323684348 3.552713678801e-15 Q 6.576323684347999 1.7994169349084108 6.576323684348002 1.9749999997056507 " stroke="#191919" stroke-width="0.35 px" style="stroke-width:0.35;stroke-miterlimit:4;stroke-dasharray:none;fill:none;fill-opacity:1;fill-rule: evenodd"/>
<path id="Shape2DView_nwe0022"  d="M 6.576323684348 -1.97499999999991 Q 6.576323684348 -1.799418199031705 6.576323684348 3.552713678800501e-15 " stroke="#191919" stroke-width="0.35 px" style="stroke-width:0.35;stroke-miterlimit:4;stroke-dasharray:none;fill:none;fill-opacity:1;fill-rule: evenodd"/>
<path id="Shape2DView_nwe0023"  d="M 7.031044736705 3.552713678801e-15 Q 7.031044736704997 1.7994169349065225 7.0310447367050015 1.9749999997056507 " stroke="#191919" stroke-width="0.35 px" style="stroke-width:0.35;stroke-miterlimit:4;stroke-dasharray:none;fill:none;fill-opacity:1;fill-rule: evenodd"/>
<path id="Shape2DView_nwe0024"  d="M 7.031044736705 -1.97499999999991 Q 7.031044736704999 -1.799418199031705 7.031044736705 3.552713678800501e-15 " stroke="#191919" stroke-width="0.35 px" style="stroke-width:0.35;stroke-miterlimit:4;stroke-dasharray:none;fill:none;fill-opacity:1;fill-rule: evenodd"/>
<path id="Shape2DView_nwe0025"  d="M 7.502639473821 3.552713678801e-15 Q 7.502639473820997 1.7994169349064848 7.502639473821001 1.9749999997056507 " stroke="#191919" stroke-width="0.35 px" style="stroke-width:0.35;stroke-miterlimit:4;stroke-dasharray:none;fill:none;fill-opacity:1;fill-rule: evenodd"/>
<path id="Shape2DView_nwe0026"  d="M 7.502639473821 -1.97499999999991 Q 7.5026394738210005 -1.799418199031705 7.502639473821 3.552713678800501e-15 " stroke="#191919" stroke-width="0.35 px" style="stroke-width:0.35;stroke-miterlimit:4;stroke-dasharray:none;fill:none;fill-opacity:1;fill-rule: evenodd"/>
<path id="Shape2DView_nwe0027"  d="M 7.957360526179 3.552713678801e-15 Q 7.9573605261789995 1.7994169349087124 7.957360526179 1.9749999997056507 " stroke="#191919" stroke-width="0.35 px" style="stroke-width:0.35;stroke-miterlimit:4;stroke-dasharray:none;fill:none;fill-opacity:1;fill-rule: evenodd"/>
<path id="Shape2DView_nwe0028"  d="M 7.957360526178998 -1.97499999999991 Q 7.957360526179003 -1.799418199031705 7.957360526179 3.552713678800501e-15 " stroke="#191919" stroke-width="0.35 px" style="stroke-width:0.35;stroke-miterlimit:4;stroke-dasharray:none;fill:none;fill-opacity:1;fill-rule: evenodd"/>
<path id="Shape2DView_nwe0029"  d="M 8.428955263295 3.552713678801e-15 Q 8.428955263294998 1.7994169349085907 8.428955263295 1.9749999997056507 " stroke="#191919" stroke-width="0.35 px" style="stroke-width:0.35;stroke-miterlimit:4;stroke-dasharray:none;fill:none;fill-opacity:1;fill-rule: evenodd"/>
<path id="Shape2DView_nwe0030"  d="M 8.428955263295 -1.97499999999991 Q 8.428955263294998 -1.799418199031705 8.428955263295 3.552713678800501e-15 " stroke="#191919" stroke-width="0.35 px" style="stroke-width:0.35;stroke-miterlimit:4;stroke-dasharray:none;fill:none;fill-opacity:1;fill-rule: evenodd"/>
<path id="Shape2DView_nwe0031"  d="M 8.883676315652 3.552713678801e-15 Q 8.883676315652 1.7994169349086702 8.883676315652 1.9749999997056507 " stroke="#191919" stroke-width="0.35 px" style="stroke-width:0.35;stroke-miterlimit:4;stroke-dasharray:none;fill:none;fill-opacity:1;fill-rule: evenodd"/>
<path id="Shape2DView_nwe0032"  d="M 8.883676315652 -1.97499999999991 Q 8.883676315652 -1.799418199031705 8.883676315652 3.552713678800501e-15 " stroke="#191919" stroke-width="0.35 px" style="stroke-width:0.35;stroke-miterlimit:4;stroke-dasharray:none;fill:none;fill-opacity:1;fill-rule: evenodd"/>
<path id="Shape2DView_nwe0033"  d="M 9.355271052769 3.552713678801e-15 Q 9.355271052769002 1.7994169349064209 9.355271052769 1.9749999997056507 " stroke="#191919" stroke-width="0.35 px" style="stroke-width:0.35;stroke-miterlimit:4;stroke-dasharray:none;fill:none;fill-opacity:1;fill-rule: evenodd"/>
<path id="Shape2DView_nwe0034"  d="M 9.355271052769 -1.97499999999991 Q 9.355271052769 -1.799418199031705 9.355271052769 3.552713678800501e-15 " stroke="#191919" stroke-width="0.35 px" style="stroke-width:0.35;stroke-miterlimit:4;stroke-dasharray:none;fill:none;fill-opacity:1;fill-rule: evenodd"/>
<path id="Shape2DView_nwe0035"  d="M 9.809992105126 3.552713678801e-15 Q 9.809992105126 1.7994169349085916 9.809992105126 1.9749999997056507 " stroke="#191919" stroke-width="0.35 px" style="stroke-width:0.35;stroke-miterlimit:4;stroke-dasharray:none;fill:none;fill-opacity:1;fill-rule: evenodd"/>
<path id="Shape2DView_nwe0036"  d="M 9.809992105125994 -1.97499999999991 Q 9.809992105126007 -1.799418199031705 9.809992105126 3.552713678800501e-15 " stroke="#191919" stroke-width="0.35 px" style="stroke-width:0.35;stroke-miterlimit:4;stroke-dasharray:none;fill:none;fill-opacity:1;fill-rule: evenodd"/>
<path id="Shape2DView_nwe0037"  d="M 10.281586842242 3.552713678801e-15 Q 10.281586842242 1.799416934908712 10.281586842242 1.9749999997056507 " stroke="#191919" stroke-width="0.35 px" style="stroke-width:0.35;stroke-miterlimit:4;stroke-dasharray:none;fill:none;fill-opacity:1;fill-rule: evenodd"/>
<path id="Shape2DView_nwe0038"  d="M 10.281586842242 -1.97499999999991 Q 10.281586842242 -1.799418199031705 10.281586842242 3.552713678800501e-15 " stroke="#191919" stroke-width="0.35 px" style="stroke-width:0.35;stroke-miterlimit:4;stroke-dasharray:none;fill:none;fill-opacity:1;fill-rule: evenodd"/>
<path id="Shape2DView_nwe0039"  d="M 10.7363078946 3.552713678801e-15 Q 10.736307894599998 1.7994169349087124 10.7363078946 1.9749999997056507 " stroke="#191919" stroke-width="0.35 px" style="stroke-width:0.35;stroke-miterlimit:4;stroke-dasharray:none;fill:none;fill-opacity:1;fill-rule: evenodd"/>
<path id="Shape2DView_nwe0040"  d="M 10.7363078946 -1.97499999999991 Q 10.7363078946 -1.799418199031705 10.7363078946 3.552713678800501e-15 " stroke="#191919" stroke-width="0.35 px" style="stroke-width:0.35;stroke-miterlimit:4;stroke-dasharray:none;fill:none;fill-opacity:1;fill-rule: evenodd"/>
<path id="Shape2DView_nwe0041"  d="M 11.207902631716 3.552713678801e-15 Q 11.207902631716001 1.7994169349084108 11.207902631716 1.9749999997056507 " stroke="#191919" stroke-width="0.35 px" style="stroke-width:0.35;stroke-miterlimit:4;stroke-dasharray:none;fill:none;fill-opacity:1;fill-rule: evenodd"/>
<path id="Shape2DView_nwe0042"  d="M 11.207902631716 -1.97499999999991 Q 11.207902631716 -1.799418199031705 11.207902631716 3.552713678800501e-15 " stroke="#191919" stroke-width="0.35 px" style="stroke-width:0.35;stroke-miterlimit:4;stroke-dasharray:none;fill:none;fill-opacity:1;fill-rule: evenodd"/>
<path id="Shape2DView_nwe0043"  d="M 11.662623684073 3.552713678801e-15 Q 11.662623684073003 1.7994169349086702 11.662623684073 1.9749999997056507 " stroke="#191919" stroke-width="0.35 px" style="stroke-width:0.35;stroke-miterlimit:4;stroke-dasharray:none;fill:none;fill-opacity:1;fill-rule: evenodd"/>
<path id="Shape2DView_nwe0044"  d="M 11.662623684073 -1.97499999999991 Q 11.662623684073 -1.799418199031705 11.662623684073 3.552713678800501e-15 " stroke="#191919" stroke-width="0.35 px" style="stroke-width:0.35;stroke-miterlimit:4;stroke-dasharray:none;fill:none;fill-opacity:1;fill-rule: evenodd"/>
<path id="Shape2DView_nwe0045"  d="M 12.295 2.8810287489027028e-15 L 12.295 -0.22112984030403027 L 12.295 -0.4394788445637184 L 12.295 -0.6523011473614526 L 12.295 -0.8569203847571751 L 12.295 -1.0507633511177876 L 12.295 -1.231392358670997 L 12.295 -1.3965358928434297 L 12.295 -1.5441171778743576 L 12.295 -1.6722802934758598 L 12.295 -1.7794135141072764 L 12.295 -1.8641695773590248 L 12.295 -1.9254826265591003 L 12.295 -1.9625816145391528 L 12.295 -1.974999999999999 " stroke="#191919" stroke-width="0.35 px" style="stroke-width:0.35;stroke-miterlimit:4;stroke-dasharray:none;fill:none;fill-opacity:1;fill-rule: evenodd"/>
<path id="Shape2DView_nwe0046"  d="M 12.295 1.9750000000000012 L 12.295 1.9625816145391553 L 12.295 1.925482626559103 L 12.295 1.8641695773590274 L 12.295 1.7794135141072793 L 12.295 1.6722802934758625 L 12.295 1.5441171778743603 L 12.295 1.3965358928434328 L 12.295 1.2313923586710003 L 12.295 1.0507633511177914 L 12.295 0.8569203847571788 L 12.295 0.6523011473614566 L 12.295 0.43947884456372255 L 12.295 0.22112984030403465 L 12.295 3.3647642345659075e-15 " stroke="#191919" stroke-width="0.35 px" style="stroke-width:0.35;stroke-miterlimit:4;stroke-dasharray:none;fill:none;fill-opacity:1;fill-rule: evenodd"/>
<path id="Shape2DView_nwe0047"  d="M 12.515 3.064215547965775e-15 L 12.515 -0.25192007123243976 L 12.515 -0.5006721014017047 L 12.515 -0.7431278893991234 L 12.515 -0.9762384130145035 L 12.515 -1.197072172159505 L 12.515 -1.4028520541821483 L 12.515 -1.5909902576697303 L 12.515 -1.7591208355530656 L 12.515 -1.9051294482636378 L 12.515 -2.027179952780442 L 12.515 -2.1237374931938255 L 12.515 -2.1935878024091022 L 12.515 -2.2358524722597943 L 12.515 -2.249999999999999 " stroke="#191919" stroke-width="0.35 px" style="stroke-width:0.35;stroke-miterlimit:4;stroke-dasharray:none;fill:none;fill-opacity:1;fill-rule: evenodd"/>
<path id="Shape2DView_nwe0048"  d="M 12.515 2.250000000000001 L 12.515 2.235852472259797 L 12.515 2.193587802409104 L 12.515 2.123737493193828 L 12.515 2.027179952780444 L 12.515 1.9051294482636407 L 12.515 1.7591208355530685 L 12.515 1.5909902576697332 L 12.515 1.402852054182152 L 12.515 1.197072172159509 L 12.515 0.9762384130145072 L 12.515 0.7431278893991274 L 12.515 0.500672101401709 L 12.515 0.2519200712324443 L 12.515 3.6153066075820835e-15 " stroke="#191919" stroke-width="0.35 px" style="stroke-width:0.35;stroke-miterlimit:4;stroke-dasharray:none;fill:none;fill-opacity:1;fill-rule: evenodd"/>
<path id="Shape2DView_nwe0049"  d="M 12.955 3.064215547965775e-15 L 12.955 -0.25192007123243976 L 12.955 -0.5006721014017047 L 12.955 -0.7431278893991234 L 12.955 -0.9762384130145035 L 12.955 -1.197072172159505 L 12.955 -1.4028520541821483 L 12.955 -1.5909902576697303 L 12.955 -1.7591208355530656 L 12.955 -1.9051294482636378 L 12.955 -2.027179952780442 L 12.955 -2.1237374931938255 L 12.955 -2.1935878024091022 L 12.955 -2.2358524722597943 L 12.955 -2.249999999999999 " stroke="#191919" stroke-width="0.35 px" style="stroke-width:0.35;stroke-miterlimit:4;stroke-dasharray:none;fill:none;fill-opacity:1;fill-rule: evenodd"/>
<path id="Shape2DView_nwe0050"  d="M 12.955 2.250000000000001 L 12.955 2.235852472259797 L 12.955 2.193587802409104 L 12.955 2.123737493193828 L 12.955 2.027179952780444 L 12.955 1.9051294482636407 L 12.955 1.7591208355530685 L 12.955 1.5909902576697332 L 12.955 1.402852054182152 L 12.955 1.197072172159509 L 12.955 0.9762384130145072 L 12.955 0.7431278893991274 L 12.955 0.500672101401709 L 12.955 0.2519200712324443 L 12.955 3.6153066075820835e-15 " stroke="#191919" stroke-width="0.35 px" style="stroke-width:0.35;stroke-miterlimit:4;stroke-dasharray:none;fill:none;fill-opacity:1;fill-rule: evenodd"/>
<path id="Shape2DView_nwe0051"  d="M 13.12 1.91513471747875e-15 L 13.12 -0.05878134995423478 L 13.12 -0.1168234903270633 L 13.12 -0.173396507526461 L 13.12 -0.2277889630367164 L 13.12 -0.2793168401705502 L 13.12 -0.32733214597583365 L 13.12 -0.37123106012293605 L 13.12 -0.41046152829571436 L 13.12 -0.44453020459484793 L 13.12 -0.4730086556487688 L 13.12 -0.49553874841189177 L 13.12 -0.5118371538954564 L 13.12 -0.5216989101939513 L 13.12 -0.524999999999999 " stroke="#191919" stroke-width="0.35 px" style="stroke-width:0.35;stroke-miterlimit:4;stroke-dasharray:none;fill:none;fill-opacity:1;fill-rule: evenodd"/>
<path id="Shape2DView_nwe0052"  d="M 13.12 0.525000000000001 L 13.12 0.5216989101939534 L 13.12 0.5118371538954585 L 13.12 0.49553874841189405 L 13.12 0.47300865564877115 L 13.12 0.44453020459485026 L 13.12 0.41046152829571675 L 13.12 0.37123106012293855 L 13.12 0.32733214597583615 L 13.12 0.2793168401705528 L 13.12 0.22778896303671914 L 13.12 0.17339650752646382 L 13.12 0.11682349032706617 L 13.12 0.058781349954237734 L 13.12 2.0437226313892222e-15 " stroke="#191919" stroke-width="0.35 px" style="stroke-width:0.35;stroke-miterlimit:4;stroke-dasharray:none;fill:none;fill-opacity:1;fill-rule: evenodd"/>
<path id="Shape2DView_nwe0053"  d="M 15.23999999999999 -0.34999999999999915 A 0.35 0.35 0 0 1 15.24 0.35" stroke="#191919" stroke-width="0.35 px" style="stroke-width:0.35;stroke-miterlimit:4;stroke-dasharray:none;fill:none;fill-opacity:1;fill-rule: evenodd"/>
<path id="Shape2DView_nwe0054"  d="M 0.7000067534650003 -0.34999999999999903 A 0.35 3.3767323521076027e-06 90.0 0 0 0.7000067534650003 0.3500000000000009 " stroke="#191919" stroke-width="0.35 px" style="stroke-width:0.35;stroke-miterlimit:4;stroke-dasharray:none;fill:none;fill-opacity:1;fill-rule: evenodd"/>
<path id="Shape2DView_nwe0055"  d="M 14.54 0.3500000000000009 L 14.54 0.3412247692636392 L 14.54 0.3153391037658477 L 14.54 0.2736410188638114 L 14.54 0.21822143065055777 L 14.54 0.15185930869114642 L 14.54 0.07788232688471111 L 14.54 1.0864722811178073e-15 L 14.54 -0.07788232688470895 L 14.54 -0.15185930869114425 L 14.54 -0.21822143065055563 L 14.54 -0.27364101886380937 L 14.54 -0.3153391037658456 L 14.54 -0.3412247692636373 L 14.54 -0.34999999999999903 " stroke="#191919" stroke-width="0.35 px" style="stroke-width:0.35;stroke-miterlimit:4;stroke-dasharray:none;fill:none;fill-opacity:1;fill-rule: evenodd"/>
<path id="Shape2DView_nwe0056"  d="M 2.2850000000040893 3.064215547960263e-15 L 2.2727618789488986 2.9821675155081453e-15 L 2.260593343644871 2.900114890639768e-15 L 2.248494397975662 2.8180576995427134e-15 L 2.2364650458026745 2.7359959684060208e-15 L 2.224505290965226 2.65392972342018e-15 L 2.2126151372803236 2.5718589907771196e-15 L 2.200794588542749 2.489783796670196e-15 L 2.189043648525086 2.4077041672941954e-15 L 2.1773623209777497 2.325620128845323e-15 L 2.165750609628901 2.2435317075211814e-15 L 2.154208518184504 2.161438929520778e-15 L 2.142736050328267 2.0793418210445095e-15 L 2.1313332097216744 1.9972404082941538e-15 L 2.1200000000040973 1.9151347174732532e-15 " stroke="#191919" stroke-width="0.35 px" style="stroke-width:0.35;stroke-miterlimit:4;stroke-dasharray:none;fill:none;fill-opacity:1;fill-rule: evenodd"/>
<path id="Shape2DView_nwe0057"  d="M 2.285 3.064215547965e-15 L 2.725 3.064215547965e-15 " stroke="#191919" stroke-width="0.35 px" style="stroke-width:0.35;stroke-miterlimit:4;stroke-dasharray:none;fill:none;fill-opacity:1;fill-rule: evenodd"/>
<path id="Shape2DView_nwe0058"  d="M 2.7249999999996506 3.0642155479653644e-15 L 2.735166999880527 3.049454449695652e-15 L 2.745990289879088 3.0349018807368345e-15 L 2.757460242859837 3.0205707853556946e-15 L 2.7695666564913646 3.0064739108219708e-15 L 2.7822987623211537 2.992623796069873e-15 L 2.795645235353939 2.979032760544912e-15 L 2.8095942041250987 2.965712893245957e-15 L 2.824133261260126 2.952676041972273e-15 L 2.8392494745107792 2.939933802785104e-15 L 2.8549293982581014 2.927497509693168e-15 L 2.8711590854720743 2.9153782245712458e-15 L 2.8879241001172673 2.90358672732083e-15 L 2.9052095299934497 2.892133506281581e-15 L 2.9229999999997425 2.881028748902127e-15 " stroke="#191919" stroke-width="0.35 px" style="stroke-width:0.35;stroke-miterlimit:4;stroke-dasharray:none;fill:none;fill-opacity:1;fill-rule: evenodd"/>
<path id="Shape2DView_nwe0059"  d="M 2.923 2.881028748902e-15 L 3.797376315927 2.881028748902e-15 " stroke="#191919" stroke-width="0.35 px" style="stroke-width:0.35;stroke-miterlimit:4;stroke-dasharray:none;fill:none;fill-opacity:1;fill-rule: evenodd"/>
<path id="Shape2DView_nwe0060"  d="M 4.252097368283319 2.881028748902017e-15 L 4.2390798163610866 2.9101183162433662e-15 L 4.217763092322401 2.936946707860051e-15 L 4.188972561040405 2.960475151940645e-15 L 4.153822966654778 2.9797926477502986e-15 L 4.113675270655591 2.9941512387808053e-15 L 4.070083956647137 3.002994972971102e-15 L 4.024736842105095 3.005981428683848e-15 L 3.9793897275630488 3.002994972971127e-15 L 3.9357984135545836 2.994151238780854e-15 L 3.8956507175553794 2.9797926477503692e-15 L 3.860501123169729 2.960475151940735e-15 L 3.8317105918877035 2.9369467078601567e-15 L 3.8103938678489846 2.9101183162434834e-15 L 3.797376315926716 2.881028748902141e-15 " stroke="#191919" stroke-width="0.35 px" style="stroke-width:0.35;stroke-miterlimit:4;stroke-dasharray:none;fill:none;fill-opacity:1;fill-rule: evenodd"/>
<path id="Shape2DView_nwe0061"  d="M 4.252097368284 2.881028748902e-15 L 4.7236921054 2.881028748902e-15 " stroke="#191919" stroke-width="0.35 px" style="stroke-width:0.35;stroke-miterlimit:4;stroke-dasharray:none;fill:none;fill-opacity:1;fill-rule: evenodd"/>
<path id="Shape2DView_nwe0062"  d="M 5.17841315775732 2.881028748902017e-15 L 5.165395605835083 2.9101183162433745e-15 L 5.1440788817963865 2.936946707860066e-15 L 5.115288350514377 2.9604751519406645e-15 L 5.080138756128734 2.9797926477503187e-15 L 5.0399910601295295 2.9941512387808227e-15 L 4.996399746121058 3.0029949729711127e-15 L 4.951052631579 3.005981428683848e-15 L 4.905705517036942 3.0029949729711127e-15 L 4.862114203028471 2.9941512387808227e-15 L 4.821966507029267 2.9797926477503187e-15 L 4.786816912643624 2.9604751519406645e-15 L 4.758026381361614 2.936946707860066e-15 L 4.736709657322918 2.9101183162433745e-15 L 4.723692105400681 2.881028748902017e-15 " stroke="#191919" stroke-width="0.35 px" style="stroke-width:0.35;stroke-miterlimit:4;stroke-dasharray:none;fill:none;fill-opacity:1;fill-rule: evenodd"/>
<path id="Shape2DView_nwe0063"  d="M 5.178413157758 2.881028748902e-15 L 5.650007894874 2.881028748902e-15 " stroke="#191919" stroke-width="0.35 px" style="stroke-width:0.35;stroke-miterlimit:4;stroke-dasharray:none;fill:none;fill-opacity:1;fill-rule: evenodd"/>
<path id="Shape2DView_nwe0064"  d="M 6.104728947231284 2.881028748902141e-15 L 6.091711395309016 2.9101183162434834e-15 L 6.0703946712702965 2.9369467078601567e-15 L 6.041604139988271 2.960475151940735e-15 L 6.006454545602621 2.9797926477503692e-15 L 5.966306849603416 2.994151238780854e-15 L 5.922715535594952 3.002994972971127e-15 L 5.877368421052905 3.005981428683848e-15 L 5.832021306510863 3.002994972971102e-15 L 5.788429992502409 2.9941512387808053e-15 L 5.748282296503222 2.9797926477502986e-15 L 5.713132702117595 2.960475151940645e-15 L 5.684342170835599 2.936946707860051e-15 L 5.663025446796913 2.9101183162433662e-15 L 5.650007894874681 2.8810287489020173e-15 " stroke="#191919" stroke-width="0.35 px" style="stroke-width:0.35;stroke-miterlimit:4;stroke-dasharray:none;fill:none;fill-opacity:1;fill-rule: evenodd"/>
<path id="Shape2DView_nwe0065"  d="M 6.104728947231 2.881028748902e-15 L 6.576323684348 2.881028748902e-15 " stroke="#191919" stroke-width="0.35 px" style="stroke-width:0.35;stroke-miterlimit:4;stroke-dasharray:none;fill:none;fill-opacity:1;fill-rule: evenodd"/>
<path id="Shape2DView_nwe0066"  d="M 7.031044736704319 2.881028748902017e-15 L 7.0180271847820865 2.9101183162433662e-15 L 6.996710460743401 2.936946707860051e-15 L 6.967919929461405 2.960475151940645e-15 L 6.932770335075778 2.9797926477502986e-15 L 6.892622639076591 2.9941512387808053e-15 L 6.849031325068137 3.002994972971102e-15 L 6.803684210526095 3.005981428683848e-15 L 6.758337095984048 3.002994972971127e-15 L 6.714745781975584 2.994151238780854e-15 L 6.674598085976379 2.9797926477503692e-15 L 6.639448491590729 2.960475151940735e-15 L 6.6106579603087035 2.9369467078601567e-15 L 6.589341236269984 2.9101183162434834e-15 L 6.576323684347716 2.881028748902141e-15 " stroke="#191919" stroke-width="0.35 px" style="stroke-width:0.35;stroke-miterlimit:4;stroke-dasharray:none;fill:none;fill-opacity:1;fill-rule: evenodd"/>
<path id="Shape2DView_nwe0067"  d="M 7.031044736705 2.881028748902e-15 L 7.502639473821 2.881028748902e-15 " stroke="#191919" stroke-width="0.35 px" style="stroke-width:0.35;stroke-miterlimit:4;stroke-dasharray:none;fill:none;fill-opacity:1;fill-rule: evenodd"/>
<path id="Shape2DView_nwe0068"  d="M 7.95736052617832 2.881028748902017e-15 L 7.944342974256083 2.9101183162433745e-15 L 7.9230262502173865 2.936946707860066e-15 L 7.894235718935377 2.9604751519406645e-15 L 7.859086124549734 2.9797926477503187e-15 L 7.8189384285505295 2.9941512387808227e-15 L 7.775347114542058 3.0029949729711127e-15 L 7.73 3.005981428683848e-15 L 7.684652885457943 3.0029949729711127e-15 L 7.641061571449471 2.9941512387808227e-15 L 7.600913875450267 2.9797926477503187e-15 L 7.565764281064624 2.9604751519406645e-15 L 7.536973749782614 2.936946707860066e-15 L 7.515657025743918 2.9101183162433745e-15 L 7.502639473821681 2.881028748902017e-15 " stroke="#191919" stroke-width="0.35 px" style="stroke-width:0.35;stroke-miterlimit:4;stroke-dasharray:none;fill:none;fill-opacity:1;fill-rule: evenodd"/>
<path id="Shape2DView_nwe0069"  d="M 7.957360526179 2.881028748902e-15 L 8.428955263295 2.881028748902e-15 " stroke="#191919" stroke-width="0.35 px" style="stroke-width:0.35;stroke-miterlimit:4;stroke-dasharray:none;fill:none;fill-opacity:1;fill-rule: evenodd"/>
<path id="Shape2DView_nwe0070"  d="M 8.883676315652284 2.881028748902141e-15 L 8.870658763730015 2.9101183162434834e-15 L 8.849342039691296 2.9369467078601567e-15 L 8.820551508409272 2.960475151940735e-15 L 8.78540191402362 2.9797926477503692e-15 L 8.745254218024415 2.994151238780854e-15 L 8.70166290401595 3.002994972971127e-15 L 8.656315789473906 3.005981428683848e-15 L 8.610968674931863 3.002994972971102e-15 L 8.567377360923409 2.9941512387808053e-15 L 8.527229664924223 2.9797926477502986e-15 L 8.492080070538595 2.960475151940645e-15 L 8.463289539256598 2.936946707860051e-15 L 8.441972815217913 2.9101183162433662e-15 L 8.42895526329568 2.8810287489020173e-15 " stroke="#191919" stroke-width="0.35 px" style="stroke-width:0.35;stroke-miterlimit:4;stroke-dasharray:none;fill:none;fill-opacity:1;fill-rule: evenodd"/>
<path id="Shape2DView_nwe0071"  d="M 8.883676315652 2.881028748902e-15 L 9.355271052769 2.881028748902e-15 " stroke="#191919" stroke-width="0.35 px" style="stroke-width:0.35;stroke-miterlimit:4;stroke-dasharray:none;fill:none;fill-opacity:1;fill-rule: evenodd"/>
<path id="Shape2DView_nwe0072"  d="M 9.80999210512532 2.881028748902017e-15 L 9.796974553203087 2.9101183162433662e-15 L 9.775657829164402 2.936946707860051e-15 L 9.746867297882405 2.960475151940645e-15 L 9.711717703496777 2.9797926477502986e-15 L 9.671570007497591 2.9941512387808053e-15 L 9.627978693489137 3.002994972971102e-15 L 9.582631578947094 3.005981428683848e-15 L 9.53728446440505 3.002994972971127e-15 L 9.493693150396584 2.994151238780854e-15 L 9.453545454397378 2.9797926477503692e-15 L 9.418395860011728 2.960475151940735e-15 L 9.389605328729704 2.9369467078601567e-15 L 9.368288604690985 2.9101183162434834e-15 L 9.355271052768716 2.881028748902141e-15 " stroke="#191919" stroke-width="0.35 px" style="stroke-width:0.35;stroke-miterlimit:4;stroke-dasharray:none;fill:none;fill-opacity:1;fill-rule: evenodd"/>
<path id="Shape2DView_nwe0073"  d="M 9.809992105126 2.881028748902e-15 L 10.281586842242 2.881028748902e-15 " stroke="#191919" stroke-width="0.35 px" style="stroke-width:0.35;stroke-miterlimit:4;stroke-dasharray:none;fill:none;fill-opacity:1;fill-rule: evenodd"/>
<path id="Shape2DView_nwe0074"  d="M 10.73630789459932 2.881028748902017e-15 L 10.723290342677082 2.9101183162433745e-15 L 10.701973618638386 2.936946707860066e-15 L 10.673183087356376 2.9604751519406645e-15 L 10.638033492970733 2.9797926477503187e-15 L 10.597885796971529 2.9941512387808227e-15 L 10.554294482963057 3.0029949729711127e-15 L 10.508947368421 3.005981428683848e-15 L 10.463600253878942 3.0029949729711127e-15 L 10.42000893987047 2.9941512387808227e-15 L 10.379861243871266 2.9797926477503187e-15 L 10.344711649485623 2.9604751519406645e-15 L 10.315921118203613 2.936946707860066e-15 L 10.294604394164917 2.9101183162433745e-15 L 10.28158684224268 2.8810287489020173e-15 " stroke="#191919" stroke-width="0.35 px" style="stroke-width:0.35;stroke-miterlimit:4;stroke-dasharray:none;fill:none;fill-opacity:1;fill-rule: evenodd"/>
<path id="Shape2DView_nwe0075"  d="M 10.7363078946 2.881028748902e-15 L 11.207902631716 2.881028748902e-15 " stroke="#191919" stroke-width="0.35 px" style="stroke-width:0.35;stroke-miterlimit:4;stroke-dasharray:none;fill:none;fill-opacity:1;fill-rule: evenodd"/>
<path id="Shape2DView_nwe0076"  d="M 11.662623684073283 2.881028748902141e-15 L 11.649606132151014 2.9101183162434834e-15 L 11.628289408112296 2.9369467078601563e-15 L 11.599498876830271 2.9604751519407347e-15 L 11.56434928244462 2.9797926477503692e-15 L 11.524201586445416 2.994151238780854e-15 L 11.48061027243695 3.002994972971127e-15 L 11.435263157894905 3.005981428683848e-15 L 11.389916043352862 3.002994972971102e-15 L 11.346324729344408 2.9941512387808053e-15 L 11.306177033345222 2.9797926477502986e-15 L 11.271027438959594 2.960475151940645e-15 L 11.242236907677599 2.936946707860051e-15 L 11.220920183638912 2.9101183162433666e-15 L 11.20790263171668 2.8810287489020173e-15 " stroke="#191919" stroke-width="0.35 px" style="stroke-width:0.35;stroke-miterlimit:4;stroke-dasharray:none;fill:none;fill-opacity:1;fill-rule: evenodd"/>
<path id="Shape2DView_nwe0077"  d="M 11.662623684073 2.881028748902e-15 L 12.295 2.881028748902e-15 " stroke="#191919" stroke-width="0.35 px" style="stroke-width:0.35;stroke-miterlimit:4;stroke-dasharray:none;fill:none;fill-opacity:1;fill-rule: evenodd"/>
<path id="Shape2DView_nwe0078"  d="M 12.29500000000013 2.881028748902066e-15 L 12.314287682869155 2.8919682375054477e-15 L 12.333085264355043 2.903279956878223e-15 L 12.351376561566502 2.914954168729055e-15 L 12.369145827473808 2.926980822695803e-15 L 12.386377764465474 2.939349564997908e-15 L 12.403057537517995 2.95204974734999e-15 L 12.419170786967378 2.9650704361289907e-15 L 12.434703640871405 2.9784004217869573e-15 L 12.44964272695203 2.9920282285013747e-15 L 12.463975184107616 3.0059421240547357e-15 L 12.477688673485089 3.0201301299348385e-15 L 12.490771389102491 3.0345800316471223e-15 L 12.503212068012793 3.0492793892301615e-15 L 12.515000000000182 3.0642155479652622e-15 " stroke="#191919" stroke-width="0.35 px" style="stroke-width:0.35;stroke-miterlimit:4;stroke-dasharray:none;fill:none;fill-opacity:1;fill-rule: evenodd"/>
<path id="Shape2DView_nwe0079"  d="M 12.515 3.064215547965e-15 L 12.955 3.064215547965e-15 " stroke="#191919" stroke-width="0.35 px" style="stroke-width:0.35;stroke-miterlimit:4;stroke-dasharray:none;fill:none;fill-opacity:1;fill-rule: evenodd"/>
<path id="Shape2DView_nwe0080"  d="M 13.120000000075038 1.915134717478062e-15 L 13.108666790357404 1.9972404082993508e-15 L 13.097263949750811 2.0793418210497096e-15 L 13.085791481894546 2.16143892952598e-15 L 13.074249390450149 2.243531707526388e-15 L 13.0626376791013 2.325620128850531e-15 L 13.050956351553964 2.407704167299408e-15 L 13.03920541153633 2.489783796675409e-15 L 13.027384862798726 2.5718589907823356e-15 L 13.015494709113796 2.6539297234254007e-15 L 13.003534954276319 2.735995968411243e-15 L 12.99150560210336 2.818057699547939e-15 L 12.979406656434122 2.9001148906449936e-15 L 12.967238121130094 2.982167515513374e-15 L 12.955000000074904 3.0642155479654977e-15 " stroke="#191919" stroke-width="0.35 px" style="stroke-width:0.35;stroke-miterlimit:4;stroke-dasharray:none;fill:none;fill-opacity:1;fill-rule: evenodd"/>
<path id="Shape2DView_nwe0081"  d="M 2.2850000000040893 -2.249999999999599 L 2.1200000000040973 -0.524999999999658 " stroke="#191919" stroke-width="0.35 px" style="stroke-width:0.35;stroke-miterlimit:4;stroke-dasharray:none;fill:none;fill-opacity:1;fill-rule: evenodd"/>
<path id="Shape2DView_nwe0082"  d="M 2.2850000000040893 2.2499999999996008 L 2.1200000000040973 0.5249999999996597 " stroke="#191919" stroke-width="0.35 px" style="stroke-width:0.35;stroke-miterlimit:4;stroke-dasharray:none;fill:none;fill-opacity:1;fill-rule: evenodd"/>
<path id="Shape2DView_nwe0083"  d="M 2.285 -2.249999999999999 L 2.725 -2.249999999999999 " stroke="#191919" stroke-width="0.35 px" style="stroke-width:0.35;stroke-miterlimit:4;stroke-dasharray:none;fill:none;fill-opacity:1;fill-rule: evenodd"/>
<path id="Shape2DView_nwe0084"  d="M 2.285 2.250000000000001 L 2.725 2.250000000000001 " stroke="#191919" stroke-width="0.35 px" style="stroke-width:0.35;stroke-miterlimit:4;stroke-dasharray:none;fill:none;fill-opacity:1;fill-rule: evenodd"/>
<path id="Shape2DView_nwe0085"  d="M 2.7249999999996506 -2.249999999999845 L 2.9229999999997425 -1.9749999999997168 " stroke="#191919" stroke-width="0.35 px" style="stroke-width:0.35;stroke-miterlimit:4;stroke-dasharray:none;fill:none;fill-opacity:1;fill-rule: evenodd"/>
<path id="Shape2DView_nwe0086"  d="M 2.7249999999996506 2.249999999999847 L 2.9229999999997425 1.9749999999997185 " stroke="#191919" stroke-width="0.35 px" style="stroke-width:0.35;stroke-miterlimit:4;stroke-dasharray:none;fill:none;fill-opacity:1;fill-rule: evenodd"/>
<path id="Shape2DView_nwe0087"  d="M 0.7000067534661477 -0.34999999999999903 L 2.12 -0.34999999999999903 " stroke="#191919" stroke-width="0.35 px" style="stroke-width:0.35;stroke-miterlimit:4;stroke-dasharray:none;fill:none;fill-opacity:1;fill-rule: evenodd"/>
<path id="Shape2DView_nwe0088"  d="M 0.7000067534661477 0.3500000000000009 L 2.12 0.3500000000000009 " stroke="#191919" stroke-width="0.35 px" style="stroke-width:0.35;stroke-miterlimit:4;stroke-dasharray:none;fill:none;fill-opacity:1;fill-rule: evenodd"/>
<path id="Shape2DView_nwe0089"  d="M 2.923 -1.974999999999999 L 3.797376315927 -1.974999999999999 " stroke="#191919" stroke-width="0.35 px" style="stroke-width:0.35;stroke-miterlimit:4;stroke-dasharray:none;fill:none;fill-opacity:1;fill-rule: evenodd"/>
<path id="Shape2DView_nwe0090"  d="M 2.923 1.9750000000000012 L 3.797376315927 1.9750000000000012 " stroke="#191919" stroke-width="0.35 px" style="stroke-width:0.35;stroke-miterlimit:4;stroke-dasharray:none;fill:none;fill-opacity:1;fill-rule: evenodd"/>
<path id="Shape2DView_nwe0091"  d="M 0.7000067534652961 -0.349999999999999 Q 0.06809636426892035 -0.349999999999999 1.1213252548714081e-14 -0.3499999999999992 " stroke="#191919" stroke-width="0.35 px" style="stroke-width:0.35;stroke-miterlimit:4;stroke-dasharray:none;fill:none;fill-opacity:1;fill-rule: evenodd"/>
<path id="Shape2DView_nwe0092"  d="M 0.7000067534652961 0.350000000000001 Q 0.06809636426893773 0.350000000000001 -1.199040866595169e-14 0.35000000000000075 " stroke="#191919" stroke-width="0.35 px" style="stroke-width:0.35;stroke-miterlimit:4;stroke-dasharray:none;fill:none;fill-opacity:1;fill-rule: evenodd"/>
<path id="Shape2DView_nwe0093"  d="M 4.252097368283319 1.9749999999998695 Q 4.029181014018372 2.34096553033595 3.797376315926716 1.975000000000056 " stroke="#191919" stroke-width="0.35 px" style="stroke-width:0.35;stroke-miterlimit:4;stroke-dasharray:none;fill:none;fill-opacity:1;fill-rule: evenodd"/>
<path id="Shape2DView_nwe0094"  d="M 4.252097368283319 -1.9749999999998678 Q 4.029181014018372 -2.340965530335949 3.797376315926716 -1.9750000000000545 " stroke="#191919" stroke-width="0.35 px" style="stroke-width:0.35;stroke-miterlimit:4;stroke-dasharray:none;fill:none;fill-opacity:1;fill-rule: evenodd"/>
<path id="Shape2DView_nwe0095"  d="M 4.252097368284 -1.974999999999999 L 4.7236921054 -1.974999999999999 " stroke="#191919" stroke-width="0.35 px" style="stroke-width:0.35;stroke-miterlimit:4;stroke-dasharray:none;fill:none;fill-opacity:1;fill-rule: evenodd"/>
<path id="Shape2DView_nwe0096"  d="M 4.252097368284 1.9750000000000012 L 4.7236921054 1.9750000000000012 " stroke="#191919" stroke-width="0.35 px" style="stroke-width:0.35;stroke-miterlimit:4;stroke-dasharray:none;fill:none;fill-opacity:1;fill-rule: evenodd"/>
<path id="Shape2DView_nwe0097"  d="M 5.17841315775732 1.9749999999998695 Q 4.9554968034922044 2.3409655303360353 4.723692105400681 1.9749999999998697 " stroke="#191919" stroke-width="0.35 px" style="stroke-width:0.35;stroke-miterlimit:4;stroke-dasharray:none;fill:none;fill-opacity:1;fill-rule: evenodd"/>
<path id="Shape2DView_nwe0098"  d="M 5.17841315775732 -1.9749999999998678 Q 4.955496803492206 -2.3409655303360335 4.723692105400681 -1.9749999999998678 " stroke="#191919" stroke-width="0.35 px" style="stroke-width:0.35;stroke-miterlimit:4;stroke-dasharray:none;fill:none;fill-opacity:1;fill-rule: evenodd"/>
<path id="Shape2DView_nwe0099"  d="M 5.178413157758 -1.974999999999999 L 5.650007894874 -1.974999999999999 " stroke="#191919" stroke-width="0.35 px" style="stroke-width:0.35;stroke-miterlimit:4;stroke-dasharray:none;fill:none;fill-opacity:1;fill-rule: evenodd"/>
<path id="Shape2DView_nwe0100"  d="M 5.178413157758 1.9750000000000012 L 5.650007894874 1.9750000000000012 " stroke="#191919" stroke-width="0.35 px" style="stroke-width:0.35;stroke-miterlimit:4;stroke-dasharray:none;fill:none;fill-opacity:1;fill-rule: evenodd"/>
<path id="Shape2DView_nwe0101"  d="M 6.104728947231284 1.975000000000056 Q 5.881812592966034 2.3409655303359544 5.650007894874681 1.9749999999998695 " stroke="#191919" stroke-width="0.35 px" style="stroke-width:0.35;stroke-miterlimit:4;stroke-dasharray:none;fill:none;fill-opacity:1;fill-rule: evenodd"/>
<path id="Shape2DView_nwe0102"  d="M 6.104728947231284 -1.9750000000000543 Q 5.881812592966034 -2.3409655303359527 5.650007894874681 -1.9749999999998678 " stroke="#191919" stroke-width="0.35 px" style="stroke-width:0.35;stroke-miterlimit:4;stroke-dasharray:none;fill:none;fill-opacity:1;fill-rule: evenodd"/>
<path id="Shape2DView_nwe0103"  d="M 6.104728947231 -1.974999999999999 L 6.576323684348 -1.974999999999999 " stroke="#191919" stroke-width="0.35 px" style="stroke-width:0.35;stroke-miterlimit:4;stroke-dasharray:none;fill:none;fill-opacity:1;fill-rule: evenodd"/>
<path id="Shape2DView_nwe0104"  d="M 6.104728947231 1.9750000000000012 L 6.576323684348 1.9750000000000012 " stroke="#191919" stroke-width="0.35 px" style="stroke-width:0.35;stroke-miterlimit:4;stroke-dasharray:none;fill:none;fill-opacity:1;fill-rule: evenodd"/>
<path id="Shape2DView_nwe0105"  d="M 7.031044736704319 1.9749999999998695 Q 6.808128382439369 2.340965530335951 6.576323684347716 1.9750000000000558 " stroke="#191919" stroke-width="0.35 px" style="stroke-width:0.35;stroke-miterlimit:4;stroke-dasharray:none;fill:none;fill-opacity:1;fill-rule: evenodd"/>
<path id="Shape2DView_nwe0106"  d="M 7.031044736704319 -1.9749999999998678 Q 6.808128382439369 -2.340965530335949 6.576323684347716 -1.9750000000000543 " stroke="#191919" stroke-width="0.35 px" style="stroke-width:0.35;stroke-miterlimit:4;stroke-dasharray:none;fill:none;fill-opacity:1;fill-rule: evenodd"/>
<path id="Shape2DView_nwe0107"  d="M 7.031044736705 -1.974999999999999 L 7.502639473821 -1.974999999999999 " stroke="#191919" stroke-width="0.35 px" style="stroke-width:0.35;stroke-miterlimit:4;stroke-dasharray:none;fill:none;fill-opacity:1;fill-rule: evenodd"/>
<path id="Shape2DView_nwe0108"  d="M 7.031044736705 1.9750000000000012 L 7.502639473821 1.9750000000000012 " stroke="#191919" stroke-width="0.35 px" style="stroke-width:0.35;stroke-miterlimit:4;stroke-dasharray:none;fill:none;fill-opacity:1;fill-rule: evenodd"/>
<path id="Shape2DView_nwe0109"  d="M 7.95736052617832 1.9749999999998695 Q 7.734444171913205 2.3409655303360353 7.502639473821681 1.9749999999998695 " stroke="#191919" stroke-width="0.35 px" style="stroke-width:0.35;stroke-miterlimit:4;stroke-dasharray:none;fill:none;fill-opacity:1;fill-rule: evenodd"/>
<path id="Shape2DView_nwe0110"  d="M 7.95736052617832 -1.9749999999998678 Q 7.734444171913205 -2.3409655303360335 7.502639473821681 -1.9749999999998678 " stroke="#191919" stroke-width="0.35 px" style="stroke-width:0.35;stroke-miterlimit:4;stroke-dasharray:none;fill:none;fill-opacity:1;fill-rule: evenodd"/>
<path id="Shape2DView_nwe0111"  d="M 7.957360526179 -1.974999999999999 L 8.428955263295 -1.974999999999999 " stroke="#191919" stroke-width="0.35 px" style="stroke-width:0.35;stroke-miterlimit:4;stroke-dasharray:none;fill:none;fill-opacity:1;fill-rule: evenodd"/>
<path id="Shape2DView_nwe0112"  d="M 7.957360526179 1.9750000000000012 L 8.428955263295 1.9750000000000012 " stroke="#191919" stroke-width="0.35 px" style="stroke-width:0.35;stroke-miterlimit:4;stroke-dasharray:none;fill:none;fill-opacity:1;fill-rule: evenodd"/>
<path id="Shape2DView_nwe0113"  d="M 8.883676315652284 1.975000000000056 Q 8.660759961387033 2.3409655303359544 8.42895526329568 1.9749999999998695 " stroke="#191919" stroke-width="0.35 px" style="stroke-width:0.35;stroke-miterlimit:4;stroke-dasharray:none;fill:none;fill-opacity:1;fill-rule: evenodd"/>
<path id="Shape2DView_nwe0114"  d="M 8.883676315652284 -1.9750000000000543 Q 8.660759961387033 -2.3409655303359527 8.42895526329568 -1.9749999999998678 " stroke="#191919" stroke-width="0.35 px" style="stroke-width:0.35;stroke-miterlimit:4;stroke-dasharray:none;fill:none;fill-opacity:1;fill-rule: evenodd"/>
<path id="Shape2DView_nwe0115"  d="M 8.883676315652 -1.974999999999999 L 9.355271052769 -1.974999999999999 " stroke="#191919" stroke-width="0.35 px" style="stroke-width:0.35;stroke-miterlimit:4;stroke-dasharray:none;fill:none;fill-opacity:1;fill-rule: evenodd"/>
<path id="Shape2DView_nwe0116"  d="M 8.883676315652 1.9750000000000012 L 9.355271052769 1.9750000000000012 " stroke="#191919" stroke-width="0.35 px" style="stroke-width:0.35;stroke-miterlimit:4;stroke-dasharray:none;fill:none;fill-opacity:1;fill-rule: evenodd"/>
<path id="Shape2DView_nwe0117"  d="M 9.80999210512532 1.9749999999998695 Q 9.587075750860372 2.34096553033595 9.355271052768716 1.975000000000056 " stroke="#191919" stroke-width="0.35 px" style="stroke-width:0.35;stroke-miterlimit:4;stroke-dasharray:none;fill:none;fill-opacity:1;fill-rule: evenodd"/>
<path id="Shape2DView_nwe0118"  d="M 9.80999210512532 -1.9749999999998678 Q 9.587075750860372 -2.340965530335949 9.355271052768716 -1.9750000000000545 " stroke="#191919" stroke-width="0.35 px" style="stroke-width:0.35;stroke-miterlimit:4;stroke-dasharray:none;fill:none;fill-opacity:1;fill-rule: evenodd"/>
<path id="Shape2DView_nwe0119"  d="M 9.809992105126 -1.974999999999999 L 10.281586842242 -1.974999999999999 " stroke="#191919" stroke-width="0.35 px" style="stroke-width:0.35;stroke-miterlimit:4;stroke-dasharray:none;fill:none;fill-opacity:1;fill-rule: evenodd"/>
<path id="Shape2DView_nwe0120"  d="M 9.809992105126 1.9750000000000012 L 10.281586842242 1.9750000000000012 " stroke="#191919" stroke-width="0.35 px" style="stroke-width:0.35;stroke-miterlimit:4;stroke-dasharray:none;fill:none;fill-opacity:1;fill-rule: evenodd"/>
<path id="Shape2DView_nwe0121"  d="M 10.73630789459932 1.9749999999998695 Q 10.513391540334204 2.3409655303360353 10.28158684224268 1.9749999999998695 " stroke="#191919" stroke-width="0.35 px" style="stroke-width:0.35;stroke-miterlimit:4;stroke-dasharray:none;fill:none;fill-opacity:1;fill-rule: evenodd"/>
<path id="Shape2DView_nwe0122"  d="M 10.73630789459932 -1.9749999999998678 Q 10.5133915403342 -2.3409655303360335 10.28158684224268 -1.9749999999998678 " stroke="#191919" stroke-width="0.35 px" style="stroke-width:0.35;stroke-miterlimit:4;stroke-dasharray:none;fill:none;fill-opacity:1;fill-rule: evenodd"/>
<path id="Shape2DView_nwe0123"  d="M 10.7363078946 -1.974999999999999 L 11.207902631716 -1.974999999999999 " stroke="#191919" stroke-width="0.35 px" style="stroke-width:0.35;stroke-miterlimit:4;stroke-dasharray:none;fill:none;fill-opacity:1;fill-rule: evenodd"/>
<path id="Shape2DView_nwe0124"  d="M 10.7363078946 1.9750000000000012 L 11.207902631716 1.9750000000000012 " stroke="#191919" stroke-width="0.35 px" style="stroke-width:0.35;stroke-miterlimit:4;stroke-dasharray:none;fill:none;fill-opacity:1;fill-rule: evenodd"/>
<path id="Shape2DView_nwe0125"  d="M 11.662623684073283 1.9750000000000552 Q 11.439707329808034 2.3409655303359553 11.20790263171668 1.9749999999998695 " stroke="#191919" stroke-width="0.35 px" style="stroke-width:0.35;stroke-miterlimit:4;stroke-dasharray:none;fill:none;fill-opacity:1;fill-rule: evenodd"/>
<path id="Shape2DView_nwe0126"  d="M 11.662623684073283 -1.9750000000000534 Q 11.439707329808034 -2.3409655303359536 11.20790263171668 -1.9749999999998678 " stroke="#191919" stroke-width="0.35 px" style="stroke-width:0.35;stroke-miterlimit:4;stroke-dasharray:none;fill:none;fill-opacity:1;fill-rule: evenodd"/>
<path id="Shape2DView_nwe0127"  d="M 11.662623684073 -1.974999999999999 L 12.295 -1.974999999999999 " stroke="#191919" stroke-width="0.35 px" style="stroke-width:0.35;stroke-miterlimit:4;stroke-dasharray:none;fill:none;fill-opacity:1;fill-rule: evenodd"/>
<path id="Shape2DView_nwe0128"  d="M 11.662623684073 1.9750000000000012 L 12.295 1.9750000000000012 " stroke="#191919" stroke-width="0.35 px" style="stroke-width:0.35;stroke-miterlimit:4;stroke-dasharray:none;fill:none;fill-opacity:1;fill-rule: evenodd"/>
<path id="Shape2DView_nwe0129"  d="M 12.29500000000013 -1.974999999999842 L 12.515000000000182 -2.249999999999907 " stroke="#191919" stroke-width="0.35 px" style="stroke-width:0.35;stroke-miterlimit:4;stroke-dasharray:none;fill:none;fill-opacity:1;fill-rule: evenodd"/>
<path id="Shape2DView_nwe0130"  d="M 12.29500000000013 1.9749999999998438 L 12.515000000000182 2.249999999999909 " stroke="#191919" stroke-width="0.35 px" style="stroke-width:0.35;stroke-miterlimit:4;stroke-dasharray:none;fill:none;fill-opacity:1;fill-rule: evenodd"/>
<path id="Shape2DView_nwe0131"  d="M 12.515 -2.249999999999999 L 12.955 -2.249999999999999 " stroke="#191919" stroke-width="0.35 px" style="stroke-width:0.35;stroke-miterlimit:4;stroke-dasharray:none;fill:none;fill-opacity:1;fill-rule: evenodd"/>
<path id="Shape2DView_nwe0132"  d="M 12.515 2.250000000000001 L 12.955 2.250000000000001 " stroke="#191919" stroke-width="0.35 px" style="stroke-width:0.35;stroke-miterlimit:4;stroke-dasharray:none;fill:none;fill-opacity:1;fill-rule: evenodd"/>
<path id="Shape2DView_nwe0133"  d="M 13.120000000075038 -0.5250000000068771 L 12.955000000074904 -2.250000000007461 " stroke="#191919" stroke-width="0.35 px" style="stroke-width:0.35;stroke-miterlimit:4;stroke-dasharray:none;fill:none;fill-opacity:1;fill-rule: evenodd"/>
<path id="Shape2DView_nwe0134"  d="M 13.120000000075038 0.5250000000068789 L 12.955000000074904 2.250000000007463 " stroke="#191919" stroke-width="0.35 px" style="stroke-width:0.35;stroke-miterlimit:4;stroke-dasharray:none;fill:none;fill-opacity:1;fill-rule: evenodd"/>
<path id="Shape2DView_nwe0135"  d="M 13.12 -0.34999999999999903 L 14.54 -0.34999999999999903 " stroke="#191919" stroke-width="0.35 px" style="stroke-width:0.35;stroke-miterlimit:4;stroke-dasharray:none;fill:none;fill-opacity:1;fill-rule: evenodd"/>
<path id="Shape2DView_nwe0136"  d="M 13.12 0.3500000000000009 L 14.54 0.3500000000000009 " stroke="#191919" stroke-width="0.35 px" style="stroke-width:0.35;stroke-miterlimit:4;stroke-dasharray:none;fill:none;fill-opacity:1;fill-rule: evenodd"/>
<path id="Shape2DView_nwe0137"  d="M 14.54 0.350000000000001 Q 15.17190871360927 0.350000000000001 15.24000000000001 0.35000000000000075 " stroke="#191919" stroke-width="0.35 px" style="stroke-width:0.35;stroke-miterlimit:4;stroke-dasharray:none;fill:none;fill-opacity:1;fill-rule: evenodd"/>
<path id="Shape2DView_nwe0138"  d="M 14.54 -0.349999999999999 Q 15.177767897505404 -0.349999999999999 15.239999999999988 -0.34999999999999915 " stroke="#191919" stroke-width="0.35 px" style="stroke-width:0.35;stroke-miterlimit:4;stroke-dasharray:none;fill:none;fill-opacity:1;fill-rule: evenodd"/>
<title>b'Shape2DView'</title>
</g>
<g id="Rectangle" transform="translate(0.506797,2.409349) scale(1,-1)">
<rect fill="#ff0000" id="origin" width="1" height="1" x="0" y="0" />
<title>b'Rectangle'</title>
</g>
</svg>