<?xml version="1.0"?>
<!DOCTYPE svg PUBLIC "-//W3C//DTD SVG 1.1//EN" "http://www.w3.org/Graphics/SVG/1.1/DTD/svg11.dtd">
<svg width="26.71962393888451mm" height="8.023914194891901mm" viewBox="0 0 26.71962393888451 8.023914194891901" xmlns="http://www.w3.org/2000/svg" version="1.1">
<g id="Shape2DView" transform="translate(0.659041,4.011957) scale(1,-1)">
<path id="Shape2DView_nwe0000"  d="M 4.939999999971 5.062616991873794e-15 L 4.939999999971 -0.41986678531730987 L 4.939999999971 -0.8344535021968764 L 4.939999999971 -1.2385464821251175 L 4.939999999971 -1.6270640214192276 L 4.939999999971 -1.9951202865994562 L 4.939999999971 -2.338086756579943 L 4.939999999971 -2.6516504290069016 L 4.939999999971 -2.9318680587656827 L 4.939999999971 -3.1752157465760136 L 4.939999999971 -3.378633254070063 L 4.939999999971 -3.5395624880655054 L 4.939999999971 -3.6559796700715315 L 4.939999999971 -3.726420786477594 L 4.939999999971 -3.749999999373998 " stroke="#191919" stroke-width="0.35 px" style="stroke-width:0.35;stroke-miterlimit:4;stroke-dasharray:none;fill:none;fill-opacity:1;fill-rule: evenodd"/>
<path id="Shape2DView_nwe0001"  d="M 4.939999999971 3.7499999993740016 L 4.939999999971 3.726420786477598 L 4.939999999971 3.6559796700715355 L 4.939999999971 3.539562488065509 L 4.939999999971 3.378633254070067 L 4.939999999971 3.1752157465760185 L 4.939999999971 2.9318680587656876 L 4.939999999971 2.6516504290069065 L 4.939999999971 2.3380867565799486 L 4.939999999971 1.9951202865994626 L 4.939999999971 1.6270640214192342 L 4.939999999971 1.2385464821251244 L 4.939999999971 0.8344535021968834 L 4.939999999971 0.41986678531731736 L 4.939999999971 5.981102091080983e-15 " stroke="#191919" stroke-width="0.35 px" style="stroke-width:0.35;stroke-miterlimit:4;stroke-dasharray:none;fill:none;fill-opacity:1;fill-rule: evenodd"/>
<path id="Shape2DView_nwe0002"  d="M 4.699999999977 2.964295475391776e-15 L 4.699999999977 -0.06717868560185691 L 4.699999999977 -0.13351256025429212 L 4.699999999977 -0.19816743699573772 L 4.699999999977 -0.2603302432375368 L 4.699999999977 -0.31921924562349824 L 4.699999999977 -0.3740938807804237 L 4.699999999977 -0.4242640683322099 L 4.699999999977 -0.4690988890609722 L 4.699999999977 -0.5080345190822776 L 4.699999999977 -0.5405813202576293 L 4.699999999977 -0.5663299976781533 L 4.699999999977 -0.5849567467855561 L 4.699999999977 -0.5962273254023205 L 4.699999999977 -0.5999999994629983 " stroke="#191919" stroke-width="0.35 px" style="stroke-width:0.35;stroke-miterlimit:4;stroke-dasharray:none;fill:none;fill-opacity:1;fill-rule: evenodd"/>
<path id="Shape2DView_nwe0003"  d="M 4.699999999977 0.5999999994630016 L 4.699999999977 0.5962273254023237 L 4.699999999977 0.5849567467855595 L 4.699999999977 0.5663299976781568 L 4.699999999977 0.5405813202576327 L 4.699999999977 0.5080345190822811 L 4.699999999977 0.4690988890609759 L 4.699999999977 0.42426406833221375 L 4.699999999977 0.37409388078042766 L 4.699999999977 0.31921924562350223 L 4.699999999977 0.2603302432375408 L 4.699999999977 0.1981674369957419 L 4.699999999977 0.13351256025429642 L 4.699999999977 0.0671786856018613 L 4.699999999977 3.1112530911579315e-15 " stroke="#191919" stroke-width="0.35 px" style="stroke-width:0.35;stroke-miterlimit:4;stroke-dasharray:none;fill:none;fill-opacity:1;fill-rule: evenodd"/>
<path id="Shape2DView_nwe0004"  d="M 5.58 5.062616992291e-15 L 5.58 -0.4198667853873997 L 5.58 -0.8344535023361747 L 5.58 -1.2385464823318724 L 5.58 -1.627064021690839 L 5.58 -1.9951202869325082 L 5.58 -2.3380867569702475 L 5.58 -2.6516504294495506 L 5.58 -2.9318680592551094 L 5.58 -3.1752157471060634 L 5.58 -3.3786332546340696 L 5.58 -3.539562488656377 L 5.58 -3.655979670681836 L 5.58 -3.7264207870996575 L 5.58 -3.7499999999999982 " stroke="#191919" stroke-width="0.35 px" style="stroke-width:0.35;stroke-miterlimit:4;stroke-dasharray:none;fill:none;fill-opacity:1;fill-rule: evenodd"/>
<path id="Shape2DView_nwe0005"  d="M 5.58 3.7500000000000018 L 5.58 3.7264207870996615 L 5.58 3.6559796706818406 L 5.58 3.5395624886563803 L 5.58 3.3786332546340736 L 5.58 3.175215747106068 L 5.58 2.9318680592551143 L 5.58 2.6516504294495555 L 5.58 2.3380867569702533 L 5.58 1.9951202869325146 L 5.58 1.6270640216908456 L 5.58 1.2385464823318793 L 5.58 0.8344535023361815 L 5.58 0.4198667853874071 L 5.58 5.9811020916515155e-15 " stroke="#191919" stroke-width="0.35 px" style="stroke-width:0.35;stroke-miterlimit:4;stroke-dasharray:none;fill:none;fill-opacity:1;fill-rule: evenodd"/>
<path id="Shape2DView_nwe0006"  d="M 5.778 4.7961634663808304e-15 L 5.778 -0.3750809949460768 L 5.778 -0.745445128753649 L 5.778 -1.1064348575498058 L 5.778 -1.453510526043816 L 5.778 -1.7823074563263739 L 5.778 -2.088690836226754 L 5.778 -2.3688077169749318 L 5.778 -2.619135466267898 L 5.778 -2.8365260674147494 L 5.778 -3.0182457074731017 L 5.778 -3.1620091565330295 L 5.778 -3.266008505809107 L 5.778 -3.3289359031423604 L 5.778 -3.3499999999999983 " stroke="#191919" stroke-width="0.35 px" style="stroke-width:0.35;stroke-miterlimit:4;stroke-dasharray:none;fill:none;fill-opacity:1;fill-rule: evenodd"/>
<path id="Shape2DView_nwe0007"  d="M 5.778 3.350000000000002 L 5.778 3.328935903142365 L 5.778 3.2660085058091113 L 5.778 3.1620091565330335 L 5.778 3.018245707473106 L 5.778 2.8365260674147543 L 5.778 2.619135466267902 L 5.778 2.3688077169749366 L 5.778 2.0886908362267596 L 5.778 1.78230745632638 L 5.778 1.4535105260438224 L 5.778 1.1064348575498124 L 5.778 0.7454451287536559 L 5.778 0.37508099494608393 L 5.778 5.616676821809556e-15 " stroke="#191919" stroke-width="0.35 px" style="stroke-width:0.35;stroke-miterlimit:4;stroke-dasharray:none;fill:none;fill-opacity:1;fill-rule: evenodd"/>
<path id="Shape2DView_nwe0008"  d="M 7.139820095893 5.773159728051e-15 C 7.139820095892996 1.7900738992006244 7.1398200958930005 3.396160181270131 7.139820095893001 3.349999999500429 " stroke="#191919" stroke-width="0.35 px" style="stroke-width:0.35;stroke-miterlimit:4;stroke-dasharray:none;fill:none;fill-opacity:1;fill-rule: evenodd"/>
<path id="Shape2DView_nwe0009"  d="M 7.139820095893 -3.3499999999998473 C 7.1398200958930005 -3.3961602573451395 7.139820095892998 -1.7900766822378442 7.139820095893 5.773159728050814e-15 " stroke="#191919" stroke-width="0.35 px" style="stroke-width:0.35;stroke-miterlimit:4;stroke-dasharray:none;fill:none;fill-opacity:1;fill-rule: evenodd"/>
<path id="Shape2DView_nwe0010"  d="M -1.3653454727398982e-14 0.40000000000000113 A 0.4 0.4 0 0 1 1.27163e-14 -0.4" stroke="#191919" stroke-width="0.35 px" style="stroke-width:0.35;stroke-miterlimit:4;stroke-dasharray:none;fill:none;fill-opacity:1;fill-rule: evenodd"/>
<path id="Shape2DView_nwe0011"  d="M 7.801232535686 5.773159728051e-15 C 7.801232535685998 1.7900738992031453 7.801232535685999 3.3961601812623425 7.801232535686002 3.349999999500429 " stroke="#191919" stroke-width="0.35 px" style="stroke-width:0.35;stroke-miterlimit:4;stroke-dasharray:none;fill:none;fill-opacity:1;fill-rule: evenodd"/>
<path id="Shape2DView_nwe0012"  d="M 7.8012325356859975 -3.3499999999998473 C 7.801232535686 -3.396160257343157 7.801232535685999 -1.790076682249393 7.801232535686 5.773159728050814e-15 " stroke="#191919" stroke-width="0.35 px" style="stroke-width:0.35;stroke-miterlimit:4;stroke-dasharray:none;fill:none;fill-opacity:1;fill-rule: evenodd"/>
<path id="Shape2DView_nwe0013"  d="M 8.487188516946 5.773159728051e-15 C 8.487188516945999 1.7900738992031568 8.487188516945999 3.3961601812620947 8.487188516946 3.3499999995004295 " stroke="#191919" stroke-width="0.35 px" style="stroke-width:0.35;stroke-miterlimit:4;stroke-dasharray:none;fill:none;fill-opacity:1;fill-rule: evenodd"/>
<path id="Shape2DView_nwe0014"  d="M 8.487188516946 -3.3499999999998473 C 8.487188516945993 -3.396160257343157 8.487188516946006 -1.790076682249393 8.487188516946 5.773159728050814e-15 " stroke="#191919" stroke-width="0.35 px" style="stroke-width:0.35;stroke-miterlimit:4;stroke-dasharray:none;fill:none;fill-opacity:1;fill-rule: evenodd"/>
<path id="Shape2DView_nwe0015"  d="M 9.148600956738 5.773159728051e-15 C 9.148600956737994 1.790073899200008 9.148600956738001 3.3961601812704254 9.148600956738 3.349999999500429 " stroke="#191919" stroke-width="0.35 px" style="stroke-width:0.35;stroke-miterlimit:4;stroke-dasharray:none;fill:none;fill-opacity:1;fill-rule: evenodd"/>
<path id="Shape2DView_nwe0016"  d="M 9.148600956738 -3.3499999999998473 C 9.148600956737994 -3.396160257343157 9.148600956738001 -1.790076682249393 9.148600956738 5.773159728050814e-15 " stroke="#191919" stroke-width="0.35 px" style="stroke-width:0.35;stroke-miterlimit:4;stroke-dasharray:none;fill:none;fill-opacity:1;fill-rule: evenodd"/>
<path id="Shape2DView_nwe0017"  d="M 9.834556937998 5.773159728051e-15 C 9.834556937997993 1.7900738992009528 9.834556937998004 3.3961601812699818 9.834556937998 3.3499999995004295 " stroke="#191919" stroke-width="0.35 px" style="stroke-width:0.35;stroke-miterlimit:4;stroke-dasharray:none;fill:none;fill-opacity:1;fill-rule: evenodd"/>
<path id="Shape2DView_nwe0018"  d="M 9.834556937998 -3.3499999999998473 C 9.834556937997995 -3.396160257343157 9.834556937998002 -1.790076682249393 9.834556937998 5.773159728050814e-15 " stroke="#191919" stroke-width="0.35 px" style="stroke-width:0.35;stroke-miterlimit:4;stroke-dasharray:none;fill:none;fill-opacity:1;fill-rule: evenodd"/>
<path id="Shape2DView_nwe0019"  d="M 10.495969377791 5.773159728051e-15 C 10.495969377790997 1.7900738992032617 10.495969377790997 3.3961601812624584 10.495969377791004 3.3499999995004286 " stroke="#191919" stroke-width="0.35 px" style="stroke-width:0.35;stroke-miterlimit:4;stroke-dasharray:none;fill:none;fill-opacity:1;fill-rule: evenodd"/>
<path id="Shape2DView_nwe0020"  d="M 10.495969377790995 -3.3499999999998473 C 10.495969377791 -3.396160257343157 10.495969377791 -1.790076682249393 10.495969377791 5.773159728050814e-15 " stroke="#191919" stroke-width="0.35 px" style="stroke-width:0.35;stroke-miterlimit:4;stroke-dasharray:none;fill:none;fill-opacity:1;fill-rule: evenodd"/>
<path id="Shape2DView_nwe0021"  d="M 11.181925359051 5.773159728051e-15 C 11.181925359050998 1.7900738992002974 11.181925359050998 3.3961601812702797 11.181925359051 3.34999999950043 " stroke="#191919" stroke-width="0.35 px" style="stroke-width:0.35;stroke-miterlimit:4;stroke-dasharray:none;fill:none;fill-opacity:1;fill-rule: evenodd"/>
<path id="Shape2DView_nwe0022"  d="M 11.181925359051 -3.3499999999998473 C 11.181925359050998 -3.3961602573451395 11.181925359051002 -1.7900766822378442 11.181925359051 5.773159728050814e-15 " stroke="#191919" stroke-width="0.35 px" style="stroke-width:0.35;stroke-miterlimit:4;stroke-dasharray:none;fill:none;fill-opacity:1;fill-rule: evenodd"/>
<path id="Shape2DView_nwe0023"  d="M 11.843337798844 5.773159728051e-15 C 11.843337798843994 1.7900738992037317 11.843337798844004 3.3961601812622626 11.843337798844 3.3499999995004295 " stroke="#191919" stroke-width="0.35 px" style="stroke-width:0.35;stroke-miterlimit:4;stroke-dasharray:none;fill:none;fill-opacity:1;fill-rule: evenodd"/>
<path id="Shape2DView_nwe0024"  d="M 11.843337798844 -3.3499999999998473 C 11.843337798843997 -3.396160257343157 11.843337798844003 -1.790076682249393 11.843337798844 5.773159728050814e-15 " stroke="#191919" stroke-width="0.35 px" style="stroke-width:0.35;stroke-miterlimit:4;stroke-dasharray:none;fill:none;fill-opacity:1;fill-rule: evenodd"/>
<path id="Shape2DView_nwe0025"  d="M 12.529293780104 5.773159728051e-15 C 12.529293780103995 1.7900738992029732 12.529293780104005 3.3961601812625997 12.529293780103997 3.3499999995004295 " stroke="#191919" stroke-width="0.35 px" style="stroke-width:0.35;stroke-miterlimit:4;stroke-dasharray:none;fill:none;fill-opacity:1;fill-rule: evenodd"/>
<path id="Shape2DView_nwe0026"  d="M 12.529293780103995 -3.3499999999998473 C 12.529293780104002 -3.396160257343157 12.529293780103998 -1.790076682249393 12.529293780104 5.773159728050814e-15 " stroke="#191919" stroke-width="0.35 px" style="stroke-width:0.35;stroke-miterlimit:4;stroke-dasharray:none;fill:none;fill-opacity:1;fill-rule: evenodd"/>
<path id="Shape2DView_nwe0027"  d="M 13.190706219896 5.773159728051e-15 C 13.190706219895992 1.7900738992040663 13.190706219896002 3.3961601812620614 13.190706219896 3.349999999500429 " stroke="#191919" stroke-width="0.35 px" style="stroke-width:0.35;stroke-miterlimit:4;stroke-dasharray:none;fill:none;fill-opacity:1;fill-rule: evenodd"/>
<path id="Shape2DView_nwe0028"  d="M 13.190706219896 -3.3499999999998473 C 13.190706219895993 -3.3961602573451395 13.190706219896006 -1.7900766822378442 13.190706219896 5.773159728050814e-15 " stroke="#191919" stroke-width="0.35 px" style="stroke-width:0.35;stroke-miterlimit:4;stroke-dasharray:none;fill:none;fill-opacity:1;fill-rule: evenodd"/>
<path id="Shape2DView_nwe0029"  d="M 13.876662201156 5.773159728051e-15 C 13.876662201155996 1.7900738992035887 13.876662201155998 3.396160181262308 13.876662201156 3.3499999995004295 " stroke="#191919" stroke-width="0.35 px" style="stroke-width:0.35;stroke-miterlimit:4;stroke-dasharray:none;fill:none;fill-opacity:1;fill-rule: evenodd"/>
<path id="Shape2DView_nwe0030"  d="M 13.876662201156 -3.3499999999998473 C 13.876662201155995 -3.396160257343157 13.876662201155996 -1.790076682249393 13.876662201156 5.773159728050814e-15 " stroke="#191919" stroke-width="0.35 px" style="stroke-width:0.35;stroke-miterlimit:4;stroke-dasharray:none;fill:none;fill-opacity:1;fill-rule: evenodd"/>
<path id="Shape2DView_nwe0031"  d="M 14.538074640949 5.773159728051e-15 C 14.538074640948992 1.7900738992031453 14.538074640949002 3.3961601812623425 14.538074640949004 3.349999999500429 " stroke="#191919" stroke-width="0.35 px" style="stroke-width:0.35;stroke-miterlimit:4;stroke-dasharray:none;fill:none;fill-opacity:1;fill-rule: evenodd"/>
<path id="Shape2DView_nwe0032"  d="M 14.538074640948995 -3.3499999999998473 C 14.538074640949004 -3.396160257343157 14.538074640948993 -1.790076682249393 14.538074640949 5.773159728050814e-15 " stroke="#191919" stroke-width="0.35 px" style="stroke-width:0.35;stroke-miterlimit:4;stroke-dasharray:none;fill:none;fill-opacity:1;fill-rule: evenodd"/>
<path id="Shape2DView_nwe0033"  d="M 15.224030622209 5.773159728051e-15 C 15.224030622208991 1.7900738992032619 15.224030622209005 3.396160181262457 15.224030622209 3.3499999995004295 " stroke="#191919" stroke-width="0.35 px" style="stroke-width:0.35;stroke-miterlimit:4;stroke-dasharray:none;fill:none;fill-opacity:1;fill-rule: evenodd"/>
<path id="Shape2DView_nwe0034"  d="M 15.224030622209 -3.3499999999998473 C 15.224030622208996 -3.396160257343157 15.224030622208998 -1.790076682249393 15.224030622209 5.773159728050814e-15 " stroke="#191919" stroke-width="0.35 px" style="stroke-width:0.35;stroke-miterlimit:4;stroke-dasharray:none;fill:none;fill-opacity:1;fill-rule: evenodd"/>
<path id="Shape2DView_nwe0035"  d="M 15.885443062002 5.773159728051e-15 C 15.885443062001992 1.7900738992031453 15.885443062002 3.3961601812623425 15.885443062002 3.349999999500429 " stroke="#191919" stroke-width="0.35 px" style="stroke-width:0.35;stroke-miterlimit:4;stroke-dasharray:none;fill:none;fill-opacity:1;fill-rule: evenodd"/>
<path id="Shape2DView_nwe0036"  d="M 15.885443062002 -3.3499999999998473 C 15.885443062001992 -3.396160257343157 15.885443062002004 -1.790076682249393 15.885443062002 5.773159728050814e-15 " stroke="#191919" stroke-width="0.35 px" style="stroke-width:0.35;stroke-miterlimit:4;stroke-dasharray:none;fill:none;fill-opacity:1;fill-rule: evenodd"/>
<path id="Shape2DView_nwe0037"  d="M 16.571399043262 5.773159728051e-15 C 16.57139904326199 1.790073899204107 16.571399043262005 3.3961601812622146 16.571399043262 3.3499999995004295 " stroke="#191919" stroke-width="0.35 px" style="stroke-width:0.35;stroke-miterlimit:4;stroke-dasharray:none;fill:none;fill-opacity:1;fill-rule: evenodd"/>
<path id="Shape2DView_nwe0038"  d="M 16.571399043262 -3.3499999999998473 C 16.571399043261998 -3.3961602573451395 16.571399043262 -1.7900766822378442 16.571399043262 5.773159728050814e-15 " stroke="#191919" stroke-width="0.35 px" style="stroke-width:0.35;stroke-miterlimit:4;stroke-dasharray:none;fill:none;fill-opacity:1;fill-rule: evenodd"/>
<path id="Shape2DView_nwe0039"  d="M 17.232811483054 5.773159728051e-15 C 17.232811483053997 1.7900738992035896 17.232811483054 3.3961601812623092 17.232811483054 3.349999999500429 " stroke="#191919" stroke-width="0.35 px" style="stroke-width:0.35;stroke-miterlimit:4;stroke-dasharray:none;fill:none;fill-opacity:1;fill-rule: evenodd"/>
<path id="Shape2DView_nwe0040"  d="M 17.232811483054 -3.3499999999998473 C 17.232811483053993 -3.396160257343157 17.232811483054004 -1.790076682249393 17.232811483054 5.773159728050814e-15 " stroke="#191919" stroke-width="0.35 px" style="stroke-width:0.35;stroke-miterlimit:4;stroke-dasharray:none;fill:none;fill-opacity:1;fill-rule: evenodd"/>
<path id="Shape2DView_nwe0041"  d="M 17.918767464314 5.773159728051e-15 C 17.918767464313994 1.7900738992032619 17.918767464314 3.396160181262457 17.918767464314 3.3499999995004295 " stroke="#191919" stroke-width="0.35 px" style="stroke-width:0.35;stroke-miterlimit:4;stroke-dasharray:none;fill:none;fill-opacity:1;fill-rule: evenodd"/>
<path id="Shape2DView_nwe0042"  d="M 17.918767464314 -3.3499999999998473 C 17.918767464314 -3.396160257343157 17.918767464313998 -1.790076682249393 17.918767464314 5.773159728050814e-15 " stroke="#191919" stroke-width="0.35 px" style="stroke-width:0.35;stroke-miterlimit:4;stroke-dasharray:none;fill:none;fill-opacity:1;fill-rule: evenodd"/>
<path id="Shape2DView_nwe0043"  d="M 18.580179904107 5.773159728051e-15 C 18.580179904106988 1.7900738992040663 18.580179904107005 3.3961601812620614 18.580179904107 3.349999999500429 " stroke="#191919" stroke-width="0.35 px" style="stroke-width:0.35;stroke-miterlimit:4;stroke-dasharray:none;fill:none;fill-opacity:1;fill-rule: evenodd"/>
<path id="Shape2DView_nwe0044"  d="M 18.580179904107 -3.3499999999998473 C 18.580179904106988 -3.396160257343157 18.580179904107002 -1.790076682249393 18.580179904107 5.773159728050814e-15 " stroke="#191919" stroke-width="0.35 px" style="stroke-width:0.35;stroke-miterlimit:4;stroke-dasharray:none;fill:none;fill-opacity:1;fill-rule: evenodd"/>
<path id="Shape2DView_nwe0045"  d="M 19.5 4.7961634663808304e-15 L 19.5 -0.3750809949460768 L 19.5 -0.745445128753649 L 19.5 -1.1064348575498058 L 19.5 -1.453510526043816 L 19.5 -1.7823074563263739 L 19.5 -2.088690836226754 L 19.5 -2.3688077169749318 L 19.5 -2.619135466267898 L 19.5 -2.8365260674147494 L 19.5 -3.0182457074731017 L 19.5 -3.1620091565330295 L 19.5 -3.266008505809107 L 19.5 -3.3289359031423604 L 19.5 -3.3499999999999983 " stroke="#191919" stroke-width="0.35 px" style="stroke-width:0.35;stroke-miterlimit:4;stroke-dasharray:none;fill:none;fill-opacity:1;fill-rule: evenodd"/>
<path id="Shape2DView_nwe0046"  d="M 19.5 3.350000000000002 L 19.5 3.328935903142365 L 19.5 3.2660085058091113 L 19.5 3.1620091565330335 L 19.5 3.018245707473106 L 19.5 2.8365260674147543 L 19.5 2.619135466267902 L 19.5 2.3688077169749366 L 19.5 2.0886908362267596 L 19.5 1.78230745632638 L 19.5 1.4535105260438224 L 19.5 1.1064348575498124 L 19.5 0.7454451287536559 L 19.5 0.37508099494608393 L 19.5 5.616676821809556e-15 " stroke="#191919" stroke-width="0.35 px" style="stroke-width:0.35;stroke-miterlimit:4;stroke-dasharray:none;fill:none;fill-opacity:1;fill-rule: evenodd"/>
<path id="Shape2DView_nwe0047"  d="M 19.82 5.062616992291e-15 L 19.82 -0.4198667853873997 L 19.82 -0.8344535023361747 L 19.82 -1.2385464823318724 L 19.82 -1.627064021690839 L 19.82 -1.9951202869325082 L 19.82 -2.3380867569702475 L 19.82 -2.6516504294495506 L 19.82 -2.9318680592551094 L 19.82 -3.1752157471060634 L 19.82 -3.3786332546340696 L 19.82 -3.539562488656377 L 19.82 -3.655979670681836 L 19.82 -3.7264207870996575 L 19.82 -3.7499999999999982 " stroke="#191919" stroke-width="0.35 px" style="stroke-width:0.35;stroke-miterlimit:4;stroke-dasharray:none;fill:none;fill-opacity:1;fill-rule: evenodd"/>
<path id="Shape2DView_nwe0048"  d="M 19.82 3.7500000000000018 L 19.82 3.7264207870996615 L 19.82 3.6559796706818406 L 19.82 3.5395624886563803 L 19.82 3.3786332546340736 L 19.82 3.175215747106068 L 19.82 2.9318680592551143 L 19.82 2.6516504294495555 L 19.82 2.3380867569702533 L 19.82 1.9951202869325146 L 19.82 1.6270640216908456 L 19.82 1.2385464823318793 L 19.82 0.8344535023361815 L 19.82 0.4198667853874071 L 19.82 5.9811020916515155e-15 " stroke="#191919" stroke-width="0.35 px" style="stroke-width:0.35;stroke-miterlimit:4;stroke-dasharray:none;fill:none;fill-opacity:1;fill-rule: evenodd"/>
<path id="Shape2DView_nwe0049"  d="M 20.459999999999 5.062616992291e-15 L 20.459999999999 -0.4198667853873997 L 20.459999999999 -0.8344535023361747 L 20.459999999999 -1.2385464823318724 L 20.459999999999 -1.627064021690839 L 20.459999999999 -1.9951202869325082 L 20.459999999999 -2.3380867569702475 L 20.459999999999 -2.6516504294495506 L 20.459999999999 -2.9318680592551094 L 20.459999999999 -3.1752157471060634 L 20.459999999999 -3.3786332546340696 L 20.459999999999 -3.539562488656377 L 20.459999999999 -3.655979670681836 L 20.459999999999 -3.7264207870996575 L 20.459999999999 -3.7499999999999982 " stroke="#191919" stroke-width="0.35 px" style="stroke-width:0.35;stroke-miterlimit:4;stroke-dasharray:none;fill:none;fill-opacity:1;fill-rule: evenodd"/>
<path id="Shape2DView_nwe0050"  d="M 20.459999999999 3.7500000000000018 L 20.459999999999 3.7264207870996615 L 20.459999999999 3.6559796706818406 L 20.459999999999 3.5395624886563803 L 20.459999999999 3.3786332546340736 L 20.459999999999 3.175215747106068 L 20.459999999999 2.9318680592551143 L 20.459999999999 2.6516504294495555 L 20.459999999999 2.3380867569702533 L 20.459999999999 1.9951202869325146 L 20.459999999999 1.6270640216908456 L 20.459999999999 1.2385464823318793 L 20.459999999999 0.8344535023361815 L 20.459999999999 0.4198667853874071 L 20.459999999999 5.9811020916515155e-15 " stroke="#191919" stroke-width="0.35 px" style="stroke-width:0.35;stroke-miterlimit:4;stroke-dasharray:none;fill:none;fill-opacity:1;fill-rule: evenodd"/>
<path id="Shape2DView_nwe0051"  d="M 20.699999999999 2.9642954757495998e-15 L 20.699999999999 -0.06717868566198183 L 20.699999999999 -0.13351256037378587 L 20.699999999999 -0.19816743717309757 L 20.699999999999 -0.26033024347053235 L 20.699999999999 -0.3192192459091995 L 20.699999999999 -0.3740938811152378 L 20.699999999999 -0.42426406871192623 L 20.699999999999 -0.4690988894808157 L 20.699999999999 -0.5080345195369685 L 20.699999999999 -0.5405813207414496 L 20.699999999999 -0.5663299981850187 L 20.699999999999 -0.5849567473090923 L 20.699999999999 -0.5962273259359439 L 20.699999999999 -0.5999999999999983 " stroke="#191919" stroke-width="0.35 px" style="stroke-width:0.35;stroke-miterlimit:4;stroke-dasharray:none;fill:none;fill-opacity:1;fill-rule: evenodd"/>
<path id="Shape2DView_nwe0052"  d="M 20.699999999999 0.6000000000000016 L 20.699999999999 0.5962273259359471 L 20.699999999999 0.5849567473090959 L 20.699999999999 0.5663299981850222 L 20.699999999999 0.540581320741453 L 20.699999999999 0.5080345195369721 L 20.699999999999 0.4690988894808194 L 20.699999999999 0.42426406871193006 L 20.699999999999 0.37409388111524167 L 20.699999999999 0.3192192459092034 L 20.699999999999 0.26033024347053635 L 20.699999999999 0.19816743717310176 L 20.699999999999 0.13351256037379017 L 20.699999999999 0.06717868566198623 L 20.699999999999 3.1112530916472824e-15 " stroke="#191919" stroke-width="0.35 px" style="stroke-width:0.35;stroke-miterlimit:4;stroke-dasharray:none;fill:none;fill-opacity:1;fill-rule: evenodd"/>
<path id="Shape2DView_nwe0053"  d="M 25.399865626820095 -0.3999999774298089 A 0.4 0.4 0 1 1 25 1.26828e-15" stroke="#191919" stroke-width="0.35 px" style="stroke-width:0.35;stroke-miterlimit:4;stroke-dasharray:none;fill:none;fill-opacity:1;fill-rule: evenodd"/>
<path id="Shape2DView_nwe0054"  d="M 0.799990699361 -0.39999999999999875 A 0.4 4.650319278425955e-06 -90.0 0 1 0.799990699361 0.4000000000000013 " stroke="#191919" stroke-width="0.35 px" style="stroke-width:0.35;stroke-miterlimit:4;stroke-dasharray:none;fill:none;fill-opacity:1;fill-rule: evenodd"/>
<path id="Shape2DView_nwe0055"  d="M 24.6 0.4000000000000013 A 0.4 4.650319278373956e-06 89.99999999999999 0 0 24.6 -0.39999999999999875 " stroke="#191919" stroke-width="0.35 px" style="stroke-width:0.35;stroke-miterlimit:4;stroke-dasharray:none;fill:none;fill-opacity:1;fill-rule: evenodd"/>
<path id="Shape2DView_nwe0056"  d="M 4.939999999987151 5.062616991871943e-15 L 4.921839712397173 4.912789469914315e-15 L 4.90383591854129 4.762953567578574e-15 L 4.885988627134566 4.613109357395969e-15 L 4.868297846816347 4.463256911901784e-15 L 4.850763586150322 4.313396303635281e-15 L 4.833385853624236 4.1635276051396864e-15 L 4.816164657650177 4.0136508889621295e-15 L 4.7991000065644585 3.86376622765363e-15 L 4.782191908627567 3.713873693769049e-15 L 4.765440372024216 3.563973359867054e-15 L 4.748845404863403 3.4140652985101036e-15 L 4.7324070151781825 3.2641495822643803e-15 L 4.716125210925952 3.1142262836997797e-15 L 4.699999999988336 2.964295475389962e-15 " stroke="#191919" stroke-width="0.35 px" style="stroke-width:0.35;stroke-miterlimit:4;stroke-dasharray:none;fill:none;fill-opacity:1;fill-rule: evenodd"/>
<path id="Shape2DView_nwe0057"  d="M 4.939999999971 5.062616992291e-15 L 5.58 5.062616992291e-15 " stroke="#191919" stroke-width="0.35 px" style="stroke-width:0.35;stroke-miterlimit:4;stroke-dasharray:none;fill:none;fill-opacity:1;fill-rule: evenodd"/>
<path id="Shape2DView_nwe0058"  d="M 5.580000000000304 5.062616992291076e-15 L 5.588148518216377 5.041910456773088e-15 L 5.59726497523701 5.021383762569319e-15 L 5.607340456419278 5.0010569819675964e-15 L 5.618365109326334 4.9809499917677014e-15 L 5.630328153361742 4.961082453844587e-15 L 5.643217890311423 4.941473795921768e-15 L 5.657021715782895 4.922143192573669e-15 L 5.671726131530642 4.9031095464755306e-15 L 5.687316758655545 4.884391469919187e-15 L 5.703778351665466 4.866007266612799e-15 L 5.721094813383251 4.847974913782343e-15 L 5.739249210687556 4.830312044592353e-15 L 5.758223791071114 4.813035930903106e-15 L 5.778000000000243 4.7961634663811175e-15 " stroke="#191919" stroke-width="0.35 px" style="stroke-width:0.35;stroke-miterlimit:4;stroke-dasharray:none;fill:none;fill-opacity:1;fill-rule: evenodd"/>
<path id="Shape2DView_nwe0059"  d="M 5.778 4.796163466381e-15 L 7.139820095893 4.796163466381e-15 " stroke="#191919" stroke-width="0.35 px" style="stroke-width:0.35;stroke-miterlimit:4;stroke-dasharray:none;fill:none;fill-opacity:1;fill-rule: evenodd"/>
<path id="Shape2DView_nwe0060"  d="M 7.801232535685194 4.796163466380503e-15 L 7.78229791470738 4.838475564331624e-15 L 7.751291770651068 4.8774986794105e-15 L 7.7094146342408285 4.9117218708005105e-15 L 7.6582879514980196 4.939820046523687e-15 L 7.599891302771838 4.960705269840819e-15 L 7.536485755123078 4.9735688832085405e-15 L 7.470526315789095 4.977912818790718e-15 L 7.4045668764551085 4.973568883208565e-15 L 7.341161328806336 4.960705269840867e-15 L 7.282764680080137 4.939820046523757e-15 L 7.231637997337305 4.9117218708006005e-15 L 7.189760860927038 4.877498679410606e-15 L 7.158754716870692 4.8384755643317414e-15 L 7.1398200958928415 4.796163466380627e-15 " stroke="#191919" stroke-width="0.35 px" style="stroke-width:0.35;stroke-miterlimit:4;stroke-dasharray:none;fill:none;fill-opacity:1;fill-rule: evenodd"/>
<path id="Shape2DView_nwe0061"  d="M 7.801232535686 4.796163466381e-15 L 8.487188516946 4.796163466381e-15 " stroke="#191919" stroke-width="0.35 px" style="stroke-width:0.35;stroke-miterlimit:4;stroke-dasharray:none;fill:none;fill-opacity:1;fill-rule: evenodd"/>
<path id="Shape2DView_nwe0062"  d="M 9.148600956738157 4.796163466380627e-15 L 9.129666335760314 4.838475564331733e-15 L 9.098660191703978 4.877498679410591e-15 L 9.056783055293723 4.911721870800581e-15 L 9.005656372550908 4.9398200465237376e-15 L 8.947259723824725 4.96070526984085e-15 L 8.883854176175971 4.973568883208555e-15 L 8.817894736842 4.977912818790718e-15 L 8.751935297508028 4.973568883208555e-15 L 8.688529749859274 4.96070526984085e-15 L 8.630133101133092 4.9398200465237376e-15 L 8.579006418390277 4.911721870800581e-15 L 8.537129281980022 4.877498679410591e-15 L 8.506123137923687 4.838475564331733e-15 L 8.487188516945842 4.796163466380627e-15 " stroke="#191919" stroke-width="0.35 px" style="stroke-width:0.35;stroke-miterlimit:4;stroke-dasharray:none;fill:none;fill-opacity:1;fill-rule: evenodd"/>
<path id="Shape2DView_nwe0063"  d="M 9.148600956738 4.796163466381e-15 L 9.834556937998 4.796163466381e-15 " stroke="#191919" stroke-width="0.35 px" style="stroke-width:0.35;stroke-miterlimit:4;stroke-dasharray:none;fill:none;fill-opacity:1;fill-rule: evenodd"/>
<path id="Shape2DView_nwe0064"  d="M 10.495969377791157 4.796163466380627e-15 L 10.477034756813309 4.838475564331741e-15 L 10.446028612756962 4.877498679410606e-15 L 10.404151476346694 4.9117218708006005e-15 L 10.353024793603861 4.939820046523757e-15 L 10.294628144877663 4.960705269840867e-15 L 10.231222597228891 4.973568883208565e-15 L 10.165263157894906 4.977912818790718e-15 L 10.099303718560922 4.9735688832085405e-15 L 10.03589817091216 4.960705269840819e-15 L 9.97750152218598 4.939820046523687e-15 L 9.926374839443172 4.9117218708005105e-15 L 9.884497703032933 4.877498679410501e-15 L 9.85349155897662 4.838475564331624e-15 L 9.834556937998805 4.796163466380503e-15 " stroke="#191919" stroke-width="0.35 px" style="stroke-width:0.35;stroke-miterlimit:4;stroke-dasharray:none;fill:none;fill-opacity:1;fill-rule: evenodd"/>
<path id="Shape2DView_nwe0065"  d="M 10.495969377791 4.796163466381e-15 L 11.181925359051 4.796163466381e-15 " stroke="#191919" stroke-width="0.35 px" style="stroke-width:0.35;stroke-miterlimit:4;stroke-dasharray:none;fill:none;fill-opacity:1;fill-rule: evenodd"/>
<path id="Shape2DView_nwe0066"  d="M 11.843337798843194 4.796163466380503e-15 L 11.82440317786538 4.838475564331624e-15 L 11.793397033809066 4.8774986794105e-15 L 11.751519897398829 4.9117218708005105e-15 L 11.70039321465602 4.939820046523687e-15 L 11.641996565929839 4.960705269840819e-15 L 11.578591018281077 4.9735688832085405e-15 L 11.512631578947095 4.977912818790718e-15 L 11.446672139613108 4.973568883208565e-15 L 11.383266591964336 4.960705269840867e-15 L 11.324869943238138 4.939820046523757e-15 L 11.273743260495305 4.9117218708006005e-15 L 11.231866124085037 4.877498679410606e-15 L 11.20085998002869 4.8384755643317414e-15 L 11.181925359050842 4.796163466380627e-15 " stroke="#191919" stroke-width="0.35 px" style="stroke-width:0.35;stroke-miterlimit:4;stroke-dasharray:none;fill:none;fill-opacity:1;fill-rule: evenodd"/>
<path id="Shape2DView_nwe0067"  d="M 11.843337798844 4.796163466381e-15 L 12.529293780104 4.796163466381e-15 " stroke="#191919" stroke-width="0.35 px" style="stroke-width:0.35;stroke-miterlimit:4;stroke-dasharray:none;fill:none;fill-opacity:1;fill-rule: evenodd"/>
<path id="Shape2DView_nwe0068"  d="M 13.190706219896157 4.796163466380627e-15 L 13.171771598918314 4.838475564331733e-15 L 13.140765454861977 4.877498679410591e-15 L 13.098888318451722 4.911721870800581e-15 L 13.047761635708907 4.9398200465237376e-15 L 12.989364986982725 4.96070526984085e-15 L 12.92595943933397 4.973568883208555e-15 L 12.86 4.977912818790718e-15 L 12.794040560666028 4.973568883208555e-15 L 12.730635013017274 4.96070526984085e-15 L 12.672238364291092 4.9398200465237376e-15 L 12.621111681548276 4.911721870800581e-15 L 12.579234545138021 4.877498679410591e-15 L 12.548228401081685 4.838475564331733e-15 L 12.529293780103842 4.796163466380627e-15 " stroke="#191919" stroke-width="0.35 px" style="stroke-width:0.35;stroke-miterlimit:4;stroke-dasharray:none;fill:none;fill-opacity:1;fill-rule: evenodd"/>
<path id="Shape2DView_nwe0069"  d="M 13.190706219896 4.796163466381e-15 L 13.876662201155998 4.796163466381e-15 " stroke="#191919" stroke-width="0.35 px" style="stroke-width:0.35;stroke-miterlimit:4;stroke-dasharray:none;fill:none;fill-opacity:1;fill-rule: evenodd"/>
<path id="Shape2DView_nwe0070"  d="M 14.538074640949157 4.796163466380627e-15 L 14.519140019971308 4.838475564331741e-15 L 14.488133875914961 4.877498679410606e-15 L 14.446256739504694 4.9117218708006005e-15 L 14.395130056761861 4.939820046523757e-15 L 14.336733408035663 4.960705269840867e-15 L 14.27332786038689 4.973568883208565e-15 L 14.207368421052905 4.977912818790718e-15 L 14.141408981718921 4.9735688832085405e-15 L 14.07800343407016 4.960705269840819e-15 L 14.01960678534398 4.939820046523687e-15 L 13.968480102601172 4.9117218708005105e-15 L 13.926602966190933 4.877498679410501e-15 L 13.89559682213462 4.838475564331624e-15 L 13.876662201156805 4.796163466380503e-15 " stroke="#191919" stroke-width="0.35 px" style="stroke-width:0.35;stroke-miterlimit:4;stroke-dasharray:none;fill:none;fill-opacity:1;fill-rule: evenodd"/>
<path id="Shape2DView_nwe0071"  d="M 14.538074640948999 4.796163466381e-15 L 15.224030622209 4.796163466381e-15 " stroke="#191919" stroke-width="0.35 px" style="stroke-width:0.35;stroke-miterlimit:4;stroke-dasharray:none;fill:none;fill-opacity:1;fill-rule: evenodd"/>
<path id="Shape2DView_nwe0072"  d="M 15.885443062001194 4.796163466380503e-15 L 15.86650844102338 4.838475564331624e-15 L 15.835502296967066 4.8774986794105e-15 L 15.793625160556829 4.9117218708005105e-15 L 15.742498477814019 4.939820046523687e-15 L 15.684101829087838 4.960705269840819e-15 L 15.620696281439077 4.9735688832085405e-15 L 15.554736842105095 4.977912818790718e-15 L 15.488777402771108 4.973568883208565e-15 L 15.425371855122336 4.960705269840867e-15 L 15.366975206396138 4.939820046523757e-15 L 15.315848523653305 4.9117218708006005e-15 L 15.273971387243037 4.877498679410606e-15 L 15.24296524318669 4.8384755643317414e-15 L 15.224030622208842 4.796163466380627e-15 " stroke="#191919" stroke-width="0.35 px" style="stroke-width:0.35;stroke-miterlimit:4;stroke-dasharray:none;fill:none;fill-opacity:1;fill-rule: evenodd"/>
<path id="Shape2DView_nwe0073"  d="M 15.885443062002 4.796163466381e-15 L 16.571399043262 4.796163466381e-15 " stroke="#191919" stroke-width="0.35 px" style="stroke-width:0.35;stroke-miterlimit:4;stroke-dasharray:none;fill:none;fill-opacity:1;fill-rule: evenodd"/>
<path id="Shape2DView_nwe0074"  d="M 17.232811483054157 4.796163466380627e-15 L 17.21387686207631 4.838475564331733e-15 L 17.182870718019977 4.877498679410591e-15 L 17.140993581609724 4.911721870800581e-15 L 17.089866898866905 4.9398200465237376e-15 L 17.031470250140725 4.96070526984085e-15 L 16.968064702491972 4.973568883208555e-15 L 16.902105263158 4.977912818790718e-15 L 16.83614582382403 4.973568883208555e-15 L 16.772740276175274 4.96070526984085e-15 L 16.714343627449093 4.9398200465237376e-15 L 16.663216944706274 4.9117218708005815e-15 L 16.62133980829602 4.877498679410592e-15 L 16.590333664239687 4.838475564331733e-15 L 16.57139904326184 4.796163466380628e-15 " stroke="#191919" stroke-width="0.35 px" style="stroke-width:0.35;stroke-miterlimit:4;stroke-dasharray:none;fill:none;fill-opacity:1;fill-rule: evenodd"/>
<path id="Shape2DView_nwe0075"  d="M 17.232811483054 4.796163466381e-15 L 17.918767464314 4.796163466381e-15 " stroke="#191919" stroke-width="0.35 px" style="stroke-width:0.35;stroke-miterlimit:4;stroke-dasharray:none;fill:none;fill-opacity:1;fill-rule: evenodd"/>
<path id="Shape2DView_nwe0076"  d="M 18.58017990410716 4.796163466380628e-15 L 18.56124528312931 4.8384755643317414e-15 L 18.530239139072965 4.877498679410607e-15 L 18.488362002662697 4.9117218708006005e-15 L 18.437235319919864 4.939820046523758e-15 L 18.378838671193662 4.960705269840867e-15 L 18.315433123544892 4.973568883208565e-15 L 18.249473684210905 4.977912818790718e-15 L 18.18351424487692 4.9735688832085405e-15 L 18.12010869722816 4.960705269840819e-15 L 18.06171204850198 4.939820046523687e-15 L 18.010585365759173 4.9117218708005105e-15 L 17.968708229348934 4.877498679410501e-15 L 17.93770208529262 4.838475564331624e-15 L 17.918767464314808 4.796163466380503e-15 " stroke="#191919" stroke-width="0.35 px" style="stroke-width:0.35;stroke-miterlimit:4;stroke-dasharray:none;fill:none;fill-opacity:1;fill-rule: evenodd"/>
<path id="Shape2DView_nwe0077"  d="M 18.580179904107 4.796163466381e-15 L 19.5 4.796163466381e-15 " stroke="#191919" stroke-width="0.35 px" style="stroke-width:0.35;stroke-miterlimit:4;stroke-dasharray:none;fill:none;fill-opacity:1;fill-rule: evenodd"/>
<path id="Shape2DView_nwe0078"  d="M 19.499999999999783 4.796163466380878e-15 L 19.528054811445624 4.81207544980397e-15 L 19.555396748152358 4.828528859800726e-15 L 19.582002271369014 4.845509531583746e-15 L 19.60784847632508 4.863002846444461e-15 L 19.632913111949307 4.880993744338422e-15 L 19.65717460002569 4.8994667368505325e-15 L 19.680612053770236 4.9184059205290694e-15 L 19.70320529581244 4.937794990577011e-15 L 19.72493487556607 4.95761725488888e-15 L 19.745782085974184 4.977855648421032e-15 L 19.765728979614135 4.998492747882989e-15 L 19.784758384148528 5.01951078673721e-15 L 19.80285391710896 5.040891670494347e-15 L 19.819999999999695 5.062616992290846e-15 " stroke="#191919" stroke-width="0.35 px" style="stroke-width:0.35;stroke-miterlimit:4;stroke-dasharray:none;fill:none;fill-opacity:1;fill-rule: evenodd"/>
<path id="Shape2DView_nwe0079"  d="M 19.82 5.062616992291e-15 L 20.459999999999 5.062616992291e-15 " stroke="#191919" stroke-width="0.35 px" style="stroke-width:0.35;stroke-miterlimit:4;stroke-dasharray:none;fill:none;fill-opacity:1;fill-rule: evenodd"/>
<path id="Shape2DView_nwe0080"  d="M 20.7000000000819 2.964295475752166e-15 L 20.683874789144113 3.1142262840663666e-15 L 20.667592984891826 3.2641495826352554e-15 L 20.65115459520655 3.414065298885267e-15 L 20.634559628045622 3.563973360246505e-15 L 20.617808091442214 3.713873694152785e-15 L 20.600899993505266 3.863766228041658e-15 L 20.583835342419434 4.013650889354446e-15 L 20.566614146445318 4.163527605536291e-15 L 20.549236413919118 4.313396304036177e-15 L 20.53170215325298 4.463256912306968e-15 L 20.514011372934704 4.613109357805442e-15 L 20.496164081527922 4.762953567992338e-15 L 20.478160287671926 4.91278947033237e-15 L 20.460000000081834 5.062616992294274e-15 " stroke="#191919" stroke-width="0.35 px" style="stroke-width:0.35;stroke-miterlimit:4;stroke-dasharray:none;fill:none;fill-opacity:1;fill-rule: evenodd"/>
<path id="Shape2DView_nwe0081"  d="M 4.939999999987151 -3.749999999372711 L 4.699999999988336 -0.5999999994621628 " stroke="#191919" stroke-width="0.35 px" style="stroke-width:0.35;stroke-miterlimit:4;stroke-dasharray:none;fill:none;fill-opacity:1;fill-rule: evenodd"/>
<path id="Shape2DView_nwe0082"  d="M 4.939999999987151 3.7499999993727147 L 4.699999999988336 0.5999999994621663 " stroke="#191919" stroke-width="0.35 px" style="stroke-width:0.35;stroke-miterlimit:4;stroke-dasharray:none;fill:none;fill-opacity:1;fill-rule: evenodd"/>
<path id="Shape2DView_nwe0083"  d="M 4.939999999971 -3.7499999999999982 L 5.58 -3.7499999999999982 " stroke="#191919" stroke-width="0.35 px" style="stroke-width:0.35;stroke-miterlimit:4;stroke-dasharray:none;fill:none;fill-opacity:1;fill-rule: evenodd"/>
<path id="Shape2DView_nwe0084"  d="M 4.939999999971 3.7500000000000018 L 5.58 3.7500000000000018 " stroke="#191919" stroke-width="0.35 px" style="stroke-width:0.35;stroke-miterlimit:4;stroke-dasharray:none;fill:none;fill-opacity:1;fill-rule: evenodd"/>
<path id="Shape2DView_nwe0085"  d="M 5.580000000000304 -3.7500000000000724 L 5.778000000000244 -3.3500000000001946 " stroke="#191919" stroke-width="0.35 px" style="stroke-width:0.35;stroke-miterlimit:4;stroke-dasharray:none;fill:none;fill-opacity:1;fill-rule: evenodd"/>
<path id="Shape2DView_nwe0086"  d="M 5.580000000000304 3.750000000000076 L 5.778000000000244 3.350000000000198 " stroke="#191919" stroke-width="0.35 px" style="stroke-width:0.35;stroke-miterlimit:4;stroke-dasharray:none;fill:none;fill-opacity:1;fill-rule: evenodd"/>
<path id="Shape2DView_nwe0087"  d="M 0.799990699361 -0.39999999999999875 L 4.7 -0.39999999999999875 " stroke="#191919" stroke-width="0.35 px" style="stroke-width:0.35;stroke-miterlimit:4;stroke-dasharray:none;fill:none;fill-opacity:1;fill-rule: evenodd"/>
<path id="Shape2DView_nwe0088"  d="M 0.7999906993610002 0.4000000000000013 L 4.700000000000001 0.4000000000000013 " stroke="#191919" stroke-width="0.35 px" style="stroke-width:0.35;stroke-miterlimit:4;stroke-dasharray:none;fill:none;fill-opacity:1;fill-rule: evenodd"/>
<path id="Shape2DView_nwe0089"  d="M 5.778 -3.3499999999999983 L 7.139820095893 -3.3499999999999983 " stroke="#191919" stroke-width="0.35 px" style="stroke-width:0.35;stroke-miterlimit:4;stroke-dasharray:none;fill:none;fill-opacity:1;fill-rule: evenodd"/>
<path id="Shape2DView_nwe0090"  d="M 5.778 3.350000000000002 L 7.139820095893 3.350000000000002 " stroke="#191919" stroke-width="0.35 px" style="stroke-width:0.35;stroke-miterlimit:4;stroke-dasharray:none;fill:none;fill-opacity:1;fill-rule: evenodd"/>
<path id="Shape2DView_nwe0091"  d="M 0.7999906993605564 -0.3999999999999987 Q 0.07112045571333958 -0.39999999999999886 1.27675647831893e-14 -0.3999999999999989 " stroke="#191919" stroke-width="0.35 px" style="stroke-width:0.35;stroke-miterlimit:4;stroke-dasharray:none;fill:none;fill-opacity:1;fill-rule: evenodd"/>
<path id="Shape2DView_nwe0092"  d="M 0.7999906993605564 0.4000000000000013 Q 0.0711204557125476 0.4000000000000013 -1.3655743202889425e-14 0.40000000000000113 " stroke="#191919" stroke-width="0.35 px" style="stroke-width:0.35;stroke-miterlimit:4;stroke-dasharray:none;fill:none;fill-opacity:1;fill-rule: evenodd"/>
<path id="Shape2DView_nwe0093"  d="M 7.801232535685193 3.349999999999846 Q 7.77699137299706 3.409940612226748 7.752750210308925 3.469881224453651 Q 7.717018287698494 3.509320600712009 7.681286365088062 3.548759976970367 Q 7.299822065655153 3.7510362455492627 7.139820095892841 3.350000000000032 " stroke="#191919" stroke-width="0.35 px" style="stroke-width:0.35;stroke-miterlimit:4;stroke-dasharray:none;fill:none;fill-opacity:1;fill-rule: evenodd"/>
<path id="Shape2DView_nwe0094"  d="M 7.801232535685193 -3.3499999999998424 Q 7.77699137299706 -3.409940612226746 7.752750210308925 -3.4698812244536485 Q 7.717018287698494 -3.509320600712007 7.681286365088063 -3.5487599769703633 Q 7.299822065655155 -3.7510362455492587 7.1398200958928415 -3.350000000000029 " stroke="#191919" stroke-width="0.35 px" style="stroke-width:0.35;stroke-miterlimit:4;stroke-dasharray:none;fill:none;fill-opacity:1;fill-rule: evenodd"/>
<path id="Shape2DView_nwe0095"  d="M 7.801232535686 -3.3499999999999983 L 8.487188516946 -3.3499999999999983 " stroke="#191919" stroke-width="0.35 px" style="stroke-width:0.35;stroke-miterlimit:4;stroke-dasharray:none;fill:none;fill-opacity:1;fill-rule: evenodd"/>
<path id="Shape2DView_nwe0096"  d="M 7.801232535686 3.350000000000002 L 8.487188516946 3.350000000000002 " stroke="#191919" stroke-width="0.35 px" style="stroke-width:0.35;stroke-miterlimit:4;stroke-dasharray:none;fill:none;fill-opacity:1;fill-rule: evenodd"/>
<path id="Shape2DView_nwe0097"  d="M 9.148600956738157 3.3500000000000325 Q 9.123078002255692 3.4118786571292556 9.097555047773227 3.473757314258481 Q 9.0400125069642 3.52682898698131 8.982469966155172 3.579900659704139 Q 8.618610118296093 3.7153244517244133 8.487188516945842 3.350000000000033 " stroke="#191919" stroke-width="0.35 px" style="stroke-width:0.35;stroke-miterlimit:4;stroke-dasharray:none;fill:none;fill-opacity:1;fill-rule: evenodd"/>
<path id="Shape2DView_nwe0098"  d="M 9.148600956738157 -3.350000000000029 Q 9.123078002255692 -3.411878657129252 9.097555047773227 -3.4737573142584774 Q 9.0400125069642 -3.5268289869813065 8.982469966155172 -3.5799006597041356 Q 8.61861011829609 -3.7153244517244097 8.487188516945842 -3.3500000000000294 " stroke="#191919" stroke-width="0.35 px" style="stroke-width:0.35;stroke-miterlimit:4;stroke-dasharray:none;fill:none;fill-opacity:1;fill-rule: evenodd"/>
<path id="Shape2DView_nwe0099"  d="M 9.148600956738 -3.3499999999999983 L 9.834556937998 -3.3499999999999983 " stroke="#191919" stroke-width="0.35 px" style="stroke-width:0.35;stroke-miterlimit:4;stroke-dasharray:none;fill:none;fill-opacity:1;fill-rule: evenodd"/>
<path id="Shape2DView_nwe0100"  d="M 9.148600956738 3.350000000000002 L 9.834556937998 3.350000000000002 " stroke="#191919" stroke-width="0.35 px" style="stroke-width:0.35;stroke-miterlimit:4;stroke-dasharray:none;fill:none;fill-opacity:1;fill-rule: evenodd"/>
<path id="Shape2DView_nwe0101"  d="M 10.495969377791157 3.350000000000032 Q 10.451456173000313 3.4353173827320473 10.406942968209464 3.5206347654640617 Q 9.99952658676585 3.7710666857297706 9.834556937998803 3.3499999999998464 " stroke="#191919" stroke-width="0.35 px" style="stroke-width:0.35;stroke-miterlimit:4;stroke-dasharray:none;fill:none;fill-opacity:1;fill-rule: evenodd"/>
<path id="Shape2DView_nwe0102"  d="M 10.495969377791157 -3.3500000000000285 Q 10.451456173000313 -3.435317382732044 10.406942968209464 -3.520634765464058 Q 9.99952658676585 -3.771066685729767 9.834556937998803 -3.349999999999843 " stroke="#191919" stroke-width="0.35 px" style="stroke-width:0.35;stroke-miterlimit:4;stroke-dasharray:none;fill:none;fill-opacity:1;fill-rule: evenodd"/>
<path id="Shape2DView_nwe0103"  d="M 10.495969377791 -3.3499999999999983 L 11.181925359051 -3.3499999999999983 " stroke="#191919" stroke-width="0.35 px" style="stroke-width:0.35;stroke-miterlimit:4;stroke-dasharray:none;fill:none;fill-opacity:1;fill-rule: evenodd"/>
<path id="Shape2DView_nwe0104"  d="M 10.495969377791 3.350000000000002 L 11.181925359051 3.350000000000002 " stroke="#191919" stroke-width="0.35 px" style="stroke-width:0.35;stroke-miterlimit:4;stroke-dasharray:none;fill:none;fill-opacity:1;fill-rule: evenodd"/>
<path id="Shape2DView_nwe0105"  d="M 11.843337798843194 3.349999999999846 Q 11.819096631819923 3.4099406094022173 11.794855464796651 3.4698812188045896 Q 11.766209697225056 3.503308110657281 11.737563929653463 3.5367350025099724 Q 11.352414477544325 3.7627333387576263 11.181925359050844 3.350000000000033 " stroke="#191919" stroke-width="0.35 px" style="stroke-width:0.35;stroke-miterlimit:4;stroke-dasharray:none;fill:none;fill-opacity:1;fill-rule: evenodd"/>
<path id="Shape2DView_nwe0106"  d="M 11.843337798843194 -3.3499999999998424 Q 11.819096631819923 -3.409940609402214 11.794855464796651 -3.469881218804585 Q 11.766209697225058 -3.5033081106572768 11.737563929653463 -3.536735002509969 Q 11.352414477544325 -3.7627333387576227 11.181925359050844 -3.3500000000000294 " stroke="#191919" stroke-width="0.35 px" style="stroke-width:0.35;stroke-miterlimit:4;stroke-dasharray:none;fill:none;fill-opacity:1;fill-rule: evenodd"/>
<path id="Shape2DView_nwe0107"  d="M 11.843337798844 -3.3499999999999983 L 12.529293780104 -3.3499999999999983 " stroke="#191919" stroke-width="0.35 px" style="stroke-width:0.35;stroke-miterlimit:4;stroke-dasharray:none;fill:none;fill-opacity:1;fill-rule: evenodd"/>
<path id="Shape2DView_nwe0108"  d="M 11.843337798844 3.350000000000002 L 12.529293780104 3.350000000000002 " stroke="#191919" stroke-width="0.35 px" style="stroke-width:0.35;stroke-miterlimit:4;stroke-dasharray:none;fill:none;fill-opacity:1;fill-rule: evenodd"/>
<path id="Shape2DView_nwe0109"  d="M 13.190706219896157 3.350000000000032 Q 13.165183272515378 3.411878661897094 13.1396603251346 3.4737573237941555 Q 13.080082633410596 3.527950238822056 13.020504941686582 3.582143153849954 Q 12.658524130578467 3.7123196833856373 12.529293780103842 3.350000000000033 " stroke="#191919" stroke-width="0.35 px" style="stroke-width:0.35;stroke-miterlimit:4;stroke-dasharray:none;fill:none;fill-opacity:1;fill-rule: evenodd"/>
<path id="Shape2DView_nwe0110"  d="M 13.190706219896157 -3.3500000000000285 Q 13.165183272515378 -3.41187866189709 13.1396603251346 -3.4737573237941524 Q 13.080082633410596 -3.5279502388220525 13.020504941686582 -3.5821431538499504 Q 12.658524130578467 -3.712319683385634 12.529293780103842 -3.3500000000000294 " stroke="#191919" stroke-width="0.35 px" style="stroke-width:0.35;stroke-miterlimit:4;stroke-dasharray:none;fill:none;fill-opacity:1;fill-rule: evenodd"/>
<path id="Shape2DView_nwe0111"  d="M 13.190706219896 -3.3499999999999983 L 13.876662201155998 -3.3499999999999983 " stroke="#191919" stroke-width="0.35 px" style="stroke-width:0.35;stroke-miterlimit:4;stroke-dasharray:none;fill:none;fill-opacity:1;fill-rule: evenodd"/>
<path id="Shape2DView_nwe0112"  d="M 13.190706219896 3.350000000000002 L 13.876662201155998 3.350000000000002 " stroke="#191919" stroke-width="0.35 px" style="stroke-width:0.35;stroke-miterlimit:4;stroke-dasharray:none;fill:none;fill-opacity:1;fill-rule: evenodd"/>
<path id="Shape2DView_nwe0113"  d="M 14.538074640949157 3.350000000000032 Q 14.493561436158313 3.4353173827320473 14.449048231367463 3.5206347654640617 Q 14.041631849923847 3.7710666857297706 13.876662201156803 3.3499999999998464 " stroke="#191919" stroke-width="0.35 px" style="stroke-width:0.35;stroke-miterlimit:4;stroke-dasharray:none;fill:none;fill-opacity:1;fill-rule: evenodd"/>
<path id="Shape2DView_nwe0114"  d="M 14.538074640949157 -3.3500000000000285 Q 14.493561436158313 -3.435317382732044 14.449048231367463 -3.520634765464058 Q 14.041631849923847 -3.771066685729767 13.876662201156803 -3.349999999999843 " stroke="#191919" stroke-width="0.35 px" style="stroke-width:0.35;stroke-miterlimit:4;stroke-dasharray:none;fill:none;fill-opacity:1;fill-rule: evenodd"/>
<path id="Shape2DView_nwe0115"  d="M 14.538074640948999 -3.3499999999999983 L 15.224030622209 -3.3499999999999983 " stroke="#191919" stroke-width="0.35 px" style="stroke-width:0.35;stroke-miterlimit:4;stroke-dasharray:none;fill:none;fill-opacity:1;fill-rule: evenodd"/>
<path id="Shape2DView_nwe0116"  d="M 14.538074640948999 3.350000000000002 L 15.224030622209 3.350000000000002 " stroke="#191919" stroke-width="0.35 px" style="stroke-width:0.35;stroke-miterlimit:4;stroke-dasharray:none;fill:none;fill-opacity:1;fill-rule: evenodd"/>
<path id="Shape2DView_nwe0117"  d="M 15.885443062001196 3.349999999999846 Q 15.861201894977924 3.4099406094022187 15.836960727954654 3.4698812188045904 Q 15.808314960383058 3.5033081106572803 15.779669192811461 3.5367350025099724 Q 15.394519740702322 3.7627333387576263 15.224030622208842 3.350000000000033 " stroke="#191919" stroke-width="0.35 px" style="stroke-width:0.35;stroke-miterlimit:4;stroke-dasharray:none;fill:none;fill-opacity:1;fill-rule: evenodd"/>
<path id="Shape2DView_nwe0118"  d="M 15.885443062001196 -3.3499999999998424 Q 15.861201894977922 -3.4099406094022138 15.83696072795465 -3.469881218804586 Q 15.808314960383054 -3.5033081106572777 15.779669192811463 -3.536735002509969 Q 15.394519740702325 -3.7627333387576227 15.224030622208844 -3.3500000000000294 " stroke="#191919" stroke-width="0.35 px" style="stroke-width:0.35;stroke-miterlimit:4;stroke-dasharray:none;fill:none;fill-opacity:1;fill-rule: evenodd"/>
<path id="Shape2DView_nwe0119"  d="M 15.885443062002 -3.3499999999999983 L 16.571399043262 -3.3499999999999983 " stroke="#191919" stroke-width="0.35 px" style="stroke-width:0.35;stroke-miterlimit:4;stroke-dasharray:none;fill:none;fill-opacity:1;fill-rule: evenodd"/>
<path id="Shape2DView_nwe0120"  d="M 15.885443062002 3.350000000000002 L 16.571399043262 3.350000000000002 " stroke="#191919" stroke-width="0.35 px" style="stroke-width:0.35;stroke-miterlimit:4;stroke-dasharray:none;fill:none;fill-opacity:1;fill-rule: evenodd"/>
<path id="Shape2DView_nwe0121"  d="M 17.232811483054157 3.350000000000032 Q 17.20728847022435 3.4118786179563854 17.18176545739454 3.4737572359127378 Q 16.79847592142762 3.8138763049655164 16.57139904326184 3.350000000000033 " stroke="#191919" stroke-width="0.35 px" style="stroke-width:0.35;stroke-miterlimit:4;stroke-dasharray:none;fill:none;fill-opacity:1;fill-rule: evenodd"/>
<path id="Shape2DView_nwe0122"  d="M 17.232811483054157 -3.3500000000000285 Q 17.20728847022435 -3.411878617956382 17.18176545739454 -3.473757235912734 Q 16.798475921427613 -3.813876304965513 16.57139904326184 -3.3500000000000294 " stroke="#191919" stroke-width="0.35 px" style="stroke-width:0.35;stroke-miterlimit:4;stroke-dasharray:none;fill:none;fill-opacity:1;fill-rule: evenodd"/>
<path id="Shape2DView_nwe0123"  d="M 17.232811483054 -3.3499999999999983 L 17.918767464314 -3.3499999999999983 " stroke="#191919" stroke-width="0.35 px" style="stroke-width:0.35;stroke-miterlimit:4;stroke-dasharray:none;fill:none;fill-opacity:1;fill-rule: evenodd"/>
<path id="Shape2DView_nwe0124"  d="M 17.232811483054 3.350000000000002 L 17.918767464314 3.350000000000002 " stroke="#191919" stroke-width="0.35 px" style="stroke-width:0.35;stroke-miterlimit:4;stroke-dasharray:none;fill:none;fill-opacity:1;fill-rule: evenodd"/>
<path id="Shape2DView_nwe0125"  d="M 18.58017990410716 3.3500000000000325 Q 18.507047552063106 3.4589289990779566 18.433915200019047 3.5678579981558833 Q 18.06157996275764 3.7302941089104005 17.918767464314808 3.349999999999847 " stroke="#191919" stroke-width="0.35 px" style="stroke-width:0.35;stroke-miterlimit:4;stroke-dasharray:none;fill:none;fill-opacity:1;fill-rule: evenodd"/>
<path id="Shape2DView_nwe0126"  d="M 18.58017990410716 -3.350000000000029 Q 18.507047552063106 -3.458928999077953 18.433915200019047 -3.5678579981558793 Q 18.06157996275764 -3.730294108910397 17.918767464314808 -3.349999999999843 " stroke="#191919" stroke-width="0.35 px" style="stroke-width:0.35;stroke-miterlimit:4;stroke-dasharray:none;fill:none;fill-opacity:1;fill-rule: evenodd"/>
<path id="Shape2DView_nwe0127"  d="M 18.580179904107 -3.3499999999999983 L 19.5 -3.3499999999999983 " stroke="#191919" stroke-width="0.35 px" style="stroke-width:0.35;stroke-miterlimit:4;stroke-dasharray:none;fill:none;fill-opacity:1;fill-rule: evenodd"/>
<path id="Shape2DView_nwe0128"  d="M 18.580179904107 3.350000000000002 L 19.5 3.350000000000002 " stroke="#191919" stroke-width="0.35 px" style="stroke-width:0.35;stroke-miterlimit:4;stroke-dasharray:none;fill:none;fill-opacity:1;fill-rule: evenodd"/>
<path id="Shape2DView_nwe0129"  d="M 19.499999999999783 -3.3500000000002594 L 19.819999999999695 -3.7500000000001514 " stroke="#191919" stroke-width="0.35 px" style="stroke-width:0.35;stroke-miterlimit:4;stroke-dasharray:none;fill:none;fill-opacity:1;fill-rule: evenodd"/>
<path id="Shape2DView_nwe0130"  d="M 19.499999999999783 3.350000000000263 L 19.819999999999695 3.750000000000155 " stroke="#191919" stroke-width="0.35 px" style="stroke-width:0.35;stroke-miterlimit:4;stroke-dasharray:none;fill:none;fill-opacity:1;fill-rule: evenodd"/>
<path id="Shape2DView_nwe0131"  d="M 19.82 -3.7499999999999982 L 20.459999999999 -3.7499999999999982 " stroke="#191919" stroke-width="0.35 px" style="stroke-width:0.35;stroke-miterlimit:4;stroke-dasharray:none;fill:none;fill-opacity:1;fill-rule: evenodd"/>
<path id="Shape2DView_nwe0132"  d="M 19.82 3.7500000000000018 L 20.459999999999 3.7500000000000018 " stroke="#191919" stroke-width="0.35 px" style="stroke-width:0.35;stroke-miterlimit:4;stroke-dasharray:none;fill:none;fill-opacity:1;fill-rule: evenodd"/>
<path id="Shape2DView_nwe0133"  d="M 20.700000000071896 -0.6000000000051915 L 20.460000000071886 -3.750000000005904 " stroke="#191919" stroke-width="0.35 px" style="stroke-width:0.35;stroke-miterlimit:4;stroke-dasharray:none;fill:none;fill-opacity:1;fill-rule: evenodd"/>
<path id="Shape2DView_nwe0134"  d="M 20.700000000071896 0.600000000005195 L 20.460000000071886 3.7500000000059077 " stroke="#191919" stroke-width="0.35 px" style="stroke-width:0.35;stroke-miterlimit:4;stroke-dasharray:none;fill:none;fill-opacity:1;fill-rule: evenodd"/>
<path id="Shape2DView_nwe0135"  d="M 20.699999999999996 -0.39999999999999875 L 24.6 -0.39999999999999875 " stroke="#191919" stroke-width="0.35 px" style="stroke-width:0.35;stroke-miterlimit:4;stroke-dasharray:none;fill:none;fill-opacity:1;fill-rule: evenodd"/>
<path id="Shape2DView_nwe0136"  d="M 20.7 0.4000000000000013 L 24.600000000000005 0.4000000000000013 " stroke="#191919" stroke-width="0.35 px" style="stroke-width:0.35;stroke-miterlimit:4;stroke-dasharray:none;fill:none;fill-opacity:1;fill-rule: evenodd"/>
<path id="Shape2DView_nwe0137"  d="M 24.60000000003237 0.4000000000000013 C 24.692298760518522 0.4000000000000012 24.784597521004706 0.40000000000000124 24.876896281490872 0.40000000000000147 C 24.903412189228753 0.3999999999999958 25.442107421405723 0.4000000000000125 25.40000008273417 0.3999999999999926 " stroke="#191919" stroke-width="0.35 px" style="stroke-width:0.35;stroke-miterlimit:4;stroke-dasharray:none;fill:none;fill-opacity:1;fill-rule: evenodd"/>
<path id="Shape2DView_nwe0138"  d="M 24.60000000003237 -0.39999999999999875 Q 25.238297145763916 -0.39999999999999875 25.3891452320417 -0.3999999999999989 Q 25.394572616006666 -0.39999999999999886 25.399999999971634 -0.3999999999999989 " stroke="#191919" stroke-width="0.35 px" style="stroke-width:0.35;stroke-miterlimit:4;stroke-dasharray:none;fill:none;fill-opacity:1;fill-rule: evenodd"/>
<title>b'Shape2DView'</title>
</g>
<g id="Rectangle" transform="translate(0.659041,4.011957) scale(1,-1)">
<rect fill="#ff0000" id="origin" width="1" height="1" x="0" y="0" />
<title>b'Rectangle'</title>
</g>
</svg>