<?xml version="1.0"?>
<!DOCTYPE svg PUBLIC "-//W3C//DTD SVG 1.1//EN" "http://www.w3.org/Graphics/SVG/1.1/DTD/svg11.dtd">
<svg width="8.189032282461866mm" height="5.140110667774836mm" viewBox="0 0 8.189032282461866 5.140110667774836" xmlns="http://www.w3.org/2000/svg" version="1.1">
<g id="Shape2DView" transform="translate(2.580285,2.570055) scale(1,-1)">
<path id="Shape2DView_nwe0000"  d="M 2.4591665254715873 -0.44999999999999624 A 2.5 2.5 0 1 0 2.45917 0.45" stroke="#191919" stroke-width="0.35 px" style="stroke-width:0.35;stroke-miterlimit:4;stroke-dasharray:none;fill:none;fill-opacity:1;fill-rule: evenodd"/>
<circle cx="0.0" cy="5.380410311247e-15" r="0.45" stroke="#191919" stroke-width="0.35 px" style="stroke-width:0.35;stroke-miterlimit:4;stroke-dasharray:none;fill:none"/>
<path id="Shape2DView_nwe0002"  d="M -1.5360136568323856e-14 0.45000000000000356 A 0.45 0.45 0 0 1 1.43058e-14 -0.45" stroke="#191919" stroke-width="0.35 px" style="stroke-width:0.35;stroke-miterlimit:4;stroke-dasharray:none;fill:none;fill-opacity:1;fill-rule: evenodd"/>
<path id="Shape2DView_nwe0003"  d="M 4.63 3.58561832426963e-15 A 0.45 0.45 0 0 1 5.08 -0.45" stroke="#191919" stroke-width="0.35 px" style="stroke-width:0.35;stroke-miterlimit:4;stroke-dasharray:none;fill:none;fill-opacity:1;fill-rule: evenodd"/>
<path id="Shape2DView_nwe0004"  d="M 5.080000002981063 -0.44999999999999646 A 0.45 0.45 0 1 1 4.63 3.69584e-15" stroke="#191919" stroke-width="0.35 px" style="stroke-width:0.35;stroke-miterlimit:4;stroke-dasharray:none;fill:none;fill-opacity:1;fill-rule: evenodd"/>
<path id="Shape2DView_nwe0006"  d="M 0.89999138261 -0.4499999999999963 A 0.45 4.308694782579693e-06 -90.0 0 1 0.89999138261 0.45000000000000373 " stroke="#191919" stroke-width="0.35 px" style="stroke-width:0.35;stroke-miterlimit:4;stroke-dasharray:none;fill:none;fill-opacity:1;fill-rule: evenodd"/>
<path id="Shape2DView_nwe0007"  d="M 4.18 0.45000000000000373 L 4.18 0.43871756048182436 L 4.18 0.4054359905560924 L 4.18 0.35182416711061726 L 4.18 0.2805704108364339 L 4.18 0.195247682602905 L 4.18 0.10013442028034536 L 4.18 3.885378540918881e-15 L 4.18 -0.1001344202803376 L 4.18 -0.1952476826028973 L 4.18 -0.28057041083642625 L 4.18 -0.3518241671106096 L 4.18 -0.4054359905560848 L 4.18 -0.4387175604818169 L 4.18 -0.4499999999999963 " stroke="#191919" stroke-width="0.35 px" style="stroke-width:0.35;stroke-miterlimit:4;stroke-dasharray:none;fill:none;fill-opacity:1;fill-rule: evenodd"/>
<path id="Shape2DView_nwe0008"  d="M 0.8999913826095651 -0.44999999999999624 Q 0.0800109455956543 -0.4499999999999963 1.432187701766452e-14 -0.44999999999999646 " stroke="#191919" stroke-width="0.35 px" style="stroke-width:0.35;stroke-miterlimit:4;stroke-dasharray:none;fill:none;fill-opacity:1;fill-rule: evenodd"/>
<path id="Shape2DView_nwe0009"  d="M 0.8999913826095651 0.4500000000000038 Q 0.08001094559641547 0.45000000000000384 -1.5432100042289676e-14 0.45000000000000356 " stroke="#191919" stroke-width="0.35 px" style="stroke-width:0.35;stroke-miterlimit:4;stroke-dasharray:none;fill:none;fill-opacity:1;fill-rule: evenodd"/>
<path id="Shape2DView_nwe0010"  d="M 0.8999913826085355 -0.4499999999999963 L 4.18 -0.4499999999999963 " stroke="#191919" stroke-width="0.35 px" style="stroke-width:0.35;stroke-miterlimit:4;stroke-dasharray:none;fill:none;fill-opacity:1;fill-rule: evenodd"/>
<path id="Shape2DView_nwe0011"  d="M 0.8999913826085355 0.45000000000000373 L 4.18 0.45000000000000373 " stroke="#191919" stroke-width="0.35 px" style="stroke-width:0.35;stroke-miterlimit:4;stroke-dasharray:none;fill:none;fill-opacity:1;fill-rule: evenodd"/>
<path id="Shape2DView_nwe0012"  d="M 4.18 0.4500000000000038 C 4.290438006784841 0.4500000000000036 4.400876013569689 0.45000000000000356 4.5113140203545345 0.4500000000000038 C 5.141901067594763 0.4499999999999997 5.087789577818766 0.45000000000001217 5.080000076650573 0.44999999999999707 " stroke="#191919" stroke-width="0.35 px" style="stroke-width:0.35;stroke-miterlimit:4;stroke-dasharray:none;fill:none;fill-opacity:1;fill-rule: evenodd"/>
<path id="Shape2DView_nwe0013"  d="M 4.18 -0.44999999999999624 Q 4.999915164308418 -0.4499999999999964 5.079999999979121 -0.44999999999999646 " stroke="#191919" stroke-width="0.35 px" style="stroke-width:0.35;stroke-miterlimit:4;stroke-dasharray:none;fill:none;fill-opacity:1;fill-rule: evenodd"/>
<path id="Shape2DView_nwe0014"  d="M 5.079999999979121 -0.44999999999999646 L 5.080000002981061 -0.44999999999999646 " stroke="#191919" stroke-width="0.35 px" style="stroke-width:0.35;stroke-miterlimit:4;stroke-dasharray:none;fill:none;fill-opacity:1;fill-rule: evenodd"/>
<title>b'Shape2DView'</title>
</g>
<g id="Rectangle" transform="translate(2.580285,2.570055) scale(1,-1)">
<rect fill="#ff0000" id="origin" width="1" height="1" x="0" y="0" />
<title>b'Rectangle'</title>
</g>
</svg>