<?xml version="1.0"?>
<!DOCTYPE svg PUBLIC "-//W3C//DTD SVG 1.1//EN" "http://www.w3.org/Graphics/SVG/1.1/DTD/svg11.dtd">
<svg width="7.830997068053007mm" height="4.6398335994217845mm" viewBox="0 0 7.830997068053007 4.6398335994217845" xmlns="http://www.w3.org/2000/svg" version="1.1">
<g id="Shape2DView" transform="translate(2.326774,2.319917) scale(1,-1)">
<path id="Shape2DView_nwe0000"  d="M 2.222611077089286 -0.349999999999997 A 2.25 2.25 0 1 0 2.22261 0.35" stroke="#191919" stroke-width="0.35 px" style="stroke-width:0.35;stroke-miterlimit:4;stroke-dasharray:none;fill:none;fill-opacity:1;fill-rule: evenodd"/>
<circle cx="0.0" cy="6.268500742937e-15" r="0.35" stroke="#191919" stroke-width="0.35 px" style="stroke-width:0.35;stroke-miterlimit:4;stroke-dasharray:none;fill:none"/>
<path id="Shape2DView_nwe0002"  d="M -1.1946772886474108e-14 0.35000000000000386 A 0.35 0.35 0 0 1 1.11268e-14 -0.35" stroke="#191919" stroke-width="0.35 px" style="stroke-width:0.35;stroke-miterlimit:4;stroke-dasharray:none;fill:none;fill-opacity:1;fill-rule: evenodd"/>
<path id="Shape2DView_nwe0003"  d="M 1.112675413126634e-14 -0.3499999999999961 A 0.35 0.35 0 0 1 0.000236877 -0.35" stroke="#191919" stroke-width="0.35 px" style="stroke-width:0.35;stroke-miterlimit:4;stroke-dasharray:none;fill:none;fill-opacity:1;fill-rule: evenodd"/>
<path id="Shape2DView_nwe0004"  d="M 5.0799999999999885 -0.3499999999999961 A 0.35 0.35 0 0 1 5.08 0.35" stroke="#191919" stroke-width="0.35 px" style="stroke-width:0.35;stroke-miterlimit:4;stroke-dasharray:none;fill:none;fill-opacity:1;fill-rule: evenodd"/>
<path id="Shape2DView_nwe0007"  d="M 0.700007874153 -0.3499999999999959 A 0.35 3.937076720225946e-06 90.0 0 0 0.700007874153 0.35000000000000403 " stroke="#191919" stroke-width="0.35 px" style="stroke-width:0.35;stroke-miterlimit:4;stroke-dasharray:none;fill:none;fill-opacity:1;fill-rule: evenodd"/>
<path id="Shape2DView_nwe0008"  d="M 4.38 0.35000000000000403 L 4.38 0.3412247692636423 L 4.38 0.3153391037658508 L 4.38 0.27364101886381453 L 4.38 0.21822143065056085 L 4.38 0.1518593086911495 L 4.38 0.07788232688471418 L 4.38 4.161790059329908e-15 L 4.38 -0.07788232688470588 L 4.38 -0.15185930869114117 L 4.38 -0.21822143065055255 L 4.38 -0.27364101886380626 L 4.38 -0.3153391037658425 L 4.38 -0.3412247692636342 L 4.38 -0.3499999999999959 " stroke="#191919" stroke-width="0.35 px" style="stroke-width:0.35;stroke-miterlimit:4;stroke-dasharray:none;fill:none;fill-opacity:1;fill-rule: evenodd"/>
<path id="Shape2DView_nwe0009"  d="M 0.7000078741525594 -0.3499999999999959 Q 0.620976772463784 -0.349999999999996 0.5419456707750088 -0.3499999999999959 Q 0.4794552236025442 -0.34999999999999587 0.4169647764300797 -0.34999999999999587 Q 0.019144992905097663 -0.349999999999996 1.1213252548714081e-14 -0.34999999999999604 " stroke="#191919" stroke-width="0.35 px" style="stroke-width:0.35;stroke-miterlimit:4;stroke-dasharray:none;fill:none;fill-opacity:1;fill-rule: evenodd"/>
<path id="Shape2DView_nwe0010"  d="M 0.7000078741525594 0.35000000000000403 Q 0.6183013128245043 0.3500000000000041 0.5365947514964492 0.3500000000000041 Q 0.45940315641656704 0.3500000000000041 0.3822115613366849 0.350000000000004 Q 0.015841255084196648 0.350000000000004 -1.199040866595169e-14 0.35000000000000386 " stroke="#191919" stroke-width="0.35 px" style="stroke-width:0.35;stroke-miterlimit:4;stroke-dasharray:none;fill:none;fill-opacity:1;fill-rule: evenodd"/>
<path id="Shape2DView_nwe0011"  d="M 0.7000078741543383 -0.3499999999999959 L 4.38 -0.3499999999999959 " stroke="#191919" stroke-width="0.35 px" style="stroke-width:0.35;stroke-miterlimit:4;stroke-dasharray:none;fill:none;fill-opacity:1;fill-rule: evenodd"/>
<path id="Shape2DView_nwe0012"  d="M 0.7000078741543383 0.35000000000000403 L 4.38 0.35000000000000403 " stroke="#191919" stroke-width="0.35 px" style="stroke-width:0.35;stroke-miterlimit:4;stroke-dasharray:none;fill:none;fill-opacity:1;fill-rule: evenodd"/>
<path id="Shape2DView_nwe0013"  d="M 4.38 0.35000000000000403 Q 5.01190930690354 0.350000000000004 5.080000000000012 0.35000000000000386 " stroke="#191919" stroke-width="0.35 px" style="stroke-width:0.35;stroke-miterlimit:4;stroke-dasharray:none;fill:none;fill-opacity:1;fill-rule: evenodd"/>
<path id="Shape2DView_nwe0014"  d="M 4.38 -0.3499999999999959 Q 5.017767897530819 -0.349999999999996 5.0799999999999885 -0.34999999999999604 " stroke="#191919" stroke-width="0.35 px" style="stroke-width:0.35;stroke-miterlimit:4;stroke-dasharray:none;fill:none;fill-opacity:1;fill-rule: evenodd"/>
<title>b'Shape2DView'</title>
</g>
<g id="Rectangle" transform="translate(2.326774,2.319917) scale(1,-1)">
<rect fill="#ff0000" id="origin" width="1" height="1" x="0" y="0" />
<title>b'Rectangle'</title>
</g>
</svg>