<?xml version="1.0"?>
<!DOCTYPE svg PUBLIC "-//W3C//DTD SVG 1.1//EN" "http://www.w3.org/Graphics/SVG/1.1/DTD/svg11.dtd">
<svg width="16.25497773214447mm" height="4.318725053573829mm" viewBox="0 0 16.25497773214447 4.318725053573829" xmlns="http://www.w3.org/2000/svg" version="1.1">
<g id="Shape2DView" transform="translate(0.506811,2.159363) scale(1,-1)">
<path id="Shape2DView_nwe0000"  d="M 3.0125 2.7311486405779002e-15 L 3.0125 -0.22392895220661313 L 3.0125 -0.44504186791262634 L 3.0125 -0.660558123910332 L 3.0125 -0.8677674782351141 L 3.0125 -1.0640641530306711 L 3.0125 -1.2469796037174654 L 3.0125 -1.4142135623730936 L 3.0125 -1.5636629649360585 L 3.0125 -1.6934483984565671 L 3.0125 -1.801937735804837 L 3.0125 -1.887766660616734 L 3.0125 -1.9498558243636461 L 3.0125 -1.987424419786484 L 3.0125 -1.9999999999999991 " stroke="#191919" stroke-width="0.35 px" style="stroke-width:0.35;stroke-miterlimit:4;stroke-dasharray:none;fill:none;fill-opacity:1;fill-rule: evenodd"/>
<path id="Shape2DView_nwe0001"  d="M 3.0125 2.000000000000001 L 3.0125 1.987424419786486 L 3.0125 1.9498558243636481 L 3.0125 1.8877666606167363 L 3.0125 1.8019377358048394 L 3.0125 1.6934483984565694 L 3.0125 1.5636629649360607 L 3.0125 1.4142135623730963 L 3.0125 1.2469796037174683 L 3.0125 1.0640641530306745 L 3.0125 0.8677674782351176 L 3.0125 0.6605581239103355 L 3.0125 0.4450418679126303 L 3.0125 0.22392895220661715 L 3.0125 3.2210073602368416e-15 " stroke="#191919" stroke-width="0.35 px" style="stroke-width:0.35;stroke-miterlimit:4;stroke-dasharray:none;fill:none;fill-opacity:1;fill-rule: evenodd"/>
<path id="Shape2DView_nwe0002"  d="M 2.87 1.748601263784475e-15 L 2.87 -0.058781349954234945 L 2.87 -0.11682349032706346 L 2.87 -0.17339650752646116 L 2.87 -0.22778896303671656 L 2.87 -0.27931684017055036 L 2.87 -0.3273321459758338 L 2.87 -0.3712310601229362 L 2.87 -0.41046152829571453 L 2.87 -0.44453020459484804 L 2.87 -0.473008655648769 L 2.87 -0.4955387484118919 L 2.87 -0.5118371538954565 L 2.87 -0.5216989101939514 L 2.87 -0.5249999999999991 " stroke="#191919" stroke-width="0.35 px" style="stroke-width:0.35;stroke-miterlimit:4;stroke-dasharray:none;fill:none;fill-opacity:1;fill-rule: evenodd"/>
<path id="Shape2DView_nwe0003"  d="M 2.87 0.5250000000000009 L 2.87 0.5216989101939533 L 2.87 0.5118371538954584 L 2.87 0.49553874841189394 L 2.87 0.473008655648771 L 2.87 0.44453020459485015 L 2.87 0.4104615282957166 L 2.87 0.3712310601229384 L 2.87 0.327332145975836 L 2.87 0.27931684017055264 L 2.87 0.22778896303671897 L 2.87 0.17339650752646366 L 2.87 0.116823490327066 L 2.87 0.05878134995423757 L 2.87 1.877189177694947e-15 " stroke="#191919" stroke-width="0.35 px" style="stroke-width:0.35;stroke-miterlimit:4;stroke-dasharray:none;fill:none;fill-opacity:1;fill-rule: evenodd"/>
<path id="Shape2DView_nwe0004"  d="M 3.3925 2.7311486405779002e-15 L 3.3925 -0.22392895220661313 L 3.3925 -0.44504186791262634 L 3.3925 -0.660558123910332 L 3.3925 -0.8677674782351141 L 3.3925 -1.0640641530306711 L 3.3925 -1.2469796037174654 L 3.3925 -1.4142135623730936 L 3.3925 -1.5636629649360585 L 3.3925 -1.6934483984565671 L 3.3925 -1.801937735804837 L 3.3925 -1.887766660616734 L 3.3925 -1.9498558243636461 L 3.3925 -1.987424419786484 L 3.3925 -1.9999999999999991 " stroke="#191919" stroke-width="0.35 px" style="stroke-width:0.35;stroke-miterlimit:4;stroke-dasharray:none;fill:none;fill-opacity:1;fill-rule: evenodd"/>
<path id="Shape2DView_nwe0005"  d="M 3.3925 2.000000000000001 L 3.3925 1.987424419786486 L 3.3925 1.9498558243636481 L 3.3925 1.8877666606167363 L 3.3925 1.8019377358048394 L 3.3925 1.6934483984565694 L 3.3925 1.5636629649360607 L 3.3925 1.4142135623730963 L 3.3925 1.2469796037174683 L 3.3925 1.0640641530306745 L 3.3925 0.8677674782351176 L 3.3925 0.6605581239103355 L 3.3925 0.4450418679126303 L 3.3925 0.22392895220661715 L 3.3925 3.2210073602368416e-15 " stroke="#191919" stroke-width="0.35 px" style="stroke-width:0.35;stroke-miterlimit:4;stroke-dasharray:none;fill:none;fill-opacity:1;fill-rule: evenodd"/>
<path id="Shape2DView_nwe0006"  d="M 3.5905 2.5729418595687325e-15 L 3.5905 -0.19733738913207763 L 3.5905 -0.3921931460980018 L 3.5905 -0.5821168466959799 L 3.5905 -0.7647200901946942 L 3.5905 -0.9377065348582787 L 3.5905 -1.098900775776016 L 3.5905 -1.2462757018412887 L 3.5905 -1.3779779878499012 L 3.5905 -1.4923514011398495 L 3.5905 -1.5879576296780125 L 3.5905 -1.663594369668497 L 3.5905 -1.718310445220463 L 3.5905 -1.751417769936839 L 3.5905 -1.762499999999999 " stroke="#191919" stroke-width="0.35 px" style="stroke-width:0.35;stroke-miterlimit:4;stroke-dasharray:none;fill:none;fill-opacity:1;fill-rule: evenodd"/>
<path id="Shape2DView_nwe0007"  d="M 3.5905 1.7625000000000008 L 3.5905 1.751417769936841 L 3.5905 1.718310445220465 L 3.5905 1.6635943696684987 L 3.5905 1.5879576296780147 L 3.5905 1.492351401139852 L 3.5905 1.3779779878499037 L 3.5905 1.246275701841291 L 3.5905 1.0989007757760192 L 3.5905 0.937706534858282 L 3.5905 0.7647200901946974 L 3.5905 0.5821168466959834 L 3.5905 0.3921931460980056 L 3.5905 0.19733738913208154 L 3.5905 3.0046298562681745e-15 " stroke="#191919" stroke-width="0.35 px" style="stroke-width:0.35;stroke-miterlimit:4;stroke-dasharray:none;fill:none;fill-opacity:1;fill-rule: evenodd"/>
<path id="Shape2DView_nwe0008"  d="M 4.318643181937 2.886579864025e-15 Q 4.318643181937 1.6058087836821764 4.318643181937 1.762499999737185 " stroke="#191919" stroke-width="0.35 px" style="stroke-width:0.35;stroke-miterlimit:4;stroke-dasharray:none;fill:none;fill-opacity:1;fill-rule: evenodd"/>
<path id="Shape2DView_nwe0009"  d="M 4.318643181937 -1.7624999999999194 Q 4.318643181937 -1.6058099117980966 4.318643181937 2.886579864025407e-15 " stroke="#191919" stroke-width="0.35 px" style="stroke-width:0.35;stroke-miterlimit:4;stroke-dasharray:none;fill:none;fill-opacity:1;fill-rule: evenodd"/>
<path id="Shape2DView_nwe0010"  d="M -1.1946772886474108e-14 0.35000000000000075 A 0.35 0.35 0 0 1 1.11268e-14 -0.35" stroke="#191919" stroke-width="0.35 px" style="stroke-width:0.35;stroke-miterlimit:4;stroke-dasharray:none;fill:none;fill-opacity:1;fill-rule: evenodd"/>
<path id="Shape2DView_nwe0011"  d="M 4.711356818063 2.886579864025e-15 Q 4.711356818063001 1.6058087836822474 4.711356818063 1.762499999737185 " stroke="#191919" stroke-width="0.35 px" style="stroke-width:0.35;stroke-miterlimit:4;stroke-dasharray:none;fill:none;fill-opacity:1;fill-rule: evenodd"/>
<path id="Shape2DView_nwe0012"  d="M 4.711356818063 -1.7624999999999194 Q 4.711356818063 -1.605809911798042 4.711356818063 2.886579864025407e-15 " stroke="#191919" stroke-width="0.35 px" style="stroke-width:0.35;stroke-miterlimit:4;stroke-dasharray:none;fill:none;fill-opacity:1;fill-rule: evenodd"/>
<path id="Shape2DView_nwe0013"  d="M 5.118643181937 2.886579864025e-15 Q 5.118643181937001 1.6058087836819237 5.118643181937 1.7624999997372215 " stroke="#191919" stroke-width="0.35 px" style="stroke-width:0.35;stroke-miterlimit:4;stroke-dasharray:none;fill:none;fill-opacity:1;fill-rule: evenodd"/>
<path id="Shape2DView_nwe0014"  d="M 5.118643181937 -1.7624999999999194 Q 5.118643181937 -1.6058099117980966 5.118643181937 2.886579864025407e-15 " stroke="#191919" stroke-width="0.35 px" style="stroke-width:0.35;stroke-miterlimit:4;stroke-dasharray:none;fill:none;fill-opacity:1;fill-rule: evenodd"/>
<path id="Shape2DView_nwe0015"  d="M 5.511356818063 2.886579864025e-15 Q 5.511356818063 1.6058087836820312 5.511356818063 1.762499999737185 " stroke="#191919" stroke-width="0.35 px" style="stroke-width:0.35;stroke-miterlimit:4;stroke-dasharray:none;fill:none;fill-opacity:1;fill-rule: evenodd"/>
<path id="Shape2DView_nwe0016"  d="M 5.511356818063 -1.7624999999999194 Q 5.511356818063001 -1.605809911798042 5.511356818063 2.886579864025407e-15 " stroke="#191919" stroke-width="0.35 px" style="stroke-width:0.35;stroke-miterlimit:4;stroke-dasharray:none;fill:none;fill-opacity:1;fill-rule: evenodd"/>
<path id="Shape2DView_nwe0017"  d="M 5.918643181937 2.886579864025e-15 Q 5.918643181937 1.6058087836822466 5.918643181937 1.762499999737185 " stroke="#191919" stroke-width="0.35 px" style="stroke-width:0.35;stroke-miterlimit:4;stroke-dasharray:none;fill:none;fill-opacity:1;fill-rule: evenodd"/>
<path id="Shape2DView_nwe0018"  d="M 5.918643181936997 -1.7624999999999194 Q 5.918643181937003 -1.6058099117980966 5.918643181937 2.886579864025407e-15 " stroke="#191919" stroke-width="0.35 px" style="stroke-width:0.35;stroke-miterlimit:4;stroke-dasharray:none;fill:none;fill-opacity:1;fill-rule: evenodd"/>
<path id="Shape2DView_nwe0019"  d="M 6.311356818063 2.886579864025e-15 Q 6.311356818063 1.6058087836820507 6.311356818063 1.762499999737185 " stroke="#191919" stroke-width="0.35 px" style="stroke-width:0.35;stroke-miterlimit:4;stroke-dasharray:none;fill:none;fill-opacity:1;fill-rule: evenodd"/>
<path id="Shape2DView_nwe0020"  d="M 6.311356818063 -1.7624999999999194 Q 6.3113568180629995 -1.605809911798042 6.311356818063 2.886579864025407e-15 " stroke="#191919" stroke-width="0.35 px" style="stroke-width:0.35;stroke-miterlimit:4;stroke-dasharray:none;fill:none;fill-opacity:1;fill-rule: evenodd"/>
<path id="Shape2DView_nwe0021"  d="M 6.718643181937 2.886579864025e-15 Q 6.718643181936999 1.6058087836818857 6.718643181937 1.7624999997372217 " stroke="#191919" stroke-width="0.35 px" style="stroke-width:0.35;stroke-miterlimit:4;stroke-dasharray:none;fill:none;fill-opacity:1;fill-rule: evenodd"/>
<path id="Shape2DView_nwe0022"  d="M 6.718643181937 -1.7624999999999194 Q 6.718643181937 -1.6058099117980966 6.718643181937 2.886579864025407e-15 " stroke="#191919" stroke-width="0.35 px" style="stroke-width:0.35;stroke-miterlimit:4;stroke-dasharray:none;fill:none;fill-opacity:1;fill-rule: evenodd"/>
<path id="Shape2DView_nwe0023"  d="M 7.111356818063 2.886579864025e-15 Q 7.111356818063003 1.6058087836818165 7.1113568180629985 1.7624999997372217 " stroke="#191919" stroke-width="0.35 px" style="stroke-width:0.35;stroke-miterlimit:4;stroke-dasharray:none;fill:none;fill-opacity:1;fill-rule: evenodd"/>
<path id="Shape2DView_nwe0024"  d="M 7.111356818062998 -1.7624999999999194 Q 7.111356818063002 -1.6058099117980966 7.111356818063 2.886579864025407e-15 " stroke="#191919" stroke-width="0.35 px" style="stroke-width:0.35;stroke-miterlimit:4;stroke-dasharray:none;fill:none;fill-opacity:1;fill-rule: evenodd"/>
<path id="Shape2DView_nwe0025"  d="M 7.518643181937 2.886579864025e-15 Q 7.518643181936999 1.6058087836823172 7.518643181937 1.762499999737185 " stroke="#191919" stroke-width="0.35 px" style="stroke-width:0.35;stroke-miterlimit:4;stroke-dasharray:none;fill:none;fill-opacity:1;fill-rule: evenodd"/>
<path id="Shape2DView_nwe0026"  d="M 7.518643181937 -1.7624999999999194 Q 7.518643181936999 -1.605809911798042 7.518643181937 2.886579864025407e-15 " stroke="#191919" stroke-width="0.35 px" style="stroke-width:0.35;stroke-miterlimit:4;stroke-dasharray:none;fill:none;fill-opacity:1;fill-rule: evenodd"/>
<path id="Shape2DView_nwe0027"  d="M 7.911356818063 2.886579864025e-15 Q 7.911356818063001 1.605808783682375 7.911356818063 1.762499999737185 " stroke="#191919" stroke-width="0.35 px" style="stroke-width:0.35;stroke-miterlimit:4;stroke-dasharray:none;fill:none;fill-opacity:1;fill-rule: evenodd"/>
<path id="Shape2DView_nwe0028"  d="M 7.911356818063 -1.7624999999999194 Q 7.911356818063001 -1.605809911798042 7.911356818063 2.886579864025407e-15 " stroke="#191919" stroke-width="0.35 px" style="stroke-width:0.35;stroke-miterlimit:4;stroke-dasharray:none;fill:none;fill-opacity:1;fill-rule: evenodd"/>
<path id="Shape2DView_nwe0029"  d="M 8.318643181937 2.886579864025e-15 Q 8.318643181937002 1.6058087836821764 8.318643181937 1.762499999737185 " stroke="#191919" stroke-width="0.35 px" style="stroke-width:0.35;stroke-miterlimit:4;stroke-dasharray:none;fill:none;fill-opacity:1;fill-rule: evenodd"/>
<path id="Shape2DView_nwe0030"  d="M 8.318643181937 -1.7624999999999194 Q 8.318643181937002 -1.6058099117980966 8.318643181937 2.886579864025407e-15 " stroke="#191919" stroke-width="0.35 px" style="stroke-width:0.35;stroke-miterlimit:4;stroke-dasharray:none;fill:none;fill-opacity:1;fill-rule: evenodd"/>
<path id="Shape2DView_nwe0031"  d="M 8.711356818063 2.886579864025e-15 Q 8.711356818062999 1.6058087836820312 8.711356818063 1.762499999737185 " stroke="#191919" stroke-width="0.35 px" style="stroke-width:0.35;stroke-miterlimit:4;stroke-dasharray:none;fill:none;fill-opacity:1;fill-rule: evenodd"/>
<path id="Shape2DView_nwe0032"  d="M 8.711356818063 -1.7624999999999194 Q 8.711356818062999 -1.6058099117980966 8.711356818063 2.886579864025407e-15 " stroke="#191919" stroke-width="0.35 px" style="stroke-width:0.35;stroke-miterlimit:4;stroke-dasharray:none;fill:none;fill-opacity:1;fill-rule: evenodd"/>
<path id="Shape2DView_nwe0033"  d="M 9.118643181937 2.886579864025e-15 Q 9.118643181937 1.6058087836822137 9.118643181937 1.762499999737185 " stroke="#191919" stroke-width="0.35 px" style="stroke-width:0.35;stroke-miterlimit:4;stroke-dasharray:none;fill:none;fill-opacity:1;fill-rule: evenodd"/>
<path id="Shape2DView_nwe0034"  d="M 9.118643181937 -1.7624999999999194 Q 9.118643181937 -1.6058099117980966 9.118643181937 2.886579864025407e-15 " stroke="#191919" stroke-width="0.35 px" style="stroke-width:0.35;stroke-miterlimit:4;stroke-dasharray:none;fill:none;fill-opacity:1;fill-rule: evenodd"/>
<path id="Shape2DView_nwe0035"  d="M 9.511356818063 2.886579864025e-15 Q 9.511356818063 1.6058087836820507 9.511356818063 1.762499999737185 " stroke="#191919" stroke-width="0.35 px" style="stroke-width:0.35;stroke-miterlimit:4;stroke-dasharray:none;fill:none;fill-opacity:1;fill-rule: evenodd"/>
<path id="Shape2DView_nwe0036"  d="M 9.511356818063 -1.7624999999999194 Q 9.511356818063 -1.605809911798042 9.511356818063 2.886579864025407e-15 " stroke="#191919" stroke-width="0.35 px" style="stroke-width:0.35;stroke-miterlimit:4;stroke-dasharray:none;fill:none;fill-opacity:1;fill-rule: evenodd"/>
<path id="Shape2DView_nwe0037"  d="M 9.918643181937 2.886579864025e-15 Q 9.918643181937 1.6058087836816894 9.918643181937 1.7624999997372217 " stroke="#191919" stroke-width="0.35 px" style="stroke-width:0.35;stroke-miterlimit:4;stroke-dasharray:none;fill:none;fill-opacity:1;fill-rule: evenodd"/>
<path id="Shape2DView_nwe0038"  d="M 9.918643181937 -1.7624999999999194 Q 9.918643181937 -1.6058099117980966 9.918643181937 2.886579864025407e-15 " stroke="#191919" stroke-width="0.35 px" style="stroke-width:0.35;stroke-miterlimit:4;stroke-dasharray:none;fill:none;fill-opacity:1;fill-rule: evenodd"/>
<path id="Shape2DView_nwe0039"  d="M 10.311356818063 2.886579864025e-15 Q 10.311356818063 1.6058087836818866 10.311356818063 1.7624999997372217 " stroke="#191919" stroke-width="0.35 px" style="stroke-width:0.35;stroke-miterlimit:4;stroke-dasharray:none;fill:none;fill-opacity:1;fill-rule: evenodd"/>
<path id="Shape2DView_nwe0040"  d="M 10.311356818063 -1.7624999999999194 Q 10.311356818063 -1.6058099117980966 10.311356818063 2.886579864025407e-15 " stroke="#191919" stroke-width="0.35 px" style="stroke-width:0.35;stroke-miterlimit:4;stroke-dasharray:none;fill:none;fill-opacity:1;fill-rule: evenodd"/>
<path id="Shape2DView_nwe0041"  d="M 10.718643181937 2.886579864025e-15 Q 10.718643181937002 1.6058087836818857 10.718643181937 1.7624999997372217 " stroke="#191919" stroke-width="0.35 px" style="stroke-width:0.35;stroke-miterlimit:4;stroke-dasharray:none;fill:none;fill-opacity:1;fill-rule: evenodd"/>
<path id="Shape2DView_nwe0042"  d="M 10.718643181936995 -1.7624999999999194 Q 10.718643181937004 -1.6058099117980966 10.718643181937 2.886579864025407e-15 " stroke="#191919" stroke-width="0.35 px" style="stroke-width:0.35;stroke-miterlimit:4;stroke-dasharray:none;fill:none;fill-opacity:1;fill-rule: evenodd"/>
<path id="Shape2DView_nwe0043"  d="M 11.111356818063 2.886579864025e-15 Q 11.111356818062998 1.6058087836817783 11.111356818063003 1.762499999737222 " stroke="#191919" stroke-width="0.35 px" style="stroke-width:0.35;stroke-miterlimit:4;stroke-dasharray:none;fill:none;fill-opacity:1;fill-rule: evenodd"/>
<path id="Shape2DView_nwe0044"  d="M 11.111356818063 -1.7624999999999194 Q 11.111356818063001 -1.6058099117980966 11.111356818063 2.886579864025407e-15 " stroke="#191919" stroke-width="0.35 px" style="stroke-width:0.35;stroke-miterlimit:4;stroke-dasharray:none;fill:none;fill-opacity:1;fill-rule: evenodd"/>
<path id="Shape2DView_nwe0045"  d="M 11.6575 2.5729418595687325e-15 L 11.6575 -0.19733738913207763 L 11.6575 -0.3921931460980018 L 11.6575 -0.5821168466959799 L 11.6575 -0.7647200901946942 L 11.6575 -0.9377065348582787 L 11.6575 -1.098900775776016 L 11.6575 -1.2462757018412887 L 11.6575 -1.3779779878499012 L 11.6575 -1.4923514011398495 L 11.6575 -1.5879576296780125 L 11.6575 -1.663594369668497 L 11.6575 -1.718310445220463 L 11.6575 -1.751417769936839 L 11.6575 -1.762499999999999 " stroke="#191919" stroke-width="0.35 px" style="stroke-width:0.35;stroke-miterlimit:4;stroke-dasharray:none;fill:none;fill-opacity:1;fill-rule: evenodd"/>
<path id="Shape2DView_nwe0046"  d="M 11.6575 1.7625000000000008 L 11.6575 1.751417769936841 L 11.6575 1.718310445220465 L 11.6575 1.6635943696684987 L 11.6575 1.5879576296780147 L 11.6575 1.492351401139852 L 11.6575 1.3779779878499037 L 11.6575 1.246275701841291 L 11.6575 1.0989007757760192 L 11.6575 0.937706534858282 L 11.6575 0.7647200901946974 L 11.6575 0.5821168466959834 L 11.6575 0.3921931460980056 L 11.6575 0.19733738913208154 L 11.6575 3.0046298562681745e-15 " stroke="#191919" stroke-width="0.35 px" style="stroke-width:0.35;stroke-miterlimit:4;stroke-dasharray:none;fill:none;fill-opacity:1;fill-rule: evenodd"/>
<path id="Shape2DView_nwe0047"  d="M 11.8475 2.7311486405779002e-15 L 11.8475 -0.22392895220661313 L 11.8475 -0.44504186791262634 L 11.8475 -0.660558123910332 L 11.8475 -0.8677674782351141 L 11.8475 -1.0640641530306711 L 11.8475 -1.2469796037174654 L 11.8475 -1.4142135623730936 L 11.8475 -1.5636629649360585 L 11.8475 -1.6934483984565671 L 11.8475 -1.801937735804837 L 11.8475 -1.887766660616734 L 11.8475 -1.9498558243636461 L 11.8475 -1.987424419786484 L 11.8475 -1.9999999999999991 " stroke="#191919" stroke-width="0.35 px" style="stroke-width:0.35;stroke-miterlimit:4;stroke-dasharray:none;fill:none;fill-opacity:1;fill-rule: evenodd"/>
<path id="Shape2DView_nwe0048"  d="M 11.8475 2.000000000000001 L 11.8475 1.987424419786486 L 11.8475 1.9498558243636481 L 11.8475 1.8877666606167363 L 11.8475 1.8019377358048394 L 11.8475 1.6934483984565694 L 11.8475 1.5636629649360607 L 11.8475 1.4142135623730963 L 11.8475 1.2469796037174683 L 11.8475 1.0640641530306745 L 11.8475 0.8677674782351176 L 11.8475 0.6605581239103355 L 11.8475 0.4450418679126303 L 11.8475 0.22392895220661715 L 11.8475 3.2210073602368416e-15 " stroke="#191919" stroke-width="0.35 px" style="stroke-width:0.35;stroke-miterlimit:4;stroke-dasharray:none;fill:none;fill-opacity:1;fill-rule: evenodd"/>
<path id="Shape2DView_nwe0049"  d="M 12.2275 2.7311486405779002e-15 L 12.2275 -0.22392895220661313 L 12.2275 -0.44504186791262634 L 12.2275 -0.660558123910332 L 12.2275 -0.8677674782351141 L 12.2275 -1.0640641530306711 L 12.2275 -1.2469796037174654 L 12.2275 -1.4142135623730936 L 12.2275 -1.5636629649360585 L 12.2275 -1.6934483984565671 L 12.2275 -1.801937735804837 L 12.2275 -1.887766660616734 L 12.2275 -1.9498558243636461 L 12.2275 -1.987424419786484 L 12.2275 -1.9999999999999991 " stroke="#191919" stroke-width="0.35 px" style="stroke-width:0.35;stroke-miterlimit:4;stroke-dasharray:none;fill:none;fill-opacity:1;fill-rule: evenodd"/>
<path id="Shape2DView_nwe0050"  d="M 12.2275 2.000000000000001 L 12.2275 1.987424419786486 L 12.2275 1.9498558243636481 L 12.2275 1.8877666606167363 L 12.2275 1.8019377358048394 L 12.2275 1.6934483984565694 L 12.2275 1.5636629649360607 L 12.2275 1.4142135623730963 L 12.2275 1.2469796037174683 L 12.2275 1.0640641530306745 L 12.2275 0.8677674782351176 L 12.2275 0.6605581239103355 L 12.2275 0.4450418679126303 L 12.2275 0.22392895220661715 L 12.2275 3.2210073602368416e-15 " stroke="#191919" stroke-width="0.35 px" style="stroke-width:0.35;stroke-miterlimit:4;stroke-dasharray:none;fill:none;fill-opacity:1;fill-rule: evenodd"/>
<path id="Shape2DView_nwe0051"  d="M 12.37 1.748601263784475e-15 L 12.37 -0.058781349954234945 L 12.37 -0.11682349032706346 L 12.37 -0.17339650752646116 L 12.37 -0.22778896303671656 L 12.37 -0.27931684017055036 L 12.37 -0.3273321459758338 L 12.37 -0.3712310601229362 L 12.37 -0.41046152829571453 L 12.37 -0.44453020459484804 L 12.37 -0.473008655648769 L 12.37 -0.4955387484118919 L 12.37 -0.5118371538954565 L 12.37 -0.5216989101939514 L 12.37 -0.5249999999999991 " stroke="#191919" stroke-width="0.35 px" style="stroke-width:0.35;stroke-miterlimit:4;stroke-dasharray:none;fill:none;fill-opacity:1;fill-rule: evenodd"/>
<path id="Shape2DView_nwe0052"  d="M 12.37 0.5250000000000009 L 12.37 0.5216989101939533 L 12.37 0.5118371538954584 L 12.37 0.49553874841189394 L 12.37 0.473008655648771 L 12.37 0.44453020459485015 L 12.37 0.4104615282957166 L 12.37 0.3712310601229384 L 12.37 0.327332145975836 L 12.37 0.27931684017055264 L 12.37 0.22778896303671897 L 12.37 0.17339650752646366 L 12.37 0.116823490327066 L 12.37 0.05878134995423757 L 12.37 1.877189177694947e-15 " stroke="#191919" stroke-width="0.35 px" style="stroke-width:0.35;stroke-miterlimit:4;stroke-dasharray:none;fill:none;fill-opacity:1;fill-rule: evenodd"/>
<path id="Shape2DView_nwe0053"  d="M 15.240000001528415 -0.3499999999999992 A 0.35 0.35 0 1 1 14.89 8.8354e-16" stroke="#191919" stroke-width="0.35 px" style="stroke-width:0.35;stroke-miterlimit:4;stroke-dasharray:none;fill:none;fill-opacity:1;fill-rule: evenodd"/>
<path id="Shape2DView_nwe0054"  d="M 0.6999904956789991 -0.3499999999999991 A 0.35 4.752160690608665e-06 -90.0 0 1 0.6999904956789991 0.35000000000000087 " stroke="#191919" stroke-width="0.35 px" style="stroke-width:0.35;stroke-miterlimit:4;stroke-dasharray:none;fill:none;fill-opacity:1;fill-rule: evenodd"/>
<path id="Shape2DView_nwe0055"  d="M 14.54 0.35000000000000087 L 14.54 0.34122476926363915 L 14.54 0.3153391037658476 L 14.54 0.27364101886381137 L 14.54 0.2182214306505577 L 14.54 0.15185930869114636 L 14.54 0.07788232688471106 L 14.54 1.0309611298865075e-15 L 14.54 -0.077882326884709 L 14.54 -0.1518593086911443 L 14.54 -0.2182214306505557 L 14.54 -0.2736410188638094 L 14.54 -0.3153391037658457 L 14.54 -0.3412247692636374 L 14.54 -0.3499999999999991 " stroke="#191919" stroke-width="0.35 px" style="stroke-width:0.35;stroke-miterlimit:4;stroke-dasharray:none;fill:none;fill-opacity:1;fill-rule: evenodd"/>
<path id="Shape2DView_nwe0056"  d="M 3.0125000000074635 2.7311486405690003e-15 L 3.0020006765501535 2.6609875292305486e-15 L 2.9915506905064433 2.5908231495125644e-15 L 2.9811500441691976 2.5206555168100408e-15 L 2.970798739820424 2.450484646518668e-15 L 2.9604967797314146 2.3803105540348588e-15 L 2.950244166162463 2.3101332547557234e-15 L 2.940040901363176 2.239952764079079e-15 L 2.929886987572303 2.1697690974034524e-15 L 2.9197824270176795 2.0995822701280523e-15 L 2.9097272219164267 2.029392297652791e-15 L 2.899721374474808 1.9591991953782652e-15 L 2.889764886888173 1.8890029787057632e-15 L 2.8798577613411567 1.8188036630372514e-15 L 2.8700000000075647 1.74860126377578e-15 " stroke="#191919" stroke-width="0.35 px" style="stroke-width:0.35;stroke-miterlimit:4;stroke-dasharray:none;fill:none;fill-opacity:1;fill-rule: evenodd"/>
<path id="Shape2DView_nwe0057"  d="M 3.0125 2.731148640578e-15 L 3.3925 2.731148640578e-15 " stroke="#191919" stroke-width="0.35 px" style="stroke-width:0.35;stroke-miterlimit:4;stroke-dasharray:none;fill:none;fill-opacity:1;fill-rule: evenodd"/>
<path id="Shape2DView_nwe0058"  d="M 3.392500000000015 2.7311486405775882e-15 L 3.4032696361663506 2.7181870539216633e-15 L 3.414601688553174 2.7054400167241565e-15 L 3.4264865331226546 2.6929183547352515e-15 L 3.4389140763639414 2.6806327022994225e-15 L 3.4518737638653345 2.668593493323942e-15 L 3.465354589277893 2.6568109524176154e-15 L 3.4793451036628626 2.6452950862072703e-15 L 3.4938334252149783 2.6340556748393674e-15 L 3.5088072493533975 2.6231022636739626e-15 L 3.5242538591716803 2.6124441551780597e-15 L 3.5401601362379522 2.602090401025254e-15 L 3.5565125717360697 2.5920497944083622e-15 L 3.573297277938332 2.5823308625715774e-15 L 3.59049999999999 2.5729418595684888e-15 " stroke="#191919" stroke-width="0.35 px" style="stroke-width:0.35;stroke-miterlimit:4;stroke-dasharray:none;fill:none;fill-opacity:1;fill-rule: evenodd"/>
<path id="Shape2DView_nwe0059"  d="M 3.5905 2.572941859569e-15 L 4.318643181937 2.572941859569e-15 " stroke="#191919" stroke-width="0.35 px" style="stroke-width:0.35;stroke-miterlimit:4;stroke-dasharray:none;fill:none;fill-opacity:1;fill-rule: evenodd"/>
<path id="Shape2DView_nwe0060"  d="M 4.711356818063426 2.5729418595685085e-15 L 4.70011438685782 2.5980646677269835e-15 L 4.681704488824359 2.6212346423050604e-15 L 4.656839939080758 2.64155466219287e-15 L 4.6264834712021985 2.658237954028497e-15 L 4.591810461021017 2.6706385553730344e-15 L 4.554163417104557 2.67827632581011e-15 L 4.515 2.68085553756202e-15 L 4.475836582895442 2.67827632581011e-15 L 4.438189538978983 2.6706385553730344e-15 L 4.403516528797801 2.658237954028497e-15 L 4.373160060919242 2.6415546621928705e-15 L 4.348295511175642 2.6212346423050604e-15 L 4.32988561314218 2.5980646677269835e-15 L 4.318643181936573 2.572941859568509e-15 " stroke="#191919" stroke-width="0.35 px" style="stroke-width:0.35;stroke-miterlimit:4;stroke-dasharray:none;fill:none;fill-opacity:1;fill-rule: evenodd"/>
<path id="Shape2DView_nwe0061"  d="M 4.711356818063 2.572941859569e-15 L 5.118643181937 2.572941859569e-15 " stroke="#191919" stroke-width="0.35 px" style="stroke-width:0.35;stroke-miterlimit:4;stroke-dasharray:none;fill:none;fill-opacity:1;fill-rule: evenodd"/>
<path id="Shape2DView_nwe0062"  d="M 5.511356818063427 2.572941859568509e-15 L 5.50011438685782 2.5980646677269835e-15 L 5.4817044888243585 2.6212346423050604e-15 L 5.4568399390807585 2.6415546621928705e-15 L 5.426483471202199 2.658237954028497e-15 L 5.391810461021017 2.6706385553730344e-15 L 5.354163417104558 2.67827632581011e-15 L 5.315 2.68085553756202e-15 L 5.275836582895443 2.67827632581011e-15 L 5.238189538978983 2.6706385553730344e-15 L 5.203516528797802 2.658237954028497e-15 L 5.173160060919242 2.6415546621928705e-15 L 5.148295511175642 2.6212346423050604e-15 L 5.12988561314218 2.5980646677269835e-15 L 5.118643181936574 2.5729418595685085e-15 " stroke="#191919" stroke-width="0.35 px" style="stroke-width:0.35;stroke-miterlimit:4;stroke-dasharray:none;fill:none;fill-opacity:1;fill-rule: evenodd"/>
<path id="Shape2DView_nwe0063"  d="M 5.511356818063 2.572941859569e-15 L 5.918643181937 2.572941859569e-15 " stroke="#191919" stroke-width="0.35 px" style="stroke-width:0.35;stroke-miterlimit:4;stroke-dasharray:none;fill:none;fill-opacity:1;fill-rule: evenodd"/>
<path id="Shape2DView_nwe0064"  d="M 6.311356818063427 2.5729418595685085e-15 L 6.30011438685782 2.5980646677269835e-15 L 6.281704488824358 2.6212346423050604e-15 L 6.256839939080758 2.64155466219287e-15 L 6.226483471202199 2.658237954028497e-15 L 6.191810461021017 2.6706385553730344e-15 L 6.154163417104558 2.67827632581011e-15 L 6.115 2.68085553756202e-15 L 6.075836582895443 2.67827632581011e-15 L 6.038189538978983 2.6706385553730344e-15 L 6.003516528797801 2.658237954028497e-15 L 5.973160060919242 2.6415546621928705e-15 L 5.948295511175642 2.6212346423050604e-15 L 5.92988561314218 2.5980646677269835e-15 L 5.918643181936574 2.5729418595685085e-15 " stroke="#191919" stroke-width="0.35 px" style="stroke-width:0.35;stroke-miterlimit:4;stroke-dasharray:none;fill:none;fill-opacity:1;fill-rule: evenodd"/>
<path id="Shape2DView_nwe0065"  d="M 6.311356818063 2.572941859569e-15 L 6.718643181937 2.572941859569e-15 " stroke="#191919" stroke-width="0.35 px" style="stroke-width:0.35;stroke-miterlimit:4;stroke-dasharray:none;fill:none;fill-opacity:1;fill-rule: evenodd"/>
<path id="Shape2DView_nwe0066"  d="M 7.111356818063427 2.5729418595685085e-15 L 7.10011438685782 2.5980646677269835e-15 L 7.081704488824359 2.6212346423050604e-15 L 7.056839939080758 2.64155466219287e-15 L 7.026483471202199 2.658237954028497e-15 L 6.991810461021017 2.6706385553730344e-15 L 6.954163417104557 2.67827632581011e-15 L 6.915 2.68085553756202e-15 L 6.875836582895443 2.67827632581011e-15 L 6.838189538978983 2.6706385553730344e-15 L 6.803516528797801 2.658237954028497e-15 L 6.773160060919242 2.6415546621928705e-15 L 6.748295511175641 2.6212346423050604e-15 L 6.72988561314218 2.5980646677269835e-15 L 6.7186431819365735 2.5729418595685085e-15 " stroke="#191919" stroke-width="0.35 px" style="stroke-width:0.35;stroke-miterlimit:4;stroke-dasharray:none;fill:none;fill-opacity:1;fill-rule: evenodd"/>
<path id="Shape2DView_nwe0067"  d="M 7.111356818063 2.572941859569e-15 L 7.518643181937 2.572941859569e-15 " stroke="#191919" stroke-width="0.35 px" style="stroke-width:0.35;stroke-miterlimit:4;stroke-dasharray:none;fill:none;fill-opacity:1;fill-rule: evenodd"/>
<path id="Shape2DView_nwe0068"  d="M 7.911356818063426 2.5729418595685085e-15 L 7.90011438685782 2.5980646677269835e-15 L 7.881704488824358 2.6212346423050604e-15 L 7.856839939080758 2.64155466219287e-15 L 7.826483471202199 2.658237954028497e-15 L 7.791810461021017 2.6706385553730344e-15 L 7.754163417104557 2.67827632581011e-15 L 7.715 2.68085553756202e-15 L 7.6758365828954425 2.67827632581011e-15 L 7.638189538978983 2.6706385553730344e-15 L 7.603516528797801 2.658237954028497e-15 L 7.573160060919242 2.6415546621928705e-15 L 7.548295511175642 2.6212346423050604e-15 L 7.52988561314218 2.5980646677269835e-15 L 7.518643181936573 2.5729418595685085e-15 " stroke="#191919" stroke-width="0.35 px" style="stroke-width:0.35;stroke-miterlimit:4;stroke-dasharray:none;fill:none;fill-opacity:1;fill-rule: evenodd"/>
<path id="Shape2DView_nwe0069"  d="M 7.911356818063 2.572941859569e-15 L 8.318643181937 2.572941859569e-15 " stroke="#191919" stroke-width="0.35 px" style="stroke-width:0.35;stroke-miterlimit:4;stroke-dasharray:none;fill:none;fill-opacity:1;fill-rule: evenodd"/>
<path id="Shape2DView_nwe0070"  d="M 8.711356818063427 2.5729418595685085e-15 L 8.700114386857821 2.5980646677269835e-15 L 8.681704488824359 2.6212346423050604e-15 L 8.65683993908076 2.64155466219287e-15 L 8.6264834712022 2.658237954028497e-15 L 8.591810461021018 2.6706385553730344e-15 L 8.554163417104558 2.67827632581011e-15 L 8.515 2.68085553756202e-15 L 8.475836582895443 2.67827632581011e-15 L 8.438189538978984 2.6706385553730344e-15 L 8.403516528797802 2.658237954028497e-15 L 8.373160060919242 2.6415546621928705e-15 L 8.348295511175643 2.6212346423050604e-15 L 8.32988561314218 2.5980646677269835e-15 L 8.318643181936574 2.5729418595685085e-15 " stroke="#191919" stroke-width="0.35 px" style="stroke-width:0.35;stroke-miterlimit:4;stroke-dasharray:none;fill:none;fill-opacity:1;fill-rule: evenodd"/>
<path id="Shape2DView_nwe0071"  d="M 8.711356818063 2.572941859569e-15 L 9.118643181937 2.572941859569e-15 " stroke="#191919" stroke-width="0.35 px" style="stroke-width:0.35;stroke-miterlimit:4;stroke-dasharray:none;fill:none;fill-opacity:1;fill-rule: evenodd"/>
<path id="Shape2DView_nwe0072"  d="M 9.511356818063426 2.5729418595685085e-15 L 9.50011438685782 2.5980646677269835e-15 L 9.481704488824358 2.6212346423050604e-15 L 9.456839939080758 2.64155466219287e-15 L 9.426483471202198 2.658237954028497e-15 L 9.391810461021016 2.6706385553730344e-15 L 9.354163417104557 2.67827632581011e-15 L 9.315 2.68085553756202e-15 L 9.275836582895442 2.67827632581011e-15 L 9.238189538978983 2.6706385553730344e-15 L 9.2035165287978 2.658237954028497e-15 L 9.17316006091924 2.6415546621928705e-15 L 9.148295511175641 2.6212346423050604e-15 L 9.129885613142179 2.5980646677269835e-15 L 9.118643181936573 2.5729418595685085e-15 " stroke="#191919" stroke-width="0.35 px" style="stroke-width:0.35;stroke-miterlimit:4;stroke-dasharray:none;fill:none;fill-opacity:1;fill-rule: evenodd"/>
<path id="Shape2DView_nwe0073"  d="M 9.511356818063 2.572941859569e-15 L 9.918643181937 2.572941859569e-15 " stroke="#191919" stroke-width="0.35 px" style="stroke-width:0.35;stroke-miterlimit:4;stroke-dasharray:none;fill:none;fill-opacity:1;fill-rule: evenodd"/>
<path id="Shape2DView_nwe0074"  d="M 10.311356818063427 2.5729418595685085e-15 L 10.300114386857821 2.5980646677269835e-15 L 10.281704488824358 2.6212346423050604e-15 L 10.25683993908076 2.64155466219287e-15 L 10.226483471202199 2.658237954028497e-15 L 10.191810461021017 2.6706385553730344e-15 L 10.154163417104558 2.67827632581011e-15 L 10.115 2.68085553756202e-15 L 10.075836582895443 2.67827632581011e-15 L 10.038189538978983 2.6706385553730344e-15 L 10.003516528797801 2.658237954028497e-15 L 9.973160060919241 2.6415546621928705e-15 L 9.948295511175642 2.6212346423050604e-15 L 9.92988561314218 2.5980646677269835e-15 L 9.918643181936574 2.5729418595685085e-15 " stroke="#191919" stroke-width="0.35 px" style="stroke-width:0.35;stroke-miterlimit:4;stroke-dasharray:none;fill:none;fill-opacity:1;fill-rule: evenodd"/>
<path id="Shape2DView_nwe0075"  d="M 10.311356818063 2.572941859569e-15 L 10.718643181937 2.572941859569e-15 " stroke="#191919" stroke-width="0.35 px" style="stroke-width:0.35;stroke-miterlimit:4;stroke-dasharray:none;fill:none;fill-opacity:1;fill-rule: evenodd"/>
<path id="Shape2DView_nwe0076"  d="M 11.111356818063426 2.5729418595685085e-15 L 11.10011438685782 2.5980646677269835e-15 L 11.081704488824357 2.6212346423050604e-15 L 11.056839939080758 2.64155466219287e-15 L 11.026483471202198 2.658237954028497e-15 L 10.991810461021016 2.6706385553730344e-15 L 10.954163417104557 2.67827632581011e-15 L 10.915 2.68085553756202e-15 L 10.875836582895442 2.67827632581011e-15 L 10.838189538978982 2.6706385553730344e-15 L 10.8035165287978 2.658237954028497e-15 L 10.77316006091924 2.6415546621928705e-15 L 10.748295511175641 2.6212346423050604e-15 L 10.72988561314218 2.5980646677269835e-15 L 10.718643181936573 2.572941859568509e-15 " stroke="#191919" stroke-width="0.35 px" style="stroke-width:0.35;stroke-miterlimit:4;stroke-dasharray:none;fill:none;fill-opacity:1;fill-rule: evenodd"/>
<path id="Shape2DView_nwe0077"  d="M 11.111356818063 2.572941859569e-15 L 11.6575 2.572941859569e-15 " stroke="#191919" stroke-width="0.35 px" style="stroke-width:0.35;stroke-miterlimit:4;stroke-dasharray:none;fill:none;fill-opacity:1;fill-rule: evenodd"/>
<path id="Shape2DView_nwe0078"  d="M 11.65750000000017 2.5729418595688745e-15 L 11.674157544296149 2.5823895997263416e-15 L 11.690391819215781 2.5921588119119213e-15 L 11.706188848625679 2.602241085783096e-15 L 11.721535032818355 2.6126277414816524e-15 L 11.736417160220249 2.6233098371061987e-15 L 11.75082241876561 2.6342781764102713e-15 L 11.764738406926444 2.6455233167194094e-15 L 11.778153144389012 2.6570355770603815e-15 L 11.791055082367736 2.6688050464955617e-15 L 11.803433113547563 2.680821592655284e-15 L 11.81527658164629 2.693074870460829e-15 L 11.826575290588595 2.7055543310305304e-15 L 11.837319513283855 2.7182492307613384e-15 L 11.847500000000238 2.7311486405780174e-15 " stroke="#191919" stroke-width="0.35 px" style="stroke-width:0.35;stroke-miterlimit:4;stroke-dasharray:none;fill:none;fill-opacity:1;fill-rule: evenodd"/>
<path id="Shape2DView_nwe0079"  d="M 11.8475 2.731148640578e-15 L 12.2275 2.731148640578e-15 " stroke="#191919" stroke-width="0.35 px" style="stroke-width:0.35;stroke-miterlimit:4;stroke-dasharray:none;fill:none;fill-opacity:1;fill-rule: evenodd"/>
<path id="Shape2DView_nwe0080"  d="M 12.370000000011856 1.748601263776949e-15 L 12.360142238678208 1.818803663038796e-15 L 12.350235113131191 1.8890029787072873e-15 L 12.340278625544556 1.9591991953797672e-15 L 12.330272778102938 2.029392297654271e-15 L 12.320217573001685 2.0995822701295133e-15 L 12.31011301244709 2.169769097404888e-15 L 12.299959098656188 2.2399527640804958e-15 L 12.289755833856901 2.310133254757115e-15 L 12.27950322028795 2.3803105540362282e-15 L 12.26920126019894 2.4504846465200153e-15 L 12.258849955850195 2.520655516811366e-15 L 12.248449309512921 2.5908231495138708e-15 L 12.237999323469182 2.6609875292318297e-15 L 12.227500000011872 2.731148640570272e-15 " stroke="#191919" stroke-width="0.35 px" style="stroke-width:0.35;stroke-miterlimit:4;stroke-dasharray:none;fill:none;fill-opacity:1;fill-rule: evenodd"/>
<path id="Shape2DView_nwe0081"  d="M 3.0125000000074635 -1.9999999999992757 L 2.8700000000075647 -0.5249999999992494 " stroke="#191919" stroke-width="0.35 px" style="stroke-width:0.35;stroke-miterlimit:4;stroke-dasharray:none;fill:none;fill-opacity:1;fill-rule: evenodd"/>
<path id="Shape2DView_nwe0082"  d="M 3.0125000000074635 1.9999999999992775 L 2.8700000000075647 0.5249999999992512 " stroke="#191919" stroke-width="0.35 px" style="stroke-width:0.35;stroke-miterlimit:4;stroke-dasharray:none;fill:none;fill-opacity:1;fill-rule: evenodd"/>
<path id="Shape2DView_nwe0083"  d="M 3.0125 -1.9999999999999991 L 3.3925 -1.9999999999999991 " stroke="#191919" stroke-width="0.35 px" style="stroke-width:0.35;stroke-miterlimit:4;stroke-dasharray:none;fill:none;fill-opacity:1;fill-rule: evenodd"/>
<path id="Shape2DView_nwe0084"  d="M 3.0125 2.000000000000001 L 3.3925 2.000000000000001 " stroke="#191919" stroke-width="0.35 px" style="stroke-width:0.35;stroke-miterlimit:4;stroke-dasharray:none;fill:none;fill-opacity:1;fill-rule: evenodd"/>
<path id="Shape2DView_nwe0085"  d="M 3.392500000000015 -2.0000000000000067 L 3.59049999999999 -1.7624999999999864 " stroke="#191919" stroke-width="0.35 px" style="stroke-width:0.35;stroke-miterlimit:4;stroke-dasharray:none;fill:none;fill-opacity:1;fill-rule: evenodd"/>
<path id="Shape2DView_nwe0086"  d="M 3.392500000000015 2.0000000000000084 L 3.59049999999999 1.7624999999999882 " stroke="#191919" stroke-width="0.35 px" style="stroke-width:0.35;stroke-miterlimit:4;stroke-dasharray:none;fill:none;fill-opacity:1;fill-rule: evenodd"/>
<path id="Shape2DView_nwe0087"  d="M 0.6999904956773843 -0.3499999999999991 L 2.87 -0.3499999999999991 " stroke="#191919" stroke-width="0.35 px" style="stroke-width:0.35;stroke-miterlimit:4;stroke-dasharray:none;fill:none;fill-opacity:1;fill-rule: evenodd"/>
<path id="Shape2DView_nwe0088"  d="M 0.6999904956773843 0.35000000000000087 L 2.87 0.35000000000000087 " stroke="#191919" stroke-width="0.35 px" style="stroke-width:0.35;stroke-miterlimit:4;stroke-dasharray:none;fill:none;fill-opacity:1;fill-rule: evenodd"/>
<path id="Shape2DView_nwe0089"  d="M 3.5905 -1.762499999999999 L 4.318643181937 -1.762499999999999 " stroke="#191919" stroke-width="0.35 px" style="stroke-width:0.35;stroke-miterlimit:4;stroke-dasharray:none;fill:none;fill-opacity:1;fill-rule: evenodd"/>
<path id="Shape2DView_nwe0090"  d="M 3.5905 1.7625000000000008 L 4.318643181937 1.7625000000000008 " stroke="#191919" stroke-width="0.35 px" style="stroke-width:0.35;stroke-miterlimit:4;stroke-dasharray:none;fill:none;fill-opacity:1;fill-rule: evenodd"/>
<path id="Shape2DView_nwe0091"  d="M 0.699990495679381 -0.34999999999999903 Q 0.06223007464926472 -0.3499999999999991 1.1213252548714081e-14 -0.34999999999999915 " stroke="#191919" stroke-width="0.35 px" style="stroke-width:0.35;stroke-miterlimit:4;stroke-dasharray:none;fill:none;fill-opacity:1;fill-rule: evenodd"/>
<path id="Shape2DView_nwe0092"  d="M 0.699990495679381 0.3500000000000009 Q 0.06223007464925551 0.35000000000000087 -1.199040866595169e-14 0.3500000000000008 " stroke="#191919" stroke-width="0.35 px" style="stroke-width:0.35;stroke-miterlimit:4;stroke-dasharray:none;fill:none;fill-opacity:1;fill-rule: evenodd"/>
<path id="Shape2DView_nwe0093"  d="M 4.711356818063426 1.7625000000000832 Q 4.518838148657968 2.078561166579929 4.318643181936573 1.7625000000000832 " stroke="#191919" stroke-width="0.35 px" style="stroke-width:0.35;stroke-miterlimit:4;stroke-dasharray:none;fill:none;fill-opacity:1;fill-rule: evenodd"/>
<path id="Shape2DView_nwe0094"  d="M 4.711356818063426 -1.7625000000000814 Q 4.518838148657968 -2.0785611665799273 4.318643181936573 -1.7625000000000814 " stroke="#191919" stroke-width="0.35 px" style="stroke-width:0.35;stroke-miterlimit:4;stroke-dasharray:none;fill:none;fill-opacity:1;fill-rule: evenodd"/>
<path id="Shape2DView_nwe0095"  d="M 4.711356818063 -1.762499999999999 L 5.118643181937 -1.762499999999999 " stroke="#191919" stroke-width="0.35 px" style="stroke-width:0.35;stroke-miterlimit:4;stroke-dasharray:none;fill:none;fill-opacity:1;fill-rule: evenodd"/>
<path id="Shape2DView_nwe0096"  d="M 4.711356818063 1.7625000000000008 L 5.118643181937 1.7625000000000008 " stroke="#191919" stroke-width="0.35 px" style="stroke-width:0.35;stroke-miterlimit:4;stroke-dasharray:none;fill:none;fill-opacity:1;fill-rule: evenodd"/>
<path id="Shape2DView_nwe0097"  d="M 5.511356818063427 1.7625000000000832 Q 5.318838148657969 2.078561166579929 5.118643181936574 1.7625000000000832 " stroke="#191919" stroke-width="0.35 px" style="stroke-width:0.35;stroke-miterlimit:4;stroke-dasharray:none;fill:none;fill-opacity:1;fill-rule: evenodd"/>
<path id="Shape2DView_nwe0098"  d="M 5.511356818063427 -1.7625000000000814 Q 5.318838148657969 -2.0785611665799273 5.118643181936574 -1.7625000000000814 " stroke="#191919" stroke-width="0.35 px" style="stroke-width:0.35;stroke-miterlimit:4;stroke-dasharray:none;fill:none;fill-opacity:1;fill-rule: evenodd"/>
<path id="Shape2DView_nwe0099"  d="M 5.511356818063 -1.762499999999999 L 5.918643181937 -1.762499999999999 " stroke="#191919" stroke-width="0.35 px" style="stroke-width:0.35;stroke-miterlimit:4;stroke-dasharray:none;fill:none;fill-opacity:1;fill-rule: evenodd"/>
<path id="Shape2DView_nwe0100"  d="M 5.511356818063 1.7625000000000008 L 5.918643181937 1.7625000000000008 " stroke="#191919" stroke-width="0.35 px" style="stroke-width:0.35;stroke-miterlimit:4;stroke-dasharray:none;fill:none;fill-opacity:1;fill-rule: evenodd"/>
<path id="Shape2DView_nwe0101"  d="M 6.311356818063427 1.7625000000000832 Q 6.118838148657968 2.078561166579929 5.918643181936574 1.7625000000000832 " stroke="#191919" stroke-width="0.35 px" style="stroke-width:0.35;stroke-miterlimit:4;stroke-dasharray:none;fill:none;fill-opacity:1;fill-rule: evenodd"/>
<path id="Shape2DView_nwe0102"  d="M 6.311356818063427 -1.7625000000000814 Q 6.118838148657968 -2.0785611665799273 5.918643181936574 -1.7625000000000814 " stroke="#191919" stroke-width="0.35 px" style="stroke-width:0.35;stroke-miterlimit:4;stroke-dasharray:none;fill:none;fill-opacity:1;fill-rule: evenodd"/>
<path id="Shape2DView_nwe0103"  d="M 6.311356818063 -1.762499999999999 L 6.718643181937 -1.762499999999999 " stroke="#191919" stroke-width="0.35 px" style="stroke-width:0.35;stroke-miterlimit:4;stroke-dasharray:none;fill:none;fill-opacity:1;fill-rule: evenodd"/>
<path id="Shape2DView_nwe0104"  d="M 6.311356818063 1.7625000000000008 L 6.718643181937 1.7625000000000008 " stroke="#191919" stroke-width="0.35 px" style="stroke-width:0.35;stroke-miterlimit:4;stroke-dasharray:none;fill:none;fill-opacity:1;fill-rule: evenodd"/>
<path id="Shape2DView_nwe0105"  d="M 7.111356818063427 1.7625000000000832 Q 6.918838148657967 2.078561166579929 6.7186431819365735 1.7625000000000832 " stroke="#191919" stroke-width="0.35 px" style="stroke-width:0.35;stroke-miterlimit:4;stroke-dasharray:none;fill:none;fill-opacity:1;fill-rule: evenodd"/>
<path id="Shape2DView_nwe0106"  d="M 7.111356818063427 -1.7625000000000814 Q 6.918838148657967 -2.0785611665799273 6.7186431819365735 -1.7625000000000814 " stroke="#191919" stroke-width="0.35 px" style="stroke-width:0.35;stroke-miterlimit:4;stroke-dasharray:none;fill:none;fill-opacity:1;fill-rule: evenodd"/>
<path id="Shape2DView_nwe0107"  d="M 7.111356818063 -1.762499999999999 L 7.518643181937 -1.762499999999999 " stroke="#191919" stroke-width="0.35 px" style="stroke-width:0.35;stroke-miterlimit:4;stroke-dasharray:none;fill:none;fill-opacity:1;fill-rule: evenodd"/>
<path id="Shape2DView_nwe0108"  d="M 7.111356818063 1.7625000000000008 L 7.518643181937 1.7625000000000008 " stroke="#191919" stroke-width="0.35 px" style="stroke-width:0.35;stroke-miterlimit:4;stroke-dasharray:none;fill:none;fill-opacity:1;fill-rule: evenodd"/>
<path id="Shape2DView_nwe0109"  d="M 7.911356818063426 1.7625000000000832 Q 7.718838148657967 2.078561166579929 7.518643181936573 1.7625000000000832 " stroke="#191919" stroke-width="0.35 px" style="stroke-width:0.35;stroke-miterlimit:4;stroke-dasharray:none;fill:none;fill-opacity:1;fill-rule: evenodd"/>
<path id="Shape2DView_nwe0110"  d="M 7.911356818063426 -1.7625000000000814 Q 7.718838148657967 -2.0785611665799273 7.518643181936573 -1.7625000000000814 " stroke="#191919" stroke-width="0.35 px" style="stroke-width:0.35;stroke-miterlimit:4;stroke-dasharray:none;fill:none;fill-opacity:1;fill-rule: evenodd"/>
<path id="Shape2DView_nwe0111"  d="M 7.911356818063 -1.762499999999999 L 8.318643181937 -1.762499999999999 " stroke="#191919" stroke-width="0.35 px" style="stroke-width:0.35;stroke-miterlimit:4;stroke-dasharray:none;fill:none;fill-opacity:1;fill-rule: evenodd"/>
<path id="Shape2DView_nwe0112"  d="M 7.911356818063 1.7625000000000008 L 8.318643181937 1.7625000000000008 " stroke="#191919" stroke-width="0.35 px" style="stroke-width:0.35;stroke-miterlimit:4;stroke-dasharray:none;fill:none;fill-opacity:1;fill-rule: evenodd"/>
<path id="Shape2DView_nwe0113"  d="M 8.711356818063427 1.7625000000000832 Q 8.51883814865797 2.078561166579929 8.318643181936574 1.7625000000000832 " stroke="#191919" stroke-width="0.35 px" style="stroke-width:0.35;stroke-miterlimit:4;stroke-dasharray:none;fill:none;fill-opacity:1;fill-rule: evenodd"/>
<path id="Shape2DView_nwe0114"  d="M 8.711356818063427 -1.7625000000000814 Q 8.51883814865797 -2.0785611665799273 8.318643181936574 -1.7625000000000814 " stroke="#191919" stroke-width="0.35 px" style="stroke-width:0.35;stroke-miterlimit:4;stroke-dasharray:none;fill:none;fill-opacity:1;fill-rule: evenodd"/>
<path id="Shape2DView_nwe0115"  d="M 8.711356818063 -1.762499999999999 L 9.118643181937 -1.762499999999999 " stroke="#191919" stroke-width="0.35 px" style="stroke-width:0.35;stroke-miterlimit:4;stroke-dasharray:none;fill:none;fill-opacity:1;fill-rule: evenodd"/>
<path id="Shape2DView_nwe0116"  d="M 8.711356818063 1.7625000000000008 L 9.118643181937 1.7625000000000008 " stroke="#191919" stroke-width="0.35 px" style="stroke-width:0.35;stroke-miterlimit:4;stroke-dasharray:none;fill:none;fill-opacity:1;fill-rule: evenodd"/>
<path id="Shape2DView_nwe0117"  d="M 9.511356818063426 1.7625000000000832 Q 9.318838148657965 2.078561166579929 9.118643181936573 1.7625000000000832 " stroke="#191919" stroke-width="0.35 px" style="stroke-width:0.35;stroke-miterlimit:4;stroke-dasharray:none;fill:none;fill-opacity:1;fill-rule: evenodd"/>
<path id="Shape2DView_nwe0118"  d="M 9.511356818063426 -1.7625000000000814 Q 9.318838148657965 -2.0785611665799273 9.118643181936573 -1.7625000000000814 " stroke="#191919" stroke-width="0.35 px" style="stroke-width:0.35;stroke-miterlimit:4;stroke-dasharray:none;fill:none;fill-opacity:1;fill-rule: evenodd"/>
<path id="Shape2DView_nwe0119"  d="M 9.511356818063 -1.762499999999999 L 9.918643181937 -1.762499999999999 " stroke="#191919" stroke-width="0.35 px" style="stroke-width:0.35;stroke-miterlimit:4;stroke-dasharray:none;fill:none;fill-opacity:1;fill-rule: evenodd"/>
<path id="Shape2DView_nwe0120"  d="M 9.511356818063 1.7625000000000008 L 9.918643181937 1.7625000000000008 " stroke="#191919" stroke-width="0.35 px" style="stroke-width:0.35;stroke-miterlimit:4;stroke-dasharray:none;fill:none;fill-opacity:1;fill-rule: evenodd"/>
<path id="Shape2DView_nwe0121"  d="M 10.311356818063427 1.7625000000000832 Q 10.118838148657966 2.078561166579929 9.918643181936574 1.7625000000000832 " stroke="#191919" stroke-width="0.35 px" style="stroke-width:0.35;stroke-miterlimit:4;stroke-dasharray:none;fill:none;fill-opacity:1;fill-rule: evenodd"/>
<path id="Shape2DView_nwe0122"  d="M 10.311356818063427 -1.7625000000000814 Q 10.118838148657966 -2.0785611665799273 9.918643181936574 -1.7625000000000814 " stroke="#191919" stroke-width="0.35 px" style="stroke-width:0.35;stroke-miterlimit:4;stroke-dasharray:none;fill:none;fill-opacity:1;fill-rule: evenodd"/>
<path id="Shape2DView_nwe0123"  d="M 10.311356818063 -1.762499999999999 L 10.718643181937 -1.762499999999999 " stroke="#191919" stroke-width="0.35 px" style="stroke-width:0.35;stroke-miterlimit:4;stroke-dasharray:none;fill:none;fill-opacity:1;fill-rule: evenodd"/>
<path id="Shape2DView_nwe0124"  d="M 10.311356818063 1.7625000000000008 L 10.718643181937 1.7625000000000008 " stroke="#191919" stroke-width="0.35 px" style="stroke-width:0.35;stroke-miterlimit:4;stroke-dasharray:none;fill:none;fill-opacity:1;fill-rule: evenodd"/>
<path id="Shape2DView_nwe0125"  d="M 11.111356818063426 1.7625000000000832 Q 10.918838148657969 2.0785611665799286 10.718643181936573 1.7625000000000837 " stroke="#191919" stroke-width="0.35 px" style="stroke-width:0.35;stroke-miterlimit:4;stroke-dasharray:none;fill:none;fill-opacity:1;fill-rule: evenodd"/>
<path id="Shape2DView_nwe0126"  d="M 11.111356818063426 -1.7625000000000814 Q 10.918838148657969 -2.078561166579927 10.718643181936573 -1.762500000000082 " stroke="#191919" stroke-width="0.35 px" style="stroke-width:0.35;stroke-miterlimit:4;stroke-dasharray:none;fill:none;fill-opacity:1;fill-rule: evenodd"/>
<path id="Shape2DView_nwe0127"  d="M 11.111356818063 -1.762499999999999 L 11.6575 -1.762499999999999 " stroke="#191919" stroke-width="0.35 px" style="stroke-width:0.35;stroke-miterlimit:4;stroke-dasharray:none;fill:none;fill-opacity:1;fill-rule: evenodd"/>
<path id="Shape2DView_nwe0128"  d="M 11.111356818063 1.7625000000000008 L 11.6575 1.7625000000000008 " stroke="#191919" stroke-width="0.35 px" style="stroke-width:0.35;stroke-miterlimit:4;stroke-dasharray:none;fill:none;fill-opacity:1;fill-rule: evenodd"/>
<path id="Shape2DView_nwe0129"  d="M 11.65750000000017 -1.7624999999997937 L 11.847500000000238 -1.9999999999998779 " stroke="#191919" stroke-width="0.35 px" style="stroke-width:0.35;stroke-miterlimit:4;stroke-dasharray:none;fill:none;fill-opacity:1;fill-rule: evenodd"/>
<path id="Shape2DView_nwe0130"  d="M 11.65750000000017 1.7624999999997955 L 11.847500000000238 1.9999999999998797 " stroke="#191919" stroke-width="0.35 px" style="stroke-width:0.35;stroke-miterlimit:4;stroke-dasharray:none;fill:none;fill-opacity:1;fill-rule: evenodd"/>
<path id="Shape2DView_nwe0131"  d="M 11.8475 -1.9999999999999991 L 12.2275 -1.9999999999999991 " stroke="#191919" stroke-width="0.35 px" style="stroke-width:0.35;stroke-miterlimit:4;stroke-dasharray:none;fill:none;fill-opacity:1;fill-rule: evenodd"/>
<path id="Shape2DView_nwe0132"  d="M 11.8475 2.000000000000001 L 12.2275 2.000000000000001 " stroke="#191919" stroke-width="0.35 px" style="stroke-width:0.35;stroke-miterlimit:4;stroke-dasharray:none;fill:none;fill-opacity:1;fill-rule: evenodd"/>
<path id="Shape2DView_nwe0133"  d="M 12.370000000011856 -0.5250000000011075 L 12.227500000011872 -2.0000000000011835 " stroke="#191919" stroke-width="0.35 px" style="stroke-width:0.35;stroke-miterlimit:4;stroke-dasharray:none;fill:none;fill-opacity:1;fill-rule: evenodd"/>
<path id="Shape2DView_nwe0134"  d="M 12.370000000011856 0.5250000000011092 L 12.227500000011872 2.0000000000011853 " stroke="#191919" stroke-width="0.35 px" style="stroke-width:0.35;stroke-miterlimit:4;stroke-dasharray:none;fill:none;fill-opacity:1;fill-rule: evenodd"/>
<path id="Shape2DView_nwe0135"  d="M 12.37 -0.3499999999999991 L 14.54 -0.3499999999999991 " stroke="#191919" stroke-width="0.35 px" style="stroke-width:0.35;stroke-miterlimit:4;stroke-dasharray:none;fill:none;fill-opacity:1;fill-rule: evenodd"/>
<path id="Shape2DView_nwe0136"  d="M 12.37 0.35000000000000087 L 14.54 0.35000000000000087 " stroke="#191919" stroke-width="0.35 px" style="stroke-width:0.35;stroke-miterlimit:4;stroke-dasharray:none;fill:none;fill-opacity:1;fill-rule: evenodd"/>
<path id="Shape2DView_nwe0137"  d="M 14.54 0.3500000000000009 Q 15.105268374007238 0.35000000000000875 15.240000084549004 0.3499999999999906 " stroke="#191919" stroke-width="0.35 px" style="stroke-width:0.35;stroke-miterlimit:4;stroke-dasharray:none;fill:none;fill-opacity:1;fill-rule: evenodd"/>
<path id="Shape2DView_nwe0138"  d="M 14.54 -0.34999999999999903 Q 15.098509079855779 -0.3499999999999991 15.230501876606322 -0.3499999999999992 Q 15.235250938291093 -0.3499999999999992 15.239999999975868 -0.3499999999999992 " stroke="#191919" stroke-width="0.35 px" style="stroke-width:0.35;stroke-miterlimit:4;stroke-dasharray:none;fill:none;fill-opacity:1;fill-rule: evenodd"/>
<title>b'Shape2DView'</title>
</g>
<g id="Rectangle" transform="translate(0.506811,2.159363) scale(1,-1)">
<rect fill="#ff0000" id="origin" width="1" height="1" x="0" y="0" />
<title>b'Rectangle'</title>
</g>
</svg>