<?xml version="1.0"?>
<!DOCTYPE svg PUBLIC "-//W3C//DTD SVG 1.1//EN" "http://www.w3.org/Graphics/SVG/1.1/DTD/svg11.dtd">
<svg width="32.00268565568516mm" height="9.627503640319926mm" viewBox="0 0 32.00268565568516 9.627503640319926" xmlns="http://www.w3.org/2000/svg" version="1.1">
<g id="Shape2DView" transform="translate(0.760471,4.813752) scale(1,-1)">
<path id="Shape2DView_nwe0000"  d="M 2.63 6.061817714453e-15 L 2.63 -0.5038401424648796 L 2.63 -1.0013442028034094 L 2.63 -1.4862557787982469 L 2.63 -1.952476826029007 L 2.63 -2.39414434431901 L 2.63 -2.8057041083642966 L 2.63 -3.1819805153394607 L 2.63 -3.5182416711061313 L 2.63 -3.8102588965272757 L 2.63 -4.054359905560884 L 2.63 -4.247474986387652 L 2.63 -4.3871756048182045 L 2.63 -4.471704944519589 L 2.63 -4.499999999999998 " stroke="#191919" stroke-width="0.35 px" style="stroke-width:0.35;stroke-miterlimit:4;stroke-dasharray:none;fill:none;fill-opacity:1;fill-rule: evenodd"/>
<path id="Shape2DView_nwe0001"  d="M 2.63 4.500000000000002 L 2.63 4.471704944519594 L 2.63 4.387175604818208 L 2.63 4.2474749863876555 L 2.63 4.054359905560888 L 2.63 3.8102588965272814 L 2.63 3.518241671106137 L 2.63 3.1819805153394665 L 2.63 2.805704108364304 L 2.63 2.394144344319018 L 2.63 1.9524768260290144 L 2.63 1.4862557787982549 L 2.63 1.001344202803418 L 2.63 0.5038401424648885 L 2.63 7.163999833685617e-15 " stroke="#191919" stroke-width="0.35 px" style="stroke-width:0.35;stroke-miterlimit:4;stroke-dasharray:none;fill:none;fill-opacity:1;fill-rule: evenodd"/>
<path id="Shape2DView_nwe0002"  d="M 2.24 3.5138558729384002e-15 L 2.24 -0.07557602136972941 L 2.24 -0.15020163042050894 L 2.24 -0.2229383668197346 L 2.24 -0.29287152390434873 L 2.24 -0.35912165164784937 L 2.24 -0.42085561625464235 L 2.24 -0.47729707730091697 L 2.24 -0.5277362506659177 L 2.24 -0.5715388344790896 L 2.24 -0.6081539858341307 L 2.24 -0.6371212479581461 L 2.24 -0.6580763407227289 L 2.24 -0.6707557416779368 L 2.24 -0.674999999999998 " stroke="#191919" stroke-width="0.35 px" style="stroke-width:0.35;stroke-miterlimit:4;stroke-dasharray:none;fill:none;fill-opacity:1;fill-rule: evenodd"/>
<path id="Shape2DView_nwe0003"  d="M 2.24 0.675000000000002 L 2.24 0.6707557416779407 L 2.24 0.6580763407227329 L 2.24 0.6371212479581501 L 2.24 0.6081539858341348 L 2.24 0.5715388344790938 L 2.24 0.527736250665922 L 2.24 0.4772970773009216 L 2.24 0.42085561625464707 L 2.24 0.35912165164785403 L 2.24 0.2928715239043536 L 2.24 0.22293836681973966 L 2.24 0.15020163042051413 L 2.24 0.07557602136973468 L 2.24 3.6791831908232925e-15 " stroke="#191919" stroke-width="0.35 px" style="stroke-width:0.35;stroke-miterlimit:4;stroke-dasharray:none;fill:none;fill-opacity:1;fill-rule: evenodd"/>
<path id="Shape2DView_nwe0004"  d="M 3.67 6.061817714453e-15 L 3.67 -0.5038401424648796 L 3.67 -1.0013442028034094 L 3.67 -1.4862557787982469 L 3.67 -1.952476826029007 L 3.67 -2.39414434431901 L 3.67 -2.8057041083642966 L 3.67 -3.1819805153394607 L 3.67 -3.5182416711061313 L 3.67 -3.8102588965272757 L 3.67 -4.054359905560884 L 3.67 -4.247474986387652 L 3.67 -4.3871756048182045 L 3.67 -4.471704944519589 L 3.67 -4.499999999999998 " stroke="#191919" stroke-width="0.35 px" style="stroke-width:0.35;stroke-miterlimit:4;stroke-dasharray:none;fill:none;fill-opacity:1;fill-rule: evenodd"/>
<path id="Shape2DView_nwe0005"  d="M 3.67 4.500000000000002 L 3.67 4.471704944519594 L 3.67 4.387175604818208 L 3.67 4.2474749863876555 L 3.67 4.054359905560888 L 3.67 3.8102588965272814 L 3.67 3.518241671106137 L 3.67 3.1819805153394665 L 3.67 2.805704108364304 L 3.67 2.394144344319018 L 3.67 1.9524768260290144 L 3.67 1.4862557787982549 L 3.67 1.001344202803418 L 3.67 0.5038401424648885 L 3.67 7.163999833685617e-15 " stroke="#191919" stroke-width="0.35 px" style="stroke-width:0.35;stroke-miterlimit:4;stroke-dasharray:none;fill:none;fill-opacity:1;fill-rule: evenodd"/>
<path id="Shape2DView_nwe0006"  d="M 3.868 5.6288307348492994e-15 L 3.868 -0.4310632329977299 L 3.868 -0.8567055957318055 L 3.868 -1.2715743885273887 L 3.868 -1.6704523956025943 L 3.868 -2.048323494584041 L 3.868 -2.4004357371561205 L 3.868 -2.722361107568205 L 3.868 -3.010051207501912 L 3.868 -3.2598881670288913 L 3.868 -3.468730141424311 L 3.868 -3.6339508216872125 L 3.868 -3.753472461900018 L 3.868 -3.8257920080889813 L 3.868 -3.849999999999998 " stroke="#191919" stroke-width="0.35 px" style="stroke-width:0.35;stroke-miterlimit:4;stroke-dasharray:none;fill:none;fill-opacity:1;fill-rule: evenodd"/>
<path id="Shape2DView_nwe0007"  d="M 3.868 3.8500000000000023 L 3.868 3.8257920080889862 L 3.868 3.7534724619000235 L 3.868 3.633950821687218 L 3.868 3.4687301414243166 L 3.868 3.2598881670288966 L 3.868 3.0100512075019177 L 3.868 2.722361107568211 L 3.868 2.400435737156127 L 3.868 2.048323494584049 L 3.868 1.6704523956026018 L 3.868 1.2715743885273962 L 3.868 0.8567055957318135 L 3.868 0.4310632329977384 L 3.868 6.571808770192761e-15 " stroke="#191919" stroke-width="0.35 px" style="stroke-width:0.35;stroke-miterlimit:4;stroke-dasharray:none;fill:none;fill-opacity:1;fill-rule: evenodd"/>
<path id="Shape2DView_nwe0008"  d="M 6.204707655826 6.661338147751e-15 C 6.204707655825998 2.0572491080388984 6.204707655826001 3.9030497605551613 6.204707655825998 3.8499999994260685 " stroke="#191919" stroke-width="0.35 px" style="stroke-width:0.35;stroke-miterlimit:4;stroke-dasharray:none;fill:none;fill-opacity:1;fill-rule: evenodd"/>
<path id="Shape2DView_nwe0009"  d="M 6.204707655825997 -3.849999999999823 C 6.204707655826 -3.9030498479917175 6.204707655826 -2.057252306465721 6.204707655826 7.105427357601002e-15 " stroke="#191919" stroke-width="0.35 px" style="stroke-width:0.35;stroke-miterlimit:4;stroke-dasharray:none;fill:none;fill-opacity:1;fill-rule: evenodd"/>
<path id="Shape2DView_nwe0010"  d="M -1.4360935846161215e-14 0.4500000000000013 A 0.45 0.45 0 0 1 1.43058e-14 -0.45" stroke="#191919" stroke-width="0.35 px" style="stroke-width:0.35;stroke-miterlimit:4;stroke-dasharray:none;fill:none;fill-opacity:1;fill-rule: evenodd"/>
<path id="Shape2DView_nwe0011"  d="M 7.279502870489 6.661338147751e-15 C 7.279502870488996 2.0572491080385666 7.279502870488999 3.9030497605553283 7.279502870489002 3.8499999994260685 " stroke="#191919" stroke-width="0.35 px" style="stroke-width:0.35;stroke-miterlimit:4;stroke-dasharray:none;fill:none;fill-opacity:1;fill-rule: evenodd"/>
<path id="Shape2DView_nwe0012"  d="M 7.279502870488997 -3.849999999999823 C 7.279502870488997 -3.9030498479917175 7.279502870489003 -2.057252306465721 7.279502870489 7.105427357601002e-15 " stroke="#191919" stroke-width="0.35 px" style="stroke-width:0.35;stroke-miterlimit:4;stroke-dasharray:none;fill:none;fill-opacity:1;fill-rule: evenodd"/>
<path id="Shape2DView_nwe0013"  d="M 8.394181340037 6.661338147751e-15 C 8.394181340036994 2.057249108039276 8.394181340037001 3.90304976055499 8.394181340037 3.8499999994260685 " stroke="#191919" stroke-width="0.35 px" style="stroke-width:0.35;stroke-miterlimit:4;stroke-dasharray:none;fill:none;fill-opacity:1;fill-rule: evenodd"/>
<path id="Shape2DView_nwe0014"  d="M 8.394181340037 -3.8499999999998242 C 8.394181340036996 -3.9030498479911797 8.394181340037001 -2.057252306466098 8.394181340037 7.105427357601002e-15 " stroke="#191919" stroke-width="0.35 px" style="stroke-width:0.35;stroke-miterlimit:4;stroke-dasharray:none;fill:none;fill-opacity:1;fill-rule: evenodd"/>
<path id="Shape2DView_nwe0015"  d="M 9.4689765547 6.661338147751e-15 C 9.468976554699994 2.0572491080388997 9.468976554700001 3.903049760555163 9.4689765547 3.8499999994260685 " stroke="#191919" stroke-width="0.35 px" style="stroke-width:0.35;stroke-miterlimit:4;stroke-dasharray:none;fill:none;fill-opacity:1;fill-rule: evenodd"/>
<path id="Shape2DView_nwe0016"  d="M 9.4689765547 -3.849999999999823 C 9.468976554699996 -3.9030498479917175 9.4689765547 -2.057252306465721 9.4689765547 7.105427357601002e-15 " stroke="#191919" stroke-width="0.35 px" style="stroke-width:0.35;stroke-miterlimit:4;stroke-dasharray:none;fill:none;fill-opacity:1;fill-rule: evenodd"/>
<path id="Shape2DView_nwe0017"  d="M 10.583655024247 6.661338147751e-15 C 10.583655024246996 2.057249108039653 10.583655024247001 3.9030497605548167 10.583655024247 3.849999999426068 " stroke="#191919" stroke-width="0.35 px" style="stroke-width:0.35;stroke-miterlimit:4;stroke-dasharray:none;fill:none;fill-opacity:1;fill-rule: evenodd"/>
<path id="Shape2DView_nwe0018"  d="M 10.583655024247 -3.849999999999823 C 10.583655024246996 -3.9030498479917175 10.583655024247 -2.057252306465721 10.583655024247 7.105427357601002e-15 " stroke="#191919" stroke-width="0.35 px" style="stroke-width:0.35;stroke-miterlimit:4;stroke-dasharray:none;fill:none;fill-opacity:1;fill-rule: evenodd"/>
<path id="Shape2DView_nwe0019"  d="M 11.65845023891 6.661338147751e-15 C 11.65845023890999 2.0572491080385666 11.658450238910005 3.9030497605553283 11.65845023891 3.8499999994260685 " stroke="#191919" stroke-width="0.35 px" style="stroke-width:0.35;stroke-miterlimit:4;stroke-dasharray:none;fill:none;fill-opacity:1;fill-rule: evenodd"/>
<path id="Shape2DView_nwe0020"  d="M 11.658450238909994 -3.849999999999823 C 11.658450238910005 -3.9030498479917175 11.658450238909998 -2.057252306465721 11.65845023891 7.105427357601002e-15 " stroke="#191919" stroke-width="0.35 px" style="stroke-width:0.35;stroke-miterlimit:4;stroke-dasharray:none;fill:none;fill-opacity:1;fill-rule: evenodd"/>
<path id="Shape2DView_nwe0021"  d="M 12.773128708458 6.661338147751e-15 C 12.773128708457994 2.057249108039276 12.773128708458 3.90304976055499 12.773128708458 3.8499999994260685 " stroke="#191919" stroke-width="0.35 px" style="stroke-width:0.35;stroke-miterlimit:4;stroke-dasharray:none;fill:none;fill-opacity:1;fill-rule: evenodd"/>
<path id="Shape2DView_nwe0022"  d="M 12.773128708458 -3.849999999999823 C 12.773128708457993 -3.9030498479917175 12.773128708458003 -2.057252306465721 12.773128708458 7.105427357601002e-15 " stroke="#191919" stroke-width="0.35 px" style="stroke-width:0.35;stroke-miterlimit:4;stroke-dasharray:none;fill:none;fill-opacity:1;fill-rule: evenodd"/>
<path id="Shape2DView_nwe0023"  d="M 13.847923923121 6.661338147751e-15 C 13.847923923120996 2.0572491080396533 13.847923923120995 3.9030497605548193 13.847923923121003 3.8499999994260685 " stroke="#191919" stroke-width="0.35 px" style="stroke-width:0.35;stroke-miterlimit:4;stroke-dasharray:none;fill:none;fill-opacity:1;fill-rule: evenodd"/>
<path id="Shape2DView_nwe0024"  d="M 13.847923923121 -3.8499999999998242 C 13.847923923120991 -3.9030498479911797 13.847923923121003 -2.057252306466098 13.847923923121 7.105427357601002e-15 " stroke="#191919" stroke-width="0.35 px" style="stroke-width:0.35;stroke-miterlimit:4;stroke-dasharray:none;fill:none;fill-opacity:1;fill-rule: evenodd"/>
<path id="Shape2DView_nwe0025"  d="M 14.962602392668 6.661338147751e-15 C 14.962602392667995 2.057249108039276 14.962602392668 3.90304976055499 14.962602392668 3.8499999994260685 " stroke="#191919" stroke-width="0.35 px" style="stroke-width:0.35;stroke-miterlimit:4;stroke-dasharray:none;fill:none;fill-opacity:1;fill-rule: evenodd"/>
<path id="Shape2DView_nwe0026"  d="M 14.962602392668 -3.8499999999998242 C 14.962602392667998 -3.9030498479911797 14.962602392667998 -2.057252306466098 14.962602392668 7.105427357601002e-15 " stroke="#191919" stroke-width="0.35 px" style="stroke-width:0.35;stroke-miterlimit:4;stroke-dasharray:none;fill:none;fill-opacity:1;fill-rule: evenodd"/>
<path id="Shape2DView_nwe0027"  d="M 16.037397607332 6.661338147751e-15 C 16.03739760733199 2.0572491080385666 16.037397607331997 3.9030497605553283 16.037397607332007 3.8499999994260685 " stroke="#191919" stroke-width="0.35 px" style="stroke-width:0.35;stroke-miterlimit:4;stroke-dasharray:none;fill:none;fill-opacity:1;fill-rule: evenodd"/>
<path id="Shape2DView_nwe0028"  d="M 16.037397607332 -3.849999999999823 C 16.03739760733199 -3.9030498479917175 16.037397607332007 -2.057252306465721 16.037397607332 7.105427357601002e-15 " stroke="#191919" stroke-width="0.35 px" style="stroke-width:0.35;stroke-miterlimit:4;stroke-dasharray:none;fill:none;fill-opacity:1;fill-rule: evenodd"/>
<path id="Shape2DView_nwe0029"  d="M 17.152076076879 6.661338147751e-15 C 17.152076076879 2.0572491080388984 17.15207607687899 3.9030497605551613 17.152076076879 3.8499999994260685 " stroke="#191919" stroke-width="0.35 px" style="stroke-width:0.35;stroke-miterlimit:4;stroke-dasharray:none;fill:none;fill-opacity:1;fill-rule: evenodd"/>
<path id="Shape2DView_nwe0030"  d="M 17.152076076879 -3.849999999999823 C 17.152076076878988 -3.9030498479917175 17.152076076879005 -2.057252306465721 17.152076076879 7.105427357601002e-15 " stroke="#191919" stroke-width="0.35 px" style="stroke-width:0.35;stroke-miterlimit:4;stroke-dasharray:none;fill:none;fill-opacity:1;fill-rule: evenodd"/>
<path id="Shape2DView_nwe0031"  d="M 18.226871291542 6.661338147751e-15 C 18.22687129154199 2.0572491080396533 18.226871291542004 3.9030497605548193 18.226871291542 3.8499999994260685 " stroke="#191919" stroke-width="0.35 px" style="stroke-width:0.35;stroke-miterlimit:4;stroke-dasharray:none;fill:none;fill-opacity:1;fill-rule: evenodd"/>
<path id="Shape2DView_nwe0032"  d="M 18.226871291542 -3.849999999999823 C 18.226871291541993 -3.9030498479917175 18.226871291542 -2.057252306465721 18.226871291542 7.105427357601002e-15 " stroke="#191919" stroke-width="0.35 px" style="stroke-width:0.35;stroke-miterlimit:4;stroke-dasharray:none;fill:none;fill-opacity:1;fill-rule: evenodd"/>
<path id="Shape2DView_nwe0033"  d="M 19.34154976109 6.661338147751e-15 C 19.341549761089993 2.057249108039984 19.34154976109 3.903049760554654 19.34154976109 3.8499999994260685 " stroke="#191919" stroke-width="0.35 px" style="stroke-width:0.35;stroke-miterlimit:4;stroke-dasharray:none;fill:none;fill-opacity:1;fill-rule: evenodd"/>
<path id="Shape2DView_nwe0034"  d="M 19.34154976109 -3.8499999999998242 C 19.341549761089993 -3.9030498479911797 19.341549761090008 -2.057252306466098 19.34154976109 7.105427357601002e-15 " stroke="#191919" stroke-width="0.35 px" style="stroke-width:0.35;stroke-miterlimit:4;stroke-dasharray:none;fill:none;fill-opacity:1;fill-rule: evenodd"/>
<path id="Shape2DView_nwe0035"  d="M 20.416344975753 6.661338147751e-15 C 20.41634497575299 2.0572491080388997 20.416344975753006 3.903049760555163 20.416344975753 3.8499999994260685 " stroke="#191919" stroke-width="0.35 px" style="stroke-width:0.35;stroke-miterlimit:4;stroke-dasharray:none;fill:none;fill-opacity:1;fill-rule: evenodd"/>
<path id="Shape2DView_nwe0036"  d="M 20.416344975753 -3.849999999999823 C 20.416344975753 -3.9030498479917175 20.416344975752995 -2.057252306465721 20.416344975753 7.105427357601002e-15 " stroke="#191919" stroke-width="0.35 px" style="stroke-width:0.35;stroke-miterlimit:4;stroke-dasharray:none;fill:none;fill-opacity:1;fill-rule: evenodd"/>
<path id="Shape2DView_nwe0037"  d="M 21.5310234453 6.661338147751e-15 C 21.531023445299983 2.057249108039653 21.531023445300008 3.9030497605548167 21.5310234453 3.849999999426068 " stroke="#191919" stroke-width="0.35 px" style="stroke-width:0.35;stroke-miterlimit:4;stroke-dasharray:none;fill:none;fill-opacity:1;fill-rule: evenodd"/>
<path id="Shape2DView_nwe0038"  d="M 21.5310234453 -3.8499999999998242 C 21.53102344529999 -3.9030498479911797 21.531023445300004 -2.057252306466098 21.5310234453 7.105427357601002e-15 " stroke="#191919" stroke-width="0.35 px" style="stroke-width:0.35;stroke-miterlimit:4;stroke-dasharray:none;fill:none;fill-opacity:1;fill-rule: evenodd"/>
<path id="Shape2DView_nwe0039"  d="M 22.605818659963 6.661338147751e-15 C 22.60581865996299 2.0572491080396533 22.605818659963 3.9030497605548193 22.605818659963 3.8499999994260685 " stroke="#191919" stroke-width="0.35 px" style="stroke-width:0.35;stroke-miterlimit:4;stroke-dasharray:none;fill:none;fill-opacity:1;fill-rule: evenodd"/>
<path id="Shape2DView_nwe0040"  d="M 22.605818659963 -3.8499999999998242 C 22.605818659963 -3.9030498479911797 22.605818659962992 -2.057252306466098 22.605818659963 7.105427357601002e-15 " stroke="#191919" stroke-width="0.35 px" style="stroke-width:0.35;stroke-miterlimit:4;stroke-dasharray:none;fill:none;fill-opacity:1;fill-rule: evenodd"/>
<path id="Shape2DView_nwe0041"  d="M 23.720497129511 6.661338147751e-15 C 23.720497129510992 2.057249108039276 23.720497129511003 3.90304976055499 23.720497129511 3.8499999994260685 " stroke="#191919" stroke-width="0.35 px" style="stroke-width:0.35;stroke-miterlimit:4;stroke-dasharray:none;fill:none;fill-opacity:1;fill-rule: evenodd"/>
<path id="Shape2DView_nwe0042"  d="M 23.720497129511 -3.8499999999998242 C 23.72049712951099 -3.9030498479911797 23.720497129511006 -2.057252306466098 23.720497129511 7.105427357601002e-15 " stroke="#191919" stroke-width="0.35 px" style="stroke-width:0.35;stroke-miterlimit:4;stroke-dasharray:none;fill:none;fill-opacity:1;fill-rule: evenodd"/>
<path id="Shape2DView_nwe0043"  d="M 24.795292344174 6.661338147751e-15 C 24.79529234417399 2.0572491080394384 24.795292344174 3.9030497605549392 24.795292344174 3.8499999994260685 " stroke="#191919" stroke-width="0.35 px" style="stroke-width:0.35;stroke-miterlimit:4;stroke-dasharray:none;fill:none;fill-opacity:1;fill-rule: evenodd"/>
<path id="Shape2DView_nwe0044"  d="M 24.795292344174 -3.8499999999998242 C 24.795292344173994 -3.9030498479911797 24.795292344173998 -2.057252306466098 24.795292344174 7.105427357601002e-15 " stroke="#191919" stroke-width="0.35 px" style="stroke-width:0.35;stroke-miterlimit:4;stroke-dasharray:none;fill:none;fill-opacity:1;fill-rule: evenodd"/>
<path id="Shape2DView_nwe0045"  d="M 26.29 5.6288307348492994e-15 L 26.29 -0.4310632329977299 L 26.29 -0.8567055957318055 L 26.29 -1.2715743885273887 L 26.29 -1.6704523956025943 L 26.29 -2.048323494584041 L 26.29 -2.4004357371561205 L 26.29 -2.722361107568205 L 26.29 -3.010051207501912 L 26.29 -3.2598881670288913 L 26.29 -3.468730141424311 L 26.29 -3.6339508216872125 L 26.29 -3.753472461900018 L 26.29 -3.8257920080889813 L 26.29 -3.849999999999998 " stroke="#191919" stroke-width="0.35 px" style="stroke-width:0.35;stroke-miterlimit:4;stroke-dasharray:none;fill:none;fill-opacity:1;fill-rule: evenodd"/>
<path id="Shape2DView_nwe0046"  d="M 26.29 3.8500000000000023 L 26.29 3.8257920080889862 L 26.29 3.7534724619000235 L 26.29 3.633950821687218 L 26.29 3.4687301414243166 L 26.29 3.2598881670288966 L 26.29 3.0100512075019177 L 26.29 2.722361107568211 L 26.29 2.400435737156127 L 26.29 2.048323494584049 L 26.29 1.6704523956026018 L 26.29 1.2715743885273962 L 26.29 0.8567055957318135 L 26.29 0.4310632329977384 L 26.29 6.571808770192761e-15 " stroke="#191919" stroke-width="0.35 px" style="stroke-width:0.35;stroke-miterlimit:4;stroke-dasharray:none;fill:none;fill-opacity:1;fill-rule: evenodd"/>
<path id="Shape2DView_nwe0047"  d="M 26.81 6.061817714453e-15 L 26.81 -0.5038401424648796 L 26.81 -1.0013442028034094 L 26.81 -1.4862557787982469 L 26.81 -1.952476826029007 L 26.81 -2.39414434431901 L 26.81 -2.8057041083642966 L 26.81 -3.1819805153394607 L 26.81 -3.5182416711061313 L 26.81 -3.8102588965272757 L 26.81 -4.054359905560884 L 26.81 -4.247474986387652 L 26.81 -4.3871756048182045 L 26.81 -4.471704944519589 L 26.81 -4.499999999999998 " stroke="#191919" stroke-width="0.35 px" style="stroke-width:0.35;stroke-miterlimit:4;stroke-dasharray:none;fill:none;fill-opacity:1;fill-rule: evenodd"/>
<path id="Shape2DView_nwe0048"  d="M 26.81 4.500000000000002 L 26.81 4.471704944519594 L 26.81 4.387175604818208 L 26.81 4.2474749863876555 L 26.81 4.054359905560888 L 26.81 3.8102588965272814 L 26.81 3.518241671106137 L 26.81 3.1819805153394665 L 26.81 2.805704108364304 L 26.81 2.394144344319018 L 26.81 1.9524768260290144 L 26.81 1.4862557787982549 L 26.81 1.001344202803418 L 26.81 0.5038401424648885 L 26.81 7.163999833685617e-15 " stroke="#191919" stroke-width="0.35 px" style="stroke-width:0.35;stroke-miterlimit:4;stroke-dasharray:none;fill:none;fill-opacity:1;fill-rule: evenodd"/>
<path id="Shape2DView_nwe0049"  d="M 27.85 6.061817714453e-15 L 27.85 -0.5038401424648796 L 27.85 -1.0013442028034094 L 27.85 -1.4862557787982469 L 27.85 -1.952476826029007 L 27.85 -2.39414434431901 L 27.85 -2.8057041083642966 L 27.85 -3.1819805153394607 L 27.85 -3.5182416711061313 L 27.85 -3.8102588965272757 L 27.85 -4.054359905560884 L 27.85 -4.247474986387652 L 27.85 -4.3871756048182045 L 27.85 -4.471704944519589 L 27.85 -4.499999999999998 " stroke="#191919" stroke-width="0.35 px" style="stroke-width:0.35;stroke-miterlimit:4;stroke-dasharray:none;fill:none;fill-opacity:1;fill-rule: evenodd"/>
<path id="Shape2DView_nwe0050"  d="M 27.85 4.500000000000002 L 27.85 4.471704944519594 L 27.85 4.387175604818208 L 27.85 4.2474749863876555 L 27.85 4.054359905560888 L 27.85 3.8102588965272814 L 27.85 3.518241671106137 L 27.85 3.1819805153394665 L 27.85 2.805704108364304 L 27.85 2.394144344319018 L 27.85 1.9524768260290144 L 27.85 1.4862557787982549 L 27.85 1.001344202803418 L 27.85 0.5038401424648885 L 27.85 7.163999833685617e-15 " stroke="#191919" stroke-width="0.35 px" style="stroke-width:0.35;stroke-miterlimit:4;stroke-dasharray:none;fill:none;fill-opacity:1;fill-rule: evenodd"/>
<path id="Shape2DView_nwe0051"  d="M 28.24 3.5138558729384002e-15 L 28.24 -0.07557602136972941 L 28.24 -0.15020163042050894 L 28.24 -0.2229383668197346 L 28.24 -0.29287152390434873 L 28.24 -0.35912165164784937 L 28.24 -0.42085561625464235 L 28.24 -0.47729707730091697 L 28.24 -0.5277362506659177 L 28.24 -0.5715388344790896 L 28.24 -0.6081539858341307 L 28.24 -0.6371212479581461 L 28.24 -0.6580763407227289 L 28.24 -0.6707557416779368 L 28.24 -0.674999999999998 " stroke="#191919" stroke-width="0.35 px" style="stroke-width:0.35;stroke-miterlimit:4;stroke-dasharray:none;fill:none;fill-opacity:1;fill-rule: evenodd"/>
<path id="Shape2DView_nwe0052"  d="M 28.24 0.675000000000002 L 28.24 0.6707557416779407 L 28.24 0.6580763407227329 L 28.24 0.6371212479581501 L 28.24 0.6081539858341348 L 28.24 0.5715388344790938 L 28.24 0.527736250665922 L 28.24 0.4772970773009216 L 28.24 0.42085561625464707 L 28.24 0.35912165164785403 L 28.24 0.2928715239043536 L 28.24 0.22293836681973966 L 28.24 0.15020163042051413 L 28.24 0.07557602136973468 L 28.24 3.6791831908232925e-15 " stroke="#191919" stroke-width="0.35 px" style="stroke-width:0.35;stroke-miterlimit:4;stroke-dasharray:none;fill:none;fill-opacity:1;fill-rule: evenodd"/>
<path id="Shape2DView_nwe0053"  d="M 30.03 1.3207633540346309e-15 A 0.45 0.45 0 0 1 30.48 -0.45" stroke="#191919" stroke-width="0.35 px" style="stroke-width:0.35;stroke-miterlimit:4;stroke-dasharray:none;fill:none;fill-opacity:1;fill-rule: evenodd"/>
<path id="Shape2DView_nwe0054"  d="M 30.480000003194274 -0.44999999999999873 A 0.45 0.45 0 1 1 30.03 1.43098e-15" stroke="#191919" stroke-width="0.35 px" style="stroke-width:0.35;stroke-miterlimit:4;stroke-dasharray:none;fill:none;fill-opacity:1;fill-rule: evenodd"/>
<path id="Shape2DView_nwe0055"  d="M 0.899990547155 -0.44999999999999857 A 0.45 4.726422398253753e-06 -90.0 0 1 0.899990547155 0.45000000000000145 " stroke="#191919" stroke-width="0.35 px" style="stroke-width:0.35;stroke-miterlimit:4;stroke-dasharray:none;fill:none;fill-opacity:1;fill-rule: evenodd"/>
<path id="Shape2DView_nwe0056"  d="M 29.58 0.45000000000000145 A 0.45 4.726422398199753e-06 89.99999999999999 0 0 29.58 -0.44999999999999857 " stroke="#191919" stroke-width="0.35 px" style="stroke-width:0.35;stroke-miterlimit:4;stroke-dasharray:none;fill:none;fill-opacity:1;fill-rule: evenodd"/>
<path id="Shape2DView_nwe0057"  d="M 2.6299999999929753 6.0618177144455365e-15 L 2.600129948464712 5.879960228527481e-15 L 2.570569427591522 5.698080301280741e-15 L 2.5413184753683993 5.516178166480811e-15 L 2.5123771293923767 5.334254057931721e-15 L 2.483745426862697 5.152308209465742e-15 L 2.4554234045804435 4.9703408549430924e-15 L 2.4274110989487383 4.788352228251633e-15 L 2.399708545972601 4.60634256330657e-15 L 2.3723157812589193 4.424312094050133e-15 L 2.3452328400163935 4.242261054451314e-15 L 2.318459757055507 4.060189678505534e-15 L 2.291996566788441 3.878098200234356e-15 L 2.2658433032291896 3.6959868536851725e-15 L 2.239999999993131 3.513855872930712e-15 " stroke="#191919" stroke-width="0.35 px" style="stroke-width:0.35;stroke-miterlimit:4;stroke-dasharray:none;fill:none;fill-opacity:1;fill-rule: evenodd"/>
<path id="Shape2DView_nwe0058"  d="M 2.63 6.061817714453e-15 L 3.67 6.061817714453e-15 " stroke="#191919" stroke-width="0.35 px" style="stroke-width:0.35;stroke-miterlimit:4;stroke-dasharray:none;fill:none;fill-opacity:1;fill-rule: evenodd"/>
<path id="Shape2DView_nwe0059"  d="M 3.669999999999739 6.061817714452794e-15 L 3.674094355068407 6.0293202278432644e-15 L 3.6797770685450804 5.996928937816061e-15 L 3.687042098424522 5.964678283613069e-15 L 3.6958817203425225 5.932602554948596e-15 L 3.7062865357886463 5.900735855551676e-15 L 3.7182454820989586 5.869112066906121e-15 L 3.7317458442181373 5.83776481222686e-15 L 3.7467732682184383 5.806727420710894e-15 L 3.763311776561158 5.7760328921008395e-15 L 3.781343785084357 5.745713861598767e-15 L 3.8008501216987893 5.715802565167628e-15 L 3.8218100467721516 5.686330805257156e-15 L 3.844201275179989 5.657329916990697e-15 L 3.867999999999803 5.6288307348489145e-15 " stroke="#191919" stroke-width="0.35 px" style="stroke-width:0.35;stroke-miterlimit:4;stroke-dasharray:none;fill:none;fill-opacity:1;fill-rule: evenodd"/>
<path id="Shape2DView_nwe0060"  d="M 3.868 5.62883073485e-15 L 6.204707655826 5.62883073485e-15 " stroke="#191919" stroke-width="0.35 px" style="stroke-width:0.35;stroke-miterlimit:4;stroke-dasharray:none;fill:none;fill-opacity:1;fill-rule: evenodd"/>
<path id="Shape2DView_nwe0061"  d="M 7.27950287048987 5.628830734849722e-15 L 7.248734111400833 5.697587894020355e-15 L 7.1983491273092195 5.7610004560235804e-15 L 7.130298780642465 5.816613142032382e-15 L 7.047217921185277 5.862272677582563e-15 L 6.952323367005107 5.896211165472908e-15 L 6.849289352075746 5.917114537195445e-15 L 6.742105263157905 5.924173432516458e-15 L 6.634921174240067 5.91711453719542e-15 L 6.531887159310717 5.896211165472859e-15 L 6.436992605130564 5.862272677582493e-15 L 6.3539117456734004 5.816613142032292e-15 L 6.285861399006675 5.761000456023475e-15 L 6.2354764149150945 5.697587894020239e-15 L 6.204707655826093 5.6288307348495984e-15 " stroke="#191919" stroke-width="0.35 px" style="stroke-width:0.35;stroke-miterlimit:4;stroke-dasharray:none;fill:none;fill-opacity:1;fill-rule: evenodd"/>
<path id="Shape2DView_nwe0062"  d="M 7.279502870489 5.62883073485e-15 L 8.394181340037 5.62883073485e-15 " stroke="#191919" stroke-width="0.35 px" style="stroke-width:0.35;stroke-miterlimit:4;stroke-dasharray:none;fill:none;fill-opacity:1;fill-rule: evenodd"/>
<path id="Shape2DView_nwe0063"  d="M 9.468976554699905 5.6288307348495984e-15 L 9.438207795610904 5.697587894020239e-15 L 9.387822811519323 5.761000456023475e-15 L 9.3197724648526 5.816613142032292e-15 L 9.236691605395436 5.862272677582493e-15 L 9.141797051215281 5.896211165472859e-15 L 9.038763036285932 5.91711453719542e-15 L 8.931578947368093 5.924173432516458e-15 L 8.824394858450253 5.917114537195445e-15 L 8.721360843520891 5.896211165472908e-15 L 8.626466289340721 5.862272677582563e-15 L 8.543385429883534 5.816613142032382e-15 L 8.47533508321678 5.7610004560235804e-15 L 8.424950099125166 5.697587894020355e-15 L 8.394181340036129 5.628830734849722e-15 " stroke="#191919" stroke-width="0.35 px" style="stroke-width:0.35;stroke-miterlimit:4;stroke-dasharray:none;fill:none;fill-opacity:1;fill-rule: evenodd"/>
<path id="Shape2DView_nwe0064"  d="M 9.4689765547 5.62883073485e-15 L 10.583655024247 5.62883073485e-15 " stroke="#191919" stroke-width="0.35 px" style="stroke-width:0.35;stroke-miterlimit:4;stroke-dasharray:none;fill:none;fill-opacity:1;fill-rule: evenodd"/>
<path id="Shape2DView_nwe0065"  d="M 11.65845023891087 5.628830734849722e-15 L 11.627681479821833 5.697587894020355e-15 L 11.577296495730218 5.7610004560235804e-15 L 11.509246149063465 5.816613142032382e-15 L 11.426165289606278 5.862272677582563e-15 L 11.331270735426106 5.896211165472908e-15 L 11.228236720496746 5.917114537195445e-15 L 11.121052631578905 5.924173432516458e-15 L 11.013868542661067 5.91711453719542e-15 L 10.910834527731717 5.896211165472859e-15 L 10.815939973551563 5.862272677582493e-15 L 10.7328591140944 5.816613142032292e-15 L 10.664808767427676 5.761000456023475e-15 L 10.614423783336095 5.697587894020239e-15 L 10.583655024247093 5.6288307348495984e-15 " stroke="#191919" stroke-width="0.35 px" style="stroke-width:0.35;stroke-miterlimit:4;stroke-dasharray:none;fill:none;fill-opacity:1;fill-rule: evenodd"/>
<path id="Shape2DView_nwe0066"  d="M 11.65845023891 5.62883073485e-15 L 12.773128708458 5.62883073485e-15 " stroke="#191919" stroke-width="0.35 px" style="stroke-width:0.35;stroke-miterlimit:4;stroke-dasharray:none;fill:none;fill-opacity:1;fill-rule: evenodd"/>
<path id="Shape2DView_nwe0067"  d="M 13.847923923120906 5.6288307348495984e-15 L 13.817155164031904 5.697587894020239e-15 L 13.766770179940323 5.761000456023475e-15 L 13.6987198332736 5.816613142032292e-15 L 13.615638973816434 5.862272677582493e-15 L 13.520744419636282 5.896211165472859e-15 L 13.417710404706932 5.91711453719542e-15 L 13.310526315789094 5.924173432516458e-15 L 13.203342226871253 5.917114537195445e-15 L 13.100308211941892 5.896211165472908e-15 L 13.005413657761721 5.862272677582563e-15 L 12.922332798304534 5.816613142032382e-15 L 12.854282451637781 5.7610004560235804e-15 L 12.803897467546166 5.697587894020355e-15 L 12.77312870845713 5.628830734849722e-15 " stroke="#191919" stroke-width="0.35 px" style="stroke-width:0.35;stroke-miterlimit:4;stroke-dasharray:none;fill:none;fill-opacity:1;fill-rule: evenodd"/>
<path id="Shape2DView_nwe0068"  d="M 13.847923923121 5.62883073485e-15 L 14.962602392668 5.62883073485e-15 " stroke="#191919" stroke-width="0.35 px" style="stroke-width:0.35;stroke-miterlimit:4;stroke-dasharray:none;fill:none;fill-opacity:1;fill-rule: evenodd"/>
<path id="Shape2DView_nwe0069"  d="M 16.037397607331908 5.6288307348495984e-15 L 16.0066288482429 5.697587894020247e-15 L 15.95624386415131 5.76100045602349e-15 L 15.88819351748457 5.816613142032311e-15 L 15.80511265802739 5.862272677582513e-15 L 15.71021810384722 5.8962111654728766e-15 L 15.607184088917853 5.917114537195431e-15 L 15.5 5.924173432516458e-15 L 15.392815911082147 5.917114537195431e-15 L 15.28978189615278 5.8962111654728766e-15 L 15.19488734197261 5.862272677582514e-15 L 15.11180648251543 5.816613142032311e-15 L 15.04375613584869 5.76100045602349e-15 L 14.993371151757101 5.697587894020247e-15 L 14.962602392668094 5.6288307348495984e-15 " stroke="#191919" stroke-width="0.35 px" style="stroke-width:0.35;stroke-miterlimit:4;stroke-dasharray:none;fill:none;fill-opacity:1;fill-rule: evenodd"/>
<path id="Shape2DView_nwe0070"  d="M 16.037397607332 5.62883073485e-15 L 17.152076076879 5.62883073485e-15 " stroke="#191919" stroke-width="0.35 px" style="stroke-width:0.35;stroke-miterlimit:4;stroke-dasharray:none;fill:none;fill-opacity:1;fill-rule: evenodd"/>
<path id="Shape2DView_nwe0071"  d="M 18.22687129154287 5.628830734849722e-15 L 18.196102532453832 5.697587894020355e-15 L 18.145717548362217 5.76100045602358e-15 L 18.077667201695466 5.816613142032381e-15 L 17.994586342238275 5.862272677582563e-15 L 17.899691788058107 5.896211165472907e-15 L 17.796657773128747 5.917114537195445e-15 L 17.689473684210903 5.924173432516458e-15 L 17.582289595293066 5.91711453719542e-15 L 17.479255580363716 5.896211165472859e-15 L 17.384361026183562 5.862272677582493e-15 L 17.3012801667264 5.816613142032292e-15 L 17.233229820059673 5.761000456023475e-15 L 17.182844835968094 5.697587894020239e-15 L 17.15207607687909 5.6288307348495984e-15 " stroke="#191919" stroke-width="0.35 px" style="stroke-width:0.35;stroke-miterlimit:4;stroke-dasharray:none;fill:none;fill-opacity:1;fill-rule: evenodd"/>
<path id="Shape2DView_nwe0072"  d="M 18.226871291542 5.62883073485e-15 L 19.34154976109 5.62883073485e-15 " stroke="#191919" stroke-width="0.35 px" style="stroke-width:0.35;stroke-miterlimit:4;stroke-dasharray:none;fill:none;fill-opacity:1;fill-rule: evenodd"/>
<path id="Shape2DView_nwe0073"  d="M 20.416344975752907 5.6288307348495984e-15 L 20.385576216663903 5.697587894020239e-15 L 20.335191232572324 5.761000456023475e-15 L 20.267140885905597 5.816613142032292e-15 L 20.184060026448435 5.862272677582493e-15 L 20.08916547226828 5.896211165472859e-15 L 19.98613145733893 5.91711453719542e-15 L 19.878947368421095 5.924173432516458e-15 L 19.77176327950325 5.917114537195445e-15 L 19.66872926457389 5.896211165472908e-15 L 19.573834710393722 5.862272677582564e-15 L 19.49075385093653 5.816613142032382e-15 L 19.42270350426978 5.7610004560235804e-15 L 19.372318520178165 5.697587894020356e-15 L 19.341549761089126 5.628830734849722e-15 " stroke="#191919" stroke-width="0.35 px" style="stroke-width:0.35;stroke-miterlimit:4;stroke-dasharray:none;fill:none;fill-opacity:1;fill-rule: evenodd"/>
<path id="Shape2DView_nwe0074"  d="M 20.416344975753 5.62883073485e-15 L 21.5310234453 5.62883073485e-15 " stroke="#191919" stroke-width="0.35 px" style="stroke-width:0.35;stroke-miterlimit:4;stroke-dasharray:none;fill:none;fill-opacity:1;fill-rule: evenodd"/>
<path id="Shape2DView_nwe0075"  d="M 22.605818659963873 5.628830734849722e-15 L 22.575049900874834 5.697587894020356e-15 L 22.52466491678322 5.7610004560235804e-15 L 22.456614570116468 5.816613142032382e-15 L 22.373533710659277 5.862272677582564e-15 L 22.27863915647911 5.896211165472908e-15 L 22.17560514154975 5.917114537195445e-15 L 22.068421052631905 5.924173432516458e-15 L 21.961236963714068 5.91711453719542e-15 L 21.85820294878472 5.896211165472859e-15 L 21.763308394604564 5.862272677582493e-15 L 21.680227535147402 5.816613142032292e-15 L 21.612177188480675 5.761000456023475e-15 L 21.561792204389096 5.697587894020239e-15 L 21.531023445300093 5.6288307348495984e-15 " stroke="#191919" stroke-width="0.35 px" style="stroke-width:0.35;stroke-miterlimit:4;stroke-dasharray:none;fill:none;fill-opacity:1;fill-rule: evenodd"/>
<path id="Shape2DView_nwe0076"  d="M 22.605818659963 5.62883073485e-15 L 23.720497129511 5.62883073485e-15 " stroke="#191919" stroke-width="0.35 px" style="stroke-width:0.35;stroke-miterlimit:4;stroke-dasharray:none;fill:none;fill-opacity:1;fill-rule: evenodd"/>
<path id="Shape2DView_nwe0077"  d="M 24.79529234417391 5.6288307348495984e-15 L 24.764523585084905 5.697587894020239e-15 L 24.714138600993326 5.761000456023475e-15 L 24.6460882543266 5.816613142032292e-15 L 24.563007394869437 5.862272677582493e-15 L 24.468112840689283 5.896211165472859e-15 L 24.365078825759934 5.91711453719542e-15 L 24.257894736842097 5.924173432516458e-15 L 24.150710647924253 5.917114537195445e-15 L 24.047676632994893 5.896211165472907e-15 L 23.952782078814725 5.862272677582563e-15 L 23.869701219357534 5.816613142032382e-15 L 23.801650872690782 5.76100045602358e-15 L 23.751265888599168 5.697587894020355e-15 L 23.72049712951013 5.628830734849722e-15 " stroke="#191919" stroke-width="0.35 px" style="stroke-width:0.35;stroke-miterlimit:4;stroke-dasharray:none;fill:none;fill-opacity:1;fill-rule: evenodd"/>
<path id="Shape2DView_nwe0078"  d="M 24.795292344174 5.62883073485e-15 L 26.29 5.62883073485e-15 " stroke="#191919" stroke-width="0.35 px" style="stroke-width:0.35;stroke-miterlimit:4;stroke-dasharray:none;fill:none;fill-opacity:1;fill-rule: evenodd"/>
<path id="Shape2DView_nwe0079"  d="M 26.289999999999726 5.6288307348499865e-15 L 26.335589068599223 5.654687707912512e-15 L 26.380019715747665 5.6814244991572425e-15 L 26.42325369097473 5.709018090804651e-15 L 26.465253774028344 5.737444727453316e-15 L 26.505983806917715 5.766679936531005e-15 L 26.54540872504184 5.7966985493631865e-15 L 26.583494587376727 5.82747472284081e-15 L 26.620208605695318 5.858981961668716e-15 L 26.655519172794964 5.8911931411755065e-15 L 26.689395889708152 5.924080530665255e-15 L 26.721809591873072 5.957615817290937e-15 L 26.752732374241468 5.991770130429048e-15 L 26.782137615302165 6.026514066534398e-15 L 26.80999999999962 6.061817714453711e-15 " stroke="#191919" stroke-width="0.35 px" style="stroke-width:0.35;stroke-miterlimit:4;stroke-dasharray:none;fill:none;fill-opacity:1;fill-rule: evenodd"/>
<path id="Shape2DView_nwe0080"  d="M 26.81 6.061817714453e-15 L 27.85 6.061817714453e-15 " stroke="#191919" stroke-width="0.35 px" style="stroke-width:0.35;stroke-miterlimit:4;stroke-dasharray:none;fill:none;fill-opacity:1;fill-rule: evenodd"/>
<path id="Shape2DView_nwe0081"  d="M 28.240000000056313 3.5138558729337885e-15 L 28.214156696820282 3.695986853688088e-15 L 28.188003433260974 3.8780982002373225e-15 L 28.161540242993937 4.060189678508557e-15 L 28.13476716003302 4.242261054454391e-15 L 28.107684218790496 4.42431209405326e-15 L 28.080291454076757 4.606342563309747e-15 L 28.05258890110062 4.788352228254867e-15 L 28.024576595468886 4.9703408549463804e-15 L 27.996254573186633 5.152308209469081e-15 L 27.967622870656896 5.3342540579351096e-15 L 27.938681524680902 5.5161781664842536e-15 L 27.90943057245775 5.6980803012842376e-15 L 27.87987005158456 5.8799602285310276e-15 L 27.85000000005624 6.061817714449146e-15 " stroke="#191919" stroke-width="0.35 px" style="stroke-width:0.35;stroke-miterlimit:4;stroke-dasharray:none;fill:none;fill-opacity:1;fill-rule: evenodd"/>
<path id="Shape2DView_nwe0082"  d="M 2.6299999999929753 -4.500000000000767 L 2.239999999993131 -0.6750000000006651 " stroke="#191919" stroke-width="0.35 px" style="stroke-width:0.35;stroke-miterlimit:4;stroke-dasharray:none;fill:none;fill-opacity:1;fill-rule: evenodd"/>
<path id="Shape2DView_nwe0083"  d="M 2.6299999999929753 4.500000000000771 L 2.239999999993131 0.6750000000006686 " stroke="#191919" stroke-width="0.35 px" style="stroke-width:0.35;stroke-miterlimit:4;stroke-dasharray:none;fill:none;fill-opacity:1;fill-rule: evenodd"/>
<path id="Shape2DView_nwe0084"  d="M 2.63 -4.499999999999998 L 3.67 -4.499999999999998 " stroke="#191919" stroke-width="0.35 px" style="stroke-width:0.35;stroke-miterlimit:4;stroke-dasharray:none;fill:none;fill-opacity:1;fill-rule: evenodd"/>
<path id="Shape2DView_nwe0085"  d="M 2.63 4.500000000000002 L 3.67 4.500000000000002 " stroke="#191919" stroke-width="0.35 px" style="stroke-width:0.35;stroke-miterlimit:4;stroke-dasharray:none;fill:none;fill-opacity:1;fill-rule: evenodd"/>
<path id="Shape2DView_nwe0086"  d="M 3.669999999999739 -4.4999999999999805 L 3.867999999999803 -3.849999999999884 " stroke="#191919" stroke-width="0.35 px" style="stroke-width:0.35;stroke-miterlimit:4;stroke-dasharray:none;fill:none;fill-opacity:1;fill-rule: evenodd"/>
<path id="Shape2DView_nwe0087"  d="M 3.669999999999739 4.499999999999984 L 3.867999999999803 3.8499999999998877 " stroke="#191919" stroke-width="0.35 px" style="stroke-width:0.35;stroke-miterlimit:4;stroke-dasharray:none;fill:none;fill-opacity:1;fill-rule: evenodd"/>
<path id="Shape2DView_nwe0088"  d="M 0.8999905471549999 -0.44999999999999857 L 2.24 -0.44999999999999857 " stroke="#191919" stroke-width="0.35 px" style="stroke-width:0.35;stroke-miterlimit:4;stroke-dasharray:none;fill:none;fill-opacity:1;fill-rule: evenodd"/>
<path id="Shape2DView_nwe0089"  d="M 0.8999905471550002 0.45000000000000145 L 2.24 0.45000000000000145 " stroke="#191919" stroke-width="0.35 px" style="stroke-width:0.35;stroke-miterlimit:4;stroke-dasharray:none;fill:none;fill-opacity:1;fill-rule: evenodd"/>
<path id="Shape2DView_nwe0090"  d="M 3.868 -3.849999999999998 L 6.204707655826 -3.849999999999998 " stroke="#191919" stroke-width="0.35 px" style="stroke-width:0.35;stroke-miterlimit:4;stroke-dasharray:none;fill:none;fill-opacity:1;fill-rule: evenodd"/>
<path id="Shape2DView_nwe0091"  d="M 3.868 3.8500000000000023 L 6.204707655826 3.8500000000000023 " stroke="#191919" stroke-width="0.35 px" style="stroke-width:0.35;stroke-miterlimit:4;stroke-dasharray:none;fill:none;fill-opacity:1;fill-rule: evenodd"/>
<path id="Shape2DView_nwe0092"  d="M 0.8999905471547959 -0.4499999999999985 Q 0.08001076733257845 -0.4499999999999987 1.4432899320127035e-14 -0.44999999999999873 " stroke="#191919" stroke-width="0.35 px" style="stroke-width:0.35;stroke-miterlimit:4;stroke-dasharray:none;fill:none;fill-opacity:1;fill-rule: evenodd"/>
<path id="Shape2DView_nwe0093"  d="M 0.8999905471547959 0.4500000000000015 Q 0.0800107673360238 0.4500000000000014 -1.454392162258955e-14 0.4500000000000013 " stroke="#191919" stroke-width="0.35 px" style="stroke-width:0.35;stroke-miterlimit:4;stroke-dasharray:none;fill:none;fill-opacity:1;fill-rule: evenodd"/>
<path id="Shape2DView_nwe0094"  d="M 7.27950287048987 3.85000000000017 Q 7.200007593770847 4.1844569988292895 6.8693101279467506 4.278382553422675 Q 6.695638984723935 4.262766466999761 6.5219678415011195 4.247150380576846 Q 6.265817668290664 4.126478272645339 6.204707655826093 3.8499999999999837 " stroke="#191919" stroke-width="0.35 px" style="stroke-width:0.35;stroke-miterlimit:4;stroke-dasharray:none;fill:none;fill-opacity:1;fill-rule: evenodd"/>
<path id="Shape2DView_nwe0095"  d="M 7.27950287048987 -3.8500000000001666 Q 7.200007593770813 -4.184456998829315 6.8693101279467506 -4.278382553422675 Q 6.695638984723935 -4.262766466999759 6.5219678415011195 -4.2471503805768425 Q 6.265817668290664 -4.126478272645335 6.204707655826093 -3.84999999999998 " stroke="#191919" stroke-width="0.35 px" style="stroke-width:0.35;stroke-miterlimit:4;stroke-dasharray:none;fill:none;fill-opacity:1;fill-rule: evenodd"/>
<path id="Shape2DView_nwe0096"  d="M 7.279502870489 -3.849999999999998 L 8.394181340037 -3.849999999999998 " stroke="#191919" stroke-width="0.35 px" style="stroke-width:0.35;stroke-miterlimit:4;stroke-dasharray:none;fill:none;fill-opacity:1;fill-rule: evenodd"/>
<path id="Shape2DView_nwe0097"  d="M 7.279502870489 3.8500000000000023 L 8.394181340037 3.8500000000000023 " stroke="#191919" stroke-width="0.35 px" style="stroke-width:0.35;stroke-miterlimit:4;stroke-dasharray:none;fill:none;fill-opacity:1;fill-rule: evenodd"/>
<path id="Shape2DView_nwe0098"  d="M 9.468976554699905 3.8499999999999837 Q 9.382983718580062 4.202767237908836 9.029225405510434 4.284588694376177 Q 8.891428802779918 4.274112402723627 8.753632200049399 4.263636111071076 Q 8.463293519354973 4.1529412590578 8.394181340036129 3.85000000000017 " stroke="#191919" stroke-width="0.35 px" style="stroke-width:0.35;stroke-miterlimit:4;stroke-dasharray:none;fill:none;fill-opacity:1;fill-rule: evenodd"/>
<path id="Shape2DView_nwe0099"  d="M 9.468976554699905 -3.84999999999998 Q 9.382983718580086 -4.202767237908808 9.029225405510438 -4.284588694376174 Q 8.891428802779918 -4.274112402723623 8.753632200049399 -4.263636111071072 Q 8.46329351935497 -4.152941259057795 8.394181340036129 -3.8500000000001666 " stroke="#191919" stroke-width="0.35 px" style="stroke-width:0.35;stroke-miterlimit:4;stroke-dasharray:none;fill:none;fill-opacity:1;fill-rule: evenodd"/>
<path id="Shape2DView_nwe0100"  d="M 9.4689765547 -3.849999999999998 L 10.583655024247 -3.849999999999998 " stroke="#191919" stroke-width="0.35 px" style="stroke-width:0.35;stroke-miterlimit:4;stroke-dasharray:none;fill:none;fill-opacity:1;fill-rule: evenodd"/>
<path id="Shape2DView_nwe0101"  d="M 9.4689765547 3.8500000000000023 L 10.583655024247 3.8500000000000023 " stroke="#191919" stroke-width="0.35 px" style="stroke-width:0.35;stroke-miterlimit:4;stroke-dasharray:none;fill:none;fill-opacity:1;fill-rule: evenodd"/>
<path id="Shape2DView_nwe0102"  d="M 11.65845023891087 3.85000000000017 Q 11.582044600242096 4.1753835318475545 11.262897071483337 4.274670409611128 Q 11.081906140702728 4.260910395093987 10.900915209922118 4.247150380576846 Q 10.644765036711664 4.126478272645339 10.583655024247093 3.849999999999983 " stroke="#191919" stroke-width="0.35 px" style="stroke-width:0.35;stroke-miterlimit:4;stroke-dasharray:none;fill:none;fill-opacity:1;fill-rule: evenodd"/>
<path id="Shape2DView_nwe0103"  d="M 11.65845023891087 -3.8500000000001666 Q 11.582044600242122 -4.175383531847529 11.262897071483334 -4.274670409611124 Q 11.081906140702728 -4.260910395093983 10.900915209922118 -4.2471503805768425 Q 10.644765036711664 -4.126478272645335 10.583655024247093 -3.8499999999999797 " stroke="#191919" stroke-width="0.35 px" style="stroke-width:0.35;stroke-miterlimit:4;stroke-dasharray:none;fill:none;fill-opacity:1;fill-rule: evenodd"/>
<path id="Shape2DView_nwe0104"  d="M 11.65845023891 -3.849999999999998 L 12.773128708458 -3.849999999999998 " stroke="#191919" stroke-width="0.35 px" style="stroke-width:0.35;stroke-miterlimit:4;stroke-dasharray:none;fill:none;fill-opacity:1;fill-rule: evenodd"/>
<path id="Shape2DView_nwe0105"  d="M 11.65845023891 3.8500000000000023 L 12.773128708458 3.8500000000000023 " stroke="#191919" stroke-width="0.35 px" style="stroke-width:0.35;stroke-miterlimit:4;stroke-dasharray:none;fill:none;fill-opacity:1;fill-rule: evenodd"/>
<path id="Shape2DView_nwe0106"  d="M 13.847923923120906 3.8499999999999837 Q 13.761931087001068 4.202767237908832 13.408172773931437 4.284588694376179 Q 13.27037617120092 4.2741124027236275 13.1325795684704 4.263636111071076 Q 12.84224088777598 4.1529412590578 12.77312870845713 3.85000000000017 " stroke="#191919" stroke-width="0.35 px" style="stroke-width:0.35;stroke-miterlimit:4;stroke-dasharray:none;fill:none;fill-opacity:1;fill-rule: evenodd"/>
<path id="Shape2DView_nwe0107"  d="M 13.847923923120906 -3.84999999999998 Q 13.76193108700109 -4.202767237908806 13.408172773931437 -4.284588694376174 Q 13.270376171200919 -4.274112402723623 13.1325795684704 -4.263636111071072 Q 12.842240887775974 -4.152941259057795 12.77312870845713 -3.8500000000001666 " stroke="#191919" stroke-width="0.35 px" style="stroke-width:0.35;stroke-miterlimit:4;stroke-dasharray:none;fill:none;fill-opacity:1;fill-rule: evenodd"/>
<path id="Shape2DView_nwe0108"  d="M 13.847923923121 -3.849999999999998 L 14.962602392668 -3.849999999999998 " stroke="#191919" stroke-width="0.35 px" style="stroke-width:0.35;stroke-miterlimit:4;stroke-dasharray:none;fill:none;fill-opacity:1;fill-rule: evenodd"/>
<path id="Shape2DView_nwe0109"  d="M 13.847923923121 3.8500000000000023 L 14.962602392668 3.8500000000000023 " stroke="#191919" stroke-width="0.35 px" style="stroke-width:0.35;stroke-miterlimit:4;stroke-dasharray:none;fill:none;fill-opacity:1;fill-rule: evenodd"/>
<path id="Shape2DView_nwe0110"  d="M 16.037397607331908 3.8499999999999837 Q 15.930961002915145 4.0183952316129945 15.824524398498387 4.186790463226005 Q 15.736824412874045 4.229726844198747 15.6491244272497 4.272663225171492 Q 15.567011490012833 4.282911644138579 15.48489855277597 4.293160063105667 Q 15.068842339086626 4.254150461749635 14.962602392668094 3.8499999999999837 " stroke="#191919" stroke-width="0.35 px" style="stroke-width:0.35;stroke-miterlimit:4;stroke-dasharray:none;fill:none;fill-opacity:1;fill-rule: evenodd"/>
<path id="Shape2DView_nwe0111"  d="M 16.037397607331908 -3.84999999999998 Q 15.930961002915145 -4.018395231612992 15.824524398498387 -4.186790463226004 Q 15.736824412874041 -4.229726844198746 15.6491244272497 -4.272663225171488 Q 15.567011490012835 -4.282911644138576 15.484898552775968 -4.293160063105663 Q 15.068842339086627 -4.25415046174963 14.962602392668092 -3.8499999999999797 " stroke="#191919" stroke-width="0.35 px" style="stroke-width:0.35;stroke-miterlimit:4;stroke-dasharray:none;fill:none;fill-opacity:1;fill-rule: evenodd"/>
<path id="Shape2DView_nwe0112"  d="M 16.037397607332 -3.849999999999998 L 17.152076076879 -3.849999999999998 " stroke="#191919" stroke-width="0.35 px" style="stroke-width:0.35;stroke-miterlimit:4;stroke-dasharray:none;fill:none;fill-opacity:1;fill-rule: evenodd"/>
<path id="Shape2DView_nwe0113"  d="M 16.037397607332 3.8500000000000023 L 17.152076076879 3.8500000000000023 " stroke="#191919" stroke-width="0.35 px" style="stroke-width:0.35;stroke-miterlimit:4;stroke-dasharray:none;fill:none;fill-opacity:1;fill-rule: evenodd"/>
<path id="Shape2DView_nwe0114"  d="M 18.22687129154287 3.8500000000001706 Q 18.132344052927174 4.009109717965564 18.037816814311476 4.168219435930958 Q 17.552329409654025 4.473808511858778 17.2113547587768 4.012485424568965 Q 17.181715417827945 3.931242712284474 17.15207607687909 3.8499999999999837 " stroke="#191919" stroke-width="0.35 px" style="stroke-width:0.35;stroke-miterlimit:4;stroke-dasharray:none;fill:none;fill-opacity:1;fill-rule: evenodd"/>
<path id="Shape2DView_nwe0115"  d="M 18.22687129154287 -3.850000000000166 Q 18.132344052927174 -4.00910971796556 18.037816814311476 -4.168219435930954 Q 17.55232940965402 -4.473808511858774 17.2113547587768 -4.012485424568961 Q 17.181715417827945 -3.9312427122844706 17.15207607687909 -3.84999999999998 " stroke="#191919" stroke-width="0.35 px" style="stroke-width:0.35;stroke-miterlimit:4;stroke-dasharray:none;fill:none;fill-opacity:1;fill-rule: evenodd"/>
<path id="Shape2DView_nwe0116"  d="M 18.226871291542 -3.849999999999998 L 19.34154976109 -3.849999999999998 " stroke="#191919" stroke-width="0.35 px" style="stroke-width:0.35;stroke-miterlimit:4;stroke-dasharray:none;fill:none;fill-opacity:1;fill-rule: evenodd"/>
<path id="Shape2DView_nwe0117"  d="M 18.226871291542 3.8500000000000023 L 19.34154976109 3.8500000000000023 " stroke="#191919" stroke-width="0.35 px" style="stroke-width:0.35;stroke-miterlimit:4;stroke-dasharray:none;fill:none;fill-opacity:1;fill-rule: evenodd"/>
<path id="Shape2DView_nwe0118"  d="M 20.416344975752907 3.8499999999999837 Q 20.344011017967752 3.988640746939682 20.2716770601826 4.12728149387938 Q 19.93072582575995 4.427063851442607 19.54837282263253 4.182271312422442 Q 19.444961291860828 4.016135656211306 19.341549761089126 3.85000000000017 " stroke="#191919" stroke-width="0.35 px" style="stroke-width:0.35;stroke-miterlimit:4;stroke-dasharray:none;fill:none;fill-opacity:1;fill-rule: evenodd"/>
<path id="Shape2DView_nwe0119"  d="M 20.416344975752907 -3.84999999999998 Q 20.344011017967752 -3.9886407469396783 20.2716770601826 -4.1272814938793765 Q 19.93072582575995 -4.427063851442603 19.54837282263253 -4.182271312422438 Q 19.444961291860828 -4.016135656211302 19.341549761089126 -3.8500000000001666 " stroke="#191919" stroke-width="0.35 px" style="stroke-width:0.35;stroke-miterlimit:4;stroke-dasharray:none;fill:none;fill-opacity:1;fill-rule: evenodd"/>
<path id="Shape2DView_nwe0120"  d="M 20.416344975753 -3.849999999999998 L 21.5310234453 -3.849999999999998 " stroke="#191919" stroke-width="0.35 px" style="stroke-width:0.35;stroke-miterlimit:4;stroke-dasharray:none;fill:none;fill-opacity:1;fill-rule: evenodd"/>
<path id="Shape2DView_nwe0121"  d="M 20.416344975753 3.8500000000000023 L 21.5310234453 3.8500000000000023 " stroke="#191919" stroke-width="0.35 px" style="stroke-width:0.35;stroke-miterlimit:4;stroke-dasharray:none;fill:none;fill-opacity:1;fill-rule: evenodd"/>
<path id="Shape2DView_nwe0122"  d="M 22.605818659963873 3.8500000000001706 Q 22.583164708966947 3.917853984358551 22.560510757970018 3.985707968716932 Q 22.12990932568917 4.554781146045485 21.618225692239932 4.057345990575621 Q 21.574624568770012 3.953672995287802 21.531023445300093 3.8499999999999837 " stroke="#191919" stroke-width="0.35 px" style="stroke-width:0.35;stroke-miterlimit:4;stroke-dasharray:none;fill:none;fill-opacity:1;fill-rule: evenodd"/>
<path id="Shape2DView_nwe0123"  d="M 22.605818659963873 -3.850000000000166 Q 22.583164708966947 -3.9178539843585476 22.560510757970018 -3.9857079687169286 Q 22.12990932568917 -4.554781146045482 21.618225692239932 -4.057345990575618 Q 21.574624568770012 -3.9536729952877985 21.531023445300093 -3.84999999999998 " stroke="#191919" stroke-width="0.35 px" style="stroke-width:0.35;stroke-miterlimit:4;stroke-dasharray:none;fill:none;fill-opacity:1;fill-rule: evenodd"/>
<path id="Shape2DView_nwe0124"  d="M 22.605818659963 -3.849999999999998 L 23.720497129511 -3.849999999999998 " stroke="#191919" stroke-width="0.35 px" style="stroke-width:0.35;stroke-miterlimit:4;stroke-dasharray:none;fill:none;fill-opacity:1;fill-rule: evenodd"/>
<path id="Shape2DView_nwe0125"  d="M 22.605818659963 3.8500000000000023 L 23.720497129511 3.8500000000000023 " stroke="#191919" stroke-width="0.35 px" style="stroke-width:0.35;stroke-miterlimit:4;stroke-dasharray:none;fill:none;fill-opacity:1;fill-rule: evenodd"/>
<path id="Shape2DView_nwe0126"  d="M 24.79529234417391 3.8499999999999837 Q 24.722958386388754 3.988640746939682 24.650624428603603 4.12728149387938 Q 24.309673194180952 4.427063851442607 23.927320191053532 4.182271312422442 Q 23.823908660281834 4.016135656211306 23.72049712951013 3.85000000000017 " stroke="#191919" stroke-width="0.35 px" style="stroke-width:0.35;stroke-miterlimit:4;stroke-dasharray:none;fill:none;fill-opacity:1;fill-rule: evenodd"/>
<path id="Shape2DView_nwe0127"  d="M 24.79529234417391 -3.84999999999998 Q 24.722958386388754 -3.9886407469396783 24.650624428603603 -4.1272814938793765 Q 24.30967319418095 -4.427063851442603 23.927320191053532 -4.182271312422438 Q 23.82390866028183 -4.016135656211302 23.72049712951013 -3.8500000000001666 " stroke="#191919" stroke-width="0.35 px" style="stroke-width:0.35;stroke-miterlimit:4;stroke-dasharray:none;fill:none;fill-opacity:1;fill-rule: evenodd"/>
<path id="Shape2DView_nwe0128"  d="M 24.795292344174 -3.849999999999998 L 26.29 -3.849999999999998 " stroke="#191919" stroke-width="0.35 px" style="stroke-width:0.35;stroke-miterlimit:4;stroke-dasharray:none;fill:none;fill-opacity:1;fill-rule: evenodd"/>
<path id="Shape2DView_nwe0129"  d="M 24.795292344174 3.8500000000000023 L 26.29 3.8500000000000023 " stroke="#191919" stroke-width="0.35 px" style="stroke-width:0.35;stroke-miterlimit:4;stroke-dasharray:none;fill:none;fill-opacity:1;fill-rule: evenodd"/>
<path id="Shape2DView_nwe0130"  d="M 26.289999999999726 -3.8500000000003265 L 26.80999999999962 -4.50000000000019 " stroke="#191919" stroke-width="0.35 px" style="stroke-width:0.35;stroke-miterlimit:4;stroke-dasharray:none;fill:none;fill-opacity:1;fill-rule: evenodd"/>
<path id="Shape2DView_nwe0131"  d="M 26.289999999999726 3.85000000000033 L 26.80999999999962 4.500000000000194 " stroke="#191919" stroke-width="0.35 px" style="stroke-width:0.35;stroke-miterlimit:4;stroke-dasharray:none;fill:none;fill-opacity:1;fill-rule: evenodd"/>
<path id="Shape2DView_nwe0132"  d="M 26.81 -4.499999999999998 L 27.85 -4.499999999999998 " stroke="#191919" stroke-width="0.35 px" style="stroke-width:0.35;stroke-miterlimit:4;stroke-dasharray:none;fill:none;fill-opacity:1;fill-rule: evenodd"/>
<path id="Shape2DView_nwe0133"  d="M 26.81 4.500000000000002 L 27.85 4.500000000000002 " stroke="#191919" stroke-width="0.35 px" style="stroke-width:0.35;stroke-miterlimit:4;stroke-dasharray:none;fill:none;fill-opacity:1;fill-rule: evenodd"/>
<path id="Shape2DView_nwe0134"  d="M 28.240000000056313 -0.6750000000052836 L 27.85000000005624 -4.500000000006185 " stroke="#191919" stroke-width="0.35 px" style="stroke-width:0.35;stroke-miterlimit:4;stroke-dasharray:none;fill:none;fill-opacity:1;fill-rule: evenodd"/>
<path id="Shape2DView_nwe0135"  d="M 28.240000000056313 0.6750000000052871 L 27.85000000005624 4.500000000006189 " stroke="#191919" stroke-width="0.35 px" style="stroke-width:0.35;stroke-miterlimit:4;stroke-dasharray:none;fill:none;fill-opacity:1;fill-rule: evenodd"/>
<path id="Shape2DView_nwe0136"  d="M 28.239999999999995 -0.44999999999999857 L 29.58 -0.44999999999999857 " stroke="#191919" stroke-width="0.35 px" style="stroke-width:0.35;stroke-miterlimit:4;stroke-dasharray:none;fill:none;fill-opacity:1;fill-rule: evenodd"/>
<path id="Shape2DView_nwe0137"  d="M 28.24 0.45000000000000145 L 29.579999999999995 0.45000000000000145 " stroke="#191919" stroke-width="0.35 px" style="stroke-width:0.35;stroke-miterlimit:4;stroke-dasharray:none;fill:none;fill-opacity:1;fill-rule: evenodd"/>
<path id="Shape2DView_nwe0138"  d="M 29.580000000032896 0.4500000000000015 Q 30.399905375366686 0.45000000000000795 30.48000008408391 0.4499999999999935 " stroke="#191919" stroke-width="0.35 px" style="stroke-width:0.35;stroke-miterlimit:4;stroke-dasharray:none;fill:none;fill-opacity:1;fill-rule: evenodd"/>
<path id="Shape2DView_nwe0139"  d="M 29.5800000000329 -0.4499999999999985 Q 30.399961152423188 -0.4499999999999987 30.479999999981597 -0.44999999999999873 " stroke="#191919" stroke-width="0.35 px" style="stroke-width:0.35;stroke-miterlimit:4;stroke-dasharray:none;fill:none;fill-opacity:1;fill-rule: evenodd"/>
<path id="Shape2DView_nwe0140"  d="M 30.479999999981597 -0.44999999999999873 L 30.48000000319427 -0.44999999999999873 " stroke="#191919" stroke-width="0.35 px" style="stroke-width:0.35;stroke-miterlimit:4;stroke-dasharray:none;fill:none;fill-opacity:1;fill-rule: evenodd"/>
<title>b'Shape2DView'</title>
</g>
<g id="Rectangle" transform="translate(0.760471,4.813752) scale(1,-1)">
<rect fill="#ff0000" id="origin" width="1" height="1" x="0" y="0" />
<title>b'Rectangle'</title>
</g>
</svg>