<?xml version="1.0"?>
<!DOCTYPE svg PUBLIC "-//W3C//DTD SVG 1.1//EN" "http://www.w3.org/Graphics/SVG/1.1/DTD/svg11.dtd">
<svg width="21.42mm" height="10.42mm" viewBox="0 0 21.42 10.42" xmlns="http://www.w3.org/2000/svg" version="1.1">
<g id="Shape2DView" transform="translate(4.360000,2.670000) scale(1,-1)">
<path id="Shape2DView_nwe0000"  d="M -4.15 2.46 L 16.85 2.46 " stroke="#191919" stroke-width="0.35 px" style="stroke-width:0.35;stroke-miterlimit:4;stroke-dasharray:none;fill:none;fill-opacity:1;fill-rule: evenodd"/>
<path id="Shape2DView_nwe0001"  d="M 16.85 2.46 L 16.85 -0.37599999999999945 " stroke="#191919" stroke-width="0.35 px" style="stroke-width:0.35;stroke-miterlimit:4;stroke-dasharray:none;fill:none;fill-opacity:1;fill-rule: evenodd"/>
<path id="Shape2DView_nwe0002"  d="M 16.85 -4.704 L 16.85 -7.54 " stroke="#191919" stroke-width="0.35 px" style="stroke-width:0.35;stroke-miterlimit:4;stroke-dasharray:none;fill:none;fill-opacity:1;fill-rule: evenodd"/>
<path id="Shape2DView_nwe0003"  d="M 16.85 -7.54 L -4.149999999999999 -7.54 " stroke="#191919" stroke-width="0.35 px" style="stroke-width:0.35;stroke-miterlimit:4;stroke-dasharray:none;fill:none;fill-opacity:1;fill-rule: evenodd"/>
<path id="Shape2DView_nwe0004"  d="M -4.15 -7.54 L -4.15 -4.704 " stroke="#191919" stroke-width="0.35 px" style="stroke-width:0.35;stroke-miterlimit:4;stroke-dasharray:none;fill:none;fill-opacity:1;fill-rule: evenodd"/>
<path id="Shape2DView_nwe0005"  d="M -4.15 -0.37600000000000033 L -4.15 2.46 " stroke="#191919" stroke-width="0.35 px" style="stroke-width:0.35;stroke-miterlimit:4;stroke-dasharray:none;fill:none;fill-opacity:1;fill-rule: evenodd"/>
<path id="Shape2DView_nwe0006"  d="M -3.65 1.96 L 16.35 1.96 " stroke="#191919" stroke-width="0.35 px" style="stroke-width:0.35;stroke-miterlimit:4;stroke-dasharray:none;fill:none;fill-opacity:1;fill-rule: evenodd"/>
<path id="Shape2DView_nwe0007"  d="M 16.35 1.96 L 16.35 0.0 " stroke="#191919" stroke-width="0.35 px" style="stroke-width:0.35;stroke-miterlimit:4;stroke-dasharray:none;fill:none;fill-opacity:1;fill-rule: evenodd"/>
<path id="Shape2DView_nwe0008"  d="M 16.35 -5.08 L 16.35 -7.04 " stroke="#191919" stroke-width="0.35 px" style="stroke-width:0.35;stroke-miterlimit:4;stroke-dasharray:none;fill:none;fill-opacity:1;fill-rule: evenodd"/>
<path id="Shape2DView_nwe0009"  d="M 16.35 -7.04 L -3.6499999999999986 -7.04 " stroke="#191919" stroke-width="0.35 px" style="stroke-width:0.35;stroke-miterlimit:4;stroke-dasharray:none;fill:none;fill-opacity:1;fill-rule: evenodd"/>
<path id="Shape2DView_nwe0010"  d="M -3.65 -7.04 L -3.65 -5.08 " stroke="#191919" stroke-width="0.35 px" style="stroke-width:0.35;stroke-miterlimit:4;stroke-dasharray:none;fill:none;fill-opacity:1;fill-rule: evenodd"/>
<path id="Shape2DView_nwe0011"  d="M -3.65 0.0 L -3.65 1.96 " stroke="#191919" stroke-width="0.35 px" style="stroke-width:0.35;stroke-miterlimit:4;stroke-dasharray:none;fill:none;fill-opacity:1;fill-rule: evenodd"/>
<path id="Shape2DView_nwe0012"  d="M -3.774 0.0 A 0.376 0.376 0 0 1 -4.15 -0.376" stroke="#191919" stroke-width="0.35 px" style="stroke-width:0.35;stroke-miterlimit:4;stroke-dasharray:none;fill:none;fill-opacity:1;fill-rule: evenodd"/>
<path id="Shape2DView_nwe0013"  d="M -4.15 -0.376 L -4.15 -4.704 " stroke="#191919" stroke-width="0.35 px" style="stroke-width:0.35;stroke-miterlimit:4;stroke-dasharray:none;fill:none;fill-opacity:1;fill-rule: evenodd"/>
<path id="Shape2DView_nwe0014"  d="M -2.849968695599 -4.28 L -1.2017278764200001 -4.28 " stroke="#191919" stroke-width="0.35 px" style="stroke-width:0.35;stroke-miterlimit:4;stroke-dasharray:none;fill:none;fill-opacity:1;fill-rule: evenodd"/>
<path id="Shape2DView_nwe0015"  d="M -0.42073347302302544 -4.28 L 2.3500720006479994 -4.28 " stroke="#191919" stroke-width="0.35 px" style="stroke-width:0.35;stroke-miterlimit:4;stroke-dasharray:none;fill:none;fill-opacity:1;fill-rule: evenodd"/>
<path id="Shape2DView_nwe0016"  d="M -2.974 -4.28 L -2.849968695599 -4.28 " stroke="#191919" stroke-width="0.35 px" style="stroke-width:0.35;stroke-miterlimit:4;stroke-dasharray:none;fill:none;fill-opacity:1;fill-rule: evenodd"/>
<path id="Shape2DView_nwe0017"  d="M -2.849968695599 -0.8 L -2.9739999999999998 -0.8 " stroke="#191919" stroke-width="0.35 px" style="stroke-width:0.35;stroke-miterlimit:4;stroke-dasharray:none;fill:none;fill-opacity:1;fill-rule: evenodd"/>
<path id="Shape2DView_nwe0018"  d="M -2.974 -4.28 A 0.376 0.376 0 0 0 -3.35 -3.904" stroke="#191919" stroke-width="0.35 px" style="stroke-width:0.35;stroke-miterlimit:4;stroke-dasharray:none;fill:none;fill-opacity:1;fill-rule: evenodd"/>
<path id="Shape2DView_nwe0019"  d="M -3.35 -1.176 A 0.376 0.376 0 0 0 -2.974 -0.8" stroke="#191919" stroke-width="0.35 px" style="stroke-width:0.35;stroke-miterlimit:4;stroke-dasharray:none;fill:none;fill-opacity:1;fill-rule: evenodd"/>
<path id="Shape2DView_nwe0020"  d="M -3.35 -1.176 L -3.35 -3.904 " stroke="#191919" stroke-width="0.35 px" style="stroke-width:0.35;stroke-miterlimit:4;stroke-dasharray:none;fill:none;fill-opacity:1;fill-rule: evenodd"/>
<path id="Shape2DView_nwe0021"  d="M 9.161408941081302 -4.2799999999999985 L 9.020108629165893 -4.2799999999999985 L 8.872524496768015 -4.2799999999999985 L 8.719003867657166 -4.2799999999999985 L 8.559908036524938 -4.2799999999999985 L 8.395611418715868 -4.279999999999998 L 8.226500669080217 -4.279999999999998 L 8.052973772022346 -4.279999999999998 L 7.875439104886193 -4.279999999999998 L 7.694314476882029 -4.279999999999998 L 7.510026145816335 -4.279999999999998 L 7.3230078149387765 -4.279999999999998 L 7.133699612267117 -4.279999999999998 L 6.942547054792108 -4.279999999999998 L 6.75 -4.279999999999998 " stroke="#191919" stroke-width="0.35 px" style="stroke-width:0.35;stroke-miterlimit:4;stroke-dasharray:none;fill:none;fill-opacity:1;fill-rule: evenodd"/>
<path id="Shape2DView_nwe0022"  d="M 5.95 -4.279999999999998 L 5.757452945207895 -4.279999999999998 L 5.566300387732886 -4.279999999999998 L 5.376992185061226 -4.279999999999998 L 5.189973854183668 -4.279999999999998 L 5.0056855231179735 -4.279999999999998 L 4.82456089511381 -4.279999999999998 L 4.647026227977655 -4.279999999999998 L 4.473499330919784 -4.279999999999998 L 4.304388581284131 -4.279999999999998 L 4.140091963475061 -4.2799999999999985 L 3.9809961323428316 -4.2799999999999985 L 3.827475503231983 -4.2799999999999985 L 3.6798913708341052 -4.2799999999999985 L 3.538591058918697 -4.2799999999999985 " stroke="#191919" stroke-width="0.35 px" style="stroke-width:0.35;stroke-miterlimit:4;stroke-dasharray:none;fill:none;fill-opacity:1;fill-rule: evenodd"/>
<path id="Shape2DView_nwe0023"  d="M 6.749999999999998 -4.280000000000003 L 6.8526490365601544 -4.280000000000003 L 6.954962783583741 -4.280000000000003 L 7.056872993195343 -4.280000000000003 L 7.15831168669717 -4.280000000000003 L 7.2592111999138975 -4.280000000000003 L 7.359504228327732 -4.280000000000003 L 7.459123871973544 -4.280000000000003 L 7.558003680064159 -4.280000000000003 L 7.6560776953160286 -4.280000000000003 L 7.7532804979457 -4.280000000000003 L 7.849547249307766 -4.280000000000003 L 7.944813735145152 -4.280000000000003 L 8.039016408422922 -4.280000000000003 L 8.132092431717 -4.280000000000003 " stroke="#191919" stroke-width="0.35 px" style="stroke-width:0.35;stroke-miterlimit:4;stroke-dasharray:none;fill:none;fill-opacity:1;fill-rule: evenodd"/>
<path id="Shape2DView_nwe0024"  d="M -1.2017278764199988 -0.7999999999999966 L -1.421791300234684 -0.7999999999999968 L -1.6273286084949428 -0.799999999999997 L -1.8179556351089179 -0.7999999999999973 L -1.9933160825244247 -0.7999999999999975 L -2.1530821876782973 -0.7999999999999977 L -2.296955334612454 -0.7999999999999979 L -2.424666612611613 -0.7999999999999983 L -2.5359773188194925 -0.7999999999999985 L -2.6306794043940194 -0.7999999999999987 L -2.7085958633676963 -0.799999999999999 L -2.769581063486269 -0.7999999999999993 L -2.8135210184073607 -0.7999999999999995 L -2.840333600750295 -0.7999999999999998 L -2.849968695598914 -0.8 " stroke="#191919" stroke-width="0.35 px" style="stroke-width:0.35;stroke-miterlimit:4;stroke-dasharray:none;fill:none;fill-opacity:1;fill-rule: evenodd"/>
<path id="Shape2DView_nwe0025"  d="M -0.17233831927063115 -4.279999999999996 L -0.1761935102592238 -4.279999999999996 L -0.18004639588941984 -4.279999999999996 L -0.18389697480019862 -4.279999999999996 L -0.18774524563135309 -4.279999999999996 L -0.19159120702349597 -4.279999999999996 L -0.1954348576180518 -4.279999999999996 L -0.19927619605726132 -4.279999999999996 L -0.20311522098418333 -4.279999999999996 L -0.2069519310426955 -4.279999999999996 L -0.21078632487748994 -4.279999999999996 L -0.2146184011340786 -4.279999999999996 L -0.21844815845879229 -4.279999999999996 L -0.22227559549877984 -4.279999999999996 L -0.22610071090202055 -4.279999999999996 " stroke="#191919" stroke-width="0.35 px" style="stroke-width:0.35;stroke-miterlimit:4;stroke-dasharray:none;fill:none;fill-opacity:1;fill-rule: evenodd"/>
<path id="Shape2DView_nwe0026"  d="M -1.2017278764199988 -4.279999999999997 L -1.421791300234684 -4.279999999999997 L -1.6273286084949428 -4.279999999999998 L -1.8179556351089179 -4.279999999999998 L -1.9933160825244247 -4.279999999999998 L -2.1530821876782973 -4.279999999999998 L -2.296955334612454 -4.2799999999999985 L -2.424666612611613 -4.2799999999999985 L -2.5359773188194925 -4.2799999999999985 L -2.6306794043940194 -4.279999999999999 L -2.7085958633676963 -4.279999999999999 L -2.769581063486269 -4.279999999999999 L -2.8135210184073607 -4.279999999999999 L -2.840333600750295 -4.28 L -2.849968695598914 -4.28 " stroke="#191919" stroke-width="0.35 px" style="stroke-width:0.35;stroke-miterlimit:4;stroke-dasharray:none;fill:none;fill-opacity:1;fill-rule: evenodd"/>
<path id="Shape2DView_nwe0027"  d="M -3.774 -5.08 A 0.376 0.376 0 0 0 -4.15 -4.704" stroke="#191919" stroke-width="0.35 px" style="stroke-width:0.35;stroke-miterlimit:4;stroke-dasharray:none;fill:none;fill-opacity:1;fill-rule: evenodd"/>
<path id="Shape2DView_nwe0028"  d="M 10.349927999352 -4.28 L 13.120733473022977 -4.28 " stroke="#191919" stroke-width="0.35 px" style="stroke-width:0.35;stroke-miterlimit:4;stroke-dasharray:none;fill:none;fill-opacity:1;fill-rule: evenodd"/>
<path id="Shape2DView_nwe0029"  d="M 13.901727876419999 -4.28 L 15.549968695599 -4.28 " stroke="#191919" stroke-width="0.35 px" style="stroke-width:0.35;stroke-miterlimit:4;stroke-dasharray:none;fill:none;fill-opacity:1;fill-rule: evenodd"/>
<path id="Shape2DView_nwe0030"  d="M 9.195350027317609 -4.28 L 12.872338319269398 -4.28 " stroke="#191919" stroke-width="0.35 px" style="stroke-width:0.35;stroke-miterlimit:4;stroke-dasharray:none;fill:none;fill-opacity:1;fill-rule: evenodd"/>
<path id="Shape2DView_nwe0031"  d="M 15.549968695598913 -4.28 L 15.540333600750294 -4.28 L 15.51352101840736 -4.279999999999999 L 15.46958106348627 -4.279999999999999 L 15.408595863367697 -4.279999999999999 L 15.33067940439402 -4.279999999999999 L 15.235977318819494 -4.2799999999999985 L 15.124666612611614 -4.2799999999999985 L 14.996955334612455 -4.2799999999999985 L 14.8530821876783 -4.279999999999998 L 14.693316082524426 -4.279999999999998 L 14.517955635108919 -4.279999999999998 L 14.327328608494943 -4.279999999999998 L 14.121791300234683 -4.279999999999997 L 13.901727876419999 -4.279999999999997 " stroke="#191919" stroke-width="0.35 px" style="stroke-width:0.35;stroke-miterlimit:4;stroke-dasharray:none;fill:none;fill-opacity:1;fill-rule: evenodd"/>
<path id="Shape2DView_nwe0032"  d="M 12.926100710902011 -4.279999999999996 L 12.922275595498778 -4.279999999999996 L 12.91844815845879 -4.279999999999996 L 12.914618401134078 -4.279999999999996 L 12.910786324877488 -4.279999999999996 L 12.906951931042695 -4.279999999999996 L 12.903115220984184 -4.279999999999996 L 12.899276196057262 -4.279999999999996 L 12.895434857618051 -4.279999999999996 L 12.891591207023495 -4.279999999999996 L 12.887745245631354 -4.279999999999996 L 12.883896974800198 -4.279999999999996 L 12.88004639588942 -4.279999999999996 L 12.876193510259224 -4.279999999999996 L 12.87233831927063 -4.279999999999996 " stroke="#191919" stroke-width="0.35 px" style="stroke-width:0.35;stroke-miterlimit:4;stroke-dasharray:none;fill:none;fill-opacity:1;fill-rule: evenodd"/>
<path id="Shape2DView_nwe0033"  d="M 9.16140894108111 -4.28 L 12.838397233032897 -4.28 " stroke="#191919" stroke-width="0.35 px" style="stroke-width:0.35;stroke-miterlimit:4;stroke-dasharray:none;fill:none;fill-opacity:1;fill-rule: evenodd"/>
<path id="Shape2DView_nwe0034"  d="M 12.838397233033563 -4.279999999999996 L 12.485088038001582 -4.279999999999996 L 12.114674608930631 -4.279999999999996 L 11.728189634829043 -4.279999999999995 L 11.326710611147353 -4.279999999999995 L 10.911356835789725 -4.279999999999995 L 10.483286288582804 -4.279999999999995 L 10.04369240290183 -4.279999999999995 L 9.593800738454542 -4.279999999999995 L 9.134865564498892 -4.279999999999995 L 8.668166363020372 -4.279999999999994 L 8.19500426161788 -4.279999999999994 L 7.716698406042973 -4.279999999999994 L 7.234582282505673 -4.279999999999994 L 6.75 -4.279999999999994 " stroke="#191919" stroke-width="0.35 px" style="stroke-width:0.35;stroke-miterlimit:4;stroke-dasharray:none;fill:none;fill-opacity:1;fill-rule: evenodd"/>
<path id="Shape2DView_nwe0035"  d="M 5.950000000000001 -4.279999999999994 L 5.465417717494324 -4.279999999999994 L 4.983301593957025 -4.279999999999994 L 4.504995738382116 -4.279999999999994 L 4.031833636979624 -4.279999999999994 L 3.565134435501106 -4.279999999999995 L 3.1061992615454552 -4.279999999999995 L 2.656307597098167 -4.279999999999995 L 2.216713711417194 -4.279999999999995 L 1.7886431642102707 -4.279999999999995 L 1.3732893888526423 -4.279999999999995 L 0.9718103651709535 -4.279999999999995 L 0.5853253910693654 -4.279999999999996 L 0.214911961998415 -4.279999999999996 L -0.13839723303356255 -4.279999999999996 " stroke="#191919" stroke-width="0.35 px" style="stroke-width:0.35;stroke-miterlimit:4;stroke-dasharray:none;fill:none;fill-opacity:1;fill-rule: evenodd"/>
<path id="Shape2DView_nwe0036"  d="M 15.549968695598913 -0.8 L 15.540333600750294 -0.7999999999999998 L 15.51352101840736 -0.7999999999999995 L 15.46958106348627 -0.7999999999999993 L 15.408595863367697 -0.799999999999999 L 15.33067940439402 -0.7999999999999987 L 15.235977318819494 -0.7999999999999985 L 15.124666612611614 -0.7999999999999983 L 14.996955334612455 -0.7999999999999979 L 14.8530821876783 -0.7999999999999977 L 14.693316082524426 -0.7999999999999975 L 14.517955635108919 -0.7999999999999973 L 14.327328608494943 -0.799999999999997 L 14.121791300234683 -0.7999999999999968 L 13.901727876419999 -0.7999999999999966 " stroke="#191919" stroke-width="0.35 px" style="stroke-width:0.35;stroke-miterlimit:4;stroke-dasharray:none;fill:none;fill-opacity:1;fill-rule: evenodd"/>
<path id="Shape2DView_nwe0037"  d="M 12.838397233033563 -0.7999999999999957 L 12.485088038001582 -0.7999999999999956 L 12.114674608930631 -0.7999999999999954 L 11.728189634829043 -0.7999999999999952 L 11.326710611147353 -0.7999999999999949 L 10.911356835789725 -0.7999999999999948 L 10.483286288582804 -0.7999999999999946 L 10.04369240290183 -0.7999999999999945 L 9.593800738454542 -0.7999999999999944 L 9.134865564498892 -0.7999999999999943 L 8.668166363020372 -0.7999999999999942 L 8.19500426161788 -0.7999999999999942 L 7.716698406042972 -0.799999999999994 L 7.234582282505673 -0.799999999999994 L 6.75 -0.799999999999994 " stroke="#191919" stroke-width="0.35 px" style="stroke-width:0.35;stroke-miterlimit:4;stroke-dasharray:none;fill:none;fill-opacity:1;fill-rule: evenodd"/>
<path id="Shape2DView_nwe0038"  d="M 5.95 -0.799999999999994 L 5.465417717494323 -0.799999999999994 L 4.983301593957024 -0.799999999999994 L 4.5049957383821155 -0.7999999999999942 L 4.031833636979624 -0.7999999999999942 L 3.565134435501106 -0.7999999999999943 L 3.1061992615454552 -0.7999999999999944 L 2.656307597098167 -0.7999999999999945 L 2.216713711417194 -0.7999999999999946 L 1.7886431642102707 -0.7999999999999948 L 1.3732893888526423 -0.7999999999999949 L 0.9718103651709535 -0.7999999999999952 L 0.5853253910693654 -0.7999999999999954 L 0.214911961998415 -0.7999999999999956 L -0.13839723303356255 -0.7999999999999957 " stroke="#191919" stroke-width="0.35 px" style="stroke-width:0.35;stroke-miterlimit:4;stroke-dasharray:none;fill:none;fill-opacity:1;fill-rule: evenodd"/>
<path id="Shape2DView_nwe0039"  d="M -0.13839723303356255 -0.7999999999999957 L -0.14082746466146734 -0.7999999999999958 L -0.14325679481830011 -0.7999999999999958 L -0.14568522316666943 -0.7999999999999958 L -0.14811274936930374 -0.7999999999999958 L -0.1505393730890603 -0.7999999999999958 L -0.152965093988918 -0.7999999999999958 L -0.15538991173198724 -0.7999999999999958 L -0.1578138259814965 -0.7999999999999958 L -0.160236836400804 -0.7999999999999958 L -0.16265894265339398 -0.7999999999999958 L -0.16508014440287333 -0.7999999999999958 L -0.1675004413129777 -0.7999999999999958 L -0.1699198330475662 -0.7999999999999958 L -0.17233831927063115 -0.7999999999999958 " stroke="#191919" stroke-width="0.35 px" style="stroke-width:0.35;stroke-miterlimit:4;stroke-dasharray:none;fill:none;fill-opacity:1;fill-rule: evenodd"/>
<path id="Shape2DView_nwe0040"  d="M 16.05 -1.3 A 0.5 0.5 0 0 1 15.55 -0.8" stroke="#191919" stroke-width="0.35 px" style="stroke-width:0.35;stroke-miterlimit:4;stroke-dasharray:none;fill:none;fill-opacity:1;fill-rule: evenodd"/>
<path id="Shape2DView_nwe0041"  d="M 16.05 -3.78 A 0.5 0.5 0 0 0 15.55 -4.28" stroke="#191919" stroke-width="0.35 px" style="stroke-width:0.35;stroke-miterlimit:4;stroke-dasharray:none;fill:none;fill-opacity:1;fill-rule: evenodd"/>
<path id="Shape2DView_nwe0042"  d="M -0.13839723303356255 -4.279999999999996 L -0.14082746466146734 -4.279999999999996 L -0.14325679481830011 -4.279999999999996 L -0.14568522316666943 -4.279999999999996 L -0.14811274936930374 -4.279999999999996 L -0.1505393730890603 -4.279999999999996 L -0.152965093988918 -4.279999999999996 L -0.15538991173198724 -4.279999999999996 L -0.1578138259814965 -4.279999999999996 L -0.160236836400804 -4.279999999999996 L -0.16265894265339398 -4.279999999999996 L -0.16508014440287333 -4.279999999999996 L -0.1675004413129777 -4.279999999999996 L -0.1699198330475662 -4.279999999999996 L -0.17233831927063115 -4.279999999999996 " stroke="#191919" stroke-width="0.35 px" style="stroke-width:0.35;stroke-miterlimit:4;stroke-dasharray:none;fill:none;fill-opacity:1;fill-rule: evenodd"/>
<path id="Shape2DView_nwe0043"  d="M 5.95 -4.704 L 5.95 -0.37600000000000033 " stroke="#191919" stroke-width="0.35 px" style="stroke-width:0.35;stroke-miterlimit:4;stroke-dasharray:none;fill:none;fill-opacity:1;fill-rule: evenodd"/>
<path id="Shape2DView_nwe0044"  d="M 6.75 -4.704 L 6.75 -0.37600000000000033 " stroke="#191919" stroke-width="0.35 px" style="stroke-width:0.35;stroke-miterlimit:4;stroke-dasharray:none;fill:none;fill-opacity:1;fill-rule: evenodd"/>
<path id="Shape2DView_nwe0045"  d="M 15.549968695599 -4.28 L 15.674 -4.28 " stroke="#191919" stroke-width="0.35 px" style="stroke-width:0.35;stroke-miterlimit:4;stroke-dasharray:none;fill:none;fill-opacity:1;fill-rule: evenodd"/>
<path id="Shape2DView_nwe0046"  d="M 12.838397233032897 -4.28 L 12.926100710900961 -4.28 " stroke="#191919" stroke-width="0.35 px" style="stroke-width:0.35;stroke-miterlimit:4;stroke-dasharray:none;fill:none;fill-opacity:1;fill-rule: evenodd"/>
<path id="Shape2DView_nwe0047"  d="M -0.22610071090196077 -4.28 L -0.13839723303389623 -4.28 " stroke="#191919" stroke-width="0.35 px" style="stroke-width:0.35;stroke-miterlimit:4;stroke-dasharray:none;fill:none;fill-opacity:1;fill-rule: evenodd"/>
<path id="Shape2DView_nwe0048"  d="M 15.674 -0.8 L 15.549968695599 -0.8 " stroke="#191919" stroke-width="0.35 px" style="stroke-width:0.35;stroke-miterlimit:4;stroke-dasharray:none;fill:none;fill-opacity:1;fill-rule: evenodd"/>
<path id="Shape2DView_nwe0049"  d="M 12.926100710901961 -0.8 L 12.838397233033895 -0.8 " stroke="#191919" stroke-width="0.35 px" style="stroke-width:0.35;stroke-miterlimit:4;stroke-dasharray:none;fill:none;fill-opacity:1;fill-rule: evenodd"/>
<path id="Shape2DView_nwe0050"  d="M -0.13839723303289597 -0.8000000000000003 L -0.2261007109009605 -0.8000000000000003 " stroke="#191919" stroke-width="0.35 px" style="stroke-width:0.35;stroke-miterlimit:4;stroke-dasharray:none;fill:none;fill-opacity:1;fill-rule: evenodd"/>
<path id="Shape2DView_nwe0051"  d="M -0.7917867901834599 -5.08 L 4.1919075682809614 -5.08 " stroke="#191919" stroke-width="0.35 px" style="stroke-width:0.35;stroke-miterlimit:4;stroke-dasharray:none;fill:none;fill-opacity:1;fill-rule: evenodd"/>
<path id="Shape2DView_nwe0052"  d="M 4.19190756828296 -1.286435945824361e-16 L -0.7917867901814608 -4.589490915539624e-16 " stroke="#191919" stroke-width="0.35 px" style="stroke-width:0.35;stroke-miterlimit:4;stroke-dasharray:none;fill:none;fill-opacity:1;fill-rule: evenodd"/>
<path id="Shape2DView_nwe0053"  d="M 8.50809243171704 -5.08 L 13.491786790181461 -5.08 " stroke="#191919" stroke-width="0.35 px" style="stroke-width:0.35;stroke-miterlimit:4;stroke-dasharray:none;fill:none;fill-opacity:1;fill-rule: evenodd"/>
<path id="Shape2DView_nwe0054"  d="M 13.49178679018346 -4.26467917730197e-16 L 8.508092431719039 -9.616242075867073e-17 " stroke="#191919" stroke-width="0.35 px" style="stroke-width:0.35;stroke-miterlimit:4;stroke-dasharray:none;fill:none;fill-opacity:1;fill-rule: evenodd"/>
<path id="Shape2DView_nwe0055"  d="M 15.674 -4.28 A 0.376 0.376 0 0 1 16.05 -3.904" stroke="#191919" stroke-width="0.35 px" style="stroke-width:0.35;stroke-miterlimit:4;stroke-dasharray:none;fill:none;fill-opacity:1;fill-rule: evenodd"/>
<path id="Shape2DView_nwe0056"  d="M 16.05 -3.904 L 16.05 -1.1760000000000002 " stroke="#191919" stroke-width="0.35 px" style="stroke-width:0.35;stroke-miterlimit:4;stroke-dasharray:none;fill:none;fill-opacity:1;fill-rule: evenodd"/>
<path id="Shape2DView_nwe0057"  d="M 16.05 -1.1759999999999997 A 0.376 0.376 0 0 1 15.674 -0.8" stroke="#191919" stroke-width="0.35 px" style="stroke-width:0.35;stroke-miterlimit:4;stroke-dasharray:none;fill:none;fill-opacity:1;fill-rule: evenodd"/>
<path id="Shape2DView_nwe0058"  d="M 16.85 -4.704 L 16.85 -0.37600000000000033 " stroke="#191919" stroke-width="0.35 px" style="stroke-width:0.35;stroke-miterlimit:4;stroke-dasharray:none;fill:none;fill-opacity:1;fill-rule: evenodd"/>
<path id="Shape2DView_nwe0059"  d="M 8.54203351795404 -5.08 L 8.508092431716959 -5.08 " stroke="#191919" stroke-width="0.35 px" style="stroke-width:0.35;stroke-miterlimit:4;stroke-dasharray:none;fill:none;fill-opacity:1;fill-rule: evenodd"/>
<path id="Shape2DView_nwe0060"  d="M 8.54203351795404 2.0907508570716857e-16 L 8.508092431716959 2.1450593234718344e-16 " stroke="#191919" stroke-width="0.35 px" style="stroke-width:0.35;stroke-miterlimit:4;stroke-dasharray:none;fill:none;fill-opacity:1;fill-rule: evenodd"/>
<path id="Shape2DView_nwe0061"  d="M 4.157966482045959 -5.08 L 4.19190756828304 -5.08 " stroke="#191919" stroke-width="0.35 px" style="stroke-width:0.35;stroke-miterlimit:4;stroke-dasharray:none;fill:none;fill-opacity:1;fill-rule: evenodd"/>
<path id="Shape2DView_nwe0062"  d="M 4.157966482045959 1.5356393447586854e-16 L 4.19190756828304 1.589947811158834e-16 " stroke="#191919" stroke-width="0.35 px" style="stroke-width:0.35;stroke-miterlimit:4;stroke-dasharray:none;fill:none;fill-opacity:1;fill-rule: evenodd"/>
<path id="Shape2DView_nwe0063"  d="M -0.7917867901829594 -5.08 L -0.8257278764200393 -5.08 " stroke="#191919" stroke-width="0.35 px" style="stroke-width:0.35;stroke-miterlimit:4;stroke-dasharray:none;fill:none;fill-opacity:1;fill-rule: evenodd"/>
<path id="Shape2DView_nwe0064"  d="M -0.7917867901829594 -4.570587290679315e-16 L -0.8257278764200393 -4.516278824279167e-16 " stroke="#191919" stroke-width="0.35 px" style="stroke-width:0.35;stroke-miterlimit:4;stroke-dasharray:none;fill:none;fill-opacity:1;fill-rule: evenodd"/>
<path id="Shape2DView_nwe0065"  d="M 5.949999999999999 -0.3760000000000001 A 0.376 0.376 0 0 0 6.326 0" stroke="#191919" stroke-width="0.35 px" style="stroke-width:0.35;stroke-miterlimit:4;stroke-dasharray:none;fill:none;fill-opacity:1;fill-rule: evenodd"/>
<path id="Shape2DView_nwe0066"  d="M 6.326 -8.556184719856452e-16 L 6.374 -8.514618829157148e-16 " stroke="#191919" stroke-width="0.35 px" style="stroke-width:0.35;stroke-miterlimit:4;stroke-dasharray:none;fill:none;fill-opacity:1;fill-rule: evenodd"/>
<path id="Shape2DView_nwe0067"  d="M 5.949999999999999 -4.704 A 0.376 0.376 0 0 1 6.326 -5.08" stroke="#191919" stroke-width="0.35 px" style="stroke-width:0.35;stroke-miterlimit:4;stroke-dasharray:none;fill:none;fill-opacity:1;fill-rule: evenodd"/>
<path id="Shape2DView_nwe0068"  d="M 6.326 -5.08 L 6.374 -5.08 " stroke="#191919" stroke-width="0.35 px" style="stroke-width:0.35;stroke-miterlimit:4;stroke-dasharray:none;fill:none;fill-opacity:1;fill-rule: evenodd"/>
<path id="Shape2DView_nwe0069"  d="M 6.75 -0.37600000000000006 A 0.376 0.376 0 0 1 6.374 0" stroke="#191919" stroke-width="0.35 px" style="stroke-width:0.35;stroke-miterlimit:4;stroke-dasharray:none;fill:none;fill-opacity:1;fill-rule: evenodd"/>
<path id="Shape2DView_nwe0070"  d="M 6.75 -4.704 A 0.376 0.376 0 0 0 6.374 -5.08" stroke="#191919" stroke-width="0.35 px" style="stroke-width:0.35;stroke-miterlimit:4;stroke-dasharray:none;fill:none;fill-opacity:1;fill-rule: evenodd"/>
<path id="Shape2DView_nwe0071"  d="M 13.491786790182958 -5.08 L 13.525727876420039 -5.08 " stroke="#191919" stroke-width="0.35 px" style="stroke-width:0.35;stroke-miterlimit:4;stroke-dasharray:none;fill:none;fill-opacity:1;fill-rule: evenodd"/>
<path id="Shape2DView_nwe0072"  d="M 13.491786790182958 -6.235921827617315e-16 L 13.525727876420039 -6.181613361217167e-16 " stroke="#191919" stroke-width="0.35 px" style="stroke-width:0.35;stroke-miterlimit:4;stroke-dasharray:none;fill:none;fill-opacity:1;fill-rule: evenodd"/>
<path id="Shape2DView_nwe0073"  d="M 16.474 -5.08 A 0.376 0.376 0 0 1 16.85 -4.704" stroke="#191919" stroke-width="0.35 px" style="stroke-width:0.35;stroke-miterlimit:4;stroke-dasharray:none;fill:none;fill-opacity:1;fill-rule: evenodd"/>
<path id="Shape2DView_nwe0074"  d="M 16.85 -0.37599999999999967 A 0.376 0.376 0 0 1 16.474 0" stroke="#191919" stroke-width="0.35 px" style="stroke-width:0.35;stroke-miterlimit:4;stroke-dasharray:none;fill:none;fill-opacity:1;fill-rule: evenodd"/>
<path id="Shape2DView_nwe0075"  d="M 4.457779410472964 -0.3760000000000001 L 4.4858759345216095 -0.3760000000000001 L 4.510275635800386 -0.3760000000000001 L 4.530671673908675 -0.37600000000000006 L 4.546807556833212 -0.376 L 4.558480366483959 -0.376 L 4.56554331050684 -0.37599999999999995 L 4.567907568282749 -0.37599999999999995 L 4.56554340789838 -0.3759999999999999 L 4.558480560042285 -0.3759999999999999 L 4.5468078441242135 -0.37599999999999983 L 4.530672051319504 -0.37599999999999983 L 4.510276098584879 -0.37599999999999983 L 4.4858764768599855 -0.3759999999999998 L 4.457780025545004 -0.3759999999999998 " stroke="#191919" stroke-width="0.35 px" style="stroke-width:0.35;stroke-miterlimit:4;stroke-dasharray:none;fill:none;fill-opacity:1;fill-rule: evenodd"/>
<path id="Shape2DView_nwe0076"  d="M 4.457779410472964 -4.704 L 4.4858759345216095 -4.704 L 4.510275635800386 -4.704 L 4.530671673908675 -4.704 L 4.546807556833212 -4.704000000000001 L 4.558480366483959 -4.704000000000001 L 4.56554331050684 -4.704000000000001 L 4.567907568282749 -4.704000000000001 L 4.56554340789838 -4.704000000000001 L 4.558480560042285 -4.704000000000001 L 4.5468078441242135 -4.704000000000001 L 4.530672051319504 -4.704000000000001 L 4.510276098584879 -4.704000000000001 L 4.4858764768599855 -4.704000000000001 L 4.457780025545004 -4.704000000000001 " stroke="#191919" stroke-width="0.35 px" style="stroke-width:0.35;stroke-miterlimit:4;stroke-dasharray:none;fill:none;fill-opacity:1;fill-rule: evenodd"/>
<path id="Shape2DView_nwe0077"  d="M 13.191973783236035 -1.176 L 13.163877259187391 -1.176 L 13.139477557908615 -1.1760000000000002 L 13.119081519800323 -1.1760000000000002 L 13.102945636875788 -1.1760000000000002 L 13.09127282722504 -1.1760000000000002 L 13.08420988320216 -1.1760000000000002 L 13.08184562542625 -1.1760000000000002 L 13.08420978581062 -1.1760000000000002 L 13.091272633666714 -1.1760000000000002 L 13.102945349584786 -1.1760000000000002 L 13.119081142389495 -1.1760000000000002 L 13.13947709512412 -1.1760000000000002 L 13.163876716849012 -1.1760000000000002 L 13.191973168163996 -1.1760000000000002 " stroke="#191919" stroke-width="0.35 px" style="stroke-width:0.35;stroke-miterlimit:4;stroke-dasharray:none;fill:none;fill-opacity:1;fill-rule: evenodd"/>
<path id="Shape2DView_nwe0078"  d="M 8.242220589527035 -4.704 L 8.21412406547839 -4.704 L 8.189724364199614 -4.704 L 8.169328326091323 -4.704 L 8.153192443166787 -4.704 L 8.14151963351604 -4.704 L 8.13445668949316 -4.704 L 8.13209243171725 -4.704 L 8.13445659210162 -4.704 L 8.141519439957715 -4.703999999999999 L 8.153192155875786 -4.703999999999999 L 8.169327948680495 -4.703999999999999 L 8.18972390141512 -4.703999999999999 L 8.214123523140014 -4.703999999999999 L 8.242219974454995 -4.703999999999999 " stroke="#191919" stroke-width="0.35 px" style="stroke-width:0.35;stroke-miterlimit:4;stroke-dasharray:none;fill:none;fill-opacity:1;fill-rule: evenodd"/>
<path id="Shape2DView_nwe0079"  d="M -3.774 -0.3760000000000001 L -3.774 -0.3339013569851564 L -3.774 -0.2923321288324259 L -3.774 -0.2518150727048573 L -3.774 -0.21285971409179824 L -3.774 -0.17595593923023356 L -3.774 -0.1415678345011163 L -3.774 -0.11012785027385824 L -3.774 -0.08203136259202087 L -3.774 -0.05763170109016519 L -3.774 -0.037235705668690444 L -3.774 -0.021099867804053818 L -3.774 -0.009427105019634341 L -3.774 -0.002364209080140789 L -3.774 0.0 " stroke="#191919" stroke-width="0.35 px" style="stroke-width:0.35;stroke-miterlimit:4;stroke-dasharray:none;fill:none;fill-opacity:1;fill-rule: evenodd"/>
<path id="Shape2DView_nwe0080"  d="M -1.2017278764200001 -0.376 L -3.7739999999999996 -0.376 " stroke="#191919" stroke-width="0.35 px" style="stroke-width:0.35;stroke-miterlimit:4;stroke-dasharray:none;fill:none;fill-opacity:1;fill-rule: evenodd"/>
<path id="Shape2DView_nwe0082"  d="M -1.2017278764200001 -0.424 L -2.9739999999999998 -0.424 " stroke="#191919" stroke-width="0.35 px" style="stroke-width:0.35;stroke-miterlimit:4;stroke-dasharray:none;fill:none;fill-opacity:1;fill-rule: evenodd"/>
<path id="Shape2DView_nwe0083"  d="M -3.726 -1.176 A 0.752 0.752 0 0 0 -2.974 -0.424" stroke="#191919" stroke-width="0.35 px" style="stroke-width:0.35;stroke-miterlimit:4;stroke-dasharray:none;fill:none;fill-opacity:1;fill-rule: evenodd"/>
<path id="Shape2DView_nwe0084"  d="M -3.726 -1.176 L -3.726 -3.904 " stroke="#191919" stroke-width="0.35 px" style="stroke-width:0.35;stroke-miterlimit:4;stroke-dasharray:none;fill:none;fill-opacity:1;fill-rule: evenodd"/>
<path id="Shape2DView_nwe0085"  d="M -2.974 -4.656 A 0.752 0.752 0 0 0 -3.726 -3.904" stroke="#191919" stroke-width="0.35 px" style="stroke-width:0.35;stroke-miterlimit:4;stroke-dasharray:none;fill:none;fill-opacity:1;fill-rule: evenodd"/>
<path id="Shape2DView_nwe0086"  d="M -2.974 -4.656 L -1.2017278764200001 -4.656 " stroke="#191919" stroke-width="0.35 px" style="stroke-width:0.35;stroke-miterlimit:4;stroke-dasharray:none;fill:none;fill-opacity:1;fill-rule: evenodd"/>
<path id="Shape2DView_nwe0087"  d="M -3.774 -4.704 L -1.2017278764200001 -4.704 " stroke="#191919" stroke-width="0.35 px" style="stroke-width:0.35;stroke-miterlimit:4;stroke-dasharray:none;fill:none;fill-opacity:1;fill-rule: evenodd"/>
<path id="Shape2DView_nwe0088"  d="M -3.774 -0.376 L -3.774 -4.704 " stroke="#191919" stroke-width="0.35 px" style="stroke-width:0.35;stroke-miterlimit:4;stroke-dasharray:none;fill:none;fill-opacity:1;fill-rule: evenodd"/>
<path id="Shape2DView_nwe0089"  d="M -3.774 -0.37600000000000006 L -3.816098643014844 -0.37600000000000006 L -3.8576678711675743 -0.37600000000000006 L -3.8981849272951425 -0.37600000000000006 L -3.937140285908202 -0.37600000000000006 L -3.9740440607697667 -0.376 L -4.008432165498884 -0.376 L -4.039872149726142 -0.376 L -4.067968637407979 -0.376 L -4.092368298909835 -0.376 L -4.11276429433131 -0.376 L -4.128900132195946 -0.376 L -4.140572894980366 -0.376 L -4.14763579091986 -0.376 L -4.15 -0.376 " stroke="#191919" stroke-width="0.35 px" style="stroke-width:0.35;stroke-miterlimit:4;stroke-dasharray:none;fill:none;fill-opacity:1;fill-rule: evenodd"/>
<path id="Shape2DView_nwe0091"  d="M -2.974 -4.656 L -2.974 -4.613901356985156 L -2.974 -4.572332128832425 L -2.974 -4.531815072704857 L -2.974 -4.492859714091798 L -2.974 -4.4559559392302335 L -2.974 -4.421567834501116 L -2.974 -4.390127850273858 L -2.974 -4.36203136259202 L -2.974 -4.337631701090165 L -2.974 -4.31723570566869 L -2.974 -4.301099867804053 L -2.974 -4.289427105019634 L -2.974 -4.28236420908014 L -2.974 -4.279999999999999 " stroke="#191919" stroke-width="0.35 px" style="stroke-width:0.35;stroke-miterlimit:4;stroke-dasharray:none;fill:none;fill-opacity:1;fill-rule: evenodd"/>
<path id="Shape2DView_nwe0092"  d="M -2.974 -0.424 L -2.974 -0.46609864301484377 L -2.974 -0.5076678711675742 L -2.974 -0.5481849272951428 L -2.974 -0.5871402859082019 L -2.974 -0.6240440607697665 L -2.974 -0.6584321654988838 L -2.974 -0.689872149726142 L -2.974 -0.7179686374079792 L -2.974 -0.7423682989098348 L -2.974 -0.7627642943313095 L -2.974 -0.7789001321959461 L -2.974 -0.7905728949803656 L -2.974 -0.7976357909198593 L -2.974 -0.8 " stroke="#191919" stroke-width="0.35 px" style="stroke-width:0.35;stroke-miterlimit:4;stroke-dasharray:none;fill:none;fill-opacity:1;fill-rule: evenodd"/>
<path id="Shape2DView_nwe0093"  d="M -3.726 -3.904 L -3.683901356985156 -3.904 L -3.6423321288324257 -3.904 L -3.601815072704857 -3.904 L -3.562859714091798 -3.904 L -3.5259559392302333 -3.904 L -3.491567834501116 -3.904 L -3.460127850273858 -3.904 L -3.4320313625920207 -3.904 L -3.4076317010901653 -3.904 L -3.3872357056686906 -3.904 L -3.3710998678040536 -3.904 L -3.3594271050196345 -3.904 L -3.352364209080141 -3.904 L -3.35 -3.904 " stroke="#191919" stroke-width="0.35 px" style="stroke-width:0.35;stroke-miterlimit:4;stroke-dasharray:none;fill:none;fill-opacity:1;fill-rule: evenodd"/>
<path id="Shape2DView_nwe0094"  d="M -3.726 -1.176 L -3.683901356985156 -1.176 L -3.6423321288324257 -1.176 L -3.601815072704857 -1.176 L -3.562859714091798 -1.176 L -3.5259559392302333 -1.176 L -3.491567834501116 -1.176 L -3.460127850273858 -1.176 L -3.4320313625920207 -1.176 L -3.4076317010901653 -1.176 L -3.3872357056686906 -1.176 L -3.3710998678040536 -1.176 L -3.3594271050196345 -1.176 L -3.352364209080141 -1.176 L -3.35 -1.176 " stroke="#191919" stroke-width="0.35 px" style="stroke-width:0.35;stroke-miterlimit:4;stroke-dasharray:none;fill:none;fill-opacity:1;fill-rule: evenodd"/>
<path id="Shape2DView_nwe0095"  d="M -3.774 -4.704 L -3.774 -4.746098643014843 L -3.774 -4.7876678711675735 L -3.774 -4.828184927295142 L -3.774 -4.867140285908201 L -3.774 -4.904044060769766 L -3.774 -4.938432165498884 L -3.774 -4.969872149726141 L -3.774 -4.997968637407979 L -3.774 -5.022368298909835 L -3.774 -5.04276429433131 L -3.774 -5.058900132195946 L -3.774 -5.070572894980366 L -3.774 -5.077635790919859 L -3.774 -5.08 " stroke="#191919" stroke-width="0.35 px" style="stroke-width:0.35;stroke-miterlimit:4;stroke-dasharray:none;fill:none;fill-opacity:1;fill-rule: evenodd"/>
<path id="Shape2DView_nwe0096"  d="M -3.774 -4.704 L -3.816098643014844 -4.704 L -3.8576678711675743 -4.704 L -3.8981849272951425 -4.704 L -3.937140285908202 -4.704 L -3.9740440607697667 -4.704 L -4.008432165498884 -4.704 L -4.039872149726142 -4.704 L -4.067968637407979 -4.704 L -4.092368298909835 -4.704 L -4.11276429433131 -4.704 L -4.128900132195946 -4.704 L -4.140572894980366 -4.704 L -4.14763579091986 -4.704 L -4.15 -4.704 " stroke="#191919" stroke-width="0.35 px" style="stroke-width:0.35;stroke-miterlimit:4;stroke-dasharray:none;fill:none;fill-opacity:1;fill-rule: evenodd"/>
<path id="Shape2DView_nwe0098"  d="M -1.2017278764199988 -1.299999999999996 L -1.4877778386429483 -1.2999999999999963 L -1.7554233098502419 -1.2999999999999965 L -2.0040358110556635 -1.2999999999999967 L -2.2330315560587124 -1.2999999999999972 L -2.4418728222780253 -1.2999999999999974 L -2.630069213419274 -1.2999999999999976 L -2.79717881101255 -1.2999999999999978 L -2.942809212115229 -1.2999999999999983 L -3.066618450743597 -1.2999999999999985 L -3.1683158008695766 -1.2999999999999987 L -3.2476624590969454 -1.2999999999999992 L -3.304472105414021 -1.2999999999999994 L -3.3386113407060556 -1.2999999999999998 L -3.3499999999999996 -1.3 " stroke="#191919" stroke-width="0.35 px" style="stroke-width:0.35;stroke-miterlimit:4;stroke-dasharray:none;fill:none;fill-opacity:1;fill-rule: evenodd"/>
<path id="Shape2DView_nwe0099"  d="M 5.950000000000001 -1.2999999999999936 L 5.448322940213932 -1.2999999999999936 L 4.949068677021179 -1.2999999999999938 L 4.453578701274741 -1.2999999999999938 L 3.963184389227603 -1.2999999999999938 L 3.479203425139018 -1.299999999999994 L 3.002936260671027 -1.299999999999994 L 2.5356626205887864 -1.2999999999999943 L 2.078638064153844 -1.2999999999999943 L 1.6330906114498562 -1.2999999999999945 L 1.2002174437057986 -1.2999999999999947 L 0.781181686482828 -1.299999999999995 L 0.37710928436837765 -1.299999999999995 L -0.01091402442488576 -1.2999999999999952 L -0.3818456254260001 -1.2999999999999954 " stroke="#191919" stroke-width="0.35 px" style="stroke-width:0.35;stroke-miterlimit:4;stroke-dasharray:none;fill:none;fill-opacity:1;fill-rule: evenodd"/>
<path id="Shape2DView_nwe0100"  d="M 13.081845625426 -1.2999999999999954 L 12.710914024424891 -1.2999999999999952 L 12.322890715631626 -1.299999999999995 L 11.918818313517175 -1.299999999999995 L 11.499782556294203 -1.2999999999999947 L 11.066909388550142 -1.2999999999999945 L 10.621361935846153 -1.2999999999999943 L 10.164337379411208 -1.2999999999999943 L 9.697063739328968 -1.299999999999994 L 9.220796574860977 -1.299999999999994 L 8.73681561077239 -1.2999999999999938 L 8.246421298725252 -1.2999999999999938 L 7.750931322978815 -1.2999999999999938 L 7.251677059786061 -1.2999999999999936 L 6.749999999999999 -1.2999999999999936 " stroke="#191919" stroke-width="0.35 px" style="stroke-width:0.35;stroke-miterlimit:4;stroke-dasharray:none;fill:none;fill-opacity:1;fill-rule: evenodd"/>
<path id="Shape2DView_nwe0101"  d="M 16.049999999999997 -1.3 L 16.038611340706055 -1.2999999999999998 L 16.00447210541402 -1.2999999999999994 L 15.947662459096946 -1.2999999999999992 L 15.868315800869578 -1.2999999999999987 L 15.766618450743596 -1.2999999999999985 L 15.642809212115228 -1.2999999999999983 L 15.497178811012551 -1.2999999999999978 L 15.330069213419275 -1.2999999999999976 L 15.141872822278026 -1.2999999999999974 L 14.933031556058715 -1.2999999999999972 L 14.704035811055666 -1.2999999999999967 L 14.455423309850243 -1.2999999999999965 L 14.18777783864295 -1.2999999999999963 L 13.90172787642 -1.299999999999996 " stroke="#191919" stroke-width="0.35 px" style="stroke-width:0.35;stroke-miterlimit:4;stroke-dasharray:none;fill:none;fill-opacity:1;fill-rule: evenodd"/>
<path id="Shape2DView_nwe0102"  d="M 16.049999999999997 -3.78 L 16.038611340706055 -3.7799999999999994 L 16.00447210541402 -3.7799999999999994 L 15.947662459096946 -3.779999999999999 L 15.868315800869578 -3.7799999999999985 L 15.766618450743596 -3.7799999999999985 L 15.642809212115228 -3.779999999999998 L 15.497178811012551 -3.7799999999999976 L 15.330069213419275 -3.7799999999999976 L 15.141872822278026 -3.779999999999997 L 14.933031556058715 -3.7799999999999967 L 14.704035811055666 -3.7799999999999967 L 14.455423309850243 -3.7799999999999963 L 14.18777783864295 -3.7799999999999963 L 13.90172787642 -3.779999999999996 " stroke="#191919" stroke-width="0.35 px" style="stroke-width:0.35;stroke-miterlimit:4;stroke-dasharray:none;fill:none;fill-opacity:1;fill-rule: evenodd"/>
<path id="Shape2DView_nwe0103"  d="M 13.081845625426 -3.7799999999999954 L 12.710914024424891 -3.779999999999995 L 12.322890715631626 -3.779999999999995 L 11.918818313517175 -3.7799999999999945 L 11.499782556294203 -3.7799999999999945 L 11.066909388550142 -3.779999999999994 L 10.621361935846153 -3.779999999999994 L 10.164337379411208 -3.779999999999994 L 9.697063739328968 -3.779999999999994 L 9.220796574860977 -3.7799999999999936 L 8.73681561077239 -3.7799999999999936 L 8.246421298725252 -3.7799999999999936 L 7.750931322978815 -3.7799999999999936 L 7.251677059786062 -3.7799999999999936 L 6.75 -3.7799999999999936 " stroke="#191919" stroke-width="0.35 px" style="stroke-width:0.35;stroke-miterlimit:4;stroke-dasharray:none;fill:none;fill-opacity:1;fill-rule: evenodd"/>
<path id="Shape2DView_nwe0104"  d="M 5.949999999999999 -3.7799999999999936 L 5.44832294021393 -3.7799999999999936 L 4.949068677021177 -3.7799999999999936 L 4.45357870127474 -3.7799999999999936 L 3.963184389227601 -3.7799999999999936 L 3.4792034251390156 -3.7799999999999936 L 3.002936260671025 -3.779999999999994 L 2.5356626205887847 -3.779999999999994 L 2.0786380641538402 -3.779999999999994 L 1.6330906114498527 -3.779999999999994 L 1.2002174437057942 -3.7799999999999945 L 0.7811816864828236 -3.7799999999999945 L 0.3771092843683741 -3.779999999999995 L -0.010914024424889313 -3.779999999999995 L -0.3818456254260001 -3.7799999999999954 " stroke="#191919" stroke-width="0.35 px" style="stroke-width:0.35;stroke-miterlimit:4;stroke-dasharray:none;fill:none;fill-opacity:1;fill-rule: evenodd"/>
<path id="Shape2DView_nwe0105"  d="M -1.2017278764199988 -3.779999999999996 L -1.4877778386429483 -3.7799999999999963 L -1.7554233098502419 -3.7799999999999963 L -2.0040358110556635 -3.7799999999999967 L -2.2330315560587124 -3.7799999999999967 L -2.4418728222780253 -3.779999999999997 L -2.630069213419274 -3.7799999999999976 L -2.79717881101255 -3.7799999999999976 L -2.942809212115229 -3.779999999999998 L -3.066618450743597 -3.7799999999999985 L -3.1683158008695766 -3.7799999999999985 L -3.2476624590969454 -3.779999999999999 L -3.304472105414021 -3.7799999999999994 L -3.3386113407060556 -3.7799999999999994 L -3.3499999999999996 -3.78 " stroke="#191919" stroke-width="0.35 px" style="stroke-width:0.35;stroke-miterlimit:4;stroke-dasharray:none;fill:none;fill-opacity:1;fill-rule: evenodd"/>
<path id="Shape2DView_nwe0106"  d="M 15.674 -4.656 A 0.752 0.752 0 0 1 16.426 -3.904" stroke="#191919" stroke-width="0.35 px" style="stroke-width:0.35;stroke-miterlimit:4;stroke-dasharray:none;fill:none;fill-opacity:1;fill-rule: evenodd"/>
<path id="Shape2DView_nwe0107"  d="M 16.426 -1.1759999999999995 A 0.752 0.752 0 0 1 15.674 -0.424" stroke="#191919" stroke-width="0.35 px" style="stroke-width:0.35;stroke-miterlimit:4;stroke-dasharray:none;fill:none;fill-opacity:1;fill-rule: evenodd"/>
<path id="Shape2DView_nwe0108"  d="M 3.892093331191924 -4.656 A 0.376 0.265872 90 0 1 3.62622 -4.28" stroke="#191919" stroke-width="0.35 px" style="stroke-width:0.35;stroke-miterlimit:4;stroke-dasharray:none;fill:none;fill-opacity:1;fill-rule: evenodd"/>
<path id="Shape2DView_nwe0109"  d="M 3.892093331192 -4.656 A 0.752 0.531745 -90 0 1 4.3526 -4.28" stroke="#191919" stroke-width="0.35 px" style="stroke-width:0.35;stroke-miterlimit:4;stroke-dasharray:none;fill:none;fill-opacity:1;fill-rule: evenodd"/>
<path id="Shape2DView_nwe0110"  d="M 3.8920933311920005 -0.42399999999999993 A 0.752 0.531745 90 0 0 4.3526 -0.8" stroke="#191919" stroke-width="0.35 px" style="stroke-width:0.35;stroke-miterlimit:4;stroke-dasharray:none;fill:none;fill-opacity:1;fill-rule: evenodd"/>
<path id="Shape2DView_nwe0111"  d="M 3.892093331191924 -0.42399999999999993 A 0.376 0.265872 -90 0 0 3.62622 -0.8" stroke="#191919" stroke-width="0.35 px" style="stroke-width:0.35;stroke-miterlimit:4;stroke-dasharray:none;fill:none;fill-opacity:1;fill-rule: evenodd"/>
<path id="Shape2DView_nwe0112"  d="M 3.8920933311924597 -0.424 L 0.03977113128951437 -0.42400000000000027 " stroke="#191919" stroke-width="0.35 px" style="stroke-width:0.35;stroke-miterlimit:4;stroke-dasharray:none;fill:none;fill-opacity:1;fill-rule: evenodd"/>
<path id="Shape2DView_nwe0113"  d="M 0.03977113128801102 -4.656 L 3.8920933311909613 -4.656 " stroke="#191919" stroke-width="0.35 px" style="stroke-width:0.35;stroke-miterlimit:4;stroke-dasharray:none;fill:none;fill-opacity:1;fill-rule: evenodd"/>
<path id="Shape2DView_nwe0114"  d="M -0.49197378323605806 -3.903999999999999 A 0.752 0.531745 -90 0 1 0.0397711 -4.656" stroke="#191919" stroke-width="0.35 px" style="stroke-width:0.35;stroke-miterlimit:4;stroke-dasharray:none;fill:none;fill-opacity:1;fill-rule: evenodd"/>
<path id="Shape2DView_nwe0115"  d="M -0.491973783236 -1.176 L -0.49197378323600016 -3.904 " stroke="#191919" stroke-width="0.35 px" style="stroke-width:0.35;stroke-miterlimit:4;stroke-dasharray:none;fill:none;fill-opacity:1;fill-rule: evenodd"/>
<path id="Shape2DView_nwe0116"  d="M -0.49197378323605806 -1.1760000000000004 A 0.752 0.531745 90 0 0 0.0397711 -0.424" stroke="#191919" stroke-width="0.35 px" style="stroke-width:0.35;stroke-miterlimit:4;stroke-dasharray:none;fill:none;fill-opacity:1;fill-rule: evenodd"/>
<path id="Shape2DView_nwe0117"  d="M -0.525914947992959 -4.704 L 4.457779410471463 -4.704 " stroke="#191919" stroke-width="0.35 px" style="stroke-width:0.35;stroke-miterlimit:4;stroke-dasharray:none;fill:none;fill-opacity:1;fill-rule: evenodd"/>
<path id="Shape2DView_nwe0118"  d="M 4.457779410473 -4.704 L 4.457779410473 -4.279999999999998 " stroke="#191919" stroke-width="0.35 px" style="stroke-width:0.35;stroke-miterlimit:4;stroke-dasharray:none;fill:none;fill-opacity:1;fill-rule: evenodd"/>
<path id="Shape2DView_nwe0119"  d="M 4.457779410473 -0.7999999999999945 L 4.457779410473 -0.37600000000000033 " stroke="#191919" stroke-width="0.35 px" style="stroke-width:0.35;stroke-miterlimit:4;stroke-dasharray:none;fill:none;fill-opacity:1;fill-rule: evenodd"/>
<path id="Shape2DView_nwe0120"  d="M 4.457779410472961 -0.376 L -0.5259149479914607 -0.37600000000000033 " stroke="#191919" stroke-width="0.35 px" style="stroke-width:0.35;stroke-miterlimit:4;stroke-dasharray:none;fill:none;fill-opacity:1;fill-rule: evenodd"/>
<path id="Shape2DView_nwe0121"  d="M -0.525914947993 -0.376 L -0.5259149479930002 -4.704 " stroke="#191919" stroke-width="0.35 px" style="stroke-width:0.35;stroke-miterlimit:4;stroke-dasharray:none;fill:none;fill-opacity:1;fill-rule: evenodd"/>
<path id="Shape2DView_nwe0122"  d="M 8.807906668808076 -0.4240000000000002 A 0.376 0.265872 -90 0 1 9.07378 -0.8" stroke="#191919" stroke-width="0.35 px" style="stroke-width:0.35;stroke-miterlimit:4;stroke-dasharray:none;fill:none;fill-opacity:1;fill-rule: evenodd"/>
<path id="Shape2DView_nwe0123"  d="M 8.347402064497027 -0.7999999999999938 A 0.752 0.531745 -90 0 0 8.80791 -0.424" stroke="#191919" stroke-width="0.35 px" style="stroke-width:0.35;stroke-miterlimit:4;stroke-dasharray:none;fill:none;fill-opacity:1;fill-rule: evenodd"/>
<path id="Shape2DView_nwe0124"  d="M 8.807906668808 -4.656 A 0.752 0.531745 -90 0 0 8.3474 -4.28" stroke="#191919" stroke-width="0.35 px" style="stroke-width:0.35;stroke-miterlimit:4;stroke-dasharray:none;fill:none;fill-opacity:1;fill-rule: evenodd"/>
<path id="Shape2DView_nwe0125"  d="M 8.807906668808076 -4.656 A 0.376 0.265872 90 0 0 9.07378 -4.28" stroke="#191919" stroke-width="0.35 px" style="stroke-width:0.35;stroke-miterlimit:4;stroke-dasharray:none;fill:none;fill-opacity:1;fill-rule: evenodd"/>
<path id="Shape2DView_nwe0126"  d="M 8.80790666880754 -4.656 L 12.66022886871046 -4.656 " stroke="#191919" stroke-width="0.35 px" style="stroke-width:0.35;stroke-miterlimit:4;stroke-dasharray:none;fill:none;fill-opacity:1;fill-rule: evenodd"/>
<path id="Shape2DView_nwe0127"  d="M 12.66022886871196 -0.424 L 8.80790666880904 -0.4239999999999997 " stroke="#191919" stroke-width="0.35 px" style="stroke-width:0.35;stroke-miterlimit:4;stroke-dasharray:none;fill:none;fill-opacity:1;fill-rule: evenodd"/>
<path id="Shape2DView_nwe0128"  d="M 13.191973783236008 -1.176 A 0.752 0.531745 90 0 1 12.6602 -0.424" stroke="#191919" stroke-width="0.35 px" style="stroke-width:0.35;stroke-miterlimit:4;stroke-dasharray:none;fill:none;fill-opacity:1;fill-rule: evenodd"/>
<path id="Shape2DView_nwe0129"  d="M 13.191973783236 -3.904 L 13.191973783236 -1.1760000000000002 " stroke="#191919" stroke-width="0.35 px" style="stroke-width:0.35;stroke-miterlimit:4;stroke-dasharray:none;fill:none;fill-opacity:1;fill-rule: evenodd"/>
<path id="Shape2DView_nwe0130"  d="M 12.660228868712 -4.656 A 0.752 0.531745 90 0 1 13.192 -3.904" stroke="#191919" stroke-width="0.35 px" style="stroke-width:0.35;stroke-miterlimit:4;stroke-dasharray:none;fill:none;fill-opacity:1;fill-rule: evenodd"/>
<path id="Shape2DView_nwe0131"  d="M 8.242220589527038 -4.704 L 13.225914947991459 -4.704 " stroke="#191919" stroke-width="0.35 px" style="stroke-width:0.35;stroke-miterlimit:4;stroke-dasharray:none;fill:none;fill-opacity:1;fill-rule: evenodd"/>
<path id="Shape2DView_nwe0132"  d="M 13.225914947993 -4.704 L 13.225914947993 -0.37600000000000033 " stroke="#191919" stroke-width="0.35 px" style="stroke-width:0.35;stroke-miterlimit:4;stroke-dasharray:none;fill:none;fill-opacity:1;fill-rule: evenodd"/>
<path id="Shape2DView_nwe0133"  d="M 13.225914947992958 -0.376 L 8.242220589528536 -0.37599999999999967 " stroke="#191919" stroke-width="0.35 px" style="stroke-width:0.35;stroke-miterlimit:4;stroke-dasharray:none;fill:none;fill-opacity:1;fill-rule: evenodd"/>
<path id="Shape2DView_nwe0134"  d="M 8.242220589527 -0.376 L 8.242220589527 -0.7999999999999942 " stroke="#191919" stroke-width="0.35 px" style="stroke-width:0.35;stroke-miterlimit:4;stroke-dasharray:none;fill:none;fill-opacity:1;fill-rule: evenodd"/>
<path id="Shape2DView_nwe0135"  d="M 8.242220589527 -4.279999999999998 L 8.242220589527 -4.704 " stroke="#191919" stroke-width="0.35 px" style="stroke-width:0.35;stroke-miterlimit:4;stroke-dasharray:none;fill:none;fill-opacity:1;fill-rule: evenodd"/>
<path id="Shape2DView_nwe0136"  d="M 13.901727876419999 -4.656 L 15.674 -4.656 " stroke="#191919" stroke-width="0.35 px" style="stroke-width:0.35;stroke-miterlimit:4;stroke-dasharray:none;fill:none;fill-opacity:1;fill-rule: evenodd"/>
<path id="Shape2DView_nwe0138"  d="M 16.426 -3.904 L 16.426 -1.1760000000000002 " stroke="#191919" stroke-width="0.35 px" style="stroke-width:0.35;stroke-miterlimit:4;stroke-dasharray:none;fill:none;fill-opacity:1;fill-rule: evenodd"/>
<path id="Shape2DView_nwe0140"  d="M 15.674 -0.424 L 13.901727876419999 -0.424 " stroke="#191919" stroke-width="0.35 px" style="stroke-width:0.35;stroke-miterlimit:4;stroke-dasharray:none;fill:none;fill-opacity:1;fill-rule: evenodd"/>
<path id="Shape2DView_nwe0141"  d="M 13.901727876419999 -4.704 L 16.474 -4.704 " stroke="#191919" stroke-width="0.35 px" style="stroke-width:0.35;stroke-miterlimit:4;stroke-dasharray:none;fill:none;fill-opacity:1;fill-rule: evenodd"/>
<path id="Shape2DView_nwe0142"  d="M 16.474 -0.376 L 13.901727876419999 -0.376 " stroke="#191919" stroke-width="0.35 px" style="stroke-width:0.35;stroke-miterlimit:4;stroke-dasharray:none;fill:none;fill-opacity:1;fill-rule: evenodd"/>
<path id="Shape2DView_nwe0143"  d="M 16.474 -4.704 L 16.474 -0.37600000000000033 " stroke="#191919" stroke-width="0.35 px" style="stroke-width:0.35;stroke-miterlimit:4;stroke-dasharray:none;fill:none;fill-opacity:1;fill-rule: evenodd"/>
<path id="Shape2DView_nwe0144"  d="M 15.674 -4.656 L 15.674 -4.613901356985156 L 15.674 -4.572332128832425 L 15.674 -4.531815072704857 L 15.674 -4.492859714091798 L 15.674 -4.4559559392302335 L 15.674 -4.421567834501116 L 15.674 -4.390127850273858 L 15.674 -4.36203136259202 L 15.674 -4.337631701090165 L 15.674 -4.31723570566869 L 15.674 -4.301099867804053 L 15.674 -4.289427105019634 L 15.674 -4.28236420908014 L 15.674 -4.279999999999999 " stroke="#191919" stroke-width="0.35 px" style="stroke-width:0.35;stroke-miterlimit:4;stroke-dasharray:none;fill:none;fill-opacity:1;fill-rule: evenodd"/>
<path id="Shape2DView_nwe0145"  d="M 12.660228868712077 -4.656 A 0.376 0.265872 90 0 0 12.9261 -4.28" stroke="#191919" stroke-width="0.35 px" style="stroke-width:0.35;stroke-miterlimit:4;stroke-dasharray:none;fill:none;fill-opacity:1;fill-rule: evenodd"/>
<path id="Shape2DView_nwe0146"  d="M 0.03977113128792403 -4.656 A 0.376 0.265872 90 0 1 -0.226101 -4.28" stroke="#191919" stroke-width="0.35 px" style="stroke-width:0.35;stroke-miterlimit:4;stroke-dasharray:none;fill:none;fill-opacity:1;fill-rule: evenodd"/>
<path id="Shape2DView_nwe0147"  d="M -1.2017278764200001 -0.3760000000000011 L -1.2011363606085728 -0.3760000000000012 L -1.1993636742963931 -0.3760000000000013 L -1.1964153949940055 -0.37600000000000133 L -1.1923007990515366 -0.3760000000000014 L -1.187032832471953 -0.37600000000000144 L -1.180628070178264 -0.3760000000000015 L -1.1731066638628382 -0.37600000000000156 L -1.1644922785829077 -0.3760000000000016 L -1.1548120183017643 -0.3760000000000016 L -1.1440963406099134 -0.37600000000000167 L -1.1323789608945085 -0.37600000000000167 L -1.1196967462585825 -0.3760000000000017 L -1.1060895995238433 -0.3760000000000017 L -1.0916003336820042 -0.3760000000000017 " stroke="#191919" stroke-width="0.35 px" style="stroke-width:0.35;stroke-miterlimit:4;stroke-dasharray:none;fill:none;fill-opacity:1;fill-rule: evenodd"/>
<path id="Shape2DView_nwe0148"  d="M -1.2017278764200001 -4.703999999999999 L -1.2011363606085728 -4.703999999999998 L -1.1993636742963931 -4.703999999999998 L -1.1964153949940055 -4.703999999999998 L -1.1923007990515366 -4.703999999999998 L -1.187032832471953 -4.703999999999998 L -1.180628070178264 -4.703999999999998 L -1.1731066638628382 -4.703999999999998 L -1.1644922785829077 -4.703999999999998 L -1.1548120183017643 -4.703999999999998 L -1.1440963406099134 -4.703999999999998 L -1.1323789608945085 -4.703999999999998 L -1.1196967462585825 -4.703999999999998 L -1.1060895995238433 -4.703999999999998 L -1.0916003336820042 -4.703999999999998 " stroke="#191919" stroke-width="0.35 px" style="stroke-width:0.35;stroke-miterlimit:4;stroke-dasharray:none;fill:none;fill-opacity:1;fill-rule: evenodd"/>
<path id="Shape2DView_nwe0149"  d="M -1.091600333682 -0.376 L -1.0916003336820002 -4.704 " stroke="#191919" stroke-width="0.35 px" style="stroke-width:0.35;stroke-miterlimit:4;stroke-dasharray:none;fill:none;fill-opacity:1;fill-rule: evenodd"/>
<path id="Shape2DView_nwe0150"  d="M 0.03977113128792403 -0.424 A 0.376 0.265872 -90 0 0 -0.226101 -0.8" stroke="#191919" stroke-width="0.35 px" style="stroke-width:0.35;stroke-miterlimit:4;stroke-dasharray:none;fill:none;fill-opacity:1;fill-rule: evenodd"/>
<path id="Shape2DView_nwe0151"  d="M -0.49197378323603536 -1.1760000000000002 L -0.4774844405379862 -1.1760000000000002 L -0.46387722044887364 -1.1760000000000002 L -0.4511949364433597 -1.176 L -0.4394774917964239 -1.176 L -0.42876175403252825 -1.176 L -0.4190814389264035 -1.176 L -0.4104670044204364 -1.176 L -0.40294555479243166 -1.176 L -0.3965407553752759 -1.176 L -0.39127275809682555 -1.176 L -0.38715813807429933 -1.176 L -0.3842098414626741 -1.176 L -0.3824371447211717 -1.176 L -0.381845625426 -1.176 " stroke="#191919" stroke-width="0.35 px" style="stroke-width:0.35;stroke-miterlimit:4;stroke-dasharray:none;fill:none;fill-opacity:1;fill-rule: evenodd"/>
<path id="Shape2DView_nwe0152"  d="M -0.49197378323603536 -3.904 L -0.477484440537991 -3.904 L -0.4638772204488827 -3.904 L -0.4511949364433722 -3.904 L -0.43947749179643913 -3.9040000000000004 L -0.4287617540325456 -3.9040000000000004 L -0.41908143892642213 -3.9040000000000004 L -0.4104670044204556 -3.9040000000000004 L -0.40294555479245064 -3.9040000000000004 L -0.3965407553752938 -3.9040000000000004 L -0.3912727580968415 -3.9040000000000004 L -0.38715813807431254 -3.9040000000000004 L -0.3842098414626838 -3.9040000000000004 L -0.3824371447211769 -3.9040000000000004 L -0.381845625426 -3.9040000000000004 " stroke="#191919" stroke-width="0.35 px" style="stroke-width:0.35;stroke-miterlimit:4;stroke-dasharray:none;fill:none;fill-opacity:1;fill-rule: evenodd"/>
<path id="Shape2DView_nwe0153"  d="M 4.457779410472924 -4.704 A 0.376 0.265872 -90 0 0 4.19191 -5.08" stroke="#191919" stroke-width="0.35 px" style="stroke-width:0.35;stroke-miterlimit:4;stroke-dasharray:none;fill:none;fill-opacity:1;fill-rule: evenodd"/>
<path id="Shape2DView_nwe0154"  d="M -0.525914947993076 -4.704 A 0.376 0.265872 -90 0 0 -0.791787 -5.08" stroke="#191919" stroke-width="0.35 px" style="stroke-width:0.35;stroke-miterlimit:4;stroke-dasharray:none;fill:none;fill-opacity:1;fill-rule: evenodd"/>
<path id="Shape2DView_nwe0155"  d="M -1.057659247445 -0.376 L -1.0576592474450002 -4.704 " stroke="#191919" stroke-width="0.35 px" style="stroke-width:0.35;stroke-miterlimit:4;stroke-dasharray:none;fill:none;fill-opacity:1;fill-rule: evenodd"/>
<path id="Shape2DView_nwe0156"  d="M -0.5259149479930353 -4.704 L -0.5573549647196607 -4.704 L -0.5917430976720016 -4.704 L -0.6286468961257228 -4.703999999999999 L -0.6676022734031859 -4.703999999999999 L -0.7081193430326904 -4.703999999999999 L -0.7496885793550939 -4.703999999999999 L -0.7917872251046092 -4.703999999999999 L -0.8338858653847331 -4.703999999999998 L -0.8754550853677425 -4.703999999999998 L -0.9159721279933281 -4.703999999999998 L -0.9549274679419371 -4.703999999999998 L -0.991831219211301 -4.703999999999998 L -1.0262192957171523 -4.703999999999998 L -1.057659247445004 -4.703999999999998 " stroke="#191919" stroke-width="0.35 px" style="stroke-width:0.35;stroke-miterlimit:4;stroke-dasharray:none;fill:none;fill-opacity:1;fill-rule: evenodd"/>
<path id="Shape2DView_nwe0157"  d="M -0.5259149479930353 -0.3760000000000001 L -0.5573549647196607 -0.37600000000000033 L -0.5917430976720016 -0.37600000000000056 L -0.6286468961257228 -0.3760000000000007 L -0.6676022734031859 -0.3760000000000009 L -0.7081193430326904 -0.37600000000000106 L -0.7496885793550939 -0.3760000000000012 L -0.7917872251046092 -0.3760000000000014 L -0.8338858653847331 -0.3760000000000015 L -0.8754550853677425 -0.3760000000000016 L -0.9159721279933281 -0.3760000000000017 L -0.9549274679419371 -0.3760000000000018 L -0.991831219211301 -0.3760000000000018 L -1.0262192957171523 -0.37600000000000183 L -1.057659247445004 -0.37600000000000183 " stroke="#191919" stroke-width="0.35 px" style="stroke-width:0.35;stroke-miterlimit:4;stroke-dasharray:none;fill:none;fill-opacity:1;fill-rule: evenodd"/>
<path id="Shape2DView_nwe0158"  d="M 4.457779410472964 -0.3760000000000001 L 4.472268753171009 -0.3760000000000001 L 4.485875973260117 -0.3760000000000001 L 4.498558257265627 -0.3760000000000001 L 4.51027570191256 -0.3760000000000001 L 4.520991439676453 -0.37600000000000006 L 4.530671754782577 -0.37600000000000006 L 4.539286189288544 -0.37600000000000006 L 4.546807638916548 -0.376 L 4.553212438333706 -0.376 L 4.558480435612157 -0.376 L 4.562595055634686 -0.376 L 4.565543352246316 -0.37599999999999995 L 4.567316048987823 -0.37599999999999995 L 4.567907568283 -0.37599999999999995 " stroke="#191919" stroke-width="0.35 px" style="stroke-width:0.35;stroke-miterlimit:4;stroke-dasharray:none;fill:none;fill-opacity:1;fill-rule: evenodd"/>
<path id="Shape2DView_nwe0159"  d="M 4.457779410472964 -4.704 L 4.472268753171009 -4.704 L 4.485875973260117 -4.704 L 4.498558257265627 -4.704 L 4.51027570191256 -4.704 L 4.520991439676453 -4.704 L 4.530671754782577 -4.704 L 4.539286189288544 -4.704000000000001 L 4.546807638916548 -4.704000000000001 L 4.553212438333706 -4.704000000000001 L 4.558480435612157 -4.704000000000001 L 4.562595055634686 -4.704000000000001 L 4.565543352246316 -4.704000000000001 L 4.567316048987823 -4.704000000000001 L 4.567907568283 -4.704000000000001 " stroke="#191919" stroke-width="0.35 px" style="stroke-width:0.35;stroke-miterlimit:4;stroke-dasharray:none;fill:none;fill-opacity:1;fill-rule: evenodd"/>
<path id="Shape2DView_nwe0160"  d="M -0.525914947993076 -0.37600000000000006 A 0.376 0.265872 90 0 1 -0.791787 0" stroke="#191919" stroke-width="0.35 px" style="stroke-width:0.35;stroke-miterlimit:4;stroke-dasharray:none;fill:none;fill-opacity:1;fill-rule: evenodd"/>
<path id="Shape2DView_nwe0161"  d="M 4.457779410472924 -0.3760000000000001 A 0.376 0.265872 90 0 1 4.19191 0" stroke="#191919" stroke-width="0.35 px" style="stroke-width:0.35;stroke-miterlimit:4;stroke-dasharray:none;fill:none;fill-opacity:1;fill-rule: evenodd"/>
<path id="Shape2DView_nwe0163"  d="M 6.326 -4.704 L 6.326 -0.37600000000000033 " stroke="#191919" stroke-width="0.35 px" style="stroke-width:0.35;stroke-miterlimit:4;stroke-dasharray:none;fill:none;fill-opacity:1;fill-rule: evenodd"/>
<path id="Shape2DView_nwe0164"  d="M 5.949999999999999 -0.37600000000000006 L 5.95236420908014 -0.37600000000000044 L 5.959427105019634 -0.37600000000000083 L 5.971099867804053 -0.3760000000000012 L 5.98723570566869 -0.37600000000000156 L 6.0076317010901645 -0.37600000000000194 L 6.03203136259202 -0.3760000000000023 L 6.060127850273858 -0.37600000000000255 L 6.091567834501116 -0.37600000000000283 L 6.125955939230233 -0.37600000000000305 L 6.162859714091798 -0.3760000000000032 L 6.201815072704857 -0.3760000000000034 L 6.242332128832426 -0.3760000000000035 L 6.283901356985156 -0.37600000000000355 L 6.326 -0.37600000000000355 " stroke="#191919" stroke-width="0.35 px" style="stroke-width:0.35;stroke-miterlimit:4;stroke-dasharray:none;fill:none;fill-opacity:1;fill-rule: evenodd"/>
<path id="Shape2DView_nwe0165"  d="M 5.949999999999999 -4.704 L 5.95236420908014 -4.704 L 5.959427105019634 -4.704 L 5.971099867804053 -4.704000000000001 L 5.98723570566869 -4.704000000000001 L 6.0076317010901645 -4.704000000000001 L 6.03203136259202 -4.704000000000001 L 6.060127850273858 -4.704000000000001 L 6.091567834501116 -4.7040000000000015 L 6.125955939230233 -4.7040000000000015 L 6.162859714091798 -4.7040000000000015 L 6.201815072704857 -4.7040000000000015 L 6.242332128832426 -4.7040000000000015 L 6.283901356985156 -4.7040000000000015 L 6.326 -4.7040000000000015 " stroke="#191919" stroke-width="0.35 px" style="stroke-width:0.35;stroke-miterlimit:4;stroke-dasharray:none;fill:none;fill-opacity:1;fill-rule: evenodd"/>
<path id="Shape2DView_nwe0168"  d="M 6.75 -4.704 L 6.747635790919859 -4.704 L 6.740572894980366 -4.704 L 6.728900132195946 -4.704000000000001 L 6.7127642943313095 -4.704000000000001 L 6.692368298909835 -4.704000000000001 L 6.667968637407979 -4.704000000000001 L 6.639872149726141 -4.704000000000001 L 6.608432165498884 -4.7040000000000015 L 6.574044060769767 -4.7040000000000015 L 6.537140285908202 -4.7040000000000015 L 6.498184927295143 -4.7040000000000015 L 6.457667871167574 -4.7040000000000015 L 6.416098643014844 -4.7040000000000015 L 6.374 -4.7040000000000015 " stroke="#191919" stroke-width="0.35 px" style="stroke-width:0.35;stroke-miterlimit:4;stroke-dasharray:none;fill:none;fill-opacity:1;fill-rule: evenodd"/>
<path id="Shape2DView_nwe0169"  d="M 6.75 -0.37599999999999995 L 6.747635790919859 -0.3760000000000004 L 6.740572894980366 -0.3760000000000008 L 6.728900132195946 -0.37600000000000117 L 6.7127642943313095 -0.37600000000000156 L 6.692368298909835 -0.3760000000000019 L 6.667968637407979 -0.3760000000000023 L 6.639872149726141 -0.37600000000000255 L 6.608432165498884 -0.37600000000000283 L 6.574044060769767 -0.37600000000000305 L 6.537140285908202 -0.3760000000000033 L 6.498184927295143 -0.37600000000000344 L 6.457667871167574 -0.37600000000000355 L 6.416098643014844 -0.3760000000000036 L 6.374 -0.37600000000000366 " stroke="#191919" stroke-width="0.35 px" style="stroke-width:0.35;stroke-miterlimit:4;stroke-dasharray:none;fill:none;fill-opacity:1;fill-rule: evenodd"/>
<path id="Shape2DView_nwe0170"  d="M 6.374 -4.704 L 6.374 -0.37600000000000033 " stroke="#191919" stroke-width="0.35 px" style="stroke-width:0.35;stroke-miterlimit:4;stroke-dasharray:none;fill:none;fill-opacity:1;fill-rule: evenodd"/>
<path id="Shape2DView_nwe0172"  d="M 12.660228868712077 -0.42399999999999993 A 0.376 0.265872 -90 0 1 12.9261 -0.8" stroke="#191919" stroke-width="0.35 px" style="stroke-width:0.35;stroke-miterlimit:4;stroke-dasharray:none;fill:none;fill-opacity:1;fill-rule: evenodd"/>
<path id="Shape2DView_nwe0173"  d="M 13.191973783236035 -3.904 L 13.177484440537986 -3.904 L 13.163877220448873 -3.9039999999999995 L 13.151194936443359 -3.9039999999999995 L 13.139477491796423 -3.903999999999999 L 13.128761754032528 -3.903999999999999 L 13.119081438926404 -3.903999999999999 L 13.110467004420435 -3.9039999999999986 L 13.10294555479243 -3.9039999999999986 L 13.096540755375276 -3.903999999999998 L 13.091272758096824 -3.903999999999998 L 13.0871581380743 -3.903999999999998 L 13.084209841462673 -3.9039999999999977 L 13.08243714472117 -3.9039999999999977 L 13.081845625426 -3.9039999999999977 " stroke="#191919" stroke-width="0.35 px" style="stroke-width:0.35;stroke-miterlimit:4;stroke-dasharray:none;fill:none;fill-opacity:1;fill-rule: evenodd"/>
<path id="Shape2DView_nwe0174"  d="M 13.191973783236035 -1.176 L 13.177484440537992 -1.176 L 13.163877220448882 -1.176 L 13.151194936443371 -1.176 L 13.13947749179644 -1.1760000000000002 L 13.128761754032546 -1.1760000000000002 L 13.119081438926422 -1.1760000000000002 L 13.110467004420455 -1.1760000000000002 L 13.10294555479245 -1.1760000000000002 L 13.096540755375294 -1.1760000000000002 L 13.091272758096842 -1.1760000000000002 L 13.087158138074312 -1.1760000000000002 L 13.084209841462684 -1.1760000000000002 L 13.082437144721176 -1.1760000000000002 L 13.081845625426 -1.1760000000000002 " stroke="#191919" stroke-width="0.35 px" style="stroke-width:0.35;stroke-miterlimit:4;stroke-dasharray:none;fill:none;fill-opacity:1;fill-rule: evenodd"/>
<path id="Shape2DView_nwe0175"  d="M 13.225914947993076 -4.704 A 0.376 0.265872 -90 0 1 13.4918 -5.08" stroke="#191919" stroke-width="0.35 px" style="stroke-width:0.35;stroke-miterlimit:4;stroke-dasharray:none;fill:none;fill-opacity:1;fill-rule: evenodd"/>
<path id="Shape2DView_nwe0176"  d="M 8.242220589527076 -4.704 A 0.376 0.265872 -90 0 1 8.50809 -5.08" stroke="#191919" stroke-width="0.35 px" style="stroke-width:0.35;stroke-miterlimit:4;stroke-dasharray:none;fill:none;fill-opacity:1;fill-rule: evenodd"/>
<path id="Shape2DView_nwe0177"  d="M 8.242220589527035 -4.704 L 8.227731246828991 -4.704 L 8.214124026739883 -4.704 L 8.201441742734373 -4.704 L 8.18972429808744 -4.704 L 8.179008560323545 -4.704 L 8.169328245217423 -4.704 L 8.160713810711457 -4.704 L 8.153192361083452 -4.704 L 8.146787561666294 -4.704 L 8.141519564387842 -4.704 L 8.137404944365313 -4.704 L 8.134456647753684 -4.704 L 8.132683951012176 -4.704 L 8.132092431717 -4.704 " stroke="#191919" stroke-width="0.35 px" style="stroke-width:0.35;stroke-miterlimit:4;stroke-dasharray:none;fill:none;fill-opacity:1;fill-rule: evenodd"/>
<path id="Shape2DView_nwe0178"  d="M 8.242220589527035 -0.37600000000000006 L 8.227731246828991 -0.3760000000000001 L 8.214124026739883 -0.3760000000000001 L 8.201441742734373 -0.37600000000000017 L 8.18972429808744 -0.37600000000000017 L 8.179008560323545 -0.3760000000000002 L 8.169328245217423 -0.3760000000000002 L 8.160713810711457 -0.3760000000000003 L 8.153192361083452 -0.3760000000000003 L 8.146787561666294 -0.37600000000000033 L 8.141519564387842 -0.37600000000000033 L 8.137404944365313 -0.3760000000000004 L 8.134456647753684 -0.3760000000000004 L 8.132683951012176 -0.37600000000000044 L 8.132092431717 -0.37600000000000044 " stroke="#191919" stroke-width="0.35 px" style="stroke-width:0.35;stroke-miterlimit:4;stroke-dasharray:none;fill:none;fill-opacity:1;fill-rule: evenodd"/>
<path id="Shape2DView_nwe0179"  d="M 13.757659247445 -4.704 L 13.757659247445 -0.37600000000000033 " stroke="#191919" stroke-width="0.35 px" style="stroke-width:0.35;stroke-miterlimit:4;stroke-dasharray:none;fill:none;fill-opacity:1;fill-rule: evenodd"/>
<path id="Shape2DView_nwe0180"  d="M 13.225914947993035 -0.37600000000000006 L 13.25735496471966 -0.3760000000000001 L 13.291743097672 -0.37600000000000017 L 13.328646896125722 -0.37600000000000017 L 13.367602273403184 -0.3760000000000002 L 13.40811934303269 -0.3760000000000003 L 13.449688579355094 -0.3760000000000003 L 13.49178722510461 -0.37600000000000033 L 13.533885865384732 -0.37600000000000033 L 13.575455085367741 -0.3760000000000004 L 13.615972127993327 -0.3760000000000004 L 13.654927467941937 -0.3760000000000004 L 13.6918312192113 -0.3760000000000004 L 13.72621929571715 -0.3760000000000004 L 13.757659247445003 -0.3760000000000004 " stroke="#191919" stroke-width="0.35 px" style="stroke-width:0.35;stroke-miterlimit:4;stroke-dasharray:none;fill:none;fill-opacity:1;fill-rule: evenodd"/>
<path id="Shape2DView_nwe0181"  d="M 13.225914947993035 -4.704 L 13.25735496471966 -4.704 L 13.291743097672 -4.703999999999999 L 13.328646896125722 -4.703999999999999 L 13.367602273403184 -4.703999999999998 L 13.40811934303269 -4.703999999999998 L 13.449688579355094 -4.703999999999998 L 13.49178722510461 -4.703999999999997 L 13.533885865384732 -4.703999999999997 L 13.575455085367741 -4.703999999999997 L 13.615972127993327 -4.703999999999997 L 13.654927467941937 -4.703999999999996 L 13.6918312192113 -4.703999999999996 L 13.72621929571715 -4.703999999999996 L 13.757659247445003 -4.703999999999996 " stroke="#191919" stroke-width="0.35 px" style="stroke-width:0.35;stroke-miterlimit:4;stroke-dasharray:none;fill:none;fill-opacity:1;fill-rule: evenodd"/>
<path id="Shape2DView_nwe0182"  d="M 8.242220589527076 -0.37600000000000006 A 0.376 0.265872 90 0 0 8.50809 0" stroke="#191919" stroke-width="0.35 px" style="stroke-width:0.35;stroke-miterlimit:4;stroke-dasharray:none;fill:none;fill-opacity:1;fill-rule: evenodd"/>
<path id="Shape2DView_nwe0183"  d="M 13.225914947993076 -0.37600000000000017 A 0.376 0.265872 90 0 0 13.4918 0" stroke="#191919" stroke-width="0.35 px" style="stroke-width:0.35;stroke-miterlimit:4;stroke-dasharray:none;fill:none;fill-opacity:1;fill-rule: evenodd"/>
<path id="Shape2DView_nwe0184"  d="M 13.901727876419999 -4.703999999999997 L 13.901136360608572 -4.703999999999997 L 13.899363674296392 -4.703999999999997 L 13.896415394994005 -4.703999999999997 L 13.892300799051535 -4.703999999999996 L 13.887032832471952 -4.703999999999996 L 13.880628070178263 -4.703999999999996 L 13.873106663862837 -4.703999999999996 L 13.864492278582906 -4.703999999999996 L 13.854812018301763 -4.703999999999996 L 13.844096340609912 -4.703999999999996 L 13.832378960894507 -4.703999999999996 L 13.819696746258582 -4.703999999999996 L 13.806089599523844 -4.703999999999996 L 13.791600333682004 -4.703999999999996 " stroke="#191919" stroke-width="0.35 px" style="stroke-width:0.35;stroke-miterlimit:4;stroke-dasharray:none;fill:none;fill-opacity:1;fill-rule: evenodd"/>
<path id="Shape2DView_nwe0185"  d="M 13.901727876419999 -0.3760000000000001 L 13.901136360608572 -0.3760000000000001 L 13.899363674296392 -0.3760000000000001 L 13.896415394994005 -0.37600000000000017 L 13.892300799051535 -0.37600000000000017 L 13.887032832471952 -0.37600000000000017 L 13.880628070178263 -0.37600000000000017 L 13.873106663862837 -0.37600000000000017 L 13.864492278582906 -0.37600000000000017 L 13.854812018301763 -0.3760000000000002 L 13.844096340609912 -0.3760000000000002 L 13.832378960894507 -0.3760000000000002 L 13.819696746258582 -0.3760000000000002 L 13.806089599523844 -0.3760000000000002 L 13.791600333682004 -0.3760000000000002 " stroke="#191919" stroke-width="0.35 px" style="stroke-width:0.35;stroke-miterlimit:4;stroke-dasharray:none;fill:none;fill-opacity:1;fill-rule: evenodd"/>
<path id="Shape2DView_nwe0186"  d="M 13.791600333682 -4.704 L 13.791600333682 -0.37600000000000033 " stroke="#191919" stroke-width="0.35 px" style="stroke-width:0.35;stroke-miterlimit:4;stroke-dasharray:none;fill:none;fill-opacity:1;fill-rule: evenodd"/>
<path id="Shape2DView_nwe0187"  d="M 15.674 -0.424 L 15.674 -0.46609864301484377 L 15.674 -0.5076678711675742 L 15.674 -0.5481849272951428 L 15.674 -0.5871402859082019 L 15.674 -0.6240440607697665 L 15.674 -0.6584321654988838 L 15.674 -0.689872149726142 L 15.674 -0.7179686374079792 L 15.674 -0.7423682989098348 L 15.674 -0.7627642943313095 L 15.674 -0.7789001321959461 L 15.674 -0.7905728949803656 L 15.674 -0.7976357909198593 L 15.674 -0.8 " stroke="#191919" stroke-width="0.35 px" style="stroke-width:0.35;stroke-miterlimit:4;stroke-dasharray:none;fill:none;fill-opacity:1;fill-rule: evenodd"/>
<path id="Shape2DView_nwe0188"  d="M 16.426 -3.904 L 16.383901356985156 -3.904 L 16.342332128832425 -3.904 L 16.301815072704855 -3.904 L 16.262859714091796 -3.904 L 16.225955939230232 -3.904 L 16.191567834501114 -3.904 L 16.160127850273856 -3.904 L 16.13203136259202 -3.904 L 16.107631701090163 -3.904 L 16.08723570566869 -3.904 L 16.07109986780405 -3.904 L 16.059427105019633 -3.904 L 16.05236420908014 -3.904 L 16.049999999999997 -3.904 " stroke="#191919" stroke-width="0.35 px" style="stroke-width:0.35;stroke-miterlimit:4;stroke-dasharray:none;fill:none;fill-opacity:1;fill-rule: evenodd"/>
<path id="Shape2DView_nwe0189"  d="M 16.426 -1.176 L 16.383901356985156 -1.176 L 16.342332128832425 -1.176 L 16.301815072704855 -1.1760000000000002 L 16.262859714091796 -1.1760000000000002 L 16.225955939230232 -1.1760000000000002 L 16.191567834501114 -1.1760000000000002 L 16.160127850273856 -1.1760000000000002 L 16.13203136259202 -1.1760000000000002 L 16.107631701090163 -1.1760000000000002 L 16.08723570566869 -1.1760000000000002 L 16.07109986780405 -1.1760000000000002 L 16.059427105019633 -1.1760000000000002 L 16.05236420908014 -1.1760000000000002 L 16.049999999999997 -1.1760000000000002 " stroke="#191919" stroke-width="0.35 px" style="stroke-width:0.35;stroke-miterlimit:4;stroke-dasharray:none;fill:none;fill-opacity:1;fill-rule: evenodd"/>
<path id="Shape2DView_nwe0190"  d="M 16.474 -4.704 L 16.474 -4.746098643014843 L 16.474 -4.7876678711675735 L 16.474 -4.828184927295142 L 16.474 -4.867140285908201 L 16.474 -4.904044060769766 L 16.474 -4.938432165498884 L 16.474 -4.969872149726141 L 16.474 -4.997968637407979 L 16.474 -5.022368298909835 L 16.474 -5.04276429433131 L 16.474 -5.058900132195946 L 16.474 -5.070572894980366 L 16.474 -5.077635790919859 L 16.474 -5.08 " stroke="#191919" stroke-width="0.35 px" style="stroke-width:0.35;stroke-miterlimit:4;stroke-dasharray:none;fill:none;fill-opacity:1;fill-rule: evenodd"/>
<path id="Shape2DView_nwe0191"  d="M 16.474 -0.37600000000000006 L 16.516098643014843 -0.376 L 16.557667871167574 -0.37599999999999995 L 16.598184927295144 -0.37599999999999995 L 16.637140285908202 -0.3759999999999999 L 16.674044060769766 -0.3759999999999999 L 16.708432165498884 -0.37599999999999983 L 16.739872149726143 -0.3759999999999998 L 16.76796863740798 -0.3759999999999998 L 16.792368298909835 -0.3759999999999997 L 16.81276429433131 -0.3759999999999997 L 16.828900132195947 -0.3759999999999997 L 16.840572894980365 -0.37599999999999967 L 16.84763579091986 -0.37599999999999967 L 16.85 -0.37599999999999967 " stroke="#191919" stroke-width="0.35 px" style="stroke-width:0.35;stroke-miterlimit:4;stroke-dasharray:none;fill:none;fill-opacity:1;fill-rule: evenodd"/>
<path id="Shape2DView_nwe0192"  d="M 16.474 -4.704 L 16.516098643014843 -4.704 L 16.557667871167574 -4.704 L 16.598184927295144 -4.704 L 16.637140285908202 -4.704 L 16.674044060769766 -4.704 L 16.708432165498884 -4.704 L 16.739872149726143 -4.704 L 16.76796863740798 -4.704 L 16.792368298909835 -4.704 L 16.81276429433131 -4.704 L 16.828900132195947 -4.704 L 16.840572894980365 -4.704 L 16.84763579091986 -4.704 L 16.85 -4.704 " stroke="#191919" stroke-width="0.35 px" style="stroke-width:0.35;stroke-miterlimit:4;stroke-dasharray:none;fill:none;fill-opacity:1;fill-rule: evenodd"/>
<path id="Shape2DView_nwe0193"  d="M 16.474 -0.3760000000000001 L 16.474 -0.3339013569851564 L 16.474 -0.2923321288324259 L 16.474 -0.2518150727048573 L 16.474 -0.21285971409179824 L 16.474 -0.17595593923023356 L 16.474 -0.1415678345011163 L 16.474 -0.11012785027385824 L 16.474 -0.08203136259202087 L 16.474 -0.05763170109016519 L 16.474 -0.037235705668690444 L 16.474 -0.021099867804053818 L 16.474 -0.009427105019634341 L 16.474 -0.002364209080140789 L 16.474 0.0 " stroke="#191919" stroke-width="0.35 px" style="stroke-width:0.35;stroke-miterlimit:4;stroke-dasharray:none;fill:none;fill-opacity:1;fill-rule: evenodd"/>
<path id="Shape2DView_nwe0194"  d="M 8.508092431717 -5.08 A 0.376 0.265872 90 0 0 8.42176 -5.05963" stroke="#191919" stroke-width="0.35 px" style="stroke-width:0.35;stroke-miterlimit:4;stroke-dasharray:none;fill:none;fill-opacity:1;fill-rule: evenodd"/>
<path id="Shape2DView_nwe0195"  d="M 8.508092431717 0.0 A 0.376 0.265872 -90 0 1 8.42176 -0.0203726" stroke="#191919" stroke-width="0.35 px" style="stroke-width:0.35;stroke-miterlimit:4;stroke-dasharray:none;fill:none;fill-opacity:1;fill-rule: evenodd"/>
<path id="Shape2DView_nwe0196"  d="M 4.191907568283 -5.08 A 0.376 0.265872 90 0 1 4.27824 -5.05963" stroke="#191919" stroke-width="0.35 px" style="stroke-width:0.35;stroke-miterlimit:4;stroke-dasharray:none;fill:none;fill-opacity:1;fill-rule: evenodd"/>
<path id="Shape2DView_nwe0197"  d="M -0.82572787642 -5.08 A 0.376 0.265872 90 0 0 -1.0916 -4.704" stroke="#191919" stroke-width="0.35 px" style="stroke-width:0.35;stroke-miterlimit:4;stroke-dasharray:none;fill:none;fill-opacity:1;fill-rule: evenodd"/>
<path id="Shape2DView_nwe0198"  d="M -0.8257278764199999 0.0 A 0.376 0.265872 -90 0 1 -1.0916 -0.376" stroke="#191919" stroke-width="0.35 px" style="stroke-width:0.35;stroke-miterlimit:4;stroke-dasharray:none;fill:none;fill-opacity:1;fill-rule: evenodd"/>
<path id="Shape2DView_nwe0199"  d="M -1.0576592474449613 -4.704 L -1.091600333682041 -4.704 " stroke="#191919" stroke-width="0.35 px" style="stroke-width:0.35;stroke-miterlimit:4;stroke-dasharray:none;fill:none;fill-opacity:1;fill-rule: evenodd"/>
<path id="Shape2DView_nwe0200"  d="M -1.0576592474449613 -0.37599999999999995 L -1.091600333682041 -0.37599999999999995 " stroke="#191919" stroke-width="0.35 px" style="stroke-width:0.35;stroke-miterlimit:4;stroke-dasharray:none;fill:none;fill-opacity:1;fill-rule: evenodd"/>
<path id="Shape2DView_nwe0201"  d="M -0.791786790183 -5.08 A 0.376 0.265872 90 0 0 -1.05766 -4.704" stroke="#191919" stroke-width="0.35 px" style="stroke-width:0.35;stroke-miterlimit:4;stroke-dasharray:none;fill:none;fill-opacity:1;fill-rule: evenodd"/>
<path id="Shape2DView_nwe0202"  d="M -0.7917867901829999 0.0 A 0.376 0.265872 -90 0 1 -1.05766 -0.376" stroke="#191919" stroke-width="0.35 px" style="stroke-width:0.35;stroke-miterlimit:4;stroke-dasharray:none;fill:none;fill-opacity:1;fill-rule: evenodd"/>
<path id="Shape2DView_nwe0203"  d="M 6.326 0.0 L 6.326 -0.002364209080140789 L 6.326 -0.009427105019634341 L 6.326 -0.021099867804053818 L 6.326 -0.03723570566869039 L 6.326 -0.05763170109016519 L 6.326 -0.08203136259202082 L 6.326 -0.11012785027385813 L 6.326 -0.14156783450111618 L 6.326 -0.17595593923023345 L 6.326 -0.21285971409179813 L 6.326 -0.25181507270485715 L 6.326 -0.29233212883242576 L 6.326 -0.3339013569851562 L 6.326 -0.376 " stroke="#191919" stroke-width="0.35 px" style="stroke-width:0.35;stroke-miterlimit:4;stroke-dasharray:none;fill:none;fill-opacity:1;fill-rule: evenodd"/>
<path id="Shape2DView_nwe0204"  d="M 6.326 -5.08 L 6.326 -5.077635790919859 L 6.326 -5.070572894980366 L 6.326 -5.058900132195946 L 6.326 -5.04276429433131 L 6.326 -5.022368298909835 L 6.326 -4.997968637407979 L 6.326 -4.969872149726141 L 6.326 -4.938432165498884 L 6.326 -4.904044060769766 L 6.326 -4.867140285908202 L 6.326 -4.828184927295142 L 6.326 -4.787667871167574 L 6.326 -4.746098643014843 L 6.326 -4.704 " stroke="#191919" stroke-width="0.35 px" style="stroke-width:0.35;stroke-miterlimit:4;stroke-dasharray:none;fill:none;fill-opacity:1;fill-rule: evenodd"/>
<path id="Shape2DView_nwe0205"  d="M 6.326 -0.37599999999999995 L 6.374 -0.37599999999999995 " stroke="#191919" stroke-width="0.35 px" style="stroke-width:0.35;stroke-miterlimit:4;stroke-dasharray:none;fill:none;fill-opacity:1;fill-rule: evenodd"/>
<path id="Shape2DView_nwe0206"  d="M 6.326 -4.704 L 6.374 -4.704 " stroke="#191919" stroke-width="0.35 px" style="stroke-width:0.35;stroke-miterlimit:4;stroke-dasharray:none;fill:none;fill-opacity:1;fill-rule: evenodd"/>
<path id="Shape2DView_nwe0207"  d="M 6.374 0.0 L 6.374 -0.002364209080140789 L 6.374 -0.009427105019634341 L 6.374 -0.021099867804053818 L 6.374 -0.03723570566869039 L 6.374 -0.05763170109016519 L 6.374 -0.08203136259202082 L 6.374 -0.11012785027385813 L 6.374 -0.14156783450111618 L 6.374 -0.17595593923023345 L 6.374 -0.21285971409179813 L 6.374 -0.25181507270485715 L 6.374 -0.29233212883242576 L 6.374 -0.3339013569851562 L 6.374 -0.376 " stroke="#191919" stroke-width="0.35 px" style="stroke-width:0.35;stroke-miterlimit:4;stroke-dasharray:none;fill:none;fill-opacity:1;fill-rule: evenodd"/>
<path id="Shape2DView_nwe0208"  d="M 6.374 -5.08 L 6.374 -5.077635790919859 L 6.374 -5.070572894980366 L 6.374 -5.058900132195946 L 6.374 -5.04276429433131 L 6.374 -5.022368298909835 L 6.374 -4.997968637407979 L 6.374 -4.969872149726141 L 6.374 -4.938432165498884 L 6.374 -4.904044060769766 L 6.374 -4.867140285908202 L 6.374 -4.828184927295142 L 6.374 -4.787667871167574 L 6.374 -4.746098643014843 L 6.374 -4.704 " stroke="#191919" stroke-width="0.35 px" style="stroke-width:0.35;stroke-miterlimit:4;stroke-dasharray:none;fill:none;fill-opacity:1;fill-rule: evenodd"/>
<path id="Shape2DView_nwe0209"  d="M 13.491786790183 -5.08 A 0.376 0.265872 90 0 1 13.7577 -4.704" stroke="#191919" stroke-width="0.35 px" style="stroke-width:0.35;stroke-miterlimit:4;stroke-dasharray:none;fill:none;fill-opacity:1;fill-rule: evenodd"/>
<path id="Shape2DView_nwe0210"  d="M 13.75765924744496 -4.704 L 13.791600333682041 -4.704 " stroke="#191919" stroke-width="0.35 px" style="stroke-width:0.35;stroke-miterlimit:4;stroke-dasharray:none;fill:none;fill-opacity:1;fill-rule: evenodd"/>
<path id="Shape2DView_nwe0211"  d="M 13.75765924744496 -0.37599999999999995 L 13.791600333682041 -0.37599999999999995 " stroke="#191919" stroke-width="0.35 px" style="stroke-width:0.35;stroke-miterlimit:4;stroke-dasharray:none;fill:none;fill-opacity:1;fill-rule: evenodd"/>
<path id="Shape2DView_nwe0212"  d="M 13.757659247445003 -0.37600000000000067 A 0.376 0.265872 90 0 1 13.4918 0" stroke="#191919" stroke-width="0.35 px" style="stroke-width:0.35;stroke-miterlimit:4;stroke-dasharray:none;fill:none;fill-opacity:1;fill-rule: evenodd"/>
<path id="Shape2DView_nwe0213"  d="M 13.52572787642 -5.08 A 0.376 0.265872 90 0 1 13.7916 -4.704" stroke="#191919" stroke-width="0.35 px" style="stroke-width:0.35;stroke-miterlimit:4;stroke-dasharray:none;fill:none;fill-opacity:1;fill-rule: evenodd"/>
<path id="Shape2DView_nwe0214"  d="M 13.791600333682004 -0.37600000000000033 A 0.376 0.265872 90 0 1 13.5257 0" stroke="#191919" stroke-width="0.35 px" style="stroke-width:0.35;stroke-miterlimit:4;stroke-dasharray:none;fill:none;fill-opacity:1;fill-rule: evenodd"/>
<path id="Shape2DView_nwe0215"  d="M -3.35 -1.3 Q -3.305587646862495 -0.8445110629487669 -2.850020262624484 -0.7999999999999999 " stroke="#191919" stroke-width="0.35 px" style="stroke-width:0.35;stroke-miterlimit:4;stroke-dasharray:none;fill:none;fill-opacity:1;fill-rule: evenodd"/>
<path id="Shape2DView_nwe0216"  d="M -3.35 -3.78 Q -3.3055834998604263 -4.235502978077584 -2.849999999999998 -4.279999999999999 " stroke="#191919" stroke-width="0.35 px" style="stroke-width:0.35;stroke-miterlimit:4;stroke-dasharray:none;fill:none;fill-opacity:1;fill-rule: evenodd"/>
<path id="Shape2DView_nwe0217"  d="M -1.2017278764200001 -0.37600000000000083 L -1.2017278764200003 -4.704 " stroke="#191919" stroke-width="0.35 px" style="stroke-width:0.35;stroke-miterlimit:4;stroke-dasharray:none;fill:none;fill-opacity:1;fill-rule: evenodd"/>
<path id="Shape2DView_nwe0218"  d="M -0.22610071090200004 -0.7999999999999999 Q -0.25338104842462095 -0.821283719842613 -0.280661385947242 -0.8425674396852261 Q -0.31888516112772863 -0.8077250744414083 -0.38184562542600814 -1.1760000000000004 " stroke="#191919" stroke-width="0.35 px" style="stroke-width:0.35;stroke-miterlimit:4;stroke-dasharray:none;fill:none;fill-opacity:1;fill-rule: evenodd"/>
<path id="Shape2DView_nwe0219"  d="M -0.381845625426 -1.1759999999999997 L -0.38184562542600015 -3.904 " stroke="#191919" stroke-width="0.35 px" style="stroke-width:0.35;stroke-miterlimit:4;stroke-dasharray:none;fill:none;fill-opacity:1;fill-rule: evenodd"/>
<path id="Shape2DView_nwe0220"  d="M -0.3818456254260081 -3.9039999999999995 Q -0.2678626354980016 -4.366704865973265 -0.22610071090200073 -4.28 " stroke="#191919" stroke-width="0.35 px" style="stroke-width:0.35;stroke-miterlimit:4;stroke-dasharray:none;fill:none;fill-opacity:1;fill-rule: evenodd"/>
<path id="Shape2DView_nwe0221"  d="M 4.567907568283 -4.704000000000001 L 4.567907568283 -4.279999999999998 " stroke="#191919" stroke-width="0.35 px" style="stroke-width:0.35;stroke-miterlimit:4;stroke-dasharray:none;fill:none;fill-opacity:1;fill-rule: evenodd"/>
<path id="Shape2DView_nwe0222"  d="M 4.567907568283 -0.7999999999999945 L 4.567907568283 -0.37599999999999945 " stroke="#191919" stroke-width="0.35 px" style="stroke-width:0.35;stroke-miterlimit:4;stroke-dasharray:none;fill:none;fill-opacity:1;fill-rule: evenodd"/>
<path id="Shape2DView_nwe0223"  d="M 12.926100710902 -4.28 Q 12.95338104842462 -4.258716280157389 12.98066138594724 -4.237432560314778 Q 13.018885161127722 -4.2722749255586026 13.08184562542601 -3.904 " stroke="#191919" stroke-width="0.35 px" style="stroke-width:0.35;stroke-miterlimit:4;stroke-dasharray:none;fill:none;fill-opacity:1;fill-rule: evenodd"/>
<path id="Shape2DView_nwe0224"  d="M 13.081845625426 -3.9039999999999973 L 13.081845625426 -1.1759999999999993 " stroke="#191919" stroke-width="0.35 px" style="stroke-width:0.35;stroke-miterlimit:4;stroke-dasharray:none;fill:none;fill-opacity:1;fill-rule: evenodd"/>
<path id="Shape2DView_nwe0225"  d="M 13.08184562542601 -1.1759999999999997 Q 12.967862635497971 -0.7132951340266827 12.926100710902002 -0.7999999999999999 " stroke="#191919" stroke-width="0.35 px" style="stroke-width:0.35;stroke-miterlimit:4;stroke-dasharray:none;fill:none;fill-opacity:1;fill-rule: evenodd"/>
<path id="Shape2DView_nwe0226"  d="M 8.132092431717 -0.3760000000000003 L 8.132092431717 -0.7999999999999942 " stroke="#191919" stroke-width="0.35 px" style="stroke-width:0.35;stroke-miterlimit:4;stroke-dasharray:none;fill:none;fill-opacity:1;fill-rule: evenodd"/>
<path id="Shape2DView_nwe0227"  d="M 8.132092431717 -4.279999999999998 L 8.132092431717 -4.703999999999998 " stroke="#191919" stroke-width="0.35 px" style="stroke-width:0.35;stroke-miterlimit:4;stroke-dasharray:none;fill:none;fill-opacity:1;fill-rule: evenodd"/>
<path id="Shape2DView_nwe0228"  d="M 13.901727876419999 -4.703999999999998 L 13.901727876419999 -0.37599999999999945 " stroke="#191919" stroke-width="0.35 px" style="stroke-width:0.35;stroke-miterlimit:4;stroke-dasharray:none;fill:none;fill-opacity:1;fill-rule: evenodd"/>
<path id="Shape2DView_nwe0229"  d="M -1.2017278764200001 -4.703999999999999 A 0.376 0.376 0 0 1 -0.825728 -5.08" stroke="#191919" stroke-width="0.35 px" style="stroke-width:0.35;stroke-miterlimit:4;stroke-dasharray:none;fill:none;fill-opacity:1;fill-rule: evenodd"/>
<path id="Shape2DView_nwe0230"  d="M -0.8257278764199999 0.0 A 0.376 0.376 0 0 1 -1.20173 -0.376" stroke="#191919" stroke-width="0.35 px" style="stroke-width:0.35;stroke-miterlimit:4;stroke-dasharray:none;fill:none;fill-opacity:1;fill-rule: evenodd"/>
<path id="Shape2DView_nwe0231"  d="M 4.191907568283001 -5.08 A 0.376 0.376 0 0 1 4.56791 -4.704" stroke="#191919" stroke-width="0.35 px" style="stroke-width:0.35;stroke-miterlimit:4;stroke-dasharray:none;fill:none;fill-opacity:1;fill-rule: evenodd"/>
<path id="Shape2DView_nwe0232"  d="M 4.567907568283 -0.3760000000000001 A 0.376 0.376 0 0 1 4.19191 0" stroke="#191919" stroke-width="0.35 px" style="stroke-width:0.35;stroke-miterlimit:4;stroke-dasharray:none;fill:none;fill-opacity:1;fill-rule: evenodd"/>
<path id="Shape2DView_nwe0233"  d="M 8.132092431717 -4.703999999999999 A 0.376 0.376 0 0 1 8.50809 -5.08" stroke="#191919" stroke-width="0.35 px" style="stroke-width:0.35;stroke-miterlimit:4;stroke-dasharray:none;fill:none;fill-opacity:1;fill-rule: evenodd"/>
<path id="Shape2DView_nwe0234"  d="M 8.508092431717 0.0 A 0.376 0.376 0 0 1 8.13209 -0.376" stroke="#191919" stroke-width="0.35 px" style="stroke-width:0.35;stroke-miterlimit:4;stroke-dasharray:none;fill:none;fill-opacity:1;fill-rule: evenodd"/>
<path id="Shape2DView_nwe0235"  d="M 13.52572787642 -5.08 A 0.376 0.376 0 0 1 13.9017 -4.704" stroke="#191919" stroke-width="0.35 px" style="stroke-width:0.35;stroke-miterlimit:4;stroke-dasharray:none;fill:none;fill-opacity:1;fill-rule: evenodd"/>
<path id="Shape2DView_nwe0236"  d="M 13.901727876419999 -0.3760000000000004 A 0.376 0.376 0 0 1 13.5257 0" stroke="#191919" stroke-width="0.35 px" style="stroke-width:0.35;stroke-miterlimit:4;stroke-dasharray:none;fill:none;fill-opacity:1;fill-rule: evenodd"/>
<title>b'Shape2DView'</title>
</g>
<g id="Rectangle" transform="translate(4.360000,2.670000) scale(1,-1)">
<rect fill="#ff0000" id="origin" width="1" height="1" x="0" y="0" />
<title>b'Rectangle'</title>
</g>
</svg>