<?xml version="1.0"?>
<!DOCTYPE svg PUBLIC "-//W3C//DTD SVG 1.1//EN" "http://www.w3.org/Graphics/SVG/1.1/DTD/svg11.dtd">
<svg width="38.862mm" height="21.082mm" viewBox="0 0 38.862 21.082" xmlns="http://www.w3.org/2000/svg" version="1.1">
<g id="Shape2DView" transform="translate(8.001000,2.921000) scale(1,-1)">
<path id="Shape2DView_nwe0000"  d="M -7.62 2.54 L 30.48 2.54 " stroke="#191919" stroke-width="0.35 px" style="stroke-width:0.35;stroke-miterlimit:4;stroke-dasharray:none;fill:none;fill-opacity:1;fill-rule: evenodd"/>
<path id="Shape2DView_nwe0001"  d="M 30.48 2.54 L 30.48 -0.7050000000000001 " stroke="#191919" stroke-width="0.35 px" style="stroke-width:0.35;stroke-miterlimit:4;stroke-dasharray:none;fill:none;fill-opacity:1;fill-rule: evenodd"/>
<path id="Shape2DView_nwe0002"  d="M 30.48 -14.535 L 30.48 -17.78 " stroke="#191919" stroke-width="0.35 px" style="stroke-width:0.35;stroke-miterlimit:4;stroke-dasharray:none;fill:none;fill-opacity:1;fill-rule: evenodd"/>
<path id="Shape2DView_nwe0003"  d="M 30.48 -17.78 L -7.620000000000001 -17.78 " stroke="#191919" stroke-width="0.35 px" style="stroke-width:0.35;stroke-miterlimit:4;stroke-dasharray:none;fill:none;fill-opacity:1;fill-rule: evenodd"/>
<path id="Shape2DView_nwe0004"  d="M -7.62 -17.78 L -7.62 -14.535 " stroke="#191919" stroke-width="0.35 px" style="stroke-width:0.35;stroke-miterlimit:4;stroke-dasharray:none;fill:none;fill-opacity:1;fill-rule: evenodd"/>
<path id="Shape2DView_nwe0005"  d="M -7.62 -0.7049999999999983 L -7.62 2.539999999999999 " stroke="#191919" stroke-width="0.35 px" style="stroke-width:0.35;stroke-miterlimit:4;stroke-dasharray:none;fill:none;fill-opacity:1;fill-rule: evenodd"/>
<path id="Shape2DView_nwe0006"  d="M -7.12 2.04 L 29.98 2.04 " stroke="#191919" stroke-width="0.35 px" style="stroke-width:0.35;stroke-miterlimit:4;stroke-dasharray:none;fill:none;fill-opacity:1;fill-rule: evenodd"/>
<path id="Shape2DView_nwe0007"  d="M 29.98 2.04 L 29.98 -0.03046312183839861 " stroke="#191919" stroke-width="0.35 px" style="stroke-width:0.35;stroke-miterlimit:4;stroke-dasharray:none;fill:none;fill-opacity:1;fill-rule: evenodd"/>
<path id="Shape2DView_nwe0008"  d="M 29.98 -15.209536878161604 L 29.98 -17.28 " stroke="#191919" stroke-width="0.35 px" style="stroke-width:0.35;stroke-miterlimit:4;stroke-dasharray:none;fill:none;fill-opacity:1;fill-rule: evenodd"/>
<path id="Shape2DView_nwe0009"  d="M 29.98 -17.28 L -7.120000000000001 -17.28 " stroke="#191919" stroke-width="0.35 px" style="stroke-width:0.35;stroke-miterlimit:4;stroke-dasharray:none;fill:none;fill-opacity:1;fill-rule: evenodd"/>
<path id="Shape2DView_nwe0010"  d="M -7.12 -17.28 L -7.12 -15.209536878161602 " stroke="#191919" stroke-width="0.35 px" style="stroke-width:0.35;stroke-miterlimit:4;stroke-dasharray:none;fill:none;fill-opacity:1;fill-rule: evenodd"/>
<path id="Shape2DView_nwe0011"  d="M -7.12 -0.030463121838398166 L -7.12 2.039999999999999 " stroke="#191919" stroke-width="0.35 px" style="stroke-width:0.35;stroke-miterlimit:4;stroke-dasharray:none;fill:none;fill-opacity:1;fill-rule: evenodd"/>
<path id="Shape2DView_nwe0012"  d="M 29.775 -15.24 A 0.705 0.705 0 0 1 30.48 -14.535" stroke="#191919" stroke-width="0.35 px" style="stroke-width:0.35;stroke-miterlimit:4;stroke-dasharray:none;fill:none;fill-opacity:1;fill-rule: evenodd"/>
<path id="Shape2DView_nwe0013"  d="M 30.48 -14.535 L 30.48 -0.7050000000000001 " stroke="#191919" stroke-width="0.35 px" style="stroke-width:0.35;stroke-miterlimit:4;stroke-dasharray:none;fill:none;fill-opacity:1;fill-rule: evenodd"/>
<path id="Shape2DView_nwe0014"  d="M 28.98 -13.035 L 28.98 -2.205 " stroke="#191919" stroke-width="0.35 px" style="stroke-width:0.35;stroke-miterlimit:4;stroke-dasharray:none;fill:none;fill-opacity:1;fill-rule: evenodd"/>
<path id="Shape2DView_nwe0015"  d="M 28.979999999999997 -13.035 A 0.705 0.705 0 0 0 28.9799 -13.044" stroke="#191919" stroke-width="0.35 px" style="stroke-width:0.35;stroke-miterlimit:4;stroke-dasharray:none;fill:none;fill-opacity:1;fill-rule: evenodd"/>
<path id="Shape2DView_nwe0016"  d="M 28.978353448435698 -13.239999999999972 L 28.979942307597 -13.04401903316 " stroke="#191919" stroke-width="0.35 px" style="stroke-width:0.35;stroke-miterlimit:4;stroke-dasharray:none;fill:none;fill-opacity:1;fill-rule: evenodd"/>
<path id="Shape2DView_nwe0017"  d="M 28.978353448436 -13.24 C 29.08616792817454 -13.368481606203245 28.61029667798922 -13.848476814293802 28.478251782783 -13.74 " stroke="#191919" stroke-width="0.35 px" style="stroke-width:0.35;stroke-miterlimit:4;stroke-dasharray:none;fill:none;fill-opacity:1;fill-rule: evenodd"/>
<path id="Shape2DView_nwe0018"  d="M 28.478251782783 -1.5 C 28.61029666987898 -1.3915231844307407 29.086167927652518 -1.8715183866313492 28.978353448436 -2.0 " stroke="#191919" stroke-width="0.35 px" style="stroke-width:0.35;stroke-miterlimit:4;stroke-dasharray:none;fill:none;fill-opacity:1;fill-rule: evenodd"/>
<path id="Shape2DView_nwe0019"  d="M 28.978353448435698 -2.0000000000000266 L 28.979942307597 -2.1959809668400005 " stroke="#191919" stroke-width="0.35 px" style="stroke-width:0.35;stroke-miterlimit:4;stroke-dasharray:none;fill:none;fill-opacity:1;fill-rule: evenodd"/>
<path id="Shape2DView_nwe0020"  d="M 28.979999999999997 -2.205 A 0.705 0.705 0 0 1 28.9799 -2.19598" stroke="#191919" stroke-width="0.35 px" style="stroke-width:0.35;stroke-miterlimit:4;stroke-dasharray:none;fill:none;fill-opacity:1;fill-rule: evenodd"/>
<path id="Shape2DView_nwe0021"  d="M 18.485 -13.74 L 23.674344167491082 -13.74 " stroke="#191919" stroke-width="0.35 px" style="stroke-width:0.35;stroke-miterlimit:4;stroke-dasharray:none;fill:none;fill-opacity:1;fill-rule: evenodd"/>
<path id="Shape2DView_nwe0022"  d="M 25.13870867386 -13.74 L 28.275 -13.74 " stroke="#191919" stroke-width="0.35 px" style="stroke-width:0.35;stroke-miterlimit:4;stroke-dasharray:none;fill:none;fill-opacity:1;fill-rule: evenodd"/>
<path id="Shape2DView_nwe0023"  d="M 28.275 -1.5 L 25.13870867386 -1.5 " stroke="#191919" stroke-width="0.35 px" style="stroke-width:0.35;stroke-miterlimit:4;stroke-dasharray:none;fill:none;fill-opacity:1;fill-rule: evenodd"/>
<path id="Shape2DView_nwe0024"  d="M 23.674344167491082 -1.5 L 18.485 -1.5 " stroke="#191919" stroke-width="0.35 px" style="stroke-width:0.35;stroke-miterlimit:4;stroke-dasharray:none;fill:none;fill-opacity:1;fill-rule: evenodd"/>
<path id="Shape2DView_nwe0025"  d="M 28.979942307597646 -13.044019033154196 L 28.979963076600754 -13.042215305237793 " stroke="#191919" stroke-width="0.35 px" style="stroke-width:0.35;stroke-miterlimit:4;stroke-dasharray:none;fill:none;fill-opacity:1;fill-rule: evenodd"/>
<path id="Shape2DView_nwe0026"  d="M 28.97999533731119 -13.037564053291034 L 28.98 -13.03500003151 " stroke="#191919" stroke-width="0.35 px" style="stroke-width:0.35;stroke-miterlimit:4;stroke-dasharray:none;fill:none;fill-opacity:1;fill-rule: evenodd"/>
<path id="Shape2DView_nwe0027"  d="M 28.98 -2.204999999937 L 28.979997683816116 -2.203192843701169 " stroke="#191919" stroke-width="0.35 px" style="stroke-width:0.35;stroke-miterlimit:4;stroke-dasharray:none;fill:none;fill-opacity:1;fill-rule: evenodd"/>
<path id="Shape2DView_nwe0028"  d="M 28.979957531399553 -2.1972618528092025 L 28.979942307597646 -2.1959809668401884 " stroke="#191919" stroke-width="0.35 px" style="stroke-width:0.35;stroke-miterlimit:4;stroke-dasharray:none;fill:none;fill-opacity:1;fill-rule: evenodd"/>
<path id="Shape2DView_nwe0029"  d="M 28.47825178278263 -13.74 L 28.450553914046655 -13.74 L 28.389217854636918 -13.739999999999998 L 28.29436482470125 -13.739999999999998 L 28.166182284901808 -13.739999999999998 L 28.00492356593138 -13.739999999999997 L 27.810907367848973 -13.739999999999997 L 27.584517130224043 -13.739999999999997 L 27.326200274334326 -13.739999999999997 L 27.036467318914788 -13.739999999999995 L 26.715890871205367 -13.739999999999995 L 26.36510449529146 -13.739999999999995 L 25.98480145997374 -13.739999999999995 L 25.575733368641874 -13.739999999999993 L 25.13870867386 -13.739999999999993 " stroke="#191919" stroke-width="0.35 px" style="stroke-width:0.35;stroke-miterlimit:4;stroke-dasharray:none;fill:none;fill-opacity:1;fill-rule: evenodd"/>
<path id="Shape2DView_nwe0030"  d="M 16.450463880006573 -13.74 L 23.373047275205927 -13.74 " stroke="#191919" stroke-width="0.35 px" style="stroke-width:0.35;stroke-miterlimit:4;stroke-dasharray:none;fill:none;fill-opacity:1;fill-rule: evenodd"/>
<path id="Shape2DView_nwe0031"  d="M 28.47825178278263 -1.4999999999999998 L 28.450553914046655 -1.4999999999999993 L 28.389217854636918 -1.499999999999999 L 28.29436482470125 -1.4999999999999982 L 28.166182284901808 -1.4999999999999978 L 28.00492356593138 -1.4999999999999973 L 27.810907367848973 -1.499999999999997 L 27.584517130224043 -1.4999999999999962 L 27.326200274334326 -1.4999999999999958 L 27.036467318914788 -1.4999999999999953 L 26.715890871205367 -1.499999999999995 L 26.36510449529146 -1.4999999999999944 L 25.98480145997374 -1.499999999999994 L 25.575733368641874 -1.4999999999999936 L 25.13870867386 -1.4999999999999931 " stroke="#191919" stroke-width="0.35 px" style="stroke-width:0.35;stroke-miterlimit:4;stroke-dasharray:none;fill:none;fill-opacity:1;fill-rule: evenodd"/>
<path id="Shape2DView_nwe0032"  d="M 23.373047275208425 -1.5 L 16.450463880009075 -1.4999999999999996 " stroke="#191919" stroke-width="0.35 px" style="stroke-width:0.35;stroke-miterlimit:4;stroke-dasharray:none;fill:none;fill-opacity:1;fill-rule: evenodd"/>
<path id="Shape2DView_nwe0033"  d="M 29.775 0.0 A 0.705 0.705 0 0 0 30.48 -0.705" stroke="#191919" stroke-width="0.35 px" style="stroke-width:0.35;stroke-miterlimit:4;stroke-dasharray:none;fill:none;fill-opacity:1;fill-rule: evenodd"/>
<path id="Shape2DView_nwe0034"  d="M 23.312305673651 -1.5 L 23.346106485418282 -1.5179860629551576 " stroke="#191919" stroke-width="0.35 px" style="stroke-width:0.35;stroke-miterlimit:4;stroke-dasharray:none;fill:none;fill-opacity:1;fill-rule: evenodd"/>
<path id="Shape2DView_nwe0035"  d="M 23.31230567365092 -1.4999999999999918 L 22.661543841546376 -1.4999999999999913 L 21.98049572717879 -1.499999999999991 L 21.270997802516526 -1.4999999999999905 L 20.534963255516153 -1.4999999999999902 L 19.77437683113886 -1.49999999999999 L 18.99128947941066 -1.4999999999999896 L 18.18781282495821 -1.4999999999999893 L 17.366113472933197 -1.4999999999999891 L 16.52840716667971 -1.499999999999989 L 15.676952812898616 -1.499999999999989 L 14.814046390420298 -1.4999999999999887 L 13.942014759011006 -1.4999999999999887 L 13.063209384907594 -1.4999999999999885 L 12.18 -1.4999999999999885 " stroke="#191919" stroke-width="0.35 px" style="stroke-width:0.35;stroke-miterlimit:4;stroke-dasharray:none;fill:none;fill-opacity:1;fill-rule: evenodd"/>
<path id="Shape2DView_nwe0036"  d="M 23.31230567365092 -13.739999999999991 L 22.661543841546376 -13.739999999999991 L 21.98049572717879 -13.739999999999991 L 21.270997802516526 -13.739999999999991 L 20.534963255516153 -13.73999999999999 L 19.77437683113886 -13.73999999999999 L 18.99128947941066 -13.73999999999999 L 18.18781282495821 -13.73999999999999 L 17.366113472933197 -13.73999999999999 L 16.52840716667971 -13.73999999999999 L 15.676952812898616 -13.73999999999999 L 14.814046390420298 -13.73999999999999 L 13.942014759011006 -13.73999999999999 L 13.063209384907594 -13.73999999999999 L 12.18 -13.73999999999999 " stroke="#191919" stroke-width="0.35 px" style="stroke-width:0.35;stroke-miterlimit:4;stroke-dasharray:none;fill:none;fill-opacity:1;fill-rule: evenodd"/>
<path id="Shape2DView_nwe0037"  d="M 23.312305673651 -13.74 L 23.346106485410107 -13.72201393704338 " stroke="#191919" stroke-width="0.35 px" style="stroke-width:0.35;stroke-miterlimit:4;stroke-dasharray:none;fill:none;fill-opacity:1;fill-rule: evenodd"/>
<path id="Shape2DView_nwe0038"  d="M 12.18 -14.535 L 12.179999999999998 -0.7050000000000001 " stroke="#191919" stroke-width="0.35 px" style="stroke-width:0.35;stroke-miterlimit:4;stroke-dasharray:none;fill:none;fill-opacity:1;fill-rule: evenodd"/>
<path id="Shape2DView_nwe0039"  d="M -0.452305673651 -1.5 L -0.4861064854178563 -1.5179860629552708 " stroke="#191919" stroke-width="0.35 px" style="stroke-width:0.35;stroke-miterlimit:4;stroke-dasharray:none;fill:none;fill-opacity:1;fill-rule: evenodd"/>
<path id="Shape2DView_nwe0040"  d="M 10.679999999999998 -1.4999999999999885 L 9.796790615092391 -1.4999999999999885 L 8.917985240988981 -1.4999999999999887 L 8.045953609579689 -1.4999999999999887 L 7.18304718710137 -1.499999999999989 L 6.3315928333202764 -1.499999999999989 L 5.49388652706679 -1.4999999999999891 L 4.672187175041775 -1.4999999999999893 L 3.8687105205893264 -1.4999999999999896 L 3.085623168861133 -1.49999999999999 L 2.325036744483839 -1.4999999999999902 L 1.5890021974834703 -1.4999999999999905 L 0.8795042728212081 -1.499999999999991 L 0.1984561584536273 -1.4999999999999913 L -0.45230567365091723 -1.4999999999999918 " stroke="#191919" stroke-width="0.35 px" style="stroke-width:0.35;stroke-miterlimit:4;stroke-dasharray:none;fill:none;fill-opacity:1;fill-rule: evenodd"/>
<path id="Shape2DView_nwe0041"  d="M -6.118353448435704 -2.0000000000000266 L -6.119942307597 -2.1959809668400005 " stroke="#191919" stroke-width="0.35 px" style="stroke-width:0.35;stroke-miterlimit:4;stroke-dasharray:none;fill:none;fill-opacity:1;fill-rule: evenodd"/>
<path id="Shape2DView_nwe0042"  d="M -6.119942307597647 -2.1959809668400343 L -6.1199630766811985 -2.197784702616641 " stroke="#191919" stroke-width="0.35 px" style="stroke-width:0.35;stroke-miterlimit:4;stroke-dasharray:none;fill:none;fill-opacity:1;fill-rule: evenodd"/>
<path id="Shape2DView_nwe0043"  d="M -6.119963076681199 -2.1977847026166413 L -6.12 -2.204999919307 " stroke="#191919" stroke-width="0.35 px" style="stroke-width:0.35;stroke-miterlimit:4;stroke-dasharray:none;fill:none;fill-opacity:1;fill-rule: evenodd"/>
<path id="Shape2DView_nwe0044"  d="M -6.119942307597643 -13.044019033154198 L -6.119963076681183 -13.04221529738336 " stroke="#191919" stroke-width="0.35 px" style="stroke-width:0.35;stroke-miterlimit:4;stroke-dasharray:none;fill:none;fill-opacity:1;fill-rule: evenodd"/>
<path id="Shape2DView_nwe0045"  d="M -6.119963076681183 -13.04221529738336 L -6.119999999999999 -13.03500008069 " stroke="#191919" stroke-width="0.35 px" style="stroke-width:0.35;stroke-miterlimit:4;stroke-dasharray:none;fill:none;fill-opacity:1;fill-rule: evenodd"/>
<path id="Shape2DView_nwe0046"  d="M -6.118353448435702 -13.23999999999997 L -6.119942307597 -13.044019033160001 " stroke="#191919" stroke-width="0.35 px" style="stroke-width:0.35;stroke-miterlimit:4;stroke-dasharray:none;fill:none;fill-opacity:1;fill-rule: evenodd"/>
<path id="Shape2DView_nwe0047"  d="M -0.452305673651 -13.74 L -0.4861064854129613 -13.722013937044295 " stroke="#191919" stroke-width="0.35 px" style="stroke-width:0.35;stroke-miterlimit:4;stroke-dasharray:none;fill:none;fill-opacity:1;fill-rule: evenodd"/>
<path id="Shape2DView_nwe0048"  d="M 10.679999999999998 -13.73999999999999 L 9.796790615092393 -13.73999999999999 L 8.917985240988981 -13.73999999999999 L 8.045953609579689 -13.73999999999999 L 7.18304718710137 -13.73999999999999 L 6.3315928333202764 -13.73999999999999 L 5.49388652706679 -13.73999999999999 L 4.672187175041775 -13.73999999999999 L 3.8687105205893264 -13.73999999999999 L 3.085623168861133 -13.73999999999999 L 2.325036744483839 -13.73999999999999 L 1.5890021974834703 -13.739999999999991 L 0.8795042728212081 -13.739999999999991 L 0.1984561584536273 -13.739999999999991 L -0.45230567365091723 -13.739999999999991 " stroke="#191919" stroke-width="0.35 px" style="stroke-width:0.35;stroke-miterlimit:4;stroke-dasharray:none;fill:none;fill-opacity:1;fill-rule: evenodd"/>
<path id="Shape2DView_nwe0049"  d="M 16.386824343312075 -13.74 L 23.309407738511425 -13.74 " stroke="#191919" stroke-width="0.35 px" style="stroke-width:0.35;stroke-miterlimit:4;stroke-dasharray:none;fill:none;fill-opacity:1;fill-rule: evenodd"/>
<path id="Shape2DView_nwe0050"  d="M 24.370069137165924 -8.551384969752364e-16 L 15.326162944663071 -2.557333740657824e-16 " stroke="#191919" stroke-width="0.35 px" style="stroke-width:0.35;stroke-miterlimit:4;stroke-dasharray:none;fill:none;fill-opacity:1;fill-rule: evenodd"/>
<path id="Shape2DView_nwe0051"  d="M 24.370069137166425 -1.1414797670628938e-15 L 24.433708673860576 -1.1312969296129259e-15 " stroke="#191919" stroke-width="0.35 px" style="stroke-width:0.35;stroke-miterlimit:4;stroke-dasharray:none;fill:none;fill-opacity:1;fill-rule: evenodd"/>
<path id="Shape2DView_nwe0052"  d="M 24.370069137166425 -15.24 L 24.433708673860576 -15.24 " stroke="#191919" stroke-width="0.35 px" style="stroke-width:0.35;stroke-miterlimit:4;stroke-dasharray:none;fill:none;fill-opacity:1;fill-rule: evenodd"/>
<path id="Shape2DView_nwe0053"  d="M 15.326162944660076 -15.24 L 24.37006913716293 -15.24 " stroke="#191919" stroke-width="0.35 px" style="stroke-width:0.35;stroke-miterlimit:4;stroke-dasharray:none;fill:none;fill-opacity:1;fill-rule: evenodd"/>
<path id="Shape2DView_nwe0054"  d="M 10.68 -14.535 L 10.679999999999998 -0.7050000000000001 " stroke="#191919" stroke-width="0.35 px" style="stroke-width:0.35;stroke-miterlimit:4;stroke-dasharray:none;fill:none;fill-opacity:1;fill-rule: evenodd"/>
<path id="Shape2DView_nwe0055"  d="M -5.618251782783 -1.5 C -5.750296655125537 -1.3915231673748685 -6.2261679477443455 -1.8715184229454616 -6.118353448436 -2.0 " stroke="#191919" stroke-width="0.35 px" style="stroke-width:0.35;stroke-miterlimit:4;stroke-dasharray:none;fill:none;fill-opacity:1;fill-rule: evenodd"/>
<path id="Shape2DView_nwe0056"  d="M -2.2787086738600024 -1.4999999999999931 L -2.715733368641878 -1.4999999999999936 L -3.1248014599737424 -1.499999999999994 L -3.505104495291464 -1.4999999999999944 L -3.8558908712053697 -1.499999999999995 L -4.17646731891479 -1.4999999999999953 L -4.466200274334328 -1.4999999999999958 L -4.724517130224047 -1.4999999999999962 L -4.9509073678489735 -1.499999999999997 L -5.144923565931386 -1.4999999999999973 L -5.3061822849018085 -1.4999999999999978 L -5.434364824701255 -1.4999999999999982 L -5.529217854636922 -1.499999999999999 L -5.590553914046655 -1.4999999999999993 L -5.618251782782629 -1.4999999999999998 " stroke="#191919" stroke-width="0.35 px" style="stroke-width:0.35;stroke-miterlimit:4;stroke-dasharray:none;fill:none;fill-opacity:1;fill-rule: evenodd"/>
<path id="Shape2DView_nwe0057"  d="M -6.12 -2.205 A 0.705 0.705 0 0 0 -6.11994 -2.19598" stroke="#191919" stroke-width="0.35 px" style="stroke-width:0.35;stroke-miterlimit:4;stroke-dasharray:none;fill:none;fill-opacity:1;fill-rule: evenodd"/>
<path id="Shape2DView_nwe0058"  d="M -5.618251782783 -13.74 C -5.750296665492343 -13.848476823678846 -6.2261679378086185 -13.368481592619634 -6.118353448436 -13.24 " stroke="#191919" stroke-width="0.35 px" style="stroke-width:0.35;stroke-miterlimit:4;stroke-dasharray:none;fill:none;fill-opacity:1;fill-rule: evenodd"/>
<path id="Shape2DView_nwe0059"  d="M -6.119942307597479 -13.044019033160005 A 0.705 0.705 0 0 0 -6.12 -13.035" stroke="#191919" stroke-width="0.35 px" style="stroke-width:0.35;stroke-miterlimit:4;stroke-dasharray:none;fill:none;fill-opacity:1;fill-rule: evenodd"/>
<path id="Shape2DView_nwe0060"  d="M -2.2787086738600024 -13.739999999999993 L -2.715733368641878 -13.739999999999993 L -3.1248014599737424 -13.739999999999995 L -3.505104495291464 -13.739999999999995 L -3.8558908712053697 -13.739999999999995 L -4.17646731891479 -13.739999999999995 L -4.466200274334328 -13.739999999999997 L -4.724517130224047 -13.739999999999997 L -4.9509073678489735 -13.739999999999997 L -5.144923565931386 -13.739999999999997 L -5.3061822849018085 -13.739999999999998 L -5.434364824701255 -13.739999999999998 L -5.529217854636922 -13.739999999999998 L -5.590553914046655 -13.74 L -5.618251782782629 -13.74 " stroke="#191919" stroke-width="0.35 px" style="stroke-width:0.35;stroke-miterlimit:4;stroke-dasharray:none;fill:none;fill-opacity:1;fill-rule: evenodd"/>
<path id="Shape2DView_nwe0061"  d="M 15.389802481355074 3.0181016495002624e-16 L 15.326162944660425 3.119930024000738e-16 " stroke="#191919" stroke-width="0.35 px" style="stroke-width:0.35;stroke-miterlimit:4;stroke-dasharray:none;fill:none;fill-opacity:1;fill-rule: evenodd"/>
<path id="Shape2DView_nwe0062"  d="M 15.389802481355074 -15.24 L 15.326162944660425 -15.24 " stroke="#191919" stroke-width="0.35 px" style="stroke-width:0.35;stroke-miterlimit:4;stroke-dasharray:none;fill:none;fill-opacity:1;fill-rule: evenodd"/>
<path id="Shape2DView_nwe0063"  d="M 11.385 -15.24 L 11.475 -15.24 " stroke="#191919" stroke-width="0.35 px" style="stroke-width:0.35;stroke-miterlimit:4;stroke-dasharray:none;fill:none;fill-opacity:1;fill-rule: evenodd"/>
<path id="Shape2DView_nwe0064"  d="M 12.18 -14.535 A 0.705 0.705 0 0 0 11.475 -15.24" stroke="#191919" stroke-width="0.35 px" style="stroke-width:0.35;stroke-miterlimit:4;stroke-dasharray:none;fill:none;fill-opacity:1;fill-rule: evenodd"/>
<path id="Shape2DView_nwe0065"  d="M 12.18 -0.7050000000000001 A 0.705 0.705 0 0 1 11.475 0" stroke="#191919" stroke-width="0.35 px" style="stroke-width:0.35;stroke-miterlimit:4;stroke-dasharray:none;fill:none;fill-opacity:1;fill-rule: evenodd"/>
<path id="Shape2DView_nwe0066"  d="M 11.385 -1.6042846349733973e-15 L 11.475 -1.5964910304672779e-15 " stroke="#191919" stroke-width="0.35 px" style="stroke-width:0.35;stroke-miterlimit:4;stroke-dasharray:none;fill:none;fill-opacity:1;fill-rule: evenodd"/>
<path id="Shape2DView_nwe0067"  d="M 7.533837055339924 -3.661068301123636e-16 L -1.5100691371629296 -9.655119530218177e-16 " stroke="#191919" stroke-width="0.35 px" style="stroke-width:0.35;stroke-miterlimit:4;stroke-dasharray:none;fill:none;fill-opacity:1;fill-rule: evenodd"/>
<path id="Shape2DView_nwe0068"  d="M -1.5100691371659254 -15.24 L 7.533837055336927 -15.24 " stroke="#191919" stroke-width="0.35 px" style="stroke-width:0.35;stroke-miterlimit:4;stroke-dasharray:none;fill:none;fill-opacity:1;fill-rule: evenodd"/>
<path id="Shape2DView_nwe0069"  d="M 4.375 -1.5 L -0.81434416749111 -1.5 " stroke="#191919" stroke-width="0.35 px" style="stroke-width:0.35;stroke-miterlimit:4;stroke-dasharray:none;fill:none;fill-opacity:1;fill-rule: evenodd"/>
<path id="Shape2DView_nwe0070"  d="M -2.2787086738599998 -1.5 L -5.415000000000001 -1.5 " stroke="#191919" stroke-width="0.35 px" style="stroke-width:0.35;stroke-miterlimit:4;stroke-dasharray:none;fill:none;fill-opacity:1;fill-rule: evenodd"/>
<path id="Shape2DView_nwe0071"  d="M -6.12 -2.205 L -6.12 -13.035 " stroke="#191919" stroke-width="0.35 px" style="stroke-width:0.35;stroke-miterlimit:4;stroke-dasharray:none;fill:none;fill-opacity:1;fill-rule: evenodd"/>
<path id="Shape2DView_nwe0072"  d="M -5.415 -13.74 L -2.27870867386 -13.74 " stroke="#191919" stroke-width="0.35 px" style="stroke-width:0.35;stroke-miterlimit:4;stroke-dasharray:none;fill:none;fill-opacity:1;fill-rule: evenodd"/>
<path id="Shape2DView_nwe0073"  d="M -0.8143441674911092 -13.74 L 4.375000000000001 -13.74 " stroke="#191919" stroke-width="0.35 px" style="stroke-width:0.35;stroke-miterlimit:4;stroke-dasharray:none;fill:none;fill-opacity:1;fill-rule: evenodd"/>
<path id="Shape2DView_nwe0074"  d="M 10.68 -14.535 A 0.705 0.705 0 0 1 11.385 -15.24" stroke="#191919" stroke-width="0.35 px" style="stroke-width:0.35;stroke-miterlimit:4;stroke-dasharray:none;fill:none;fill-opacity:1;fill-rule: evenodd"/>
<path id="Shape2DView_nwe0075"  d="M 10.68 -0.7050000000000002 A 0.705 0.705 0 0 0 11.385 0" stroke="#191919" stroke-width="0.35 px" style="stroke-width:0.35;stroke-miterlimit:4;stroke-dasharray:none;fill:none;fill-opacity:1;fill-rule: evenodd"/>
<path id="Shape2DView_nwe0076"  d="M -1.5100691371664259 -8.084128596749936e-16 L -1.573708673860576 -7.98230022225026e-16 " stroke="#191919" stroke-width="0.35 px" style="stroke-width:0.35;stroke-miterlimit:4;stroke-dasharray:none;fill:none;fill-opacity:1;fill-rule: evenodd"/>
<path id="Shape2DView_nwe0077"  d="M -1.5100691371664259 -15.24 L -1.573708673860576 -15.24 " stroke="#191919" stroke-width="0.35 px" style="stroke-width:0.35;stroke-miterlimit:4;stroke-dasharray:none;fill:none;fill-opacity:1;fill-rule: evenodd"/>
<path id="Shape2DView_nwe0078"  d="M -7.62 -0.705 L -7.62 -14.535 " stroke="#191919" stroke-width="0.35 px" style="stroke-width:0.35;stroke-miterlimit:4;stroke-dasharray:none;fill:none;fill-opacity:1;fill-rule: evenodd"/>
<path id="Shape2DView_nwe0079"  d="M 7.470197518644925 -15.24 L 7.533837055339575 -15.24 " stroke="#191919" stroke-width="0.35 px" style="stroke-width:0.35;stroke-miterlimit:4;stroke-dasharray:none;fill:none;fill-opacity:1;fill-rule: evenodd"/>
<path id="Shape2DView_nwe0080"  d="M 7.470197518644925 3.018101649500262e-16 L 7.533837055339575 3.119930024000738e-16 " stroke="#191919" stroke-width="0.35 px" style="stroke-width:0.35;stroke-miterlimit:4;stroke-dasharray:none;fill:none;fill-opacity:1;fill-rule: evenodd"/>
<path id="Shape2DView_nwe0081"  d="M -6.915 0.0 A 0.705 0.705 0 0 1 -7.62 -0.705" stroke="#191919" stroke-width="0.35 px" style="stroke-width:0.35;stroke-miterlimit:4;stroke-dasharray:none;fill:none;fill-opacity:1;fill-rule: evenodd"/>
<path id="Shape2DView_nwe0082"  d="M -7.62 -14.535 A 0.705 0.705 0 0 1 -6.915 -15.24" stroke="#191919" stroke-width="0.35 px" style="stroke-width:0.35;stroke-miterlimit:4;stroke-dasharray:none;fill:none;fill-opacity:1;fill-rule: evenodd"/>
<path id="Shape2DView_nwe0083"  d="M 23.312305673651 -1.5 Q 23.429362745242912 -1.539829374554952 23.668587141666 -2.0 " stroke="#191919" stroke-width="0.35 px" style="stroke-width:0.35;stroke-miterlimit:4;stroke-dasharray:none;fill:none;fill-opacity:1;fill-rule: evenodd"/>
<path id="Shape2DView_nwe0084"  d="M 23.312305673651 -13.74 Q 23.429362738976124 -13.70017063407748 23.668587141666 -13.24 " stroke="#191919" stroke-width="0.35 px" style="stroke-width:0.35;stroke-miterlimit:4;stroke-dasharray:none;fill:none;fill-opacity:1;fill-rule: evenodd"/>
<path id="Shape2DView_nwe0085"  d="M 23.329918617619494 -1.5078144120599195 Q 23.42520370784663 -1.5513214965731432 23.573176734616045 -1.8240514822901248 " stroke="#191919" stroke-width="0.35 px" style="stroke-width:0.35;stroke-miterlimit:4;stroke-dasharray:none;fill:none;fill-opacity:1;fill-rule: evenodd"/>
<path id="Shape2DView_nwe0086"  d="M 23.57448779608348 -13.413411210792056 Q 23.425939398805088 -13.688163401459413 23.32991861430782 -13.732185589796131 " stroke="#191919" stroke-width="0.35 px" style="stroke-width:0.35;stroke-miterlimit:4;stroke-dasharray:none;fill:none;fill-opacity:1;fill-rule: evenodd"/>
<path id="Shape2DView_nwe0087"  d="M -0.452305673651 -1.5 L -0.4863881420248203 -1.5181804368038003 " stroke="#191919" stroke-width="0.35 px" style="stroke-width:0.35;stroke-miterlimit:4;stroke-dasharray:none;fill:none;fill-opacity:1;fill-rule: evenodd"/>
<path id="Shape2DView_nwe0088"  d="M -0.452305673651 -13.74 L -0.4863881431933631 -13.721819562383965 " stroke="#191919" stroke-width="0.35 px" style="stroke-width:0.35;stroke-miterlimit:4;stroke-dasharray:none;fill:none;fill-opacity:1;fill-rule: evenodd"/>
<path id="Shape2DView_nwe0089"  d="M -0.452305673651 -13.74 L -0.46991861766423004 -13.732185587912443 " stroke="#191919" stroke-width="0.35 px" style="stroke-width:0.35;stroke-miterlimit:4;stroke-dasharray:none;fill:none;fill-opacity:1;fill-rule: evenodd"/>
<path id="Shape2DView_nwe0090"  d="M -0.4714051454675811 -13.731340259269516 L -0.4863881469452008 -13.721819559789573 " stroke="#191919" stroke-width="0.35 px" style="stroke-width:0.35;stroke-miterlimit:4;stroke-dasharray:none;fill:none;fill-opacity:1;fill-rule: evenodd"/>
<path id="Shape2DView_nwe0091"  d="M -0.4865794221015055 -13.72168724353432 L -0.7131767336240271 -13.415948519623932 " stroke="#191919" stroke-width="0.35 px" style="stroke-width:0.35;stroke-miterlimit:4;stroke-dasharray:none;fill:none;fill-opacity:1;fill-rule: evenodd"/>
<path id="Shape2DView_nwe0092"  d="M -0.4699186177474995 -1.5078144121311177 L -0.48638814866912494 -1.5181804413952396 " stroke="#191919" stroke-width="0.35 px" style="stroke-width:0.35;stroke-miterlimit:4;stroke-dasharray:none;fill:none;fill-opacity:1;fill-rule: evenodd"/>
<path id="Shape2DView_nwe0093"  d="M -0.4865794236910954 -1.518312757560532 L -0.7131767350112599 -1.8240514830533652 " stroke="#191919" stroke-width="0.35 px" style="stroke-width:0.35;stroke-miterlimit:4;stroke-dasharray:none;fill:none;fill-opacity:1;fill-rule: evenodd"/>
<path id="Shape2DView_nwe0094"  d="M 14.827653240554817 -14.535 L 14.774972257963427 -14.535 L 14.729222818065548 -14.535 L 14.690980246612341 -14.535 L 14.660725466128687 -14.535 L 14.638838948033403 -14.535 L 14.62559592799039 -14.534999999999998 L 14.621162944660473 -14.534999999999998 L 14.625595745381094 -14.534999999999998 L 14.638838585111229 -14.534999999999998 L 14.66072492745759 -14.534999999999998 L 14.690979538966422 -14.534999999999998 L 14.729221950343867 -14.534999999999998 L 14.774971241078088 -14.534999999999998 L 14.827652087293743 -14.534999999999998 " stroke="#191919" stroke-width="0.35 px" style="stroke-width:0.35;stroke-miterlimit:4;stroke-dasharray:none;fill:none;fill-opacity:1;fill-rule: evenodd"/>
<path id="Shape2DView_nwe0095"  d="M 14.827653240554817 -0.7050000000000001 L 14.774972257963427 -0.705 L 14.729222818065548 -0.7049999999999998 L 14.690980246612341 -0.7049999999999997 L 14.660725466128687 -0.7049999999999997 L 14.638838948033403 -0.7049999999999996 L 14.62559592799039 -0.7049999999999995 L 14.621162944660473 -0.7049999999999995 L 14.625595745381094 -0.7049999999999994 L 14.638838585111229 -0.7049999999999993 L 14.66072492745759 -0.7049999999999993 L 14.690979538966422 -0.7049999999999993 L 14.729221950343867 -0.7049999999999992 L 14.774971241078088 -0.7049999999999992 L 14.827652087293743 -0.7049999999999992 " stroke="#191919" stroke-width="0.35 px" style="stroke-width:0.35;stroke-miterlimit:4;stroke-dasharray:none;fill:none;fill-opacity:1;fill-rule: evenodd"/>
<path id="Shape2DView_nwe0096"  d="M 8.032346759445684 -0.705 L 8.085027742036983 -0.7050000000000003 L 8.130777181934775 -0.7050000000000006 L 8.1690197533879 -0.7050000000000008 L 8.19927453387148 -0.7050000000000012 L 8.221161051966698 -0.7050000000000014 L 8.234404072009653 -0.7050000000000016 L 8.238837055339529 -0.7050000000000018 L 8.234404254618871 -0.7050000000000021 L 8.221161414888716 -0.7050000000000022 L 8.199275072542346 -0.7050000000000023 L 8.169020461033513 -0.7050000000000024 L 8.130778049656081 -0.7050000000000025 L 8.085028758921883 -0.7050000000000025 L 8.032347912706259 -0.7050000000000026 " stroke="#191919" stroke-width="0.35 px" style="stroke-width:0.35;stroke-miterlimit:4;stroke-dasharray:none;fill:none;fill-opacity:1;fill-rule: evenodd"/>
<path id="Shape2DView_nwe0097"  d="M 29.775 -14.535 L 29.775 -14.613934955652832 L 29.775 -14.691877258439202 L 29.775 -14.767846738678394 L 29.775 -14.840888036077878 L 29.775 -14.910082613943313 L 29.775 -14.974560310310407 L 29.775 -15.033510280736516 L 29.775 -15.08619119513996 L 29.775 -15.13194056045594 L 29.775 -15.170183051871206 L 29.775 -15.200437747867399 L 29.775 -15.222324178088186 L 29.775 -15.235567107974736 L 29.775 -15.24 " stroke="#191919" stroke-width="0.35 px" style="stroke-width:0.35;stroke-miterlimit:4;stroke-dasharray:none;fill:none;fill-opacity:1;fill-rule: evenodd"/>
<path id="Shape2DView_nwe0098"  d="M 25.13870867386 -14.535 L 29.775 -14.535 " stroke="#191919" stroke-width="0.35 px" style="stroke-width:0.35;stroke-miterlimit:4;stroke-dasharray:none;fill:none;fill-opacity:1;fill-rule: evenodd"/>
<path id="Shape2DView_nwe0100"  d="M 29.685 -13.035 L 29.685 -2.205 " stroke="#191919" stroke-width="0.35 px" style="stroke-width:0.35;stroke-miterlimit:4;stroke-dasharray:none;fill:none;fill-opacity:1;fill-rule: evenodd"/>
<path id="Shape2DView_nwe0101"  d="M 29.685 -2.205 A 1.41 1.41 0 0 1 28.275 -0.795" stroke="#191919" stroke-width="0.35 px" style="stroke-width:0.35;stroke-miterlimit:4;stroke-dasharray:none;fill:none;fill-opacity:1;fill-rule: evenodd"/>
<path id="Shape2DView_nwe0102"  d="M 28.275 -0.795 L 25.13870867386 -0.795 " stroke="#191919" stroke-width="0.35 px" style="stroke-width:0.35;stroke-miterlimit:4;stroke-dasharray:none;fill:none;fill-opacity:1;fill-rule: evenodd"/>
<path id="Shape2DView_nwe0103"  d="M 25.13870867386 -14.445 L 28.275 -14.445 " stroke="#191919" stroke-width="0.35 px" style="stroke-width:0.35;stroke-miterlimit:4;stroke-dasharray:none;fill:none;fill-opacity:1;fill-rule: evenodd"/>
<path id="Shape2DView_nwe0104"  d="M 29.685 -13.035 A 1.41 1.41 0 0 0 28.275 -14.445" stroke="#191919" stroke-width="0.35 px" style="stroke-width:0.35;stroke-miterlimit:4;stroke-dasharray:none;fill:none;fill-opacity:1;fill-rule: evenodd"/>
<path id="Shape2DView_nwe0105"  d="M 29.775 -0.705 L 25.13870867386 -0.705 " stroke="#191919" stroke-width="0.35 px" style="stroke-width:0.35;stroke-miterlimit:4;stroke-dasharray:none;fill:none;fill-opacity:1;fill-rule: evenodd"/>
<path id="Shape2DView_nwe0106"  d="M 29.775 -14.535 L 29.775 -0.7050000000000001 " stroke="#191919" stroke-width="0.35 px" style="stroke-width:0.35;stroke-miterlimit:4;stroke-dasharray:none;fill:none;fill-opacity:1;fill-rule: evenodd"/>
<path id="Shape2DView_nwe0107"  d="M 29.775 -14.535 L 29.853934955652832 -14.535 L 29.9318772584392 -14.535 L 30.007846738678392 -14.535 L 30.080888036077877 -14.535 L 30.15008261394331 -14.535 L 30.214560310310407 -14.535 L 30.273510280736513 -14.535 L 30.32619119513996 -14.535 L 30.37194056045594 -14.535 L 30.410183051871204 -14.535 L 30.4404377478674 -14.535 L 30.462324178088185 -14.535 L 30.475567107974733 -14.535 L 30.479999999999997 -14.535 " stroke="#191919" stroke-width="0.35 px" style="stroke-width:0.35;stroke-miterlimit:4;stroke-dasharray:none;fill:none;fill-opacity:1;fill-rule: evenodd"/>
<path id="Shape2DView_nwe0109"  d="M 29.685 -13.035 L 29.606065044347165 -13.035 L 29.528122741560797 -13.035 L 29.452153261321605 -13.035 L 29.37911196392212 -13.035 L 29.309917386056686 -13.035 L 29.24543968968959 -13.035 L 29.186489719263484 -13.035 L 29.13380880486004 -13.035 L 29.088059439544057 -13.035 L 29.049816948128793 -13.035 L 29.019562252132598 -13.035 L 28.997675821911812 -13.035 L 28.984432892025264 -13.035 L 28.98 -13.035 " stroke="#191919" stroke-width="0.35 px" style="stroke-width:0.35;stroke-miterlimit:4;stroke-dasharray:none;fill:none;fill-opacity:1;fill-rule: evenodd"/>
<path id="Shape2DView_nwe0110"  d="M 29.685 -2.205 L 29.606065044347165 -2.205 L 29.528122741560797 -2.205 L 29.452153261321605 -2.205 L 29.37911196392212 -2.205 L 29.309917386056686 -2.205 L 29.24543968968959 -2.205 L 29.186489719263484 -2.205 L 29.13380880486004 -2.205 L 29.088059439544057 -2.205 L 29.049816948128793 -2.205 L 29.019562252132598 -2.205 L 28.997675821911812 -2.205 L 28.984432892025264 -2.205 L 28.98 -2.205 " stroke="#191919" stroke-width="0.35 px" style="stroke-width:0.35;stroke-miterlimit:4;stroke-dasharray:none;fill:none;fill-opacity:1;fill-rule: evenodd"/>
<path id="Shape2DView_nwe0111"  d="M 28.275 -14.445 L 28.275 -14.366065044347168 L 28.275 -14.288122741560798 L 28.275 -14.212153261321607 L 28.275 -14.139111963922122 L 28.275 -14.069917386056687 L 28.275 -14.005439689689593 L 28.275 -13.946489719263484 L 28.275 -13.89380880486004 L 28.275 -13.84805943954406 L 28.275 -13.809816948128795 L 28.275 -13.779562252132601 L 28.275 -13.757675821911814 L 28.275 -13.744432892025264 L 28.275 -13.74 " stroke="#191919" stroke-width="0.35 px" style="stroke-width:0.35;stroke-miterlimit:4;stroke-dasharray:none;fill:none;fill-opacity:1;fill-rule: evenodd"/>
<path id="Shape2DView_nwe0112"  d="M 28.275 -0.795 L 28.275 -0.8739349556528321 L 28.275 -0.9518772584392017 L 28.275 -1.027846738678393 L 28.275 -1.1008880360778786 L 28.275 -1.1700826139433123 L 28.275 -1.2345603103104072 L 28.275 -1.293510280736516 L 28.275 -1.346191195139961 L 28.275 -1.3919405604559403 L 28.275 -1.4301830518712055 L 28.275 -1.460437747867399 L 28.275 -1.4823241780881857 L 28.275 -1.4955671079747361 L 28.275 -1.5 " stroke="#191919" stroke-width="0.35 px" style="stroke-width:0.35;stroke-miterlimit:4;stroke-dasharray:none;fill:none;fill-opacity:1;fill-rule: evenodd"/>
<path id="Shape2DView_nwe0113"  d="M 29.775 -0.7050000000000002 L 29.775 -0.6260650443471681 L 29.775 -0.5481227415607985 L 29.775 -0.4721532613216074 L 29.775 -0.39911196392212167 L 29.775 -0.3299173860566879 L 29.775 -0.26543968968959303 L 29.775 -0.20648971926348414 L 29.775 -0.153808804860039 L 29.775 -0.10805943954405972 L 29.775 -0.06981694812879458 L 29.775 -0.039562252132600895 L 29.775 -0.017675821911814382 L 29.775 -0.004432892025263979 L 29.775 0.0 " stroke="#191919" stroke-width="0.35 px" style="stroke-width:0.35;stroke-miterlimit:4;stroke-dasharray:none;fill:none;fill-opacity:1;fill-rule: evenodd"/>
<path id="Shape2DView_nwe0114"  d="M 29.775 -0.7050000000000001 L 29.853934955652832 -0.7050000000000001 L 29.9318772584392 -0.7050000000000001 L 30.007846738678392 -0.7050000000000001 L 30.080888036077877 -0.7050000000000001 L 30.15008261394331 -0.705 L 30.214560310310407 -0.705 L 30.273510280736513 -0.705 L 30.32619119513996 -0.705 L 30.37194056045594 -0.705 L 30.410183051871204 -0.705 L 30.4404377478674 -0.705 L 30.462324178088185 -0.705 L 30.475567107974733 -0.705 L 30.479999999999997 -0.705 " stroke="#191919" stroke-width="0.35 px" style="stroke-width:0.35;stroke-miterlimit:4;stroke-dasharray:none;fill:none;fill-opacity:1;fill-rule: evenodd"/>
<path id="Shape2DView_nwe0116"  d="M 28.978353448435723 -1.9999999999999998 L 28.947479578336136 -1.9999999999999993 L 28.877606219459892 -1.9999999999999987 L 28.76888893215819 -1.9999999999999982 L 28.621569755738513 -1.9999999999999976 L 28.435976669608035 -1.9999999999999971 L 28.212522863087013 -1.9999999999999964 L 27.951705815517755 -1.999999999999996 L 27.65410618871716 -1.9999999999999956 L 27.320386534238576 -1.999999999999995 L 26.95128981832102 -1.9999999999999944 L 26.547637767809697 -1.999999999999994 L 26.110329040730342 -1.9999999999999936 L 25.64033722559021 -1.9999999999999931 L 25.13870867386 -1.9999999999999927 " stroke="#191919" stroke-width="0.35 px" style="stroke-width:0.35;stroke-miterlimit:4;stroke-dasharray:none;fill:none;fill-opacity:1;fill-rule: evenodd"/>
<path id="Shape2DView_nwe0117"  d="M 28.978353448435723 -13.24 L 28.947479578336136 -13.24 L 28.877606219459892 -13.239999999999998 L 28.76888893215819 -13.239999999999998 L 28.621569755738513 -13.239999999999998 L 28.435976669608035 -13.239999999999997 L 28.212522863087013 -13.239999999999997 L 27.951705815517755 -13.239999999999997 L 27.65410618871716 -13.239999999999995 L 27.320386534238576 -13.239999999999995 L 26.95128981832102 -13.239999999999995 L 26.547637767809697 -13.239999999999995 L 26.110329040730342 -13.239999999999993 L 25.64033722559021 -13.239999999999993 L 25.13870867386 -13.239999999999993 " stroke="#191919" stroke-width="0.35 px" style="stroke-width:0.35;stroke-miterlimit:4;stroke-dasharray:none;fill:none;fill-opacity:1;fill-rule: evenodd"/>
<path id="Shape2DView_nwe0118"  d="M 23.584856038551365 -1.9999999999999913 L 22.91581778418186 -1.999999999999991 L 22.216211605706675 -1.9999999999999907 L 21.487899408735764 -1.9999999999999902 L 20.732819495998694 -1.99999999999999 L 19.952981408818502 -1.9999999999999896 L 19.150460578993922 -1.9999999999999893 L 18.327392805323104 -1.9999999999999891 L 17.485968569468927 -1.999999999999989 L 16.62842720629336 -1.9999999999999887 L 15.757050944175742 -1.9999999999999885 L 14.874158831175901 -1.9999999999999882 L 13.982100563206727 -1.9999999999999882 L 13.083250230641713 -1.9999999999999882 L 12.179999999999998 -1.999999999999988 " stroke="#191919" stroke-width="0.35 px" style="stroke-width:0.35;stroke-miterlimit:4;stroke-dasharray:none;fill:none;fill-opacity:1;fill-rule: evenodd"/>
<path id="Shape2DView_nwe0119"  d="M 23.584856038551365 -13.239999999999991 L 22.91581778418187 -13.239999999999991 L 22.216211605706675 -13.239999999999991 L 21.48789940873577 -13.239999999999991 L 20.732819495998697 -13.23999999999999 L 19.95298140881851 -13.23999999999999 L 19.150460578993926 -13.23999999999999 L 18.327392805323107 -13.23999999999999 L 17.48596856946893 -13.23999999999999 L 16.628427206293363 -13.23999999999999 L 15.757050944175745 -13.23999999999999 L 14.874158831175905 -13.239999999999988 L 13.982100563206732 -13.239999999999988 L 13.083250230641717 -13.239999999999988 L 12.179999999999998 -13.239999999999988 " stroke="#191919" stroke-width="0.35 px" style="stroke-width:0.35;stroke-miterlimit:4;stroke-dasharray:none;fill:none;fill-opacity:1;fill-rule: evenodd"/>
<path id="Shape2DView_nwe0120"  d="M 23.807919749141313 -2.205 L 23.780752231582408 -2.205 L 23.755238693915263 -2.205 L 23.73145941140487 -2.205 L 23.709489202691813 -2.205 L 23.68939719438446 -2.205 L 23.67124660356043 -2.205 L 23.6550945388617 -2.205 L 23.64099182080916 -2.205 L 23.62898282190196 -2.205 L 23.619105327004842 -2.205 L 23.611390414462583 -2.205 L 23.605862358315775 -2.205 L 23.60253855192545 -2.205 L 23.601429453247 -2.205 " stroke="#191919" stroke-width="0.35 px" style="stroke-width:0.35;stroke-miterlimit:4;stroke-dasharray:none;fill:none;fill-opacity:1;fill-rule: evenodd"/>
<path id="Shape2DView_nwe0121"  d="M 23.807919749140517 -2.205 A 1.41 0.997022 90 0 1 22.8109 -0.795" stroke="#191919" stroke-width="0.35 px" style="stroke-width:0.35;stroke-miterlimit:4;stroke-dasharray:none;fill:none;fill-opacity:1;fill-rule: evenodd"/>
<path id="Shape2DView_nwe0122"  d="M 22.81089803440789 -0.7950000000000002 A 0.705 0.49851 -90 0 1 23.3094 -1.5" stroke="#191919" stroke-width="0.35 px" style="stroke-width:0.35;stroke-miterlimit:4;stroke-dasharray:none;fill:none;fill-opacity:1;fill-rule: evenodd"/>
<path id="Shape2DView_nwe0123"  d="M 10.68 -1.999999999999988 L 9.77674976890367 -1.9999999999999882 L 8.87789943588969 -1.9999999999999882 L 7.985841167480802 -1.9999999999999882 L 7.102949054054067 -1.9999999999999885 L 6.2315727915258785 -1.9999999999999887 L 5.374031427959493 -1.999999999999989 L 4.532607191737598 -1.9999999999999891 L 3.709539417725394 -1.9999999999999893 L 2.9070185875888743 -1.9999999999999896 L 2.1271805001291835 -1.99999999999999 L 1.372100587147882 -1.9999999999999902 L 0.6437883899706911 -1.9999999999999907 L -0.05581778867032838 -1.999999999999991 L -0.7248560431628768 -1.9999999999999913 " stroke="#191919" stroke-width="0.35 px" style="stroke-width:0.35;stroke-miterlimit:4;stroke-dasharray:none;fill:none;fill-opacity:1;fill-rule: evenodd"/>
<path id="Shape2DView_nwe0124"  d="M 10.68 -13.239999999999988 L 9.77674976890367 -13.239999999999988 L 8.877899435889692 -13.239999999999988 L 7.985841167480803 -13.239999999999988 L 7.102949054054067 -13.23999999999999 L 6.2315727915258785 -13.23999999999999 L 5.374031427959493 -13.23999999999999 L 4.532607191737598 -13.23999999999999 L 3.709539417725394 -13.23999999999999 L 2.9070185875888743 -13.23999999999999 L 2.1271805001291835 -13.23999999999999 L 1.372100587147882 -13.239999999999991 L 0.6437883899706911 -13.239999999999991 L -0.05581778867032838 -13.239999999999991 L -0.7248560431628821 -13.239999999999991 " stroke="#191919" stroke-width="0.35 px" style="stroke-width:0.35;stroke-miterlimit:4;stroke-dasharray:none;fill:none;fill-opacity:1;fill-rule: evenodd"/>
<path id="Shape2DView_nwe0125"  d="M 22.81089803440789 -14.445 A 0.705 0.49851 90 0 0 23.3094 -13.74" stroke="#191919" stroke-width="0.35 px" style="stroke-width:0.35;stroke-miterlimit:4;stroke-dasharray:none;fill:none;fill-opacity:1;fill-rule: evenodd"/>
<path id="Shape2DView_nwe0126"  d="M 22.810898034408 -14.445 A 1.41 0.997022 90 0 1 23.8079 -13.035" stroke="#191919" stroke-width="0.35 px" style="stroke-width:0.35;stroke-miterlimit:4;stroke-dasharray:none;fill:none;fill-opacity:1;fill-rule: evenodd"/>
<path id="Shape2DView_nwe0127"  d="M 23.807919749141313 -13.035 L 23.780752231582408 -13.035 L 23.755238693915263 -13.035 L 23.73145941140487 -13.035 L 23.709489202691813 -13.035 L 23.68939719438446 -13.034999999999998 L 23.67124660356043 -13.034999999999998 L 23.6550945388617 -13.034999999999998 L 23.64099182080916 -13.034999999999998 L 23.62898282190196 -13.034999999999998 L 23.619105327004842 -13.034999999999998 L 23.611390414462583 -13.034999999999998 L 23.605862358315775 -13.034999999999998 L 23.60253855192545 -13.034999999999998 L 23.601429453247 -13.034999999999998 " stroke="#191919" stroke-width="0.35 px" style="stroke-width:0.35;stroke-miterlimit:4;stroke-dasharray:none;fill:none;fill-opacity:1;fill-rule: evenodd"/>
<path id="Shape2DView_nwe0128"  d="M 25.138708673860002 -14.535 L 25.137599581713573 -14.535 L 25.134275794878235 -14.535 L 25.12874777118626 -14.535 L 25.12103290379413 -14.535 L 25.11115546645741 -14.535 L 25.099146537156745 -14.535 L 25.08504390031532 -14.535 L 25.068891927915452 -14.535 L 25.050741439888306 -14.535 L 25.030649544216086 -14.535 L 25.008679457249702 -14.535 L 24.98490030480734 -14.535 L 24.959386904679704 -14.535 L 24.93221953122626 -14.535 " stroke="#191919" stroke-width="0.35 px" style="stroke-width:0.35;stroke-miterlimit:4;stroke-dasharray:none;fill:none;fill-opacity:1;fill-rule: evenodd"/>
<path id="Shape2DView_nwe0129"  d="M 25.138708673860002 -0.7050000000000023 L 25.137599581713573 -0.7050000000000024 L 25.134275794878235 -0.7050000000000025 L 25.12874777118626 -0.7050000000000027 L 25.12103290379413 -0.7050000000000028 L 25.11115546645741 -0.7050000000000028 L 25.099146537156745 -0.705000000000003 L 25.08504390031532 -0.7050000000000031 L 25.068891927915452 -0.7050000000000032 L 25.050741439888306 -0.7050000000000032 L 25.030649544216086 -0.7050000000000033 L 25.008679457249702 -0.7050000000000033 L 24.98490030480734 -0.7050000000000033 L 24.959386904679704 -0.7050000000000034 L 24.93221953122626 -0.7050000000000034 " stroke="#191919" stroke-width="0.35 px" style="stroke-width:0.35;stroke-miterlimit:4;stroke-dasharray:none;fill:none;fill-opacity:1;fill-rule: evenodd"/>
<path id="Shape2DView_nwe0130"  d="M 24.932219531227 -14.535 L 24.932219531227 -0.7050000000000001 " stroke="#191919" stroke-width="0.35 px" style="stroke-width:0.35;stroke-miterlimit:4;stroke-dasharray:none;fill:none;fill-opacity:1;fill-rule: evenodd"/>
<path id="Shape2DView_nwe0131"  d="M 23.807919749141 -13.035 L 23.807919749141 -2.205 " stroke="#191919" stroke-width="0.35 px" style="stroke-width:0.35;stroke-miterlimit:4;stroke-dasharray:none;fill:none;fill-opacity:1;fill-rule: evenodd"/>
<path id="Shape2DView_nwe0132"  d="M 22.810898034407927 -0.795 L 15.888314639208076 -0.7949999999999996 " stroke="#191919" stroke-width="0.35 px" style="stroke-width:0.35;stroke-miterlimit:4;stroke-dasharray:none;fill:none;fill-opacity:1;fill-rule: evenodd"/>
<path id="Shape2DView_nwe0133"  d="M 15.888314639205893 -0.7949999999999996 A 0.705 0.49851 -90 0 1 16.3868 -1.5" stroke="#191919" stroke-width="0.35 px" style="stroke-width:0.35;stroke-miterlimit:4;stroke-dasharray:none;fill:none;fill-opacity:1;fill-rule: evenodd"/>
<path id="Shape2DView_nwe0134"  d="M 15.888314639206076 -14.445 L 22.810898034405927 -14.445 " stroke="#191919" stroke-width="0.35 px" style="stroke-width:0.35;stroke-miterlimit:4;stroke-dasharray:none;fill:none;fill-opacity:1;fill-rule: evenodd"/>
<path id="Shape2DView_nwe0135"  d="M 15.024868506122925 -1.4999999999999898 A 1.41 0.997022 -90 0 0 15.8883 -0.795" stroke="#191919" stroke-width="0.35 px" style="stroke-width:0.35;stroke-miterlimit:4;stroke-dasharray:none;fill:none;fill-opacity:1;fill-rule: evenodd"/>
<path id="Shape2DView_nwe0136"  d="M 15.888314639205998 -14.445 A 1.41 0.997022 -90 0 0 15.0249 -13.74" stroke="#191919" stroke-width="0.35 px" style="stroke-width:0.35;stroke-miterlimit:4;stroke-dasharray:none;fill:none;fill-opacity:1;fill-rule: evenodd"/>
<path id="Shape2DView_nwe0137"  d="M 14.827653240555 -0.705 L 14.827653240555 -1.4999999999999887 " stroke="#191919" stroke-width="0.35 px" style="stroke-width:0.35;stroke-miterlimit:4;stroke-dasharray:none;fill:none;fill-opacity:1;fill-rule: evenodd"/>
<path id="Shape2DView_nwe0138"  d="M 14.827653240555 -13.73999999999999 L 14.827653240555 -14.535 " stroke="#191919" stroke-width="0.35 px" style="stroke-width:0.35;stroke-miterlimit:4;stroke-dasharray:none;fill:none;fill-opacity:1;fill-rule: evenodd"/>
<path id="Shape2DView_nwe0139"  d="M 23.871559433059925 -0.705 L 14.82765324055757 -0.7049999999999993 " stroke="#191919" stroke-width="0.35 px" style="stroke-width:0.35;stroke-miterlimit:4;stroke-dasharray:none;fill:none;fill-opacity:1;fill-rule: evenodd"/>
<path id="Shape2DView_nwe0140"  d="M 23.87155943306 -14.535 L 23.87155943306 -0.7050000000000001 " stroke="#191919" stroke-width="0.35 px" style="stroke-width:0.35;stroke-miterlimit:4;stroke-dasharray:none;fill:none;fill-opacity:1;fill-rule: evenodd"/>
<path id="Shape2DView_nwe0141"  d="M 14.827653240554573 -14.535 L 23.87155943305693 -14.535 " stroke="#191919" stroke-width="0.35 px" style="stroke-width:0.35;stroke-miterlimit:4;stroke-dasharray:none;fill:none;fill-opacity:1;fill-rule: evenodd"/>
<path id="Shape2DView_nwe0142"  d="M 0.0491019655921075 -0.7950000000000004 A 0.705 0.49851 -90 0 0 -0.449408 -1.5" stroke="#191919" stroke-width="0.35 px" style="stroke-width:0.35;stroke-miterlimit:4;stroke-dasharray:none;fill:none;fill-opacity:1;fill-rule: evenodd"/>
<path id="Shape2DView_nwe0143"  d="M -0.9479197491405451 -2.205 A 1.41 0.997022 90 0 0 0.049102 -0.795" stroke="#191919" stroke-width="0.35 px" style="stroke-width:0.35;stroke-miterlimit:4;stroke-dasharray:none;fill:none;fill-opacity:1;fill-rule: evenodd"/>
<path id="Shape2DView_nwe0144"  d="M -0.9479197491413148 -2.205 L -0.9207522315824102 -2.205 L -0.8952386939152647 -2.205 L -0.8714594114048696 -2.205 L -0.8494892026918123 -2.205 L -0.8293971943844591 -2.205 L -0.8112466035604309 -2.205 L -0.7950945388617026 -2.205 L -0.7809918208091585 -2.205 L -0.7689828219019615 -2.205 L -0.7591053270048423 -2.205 L -0.7513904144625863 -2.205 L -0.7458623583157751 -2.205 L -0.7425385519254496 -2.205 L -0.7414294532469998 -2.205 " stroke="#191919" stroke-width="0.35 px" style="stroke-width:0.35;stroke-miterlimit:4;stroke-dasharray:none;fill:none;fill-opacity:1;fill-rule: evenodd"/>
<path id="Shape2DView_nwe0145"  d="M -2.278708673859999 -13.239999999999993 L -2.780337225590209 -13.239999999999993 L -3.2503290407303425 -13.239999999999993 L -3.687637767809699 -13.239999999999995 L -4.091289818321021 -13.239999999999995 L -4.46038653423858 -13.239999999999995 L -4.794106188717166 -13.239999999999995 L -5.091705815517763 -13.239999999999997 L -5.352522863087017 -13.239999999999997 L -5.575976669608039 -13.239999999999997 L -5.761569755738517 -13.239999999999998 L -5.908888932158195 -13.239999999999998 L -6.017606219459896 -13.239999999999998 L -6.087479578336136 -13.24 L -6.118353448435723 -13.24 " stroke="#191919" stroke-width="0.35 px" style="stroke-width:0.35;stroke-miterlimit:4;stroke-dasharray:none;fill:none;fill-opacity:1;fill-rule: evenodd"/>
<path id="Shape2DView_nwe0146"  d="M -2.278708673859999 -1.9999999999999927 L -2.780337225590209 -1.9999999999999931 L -3.2503290407303425 -1.9999999999999936 L -3.687637767809699 -1.999999999999994 L -4.091289818321021 -1.9999999999999944 L -4.46038653423858 -1.999999999999995 L -4.794106188717166 -1.9999999999999956 L -5.091705815517763 -1.999999999999996 L -5.352522863087017 -1.9999999999999964 L -5.575976669608039 -1.9999999999999971 L -5.761569755738517 -1.9999999999999976 L -5.908888932158195 -1.9999999999999982 L -6.017606219459896 -1.9999999999999987 L -6.087479578336136 -1.9999999999999993 L -6.118353448435723 -1.9999999999999998 " stroke="#191919" stroke-width="0.35 px" style="stroke-width:0.35;stroke-miterlimit:4;stroke-dasharray:none;fill:none;fill-opacity:1;fill-rule: evenodd"/>
<path id="Shape2DView_nwe0147"  d="M -0.9479197491413148 -13.035 L -0.9207522315824102 -13.035 L -0.8952386939152647 -13.035 L -0.8714594114048696 -13.035 L -0.8494892026918123 -13.035 L -0.8293971943844591 -13.035 L -0.8112466035604309 -13.035 L -0.7950945388617026 -13.035 L -0.7809918208091585 -13.035 L -0.7689828219019615 -13.035 L -0.7591053270048423 -13.035 L -0.7513904144625863 -13.035 L -0.7458623583157751 -13.035 L -0.7425385519254496 -13.035 L -0.7414294532469998 -13.035 " stroke="#191919" stroke-width="0.35 px" style="stroke-width:0.35;stroke-miterlimit:4;stroke-dasharray:none;fill:none;fill-opacity:1;fill-rule: evenodd"/>
<path id="Shape2DView_nwe0148"  d="M 0.04910196559197001 -14.445 A 1.41 0.997022 90 0 0 -0.94792 -13.035" stroke="#191919" stroke-width="0.35 px" style="stroke-width:0.35;stroke-miterlimit:4;stroke-dasharray:none;fill:none;fill-opacity:1;fill-rule: evenodd"/>
<path id="Shape2DView_nwe0149"  d="M 0.0491019655921075 -14.445 A 0.705 0.49851 90 0 1 -0.449408 -13.74" stroke="#191919" stroke-width="0.35 px" style="stroke-width:0.35;stroke-miterlimit:4;stroke-dasharray:none;fill:none;fill-opacity:1;fill-rule: evenodd"/>
<path id="Shape2DView_nwe0150"  d="M 15.888314639205893 -14.445 A 0.705 0.49851 90 0 0 16.3868 -13.74" stroke="#191919" stroke-width="0.35 px" style="stroke-width:0.35;stroke-miterlimit:4;stroke-dasharray:none;fill:none;fill-opacity:1;fill-rule: evenodd"/>
<path id="Shape2DView_nwe0151"  d="M 24.43370867386 0.0 A 0.705 0.498511 -90 0 0 24.9322 -0.705" stroke="#191919" stroke-width="0.35 px" style="stroke-width:0.35;stroke-miterlimit:4;stroke-dasharray:none;fill:none;fill-opacity:1;fill-rule: evenodd"/>
<path id="Shape2DView_nwe0152"  d="M 24.93221953122626 -14.535 A 0.705 0.498511 -90 0 0 24.4337 -15.24" stroke="#191919" stroke-width="0.35 px" style="stroke-width:0.35;stroke-miterlimit:4;stroke-dasharray:none;fill:none;fill-opacity:1;fill-rule: evenodd"/>
<path id="Shape2DView_nwe0153"  d="M 24.868579994532425 -0.7049999999999998 L 24.932219531227076 -0.7049999999999998 " stroke="#191919" stroke-width="0.35 px" style="stroke-width:0.35;stroke-miterlimit:4;stroke-dasharray:none;fill:none;fill-opacity:1;fill-rule: evenodd"/>
<path id="Shape2DView_nwe0154"  d="M 24.868579994532 -14.535 L 24.868579994532 -0.7050000000000001 " stroke="#191919" stroke-width="0.35 px" style="stroke-width:0.35;stroke-miterlimit:4;stroke-dasharray:none;fill:none;fill-opacity:1;fill-rule: evenodd"/>
<path id="Shape2DView_nwe0155"  d="M 24.868579994532425 -14.535 L 24.932219531227076 -14.535 " stroke="#191919" stroke-width="0.35 px" style="stroke-width:0.35;stroke-miterlimit:4;stroke-dasharray:none;fill:none;fill-opacity:1;fill-rule: evenodd"/>
<path id="Shape2DView_nwe0156"  d="M 14.827653240554817 -14.535 L 14.800485722995859 -14.535 L 14.77497218532866 -14.535 L 14.751192902818216 -14.535 L 14.729222694105111 -14.535 L 14.709130685797714 -14.535 L 14.690980094973643 -14.535 L 14.674828030274876 -14.535 L 14.660725312222295 -14.535 L 14.648716313315067 -14.535 L 14.638838818417918 -14.535 L 14.631123905875638 -14.534999999999998 L 14.625595849728805 -14.534999999999998 L 14.622272043338462 -14.534999999999998 L 14.62116294466 -14.534999999999998 " stroke="#191919" stroke-width="0.35 px" style="stroke-width:0.35;stroke-miterlimit:4;stroke-dasharray:none;fill:none;fill-opacity:1;fill-rule: evenodd"/>
<path id="Shape2DView_nwe0157"  d="M 14.827653240554817 -0.7050000000000001 L 14.800485722995859 -0.705 L 14.77497218532866 -0.705 L 14.751192902818216 -0.705 L 14.729222694105111 -0.7049999999999998 L 14.709130685797714 -0.7049999999999998 L 14.690980094973643 -0.7049999999999997 L 14.674828030274876 -0.7049999999999997 L 14.660725312222295 -0.7049999999999997 L 14.648716313315067 -0.7049999999999996 L 14.638838818417918 -0.7049999999999996 L 14.631123905875638 -0.7049999999999996 L 14.625595849728805 -0.7049999999999995 L 14.622272043338462 -0.7049999999999995 L 14.62116294466 -0.7049999999999995 " stroke="#191919" stroke-width="0.35 px" style="stroke-width:0.35;stroke-miterlimit:4;stroke-dasharray:none;fill:none;fill-opacity:1;fill-rule: evenodd"/>
<path id="Shape2DView_nwe0158"  d="M 14.827653240553893 -0.7050000000000002 A 0.705 0.49851 90 0 0 15.3262 0" stroke="#191919" stroke-width="0.35 px" style="stroke-width:0.35;stroke-miterlimit:4;stroke-dasharray:none;fill:none;fill-opacity:1;fill-rule: evenodd"/>
<path id="Shape2DView_nwe0159"  d="M 23.87155943305989 -0.7050000000000001 A 0.705 0.49851 90 0 0 24.3701 0" stroke="#191919" stroke-width="0.35 px" style="stroke-width:0.35;stroke-miterlimit:4;stroke-dasharray:none;fill:none;fill-opacity:1;fill-rule: evenodd"/>
<path id="Shape2DView_nwe0160"  d="M 23.87155943305989 -14.535 A 0.705 0.49851 -90 0 1 24.3701 -15.24" stroke="#191919" stroke-width="0.35 px" style="stroke-width:0.35;stroke-miterlimit:4;stroke-dasharray:none;fill:none;fill-opacity:1;fill-rule: evenodd"/>
<path id="Shape2DView_nwe0161"  d="M 14.827653240553893 -14.535 A 0.705 0.49851 -90 0 1 15.3262 -15.24" stroke="#191919" stroke-width="0.35 px" style="stroke-width:0.35;stroke-miterlimit:4;stroke-dasharray:none;fill:none;fill-opacity:1;fill-rule: evenodd"/>
<path id="Shape2DView_nwe0162"  d="M 23.871559433059815 -0.7050000000000001 L 23.93050946442224 -0.7050000000000005 L 23.99498721370788 -0.7050000000000008 L 24.064181835808604 -0.7050000000000013 L 24.13722316820385 -0.7050000000000016 L 24.21319267375917 -0.705000000000002 L 24.29113499186368 -0.7050000000000023 L 24.37006995264402 -0.7050000000000026 L 24.44900490316925 -0.705000000000003 L 24.526947190637394 -0.7050000000000032 L 24.602916645560367 -0.7050000000000033 L 24.67595790796401 -0.7050000000000035 L 24.745152441594065 -0.7050000000000036 L 24.809630085042535 -0.7050000000000036 L 24.868579994532254 -0.7050000000000036 " stroke="#191919" stroke-width="0.35 px" style="stroke-width:0.35;stroke-miterlimit:4;stroke-dasharray:none;fill:none;fill-opacity:1;fill-rule: evenodd"/>
<path id="Shape2DView_nwe0163"  d="M 23.871559433059815 -14.535 L 23.93050946442224 -14.535 L 23.99498721370788 -14.535 L 24.064181835808604 -14.535 L 24.13722316820385 -14.535 L 24.21319267375917 -14.535 L 24.29113499186368 -14.535 L 24.37006995264402 -14.535 L 24.44900490316925 -14.535 L 24.526947190637394 -14.535 L 24.602916645560367 -14.535 L 24.67595790796401 -14.535 L 24.745152441594065 -14.535 L 24.809630085042535 -14.535 L 24.868579994532254 -14.535 " stroke="#191919" stroke-width="0.35 px" style="stroke-width:0.35;stroke-miterlimit:4;stroke-dasharray:none;fill:none;fill-opacity:1;fill-rule: evenodd"/>
<path id="Shape2DView_nwe0165"  d="M 12.18 -14.535 L 12.175567107974736 -14.535 L 12.162324178088186 -14.535 L 12.140437747867399 -14.535000000000002 L 12.110183051871205 -14.535000000000002 L 12.071940560455939 -14.535000000000002 L 12.02619119513996 -14.535000000000002 L 11.973510280736516 -14.535000000000002 L 11.914560310310407 -14.535000000000004 L 11.850082613943313 -14.535000000000004 L 11.780888036077878 -14.535000000000004 L 11.707846738678393 -14.535000000000004 L 11.631877258439202 -14.535000000000004 L 11.553934955652831 -14.535000000000004 L 11.475 -14.535000000000004 " stroke="#191919" stroke-width="0.35 px" style="stroke-width:0.35;stroke-miterlimit:4;stroke-dasharray:none;fill:none;fill-opacity:1;fill-rule: evenodd"/>
<path id="Shape2DView_nwe0166"  d="M 12.18 -0.7049999999999998 L 12.175567107974736 -0.7049999999999998 L 12.162324178088186 -0.7049999999999998 L 12.140437747867399 -0.7049999999999997 L 12.110183051871205 -0.7049999999999997 L 12.071940560455939 -0.7049999999999997 L 12.02619119513996 -0.7049999999999997 L 11.973510280736516 -0.7049999999999996 L 11.914560310310407 -0.7049999999999996 L 11.850082613943313 -0.7049999999999996 L 11.780888036077878 -0.7049999999999996 L 11.707846738678393 -0.7049999999999996 L 11.631877258439202 -0.7049999999999996 L 11.553934955652831 -0.7049999999999996 L 11.475 -0.7049999999999996 " stroke="#191919" stroke-width="0.35 px" style="stroke-width:0.35;stroke-miterlimit:4;stroke-dasharray:none;fill:none;fill-opacity:1;fill-rule: evenodd"/>
<path id="Shape2DView_nwe0167"  d="M 11.475 -14.535 L 11.474999999999998 -0.7050000000000001 " stroke="#191919" stroke-width="0.35 px" style="stroke-width:0.35;stroke-miterlimit:4;stroke-dasharray:none;fill:none;fill-opacity:1;fill-rule: evenodd"/>
<path id="Shape2DView_nwe0169"  d="M -0.947919749141 -2.205 L -0.9479197491410005 -13.035 " stroke="#191919" stroke-width="0.35 px" style="stroke-width:0.35;stroke-miterlimit:4;stroke-dasharray:none;fill:none;fill-opacity:1;fill-rule: evenodd"/>
<path id="Shape2DView_nwe0170"  d="M 6.971685360794108 -0.7949999999999995 A 0.705 0.49851 -90 0 0 6.47318 -1.5" stroke="#191919" stroke-width="0.35 px" style="stroke-width:0.35;stroke-miterlimit:4;stroke-dasharray:none;fill:none;fill-opacity:1;fill-rule: evenodd"/>
<path id="Shape2DView_nwe0171"  d="M 6.9716853607939235 -0.795 L 0.04910196559405833 -0.7950000000000005 " stroke="#191919" stroke-width="0.35 px" style="stroke-width:0.35;stroke-miterlimit:4;stroke-dasharray:none;fill:none;fill-opacity:1;fill-rule: evenodd"/>
<path id="Shape2DView_nwe0172"  d="M 0.04910196559205948 -14.445 L 6.971685360791927 -14.445 " stroke="#191919" stroke-width="0.35 px" style="stroke-width:0.35;stroke-miterlimit:4;stroke-dasharray:none;fill:none;fill-opacity:1;fill-rule: evenodd"/>
<path id="Shape2DView_nwe0173"  d="M 7.835131493877075 -1.4999999999999887 A 1.41 0.997022 -90 0 1 6.97169 -0.795" stroke="#191919" stroke-width="0.35 px" style="stroke-width:0.35;stroke-miterlimit:4;stroke-dasharray:none;fill:none;fill-opacity:1;fill-rule: evenodd"/>
<path id="Shape2DView_nwe0174"  d="M 6.971685360794001 -14.445 A 1.41 0.997022 -90 0 1 7.83513 -13.74" stroke="#191919" stroke-width="0.35 px" style="stroke-width:0.35;stroke-miterlimit:4;stroke-dasharray:none;fill:none;fill-opacity:1;fill-rule: evenodd"/>
<path id="Shape2DView_nwe0175"  d="M 8.032346759445925 -0.705 L -1.011559433056929 -0.7050000000000006 " stroke="#191919" stroke-width="0.35 px" style="stroke-width:0.35;stroke-miterlimit:4;stroke-dasharray:none;fill:none;fill-opacity:1;fill-rule: evenodd"/>
<path id="Shape2DView_nwe0176"  d="M -1.01155943306 -0.705 L -1.0115594330600006 -14.535 " stroke="#191919" stroke-width="0.35 px" style="stroke-width:0.35;stroke-miterlimit:4;stroke-dasharray:none;fill:none;fill-opacity:1;fill-rule: evenodd"/>
<path id="Shape2DView_nwe0177"  d="M -1.0115594330599254 -14.535 L 8.032346759442929 -14.535 " stroke="#191919" stroke-width="0.35 px" style="stroke-width:0.35;stroke-miterlimit:4;stroke-dasharray:none;fill:none;fill-opacity:1;fill-rule: evenodd"/>
<path id="Shape2DView_nwe0178"  d="M 8.032346759445 -14.535 L 8.032346759445 -13.73999999999999 " stroke="#191919" stroke-width="0.35 px" style="stroke-width:0.35;stroke-miterlimit:4;stroke-dasharray:none;fill:none;fill-opacity:1;fill-rule: evenodd"/>
<path id="Shape2DView_nwe0179"  d="M 8.032346759445 -1.4999999999999893 L 8.032346759445 -0.7050000000000001 " stroke="#191919" stroke-width="0.35 px" style="stroke-width:0.35;stroke-miterlimit:4;stroke-dasharray:none;fill:none;fill-opacity:1;fill-rule: evenodd"/>
<path id="Shape2DView_nwe0180"  d="M -5.415 -0.795 L -5.415 -0.8739349556528321 L -5.415 -0.9518772584392017 L -5.415 -1.027846738678393 L -5.415 -1.1008880360778786 L -5.415 -1.1700826139433123 L -5.415 -1.2345603103104072 L -5.415 -1.293510280736516 L -5.415 -1.346191195139961 L -5.415 -1.3919405604559403 L -5.415 -1.4301830518712055 L -5.415 -1.460437747867399 L -5.415 -1.4823241780881857 L -5.415 -1.4955671079747361 L -5.415 -1.5 " stroke="#191919" stroke-width="0.35 px" style="stroke-width:0.35;stroke-miterlimit:4;stroke-dasharray:none;fill:none;fill-opacity:1;fill-rule: evenodd"/>
<path id="Shape2DView_nwe0181"  d="M -6.825 -2.205 A 1.41 1.41 0 0 0 -5.415 -0.795" stroke="#191919" stroke-width="0.35 px" style="stroke-width:0.35;stroke-miterlimit:4;stroke-dasharray:none;fill:none;fill-opacity:1;fill-rule: evenodd"/>
<path id="Shape2DView_nwe0182"  d="M -6.825 -2.205 L -6.746065044347168 -2.205 L -6.668122741560799 -2.205 L -6.592153261321608 -2.205 L -6.519111963922121 -2.205 L -6.449917386056688 -2.205 L -6.385439689689593 -2.205 L -6.326489719263484 -2.205 L -6.273808804860039 -2.205 L -6.22805943954406 -2.205 L -6.189816948128795 -2.205 L -6.159562252132601 -2.205 L -6.137675821911815 -2.205 L -6.124432892025264 -2.205 L -6.12 -2.205 " stroke="#191919" stroke-width="0.35 px" style="stroke-width:0.35;stroke-miterlimit:4;stroke-dasharray:none;fill:none;fill-opacity:1;fill-rule: evenodd"/>
<path id="Shape2DView_nwe0184"  d="M -6.825 -13.035 L -6.746065044347168 -13.035 L -6.668122741560799 -13.035 L -6.592153261321608 -13.035 L -6.519111963922121 -13.035 L -6.449917386056688 -13.035 L -6.385439689689593 -13.035 L -6.326489719263484 -13.035 L -6.273808804860039 -13.035 L -6.22805943954406 -13.035 L -6.189816948128795 -13.035 L -6.159562252132601 -13.035 L -6.137675821911815 -13.035 L -6.124432892025264 -13.035 L -6.12 -13.035 " stroke="#191919" stroke-width="0.35 px" style="stroke-width:0.35;stroke-miterlimit:4;stroke-dasharray:none;fill:none;fill-opacity:1;fill-rule: evenodd"/>
<path id="Shape2DView_nwe0185"  d="M -5.415 -14.445 A 1.41 1.41 0 0 0 -6.825 -13.035" stroke="#191919" stroke-width="0.35 px" style="stroke-width:0.35;stroke-miterlimit:4;stroke-dasharray:none;fill:none;fill-opacity:1;fill-rule: evenodd"/>
<path id="Shape2DView_nwe0186"  d="M -5.415 -14.445 L -5.415 -14.366065044347168 L -5.415 -14.288122741560798 L -5.415 -14.212153261321607 L -5.415 -14.139111963922122 L -5.415 -14.069917386056687 L -5.415 -14.005439689689593 L -5.415 -13.946489719263484 L -5.415 -13.89380880486004 L -5.415 -13.84805943954406 L -5.415 -13.809816948128795 L -5.415 -13.779562252132601 L -5.415 -13.757675821911814 L -5.415 -13.744432892025264 L -5.415 -13.74 " stroke="#191919" stroke-width="0.35 px" style="stroke-width:0.35;stroke-miterlimit:4;stroke-dasharray:none;fill:none;fill-opacity:1;fill-rule: evenodd"/>
<path id="Shape2DView_nwe0187"  d="M 6.971685360794108 -14.445 A 0.705 0.49851 90 0 1 6.47318 -13.74" stroke="#191919" stroke-width="0.35 px" style="stroke-width:0.35;stroke-miterlimit:4;stroke-dasharray:none;fill:none;fill-opacity:1;fill-rule: evenodd"/>
<path id="Shape2DView_nwe0188"  d="M 24.370069137166 0.0 A 0.705 0.498511 -90 0 0 24.8686 -0.705" stroke="#191919" stroke-width="0.35 px" style="stroke-width:0.35;stroke-miterlimit:4;stroke-dasharray:none;fill:none;fill-opacity:1;fill-rule: evenodd"/>
<path id="Shape2DView_nwe0189"  d="M 24.868579994532254 -14.535 A 0.705 0.498511 -90 0 0 24.3701 -15.24" stroke="#191919" stroke-width="0.35 px" style="stroke-width:0.35;stroke-miterlimit:4;stroke-dasharray:none;fill:none;fill-opacity:1;fill-rule: evenodd"/>
<path id="Shape2DView_nwe0190"  d="M 11.475 -15.24 L 11.475 -15.235567107974736 L 11.475 -15.222324178088186 L 11.475 -15.200437747867399 L 11.475 -15.170183051871206 L 11.475 -15.13194056045594 L 11.475 -15.08619119513996 L 11.475 -15.033510280736516 L 11.475 -14.974560310310407 L 11.475 -14.910082613943313 L 11.475 -14.840888036077878 L 11.475 -14.767846738678394 L 11.475 -14.691877258439202 L 11.475 -14.613934955652832 L 11.475 -14.535 " stroke="#191919" stroke-width="0.35 px" style="stroke-width:0.35;stroke-miterlimit:4;stroke-dasharray:none;fill:none;fill-opacity:1;fill-rule: evenodd"/>
<path id="Shape2DView_nwe0191"  d="M 11.385 -14.535 L 11.475 -14.535 " stroke="#191919" stroke-width="0.35 px" style="stroke-width:0.35;stroke-miterlimit:4;stroke-dasharray:none;fill:none;fill-opacity:1;fill-rule: evenodd"/>
<path id="Shape2DView_nwe0192"  d="M 11.385 -0.7049999999999998 L 11.475 -0.7049999999999998 " stroke="#191919" stroke-width="0.35 px" style="stroke-width:0.35;stroke-miterlimit:4;stroke-dasharray:none;fill:none;fill-opacity:1;fill-rule: evenodd"/>
<path id="Shape2DView_nwe0193"  d="M 11.385 -14.535 L 11.384999999999998 -0.7050000000000001 " stroke="#191919" stroke-width="0.35 px" style="stroke-width:0.35;stroke-miterlimit:4;stroke-dasharray:none;fill:none;fill-opacity:1;fill-rule: evenodd"/>
<path id="Shape2DView_nwe0194"  d="M 11.475 -0.7049999999999996 L 11.475 -0.6260650443471676 L 11.475 -0.548122741560798 L 11.475 -0.47215326132160695 L 11.475 -0.3991119639221213 L 11.475 -0.3299173860566875 L 11.475 -0.2654396896895927 L 11.475 -0.2064897192634838 L 11.475 -0.15380880486003878 L 11.475 -0.1080594395440595 L 11.475 -0.06981694812879446 L 11.475 -0.039562252132600784 L 11.475 -0.01767582191181427 L 11.475 -0.004432892025263979 L 11.475 0.0 " stroke="#191919" stroke-width="0.35 px" style="stroke-width:0.35;stroke-miterlimit:4;stroke-dasharray:none;fill:none;fill-opacity:1;fill-rule: evenodd"/>
<path id="Shape2DView_nwe0196"  d="M 10.68 -0.7050000000000001 L 10.684432892025264 -0.705 L 10.697675821911814 -0.705 L 10.7195622521326 -0.705 L 10.749816948128794 -0.705 L 10.78805943954406 -0.705 L 10.83380880486004 -0.705 L 10.886489719263484 -0.705 L 10.945439689689593 -0.705 L 11.009917386056687 -0.7049999999999998 L 11.079111963922122 -0.7049999999999998 L 11.152153261321606 -0.7049999999999998 L 11.228122741560798 -0.7049999999999998 L 11.306065044347168 -0.7049999999999998 L 11.385 -0.7049999999999998 " stroke="#191919" stroke-width="0.35 px" style="stroke-width:0.35;stroke-miterlimit:4;stroke-dasharray:none;fill:none;fill-opacity:1;fill-rule: evenodd"/>
<path id="Shape2DView_nwe0197"  d="M 10.68 -14.535 L 10.684432892025264 -14.535 L 10.697675821911814 -14.535 L 10.7195622521326 -14.535000000000002 L 10.749816948128794 -14.535000000000002 L 10.78805943954406 -14.535000000000002 L 10.83380880486004 -14.535000000000002 L 10.886489719263484 -14.535000000000002 L 10.945439689689593 -14.535000000000004 L 11.009917386056687 -14.535000000000004 L 11.079111963922122 -14.535000000000004 L 11.152153261321606 -14.535000000000004 L 11.228122741560798 -14.535000000000004 L 11.306065044347168 -14.535000000000004 L 11.385 -14.535000000000004 " stroke="#191919" stroke-width="0.35 px" style="stroke-width:0.35;stroke-miterlimit:4;stroke-dasharray:none;fill:none;fill-opacity:1;fill-rule: evenodd"/>
<path id="Shape2DView_nwe0199"  d="M -1.0115594330598925 -0.7050000000000001 A 0.705 0.49851 90 0 1 -1.51007 0" stroke="#191919" stroke-width="0.35 px" style="stroke-width:0.35;stroke-miterlimit:4;stroke-dasharray:none;fill:none;fill-opacity:1;fill-rule: evenodd"/>
<path id="Shape2DView_nwe0200"  d="M 8.032346759446108 -0.7050000000000001 A 0.705 0.49851 90 0 1 7.53384 0" stroke="#191919" stroke-width="0.35 px" style="stroke-width:0.35;stroke-miterlimit:4;stroke-dasharray:none;fill:none;fill-opacity:1;fill-rule: evenodd"/>
<path id="Shape2DView_nwe0201"  d="M 8.032346759445684 -0.705 L 8.05951427700458 -0.7050000000000002 L 8.085027814671717 -0.7050000000000003 L 8.108807097182105 -0.7050000000000004 L 8.130777305895156 -0.7050000000000006 L 8.150869314202506 -0.7050000000000007 L 8.169019905026532 -0.7050000000000008 L 8.185171969725259 -0.705000000000001 L 8.199274687777804 -0.7050000000000012 L 8.211283686685004 -0.7050000000000013 L 8.221161181582126 -0.7050000000000014 L 8.228876094124388 -0.7050000000000015 L 8.234404150271207 -0.7050000000000016 L 8.23772795666154 -0.7050000000000017 L 8.23883705534 -0.7050000000000018 " stroke="#191919" stroke-width="0.35 px" style="stroke-width:0.35;stroke-miterlimit:4;stroke-dasharray:none;fill:none;fill-opacity:1;fill-rule: evenodd"/>
<path id="Shape2DView_nwe0202"  d="M 8.032346759445684 -14.535 L 8.05951427700458 -14.535 L 8.085027814671717 -14.535 L 8.108807097182106 -14.535 L 8.130777305895158 -14.534999999999998 L 8.150869314202508 -14.534999999999998 L 8.169019905026534 -14.534999999999998 L 8.18517196972526 -14.534999999999998 L 8.199274687777805 -14.534999999999998 L 8.211283686685004 -14.534999999999998 L 8.221161181582127 -14.534999999999998 L 8.22887609412439 -14.534999999999998 L 8.234404150271207 -14.534999999999998 L 8.23772795666154 -14.534999999999997 L 8.23883705534 -14.534999999999997 " stroke="#191919" stroke-width="0.35 px" style="stroke-width:0.35;stroke-miterlimit:4;stroke-dasharray:none;fill:none;fill-opacity:1;fill-rule: evenodd"/>
<path id="Shape2DView_nwe0203"  d="M -2.008579994532 -0.705 L -2.008579994532001 -14.535 " stroke="#191919" stroke-width="0.35 px" style="stroke-width:0.35;stroke-miterlimit:4;stroke-dasharray:none;fill:none;fill-opacity:1;fill-rule: evenodd"/>
<path id="Shape2DView_nwe0204"  d="M -1.011559433059817 -14.535 L -1.0705094644222397 -14.535 L -1.1349872137078791 -14.535 L -1.204181835808606 -14.535 L -1.2772231682038495 -14.535 L -1.3531926737591706 -14.535000000000002 L -1.431134991863677 -14.535000000000002 L -1.5100699526440187 -14.535000000000002 L -1.5890049031692506 -14.535000000000002 L -1.6669471906373934 -14.535000000000002 L -1.7429166455603662 -14.535000000000002 L -1.815957907964008 -14.535000000000002 L -1.8851524415940655 -14.535000000000002 L -1.9496300850425365 -14.535000000000002 L -2.0085799945322576 -14.535000000000002 " stroke="#191919" stroke-width="0.35 px" style="stroke-width:0.35;stroke-miterlimit:4;stroke-dasharray:none;fill:none;fill-opacity:1;fill-rule: evenodd"/>
<path id="Shape2DView_nwe0205"  d="M -1.011559433059817 -0.705 L -1.0705094644222397 -0.705 L -1.1349872137078791 -0.7050000000000001 L -1.204181835808606 -0.7050000000000001 L -1.2772231682038495 -0.7050000000000001 L -1.3531926737591706 -0.7050000000000001 L -1.431134991863677 -0.7050000000000001 L -1.5100699526440187 -0.7050000000000001 L -1.5890049031692506 -0.7050000000000001 L -1.6669471906373934 -0.7050000000000001 L -1.7429166455603662 -0.7050000000000001 L -1.815957907964008 -0.7050000000000001 L -1.8851524415940655 -0.7050000000000001 L -1.9496300850425365 -0.7050000000000001 L -2.0085799945322576 -0.7050000000000001 " stroke="#191919" stroke-width="0.35 px" style="stroke-width:0.35;stroke-miterlimit:4;stroke-dasharray:none;fill:none;fill-opacity:1;fill-rule: evenodd"/>
<path id="Shape2DView_nwe0206"  d="M 8.032346759446108 -14.535 A 0.705 0.49851 -90 0 0 7.53384 -15.24" stroke="#191919" stroke-width="0.35 px" style="stroke-width:0.35;stroke-miterlimit:4;stroke-dasharray:none;fill:none;fill-opacity:1;fill-rule: evenodd"/>
<path id="Shape2DView_nwe0207"  d="M -1.0115594330598925 -14.535 A 0.705 0.49851 -90 0 0 -1.51007 -15.24" stroke="#191919" stroke-width="0.35 px" style="stroke-width:0.35;stroke-miterlimit:4;stroke-dasharray:none;fill:none;fill-opacity:1;fill-rule: evenodd"/>
<path id="Shape2DView_nwe0208"  d="M -6.825 -2.205 L -6.825 -13.035 " stroke="#191919" stroke-width="0.35 px" style="stroke-width:0.35;stroke-miterlimit:4;stroke-dasharray:none;fill:none;fill-opacity:1;fill-rule: evenodd"/>
<path id="Shape2DView_nwe0209"  d="M -2.2787086738599998 -0.795 L -5.415000000000001 -0.795 " stroke="#191919" stroke-width="0.35 px" style="stroke-width:0.35;stroke-miterlimit:4;stroke-dasharray:none;fill:none;fill-opacity:1;fill-rule: evenodd"/>
<path id="Shape2DView_nwe0210"  d="M -5.415 -14.445 L -2.2787086738600006 -14.445 " stroke="#191919" stroke-width="0.35 px" style="stroke-width:0.35;stroke-miterlimit:4;stroke-dasharray:none;fill:none;fill-opacity:1;fill-rule: evenodd"/>
<path id="Shape2DView_nwe0211"  d="M -2.2787086738600006 -0.705 L -6.915000000000001 -0.705 " stroke="#191919" stroke-width="0.35 px" style="stroke-width:0.35;stroke-miterlimit:4;stroke-dasharray:none;fill:none;fill-opacity:1;fill-rule: evenodd"/>
<path id="Shape2DView_nwe0212"  d="M -6.915 -14.535 L -2.2787086738600006 -14.535 " stroke="#191919" stroke-width="0.35 px" style="stroke-width:0.35;stroke-miterlimit:4;stroke-dasharray:none;fill:none;fill-opacity:1;fill-rule: evenodd"/>
<path id="Shape2DView_nwe0213"  d="M -6.915 -0.705 L -6.915 -14.535 " stroke="#191919" stroke-width="0.35 px" style="stroke-width:0.35;stroke-miterlimit:4;stroke-dasharray:none;fill:none;fill-opacity:1;fill-rule: evenodd"/>
<path id="Shape2DView_nwe0214"  d="M 15.32616294466 0.0 A 0.705 0.498511 -90 0 1 15.2038 -0.0215727" stroke="#191919" stroke-width="0.35 px" style="stroke-width:0.35;stroke-miterlimit:4;stroke-dasharray:none;fill:none;fill-opacity:1;fill-rule: evenodd"/>
<path id="Shape2DView_nwe0215"  d="M 11.385 -15.24 L 11.385 -15.235567107974736 L 11.385 -15.222324178088186 L 11.385 -15.200437747867399 L 11.385 -15.170183051871206 L 11.385 -15.13194056045594 L 11.385 -15.08619119513996 L 11.385 -15.033510280736516 L 11.385 -14.974560310310407 L 11.385 -14.910082613943313 L 11.385 -14.840888036077878 L 11.385 -14.767846738678394 L 11.385 -14.691877258439202 L 11.385 -14.613934955652832 L 11.385 -14.535 " stroke="#191919" stroke-width="0.35 px" style="stroke-width:0.35;stroke-miterlimit:4;stroke-dasharray:none;fill:none;fill-opacity:1;fill-rule: evenodd"/>
<path id="Shape2DView_nwe0216"  d="M 11.385 -0.7049999999999998 L 11.385 -0.6260650443471678 L 11.385 -0.5481227415607982 L 11.385 -0.47215326132160707 L 11.385 -0.3991119639221214 L 11.385 -0.3299173860566876 L 11.385 -0.26543968968959275 L 11.385 -0.20648971926348397 L 11.385 -0.1538088048600389 L 11.385 -0.10805943954405961 L 11.385 -0.06981694812879446 L 11.385 -0.039562252132600895 L 11.385 -0.017675821911814382 L 11.385 -0.004432892025263979 L 11.385 0.0 " stroke="#191919" stroke-width="0.35 px" style="stroke-width:0.35;stroke-miterlimit:4;stroke-dasharray:none;fill:none;fill-opacity:1;fill-rule: evenodd"/>
<path id="Shape2DView_nwe0217"  d="M -1.5100691371659998 0.0 A 0.705 0.498511 -90 0 1 -2.00858 -0.705" stroke="#191919" stroke-width="0.35 px" style="stroke-width:0.35;stroke-miterlimit:4;stroke-dasharray:none;fill:none;fill-opacity:1;fill-rule: evenodd"/>
<path id="Shape2DView_nwe0218"  d="M -2.008579994532426 -0.7049999999999998 L -2.072219531227076 -0.7049999999999998 " stroke="#191919" stroke-width="0.35 px" style="stroke-width:0.35;stroke-miterlimit:4;stroke-dasharray:none;fill:none;fill-opacity:1;fill-rule: evenodd"/>
<path id="Shape2DView_nwe0219"  d="M -2.072219531227 -0.705 L -2.072219531227001 -14.535 " stroke="#191919" stroke-width="0.35 px" style="stroke-width:0.35;stroke-miterlimit:4;stroke-dasharray:none;fill:none;fill-opacity:1;fill-rule: evenodd"/>
<path id="Shape2DView_nwe0220"  d="M -2.008579994532426 -14.535 L -2.072219531227076 -14.535 " stroke="#191919" stroke-width="0.35 px" style="stroke-width:0.35;stroke-miterlimit:4;stroke-dasharray:none;fill:none;fill-opacity:1;fill-rule: evenodd"/>
<path id="Shape2DView_nwe0221"  d="M -2.0085799945322576 -14.535000000000002 A 0.705 0.498511 -90 0 1 -1.51007 -15.24" stroke="#191919" stroke-width="0.35 px" style="stroke-width:0.35;stroke-miterlimit:4;stroke-dasharray:none;fill:none;fill-opacity:1;fill-rule: evenodd"/>
<path id="Shape2DView_nwe0222"  d="M -6.915 -0.7050000000000002 L -6.915 -0.6260650443471681 L -6.915 -0.5481227415607985 L -6.915 -0.4721532613216074 L -6.915 -0.39911196392212167 L -6.915 -0.3299173860566879 L -6.915 -0.26543968968959303 L -6.915 -0.20648971926348414 L -6.915 -0.153808804860039 L -6.915 -0.10805943954405972 L -6.915 -0.06981694812879458 L -6.915 -0.039562252132600895 L -6.915 -0.017675821911814382 L -6.915 -0.004432892025263979 L -6.915 0.0 " stroke="#191919" stroke-width="0.35 px" style="stroke-width:0.35;stroke-miterlimit:4;stroke-dasharray:none;fill:none;fill-opacity:1;fill-rule: evenodd"/>
<path id="Shape2DView_nwe0223"  d="M -6.915 -14.535 L -6.993934955652832 -14.535 L -7.071877258439201 -14.535 L -7.147846738678393 -14.535 L -7.220888036077878 -14.535 L -7.290082613943312 -14.535 L -7.354560310310407 -14.535 L -7.413510280736516 -14.535 L -7.466191195139961 -14.535 L -7.51194056045594 -14.535 L -7.550183051871206 -14.535 L -7.580437747867399 -14.535 L -7.602324178088185 -14.535 L -7.615567107974736 -14.535 L -7.62 -14.535 " stroke="#191919" stroke-width="0.35 px" style="stroke-width:0.35;stroke-miterlimit:4;stroke-dasharray:none;fill:none;fill-opacity:1;fill-rule: evenodd"/>
<path id="Shape2DView_nwe0224"  d="M -6.915 -0.7050000000000001 L -6.993934955652832 -0.7050000000000001 L -7.071877258439201 -0.7050000000000001 L -7.147846738678393 -0.7050000000000001 L -7.220888036077878 -0.7050000000000001 L -7.290082613943312 -0.705 L -7.354560310310407 -0.705 L -7.413510280736516 -0.705 L -7.466191195139961 -0.705 L -7.51194056045594 -0.705 L -7.550183051871206 -0.705 L -7.580437747867399 -0.705 L -7.602324178088185 -0.705 L -7.615567107974736 -0.705 L -7.62 -0.705 " stroke="#191919" stroke-width="0.35 px" style="stroke-width:0.35;stroke-miterlimit:4;stroke-dasharray:none;fill:none;fill-opacity:1;fill-rule: evenodd"/>
<path id="Shape2DView_nwe0225"  d="M -6.915 -14.535 L -6.915 -14.613934955652832 L -6.915 -14.691877258439202 L -6.915 -14.767846738678394 L -6.915 -14.840888036077878 L -6.915 -14.910082613943313 L -6.915 -14.974560310310407 L -6.915 -15.033510280736516 L -6.915 -15.08619119513996 L -6.915 -15.13194056045594 L -6.915 -15.170183051871206 L -6.915 -15.200437747867399 L -6.915 -15.222324178088186 L -6.915 -15.235567107974736 L -6.915 -15.24 " stroke="#191919" stroke-width="0.35 px" style="stroke-width:0.35;stroke-miterlimit:4;stroke-dasharray:none;fill:none;fill-opacity:1;fill-rule: evenodd"/>
<path id="Shape2DView_nwe0226"  d="M -2.2787086738599998 -0.7049999999999998 L -2.2775995817135737 -0.7049999999999998 L -2.274275794878237 -0.7049999999999998 L -2.26874777118626 -0.7049999999999998 L -2.261032903794131 -0.7049999999999998 L -2.251155466457411 -0.7049999999999998 L -2.2391465371567447 -0.7049999999999998 L -2.225043900315321 -0.705 L -2.2088919279154515 -0.705 L -2.190741439888307 -0.705 L -2.1706495442160865 -0.705 L -2.1486794572497026 -0.705 L -2.1249003048073414 -0.705 L -2.0993869046797053 -0.705 L -2.0722195312262577 -0.705 " stroke="#191919" stroke-width="0.35 px" style="stroke-width:0.35;stroke-miterlimit:4;stroke-dasharray:none;fill:none;fill-opacity:1;fill-rule: evenodd"/>
<path id="Shape2DView_nwe0227"  d="M -2.2787086738599998 -14.535000000000002 L -2.2775995817135737 -14.535000000000002 L -2.2742757948782373 -14.535000000000002 L -2.2687477711862605 -14.535000000000002 L -2.2610329037941317 -14.535000000000002 L -2.251155466457412 -14.535000000000002 L -2.2391465371567456 -14.535000000000002 L -2.225043900315322 -14.535000000000002 L -2.208891927915453 -14.535000000000002 L -2.190741439888309 -14.535000000000002 L -2.1706495442160887 -14.535000000000002 L -2.1486794572497048 -14.535000000000002 L -2.124900304807344 -14.535000000000002 L -2.099386904679708 -14.535000000000002 L -2.0722195312262577 -14.535000000000002 " stroke="#191919" stroke-width="0.35 px" style="stroke-width:0.35;stroke-miterlimit:4;stroke-dasharray:none;fill:none;fill-opacity:1;fill-rule: evenodd"/>
<path id="Shape2DView_nwe0228"  d="M 7.53383705534 -15.24 A 0.705 0.498511 90 0 1 7.65621 -15.2184" stroke="#191919" stroke-width="0.35 px" style="stroke-width:0.35;stroke-miterlimit:4;stroke-dasharray:none;fill:none;fill-opacity:1;fill-rule: evenodd"/>
<path id="Shape2DView_nwe0229"  d="M -1.5737086738599997 0.0 A 0.705 0.498511 -90 0 1 -2.07222 -0.705" stroke="#191919" stroke-width="0.35 px" style="stroke-width:0.35;stroke-miterlimit:4;stroke-dasharray:none;fill:none;fill-opacity:1;fill-rule: evenodd"/>
<path id="Shape2DView_nwe0230"  d="M -2.0722195312262572 -14.535000000000002 A 0.705 0.498511 -90 0 1 -1.57371 -15.24" stroke="#191919" stroke-width="0.35 px" style="stroke-width:0.35;stroke-miterlimit:4;stroke-dasharray:none;fill:none;fill-opacity:1;fill-rule: evenodd"/>
<path id="Shape2DView_nwe0231"  d="M 23.601429453246517 -2.205 Q 23.54313903914081 -1.6241625628986736 23.346106485418062 -1.5179860629554636 " stroke="#191919" stroke-width="0.35 px" style="stroke-width:0.35;stroke-miterlimit:4;stroke-dasharray:none;fill:none;fill-opacity:1;fill-rule: evenodd"/>
<path id="Shape2DView_nwe0232"  d="M 23.601429453246517 -13.035 Q 23.54313903914327 -13.615837437099993 23.346106485413202 -13.722013937047887 " stroke="#191919" stroke-width="0.35 px" style="stroke-width:0.35;stroke-miterlimit:4;stroke-dasharray:none;fill:none;fill-opacity:1;fill-rule: evenodd"/>
<path id="Shape2DView_nwe0233"  d="M 25.13870867386 -14.535 L 25.13870867386 -0.7050000000000001 " stroke="#191919" stroke-width="0.35 px" style="stroke-width:0.35;stroke-miterlimit:4;stroke-dasharray:none;fill:none;fill-opacity:1;fill-rule: evenodd"/>
<path id="Shape2DView_nwe0234"  d="M 23.601429453247 -13.034999999999998 L 23.601429453247 -2.205 " stroke="#191919" stroke-width="0.35 px" style="stroke-width:0.35;stroke-miterlimit:4;stroke-dasharray:none;fill:none;fill-opacity:1;fill-rule: evenodd"/>
<path id="Shape2DView_nwe0235"  d="M -0.48610648541781876 -1.5179860629552953 Q -0.6737991436725419 -1.604718966559041 -0.7414294532465151 -2.205 " stroke="#191919" stroke-width="0.35 px" style="stroke-width:0.35;stroke-miterlimit:4;stroke-dasharray:none;fill:none;fill-opacity:1;fill-rule: evenodd"/>
<path id="Shape2DView_nwe0236"  d="M -0.48610648541472257 -13.722013937046839 Q -0.6737991436690332 -13.635281033450541 -0.7414294532465151 -13.035 " stroke="#191919" stroke-width="0.35 px" style="stroke-width:0.35;stroke-miterlimit:4;stroke-dasharray:none;fill:none;fill-opacity:1;fill-rule: evenodd"/>
<path id="Shape2DView_nwe0237"  d="M 25.13870867386 -0.7050000000000031 A 0.705 0.705 0 0 1 24.4337 0" stroke="#191919" stroke-width="0.35 px" style="stroke-width:0.35;stroke-miterlimit:4;stroke-dasharray:none;fill:none;fill-opacity:1;fill-rule: evenodd"/>
<path id="Shape2DView_nwe0238"  d="M 24.433708673859996 -15.24 A 0.705 0.705 0 0 1 25.1387 -14.535" stroke="#191919" stroke-width="0.35 px" style="stroke-width:0.35;stroke-miterlimit:4;stroke-dasharray:none;fill:none;fill-opacity:1;fill-rule: evenodd"/>
<path id="Shape2DView_nwe0239"  d="M 14.62116294466 -0.7049999999999995 L 14.62116294466 -1.4999999999999887 " stroke="#191919" stroke-width="0.35 px" style="stroke-width:0.35;stroke-miterlimit:4;stroke-dasharray:none;fill:none;fill-opacity:1;fill-rule: evenodd"/>
<path id="Shape2DView_nwe0240"  d="M 14.62116294466 -13.73999999999999 L 14.62116294466 -14.534999999999997 " stroke="#191919" stroke-width="0.35 px" style="stroke-width:0.35;stroke-miterlimit:4;stroke-dasharray:none;fill:none;fill-opacity:1;fill-rule: evenodd"/>
<path id="Shape2DView_nwe0241"  d="M -0.7414294532469999 -2.205 L -0.7414294532470005 -13.035 " stroke="#191919" stroke-width="0.35 px" style="stroke-width:0.35;stroke-miterlimit:4;stroke-dasharray:none;fill:none;fill-opacity:1;fill-rule: evenodd"/>
<path id="Shape2DView_nwe0242"  d="M 15.32616294466 0.0 A 0.705 0.705 0 0 1 14.6212 -0.705" stroke="#191919" stroke-width="0.35 px" style="stroke-width:0.35;stroke-miterlimit:4;stroke-dasharray:none;fill:none;fill-opacity:1;fill-rule: evenodd"/>
<path id="Shape2DView_nwe0243"  d="M 14.62116294466 -14.534999999999998 A 0.705 0.705 0 0 1 15.3262 -15.24" stroke="#191919" stroke-width="0.35 px" style="stroke-width:0.35;stroke-miterlimit:4;stroke-dasharray:none;fill:none;fill-opacity:1;fill-rule: evenodd"/>
<path id="Shape2DView_nwe0244"  d="M 8.23883705534 -14.534999999999998 L 8.23883705534 -13.73999999999999 " stroke="#191919" stroke-width="0.35 px" style="stroke-width:0.35;stroke-miterlimit:4;stroke-dasharray:none;fill:none;fill-opacity:1;fill-rule: evenodd"/>
<path id="Shape2DView_nwe0245"  d="M 8.23883705534 -1.4999999999999893 L 8.23883705534 -0.7050000000000018 " stroke="#191919" stroke-width="0.35 px" style="stroke-width:0.35;stroke-miterlimit:4;stroke-dasharray:none;fill:none;fill-opacity:1;fill-rule: evenodd"/>
<path id="Shape2DView_nwe0246"  d="M 8.23883705534 -0.705000000000002 A 0.705 0.705 0 0 1 7.53384 0" stroke="#191919" stroke-width="0.35 px" style="stroke-width:0.35;stroke-miterlimit:4;stroke-dasharray:none;fill:none;fill-opacity:1;fill-rule: evenodd"/>
<path id="Shape2DView_nwe0247"  d="M 7.533837055340001 -15.24 A 0.705 0.705 0 0 1 8.23884 -14.535" stroke="#191919" stroke-width="0.35 px" style="stroke-width:0.35;stroke-miterlimit:4;stroke-dasharray:none;fill:none;fill-opacity:1;fill-rule: evenodd"/>
<path id="Shape2DView_nwe0248"  d="M -2.2787086738599998 -0.705 L -2.2787086738600006 -14.535000000000004 " stroke="#191919" stroke-width="0.35 px" style="stroke-width:0.35;stroke-miterlimit:4;stroke-dasharray:none;fill:none;fill-opacity:1;fill-rule: evenodd"/>
<path id="Shape2DView_nwe0249"  d="M -1.5737086738599997 0.0 A 0.705 0.705 0 0 1 -2.27871 -0.705" stroke="#191919" stroke-width="0.35 px" style="stroke-width:0.35;stroke-miterlimit:4;stroke-dasharray:none;fill:none;fill-opacity:1;fill-rule: evenodd"/>
<path id="Shape2DView_nwe0250"  d="M -2.2787086738599998 -14.535000000000004 A 0.705 0.705 0 0 1 -1.57371 -15.24" stroke="#191919" stroke-width="0.35 px" style="stroke-width:0.35;stroke-miterlimit:4;stroke-dasharray:none;fill:none;fill-opacity:1;fill-rule: evenodd"/>
<title>b'Shape2DView'</title>
</g>
<g id="Rectangle" transform="translate(8.001000,2.921000) scale(1,-1)">
<rect fill="#ff0000" id="origin" width="1" height="1" x="0" y="0" />
<title>b'Rectangle'</title>
</g>
</svg>