<?xml version="1.0"?>
<!DOCTYPE svg PUBLIC "-//W3C//DTD SVG 1.1//EN" "http://www.w3.org/Graphics/SVG/1.1/DTD/svg11.dtd">
<svg width="17.108216616093912mm" height="17.12183039704892mm" viewBox="0 0 17.108216616093912 17.12183039704892" xmlns="http://www.w3.org/2000/svg" version="1.1">
<g id="Shape2DView" transform="translate(2.825489,8.560915) scale(1,-1)">
<circle cx="5.715" cy="0.0" r="8.4" stroke="#191919" stroke-width="0.35 px" style="stroke-width:0.35;stroke-miterlimit:4;stroke-dasharray:none;fill:none"/>
<circle cx="5.715" cy="0.0" r="1.46" stroke="#191919" stroke-width="0.35 px" style="stroke-width:0.35;stroke-miterlimit:4;stroke-dasharray:none;fill:none"/>
<circle cx="5.715" cy="0.0" r="8.4" stroke="#191919" stroke-width="0.35 px" style="stroke-width:0.35;stroke-miterlimit:4;stroke-dasharray:none;fill:none"/>
<circle cx="5.715" cy="0.0" r="7.9" stroke="#191919" stroke-width="0.35 px" style="stroke-width:0.35;stroke-miterlimit:4;stroke-dasharray:none;fill:none"/>
<circle cx="5.715" cy="0.0" r="1.96" stroke="#191919" stroke-width="0.35 px" style="stroke-width:0.35;stroke-miterlimit:4;stroke-dasharray:none;fill:none"/>
<circle cx="5.715" cy="0.0" r="1.46" stroke="#191919" stroke-width="0.35 px" style="stroke-width:0.35;stroke-miterlimit:4;stroke-dasharray:none;fill:none"/>
<path id="Shape2DView_nwe0006"  d="M 14.115 0.0 L 14.111856104946622 0.0 L 14.102463956090912 0.0 L 14.086941665154184 0.0 L 14.06548443395121 0.0 L 14.038362099614142 0.0 L 14.005915741234015 0.0 L 13.968553390593273 0.0 L 13.926744900929368 0.0 L 13.881016038257668 0.0 L 13.83194186955878 0.0 L 13.780139530977584 0.0 L 13.726260466978157 0.0 L 13.670982238051653 0.0 L 13.615 0.0 " stroke="#191919" stroke-width="0.35 px" style="stroke-width:0.35;stroke-miterlimit:4;stroke-dasharray:none;fill:none;fill-opacity:1;fill-rule: evenodd"/>
<path id="Shape2DView_nwe0007"  d="M 7.175 0.0 L 7.1781438950533785 0.0 L 7.187536043909088 0.0 L 7.203058334845816 0.0 L 7.22451556604879 0.0 L 7.251637900385858 0.0 L 7.284084258765985 0.0 L 7.321446609406726 0.0 L 7.363255099070633 0.0 L 7.408983961742331 0.0 L 7.458058130441221 0.0 L 7.509860469022416 0.0 L 7.563739533021843 0.0 L 7.619017761948346 0.0 L 7.675 0.0 " stroke="#191919" stroke-width="0.35 px" style="stroke-width:0.35;stroke-miterlimit:4;stroke-dasharray:none;fill:none;fill-opacity:1;fill-rule: evenodd"/>
<title>b'Shape2DView'</title>
</g>
<g id="Rectangle" transform="translate(2.825489,8.560915) scale(1,-1)">
<rect fill="#ff0000" id="origin" width="1" height="1" x="0" y="0" />
<title>b'Rectangle'</title>
</g>
</svg>