<?xml version="1.0"?>
<!DOCTYPE svg PUBLIC "-//W3C//DTD SVG 1.1//EN" "http://www.w3.org/Graphics/SVG/1.1/DTD/svg11.dtd">
<svg width="17.108216616093912mm" height="17.12183039704892mm" viewBox="0 0 17.108216616093912 17.12183039704892" xmlns="http://www.w3.org/2000/svg" version="1.1">
<g id="Shape2DView" transform="translate(2.190489,8.560915) scale(1,-1)">
<circle cx="6.35" cy="0.0" r="1.46" stroke="#191919" stroke-width="0.35 px" style="stroke-width:0.35;stroke-miterlimit:4;stroke-dasharray:none;fill:none"/>
<circle cx="6.35" cy="0.0" r="8.4" stroke="#191919" stroke-width="0.35 px" style="stroke-width:0.35;stroke-miterlimit:4;stroke-dasharray:none;fill:none"/>
<circle cx="6.35" cy="0.0" r="1.46" stroke="#191919" stroke-width="0.35 px" style="stroke-width:0.35;stroke-miterlimit:4;stroke-dasharray:none;fill:none"/>
<circle cx="6.35" cy="0.0" r="8.4" stroke="#191919" stroke-width="0.35 px" style="stroke-width:0.35;stroke-miterlimit:4;stroke-dasharray:none;fill:none"/>
<circle cx="6.35" cy="0.0" r="1.96" stroke="#191919" stroke-width="0.35 px" style="stroke-width:0.35;stroke-miterlimit:4;stroke-dasharray:none;fill:none"/>
<circle cx="6.35" cy="0.0" r="7.9" stroke="#191919" stroke-width="0.35 px" style="stroke-width:0.35;stroke-miterlimit:4;stroke-dasharray:none;fill:none"/>
<path id="Shape2DView_nwe0006"  d="M 7.8100000000000005 0.0 L 7.813143895053379 0.0 L 7.822536043909088 0.0 L 7.838058334845817 0.0 L 7.859515566048791 0.0 L 7.886637900385859 0.0 L 7.919084258765985 0.0 L 7.9564466094067265 0.0 L 7.998255099070634 0.0 L 8.043983961742333 0.0 L 8.093058130441221 0.0 L 8.144860469022417 0.0 L 8.198739533021843 0.0 L 8.254017761948347 0.0 L 8.31 0.0 " stroke="#191919" stroke-width="0.35 px" style="stroke-width:0.35;stroke-miterlimit:4;stroke-dasharray:none;fill:none;fill-opacity:1;fill-rule: evenodd"/>
<path id="Shape2DView_nwe0007"  d="M 14.75 0.0 L 14.746856104946621 0.0 L 14.737463956090911 0.0 L 14.721941665154183 0.0 L 14.70048443395121 0.0 L 14.673362099614142 0.0 L 14.640915741234014 0.0 L 14.603553390593273 0.0 L 14.561744900929368 0.0 L 14.516016038257668 0.0 L 14.466941869558779 0.0 L 14.415139530977584 0.0 L 14.361260466978157 0.0 L 14.305982238051653 0.0 L 14.25 0.0 " stroke="#191919" stroke-width="0.35 px" style="stroke-width:0.35;stroke-miterlimit:4;stroke-dasharray:none;fill:none;fill-opacity:1;fill-rule: evenodd"/>
<title>b'Shape2DView'</title>
</g>
<g id="Rectangle" transform="translate(2.190489,8.560915) scale(1,-1)">
<rect fill="#ff0000" id="origin" width="1" height="1" x="0" y="0" />
<title>b'Rectangle'</title>
</g>
</svg>