<?xml version="1.0"?>
<!DOCTYPE svg PUBLIC "-//W3C//DTD SVG 1.1//EN" "http://www.w3.org/Graphics/SVG/1.1/DTD/svg11.dtd">
<svg width="21.385270770117387mm" height="21.40228799631115mm" viewBox="0 0 21.385270770117387 21.40228799631115" xmlns="http://www.w3.org/2000/svg" version="1.1">
<g id="Shape2DView" transform="translate(3.175611,10.701144) scale(1,-1)">
<circle cx="7.5" cy="0.0" r="10.5" stroke="#191919" stroke-width="0.35 px" style="stroke-width:0.35;stroke-miterlimit:4;stroke-dasharray:none;fill:none"/>
<circle cx="7.5" cy="0.0" r="1.46" stroke="#191919" stroke-width="0.35 px" style="stroke-width:0.35;stroke-miterlimit:4;stroke-dasharray:none;fill:none"/>
<circle cx="7.5" cy="0.0" r="10.5" stroke="#191919" stroke-width="0.35 px" style="stroke-width:0.35;stroke-miterlimit:4;stroke-dasharray:none;fill:none"/>
<circle cx="7.5" cy="0.0" r="10.0" stroke="#191919" stroke-width="0.35 px" style="stroke-width:0.35;stroke-miterlimit:4;stroke-dasharray:none;fill:none"/>
<circle cx="7.5" cy="0.0" r="1.96" stroke="#191919" stroke-width="0.35 px" style="stroke-width:0.35;stroke-miterlimit:4;stroke-dasharray:none;fill:none"/>
<circle cx="7.5" cy="0.0" r="1.46" stroke="#191919" stroke-width="0.35 px" style="stroke-width:0.35;stroke-miterlimit:4;stroke-dasharray:none;fill:none"/>
<path id="Shape2DView_nwe0006"  d="M 18.0 0.0 L 17.99685610494662 0.0 L 17.987463956090913 0.0 L 17.971941665154183 0.0 L 17.95048443395121 0.0 L 17.923362099614142 0.0 L 17.890915741234014 0.0 L 17.853553390593273 0.0 L 17.811744900929366 0.0 L 17.766016038257668 0.0 L 17.71694186955878 0.0 L 17.665139530977584 0.0 L 17.61126046697816 0.0 L 17.555982238051655 0.0 L 17.5 0.0 " stroke="#191919" stroke-width="0.35 px" style="stroke-width:0.35;stroke-miterlimit:4;stroke-dasharray:none;fill:none;fill-opacity:1;fill-rule: evenodd"/>
<path id="Shape2DView_nwe0007"  d="M 8.96 0.0 L 8.96314389505338 0.0 L 8.97253604390909 0.0 L 8.988058334845817 0.0 L 9.00951556604879 0.0 L 9.036637900385859 0.0 L 9.069084258765987 0.0 L 9.106446609406728 0.0 L 9.148255099070633 0.0 L 9.193983961742333 0.0 L 9.243058130441222 0.0 L 9.294860469022417 0.0 L 9.348739533021844 0.0 L 9.404017761948348 0.0 L 9.46 0.0 " stroke="#191919" stroke-width="0.35 px" style="stroke-width:0.35;stroke-miterlimit:4;stroke-dasharray:none;fill:none;fill-opacity:1;fill-rule: evenodd"/>
<title>b'Shape2DView'</title>
</g>
<g id="Rectangle" transform="translate(3.175611,10.701144) scale(1,-1)">
<rect fill="#ff0000" id="origin" width="1" height="1" x="0" y="0" />
<title>b'Rectangle'</title>
</g>
</svg>