<?xml version="1.0"?>
<!DOCTYPE svg PUBLIC "-//W3C//DTD SVG 1.1//EN" "http://www.w3.org/Graphics/SVG/1.1/DTD/svg11.dtd">
<svg width="28.411859737441674mm" height="28.43446833795624mm" viewBox="0 0 28.411859737441674 28.43446833795624" xmlns="http://www.w3.org/2000/svg" version="1.1">
<g id="Shape2DView" transform="translate(5.038312,14.217234) scale(1,-1)">
<circle cx="9.145" cy="0.0" r="13.95" stroke="#191919" stroke-width="0.35 px" style="stroke-width:0.35;stroke-miterlimit:4;stroke-dasharray:none;fill:none"/>
<circle cx="9.145" cy="0.0" r="1.46" stroke="#191919" stroke-width="0.35 px" style="stroke-width:0.35;stroke-miterlimit:4;stroke-dasharray:none;fill:none"/>
<circle cx="9.145" cy="0.0" r="13.95" stroke="#191919" stroke-width="0.35 px" style="stroke-width:0.35;stroke-miterlimit:4;stroke-dasharray:none;fill:none"/>
<circle cx="9.145" cy="0.0" r="13.45" stroke="#191919" stroke-width="0.35 px" style="stroke-width:0.35;stroke-miterlimit:4;stroke-dasharray:none;fill:none"/>
<circle cx="9.145" cy="0.0" r="1.96" stroke="#191919" stroke-width="0.35 px" style="stroke-width:0.35;stroke-miterlimit:4;stroke-dasharray:none;fill:none"/>
<circle cx="9.145" cy="0.0" r="1.46" stroke="#191919" stroke-width="0.35 px" style="stroke-width:0.35;stroke-miterlimit:4;stroke-dasharray:none;fill:none"/>
<path id="Shape2DView_nwe0006"  d="M 23.095 0.0 L 23.09185610494662 0.0 L 23.082463956090912 0.0 L 23.066941665154182 0.0 L 23.04548443395121 0.0 L 23.01836209961414 0.0 L 22.985915741234013 0.0 L 22.948553390593272 0.0 L 22.906744900929365 0.0 L 22.861016038257667 0.0 L 22.81194186955878 0.0 L 22.760139530977582 0.0 L 22.706260466978158 0.0 L 22.650982238051654 0.0 L 22.595 0.0 " stroke="#191919" stroke-width="0.35 px" style="stroke-width:0.35;stroke-miterlimit:4;stroke-dasharray:none;fill:none;fill-opacity:1;fill-rule: evenodd"/>
<path id="Shape2DView_nwe0007"  d="M 10.605 0.0 L 10.608143895053379 0.0 L 10.61753604390909 0.0 L 10.633058334845817 0.0 L 10.65451556604879 0.0 L 10.681637900385859 0.0 L 10.714084258765986 0.0 L 10.751446609406727 0.0 L 10.793255099070633 0.0 L 10.838983961742333 0.0 L 10.888058130441221 0.0 L 10.939860469022417 0.0 L 10.993739533021843 0.0 L 11.049017761948347 0.0 L 11.105 0.0 " stroke="#191919" stroke-width="0.35 px" style="stroke-width:0.35;stroke-miterlimit:4;stroke-dasharray:none;fill:none;fill-opacity:1;fill-rule: evenodd"/>
<title>b'Shape2DView'</title>
</g>
<g id="Rectangle" transform="translate(5.038312,14.217234) scale(1,-1)">
<rect fill="#ff0000" id="origin" width="1" height="1" x="0" y="0" />
<title>b'Rectangle'</title>
</g>
</svg>