<?xml version="1.0"?>
<!DOCTYPE svg PUBLIC "-//W3C//DTD SVG 1.1//EN" "http://www.w3.org/Graphics/SVG/1.1/DTD/svg11.dtd">
<svg width="24.847647942422107mm" height="24.867420338571048mm" viewBox="0 0 24.847647942422107 24.867420338571048" xmlns="http://www.w3.org/2000/svg" version="1.1">
<g id="Shape2DView" transform="translate(0.954044,12.433710) scale(1,-1)">
<circle cx="11.45" cy="0.0" r="12.2" stroke="#191919" stroke-width="0.35 px" style="stroke-width:0.35;stroke-miterlimit:4;stroke-dasharray:none;fill:none"/>
<circle cx="11.45" cy="0.0" r="2.75" stroke="#191919" stroke-width="0.35 px" style="stroke-width:0.35;stroke-miterlimit:4;stroke-dasharray:none;fill:none"/>
<circle cx="11.45" cy="0.0" r="12.2" stroke="#191919" stroke-width="0.35 px" style="stroke-width:0.35;stroke-miterlimit:4;stroke-dasharray:none;fill:none"/>
<circle cx="11.45" cy="0.0" r="11.7" stroke="#191919" stroke-width="0.35 px" style="stroke-width:0.35;stroke-miterlimit:4;stroke-dasharray:none;fill:none"/>
<circle cx="11.45" cy="0.0" r="3.25" stroke="#191919" stroke-width="0.35 px" style="stroke-width:0.35;stroke-miterlimit:4;stroke-dasharray:none;fill:none"/>
<circle cx="11.45" cy="0.0" r="2.75" stroke="#191919" stroke-width="0.35 px" style="stroke-width:0.35;stroke-miterlimit:4;stroke-dasharray:none;fill:none"/>
<path id="Shape2DView_nwe0006"  d="M 23.65 0.0 L 23.646856104946618 0.0 L 23.63746395609091 0.0 L 23.621941665154182 0.0 L 23.60048443395121 0.0 L 23.57336209961414 0.0 L 23.540915741234013 0.0 L 23.50355339059327 0.0 L 23.461744900929364 0.0 L 23.416016038257666 0.0 L 23.36694186955878 0.0 L 23.315139530977582 0.0 L 23.261260466978158 0.0 L 23.205982238051654 0.0 L 23.15 0.0 " stroke="#191919" stroke-width="0.35 px" style="stroke-width:0.35;stroke-miterlimit:4;stroke-dasharray:none;fill:none;fill-opacity:1;fill-rule: evenodd"/>
<path id="Shape2DView_nwe0007"  d="M 14.2 0.0 L 14.203143895053378 0.0 L 14.212536043909088 0.0 L 14.228058334845816 0.0 L 14.249515566048789 0.0 L 14.276637900385857 0.0 L 14.309084258765985 0.0 L 14.346446609406726 0.0 L 14.388255099070632 0.0 L 14.433983961742332 0.0 L 14.48305813044122 0.0 L 14.534860469022416 0.0 L 14.588739533021842 0.0 L 14.644017761948346 0.0 L 14.7 0.0 " stroke="#191919" stroke-width="0.35 px" style="stroke-width:0.35;stroke-miterlimit:4;stroke-dasharray:none;fill:none;fill-opacity:1;fill-rule: evenodd"/>
<title>b'Shape2DView'</title>
</g>
<g id="Rectangle" transform="translate(0.954044,12.433710) scale(1,-1)">
<rect fill="#ff0000" id="origin" width="1" height="1" x="0" y="0" />
<title>b'Rectangle'</title>
</g>
</svg>