<?xml version="1.0"?>
<!DOCTYPE svg PUBLIC "-//W3C//DTD SVG 1.1//EN" "http://www.w3.org/Graphics/SVG/1.1/DTD/svg11.dtd">
<svg width="13.821000000000002mm" height="51.111000000000004mm" viewBox="0 0 13.821000000000002 51.111000000000004" xmlns="http://www.w3.org/2000/svg" version="1.1">
<g id="Shape2DView" transform="translate(0.455500,5.235500) scale(1,-1)">
<path id="Shape2DView_nwe0000"  d="M 4.38 5.1 L 13.23 5.1 " stroke="#191919" stroke-width="0.35 px" style="stroke-width:0.35;stroke-miterlimit:4;stroke-dasharray:none;fill:none;fill-opacity:1;fill-rule: evenodd"/>
<path id="Shape2DView_nwe0001"  d="M 4.38 5.1 L 4.38 -45.74 " stroke="#191919" stroke-width="0.35 px" style="stroke-width:0.35;stroke-miterlimit:4;stroke-dasharray:none;fill:none;fill-opacity:1;fill-rule: evenodd"/>
<path id="Shape2DView_nwe0002"  d="M 4.38 -45.74 L 13.23 -45.74 " stroke="#191919" stroke-width="0.35 px" style="stroke-width:0.35;stroke-miterlimit:4;stroke-dasharray:none;fill:none;fill-opacity:1;fill-rule: evenodd"/>
<path id="Shape2DView_nwe0003"  d="M 13.23 -22.57 L 13.23 -45.74 " stroke="#191919" stroke-width="0.35 px" style="stroke-width:0.35;stroke-miterlimit:4;stroke-dasharray:none;fill:none;fill-opacity:1;fill-rule: evenodd"/>
<path id="Shape2DView_nwe0004"  d="M 13.23 -22.57 L 6.23 -22.57 " stroke="#191919" stroke-width="0.35 px" style="stroke-width:0.35;stroke-miterlimit:4;stroke-dasharray:none;fill:none;fill-opacity:1;fill-rule: evenodd"/>
<path id="Shape2DView_nwe0005"  d="M 6.23 -22.57 L 6.23 -18.07 " stroke="#191919" stroke-width="0.35 px" style="stroke-width:0.35;stroke-miterlimit:4;stroke-dasharray:none;fill:none;fill-opacity:1;fill-rule: evenodd"/>
<path id="Shape2DView_nwe0006"  d="M 6.23 -18.07 L 13.23 -18.07 " stroke="#191919" stroke-width="0.35 px" style="stroke-width:0.35;stroke-miterlimit:4;stroke-dasharray:none;fill:none;fill-opacity:1;fill-rule: evenodd"/>
<path id="Shape2DView_nwe0007"  d="M 13.23 5.1 L 13.23 -18.07 " stroke="#191919" stroke-width="0.35 px" style="stroke-width:0.35;stroke-miterlimit:4;stroke-dasharray:none;fill:none;fill-opacity:1;fill-rule: evenodd"/>
<path id="Shape2DView_nwe0008"  d="M 13.23 -22.57 L 13.23 -18.07 " stroke="#191919" stroke-width="0.35 px" style="stroke-width:0.35;stroke-miterlimit:4;stroke-dasharray:none;fill:none;fill-opacity:1;fill-rule: evenodd"/>
<path id="Shape2DView_nwe0009"  d="M 6.73 -18.07 L 6.73 -22.57 " stroke="#191919" stroke-width="0.35 px" style="stroke-width:0.35;stroke-miterlimit:4;stroke-dasharray:none;fill:none;fill-opacity:1;fill-rule: evenodd"/>
<path id="Shape2DView_nwe0010"  d="M 4.38 -40.32 L 0.32 -40.32 " stroke="#191919" stroke-width="0.35 px" style="stroke-width:0.35;stroke-miterlimit:4;stroke-dasharray:none;fill:none;fill-opacity:1;fill-rule: evenodd"/>
<path id="Shape2DView_nwe0011"  d="M 0.32000000000000006 -40.32 L 0.24834273529388307 -40.32 L 0.17758660226795886 -40.32 L 0.10862140034869316 -40.32 L 0.04231440696476285 -40.32 L -0.020500528969815357 -40.32 L -0.07903347318958936 -40.32 L -0.13254833995939036 -40.32 L -0.18037214877953905 -40.32 L -0.22190348750610184 -40.32 L -0.2566200754575482 -40.32 L -0.2840853313973552 -40.32 L -0.3039538637963671 -40.32 L -0.31597581433167526 -40.32 L -0.32 -40.32 " stroke="#191919" stroke-width="0.35 px" style="stroke-width:0.35;stroke-miterlimit:4;stroke-dasharray:none;fill:none;fill-opacity:1;fill-rule: evenodd"/>
<path id="Shape2DView_nwe0012"  d="M 0.32 -40.96 L 4.38 -40.96 " stroke="#191919" stroke-width="0.35 px" style="stroke-width:0.35;stroke-miterlimit:4;stroke-dasharray:none;fill:none;fill-opacity:1;fill-rule: evenodd"/>
<path id="Shape2DView_nwe0013"  d="M 0.32000000000000006 -40.96 L 0.24834273529388307 -40.96 L 0.17758660226795886 -40.96 L 0.10862140034869316 -40.96 L 0.04231440696476285 -40.96 L -0.020500528969815357 -40.96 L -0.07903347318958936 -40.96 L -0.13254833995939036 -40.96 L -0.18037214877953905 -40.96 L -0.22190348750610184 -40.96 L -0.2566200754575482 -40.96 L -0.2840853313973552 -40.96 L -0.3039538637963671 -40.96 L -0.31597581433167526 -40.96 L -0.32 -40.96 " stroke="#191919" stroke-width="0.35 px" style="stroke-width:0.35;stroke-miterlimit:4;stroke-dasharray:none;fill:none;fill-opacity:1;fill-rule: evenodd"/>
<path id="Shape2DView_nwe0014"  d="M 4.38 -37.78 L 0.32 -37.78 " stroke="#191919" stroke-width="0.35 px" style="stroke-width:0.35;stroke-miterlimit:4;stroke-dasharray:none;fill:none;fill-opacity:1;fill-rule: evenodd"/>
<path id="Shape2DView_nwe0015"  d="M 0.32000000000000006 -37.78 L 0.24834273529388307 -37.78 L 0.17758660226795886 -37.78 L 0.10862140034869316 -37.78 L 0.04231440696476285 -37.78 L -0.020500528969815357 -37.78 L -0.07903347318958936 -37.78 L -0.13254833995939036 -37.78 L -0.18037214877953905 -37.78 L -0.22190348750610184 -37.78 L -0.2566200754575482 -37.78 L -0.2840853313973552 -37.78 L -0.3039538637963671 -37.78 L -0.31597581433167526 -37.78 L -0.32 -37.78 " stroke="#191919" stroke-width="0.35 px" style="stroke-width:0.35;stroke-miterlimit:4;stroke-dasharray:none;fill:none;fill-opacity:1;fill-rule: evenodd"/>
<path id="Shape2DView_nwe0016"  d="M 0.32 -38.42 L 4.38 -38.42 " stroke="#191919" stroke-width="0.35 px" style="stroke-width:0.35;stroke-miterlimit:4;stroke-dasharray:none;fill:none;fill-opacity:1;fill-rule: evenodd"/>
<path id="Shape2DView_nwe0017"  d="M 0.32000000000000006 -38.42 L 0.24834273529388307 -38.42 L 0.17758660226795886 -38.42 L 0.10862140034869316 -38.42 L 0.04231440696476285 -38.42 L -0.020500528969815357 -38.42 L -0.07903347318958936 -38.42 L -0.13254833995939036 -38.42 L -0.18037214877953905 -38.42 L -0.22190348750610184 -38.42 L -0.2566200754575482 -38.42 L -0.2840853313973552 -38.42 L -0.3039538637963671 -38.42 L -0.31597581433167526 -38.42 L -0.32 -38.42 " stroke="#191919" stroke-width="0.35 px" style="stroke-width:0.35;stroke-miterlimit:4;stroke-dasharray:none;fill:none;fill-opacity:1;fill-rule: evenodd"/>
<path id="Shape2DView_nwe0018"  d="M 0.32 -33.34 L 4.38 -33.34 " stroke="#191919" stroke-width="0.35 px" style="stroke-width:0.35;stroke-miterlimit:4;stroke-dasharray:none;fill:none;fill-opacity:1;fill-rule: evenodd"/>
<path id="Shape2DView_nwe0019"  d="M 0.32000000000000006 -33.34 L 0.24834273529388307 -33.34 L 0.17758660226795886 -33.34 L 0.10862140034869316 -33.34 L 0.04231440696476285 -33.34 L -0.020500528969815357 -33.34 L -0.07903347318958936 -33.34 L -0.13254833995939036 -33.34 L -0.18037214877953905 -33.34 L -0.22190348750610184 -33.34 L -0.2566200754575482 -33.34 L -0.2840853313973552 -33.34 L -0.3039538637963671 -33.34 L -0.31597581433167526 -33.34 L -0.32 -33.34 " stroke="#191919" stroke-width="0.35 px" style="stroke-width:0.35;stroke-miterlimit:4;stroke-dasharray:none;fill:none;fill-opacity:1;fill-rule: evenodd"/>
<path id="Shape2DView_nwe0020"  d="M 4.38 -32.7 L 0.32 -32.7 " stroke="#191919" stroke-width="0.35 px" style="stroke-width:0.35;stroke-miterlimit:4;stroke-dasharray:none;fill:none;fill-opacity:1;fill-rule: evenodd"/>
<path id="Shape2DView_nwe0021"  d="M 0.32000000000000006 -32.7 L 0.24834273529388307 -32.7 L 0.17758660226795886 -32.7 L 0.10862140034869316 -32.7 L 0.04231440696476285 -32.7 L -0.020500528969815357 -32.7 L -0.07903347318958936 -32.7 L -0.13254833995939036 -32.7 L -0.18037214877953905 -32.7 L -0.22190348750610184 -32.7 L -0.2566200754575482 -32.7 L -0.2840853313973552 -32.7 L -0.3039538637963671 -32.7 L -0.31597581433167526 -32.7 L -0.32 -32.7 " stroke="#191919" stroke-width="0.35 px" style="stroke-width:0.35;stroke-miterlimit:4;stroke-dasharray:none;fill:none;fill-opacity:1;fill-rule: evenodd"/>
<path id="Shape2DView_nwe0022"  d="M 4.38 -35.24 L 0.32 -35.24 " stroke="#191919" stroke-width="0.35 px" style="stroke-width:0.35;stroke-miterlimit:4;stroke-dasharray:none;fill:none;fill-opacity:1;fill-rule: evenodd"/>
<path id="Shape2DView_nwe0023"  d="M 0.32000000000000006 -35.24 L 0.24834273529388307 -35.24 L 0.17758660226795886 -35.24 L 0.10862140034869316 -35.24 L 0.04231440696476285 -35.24 L -0.020500528969815357 -35.24 L -0.07903347318958936 -35.24 L -0.13254833995939036 -35.24 L -0.18037214877953905 -35.24 L -0.22190348750610184 -35.24 L -0.2566200754575482 -35.24 L -0.2840853313973552 -35.24 L -0.3039538637963671 -35.24 L -0.31597581433167526 -35.24 L -0.32 -35.24 " stroke="#191919" stroke-width="0.35 px" style="stroke-width:0.35;stroke-miterlimit:4;stroke-dasharray:none;fill:none;fill-opacity:1;fill-rule: evenodd"/>
<path id="Shape2DView_nwe0024"  d="M 0.32 -35.88 L 4.38 -35.88 " stroke="#191919" stroke-width="0.35 px" style="stroke-width:0.35;stroke-miterlimit:4;stroke-dasharray:none;fill:none;fill-opacity:1;fill-rule: evenodd"/>
<path id="Shape2DView_nwe0025"  d="M 0.32000000000000006 -35.88 L 0.24834273529388307 -35.88 L 0.17758660226795886 -35.88 L 0.10862140034869316 -35.88 L 0.04231440696476285 -35.88 L -0.020500528969815357 -35.88 L -0.07903347318958936 -35.88 L -0.13254833995939036 -35.88 L -0.18037214877953905 -35.88 L -0.22190348750610184 -35.88 L -0.2566200754575482 -35.88 L -0.2840853313973552 -35.88 L -0.3039538637963671 -35.88 L -0.31597581433167526 -35.88 L -0.32 -35.88 " stroke="#191919" stroke-width="0.35 px" style="stroke-width:0.35;stroke-miterlimit:4;stroke-dasharray:none;fill:none;fill-opacity:1;fill-rule: evenodd"/>
<path id="Shape2DView_nwe0026"  d="M 0.32 -28.26 L 4.38 -28.26 " stroke="#191919" stroke-width="0.35 px" style="stroke-width:0.35;stroke-miterlimit:4;stroke-dasharray:none;fill:none;fill-opacity:1;fill-rule: evenodd"/>
<path id="Shape2DView_nwe0027"  d="M 0.32000000000000006 -28.26 L 0.24834273529388307 -28.26 L 0.17758660226795886 -28.26 L 0.10862140034869316 -28.26 L 0.04231440696476285 -28.26 L -0.020500528969815357 -28.26 L -0.07903347318958936 -28.26 L -0.13254833995939036 -28.26 L -0.18037214877953905 -28.26 L -0.22190348750610184 -28.26 L -0.2566200754575482 -28.26 L -0.2840853313973552 -28.26 L -0.3039538637963671 -28.26 L -0.31597581433167526 -28.26 L -0.32 -28.26 " stroke="#191919" stroke-width="0.35 px" style="stroke-width:0.35;stroke-miterlimit:4;stroke-dasharray:none;fill:none;fill-opacity:1;fill-rule: evenodd"/>
<path id="Shape2DView_nwe0028"  d="M 4.38 -27.62 L 0.32 -27.62 " stroke="#191919" stroke-width="0.35 px" style="stroke-width:0.35;stroke-miterlimit:4;stroke-dasharray:none;fill:none;fill-opacity:1;fill-rule: evenodd"/>
<path id="Shape2DView_nwe0029"  d="M 0.32000000000000006 -27.62 L 0.24834273529388307 -27.62 L 0.17758660226795886 -27.62 L 0.10862140034869316 -27.62 L 0.04231440696476285 -27.62 L -0.020500528969815357 -27.62 L -0.07903347318958936 -27.62 L -0.13254833995939036 -27.62 L -0.18037214877953905 -27.62 L -0.22190348750610184 -27.62 L -0.2566200754575482 -27.62 L -0.2840853313973552 -27.62 L -0.3039538637963671 -27.62 L -0.31597581433167526 -27.62 L -0.32 -27.62 " stroke="#191919" stroke-width="0.35 px" style="stroke-width:0.35;stroke-miterlimit:4;stroke-dasharray:none;fill:none;fill-opacity:1;fill-rule: evenodd"/>
<path id="Shape2DView_nwe0030"  d="M 4.38 -30.16 L 0.32 -30.16 " stroke="#191919" stroke-width="0.35 px" style="stroke-width:0.35;stroke-miterlimit:4;stroke-dasharray:none;fill:none;fill-opacity:1;fill-rule: evenodd"/>
<path id="Shape2DView_nwe0031"  d="M 0.32000000000000006 -30.16 L 0.24834273529388307 -30.16 L 0.17758660226795886 -30.16 L 0.10862140034869316 -30.16 L 0.04231440696476285 -30.16 L -0.020500528969815357 -30.16 L -0.07903347318958936 -30.16 L -0.13254833995939036 -30.16 L -0.18037214877953905 -30.16 L -0.22190348750610184 -30.16 L -0.2566200754575482 -30.16 L -0.2840853313973552 -30.16 L -0.3039538637963671 -30.16 L -0.31597581433167526 -30.16 L -0.32 -30.16 " stroke="#191919" stroke-width="0.35 px" style="stroke-width:0.35;stroke-miterlimit:4;stroke-dasharray:none;fill:none;fill-opacity:1;fill-rule: evenodd"/>
<path id="Shape2DView_nwe0032"  d="M 0.32 -30.8 L 4.38 -30.8 " stroke="#191919" stroke-width="0.35 px" style="stroke-width:0.35;stroke-miterlimit:4;stroke-dasharray:none;fill:none;fill-opacity:1;fill-rule: evenodd"/>
<path id="Shape2DView_nwe0033"  d="M 0.32000000000000006 -30.8 L 0.24834273529388307 -30.8 L 0.17758660226795886 -30.8 L 0.10862140034869316 -30.8 L 0.04231440696476285 -30.8 L -0.020500528969815357 -30.8 L -0.07903347318958936 -30.8 L -0.13254833995939036 -30.8 L -0.18037214877953905 -30.8 L -0.22190348750610184 -30.8 L -0.2566200754575482 -30.8 L -0.2840853313973552 -30.8 L -0.3039538637963671 -30.8 L -0.31597581433167526 -30.8 L -0.32 -30.8 " stroke="#191919" stroke-width="0.35 px" style="stroke-width:0.35;stroke-miterlimit:4;stroke-dasharray:none;fill:none;fill-opacity:1;fill-rule: evenodd"/>
<path id="Shape2DView_nwe0034"  d="M 0.32 -20.64 L 4.13 -20.64 " stroke="#191919" stroke-width="0.35 px" style="stroke-width:0.35;stroke-miterlimit:4;stroke-dasharray:none;fill:none;fill-opacity:1;fill-rule: evenodd"/>
<path id="Shape2DView_nwe0035"  d="M 4.13 -20.0 L 0.32 -20.0 " stroke="#191919" stroke-width="0.35 px" style="stroke-width:0.35;stroke-miterlimit:4;stroke-dasharray:none;fill:none;fill-opacity:1;fill-rule: evenodd"/>
<path id="Shape2DView_nwe0036"  d="M 0.32000000000000006 -20.0 L 0.24834273529388307 -20.0 L 0.17758660226795886 -20.0 L 0.10862140034869316 -20.0 L 0.04231440696476285 -20.0 L -0.020500528969815357 -20.0 L -0.07903347318958936 -20.0 L -0.13254833995939036 -20.0 L -0.18037214877953905 -20.0 L -0.22190348750610184 -20.0 L -0.2566200754575482 -20.0 L -0.2840853313973552 -20.0 L -0.3039538637963671 -20.0 L -0.31597581433167526 -20.0 L -0.32 -20.0 " stroke="#191919" stroke-width="0.35 px" style="stroke-width:0.35;stroke-miterlimit:4;stroke-dasharray:none;fill:none;fill-opacity:1;fill-rule: evenodd"/>
<path id="Shape2DView_nwe0037"  d="M 0.32000000000000006 -20.64 L 0.24834273529388307 -20.64 L 0.17758660226795886 -20.64 L 0.10862140034869316 -20.64 L 0.04231440696476285 -20.64 L -0.020500528969815357 -20.64 L -0.07903347318958936 -20.64 L -0.13254833995939036 -20.64 L -0.18037214877953905 -20.64 L -0.22190348750610184 -20.64 L -0.2566200754575482 -20.64 L -0.2840853313973552 -20.64 L -0.3039538637963671 -20.64 L -0.31597581433167526 -20.64 L -0.32 -20.64 " stroke="#191919" stroke-width="0.35 px" style="stroke-width:0.35;stroke-miterlimit:4;stroke-dasharray:none;fill:none;fill-opacity:1;fill-rule: evenodd"/>
<path id="Shape2DView_nwe0038"  d="M 0.32 -23.18 L 4.38 -23.18 " stroke="#191919" stroke-width="0.35 px" style="stroke-width:0.35;stroke-miterlimit:4;stroke-dasharray:none;fill:none;fill-opacity:1;fill-rule: evenodd"/>
<path id="Shape2DView_nwe0039"  d="M 0.32000000000000006 -23.18 L 0.24834273529388307 -23.18 L 0.17758660226795886 -23.18 L 0.10862140034869316 -23.18 L 0.04231440696476285 -23.18 L -0.020500528969815357 -23.18 L -0.07903347318958936 -23.18 L -0.13254833995939036 -23.18 L -0.18037214877953905 -23.18 L -0.22190348750610184 -23.18 L -0.2566200754575482 -23.18 L -0.2840853313973552 -23.18 L -0.3039538637963671 -23.18 L -0.31597581433167526 -23.18 L -0.32 -23.18 " stroke="#191919" stroke-width="0.35 px" style="stroke-width:0.35;stroke-miterlimit:4;stroke-dasharray:none;fill:none;fill-opacity:1;fill-rule: evenodd"/>
<path id="Shape2DView_nwe0040"  d="M 4.38 -22.54 L 0.32 -22.54 " stroke="#191919" stroke-width="0.35 px" style="stroke-width:0.35;stroke-miterlimit:4;stroke-dasharray:none;fill:none;fill-opacity:1;fill-rule: evenodd"/>
<path id="Shape2DView_nwe0041"  d="M 0.32000000000000006 -22.54 L 0.24834273529388307 -22.54 L 0.17758660226795886 -22.54 L 0.10862140034869316 -22.54 L 0.04231440696476285 -22.54 L -0.020500528969815357 -22.54 L -0.07903347318958936 -22.54 L -0.13254833995939036 -22.54 L -0.18037214877953905 -22.54 L -0.22190348750610184 -22.54 L -0.2566200754575482 -22.54 L -0.2840853313973552 -22.54 L -0.3039538637963671 -22.54 L -0.31597581433167526 -22.54 L -0.32 -22.54 " stroke="#191919" stroke-width="0.35 px" style="stroke-width:0.35;stroke-miterlimit:4;stroke-dasharray:none;fill:none;fill-opacity:1;fill-rule: evenodd"/>
<path id="Shape2DView_nwe0042"  d="M 0.32 -25.72 L 4.38 -25.72 " stroke="#191919" stroke-width="0.35 px" style="stroke-width:0.35;stroke-miterlimit:4;stroke-dasharray:none;fill:none;fill-opacity:1;fill-rule: evenodd"/>
<path id="Shape2DView_nwe0043"  d="M 4.38 -25.08 L 0.32 -25.08 " stroke="#191919" stroke-width="0.35 px" style="stroke-width:0.35;stroke-miterlimit:4;stroke-dasharray:none;fill:none;fill-opacity:1;fill-rule: evenodd"/>
<path id="Shape2DView_nwe0044"  d="M 0.32000000000000006 -25.08 L 0.24834273529388307 -25.08 L 0.17758660226795886 -25.08 L 0.10862140034869316 -25.08 L 0.04231440696476285 -25.08 L -0.020500528969815357 -25.08 L -0.07903347318958936 -25.08 L -0.13254833995939036 -25.08 L -0.18037214877953905 -25.08 L -0.22190348750610184 -25.08 L -0.2566200754575482 -25.08 L -0.2840853313973552 -25.08 L -0.3039538637963671 -25.08 L -0.31597581433167526 -25.08 L -0.32 -25.08 " stroke="#191919" stroke-width="0.35 px" style="stroke-width:0.35;stroke-miterlimit:4;stroke-dasharray:none;fill:none;fill-opacity:1;fill-rule: evenodd"/>
<path id="Shape2DView_nwe0045"  d="M 0.32000000000000006 -25.72 L 0.24834273529388307 -25.72 L 0.17758660226795886 -25.72 L 0.10862140034869316 -25.72 L 0.04231440696476285 -25.72 L -0.020500528969815357 -25.72 L -0.07903347318958936 -25.72 L -0.13254833995939036 -25.72 L -0.18037214877953905 -25.72 L -0.22190348750610184 -25.72 L -0.2566200754575482 -25.72 L -0.2840853313973552 -25.72 L -0.3039538637963671 -25.72 L -0.31597581433167526 -25.72 L -0.32 -25.72 " stroke="#191919" stroke-width="0.35 px" style="stroke-width:0.35;stroke-miterlimit:4;stroke-dasharray:none;fill:none;fill-opacity:1;fill-rule: evenodd"/>
<path id="Shape2DView_nwe0046"  d="M 4.38 0.32 L 0.32 0.32 " stroke="#191919" stroke-width="0.35 px" style="stroke-width:0.35;stroke-miterlimit:4;stroke-dasharray:none;fill:none;fill-opacity:1;fill-rule: evenodd"/>
<path id="Shape2DView_nwe0047"  d="M 0.32000000000000006 0.32 L 0.24834273529388307 0.32 L 0.17758660226795886 0.32 L 0.10862140034869316 0.32 L 0.04231440696476285 0.32 L -0.020500528969815357 0.32 L -0.07903347318958936 0.32 L -0.13254833995939036 0.32 L -0.18037214877953905 0.32 L -0.22190348750610184 0.32 L -0.2566200754575482 0.32 L -0.2840853313973552 0.32 L -0.3039538637963671 0.32 L -0.31597581433167526 0.32 L -0.32 0.32 " stroke="#191919" stroke-width="0.35 px" style="stroke-width:0.35;stroke-miterlimit:4;stroke-dasharray:none;fill:none;fill-opacity:1;fill-rule: evenodd"/>
<path id="Shape2DView_nwe0048"  d="M 0.32 -0.32 L 4.38 -0.32 " stroke="#191919" stroke-width="0.35 px" style="stroke-width:0.35;stroke-miterlimit:4;stroke-dasharray:none;fill:none;fill-opacity:1;fill-rule: evenodd"/>
<path id="Shape2DView_nwe0049"  d="M 0.32000000000000006 -0.32 L 0.24834273529388307 -0.32 L 0.17758660226795886 -0.32 L 0.10862140034869316 -0.32 L 0.04231440696476285 -0.32 L -0.020500528969815357 -0.32 L -0.07903347318958936 -0.32 L -0.13254833995939036 -0.32 L -0.18037214877953905 -0.32 L -0.22190348750610184 -0.32 L -0.2566200754575482 -0.32 L -0.2840853313973552 -0.32 L -0.3039538637963671 -0.32 L -0.31597581433167526 -0.32 L -0.32 -0.32 " stroke="#191919" stroke-width="0.35 px" style="stroke-width:0.35;stroke-miterlimit:4;stroke-dasharray:none;fill:none;fill-opacity:1;fill-rule: evenodd"/>
<path id="Shape2DView_nwe0050"  d="M 0.32 -2.86 L 4.38 -2.86 " stroke="#191919" stroke-width="0.35 px" style="stroke-width:0.35;stroke-miterlimit:4;stroke-dasharray:none;fill:none;fill-opacity:1;fill-rule: evenodd"/>
<path id="Shape2DView_nwe0051"  d="M 4.38 -2.22 L 0.32 -2.22 " stroke="#191919" stroke-width="0.35 px" style="stroke-width:0.35;stroke-miterlimit:4;stroke-dasharray:none;fill:none;fill-opacity:1;fill-rule: evenodd"/>
<path id="Shape2DView_nwe0052"  d="M 0.32000000000000006 -2.22 L 0.24834273529388307 -2.22 L 0.17758660226795886 -2.22 L 0.10862140034869316 -2.22 L 0.04231440696476285 -2.22 L -0.020500528969815357 -2.22 L -0.07903347318958936 -2.22 L -0.13254833995939036 -2.22 L -0.18037214877953905 -2.22 L -0.22190348750610184 -2.22 L -0.2566200754575482 -2.22 L -0.2840853313973552 -2.22 L -0.3039538637963671 -2.22 L -0.31597581433167526 -2.22 L -0.32 -2.22 " stroke="#191919" stroke-width="0.35 px" style="stroke-width:0.35;stroke-miterlimit:4;stroke-dasharray:none;fill:none;fill-opacity:1;fill-rule: evenodd"/>
<path id="Shape2DView_nwe0053"  d="M 0.32000000000000006 -2.86 L 0.24834273529388307 -2.86 L 0.17758660226795886 -2.86 L 0.10862140034869316 -2.86 L 0.04231440696476285 -2.86 L -0.020500528969815357 -2.86 L -0.07903347318958936 -2.86 L -0.13254833995939036 -2.86 L -0.18037214877953905 -2.86 L -0.22190348750610184 -2.86 L -0.2566200754575482 -2.86 L -0.2840853313973552 -2.86 L -0.3039538637963671 -2.86 L -0.31597581433167526 -2.86 L -0.32 -2.86 " stroke="#191919" stroke-width="0.35 px" style="stroke-width:0.35;stroke-miterlimit:4;stroke-dasharray:none;fill:none;fill-opacity:1;fill-rule: evenodd"/>
<path id="Shape2DView_nwe0054"  d="M 4.38 -4.76 L 0.32 -4.76 " stroke="#191919" stroke-width="0.35 px" style="stroke-width:0.35;stroke-miterlimit:4;stroke-dasharray:none;fill:none;fill-opacity:1;fill-rule: evenodd"/>
<path id="Shape2DView_nwe0055"  d="M 0.32000000000000006 -4.76 L 0.24834273529388307 -4.76 L 0.17758660226795886 -4.76 L 0.10862140034869316 -4.76 L 0.04231440696476285 -4.76 L -0.020500528969815357 -4.76 L -0.07903347318958936 -4.76 L -0.13254833995939036 -4.76 L -0.18037214877953905 -4.76 L -0.22190348750610184 -4.76 L -0.2566200754575482 -4.76 L -0.2840853313973552 -4.76 L -0.3039538637963671 -4.76 L -0.31597581433167526 -4.76 L -0.32 -4.76 " stroke="#191919" stroke-width="0.35 px" style="stroke-width:0.35;stroke-miterlimit:4;stroke-dasharray:none;fill:none;fill-opacity:1;fill-rule: evenodd"/>
<path id="Shape2DView_nwe0056"  d="M 0.32 -5.4 L 4.38 -5.4 " stroke="#191919" stroke-width="0.35 px" style="stroke-width:0.35;stroke-miterlimit:4;stroke-dasharray:none;fill:none;fill-opacity:1;fill-rule: evenodd"/>
<path id="Shape2DView_nwe0057"  d="M 0.32000000000000006 -5.4 L 0.24834273529388307 -5.4 L 0.17758660226795886 -5.4 L 0.10862140034869316 -5.4 L 0.04231440696476285 -5.4 L -0.020500528969815357 -5.4 L -0.07903347318958936 -5.4 L -0.13254833995939036 -5.4 L -0.18037214877953905 -5.4 L -0.22190348750610184 -5.4 L -0.2566200754575482 -5.4 L -0.2840853313973552 -5.4 L -0.3039538637963671 -5.4 L -0.31597581433167526 -5.4 L -0.32 -5.4 " stroke="#191919" stroke-width="0.35 px" style="stroke-width:0.35;stroke-miterlimit:4;stroke-dasharray:none;fill:none;fill-opacity:1;fill-rule: evenodd"/>
<path id="Shape2DView_nwe0058"  d="M 0.32 -13.02 L 4.38 -13.02 " stroke="#191919" stroke-width="0.35 px" style="stroke-width:0.35;stroke-miterlimit:4;stroke-dasharray:none;fill:none;fill-opacity:1;fill-rule: evenodd"/>
<path id="Shape2DView_nwe0059"  d="M 0.32000000000000006 -13.02 L 0.24834273529388307 -13.02 L 0.17758660226795886 -13.02 L 0.10862140034869316 -13.02 L 0.04231440696476285 -13.02 L -0.020500528969815357 -13.02 L -0.07903347318958936 -13.02 L -0.13254833995939036 -13.02 L -0.18037214877953905 -13.02 L -0.22190348750610184 -13.02 L -0.2566200754575482 -13.02 L -0.2840853313973552 -13.02 L -0.3039538637963671 -13.02 L -0.31597581433167526 -13.02 L -0.32 -13.02 " stroke="#191919" stroke-width="0.35 px" style="stroke-width:0.35;stroke-miterlimit:4;stroke-dasharray:none;fill:none;fill-opacity:1;fill-rule: evenodd"/>
<path id="Shape2DView_nwe0060"  d="M 4.38 -12.38 L 0.32 -12.38 " stroke="#191919" stroke-width="0.35 px" style="stroke-width:0.35;stroke-miterlimit:4;stroke-dasharray:none;fill:none;fill-opacity:1;fill-rule: evenodd"/>
<path id="Shape2DView_nwe0061"  d="M 0.32000000000000006 -12.38 L 0.24834273529388307 -12.38 L 0.17758660226795886 -12.38 L 0.10862140034869316 -12.38 L 0.04231440696476285 -12.38 L -0.020500528969815357 -12.38 L -0.07903347318958936 -12.38 L -0.13254833995939036 -12.38 L -0.18037214877953905 -12.38 L -0.22190348750610184 -12.38 L -0.2566200754575482 -12.38 L -0.2840853313973552 -12.38 L -0.3039538637963671 -12.38 L -0.31597581433167526 -12.38 L -0.32 -12.38 " stroke="#191919" stroke-width="0.35 px" style="stroke-width:0.35;stroke-miterlimit:4;stroke-dasharray:none;fill:none;fill-opacity:1;fill-rule: evenodd"/>
<path id="Shape2DView_nwe0062"  d="M 0.32 -10.48 L 4.38 -10.48 " stroke="#191919" stroke-width="0.35 px" style="stroke-width:0.35;stroke-miterlimit:4;stroke-dasharray:none;fill:none;fill-opacity:1;fill-rule: evenodd"/>
<path id="Shape2DView_nwe0063"  d="M 0.32000000000000006 -10.48 L 0.24834273529388307 -10.48 L 0.17758660226795886 -10.48 L 0.10862140034869316 -10.48 L 0.04231440696476285 -10.48 L -0.020500528969815357 -10.48 L -0.07903347318958936 -10.48 L -0.13254833995939036 -10.48 L -0.18037214877953905 -10.48 L -0.22190348750610184 -10.48 L -0.2566200754575482 -10.48 L -0.2840853313973552 -10.48 L -0.3039538637963671 -10.48 L -0.31597581433167526 -10.48 L -0.32 -10.48 " stroke="#191919" stroke-width="0.35 px" style="stroke-width:0.35;stroke-miterlimit:4;stroke-dasharray:none;fill:none;fill-opacity:1;fill-rule: evenodd"/>
<path id="Shape2DView_nwe0064"  d="M 4.38 -9.84 L 0.32 -9.84 " stroke="#191919" stroke-width="0.35 px" style="stroke-width:0.35;stroke-miterlimit:4;stroke-dasharray:none;fill:none;fill-opacity:1;fill-rule: evenodd"/>
<path id="Shape2DView_nwe0065"  d="M 0.32000000000000006 -9.84 L 0.24834273529388307 -9.84 L 0.17758660226795886 -9.84 L 0.10862140034869316 -9.84 L 0.04231440696476285 -9.84 L -0.020500528969815357 -9.84 L -0.07903347318958936 -9.84 L -0.13254833995939036 -9.84 L -0.18037214877953905 -9.84 L -0.22190348750610184 -9.84 L -0.2566200754575482 -9.84 L -0.2840853313973552 -9.84 L -0.3039538637963671 -9.84 L -0.31597581433167526 -9.84 L -0.32 -9.84 " stroke="#191919" stroke-width="0.35 px" style="stroke-width:0.35;stroke-miterlimit:4;stroke-dasharray:none;fill:none;fill-opacity:1;fill-rule: evenodd"/>
<path id="Shape2DView_nwe0066"  d="M 0.32 -7.94 L 4.38 -7.94 " stroke="#191919" stroke-width="0.35 px" style="stroke-width:0.35;stroke-miterlimit:4;stroke-dasharray:none;fill:none;fill-opacity:1;fill-rule: evenodd"/>
<path id="Shape2DView_nwe0067"  d="M 0.32000000000000006 -7.94 L 0.24834273529388307 -7.94 L 0.17758660226795886 -7.94 L 0.10862140034869316 -7.94 L 0.04231440696476285 -7.94 L -0.020500528969815357 -7.94 L -0.07903347318958936 -7.94 L -0.13254833995939036 -7.94 L -0.18037214877953905 -7.94 L -0.22190348750610184 -7.94 L -0.2566200754575482 -7.94 L -0.2840853313973552 -7.94 L -0.3039538637963671 -7.94 L -0.31597581433167526 -7.94 L -0.32 -7.94 " stroke="#191919" stroke-width="0.35 px" style="stroke-width:0.35;stroke-miterlimit:4;stroke-dasharray:none;fill:none;fill-opacity:1;fill-rule: evenodd"/>
<path id="Shape2DView_nwe0068"  d="M 4.38 -7.3 L 0.32 -7.3 " stroke="#191919" stroke-width="0.35 px" style="stroke-width:0.35;stroke-miterlimit:4;stroke-dasharray:none;fill:none;fill-opacity:1;fill-rule: evenodd"/>
<path id="Shape2DView_nwe0069"  d="M 0.32000000000000006 -7.3 L 0.24834273529388307 -7.3 L 0.17758660226795886 -7.3 L 0.10862140034869316 -7.3 L 0.04231440696476285 -7.3 L -0.020500528969815357 -7.3 L -0.07903347318958936 -7.3 L -0.13254833995939036 -7.3 L -0.18037214877953905 -7.3 L -0.22190348750610184 -7.3 L -0.2566200754575482 -7.3 L -0.2840853313973552 -7.3 L -0.3039538637963671 -7.3 L -0.31597581433167526 -7.3 L -0.32 -7.3 " stroke="#191919" stroke-width="0.35 px" style="stroke-width:0.35;stroke-miterlimit:4;stroke-dasharray:none;fill:none;fill-opacity:1;fill-rule: evenodd"/>
<path id="Shape2DView_nwe0070"  d="M 4.38 -14.92 L 0.32 -14.92 " stroke="#191919" stroke-width="0.35 px" style="stroke-width:0.35;stroke-miterlimit:4;stroke-dasharray:none;fill:none;fill-opacity:1;fill-rule: evenodd"/>
<path id="Shape2DView_nwe0071"  d="M 0.32000000000000006 -14.92 L 0.24834273529388307 -14.92 L 0.17758660226795886 -14.92 L 0.10862140034869316 -14.92 L 0.04231440696476285 -14.92 L -0.020500528969815357 -14.92 L -0.07903347318958936 -14.92 L -0.13254833995939036 -14.92 L -0.18037214877953905 -14.92 L -0.22190348750610184 -14.92 L -0.2566200754575482 -14.92 L -0.2840853313973552 -14.92 L -0.3039538637963671 -14.92 L -0.31597581433167526 -14.92 L -0.32 -14.92 " stroke="#191919" stroke-width="0.35 px" style="stroke-width:0.35;stroke-miterlimit:4;stroke-dasharray:none;fill:none;fill-opacity:1;fill-rule: evenodd"/>
<path id="Shape2DView_nwe0072"  d="M 0.32 -15.56 L 4.38 -15.56 " stroke="#191919" stroke-width="0.35 px" style="stroke-width:0.35;stroke-miterlimit:4;stroke-dasharray:none;fill:none;fill-opacity:1;fill-rule: evenodd"/>
<path id="Shape2DView_nwe0073"  d="M 0.32000000000000006 -15.56 L 0.24834273529388307 -15.56 L 0.17758660226795886 -15.56 L 0.10862140034869316 -15.56 L 0.04231440696476285 -15.56 L -0.020500528969815357 -15.56 L -0.07903347318958936 -15.56 L -0.13254833995939036 -15.56 L -0.18037214877953905 -15.56 L -0.22190348750610184 -15.56 L -0.2566200754575482 -15.56 L -0.2840853313973552 -15.56 L -0.3039538637963671 -15.56 L -0.31597581433167526 -15.56 L -0.32 -15.56 " stroke="#191919" stroke-width="0.35 px" style="stroke-width:0.35;stroke-miterlimit:4;stroke-dasharray:none;fill:none;fill-opacity:1;fill-rule: evenodd"/>
<path id="Shape2DView_nwe0074"  d="M 0.32 -18.1 L 4.38 -18.1 " stroke="#191919" stroke-width="0.35 px" style="stroke-width:0.35;stroke-miterlimit:4;stroke-dasharray:none;fill:none;fill-opacity:1;fill-rule: evenodd"/>
<path id="Shape2DView_nwe0075"  d="M 0.32000000000000006 -18.1 L 0.24834273529388307 -18.1 L 0.17758660226795886 -18.1 L 0.10862140034869316 -18.1 L 0.04231440696476285 -18.1 L -0.020500528969815357 -18.1 L -0.07903347318958936 -18.1 L -0.13254833995939036 -18.1 L -0.18037214877953905 -18.1 L -0.22190348750610184 -18.1 L -0.2566200754575482 -18.1 L -0.2840853313973552 -18.1 L -0.3039538637963671 -18.1 L -0.31597581433167526 -18.1 L -0.32 -18.1 " stroke="#191919" stroke-width="0.35 px" style="stroke-width:0.35;stroke-miterlimit:4;stroke-dasharray:none;fill:none;fill-opacity:1;fill-rule: evenodd"/>
<path id="Shape2DView_nwe0076"  d="M 4.38 -17.46 L 0.32 -17.46 " stroke="#191919" stroke-width="0.35 px" style="stroke-width:0.35;stroke-miterlimit:4;stroke-dasharray:none;fill:none;fill-opacity:1;fill-rule: evenodd"/>
<path id="Shape2DView_nwe0077"  d="M 0.32000000000000006 -17.46 L 0.24834273529388307 -17.46 L 0.17758660226795886 -17.46 L 0.10862140034869316 -17.46 L 0.04231440696476285 -17.46 L -0.020500528969815357 -17.46 L -0.07903347318958936 -17.46 L -0.13254833995939036 -17.46 L -0.18037214877953905 -17.46 L -0.22190348750610184 -17.46 L -0.2566200754575482 -17.46 L -0.2840853313973552 -17.46 L -0.3039538637963671 -17.46 L -0.31597581433167526 -17.46 L -0.32 -17.46 " stroke="#191919" stroke-width="0.35 px" style="stroke-width:0.35;stroke-miterlimit:4;stroke-dasharray:none;fill:none;fill-opacity:1;fill-rule: evenodd"/>
<path id="Shape2DView_nwe0078"  d="M 4.13 3.1 L 4.13 3.087463956090912 L 4.13 3.0504844339512096 L 4.13 2.990915741234015 L 4.13 2.9117449009293668 L 4.13 2.816941869558779 L 4.13 2.7112604669781573 L 4.13 2.6 L 4.13 2.488739533021843 L 4.13 2.383058130441221 L 4.13 2.2882550990706334 L 4.13 2.2090842587659854 L 4.13 2.1495155660487906 L 4.13 2.1125360439090883 L 4.13 2.1 " stroke="#191919" stroke-width="0.35 px" style="stroke-width:0.35;stroke-miterlimit:4;stroke-dasharray:none;fill:none;fill-opacity:1;fill-rule: evenodd"/>
<path id="Shape2DView_nwe0079"  d="M 4.13 -19.82 L 4.13 -19.832536043909087 L 4.13 -19.86951556604879 L 4.13 -19.929084258765986 L 4.13 -20.008255099070634 L 4.13 -20.10305813044122 L 4.13 -20.20873953302184 L 4.13 -20.32 L 4.13 -20.431260466978156 L 4.13 -20.536941869558778 L 4.13 -20.631744900929366 L 4.13 -20.710915741234015 L 4.13 -20.77048443395121 L 4.13 -20.807463956090913 L 4.13 -20.82 " stroke="#191919" stroke-width="0.35 px" style="stroke-width:0.35;stroke-miterlimit:4;stroke-dasharray:none;fill:none;fill-opacity:1;fill-rule: evenodd"/>
<path id="Shape2DView_nwe0080"  d="M 4.13 -42.74 L 4.13 -42.75253604390909 L 4.13 -42.78951556604879 L 4.13 -42.849084258765984 L 4.13 -42.92825509907063 L 4.13 -43.02305813044122 L 4.13 -43.12873953302184 L 4.13 -43.24 L 4.13 -43.35126046697816 L 4.13 -43.45694186955878 L 4.13 -43.55174490092937 L 4.13 -43.63091574123402 L 4.13 -43.69048443395121 L 4.13 -43.727463956090915 L 4.13 -43.74 " stroke="#191919" stroke-width="0.35 px" style="stroke-width:0.35;stroke-miterlimit:4;stroke-dasharray:none;fill:none;fill-opacity:1;fill-rule: evenodd"/>
<path id="Shape2DView_nwe0081"  d="M 6.73 -20.64 L 12.18 -20.64 " stroke="#191919" stroke-width="0.35 px" style="stroke-width:0.35;stroke-miterlimit:4;stroke-dasharray:none;fill:none;fill-opacity:1;fill-rule: evenodd"/>
<path id="Shape2DView_nwe0082"  d="M 12.18 -20.0 L 12.18 -20.64 " stroke="#191919" stroke-width="0.35 px" style="stroke-width:0.35;stroke-miterlimit:4;stroke-dasharray:none;fill:none;fill-opacity:1;fill-rule: evenodd"/>
<path id="Shape2DView_nwe0083"  d="M 12.18 -20.0 L 6.73 -20.0 " stroke="#191919" stroke-width="0.35 px" style="stroke-width:0.35;stroke-miterlimit:4;stroke-dasharray:none;fill:none;fill-opacity:1;fill-rule: evenodd"/>
<path id="Shape2DView_nwe0084"  d="M 6.73 -18.1 L 12.18 -18.1 " stroke="#191919" stroke-width="0.35 px" style="stroke-width:0.35;stroke-miterlimit:4;stroke-dasharray:none;fill:none;fill-opacity:1;fill-rule: evenodd"/>
<path id="Shape2DView_nwe0085"  d="M 12.18 -18.07 L 12.18 -18.1 " stroke="#191919" stroke-width="0.35 px" style="stroke-width:0.35;stroke-miterlimit:4;stroke-dasharray:none;fill:none;fill-opacity:1;fill-rule: evenodd"/>
<path id="Shape2DView_nwe0086"  d="M 12.18 -22.54 L 6.73 -22.54 " stroke="#191919" stroke-width="0.35 px" style="stroke-width:0.35;stroke-miterlimit:4;stroke-dasharray:none;fill:none;fill-opacity:1;fill-rule: evenodd"/>
<path id="Shape2DView_nwe0087"  d="M 12.18 -22.54 L 12.18 -22.57 " stroke="#191919" stroke-width="0.35 px" style="stroke-width:0.35;stroke-miterlimit:4;stroke-dasharray:none;fill:none;fill-opacity:1;fill-rule: evenodd"/>
<path id="Shape2DView_nwe0088"  d="M -0.32 -40.32 L -0.32 -40.96 " stroke="#191919" stroke-width="0.35 px" style="stroke-width:0.35;stroke-miterlimit:4;stroke-dasharray:none;fill:none;fill-opacity:1;fill-rule: evenodd"/>
<path id="Shape2DView_nwe0089"  d="M -0.32 -37.78 L -0.32 -38.42 " stroke="#191919" stroke-width="0.35 px" style="stroke-width:0.35;stroke-miterlimit:4;stroke-dasharray:none;fill:none;fill-opacity:1;fill-rule: evenodd"/>
<path id="Shape2DView_nwe0090"  d="M -0.32 -32.7 L -0.32 -33.34 " stroke="#191919" stroke-width="0.35 px" style="stroke-width:0.35;stroke-miterlimit:4;stroke-dasharray:none;fill:none;fill-opacity:1;fill-rule: evenodd"/>
<path id="Shape2DView_nwe0091"  d="M -0.32 -35.24 L -0.32 -35.88 " stroke="#191919" stroke-width="0.35 px" style="stroke-width:0.35;stroke-miterlimit:4;stroke-dasharray:none;fill:none;fill-opacity:1;fill-rule: evenodd"/>
<path id="Shape2DView_nwe0092"  d="M -0.32 -27.62 L -0.32 -28.26 " stroke="#191919" stroke-width="0.35 px" style="stroke-width:0.35;stroke-miterlimit:4;stroke-dasharray:none;fill:none;fill-opacity:1;fill-rule: evenodd"/>
<path id="Shape2DView_nwe0093"  d="M -0.32 -30.16 L -0.32 -30.8 " stroke="#191919" stroke-width="0.35 px" style="stroke-width:0.35;stroke-miterlimit:4;stroke-dasharray:none;fill:none;fill-opacity:1;fill-rule: evenodd"/>
<path id="Shape2DView_nwe0094"  d="M -0.32 -20.0 L -0.32 -20.64 " stroke="#191919" stroke-width="0.35 px" style="stroke-width:0.35;stroke-miterlimit:4;stroke-dasharray:none;fill:none;fill-opacity:1;fill-rule: evenodd"/>
<path id="Shape2DView_nwe0095"  d="M -0.32 -22.54 L -0.32 -23.18 " stroke="#191919" stroke-width="0.35 px" style="stroke-width:0.35;stroke-miterlimit:4;stroke-dasharray:none;fill:none;fill-opacity:1;fill-rule: evenodd"/>
<path id="Shape2DView_nwe0096"  d="M -0.32 -25.08 L -0.32 -25.72 " stroke="#191919" stroke-width="0.35 px" style="stroke-width:0.35;stroke-miterlimit:4;stroke-dasharray:none;fill:none;fill-opacity:1;fill-rule: evenodd"/>
<path id="Shape2DView_nwe0097"  d="M -0.32 0.32 L -0.32 -0.32 " stroke="#191919" stroke-width="0.35 px" style="stroke-width:0.35;stroke-miterlimit:4;stroke-dasharray:none;fill:none;fill-opacity:1;fill-rule: evenodd"/>
<path id="Shape2DView_nwe0098"  d="M -0.32 -2.22 L -0.32 -2.86 " stroke="#191919" stroke-width="0.35 px" style="stroke-width:0.35;stroke-miterlimit:4;stroke-dasharray:none;fill:none;fill-opacity:1;fill-rule: evenodd"/>
<path id="Shape2DView_nwe0099"  d="M -0.32 -4.76 L -0.32 -5.4 " stroke="#191919" stroke-width="0.35 px" style="stroke-width:0.35;stroke-miterlimit:4;stroke-dasharray:none;fill:none;fill-opacity:1;fill-rule: evenodd"/>
<path id="Shape2DView_nwe0100"  d="M -0.32 -12.38 L -0.32 -13.02 " stroke="#191919" stroke-width="0.35 px" style="stroke-width:0.35;stroke-miterlimit:4;stroke-dasharray:none;fill:none;fill-opacity:1;fill-rule: evenodd"/>
<path id="Shape2DView_nwe0101"  d="M -0.32 -9.84 L -0.32 -10.48 " stroke="#191919" stroke-width="0.35 px" style="stroke-width:0.35;stroke-miterlimit:4;stroke-dasharray:none;fill:none;fill-opacity:1;fill-rule: evenodd"/>
<path id="Shape2DView_nwe0102"  d="M -0.32 -7.3 L -0.32 -7.94 " stroke="#191919" stroke-width="0.35 px" style="stroke-width:0.35;stroke-miterlimit:4;stroke-dasharray:none;fill:none;fill-opacity:1;fill-rule: evenodd"/>
<path id="Shape2DView_nwe0103"  d="M -0.32 -14.92 L -0.32 -15.56 " stroke="#191919" stroke-width="0.35 px" style="stroke-width:0.35;stroke-miterlimit:4;stroke-dasharray:none;fill:none;fill-opacity:1;fill-rule: evenodd"/>
<path id="Shape2DView_nwe0104"  d="M -0.32 -17.46 L -0.32 -18.1 " stroke="#191919" stroke-width="0.35 px" style="stroke-width:0.35;stroke-miterlimit:4;stroke-dasharray:none;fill:none;fill-opacity:1;fill-rule: evenodd"/>
<path id="Shape2DView_nwe0105"  d="M 12.180000000001 -19.999999999998 L 12.380000000001 -20.199999999998 " stroke="#191919" stroke-width="0.35 px" style="stroke-width:0.35;stroke-miterlimit:4;stroke-dasharray:none;fill:none;fill-opacity:1;fill-rule: evenodd"/>
<path id="Shape2DView_nwe0106"  d="M 12.179999999997666 -20.639999999995332 L 12.379999999997667 -20.439999999995333 " stroke="#191919" stroke-width="0.35 px" style="stroke-width:0.35;stroke-miterlimit:4;stroke-dasharray:none;fill:none;fill-opacity:1;fill-rule: evenodd"/>
<path id="Shape2DView_nwe0107"  d="M 12.38 -20.2 L 12.38 -20.44 " stroke="#191919" stroke-width="0.35 px" style="stroke-width:0.35;stroke-miterlimit:4;stroke-dasharray:none;fill:none;fill-opacity:1;fill-rule: evenodd"/>
<path id="Shape2DView_nwe0108"  d="M 12.179999999997666 -18.099999999995333 L 12.209999999993 -18.07 " stroke="#191919" stroke-width="0.35 px" style="stroke-width:0.35;stroke-miterlimit:4;stroke-dasharray:none;fill:none;fill-opacity:1;fill-rule: evenodd"/>
<path id="Shape2DView_nwe0109"  d="M 12.180000000001 -22.539999999998 L 12.210000000003001 -22.57 " stroke="#191919" stroke-width="0.35 px" style="stroke-width:0.35;stroke-miterlimit:4;stroke-dasharray:none;fill:none;fill-opacity:1;fill-rule: evenodd"/>
<path id="Shape2DView_nwe0110"  d="M 0.32 -40.32 L 0.32 -40.96 " stroke="#191919" stroke-width="0.35 px" style="stroke-width:0.35;stroke-miterlimit:4;stroke-dasharray:none;fill:none;fill-opacity:1;fill-rule: evenodd"/>
<path id="Shape2DView_nwe0111"  d="M 0.32 -37.78 L 0.32 -38.42 " stroke="#191919" stroke-width="0.35 px" style="stroke-width:0.35;stroke-miterlimit:4;stroke-dasharray:none;fill:none;fill-opacity:1;fill-rule: evenodd"/>
<path id="Shape2DView_nwe0112"  d="M 0.32 -32.7 L 0.32 -33.34 " stroke="#191919" stroke-width="0.35 px" style="stroke-width:0.35;stroke-miterlimit:4;stroke-dasharray:none;fill:none;fill-opacity:1;fill-rule: evenodd"/>
<path id="Shape2DView_nwe0113"  d="M 0.32 -35.24 L 0.32 -35.88 " stroke="#191919" stroke-width="0.35 px" style="stroke-width:0.35;stroke-miterlimit:4;stroke-dasharray:none;fill:none;fill-opacity:1;fill-rule: evenodd"/>
<path id="Shape2DView_nwe0114"  d="M 0.32 -27.62 L 0.32 -28.26 " stroke="#191919" stroke-width="0.35 px" style="stroke-width:0.35;stroke-miterlimit:4;stroke-dasharray:none;fill:none;fill-opacity:1;fill-rule: evenodd"/>
<path id="Shape2DView_nwe0115"  d="M 0.32 -30.16 L 0.32 -30.8 " stroke="#191919" stroke-width="0.35 px" style="stroke-width:0.35;stroke-miterlimit:4;stroke-dasharray:none;fill:none;fill-opacity:1;fill-rule: evenodd"/>
<path id="Shape2DView_nwe0116"  d="M 0.32 -20.0 L 0.32 -20.64 " stroke="#191919" stroke-width="0.35 px" style="stroke-width:0.35;stroke-miterlimit:4;stroke-dasharray:none;fill:none;fill-opacity:1;fill-rule: evenodd"/>
<path id="Shape2DView_nwe0117"  d="M 0.32 -22.54 L 0.32 -23.18 " stroke="#191919" stroke-width="0.35 px" style="stroke-width:0.35;stroke-miterlimit:4;stroke-dasharray:none;fill:none;fill-opacity:1;fill-rule: evenodd"/>
<path id="Shape2DView_nwe0118"  d="M 0.32 -25.08 L 0.32 -25.72 " stroke="#191919" stroke-width="0.35 px" style="stroke-width:0.35;stroke-miterlimit:4;stroke-dasharray:none;fill:none;fill-opacity:1;fill-rule: evenodd"/>
<path id="Shape2DView_nwe0119"  d="M 0.32 0.32 L 0.32 -0.32 " stroke="#191919" stroke-width="0.35 px" style="stroke-width:0.35;stroke-miterlimit:4;stroke-dasharray:none;fill:none;fill-opacity:1;fill-rule: evenodd"/>
<path id="Shape2DView_nwe0120"  d="M 0.32 -2.22 L 0.32 -2.86 " stroke="#191919" stroke-width="0.35 px" style="stroke-width:0.35;stroke-miterlimit:4;stroke-dasharray:none;fill:none;fill-opacity:1;fill-rule: evenodd"/>
<path id="Shape2DView_nwe0121"  d="M 0.32 -4.76 L 0.32 -5.4 " stroke="#191919" stroke-width="0.35 px" style="stroke-width:0.35;stroke-miterlimit:4;stroke-dasharray:none;fill:none;fill-opacity:1;fill-rule: evenodd"/>
<path id="Shape2DView_nwe0122"  d="M 0.32 -12.38 L 0.32 -13.02 " stroke="#191919" stroke-width="0.35 px" style="stroke-width:0.35;stroke-miterlimit:4;stroke-dasharray:none;fill:none;fill-opacity:1;fill-rule: evenodd"/>
<path id="Shape2DView_nwe0123"  d="M 0.32 -9.84 L 0.32 -10.48 " stroke="#191919" stroke-width="0.35 px" style="stroke-width:0.35;stroke-miterlimit:4;stroke-dasharray:none;fill:none;fill-opacity:1;fill-rule: evenodd"/>
<path id="Shape2DView_nwe0124"  d="M 0.32 -7.3 L 0.32 -7.94 " stroke="#191919" stroke-width="0.35 px" style="stroke-width:0.35;stroke-miterlimit:4;stroke-dasharray:none;fill:none;fill-opacity:1;fill-rule: evenodd"/>
<path id="Shape2DView_nwe0125"  d="M 0.32 -14.92 L 0.32 -15.56 " stroke="#191919" stroke-width="0.35 px" style="stroke-width:0.35;stroke-miterlimit:4;stroke-dasharray:none;fill:none;fill-opacity:1;fill-rule: evenodd"/>
<path id="Shape2DView_nwe0126"  d="M 0.32 -17.46 L 0.32 -18.1 " stroke="#191919" stroke-width="0.35 px" style="stroke-width:0.35;stroke-miterlimit:4;stroke-dasharray:none;fill:none;fill-opacity:1;fill-rule: evenodd"/>
<path id="Shape2DView_nwe0127"  d="M 4.13 -43.74 L 4.38 -43.74 " stroke="#191919" stroke-width="0.35 px" style="stroke-width:0.35;stroke-miterlimit:4;stroke-dasharray:none;fill:none;fill-opacity:1;fill-rule: evenodd"/>
<path id="Shape2DView_nwe0128"  d="M 4.13 -42.74 L 4.38 -42.74 " stroke="#191919" stroke-width="0.35 px" style="stroke-width:0.35;stroke-miterlimit:4;stroke-dasharray:none;fill:none;fill-opacity:1;fill-rule: evenodd"/>
<path id="Shape2DView_nwe0129"  d="M 4.13 2.1 L 4.38 2.1 " stroke="#191919" stroke-width="0.35 px" style="stroke-width:0.35;stroke-miterlimit:4;stroke-dasharray:none;fill:none;fill-opacity:1;fill-rule: evenodd"/>
<path id="Shape2DView_nwe0130"  d="M 4.13 3.1 L 4.38 3.1 " stroke="#191919" stroke-width="0.35 px" style="stroke-width:0.35;stroke-miterlimit:4;stroke-dasharray:none;fill:none;fill-opacity:1;fill-rule: evenodd"/>
<path id="Shape2DView_nwe0131"  d="M 4.13 -20.82 L 4.38 -20.82 " stroke="#191919" stroke-width="0.35 px" style="stroke-width:0.35;stroke-miterlimit:4;stroke-dasharray:none;fill:none;fill-opacity:1;fill-rule: evenodd"/>
<path id="Shape2DView_nwe0132"  d="M 4.13 -19.82 L 4.38 -19.82 " stroke="#191919" stroke-width="0.35 px" style="stroke-width:0.35;stroke-miterlimit:4;stroke-dasharray:none;fill:none;fill-opacity:1;fill-rule: evenodd"/>
<title>b'Shape2DView'</title>
</g>
<g id="Rectangle" transform="translate(0.455500,5.235500) scale(1,-1)">
<rect fill="#ff0000" id="origin" width="1" height="1" x="0" y="0" />
<title>b'Rectangle'</title>
</g>
</svg>