<?xml version="1.0"?>
<!DOCTYPE svg PUBLIC "-//W3C//DTD SVG 1.1//EN" "http://www.w3.org/Graphics/SVG/1.1/DTD/svg11.dtd">
<svg width="13.821000000000002mm" height="71.431mm" viewBox="0 0 13.821000000000002 71.431" xmlns="http://www.w3.org/2000/svg" version="1.1">
<g id="Shape2DView" transform="translate(0.455500,5.235500) scale(1,-1)">
<path id="Shape2DView_nwe0000"  d="M 4.38 5.1 L 13.23 5.1 " stroke="#191919" stroke-width="0.35 px" style="stroke-width:0.35;stroke-miterlimit:4;stroke-dasharray:none;fill:none;fill-opacity:1;fill-rule: evenodd"/>
<path id="Shape2DView_nwe0001"  d="M 4.38 5.1 L 4.38 -66.06 " stroke="#191919" stroke-width="0.35 px" style="stroke-width:0.35;stroke-miterlimit:4;stroke-dasharray:none;fill:none;fill-opacity:1;fill-rule: evenodd"/>
<path id="Shape2DView_nwe0002"  d="M 4.38 -66.06 L 13.23 -66.06 " stroke="#191919" stroke-width="0.35 px" style="stroke-width:0.35;stroke-miterlimit:4;stroke-dasharray:none;fill:none;fill-opacity:1;fill-rule: evenodd"/>
<path id="Shape2DView_nwe0003"  d="M 13.23 -32.73 L 13.23 -66.06 " stroke="#191919" stroke-width="0.35 px" style="stroke-width:0.35;stroke-miterlimit:4;stroke-dasharray:none;fill:none;fill-opacity:1;fill-rule: evenodd"/>
<path id="Shape2DView_nwe0004"  d="M 13.23 -32.73 L 6.23 -32.73 " stroke="#191919" stroke-width="0.35 px" style="stroke-width:0.35;stroke-miterlimit:4;stroke-dasharray:none;fill:none;fill-opacity:1;fill-rule: evenodd"/>
<path id="Shape2DView_nwe0005"  d="M 6.23 -32.73 L 6.23 -28.23 " stroke="#191919" stroke-width="0.35 px" style="stroke-width:0.35;stroke-miterlimit:4;stroke-dasharray:none;fill:none;fill-opacity:1;fill-rule: evenodd"/>
<path id="Shape2DView_nwe0006"  d="M 6.23 -28.23 L 13.23 -28.23 " stroke="#191919" stroke-width="0.35 px" style="stroke-width:0.35;stroke-miterlimit:4;stroke-dasharray:none;fill:none;fill-opacity:1;fill-rule: evenodd"/>
<path id="Shape2DView_nwe0007"  d="M 13.23 5.1 L 13.23 -28.229999999999997 " stroke="#191919" stroke-width="0.35 px" style="stroke-width:0.35;stroke-miterlimit:4;stroke-dasharray:none;fill:none;fill-opacity:1;fill-rule: evenodd"/>
<path id="Shape2DView_nwe0008"  d="M 13.23 -32.73 L 13.23 -28.230000000000004 " stroke="#191919" stroke-width="0.35 px" style="stroke-width:0.35;stroke-miterlimit:4;stroke-dasharray:none;fill:none;fill-opacity:1;fill-rule: evenodd"/>
<path id="Shape2DView_nwe0009"  d="M 6.73 -28.23 L 6.73 -32.73 " stroke="#191919" stroke-width="0.35 px" style="stroke-width:0.35;stroke-miterlimit:4;stroke-dasharray:none;fill:none;fill-opacity:1;fill-rule: evenodd"/>
<path id="Shape2DView_nwe0010"  d="M 4.38 -12.38 L 0.32 -12.38 " stroke="#191919" stroke-width="0.35 px" style="stroke-width:0.35;stroke-miterlimit:4;stroke-dasharray:none;fill:none;fill-opacity:1;fill-rule: evenodd"/>
<path id="Shape2DView_nwe0011"  d="M 0.32000000000000006 -12.38 L 0.24834273529388307 -12.38 L 0.17758660226795886 -12.38 L 0.10862140034869316 -12.38 L 0.04231440696476285 -12.38 L -0.020500528969815357 -12.38 L -0.07903347318958936 -12.38 L -0.13254833995939036 -12.38 L -0.18037214877953905 -12.38 L -0.22190348750610184 -12.38 L -0.2566200754575482 -12.38 L -0.2840853313973552 -12.38 L -0.3039538637963671 -12.38 L -0.31597581433167526 -12.38 L -0.32 -12.38 " stroke="#191919" stroke-width="0.35 px" style="stroke-width:0.35;stroke-miterlimit:4;stroke-dasharray:none;fill:none;fill-opacity:1;fill-rule: evenodd"/>
<path id="Shape2DView_nwe0012"  d="M 0.32 -13.02 L 4.38 -13.02 " stroke="#191919" stroke-width="0.35 px" style="stroke-width:0.35;stroke-miterlimit:4;stroke-dasharray:none;fill:none;fill-opacity:1;fill-rule: evenodd"/>
<path id="Shape2DView_nwe0013"  d="M 0.32000000000000006 -13.02 L 0.24834273529388307 -13.02 L 0.17758660226795886 -13.02 L 0.10862140034869316 -13.02 L 0.04231440696476285 -13.02 L -0.020500528969815357 -13.02 L -0.07903347318958936 -13.02 L -0.13254833995939036 -13.02 L -0.18037214877953905 -13.02 L -0.22190348750610184 -13.02 L -0.2566200754575482 -13.02 L -0.2840853313973552 -13.02 L -0.3039538637963671 -13.02 L -0.31597581433167526 -13.02 L -0.32 -13.02 " stroke="#191919" stroke-width="0.35 px" style="stroke-width:0.35;stroke-miterlimit:4;stroke-dasharray:none;fill:none;fill-opacity:1;fill-rule: evenodd"/>
<path id="Shape2DView_nwe0014"  d="M 0.32 -15.56 L 4.38 -15.56 " stroke="#191919" stroke-width="0.35 px" style="stroke-width:0.35;stroke-miterlimit:4;stroke-dasharray:none;fill:none;fill-opacity:1;fill-rule: evenodd"/>
<path id="Shape2DView_nwe0015"  d="M 0.32000000000000006 -15.56 L 0.24834273529388307 -15.56 L 0.17758660226795886 -15.56 L 0.10862140034869316 -15.56 L 0.04231440696476285 -15.56 L -0.020500528969815357 -15.56 L -0.07903347318958936 -15.56 L -0.13254833995939036 -15.56 L -0.18037214877953905 -15.56 L -0.22190348750610184 -15.56 L -0.2566200754575482 -15.56 L -0.2840853313973552 -15.56 L -0.3039538637963671 -15.56 L -0.31597581433167526 -15.56 L -0.32 -15.56 " stroke="#191919" stroke-width="0.35 px" style="stroke-width:0.35;stroke-miterlimit:4;stroke-dasharray:none;fill:none;fill-opacity:1;fill-rule: evenodd"/>
<path id="Shape2DView_nwe0016"  d="M 4.38 -14.92 L 0.32 -14.92 " stroke="#191919" stroke-width="0.35 px" style="stroke-width:0.35;stroke-miterlimit:4;stroke-dasharray:none;fill:none;fill-opacity:1;fill-rule: evenodd"/>
<path id="Shape2DView_nwe0017"  d="M 0.32000000000000006 -14.92 L 0.24834273529388307 -14.92 L 0.17758660226795886 -14.92 L 0.10862140034869316 -14.92 L 0.04231440696476285 -14.92 L -0.020500528969815357 -14.92 L -0.07903347318958936 -14.92 L -0.13254833995939036 -14.92 L -0.18037214877953905 -14.92 L -0.22190348750610184 -14.92 L -0.2566200754575482 -14.92 L -0.2840853313973552 -14.92 L -0.3039538637963671 -14.92 L -0.31597581433167526 -14.92 L -0.32 -14.92 " stroke="#191919" stroke-width="0.35 px" style="stroke-width:0.35;stroke-miterlimit:4;stroke-dasharray:none;fill:none;fill-opacity:1;fill-rule: evenodd"/>
<path id="Shape2DView_nwe0018"  d="M 0.32 -10.48 L 4.38 -10.48 " stroke="#191919" stroke-width="0.35 px" style="stroke-width:0.35;stroke-miterlimit:4;stroke-dasharray:none;fill:none;fill-opacity:1;fill-rule: evenodd"/>
<path id="Shape2DView_nwe0019"  d="M 4.38 -9.84 L 0.32 -9.84 " stroke="#191919" stroke-width="0.35 px" style="stroke-width:0.35;stroke-miterlimit:4;stroke-dasharray:none;fill:none;fill-opacity:1;fill-rule: evenodd"/>
<path id="Shape2DView_nwe0020"  d="M 0.32000000000000006 -9.84 L 0.24834273529388307 -9.84 L 0.17758660226795886 -9.84 L 0.10862140034869316 -9.84 L 0.04231440696476285 -9.84 L -0.020500528969815357 -9.84 L -0.07903347318958936 -9.84 L -0.13254833995939036 -9.84 L -0.18037214877953905 -9.84 L -0.22190348750610184 -9.84 L -0.2566200754575482 -9.84 L -0.2840853313973552 -9.84 L -0.3039538637963671 -9.84 L -0.31597581433167526 -9.84 L -0.32 -9.84 " stroke="#191919" stroke-width="0.35 px" style="stroke-width:0.35;stroke-miterlimit:4;stroke-dasharray:none;fill:none;fill-opacity:1;fill-rule: evenodd"/>
<path id="Shape2DView_nwe0021"  d="M 0.32000000000000006 -10.48 L 0.24834273529388307 -10.48 L 0.17758660226795886 -10.48 L 0.10862140034869316 -10.48 L 0.04231440696476285 -10.48 L -0.020500528969815357 -10.48 L -0.07903347318958936 -10.48 L -0.13254833995939036 -10.48 L -0.18037214877953905 -10.48 L -0.22190348750610184 -10.48 L -0.2566200754575482 -10.48 L -0.2840853313973552 -10.48 L -0.3039538637963671 -10.48 L -0.31597581433167526 -10.48 L -0.32 -10.48 " stroke="#191919" stroke-width="0.35 px" style="stroke-width:0.35;stroke-miterlimit:4;stroke-dasharray:none;fill:none;fill-opacity:1;fill-rule: evenodd"/>
<path id="Shape2DView_nwe0022"  d="M 0.32 -2.86 L 4.38 -2.86 " stroke="#191919" stroke-width="0.35 px" style="stroke-width:0.35;stroke-miterlimit:4;stroke-dasharray:none;fill:none;fill-opacity:1;fill-rule: evenodd"/>
<path id="Shape2DView_nwe0023"  d="M 0.32000000000000006 -2.86 L 0.24834273529388307 -2.86 L 0.17758660226795886 -2.86 L 0.10862140034869316 -2.86 L 0.04231440696476285 -2.86 L -0.020500528969815357 -2.86 L -0.07903347318958936 -2.86 L -0.13254833995939036 -2.86 L -0.18037214877953905 -2.86 L -0.22190348750610184 -2.86 L -0.2566200754575482 -2.86 L -0.2840853313973552 -2.86 L -0.3039538637963671 -2.86 L -0.31597581433167526 -2.86 L -0.32 -2.86 " stroke="#191919" stroke-width="0.35 px" style="stroke-width:0.35;stroke-miterlimit:4;stroke-dasharray:none;fill:none;fill-opacity:1;fill-rule: evenodd"/>
<path id="Shape2DView_nwe0024"  d="M 4.38 -2.22 L 0.32 -2.22 " stroke="#191919" stroke-width="0.35 px" style="stroke-width:0.35;stroke-miterlimit:4;stroke-dasharray:none;fill:none;fill-opacity:1;fill-rule: evenodd"/>
<path id="Shape2DView_nwe0025"  d="M 0.32000000000000006 -2.22 L 0.24834273529388307 -2.22 L 0.17758660226795886 -2.22 L 0.10862140034869316 -2.22 L 0.04231440696476285 -2.22 L -0.020500528969815357 -2.22 L -0.07903347318958936 -2.22 L -0.13254833995939036 -2.22 L -0.18037214877953905 -2.22 L -0.22190348750610184 -2.22 L -0.2566200754575482 -2.22 L -0.2840853313973552 -2.22 L -0.3039538637963671 -2.22 L -0.31597581433167526 -2.22 L -0.32 -2.22 " stroke="#191919" stroke-width="0.35 px" style="stroke-width:0.35;stroke-miterlimit:4;stroke-dasharray:none;fill:none;fill-opacity:1;fill-rule: evenodd"/>
<path id="Shape2DView_nwe0026"  d="M 0.32 -5.4 L 4.38 -5.4 " stroke="#191919" stroke-width="0.35 px" style="stroke-width:0.35;stroke-miterlimit:4;stroke-dasharray:none;fill:none;fill-opacity:1;fill-rule: evenodd"/>
<path id="Shape2DView_nwe0027"  d="M 0.32000000000000006 -5.4 L 0.24834273529388307 -5.4 L 0.17758660226795886 -5.4 L 0.10862140034869316 -5.4 L 0.04231440696476285 -5.4 L -0.020500528969815357 -5.4 L -0.07903347318958936 -5.4 L -0.13254833995939036 -5.4 L -0.18037214877953905 -5.4 L -0.22190348750610184 -5.4 L -0.2566200754575482 -5.4 L -0.2840853313973552 -5.4 L -0.3039538637963671 -5.4 L -0.31597581433167526 -5.4 L -0.32 -5.4 " stroke="#191919" stroke-width="0.35 px" style="stroke-width:0.35;stroke-miterlimit:4;stroke-dasharray:none;fill:none;fill-opacity:1;fill-rule: evenodd"/>
<path id="Shape2DView_nwe0028"  d="M 4.38 -4.76 L 0.32 -4.76 " stroke="#191919" stroke-width="0.35 px" style="stroke-width:0.35;stroke-miterlimit:4;stroke-dasharray:none;fill:none;fill-opacity:1;fill-rule: evenodd"/>
<path id="Shape2DView_nwe0029"  d="M 0.32000000000000006 -4.76 L 0.24834273529388307 -4.76 L 0.17758660226795886 -4.76 L 0.10862140034869316 -4.76 L 0.04231440696476285 -4.76 L -0.020500528969815357 -4.76 L -0.07903347318958936 -4.76 L -0.13254833995939036 -4.76 L -0.18037214877953905 -4.76 L -0.22190348750610184 -4.76 L -0.2566200754575482 -4.76 L -0.2840853313973552 -4.76 L -0.3039538637963671 -4.76 L -0.31597581433167526 -4.76 L -0.32 -4.76 " stroke="#191919" stroke-width="0.35 px" style="stroke-width:0.35;stroke-miterlimit:4;stroke-dasharray:none;fill:none;fill-opacity:1;fill-rule: evenodd"/>
<path id="Shape2DView_nwe0030"  d="M 0.32 -7.94 L 4.38 -7.94 " stroke="#191919" stroke-width="0.35 px" style="stroke-width:0.35;stroke-miterlimit:4;stroke-dasharray:none;fill:none;fill-opacity:1;fill-rule: evenodd"/>
<path id="Shape2DView_nwe0031"  d="M 0.32000000000000006 -7.94 L 0.24834273529388307 -7.94 L 0.17758660226795886 -7.94 L 0.10862140034869316 -7.94 L 0.04231440696476285 -7.94 L -0.020500528969815357 -7.94 L -0.07903347318958936 -7.94 L -0.13254833995939036 -7.94 L -0.18037214877953905 -7.94 L -0.22190348750610184 -7.94 L -0.2566200754575482 -7.94 L -0.2840853313973552 -7.94 L -0.3039538637963671 -7.94 L -0.31597581433167526 -7.94 L -0.32 -7.94 " stroke="#191919" stroke-width="0.35 px" style="stroke-width:0.35;stroke-miterlimit:4;stroke-dasharray:none;fill:none;fill-opacity:1;fill-rule: evenodd"/>
<path id="Shape2DView_nwe0032"  d="M 4.38 -7.3 L 0.32 -7.3 " stroke="#191919" stroke-width="0.35 px" style="stroke-width:0.35;stroke-miterlimit:4;stroke-dasharray:none;fill:none;fill-opacity:1;fill-rule: evenodd"/>
<path id="Shape2DView_nwe0033"  d="M 0.32000000000000006 -7.3 L 0.24834273529388307 -7.3 L 0.17758660226795886 -7.3 L 0.10862140034869316 -7.3 L 0.04231440696476285 -7.3 L -0.020500528969815357 -7.3 L -0.07903347318958936 -7.3 L -0.13254833995939036 -7.3 L -0.18037214877953905 -7.3 L -0.22190348750610184 -7.3 L -0.2566200754575482 -7.3 L -0.2840853313973552 -7.3 L -0.3039538637963671 -7.3 L -0.31597581433167526 -7.3 L -0.32 -7.3 " stroke="#191919" stroke-width="0.35 px" style="stroke-width:0.35;stroke-miterlimit:4;stroke-dasharray:none;fill:none;fill-opacity:1;fill-rule: evenodd"/>
<path id="Shape2DView_nwe0034"  d="M 4.38 -25.08 L 0.32 -25.08 " stroke="#191919" stroke-width="0.35 px" style="stroke-width:0.35;stroke-miterlimit:4;stroke-dasharray:none;fill:none;fill-opacity:1;fill-rule: evenodd"/>
<path id="Shape2DView_nwe0035"  d="M 0.32000000000000006 -25.08 L 0.24834273529388307 -25.08 L 0.17758660226795886 -25.08 L 0.10862140034869316 -25.08 L 0.04231440696476285 -25.08 L -0.020500528969815357 -25.08 L -0.07903347318958936 -25.08 L -0.13254833995939036 -25.08 L -0.18037214877953905 -25.08 L -0.22190348750610184 -25.08 L -0.2566200754575482 -25.08 L -0.2840853313973552 -25.08 L -0.3039538637963671 -25.08 L -0.31597581433167526 -25.08 L -0.32 -25.08 " stroke="#191919" stroke-width="0.35 px" style="stroke-width:0.35;stroke-miterlimit:4;stroke-dasharray:none;fill:none;fill-opacity:1;fill-rule: evenodd"/>
<path id="Shape2DView_nwe0036"  d="M 0.32 -25.72 L 4.38 -25.72 " stroke="#191919" stroke-width="0.35 px" style="stroke-width:0.35;stroke-miterlimit:4;stroke-dasharray:none;fill:none;fill-opacity:1;fill-rule: evenodd"/>
<path id="Shape2DView_nwe0037"  d="M 0.32000000000000006 -25.72 L 0.24834273529388307 -25.72 L 0.17758660226795886 -25.72 L 0.10862140034869316 -25.72 L 0.04231440696476285 -25.72 L -0.020500528969815357 -25.72 L -0.07903347318958936 -25.72 L -0.13254833995939036 -25.72 L -0.18037214877953905 -25.72 L -0.22190348750610184 -25.72 L -0.2566200754575482 -25.72 L -0.2840853313973552 -25.72 L -0.3039538637963671 -25.72 L -0.31597581433167526 -25.72 L -0.32 -25.72 " stroke="#191919" stroke-width="0.35 px" style="stroke-width:0.35;stroke-miterlimit:4;stroke-dasharray:none;fill:none;fill-opacity:1;fill-rule: evenodd"/>
<path id="Shape2DView_nwe0038"  d="M 0.32 -23.18 L 4.38 -23.18 " stroke="#191919" stroke-width="0.35 px" style="stroke-width:0.35;stroke-miterlimit:4;stroke-dasharray:none;fill:none;fill-opacity:1;fill-rule: evenodd"/>
<path id="Shape2DView_nwe0039"  d="M 4.38 -22.54 L 0.32 -22.54 " stroke="#191919" stroke-width="0.35 px" style="stroke-width:0.35;stroke-miterlimit:4;stroke-dasharray:none;fill:none;fill-opacity:1;fill-rule: evenodd"/>
<path id="Shape2DView_nwe0040"  d="M 0.32000000000000006 -22.54 L 0.24834273529388307 -22.54 L 0.17758660226795886 -22.54 L 0.10862140034869316 -22.54 L 0.04231440696476285 -22.54 L -0.020500528969815357 -22.54 L -0.07903347318958936 -22.54 L -0.13254833995939036 -22.54 L -0.18037214877953905 -22.54 L -0.22190348750610184 -22.54 L -0.2566200754575482 -22.54 L -0.2840853313973552 -22.54 L -0.3039538637963671 -22.54 L -0.31597581433167526 -22.54 L -0.32 -22.54 " stroke="#191919" stroke-width="0.35 px" style="stroke-width:0.35;stroke-miterlimit:4;stroke-dasharray:none;fill:none;fill-opacity:1;fill-rule: evenodd"/>
<path id="Shape2DView_nwe0041"  d="M 0.32000000000000006 -23.18 L 0.24834273529388307 -23.18 L 0.17758660226795886 -23.18 L 0.10862140034869316 -23.18 L 0.04231440696476285 -23.18 L -0.020500528969815357 -23.18 L -0.07903347318958936 -23.18 L -0.13254833995939036 -23.18 L -0.18037214877953905 -23.18 L -0.22190348750610184 -23.18 L -0.2566200754575482 -23.18 L -0.2840853313973552 -23.18 L -0.3039538637963671 -23.18 L -0.31597581433167526 -23.18 L -0.32 -23.18 " stroke="#191919" stroke-width="0.35 px" style="stroke-width:0.35;stroke-miterlimit:4;stroke-dasharray:none;fill:none;fill-opacity:1;fill-rule: evenodd"/>
<path id="Shape2DView_nwe0042"  d="M 0.32 -20.64 L 4.38 -20.64 " stroke="#191919" stroke-width="0.35 px" style="stroke-width:0.35;stroke-miterlimit:4;stroke-dasharray:none;fill:none;fill-opacity:1;fill-rule: evenodd"/>
<path id="Shape2DView_nwe0043"  d="M 4.38 -20.0 L 0.32 -20.0 " stroke="#191919" stroke-width="0.35 px" style="stroke-width:0.35;stroke-miterlimit:4;stroke-dasharray:none;fill:none;fill-opacity:1;fill-rule: evenodd"/>
<path id="Shape2DView_nwe0044"  d="M 0.32000000000000006 -20.0 L 0.24834273529388307 -20.0 L 0.17758660226795886 -20.0 L 0.10862140034869316 -20.0 L 0.04231440696476285 -20.0 L -0.020500528969815357 -20.0 L -0.07903347318958936 -20.0 L -0.13254833995939036 -20.0 L -0.18037214877953905 -20.0 L -0.22190348750610184 -20.0 L -0.2566200754575482 -20.0 L -0.2840853313973552 -20.0 L -0.3039538637963671 -20.0 L -0.31597581433167526 -20.0 L -0.32 -20.0 " stroke="#191919" stroke-width="0.35 px" style="stroke-width:0.35;stroke-miterlimit:4;stroke-dasharray:none;fill:none;fill-opacity:1;fill-rule: evenodd"/>
<path id="Shape2DView_nwe0045"  d="M 0.32000000000000006 -20.64 L 0.24834273529388307 -20.64 L 0.17758660226795886 -20.64 L 0.10862140034869316 -20.64 L 0.04231440696476285 -20.64 L -0.020500528969815357 -20.64 L -0.07903347318958936 -20.64 L -0.13254833995939036 -20.64 L -0.18037214877953905 -20.64 L -0.22190348750610184 -20.64 L -0.2566200754575482 -20.64 L -0.2840853313973552 -20.64 L -0.3039538637963671 -20.64 L -0.31597581433167526 -20.64 L -0.32 -20.64 " stroke="#191919" stroke-width="0.35 px" style="stroke-width:0.35;stroke-miterlimit:4;stroke-dasharray:none;fill:none;fill-opacity:1;fill-rule: evenodd"/>
<path id="Shape2DView_nwe0046"  d="M 0.32 -18.1 L 4.38 -18.1 " stroke="#191919" stroke-width="0.35 px" style="stroke-width:0.35;stroke-miterlimit:4;stroke-dasharray:none;fill:none;fill-opacity:1;fill-rule: evenodd"/>
<path id="Shape2DView_nwe0047"  d="M 0.32000000000000006 -18.1 L 0.24834273529388307 -18.1 L 0.17758660226795886 -18.1 L 0.10862140034869316 -18.1 L 0.04231440696476285 -18.1 L -0.020500528969815357 -18.1 L -0.07903347318958936 -18.1 L -0.13254833995939036 -18.1 L -0.18037214877953905 -18.1 L -0.22190348750610184 -18.1 L -0.2566200754575482 -18.1 L -0.2840853313973552 -18.1 L -0.3039538637963671 -18.1 L -0.31597581433167526 -18.1 L -0.32 -18.1 " stroke="#191919" stroke-width="0.35 px" style="stroke-width:0.35;stroke-miterlimit:4;stroke-dasharray:none;fill:none;fill-opacity:1;fill-rule: evenodd"/>
<path id="Shape2DView_nwe0048"  d="M 4.38 -17.46 L 0.32 -17.46 " stroke="#191919" stroke-width="0.35 px" style="stroke-width:0.35;stroke-miterlimit:4;stroke-dasharray:none;fill:none;fill-opacity:1;fill-rule: evenodd"/>
<path id="Shape2DView_nwe0049"  d="M 0.32000000000000006 -17.46 L 0.24834273529388307 -17.46 L 0.17758660226795886 -17.46 L 0.10862140034869316 -17.46 L 0.04231440696476285 -17.46 L -0.020500528969815357 -17.46 L -0.07903347318958936 -17.46 L -0.13254833995939036 -17.46 L -0.18037214877953905 -17.46 L -0.22190348750610184 -17.46 L -0.2566200754575482 -17.46 L -0.2840853313973552 -17.46 L -0.3039538637963671 -17.46 L -0.31597581433167526 -17.46 L -0.32 -17.46 " stroke="#191919" stroke-width="0.35 px" style="stroke-width:0.35;stroke-miterlimit:4;stroke-dasharray:none;fill:none;fill-opacity:1;fill-rule: evenodd"/>
<path id="Shape2DView_nwe0050"  d="M 4.38 -27.62 L 0.32 -27.62 " stroke="#191919" stroke-width="0.35 px" style="stroke-width:0.35;stroke-miterlimit:4;stroke-dasharray:none;fill:none;fill-opacity:1;fill-rule: evenodd"/>
<path id="Shape2DView_nwe0051"  d="M 0.32000000000000006 -27.62 L 0.24834273529388307 -27.62 L 0.17758660226795886 -27.62 L 0.10862140034869316 -27.62 L 0.04231440696476285 -27.62 L -0.020500528969815357 -27.62 L -0.07903347318958936 -27.62 L -0.13254833995939036 -27.62 L -0.18037214877953905 -27.62 L -0.22190348750610184 -27.62 L -0.2566200754575482 -27.62 L -0.2840853313973552 -27.62 L -0.3039538637963671 -27.62 L -0.31597581433167526 -27.62 L -0.32 -27.62 " stroke="#191919" stroke-width="0.35 px" style="stroke-width:0.35;stroke-miterlimit:4;stroke-dasharray:none;fill:none;fill-opacity:1;fill-rule: evenodd"/>
<path id="Shape2DView_nwe0052"  d="M 0.32 -28.26 L 4.38 -28.26 " stroke="#191919" stroke-width="0.35 px" style="stroke-width:0.35;stroke-miterlimit:4;stroke-dasharray:none;fill:none;fill-opacity:1;fill-rule: evenodd"/>
<path id="Shape2DView_nwe0053"  d="M 0.32000000000000006 -28.26 L 0.24834273529388307 -28.26 L 0.17758660226795886 -28.26 L 0.10862140034869316 -28.26 L 0.04231440696476285 -28.26 L -0.020500528969815357 -28.26 L -0.07903347318958936 -28.26 L -0.13254833995939036 -28.26 L -0.18037214877953905 -28.26 L -0.22190348750610184 -28.26 L -0.2566200754575482 -28.26 L -0.2840853313973552 -28.26 L -0.3039538637963671 -28.26 L -0.31597581433167526 -28.26 L -0.32 -28.26 " stroke="#191919" stroke-width="0.35 px" style="stroke-width:0.35;stroke-miterlimit:4;stroke-dasharray:none;fill:none;fill-opacity:1;fill-rule: evenodd"/>
<path id="Shape2DView_nwe0054"  d="M 0.32 -56.2 L 4.38 -56.2 " stroke="#191919" stroke-width="0.35 px" style="stroke-width:0.35;stroke-miterlimit:4;stroke-dasharray:none;fill:none;fill-opacity:1;fill-rule: evenodd"/>
<path id="Shape2DView_nwe0055"  d="M 0.32000000000000006 -56.2 L 0.24834273529388307 -56.2 L 0.17758660226795886 -56.2 L 0.10862140034869316 -56.2 L 0.04231440696476285 -56.2 L -0.020500528969815357 -56.2 L -0.07903347318958936 -56.2 L -0.13254833995939036 -56.2 L -0.18037214877953905 -56.2 L -0.22190348750610184 -56.2 L -0.2566200754575482 -56.2 L -0.2840853313973552 -56.2 L -0.3039538637963671 -56.2 L -0.31597581433167526 -56.2 L -0.32 -56.2 " stroke="#191919" stroke-width="0.35 px" style="stroke-width:0.35;stroke-miterlimit:4;stroke-dasharray:none;fill:none;fill-opacity:1;fill-rule: evenodd"/>
<path id="Shape2DView_nwe0056"  d="M 4.38 -55.56 L 0.32 -55.56 " stroke="#191919" stroke-width="0.35 px" style="stroke-width:0.35;stroke-miterlimit:4;stroke-dasharray:none;fill:none;fill-opacity:1;fill-rule: evenodd"/>
<path id="Shape2DView_nwe0057"  d="M 0.32000000000000006 -55.56 L 0.24834273529388307 -55.56 L 0.17758660226795886 -55.56 L 0.10862140034869316 -55.56 L 0.04231440696476285 -55.56 L -0.020500528969815357 -55.56 L -0.07903347318958936 -55.56 L -0.13254833995939036 -55.56 L -0.18037214877953905 -55.56 L -0.22190348750610184 -55.56 L -0.2566200754575482 -55.56 L -0.2840853313973552 -55.56 L -0.3039538637963671 -55.56 L -0.31597581433167526 -55.56 L -0.32 -55.56 " stroke="#191919" stroke-width="0.35 px" style="stroke-width:0.35;stroke-miterlimit:4;stroke-dasharray:none;fill:none;fill-opacity:1;fill-rule: evenodd"/>
<path id="Shape2DView_nwe0058"  d="M 0.32 -53.66 L 4.38 -53.66 " stroke="#191919" stroke-width="0.35 px" style="stroke-width:0.35;stroke-miterlimit:4;stroke-dasharray:none;fill:none;fill-opacity:1;fill-rule: evenodd"/>
<path id="Shape2DView_nwe0059"  d="M 4.38 -53.02 L 0.32 -53.02 " stroke="#191919" stroke-width="0.35 px" style="stroke-width:0.35;stroke-miterlimit:4;stroke-dasharray:none;fill:none;fill-opacity:1;fill-rule: evenodd"/>
<path id="Shape2DView_nwe0060"  d="M 0.32000000000000006 -53.02 L 0.24834273529388307 -53.02 L 0.17758660226795886 -53.02 L 0.10862140034869316 -53.02 L 0.04231440696476285 -53.02 L -0.020500528969815357 -53.02 L -0.07903347318958936 -53.02 L -0.13254833995939036 -53.02 L -0.18037214877953905 -53.02 L -0.22190348750610184 -53.02 L -0.2566200754575482 -53.02 L -0.2840853313973552 -53.02 L -0.3039538637963671 -53.02 L -0.31597581433167526 -53.02 L -0.32 -53.02 " stroke="#191919" stroke-width="0.35 px" style="stroke-width:0.35;stroke-miterlimit:4;stroke-dasharray:none;fill:none;fill-opacity:1;fill-rule: evenodd"/>
<path id="Shape2DView_nwe0061"  d="M 0.32000000000000006 -53.66 L 0.24834273529388307 -53.66 L 0.17758660226795886 -53.66 L 0.10862140034869316 -53.66 L 0.04231440696476285 -53.66 L -0.020500528969815357 -53.66 L -0.07903347318958936 -53.66 L -0.13254833995939036 -53.66 L -0.18037214877953905 -53.66 L -0.22190348750610184 -53.66 L -0.2566200754575482 -53.66 L -0.2840853313973552 -53.66 L -0.3039538637963671 -53.66 L -0.31597581433167526 -53.66 L -0.32 -53.66 " stroke="#191919" stroke-width="0.35 px" style="stroke-width:0.35;stroke-miterlimit:4;stroke-dasharray:none;fill:none;fill-opacity:1;fill-rule: evenodd"/>
<path id="Shape2DView_nwe0062"  d="M 4.38 -45.4 L 0.32 -45.4 " stroke="#191919" stroke-width="0.35 px" style="stroke-width:0.35;stroke-miterlimit:4;stroke-dasharray:none;fill:none;fill-opacity:1;fill-rule: evenodd"/>
<path id="Shape2DView_nwe0063"  d="M 0.32000000000000006 -45.4 L 0.24834273529388307 -45.4 L 0.17758660226795886 -45.4 L 0.10862140034869316 -45.4 L 0.04231440696476285 -45.4 L -0.020500528969815357 -45.4 L -0.07903347318958936 -45.4 L -0.13254833995939036 -45.4 L -0.18037214877953905 -45.4 L -0.22190348750610184 -45.4 L -0.2566200754575482 -45.4 L -0.2840853313973552 -45.4 L -0.3039538637963671 -45.4 L -0.31597581433167526 -45.4 L -0.32 -45.4 " stroke="#191919" stroke-width="0.35 px" style="stroke-width:0.35;stroke-miterlimit:4;stroke-dasharray:none;fill:none;fill-opacity:1;fill-rule: evenodd"/>
<path id="Shape2DView_nwe0064"  d="M 0.32 -46.04 L 4.38 -46.04 " stroke="#191919" stroke-width="0.35 px" style="stroke-width:0.35;stroke-miterlimit:4;stroke-dasharray:none;fill:none;fill-opacity:1;fill-rule: evenodd"/>
<path id="Shape2DView_nwe0065"  d="M 0.32000000000000006 -46.04 L 0.24834273529388307 -46.04 L 0.17758660226795886 -46.04 L 0.10862140034869316 -46.04 L 0.04231440696476285 -46.04 L -0.020500528969815357 -46.04 L -0.07903347318958936 -46.04 L -0.13254833995939036 -46.04 L -0.18037214877953905 -46.04 L -0.22190348750610184 -46.04 L -0.2566200754575482 -46.04 L -0.2840853313973552 -46.04 L -0.3039538637963671 -46.04 L -0.31597581433167526 -46.04 L -0.32 -46.04 " stroke="#191919" stroke-width="0.35 px" style="stroke-width:0.35;stroke-miterlimit:4;stroke-dasharray:none;fill:none;fill-opacity:1;fill-rule: evenodd"/>
<path id="Shape2DView_nwe0066"  d="M 4.38 -47.94 L 0.32 -47.94 " stroke="#191919" stroke-width="0.35 px" style="stroke-width:0.35;stroke-miterlimit:4;stroke-dasharray:none;fill:none;fill-opacity:1;fill-rule: evenodd"/>
<path id="Shape2DView_nwe0067"  d="M 0.32000000000000006 -47.94 L 0.24834273529388307 -47.94 L 0.17758660226795886 -47.94 L 0.10862140034869316 -47.94 L 0.04231440696476285 -47.94 L -0.020500528969815357 -47.94 L -0.07903347318958936 -47.94 L -0.13254833995939036 -47.94 L -0.18037214877953905 -47.94 L -0.22190348750610184 -47.94 L -0.2566200754575482 -47.94 L -0.2840853313973552 -47.94 L -0.3039538637963671 -47.94 L -0.31597581433167526 -47.94 L -0.32 -47.94 " stroke="#191919" stroke-width="0.35 px" style="stroke-width:0.35;stroke-miterlimit:4;stroke-dasharray:none;fill:none;fill-opacity:1;fill-rule: evenodd"/>
<path id="Shape2DView_nwe0068"  d="M 0.32 -48.58 L 4.38 -48.58 " stroke="#191919" stroke-width="0.35 px" style="stroke-width:0.35;stroke-miterlimit:4;stroke-dasharray:none;fill:none;fill-opacity:1;fill-rule: evenodd"/>
<path id="Shape2DView_nwe0069"  d="M 0.32000000000000006 -48.58 L 0.24834273529388307 -48.58 L 0.17758660226795886 -48.58 L 0.10862140034869316 -48.58 L 0.04231440696476285 -48.58 L -0.020500528969815357 -48.58 L -0.07903347318958936 -48.58 L -0.13254833995939036 -48.58 L -0.18037214877953905 -48.58 L -0.22190348750610184 -48.58 L -0.2566200754575482 -48.58 L -0.2840853313973552 -48.58 L -0.3039538637963671 -48.58 L -0.31597581433167526 -48.58 L -0.32 -48.58 " stroke="#191919" stroke-width="0.35 px" style="stroke-width:0.35;stroke-miterlimit:4;stroke-dasharray:none;fill:none;fill-opacity:1;fill-rule: evenodd"/>
<path id="Shape2DView_nwe0070"  d="M 0.32 -51.12 L 4.38 -51.12 " stroke="#191919" stroke-width="0.35 px" style="stroke-width:0.35;stroke-miterlimit:4;stroke-dasharray:none;fill:none;fill-opacity:1;fill-rule: evenodd"/>
<path id="Shape2DView_nwe0071"  d="M 0.32000000000000006 -51.12 L 0.24834273529388307 -51.12 L 0.17758660226795886 -51.12 L 0.10862140034869316 -51.12 L 0.04231440696476285 -51.12 L -0.020500528969815357 -51.12 L -0.07903347318958936 -51.12 L -0.13254833995939036 -51.12 L -0.18037214877953905 -51.12 L -0.22190348750610184 -51.12 L -0.2566200754575482 -51.12 L -0.2840853313973552 -51.12 L -0.3039538637963671 -51.12 L -0.31597581433167526 -51.12 L -0.32 -51.12 " stroke="#191919" stroke-width="0.35 px" style="stroke-width:0.35;stroke-miterlimit:4;stroke-dasharray:none;fill:none;fill-opacity:1;fill-rule: evenodd"/>
<path id="Shape2DView_nwe0072"  d="M 4.38 -50.48 L 0.32 -50.48 " stroke="#191919" stroke-width="0.35 px" style="stroke-width:0.35;stroke-miterlimit:4;stroke-dasharray:none;fill:none;fill-opacity:1;fill-rule: evenodd"/>
<path id="Shape2DView_nwe0073"  d="M 0.32000000000000006 -50.48 L 0.24834273529388307 -50.48 L 0.17758660226795886 -50.48 L 0.10862140034869316 -50.48 L 0.04231440696476285 -50.48 L -0.020500528969815357 -50.48 L -0.07903347318958936 -50.48 L -0.13254833995939036 -50.48 L -0.18037214877953905 -50.48 L -0.22190348750610184 -50.48 L -0.2566200754575482 -50.48 L -0.2840853313973552 -50.48 L -0.3039538637963671 -50.48 L -0.31597581433167526 -50.48 L -0.32 -50.48 " stroke="#191919" stroke-width="0.35 px" style="stroke-width:0.35;stroke-miterlimit:4;stroke-dasharray:none;fill:none;fill-opacity:1;fill-rule: evenodd"/>
<path id="Shape2DView_nwe0074"  d="M 0.32 -33.34 L 4.38 -33.34 " stroke="#191919" stroke-width="0.35 px" style="stroke-width:0.35;stroke-miterlimit:4;stroke-dasharray:none;fill:none;fill-opacity:1;fill-rule: evenodd"/>
<path id="Shape2DView_nwe0075"  d="M 0.32000000000000006 -33.34 L 0.24834273529388307 -33.34 L 0.17758660226795886 -33.34 L 0.10862140034869316 -33.34 L 0.04231440696476285 -33.34 L -0.020500528969815357 -33.34 L -0.07903347318958936 -33.34 L -0.13254833995939036 -33.34 L -0.18037214877953905 -33.34 L -0.22190348750610184 -33.34 L -0.2566200754575482 -33.34 L -0.2840853313973552 -33.34 L -0.3039538637963671 -33.34 L -0.31597581433167526 -33.34 L -0.32 -33.34 " stroke="#191919" stroke-width="0.35 px" style="stroke-width:0.35;stroke-miterlimit:4;stroke-dasharray:none;fill:none;fill-opacity:1;fill-rule: evenodd"/>
<path id="Shape2DView_nwe0076"  d="M 4.38 -32.7 L 0.32 -32.7 " stroke="#191919" stroke-width="0.35 px" style="stroke-width:0.35;stroke-miterlimit:4;stroke-dasharray:none;fill:none;fill-opacity:1;fill-rule: evenodd"/>
<path id="Shape2DView_nwe0077"  d="M 0.32000000000000006 -32.7 L 0.24834273529388307 -32.7 L 0.17758660226795886 -32.7 L 0.10862140034869316 -32.7 L 0.04231440696476285 -32.7 L -0.020500528969815357 -32.7 L -0.07903347318958936 -32.7 L -0.13254833995939036 -32.7 L -0.18037214877953905 -32.7 L -0.22190348750610184 -32.7 L -0.2566200754575482 -32.7 L -0.2840853313973552 -32.7 L -0.3039538637963671 -32.7 L -0.31597581433167526 -32.7 L -0.32 -32.7 " stroke="#191919" stroke-width="0.35 px" style="stroke-width:0.35;stroke-miterlimit:4;stroke-dasharray:none;fill:none;fill-opacity:1;fill-rule: evenodd"/>
<path id="Shape2DView_nwe0078"  d="M 0.32 -35.88 L 4.38 -35.88 " stroke="#191919" stroke-width="0.35 px" style="stroke-width:0.35;stroke-miterlimit:4;stroke-dasharray:none;fill:none;fill-opacity:1;fill-rule: evenodd"/>
<path id="Shape2DView_nwe0079"  d="M 4.38 -35.24 L 0.32 -35.24 " stroke="#191919" stroke-width="0.35 px" style="stroke-width:0.35;stroke-miterlimit:4;stroke-dasharray:none;fill:none;fill-opacity:1;fill-rule: evenodd"/>
<path id="Shape2DView_nwe0080"  d="M 0.32000000000000006 -35.24 L 0.24834273529388307 -35.24 L 0.17758660226795886 -35.24 L 0.10862140034869316 -35.24 L 0.04231440696476285 -35.24 L -0.020500528969815357 -35.24 L -0.07903347318958936 -35.24 L -0.13254833995939036 -35.24 L -0.18037214877953905 -35.24 L -0.22190348750610184 -35.24 L -0.2566200754575482 -35.24 L -0.2840853313973552 -35.24 L -0.3039538637963671 -35.24 L -0.31597581433167526 -35.24 L -0.32 -35.24 " stroke="#191919" stroke-width="0.35 px" style="stroke-width:0.35;stroke-miterlimit:4;stroke-dasharray:none;fill:none;fill-opacity:1;fill-rule: evenodd"/>
<path id="Shape2DView_nwe0081"  d="M 0.32000000000000006 -35.88 L 0.24834273529388307 -35.88 L 0.17758660226795886 -35.88 L 0.10862140034869316 -35.88 L 0.04231440696476285 -35.88 L -0.020500528969815357 -35.88 L -0.07903347318958936 -35.88 L -0.13254833995939036 -35.88 L -0.18037214877953905 -35.88 L -0.22190348750610184 -35.88 L -0.2566200754575482 -35.88 L -0.2840853313973552 -35.88 L -0.3039538637963671 -35.88 L -0.31597581433167526 -35.88 L -0.32 -35.88 " stroke="#191919" stroke-width="0.35 px" style="stroke-width:0.35;stroke-miterlimit:4;stroke-dasharray:none;fill:none;fill-opacity:1;fill-rule: evenodd"/>
<path id="Shape2DView_nwe0082"  d="M 0.32 -40.96 L 4.38 -40.96 " stroke="#191919" stroke-width="0.35 px" style="stroke-width:0.35;stroke-miterlimit:4;stroke-dasharray:none;fill:none;fill-opacity:1;fill-rule: evenodd"/>
<path id="Shape2DView_nwe0083"  d="M 0.32000000000000006 -40.96 L 0.24834273529388307 -40.96 L 0.17758660226795886 -40.96 L 0.10862140034869316 -40.96 L 0.04231440696476285 -40.96 L -0.020500528969815357 -40.96 L -0.07903347318958936 -40.96 L -0.13254833995939036 -40.96 L -0.18037214877953905 -40.96 L -0.22190348750610184 -40.96 L -0.2566200754575482 -40.96 L -0.2840853313973552 -40.96 L -0.3039538637963671 -40.96 L -0.31597581433167526 -40.96 L -0.32 -40.96 " stroke="#191919" stroke-width="0.35 px" style="stroke-width:0.35;stroke-miterlimit:4;stroke-dasharray:none;fill:none;fill-opacity:1;fill-rule: evenodd"/>
<path id="Shape2DView_nwe0084"  d="M 4.38 -40.32 L 0.32 -40.32 " stroke="#191919" stroke-width="0.35 px" style="stroke-width:0.35;stroke-miterlimit:4;stroke-dasharray:none;fill:none;fill-opacity:1;fill-rule: evenodd"/>
<path id="Shape2DView_nwe0085"  d="M 0.32000000000000006 -40.32 L 0.24834273529388307 -40.32 L 0.17758660226795886 -40.32 L 0.10862140034869316 -40.32 L 0.04231440696476285 -40.32 L -0.020500528969815357 -40.32 L -0.07903347318958936 -40.32 L -0.13254833995939036 -40.32 L -0.18037214877953905 -40.32 L -0.22190348750610184 -40.32 L -0.2566200754575482 -40.32 L -0.2840853313973552 -40.32 L -0.3039538637963671 -40.32 L -0.31597581433167526 -40.32 L -0.32 -40.32 " stroke="#191919" stroke-width="0.35 px" style="stroke-width:0.35;stroke-miterlimit:4;stroke-dasharray:none;fill:none;fill-opacity:1;fill-rule: evenodd"/>
<path id="Shape2DView_nwe0086"  d="M 0.32 -38.42 L 4.38 -38.42 " stroke="#191919" stroke-width="0.35 px" style="stroke-width:0.35;stroke-miterlimit:4;stroke-dasharray:none;fill:none;fill-opacity:1;fill-rule: evenodd"/>
<path id="Shape2DView_nwe0087"  d="M 4.38 -37.78 L 0.32 -37.78 " stroke="#191919" stroke-width="0.35 px" style="stroke-width:0.35;stroke-miterlimit:4;stroke-dasharray:none;fill:none;fill-opacity:1;fill-rule: evenodd"/>
<path id="Shape2DView_nwe0088"  d="M 0.32000000000000006 -37.78 L 0.24834273529388307 -37.78 L 0.17758660226795886 -37.78 L 0.10862140034869316 -37.78 L 0.04231440696476285 -37.78 L -0.020500528969815357 -37.78 L -0.07903347318958936 -37.78 L -0.13254833995939036 -37.78 L -0.18037214877953905 -37.78 L -0.22190348750610184 -37.78 L -0.2566200754575482 -37.78 L -0.2840853313973552 -37.78 L -0.3039538637963671 -37.78 L -0.31597581433167526 -37.78 L -0.32 -37.78 " stroke="#191919" stroke-width="0.35 px" style="stroke-width:0.35;stroke-miterlimit:4;stroke-dasharray:none;fill:none;fill-opacity:1;fill-rule: evenodd"/>
<path id="Shape2DView_nwe0089"  d="M 0.32000000000000006 -38.42 L 0.24834273529388307 -38.42 L 0.17758660226795886 -38.42 L 0.10862140034869316 -38.42 L 0.04231440696476285 -38.42 L -0.020500528969815357 -38.42 L -0.07903347318958936 -38.42 L -0.13254833995939036 -38.42 L -0.18037214877953905 -38.42 L -0.22190348750610184 -38.42 L -0.2566200754575482 -38.42 L -0.2840853313973552 -38.42 L -0.3039538637963671 -38.42 L -0.31597581433167526 -38.42 L -0.32 -38.42 " stroke="#191919" stroke-width="0.35 px" style="stroke-width:0.35;stroke-miterlimit:4;stroke-dasharray:none;fill:none;fill-opacity:1;fill-rule: evenodd"/>
<path id="Shape2DView_nwe0090"  d="M 0.32 -43.5 L 4.38 -43.5 " stroke="#191919" stroke-width="0.35 px" style="stroke-width:0.35;stroke-miterlimit:4;stroke-dasharray:none;fill:none;fill-opacity:1;fill-rule: evenodd"/>
<path id="Shape2DView_nwe0091"  d="M 0.32000000000000006 -43.5 L 0.24834273529388307 -43.5 L 0.17758660226795886 -43.5 L 0.10862140034869316 -43.5 L 0.04231440696476285 -43.5 L -0.020500528969815357 -43.5 L -0.07903347318958936 -43.5 L -0.13254833995939036 -43.5 L -0.18037214877953905 -43.5 L -0.22190348750610184 -43.5 L -0.2566200754575482 -43.5 L -0.2840853313973552 -43.5 L -0.3039538637963671 -43.5 L -0.31597581433167526 -43.5 L -0.32 -43.5 " stroke="#191919" stroke-width="0.35 px" style="stroke-width:0.35;stroke-miterlimit:4;stroke-dasharray:none;fill:none;fill-opacity:1;fill-rule: evenodd"/>
<path id="Shape2DView_nwe0092"  d="M 4.38 -42.86 L 0.32 -42.86 " stroke="#191919" stroke-width="0.35 px" style="stroke-width:0.35;stroke-miterlimit:4;stroke-dasharray:none;fill:none;fill-opacity:1;fill-rule: evenodd"/>
<path id="Shape2DView_nwe0093"  d="M 0.32000000000000006 -42.86 L 0.24834273529388307 -42.86 L 0.17758660226795886 -42.86 L 0.10862140034869316 -42.86 L 0.04231440696476285 -42.86 L -0.020500528969815357 -42.86 L -0.07903347318958936 -42.86 L -0.13254833995939036 -42.86 L -0.18037214877953905 -42.86 L -0.22190348750610184 -42.86 L -0.2566200754575482 -42.86 L -0.2840853313973552 -42.86 L -0.3039538637963671 -42.86 L -0.31597581433167526 -42.86 L -0.32 -42.86 " stroke="#191919" stroke-width="0.35 px" style="stroke-width:0.35;stroke-miterlimit:4;stroke-dasharray:none;fill:none;fill-opacity:1;fill-rule: evenodd"/>
<path id="Shape2DView_nwe0094"  d="M 0.32 -30.8 L 4.13 -30.8 " stroke="#191919" stroke-width="0.35 px" style="stroke-width:0.35;stroke-miterlimit:4;stroke-dasharray:none;fill:none;fill-opacity:1;fill-rule: evenodd"/>
<path id="Shape2DView_nwe0095"  d="M 4.13 -30.16 L 0.32 -30.16 " stroke="#191919" stroke-width="0.35 px" style="stroke-width:0.35;stroke-miterlimit:4;stroke-dasharray:none;fill:none;fill-opacity:1;fill-rule: evenodd"/>
<path id="Shape2DView_nwe0096"  d="M 0.32000000000000006 -30.16 L 0.24834273529388307 -30.16 L 0.17758660226795886 -30.16 L 0.10862140034869316 -30.16 L 0.04231440696476285 -30.16 L -0.020500528969815357 -30.16 L -0.07903347318958936 -30.16 L -0.13254833995939036 -30.16 L -0.18037214877953905 -30.16 L -0.22190348750610184 -30.16 L -0.2566200754575482 -30.16 L -0.2840853313973552 -30.16 L -0.3039538637963671 -30.16 L -0.31597581433167526 -30.16 L -0.32 -30.16 " stroke="#191919" stroke-width="0.35 px" style="stroke-width:0.35;stroke-miterlimit:4;stroke-dasharray:none;fill:none;fill-opacity:1;fill-rule: evenodd"/>
<path id="Shape2DView_nwe0097"  d="M 0.32000000000000006 -30.8 L 0.24834273529388307 -30.8 L 0.17758660226795886 -30.8 L 0.10862140034869316 -30.8 L 0.04231440696476285 -30.8 L -0.020500528969815357 -30.8 L -0.07903347318958936 -30.8 L -0.13254833995939036 -30.8 L -0.18037214877953905 -30.8 L -0.22190348750610184 -30.8 L -0.2566200754575482 -30.8 L -0.2840853313973552 -30.8 L -0.3039538637963671 -30.8 L -0.31597581433167526 -30.8 L -0.32 -30.8 " stroke="#191919" stroke-width="0.35 px" style="stroke-width:0.35;stroke-miterlimit:4;stroke-dasharray:none;fill:none;fill-opacity:1;fill-rule: evenodd"/>
<path id="Shape2DView_nwe0098"  d="M 4.13 -29.98 L 4.13 -29.992536043909087 L 4.13 -30.02951556604879 L 4.13 -30.089084258765986 L 4.13 -30.168255099070635 L 4.13 -30.26305813044122 L 4.13 -30.36873953302184 L 4.13 -30.48 L 4.13 -30.591260466978156 L 4.13 -30.696941869558778 L 4.13 -30.791744900929366 L 4.13 -30.870915741234015 L 4.13 -30.93048443395121 L 4.13 -30.967463956090914 L 4.13 -30.98 " stroke="#191919" stroke-width="0.35 px" style="stroke-width:0.35;stroke-miterlimit:4;stroke-dasharray:none;fill:none;fill-opacity:1;fill-rule: evenodd"/>
<path id="Shape2DView_nwe0099"  d="M 4.38 -60.64 L 0.32 -60.64 " stroke="#191919" stroke-width="0.35 px" style="stroke-width:0.35;stroke-miterlimit:4;stroke-dasharray:none;fill:none;fill-opacity:1;fill-rule: evenodd"/>
<path id="Shape2DView_nwe0100"  d="M 0.32000000000000006 -60.64 L 0.24834273529388307 -60.64 L 0.17758660226795886 -60.64 L 0.10862140034869316 -60.64 L 0.04231440696476285 -60.64 L -0.020500528969815357 -60.64 L -0.07903347318958936 -60.64 L -0.13254833995939036 -60.64 L -0.18037214877953905 -60.64 L -0.22190348750610184 -60.64 L -0.2566200754575482 -60.64 L -0.2840853313973552 -60.64 L -0.3039538637963671 -60.64 L -0.31597581433167526 -60.64 L -0.32 -60.64 " stroke="#191919" stroke-width="0.35 px" style="stroke-width:0.35;stroke-miterlimit:4;stroke-dasharray:none;fill:none;fill-opacity:1;fill-rule: evenodd"/>
<path id="Shape2DView_nwe0101"  d="M 0.32 -61.28 L 4.38 -61.28 " stroke="#191919" stroke-width="0.35 px" style="stroke-width:0.35;stroke-miterlimit:4;stroke-dasharray:none;fill:none;fill-opacity:1;fill-rule: evenodd"/>
<path id="Shape2DView_nwe0102"  d="M 0.32000000000000006 -61.28 L 0.24834273529388307 -61.28 L 0.17758660226795886 -61.28 L 0.10862140034869316 -61.28 L 0.04231440696476285 -61.28 L -0.020500528969815357 -61.28 L -0.07903347318958936 -61.28 L -0.13254833995939036 -61.28 L -0.18037214877953905 -61.28 L -0.22190348750610184 -61.28 L -0.2566200754575482 -61.28 L -0.2840853313973552 -61.28 L -0.3039538637963671 -61.28 L -0.31597581433167526 -61.28 L -0.32 -61.28 " stroke="#191919" stroke-width="0.35 px" style="stroke-width:0.35;stroke-miterlimit:4;stroke-dasharray:none;fill:none;fill-opacity:1;fill-rule: evenodd"/>
<path id="Shape2DView_nwe0103"  d="M 0.32 -58.74 L 4.38 -58.74 " stroke="#191919" stroke-width="0.35 px" style="stroke-width:0.35;stroke-miterlimit:4;stroke-dasharray:none;fill:none;fill-opacity:1;fill-rule: evenodd"/>
<path id="Shape2DView_nwe0104"  d="M 4.38 -58.1 L 0.32 -58.1 " stroke="#191919" stroke-width="0.35 px" style="stroke-width:0.35;stroke-miterlimit:4;stroke-dasharray:none;fill:none;fill-opacity:1;fill-rule: evenodd"/>
<path id="Shape2DView_nwe0105"  d="M 0.32000000000000006 -58.1 L 0.24834273529388307 -58.1 L 0.17758660226795886 -58.1 L 0.10862140034869316 -58.1 L 0.04231440696476285 -58.1 L -0.020500528969815357 -58.1 L -0.07903347318958936 -58.1 L -0.13254833995939036 -58.1 L -0.18037214877953905 -58.1 L -0.22190348750610184 -58.1 L -0.2566200754575482 -58.1 L -0.2840853313973552 -58.1 L -0.3039538637963671 -58.1 L -0.31597581433167526 -58.1 L -0.32 -58.1 " stroke="#191919" stroke-width="0.35 px" style="stroke-width:0.35;stroke-miterlimit:4;stroke-dasharray:none;fill:none;fill-opacity:1;fill-rule: evenodd"/>
<path id="Shape2DView_nwe0106"  d="M 0.32000000000000006 -58.74 L 0.24834273529388307 -58.74 L 0.17758660226795886 -58.74 L 0.10862140034869316 -58.74 L 0.04231440696476285 -58.74 L -0.020500528969815357 -58.74 L -0.07903347318958936 -58.74 L -0.13254833995939036 -58.74 L -0.18037214877953905 -58.74 L -0.22190348750610184 -58.74 L -0.2566200754575482 -58.74 L -0.2840853313973552 -58.74 L -0.3039538637963671 -58.74 L -0.31597581433167526 -58.74 L -0.32 -58.74 " stroke="#191919" stroke-width="0.35 px" style="stroke-width:0.35;stroke-miterlimit:4;stroke-dasharray:none;fill:none;fill-opacity:1;fill-rule: evenodd"/>
<path id="Shape2DView_nwe0107"  d="M 0.32 -0.32 L 4.38 -0.32 " stroke="#191919" stroke-width="0.35 px" style="stroke-width:0.35;stroke-miterlimit:4;stroke-dasharray:none;fill:none;fill-opacity:1;fill-rule: evenodd"/>
<path id="Shape2DView_nwe0108"  d="M 0.32000000000000006 -0.32 L 0.24834273529388307 -0.32 L 0.17758660226795886 -0.32 L 0.10862140034869316 -0.32 L 0.04231440696476285 -0.32 L -0.020500528969815357 -0.32 L -0.07903347318958936 -0.32 L -0.13254833995939036 -0.32 L -0.18037214877953905 -0.32 L -0.22190348750610184 -0.32 L -0.2566200754575482 -0.32 L -0.2840853313973552 -0.32 L -0.3039538637963671 -0.32 L -0.31597581433167526 -0.32 L -0.32 -0.32 " stroke="#191919" stroke-width="0.35 px" style="stroke-width:0.35;stroke-miterlimit:4;stroke-dasharray:none;fill:none;fill-opacity:1;fill-rule: evenodd"/>
<path id="Shape2DView_nwe0109"  d="M 4.38 0.32 L 0.32 0.32 " stroke="#191919" stroke-width="0.35 px" style="stroke-width:0.35;stroke-miterlimit:4;stroke-dasharray:none;fill:none;fill-opacity:1;fill-rule: evenodd"/>
<path id="Shape2DView_nwe0110"  d="M 0.32000000000000006 0.32 L 0.24834273529388307 0.32 L 0.17758660226795886 0.32 L 0.10862140034869316 0.32 L 0.04231440696476285 0.32 L -0.020500528969815357 0.32 L -0.07903347318958936 0.32 L -0.13254833995939036 0.32 L -0.18037214877953905 0.32 L -0.22190348750610184 0.32 L -0.2566200754575482 0.32 L -0.2840853313973552 0.32 L -0.3039538637963671 0.32 L -0.31597581433167526 0.32 L -0.32 0.32 " stroke="#191919" stroke-width="0.35 px" style="stroke-width:0.35;stroke-miterlimit:4;stroke-dasharray:none;fill:none;fill-opacity:1;fill-rule: evenodd"/>
<path id="Shape2DView_nwe0111"  d="M 4.13 3.1 L 4.13 3.087463956090912 L 4.13 3.0504844339512096 L 4.13 2.990915741234015 L 4.13 2.9117449009293668 L 4.13 2.816941869558779 L 4.13 2.7112604669781573 L 4.13 2.6 L 4.13 2.488739533021843 L 4.13 2.383058130441221 L 4.13 2.2882550990706334 L 4.13 2.2090842587659854 L 4.13 2.1495155660487906 L 4.13 2.1125360439090883 L 4.13 2.1 " stroke="#191919" stroke-width="0.35 px" style="stroke-width:0.35;stroke-miterlimit:4;stroke-dasharray:none;fill:none;fill-opacity:1;fill-rule: evenodd"/>
<path id="Shape2DView_nwe0112"  d="M 4.13 -63.06 L 4.13 -63.07253604390909 L 4.13 -63.10951556604879 L 4.13 -63.169084258765984 L 4.13 -63.24825509907063 L 4.13 -63.34305813044122 L 4.13 -63.44873953302184 L 4.13 -63.56 L 4.13 -63.67126046697816 L 4.13 -63.77694186955878 L 4.13 -63.87174490092937 L 4.13 -63.95091574123402 L 4.13 -64.0104844339512 L 4.13 -64.04746395609091 L 4.13 -64.06 " stroke="#191919" stroke-width="0.35 px" style="stroke-width:0.35;stroke-miterlimit:4;stroke-dasharray:none;fill:none;fill-opacity:1;fill-rule: evenodd"/>
<path id="Shape2DView_nwe0113"  d="M 6.73 -30.8 L 12.18 -30.8 " stroke="#191919" stroke-width="0.35 px" style="stroke-width:0.35;stroke-miterlimit:4;stroke-dasharray:none;fill:none;fill-opacity:1;fill-rule: evenodd"/>
<path id="Shape2DView_nwe0114"  d="M 12.18 -30.16 L 12.18 -30.8 " stroke="#191919" stroke-width="0.35 px" style="stroke-width:0.35;stroke-miterlimit:4;stroke-dasharray:none;fill:none;fill-opacity:1;fill-rule: evenodd"/>
<path id="Shape2DView_nwe0115"  d="M 12.18 -30.16 L 6.73 -30.16 " stroke="#191919" stroke-width="0.35 px" style="stroke-width:0.35;stroke-miterlimit:4;stroke-dasharray:none;fill:none;fill-opacity:1;fill-rule: evenodd"/>
<path id="Shape2DView_nwe0116"  d="M 12.18 -32.7 L 6.73 -32.7 " stroke="#191919" stroke-width="0.35 px" style="stroke-width:0.35;stroke-miterlimit:4;stroke-dasharray:none;fill:none;fill-opacity:1;fill-rule: evenodd"/>
<path id="Shape2DView_nwe0117"  d="M 12.18 -32.7 L 12.18 -32.73 " stroke="#191919" stroke-width="0.35 px" style="stroke-width:0.35;stroke-miterlimit:4;stroke-dasharray:none;fill:none;fill-opacity:1;fill-rule: evenodd"/>
<path id="Shape2DView_nwe0118"  d="M 6.73 -28.26 L 12.18 -28.26 " stroke="#191919" stroke-width="0.35 px" style="stroke-width:0.35;stroke-miterlimit:4;stroke-dasharray:none;fill:none;fill-opacity:1;fill-rule: evenodd"/>
<path id="Shape2DView_nwe0119"  d="M 12.18 -28.23 L 12.18 -28.26 " stroke="#191919" stroke-width="0.35 px" style="stroke-width:0.35;stroke-miterlimit:4;stroke-dasharray:none;fill:none;fill-opacity:1;fill-rule: evenodd"/>
<path id="Shape2DView_nwe0120"  d="M -0.32 -12.38 L -0.32 -13.02 " stroke="#191919" stroke-width="0.35 px" style="stroke-width:0.35;stroke-miterlimit:4;stroke-dasharray:none;fill:none;fill-opacity:1;fill-rule: evenodd"/>
<path id="Shape2DView_nwe0121"  d="M -0.32 -14.92 L -0.32 -15.56 " stroke="#191919" stroke-width="0.35 px" style="stroke-width:0.35;stroke-miterlimit:4;stroke-dasharray:none;fill:none;fill-opacity:1;fill-rule: evenodd"/>
<path id="Shape2DView_nwe0122"  d="M -0.32 -9.84 L -0.32 -10.48 " stroke="#191919" stroke-width="0.35 px" style="stroke-width:0.35;stroke-miterlimit:4;stroke-dasharray:none;fill:none;fill-opacity:1;fill-rule: evenodd"/>
<path id="Shape2DView_nwe0123"  d="M -0.32 -2.22 L -0.32 -2.86 " stroke="#191919" stroke-width="0.35 px" style="stroke-width:0.35;stroke-miterlimit:4;stroke-dasharray:none;fill:none;fill-opacity:1;fill-rule: evenodd"/>
<path id="Shape2DView_nwe0124"  d="M -0.32 -4.76 L -0.32 -5.4 " stroke="#191919" stroke-width="0.35 px" style="stroke-width:0.35;stroke-miterlimit:4;stroke-dasharray:none;fill:none;fill-opacity:1;fill-rule: evenodd"/>
<path id="Shape2DView_nwe0125"  d="M -0.32 -7.3 L -0.32 -7.94 " stroke="#191919" stroke-width="0.35 px" style="stroke-width:0.35;stroke-miterlimit:4;stroke-dasharray:none;fill:none;fill-opacity:1;fill-rule: evenodd"/>
<path id="Shape2DView_nwe0126"  d="M -0.32 -25.08 L -0.32 -25.72 " stroke="#191919" stroke-width="0.35 px" style="stroke-width:0.35;stroke-miterlimit:4;stroke-dasharray:none;fill:none;fill-opacity:1;fill-rule: evenodd"/>
<path id="Shape2DView_nwe0127"  d="M -0.32 -22.54 L -0.32 -23.18 " stroke="#191919" stroke-width="0.35 px" style="stroke-width:0.35;stroke-miterlimit:4;stroke-dasharray:none;fill:none;fill-opacity:1;fill-rule: evenodd"/>
<path id="Shape2DView_nwe0128"  d="M -0.32 -20.0 L -0.32 -20.64 " stroke="#191919" stroke-width="0.35 px" style="stroke-width:0.35;stroke-miterlimit:4;stroke-dasharray:none;fill:none;fill-opacity:1;fill-rule: evenodd"/>
<path id="Shape2DView_nwe0129"  d="M -0.32 -17.46 L -0.32 -18.1 " stroke="#191919" stroke-width="0.35 px" style="stroke-width:0.35;stroke-miterlimit:4;stroke-dasharray:none;fill:none;fill-opacity:1;fill-rule: evenodd"/>
<path id="Shape2DView_nwe0130"  d="M -0.32 -27.62 L -0.32 -28.26 " stroke="#191919" stroke-width="0.35 px" style="stroke-width:0.35;stroke-miterlimit:4;stroke-dasharray:none;fill:none;fill-opacity:1;fill-rule: evenodd"/>
<path id="Shape2DView_nwe0131"  d="M -0.32 -55.56 L -0.32 -56.2 " stroke="#191919" stroke-width="0.35 px" style="stroke-width:0.35;stroke-miterlimit:4;stroke-dasharray:none;fill:none;fill-opacity:1;fill-rule: evenodd"/>
<path id="Shape2DView_nwe0132"  d="M -0.32 -53.02 L -0.32 -53.66 " stroke="#191919" stroke-width="0.35 px" style="stroke-width:0.35;stroke-miterlimit:4;stroke-dasharray:none;fill:none;fill-opacity:1;fill-rule: evenodd"/>
<path id="Shape2DView_nwe0133"  d="M -0.32 -45.4 L -0.32 -46.04 " stroke="#191919" stroke-width="0.35 px" style="stroke-width:0.35;stroke-miterlimit:4;stroke-dasharray:none;fill:none;fill-opacity:1;fill-rule: evenodd"/>
<path id="Shape2DView_nwe0134"  d="M -0.32 -47.94 L -0.32 -48.58 " stroke="#191919" stroke-width="0.35 px" style="stroke-width:0.35;stroke-miterlimit:4;stroke-dasharray:none;fill:none;fill-opacity:1;fill-rule: evenodd"/>
<path id="Shape2DView_nwe0135"  d="M -0.32 -50.48 L -0.32 -51.12 " stroke="#191919" stroke-width="0.35 px" style="stroke-width:0.35;stroke-miterlimit:4;stroke-dasharray:none;fill:none;fill-opacity:1;fill-rule: evenodd"/>
<path id="Shape2DView_nwe0136"  d="M -0.32 -32.7 L -0.32 -33.34 " stroke="#191919" stroke-width="0.35 px" style="stroke-width:0.35;stroke-miterlimit:4;stroke-dasharray:none;fill:none;fill-opacity:1;fill-rule: evenodd"/>
<path id="Shape2DView_nwe0137"  d="M -0.32 -35.24 L -0.32 -35.88 " stroke="#191919" stroke-width="0.35 px" style="stroke-width:0.35;stroke-miterlimit:4;stroke-dasharray:none;fill:none;fill-opacity:1;fill-rule: evenodd"/>
<path id="Shape2DView_nwe0138"  d="M -0.32 -40.32 L -0.32 -40.96 " stroke="#191919" stroke-width="0.35 px" style="stroke-width:0.35;stroke-miterlimit:4;stroke-dasharray:none;fill:none;fill-opacity:1;fill-rule: evenodd"/>
<path id="Shape2DView_nwe0139"  d="M -0.32 -37.78 L -0.32 -38.42 " stroke="#191919" stroke-width="0.35 px" style="stroke-width:0.35;stroke-miterlimit:4;stroke-dasharray:none;fill:none;fill-opacity:1;fill-rule: evenodd"/>
<path id="Shape2DView_nwe0140"  d="M -0.32 -42.86 L -0.32 -43.5 " stroke="#191919" stroke-width="0.35 px" style="stroke-width:0.35;stroke-miterlimit:4;stroke-dasharray:none;fill:none;fill-opacity:1;fill-rule: evenodd"/>
<path id="Shape2DView_nwe0141"  d="M -0.32 -30.16 L -0.32 -30.8 " stroke="#191919" stroke-width="0.35 px" style="stroke-width:0.35;stroke-miterlimit:4;stroke-dasharray:none;fill:none;fill-opacity:1;fill-rule: evenodd"/>
<path id="Shape2DView_nwe0142"  d="M -0.32 -60.64 L -0.32 -61.28 " stroke="#191919" stroke-width="0.35 px" style="stroke-width:0.35;stroke-miterlimit:4;stroke-dasharray:none;fill:none;fill-opacity:1;fill-rule: evenodd"/>
<path id="Shape2DView_nwe0143"  d="M -0.32 -58.1 L -0.32 -58.74 " stroke="#191919" stroke-width="0.35 px" style="stroke-width:0.35;stroke-miterlimit:4;stroke-dasharray:none;fill:none;fill-opacity:1;fill-rule: evenodd"/>
<path id="Shape2DView_nwe0144"  d="M -0.32 0.32 L -0.32 -0.32 " stroke="#191919" stroke-width="0.35 px" style="stroke-width:0.35;stroke-miterlimit:4;stroke-dasharray:none;fill:none;fill-opacity:1;fill-rule: evenodd"/>
<path id="Shape2DView_nwe0145"  d="M 12.180000000001 -30.159999999998 L 12.380000000001 -30.359999999998 " stroke="#191919" stroke-width="0.35 px" style="stroke-width:0.35;stroke-miterlimit:4;stroke-dasharray:none;fill:none;fill-opacity:1;fill-rule: evenodd"/>
<path id="Shape2DView_nwe0146"  d="M 12.179999999997666 -30.799999999995332 L 12.379999999997667 -30.599999999995333 " stroke="#191919" stroke-width="0.35 px" style="stroke-width:0.35;stroke-miterlimit:4;stroke-dasharray:none;fill:none;fill-opacity:1;fill-rule: evenodd"/>
<path id="Shape2DView_nwe0147"  d="M 12.38 -30.36 L 12.38 -30.6 " stroke="#191919" stroke-width="0.35 px" style="stroke-width:0.35;stroke-miterlimit:4;stroke-dasharray:none;fill:none;fill-opacity:1;fill-rule: evenodd"/>
<path id="Shape2DView_nwe0148"  d="M 12.180000000001 -32.699999999998006 L 12.210000000002994 -32.73 " stroke="#191919" stroke-width="0.35 px" style="stroke-width:0.35;stroke-miterlimit:4;stroke-dasharray:none;fill:none;fill-opacity:1;fill-rule: evenodd"/>
<path id="Shape2DView_nwe0149"  d="M 12.179999999997666 -28.259999999995333 L 12.209999999993 -28.23 " stroke="#191919" stroke-width="0.35 px" style="stroke-width:0.35;stroke-miterlimit:4;stroke-dasharray:none;fill:none;fill-opacity:1;fill-rule: evenodd"/>
<path id="Shape2DView_nwe0150"  d="M 0.32 -12.38 L 0.32 -13.02 " stroke="#191919" stroke-width="0.35 px" style="stroke-width:0.35;stroke-miterlimit:4;stroke-dasharray:none;fill:none;fill-opacity:1;fill-rule: evenodd"/>
<path id="Shape2DView_nwe0151"  d="M 0.32 -14.92 L 0.32 -15.56 " stroke="#191919" stroke-width="0.35 px" style="stroke-width:0.35;stroke-miterlimit:4;stroke-dasharray:none;fill:none;fill-opacity:1;fill-rule: evenodd"/>
<path id="Shape2DView_nwe0152"  d="M 0.32 -9.84 L 0.32 -10.48 " stroke="#191919" stroke-width="0.35 px" style="stroke-width:0.35;stroke-miterlimit:4;stroke-dasharray:none;fill:none;fill-opacity:1;fill-rule: evenodd"/>
<path id="Shape2DView_nwe0153"  d="M 0.32 -2.22 L 0.32 -2.86 " stroke="#191919" stroke-width="0.35 px" style="stroke-width:0.35;stroke-miterlimit:4;stroke-dasharray:none;fill:none;fill-opacity:1;fill-rule: evenodd"/>
<path id="Shape2DView_nwe0154"  d="M 0.32 -4.76 L 0.32 -5.4 " stroke="#191919" stroke-width="0.35 px" style="stroke-width:0.35;stroke-miterlimit:4;stroke-dasharray:none;fill:none;fill-opacity:1;fill-rule: evenodd"/>
<path id="Shape2DView_nwe0155"  d="M 0.32 -7.3 L 0.32 -7.94 " stroke="#191919" stroke-width="0.35 px" style="stroke-width:0.35;stroke-miterlimit:4;stroke-dasharray:none;fill:none;fill-opacity:1;fill-rule: evenodd"/>
<path id="Shape2DView_nwe0156"  d="M 0.32 -25.08 L 0.32 -25.72 " stroke="#191919" stroke-width="0.35 px" style="stroke-width:0.35;stroke-miterlimit:4;stroke-dasharray:none;fill:none;fill-opacity:1;fill-rule: evenodd"/>
<path id="Shape2DView_nwe0157"  d="M 0.32 -22.54 L 0.32 -23.18 " stroke="#191919" stroke-width="0.35 px" style="stroke-width:0.35;stroke-miterlimit:4;stroke-dasharray:none;fill:none;fill-opacity:1;fill-rule: evenodd"/>
<path id="Shape2DView_nwe0158"  d="M 0.32 -20.0 L 0.32 -20.64 " stroke="#191919" stroke-width="0.35 px" style="stroke-width:0.35;stroke-miterlimit:4;stroke-dasharray:none;fill:none;fill-opacity:1;fill-rule: evenodd"/>
<path id="Shape2DView_nwe0159"  d="M 0.32 -17.46 L 0.32 -18.1 " stroke="#191919" stroke-width="0.35 px" style="stroke-width:0.35;stroke-miterlimit:4;stroke-dasharray:none;fill:none;fill-opacity:1;fill-rule: evenodd"/>
<path id="Shape2DView_nwe0160"  d="M 0.32 -27.62 L 0.32 -28.26 " stroke="#191919" stroke-width="0.35 px" style="stroke-width:0.35;stroke-miterlimit:4;stroke-dasharray:none;fill:none;fill-opacity:1;fill-rule: evenodd"/>
<path id="Shape2DView_nwe0161"  d="M 0.32 -55.56 L 0.32 -56.2 " stroke="#191919" stroke-width="0.35 px" style="stroke-width:0.35;stroke-miterlimit:4;stroke-dasharray:none;fill:none;fill-opacity:1;fill-rule: evenodd"/>
<path id="Shape2DView_nwe0162"  d="M 0.32 -53.02 L 0.32 -53.66 " stroke="#191919" stroke-width="0.35 px" style="stroke-width:0.35;stroke-miterlimit:4;stroke-dasharray:none;fill:none;fill-opacity:1;fill-rule: evenodd"/>
<path id="Shape2DView_nwe0163"  d="M 0.32 -45.4 L 0.32 -46.04 " stroke="#191919" stroke-width="0.35 px" style="stroke-width:0.35;stroke-miterlimit:4;stroke-dasharray:none;fill:none;fill-opacity:1;fill-rule: evenodd"/>
<path id="Shape2DView_nwe0164"  d="M 0.32 -47.94 L 0.32 -48.58 " stroke="#191919" stroke-width="0.35 px" style="stroke-width:0.35;stroke-miterlimit:4;stroke-dasharray:none;fill:none;fill-opacity:1;fill-rule: evenodd"/>
<path id="Shape2DView_nwe0165"  d="M 0.32 -50.48 L 0.32 -51.12 " stroke="#191919" stroke-width="0.35 px" style="stroke-width:0.35;stroke-miterlimit:4;stroke-dasharray:none;fill:none;fill-opacity:1;fill-rule: evenodd"/>
<path id="Shape2DView_nwe0166"  d="M 0.32 -32.7 L 0.32 -33.34 " stroke="#191919" stroke-width="0.35 px" style="stroke-width:0.35;stroke-miterlimit:4;stroke-dasharray:none;fill:none;fill-opacity:1;fill-rule: evenodd"/>
<path id="Shape2DView_nwe0167"  d="M 0.32 -35.24 L 0.32 -35.88 " stroke="#191919" stroke-width="0.35 px" style="stroke-width:0.35;stroke-miterlimit:4;stroke-dasharray:none;fill:none;fill-opacity:1;fill-rule: evenodd"/>
<path id="Shape2DView_nwe0168"  d="M 0.32 -40.32 L 0.32 -40.96 " stroke="#191919" stroke-width="0.35 px" style="stroke-width:0.35;stroke-miterlimit:4;stroke-dasharray:none;fill:none;fill-opacity:1;fill-rule: evenodd"/>
<path id="Shape2DView_nwe0169"  d="M 0.32 -37.78 L 0.32 -38.42 " stroke="#191919" stroke-width="0.35 px" style="stroke-width:0.35;stroke-miterlimit:4;stroke-dasharray:none;fill:none;fill-opacity:1;fill-rule: evenodd"/>
<path id="Shape2DView_nwe0170"  d="M 0.32 -42.86 L 0.32 -43.5 " stroke="#191919" stroke-width="0.35 px" style="stroke-width:0.35;stroke-miterlimit:4;stroke-dasharray:none;fill:none;fill-opacity:1;fill-rule: evenodd"/>
<path id="Shape2DView_nwe0171"  d="M 0.32 -30.16 L 0.32 -30.8 " stroke="#191919" stroke-width="0.35 px" style="stroke-width:0.35;stroke-miterlimit:4;stroke-dasharray:none;fill:none;fill-opacity:1;fill-rule: evenodd"/>
<path id="Shape2DView_nwe0172"  d="M 0.32 -60.64 L 0.32 -61.28 " stroke="#191919" stroke-width="0.35 px" style="stroke-width:0.35;stroke-miterlimit:4;stroke-dasharray:none;fill:none;fill-opacity:1;fill-rule: evenodd"/>
<path id="Shape2DView_nwe0173"  d="M 0.32 -58.1 L 0.32 -58.74 " stroke="#191919" stroke-width="0.35 px" style="stroke-width:0.35;stroke-miterlimit:4;stroke-dasharray:none;fill:none;fill-opacity:1;fill-rule: evenodd"/>
<path id="Shape2DView_nwe0174"  d="M 0.32 0.32 L 0.32 -0.32 " stroke="#191919" stroke-width="0.35 px" style="stroke-width:0.35;stroke-miterlimit:4;stroke-dasharray:none;fill:none;fill-opacity:1;fill-rule: evenodd"/>
<path id="Shape2DView_nwe0175"  d="M 4.13 -30.98 L 4.38 -30.98 " stroke="#191919" stroke-width="0.35 px" style="stroke-width:0.35;stroke-miterlimit:4;stroke-dasharray:none;fill:none;fill-opacity:1;fill-rule: evenodd"/>
<path id="Shape2DView_nwe0176"  d="M 4.13 -29.98 L 4.38 -29.98 " stroke="#191919" stroke-width="0.35 px" style="stroke-width:0.35;stroke-miterlimit:4;stroke-dasharray:none;fill:none;fill-opacity:1;fill-rule: evenodd"/>
<path id="Shape2DView_nwe0178"  d="M 4.13 2.1 L 4.38 2.1 " stroke="#191919" stroke-width="0.35 px" style="stroke-width:0.35;stroke-miterlimit:4;stroke-dasharray:none;fill:none;fill-opacity:1;fill-rule: evenodd"/>
<path id="Shape2DView_nwe0179"  d="M 4.13 3.1 L 4.38 3.1 " stroke="#191919" stroke-width="0.35 px" style="stroke-width:0.35;stroke-miterlimit:4;stroke-dasharray:none;fill:none;fill-opacity:1;fill-rule: evenodd"/>
<path id="Shape2DView_nwe0180"  d="M 4.13 -63.06 L 4.38 -63.06 " stroke="#191919" stroke-width="0.35 px" style="stroke-width:0.35;stroke-miterlimit:4;stroke-dasharray:none;fill:none;fill-opacity:1;fill-rule: evenodd"/>
<path id="Shape2DView_nwe0181"  d="M 4.13 -64.06 L 4.38 -64.06 " stroke="#191919" stroke-width="0.35 px" style="stroke-width:0.35;stroke-miterlimit:4;stroke-dasharray:none;fill:none;fill-opacity:1;fill-rule: evenodd"/>
<title>b'Shape2DView'</title>
</g>
<g id="Rectangle" transform="translate(0.455500,5.235500) scale(1,-1)">
<rect fill="#ff0000" id="origin" width="1" height="1" x="0" y="0" />
<title>b'Rectangle'</title>
</g>
</svg>