<?xml version="1.0"?>
<!DOCTYPE svg PUBLIC "-//W3C//DTD SVG 1.1//EN" "http://www.w3.org/Graphics/SVG/1.1/DTD/svg11.dtd">
<svg width="13.821000000000002mm" height="23.171mm" viewBox="0 0 13.821000000000002 23.171" xmlns="http://www.w3.org/2000/svg" version="1.1">
<g id="Shape2DView" transform="translate(0.455500,5.235500) scale(1,-1)">
<path id="Shape2DView_nwe0000"  d="M 4.38 5.1 L 13.23 5.1 " stroke="#191919" stroke-width="0.35 px" style="stroke-width:0.35;stroke-miterlimit:4;stroke-dasharray:none;fill:none;fill-opacity:1;fill-rule: evenodd"/>
<path id="Shape2DView_nwe0001"  d="M 4.38 5.1 L 4.38 -17.799999999999997 " stroke="#191919" stroke-width="0.35 px" style="stroke-width:0.35;stroke-miterlimit:4;stroke-dasharray:none;fill:none;fill-opacity:1;fill-rule: evenodd"/>
<path id="Shape2DView_nwe0002"  d="M 4.38 -17.8 L 13.23 -17.8 " stroke="#191919" stroke-width="0.35 px" style="stroke-width:0.35;stroke-miterlimit:4;stroke-dasharray:none;fill:none;fill-opacity:1;fill-rule: evenodd"/>
<path id="Shape2DView_nwe0003"  d="M 13.23 -8.6 L 13.23 -17.799999999999997 " stroke="#191919" stroke-width="0.35 px" style="stroke-width:0.35;stroke-miterlimit:4;stroke-dasharray:none;fill:none;fill-opacity:1;fill-rule: evenodd"/>
<path id="Shape2DView_nwe0004"  d="M 13.23 -8.6 L 6.23 -8.6 " stroke="#191919" stroke-width="0.35 px" style="stroke-width:0.35;stroke-miterlimit:4;stroke-dasharray:none;fill:none;fill-opacity:1;fill-rule: evenodd"/>
<path id="Shape2DView_nwe0005"  d="M 6.23 -8.6 L 6.23 -4.1 " stroke="#191919" stroke-width="0.35 px" style="stroke-width:0.35;stroke-miterlimit:4;stroke-dasharray:none;fill:none;fill-opacity:1;fill-rule: evenodd"/>
<path id="Shape2DView_nwe0006"  d="M 6.23 -4.1 L 13.23 -4.1 " stroke="#191919" stroke-width="0.35 px" style="stroke-width:0.35;stroke-miterlimit:4;stroke-dasharray:none;fill:none;fill-opacity:1;fill-rule: evenodd"/>
<path id="Shape2DView_nwe0007"  d="M 13.23 5.1 L 13.23 -4.1 " stroke="#191919" stroke-width="0.35 px" style="stroke-width:0.35;stroke-miterlimit:4;stroke-dasharray:none;fill:none;fill-opacity:1;fill-rule: evenodd"/>
<path id="Shape2DView_nwe0008"  d="M 13.23 -8.6 L 13.23 -4.1 " stroke="#191919" stroke-width="0.35 px" style="stroke-width:0.35;stroke-miterlimit:4;stroke-dasharray:none;fill:none;fill-opacity:1;fill-rule: evenodd"/>
<path id="Shape2DView_nwe0009"  d="M 6.73 -4.1 L 6.73 -8.6 " stroke="#191919" stroke-width="0.35 px" style="stroke-width:0.35;stroke-miterlimit:4;stroke-dasharray:none;fill:none;fill-opacity:1;fill-rule: evenodd"/>
<path id="Shape2DView_nwe0010"  d="M 4.13 -14.8 L 4.13 -14.81253604390909 L 4.13 -14.84951556604879 L 4.13 -14.909084258765986 L 4.13 -14.988255099070633 L 4.13 -15.083058130441222 L 4.13 -15.188739533021844 L 4.13 -15.3 L 4.13 -15.411260466978158 L 4.13 -15.51694186955878 L 4.13 -15.611744900929367 L 4.13 -15.690915741234015 L 4.13 -15.750484433951211 L 4.13 -15.787463956090912 L 4.13 -15.8 " stroke="#191919" stroke-width="0.35 px" style="stroke-width:0.35;stroke-miterlimit:4;stroke-dasharray:none;fill:none;fill-opacity:1;fill-rule: evenodd"/>
<path id="Shape2DView_nwe0011"  d="M 4.38 -12.38 L 0.32 -12.38 " stroke="#191919" stroke-width="0.35 px" style="stroke-width:0.35;stroke-miterlimit:4;stroke-dasharray:none;fill:none;fill-opacity:1;fill-rule: evenodd"/>
<path id="Shape2DView_nwe0012"  d="M 0.32000000000000006 -12.38 L 0.24834273529388307 -12.38 L 0.17758660226795886 -12.38 L 0.10862140034869316 -12.38 L 0.04231440696476285 -12.38 L -0.020500528969815357 -12.38 L -0.07903347318958936 -12.38 L -0.13254833995939036 -12.38 L -0.18037214877953905 -12.38 L -0.22190348750610184 -12.38 L -0.2566200754575482 -12.38 L -0.2840853313973552 -12.38 L -0.3039538637963671 -12.38 L -0.31597581433167526 -12.38 L -0.32 -12.38 " stroke="#191919" stroke-width="0.35 px" style="stroke-width:0.35;stroke-miterlimit:4;stroke-dasharray:none;fill:none;fill-opacity:1;fill-rule: evenodd"/>
<path id="Shape2DView_nwe0013"  d="M 0.32 -13.02 L 4.38 -13.02 " stroke="#191919" stroke-width="0.35 px" style="stroke-width:0.35;stroke-miterlimit:4;stroke-dasharray:none;fill:none;fill-opacity:1;fill-rule: evenodd"/>
<path id="Shape2DView_nwe0014"  d="M 0.32000000000000006 -13.02 L 0.24834273529388307 -13.02 L 0.17758660226795886 -13.02 L 0.10862140034869316 -13.02 L 0.04231440696476285 -13.02 L -0.020500528969815357 -13.02 L -0.07903347318958936 -13.02 L -0.13254833995939036 -13.02 L -0.18037214877953905 -13.02 L -0.22190348750610184 -13.02 L -0.2566200754575482 -13.02 L -0.2840853313973552 -13.02 L -0.3039538637963671 -13.02 L -0.31597581433167526 -13.02 L -0.32 -13.02 " stroke="#191919" stroke-width="0.35 px" style="stroke-width:0.35;stroke-miterlimit:4;stroke-dasharray:none;fill:none;fill-opacity:1;fill-rule: evenodd"/>
<path id="Shape2DView_nwe0015"  d="M 4.38 -9.84 L 0.32 -9.84 " stroke="#191919" stroke-width="0.35 px" style="stroke-width:0.35;stroke-miterlimit:4;stroke-dasharray:none;fill:none;fill-opacity:1;fill-rule: evenodd"/>
<path id="Shape2DView_nwe0016"  d="M 0.32000000000000006 -9.84 L 0.24834273529388307 -9.84 L 0.17758660226795886 -9.84 L 0.10862140034869316 -9.84 L 0.04231440696476285 -9.84 L -0.020500528969815357 -9.84 L -0.07903347318958936 -9.84 L -0.13254833995939036 -9.84 L -0.18037214877953905 -9.84 L -0.22190348750610184 -9.84 L -0.2566200754575482 -9.84 L -0.2840853313973552 -9.84 L -0.3039538637963671 -9.84 L -0.31597581433167526 -9.84 L -0.32 -9.84 " stroke="#191919" stroke-width="0.35 px" style="stroke-width:0.35;stroke-miterlimit:4;stroke-dasharray:none;fill:none;fill-opacity:1;fill-rule: evenodd"/>
<path id="Shape2DView_nwe0017"  d="M 0.32 -10.48 L 4.38 -10.48 " stroke="#191919" stroke-width="0.35 px" style="stroke-width:0.35;stroke-miterlimit:4;stroke-dasharray:none;fill:none;fill-opacity:1;fill-rule: evenodd"/>
<path id="Shape2DView_nwe0018"  d="M 0.32000000000000006 -10.48 L 0.24834273529388307 -10.48 L 0.17758660226795886 -10.48 L 0.10862140034869316 -10.48 L 0.04231440696476285 -10.48 L -0.020500528969815357 -10.48 L -0.07903347318958936 -10.48 L -0.13254833995939036 -10.48 L -0.18037214877953905 -10.48 L -0.22190348750610184 -10.48 L -0.2566200754575482 -10.48 L -0.2840853313973552 -10.48 L -0.3039538637963671 -10.48 L -0.31597581433167526 -10.48 L -0.32 -10.48 " stroke="#191919" stroke-width="0.35 px" style="stroke-width:0.35;stroke-miterlimit:4;stroke-dasharray:none;fill:none;fill-opacity:1;fill-rule: evenodd"/>
<path id="Shape2DView_nwe0019"  d="M 0.32 -2.86 L 4.38 -2.86 " stroke="#191919" stroke-width="0.35 px" style="stroke-width:0.35;stroke-miterlimit:4;stroke-dasharray:none;fill:none;fill-opacity:1;fill-rule: evenodd"/>
<path id="Shape2DView_nwe0020"  d="M 4.38 -2.22 L 0.32 -2.22 " stroke="#191919" stroke-width="0.35 px" style="stroke-width:0.35;stroke-miterlimit:4;stroke-dasharray:none;fill:none;fill-opacity:1;fill-rule: evenodd"/>
<path id="Shape2DView_nwe0021"  d="M 0.32000000000000006 -2.22 L 0.24834273529388307 -2.22 L 0.17758660226795886 -2.22 L 0.10862140034869316 -2.22 L 0.04231440696476285 -2.22 L -0.020500528969815357 -2.22 L -0.07903347318958936 -2.22 L -0.13254833995939036 -2.22 L -0.18037214877953905 -2.22 L -0.22190348750610184 -2.22 L -0.2566200754575482 -2.22 L -0.2840853313973552 -2.22 L -0.3039538637963671 -2.22 L -0.31597581433167526 -2.22 L -0.32 -2.22 " stroke="#191919" stroke-width="0.35 px" style="stroke-width:0.35;stroke-miterlimit:4;stroke-dasharray:none;fill:none;fill-opacity:1;fill-rule: evenodd"/>
<path id="Shape2DView_nwe0022"  d="M 0.32000000000000006 -2.86 L 0.24834273529388307 -2.86 L 0.17758660226795886 -2.86 L 0.10862140034869316 -2.86 L 0.04231440696476285 -2.86 L -0.020500528969815357 -2.86 L -0.07903347318958936 -2.86 L -0.13254833995939036 -2.86 L -0.18037214877953905 -2.86 L -0.22190348750610184 -2.86 L -0.2566200754575482 -2.86 L -0.2840853313973552 -2.86 L -0.3039538637963671 -2.86 L -0.31597581433167526 -2.86 L -0.32 -2.86 " stroke="#191919" stroke-width="0.35 px" style="stroke-width:0.35;stroke-miterlimit:4;stroke-dasharray:none;fill:none;fill-opacity:1;fill-rule: evenodd"/>
<path id="Shape2DView_nwe0023"  d="M 0.32 -0.32 L 4.38 -0.32 " stroke="#191919" stroke-width="0.35 px" style="stroke-width:0.35;stroke-miterlimit:4;stroke-dasharray:none;fill:none;fill-opacity:1;fill-rule: evenodd"/>
<path id="Shape2DView_nwe0024"  d="M 0.32000000000000006 -0.32 L 0.24834273529388307 -0.32 L 0.17758660226795886 -0.32 L 0.10862140034869316 -0.32 L 0.04231440696476285 -0.32 L -0.020500528969815357 -0.32 L -0.07903347318958936 -0.32 L -0.13254833995939036 -0.32 L -0.18037214877953905 -0.32 L -0.22190348750610184 -0.32 L -0.2566200754575482 -0.32 L -0.2840853313973552 -0.32 L -0.3039538637963671 -0.32 L -0.31597581433167526 -0.32 L -0.32 -0.32 " stroke="#191919" stroke-width="0.35 px" style="stroke-width:0.35;stroke-miterlimit:4;stroke-dasharray:none;fill:none;fill-opacity:1;fill-rule: evenodd"/>
<path id="Shape2DView_nwe0025"  d="M 4.38 0.32 L 0.32 0.32 " stroke="#191919" stroke-width="0.35 px" style="stroke-width:0.35;stroke-miterlimit:4;stroke-dasharray:none;fill:none;fill-opacity:1;fill-rule: evenodd"/>
<path id="Shape2DView_nwe0026"  d="M 0.32000000000000006 0.32 L 0.24834273529388307 0.32 L 0.17758660226795886 0.32 L 0.10862140034869316 0.32 L 0.04231440696476285 0.32 L -0.020500528969815357 0.32 L -0.07903347318958936 0.32 L -0.13254833995939036 0.32 L -0.18037214877953905 0.32 L -0.22190348750610184 0.32 L -0.2566200754575482 0.32 L -0.2840853313973552 0.32 L -0.3039538637963671 0.32 L -0.31597581433167526 0.32 L -0.32 0.32 " stroke="#191919" stroke-width="0.35 px" style="stroke-width:0.35;stroke-miterlimit:4;stroke-dasharray:none;fill:none;fill-opacity:1;fill-rule: evenodd"/>
<path id="Shape2DView_nwe0027"  d="M 0.32 -7.94 L 4.38 -7.94 " stroke="#191919" stroke-width="0.35 px" style="stroke-width:0.35;stroke-miterlimit:4;stroke-dasharray:none;fill:none;fill-opacity:1;fill-rule: evenodd"/>
<path id="Shape2DView_nwe0028"  d="M 4.38 -7.3 L 0.32 -7.3 " stroke="#191919" stroke-width="0.35 px" style="stroke-width:0.35;stroke-miterlimit:4;stroke-dasharray:none;fill:none;fill-opacity:1;fill-rule: evenodd"/>
<path id="Shape2DView_nwe0029"  d="M 0.32000000000000006 -7.3 L 0.24834273529388307 -7.3 L 0.17758660226795886 -7.3 L 0.10862140034869316 -7.3 L 0.04231440696476285 -7.3 L -0.020500528969815357 -7.3 L -0.07903347318958936 -7.3 L -0.13254833995939036 -7.3 L -0.18037214877953905 -7.3 L -0.22190348750610184 -7.3 L -0.2566200754575482 -7.3 L -0.2840853313973552 -7.3 L -0.3039538637963671 -7.3 L -0.31597581433167526 -7.3 L -0.32 -7.3 " stroke="#191919" stroke-width="0.35 px" style="stroke-width:0.35;stroke-miterlimit:4;stroke-dasharray:none;fill:none;fill-opacity:1;fill-rule: evenodd"/>
<path id="Shape2DView_nwe0030"  d="M 0.32000000000000006 -7.94 L 0.24834273529388307 -7.94 L 0.17758660226795886 -7.94 L 0.10862140034869316 -7.94 L 0.04231440696476285 -7.94 L -0.020500528969815357 -7.94 L -0.07903347318958936 -7.94 L -0.13254833995939036 -7.94 L -0.18037214877953905 -7.94 L -0.22190348750610184 -7.94 L -0.2566200754575482 -7.94 L -0.2840853313973552 -7.94 L -0.3039538637963671 -7.94 L -0.31597581433167526 -7.94 L -0.32 -7.94 " stroke="#191919" stroke-width="0.35 px" style="stroke-width:0.35;stroke-miterlimit:4;stroke-dasharray:none;fill:none;fill-opacity:1;fill-rule: evenodd"/>
<path id="Shape2DView_nwe0031"  d="M 0.32 -5.4 L 4.38 -5.4 " stroke="#191919" stroke-width="0.35 px" style="stroke-width:0.35;stroke-miterlimit:4;stroke-dasharray:none;fill:none;fill-opacity:1;fill-rule: evenodd"/>
<path id="Shape2DView_nwe0032"  d="M 0.32000000000000006 -5.4 L 0.24834273529388307 -5.4 L 0.17758660226795886 -5.4 L 0.10862140034869316 -5.4 L 0.04231440696476285 -5.4 L -0.020500528969815357 -5.4 L -0.07903347318958936 -5.4 L -0.13254833995939036 -5.4 L -0.18037214877953905 -5.4 L -0.22190348750610184 -5.4 L -0.2566200754575482 -5.4 L -0.2840853313973552 -5.4 L -0.3039538637963671 -5.4 L -0.31597581433167526 -5.4 L -0.32 -5.4 " stroke="#191919" stroke-width="0.35 px" style="stroke-width:0.35;stroke-miterlimit:4;stroke-dasharray:none;fill:none;fill-opacity:1;fill-rule: evenodd"/>
<path id="Shape2DView_nwe0033"  d="M 4.38 -4.76 L 0.32 -4.76 " stroke="#191919" stroke-width="0.35 px" style="stroke-width:0.35;stroke-miterlimit:4;stroke-dasharray:none;fill:none;fill-opacity:1;fill-rule: evenodd"/>
<path id="Shape2DView_nwe0034"  d="M 0.32000000000000006 -4.76 L 0.24834273529388307 -4.76 L 0.17758660226795886 -4.76 L 0.10862140034869316 -4.76 L 0.04231440696476285 -4.76 L -0.020500528969815357 -4.76 L -0.07903347318958936 -4.76 L -0.13254833995939036 -4.76 L -0.18037214877953905 -4.76 L -0.22190348750610184 -4.76 L -0.2566200754575482 -4.76 L -0.2840853313973552 -4.76 L -0.3039538637963671 -4.76 L -0.31597581433167526 -4.76 L -0.32 -4.76 " stroke="#191919" stroke-width="0.35 px" style="stroke-width:0.35;stroke-miterlimit:4;stroke-dasharray:none;fill:none;fill-opacity:1;fill-rule: evenodd"/>
<path id="Shape2DView_nwe0035"  d="M 4.13 -5.85 L 4.13 -5.8625360439090874 L 4.13 -5.89951556604879 L 4.13 -5.9590842587659845 L 4.13 -6.038255099070633 L 4.13 -6.133058130441221 L 4.13 -6.2387395330218425 L 4.13 -6.35 L 4.13 -6.461260466978157 L 4.13 -6.566941869558779 L 4.13 -6.661744900929366 L 4.13 -6.740915741234015 L 4.13 -6.800484433951209 L 4.13 -6.837463956090912 L 4.13 -6.85 " stroke="#191919" stroke-width="0.35 px" style="stroke-width:0.35;stroke-miterlimit:4;stroke-dasharray:none;fill:none;fill-opacity:1;fill-rule: evenodd"/>
<path id="Shape2DView_nwe0036"  d="M 4.13 3.1 L 4.13 3.087463956090912 L 4.13 3.0504844339512096 L 4.13 2.990915741234015 L 4.13 2.9117449009293668 L 4.13 2.816941869558779 L 4.13 2.7112604669781573 L 4.13 2.6 L 4.13 2.488739533021843 L 4.13 2.383058130441221 L 4.13 2.2882550990706334 L 4.13 2.2090842587659854 L 4.13 2.1495155660487906 L 4.13 2.1125360439090883 L 4.13 2.1 " stroke="#191919" stroke-width="0.35 px" style="stroke-width:0.35;stroke-miterlimit:4;stroke-dasharray:none;fill:none;fill-opacity:1;fill-rule: evenodd"/>
<path id="Shape2DView_nwe0037"  d="M 6.73 -7.94 L 12.18 -7.94 " stroke="#191919" stroke-width="0.35 px" style="stroke-width:0.35;stroke-miterlimit:4;stroke-dasharray:none;fill:none;fill-opacity:1;fill-rule: evenodd"/>
<path id="Shape2DView_nwe0038"  d="M 12.18 -7.3 L 12.18 -7.94 " stroke="#191919" stroke-width="0.35 px" style="stroke-width:0.35;stroke-miterlimit:4;stroke-dasharray:none;fill:none;fill-opacity:1;fill-rule: evenodd"/>
<path id="Shape2DView_nwe0039"  d="M 12.18 -7.3 L 6.73 -7.3 " stroke="#191919" stroke-width="0.35 px" style="stroke-width:0.35;stroke-miterlimit:4;stroke-dasharray:none;fill:none;fill-opacity:1;fill-rule: evenodd"/>
<path id="Shape2DView_nwe0040"  d="M 12.18 -4.76 L 6.73 -4.76 " stroke="#191919" stroke-width="0.35 px" style="stroke-width:0.35;stroke-miterlimit:4;stroke-dasharray:none;fill:none;fill-opacity:1;fill-rule: evenodd"/>
<path id="Shape2DView_nwe0041"  d="M 6.73 -5.4 L 12.18 -5.4 " stroke="#191919" stroke-width="0.35 px" style="stroke-width:0.35;stroke-miterlimit:4;stroke-dasharray:none;fill:none;fill-opacity:1;fill-rule: evenodd"/>
<path id="Shape2DView_nwe0042"  d="M 12.18 -4.76 L 12.18 -5.4 " stroke="#191919" stroke-width="0.35 px" style="stroke-width:0.35;stroke-miterlimit:4;stroke-dasharray:none;fill:none;fill-opacity:1;fill-rule: evenodd"/>
<path id="Shape2DView_nwe0043"  d="M -0.32 -12.38 L -0.32 -13.02 " stroke="#191919" stroke-width="0.35 px" style="stroke-width:0.35;stroke-miterlimit:4;stroke-dasharray:none;fill:none;fill-opacity:1;fill-rule: evenodd"/>
<path id="Shape2DView_nwe0044"  d="M -0.32 -9.84 L -0.32 -10.48 " stroke="#191919" stroke-width="0.35 px" style="stroke-width:0.35;stroke-miterlimit:4;stroke-dasharray:none;fill:none;fill-opacity:1;fill-rule: evenodd"/>
<path id="Shape2DView_nwe0045"  d="M -0.32 -2.22 L -0.32 -2.86 " stroke="#191919" stroke-width="0.35 px" style="stroke-width:0.35;stroke-miterlimit:4;stroke-dasharray:none;fill:none;fill-opacity:1;fill-rule: evenodd"/>
<path id="Shape2DView_nwe0046"  d="M -0.32 0.32 L -0.32 -0.32 " stroke="#191919" stroke-width="0.35 px" style="stroke-width:0.35;stroke-miterlimit:4;stroke-dasharray:none;fill:none;fill-opacity:1;fill-rule: evenodd"/>
<path id="Shape2DView_nwe0047"  d="M -0.32 -7.3 L -0.32 -7.94 " stroke="#191919" stroke-width="0.35 px" style="stroke-width:0.35;stroke-miterlimit:4;stroke-dasharray:none;fill:none;fill-opacity:1;fill-rule: evenodd"/>
<path id="Shape2DView_nwe0048"  d="M -0.32 -4.76 L -0.32 -5.4 " stroke="#191919" stroke-width="0.35 px" style="stroke-width:0.35;stroke-miterlimit:4;stroke-dasharray:none;fill:none;fill-opacity:1;fill-rule: evenodd"/>
<path id="Shape2DView_nwe0049"  d="M 12.18 -7.3 L 12.38 -7.5 " stroke="#191919" stroke-width="0.35 px" style="stroke-width:0.35;stroke-miterlimit:4;stroke-dasharray:none;fill:none;fill-opacity:1;fill-rule: evenodd"/>
<path id="Shape2DView_nwe0050"  d="M 12.18 -7.9399999999999995 L 12.379999999999999 -7.739999999999999 " stroke="#191919" stroke-width="0.35 px" style="stroke-width:0.35;stroke-miterlimit:4;stroke-dasharray:none;fill:none;fill-opacity:1;fill-rule: evenodd"/>
<path id="Shape2DView_nwe0051"  d="M 12.38 -7.5 L 12.38 -7.74 " stroke="#191919" stroke-width="0.35 px" style="stroke-width:0.35;stroke-miterlimit:4;stroke-dasharray:none;fill:none;fill-opacity:1;fill-rule: evenodd"/>
<path id="Shape2DView_nwe0052"  d="M 12.18 -4.76 L 12.38 -4.96 " stroke="#191919" stroke-width="0.35 px" style="stroke-width:0.35;stroke-miterlimit:4;stroke-dasharray:none;fill:none;fill-opacity:1;fill-rule: evenodd"/>
<path id="Shape2DView_nwe0053"  d="M 12.18 -5.3999999999999995 L 12.379999999999999 -5.199999999999999 " stroke="#191919" stroke-width="0.35 px" style="stroke-width:0.35;stroke-miterlimit:4;stroke-dasharray:none;fill:none;fill-opacity:1;fill-rule: evenodd"/>
<path id="Shape2DView_nwe0054"  d="M 12.38 -4.96 L 12.38 -5.2 " stroke="#191919" stroke-width="0.35 px" style="stroke-width:0.35;stroke-miterlimit:4;stroke-dasharray:none;fill:none;fill-opacity:1;fill-rule: evenodd"/>
<path id="Shape2DView_nwe0055"  d="M 0.32 -12.38 L 0.32 -13.02 " stroke="#191919" stroke-width="0.35 px" style="stroke-width:0.35;stroke-miterlimit:4;stroke-dasharray:none;fill:none;fill-opacity:1;fill-rule: evenodd"/>
<path id="Shape2DView_nwe0056"  d="M 0.32 -9.84 L 0.32 -10.48 " stroke="#191919" stroke-width="0.35 px" style="stroke-width:0.35;stroke-miterlimit:4;stroke-dasharray:none;fill:none;fill-opacity:1;fill-rule: evenodd"/>
<path id="Shape2DView_nwe0057"  d="M 0.32 -2.22 L 0.32 -2.86 " stroke="#191919" stroke-width="0.35 px" style="stroke-width:0.35;stroke-miterlimit:4;stroke-dasharray:none;fill:none;fill-opacity:1;fill-rule: evenodd"/>
<path id="Shape2DView_nwe0058"  d="M 0.32 0.32 L 0.32 -0.32 " stroke="#191919" stroke-width="0.35 px" style="stroke-width:0.35;stroke-miterlimit:4;stroke-dasharray:none;fill:none;fill-opacity:1;fill-rule: evenodd"/>
<path id="Shape2DView_nwe0059"  d="M 0.32 -7.3 L 0.32 -7.94 " stroke="#191919" stroke-width="0.35 px" style="stroke-width:0.35;stroke-miterlimit:4;stroke-dasharray:none;fill:none;fill-opacity:1;fill-rule: evenodd"/>
<path id="Shape2DView_nwe0060"  d="M 0.32 -4.76 L 0.32 -5.4 " stroke="#191919" stroke-width="0.35 px" style="stroke-width:0.35;stroke-miterlimit:4;stroke-dasharray:none;fill:none;fill-opacity:1;fill-rule: evenodd"/>
<path id="Shape2DView_nwe0061"  d="M 4.13 -15.8 L 4.38 -15.8 " stroke="#191919" stroke-width="0.35 px" style="stroke-width:0.35;stroke-miterlimit:4;stroke-dasharray:none;fill:none;fill-opacity:1;fill-rule: evenodd"/>
<path id="Shape2DView_nwe0062"  d="M 4.13 -14.8 L 4.38 -14.8 " stroke="#191919" stroke-width="0.35 px" style="stroke-width:0.35;stroke-miterlimit:4;stroke-dasharray:none;fill:none;fill-opacity:1;fill-rule: evenodd"/>
<path id="Shape2DView_nwe0063"  d="M 4.13 -6.85 L 4.38 -6.85 " stroke="#191919" stroke-width="0.35 px" style="stroke-width:0.35;stroke-miterlimit:4;stroke-dasharray:none;fill:none;fill-opacity:1;fill-rule: evenodd"/>
<path id="Shape2DView_nwe0064"  d="M 4.13 -5.85 L 4.38 -5.85 " stroke="#191919" stroke-width="0.35 px" style="stroke-width:0.35;stroke-miterlimit:4;stroke-dasharray:none;fill:none;fill-opacity:1;fill-rule: evenodd"/>
<path id="Shape2DView_nwe0065"  d="M 4.13 2.1 L 4.38 2.1 " stroke="#191919" stroke-width="0.35 px" style="stroke-width:0.35;stroke-miterlimit:4;stroke-dasharray:none;fill:none;fill-opacity:1;fill-rule: evenodd"/>
<path id="Shape2DView_nwe0066"  d="M 4.13 3.1 L 4.38 3.1 " stroke="#191919" stroke-width="0.35 px" style="stroke-width:0.35;stroke-miterlimit:4;stroke-dasharray:none;fill:none;fill-opacity:1;fill-rule: evenodd"/>
<title>b'Shape2DView'</title>
</g>
<g id="Rectangle" transform="translate(0.455500,5.235500) scale(1,-1)">
<rect fill="#ff0000" id="origin" width="1" height="1" x="0" y="0" />
<title>b'Rectangle'</title>
</g>
</svg>